<?xml version="1.0" ?><svg id="Lines" viewBox="0 0 512 512" xmlns="http://www.w3.org/2000/svg"><defs><style>.cls-1{fill:#3f456b;}</style></defs><title/><path class="cls-1" d="M352,501a5,5,0,0,1-5-5V399.79c0-.17.56-18.93-11.43-31.37C328.26,360.84,317.64,357,304,357H65c-13.68,0-24.31,3.86-31.62,11.48C21.36,381,22,399.61,22,399.79V496a5,5,0,0,1-10,0V400.09c-.06-2-.38-23.37,14.16-38.53C35.43,351.9,48.5,347,65,347H304c16.5,0,29.57,4.9,38.84,14.56,14.54,15.16,14.22,36.53,14.16,38.53V496A5,5,0,0,1,352,501Z"/><path class="cls-1" d="M352,469H17.33a5,5,0,1,1,0-10H352a5,5,0,0,1,0,10Z"/><path class="cls-1" d="M352,436H17.33a5,5,0,1,1,0-10H352a5,5,0,0,1,0,10Z"/><path class="cls-1" d="M320,389a5,5,0,0,1-5-5V302.91c0-.13,0-.26,0-.4s.68-10.75-6.17-18.11c-4.6-4.95-11.75-7.47-21.23-7.49-19.5.94-36.41-5.62-51.69-20.05-9.83-9.28-18.57-14.44-29.24-17.24-28-7.36-55-.08-78.08,21.06C113.86,274.17,94.58,277,81,277c-9.59,0-16.79,2.54-21.41,7.55-6.76,7.33-6.11,17.94-6.11,18.05s0,.27,0,.4v80.09a5,5,0,0,1-10,0V303.16c-.12-2-.5-15.37,8.74-25.39C58.83,270.62,68.51,267,81,267c16.69,0,31.2-4.87,40.86-13.7,25.37-23.21,56.4-31.5,87.38-23.35,12.39,3.25,22.43,9.13,33.56,19.64,13.4,12.66,27.53,18.16,44.45,17.33h.25c12.49,0,22.17,3.63,28.76,10.78,9.24,10,8.86,23.36,8.74,25.38V384A5,5,0,0,1,320,389Z"/><path class="cls-1" d="M349.77,389H19.23a5,5,0,0,1,0-10H349.77a5,5,0,0,1,0,10Z"/><path class="cls-1" d="M96.33,335a5,5,0,0,1-5-5V271.33a5,5,0,0,1,10,0V330A5,5,0,0,1,96.33,335Z"/><path class="cls-1" d="M88.33,435a5,5,0,0,1-5-5V352.33a5,5,0,0,1,10,0V430A5,5,0,0,1,88.33,435Z"/><path class="cls-1" d="M151.33,435a5,5,0,0,1-5-5V352.33a5,5,0,0,1,10,0V430A5,5,0,0,1,151.33,435Z"/><path class="cls-1" d="M217.33,435a5,5,0,0,1-5-5V352.33a5,5,0,0,1,10,0V430A5,5,0,0,1,217.33,435Z"/><path class="cls-1" d="M280.33,435a5,5,0,0,1-5-5V352.33a5,5,0,0,1,10,0V430A5,5,0,0,1,280.33,435Z"/><path class="cls-1" d="M272.33,335a5,5,0,0,1-5-5V271.33a5,5,0,0,1,10,0V330A5,5,0,0,1,272.33,335Z"/><path class="cls-1" d="M215,334a5,5,0,0,1-5-5V237a5,5,0,0,1,10,0v92A5,5,0,0,1,215,334Z"/><path class="cls-1" d="M153,334a5,5,0,0,1-5-5V239a5,5,0,0,1,10,0v90A5,5,0,0,1,153,334Z"/><path class="cls-1" d="M64.85,389a6.27,6.27,0,0,1-.74-.05,5,5,0,0,1-4.21-5.68,139.07,139.07,0,0,0-1.51-48.22c-1.36-4-.93-9,3.1-11.47,4.45-2.75,10.25-1.21,12.16-.58,4,.74,45.15,7.95,92.82-.05,2.56-.62,8.43-1.65,12.12.63,4.26,2.63,4.3,7.9,3,11.65a107.81,107.81,0,0,0-1.94,47.57,5,5,0,1,1-9.82,1.86,116.2,116.2,0,0,1,2.23-52.47,21.64,21.64,0,0,0-3.42.51l-.37.08c-51.88,8.74-95.12.34-96.93,0a4.79,4.79,0,0,1-.74-.21,11.21,11.21,0,0,0-2.71-.53,5.25,5.25,0,0,1,.17.6,149.4,149.4,0,0,1,1.69,52.12A5,5,0,0,1,64.85,389Zm108.82-56.75Z"/><path class="cls-1" d="M303.83,389a5,5,0,0,1-4.91-4.06,116.22,116.22,0,0,1,2.18-52.75,21.64,21.64,0,0,0-3.42.51l-.37.08c-51.88,8.74-95.12.34-96.93,0a4.79,4.79,0,0,1-.74-.21,11.21,11.21,0,0,0-2.71-.53,5.25,5.25,0,0,1,.17.6,147.12,147.12,0,0,1,1.73,51.88,5,5,0,1,1-9.9-1.44,139,139,0,0,0-1.54-48c-1.36-4-.93-9,3.1-11.47,4.45-2.75,10.24-1.21,12.16-.58,4,.74,45.15,7.95,92.82-.05,2.56-.62,8.44-1.65,12.12.63,4.26,2.64,4.3,7.9,3,11.65a107.87,107.87,0,0,0-1.89,47.83,5,5,0,0,1-4,5.85A5.17,5.17,0,0,1,303.83,389Zm-1.16-56.75Z"/><path class="cls-1" d="M496,501a5,5,0,0,1-5-5V356H389V496a5,5,0,0,1-10,0V351a5,5,0,0,1,5-5H496a5,5,0,0,1,5,5V496A5,5,0,0,1,496,501Z"/><path class="cls-1" d="M496,485H384a5,5,0,0,1,0-10H496a5,5,0,0,1,0,10Z"/><path class="cls-1" d="M496,421H384a5,5,0,0,1,0-10H496a5,5,0,0,1,0,10Z"/><path class="cls-1" d="M480,308H400a5,5,0,0,1-4.73-6.61l16-47A5,5,0,0,1,416,251h48a5,5,0,0,1,4.73,3.39l16,47A5,5,0,0,1,480,308Zm-73-10h66l-12.6-37H419.58Z"/><path class="cls-1" d="M440,337a5,5,0,0,1-5-5V303a5,5,0,0,1,10,0v29A5,5,0,0,1,440,337Z"/><path class="cls-1" d="M416.49,356a5,5,0,0,1-5-4.59,21.55,21.55,0,0,1,5.62-15.56c5-5.43,12.7-8.18,22.86-8.18s17.91,2.72,23.15,8.1a22.45,22.45,0,0,1,6.35,15.37,5,5,0,1,1-10-.28,12.6,12.6,0,0,0-3.63-8.22c-3.29-3.3-8.63-5-15.87-5s-12.47,1.67-15.51,5a11.93,11.93,0,0,0-3,8,5,5,0,0,1-4.57,5.39Z"/><path class="cls-1" d="M464,325a5,5,0,0,1-5-5V303a5,5,0,0,1,10,0v17A5,5,0,0,1,464,325Z"/><path class="cls-1" d="M352,212H16a5,5,0,0,1-5-5V15a5,5,0,0,1,5-5H352a5,5,0,0,1,5,5V207A5,5,0,0,1,352,212ZM21,202H347V20H21Z"/><path class="cls-1" d="M330,190H39a5,5,0,0,1-5-5V38a5,5,0,0,1,5-5H330a5,5,0,0,1,5,5V185A5,5,0,0,1,330,190ZM44,180H325V43H44Z"/><path class="cls-1" d="M446.12,380H434.88a5,5,0,0,1,0-10h11.24a5,5,0,0,1,0,10Z"/><path class="cls-1" d="M446.12,444H434.88a5,5,0,0,1,0-10h11.24a5,5,0,0,1,0,10Z"/><path class="cls-1" d="M39,155a5,5,0,0,1-2.56-9.3l116-69A5,5,0,0,1,158,77l85,63a5,5,0,0,1-6,8L154.7,87,41.56,154.3A5.09,5.09,0,0,1,39,155Z"/><path class="cls-1" d="M330,137a5,5,0,0,1-2.43-.63L267.14,102.8l-46.68,29a5,5,0,0,1-5.28-8.49l49.18-30.57a5,5,0,0,1,5.07-.12l63,35A5,5,0,0,1,330,137Z"/><path class="cls-1" d="M118.66,107.61a5,5,0,0,1-5-4.93,13.78,13.78,0,0,0-4.29-10.43c-6.23-5.81-18.07-6.49-22.1-6.26a5,5,0,0,1-4.49-2.29C77.19,75,68.61,70.59,57.34,70.62a50.28,50.28,0,0,0-16.47,3,5,5,0,0,1-3.75-9.27C49.08,59.51,74.85,56,89.61,76c5.68.13,18.39,1.31,26.59,9,4.85,4.52,7.36,10.45,7.47,17.61a5,5,0,0,1-4.93,5.07Z"/><path class="cls-1" d="M286.76,113a4.78,4.78,0,0,1-1.77-.33,5,5,0,0,1-2.9-6.44c.11-.31,12-30.4,48.21-28.2a5,5,0,1,1-.6,10c-29-1.74-38.17,21.53-38.26,21.76A5,5,0,0,1,286.76,113Z"/></svg>