<?xml version="1.0" ?><svg viewBox="0 0 512 512" xmlns="http://www.w3.org/2000/svg"><defs><style>.cls-1{fill:#3f456b;}</style></defs><title/><g id="Lines"><path class="cls-1" d="M48.41,501.3a4.94,4.94,0,0,1-3.53-1.46L10.94,465.9a5,5,0,0,1,0-7.07L73.16,396.6a5,5,0,0,1,7.07,0l34,33.94a5,5,0,0,1,0,7.08L52,499.84A5,5,0,0,1,48.41,501.3ZM21.54,462.36l26.87,26.87,55.16-55.15L76.7,407.21Z"/><path class="cls-1" d="M279.64,411.69A24.94,24.94,0,0,1,262,404.38L107.1,249.53a25,25,0,0,1,0-35.36l77.08-77.07a25,25,0,0,1,35.35,0L374.39,292a25,25,0,0,1,0,35.36l-77.07,77.07A25,25,0,0,1,279.64,411.69ZM201.86,139.78a14.94,14.94,0,0,0-10.61,4.39l-77.07,77.07a15,15,0,0,0,0,21.22L269,397.31a15,15,0,0,0,21.22,0l77.07-77.07a15,15,0,0,0,0-21.22L212.46,144.17A14.91,14.91,0,0,0,201.86,139.78Z"/><path class="cls-1" d="M372.27,301.9a5,5,0,0,1-3.54-8.53l119.51-119.5a15,15,0,0,0,0-21.22L357.42,21.84a15,15,0,0,0-21.21,0l-119.5,119.5a5,5,0,0,1-7.08-7.07L329.14,14.77a25,25,0,0,1,35.35,0L495.31,145.58a25,25,0,0,1,0,35.36L375.8,300.44A5,5,0,0,1,372.27,301.9Z"/><path class="cls-1" d="M160.6,483.21a18.56,18.56,0,0,1-13.54-5.64L33.92,364.43c-10-9.95-4.56-23.51-.32-29.3l70.69-93.33a5,5,0,1,1,8,6L41.62,341.11c-.23.32-7,9.89-.63,16.25L154.13,470.5c6.43,6.43,16.21-.6,16.31-.68l93.3-70.68a5,5,0,1,1,6,8l-93.35,70.73A28.35,28.35,0,0,1,160.6,483.21Z"/><path class="cls-1" d="M263.88,330.22c-7.67,0-16.59-2.74-25.43-11.58L192.9,273.1c-13.48-13.48-12.78-27.19-9.82-36.31a45.09,45.09,0,0,1,9.55-16.22l29.73-29.73c18-18,0-36.73-.74-37.52a5,5,0,1,1,7.14-7,46.84,46.84,0,0,1,9.65,16c3.09,9,4.05,22.54-9,35.57l-29.7,29.69a35.67,35.67,0,0,0-7.24,12.57c-2.9,9.29-.38,18,7.48,25.86l45.55,45.54c18.91,18.91,37.6.93,38.39.15l29.67-29.67c13-13,26.57-12,35.63-8.91a47.21,47.21,0,0,1,16.07,9.7,5,5,0,0,1-7,7.15,37.46,37.46,0,0,0-12.62-7.49c-9.15-3.05-17.57-.83-25,6.62L291,318.82a45.11,45.11,0,0,1-16.21,9.62A35.22,35.22,0,0,1,263.88,330.22Z"/><path class="cls-1" d="M262.67,292.91A24.84,24.84,0,0,1,245,285.59L225.9,266.5a25,25,0,0,1,0-35.36L228,229a25,25,0,0,1,35.35,0l19.1,19.09a25,25,0,0,1,0,35.35l-2.12,2.13h0A24.83,24.83,0,0,1,262.67,292.91Zm-17-61.21a14.91,14.91,0,0,0-10.61,4.39L233,238.21a15,15,0,0,0,0,21.22l19.09,19.09a15,15,0,0,0,21.21,0l2.12-2.12a15,15,0,0,0,0-21.22l-19.1-19.09A14.9,14.9,0,0,0,245.7,231.7Zm31.11,50.35h0Z"/><path class="cls-1" d="M369.13,254.13a5,5,0,0,1-3.54-1.47L258.11,145.18a5,5,0,0,1,0-7.07l38.5-38.49a5,5,0,0,1,7.07,0L411.16,207.1a5,5,0,0,1,0,7.07l-38.5,38.49A5,5,0,0,1,369.13,254.13ZM268.72,141.65,369.13,242.06l31.42-31.43L300.14,110.23Z"/><path class="cls-1" d="M435.33,178.14a5,5,0,0,1-3.54-1.46L331,75.89a5,5,0,0,1,0-7.07l39.36-39.36a5,5,0,0,1,7.07,7.07L341.61,72.36l93.72,93.71,35.83-35.83a5,5,0,1,1,7.07,7.07l-39.37,39.37A5,5,0,0,1,435.33,178.14Z"/><path class="cls-1" d="M385.07,127.88a5,5,0,0,1-3.54-8.53l38.19-38.19a5,5,0,0,1,7.07,7.07L388.6,126.42A5,5,0,0,1,385.07,127.88Z"/><path class="cls-1" d="M359.74,102.55A5,5,0,0,1,356.2,94l38.89-38.89a5,5,0,0,1,7.07,7.07l-38.89,38.89A5,5,0,0,1,359.74,102.55Z"/><path class="cls-1" d="M410.4,153.21a5,5,0,0,1-3.54-8.53l38.89-38.89a5,5,0,0,1,7.08,7.07l-38.9,38.89A5,5,0,0,1,410.4,153.21Z"/></g><g id="Outline"><path class="cls-1" d="M141,322.41a5,5,0,0,1-3.53-1.47L88.72,272.15a5,5,0,0,1,7.07-7.07l48.79,48.79a5,5,0,0,1-3.54,8.54Z"/><path class="cls-1" d="M107.1,356.35a5,5,0,0,1-3.53-1.47L59.73,311A5,5,0,1,1,66.8,304l43.84,43.84a5,5,0,0,1-3.54,8.54Z"/><path class="cls-1" d="M90.13,373.32a5,5,0,0,1-3.53-1.47L44.88,330.13A5,5,0,0,1,52,323.06l41.72,41.72a5,5,0,0,1-3.54,8.54Z"/><path class="cls-1" d="M124.07,339.38a5,5,0,0,1-3.53-1.47L73.87,291.24a5,5,0,0,1,7.07-7.07l46.67,46.67a5,5,0,0,1-3.54,8.54Z"/><path class="cls-1" d="M242.87,424.23a5,5,0,0,1-3.54-1.46L190.54,374a5,5,0,1,1,7.07-7.07l48.79,48.8a5,5,0,0,1-3.53,8.53Z"/><path class="cls-1" d="M204,453.22a5,5,0,0,1-3.54-1.46L156.6,407.92a5,5,0,1,1,7.07-7.07l43.84,43.84a5,5,0,0,1-3.53,8.53Z"/><path class="cls-1" d="M184.89,468.07a5,5,0,0,1-3.54-1.46l-41.72-41.72a5,5,0,0,1,7.07-7.07l41.72,41.72a5,5,0,0,1-3.53,8.53Z"/><path class="cls-1" d="M223.78,439.08a5,5,0,0,1-3.54-1.46L173.57,391a5,5,0,1,1,7.07-7.07l46.67,46.66a5,5,0,0,1-3.53,8.54Z"/><path class="cls-1" d="M316.5,124.5A5,5,0,0,1,313,116l32.5-32.5a5,5,0,0,1,7.08,7.08L320,123A5,5,0,0,1,316.5,124.5Z"/><path class="cls-1" d="M341,149a5,5,0,0,1-3.54-8.54L370,108A5,5,0,0,1,377,115l-32.5,32.5A5,5,0,0,1,341,149Z"/><path class="cls-1" d="M366,174a5,5,0,0,1-3.54-8.54L395,133A5,5,0,0,1,402,140l-32.5,32.5A5,5,0,0,1,366,174Z"/><path class="cls-1" d="M390.5,198.5A5,5,0,0,1,387,190l32.5-32.5a5,5,0,0,1,7.08,7.08L394,197A5,5,0,0,1,390.5,198.5Z"/></g></svg>