<?xml version="1.0" ?><svg viewBox="0 0 512 512" xmlns="http://www.w3.org/2000/svg"><defs><style>.cls-1{fill:#3f456b;}</style></defs><title/><g id="Lines"><path class="cls-1" d="M341.6,361.6c-13.48,0-26.65-6.11-37.14-17.25-12.26-13-19.44-31.31-18.3-46.66,1.67-22.62-22.88-54.48-51.25-57.31-22.09-2.21-43.44-14.65-54.38-31.69-8.4-13.1-10.15-27.88-5.06-42.76,11.59-33.81,41.45-48.37,66.18-57.27h0c2.74-1,5.63-2,8.83-3,42.71-14,75.75-32,101-55,3.75-3.42,9.68-9.06,16-15C377.1,26.38,388,16,394.05,10.77a5,5,0,0,1,4.74-1c1.45.45,35.83,11.21,62.63,41.59C490.5,84.33,497,109.24,498,114a5,5,0,0,1-1.4,4.76,4.93,4.93,0,0,1-2.11,1.2c-5,3-31.75,24.72-42,33-3.75,3-6.22,5.05-7,5.65-17.75,13.73-34.72,29.23-38.68,49.55-2.56,13.12,2.2,25.22,7.23,38,4.86,12.36,9.89,25.14,8.39,39.45-2.83,27.06-22.6,53.94-49.19,66.88-6.77,3.29-19.79,8.85-30.95,9ZM245,118.07c-24,8.65-49.95,21.49-60.1,51.1a38.25,38.25,0,0,0,4,34.12c9.21,14.35,28.08,25.25,47,27.14,15.91,1.59,31.9,10.76,43.88,25.15,11.22,13.49,17.33,29.51,16.35,42.85-.92,12.48,5.35,28.18,15.6,39.07,6.17,6.54,16.42,14.3,30.37,14.09,9.56-.13,21.87-5.63,26.72-8,23.6-11.48,41.13-35.16,43.61-58.92,1.25-11.88-3.12-23-7.74-34.75-5.34-13.58-10.86-27.62-7.75-43.6,4.6-23.58,23.09-40.63,42.38-55.55.7-.53,3.41-2.73,6.83-5.51,7.05-5.7,17.69-14.33,26.84-21.55,5.06-4,9.07-7.09,11.9-9.18.85-.63,1.65-1.22,2.42-1.77C484.9,104.75,477,84.1,453.92,58c-20.87-23.66-47.23-34.7-55.47-37.74-6.12,5.47-15.62,14.5-24.11,22.58-6.32,6-12.28,11.68-16.11,15.17-26.32,24-60.55,42.74-104.64,57.16-3.11,1-5.9,2-8.56,2.93Zm244.46.56a5.19,5.19,0,0,0,1.07.85,5,5,0,0,1-1-.82l0,0Z"/><path class="cls-1" d="M103.66,499.51a5.17,5.17,0,0,1-.68,0h0c-1.29-.18-32-4.64-59.26-36.2C23,439.29,11.9,405.6,11.44,404.18a5,5,0,0,1,2-5.73C57,370,86.19,347.84,95.56,300.64c2.18-11,.34-22.09-1.62-33.83-2.47-14.85-5-30.2.94-45.82a74.4,74.4,0,0,1,33.47-38.38c15.91-8.82,33.76-11.06,50.28-6.33l-2.76,9.62c-28.26-8.11-60.4,9.23-71.65,38.66-5,13.08-2.77,26.45-.42,40.61,2,12.1,4.11,24.62,1.57,37.42C94.8,355.83,58.32,381,22.22,404.67c3.39,9.17,13.46,34,29.06,52.06a105.07,105.07,0,0,0,36.1,27.38,78.48,78.48,0,0,0,13.76,4.8,128.2,128.2,0,0,1,9.62-9.86c5.46-5.22,11.19-10.38,12.18-11.22,18.6-15.9,41.35-33.33,69-42.05,16.81-5.3,34.21-7.38,51-9.39,12.63-1.52,25.7-3.08,38.18-6,12.24-2.86,41.51-11.59,49-30.88,2.38-6.15,1.91-16.09-1-21.28l8.72-4.9c4.88,8.68,4.65,22,1.62,29.79-8.87,22.88-38.91,33-56,37-13,3-26.37,4.64-39.27,6.18-16.38,2-33.31,4-49.23,9-25.93,8.17-47.66,24.86-65.5,40.11-3.5,3-18,16.44-20.92,20.25a5,5,0,0,1-4.86,3.83Zm3.62-8.44c.12.13.23.26.34.4a4.23,4.23,0,0,0-.34-.4Z"/><path class="cls-1" d="M317.33,277a5,5,0,0,1-5-5c0-17.77-5.09-31.76-15.14-41.6-16.77-16.42-41.83-16.07-42.08-16.07a5,5,0,1,1-.22-10c1.19,0,29.55-.4,49.29,18.92C316.23,235,322.33,251.44,322.33,272A5,5,0,0,1,317.33,277Z"/><path class="cls-1" d="M17,376a5,5,0,0,1-2.42-9.38c40.89-22.56,45.3-60.53,50-100.73C66,253.56,67.47,240.81,70,228.24c4.69-23.18,12.86-43.52,24.27-60.45,30.28-44.94,83.11-65.78,120.21-77.56C316,58,364,11.89,364.5,11.42a5,5,0,0,1,7,7.15c-2,2-50.05,48.21-154,81.2C143,123.4,116.24,153.1,102.57,173.37c-10.67,15.84-18.33,35-22.76,56.86-2.46,12.15-3.92,24.69-5.32,36.81C69.73,308,64.81,350.33,19.42,375.38A5,5,0,0,1,17,376Z"/><path class="cls-1" d="M145,500a5,5,0,0,1-3.82-8.21c1.35-1.61,34.33-39.62,131.1-53.73,53.26-7.77,90.11-21.77,116-44.08C418.36,368,433,330.36,433,279c0-47.62,10.3-84.51,30.61-109.64,15.56-19.26,31.34-24,32-24.16a5,5,0,0,1,2.79,9.6c-.25.07-14,4.4-27.53,21.48C447.84,205.33,443,248.17,443,279c0,54.44-15.78,94.52-48.23,122.53-27.35,23.62-65.82,38.36-121,46.42-48.4,7.06-79.8,20.37-97.62,30.3-19.26,10.72-27.21,19.89-27.29,20A5,5,0,0,1,145,500Z"/><path class="cls-1" d="M107.21,217.93l-9-4.29c.37-.78,9.27-19.33,27.63-39.83,17-19,45.68-43.23,85.62-50.72l1.84,9.82C141.94,146.29,107.55,217.21,107.21,217.93Z"/><path class="cls-1" d="M302.13,414.32l-1.87-9.82c42.82-8.15,74.07-26.47,90.35-53,12.11-19.71,11.8-36.91,11.79-37.08l10-.27c0,.82.38,20.37-13.27,42.58C376.65,393.35,334,408.26,302.13,414.32Z"/></g><g id="Outline"><path class="cls-1" d="M229,390a5,5,0,0,1,0-10c41.22,0,60.05-10.44,68.58-19.2,8.32-8.55,8.35-16.86,8.34-16.94a5,5,0,0,1,10-.26c0,.51.19,12.51-11.17,24.17C290.38,382.52,264.89,390,229,390Z"/></g></svg>