<?xml version="1.0" ?><svg id="Lines" viewBox="0 0 512 512" xmlns="http://www.w3.org/2000/svg"><defs><style>.cls-1{fill:#3f456b;}</style></defs><title/><path class="cls-1" d="M465.56,213.5h-44a5,5,0,1,1,0-10h44a25,25,0,0,0,25-25V45.36a25,25,0,0,0-25-25H398.5a25,25,0,0,0-25,25v55.39a5,5,0,0,1-10,0V45.36a35,35,0,0,1,35-35h67.06a35,35,0,0,1,35,35V178.5A35,35,0,0,1,465.56,213.5Z"/><path class="cls-1" d="M443,165H422.36a35,35,0,0,1-35-35V17a5,5,0,0,1,10,0V130a25,25,0,0,0,25,25H443a25,25,0,0,0,25-25V17a5,5,0,0,1,10,0V130A35,35,0,0,1,443,165Z"/><path class="cls-1" d="M438.33,186.33H427a5,5,0,0,1,0-10h11.3a5,5,0,0,1,0,10Z"/><path class="cls-1" d="M86.56,159.56a74,74,0,1,1,74-77.53,5,5,0,0,1-10,.47,64,64,0,1,0-36,60.67,5,5,0,1,1,4.37,9A73.42,73.42,0,0,1,86.56,159.56Z"/><path class="cls-1" d="M86.57,120.58c-15.43,0-25.58-7.8-25.95-20a5,5,0,0,1,10-.29c.09,3.15,1.85,10.47,16.42,10.28,4.73-.06,9.34-1.9,11.75-4.68a7.74,7.74,0,0,0,1.82-6.41c-.43-3.27-2.44-5.73-10.84-7.1L87.23,92C79.6,90.85,71,89.55,65,81.14a15,15,0,0,1-2.56-11.56,21.07,21.07,0,0,1,9-13.15c6.62-4.49,16.74-5.18,25.18-1.72a24.39,24.39,0,0,1,13.51,13.48,5,5,0,1,1-9.31,3.64,14.5,14.5,0,0,0-8-7.86c-5.31-2.18-11.94-1.87-15.77.73a11.22,11.22,0,0,0-4.78,6.67,5,5,0,0,0,.89,4c3.31,4.69,8.07,5.62,15.55,6.75l2.65.41c4.32.71,17.47,2.85,19.15,15.67a17.68,17.68,0,0,1-4.18,14.26c-4.32,5-11.49,8-19.17,8.13Z"/><path class="cls-1" d="M86.48,62.48a5,5,0,0,1-5-5V44a5,5,0,1,1,10,0V57.48A5,5,0,0,1,86.48,62.48Z"/><path class="cls-1" d="M86.48,134.32a5,5,0,0,1-5-5V115.85a5,5,0,0,1,10,0v13.47A5,5,0,0,1,86.48,134.32Z"/><path class="cls-1" d="M257.32,500.78h-1c-3.27,0-6.57,0-9.81-.17a5,5,0,1,1,.36-10c3.12.11,6.3.16,9.45.16h1c44.13,0,84.69-11.15,120.56-33.16a5,5,0,0,1,5.22,8.53C345.64,489.13,303.32,500.78,257.32,500.78Z"/><path class="cls-1" d="M418.45,347.46a5,5,0,0,1-3.23-1.19l-46.55-39.45a5,5,0,1,1,6.47-7.63l46.54,39.46a5,5,0,0,1-3.23,8.81Z"/><path class="cls-1" d="M257.58,370.88a5,5,0,0,1-.14-10A135.12,135.12,0,0,0,388.72,225.72l-.09-43.24c0-74.57-60.58-135.23-135-135.23s-135,60.66-135,135.22v43.25a134.68,134.68,0,0,0,23.2,75.86,137.41,137.41,0,0,0,9.05,11.89A5,5,0,0,1,143.2,320a145.15,145.15,0,0,1-34.64-94.24V182.47c0-80.07,65.06-145.22,145-145.22s145,65.15,145,145.22l.09,43.24a145.1,145.1,0,0,1-141,145.17Z"/><path class="cls-1" d="M114.6,248.3h-.32c-18.49-1.16-33-16.29-33-34.45a34.63,34.63,0,0,1,29.27-34,5,5,0,0,1,1.65,9.86,24.66,24.66,0,0,0-20.92,24.16c0,12.89,10.37,23.64,23.59,24.47a5,5,0,0,1-.3,10Z"/><path class="cls-1" d="M393.31,248.3a5,5,0,0,1-.31-10c13.23-.83,23.59-11.58,23.59-24.47a24.65,24.65,0,0,0-20.91-24.16,5,5,0,1,1,1.65-9.86,34.62,34.62,0,0,1,29.26,34c0,18.16-14.48,33.29-33,34.45Z"/><path class="cls-1" d="M354.55,184.79c-25.7,0-53.45-5.57-76.51-23.37a96.08,96.08,0,0,1-24.86-28.29C235.61,159,207,175.37,169.93,180.83a193.77,193.77,0,0,1-56.57-.08,5,5,0,0,1,1.76-9.84,187.72,187.72,0,0,0,53.63,0c38-5.65,65.08-22.66,80.58-50.56a5,5,0,0,1,9.09.75c.06.17,6.62,17.88,26.18,32.77,25.94,19.76,63.11,25.69,107.49,17.17a5,5,0,0,1,1.89,9.82A211.61,211.61,0,0,1,354.55,184.79Z"/><path class="cls-1" d="M229.28,248.3H171.83a16.21,16.21,0,0,1-16.19-16.19v-39a5,5,0,0,1,5-5h79.83a5,5,0,0,1,5,5v39A16.21,16.21,0,0,1,229.28,248.3Zm-63.64-50.21v34a6.2,6.2,0,0,0,6.19,6.19h57.45a6.2,6.2,0,0,0,6.19-6.19v-34Z"/><path class="cls-1" d="M336.28,248.3H278.83a16.21,16.21,0,0,1-16.19-16.19v-39a5,5,0,0,1,5-5h79.83a5,5,0,0,1,5,5v39A16.21,16.21,0,0,1,336.28,248.3Zm-63.64-50.21v34a6.2,6.2,0,0,0,6.19,6.19h57.45a6.2,6.2,0,0,0,6.19-6.19v-34Z"/><path class="cls-1" d="M267.64,207H240.47a5,5,0,0,1,0-10h27.17a5,5,0,0,1,0,10Z"/><path class="cls-1" d="M347.46,207a5,5,0,0,1-.95-9.91l45.85-8.91a5,5,0,1,1,1.91,9.81l-45.85,8.92A5.2,5.2,0,0,1,347.46,207Z"/><path class="cls-1" d="M160.09,207a5.2,5.2,0,0,1-1-.09L113.29,198a5,5,0,1,1,1.9-9.81L161,197.09a5,5,0,0,1-.95,9.91Z"/><path class="cls-1" d="M299.39,429.33a5,5,0,0,1-4.54-2.91L268,368a5,5,0,1,1,9.08-4.18l24.84,53.93c27.63-12.77,45.35-33.46,52.67-61.57a107,107,0,0,0,2.61-40.85,5,5,0,0,1,9.85-1.73,115.65,115.65,0,0,1-2.78,45.11c-5.87,22.52-21.55,53-62.92,70.21A5,5,0,0,1,299.39,429.33Z"/><path class="cls-1" d="M304.5,304.42H206.35a5,5,0,0,1-5-5c0-9.84,3.34-18,9.94-24.39,14.83-14.27,41.11-13.73,43.28-13.66h1.7c2.18-.07,28.45-.61,43.29,13.66,6.6,6.35,9.94,14.55,9.94,24.39A5,5,0,0,1,304.5,304.42Zm-92.74-10h87.33a21.6,21.6,0,0,0-6.46-12.18c-12.13-11.66-35.84-10.88-36.08-10.87h-2.26c-.46,0-24.09-.69-36.09,10.89A21.52,21.52,0,0,0,211.76,294.42Z"/><path class="cls-1" d="M296.83,358.44c-5.9,0-11.95-1-17.2-3.72a25.37,25.37,0,0,1-12.3-14.39h-9.75a5,5,0,1,1,0-10h13.49a5,5,0,0,1,4.87,3.88c1.29,5.56,4,9.37,8.33,11.65,10.64,5.62,28.85.64,35-1.75a5,5,0,0,1,3.66,9.31C322.15,353.71,309.9,358.44,296.83,358.44Z"/><g data-name="&lt;编组&gt;" id="_编组_"><path class="cls-1" d="M447.83,375.09a5.05,5.05,0,0,1-1.43-.21,5,5,0,0,1-3.37-6.21l14.27-48a5,5,0,0,1,4.1-3.53,37.38,37.38,0,0,0,23.35-61.21l-7.82,26.32a5,5,0,0,1-6.22,3.37l-30-8.91a5,5,0,0,1-3.37-6.22l7.73-26A37.38,37.38,0,0,0,431.42,308a5,5,0,0,1,1.47,5.15l-14.34,48.25a5,5,0,0,1-9.59-2.85l13.47-45.32A47.36,47.36,0,0,1,451.77,233a5,5,0,0,1,5.27,6.4l-8.67,29.16,20.4,6.06,8.72-29.34a5,5,0,0,1,7.87-2.52A47.37,47.37,0,0,1,466,326.47l-13.39,45A5,5,0,0,1,447.83,375.09Z"/></g><path class="cls-1" d="M433.19,494a66.76,66.76,0,0,1-8.54-.55c-35.63-4.62-60.92-37-56.36-72.13a63.15,63.15,0,0,1,6.94-21.73,5,5,0,1,1,8.82,4.71,53.3,53.3,0,0,0-5.84,18.3c-3.85,29.69,17.56,57,47.73,60.93a57.25,57.25,0,0,0,7.24.47c27.24,0,50.91-19.92,54.45-47.21,3.43-26.45-12.9-51.28-38.82-59a5,5,0,1,1,2.87-9.58c30.64,9.16,49.93,38.56,45.86,69.9C493.35,470.35,465.37,494,433.19,494Z"/><path class="cls-1" d="M421.71,445.75a48.6,48.6,0,0,1-6.12-.39,46.13,46.13,0,0,1-30.45-17.17,44.11,44.11,0,0,1-9.28-33.26h0a44.09,44.09,0,0,1,17.46-29.8,46.6,46.6,0,0,1,64.26,8.33,44.22,44.22,0,0,1-8.17,63.06A45.9,45.9,0,0,1,421.71,445.75ZM421,365.9a36,36,0,0,0-21.71,7.23,34.16,34.16,0,0,0-13.54,23.08h0A34.17,34.17,0,0,0,393,422a36.6,36.6,0,0,0,50.41,6.54,34.24,34.24,0,0,0,6.34-48.87,36.22,36.22,0,0,0-23.89-13.45A37.26,37.26,0,0,0,421,365.9Zm-40.21,29.67h0Z"/><path class="cls-1" d="M421.71,445.75a48.6,48.6,0,0,1-6.12-.39,46.13,46.13,0,0,1-30.45-17.17,44.11,44.11,0,0,1-9.28-33.26h0a44.09,44.09,0,0,1,17.46-29.8,46.6,46.6,0,0,1,64.26,8.33,44.22,44.22,0,0,1-8.17,63.06A45.9,45.9,0,0,1,421.71,445.75ZM421,365.9a36,36,0,0,0-21.71,7.23,34.16,34.16,0,0,0-13.54,23.08h0A34.17,34.17,0,0,0,393,422a36.6,36.6,0,0,0,50.41,6.54,34.24,34.24,0,0,0,6.34-48.87,36.22,36.22,0,0,0-23.89-13.45A37.26,37.26,0,0,0,421,365.9Zm-40.21,29.67h0Z"/><path class="cls-1" d="M239.8,409H162.12a5,5,0,0,1,0-10H239.8a12.33,12.33,0,0,0,12.32-12.33V334.88a12.33,12.33,0,0,0-12.32-12.32H34a12.34,12.34,0,0,0-12.33,12.32v51.77A12.34,12.34,0,0,0,34,399h77.14a5,5,0,0,1,0,10H34a22.36,22.36,0,0,1-22.33-22.33V334.88A22.35,22.35,0,0,1,34,312.56H239.8a22.34,22.34,0,0,1,22.32,22.32v51.77A22.35,22.35,0,0,1,239.8,409Z"/><path class="cls-1" d="M191.23,317.79h-10V299.64c0-11.2-10.55-13.55-19.4-13.55H111.05c-8.87,0-19.45,2.35-19.45,13.55v18.15h-10V299.64c0-14.75,11-23.55,29.45-23.55h50.78c18.41,0,29.4,8.8,29.4,23.55Z"/><path class="cls-1" d="M156.26,434.2H117a10.87,10.87,0,0,1-10.86-10.86v-28A10.88,10.88,0,0,1,117,384.48h39.27a10.88,10.88,0,0,1,10.86,10.86v28A10.87,10.87,0,0,1,156.26,434.2ZM117,394.48a.87.87,0,0,0-.86.86v28a.86.86,0,0,0,.86.86h39.27a.86.86,0,0,0,.86-.86v-28a.87.87,0,0,0-.86-.86Z"/><path class="cls-1" d="M239.8,501.3H34A22.36,22.36,0,0,1,11.66,479v-93.1a5,5,0,0,1,10,0V479A12.34,12.34,0,0,0,34,491.3H239.8A12.33,12.33,0,0,0,252.12,479v-93.1a5,5,0,0,1,10,0V479A22.35,22.35,0,0,1,239.8,501.3Z"/><path class="cls-1" d="M146.13,414.34h-19a5,5,0,0,1,0-10h19a5,5,0,1,1,0,10Z"/></svg>