<?xml version="1.0" ?><svg id="Lines" viewBox="0 0 512 512" xmlns="http://www.w3.org/2000/svg"><defs><style>.cls-1{fill:#3f456b;}</style></defs><title/><g data-name="&lt;编组&gt;" id="_编组_"><path class="cls-1" d="M353.12,76.31H160.79a5,5,0,0,1-5-5V15a5,5,0,0,1,5-5H353.12a5,5,0,0,1,5,5V71.31A5,5,0,0,1,353.12,76.31Zm-187.33-10H348.12V20H165.79Z"/></g><path class="cls-1" d="M257,501c-27.84,0-54.95-.64-80.57-1.9h-.16c-.74-.06-74.55-6-96.12-8.58-22-2.57-32.88-5.57-33.33-5.69A5,5,0,0,1,43.16,480V320.64c2-52,9.23-97.7,21.49-135.73,9.89-30.64,23.06-56.47,39.16-76.74,27.85-35.1,54.75-41.48,55.88-41.73a5,5,0,1,1,2.2,9.75c-.23.06-25.19,6.2-50.9,39-43.38,55.38-55.4,142.42-57.83,205.72V476.06c4.76,1.05,14.15,2.88,28.15,4.52,21.08,2.47,92.9,8.31,95.69,8.54,25.43,1.25,52.35,1.88,80,1.88,104.6,0,176-8.78,202.88-14.07v-156c-2.45-64.7-14.51-153.24-58-207.83-25.41-31.87-49.43-36.82-49.67-36.87a5,5,0,0,1,1.9-9.82c1.13.22,27.9,5.74,55.59,40.46,16,20,29,45.81,38.87,76.61,12.17,38.2,19.36,84.35,21.35,137.17V481a5,5,0,0,1-3.92,4.88C465.28,486,395.94,501,257,501Z"/><path class="cls-1" d="M256,157a5,5,0,0,1-5-5V15a5,5,0,0,1,10,0V152A5,5,0,0,1,256,157Z"/><path class="cls-1" d="M279.24,100.48a5,5,0,0,1-5-5v-.69a5,5,0,0,1,10,0v.69A5,5,0,0,1,279.24,100.48Z"/><path class="cls-1" d="M279.24,48.48a5,5,0,0,1-5-5v-.69a5,5,0,0,1,10,0v.69A5,5,0,0,1,279.24,48.48Z"/><path class="cls-1" d="M279.24,148.11a5,5,0,0,1-5-5v-.69a5,5,0,1,1,10,0v.69A5,5,0,0,1,279.24,148.11Z"/></svg>