<?xml version="1.0" ?><svg id="Lines" viewBox="0 0 512 512" xmlns="http://www.w3.org/2000/svg"><defs><style>.cls-1{fill:#3f456b;}</style></defs><title/><path class="cls-1" d="M21.11,331.86a5,5,0,0,1-5-5V285.32c0-23.79,9.77-38.63,18-46.9a5,5,0,1,1,7.1,7c-10,10.09-15.07,23.49-15.07,39.86v41.54A5,5,0,0,1,21.11,331.86Z"/><path class="cls-1" d="M21.11,370.7a5,5,0,0,1-3.87-1.82l-.9-1.1C15.16,366.45,5.45,355.1,5.45,341c0-13.78,9.88-18.52,15.11-19.09a5,5,0,0,1,1.09,0c5.23.57,15.11,5.31,15.11,19.09,0,14.12-9.71,25.47-10.89,26.8l-.9,1.1A5,5,0,0,1,21.11,370.7Zm0-38.76c-1.89.47-5.66,2.27-5.66,9s3.21,12.83,5.66,16.53c2.44-3.7,5.65-9.83,5.65-16.53S23,332.41,21.11,331.94Z"/><path class="cls-1" d="M441.91,145.44h-2.86a5,5,0,0,1,0-10h2.86a5,5,0,0,1,0,10Z"/><path class="cls-1" d="M446.34,184.36a36.7,36.7,0,0,1-26.8-11,5,5,0,1,1,7.08-7.06c17.15,17.2,42,1.52,42.23,1.36a5,5,0,0,1,3.48-.74c.19,0,19.73,2.87,22.67-8.47,1.62-6.26,1.27-11.2-1-14.68-3.11-4.68-9.08-5.59-9.14-5.6a6.14,6.14,0,0,1-.94-.23c-.33-.11-9.08-3-52.74-12.28a55.7,55.7,0,0,0-10.51-1.31,5,5,0,0,1,.19-10,65.7,65.7,0,0,1,12.4,1.53c40,8.52,51.23,11.77,53.45,12.46,2.2.4,10.51,2.34,15.53,9.76,4,6,4.87,13.65,2.48,22.86-2.19,8.46-9.2,14.05-19.74,15.73a50.36,50.36,0,0,1-12.24.33A54.5,54.5,0,0,1,446.34,184.36Z"/><path class="cls-1" d="M68.57,500H27.17a5,5,0,0,1-5-5V409.91c0-21.6,8.9-33.75,11-36.29,17.26-30.69,1.91-78.35,1.31-80.19-.88-2.4-13-37.08,3.4-64.1,9.75-16.06,27.35-25.82,52.3-29,.21,0,.42,0,.63,0,.4,0,39.89-.4,56.35-27,13.76-22.24,29.53-43,51.52-44.43,17-1.09,34.46,9.65,53.36,32.86.13.17.25.34.37.52s10.22,16.11,22.9,17.84c22.29,3,44.92,7.91,59.45,22.73,17.45,17.78,36.52,16.7,36.71,16.68a6.18,6.18,0,0,1,.86,0,12.1,12.1,0,0,0,8.46-3.25c4-3.73,6.15-10.68,6.15-20.08V153.72a48,48,0,0,1,2.43-19.22,5,5,0,1,1,9.4,3.4,38,38,0,0,0-1.86,15,5.07,5.07,0,0,1,0,.55v42.72c0,12.59-3.22,21.88-9.58,27.62a22,22,0,0,1-15.61,5.69c-3.3.12-24.72.1-44.13-19.68-12.42-12.67-33.13-17-53.67-19.82-16.4-2.24-28.18-19.6-29.85-22.17-16.41-20.09-31.47-29.85-44.78-29-17.51,1.13-31.89,20.71-43.65,39.71-8.1,13.09-21.94,22.73-40,27.88a101.15,101.15,0,0,1-24.51,3.86c-21.63,2.8-36.68,10.95-44.73,24.22-14.16,23.33-2.66,55.22-2.54,55.54,0,0,0,.08.05.13C44.65,292.37,61.68,344,41.6,379a5.35,5.35,0,0,1-.63.87c-.06.07-8.8,10.23-8.8,30.06V490H63a14.36,14.36,0,0,0-10.52-10.36,5,5,0,0,1-4-4.9V426.32c-.2-2.8-1.46-26.38,13.06-37.58a88.25,88.25,0,0,1,8.36-5.38c18.06-10.77,48.27-28.8,48.27-87.91a5,5,0,0,1,10,0c0,64.79-34.57,85.41-53.14,96.5a82.64,82.64,0,0,0-7.38,4.7c-10.78,8.32-9.2,28.84-9.18,29.05s0,.28,0,.42v45c6.7,2.86,15.15,10,15.15,23.88A5,5,0,0,1,68.57,500Z"/><path class="cls-1" d="M95.84,500H68.57a5,5,0,1,1,0-10H90.23a14.41,14.41,0,0,0-10.56-10.36,5.07,5.07,0,0,1-4-4.9V434.42c-.2-2.79-1.46-26.38,13.06-37.58,1.34-1,2.93-2.16,4.78-3.47,11.41-8.09,30.51-21.62,42.14-48.74a5,5,0,1,1,9.19,3.94c-12.74,29.71-34.08,44.83-45.55,53-1.76,1.24-3.27,2.32-4.45,3.23-10.78,8.31-9.2,28.83-9.18,29s0,.29,0,.42v36.9c6.7,2.86,15.15,10,15.15,23.88A5,5,0,0,1,95.84,500Z"/><path class="cls-1" d="M198.86,355.15c-31.42,0-59.74-3.81-84.17-11.33a5,5,0,1,1,2.94-9.56c23.48,7.23,50.81,10.89,81.23,10.89,25.43,0,39.79-.57,57.65-4a5,5,0,0,1,1.87,9.82C239.72,354.55,224.94,355.15,198.86,355.15Z"/><path class="cls-1" d="M309,342a5,5,0,0,1-1.38-9.81c25.54-7.32,34.64-31.64,34.73-31.89a5,5,0,0,1,4.79-3.29c27.87.48,49.84-7.71,65.25-24.38,31.23-33.81,26-91.58,26-92.15a5,5,0,0,1,10-1c.24,2.55,5.66,62.84-28.58,99.9-16.78,18.17-40.12,27.45-69.4,27.62-3.77,7.93-15.37,27.73-39.95,34.77A5.06,5.06,0,0,1,309,342Z"/><path class="cls-1" d="M315,500H272.59a5,5,0,0,1-5-5l.05-20.34V363c-7.17-5-26.31-21.89-26.31-58.44a5,5,0,0,1,10,0c0,38.11,23.44,51.18,23.68,51.31a5,5,0,0,1,2.63,4.4V474.67l0,15.33h31.82a14.13,14.13,0,0,0-10.19-10.44,5,5,0,0,1-4-4.89V350.15a5,5,0,0,1,1.22-3.27c.21-.24,21.25-25.36,15.6-67a5,5,0,1,1,9.91-1.35c5.54,40.75-11.82,66.88-16.73,73.33V471.09C311.79,474,320,481.21,320,495A5,5,0,0,1,315,500Z"/><path class="cls-1" d="M342.28,500H317.54a5,5,0,1,1,0-10h19.15a14.13,14.13,0,0,0-10.19-10.44,5,5,0,0,1-4-4.89V350.15a5,5,0,0,1,1.24-3.3c.11-.12,11.82-13.87,15.28-38.54a5,5,0,1,1,9.9,1.38c-3.24,23.16-12.94,37.64-16.42,42.22V471.09c6.53,2.91,14.75,10.12,14.75,23.91A5,5,0,0,1,342.28,500Z"/><path class="cls-1" d="M345.48,309.65a4.92,4.92,0,0,1-2.64-.76,5,5,0,0,1-1.6-6.88h0a83.48,83.48,0,0,0,10.21-32.37,5,5,0,0,1,9.95,1,92.07,92.07,0,0,1-11.67,36.67A5,5,0,0,1,345.48,309.65Z"/><path class="cls-1" d="M405.91,146.49a5,5,0,0,1-1.74-.31c-9-3.36-15.11-8.86-18.08-16.37-5.36-13.57,1.9-28.42,2.22-29A5,5,0,0,1,392.78,98c33.9,0,34.29,30,34.29,30.32a5,5,0,0,1-10,0c0-2-.85-18.58-21-20.22-1.4,4-3.28,11.54-.68,18.05,1.91,4.8,5.92,8.27,12.24,10.62a5,5,0,0,1-1.74,9.69Z"/><path class="cls-1" d="M355,117H293.42L17,116.15a5,5,0,0,1-2.93-9L145.42,11a5,5,0,0,1,5.73-.13l78.53,52.52,26-20a5,5,0,0,1,5.83-.19l96.25,64.67A5,5,0,0,1,355,117ZM32.23,106.2l261.21.8h45.15L259,53.49l-26,20a5,5,0,0,1-5.83.19L148.5,21.1Z"/><path class="cls-1" d="M419,500.08c-6.81,0-17.75-4.52-21.58-22.4-3.24-15.11-3.43-42.59,6.32-56.37,3.31-4.67,7.64-7.48,12.52-8.11a19.22,19.22,0,0,1,15.27,4.33c7.78,6.6,12.09,20.18,12.81,40.36,1.13,31.4-12,40.18-23.15,42h0A13.43,13.43,0,0,1,419,500.08Zm1.38-5.1h0Zm-1.2-72a13.42,13.42,0,0,0-1.64.11c-2.1.27-3.94,1.57-5.63,4-6.94,9.81-8,33-4.72,48.49,3.38,15.74,12.28,14.48,12.38,14.46h0c10.5-1.72,15.47-12.42,14.78-31.8-.6-16.76-3.9-28.51-9.28-33.08A8.71,8.71,0,0,0,419.2,423Z"/><path class="cls-1" d="M446.22,479.59a58.12,58.12,0,0,1-8.55-.65,5,5,0,0,1,1.45-9.89c10.74,1.56,19.42-.31,25.8-5.56,10.94-9,12.9-25.83,13.23-32.64,1.18-24.17-5.8-27.86-11.15-28.54-2.45-.31-3.52.32-4.18.91-4.38,3.86-4.37,19-4.37,25.46,0,7.51-2.23,13.08-6.62,16.54-6.28,4.94-14.15,3.22-15,3a5,5,0,0,1,2.3-9.73c.14,0,4.11.8,6.57-1.17,2.29-1.84,2.77-5.72,2.77-8.65,0-16.12,1.29-27.26,7.76-33,3.18-2.82,7.23-3.94,12-3.33,14.37,1.81,21.06,14.92,19.89,38.95-.49,10.11-3.34,28.73-16.87,39.87C464.5,476.78,456.1,479.59,446.22,479.59Z"/><path class="cls-1" d="M400,469h-.11c-29.47-.63-42.89-24.29-42.89-46,0-16.29,3-27.09,9.25-33a17.76,17.76,0,0,1,13.44-4.84c6.47.32,11.39,2.5,14.62,6.47,4.19,5.16,5.38,13.07,3.63,24.17-.49,3.1-.2,5.32.82,6.27,1.42,1.33,4.81,1.07,5.88.82a5,5,0,0,1,2.24,9.75c-.94.22-9.35,2-14.95-3.26-3.62-3.38-4.92-8.47-3.87-15.14,1.25-7.91.73-13.55-1.51-16.3-.88-1.09-2.6-2.56-7.35-2.79a7.73,7.73,0,0,0-6.05,2.09C370.34,399.9,367,406.54,367,423c0,17.57,10.24,35.51,33.11,36a5,5,0,0,1-.11,10Z"/><path class="cls-1" d="M420.09,423a5,5,0,0,1-5-4.87c-.12-4.7-.58-46.11,20.57-52a17.22,17.22,0,0,1,16.51,3.64c7.59,6.72,11,20.82,8.77,35.92a5,5,0,1,1-9.88-1.48c1.72-11.47-.55-22.55-5.52-26.95a7.13,7.13,0,0,0-7.2-1.49c-5.28,1.46-9.4,9-11.6,21.31a118.5,118.5,0,0,0-1.65,20.79,5,5,0,0,1-4.87,5.12Z"/><path class="cls-1" d="M443,375.65a4.82,4.82,0,0,1-1.25-.16,5,5,0,0,1-3.6-6.09l3-11.65a5,5,0,1,1,9.68,2.5l-3,11.65A5,5,0,0,1,443,375.65Z"/><path class="cls-1" d="M454.15,386.7a5,5,0,0,1-2.81-9.14l9.85-6.7a5,5,0,1,1,5.62,8.28L457,385.83A5,5,0,0,1,454.15,386.7Z"/><path class="cls-1" d="M428,381a5,5,0,0,1-3.72-1.66l-9-10a5,5,0,0,1,7.44-6.68l9,10A5,5,0,0,1,428,381Z"/><path class="cls-1" d="M421.12,399.25a5.19,5.19,0,0,1-1.29-.17l-12.12-3.25a5,5,0,1,1,2.58-9.66l12.12,3.25a5,5,0,0,1-1.29,9.83Z"/><path class="cls-1" d="M481,413a5,5,0,0,1-2.24-9.47l10-5a5,5,0,1,1,4.48,8.94l-10,5A5,5,0,0,1,481,413Z"/><path class="cls-1" d="M493,439h-.19l-9.72-.38a5,5,0,1,1,.38-10l9.72.37a5,5,0,0,1-.19,10Z"/><path class="cls-1" d="M379,395a5,5,0,0,1-5-4.64l-1-14a5,5,0,0,1,10-.72l1,14a5,5,0,0,1-4.63,5.35Z"/><path class="cls-1" d="M363.66,408a5,5,0,0,1-2.12-.47l-10.66-5a5,5,0,0,1,4.24-9.06l10.67,5a5,5,0,0,1-2.13,9.53Z"/><path class="cls-1" d="M350,435a5,5,0,0,1-.61-10l12-1.5a5,5,0,0,1,1.24,9.92l-12,1.5A4.44,4.44,0,0,1,350,435Z"/></svg>