<?xml version="1.0" ?><svg viewBox="0 0 512 512" xmlns="http://www.w3.org/2000/svg"><defs><style>.cls-1{fill:#3f456b;}</style></defs><title/><g id="Lines"><path class="cls-1" d="M496,485H16a5,5,0,0,1-5-5V15a5,5,0,0,1,5-5H496a5,5,0,0,1,5,5V480A5,5,0,0,1,496,485ZM21,475H491V20H21Z"/><path class="cls-1" d="M16,500a5,5,0,0,1-5-5V477a5,5,0,0,1,10,0v18A5,5,0,0,1,16,500Z"/><path class="cls-1" d="M496,500a5,5,0,0,1-5-5V477a5,5,0,0,1,10,0v18A5,5,0,0,1,496,500Z"/><path class="cls-1" d="M496,136.25H16a5,5,0,0,1,0-10H496a5,5,0,0,1,0,10Z"/><path class="cls-1" d="M496,252.5H16a5,5,0,0,1,0-10H496a5,5,0,0,1,0,10Z"/><path class="cls-1" d="M496,368.75H474a5,5,0,0,1,0-10h22a5,5,0,0,1,0,10Z"/><path class="cls-1" d="M39.38,368.75H16a5,5,0,0,1,0-10H39.38a5,5,0,0,1,0,10Z"/><path class="cls-1" d="M102,500a5,5,0,0,1-5-5V437a5,5,0,0,1,10,0v58A5,5,0,0,1,102,500Z"/><path class="cls-1" d="M222,500a5,5,0,0,1-5-5V437a5,5,0,0,1,10,0v58A5,5,0,0,1,222,500Z"/><path class="cls-1" d="M474,382H40a5,5,0,0,1-5-5V345a5,5,0,0,1,5-5H474a5,5,0,0,1,5,5v32A5,5,0,0,1,474,382ZM45,372H469V350H45Z"/><path class="cls-1" d="M67,500a5,5,0,0,1-5-5V377a5,5,0,0,1,10,0V495A5,5,0,0,1,67,500Z"/><path class="cls-1" d="M445,500a5,5,0,0,1-5-5V377a5,5,0,0,1,10,0V495A5,5,0,0,1,445,500Z"/><path class="cls-1" d="M222,416H102a5,5,0,0,1,0-10H222a5,5,0,0,1,0,10Z"/><path class="cls-1" d="M222,441H102a5,5,0,0,1-5-5V377a5,5,0,0,1,10,0v54H217V377a5,5,0,0,1,10,0v59A5,5,0,0,1,222,441Z"/><path class="cls-1" d="M222,350a5,5,0,0,1-5-5V269H107v76a5,5,0,0,1-10,0V264a5,5,0,0,1,5-5H222a5,5,0,0,1,5,5v81A5,5,0,0,1,222,350Z"/><path class="cls-1" d="M290,500a5,5,0,0,1-5-5V437a5,5,0,0,1,10,0v58A5,5,0,0,1,290,500Z"/><path class="cls-1" d="M410,500a5,5,0,0,1-5-5V437a5,5,0,0,1,10,0v58A5,5,0,0,1,410,500Z"/><path class="cls-1" d="M410,416H290a5,5,0,0,1,0-10H410a5,5,0,0,1,0,10Z"/><path class="cls-1" d="M410,441H290a5,5,0,0,1-5-5V377a5,5,0,0,1,10,0v54H405V377a5,5,0,0,1,10,0v59A5,5,0,0,1,410,441Z"/><path class="cls-1" d="M410,332a5,5,0,0,1-5-5V269H295v58a5,5,0,0,1-10,0V264a5,5,0,0,1,5-5H410a5,5,0,0,1,5,5v63A5,5,0,0,1,410,332Z"/><path class="cls-1" d="M50.29,136a5,5,0,0,1-5-5V47a5,5,0,0,1,10,0v84A5,5,0,0,1,50.29,136Z"/><path class="cls-1" d="M256,136a5,5,0,0,1-5-5V47a5,5,0,0,1,10,0v84A5,5,0,0,1,256,136Z"/><path class="cls-1" d="M221.71,136a5,5,0,0,1-5-5V47a5,5,0,0,1,10,0v84A5,5,0,0,1,221.71,136Z"/><path class="cls-1" d="M187.43,136a5,5,0,0,1-5-5V47a5,5,0,0,1,10,0v84A5,5,0,0,1,187.43,136Z"/><path class="cls-1" d="M153.14,136a5,5,0,0,1-5-5V47a5,5,0,0,1,10,0v84A5,5,0,0,1,153.14,136Z"/><path class="cls-1" d="M118.86,136a5,5,0,0,1-5-5V47a5,5,0,0,1,10,0v84A5,5,0,0,1,118.86,136Z"/><path class="cls-1" d="M84.57,136a5,5,0,0,1-5-5V47a5,5,0,0,1,10,0v84A5,5,0,0,1,84.57,136Z"/><path class="cls-1" d="M324.57,136a5,5,0,0,1-5-5V52H16a5,5,0,0,1,0-10H324.57a5,5,0,0,1,5,5v84A5,5,0,0,1,324.57,136Z"/><path class="cls-1" d="M290.29,136a5,5,0,0,1-5-5V47a5,5,0,0,1,10,0v84A5,5,0,0,1,290.29,136Z"/><path class="cls-1" d="M461.71,136a5,5,0,0,1-5-5V47a5,5,0,0,1,10,0v84A5,5,0,0,1,461.71,136Z"/><path class="cls-1" d="M427.43,136a5,5,0,0,1-5-5V47a5,5,0,0,1,5-5H494a5,5,0,0,1,0,10H432.43v79A5,5,0,0,1,427.43,136Z"/><path class="cls-1" d="M50.29,252a5,5,0,0,1-5-5V161a5,5,0,0,1,10,0v86A5,5,0,0,1,50.29,252Z"/><path class="cls-1" d="M256,252a5,5,0,0,1-5-5V161a5,5,0,0,1,10,0v86A5,5,0,0,1,256,252Z"/><path class="cls-1" d="M221.71,252a5,5,0,0,1-5-5V161a5,5,0,0,1,10,0v86A5,5,0,0,1,221.71,252Z"/><path class="cls-1" d="M187.43,252a5,5,0,0,1-5-5V161a5,5,0,0,1,5-5H494a5,5,0,0,1,0,10H192.43v81A5,5,0,0,1,187.43,252Z"/><path class="cls-1" d="M153.14,252a5,5,0,0,1-5-5V166H16a5,5,0,0,1,0-10H153.14a5,5,0,0,1,5,5v86A5,5,0,0,1,153.14,252Z"/><path class="cls-1" d="M118.86,252a5,5,0,0,1-5-5V161a5,5,0,0,1,10,0v86A5,5,0,0,1,118.86,252Z"/><path class="cls-1" d="M84.57,252a5,5,0,0,1-5-5V161a5,5,0,0,1,10,0v86A5,5,0,0,1,84.57,252Z"/><path class="cls-1" d="M324.57,252a5,5,0,0,1-5-5V161a5,5,0,0,1,10,0v86A5,5,0,0,1,324.57,252Z"/><path class="cls-1" d="M290.29,252a5,5,0,0,1-5-5V161a5,5,0,0,1,10,0v86A5,5,0,0,1,290.29,252Z"/><path class="cls-1" d="M461.71,252a5,5,0,0,1-5-5V161a5,5,0,0,1,10,0v86A5,5,0,0,1,461.71,252Z"/><path class="cls-1" d="M427.43,252a5,5,0,0,1-5-5V161a5,5,0,0,1,10,0v86A5,5,0,0,1,427.43,252Z"/><path class="cls-1" d="M393.14,252a5,5,0,0,1-5-5V161a5,5,0,0,1,10,0v86A5,5,0,0,1,393.14,252Z"/><path class="cls-1" d="M358.86,252a5,5,0,0,1-5-5V161a5,5,0,0,1,10,0v86A5,5,0,0,1,358.86,252Z"/><path class="cls-1" d="M50.29,350a5,5,0,0,1-5-5V277a5,5,0,0,1,10,0v68A5,5,0,0,1,50.29,350Z"/><path class="cls-1" d="M256,350a5,5,0,0,1-5-5V277a5,5,0,0,1,10,0v68A5,5,0,0,1,256,350Z"/><path class="cls-1" d="M256,485a5,5,0,0,1-5-5V381a5,5,0,0,1,10,0v99A5,5,0,0,1,256,485Z"/><path class="cls-1" d="M84.57,350a5,5,0,0,1-5-5V277a5,5,0,0,1,10,0v68A5,5,0,0,1,84.57,350Z"/><path class="cls-1" d="M461.71,350a5,5,0,0,1-5-5V277a5,5,0,0,1,10,0v68A5,5,0,0,1,461.71,350Z"/><path class="cls-1" d="M427.43,350a5,5,0,0,1-5-5V277a5,5,0,0,1,10,0v68A5,5,0,0,1,427.43,350Z"/><path class="cls-1" d="M496,282H411a5,5,0,0,1,0-10h85a5,5,0,0,1,0,10Z"/><path class="cls-1" d="M289,282H222a5,5,0,0,1,0-10h67a5,5,0,0,1,0,10Z"/><path class="cls-1" d="M101.25,282H16a5,5,0,0,1,0-10h85.25a5,5,0,0,1,0,10Z"/><path class="cls-1" d="M286.59,350a5,5,0,0,1-4.95-4.3l-1.83-13a5,5,0,0,1,1.52-4.34c1.09-1,27-24.64,71.05-.75a5,5,0,1,1-4.76,8.79c-31.32-17-51.45-6.44-57.51-2.24l1.44,10.17a5,5,0,0,1-4.26,5.65A5.49,5.49,0,0,1,286.59,350Z"/><path class="cls-1" d="M413.41,350a5.49,5.49,0,0,1-.7-.05,5,5,0,0,1-4.26-5.65l1.44-10.19c-6.06-4.25-26-14.82-57.51,2.26a5,5,0,1,1-4.76-8.79c44-23.89,70-.27,71.05.75a5,5,0,0,1,1.52,4.34l-1.83,13A5,5,0,0,1,413.41,350Z"/></g><g id="Outline"><path class="cls-1" d="M324,69H16a5,5,0,0,1,0-10H324a5,5,0,0,1,0,10Z"/><path class="cls-1" d="M324,118H16a5,5,0,0,1,0-10H324a5,5,0,0,1,0,10Z"/><path class="cls-1" d="M496,69H428a5,5,0,0,1,0-10h68a5,5,0,0,1,0,10Z"/><path class="cls-1" d="M496,118H428a5,5,0,0,1,0-10h68a5,5,0,0,1,0,10Z"/><path class="cls-1" d="M496,184H187.43a5,5,0,0,1,0-10H496a5,5,0,0,1,0,10Z"/><path class="cls-1" d="M153,184H16a5,5,0,0,1,0-10H153a5,5,0,0,1,0,10Z"/><path class="cls-1" d="M496,233H187.43a5,5,0,0,1,0-10H496a5,5,0,0,1,0,10Z"/><path class="cls-1" d="M153,233H16a5,5,0,0,1,0-10H153a5,5,0,0,1,0,10Z"/><path class="cls-1" d="M496,301H411a5,5,0,0,1,0-10h85a5,5,0,0,1,0,10Z"/><path class="cls-1" d="M290,301H223a5,5,0,0,1,0-10h67a5,5,0,0,1,0,10Z"/><path class="cls-1" d="M102,301H16a5,5,0,0,1,0-10h86a5,5,0,0,1,0,10Z"/><path class="cls-1" d="M40,350H16a5,5,0,0,1,0-10H40a5,5,0,0,1,0,10Z"/><path class="cls-1" d="M495,350H471a5,5,0,0,1,0-10h24a5,5,0,0,1,0,10Z"/></g></svg>