<?xml version="1.0" ?><svg viewBox="0 0 512 512" xmlns="http://www.w3.org/2000/svg"><defs><style>.cls-1{fill:#3f456b;}.cls-2{fill:none;stroke:#3f456b;stroke-linecap:round;stroke-linejoin:round;stroke-width:10px;}</style></defs><title/><g id="Lines"><path class="cls-1" d="M275.81,420.62H237.19a13.78,13.78,0,0,1-13.77-13.77V232.42h-70a13.79,13.79,0,0,1-13.77-13.78V180a13.79,13.79,0,0,1,13.77-13.78h70v-62a13.79,13.79,0,0,1,13.77-13.77h38.62a13.79,13.79,0,0,1,13.77,13.77v62h70A13.79,13.79,0,0,1,373.39,180v38.61a13.79,13.79,0,0,1-13.77,13.78h-70V406.85A13.78,13.78,0,0,1,275.81,420.62ZM153.38,176.25a3.77,3.77,0,0,0-3.77,3.78v38.61a3.78,3.78,0,0,0,3.77,3.78h75a5,5,0,0,1,5,5V406.85a3.77,3.77,0,0,0,3.77,3.77h38.62a3.77,3.77,0,0,0,3.77-3.77V227.42a5,5,0,0,1,5-5h75a3.78,3.78,0,0,0,3.77-3.78V180a3.77,3.77,0,0,0-3.77-3.78h-75a5,5,0,0,1-5-5v-67a3.77,3.77,0,0,0-3.77-3.77H237.19a3.77,3.77,0,0,0-3.77,3.77v67a5,5,0,0,1-5,5Z"/></g><g id="Outline"><path class="cls-2" d="M256,64.86V14.26m0,481.24V444.9m190-190h50.6m-481.24,0H66M161,90.32l-25.3-43.83M376.31,463.26,351,419.44m69.55-259.57,43.82-25.3M47.61,375.19l43.83-25.3m0-190-43.82-25.3M464.38,375.19l-43.82-25.3M376.31,46.49,351,90.32M135.69,463.26,161,419.44M206.48,70.2l-7.64-28.53M304.91,437.55l8.36,31.2M441.22,208l28.53-7.65M42.66,314.78l31.21-8.36m48.78-187.88L100.91,96.8M413.56,409.45l-21.73-21.73M413.56,98.48l-21.74,21.73M100.91,411.13l21.74-21.74M73.27,203.67l-29.69-8M470.67,310.15,441,302.2M307.22,70.53l8-29.69M208.7,438.23l-8,29.7"/></g></svg>