<?xml version="1.0" ?><svg viewBox="0 0 512 512" xmlns="http://www.w3.org/2000/svg"><defs><style>.cls-1{fill:#3f456b;}</style></defs><title/><g id="Lines"><path class="cls-1" d="M496,339H178.88a5,5,0,0,1,0-10H491V21H21V329H64.5a5,5,0,0,1,0,10H16a5,5,0,0,1-5-5V16a5,5,0,0,1,5-5H496a5,5,0,0,1,5,5V334A5,5,0,0,1,496,339Z"/><path class="cls-1" d="M368,373H179a5,5,0,0,1,0-10H363V339H179a5,5,0,0,1,0-10H368a5,5,0,0,1,5,5v34A5,5,0,0,1,368,373Z"/><path class="cls-1" d="M412,373H178.81a5,5,0,1,1,0-10H412a5,5,0,0,1,0,10Z"/><path class="cls-1" d="M164.91,502H79.09A18.1,18.1,0,0,1,61,483.91V300.09A18.1,18.1,0,0,1,79.09,282h85.82A18.1,18.1,0,0,1,183,300.09V483.91A18.1,18.1,0,0,1,164.91,502ZM79.09,292A8.1,8.1,0,0,0,71,300.09V483.91A8.1,8.1,0,0,0,79.09,492h85.82a8.1,8.1,0,0,0,8.09-8.09V300.09a8.1,8.1,0,0,0-8.09-8.09Z"/></g><g id="Outline"><path class="cls-1" d="M106,364H92a5,5,0,0,1,0-10h14a5,5,0,0,1,0,10Z"/><path class="cls-1" d="M150,364H138a5,5,0,0,1,0-10h12a5,5,0,0,1,0,10Z"/><path class="cls-1" d="M121,348a5,5,0,0,1-5-5V331a5,5,0,0,1,10,0v12A5,5,0,0,1,121,348Z"/><path class="cls-1" d="M121,394a5,5,0,0,1-5-5V376a5,5,0,0,1,10,0v13A5,5,0,0,1,121,394Z"/><path class="cls-1" d="M257,356h-1a5,5,0,0,1,0-10h1a5,5,0,0,1,0,10Z"/><path class="cls-1" d="M151,319h-1a5,5,0,0,1,0-10h1a5,5,0,0,1,0,10Z"/><path class="cls-1" d="M92,418H91a5,5,0,0,1,0-10h1a5,5,0,0,1,0,10Z"/><path class="cls-1" d="M122,418h-1a5,5,0,0,1,0-10h1a5,5,0,0,1,0,10Z"/><path class="cls-1" d="M151,418h-1a5,5,0,0,1,0-10h1a5,5,0,0,1,0,10Z"/><path class="cls-1" d="M92,469H91a5,5,0,0,1,0-10h1a5,5,0,0,1,0,10Z"/><path class="cls-1" d="M122,469h-1a5,5,0,0,1,0-10h1a5,5,0,0,1,0,10Z"/><path class="cls-1" d="M151,469h-1a5,5,0,0,1,0-10h1a5,5,0,0,1,0,10Z"/><path class="cls-1" d="M92,443.5H91a5,5,0,0,1,0-10h1a5,5,0,0,1,0,10Z"/><path class="cls-1" d="M122,443.5h-1a5,5,0,0,1,0-10h1a5,5,0,0,1,0,10Z"/><path class="cls-1" d="M151,443.5h-1a5,5,0,0,1,0-10h1a5,5,0,0,1,0,10Z"/><path class="cls-1" d="M92,319H91a5,5,0,0,1,0-10h1a5,5,0,0,1,0,10Z"/><path class="cls-1" d="M206.5,229.5A5,5,0,0,1,203,221l99-99A5,5,0,0,1,309,129l-99,99A5,5,0,0,1,206.5,229.5Z"/><path class="cls-1" d="M256,230a5,5,0,0,1-3.54-8.54l50-50a5,5,0,0,1,7.08,7.08l-50,50A5,5,0,0,1,256,230Z"/></g></svg>