<?xml version="1.0" ?><svg enable-background="new 0 0 512 512" version="1.1" viewBox="0 0 512 512" xml:space="preserve" xmlns="http://www.w3.org/2000/svg" xmlns:xlink="http://www.w3.org/1999/xlink"><g id="Lines"><g><g><path d="M44,356h-9c-13.785,0-25-11.215-25-25V179c0-13.785,11.215-25,25-25h9c13.785,0,25,11.215,25,25v152     C69,344.785,57.785,356,44,356z M35,164c-8.271,0-15,6.729-15,15v152c0,8.271,6.729,15,15,15h9c8.271,0,15-6.729,15-15V179     c0-8.271-6.729-15-15-15H35z" fill="#3F456B"/></g></g><g><g><path d="M93,389h-9c-13.785,0-25-11.215-25-25V148c0-13.785,11.215-25,25-25h9c13.785,0,25,11.215,25,25v216     C118,377.785,106.785,389,93,389z M84,133c-8.271,0-15,6.729-15,15v216c0,8.271,6.729,15,15,15h9c8.271,0,15-6.729,15-15V148     c0-8.271-6.729-15-15-15H84z" fill="#3F456B"/></g></g><g><g><path d="M142,420h-9c-13.785,0-25-11.215-25-25V115c0-13.785,11.215-25,25-25h9c13.785,0,25,11.215,25,25v280     C167,408.785,155.785,420,142,420z M133,100c-8.271,0-15,6.729-15,15v280c0,8.271,6.729,15,15,15h9c8.271,0,15-6.729,15-15V115     c0-8.271-6.729-15-15-15H133z" fill="#3F456B"/></g></g><g><g><path d="M478,356h-9c-13.785,0-25-11.215-25-25V179c0-13.785,11.215-25,25-25h9c13.785,0,25,11.215,25,25v152     C503,344.785,491.785,356,478,356z M469,164c-8.271,0-15,6.729-15,15v152c0,8.271,6.729,15,15,15h9c8.271,0,15-6.729,15-15V179     c0-8.271-6.729-15-15-15H469z" fill="#3F456B"/></g></g><g><g><path d="M429,387h-9c-13.785,0-25-11.215-25-25V146c0-13.785,11.215-25,25-25h9c13.785,0,25,11.215,25,25v216     C454,375.785,442.785,387,429,387z M420,131c-8.271,0-15,6.729-15,15v216c0,8.271,6.729,15,15,15h9c8.271,0,15-6.729,15-15V146     c0-8.271-6.729-15-15-15H420z" fill="#3F456B"/></g></g><g><g><path d="M380,420h-9c-13.785,0-25-11.215-25-25V115c0-13.785,11.215-25,25-25h9c13.785,0,25,11.215,25,25v280     C405,408.785,393.785,420,380,420z M371,100c-8.271,0-15,6.729-15,15v280c0,8.271,6.729,15,15,15h9c8.271,0,15-6.729,15-15V115     c0-8.271-6.729-15-15-15H371z" fill="#3F456B"/></g></g><g><g><path d="M351,295H162c-2.761,0-5-2.238-5-5v-68c0-2.762,2.239-5,5-5h189c2.761,0,5,2.238,5,5v68     C356,292.762,353.761,295,351,295z M167,285h179v-58H167V285z" fill="#3F456B"/></g></g><g><g><g><path d="M466.406,381.635c-3.575,0-6.473-2.896-6.473-6.473c0-3.574,2.897-6.472,6.473-6.472      c3.574,0,6.473,2.898,6.473,6.472C472.879,378.738,469.98,381.635,466.406,381.635z" fill="#3F456B"/></g></g></g><g><g><g><path d="M45.229,130.507c3.572-0.161,6.597,2.602,6.758,6.175c0.161,3.571-2.603,6.596-6.175,6.757      c-3.571,0.161-6.597-2.603-6.758-6.174C38.893,133.692,41.658,130.668,45.229,130.507z" fill="#3F456B"/></g></g></g><g><g><path d="M213.996,129.001c-2.259,0-4.308-1.541-4.858-3.834c-5.81-24.208-17.56-49.816-17.678-50.072     c-1.157-2.507-0.062-5.478,2.445-6.635c2.506-1.155,5.478-0.062,6.635,2.444c0.498,1.08,12.276,26.738,18.322,51.929     c0.645,2.686-1.01,5.385-3.695,6.029C214.775,128.956,214.382,129.001,213.996,129.001z" fill="#3F456B"/></g></g><g><g><path d="M311.994,438.001c-2.413,0-4.538-1.752-4.931-4.211c-3.834-23.964-16.409-49.301-16.535-49.554     c-1.235-2.47-0.234-5.474,2.236-6.708c2.468-1.237,5.473-0.235,6.708,2.235c0.545,1.09,13.391,26.98,17.465,52.446     c0.437,2.727-1.42,5.291-4.147,5.728C312.522,437.98,312.256,438.001,311.994,438.001z" fill="#3F456B"/></g></g><g><g><path d="M432.71,409.667c-2.551,0-5.265-0.252-8.148-0.81c-2.711-0.524-4.484-3.147-3.959-5.859     c0.525-2.71,3.148-4.478,5.859-3.959c8.171,1.582,15.068,0.249,20.5-3.959c4.169-3.229,5.98-7.061,5.998-7.099     c1.158-2.492,4.115-3.602,6.615-2.461c2.5,1.139,3.621,4.062,2.501,6.57C459.112,398.731,449.499,409.667,432.71,409.667z" fill="#3F456B"/></g></g><g><g><path d="M53.731,126.677c-0.618,0-1.245-0.115-1.852-0.359c-2.548-1.025-3.8-3.896-2.795-6.451     c3.066-7.796,14.69-21.684,36.721-18.438c2.732,0.401,4.621,2.942,4.219,5.674c-0.402,2.732-2.945,4.63-5.674,4.219     c-8.236-1.21-15.064,0.43-20.301,4.879c-4.019,3.413-5.656,7.322-5.672,7.361C57.581,125.496,55.706,126.677,53.731,126.677z" fill="#3F456B"/></g></g><g><g><g><path d="M207.994,482.001c-2.478,0-4.629-1.842-4.953-4.364c-0.065-0.502-5.923-43.072-33.507-45.658      c-2.509-0.235-4.451-2.302-4.531-4.82c-0.08-2.52,1.729-4.704,4.218-5.097C170.58,421.835,203,415.958,203,374      c0-2.762,2.239-5,5-5s5,2.238,5,5c0,26.302-11.384,40.661-20.934,48.074c-2.354,1.828-4.711,3.33-6.955,4.562      c8.326,4.759,15.26,12.999,20.442,24.424c5.745,12.665,7.341,24.797,7.407,25.308c0.35,2.739-1.587,5.243-4.327,5.593      C208.418,481.987,208.205,482.001,207.994,482.001z" fill="#3F456B"/></g></g><g><g><path d="M208.006,482.001c-0.211,0-0.424-0.014-0.64-0.041c-2.739-0.35-4.676-2.854-4.327-5.593      c0.065-0.511,1.662-12.643,7.407-25.308c5.182-11.425,12.116-19.665,20.442-24.424c-2.244-1.231-4.601-2.733-6.955-4.562      C214.384,414.661,203,400.302,203,374c0-2.762,2.239-5,5-5s5,2.238,5,5c0,17.867,5.742,31.384,17.066,40.176      c8.253,6.407,16.632,7.872,16.714,7.886c2.489,0.393,4.297,2.577,4.218,5.097c-0.08,2.519-2.021,4.585-4.531,4.82      c-27.694,2.596-33.452,45.225-33.507,45.654C212.638,480.157,210.485,482.001,208.006,482.001z" fill="#3F456B"/></g></g></g><g><g><path d="M325.013,500.187c-1.084,0-2.193-0.238-3.276-0.737c-1.848-0.853-3.112-2.234-3.792-2.977     c-2.927-3.197-5.512-6.556-8.012-9.804l-1.39-1.803c-0.349-0.45-0.707-0.946-1.063-1.443c-0.283-0.395-0.565-0.789-0.842-1.146     c-0.046-0.061-0.095-0.127-0.147-0.198c-1.084,0.085-2.178,0.19-3.307,0.299c-2.292,0.22-4.662,0.448-7.131,0.517     c-0.327,0.009-0.769,0.043-1.287,0.08c-4.795,0.343-13.72,0.976-15.83-5.772c-0.767-2.452,0.132-4.612,0.47-5.425     c1.88-4.516,4.458-8.473,6.953-12.3l0.922-1.418c1.123-1.737,2.035-3.119,2.767-4.208c-3.25-6.001-7.557-15.431-7.427-20.99     c0.089-3.84,1.855-5.897,3.32-6.948c2.571-1.843,5.461-1.505,6.771-1.212c4.911,0.64,14.767,4.262,20.162,6.347     c5.743-6.045,12.045-11.051,14.034-12.485c1.783-1.286,3.621-1.967,5.463-2.022c2.198-0.072,4.544,0.796,6.252,2.312     c0.556,0.495,1.039,1.063,1.447,1.697c0.864,1.336,1.381,2.959,1.527,4.812c0.194,2.446,0.457,10.491-0.434,18.779     c5.081,2.763,14.221,7.931,17.887,11.262c1.071,0.809,3.2,2.793,3.459,5.946c0.147,1.797-0.278,4.475-3.147,7.027     c-4.106,3.654-13.896,6.451-20.571,7.874c-1.459,6.666-3.661,12.977-6.69,19.196     C330.627,498.471,327.915,500.187,325.013,500.187z M308.766,471.929c0.738,0,1.468,0.163,2.137,0.479l0.081,0.038     c1.725,0.796,2.691,2.324,3.396,3.44c0.08,0.126,0.152,0.245,0.218,0.339c0.294,0.378,0.65,0.871,1.004,1.364     c0.285,0.396,0.568,0.794,0.847,1.153l1.408,1.826c2.15,2.793,4.197,5.452,6.422,7.988c2.5-5.623,4.252-11.358,5.341-17.458     c0.371-2.075,2.004-3.695,4.083-4.05c6.583-1.122,14.03-3.368,17.498-5.173c-3.762-2.836-12.502-7.764-17.761-10.531     c-1.884-0.991-2.933-3.065-2.616-5.17c1.114-7.388,1.03-15.301,0.882-18.708c-2.693,2.093-8.777,7.147-13.689,12.779     c-1.399,1.605-3.661,2.149-5.634,1.353c-5.515-2.218-14.929-5.69-19.524-6.723c0.868,3.81,3.976,10.94,7.382,16.686     c1.009,1.702,0.919,3.839-0.229,5.45c-0.722,1.014-2.059,2.96-4.331,6.475l-0.943,1.449c-1.817,2.789-3.557,5.458-4.958,8.22     c1.582,0.035,3.452-0.099,4.278-0.158c0.691-0.049,1.28-0.089,1.716-0.101c2.13-0.06,4.23-0.261,6.454-0.475     c2.038-0.196,4.146-0.398,6.331-0.49C308.627,471.93,308.697,471.929,308.766,471.929z M353.192,463.496     c0.005,0.003,0.011,0.007,0.015,0.01C353.203,463.502,353.198,463.499,353.192,463.496z M290.317,434.4     c0.005,0.001,0.011,0.003,0.017,0.005C290.328,434.403,290.322,434.402,290.317,434.4z M292.633,432.889L292.633,432.889     L292.633,432.889z M331.575,425.793L331.575,425.793L331.575,425.793z" fill="#3F456B"/></g></g><g><g><path d="M178.488,94.062c-1.21,0-2.443-0.3-3.677-1.008c-2.229-1.277-3.038-3.471-3.342-4.297     c-1.69-4.587-2.488-9.239-3.26-13.738l-0.293-1.696c-0.356-2.03-0.625-3.656-0.827-4.947     c-6.464-2.192-16.033-6.182-19.717-10.347c-2.543-2.876-2.647-5.585-2.287-7.352c0.633-3.1,2.983-4.817,4.142-5.492     c4.037-2.87,13.728-6.913,19.102-9.051c0.103-8.331,1.322-16.29,1.806-18.696c0.434-2.156,1.318-3.904,2.63-5.196     c1.572-1.551,3.875-2.507,6.158-2.558c0.733-0.011,1.472,0.072,2.202,0.259c1.555,0.396,3.037,1.234,4.405,2.494     c1.807,1.664,7.47,7.388,12.447,14.068c5.604-1.428,15.821-3.85,20.775-3.899c1.333-0.133,4.245-0.126,6.579,2.01     c1.33,1.218,2.838,3.471,2.469,7.293c-0.528,5.472-5.807,14.178-9.735,19.759c3.461,5.882,6.137,12.007,8.143,18.627     c1.341,4.424-0.711,8.622-4.88,9.981c-1.933,0.633-3.799,0.479-4.802,0.396c-4.319-0.355-8.495-1.062-12.533-1.743l-2.254-0.379     c-0.563-0.094-1.166-0.215-1.768-0.337c-0.474-0.097-0.948-0.194-1.392-0.269c-0.074-0.012-0.154-0.027-0.239-0.045     c-0.739,0.801-1.471,1.623-2.227,2.472c-1.53,1.719-3.112,3.495-4.875,5.223c-0.234,0.229-0.536,0.556-0.892,0.936     C187.719,89.332,183.29,94.062,178.488,94.062z M156.25,52.55c3.228,2.204,10.354,5.321,16.757,7.221     c1.896,0.562,3.283,2.19,3.537,4.152c0.159,1.227,0.5,3.555,1.222,7.676l0.299,1.729c0.562,3.277,1.101,6.414,1.949,9.39     c1.187-1.055,2.463-2.418,3.029-3.022c0.475-0.507,0.881-0.938,1.193-1.243c1.52-1.489,2.921-3.063,4.405-4.73     c1.363-1.53,2.773-3.113,4.315-4.666c0.562-0.566,1.25-0.989,2.008-1.234l0.084-0.027c1.839-0.602,3.587-0.137,4.863,0.202     c0.145,0.039,0.278,0.076,0.39,0.101c0.474,0.078,1.066,0.197,1.659,0.317c0.48,0.098,0.96,0.196,1.411,0.271l2.285,0.384     c3.473,0.586,6.778,1.145,10.131,1.492c-1.989-5.823-4.602-11.221-7.95-16.436c-1.14-1.773-1.043-4.072,0.24-5.745     c4.065-5.298,8-12.008,9.317-15.688c-4.686,0.478-14.446,2.804-20.186,4.349c-2.053,0.555-4.234-0.255-5.433-2.014     c-4.201-6.17-9.643-11.919-12.07-14.319c-0.553,3.366-1.579,11.216-1.353,18.679c0.064,2.128-1.225,4.062-3.213,4.822     C169.587,46.332,160.323,50.184,156.25,52.55z M154.079,53.92c-0.005,0.003-0.011,0.006-0.016,0.008     C154.068,53.926,154.073,53.923,154.079,53.92z M154.734,51.244L154.734,51.244L154.734,51.244z M219.974,32.522     c-0.006,0.001-0.012,0.002-0.019,0.004C219.962,32.524,219.968,32.523,219.974,32.522z" fill="#3F456B"/></g></g></g><g id="Outline"><g><g><g><g><path d="M320.968,237.608c0,3.53-2.859,6.392-6.393,6.392c-3.528,0-6.39-2.862-6.39-6.392       s2.862-6.393,6.39-6.393C318.108,231.215,320.968,234.078,320.968,237.608z" fill="#3F456B"/></g></g><g><g><path d="M233.889,237.608c0,3.53-2.86,6.392-6.392,6.392c-3.53,0-6.392-2.862-6.392-6.392       s2.862-6.393,6.392-6.393C231.03,231.215,233.889,234.078,233.889,237.608z" fill="#3F456B"/></g></g><g><g><path d="M291.942,237.608c0,3.53-2.86,6.392-6.392,6.392c-3.53,0-6.392-2.862-6.392-6.392       s2.862-6.393,6.392-6.393C289.082,231.215,291.942,234.078,291.942,237.608z" fill="#3F456B"/></g></g><g><g><path d="M262.915,237.608c0,3.53-2.86,6.392-6.392,6.392c-3.529,0-6.391-2.862-6.391-6.392       s2.862-6.393,6.391-6.393C260.055,231.215,262.915,234.078,262.915,237.608z" fill="#3F456B"/></g></g><g><g><path d="M204.863,237.608c0,3.53-2.859,6.392-6.392,6.392c-3.529,0-6.391-2.862-6.391-6.392       s2.862-6.393,6.391-6.393C202.003,231.215,204.863,234.078,204.863,237.608z" fill="#3F456B"/></g></g><g><g><path d="M306.968,255.608c0,3.53-2.859,6.392-6.393,6.392c-3.528,0-6.39-2.862-6.39-6.392       c0-3.53,2.862-6.393,6.39-6.393C304.108,249.215,306.968,252.078,306.968,255.608z" fill="#3F456B"/></g></g><g><g><path d="M219.889,255.608c0,3.53-2.86,6.392-6.392,6.392c-3.53,0-6.392-2.862-6.392-6.392       c0-3.53,2.862-6.393,6.392-6.393C217.03,249.215,219.889,252.078,219.889,255.608z" fill="#3F456B"/></g></g><g><g><path d="M277.942,255.608c0,3.53-2.86,6.392-6.392,6.392c-3.53,0-6.392-2.862-6.392-6.392       c0-3.53,2.862-6.393,6.392-6.393C275.082,249.215,277.942,252.078,277.942,255.608z" fill="#3F456B"/></g></g><g><g><path d="M248.915,255.608c0,3.53-2.86,6.392-6.392,6.392c-3.529,0-6.391-2.862-6.391-6.392       c0-3.53,2.862-6.393,6.391-6.393C246.055,249.215,248.915,252.078,248.915,255.608z" fill="#3F456B"/></g></g><g><g><path d="M190.863,255.608c0,3.53-2.859,6.392-6.392,6.392c-3.529,0-6.391-2.862-6.391-6.392       c0-3.53,2.862-6.393,6.391-6.393C188.003,249.215,190.863,252.078,190.863,255.608z" fill="#3F456B"/></g></g><g><g><path d="M335.994,255.608c0,3.53-2.86,6.392-6.392,6.392c-3.53,0-6.392-2.862-6.392-6.392       c0-3.53,2.862-6.393,6.392-6.393C333.135,249.215,335.994,252.078,335.994,255.608z" fill="#3F456B"/></g></g><g><g><path d="M320.968,273.608c0,3.53-2.859,6.392-6.393,6.392c-3.528,0-6.39-2.862-6.39-6.392       s2.862-6.393,6.39-6.393C318.108,267.215,320.968,270.078,320.968,273.608z" fill="#3F456B"/></g></g><g><g><path d="M233.889,273.608c0,3.53-2.86,6.392-6.392,6.392c-3.53,0-6.392-2.862-6.392-6.392       s2.862-6.393,6.392-6.393C231.03,267.215,233.889,270.078,233.889,273.608z" fill="#3F456B"/></g></g><g><g><path d="M291.942,273.608c0,3.53-2.86,6.392-6.392,6.392c-3.53,0-6.392-2.862-6.392-6.392       s2.862-6.393,6.392-6.393C289.082,267.215,291.942,270.078,291.942,273.608z" fill="#3F456B"/></g></g><g><g><path d="M262.915,273.608c0,3.53-2.86,6.392-6.392,6.392c-3.529,0-6.391-2.862-6.391-6.392       s2.862-6.393,6.391-6.393C260.055,267.215,262.915,270.078,262.915,273.608z" fill="#3F456B"/></g></g><g><g><path d="M204.863,273.608c0,3.53-2.859,6.392-6.392,6.392c-3.529,0-6.391-2.862-6.391-6.392       s2.862-6.393,6.391-6.393C202.003,267.215,204.863,270.078,204.863,273.608z" fill="#3F456B"/></g></g><g><g><g><g><g><path d="M255.288,155.732c-2.745,0-4.979-2.215-4.999-4.965l-0.096-13.539          c-0.02-2.761,2.203-5.016,4.965-5.035c0.012,0,0.024,0,0.036,0c2.745,0,4.979,2.215,4.999,4.965l0.096,13.539          c0.02,2.761-2.203,5.016-4.965,5.035C255.312,155.732,255.3,155.732,255.288,155.732z" fill="#3F456B"/></g></g></g><g><g><g><path d="M296.824,196.17c-2.742,0-4.976-2.211-4.999-4.958c-0.023-2.762,2.197-5.019,4.958-5.042l13-0.109          c0.014,0,0.029,0,0.043,0c2.742,0,4.976,2.211,4.999,4.958c0.023,2.762-2.197,5.019-4.958,5.042l-13,0.109          C296.853,196.17,296.839,196.17,296.824,196.17z" fill="#3F456B"/></g></g></g><g><g><g><path d="M291.046,175.725c-1.716,0-3.386-0.884-4.317-2.471c-1.397-2.382-0.6-5.445,1.782-6.843          l11.529-6.765c2.382-1.398,5.445-0.6,6.843,1.782s0.6,5.445-1.782,6.843l-11.529,6.765          C292.777,175.503,291.906,175.725,291.046,175.725z" fill="#3F456B"/></g></g></g><g><g><g><path d="M275.998,161.034c-0.837,0-1.685-0.21-2.465-0.653c-2.401-1.363-3.242-4.416-1.878-6.816          l6.652-11.713c1.364-2.402,4.415-3.243,6.817-1.879c2.401,1.363,3.242,4.416,1.878,6.816l-6.652,11.713          C279.429,160.124,277.738,161.034,275.998,161.034z" fill="#3F456B"/></g></g></g></g><g><g><g><g><path d="M234.213,159.981c-1.716,0-3.386-0.884-4.317-2.471l-6.307-10.748          c-1.397-2.382-0.6-5.445,1.782-6.843c2.383-1.398,5.445-0.6,6.843,1.782l6.307,10.748c1.397,2.382,0.6,5.445-1.782,6.843          C235.944,159.76,235.073,159.981,234.213,159.981z" fill="#3F456B"/></g></g></g><g><g><g><path d="M219.513,175.541c-0.837,0-1.686-0.211-2.465-0.653l-11.253-6.393          c-2.401-1.364-3.242-4.416-1.878-6.817s4.417-3.24,6.817-1.878l11.253,6.393c2.401,1.364,3.242,4.416,1.878,6.817          C222.944,174.631,221.253,175.541,219.513,175.541z" fill="#3F456B"/></g></g></g><g><g><g><path d="M201.389,196.081c-2.742,0-4.976-2.211-4.999-4.958c-0.023-2.761,2.196-5.019,4.958-5.042l13-0.11          c0.014,0,0.029,0,0.043,0c2.742,0,4.976,2.211,4.999,4.958c0.023,2.761-2.196,5.019-4.958,5.042l-13,0.11          C201.418,196.081,201.403,196.081,201.389,196.081z" fill="#3F456B"/></g></g></g></g></g><g><g><g><g><g><path d="M257.021,378.17c-2.745,0-4.979-2.215-4.999-4.965l-0.096-13.54          c-0.02-2.761,2.203-5.016,4.964-5.035c2.742,0.005,5.016,2.203,5.036,4.965l0.096,13.54c0.02,2.761-2.203,5.016-4.964,5.035          C257.046,378.17,257.034,378.17,257.021,378.17z" fill="#3F456B"/></g></g></g><g><g><g><path d="M202.389,324.303c-2.742,0-4.976-2.211-4.999-4.958c-0.023-2.761,2.196-5.019,4.958-5.042l13-0.11          c0.014,0,0.029,0,0.043,0c2.742,0,4.976,2.211,4.999,4.958c0.023,2.761-2.196,5.019-4.958,5.042l-13,0.11          C202.418,324.303,202.404,324.303,202.389,324.303z" fill="#3F456B"/></g></g></g><g><g><g><path d="M209.649,351.404c-1.716,0-3.387-0.884-4.317-2.471c-1.397-2.382-0.6-5.445,1.782-6.843          l11.529-6.764c2.383-1.397,5.446-0.6,6.843,1.782c1.397,2.382,0.6,5.445-1.782,6.843l-11.529,6.764          C211.38,351.183,210.509,351.404,209.649,351.404z" fill="#3F456B"/></g></g></g><g><g><g><path d="M229.557,371.043c-0.837,0-1.685-0.21-2.465-0.653c-2.401-1.363-3.242-4.416-1.878-6.817          l6.652-11.713c1.364-2.4,4.416-3.244,6.817-1.878c2.401,1.363,3.242,4.416,1.878,6.817l-6.652,11.713          C232.988,370.133,231.297,371.043,229.557,371.043z" fill="#3F456B"/></g></g></g></g><g><g><g><g><path d="M284.318,371.131c-1.716,0-3.386-0.884-4.317-2.471l-6.307-10.748          c-1.397-2.382-0.6-5.445,1.782-6.843c2.383-1.397,5.445-0.599,6.843,1.782l6.307,10.748c1.397,2.382,0.6,5.445-1.782,6.843          C286.049,370.909,285.178,371.131,284.318,371.131z" fill="#3F456B"/></g></g></g><g><g><g><path d="M303.946,351.216c-0.837,0-1.686-0.211-2.465-0.653l-11.253-6.393          c-2.401-1.364-3.242-4.416-1.878-6.817s4.417-3.24,6.817-1.878l11.253,6.393c2.401,1.364,3.242,4.416,1.878,6.817          C307.377,350.306,305.687,351.216,303.946,351.216z" fill="#3F456B"/></g></g></g><g><g><g><path d="M297.824,324.393c-2.742,0-4.976-2.211-4.999-4.958c-0.023-2.761,2.196-5.019,4.958-5.042l13-0.11          c2.757-0.024,5.019,2.197,5.042,4.958s-2.196,5.019-4.958,5.042l-13,0.11C297.854,324.393,297.839,324.393,297.824,324.393z          " fill="#3F456B"/></g></g></g></g></g><g><g><g><g><path d="M318.466,93.837c-1.28,0-2.559-0.488-3.536-1.465c-1.953-1.952-1.953-5.118,0-7.07l8.017-8.017         c1.954-1.953,5.119-1.952,7.071,0c1.953,1.952,1.953,5.118,0,7.07l-8.017,8.017         C321.025,93.349,319.745,93.837,318.466,93.837z" fill="#3F456B"/></g></g><g><g><path d="M291.103,121.18c-1.28,0-2.559-0.488-3.536-1.465c-1.953-1.952-1.953-5.118,0-7.07l8.017-8.017         c1.954-1.953,5.119-1.953,7.071,0c1.953,1.952,1.953,5.118,0,7.07l-8.017,8.017         C293.662,120.691,292.382,121.18,291.103,121.18z" fill="#3F456B"/></g></g></g><g><g><g><path d="M326.473,121.19c-1.28,0-2.559-0.488-3.536-1.465l-8.018-8.018c-1.953-1.952-1.953-5.118,0-7.07         c1.953-1.953,5.118-1.953,7.071,0l8.018,8.018c1.953,1.952,1.953,5.118,0,7.07         C329.032,120.702,327.753,121.19,326.473,121.19z" fill="#3F456B"/></g></g><g><g><path d="M299.13,93.827c-1.28,0-2.559-0.488-3.536-1.465l-8.017-8.018c-1.953-1.952-1.953-5.118,0-7.07         c1.954-1.953,5.119-1.952,7.071,0l8.017,8.018c1.953,1.952,1.953,5.118,0,7.07C301.689,93.339,300.41,93.827,299.13,93.827z" fill="#3F456B"/></g></g></g></g></g><g><g><g><g><path d="M74.466,420.837c-1.28,0-2.559-0.488-3.536-1.465c-1.953-1.952-1.953-5.118,0-7.07l8.017-8.017        c1.954-1.952,5.119-1.952,7.071,0s1.953,5.118,0,7.07l-8.017,8.017C77.025,420.349,75.745,420.837,74.466,420.837z" fill="#3F456B"/></g></g><g><g><path d="M47.103,448.18c-1.28,0-2.559-0.488-3.536-1.465c-1.953-1.952-1.953-5.118,0-7.07l8.017-8.017        c1.954-1.953,5.119-1.952,7.071,0c1.953,1.952,1.953,5.118,0,7.07l-8.017,8.017C49.662,447.691,48.382,448.18,47.103,448.18z" fill="#3F456B"/></g></g></g><g><g><g><path d="M82.473,448.19c-1.28,0-2.559-0.488-3.536-1.465l-8.018-8.018c-1.953-1.952-1.953-5.118,0-7.07        c1.953-1.953,5.118-1.953,7.071,0l8.018,8.018c1.953,1.952,1.953,5.118,0,7.07C85.032,447.702,83.753,448.19,82.473,448.19z" fill="#3F456B"/></g></g><g><g><path d="M55.13,420.827c-1.28,0-2.559-0.488-3.536-1.465l-8.017-8.018c-1.953-1.952-1.953-5.118,0-7.07        c1.954-1.952,5.119-1.952,7.071,0l8.017,8.018c1.953,1.952,1.953,5.118,0,7.07C57.689,420.339,56.41,420.827,55.13,420.827z" fill="#3F456B"/></g></g></g></g></g></g></svg>