<?xml version="1.0" ?><svg viewBox="0 0 512 512" xmlns="http://www.w3.org/2000/svg"><defs><style>.cls-1{fill:#3f456b;}</style></defs><title/><g id="Lines"><path class="cls-1" d="M79.94,476.26a36.5,36.5,0,0,1-22.55-65.2,5,5,0,1,1,6.18,7.86,26.51,26.51,0,1,0,35.05,2,5,5,0,0,1,7-7.1,36.5,36.5,0,0,1-25.73,62.4Z"/><path class="cls-1" d="M79.94,454.64a14.89,14.89,0,1,1,14.89-14.88A14.9,14.9,0,0,1,79.94,454.64Zm0-19.77a4.89,4.89,0,1,0,4.89,4.89A4.89,4.89,0,0,0,79.94,434.87Z"/><path class="cls-1" d="M143,476.26a36.51,36.51,0,0,1-25.21-62.91,5,5,0,0,1,6.91,7.24,26.5,26.5,0,1,0,44.8,19.17c0-7.26-2.79-13.74-8.29-19.26a5,5,0,1,1,7.08-7.06c7.44,7.46,11.21,16.32,11.21,26.32A36.55,36.55,0,0,1,143,476.26Z"/><path class="cls-1" d="M143,454.64a14.89,14.89,0,1,1,14.88-14.88A14.9,14.9,0,0,1,143,454.64Zm0-19.77a4.89,4.89,0,1,0,4.88,4.89A4.89,4.89,0,0,0,143,434.87Z"/><path class="cls-1" d="M370.05,476.26a36.5,36.5,0,0,1-25.52-62.59,5,5,0,1,1,7,7.15,26.5,26.5,0,1,0,36.83-.23,5,5,0,0,1,6.91-7.23,36.5,36.5,0,0,1-25.21,62.9Z"/><path class="cls-1" d="M370.05,454.64a14.89,14.89,0,1,1,14.89-14.88A14.89,14.89,0,0,1,370.05,454.64Zm0-19.77a4.89,4.89,0,1,0,4.89,4.89A4.89,4.89,0,0,0,370.05,434.87Z"/><path class="cls-1" d="M433.05,476.26A36.49,36.49,0,0,1,407.25,414a5,5,0,0,1,7.07,7.07,26.5,26.5,0,1,0,45.24,18.74c0-7.25-4-15-7.74-19.07a5,5,0,1,1,7.41-6.72c4.76,5.25,10.33,15.15,10.33,25.79A36.55,36.55,0,0,1,433.05,476.26Z"/><path class="cls-1" d="M433.05,454.64a14.89,14.89,0,1,1,14.89-14.88A14.9,14.9,0,0,1,433.05,454.64Zm0-19.77a4.89,4.89,0,1,0,4.89,4.89A4.89,4.89,0,0,0,433.05,434.87Z"/><path class="cls-1" d="M338.55,448.76H174.45a5,5,0,0,1,0-10h164.1a5,5,0,0,1,0,10Z"/><path class="cls-1" d="M480.5,420H32.5c-13.93,0-21-7-21-20.72V217a55.06,55.06,0,0,1,55-55h380a55.06,55.06,0,0,1,55,55V397.11c0,4.85,0,12.17-5.27,17.48C492.65,418.17,487.36,420,480.5,420ZM66.5,172a45.05,45.05,0,0,0-45,45V399.27c0,9.93,4.77,10.72,11,10.72h448c4.11,0,7-.83,8.65-2.47,2.37-2.37,2.36-6.82,2.35-10.39V217a45.05,45.05,0,0,0-45-45Z"/><path class="cls-1" d="M496.5,221H16.5a5,5,0,0,1,0-10h480a5,5,0,0,1,0,10Z"/><path class="cls-1" d="M296.52,396a5,5,0,0,1-5-5V250.23a5,5,0,0,0-5-5h-61a5,5,0,0,0-5,5V391a5,5,0,0,1-10,0V250.23a15,15,0,0,1,15-15h61a15,15,0,0,1,15,15V391A5,5,0,0,1,296.52,396Z"/><path class="cls-1" d="M493.53,396H17.12a5,5,0,0,1,0-10H493.53a5,5,0,0,1,0,10Z"/><path class="cls-1" d="M224,456.54a5,5,0,0,1-5-5V415a5,5,0,0,1,10,0v36.55A5,5,0,0,1,224,456.54Z"/><path class="cls-1" d="M288,456.54a5,5,0,0,1-5-5V415a5,5,0,0,1,10,0v36.55A5,5,0,0,1,288,456.54Z"/><path class="cls-1" d="M352.5,172a5,5,0,0,1-5-5v-16.6a6.87,6.87,0,0,0-7-6.71h-168a6.87,6.87,0,0,0-7,6.71V167a5,5,0,0,1-10,0v-16.6a16.88,16.88,0,0,1,17-16.71h168a16.88,16.88,0,0,1,17,16.71V167A5,5,0,0,1,352.5,172Z"/><path class="cls-1" d="M180,317.73H49a15,15,0,0,1-15-15v-53a15,15,0,0,1,15-15H180a15,15,0,0,1,15,15v53A15,15,0,0,1,180,317.73Zm-131-73a5,5,0,0,0-5,5v53a5,5,0,0,0,5,5H180a5,5,0,0,0,5-5v-53a5,5,0,0,0-5-5Z"/><path class="cls-1" d="M464.21,317.73h-131a15,15,0,0,1-15-15v-53a15,15,0,0,1,15-15h131a15,15,0,0,1,15,15v53A15,15,0,0,1,464.21,317.73Zm-131-73a5,5,0,0,0-5,5v53a5,5,0,0,0,5,5h131a5,5,0,0,0,5-5v-53a5,5,0,0,0-5-5Z"/><path class="cls-1" d="M496.5,371.11H468.88c-6.55,0-11.88-5.73-11.88-12.78v-14.1c0-7.05,5.33-12.78,11.88-12.78H496.5a5,5,0,0,1,0,10H468.88c-.89,0-1.88,1.19-1.88,2.78v14.1c0,1.59,1,2.78,1.88,2.78H496.5a5,5,0,0,1,0,10Z"/><path class="cls-1" d="M44.74,371.11H17.12a5,5,0,0,1,0-10H44.74c.89,0,1.88-1.19,1.88-2.78v-14.1c0-1.59-1-2.78-1.88-2.78H17.12a5,5,0,0,1,0-10H44.74c6.55,0,11.88,5.73,11.88,12.78v14.1C56.62,365.38,51.29,371.11,44.74,371.11Z"/><path class="cls-1" d="M111.45,315.5a5,5,0,0,1-5-5V240.23a5,5,0,0,1,10,0V310.5A5,5,0,0,1,111.45,315.5Z"/><path class="cls-1" d="M398.71,315.5a5,5,0,0,1-5-5V240.23a5,5,0,1,1,10,0V310.5A5,5,0,0,1,398.71,315.5Z"/><path class="cls-1" d="M256.5,143.73a4.91,4.91,0,0,1-2.27-.55L157.35,93.69a5,5,0,0,1,0-8.91l96.88-49.49a5,5,0,0,1,4.55,0l96.87,49.49a5,5,0,0,1,0,8.91l-96.87,49.49A5,5,0,0,1,256.5,143.73ZM170.62,89.24l85.88,43.87,85.88-43.87L256.5,45.36Z"/></g><g id="Outline"><path class="cls-1" d="M214.67,356.28H51.61a5,5,0,0,1,0-10H214.67a5,5,0,0,1,0,10Z"/><path class="cls-1" d="M460.79,356.28H297.73a5,5,0,0,1,0-10H460.79a5,5,0,0,1,0,10Z"/><path class="cls-1" d="M134.15,221a5,5,0,0,1-5-5V168.27a5,5,0,0,1,10,0V216A5,5,0,0,1,134.15,221Z"/><path class="cls-1" d="M376,221a5,5,0,0,1-5-5V168.27a5,5,0,1,1,10,0V216A5,5,0,0,1,376,221Z"/><path class="cls-1" d="M257.45,221a5,5,0,0,1-5-5V168.27a5,5,0,0,1,10,0V216A5,5,0,0,1,257.45,221Z"/></g></svg>