<?xml version="1.0" ?><svg viewBox="0 0 512 512" xmlns="http://www.w3.org/2000/svg"><defs><style>.cls-1{fill:#3f456b;}.cls-2{fill:#384169;}</style></defs><title/><g id="Lines"><path class="cls-1" d="M459,199.76h-.2a12,12,0,0,1-4.66-1.22c-4-1.78-7.68-3.84-11.26-5.83l-2-1.09c-.5-.27-1-.59-1.55-.9s-.83-.5-1.23-.72l-.21-.12L435,191.45c-2,1.12-4.1,2.27-6.34,3.31l-1.15.59c-4.26,2.21-12.2,6.34-16.82,1a7.85,7.85,0,0,1-1.72-5.16,76,76,0,0,1,1.5-14l.29-1.7c.31-1.87.6-3.52.86-4.94-5.37-4.22-13.06-11.16-15.15-16.32a8.29,8.29,0,0,1,.29-7.69,8.48,8.48,0,0,1,5.73-3.8c4.76-1.37,15.24-2,21-2.18a116.09,116.09,0,0,1,7.93-17,9.81,9.81,0,0,1,4.2-4,9.27,9.27,0,0,1,6.66-.36,8,8,0,0,1,2,1,10.33,10.33,0,0,1,3.33,3.82,118.08,118.08,0,0,1,7.06,17.41c5.76.52,16.2,1.63,20.88,3.23a8.5,8.5,0,0,1,5.54,4.08,8.29,8.29,0,0,1-.1,7.7c-2.31,5-10.19,11.44-15.75,15.4A84.72,84.72,0,0,1,466.69,192C466.49,196.51,463.26,199.76,459,199.76Zm-21.05-20.52h.2a8.39,8.39,0,0,1,4.54,1.81l.33.22c.43.24.95.55,1.47.86l1.23.72,2,1.11c3.08,1.71,6,3.34,9.08,4.79a75.11,75.11,0,0,0-2-18.14,5,5,0,0,1,2.14-5.34c5.59-3.65,11.54-8.67,14-11.7-4.58-1.11-14.56-2.16-20.48-2.61a5,5,0,0,1-4.46-3.71,106.25,106.25,0,0,0-6.62-17.52,106.85,106.85,0,0,0-7.48,17.17,5,5,0,0,1-4.64,3.48c-5.94.15-16,.7-20.59,1.58,2.31,3.15,8,8.46,13.4,12.38a5,5,0,0,1,2,5.1c-.26,1.2-.71,3.51-1.4,7.64l-.3,1.73a90.12,90.12,0,0,0-1.28,9.5c1.47-.6,3.13-1.46,3.86-1.84s1.14-.59,1.54-.77c1.93-.9,3.78-1.92,5.73-3s3.65-2,5.62-3A5.1,5.1,0,0,1,437.92,179.24Zm-33.8-26.71h0Zm34.43-24.28Z"/><path class="cls-2" d="M139.42,191.42A90.42,90.42,0,1,1,229.85,101,90.52,90.52,0,0,1,139.42,191.42Zm0-170.84A80.42,80.42,0,1,0,219.85,101,80.51,80.51,0,0,0,139.42,20.58Z"/><path class="cls-2" d="M58,182.86a5,5,0,0,1-3.64-1.57A116.54,116.54,0,0,1,22.42,101,119.13,119.13,0,0,1,23,89a5,5,0,1,1,9.95,1,107.92,107.92,0,0,0-.56,11,106.55,106.55,0,0,0,29.17,73.42A5,5,0,0,1,58,182.86Z"/><path class="cls-2" d="M139.42,133.3A32.3,32.3,0,1,1,171.73,101,32.34,32.34,0,0,1,139.42,133.3Zm0-54.6A22.3,22.3,0,1,0,161.73,101,22.33,22.33,0,0,0,139.42,78.7Z"/><path class="cls-2" d="M352,373H69a25,25,0,0,1-25-25V229a25,25,0,0,1,25-25H352a25,25,0,0,1,25,25V348A25,25,0,0,1,352,373ZM69,214a15,15,0,0,0-15,15V348a15,15,0,0,0,15,15H352a15,15,0,0,0,15-15V229a15,15,0,0,0-15-15Z"/><path class="cls-2" d="M188.5,56.5A5,5,0,0,1,185,48l10.61-10.61a5,5,0,1,1,7.07,7.07L192,55A5,5,0,0,1,188.5,56.5Z"/><path class="cls-2" d="M78.9,166.1a5,5,0,0,1-3.54-8.53L86,147A5,5,0,0,1,93,154L82.43,164.64A4.94,4.94,0,0,1,78.9,166.1Z"/><path class="cls-2" d="M199.1,166.1a4.94,4.94,0,0,1-3.53-1.46L185,154A5,5,0,0,1,192,147l10.61,10.61a5,5,0,0,1-3.54,8.53Z"/><path class="cls-2" d="M89.5,56.5A5,5,0,0,1,86,55L75.36,44.43a5,5,0,0,1,7.07-7.07L93,48A5,5,0,0,1,89.5,56.5Z"/><path class="cls-2" d="M139,107a5,5,0,0,1-5-5v-1a5,5,0,0,1,10,0v1A5,5,0,0,1,139,107Z"/><path class="cls-2" d="M316.42,351.3A32.3,32.3,0,1,1,348.73,319,32.34,32.34,0,0,1,316.42,351.3Zm0-54.6A22.3,22.3,0,1,0,338.73,319,22.33,22.33,0,0,0,316.42,296.7Z"/><path class="cls-2" d="M316,325a5,5,0,0,1-5-5v-1a5,5,0,0,1,10,0v1A5,5,0,0,1,316,325Z"/><path class="cls-2" d="M310.42,191.42A90.42,90.42,0,1,1,400.85,101,90.52,90.52,0,0,1,310.42,191.42Zm0-170.84A80.42,80.42,0,1,0,390.85,101,80.51,80.51,0,0,0,310.42,20.58Z"/><path class="cls-2" d="M424.42,106a5,5,0,0,1-5-5,109.18,109.18,0,0,0-36.36-81.28,5,5,0,1,1,6.66-7.45A119.17,119.17,0,0,1,429.42,101,5,5,0,0,1,424.42,106Z"/><path class="cls-2" d="M310.42,133.3A32.3,32.3,0,1,1,342.73,101,32.34,32.34,0,0,1,310.42,133.3Zm0-54.6A22.3,22.3,0,1,0,332.73,101,22.33,22.33,0,0,0,310.42,78.7Z"/><path class="cls-2" d="M359.5,56.5A5,5,0,0,1,356,48l10.61-10.61a5,5,0,1,1,7.07,7.07L363,55A5,5,0,0,1,359.5,56.5Z"/><path class="cls-2" d="M249.9,166.1a5,5,0,0,1-3.54-8.53L257,147A5,5,0,0,1,264,154l-10.61,10.61A4.94,4.94,0,0,1,249.9,166.1Z"/><path class="cls-2" d="M370.1,166.1a4.94,4.94,0,0,1-3.53-1.46L356,154A5,5,0,0,1,363,147l10.61,10.61a5,5,0,0,1-3.54,8.53Z"/><path class="cls-2" d="M260.5,56.5A5,5,0,0,1,257,55L246.36,44.43a5,5,0,1,1,7.07-7.07L264,48a5,5,0,0,1-3.54,8.53Z"/><path class="cls-2" d="M310,107a5,5,0,0,1-5-5v-1a5,5,0,0,1,10,0v1A5,5,0,0,1,310,107Z"/><path class="cls-2" d="M322,245H291a5,5,0,0,1,0-10h31a5,5,0,0,1,0,10Z"/><path class="cls-2" d="M139,214a5,5,0,0,1-5-5V187a5,5,0,0,1,10,0v22A5,5,0,0,1,139,214Z"/><path class="cls-2" d="M304.5,214a5,5,0,0,1-2.92-9.06l43.26-31.14a5,5,0,1,1,5.84,8.11l-43.26,31.15A5,5,0,0,1,304.5,214Z"/><path class="cls-2" d="M244,189H202a5,5,0,0,1,0-10h42a5,5,0,0,1,0,10Z"/><path class="cls-2" d="M49,308H26a15,15,0,0,1-15-15V249a15,15,0,0,1,15-15H49a5,5,0,0,1,0,10H26a5,5,0,0,0-5,5v44a5,5,0,0,0,5,5H49a5,5,0,0,1,0,10Z"/><path class="cls-2" d="M496,372a4.8,4.8,0,0,1-1.58-.26l-96-32A5,5,0,0,1,395,335V240a5,5,0,0,1,3.37-4.73l96-33A5,5,0,0,1,501,207V367a5,5,0,0,1-5,5Zm-91-40.6,86,28.66V214l-86,29.56Z"/><path class="cls-2" d="M400,245H372a5,5,0,0,1,0-10h28a5,5,0,0,1,0,10Z"/><path class="cls-2" d="M400,340H372a5,5,0,0,1,0-10h28a5,5,0,0,1,0,10Z"/><path class="cls-2" d="M310,436H106a15,15,0,0,1-15-15V409a15,15,0,0,1,15-15H310a15,15,0,0,1,15,15v12A15,15,0,0,1,310,436ZM106,404a5,5,0,0,0-5,5v12a5,5,0,0,0,5,5H310a5,5,0,0,0,5-5V409a5,5,0,0,0-5-5Z"/><path class="cls-2" d="M128,404a5,5,0,0,1-5-5V368a5,5,0,0,1,10,0v31A5,5,0,0,1,128,404Z"/><path class="cls-2" d="M289,404a5,5,0,0,1-5-5V368a5,5,0,0,1,10,0v31A5,5,0,0,1,289,404Z"/><path class="cls-2" d="M145,501.5H112a5,5,0,0,1-4.85-6.2l16-64.5a5,5,0,0,1,9.7,2.4l-14.46,58.3h22.7l15.06-60.7a5,5,0,1,1,9.7,2.4l-16,64.5A5,5,0,0,1,145,501.5Z"/><path class="cls-2" d="M305,502H272a5,5,0,0,1-4.85-3.8l-16-64.5a5,5,0,1,1,9.7-2.4L275.91,492h22.7l-14.46-58.3a5,5,0,1,1,9.7-2.4l16,64.5A5,5,0,0,1,305,502Z"/><path class="cls-2" d="M432.55,420h-112a5,5,0,0,1,0-10H432.31s4.84.19,7.88-2.72c1.86-1.78,2.81-4.57,2.81-8.29s-.92-6.6-2.72-8.18c-2.56-2.24-6.58-1.87-6.62-1.86a4.87,4.87,0,0,1-.66,0H289a5,5,0,0,1,0-10H432.73c1.84-.18,8.71-.46,14.14,4.29,4.07,3.56,6.13,8.85,6.13,15.71,0,6.62-2,11.88-6,15.62C441.77,419.53,435,420,432.55,420Z"/><path class="cls-2" d="M392,420a5,5,0,0,1-5-5V384a5,5,0,0,1,10,0v31A5,5,0,0,1,392,420Z"/><path class="cls-2" d="M230,340H90a15,15,0,0,1-15-15V249a15,15,0,0,1,15-15H230a15,15,0,0,1,15,15v76A15,15,0,0,1,230,340ZM90,244a5,5,0,0,0-5,5v76a5,5,0,0,0,5,5H230a5,5,0,0,0,5-5V249a5,5,0,0,0-5-5Z"/></g><g id="Outline"><path class="cls-2" d="M208,281H112a5,5,0,0,1,0-10h96a5,5,0,0,1,0,10Z"/><path class="cls-2" d="M182,306h-1a5,5,0,0,1,0-10h1a5,5,0,0,1,0,10Zm-21,0h-1a5,5,0,0,1,0-10h1a5,5,0,0,1,0,10Zm-21,0h-1a5,5,0,0,1,0-10h1a5,5,0,0,1,0,10Zm-21,0h-1a5,5,0,0,1,0-10h1a5,5,0,0,1,0,10Z"/><path class="cls-2" d="M340,245h-1a5,5,0,0,1,0-10h1a5,5,0,0,1,0,10Z"/></g></svg>