<?xml version="1.0" ?><svg id="Lines" viewBox="0 0 512 512" xmlns="http://www.w3.org/2000/svg"><defs><style>.cls-1{fill:#3f456b;}</style></defs><title/><path class="cls-1" d="M421.07,276.5a5,5,0,0,1-5-5V183.84a5,5,0,1,1,10,0V271.5A5,5,0,0,1,421.07,276.5Z"/><path class="cls-1" d="M197.07,276.5a5,5,0,0,1-5-5V183.84a5,5,0,1,1,10,0V271.5A5,5,0,0,1,197.07,276.5Z"/><path class="cls-1" d="M122.41,276.5a5,5,0,0,1-5-5V183.84a5,5,0,0,1,10,0V271.5A5,5,0,0,1,122.41,276.5Z"/><path class="cls-1" d="M336.41,328.51H281.74a15,15,0,0,1-15-15V183.84a5,5,0,0,1,10,0V313.51a5,5,0,0,0,5,5h54.67a5,5,0,0,0,5-5V183.84a5,5,0,1,1,10,0V313.51A15,15,0,0,1,336.41,328.51Z"/><path class="cls-1" d="M271.24,276.5h-210c-9.36,0-17-6.72-17-15V193.84c0-8.27,7.61-15,17-15H494.91a5,5,0,0,1,0,10H61.23c-3.71,0-7,2.34-7,5V261.5c0,2.67,3.26,5,7,5h210a5,5,0,0,1,0,10Z"/><path class="cls-1" d="M494.91,276.5H346.41a5,5,0,0,1,0-10h148.5a5,5,0,1,1,0,10Z"/><path class="cls-1" d="M104.26,415.25a45.11,45.11,0,1,1,45.11-45.11A45.16,45.16,0,0,1,104.26,415.25Zm0-80.22a35.11,35.11,0,1,0,35.11,35.11A35.15,35.15,0,0,0,104.26,335Z"/><path class="cls-1" d="M104.26,387.73a17.59,17.59,0,1,1,17.59-17.59A17.61,17.61,0,0,1,104.26,387.73Zm0-25.18a7.59,7.59,0,1,0,7.59,7.59A7.6,7.6,0,0,0,104.26,362.55Z"/><path class="cls-1" d="M408.61,415.25a45.11,45.11,0,1,1,45.11-45.11A45.17,45.17,0,0,1,408.61,415.25Zm0-80.22a35.11,35.11,0,1,0,35.11,35.11A35.15,35.15,0,0,0,408.61,335Z"/><path class="cls-1" d="M408.61,387.73a17.59,17.59,0,1,1,17.59-17.59A17.61,17.61,0,0,1,408.61,387.73Zm0-25.18a7.59,7.59,0,1,0,7.59,7.59A7.61,7.61,0,0,0,408.61,362.55Z"/><path class="cls-1" d="M495.5,329H469.88c-6.27,0-11.38-5.74-11.38-12.78v-10.1c0-7.05,5.11-12.78,11.38-12.78H495.5a5,5,0,0,1,0,10H469.88c-.35,0-1.38,1-1.38,2.78v10.1c0,1.82,1,2.78,1.38,2.78H495.5a5,5,0,0,1,0,10Z"/><path class="cls-1" d="M32.05,329.78H16.52a5,5,0,1,1,0-10H32.05a3.17,3.17,0,0,0,3-3.26V305.79a3.16,3.16,0,0,0-3-3.25H17.52a5,5,0,1,1,0-10H32.05a13.13,13.13,0,0,1,13,13.25v10.73A13.14,13.14,0,0,1,32.05,329.78Z"/><path class="cls-1" d="M424.5,303.33h-16a5,5,0,0,1,0-10h16a5,5,0,0,1,0,10Z"/><path class="cls-1" d="M367.67,375.66H145.5a5,5,0,0,1,0-10H367.67a5,5,0,0,1,0,10Z"/><path class="cls-1" d="M475.84,375.66H449.5a5,5,0,0,1,0-10h26.34a15,15,0,0,0,15-15V158a15,15,0,0,0-15-15H36.5a15,15,0,0,0-15,15V350.66a15,15,0,0,0,15,15H62.38a5,5,0,0,1,0,10H36.5a25,25,0,0,1-25-25V158a25,25,0,0,1,25-25H475.84a25,25,0,0,1,25,25V350.66A25,25,0,0,1,475.84,375.66Z"/></svg>