<?xml version="1.0" ?><svg viewBox="0 0 512 512" xmlns="http://www.w3.org/2000/svg"><defs><style>.cls-1{fill:#3f456b;}</style></defs><title/><g id="Lines"><path class="cls-1" d="M79.31,260.29a10.1,10.1,0,0,1-3.56-.66h0l-65.39-25a10,10,0,0,1-5.78-12.91l7.85-20.55a10,10,0,0,1,12.9-5.78l65.4,25a10,10,0,0,1,5.78,12.91l-7.85,20.55A10,10,0,0,1,79.31,260.29Zm0-10h0l7.85-20.56-65.4-25-7.85,20.55,65.4,25Z"/><path class="cls-1" d="M169,294.53a10.08,10.08,0,0,1-3.55-.66h0l-65.4-25A10,10,0,0,1,94.27,256l7.84-20.55A10,10,0,0,1,115,229.66l65.4,25a10,10,0,0,1,5.77,12.91l-7.84,20.55A10,10,0,0,1,169,294.53Zm0-10h0L176.85,264l-65.39-25-7.85,20.56,65.39,25Z"/><path class="cls-1" d="M106.78,242.22a4.87,4.87,0,0,1-1.78-.33l-15-5.7a5,5,0,0,1,3.57-9.35l14.95,5.71a5,5,0,0,1-1.79,9.67Z"/><path class="cls-1" d="M98.76,263.24a4.83,4.83,0,0,1-1.78-.33l-15-5.7a5,5,0,1,1,3.56-9.34l15,5.7a5,5,0,0,1-1.78,9.67Z"/><path class="cls-1" d="M253,319.39a5.13,5.13,0,0,1-1.84-.35l-34.55-13.67a5,5,0,0,1,3.67-9.3l29.86,11.81,2.39-6.27-69.12-26.8-2.4,6.27,13.58,5.18a5,5,0,0,1-3.57,9.35l-18.24-7a5,5,0,0,1-2.89-6.46l6-15.63a5,5,0,0,1,2.64-2.79,5,5,0,0,1,3.84-.09l78.44,30.42a5,5,0,0,1,2.86,6.44l-6,15.64A4.94,4.94,0,0,1,255,319,4.89,4.89,0,0,1,253,319.39Z"/><path class="cls-1" d="M128.36,341.62a5,5,0,0,1-4.51-2.85c-17.19-36.09-1.73-65.95-1.06-67.2a5,5,0,0,1,8.84,4.69c-.55,1-12.68,24.81-.41,54.49l20.1-5.05c-2.89-8.78-6.79-26.37,1.14-42.15a5,5,0,1,1,8.93,4.49c-8.68,17.27,1,38.83,1.14,39A5,5,0,0,1,159.2,334l-29.62,7.44A5.15,5.15,0,0,1,128.36,341.62Z"/><path class="cls-1" d="M183.33,249a5.09,5.09,0,0,1-1.78-.33l-84-32.07a5,5,0,0,1-2.89-6.46l5.71-14.94a5,5,0,0,1,6.46-2.89l84,32.07a5,5,0,0,1,2.89,6.45L188,245.75A5,5,0,0,1,183.33,249Zm-77.55-40,74.66,28.5,2.14-5.6L107.92,203.4Z"/><path class="cls-1" d="M122.93,243a5,5,0,0,1-4.67-6.79L124,221.3a5,5,0,0,1,9.34,3.57l-5.71,14.95A5,5,0,0,1,122.93,243Z"/><path class="cls-1" d="M145.94,251.82a5.1,5.1,0,0,1-1.79-.33,5,5,0,0,1-2.88-6.46l5.7-14.94a5,5,0,1,1,9.34,3.56l-5.7,14.95A5,5,0,0,1,145.94,251.82Z"/><path class="cls-1" d="M226.33,290.81a5,5,0,0,1-5-5V248.63a5,5,0,0,1,10,0v37.18A5,5,0,0,1,226.33,290.81Z"/><path class="cls-1" d="M226.33,207a5,5,0,0,1-5-5v-3c0-28.39-29.2-46.91-29.5-47.09a5,5,0,0,1,5.27-8.5c1.4.86,34.23,21.57,34.23,55.59v3A5,5,0,0,1,226.33,207Z"/><path class="cls-1" d="M35.26,209.57a5,5,0,0,1-4.47-7.25l8.88-17.69c13.51-27.8,46.65-38.49,48.05-38.93a5,5,0,0,1,3,9.54c-.4.13-30.48,9.93-42.08,33.82l-8.91,17.75A5,5,0,0,1,35.26,209.57Z"/><path class="cls-1" d="M198,278.92a5,5,0,0,1-5-5V200.08a5,5,0,0,1,10,0v73.84A5,5,0,0,1,198,278.92Z"/><path class="cls-1" d="M202.88,485a5,5,0,0,1-5-5V322.22a5,5,0,0,1,10,0V480A5,5,0,0,1,202.88,485Z"/><path class="cls-1" d="M80.81,483a5,5,0,0,1-5-5V430.84a5,5,0,0,1,10,0V478A5,5,0,0,1,80.81,483Z"/><path class="cls-1" d="M80.81,389a5,5,0,0,1-5-5V342.77a5,5,0,0,1,10,0V384A5,5,0,0,1,80.81,389Z"/><path class="cls-1" d="M84.71,227.38a5,5,0,0,1-5-5v-22.3a5,5,0,0,1,10,0v22.3A5,5,0,0,1,84.71,227.38Z"/><path class="cls-1" d="M140.48,215.38a5,5,0,0,1-5-5V195.44a5,5,0,0,1,10,0v14.94A5,5,0,0,1,140.48,215.38Z"/><path class="cls-1" d="M140.89,489.14a5,5,0,0,1-5-5V359.81a5,5,0,0,1,10,0V484.14A5,5,0,0,1,140.89,489.14Z"/><path class="cls-1" d="M140.48,182a67.91,67.91,0,0,1-67.79-67.88V94.6L72.63,93a5,5,0,1,1,10-.34l.06,1.7c0,.06,0,.12,0,.18v19.6a57.82,57.82,0,1,0,115.63,0l-.06-21.26c0-.43,0-.81,0-1.19a5,5,0,1,1,10-.2c0,.44,0,.89,0,1.34v1.87l0,19.43A67.94,67.94,0,0,1,140.48,182Z"/><path class="cls-1" d="M112.15,111.66h-.88a5,5,0,0,1,0-10h.88a5,5,0,0,1,0,10Z"/><path class="cls-1" d="M168.8,111.66h-.88a5,5,0,0,1,0-10h.88a5,5,0,0,1,0,10Z"/><path class="cls-1" d="M140.89,500.11H76.76a5,5,0,0,1-5-4.49c-.06-.56-1.27-13.73,7.87-23.84,6.58-7.28,16.56-11,29.66-11s23,3.7,29.37,11c8.89,10.18,7.23,23.42,7.15,24A5,5,0,0,1,140.89,500.11ZM82,490.11h53.94a20.85,20.85,0,0,0-4.79-11.79c-4.4-5-11.73-7.51-21.78-7.51s-17.57,2.56-22.18,7.6A21.7,21.7,0,0,0,82,490.11Z"/><path class="cls-1" d="M205,500.11H140.89a5,5,0,0,1-5-4.49c0-.56-1.27-13.73,7.87-23.84,6.58-7.28,16.56-11,29.66-11s23,3.7,29.37,11c8.9,10.18,7.23,23.42,7.15,24A5,5,0,0,1,205,500.11Zm-58.94-10H200a20.78,20.78,0,0,0-4.79-11.79c-4.4-5-11.73-7.51-21.78-7.51s-17.56,2.56-22.17,7.6A21.72,21.72,0,0,0,146.07,490.11Z"/><path class="cls-1" d="M120.8,304.24H99.31a5,5,0,0,1,0-10H120.8a5,5,0,1,1,0,10Z"/><path class="cls-1" d="M121.89,326.42H99.31a5,5,0,0,1,0-10h22.58a5,5,0,0,1,0,10Z"/><path class="cls-1" d="M196.73,344.57H177.16a15,15,0,0,1-15-15V293.35a14.76,14.76,0,0,1,1.19-5.83,5,5,0,0,1,9.21,3.91,4.89,4.89,0,0,0-.4,1.92v36.22a5,5,0,0,0,5,5h19.57a5,5,0,0,1,0,10Z"/><path class="cls-1" d="M241.59,253.63h-29a5,5,0,0,1-5-5V202.88a5,5,0,0,1,5-5h29a5,5,0,0,1,5,5v45.75A5,5,0,0,1,241.59,253.63Zm-24-10h19V207.88h-19Z"/><path class="cls-1" d="M96.42,435.64H65.19a5,5,0,0,1-5-5V384.89a5,5,0,0,1,5-5H96.42a5,5,0,0,1,5,5v45.75A5,5,0,0,1,96.42,435.64Zm-26.23-10H91.42V389.89H70.19Z"/><path class="cls-1" d="M202.4,418.31H184.88a5,5,0,0,1-5-5V367.56a5,5,0,0,1,5-5H202.4a5,5,0,1,1,0,10H189.88v35.75H202.4a5,5,0,1,1,0,10Z"/><path class="cls-1" d="M70.28,95.9c-2.23,0-7.25-.41-10.9-3.78a12.36,12.36,0,0,1-3.86-9.41,12.11,12.11,0,0,1,3.91-9.38,14.11,14.11,0,0,1,7.13-3.23A83.19,83.19,0,0,1,77.12,41.54C86.28,26.43,104.8,8.42,141,8.38h.17c35.33,0,53.89,18,63.24,33.11a86.57,86.57,0,0,1,11.09,28.59,14.19,14.19,0,0,1,7.23,3.25,12.07,12.07,0,0,1,3.92,9.38,12.33,12.33,0,0,1-3.87,9.41C218.54,96,212.46,96,211,95.88H71.13Zm.69-10H211.58c1.2.07,3.46-.23,4.42-1.13.17-.16.64-.6.64-2.05s-.43-1.79-.59-1.93c-1-.9-3.46-1-4.31-.93a5,5,0,0,1-5.53-4.48,75.78,75.78,0,0,0-10.5-28.91C184,27.84,165.65,18.39,141.08,18.38,81,18.41,76.13,72.92,76,75.25a5,5,0,0,1-5.54,4.6c-1.18-.11-3.41.1-4.33.94-.16.14-.57.52-.57,1.92s.46,1.89.64,2.05c1,.9,3.22,1.21,4.45,1.13Z"/><path class="cls-1" d="M75.47,161.21a5,5,0,0,1-3.57-1.5c-20.62-21-13.82-69.48-13.53-71.53a5,5,0,1,1,9.9,1.44c-.08.58-6.36,45.61,10.77,63.09a5,5,0,0,1-.07,7.07A4.94,4.94,0,0,1,75.47,161.21Z"/><path class="cls-1" d="M205.14,160.88a5,5,0,0,1-3.54-8.54c17.11-17.11,10.81-61.26,10.74-61.71a5,5,0,0,1,9.9-1.47c.3,2,7.1,49.58-13.56,70.25A5,5,0,0,1,205.14,160.88Z"/><path class="cls-1" d="M202.08,327.22a21.38,21.38,0,1,1,21.38-21.37A21.4,21.4,0,0,1,202.08,327.22Zm0-32.75a11.38,11.38,0,1,0,11.38,11.38A11.39,11.39,0,0,0,202.08,294.47Z"/><path class="cls-1" d="M71.91,289.69a22.29,22.29,0,0,1-6.83-1.06l-.23-.08L24.42,273c-1.42-.5-11.49-4.38-15-14.58-2.82-8.15-.7-17.65,6.3-28.26A5,5,0,0,1,24,235.7c-5.1,7.72-6.91,14.42-5.23,19.38,2.07,6.08,8.86,8.49,8.93,8.51l.19.07,40.36,15.49c1.74.53,9.64,2.41,12.46-5.74,3.11-9-4.67-13.55-5.57-14a5,5,0,0,1,4.67-8.84c5.68,3,15.15,12.25,10.35,26.15C86.8,286.5,78.88,289.69,71.91,289.69Z"/><path class="cls-1" d="M50.54,282.7a5,5,0,0,1-4.57-7l12.54-28.26a5,5,0,0,1,9.14,4.05L55.11,279.73A5,5,0,0,1,50.54,282.7Z"/><path class="cls-1" d="M87.24,347.77H64.71a17.09,17.09,0,0,1-17.07-17.08v-42.4a17.11,17.11,0,0,1,3.85-10.78,5,5,0,1,1,7.74,6.32,7,7,0,0,0-1.59,4.46v42.4a7.08,7.08,0,0,0,7.07,7.08H87.24a7.08,7.08,0,0,0,7.07-7.08v-42.4a7.08,7.08,0,0,0-7.07-7.08H85.47a5,5,0,1,1,0-10h1.77a17.09,17.09,0,0,1,17.07,17.08v42.4A17.09,17.09,0,0,1,87.24,347.77Z"/><path class="cls-1" d="M167.16,326.42H155.25a5,5,0,0,1,0-10h11.91a5,5,0,1,1,0,10Z"/><path class="cls-1" d="M125.14,381.6h-16a5,5,0,0,1-5-5V321.42a5,5,0,0,1,10,0V371.6h6V330.88a5,5,0,1,1,10,0V376.6A5,5,0,0,1,125.14,381.6Z"/><path class="cls-1" d="M124.39,364.81H110.06a5,5,0,0,1,0-10h14.33a5,5,0,0,1,0,10Z"/><path class="cls-1" d="M56.81,217.79a5,5,0,0,1-4.52-7.13l5.86-12.45L42.2,191.49a5,5,0,0,1,3.88-9.22L66.83,191a5,5,0,0,1,2.58,6.74l-8.08,17.16A5,5,0,0,1,56.81,217.79Z"/><path class="cls-1" d="M157.14,94.9a5,5,0,0,1-5-5V52.5h-22V89.9a5,5,0,1,1-10,0V52.5a10,10,0,0,1,10-10h22a10,10,0,0,1,10,10V89.9A5,5,0,0,1,157.14,94.9Z"/><path class="cls-1" d="M71.91,73.7a5,5,0,0,1-1.86-9.64c23.85-9.57,53.59-9.68,54.84-9.68a5,5,0,1,1,0,10c-.29,0-29.09.12-51.11,9A5.13,5.13,0,0,1,71.91,73.7Z"/><path class="cls-1" d="M210.11,73.7a5.08,5.08,0,0,1-1.86-.36c-22.07-8.86-50.82-9-51.11-9a5,5,0,0,1,0-10c1.25,0,31,.11,54.84,9.68a5,5,0,0,1-1.87,9.64Z"/><path class="cls-1" d="M109.14,202.5a5,5,0,0,1-5-5V168.63a5,5,0,0,1,10,0V197.5A5,5,0,0,1,109.14,202.5Z"/><path class="cls-1" d="M173.14,227.25a5,5,0,0,1-5-5V168.63a5,5,0,0,1,10,0v53.62A5,5,0,0,1,173.14,227.25Z"/><path class="cls-1" d="M173,262.2a5,5,0,0,1-5-5V240a5,5,0,0,1,10,0V257.2A5,5,0,0,1,173,262.2Z"/><path class="cls-1" d="M109.66,237.94a5,5,0,0,1-5-5v-17.1a5,5,0,0,1,10,0v17.1A5,5,0,0,1,109.66,237.94Z"/><path class="cls-1" d="M109.14,304.24a5,5,0,0,1-5-5v-32a5,5,0,0,1,10,0v32A5,5,0,0,1,109.14,304.24Z"/><path class="cls-1" d="M140.41,198c-28.72,0-35.46-20.77-35.74-21.66a5,5,0,0,1,9.55-3c.23.69,5.15,14.65,26.19,14.65,21.39,0,27.52-14.37,27.77-15a5,5,0,0,1,9.31,3.66C177.15,177.55,168.86,198,140.41,198Z"/><path class="cls-1" d="M244,297.15a5,5,0,0,1-4.68-6.77l3.1-8.18a5,5,0,1,1,9.35,3.54l-3.09,8.18A5,5,0,0,1,244,297.15Z"/><path class="cls-1" d="M77.61,486a5,5,0,0,1-3.83-1.77,43.14,43.14,0,0,1,.76-56.43A5,5,0,0,1,82,434.46a33.11,33.11,0,0,0-.59,43.33A5,5,0,0,1,77.61,486Z"/><path class="cls-1" d="M205.85,496.82a5,5,0,0,1-1.87-9.63,33.14,33.14,0,0,0-2-62.2,5,5,0,1,1,3.12-9.5,43.14,43.14,0,0,1,2.67,81A5,5,0,0,1,205.85,496.82Z"/><path class="cls-1" d="M276.7,499.59a43.13,43.13,0,1,1,43.12-43.13A43.18,43.18,0,0,1,276.7,499.59Zm0-76.25a33.13,33.13,0,1,0,33.12,33.12A33.16,33.16,0,0,0,276.7,423.34Z"/><path class="cls-1" d="M276.7,478.53a22.07,22.07,0,1,1,22.06-22.07A22.09,22.09,0,0,1,276.7,478.53Zm0-34.13a12.07,12.07,0,1,0,12.06,12.06A12.08,12.08,0,0,0,276.7,444.4Z"/><path class="cls-1" d="M202.4,474.65a5,5,0,0,1-3.17-8.86,12.07,12.07,0,0,0,.34-18.37,5,5,0,0,1,6.62-7.48,22.05,22.05,0,0,1-.62,33.58A5,5,0,0,1,202.4,474.65Z"/><path class="cls-1" d="M360.7,478.53a22.07,22.07,0,1,1,22.07-22.07A22.09,22.09,0,0,1,360.7,478.53Zm0-34.13a12.07,12.07,0,1,0,12.07,12.06A12.07,12.07,0,0,0,360.7,444.4Z"/><path class="cls-1" d="M276.7,462.12a5,5,0,0,1-5-5v-1.28a5,5,0,0,1,10,0v1.28A5,5,0,0,1,276.7,462.12Z"/><path class="cls-1" d="M360.7,499.59a43.13,43.13,0,1,1,43.12-43.13A43.18,43.18,0,0,1,360.7,499.59Zm0-76.25a33.13,33.13,0,1,0,33.12,33.12A33.16,33.16,0,0,0,360.7,423.34Z"/><path class="cls-1" d="M360.7,462.12a5,5,0,0,1-5-5v-1.28a5,5,0,0,1,10,0v1.28A5,5,0,0,1,360.7,462.12Z"/><path class="cls-1" d="M429.27,470.43a28.49,28.49,0,1,1,28.49-28.49A28.52,28.52,0,0,1,429.27,470.43Zm0-47a18.49,18.49,0,1,0,18.49,18.49A18.51,18.51,0,0,0,429.27,423.45Z"/><path class="cls-1" d="M429.27,446.77a5,5,0,0,1-5-5v-.55a5,5,0,0,1,10,0v.55A5,5,0,0,1,429.27,446.77Z"/><path class="cls-1" d="M39.06,470.43a28.49,28.49,0,1,1,28.49-28.49A28.52,28.52,0,0,1,39.06,470.43Zm0-47a18.49,18.49,0,1,0,18.49,18.49A18.52,18.52,0,0,0,39.06,423.45Z"/><path class="cls-1" d="M39.06,446.77a5,5,0,0,1-5-5v-.55a5,5,0,0,1,10,0v.55A5,5,0,0,1,39.06,446.77Z"/><path class="cls-1" d="M429.27,423.45H204.35a5,5,0,1,1,0-10H429.27a5,5,0,0,1,0,10Z"/><path class="cls-1" d="M65.12,423.45H39.06a5,5,0,0,1,0-10H65.12a5,5,0,0,1,0,10Z"/><path class="cls-1" d="M73.58,488.15a5,5,0,0,1-2-.44l-9.12-4.1a5,5,0,0,1,4.1-9.12l9.12,4.1a5,5,0,0,1-2,9.56ZM55.33,480a4.93,4.93,0,0,1-2-.44l-9.12-4.1a5,5,0,1,1,4.1-9.12l9.12,4.1A5,5,0,0,1,55.33,480Zm-18.24-8.2a5,5,0,0,1-2.05-.44l-9.12-4.1a5,5,0,1,1,4.1-9.12l9.13,4.1a5,5,0,0,1-2.06,9.56Z"/><path class="cls-1" d="M379.29,495a5,5,0,0,1-2.06-9.56l6.12-2.75a5,5,0,1,1,4.1,9.12l-6.12,2.75A4.93,4.93,0,0,1,379.29,495Zm15.23-6.85a5,5,0,0,1-2-9.56l9.12-4.1a5,5,0,0,1,6.59,2.47,5,5,0,0,1,2.53-6.57l9.12-4.1a5,5,0,1,1,4.1,9.12l-9.12,4.1a5,5,0,0,1-6.59-2.47,5,5,0,0,1-2.53,6.57l-9.12,4.1A5,5,0,0,1,394.52,488.15ZM431,471.75a5,5,0,0,1-2.06-9.56l9.12-4.1a5,5,0,0,1,4.1,9.12l-9.12,4.1A4.93,4.93,0,0,1,431,471.75Z"/><path class="cls-1" d="M366.18,499.59H362.4a5,5,0,0,1,0-10h3.78a5,5,0,0,1,0,10Zm-13.78,0h-10a5,5,0,0,1,0-10h10a5,5,0,0,1,0,10Zm-20,0h-10a5,5,0,0,1,0-10h10a5,5,0,0,1,0,10Zm-20,0h-10a5,5,0,0,1,0-10h10a5,5,0,0,1,0,10Zm-20,0h-10a5,5,0,0,1,0-10h10a5,5,0,0,1,0,10Zm-20,0h-10a5,5,0,0,1,0-10h10a5,5,0,0,1,0,10Zm-20,0h-10a5,5,0,0,1,0-10h10a5,5,0,0,1,0,10Zm-20,0h-10a5,5,0,0,1,0-10h10a5,5,0,1,1,0,10Zm-20,0h-10a5,5,0,0,1,0-10h10a5,5,0,1,1,0,10Z"/><path class="cls-1" d="M452.62,446.94a5,5,0,0,1-5-5V421.58c0-.1.29-11.7-7.05-19.28-4.43-4.58-10.93-6.9-19.32-6.9H202.88a5,5,0,0,1,0-10H421.25c11.25,0,20.19,3.38,26.59,10,9.91,10.32,9.82,24.82,9.78,26.42v20.09A5,5,0,0,1,452.62,446.94Z"/><path class="cls-1" d="M15.57,446.94a5,5,0,0,1-5-5V421.85c0-1.59-.13-16.1,9.79-26.42,6.39-6.65,15.34-10,26.59-10H65.12a5,5,0,0,1,0,10H47c-8.39,0-14.89,2.32-19.33,6.9-7.34,7.58-7,19.18-7,19.29v20.35A5,5,0,0,1,15.57,446.94Z"/><path class="cls-1" d="M417.57,395.4a4.94,4.94,0,0,1-3.54-1.48l-48-48.31a1.8,1.8,0,0,1-.19-.2c-.12-.13-13.18-14.32-34.1-14.32H202.4a5,5,0,0,1,0-10H331.74a58.8,58.8,0,0,1,41.46,17.55l47.92,48.24a5,5,0,0,1-3.55,8.52Z"/><path class="cls-1" d="M45.9,395.4a5,5,0,0,1-3.55-8.52l19.37-19.5a5,5,0,0,1,7.09,7.05L49.45,393.92A5,5,0,0,1,45.9,395.4Z"/><path class="cls-1" d="M299.07,331.09H202.4a5,5,0,0,1,0-10h96.67a15,15,0,0,0,15-15v-40a15,15,0,0,0-15-15H242.5a5,5,0,0,1,0-10h56.57a25,25,0,0,1,25,25v40A25,25,0,0,1,299.07,331.09Z"/><path class="cls-1" d="M350.57,310.34h-31.5a5,5,0,0,1,0-10h31.5a5,5,0,0,0,5-5V278.59a5,5,0,0,0-5-5h-31.5a5,5,0,0,1,0-10h31.5a15,15,0,0,1,15,15v16.75A15,15,0,0,1,350.57,310.34Z"/><path class="cls-1" d="M493.72,301.25H360.57a5,5,0,1,1,0-10H492.41c0-.88,0-2,0-3,0-.71,0-1.45,0-2.2s0-1.49,0-2.2c0-.93,0-2.09,0-3H360.57a5,5,0,0,1,0-10H493.72a8.24,8.24,0,0,1,6.07,2.37c2.76,2.81,2.69,6.86,2.62,10.77,0,.66,0,1.33,0,2s0,1.37,0,2c.07,3.92.14,8-2.62,10.77A8.22,8.22,0,0,1,493.72,301.25Zm0-20.33h0Z"/><path class="cls-1" d="M80.81,379.09H73.57a15,15,0,0,1-15-15V351.22a15,15,0,0,1,5.67-11.73,5,5,0,0,1,6.23,7.82,5,5,0,0,0-1.9,3.91v12.87a5,5,0,0,0,5,5h7.24a5,5,0,0,1,0,10Z"/><path class="cls-1" d="M280.07,251.09a5,5,0,0,1-5-5V232.34a5,5,0,0,0-5-5H242.5a5,5,0,0,1,0-10h27.57a15,15,0,0,1,15,15v13.75A5,5,0,0,1,280.07,251.09Z"/><path class="cls-1" d="M296.57,250.34a5,5,0,0,1-5-5V176.66a5,5,0,0,1,10,0v68.68A5,5,0,0,1,296.57,250.34Z"/><path class="cls-1" d="M442.92,110.36a5,5,0,0,1-2.57-9.29c13.22-7.93,32-4.35,32.85-4.19a5,5,0,1,1-1.93,9.81h0c-.15,0-15.88-3-25.78,3A5,5,0,0,1,442.92,110.36Z"/><path class="cls-1" d="M378.25,85.32A5,5,0,0,1,373.3,81c-.44-3.32-2.94-7.31-3.87-8.57a5,5,0,0,1,8-6c.5.67,4.91,6.75,5.75,13.25a5,5,0,0,1-4.31,5.6A4.82,4.82,0,0,1,378.25,85.32Z"/><path class="cls-1" d="M457.31,170.47h-125a40.75,40.75,0,0,1-10.14-79.84c-.07-.82-.1-1.65-.1-2.47a31.87,31.87,0,0,1,51-25.46A55.23,55.23,0,0,1,476.87,88.93a56.62,56.62,0,0,1-.72,8.93,37.23,37.23,0,0,1-11.23,72.61Zm-124.45-10h132a27.23,27.23,0,0,0,4.52-54,5,5,0,0,1-3.95-6.17,45.23,45.23,0,0,0-86.07-27.38,5,5,0,0,1-8.54,1.4,21.86,21.86,0,0,0-38.16,19,5,5,0,0,1-4,6.12,30.75,30.75,0,0,0,4,61.08Z"/><path class="cls-1" d="M354.37,100.58a5,5,0,0,1-1.57-.25c-11.42-3.76-26.62-.54-26.78-.51a5,5,0,0,1-2.11-9.77c.73-.16,18-3.82,32,.78a5,5,0,0,1-1.56,9.75Z"/></g><g id="Outline"><path class="cls-1" d="M241.59,227.25h-29a5,5,0,0,1,0-10h29a5,5,0,1,1,0,10Z"/><path class="cls-1" d="M99.31,304.25H52.64a5,5,0,1,1,0-10H99.31a5,5,0,0,1,0,10Z"/><path class="cls-1" d="M96.42,409.26H65.19a5,5,0,0,1,0-10H96.42a5,5,0,1,1,0,10Z"/><path class="cls-1" d="M142.8,337.09a5,5,0,0,1-4.62-3.07c-14-33.55-2.47-56.34-2-57.29a5,5,0,0,1,8.87,4.62c-.43.84-9.78,19.87,2.33,48.81a5,5,0,0,1-4.61,6.93Z"/><path class="cls-1" d="M122.46,277.11a5.14,5.14,0,0,1-1.79-.33,5,5,0,0,1-2.88-6.46l11.46-29.88a5,5,0,1,1,9.34,3.58L127.13,273.9A5,5,0,0,1,122.46,277.11Z"/><path class="cls-1" d="M145.94,285.26a4.9,4.9,0,0,1-1.79-.34,5,5,0,0,1-2.88-6.45l10.8-28.15a5,5,0,1,1,9.33,3.58l-10.79,28.15A5,5,0,0,1,145.94,285.26Z"/><path class="cls-1" d="M223.57,395.4a5,5,0,0,1-5-5V358.25a5,5,0,0,1,10,0V390.4A5,5,0,0,1,223.57,395.4Z"/><path class="cls-1" d="M255.57,395.4a5,5,0,0,1-5-5V358.25a5,5,0,0,1,10,0V390.4A5,5,0,0,1,255.57,395.4Z"/><path class="cls-1" d="M287.57,395.4a5,5,0,0,1-5-5V358.25a5,5,0,0,1,10,0V390.4A5,5,0,0,1,287.57,395.4Z"/><path class="cls-1" d="M319.57,395.4a5,5,0,0,1-5-5V358.25a5,5,0,0,1,10,0V390.4A5,5,0,0,1,319.57,395.4Z"/></g></svg>