<?xml version="1.0" ?><svg viewBox="0 0 512 512" xmlns="http://www.w3.org/2000/svg"><defs><style>.cls-1{fill:#3f456b;}</style></defs><title/><g id="Lines"><path class="cls-1" d="M344.14,500.5c-24.74,0-44.87-20.94-44.87-46.67l.27-28.38c0-20.17-15.67-36.62-34.94-36.62s-34.93,16.45-34.93,36.67l-.17,28.36c0,25.7-20.3,46.64-45.25,46.64S139,479.56,139,453.83V351a5,5,0,0,1,10,0V453.83c0,20.22,15.81,36.67,35.25,36.67s35.25-16.45,35.25-36.67l.17-28.36c0-25.7,20.16-46.64,44.93-46.64s44.94,20.94,44.94,46.67l-.27,28.38c0,20.17,15.64,36.62,34.87,36.62S379,474.05,379,453.83V432a5,5,0,0,1,10,0v21.83C389,479.56,368.87,500.5,344.14,500.5Z"/><path class="cls-1" d="M242,356H46a35,35,0,0,1-35-35V94A35,35,0,0,1,46,59H242a35,35,0,0,1,35,35V321A35,35,0,0,1,242,356ZM46,69A25,25,0,0,0,21,94V321a25,25,0,0,0,25,25H242a25,25,0,0,0,25-25V94a25,25,0,0,0-25-25Z"/><path class="cls-1" d="M113.86,243a5,5,0,0,1-3.54-8.54L171,173.82a5,5,0,1,1,7.08,7.07l-60.65,60.65A5,5,0,0,1,113.86,243Z"/><path class="cls-1" d="M174.19,243a5,5,0,0,1-3.53-1.47L110,180.89a5,5,0,0,1,7.07-7.07l60.65,60.65a5,5,0,0,1-3.54,8.54Z"/><path class="cls-1" d="M384,436.63c-22.68,0-44.18-11.75-60.54-33.08-15.54-20.28-24.46-47.27-24.46-74,0-24,6.88-45.69,19.9-62.6a85.23,85.23,0,0,1,43.58-29.86c-.15-5,.53-12.8,5.41-18.6,2.61-3.09,7.52-6.78,16.11-6.78,8.78,0,13.59,3.74,16.08,6.87,4.43,5.59,4.76,13,4.38,17.76,20.24,6.43,35.94,17,46.73,31.53C463,283.73,469,304.49,469,329.51c0,26.77-8.92,53.76-24.46,74C428.18,424.88,406.68,436.63,384,436.63Zm0-215c-3.85,0-6.61,1.05-8.44,3.21-3.64,4.29-3.25,12.36-2.79,15.11a5,5,0,0,1-3.8,5.7A75,75,0,0,0,326.83,273C315.16,288.16,309,307.69,309,329.51c0,24.62,8.16,49.39,22.4,67.95,14.42,18.81,33.1,29.17,52.6,29.17s38.18-10.36,52.6-29.17c14.24-18.56,22.4-43.33,22.4-67.95,0-22.83-5.33-41.57-15.84-55.72-10.17-13.68-25.52-23.48-45.62-29.12a5,5,0,0,1-3.52-5.94h0c.58-2.54,1.39-10-1.79-14C390.58,222.67,387.89,221.67,384,221.67Z"/><path class="cls-1" d="M384.5,196.75a93.13,93.13,0,1,1,93.12-93.13A93.23,93.23,0,0,1,384.5,196.75Zm0-176.25a83.13,83.13,0,1,0,83.12,83.12A83.21,83.21,0,0,0,384.5,20.5Z"/><path class="cls-1" d="M384,222a5,5,0,0,1-5-5V192a5,5,0,0,1,10,0v25A5,5,0,0,1,384,222Z"/><path class="cls-1" d="M384,178a5,5,0,0,1-5-5V104a5,5,0,0,1,10,0v69A5,5,0,0,1,384,178Z"/></g><g id="Outline"><path class="cls-1" d="M464,340H385a5,5,0,0,1,0-10h79a5,5,0,0,1,0,10Z"/><path class="cls-1" d="M461,309.09H395a5,5,0,0,1,0-10h66a5,5,0,0,1,0,10Z"/><path class="cls-1" d="M405.17,278.25a5,5,0,0,1,0-10L446,268a5,5,0,1,1,.06,10l-40.83.25Z"/><path class="cls-1" d="M405.17,402.94a5,5,0,0,1,0-10l35-.22a5,5,0,1,1,.06,10l-35,.22Z"/><path class="cls-1" d="M456,371.91H395a5,5,0,0,1,0-10h61a5,5,0,0,1,0,10Z"/><path class="cls-1" d="M454.5,108h-5.6a5,5,0,0,1,0-10h5.6a5,5,0,0,1,0,10Z"/><path class="cls-1" d="M320.1,108h-5.6a5,5,0,0,1,0-10h5.6a5,5,0,0,1,0,10Z"/><path class="cls-1" d="M384.5,43.6a5,5,0,0,1-5-5V33a5,5,0,0,1,10,0v5.6A5,5,0,0,1,384.5,43.6Z"/><path class="cls-1" d="M440.23,75.73a5,5,0,0,1-2.51-9.33l4.85-2.81a5,5,0,0,1,5,8.66l-4.85,2.8A4.93,4.93,0,0,1,440.23,75.73Z"/><path class="cls-1" d="M323.93,143.08a5,5,0,0,1-2.51-9.33l4.85-2.8a5,5,0,1,1,5,8.65l-4.85,2.81A5,5,0,0,1,323.93,143.08Z"/><path class="cls-1" d="M419.59,168.58a5,5,0,0,1-4.34-2.5l-2.8-4.85a5,5,0,0,1,8.65-5l2.81,4.85a5,5,0,0,1-4.32,7.51Z"/><path class="cls-1" d="M352.23,52.27a5,5,0,0,1-4.33-2.49l-2.81-4.85a5,5,0,0,1,8.66-5l2.8,4.85a5,5,0,0,1-4.32,7.5Z"/><path class="cls-1" d="M416.62,52.19a5,5,0,0,1-4.33-7.5l2.8-4.85a5,5,0,1,1,8.66,5L421,49.68A5,5,0,0,1,416.62,52.19Z"/><path class="cls-1" d="M349.58,168.67a5,5,0,0,1-4.33-7.5l2.79-4.85a5,5,0,1,1,8.67,5l-2.8,4.85A5,5,0,0,1,349.58,168.67Z"/><path class="cls-1" d="M445.16,142.92a4.93,4.93,0,0,1-2.49-.67l-4.85-2.79a5,5,0,0,1,5-8.67l4.85,2.8a5,5,0,0,1-2.5,9.33Z"/><path class="cls-1" d="M328.68,75.88a5,5,0,0,1-2.49-.67l-4.85-2.8a5,5,0,1,1,5-8.66l4.85,2.79a5,5,0,0,1-2.5,9.34Z"/><path class="cls-1" d="M454.33,430.37a5,5,0,0,1-3.53-8.54l.67-.67a5,5,0,0,1,7.13,7l-.74.74A4.94,4.94,0,0,1,454.33,430.37Zm13.32-16.2a4.94,4.94,0,0,1-2.8-.87,5,5,0,0,1-1.33-6.94l.54-.8a5,5,0,1,1,8.31,5.55l-.58.86A5,5,0,0,1,467.65,414.17ZM478,395.88a5,5,0,0,1-4.55-7.09l.41-.87a5,5,0,1,1,9.11,4.11l-.43.94A5,5,0,0,1,478,395.88Zm7.26-19.68a5,5,0,0,1-4.82-6.36l.26-.94a5,5,0,0,1,9.64,2.67l-.28,1A5,5,0,0,1,485.21,376.2Zm4.28-20.53a5.19,5.19,0,0,1-.68-.05,5,5,0,0,1-4.28-5.63l.13-1a5,5,0,1,1,9.91,1.3l-.13,1A5,5,0,0,1,489.49,355.67Zm1.5-20.92h-.05a5,5,0,0,1-4.95-5.06v-1a5,5,0,0,1,10,0v1A5,5,0,0,1,491,334.75Zm-1.07-20.95a5,5,0,0,1-5-4.42l-.12-1a5,5,0,1,1,9.92-1.23l.13,1a5,5,0,0,1-4.38,5.55A4,4,0,0,1,489.92,313.8Zm-4.05-20.56a5,5,0,0,1-4.81-3.64c-.09-.3-.18-.6-.26-.9a5,5,0,1,1,9.58-2.85l.3,1a5,5,0,0,1-4.81,6.38Zm-7.72-19.48a5,5,0,0,1-4.43-2.67l-.45-.84a5,5,0,0,1,8.8-4.75l.5.93a5,5,0,0,1-2.1,6.75A4.87,4.87,0,0,1,478.15,273.76Zm-11.94-17.21a5,5,0,0,1-3.7-1.64c-.21-.23-.42-.47-.64-.69a5,5,0,0,1,7.33-6.81c.24.26.48.51.72.78a5,5,0,0,1-3.71,8.36ZM449.9,243.44a5,5,0,0,1-2.28-.55l-.63-.31a5,5,0,0,1,4-9.17s.43.18,1.2.58a5,5,0,0,1-2.29,9.45Z"/></g></svg>