<?xml version="1.0" ?><svg viewBox="0 0 512 512" xmlns="http://www.w3.org/2000/svg"><defs><style>.cls-1{fill:#3f456b;}</style></defs><title/><g id="Lines"><path class="cls-1" d="M322,470.56a5,5,0,0,1-5-5v-4.12a5,5,0,0,1,10,0v4.12A5,5,0,0,1,322,470.56Z"/><path class="cls-1" d="M361,470.56a5,5,0,0,1-5-5v-4.12a5,5,0,0,1,10,0v4.12A5,5,0,0,1,361,470.56Z"/><path class="cls-1" d="M400,470.56a5,5,0,0,1-5-5v-4.12a5,5,0,0,1,10,0v4.12A5,5,0,0,1,400,470.56Z"/><path class="cls-1" d="M481.87,502H29.13a18,18,0,0,1-13.32-5.26C10,490.74,10,482,10,480.59V458.82a28.47,28.47,0,0,1,7.21-19.92c6.62-7.23,17-10.9,30.79-10.9H208a5,5,0,0,1,0,10H48c-10.89,0-18.77,2.57-23.41,7.65A18.33,18.33,0,0,0,20,458.22c0,.15,0,.29,0,.44v22.17c0,1.58.44,6.34,3,9a8.06,8.06,0,0,0,6.1,2.18H481.87a8.1,8.1,0,0,0,6.11-2.18c2.58-2.65,3.06-7.41,3-9V458.66a4.71,4.71,0,0,1,0-.53,18.59,18.59,0,0,0-4.48-12.95c-4.34-4.76-11.68-7.18-21.8-7.18a5,5,0,0,1,0-10c13.15,0,23,3.56,29.33,10.59,7.37,8.22,7.06,18.29,6.92,20.28v21.72c0,1.41,0,10.15-5.81,16.15A18,18,0,0,1,481.87,502Z"/><path class="cls-1" d="M31.76,438.13a5.65,5.65,0,0,1-.71-.05,5,5,0,0,1-4.25-5.65L55.92,226.57l0-.18C57.46,218,64.53,202,80.5,202H208c12.35,0,18.82,6.85,22.07,12.59a32.61,32.61,0,0,1,3.9,11.93l29,205.8a5,5,0,1,1-9.9,1.39l-29-205.9,0-.27C223.87,226,222.1,212,208,212H80.5C69.21,212,66,227,65.81,228.08L36.7,433.83A5,5,0,0,1,31.76,438.13Z"/><path class="cls-1" d="M465,438H258a5,5,0,0,1-5-5V142a5,5,0,0,1,5-5H465a5,5,0,0,1,5,5V433A5,5,0,0,1,465,438ZM263,428H460V147H263Z"/><path class="cls-1" d="M258,438H211a5,5,0,0,1,0-10h47a5,5,0,0,1,0,10Z"/><path class="cls-1" d="M145.41,338.1a41.31,41.31,0,1,1,41.3-41.31A41.35,41.35,0,0,1,145.41,338.1Zm0-72.62a31.31,31.31,0,1,0,31.3,31.31A31.34,31.34,0,0,0,145.41,265.48Z"/><path class="cls-1" d="M479,147H243a15,15,0,0,1-15-15V109a15,15,0,0,1,15-15H479a15,15,0,0,1,15,15v23A15,15,0,0,1,479,147ZM243,104a5,5,0,0,0-5,5v23a5,5,0,0,0,5,5H479a5,5,0,0,0,5-5V109a5,5,0,0,0-5-5Z"/><path class="cls-1" d="M453.34,104l-.46,0a76.12,76.12,0,0,1-30.45-10.89c-14-8.75-30.6-26.22-30.6-59.76a1.21,1.21,0,0,1,0-.19c.05-1.86-.41-7.38-3.16-10.22A6.74,6.74,0,0,0,383.5,21H340.33a6.74,6.74,0,0,0-5.18,1.92c-2.75,2.84-3.21,8.36-3.15,10.24v.17c0,33.55-16.64,51-30.6,59.72A76.1,76.1,0,0,1,271,103.9a5,5,0,0,1-.9-10c2.11-.2,51.9-5.53,51.95-60.52-.05-1.55-.07-11.18,5.93-17.41a16.72,16.72,0,0,1,12.4-5H383.5a16.76,16.76,0,0,1,12.41,5c6,6.23,6,15.86,5.92,17.41,0,23.21,8.74,40.43,25.91,51.2A66.36,66.36,0,0,0,453.79,94a5,5,0,0,1-.45,10Z"/></g><g id="Outline"><path class="cls-1" d="M199,363H92a5,5,0,0,1,0-10H199a5,5,0,0,1,0,10Z"/><path class="cls-1" d="M199,385H92a5,5,0,0,1,0-10H199a5,5,0,0,1,0,10Z"/><path class="cls-1" d="M199,407H92a5,5,0,0,1,0-10H199a5,5,0,0,1,0,10Z"/><path class="cls-1" d="M361,266a5,5,0,0,1-5-5V145a5,5,0,0,1,10,0V261A5,5,0,0,1,361,266Z"/><path class="cls-1" d="M315.58,306a5,5,0,0,1-3.29-8.77l45.92-40.09a5,5,0,0,1,6.55,0L411,296.79a5,5,0,1,1-6.51,7.59l-43-36.86-42.66,37.25A5,5,0,0,1,315.58,306Z"/></g></svg>