<?xml version="1.0" ?><svg viewBox="0 0 512 512" xmlns="http://www.w3.org/2000/svg"><defs><style>.cls-1{fill:#3f456b;}</style></defs><title/><g id="Lines"><path class="cls-1" d="M448.5,124a5,5,0,0,1-4.88-3.91c-.09-.39-9.36-39.63-44.21-47.44a5,5,0,0,1,.15-9.79c1.6-.31,39.24-8.06,44-47.46a5,5,0,0,1,4.85-4.4h.11a5,5,0,0,1,4.93,4.18,74.68,74.68,0,0,0,8.38,22.06c8.41,14.56,20.35,23.17,35.48,25.59a5,5,0,0,1,.23,9.84c-1.55.32-38.2,8.55-44.08,47.08a5,5,0,0,1-4.77,4.25ZM415.6,67.82c17.1,8.46,26.94,23.37,32.27,34.74a64.52,64.52,0,0,1,24.29-29.31,75.28,75.28,0,0,1,8.66-5C469.44,63.08,460,54.17,453,41.94A83.53,83.53,0,0,1,449,34a62.36,62.36,0,0,1-23.72,28.41A73.94,73.94,0,0,1,415.6,67.82Z"/><path class="cls-1" d="M64.5,502a5,5,0,0,1-4.88-3.91c-.09-.39-9.36-39.63-44.21-47.44a5,5,0,0,1,.15-9.79c1.6-.31,39.24-8.06,44-47.46a5,5,0,0,1,4.85-4.4h.11a5,5,0,0,1,4.93,4.18,74.68,74.68,0,0,0,8.38,22.06c8.41,14.56,20.35,23.17,35.48,25.59a5,5,0,0,1,.23,9.84c-1.55.32-38.2,8.55-44.08,47.08A5,5,0,0,1,64.67,502ZM31.6,445.82c17.1,8.46,26.94,23.37,32.27,34.74a64.52,64.52,0,0,1,24.29-29.31,75.28,75.28,0,0,1,8.66-5C85.44,441.08,76,432.17,69,419.94A83.53,83.53,0,0,1,65,412a62.36,62.36,0,0,1-23.72,28.41A73.94,73.94,0,0,1,31.6,445.82Z"/><path class="cls-1" d="M257,357c-64.65,0-125.5-13.52-171.36-38.08C38.8,293.83,13,260.12,13,224s25.8-69.83,72.64-94.92C131.5,104.52,192.35,91,257,91s125.5,13.52,171.36,38.08C475.2,154.17,501,187.88,501,224s-25.8,69.83-72.64,94.92C382.5,343.48,321.65,357,257,357Zm0-256c-63,0-122.21,13.1-166.64,36.9C46.92,161.16,23,191.74,23,224s23.92,62.84,67.36,86.1C134.79,333.9,194,347,257,347s122.21-13.1,166.64-36.9C467.08,286.84,491,256.26,491,224s-23.92-62.84-67.36-86.1C379.21,114.1,320,101,257,101Z"/><path class="cls-1" d="M257,333c-58.17,0-112.93-11-154.21-31C60.37,281.52,37,253.8,37,224s23.37-57.52,65.79-78c41.28-20,96-31,154.21-31s112.93,11,154.21,31C453.63,166.48,477,194.2,477,224s-23.37,57.52-65.79,78C369.93,322,315.17,333,257,333Zm0-208c-56.69,0-109.91,10.64-149.85,30C68.36,173.72,47,198.24,47,224s21.36,50.28,60.15,69c39.94,19.32,93.16,30,149.85,30s109.91-10.64,149.85-30C445.64,274.28,467,249.76,467,224s-21.36-50.28-60.15-69C366.91,135.64,313.69,125,257,125Z"/><path class="cls-1" d="M257,420c-64.65,0-125.5-13.52-171.36-38.08C38.8,356.83,13,323.12,13,287V224a5,5,0,0,1,10,0v63c0,32.26,23.92,62.84,67.36,86.1C134.79,396.9,194,410,257,410s122.21-13.1,166.64-36.9C467.08,349.84,491,319.26,491,287V224a5,5,0,0,1,10,0v63c0,36.12-25.8,69.83-72.64,94.92C382.5,406.48,321.65,420,257,420Z"/><path class="cls-1" d="M42.69,236.28A5,5,0,0,1,39,227.89c20.05-21.68,50.69-39.95,88.63-52.82C166.32,161.94,211.05,155,257,155s90.62,6.93,129.28,20c37.92,12.86,68.56,31.1,88.62,52.75a5,5,0,0,1-7.34,6.8c-18.93-20.44-48.15-37.76-84.49-50.08C345.43,171.75,301.83,165,257,165s-88.49,6.76-126.14,19.54c-36.37,12.34-65.59,29.67-84.5,50.13A5,5,0,0,1,42.69,236.28Z"/><path class="cls-1" d="M256,402a18,18,0,1,1,18-18A18,18,0,0,1,256,402Zm0-26a8,8,0,1,0,8,8A8,8,0,0,0,256,376Z"/><path class="cls-1" d="M361,389a18,18,0,1,1,18-18A18,18,0,0,1,361,389Zm0-26a8,8,0,1,0,8,8A8,8,0,0,0,361,363Z"/><path class="cls-1" d="M151,389a18,18,0,1,1,18-18A18,18,0,0,1,151,389Zm0-26a8,8,0,1,0,8,8A8,8,0,0,0,151,363Z"/></g><g id="Outline"><path class="cls-1" d="M257,165a5,5,0,0,1-5-5V120a5,5,0,0,1,10,0v40A5,5,0,0,1,257,165Z"/></g></svg>