<?xml version="1.0" ?><svg enable-background="new 0 0 512 512" version="1.1" viewBox="0 0 512 512" xml:space="preserve" xmlns="http://www.w3.org/2000/svg" xmlns:xlink="http://www.w3.org/1999/xlink"><g id="Lines"><g><g><g><g><g><path d="M32.5,484.5c-1.279,0-2.56-0.488-3.535-1.464c-1.953-1.953-1.953-5.119,0-7.071l35.216-35.216        c1.951-1.952,5.119-1.952,7.07,0c1.953,1.953,1.953,5.119,0,7.071l-35.216,35.216C35.06,484.012,33.779,484.5,32.5,484.5z" fill="#3F456B"/></g></g></g><g><g><g><path d="M67.716,484.5c-1.279,0-2.56-0.488-3.535-1.464L28.965,447.82c-1.953-1.953-1.953-5.119,0-7.071        c1.951-1.952,5.119-1.952,7.07,0l35.216,35.216c1.953,1.953,1.953,5.119,0,7.071C70.275,484.012,68.995,484.5,67.716,484.5z" fill="#3F456B"/></g></g></g></g><g><g><g><g><path d="M364.25,501c-75.956,0-137.75-61.794-137.75-137.75V285.5h-77.75C72.794,285.5,11,223.706,11,147.75        S72.794,10,148.75,10S286.5,71.794,286.5,147.75v77.75h77.75c75.956,0,137.75,61.794,137.75,137.75S440.206,501,364.25,501z         M148.75,20C78.309,20,21,77.309,21,147.75S78.309,275.5,148.75,275.5h82.75c2.762,0,5,2.239,5,5v82.75        c0,70.441,57.309,127.75,127.75,127.75S492,433.691,492,363.25S434.691,235.5,364.25,235.5H281.5c-2.762,0-5-2.239-5-5v-82.75        C276.5,77.309,219.191,20,148.75,20z M364.25,451c-48.386,0-87.75-39.364-87.75-87.75V280.5c0-2.761,2.238-5,5-5h82.75        c48.386,0,87.75,39.364,87.75,87.75S412.636,451,364.25,451z M286.5,285.5v77.75c0,42.872,34.879,77.75,77.75,77.75        S442,406.122,442,363.25s-34.879-77.75-77.75-77.75H286.5z M231.5,235.5h-82.75c-48.386,0-87.75-39.364-87.75-87.75        S100.364,60,148.75,60s87.75,39.364,87.75,87.75v82.75C236.5,233.261,234.262,235.5,231.5,235.5z M148.75,70        C105.879,70,71,104.878,71,147.75s34.879,77.75,77.75,77.75h77.75v-77.75C226.5,104.878,191.621,70,148.75,70z" fill="#3F456B"/></g></g></g></g><g><g><g><path d="M281.5,235.5h-50c-2.762,0-5-2.239-5-5s2.238-5,5-5h50c2.762,0,5,2.239,5,5S284.262,235.5,281.5,235.5z       " fill="#3F456B"/></g></g></g><g><g><g><path d="M281.5,285.5h-50c-2.762,0-5-2.239-5-5s2.238-5,5-5h50c2.762,0,5,2.239,5,5S284.262,285.5,281.5,285.5z       " fill="#3F456B"/></g></g></g><g><g><g><path d="M447.209,173.11c-14.695,0-31.247-1.854-47.864-7.417c-45.576-15.255-92.373-0.148-92.842,0.005       c-1.522,0.503-3.199,0.245-4.499-0.695c-1.3-0.94-2.072-2.447-2.072-4.052v-128c0-2.154,1.38-4.066,3.425-4.746       c2.032-0.674,50.347-16.336,99.162,0.004c45.578,15.256,92.374,0.149,92.842-0.005c1.521-0.504,3.198-0.246,4.499,0.695       c1.3,0.94,2.072,2.447,2.072,4.052v128c0,2.154-1.38,4.066-3.425,4.746C497.166,166.143,475.684,173.11,447.209,173.11z        M354.654,148.795c14.695,0,31.247,1.854,47.864,7.417c38.549,12.902,77.804,4.141,89.413,0.993V39.568       c-15.091,3.844-53.677,11.15-92.587-1.875c-38.55-12.903-77.805-4.141-89.413-0.993v117.636       C318.577,152.135,334.94,148.795,354.654,148.795z M496.932,160.953h0.01H496.932z" fill="#3F456B"/></g></g></g><g><g><g><path d="M447.209,87.777c-14.695,0-31.247-1.854-47.864-7.417c-45.69-15.293-92.372-0.15-92.838,0.004       c-2.617,0.87-5.45-0.549-6.32-3.17c-0.87-2.621,0.549-5.451,3.17-6.321c2.032-0.674,50.347-16.336,99.162,0.004       c45.69,15.293,92.372,0.15,92.838-0.004c2.62-0.868,5.451,0.549,6.32,3.17c0.87,2.621-0.549,5.451-3.17,6.321       C497.166,80.81,475.684,87.775,447.209,87.777z" fill="#3F456B"/></g></g></g><g><g><g><path d="M447.209,130.444c-14.695,0-31.247-1.854-47.864-7.417c-45.69-15.293-92.372-0.15-92.838,0.004       c-2.617,0.869-5.45-0.549-6.32-3.17c-0.87-2.621,0.549-5.451,3.17-6.321c2.032-0.675,50.347-16.336,99.162,0.004       c45.69,15.292,92.372,0.15,92.838-0.004c2.62-0.869,5.451,0.549,6.32,3.17c0.87,2.621-0.549,5.451-3.17,6.321       C497.166,123.477,475.684,130.442,447.209,130.444z" fill="#3F456B"/></g></g></g><g><g><g><path d="M433.015,172.139c-2.762,0-5-2.239-5-5V39.397c0-2.761,2.238-5,5-5s5,2.239,5,5v127.742       C438.015,169.9,435.776,172.139,433.015,172.139z" fill="#3F456B"/></g></g></g><g><g><g><path d="M368.932,158.852c-2.762,0-5-2.239-5-5V27.147c0-2.761,2.238-5,5-5s5,2.239,5,5v126.705       C373.932,156.613,371.693,158.852,368.932,158.852z" fill="#3F456B"/></g></g></g><g><g><g><path d="M304.932,213.012c-2.762,0-5-2.239-5-5v-51.528c0-2.761,2.238-5,5-5s5,2.239,5,5v51.528       C309.932,210.773,307.693,213.012,304.932,213.012z" fill="#3F456B"/></g></g></g><g><g><g><path d="M149.682,211.568c-35.189,0-63.818-28.629-63.818-63.818s28.629-63.818,63.818-63.818       S213.5,112.561,213.5,147.75S184.871,211.568,149.682,211.568z M149.682,93.932c-29.676,0-53.818,24.143-53.818,53.818       s24.143,53.818,53.818,53.818S203.5,177.426,203.5,147.75S179.357,93.932,149.682,93.932z" fill="#3F456B"/></g></g></g><g><g><g><path d="M364.25,426.777c-35.189,0-63.818-28.629-63.818-63.818s28.629-63.818,63.818-63.818       s63.818,28.628,63.818,63.818S399.439,426.777,364.25,426.777z M364.25,309.141c-29.676,0-53.818,24.143-53.818,53.818       c0,29.676,24.143,53.818,53.818,53.818s53.818-24.143,53.818-53.818C418.068,333.284,393.926,309.141,364.25,309.141z" fill="#3F456B"/></g></g></g><g><g><g><path d="M208.5,484.5h-96c-2.762,0-5-2.239-5-5v-74.844L32.489,404.5c-2.757-0.006-4.989-2.243-4.989-5v-96       c0-2.761,2.238-5,5-5h176c2.762,0,5,2.239,5,5v176C213.5,482.261,211.262,484.5,208.5,484.5z M117.5,474.5h86v-166h-166v86.01       l75.011,0.156c2.757,0.006,4.989,2.243,4.989,5V474.5z" fill="#3F456B"/></g></g></g></g></g><g id="Outline"><g><g><g><g><path d="M361.244,476.344c-0.039,0-0.078,0-0.117-0.001c-3.479-0.08-6.987-0.323-10.429-0.722       c-2.743-0.318-4.709-2.8-4.391-5.542c0.318-2.743,2.794-4.707,5.543-4.391c3.136,0.364,6.335,0.585,9.507,0.659       c2.761,0.063,4.947,2.354,4.884,5.114C366.178,474.181,363.952,476.344,361.244,476.344z M381.152,474.969       c-2.407,0-4.528-1.743-4.929-4.195c-0.445-2.726,1.403-5.295,4.129-5.74c3.125-0.51,6.26-1.174,9.317-1.973       c2.673-0.699,5.403,0.902,6.103,3.573c0.698,2.671-0.902,5.403-3.573,6.102c-3.36,0.878-6.804,1.607-10.235,2.167       C381.691,474.947,381.42,474.969,381.152,474.969z M331.747,471.512c-0.494,0-0.996-0.074-1.493-0.229       c-3.313-1.035-6.619-2.241-9.826-3.583c-2.547-1.066-3.747-3.996-2.681-6.543c1.067-2.547,3.996-3.748,6.544-2.681       c2.919,1.222,5.929,2.32,8.945,3.262c2.636,0.823,4.104,3.627,3.281,6.263C335.85,470.141,333.876,471.512,331.747,471.512z        M409.701,466.063c-1.871,0-3.665-1.055-4.521-2.857c-1.185-2.495-0.122-5.477,2.373-6.661       c2.855-1.355,5.685-2.863,8.409-4.483c2.373-1.413,5.441-0.63,6.853,1.744c1.411,2.374,0.631,5.442-1.743,6.853       c-2.991,1.777-6.097,3.433-9.231,4.92C411.148,465.908,410.419,466.063,409.701,466.063z M304.739,458.694       c-0.944,0-1.899-0.267-2.747-0.826c-2.897-1.91-5.742-3.98-8.454-6.152c-2.156-1.726-2.504-4.873-0.777-7.028       c1.726-2.155,4.873-2.503,7.027-0.777c2.474,1.98,5.066,3.868,7.708,5.609c2.306,1.52,2.942,4.621,1.423,6.927       C307.957,457.903,306.364,458.694,304.739,458.694z M434.668,449.615c-1.388,0-2.769-0.575-3.757-1.699       c-1.823-2.074-1.62-5.233,0.454-7.057c2.376-2.089,4.687-4.316,6.866-6.618c1.896-2.005,5.062-2.093,7.068-0.194       c2.005,1.898,2.092,5.063,0.193,7.068c-2.389,2.523-4.921,4.964-7.526,7.255C437.018,449.206,435.84,449.615,434.668,449.615z        M282.291,438.95c-1.403,0-2.799-0.587-3.787-1.733c-2.265-2.624-4.438-5.39-6.459-8.221c-1.604-2.248-1.083-5.37,1.164-6.975       s5.371-1.083,6.975,1.164c1.844,2.583,3.825,5.105,5.891,7.499c1.805,2.09,1.572,5.248-0.519,7.052       C284.611,438.551,283.448,438.95,282.291,438.95z M454.196,426.979c-0.931,0-1.872-0.259-2.711-0.802       c-2.318-1.5-2.982-4.596-1.482-6.914c1.721-2.659,3.337-5.43,4.806-8.234c1.282-2.447,4.304-3.391,6.749-2.111       c2.446,1.281,3.391,4.302,2.11,6.749c-1.61,3.075-3.383,6.113-5.269,9.028C457.442,426.174,455.836,426.979,454.196,426.979z        M266.057,413.841c-1.884,0-3.688-1.07-4.535-2.89c-1.469-3.153-2.805-6.408-3.973-9.675c-0.93-2.601,0.425-5.462,3.025-6.392       c2.596-0.93,5.461,0.425,6.391,3.025c1.064,2.978,2.283,5.945,3.621,8.819c1.166,2.503,0.082,5.478-2.422,6.644       C267.481,413.69,266.764,413.841,266.057,413.841z M466.828,399.881c-0.485,0-0.979-0.071-1.467-0.221       c-2.641-0.809-4.125-3.605-3.315-6.246c0.927-3.024,1.725-6.131,2.372-9.234c0.562-2.703,3.204-4.44,5.915-3.874       c2.703,0.563,4.438,3.212,3.874,5.915c-0.709,3.402-1.584,6.808-2.601,10.124C470.947,398.497,468.967,399.881,466.828,399.881       z M257.289,385.255c-2.413,0-4.537-1.751-4.932-4.21c-0.548-3.423-0.945-6.916-1.18-10.381       c-0.188-2.755,1.895-5.14,4.649-5.327c2.77-0.187,5.141,1.896,5.327,4.65c0.215,3.163,0.577,6.352,1.078,9.477       c0.437,2.727-1.42,5.291-4.147,5.728C257.817,385.234,257.552,385.255,257.289,385.255z M471.579,370.365       c-0.039,0-0.078,0-0.117-0.001c-2.761-0.064-4.947-2.354-4.884-5.114c0.019-0.803,0.028-1.609,0.027-2.417       c0-2.378-0.08-4.772-0.238-7.121c-0.187-2.755,1.896-5.139,4.652-5.325c2.751-0.19,5.139,1.897,5.324,4.652       c0.174,2.572,0.262,5.192,0.262,7.788c0.001,0.884-0.009,1.771-0.029,2.655C476.513,368.202,474.287,370.365,471.579,370.365z        M255.897,355.334c-2.759,0-4.996-2.234-5-4.994l-0.013-10c-0.004-2.761,2.232-5.003,4.993-5.006c0.003,0,0.005,0,0.007,0       c2.759,0,4.996,2.234,5,4.994l0.013,10c0.004,2.761-2.232,5.003-4.994,5.006C255.901,355.334,255.899,355.334,255.897,355.334z        M468.196,340.662c-2.229,0-4.262-1.502-4.84-3.761c-0.785-3.066-1.723-6.133-2.787-9.116c-0.929-2.601,0.428-5.461,3.028-6.39       c2.602-0.928,5.462,0.427,6.39,3.028c1.168,3.271,2.196,6.635,3.057,9.998c0.685,2.675-0.929,5.399-3.604,6.083       C469.024,340.611,468.606,340.662,468.196,340.662z M255.858,325.334c-2.759,0-4.996-2.234-5-4.994l-0.013-10       c-0.004-2.761,2.232-5.003,4.994-5.006c0.002,0,0.004,0,0.006,0c2.759,0,4.996,2.234,5,4.994l0.013,10       c0.004,2.761-2.232,5.003-4.994,5.006C255.862,325.334,255.86,325.334,255.858,325.334z M456.86,312.998       c-1.722,0-3.396-0.89-4.325-2.484c-1.592-2.732-3.333-5.428-5.174-8.011c-1.604-2.249-1.079-5.371,1.169-6.974       c2.248-1.604,5.371-1.08,6.974,1.169c2.019,2.832,3.927,5.786,5.672,8.782c1.39,2.386,0.583,5.447-1.804,6.837       C458.581,312.778,457.715,312.998,456.86,312.998z M255.82,295.334c-2.759,0-4.996-2.234-5-4.994l-0.013-10       c-0.004-2.761,2.232-5.003,4.993-5.006c0.003,0,0.005,0,0.007,0c2.759,0,4.996,2.234,5,4.994l0.013,10       c0.004,2.761-2.232,5.003-4.994,5.006C255.824,295.334,255.822,295.334,255.82,295.334z M438.396,289.473       c-1.25,0-2.501-0.466-3.472-1.403c-2.279-2.201-4.688-4.32-7.157-6.299c-2.154-1.727-2.502-4.874-0.774-7.029       s4.874-2.5,7.028-0.775c2.708,2.17,5.349,4.495,7.849,6.908c1.986,1.918,2.043,5.083,0.125,7.07       C441.013,288.961,439.705,289.473,438.396,289.473z M414.225,271.874c-0.795,0-1.602-0.19-2.352-0.59       c-2.792-1.491-5.687-2.867-8.603-4.09c-2.547-1.068-3.745-3.998-2.678-6.544c1.069-2.546,3.998-3.746,6.545-2.677       c3.202,1.343,6.381,2.854,9.446,4.491c2.436,1.301,3.355,4.33,2.055,6.766C417.739,270.914,416.011,271.874,414.225,271.874z        M386.155,261.622c-0.345,0-0.693-0.036-1.044-0.11c-3.09-0.656-6.252-1.175-9.4-1.542c-2.742-0.319-4.707-2.802-4.388-5.545       c0.32-2.742,2.787-4.708,5.546-4.388c3.455,0.402,6.928,0.972,10.32,1.693c2.701,0.574,4.426,3.229,3.852,5.93       C390.542,260.01,388.466,261.622,386.155,261.622z M356.323,259.269c-0.002,0-0.004,0-0.006,0l-10-0.013       c-2.762-0.003-4.998-2.245-4.994-5.006c0.004-2.759,2.241-4.994,5-4.994c0.002,0,0.004,0,0.006,0l10,0.013       c2.762,0.003,4.998,2.245,4.994,5.006C361.319,257.034,359.082,259.269,356.323,259.269z M326.323,259.229       c-0.002,0-0.004,0-0.006,0l-10-0.013c-2.762-0.003-4.998-2.245-4.994-5.006c0.004-2.759,2.241-4.994,5-4.994       c0.002,0,0.004,0,0.006,0l10,0.013c2.762,0.003,4.998,2.245,4.994,5.006C331.319,256.995,329.082,259.229,326.323,259.229z        M296.323,259.19c-0.002,0-0.004,0-0.006,0l-10-0.013c-2.762-0.003-4.998-2.245-4.994-5.006c0.004-2.759,2.241-4.994,5-4.994       c0.002,0,0.004,0,0.006,0l10,0.013c2.762,0.003,4.998,2.245,4.994,5.006C301.319,256.956,299.082,259.19,296.323,259.19z        M266.323,259.152c-0.002,0-0.004,0-0.007,0l-10-0.013c-2.761-0.003-4.997-2.245-4.993-5.007c0.004-2.759,2.242-4.993,5-4.993       c0.002,0,0.004,0,0.007,0l10,0.013c2.761,0.003,4.997,2.245,4.993,5.006C271.319,256.917,269.082,259.152,266.323,259.152z        M236.323,259.113c-0.002,0-0.004,0-0.007,0l-10-0.013c-2.761-0.003-4.997-2.245-4.993-5.006c0.004-2.759,2.241-4.994,5-4.994       c0.002,0,0.004,0,0.007,0l10,0.013c2.761,0.003,4.997,2.245,4.993,5.006C241.319,256.878,239.082,259.113,236.323,259.113z        M206.323,259.074c-0.002,0-0.004,0-0.007,0l-10-0.013c-2.761-0.003-4.997-2.245-4.993-5.006c0.004-2.759,2.241-4.994,5-4.994       c0.002,0,0.004,0,0.007,0l10,0.013c2.761,0.003,4.997,2.245,4.993,5.006C211.319,256.839,209.082,259.074,206.323,259.074z        M176.323,259.035c-0.002,0-0.004,0-0.007,0l-10-0.013c-2.761-0.003-4.997-2.245-4.993-5.006c0.004-2.759,2.241-4.994,5-4.994       c0.002,0,0.004,0,0.007,0l10,0.013c2.761,0.003,4.997,2.245,4.993,5.006C181.319,256.8,179.082,259.035,176.323,259.035z        M146.324,258.988c-0.022,0-0.045,0-0.067,0c-3.48-0.046-6.991-0.255-10.437-0.621c-2.746-0.292-4.735-2.754-4.443-5.5       s2.757-4.732,5.5-4.444c3.139,0.333,6.34,0.524,9.513,0.566c2.762,0.037,4.97,2.305,4.934,5.066       C151.286,256.793,149.055,258.988,146.324,258.988z M116.782,254.445c-0.479,0-0.964-0.069-1.445-0.214       c-3.327-1.003-6.647-2.177-9.867-3.489c-2.557-1.042-3.785-3.959-2.744-6.517c1.041-2.557,3.956-3.788,6.518-2.744       c2.931,1.194,5.952,2.262,8.98,3.176c2.645,0.797,4.141,3.587,3.344,6.231C120.915,253.05,118.93,254.445,116.782,254.445z        M89.641,241.888c-0.929,0-1.868-0.258-2.707-0.8c-2.913-1.881-5.777-3.923-8.514-6.071c-2.172-1.705-2.55-4.848-0.845-7.02       c1.706-2.173,4.85-2.549,7.021-0.846c2.494,1.958,5.105,3.821,7.762,5.536c2.32,1.498,2.986,4.593,1.488,6.913       C92.89,241.081,91.282,241.888,89.641,241.888z M67.004,222.361c-1.388,0-2.769-0.574-3.757-1.698       c-2.293-2.608-4.492-5.353-6.535-8.158c-1.626-2.232-1.135-5.359,1.097-6.985c2.231-1.625,5.359-1.135,6.985,1.098       c1.864,2.559,3.871,5.063,5.963,7.442c1.823,2.074,1.62,5.233-0.453,7.057C69.354,221.951,68.177,222.361,67.004,222.361z        M255.726,221.844c-2.759,0-4.996-2.234-5-4.994l-0.013-10c-0.004-2.761,2.232-5.003,4.993-5.006c0.003,0,0.005,0,0.007,0       c2.759,0,4.996,2.234,5,4.994l0.013,10c0.004,2.761-2.232,5.003-4.994,5.006C255.729,221.844,255.728,221.844,255.726,221.844z        M50.534,197.413c-1.867,0-3.658-1.05-4.516-2.847c-1.497-3.136-2.865-6.376-4.064-9.63c-0.955-2.591,0.371-5.466,2.962-6.421       c2.592-0.955,5.465,0.372,6.421,2.962c1.094,2.967,2.341,5.921,3.705,8.78c1.19,2.492,0.135,5.477-2.357,6.667       C51.989,197.256,51.256,197.413,50.534,197.413z M255.688,191.844c-2.759,0-4.996-2.234-5-4.994l-0.013-10       c-0.004-2.761,2.232-5.003,4.993-5.006c0.003,0,0.005,0,0.007,0c2.759,0,4.996,2.234,5,4.994l0.013,10       c0.004,2.761-2.232,5.003-4.993,5.006C255.691,191.844,255.689,191.844,255.688,191.844z M41.491,168.917       c-2.394,0-4.508-1.724-4.923-4.162c-0.581-3.411-1.012-6.9-1.281-10.37c-0.213-2.753,1.846-5.158,4.599-5.371       c2.761-0.22,5.158,1.845,5.372,4.599c0.245,3.167,0.639,6.352,1.168,9.465c0.464,2.722-1.367,5.305-4.09,5.768       C42.053,168.894,41.77,168.917,41.491,168.917z M255.649,161.844c-2.759,0-4.996-2.234-5-4.994l-0.013-10       c-0.004-2.761,2.232-5.003,4.994-5.006c0.002,0,0.004,0,0.006,0c2.759,0,4.996,2.234,5,4.994l0.013,10       c0.004,2.761-2.232,5.003-4.993,5.006C255.653,161.844,255.651,161.844,255.649,161.844z M40.538,139.034       c-0.173,0-0.347-0.009-0.521-0.027c-2.747-0.285-4.743-2.743-4.458-5.489c0.358-3.455,0.882-6.932,1.555-10.336       c0.537-2.708,3.167-4.472,5.875-3.935c2.709,0.536,4.471,3.166,3.936,5.875c-0.614,3.104-1.091,6.276-1.418,9.428       C45.238,137.121,43.067,139.034,40.538,139.034z M254.065,131.939c-2.393,0-4.507-1.722-4.923-4.16       c-0.532-3.119-1.217-6.252-2.034-9.313c-0.713-2.668,0.872-5.408,3.539-6.121c2.673-0.711,5.409,0.872,6.122,3.54       c0.896,3.356,1.646,6.792,2.23,10.212c0.465,2.722-1.365,5.306-4.088,5.77C254.628,131.915,254.345,131.939,254.065,131.939z        M47.675,110.007c-0.616,0-1.243-0.115-1.852-0.357c-2.564-1.023-3.813-3.933-2.79-6.497c1.288-3.229,2.742-6.433,4.32-9.524       c1.257-2.46,4.27-3.435,6.728-2.178c2.459,1.256,3.435,4.268,2.179,6.727c-1.439,2.818-2.765,5.739-3.939,8.682       C51.54,108.815,49.661,110.007,47.675,110.007z M245.029,103.445c-1.866,0-3.657-1.049-4.516-2.845       c-1.364-2.854-2.879-5.681-4.502-8.4c-1.416-2.371-0.641-5.441,1.73-6.856c2.371-1.414,5.441-0.64,6.855,1.73       c1.781,2.983,3.442,6.083,4.939,9.215c1.19,2.491,0.136,5.477-2.355,6.667C246.485,103.288,245.752,103.445,245.029,103.445z        M62.48,84.027c-1.064,0-2.137-0.338-3.046-1.038c-2.188-1.685-2.597-4.824-0.912-7.012c2.116-2.75,4.388-5.436,6.75-7.983       c1.878-2.024,5.041-2.143,7.066-0.266c2.024,1.878,2.144,5.042,0.266,7.066c-2.155,2.323-4.227,4.773-6.158,7.282       C65.462,83.356,63.979,84.027,62.48,84.027z M228.544,78.501c-1.387,0-2.768-0.574-3.756-1.697       c-2.091-2.376-4.318-4.685-6.621-6.862c-2.007-1.897-2.096-5.062-0.199-7.068c1.897-2.005,5.062-2.095,7.068-0.198       c2.524,2.386,4.967,4.917,7.26,7.522c1.824,2.073,1.622,5.232-0.45,7.057C230.896,78.091,229.717,78.501,228.544,78.501z        M83.808,63.062c-1.528,0-3.036-0.698-4.018-2.019c-1.646-2.216-1.185-5.349,1.032-6.995c2.791-2.074,5.71-4.04,8.673-5.842       c2.364-1.436,5.438-0.685,6.87,1.674c1.436,2.359,0.686,5.435-1.674,6.87c-2.701,1.643-5.361,3.435-7.906,5.325       C85.89,62.741,84.844,63.062,83.808,63.062z M205.885,58.987c-0.929,0-1.867-0.258-2.706-0.799       c-2.659-1.716-5.431-3.327-8.239-4.788c-2.45-1.274-3.402-4.293-2.128-6.743s4.293-3.402,6.743-2.128       c3.083,1.604,6.126,3.372,9.046,5.255c2.32,1.497,2.987,4.592,1.49,6.912C209.135,58.179,207.526,58.987,205.885,58.987z        M110.041,48.739c-2.023,0-3.927-1.236-4.681-3.242c-0.973-2.584,0.335-5.468,2.92-6.44c3.254-1.224,6.603-2.307,9.953-3.22       c2.671-0.725,5.413,0.846,6.139,3.51c0.726,2.665-0.846,5.413-3.51,6.139c-3.051,0.831-6.1,1.817-9.062,2.932       C111.221,48.636,110.626,48.739,110.041,48.739z M178.751,46.443c-0.478,0-0.963-0.069-1.444-0.214       c-3.025-0.912-6.133-1.69-9.236-2.315c-2.707-0.545-4.46-3.181-3.915-5.889c0.544-2.707,3.178-4.459,5.888-3.915       c3.41,0.687,6.824,1.542,10.148,2.543c2.644,0.797,4.142,3.586,3.345,6.23C182.885,45.047,180.899,46.443,178.751,46.443z        M139.211,42.24c-2.582,0-4.771-1.988-4.979-4.606c-0.218-2.753,1.838-5.161,4.59-5.378c2.963-0.234,5.974-0.353,8.949-0.353       c0.479,0.014,1,0.003,1.501,0.01c2.761,0.037,4.97,2.306,4.933,5.067c-0.037,2.738-2.269,4.933-4.999,4.933       c-0.022,0-0.045,0-0.068,0c-0.45-0.006-0.899-0.009-1.35-0.009c-0.005,0-0.01,0-0.015,0c-2.715,0-5.461,0.108-8.162,0.322       C139.477,42.235,139.344,42.24,139.211,42.24z" fill="#3F456B"/></g></g></g><g><g><g><g><path d="M304.318,75.336c-0.768,0-1.525-0.353-2.016-1.019c-0.818-1.112-0.58-2.677,0.532-3.495l64-47.092        c1.11-0.817,2.676-0.581,3.495,0.532c0.818,1.112,0.58,2.677-0.532,3.495l-64,47.092        C305.352,75.178,304.833,75.336,304.318,75.336z" fill="#3F456B"/></g></g></g><g><g><g><path d="M333.908,72.134c-0.768,0-1.525-0.353-2.016-1.019c-0.818-1.112-0.58-2.677,0.532-3.495l34.658-25.501        c1.111-0.818,2.676-0.581,3.495,0.532c0.818,1.112,0.58,2.677-0.532,3.495l-34.658,25.501        C334.941,71.976,334.423,72.134,333.908,72.134z" fill="#3F456B"/></g></g></g><g><g><g><path d="M304.632,57.968c-0.768,0-1.525-0.353-2.016-1.019c-0.818-1.112-0.58-2.677,0.532-3.495l39.892-29.353        c1.111-0.818,2.676-0.581,3.495,0.532c0.818,1.112,0.58,2.677-0.532,3.495l-39.892,29.353        C305.665,57.81,305.146,57.968,304.632,57.968z" fill="#3F456B"/></g></g></g></g><g><g><g><g><path d="M432.901,85.601c-0.768,0-1.525-0.353-2.016-1.019c-0.818-1.112-0.58-2.677,0.532-3.495l64-47.092        c1.111-0.818,2.676-0.581,3.495,0.532c0.818,1.112,0.58,2.677-0.532,3.495l-64,47.092        C433.935,85.443,433.416,85.601,432.901,85.601z" fill="#3F456B"/></g></g></g><g><g><g><path d="M462.492,82.399c-0.768,0-1.525-0.353-2.016-1.019c-0.818-1.112-0.58-2.677,0.532-3.495l34.657-25.501        c1.11-0.818,2.676-0.581,3.495,0.532c0.818,1.112,0.58,2.677-0.532,3.495l-34.657,25.501        C463.525,82.241,463.007,82.399,462.492,82.399z" fill="#3F456B"/></g></g></g><g><g><g><path d="M433.215,68.233c-0.768,0-1.525-0.353-2.016-1.019c-0.818-1.112-0.58-2.677,0.532-3.495l39.892-29.353        c1.111-0.818,2.676-0.581,3.495,0.532c0.818,1.112,0.58,2.677-0.532,3.495l-39.892,29.353        C434.248,68.075,433.729,68.233,433.215,68.233z" fill="#3F456B"/></g></g></g></g><g><g><g><g><path d="M432.901,170.641c-0.768,0-1.525-0.353-2.016-1.019c-0.818-1.112-0.58-2.677,0.532-3.495l64-47.092        c1.111-0.818,2.676-0.581,3.495,0.532c0.818,1.112,0.58,2.677-0.532,3.495l-64,47.092        C433.935,170.483,433.416,170.641,432.901,170.641z" fill="#3F456B"/></g></g></g><g><g><g><path d="M462.492,167.439c-0.768,0-1.525-0.353-2.016-1.019c-0.818-1.112-0.58-2.677,0.532-3.495        l34.657-25.501c1.11-0.818,2.676-0.581,3.495,0.532c0.818,1.112,0.58,2.677-0.532,3.495l-34.657,25.501        C463.525,167.281,463.007,167.439,462.492,167.439z" fill="#3F456B"/></g></g></g><g><g><g><path d="M433.215,153.273c-0.768,0-1.525-0.353-2.016-1.019c-0.818-1.112-0.58-2.677,0.532-3.495        l39.892-29.353c1.111-0.818,2.676-0.581,3.495,0.532c0.818,1.112,0.58,2.677-0.532,3.495l-39.892,29.353        C434.248,153.115,433.729,153.273,433.215,153.273z" fill="#3F456B"/></g></g></g></g><g><g><g><g><path d="M366.938,113.591c-0.973,0-1.898-0.572-2.303-1.524c-0.539-1.271,0.055-2.739,1.325-3.278        L431.923,80.8c1.269-0.538,2.739,0.053,3.278,1.325c0.539,1.271-0.055,2.739-1.325,3.278l-65.963,27.989        C367.595,113.527,367.264,113.591,366.938,113.591z" fill="#3F456B"/></g></g></g><g><g><g><path d="M395.381,119.004c-0.964,0-1.883-0.561-2.293-1.501c-0.552-1.266,0.027-2.739,1.293-3.291L431.9,97.85        c1.266-0.552,2.738,0.026,3.291,1.292c0.552,1.266-0.027,2.739-1.293,3.291l-37.52,16.362        C396.054,118.937,395.715,119.004,395.381,119.004z" fill="#3F456B"/></g></g></g><g><g><g><path d="M367.266,96.612c-0.974,0-1.898-0.572-2.303-1.524c-0.539-1.271,0.055-2.739,1.326-3.278        l39.513-16.756c1.271-0.539,2.737,0.055,3.277,1.326c0.539,1.271-0.055,2.739-1.326,3.278L368.24,96.413        C367.922,96.548,367.591,96.612,367.266,96.612z" fill="#3F456B"/></g></g></g></g><g><g><g><g><path d="M304.318,162.262c-0.768,0-1.525-0.353-2.016-1.019c-0.818-1.112-0.58-2.677,0.532-3.495l64-47.092        c1.11-0.818,2.676-0.581,3.495,0.532c0.818,1.112,0.58,2.677-0.532,3.495l-64,47.092        C305.352,162.104,304.833,162.262,304.318,162.262z" fill="#3F456B"/></g></g></g><g><g><g><path d="M333.908,159.06c-0.768,0-1.525-0.353-2.016-1.019c-0.818-1.112-0.58-2.677,0.532-3.495l34.658-25.501        c1.111-0.818,2.676-0.581,3.495,0.532c0.818,1.112,0.58,2.677-0.532,3.495l-34.658,25.501        C334.941,158.902,334.423,159.06,333.908,159.06z" fill="#3F456B"/></g></g></g><g><g><g><path d="M304.632,144.895c-0.768,0-1.525-0.353-2.016-1.019c-0.818-1.112-0.58-2.677,0.532-3.495        l39.892-29.353c1.111-0.817,2.676-0.581,3.495,0.532c0.818,1.112,0.58,2.677-0.532,3.495l-39.892,29.353        C305.665,144.736,305.146,144.895,304.632,144.895z" fill="#3F456B"/></g></g></g></g><g><g><g><path d="M486.14,268.2c-1.479-2.33-0.8-5.42,1.53-6.9l0,0c2.33-1.49,5.42-0.8,6.899,1.53l0,0       c1.49,2.32,0.801,5.42-1.52,6.9l0,0c-0.84,0.53-1.771,0.79-2.69,0.79l0,0C488.71,270.52,487.1,269.7,486.14,268.2z        M474.55,252.99c-1.85-2.04-1.69-5.21,0.36-7.06l0,0c2.04-1.85,5.199-1.69,7.06,0.35l0,0c1.85,2.05,1.69,5.21-0.35,7.06l0,0       c-0.96,0.87-2.16,1.3-3.36,1.3l0,0C476.899,254.64,475.54,254.08,474.55,252.99z M460.569,239.96       c-2.17-1.71-2.55-4.85-0.85-7.02l0,0c1.71-2.17,4.85-2.55,7.021-0.85l0,0c0,0,0,0,0.01,0l0,0c2.17,1.71,2.54,4.85,0.84,7.03       l0,0c-0.99,1.25-2.46,1.91-3.94,1.91l0,0C462.569,241.03,461.479,240.68,460.569,239.96z M444.569,229.37       c-2.409-1.34-3.279-4.38-1.949-6.8l0,0c1.34-2.41,4.39-3.29,6.8-1.95l0,0c2.42,1.34,3.29,4.38,1.95,6.8l0,0       c-0.91,1.65-2.62,2.57-4.38,2.57l0,0C446.17,229.99,445.34,229.79,444.569,229.37z M427.08,221.31       c-2.59-0.97-3.891-3.86-2.92-6.44l0,0c0.97-2.59,3.859-3.89,6.439-2.92l0,0l0,0l0,0c2.58,0.97,3.891,3.86,2.92,6.44l0,0       c-0.75,2-2.66,3.24-4.68,3.24l0,0C428.25,221.63,427.66,221.53,427.08,221.31z M408.56,215.75c-2.689-0.62-4.37-3.31-3.75-5.99       l0,0c0.61-2.7,3.3-4.38,5.99-3.76l0,0l0,0l0,0c2.69,0.62,4.37,3.3,3.76,5.99l0,0c-0.54,2.32-2.59,3.88-4.87,3.88l0,0       C409.319,215.87,408.939,215.83,408.56,215.75z M389.49,212.71c-2.75-0.24-4.801-2.66-4.561-5.41l0,0       c0.23-2.75,2.65-4.79,5.41-4.56l0,0c2.75,0.24,4.79,2.66,4.55,5.41l0,0c-0.22,2.61-2.41,4.58-4.97,4.58l0,0       C389.77,212.73,389.63,212.72,389.49,212.71z M364.88,207.4c0-2.76,2.24-5,5-5l0,0c2.76,0,5,2.24,5,5l0,0c0,2.76-2.24,5-5,5       l0,0C367.12,212.4,364.88,210.16,364.88,207.4z M344.88,207.4c0-2.76,2.24-5,5-5l0,0c2.77,0,5,2.24,5,5l0,0c0,2.76-2.23,5-5,5       l0,0C347.12,212.4,344.88,210.16,344.88,207.4z M324.89,207.4c0-2.76,2.23-5,5-5l0,0c2.76,0,4.99,2.24,4.99,5l0,0       c0,2.76-2.23,5-4.99,5l0,0C327.12,212.4,324.89,210.16,324.89,207.4z" fill="#3F456B"/></g></g></g><g><g><g><path d="M120.276,324.652c-2.762,0-5-2.239-5-5v-15.239c0-2.761,2.238-5,5-5s5,2.239,5,5v15.239       C125.276,322.414,123.038,324.652,120.276,324.652z" fill="#3F456B"/></g></g></g><g><g><g><path d="M150.456,324.652c-2.762,0-5-2.239-5-5v-15.239c0-2.761,2.238-5,5-5s5,2.239,5,5v15.239       C155.456,322.414,153.218,324.652,150.456,324.652z" fill="#3F456B"/></g></g></g><g><g><g><path d="M179.218,324.652c-2.762,0-5-2.239-5-5v-15.239c0-2.761,2.238-5,5-5s5,2.239,5,5v15.239       C184.218,322.414,181.979,324.652,179.218,324.652z" fill="#3F456B"/></g></g></g><g><g><g><path d="M62.551,324.652c-2.762,0-5-2.239-5-5v-15.239c0-2.761,2.238-5,5-5s5,2.239,5,5v15.239       C67.551,322.414,65.312,324.652,62.551,324.652z" fill="#3F456B"/></g></g></g><g><g><g><path d="M91.312,324.652c-2.762,0-5-2.239-5-5v-15.239c0-2.761,2.238-5,5-5s5,2.239,5,5v15.239       C96.312,322.414,94.074,324.652,91.312,324.652z" fill="#3F456B"/></g></g></g><g><g><g><path d="M127.067,175.151c-1.279,0-2.56-0.488-3.535-1.464c-1.953-1.953-1.953-5.119,0-7.071l44.998-44.998       c1.951-1.952,5.119-1.952,7.07,0c1.953,1.953,1.953,5.119,0,7.071l-44.998,44.998       C129.627,174.663,128.347,175.151,127.067,175.151z" fill="#3F456B"/></g></g></g><g><g><g><path d="M118.212,148.233c-1.279,0-2.56-0.488-3.535-1.464c-1.953-1.953-1.953-5.119,0-7.071l26.936-26.935       c1.951-1.952,5.119-1.952,7.07,0c1.953,1.953,1.953,5.119,0,7.071l-26.936,26.935       C120.771,147.745,119.491,148.233,118.212,148.233z" fill="#3F456B"/></g></g></g><g><g><g><path d="M153.985,184.006c-1.279,0-2.56-0.488-3.535-1.464c-1.953-1.953-1.953-5.119,0-7.071l26.935-26.935       c1.951-1.952,5.119-1.952,7.07,0c1.953,1.953,1.953,5.119,0,7.071l-26.935,26.935       C156.545,183.518,155.265,184.006,153.985,184.006z" fill="#3F456B"/></g></g></g><g><g><g><path d="M342.567,390.651c-1.279,0-2.56-0.488-3.535-1.464c-1.953-1.953-1.953-5.119,0-7.071l44.998-44.998       c1.951-1.952,5.119-1.952,7.07,0c1.953,1.953,1.953,5.119,0,7.071l-44.998,44.998       C345.127,390.163,343.847,390.651,342.567,390.651z" fill="#3F456B"/></g></g></g><g><g><g><path d="M333.712,363.733c-1.279,0-2.56-0.488-3.535-1.464c-1.953-1.953-1.953-5.119,0-7.071l26.936-26.935       c1.951-1.952,5.119-1.952,7.07,0c1.953,1.953,1.953,5.119,0,7.071l-26.936,26.935       C336.271,363.245,334.991,363.733,333.712,363.733z" fill="#3F456B"/></g></g></g><g><g><g><path d="M369.485,399.506c-1.279,0-2.56-0.488-3.535-1.464c-1.953-1.953-1.953-5.119,0-7.071l26.935-26.935       c1.951-1.952,5.119-1.952,7.07,0c1.953,1.953,1.953,5.119,0,7.071l-26.935,26.935       C372.045,399.018,370.765,399.506,369.485,399.506z" fill="#3F456B"/></g></g></g></g></g></svg>