<?xml version="1.0" ?><svg id="Lines" viewBox="0 0 512 512" xmlns="http://www.w3.org/2000/svg"><defs><style>.cls-1{fill:#3f456b;}</style></defs><title/><path class="cls-1" d="M464.19,488.57A21.81,21.81,0,1,1,486,466.76,21.83,21.83,0,0,1,464.19,488.57Zm0-33.62A11.81,11.81,0,1,0,476,466.76,11.83,11.83,0,0,0,464.19,455Z"/><path class="cls-1" d="M76.19,95.62A32.81,32.81,0,1,1,109,62.81,32.85,32.85,0,0,1,76.19,95.62Zm0-55.62A22.81,22.81,0,1,0,99,62.81,22.83,22.83,0,0,0,76.19,40Z"/><path class="cls-1" d="M256.86,467A212.75,212.75,0,0,1,106.42,103.81,211.36,211.36,0,0,1,256.86,41.5c41.61,0,86.43,14.35,123,39.37a5,5,0,0,1-5.66,8.26C339.26,65.21,296.5,51.5,256.86,51.5c-111.8,0-202.75,90.95-202.75,202.75S145.06,457,256.86,457,459.6,366.05,459.6,254.25A202.15,202.15,0,0,0,406.09,117a5,5,0,1,1,7.36-6.77,212.13,212.13,0,0,1,56.15,144C469.6,371.56,374.17,467,256.86,467Z"/><path class="cls-1" d="M169.91,360.64a68.07,68.07,0,0,1-14.8-1.7c-22.85-5.11-39.44-26.91-39.44-51.85a53.52,53.52,0,1,1,97.23,31A47.43,47.43,0,0,1,199.23,352,51.72,51.72,0,0,1,169.91,360.64Zm-.72-97.28a43.67,43.67,0,0,0-43.52,43.73c0,20.3,13.3,38,31.62,42.09h0A58.63,58.63,0,0,0,170,350.65c23.84,0,33.9-16.9,34.38-17.74.08-.14.18-.29.27-.42a43.78,43.78,0,0,0-35.43-69.13Z"/><path class="cls-1" d="M79.76,201.26a20.36,20.36,0,0,1-13.69-5.08c-9-8-9-22.58-.15-32.53a25.5,25.5,0,0,1,15.8-8.49,20.59,20.59,0,0,1,16.53,4.92h0c9,8,9,22.58.16,32.53A25.23,25.23,0,0,1,79.76,201.26ZM84.56,165a12.38,12.38,0,0,0-1.6.1,15.55,15.55,0,0,0-9.58,5.22c-5.2,5.84-5.5,14.1-.65,18.42s13,3.07,18.21-2.76,5.5-14.1.66-18.42A10.47,10.47,0,0,0,84.56,165Z"/><path class="cls-1" d="M307.22,180.55a36.09,36.09,0,0,1-19.78-5.94c-11.33-7.45-16.66-20.44-13.25-32.34,4.41-15.39,21.87-23.94,38.93-19.05,10.65,3,19,10.72,22.22,20.53a27.59,27.59,0,0,1-4.29,25.74,27,27,0,0,1-2.39,2.73A30.19,30.19,0,0,1,307.22,180.55Zm-3.85-48.71c-9.17,0-17.25,5.11-19.57,13.18-2.19,7.67,1.48,16.2,9.13,21.24,9.3,6.11,21.9,5.61,28.68-1.14h0a14.74,14.74,0,0,0,1.47-1.68,17.72,17.72,0,0,0,2.77-16.54c-2.22-6.67-8-11.93-15.48-14.07A25.55,25.55,0,0,0,303.37,131.84Z"/><path class="cls-1" d="M411.49,280.32a25.86,25.86,0,0,1-12.57-3.27A26.32,26.32,0,0,1,386,258.92a34,34,0,0,1,3.79-23.31c4.87-8.79,13.43-15.47,22.35-17.42a22.15,22.15,0,0,1,18.16,3.5h0c13.15,9.66,16.35,27.43,7.61,42.26C431.73,274.42,421.62,280.32,411.49,280.32Zm6.05-52.73a15.36,15.36,0,0,0-3.27.36c-6.19,1.36-12.22,6.15-15.74,12.5a24,24,0,0,0-2.75,16.44,16.47,16.47,0,0,0,8,11.41c8.57,4.75,19.55.7,25.52-9.43,6.07-10.31,4-22.56-4.92-29.12A11.29,11.29,0,0,0,417.54,227.59Z"/><path class="cls-1" d="M306.4,430.71c-12.33,0-23.17-6.36-26.63-16.81-4.54-13.73,5.32-29.38,22-34.9s33.92,1.16,38.46,14.88-5.31,29.37-22,34.89A37.62,37.62,0,0,1,306.4,430.71ZM313.75,387a28,28,0,0,0-8.85,1.46c-11.43,3.78-18.44,13.77-15.63,22.25s14.39,12.31,25.82,8.53,18.44-13.77,15.63-22.26C328.65,390.76,321.79,387,313.75,387Z"/><path class="cls-1" d="M114.92,406.77a5,5,0,0,1-3.39-8.67,17.1,17.1,0,1,0-23.17-25.16,5,5,0,1,1-6.78-7.35,27.1,27.1,0,0,1,36.73,39.86A5,5,0,0,1,114.92,406.77Z"/><path class="cls-1" d="M207.73,282.49a5,5,0,0,1-3-9L216,265a5,5,0,0,1,6,8l-11.27,8.49A5,5,0,0,1,207.73,282.49Z"/><path class="cls-1" d="M165.1,263.53a5,5,0,0,1-4.63-6.88c.06-.14,3.68-9.33,5.56-27.17a5,5,0,1,1,9.94,1c-2.05,19.49-6.06,29.49-6.23,29.9A5,5,0,0,1,165.1,263.53Z"/><path class="cls-1" d="M219,377a5,5,0,0,1-4.47-2.76,66.25,66.25,0,0,0-19.17-22.9,5,5,0,0,1,5.66-8.25,76,76,0,0,1,22.45,26.67A5,5,0,0,1,219,377Z"/><path class="cls-1" d="M137,373a5,5,0,0,1-3.8-8.25c5.24-6.11,8.27-15.68,8.3-15.77a5,5,0,0,1,9.55,3c-.15.47-3.66,11.61-10.25,19.3A5,5,0,0,1,137,373Z"/><path class="cls-1" d="M256,320a4.87,4.87,0,0,1-1.78-.33c-19.14-7.29-35-2.37-35.13-2.32a5,5,0,1,1-3.05-9.52c.78-.25,19.36-6,41.74,2.5A5,5,0,0,1,256,320Z"/><path class="cls-1" d="M323.05,139.07l-.08-10h-.13c.28,0,7.07-.56,15.2-11.13a5,5,0,0,1,7.92,6.1C334.8,138.56,324.22,139.06,323.05,139.07Z"/><path class="cls-1" d="M275,189a5,5,0,0,1-1.92-9.62,12.14,12.14,0,0,0,7.79-12,5,5,0,1,1,9.95-.91,22.28,22.28,0,0,1-13.9,22.16A5,5,0,0,1,275,189Z"/><path class="cls-1" d="M333,198a5,5,0,0,1-5-5c0-10.43-8.19-17.84-8.27-17.91a5,5,0,1,1,6.56-7.55C326.77,168,338,177.89,338,193A5,5,0,0,1,333,198Z"/><path class="cls-1" d="M380,287a5,5,0,0,1-3.54-8.54c11.71-11.7,30.61-8.52,31.41-8.38a5,5,0,0,1-1.73,9.85c-.22,0-14.63-2.37-22.6,5.61A5,5,0,0,1,380,287Z"/><path class="cls-1" d="M403.13,232.78a5,5,0,0,1-3.06-1.05c-13.59-10.56-14.06-24-14.07-24.61a5,5,0,0,1,10-.28c0,.47.57,9.5,10.2,17a5,5,0,0,1-3.07,8.95Z"/><path class="cls-1" d="M197,99a5.22,5.22,0,0,1-1.1-.12,5,5,0,0,1-3.79-5.92c.19-.84,4.74-20.53,28-23.94,22.51-3.29,34.08,9.11,34.56,9.64a5,5,0,0,1-7.4,6.72c-.32-.33-8.69-9-25.71-6.47C205.29,81.28,202,94.54,201.88,95.1A5,5,0,0,1,197,99Z"/><path class="cls-1" d="M383.5,375.48a26,26,0,0,1-6.88-.83,5,5,0,0,1,2.81-9.6c.53.15,11.32,2.93,20.9-7.44s3-24.77,2.92-24.91a5,5,0,0,1,9-4.27c.4.84,9.51,20.66-4.62,36C399.15,373.62,389.71,375.48,383.5,375.48Z"/><path class="cls-1" d="M407,132a5,5,0,0,1-4.84-6.26,35.78,35.78,0,0,0,.58-11.52c-.89-7.93-4.43-14-10.51-18.06a39,39,0,0,0-31.65-5.42,5,5,0,0,1-3.16-9.48,48.88,48.88,0,0,1,40.35,6.58c20.73,13.82,14.35,39.34,14.07,40.42A5,5,0,0,1,407,132Z"/></svg>