<?xml version="1.0" ?><svg enable-background="new 0 0 512 512" version="1.1" viewBox="0 0 512 512" xml:space="preserve" xmlns="http://www.w3.org/2000/svg" xmlns:xlink="http://www.w3.org/1999/xlink"><g id="Colors"><g><g><path d="M257.011,500.476c-51.298,0-93.032-41.733-93.032-93.031c0-51.297,41.734-93.03,93.032-93.03     c51.297,0,93.03,41.733,93.03,93.03C350.041,458.742,308.308,500.476,257.011,500.476z M257.011,324.414     c-45.784,0-83.032,37.247-83.032,83.03s37.248,83.031,83.032,83.031c45.783,0,83.03-37.248,83.03-83.031     S302.794,324.414,257.011,324.414z" fill="#3F456B"/></g></g><g><g><path d="M257.011,479.788c-39.891,0-72.344-32.453-72.344-72.344s32.453-72.344,72.344-72.344     c39.89,0,72.343,32.453,72.343,72.344S296.9,479.788,257.011,479.788z M257.011,345.101c-34.376,0-62.344,27.967-62.344,62.344     s27.968,62.344,62.344,62.344s62.343-27.967,62.343-62.344S291.387,345.101,257.011,345.101z" fill="#3F456B"/></g></g><g><g><path d="M258.095,445.119c-2.762,0-5-2.238-5-5v-60.495l-5.688,2.875c-2.466,1.247-5.473,0.258-6.718-2.206     c-1.246-2.465-0.258-5.473,2.206-6.718l12.944-6.543c1.549-0.784,3.396-0.709,4.875,0.203c1.479,0.909,2.381,2.522,2.381,4.259     v68.625C263.095,442.881,260.856,445.119,258.095,445.119z" fill="#3F456B"/></g></g><g><g><path d="M269.057,445.119h-21.923c-2.762,0-5-2.238-5-5s2.238-5,5-5h21.923c2.762,0,5,2.238,5,5     S271.818,445.119,269.057,445.119z" fill="#3F456B"/></g></g><g><g><path d="M292.708,307.032L292.708,307.032c-1.691,0-3.269-0.855-4.191-2.273l-34.628-53.228     c-0.475-0.482-0.837-1.048-1.078-1.657L101.784,17.727c-1-1.537-1.079-3.498-0.204-5.11S104.141,10,105.975,10h302.912     c0.078-0.002,0.161-0.002,0.241,0c1.807,0.025,3.462,1.024,4.326,2.616c0.183,0.337,0.324,0.689,0.424,1.051l28.211,63.756     c0.685,1.546,0.541,3.333-0.381,4.75L296.899,304.759C295.977,306.177,294.399,307.032,292.708,307.032z M263.481,247.938     l29.227,44.925l139.14-213.872l-23.663-53.479L263.481,247.938z M115.192,20l142.324,218.77L399.841,20H115.192z" fill="#3F456B"/></g></g><g><g><path d="M222.324,307.032c-1.689,0-3.265-0.853-4.188-2.268L72.901,82.179c-1.509-2.312-0.857-5.411,1.455-6.92     c2.314-1.507,5.411-0.856,6.92,1.455l143.755,220.317L292.998,297c0,0,0.001,0,0.002,0c2.761,0,4.999,2.237,5,4.998     s-2.236,5.001-4.998,5.002l-70.676,0.032C222.326,307.032,222.325,307.032,222.324,307.032z" fill="#3F456B"/></g></g><g><g><path d="M258.08,307.033c-1.635,0-3.235-0.801-4.194-2.271L87.565,49.456c-1.507-2.314-0.854-5.411,1.46-6.919     s5.411-0.853,6.918,1.46l166.321,255.306c1.507,2.314,0.854,5.412-1.46,6.919C259.962,306.771,259.016,307.033,258.08,307.033z" fill="#3F456B"/></g></g><g><g><path d="M275.658,279.998c-0.937,0-1.883-0.263-2.726-0.812c-2.313-1.508-2.966-4.605-1.458-6.919L418.812,46.27     c1.509-2.313,4.605-2.968,6.919-1.458c2.313,1.508,2.966,4.605,1.458,6.919L279.852,277.728     C278.893,279.198,277.292,279.998,275.658,279.998z" fill="#3F456B"/></g></g><g><g><rect fill="#3F456B" height="10" width="262.505" x="125.78" y="41.161"/></g></g><g><g><path d="M364.679,82.321H148.442c-2.761,0-5-2.238-5-5s2.239-5,5-5h216.236c2.762,0,5,2.238,5,5     S367.44,82.321,364.679,82.321z" fill="#3F456B"/></g></g><g><g><path d="M77.086,84.447c-0.684,0-1.378-0.141-2.042-0.438c-2.52-1.129-3.647-4.088-2.518-6.607l28.886-64.446     c1.129-2.52,4.088-3.647,6.607-2.518c2.52,1.129,3.647,4.088,2.518,6.607L81.651,81.491     C80.82,83.347,78.996,84.447,77.086,84.447z" fill="#3F456B"/></g></g><g><g><path d="M256.999,324.539c-2.762,0-5-2.238-5-5V302c0-2.762,2.238-5,5-5s5,2.238,5,5v17.539     C261.999,322.301,259.761,324.539,256.999,324.539z" fill="#3F456B"/></g></g><g><g><g><path d="M73.575,236.302c-0.221,0-0.446-0.01-0.676-0.028c-2.56-0.21-4.224-1.854-4.851-2.474      c-3.478-3.437-6.175-7.312-8.784-11.059l-0.99-1.419c-1.084-1.546-2.033-2.923-2.842-4.119      c-6.783,0.757-17.138,1.208-22.243-1.002c-3.525-1.525-4.769-3.936-5.192-5.688c-0.742-3.076,0.657-5.628,1.421-6.73      c2.437-4.312,9.497-12.085,13.456-16.301c-3.443-7.59-5.715-15.312-6.298-17.696c-0.522-2.135-0.462-4.093,0.176-5.819      c0.768-2.073,2.446-3.915,4.49-4.93c0.661-0.326,1.369-0.562,2.111-0.702c1.567-0.301,3.267-0.171,5.04,0.391      c2.342,0.74,9.898,3.521,17.241,7.458c4.47-3.672,12.693-10.201,17.157-12.348c1.151-0.688,3.788-1.917,6.81-0.971      c1.721,0.538,4.042,1.938,5.331,5.557c1.843,5.177,0.757,15.301-0.432,22.021c5.629,3.857,10.651,8.269,15.277,13.412      c3.09,3.437,3.014,8.109-0.183,11.109c-1.487,1.395-3.241,2.047-4.184,2.396c-4.062,1.512-8.146,2.646-12.097,3.743l-2.191,0.61      c-0.55,0.154-1.146,0.301-1.743,0.445c-0.47,0.113-0.941,0.227-1.375,0.348c-0.072,0.021-0.15,0.041-0.236,0.062      c-0.329,1.038-0.643,2.093-0.967,3.182c-0.656,2.205-1.335,4.485-2.199,6.799c-0.115,0.307-0.25,0.729-0.41,1.224      C82.756,228.195,80.121,236.302,73.575,236.302z M57.889,206.843c1.692,0,3.291,0.859,4.217,2.315      c0.662,1.04,1.955,2.999,4.355,6.423l1.01,1.447c1.9,2.729,3.719,5.342,5.751,7.677c0.627-1.459,1.205-3.235,1.46-4.022      c0.214-0.66,0.399-1.222,0.552-1.631c0.745-1.994,1.346-4.015,1.982-6.153c0.584-1.965,1.189-3.996,1.927-6.057l0.014,0.005      c0.284-0.772,0.752-1.482,1.349-2.039c1.413-1.32,3.188-1.641,4.484-1.875c0.147-0.026,0.285-0.05,0.397-0.075      c0.463-0.131,1.05-0.274,1.638-0.417c0.476-0.115,0.953-0.229,1.392-0.353l2.22-0.619c3.397-0.943,6.631-1.841,9.818-2.951      c-4.272-4.429-8.929-8.208-14.172-11.509c-1.784-1.123-2.672-3.245-2.22-5.304c1.433-6.524,2.149-14.271,1.78-18.16      c-4.04,2.421-11.891,8.67-16.433,12.505c-1.626,1.371-3.944,1.564-5.774,0.481c-6.424-3.806-13.791-6.701-17.005-7.845      c0.927,3.281,3.328,10.822,6.701,17.487c0.961,1.899,0.614,4.198-0.863,5.729c-4.127,4.277-10.882,11.697-13.565,15.568      c3.858,0.629,11.635,0.426,18.237-0.572C57.391,206.861,57.641,206.843,57.889,206.843z M37.522,209.629      c-0.005,0.006-0.01,0.012-0.015,0.019C37.512,209.642,37.517,209.636,37.522,209.629z M83.853,208.526h0.01H83.853z       M46.224,167.024L46.224,167.024L46.224,167.024z" fill="#384169"/></g></g></g><g><g><path d="M430.39,268.913c-0.342,0-0.693-0.022-1.056-0.07c-2.546-0.336-4.127-2.059-4.722-2.707     c-3.307-3.605-5.812-7.609-8.233-11.481l-0.897-1.431c-1.105-1.752-1.976-3.161-2.656-4.284     c-6.811,0.423-17.179,0.365-22.169-2.093c-3.444-1.695-4.568-4.162-4.905-5.933c-0.591-3.109,0.933-5.591,1.749-6.654     c2.646-4.187,10.078-11.604,14.239-15.621c-3.067-7.749-4.957-15.574-5.423-17.984c-0.418-2.157-0.263-4.11,0.462-5.805     c0.868-2.033,2.636-3.792,4.729-4.703c0.661-0.288,1.375-0.488,2.12-0.595c1.609-0.226,3.298-0.011,5.038,0.637     c2.3,0.853,9.711,3.999,16.852,8.292c4.644-3.447,13.178-9.565,17.742-11.49c1.182-0.632,3.879-1.729,6.849-0.637     c1.692,0.622,3.942,2.135,5.052,5.812c1.589,5.263,0.007,15.32-1.511,21.975c5.434,4.128,10.233,8.779,14.602,14.145     c2.919,3.585,2.613,8.248-0.728,11.087c-1.552,1.319-3.335,1.885-4.294,2.188c-4.135,1.311-8.27,2.243-12.27,3.146l-2.217,0.502     c-0.554,0.127-1.151,0.242-1.75,0.356c-0.479,0.091-0.957,0.182-1.399,0.282c-0.074,0.018-0.155,0.034-0.243,0.051     c-0.38,1.021-0.745,2.061-1.122,3.133c-0.764,2.169-1.553,4.413-2.528,6.68c-0.129,0.3-0.284,0.715-0.47,1.201     C439.61,261.171,436.666,268.913,430.39,268.913z M415.541,238.706c1.783,0,3.448,0.953,4.344,2.524     c0.617,1.084,1.821,3.119,4.055,6.658l0.917,1.463c1.765,2.82,3.454,5.521,5.369,7.953c0.698-1.427,1.362-3.174,1.657-3.948     c0.246-0.647,0.458-1.199,0.631-1.601c0.841-1.954,1.54-3.941,2.28-6.046c0.681-1.934,1.385-3.934,2.223-5.957     c0.306-0.739,0.785-1.395,1.396-1.91l0.068-0.058c1.471-1.247,3.261-1.48,4.568-1.65c0.148-0.02,0.287-0.035,0.399-0.055     c0.469-0.109,1.068-0.225,1.668-0.34c0.478-0.091,0.955-0.181,1.397-0.281l2.245-0.509c3.439-0.776,6.714-1.515,9.952-2.467     c-4.05-4.633-8.517-8.636-13.592-12.189c-1.728-1.209-2.511-3.372-1.958-5.407c1.752-6.444,2.847-14.146,2.668-18.05     c-4.153,2.22-12.302,8.076-17.025,11.684c-1.692,1.295-4.017,1.371-5.791,0.198c-6.229-4.115-13.444-7.369-16.6-8.669     c0.766,3.327,2.794,10.976,5.834,17.795c0.867,1.943,0.408,4.223-1.143,5.68c-4.332,4.07-11.442,11.15-14.312,14.885     c3.823,0.815,11.6,0.996,18.243,0.322C415.205,238.715,415.374,238.706,415.541,238.706z M395.306,240.498     c-0.005,0.005-0.009,0.01-0.013,0.015C395.297,240.509,395.301,240.504,395.306,240.498z M394.895,237.775L394.895,237.775     L394.895,237.775z M448.153,195.7c-0.006,0.004-0.011,0.007-0.017,0.011C448.143,195.707,448.148,195.704,448.153,195.7z" fill="#384169"/></g></g><g><g><path d="M475.466,313.837c-1.279,0-2.56-0.488-3.536-1.465c-1.952-1.952-1.952-5.118,0.001-7.071l8.018-8.017     c1.953-1.951,5.118-1.952,7.071,0.001c1.952,1.952,1.952,5.118-0.001,7.071l-8.018,8.017     C478.024,313.349,476.745,313.837,475.466,313.837z" fill="#3F456B"/></g></g><g><g><path d="M448.104,341.18c-1.279,0-2.56-0.488-3.535-1.465c-1.953-1.952-1.953-5.118,0-7.07l8.017-8.017     c1.951-1.953,5.119-1.953,7.07,0c1.953,1.952,1.953,5.118,0,7.07l-8.017,8.017C450.663,340.691,449.383,341.18,448.104,341.18z" fill="#3F456B"/></g></g><g><g><path d="M483.473,341.19c-1.279,0-2.56-0.488-3.536-1.465l-8.017-8.018c-1.952-1.952-1.952-5.118,0.001-7.071     c1.953-1.951,5.118-1.952,7.071,0.001l8.017,8.018c1.952,1.952,1.952,5.118-0.001,7.071     C486.031,340.702,484.752,341.19,483.473,341.19z" fill="#3F456B"/></g></g><g><g><path d="M456.13,313.827c-1.279,0-2.56-0.488-3.536-1.465l-8.017-8.018c-1.952-1.952-1.952-5.118,0.001-7.071     c1.953-1.951,5.118-1.952,7.071,0.001l8.017,8.018c1.952,1.952,1.952,5.118-0.001,7.071     C458.688,313.339,457.409,313.827,456.13,313.827z" fill="#3F456B"/></g></g><g><g><path d="M266.466,114.837c-1.279,0-2.56-0.488-3.536-1.465c-1.952-1.952-1.952-5.118,0.001-7.071l8.018-8.017     c1.953-1.951,5.118-1.952,7.071,0.001c1.952,1.952,1.952,5.118-0.001,7.071l-8.018,8.017     C269.024,114.349,267.745,114.837,266.466,114.837z" fill="#3F456B"/></g></g><g><g><path d="M239.104,142.18c-1.279,0-2.56-0.488-3.535-1.465c-1.953-1.952-1.953-5.118,0-7.07l8.017-8.017     c1.951-1.953,5.119-1.953,7.07,0c1.953,1.952,1.953,5.118,0,7.07l-8.017,8.017C241.663,141.691,240.383,142.18,239.104,142.18z" fill="#3F456B"/></g></g><g><g><path d="M274.473,142.19c-1.279,0-2.56-0.488-3.536-1.465l-8.017-8.018c-1.952-1.952-1.952-5.118,0.001-7.071     c1.953-1.951,5.118-1.952,7.071,0.001l8.017,8.018c1.952,1.952,1.952,5.118-0.001,7.071     C277.031,141.702,275.752,142.19,274.473,142.19z" fill="#3F456B"/></g></g><g><g><path d="M247.13,114.827c-1.279,0-2.56-0.488-3.536-1.465l-8.017-8.018c-1.952-1.952-1.952-5.118,0.001-7.071     c1.953-1.951,5.118-1.952,7.071,0.001l8.017,8.018c1.952,1.952,1.952,5.118-0.001,7.071     C249.688,114.339,248.409,114.827,247.13,114.827z" fill="#3F456B"/></g></g><g><g><path d="M14.33,314.201c-2.753,0-4.99-2.228-5-4.983c-0.009-2.761,2.222-5.007,4.983-5.017l11.726-0.04     c0.006,0,0.012,0,0.018,0c2.753,0,4.99,2.228,5,4.983c0.009,2.761-2.222,5.007-4.983,5.017l-11.726,0.04     C14.342,314.201,14.336,314.201,14.33,314.201z" fill="#384169"/></g></g><g><g><path d="M97.069,313.939c-2.75,0-4.985-2.222-5-4.975c-0.014-2.761,2.213-5.011,4.974-5.025l10.581-0.055     c0.009,0,0.018,0,0.026,0c2.75,0,4.985,2.222,5,4.975c0.014,2.761-2.213,5.011-4.974,5.025l-10.581,0.055     C97.087,313.939,97.078,313.939,97.069,313.939z" fill="#384169"/></g></g><g><g><path d="M92.318,295.597c-1.723,0-3.398-0.891-4.327-2.486c-1.389-2.388-0.58-5.448,1.808-6.837l9.328-5.427     c2.386-1.389,5.448-0.579,6.836,1.808c1.389,2.388,0.58,5.448-1.808,6.837l-9.328,5.427     C94.036,295.378,93.171,295.597,92.318,295.597z" fill="#384169"/></g></g><g><g><path d="M78.88,282.825c-0.843,0-1.697-0.214-2.48-0.662c-2.396-1.373-3.226-4.428-1.853-6.824l5.571-9.726     c1.372-2.396,4.427-3.226,6.824-1.854c2.396,1.373,3.226,4.428,1.853,6.824l-5.571,9.726     C82.3,281.922,80.615,282.825,78.88,282.825z" fill="#384169"/></g></g><g><g><path d="M61.208,278.318c-2.75,0-4.986-2.223-5-4.976l-0.054-11.259c-0.013-2.762,2.214-5.011,4.976-5.024     c0.008,0,0.016,0,0.024,0c2.75,0,4.986,2.223,5,4.976l0.054,11.259c0.013,2.762-2.214,5.011-4.976,5.024     C61.225,278.318,61.216,278.318,61.208,278.318z" fill="#384169"/></g></g><g><g><path d="M56.21,485.06c-0.01-2.76,2.23-5,4.99-5l0,0c2.77,0,5.01,2.23,5.01,5l0,0c0,2.76-2.24,5-5,5l0,0     C58.45,490.06,56.21,487.819,56.21,485.06z M56.2,465.06c0-2.76,2.24-5,5-5l0,0c2.76,0,5,2.23,5,5l0,0c0,2.76-2.24,5-5,5l0,0     C58.44,470.06,56.2,467.819,56.2,465.06z M56.19,445.06c0-2.76,2.24-5,5-5l0,0c2.76,0,5,2.23,5,5l0,0c0,2.76-2.24,5-5,5l0,0     C58.43,450.06,56.19,447.819,56.19,445.06z M56.18,425.06c0-2.76,2.24-5,5-5l0,0c2.76,0,5,2.24,5,5l0,0c0.01,2.76-2.23,5-4.99,5     l0,0C58.42,430.06,56.18,427.819,56.18,425.06z M56.18,405.06c0-2.76,2.23-5,5-5l0,0c2.76,0,4.99,2.24,4.99,5l0,0     c0.01,2.76-2.23,5-4.99,5l0,0C58.42,410.06,56.18,407.819,56.18,405.06z M56.17,385.06c0-2.76,2.23-5,5-5l0,0c2.76,0,5,2.24,5,5     l0,0c0,2.76-2.24,5-5,5l0,0C58.41,390.06,56.17,387.819,56.17,385.06z M56.16,365.06c0-2.76,2.24-5,5-5l0,0c2.76,0,5,2.24,5,5     l0,0c0,2.76-2.24,5-5,5l0,0C58.4,370.06,56.16,367.819,56.16,365.06z M56.15,345.06c0-2.76,2.24-5,5-5l0,0c2.76,0,5,2.24,5,5l0,0     c0.01,2.76-2.23,5-4.99,5l0,0C58.39,350.06,56.15,347.819,56.15,345.06z" fill="#3F456B"/></g></g><g><g><path d="M43.488,283.263c-1.722,0-3.398-0.891-4.327-2.486l-5.822-10.005c-1.389-2.387-0.58-5.447,1.807-6.836     c2.386-1.391,5.447-0.58,6.836,1.807l5.822,10.005c1.389,2.387,0.58,5.447-1.807,6.836     C45.207,283.044,44.341,283.263,43.488,283.263z" fill="#384169"/></g></g><g><g><path d="M30.708,296.241c-0.843,0-1.697-0.214-2.48-0.662l-10.123-5.799c-2.396-1.373-3.226-4.428-1.853-6.824     c1.372-2.396,4.426-3.226,6.824-1.854l10.123,5.799c2.396,1.373,3.226,4.428,1.853,6.824     C34.128,295.338,32.442,296.241,30.708,296.241z" fill="#384169"/></g></g><g><g><path d="M95.924,313.865c-2.753,0-4.99-2.228-5-4.983c-0.009-2.761,2.222-5.007,4.983-5.017l11.726-0.04     c2.786-0.009,5.008,2.222,5.017,4.983c0.009,2.761-2.222,5.007-4.983,5.017l-11.726,0.04     C95.936,313.865,95.93,313.865,95.924,313.865z" fill="#384169"/></g></g><g><g><path d="M14.33,314.142c-2.75,0-4.985-2.222-5-4.975c-0.014-2.761,2.213-5.011,4.974-5.025l10.582-0.055     c0.009,0,0.018,0,0.026,0c2.75,0,4.985,2.222,5,4.975c0.014,2.761-2.213,5.011-4.974,5.025l-10.582,0.055     C14.348,314.142,14.339,314.142,14.33,314.142z" fill="#384169"/></g></g><g><g><path d="M20.345,337.859c-1.722,0-3.398-0.891-4.327-2.486c-1.389-2.387-0.58-5.447,1.807-6.836l9.328-5.428     c2.387-1.392,5.447-0.58,6.836,1.807c1.389,2.387,0.58,5.447-1.807,6.836l-9.328,5.428     C22.064,337.641,21.199,337.859,20.345,337.859z" fill="#384169"/></g></g><g><g><path d="M37.52,354.929c-0.843,0-1.697-0.214-2.48-0.662c-2.396-1.373-3.226-4.429-1.853-6.824l5.572-9.726     c1.372-2.396,4.428-3.225,6.824-1.854c2.396,1.373,3.226,4.429,1.853,6.824l-5.572,9.726     C40.94,354.025,39.254,354.929,37.52,354.929z" fill="#384169"/></g></g><g><g><path d="M84.325,354.771c-1.723,0-3.398-0.891-4.327-2.486l-5.821-10.006c-1.389-2.387-0.58-5.448,1.808-6.837     c2.386-1.389,5.446-0.579,6.836,1.808l5.821,10.006c1.389,2.387,0.58,5.448-1.808,6.837     C86.044,354.553,85.179,354.771,84.325,354.771z" fill="#384169"/></g></g><g><g><path d="M101.386,337.586c-0.843,0-1.697-0.214-2.48-0.662l-10.123-5.799c-2.396-1.373-3.226-4.428-1.853-6.824     c1.372-2.396,4.427-3.226,6.824-1.854l10.123,5.799c2.396,1.373,3.226,4.428,1.853,6.824     C104.806,336.683,103.121,337.586,101.386,337.586z" fill="#384169"/></g></g><g><g><path d="M61.651,331.796c-12.682,0-23-10.317-23-23s10.318-23,23-23s23,10.317,23,23     S74.333,331.796,61.651,331.796z M61.651,295.796c-7.168,0-13,5.832-13,13s5.832,13,13,13s13-5.832,13-13     S68.819,295.796,61.651,295.796z" fill="#384169"/></g></g><g><g><path d="M124.332,488.258c-1.271,0-2.541-0.48-3.516-1.444c-1.963-1.941-1.981-5.107-0.04-7.071l22.485-22.74     c1.943-1.964,5.108-1.98,7.071-0.04c1.963,1.941,1.981,5.107,0.04,7.071l-22.485,22.74     C126.909,487.763,125.62,488.258,124.332,488.258z" fill="#3F456B"/></g></g><g><g><path d="M368.007,354.481c-1.285,0-2.57-0.492-3.548-1.477c-1.945-1.959-1.935-5.125,0.024-7.071l22.239-22.087     c1.959-1.946,5.124-1.936,7.071,0.024c1.945,1.959,1.935,5.125-0.024,7.071l-22.239,22.087     C370.555,353.998,369.281,354.481,368.007,354.481z" fill="#3F456B"/></g></g><g><g><path d="M146.867,354.431c-1.261,0-2.522-0.474-3.495-1.425l-22.536-22.036c-1.975-1.931-2.01-5.097-0.08-7.071     c1.931-1.974,5.096-2.01,7.071-0.079l22.536,22.036c1.975,1.931,2.01,5.097,0.08,7.071     C149.463,353.928,148.166,354.431,146.867,354.431z" fill="#3F456B"/></g></g><g><g><path d="M391.375,488.258c-1.253,0-2.507-0.468-3.478-1.409l-23.42-22.688c-1.983-1.921-2.034-5.086-0.112-7.069     c1.92-1.984,5.086-2.036,7.069-0.112l23.42,22.688c1.983,1.921,2.034,5.086,0.112,7.069     C393.986,487.749,392.682,488.258,391.375,488.258z" fill="#3F456B"/></g></g><g><g><path d="M91.578,410.037c-2.756,0-4.994-2.23-5-4.988c-0.006-2.762,2.227-5.006,4.989-5.012l32.257-0.073     c0.003,0,0.008,0,0.011,0c2.756,0,4.994,2.23,5,4.988c0.006,2.762-2.227,5.006-4.989,5.012l-32.257,0.073     C91.585,410.037,91.581,410.037,91.578,410.037z" fill="#3F456B"/></g></g><g><g><path d="M390.988,410.036c-2.756,0-4.994-2.231-5-4.988c-0.006-2.762,2.228-5.006,4.988-5.012l32.012-0.073     c0.004,0,0.008,0,0.012,0c2.756,0,4.994,2.231,5,4.988c0.006,2.762-2.228,5.006-4.988,5.012L391,410.036     C390.996,410.036,390.992,410.036,390.988,410.036z" fill="#3F456B"/></g></g><g><g><path d="M164.768,500.91c-0.632,0-1.274-0.12-1.895-0.375c-2.555-1.047-3.777-3.967-2.73-6.522l7.522-18.352     c1.047-2.556,3.967-3.779,6.523-2.729c2.555,1.047,3.777,3.967,2.73,6.522l-7.522,18.352     C168.603,499.74,166.736,500.91,164.768,500.91z" fill="#3F456B"/></g></g><g><g><path d="M342.529,337.443c-0.632,0-1.273-0.12-1.895-0.375c-2.555-1.047-3.777-3.967-2.729-6.522l7.522-18.352     c1.047-2.556,3.965-3.779,6.522-2.729c2.555,1.047,3.777,3.967,2.729,6.522l-7.522,18.352     C346.364,336.273,344.498,337.443,342.529,337.443z" fill="#3F456B"/></g></g><g><g><path d="M129.826,379.907c-0.632,0-1.274-0.12-1.895-0.375l-18.352-7.522c-2.555-1.047-3.777-3.967-2.73-6.522     c1.047-2.556,3.968-3.778,6.523-2.729l18.352,7.522c2.555,1.047,3.777,3.968,2.73,6.522     C133.662,378.737,131.795,379.907,129.826,379.907z" fill="#3F456B"/></g></g><g><g><path d="M403.346,447.617c-0.632,0-1.273-0.12-1.895-0.375l-18.353-7.522c-2.555-1.047-3.777-3.967-2.729-6.522     c1.046-2.555,3.965-3.78,6.522-2.729l18.353,7.522c2.555,1.047,3.777,3.967,2.729,6.522     C407.182,446.447,405.314,447.617,403.346,447.617z" fill="#3F456B"/></g></g><g><g><path d="M350.123,500.883c-1.955,0-3.812-1.154-4.614-3.07l-7.657-18.296c-1.066-2.548,0.135-5.477,2.682-6.543     c2.547-1.064,5.478,0.135,6.543,2.682l7.657,18.296c1.066,2.548-0.135,5.477-2.682,6.543     C351.421,500.758,350.767,500.883,350.123,500.883z" fill="#3F456B"/></g></g><g><g><path d="M172.362,337.415c-1.956,0-3.812-1.153-4.614-3.07l-7.658-18.296c-1.066-2.548,0.135-5.477,2.682-6.543     c2.548-1.066,5.477,0.135,6.543,2.682l7.658,18.296c1.066,2.548-0.135,5.477-2.682,6.543     C173.66,337.29,173.005,337.415,172.362,337.415z" fill="#3F456B"/></g></g><g><g><path d="M111.506,447.686c-1.955,0-3.812-1.154-4.614-3.07c-1.066-2.548,0.134-5.477,2.682-6.543l18.296-7.658     c2.549-1.065,5.477,0.136,6.543,2.682c1.066,2.548-0.134,5.477-2.682,6.543l-18.296,7.658     C112.804,447.561,112.15,447.686,111.506,447.686z" fill="#3F456B"/></g></g><g><g><path d="M385.025,379.975c-1.955,0-3.812-1.154-4.614-3.07c-1.066-2.548,0.135-5.477,2.682-6.543l18.296-7.658     c2.549-1.064,5.476,0.135,6.543,2.682c1.066,2.548-0.135,5.477-2.682,6.543l-18.296,7.658     C386.323,379.85,385.669,379.975,385.025,379.975z" fill="#3F456B"/></g></g><g><g><path d="M181.89,310.09c-1.04-2.561,0.19-5.48,2.75-6.51l0,0c2.56-1.051,5.48,0.189,6.52,2.739l0,0     c1.04,2.561-0.19,5.48-2.75,6.521l0,0c-0.62,0.25-1.25,0.37-1.88,0.37l0,0C184.55,313.21,182.68,312.029,181.89,310.09z      M173.34,292.87c-1.41-2.37-0.63-5.44,1.74-6.851l0,0c2.38-1.41,5.45-0.63,6.86,1.75l0,0c0,0,0,0-0.01,0l0,0     c1.41,2.37,0.63,5.44-1.74,6.851l0,0c-0.8,0.47-1.68,0.699-2.55,0.699l0,0C175.93,295.319,174.27,294.45,173.34,292.87z      M162.34,277.04c-1.73-2.15-1.39-5.3,0.77-7.03l0,0c2.15-1.73,5.3-1.39,7.03,0.77l0,0c1.72,2.15,1.38,5.301-0.77,7.03l0,0     c-0.93,0.74-2.03,1.101-3.13,1.101l0,0C164.78,278.91,163.33,278.27,162.34,277.04z M149.26,262.779     c-1.99-1.909-2.06-5.069-0.15-7.069l0,0c1.92-1.99,5.08-2.05,7.07-0.141l0,0c0,0,0,0,0.01,0l0,0c1.99,1.91,2.05,5.07,0.14,7.07     l0,0c-0.98,1.021-2.3,1.53-3.61,1.53l0,0C151.48,264.17,150.23,263.71,149.26,262.779z M134.48,250.2     c-2.21-1.66-2.65-4.801-0.98-7l0,0c1.66-2.21,4.8-2.641,7-0.98l0,0c2.21,1.67,2.65,4.8,0.98,7l0,0     c-0.98,1.31-2.48,1.99-3.99,1.99l0,0C136.44,251.21,135.38,250.88,134.48,250.2z M118.32,239.38c-2.38-1.41-3.16-4.48-1.76-6.851     l0,0c1.41-2.38,4.48-3.17,6.85-1.76l0,0l0,0l0,0c2.38,1.4,3.17,4.471,1.76,6.851l0,0c-0.93,1.569-2.6,2.449-4.31,2.449l0,0     C120,240.069,119.12,239.85,118.32,239.38z M101.2,230.66L101.2,230.66c-2.58-1-3.86-3.891-2.86-6.46l0,0     c0.99-2.58,3.89-3.86,6.46-2.86l0,0c0,0,0,0,0.01,0l0,0c2.57,0.99,3.85,3.89,2.85,6.47l0,0C106.9,229.79,105,231,103,231l0,0     C102.4,231,101.79,230.89,101.2,230.66z" fill="#3F456B"/></g></g><g><g><path d="M368.53,316.689c-2.461-1.26-3.421-4.279-2.15-6.729l0,0c1.27-2.46,4.29-3.42,6.74-2.15l0,0     c2.449,1.271,3.41,4.29,2.14,6.74l0,0l0,0l0,0c-0.89,1.72-2.63,2.7-4.44,2.7l0,0C370.04,317.25,369.26,317.069,368.53,316.689z      M378.21,299.18c-2.311-1.5-2.98-4.6-1.47-6.91l0,0c1.5-2.319,4.6-2.979,6.909-1.479l0,0c2.32,1.5,2.98,4.6,1.48,6.91l0,0     c-0.96,1.479-2.561,2.29-4.2,2.29l0,0C380,299.99,379.05,299.729,378.21,299.18z M389.42,282.59c-2.21-1.66-2.65-4.79-0.99-7l0,0     c1.66-2.21,4.79-2.65,7-0.99l0,0c2.21,1.66,2.65,4.8,0.99,7l0,0l0,0l0,0c-0.99,1.311-2.48,2-4,2l0,0     C391.37,283.6,390.319,283.27,389.42,282.59z M401.68,266.74c-2.07-1.841-2.25-5-0.42-7.061h0.01c1.83-2.06,4.99-2.25,7.05-0.42     l0,0c2.07,1.84,2.25,5,0.421,7.06l0,0c-0.99,1.11-2.36,1.681-3.74,1.681l0,0C403.81,268,402.63,267.58,401.68,266.74z" fill="#3F456B"/></g></g><g><g><path d="M458.994,486.001c-2.479,0-4.63-1.842-4.953-4.364c-0.066-0.502-5.924-43.072-33.508-45.658     c-2.509-0.235-4.451-2.302-4.53-4.82c-0.08-2.52,1.728-4.704,4.217-5.097C421.58,425.835,454,419.958,454,378     c0-2.762,2.238-5,5-5s5,2.238,5,5c0,26.302-11.384,40.661-20.934,48.074c-2.355,1.828-4.712,3.33-6.955,4.562     c8.325,4.759,15.26,12.999,20.442,24.424c5.745,12.665,7.341,24.797,7.406,25.308c0.35,2.739-1.588,5.243-4.327,5.593     C459.418,485.987,459.205,486.001,458.994,486.001z" fill="#3F456B"/></g></g><g><g><path d="M459.006,486.001c-0.211,0-0.424-0.014-0.639-0.041c-2.739-0.35-4.677-2.854-4.327-5.593     c0.065-0.511,1.661-12.643,7.406-25.308c5.183-11.425,12.117-19.665,20.442-24.424c-2.243-1.231-4.6-2.733-6.955-4.562     C465.384,418.661,454,404.302,454,378c0-2.762,2.238-5,5-5s5,2.238,5,5c0,17.867,5.742,31.384,17.066,40.176     c8.253,6.407,16.631,7.872,16.714,7.886c2.489,0.393,4.297,2.577,4.217,5.097c-0.079,2.519-2.021,4.585-4.53,4.82     c-27.693,2.596-33.452,45.225-33.507,45.654C463.638,484.157,461.485,486.001,459.006,486.001z" fill="#3F456B"/></g></g></g><g id="Lines"/></svg>