<?xml version="1.0" ?><svg enable-background="new 0 0 512 512" version="1.1" viewBox="0 0 512 512" xml:space="preserve" xmlns="http://www.w3.org/2000/svg" xmlns:xlink="http://www.w3.org/1999/xlink"><g id="Lines"><g><g><g><rect fill="#3F456B" height="10" width="454" x="16" y="138"/></g></g><g><g><path d="M106.714,295H52c-2.762,0-5-2.238-5-5v-54.714c0-2.762,2.238-5,5-5h54.714c2.762,0,5,2.238,5,5V290      C111.714,292.762,109.476,295,106.714,295z M57,285h44.714v-44.714H57V285z" fill="#3F456B"/></g></g><g><g><path d="M106.714,349.714H52c-2.762,0-5-2.238-5-5V290c0-2.762,2.238-5,5-5h54.714c2.762,0,5,2.238,5,5v54.714      C111.714,347.476,109.476,349.714,106.714,349.714z M57,339.714h44.714V295H57V339.714z" fill="#3F456B"/></g></g><g><g><path d="M106.714,404.429H52c-2.762,0-5-2.238-5-5v-54.715c0-2.762,2.238-5,5-5h54.714c2.762,0,5,2.238,5,5      v54.715C111.714,402.19,109.476,404.429,106.714,404.429z M57,394.429h44.714v-44.715H57V394.429z" fill="#3F456B"/></g></g><g><g><path d="M106.714,459.143H52c-2.762,0-5-2.238-5-5v-54.714c0-2.762,2.238-5,5-5h54.714c2.762,0,5,2.238,5,5      v54.714C111.714,456.904,109.476,459.143,106.714,459.143z M57,449.143h44.714v-44.714H57V449.143z" fill="#3F456B"/></g></g><g><g><path d="M161.429,295h-54.715c-2.762,0-5-2.238-5-5v-54.714c0-2.762,2.238-5,5-5h54.715c2.762,0,5,2.238,5,5V290      C166.429,292.762,164.19,295,161.429,295z M111.714,285h44.715v-44.714h-44.715V285z" fill="#3F456B"/></g></g><g><g><path d="M161.429,349.714h-54.715c-2.762,0-5-2.238-5-5V290c0-2.762,2.238-5,5-5h54.715c2.762,0,5,2.238,5,5      v54.714C166.429,347.476,164.19,349.714,161.429,349.714z M111.714,339.714h44.715V295h-44.715V339.714z" fill="#3F456B"/></g></g><g><g><path d="M161.429,404.429h-54.715c-2.762,0-5-2.238-5-5v-54.715c0-2.762,2.238-5,5-5h54.715c2.762,0,5,2.238,5,5      v54.715C166.429,402.19,164.19,404.429,161.429,404.429z M111.714,394.429h44.715v-44.715h-44.715V394.429z" fill="#3F456B"/></g></g><g><g><path d="M161.429,459.143h-54.715c-2.762,0-5-2.238-5-5v-54.714c0-2.762,2.238-5,5-5h54.715c2.762,0,5,2.238,5,5      v54.714C166.429,456.904,164.19,459.143,161.429,459.143z M111.714,449.143h44.715v-44.714h-44.715V449.143z" fill="#3F456B"/></g></g><g><g><path d="M216.143,295h-54.714c-2.762,0-5-2.238-5-5v-54.714c0-2.762,2.238-5,5-5h54.714c2.762,0,5,2.238,5,5V290      C221.143,292.762,218.904,295,216.143,295z M166.429,285h44.714v-44.714h-44.714V285z" fill="#3F456B"/></g></g><g><g><path d="M216.143,349.714h-54.714c-2.762,0-5-2.238-5-5V290c0-2.762,2.238-5,5-5h54.714c2.762,0,5,2.238,5,5      v54.714C221.143,347.476,218.904,349.714,216.143,349.714z M166.429,339.714h44.714V295h-44.714V339.714z" fill="#3F456B"/></g></g><g><g><path d="M216.143,404.429h-54.714c-2.762,0-5-2.238-5-5v-54.715c0-2.762,2.238-5,5-5h54.714c2.762,0,5,2.238,5,5      v54.715C221.143,402.19,218.904,404.429,216.143,404.429z M166.429,394.429h44.714v-44.715h-44.714V394.429z" fill="#3F456B"/></g></g><g><g><path d="M216.143,459.143h-54.714c-2.762,0-5-2.238-5-5v-54.714c0-2.762,2.238-5,5-5h54.714c2.762,0,5,2.238,5,5      v54.714C221.143,456.904,218.904,459.143,216.143,459.143z M166.429,449.143h44.714v-44.714h-44.714V449.143z" fill="#3F456B"/></g></g><g><g><path d="M325.571,240.286h-54.714c-2.762,0-5-2.238-5-5v-54.715c0-2.762,2.238-5,5-5h54.714c2.762,0,5,2.238,5,5      v54.715C330.571,238.048,328.333,240.286,325.571,240.286z M275.857,230.286h44.714v-44.715h-44.714V230.286z" fill="#3F456B"/></g></g><g><g><path d="M325.571,295h-54.714c-2.762,0-5-2.238-5-5v-54.714c0-2.762,2.238-5,5-5h54.714c2.762,0,5,2.238,5,5V290      C330.571,292.762,328.333,295,325.571,295z M275.857,285h44.714v-44.714h-44.714V285z" fill="#3F456B"/></g></g><g><g><path d="M275.857,372h-10v-27.286c0-2.762,2.238-5,5-5H304v10h-28.143V372z" fill="#3F456B"/></g></g><g><g><path d="M380.286,240.286h-54.715c-2.762,0-5-2.238-5-5v-54.715c0-2.762,2.238-5,5-5h54.715c2.762,0,5,2.238,5,5      v54.715C385.286,238.048,383.048,240.286,380.286,240.286z M330.571,230.286h44.715v-44.715h-44.715V230.286z" fill="#3F456B"/></g></g><g><g><path d="M380.286,295h-54.715c-2.762,0-5-2.238-5-5v-54.714c0-2.762,2.238-5,5-5h54.715c2.762,0,5,2.238,5,5V290      C385.286,292.762,383.048,295,380.286,295z M330.571,285h44.715v-44.714h-44.715V285z" fill="#3F456B"/></g></g><g><g><path d="M330.571,325.5h-10V290c0-2.762,2.238-5,5-5h54.715c2.762,0,5,2.238,5,5v19.875h-10V295h-44.715V325.5z" fill="#3F456B"/></g></g><g><g><path d="M435,240.286h-54.714c-2.762,0-5-2.238-5-5v-54.715c0-2.762,2.238-5,5-5H435c2.762,0,5,2.238,5,5v54.715      C440,238.048,437.762,240.286,435,240.286z M385.286,230.286H430v-44.715h-44.714V230.286z" fill="#3F456B"/></g></g><g><g><path d="M435,295h-54.714c-2.762,0-5-2.238-5-5v-54.714c0-2.762,2.238-5,5-5H435c2.762,0,5,2.238,5,5V290      C440,292.762,437.762,295,435,295z M385.286,285H430v-44.714h-44.714V285z" fill="#3F456B"/></g></g><g><g><path d="M440,327h-10v-32h-44.714v14.875h-10V290c0-2.762,2.238-5,5-5H435c2.762,0,5,2.238,5,5V327z" fill="#3F456B"/></g></g><g><g><path d="M270.857,240.286h-54.715c-2.762,0-5-2.238-5-5v-54.715c0-2.762,2.238-5,5-5h54.715c2.762,0,5,2.238,5,5      v54.715C275.857,238.048,273.619,240.286,270.857,240.286z M221.143,230.286h44.715v-44.715h-44.715V230.286z" fill="#3F456B"/></g></g><g><g><path d="M270.857,295h-54.715c-2.762,0-5-2.238-5-5v-54.714c0-2.762,2.238-5,5-5h54.715c2.762,0,5,2.238,5,5V290      C275.857,292.762,273.619,295,270.857,295z M221.143,285h44.715v-44.714h-44.715V285z" fill="#3F456B"/></g></g><g><g><path d="M270.857,349.714h-54.715c-2.762,0-5-2.238-5-5V290c0-2.762,2.238-5,5-5h54.715c2.762,0,5,2.238,5,5      v54.714C275.857,347.476,273.619,349.714,270.857,349.714z M221.143,339.714h44.715V295h-44.715V339.714z" fill="#3F456B"/></g></g><g><g><rect fill="#3F456B" height="10" width="28" x="216" y="394"/></g></g><g><g><path d="M294,500H46c-19.299,0-35-15.701-35-35V77c0-19.299,15.701-35,35-35h49.875v10H46      c-13.785,0-25,11.215-25,25v388c0,13.785,11.215,25,25,25h248V500z" fill="#3F456B"/></g></g><g><g><path d="M475,374.062h-10V77c0-13.785-11.215-25-25-25h-51.439V42H440c19.299,0,35,15.701,35,35V374.062z" fill="#3F456B"/></g></g><g><g><rect fill="#3F456B" height="10" width="94.001" x="132.999" y="42"/></g></g><g><g><rect fill="#3F456B" height="10" width="94.001" x="260.999" y="42"/></g></g><g><g><path d="M121,99h-12c-8.271,0-15-6.729-15-15V25c0-8.271,6.729-15,15-15h12c8.271,0,15,6.729,15,15v59      C136,92.271,129.271,99,121,99z M109,20c-2.757,0-5,2.243-5,5v59c0,2.757,2.243,5,5,5h12c2.757,0,5-2.243,5-5V25      c0-2.757-2.243-5-5-5H109z" fill="#3F456B"/></g></g><g><g><path d="M249,99h-12c-8.271,0-15-6.729-15-15V25c0-8.271,6.729-15,15-15h12c8.271,0,15,6.729,15,15v59      C264,92.271,257.271,99,249,99z M237,20c-2.757,0-5,2.243-5,5v59c0,2.757,2.243,5,5,5h12c2.757,0,5-2.243,5-5V25      c0-2.757-2.243-5-5-5H237z" fill="#3F456B"/></g></g><g><g><path d="M377,99h-12c-8.271,0-15-6.729-15-15V25c0-8.271,6.729-15,15-15h12c8.271,0,15,6.729,15,15v59      C392,92.271,385.271,99,377,99z M365,20c-2.757,0-5,2.243-5,5v59c0,2.757,2.243,5,5,5h12c2.757,0,5-2.243,5-5V25      c0-2.757-2.243-5-5-5H365z" fill="#3F456B"/></g></g><g><g><g><g><path d="M393.995,354.001c-0.841,0-1.693-0.213-2.476-0.66l-14-8c-1.558-0.89-2.52-2.547-2.52-4.341v-15.5        c0-2.762,2.238-5,5-5s5,2.238,5,5v12.599l11.48,6.561c2.397,1.37,3.23,4.424,1.86,6.821        C397.418,353.096,395.731,354.001,393.995,354.001z" fill="#3F456B"/></g></g><g><g><path d="M450.88,376.527c-0.828,0-1.667-0.206-2.44-0.64c-2.409-1.351-3.267-4.398-1.916-6.807        c8.367-14.921,3.577-30.88,1.114-37.081h-40.682c-2.762,0-5-2.238-5-5s2.238-5,5-5h43.929c1.858,0,3.563,1.031,4.428,2.677        c0.544,1.037,13.18,25.674-0.066,49.295C454.329,375.606,452.63,376.527,450.88,376.527z" fill="#3F456B"/></g></g><g><g><path d="M309.076,376.527c-1.75,0-3.449-0.92-4.366-2.556c-13.246-23.621-0.61-48.258-0.066-49.295        c0.864-1.646,2.569-2.677,4.428-2.677H353c2.762,0,5,2.238,5,5s-2.238,5-5,5h-40.668c-2.444,6.221-7.215,22.252,1.101,37.081        c1.351,2.408,0.493,5.456-1.916,6.807C310.743,376.321,309.904,376.527,309.076,376.527z" fill="#3F456B"/></g></g><g><g><path d="M380,377c-19.575,0-35.5-15.925-35.5-35.5S360.425,306,380,306s35.5,15.925,35.5,35.5        S399.575,377,380,377z M380,316c-14.061,0-25.5,11.439-25.5,25.5S365.939,367,380,367s25.5-11.439,25.5-25.5        S394.061,316,380,316z" fill="#3F456B"/></g></g></g><g><g><g><path d="M455.15,458.729c-2.689,0-4.91-2.137-4.994-4.844c-0.087-2.757,2.076-5.062,4.832-5.153        c1.526-0.057,36.012-1.727,36.012-35.85c0-33.719-33.673-35.749-35.943-35.847h-190.44c-0.164,0-0.328-0.008-0.491-0.024        c-0.043-0.004-7.128-0.57-11.731,3.473c-2.64,2.319-4.08,5.912-4.281,10.682c-0.244,5.798,0.974,10.136,3.618,12.895        c3.369,3.515,8.867,4.252,12.886,4.252h189.247c2.762,0,5,2.238,5,5s-2.238,5-5,5H264.616c-8.554,0-15.506-2.535-20.104-7.331        c-4.604-4.802-6.754-11.61-6.391-20.236c0.322-7.652,2.934-13.658,7.762-17.852c7.273-6.318,17.058-5.984,18.924-5.857        h190.346c0.052,0,0.104,0.001,0.156,0.002c0.463,0.015,11.47,0.421,22.559,6.139C488.421,378.617,501,389.922,501,412.882        s-12.579,34.265-23.132,39.706c-11.089,5.718-22.096,6.124-22.559,6.139C455.257,458.728,455.203,458.729,455.15,458.729z" fill="#3F456B"/></g></g><g><g><path d="M475.629,500.038c-0.586,0-1.025-0.018-1.282-0.032H283.964c-0.052,0-0.104-0.001-0.156-0.002        c-0.463-0.015-11.47-0.421-22.559-6.139c-10.553-5.441-23.132-16.746-23.132-39.706c0-22.959,12.579-34.266,23.132-39.707        c11.089-5.718,22.096-6.124,22.559-6.139c2.771-0.067,5.067,2.081,5.153,4.842c0.087,2.757-2.076,5.062-4.832,5.153        c-1.518,0.056-36.012,1.724-36.012,35.851c0,33.723,33.682,35.75,35.944,35.847h190.44c0.133,0,0.266,0.005,0.398,0.016        c0.057,0.004,7.821,0.498,12.447-3.813c2.458-2.291,3.652-5.602,3.652-10.121c0-5.219-1.607-17.358-16.498-17.358H285.254        c-2.762,0-5-2.238-5-5s2.238-5,5-5h189.248c12.224,0,26.498,7.165,26.498,27.358c0,7.384-2.323,13.272-6.906,17.503        C487.797,499.403,479.116,500.038,475.629,500.038z" fill="#3F456B"/></g></g></g></g></g></g><g id="Outline"><g><g><g><path d="M405,220.971c-1.279,0-2.56-0.488-3.535-1.465l-9.985-9.985c-1.953-1.952-1.953-5.118,0-7.07      c1.951-1.953,5.119-1.953,7.07,0l6.45,6.449l13.436-13.435c1.951-1.953,5.119-1.953,7.07,0c1.953,1.952,1.953,5.118,0,7.07      l-16.971,16.971C407.56,220.482,406.279,220.971,405,220.971z" fill="#3F456B"/></g></g><g><g><path d="M349,220.971c-1.279,0-2.56-0.488-3.535-1.465l-9.985-9.985c-1.953-1.952-1.953-5.118,0-7.07      c1.951-1.953,5.119-1.953,7.07,0l6.45,6.449l13.436-13.435c1.951-1.953,5.119-1.953,7.07,0c1.953,1.952,1.953,5.118,0,7.07      l-16.971,16.971C351.56,220.482,350.279,220.971,349,220.971z" fill="#3F456B"/></g></g><g><g><path d="M240,220.971c-1.279,0-2.56-0.488-3.535-1.465l-9.985-9.985c-1.953-1.952-1.953-5.118,0-7.07      c1.951-1.953,5.119-1.953,7.07,0l6.45,6.449l13.436-13.435c1.951-1.953,5.119-1.953,7.07,0c1.953,1.952,1.953,5.118,0,7.07      l-16.971,16.971C242.56,220.482,241.279,220.971,240,220.971z" fill="#3F456B"/></g></g><g><g><path d="M76,275.971c-1.279,0-2.56-0.488-3.535-1.465l-9.985-9.985c-1.953-1.952-1.953-5.118,0-7.07      c1.951-1.953,5.119-1.953,7.07,0l6.45,6.449l13.436-13.435c1.951-1.953,5.119-1.953,7.07,0c1.953,1.952,1.953,5.118,0,7.07      l-16.971,16.971C78.56,275.482,77.279,275.971,76,275.971z" fill="#3F456B"/></g></g><g><g><path d="M185,275.971c-1.279,0-2.56-0.488-3.535-1.465l-9.985-9.985c-1.953-1.952-1.953-5.118,0-7.07      c1.951-1.953,5.119-1.953,7.07,0l6.45,6.449l13.436-13.435c1.951-1.953,5.119-1.953,7.07,0c1.953,1.952,1.953,5.118,0,7.07      l-16.971,16.971C187.56,275.482,186.279,275.971,185,275.971z" fill="#3F456B"/></g></g><g><g><path d="M241,275.971c-1.279,0-2.56-0.488-3.535-1.465l-9.985-9.985c-1.953-1.952-1.953-5.118,0-7.07      c1.951-1.953,5.119-1.953,7.07,0l6.45,6.449l13.436-13.435c1.951-1.953,5.119-1.953,7.07,0c1.953,1.952,1.953,5.118,0,7.07      l-16.971,16.971C243.56,275.482,242.279,275.971,241,275.971z" fill="#3F456B"/></g></g><g><g><path d="M241,330.971c-1.279,0-2.56-0.488-3.535-1.465l-9.985-9.985c-1.953-1.952-1.953-5.118,0-7.07      c1.951-1.953,5.119-1.953,7.07,0l6.45,6.449l13.436-13.435c1.951-1.953,5.119-1.953,7.07,0c1.953,1.952,1.953,5.118,0,7.07      l-16.971,16.971C243.56,330.482,242.279,330.971,241,330.971z" fill="#3F456B"/></g></g><g><g><path d="M185,385.971c-1.279,0-2.56-0.488-3.535-1.465l-9.985-9.985c-1.953-1.952-1.953-5.118,0-7.07      c1.951-1.953,5.119-1.953,7.07,0l6.45,6.449l13.436-13.435c1.951-1.953,5.119-1.953,7.07,0c1.953,1.952,1.953,5.118,0,7.07      l-16.971,16.971C187.56,385.482,186.279,385.971,185,385.971z" fill="#3F456B"/></g></g><g><g><path d="M76,440.971c-1.279,0-2.56-0.488-3.535-1.465l-9.985-9.985c-1.953-1.952-1.953-5.118,0-7.07      c1.951-1.953,5.119-1.953,7.07,0l6.45,6.449l13.436-13.435c1.951-1.953,5.119-1.953,7.07,0c1.953,1.952,1.953,5.118,0,7.07      l-16.971,16.971C78.56,440.482,77.279,440.971,76,440.971z" fill="#3F456B"/></g></g></g></g></svg>