<?xml version="1.0" ?><svg viewBox="0 0 512 512" xmlns="http://www.w3.org/2000/svg"><defs><style>.cls-1{fill:#3f456b;}</style></defs><title/><g id="Lines"><path class="cls-1" d="M124.07,501.63H103.46c-12.23,0-22.17-10.17-22.17-22.67V451a5,5,0,0,1,10,0v28a12.45,12.45,0,0,0,12.17,12.67h20.61A12.45,12.45,0,0,0,136.24,479V451a5,5,0,0,1,10,0v28C146.24,491.46,136.3,501.63,124.07,501.63Z"/><path class="cls-1" d="M410.82,501.63H390.21C378,501.63,368,491.46,368,479V452.33a5,5,0,0,1,10,0V479a12.45,12.45,0,0,0,12.17,12.67h20.61A12.45,12.45,0,0,0,423,479V452.33a5,5,0,1,1,10,0V479A22.45,22.45,0,0,1,410.82,501.63Z"/><path class="cls-1" d="M431.19,456H317.76a5,5,0,0,1,0-10H431.19c3.58,0,6.28-1,8.25-3.09,3.75-3.95,4.23-11.19,4.1-13.64a2.81,2.81,0,0,1,0-.29V374.68c0-.28.78-28.82-16.66-41.86-.95-.74-21.53-16.91-25.88-35.28,0-.08,0-.16-.05-.23l-9.31-49.65c-.55-2.14-8.2-29.8-39.13-29.8H163.11c-13.3,0-23.91,5-31.55,14.92A45.68,45.68,0,0,0,124,247.67l-9.31,49.64c0,.07,0,.15-.05.23C110.4,315.37,90.89,331.13,89,332.66c-17.67,15.58-16.88,41.75-16.87,42v54.57c-.13,2.44.35,9.68,4.1,13.63,2,2.08,4.66,3.09,8.24,3.09H196.56a5,5,0,0,1,0,10H84.42c-6.41,0-11.64-2.11-15.55-6.26-7.08-7.53-6.86-19.21-6.79-20.88V375c-.07-2.33-.52-31.59,20.38-49.9l.23-.19c.18-.14,18.58-14.63,22.18-29.52l9.32-49.66a2,2,0,0,1,0-.24c.09-.37,9.37-37.58,48.87-37.58H352.5c39.51,0,48.79,37.21,48.88,37.58a2,2,0,0,1,.05.24l9.31,49.66c3,12.4,17,25.51,22.19,29.52,21.22,15.87,20.68,47.66,20.6,50.09v53.87c.07,1.66.3,13.35-6.78,20.88C442.84,453.85,437.61,456,431.19,456Z"/><path class="cls-1" d="M452.5,302.79H428.67a14.06,14.06,0,0,1-14-14V275.41a14,14,0,0,1,14-14H452.5a14,14,0,0,1,14,14v13.35A14.05,14.05,0,0,1,452.5,302.79Zm-23.83-31.41a4,4,0,0,0-4,4v13.35a4,4,0,0,0,4,4H452.5a4,4,0,0,0,4-4V275.41a4,4,0,0,0-4-4Z"/><path class="cls-1" d="M88.74,302.79H64.91a14,14,0,0,1-14-14V275.41a14,14,0,0,1,14-14H88.74a14,14,0,0,1,14,14v13.35A14,14,0,0,1,88.74,302.79ZM64.91,271.38a4,4,0,0,0-4,4v13.35a4,4,0,0,0,4,4H88.74a4,4,0,0,0,4-4V275.41a4,4,0,0,0-4-4Z"/><path class="cls-1" d="M413.86,314.94a5,5,0,0,1-2.88-9.09l14.91-10.47a5,5,0,0,1,5.74,8.19L416.73,314A5,5,0,0,1,413.86,314.94Z"/><path class="cls-1" d="M396.6,251.6a5,5,0,0,1-4.77-3.5c-.16-.51-16.59-50.88-59.57-50.88H183.44c-43.11,0-59.41,50.37-59.57,50.88a5,5,0,1,1-9.54-3,105.72,105.72,0,0,1,15.21-28.69c14.29-19.1,32.93-29.19,53.9-29.19H332.26c21,0,39.61,10.09,53.9,29.19a105.72,105.72,0,0,1,15.21,28.69,5,5,0,0,1-3.27,6.27A4.88,4.88,0,0,1,396.6,251.6Z"/><path class="cls-1" d="M427.87,431.63H86.06c-8.53,0-15-2.24-19.24-6.67a16.81,16.81,0,0,1-4.73-11.7l10,.44v-.1c0,1.34.68,8,14,8H427.87c.13,0,14.88-.17,15.41-8.47a5,5,0,0,1,10,.64c-.48,7.48-5.44,13.14-13.95,15.94A40.8,40.8,0,0,1,427.87,431.63Z"/><path class="cls-1" d="M317.35,475.23H197.49a5,5,0,0,1-5-5V426.55a5,5,0,0,1,5-5H317.35a5,5,0,0,1,5,5v43.68A5,5,0,0,1,317.35,475.23Zm-114.86-10H312.35V431.55H202.49Z"/><path class="cls-1" d="M408.53,309.75l-.44,0c-147-12.55-299.06-.13-300.58,0a5,5,0,1,1-.83-10c1.53-.13,154.44-12.63,302.27,0a5,5,0,0,1-.42,10Z"/><path class="cls-1" d="M323.22,413.55h-127c-12.55,0-16.84-9.09-17.43-14.21-.54-2.56-4.19-20.4-3.37-32.74.43-6.48,3.27-10.23,5.57-12.24a18,18,0,0,1,11.86-4.08c4.7-.28,69.45-4,133.73,0a17.88,17.88,0,0,1,11.85,4.08c2.3,2,5.14,5.76,5.57,12.25.83,12.34-2.83,30.17-3.37,32.73C340.07,404.46,335.77,413.55,323.22,413.55ZM192.17,360.26c-2.13,0-6.34.81-6.75,7-.78,11.65,3.19,30.05,3.23,30.23s.07.43.09.65c.19,1.57,1.31,5.4,7.5,5.4h127c6.19,0,7.31-3.83,7.51-5.48a3.75,3.75,0,0,1,.09-.57c0-.18,4-18.61,3.22-30.23-.16-2.49-.87-4.24-2.16-5.37a8.16,8.16,0,0,0-5-1.63,5,5,0,0,1-.67,0c-65.88-4.1-132.35,0-133,0a5,5,0,0,1-.67,0Z"/><path class="cls-1" d="M413.19,392.23h-42c-12.73,0-23.1-9.94-23.1-22.16V366c0-11.11,8.74-19.78,22.26-22.08l.35-.05,41.69-4.15.5,0c8.07,0,13.92,1.93,17.87,5.88,5.58,5.6,5.57,13.4,5.56,19.67v4.88C436.29,382.29,425.93,392.23,413.19,392.23Zm-41.35-38.48c-6.39,1.14-13.78,5-13.78,12.2v4.12c0,6.7,5.88,12.16,13.1,12.16h42c7.22,0,13.1-5.46,13.1-12.16v-4.9c0-4.88,0-9.92-2.64-12.58-1.92-1.93-5.47-2.92-10.55-2.95Z"/><path class="cls-1" d="M148.67,392.23h-42c-12.73,0-23.09-9.94-23.09-22.16v-4.88c0-6.27,0-14.08,5.57-19.67,4-3.95,9.79-5.88,17.86-5.88a4.19,4.19,0,0,1,.5,0l41.7,4.15.34.05c13.52,2.3,22.26,11,22.26,22.08v4.12C171.77,382.29,161.41,392.23,148.67,392.23Zm-41.94-42.59c-5.08,0-8.63,1-10.55,2.95-2.65,2.66-2.64,7.7-2.64,12.58v4.9c0,6.7,5.87,12.16,13.09,12.16h42c7.23,0,13.1-5.46,13.1-12.16V366c0-7.2-7.38-11.06-13.77-12.2Z"/><path class="cls-1" d="M256.5,166.5a21,21,0,1,1,21-21A21,21,0,0,1,256.5,166.5Zm0-32a11,11,0,1,0,11,11A11,11,0,0,0,256.5,134.5Z"/></g><g id="Outline"><path class="cls-1" d="M210.55,117.27a5,5,0,0,1-3.53-8.53,69.28,69.28,0,0,1,98,0,5,5,0,1,1-7.07,7.07,59.28,59.28,0,0,0-83.82,0A5,5,0,0,1,210.55,117.27Z"/><path class="cls-1" d="M328,90.77a5,5,0,0,1-3.54-1.47,96.76,96.76,0,0,0-136.82,0,5,5,0,0,1-7.07-7.07,106.76,106.76,0,0,1,151,0,5,5,0,0,1,0,7.07A5,5,0,0,1,328,90.77Z"/><path class="cls-1" d="M156.31,63a5,5,0,0,1-3.54-8.53,146,146,0,0,1,206.46,0,5,5,0,1,1-7.07,7.07,136,136,0,0,0-192.32,0A4.94,4.94,0,0,1,156.31,63Z"/><path class="cls-1" d="M291.32,448.29a5,5,0,0,1,5-5h0a5,5,0,0,1,5,5h0a5,5,0,0,1-5,5h0A5,5,0,0,1,291.32,448.29Zm-20,0a5,5,0,0,1,5-5h0a5,5,0,0,1,5,5h0a5,5,0,0,1-5,5h0A5,5,0,0,1,271.32,448.29Zm-20,0a5,5,0,0,1,5-5h0a5,5,0,0,1,5,5h0a5,5,0,0,1-5,5h0A5,5,0,0,1,251.32,448.29Zm-20,0a5,5,0,0,1,5-5h0a5,5,0,0,1,5,5h0a5,5,0,0,1-5,5h0A5,5,0,0,1,231.32,448.29Zm-20,0a5,5,0,0,1,5-5h0a5,5,0,0,1,5,5h0a5,5,0,0,1-5,5h0A5,5,0,0,1,211.32,448.29Z"/><path class="cls-1" d="M86.94,469.05a5,5,0,1,1,0-10h14.45a5,5,0,1,1,0,10H86.94Z"/><path class="cls-1" d="M86.76,484.52a5,5,0,1,1,0-10h14.83a5,5,0,1,1,0,10Z"/><path class="cls-1" d="M126.06,469.05a5,5,0,1,1,0-10h14.45a5,5,0,1,1,0,10H126.06Z"/><path class="cls-1" d="M125.88,484.52a5,5,0,0,1,0-10h14.83a5,5,0,1,1,0,10Z"/><path class="cls-1" d="M373.26,469.05a5,5,0,1,1,0-10h14.45a5,5,0,1,1,0,10H373.26Z"/><path class="cls-1" d="M373.08,484.52a5,5,0,1,1,0-10h14.83a5,5,0,1,1,0,10Z"/><path class="cls-1" d="M413.21,469.05a5,5,0,1,1,0-10h14.45a5,5,0,1,1,0,10H413.21Z"/><path class="cls-1" d="M413,484.52a5,5,0,0,1,0-10h14.83a5,5,0,0,1,0,10Z"/><path class="cls-1" d="M259.92,412.72a5,5,0,0,1-5-5v-54.1a5,5,0,1,1,10,0v54.1A5,5,0,0,1,259.92,412.72Z"/><path class="cls-1" d="M240.77,413.55a5,5,0,0,1-5-4.84l-1.67-54.94a5,5,0,1,1,10-.3l1.66,54.93a5,5,0,0,1-4.85,5.15Z"/><path class="cls-1" d="M222.46,413.55a5,5,0,0,1-5-4.69l-3.33-54.1a5,5,0,1,1,10-.61l3.33,54.1a5,5,0,0,1-4.68,5.29Z"/><path class="cls-1" d="M203.31,413.55a5,5,0,0,1-5-4.61l-4.16-53.27a5,5,0,0,1,10-.77l4.16,53.26a5,5,0,0,1-4.59,5.38Z"/><path class="cls-1" d="M279.9,413.55h-.16a5,5,0,0,1-4.85-5.15l1.67-54.93a5,5,0,0,1,10,.3l-1.67,54.94A5,5,0,0,1,279.9,413.55Z"/><path class="cls-1" d="M298.21,413.55h-.31a5,5,0,0,1-4.69-5.29l3.33-54.1a5,5,0,1,1,10,.61l-3.33,54.1A5,5,0,0,1,298.21,413.55Z"/><path class="cls-1" d="M317.35,413.55H317a5,5,0,0,1-4.6-5.38l4.16-53.26a5,5,0,1,1,10,.77l-4.16,53.27A5,5,0,0,1,317.35,413.55Z"/></g></svg>