<?xml version="1.0" ?><svg id="Lines" viewBox="0 0 512 512" xmlns="http://www.w3.org/2000/svg"><defs><style>.cls-1{fill:#3f456b;}</style></defs><title/><path class="cls-1" d="M250,504l-.51,0A5,5,0,0,1,245,498.5c7.48-74.15,26.81-193.28,76.43-339.78C351.13,71.09,378,14.41,378.26,13.85a5,5,0,0,1,9,4.3c-.27.56-26.92,56.82-56.41,143.93C303.68,242.42,268.43,366.17,255,499.5A5,5,0,0,1,250,504Z"/><path class="cls-1" d="M270,477.38q-7,0-14-.34a4.8,4.8,0,0,1-1.35-.25c-48.12-16-85.05-51.91-106.8-103.73-16.33-38.9-18.4-72.6-18.47-74a5,5,0,0,1,5.32-5.27l22.08,1.47C149,251.87,154.76,205,155,202.93a5,5,0,0,1,5.67-4.32l15.17,2.17c8.81-48,36.9-87.88,38.13-89.61a5,5,0,0,1,7-1.15l6.39,4.65A316.69,316.69,0,0,1,291.31,50a5,5,0,0,1,6.45.53l7.72,7.72C342.24,19,380.19,11.4,381.84,11.09a5,5,0,0,1,4.57,1.48c1.23,1.31,28.93,31.09,35.72,67.1l15.92-2.9a5,5,0,0,1,5.37,2.69c.65,1.3,15.3,31,19.1,69.84l12-1.72a5,5,0,0,1,5.7,4.76,577.34,577.34,0,0,1-4.18,84.57l14.53.69a5,5,0,0,1,4.75,5.41c-.23,2.71-5.68,63.25-39.95,101.72l15.13,3.43a5,5,0,0,1,3.52,6.76c-.54,1.33-13.65,33-47.17,64.14a212.16,212.16,0,0,1-67.3,42.26C332.33,472,302.23,477.38,270,477.38Zm-12.88-10.3c35.83,1.61,69-3.43,98.58-15a204.06,204.06,0,0,0,106.59-95.58l-17.74-4a5,5,0,0,1-2.32-8.52c31.07-29.3,40.34-80.36,42.58-96.67l-14.64-.69a5,5,0,0,1-4.71-5.71c5-35.22,5.15-69.55,5-82.65L458.69,160a5,5,0,0,1-5.69-4.6c-2.24-32-12.93-58.87-17-68l-17.14,3.11A5,5,0,0,1,413,86.14c-3.83-29.85-25.44-56.93-32-64.57A118.2,118.2,0,0,0,360,29.72a166.32,166.32,0,0,0-50.57,39.1,5,5,0,0,1-7.27.22l-8.35-8.34c-9.69,7.54-38.36,31.2-61.14,63.84a5,5,0,0,1-3.27,2.07,5,5,0,0,1-3.77-.89l-6.25-4.55c-7.6,11.84-28.43,47.05-34.42,86a5,5,0,0,1-5.65,4.19l-14.86-2.13c-1.34,14.07-4.22,55,3.32,90.39a5,5,0,0,1-5.22,6l-22.7-1.51a248.35,248.35,0,0,0,17.29,65.33c9.18,21.79,21.15,40.68,35.59,56.15A154.78,154.78,0,0,0,257.07,467.08Z"/><path class="cls-1" d="M242.09,477.36c-30.7,0-59.53-5.11-85.88-15.23a214,214,0,0,1-65.73-40.05c-33.15-29.47-47-59.52-47.53-60.79a5,5,0,0,1,3.45-6.93l13.91-3.16C28,314.65,22.88,257.5,22.66,254.94a5,5,0,0,1,4.75-5.41l13.5-.64A549.82,549.82,0,0,1,37,169a5,5,0,0,1,5.71-4.76l11.12,1.59a207.31,207.31,0,0,1,18.12-66,5,5,0,0,1,5.36-2.68l14.84,2.69C98.65,65.65,124.84,37.5,126,36.26a5,5,0,0,1,4.58-1.48c1.56.3,37.5,7.51,72.34,44.61l7.14-7.13a5,5,0,0,1,6.45-.52A279.51,279.51,0,0,1,246.68,97.9a5,5,0,1,1-7,7.11,297,297,0,0,0-25.6-22.6l-7.76,7.76A5,5,0,0,1,199,90a157.48,157.48,0,0,0-47.84-37,114,114,0,0,0-19.79-7.68c-6.34,7.4-26.59,32.95-30.18,61a5,5,0,0,1-5.86,4.28l-16-2.91c-3.89,8.87-13.89,34.2-16,64.24a5,5,0,0,1-5.69,4.6l-10.79-1.54c-.17,12.62,0,44.9,4.71,78a5,5,0,0,1-4.71,5.71l-13.59.64c2.18,15.73,11,63.66,40.25,91.22A5,5,0,0,1,71.17,359l-16.25,3.69A206.62,206.62,0,0,0,160.07,452.9c28.76,11,60.69,15.76,94.89,14.15a5,5,0,0,1,.47,10C251,477.25,246.49,477.36,242.09,477.36Z"/><path class="cls-1" d="M180,211.42a5,5,0,0,1-4.91-4.11C160.1,125,125.27,42.58,124.92,41.76a5,5,0,1,1,9.2-3.91c.35.83,35.62,84.3,50.78,167.67a5,5,0,0,1-4,5.82A5.47,5.47,0,0,1,180,211.42Z"/></svg>