<?xml version="1.0" ?><svg viewBox="0 0 512 512" xmlns="http://www.w3.org/2000/svg"><defs><style>.cls-1{fill:#384169;}.cls-2{fill:#3f456b;}</style></defs><title/><g id="Lines"><path class="cls-1" d="M288.19,395.13h0c-18,0-30.24-12.53-31.41-13.77L83.15,205.66a5,5,0,0,1,7.11-7l173.8,175.88c.09.09,10.07,10.62,24.13,10.62,13,0,23.46-10.62,23.56-10.72l175.7-175.8a5,5,0,0,1,7.08,7.07L318.87,381.43C318.37,382,305.33,395.13,288.19,395.13Z"/><path class="cls-1" d="M86.33,491.7a5,5,0,0,1-3.53-8.53l140.82-140.9a5,5,0,1,1,7.08,7.06L89.87,490.23A5,5,0,0,1,86.33,491.7Z"/><path class="cls-1" d="M490.31,491.38a5,5,0,0,1-3.56-1.48l-139.37-141a5,5,0,1,1,7.11-7l139.37,141a5,5,0,0,1-3.55,8.51Z"/><path class="cls-1" d="M487,499.28H90.73a15,15,0,0,1-15-15V206.17a15,15,0,0,1,15-15H487a15,15,0,0,1,15,15V484.28A15,15,0,0,1,487,499.28ZM90.73,201.17a5,5,0,0,0-5,5V484.28a5,5,0,0,0,5,5H487a5,5,0,0,0,5-5V206.17a5,5,0,0,0-5-5Z"/><path class="cls-1" d="M433,201.37a5,5,0,0,1-5-5V159a5,5,0,0,1,10,0v37.37A5,5,0,0,1,433,201.37Z"/><path class="cls-1" d="M80.73,319.28h-54a15,15,0,0,1-15-15V26.17a15,15,0,0,1,15-15H423a15,15,0,0,1,15,15V47a5,5,0,0,1-10,0V26.17a5,5,0,0,0-5-5H26.73a5,5,0,0,0-5,5V304.28a5,5,0,0,0,5,5h54a5,5,0,1,1,0,10Z"/><path class="cls-2" d="M433,164a61,61,0,1,1,61-61A61.06,61.06,0,0,1,433,164Zm0-112a51,51,0,1,0,51,51A51,51,0,0,0,433,52Z"/></g><g id="Outline"><path class="cls-2" d="M237,115.88H80a5,5,0,0,1,0-10H237a5,5,0,0,1,0,10Z"/><path class="cls-2" d="M237,85H80a5,5,0,0,1,0-10H237a5,5,0,0,1,0,10Z"/><path class="cls-2" d="M237,148H80a5,5,0,0,1,0-10H237a5,5,0,0,1,0,10Z"/><path class="cls-2" d="M288.46,326.76a24,24,0,1,1,24-24A24,24,0,0,1,288.46,326.76Zm0-38a14,14,0,1,0,14,14A14,14,0,0,0,288.46,288.75Z"/><path class="cls-2" d="M288.46,349.66a46.91,46.91,0,1,1,46.9-47c.07,2.11.27,16.72-7.36,24.66a16.16,16.16,0,0,1-11.73,5,13.55,13.55,0,0,1-9.64-3.14c-1.9-1.7-4.15-4.89-4.15-10.44V302.54a5,5,0,1,1,10,0v16.21c0,.83.1,2.32.8,3a3.58,3.58,0,0,0,2.31.65,1.86,1.86,0,0,1,.47,0,6.14,6.14,0,0,0,4.72-1.93c4.12-4.27,4.7-14,4.58-17.46v-.19a36.86,36.86,0,1,0-21.84,33.71,5,5,0,1,1,4.08,9.12A46.45,46.45,0,0,1,288.46,349.66Z"/><path class="cls-2" d="M433,130a5,5,0,0,1-5-5V77a5,5,0,0,1,10,0v48A5,5,0,0,1,433,130Z"/></g></svg>