<?xml version="1.0" ?><svg viewBox="0 0 512 512" xmlns="http://www.w3.org/2000/svg"><defs><style>.cls-1{fill:#3f456b;}</style></defs><title/><g id="Lines"><path class="cls-1" d="M422.61,468.9H44.35C26.24,468.9,11.5,454,11.5,435.58V139.1c0-18.54,15-34.2,32.85-34.2H422.61c17.83,0,32.89,15.66,32.89,34.2V435.58A33.14,33.14,0,0,1,422.61,468.9ZM44.35,114.9C32,114.9,21.5,126,21.5,139.1V435.58A23.11,23.11,0,0,0,44.35,458.9H422.61a23.13,23.13,0,0,0,22.89-23.32V139.1c0-13.12-10.48-24.2-22.89-24.2Z"/><path class="cls-1" d="M398.37,500.9H68.15c-21.22,0-26.71-14.75-26.94-15.37l-.09-.29L35.55,466a5,5,0,1,1,9.61-2.77l5.51,19.06c.38.88,4.13,8.65,17.48,8.65H398.37c13.45,0,17.09-7.71,17.48-8.64l5.51-19.19a5,5,0,0,1,9.61,2.77l-5.57,19.39c0,.1-.06.2-.1.3C425.08,486.15,419.58,500.9,398.37,500.9Z"/><path class="cls-1" d="M230.56,424.38A1089.34,1089.34,0,0,1,113,418c-41.84-4.38-66.38-28.75-71-70.47-4.75-43.21-4.52-87.78.7-136.25,1.58-14.67,6.52-34.37,21.11-44.87C88.65,148.5,122.32,147.33,152,146.3c6.21-.21,12.07-.42,17.78-.76,35.48-2.13,73.33-2.34,115.71-.66,26.93,1.06,53.31,2.93,78.44,5.53,28.88,3,49.71,23.09,55.72,53.75,6.19,31.58,8.52,68.61,6.74,107.11-1.13,24.35-3.86,44.43-8.36,61.39a56.93,56.93,0,0,1-13.38,23.87h0a67.35,67.35,0,0,1-42.55,21.16C310.91,422.56,267.75,424.38,230.56,424.38Zm1.24-270.62c-21.45,0-41.79.59-61.39,1.76-5.83.35-11.76.56-18,.78-28.29,1-60.35,2.09-82.76,18.23-6.4,4.61-14.54,14.91-17,37.83-5.14,47.74-5.37,91.6-.7,134.09,4.08,37,25,57.73,62.08,61.62,57.28,6,131.44,10.66,247.2-.33a58,58,0,0,0,36.15-18h0a46.92,46.92,0,0,0,11.05-19.64c4.32-16.27,6.94-35.66,8-59.29,1.74-37.71-.53-73.92-6.56-104.73-5.12-26.11-22.67-43.2-46.94-45.72-24.92-2.59-51.09-4.43-77.81-5.49C266.53,154.13,248.81,153.76,231.8,153.76Z"/><path class="cls-1" d="M209.18,114.6h-.11a5,5,0,0,1-4.89-5.11c0-.28,1-27.77,30.93-27.77,24.07,0,30.43,18.24,30.43,27.88a5,5,0,1,1-10,0,21.34,21.34,0,0,0-2.72-9.3c-3.3-5.7-9.26-8.58-17.71-8.58-8.63,0-14.74,3-18.17,8.94a21.61,21.61,0,0,0-2.76,9A5,5,0,0,1,209.18,114.6Z"/><path class="cls-1" d="M258.9,99.6A5,5,0,0,1,256,90.51L367.79,11.64a5,5,0,0,1,5.76,8.17L261.78,98.68A5,5,0,0,1,258.9,99.6Z"/><path class="cls-1" d="M210.63,99.6a5,5,0,0,1-2.88-.92L96,19.81a5,5,0,0,1,5.77-8.17L213.52,90.51a5,5,0,0,1-2.89,9.09Z"/><path class="cls-1" d="M503.32,492.9a25.68,25.68,0,0,1-16.77-6.69c-6.27-5.77-9.65-14.57-10.05-26.14-.24-6.92-2.4-12.22-6.42-15.74-7.36-6.42-19-5.47-19.08-5.45a5,5,0,1,1-1-9.95c.65-.07,16-1.48,26.66,7.88,6.19,5.41,9.5,13.12,9.84,22.92.79,22.94,15.19,23.21,16.81,23.18a5,5,0,1,1,.43,10Z"/><path class="cls-1" d="M382.5,439.9a5,5,0,0,1-5-5v-1a5,5,0,0,1,10,0v1A5,5,0,0,1,382.5,439.9Z"/><path class="cls-1" d="M261.06,422.24a5,5,0,0,1-5-5v-267a5,5,0,1,1,10,0v267A5,5,0,0,1,261.06,422.24Z"/><path class="cls-1" d="M206.69,422.24a5,5,0,0,1-5-5v-267a5,5,0,1,1,10,0v267A5,5,0,0,1,206.69,422.24Z"/><path class="cls-1" d="M152.32,419.79a5,5,0,0,1-5-5V152.67a5,5,0,0,1,10,0V414.79A5,5,0,0,1,152.32,419.79Z"/><path class="cls-1" d="M98,413a5,5,0,0,1-5-5V159.5a5,5,0,0,1,10,0V408A5,5,0,0,1,98,413Z"/><path class="cls-1" d="M314.78,422.24a5,5,0,0,1-5-5V152.67a5,5,0,1,1,10,0V417.24A5,5,0,0,1,314.78,422.24Z"/><path class="cls-1" d="M369.8,415.59a5,5,0,0,1-5-5V156.87a5,5,0,0,1,10,0V410.59A5,5,0,0,1,369.8,415.59Z"/></g><g id="Outline"><path class="cls-1" d="M143.5,500.9a5,5,0,0,1-5-5v-15a5,5,0,0,1,10,0v15A5,5,0,0,1,143.5,500.9Z"/><path class="cls-1" d="M163.5,500.9a5,5,0,0,1-5-5v-15a5,5,0,0,1,10,0v15A5,5,0,0,1,163.5,500.9Z"/><path class="cls-1" d="M183.5,500.9a5,5,0,0,1-5-5v-15a5,5,0,0,1,10,0v15A5,5,0,0,1,183.5,500.9Z"/><path class="cls-1" d="M203.5,500.9a5,5,0,0,1-5-5v-15a5,5,0,0,1,10,0v15A5,5,0,0,1,203.5,500.9Z"/><path class="cls-1" d="M223.5,500.9a5,5,0,0,1-5-5v-15a5,5,0,0,1,10,0v15A5,5,0,0,1,223.5,500.9Z"/><path class="cls-1" d="M242.5,500.9a5,5,0,0,1-5-5v-15a5,5,0,0,1,10,0v15A5,5,0,0,1,242.5,500.9Z"/><path class="cls-1" d="M262.5,500.9a5,5,0,0,1-5-5v-15a5,5,0,0,1,10,0v15A5,5,0,0,1,262.5,500.9Z"/><path class="cls-1" d="M282.5,500.9a5,5,0,0,1-5-5v-15a5,5,0,0,1,10,0v15A5,5,0,0,1,282.5,500.9Z"/><path class="cls-1" d="M302.5,500.9a5,5,0,0,1-5-5v-15a5,5,0,0,1,10,0v15A5,5,0,0,1,302.5,500.9Z"/><path class="cls-1" d="M322.5,500.9a5,5,0,0,1-5-5v-15a5,5,0,0,1,10,0v15A5,5,0,0,1,322.5,500.9Z"/><path class="cls-1" d="M405.5,439.9a5,5,0,0,1-5-5v-1a5,5,0,0,1,10,0v1A5,5,0,0,1,405.5,439.9Z"/></g></svg>