<?xml version="1.0" ?><svg viewBox="0 0 512 512" xmlns="http://www.w3.org/2000/svg"><defs><style>.cls-1{fill:#3f456b;}</style></defs><title/><g id="Lines"><path class="cls-1" d="M174.42,432H38.35c-6.8,0-10.68-2.87-12.74-5.27-5.11-6-4-14.38-3.85-15.32C23.89,398.88,34.42,394,42.88,392a58.27,58.27,0,0,1,11.65-1.37c1.65-9.1,5.67-16.13,12-20.94,8.71-6.63,19.41-7,25-6.7l.09-.19A29.4,29.4,0,0,1,106,348.1c12.31-5.52,29-4.6,39.74,2.2A29.75,29.75,0,0,1,157,363.46c.21.48.75,2.13,1.05,3,8.48,0,15.07,2.33,19.62,6.89a20.83,20.83,0,0,1,5.54,10.43c5.34.13,13.76,1.29,19.86,6.68,4.87,4.29,7.33,10.29,7.33,17.81a21.07,21.07,0,0,1-.16,2.65,5,5,0,1,1-9.92-1.23,11.06,11.06,0,0,0,.08-1.42c0-4.59-1.29-8-4-10.32-6-5.28-17-4.07-17.13-4.05a5,5,0,0,1-5.6-5.36h0a11.74,11.74,0,0,0-3.21-8.2c-3.07-3-8.54-4.31-15.83-3.75h0a5,5,0,0,1-5.36-4.52c-.29-1.08-1.23-3.94-1.5-4.7a19.82,19.82,0,0,0-7.4-8.65c-7.83-5-21.14-5.64-30.3-1.53a19.68,19.68,0,0,0-9.44,9.79,40.39,40.39,0,0,1-2.12,4,5,5,0,0,1-5.15,2.27c-.1,0-12.32-2.07-20.85,4.46-5,3.82-7.9,10-8.65,18.46a5,5,0,0,1-5.38,4.54c-.24,0-24.39-1.74-26.84,12.19-.17,1.29-.24,5.23,1.57,7.3.37.44,1.52,1.76,5.13,1.76H174.42a5,5,0,1,1,0,10Zm-20.54-65.31Z"/><path class="cls-1" d="M236.66,474.73c-1.47,0-2.55-.06-3.09-.1H166.23c-6,0-14-2.15-18.5-8.18-2.38-3.22-4.66-8.86-2-17.42,4.12-13.39,16.19-16.91,22.4-17.83,3.77-9.83,14.68-24,36.4-24,27.26,0,36.71,14.62,39.68,21.67a33.49,33.49,0,0,1,9.06,2.54c8.8,3.94,13.65,11.5,13.65,21.3a19.16,19.16,0,0,1-6.1,14.48C253.64,473.83,242.32,474.73,236.66,474.73Zm-64.78-33.86c-.59,0-13.29.28-16.62,11.1-1.13,3.67-1,6.54.52,8.54,2.1,2.85,6.76,4.12,10.45,4.12h67.53l.39,0c3.78.29,14.71,0,19.87-4.78a9.05,9.05,0,0,0,2.87-7.12c0-13.6-14.72-14.11-16.4-14.13a5,5,0,0,1-4.87-4c-.16-.66-4.36-17.41-31.12-17.41-22.58,0-27.58,19-27.78,19.82A5,5,0,0,1,171.88,440.87Z"/><path class="cls-1" d="M101.73,500.41c-1.47,0-2.55-.06-3.09-.1H31.3c-6,0-14-2.15-18.5-8.18-2.38-3.22-4.67-8.86-2-17.42,4.12-13.39,16.19-16.91,22.4-17.83,3.77-9.83,14.68-24,36.39-24,27.27,0,36.72,14.62,39.68,21.67a33.45,33.45,0,0,1,9.07,2.54c8.8,3.93,13.65,11.5,13.65,21.3a19.14,19.14,0,0,1-6.11,14.48C118.71,499.51,107.39,500.41,101.73,500.41ZM37,466.55c-.59,0-13.3.28-16.62,11.1-1.13,3.67-1,6.54.51,8.54,2.11,2.85,6.77,4.12,10.46,4.12H98.82l.4,0c3.77.29,14.71,0,19.86-4.78a9,9,0,0,0,2.88-7.12c0-13.6-14.73-14.12-16.4-14.13a5,5,0,0,1-4.88-4c-.15-.66-4.35-17.41-31.12-17.41-22.79,0-27.57,19-27.77,19.79A5,5,0,0,1,37,466.55Z"/><path class="cls-1" d="M160.5,91.83a5,5,0,0,1-1.86-9.64C193.77,68.11,188,32.39,187.7,30.87a5,5,0,0,1,9.85-1.76,63.93,63.93,0,0,1-1.33,24.6c-3.11,12.28-11.5,28.8-33.86,37.76A4.88,4.88,0,0,1,160.5,91.83Z"/><path class="cls-1" d="M160.5,187.83a5,5,0,0,1-5-5V136.69a5,5,0,0,1,10,0v46.14A5,5,0,0,1,160.5,187.83Z"/><path class="cls-1" d="M350.5,91.83a4.93,4.93,0,0,1-1.91-.38C331.81,84.52,320.22,71.57,315.08,54a69.62,69.62,0,0,1-2.68-24.54,5,5,0,0,1,10,1.06c-.16,1.52-3.43,37.84,30.06,51.68a5,5,0,0,1-1.91,9.62Z"/><path class="cls-1" d="M352.5,187.83a5,5,0,0,1-5-5V136.69a5,5,0,0,1,10,0v46.14A5,5,0,0,1,352.5,187.83Z"/><path class="cls-1" d="M128,196.5a5,5,0,0,1-.81-9.93c48.41-8,79.76-28.6,97.54-44.45C244,124.93,252,109.41,252,109.26a5,5,0,0,1,8.94,4.48c-.34.68-8.66,17.06-29.19,35.48-18.8,16.87-51.93,38.75-103,47.21A4.65,4.65,0,0,1,128,196.5Z"/><path class="cls-1" d="M385,196.5a4.65,4.65,0,0,1-.83-.07c-51-8.46-84.16-30.34-103-47.21-20.53-18.42-28.85-34.8-29.19-35.48a5,5,0,1,1,8.94-4.48h0c.08.15,8,15.67,27.31,32.86,17.78,15.85,49.13,36.42,97.54,44.45a5,5,0,0,1-.81,9.93Z"/><path class="cls-1" d="M320.75,196.5a5.15,5.15,0,0,1-1.22-.15c-25.81-6.51-42.71-18.32-52.66-27.57l-20.51-.53c-10.87,10.55-28.49,23.43-52.91,28.16a5,5,0,1,1-1.9-9.82c23.11-4.48,39.54-17.11,49.26-26.91a5,5,0,0,1,3.68-1.48l24.56.63a5,5,0,0,1,3.35,1.41c8.85,8.58,24.63,20.12,49.57,26.41a5,5,0,0,1-1.22,9.85Z"/><path class="cls-1" d="M190.23,35.17a19.61,19.61,0,0,1-12.65-4.24c-4.12-3.48-6.2-8.67-6.2-15.43a5,5,0,0,1,10,0c0,3.65.88,6.27,2.62,7.76,2.44,2.09,6.5,2,7.86,1.8a7,7,0,0,1,.8-.06H317.34l.41,0c1.87.13,7.44-.13,10.48-2.95,1.61-1.5,2.39-3.65,2.39-6.57a5,5,0,0,1,10,0c0,5.72-1.95,10.54-5.64,13.94-6.47,6-15.93,5.68-17.82,5.56H193A22.62,22.62,0,0,1,190.23,35.17Z"/><path class="cls-1" d="M400.5,228.5h-288c-22.26,0-38.2-6.42-47.4-19.08C50,188.63,59.34,159.2,59.75,158a5,5,0,0,1,9.74,1.32c.07,1.07,2.16,27.23,43,27.23h288c40.85,0,42.94-26.16,43-27.27a5,5,0,0,1,9.74-1.28c.41,1.25,9.74,30.68-5.35,51.47C438.7,222.08,422.76,228.5,400.5,228.5ZM66.59,177.87c-.28,8.2,1,17.94,6.63,25.71,7.21,9.9,20.43,14.92,39.28,14.92h288c18.88,0,32.1-5,39.31-15,5.66-7.8,6.91-17.53,6.63-25.71-.18.25-.36.49-.55.73-11.47,14.83-31,17.94-45.39,17.94h-288c-14.38,0-33.92-3.11-45.39-17.94Z"/><path class="cls-1" d="M112.5,291.29a5,5,0,0,1-5-5V239.5a5,5,0,0,1,10,0v46.79A5,5,0,0,1,112.5,291.29Z"/><path class="cls-1" d="M400.5,291.29a5,5,0,0,1-5-5V239.5a5,5,0,0,1,10,0v46.79A5,5,0,0,1,400.5,291.29Z"/><path class="cls-1" d="M416.46,404.14H204.12a5,5,0,0,1,0-10H411.46V336.87a5,5,0,0,1,10,0v62.27A5,5,0,0,1,416.46,404.14Z"/><path class="cls-1" d="M96.54,368.38a5,5,0,0,1-5-5V336.87a5,5,0,0,1,10,0v26.51A5,5,0,0,1,96.54,368.38Z"/><path class="cls-1" d="M352.5,123.83H313.25c-19.49,0-25-12.88-29.39-23.22l-.46-1.06c-3-7.11-12.33-7.69-13-7.72H255a5,5,0,0,1,0-10h15.5c.76,0,16.39.47,22.1,13.78l.45,1.07c4.25,10,7.32,17.15,20.2,17.15H352.5a5,5,0,0,1,0,10Z"/><path class="cls-1" d="M350.5,91.83h-48a5,5,0,0,1-4.64-3.14C297.62,88.13,291.42,74,270.5,74h-30c-21.21,0-27.3,14.55-27.36,14.69a5,5,0,0,1-4.64,3.14h-48a5,5,0,0,1,0-10h45C209.06,76,219,64,240.5,64h30c21.52,0,31.44,12,35,17.83h45a5,5,0,0,1,0,10Z"/><path class="cls-1" d="M160.5,123.83c-22.26,0-38.2-6.42-47.4-19.08C98,84,107.34,54.53,107.75,53.28a5,5,0,0,1,9.74,1.32c.07,1.07,2.16,27.23,43,27.23a5,5,0,0,1,0,10c-14.38,0-33.92-3.11-45.39-17.94l-.52-.69c-.28,8.2,1,17.94,6.63,25.71,7.21,9.9,20.43,14.92,39.28,14.92a5,5,0,0,1,0,10Z"/><path class="cls-1" d="M350.5,123.83a5,5,0,0,1,0-10c18.88,0,32.1-5,39.31-15,5.66-7.8,6.91-17.53,6.63-25.7l-.55.72c-11.47,14.83-31,17.94-45.39,17.94a5,5,0,0,1,0-10c17.41,0,30.37-4.86,37.48-14.06a26.62,26.62,0,0,0,5.53-13.17,5,5,0,0,1,9.74-1.32c.41,1.25,9.74,30.68-5.35,51.47C388.7,117.41,372.76,123.83,350.5,123.83Z"/><path class="cls-1" d="M197.75,123.83H160.5a5,5,0,0,1,0-10h37.25c12.88,0,15.95-7.19,20.2-17.15l.45-1.07c5.71-13.31,21.34-13.77,22-13.78H256a5,5,0,0,1,0,10H240.59c-.66,0-10,.61-13,7.72l-.46,1.06C222.73,111,217.24,123.83,197.75,123.83Z"/><path class="cls-1" d="M447.54,324.5H313.25c-19.49,0-25-12.88-29.39-23.22l-.46-1.06c-3-7.11-12.33-7.69-13-7.72H255a5,5,0,0,1,0-10h15.5c.76,0,16.39.47,22.1,13.78l.45,1.07c4.25,10,7.32,17.15,20.2,17.15H447.54a5,5,0,0,1,0,10Z"/><path class="cls-1" d="M445.54,292.5h-143a5,5,0,0,1-4.64-3.14c-.24-.56-6.44-14.69-27.36-14.69h-30c-21.21,0-27.3,14.55-27.36,14.69a5,5,0,0,1-4.64,3.14h-141a5,5,0,1,1,0-10h138c3.56-5.86,13.48-17.83,35-17.83h30c21.52,0,31.44,12,35,17.83h140a5,5,0,0,1,0,10Z"/><path class="cls-1" d="M67.46,324.5c-22.25,0-38.2-6.42-47.4-19.08C5,284.63,14.3,255.2,14.71,254a5,5,0,0,1,9.75,1.32c.06,1.07,2.15,27.23,43,27.23a5,5,0,0,1,0,10c-14.38,0-33.92-3.11-45.39-17.94l-.52-.69c-.28,8.2,1,17.94,6.63,25.71,7.21,9.9,20.43,14.92,39.28,14.92a5,5,0,0,1,0,10Z"/><path class="cls-1" d="M445.54,324.5a5,5,0,1,1,0-10c18.87,0,32.1-5,39.31-15,5.66-7.8,6.91-17.53,6.63-25.7l-.55.72c-11.47,14.83-31,17.94-45.39,17.94a5,5,0,1,1,0-10c17.41,0,30.37-4.86,37.48-14.06a26.43,26.43,0,0,0,5.52-13.17,5,5,0,0,1,9.75-1.32c.41,1.25,9.74,30.68-5.35,51.47C483.74,318.08,467.79,324.5,445.54,324.5Z"/><path class="cls-1" d="M197.75,324.5H67.46a5,5,0,1,1,0-10H197.75c12.88,0,15.95-7.19,20.2-17.15l.45-1.07c5.71-13.31,21.34-13.77,22-13.78H256a5,5,0,0,1,0,10H240.59c-.66,0-10,.61-13,7.72l-.46,1.06C222.73,311.62,217.24,324.5,197.75,324.5Z"/><path class="cls-1" d="M416.5,244.5H96.5a5,5,0,0,1-5-5V222.13a5,5,0,0,1,10,0V234.5h310v-11a5,5,0,0,1,10,0v16A5,5,0,0,1,416.5,244.5Z"/><path class="cls-1" d="M368.5,141.69H275.92a5,5,0,0,1,0-10H363.5V118a5,5,0,0,1,10,0v18.65A5,5,0,0,1,368.5,141.69Z"/><path class="cls-1" d="M236.92,141.69H144.5a5,5,0,0,1-5-5V117.46a5,5,0,1,1,10,0v14.23h87.42a5,5,0,1,1,0,10Z"/><path class="cls-1" d="M432.5,341.87H80.5a5,5,0,0,1-5-5V319.5a5,5,0,0,1,10,0v12.37h342v-11a5,5,0,0,1,10,0v16A5,5,0,0,1,432.5,341.87Z"/><path class="cls-1" d="M82.31,443.31a4.84,4.84,0,0,1-1.7-.3,5,5,0,0,1-3-6.41l3.92-10.8a5,5,0,0,1,9.4,3.41L87,440A5,5,0,0,1,82.31,443.31Z"/><path class="cls-1" d="M448.5,500.5h-387a5,5,0,1,1,0-10h387a5,5,0,0,1,0,10Z"/><path class="cls-1" d="M427.22,436.5a5,5,0,0,1-4.75-3.42l-10.76-32.36a5,5,0,0,1,9.49-3.15L432,429.92a5,5,0,0,1-3.17,6.32A4.79,4.79,0,0,1,427.22,436.5Z"/><path class="cls-1" d="M496.5,500.5H385a5,5,0,0,1-5-5v-64a5,5,0,0,1,5-5H496.5a5,5,0,0,1,5,5v64A5,5,0,0,1,496.5,500.5ZM390,490.5H491.5v-54H390Z"/><path class="cls-1" d="M496.5,468.5H385a5,5,0,0,1,0-10H496.5a5,5,0,0,1,0,10Z"/><path class="cls-1" d="M188.75,500.39a5,5,0,0,1-3.72-8.34c5.13-5.7,5.34-17.67,5-21.8a5,5,0,0,1,10-.87c.17,2,1.43,19.42-7.51,29.36A5,5,0,0,1,188.75,500.39Z"/><path class="cls-1" d="M149.62,459.69l-.39,0c-11.29-.86-19.6-4.74-24.67-11.52-7.16-9.57-4.81-21.19-4.7-21.68a5,5,0,0,1,9.79,2c0,.18-1.47,7.86,3,13.71,3.28,4.32,9.13,6.84,17.38,7.47a5,5,0,0,1-.38,10Z"/><path class="cls-1" d="M205.37,500.39a5,5,0,0,1,0-10c7.66,0,13.38-2,17-5.95,5.32-5.77,4.8-14.13,4.79-14.21a5,5,0,0,1,10-.81c0,.51.93,12.75-7.41,21.8C224.13,497.31,215.94,500.39,205.37,500.39Z"/><path class="cls-1" d="M265.9,387.33a5,5,0,0,1-5-5V355.27a5,5,0,0,1,10,0v27.06A5,5,0,0,1,265.9,387.33Z"/><path class="cls-1" d="M287.67,387.33a5,5,0,0,1-5-5V355.27a5,5,0,0,1,10,0v27.06A5,5,0,0,1,287.67,387.33Z"/><path class="cls-1" d="M245.44,387.33a5,5,0,0,1-5-5V355.27a5,5,0,0,1,10,0v27.06A5,5,0,0,1,245.44,387.33Z"/><path class="cls-1" d="M224.33,387.33a5,5,0,0,1-5-5V355.27a5,5,0,0,1,10,0v27.06A5,5,0,0,1,224.33,387.33Z"/><path class="cls-1" d="M265.9,274.67a5,5,0,0,1-5-5V254a5,5,0,0,1,10,0v15.69A5,5,0,0,1,265.9,274.67Z"/><path class="cls-1" d="M287.67,274.67a5,5,0,0,1-5-5V254a5,5,0,1,1,10,0v15.69A5,5,0,0,1,287.67,274.67Z"/><path class="cls-1" d="M245.44,274.67a5,5,0,0,1-5-5V254a5,5,0,1,1,10,0v15.69A5,5,0,0,1,245.44,274.67Z"/><path class="cls-1" d="M224.33,274.67a5,5,0,0,1-5-5V254a5,5,0,0,1,10,0v15.69A5,5,0,0,1,224.33,274.67Z"/><path class="cls-1" d="M336.5,376.33a5,5,0,0,1-5-5v-6.65a5,5,0,0,1,10,0v6.65A5,5,0,0,1,336.5,376.33Z"/><path class="cls-1" d="M368.5,376.33a5,5,0,0,1-5-5v-6.65a5,5,0,0,1,10,0v6.65A5,5,0,0,1,368.5,376.33Z"/><path class="cls-1" d="M246.1,322a5,5,0,0,1-5-5v-6.65a5,5,0,0,1,10,0V317A5,5,0,0,1,246.1,322Z"/><path class="cls-1" d="M265.9,322a5,5,0,0,1-5-5v-6.65a5,5,0,0,1,10,0V317A5,5,0,0,1,265.9,322Z"/><path class="cls-1" d="M256,153.67a5,5,0,0,1-5-5V142a5,5,0,0,1,10,0v6.66A5,5,0,0,1,256,153.67Z"/><path class="cls-1" d="M336.5,272.51a5,5,0,0,1-5-5v-6.65a5,5,0,0,1,10,0v6.65A5,5,0,0,1,336.5,272.51Z"/><path class="cls-1" d="M368.5,272.51a5,5,0,0,1-5-5v-6.65a5,5,0,0,1,10,0v6.65A5,5,0,0,1,368.5,272.51Z"/><path class="cls-1" d="M145.73,272.51a5,5,0,0,1-5-5v-6.65a5,5,0,0,1,10,0v6.65A5,5,0,0,1,145.73,272.51Z"/><path class="cls-1" d="M177.73,272.51a5,5,0,0,1-5-5v-6.65a5,5,0,0,1,10,0v6.65A5,5,0,0,1,177.73,272.51Z"/><path class="cls-1" d="M182,162.81a5,5,0,0,1-5-5v-6.66a5,5,0,1,1,10,0v6.66A5,5,0,0,1,182,162.81Z"/><path class="cls-1" d="M333.86,162.81a5,5,0,0,1-5-5v-6.66a5,5,0,1,1,10,0v6.66A5,5,0,0,1,333.86,162.81Z"/><path class="cls-1" d="M462.73,139.06H371a5,5,0,0,1,0-10l91.65,0c13.35-.21,23.33-10.51,23.33-24a24.38,24.38,0,0,0-20-24A5,5,0,0,1,462,74.85a40.75,40.75,0,0,0-77.54-24.67,5,5,0,0,1-8.54,1.4,19.45,19.45,0,0,0-34,16.87,5,5,0,0,1-4.05,6.11A28.08,28.08,0,0,0,332.56,76,5,5,0,1,1,329,66.66c.81-.31,1.64-.59,2.47-.85,0-.63-.06-1.27-.06-1.91a29.46,29.46,0,0,1,46.76-23.84,50.75,50.75,0,0,1,94.52,32.4A34.39,34.39,0,0,1,496,105.05c0,18.85-14.6,33.79-33.23,34Z"/></g><g id="Outline"><path class="cls-1" d="M471,388.4a5,5,0,0,1-4.75-3.44c-5.05-15.66-23.11-14.74-23.29-14.73a5,5,0,1,1-.61-10c6.79-.42,19.07,1.67,27.2,10.7,3.85-6.89,11.27-13.49,24.47-14.77a5,5,0,0,1,1,9.95c-17.9,1.74-18.92,15.83-19,17.43a5,5,0,0,1-4.31,4.8A5.48,5.48,0,0,1,471,388.4Z"/><path class="cls-1" d="M51.66,61.15A5,5,0,0,1,47,58C41.07,42.81,23.59,44.64,22.84,44.72a5,5,0,0,1-1.2-9.92c6.76-.84,19.14.5,27.81,9C52.87,36.7,59.88,29.66,73,27.58a5,5,0,1,1,1.57,9.87C56.79,40.28,56.63,54.41,56.67,56a5,5,0,0,1-4,5A4.92,4.92,0,0,1,51.66,61.15Z"/></g></svg>