<?xml version="1.0" ?><svg viewBox="0 0 512 512" xmlns="http://www.w3.org/2000/svg"><defs><style>.cls-1{fill:#3f456b;}</style></defs><title/><g id="Lines"><path class="cls-1" d="M496,138H401.26c-8.46,0-15.26-2.62-20.23-7.79-8.11-8.43-8.07-20.65-8-22.09V16h10v92.39c0,.07-.22,9.27,5.28,14.93,3,3.11,7.38,4.68,13,4.68H496Z"/><path class="cls-1" d="M469.68,468H330a5,5,0,0,1,0-10H469.68c11.75,0,21.32-10.6,21.32-23.62V135.62c0-11.37-10.55-24.31-14.62-28.33-.67-.68-62.23-63.27-75-76.09A38.74,38.74,0,0,0,375.68,20H156.05A23.34,23.34,0,0,0,133,43v58a5,5,0,0,1-10,0V43c0-17.89,15.13-33,33.05-33H375.59a48.72,48.72,0,0,1,32.82,14.13c12.84,12.85,74.43,75.47,75,76.1S501,117.8,501,135.62V434.38C501,452.92,487,468,469.68,468Z"/><path class="cls-1" d="M289,408.24a5,5,0,0,1-3.09-1.07l-97-76.24a5,5,0,0,1,0-7.86l97-76.24a5,5,0,0,1,8.09,3.93V281h86a5,5,0,0,1,5,5v82a5,5,0,0,1-5,5H294v30.24a5,5,0,0,1-5,5ZM200.09,327,284,393V368a5,5,0,0,1,5-5h86V291H289a5,5,0,0,1-5-5V261.05Z"/><path class="cls-1" d="M310.65,500.9h0L35.5,500.8a23.89,23.89,0,0,1-23.85-23.86l.14-357.26A23.89,23.89,0,0,1,35.65,95.83h0l275.14.1a23.85,23.85,0,0,1,23.85,23.87l-.06,165h-10l.06-165a13.84,13.84,0,0,0-13.85-13.86l-275.14-.1h0a13.88,13.88,0,0,0-13.86,13.86l-.14,357.25A13.87,13.87,0,0,0,35.5,490.8l275.15.1h0a13.84,13.84,0,0,0,13.86-13.85l0-109h10l0,109.05a23.85,23.85,0,0,1-23.86,23.85Z"/></g><g id="Outline"><path class="cls-1" d="M437,199H371a5,5,0,0,1,0-10h66a5,5,0,0,1,0,10Z"/><path class="cls-1" d="M437,247H371a5,5,0,0,1,0-10h66a5,5,0,0,1,0,10Z"/><path class="cls-1" d="M437,292H411a5,5,0,0,1,0-10h26a5,5,0,0,1,0,10Z"/><path class="cls-1" d="M437,340H411a5,5,0,0,1,0-10h26a5,5,0,0,1,0,10Z"/><path class="cls-1" d="M437,386H411a5,5,0,0,1,0-10h26a5,5,0,0,1,0,10Z"/><path class="cls-1" d="M277,185H68a5,5,0,0,1,0-10H277a5,5,0,0,1,0,10Z"/><path class="cls-1" d="M277,233.3H68a5,5,0,0,1,0-10H277a5,5,0,0,1,0,10Z"/><path class="cls-1" d="M192,284.81H68a5,5,0,0,1,0-10H192a5,5,0,0,1,0,10Z"/><path class="cls-1" d="M145,333.11H68a5,5,0,0,1,0-10h77a5,5,0,0,1,0,10Z"/><path class="cls-1" d="M192,384.63H68a5,5,0,0,1,0-10H192a5,5,0,0,1,0,10Z"/><path class="cls-1" d="M277,434H68a5,5,0,0,1,0-10H277a5,5,0,0,1,0,10Z"/></g></svg>