<?xml version="1.0" ?><svg viewBox="0 0 512 512" xmlns="http://www.w3.org/2000/svg"><defs><style>.cls-1{fill:#3f456b;}</style></defs><title/><g id="Lines"><path class="cls-1" d="M496,138H401.26c-8.46,0-15.26-2.62-20.23-7.79-8.11-8.43-8.07-20.64-8-22.09V16h10v92.39c0,.07-.22,9.27,5.28,14.93,3,3.11,7.38,4.68,13,4.68H496Z"/><path class="cls-1" d="M472.68,468H315a5,5,0,0,1,0-10H472.68c11.75,0,21.32-10.6,21.32-23.62V135.62c0-11.37-10.55-24.31-14.62-28.33-.67-.68-62.23-63.27-75-76.09A38.71,38.71,0,0,0,378.68,20H159.05A23.34,23.34,0,0,0,136,43V225a5,5,0,0,1-10,0V43c0-17.89,15.13-33,33.05-33H378.59a48.83,48.83,0,0,1,32.82,14.13c12.84,12.85,74.43,75.47,75,76.1S504,117.8,504,135.62V434.38C504,452.92,490,468,472.68,468Z"/><path class="cls-1" d="M281.88,500.35a5,5,0,0,1-3.54-1.46l-99.1-99.1-99.09,99.1a5,5,0,0,1-7.07,0L13.39,439.2a5,5,0,0,1,0-7.07L112.48,333,14.11,234.66a5,5,0,0,1,0-7.07L73.8,167.9a5,5,0,0,1,7.07,0l98.38,98.37,98.36-98.37a5,5,0,0,1,7.07,0l59.69,59.69a5,5,0,0,1,0,7.06l-98,98.76,98.72,98.72a5,5,0,0,1,0,7.07l-59.69,59.69A5,5,0,0,1,281.88,500.35ZM24,435.66l52.62,52.62,99.1-99.1a5,5,0,0,1,7.07,0l99.1,99.1,52.62-52.62L235.79,337a5,5,0,0,1,0-7.06l98-98.76-52.63-52.63-98.37,98.37a5,5,0,0,1-7.07,0L77.34,178.51,24.72,231.12l98.37,98.37a5,5,0,0,1,0,7.07Z"/><path class="cls-1" d="M246.8,467H160c-29.47,0-30.87-27.84-30.88-28.12a5,5,0,0,1,10-.4C139.21,440.41,140.6,457,160,457h86.8a5,5,0,0,1,0,10Z"/></g><g id="Outline"><path class="cls-1" d="M330.33,106H190a5,5,0,0,1,0-10H330.33a5,5,0,0,1,0,10Z"/><path class="cls-1" d="M330.33,154H190a5,5,0,0,1,0-10H330.33a5,5,0,0,1,0,10Z"/><path class="cls-1" d="M437,199H369a5,5,0,0,1,0-10h68a5,5,0,0,1,0,10Z"/><path class="cls-1" d="M224,199H190a5,5,0,0,1,0-10h34a5,5,0,0,1,0,10Z"/><path class="cls-1" d="M437,247H369a5,5,0,0,1,0-10h68a5,5,0,0,1,0,10Z"/><path class="cls-1" d="M437,292H336a5,5,0,0,1,0-10H437a5,5,0,0,1,0,10Z"/><path class="cls-1" d="M437,340H336a5,5,0,0,1,0-10H437a5,5,0,0,1,0,10Z"/><path class="cls-1" d="M437,386H369a5,5,0,0,1,0-10h68a5,5,0,0,1,0,10Z"/></g></svg>