<?xml version="1.0" ?><svg viewBox="0 0 512 512" xmlns="http://www.w3.org/2000/svg"><defs><style>.cls-1{fill:#3f456b;}</style></defs><title/><g id="Lines"><path class="cls-1" d="M81.19,469.57A21.81,21.81,0,1,1,103,447.76,21.83,21.83,0,0,1,81.19,469.57Zm0-33.62A11.81,11.81,0,1,0,93,447.76,11.83,11.83,0,0,0,81.19,436Z"/><path class="cls-1" d="M448.19,87.62A32.81,32.81,0,1,1,481,54.81,32.85,32.85,0,0,1,448.19,87.62Zm0-55.62A22.81,22.81,0,1,0,471,54.81,22.83,22.83,0,0,0,448.19,32Z"/><path class="cls-1" d="M256.86,469A212.75,212.75,0,0,1,106.42,105.81,212.75,212.75,0,0,1,469.6,256.25C469.6,373.56,374.17,469,256.86,469Zm0-415.5c-111.8,0-202.75,90.95-202.75,202.75S145.06,459,256.86,459,459.6,368.05,459.6,256.25,368.65,53.5,256.86,53.5Z"/><path class="cls-1" d="M104.5,402.27a5,5,0,0,1-4-8c1.31-1.72,33.13-41.78,107.81-31.51,11,1.51,22.9,3.87,35.52,6.37,59.07,11.68,132.58,26.22,197.36-27.24a5,5,0,0,1,6.37,7.71c-30.45,25.13-65.28,38.31-106.48,40.29-35.26,1.69-69.23-5-99.19-10.95-12.47-2.47-24.25-4.8-35-6.27-69-9.49-98.23,27.32-98.52,27.7A5,5,0,0,1,104.5,402.27Z"/><path class="cls-1" d="M144.76,149.26a74.27,74.27,0,0,1-27.92-5.07c-16.85-6.76-23.56-18-23.83-18.51a5,5,0,0,1,8.62-5.05c.14.22,5.75,9.21,19.62,14.55,18.9,7.28,44.49,4.58,74-7.79l4.71-2c73.84-31,143.59-60.23,206.61-20.14a5,5,0,1,1-5.37,8.44C342.6,76.42,278.3,103.4,203.84,134.63l-4.72,2C179,145,160.83,149.26,144.76,149.26Z"/><path class="cls-1" d="M348.31,239.24a56.93,56.93,0,0,1-15.32-2c-12.74-3.56-22.08-11.83-27-23.89a40.59,40.59,0,0,1,2.88-37,36.11,36.11,0,0,1,28.86-16.83c21.11-1.19,41.87,7.35,61.34,16.19,10.95,5,20.27,5.9,27.72,2.74,9.34-4,12.88-13.29,12.91-13.38a5,5,0,1,1,9.42,3.36c-.19.54-4.94,13.51-18.42,19.23-10.13,4.29-22.17,3.34-35.77-2.84-18.33-8.34-37.79-16.39-56.64-15.31a25.88,25.88,0,0,0-21,12.19,30.59,30.59,0,0,0-2.07,27.83c8.35,20.49,31.54,22.34,50.45,17.24,9.59-2.59,19.34-6.05,28.77-9.4,24.1-8.56,44.92-16,59.52-8.48,6.49,3.33,11.05,9.39,13.56,18a5,5,0,1,1-9.61,2.79c-1.73-6-4.51-9.85-8.51-11.9-10.76-5.51-30.61,1.54-51.62,9-9.61,3.42-19.54,6.95-29.51,9.63A77.12,77.12,0,0,1,348.31,239.24Z"/><path class="cls-1" d="M92.91,388.86a5,5,0,0,1-5-4.56c-.11-1.38-2.31-34.05,44.89-61.3,43.74-25.24,71.41-19.61,100.7-13.65,10.85,2.21,22.06,4.49,34.41,5.17,40.57,2.23,47.09-18.94,47.35-19.84a4.63,4.63,0,0,1,.3-.81c3.24-6.89,1.72-13.87-4.29-19.64-9-8.61-26-12.92-46.64-11.83-26.33,1.39-57.92,11.31-91.35,28.71s-61.57,20.15-83.75,8.24c-36.8-19.78-42.74-72.36-43-74.59a5,5,0,0,1,10-1h0c0,.49,5.66,49.61,37.8,66.85,19.08,10.23,44.1,7.43,74.36-8.32,34.69-18.05,67.7-28.36,95.45-29.83,23.77-1.25,43,3.94,54.09,14.61,9,8.62,11.42,20.1,6.57,30.76-1.31,4.09-11.24,29.26-57.41,26.72-13.07-.72-24.65-3.07-35.85-5.35-28.58-5.81-53.26-10.83-93.71,12.51-41.32,23.86-40,50.7-39.92,51.84a5,5,0,0,1-4.61,5.34Z"/><path class="cls-1" d="M307.62,449.77c-33,0-53-12.71-77.68-28.44-7.12-4.54-14.49-9.23-22.77-14-46.15-26.58-83.06,6.85-83.43,7.19a5,5,0,1,1-6.8-7.33,84.26,84.26,0,0,1,27.73-15.76c15.67-5.41,40.1-8.54,67.49,7.24,8.47,4.88,15.94,9.63,23.15,14.23,34.87,22.21,57.91,36.89,123.86,18.62a5,5,0,1,1,2.66,9.64C340,447.2,322.5,449.77,307.62,449.77Z"/></g><g id="Outline"><path class="cls-1" d="M495.18,500.18a5,5,0,0,1-3.54-1.47l-2.12-2.12a5,5,0,1,1,7.07-7.07l2.12,2.12a5,5,0,0,1-3.53,8.54Zm-16.27-16.27a5,5,0,0,1-3.53-1.46l-2.13-2.12a5,5,0,1,1,7.08-7.08l2.12,2.13a5,5,0,0,1-3.54,8.53Zm-16.26-16.26a5,5,0,0,1-3.54-1.47L457,464.06a5,5,0,1,1,7.07-7.07l2.12,2.12a5,5,0,0,1-3.53,8.54Zm-16.27-16.27a5,5,0,0,1-3.53-1.46l-2.12-2.12a5,5,0,1,1,7.07-7.07l2.12,2.12a5,5,0,0,1-3.54,8.53Zm-16.26-16.26a5,5,0,0,1-3.53-1.46l-2.13-2.12a5,5,0,0,1,7.08-7.08l2.12,2.13a5,5,0,0,1-3.54,8.53Z"/><path class="cls-1" d="M83.18,88.18a5,5,0,0,1-3.54-1.47l-2.12-2.12a5,5,0,0,1,7.07-7.07l2.12,2.12a5,5,0,0,1-3.53,8.54ZM66.91,71.91a5,5,0,0,1-3.53-1.46l-2.13-2.12a5,5,0,1,1,7.08-7.08l2.12,2.13a5,5,0,0,1-3.54,8.53ZM50.65,55.65a5,5,0,0,1-3.54-1.47L45,52.06A5,5,0,0,1,52.06,45l2.12,2.12a5,5,0,0,1-3.53,8.54ZM34.38,39.38a5,5,0,0,1-3.53-1.46L28.73,35.8a5,5,0,0,1,7.07-7.07l2.12,2.12a5,5,0,0,1-3.54,8.53ZM18.12,23.12a5,5,0,0,1-3.53-1.46l-2.13-2.12a5,5,0,0,1,7.08-7.08l2.12,2.13a5,5,0,0,1-3.54,8.53Z"/><path class="cls-1" d="M297.49,345a5,5,0,0,1-.41-10c23.34-1.95,41.46-16.69,45.09-36.68,3.46-19.11-4.77-35.3-22-43.3a5,5,0,0,1,4.21-9.08c21.31,9.9,31.91,30.65,27.64,54.16-4.44,24.51-26.17,42.54-54.08,44.86Z"/><path class="cls-1" d="M143,176.62a91.51,91.51,0,0,1-31.75-5.41C88.32,162.79,78.12,147.6,77.7,147A5,5,0,0,1,86,141.45c.14.2,9.22,13.44,29.23,20.6,26.82,9.59,61.19,4,99.4-16.14a5,5,0,0,1,4.66,8.85C198.61,165.69,170.89,176.62,143,176.62Z"/><path class="cls-1" d="M333.39,415.89c-6.42,0-10.51-.35-11.13-.41a5,5,0,1,1,.92-10c.75.07,57.78,4.84,94.41-25.49a5,5,0,1,1,6.38,7.7C393.93,412.61,352.91,415.89,333.39,415.89Z"/><path class="cls-1" d="M371.75,357.33a5,5,0,0,1,0-10c.15,0,8.64-.16,23-5.52,13.35-5,34.62-15.59,60.17-37.87a5,5,0,0,1,6.58,7.54C409.47,356.81,373.27,357.33,371.75,357.33Z"/><path class="cls-1" d="M93.63,324.51a4.43,4.43,0,0,1-.81-.07c-16.46-2.65-29.9-12.33-38.86-28a75.66,75.66,0,0,1-8.55-22.8A5,5,0,0,1,55.28,272h0a66.27,66.27,0,0,0,7.51,19.75c7.51,13,18.15,20.65,31.63,22.82a5,5,0,0,1-.79,9.94Z"/><path class="cls-1" d="M126.43,278.92c-14.91,0-31.61-4.69-41.08-18.1a42.54,42.54,0,0,1-7.52-21.39c-.67-9,1.79-16.53,7.13-21.81a26.35,26.35,0,0,1,21.69-7c8.28,1,15.81,5.54,19.66,11.8A18.82,18.82,0,0,1,111,251a5,5,0,0,1,0-10,8.84,8.84,0,0,0,6.79-13.3c-2.22-3.61-7.19-6.47-12.37-7.11A16.35,16.35,0,0,0,92,224.73c-4,4-4.49,9.78-4.18,14a32.63,32.63,0,0,0,5.72,16.37c8.83,12.5,27.26,15,40.35,13.41,11.74-1.46,21.88-6.71,32.62-12.27,4.42-2.3,9-4.67,13.72-6.77,21.37-9.52,44.09-18.53,65.46-19.95a5,5,0,0,1,.66,10c-19.81,1.32-41.53,10-62,19.1-4.47,2-8.91,4.29-13.2,6.51-11.05,5.73-22.47,11.64-36,13.32A69.75,69.75,0,0,1,126.43,278.92Z"/><path class="cls-1" d="M355.36,214.07a35.26,35.26,0,0,1-7.87-.86,20.28,20.28,0,0,1-10.43-5.49,19.6,19.6,0,0,1-4.92-17.6c1.59-8.58,7.81-16.77,15.46-20.38,9.65-4.55,22.64-4.79,35.63-.65a5,5,0,0,1-3,9.53c-10.45-3.33-21-3.27-28.33.17C347.13,181,343,186.55,342,192a9.6,9.6,0,0,0,2.32,8.86,10.67,10.67,0,0,0,5.43,2.65c8.1,1.85,16.86-.8,25.14-3.68a5,5,0,1,1,3.28,9.45C371.19,211.64,363.37,214.07,355.36,214.07Z"/><path class="cls-1" d="M238,145a5,5,0,0,1-2.24-9.47c.59-.29,14.33-7.15,22.48-10.21a5,5,0,1,1,3.52,9.36c-7.66,2.87-21.39,9.72-21.52,9.79A5,5,0,0,1,238,145Z"/></g></svg>