<?xml version="1.0" ?><svg viewBox="0 0 512 512" xmlns="http://www.w3.org/2000/svg"><defs><style>.cls-1{fill:#3f456b;}</style></defs><title/><g id="Lines"><path class="cls-1" d="M408,439a5,5,0,0,1-5-5V296.88a31.37,31.37,0,0,1,2.55-13.57c2.8-6.64,9.19-15.55,23.77-20.27,3.4-1.1,8.22-2.34,13.31-3.64l.3-.08.24-.05,18.62-3.8c1.81-.49,10.82-2.52,17.06,3.15,4.63,4.2,6.1,11.12,4.36,20.55a55.67,55.67,0,0,1-3.4,13.82c-4,10.12-10.56,16.1-19,17.32L413,323.25V434A5,5,0,0,1,408,439Zm37.29-170-.18,0c-4.93,1.26-9.59,2.45-12.7,3.47-20.71,6.7-19.45,23.53-19.43,23.7s0,.3,0,.45v16.18l45.54-12.32a5.28,5.28,0,0,1,.67-.13c4.77-.61,8.55-4.29,11.23-10.94A45.42,45.42,0,0,0,473.27,278c0-.16,0-.33.07-.5,1.08-5.71.66-9.8-1.19-11.5-2.09-1.92-6.46-1.27-7.83-.89l-.36.09Z"/><path class="cls-1" d="M367,474c-11.48,0-21.88-4.44-28.53-12.19a31,31,0,0,1-7-25.27c3.05-19.81,23.38-35.94,45.31-35.94,11.49,0,21.88,4.45,28.53,12.2a30.93,30.93,0,0,1,7,25.26C409.27,457.91,389,474,367,474Zm9.75-63.4c-17.2,0-33.1,12.32-35.43,27.46a21.1,21.1,0,0,0,4.74,17.23c4.75,5.54,12.38,8.71,20.94,8.71,17.21,0,33.1-12.32,35.43-27.46h0a21.15,21.15,0,0,0-4.73-17.23C393,413.81,385.32,410.63,376.76,410.63Z"/><path class="cls-1" d="M204.64,365.64a5,5,0,0,1-3.53-8.53L389.66,168.55l-44.11-44.1L157.13,312.88a5,5,0,1,1-7.07-7.07l192-192a5,5,0,0,1,7.07,0L400.26,165a5,5,0,0,1,0,7.07L208.18,364.18A5,5,0,0,1,204.64,365.64Z"/><path class="cls-1" d="M174.13,421.42a16.22,16.22,0,0,1-11.35-4.88L98.16,351.92A16.46,16.46,0,0,1,93.33,342a12.75,12.75,0,0,1,3.52-10.36l32.73-32.73A12.78,12.78,0,0,1,140,295.39a16.43,16.43,0,0,1,9.92,4.83l64.61,64.62a16.42,16.42,0,0,1,4.84,9.92,12.76,12.76,0,0,1-3.53,10.36l-32.72,32.73h0A12.51,12.51,0,0,1,174.13,421.42Zm5.4-7.1h0Zm-41-109a2.65,2.65,0,0,0-1.89.66l-32.73,32.73a2.94,2.94,0,0,0-.64,2.3,6.58,6.58,0,0,0,2,3.84l64.62,64.62c2.2,2.2,5,2.45,6.15,1.31l32.72-32.73a2.91,2.91,0,0,0,.65-2.3,6.6,6.6,0,0,0-2-3.84l-64.62-64.62a6.5,6.5,0,0,0-3.83-2Z"/><path class="cls-1" d="M55,385.51h-.79a5,5,0,1,1,.15-10H55c26.35,0,49.29-23.9,49.52-24.14a5,5,0,1,1,7.26,6.88C110.69,359.37,85.58,385.51,55,385.51Z"/><path class="cls-1" d="M133.4,463.64h0a5,5,0,0,1-5-5c.2-30.46,26.16-55.4,27.27-56.45a5,5,0,0,1,6.88,7.26h0c-.24.23-24,23.1-24.15,49.25A5,5,0,0,1,133.4,463.64Z"/><path class="cls-1" d="M122.38,501.43a19.93,19.93,0,0,1-14-6L19.24,406.29c-7.39-7.39-8-18.8-1.35-25.44l9.46-9.46C33.94,364.8,45,365.52,52.49,373l89.18,89.17a20.35,20.35,0,0,1,6,12.51,15.58,15.58,0,0,1-4.39,12.63l-9.46,9.47h0A16.06,16.06,0,0,1,122.38,501.43Zm7.94-8.15h0ZM38.43,376.92a5.55,5.55,0,0,0-4,1.54L25,387.92c-2.4,2.4-2.43,7.52,1.35,11.3l89.17,89.17c3.79,3.79,8.9,3.76,11.31,1.35l9.46-9.46a5.75,5.75,0,0,0,1.5-4.68,10.34,10.34,0,0,0-3.15-6.32L45.42,380.11A10.19,10.19,0,0,0,38.43,376.92Z"/><path class="cls-1" d="M341.09,189a15.93,15.93,0,1,1,11.27-4.66h0A15.87,15.87,0,0,1,341.09,189Zm7.74-8.2h0Zm-7.74-13.67a5.94,5.94,0,1,0,4.2,10.14h0a5.94,5.94,0,0,0-4.2-10.14Z"/><path class="cls-1" d="M209,321.05a15.93,15.93,0,1,1,11.27-4.66h0A15.88,15.88,0,0,1,209,321.05Zm7.73-8.19h0ZM209,299.18a5.94,5.94,0,1,0,4.2,1.74A5.9,5.9,0,0,0,209,299.18Z"/><path class="cls-1" d="M242,288a15.94,15.94,0,1,1,11.27-4.66A15.93,15.93,0,0,1,242,288Zm0-21.87a5.94,5.94,0,1,0,4.2,1.74A5.92,5.92,0,0,0,242,266.16Z"/><path class="cls-1" d="M275,255a15.93,15.93,0,1,1,11.27-4.66A15.88,15.88,0,0,1,275,255Zm0-21.87a5.94,5.94,0,1,0,4.2,1.74A5.92,5.92,0,0,0,275,233.13Z"/><path class="cls-1" d="M308.07,222a15.94,15.94,0,1,1,11.27-4.67h0A15.81,15.81,0,0,1,308.07,222Zm7.73-8.2h0Zm-7.73-13.67a5.94,5.94,0,1,0,4.2,10.13,5.93,5.93,0,0,0-4.2-10.13Z"/><path class="cls-1" d="M445.55,130.43a5,5,0,0,1-2.47-9.36c.05,0,6.58-3.83,15.88-13.69,8.25-8.74,20.35-24.09,32-48.17L452.82,21.06c-24,11.65-38.94,24.06-47.37,32.58-9.5,9.61-13,16.45-13,16.52a5,5,0,0,1-9-4.4c.6-1.24,15.37-30.54,68.27-55.26a5,5,0,0,1,5.65,1l43.14,43.14a5,5,0,0,1,1,5.66C476.88,113,449.17,129.12,448,129.78A5,5,0,0,1,445.55,130.43Z"/><path class="cls-1" d="M408.92,179.41l-.74,0a14.83,14.83,0,0,1-9.69-4.39L339.7,116.21a14.83,14.83,0,0,1-4.39-9.69A12.89,12.89,0,0,1,339,96.59l6.85-6.85A245.78,245.78,0,0,1,365.57,74c15.49-11.26,21.77-13.57,25.83-9.51l58.79,58.79c4,4,1.84,10.26-8.53,24.85a214.61,214.61,0,0,1-14.82,18.78l-8.72,8.73A12.88,12.88,0,0,1,408.92,179.41ZM385.78,73c-7,2.77-29.12,20.07-32.82,23.77l-6.84,6.85a3,3,0,0,0-.82,2.34,4.83,4.83,0,0,0,1.47,3.14l58.79,58.79a4.8,4.8,0,0,0,3.14,1.47,3,3,0,0,0,2.34-.81h0l8.72-8.73c3.44-3.44,19.45-24.16,22-30.87Z"/><path class="cls-1" d="M81,379.13a5,5,0,0,1-5-4.59L54.86,115.16a5,5,0,0,1,4.58-5.39L348.85,86.21a5,5,0,0,1,.81,10L65.24,119.33,86,373.73a5,5,0,0,1-4.58,5.39Z"/><path class="cls-1" d="M136,453.32a5,5,0,0,1-.39-10L336.6,427a5,5,0,1,1,.81,10l-201,16.36Z"/><path class="cls-1" d="M408.62,431.12a5,5,0,0,1-.4-10l33.39-2.72L433,312.08a5,5,0,0,1,10-.81L452,422.59a5,5,0,0,1-4.57,5.39L409,431.11Z"/><path class="cls-1" d="M434.14,270.14a5,5,0,0,1-5-4.59l-8.49-104.21a5,5,0,0,1,10-.81l8.48,104.21a5,5,0,0,1-4.58,5.38A2.75,2.75,0,0,1,434.14,270.14Z"/></g><g id="Outline"><path class="cls-1" d="M97.37,158.88a5,5,0,0,1-.44-10l194-17.59a5,5,0,1,1,.9,10l-194,17.59A3.54,3.54,0,0,1,97.37,158.88Z"/><path class="cls-1" d="M100,187.76a5,5,0,0,1-.44-10l157.68-14.3a5,5,0,1,1,.9,10l-157.68,14.3A3.54,3.54,0,0,1,100,187.76Z"/><path class="cls-1" d="M102.61,216.65a5,5,0,0,1-.44-10L225.8,195.45a5,5,0,1,1,.9,10L103.07,216.62A3.55,3.55,0,0,1,102.61,216.65Z"/><path class="cls-1" d="M105.14,244.53a5,5,0,0,1-.44-10l99.4-9a5,5,0,1,1,.9,10l-99.4,9Z"/><path class="cls-1" d="M342.61,252.11a5,5,0,0,1-.45-10l44-4a5,5,0,0,1,.9,10l-44,4Z"/><path class="cls-1" d="M107.76,273.41a5,5,0,0,1-.45-10l61.59-5.58a5,5,0,1,1,.9,10l-61.58,5.58A3.62,3.62,0,0,1,107.76,273.41Z"/><path class="cls-1" d="M288.91,318.08a5,5,0,0,1-.45-10L377.55,300a5,5,0,1,1,.9,10l-89.08,8.08Z"/><path class="cls-1" d="M267.9,349.1a5,5,0,0,1-.43-10L378,329.37a5,5,0,0,1,.88,10l-110.56,9.75A3.39,3.39,0,0,1,267.9,349.1Z"/><path class="cls-1" d="M252.82,378.59a5,5,0,0,1-.44-10l128.18-11.35a5,5,0,1,1,.88,10L253.26,378.57Z"/><path class="cls-1" d="M234.3,409.39a5,5,0,0,1-.43-10l149.31-13.26a5,5,0,1,1,.88,10L234.75,409.37Z"/><path class="cls-1" d="M318,286a5,5,0,0,1-.42-10l72.51-6.26a5,5,0,1,1,.86,10L318.43,286Z"/></g></svg>