<?xml version="1.0" ?><svg viewBox="0 0 512 512" xmlns="http://www.w3.org/2000/svg"><defs><style>.cls-1{fill:#3f456b;}</style></defs><title/><g id="Lines"><path class="cls-1" d="M317,478.38a5,5,0,0,1-4.6-3,112.39,112.39,0,0,0-31.42-42.59,5,5,0,0,1,.78-8.22,49,49,0,1,0-49.59-1.33,5,5,0,0,1,.46,8.16A111.79,111.79,0,0,0,199.8,474.3a5,5,0,0,1-9.15-4,122.46,122.46,0,0,1,30.64-42.46,59,59,0,1,1,71.15,1.78,123,123,0,0,1,29.1,41.83,5,5,0,0,1-2.62,6.57A5.06,5.06,0,0,1,317,478.38Z"/><path class="cls-1" d="M255.91,501.36A102.09,102.09,0,1,1,358,399.27,102.21,102.21,0,0,1,255.91,501.36Zm0-194.18A92.09,92.09,0,1,0,348,399.27,92.19,92.19,0,0,0,255.91,307.18Z"/><path class="cls-1" d="M365.89,181.18a5,5,0,0,1-2.58-9.29c29.52-17.71,72.26-9.58,74.06-9.22a5,5,0,1,1-1.93,9.81c-.57-.11-40.85-7.69-67,8A5,5,0,0,1,365.89,181.18Z"/><path class="cls-1" d="M210.29,120.94a5,5,0,0,1-4.95-4.35c-1.51-11.55-10.53-23.78-10.62-23.9a5,5,0,0,1,8-6c.44.58,10.68,14.46,12.51,28.57a5,5,0,0,1-4.31,5.61A4.73,4.73,0,0,1,210.29,120.94Z"/><path class="cls-1" d="M400.5,325.82H352a5,5,0,0,1,0-10h66.67a72.55,72.55,0,0,0,50.8-21.42,71.79,71.79,0,0,0,21-51,72.65,72.65,0,0,0-59.66-71.57,5,5,0,0,1-3.95-6.17A115.93,115.93,0,0,0,314.7,20.83,115.85,115.85,0,0,0,206.37,95.57a5,5,0,0,1-8.54,1.4A59.61,59.61,0,0,0,93.77,148.74a5,5,0,0,1-.69,3.93,5,5,0,0,1-3.36,2.18,81,81,0,0,0,10.66,160.93H160.5a5,5,0,0,1,0,10H100.08A91,91,0,0,1,83,146a69.61,69.61,0,0,1,68.72-80.83,69.34,69.34,0,0,1,48.35,19.54,125.86,125.86,0,0,1,237.65,78.45,82.65,82.65,0,0,1,62.74,80.31,82.44,82.44,0,0,1-81.74,82.38Z"/><path class="cls-1" d="M152.82,157.65a5,5,0,0,1-1.56-.26C122,147.79,83.53,155.9,83.14,156A5,5,0,0,1,81,146.21c1.68-.37,41.51-8.78,73.35,1.68a5,5,0,0,1-1.56,9.76Z"/></g><g id="Outline"><path class="cls-1" d="M215.43,278a5,5,0,0,1-3.53-8.53,62.55,62.55,0,0,1,88.48,0,5,5,0,1,1-7.07,7.07,52.56,52.56,0,0,0-74.34,0A5,5,0,0,1,215.43,278Z"/><path class="cls-1" d="M320.58,254.25a5,5,0,0,1-3.54-1.47,86.13,86.13,0,0,0-121.81,0,5,5,0,0,1-7.07-7.07,96.12,96.12,0,0,1,136,0,5,5,0,0,1,0,7.07A5,5,0,0,1,320.58,254.25Z"/><path class="cls-1" d="M345.43,229.4a5,5,0,0,1-3.54-1.47,121.28,121.28,0,0,0-171.51,0,5,5,0,0,1-7.07-7.07,131.27,131.27,0,0,1,185.65,0,5,5,0,0,1-3.53,8.54Z"/></g></svg>