<?xml version="1.0" ?><svg viewBox="0 0 512 512" xmlns="http://www.w3.org/2000/svg"><defs><style>.cls-1{fill:#3f456b;}</style></defs><title/><g id="Lines"><path class="cls-1" d="M497,353.42H17a5,5,0,0,1-5-5V168a45,45,0,0,1,45-45H457a45,45,0,0,1,45,45V348.42A5,5,0,0,1,497,353.42Zm-475-10H492V168a35,35,0,0,0-35-35H57a35,35,0,0,0-35,35Z"/><path class="cls-1" d="M292.15,386.92a5,5,0,0,1-5-5v-33.5a5,5,0,1,1,10,0v33.5A5,5,0,0,1,292.15,386.92Z"/><path class="cls-1" d="M221.75,386.92a5,5,0,0,1-5-5v-33.5a5,5,0,0,1,10,0v33.5A5,5,0,0,1,221.75,386.92Z"/><path class="cls-1" d="M352.28,386.92H158.5a5,5,0,0,1,0-10H352.28a5,5,0,0,1,0,10Z"/><path class="cls-1" d="M64,417.42a36.5,36.5,0,1,1,36.5-36.5A36.54,36.54,0,0,1,64,417.42Zm0-63a26.5,26.5,0,1,0,26.5,26.5A26.53,26.53,0,0,0,64,354.42Z"/><path class="cls-1" d="M64,395.8a14.89,14.89,0,1,1,14.88-14.88A14.9,14.9,0,0,1,64,395.8ZM64,376a4.89,4.89,0,1,0,4.88,4.89A4.89,4.89,0,0,0,64,376Z"/><path class="cls-1" d="M127,417.42a36.5,36.5,0,1,1,36.5-36.5A36.54,36.54,0,0,1,127,417.42Zm0-63a26.5,26.5,0,1,0,26.5,26.5A26.53,26.53,0,0,0,127,354.42Z"/><path class="cls-1" d="M127,395.8a14.89,14.89,0,1,1,14.89-14.88A14.9,14.9,0,0,1,127,395.8ZM127,376a4.89,4.89,0,1,0,4.89,4.89A4.9,4.9,0,0,0,127,376Z"/><path class="cls-1" d="M385.45,417.42a36.5,36.5,0,1,1,36.5-36.5A36.54,36.54,0,0,1,385.45,417.42Zm0-63a26.5,26.5,0,1,0,26.5,26.5A26.52,26.52,0,0,0,385.45,354.42Z"/><path class="cls-1" d="M385.45,395.8a14.89,14.89,0,1,1,14.88-14.88A14.9,14.9,0,0,1,385.45,395.8Zm0-19.77a4.89,4.89,0,1,0,4.88,4.89A4.89,4.89,0,0,0,385.45,376Z"/><path class="cls-1" d="M448.45,417.42a36.5,36.5,0,1,1,36.5-36.5A36.54,36.54,0,0,1,448.45,417.42Zm0-63a26.5,26.5,0,1,0,26.5,26.5A26.53,26.53,0,0,0,448.45,354.42Z"/><path class="cls-1" d="M448.45,395.8a14.89,14.89,0,1,1,14.89-14.88A14.9,14.9,0,0,1,448.45,395.8Zm0-19.77a4.89,4.89,0,1,0,4.89,4.89A4.89,4.89,0,0,0,448.45,376Z"/><path class="cls-1" d="M496,168H18a5,5,0,1,1,0-10H496a5,5,0,0,1,0,10Z"/><path class="cls-1" d="M257,353.42a5,5,0,0,1-5-5V163a5,5,0,1,1,10,0V348.42A5,5,0,0,1,257,353.42Z"/><path class="cls-1" d="M97,353.42a5,5,0,0,1-5-5V163a5,5,0,1,1,10,0V348.42A5,5,0,0,1,97,353.42Z"/><path class="cls-1" d="M177,353.42a5,5,0,0,1-5-5V163a5,5,0,1,1,10,0V348.42A5,5,0,0,1,177,353.42Z"/><path class="cls-1" d="M337,353.42a5,5,0,0,1-5-5V163a5,5,0,1,1,10,0V348.42A5,5,0,0,1,337,353.42Z"/><path class="cls-1" d="M417,353.42a5,5,0,0,1-5-5V163a5,5,0,1,1,10,0V348.42A5,5,0,0,1,417,353.42Z"/><path class="cls-1" d="M177,228.5H97.49a5,5,0,0,1,0-10H177a5,5,0,0,1,0,10Z"/><path class="cls-1" d="M417,227.67H337.49a5,5,0,0,1,0-10H417a5,5,0,0,1,0,10Z"/><path class="cls-1" d="M97,353.42a5,5,0,0,1-4.6-3L13.38,165a5,5,0,0,1,9.2-3.92l79,185.39a5,5,0,0,1-4.6,7Z"/><path class="cls-1" d="M496.85,353.42a5,5,0,0,1-4.6-3L413.23,165a5,5,0,0,1,9.2-3.92l79,185.39a5,5,0,0,1-4.6,7Z"/><path class="cls-1" d="M357.11,370.17H154.28a5,5,0,0,1,0-10H357.11a5,5,0,0,1,0,10Z"/><path class="cls-1" d="M270.67,260.72H240.5a5,5,0,1,1,0-10h30.17a5,5,0,0,1,0,10Z"/></g><g id="Outline"><path class="cls-1" d="M177,188.67H97.49a5,5,0,1,1,0-10H177a5,5,0,0,1,0,10Z"/><path class="cls-1" d="M177,209.17H97.49a5,5,0,1,1,0-10H177a5,5,0,0,1,0,10Z"/><path class="cls-1" d="M417,188.67H337.49a5,5,0,0,1,0-10H417a5,5,0,0,1,0,10Z"/><path class="cls-1" d="M417,209.17H337.49a5,5,0,0,1,0-10H417a5,5,0,0,1,0,10Z"/><path class="cls-1" d="M55,168a5,5,0,0,1-5-5V128a5,5,0,1,1,10,0V163A5,5,0,0,1,55,168Z"/><path class="cls-1" d="M458.34,168a5,5,0,0,1-5-5V128a5,5,0,1,1,10,0V163A5,5,0,0,1,458.34,168Z"/><path class="cls-1" d="M424.72,168a5,5,0,0,1-5-5V128a5,5,0,0,1,10,0V163A5,5,0,0,1,424.72,168Z"/><path class="cls-1" d="M357.5,168a5,5,0,0,1-5-5V128a5,5,0,1,1,10,0V163A5,5,0,0,1,357.5,168Z"/><path class="cls-1" d="M323.89,168a5,5,0,0,1-5-5V128a5,5,0,1,1,10,0V163A5,5,0,0,1,323.89,168Z"/><path class="cls-1" d="M391.11,168a5,5,0,0,1-5-5V128a5,5,0,0,1,10,0V163A5,5,0,0,1,391.11,168Z"/><path class="cls-1" d="M290.28,168a5,5,0,0,1-5-5V128a5,5,0,1,1,10,0V163A5,5,0,0,1,290.28,168Z"/><path class="cls-1" d="M256.67,168a5,5,0,0,1-5-5V128a5,5,0,1,1,10,0V163A5,5,0,0,1,256.67,168Z"/><path class="cls-1" d="M223.06,168a5,5,0,0,1-5-5V128a5,5,0,1,1,10,0V163A5,5,0,0,1,223.06,168Z"/><path class="cls-1" d="M189.45,168a5,5,0,0,1-5-5V128a5,5,0,1,1,10,0V163A5,5,0,0,1,189.45,168Z"/><path class="cls-1" d="M155.83,168a5,5,0,0,1-5-5V128a5,5,0,0,1,10,0V163A5,5,0,0,1,155.83,168Z"/><path class="cls-1" d="M122.22,168a5,5,0,0,1-5-5V128a5,5,0,0,1,10,0V163A5,5,0,0,1,122.22,168Z"/><path class="cls-1" d="M88.61,168a5,5,0,0,1-5-5V128a5,5,0,0,1,10,0V163A5,5,0,0,1,88.61,168Z"/></g></svg>