<?xml version="1.0" ?><svg viewBox="0 0 512 512" xmlns="http://www.w3.org/2000/svg"><defs><style>.cls-1{fill:#3f456b;}.cls-2{fill:#384169;}</style></defs><title/><g id="Lines"><path class="cls-1" d="M318,477.38a5,5,0,0,1-4.6-3,112.39,112.39,0,0,0-31.42-42.59,5,5,0,0,1,.78-8.22,49,49,0,1,0-49.6-1.33,5,5,0,0,1,.47,8.16A111.79,111.79,0,0,0,200.8,473.3a5,5,0,0,1-9.15-4,122.36,122.36,0,0,1,30.64-42.46,59,59,0,1,1,71.15,1.78,123,123,0,0,1,29.1,41.83,5,5,0,0,1-2.62,6.57A5.1,5.1,0,0,1,318,477.38Z"/><path class="cls-1" d="M256.91,500.36A102.09,102.09,0,1,1,359,398.27,102.21,102.21,0,0,1,256.91,500.36Zm0-194.18A92.09,92.09,0,1,0,349,398.27,92.19,92.19,0,0,0,256.91,306.18Z"/><path class="cls-1" d="M145,228a5,5,0,0,1-5-5V141c0-64.19,52.26-116.42,116.5-116.42S373,76.88,373,141.17V222a5,5,0,0,1-10,0V141.17A106.5,106.5,0,1,0,150,141v82A5,5,0,0,1,145,228Z"/><path class="cls-1" d="M496,468H330a5,5,0,0,1,0-10H490.49L478,330.49a5,5,0,1,1,10-1l13,133a5,5,0,0,1-5,5.49Z"/><path class="cls-1" d="M183,468H16a5,5,0,0,1-5-5.5l32-320a5,5,0,0,1,5-4.5H465a5,5,0,0,1,5,4.51l7,71a5,5,0,0,1-10,1L460.47,148h-408l-31,310H183a5,5,0,0,1,0,10Z"/><path class="cls-1" d="M191.58,255.57a4.94,4.94,0,0,1-2.14-.48,5,5,0,0,1-2.37-6.66c5.21-11,13.74-17.79,23.39-18.69s16.49,4.1,22.57,8.52c3.9,2.83,7.59,5.51,11.68,6.51a17.86,17.86,0,0,0,9.38-.17c-6.35-5.46-10.39-13.46-7.68-22.44,2.49-8.24,8.2-13.82,15.26-14.91a16,16,0,0,1,15.81,6.86c4.4,6.43,4,15.19-1.14,24a38,38,0,0,1-3.16,4.66,46.11,46.11,0,0,0,23-1.36c1.15-.35,2.4-.77,3.72-1.22,8.41-2.87,21.12-7.21,29.14,3.83a5,5,0,0,1-8.08,5.88c-3.44-4.72-9.29-3.16-17.83-.25-1.41.48-2.73.93-4.05,1.33-12.17,3.69-24.27,3.54-34.52-.35a28.45,28.45,0,0,1-22.22,3.81c-6-1.46-10.68-4.85-15.19-8.13-5.31-3.86-9.9-7.2-15.76-6.65-8.29.77-13.14,8.49-15.29,13A5,5,0,0,1,191.58,255.57Zm72.58-38.51a6.42,6.42,0,0,0-1,.07c-3.21.5-5.83,3.39-7.2,7.92-1,3.13-.33,9.3,7.24,13.92a28.36,28.36,0,0,0,4.45-5.83c3.12-5.38,3.69-10.26,1.55-13.39A6.11,6.11,0,0,0,264.16,217.06Z"/><path class="cls-1" d="M420.5,343.7a18.17,18.17,0,0,1-17.95-15.62L390.32,241a18,18,0,0,1,3.31-13.19l.11-.15,29.45-37.34a14.15,14.15,0,0,1,5-3.89c4.15-1.94,8.85-1.58,13.23,1a3.37,3.37,0,0,1,.46.31c8.69,6.55,39.22,27.12,39.53,27.33l.22.15a18,18,0,0,1,7,12l12.23,87.13a18.14,18.14,0,0,1-15.43,20.47L423,343.52A18.15,18.15,0,0,1,420.5,343.7Zm-18.84-110a8.07,8.07,0,0,0-1.44,5.84l12.24,87.12a8.14,8.14,0,0,0,9.18,6.93l62.42-8.77a8.14,8.14,0,0,0,6.92-9.18l-12.23-87.13a8.09,8.09,0,0,0-3.08-5.28c-2.41-1.62-30.6-20.63-39.59-27.37-2.52-1.4-4.09-.52-5,.51h0l0,0,0,0Z"/><path class="cls-1" d="M430.2,195.3a5,5,0,0,1-5-5h0c0-.2-.31-20.86-6.65-37.41a2.42,2.42,0,0,1-.12-.35C418,151.07,406.47,115,368,115l-.43,0c-1.23-.1-30.76-2.06-37.69,29.1a5,5,0,1,1-9.76-2.16c8.44-38,44.4-37.11,48-36.92,19,0,35.38,7.78,47.39,22.4a72,72,0,0,1,12.41,22.11c6.95,18.23,7.25,39.82,7.26,40.74a5,5,0,0,1-4.95,5.05Z"/><path class="cls-1" d="M96.94,124a5,5,0,0,1-4.88-3.91c-.08-.39-9.35-39.63-44.21-47.44A5,5,0,0,1,48,62.86c1.61-.31,39.24-8.06,44-47.46a5,5,0,0,1,9.9-.22,74.14,74.14,0,0,0,8.37,22.06c8.41,14.56,20.35,23.17,35.48,25.59a5,5,0,0,1,.23,9.84c-1.54.32-38.19,8.55-44.07,47.08A5,5,0,0,1,97.11,124ZM64.05,67.82C81.14,76.28,91,91.19,96.31,102.56A64.64,64.64,0,0,1,120.6,73.25a76.22,76.22,0,0,1,8.67-5c-11.39-5.18-20.86-14.09-27.85-26.32a81.21,81.21,0,0,1-4-7.91A62.48,62.48,0,0,1,73.73,62.44,75.25,75.25,0,0,1,64.05,67.82Z"/><path class="cls-2" d="M438.59,229.49a5,5,0,0,1-4.9-4l-.19-1a5,5,0,1,1,9.81-1.94l.19,1a5,5,0,0,1-3.94,5.88A5.31,5.31,0,0,1,438.59,229.49Z"/></g><g id="Outline"><path class="cls-2" d="M427.08,263.71a5,5,0,0,1-.69-9.95l31.69-4.45a5,5,0,1,1,1.39,9.9l-31.69,4.45A4.12,4.12,0,0,1,427.08,263.71Z"/><path class="cls-2" d="M430.28,286.49a5,5,0,0,1-.69-9.95l31.69-4.45a5,5,0,1,1,1.39,9.9L431,286.44A5.49,5.49,0,0,1,430.28,286.49Z"/><path class="cls-2" d="M433.1,308.87a5,5,0,0,1-.69-9.95l31.69-4.45a5,5,0,1,1,1.39,9.9l-31.69,4.45A4.12,4.12,0,0,1,433.1,308.87Z"/></g></svg>