<?xml version="1.0" ?><svg viewBox="0 0 512 512" xmlns="http://www.w3.org/2000/svg"><defs><style>.cls-1{fill:#3f456b;}</style></defs><title/><g id="Lines"><path class="cls-1" d="M418,429.57H169.35c-55.92,0-91.38-21.78-111.28-40C36.41,369.65,28.13,349.86,27.79,349a5,5,0,0,1,.29-4.39c24-41.87,61.13-61.38,88.07-70.38,29.08-9.71,52.29-9.58,53.26-9.57H418c46,0,83.41,37,83.41,82.44S464,429.57,418,429.57Zm-380-82.18a123.77,123.77,0,0,0,27.14,35.1c27,24.6,62.05,37.08,104.16,37.08H418c40.48,0,73.41-32.5,73.41-72.44S458.49,274.69,418,274.69H169.35c-.26,0-22.81-.09-50.36,9.17C83.24,295.87,56,317.24,38.05,347.39Z"/><path class="cls-1" d="M381.72,274.69a5,5,0,0,1-5-4.32l-5.92-42.89c-.44-1.66-4.12-14.16-16.64-14.16H255.66c-12.48,0-16.18,12.43-16.64,14.16l-5.92,42.89a5,5,0,0,1-9.91-1.36l6-43.16c0-.14,0-.28.08-.42,1.73-7.65,9.49-22.11,26.43-22.11h98.55c17,0,24.7,14.46,26.43,22.11,0,.14.06.28.08.42l6,43.16a5,5,0,0,1-4.27,5.63A4,4,0,0,1,381.72,274.69Z"/><path class="cls-1" d="M46.48,331.74a5,5,0,0,1-5-5V254.38a5,5,0,0,1,4.6-5l46.54-3.72a5,5,0,0,1,5.26,3.83l8.29,34.75a5,5,0,1,1-9.73,2.31L89.15,256l-37.67,3v67.74A5,5,0,0,1,46.48,331.74Z"/><path class="cls-1" d="M93,452.57h-.4l-46.54-3.72a5,5,0,0,1-4.6-5V371.5a5,5,0,0,1,10,0v67.74l37.67,3,7.29-30.58a5,5,0,1,1,9.73,2.32l-8.29,34.74A5,5,0,0,1,93,452.57Z"/><path class="cls-1" d="M15.58,380.87a5,5,0,0,1-5-5V319.59a5,5,0,0,1,10,0v56.28A5,5,0,0,1,15.58,380.87Z"/><path class="cls-1" d="M32.42,352.13H15.58a5,5,0,1,1,0-10H32.42a5,5,0,1,1,0,10Z"/><path class="cls-1" d="M304.42,213.32a5,5,0,0,1-5-5V172.71c0-21.62,16-21.62,21.25-21.62h9a5,5,0,0,1,0,10h-9c-5.79,0-11.25,0-11.25,11.62v35.61A5,5,0,0,1,304.42,213.32Z"/><path class="cls-1" d="M272.42,213.32a5,5,0,0,1-5-5V188.09a5,5,0,1,1,10,0v20.23A5,5,0,0,1,272.42,213.32Z"/><path class="cls-1" d="M280.08,191.25H264.75a5,5,0,0,1,0-10h15.33a5,5,0,0,1,0,10Z"/><path class="cls-1" d="M336.42,213.32a5,5,0,0,1-5-5V188.09a5,5,0,1,1,10,0v20.23A5,5,0,0,1,336.42,213.32Z"/><path class="cls-1" d="M155,427.42a5,5,0,0,1-5-5V271.83a5,5,0,0,1,10,0V422.42A5,5,0,0,1,155,427.42Z"/><path class="cls-1" d="M117,353.13H57.25a5,5,0,0,1,0-10H117a5,5,0,0,1,0,10Z"/><path class="cls-1" d="M329.67,244H280.21a5,5,0,0,1,0-10h49.46a5,5,0,1,1,0,10Z"/><path class="cls-1" d="M81.62,180.41A29.37,29.37,0,1,1,111,151,29.4,29.4,0,0,1,81.62,180.41Zm0-48.74A19.37,19.37,0,1,0,101,151,19.39,19.39,0,0,0,81.62,131.67Z"/><path class="cls-1" d="M146.89,232.82A22.84,22.84,0,1,1,169.72,210,22.87,22.87,0,0,1,146.89,232.82Zm0-35.67A12.84,12.84,0,1,0,159.72,210,12.85,12.85,0,0,0,146.89,197.15Z"/><path class="cls-1" d="M454.13,226A22.84,22.84,0,1,1,477,203.12,22.86,22.86,0,0,1,454.13,226Zm0-35.67A12.84,12.84,0,1,0,467,203.12,12.85,12.85,0,0,0,454.13,190.28Z"/><path class="cls-1" d="M448,422a5,5,0,0,1-3.88-1.85c-.68-.83-16.57-21-16.57-73s16.29-73.78,17-74.68a5,5,0,0,1,7.94,6.08c-.22.3-14.93,20.57-14.93,68.6,0,48.53,14.19,66.54,14.33,66.72A5,5,0,0,1,448,422Z"/><path class="cls-1" d="M301.89,380.88a34.63,34.63,0,1,1,34.62-34.63A34.67,34.67,0,0,1,301.89,380.88Zm0-59.26a24.63,24.63,0,1,0,24.62,24.63A24.66,24.66,0,0,0,301.89,321.62Z"/><path class="cls-1" d="M382.73,380.88a34.63,34.63,0,1,1,34.62-34.63A34.67,34.67,0,0,1,382.73,380.88Zm0-59.26a24.63,24.63,0,1,0,24.62,24.63A24.66,24.66,0,0,0,382.73,321.62Z"/><path class="cls-1" d="M221.05,380.88a34.63,34.63,0,1,1,34.62-34.63A34.68,34.68,0,0,1,221.05,380.88Zm0-59.26a24.63,24.63,0,1,0,24.62,24.63A24.66,24.66,0,0,0,221.05,321.62Z"/><path class="cls-1" d="M110.19,48.77a57.82,57.82,0,0,1-19.08-3.41C80.68,41.6,66.67,32.93,59.21,13a5,5,0,1,1,9.37-3.51c11.62,31.09,41.63,29.36,42.9,29.27a5,5,0,0,1,.75,10C112.13,48.72,111.4,48.77,110.19,48.77Z"/><path class="cls-1" d="M17.6,48.77c-1.22,0-1.94-.05-2.05-.06a5,5,0,1,1,.77-10c1.25.09,31.26,1.82,42.89-29.27A5,5,0,0,1,68.58,13c-7.47,20-21.47,28.62-31.9,32.38A57.9,57.9,0,0,1,17.6,48.77Z"/><path class="cls-1" d="M206.1,48.77A57.9,57.9,0,0,1,187,45.36C176.59,41.6,162.59,32.93,155.12,13a5,5,0,1,1,9.37-3.51c11.63,31.09,41.64,29.36,42.91,29.27a5,5,0,0,1,.74,10C208,48.72,207.32,48.77,206.1,48.77Z"/><path class="cls-1" d="M113.51,48.77c-1.22,0-1.94-.05-2-.06a5,5,0,1,1,.75-10c1.3.09,31.28,1.8,42.9-29.27A5,5,0,0,1,164.49,13C157,32.93,143,41.6,132.59,45.36A57.86,57.86,0,0,1,113.51,48.77Z"/><path class="cls-1" d="M302.45,48.77a57.86,57.86,0,0,1-19.08-3.41C272.94,41.6,258.94,32.93,251.47,13a5,5,0,1,1,9.37-3.51c11.62,31.09,41.64,29.36,42.9,29.27a5,5,0,0,1,.75,10C304.39,48.72,303.66,48.77,302.45,48.77Z"/><path class="cls-1" d="M209.86,48.77c-1.22,0-1.94-.05-2.05-.06a5,5,0,0,1,.77-10c1.25.09,31.26,1.82,42.89-29.27A5,5,0,0,1,260.84,13c-7.47,20-21.47,28.62-31.9,32.38A57.9,57.9,0,0,1,209.86,48.77Z"/><path class="cls-1" d="M398.36,48.77a57.9,57.9,0,0,1-19.08-3.41C368.85,41.6,354.85,32.93,347.38,13a5,5,0,0,1,9.37-3.51c11.63,31.09,41.64,29.36,42.91,29.27a5,5,0,0,1,.74,10C400.3,48.72,399.58,48.77,398.36,48.77Z"/><path class="cls-1" d="M305.77,48.77c-1.21,0-1.94-.05-2-.06a5,5,0,1,1,.75-10c1.3.09,31.28,1.8,42.9-29.27A5,5,0,1,1,356.75,13c-7.47,20-21.47,28.62-31.9,32.38A57.86,57.86,0,0,1,305.77,48.77Z"/><path class="cls-1" d="M494.28,48.77a57.91,57.91,0,0,1-19.09-3.41C464.76,41.6,450.76,32.93,443.3,13a5,5,0,1,1,9.36-3.51c11.63,31.09,41.64,29.36,42.91,29.27a5,5,0,0,1,.75,10C496.21,48.72,495.49,48.77,494.28,48.77Z"/><path class="cls-1" d="M401.68,48.77c-1.21,0-1.94-.05-2-.06a5,5,0,0,1,.76-10c1.26.09,31.27,1.82,42.9-29.27A5,5,0,1,1,452.66,13c-7.46,20-21.47,28.62-31.9,32.38A57.82,57.82,0,0,1,401.68,48.77Z"/><path class="cls-1" d="M206.32,103.55a57.82,57.82,0,0,1-19.08-3.41c-10.43-3.76-24.43-12.43-31.9-32.38a5,5,0,0,1,9.37-3.51c11.62,31.09,41.64,29.36,42.9,29.27a5,5,0,0,1,.75,10C208.26,103.5,207.53,103.55,206.32,103.55Z"/><path class="cls-1" d="M113.73,103.55c-1.22,0-1.94,0-2-.06a5,5,0,0,1,.77-10c1.25.09,31.26,1.82,42.89-29.27a5,5,0,0,1,9.37,3.51c-7.47,19.95-21.47,28.62-31.9,32.38A57.9,57.9,0,0,1,113.73,103.55Z"/><path class="cls-1" d="M302.23,103.55a57.9,57.9,0,0,1-19.08-3.41c-10.43-3.76-24.43-12.43-31.9-32.38a5,5,0,1,1,9.37-3.51c11.63,31.09,41.64,29.36,42.91,29.27a5,5,0,0,1,.74,10C304.17,103.5,303.45,103.55,302.23,103.55Z"/><path class="cls-1" d="M209.64,103.55c-1.22,0-1.94,0-2-.06a5,5,0,1,1,.75-10c1.3.08,31.28,1.8,42.9-29.27a5,5,0,1,1,9.37,3.51c-7.47,19.95-21.47,28.62-31.9,32.38A57.86,57.86,0,0,1,209.64,103.55Z"/><path class="cls-1" d="M398.58,103.55a57.86,57.86,0,0,1-19.08-3.41c-10.43-3.76-24.43-12.43-31.9-32.38A5,5,0,0,1,357,64.25c11.7,31.29,42.57,29.29,42.89,29.27a5,5,0,1,1,.76,10C400.52,103.5,399.79,103.55,398.58,103.55Z"/><path class="cls-1" d="M306,103.55c-1.22,0-1.94,0-2-.06a5,5,0,1,1,.76-10c1.26.09,31.26,1.82,42.89-29.27A5,5,0,1,1,357,67.76c-7.47,19.95-21.47,28.62-31.9,32.38A57.9,57.9,0,0,1,306,103.55Z"/></g><g id="Outline"><path class="cls-1" d="M173,302.25h-1.31a5,5,0,0,1,0-10H173a5,5,0,0,1,0,10Z"/><path class="cls-1" d="M173,335.5h-1.31a5,5,0,0,1,0-10H173a5,5,0,0,1,0,10Z"/><path class="cls-1" d="M173,368.75h-1.31a5,5,0,0,1,0-10H173a5,5,0,0,1,0,10Z"/><path class="cls-1" d="M173,402h-1.31a5,5,0,0,1,0-10H173a5,5,0,0,1,0,10Z"/><path class="cls-1" d="M135.65,302.25h-1.31a5,5,0,0,1,0-10h1.31a5,5,0,0,1,0,10Z"/><path class="cls-1" d="M135.65,335.5h-1.31a5,5,0,0,1,0-10h1.31a5,5,0,0,1,0,10Z"/><path class="cls-1" d="M135.65,368.75h-1.31a5,5,0,0,1,0-10h1.31a5,5,0,0,1,0,10Z"/><path class="cls-1" d="M135.65,402h-1.31a5,5,0,0,1,0-10h1.31a5,5,0,0,1,0,10Z"/><path class="cls-1" d="M458.88,312.5h-1.31a5,5,0,1,1,0-10h1.31a5,5,0,0,1,0,10Z"/><path class="cls-1" d="M454.88,338.92h-1.31a5,5,0,0,1,0-10h1.31a5,5,0,0,1,0,10Z"/><path class="cls-1" d="M454.88,365.33h-1.31a5,5,0,0,1,0-10h1.31a5,5,0,0,1,0,10Z"/><path class="cls-1" d="M458.88,391.75h-1.31a5,5,0,1,1,0-10h1.31a5,5,0,0,1,0,10Z"/></g></svg>