<?xml version="1.0" ?><svg id="Lines" viewBox="0 0 512 512" xmlns="http://www.w3.org/2000/svg"><defs><style>.cls-1{fill:#3f456b;}.cls-2{fill:#384169;}</style></defs><title/><path class="cls-1" d="M496,275H16a5,5,0,0,1-5-5V238a5,5,0,0,1,5-5H496a5,5,0,0,1,5,5v32A5,5,0,0,1,496,275ZM21,265H491V243H21Z"/><path class="cls-1" d="M32,501a5,5,0,0,1-5-5V270a5,5,0,0,1,10,0V496A5,5,0,0,1,32,501Z"/><path class="cls-1" d="M481,501a5,5,0,0,1-5-5V270a5,5,0,0,1,10,0V496A5,5,0,0,1,481,501Z"/><path class="cls-1" d="M256,356a5,5,0,0,1-5-5V270a5,5,0,0,1,10,0v81A5,5,0,0,1,256,356Z"/><path class="cls-1" d="M481,356H32a5,5,0,0,1,0-10H481a5,5,0,0,1,0,10Z"/><path class="cls-1" d="M481,469H32a5,5,0,0,1,0-10H481a5,5,0,0,1,0,10Z"/><path class="cls-1" d="M157,299H132a5,5,0,0,1,0-10h25a5,5,0,0,1,0,10Z"/><path class="cls-1" d="M381,299H356a5,5,0,0,1,0-10h25a5,5,0,0,1,0,10Z"/><path class="cls-1" d="M368,242a5,5,0,0,1-5-5V209a5,5,0,0,0-5-5H154a5,5,0,0,0-5,5v28a5,5,0,0,1-10,0V209a15,15,0,0,1,15-15H358a15,15,0,0,1,15,15v28A5,5,0,0,1,368,242Z"/><path class="cls-1" d="M393,220H369.17a5,5,0,0,1,0-10H393a5,5,0,0,1,0,10Z"/><path class="cls-1" d="M449,162.81a5,5,0,0,1-5-5V20H70V148.83a5,5,0,0,1-10,0V15a5,5,0,0,1,5-5H449a5,5,0,0,1,5,5V157.81A5,5,0,0,1,449,162.81Z"/><path class="cls-1" d="M143.67,220H88.75a5,5,0,0,1,0-10h54.92a5,5,0,0,1,0,10Z"/><path class="cls-1" d="M266,163H246a5,5,0,0,1,0-10h20a5,5,0,0,1,0,10Z"/><path class="cls-1" d="M458,243H393a5,5,0,0,1-5-5V159a5,5,0,0,1,5-5h65a5,5,0,0,1,5,5v79A5,5,0,0,1,458,243Zm-60-10h55V164H398Z"/><path class="cls-1" d="M426,164a5,5,0,0,1-5-5V133H394a5,5,0,0,1,0-10h32a5,5,0,0,1,5,5v31A5,5,0,0,1,426,164Z"/><path class="cls-1" d="M266,203a5,5,0,0,1-5-5V151.32a2.44,2.44,0,0,1,0-.27c.11-2,.29-12.26-6.72-19.91-3.4-3.71-9.86-8.14-21.29-8.14-11.16,0-17.7,4.38-21.22,8.05-8.2,8.55-7.8,20.65-7.78,21.16a1.48,1.48,0,0,1,0,.21V154h10v-2.42c0-1.3.27-8.67,5-13.61,3.21-3.34,7.79-5,14-5s10.83,1.61,13.81,4.78c4.48,4.76,4.26,11.86,4.22,12.66l0,.28V198a5,5,0,0,1-10,0V151c0-.39,0-.7,0-1.17,0-1.23-.37-4-1.51-5.2-1-1-3.36-1.63-6.53-1.63s-5.58.64-6.79,1.89c-1.79,1.86-2.21,5.51-2.22,6.66V159a5,5,0,0,1-5,5H199a5,5,0,0,1-5-5v-6.48c-.08-2.21-.16-17.21,10.55-28.38C209.43,119.05,218.31,113,233,113c15.06,0,23.9,6.19,28.66,11.38,9.36,10.21,9.54,23.12,9.34,27.07V198A5,5,0,0,1,266,203Z"/><path class="cls-1" d="M432.5,469h-114A20.53,20.53,0,0,1,298,448.5v-1A20.53,20.53,0,0,1,318.5,427h114A20.53,20.53,0,0,1,453,447.5v1A20.53,20.53,0,0,1,432.5,469Zm-114-32A10.51,10.51,0,0,0,308,447.5v1A10.51,10.51,0,0,0,318.5,459h114A10.51,10.51,0,0,0,443,448.5v-1A10.51,10.51,0,0,0,432.5,437Z"/><path class="cls-1" d="M432.5,437h-114A20.53,20.53,0,0,1,298,416.5v-1A20.53,20.53,0,0,1,318.5,395h114A20.53,20.53,0,0,1,453,415.5v1A20.53,20.53,0,0,1,432.5,437Zm-114-32A10.51,10.51,0,0,0,308,415.5v1A10.51,10.51,0,0,0,318.5,427h114A10.51,10.51,0,0,0,443,416.5v-1A10.51,10.51,0,0,0,432.5,405Z"/><path class="cls-1" d="M433,220.17H393a5,5,0,0,1,0-10h35V188.83H393.33a5,5,0,0,1,0-10H433a5,5,0,0,1,5,5v31.34A5,5,0,0,1,433,220.17Z"/><path class="cls-1" d="M169,469a5,5,0,0,1-5-5V391H70v73a5,5,0,0,1-10,0V386a5,5,0,0,1,5-5H169a5,5,0,0,1,5,5v78A5,5,0,0,1,169,469Z"/><path class="cls-2" d="M124,415H109a5,5,0,0,1,0-10h15a5,5,0,0,1,0,10Z"/><path class="cls-1" d="M273,469a5,5,0,0,1-5-5V391H174v73a5,5,0,0,1-10,0V386a5,5,0,0,1,5-5H273a5,5,0,0,1,5,5v78A5,5,0,0,1,273,469Z"/><path class="cls-2" d="M228,415H213a5,5,0,0,1,0-10h15a5,5,0,0,1,0,10Z"/><path class="cls-1" d="M87.65,243a5,5,0,0,1-5-5V157a2,2,0,0,0-2-2H51.33a2,2,0,0,0-2,2v81a5,5,0,0,1-10,0V157a12,12,0,0,1,12-12H80.67a12,12,0,0,1,12,12v81A5,5,0,0,1,87.65,243Z"/><path class="cls-1" d="M87,187H45a5,5,0,0,1,0-10H87a5,5,0,0,1,0,10Z"/></svg>