<?xml version="1.0" ?><svg viewBox="0 0 512 512" xmlns="http://www.w3.org/2000/svg"><defs><style>.cls-1{fill:#3f456b;}</style></defs><title/><g id="Lines"><path class="cls-1" d="M464,196H47a5,5,0,0,1-5-5V117.2c.15-30.67,9.14-71.86,51.1-94A117.5,117.5,0,0,1,143.53,10h224a118.78,118.78,0,0,1,50.59,13.36C441.31,35.65,469,61.92,469,117.2V191A5,5,0,0,1,464,196ZM52,191h0Zm0-5H459V117.2c0-40.39-15.34-69-45.59-85A110,110,0,0,0,367.5,20h-224a109.44,109.44,0,0,0-46,12.18c-30,16-45.25,44.59-45.45,85Z"/><path class="cls-1" d="M342,501H169a5,5,0,0,1-5-5v-7.33c0-9.86,2.8-17.52,8.31-22.78,7.2-6.87,16.48-6.92,17.88-6.89h32.45a5,5,0,0,1,0,10H189.89a16.3,16.3,0,0,0-10.75,4.21c-3.41,3.3-5.14,8.51-5.14,15.47V491H337v-2.33c0-7.5-1.81-12.95-5.37-16.19a14.61,14.61,0,0,0-10.07-3.5l-.48,0H288.56a5,5,0,1,1,0-10h32.35c1.77-.1,10.48-.25,17.44,6.08,5.74,5.21,8.65,13.15,8.65,23.59V496A5,5,0,0,1,342,501Z"/><path class="cls-1" d="M241,323a5,5,0,0,1-5-5V191a5,5,0,0,1,10,0V318A5,5,0,0,1,241,323Z"/><path class="cls-1" d="M270,323a5,5,0,0,1-5-5V191a5,5,0,0,1,10,0V318A5,5,0,0,1,270,323Z"/><path class="cls-1" d="M240,419a5,5,0,0,1-5-5V398a5,5,0,0,1,10,0v16A5,5,0,0,1,240,419Z"/><path class="cls-1" d="M271,419a5,5,0,0,1-5-5V398a5,5,0,0,1,10,0v16A5,5,0,0,1,271,419Z"/><path class="cls-1" d="M352,370a5,5,0,0,1-5-5V192a5,5,0,0,1,10,0V365A5,5,0,0,1,352,370Z"/><path class="cls-1" d="M352,407a22.51,22.51,0,1,1,22.51-22.51A22.54,22.54,0,0,1,352,407Zm0-35a12.51,12.51,0,1,0,12.51,12.51A12.52,12.52,0,0,0,352,372Z"/><path class="cls-1" d="M28.63,142c-1.76,0-8.17-.33-13-5-2.34-2.25-5.13-6.4-5.13-13.34s2.83-11,5.2-13.2c5.09-4.66,11.89-4.56,13.47-4.47H47a5,5,0,0,1,0,10H29l-.43,0c-1-.07-4.25.13-6.14,1.89-1.3,1.22-1.93,3.11-1.93,5.8s.68,4.8,2.07,6.14c2.27,2.19,6,2.19,6.08,2.19H47a5,5,0,0,1,0,10H28.63Z"/><path class="cls-1" d="M483.29,142c-.41,0-.74,0-1,0H464a5,5,0,0,1,0-10h18.5l.43,0c1,.07,4.25-.13,6.14-1.89,1.3-1.22,1.93-3.11,1.93-5.8s-.66-4.76-2-6.1c-2.31-2.28-6.12-2.24-6.16-2.23H464a5,5,0,0,1,0-10h18.6c1.24,0,8.14,0,13.27,5,2.34,2.25,5.13,6.4,5.13,13.34s-2.83,11-5.2,13.2C491.43,141.53,485.8,142,483.29,142Z"/><path class="cls-1" d="M320,468.25a5.44,5.44,0,0,1-1.19-.14c-1.61-.4-38.4-9.83-50.34-48.11H243.78c-11.94,38.28-48.73,47.71-50.34,48.11a5,5,0,1,1-2.38-9.72c1.41-.35,35-9.12,44.1-44.63A5,5,0,0,1,240,410h32.25a5,5,0,0,1,4.84,3.76c9.15,35.68,43.75,44.55,44.1,44.63a5,5,0,0,1-1.19,9.86Z"/><path class="cls-1" d="M279,403H234a15,15,0,0,1-15-15V329a15,15,0,0,1,15-15h45a15,15,0,0,1,15,15v59A15,15,0,0,1,279,403Zm-45-79a5,5,0,0,0-5,5v59a5,5,0,0,0,5,5h45a5,5,0,0,0,5-5V329a5,5,0,0,0-5-5Z"/><path class="cls-1" d="M292,469H223a5,5,0,0,1,0-10h69a5,5,0,0,1,0,10Z"/></g><g id="Outline"><path class="cls-1" d="M494,259.5H452a5,5,0,0,1,0-10h42a5,5,0,0,1,0,10Z"/><path class="cls-1" d="M60.51,259.5h-42a5,5,0,0,1,0-10h42a5,5,0,1,1,0,10Z"/><path class="cls-1" d="M435.49,400.74a5,5,0,0,1-3.53-1.46l-29.7-29.7a5,5,0,1,1,7.07-7.07l29.7,29.7a5,5,0,0,1-3.54,8.53Z"/><path class="cls-1" d="M77,400.74a5,5,0,0,1-3.54-8.53l29.7-29.7a5,5,0,1,1,7.07,7.07l-29.7,29.7A5,5,0,0,1,77,400.74Z"/><path class="cls-1" d="M47.59,329.07a5,5,0,0,1-1.89-9.63l24.83-10.12a5,5,0,0,1,3.78,9.26L49.47,328.7A5,5,0,0,1,47.59,329.07Z"/><path class="cls-1" d="M462.32,330.87a4.92,4.92,0,0,1-1.94-.4l-24.72-10.4a5,5,0,1,1,3.88-9.22l24.72,10.41a5,5,0,0,1-1.94,9.61Z"/><path class="cls-1" d="M145.81,429.18a5.13,5.13,0,0,1-1.94-.39,5,5,0,0,1-2.67-6.55l10.41-24.72a5,5,0,1,1,9.22,3.88l-10.41,24.72A5,5,0,0,1,145.81,429.18Z"/><path class="cls-1" d="M429,151a5,5,0,0,1-5-5V113c0-45.57-43.77-57-44.21-57.15a5,5,0,0,1,2.42-9.7,77.53,77.53,0,0,1,25.84,13.14C419.89,68.41,434,85.14,434,113v33A5,5,0,0,1,429,151Z"/></g></svg>