<?xml version="1.0" encoding="iso-8859-1"?>
<!-- Generator: Adobe Illustrator 19.0.0, SVG Export Plug-In . SVG Version: 6.00 Build 0)  -->
<svg version="1.1" id="Capa_1" xmlns="http://www.w3.org/2000/svg" xmlns:xlink="http://www.w3.org/1999/xlink" x="0px" y="0px"
	 viewBox="0 0 512.019 512.019" style="enable-background:new 0 0 512.019 512.019;" xml:space="preserve">
<g>
	<g>
		<path d="M501.17,243.454L458.503,8.787c-1.045-5.76-6.571-9.643-12.245-8.619L312.519,22.462L43.57,0.041
			c-3.008-0.256-5.717,0.704-7.893,2.581c-2.176,1.899-3.499,4.587-3.648,7.467l-21.333,384c-0.32,5.653,3.819,10.581,9.451,11.2
			l93.205,10.368l4.16,23.552c0.917,5.163,5.397,8.811,10.475,8.811c0.576,0,1.195-0.043,1.771-0.128l129.643-21.611
			c5.803-0.96,9.749-6.464,8.768-12.267c-0.981-5.781-6.571-9.749-12.267-8.768l-119.232,19.861L76.381,83.454L439.41,22.953
			l40.768,224.32c1.067,5.803,6.656,9.707,12.416,8.576C498.375,254.803,502.215,249.235,501.17,243.454z M62.258,64.169
			c-2.816,0.469-5.312,2.069-6.955,4.373c-1.643,2.304-2.283,5.205-1.792,8l55.979,317.205l-76.928-8.555l20.16-362.965
			l174.123,14.507L62.258,64.169z"/>
	</g>
</g>
<g>
	<g>
		<path d="M469.341,277.353h-74.667v-10.667c0-5.888-4.779-10.667-10.667-10.667c-5.888,0-10.667,4.779-10.667,10.667v10.667
			h-74.667c-17.643,0-32,14.357-32,32v21.333c0,5.888,4.779,10.667,10.667,10.667h12.501l30.379,161.963
			c0.917,5.056,5.333,8.704,10.453,8.704h106.667c5.12,0,9.536-3.648,10.475-8.704l30.357-161.963h12.501
			c5.888,0,10.667-4.779,10.667-10.667v-21.333C501.341,291.71,486.983,277.353,469.341,277.353z M428.487,490.686h-88.96
			l-28.011-149.333h144.981L428.487,490.686z M480.007,320.019h-192v-10.667c0-5.888,4.8-10.667,10.667-10.667h170.667
			c5.867,0,10.667,4.779,10.667,10.667V320.019z"/>
	</g>
</g>
<g>
	<g>
		<path d="M373.277,457.363L362.61,372.03c-0.747-5.867-6.165-9.899-11.925-9.259c-5.845,0.725-9.984,6.059-9.259,11.904
			l10.667,85.333c0.661,5.397,5.269,9.344,10.56,9.344c0.469,0,0.896-0.021,1.365-0.085
			C369.863,468.542,374.002,463.209,373.277,457.363z"/>
	</g>
</g>
<g>
	<g>
		<path d="M417.351,362.771c-5.781-0.64-11.2,3.392-11.925,9.259l-10.667,85.333c-0.725,5.845,3.435,11.179,9.259,11.904
			c0.448,0.064,0.896,0.085,1.344,0.085c5.291,0,9.899-3.947,10.581-9.344l10.667-85.333
			C427.335,368.83,423.175,363.497,417.351,362.771z"/>
	</g>
</g>
<g>
</g>
<g>
</g>
<g>
</g>
<g>
</g>
<g>
</g>
<g>
</g>
<g>
</g>
<g>
</g>
<g>
</g>
<g>
</g>
<g>
</g>
<g>
</g>
<g>
</g>
<g>
</g>
<g>
</g>
</svg>
