<?xml version="1.0" ?><svg viewBox="0 0 512 512" xmlns="http://www.w3.org/2000/svg"><defs><style>.cls-1{fill:#3f456b;}</style></defs><title/><g id="Lines"><path class="cls-1" d="M403.69,500H115.31A37.36,37.36,0,0,1,78,462.69V46.31A37.36,37.36,0,0,1,115.31,9H403.69A37.36,37.36,0,0,1,441,46.31V462.69A37.36,37.36,0,0,1,403.69,500ZM115.31,19A27.34,27.34,0,0,0,88,46.31V462.69A27.34,27.34,0,0,0,115.31,490H403.69A27.34,27.34,0,0,0,431,462.69V46.31A27.34,27.34,0,0,0,403.69,19Z"/><path class="cls-1" d="M436,221H83a5,5,0,0,1,0-10H436a5,5,0,0,1,0,10Z"/><path class="cls-1" d="M380.81,252h-240c-10.26,0-18.63-8.8-18.8-19.68V217a5,5,0,0,1,10,0v15c0,5.51,3.95,10,8.8,10h240c4.67,0,8.19-4.3,8.19-10V217a5,5,0,0,1,10,0v15.31C398.85,243.38,390.92,252,380.81,252Z"/><path class="cls-1" d="M312,150H208a5,5,0,0,1-5-5V82a5,5,0,0,1,5-5H312a5,5,0,0,1,5,5v63A5,5,0,0,1,312,150Zm-99-10h94V87H213Z"/></g><g id="Outline"><path class="cls-1" d="M54.22,290.5a5,5,0,0,1-3.28-8.78c.91-.81,2.82-3.13,2.72-4.92-.06-1-.89-2.1-2.47-3.22-5.35-3.78-6.59-8.05-6.69-11-.24-7,5.61-11.94,6.27-12.49a5,5,0,0,1,6.36,7.72c-.86.73-2.7,2.84-2.64,4.44,0,1.18,1.38,2.35,2.47,3.13,5.26,3.72,6.54,8,6.68,10.9.35,7.1-5.48,12.38-6.15,13A5,5,0,0,1,54.22,290.5Z"/><path class="cls-1" d="M54.5,322.5a5,5,0,0,1-3.28-8.77c.91-.82,2.82-3.14,2.72-4.93-.06-1-.89-2.1-2.47-3.22-5.35-3.78-6.59-8.05-6.69-11-.24-6.95,5.61-11.94,6.27-12.49a5,5,0,0,1,6.36,7.72c-.86.73-2.7,2.84-2.63,4.44,0,1.18,1.37,2.35,2.47,3.13,5.25,3.72,6.53,8,6.68,10.9.35,7.1-5.49,12.38-6.16,13A5,5,0,0,1,54.5,322.5Z"/><path class="cls-1" d="M54.78,354.5a5,5,0,0,1-3.28-8.78c.92-.81,2.82-3.13,2.72-4.92-.06-1-.89-2.1-2.47-3.22-5.34-3.78-6.59-8.05-6.69-11-.24-7,5.61-11.95,6.28-12.49a5,5,0,0,1,6.35,7.72c-.86.73-2.7,2.84-2.63,4.43,0,1.19,1.37,2.36,2.47,3.14,5.26,3.72,6.53,8,6.68,10.9.35,7.1-5.49,12.38-6.15,12.95A5,5,0,0,1,54.78,354.5Z"/><path class="cls-1" d="M55.06,386.5a5,5,0,0,1-3.28-8.78c.92-.82,2.82-3.13,2.72-4.92-.06-1-.89-2.1-2.47-3.22-5.34-3.78-6.58-8.05-6.69-11-.24-7,5.61-11.95,6.28-12.49A5,5,0,0,1,58,353.85c-.86.72-2.71,2.84-2.64,4.43,0,1.18,1.37,2.36,2.47,3.14,5.26,3.72,6.54,8,6.68,10.9.35,7.1-5.49,12.38-6.15,12.95A5,5,0,0,1,55.06,386.5Z"/><path class="cls-1" d="M465.22,109.5a5,5,0,0,1-3.28-8.78c.91-.81,2.82-3.13,2.72-4.92-.06-1-.89-2.1-2.47-3.22-5.35-3.78-6.59-8-6.69-11-.24-7,5.61-11.94,6.27-12.49a5,5,0,0,1,6.36,7.72c-.86.73-2.7,2.84-2.64,4.44.05,1.18,1.38,2.35,2.47,3.13,5.26,3.72,6.54,8,6.68,10.9.36,7.1-5.48,12.38-6.15,13A5,5,0,0,1,465.22,109.5Z"/><path class="cls-1" d="M465.5,141.5a5,5,0,0,1-3.28-8.77c.91-.82,2.82-3.14,2.72-4.93-.06-1-.89-2.1-2.47-3.22-5.35-3.78-6.59-8-6.69-11-.24-7,5.61-11.94,6.27-12.49a5,5,0,0,1,6.36,7.72c-.86.73-2.7,2.84-2.63,4.44.05,1.18,1.37,2.35,2.47,3.13,5.25,3.72,6.53,8,6.68,10.9.35,7.1-5.49,12.38-6.15,13A5,5,0,0,1,465.5,141.5Z"/><path class="cls-1" d="M465.78,173.5a5,5,0,0,1-3.28-8.78c.92-.81,2.82-3.13,2.72-4.92-.06-1-.89-2.1-2.47-3.22-5.34-3.78-6.58-8.05-6.69-11-.24-7,5.61-12,6.28-12.49a5,5,0,0,1,6.35,7.72c-.86.73-2.7,2.84-2.63,4.43.05,1.18,1.37,2.36,2.47,3.14,5.26,3.72,6.53,8,6.68,10.9.35,7.1-5.49,12.38-6.15,13A5,5,0,0,1,465.78,173.5Z"/><path class="cls-1" d="M466.06,205.5a5,5,0,0,1-3.28-8.78c.92-.82,2.82-3.13,2.72-4.92-.06-1-.89-2.1-2.47-3.22-5.34-3.78-6.58-8.05-6.69-11-.24-7,5.61-12,6.28-12.49a5,5,0,0,1,6.35,7.72c-.85.72-2.7,2.84-2.63,4.43.05,1.18,1.37,2.36,2.47,3.14,5.26,3.72,6.53,8,6.68,10.9.35,7.1-5.49,12.38-6.15,13A5,5,0,0,1,466.06,205.5Z"/><path class="cls-1" d="M325,363H194a5,5,0,0,1,0-10H325a5,5,0,0,1,0,10Z"/><path class="cls-1" d="M226.81,419.61a5,5,0,0,1-4.32-7.5l65.36-113.22a5,5,0,0,1,8.66,5L231.15,417.11A5,5,0,0,1,226.81,419.61Z"/><path class="cls-1" d="M292.19,419.61a5,5,0,0,1-4.34-2.5L222.49,303.89a5,5,0,0,1,8.66-5l65.36,113.22a5,5,0,0,1-4.32,7.5Z"/></g></svg>