<?xml version="1.0" encoding="iso-8859-1"?>
<!-- Generator: Adobe Illustrator 19.0.0, SVG Export Plug-In . SVG Version: 6.00 Build 0)  -->
<svg version="1.1" id="Capa_1" xmlns="http://www.w3.org/2000/svg" xmlns:xlink="http://www.w3.org/1999/xlink" x="0px" y="0px"
	 viewBox="0 0 512.043 512.043" style="enable-background:new 0 0 512.043 512.043;" xml:space="preserve">
<g>
	<g>
		<path d="M394.686,277.376c-64.683,0-117.333,52.629-117.333,117.333s52.651,117.333,117.333,117.333
			s117.333-52.629,117.333-117.333S459.369,277.376,394.686,277.376z M394.686,490.709c-52.928,0-96-43.072-96-96s43.072-96,96-96
			s96,43.072,96,96S447.614,490.709,394.686,490.709z"/>
	</g>
</g>
<g>
	<g>
		<path d="M394.686,320.043c-5.888,0-10.667,4.779-10.667,10.667v85.333c0,5.888,4.779,10.667,10.667,10.667
			s10.667-4.779,10.667-10.667v-85.333C405.353,324.821,400.574,320.043,394.686,320.043z"/>
	</g>
</g>
<g>
	<g>
		<path d="M402.153,451.243c-3.84-4.053-10.88-4.267-15.147,0c-1.92,2.133-2.987,4.693-2.987,7.467c0,2.773,1.045,5.547,3.179,7.467
			c1.941,2.133,4.715,3.2,7.488,3.2s5.547-1.067,7.467-3.2c2.133-1.92,3.2-4.693,3.2-7.467
			C405.353,455.936,404.307,453.163,402.153,451.243z"/>
	</g>
</g>
<g>
	<g>
		<path d="M494.526,273.408L447.849,8.853c-1.024-5.76-6.571-9.685-12.245-8.661l-133.76,22.293L32.915,0.064
			c-3.051-0.341-5.739,0.704-7.893,2.581c-2.176,1.899-3.499,4.587-3.648,7.467l-21.333,384c-0.32,5.653,3.819,10.581,9.451,11.2
			l93.205,10.368l4.16,23.552c0.917,5.163,5.397,8.811,10.475,8.811c0.576,0,1.195-0.043,1.771-0.149l129.643-21.611
			c5.803-0.96,9.749-6.464,8.768-12.267c-0.981-5.824-6.592-9.792-12.267-8.768l-119.232,19.861L65.726,83.456l362.944-60.48
			l44.864,254.144c1.024,5.803,6.613,9.707,12.352,8.64C491.667,284.736,495.55,279.211,494.526,273.408z M51.603,64.192
			c-2.816,0.469-5.312,2.069-6.955,4.373s-2.283,5.205-1.792,8l55.979,317.205l-76.928-8.555l20.16-362.965L216.19,36.757
			L51.603,64.192z"/>
	</g>
</g>
<g>
</g>
<g>
</g>
<g>
</g>
<g>
</g>
<g>
</g>
<g>
</g>
<g>
</g>
<g>
</g>
<g>
</g>
<g>
</g>
<g>
</g>
<g>
</g>
<g>
</g>
<g>
</g>
<g>
</g>
</svg>
