<?xml version="1.0" ?><svg viewBox="0 0 512 512" xmlns="http://www.w3.org/2000/svg"><defs><style>.cls-1{fill:#3f456b;}</style></defs><title/><g id="Lines"><path class="cls-1" d="M303.27,96h-283a5,5,0,1,1,0-10h283a5,5,0,0,1,0,10Z"/><path class="cls-1" d="M303.27,425h-283a5,5,0,1,1,0-10h283a5,5,0,0,1,0,10Z"/><path class="cls-1" d="M265.67,502H57.7c-24.63,0-45.43-20.84-45.43-45.51V54.84A44.16,44.16,0,0,1,25.76,23.13,45.45,45.45,0,0,1,57.7,10h208a44.78,44.78,0,0,1,44.6,44.84V111a5,5,0,0,1-10,0V54.84A34.76,34.76,0,0,0,265.67,20H57.7C38.49,20,22.27,36,22.27,54.84V456.49C22.27,475.74,38.49,492,57.7,492h208c18.75,0,34.6-16.26,34.6-35.51v-56.4a5,5,0,1,1,10,0v56.4C310.27,481.59,290.26,502,265.67,502Z"/><path class="cls-1" d="M475.89,248.42H387.06a25,25,0,0,1-25-25V134.58a25,25,0,0,1,25-25h88.83a25,25,0,0,1,25,25v88.84A25,25,0,0,1,475.89,248.42ZM387.06,119.58a15,15,0,0,0-15,15v88.84a15,15,0,0,0,15,15h88.83a15,15,0,0,0,15-15V134.58a15,15,0,0,0-15-15Z"/><path class="cls-1" d="M475.89,401.91H387.06a25,25,0,0,1-25-25V288.08a25,25,0,0,1,25-25h88.83a25,25,0,0,1,25,25v88.83A25,25,0,0,1,475.89,401.91ZM387.06,273.08a15,15,0,0,0-15,15v88.83a15,15,0,0,0,15,15h88.83a15,15,0,0,0,15-15V288.08a15,15,0,0,0-15-15Z"/><path class="cls-1" d="M320.6,248.42H231.77a25,25,0,0,1-25-25V134.58a25,25,0,0,1,25-25H320.6a25,25,0,0,1,25,25v88.84A25,25,0,0,1,320.6,248.42ZM231.77,119.58a15,15,0,0,0-15,15v88.84a15,15,0,0,0,15,15H320.6a15,15,0,0,0,15-15V134.58a15,15,0,0,0-15-15Z"/><path class="cls-1" d="M320.6,401.91H231.77a25,25,0,0,1-25-25V288.08a25,25,0,0,1,25-25H320.6a25,25,0,0,1,25,25v88.83A25,25,0,0,1,320.6,401.91ZM231.77,273.08a15,15,0,0,0-15,15v88.83a15,15,0,0,0,15,15H320.6a15,15,0,0,0,15-15V288.08a15,15,0,0,0-15-15Z"/><path class="cls-1" d="M306.27,273.08a5,5,0,0,1-5-5V243.59a5,5,0,0,1,10,0v24.49A5,5,0,0,1,306.27,273.08Z"/></g><g id="Outline"><path class="cls-1" d="M253.82,218.43a5,5,0,0,1-5-5V141.22a5,5,0,0,1,7.62-4.26l58.7,36.1a5,5,0,0,1,0,8.52l-58.7,36.11A5,5,0,0,1,253.82,218.43Zm5-68.26v54.31L303,177.32Z"/><path class="cls-1" d="M432.48,224h0a5,5,0,0,1-4.26-2.38l-7-11.33c-21.58-4-37-19.27-37-37,0-21,21.64-38,48.23-38s48.23,17,48.23,38c0,17.69-15.42,32.93-37,37l-7,11.33A5,5,0,0,1,432.48,224Zm-3.61-20.39,3.61,5.86,3.66-5.94a5,5,0,0,1,3.75-2.74c17.86-2.59,30.82-14.14,30.82-27.46,0-15.44-17.15-28-38.23-28s-38.23,12.56-38.23,28c0,13.32,13,24.87,30.82,27.46A5,5,0,0,1,428.87,203.61Z"/><path class="cls-1" d="M299.61,370.93H252.74a15,15,0,0,1-15-15V309.06a15,15,0,0,1,15-15h46.87a15,15,0,0,1,15,15v46.87A15,15,0,0,1,299.61,370.93Zm-46.87-66.87a5,5,0,0,0-5,5v46.87a5,5,0,0,0,5,5h46.87a5,5,0,0,0,5-5V309.06a5,5,0,0,0-5-5Z"/><path class="cls-1" d="M432.48,374.58a44,44,0,1,1,44-44A44,44,0,0,1,432.48,374.58Zm0-78a34,34,0,1,0,34,34A34,34,0,0,0,432.48,296.6Z"/><path class="cls-1" d="M432.48,335.59a5,5,0,0,1-5-5V311.75a5,5,0,0,1,10,0v18.84A5,5,0,0,1,432.48,335.59Z"/><path class="cls-1" d="M448,345a5,5,0,0,1-2.59-.72l-15.52-9.42a5,5,0,1,1,5.18-8.55l15.52,9.41A5,5,0,0,1,448,345Z"/><path class="cls-1" d="M211.65,184h-1a5,5,0,1,1,0-10h1a5,5,0,0,1,0,10Zm-21,0h-1a5,5,0,1,1,0-10h1a5,5,0,0,1,0,10Zm-21,0h-1a5,5,0,1,1,0-10h1a5,5,0,0,1,0,10Zm-21,0h-1a5,5,0,1,1,0-10h1a5,5,0,0,1,0,10Zm-21,0h-1a5,5,0,1,1,0-10h1a5,5,0,0,1,0,10Zm-21,0h-1a5,5,0,1,1,0-10h1a5,5,0,0,1,0,10Zm-21,0h-1a5,5,0,1,1,0-10h1a5,5,0,0,1,0,10Z"/><path class="cls-1" d="M211.65,337.5h-1a5,5,0,1,1,0-10h1a5,5,0,0,1,0,10Zm-21,0h-1a5,5,0,1,1,0-10h1a5,5,0,0,1,0,10Zm-21,0h-1a5,5,0,1,1,0-10h1a5,5,0,0,1,0,10Zm-21,0h-1a5,5,0,1,1,0-10h1a5,5,0,0,1,0,10Zm-21,0h-1a5,5,0,1,1,0-10h1a5,5,0,0,1,0,10Zm-21,0h-1a5,5,0,1,1,0-10h1a5,5,0,0,1,0,10Zm-21,0h-1a5,5,0,1,1,0-10h1a5,5,0,0,1,0,10Z"/><path class="cls-1" d="M163.3,481.56a22,22,0,1,1,22-22A22,22,0,0,1,163.3,481.56Zm0-33.93a12,12,0,1,0,12,12A12,12,0,0,0,163.3,447.63Z"/><path class="cls-1" d="M182.27,61h-43a5,5,0,0,1,0-10h43a5,5,0,0,1,0,10Z"/></g></svg>