<?xml version="1.0" ?><svg viewBox="0 0 512 512" xmlns="http://www.w3.org/2000/svg"><defs><style>.cls-1{fill:#3f456b;}</style></defs><title/><g id="Lines"><path class="cls-1" d="M368.73,195.36a5,5,0,0,1-5-5V139.84c0-1.4-.08-33.8-24.67-58.77-19-19.29-47-29.07-83.19-29.07s-64.2,9.78-83.18,29.07C148.1,106,148,138.44,148,139.81v50.55a5,5,0,0,1-10,0V139.84c0-3.82.55-38.37,27.54-65.79,20.94-21.27,51.32-32,90.31-32s69.38,10.78,90.32,32.05c27,27.42,27.56,62,27.54,65.82v50.49A5,5,0,0,1,368.73,195.36Z"/><path class="cls-1" d="M343.65,195.36a5,5,0,0,1-5-5V139.59c0-.21-.35-23.74-17.69-41.16-14.1-14.17-36-21.35-65.09-21.35s-51,7.18-65.09,21.35c-17.37,17.45-17.68,41-17.68,41.24v50.69a5,5,0,0,1-10,0V139.79c0-.37.08-27.8,20.6-48.41,16.05-16.13,40.33-24.3,72.17-24.3s56.13,8.17,72.18,24.3c20.37,20.45,20.6,47.09,20.6,48.21v50.77A5,5,0,0,1,343.65,195.36Z"/><path class="cls-1" d="M328,212H184a5,5,0,1,1,0-10H328a5,5,0,0,1,0,10Z"/><path class="cls-1" d="M442.56,484H71.38c-42.55,0-43-44.55-43-45V418.25a5,5,0,0,1,10,0V439c0,1.42.54,35,33,35H442.56c9.73,0,17.39-2.85,22.76-8.47,10-10.47,9.37-27.14,9.36-27.3V270c0-19.93-5.42-35-16.12-44.93C442.67,210.37,420,212,419.76,212l-.4,0H384a5,5,0,0,1,0-10h35.18c2.83-.19,27.63-1.34,46.09,15.65,12.88,11.85,19.41,29.47,19.41,52.35V437.9c.07,2,.4,21.43-12.13,34.54C465.22,480.11,455.13,484,442.56,484Z"/><path class="cls-1" d="M33.34,401.17a5,5,0,0,1-5-5V271c0-36,18-53,33.18-60.86A5,5,0,1,1,66.14,219c-18.45,9.59-27.8,27.08-27.8,52V396.17A5,5,0,0,1,33.34,401.17Z"/><path class="cls-1" d="M128,212H114.17a5,5,0,0,1,0-10H128a5,5,0,0,1,0,10Z"/><path class="cls-1" d="M184,236H128a5,5,0,0,1-5-5V213c0-11.7,5-18.51,9.24-22.16a24.46,24.46,0,0,1,9.64-5.21,5,5,0,0,1,2.32,9.73c-1.18.3-11.2,3.31-11.2,17.64v13h46V213c0-14.86-11-17.6-11.15-17.63a5,5,0,0,1,2.26-9.74,24.47,24.47,0,0,1,9.65,5.21C184,194.49,189,201.3,189,213v18A5,5,0,0,1,184,236Z"/><path class="cls-1" d="M384,236H328a5,5,0,0,1-5-5V213c0-11.7,5-18.51,9.24-22.16a24.46,24.46,0,0,1,9.64-5.21,5,5,0,0,1,2.32,9.73c-1.18.3-11.2,3.31-11.2,17.64v13h46V213c0-14.86-11-17.6-11.15-17.63a5,5,0,1,1,2.26-9.74,24.47,24.47,0,0,1,9.65,5.21C384,194.49,389,201.3,389,213v18A5,5,0,0,1,384,236Z"/><path class="cls-1" d="M174,484H137a5,5,0,0,1-5-5V251a5,5,0,0,1,5-5h37a5,5,0,0,1,5,5V479A5,5,0,0,1,174,484Zm-32-10h27V256H142Z"/><path class="cls-1" d="M375,484H338a5,5,0,0,1-5-5V251a5,5,0,0,1,5-5h37a5,5,0,0,1,5,5V479A5,5,0,0,1,375,484Zm-32-10h27V256H343Z"/><path class="cls-1" d="M137,256a4.88,4.88,0,0,1-1.86-.36c-13.2-5.28-12.18-24.15-12.13-24.95a5,5,0,0,1,10,.61c0,.2-.51,12.51,5.87,15.06A5,5,0,0,1,137,256Z"/><path class="cls-1" d="M175,256a5,5,0,0,1-1.85-9.64c6.39-2.56,5.87-14.94,5.86-15.06a5,5,0,0,1,10-.61c0,.8,1.08,19.67-12.13,24.95A4.88,4.88,0,0,1,175,256Z"/><path class="cls-1" d="M337,256a4.88,4.88,0,0,1-1.86-.36c-13.2-5.28-12.18-24.15-12.13-24.95a5,5,0,0,1,10,.61c0,.2-.51,12.51,5.87,15.06A5,5,0,0,1,337,256Z"/><path class="cls-1" d="M375,256a5,5,0,0,1-1.85-9.64c6.39-2.56,5.87-14.94,5.86-15.06a5,5,0,0,1,10-.61c.05.8,1.08,19.67-12.13,24.95A4.88,4.88,0,0,1,375,256Z"/><path class="cls-1" d="M311,303H201a5,5,0,0,1,0-10H311a5,5,0,0,1,0,10Z"/><path class="cls-1" d="M303,367h-6.06a15,15,0,0,1-15-15V320.75a15,15,0,0,1,15-15H303a15,15,0,0,1,15,15V352A15,15,0,0,1,303,367Zm-6.06-51.25a5,5,0,0,0-5,5V352a5,5,0,0,0,5,5H303a5,5,0,0,0,5-5V320.75a5,5,0,0,0-5-5Z"/><path class="cls-1" d="M300,352.19a5,5,0,0,1-5-5v-.76a5,5,0,0,1,10,0v.76A5,5,0,0,1,300,352.19Z"/><path class="cls-1" d="M300,315a5,5,0,0,1-5-5V298a5,5,0,0,1,10,0v12A5,5,0,0,1,300,315Z"/><path class="cls-1" d="M89,348c-9.28,0-16.58-2.81-21.71-8.36-7.7-8.35-7.39-19.93-7.29-21.8V292.5a5,5,0,0,1,10,0V318c0,.13,0,.27,0,.4s-.55,8.86,4.71,14.51c3.15,3.38,8,5.09,14.31,5.09s11.16-1.71,14.31-5.09c5.26-5.65,4.71-14.45,4.7-14.53s0-.26,0-.38V292.5a5,5,0,0,1,10,0v25.34c.1,1.87.41,13.45-7.29,21.8C105.58,345.19,98.28,348,89,348Z"/><path class="cls-1" d="M65,269.5a5,5,0,0,1-5-5V214.22c-.22-2.66-1.4-22.16,10-34.77C76.29,172.52,85,169,96,169c34.71,0,46.73.48,47.23.5a5,5,0,0,1-.21,10c-7.87,0-14,2.23-18.15,6.64C117.4,194,118,206.59,118,206.71a2.81,2.81,0,0,1,0,.29v57.42a5,5,0,0,1-10,0v-57.3c-.08-1.91-.43-17.2,9.54-27.79l.24-.25c-6-.05-13.19-.08-21.78-.08-8.12,0-14.19,2.33-18.55,7.13-9,9.94-7.49,27.21-7.47,27.38s0,.33,0,.49v50.5A5,5,0,0,1,65,269.5Z"/><path class="cls-1" d="M44,404c-23.43,0-32-22.62-32-37.9-.1-2.68-.5-22.1,8.73-31.72A17.11,17.11,0,0,1,33.34,329a5,5,0,1,1,0,10A7,7,0,0,0,28,341.3C22.5,347,21.81,361.24,22,365.79V366c0,.28.25,28,22,28a12.22,12.22,0,0,0,9.43-3.84c6.21-6.58,6.85-20.18,6.58-24.87a2.71,2.71,0,0,1,0-.29V318a5,5,0,0,1,10,0v46.87c.1,2.12.75,21.51-9.29,32.15A22.06,22.06,0,0,1,44,404Z"/><path class="cls-1" d="M64,435c-4.67,0-20.52-1-33.65-13.3C18.15,410.28,12,392.65,12,369.33a5,5,0,0,1,10,0c0,20.45,5.11,35.62,15.2,45.1A40.3,40.3,0,0,0,64.69,425H65c11.64,0,21.09-3.71,28.09-11C109.17,397.14,108,366.54,108,366.23a1.69,1.69,0,0,1,0-.23V321.33a5,5,0,0,1,10,0v44.56c.11,2.68,1,35.4-17.6,54.95C91.42,430.21,79.57,435,65.13,435Z"/><path class="cls-1" d="M120,297H58a5,5,0,0,1-5-5V265a5,5,0,0,1,5-5h62a5,5,0,0,1,5,5v27A5,5,0,0,1,120,297ZM63,287h52V270H63Z"/><path class="cls-1" d="M89,212H88a5,5,0,0,1,0-10h1a5,5,0,0,1,0,10Z"/><path class="cls-1" d="M89,248.17H88a5,5,0,1,1,0-10h1a5,5,0,0,1,0,10Z"/><path class="cls-1" d="M89,320H88a5,5,0,0,1,0-10h1a5,5,0,0,1,0,10Z"/></g><g id="Outline"><path class="cls-1" d="M96,464a5,5,0,0,1-5-5V449a5,5,0,0,1,10,0v10A5,5,0,0,1,96,464Zm0-30a5,5,0,0,1-5-5V419a5,5,0,0,1,10,0v10A5,5,0,0,1,96,434Z"/><path class="cls-1" d="M417,484a5,5,0,0,1-5-5v-2a5,5,0,0,1,10,0v2A5,5,0,0,1,417,484Zm0-22a5,5,0,0,1-5-5V447a5,5,0,0,1,10,0v10A5,5,0,0,1,417,462Zm0-30a5,5,0,0,1-5-5V417a5,5,0,0,1,10,0v10A5,5,0,0,1,417,432Zm0-30a5,5,0,0,1-5-5V387a5,5,0,0,1,10,0v10A5,5,0,0,1,417,402Zm0-30a5,5,0,0,1-5-5V357a5,5,0,0,1,10,0v10A5,5,0,0,1,417,372Zm0-30a5,5,0,0,1-5-5V327a5,5,0,0,1,10,0v10A5,5,0,0,1,417,342Zm0-30a5,5,0,0,1-5-5V297a5,5,0,0,1,10,0v10A5,5,0,0,1,417,312Zm0-30a5,5,0,0,1-5-5V267a5,5,0,0,1,10,0v10A5,5,0,0,1,417,282Zm0-30a5,5,0,0,1-5-5V237a5,5,0,0,1,10,0v10A5,5,0,0,1,417,252Zm0-30a5,5,0,0,1-5-5V207a5,5,0,0,1,10,0v10A5,5,0,0,1,417,222Z"/><path class="cls-1" d="M268.44,317a5,5,0,0,1-5-5V299a5,5,0,0,1,10,0v13A5,5,0,0,1,268.44,317Z"/><path class="cls-1" d="M243.22,317a5,5,0,0,1-5-5V299a5,5,0,0,1,10,0v13A5,5,0,0,1,243.22,317Z"/><path class="cls-1" d="M218,317a5,5,0,0,1-5-5V299a5,5,0,0,1,10,0v13A5,5,0,0,1,218,317Z"/><path class="cls-1" d="M174,303H137a5,5,0,0,1,0-10h37a5,5,0,0,1,0,10Z"/><path class="cls-1" d="M375,303H338a5,5,0,0,1,0-10h37a5,5,0,0,1,0,10Z"/></g></svg>