<?xml version="1.0" ?><svg viewBox="0 0 512 512" xmlns="http://www.w3.org/2000/svg"><defs><style>.cls-1{fill:#3f456b;}</style></defs><title/><g id="Lines"><path class="cls-1" d="M253,258a5,5,0,0,1-5-5v-1a5,5,0,0,1,10,0v1A5,5,0,0,1,253,258Z"/><path class="cls-1" d="M254.45,489A235.4,235.4,0,0,1,88,87.12,235.4,235.4,0,1,1,420.9,420,233.84,233.84,0,0,1,254.45,489Zm0-460.78A225.39,225.39,0,0,0,95.08,413,225.39,225.39,0,1,0,413.83,94.19,223.91,223.91,0,0,0,254.45,28.18Z"/><path class="cls-1" d="M344.54,499.92a5,5,0,0,1-1.75-9.68,252.37,252.37,0,0,0,149-150.18,5,5,0,1,1,9.4,3.42A262.33,262.33,0,0,1,346.28,499.61,5,5,0,0,1,344.54,499.92Z"/><path class="cls-1" d="M16.5,159.87A5,5,0,0,1,11.88,153,263.37,263.37,0,0,1,154.12,10.88a5,5,0,0,1,3.82,9.24A254.57,254.57,0,0,0,21.12,156.79,5,5,0,0,1,16.5,159.87Z"/><path class="cls-1" d="M456.84,98.4a43.81,43.81,0,1,1,43.81-43.81A43.86,43.86,0,0,1,456.84,98.4Zm0-77.62a33.81,33.81,0,1,0,33.81,33.81A33.85,33.85,0,0,0,456.84,20.78Z"/><path class="cls-1" d="M456.5,75.23a20.3,20.3,0,1,1,20.3-20.3A20.31,20.31,0,0,1,456.5,75.23Zm0-30.6a10.3,10.3,0,1,0,10.3,10.3A10.31,10.31,0,0,0,456.5,44.63Z"/><path class="cls-1" d="M254.45,339.41a85.84,85.84,0,1,1,85.84-85.84A85.94,85.94,0,0,1,254.45,339.41Zm0-161.68a75.84,75.84,0,1,0,75.84,75.84A75.93,75.93,0,0,0,254.45,177.73Z"/><path class="cls-1" d="M401,251a5,5,0,0,1-4-7.95l55-75.46V94a5,5,0,0,1,10,0v75.22a5,5,0,0,1-1,2.95L405,249A5,5,0,0,1,401,251Z"/><path class="cls-1" d="M378.37,309.75a13,13,0,0,1-7.57-2.44l-19.08-13.62a13.07,13.07,0,0,1-3.05-18.25l25.83-36.19a13.1,13.1,0,0,1,18.25-3l19.09,13.62a13.08,13.08,0,0,1,3,18.25l-25.83,36.18h0a13,13,0,0,1-8.5,5.31A13.27,13.27,0,0,1,378.37,309.75Zm6.61-8.39h0Zm.18-57.59a3.09,3.09,0,0,0-2.52,1.29l-25.83,36.19a3.08,3.08,0,0,0,.72,4.3l19.08,13.62a3.06,3.06,0,0,0,4.3-.72l25.83-36.18A3.07,3.07,0,0,0,406,258l-19.09-13.62A3,3,0,0,0,385.16,243.77Z"/></g><g id="Outline"><path class="cls-1" d="M254,377.39a124.85,124.85,0,0,1-25.85-2.7,5,5,0,1,1,2.07-9.78A114.69,114.69,0,0,0,254,367.39a113.33,113.33,0,0,0,79.47-32.28,5,5,0,1,1,7,7.16A123.24,123.24,0,0,1,254,377.39Z"/><path class="cls-1" d="M172.9,171.5a5,5,0,0,1-3.41-8.65,124.13,124.13,0,0,1,115.39-29.46,5,5,0,1,1-2.48,9.69,114.12,114.12,0,0,0-106.09,27.08A5,5,0,0,1,172.9,171.5Z"/><path class="cls-1" d="M254,413a160.71,160.71,0,0,1-34.36-3.71,5,5,0,0,1,2.14-9.77A150.48,150.48,0,0,0,254,403,148.7,148.7,0,0,0,358.2,360.75a5,5,0,0,1,7,7.18A158.72,158.72,0,0,1,254,413Z"/><path class="cls-1" d="M149.42,144.71A5,5,0,0,1,146,136,159.82,159.82,0,0,1,293.34,98.8a5,5,0,1,1-2.45,9.69,149.86,149.86,0,0,0-138.08,34.9A5,5,0,0,1,149.42,144.71Z"/><path class="cls-1" d="M124.12,120.82a5,5,0,0,1-3.43-8.64A194.6,194.6,0,0,1,301.57,65a5,5,0,1,1-2.44,9.7,184.59,184.59,0,0,0-171.58,44.71A5,5,0,0,1,124.12,120.82Z"/><path class="cls-1" d="M254,447.73A195.76,195.76,0,0,1,211.4,443a5,5,0,0,1,2.19-9.76A185.63,185.63,0,0,0,254,437.73a183.32,183.32,0,0,0,128.25-52,5,5,0,0,1,7,7.18A193.26,193.26,0,0,1,254,447.73Z"/></g></svg>