<?xml version="1.0" ?><svg viewBox="0 0 512 512" xmlns="http://www.w3.org/2000/svg"><defs><style>.cls-1{fill:#3f456b;}.cls-2{fill:#384169;}</style></defs><title/><g id="Lines"><path class="cls-1" d="M303,96H17a5,5,0,0,1,0-10H303a5,5,0,0,1,0,10Z"/><path class="cls-1" d="M303,425H20a5,5,0,0,1,0-10H303a5,5,0,0,1,0,10Z"/><path class="cls-1" d="M265.4,502h-208C32.8,502,12,481.16,12,456.49V54.84A44.13,44.13,0,0,1,25.5,23.13,45.4,45.4,0,0,1,57.43,10h208A44.78,44.78,0,0,1,310,54.84V456.49C310,481.58,290,502,265.4,502ZM57.43,20C38.23,20,22,36,22,54.84V456.49C22,475.74,38.23,492,57.43,492h208c18.76,0,34.6-16.26,34.6-35.51V54.84A34.76,34.76,0,0,0,265.4,20Z"/><path class="cls-1" d="M163,481.55a22,22,0,1,1,22-22A22,22,0,0,1,163,481.55Zm0-33.93a12,12,0,1,0,12,12A12,12,0,0,0,163,447.62Z"/><path class="cls-1" d="M182,61H139a5,5,0,0,1,0-10h43a5,5,0,0,1,0,10Z"/><path class="cls-2" d="M163.15,287.2c-10.43,0-17.58-7.12-18.49-8.08L51.64,185a5,5,0,0,1,7.12-7l93.17,94.29s4.75,4.94,11.22,4.94c5.88,0,10.91-5,11-5L268.26,178a5,5,0,0,1,7.07,7.07l-94.1,94.16C181,279.46,173.3,287.2,163.15,287.2Z"/><path class="cls-2" d="M55,333.94a5,5,0,0,1-3.53-8.54l72.47-72.5A5,5,0,1,1,131,260L58.54,332.47A5,5,0,0,1,55,333.94Z"/><path class="cls-2" d="M271.6,333.94a5,5,0,0,1-3.56-1.49l-72.43-73.29a5,5,0,0,1,7.12-7l72.43,73.29a5,5,0,0,1-3.56,8.52Z"/><path class="cls-2" d="M265,338H62a15,15,0,0,1-15-15V188.29a15,15,0,0,1,15-15H265a15,15,0,0,1,15,15V323A15,15,0,0,1,265,338ZM62,183.29a5,5,0,0,0-5,5V323a5,5,0,0,0,5,5H265a5,5,0,0,0,5-5V188.29a5,5,0,0,0-5-5Z"/><path class="cls-1" d="M410.28,145.84a12.79,12.79,0,0,1-7.5-2.48c-1.82-1.3-22.72-16.44-38.33-38-7.94-11-9.72-23.26-4.87-33.7a31.73,31.73,0,0,1,26.6-17.92c12-.89,19.85,4.07,24.39,9.48C415.18,57.85,423.1,53,435.09,54a31.73,31.73,0,0,1,26.37,18.26c4.71,10.49,2.78,22.75-5.3,33.63-16,21.52-37.25,36.45-38.85,37.56A11.73,11.73,0,0,1,410.28,145.84Zm-1.43-10.43a2.06,2.06,0,0,0,2.59,0l.14-.09h0c.21-.15,21.3-14.82,36.55-35.34,5.94-8,7.44-16.37,4.21-23.57-3.07-6.82-10.18-11.69-18.13-12.39-14.42-1.27-18.34,9.05-18.74,10.23a5.07,5.07,0,0,1-4.75,3.45h-.43a5,5,0,0,1-4.77-3.55c-.37-1.14-4.16-11.54-18.59-10.43-8,.6-15.13,5.38-18.28,12.16-3.33,7.16-1.94,15.55,3.9,23.63,15,20.71,35.9,35.64,36.11,35.79S408.76,135.33,408.85,135.41Z"/><path class="cls-1" d="M411,262a5,5,0,0,1-5-5v-1a5,5,0,0,1,10,0v1A5,5,0,0,1,411,262Z"/><path class="cls-1" d="M378,262a5,5,0,0,1-5-5v-1a5,5,0,0,1,10,0v1A5,5,0,0,1,378,262Z"/><path class="cls-1" d="M442,262a5,5,0,0,1-5-5v-1a5,5,0,0,1,10,0v1A5,5,0,0,1,442,262Z"/><path class="cls-1" d="M410,423a5,5,0,0,1-5-5v-1a5,5,0,0,1,10,0v1A5,5,0,0,1,410,423Z"/><path class="cls-1" d="M443,423a5,5,0,0,1-5-5v-1a5,5,0,0,1,10,0v1A5,5,0,0,1,443,423Z"/><path class="cls-1" d="M379,423a5,5,0,0,1-5-5v-1a5,5,0,0,1,10,0v1A5,5,0,0,1,379,423Z"/><path class="cls-1" d="M471,339a5,5,0,0,1-2.55-.7l-26.09-15.46A99,99,0,0,1,410.5,328c-47.14,0-85.5-32.3-85.5-72s38.36-72,85.5-72S496,216.3,496,256c0,17.3-7.31,33.88-20.63,46.93l.63,31a5,5,0,0,1-5,5.1Zm-28.1-26.65a5,5,0,0,1,2.55.7l20.37,12.07-.49-24.19a5,5,0,0,1,1.61-3.77C479.23,285.8,486,271.18,486,256c0-34.19-33.87-62-75.5-62S335,221.81,335,256s33.87,62,75.5,62a89,89,0,0,0,30.68-5.34A4.88,4.88,0,0,1,442.9,312.35Z"/><path class="cls-1" d="M350,500a5,5,0,0,1-5-5.1l.63-31C332.31,450.88,325,434.3,325,417c0-39.7,38.36-72,85.5-72S496,377.3,496,417s-38.36,72-85.5,72a99,99,0,0,1-31.86-5.16L352.55,499.3A5,5,0,0,1,350,500Zm60.5-145c-41.63,0-75.5,27.81-75.5,62,0,15.18,6.77,29.8,19.06,41.16a5,5,0,0,1,1.61,3.77l-.49,24.19,20.37-12.07a5,5,0,0,1,4.27-.39A89,89,0,0,0,410.5,479c41.63,0,75.5-27.81,75.5-62S452.13,355,410.5,355Z"/><path class="cls-1" d="M350,181a5,5,0,0,1-5-5.1l.63-31C332.31,131.88,325,115.3,325,98c0-39.7,38.36-72,85.5-72S496,58.3,496,98s-38.36,72-85.5,72a99,99,0,0,1-31.86-5.16L352.55,180.3A5,5,0,0,1,350,181ZM410.5,36C368.87,36,335,63.81,335,98c0,15.18,6.77,29.8,19.06,41.16a5,5,0,0,1,1.61,3.77l-.49,24.19,20.37-12.07a5,5,0,0,1,4.27-.39A89,89,0,0,0,410.5,160c41.63,0,75.5-27.81,75.5-62S452.13,36,410.5,36Z"/></g><g id="Outline"><path class="cls-1" d="M227,368h-1a5,5,0,0,1,0-10h1a5,5,0,0,1,0,10Zm-21,0h-1a5,5,0,0,1,0-10h1a5,5,0,0,1,0,10Zm-21,0h-1a5,5,0,0,1,0-10h1a5,5,0,0,1,0,10Zm-21,0h-1a5,5,0,0,1,0-10h1a5,5,0,0,1,0,10Zm-21,0h-1a5,5,0,0,1,0-10h1a5,5,0,0,1,0,10Zm-21,0h-1a5,5,0,0,1,0-10h1a5,5,0,0,1,0,10Zm-21,0h-1a5,5,0,0,1,0-10h1a5,5,0,0,1,0,10Z"/></g></svg>