<?xml version="1.0" ?><svg enable-background="new 0 0 512 512" version="1.1" viewBox="0 0 512 512" xml:space="preserve" xmlns="http://www.w3.org/2000/svg" xmlns:xlink="http://www.w3.org/1999/xlink"><g id="Colors"><g><g><path d="M53.584,132.683c-1.491,3.25-5.331,4.678-8.582,3.188c-3.249-1.49-4.676-5.334-3.186-8.582     c1.489-3.25,5.332-4.676,8.58-3.187C53.647,125.592,55.073,129.434,53.584,132.683z" fill="#3F456B"/></g></g><g><g><path d="M48,117c-2.761,0-5-2.239-5-5V40c0-2.761,2.239-5,5-5s5,2.239,5,5v72C53,114.761,50.761,117,48,117z" fill="#3F456B"/></g></g></g><g id="Lines"><g><g><path d="M496,374H308.805c-2.761,0-5-2.239-5-5s2.239-5,5-5H496c2.761,0,5,2.239,5,5S498.761,374,496,374z" fill="#3F456B"/></g></g><g><g><path d="M204.195,374H21.405c-2.761,0-5-2.239-5-5s2.239-5,5-5h182.791c2.761,0,5,2.239,5,5     S206.957,374,204.195,374z" fill="#3F456B"/></g></g><g><g><path d="M496,502H19.202c-2.761,0-5-2.239-5-5V17c0-2.761,2.239-5,5-5H496c2.761,0,5,2.239,5,5v480     C501,499.761,498.761,502,496,502z M24.202,492H491V22H24.202V492z" fill="#3F456B"/></g></g><g><g><path d="M304,439h-94c-2.761,0-5-2.239-5-5V171c0-2.761,2.239-5,5-5h94c2.761,0,5,2.239,5,5v263     C309,436.761,306.761,439,304,439z M215,429h84V176h-84V429z" fill="#3F456B"/></g></g><g><g><path d="M333,475H181c-2.761,0-5-2.239-5-5V369c0-2.761,2.239-5,5-5s5,2.239,5,5v96h142v-96c0-2.761,2.239-5,5-5     s5,2.239,5,5v101C338,472.761,335.761,475,333,475z" fill="#3F456B"/></g></g><g><g><rect fill="#3F456B" height="152" width="12" x="253" y="19"/></g></g><g><g><path d="M119.628,373.12l-10.284-6.184c1.484-2.468,1.417-7.89-0.131-10.745     c-4.528-8.344-4.503-17.705,0.067-25.681c3.209-5.601,3.345-11.632,0.355-15.74c-6.084-8.36-5.936-19.971,0.377-29.58     c4.971-7.565,6.322-12.292,0.556-18.694c-11.248-12.489-8.591-20.917-4.277-29.872c2.619-5.436,2.848-13.65,2.716-16.356     c-0.005-0.098-0.007-0.196-0.007-0.293V19h12v200.841c0.08,1.903,0.35,13.174-3.897,21.993     c-3.105,6.445-4.391,9.113,2.383,16.634c12.978,14.41,4.273,27.657,0.556,33.314c-3.598,5.477-3.868,11.58-0.703,15.928     c5.811,7.984,5.947,19.008,0.354,28.768c-3.194,5.574-1.726,10.686,0.068,13.992C123.348,357.081,123.29,367.031,119.628,373.12z     " fill="#3F456B"/></g></g><g><g><path d="M407.628,373.12l-10.284-6.184c1.484-2.468,1.417-7.89-0.131-10.745     c-4.528-8.344-4.503-17.705,0.067-25.681c3.209-5.601,3.345-11.632,0.355-15.74c-6.084-8.36-5.936-19.971,0.377-29.58     c4.971-7.565,6.322-12.292,0.556-18.694c-11.248-12.489-8.591-20.917-4.277-29.872c2.619-5.436,2.848-13.65,2.716-16.356     c-0.005-0.098-0.007-0.196-0.007-0.293V19h12v200.841c0.08,1.903,0.35,13.174-3.897,21.993     c-3.105,6.445-4.391,9.113,2.383,16.634c12.978,14.41,4.273,27.657,0.556,33.314c-3.598,5.477-3.868,11.58-0.703,15.928     c5.811,7.984,5.947,19.008,0.354,28.768c-3.194,5.574-1.726,10.686,0.068,13.992C411.348,357.081,411.29,367.031,407.628,373.12z     " fill="#3F456B"/></g></g><g><g><path d="M263.584,209.683c-1.491,3.25-5.331,4.678-8.582,3.188c-3.249-1.49-4.676-5.334-3.186-8.582     c1.489-3.25,5.332-4.676,8.58-3.187C263.647,202.592,265.073,206.434,263.584,209.683z" fill="#3F456B"/></g></g><g><g><path d="M263.584,246.683c-1.491,3.25-5.331,4.678-8.582,3.188c-3.249-1.49-4.676-5.334-3.186-8.582     c1.489-3.25,5.332-4.676,8.58-3.187C263.647,239.592,265.073,243.434,263.584,246.683z" fill="#3F456B"/></g></g><g><g><path d="M263.584,283.683c-1.491,3.25-5.331,4.678-8.582,3.188c-3.249-1.49-4.676-5.334-3.186-8.582     c1.489-3.25,5.332-4.676,8.58-3.186C263.647,276.592,265.073,280.434,263.584,283.683z" fill="#3F456B"/></g></g><g><g><path d="M263.584,320.683c-1.491,3.25-5.331,4.678-8.582,3.188c-3.249-1.49-4.676-5.334-3.186-8.582     c1.489-3.25,5.332-4.676,8.58-3.186C263.647,313.592,265.073,317.434,263.584,320.683z" fill="#3F456B"/></g></g><g><g><path d="M263.584,357.683c-1.491,3.25-5.331,4.678-8.582,3.188c-3.249-1.49-4.676-5.334-3.186-8.582     c1.489-3.25,5.332-4.676,8.58-3.186C263.647,350.592,265.073,354.434,263.584,357.683z" fill="#3F456B"/></g></g></g></svg>