<?xml version="1.0" ?><svg viewBox="0 0 512 512" xmlns="http://www.w3.org/2000/svg"><defs><style>.cls-1{fill:#3f456b;}</style></defs><title/><g id="Lines"><path class="cls-1" d="M357,412.56a5,5,0,0,1-5-5v-4.12a5,5,0,0,1,10,0v4.12A5,5,0,0,1,357,412.56Z"/><path class="cls-1" d="M383,412.56a5,5,0,0,1-5-5v-4.12a5,5,0,0,1,10,0v4.12A5,5,0,0,1,383,412.56Z"/><path class="cls-1" d="M409,412.56a5,5,0,0,1-5-5v-4.12a5,5,0,0,1,10,0v4.12A5,5,0,0,1,409,412.56Z"/><path class="cls-1" d="M121.9,502H100.54c-9.83,0-13.3-9.87-13.79-15.29l-3.4-21.43a5,5,0,0,1,9.88-1.57l3.42,21.62c0,.13,0,.26,0,.39s.7,6.28,3.84,6.28H121.9c3.16,0,3.84-6.22,3.85-6.28s0-.26,0-.39l3.42-21.54a5,5,0,0,1,9.88,1.57l-3.39,21.36C135.21,492.13,131.74,502,121.9,502Z"/><path class="cls-1" d="M411.9,502H390.54c-9.83,0-13.3-9.87-13.79-15.29l-3.4-21.43a5,5,0,0,1,9.88-1.57l3.42,21.62c0,.13,0,.26.05.39s.7,6.28,3.84,6.28H411.9c3.16,0,3.84-6.22,3.85-6.28s0-.26,0-.39l3.42-21.54a5,5,0,0,1,9.88,1.57l-3.39,21.36C425.21,492.13,421.74,502,411.9,502Z"/><path class="cls-1" d="M422,469H89c-52.66,0-54-53.06-54-53.6v-54c0-1.4,0-10.15,5.81-16.15A18,18,0,0,1,54.13,340H456.87a18,18,0,0,1,13.32,5.26c5.81,6,5.84,14.75,5.81,16.15v53.92C476,415.94,474.65,469,422,469ZM54.13,350A8.1,8.1,0,0,0,48,352.18c-2.58,2.65-3.06,7.41-3,9v54.13C45,417,46.28,459,89,459H422c18,0,30.85-7.27,38.17-21.61A56.39,56.39,0,0,0,466,415.27v-54.1c0-1.58-.44-6.34-3-9a8.1,8.1,0,0,0-6.11-2.18Z"/><path class="cls-1" d="M258.41,447.1a41.31,41.31,0,1,1,41.3-41.31A41.35,41.35,0,0,1,258.41,447.1Zm0-72.62a31.31,31.31,0,1,0,31.3,31.31A31.34,31.34,0,0,0,258.41,374.48Z"/><path class="cls-1" d="M457,350a5,5,0,0,1-5-5V323a5,5,0,0,0-5-5H65a5,5,0,0,0-5,5v22a5,5,0,0,1-10,0V323a15,15,0,0,1,15-15H447a15,15,0,0,1,15,15v22A5,5,0,0,1,457,350Z"/><path class="cls-1" d="M446,318a5,5,0,0,1-5-5V291a5,5,0,0,0-5-5H82a5,5,0,0,0-5,5v22a5,5,0,0,1-10,0V291a15,15,0,0,1,15-15H436a15,15,0,0,1,15,15v22A5,5,0,0,1,446,318Z"/><path class="cls-1" d="M453,261H60a25,25,0,0,1-25-25V77A25,25,0,0,1,60,52H453a25,25,0,0,1,25,25V236A25,25,0,0,1,453,261ZM60,62A15,15,0,0,0,45,77V236a15,15,0,0,0,15,15H453a15,15,0,0,0,15-15V77a15,15,0,0,0-15-15Z"/><path class="cls-1" d="M127,286a5,5,0,0,1-5-5V256a5,5,0,0,1,10,0v25A5,5,0,0,1,127,286Z"/><path class="cls-1" d="M384,286a5,5,0,0,1-5-5V256a5,5,0,0,1,10,0v25A5,5,0,0,1,384,286Z"/><path class="cls-1" d="M384,62a5,5,0,0,1-3.51-1.44c-.4-.39-40.85-39.06-125-39.06-84.43,0-123.56,38.62-123.94,39a5,5,0,0,1-7.12-7c1.7-1.72,42.49-42,131.06-42s130.28,40.23,132,41.94A5,5,0,0,1,384,62Z"/><path class="cls-1" d="M246.14,395.78a5,5,0,0,1-4-2l-9.9-13.18a5,5,0,0,1,8-6l9.9,13.18a5,5,0,0,1-1,7A4.94,4.94,0,0,1,246.14,395.78Z"/><path class="cls-1" d="M333.25,62a4.94,4.94,0,0,1-2.6-.74c-.23-.13-24.48-14.43-74.95-14.43-50.79,0-74.07,14.26-74.3,14.4a5,5,0,1,1-5.32-8.46c1-.65,26-15.94,79.62-15.94s79.11,15.26,80.17,15.91A5,5,0,0,1,333.25,62Z"/></g><g id="Outline"><path class="cls-1" d="M445,128h-1a5,5,0,0,1,0-10h1a5,5,0,0,1,0,10Z"/><path class="cls-1" d="M445,162h-1a5,5,0,0,1,0-10h1a5,5,0,0,1,0,10Z"/><path class="cls-1" d="M445,196h-1a5,5,0,0,1,0-10h1a5,5,0,0,1,0,10Z"/><path class="cls-1" d="M445,230h-1a5,5,0,0,1,0-10h1a5,5,0,0,1,0,10Z"/><path class="cls-1" d="M445,94h-1a5,5,0,0,1,0-10h1a5,5,0,0,1,0,10Z"/><path class="cls-1" d="M414.08,128h-1a5,5,0,1,1,0-10h1a5,5,0,0,1,0,10Z"/><path class="cls-1" d="M414.08,162h-1a5,5,0,1,1,0-10h1a5,5,0,0,1,0,10Z"/><path class="cls-1" d="M414.08,196h-1a5,5,0,1,1,0-10h1a5,5,0,0,1,0,10Z"/><path class="cls-1" d="M414.08,230h-1a5,5,0,1,1,0-10h1a5,5,0,0,1,0,10Z"/><path class="cls-1" d="M414.08,94h-1a5,5,0,0,1,0-10h1a5,5,0,0,1,0,10Z"/><path class="cls-1" d="M383.17,128h-1a5,5,0,0,1,0-10h1a5,5,0,0,1,0,10Z"/><path class="cls-1" d="M383.17,162h-1a5,5,0,0,1,0-10h1a5,5,0,1,1,0,10Z"/><path class="cls-1" d="M383.17,196h-1a5,5,0,0,1,0-10h1a5,5,0,1,1,0,10Z"/><path class="cls-1" d="M383.17,230h-1a5,5,0,0,1,0-10h1a5,5,0,1,1,0,10Z"/><path class="cls-1" d="M383.17,94h-1a5,5,0,0,1,0-10h1a5,5,0,0,1,0,10Z"/><path class="cls-1" d="M352.25,128h-1a5,5,0,0,1,0-10h1a5,5,0,0,1,0,10Z"/><path class="cls-1" d="M352.25,162h-1a5,5,0,0,1,0-10h1a5,5,0,0,1,0,10Z"/><path class="cls-1" d="M352.25,196h-1a5,5,0,0,1,0-10h1a5,5,0,0,1,0,10Z"/><path class="cls-1" d="M352.25,230h-1a5,5,0,0,1,0-10h1a5,5,0,0,1,0,10Z"/><path class="cls-1" d="M352.25,94h-1a5,5,0,0,1,0-10h1a5,5,0,0,1,0,10Z"/><path class="cls-1" d="M321.33,128h-1a5,5,0,0,1,0-10h1a5,5,0,0,1,0,10Z"/><path class="cls-1" d="M321.33,162h-1a5,5,0,0,1,0-10h1a5,5,0,0,1,0,10Z"/><path class="cls-1" d="M321.33,196h-1a5,5,0,0,1,0-10h1a5,5,0,0,1,0,10Z"/><path class="cls-1" d="M321.33,230h-1a5,5,0,1,1,0-10h1a5,5,0,0,1,0,10Z"/><path class="cls-1" d="M321.33,94h-1a5,5,0,0,1,0-10h1a5,5,0,0,1,0,10Z"/><path class="cls-1" d="M290.42,128h-1a5,5,0,0,1,0-10h1a5,5,0,0,1,0,10Z"/><path class="cls-1" d="M290.42,162h-1a5,5,0,0,1,0-10h1a5,5,0,0,1,0,10Z"/><path class="cls-1" d="M290.42,196h-1a5,5,0,0,1,0-10h1a5,5,0,0,1,0,10Z"/><path class="cls-1" d="M290.42,230h-1a5,5,0,0,1,0-10h1a5,5,0,1,1,0,10Z"/><path class="cls-1" d="M290.42,94h-1a5,5,0,0,1,0-10h1a5,5,0,0,1,0,10Z"/><path class="cls-1" d="M259.5,128h-1a5,5,0,0,1,0-10h1a5,5,0,0,1,0,10Z"/><path class="cls-1" d="M259.5,162h-1a5,5,0,0,1,0-10h1a5,5,0,0,1,0,10Z"/><path class="cls-1" d="M259.5,196h-1a5,5,0,0,1,0-10h1a5,5,0,0,1,0,10Z"/><path class="cls-1" d="M259.5,230h-1a5,5,0,0,1,0-10h1a5,5,0,0,1,0,10Z"/><path class="cls-1" d="M259.5,94h-1a5,5,0,0,1,0-10h1a5,5,0,0,1,0,10Z"/><path class="cls-1" d="M228.58,128h-1a5,5,0,0,1,0-10h1a5,5,0,1,1,0,10Z"/><path class="cls-1" d="M228.58,162h-1a5,5,0,0,1,0-10h1a5,5,0,1,1,0,10Z"/><path class="cls-1" d="M228.58,196h-1a5,5,0,0,1,0-10h1a5,5,0,1,1,0,10Z"/><path class="cls-1" d="M228.58,230h-1a5,5,0,0,1,0-10h1a5,5,0,1,1,0,10Z"/><path class="cls-1" d="M228.58,94h-1a5,5,0,0,1,0-10h1a5,5,0,1,1,0,10Z"/><path class="cls-1" d="M197.67,128h-1a5,5,0,1,1,0-10h1a5,5,0,0,1,0,10Z"/><path class="cls-1" d="M197.67,162h-1a5,5,0,1,1,0-10h1a5,5,0,0,1,0,10Z"/><path class="cls-1" d="M197.67,196h-1a5,5,0,1,1,0-10h1a5,5,0,0,1,0,10Z"/><path class="cls-1" d="M197.67,230h-1a5,5,0,1,1,0-10h1a5,5,0,0,1,0,10Z"/><path class="cls-1" d="M197.67,94h-1a5,5,0,1,1,0-10h1a5,5,0,0,1,0,10Z"/><path class="cls-1" d="M166.75,128h-1a5,5,0,0,1,0-10h1a5,5,0,0,1,0,10Z"/><path class="cls-1" d="M166.75,162h-1a5,5,0,0,1,0-10h1a5,5,0,0,1,0,10Z"/><path class="cls-1" d="M166.75,196h-1a5,5,0,0,1,0-10h1a5,5,0,0,1,0,10Z"/><path class="cls-1" d="M166.75,230h-1a5,5,0,0,1,0-10h1a5,5,0,0,1,0,10Z"/><path class="cls-1" d="M166.75,94h-1a5,5,0,0,1,0-10h1a5,5,0,0,1,0,10Z"/><path class="cls-1" d="M135.83,128h-1a5,5,0,0,1,0-10h1a5,5,0,1,1,0,10Z"/><path class="cls-1" d="M135.83,162h-1a5,5,0,0,1,0-10h1a5,5,0,1,1,0,10Z"/><path class="cls-1" d="M135.83,196h-1a5,5,0,0,1,0-10h1a5,5,0,1,1,0,10Z"/><path class="cls-1" d="M135.83,230h-1a5,5,0,0,1,0-10h1a5,5,0,1,1,0,10Z"/><path class="cls-1" d="M135.83,94h-1a5,5,0,0,1,0-10h1a5,5,0,0,1,0,10Z"/><path class="cls-1" d="M104.92,128h-1a5,5,0,0,1,0-10h1a5,5,0,1,1,0,10Z"/><path class="cls-1" d="M104.92,162h-1a5,5,0,0,1,0-10h1a5,5,0,1,1,0,10Z"/><path class="cls-1" d="M104.92,196h-1a5,5,0,0,1,0-10h1a5,5,0,1,1,0,10Z"/><path class="cls-1" d="M104.92,230h-1a5,5,0,0,1,0-10h1a5,5,0,1,1,0,10Z"/><path class="cls-1" d="M104.92,94h-1a5,5,0,0,1,0-10h1a5,5,0,1,1,0,10Z"/><path class="cls-1" d="M74,128H73a5,5,0,0,1,0-10h1a5,5,0,0,1,0,10Z"/><path class="cls-1" d="M74,162H73a5,5,0,0,1,0-10h1a5,5,0,0,1,0,10Z"/><path class="cls-1" d="M74,196H73a5,5,0,0,1,0-10h1a5,5,0,0,1,0,10Z"/><path class="cls-1" d="M74,230H73a5,5,0,0,1,0-10h1a5,5,0,0,1,0,10Z"/><path class="cls-1" d="M74,94H73a5,5,0,0,1,0-10h1a5,5,0,0,1,0,10Z"/></g></svg>