<?xml version="1.0" ?><svg viewBox="0 0 512 512" xmlns="http://www.w3.org/2000/svg"><defs><style>.cls-1{fill:#3f456b;}</style></defs><title/><g id="Lines"><path class="cls-1" d="M234.27,383.71a5,5,0,0,1-5-5v-1.29a5,5,0,0,1,10,0v1.29A5,5,0,0,1,234.27,383.71Z"/><path class="cls-1" d="M276,383.71a5,5,0,0,1-5-5v-1.29a5,5,0,0,1,10,0v1.29A5,5,0,0,1,276,383.71Z"/><path class="cls-1" d="M383,483.62a116.26,116.26,0,0,1-66.75-20.91l-2.12-1.49-.22-.16c-24.91-19.59-52.43-25.47-81.79-17.46a111.87,111.87,0,0,0-37.45,18.34l-.36.26-3.41,2.32a116.58,116.58,0,0,1-63.9,19c-64.51,0-117-52.37-117-116.75S62.49,250,127,250H383c64.51,0,117,52.37,117,116.75S447.51,483.62,383,483.62Zm-63-30.51,2,1.4a106.28,106.28,0,0,0,61,19.11c59,0,107-47.94,107-106.87S442,260,383,260H127C68,260,20,307.89,20,366.75S68,473.5,127,473.5a106.56,106.56,0,0,0,58.36-17.3l3.16-2.15a120.81,120.81,0,0,1,40.59-20C251.58,427.84,285.57,426.11,320,453.11Z"/><path class="cls-1" d="M139.6,427H114.26c-7.56,0-13.26-5.93-13.26-13.79V386H72.63A13.27,13.27,0,0,1,59,372.49V347.15C59,339.22,65,333,72.63,333H101V305.52c0-8.14,5.82-14.52,13.26-14.52H139.6A14.84,14.84,0,0,1,154,305.52V333h26.32C188,333,194,339.22,194,347.15v25.34A13.3,13.3,0,0,1,180.32,386H154v27.21C154,420.82,147.54,427,139.6,427Zm-67-84c-2.36,0-3.63,2.14-3.63,4.15v25.34A3.28,3.28,0,0,0,72.63,376H106a5,5,0,0,1,5,5v32.21c0,1.14.32,3.79,3.26,3.79H139.6c2.12,0,4.4-1.52,4.4-3.79V381a5,5,0,0,1,5-5h31.32a3.34,3.34,0,0,0,3.68-3.51V347.15c0-2-1.29-4.15-3.68-4.15H149a5,5,0,0,1-5-5V305.52a4.77,4.77,0,0,0-4.4-4.52H114.26c-2.12,0-3.26,2.33-3.26,4.52V338a5,5,0,0,1-5,5Z"/><path class="cls-1" d="M383.82,339.61a26.4,26.4,0,1,1,18.67-7.73h0A26.22,26.22,0,0,1,383.82,339.61Zm0-42.78a16.39,16.39,0,1,0,11.6,28h0a16.39,16.39,0,0,0-11.6-28Z"/><path class="cls-1" d="M383.82,433.61a26.4,26.4,0,1,1,18.67-7.73h0A26.22,26.22,0,0,1,383.82,433.61Zm0-42.78a16.39,16.39,0,1,0,11.6,28h0a16.39,16.39,0,0,0-11.6-28Z"/><path class="cls-1" d="M335.82,386.61a26.4,26.4,0,1,1,18.67-7.73h0A26.22,26.22,0,0,1,335.82,386.61Zm0-42.78a16.39,16.39,0,1,0,11.6,28h0a16.39,16.39,0,0,0-11.6-28Z"/><path class="cls-1" d="M431.82,386.61a26.4,26.4,0,1,1,18.67-7.73h0A26.22,26.22,0,0,1,431.82,386.61Zm0-42.78a16.39,16.39,0,1,0,11.6,28h0a16.39,16.39,0,0,0-11.6-28Z"/><path class="cls-1" d="M320,260a5,5,0,0,1-5-5V240.75a2.84,2.84,0,0,0-3.12-2.75H198.12a2.84,2.84,0,0,0-3.12,2.75V255a5,5,0,0,1-10,0V240.75A12.81,12.81,0,0,1,198.12,228H311.88A12.81,12.81,0,0,1,325,240.75V255A5,5,0,0,1,320,260Z"/><path class="cls-1" d="M255,238a5,5,0,0,1-5-5V133.1c-.09-2.33-.81-29.8,13.24-44.48,5.79-6.05,13.19-9.12,22-9.12,17,0,28.6,8.16,34.38,24.25,4.7,13.1,5.05,30,5.36,44.9.22,11.11.44,21.6,2.33,28.92,2.53,9.76,10.21,20.18,24.19,20.18,6.86,0,12.25-2.13,16.49-6.5,10.53-10.86,10-31.39,10-31.6V32a5,5,0,0,1,10,0V159.43c.05,1.87.34,25.19-12.83,38.78-6.14,6.33-14.1,9.54-23.67,9.54-16.22,0-29.52-10.86-33.87-27.67-2.18-8.46-2.41-19.52-2.65-31.23-.72-34.75-3.27-59.35-29.74-59.35a19.37,19.37,0,0,0-14.78,6c-9.49,9.92-10.77,30.25-10.46,37.24V233A5,5,0,0,1,255,238Z"/></g><g id="Outline"><path class="cls-1" d="M303,287a5,5,0,0,1,5-5h0a5,5,0,0,1,5,5h0a5,5,0,0,1-5,5h0A5,5,0,0,1,303,287Zm-20,0a5,5,0,0,1,5-5h0a5,5,0,0,1,5,5h0a5,5,0,0,1-5,5h0A5,5,0,0,1,283,287Zm-20,0a5,5,0,0,1,5-5h0a5,5,0,0,1,5,5h0a5,5,0,0,1-5,5h0A5,5,0,0,1,263,287Zm-20,0a5,5,0,0,1,5-5h0a5,5,0,0,1,5,5h0a5,5,0,0,1-5,5h0A5,5,0,0,1,243,287Zm-20,0a5,5,0,0,1,5-5h0a5,5,0,0,1,5,5h0a5,5,0,0,1-5,5h0A5,5,0,0,1,223,287Zm-20,0a5,5,0,0,1,5-5h0a5,5,0,0,1,5,5h0a5,5,0,0,1-5,5h0A5,5,0,0,1,203,287Z"/></g></svg>