<?xml version="1.0" ?><svg viewBox="0 0 512 512" xmlns="http://www.w3.org/2000/svg"><defs><style>.cls-1{fill:#3f456b;}</style></defs><title/><g id="Lines"><path class="cls-1" d="M256,500A245,245,0,0,1,82.76,81.76,245,245,0,1,1,429.24,428.24,243.37,243.37,0,0,1,256,500Zm0-480A235,235,0,0,0,89.83,421.17,235,235,0,1,0,422.17,88.83,233.44,233.44,0,0,0,256,20Z"/><path class="cls-1" d="M256,468C138.55,468,43,372.45,43,255S138.55,42,256,42s213,95.55,213,213S373.45,468,256,468Zm0-416C144.07,52,53,143.07,53,255s91.07,203,203,203,203-91.07,203-203S367.93,52,256,52Z"/><path class="cls-1" d="M257,283a28,28,0,1,1,28-28A28,28,0,0,1,257,283Zm0-46a18,18,0,1,0,18,18A18,18,0,0,0,257,237Z"/><path class="cls-1" d="M267.34,238.32a5,5,0,0,1-5-5v-95a5.34,5.34,0,1,0-10.68,0v95a5,5,0,0,1-10,0v-95a15.34,15.34,0,1,1,30.68,0v95A5,5,0,0,1,267.34,238.32Z"/><path class="cls-1" d="M353.85,369.35A15.23,15.23,0,0,1,343,364.86l-82-82a5,5,0,1,1,7.07-7.07l82,82a5.35,5.35,0,0,0,7.55,0,5.35,5.35,0,0,0,0-7.55l-82-82a5,5,0,1,1,7.07-7.07l82,82a15.34,15.34,0,0,1-10.85,26.18Z"/><path class="cls-1" d="M257,260h-1a5,5,0,0,1,0-10h1a5,5,0,0,1,0,10Z"/><path class="cls-1" d="M290,387H222a5,5,0,0,1-5-5V349a5,5,0,0,1,5-5h68a5,5,0,0,1,5,5v33A5,5,0,0,1,290,387Zm-63-10h58V354H227Z"/></g><g id="Outline"><path class="cls-1" d="M440.5,260H425a5,5,0,0,1,0-10h15.5a5,5,0,0,1,0,10Z"/><path class="cls-1" d="M88,260H72.5a5,5,0,0,1,0-10H88a5,5,0,0,1,0,10Z"/><path class="cls-1" d="M256.5,444a5,5,0,0,1-5-5V424a5,5,0,0,1,10,0v15A5,5,0,0,1,256.5,444Z"/><path class="cls-1" d="M256.5,90a5,5,0,0,1-5-5V71a5,5,0,0,1,10,0V85A5,5,0,0,1,256.5,90Z"/><path class="cls-1" d="M402.43,175.75a5,5,0,0,1-2.51-9.33l13.43-7.75a5,5,0,0,1,5,8.66l-13.43,7.75A4.88,4.88,0,0,1,402.43,175.75Z"/><path class="cls-1" d="M97.16,352a5,5,0,0,1-2.51-9.33l13.43-7.75a5,5,0,1,1,5,8.66l-13.43,7.75A4.93,4.93,0,0,1,97.16,352Z"/><path class="cls-1" d="M348.5,419.35a5,5,0,0,1-4.33-2.5l-7.5-13a5,5,0,1,1,8.66-5l7.5,13a5,5,0,0,1-4.33,7.5Z"/><path class="cls-1" d="M171.5,112.78a5,5,0,0,1-4.33-2.5l-7-12.13a5,5,0,1,1,8.66-5l7,12.13a5,5,0,0,1-4.33,7.5Z"/><path class="cls-1" d="M340.75,114.08a5,5,0,0,1-4.33-7.5l7.75-13.43a5,5,0,0,1,8.66,5l-7.75,13.43A5,5,0,0,1,340.75,114.08Z"/><path class="cls-1" d="M164.5,419.35a5,5,0,0,1-4.33-7.5l7.75-13.43a5,5,0,0,1,8.66,5l-7.75,13.43A5,5,0,0,1,164.5,419.35Z"/><path class="cls-1" d="M415.84,352a4.93,4.93,0,0,1-2.49-.67l-13-7.5a5,5,0,0,1,5-8.66l13,7.5a5,5,0,0,1-2.51,9.33Z"/><path class="cls-1" d="M109.27,175a4.88,4.88,0,0,1-2.49-.67l-12.13-7a5,5,0,1,1,5-8.66l12.13,7a5,5,0,0,1-2.51,9.33Z"/></g></svg>