<?xml version="1.0" ?><svg viewBox="0 0 512 512" xmlns="http://www.w3.org/2000/svg"><defs><style>.cls-1{fill:#3f456b;}</style></defs><title/><g id="Lines"><path class="cls-1" d="M495.84,502.07H16a5,5,0,0,1-5-5V16.15a5,5,0,0,1,5-5H495.84a5,5,0,0,1,5,5V497.07A5,5,0,0,1,495.84,502.07ZM21,492.07H490.84V21.15H21Z"/><rect class="cls-1" height="10" width="480.92" x="17.08" y="80.01"/><rect class="cls-1" height="10" width="480.92" x="17.08" y="148.86"/><rect class="cls-1" height="10" width="480.92" x="17.08" y="217.72"/><rect class="cls-1" height="10" width="480.92" x="17.08" y="285.5"/><rect class="cls-1" height="10" width="480.92" x="17.08" y="354.36"/><rect class="cls-1" height="10" width="480.92" x="17.08" y="423.21"/><rect class="cls-1" height="480.92" width="10" x="395.09" y="16.15"/><rect class="cls-1" height="480.92" width="10" x="299.33" y="16.15"/><rect class="cls-1" height="480.92" width="10" x="203.58" y="16.15"/><rect class="cls-1" height="480.92" width="10" x="107.83" y="16.15"/></g><g id="Outline"><path class="cls-1" d="M257,212a23,23,0,1,1,23-23A23,23,0,0,1,257,212Zm0-36a13,13,0,1,0,13,13A13,13,0,0,0,257,176Z"/><path class="cls-1" d="M161,348a23,23,0,1,1,23-23A23,23,0,0,1,161,348Zm0-36a13,13,0,1,0,13,13A13,13,0,0,0,161,312Z"/><path class="cls-1" d="M449,486a23,23,0,1,1,23-23A23,23,0,0,1,449,486Zm0-36a13,13,0,1,0,13,13A13,13,0,0,0,449,450Z"/><path class="cls-1" d="M51.29,68.78a5,5,0,0,1-3.53-8.53L74.54,33.46a5,5,0,0,1,7.07,7.08L54.83,67.32A5,5,0,0,1,51.29,68.78Z"/><path class="cls-1" d="M78.08,68.78a5,5,0,0,1-3.54-1.46L47.76,40.54a5,5,0,0,1,7.07-7.08L81.61,60.25a5,5,0,0,1-3.53,8.53Z"/></g></svg>