<?xml version="1.0" ?><svg viewBox="0 0 512 512" xmlns="http://www.w3.org/2000/svg"><defs><style>.cls-1{fill:#3f456b;}</style></defs><title/><g id="Lines"><path class="cls-1" d="M78.61,452H57.25c-5.24,0-9.47-2.79-11.91-7.86a21.31,21.31,0,0,1-1.88-6.51l-3.39-19.79a5,5,0,0,1,9.86-1.69l3.42,20c0,.14,0,.28,0,.42S54,442,57.25,442H78.61c3.26,0,3.83-5.29,3.85-5.51s0-.27.05-.39l3.42-19.88a5,5,0,1,1,9.86,1.7L92.4,437.6C91.88,442.72,88.4,452,78.61,452Z"/><path class="cls-1" d="M455.9,452H434.54c-5.24,0-9.47-2.79-11.91-7.86a21.2,21.2,0,0,1-1.87-6.51l-3.39-19.79a5,5,0,0,1,9.85-1.69l3.42,20c0,.14,0,.28.05.42s.59,5.48,3.85,5.48H455.9c3.29,0,3.85-5.42,3.85-5.48s0-.28.05-.42l3.42-19.88a5,5,0,1,1,9.86,1.7l-3.39,19.68C469.18,442.72,465.69,452,455.9,452Z"/><path class="cls-1" d="M476,421H36a25,25,0,0,1-25-25V233a25,25,0,0,1,25-25H261a5,5,0,0,1,0,10H36a15,15,0,0,0-15,15V396a15,15,0,0,0,15,15H476a15,15,0,0,0,15-15V233a15,15,0,0,0-15-15H441a5,5,0,0,1,0-10h35a25,25,0,0,1,25,25V396A25,25,0,0,1,476,421Z"/><path class="cls-1" d="M352.33,352.5a101,101,0,1,1,101-101A101.12,101.12,0,0,1,352.33,352.5Zm0-192a91,91,0,1,0,91,91A91.11,91.11,0,0,0,352.33,160.5Z"/><path class="cls-1" d="M352.33,323.77a72.29,72.29,0,1,1,72.29-72.29A72.37,72.37,0,0,1,352.33,323.77Zm0-134.58a62.29,62.29,0,1,0,62.29,62.29A62.36,62.36,0,0,0,352.33,189.19Z"/></g><g id="Outline"><path class="cls-1" d="M224,360H65a5,5,0,0,1,0-10H224a5,5,0,0,1,0,10Z"/><path class="cls-1" d="M224,333H65a5,5,0,0,1,0-10H224a5,5,0,0,1,0,10Z"/><path class="cls-1" d="M224,307H65a5,5,0,0,1,0-10H224a5,5,0,0,1,0,10Z"/><path class="cls-1" d="M224,280H65a5,5,0,0,1,0-10H224a5,5,0,0,1,0,10Z"/><path class="cls-1" d="M357.09,101.28a5,5,0,0,1-5-5V64a5,5,0,0,1,10,0V96.28A5,5,0,0,1,357.09,101.28Z"/><path class="cls-1" d="M276.09,136.78a5,5,0,0,1-3.64-1.56l-21.57-22.83a5,5,0,0,1,7.27-6.87l21.57,22.83a5,5,0,0,1-3.63,8.43Z"/><path class="cls-1" d="M438.1,136.78a5,5,0,0,1-3.64-8.43L456,105.52a5,5,0,1,1,7.26,6.87l-21.57,22.83A5,5,0,0,1,438.1,136.78Z"/><path class="cls-1" d="M313.79,110.84a5,5,0,0,1-4.66-3.21l-6.72-17.45a5,5,0,1,1,9.33-3.59L318.46,104a5,5,0,0,1-4.67,6.8Z"/><path class="cls-1" d="M463.51,176.62a5,5,0,0,1-2-9.59L478,159.92a5,5,0,1,1,4,9.18l-16.49,7.11A5,5,0,0,1,463.51,176.62Z"/><path class="cls-1" d="M251.16,175.78a4.88,4.88,0,0,1-2-.43L232.72,168a5,5,0,1,1,4.07-9.13l16.41,7.31a5,5,0,0,1-2,9.56Z"/><path class="cls-1" d="M401,110.29a5,5,0,0,1-4.65-6.85l6.91-17.37a5,5,0,1,1,9.29,3.7l-6.9,17.36A5,5,0,0,1,401,110.29Z"/></g></svg>