<?xml version="1.0" ?><svg id="Lines" viewBox="0 0 512 512" xmlns="http://www.w3.org/2000/svg"><defs><style>.cls-1{fill:#3f456b;}</style></defs><title/><path class="cls-1" d="M335.33,188A75.26,75.26,0,0,1,310,183.14a5,5,0,0,1-2.53-7c.34-.64,8.52-15.83,21.9-24.24,3.87-2.43,13.88-7.75,23.4-4.66,3.72,1.21,8.81,4.26,11.86,11.89,3,7.47,1.24,13-.76,16.38-3.81,6.39-12.26,10.92-22.61,12.11A51.79,51.79,0,0,1,335.33,188Zm-23.44-9.46h0Zm7.65-2.79c5.11,1.37,12.92,2.87,20.59,2,7.05-.82,13-3.68,15.16-7.3,1.24-2.08,1.26-4.55.07-7.54-1.32-3.29-3.17-5.29-5.67-6.1-3.76-1.22-9.5.16-15,3.61C328,164.59,322.7,171.15,319.54,175.71Z"/><path class="cls-1" d="M310.74,182H192.35a5,5,0,0,1,0-10H310.74a5,5,0,0,1,0,10Z"/><path class="cls-1" d="M251.06,501c-92.91,0-137-10.69-138.85-11.15a5,5,0,0,1-3.79-4.85V400c0-70.73,21.75-128.43,40-164.39,19.8-39,39.38-61,40.2-62a5,5,0,0,1,7.45,6.68c-.29.32-19.72,22.26-38.89,60.11C139.5,275.37,118.42,331.4,118.42,400v81c18.45,3.88,64.72,10,132.64,10s114.85-6.13,133.61-10V400c0-68.6-21.08-124.63-38.77-159.55-19.21-37.94-38.69-59.9-38.89-60.11a5,5,0,0,1,7.45-6.68c.82.92,20.4,22.94,40.2,62,18.25,36,40,93.66,40,164.39v85a5,5,0,0,1-3.82,4.86C389,490.31,344,501,251.06,501Z"/><path class="cls-1" d="M191,182a5,5,0,0,1-4.2-2.29C186,178.39,166,147.07,166,112a2.26,2.26,0,0,1,0-.26l5-96A5,5,0,0,1,176,11h35a5,5,0,0,1,5,5V26.13c0,.13-.17,14.2,9.17,23.72,6,6.07,14.64,9.15,25.83,9.15a5,5,0,0,1,0,10c-14,0-25.15-4.12-33.06-12.24C206,44.46,206,27.45,206,26V21H180.75L176,112.13c.05,32,19,61.86,19.2,62.16A5,5,0,0,1,191,182Z"/><path class="cls-1" d="M311,182a5,5,0,0,1-4.2-7.71h0C307,174,326,144.14,326,112.13L321.25,21H296V26c0,1.5,0,18.51-11.94,30.81C276.15,64.88,265,69,251,69a5,5,0,0,1,0-10c11.19,0,19.88-3.08,25.83-9.15,9.34-9.52,9.17-23.59,9.17-23.73V16a5,5,0,0,1,5-5h35a5,5,0,0,1,5,4.74l5,96a2.26,2.26,0,0,1,0,.26c0,35.07-19.95,66.39-20.8,67.71A5,5,0,0,1,311,182Z"/><path class="cls-1" d="M252.32,123a5,5,0,0,1-5-5v-.46a5,5,0,1,1,10,0V118A5,5,0,0,1,252.32,123Z"/><path class="cls-1" d="M252.32,92a5,5,0,0,1-5-5V86.5a5,5,0,0,1,10,0V87A5,5,0,0,1,252.32,92Z"/><path class="cls-1" d="M252.32,154a5,5,0,0,1-5-5v-.46a5,5,0,0,1,10,0V149A5,5,0,0,1,252.32,154Z"/></svg>