<?xml version="1.0" encoding="iso-8859-1"?>
<!-- Generator: Adobe Illustrator 19.0.0, SVG Export Plug-In . SVG Version: 6.00 Build 0)  -->
<svg version="1.1" id="Capa_1" xmlns="http://www.w3.org/2000/svg" xmlns:xlink="http://www.w3.org/1999/xlink" x="0px" y="0px"
	 viewBox="0 0 512.03 512.03" style="enable-background:new 0 0 512.03 512.03;" xml:space="preserve">
<g>
	<g>
		<path d="M494.52,273.395L447.842,8.84c-1.024-5.76-6.571-9.749-12.245-8.661L301.858,22.472L32.909,0.051
			c-3.072-0.256-5.739,0.704-7.893,2.581c-2.176,1.899-3.499,4.587-3.648,7.467l-21.333,384c-0.32,5.653,3.819,10.581,9.451,11.2
			l93.205,10.368l4.16,23.552c0.917,5.163,5.397,8.811,10.475,8.811c0.576,0,1.195-0.043,1.749-0.149l129.643-21.611
			c5.803-0.96,9.749-6.464,8.768-12.267c-0.981-5.803-6.592-9.749-12.267-8.768l-119.232,19.861L65.698,83.443l362.965-60.48
			l44.864,254.144c1.045,5.803,6.677,9.664,12.352,8.64C491.661,284.723,495.544,279.198,494.52,273.395z M51.597,64.179
			c-2.816,0.469-5.312,2.069-6.955,4.373s-2.283,5.205-1.792,8l55.979,317.205l-76.928-8.555l20.16-362.965l174.123,14.507
			L51.597,64.179z"/>
	</g>
</g>
<g>
	<g>
		<path d="M394.68,277.363c-64.683,0-117.333,52.629-117.333,117.333S329.997,512.03,394.68,512.03s117.333-52.629,117.333-117.333
			S459.362,277.363,394.68,277.363z M394.68,490.696c-52.928,0-96-43.072-96-96s43.072-96,96-96s96,43.072,96,96
			S447.608,490.696,394.68,490.696z"/>
	</g>
</g>
<g>
	<g>
		<path d="M409.762,394.696l35.115-35.115c4.16-4.16,4.16-10.923,0-15.083c-4.16-4.16-10.923-4.16-15.083,0l-35.115,35.115
			l-35.115-35.115c-4.16-4.16-10.923-4.16-15.083,0c-4.16,4.16-4.16,10.923,0,15.083l35.115,35.115l-35.115,35.115
			c-4.16,4.16-4.16,10.923,0,15.083c2.091,2.069,4.821,3.115,7.552,3.115c2.731,0,5.461-1.045,7.531-3.115l35.115-35.115
			l35.115,35.115c2.091,2.069,4.821,3.115,7.552,3.115c2.731,0,5.461-1.045,7.531-3.115c4.16-4.16,4.16-10.923,0-15.083
			L409.762,394.696z"/>
	</g>
</g>
<g>
</g>
<g>
</g>
<g>
</g>
<g>
</g>
<g>
</g>
<g>
</g>
<g>
</g>
<g>
</g>
<g>
</g>
<g>
</g>
<g>
</g>
<g>
</g>
<g>
</g>
<g>
</g>
<g>
</g>
</svg>
