<?xml version="1.0" ?><svg viewBox="0 0 512 512" xmlns="http://www.w3.org/2000/svg"><defs><style>.cls-1{fill:#3f456b;}</style></defs><title/><g id="Lines"><path class="cls-1" d="M256.5,499.79a244.29,244.29,0,0,1-172.74-417,244.29,244.29,0,0,1,345.48,0,5,5,0,1,1-7.07,7.07A234.29,234.29,0,0,0,90.83,421.17a234.29,234.29,0,0,0,400-165.67,5,5,0,1,1,10,0A244.29,244.29,0,0,1,256.5,499.79Z"/><path class="cls-1" d="M257,260.22a5,5,0,0,1-3.54-8.54L422.32,82.78a5,5,0,1,1,7.07,7.07L260.48,258.75A5,5,0,0,1,257,260.22Z"/><path class="cls-1" d="M139.55,199.27a28.5,28.5,0,1,1,28.5-28.5A28.53,28.53,0,0,1,139.55,199.27Zm0-47a18.5,18.5,0,1,0,18.5,18.5A18.52,18.52,0,0,0,139.55,152.27Z"/><path class="cls-1" d="M332.74,342.86a28.5,28.5,0,1,1,28.5-28.5A28.53,28.53,0,0,1,332.74,342.86Zm0-47a18.5,18.5,0,1,0,18.5,18.5A18.52,18.52,0,0,0,332.74,295.86Z"/><path class="cls-1" d="M256.72,475.2a28.5,28.5,0,1,1,28.5-28.5A28.54,28.54,0,0,1,256.72,475.2Zm0-47a18.5,18.5,0,1,0,18.5,18.5A18.52,18.52,0,0,0,256.72,428.2Z"/></g><g id="Outline"><path class="cls-1" d="M490.66,247.73a5,5,0,0,1,4.83-5.16h0a5,5,0,0,1,5.16,4.83h0a5,5,0,0,1-4.83,5.16h-.17A5,5,0,0,1,490.66,247.73Zm-1.46-19.52h0a5,5,0,0,1,4.39-5.55h0a5,5,0,0,1,5.54,4.39h0a5,5,0,0,1-4.38,5.55h0a5.83,5.83,0,0,1-.59,0h0A5,5,0,0,1,489.2,228.21Zm-3.08-19.34A5,5,0,0,1,490,203h0a5,5,0,0,1,5.9,3.91h0a5,5,0,0,1-3.91,5.89h0a4.92,4.92,0,0,1-1,.1h0A5,5,0,0,1,486.12,208.87Zm-4.67-19a5,5,0,0,1,3.41-6.2h0a5,5,0,0,1,6.19,3.41h0a5,5,0,0,1-3.4,6.2h0a5.26,5.26,0,0,1-1.4.2h0A5,5,0,0,1,481.45,189.86Zm-6.25-18.55h0a5,5,0,0,1,2.87-6.46h0a5,5,0,0,1,6.47,2.87h0a5,5,0,0,1-2.88,6.46h0a4.9,4.9,0,0,1-1.79.34h0A5,5,0,0,1,475.2,171.31Zm-7.79-18a5,5,0,0,1,2.32-6.68h0a5,5,0,0,1,6.68,2.32h0a5,5,0,0,1-2.32,6.68h0a5.1,5.1,0,0,1-2.17.5h0A5,5,0,0,1,467.41,153.35Zm-9.26-17.25h0a5,5,0,0,1,1.75-6.85h0a5,5,0,0,1,6.85,1.75h0a5,5,0,0,1-1.75,6.85h0a5,5,0,0,1-2.55.7h0A5,5,0,0,1,458.15,136.1Zm-10.69-16.41a5,5,0,0,1,1.17-7h0a5,5,0,0,1,7,1.17h0a5,5,0,0,1-1.17,7h0a5,5,0,0,1-2.9.93h0A5,5,0,0,1,447.46,119.69Zm-12-15.45a5,5,0,0,1,.58-7h0a5,5,0,0,1,7.05.58h0a5,5,0,0,1-.58,7h0a5,5,0,0,1-3.23,1.18h0A5,5,0,0,1,435.43,104.24ZM422.16,89.83h0a5,5,0,0,1,0-7.07h0a5,5,0,0,1,7.08,0h0a5,5,0,0,1,0,7.07h0a5,5,0,0,1-3.54,1.47h0A5,5,0,0,1,422.16,89.83Z"/><path class="cls-1" d="M442.74,245.44h0a5,5,0,0,1,4.73-5.26h0a5,5,0,0,1,5.26,4.73h0a5,5,0,0,1-4.72,5.26h-.27A5,5,0,0,1,442.74,245.44Zm-2.06-19.36h0a5,5,0,0,1,4.15-5.72h0a5,5,0,0,1,5.73,4.15h0a5,5,0,0,1-4.16,5.72h0a4.22,4.22,0,0,1-.79.07h0A5,5,0,0,1,440.68,226.08Zm-4.05-19h0a5,5,0,0,1,3.53-6.12h0a5,5,0,0,1,6.13,3.53h0a5,5,0,0,1-3.53,6.13h0a5.27,5.27,0,0,1-1.3.17h0A5,5,0,0,1,436.63,207Zm-6-18.51a5,5,0,0,1,2.87-6.46h0a5,5,0,0,1,6.46,2.87h0a5,5,0,0,1-2.87,6.46h0a5,5,0,0,1-1.8.34h0A5,5,0,0,1,430.61,188.53Zm-7.93-17.78h0a5,5,0,0,1,2.18-6.73h0a5,5,0,0,1,6.72,2.18h0a5,5,0,0,1-2.18,6.73h0a5,5,0,0,1-2.27.55h0A5,5,0,0,1,422.68,170.75Zm-9.76-16.84a5,5,0,0,1,1.46-6.92h0a5,5,0,0,1,6.92,1.45h0a5,5,0,0,1-1.46,6.92h0a5,5,0,0,1-2.72.82h0A5,5,0,0,1,412.92,153.91Zm-11.46-15.74a5,5,0,0,1,.73-7h0a5,5,0,0,1,7,.73h0a5,5,0,0,1-.73,7h0a5,5,0,0,1-3.15,1.12h0A5,5,0,0,1,401.46,138.17Zm-13-14.46a5,5,0,0,1,0-7.07h0a5,5,0,0,1,7.07,0h0a5,5,0,0,1,0,7.07h0a5,5,0,0,1-3.53,1.47h0A5,5,0,0,1,388.41,123.71Zm0,0Z"/><path class="cls-1" d="M394.69,243.27h0a5,5,0,0,1,4.55-5.42h0a5,5,0,0,1,5.42,4.54h0a5,5,0,0,1-4.54,5.42h0a3.46,3.46,0,0,1-.45,0h0A5,5,0,0,1,394.69,243.27Zm-3-19.06h0a5,5,0,0,1,3.75-6h0a5,5,0,0,1,6,3.74h0a5,5,0,0,1-3.75,6h0a4.76,4.76,0,0,1-1.12.13h0A5,5,0,0,1,391.66,224.21ZM386,205.77a5,5,0,0,1,2.87-6.46h0a5,5,0,0,1,6.47,2.88h0a5,5,0,0,1-2.88,6.46h0a5.1,5.1,0,0,1-1.79.33h0A5,5,0,0,1,386,205.77Zm-8.16-17.47h0a5,5,0,0,1,1.94-6.8h0a5,5,0,0,1,6.8,1.94h0a5,5,0,0,1-1.94,6.8h0a5,5,0,0,1-2.43.63h0A5,5,0,0,1,377.86,188.3Zm-10.53-16.16h0a5,5,0,0,1,1-7h0a5,5,0,0,1,7,1h0a5,5,0,0,1-1,7h0a5,5,0,0,1-3,1h0A5,5,0,0,1,367.33,172.14Zm-12.67-14.55h0a5,5,0,0,1,0-7.07h0a5,5,0,0,1,7.07,0h0a5,5,0,0,1,0,7.07h0a5,5,0,0,1-3.54,1.46h0A5,5,0,0,1,354.66,157.59Z"/><path class="cls-1" d="M346.32,241.28a5,5,0,0,1,4.16-5.73h0a5,5,0,0,1,5.72,4.16h0a5,5,0,0,1-4.16,5.72h0a4.11,4.11,0,0,1-.78.07h0A5,5,0,0,1,346.32,241.28ZM341.43,223a5,5,0,0,1,2.88-6.46h0a5,5,0,0,1,6.45,2.88h0a5,5,0,0,1-2.88,6.46h0a4.92,4.92,0,0,1-1.79.33h0A5,5,0,0,1,341.43,223Zm-8.6-16.84a5,5,0,0,1,1.46-6.92h0a5,5,0,0,1,6.92,1.46h0a5,5,0,0,1-1.46,6.92h0a5,5,0,0,1-2.72.81h0A5,5,0,0,1,332.83,206.16Zm-11.93-14.7h0a5,5,0,0,1,0-7.07h0a5,5,0,0,1,7.08,0h0a5,5,0,0,1,0,7.07h0a5,5,0,0,1-3.54,1.47h0A5,5,0,0,1,320.9,191.46Z"/><path class="cls-1" d="M296.84,240.24h0a5,5,0,0,1,2.88-6.46h0a5,5,0,0,1,6.46,2.88h0a5,5,0,0,1-2.89,6.46h0a5,5,0,0,1-1.78.33h0A5,5,0,0,1,296.84,240.24Zm-9.69-14.9h0a5,5,0,0,1,0-7.07h0a5,5,0,0,1,7.07,0h0a5,5,0,0,1,0,7.07h0a5,5,0,0,1-3.53,1.47h0A5,5,0,0,1,287.15,225.34Z"/><path class="cls-1" d="M232.49,450.39a4.44,4.44,0,0,1-.63,0,194.49,194.49,0,0,1-114.12-56c-76.57-76.57-76.57-201.17,0-277.74s201.17-76.57,277.74,0a5,5,0,1,1-7.07,7.07C315.74,51,197.49,51,124.81,123.71s-72.67,190.93,0,263.6a184.58,184.58,0,0,0,108.3,53.12,5,5,0,0,1-.62,10Z"/><path class="cls-1" d="M280.73,450.39a5,5,0,0,1-.62-10A186.44,186.44,0,0,0,443,255.51a5,5,0,0,1,10,0A196.44,196.44,0,0,1,281.36,450.35,4.44,4.44,0,0,1,280.73,450.39Z"/><path class="cls-1" d="M358.19,159.05a5,5,0,0,1-3.53-1.46A137.67,137.67,0,0,0,257.16,117h-.45a137.62,137.62,0,0,0-97.25,39.9,5,5,0,0,1-7-7.12A147.55,147.55,0,0,1,256.71,107h.49a147.57,147.57,0,0,1,104.53,43.5,5,5,0,0,1-3.54,8.53Z"/><path class="cls-1" d="M155.65,158.65a5,5,0,0,1-3.52-8.55l.3-.3a5,5,0,0,1,7,7.11l-.3.29A5,5,0,0,1,155.65,158.65Z"/><path class="cls-1" d="M256.72,404A148.46,148.46,0,0,1,123.6,189.63a5,5,0,0,1,9,4.44,138.4,138.4,0,0,0,26.23,159.39c54,54,141.87,54,195.87,0a137.6,137.6,0,0,0,40.57-97.94,5,5,0,1,1,10,0A148.4,148.4,0,0,1,256.72,404Z"/><path class="cls-1" d="M256.92,356.14A100.61,100.61,0,1,1,328,184.39a5,5,0,1,1-7.07,7.07A90.62,90.62,0,1,0,312.55,327a5,5,0,0,1,6.16,7.88A100.08,100.08,0,0,1,256.92,356.14Z"/><path class="cls-1" d="M344.73,298.23a5.06,5.06,0,0,1-2-.4,5,5,0,0,1-2.63-6.57,90.19,90.19,0,0,0,7.32-35.76,5,5,0,0,1,5-5h0a5,5,0,0,1,5,5,100.11,100.11,0,0,1-8.13,39.7A5,5,0,0,1,344.73,298.23Z"/><path class="cls-1" d="M257,308.27a52.72,52.72,0,1,1,37.27-90,5,5,0,0,1-7.07,7.07,42.71,42.71,0,1,0,12.51,29.71,5,5,0,0,1,10-.12A52.72,52.72,0,0,1,257,308.27Z"/></g></svg>