<?xml version="1.0" ?><svg id="Lines" viewBox="0 0 512 512" xmlns="http://www.w3.org/2000/svg"><defs><style>.cls-1{fill:#3f456b;}</style></defs><title/><path class="cls-1" d="M424,56a5,5,0,0,1-5-5V34a15,15,0,0,0-15-15H311c-2.49,0-10.5.82-10.5,11.25a5,5,0,0,1-10,0c0-6.43,1.95-11.62,5.8-15.41C302.21,9,310.2,9,311.08,9H404a25,25,0,0,1,25,25V51A5,5,0,0,1,424,56Z"/><path class="cls-1" d="M92,54a5,5,0,0,1-5-5V34A25,25,0,0,1,112,9H214.75c1.91-.17,9.77-.52,15.68,4.71,4,3.57,6.07,8.72,6.07,15.29a5,5,0,0,1-10,0c0-3.56-.9-6.18-2.67-7.77-2.56-2.3-6.83-2.41-8.26-2.26a5.44,5.44,0,0,1-.57,0H112A15,15,0,0,0,97,34V49A5,5,0,0,1,92,54Z"/><path class="cls-1" d="M494.06,362.34a15.83,15.83,0,0,1-9-2.78l-72.84-51a16.1,16.1,0,0,1-6.71-10.17,15.71,15.71,0,0,1,2.38-12.08l6.17-9a15.72,15.72,0,0,1,10.38-6.63,16.23,16.23,0,0,1,12,2.58l73.88,49.09a16,16,0,0,1,4.34,22.26l-7.41,10.85a15.84,15.84,0,0,1-10.21,6.68A16,16,0,0,1,494.06,362.34Zm-66.76-82a6,6,0,0,0-1.11.1,5.76,5.76,0,0,0-3.83,2.41h0l-6.17,9a5.73,5.73,0,0,0-.84,4.44,6.23,6.23,0,0,0,2.6,3.95l72.84,51a6,6,0,0,0,8.21-1.6l7.41-10.84a6,6,0,0,0-1.66-8.33l-73.89-49.09A6.25,6.25,0,0,0,427.3,280.36Zm-9.07-.31h0Z"/><path class="cls-1" d="M228.12,434.25h0c-20.11,0-35-13.86-43.07-40.08a150.42,150.42,0,0,1-6-38v-9c-.05-1.37-.05-7.8,4.4-12.53,2-2.14,5.7-4.68,11.88-4.68h118.5c1.49-.08,7.58-.11,12.09,4.36,3.31,3.27,4.81,7.91,4.44,13.78l.12,1.41a2.78,2.78,0,0,1,0,.7,1.65,1.65,0,0,0,.39,1,4.68,4.68,0,0,0,3,.72h7.56c1.74-.13,9.08-.36,14.33,4.4,2.28,2.06,5,5.88,5,12.34,0,.49,0,1.12.05,1.87.23,6.71.78,22.43-9.61,32.89-6.64,6.68-16.38,9.89-29,9.53-1.42,0-3.37.41-3.92,1l-.43.81-.06.11c-7.35,13.07-18.24,19.16-34.27,19.16ZM195.28,340c-3.16,0-4.24,1.15-4.6,1.53-1.55,1.65-1.73,4.61-1.69,5.26,0,.1,0,.2,0,.3v9.06a142.33,142.33,0,0,0,5.66,35.26c6.74,21.79,18,32.84,33.44,32.84l55.34-.1c12.52,0,19.92-4.06,25.53-14l.55-1,.22-.38c3.82-5.89,11.85-5.72,12.75-5.68,9.67.27,16.93-1.94,21.55-6.59,7.34-7.39,6.91-19.62,6.71-25.49,0-.9-.06-1.66-.06-2.25,0-3.34-1.25-4.5-1.66-4.88-2-1.84-5.7-2-6.95-1.85l-.48,0h-7.77c-5.53,0-8.68-2.14-10.35-3.94a11.71,11.71,0,0,1-3-8l-.12-1.51a4.16,4.16,0,0,1,0-.79c.16-2.05,0-4.8-1.43-6.3-1.63-1.64-4.54-1.51-4.56-1.51h-119Z"/><path class="cls-1" d="M313.94,416.49a4.92,4.92,0,0,1-2.47-.66,5,5,0,0,1-1.88-6.81c14.71-25.9,10.79-59.95,10.75-60.29a5,5,0,0,1,9.92-1.2c.19,1.52,4.34,37.7-12,66.42A5,5,0,0,1,313.94,416.49Z"/><g data-name="&lt;编组&gt;" id="_编组_"><path class="cls-1" d="M259.5,246.5c-35.48,0-87.68-2.36-134.89-13.61-28.56-6.8-41.73-13.62-42.28-13.9a5.28,5.28,0,0,1-.8-.53,91.17,91.17,0,0,1,1-166.55l.1,0,.23-.11C92.27,47.2,145,24.5,259.5,24.5c50.81,0,95,4.21,131.46,12.5,18.36,4.18,34.38,9.41,45.12,14.73l.29.13.08,0a91.18,91.18,0,0,1,.77,166.68,4.6,4.6,0,0,1-1.05.64l-.37.17C422.08,225.75,368.82,246.5,259.5,246.5ZM88,210.61c7.68,3.58,60.17,25.89,171.52,25.89,105.4,0,157-19.35,171.37-25.85a4.61,4.61,0,0,1,1.19-.72A81.18,81.18,0,0,0,432.34,61h0l-.27-.13-.42-.2C422.81,56.32,373,34.5,259.5,34.5,147.17,34.5,96.28,56.37,87.22,60.75l-.26.13-.3.14h0a81.18,81.18,0,0,0,.06,148.81A5,5,0,0,1,88,210.61ZM436.85,52.12l.09.06Zm-1-.43Zm0,0h0Z"/></g><path class="cls-1" d="M435,499H83a37,37,0,0,1,0-74H435a37,37,0,0,1,0,74ZM83,435a27,27,0,0,0,0,54H435a27,27,0,0,0,0-54Z"/><path class="cls-1" d="M257,205a70.32,70.32,0,1,1,70.31-70.31A70.39,70.39,0,0,1,257,205Zm0-130.63a60.32,60.32,0,1,0,60.31,60.32A60.38,60.38,0,0,0,257,74.35Z"/><path class="cls-1" d="M386.78,166.28a32.62,32.62,0,1,1,32.61-32.61A32.65,32.65,0,0,1,386.78,166.28Zm0-55.23a22.62,22.62,0,1,0,22.61,22.62A22.64,22.64,0,0,0,386.78,111.05Z"/><path class="cls-1" d="M130.78,166.28a32.62,32.62,0,1,1,32.61-32.61A32.65,32.65,0,0,1,130.78,166.28Zm0-55.23a22.62,22.62,0,1,0,22.61,22.62A22.64,22.64,0,0,0,130.78,111.05Z"/><path class="cls-1" d="M257,87a5,5,0,0,1-5-5V70a5,5,0,0,1,10,0V82A5,5,0,0,1,257,87Z"/><path class="cls-1" d="M257,202a5,5,0,0,1-5-5V185a5,5,0,0,1,10,0v12A5,5,0,0,1,257,202Z"/><path class="cls-1" d="M320,139H308a5,5,0,0,1,0-10h12a5,5,0,0,1,0,10Z"/><path class="cls-1" d="M205,139H193a5,5,0,0,1,0-10h12a5,5,0,0,1,0,10Z"/><path class="cls-1" d="M293.51,102A5,5,0,0,1,290,93.45l8.39-8.38a5,5,0,1,1,7.07,7.07L297,100.52A5,5,0,0,1,293.51,102Z"/><path class="cls-1" d="M211.6,183.89a5,5,0,0,1-3.53-8.53l8.38-8.39a5,5,0,1,1,7.07,7.07l-8.38,8.39A5,5,0,0,1,211.6,183.89Z"/><path class="cls-1" d="M301.4,183.89a5,5,0,0,1-3.54-1.46L289.48,174a5,5,0,1,1,7.07-7.07l8.38,8.39a5,5,0,0,1-3.53,8.53Z"/><path class="cls-1" d="M219.49,102a5,5,0,0,1-3.53-1.47l-8.39-8.38a5,5,0,1,1,7.07-7.07L223,93.45a5,5,0,0,1-3.54,8.54Z"/><path class="cls-1" d="M258.13,138.26a5,5,0,0,1-3.51-8.55l26.23-25.93a5,5,0,0,1,7,7.11l-26.23,25.93A5,5,0,0,1,258.13,138.26Z"/><path class="cls-1" d="M147.49,435a5,5,0,0,1-4.93-4.2l-33-205a5,5,0,0,1,9.88-1.59l33,205a5,5,0,0,1-4.14,5.74A5.52,5.52,0,0,1,147.49,435Z"/><path class="cls-1" d="M372.47,435a5.52,5.52,0,0,1-.81-.06,5,5,0,0,1-4.14-5.74l33-205a5,5,0,0,1,9.88,1.59l-33,205A5,5,0,0,1,372.47,435Z"/><path class="cls-1" d="M285.1,296H227.59a23.49,23.49,0,0,1-22.24-14.65l0-.12-12.94-38.64a5,5,0,0,1,9.48-3.18L214.76,278c.36.92,3.5,8,12.83,8H285.1a13.49,13.49,0,0,0,12.83-8l12.92-38.55a5,5,0,1,1,9.48,3.18l-12.95,38.64a.56.56,0,0,1,0,.12A23.5,23.5,0,0,1,285.1,296Z"/><path class="cls-1" d="M415.37,289.2a5,5,0,0,1-2.66-.77l-28.64-18A26.13,26.13,0,0,1,371,247.5V232a5,5,0,0,1,10,0v15.5a16.11,16.11,0,0,0,7.88,14.13l.38.21L418,280a5,5,0,0,1-2.67,9.23Z"/><path class="cls-1" d="M334.5,325.35a37.15,37.15,0,1,1,37.15-37.15A37.19,37.19,0,0,1,334.5,325.35Zm0-64.3a27.15,27.15,0,1,0,27.15,27.15A27.18,27.18,0,0,0,334.5,261.05Z"/><path class="cls-1" d="M63,136a5,5,0,0,1,5-5h0a5,5,0,0,1,5,5h0a5,5,0,0,1-5,5h0A5,5,0,0,1,63,136Z"/><path class="cls-1" d="M271,265a5,5,0,0,1,5-5h0a5,5,0,0,1,5,5h0a5,5,0,0,1-5,5h0A5,5,0,0,1,271,265Z"/><path class="cls-1" d="M318,206a5,5,0,0,1,5-5h0a5,5,0,0,1,5,5h0a5,5,0,0,1-5,5h0A5,5,0,0,1,318,206Z"/><path class="cls-1" d="M340,206a5,5,0,0,1,5-5h0a5,5,0,0,1,5,5h0a5,5,0,0,1-5,5h0A5,5,0,0,1,340,206Z"/><path class="cls-1" d="M448,136a5,5,0,0,1,5-5h0a5,5,0,0,1,5,5h0a5,5,0,0,1-5,5h0A5,5,0,0,1,448,136Z"/><path class="cls-1" d="M249,460a5,5,0,0,1,5-5h0a5,5,0,0,1,5,5h0a5,5,0,0,1-5,5h0A5,5,0,0,1,249,460Z"/><path class="cls-1" d="M243,339a5,5,0,0,1-5-5V291a5,5,0,0,1,10,0v43A5,5,0,0,1,243,339Z"/><path class="cls-1" d="M268,339a5,5,0,0,1-5-5V291a5,5,0,0,1,10,0v43A5,5,0,0,1,268,339Z"/></svg>