<?xml version="1.0" ?><svg id="Lines" viewBox="0 0 512 512" xmlns="http://www.w3.org/2000/svg"><defs><style>.cls-1{fill:#3f456b;}</style></defs><title/><path class="cls-1" d="M426.78,155.82h-51.5a5,5,0,0,1-5-4.46c-.12-1.1-2.78-27.21,9.89-41.32,5.26-5.87,12.27-8.84,20.83-8.84s15.57,3,20.83,8.84c12.68,14.11,10,40.22,9.89,41.32A5,5,0,0,1,426.78,155.82Zm-46.79-10H422c.15-7.17-.57-21.28-7.63-29.12-3.33-3.7-7.71-5.5-13.38-5.5S391,113,387.64,116.71C381,124.08,379.83,137.69,380,145.82Z"/><path class="cls-1" d="M400.91,110.61a5,5,0,0,1-5-5V79a5,5,0,0,1,10,0v26.61A5,5,0,0,1,400.91,110.61Z"/><path class="cls-1" d="M329.78,155.82h-51.5a5,5,0,0,1-5-4.46c-.12-1.1-2.78-27.21,9.89-41.32,5.26-5.87,12.27-8.84,20.83-8.84s15.57,3,20.83,8.84c12.68,14.11,10,40.22,9.89,41.32A5,5,0,0,1,329.78,155.82Zm-46.79-10H325c.15-7.17-.57-21.28-7.63-29.12-3.33-3.7-7.71-5.5-13.38-5.5S294,113,290.64,116.71C284,124.08,282.83,137.69,283,145.82Z"/><path class="cls-1" d="M303.91,110.61a5,5,0,0,1-5-5V79a5,5,0,0,1,10,0v26.61A5,5,0,0,1,303.91,110.61Z"/><path class="cls-1" d="M233.78,155.82h-51.5a5,5,0,0,1-5-4.46c-.12-1.1-2.78-27.21,9.89-41.32,5.26-5.87,12.27-8.84,20.83-8.84s15.57,3,20.83,8.84c12.68,14.11,10,40.22,9.89,41.32A5,5,0,0,1,233.78,155.82Zm-46.79-10h42c.15-7.17-.57-21.28-7.63-29.12-3.33-3.7-7.71-5.5-13.38-5.5S198,113,194.64,116.71C188,124.08,186.83,137.69,187,145.82Z"/><path class="cls-1" d="M207.91,110.61a5,5,0,0,1-5-5V79a5,5,0,1,1,10,0v26.61A5,5,0,0,1,207.91,110.61Z"/><path class="cls-1" d="M138.78,155.82H87.28a5,5,0,0,1-5-4.46c-.12-1.1-2.78-27.21,9.89-41.32,5.26-5.87,12.27-8.84,20.83-8.84s15.57,3,20.83,8.84c12.68,14.11,10,40.22,9.89,41.32A5,5,0,0,1,138.78,155.82ZM92,145.82H134c.15-7.17-.57-21.28-7.63-29.12-3.33-3.7-7.71-5.5-13.38-5.5S103,113,99.64,116.71C93,124.08,91.83,137.69,92,145.82Z"/><path class="cls-1" d="M112.91,110.61a5,5,0,0,1-5-5V79a5,5,0,0,1,10,0v26.61A5,5,0,0,1,112.91,110.61Z"/><path class="cls-1" d="M449,84H64a5,5,0,0,1,0-10H449a5,5,0,0,1,0,10Z"/><path class="cls-1" d="M449,468H64a5,5,0,0,1,0-10H449a5,5,0,0,1,0,10Z"/><path class="cls-1" d="M449,500H64a5,5,0,0,1,0-10H449a5,5,0,0,1,0,10Z"/><path class="cls-1" d="M486,52H26A15,15,0,0,1,11,37V25A15,15,0,0,1,26,10H486a15,15,0,0,1,15,15V37A15,15,0,0,1,486,52ZM26,20a5,5,0,0,0-5,5V37a5,5,0,0,0,5,5H486a5,5,0,0,0,5-5V25a5,5,0,0,0-5-5Z"/><path class="cls-1" d="M64,500H32a5,5,0,0,1-5-5V47a5,5,0,0,1,5-5H64a5,5,0,0,1,5,5V495A5,5,0,0,1,64,500ZM37,490H59V52H37Z"/><path class="cls-1" d="M481,500H449a5,5,0,0,1-5-5V47a5,5,0,0,1,5-5h32a5,5,0,0,1,5,5V495A5,5,0,0,1,481,500Zm-27-10h22V52H454Z"/><path class="cls-1" d="M256.5,68h-1a5,5,0,0,1,0-10h1a5,5,0,0,1,0,10Z"/><path class="cls-1" d="M113,68h-1a5,5,0,0,1,0-10h1a5,5,0,0,1,0,10Z"/><path class="cls-1" d="M184.75,68h-1a5,5,0,0,1,0-10h1a5,5,0,0,1,0,10Z"/><path class="cls-1" d="M328.25,68h-1a5,5,0,0,1,0-10h1a5,5,0,0,1,0,10Z"/><path class="cls-1" d="M400,68h-1a5,5,0,0,1,0-10h1a5,5,0,0,1,0,10Z"/><path class="cls-1" d="M256.5,484h-1a5,5,0,0,1,0-10h1a5,5,0,0,1,0,10Z"/><path class="cls-1" d="M113,484h-1a5,5,0,0,1,0-10h1a5,5,0,0,1,0,10Z"/><path class="cls-1" d="M184.75,484h-1a5,5,0,0,1,0-10h1a5,5,0,0,1,0,10Z"/><path class="cls-1" d="M328.25,484h-1a5,5,0,0,1,0-10h1a5,5,0,0,1,0,10Z"/><path class="cls-1" d="M400,484h-1a5,5,0,0,1,0-10h1a5,5,0,0,1,0,10Z"/><path class="cls-1" d="M208,467a36,36,0,1,1,36-36A36,36,0,0,1,208,467Zm0-62a26,26,0,1,0,26,26A26,26,0,0,0,208,405Z"/><path class="cls-1" d="M112,467a36,36,0,1,1,36-36A36,36,0,0,1,112,467Zm0-62a26,26,0,1,0,26,26A26,26,0,0,0,112,405Z"/><path class="cls-1" d="M400,467a36,36,0,1,1,36-36A36,36,0,0,1,400,467Zm0-62a26,26,0,1,0,26,26A26,26,0,0,0,400,405Z"/><path class="cls-1" d="M304,467a36,36,0,1,1,36-36A36,36,0,0,1,304,467Zm0-62a26,26,0,1,0,26,26A26,26,0,0,0,304,405Z"/><path class="cls-1" d="M160,468a5,5,0,0,1-5-5V176a5,5,0,0,1,10,0V463A5,5,0,0,1,160,468Z"/><path class="cls-1" d="M256,468a5,5,0,0,1-5-5V176a5,5,0,0,1,10,0V463A5,5,0,0,1,256,468Z"/><path class="cls-1" d="M353,468a5,5,0,0,1-5-5V176a5,5,0,0,1,10,0V463A5,5,0,0,1,353,468Z"/><path class="cls-1" d="M449,181H65a5,5,0,0,1,0-10H449a5,5,0,0,1,0,10Z"/><path class="cls-1" d="M449,373H65a5,5,0,0,1,0-10H449a5,5,0,0,1,0,10Z"/><path class="cls-1" d="M208,370a36,36,0,1,1,36-36A36,36,0,0,1,208,370Zm0-62a26,26,0,1,0,26,26A26,26,0,0,0,208,308Z"/><path class="cls-1" d="M112,370a36,36,0,1,1,36-36A36,36,0,0,1,112,370Zm0-62a26,26,0,1,0,26,26A26,26,0,0,0,112,308Z"/><path class="cls-1" d="M400,370a36,36,0,1,1,36-36A36,36,0,0,1,400,370Zm0-62a26,26,0,1,0,26,26A26,26,0,0,0,400,308Z"/><path class="cls-1" d="M304,370a36,36,0,1,1,36-36A36,36,0,0,1,304,370Zm0-62a26,26,0,1,0,26,26A26,26,0,0,0,304,308Z"/><path class="cls-1" d="M449,276H65a5,5,0,0,1,0-10H449a5,5,0,0,1,0,10Z"/><path class="cls-1" d="M208,275a36,36,0,1,1,36-36A36,36,0,0,1,208,275Zm0-62a26,26,0,1,0,26,26A26,26,0,0,0,208,213Z"/><path class="cls-1" d="M112,275a36,36,0,1,1,36-36A36,36,0,0,1,112,275Zm0-62a26,26,0,1,0,26,26A26,26,0,0,0,112,213Z"/><path class="cls-1" d="M112,254a15,15,0,1,1,15-15A15,15,0,0,1,112,254Zm0-20a5,5,0,1,0,5,5A5,5,0,0,0,112,234Z"/><path class="cls-1" d="M208,254a15,15,0,1,1,15-15A15,15,0,0,1,208,254Zm0-20a5,5,0,1,0,5,5A5,5,0,0,0,208,234Z"/><path class="cls-1" d="M304,254a15,15,0,1,1,15-15A15,15,0,0,1,304,254Zm0-20a5,5,0,1,0,5,5A5,5,0,0,0,304,234Z"/><path class="cls-1" d="M400,275a36,36,0,1,1,36-36A36,36,0,0,1,400,275Zm0-62a26,26,0,1,0,26,26A26,26,0,0,0,400,213Z"/><path class="cls-1" d="M304,275a36,36,0,1,1,36-36A36,36,0,0,1,304,275Zm0-62a26,26,0,1,0,26,26A26,26,0,0,0,304,213Z"/><path class="cls-1" d="M400,254a15,15,0,1,1,15-15A15,15,0,0,1,400,254Zm0-20a5,5,0,1,0,5,5A5,5,0,0,0,400,234Z"/><path class="cls-1" d="M112,349a15,15,0,1,1,15-15A15,15,0,0,1,112,349Zm0-20a5,5,0,1,0,5,5A5,5,0,0,0,112,329Z"/><path class="cls-1" d="M208,349a15,15,0,1,1,15-15A15,15,0,0,1,208,349Zm0-20a5,5,0,1,0,5,5A5,5,0,0,0,208,329Z"/><path class="cls-1" d="M304,349a15,15,0,1,1,15-15A15,15,0,0,1,304,349Zm0-20a5,5,0,1,0,5,5A5,5,0,0,0,304,329Z"/><path class="cls-1" d="M400,349a15,15,0,1,1,15-15A15,15,0,0,1,400,349Zm0-20a5,5,0,1,0,5,5A5,5,0,0,0,400,329Z"/><path class="cls-1" d="M112,446a15,15,0,1,1,15-15A15,15,0,0,1,112,446Zm0-20a5,5,0,1,0,5,5A5,5,0,0,0,112,426Z"/><path class="cls-1" d="M208,446a15,15,0,1,1,15-15A15,15,0,0,1,208,446Zm0-20a5,5,0,1,0,5,5A5,5,0,0,0,208,426Z"/><path class="cls-1" d="M304,446a15,15,0,1,1,15-15A15,15,0,0,1,304,446Zm0-20a5,5,0,1,0,5,5A5,5,0,0,0,304,426Z"/><path class="cls-1" d="M400,446a15,15,0,1,1,15-15A15,15,0,0,1,400,446Zm0-20a5,5,0,1,0,5,5A5,5,0,0,0,400,426Z"/></svg>