<?xml version="1.0" ?><svg enable-background="new 0 0 512 512" version="1.1" viewBox="0 0 512 512" xml:space="preserve" xmlns="http://www.w3.org/2000/svg" xmlns:xlink="http://www.w3.org/1999/xlink"><g id="Colors"><g><g><path d="M200.951,107.446c-0.532,0-1.073-0.085-1.605-0.266c-2.615-0.886-4.018-3.725-3.131-6.34     c10.454-30.858,43.405-48.759,75.036-40.75c13.46,3.41,25.134,10.939,33.76,21.775c1.72,2.161,1.362,5.306-0.798,7.026     c-2.162,1.719-5.306,1.362-7.026-0.798c-7.252-9.111-17.069-15.442-28.391-18.31c-26.596-6.739-54.319,8.315-63.11,34.265     C204.979,106.132,203.035,107.446,200.951,107.446z" fill="#3F456B"/></g></g><g><g><path d="M198.541,68.306c-1.273,0-2.547-0.483-3.522-1.451l-14.896-14.786c-1.96-1.946-1.972-5.111-0.026-7.071     c1.946-1.96,5.111-1.971,7.071-0.026l14.896,14.786c1.96,1.946,1.972,5.111,0.026,7.071     C201.112,67.812,199.826,68.306,198.541,68.306z" fill="#3F456B"/></g></g><g><g><path d="M316.092,68.36c-1.273,0-2.547-0.483-3.522-1.451c-1.96-1.946-1.972-5.111-0.026-7.071l14.785-14.895     c1.946-1.96,5.111-1.971,7.071-0.026c1.96,1.946,1.972,5.111,0.026,7.071l-14.785,14.895     C318.663,67.867,317.377,68.36,316.092,68.36z" fill="#3F456B"/></g></g><g><g><path d="M257.327,43.988c-2.753,0-4.99-2.227-5-4.981l-0.077-20.988c-0.01-2.762,2.221-5.008,4.981-5.019     c0.007,0,0.013,0,0.019,0c2.753,0,4.99,2.227,5,4.981l0.077,20.988c0.01,2.762-2.22,5.008-4.981,5.019     C257.339,43.988,257.333,43.988,257.327,43.988z" fill="#3F456B"/></g></g><g><g><path d="M289.132,50.331c-0.632,0-1.273-0.121-1.895-0.375c-2.555-1.047-3.777-3.968-2.729-6.523l7.96-19.42     c1.046-2.555,3.964-3.777,6.522-2.73c2.555,1.047,3.777,3.968,2.729,6.523l-7.96,19.42     C292.968,49.16,291.101,50.331,289.132,50.331z" fill="#3F456B"/></g></g><g><g><path d="M225.518,50.302c-1.955,0-3.812-1.154-4.614-3.071l-8.104-19.36c-1.066-2.547,0.135-5.477,2.682-6.543     c2.547-1.065,5.476,0.134,6.543,2.682l8.104,19.36c1.066,2.547-0.135,5.477-2.682,6.543     C226.815,50.176,226.161,50.302,225.518,50.302z" fill="#3F456B"/></g></g><g><g><g><path d="M427.686,218.416c-15.623,0-40.434-0.001-57.726-0.003c-2.762,0-5-2.239-5-5c0-2.761,2.238-5,5-5l0,0      c38.257,0.003,71.738,0.003,72.313,0.001v0c19.043-0.281,34.456-15.837,34.456-34.728c0-16.896-12.043-31.342-28.635-34.349      c-1.367-0.248-2.57-1.054-3.319-2.224s-0.978-2.6-0.631-3.945c1.2-4.649,1.809-9.461,1.809-14.303      c0-31.449-25.585-57.035-57.034-57.035c-23.556,0-44.992,14.79-53.343,36.804c-0.633,1.668-2.106,2.873-3.867,3.161      c-1.755,0.289-3.541-0.383-4.673-1.763c-5.38-6.558-13.322-10.319-21.79-10.319c-15.539,0-28.181,12.637-28.181,28.169      c0,2.229,0.265,4.453,0.788,6.607c0.327,1.352,0.077,2.779-0.69,3.939c-0.769,1.16-1.984,1.948-3.357,2.173      c-7.199,1.185-13.917,4.36-19.428,9.183c-2.077,1.818-5.234,1.608-7.056-0.47c-1.818-2.078-1.608-5.237,0.47-7.056      c5.646-4.94,12.302-8.504,19.476-10.455c-0.135-1.302-0.202-2.611-0.202-3.922c0-21.047,17.128-38.169,38.181-38.169      c8.863,0,17.3,3.039,24.038,8.516c11.372-22.04,34.476-36.398,59.635-36.398c36.963,0,67.034,30.072,67.034,67.035      c0,3.981-0.351,7.948-1.046,11.845c18.714,5.666,31.822,22.99,31.822,42.977c0,24.376-19.906,44.441-44.374,44.727      C442.312,218.415,436.44,218.416,427.686,218.416z" fill="#3F456B"/></g></g><g><g><path d="M305.806,132.074c-0.518,0-1.044-0.081-1.562-0.251c-14.418-4.74-33.507-0.701-33.696-0.66      c-2.7,0.583-5.361-1.131-5.944-3.83c-0.584-2.699,1.131-5.36,3.829-5.944c0.89-0.193,21.963-4.646,38.935,0.933      c2.623,0.862,4.051,3.688,3.188,6.312C309.862,130.738,307.906,132.073,305.806,132.074z" fill="#3F456B"/></g></g></g><g><g><path d="M406.549,253.919c-64.911-81.843-138.69-94.987-138.69-94.987s10.387,17.764,14.358,29.795     c3.971,12.031,19.73,38.807,63.818,48.509S406.549,253.919,406.549,253.919z" fill="#F4F5F6"/></g></g><g><g><path d="M70.573,193.124c-0.655,0-1.321-0.13-1.962-0.403c-2.539-1.084-3.719-4.022-2.635-6.562     c21.144-49.513,66.723-100.19,68.652-102.323c1.853-2.048,5.014-2.206,7.062-0.354c2.047,1.853,2.206,5.014,0.354,7.062     c-0.462,0.511-46.396,51.591-66.871,99.542C74.362,191.985,72.515,193.124,70.573,193.124z" fill="#3F456B"/></g></g><g><g><path d="M86.026,226.334c-0.771,0-1.552-0.178-2.284-0.555c-2.455-1.263-3.421-4.278-2.158-6.733     c30.185-58.663,86.582-129.729,87.148-130.439c1.72-2.16,4.866-2.517,7.025-0.797c2.16,1.72,2.518,4.866,0.797,7.026     c-0.56,0.703-56.352,71.012-86.078,128.785C89.59,225.344,87.84,226.334,86.026,226.334z" fill="#3F456B"/></g></g><g><g><path d="M107.371,251.968c-0.791,0-1.594-0.188-2.341-0.585c-2.438-1.295-3.366-4.322-2.071-6.761     c30.211-56.904,95.781-142.821,96.439-143.682c1.678-2.193,4.815-2.611,7.01-0.933c2.193,1.678,2.611,4.816,0.934,7.009     c-0.654,0.854-65.728,86.124-95.551,142.295C110.893,251.003,109.161,251.968,107.371,251.968z" fill="#3F456B"/></g></g><g><g><path d="M132.277,272.294c-0.832,0-1.675-0.208-2.451-0.646c-2.405-1.356-3.256-4.406-1.899-6.812     c35.566-63.073,97.256-146.168,97.875-147c1.649-2.217,4.781-2.676,6.996-1.027c2.216,1.648,2.676,4.781,1.027,6.996     c-0.615,0.827-61.935,83.426-97.188,145.943C135.719,271.378,134.023,272.294,132.277,272.294z" fill="#3F456B"/></g></g><g><g><path d="M180.36,255.335c-0.921,0-1.852-0.254-2.686-0.786c-2.327-1.485-3.01-4.577-1.524-6.905     c33.612-52.657,74.209-108.463,74.615-109.021c1.626-2.233,4.753-2.723,6.985-1.098c2.231,1.626,2.723,4.753,1.097,6.985     c-0.404,0.555-40.825,56.122-74.268,108.514C183.626,254.519,182.011,255.335,180.36,255.335z" fill="#3F456B"/></g></g><g><g><path d="M252.935,206.828c-0.958,0-1.927-0.275-2.782-0.85c-2.293-1.539-2.903-4.646-1.364-6.938     c7.272-10.83,20.657-29.878,20.791-30.069c1.59-2.259,4.71-2.801,6.966-1.215c2.26,1.588,2.804,4.707,1.216,6.966     c-0.134,0.19-13.458,19.151-20.67,29.893C256.126,206.051,254.545,206.828,252.935,206.828z" fill="#3F456B"/></g></g><g><g><path d="M381.645,356.158c-0.855,0-1.722-0.22-2.515-0.682c-2.385-1.391-3.19-4.453-1.8-6.838     c27.118-46.488,36.198-90.701,36.287-91.142c0.543-2.708,3.18-4.46,5.887-3.918c2.707,0.543,4.461,3.179,3.918,5.886     c-0.375,1.868-9.505,46.299-37.453,94.213C385.039,355.269,383.365,356.158,381.645,356.158z" fill="#3F456B"/></g></g><g><g><path d="M412.19,372.851c-0.824,0-1.66-0.204-2.432-0.635c-2.411-1.345-3.275-4.391-1.93-6.802     c28.108-50.379,37.399-93.718,37.49-94.15c0.566-2.702,3.219-4.433,5.918-3.869c2.702,0.565,4.435,3.213,3.87,5.916     c-0.381,1.821-9.647,45.182-38.546,96.976C415.646,371.926,413.944,372.851,412.19,372.851z" fill="#3F456B"/></g></g><g><g><path d="M442.501,390.115c-0.918,0-1.846-0.252-2.678-0.781c-2.33-1.481-3.019-4.572-1.537-6.902     c32.746-51.5,35.132-90.142,35.152-90.526c0.146-2.758,2.51-4.858,5.257-4.73c2.758,0.146,4.875,2.499,4.729,5.256     c-0.089,1.677-2.559,41.671-36.699,95.365C445.772,389.296,444.154,390.115,442.501,390.115z" fill="#3F456B"/></g></g><g><g><path d="M353.881,339.617c-0.846,0-1.703-0.215-2.488-0.667c-2.394-1.377-3.218-4.434-1.841-6.828     c25.165-43.736,37.405-82.867,37.526-83.257c0.815-2.639,3.619-4.111,6.254-3.299c2.639,0.816,4.115,3.617,3.299,6.254     c-0.506,1.637-12.694,40.595-38.411,85.29C357.295,338.717,355.611,339.617,353.881,339.617z" fill="#3F456B"/></g></g><g><g><path d="M348.996,274.001c-0.752,0-1.515-0.17-2.232-0.529c-2.47-1.235-3.471-4.238-2.235-6.708     c5.711-11.424,9.625-25.003,9.664-25.139c0.76-2.655,3.526-4.191,6.182-3.432c2.655,0.759,4.192,3.525,3.434,6.18     c-0.169,0.59-4.198,14.588-10.336,26.862C352.596,272.988,350.83,274.001,348.996,274.001z" fill="#3F456B"/></g></g><g><g><path d="M405.003,257c-1.474,0-2.934-0.648-3.92-1.893c-62.967-79.391-133.289-91.125-133.992-91.234     c-2.729-0.424-4.598-2.98-4.173-5.709c0.424-2.728,2.978-4.592,5.708-4.173c0.769,0.12,19.13,3.078,45.69,16.309     c24.334,12.121,60.498,35.595,94.601,78.594c1.717,2.164,1.354,5.309-0.81,7.024C407.188,256.646,406.092,257,405.003,257z" fill="#3F456B"/></g></g><g><g><path d="M337.822,289.461c-0.606,3.523-3.952,5.888-7.476,5.281c-3.523-0.606-5.888-3.954-5.281-7.476     c0.606-3.523,3.954-5.888,7.477-5.282C336.065,282.59,338.428,285.938,337.822,289.461z" fill="#3A436D"/></g></g><g><g><path d="M314.266,290.023c-0.324,0-0.651-0.032-0.98-0.097c-11.771-2.34-21.972-7.728-28.78-14.803     c-7.575,0.812-14.976-1.245-20.872-6.162c-4.593-3.83-7.312-8.97-9.712-13.505c-2.934-5.544-5.467-10.333-10.679-12.311     c-7.399-2.807-14.773,1.763-18.513,4.736c-2.16,1.717-5.306,1.36-7.025-0.802c-1.718-2.162-1.359-5.307,0.803-7.026     c9.192-7.308,19.5-9.589,28.282-6.257c8.739,3.315,12.581,10.577,15.971,16.984c2.159,4.08,4.198,7.934,7.277,10.501     c2.403,2.004,4.999,3.173,7.634,3.701c-0.308-0.729-0.582-1.467-0.823-2.212c-2.439-7.545-0.998-14.928,3.955-20.256     c5.689-6.12,13.041-8.54,19.673-6.469c5.837,1.822,10.008,6.714,10.884,12.766c1.083,7.487-3.016,14.942-11.246,20.454     c-1.418,0.95-2.865,1.787-4.331,2.512c5.636,4.166,12.808,7.021,19.452,8.341c2.709,0.539,4.468,3.17,3.93,5.879     C318.69,288.376,316.602,290.023,314.266,290.023z M295.669,245.316c-2.451,0-5.112,1.395-7.542,4.008     c-3.139,3.375-2.691,7.502-1.765,10.37c0.492,1.522,1.182,2.972,2.036,4.349c2.225-0.777,4.311-1.854,6.15-3.085     c4.903-3.284,7.424-7.189,6.913-10.713c-0.319-2.206-1.839-3.989-3.966-4.653C296.905,245.407,296.294,245.316,295.669,245.316z" fill="#3A436D"/></g></g><g><g><path d="M457.2,400.252c-1.946,0-3.796-1.144-4.604-3.048c-1.079-2.542,0.107-5.477,2.649-6.556     c14.26-6.052,24.664-17.415,30.924-33.773c7.047-18.416,6.647-35-1.188-49.294c-21.129-38.546-90.002-52.687-112.634-57.333     c-1.548-0.318-2.897-0.595-4.021-0.836c-22.952-4.916-76.703-16.428-91.069-59.52c-12.576-37.726-41.271-59.705-41.56-59.923     c-22.175-16.657-65.766-43.738-108.519-37.947c-22.129,3-39.773,15.606-49.683,35.499c-11.556,23.196-10.735,52.941,2.09,75.78     c14.759,26.28,37.985,49.793,71.007,71.884c2.295,1.535,2.911,4.641,1.376,6.936c-1.536,2.294-4.638,2.913-6.937,1.375     c-34.358-22.985-58.618-47.615-74.165-75.299c-14.4-25.643-15.312-59.061-2.322-85.135c11.433-22.948,31.778-37.491,57.29-40.949     c24.266-3.292,64.073,0.954,115.872,39.864c1.273,0.955,31.424,23.92,45.036,64.752c12.561,37.673,62.396,48.347,83.677,52.904     c1.102,0.236,2.423,0.507,3.938,0.818c11.579,2.377,35.674,7.324,59.359,16.768c29.772,11.871,49.971,27.198,60.033,45.555     c9.311,16.986,9.902,36.391,1.758,57.675c-7.269,18.993-19.501,32.25-36.357,39.404     C458.515,400.124,457.852,400.252,457.2,400.252z" fill="#3F456B"/></g></g><g><g><path d="M318.004,232c-1.508,0-2.997-0.679-3.981-1.97c-1.673-2.197-1.249-5.334,0.947-7.007     c18.373-13.999,17.113-31.826,17.05-32.578c-0.228-2.741,1.798-5.166,4.537-5.411c2.749-0.235,5.16,1.754,5.421,4.491     c0.093,0.971,2,23.968-20.947,41.451C320.125,231.667,319.06,232,318.004,232z" fill="#3F456B"/></g></g><g><g><path d="M113,449.33V450H18h-1l0.01-45.85c0-16.94,1.07-31.98,2.78-45.18L20,359c0,0,43.03,0,70.55,28.43     c7.61,7.86,14.04,17.89,18.03,30.7C111.39,427.1,113,437.43,113,449.33z" fill="#F4F5F6"/></g></g><g><g><path d="M202.994,455.334c-2.534,0-4.706-1.918-4.969-4.493c-1.339-13.14-4.057-26.534-8.075-39.809     c-0.801-2.643,0.693-5.434,3.336-6.234c2.645-0.801,5.435,0.694,6.234,3.337c4.205,13.888,7.049,27.915,8.454,41.692     c0.279,2.748-1.721,5.202-4.468,5.481C203.335,455.325,203.163,455.334,202.994,455.334z" fill="#3F456B"/></g></g><g><g><path d="M180.108,377.535c-1.85,0-3.627-1.03-4.494-2.802c-11.828-24.16-23.907-38.972-24.028-39.119     c-1.752-2.133-1.446-5.283,0.686-7.037c2.13-1.754,5.279-1.45,7.035,0.681c0.521,0.633,12.907,15.787,25.288,41.077     c1.215,2.48,0.188,5.475-2.292,6.689C181.596,377.371,180.846,377.535,180.108,377.535z" fill="#3F456B"/></g></g><g><g><path d="M87.439,436.12c-0.569-2.7,1.16-5.35,3.86-5.93l0,0c2.7-0.57,5.35,1.15,5.93,3.86l0,0     c0.57,2.7-1.16,5.35-3.859,5.93l0,0c-0.351,0.07-0.7,0.11-1.04,0.11l0,0C90.02,440.08,87.939,438.48,87.439,436.12z      M81.01,418.94c-1.36-2.4-0.52-5.45,1.88-6.82l0,0c2.4-1.36,5.45-0.52,6.811,1.88l0,0c1.369,2.4,0.529,5.46-1.87,6.82l0,0     c-0.78,0.44-1.63,0.65-2.471,0.65l0,0C83.62,421.47,81.93,420.56,81.01,418.94z M69.52,404.69c-2.05-1.86-2.21-5.02-0.35-7.07     l0,0c1.85-2.04,5.02-2.2,7.06-0.34l0,0c2.051,1.85,2.21,5.01,0.351,7.06l0,0c-0.99,1.09-2.351,1.64-3.71,1.64l0,0     C71.67,405.98,70.47,405.55,69.52,404.69z M54.12,394.19c-2.46-1.26-3.431-4.27-2.181-6.73l0,0c1.261-2.45,4.271-3.43,6.73-2.17     l0,0c2.46,1.26,3.43,4.27,2.18,6.73l0,0c-0.89,1.73-2.64,2.72-4.46,2.72l0,0C55.62,394.74,54.85,394.57,54.12,394.19z      M36.399,387.37L36.399,387.37c-2.659-0.74-4.22-3.5-3.479-6.16l0,0c0.74-2.66,3.49-4.22,6.149-3.48l0,0c0,0,0,0,0.011,0l0,0     c2.649,0.74,4.21,3.5,3.47,6.16l0,0c-0.61,2.21-2.62,3.66-4.81,3.66l0,0C37.3,387.55,36.84,387.49,36.399,387.37z M17.75,383.99     V384c-2.76-0.14-4.88-2.49-4.74-5.25l0,0c0.13-2.76,2.48-4.88,5.24-4.74l0,0l0,0l0,0c2.76,0.13,4.88,2.48,4.74,5.24l0,0     C22.859,381.92,20.649,384,18,384l0,0C17.92,384,17.84,384,17.75,383.99z" fill="#3F456B"/></g></g><g><g><path d="M41.015,73.534c-1.298,0-2.595-0.502-3.574-1.503l-9.469-9.68c-1.931-1.974-1.896-5.14,0.078-7.071     c1.973-1.93,5.139-1.896,7.07,0.078l9.469,9.68c1.931,1.974,1.896,5.14-0.078,7.071C43.538,73.06,42.276,73.534,41.015,73.534z" fill="#3F456B"/></g></g><g><g><path d="M98.983,73.81c-1.296,0-2.591-0.5-3.569-1.499c-1.934-1.971-1.903-5.137,0.068-7.071l9.281-9.103     c1.97-1.933,5.137-1.904,7.07,0.069c1.934,1.971,1.903,5.137-0.068,7.071l-9.281,9.103     C101.512,73.333,100.247,73.81,98.983,73.81z" fill="#3F456B"/></g></g><g><g><path d="M80.63,63.108c-0.446,0-0.9-0.061-1.351-0.187c-2.659-0.745-4.212-3.504-3.467-6.163l3.604-12.872     c0.744-2.659,3.508-4.209,6.162-3.467c2.659,0.745,4.212,3.504,3.467,6.163l-3.604,12.872     C84.823,61.663,82.815,63.108,80.63,63.108z" fill="#3F456B"/></g></g><g><g><path d="M59.6,62.973c-2.229,0-4.262-1.501-4.84-3.761l-3.342-13.049c-0.685-2.675,0.928-5.399,3.604-6.084     c2.674-0.684,5.399,0.927,6.084,3.604l3.342,13.049c0.685,2.675-0.928,5.399-3.604,6.084     C60.428,62.922,60.011,62.973,59.6,62.973z" fill="#3F456B"/></g></g><g><g><path d="M40.155,72.526c-1.295,0-2.589-0.5-3.568-1.498l-8.56-8.72c-1.935-1.97-1.905-5.136,0.065-7.071     c1.971-1.934,5.135-1.906,7.071,0.066l8.56,8.72c1.935,1.97,1.905,5.136-0.065,7.071C42.685,72.05,41.42,72.526,40.155,72.526z" fill="#3F456B"/></g></g><g><g><path d="M28.792,91.227c-0.446,0-0.899-0.061-1.351-0.187L15.44,87.681c-2.659-0.745-4.212-3.503-3.467-6.163     c0.744-2.66,3.502-4.209,6.162-3.467l12.001,3.359c2.659,0.745,4.212,3.503,3.467,6.163     C32.985,89.781,30.978,91.227,28.792,91.227z" fill="#3F456B"/></g></g><g><g><path d="M16.473,115.834c-2.229,0-4.262-1.501-4.84-3.761c-0.685-2.675,0.929-5.399,3.604-6.084l12.538-3.21     c2.671-0.684,5.399,0.928,6.084,3.604c0.685,2.675-0.929,5.399-3.604,6.084l-12.538,3.21     C17.301,115.783,16.884,115.834,16.473,115.834z" fill="#3F456B"/></g></g><g><g><path d="M30.224,139.992c-1.296,0-2.591-0.5-3.569-1.499c-1.934-1.971-1.903-5.137,0.068-7.071l9.281-9.103     c1.97-1.933,5.137-1.904,7.07,0.069c1.934,1.971,1.903,5.137-0.068,7.071l-9.281,9.103     C32.752,139.516,31.487,139.992,30.224,139.992z" fill="#3F456B"/></g></g></g><g id="Lines"><g><g><path d="M366.825,424.457c0.751,3.495-1.473,6.937-4.969,7.688c-3.495,0.751-6.937-1.474-7.688-4.969     s1.474-6.938,4.969-7.688C362.633,418.736,366.074,420.962,366.825,424.457z" fill="#3A436D"/></g></g><g><g><path d="M332.593,435.135c-7.547,0-14.625-1.427-20.588-4.109c-6.728,3.578-14.36,4.428-21.664,2.062     c-5.689-1.842-10.129-5.598-14.047-8.913c-4.787-4.051-8.922-7.544-14.497-7.443c-7.908,0.153-13.052,7.142-15.414,11.294     c-1.365,2.399-4.416,3.238-6.818,1.874c-2.4-1.366-3.238-4.418-1.873-6.818c5.807-10.208,14.522-16.167,23.912-16.348     c9.329-0.181,15.616,5.125,21.149,9.807c3.524,2.982,6.854,5.798,10.668,7.033c2.977,0.964,5.82,1.081,8.463,0.589     c-0.557-0.562-1.086-1.144-1.588-1.746c-5.076-6.092-6.491-13.48-3.881-20.271c2.999-7.801,8.922-12.786,15.845-13.336     c6.094-0.478,11.788,2.5,14.857,7.79c3.796,6.544,2.771,14.99-2.812,23.172c-0.961,1.41-1.992,2.726-3.082,3.945     c6.782,1.765,14.501,1.74,21.158,0.489c2.715-0.51,5.328,1.276,5.838,3.991c0.51,2.714-1.276,5.327-3.99,5.837     C340.288,434.775,336.381,435.135,332.593,435.135z M313.521,398.761c-0.155,0-0.312,0.006-0.469,0.019     c-3.034,0.241-5.696,2.777-7.303,6.956c-1.653,4.302,0.3,7.965,2.229,10.281c1.023,1.229,2.204,2.317,3.51,3.276     c1.774-1.55,3.31-3.327,4.558-5.156c3.325-4.875,4.208-9.437,2.421-12.517C317.428,399.827,315.562,398.761,313.521,398.761z" fill="#3A436D"/></g></g><g><g><path d="M480,502H33c-6.733,0-12.049-2.028-15.798-6.028c-5.291-5.646-5.268-13.002-5.202-14.51l0.007-77.315     c0-83.722,25.624-121.629,27.346-124.078c3.055-4.561,12.153-11.718,25.204-6.825c4.346,1.276,11.661,6.933,10.366,20.127     c-1.465,14.914,1.033,26.969,7.032,33.944c4.274,4.97,10.273,7.59,18.341,8.013c17.337,0.909,42.628-0.581,64.601-12.834     c15.776-8.797,28.519-22.473,40.843-35.699c1.841-1.976,3.679-3.948,5.524-5.903c0.489-0.504,4.545-4.538,11.603-6.996     c6.548-2.281,17.013-3.583,29.677,3.162c20.943,11.153,177.407,95.536,182.666,98.373c4.271,2.016,67.031,32.607,65.772,87.262     v19.179c0.067,1.498,0.084,8.579-5.062,14.087C492.172,499.967,486.816,502,480,502z M55.896,281.594     c-5.493,0-8.108,3.845-8.245,4.054c-0.034,0.051-0.069,0.103-0.105,0.153c-0.056,0.08-6.444,9.25-12.754,28.32     c-5.832,17.63-12.785,47.561-12.785,90.025v0L22,481.589c0,0.108-0.004,0.216-0.011,0.323c0.001,0-0.17,4.416,2.558,7.271     C26.331,491.052,29.175,492,33,492h447c3.898,0,6.778-0.948,8.562-2.816c2.595-2.721,2.431-6.852,2.429-6.893     c-0.008-0.113-0.009-0.178-0.009-0.291v-19.368c0-0.04,0.001-0.08,0.001-0.119c0.485-20.281-9.329-39.502-29.167-57.132     c-15.192-13.5-30.815-20.881-30.972-20.954c-0.086-0.041-0.175-0.085-0.258-0.13c-1.613-0.87-161.572-87.14-182.744-98.415     c-17.426-9.282-28.597,1.18-29.357,1.926c-1.813,1.922-3.62,3.86-5.429,5.802c-12.851,13.792-26.139,28.053-43.288,37.616     c-24.052,13.412-51.336,15.064-69.995,14.086c-10.788-0.564-19.333-4.426-25.398-11.478c-9.994-11.62-10.63-28.95-9.403-41.443     c0.743-7.568-2.562-9.281-3.259-9.555c-0.24-0.044-0.227-0.063-0.507-0.171C59.203,281.897,57.437,281.594,55.896,281.594z      M17.007,404.146h0.01H17.007z" fill="#3F456B"/></g></g><g><g><path d="M309.466,340.764c-0.791,0-1.592-0.188-2.339-0.584c-2.439-1.294-3.368-4.32-2.074-6.76l8.414-15.863     c1.293-2.441,4.32-3.368,6.76-2.074c2.439,1.294,3.368,4.32,2.074,6.76l-8.414,15.863     C312.989,339.798,311.257,340.764,309.466,340.764z" fill="#3F456B"/></g></g><g><g><path d="M338.619,356.227c-0.791,0-1.592-0.188-2.339-0.584c-2.439-1.294-3.368-4.32-2.074-6.76l8.413-15.862     c1.293-2.441,4.321-3.368,6.76-2.074c2.439,1.294,3.368,4.32,2.074,6.76l-8.413,15.862     C342.143,355.261,340.41,356.227,338.619,356.227z" fill="#3F456B"/></g></g><g><g><path d="M366.888,371.221c-0.791,0-1.592-0.188-2.339-0.584c-2.439-1.294-3.368-4.32-2.074-6.76l8.414-15.862     c1.294-2.441,4.32-3.367,6.76-2.074c2.439,1.294,3.368,4.32,2.074,6.76l-8.414,15.862     C370.411,370.256,368.679,371.221,366.888,371.221z" fill="#3F456B"/></g></g><g><g><path d="M395.967,385.886c-0.732,0-1.477-0.162-2.18-0.503c-2.484-1.206-3.521-4.197-2.314-6.682l7.442-15.332     c1.205-2.484,4.197-3.521,6.682-2.314c2.484,1.206,3.521,4.197,2.314,6.682l-7.442,15.332     C399.604,384.849,397.822,385.886,395.967,385.886z" fill="#3F456B"/></g></g><g><g><path d="M281.196,325.769c-0.791,0-1.592-0.188-2.339-0.584c-2.439-1.294-3.368-4.32-2.074-6.76l8.414-15.862     c1.294-2.441,4.319-3.368,6.76-2.074c2.439,1.294,3.368,4.32,2.074,6.76l-8.414,15.862     C284.72,324.804,282.987,325.769,281.196,325.769z" fill="#3F456B"/></g></g><g><g><path d="M253.811,311.243c-0.791,0-1.592-0.188-2.339-0.584c-2.439-1.294-3.368-4.32-2.074-6.76l8.413-15.862     c1.293-2.441,4.321-3.368,6.76-2.074c2.439,1.294,3.368,4.32,2.074,6.76l-8.413,15.862     C257.334,310.277,255.602,311.243,253.811,311.243z" fill="#3F456B"/></g></g><g><g><path d="M494.791,455H18c-2.762,0-5-2.239-5-5s2.238-5,5-5h476.791c2.762,0,5,2.239,5,5S497.553,455,494.791,455z     " fill="#3F456B"/></g></g><g><g><path d="M398.653,404.84c-2.137,0-4.327-0.123-6.575-0.371c-14.44-1.589-25.988-7.816-26.473-8.08L196.555,305.68     c-2.433-1.306-3.348-4.336-2.042-6.77c1.307-2.434,4.336-3.347,6.771-2.042l169.081,90.726     c1.647,0.893,40.043,21.213,58.316-10.114c1.393-2.385,4.452-3.191,6.839-1.799c2.385,1.391,3.19,4.453,1.8,6.838     C428.75,397.208,415.467,404.84,398.653,404.84z" fill="#3F456B"/></g></g><g><g><path d="M167.002,332c-1.36,0-2.715-0.551-3.701-1.637c-10.346-11.379-13.638-17.857-13.772-18.127     c-18.716-36.39,7.358-58.741,10.243-61.056c4.515-3.985,15.773-9.488,26.913-2.398c10.742,6.836,37.969,25.298,39.122,26.08     c2.285,1.55,2.882,4.66,1.331,6.945c-1.549,2.285-4.658,2.882-6.944,1.332c-0.281-0.191-28.26-19.162-38.878-25.92     c-7.45-4.741-14.247,0.868-14.998,1.522c-0.101,0.088-0.233,0.197-0.341,0.277c-0.942,0.711-23.287,18.057-7.53,48.696     c0.042,0.082,2.997,5.742,12.253,15.923c1.858,2.043,1.707,5.206-0.336,7.063C169.405,331.57,168.201,332,167.002,332z" fill="#3F456B"/></g></g><g><g><path d="M50.531,336.009c-14.931,0-24.689-2.278-25.294-2.423c-2.686-0.644-4.341-3.342-3.697-6.028     c0.644-2.683,3.337-4.337,6.021-3.698l0,0c0.205,0.049,20.785,4.794,47.547-0.056c2.721-0.491,5.319,1.311,5.812,4.028     s-1.312,5.319-4.028,5.812C67.113,335.416,58.148,336.009,50.531,336.009z" fill="#3F456B"/></g></g><g><g><path d="M113,454.333c-2.762,0-5-2.239-5-5c0-35.386-14.697-60.466-43.685-74.544     C42.354,364.124,20.221,364,20,364c-2.762,0-5-2.239-5-5s2.238-5,5-5c0.996,0,24.676,0.134,48.685,11.794     C91.182,376.72,118,400.083,118,449.333C118,452.095,115.762,454.333,113,454.333z" fill="#3F456B"/></g></g><g><g><path d="M16.995,487c-2.61,0-4.808-2.025-4.984-4.667c-0.184-2.755,1.901-5.138,4.656-5.321L252,461.322V450     c0-2.761,2.238-5,5-5s5,2.239,5,5v16c0,2.632-2.041,4.814-4.667,4.989l-240,16C17.22,486.997,17.106,487,16.995,487z" fill="#3F456B"/></g></g><g><g><path d="M91,392c-2.762,0-5-2.239-5-5s2.238-5,5-5c123.278,0,148.902-56.402,149.147-56.971     c1.089-2.539,4.027-3.712,6.566-2.624c2.537,1.088,3.712,4.028,2.623,6.566c-0.286,0.668-7.288,16.542-30.687,32.186     C197.604,375.227,158.375,392,91,392z" fill="#3F456B"/></g></g><g><g><path d="M109,423c-2.762,0-5-2.239-5-5s2.238-5,5-5c42.809,0,102.477-5.388,143.625-31.058     c24.313-15.168,30.66-30.482,30.722-30.635c1.021-2.551,3.914-3.815,6.477-2.81c2.558,1.005,3.831,3.872,2.842,6.437     c-0.279,0.725-7.147,17.947-33.732,34.853C224.277,411.826,173.832,423,109,423z" fill="#3F456B"/></g></g><g><g><path d="M464.3,502.099c-2.762,0-5-2.239-5-5V485c0-2.761,2.238-5,5-5s5,2.239,5,5v12.099     C469.3,499.86,467.062,502.099,464.3,502.099z" fill="#3F456B"/></g></g><g><g><path d="M395.161,502.099c-2.762,0-5-2.239-5-5V485c0-2.761,2.238-5,5-5s5,2.239,5,5v12.099     C400.161,499.86,397.923,502.099,395.161,502.099z" fill="#3F456B"/></g></g><g><g><path d="M362.188,502.099c-2.762,0-5-2.239-5-5V485c0-2.761,2.238-5,5-5s5,2.239,5,5v12.099     C367.188,499.86,364.949,502.099,362.188,502.099z" fill="#3F456B"/></g></g><g><g><path d="M328.149,502.099c-2.762,0-5-2.239-5-5V485c0-2.761,2.238-5,5-5s5,2.239,5,5v12.099     C333.149,499.86,330.911,502.099,328.149,502.099z" fill="#3F456B"/></g></g><g><g><path d="M430.262,502.099c-2.762,0-5-2.239-5-5V485c0-2.761,2.238-5,5-5s5,2.239,5,5v12.099     C435.262,499.86,433.023,502.099,430.262,502.099z" fill="#3F456B"/></g></g><g><g><path d="M294.112,502.099c-2.762,0-5-2.239-5-5V485c0-2.761,2.238-5,5-5s5,2.239,5,5v12.099     C299.112,499.86,296.874,502.099,294.112,502.099z" fill="#3F456B"/></g></g><g><g><path d="M224.974,502.099c-2.762,0-5-2.239-5-5V485c0-2.761,2.238-5,5-5s5,2.239,5,5v12.099     C229.974,499.86,227.735,502.099,224.974,502.099z" fill="#3F456B"/></g></g><g><g><path d="M192,502.099c-2.762,0-5-2.239-5-5V485c0-2.761,2.238-5,5-5s5,2.239,5,5v12.099     C197,499.86,194.762,502.099,192,502.099z" fill="#3F456B"/></g></g><g><g><path d="M260.074,502.099c-2.762,0-5-2.239-5-5V485c0-2.761,2.238-5,5-5s5,2.239,5,5v12.099     C265.074,499.86,262.836,502.099,260.074,502.099z" fill="#3F456B"/></g></g><g><g><path d="M158.149,502.099c-2.762,0-5-2.239-5-5V485c0-2.761,2.238-5,5-5s5,2.239,5,5v12.099     C163.149,499.86,160.911,502.099,158.149,502.099z" fill="#3F456B"/></g></g><g><g><path d="M124.112,502.099c-2.762,0-5-2.239-5-5V485c0-2.761,2.238-5,5-5s5,2.239,5,5v12.099     C129.112,499.86,126.874,502.099,124.112,502.099z" fill="#3F456B"/></g></g><g><g><path d="M54.974,502.099c-2.762,0-5-2.239-5-5V485c0-2.761,2.238-5,5-5s5,2.239,5,5v12.099     C59.974,499.86,57.735,502.099,54.974,502.099z" fill="#3F456B"/></g></g><g><g><path d="M90.074,502.099c-2.762,0-5-2.239-5-5V485c0-2.761,2.238-5,5-5s5,2.239,5,5v12.099     C95.074,499.86,92.836,502.099,90.074,502.099z" fill="#3F456B"/></g></g></g></svg>