<?xml version="1.0" ?><svg viewBox="0 0 512 512" xmlns="http://www.w3.org/2000/svg"><defs><style>.cls-1{fill:#3f456b;}</style></defs><title/><g id="Lines"><path class="cls-1" d="M417,500H304a5,5,0,0,1-4.95-4.32l-43-314.4L214,495.66a5,5,0,0,1-5,4.34H96a5,5,0,0,1-5-5V16a5,5,0,0,1,5-5H417a5,5,0,0,1,5,5V495A5,5,0,0,1,417,500ZM308.36,490H412V21H101V490H204.62L251,143.34a5,5,0,0,1,5-4.34h0a5,5,0,0,1,4.95,4.32Z"/><path class="cls-1" d="M415.67,52.33h-79a5,5,0,0,1,0-10h79a5,5,0,0,1,0,10Z"/><path class="cls-1" d="M311.38,52.33h-110a5,5,0,0,1,0-10h110a5,5,0,0,1,0,10Z"/><path class="cls-1" d="M176.42,52.33H96.33a5,5,0,0,1,0-10h80.09a5,5,0,0,1,0,10Z"/><path class="cls-1" d="M256,148.5a5,5,0,0,1-5-5V16a5,5,0,0,1,10,0V143.5A5,5,0,0,1,256,148.5Z"/><path class="cls-1" d="M336,77H312a5,5,0,0,1-5-5V16a5,5,0,0,1,10,0V67h14V16a5,5,0,0,1,10,0V72A5,5,0,0,1,336,77Z"/><path class="cls-1" d="M201,77H177a5,5,0,0,1-5-5V16a5,5,0,0,1,10,0V67h14V16a5,5,0,0,1,10,0V72A5,5,0,0,1,201,77Z"/><path class="cls-1" d="M416,100.25H367.75c-6.4,0-11.48-2-15.1-5.82-5.25-5.61-5.22-13-5.15-14.56V47.33a5,5,0,1,1,10,0V80c0,.11,0,.22,0,.33s-.18,4.49,2.5,7.31c1.65,1.73,4.26,2.61,7.76,2.61H416a5,5,0,0,1,0,10Z"/><path class="cls-1" d="M144.74,100.25H96.49a5,5,0,0,1,0-10h48.25c3.49,0,6.11-.88,7.76-2.61,2.68-2.82,2.5-7.31,2.5-7.35a2.81,2.81,0,0,1,0-.29V47.33a5,5,0,1,1,10,0V79.87c.07,1.52.1,8.95-5.15,14.56C156.22,98.29,151.14,100.25,144.74,100.25Z"/><path class="cls-1" d="M119,99a5,5,0,0,1-5-5V69.17a5,5,0,0,1,5-5h41a5,5,0,0,1,0,10H124V94A5,5,0,0,1,119,99Z"/><path class="cls-1" d="M273.24,37a5,5,0,0,1-5-5V30.85a5,5,0,0,1,10,0V32A5,5,0,0,1,273.24,37Z"/><path class="cls-1" d="M97,469a5,5,0,0,1,0-10l115-1h0a5,5,0,0,1,0,10L97,469Z"/><path class="cls-1" d="M302,469a5,5,0,0,1,0-10l115-1a5,5,0,1,1,.08,10l-115,1Z"/></g><g id="Outline"><path class="cls-1" d="M289,51a5,5,0,0,1-5-5V17a5,5,0,0,1,10,0V46A5,5,0,0,1,289,51Z"/><path class="cls-1" d="M261,154a37.49,37.49,0,0,1-6.54-.52,5,5,0,0,1,1.85-9.82c.23,0,12.32,2.11,20.25-4.5,4.95-4.13,7.46-11,7.46-20.53V47a5,5,0,0,1,10,0v71.6c0,12.64-3.75,22.16-11.13,28.27C275.72,152.79,266.89,154,261,154Z"/><path class="cls-1" d="M396,122.5a5,5,0,0,1-5-5V116a5,5,0,0,1,10,0v1.5A5,5,0,0,1,396,122.5Z"/><path class="cls-1" d="M396,429.94a5,5,0,0,1-5-5v-3.09a5,5,0,0,1,10,0v3.09A5,5,0,0,1,396,429.94Zm0-23.65a5,5,0,0,1-5-5V398.2a5,5,0,0,1,10,0v3.09A5,5,0,0,1,396,406.29Zm0-23.65a5,5,0,0,1-5-5v-3.09a5,5,0,1,1,10,0v3.09A5,5,0,0,1,396,382.64ZM396,359a5,5,0,0,1-5-5V350.9a5,5,0,0,1,10,0V354A5,5,0,0,1,396,359Zm0-23.65a5,5,0,0,1-5-5v-3.08a5,5,0,0,1,10,0v3.08A5,5,0,0,1,396,335.34Zm0-23.65a5,5,0,0,1-5-5v-3.08a5,5,0,0,1,10,0v3.08A5,5,0,0,1,396,311.69ZM396,288a5,5,0,0,1-5-5V280a5,5,0,0,1,10,0V283A5,5,0,0,1,396,288Zm0-23.65a5,5,0,0,1-5-5v-3.08a5,5,0,1,1,10,0v3.08A5,5,0,0,1,396,264.39Zm0-23.64a5,5,0,0,1-5-5v-3.09a5,5,0,1,1,10,0v3.09A5,5,0,0,1,396,240.75Zm0-23.65a5,5,0,0,1-5-5V209a5,5,0,0,1,10,0v3.09A5,5,0,0,1,396,217.1Zm0-23.65a5,5,0,0,1-5-5v-3.09a5,5,0,0,1,10,0v3.09A5,5,0,0,1,396,193.45Zm0-23.65a5,5,0,0,1-5-5v-3.09a5,5,0,0,1,10,0v3.09A5,5,0,0,1,396,169.8Zm0-23.65a5,5,0,0,1-5-5v-3.09a5,5,0,1,1,10,0v3.09A5,5,0,0,1,396,146.15Z"/><path class="cls-1" d="M396,452a5,5,0,0,1-5-5v-1.5a5,5,0,0,1,10,0V447A5,5,0,0,1,396,452Z"/><path class="cls-1" d="M116.49,122.5a5,5,0,0,1-5-5V116a5,5,0,0,1,10,0v1.5A5,5,0,0,1,116.49,122.5Z"/><path class="cls-1" d="M116.49,429.94a5,5,0,0,1-5-5v-3.09a5,5,0,0,1,10,0v3.09A5,5,0,0,1,116.49,429.94Zm0-23.65a5,5,0,0,1-5-5V398.2a5,5,0,1,1,10,0v3.09A5,5,0,0,1,116.49,406.29Zm0-23.65a5,5,0,0,1-5-5v-3.09a5,5,0,0,1,10,0v3.09A5,5,0,0,1,116.49,382.64Zm0-23.65a5,5,0,0,1-5-5V350.9a5,5,0,0,1,10,0V354A5,5,0,0,1,116.49,359Zm0-23.65a5,5,0,0,1-5-5v-3.08a5,5,0,0,1,10,0v3.08A5,5,0,0,1,116.49,335.34Zm0-23.65a5,5,0,0,1-5-5v-3.08a5,5,0,0,1,10,0v3.08A5,5,0,0,1,116.49,311.69Zm0-23.65a5,5,0,0,1-5-5V280a5,5,0,0,1,10,0V283A5,5,0,0,1,116.49,288Zm0-23.65a5,5,0,0,1-5-5v-3.08a5,5,0,0,1,10,0v3.08A5,5,0,0,1,116.49,264.39Zm0-23.64a5,5,0,0,1-5-5v-3.09a5,5,0,0,1,10,0v3.09A5,5,0,0,1,116.49,240.75Zm0-23.65a5,5,0,0,1-5-5V209a5,5,0,0,1,10,0v3.09A5,5,0,0,1,116.49,217.1Zm0-23.65a5,5,0,0,1-5-5v-3.09a5,5,0,0,1,10,0v3.09A5,5,0,0,1,116.49,193.45Zm0-23.65a5,5,0,0,1-5-5v-3.09a5,5,0,0,1,10,0v3.09A5,5,0,0,1,116.49,169.8Zm0-23.65a5,5,0,0,1-5-5v-3.09a5,5,0,0,1,10,0v3.09A5,5,0,0,1,116.49,146.15Z"/><path class="cls-1" d="M116.49,452a5,5,0,0,1-5-5v-1.5a5,5,0,0,1,10,0V447A5,5,0,0,1,116.49,452Z"/></g></svg>