<?xml version="1.0" ?><svg viewBox="0 0 512 512" xmlns="http://www.w3.org/2000/svg"><defs><style>.cls-1{fill:#3f456b;}</style></defs><title/><g id="Lines"><path class="cls-1" d="M119,500H75a15,15,0,0,1-15-15V465a5,5,0,0,1,10,0v20a5,5,0,0,0,5,5h44a5,5,0,0,0,5-5V465a5,5,0,0,1,10,0v20A15,15,0,0,1,119,500Z"/><path class="cls-1" d="M439,500H395a15,15,0,0,1-15-15V465a5,5,0,0,1,10,0v20a5,5,0,0,0,5,5h44a5,5,0,0,0,5-5V465a5,5,0,0,1,10,0v20A15,15,0,0,1,439,500Z"/><path class="cls-1" d="M455,437H58a15,15,0,0,1-15-15V297a15,15,0,0,1,15-15H455a15,15,0,0,1,15,15V422A15,15,0,0,1,455,437ZM58,292a5,5,0,0,0-5,5V422a5,5,0,0,0,5,5H455a5,5,0,0,0,5-5V297a5,5,0,0,0-5-5Z"/><path class="cls-1" d="M467,470H46a35,35,0,0,1-35-35V285a35,35,0,0,1,35-35H467a35,35,0,0,1,35,35V435A35,35,0,0,1,467,470ZM46,260a25,25,0,0,0-25,25V435a25,25,0,0,0,25,25H467a25,25,0,0,0,25-25V285a25,25,0,0,0-25-25Z"/><path class="cls-1" d="M464.8,213.5a5.15,5.15,0,0,1-1.48-.23H334.17a6.75,6.75,0,0,1-1.81.21,40.72,40.72,0,0,1-10.21-79.78c-.07-.82-.1-1.64-.1-2.46a31.86,31.86,0,0,1,51-25.45,55.23,55.23,0,0,1,103.81,26.26,56.71,56.71,0,0,1-.72,8.93,37.18,37.18,0,0,1-11.23,72.52Zm.05-10h0Zm-131.18-.23h130.8a5.13,5.13,0,0,1,1.41.19,26.94,26.94,0,0,0,25.9-27,27.27,27.27,0,0,0-22.4-26.87,5,5,0,0,1-3.95-6.17A45.23,45.23,0,0,0,379.36,116a5,5,0,0,1-8.54,1.4,21.86,21.86,0,0,0-38.77,13.84,21.39,21.39,0,0,0,.61,5.11,5,5,0,0,1-4,6.12,30.71,30.71,0,0,0,3.49,61A6.57,6.57,0,0,1,333.67,203.27Z"/><path class="cls-1" d="M300.27,164.89H300A69,69,0,1,1,373,96a70.1,70.1,0,0,1-1.06,12.12,5,5,0,0,1-9.85-1.74A60,60,0,0,0,363,96a59,59,0,1,0-62.44,58.9,5,5,0,0,1-.29,10Z"/><path class="cls-1" d="M444,154a5,5,0,0,1-3.54-8.54c4.74-4.73,11.8-7,21-6.83a56,56,0,0,1,11.79,1.53,5,5,0,0,1-2.53,9.68h0c-4.53-1.18-17.53-3-23.2,2.7A5,5,0,0,1,444,154Z"/><path class="cls-1" d="M366,145a5,5,0,0,1-2.35-.59c-13.14-7-36.71-1.62-36.95-1.56a5,5,0,0,1-2.28-9.74c1.11-.26,27.46-6.31,43.93,2.48A5,5,0,0,1,366,145Z"/></g><g id="Outline"><path class="cls-1" d="M146,404H97a5,5,0,0,1-5-5V320a5,5,0,0,1,5-5h49a5,5,0,0,1,5,5v79A5,5,0,0,1,146,404Zm-44-10h39V325H102Z"/><path class="cls-1" d="M337,404H288a5,5,0,0,1-5-5V320a5,5,0,0,1,5-5h49a5,5,0,0,1,5,5v79A5,5,0,0,1,337,404Zm-44-10h39V325H293Z"/><path class="cls-1" d="M417,404H368a5,5,0,0,1-5-5V320a5,5,0,0,1,5-5h49a5,5,0,0,1,5,5v79A5,5,0,0,1,417,404Zm-44-10h39V325H373Z"/><path class="cls-1" d="M225,404a5,5,0,0,1-5-5V325H176a5,5,0,0,1,0-10h49a5,5,0,0,1,5,5v79A5,5,0,0,1,225,404Z"/><path class="cls-1" d="M257,341a5,5,0,0,1-5-5v-1a5,5,0,0,1,10,0v1A5,5,0,0,1,257,341Z"/><path class="cls-1" d="M257,389a5,5,0,0,1-5-5v-1a5,5,0,0,1,10,0v1A5,5,0,0,1,257,389Z"/><path class="cls-1" d="M146.25,164.88a5,5,0,0,1-5-5V143a5,5,0,0,1,10,0v16.88A5,5,0,0,1,146.25,164.88Z"/><path class="cls-1" d="M226.5,228.25H209.62a5,5,0,0,1,0-10H226.5a5,5,0,0,1,0,10Z"/><path class="cls-1" d="M82.88,228.25H66a5,5,0,0,1,0-10H82.88a5,5,0,0,1,0,10Z"/><path class="cls-1" d="M114.57,173.37a5,5,0,0,1-4.34-2.5l-8.44-14.62a5,5,0,0,1,8.67-5l8.43,14.62a5,5,0,0,1-4.32,7.5Z"/><path class="cls-1" d="M201.14,196.56a5,5,0,0,1-2.51-9.33l14.62-8.44a5,5,0,0,1,5,8.67l-14.62,8.43A4.88,4.88,0,0,1,201.14,196.56Z"/><path class="cls-1" d="M91.36,196.56a4.88,4.88,0,0,1-2.49-.67l-14.62-8.43a5,5,0,0,1,5-8.67l14.62,8.44a5,5,0,0,1-2.51,9.33Z"/><path class="cls-1" d="M177.93,173.37a5,5,0,0,1-4.32-7.5L182,151.25a5,5,0,0,1,8.67,5l-8.44,14.62A5,5,0,0,1,177.93,173.37Z"/></g></svg>