<?xml version="1.0" ?><svg id="Lines" viewBox="0 0 512 512" xmlns="http://www.w3.org/2000/svg"><defs><style>.cls-1{fill:#3f456b;}</style></defs><title/><path class="cls-1" d="M356.36,317.72a5,5,0,0,1-4.47-2.77L295.14,201.46a5,5,0,1,1,8.94-4.47l56.75,113.49a5,5,0,0,1-2.24,6.71A4.94,4.94,0,0,1,356.36,317.72Z"/><path class="cls-1" d="M303.05,405H209.23a5,5,0,0,1,0-10h93.82a5,5,0,0,1,0,10Z"/><path class="cls-1" d="M155.29,318.41a5,5,0,0,1-4.47-7.24L208,196.91a5,5,0,1,1,8.94,4.47L159.77,315.64A5,5,0,0,1,155.29,318.41Z"/><path class="cls-1" d="M317.49,191.25a5,5,0,0,1-4.58-3,112.35,112.35,0,0,0-31.61-42.46,5,5,0,0,1,.75-8.22,48.88,48.88,0,1,0-58.62-77.05,48.79,48.79,0,0,0,9,75.93,5,5,0,0,1,.5,8.16,111.87,111.87,0,0,0-32.6,43.07,5,5,0,0,1-9.17-4,122.46,122.46,0,0,1,30.47-42.59,59,59,0,1,1,71.15,1.47,123,123,0,0,1,29.28,41.7,5,5,0,0,1-2.6,6.58A4.81,4.81,0,0,1,317.49,191.25Z"/><path class="cls-1" d="M256.13,214.48a102.09,102.09,0,0,1-.43-204.17h.45a102.09,102.09,0,0,1,.43,204.17Zm0-194.17h-.4a92.09,92.09,0,0,0,.38,184.17h.41a92.09,92.09,0,0,0-.39-184.17Z"/><path class="cls-1" d="M461.49,478.25a5,5,0,0,1-4.58-3,112.35,112.35,0,0,0-31.61-42.46,5,5,0,0,1,.75-8.22,48.88,48.88,0,1,0-58.62-77.05,48.79,48.79,0,0,0,9,75.93,5,5,0,0,1,.5,8.16,111.87,111.87,0,0,0-32.6,43.07,5,5,0,0,1-9.17-4,122.46,122.46,0,0,1,30.47-42.59,58.83,58.83,0,0,1,36.3-105h.26A58.81,58.81,0,0,1,436.8,429.55a123,123,0,0,1,29.28,41.7,5,5,0,0,1-2.6,6.58A4.81,4.81,0,0,1,461.49,478.25Z"/><path class="cls-1" d="M400.13,501.48a102.09,102.09,0,0,1-.43-204.17h.45a102.09,102.09,0,0,1,.43,204.17Zm0-194.17h-.4a92.28,92.28,0,1,0,.4,0Z"/><path class="cls-1" d="M173.49,479.25a5,5,0,0,1-4.58-3,112.35,112.35,0,0,0-31.61-42.46,5,5,0,0,1,.75-8.22,48.83,48.83,0,0,0-23.84-91.49H114a48.82,48.82,0,0,0-25.54,90.37,5,5,0,0,1,.5,8.16,111.87,111.87,0,0,0-32.6,43.07,5,5,0,0,1-9.17-4,122.46,122.46,0,0,1,30.47-42.59,58.83,58.83,0,0,1,36.3-105h.26A58.81,58.81,0,0,1,148.8,430.55a123,123,0,0,1,29.28,41.7,5,5,0,0,1-2.6,6.58A4.81,4.81,0,0,1,173.49,479.25Z"/><path class="cls-1" d="M112.13,502.48a102.09,102.09,0,0,1-.43-204.17h.45a102.09,102.09,0,0,1,.43,204.17Zm0-194.17h-.4a92.28,92.28,0,1,0,.4,0Z"/></svg>