<?xml version="1.0" ?><svg viewBox="0 0 512 512" xmlns="http://www.w3.org/2000/svg"><defs><style>.cls-1{fill:#3f456b;}</style></defs><title/><g id="Lines"><path class="cls-1" d="M463.69,501H48.31A37.36,37.36,0,0,1,11,463.69V48.31A37.36,37.36,0,0,1,48.31,11H463.69A37.36,37.36,0,0,1,501,48.31V463.69A37.36,37.36,0,0,1,463.69,501ZM48.31,21A27.34,27.34,0,0,0,21,48.31V463.69A27.34,27.34,0,0,0,48.31,491H463.69A27.34,27.34,0,0,0,491,463.69V48.31A27.34,27.34,0,0,0,463.69,21Z"/><path class="cls-1" d="M153,412H96a5,5,0,0,1,0-10h57a5,5,0,0,1,0,10Z"/><path class="cls-1" d="M153,383H96a5,5,0,0,1,0-10h57a5,5,0,0,1,0,10Z"/><path class="cls-1" d="M153,355H96a5,5,0,0,1,0-10h57a5,5,0,0,1,0,10Z"/><path class="cls-1" d="M153,327H96a5,5,0,0,1,0-10h57a5,5,0,0,1,0,10Z"/><path class="cls-1" d="M153,299H96a5,5,0,0,1,0-10h57a5,5,0,0,1,0,10Z"/><path class="cls-1" d="M153,271H96a5,5,0,0,1,0-10h57a5,5,0,0,1,0,10Z"/><path class="cls-1" d="M153,242H96a5,5,0,0,1,0-10h57a5,5,0,0,1,0,10Z"/><path class="cls-1" d="M153,214H96a5,5,0,0,1,0-10h57a5,5,0,0,1,0,10Z"/><path class="cls-1" d="M153,186H96a5,5,0,0,1,0-10h57a5,5,0,0,1,0,10Z"/><path class="cls-1" d="M153,158H96a5,5,0,0,1,0-10h57a5,5,0,0,1,0,10Z"/><path class="cls-1" d="M153,130H96a5,5,0,0,1,0-10h57a5,5,0,0,1,0,10Z"/><path class="cls-1" d="M153,101H96a5,5,0,0,1,0-10h57a5,5,0,0,1,0,10Z"/><path class="cls-1" d="M240,412H183a5,5,0,0,1,0-10h57a5,5,0,0,1,0,10Z"/><path class="cls-1" d="M240,383H183a5,5,0,0,1,0-10h57a5,5,0,0,1,0,10Z"/><path class="cls-1" d="M240,355H183a5,5,0,0,1,0-10h57a5,5,0,0,1,0,10Z"/><path class="cls-1" d="M240,327H183a5,5,0,0,1,0-10h57a5,5,0,0,1,0,10Z"/><path class="cls-1" d="M240,299H183a5,5,0,0,1,0-10h57a5,5,0,0,1,0,10Z"/><path class="cls-1" d="M240,271H183a5,5,0,0,1,0-10h57a5,5,0,0,1,0,10Z"/><path class="cls-1" d="M240,242H183a5,5,0,0,1,0-10h57a5,5,0,0,1,0,10Z"/><path class="cls-1" d="M240,214H183a5,5,0,0,1,0-10h57a5,5,0,0,1,0,10Z"/><path class="cls-1" d="M240,186H183a5,5,0,0,1,0-10h57a5,5,0,0,1,0,10Z"/><path class="cls-1" d="M240,158H183a5,5,0,0,1,0-10h57a5,5,0,0,1,0,10Z"/><path class="cls-1" d="M240,130H183a5,5,0,0,1,0-10h57a5,5,0,0,1,0,10Z"/><path class="cls-1" d="M240,101H183a5,5,0,0,1,0-10h57a5,5,0,0,1,0,10Z"/><path class="cls-1" d="M328,412H272a5,5,0,0,1,0-10h56a5,5,0,0,1,0,10Z"/><path class="cls-1" d="M328,383H272a5,5,0,0,1,0-10h56a5,5,0,0,1,0,10Z"/><path class="cls-1" d="M328,355H272a5,5,0,0,1,0-10h56a5,5,0,0,1,0,10Z"/><path class="cls-1" d="M328,327H272a5,5,0,0,1,0-10h56a5,5,0,0,1,0,10Z"/><path class="cls-1" d="M328,299H272a5,5,0,0,1,0-10h56a5,5,0,0,1,0,10Z"/><path class="cls-1" d="M328,271H272a5,5,0,0,1,0-10h56a5,5,0,0,1,0,10Z"/><path class="cls-1" d="M328,242H272a5,5,0,0,1,0-10h56a5,5,0,0,1,0,10Z"/><path class="cls-1" d="M328,214H272a5,5,0,0,1,0-10h56a5,5,0,0,1,0,10Z"/><path class="cls-1" d="M328,186H272a5,5,0,0,1,0-10h56a5,5,0,0,1,0,10Z"/><path class="cls-1" d="M328,158H272a5,5,0,0,1,0-10h56a5,5,0,0,1,0,10Z"/><path class="cls-1" d="M328,130H272a5,5,0,0,1,0-10h56a5,5,0,0,1,0,10Z"/><path class="cls-1" d="M328,101H272a5,5,0,0,1,0-10h56a5,5,0,0,1,0,10Z"/><path class="cls-1" d="M416,412H358a5,5,0,0,1,0-10h58a5,5,0,0,1,0,10Z"/><path class="cls-1" d="M416,383H358a5,5,0,0,1,0-10h58a5,5,0,0,1,0,10Z"/><path class="cls-1" d="M416,355H358a5,5,0,0,1,0-10h58a5,5,0,0,1,0,10Z"/><path class="cls-1" d="M416,327H358a5,5,0,0,1,0-10h58a5,5,0,0,1,0,10Z"/><path class="cls-1" d="M416,299H358a5,5,0,0,1,0-10h58a5,5,0,0,1,0,10Z"/><path class="cls-1" d="M416,271H358a5,5,0,0,1,0-10h58a5,5,0,0,1,0,10Z"/><path class="cls-1" d="M416,242H358a5,5,0,0,1,0-10h58a5,5,0,0,1,0,10Z"/><path class="cls-1" d="M416,214H358a5,5,0,0,1,0-10h58a5,5,0,0,1,0,10Z"/><path class="cls-1" d="M416,186H358a5,5,0,0,1,0-10h58a5,5,0,0,1,0,10Z"/><path class="cls-1" d="M416,158H358a5,5,0,0,1,0-10h58a5,5,0,0,1,0,10Z"/><path class="cls-1" d="M416,130H358a5,5,0,0,1,0-10h58a5,5,0,0,1,0,10Z"/><path class="cls-1" d="M416,101H358a5,5,0,0,1,0-10h58a5,5,0,0,1,0,10Z"/></g><g id="Outline"><path class="cls-1" d="M411,47a5,5,0,0,1,5-5h0a5,5,0,0,1,5,5h0a5,5,0,0,1-5,5h0A5,5,0,0,1,411,47Zm-20,0a5,5,0,0,1,5-5h0a5,5,0,0,1,5,5h0a5,5,0,0,1-5,5h0A5,5,0,0,1,391,47Zm-20,0a5,5,0,0,1,5-5h0a5,5,0,0,1,5,5h0a5,5,0,0,1-5,5h0A5,5,0,0,1,371,47Zm-20,0a5,5,0,0,1,5-5h0a5,5,0,0,1,5,5h0a5,5,0,0,1-5,5h0A5,5,0,0,1,351,47Zm-20,0a5,5,0,0,1,5-5h0a5,5,0,0,1,5,5h0a5,5,0,0,1-5,5h0A5,5,0,0,1,331,47Zm-20,0a5,5,0,0,1,5-5h0a5,5,0,0,1,5,5h0a5,5,0,0,1-5,5h0A5,5,0,0,1,311,47Zm-20,0a5,5,0,0,1,5-5h0a5,5,0,0,1,5,5h0a5,5,0,0,1-5,5h0A5,5,0,0,1,291,47Zm-20,0a5,5,0,0,1,5-5h0a5,5,0,0,1,5,5h0a5,5,0,0,1-5,5h0A5,5,0,0,1,271,47Zm-20,0a5,5,0,0,1,5-5h0a5,5,0,0,1,5,5h0a5,5,0,0,1-5,5h0A5,5,0,0,1,251,47Zm-20,0a5,5,0,0,1,5-5h0a5,5,0,0,1,5,5h0a5,5,0,0,1-5,5h0A5,5,0,0,1,231,47Zm-20,0a5,5,0,0,1,5-5h0a5,5,0,0,1,5,5h0a5,5,0,0,1-5,5h0A5,5,0,0,1,211,47Zm-20,0a5,5,0,0,1,5-5h0a5,5,0,0,1,5,5h0a5,5,0,0,1-5,5h0A5,5,0,0,1,191,47Zm-20,0a5,5,0,0,1,5-5h0a5,5,0,0,1,5,5h0a5,5,0,0,1-5,5h0A5,5,0,0,1,171,47Zm-20,0a5,5,0,0,1,5-5h0a5,5,0,0,1,5,5h0a5,5,0,0,1-5,5h0A5,5,0,0,1,151,47Zm-20,0a5,5,0,0,1,5-5h0a5,5,0,0,1,5,5h0a5,5,0,0,1-5,5h0A5,5,0,0,1,131,47Zm-20,0a5,5,0,0,1,5-5h0a5,5,0,0,1,5,5h0a5,5,0,0,1-5,5h0A5,5,0,0,1,111,47ZM91,47a5,5,0,0,1,5-5h0a5,5,0,0,1,5,5h0a5,5,0,0,1-5,5h0A5,5,0,0,1,91,47Z"/><path class="cls-1" d="M411,465a5,5,0,0,1,5-5h0a5,5,0,0,1,5,5h0a5,5,0,0,1-5,5h0A5,5,0,0,1,411,465Zm-20,0a5,5,0,0,1,5-5h0a5,5,0,0,1,5,5h0a5,5,0,0,1-5,5h0A5,5,0,0,1,391,465Zm-20,0a5,5,0,0,1,5-5h0a5,5,0,0,1,5,5h0a5,5,0,0,1-5,5h0A5,5,0,0,1,371,465Zm-20,0a5,5,0,0,1,5-5h0a5,5,0,0,1,5,5h0a5,5,0,0,1-5,5h0A5,5,0,0,1,351,465Zm-20,0a5,5,0,0,1,5-5h0a5,5,0,0,1,5,5h0a5,5,0,0,1-5,5h0A5,5,0,0,1,331,465Zm-20,0a5,5,0,0,1,5-5h0a5,5,0,0,1,5,5h0a5,5,0,0,1-5,5h0A5,5,0,0,1,311,465Zm-20,0a5,5,0,0,1,5-5h0a5,5,0,0,1,5,5h0a5,5,0,0,1-5,5h0A5,5,0,0,1,291,465Zm-20,0a5,5,0,0,1,5-5h0a5,5,0,0,1,5,5h0a5,5,0,0,1-5,5h0A5,5,0,0,1,271,465Zm-20,0a5,5,0,0,1,5-5h0a5,5,0,0,1,5,5h0a5,5,0,0,1-5,5h0A5,5,0,0,1,251,465Zm-20,0a5,5,0,0,1,5-5h0a5,5,0,0,1,5,5h0a5,5,0,0,1-5,5h0A5,5,0,0,1,231,465Zm-20,0a5,5,0,0,1,5-5h0a5,5,0,0,1,5,5h0a5,5,0,0,1-5,5h0A5,5,0,0,1,211,465Zm-20,0a5,5,0,0,1,5-5h0a5,5,0,0,1,5,5h0a5,5,0,0,1-5,5h0A5,5,0,0,1,191,465Zm-20,0a5,5,0,0,1,5-5h0a5,5,0,0,1,5,5h0a5,5,0,0,1-5,5h0A5,5,0,0,1,171,465Zm-20,0a5,5,0,0,1,5-5h0a5,5,0,0,1,5,5h0a5,5,0,0,1-5,5h0A5,5,0,0,1,151,465Zm-20,0a5,5,0,0,1,5-5h0a5,5,0,0,1,5,5h0a5,5,0,0,1-5,5h0A5,5,0,0,1,131,465Zm-20,0a5,5,0,0,1,5-5h0a5,5,0,0,1,5,5h0a5,5,0,0,1-5,5h0A5,5,0,0,1,111,465Zm-20,0a5,5,0,0,1,5-5h0a5,5,0,0,1,5,5h0a5,5,0,0,1-5,5h0A5,5,0,0,1,91,465Z"/><path class="cls-1" d="M460,416a5,5,0,0,1,5-5h0a5,5,0,0,1,5,5h0a5,5,0,0,1-5,5h0A5,5,0,0,1,460,416Zm0-20a5,5,0,0,1,5-5h0a5,5,0,0,1,5,5h0a5,5,0,0,1-5,5h0A5,5,0,0,1,460,396Zm0-20a5,5,0,0,1,5-5h0a5,5,0,0,1,5,5h0a5,5,0,0,1-5,5h0A5,5,0,0,1,460,376Zm0-20a5,5,0,0,1,5-5h0a5,5,0,0,1,5,5h0a5,5,0,0,1-5,5h0A5,5,0,0,1,460,356Zm0-20a5,5,0,0,1,5-5h0a5,5,0,0,1,5,5h0a5,5,0,0,1-5,5h0A5,5,0,0,1,460,336Zm0-20a5,5,0,0,1,5-5h0a5,5,0,0,1,5,5h0a5,5,0,0,1-5,5h0A5,5,0,0,1,460,316Zm0-20a5,5,0,0,1,5-5h0a5,5,0,0,1,5,5h0a5,5,0,0,1-5,5h0A5,5,0,0,1,460,296Zm0-20a5,5,0,0,1,5-5h0a5,5,0,0,1,5,5h0a5,5,0,0,1-5,5h0A5,5,0,0,1,460,276Zm0-20a5,5,0,0,1,5-5h0a5,5,0,0,1,5,5h0a5,5,0,0,1-5,5h0A5,5,0,0,1,460,256Zm0-20a5,5,0,0,1,5-5h0a5,5,0,0,1,5,5h0a5,5,0,0,1-5,5h0A5,5,0,0,1,460,236Zm0-20a5,5,0,0,1,5-5h0a5,5,0,0,1,5,5h0a5,5,0,0,1-5,5h0A5,5,0,0,1,460,216Zm0-20a5,5,0,0,1,5-5h0a5,5,0,0,1,5,5h0a5,5,0,0,1-5,5h0A5,5,0,0,1,460,196Zm0-20a5,5,0,0,1,5-5h0a5,5,0,0,1,5,5h0a5,5,0,0,1-5,5h0A5,5,0,0,1,460,176Zm0-20a5,5,0,0,1,5-5h0a5,5,0,0,1,5,5h0a5,5,0,0,1-5,5h0A5,5,0,0,1,460,156Zm0-20a5,5,0,0,1,5-5h0a5,5,0,0,1,5,5h0a5,5,0,0,1-5,5h0A5,5,0,0,1,460,136Zm0-20a5,5,0,0,1,5-5h0a5,5,0,0,1,5,5h0a5,5,0,0,1-5,5h0A5,5,0,0,1,460,116Zm0-20a5,5,0,0,1,5-5h0a5,5,0,0,1,5,5h0a5,5,0,0,1-5,5h0A5,5,0,0,1,460,96Z"/><path class="cls-1" d="M42,416a5,5,0,0,1,5-5h0a5,5,0,0,1,5,5h0a5,5,0,0,1-5,5h0A5,5,0,0,1,42,416Zm0-20a5,5,0,0,1,5-5h0a5,5,0,0,1,5,5h0a5,5,0,0,1-5,5h0A5,5,0,0,1,42,396Zm0-20a5,5,0,0,1,5-5h0a5,5,0,0,1,5,5h0a5,5,0,0,1-5,5h0A5,5,0,0,1,42,376Zm0-20a5,5,0,0,1,5-5h0a5,5,0,0,1,5,5h0a5,5,0,0,1-5,5h0A5,5,0,0,1,42,356Zm0-20a5,5,0,0,1,5-5h0a5,5,0,0,1,5,5h0a5,5,0,0,1-5,5h0A5,5,0,0,1,42,336Zm0-20a5,5,0,0,1,5-5h0a5,5,0,0,1,5,5h0a5,5,0,0,1-5,5h0A5,5,0,0,1,42,316Zm0-20a5,5,0,0,1,5-5h0a5,5,0,0,1,5,5h0a5,5,0,0,1-5,5h0A5,5,0,0,1,42,296Zm0-20a5,5,0,0,1,5-5h0a5,5,0,0,1,5,5h0a5,5,0,0,1-5,5h0A5,5,0,0,1,42,276Zm0-20a5,5,0,0,1,5-5h0a5,5,0,0,1,5,5h0a5,5,0,0,1-5,5h0A5,5,0,0,1,42,256Zm0-20a5,5,0,0,1,5-5h0a5,5,0,0,1,5,5h0a5,5,0,0,1-5,5h0A5,5,0,0,1,42,236Zm0-20a5,5,0,0,1,5-5h0a5,5,0,0,1,5,5h0a5,5,0,0,1-5,5h0A5,5,0,0,1,42,216Zm0-20a5,5,0,0,1,5-5h0a5,5,0,0,1,5,5h0a5,5,0,0,1-5,5h0A5,5,0,0,1,42,196Zm0-20a5,5,0,0,1,5-5h0a5,5,0,0,1,5,5h0a5,5,0,0,1-5,5h0A5,5,0,0,1,42,176Zm0-20a5,5,0,0,1,5-5h0a5,5,0,0,1,5,5h0a5,5,0,0,1-5,5h0A5,5,0,0,1,42,156Zm0-20a5,5,0,0,1,5-5h0a5,5,0,0,1,5,5h0a5,5,0,0,1-5,5h0A5,5,0,0,1,42,136Zm0-20a5,5,0,0,1,5-5h0a5,5,0,0,1,5,5h0a5,5,0,0,1-5,5h0A5,5,0,0,1,42,116Zm0-20a5,5,0,0,1,5-5h0a5,5,0,0,1,5,5h0a5,5,0,0,1-5,5h0A5,5,0,0,1,42,96Z"/></g></svg>