<?xml version="1.0" ?><svg viewBox="0 0 512 512" xmlns="http://www.w3.org/2000/svg"><defs><style>.cls-1{fill:#3f456b;}</style></defs><title/><g id="Lines"><path class="cls-1" d="M330.28,229.38a5,5,0,0,1-5-4.53c-.05-.51-1.09-12.56,6.61-21,4.73-5.2,11.49-7.83,20.1-7.83,8.92,0,15.86,2.65,20.63,7.88,7.24,7.94,6.33,18.79,6.29,19.24a5,5,0,1,1-10-.91s.5-7-3.77-11.65c-2.8-3-7.24-4.56-13.19-4.56-5.67,0-9.95,1.53-12.7,4.56-4.69,5.15-4.07,13.27-4.06,13.36a5,5,0,0,1-4.51,5.44A3.7,3.7,0,0,1,330.28,229.38Z"/><path class="cls-1" d="M80.17,500.92a16.71,16.71,0,0,1-12.58-5.14C61.76,489.54,62,480,62.06,478.23v-66c0-9.23,6.39-12.94,9.9-13.66C88.33,394.7,99.8,387.32,106,376.64c9.12-15.61,4.19-33.16,4.14-33.33a5,5,0,1,1,9.61-2.79c.25.89,6.15,21.89-5.12,41.16-7.69,13.17-21.32,22.13-40.51,26.63-.17,0-.08,0-.16.05-.77.24-1.94,1.07-1.94,3.86v66.16c0,.12,0,.23,0,.34-.11,1.87.18,7.41,2.87,10.26.78.83,2.18,1.94,5.25,1.94,4.88,0,10.48-1.43,10.48-12.54V426.46a5,5,0,0,1,5.7-4.95c.14,0,14.28,1.88,27-4a5,5,0,0,1,4.18,9.08c-10.1,4.65-20.6,5.31-26.88,5.18v46.58C100.65,492.49,93,500.92,80.17,500.92Zm-6.25-92.56Zm-.9-4.91h0Z"/><path class="cls-1" d="M346.72,501.83a19.17,19.17,0,0,1-12.22-4c-6.43-5.09-7.88-13.08-8.16-15.25-.84-3.18-6.63-25.13-7.92-32.42a.5.5,0,0,0,0-.12c-.09-.65-2.38-15.92-2.07-25.09.3-8.62.17-66.29.17-66.87a5,5,0,0,1,5-5h0a5,5,0,0,1,5,5c0,2.38.13,58.43-.17,67.24-.28,8,1.8,22.16,1.95,23.19,1.31,7.35,7.76,31.62,7.82,31.87a5.64,5.64,0,0,1,.15.82s.66,5.84,4.49,8.83c2.1,1.64,4.86,2.18,8.43,1.67,4.68-.66,7.75-2.32,9.14-4.93,2.54-4.76-.12-12.55-1.26-14.9a4.8,4.8,0,0,1-.39-1.16c-2.46-11.92-6.32-27.6-6.36-27.76a4.73,4.73,0,0,1-.14-1c0-.35-.35-8.66,0-18.65.34-9.72.48-65.16.48-65.72a5,5,0,0,1,5-5h0a5,5,0,0,1,5,5c0,2.29-.14,56.15-.49,66-.28,8.27-.08,15.5,0,17.4.68,2.76,4,16.27,6.21,27.06,1.3,2.94,5.68,14.2.79,23.36-3,5.58-8.54,9-16.55,10.12A27.36,27.36,0,0,1,346.72,501.83Z"/><path class="cls-1" d="M161.13,501.39c-10.93,0-17.81-9.82-20.1-15.72a1.72,1.72,0,0,1-.07-.21c-.74-2.17-18-53.26-20.35-62.07-2.59-9.53,4.39-17.44,9-20.69,8.31-6.44,12.38-13.36,12.09-20.57-.55-13.46-16-26.4-22-30.24l-.14-.09c-17.2-12-27.2-26.21-29.72-42.26-2.42-15.38,3-29.07,8.35-36.12,1.06-1.39,1.46-2.52,1.2-3.37-.65-2.1-4.73-4.47-7.43-5.37a5.33,5.33,0,0,1-1.13-.54c-35-22.52-37.1-42.95-32.73-56.13,2-6.13,5.25-10,9.55-11.4a12.37,12.37,0,0,1,10.45,1.51l26,18.3c21.64,15.57,39.43,17.6,41.17,17.76H279.73c18.22,0,28.38-8.38,30.18-24.92a5,5,0,1,1,9.94,1.09c-2.34,21.5-17,33.83-40.12,33.83h-135c-.86-.06-21.49-1.67-46.41-19.61L72.53,206.4a2.34,2.34,0,0,0-1.7-.3c-.83.3-2.11,1.79-3.2,5.07-5.84,17.6,12,33.72,28.16,44.25,2.6,1,11,4.54,13.18,11.65.89,2.83,1.12,7.28-2.78,12.41C102,285,97.83,295.72,99.76,308c2.08,13.24,10.66,25.2,25.5,35.56,1.83,1.2,25.6,17.22,26.45,38.17.43,10.66-5,20.41-16.07,29l-.21.16c-.05,0-6.58,4.72-5.17,9.92,2.26,8.31,19.12,58.36,20.13,61.36.43,1.06,4.81,11,13.15,8.94,3.94-1,6.47-2.59,7.52-4.77,1.47-3-.11-6.9-.13-6.94s-.09-.21-.13-.32l-19.07-50.82a5,5,0,0,1,3.07-6.49,63.75,63.75,0,0,0,16.86-9.67c10.85-8.67,16.71-19.34,17.42-31.72,1-18.42-3.35-28.28-3.39-28.38a5,5,0,0,1,7.4-6.2c.14.09,19.43,12.41,79.85,9.54a5,5,0,0,1,5.23,5,165.83,165.83,0,0,1-7.37,44.63,5.06,5.06,0,0,1-.53,1.16,36,36,0,0,0-4,17.09v55.2c0,.12,0,.23,0,.34-.11,1.87.18,7.41,2.87,10.26.78.83,2.18,1.94,5.25,1.94,4.88,0,10.48-1.43,10.48-12.54v-46c-.11-1.72-.26-9.33,5.28-13.48l.93-.66c15.25-10.77,23-31.19,23-60.72a5,5,0,0,1,6-4.91c21.71,4.33,41.84.52,55.23-10.46,13-10.68,19.63-27.52,19.63-50a317,317,0,0,0-10.12-78.3,5,5,0,0,1,9.67-2.54,327.35,327.35,0,0,1,10.45,80.84c0,25.3-8.05,45.28-23.29,57.77-14.45,11.86-35.21,16.67-57.65,13.54-1,29.84-10.15,51-27.12,63-.28.19-.51.35-.69.49-1.14.86-1.39,3.81-1.3,4.85a3.31,3.31,0,0,1,0,.44v46.15c0,14.11-7.66,22.54-20.48,22.54a16.71,16.71,0,0,1-12.58-5.14c-5.83-6.24-5.63-15.76-5.53-17.55V423.18a46.5,46.5,0,0,1,5.15-21.73A162.77,162.77,0,0,0,268,365.52c-37.11,1.26-58.75-3.18-70.1-6.93a93.49,93.49,0,0,1,1.21,22.32c-1.67,29.2-25.77,43.47-36.27,48.32l17.32,46.17c.62,1.43,3.26,8.39,0,15.24-2.4,5-7.14,8.38-14.1,10.13A20,20,0,0,1,161.13,501.39Z"/><path class="cls-1" d="M352,235c-34.32,0-47.91-33.28-49-36.08-7.38-16.93-8.95-30.48-9.18-37.57-7.05-.48-19.47-2.56-27.61-11-5.91-6.13-8.46-14.3-7.57-24.3a5,5,0,0,1,5-4.56H303c4.41-5.62,17.69-17.67,50.28-17.67,17.12,0,30.87,3.23,40.86,9.62a34,34,0,0,1,9,8H440a5,5,0,0,1,4.9,4c2.06,10,.39,18.21-5,24.47-7.54,8.79-20.42,10.92-27.69,11.39-.19,7.16-1.81,20.79-9.8,38.35C401.48,201.82,386.52,235,352,235Zm-53.11-83.55a5,5,0,0,1,5,5.5c0,.14-1.36,15.87,8.35,38.07l.1.25C312.78,196.48,323.94,225,352,225c28.37,0,41.11-29,41.23-29.29l0-.11c10.49-23,8.84-38.39,8.83-38.54a5,5,0,0,1,5.21-5.6c4.86.23,18.79-.77,25-8,2.62-3.05,3.72-7,3.35-11.93H400.37a5,5,0,0,1-4.53-2.9c0-.06-8-14.77-42.6-14.77-34.87,0-43.09,14.73-43.16,14.88a5,5,0,0,1-4.49,2.79H268.52a18,18,0,0,0,4.88,11.89c8.44,8.78,25.07,8.08,25.24,8.07Z"/><path class="cls-1" d="M451.38,87.73A74,74,0,0,1,436.3,86a5,5,0,0,1,2.05-9.79c13.75,2.89,23.82,1.65,29.92-3.7C475.65,66,475,55.09,475,55a5,5,0,0,1,10-.76c.05.65,1.07,16-10.15,25.82C469,85.16,461.16,87.73,451.38,87.73Z"/><path class="cls-1" d="M387.38,116.74c-3.95,0-8.09-.19-12.45-.58a5,5,0,0,1,.89-10c24.93,2.22,41.88-2.29,50.36-13.4,12.55-16.41,3-42.79,2.89-43.06a5,5,0,0,1,9.37-3.49c.48,1.29,11.6,31.74-4.28,52.58C425.09,110.74,409.38,116.74,387.38,116.74Z"/><path class="cls-1" d="M375.37,116.19a5,5,0,0,1-1.37-9.81c6-1.72,10.08-4.73,12.49-9.21,4.86-9,1.14-21.12,1.1-21.24a5,5,0,0,1,9.52-3.06c.21.65,5.08,16.13-1.78,29-3.69,6.92-9.94,11.68-18.58,14.15A5.06,5.06,0,0,1,375.37,116.19Z"/><path class="cls-1" d="M253.16,87.73c-9.77,0-17.64-2.57-23.48-7.69-11.22-9.84-10.19-25.17-10.14-25.82a5,5,0,0,1,10,.74c0,.22-.61,11.16,6.83,17.61,6.1,5.3,16.15,6.53,29.85,3.65A5,5,0,0,1,268.25,86,74.13,74.13,0,0,1,253.16,87.73Z"/><path class="cls-1" d="M317.16,116.74c-22,0-37.71-6-46.78-17.91C254.51,78,265.62,47.54,266.1,46.25a5,5,0,0,1,9.37,3.5c-.1.26-9.65,26.64,2.89,43.05,8.49,11.11,25.43,15.62,50.36,13.4a5,5,0,1,1,.89,10Q323.08,116.75,317.16,116.74Z"/><path class="cls-1" d="M329.17,116.19a5.06,5.06,0,0,1-1.38-.2c-8.63-2.47-14.88-7.23-18.58-14.15-6.85-12.84-2-28.32-1.78-29A5,5,0,0,1,317,75.93h0c0,.12-3.77,12.19,1.1,21.24,2.4,4.48,6.49,7.49,12.48,9.21a5,5,0,0,1-1.37,9.81Z"/><path class="cls-1" d="M190.7,356a5,5,0,0,1-4.77-3.51c0-.11-3.24-10.3-7.64-17.34a5,5,0,1,1,8.48-5.3c5.09,8.15,8.56,19.19,8.71,19.66a5,5,0,0,1-3.29,6.26A5.09,5.09,0,0,1,190.7,356Z"/><path class="cls-1" d="M387,173.14a4.94,4.94,0,0,1-1.79-.34,5,5,0,0,1-2.87-6.46l.32-.83a5,5,0,1,1,9.33,3.58l-.32.84A5,5,0,0,1,387,173.14Z"/><path class="cls-1" d="M316.64,173.15a5,5,0,0,1-4.84-3.75l-.22-.87a5,5,0,0,1,9.69-2.49l.22.86a5,5,0,0,1-3.6,6.09A4.87,4.87,0,0,1,316.64,173.15Z"/><path class="cls-1" d="M72.25,116.6l-.53,0C39.39,113.16,15,90.13,15,63,15,33.22,44.16,9,80,9c31.63,0,58.55,18.74,64,44.57a5,5,0,0,1-9.78,2.07C129.74,34.41,106.93,19,80,19,49.67,19,25,38.74,25,63c0,22,20.54,40.75,47.77,43.62a5,5,0,0,1-.52,10Z"/><path class="cls-1" d="M142,174a85,85,0,0,1-43.9-11.78,5,5,0,0,1,5.15-8.57A75.09,75.09,0,0,0,142,164c35.73,0,64.8-23.33,64.8-52S177.73,60,142,60,77.2,83.33,77.2,112a42.23,42.23,0,0,0,1.39,10.73,5,5,0,1,1-9.67,2.54A52.18,52.18,0,0,1,67.2,112c0-34.19,33.56-62,74.8-62s74.8,27.81,74.8,62S183.24,174,142,174Z"/><path class="cls-1" d="M63.94,189c-23,0-41.74-15.7-41.74-35s18.73-35,41.74-35,41.73,15.7,41.73,35S87,189,63.94,189Zm0-60c-17.5,0-31.74,11.21-31.74,25s14.24,25,31.74,25,31.73-11.21,31.73-25S81.44,129,63.94,129Z"/><path class="cls-1" d="M448.94,479c-23,0-41.74-15.7-41.74-35s18.73-35,41.74-35,41.73,15.7,41.73,35S472,479,448.94,479Zm0-60c-17.5,0-31.74,11.21-31.74,25s14.24,25,31.74,25,31.73-11.21,31.73-25S466.44,419,448.94,419Z"/><path class="cls-1" d="M298.79,164.84a5,5,0,0,1-5-4.84,82.34,82.34,0,0,1,1.28-14.9,5,5,0,1,1,9.84,1.8,73.51,73.51,0,0,0-1.13,12.77,5,5,0,0,1-4.83,5.16Z"/><path class="cls-1" d="M407,164.84h-.16a5,5,0,0,1-4.84-5.16,72.88,72.88,0,0,0-1.12-12.77,5,5,0,1,1,9.84-1.8A82.34,82.34,0,0,1,412,160,5,5,0,0,1,407,164.84Z"/></g><g id="Outline"><path class="cls-1" d="M272,271.19H254.66a5,5,0,0,1,0-10H272a5,5,0,0,1,0,10Z"/><path class="cls-1" d="M230.62,271.19H213.31a5,5,0,0,1,0-10h17.31a5,5,0,0,1,0,10Z"/><path class="cls-1" d="M189.26,271.19H172a5,5,0,0,1,0-10h17.31a5,5,0,0,1,0,10Z"/><path class="cls-1" d="M250.81,291.46H233.5a5,5,0,0,1,0-10h17.31a5,5,0,0,1,0,10Z"/><path class="cls-1" d="M209.46,291.46H192.15a5,5,0,0,1,0-10h17.31a5,5,0,0,1,0,10Z"/><path class="cls-1" d="M272,315.42H254.66a5,5,0,0,1,0-10H272a5,5,0,0,1,0,10Z"/></g></svg>