<?xml version="1.0" ?><svg viewBox="0 0 512 512" xmlns="http://www.w3.org/2000/svg"><defs><style>.cls-1{fill:#3f456b;}</style></defs><title/><g id="Lines"><path class="cls-1" d="M35,256a5,5,0,0,1-3.88-1.85l-19-23.37a5,5,0,0,1,.56-6.9l240-212.62a5,5,0,0,1,6.64,0l240,212.62a5,5,0,0,1,.33,7.17l-21,22.37a5,5,0,1,1-7.3-6.84L488.83,228,256,21.68,22.9,228.19l16,19.66A5,5,0,0,1,35,256Z"/><path class="cls-1" d="M475.26,255a5,5,0,0,1-3.32-1.26L256,62.43,40.06,253.74a5,5,0,1,1-6.63-7.48L252.68,52a5,5,0,0,1,6.64,0L478.57,246.26a5,5,0,0,1-3.31,8.74Z"/><path class="cls-1" d="M464,323a5,5,0,0,1-5-5V240a5,5,0,0,1,10,0v78A5,5,0,0,1,464,323Z"/><path class="cls-1" d="M464,500H49a5,5,0,0,1-5-5V239a5,5,0,0,1,10,0V490H464a5,5,0,0,1,0,10Z"/><path class="cls-1" d="M79,500a5,5,0,0,1-5-5V216a5,5,0,0,1,10,0V495A5,5,0,0,1,79,500Z"/><path class="cls-1" d="M433,332a5,5,0,0,1-5-5V216a5,5,0,0,1,10,0V327A5,5,0,0,1,433,332Z"/><path class="cls-1" d="M327,123.71H185a5,5,0,0,1,0-10H327a5,5,0,0,1,0,10Z"/><path class="cls-1" d="M397,186.43H321a5,5,0,0,1,0-10h76a5,5,0,0,1,0,10Z"/><path class="cls-1" d="M190.25,186.43H115a5,5,0,0,1,0-10h75.25a5,5,0,0,1,0,10Z"/><path class="cls-1" d="M430,249.14H80a5,5,0,0,1,0-10H430a5,5,0,0,1,0,10Z"/><path class="cls-1" d="M430,311.86H307a5,5,0,0,1,0-10H430a5,5,0,0,1,0,10Z"/><path class="cls-1" d="M206.46,311.86H80a5,5,0,0,1,0-10H206.46a5,5,0,1,1,0,10Z"/><path class="cls-1" d="M180.75,374.57H80a5,5,0,0,1,0-10H180.75a5,5,0,0,1,0,10Z"/><path class="cls-1" d="M257,500a5,5,0,0,1-4.66-6.81l28.57-73.47a5,5,0,0,1,4.66-3.19h0l184.29.33a5,5,0,0,1,4.64,3.15l29.15,73.14A5,5,0,0,1,499,500H465.18a5,5,0,0,1,0-10h26.44l-25.17-63.14L289,426.52l-27.33,70.29A5,5,0,0,1,257,500Z"/><path class="cls-1" d="M180,437.29H80a5,5,0,1,1,0-10H180a5,5,0,0,1,0,10Z"/><path class="cls-1" d="M181.48,500a5,5,0,0,1-5-5V362.52a79.52,79.52,0,0,1,159-1.42,5,5,0,0,1-4.91,5.09h-.09a5,5,0,0,1-5-4.92,69.52,69.52,0,0,0-139,1.25V495A5,5,0,0,1,181.48,500Z"/><path class="cls-1" d="M321,217H192a5,5,0,0,1-5-5V150a5,5,0,0,1,5-5H321a5,5,0,0,1,5,5v62A5,5,0,0,1,321,217ZM197,207H316V155H197Z"/><path class="cls-1" d="M375,426a5,5,0,0,1-1.32-9.82l67.67-18.54a5,5,0,0,1,5.77,2.55,26.27,26.27,0,0,0,48.7-19,26.27,26.27,0,0,0-32.31-18.31,5,5,0,1,1-2.67-9.64,36.27,36.27,0,1,1-20.55,55l-64,17.52A5.05,5.05,0,0,1,375,426Z"/><path class="cls-1" d="M291.44,425.92a5.08,5.08,0,0,1-2.61-.73c-9.35-5.73-17.37-15.86-20-25.22-5.08-18.34,5.37-37.05,24.83-44.48,10.9-4.16,22.09-4,31.51.52a37,37,0,0,1,17.71,18.57l73.6-18a39.72,39.72,0,0,1,31.42-42.11,46.84,46.84,0,0,1,27.78,2.37c9.28,4,15.79,11.25,18.33,20.44a36.18,36.18,0,0,1-2.36,25.59,5,5,0,0,1-9-4.39A26.22,26.22,0,0,0,484.42,340c-3.92-14.17-20.3-18.62-34.45-15.69-13.53,2.8-26.2,16.13-23,35.32a5,5,0,0,1-3.75,5.67l-82.15,20a5,5,0,0,1-5.94-3.3c-2.61-8-7.51-13.83-14.18-17-6.93-3.31-15.33-3.38-23.64-.21-14.54,5.55-22.43,19.21-18.76,32.47,1.93,7,8.32,14.94,15.54,19.36a5,5,0,0,1-2.61,9.26Z"/><path class="cls-1" d="M433,426a5,5,0,0,1-5-5V405a5,5,0,0,1,10,0v16A5,5,0,0,1,433,426Z"/></g><g id="Outline"><path class="cls-1" d="M293,186H219a5,5,0,0,1,0-10h74a5,5,0,0,1,0,10Z"/></g></svg>