<?xml version="1.0" ?><svg viewBox="0 0 512 512" xmlns="http://www.w3.org/2000/svg"><defs><style>.cls-1{fill:#3f456b;}</style></defs><title/><g id="Lines"><path class="cls-1" d="M256.53,214.84a12.87,12.87,0,0,1-7.43-2.42c-1.83-1.29-22.84-16.28-38.6-37.74-8-10.92-9.9-23.19-5.13-33.66a31.75,31.75,0,0,1,26.47-18.12c12-1,19.88,3.93,24.46,9.3,4.57-5.38,12.46-10.31,24.45-9.35a31.74,31.74,0,0,1,26.51,18.06c4.78,10.46,2.94,22.73-5.06,33.67-15.83,21.63-37,36.72-38.56,37.84A11.78,11.78,0,0,1,256.53,214.84Zm-1.41-10.42a2,2,0,0,0,2.58,0l.14-.09h0c.21-.15,21.19-15,36.29-35.61,5.88-8,7.32-16.42,4-23.59-3.11-6.81-10.26-11.62-18.22-12.26-14.91-1.21-18.5,9.85-18.65,10.32a5,5,0,0,1-4.77,3.53h-.41a5,5,0,0,1-4.78-3.51c-.37-1.14-4.24-11.48-18.67-10.29-7.95.66-15.09,5.48-18.19,12.3-3.27,7.18-1.82,15.56,4.08,23.59,15.14,20.6,36.16,35.38,36.37,35.52Z"/><path class="cls-1" d="M160,366.11c-39.87,0-69.95-30.54-69.95-71V277a5,5,0,0,1,10,0v18.07c0,17.33,6.23,33,17.52,44.18,11,10.87,26.08,16.86,42.43,16.86s31.44-6,42.46-16.86C213.77,328.08,220,312.4,220,295.07L220,278a5,5,0,0,1,5-5h0a5,5,0,0,1,5,5l.05,17.07C230,335.57,199.91,366.11,160,366.11Z"/><path class="cls-1" d="M245.92,363a5,5,0,0,1-5-5V291c0-23.47-7.47-46.33-20.5-62.73C205.7,209.75,184.81,200,160,200s-45.72,9.79-60.45,28.31C86.49,244.68,79,267.54,79,291v66a5,5,0,0,1-10,0V291c0-50.21,31.26-101,91-101s90.93,50.83,90.93,101v67A5,5,0,0,1,245.92,363Z"/><path class="cls-1" d="M256,457H221.18l-121.77-.81L64,456a5,5,0,0,1-5-5V386c0-16.33,8.36-30.69,24.17-41.52a88.21,88.21,0,0,1,23.49-11.3,5,5,0,0,1,2.69,9.64C108.73,343,69,354.63,69,386v60l30.46.16,121.76.81H251V386c0-31.64-39.19-45.12-39.58-45.26a5,5,0,0,1,3.16-9.49,89.81,89.81,0,0,1,22.91,12.35C252.87,355.09,261,369.75,261,386v66A5,5,0,0,1,256,457Z"/><path class="cls-1" d="M225,456a5,5,0,0,1-5-5V387a5,5,0,0,1,10,0v64A5,5,0,0,1,225,456Z"/><path class="cls-1" d="M97,456a5,5,0,0,1-5-5V387a5,5,0,0,1,10,0v64A5,5,0,0,1,97,456Z"/><path class="cls-1" d="M201.49,284.07c-35.07,0-55.63-15.54-64.47-24.34-7,11.07-21.33,24.43-42.53,22.24a5,5,0,1,1,1-9.94c24.86,2.58,35.44-21.91,35.87-22.95a5,5,0,0,1,8.71-1c0,.07,6.29,8.68,19.56,15.88,17.8,9.67,39.15,12.38,63.48,8.07a5,5,0,0,1,1.74,9.84A133.06,133.06,0,0,1,201.49,284.07Z"/><path class="cls-1" d="M128,296h-1a5,5,0,0,1,0-10h1a5,5,0,0,1,0,10Z"/><path class="cls-1" d="M192,296h-1a5,5,0,0,1,0-10h1a5,5,0,0,1,0,10Z"/><path class="cls-1" d="M97,423.33a5,5,0,0,1-2.74-9.18c1.22-.8,29.63-18.92,65.69-1.76,8.35-4,36.45-15.14,66.44,1.22a5,5,0,1,1-4.78,8.78c-30.18-16.46-58.82-.23-59.1-.07a5,5,0,0,1-4.8.13c-32-16.48-57.71-.1-58,.07A5,5,0,0,1,97,423.33Z"/><path class="cls-1" d="M160,423a5,5,0,0,1-5-5V400a5,5,0,0,1,10,0v18A5,5,0,0,1,160,423Z"/><path class="cls-1" d="M336.28,455.09l-.61,0a5,5,0,0,1-4.36-5.57l7.62-63.23-5.79-25.41a5,5,0,0,1,9.75-2.22l6,26.26a5.17,5.17,0,0,1,.08,1.71l-7.72,64.09A5,5,0,0,1,336.28,455.09Z"/><path class="cls-1" d="M370.27,455.09a5,5,0,0,1-5-4.38l-7.92-64.1a5,5,0,0,1,.09-1.72l6-26.26a5,5,0,0,1,9.75,2.22l-5.8,25.41,7.81,63.22a5,5,0,0,1-4.34,5.58Z"/><path class="cls-1" d="M361,391H344a5,5,0,0,1,0-10h17a5,5,0,0,1,0,10Z"/><path class="cls-1" d="M352,366.11a76.08,76.08,0,0,1-75.95-76V268l-.06-1.84a1.09,1.09,0,0,1,0-.18,76,76,0,1,1,151.94,0l0,2.12.05,21.95A76.1,76.1,0,0,1,352,366.11Zm-66-100.2.07,1.84v22.32a66,66,0,1,0,131.94,0l-.07-24A66,66,0,1,0,286,265.91Z"/><path class="cls-1" d="M424,300a5,5,0,0,1,0-10c9.52-.17,10-9.19,10-11,0-4.72-1.57-7.86-4.79-9.6a12.67,12.67,0,0,0-5-1.4,5,5,0,0,1,0-10c8,0,19.84,5.59,19.84,21S432,300,424,300Z"/><path class="cls-1" d="M448,457H413.18l-121.77-.81L256,456a5,5,0,0,1-5-5V386c0-38.08,36.8-61.28,38.37-62.25a5,5,0,0,1,5.27,8.5h0c-.34.21-33.64,21.3-33.64,53.75v60l30.46.16,121.76.81H443V386c0-32.56-33.29-53.54-33.63-53.75a5,5,0,0,1,5.26-8.5c1.57,1,38.37,24.17,38.37,62.25v66A5,5,0,0,1,448,457Z"/><path class="cls-1" d="M417,456a5,5,0,0,1-5-5V387a5,5,0,0,1,10,0v64A5,5,0,0,1,417,456Z"/><path class="cls-1" d="M289,456a5,5,0,0,1-5-5V387a5,5,0,0,1,10,0v64A5,5,0,0,1,289,456Z"/><path class="cls-1" d="M403.21,268c-13.5,0-28.13-2.95-40.36-12.38a52.08,52.08,0,0,1-11.27-11.93c-9.41,12-23.67,19.61-41.76,22.27a101.09,101.09,0,0,1-29.52-.05,5,5,0,0,1,1.75-9.84,92.89,92.89,0,0,0,26.58,0c18.42-2.77,31.54-11,39-24.42a5,5,0,0,1,9.08.76c.5,1.35,13.07,33.76,65.1,23.76a5,5,0,1,1,1.88,9.82A109.72,109.72,0,0,1,403.21,268Z"/><path class="cls-1" d="M279,300a20.54,20.54,0,0,1-9.48-2.66c-4.34-2.48-9.52-7.68-9.52-18.34s5.12-15.85,9.42-18.33a20.28,20.28,0,0,1,9.43-2.67,5,5,0,0,1,0,10c-2.1.05-8.9,1-8.9,11,0,4.78,1.47,7.94,4.48,9.66A10.87,10.87,0,0,0,279,290a5,5,0,0,1,0,10Z"/><path class="cls-1" d="M320,284h-1a5,5,0,0,1,0-10h1a5,5,0,0,1,0,10Z"/><path class="cls-1" d="M384,284h-1a5,5,0,0,1,0-10h1a5,5,0,0,1,0,10Z"/><path class="cls-1" d="M464,457H48a5,5,0,0,1-5-5V100a5,5,0,0,1,5-5H464a5,5,0,0,1,5,5V452A5,5,0,0,1,464,457ZM53,447H459V105H53Z"/><path class="cls-1" d="M496,500H16a5,5,0,0,1-5-5V63a5,5,0,0,1,5-5H496a5,5,0,0,1,5,5V495A5,5,0,0,1,496,500ZM21,490H491V68H21Z"/><path class="cls-1" d="M57.83,233.94a59.94,59.94,0,0,1-10.72-1,5,5,0,1,1,1.78-9.84c11.26,2,20.45.38,27.3-4.94C88.56,208.52,90,189.85,90,189.66a5,5,0,0,1,3.72-4.5C110,180.88,115.41,170,115.46,169.9a5,5,0,0,1,7.08-2.2c.19.1,19.47,11.13,34.53.25,5.9-4.27,8.67-10.39,8.21-18.21a35.09,35.09,0,0,0-2.8-11.6A5,5,0,0,1,164,132c15.35-11.3,7.15-29.06,6.8-29.81a5,5,0,0,1,9-4.34c4,8.35,7.38,26.71-6.82,39.71,3.56,10.3,4.86,27.73-10.08,38.52-15.52,11.21-33.12,5.88-41.13,2.41-3.38,4.51-10.22,11.43-22.24,15.4-1.09,7-4.85,22.5-17.17,32.12C75.61,231.28,67.38,233.94,57.83,233.94Z"/><path class="cls-1" d="M464,234a4.58,4.58,0,0,1-.64,0c-12.14-1.55-21.47-6.66-27.72-15.21-8.57-11.71-8.92-26.76-8.37-34.63-11.17-1.86-18.09-7.2-21.84-11.18-8.41,6.21-28.2,17.5-50,6.62-19.35-9.67-22-29-20.16-42-9.5-.26-17.13-3.22-22.74-8.84-11.12-11.16-9.58-28.48-9.51-29.21a5,5,0,1,1,9.95,1h0c0,.13-1.12,13.46,6.68,21.24,4.67,4.65,11.86,6.55,21.38,5.66a5,5,0,0,1,5.25,6.45c-.32,1.05-7.62,26.17,13.63,36.8,21.89,10.94,42-7.61,42.84-8.41a5,5,0,0,1,7.83,1.24c.22.38,6.08,10.3,22.47,11.27a5,5,0,0,1,3.64,1.9,5.06,5.06,0,0,1,1,4c0,.18-3.36,19.51,6,32.28,4.57,6.21,11.59,10,20.88,11.15a5,5,0,0,1-.62,10Z"/><path class="cls-1" d="M132.19,135a26.29,26.29,0,0,1-26-23.23L99,49.56a34.66,34.66,0,0,1,68.85-8.05l3.13,20.74a5,5,0,0,1-9.88,1.5l-3.15-20.83c0-.06,0-.11,0-.17a24.66,24.66,0,1,0-49,5.66l7.19,62.21a16.24,16.24,0,1,0,32.26-3.73l-7-60.39a6.72,6.72,0,0,0-7.45-5.9A6.72,6.72,0,0,0,128,48l7.06,61.12a5,5,0,0,1-9.94,1.15l-7.06-61.12a16.72,16.72,0,0,1,33.22-3.84l7,60.39a26.27,26.27,0,0,1-23.06,29.08A25.79,25.79,0,0,1,132.19,135Z"/></g><g id="Outline"><path class="cls-1" d="M350,479h-1a5,5,0,0,1,0-10h1a5,5,0,0,1,0,10Zm-21,0h-1a5,5,0,0,1,0-10h1a5,5,0,0,1,0,10Zm-21,0h-1a5,5,0,0,1,0-10h1a5,5,0,0,1,0,10Zm-21,0h-1a5,5,0,0,1,0-10h1a5,5,0,0,1,0,10Zm-21,0h-1a5,5,0,0,1,0-10h1a5,5,0,0,1,0,10Zm-21,0h-1a5,5,0,0,1,0-10h1a5,5,0,0,1,0,10Zm-21,0h-1a5,5,0,0,1,0-10h1a5,5,0,0,1,0,10Zm-21,0h-1a5,5,0,0,1,0-10h1a5,5,0,0,1,0,10Zm-21,0h-1a5,5,0,0,1,0-10h1a5,5,0,0,1,0,10Zm-21,0h-1a5,5,0,0,1,0-10h1a5,5,0,0,1,0,10Z"/></g></svg>