<?xml version="1.0" ?><svg viewBox="0 0 512 512" xmlns="http://www.w3.org/2000/svg"><defs><style>.cls-1{fill:#3f456b;}</style></defs><title/><g id="Lines"><path class="cls-1" d="M134.37,466.81a5,5,0,0,1-2.55-.7,246.44,246.44,0,0,1-36-26.06l-2.55-2.11a5,5,0,1,1,6.38-7.7l2.6,2.16.09.07a237.64,237.64,0,0,0,34.55,25,5,5,0,0,1-2.56,9.3Z"/><path class="cls-1" d="M407.84,446.31a5,5,0,0,1-3.19-8.85c28.05-23.21,44.45-47.64,50.19-57.06a5,5,0,1,1,8.54,5.2c-6,9.86-23.14,35.39-52.36,59.56A5,5,0,0,1,407.84,446.31Z"/><path class="cls-1" d="M398.39,329.07a5,5,0,0,1-3.23-1.19l-28.39-24.07a5,5,0,0,1,6.46-7.62l28.39,24.07a5,5,0,0,1-3.23,8.81Z"/><path class="cls-1" d="M63,367a5,5,0,0,1-3.24-8.81l73-62a5,5,0,0,1,6.48,7.62l-73,62A5,5,0,0,1,63,367Z"/><path class="cls-1" d="M253,367.94c-80,0-145-65.14-145-145.22V179.47C108,99.4,173.06,34.25,253,34.25s145,65.14,145,145.21l.09,43.25C398.16,302.8,333.06,367.94,253,367.94Zm0-323.69c-74.46,0-135,60.66-135,135.22v43.25c0,74.56,60.58,135.22,135,135.22s135.12-60.66,135.12-135.22l-.09-43.24h0C388.07,104.91,327.49,44.25,253,44.25Zm145,135.22h0Z"/><path class="cls-1" d="M321,208H191c-79.93,0-81.95-35.82-82-37.35a5,5,0,0,1,5-5.15H392.32a5,5,0,0,1,5,5.51C397.14,172.52,392.69,208,321,208ZM120.93,175.5c4.56,8,19.76,22.5,70.07,22.5H321c33.58,0,50-8.17,57.87-15a29.56,29.56,0,0,0,6.28-7.48Z"/><path class="cls-1" d="M427.18,255H405a17,17,0,0,1-8.77-2.84c-3.76-2.5-8.23-7.68-8.23-18.16a5,5,0,0,1,10,0c0,9.95,5.43,10.94,7.09,11h22.2a6.4,6.4,0,0,0,4.1-2c2.1-2.08,4.61-6.72,4.61-17V187c0-10-6.93-10.95-9.05-11H406c-7.5,0-8,8.35-8,10a5,5,0,0,1-5,4.95h0a5,5,0,0,1-5-5c0-8,4.79-20,18-20h21a20.54,20.54,0,0,1,9.48,2.66c4.34,2.48,9.52,7.68,9.52,18.34v39c0,11.33-2.69,19.57-8,24.5A16.18,16.18,0,0,1,427.18,255Z"/><path class="cls-1" d="M99,255H78c-13.21,0-18-12-18-20V187c0-10.66,5.18-15.86,9.52-18.34A20.54,20.54,0,0,1,79,166h21c13.21,0,18,12,18,20a5,5,0,0,1-10,0c0-1.68-.5-10-8-10H79c-2.07.05-9,1-9,11v48c0,1.65.5,10,8,10H99c2.07-.05,9-1,9-11a5,5,0,0,1,10,0c0,10.66-5.18,15.86-9.52,18.34A20.54,20.54,0,0,1,99,255Z"/><path class="cls-1" d="M89,176h-.26A5,5,0,0,1,84,170.74c.08-1.61,2.32-39.89,24.66-78.73,13.19-22.94,30.67-41.23,52-54.36C187.14,21.29,219.56,13,257,13c36.33,0,67.58,8.22,92.88,24.44,20.31,13,36.8,31.14,49,53.86,20.62,38.45,21.77,76.32,21.81,77.91a5,5,0,0,1-4.88,5.12h-.12a5,5,0,0,1-5-4.88c0-.36-1.18-37.37-20.79-73.73-11.39-21.13-26.72-37.95-45.58-50C320.67,30.65,291.29,23,257,23c-35.46,0-66.06,7.75-90.93,23-19.84,12.2-36.18,29.23-48.55,50.63C96.25,133.46,94,170.89,94,171.26A5,5,0,0,1,89,176Z"/><path class="cls-1" d="M352.33,256h-47c-.5,0-12.38-.1-19.79-8.75l-1-1.19c-5-5.84-6-7.06-12.19-7.06H241c-6.17,0-7.2,1.22-12.18,7.06l-1,1.19C220.38,255.9,208.5,256,208,256H161c-6.41,0-11.6-2-15.45-5.91-6.23-6.35-6.24-15.2-6.22-16.19V198a5,5,0,0,1,10,0v36c0,.12,0,5.72,3.41,9.14,1.91,1.92,4.62,2.86,8.26,2.86h47c.05,0,7.83-.15,12.2-5.25l1-1.18c5.43-6.36,9-10.57,19.8-10.57h31.33c10.79,0,14.37,4.21,19.8,10.57l1,1.18c4.38,5.11,12.13,5.25,12.2,5.25h47c3.65,0,6.35-.94,8.27-2.86,3.39-3.42,3.4-9,3.4-9.08V198a5,5,0,0,1,10,0v36c0,.89,0,9.74-6.22,16.09C363.94,254,358.74,256,352.33,256Z"/><path class="cls-1" d="M255,399c-23.1,0-54.37-5-72.14-28.93-10.81-14.55-11.34-29.14-11.36-29.75a5,5,0,0,1,10-.29c.07,2.07,2.64,49,73.5,49,30.25,0,52.32-9.17,65.59-27.27A57.72,57.72,0,0,0,331.51,335a5,5,0,0,1,10,.77,67.86,67.86,0,0,1-12.83,31.89C318.17,382,296.87,399,255,399Z"/><path class="cls-1" d="M70.7,447.27c-25.3,0-45.89-20.14-45.89-44.9s20.59-44.9,45.89-44.9,45.88,20.14,45.88,44.9S96,447.27,70.7,447.27Zm0-79.8c-19.79,0-35.89,15.65-35.89,34.9s16.1,34.9,35.89,34.9,35.88-15.65,35.88-34.9S90.49,367.47,70.7,367.47Z"/><path class="cls-1" d="M450.7,347.27c-25.3,0-45.89-20.14-45.89-44.9s20.59-44.9,45.89-44.9,45.88,20.14,45.88,44.9S476,347.27,450.7,347.27Zm0-79.8c-19.79,0-35.89,15.65-35.89,34.9s16.1,34.9,35.89,34.9,35.88-15.65,35.88-34.9S470.49,267.47,450.7,267.47Z"/><path class="cls-1" d="M450.7,388c-31.16,0-56.5-24.79-56.5-55.27a54,54,0,0,1,11.57-33.52,5,5,0,0,1,7.88,6.16,44.1,44.1,0,0,0-9.45,27.36c0,25,20.86,45.27,46.5,45.27s46.5-20.31,46.5-45.27a44.1,44.1,0,0,0-9.45-27.36,5,5,0,0,1,7.88-6.16,54,54,0,0,1,11.57,33.52C507.2,363.21,481.86,388,450.7,388Z"/><path class="cls-1" d="M80,352.56a4.88,4.88,0,0,1-2.09-.46c-17.53-8.07-25.35-25.5-19-42.37,3.17-8.48,9.74-14.06,15.54-19,5.31-4.51,10.32-8.78,12.26-14.62C88.85,269.6,88,261,84.44,253.05a5,5,0,0,1,9.12-4.1c4.64,10.31,5.59,21.36,2.61,30.31-2.83,8.5-9.15,13.88-15.27,19.09-5.34,4.55-10.39,8.84-12.66,14.89C63.08,327,71.48,338.13,82.09,343A5,5,0,0,1,80,352.56Z"/><path class="cls-1" d="M257,500H17a5,5,0,0,1-5-5V463a5,5,0,0,1,5-5H257a5,5,0,0,1,5,5v32A5,5,0,0,1,257,500ZM22,490H252V468H22Z"/><path class="cls-1" d="M497,500H257a5,5,0,0,1-5-5V442a5,5,0,0,1,5-5H497a5,5,0,0,1,5,5v53A5,5,0,0,1,497,500ZM262,490H492V447H262Z"/><path class="cls-1" d="M441,214.91a5,5,0,0,1-2.2-9.49A94.91,94.91,0,1,0,323.93,59.75a5,5,0,0,1-7.71-6.37,104.9,104.9,0,1,1,126.93,161A4.88,4.88,0,0,1,441,214.91Z"/><path class="cls-1" d="M397.16,160.16a40.77,40.77,0,0,1-5.53-.38,5,5,0,1,1,1.37-9.91,30.4,30.4,0,0,0,4.16.29,30.05,30.05,0,1,0-24.35-47.66,5,5,0,0,1-8.1-5.87,40.05,40.05,0,1,1,32.45,63.53Z"/><path class="cls-1" d="M287,473a5,5,0,0,1-5-5v-1a5,5,0,0,1,10,0v1A5,5,0,0,1,287,473Z"/><path class="cls-1" d="M322.6,473a5,5,0,0,1-5-5v-1a5,5,0,0,1,10,0v1A5,5,0,0,1,322.6,473Z"/><path class="cls-1" d="M393.8,473a5,5,0,0,1-5-5v-1a5,5,0,0,1,10,0v1A5,5,0,0,1,393.8,473Z"/><path class="cls-1" d="M429.4,473a5,5,0,0,1-5-5v-1a5,5,0,0,1,10,0v1A5,5,0,0,1,429.4,473Z"/><path class="cls-1" d="M465,473a5,5,0,0,1-5-5v-1a5,5,0,0,1,10,0v1A5,5,0,0,1,465,473Z"/><path class="cls-1" d="M358.2,473a5,5,0,0,1-5-5v-1a5,5,0,0,1,10,0v1A5,5,0,0,1,358.2,473Z"/><path class="cls-1" d="M285.66,447a5,5,0,0,1-5-4.75c0-.7-.68-17.27,10.54-29C298.3,405.77,308.32,402,321,402s22.9,3.77,30,11.22c11,11.57,10.37,27.65,10.34,28.33a5,5,0,0,1-10-.48c0-.11.42-12.61-7.65-21C338.56,414.71,330.93,412,321,412s-17.37,2.71-22.49,8c-8.28,8.62-7.85,21.61-7.85,21.74a5,5,0,0,1-4.77,5.21Z"/><path class="cls-1" d="M324.68,447.05a5,5,0,0,1-4.76-6.63C320.31,439.26,330.07,412,389,412c57.94,0,76.34,25.36,77.1,26.44a5,5,0,1,1-8.2,5.73C457.77,444,441.21,422,389,422c-50.95,0-59.54,21.44-59.62,21.66A4.93,4.93,0,0,1,324.68,447.05Z"/><path class="cls-1" d="M225,467a5,5,0,0,1-5-5V447H198v15a5,5,0,0,1-10,0V442a5,5,0,0,1,5-5h32a5,5,0,0,1,5,5v20A5,5,0,0,1,225,467Z"/><path class="cls-1" d="M129,407H112a5,5,0,0,1,0-10h17a5,5,0,0,1,0,10Z"/><path class="cls-1" d="M29,407H15a5,5,0,0,1,0-10H29a5,5,0,0,1,0,10Z"/><path class="cls-1" d="M165.5,419h-24a17.5,17.5,0,0,1,0-35h24a17.5,17.5,0,0,1,0,35Zm-24-25a7.5,7.5,0,0,0,0,15h24a7.5,7.5,0,0,0,0-15Z"/><path class="cls-1" d="M381.14,390.54a17.49,17.49,0,0,1-15-8.38h0l-12.49-20.5a17.54,17.54,0,0,1,5.83-24.05l4.27-2.6a17.54,17.54,0,0,1,24.05,5.83l12.49,20.5a17.52,17.52,0,0,1-5.83,24.05l-4.27,2.6A17.4,17.4,0,0,1,381.14,390.54ZM374.71,377a7.49,7.49,0,0,0,10.3,2.5l4.27-2.6a7.5,7.5,0,0,0,2.5-10.31l-12.49-20.49a7.53,7.53,0,0,0-10.3-2.5l-4.27,2.6a7.54,7.54,0,0,0-2.5,10.31Z"/><path class="cls-1" d="M153,452a5,5,0,0,1-5-5V414a5,5,0,0,1,10,0v33A5,5,0,0,1,153,452Z"/><path class="cls-1" d="M403,446.31a5,5,0,0,1-5-5V412c0-7.28-5.11-15.15-5.16-15.23l-.06-.09-7.33-11.53a5,5,0,0,1,8.45-5.36l7.3,11.49c.6.92,6.8,10.61,6.8,20.72v29.31A5,5,0,0,1,403,446.31Z"/></g><g id="Outline"><path class="cls-1" d="M80.06,106.62c-16.72,0-16.72-24.16-16.72-35.77V67a4.17,4.17,0,0,1,0-.61,5.58,5.58,0,0,0-.61-3.25,1.88,1.88,0,0,0-1.17-.28c-1,0-1.29.29-1.39.4a5.68,5.68,0,0,0-.91,3.39c.15,1.64.43,7.69-3.31,11.86a10.87,10.87,0,0,1-8.42,3.59,10.78,10.78,0,0,1-8-3.35,13.62,13.62,0,0,1-3.2-6.27H13a5,5,0,1,1,0-10H40.83a5,5,0,0,1,5,5.29c-.06,1.19.26,3.38,1,4.12.07.07.2.21.77.21.74,0,.91-.18,1-.25.68-.75.92-3,.79-4.33,0-.06,0-.15,0-.21,0-.68-.3-6.75,3.6-10.89a11.49,11.49,0,0,1,8.68-3.56,11.11,11.11,0,0,1,8.66,3.65c3.38,3.82,3.21,9.19,3.08,10.73v3.61c0,17.1,2.26,25.77,6.72,25.77S86.77,88,86.77,70.85v-7.7c0-11.61,0-35.77,16.72-35.77,16.42,0,16.71,22.46,16.71,35.1h12.69a5,5,0,0,1,0,10h-18a5,5,0,0,1-5-5.31L110.2,63c0-6.6-.21-14.81-1.8-20.19s-3.68-5.43-4.91-5.43c-4.46,0-6.72,8.67-6.72,25.77v7.7C96.77,82.46,96.77,106.62,80.06,106.62Z"/><path class="cls-1" d="M258.34,144.75a31.12,31.12,0,0,1-8.23-1.11c-6.85-1.85-12.18-6-17.34-10-6.28-4.86-11.71-9.06-18.84-8.51-10.09.77-16.07,10.19-18.74,15.74a5,5,0,0,1-9-4.33c6.22-12.94,15.81-20.53,27-21.38,11-.83,18.8,5.22,25.71,10.57,4.59,3.54,8.92,6.89,13.84,8.22a21.06,21.06,0,0,0,13-.49,35.82,35.82,0,0,1-3.32-3.06c-6.6-7-8.91-15.76-6.32-24.12,3-9.55,9.24-15.7,17.23-16.88a17.87,17.87,0,0,1,17.53,7.8c5.06,7.48,4.5,17.68-1.53,28a45.24,45.24,0,0,1-4.68,6.61c7.47,2,17,2.41,28.12-.39a5,5,0,1,1,2.45,9.69c-14.13,3.56-28.16,2.79-39.22-1.7A32.54,32.54,0,0,1,258.34,144.75Zm17.54-45.51a7.52,7.52,0,0,0-1.15.09c-4,.6-7.38,4.22-9.15,9.94-1.51,4.88-.08,10,4,14.29a26,26,0,0,0,5.16,4.12,34.86,34.86,0,0,0,5.86-7.49c4-6.86,4.69-13.18,1.88-17.35A8,8,0,0,0,275.88,99.24Z"/></g></svg>