<?xml version="1.0" ?><svg enable-background="new 0 0 512 512" version="1.1" viewBox="0 0 512 512" xml:space="preserve" xmlns="http://www.w3.org/2000/svg" xmlns:xlink="http://www.w3.org/1999/xlink"><g id="Colors"><g><g><g><g><path d="M256,58c-13.233,0-24-10.767-24-24s10.767-24,24-24s24,10.767,24,24S269.233,58,256,58z M256,20       c-7.72,0-14,6.28-14,14s6.28,14,14,14s14-6.28,14-14S263.72,20,256,20z" fill="#384169"/></g></g><g><g><path d="M449.5,251.5c-13.233,0-24-10.767-24-24s10.767-24,24-24s24,10.767,24,24S462.733,251.5,449.5,251.5z        M449.5,213.5c-7.72,0-14,6.28-14,14s6.28,14,14,14s14-6.28,14-14S457.22,213.5,449.5,213.5z" fill="#384169"/></g></g><g><g><path d="M62.5,251.5c-13.233,0-24-10.767-24-24s10.767-24,24-24s24,10.767,24,24S75.733,251.5,62.5,251.5z        M62.5,213.5c-7.72,0-14,6.28-14,14s6.28,14,14,14s14-6.28,14-14S70.22,213.5,62.5,213.5z" fill="#384169"/></g></g></g><g><g><g><path d="M119.175,114.664c-6.146,0-12.292-2.34-16.97-7.019c-9.357-9.358-9.357-24.584,0-33.94       c9.355-9.357,24.583-9.356,33.94-0.001v0.001c9.357,9.356,9.357,24.582,0.001,33.94       C131.467,112.324,125.32,114.664,119.175,114.664z M119.175,76.683c-3.585,0-7.17,1.364-9.899,4.093       c-5.458,5.459-5.458,14.341,0.001,19.8c5.459,5.458,14.34,5.457,19.799-0.001c5.458-5.458,5.458-14.34,0-19.799       C126.346,78.047,122.76,76.683,119.175,76.683z" fill="#384169"/></g></g><g><g><path d="M392.825,388.313c-6.146,0-12.292-2.34-16.971-7.018c-9.357-9.357-9.357-24.583-0.001-33.941       c9.359-9.357,24.586-9.357,33.941,0h0.001c9.356,9.358,9.356,24.584-0.001,33.94       C405.117,385.974,398.971,388.313,392.825,388.313z M392.825,350.332c-3.586,0-7.17,1.364-9.9,4.094       c-5.458,5.458-5.458,14.34,0,19.799c5.459,5.457,14.341,5.457,19.8,0c5.458-5.459,5.458-14.341-0.001-19.8       C399.995,351.696,396.41,350.332,392.825,350.332z" fill="#384169"/></g></g><g><g><path d="M392.825,114.664c-6.146,0-12.292-2.34-16.971-7.018c-9.357-9.359-9.357-24.585,0-33.941       c9.355-9.358,24.583-9.358,33.94,0c9.357,9.356,9.357,24.582,0.001,33.94h-0.001       C405.117,112.324,398.971,114.664,392.825,114.664z M392.825,76.683c-3.586,0-7.17,1.364-9.9,4.094       c-5.458,5.458-5.458,14.34,0.001,19.799c5.457,5.457,14.34,5.459,19.799,0c5.458-5.459,5.458-14.341,0-19.8       C399.995,78.047,396.41,76.683,392.825,76.683z M406.26,104.11h0.01H406.26z" fill="#384169"/></g></g><g><g><path d="M119.175,388.313c-6.146,0-12.291-2.339-16.97-7.019c-9.357-9.356-9.357-24.582-0.001-33.94       c9.358-9.358,24.585-9.355,33.941-0.001c9.357,9.359,9.357,24.585,0,33.941v0.001       C131.467,385.974,125.32,388.313,119.175,388.313z M119.175,350.331c-3.585,0-7.17,1.364-9.899,4.094       c-5.458,5.459-5.458,14.341,0,19.8c5.461,5.458,14.341,5.458,19.8-0.001c5.458-5.458,5.458-14.34-0.001-19.799       C126.346,351.696,122.76,350.331,119.175,350.331z M132.61,377.76h0.01H132.61z" fill="#384169"/></g></g></g></g><g><g><g><g><path d="M181.951,72.742c-3.112,0-6.224-0.613-9.185-1.84c-5.923-2.453-10.535-7.066-12.988-12.989       c-2.453-5.922-2.453-12.445,0-18.368s7.065-10.535,12.988-12.988c5.921-2.452,12.445-2.452,18.368,0       c5.923,2.453,10.536,7.065,12.989,12.988l0,0c5.064,12.227-0.763,26.293-12.989,31.357       C188.174,72.129,185.062,72.742,181.951,72.742z M181.951,34.722c-1.815,0-3.631,0.357-5.358,1.073       c-3.454,1.432-6.146,4.122-7.576,7.577c-1.431,3.454-1.431,7.26,0,10.715c1.432,3.455,4.122,6.146,7.577,7.577       c3.452,1.429,7.259,1.432,10.715,0c7.132-2.954,10.531-11.16,7.577-18.293l0,0c-1.432-3.454-4.122-6.145-7.577-7.576       C185.581,35.08,183.766,34.722,181.951,34.722z" fill="#384169"/></g></g><g><g><path d="M330.049,430.283c-3.111,0-6.223-0.613-9.184-1.84c-5.923-2.453-10.536-7.065-12.989-12.988       c-5.064-12.227,0.763-26.293,12.989-31.357c5.923-2.454,12.447-2.452,18.368,0c5.923,2.453,10.535,7.066,12.988,12.989       c2.453,5.922,2.453,12.445,0,18.368s-7.065,10.535-12.988,12.988C336.272,429.67,333.161,430.283,330.049,430.283z        M330.049,392.263c-1.814,0-3.63,0.357-5.357,1.073c-7.132,2.954-10.531,11.16-7.577,18.293       c1.432,3.454,4.122,6.145,7.577,7.576c3.456,1.43,7.262,1.432,10.716,0s6.146-4.122,7.576-7.577       c1.431-3.454,1.431-7.26,0-10.715l0,0c-1.432-3.455-4.122-6.146-7.577-7.577C333.68,392.621,331.864,392.263,330.049,392.263z" fill="#384169"/></g></g><g><g><path d="M434.803,177.451c-9.423,0-18.381-5.583-22.205-14.816c-2.453-5.922-2.453-12.445,0-18.368       s7.066-10.535,12.989-12.988s12.447-2.453,18.368,0c5.923,2.453,10.535,7.065,12.988,12.988c2.453,5.922,2.453,12.445,0,18.368       s-7.065,10.536-12.988,12.989l0,0C440.962,176.864,437.857,177.451,434.803,177.451z M442.042,171.005h0.01H442.042z        M434.771,139.443c-1.814,0-3.63,0.357-5.357,1.073c-3.455,1.432-6.146,4.122-7.577,7.577c-1.431,3.454-1.431,7.26,0,10.715       c2.955,7.133,11.16,10.525,18.293,7.577l0,0c3.454-1.432,6.145-4.122,7.576-7.577c1.431-3.455,1.431-7.261,0-10.716       c-1.432-3.454-4.122-6.146-7.577-7.576C438.401,139.802,436.586,139.443,434.771,139.443z" fill="#384169"/></g></g><g><g><path d="M77.229,325.562c-3.112,0-6.224-0.613-9.185-1.84c-5.923-2.453-10.535-7.065-12.988-12.988       c-2.453-5.922-2.453-12.445,0-18.368s7.065-10.536,12.988-12.989c12.228-5.063,26.294,0.763,31.357,12.989       c2.453,5.922,2.453,12.445,0,18.368s-7.066,10.535-12.989,12.988C83.452,324.948,80.341,325.562,77.229,325.562z        M77.211,287.549c-1.783,0-3.593,0.343-5.34,1.065c-3.454,1.432-6.145,4.122-7.576,7.577c-1.431,3.455-1.431,7.261,0,10.716       c1.432,3.454,4.122,6.146,7.577,7.576c3.452,1.429,7.259,1.432,10.715,0l0,0c3.455-1.432,6.146-4.122,7.577-7.577       c1.431-3.454,1.431-7.26,0-10.715C87.933,290.806,82.707,287.549,77.211,287.549z" fill="#384169"/></g></g></g><g><g><g><path d="M77.197,177.451c-3.056,0-6.158-0.587-9.152-1.827c-5.923-2.453-10.535-7.066-12.988-12.989       s-2.453-12.446,0-18.368c2.453-5.923,7.065-10.535,12.988-12.988c5.922-2.453,12.446-2.453,18.368,0l0,0       c5.923,2.453,10.536,7.065,12.989,12.988s2.453,12.446,0,18.368C95.578,171.867,86.62,177.451,77.197,177.451z M77.229,139.443       c-1.815,0-3.63,0.357-5.357,1.073c-3.455,1.431-6.146,4.122-7.577,7.576c-1.431,3.455-1.431,7.261,0,10.716       c1.432,3.455,4.122,6.146,7.576,7.577c7.132,2.953,15.338-0.444,18.293-7.577c1.431-3.455,1.431-7.261,0-10.715       c-1.432-3.455-4.122-6.146-7.577-7.577l0,0C80.859,139.802,79.044,139.443,77.229,139.443z" fill="#384169"/></g></g><g><g><path d="M434.771,325.562c-3.111,0-6.223-0.613-9.184-1.84c-5.923-2.453-10.536-7.065-12.989-12.988       s-2.453-12.446,0-18.368c5.064-12.227,19.131-18.055,31.357-12.989l0,0c5.923,2.453,10.535,7.066,12.988,12.989       s2.453,12.446,0,18.368c-2.453,5.923-7.065,10.535-12.988,12.988C440.994,324.948,437.882,325.562,434.771,325.562z        M434.789,287.549c-5.496,0-10.722,3.257-12.953,8.643c-1.431,3.455-1.431,7.261,0,10.715c1.432,3.455,4.122,6.146,7.577,7.577       c3.453,1.429,7.258,1.432,10.715,0c3.455-1.431,6.146-4.122,7.577-7.576c1.431-3.455,1.431-7.261,0-10.716       c-1.432-3.455-4.122-6.146-7.576-7.577C438.383,287.892,436.571,287.549,434.789,287.549z" fill="#384169"/></g></g><g><g><path d="M330.049,72.742c-3.111,0-6.223-0.613-9.184-1.84c-12.227-5.064-18.054-19.131-12.989-31.357       c2.453-5.923,7.066-10.535,12.989-12.988c5.924-2.454,12.448-2.452,18.368,0c5.923,2.453,10.535,7.065,12.988,12.988       s2.453,12.446,0,18.368l0,0c-2.453,5.923-7.065,10.536-12.988,12.989C336.272,72.129,333.161,72.742,330.049,72.742z        M330.049,34.722c-1.814,0-3.63,0.358-5.357,1.073c-3.455,1.432-6.146,4.122-7.577,7.576       c-2.954,7.133,0.445,15.339,7.577,18.293c3.456,1.431,7.261,1.429,10.715,0c3.455-1.432,6.146-4.122,7.577-7.577l0,0       c1.431-3.455,1.431-7.261,0-10.715c-1.431-3.455-4.122-6.146-7.576-7.577C333.68,35.08,331.864,34.722,330.049,34.722z" fill="#384169"/></g></g><g><g><path d="M181.951,430.283c-3.112,0-6.224-0.613-9.185-1.84c-5.923-2.453-10.535-7.065-12.988-12.988       s-2.453-12.446,0-18.368c2.453-5.923,7.065-10.536,12.988-12.989c5.921-2.452,12.445-2.453,18.368,0       c12.227,5.064,18.054,19.131,12.989,31.357l0,0c-2.453,5.923-7.066,10.535-12.989,12.988       C188.174,429.67,185.062,430.283,181.951,430.283z M181.951,392.263c-1.815,0-3.63,0.358-5.357,1.073       c-3.455,1.432-6.146,4.122-7.577,7.577c-1.431,3.455-1.431,7.261,0,10.715c1.431,3.455,4.122,6.146,7.576,7.577       c3.454,1.429,7.26,1.43,10.716,0c3.455-1.432,6.146-4.122,7.577-7.576c2.954-7.133-0.445-15.339-7.577-18.293       C185.581,392.621,183.766,392.263,181.951,392.263z M199.505,413.542h0.01H199.505z" fill="#384169"/></g></g></g></g></g><g id="Lines"><g><g><g><path d="M255.998,166.319c-2.762,0-5-2.238-5-5V112c0-2.762,2.238-5,5-5s5,2.238,5,5v49.319      C260.998,164.081,258.76,166.319,255.998,166.319z" fill="#384169"/></g></g><g><g><path d="M369.986,232.617h-47.689c-2.762,0-5-2.238-5-5s2.238-5,5-5h47.689c2.762,0,5,2.238,5,5      S372.748,232.617,369.986,232.617z" fill="#384169"/></g></g><g><g><path d="M189.7,232.617h-47.702c-2.762,0-5-2.238-5-5s2.238-5,5-5H189.7c2.762,0,5,2.238,5,5      S192.462,232.617,189.7,232.617z" fill="#384169"/></g></g><g><g><path d="M302.878,185.737c-1.279,0-2.56-0.488-3.535-1.465c-1.953-1.952-1.953-5.118,0-7.07l34.534-34.533      c1.951-1.953,5.119-1.953,7.07,0c1.953,1.952,1.953,5.118,0,7.07l-34.534,34.533      C305.438,185.249,304.157,185.737,302.878,185.737z" fill="#384169"/></g></g><g><g><path d="M176.202,312.413c-1.279,0-2.56-0.488-3.535-1.465c-1.953-1.952-1.953-5.118,0-7.07l32.917-32.916      c1.951-1.953,5.119-1.953,7.07,0c1.953,1.952,1.953,5.118,0,7.07l-32.917,32.916      C178.762,311.925,177.481,312.413,176.202,312.413z" fill="#384169"/></g></g><g><g><path d="M335.795,312.414c-1.279,0-2.56-0.488-3.535-1.465l-32.917-32.917c-1.953-1.952-1.953-5.118,0-7.07      c1.951-1.953,5.119-1.953,7.07,0l32.917,32.917c1.953,1.952,1.953,5.118,0,7.07      C338.354,311.926,337.074,312.414,335.795,312.414z" fill="#384169"/></g></g><g><g><path d="M209.119,185.737c-1.279,0-2.56-0.488-3.535-1.465l-34.534-34.534c-1.953-1.952-1.953-5.118,0-7.07      c1.951-1.953,5.119-1.953,7.07,0l34.534,34.534c1.953,1.952,1.953,5.118,0,7.07      C211.679,185.249,210.398,185.737,209.119,185.737z" fill="#384169"/></g></g><g><g><path d="M230.629,171.367c-1.962,0-3.824-1.162-4.621-3.088l-18.836-45.477      c-1.057-2.551,0.154-5.476,2.706-6.532c2.548-1.058,5.477,0.154,6.532,2.706l18.836,45.477c1.057,2.551-0.154,5.476-2.706,6.532      C231.915,171.245,231.267,171.367,230.629,171.367z" fill="#384169"/></g></g><g><g><path d="M299.065,336.586c-1.962,0-3.823-1.162-4.621-3.088l-17.694-42.717      c-1.057-2.551,0.154-5.476,2.706-6.532c2.548-1.06,5.475,0.154,6.532,2.706l17.694,42.717c1.057,2.551-0.154,5.476-2.706,6.532      C300.352,336.464,299.703,336.586,299.065,336.586z" fill="#384169"/></g></g><g><g><path d="M317.252,207.247c-1.962,0-3.824-1.162-4.621-3.088c-1.057-2.551,0.154-5.476,2.706-6.532l44.66-18.499      c2.548-1.06,5.477,0.154,6.532,2.706c1.057,2.551-0.154,5.476-2.706,6.532l-44.66,18.499      C318.538,207.125,317.89,207.247,317.252,207.247z" fill="#384169"/></g></g><g><g><path d="M151.233,276.014c-1.962,0-3.824-1.162-4.621-3.088c-1.057-2.551,0.154-5.476,2.706-6.532l43.516-18.024      c2.547-1.059,5.477,0.154,6.532,2.706c1.057,2.551-0.154,5.476-2.706,6.532l-43.516,18.024      C152.52,275.892,151.871,276.014,151.233,276.014z" fill="#384169"/></g></g><g><g><path d="M281.367,171.367c-0.638,0-1.286-0.122-1.911-0.382c-2.552-1.057-3.763-3.981-2.706-6.532l18.838-45.477      c1.056-2.552,3.986-3.763,6.532-2.706c2.552,1.057,3.763,3.981,2.706,6.532l-18.838,45.477      C285.191,170.205,283.329,171.367,281.367,171.367z" fill="#384169"/></g></g><g><g><path d="M212.932,336.585c-0.638,0-1.285-0.122-1.911-0.382c-2.552-1.057-3.763-3.981-2.706-6.532l17.693-42.716      c1.056-2.552,3.981-3.764,6.532-2.706c2.552,1.057,3.763,3.981,2.706,6.532l-17.693,42.716      C216.756,335.423,214.894,336.585,212.932,336.585z" fill="#384169"/></g></g><g><g><path d="M360.764,276.014c-0.638,0-1.285-0.122-1.911-0.382l-43.516-18.024      c-2.552-1.057-3.763-3.981-2.706-6.532c1.056-2.552,3.981-3.763,6.532-2.706l43.516,18.024c2.552,1.057,3.763,3.981,2.706,6.532      C364.588,274.852,362.726,276.014,360.764,276.014z" fill="#384169"/></g></g><g><g><path d="M194.745,207.247c-0.638,0-1.286-0.122-1.911-0.382l-44.66-18.499c-2.552-1.057-3.763-3.981-2.706-6.532      c1.056-2.552,3.985-3.764,6.532-2.706l44.66,18.499c2.552,1.057,3.763,3.981,2.706,6.532      C198.569,206.085,196.707,207.247,194.745,207.247z" fill="#384169"/></g></g></g><g><g><g><path d="M231.74,132.46c-0.561-2.7,1.18-5.351,3.88-5.9l0,0c2.71-0.56,5.35,1.181,5.91,3.891l0,0      c0.56,2.699-1.181,5.34-3.891,5.899l0,0c-0.34,0.07-0.68,0.101-1.02,0.101l0,0C234.3,136.45,232.22,134.83,231.74,132.46z       M227.7,112.87c-0.561-2.7,1.18-5.351,3.89-5.9l0,0c2.7-0.56,5.35,1.18,5.9,3.89l0,0c0.56,2.7-1.181,5.341-3.891,5.9l0,0      c-0.34,0.07-0.68,0.11-1.01,0.11l0,0C230.27,116.859,228.189,115.24,227.7,112.87z M223.66,93.279      c-0.551-2.699,1.189-5.34,3.89-5.899l0,0c2.71-0.561,5.35,1.18,5.91,3.89l0,0c0.56,2.7-1.19,5.34-3.891,5.9l0,0      c-0.34,0.07-0.68,0.109-1.02,0.109l0,0C226.229,97.279,224.149,95.649,223.66,93.279z M219.63,73.7      c-0.561-2.71,1.18-5.351,3.89-5.91l0,0c2.7-0.561,5.351,1.18,5.9,3.89l0,0c0.56,2.7-1.18,5.35-3.88,5.9l0,0      c-0.351,0.069-0.681,0.109-1.021,0.109l0,0C222.2,77.689,220.109,76.06,219.63,73.7z" fill="#384169"/></g></g><g><g><path d="M285.51,393.49c-0.56-2.711,1.18-5.351,3.89-5.91l0,0c2.7-0.551,5.341,1.189,5.9,3.89l0,0      c0.56,2.71-1.18,5.35-3.89,5.91l0,0c-0.341,0.07-0.681,0.1-1.011,0.1l0,0C288.069,397.479,285.99,395.85,285.51,393.49z       M281.47,373.899c-0.56-2.699,1.18-5.35,3.89-5.909l0,0c2.7-0.551,5.351,1.189,5.9,3.89l0,0c0.56,2.71-1.18,5.35-3.88,5.91l0,0      c-0.34,0.069-0.68,0.1-1.021,0.1l0,0C284.04,377.89,281.96,376.26,281.47,373.899z M277.439,354.31      c-0.56-2.7,1.181-5.35,3.88-5.899l0,0c2.711-0.561,5.351,1.18,5.91,3.88l0,0c0.561,2.71-1.18,5.35-3.89,5.91l0,0      c-0.34,0.069-0.68,0.1-1.01,0.1l0,0C280,358.3,277.92,356.67,277.439,354.31z M273.399,334.72c-0.56-2.7,1.19-5.35,3.891-5.9      l0,0c2.7-0.56,5.35,1.181,5.899,3.891l0,0c0.561,2.7-1.18,5.34-3.88,5.899l0,0c-0.34,0.07-0.68,0.101-1.02,0.101l0,0      C275.97,338.71,273.89,337.09,273.399,334.72z" fill="#384169"/></g></g><g><g><path d="M348.54,209.359c-0.561-2.699,1.18-5.35,3.89-5.899l0,0c2.7-0.561,5.351,1.18,5.9,3.88l0,0      c0.56,2.71-1.181,5.35-3.891,5.91l0,0c-0.34,0.069-0.67,0.1-1.01,0.1l0,0C351.109,213.35,349.02,211.729,348.54,209.359z       M368.12,205.33c-0.551-2.71,1.189-5.351,3.89-5.91l0,0c2.71-0.561,5.35,1.18,5.91,3.89l0,0c0.56,2.7-1.18,5.351-3.89,5.9l0,0      c-0.341,0.069-0.681,0.109-1.011,0.109l0,0C370.689,209.319,368.609,207.689,368.12,205.33z M387.71,201.29      c-0.55-2.7,1.189-5.351,3.89-5.91l0,0c2.71-0.55,5.351,1.189,5.91,3.89l0,0c0.56,2.71-1.19,5.351-3.89,5.91l0,0      c-0.34,0.07-0.681,0.1-1.011,0.1l0,0C390.28,205.279,388.2,203.649,387.71,201.29z M407.31,197.26      c-0.56-2.71,1.181-5.35,3.88-5.91l0,0c2.71-0.56,5.351,1.18,5.91,3.891l0,0c0.561,2.699-1.189,5.35-3.89,5.909l0,0      c-0.34,0.061-0.68,0.101-1.01,0.101l0,0C409.87,201.25,407.79,199.62,407.31,197.26z" fill="#384169"/></g></g><g><g><path d="M85.149,263.62c-0.56-2.7,1.181-5.351,3.891-5.91l0,0c2.7-0.55,5.35,1.189,5.899,3.89l0,0      c0.561,2.71-1.18,5.351-3.88,5.91l0,0c-0.34,0.07-0.68,0.1-1.02,0.1l0,0C87.72,267.609,85.64,265.979,85.149,263.62z       M104.74,259.58c-0.561-2.7,1.18-5.34,3.88-5.9l0,0c2.71-0.56,5.35,1.18,5.91,3.89l0,0c0.56,2.7-1.181,5.341-3.891,5.9l0,0      c-0.34,0.07-0.67,0.11-1.01,0.11l0,0C107.31,263.58,105.229,261.95,104.74,259.58z M124.33,255.55      c-0.561-2.71,1.18-5.35,3.88-5.91l0,0c2.71-0.55,5.35,1.19,5.91,3.89l0,0c0.56,2.711-1.181,5.351-3.891,5.91l0,0      c-0.34,0.07-0.68,0.101-1.01,0.101l0,0C126.89,259.54,124.81,257.91,124.33,255.55z M143.92,251.52      c-0.561-2.71,1.18-5.359,3.88-5.91l0,0c2.71-0.56,5.35,1.181,5.91,3.891l0,0c0.56,2.7-1.18,5.35-3.891,5.899l0,0      c-0.34,0.07-0.68,0.11-1.02,0.11l0,0C146.479,255.51,144.399,253.88,143.92,251.52z" fill="#384169"/></g></g><g><g><path d="M308.21,149.89c-2.311-1.52-2.94-4.62-1.43-6.93l0,0c1.52-2.3,4.619-2.94,6.93-1.431l0,0      c2.31,1.53,2.939,4.62,1.43,6.931l0,0c-0.96,1.46-2.56,2.25-4.18,2.25l0,0C310.01,150.71,309.06,150.45,308.21,149.89z       M319.21,133.18c-2.311-1.52-2.95-4.62-1.43-6.92l0,0c1.52-2.31,4.619-2.95,6.93-1.43l0,0c2.3,1.52,2.939,4.62,1.42,6.93l0,0      c-0.96,1.46-2.55,2.25-4.18,2.25l0,0C321.01,134.01,320.05,133.74,319.21,133.18z M330.2,116.479      c-2.301-1.52-2.94-4.62-1.42-6.93l0,0c1.52-2.3,4.619-2.94,6.93-1.42l0,0c2.3,1.52,2.939,4.61,1.42,6.92l0,0      c-0.96,1.46-2.55,2.25-4.18,2.25l0,0C332.01,117.3,331.05,117.04,330.2,116.479z M341.2,99.77c-2.301-1.51-2.94-4.62-1.42-6.92      l0,0c1.51-2.31,4.619-2.95,6.92-1.43l0,0c2.31,1.52,2.949,4.62,1.43,6.93l0,0c-0.96,1.46-2.561,2.25-4.18,2.25l0,0      C343,100.6,342.05,100.33,341.2,99.77z" fill="#384169"/></g></g><g><g><path d="M161.28,373.069c-2.311-1.52-2.95-4.619-1.431-6.93l0,0c1.521-2.31,4.62-2.95,6.92-1.43l0,0      c2.311,1.52,2.95,4.62,1.431,6.93l0,0c-0.96,1.46-2.551,2.25-4.181,2.25l0,0C163.08,373.89,162.12,373.62,161.28,373.069z       M172.27,356.359c-2.3-1.52-2.939-4.619-1.42-6.92l0,0c1.521-2.31,4.62-2.949,6.92-1.43l0,0c2.311,1.52,2.95,4.62,1.431,6.93      l0,0c-0.96,1.45-2.561,2.24-4.181,2.24l0,0C174.08,357.18,173.12,356.92,172.27,356.359z M183.27,339.649      c-2.31-1.51-2.939-4.609-1.43-6.92l0,0c1.52-2.31,4.62-2.939,6.93-1.43l0,0c2.311,1.52,2.95,4.62,1.431,6.93l0,0      c-0.96,1.46-2.561,2.25-4.181,2.25l0,0C185.069,340.479,184.12,340.21,183.27,339.649z M194.27,322.95      c-2.31-1.521-2.95-4.62-1.43-6.921l0,0c1.52-2.31,4.62-2.949,6.93-1.43l0,0c2.3,1.521,2.95,4.62,1.431,6.92l0,0      c-0.96,1.46-2.561,2.25-4.181,2.25l0,0C196.069,323.77,195.12,323.51,194.27,322.95z" fill="#384169"/></g></g><g><g><path d="M386.54,319.85c-2.311-1.52-2.95-4.62-1.431-6.93l0,0c1.521-2.3,4.62-2.94,6.931-1.42l0,0      c2.31,1.52,2.939,4.62,1.42,6.92l0,0c-0.96,1.46-2.55,2.25-4.18,2.25l0,0C388.34,320.67,387.39,320.41,386.54,319.85z       M369.83,308.85c-2.3-1.52-2.94-4.62-1.42-6.92l0,0c1.52-2.31,4.62-2.95,6.92-1.43l0,0c2.31,1.52,2.95,4.62,1.43,6.93l0,0      c-0.96,1.46-2.55,2.25-4.18,2.25l0,0C371.64,309.68,370.68,309.41,369.83,308.85z M353.13,297.85      c-2.311-1.51-2.94-4.609-1.43-6.92l0,0c1.52-2.31,4.619-2.95,6.93-1.43l0,0c2.31,1.52,2.939,4.62,1.43,6.93l0,0      c-0.97,1.46-2.56,2.25-4.18,2.25l0,0C354.93,298.68,353.979,298.41,353.13,297.85z M336.43,286.859      c-2.31-1.52-2.95-4.619-1.43-6.93l0,0c1.52-2.3,4.62-2.939,6.92-1.43l0,0c2.31,1.52,2.95,4.62,1.43,6.93l0,0      c-0.96,1.46-2.55,2.25-4.18,2.25l0,0C338.229,287.68,337.27,287.41,336.43,286.859z" fill="#384169"/></g></g><g><g><path d="M160.51,171.04c-2.3-1.521-2.94-4.62-1.42-6.931l0,0c1.51-2.3,4.62-2.939,6.92-1.42l0,0      c2.31,1.521,2.95,4.62,1.43,6.92l0,0c-0.96,1.46-2.55,2.261-4.18,2.261l0,0C162.319,171.87,161.359,171.6,160.51,171.04z       M143.81,160.04c-2.31-1.521-2.95-4.62-1.43-6.92l0,0c1.52-2.311,4.62-2.95,6.93-1.431l0,0c2.3,1.521,2.94,4.62,1.42,6.931l0,0      c-0.96,1.46-2.55,2.25-4.18,2.25l0,0C145.609,160.87,144.66,160.6,143.81,160.04z M127.1,149.04      c-2.3-1.511-2.939-4.62-1.42-6.92l0,0c1.521-2.311,4.62-2.95,6.92-1.431l0,0c2.311,1.521,2.95,4.62,1.431,6.931l0,0      c-0.961,1.46-2.551,2.25-4.181,2.25l0,0C128.91,149.87,127.95,149.6,127.1,149.04z M110.399,138.05      c-2.31-1.521-2.939-4.62-1.43-6.93l0,0c1.521-2.301,4.62-2.94,6.93-1.42l0,0c2.311,1.51,2.94,4.619,1.431,6.92l0,0      c-0.971,1.46-2.561,2.25-4.181,2.25l0,0C112.2,138.87,111.25,138.609,110.399,138.05z" fill="#384169"/></g></g><g><g><path d="M196.95,149.27c-1.551-2.29-0.95-5.399,1.33-6.95l0,0c2.289-1.55,5.39-0.949,6.949,1.33l0,0      c1.54,2.29,0.95,5.4-1.34,6.95l0,0c-0.859,0.58-1.83,0.86-2.8,0.86l0,0C199.49,151.46,197.92,150.689,196.95,149.27z       M185.729,132.71c-1.55-2.28-0.96-5.391,1.33-6.94l0,0c2.28-1.55,5.391-0.95,6.94,1.33l0,0c1.55,2.29,0.95,5.4-1.33,6.95l0,0      c-0.86,0.58-1.84,0.86-2.8,0.86l0,0C188.27,134.91,186.689,134.14,185.729,132.71z M174.5,116.16c-1.55-2.29-0.95-5.4,1.33-6.95      l0,0c2.29-1.55,5.399-0.95,6.95,1.34l0,0c1.55,2.28,0.949,5.39-1.341,6.94l0,0c-0.859,0.579-1.83,0.859-2.8,0.859l0,0      C177.04,118.35,175.47,117.59,174.5,116.16z M163.27,99.609c-1.54-2.29-0.95-5.399,1.34-6.949l0,0      c2.28-1.551,5.391-0.95,6.94,1.33l0,0c1.55,2.289,0.95,5.399-1.33,6.949l0,0c-0.86,0.58-1.84,0.86-2.8,0.86l0,0      C165.819,101.8,164.24,101.029,163.27,99.609z" fill="#384169"/></g></g><g><g><path d="M346.649,370.029c-1.56-2.279-0.96-5.39,1.33-6.939l0,0c2.28-1.55,5.391-0.96,6.94,1.33l0,0      c1.55,2.28,0.96,5.39-1.33,6.939l0,0c-0.86,0.591-1.84,0.87-2.8,0.87l0,0C349.189,372.229,347.609,371.46,346.649,370.029z       M335.42,353.479c-1.55-2.29-0.95-5.399,1.33-6.95l0,0c2.29-1.55,5.399-0.949,6.95,1.341l0,0c1.55,2.279,0.949,5.39-1.33,6.939      l0,0c-0.86,0.58-1.84,0.86-2.811,0.86l0,0C337.96,355.67,336.39,354.899,335.42,353.479z M324.2,336.93      c-1.551-2.29-0.96-5.4,1.33-6.95l0,0c2.279-1.55,5.39-0.95,6.939,1.33l0,0c1.55,2.29,0.96,5.4-1.33,6.95l0,0      c-0.859,0.58-1.83,0.86-2.8,0.86l0,0C326.74,339.12,325.16,338.35,324.2,336.93z M312.97,320.37      c-1.55-2.28-0.95-5.391,1.33-6.94l0,0c2.29-1.55,5.4-0.96,6.95,1.33l0,0c1.55,2.28,0.95,5.39-1.33,6.94l0,0      c-0.86,0.59-1.84,0.869-2.811,0.869l0,0C315.51,322.569,313.939,321.8,312.97,320.37z" fill="#384169"/></g></g><g><g><path d="M334.29,175.609c-1.55-2.279-0.95-5.39,1.33-6.939l0,0c2.29-1.55,5.399-0.95,6.949,1.33l0,0      c1.54,2.29,0.95,5.399-1.34,6.939l0,0c-0.859,0.59-1.83,0.87-2.8,0.87l0,0C336.83,177.81,335.26,177.04,334.29,175.609z       M350.84,164.39c-1.55-2.28-0.95-5.399,1.33-6.939l0,0c2.29-1.561,5.399-0.96,6.95,1.329l0,0c1.55,2.28,0.949,5.391-1.33,6.94      l0,0c-0.86,0.59-1.84,0.86-2.8,0.86l0,0C353.38,166.58,351.81,165.819,350.84,164.39z M367.399,153.17      c-1.55-2.29-0.96-5.4,1.33-6.95l0,0c2.28-1.55,5.391-0.95,6.94,1.33l0,0c1.55,2.29,0.96,5.4-1.33,6.95l0,0      c-0.86,0.58-1.83,0.859-2.8,0.859l0,0C369.939,155.359,368.359,154.59,367.399,153.17z M383.95,141.939      c-1.551-2.29-0.95-5.39,1.33-6.939l0,0c2.289-1.55,5.39-0.96,6.939,1.33l0,0c1.55,2.279,0.96,5.39-1.33,6.939l0,0      c-0.859,0.59-1.83,0.86-2.8,0.86l0,0C386.49,144.13,384.92,143.37,383.95,141.939z" fill="#384169"/></g></g><g><g><path d="M112.46,326.029c-1.55-2.279-0.96-5.39,1.33-6.939l0,0c2.279-1.55,5.39-0.95,6.939,1.33l0,0      c1.551,2.29,0.95,5.39-1.33,6.939l0,0c-0.859,0.591-1.84,0.87-2.8,0.87l0,0C115,328.229,113.42,327.46,112.46,326.029z       M129.01,314.81c-1.55-2.29-0.95-5.399,1.33-6.95l0,0c2.29-1.55,5.39-0.949,6.94,1.341l0,0c1.55,2.279,0.96,5.39-1.33,6.939l0,0      c-0.86,0.59-1.83,0.86-2.801,0.86l0,0C131.55,317,129.97,316.229,129.01,314.81z M145.56,303.58      c-1.55-2.28-0.95-5.391,1.34-6.94l0,0c2.28-1.55,5.391-0.95,6.94,1.33l0,0c1.55,2.29,0.95,5.4-1.33,6.95l0,0      c-0.86,0.58-1.84,0.859-2.81,0.859l0,0C148.1,305.779,146.53,305.01,145.56,303.58z M162.12,292.359      c-1.551-2.279-0.96-5.39,1.33-6.939l0,0c2.279-1.55,5.39-0.96,6.939,1.33l0,0c1.55,2.279,0.96,5.39-1.33,6.939l0,0      c-0.859,0.59-1.84,0.87-2.8,0.87l0,0C164.66,294.56,163.08,293.79,162.12,292.359z" fill="#384169"/></g></g><g><g><path d="M274.27,136.1c-2.71-0.52-4.489-3.14-3.97-5.85l0,0c0.52-2.71,3.14-4.49,5.85-3.971l0,0      c2.721,0.521,4.5,3.141,3.971,5.851l0,0c-0.45,2.399-2.551,4.06-4.9,4.06l0,0C274.91,136.189,274.59,136.16,274.27,136.1z       M278.04,116.46c-2.71-0.521-4.49-3.141-3.971-5.851l0,0c0.521-2.72,3.141-4.489,5.851-3.97l0,0      c2.72,0.521,4.49,3.14,3.97,5.851l0,0c-0.46,2.39-2.55,4.06-4.899,4.06l0,0C278.68,116.55,278.359,116.52,278.04,116.46z       M281.81,96.819c-2.71-0.52-4.49-3.14-3.97-5.85l0,0c0.52-2.72,3.14-4.49,5.85-3.97l0,0c2.71,0.52,4.49,3.14,3.971,5.85l0,0      c-0.46,2.391-2.551,4.061-4.9,4.061l0,0C282.439,96.91,282.13,96.88,281.81,96.819z M285.58,77.18      c-2.721-0.53-4.49-3.15-3.971-5.86l0,0c0.521-2.71,3.141-4.489,5.851-3.96l0,0c2.71,0.511,4.49,3.131,3.97,5.851l0,0      c-0.46,2.39-2.56,4.06-4.91,4.06l0,0C286.21,77.27,285.89,77.24,285.58,77.18z" fill="#384169"/></g></g><g><g><path d="M224.02,398.06c-2.71-0.53-4.489-3.14-3.97-5.859l0,0c0.52-2.71,3.14-4.48,5.85-3.971l0,0      c2.71,0.53,4.49,3.141,3.971,5.86l0,0c-0.46,2.39-2.561,4.06-4.91,4.06l0,0C224.649,398.149,224.33,398.12,224.02,398.06z       M227.78,378.41c-2.711-0.521-4.49-3.141-3.961-5.851l0,0c0.521-2.71,3.141-4.49,5.851-3.97l0,0c2.71,0.52,4.49,3.14,3.97,5.85      l0,0c-0.46,2.4-2.56,4.061-4.91,4.061l0,0C228.42,378.5,228.1,378.47,227.78,378.41z M231.55,358.77      c-2.71-0.52-4.49-3.14-3.96-5.85l0,0c0.52-2.71,3.14-4.49,5.85-3.97l0,0c2.71,0.52,4.49,3.14,3.96,5.85l0,0      c-0.449,2.4-2.55,4.06-4.899,4.06l0,0C232.189,358.859,231.87,358.83,231.55,358.77z M235.319,339.13      c-2.71-0.521-4.489-3.14-3.96-5.851l0,0c0.511-2.71,3.131-4.489,5.851-3.97l0,0c2.71,0.521,4.49,3.141,3.97,5.851l0,0      c-0.47,2.399-2.56,4.06-4.91,4.06l0,0C235.96,339.22,235.64,339.189,235.319,339.13z" fill="#384169"/></g></g><g><g><path d="M411.68,263.149c-2.71-0.52-4.49-3.14-3.97-5.85l0,0c0.52-2.72,3.14-4.49,5.85-3.97l0,0      c2.721,0.52,4.49,3.14,3.971,5.85l0,0c-0.461,2.39-2.551,4.061-4.9,4.061l0,0C412.319,263.24,412,263.21,411.68,263.149z       M392.04,259.38c-2.71-0.521-4.49-3.14-3.971-5.851l0,0c0.521-2.71,3.141-4.489,5.851-3.97l0,0      c2.71,0.521,4.49,3.141,3.97,5.851l0,0c-0.46,2.399-2.55,4.06-4.899,4.06l0,0C392.68,259.47,392.359,259.439,392.04,259.38z       M372.399,255.609c-2.71-0.52-4.489-3.14-3.97-5.85l0,0c0.521-2.71,3.14-4.49,5.851-3.97l0,0c2.71,0.52,4.489,3.14,3.97,5.859      l0,0c-0.46,2.391-2.55,4.051-4.9,4.051l0,0C373.03,255.7,372.72,255.67,372.399,255.609z M352.76,251.85      c-2.71-0.52-4.49-3.149-3.97-5.859l0,0c0.52-2.711,3.14-4.49,5.85-3.971l0,0c2.71,0.53,4.49,3.141,3.97,5.86l0,0      c-0.46,2.39-2.56,4.06-4.909,4.06l0,0C353.39,251.939,353.069,251.91,352.76,251.85z" fill="#384169"/></g></g><g><g><path d="M146.64,212.3c-2.71-0.521-4.49-3.14-3.97-5.85l0,0c0.52-2.71,3.14-4.49,5.86-3.971l0,0      c2.71,0.521,4.479,3.141,3.96,5.86l0,0c-0.45,2.39-2.551,4.05-4.9,4.05l0,0C147.28,212.39,146.96,212.359,146.64,212.3z       M127,208.54c-2.71-0.521-4.49-3.141-3.97-5.86l0,0c0.52-2.71,3.14-4.49,5.85-3.97l0,0c2.72,0.52,4.49,3.149,3.979,5.859l0,0      c-0.46,2.391-2.56,4.061-4.909,4.061l0,0C127.64,208.63,127.319,208.6,127,208.54z M107.359,204.77      c-2.71-0.52-4.489-3.14-3.97-5.85l0,0c0.521-2.72,3.141-4.49,5.851-3.97l0,0c2.72,0.52,4.489,3.14,3.97,5.85l0,0      c-0.46,2.39-2.55,4.06-4.9,4.06l0,0C108,204.859,107.68,204.83,107.359,204.77z M87.72,201c-2.71-0.521-4.49-3.141-3.97-5.851      l0,0c0.52-2.71,3.14-4.489,5.85-3.97l0,0c2.71,0.521,4.49,3.14,3.97,5.85l0,0c-0.46,2.4-2.55,4.061-4.899,4.061l0,0      C88.35,201.09,88.04,201.06,87.72,201z" fill="#384169"/></g></g></g><g><g><g><path d="M256,94.903c-2.762,0-5-2.238-5-5V59c0-2.762,2.238-5,5-5s5,2.238,5,5v30.903      C261,92.665,258.762,94.903,256,94.903z" fill="#384169"/></g></g><g><g><path d="M425,233h-32.85c-2.762,0-5-2.238-5-5s2.238-5,5-5H425c2.762,0,5,2.238,5,5S427.762,233,425,233z" fill="#384169"/></g></g><g><g><path d="M119.834,233H87c-2.762,0-5-2.238-5-5s2.238-5,5-5h32.834c2.762,0,5,2.238,5,5S122.596,233,119.834,233z      " fill="#384169"/></g></g><g><g><path d="M353.243,135.757c-1.279,0-2.56-0.488-3.535-1.465c-1.953-1.952-1.953-5.118,0-7.07l22.258-22.258      c1.951-1.953,5.119-1.953,7.07,0c1.953,1.952,1.953,5.118,0,7.07l-22.258,22.258      C355.803,135.269,354.522,135.757,353.243,135.757z" fill="#384169"/></g></g><g><g><path d="M136.499,352.501c-1.279,0-2.56-0.488-3.535-1.465c-1.953-1.952-1.953-5.118,0-7.07l24.189-24.189      c1.951-1.953,5.119-1.953,7.07,0c1.953,1.952,1.953,5.118,0,7.07l-24.189,24.189      C139.059,352.013,137.778,352.501,136.499,352.501z" fill="#384169"/></g></g><g><g><path d="M375.501,352.501c-1.279,0-2.56-0.488-3.535-1.465l-24.189-24.189c-1.953-1.952-1.953-5.118,0-7.07      c1.951-1.953,5.119-1.953,7.07,0l24.189,24.189c1.953,1.952,1.953,5.118,0,7.07C378.061,352.013,376.78,352.501,375.501,352.501      z" fill="#384169"/></g></g><g><g><path d="M158.757,135.757c-1.279,0-2.56-0.488-3.535-1.465l-22.258-22.258c-1.953-1.952-1.953-5.118,0-7.07      c1.951-1.953,5.119-1.953,7.07,0l22.258,22.258c1.953,1.952,1.953,5.118,0,7.07      C161.316,135.269,160.036,135.757,158.757,135.757z" fill="#384169"/></g></g><g><g><path d="M203.198,105.522c-1.962,0-3.824-1.162-4.621-3.088l-11.87-28.657c-1.057-2.551,0.154-5.476,2.706-6.532      c2.549-1.059,5.476,0.154,6.532,2.706l11.87,28.657c1.057,2.551-0.154,5.476-2.706,6.532      C204.484,105.4,203.836,105.522,203.198,105.522z" fill="#384169"/></g></g><g><g><path d="M320.676,389.137c-1.962,0-3.824-1.162-4.621-3.088l-13.235-31.953      c-1.057-2.551,0.154-5.476,2.706-6.532c2.549-1.06,5.477,0.154,6.532,2.706l13.235,31.953c1.057,2.551-0.154,5.476-2.706,6.532      C321.962,389.015,321.313,389.137,320.676,389.137z" fill="#384169"/></g></g><g><g><path d="M382.507,180.601c-1.962,0-3.824-1.162-4.621-3.088c-1.057-2.551,0.154-5.476,2.706-6.532l29.631-12.273      c2.549-1.059,5.477,0.154,6.532,2.706c1.057,2.551-0.154,5.476-2.706,6.532l-29.631,12.273      C383.793,180.479,383.145,180.601,382.507,180.601z" fill="#384169"/></g></g><g><g><path d="M99.866,297.675c-1.962,0-3.824-1.162-4.621-3.088c-1.057-2.551,0.154-5.476,2.706-6.532l30.998-12.84      c2.549-1.058,5.476,0.154,6.532,2.706c1.057,2.551-0.154,5.476-2.706,6.532l-30.998,12.84      C101.152,297.553,100.504,297.675,99.866,297.675z" fill="#384169"/></g></g><g><g><path d="M308.802,105.521c-0.638,0-1.286-0.122-1.911-0.382c-2.552-1.057-3.763-3.981-2.706-6.532l11.87-28.656      c1.056-2.552,3.985-3.764,6.532-2.706c2.552,1.057,3.763,3.981,2.706,6.532l-11.87,28.656      C312.626,104.359,310.764,105.521,308.802,105.521z" fill="#384169"/></g></g><g><g><path d="M191.324,389.137c-0.638,0-1.286-0.122-1.911-0.382c-2.552-1.057-3.763-3.981-2.706-6.532l13.236-31.954      c1.056-2.551,3.986-3.764,6.532-2.706c2.552,1.057,3.763,3.981,2.706,6.532l-13.236,31.954      C195.148,387.975,193.286,389.137,191.324,389.137z" fill="#384169"/></g></g><g><g><path d="M412.134,297.675c-0.638,0-1.286-0.122-1.911-0.382l-30.998-12.84c-2.552-1.057-3.763-3.981-2.706-6.532      c1.056-2.551,3.985-3.763,6.532-2.706l30.998,12.84c2.552,1.057,3.763,3.981,2.706,6.532      C415.958,296.513,414.096,297.675,412.134,297.675z" fill="#384169"/></g></g><g><g><path d="M129.493,180.601c-0.638,0-1.285-0.122-1.911-0.382l-29.631-12.273      c-2.552-1.057-3.763-3.981-2.706-6.532c1.057-2.552,3.981-3.764,6.532-2.706l29.631,12.273c2.552,1.057,3.763,3.981,2.706,6.532      C133.317,179.438,131.455,180.601,129.493,180.601z" fill="#384169"/></g></g></g><g><g><g><g><g><g><g><path d="M256.406,40.635c-3.575,0-6.473-2.896-6.473-6.473c0-3.574,2.898-6.472,6.473-6.472          c3.574,0,6.473,2.898,6.473,6.472C262.879,37.738,259.98,40.635,256.406,40.635z" fill="#384169"/></g></g></g></g><g><g><g><g><path d="M443.434,227.662c0-3.575,2.896-6.473,6.473-6.473c3.574,0,6.472,2.898,6.472,6.473          c0,3.574-2.898,6.473-6.472,6.473C446.33,234.135,443.434,231.237,443.434,227.662z" fill="#384169"/></g></g></g><g><g><g><path d="M56.434,227.662c0-3.575,2.896-6.473,6.473-6.473c3.574,0,6.472,2.898,6.472,6.473          c0,3.574-2.898,6.473-6.472,6.473C59.33,234.135,56.434,231.237,56.434,227.662z" fill="#384169"/></g></g></g></g></g><g><g><g><g><g><path d="M388.655,95.414c-2.528-2.528-2.529-6.625,0-9.154c2.527-2.527,6.625-2.528,9.153,0          c2.527,2.527,2.528,6.626,0,9.153C395.28,97.943,391.182,97.941,388.655,95.414z" fill="#384169"/></g></g></g><g><g><g><path d="M115.004,369.064c-2.528-2.528-2.529-6.625,0-9.154c2.527-2.527,6.625-2.528,9.153,0          c2.527,2.527,2.528,6.626,0,9.153C121.629,371.593,117.532,371.592,115.004,369.064z" fill="#384169"/></g></g></g></g><g><g><g><g><path d="M388.655,359.911c2.528-2.528,6.625-2.529,9.154,0c2.527,2.527,2.528,6.625,0,9.153          c-2.527,2.527-6.626,2.528-9.153,0C386.126,366.536,386.127,362.438,388.655,359.911z" fill="#384169"/></g></g></g><g><g><g><path d="M115.004,86.261c2.528-2.528,6.625-2.529,9.154,0c2.527,2.527,2.528,6.625,0,9.153          c-2.527,2.527-6.626,2.528-9.153,0C112.476,92.885,112.477,88.788,115.004,86.261z" fill="#384169"/></g></g></g></g></g></g><g><g><g><g><g><g><path d="M184.834,54.871c-3.303,1.368-7.088-0.199-8.457-3.503c-1.368-3.302,0.2-7.088,3.503-8.457          c3.302-1.368,7.089,0.2,8.457,3.503C189.705,49.718,188.136,53.504,184.834,54.871z" fill="#384169"/></g></g></g><g><g><g><path d="M332.932,412.413c-3.303,1.368-7.088-0.199-8.457-3.503c-1.368-3.302,0.2-7.088,3.503-8.457          c3.302-1.368,7.089,0.2,8.457,3.503C337.804,407.26,336.235,411.045,332.932,412.413z" fill="#384169"/></g></g></g></g><g><g><g><g><path d="M429.197,156.09c-1.368-3.303,0.199-7.088,3.503-8.457c3.302-1.368,7.088,0.2,8.457,3.503          c1.368,3.302-0.2,7.089-3.503,8.457C434.35,160.962,430.565,159.392,429.197,156.09z" fill="#384169"/></g></g></g><g><g><g><path d="M71.656,304.189c-1.368-3.303,0.199-7.088,3.503-8.457c3.302-1.368,7.088,0.2,8.457,3.503          c1.368,3.302-0.2,7.089-3.503,8.457C76.809,309.06,73.024,307.491,71.656,304.189z" fill="#384169"/></g></g></g></g></g><g><g><g><g><g><path d="M327.979,54.871c-3.303-1.368-4.872-5.153-3.503-8.457c1.368-3.302,5.154-4.871,8.457-3.503          c3.302,1.368,4.871,5.154,3.503,8.456C335.067,54.672,331.281,56.239,327.979,54.871z" fill="#384169"/></g></g></g><g><g><g><path d="M179.88,412.413c-3.303-1.368-4.872-5.153-3.503-8.457c1.368-3.302,5.154-4.871,8.457-3.503          c3.302,1.368,4.871,5.154,3.503,8.456C186.968,412.214,183.182,413.781,179.88,412.413z" fill="#384169"/></g></g></g></g><g><g><g><g><path d="M429.197,299.235c1.368-3.303,5.153-4.872,8.457-3.503c3.302,1.368,4.871,5.154,3.503,8.457          c-1.368,3.302-5.154,4.871-8.456,3.503C429.396,306.323,427.829,302.537,429.197,299.235z" fill="#384169"/></g></g></g><g><g><g><path d="M71.656,151.136c1.368-3.303,5.153-4.872,8.457-3.503c3.302,1.368,4.871,5.154,3.503,8.457          c-1.368,3.302-5.154,4.871-8.456,3.503C71.855,158.225,70.288,154.438,71.656,151.136z" fill="#384169"/></g></g></g></g></g></g></g><g><g><path d="M251,493c0-2.76,2.24-5,5-5l0,0c2.76,0,5,2.24,5,5l0,0c0,2.76-2.24,5-5,5l0,0     C253.24,498,251,495.76,251,493z M251,473c0-2.76,2.24-5,5-5l0,0c2.76,0,5,2.24,5,5l0,0c0,2.76-2.24,5-5,5l0,0     C253.24,478,251,475.76,251,473z M251,453c0-2.76,2.24-5,5-5l0,0c2.76,0,5,2.24,5,5l0,0c0,2.76-2.24,5-5,5l0,0     C253.24,458,251,455.76,251,453z M251,433c0-2.76,2.24-5,5-5l0,0c2.76,0,5,2.24,5,5l0,0c0,2.76-2.24,5-5,5l0,0     C253.24,438,251,435.76,251,433z M251,413c0-2.76,2.24-5,5-5l0,0c2.76,0,5,2.24,5,5l0,0c0,2.76-2.24,5-5,5l0,0     C253.24,418,251,415.76,251,413z M251,393c0-2.76,2.24-5,5-5l0,0c2.76,0,5,2.24,5,5l0,0c0,2.76-2.24,5-5,5l0,0     C253.24,398,251,395.76,251,393z M251,373c0-2.76,2.24-5,5-5l0,0c2.76,0,5,2.24,5,5l0,0c0,2.76-2.24,5-5,5l0,0     C253.24,378,251,375.76,251,373z M251,353c0-2.76,2.24-5,5-5l0,0c2.76,0,5,2.24,5,5l0,0c0,2.76-2.24,5-5,5l0,0     C253.24,358,251,355.76,251,353z M251,333c0-2.76,2.24-5,5-5l0,0c2.76,0,5,2.24,5,5l0,0c0,2.76-2.24,5-5,5l0,0     C253.24,338,251,335.76,251,333z M251,313c0-2.76,2.24-5,5-5l0,0c2.76,0,5,2.24,5,5l0,0c0,2.76-2.24,5-5,5l0,0     C253.24,318,251,315.76,251,313z M251,293c0-2.76,2.24-5,5-5l0,0c2.76,0,5,2.24,5,5l0,0c0,2.76-2.24,5-5,5l0,0     C253.24,298,251,295.76,251,293z M251,273c0-2.76,2.24-5,5-5l0,0c2.76,0,5,2.24,5,5l0,0c0,2.76-2.24,5-5,5l0,0     C253.24,278,251,275.76,251,273z" fill="#384169"/></g></g><g><g><g><path d="M444.308,458.616c-1.709,0-3.413-0.598-4.875-1.818c-1.564-1.305-2.426-2.969-2.889-3.863      c-1.995-3.854-3.619-7.777-5.189-11.571l-0.864-2.082c-0.221-0.528-0.438-1.102-0.652-1.676      c-0.171-0.454-0.34-0.908-0.514-1.325c-0.028-0.067-0.058-0.144-0.089-0.225c-1.07-0.2-2.154-0.384-3.274-0.573      c-2.27-0.384-4.615-0.781-7.017-1.358c-0.318-0.076-0.754-0.158-1.264-0.258c-4.718-0.921-13.498-2.634-13.779-9.694      c-0.102-2.572,1.331-4.423,1.87-5.12c2.986-3.864,6.506-7.013,9.908-10.057l1.306-1.17c1.397-1.258,2.643-2.362,3.727-3.305      c-1.575-6.642-3.277-16.866-1.704-22.202c1.087-3.683,3.327-5.21,5.016-5.842c2.965-1.11,5.665-0.031,6.853,0.594      c4.576,1.896,13.147,7.96,17.813,11.378c7.119-4.341,14.508-7.532,16.802-8.398c2.06-0.778,4.01-0.955,5.8-0.531      c2.146,0.508,4.18,1.95,5.436,3.858c0.406,0.622,0.724,1.293,0.952,2.006c0.49,1.529,0.565,3.23,0.225,5.057      c-0.449,2.41-2.29,10.244-5.311,18.018c4.187,3.991,11.665,11.361,14.337,15.532c0.823,1.059,2.361,3.529,1.79,6.642      c-0.325,1.773-1.434,4.247-4.868,5.965c-4.917,2.459-15.098,2.611-21.911,2.244c-3.146,6.058-6.915,11.576-11.46,16.792      C448.765,457.603,446.532,458.616,444.308,458.616z M445.92,449.196h0.011H445.92z M415.424,423.089      c1.524,0.445,3.358,0.804,4.172,0.962c0.68,0.133,1.26,0.248,1.685,0.351c2.069,0.497,4.148,0.849,6.349,1.221      c2.021,0.342,4.11,0.695,6.245,1.178c0.781,0.176,1.509,0.537,2.122,1.054l0.068,0.058c1.475,1.234,2.009,2.957,2.398,4.215      c0.044,0.144,0.084,0.277,0.122,0.385c0.188,0.447,0.401,1.013,0.614,1.579c0.173,0.459,0.344,0.919,0.52,1.341l0.875,2.108      c1.352,3.264,2.638,6.371,4.129,9.405c3.878-4.777,7.063-9.857,9.704-15.465c0.897-1.907,2.894-3.059,4.996-2.847      c6.646,0.63,14.423,0.402,18.24-0.437c-2.895-3.719-10.049-10.753-14.405-14.794c-1.561-1.448-2.033-3.725-1.179-5.674      c3.001-6.846,4.979-14.505,5.724-17.831c-3.144,1.317-10.335,4.613-16.546,8.772c-1.768,1.185-4.093,1.12-5.792-0.161      c-4.746-3.578-12.931-9.383-17.1-11.576c-0.153,3.904,0.989,11.599,2.781,18.032c0.531,1.906-0.111,3.945-1.639,5.202      c-0.945,0.778-2.725,2.293-5.832,5.091l-1.329,1.19C419.868,418.666,417.495,420.789,415.424,423.089z M469.403,389.291      L469.403,389.291L469.403,389.291z M426.037,385.811c0.005,0.003,0.01,0.006,0.015,0.01      C426.047,385.816,426.042,385.813,426.037,385.811z" fill="#384169"/></g></g></g><g><g><path d="M382.12,498.55c-2.551-1.06-3.771-3.98-2.71-6.53l0,0c1.05-2.55,3.97-3.77,6.52-2.71l0,0     c2.561,1.05,3.771,3.97,2.72,6.521l0,0c-0.79,1.93-2.659,3.1-4.619,3.1l0,0C383.39,498.93,382.75,498.81,382.12,498.55z      M390.39,480.34c-2.37-1.41-3.14-4.48-1.729-6.85l0,0c1.409-2.37,4.489-3.15,6.859-1.73l0,0c2.37,1.41,3.15,4.48,1.73,6.85l0,0     l0,0l0,0c-0.94,1.57-2.601,2.44-4.3,2.44l0,0C392.08,481.05,391.2,480.819,390.39,480.34z M401.31,463.59     c-2.109-1.79-2.37-4.95-0.58-7.05l0,0c1.79-2.11,4.94-2.37,7.051-0.58l0,0c2.1,1.79,2.359,4.939,0.569,7.05l0,0     c-0.99,1.16-2.39,1.76-3.81,1.76l0,0C403.399,464.77,402.25,464.38,401.31,463.59z M414.84,448.77     c-1.53-2.3-0.91-5.399,1.39-6.93l0,0c2.29-1.53,5.4-0.91,6.931,1.39l0,0c1.529,2.29,0.909,5.4-1.391,6.931l0,0l0,0l0,0     c-0.85,0.569-1.81,0.84-2.76,0.84l0,0C417.39,451,415.8,450.22,414.84,448.77z" fill="#384169"/></g></g><g><g><g><path d="M68.536,458.616c-2.225,0-4.458-1.014-6.175-2.986c-4.544-5.214-8.312-10.732-11.459-16.79      c-6.814,0.368-16.995,0.215-21.911-2.244c-3.435-1.718-4.543-4.191-4.868-5.965c-0.571-3.112,0.967-5.583,1.79-6.642      c2.672-4.171,10.15-11.541,14.337-15.532c-3.021-7.773-4.861-15.608-5.311-18.02c-0.341-1.824-0.266-3.525,0.225-5.056      c0.229-0.712,0.546-1.383,0.942-1.99c1.266-1.923,3.3-3.365,5.45-3.874c1.789-0.425,3.738-0.246,5.795,0.532      c2.294,0.867,9.683,4.058,16.802,8.398c4.666-3.418,13.237-9.482,17.813-11.379c1.188-0.624,3.891-1.702,6.853-0.593      c1.688,0.632,3.929,2.159,5.016,5.842c1.572,5.333-0.13,15.56-1.704,22.202c1.084,0.942,2.329,2.047,3.727,3.305l1.306,1.17      c3.402,3.044,6.922,6.192,9.911,10.061c0.538,0.697,1.968,2.548,1.866,5.114c-0.279,7.062-9.061,8.775-13.778,9.696      c-0.51,0.1-0.945,0.182-1.264,0.258c-2.401,0.577-4.747,0.975-7.017,1.358c-1.12,0.189-2.204,0.373-3.274,0.573      c-0.031,0.081-0.061,0.157-0.089,0.226c-0.174,0.416-0.343,0.87-0.514,1.324c-0.216,0.574-0.432,1.147-0.652,1.675l-0.878,2.114      c-1.566,3.784-3.186,7.696-5.177,11.542c-0.462,0.893-1.323,2.557-2.889,3.862C71.947,458.019,70.244,458.616,68.536,458.616z       M53.895,428.61c1.921,0,3.691,1.106,4.521,2.869c2.642,5.609,5.829,10.691,9.704,15.465c1.486-3.025,2.769-6.121,4.115-9.375      l0.889-2.141c0.176-0.42,0.347-0.88,0.52-1.339c0.213-0.566,0.426-1.132,0.643-1.651c0.009-0.031,0.048-0.165,0.092-0.308      c0.391-1.26,0.925-2.985,2.414-4.23c0.61-0.511,1.401-0.926,2.177-1.101c2.135-0.482,4.225-0.836,6.245-1.178      c2.2-0.372,4.279-0.724,6.349-1.221c0.425-0.103,1.005-0.218,1.685-0.351c0.813-0.158,2.647-0.517,4.172-0.962      c-2.07-2.3-4.443-4.423-6.923-6.641l-1.329-1.19c-3.107-2.798-4.887-4.312-5.832-5.091c-1.527-1.257-2.17-3.296-1.639-5.201      c1.791-6.436,2.935-14.129,2.78-18.033c-4.168,2.194-12.353,7.998-17.099,11.576c-1.7,1.281-4.024,1.346-5.792,0.161      c-6.209-4.158-13.4-7.454-16.546-8.772c0.744,3.329,2.724,10.986,5.724,17.831c0.854,1.949,0.382,4.226-1.179,5.673      c-4.357,4.043-11.512,11.078-14.405,14.795c3.816,0.839,11.59,1.069,18.24,0.437C53.579,428.617,53.737,428.61,53.895,428.61z       M33.678,430.277c-0.004,0.005-0.008,0.009-0.012,0.014C33.67,430.287,33.674,430.282,33.678,430.277z M43.439,389.291      L43.439,389.291L43.439,389.291z M44.729,388.246L44.729,388.246L44.729,388.246z" fill="#384169"/></g></g></g><g><g><path d="M124.189,495.83c-1.05-2.551,0.16-5.471,2.71-6.521l0,0c2.561-1.06,5.48,0.16,6.54,2.71l0,0     c1.051,2.55-0.17,5.471-2.72,6.53l0,0c-0.62,0.26-1.27,0.38-1.91,0.38l0,0C126.85,498.93,124.99,497.76,124.189,495.83z      M115.59,478.609L115.59,478.609c-1.41-2.369-0.64-5.439,1.74-6.85l0,0c2.359-1.42,5.43-0.64,6.85,1.73l0,0     c1.41,2.369,0.64,5.439-1.729,6.85l0,0c-0.801,0.479-1.69,0.71-2.561,0.71l0,0C118.189,481.05,116.53,480.18,115.59,478.609z      M104.49,463.01c-1.79-2.11-1.53-5.26,0.579-7.05l0,0c2.101-1.79,5.261-1.53,7.04,0.58l0,0c1.79,2.1,1.53,5.26-0.569,7.05l0,0     c-0.94,0.79-2.09,1.18-3.24,1.18l0,0C106.89,464.77,105.479,464.17,104.49,463.01z M91.069,450.16L91.069,450.16     c-2.3-1.53-2.92-4.641-1.39-6.931l0,0c1.53-2.3,4.64-2.92,6.94-1.39l0,0c2.29,1.53,2.91,4.64,1.38,6.93l0,0     c-0.96,1.45-2.55,2.23-4.16,2.23l0,0C92.88,451,91.92,450.729,91.069,450.16z" fill="#384169"/></g></g><g><g><g><path d="M281.847,272.216c-0.042,0-0.082,0-0.124,0c-2.123-0.028-3.892-0.723-5.383-1.371      c-4.952-2.155-9.616-4.678-14.128-7.117l-2.524-1.361c-0.622-0.335-1.275-0.715-1.928-1.097      c-0.54-0.315-1.079-0.632-1.592-0.908c-0.284-0.152-0.557-0.321-0.832-0.501c-1.435,0.767-2.855,1.57-4.332,2.406      c-2.5,1.414-5.085,2.877-7.846,4.2c-0.385,0.185-0.893,0.458-1.49,0.776c-5.021,2.678-14.364,7.659-19.567,1.756      c-1.823-2.071-1.888-4.578-1.915-5.648c-0.148-6.038,0.779-11.846,1.677-17.461l0.336-2.118      c0.468-2.992,0.852-5.276,1.158-6.998c-6.15-4.692-16.771-13.731-19.499-20.259c-1.657-3.967-0.816-6.83,0.182-8.534      c1.789-3.054,4.949-3.988,6.369-4.261c6.021-1.813,20.248-2.699,27.025-3.03c3.494-10.106,8.343-19.418,9.921-22.132      c1.258-2.162,2.834-3.713,4.687-4.606c2.215-1.067,4.989-1.247,7.419-0.479c0.771,0.246,1.509,0.6,2.204,1.054      c1.509,0.983,2.79,2.429,3.803,4.293c1.5,2.758,6.08,12.207,9.282,22.405c6.766,0.524,20.962,1.817,26.928,3.803      c1.412,0.313,4.544,1.338,6.244,4.442c0.949,1.731,1.708,4.618-0.062,8.536c-2.884,6.378-13.56,14.99-19.869,19.545      c1.841,8.582,2.59,17.123,2.287,26.003C290.101,268.671,286.642,272.216,281.847,272.216z M230.205,263.521L230.205,263.521      L230.205,263.521z M255.271,249.268c0.029,0,0.059,0,0.088,0.001l0.111,0.002c2.044,0.028,3.681,1.118,4.996,1.994      c0.18,0.12,0.343,0.232,0.479,0.312c0.575,0.31,1.218,0.684,1.86,1.06c0.547,0.319,1.094,0.641,1.613,0.92l2.549,1.375      c4.523,2.446,8.797,4.757,13.354,6.741c0.162-8.549-0.763-16.773-2.819-25.09c-0.507-2.047,0.326-4.191,2.08-5.36      c8.172-5.447,16.629-12.995,18.846-16.737c-4.686-1.555-19.453-2.987-27.819-3.534c-2.124-0.139-3.927-1.606-4.493-3.658      c-2.957-10.707-8.195-21.416-9.436-23.697c-0.137-0.252-0.252-0.421-0.336-0.529c-0.087,0.109-0.205,0.275-0.346,0.519      c-1.307,2.245-6.848,12.794-10.111,23.418c-0.625,2.034-2.469,3.45-4.596,3.528c-8.381,0.308-23.185,1.317-27.91,2.735      c2.107,3.804,10.346,11.591,18.358,17.271c1.613,1.144,2.401,3.132,2.009,5.07c-0.312,1.544-0.855,4.482-1.672,9.707      l-0.342,2.153c-0.774,4.852-1.512,9.462-1.564,14.053c1.497-0.452,3.769-1.489,6.79-3.101c0.751-0.4,1.392-0.74,1.875-0.971      c2.453-1.177,4.779-2.492,7.242-3.887c2.229-1.261,4.534-2.565,6.97-3.773C253.74,249.446,254.501,249.268,255.271,249.268z" fill="#384169"/></g></g></g><g><g><path d="M271.75,499.99c-2.75-0.131-4.88-2.48-4.74-5.23l0,0c0.13-2.76,2.48-4.89,5.23-4.75l0,0     c2.76,0.13,4.89,2.47,4.75,5.23H277c-0.141,2.68-2.351,4.76-4.99,4.76l0,0C271.92,500,271.84,500,271.75,499.99z M363,495.189     c-0.19-2.75,1.89-5.14,4.64-5.33l0,0c2.76-0.189,5.15,1.891,5.34,4.641l0,0c0.19,2.75-1.89,5.14-4.64,5.33l0,0     c-0.12,0.01-0.24,0.02-0.35,0.02l0,0C365.38,499.85,363.18,497.83,363,495.189z M275.45,480.35c-2.41-1.35-3.28-4.399-1.931-6.81     l0,0c1.351-2.41,4.391-3.271,6.8-1.931l0,0c2.41,1.351,3.28,4.391,1.931,6.811l0,0c-0.91,1.64-2.61,2.56-4.37,2.56l0,0     C277.06,480.979,276.22,480.779,275.45,480.35z M357.68,478.3c-1.35-2.4-0.5-5.45,1.91-6.81l0,0c2.41-1.351,5.45-0.5,6.81,1.909     l0,0l0,0l0,0c1.351,2.4,0.5,5.45-1.909,6.811l0,0c-0.771,0.43-1.62,0.64-2.45,0.64l0,0C360.3,480.85,358.6,479.93,357.68,478.3z      M287.149,464.189c-1.5-2.319-0.84-5.42,1.48-6.92l0,0c2.32-1.5,5.42-0.83,6.92,1.49l0,0c1.5,2.32,0.83,5.41-1.49,6.91l0,0     c-0.84,0.54-1.779,0.8-2.71,0.8l0,0C289.71,466.47,288.109,465.67,287.149,464.189z M345.83,465.6c-2.33-1.49-3-4.58-1.511-6.91     l0,0c1.49-2.319,4.58-3,6.91-1.51l0,0c2.32,1.49,3,4.59,1.5,6.91l0,0c-0.949,1.49-2.56,2.3-4.21,2.3l0,0     C347.6,466.39,346.66,466.14,345.83,465.6z M305.03,455.46c-0.41-2.73,1.47-5.28,4.199-5.69l0,0l0,0l0,0     c2.73-0.41,5.28,1.471,5.69,4.2l0,0c0.41,2.73-1.47,5.28-4.2,5.69l0,0c-0.25,0.04-0.5,0.06-0.75,0.06l0,0     C307.54,459.72,305.399,457.939,305.03,455.46z M329.149,459.64c-2.739-0.399-4.619-2.95-4.22-5.68l0,0     c0.4-2.73,2.95-4.62,5.68-4.21l0,0c2.73,0.399,4.62,2.939,4.21,5.67l0,0c-0.359,2.49-2.5,4.27-4.939,4.27l0,0     C329.64,459.689,329.39,459.68,329.149,459.64z" fill="#384169"/></g></g><g><g><path d="M143.76,499.99c-2.76-0.131-4.89-2.48-4.75-5.23l0,0c0.13-2.76,2.48-4.89,5.23-4.75l0,0     c2.76,0.13,4.89,2.47,4.75,5.23l0,0c-0.131,2.68-2.33,4.76-4.98,4.76l0,0C143.92,500,143.84,500,143.76,499.99z M235,495.189     L235,495.189c-0.19-2.75,1.89-5.14,4.649-5.33l0,0c2.75-0.189,5.131,1.891,5.33,4.641l0,0c0.19,2.75-1.89,5.14-4.64,5.33l0,0     c-0.12,0.01-0.24,0.02-0.35,0.02l0,0C237.38,499.85,235.18,497.83,235,495.189z M147.45,480.35c-2.41-1.35-3.28-4.399-1.931-6.81     l0,0c1.34-2.41,4.391-3.271,6.8-1.931l0,0c2.41,1.351,3.28,4.391,1.931,6.811l0,0c-0.91,1.64-2.61,2.56-4.37,2.56l0,0     C149.06,480.979,148.22,480.779,147.45,480.35z M229.68,478.3L229.68,478.3c-1.35-2.4-0.5-5.45,1.91-6.81l0,0     c2.4-1.351,5.45-0.5,6.81,1.909l0,0c1.351,2.4,0.5,5.45-1.909,6.811l0,0c-0.771,0.43-1.62,0.64-2.44,0.64l0,0     C232.3,480.85,230.6,479.93,229.68,478.3z M159.149,464.189c-1.5-2.319-0.84-5.42,1.49-6.92l0,0c2.311-1.5,5.41-0.83,6.91,1.49     l0,0c1.5,2.32,0.83,5.41-1.49,6.91l0,0c-0.84,0.54-1.779,0.8-2.71,0.8l0,0C161.71,466.47,160.109,465.67,159.149,464.189z      M217.83,465.6c-2.33-1.49-3-4.58-1.511-6.91l0,0c1.49-2.319,4.58-3,6.91-1.51l0,0c2.32,1.49,3,4.59,1.5,6.91l0,0     c-0.949,1.49-2.56,2.3-4.21,2.3l0,0C219.6,466.39,218.66,466.14,217.83,465.6z M177.03,455.46c-0.41-2.73,1.47-5.28,4.199-5.69     l0,0l0,0l0,0c2.73-0.41,5.28,1.471,5.69,4.2l0,0c0.41,2.73-1.47,5.28-4.2,5.69l0,0c-0.25,0.04-0.5,0.06-0.75,0.06l0,0     C179.54,459.72,177.399,457.939,177.03,455.46z M201.149,459.64c-2.739-0.399-4.619-2.95-4.22-5.68l0,0     c0.4-2.73,2.95-4.62,5.68-4.21l0,0c2.73,0.399,4.62,2.939,4.21,5.67l0,0c-0.359,2.49-2.5,4.27-4.939,4.27l0,0     C201.64,459.689,201.39,459.68,201.149,459.64z" fill="#384169"/></g></g></g></svg>