<?xml version="1.0" encoding="iso-8859-1"?>
<!-- Generator: Adobe Illustrator 19.0.0, SVG Export Plug-In . SVG Version: 6.00 Build 0)  -->
<svg version="1.1" id="Capa_1" xmlns="http://www.w3.org/2000/svg" xmlns:xlink="http://www.w3.org/1999/xlink" x="0px" y="0px"
	 viewBox="0 0 512.043 512.043" style="enable-background:new 0 0 512.043 512.043;" xml:space="preserve">
<g>
	<g>
		<path d="M469.363,426.709c-14.165,0-21.333-10.773-21.333-32c0-29.397-23.936-53.333-53.333-53.333s-53.333,23.936-53.333,53.333
			s23.936,53.333,53.333,53.333c16.192,0,30.549-7.403,40.341-18.837c7.253,12.032,18.923,18.837,34.325,18.837
			c42.667,0,42.667-40.149,42.667-53.333c0-64.704-52.629-117.333-117.333-117.333s-117.333,52.629-117.333,117.333
			s52.629,117.333,117.333,117.333c30.635,0,59.605-11.712,81.579-33.003c4.245-4.096,4.352-10.837,0.256-15.083
			c-4.096-4.245-10.837-4.331-15.083-0.256c-17.984,17.429-41.707,27.008-66.752,27.008c-52.928,0-96-43.072-96-96s43.072-96,96-96
			c52.928,0,96,43.072,96,96C490.697,418.645,485.321,426.709,469.363,426.709z M394.697,426.709c-17.643,0-32-14.357-32-32
			c0-17.643,14.357-32,32-32s32,14.357,32,32C426.697,412.352,412.339,426.709,394.697,426.709z"/>
	</g>
</g>
<g>
	<g>
		<path d="M494.537,273.408L447.859,8.853c-1.003-5.76-6.507-9.685-12.245-8.661l-133.76,22.293L32.905,0.064
			c-2.923-0.341-5.717,0.704-7.893,2.581c-2.176,1.899-3.499,4.587-3.648,7.467l-21.333,384c-0.32,5.653,3.84,10.581,9.472,11.2
			l93.205,10.368l4.16,23.552c0.917,5.163,5.419,8.811,10.496,8.811c0.576,0,1.152-0.043,1.707-0.149l129.664-21.611
			c5.803-0.96,9.728-6.464,8.768-12.267c-0.96-5.803-6.421-9.792-12.267-8.768l-119.232,19.861L65.715,83.456l362.965-60.48
			l44.864,254.144c1.024,5.803,6.528,9.728,12.352,8.64C491.699,284.736,495.561,279.211,494.537,273.408z M51.614,64.192
			c-2.816,0.469-5.312,2.069-6.955,4.373s-2.283,5.205-1.792,8l55.979,317.205l-76.928-8.555l20.16-362.965l174.123,14.507
			L51.614,64.192z"/>
	</g>
</g>
<g>
</g>
<g>
</g>
<g>
</g>
<g>
</g>
<g>
</g>
<g>
</g>
<g>
</g>
<g>
</g>
<g>
</g>
<g>
</g>
<g>
</g>
<g>
</g>
<g>
</g>
<g>
</g>
<g>
</g>
</svg>
