<?xml version="1.0" ?><svg viewBox="0 0 512 512" xmlns="http://www.w3.org/2000/svg"><defs><style>.cls-1{fill:#3f456b;}</style></defs><title/><g id="Lines"><path class="cls-1" d="M250.89,414.77C163.85,414.77,93,344,93,256.92S163.85,99.08,250.89,99.08a157.81,157.81,0,0,1,45,6.52,5,5,0,1,1-2.85,9.58,148,148,0,0,0-42.18-6.1C169.36,109.08,103,175.4,103,256.92s66.32,147.85,147.85,147.85a148.13,148.13,0,0,0,40.26-5.55,5,5,0,0,1,2.72,9.63A158.16,158.16,0,0,1,250.89,414.77Z"/><path class="cls-1" d="M343,416.25c-87.67,0-159-71.33-159-159s71.33-159,159-159,159,71.33,159,159S430.67,416.25,343,416.25Zm0-308c-82.16,0-149,66.84-149,149s66.84,149,149,149,149-66.84,149-149S425.16,108.25,343,108.25Z"/><path class="cls-1" d="M358.65,229.09a49.71,49.71,0,1,1,45.55-29.71,5,5,0,0,1-9.16-4,39.76,39.76,0,1,0-36.39,23.74,5,5,0,0,1,0,10Z"/><path class="cls-1" d="M287.27,361.28a37.6,37.6,0,1,1,35.94-48.75,5,5,0,0,1-9.55,3A27.59,27.59,0,1,0,295.5,350a5,5,0,0,1,3,9.55A37.76,37.76,0,0,1,287.27,361.28Z"/><path class="cls-1" d="M268,260.39a24.82,24.82,0,1,1,23.73-32.19,5,5,0,1,1-9.55,3,14.82,14.82,0,1,0-21.05,17.51,14.65,14.65,0,0,0,11.29,1,5,5,0,1,1,3,9.55A24.74,24.74,0,0,1,268,260.39Z"/><path class="cls-1" d="M342,392.14a84.7,84.7,0,0,1-9.1-.42,5,5,0,0,1,1.17-9.94c.44.05,40,4.29,76.56-20.53a5,5,0,1,1,5.62,8.28C387,389.35,356.72,392.14,342,392.14Z"/><path class="cls-1" d="M430.76,294a24.6,24.6,0,0,1-3.08-.19,24,24,0,0,1-16.16-9.41,25,25,0,0,1,4.42-34.6,24,24,0,0,1,18-5,24.55,24.55,0,0,1,21,27.61h0a24.79,24.79,0,0,1-9.23,16.4A24,24,0,0,1,430.76,294Zm.13-39.43a14,14,0,0,0-8.74,3.08,15,15,0,0,0-2.65,20.72,14,14,0,0,0,20,2.56,14.84,14.84,0,0,0,5.52-9.83h0a14.54,14.54,0,0,0-12.32-16.42A15.36,15.36,0,0,0,430.89,254.55ZM450,271.71h0Z"/><path class="cls-1" d="M389.54,217.8a5,5,0,0,1-3.26-8.79l.67-.58a5,5,0,0,1,6.52,7.58l-.67.58A5,5,0,0,1,389.54,217.8Z"/></g><g id="Outline"><path class="cls-1" d="M251,81a5,5,0,0,1-5-5V21a5,5,0,0,1,10,0V76A5,5,0,0,1,251,81Z"/><path class="cls-1" d="M251,496a5,5,0,0,1-5-5V436a5,5,0,0,1,10,0v55A5,5,0,0,1,251,496Z"/><path class="cls-1" d="M71,261H16a5,5,0,0,1,0-10H71a5,5,0,0,1,0,10Z"/><path class="cls-1" d="M161,105.12a5,5,0,0,1-4.33-2.5L129.17,55a5,5,0,0,1,8.66-5l27.5,47.64a5,5,0,0,1-4.33,7.5Z"/><path class="cls-1" d="M47.49,378.5A5,5,0,0,1,45,369.17l47.64-27.5a5,5,0,1,1,5,8.66L50,377.83A5,5,0,0,1,47.49,378.5Z"/><path class="cls-1" d="M95.11,171a5,5,0,0,1-2.49-.67L45,142.83a5,5,0,1,1,5-8.66l47.64,27.5A5,5,0,0,1,95.11,171Z"/><path class="cls-1" d="M133.49,464.52a5,5,0,0,1-4.32-7.5l27.5-47.64a5,5,0,0,1,8.66,5L137.83,462A5,5,0,0,1,133.49,464.52Z"/><path class="cls-1" d="M204.41,87.13a5,5,0,0,1-4.83-3.7L191,51.55A5,5,0,0,1,200.7,49l8.54,31.88A5,5,0,0,1,205.71,87,4.89,4.89,0,0,1,204.41,87.13Z"/><path class="cls-1" d="M306.13,466.74a5,5,0,0,1-4.83-3.7l-8.54-31.88a5,5,0,0,1,9.66-2.59L311,460.45a5,5,0,0,1-3.54,6.12A4.82,4.82,0,0,1,306.13,466.74Z"/><path class="cls-1" d="M123.72,133.72a5,5,0,0,1-3.53-1.46L96.85,108.92a5,5,0,1,1,7.07-7.07l23.34,23.34a5,5,0,0,1-3.54,8.53Z"/><path class="cls-1" d="M77.14,214.41a4.84,4.84,0,0,1-1.3-.17L44,205.7A5,5,0,0,1,46.55,196l31.88,8.54a5,5,0,0,1-1.29,9.83Z"/><path class="cls-1" d="M45.25,316.13A5,5,0,0,1,44,306.3l31.88-8.54a5,5,0,0,1,2.59,9.66L46.55,316A5.27,5.27,0,0,1,45.25,316.13Z"/><path class="cls-1" d="M100.39,411.61a5,5,0,0,1-3.54-8.53l23.33-23.34a5,5,0,1,1,7.07,7.08l-23.33,23.33A5,5,0,0,1,100.39,411.61Z"/><path class="cls-1" d="M195.87,466.74a4.77,4.77,0,0,1-1.29-.17,5,5,0,0,1-3.54-6.12l8.54-31.88a5,5,0,0,1,9.66,2.59L200.7,463A5,5,0,0,1,195.87,466.74Z"/><path class="cls-1" d="M297.59,87.13a4.89,4.89,0,0,1-1.3-.17,5,5,0,0,1-3.53-6.12L301.3,49A5,5,0,0,1,311,51.55l-8.54,31.88A5,5,0,0,1,297.59,87.13Z"/></g></svg>