<?xml version="1.0" ?><svg id="Lines" viewBox="0 0 512 512" xmlns="http://www.w3.org/2000/svg"><defs><style>.cls-1{fill:#3f456b;}.cls-2{fill:#384169;}</style></defs><title/><path class="cls-1" d="M185.09,419a5,5,0,0,1-5-5V315.1c-.2-10.61,2.19-24.09,13.55-32.31a33,33,0,0,1,23.23-56.2h.36a33,33,0,0,1,22.89,56.86c13.11,9.32,13.24,22.43,13.34,31.51V413a5,5,0,0,1-10,0V315c-.11-10.22-.21-19.92-14.49-26.47a5,5,0,0,1-.38-8.89,23,23,0,0,0-11.36-43.07H217a23,23,0,0,0-11.79,42.68,5,5,0,0,1-.71,8.89c-9.95,4.07-14.66,12.85-14.39,26.84v99A5,5,0,0,1,185.09,419Z"/><path class="cls-1" d="M264.09,419a5,5,0,0,1-5-5V315.1c-.2-10.61,2.19-24.09,13.55-32.31a33.1,33.1,0,1,1,46.48.65c13.11,9.32,13.24,22.43,13.34,31.51V413a5,5,0,0,1-10,0V315c-.11-10.22-.21-19.92-14.49-26.47a5,5,0,0,1-.38-8.89,23,23,0,0,0-11.36-43.07H296a23,23,0,0,0-11.79,42.68,5,5,0,0,1-.71,8.89c-10,4.07-14.66,12.85-14.39,26.84v99A5,5,0,0,1,264.09,419Z"/><path class="cls-1" d="M231,289H203a5,5,0,0,1,0-10h28a5,5,0,0,1,0,10Z"/><path class="cls-1" d="M327.23,319.06a5,5,0,0,1-3.83-1.79c-9.28-11-23.15.16-23.73.65a5,5,0,0,1-6.48-.1c-11.42-10-24.59-.22-25.15.2a5,5,0,0,1-6.1-7.92c6.4-5,21.26-11.18,34.64-2.27,8.64-5.51,23.55-10,34.47,3a5,5,0,0,1-3.82,8.22Z"/><path class="cls-1" d="M271.73,265.08c-1.85,0-3-.08-3.1-.09a5,5,0,1,1,.74-10c.45,0,30.08,1.84,41.8-18.3a5,5,0,1,1,8.64,5c-6.23,10.72-17.13,18.14-31.51,21.46A75.66,75.66,0,0,1,271.73,265.08Z"/><path class="cls-1" d="M217,334a5,5,0,0,1-4.66-3.19l-17.5-45a5,5,0,0,1,9.32-3.62l12.56,32.31,11.53-33.34a5,5,0,0,1,9.45,3.27l-16,46.2a5,5,0,0,1-4.64,3.37Z"/><path class="cls-2" d="M255,217a23,23,0,1,1,23-23A23,23,0,0,1,255,217Zm0-36a13,13,0,1,0,13,13A13,13,0,0,0,255,181Z"/><path class="cls-1" d="M119.5,101c-25.34,0-46-20.41-46-45.5S94.16,10,119.5,10s46,20.41,46,45.5S144.84,101,119.5,101Zm0-81c-19.83,0-36,15.92-36,35.5S99.67,91,119.5,91s36-15.92,36-35.5S139.33,20,119.5,20Z"/><path class="cls-1" d="M432,420a5,5,0,0,1-5-5V384a5,5,0,0,1,10,0v31A5,5,0,0,1,432,420Z"/><path class="cls-1" d="M432,281.75a5,5,0,0,1-5-5V224c0-94.29-76.71-171-171-171A171,171,0,0,0,85.08,218.81a5,5,0,0,1-10-.29A181,181,0,0,1,256,43c99.8,0,181,81.2,181,181v52.75A5,5,0,0,1,432,281.75Z"/><path class="cls-1" d="M80,420a5,5,0,0,1-5-5V286.34a5,5,0,0,1,10,0V415A5,5,0,0,1,80,420Z"/><path class="cls-1" d="M400.19,420a5,5,0,0,1-5-5V353.5a5,5,0,0,1,10,0V415A5,5,0,0,1,400.19,420Z"/><path class="cls-1" d="M111.81,420a5,5,0,0,1-5-5V223.19C106.81,140.93,173.74,74,256,74s149.19,66.93,149.19,149.19v54.19a5,5,0,0,1-10,0V223.19C395.19,146.44,332.75,84,256,84S116.81,146.44,116.81,223.19V415A5,5,0,0,1,111.81,420Z"/><path class="cls-1" d="M113.49,228H112a5,5,0,0,1,0-10h0c41.37.32,74.42-11.63,98.21-35.42C251,141.86,251,79.66,251,79a5,5,0,0,1,5-5h0a5,5,0,0,1,5,5c0,2.71,0,67-43.69,110.68C191.86,215.1,156.93,228,113.49,228Z"/><path class="cls-1" d="M398.51,228c-43.44,0-78.37-12.9-103.82-38.35C251,146,251,81.68,251,79a5,5,0,0,1,5-5h0a5,5,0,0,1,5,5c0,.63.13,63,40.82,103.6,23.5,23.48,56,35.37,96.7,35.37H400a5,5,0,0,1,0,10Z"/><path class="cls-1" d="M421.31,100c-6.44,0-12.11-3.54-15.81-7-4.05,1.35-10.68,1.85-19-3.71-9.2-6.16-9.08-15.75-7-22.41a14.66,14.66,0,0,1-5-7.53c-1.33-4.78-.16-10.15,3.23-14.73A16.37,16.37,0,0,1,390,38a14.64,14.64,0,0,1,9.12-10.67,13.64,13.64,0,0,1,14,2.26,20.67,20.67,0,0,1,18.9-.71c8.31,3.73,10.4,11.32,10.28,17.23a20.11,20.11,0,0,1,9.38,6.43A17.39,17.39,0,0,1,454.77,66c-1.58,10.75-8.25,15.16-14,16.53-.65,5.24-3.58,11.77-11.72,15.68A17.91,17.91,0,0,1,421.31,100ZM406.67,81.87a4.89,4.89,0,0,1,.54,0,5,5,0,0,1,3.43,1.93c.27.34,7,8.78,14.13,5.35,7.38-3.54,6.11-10.09,6.1-10.16a5,5,0,0,1,5.32-6c1.68.09,7.47-.21,8.69-8.48a7.51,7.51,0,0,0-1.18-5.93c-2.41-3.11-7.49-3.79-7.54-3.8a5,5,0,0,1-4.28-6.29c2-7.63-3.41-10.29-4-10.57a11.28,11.28,0,0,0-12.08,1.75,5,5,0,0,1-7.73-1,4.39,4.39,0,0,0-5.39-2.08c-3.65,1.38-3.19,6.07-3.19,6.12a5,5,0,0,1-6.29,5.35c-.44-.1-4.8-1.07-7.41,2.45-1.54,2.08-2.14,4.3-1.64,6.09a5.77,5.77,0,0,0,3.59,3.53,5,5,0,0,1,2.46,7.08c-.5.91-4.79,9.23,1.9,13.71,7.38,4.94,11.34,2.11,11.38,2.08A5,5,0,0,1,406.67,81.87Z"/><path class="cls-1" d="M414,67a5,5,0,0,1-5-5V61a5,5,0,0,1,10,0v1A5,5,0,0,1,414,67Z"/><path class="cls-1" d="M46.79,176.3c-7.35,0-12.73-4.72-15.88-9.3a14.63,14.63,0,0,1-9-.66c-4.59-1.89-8.1-6.12-9.63-11.6A16.42,16.42,0,0,1,14.53,141a14.66,14.66,0,0,1-2.81-13.76,13.67,13.67,0,0,1,10.37-9.62,20.67,20.67,0,0,1,11.06-15.34C41.2,98,48.47,101,53.05,104.76a20.22,20.22,0,0,1,10.79-3.44h.06a17.38,17.38,0,0,1,12.59,5.81C84,115,83.37,123,80.94,128.3c3.73,3.73,7.08,10.06,5.15,18.88-2.25,10.31-11.63,14.32-18.61,15.4-1.43,4-5.12,9.56-14.6,12.69A19.45,19.45,0,0,1,46.79,176.3ZM33.15,155.77a4.89,4.89,0,0,1,1.6.27,5,5,0,0,1,3,2.8c.41.95,4.33,9.46,12,6.93,8.43-2.78,8.64-7.64,8.64-7.69a5,5,0,0,1,5-5.18h.05c.43,0,11.21-.09,12.9-7.85,1.75-8-4.19-11-4.25-11.06a5,5,0,0,1-1.46-7.89c1.11-1.27,4.43-6-1.35-12.06a7.5,7.5,0,0,0-5.36-2.72h-.06c-3.3,0-6.62,2.61-7.63,3.63a5.09,5.09,0,0,1-3.91,1.47,5,5,0,0,1-3.67-2c-4.8-6.24-10.21-3.64-10.81-3.32a11.23,11.23,0,0,0-6,10.66,4.93,4.93,0,0,1-1.47,4.06,5,5,0,0,1-4.07,1.38,4.38,4.38,0,0,0-5,3c-1.1,3.57,2.5,6,2.91,6.3a5,5,0,0,1,.31,8.23c-.35.28-3.79,3.13-2.62,7.35.69,2.49,2.08,4.32,3.79,5a5.74,5.74,0,0,0,5-.66A5,5,0,0,1,33.15,155.77Z"/><path class="cls-1" d="M48.27,141.83a5,5,0,0,1-3.08-1.06l-.78-.62a5,5,0,1,1,6.15-7.88l.79.61a5,5,0,0,1-3.08,9Z"/><path class="cls-1" d="M449.31,209c-6.43,0-12.09-3.53-15.79-7a17.84,17.84,0,0,1-2.7.65,5,5,0,1,1-1.55-9.88,6.06,6.06,0,0,0,2.24-.78,4.61,4.61,0,0,1,3.66-1.22,4.9,4.9,0,0,1,3.47,2.06c.27.34,7,8.78,14.13,5.35s6.21-9.53,6.08-10.22a5,5,0,0,1,1.16-4.31,5,5,0,0,1,4.18-1.63c1.67.09,7.47-.21,8.69-8.48a7.51,7.51,0,0,0-1.18-5.93c-2.41-3.11-7.49-3.79-7.54-3.8a5,5,0,0,1-4.28-6.29c2-7.63-3.41-10.29-4-10.57a11.28,11.28,0,0,0-12.08,1.75,5,5,0,0,1-4.13,1.36,5.06,5.06,0,0,1-3.63-2.39,4.37,4.37,0,0,0-5.36-2c-3.65,1.38-3.19,6.07-3.19,6.12a5,5,0,0,1-6.29,5.35h0a9.57,9.57,0,0,0-2.75-.13,5,5,0,1,1-1-9.95l.55,0a14.66,14.66,0,0,1,9.13-10.7,13.66,13.66,0,0,1,14,2.26,20.67,20.67,0,0,1,18.9-.71c8.31,3.73,10.4,11.32,10.28,17.23a20.11,20.11,0,0,1,9.38,6.43,17.39,17.39,0,0,1,3.16,13.5c-1.58,10.75-8.25,15.16-14,16.53-.65,5.24-3.58,11.77-11.72,15.68A17.91,17.91,0,0,1,449.31,209Zm-17.86-17Z"/><path class="cls-1" d="M442,176a5,5,0,0,1-5-5v-1a5,5,0,0,1,10,0v1A5,5,0,0,1,442,176Z"/><path class="cls-1" d="M481,500H31a5,5,0,0,1-5-5V455.62a5,5,0,0,1,5-5H481a5,5,0,0,1,5,5V495A5,5,0,0,1,481,500ZM36,490H476V460.62H36Z"/><path class="cls-1" d="M463.69,459.38a5,5,0,0,1-5-5V420H53.31v34.38a5,5,0,0,1-10,0V415a5,5,0,0,1,5-5H463.69a5,5,0,0,1,5,5v39.38A5,5,0,0,1,463.69,459.38Z"/><path class="cls-1" d="M328.33,68.5a5.15,5.15,0,0,1-1.54-.24A5,5,0,0,1,323.57,62c1.84-5.73,8.83-15.38,22.74-15.38h.56c1.81-6,6.79-13.48,17.84-16.43,6-1.59,11.2-1,15.58,1.65,6.69,4.12,8.43,11.59,8.6,12.42a5,5,0,1,1-9.78,2.06h0s-1-4.1-4.12-6c-1.93-1.17-4.52-1.33-7.7-.48C356.54,42.7,356,51.11,356,52.06a5,5,0,0,1-5.82,4.87c-13.58-2.25-17,7.68-17.1,8.1A5,5,0,0,1,328.33,68.5Z"/><path class="cls-1" d="M454.25,146.2a5,5,0,0,1-4.09-7.87c.12-.18,3.8-6-.55-13.94-3.92-7.19-16-3.65-16.12-3.62a5,5,0,0,1-6.34-6c2.71-10.85-5.31-14.48-6.94-15.09a5,5,0,0,1,3.39-9.41c5.32,1.89,13.86,8.18,14.12,19.66,1-.07,2.06-.1,3.16-.07,8.1.21,14.15,3.57,17.51,9.73,7.4,13.56.27,24,0,24.46A5,5,0,0,1,454.25,146.2Z"/><path class="cls-1" d="M453.78,302.05a5,5,0,0,1-3.83-8.21c5.3-6.34,3.18-16.68,3.16-16.78a5,5,0,0,1,1.09-4.3,5,5,0,0,1,4.06-1.75c13.67.74,14.68-10.07,14.75-11.3l0-.36c2.39-18.27-14.43-22.31-15.15-22.47a5,5,0,0,1-3.46-6.91c6.39-14.38-2.54-22.05-2.63-22.13a5,5,0,1,1,6.4-7.68c4.63,3.85,11.34,14.39,7.23,28.77,9,4,19.81,13.69,17.55,31.56-.41,5.56-4.7,18.35-19.46,20.3.16,5.31-.68,13.22-5.9,19.47A5,5,0,0,1,453.78,302.05Z"/><path class="cls-1" d="M57.5,298c-25.34,0-46-20.41-46-45.5S32.16,207,57.5,207s46,20.41,46,45.5S82.84,298,57.5,298Zm0-81c-19.83,0-36,15.92-36,35.5S37.67,288,57.5,288s36-15.92,36-35.5S77.33,217,57.5,217Z"/><path class="cls-1" d="M416.5,361c-25.34,0-46-20.41-46-45.5s20.62-45.5,46-45.5,46,20.41,46,45.5S441.84,361,416.5,361Zm0-81c-19.83,0-36,15.92-36,35.5s16.13,35.5,36,35.5,36-15.92,36-35.5S436.33,280,416.5,280Z"/><path class="cls-1" d="M457.5,397a45.71,45.71,0,0,1-45.68-40.48,5,5,0,1,1,9.94-1.1A35.72,35.72,0,0,0,457.5,387c19.83,0,36-15.92,36-35.5A35.6,35.6,0,0,0,459,316a5,5,0,0,1,.41-10,45.58,45.58,0,0,1,44,45.46C503.46,376.59,482.84,397,457.5,397Z"/><path class="cls-1" d="M449.75,420a4.73,4.73,0,0,1-1.61-.27,5,5,0,0,1-3.12-6.34c3.42-10,3.42-21.45,3.42-21.57a5,5,0,0,1,5-5h0a5,5,0,0,1,5,5,85.29,85.29,0,0,1-4,24.83A5,5,0,0,1,449.75,420Z"/><path class="cls-1" d="M71.5,420a5,5,0,0,1-4.79-3.56c-17.54-58.15-14.83-121-14.7-123.67a5,5,0,0,1,10,.46c0,.64-2.74,63.86,14.3,120.33a5,5,0,0,1-3.35,6.23A5.12,5.12,0,0,1,71.5,420Z"/><path class="cls-1" d="M179,46a5,5,0,0,1-2.1-.46c-10-4.63-16.27-.82-16.53-.66a5,5,0,0,1-6.91-1.34,5,5,0,0,1,1.35-7c.36-.25,7.6-5,18.82-2.63.54-9,4.66-20.31,17.79-24.68,17.49-5.84,28.61,5.63,32.05,12.5a5,5,0,0,1-8.94,4.48c-.63-1.21-6.63-11.94-19.95-7.5-13.69,4.57-10.8,20.64-10.67,21.32A5,5,0,0,1,179,46Z"/><path class="cls-1" d="M319.7,64.88a5.07,5.07,0,0,1-1.15-.13,5,5,0,0,1-3.72-6c1.18-5,.64-8.88-1.64-11.94C308.08,39.92,295.82,39,295.7,39A5,5,0,0,1,291,33.45c.12-1.37.76-14-16.35-18.63-16.11-4.4-26.5,9.93-26.6,10.07A5,5,0,0,1,243.27,27c-23-3.4-30.63,9-30.94,9.55a5,5,0,0,1-6.8,1.88,5,5,0,0,1-1.89-6.83c.43-.75,10.36-17.8,38.25-14.86C246.55,11.5,259.15.22,277.32,5.18c16.9,4.61,22.55,16.19,23.58,24.46,5.58,1.07,14.89,3.89,20.31,11.18,4.1,5.5,5.22,12.3,3.35,20.21A5,5,0,0,1,319.7,64.88Z"/><path class="cls-1" d="M77.52,125.11a5,5,0,0,1-3.63-8.44,22.61,22.61,0,0,1,14.77-6.76c-.19-15,6.65-20.92,7.52-21.61l6.22,7.83.11-.09c-.21.19-5.14,4.82-3.54,18.38a5,5,0,0,1-5.85,5.5s-7.45-1.16-12,3.62A5,5,0,0,1,77.52,125.11Z"/><path class="cls-1" d="M63,217.37a5,5,0,0,1-4.57-3c-5.14-11.47-2.59-20.38.25-25.66a23.16,23.16,0,0,1-10-19.43,5,5,0,0,1,10,.52c0,1,0,9,9.1,12.48a5,5,0,0,1,1.69,8.26c-.26.27-7.35,7.66-1.93,19.73A5,5,0,0,1,65,216.93,4.93,4.93,0,0,1,63,217.37Z"/><path class="cls-1" d="M75.17,370.71c-11.39,0-20.28-3.4-26.48-10.13-9.13-9.91-9.45-24.13-9-30.76C35.43,327.08,28.85,321,28,309.36c-1.23-17.24,11.73-23.48,12.28-23.74a5,5,0,0,1,4.28,9c-.79.4-7.3,4-6.58,14,.74,10.42,8.45,13.55,8.77,13.68a4.93,4.93,0,0,1,3.17,5.5c0,.16-2.57,16.6,6.14,26,4.93,5.32,12.84,7.57,23.51,6.68a5,5,0,1,1,.84,10C78.61,370.63,76.87,370.71,75.17,370.71Z"/><path class="cls-1" d="M160.5,420a5,5,0,0,1-5-5c0-133.49-22.5-191-22.73-191.58a5,5,0,1,1,9.28-3.72c1,2.38,23.45,59.89,23.45,195.3A5,5,0,0,1,160.5,420Z"/><path class="cls-1" d="M352.41,420a5,5,0,0,1-5-5c0-135.41,22.49-192.92,23.45-195.3a5,5,0,1,1,9.28,3.72h0c-.06.14-5.74,14.58-11.36,45.28C363.59,297,357.41,345.43,357.41,415A5,5,0,0,1,352.41,420Z"/><path class="cls-1" d="M112,220.69a5,5,0,0,1-1.61-9.74c44.88-15.25,57.73-53.11,57.85-53.49a5,5,0,0,1,9.52,3.07c-.56,1.75-14.34,43-64.15,59.89A5,5,0,0,1,112,220.69Z"/><path class="cls-1" d="M399,220.69a5,5,0,0,1-1.61-.27c-49.81-16.93-63.59-58.14-64.15-59.89a5,5,0,0,1,9.52-3.07c.16.49,13,38.26,57.85,53.49a5,5,0,0,1-1.61,9.74Z"/></svg>