<?xml version="1.0" ?><svg viewBox="0 0 512 512" xmlns="http://www.w3.org/2000/svg"><defs><style>.cls-1{fill:#3f456b;}</style></defs><title/><g id="Lines"><path class="cls-1" d="M25.2,254.5A14.51,14.51,0,0,1,10.7,240V177a14.5,14.5,0,0,1,29,0v63A14.52,14.52,0,0,1,25.2,254.5Zm0-82a4.51,4.51,0,0,0-4.5,4.5v63a4.5,4.5,0,0,0,9,0V177A4.51,4.51,0,0,0,25.2,172.5Z"/><path class="cls-1" d="M25.69,172.48a5,5,0,0,1-5-4.49c0-.49-1.08-12,6.73-20.6,5.34-5.9,13.27-8.89,23.57-8.89H79.25a5,5,0,0,1,0,10H51c-7.31,0-12.73,1.86-16.11,5.54-4.84,5.27-4.24,12.92-4.23,13a5,5,0,0,1-4.52,5.42A3.77,3.77,0,0,1,25.69,172.48Z"/><path class="cls-1" d="M183.09,70.55A24.12,24.12,0,1,1,207.2,46.44,24.14,24.14,0,0,1,183.09,70.55Zm0-38.23A14.12,14.12,0,1,0,197.2,46.44,14.13,14.13,0,0,0,183.09,32.32Z"/><path class="cls-1" d="M107.65,500.7H82.89c-14.13,0-25.63-11.76-25.63-26.23V445.83a5,5,0,0,1,10,0v28.64c0,8.95,7,16.23,15.63,16.23h24.76c8.62,0,15.64-7.28,15.64-16.23V445.83a5,5,0,0,1,10,0v28.64C133.29,488.94,121.79,500.7,107.65,500.7Z"/><path class="cls-1" d="M429.8,500.7H405c-14.13,0-25.63-11.76-25.63-26.23v-27a5,5,0,0,1,10,0v27c0,8.95,7,16.23,15.63,16.23H429.8c8.62,0,15.64-7.28,15.64-16.23v-27a5,5,0,0,1,10,0v27C455.44,488.94,443.94,500.7,429.8,500.7Z"/><path class="cls-1" d="M484.88,450.29H333.39a5,5,0,0,1,0-10H484.88c3,0,5.62-2.29,5.62-5v-26c0-2.72-2.58-5-5.62-5H27.12c-3,0-5.62,2.28-5.62,5v26c0,2.71,2.58,5,5.62,5H178.89a5,5,0,1,1,0,10H27.12c-8.61,0-15.62-6.73-15.62-15v-26c0-8.28,7-15,15.62-15H484.88c8.61,0,15.62,6.72,15.62,15v26C500.5,443.56,493.49,450.29,484.88,450.29Z"/><path class="cls-1" d="M328,476.37H184a5,5,0,0,1-5-5V418.89a5,5,0,0,1,5-5H328a5,5,0,0,1,5,5v52.48A5,5,0,0,1,328,476.37Zm-139-10H323V423.89H189Z"/><path class="cls-1" d="M352.5,403.76a5,5,0,0,1-5-5V266c0-8.13-5.56-15-12.14-15H177.64c-6.58,0-12.14,6.87-12.14,15V398.76a5,5,0,0,1-10,0V266c0-13.79,9.93-25,22.14-25H335.36c12.21,0,22.14,11.21,22.14,25V398.76A5,5,0,0,1,352.5,403.76Z"/><path class="cls-1" d="M35.54,403.76a5,5,0,0,1-5-5V339.5c0-13.79,11.78-25,26.25-25H160.5a5,5,0,0,1,0,10H56.79c-9,0-16.25,6.73-16.25,15v59.26A5,5,0,0,1,35.54,403.76Z"/><path class="cls-1" d="M478.06,403.76a5,5,0,0,1-5-5V339.5c0-8.27-7.29-15-16.25-15H352.5a5,5,0,0,1,0-10H456.81c14.47,0,26.25,11.21,26.25,25v59.26A5,5,0,0,1,478.06,403.76Z"/><path class="cls-1" d="M128.92,380.67H66a15,15,0,0,1-15-15v-12a15,15,0,0,1,15-15h62.92a15,15,0,0,1,15,15v12A15,15,0,0,1,128.92,380.67ZM66,348.67a5,5,0,0,0-5,5v12a5,5,0,0,0,5,5h62.92a5,5,0,0,0,5-5v-12a5,5,0,0,0-5-5Z"/><path class="cls-1" d="M96.5,380.67a5,5,0,0,1-5-5v-32a5,5,0,0,1,10,0v32A5,5,0,0,1,96.5,380.67Z"/><path class="cls-1" d="M448,380.67H385a15,15,0,0,1-15-15v-12a15,15,0,0,1,15-15H448a15,15,0,0,1,15,15v12A15,15,0,0,1,448,380.67Zm-62.92-32a5,5,0,0,0-5,5v12a5,5,0,0,0,5,5H448a5,5,0,0,0,5-5v-12a5,5,0,0,0-5-5Z"/><path class="cls-1" d="M415.54,380.67a5,5,0,0,1-5-5v-32a5,5,0,0,1,10,0v32A5,5,0,0,1,415.54,380.67Z"/><path class="cls-1" d="M80.5,324.5a5,5,0,0,1-5-5V118a5,5,0,1,1,10,0V319.5A5,5,0,0,1,80.5,324.5Z"/><path class="cls-1" d="M432.5,324.5a5,5,0,0,1-5-5V118a5,5,0,0,1,10,0V319.5A5,5,0,0,1,432.5,324.5Z"/><path class="cls-1" d="M438.5,123H74.5a15,15,0,0,1-15-15V88.45a15,15,0,0,1,15-15h364a15,15,0,0,1,15,15V108A15,15,0,0,1,438.5,123Zm-364-39.5a5,5,0,0,0-5,5V108a5,5,0,0,0,5,5h364a5,5,0,0,0,5-5V88.45a5,5,0,0,0-5-5Z"/><path class="cls-1" d="M96.5,83.45a5.07,5.07,0,0,1-1.21-.15,5,5,0,0,1-3.64-6.06c.35-1.44,9.45-35.18,71.24-35.46h0a5,5,0,0,1,0,10c-54.1.25-61.52,27.6-61.59,27.87A5,5,0,0,1,96.5,83.45Z"/><path class="cls-1" d="M309.92,51.78H203.33a5,5,0,0,1,0-10H309.92a5,5,0,0,1,0,10Z"/><path class="cls-1" d="M415.53,83.45a5,5,0,0,1-4.83-3.76c-.34-1.23-8.15-27.35-60.67-27.9a5,5,0,0,1,.05-10h.05c60.91.63,69.91,34,70.26,35.45a5,5,0,0,1-4.86,6.21Z"/><path class="cls-1" d="M432.5,221H80.5a5,5,0,0,1,0-10h352a5,5,0,0,1,0,10Z"/><path class="cls-1" d="M163.07,260.5a5,5,0,0,1-2.16-.49l-82.57-39.5a5,5,0,1,1,4.32-9L165.23,251a5,5,0,0,1-2.16,9.51Z"/><path class="cls-1" d="M350.16,259.68a5,5,0,0,1-2.16-9.51l80.85-38.68a5,5,0,0,1,4.32,9l-80.85,38.68A5,5,0,0,1,350.16,259.68Z"/><path class="cls-1" d="M48.5,325.5a5,5,0,0,1-5-5v-71a15,15,0,0,1,15-15H80.25a5,5,0,0,1,0,10H58.5a5,5,0,0,0-5,5v71A5,5,0,0,1,48.5,325.5Z"/><path class="cls-1" d="M256,221a5,5,0,0,1-5-5V118a5,5,0,1,1,10,0V216A5,5,0,0,1,256,221Z"/><path class="cls-1" d="M48.5,254.5a5,5,0,0,1-5-5V38.9c0-.13,0-.26,0-.39S44,30,39,24.86c-3-3.09-7.58-4.55-13.65-4.34a5,5,0,0,1-.35-10c9.07-.32,16.22,2.19,21.26,7.45,7.59,7.92,7.32,19.24,7.22,21.07V249.5A5,5,0,0,1,48.5,254.5Z"/><path class="cls-1" d="M144.5,427.29a5,5,0,0,1-5-5v-3a5,5,0,1,1,10,0v3A5,5,0,0,1,144.5,427.29Z"/><path class="cls-1" d="M368.5,427.29a5,5,0,0,1-5-5v-3a5,5,0,1,1,10,0v3A5,5,0,0,1,368.5,427.29Z"/><path class="cls-1" d="M80.5,221H34.7a5,5,0,0,1,0-10H80.5a5,5,0,0,1,0,10Z"/><path class="cls-1" d="M488.92,254.5a14.51,14.51,0,0,1-14.5-14.5V177a14.5,14.5,0,0,1,29,0v63A14.52,14.52,0,0,1,488.92,254.5Zm0-82a4.51,4.51,0,0,0-4.5,4.5v63a4.5,4.5,0,1,0,9,0V177A4.51,4.51,0,0,0,488.92,172.5Z"/><path class="cls-1" d="M488.42,172.5l-.49,0a5,5,0,0,1-4.49-5.44c0-.15.58-7.75-4.24-13-3.37-3.68-8.79-5.54-16.1-5.54H434.87a5,5,0,0,1,0-10H463.1c10.29,0,18.22,3,23.57,8.89,7.8,8.61,6.77,20.11,6.72,20.6A5,5,0,0,1,488.42,172.5Z"/><path class="cls-1" d="M465.62,325.5a5,5,0,0,1-5-5v-71a5,5,0,0,0-5-5H433.87a5,5,0,0,1,0-10h21.75a15,15,0,0,1,15,15v71A5,5,0,0,1,465.62,325.5Z"/><path class="cls-1" d="M465.62,254.5a5,5,0,0,1-5-5V39.05c-.1-1.83-.37-13.15,7.22-21.07,5-5.26,12.17-7.77,21.25-7.45a5,5,0,1,1-.35,10c-6.05-.21-10.65,1.25-13.64,4.34-5,5.17-4.5,13.59-4.5,13.68s0,.25,0,.36V249.5A5,5,0,0,1,465.62,254.5Z"/><path class="cls-1" d="M479.42,221h-45.8a5,5,0,0,1,0-10h45.8a5,5,0,1,1,0,10Z"/><path class="cls-1" d="M183.09,82.33a5,5,0,0,1-5-5V65.55a5,5,0,1,1,10,0V77.33A5,5,0,0,1,183.09,82.33Z"/><path class="cls-1" d="M330.13,70.55a24.12,24.12,0,1,1,24.12-24.11A24.14,24.14,0,0,1,330.13,70.55Zm0-38.23a14.12,14.12,0,1,0,14.12,14.12A14.13,14.13,0,0,0,330.13,32.32Z"/><path class="cls-1" d="M330.13,82.33a5,5,0,0,1-5-5V65.55a5,5,0,0,1,10,0V77.33A5,5,0,0,1,330.13,82.33Z"/></g><g id="Outline"><path class="cls-1" d="M63.05,464.57a5,5,0,0,1,0-10H80.4a5,5,0,0,1,0,10Z"/><path class="cls-1" d="M62.83,483.15a5,5,0,0,1,0-10H80.64a5,5,0,0,1,0,10Z"/><path class="cls-1" d="M110.05,464.57a5,5,0,0,1,0-10H127.4a5,5,0,0,1,0,10Z"/><path class="cls-1" d="M109.83,483.15a5,5,0,0,1,0-10h17.82a5,5,0,0,1,0,10Z"/><path class="cls-1" d="M385.44,464.57a5,5,0,0,1,0-10h16.95a5,5,0,0,1,0,10h-17Z"/><path class="cls-1" d="M385.23,483.15a5,5,0,0,1,0-10h17.41a5,5,0,0,1,0,10Z"/><path class="cls-1" d="M432.32,464.57a5,5,0,0,1,0-10h16.95a5,5,0,0,1,0,10Z"/><path class="cls-1" d="M432.1,483.15a5,5,0,0,1,0-10h17.4a5,5,0,0,1,0,10H432.1Z"/><path class="cls-1" d="M301.62,445a5,5,0,0,1,5-5h0a5,5,0,0,1,5,5h0a5,5,0,0,1-5,5h0A5,5,0,0,1,301.62,445Zm-20,0a5,5,0,0,1,5-5h0a5,5,0,0,1,5,5h0a5,5,0,0,1-5,5h0A5,5,0,0,1,281.62,445Zm-20,0a5,5,0,0,1,5-5h0a5,5,0,0,1,5,5h0a5,5,0,0,1-5,5h0A5,5,0,0,1,261.62,445Zm-20,0a5,5,0,0,1,5-5h0a5,5,0,0,1,5,5h0a5,5,0,0,1-5,5h0A5,5,0,0,1,241.62,445Zm-20,0a5,5,0,0,1,5-5h0a5,5,0,0,1,5,5h0a5,5,0,0,1-5,5h0A5,5,0,0,1,221.62,445Zm-20,0a5,5,0,0,1,5-5h0a5,5,0,0,1,5,5h0a5,5,0,0,1-5,5h0A5,5,0,0,1,201.62,445Z"/><path class="cls-1" d="M64.38,261.5a5,5,0,0,1-5-5V256a5,5,0,0,1,10,0v.5A5,5,0,0,1,64.38,261.5Z"/><path class="cls-1" d="M64.38,283.35a5,5,0,0,1-5-5v-1a5,5,0,0,1,10,0v1A5,5,0,0,1,64.38,283.35Z"/><path class="cls-1" d="M64.38,304.67a5,5,0,0,1-5-5v-.5a5,5,0,0,1,10,0v.5A5,5,0,0,1,64.38,304.67Z"/><path class="cls-1" d="M449.74,261.5a5,5,0,0,1-5-5V256a5,5,0,0,1,10,0v.5A5,5,0,0,1,449.74,261.5Z"/><path class="cls-1" d="M449.74,283.35a5,5,0,0,1-5-5v-1a5,5,0,1,1,10,0v1A5,5,0,0,1,449.74,283.35Z"/><path class="cls-1" d="M449.74,304.67a5,5,0,0,1-5-5v-.5a5,5,0,0,1,10,0v.5A5,5,0,0,1,449.74,304.67Z"/><path class="cls-1" d="M351.5,318.86h-191a5,5,0,0,1,0-10h191a5,5,0,0,1,0,10Z"/><path class="cls-1" d="M351.5,296.76h-191a5,5,0,0,1,0-10h191a5,5,0,0,1,0,10Z"/><path class="cls-1" d="M351.5,274.67h-191a5,5,0,0,1,0-10h191a5,5,0,0,1,0,10Z"/><path class="cls-1" d="M351.5,383.77h-191a5,5,0,0,1,0-10h191a5,5,0,0,1,0,10Z"/><path class="cls-1" d="M351.5,361.67h-191a5,5,0,0,1,0-10h191a5,5,0,0,1,0,10Z"/><path class="cls-1" d="M351.5,339.57h-191a5,5,0,0,1,0-10h191a5,5,0,0,1,0,10Z"/></g></svg>