<?xml version="1.0" ?><svg viewBox="0 0 512 512" xmlns="http://www.w3.org/2000/svg"><defs><style>.cls-1{fill:#3f456b;}</style></defs><title/><g id="Lines"><path class="cls-1" d="M431.71,329.38h-.53a4.38,4.38,0,0,1-.51,0c-.22,0-22.74-2.77-51.18-3.2a5,5,0,1,1,.15-10c27.23.42,49.17,2.91,52,3.24,2.35,0,15.65-.57,16.85-12.43.42-4.26-1.85-8.26-4.48-12.88s-5.52-9.72-5.86-15.83c-.62-10.91,4.29-20.07,9.05-28.93,1.66-3.1,3.22-6,4.54-9,5.18-11.64,6.62-20.57,4.29-26.55-1.59-4.06-5.8-8.85-11-12.5-.66-.45-16.62-11.18-33.79,0-3.17,2.79-24.66,20-73.49,20A234.19,234.19,0,0,1,313.85,220c-5.39-.32-30.77-2.58-33.43-16.83a11.55,11.55,0,0,0-5.7-7.55c-4.19-2.54-9.12-3-11.82-2.22-2.32.71-9.37,2.87-12.6,22.58a35.89,35.89,0,0,1-17,25.47c-7.47,4.38-20.53,8.07-40.33.86-36.68-13.37-46.59-7.38-51.83,1.07-6.89,11.13-2.89,21.45,1.69,28.14,10.65,15.58,33.64,25.61,51.24,22.34,9.86-1.83,17.84-7,26.29-12.49,7.54-4.89,15.34-10,24.68-12.58a5,5,0,1,1,2.71,9.62c-7.88,2.22-14.72,6.66-21.95,11.35-8.9,5.77-18.1,11.74-29.9,13.94a48.71,48.71,0,0,1-8.76.77c-19.61,0-41.37-10.93-52.57-27.3-8.83-12.93-9.52-26.8-1.93-39,12.64-20.39,38.11-14.56,63.75-5.21,12.78,4.66,23.8,4.63,31.86-.09a26,26,0,0,0,12.22-18.46C243.29,197,249.68,187,260,183.82c5.9-1.8,13.72-.54,19.92,3.22a21.4,21.4,0,0,1,10.35,14.27c.81,4.34,13.45,8.06,24.29,8.69l.23,0c64.93,6.68,89.67-16.11,89.91-16.34a5,5,0,0,1,.68-.54c23.06-15.34,44.47-.67,45.37,0,6.83,4.79,12.27,11.16,14.57,17,3.39,8.68,1.93,19.88-4.46,34.26-1.47,3.29-3.2,6.52-4.87,9.64-4.29,8-8.34,15.54-7.88,23.63.22,3.78,2.33,7.51,4.58,11.46,3,5.34,6.47,11.39,5.72,18.82C456.68,325,440.51,329.38,431.71,329.38Z"/><path class="cls-1" d="M407.31,499.87a30.12,30.12,0,0,1-4.72-.35l-.41-.08c-.22-.06-22.38-5.46-52.59-9.82a5,5,0,0,1,1.43-9.9c29,4.19,50.8,9.34,53.31,9.95,2.21.3,15.68,1.65,18.79-10.09,1.09-4.16-.52-8.41-2.38-13.33s-3.93-10.38-3.3-16.49c1.11-10.85,7.41-19.23,13.51-27.33,2.13-2.84,4.15-5.52,5.92-8.27,7-10.83,9.82-19.48,8.46-25.7-.92-4.21-4.31-9.5-8.86-13.8-.57-.53-14.64-13.29-33.41-4.57-4,2.64-35.09,20.88-99.2,5.22-5.3-1.06-30.13-6.77-30.51-21.32a11,11,0,0,0-4.34-8.12c-3.73-3.1-8.53-4.27-11.35-3.82-2.42.39-9.8,1.57-16.14,20.71a36.79,36.79,0,0,1-21.05,22.89c-8,3.21-21.46,5-39.77-4.78-34.17-18.23-44.95-13.62-51.5-5.94-8.7,10.21-6.26,21.07-2.67,28.39,8.15,16.64,29.19,29.49,46.91,28.7,10.06-.47,18.23-4.23,26.87-8.22,7.31-3.37,14.87-6.85,23.8-8.38a5,5,0,0,1,1.68,9.86c-7.62,1.31-14.26,4.37-21.29,7.6-9.14,4.22-18.59,8.57-30.6,9.12-21.71,1-46.45-14.06-56.35-34.28-6.93-14.14-5.5-28.09,4-39.27,15.68-18.39,39.93-9.14,63.81,3.6,11.81,6.3,22.66,7.79,31.36,4.31A26.84,26.84,0,0,0,232,359.61c5.55-16.76,13.42-25.73,24-27.43,6.17-1,13.75,1.37,19.32,6a20.86,20.86,0,0,1,7.94,15.55c.12,4.33,12,9.69,22.56,11.79l.22.05c62.67,15.34,91.33-3.75,91.61-3.95a5,5,0,0,1,.71-.41c25.23-12,44.11,5.44,44.9,6.19,6,5.69,10.41,12.76,11.76,18.92,2,9-1.23,19.92-9.82,33.25-2,3.06-4.19,6-6.34,8.87-5.52,7.33-10.73,14.25-11.56,22.34-.38,3.75,1.12,7.72,2.71,11.93,2.16,5.7,4.61,12.17,2.7,19.42C429.05,496.26,416.33,499.87,407.31,499.87Z"/><path class="cls-1" d="M160.45,169.12c-17.07,0-35.55-7-47.41-19-11-11.19-14.33-24.65-9.26-37.91,8.52-22.27,34.74-20.78,61.8-15.86,13.54,2.46,24.39.58,31.38-5.45a25,25,0,0,0,8.28-20c-.56-17.64,3.82-28.57,13.42-33.42,5.38-2.72,13.22-2.82,20-.25a22,22,0,0,1,13.06,12.3c1.83,4.6,16.37,5.64,25.72,4.6l.23,0c64.55-4.21,85-30.76,85.22-31a5.81,5.81,0,0,1,.56-.65c19.76-19,43.64-8.12,44.64-7.65,7.62,3.56,14.18,8.89,17.56,14.26,5,8,5.73,19.22,2.22,34.43-.81,3.49-1.89,7-2.93,10.31-2.67,8.56-5.18,16.65-3.17,24.53.95,3.71,3.77,7,6.75,10.56,4,4.73,8.55,10.1,9.25,17.5,1.66,17.48-14.15,24.5-22.74,25.77l-.51,0c-.22,0-22.67,1.05-50.54,5.32a5,5,0,1,1-1.51-9.89c26.67-4.08,48.51-5.27,51.3-5.41,2.3-.4,15.16-3.15,14.05-14.89-.41-4.29-3.43-7.86-6.93-12s-7.28-8.61-8.8-14.54c-2.72-10.63.34-20.47,3.3-30,1-3.32,2-6.45,2.73-9.58,2.84-12.31,2.53-21.34-.94-26.85-2.36-3.76-7.47-7.8-13.32-10.54-.74-.33-18.53-8.23-33.21,5.56-3,3.84-26.21,30.35-92.22,34.69-5.35.59-30.67,2.59-36-10.87-1.48-3.75-4.79-5.68-7.31-6.64-4.59-1.74-9.48-1.4-11.92-.16-2.12,1.07-8.57,4.32-7.93,24.17.35,11-3.93,21.15-11.75,27.9-6.53,5.62-18.71,11.53-39.7,7.71-38.61-7-47.17.46-50.67,9.59-4.6,12,1.29,21.49,7,27.31,13.51,13.69,38.16,19.79,55,13.61,9.31-3.43,16.14-9.84,23.38-16.64,7-6.6,14.31-13.42,24.12-17.52.83-.35,1.67-.67,2.48-1a5,5,0,0,1,3.33,9.43c-.63.23-1.29.48-2,.76-8.14,3.4-14.45,9.32-21.13,15.59-7.64,7.17-15.55,14.59-26.77,18.73A52.72,52.72,0,0,1,160.45,169.12Z"/><path class="cls-1" d="M269.67,193a5,5,0,0,1-5-4.58,34,34,0,0,1,2.84-16.68,5,5,0,0,1,9,4.45,24,24,0,0,0-1.83,11.39,5,5,0,0,1-4.57,5.4Z"/><path class="cls-1" d="M268.93,344.78a4.93,4.93,0,0,1-1.76-.32,5,5,0,0,1-2.92-6.44c3.25-8.62,7.53-14.77,12.72-18.29a5,5,0,1,1,5.61,8.28c-2.37,1.61-5.85,5.26-9,13.53A5,5,0,0,1,268.93,344.78Z"/><path class="cls-1" d="M422.16,195.71a5,5,0,0,1-4.44-7.3c12-23.24-3.06-37.66-3.71-38.27a5,5,0,0,1,6.75-7.37c7.48,6.8,18.32,26,5.85,50.23A5,5,0,0,1,422.16,195.71Z"/><path class="cls-1" d="M420.17,367.31a5,5,0,0,1-2.77-9.17c17-11.31,7.15-30.93,6.72-31.76a5,5,0,0,1,8.86-4.64c5.13,9.76,9.64,31.66-10.05,44.73A4.94,4.94,0,0,1,420.17,367.31Z"/><path class="cls-1" d="M296.16,86.82c-3.16,0-5-.15-5.31-.17a5,5,0,1,1,.88-10c.17,0,8.39.66,21.76-1.19a188.69,188.69,0,0,0,54.32-16.6,5,5,0,0,1,4.28,9C336.35,84.85,307.61,86.82,296.16,86.82Z"/><path class="cls-1" d="M343.11,247.31c-13.75,0-21.94-1.75-22.62-1.9a5,5,0,0,1,2.15-9.76c.1,0,8.15,1.73,21.74,1.62a191.23,191.23,0,0,0,56.29-9.47,5,5,0,0,1,3.05,9.52C378.76,245.32,357.77,247.31,343.11,247.31Z"/><path class="cls-1" d="M352.73,407.23c-26.78,0-42.86-5.54-43.81-5.87a5,5,0,0,1,3.33-9.43h0c.08,0,7.83,2.7,21.32,4.22a192.49,192.49,0,0,0,57.14-2.61,5,5,0,1,1,1.87,9.82A212.9,212.9,0,0,1,352.73,407.23Z"/><path class="cls-1" d="M219.76,245.22a5,5,0,0,1-5-4.73,317.37,317.37,0,0,0-19.55-93A5,5,0,1,1,204.6,144a327.29,327.29,0,0,1,20.15,96,5,5,0,0,1-4.72,5.26Z"/><path class="cls-1" d="M204.21,388.12A5,5,0,0,1,203,388a5,5,0,0,1-3.59-6.09,500,500,0,0,0,14.78-93.16,5,5,0,1,1,10,.63,509.7,509.7,0,0,1-15.08,95A5,5,0,0,1,204.21,388.12Z"/><path class="cls-1" d="M184.61,499a22.18,22.18,0,0,1-10.16-2.46,20,20,0,0,1-10.27-12.37,19,19,0,0,1,2-15.06c.07-.1,7.4-12.56,16.39-35.38a5,5,0,1,1,9.3,3.66c-9.37,23.8-17,36.73-17.11,36.86a9.06,9.06,0,0,0-1,7.2,10.17,10.17,0,0,0,5.24,6.21,12.17,12.17,0,0,0,5.57,1.34,11.41,11.41,0,0,0,9.84-5.27c1.7-2.83,13.52-25.45,24.84-57.4a5,5,0,1,1,9.42,3.34C217,462.82,204.91,485.75,203,488.89A21.45,21.45,0,0,1,184.61,499Z"/><path class="cls-1" d="M245.85,346.63a4.11,4.11,0,0,1-.78-.07,5,5,0,0,1-4.16-5.71c2.55-16.14,4.38-32.68,5.45-49.17a5,5,0,1,1,10,.65c-1.08,16.79-2.95,33.64-5.55,50.08A5,5,0,0,1,245.85,346.63Z"/><path class="cls-1" d="M248.16,207.79a5,5,0,0,1-4.93-4.2,354.67,354.67,0,0,0-15.8-61.35,5,5,0,1,1,9.42-3.34A364.1,364.1,0,0,1,253.1,202a5,5,0,0,1-4.13,5.74A5.52,5.52,0,0,1,248.16,207.79Z"/><path class="cls-1" d="M180.06,106.69a5,5,0,0,1-4.4-2.63c-15-27.84-28.89-44.3-29-44.47A19.12,19.12,0,0,1,142,44.88a19.58,19.58,0,0,1,8-13.62c9-6.67,22.22-5.28,29.45,3.1.62.73,15.38,18,31.77,47.65a5,5,0,1,1-8.75,4.83c-15.9-28.77-30-45.26-30.6-45.95A12,12,0,0,0,156,39.3a9.71,9.71,0,0,0-4,6.7,9.23,9.23,0,0,0,2.25,7.1c.61.71,14.76,17.46,30.23,46.22a5,5,0,0,1-4.4,7.37Z"/><path class="cls-1" d="M317.37,185.86c-17.5,0-39.1-2.41-57.91-13.73-10.4-6.26-19.94-14.95-29.17-26.58-2.66-3.35-5.89-7.9-7.2-13.36a19.22,19.22,0,0,1,8.62-21c6.5-3.92,16.35-6.26,26.37,4.82,13.14,14.53,25.12,23.62,37.69,28.59,15,5.95,29.92,3.73,47.66-1.46h0a20.08,20.08,0,0,1,25.74,11.21c2.19,5.46,2.34,10.48.44,14.91-2.12,4.92-6.68,8.8-13.55,11.51h0c-6.72,2.65-15.49,4.23-26.82,4.82C325.61,185.72,321.61,185.86,317.37,185.86Zm-75.08-68a10.58,10.58,0,0,0-5.41,1.8,9.24,9.24,0,0,0-4.06,10.16c.85,3.53,3.15,6.77,5.3,9.48,8.47,10.66,17.14,18.59,26.5,24.22,16,9.62,36.37,13.43,64.13,12,10.09-.53,18.05-1.92,23.66-4.13h0c3-1.17,6.76-3.19,8-6.16.83-1.92.65-4.29-.53-7.23a10,10,0,0,0-12.83-5.62c-.21.08-.42.16-.63.22-17.15,5-35.61,8.66-54.37,1.23-14-5.56-27.21-15.47-41.42-31.19C247.46,119.12,244.72,117.9,242.29,117.9Z"/><path class="cls-1" d="M351.7,180.19a18.89,18.89,0,0,1-8.32-1.82c-4-1.94-8.8-6.3-9.37-16.08-.4-6.83,1.37-12.14,5.28-15.78,5.84-5.44,13.9-4.57,14.8-4.45a5,5,0,0,1-1.25,9.92c-1.2-.14-4.73-.06-6.77,1.88-1.6,1.52-2.3,4.15-2.08,7.85.35,5.88,2.83,7.18,3.65,7.6,3.32,1.74,8.22.45,9.25-.18a5,5,0,1,1,5.63,8.26A21,21,0,0,1,351.7,180.19Z"/><path class="cls-1" d="M351.51,347.28q-5.33,0-11.59-.55c-18.73-1.63-46.08-5.79-67.27-23-9.43-7.64-17.68-17.58-25.2-30.36-2.17-3.7-4.73-8.65-5.27-14.24a19.2,19.2,0,0,1,11.46-19.64c7-3,17.06-3.94,25.45,8.43,11,16.21,21.59,26.88,33.35,33.55,14,8,29.1,7.85,47.39,5.18h0a20.08,20.08,0,0,1,24,14.66c1.41,5.72.87,10.71-1.64,14.83-2.78,4.58-7.83,7.79-15,9.52h0A67.4,67.4,0,0,1,351.51,347.28Zm-89.37-79.67a11.84,11.84,0,0,0-4.57,1.1,9.23,9.23,0,0,0-5.43,9.5c.34,3.61,2.18,7.14,3.93,10.12C263,300.07,270.46,309.12,279,316c14.5,11.75,34.15,18.35,61.84,20.77,10.06.88,18.14.61,24-.8h0c3.09-.75,7.13-2.22,8.82-5,1.08-1.78,1.23-4.15.47-7.23a10,10,0,0,0-11.91-7.35,5.63,5.63,0,0,1-.69.14c-17.66,2.6-36.44,3.63-54-6.34-13.14-7.46-24.8-19.11-36.69-36.64C267.74,269,264.86,267.61,262.14,267.61Zm97.91,39h0Z"/><path class="cls-1" d="M366.13,344.79a20.09,20.09,0,0,1-11.24-3.19c-3.65-2.47-7.84-7.46-7.05-17.22.55-6.82,3.05-11.83,7.42-14.89,6.55-4.58,14.41-2.6,15.28-2.36a5,5,0,0,1-2.62,9.65c-1.17-.3-4.67-.7-7,.93-1.79,1.28-2.85,3.79-3.14,7.48-.48,5.87,1.8,7.5,2.55,8,3.05,2.18,8.08,1.58,9.19,1.1a5,5,0,0,1,4.43,9A19.17,19.17,0,0,1,366.13,344.79Z"/><path class="cls-1" d="M329.58,507.6a101.94,101.94,0,0,1-21.65-2.78c-18.36-4.06-44.93-11.75-63.71-31.53-8.35-8.81-15.23-19.73-21-33.39-1.67-3.94-3.57-9.19-3.37-14.8a19.17,19.17,0,0,1,13.92-18c7.3-2.05,17.42-1.68,24.13,11.67,8.79,17.51,17.91,29.46,28.7,37.61,12.88,9.72,27.84,11.56,46.32,11.29h0a20.07,20.07,0,0,1,21.82,17.66c.66,5.85-.53,10.73-3.55,14.49-3.35,4.18-8.78,6.7-16.13,7.48h0A50.2,50.2,0,0,1,329.58,507.6ZM240,416.18a13.51,13.51,0,0,0-3.59.57,9.23,9.23,0,0,0-6.62,8.7c-.12,3.63,1.24,7.37,2.59,10.55,5.32,12.54,11.56,22.48,19.08,30.41C264.33,480,283,489.05,310.09,495.05c9.86,2.18,17.91,3,23.91,2.33h0c3.17-.34,7.37-1.27,9.39-3.8,1.31-1.63,1.77-3.95,1.41-7.11A10,10,0,0,0,334,477.64l-.66.05c-17.89.27-36.64-1.15-52.75-13.31-12.06-9.11-22.1-22.17-31.61-41.11C246.14,417.73,243.08,416.18,240,416.18Z"/><path class="cls-1" d="M337.27,506.5c-4.21,0-9.71-1.17-13.83-4.82-3.3-2.93-6.8-8.42-4.75-18,1.44-6.7,4.56-11.34,9.3-13.81,7.08-3.69,14.62-.7,15.46-.35a5,5,0,0,1-3.86,9.23c-1.12-.45-4.54-1.31-7,0-1.94,1-3.31,3.39-4.09,7-1.23,5.76.81,7.68,1.49,8.31,2.73,2.55,7.8,2.62,9,2.28a5,5,0,0,1,3.22,9.47A15.87,15.87,0,0,1,337.27,506.5Z"/><path class="cls-1" d="M179.45,237.67a5,5,0,0,1-4.91-4.1c-1.42-7.72-.31-14.18,3.3-19.21a20.78,20.78,0,0,1,9.34-7.15c.39-22.06-11.94-44.18-12.08-44.41a5,5,0,0,1,8.71-4.93c.62,1.1,15.27,27.3,13.17,53.53a5,5,0,0,1-4.26,4.55h0a11.64,11.64,0,0,0-6.82,4.32c-1.91,2.73-2.42,6.6-1.52,11.5a5,5,0,0,1-4,5.82A4.73,4.73,0,0,1,179.45,237.67ZM192,211h0Z"/><path class="cls-1" d="M163.09,372.23a5,5,0,0,1-5-4.81c-.31-8.47,2.06-14.92,7-19.17,5.23-4.46,12-5.13,16.26-5,8.3-21,7.6-42.83,7.59-43.05a5,5,0,1,1,10-.38c0,1.08.86,26.68-9.81,50.77a5,5,0,0,1-5.54,2.88c-2.09-.39-8.37-.73-12,2.43-2.52,2.16-3.69,5.92-3.5,11.16a5,5,0,0,1-4.81,5.18Z"/></g><g id="Outline"><path class="cls-1" d="M50.92,88.32a5,5,0,0,1-4.67-3.21c-.53-1.39-.84-2.12-.86-2.17a5,5,0,0,1,9.22-3.89s.35.84,1,2.47A5,5,0,0,1,52.72,88,5.16,5.16,0,0,1,50.92,88.32Z"/><path class="cls-1" d="M55.92,429.52a5.44,5.44,0,0,1-1.26-.16,5,5,0,0,1-3.58-6.1c.41-1.59.81-3.17,1.21-4.76A5,5,0,0,1,62,421l-1.23,4.82A5,5,0,0,1,55.92,429.52Zm5.79-24a5.06,5.06,0,0,1-1.09-.12,5,5,0,0,1-3.8-6q.54-2.4,1-4.8a5,5,0,0,1,9.78,2.11c-.35,1.62-.7,3.24-1.07,4.86A5,5,0,0,1,61.71,405.49Zm4.95-24.22a5.82,5.82,0,0,1-.92-.08,5,5,0,0,1-4-5.83c.3-1.62.59-3.23.88-4.83a5,5,0,0,1,9.84,1.76c-.29,1.63-.59,3.26-.89,4.89A5,5,0,0,1,66.66,381.27Zm4.09-24.37a4.74,4.74,0,0,1-.75-.06,5,5,0,0,1-4.21-5.68c.25-1.63.48-3.25.71-4.86a5,5,0,1,1,9.9,1.41c-.23,1.63-.47,3.28-.72,4.92A5,5,0,0,1,70.75,356.9ZM74,332.39l-.57,0A5,5,0,0,1,69,326.83c.18-1.63.36-3.26.53-4.87a5,5,0,1,1,9.94,1c-.17,1.65-.35,3.3-.53,5A5,5,0,0,1,74,332.39Zm2.29-24.61-.38,0a5,5,0,0,1-4.62-5.35c.13-1.64.24-3.27.35-4.9a5,5,0,0,1,10,.67c-.11,1.65-.23,3.31-.35,5A5,5,0,0,1,76.24,307.78Zm1.35-24.68h-.18a5,5,0,0,1-4.82-5.18c.06-1.64.12-3.28.16-4.9a5,5,0,1,1,10,.28c0,1.65-.1,3.31-.16,5A5,5,0,0,1,77.59,283.1ZM78,258.39a5,5,0,0,1-5-5c0-1.64,0-3.28,0-4.9a5,5,0,0,1,5-5.06h0a5,5,0,0,1,5,4.95c0,1.65,0,3.31,0,5a5,5,0,0,1-5,5Zm-.58-24.71a5,5,0,0,1-5-4.79c-.07-1.64-.15-3.27-.23-4.89a5,5,0,1,1,10-.52q.13,2.47.24,5a5,5,0,0,1-4.78,5.21ZM75.85,209a5,5,0,0,1-5-4.58c-.14-1.64-.29-3.27-.44-4.88a5,5,0,0,1,10-.93c.15,1.64.3,3.3.44,5a5,5,0,0,1-4.56,5.4A3,3,0,0,1,75.85,209Zm-2.61-24.58a5,5,0,0,1-5-4.36c-.21-1.64-.42-3.26-.64-4.86a5,5,0,1,1,9.9-1.36q.34,2.44.66,5a5,5,0,0,1-4.32,5.59A4.68,4.68,0,0,1,73.24,184.43ZM69.54,160a5,5,0,0,1-4.92-4.14c-.28-1.63-.57-3.24-.86-4.82a5,5,0,0,1,9.83-1.81c.3,1.61.6,3.25.89,4.91a5,5,0,0,1-4.07,5.79A5.1,5.1,0,0,1,69.54,160Zm-4.83-24.24a5,5,0,0,1-4.87-3.9c-.37-1.62-.74-3.21-1.1-4.76a5,5,0,0,1,9.73-2.31c.37,1.59.75,3.21,1.12,4.87a5,5,0,0,1-3.77,6A5.24,5.24,0,0,1,64.71,135.75Zm-6.1-24a5,5,0,0,1-4.8-3.63q-.7-2.44-1.38-4.68A5,5,0,0,1,62,100.61q.69,2.3,1.41,4.81a5,5,0,0,1-4.81,6.38Z"/><path class="cls-1" d="M50,451a4.88,4.88,0,0,1-1.4-.2,5,5,0,0,1-3.4-6.2l.69-2.39A5,5,0,0,1,55.5,445l-.7,2.42A5,5,0,0,1,50,451Z"/></g></svg>