<?xml version="1.0" ?><svg viewBox="0 0 512 512" xmlns="http://www.w3.org/2000/svg"><defs><style>.cls-1{fill:#3f456b;}</style></defs><title/><g id="Lines"><path class="cls-1" d="M464.5,386.85a5,5,0,0,1-2.88-9.09c30.42-21.39,30.76-77.09,30.16-93.45h-328L29.64,284c22,21.3,35.34,46.68,39.78,75.59a5,5,0,0,1-9.89,1.52c-4.68-30.55-20.23-56.89-46.21-78.28a5,5,0,0,1,3.18-8.86h0l147.25.37H496.52a5,5,0,0,1,5,4.58,205.48,205.48,0,0,1-1.64,42.27c-4.45,31-15.38,52.75-32.48,64.78A5,5,0,0,1,464.5,386.85Z"/><path class="cls-1" d="M72.19,283.94a5,5,0,0,1-3.89-8.13l60.42-75.26a5,5,0,0,1,7.8,6.26L76.09,282.07A5,5,0,0,1,72.19,283.94Z"/><path class="cls-1" d="M480.5,283.94a5,5,0,0,1-4.64-3.14l-30.24-75.26a5,5,0,1,1,9.27-3.73l30.25,75.26a5,5,0,0,1-2.78,6.51A5.08,5.08,0,0,1,480.5,283.94Z"/><path class="cls-1" d="M457.75,208.68H127.55a15,15,0,0,1-15-15v-1.61a15,15,0,0,1,15-15h330.2a15,15,0,0,1,15,15v1.61A15,15,0,0,1,457.75,208.68ZM127.55,187.1a5,5,0,0,0-5,5v1.61a5,5,0,0,0,5,5h330.2a5,5,0,0,0,5-5v-1.61a5,5,0,0,0-5-5Z"/><path class="cls-1" d="M434.66,187.1a5,5,0,0,1-5-5V167.76a4.46,4.46,0,0,0-4.45-4.45H248a4.46,4.46,0,0,0-4.45,4.45V182.1a5,5,0,0,1-10,0V167.76A14.47,14.47,0,0,1,248,153.31H425.21a14.47,14.47,0,0,1,14.45,14.45V182.1A5,5,0,0,1,434.66,187.1Z"/><path class="cls-1" d="M145,332.41a5,5,0,0,1-5-5v-3a5,5,0,0,1,10,0v3A5,5,0,0,1,145,332.41Z"/><path class="cls-1" d="M179.65,332.41a5,5,0,0,1-5-5v-3a5,5,0,0,1,10,0v3A5,5,0,0,1,179.65,332.41Z"/><path class="cls-1" d="M214.34,332.41a5,5,0,0,1-5-5v-3a5,5,0,0,1,10,0v3A5,5,0,0,1,214.34,332.41Z"/><path class="cls-1" d="M249,332.41a5,5,0,0,1-5-5v-3a5,5,0,0,1,10,0v3A5,5,0,0,1,249,332.41Z"/><path class="cls-1" d="M283.73,332.41a5,5,0,0,1-5-5v-3a5,5,0,0,1,10,0v3A5,5,0,0,1,283.73,332.41Z"/><path class="cls-1" d="M318.42,332.41a5,5,0,0,1-5-5v-3a5,5,0,0,1,10,0v3A5,5,0,0,1,318.42,332.41Z"/><path class="cls-1" d="M353.12,332.41a5,5,0,0,1-5-5v-3a5,5,0,1,1,10,0v3A5,5,0,0,1,353.12,332.41Z"/><path class="cls-1" d="M493.47,332.31h-45a5,5,0,0,1-5-5V302.48a5,5,0,0,1,5-5h48a5,5,0,0,1,0,10h-43v14.83h40a5,5,0,0,1,0,10Z"/><path class="cls-1" d="M473.17,331.48a5,5,0,0,1-5-5v-24a5,5,0,0,1,10,0v24A5,5,0,0,1,473.17,331.48Z"/><path class="cls-1" d="M432.5,228.81H117.56a5,5,0,0,1,0-10H427.5V203.68a5,5,0,0,1,10,0v20.13A5,5,0,0,1,432.5,228.81Z"/><path class="cls-1" d="M434.66,267.67H86.15a5,5,0,0,1,0-10H429.66V247.53H101.14a5,5,0,0,1,0-10H434.66a5,5,0,0,1,5,5v20.14A5,5,0,0,1,434.66,267.67Z"/><path class="cls-1" d="M215.25,186.89a5,5,0,0,1-5-5V168.31a5,5,0,0,0-5-5h-58.5a5,5,0,0,0-5,5v13.58a5,5,0,0,1-10,0V168.31a15,15,0,0,1,15-15h58.5a15,15,0,0,1,15,15v13.58A5,5,0,0,1,215.25,186.89Z"/><path class="cls-1" d="M400.5,163.31a5,5,0,0,1-5-5v-12.5H277v12.5a5,5,0,0,1-10,0v-17.5a5,5,0,0,1,5-5H400.5a5,5,0,0,1,5,5v17.5A5,5,0,0,1,400.5,163.31Z"/><path class="cls-1" d="M360.6,163.31a5,5,0,0,1-5-5V100.5h-38v57.81a5,5,0,0,1-10,0V95.5a5,5,0,0,1,5-5h48a5,5,0,0,1,5,5v62.81A5,5,0,0,1,360.6,163.31Z"/><path class="cls-1" d="M400.5,228.81a5,5,0,0,1-5-5V203.68a5,5,0,0,1,10,0v20.13A5,5,0,0,1,400.5,228.81Z"/><path class="cls-1" d="M368.5,228.81a5,5,0,0,1-5-5V203.68a5,5,0,0,1,10,0v20.13A5,5,0,0,1,368.5,228.81Z"/><path class="cls-1" d="M336.5,228.81a5,5,0,0,1-5-5V203.68a5,5,0,0,1,10,0v20.13A5,5,0,0,1,336.5,228.81Z"/><path class="cls-1" d="M304.5,228.81a5,5,0,0,1-5-5V203.68a5,5,0,0,1,10,0v20.13A5,5,0,0,1,304.5,228.81Z"/><path class="cls-1" d="M272.5,228.81a5,5,0,0,1-5-5V203.68a5,5,0,0,1,10,0v20.13A5,5,0,0,1,272.5,228.81Z"/><path class="cls-1" d="M240.5,228.81a5,5,0,0,1-5-5V203.68a5,5,0,0,1,10,0v20.13A5,5,0,0,1,240.5,228.81Z"/><path class="cls-1" d="M208.5,228.81a5,5,0,0,1-5-5V203.68a5,5,0,0,1,10,0v20.13A5,5,0,0,1,208.5,228.81Z"/><path class="cls-1" d="M176.5,228.81a5,5,0,0,1-5-5V203.68a5,5,0,0,1,10,0v20.13A5,5,0,0,1,176.5,228.81Z"/><path class="cls-1" d="M400.5,267.67a5,5,0,0,1-5-5V242.53a5,5,0,1,1,10,0v20.14A5,5,0,0,1,400.5,267.67Z"/><path class="cls-1" d="M368.5,267.67a5,5,0,0,1-5-5V242.53a5,5,0,1,1,10,0v20.14A5,5,0,0,1,368.5,267.67Z"/><path class="cls-1" d="M336.5,267.67a5,5,0,0,1-5-5V242.53a5,5,0,1,1,10,0v20.14A5,5,0,0,1,336.5,267.67Z"/><path class="cls-1" d="M304.5,267.67a5,5,0,0,1-5-5V242.53a5,5,0,1,1,10,0v20.14A5,5,0,0,1,304.5,267.67Z"/><path class="cls-1" d="M272.5,267.67a5,5,0,0,1-5-5V242.53a5,5,0,1,1,10,0v20.14A5,5,0,0,1,272.5,267.67Z"/><path class="cls-1" d="M240.5,267.67a5,5,0,0,1-5-5V242.53a5,5,0,1,1,10,0v20.14A5,5,0,0,1,240.5,267.67Z"/><path class="cls-1" d="M208.5,267.67a5,5,0,0,1-5-5V242.53a5,5,0,1,1,10,0v20.14A5,5,0,0,1,208.5,267.67Z"/><path class="cls-1" d="M176.5,267.67a5,5,0,0,1-5-5V242.53a5,5,0,1,1,10,0v20.14A5,5,0,0,1,176.5,267.67Z"/><path class="cls-1" d="M144.5,267.67a5,5,0,0,1-5-5V242.53a5,5,0,1,1,10,0v20.14A5,5,0,0,1,144.5,267.67Z"/><path class="cls-1" d="M159.55,85.77A5,5,0,0,1,157,76.48c13.23-7.94,32.06-4.35,32.85-4.2a5,5,0,0,1-1.92,9.82h0c-.16,0-15.89-3-25.78,3A4.93,4.93,0,0,1,159.55,85.77Z"/><path class="cls-1" d="M94.88,60.73a5,5,0,0,1-5-4.35c-.43-3.35-3-7.41-3.86-8.57a5,5,0,0,1,8-6c.5.67,4.9,6.74,5.75,13.24a5,5,0,0,1-4.31,5.61C95.31,60.71,95.09,60.73,94.88,60.73Z"/><path class="cls-1" d="M173.94,145.88H49A40.76,40.76,0,0,1,38.77,66c-.06-.82-.09-1.64-.09-2.47a31.86,31.86,0,0,1,51-25.45A55.23,55.23,0,0,1,192.77,73.27a37.23,37.23,0,0,1-11.23,72.61Zm-124.71-10H181.49a27.23,27.23,0,0,0,4.52-54,5,5,0,0,1-3.95-6.17A45.23,45.23,0,0,0,96,48.3a5,5,0,0,1-8.54,1.4A21.85,21.85,0,0,0,48.68,63.54a21.56,21.56,0,0,0,.61,5.13,5,5,0,0,1-4,6.11,30.75,30.75,0,0,0,4,61.08Z"/><path class="cls-1" d="M71,76a5.05,5.05,0,0,1-1.56-.26c-11.37-3.73-26.63-.54-26.78-.5a5,5,0,0,1-2.11-9.78c.73-.16,18-3.81,32,.78A5,5,0,0,1,71,76Z"/><path class="cls-1" d="M110.77,397.87a57.9,57.9,0,0,1-19.08-3.41C81.26,390.7,67.26,382,59.79,362.07a5,5,0,0,1,9.37-3.5c11.63,31.09,41.64,29.36,42.91,29.26a5,5,0,0,1,.75,10C112.71,397.81,112,397.87,110.77,397.87Z"/><path class="cls-1" d="M18.18,397.87c-1.21,0-1.94-.06-2-.06a5,5,0,0,1,.76-10c1.26.08,31.27,1.81,42.89-29.27a5,5,0,0,1,9.37,3.5c-7.47,20-21.47,28.63-31.9,32.39A57.86,57.86,0,0,1,18.18,397.87Z"/><path class="cls-1" d="M206.69,397.87a57.82,57.82,0,0,1-19.08-3.41c-10.44-3.76-24.44-12.43-31.9-32.39a5,5,0,1,1,9.36-3.5c11.71,31.28,42.58,29.29,42.89,29.27a5,5,0,1,1,.77,10C208.62,397.81,207.9,397.87,206.69,397.87Z"/><path class="cls-1" d="M114.09,397.87c-1.21,0-1.93-.06-2-.06a5,5,0,0,1,.75-10c1.31.08,31.28,1.8,42.91-29.27a5,5,0,1,1,9.36,3.5c-7.46,20-21.46,28.63-31.9,32.39A57.82,57.82,0,0,1,114.09,397.87Z"/><path class="cls-1" d="M303,397.87A57.9,57.9,0,0,1,284,394.46c-10.43-3.76-24.43-12.43-31.89-32.39a5,5,0,0,1,9.36-3.5c11.63,31.08,41.63,29.36,42.91,29.26a5,5,0,0,1,.75,10C305,397.81,304.25,397.87,303,397.87Z"/><path class="cls-1" d="M210.44,397.87c-1.21,0-1.94-.06-2-.06a5,5,0,0,1,.76-10c1.26.08,31.27,1.82,42.9-29.27a5,5,0,1,1,9.36,3.5C254,382,240,390.7,229.52,394.46A57.82,57.82,0,0,1,210.44,397.87Z"/><path class="cls-1" d="M399,397.87a57.82,57.82,0,0,1-19.08-3.41C369.44,390.7,355.43,382,348,362.07a5,5,0,1,1,9.36-3.5C369,389.65,399,387.93,400.24,387.83a5,5,0,0,1,.75,10C400.89,397.81,400.16,397.87,399,397.87Z"/><path class="cls-1" d="M306.35,397.87c-1.21,0-1.93-.06-2-.06a5,5,0,0,1,.75-10c1.3.08,31.29,1.8,42.91-29.27a5,5,0,1,1,9.36,3.5c-7.46,20-21.46,28.63-31.89,32.39A57.91,57.91,0,0,1,306.35,397.87Z"/><path class="cls-1" d="M494.86,397.87a57.86,57.86,0,0,1-19.08-3.41c-10.43-3.76-24.43-12.43-31.9-32.39a5,5,0,0,1,9.37-3.5c11.62,31.08,41.63,29.36,42.91,29.26a5,5,0,0,1,.74,10C496.8,397.81,496.07,397.87,494.86,397.87Z"/><path class="cls-1" d="M402.27,397.87c-1.22,0-1.94-.06-2-.06a5,5,0,1,1,.76-10c1.26.08,31.26,1.82,42.89-29.27a5,5,0,0,1,9.37,3.5c-7.47,20-21.47,28.63-31.9,32.39A57.9,57.9,0,0,1,402.27,397.87Z"/><path class="cls-1" d="M206.9,452.65a57.9,57.9,0,0,1-19.08-3.41c-10.43-3.76-24.43-12.43-31.9-32.39a5,5,0,0,1,9.37-3.5c11.63,31.09,41.64,29.36,42.91,29.27a5,5,0,0,1,.75,10C208.84,452.6,208.12,452.65,206.9,452.65Z"/><path class="cls-1" d="M114.31,452.65c-1.21,0-1.94,0-2-.06a5,5,0,0,1,.76-10c1.26.08,31.27,1.81,42.89-29.27a5,5,0,0,1,9.37,3.5c-7.46,20-21.47,28.63-31.9,32.39A57.82,57.82,0,0,1,114.31,452.65Z"/><path class="cls-1" d="M302.82,452.65a57.82,57.82,0,0,1-19.08-3.41c-10.44-3.76-24.44-12.43-31.9-32.39a5,5,0,0,1,9.36-3.5c11.7,31.28,42.58,29.29,42.89,29.27a5,5,0,1,1,.77,10C304.75,452.6,304,452.65,302.82,452.65Z"/><path class="cls-1" d="M210.22,452.65c-1.21,0-1.93,0-2-.06a5,5,0,0,1,.75-10c1.31.08,31.28,1.8,42.91-29.27a5,5,0,1,1,9.36,3.5c-7.46,20-21.46,28.63-31.9,32.39A57.82,57.82,0,0,1,210.22,452.65Z"/><path class="cls-1" d="M399.17,452.65a57.91,57.91,0,0,1-19.09-3.41c-10.43-3.76-24.43-12.43-31.89-32.39a5,5,0,1,1,9.36-3.5c11.63,31.08,41.64,29.36,42.91,29.27a5,5,0,0,1,.75,10C401.1,452.6,400.38,452.65,399.17,452.65Z"/><path class="cls-1" d="M306.57,452.65c-1.21,0-1.94,0-2-.06a5,5,0,0,1,.76-10c1.26.09,31.27,1.82,42.9-29.27a5,5,0,1,1,9.36,3.5c-7.46,20-21.47,28.63-31.9,32.39A57.82,57.82,0,0,1,306.57,452.65Z"/><path class="cls-1" d="M40.5,283.93a5,5,0,0,1-5-5V234a5,5,0,0,1,10,0v44.93A5,5,0,0,1,40.5,283.93Z"/><path class="cls-1" d="M47.67,245.71H33.33a5,5,0,0,1,0-10H47.67a5,5,0,0,1,0,10Z"/></g><g id="Outline"><path class="cls-1" d="M461,307.48H40.5a5,5,0,0,1,0-10H461a5,5,0,0,1,0,10Z"/><path class="cls-1" d="M360.6,123h-48a5,5,0,0,1,0-10h48a5,5,0,0,1,0,10Z"/><path class="cls-1" d="M433.17,107a5,5,0,0,1-4.91-4c-3.38-17.24-22-14.3-24.08-13.91a5,5,0,0,1-1.88-9.82,40.66,40.66,0,0,1,15.37.43,26.07,26.07,0,0,1,15.6,10c5-6.74,13.84-13,28.48-13a5,5,0,0,1,0,10c-20.92,0-23.54,15.43-23.64,16.08a5,5,0,0,1-4.84,4.24Z"/></g></svg>