<svg xmlns="http://www.w3.org/2000/svg" version="1.1" xmlns:xlink="http://www.w3.org/1999/xlink" xmlns:svgjs="http://svgjs.dev/svgjs" viewBox="0 0 1422 800" opacity="1"><g stroke-width="1" stroke="hsl(32, 100%, 51%)" fill="none" stroke-linecap="round"><path d="M 0 12208 Q 355.5 -100 711 400 Q 1066.5 900 1422 12208" opacity="0.61"></path><path d="M 0 12096 Q 355.5 -100 711 400 Q 1066.5 900 1422 12096" opacity="0.36"></path><path d="M 0 11984 Q 355.5 -100 711 400 Q 1066.5 900 1422 11984" opacity="0.57"></path><path d="M 0 11872 Q 355.5 -100 711 400 Q 1066.5 900 1422 11872" opacity="0.51"></path><path d="M 0 11760 Q 355.5 -100 711 400 Q 1066.5 900 1422 11760" opacity="0.49"></path><path d="M 0 11648 Q 355.5 -100 711 400 Q 1066.5 900 1422 11648" opacity="0.60"></path><path d="M 0 11536 Q 355.5 -100 711 400 Q 1066.5 900 1422 11536" opacity="0.47"></path><path d="M 0 11424 Q 355.5 -100 711 400 Q 1066.5 900 1422 11424" opacity="0.34"></path><path d="M 0 11312 Q 355.5 -100 711 400 Q 1066.5 900 1422 11312" opacity="0.23"></path><path d="M 0 11200 Q 355.5 -100 711 400 Q 1066.5 900 1422 11200" opacity="0.34"></path><path d="M 0 11088 Q 355.5 -100 711 400 Q 1066.5 900 1422 11088" opacity="0.86"></path><path d="M 0 10976 Q 355.5 -100 711 400 Q 1066.5 900 1422 10976" opacity="0.08"></path><path d="M 0 10864 Q 355.5 -100 711 400 Q 1066.5 900 1422 10864" opacity="0.94"></path><path d="M 0 10752 Q 355.5 -100 711 400 Q 1066.5 900 1422 10752" opacity="0.25"></path><path d="M 0 10640 Q 355.5 -100 711 400 Q 1066.5 900 1422 10640" opacity="0.68"></path><path d="M 0 10528 Q 355.5 -100 711 400 Q 1066.5 900 1422 10528" opacity="0.15"></path><path d="M 0 10416 Q 355.5 -100 711 400 Q 1066.5 900 1422 10416" opacity="0.93"></path><path d="M 0 10304 Q 355.5 -100 711 400 Q 1066.5 900 1422 10304" opacity="0.84"></path><path d="M 0 10192 Q 355.5 -100 711 400 Q 1066.5 900 1422 10192" opacity="0.78"></path><path d="M 0 10080 Q 355.5 -100 711 400 Q 1066.5 900 1422 10080" opacity="0.24"></path><path d="M 0 9968 Q 355.5 -100 711 400 Q 1066.5 900 1422 9968" opacity="0.50"></path><path d="M 0 9856 Q 355.5 -100 711 400 Q 1066.5 900 1422 9856" opacity="0.86"></path><path d="M 0 9744 Q 355.5 -100 711 400 Q 1066.5 900 1422 9744" opacity="0.95"></path><path d="M 0 9632 Q 355.5 -100 711 400 Q 1066.5 900 1422 9632" opacity="0.80"></path><path d="M 0 9520 Q 355.5 -100 711 400 Q 1066.5 900 1422 9520" opacity="0.76"></path><path d="M 0 9408 Q 355.5 -100 711 400 Q 1066.5 900 1422 9408" opacity="0.68"></path><path d="M 0 9296 Q 355.5 -100 711 400 Q 1066.5 900 1422 9296" opacity="0.59"></path><path d="M 0 9184 Q 355.5 -100 711 400 Q 1066.5 900 1422 9184" opacity="0.24"></path><path d="M 0 9072 Q 355.5 -100 711 400 Q 1066.5 900 1422 9072" opacity="0.23"></path><path d="M 0 8960 Q 355.5 -100 711 400 Q 1066.5 900 1422 8960" opacity="0.45"></path><path d="M 0 8848 Q 355.5 -100 711 400 Q 1066.5 900 1422 8848" opacity="0.47"></path><path d="M 0 8736 Q 355.5 -100 711 400 Q 1066.5 900 1422 8736" opacity="0.54"></path><path d="M 0 8624 Q 355.5 -100 711 400 Q 1066.5 900 1422 8624" opacity="0.10"></path><path d="M 0 8512 Q 355.5 -100 711 400 Q 1066.5 900 1422 8512" opacity="0.95"></path><path d="M 0 8400 Q 355.5 -100 711 400 Q 1066.5 900 1422 8400" opacity="0.26"></path><path d="M 0 8288 Q 355.5 -100 711 400 Q 1066.5 900 1422 8288" opacity="0.66"></path><path d="M 0 8176 Q 355.5 -100 711 400 Q 1066.5 900 1422 8176" opacity="0.76"></path><path d="M 0 8064 Q 355.5 -100 711 400 Q 1066.5 900 1422 8064" opacity="0.90"></path><path d="M 0 7952 Q 355.5 -100 711 400 Q 1066.5 900 1422 7952" opacity="0.18"></path><path d="M 0 7840 Q 355.5 -100 711 400 Q 1066.5 900 1422 7840" opacity="0.16"></path><path d="M 0 7728 Q 355.5 -100 711 400 Q 1066.5 900 1422 7728" opacity="0.49"></path><path d="M 0 7616 Q 355.5 -100 711 400 Q 1066.5 900 1422 7616" opacity="0.19"></path><path d="M 0 7504 Q 355.5 -100 711 400 Q 1066.5 900 1422 7504" opacity="0.44"></path><path d="M 0 7392 Q 355.5 -100 711 400 Q 1066.5 900 1422 7392" opacity="0.32"></path><path d="M 0 7280 Q 355.5 -100 711 400 Q 1066.5 900 1422 7280" opacity="0.58"></path><path d="M 0 7168 Q 355.5 -100 711 400 Q 1066.5 900 1422 7168" opacity="0.38"></path><path d="M 0 7056 Q 355.5 -100 711 400 Q 1066.5 900 1422 7056" opacity="0.68"></path><path d="M 0 6944 Q 355.5 -100 711 400 Q 1066.5 900 1422 6944" opacity="0.35"></path><path d="M 0 6832 Q 355.5 -100 711 400 Q 1066.5 900 1422 6832" opacity="0.69"></path><path d="M 0 6720 Q 355.5 -100 711 400 Q 1066.5 900 1422 6720" opacity="0.19"></path><path d="M 0 6608 Q 355.5 -100 711 400 Q 1066.5 900 1422 6608" opacity="0.24"></path><path d="M 0 6496 Q 355.5 -100 711 400 Q 1066.5 900 1422 6496" opacity="0.08"></path><path d="M 0 6384 Q 355.5 -100 711 400 Q 1066.5 900 1422 6384" opacity="0.99"></path><path d="M 0 6272 Q 355.5 -100 711 400 Q 1066.5 900 1422 6272" opacity="0.16"></path><path d="M 0 6160 Q 355.5 -100 711 400 Q 1066.5 900 1422 6160" opacity="0.64"></path><path d="M 0 6048 Q 355.5 -100 711 400 Q 1066.5 900 1422 6048" opacity="0.78"></path><path d="M 0 5936 Q 355.5 -100 711 400 Q 1066.5 900 1422 5936" opacity="0.75"></path><path d="M 0 5824 Q 355.5 -100 711 400 Q 1066.5 900 1422 5824" opacity="0.23"></path><path d="M 0 5712 Q 355.5 -100 711 400 Q 1066.5 900 1422 5712" opacity="0.26"></path><path d="M 0 5600 Q 355.5 -100 711 400 Q 1066.5 900 1422 5600" opacity="0.26"></path><path d="M 0 5488 Q 355.5 -100 711 400 Q 1066.5 900 1422 5488" opacity="0.84"></path><path d="M 0 5376 Q 355.5 -100 711 400 Q 1066.5 900 1422 5376" opacity="0.69"></path><path d="M 0 5264 Q 355.5 -100 711 400 Q 1066.5 900 1422 5264" opacity="0.87"></path><path d="M 0 5152 Q 355.5 -100 711 400 Q 1066.5 900 1422 5152" opacity="0.62"></path><path d="M 0 5040 Q 355.5 -100 711 400 Q 1066.5 900 1422 5040" opacity="0.86"></path><path d="M 0 4928 Q 355.5 -100 711 400 Q 1066.5 900 1422 4928" opacity="0.10"></path><path d="M 0 4816 Q 355.5 -100 711 400 Q 1066.5 900 1422 4816" opacity="0.49"></path><path d="M 0 4704 Q 355.5 -100 711 400 Q 1066.5 900 1422 4704" opacity="0.11"></path><path d="M 0 4592 Q 355.5 -100 711 400 Q 1066.5 900 1422 4592" opacity="0.26"></path><path d="M 0 4480 Q 355.5 -100 711 400 Q 1066.5 900 1422 4480" opacity="0.49"></path><path d="M 0 4368 Q 355.5 -100 711 400 Q 1066.5 900 1422 4368" opacity="0.55"></path><path d="M 0 4256 Q 355.5 -100 711 400 Q 1066.5 900 1422 4256" opacity="0.37"></path><path d="M 0 4144 Q 355.5 -100 711 400 Q 1066.5 900 1422 4144" opacity="0.32"></path><path d="M 0 4032 Q 355.5 -100 711 400 Q 1066.5 900 1422 4032" opacity="0.51"></path><path d="M 0 3920 Q 355.5 -100 711 400 Q 1066.5 900 1422 3920" opacity="0.87"></path><path d="M 0 3808 Q 355.5 -100 711 400 Q 1066.5 900 1422 3808" opacity="0.19"></path><path d="M 0 3696 Q 355.5 -100 711 400 Q 1066.5 900 1422 3696" opacity="0.82"></path><path d="M 0 3584 Q 355.5 -100 711 400 Q 1066.5 900 1422 3584" opacity="0.34"></path><path d="M 0 3472 Q 355.5 -100 711 400 Q 1066.5 900 1422 3472" opacity="0.24"></path><path d="M 0 3360 Q 355.5 -100 711 400 Q 1066.5 900 1422 3360" opacity="0.52"></path><path d="M 0 3248 Q 355.5 -100 711 400 Q 1066.5 900 1422 3248" opacity="0.59"></path><path d="M 0 3136 Q 355.5 -100 711 400 Q 1066.5 900 1422 3136" opacity="0.24"></path><path d="M 0 3024 Q 355.5 -100 711 400 Q 1066.5 900 1422 3024" opacity="0.84"></path><path d="M 0 2912 Q 355.5 -100 711 400 Q 1066.5 900 1422 2912" opacity="0.83"></path><path d="M 0 2800 Q 355.5 -100 711 400 Q 1066.5 900 1422 2800" opacity="0.21"></path><path d="M 0 2688 Q 355.5 -100 711 400 Q 1066.5 900 1422 2688" opacity="0.08"></path><path d="M 0 2576 Q 355.5 -100 711 400 Q 1066.5 900 1422 2576" opacity="0.18"></path><path d="M 0 2464 Q 355.5 -100 711 400 Q 1066.5 900 1422 2464" opacity="0.61"></path><path d="M 0 2352 Q 355.5 -100 711 400 Q 1066.5 900 1422 2352" opacity="0.34"></path><path d="M 0 2240 Q 355.5 -100 711 400 Q 1066.5 900 1422 2240" opacity="1.00"></path><path d="M 0 2128 Q 355.5 -100 711 400 Q 1066.5 900 1422 2128" opacity="0.08"></path><path d="M 0 2016 Q 355.5 -100 711 400 Q 1066.5 900 1422 2016" opacity="0.76"></path><path d="M 0 1904 Q 355.5 -100 711 400 Q 1066.5 900 1422 1904" opacity="0.71"></path><path d="M 0 1792 Q 355.5 -100 711 400 Q 1066.5 900 1422 1792" opacity="0.49"></path><path d="M 0 1680 Q 355.5 -100 711 400 Q 1066.5 900 1422 1680" opacity="0.59"></path><path d="M 0 1568 Q 355.5 -100 711 400 Q 1066.5 900 1422 1568" opacity="0.37"></path><path d="M 0 1456 Q 355.5 -100 711 400 Q 1066.5 900 1422 1456" opacity="0.33"></path><path d="M 0 1344 Q 355.5 -100 711 400 Q 1066.5 900 1422 1344" opacity="0.18"></path><path d="M 0 1232 Q 355.5 -100 711 400 Q 1066.5 900 1422 1232" opacity="0.89"></path><path d="M 0 1120 Q 355.5 -100 711 400 Q 1066.5 900 1422 1120" opacity="0.67"></path><path d="M 0 1008 Q 355.5 -100 711 400 Q 1066.5 900 1422 1008" opacity="0.55"></path><path d="M 0 896 Q 355.5 -100 711 400 Q 1066.5 900 1422 896" opacity="0.47"></path><path d="M 0 784 Q 355.5 -100 711 400 Q 1066.5 900 1422 784" opacity="0.67"></path><path d="M 0 672 Q 355.5 -100 711 400 Q 1066.5 900 1422 672" opacity="0.59"></path><path d="M 0 560 Q 355.5 -100 711 400 Q 1066.5 900 1422 560" opacity="0.67"></path><path d="M 0 448 Q 355.5 -100 711 400 Q 1066.5 900 1422 448" opacity="0.85"></path><path d="M 0 336 Q 355.5 -100 711 400 Q 1066.5 900 1422 336" opacity="0.13"></path><path d="M 0 224 Q 355.5 -100 711 400 Q 1066.5 900 1422 224" opacity="0.94"></path></g></svg>