<?xml version="1.0" ?><svg viewBox="0 0 512 512" xmlns="http://www.w3.org/2000/svg"><defs><style>.cls-1{fill:#3f456b;}</style></defs><title/><g id="Lines"><path class="cls-1" d="M264.4,503h-208C31.8,503,11,482.16,11,457.49V55.84A44.13,44.13,0,0,1,24.5,24.13,45.4,45.4,0,0,1,56.43,11h208a5,5,0,0,1,0,10h-208C37.23,21,21,37,21,55.84V457.49C21,476.74,37.23,493,56.43,493h208a5,5,0,0,1,0,10Z"/><path class="cls-1" d="M74.7,105.89a28.64,28.64,0,1,1,28.63-28.64A28.67,28.67,0,0,1,74.7,105.89Zm0-47.27A18.64,18.64,0,1,0,93.33,77.25,18.65,18.65,0,0,0,74.7,58.62Z"/><path class="cls-1" d="M494,97H211a5,5,0,0,1,0-10H494a5,5,0,0,1,0,10Z"/><path class="cls-1" d="M494,426H211a5,5,0,0,1,0-10H494a5,5,0,0,1,0,10Z"/><path class="cls-1" d="M456.4,503h-208C223.8,503,203,482.16,203,457.49V55.84a44.13,44.13,0,0,1,13.5-31.71A45.4,45.4,0,0,1,248.43,11h208A44.78,44.78,0,0,1,501,55.84V457.49C501,482.58,481,503,456.4,503Zm-208-482C229.23,21,213,37,213,55.84V457.49c0,19.25,16.23,35.51,35.43,35.51h208c18.76,0,34.6-16.26,34.6-35.51V55.84A34.76,34.76,0,0,0,456.4,21Z"/><path class="cls-1" d="M373,62H330a5,5,0,0,1,0-10h43a5,5,0,0,1,0,10Z"/></g><g id="Outline"><path class="cls-1" d="M405,187a5,5,0,0,1,5-5h0a5,5,0,0,1,5,5h0a5,5,0,0,1-5,5h0A5,5,0,0,1,405,187Zm-20,0a5,5,0,0,1,5-5h0a5,5,0,0,1,5,5h0a5,5,0,0,1-5,5h0A5,5,0,0,1,385,187Zm-20,0a5,5,0,0,1,5-5h0a5,5,0,0,1,5,5h0a5,5,0,0,1-5,5h0A5,5,0,0,1,365,187Zm-20,0a5,5,0,0,1,5-5h0a5,5,0,0,1,5,5h0a5,5,0,0,1-5,5h0A5,5,0,0,1,345,187Zm-20,0a5,5,0,0,1,5-5h0a5,5,0,0,1,5,5h0a5,5,0,0,1-5,5h0A5,5,0,0,1,325,187Zm-20,0a5,5,0,0,1,5-5h0a5,5,0,0,1,5,5h0a5,5,0,0,1-5,5h0A5,5,0,0,1,305,187Zm-20,0a5,5,0,0,1,5-5h0a5,5,0,0,1,5,5h0a5,5,0,0,1-5,5h0A5,5,0,0,1,285,187Z"/><path class="cls-1" d="M373,154H334a5,5,0,0,1,0-10h39a5,5,0,0,1,0,10Z"/><path class="cls-1" d="M294.29,278H293a5,5,0,0,1,0-10h1.29a5,5,0,0,1,0,10Z"/><path class="cls-1" d="M333.11,278h-1.29a5,5,0,1,1,0-10h1.29a5,5,0,0,1,0,10Z"/><path class="cls-1" d="M370.63,278h-1.29a5,5,0,1,1,0-10h1.29a5,5,0,0,1,0,10Z"/><path class="cls-1" d="M410,278h-1.29a5,5,0,0,1,0-10H410a5,5,0,0,1,0,10Z"/><path class="cls-1" d="M294.29,239H293a5,5,0,0,1,0-10h1.29a5,5,0,0,1,0,10Z"/><path class="cls-1" d="M333.11,239h-1.29a5,5,0,1,1,0-10h1.29a5,5,0,0,1,0,10Z"/><path class="cls-1" d="M370.63,239h-1.29a5,5,0,1,1,0-10h1.29a5,5,0,0,1,0,10Z"/><path class="cls-1" d="M410,239h-1.29a5,5,0,0,1,0-10H410a5,5,0,0,1,0,10Z"/><path class="cls-1" d="M294.29,356H293a5,5,0,0,1,0-10h1.29a5,5,0,0,1,0,10Z"/><path class="cls-1" d="M333.11,356h-1.29a5,5,0,1,1,0-10h1.29a5,5,0,0,1,0,10Z"/><path class="cls-1" d="M370.63,356h-1.29a5,5,0,1,1,0-10h1.29a5,5,0,0,1,0,10Z"/><path class="cls-1" d="M410,356h-1.29a5,5,0,0,1,0-10H410a5,5,0,0,1,0,10Z"/><path class="cls-1" d="M294.29,317H293a5,5,0,0,1,0-10h1.29a5,5,0,0,1,0,10Z"/><path class="cls-1" d="M333.11,317h-1.29a5,5,0,1,1,0-10h1.29a5,5,0,0,1,0,10Z"/><path class="cls-1" d="M370.63,317h-1.29a5,5,0,1,1,0-10h1.29a5,5,0,0,1,0,10Z"/><path class="cls-1" d="M410,317h-1.29a5,5,0,0,1,0-10H410a5,5,0,0,1,0,10Z"/><path class="cls-1" d="M354,478.55a22,22,0,1,1,22-22A22,22,0,0,1,354,478.55Zm0-33.93a12,12,0,1,0,12,12A12,12,0,0,0,354,444.62Z"/></g></svg>