<?xml version="1.0" ?><svg viewBox="0 0 512 512" xmlns="http://www.w3.org/2000/svg"><defs><style>.cls-1{fill:#3f456b;}</style></defs><title/><g id="Lines"><path class="cls-1" d="M48.5,496.77H17a5,5,0,0,1-5-5v-474a5,5,0,0,1,2.23-4.16C15,13.13,32.09,2,51.09,13.5a5,5,0,0,1,2.41,4.27v474A5,5,0,0,1,48.5,496.77Zm-26.5-10H43.5v-466a25.14,25.14,0,0,0-21.5,0Z"/><path class="cls-1" d="M365.55,411.36c-34.56,0-66.46-8.84-94.22-26.36-51.83-32.71-108.84-30.94-147.53-23.69C81.66,369.2,51.65,385,51.35,385.19a5,5,0,0,1-4.7-8.83c1.27-.68,31.68-16.7,75.3-24.88,40.46-7.57,100.14-9.38,154.72,25.06A161.26,161.26,0,0,0,352.62,401c22.27,1.51,46-1.05,70.42-7.61A285.84,285.84,0,0,0,493,364V58.59A296.52,296.52,0,0,1,425.93,86c-57.81,15.58-111.27,9.36-154.6-18C219.5,35.29,162.49,37.07,123.8,44.31,81.66,52.2,51.65,68,51.35,68.19a5,5,0,0,1-4.7-8.83c1.27-.68,31.68-16.7,75.3-24.88,40.46-7.57,100.14-9.38,154.72,25.06A161.26,161.26,0,0,0,352.62,84c22.27,1.51,46-1.05,70.42-7.61C465,65.14,495,45.78,495.27,45.58A5,5,0,0,1,503,49.77v317a5,5,0,0,1-2.27,4.19c-1.26.82-31.41,20.32-74.8,32A232.18,232.18,0,0,1,365.55,411.36Z"/><path class="cls-1" d="M257,322.77a109,109,0,1,1,109-109A109.12,109.12,0,0,1,257,322.77Zm0-208a99,99,0,1,0,99,99A99.11,99.11,0,0,0,257,114.77Z"/></g><g id="Outline"><path class="cls-1" d="M48,68.77H17.5a5,5,0,0,1,0-10H48a5,5,0,1,1,0,10Z"/><path class="cls-1" d="M48,385.77H17a5,5,0,0,1,0-10H48a5,5,0,0,1,0,10Z"/></g></svg>