<?xml version="1.0" ?><svg viewBox="0 0 512 512" xmlns="http://www.w3.org/2000/svg"><defs><style>.cls-1{fill:#3f456b;}</style></defs><title/><g id="Lines"><path class="cls-1" d="M497,501H17a5,5,0,0,1,0-10H497a5,5,0,0,1,0,10Z"/><path class="cls-1" d="M32.5,276a5,5,0,0,1-5-5V79a5,5,0,0,1,10,0V271A5,5,0,0,1,32.5,276Z"/><path class="cls-1" d="M481,276a5,5,0,0,1-5-5V79a5,5,0,0,1,10,0V271A5,5,0,0,1,481,276Z"/><path class="cls-1" d="M32.5,429a5,5,0,0,1-5-5V304a5,5,0,0,1,10,0V424A5,5,0,0,1,32.5,429Z"/><path class="cls-1" d="M481,427a5,5,0,0,1-5-5V304a5,5,0,0,1,10,0V422A5,5,0,0,1,481,427Z"/><path class="cls-1" d="M497,84H17a5,5,0,0,1-5-5V47a5,5,0,0,1,5-5H497a5,5,0,0,1,5,5V79A5,5,0,0,1,497,84ZM22,74H492V52H22Z"/><path class="cls-1" d="M497,309H17a5,5,0,0,1-5-5V272a5,5,0,0,1,5-5H176.5a5,5,0,0,1,0,10H22v22H492V277H336.5a5,5,0,0,1,0-10H497a5,5,0,0,1,5,5v32A5,5,0,0,1,497,309Z"/><path class="cls-1" d="M464,52H50a5,5,0,0,1-5-5V15a5,5,0,0,1,5-5H464a5,5,0,0,1,5,5V47A5,5,0,0,1,464,52ZM55,42H459V20H55Z"/><path class="cls-1" d="M144,501a5,5,0,0,1-5-5V15a5,5,0,0,1,10,0V496A5,5,0,0,1,144,501Z"/><path class="cls-1" d="M369,501a5,5,0,0,1-5-5V15a5,5,0,0,1,10,0V496A5,5,0,0,1,369,501Z"/><path class="cls-1" d="M273.62,228H239.38a5,5,0,0,1-5-5V189.62H201a5,5,0,0,1-5-5V150.38a5,5,0,0,1,5-5h33.38V112a5,5,0,0,1,5-5h34.24a5,5,0,0,1,5,5v33.38H312a5,5,0,0,1,5,5v34.24a5,5,0,0,1-5,5H278.62V223A5,5,0,0,1,273.62,228Zm-29.24-10h24.24V184.62a5,5,0,0,1,5-5H307V155.38H273.62a5,5,0,0,1-5-5V117H244.38v33.38a5,5,0,0,1-5,5H206v24.24h33.38a5,5,0,0,1,5,5Z"/><path class="cls-1" d="M336,309a5,5,0,0,1-5-5V259H182v45a5,5,0,0,1-10,0V254a5,5,0,0,1,5-5H336a5,5,0,0,1,5,5v50A5,5,0,0,1,336,309Z"/><path class="cls-1" d="M321,501a5,5,0,0,1-5-5V356H197V496a5,5,0,0,1-10,0V351a5,5,0,0,1,5-5H321a5,5,0,0,1,5,5V496A5,5,0,0,1,321,501Z"/><path class="cls-1" d="M256,501a5,5,0,0,1-5-5V352a5,5,0,0,1,10,0V496A5,5,0,0,1,256,501Z"/><path class="cls-1" d="M273,435a5,5,0,0,1-5-5V419a5,5,0,0,1,10,0v11A5,5,0,0,1,273,435Z"/><path class="cls-1" d="M240,435a5,5,0,0,1-5-5V419a5,5,0,0,1,10,0v11A5,5,0,0,1,240,435Z"/><path class="cls-1" d="M446,212H397a5,5,0,0,1-5-5V112a5,5,0,0,1,5-5h49a5,5,0,0,1,5,5v95A5,5,0,0,1,446,212Zm-44-10h39V117H402Z"/><path class="cls-1" d="M115,212H66a5,5,0,0,1-5-5V112a5,5,0,0,1,5-5h49a5,5,0,0,1,5,5v95A5,5,0,0,1,115,212ZM71,202h39V117H71Z"/><path class="cls-1" d="M462,245H397a5,5,0,0,1-5-5V207a5,5,0,0,1,5-5h65a5,5,0,0,1,5,5v33A5,5,0,0,1,462,245Zm-60-10h55V212H402Z"/><path class="cls-1" d="M115,245H50a5,5,0,0,1-5-5V207a5,5,0,0,1,5-5h65a5,5,0,0,1,5,5v33A5,5,0,0,1,115,245ZM55,235h55V212H55Z"/><path class="cls-1" d="M412.17,436H397a5,5,0,0,1-5-5V336a5,5,0,0,1,5-5h49a5,5,0,0,1,5,5v73.17a5,5,0,1,1-10,0V341H402v85h10.17a5,5,0,1,1,0,10Z"/><path class="cls-1" d="M112,501a5,5,0,0,1-5-5V469H22v27a5,5,0,0,1-10,0V464a5,5,0,0,1,5-5h95a5,5,0,0,1,5,5v32A5,5,0,0,1,112,501Z"/><path class="cls-1" d="M28.37,468.63A5,5,0,0,1,24,466.07,39.23,39.23,0,0,1,19,447c0-23.16,20.64-42,46-42s46,18.84,46,42a39.23,39.23,0,0,1-5,19.07,5,5,0,0,1-8.73-4.88A28.74,28.74,0,0,0,101,447c0-17.65-16.15-32-36-32s-36,14.35-36,32a28.72,28.72,0,0,0,3.73,14.19A5,5,0,0,1,30.8,468,4.88,4.88,0,0,1,28.37,468.63Z"/><path class="cls-1" d="M497,501a5,5,0,0,1-5-5V469H407v27a5,5,0,0,1-10,0V464a5,5,0,0,1,5-5h95a5,5,0,0,1,5,5v32A5,5,0,0,1,497,501Z"/><path class="cls-1" d="M413.37,468.63a5,5,0,0,1-4.37-2.56A39.23,39.23,0,0,1,404,447c0-23.16,20.64-42,46-42s46,18.84,46,42a39.23,39.23,0,0,1-5,19.07,5,5,0,0,1-8.73-4.88A28.74,28.74,0,0,0,486,447c0-17.65-16.15-32-36-32s-36,14.35-36,32a28.72,28.72,0,0,0,3.73,14.19,5,5,0,0,1-1.93,6.8A4.88,4.88,0,0,1,413.37,468.63Z"/><path class="cls-1" d="M115,436H102.5a5,5,0,0,1,0-10H110V341H71v69a5,5,0,0,1-10,0V336a5,5,0,0,1,5-5h49a5,5,0,0,1,5,5v95A5,5,0,0,1,115,436Z"/></g><g id="Outline"><path class="cls-1" d="M309,283h-1a5,5,0,0,1,0-10h1a5,5,0,0,1,0,10Zm-21,0h-1a5,5,0,0,1,0-10h1a5,5,0,0,1,0,10Zm-21,0h-1a5,5,0,0,1,0-10h1a5,5,0,0,1,0,10Zm-21,0h-1a5,5,0,0,1,0-10h1a5,5,0,0,1,0,10Zm-21,0h-1a5,5,0,0,1,0-10h1a5,5,0,0,1,0,10Zm-21,0h-1a5,5,0,0,1,0-10h1a5,5,0,0,1,0,10Z"/><path class="cls-1" d="M412.17,436H397a5,5,0,0,1-5-5V336a5,5,0,0,1,5-5h49a5,5,0,0,1,5,5v73.17a5,5,0,1,1-10,0V341H402v85h10.17a5,5,0,1,1,0,10Z"/><path class="cls-1" d="M445,148H397a5,5,0,0,1,0-10h48a5,5,0,0,1,0,10Z"/><path class="cls-1" d="M445,180H397a5,5,0,0,1,0-10h48a5,5,0,0,1,0,10Z"/><path class="cls-1" d="M114,148H66a5,5,0,0,1,0-10h48a5,5,0,0,1,0,10Z"/><path class="cls-1" d="M114,180H66a5,5,0,0,1,0-10h48a5,5,0,0,1,0,10Z"/><path class="cls-1" d="M445,372H397a5,5,0,0,1,0-10h48a5,5,0,0,1,0,10Z"/><path class="cls-1" d="M114,372H66a5,5,0,0,1,0-10h48a5,5,0,0,1,0,10Z"/><path class="cls-1" d="M445,405H397a5,5,0,0,1,0-10h48a5,5,0,0,1,0,10Z"/><path class="cls-1" d="M114,405H66a5,5,0,0,1,0-10h48a5,5,0,0,1,0,10Z"/></g></svg>