<?xml version="1.0" ?><svg viewBox="0 0 512 512" xmlns="http://www.w3.org/2000/svg"><defs><style>.cls-1{fill:#3f456b;}</style></defs><title/><g id="Lines"><path class="cls-1" d="M368,276a5,5,0,0,1-5-5V256a5,5,0,0,1,10,0v15A5,5,0,0,1,368,276Z"/><path class="cls-1" d="M374,346H362a15,15,0,0,1-15-15V283a15,15,0,0,1,15-15h12a15,15,0,0,1,15,15v48A15,15,0,0,1,374,346Zm-12-68a5,5,0,0,0-5,5v48a5,5,0,0,0,5,5h12a5,5,0,0,0,5-5V283a5,5,0,0,0-5-5Z"/><path class="cls-1" d="M338.77,399.69H282.5a5,5,0,0,1,0-10H338c10.74,0,39.32,0,65.06-14.24,32.13-17.79,48.42-51.4,48.42-99.89V224.15c0-17.15-7.39-23.84-26.35-23.84H84.08c-17.52,0-22.58,5.35-22.58,23.84v52.67c0,74.89,38.82,112.87,115.38,112.87H229.5a5,5,0,1,1,0,10H176.88c-82,0-125.38-42.49-125.38-122.87V224.15c0-24,9.44-33.84,32.58-33.84H425.15c24.46,0,36.35,11.07,36.35,33.84v51.41c0,52.4-18,88.95-53.58,108.64C380.51,399.38,350.77,399.69,338.77,399.69Z"/><path class="cls-1" d="M376.25,500H136.75c-35.15,0-59.91-11.94-73.6-35.48-11.65-20-11.65-43.36-11.65-51v-.19l3.76-97.8a5,5,0,0,1,10,.38L61.5,413.59c0,50.7,25.35,76.41,75.25,76.41h239.5c10.16,0,29.07,0,45.4-9.37,19.79-11.36,29.83-33.49,29.85-65.79l-3.76-99a5,5,0,0,1,10-.38l3.76,99.06v.19c0,36.19-11.73,61.27-34.88,74.56C408,500,386.55,500,376.25,500Z"/><path class="cls-1" d="M175.62,200.31a5,5,0,0,1-5-5V175.25c0-6.34-2.21-7.54-6.28-7.54H146.78c-4.07,0-6.28,1.2-6.28,7.54v20.06a5,5,0,0,1-10,0V175.25c0-11.15,5.93-17.54,16.28-17.54h17.56c10.35,0,16.28,6.39,16.28,17.54v20.06A5,5,0,0,1,175.62,200.31Z"/><path class="cls-1" d="M377.5,200.31a5,5,0,0,1-5-5V175.25c0-6.34-2.21-7.54-6.28-7.54H348.66c-4.07,0-6.28,1.2-6.28,7.54v20.06a5,5,0,1,1-10,0V175.25c0-11.15,5.93-17.54,16.28-17.54h17.56c10.35,0,16.28,6.39,16.28,17.54v20.06A5,5,0,0,1,377.5,200.31Z"/><path class="cls-1" d="M134.5,180.6a5,5,0,0,1-3.05-1,39.49,39.49,0,0,1,8.38-67.49,5,5,0,1,1,4,9.17,29.49,29.49,0,0,0-6.26,50.4,5,5,0,0,1-3.06,9Z"/><path class="cls-1" d="M176.66,180.57a5,5,0,0,1-3.07-8.95A29.49,29.49,0,0,0,166.71,121a5,5,0,1,1,3.79-9.26,39.5,39.5,0,0,1,9.22,67.79A5,5,0,0,1,176.66,180.57Z"/><path class="cls-1" d="M336.12,180.39a5,5,0,0,1-3.1-1.07,39.5,39.5,0,0,1,8.1-67,5,5,0,0,1,4.14,9.1,29.49,29.49,0,0,0-6.05,50,5,5,0,0,1-3.09,8.93Z"/><path class="cls-1" d="M378.76,180.39a5,5,0,0,1-3.09-8.92,29.5,29.5,0,0,0-8-50.85,5,5,0,1,1,3.46-9.38,39.49,39.49,0,0,1,10.74,68.08A5,5,0,0,1,378.76,180.39Z"/><path class="cls-1" d="M356.19,148.9a17.56,17.56,0,0,1-17.54-17.54V108.59c0-.21-.35-23.74-17.69-41.16-14.1-14.17-36-21.35-65.09-21.35s-51,7.18-65.09,21.35c-17.37,17.45-17.68,41-17.68,41.24v22.69a17.54,17.54,0,0,1-35.08,0V108.84c0-3.82.55-38.37,27.54-65.79,20.94-21.27,51.32-32,90.31-32s69.38,10.78,90.32,32.05c27,27.42,27.56,62,27.54,65.82v22.49A17.56,17.56,0,0,1,356.19,148.9ZM255.87,36.08c31.84,0,56.13,8.17,72.18,24.3,20.37,20.45,20.6,47.09,20.6,48.21v22.77a7.54,7.54,0,0,0,15.08,0V108.84c0-1.4-.08-33.8-24.67-58.77-19-19.29-47-29.07-83.19-29.07s-64.2,9.78-83.18,29.07C148.1,75,148,107.44,148,108.81v22.55a7.54,7.54,0,0,0,15.08,0V108.79c0-.37.08-27.8,20.6-48.41C199.75,44.25,224,36.08,255.87,36.08Z"/><path class="cls-1" d="M384,261H130a5,5,0,0,1,0-10H384a5,5,0,0,1,0,10Z"/><path class="cls-1" d="M272,454H240a15,15,0,0,1-15-15V347a15,15,0,0,1,15-15h32a15,15,0,0,1,15,15v92A15,15,0,0,1,272,454ZM240,342a5,5,0,0,0-5,5v92a5,5,0,0,0,5,5h32a5,5,0,0,0,5-5V347a5,5,0,0,0-5-5Z"/><path class="cls-1" d="M282,372H230a5,5,0,0,1,0-10h52a5,5,0,0,1,0,10Z"/><path class="cls-1" d="M368,329a5,5,0,0,1-5-5v-1a5,5,0,0,1,10,0v1A5,5,0,0,1,368,329Z"/></g><g id="Outline"><path class="cls-1" d="M205.67,274a5,5,0,0,1-5-5V256a5,5,0,0,1,10,0v13A5,5,0,0,1,205.67,274Z"/><path class="cls-1" d="M180.44,274a5,5,0,0,1-5-5V256a5,5,0,0,1,10,0v13A5,5,0,0,1,180.44,274Z"/><path class="cls-1" d="M155.22,274a5,5,0,0,1-5-5V256a5,5,0,0,1,10,0v13A5,5,0,0,1,155.22,274Z"/><path class="cls-1" d="M281.33,274a5,5,0,0,1-5-5V256a5,5,0,1,1,10,0v13A5,5,0,0,1,281.33,274Z"/><path class="cls-1" d="M256.11,274a5,5,0,0,1-5-5V256a5,5,0,0,1,10,0v13A5,5,0,0,1,256.11,274Z"/><path class="cls-1" d="M230.89,274a5,5,0,0,1-5-5V256a5,5,0,0,1,10,0v13A5,5,0,0,1,230.89,274Z"/><path class="cls-1" d="M331.78,274a5,5,0,0,1-5-5V256a5,5,0,0,1,10,0v13A5,5,0,0,1,331.78,274Z"/><path class="cls-1" d="M306.56,274a5,5,0,0,1-5-5V256a5,5,0,1,1,10,0v13A5,5,0,0,1,306.56,274Z"/><path class="cls-1" d="M130,274a5,5,0,0,1-5-5V256a5,5,0,0,1,10,0v13A5,5,0,0,1,130,274Z"/></g></svg>