<?xml version="1.0" ?><svg viewBox="0 0 512 512" xmlns="http://www.w3.org/2000/svg"><defs><style>.cls-1{fill:#3f456b;}</style></defs><title/><g id="Lines"><path class="cls-1" d="M103.05,276a14.54,14.54,0,0,1-10.31-4.27L41.93,220.9a14.61,14.61,0,0,1,0-20.62l159.2-159.2a14.58,14.58,0,0,1,20.61,0l50.81,50.8a14.61,14.61,0,0,1,0,20.62L113.36,271.7A14.57,14.57,0,0,1,103.05,276ZM211.43,46.82a4.52,4.52,0,0,0-3.23,1.34L49,207.35a4.6,4.6,0,0,0,0,6.48l50.81,50.8a4.58,4.58,0,0,0,6.48,0L265.48,105.44a4.6,4.6,0,0,0,0-6.48l-50.81-50.8A4.52,4.52,0,0,0,211.43,46.82Z"/><path class="cls-1" d="M408.3,505.93h-.55c-9.78-.3-17.52-8.39-18.82-9.83L224.57,331.73A29.75,29.75,0,0,0,201.06,323l-.37,0c-.4,0-9.88.69-22.51.35C164.51,323,155.46,313,154,311.25L111.71,269a5,5,0,0,1,7.07-7.07l42.41,42.42a3.51,3.51,0,0,1,.37.41c.06.07,6.93,8.36,16.89,8.62,11.36.31,20.21-.23,21.39-.31a39.93,39.93,0,0,1,31.81,11.6L396.1,489.12l.21.22c1.59,1.78,6.83,6.45,11.78,6.58a8.16,8.16,0,0,0,6.19-2.78l80.39-80.38a8.26,8.26,0,0,0,2.78-6.19c-.14-4.95-4.81-10.19-6.6-11.8l-.21-.2L326.19,230.12a40,40,0,0,1-11.68-31.7c.07-1.21.55-10,.25-21.35-.27-10-8.46-17-8.55-17.08l-.35-.32-42.41-42.42a5,5,0,0,1,7.07-7.07l42.28,42.28c1.65,1.43,11.58,10.63,11.95,24.34.34,12.62-.25,22-.27,22.4,0,.13,0,.26,0,.39a29.75,29.75,0,0,0,8.82,23.46L497.61,387.41c1.44,1.3,9.53,9,9.84,18.82a18.21,18.21,0,0,1-5.71,13.6l-80.39,80.38A18.23,18.23,0,0,1,408.3,505.93Zm-88.81-307h0Z"/><path class="cls-1" d="M329,356.66a27.82,27.82,0,1,1,19.67-8.14A27.76,27.76,0,0,1,329,356.66ZM329,311a17.83,17.83,0,1,0,12.6,5.22A17.76,17.76,0,0,0,329,311Z"/><path class="cls-1" d="M354.68,382.51A27.68,27.68,0,0,1,335,374.38l-24.1-24.1a5,5,0,0,1,7.07-7.07l24.1,24.1a17.75,17.75,0,0,0,12.64,5.2h0a18,18,0,0,0,18-17.92A17.45,17.45,0,0,0,367.61,342l-24.23-24.23a5,5,0,0,1,7.07-7.07l24.23,24.23a27.35,27.35,0,0,1,8.06,19.74,28,28,0,0,1-28,27.84Z"/><path class="cls-1" d="M359.19,463.19a5,5,0,0,1-3.54-8.54l101-101a5,5,0,0,1,7.07,7.07l-101,101A5,5,0,0,1,359.19,463.19Z"/></g><g id="Outline"><path class="cls-1" d="M227,325.33a5,5,0,0,1-3.53-1.47,5,5,0,0,1,0-7.07L318.32,222a5,5,0,1,1,7.07,7.07l-94.84,94.83A5,5,0,0,1,227,325.33Z"/><path class="cls-1" d="M105,34a5,5,0,0,1-5-5V9a5,5,0,0,1,10,0V29A5,5,0,0,1,105,34Z"/><path class="cls-1" d="M30,109H10a5,5,0,0,1,0-10H30a5,5,0,0,1,0,10Z"/><path class="cls-1" d="M52,56a5,5,0,0,1-3.53-1.46L34.29,40.36a5,5,0,0,1,7.07-7.07L55.49,47.42A5,5,0,0,1,52,56Z"/><path class="cls-1" d="M158.05,56a5,5,0,0,1-3.54-8.53l14.13-14.13a5,5,0,1,1,7.07,7.07L161.58,54.49A5,5,0,0,1,158.05,56Z"/><path class="cls-1" d="M37.83,176.17a5,5,0,0,1-3.54-8.53l14.13-14.13a5,5,0,0,1,7.07,7.07L41.36,174.71A5,5,0,0,1,37.83,176.17Z"/><path class="cls-1" d="M76.65,39.89A5,5,0,0,1,72,36.78L67.61,26a5,5,0,1,1,9.27-3.77L81.28,33a5,5,0,0,1-2.75,6.51A4.84,4.84,0,0,1,76.65,39.89Z"/><path class="cls-1" d="M23.83,142.09A5,5,0,0,1,22,132.46l11.81-4.82a5,5,0,0,1,3.77,9.26l-11.81,4.82A5,5,0,0,1,23.83,142.09Z"/><path class="cls-1" d="M35.63,80.09a4.91,4.91,0,0,1-1.94-.39L22.94,75.17A5,5,0,1,1,26.82,66l10.75,4.52a5,5,0,0,1-1.94,9.61Z"/><path class="cls-1" d="M133.75,39.55a4.91,4.91,0,0,1-1.94-.39,5,5,0,0,1-2.67-6.55l4.52-10.75a5,5,0,0,1,9.22,3.88l-4.52,10.75A5,5,0,0,1,133.75,39.55Z"/></g></svg>