<?xml version="1.0" ?><svg viewBox="0 0 512 512" xmlns="http://www.w3.org/2000/svg"><defs><style>.cls-1{fill:#3f456b;}</style></defs><title/><g id="Lines"><path class="cls-1" d="M52,239c-19.79,0-36-12.24-39.46-29.75-3.78-19.17,7.15-34.19,16.79-47.43a142.83,142.83,0,0,0,9.7-14.47c3.46-6.25,7.37-13.33,8.93-20.6a5,5,0,0,1,9.78,0c1.41,6.59,5,13,8.39,19.16l.8,1.44a144.53,144.53,0,0,0,9.7,14.47c9.64,13.23,20.57,28.23,16.79,47.4C90,226.76,73.71,239,53.84,239l-1.77,0Zm.93-96.6c-1.64,3.45-3.45,6.71-5.15,9.79a153.31,153.31,0,0,1-10.36,15.51c-9.26,12.72-18,24.73-15.07,39.62S39.37,229,52,229l1.8,0c17.67,0,27.71-10.89,29.83-21.69,2.93-14.88-5.81-26.88-15.06-39.58A153,153,0,0,1,58.2,152.21l-.79-1.42C55.94,148.14,54.39,145.35,53,142.42Z"/><path class="cls-1" d="M52,373c-19.79,0-36-12.24-39.46-29.75-3.78-19.17,7.15-34.19,16.79-47.43a142.83,142.83,0,0,0,9.7-14.47c3.46-6.25,7.37-13.33,8.93-20.6a5,5,0,0,1,9.78,0c1.41,6.59,5,13,8.39,19.16l.8,1.44a144.53,144.53,0,0,0,9.7,14.47c9.64,13.23,20.57,28.23,16.79,47.4C90,360.76,73.71,373,53.84,373l-1.77,0Zm.93-96.6c-1.64,3.45-3.45,6.71-5.15,9.79a153.31,153.31,0,0,1-10.36,15.51c-9.26,12.72-18,24.73-15.07,39.62S39.37,363,52,363l1.8,0c17.67,0,27.71-10.89,29.83-21.69,2.93-14.88-5.81-26.88-15.06-39.58A153,153,0,0,1,58.2,286.21l-.79-1.42C55.94,282.14,54.39,279.35,53,276.42Z"/><path class="cls-1" d="M52,501c-19.79,0-36-12.24-39.46-29.75-3.78-19.17,7.15-34.19,16.79-47.43a142.83,142.83,0,0,0,9.7-14.47c3.46-6.25,7.37-13.33,8.93-20.6a5,5,0,0,1,9.78,0c1.41,6.59,5,13,8.39,19.16l.8,1.44a144.53,144.53,0,0,0,9.7,14.47c9.64,13.23,20.57,28.23,16.79,47.4C90,488.76,73.71,501,53.84,501l-1.77,0Zm.93-96.6c-1.64,3.45-3.45,6.71-5.15,9.79a153.31,153.31,0,0,1-10.36,15.51c-9.26,12.72-18,24.73-15.07,39.62S39.37,491,52,491l1.8,0c17.67,0,27.71-10.89,29.83-21.69,2.93-14.88-5.81-26.88-15.06-39.58A153,153,0,0,1,58.2,414.21l-.79-1.42C55.94,410.14,54.39,407.35,53,404.42Z"/><path class="cls-1" d="M133.9,159.65a5,5,0,0,1-3.76-1.7L38,52.92a5,5,0,0,1,.24-6.85L48.55,35.84a5,5,0,0,1,6.86-.16l103.91,93.43a5,5,0,0,1-6.68,7.44L52.23,46.27l-3.65,3.6,89.08,101.48a5,5,0,0,1-3.76,8.3Z"/><path class="cls-1" d="M347.3,498.66a5.09,5.09,0,0,1-2.08-.45l-41.72-19.1A5,5,0,0,1,302,471L468.92,304.15a5,5,0,0,1,4.05-1.43,5,5,0,0,1,3.67,2.23l24,36.77A5,5,0,0,1,500,348L350.83,497.19A5,5,0,0,1,347.3,498.66ZM314.2,473l32,14.66L490.09,343.8l-18.45-28.22Z"/><path class="cls-1" d="M317.55,467.59a5,5,0,0,1-3.67-1.6c-33.94-36.7-119-129.33-175.44-196.77a70.75,70.75,0,0,1-12.91-23.79c-3.77-12.29-4.87-30.1,9.77-47.21l-12.86-12.86c-9.34-9.34-5.12-20.34,0-25.46l38.18-38.18c4.41-4.41,9.19-6.54,14.19-6.36a18.06,18.06,0,0,1,12.08,5.75l12.83,12.83c17.41-14.34,35.18-13.26,47.38-9.58A69.34,69.34,0,0,1,270.64,137c67.44,56.47,160.07,141.5,196.77,175.44a5,5,0,0,1-6.79,7.35C424,285.9,331.45,201,264.19,144.65l-.1-.08c-1.3-1.14-32.37-27.65-61.12-.14a5,5,0,0,1-7-.08l-16.26-16.27a3.57,3.57,0,0,1-.27-.28h0a8.11,8.11,0,0,0-5.09-2.45c-2.1,0-4.33,1.11-6.67,3.44L129.51,167c-1.65,1.71-5,6.3,0,11.31l16.26,16.26a5,5,0,0,1,0,7.07c-28.05,28.06-.94,59.72.22,61.05l.08.09C202.41,330,287.33,422.55,321.22,459.2a5,5,0,0,1-3.67,8.39Z"/><path class="cls-1" d="M143,270.26a5,5,0,0,1-3.54-8.53L263.86,137.28a5,5,0,0,1,7.07,7.07L146.48,268.8A5,5,0,0,1,143,270.26Z"/><path class="cls-1" d="M142.24,203.09a5,5,0,0,1-3.54-8.54L196,137.28a5,5,0,0,1,7.07,7.07l-57.28,57.27A5,5,0,0,1,142.24,203.09Z"/><path class="cls-1" d="M317.59,360a18.71,18.71,0,0,1-3.55-.34c-8.86-1.71-15.68-9.32-18.71-20.88a45.84,45.84,0,0,1-1.37-8c-6.71,3.85-13.71,10.29-19.6,20.16a5,5,0,0,1-8.59-5.13c7.47-12.5,17.94-21.88,28.94-26.52A31.83,31.83,0,0,1,310,298.12c6.15-3.53,12.84-4.39,19.31-5.22,7.87-1,14.67-1.88,19.33-7.3,6.6-7.68,4.16-18.57,2.12-24.38a5,5,0,1,1,9.44-3.31c4.75,13.54,3.34,25.69-4,34.2-7.16,8.35-17,9.6-25.65,10.71-5.75.74-11.18,1.44-15.61,4a21.07,21.07,0,0,0-8.8,9.51,34.17,34.17,0,0,1,4.51-.19c9.6.26,17.44,4.85,21.52,12.59,6.62,12.55,2,21.05-.24,24.12A17.78,17.78,0,0,1,317.59,360Zm-13.74-33.2a34.85,34.85,0,0,0,1.15,9.44c2,7.69,6,12.65,10.94,13.6a7.94,7.94,0,0,0,8-3c2.44-3.28,2.23-8.2-.56-13.5-2.38-4.51-7-7.09-12.95-7.25A26.34,26.34,0,0,0,303.85,326.84Z"/><path class="cls-1" d="M407.42,195.58A92.58,92.58,0,1,1,500,103,92.68,92.68,0,0,1,407.42,195.58Zm0-175.16A82.58,82.58,0,1,0,490,103,82.67,82.67,0,0,0,407.42,20.42Z"/><path class="cls-1" d="M462,142a5,5,0,0,1-2.63-.75l-55-34A5,5,0,0,1,402,103V35a5,5,0,0,1,10,0v65.21l52.63,32.54A5,5,0,0,1,462,142Z"/></g><g id="Outline"><path class="cls-1" d="M473.5,110h-5.28a5,5,0,0,1,0-10h5.28a5,5,0,0,1,0,10Z"/><path class="cls-1" d="M346.78,110H341.5a5,5,0,0,1,0-10h5.28a5,5,0,0,1,0,10Z"/><path class="cls-1" d="M407.5,176a5,5,0,0,1-5-5v-5.28a5,5,0,0,1,10,0V171A5,5,0,0,1,407.5,176Z"/><path class="cls-1" d="M460.05,79.57a5,5,0,0,1-2.51-9.33l4.57-2.64a5,5,0,1,1,5,8.65l-4.57,2.65A5,5,0,0,1,460.05,79.57Z"/><path class="cls-1" d="M350.39,143.08a5,5,0,0,1-2.51-9.33l4.57-2.65a5,5,0,0,1,5,8.66l-4.57,2.64A5,5,0,0,1,350.39,143.08Z"/><path class="cls-1" d="M440.58,167.11a5,5,0,0,1-4.33-2.49l-2.65-4.57a5,5,0,0,1,8.66-5l2.64,4.57a5,5,0,0,1-4.32,7.5Z"/><path class="cls-1" d="M377.08,57.46a5,5,0,0,1-4.34-2.5l-2.64-4.57a5,5,0,0,1,8.65-5L381.4,50a5,5,0,0,1-4.32,7.51Z"/><path class="cls-1" d="M437.79,57.38a5,5,0,0,1-4.33-7.5l2.63-4.58a5,5,0,0,1,8.67,5l-2.64,4.58A5,5,0,0,1,437.79,57.38Z"/><path class="cls-1" d="M374.57,167.2a5,5,0,0,1-4.33-7.49l2.64-4.58a5,5,0,1,1,8.66,5l-2.63,4.58A5,5,0,0,1,374.57,167.2Z"/><path class="cls-1" d="M354.87,79.71a4.91,4.91,0,0,1-2.49-.67l-4.58-2.63a5,5,0,1,1,5-8.67l4.58,2.64a5,5,0,0,1-2.5,9.33Z"/><path class="cls-1" d="M420.49,424.06a5,5,0,0,1-3.54-1.47l-9.19-9.19a5,5,0,0,1,7.07-7.07l9.19,9.19a5,5,0,0,1-3.53,8.54Z"/><path class="cls-1" d="M440.17,404.38a5,5,0,0,1-3.54-1.47l-9.19-9.19a5,5,0,0,1,7.07-7.07l9.19,9.19a5,5,0,0,1-3.53,8.54Z"/><path class="cls-1" d="M400.8,443.74a5,5,0,0,1-3.53-1.46l-9.19-9.2a5,5,0,0,1,7.07-7.07l9.19,9.2a5,5,0,0,1-3.54,8.53Z"/><path class="cls-1" d="M479.53,365a5,5,0,0,1-3.54-1.47l-9.19-9.19a5,5,0,0,1,7.07-7.07l9.19,9.19a5,5,0,0,1-3.53,8.54Z"/><path class="cls-1" d="M459.85,384.7a5,5,0,0,1-3.54-1.47L447.12,374a5,5,0,1,1,7.07-7.07l9.19,9.19a5,5,0,0,1-3.53,8.54Z"/><path class="cls-1" d="M381.12,463.42a5,5,0,0,1-3.53-1.46l-9.19-9.2a5,5,0,0,1,7.07-7.07l9.19,9.2a5,5,0,0,1-3.54,8.53Z"/><path class="cls-1" d="M361.44,483.1a5,5,0,0,1-3.53-1.46l-9.2-9.19a5,5,0,1,1,7.08-7.07l9.19,9.19a5,5,0,0,1-3.54,8.53Z"/><path class="cls-1" d="M238.41,310.57a5,5,0,0,1-3.54-8.54l.71-.7a5,5,0,0,1,7.07,7.07l-.71.7A5,5,0,0,1,238.41,310.57Zm14.84-14.85a5,5,0,0,1-3.53-8.54l.71-.71a5,5,0,0,1,7.07,7.08l-.71.71A5,5,0,0,1,253.25,295.72Zm14.85-14.85a5,5,0,0,1-3.53-8.54l.71-.7a5,5,0,1,1,7.07,7.07l-.71.71A5,5,0,0,1,268.1,280.87ZM283,266a5,5,0,0,1-3.53-8.53l.7-.71a5,5,0,0,1,7.08,7.07l-.71.71A5,5,0,0,1,283,266Zm14.85-14.85a5,5,0,0,1-3.53-8.53l.7-.71A5,5,0,0,1,302,249l-.7.71A5,5,0,0,1,297.8,251.17Zm14.85-14.85a5,5,0,0,1-3.53-8.53l.7-.71a5,5,0,1,1,7.07,7.07l-.7.71A5,5,0,0,1,312.65,236.32Z"/></g></svg>