<?xml version="1.0" ?><svg id="Lines" viewBox="0 0 512 512" xmlns="http://www.w3.org/2000/svg"><defs><style>.cls-1{fill:#3f456b;}</style></defs><title/><path class="cls-1" d="M36.69,222a3.59,3.59,0,0,1-2.4-.82,5,5,0,0,1-1.17-1.07c-28.22-35.38-20.36-80.12-20-82v0C15.64,124.69,17,116.31,17,116.22A5,5,0,0,1,21.41,112c66.29-6.7,157.26-22.08,202.8-34.3C265.88,66.55,310.39,56.07,356,61.22,415.8,68,452.21,96.94,472.23,120.07c21.74,25.1,29.23,48.41,29.54,49.39a5,5,0,0,1-8.71,4.58c-24.79-31.81-71.94-41.67-97.85-44.72-43.31-5.16-83,9.45-121.47,23.57-10.21,3.75-20.47,7.63-30.4,11.39-38.41,14.53-74.69,28.26-114.31,37.48-2.93.69-25.11,5.74-47.58,10.77-12.5,2.8-22.51,5-29.76,6.6C42.2,221.19,38.55,222,36.69,222ZM42,216.14ZM41.05,214a4.86,4.86,0,0,1,.92,2.12A4.8,4.8,0,0,0,41.05,214Zm-18.11-74.1c-.13.73-6.88,40.37,16.24,71.66C53.41,208.7,119,193.82,126.77,192c39-9.07,74.94-22.68,113-37.09,9.95-3.77,20.24-7.66,30.49-11.43C309.83,129,350.71,114,396.39,119.39c21.52,2.53,57,9.59,84.29,29.25a160,160,0,0,0-16.3-22.36c-27.4-31.47-64.23-50-109.46-55.12-43.92-5-87.38,5.3-128.12,16.23C180.92,99.7,93.6,114.56,26.23,121.58,25.6,125.34,24.49,131.7,22.94,139.91Z"/><path class="cls-1" d="M186,500H135a35,35,0,0,1-35-35V335a5,5,0,0,1,5-5H216a5,5,0,0,1,5,5V465A35,35,0,0,1,186,500ZM110,340V465a25,25,0,0,0,25,25h51a25,25,0,0,0,25-25V340Z"/><path class="cls-1" d="M175,339a5,5,0,0,1-5-5V212H151V334a5,5,0,0,1-10,0V207a5,5,0,0,1,5-5h29a5,5,0,0,1,5,5V334A5,5,0,0,1,175,339Z"/><path class="cls-1" d="M160.5,212a5,5,0,0,1-5-5V114a5,5,0,0,1,10,0v93A5,5,0,0,1,160.5,212Z"/><path class="cls-1" d="M242.69,371.94q-12.8,0-25.74-.46a5,5,0,0,1,.36-10c94.42,3.42,182.13-12.09,260.71-46.07a5,5,0,0,1,4,9.18C409.24,356.05,328.84,371.94,242.69,371.94Z"/><path class="cls-1" d="M104.54,358.58a5.2,5.2,0,0,1-1-.09c-16.77-3.26-33-7-48.26-11.18A5,5,0,0,1,58,337.66c15,4.1,31,7.8,47.53,11a5,5,0,0,1-.95,9.91Z"/><path class="cls-1" d="M496,404a5,5,0,0,1-2.41-.62c-41.62-22.89-49.69-66.67-50-68.52a5,5,0,0,1,9.85-1.73c.1.54,7.74,41,45,61.49A5,5,0,0,1,496,404Z"/><path class="cls-1" d="M442,432a5,5,0,0,1-3.68-1.62c-34.89-38-36-82.9-36.06-84.8a5,5,0,0,1,4.91-5.08h.09a5,5,0,0,1,5,4.91h0c0,.43,1.2,43.14,33.42,78.21A5,5,0,0,1,442,432Z"/><path class="cls-1" d="M377,446a5,5,0,0,1-4.7-3.28c-15.14-41.41-14.47-85.18-14.43-87a5,5,0,0,1,10,.19c0,.44-.65,43.8,13.84,83.39a5,5,0,0,1-3,6.42A5.19,5.19,0,0,1,377,446Z"/><path class="cls-1" d="M313,455a5,5,0,0,1-5-4.63c-3-40.9.43-87.13.47-87.59a5,5,0,0,1,10,.75c0,.46-3.4,46-.46,86.1a5,5,0,0,1-4.62,5.36Z"/><path class="cls-1" d="M251.27,452a5,5,0,0,1-5-5c-.27-45.54,15.1-81,15.75-82.54a5,5,0,1,1,9.16,4h0c-.15.35-15.17,35.14-14.91,78.46a5,5,0,0,1-5,5Z"/><path class="cls-1" d="M173,132H147a5,5,0,0,1,0-10h26a5,5,0,0,1,0,10Z"/><path class="cls-1" d="M173,152.35H147a5,5,0,0,1,0-10h26a5,5,0,0,1,0,10Z"/><path class="cls-1" d="M173,171H147a5,5,0,0,1,0-10h26a5,5,0,0,1,0,10Z"/><path class="cls-1" d="M436,275a5,5,0,0,1-2.88-.91C384.3,239.78,327.23,235,288,237c-42.71,2.19-74,12.64-74.36,12.75a5,5,0,0,1-3.2-9.48c1.32-.44,33-11,77-13.25,40.85-2.09,100.27,3,151.43,38.9A5,5,0,0,1,436,275Z"/></svg>