<?xml version="1.0" ?><svg enable-background="new 0 0 512 512" version="1.1" viewBox="0 0 512 512" xml:space="preserve" xmlns="http://www.w3.org/2000/svg" xmlns:xlink="http://www.w3.org/1999/xlink"><g id="Colors"><g><g><path d="M419.887,451.907h-33.802c-2.762,0-5-2.238-5-5s2.238-5,5-5h33.802c2.762,0,5,2.238,5,5     S422.648,451.907,419.887,451.907z" fill="#3F456B"/></g></g><g><g><path d="M127.969,451.907H94.167c-2.762,0-5-2.238-5-5s2.238-5,5-5h33.802c2.762,0,5,2.238,5,5     S130.73,451.907,127.969,451.907z" fill="#3F456B"/></g></g><g><g><path d="M192.727,340.529c-1.729,0-3.409-0.896-4.335-2.501l-17.125-29.66c-1.381-2.392-0.562-5.449,1.83-6.83     s5.45-0.562,6.83,1.83l17.125,29.66c1.381,2.392,0.562,5.449-1.83,6.83C194.435,340.312,193.574,340.529,192.727,340.529z" fill="#3F456B"/></g></g><g><g><path d="M368.41,387.604c-1.729,0-3.409-0.896-4.335-2.501c-1.381-2.392-0.562-5.449,1.83-6.83l29.661-17.125     c2.392-1.384,5.45-0.562,6.83,1.83c1.381,2.392,0.562,5.449-1.83,6.83l-29.661,17.125     C370.118,387.388,369.258,387.604,368.41,387.604z" fill="#3F456B"/></g></g><g><g><path d="M145.643,387.604c-0.848,0-1.708-0.216-2.495-0.671l-29.661-17.125c-2.392-1.381-3.211-4.438-1.83-6.83     c1.38-2.391,4.438-3.214,6.83-1.83l29.661,17.125c2.392,1.381,3.211,4.438,1.83,6.83     C149.052,386.706,147.371,387.604,145.643,387.604z" fill="#3F456B"/></g></g><g><g><path d="M321.327,340.529c-0.848,0-1.708-0.216-2.495-0.671c-2.392-1.381-3.211-4.438-1.83-6.83l17.125-29.66     c1.38-2.392,4.437-3.214,6.83-1.83c2.392,1.381,3.211,4.438,1.83,6.83l-17.125,29.66     C324.736,339.633,323.056,340.529,321.327,340.529z" fill="#3F456B"/></g></g><g><g><path d="M382.385,420.17c-2.208,0-4.229-1.473-4.827-3.707c-0.714-2.668,0.869-5.409,3.536-6.124l19.312-5.173     c2.674-0.711,5.41,0.869,6.124,3.536c0.714,2.668-0.869,5.409-3.536,6.124l-19.312,5.173     C383.248,420.114,382.812,420.17,382.385,420.17z" fill="#3F456B"/></g></g><g><g><path d="M166.769,359.629c-1.279,0-2.56-0.488-3.536-1.465l-14.71-14.712c-1.952-1.952-1.952-5.118,0.001-7.071     c1.953-1.951,5.118-1.952,7.071,0.001l14.71,14.712c1.952,1.952,1.952,5.118-0.001,7.071     C169.327,359.141,168.048,359.629,166.769,359.629z" fill="#3F456B"/></g></g><g><g><path d="M348.956,360.762c-1.279,0-2.559-0.488-3.535-1.464c-1.953-1.953-1.953-5.119-0.001-7.071l14.71-14.711     c1.953-1.953,5.118-1.952,7.071-0.001c1.953,1.953,1.953,5.119,0.001,7.071l-14.71,14.711     C351.516,360.273,350.235,360.762,348.956,360.762z" fill="#3F456B"/></g></g><g><g><path d="M133.354,417.249c-0.429,0-0.863-0.056-1.297-0.171l-20.096-5.385c-2.668-0.715-4.25-3.457-3.536-6.124     c0.715-2.668,3.457-4.243,6.124-3.536l20.096,5.385c2.668,0.715,4.25,3.457,3.536,6.124     C137.582,415.776,135.562,417.249,133.354,417.249z" fill="#3F456B"/></g></g><g><g><path d="M258.152,41.054c-0.972,0-1.954-0.282-2.817-0.873c-2.279-1.559-2.863-4.67-1.305-6.949l13.926-20.365     c1.557-2.278,4.668-2.865,6.949-1.305c2.279,1.559,2.863,4.67,1.305,6.949l-13.926,20.365     C261.316,40.292,259.748,41.054,258.152,41.054z" fill="#3F456B"/></g></g><g><g><path d="M295.726,100.556c-0.011,0-0.021,0-0.031,0c-1.687-0.011-3.255-0.871-4.17-2.288l-51.121-79.188     c-1.497-2.32-0.831-5.415,1.489-6.913c2.321-1.498,5.414-0.831,6.913,1.489l46.977,72.77l48.755-73.5     c1.526-2.302,4.628-2.929,6.931-1.403c2.302,1.526,2.93,4.63,1.403,6.931l-52.979,79.867     C298.966,99.717,297.4,100.556,295.726,100.556z" fill="#3F456B"/></g></g><g><g><path d="M295.949,100.582h-76.572c-1.688,0-3.264-0.853-4.187-2.267l-50.91-77.979     c-1.51-2.312-0.859-5.41,1.453-6.92c2.312-1.511,5.41-0.859,6.92,1.453l49.431,75.713h73.865c2.762,0,5,2.238,5,5     S298.711,100.582,295.949,100.582z" fill="#3F456B"/></g></g><g><g><path d="M258.162,100.557c-1.635,0-3.235-0.801-4.194-2.271l-52.03-79.867c-1.507-2.314-0.854-5.411,1.46-6.919     c2.316-1.508,5.411-0.852,6.919,1.46l52.03,79.867c1.507,2.314,0.854,5.411-1.46,6.919     C260.044,100.294,259.098,100.557,258.162,100.557z" fill="#3F456B"/></g></g><g><g><path d="M277.231,71.23c-0.935,0-1.88-0.262-2.722-0.81c-2.314-1.506-2.971-4.604-1.465-6.918l32.881-50.541     c1.506-2.314,4.604-2.971,6.918-1.465s2.971,4.604,1.465,6.918l-32.881,50.541C280.47,70.429,278.866,71.23,277.231,71.23z" fill="#3F456B"/></g></g><g><g><path d="M256.003,116.97c-2.762,0-5-2.238-5-5V95.582c0-2.762,2.238-5,5-5s5,2.238,5,5v16.388     C261.003,114.731,258.765,116.97,256.003,116.97z" fill="#3F456B"/></g></g><g><g><path d="M362.527,20.688H159.721c-2.762,0-5-2.238-5-5s2.238-5,5-5h202.807c2.762,0,5,2.238,5,5     S365.289,20.688,362.527,20.688z" fill="#3F456B"/></g></g><g><g><path d="M68.466,320.837c-1.279,0-2.56-0.488-3.536-1.465c-1.952-1.952-1.952-5.118,0.001-7.071l8.018-8.017     c1.953-1.951,5.118-1.952,7.071,0.001c1.952,1.952,1.952,5.118-0.001,7.071l-8.018,8.017     C71.024,320.349,69.745,320.837,68.466,320.837z" fill="#3F456B"/></g></g><g><g><path d="M41.104,348.18c-1.279,0-2.56-0.488-3.535-1.465c-1.953-1.952-1.953-5.118,0-7.07l8.017-8.017     c1.951-1.953,5.119-1.953,7.07,0c1.953,1.952,1.953,5.118,0,7.07l-8.017,8.017C43.663,347.691,42.383,348.18,41.104,348.18z" fill="#3F456B"/></g></g><g><g><path d="M76.473,348.19c-1.279,0-2.56-0.488-3.536-1.465l-8.017-8.018c-1.952-1.952-1.952-5.118,0.001-7.071     c1.953-1.951,5.118-1.952,7.071,0.001l8.017,8.018c1.952,1.952,1.952,5.118-0.001,7.071     C79.031,347.702,77.752,348.19,76.473,348.19z" fill="#3F456B"/></g></g><g><g><path d="M49.13,320.827c-1.279,0-2.56-0.488-3.536-1.465l-8.017-8.018c-1.952-1.952-1.952-5.118,0.001-7.071     c1.953-1.951,5.118-1.952,7.071,0.001l8.017,8.018c1.952,1.952,1.952,5.118-0.001,7.071     C51.688,320.339,50.409,320.827,49.13,320.827z" fill="#3F456B"/></g></g><g><g><path d="M487.466,69.837c-1.279,0-2.56-0.488-3.536-1.465c-1.952-1.952-1.952-5.118,0.001-7.071l8.018-8.017     c1.953-1.951,5.118-1.952,7.071,0.001c1.952,1.952,1.952,5.118-0.001,7.071l-8.018,8.017     C490.024,69.349,488.745,69.837,487.466,69.837z" fill="#3F456B"/></g></g><g><g><path d="M460.104,97.18c-1.279,0-2.56-0.488-3.535-1.465c-1.953-1.952-1.953-5.118,0-7.07l8.017-8.017     c1.951-1.953,5.119-1.953,7.07,0c1.953,1.952,1.953,5.118,0,7.07l-8.017,8.017C462.663,96.691,461.383,97.18,460.104,97.18z" fill="#3F456B"/></g></g><g><g><path d="M495.473,97.19c-1.279,0-2.56-0.488-3.536-1.465l-8.017-8.018c-1.952-1.952-1.952-5.118,0.001-7.071     c1.953-1.951,5.118-1.952,7.071,0.001l8.017,8.018c1.952,1.952,1.952,5.118-0.001,7.071     C498.031,96.702,496.752,97.19,495.473,97.19z" fill="#3F456B"/></g></g><g><g><path d="M468.13,69.827c-1.279,0-2.56-0.488-3.536-1.465l-8.017-8.018c-1.952-1.952-1.952-5.118,0.001-7.071     c1.953-1.951,5.118-1.952,7.071,0.001l8.017,8.018c1.952,1.952,1.952,5.118-0.001,7.071     C470.688,69.339,469.409,69.827,468.13,69.827z" fill="#3F456B"/></g></g><g><g><path d="M443.994,391.001c-2.479,0-4.63-1.842-4.953-4.364c-0.066-0.502-5.924-43.072-33.508-45.658     c-2.509-0.235-4.451-2.302-4.53-4.82c-0.08-2.52,1.728-4.704,4.217-5.097C406.58,330.835,439,324.958,439,283     c0-2.762,2.238-5,5-5s5,2.238,5,5c0,26.302-11.384,40.661-20.934,48.074c-2.355,1.828-4.712,3.33-6.955,4.562     c8.325,4.759,15.26,12.999,20.442,24.424c5.745,12.665,7.341,24.797,7.406,25.308c0.35,2.739-1.588,5.243-4.327,5.593     C444.418,390.987,444.205,391.001,443.994,391.001z" fill="#3F456B"/></g></g><g><g><path d="M444.006,391.001c-0.211,0-0.424-0.014-0.639-0.041c-2.739-0.35-4.677-2.854-4.327-5.593     c0.065-0.511,1.661-12.643,7.406-25.308c5.183-11.425,12.117-19.665,20.442-24.424c-2.243-1.231-4.6-2.733-6.955-4.562     C450.384,323.661,439,309.302,439,283c0-2.762,2.238-5,5-5s5,2.238,5,5c0,17.867,5.742,31.384,17.066,40.176     c8.253,6.407,16.631,7.872,16.714,7.886c2.489,0.393,4.297,2.577,4.217,5.097c-0.079,2.519-2.021,4.585-4.53,4.82     c-27.693,2.596-33.452,45.225-33.507,45.654C448.638,389.157,446.485,391.001,444.006,391.001z" fill="#3F456B"/></g></g><g><g><path d="M58.994,502.001c-2.479,0-4.63-1.842-4.953-4.364c-0.066-0.502-5.924-43.072-33.508-45.658     c-2.509-0.235-4.451-2.302-4.53-4.82c-0.08-2.52,1.728-4.704,4.217-5.097C21.58,441.835,54,435.958,54,394c0-2.762,2.238-5,5-5     s5,2.238,5,5c0,26.302-11.384,40.661-20.934,48.074c-2.355,1.828-4.712,3.33-6.955,4.562c8.325,4.759,15.26,12.999,20.442,24.424     c5.745,12.665,7.341,24.797,7.406,25.308c0.35,2.739-1.588,5.243-4.327,5.593C59.418,501.987,59.205,502.001,58.994,502.001z" fill="#3F456B"/></g></g><g><g><path d="M59.006,502.001c-0.211,0-0.424-0.014-0.639-0.041c-2.739-0.35-4.677-2.854-4.327-5.593     c0.065-0.511,1.661-12.643,7.406-25.308c5.183-11.425,12.117-19.665,20.442-24.424c-2.243-1.231-4.6-2.733-6.955-4.562     C65.384,434.661,54,420.302,54,394c0-2.762,2.238-5,5-5s5,2.238,5,5c0,17.867,5.742,31.384,17.066,40.176     c8.253,6.407,16.631,7.872,16.714,7.886c2.489,0.393,4.297,2.577,4.217,5.097c-0.079,2.519-2.021,4.585-4.53,4.82     c-27.693,2.596-33.452,45.225-33.507,45.654C63.638,500.157,61.485,502.001,59.006,502.001z" fill="#3F456B"/></g></g><g><g><path d="M378.915,496.976c-2.762,0-5-2.238-5-5v-12.441c0-7.891-6.199-14.311-13.818-14.311H152.933     c-7.619,0-13.818,6.42-13.818,14.311v12.441c0,2.762-2.238,5-5,5s-5-2.238-5-5v-12.441c0-13.405,10.685-24.311,23.818-24.311     h207.164c13.134,0,23.818,10.905,23.818,24.311v12.441C383.915,494.737,381.677,496.976,378.915,496.976z" fill="#3F456B"/></g></g><g><g><path d="M337.944,464.199c-2.762,0-5-2.238-5-5v-12.441c0-7.892-6.199-14.312-13.818-14.312H193.904     c-7.62,0-13.819,6.42-13.819,14.312v12.441c0,2.762-2.238,5-5,5s-5-2.238-5-5v-12.441c0-13.405,10.686-24.312,23.819-24.312     h125.222c13.134,0,23.818,10.906,23.818,24.312v12.441C342.944,461.961,340.706,464.199,337.944,464.199z" fill="#3F456B"/></g></g><g><g><path d="M223.734,432.446c-1.069,0-2.146-0.342-3.058-1.047c-2.184-1.691-2.582-4.832-0.892-7.015     c9.826-12.685,9.711-29.342,9.709-29.509l-0.001-31.84c0-37.623-27.79-61.233-54.664-84.067     c-4.695-3.989-9.55-8.113-14.143-12.223c-42.45-37.981-56.422-88.44-65.196-137.31c-3.356-18.685-3.274-36.918-3.195-54.551     c0.035-7.839,0.071-15.945-0.191-24.022c-0.09-2.76,2.074-5.07,4.834-5.16c2.784-0.09,5.07,2.074,5.16,4.834     c0.27,8.263,0.233,16.463,0.197,24.394c-0.08,17.975-0.156,34.953,3.037,52.738c8.459,47.109,21.828,95.661,62.022,131.624     c4.497,4.024,9.303,8.107,13.949,12.056c28.607,24.306,58.189,49.439,58.189,91.688v31.771     c0.011,0.754,0.143,20.282-11.802,35.702C226.706,431.78,225.229,432.446,223.734,432.446z" fill="#3F456B"/></g></g><g><g><path d="M289.293,430.604c-1.378,0-2.749-0.565-3.737-1.676c-12.162-13.666-12.03-33.359-12.019-34.191     l-0.001-31.701c0-42.348,29.574-67.521,58.175-91.865c4.569-3.891,9.295-7.912,13.727-11.878     c39.944-35.739,53.301-84.382,61.785-131.624c3.225-17.955,3.191-35.09,3.157-53.229c-0.015-7.772-0.03-15.81,0.234-23.902     c0.09-2.76,2.385-4.929,5.16-4.834c2.76,0.09,4.924,2.4,4.834,5.16c-0.258,7.921-0.243,15.869-0.229,23.557     c0.034,17.785,0.068,36.175-3.315,55.017c-8.8,49.002-22.76,99.552-64.959,137.31c-4.523,4.047-9.297,8.11-13.913,12.039     c-26.871,22.872-54.656,46.523-54.656,84.251v31.771c-0.002,0.225-0.049,16.756,9.49,27.474c1.836,2.062,1.651,5.224-0.411,7.06     C291.662,430.188,290.476,430.604,289.293,430.604z" fill="#3F456B"/></g></g><g><g><path d="M419.317,55.514h-92.637c-2.762,0-5-2.238-5-5s2.238-5,5-5h92.637c8.19,0,9.909-6.004,9.909-11.04v-3.257     c0-2.604,0-10.528-9.909-10.528H90.64c-9.909,0-9.909,7.924-9.909,10.528v3.257c0,5.036,1.719,11.04,9.909,11.04h98.39     c2.762,0,5,2.238,5,5s-2.238,5-5,5H90.64c-12.095,0-19.909-8.259-19.909-21.04v-3.257c0-12.471,7.814-20.528,19.909-20.528     h328.678c12.095,0,19.909,8.058,19.909,20.528v3.257C439.227,47.255,431.412,55.514,419.317,55.514z" fill="#3F456B"/></g></g><g><g><path d="M137.618,285.711c-30.508,0.001-55.475-8.109-74.523-24.26c-39.038-33.097-38.498-87.371-38.456-89.665     l-0.001-56.743c0-2.762,2.238-5,5-5h68.627c2.762,0,5,2.238,5,5s-2.238,5-5,5H34.638v51.835     c-0.009,0.603-0.436,52.028,34.986,81.999c24.188,20.468,59.518,26.585,105,18.18c2.712-0.496,5.323,1.293,5.825,4.009     c0.502,2.715-1.293,5.323-4.009,5.825C162.65,284.438,149.697,285.71,137.618,285.711z" fill="#3F456B"/></g></g><g><g><path d="M133.638,262.558c-19.359,0-35.921-5.307-49.428-15.873c-31.959-24.998-34.873-70.044-34.981-71.949     c-0.005-0.095-0.008-0.189-0.008-0.284v-34.825c0-2.762,2.238-5,5-5h48.141c2.762,0,5,2.238,5,5s-2.238,5-5,5H59.221v29.659     c0.181,2.491,3.556,42.983,31.201,64.562c16.272,12.702,38.025,16.595,64.648,11.578c2.713-0.516,5.328,1.273,5.84,3.986     c0.512,2.714-1.273,5.329-3.986,5.84C148.767,261.79,141,262.558,133.638,262.558z" fill="#3F456B"/></g></g><g><g><path d="M375.411,285.711c-12.082,0-25.029-1.272-38.822-3.82c-2.716-0.502-4.511-3.11-4.009-5.825     c0.503-2.715,3.121-4.505,5.825-4.009c45.524,8.409,80.872,2.275,105.062-18.232c35.459-30.062,34.935-81.34,34.925-81.854     l-0.001-51.927h-63.627c-2.762,0-5-2.238-5-5s2.238-5,5-5h68.627c2.762,0,5,2.238,5,5v56.835     c0.041,2.202,0.581,56.477-38.457,89.573C430.888,277.601,405.915,285.71,375.411,285.711z" fill="#3F456B"/></g></g><g><g><path d="M379.392,262.558c-7.363,0-15.127-0.768-23.286-2.306c-2.713-0.511-4.498-3.126-3.986-5.84     c0.512-2.713,3.126-4.502,5.84-3.986c26.623,5.017,48.375,1.123,64.648-11.578c27.632-21.568,31.018-62.031,31.201-64.563     v-29.658h-43.141c-2.762,0-5-2.238-5-5s2.238-5,5-5h48.141c2.762,0,5,2.238,5,5v34.825c0,0.095-0.003,0.189-0.008,0.284     c-0.108,1.905-3.022,46.951-34.981,71.949C415.313,257.25,398.748,262.557,379.392,262.558z" fill="#3F456B"/></g></g><g><g><path d="M419.887,498H92.119c-2.762,0-5-2.238-5-5s2.238-5,5-5h327.768c2.762,0,5,2.238,5,5     S422.648,498,419.887,498z" fill="#3F456B"/></g></g><g><g><path d="M254.614,232.945c-34.721,0-62.968-28.247-62.968-62.968s28.247-62.968,62.968-62.968     s62.968,28.247,62.968,62.968S289.335,232.945,254.614,232.945z M254.614,117.01c-29.206,0-52.968,23.762-52.968,52.968     s23.762,52.968,52.968,52.968s52.968-23.762,52.968-52.968S283.82,117.01,254.614,117.01z" fill="#3F456B"/></g></g><g><g><path d="M256.003,207.106c-2.762,0-5-2.238-5-5v-55.994l-4.841,2.447c-2.462,1.243-5.472,0.257-6.718-2.208     c-1.245-2.464-0.257-5.472,2.208-6.718l12.096-6.113c1.547-0.782,3.394-0.708,4.874,0.204c1.479,0.91,2.381,2.522,2.381,4.259     v64.123C261.003,204.868,258.765,207.106,256.003,207.106z" fill="#3F456B"/></g></g><g><g><path d="M266.245,207.106H245.76c-2.762,0-5-2.238-5-5s2.238-5,5-5h20.485c2.762,0,5,2.238,5,5     S269.007,207.106,266.245,207.106z" fill="#3F456B"/></g></g></g><g id="Lines"/></svg>