<?xml version="1.0" ?><svg id="Lines" viewBox="0 0 512 512" xmlns="http://www.w3.org/2000/svg"><defs><style>.cls-1{fill:#3f456b;}</style></defs><title/><path class="cls-1" d="M454.5,135.62H58.5a15,15,0,0,1-15-15v-10a15,15,0,0,1,15-15h396a15,15,0,0,1,15,15v10A15,15,0,0,1,454.5,135.62Zm-396-30a5,5,0,0,0-5,5v10a5,5,0,0,0,5,5h396a5,5,0,0,0,5-5v-10a5,5,0,0,0-5-5Z"/><path class="cls-1" d="M80.5,161.42a5,5,0,0,1-5-5V100.58a5,5,0,1,1,10,0v55.84A5,5,0,0,1,80.5,161.42Z"/><path class="cls-1" d="M432.5,161.42a5,5,0,0,1-5-5V100.58a5,5,0,0,1,10,0v55.84A5,5,0,0,1,432.5,161.42Z"/><path class="cls-1" d="M291.7,161.42a5,5,0,0,1-5-5V100.58a5,5,0,1,1,10,0v55.84A5,5,0,0,1,291.7,161.42Z"/><path class="cls-1" d="M221.3,161.42a5,5,0,0,1-5-5V100.58a5,5,0,1,1,10,0v55.84A5,5,0,0,1,221.3,161.42Z"/><path class="cls-1" d="M291.7,386.92a5,5,0,0,1-5-5v-33.5a5,5,0,0,1,10,0v33.5A5,5,0,0,1,291.7,386.92Z"/><path class="cls-1" d="M221.3,386.92a5,5,0,0,1-5-5v-33.5a5,5,0,0,1,10,0v33.5A5,5,0,0,1,221.3,386.92Z"/><path class="cls-1" d="M240.49,401.61a5,5,0,0,1-5-5V156.67a5,5,0,1,1,10,0V396.61A5,5,0,0,1,240.49,401.61Z"/><path class="cls-1" d="M182.9,401.61a5,5,0,0,1-5-5V156.67a5,5,0,0,1,10,0V396.61A5,5,0,0,1,182.9,401.61Z"/><path class="cls-1" d="M150.9,161.42a5,5,0,0,1-5-5V100.58a5,5,0,0,1,10,0v55.84A5,5,0,0,1,150.9,161.42Z"/><path class="cls-1" d="M362.1,161.42a5,5,0,0,1-5-5V100.58a5,5,0,1,1,10,0v55.84A5,5,0,0,1,362.1,161.42Z"/><path class="cls-1" d="M294.5,193.42h-76a15,15,0,0,1-15-15v-22a5,5,0,1,1,10,0v22a5,5,0,0,0,5,5h76a5,5,0,0,0,5-5v-22a5,5,0,1,1,10,0v22A15,15,0,0,1,294.5,193.42Z"/><path class="cls-1" d="M240.49,209.42H182.9a5,5,0,0,1,0-10h57.59a5,5,0,0,1,0,10Z"/><path class="cls-1" d="M240.49,258.42H182.9a5,5,0,1,1,0-10h57.59a5,5,0,0,1,0,10Z"/><path class="cls-1" d="M240.49,305.42H182.9a5,5,0,0,1,0-10h57.59a5,5,0,1,1,0,10Z"/><path class="cls-1" d="M416.5,321.42h-32a5,5,0,0,1-5-5v-128a5,5,0,0,1,5-5h32a5,5,0,0,1,5,5v128A5,5,0,0,1,416.5,321.42Zm-27-10h22v-118h-22Z"/><path class="cls-1" d="M128.5,321.42h-32a5,5,0,0,1-5-5v-128a5,5,0,0,1,5-5h32a5,5,0,0,1,5,5v128A5,5,0,0,1,128.5,321.42Zm-27-10h22v-118h-22Z"/><path class="cls-1" d="M456.5,353.42H56.5a45.05,45.05,0,0,1-45-45v-112a45,45,0,0,1,45-45h400a45,45,0,0,1,45,45v112A45.05,45.05,0,0,1,456.5,353.42Zm-400-192a35,35,0,0,0-35,35v112a35,35,0,0,0,35,35h400a35,35,0,0,0,35-35v-112a35,35,0,0,0-35-35Z"/><path class="cls-1" d="M63.5,353.42a5,5,0,0,1-5-5v-192a5,5,0,0,1,10,0v192A5,5,0,0,1,63.5,353.42Z"/><path class="cls-1" d="M448.5,353.42a5,5,0,0,1-5-5v-192a5,5,0,1,1,10,0v192A5,5,0,0,1,448.5,353.42Z"/><path class="cls-1" d="M351.83,386.92H158.05a5,5,0,0,1,0-10H351.83a5,5,0,0,1,0,10Z"/><path class="cls-1" d="M63.55,417.42a36.5,36.5,0,1,1,36.5-36.5A36.54,36.54,0,0,1,63.55,417.42Zm0-63a26.5,26.5,0,1,0,26.5,26.5A26.53,26.53,0,0,0,63.55,354.42Z"/><path class="cls-1" d="M63.55,395.8a14.89,14.89,0,1,1,14.89-14.88A14.9,14.9,0,0,1,63.55,395.8Zm0-19.77a4.89,4.89,0,1,0,4.89,4.89A4.89,4.89,0,0,0,63.55,376Z"/><path class="cls-1" d="M126.55,417.42a36.5,36.5,0,1,1,36.5-36.5A36.54,36.54,0,0,1,126.55,417.42Zm0-63a26.5,26.5,0,1,0,26.5,26.5A26.53,26.53,0,0,0,126.55,354.42Z"/><path class="cls-1" d="M126.55,395.8a14.89,14.89,0,1,1,14.89-14.88A14.89,14.89,0,0,1,126.55,395.8Zm0-19.77a4.89,4.89,0,1,0,4.89,4.89A4.89,4.89,0,0,0,126.55,376Z"/><path class="cls-1" d="M385,417.42a36.5,36.5,0,1,1,36.5-36.5A36.54,36.54,0,0,1,385,417.42Zm0-63a26.5,26.5,0,1,0,26.5,26.5A26.53,26.53,0,0,0,385,354.42Z"/><path class="cls-1" d="M385,395.8a14.89,14.89,0,1,1,14.89-14.88A14.9,14.9,0,0,1,385,395.8ZM385,376a4.89,4.89,0,1,0,4.89,4.89A4.89,4.89,0,0,0,385,376Z"/><path class="cls-1" d="M448,417.42a36.5,36.5,0,1,1,36.5-36.5A36.54,36.54,0,0,1,448,417.42Zm0-63a26.5,26.5,0,1,0,26.5,26.5A26.53,26.53,0,0,0,448,354.42Z"/><path class="cls-1" d="M448,395.8a14.89,14.89,0,1,1,14.89-14.88A14.9,14.9,0,0,1,448,395.8ZM448,376a4.89,4.89,0,1,0,4.89,4.89A4.9,4.9,0,0,0,448,376Z"/></svg>