<?xml version="1.0" ?><svg viewBox="0 0 512 512" xmlns="http://www.w3.org/2000/svg"><defs><style>.cls-1{fill:#3f456b;}</style></defs><title/><g id="Lines"><path class="cls-1" d="M453.91,502H97.67C71.35,502,55,481.71,55,449.05s16.35-53,42.67-53l287.18-.17H454a5,5,0,0,1,3.93,8.09c-.13.17-13.85,18.14-12.93,44.87v.17c0,19.79,4.07,34,12.8,44.8a5,5,0,0,1-3.89,8.15Zm-69.06-96.08-287.17.17c-7.67,0-32.68,3.1-32.68,43S90,492,97.67,492H444.5c-6.37-11.33-9.49-25.46-9.5-42.87a86.09,86.09,0,0,1,10-43.21Z"/><path class="cls-1" d="M60,454a5,5,0,0,1-5-5V64.05c0-32.67,16.28-53,42.49-53L454,10.85h0a5,5,0,0,1,5,5V401a5,5,0,0,1-10,0V20.85l-351.5.23C67.34,21.08,65,54,65,64.05V449A5,5,0,0,1,60,454Z"/><path class="cls-1" d="M101,406a5,5,0,0,1-5-5V16a5,5,0,0,1,10,0V401A5,5,0,0,1,101,406Z"/><path class="cls-1" d="M297.61,291H254.39a5,5,0,0,1-5-5V172.22H191.2a5,5,0,0,1-5-5V124a5,5,0,0,1,5-5h58.19V63a5,5,0,0,1,5-5h43.22a5,5,0,0,1,5,5v56H360.8a5,5,0,0,1,5,5v43.21a5,5,0,0,1-5,5H302.61V286A5,5,0,0,1,297.61,291Zm-38.22-10h33.22V167.22a5,5,0,0,1,5-5H355.8V129H297.61a5,5,0,0,1-5-5V68H259.39v56a5,5,0,0,1-5,5H196.2v33.21h58.19a5,5,0,0,1,5,5Z"/><path class="cls-1" d="M133,101a5,5,0,0,1-5-5V49a5,5,0,0,1,5-5h47a5,5,0,0,1,0,10H138V96A5,5,0,0,1,133,101Z"/><path class="cls-1" d="M422,101a5,5,0,0,1-5-5V54H375a5,5,0,0,1,0-10h47a5,5,0,0,1,5,5V96A5,5,0,0,1,422,101Z"/><path class="cls-1" d="M422,373H375a5,5,0,0,1,0-10h42V321a5,5,0,0,1,10,0v47A5,5,0,0,1,422,373Z"/><path class="cls-1" d="M180,373H133a5,5,0,0,1-5-5V321a5,5,0,0,1,10,0v42h42a5,5,0,0,1,0,10Z"/><path class="cls-1" d="M165,485a5.12,5.12,0,0,1-1.68-.29L137,475.31l-26.32,9.4A5,5,0,0,1,104,480V432a5,5,0,0,1,5-5h56a5,5,0,0,1,5,5v48a5,5,0,0,1-5,5Zm-28-20a5.07,5.07,0,0,1,1.68.29L160,472.9V437H114v35.9l21.32-7.61A5.07,5.07,0,0,1,137,465Z"/><path class="cls-1" d="M176,437H154a5,5,0,0,1,0-10h22a5,5,0,0,1,0,10Z"/><path class="cls-1" d="M119,437H97a5,5,0,0,1,0-10h22a5,5,0,0,1,0,10Z"/></g><g id="Outline"><path class="cls-1" d="M440.15,469H165a5,5,0,0,1,0-10H440.15a5,5,0,0,1,0,10Z"/><path class="cls-1" d="M441,437H167a5,5,0,1,1,0-10H441a5,5,0,0,1,0,10Z"/><path class="cls-1" d="M347,326H205a5,5,0,0,1,0-10H347a5,5,0,0,1,0,10Z"/><path class="cls-1" d="M329,353H223a5,5,0,0,1,0-10H329a5,5,0,0,1,0,10Z"/></g></svg>