<?xml version="1.0" ?><svg viewBox="0 0 512 512" xmlns="http://www.w3.org/2000/svg"><defs><style>.cls-1{fill:#3f456b;}</style></defs><title/><g id="Lines"><path class="cls-1" d="M137,260.5a125,125,0,1,1,125-125A125.14,125.14,0,0,1,137,260.5Zm0-240a115,115,0,1,0,115,115A115.13,115.13,0,0,0,137,20.5Z"/><path class="cls-1" d="M137.17,167.07A31.83,31.83,0,1,1,169,135.24,31.87,31.87,0,0,1,137.17,167.07Zm0-53.66A21.83,21.83,0,1,0,159,135.24,21.86,21.86,0,0,0,137.17,113.41Z"/><path class="cls-1" d="M119.58,117.43a5,5,0,0,1-3.43-1.36c-3.35-3.16-7.42-7.58-7.59-7.77-9.07-9.54-21.84-33.88-4.9-57.24,9.75-13.45,26.51-20.54,44.84-19,17.21,1.48,31.74,10.23,37.93,22.83,6,12.25,3.39,26.18-6.37,33.88a40.45,40.45,0,0,1-6.52,3.9c-6.3,3.25-13.44,7-18.51,18.74a5,5,0,1,1-9.18-4c6.47-15.08,16.48-20.25,23.1-23.68A33.07,33.07,0,0,0,173.87,81c7-5.55,6.78-15.1,3.58-21.62-4.58-9.33-16.28-16.12-29.8-17.28-14.8-1.27-28.22,4.29-35.9,14.87-6.82,9.42-8.24,19.72-4.21,30.6a45.17,45.17,0,0,0,8.32,13.94c.1.11,4.06,4.41,7.15,7.32a5,5,0,0,1-3.43,8.64Z"/><path class="cls-1" d="M87.86,208c-1.1,0-2.22,0-3.37-.11-15.11-1-28-9.41-36.29-23.55-9.09-15.5-10.63-34.68-3.93-48.87,5.55-11.77,18.91-17,31.75-12.38a40.51,40.51,0,0,1,6.76,3.47c6,3.53,12.69,7.52,24.82,5.89a5,5,0,1,1,1.34,9.91c-15.58,2.1-25-3.5-31.26-7.2a33.24,33.24,0,0,0-5-2.66c-8-2.87-16,.11-19.34,7.24-5.25,11.12-3.83,27,3.52,39.54,3.8,6.49,12.55,17.54,28.35,18.63,27.62,1.92,35.29-25.91,35.6-27.1,0-.12,1.64-6,2.46-10.14a5,5,0,1,1,9.81,1.92c-.89,4.55-2.54,10.56-2.61,10.82C127.28,185.64,114.37,208,87.86,208Z"/><path class="cls-1" d="M181.92,216.45a30.89,30.89,0,0,1-3.2-.16c-12.77-1.22-21.14-9.07-23-21.53a40.73,40.73,0,0,1-.11-7.6c.33-7.08.71-15.11-7-25.38a5,5,0,0,1,8-6c9.8,13.14,9.28,24.38,8.93,31.82a34.16,34.16,0,0,0,0,5.69c1.16,8,5.74,12.24,14,13,11.24,1.08,24-5.84,32.45-17.62s10.52-25.72,5.4-37.18c-4.74-10.63-12.94-17-24.39-18.95a44.87,44.87,0,0,0-16.23.23c-.13,0-4.82,1.08-8.73,2.19a5,5,0,0,1-2.73-9.62c4.19-1.19,9-2.26,9.2-2.31,12.8-3.08,40.26-2,52,24.38,6.58,14.75,4.18,32.35-6.42,47.1C210.49,208.12,195.75,216.45,181.92,216.45Z"/><path class="cls-1" d="M154.91,384H118.09c-6.67,0-12.09-6.6-12.09-14.71V254a5,5,0,0,1,10,0V369.29c0,2.95,1.63,4.61,2.13,4.71h36.78c.46-.1,2.09-1.76,2.09-4.71V254a5,5,0,0,1,10,0V369.29C167,377.4,161.58,384,154.91,384Z"/><path class="cls-1" d="M137,501a5,5,0,0,1-5-5V379a5,5,0,0,1,10,0V496A5,5,0,0,1,137,501Z"/><path class="cls-1" d="M201,501H71a5,5,0,0,1,0-10H201a5,5,0,0,1,0,10Z"/><path class="cls-1" d="M132,288a5,5,0,0,1,5-5h0a5,5,0,0,1,5,5h0a5,5,0,0,1-5,5h0A5,5,0,0,1,132,288Z"/><path class="cls-1" d="M132,310a5,5,0,0,1,5-5h0a5,5,0,0,1,5,5h0a5,5,0,0,1-5,5h0A5,5,0,0,1,132,310Z"/><path class="cls-1" d="M132,332a5,5,0,0,1,5-5h0a5,5,0,0,1,5,5h0a5,5,0,0,1-5,5h0A5,5,0,0,1,132,332Z"/></g><g id="Outline"><path class="cls-1" d="M343.53,48.29c-8.6,0-16-3.71-23.93-11.64-15.85-15.86-40.17.68-40.42.85a5,5,0,1,1-5.69-8.21c10.8-7.49,35.83-17.07,53.19.29C335,37.94,341.17,39.85,351,37.15c4.75-1.3,8.15-4.46,11.74-7.81s7.38-6.89,12.74-8.82C388.1,16,401.06,19.15,411,29.22c11.3,11.42,23.51,11.72,37.33.9l.36-.28c21.82-16.95,39.77-9.52,51-.31a5,5,0,0,1-6.34,7.73c-16.5-13.56-29.87-6.22-38.5.48l-.33.26c-10.29,8-30.55,18.53-50.6-1.75-7.21-7.29-16.1-9.54-25-6.32-3.42,1.23-6.14,3.78-9.3,6.72-4.12,3.84-8.79,8.19-15.91,10.15A38.37,38.37,0,0,1,343.53,48.29Z"/><path class="cls-1" d="M343.53,100.27c-8.6,0-16-3.71-23.93-11.64-15.85-15.86-40.17.69-40.42.86a5,5,0,1,1-5.69-8.22c10.8-7.49,35.83-17.07,53.19.29C335,89.92,341.17,91.83,351,89.14c4.76-1.31,8.15-4.47,11.74-7.82s7.38-6.89,12.74-8.81C388.1,68,401.06,71.13,411,81.2c11.3,11.42,23.5,11.72,37.33.9l.36-.28c21.82-16.95,39.76-9.52,51-.3a5,5,0,0,1-6.34,7.72c-16.5-13.56-29.87-6.22-38.5.48l-.33.26c-10.29,8-30.54,18.53-50.6-1.75-7.21-7.29-16.1-9.53-25-6.31-3.42,1.23-6.14,3.77-9.3,6.71-4.12,3.85-8.79,8.2-15.91,10.15A38,38,0,0,1,343.53,100.27Z"/><path class="cls-1" d="M343.53,152.25c-8.6,0-16-3.7-23.93-11.63-15.85-15.86-40.17.68-40.42.85a5,5,0,1,1-5.69-8.22c10.8-7.49,35.83-17.07,53.19.29,8.35,8.36,14.49,10.28,24.31,7.58,4.75-1.3,8.15-4.47,11.74-7.81s7.38-6.9,12.74-8.82c12.63-4.55,25.59-1.38,35.54,8.69,11.3,11.43,23.5,11.72,37.33.91l.36-.29c21.82-16.94,39.77-9.52,51-.3a5,5,0,1,1-6.34,7.72c-16.49-13.55-29.87-6.22-38.5.48l-.33.26c-10.29,8-30.54,18.54-50.6-1.75-7.21-7.29-16.1-9.53-25-6.31-3.42,1.23-6.14,3.77-9.3,6.72-4.12,3.84-8.79,8.19-15.91,10.14A38,38,0,0,1,343.53,152.25Z"/><path class="cls-1" d="M343.53,205.25c-8.6,0-16-3.7-23.93-11.63-15.85-15.86-40.17.68-40.42.85a5,5,0,1,1-5.69-8.22c10.8-7.49,35.83-17.07,53.19.29,8.35,8.36,14.49,10.28,24.31,7.58,4.75-1.3,8.15-4.47,11.74-7.81s7.38-6.9,12.74-8.82c12.63-4.55,25.59-1.38,35.54,8.69,11.3,11.43,23.5,11.72,37.33.91l.36-.29c21.82-16.94,39.77-9.52,51-.3a5,5,0,1,1-6.34,7.72c-16.49-13.55-29.87-6.22-38.5.48l-.33.26c-10.29,8-30.54,18.54-50.6-1.75-7.21-7.29-16.1-9.53-25-6.31-3.42,1.23-6.14,3.77-9.3,6.72-4.12,3.84-8.79,8.19-15.91,10.14A38,38,0,0,1,343.53,205.25Z"/><path class="cls-1" d="M343.53,258.25c-8.6,0-16-3.7-23.93-11.63-15.85-15.87-40.17.68-40.42.85a5,5,0,1,1-5.69-8.22c10.8-7.49,35.83-17.07,53.19.29,8.35,8.36,14.49,10.28,24.31,7.58,4.75-1.3,8.15-4.47,11.74-7.81s7.38-6.9,12.74-8.82c12.63-4.54,25.59-1.38,35.54,8.69,11.3,11.43,23.5,11.72,37.33.91l.36-.29c21.82-16.94,39.77-9.52,51-.3a5,5,0,1,1-6.34,7.72c-16.49-13.55-29.87-6.22-38.5.48l-.33.26c-10.29,8-30.54,18.54-50.6-1.75-7.21-7.29-16.1-9.53-25-6.31-3.42,1.23-6.14,3.77-9.3,6.72-4.12,3.84-8.79,8.19-15.91,10.14A38,38,0,0,1,343.53,258.25Z"/></g></svg>