<?xml version="1.0" ?><svg viewBox="0 0 512 512" xmlns="http://www.w3.org/2000/svg"><defs><style>.cls-1{fill:#3f456b;}</style></defs><title/><g id="Lines"><path class="cls-1" d="M118,357H75a5,5,0,0,1-5-4.8L62,148.7v-.2A15.51,15.51,0,0,1,77.5,133H305a5,5,0,0,1,5,5v16H463.88c1.89-.08,16.28-.37,26.69,9.4C497.49,169.93,501,179.2,501,191a5,5,0,0,1-5,5H131.21C128.92,242.55,125,320.51,123,352.32A5,5,0,0,1,118,357ZM79.81,347H113.3c3.11-50.75,9.64-186.83,9.71-188.24a5,5,0,0,1,5-4.76H300V143H77.5a5.5,5.5,0,0,0-5.5,5.42ZM131.7,186h359c-.77-6.48-3.09-11.59-6.94-15.24-7.72-7.3-19.37-6.75-19.49-6.75H464l-331.23,0C132.54,168.59,132.17,176.26,131.7,186Z"/><path class="cls-1" d="M67.38,196H17a5,5,0,0,1-5-5c0-11.8,3.51-21.07,10.43-27.58,10.41-9.77,24.81-9.48,26.69-9.4H67a5,5,0,0,1,0,10H48.69c-.1,0-11.75-.55-19.47,6.75-3.85,3.65-6.17,8.76-6.94,15.24h45.1a5,5,0,0,1,0,10Z"/><path class="cls-1" d="M112.42,500H82a5,5,0,0,1,0-10h28.34L396.88,203.46a5,5,0,0,1,3.54-1.46h32.05a5,5,0,0,1,0,10h-30L116,498.54A5,5,0,0,1,112.42,500Z"/><path class="cls-1" d="M431.47,500H401.05a5,5,0,0,1-3.53-1.46l-276-276a5,5,0,1,1,7.07-7.07L403.13,490h28.34a5,5,0,0,1,0,10Z"/><path class="cls-1" d="M396.58,164a5,5,0,1,1,0-10c10.95,0,19.21-2.82,24.56-8.38,7.05-7.33,6.86-17.33,6.86-17.42V80c0-15.06-5-27.54-15-37.09C392,22.76,354.71,20.23,341.5,20V159a5,5,0,0,1-10,0V15a5,5,0,0,1,4.79-5A163.82,163.82,0,0,1,367,12.29c23,3.84,40.79,11.71,53,23.39C431.91,47.18,438,62.09,438,80v47.93c0,1.53,0,14.55-9.65,24.62C421,160.15,410.35,164,396.58,164Z"/><path class="cls-1" d="M400.5,136A15.51,15.51,0,0,1,385,120.5v-52a15.5,15.5,0,0,1,31,0v52A15.51,15.51,0,0,1,400.5,136Zm0-73a5.51,5.51,0,0,0-5.5,5.5v52a5.5,5.5,0,0,0,11,0v-52A5.51,5.51,0,0,0,400.5,63Z"/><path class="cls-1" d="M361,164a5,5,0,0,1-5-5V17a5,5,0,0,1,10,0V159A5,5,0,0,1,361,164Z"/><path class="cls-1" d="M120.75,308.5H73.09a5,5,0,0,1,0-10h47.66a5,5,0,0,1,0,10Z"/></g><g id="Outline"><path class="cls-1" d="M230.26,116a5,5,0,0,1-3.16-8.88s6.33-6.89-1.2-17.61c-8.85-12.58-3.49-24.77.58-29.46a5,5,0,0,1,7.58,6.53c-.7.84-6.35,8.12,0,17.18,10.23,14.55,3.82,27.46-.67,31.12A5,5,0,0,1,230.26,116Z"/><path class="cls-1" d="M180.21,116a5,5,0,0,1-3.16-8.88s6.33-6.89-1.21-17.61c-8.85-12.58-3.48-24.77.59-29.46A5,5,0,0,1,184,66.58c-.69.83-6.35,8.12,0,17.18,10.24,14.56,3.83,27.47-.66,31.12A5,5,0,0,1,180.21,116Z"/><path class="cls-1" d="M129.89,116a5,5,0,0,1-3.16-8.88s6.33-6.89-1.21-17.61c-8.85-12.58-3.48-24.77.59-29.46a5,5,0,0,1,7.57,6.53c-.69.83-6.35,8.12,0,17.18,10.24,14.56,3.83,27.46-.66,31.12A5,5,0,0,1,129.89,116Z"/></g></svg>