<?xml version="1.0" ?><svg viewBox="0 0 512 512" xmlns="http://www.w3.org/2000/svg"><defs><style>.cls-1{fill:#3f456b;}</style></defs><title/><g id="Lines"><path class="cls-1" d="M338,245h-1.29a5,5,0,0,1,0-10H338a5,5,0,0,1,0,10Z"/><path class="cls-1" d="M338,219h-1.29a5,5,0,0,1,0-10H338a5,5,0,0,1,0,10Z"/><path class="cls-1" d="M360.4,503h-208C127.8,503,107,482.16,107,457.49V55.84a44.13,44.13,0,0,1,13.5-31.71A45.4,45.4,0,0,1,152.43,11h208A44.78,44.78,0,0,1,405,55.84V457.49C405,482.58,385,503,360.4,503Zm-208-482C133.23,21,117,37,117,55.84V457.49c0,19.25,16.23,35.51,35.43,35.51h208c18.75,0,34.6-16.26,34.6-35.51V55.84A34.76,34.76,0,0,0,360.4,21Z"/><path class="cls-1" d="M355.69,371H158.31A26.34,26.34,0,0,1,132,344.69V59.31A26.34,26.34,0,0,1,158.31,33H355.69A26.34,26.34,0,0,1,382,59.31V344.69A26.34,26.34,0,0,1,355.69,371ZM158.31,43A16.33,16.33,0,0,0,142,59.31V344.69A16.33,16.33,0,0,0,158.31,361H355.69A16.33,16.33,0,0,0,372,344.69V59.31A16.33,16.33,0,0,0,355.69,43Z"/><path class="cls-1" d="M201,341.41a36.83,36.83,0,1,1,36.83-36.83A36.88,36.88,0,0,1,201,341.41Zm0-63.66a26.83,26.83,0,1,0,26.83,26.83A26.86,26.86,0,0,0,201,277.75Z"/><path class="cls-1" d="M313,341.41a36.83,36.83,0,1,1,36.83-36.83A36.88,36.88,0,0,1,313,341.41Zm0-63.66a26.83,26.83,0,1,0,26.83,26.83A26.86,26.86,0,0,0,313,277.75Z"/><path class="cls-1" d="M346,195H166a5,5,0,0,1-5-5V70a5,5,0,0,1,5-5H346a5,5,0,0,1,5,5V190A5,5,0,0,1,346,195ZM171,185H341V75H171Z"/><path class="cls-1" d="M182.36,249.85a24.41,24.41,0,1,1,24.41-24.41A24.45,24.45,0,0,1,182.36,249.85Zm0-38.82a14.41,14.41,0,1,0,14.41,14.41A14.43,14.43,0,0,0,182.36,211Z"/><path class="cls-1" d="M291.76,249.85a24.41,24.41,0,1,1,24.41-24.41A24.45,24.45,0,0,1,291.76,249.85Zm0-38.82a14.41,14.41,0,1,0,14.41,14.41A14.43,14.43,0,0,0,291.76,211Z"/><path class="cls-1" d="M236.76,249.85a24.41,24.41,0,1,1,24.41-24.41A24.45,24.45,0,0,1,236.76,249.85Zm0-38.82a14.41,14.41,0,1,0,14.41,14.41A14.43,14.43,0,0,0,236.76,211Z"/><path class="cls-1" d="M408,164h-8a5,5,0,0,1,0-10h8a5,5,0,0,0,5-5V104a5,5,0,0,0-5-5h-8a5,5,0,0,1,0-10h8a15,15,0,0,1,15,15v45A15,15,0,0,1,408,164Z"/><path class="cls-1" d="M112,214h-8a15,15,0,0,1-15-15V154a15,15,0,0,1,15-15h8a5,5,0,0,1,0,10h-8a5,5,0,0,0-5,5v45a5,5,0,0,0,5,5h8a5,5,0,0,1,0,10Z"/><path class="cls-1" d="M408,253h-8a5,5,0,0,1,0-10h8a5,5,0,0,0,5-5V193a5,5,0,0,0-5-5h-8a5,5,0,0,1,0-10h8a15,15,0,0,1,15,15v45A15,15,0,0,1,408,253Z"/></g><g id="Outline"><path class="cls-1" d="M488.09,409.69a5,5,0,0,1-4.25-2.36c-20.11-32.32-20.11-84.92,0-117.25a5,5,0,1,1,8.49,5.28c-18.3,29.42-18.3,77.28,0,106.69a5,5,0,0,1-4.24,7.64Z"/><path class="cls-1" d="M467.78,442.34a5,5,0,0,1-4.25-2.36c-15.21-24.45-23.59-56.87-23.59-91.27s8.38-66.83,23.59-91.28a5,5,0,1,1,8.49,5.28c-29.5,47.42-29.5,124.57,0,172a5,5,0,0,1-4.24,7.64Z"/><path class="cls-1" d="M23.41,410.07a5,5,0,0,1-4.24-7.64c18.43-29.62,18.43-77.82,0-107.45a5,5,0,1,1,8.49-5.28c20.24,32.54,20.24,85.48,0,118A5,5,0,0,1,23.41,410.07Z"/><path class="cls-1" d="M191,195a5,5,0,0,1-5-5V157a5,5,0,0,1,10,0v33A5,5,0,0,1,191,195Z"/><path class="cls-1" d="M217,195a5,5,0,0,1-5-5V157a5,5,0,0,1,10,0v33A5,5,0,0,1,217,195Z"/><path class="cls-1" d="M242,195a5,5,0,0,1-5-5V140a5,5,0,0,1,10,0v50A5,5,0,0,1,242,195Z"/><path class="cls-1" d="M268,195a5,5,0,0,1-5-5V140a5,5,0,0,1,10,0v50A5,5,0,0,1,268,195Z"/><path class="cls-1" d="M293,195a5,5,0,0,1-5-5V107a5,5,0,0,1,10,0v83A5,5,0,0,1,293,195Z"/><path class="cls-1" d="M319,195a5,5,0,0,1-5-5V140a5,5,0,0,1,10,0v50A5,5,0,0,1,319,195Z"/><path class="cls-1" d="M43.86,442.94a5,5,0,0,1-4.24-7.64c29.7-47.75,29.7-125.44,0-173.19a5,5,0,1,1,8.49-5.28c15.31,24.61,23.74,57.24,23.74,91.88S63.42,416,48.11,440.58A5,5,0,0,1,43.86,442.94Z"/><path class="cls-1" d="M353,432.37h-.78a5,5,0,0,1,0-10H353a5,5,0,0,1,0,10Z"/><path class="cls-1" d="M353,462h-.78a5,5,0,0,1,0-10H353a5,5,0,0,1,0,10Z"/><path class="cls-1" d="M353,402.75h-.78a5,5,0,0,1,0-10H353a5,5,0,0,1,0,10Z"/><path class="cls-1" d="M328.82,432.37H328a5,5,0,0,1,0-10h.78a5,5,0,1,1,0,10Z"/><path class="cls-1" d="M328.82,462H328a5,5,0,1,1,0-10h.78a5,5,0,0,1,0,10Z"/><path class="cls-1" d="M328.82,402.75H328a5,5,0,1,1,0-10h.78a5,5,0,0,1,0,10Z"/><path class="cls-1" d="M304.64,432.37h-.78a5,5,0,0,1,0-10h.78a5,5,0,0,1,0,10Z"/><path class="cls-1" d="M304.64,462h-.78a5,5,0,0,1,0-10h.78a5,5,0,0,1,0,10Z"/><path class="cls-1" d="M304.64,402.75h-.78a5,5,0,0,1,0-10h.78a5,5,0,0,1,0,10Z"/><path class="cls-1" d="M280.46,432.37h-.78a5,5,0,1,1,0-10h.78a5,5,0,0,1,0,10Z"/><path class="cls-1" d="M280.46,462h-.78a5,5,0,0,1,0-10h.78a5,5,0,1,1,0,10Z"/><path class="cls-1" d="M280.46,402.75h-.78a5,5,0,0,1,0-10h.78a5,5,0,1,1,0,10Z"/><path class="cls-1" d="M256.28,432.37h-.78a5,5,0,0,1,0-10h.78a5,5,0,0,1,0,10Z"/><path class="cls-1" d="M256.28,462h-.78a5,5,0,0,1,0-10h.78a5,5,0,0,1,0,10Z"/><path class="cls-1" d="M256.28,402.75h-.78a5,5,0,0,1,0-10h.78a5,5,0,0,1,0,10Z"/><path class="cls-1" d="M232.1,432.37h-.78a5,5,0,0,1,0-10h.78a5,5,0,1,1,0,10Z"/><path class="cls-1" d="M232.1,462h-.78a5,5,0,1,1,0-10h.78a5,5,0,1,1,0,10Z"/><path class="cls-1" d="M232.1,402.75h-.78a5,5,0,1,1,0-10h.78a5,5,0,1,1,0,10Z"/><path class="cls-1" d="M207.92,432.37h-.78a5,5,0,0,1,0-10h.78a5,5,0,0,1,0,10Z"/><path class="cls-1" d="M207.92,462h-.78a5,5,0,0,1,0-10h.78a5,5,0,0,1,0,10Z"/><path class="cls-1" d="M207.92,402.75h-.78a5,5,0,0,1,0-10h.78a5,5,0,0,1,0,10Z"/><path class="cls-1" d="M183.74,432.37H183a5,5,0,0,1,0-10h.78a5,5,0,0,1,0,10Z"/><path class="cls-1" d="M183.74,462H183a5,5,0,0,1,0-10h.78a5,5,0,0,1,0,10Z"/><path class="cls-1" d="M183.74,402.75H183a5,5,0,0,1,0-10h.78a5,5,0,0,1,0,10Z"/><path class="cls-1" d="M159.56,432.37h-.78a5,5,0,1,1,0-10h.78a5,5,0,1,1,0,10Z"/><path class="cls-1" d="M159.56,462h-.78a5,5,0,1,1,0-10h.78a5,5,0,0,1,0,10Z"/><path class="cls-1" d="M159.56,402.75h-.78a5,5,0,1,1,0-10h.78a5,5,0,0,1,0,10Z"/></g></svg>