<?xml version="1.0" ?><svg id="Lines" viewBox="0 0 512 512" xmlns="http://www.w3.org/2000/svg"><defs><style>.cls-1{fill:#3f456b;}</style></defs><title/><path class="cls-1" d="M111,500H19a5,5,0,0,1-5-5V217a5,5,0,0,1,5-5h92a5,5,0,0,1,5,5V495A5,5,0,0,1,111,500ZM24,490h82V222H24Z"/><path class="cls-1" d="M238.54,500h-92a5,5,0,0,1-5-5V290.85a5,5,0,0,1,5-5h92a5,5,0,0,1,5,5V495A5,5,0,0,1,238.54,500Zm-87-10h82V295.85h-82Z"/><path class="cls-1" d="M367.27,500H275.32a5,5,0,0,1-5-5V87.79a5,5,0,0,1,5-5h91.95a5,5,0,0,1,5,5V495A5,5,0,0,1,367.27,500Zm-86.95-10h81.95V92.79H280.32Z"/><path class="cls-1" d="M496,500H404.05a5,5,0,0,1-5-5V15a5,5,0,0,1,5-5H496a5,5,0,0,1,5,5V495A5,5,0,0,1,496,500Zm-86.95-10H491V20H409.05Z"/><path class="cls-1" d="M367.27,92.79H275.32a5,5,0,0,1-5-5V15a5,5,0,0,1,5-5h91.95a5,5,0,0,1,5,5V87.79A5,5,0,0,1,367.27,92.79Zm-86.95-10h81.95V20H280.32Z"/><path class="cls-1" d="M111,222H19a5,5,0,0,1-5-5V15a5,5,0,0,1,5-5h92a5,5,0,0,1,5,5V217A5,5,0,0,1,111,222ZM24,212h82V20H24Z"/><path class="cls-1" d="M238.54,295.85h-92a5,5,0,0,1-5-5V15a5,5,0,0,1,5-5h92a5,5,0,0,1,5,5V290.85A5,5,0,0,1,238.54,295.85Zm-87-10h82V20h-82Z"/></svg>