<?xml version="1.0" ?><svg viewBox="0 0 512 512" xmlns="http://www.w3.org/2000/svg"><defs><style>.cls-1{fill:#3f456b;}</style></defs><title/><g id="Lines"><path class="cls-1" d="M134.27,392.71a5,5,0,0,1-3.06-1c-.64-.5-15.86-12.47-33.45-39.31C81.68,327.8,60.45,285.52,50.67,223.44a5,5,0,0,1,2.89-5.34c1.06-.47,107.33-47.6,209.72-47.6h.21c104.79,4.5,196.72,47.21,197.63,47.64a5,5,0,0,1,2.79,5.44c-11.54,62-32.27,104-47.63,128.31-16.81,26.62-30.85,38.4-31.44,38.89a5,5,0,0,1-6.38-7.7c.12-.11,13.66-11.54,29.67-37,14.47-23,33.9-62.45,45.21-120.45-17.63-7.71-98.95-41.18-190.17-45.11-89.82,0-183,37.2-202,45.22,9.71,57.93,29.55,97.52,44.65,120.68,16.71,25.64,31.38,37.25,31.53,37.36a5,5,0,0,1-3.08,8.95Z"/><path class="cls-1" d="M62.34,261a5,5,0,0,1-2.18-9.5c.85-.41,86.3-41.17,196.19-45.83a5,5,0,1,1,.43,10C148.92,220.23,65.35,260.1,64.51,260.5A5,5,0,0,1,62.34,261Z"/><path class="cls-1" d="M451.27,261a4.91,4.91,0,0,1-2.19-.51c-.82-.4-83.52-40.26-191.25-44.83a5,5,0,0,1,.21-10h.22c109.91,4.66,194.37,45.43,195.21,45.84a5,5,0,0,1-2.2,9.49Z"/><path class="cls-1" d="M477.89,342.5a23,23,0,1,1,23-23A23,23,0,0,1,477.89,342.5Zm0-36a13,13,0,1,0,13,13A13,13,0,0,0,477.89,306.5Z"/><path class="cls-1" d="M29,367.85a23,23,0,1,1,23-23A23,23,0,0,1,29,367.85Zm0-36a13,13,0,1,0,13,13A13,13,0,0,0,29,331.85Z"/><path class="cls-1" d="M469.09,465.87a23,23,0,1,1,23-23A23,23,0,0,1,469.09,465.87Zm0-36a13,13,0,1,0,13,13A13,13,0,0,0,469.09,429.87Z"/><path class="cls-1" d="M111.25,397.87a57.9,57.9,0,0,1-19.08-3.41C81.74,390.7,67.74,382,60.27,362.07a5,5,0,0,1,9.37-3.5c11.63,31.08,41.64,29.36,42.91,29.26a5,5,0,0,1,.74,10C113.19,397.81,112.47,397.87,111.25,397.87Z"/><path class="cls-1" d="M18.66,397.87c-1.21,0-1.94-.06-2-.06a5,5,0,1,1,.76-10c1.26.08,31.26,1.82,42.89-29.27a5,5,0,0,1,9.37,3.5c-7.47,20-21.47,28.63-31.9,32.39A57.86,57.86,0,0,1,18.66,397.87Z"/><path class="cls-1" d="M207.17,397.87a57.91,57.91,0,0,1-19.09-3.41c-10.43-3.76-24.43-12.43-31.89-32.39a5,5,0,0,1,9.36-3.5c11.63,31.08,41.64,29.36,42.91,29.26a5,5,0,0,1,.75,10C209.1,397.81,208.38,397.87,207.17,397.87Z"/><path class="cls-1" d="M114.57,397.87c-1.21,0-1.93-.06-2-.06a5,5,0,0,1,.75-10c1.31.08,31.28,1.8,42.91-29.27a5,5,0,1,1,9.36,3.5c-7.46,20-21.47,28.63-31.9,32.39A57.82,57.82,0,0,1,114.57,397.87Z"/><path class="cls-1" d="M303.51,397.87a57.9,57.9,0,0,1-19.08-3.41C274,390.7,260,382,252.54,362.07a5,5,0,0,1,9.36-3.5c11.63,31.08,41.64,29.36,42.91,29.26a5,5,0,0,1,.75,10C305.45,397.81,304.73,397.87,303.51,397.87Z"/><path class="cls-1" d="M210.92,397.87c-1.21,0-1.94-.06-2-.06a5,5,0,0,1,.76-10c1.26.08,31.27,1.82,42.9-29.27a5,5,0,0,1,9.36,3.5c-7.46,20-21.47,28.63-31.9,32.39A57.82,57.82,0,0,1,210.92,397.87Z"/><path class="cls-1" d="M399.43,397.87a57.82,57.82,0,0,1-19.08-3.41c-10.43-3.76-24.44-12.43-31.9-32.39a5,5,0,1,1,9.36-3.5c11.63,31.08,41.64,29.36,42.91,29.26a5,5,0,0,1,.75,10C401.37,397.81,400.64,397.87,399.43,397.87Z"/><path class="cls-1" d="M306.83,397.87c-1.21,0-1.93-.06-2-.06a5,5,0,0,1,.75-10c1.3.08,31.29,1.8,42.91-29.27a5,5,0,1,1,9.36,3.5c-7.46,20-21.46,28.63-31.89,32.39A57.91,57.91,0,0,1,306.83,397.87Z"/><path class="cls-1" d="M495.34,397.87a57.86,57.86,0,0,1-19.08-3.41c-10.43-3.76-24.43-12.43-31.9-32.39a5,5,0,0,1,9.37-3.5c11.62,31.08,41.63,29.36,42.9,29.26a5,5,0,0,1,.75,10C497.28,397.81,496.55,397.87,495.34,397.87Z"/><path class="cls-1" d="M402.75,397.87c-1.22,0-1.94-.06-2-.06a5,5,0,1,1,.76-10c1.26.08,31.26,1.82,42.89-29.27a5,5,0,0,1,9.37,3.5c-7.47,20-21.47,28.63-31.9,32.39A57.9,57.9,0,0,1,402.75,397.87Z"/><path class="cls-1" d="M207.38,452.65a57.9,57.9,0,0,1-19.08-3.41c-10.43-3.76-24.43-12.43-31.9-32.39a5,5,0,0,1,9.37-3.5c11.63,31.08,41.63,29.36,42.91,29.27a5,5,0,0,1,.75,10C209.32,452.6,208.6,452.65,207.38,452.65Z"/><path class="cls-1" d="M114.79,452.65c-1.21,0-1.94,0-2-.06a5,5,0,0,1,.76-10c1.26.09,31.26,1.82,42.89-29.27a5,5,0,0,1,9.37,3.5c-7.47,20-21.47,28.63-31.9,32.39A57.82,57.82,0,0,1,114.79,452.65Z"/><path class="cls-1" d="M303.3,452.65a57.82,57.82,0,0,1-19.08-3.41c-10.44-3.76-24.44-12.43-31.9-32.39a5,5,0,0,1,9.36-3.5c11.7,31.28,42.58,29.29,42.89,29.27a5,5,0,1,1,.77,10C305.23,452.6,304.51,452.65,303.3,452.65Z"/><path class="cls-1" d="M210.7,452.65c-1.21,0-1.93,0-2-.06a5,5,0,0,1,.75-10c1.3.08,31.28,1.8,42.91-29.27a5,5,0,1,1,9.36,3.5c-7.46,20-21.46,28.63-31.9,32.39A57.82,57.82,0,0,1,210.7,452.65Z"/><path class="cls-1" d="M399.64,452.65a57.9,57.9,0,0,1-19.08-3.41c-10.43-3.76-24.43-12.43-31.89-32.39a5,5,0,1,1,9.36-3.5c11.63,31.08,41.64,29.36,42.91,29.27a5,5,0,0,1,.75,10C401.58,452.6,400.86,452.65,399.64,452.65Z"/><path class="cls-1" d="M307.05,452.65c-1.21,0-1.94,0-2-.06a5,5,0,0,1,.76-10c1.26.09,31.27,1.82,42.9-29.27a5,5,0,1,1,9.36,3.5c-7.46,20-21.47,28.63-31.9,32.39A57.82,57.82,0,0,1,307.05,452.65Z"/><path class="cls-1" d="M81.78,215.67a5,5,0,0,1-5-5.76s4.74-31.07,9.5-62.14a5,5,0,0,1,9.89,1.52c-4.77,31.06-9.5,62.13-9.5,62.13A5,5,0,0,1,81.78,215.67Z"/><path class="cls-1" d="M431.27,215.67a5,5,0,0,1-4.94-4.25s-4.73-31.07-9.5-62.13a5,5,0,0,1,9.89-1.52c4.76,31.07,9.5,62.14,9.5,62.14a5,5,0,0,1-5,5.76Z"/><path class="cls-1" d="M396.71,102.82h-279a5,5,0,0,1-5-5V80.44c0-7.36,8.37-12.9,19.48-12.9h250c11.1,0,19.48,5.54,19.48,12.9V97.82A5,5,0,0,1,396.71,102.82Zm-274-10h269V80.56c-.48-.91-3.82-3-9.48-3h-250c-5.67,0-9,2.11-9.48,3Z"/><path class="cls-1" d="M433.78,153.4H81.41a5,5,0,0,1-5-5V131c0-7.11,6.73-12.9,15-12.9H423.78c8.27,0,15,5.79,15,12.9V148.4A5,5,0,0,1,433.78,153.4Zm-347.37-10H428.78V131c0-1.18-1.95-2.9-5-2.9H91.41c-3,0-5,1.72-5,2.9Z"/><path class="cls-1" d="M135.72,127.19a5,5,0,0,1-5-5V97.82a5,5,0,0,1,10,0v24.37A5,5,0,0,1,135.72,127.19Z"/><path class="cls-1" d="M379.84,127.19a5,5,0,0,1-5-5V97.82a5,5,0,0,1,10,0v24.37A5,5,0,0,1,379.84,127.19Z"/><path class="cls-1" d="M258.08,127.19a5,5,0,0,1-5-5V97.82a5,5,0,0,1,10,0v24.37A5,5,0,0,1,258.08,127.19Z"/><path class="cls-1" d="M258.08,179.13a5,5,0,0,1-5-5V149.77a5,5,0,0,1,10,0v24.36A5,5,0,0,1,258.08,179.13Z"/><path class="cls-1" d="M196.9,127.19a5,5,0,0,1-5-5V97.82a5,5,0,0,1,10,0v24.37A5,5,0,0,1,196.9,127.19Z"/><path class="cls-1" d="M319,127.19a5,5,0,0,1-5-5V97.82a5,5,0,0,1,10,0v24.37A5,5,0,0,1,319,127.19Z"/><path class="cls-1" d="M289.78,77.54a5,5,0,0,1-5-5v-47a5,5,0,0,0-5-5h-44a5,5,0,0,0-5,5v47a5,5,0,0,1-10,0v-47a15,15,0,0,1,15-15h44a15,15,0,0,1,15,15v47A5,5,0,0,1,289.78,77.54Z"/><path class="cls-1" d="M289.78,44.75h-64a5,5,0,1,1,0-10h64a5,5,0,0,1,0,10Z"/><path class="cls-1" d="M317.67,298.26a23.85,23.85,0,0,1-23.82-23.83,5,5,0,1,1,10,0,13.83,13.83,0,1,0,27.65,0,5,5,0,0,1,10,0A23.86,23.86,0,0,1,317.67,298.26Z"/><path class="cls-1" d="M355.33,298.26a23.86,23.86,0,0,1-23.83-23.83,5,5,0,0,1,10,0,13.83,13.83,0,1,0,27.65,0,5,5,0,1,1,10,0A23.85,23.85,0,0,1,355.33,298.26Z"/><path class="cls-1" d="M336.5,279.43a5,5,0,0,1-5-5V185.74a5,5,0,0,1,10,0v88.69A5,5,0,0,1,336.5,279.43Z"/></g><g id="Outline"><path class="cls-1" d="M257.3,368.38a5,5,0,0,1-5-5V175.5a5,5,0,0,1,10,0V363.38A5,5,0,0,1,257.3,368.38Z"/><path class="cls-1" d="M189.46,253.42a5,5,0,0,1-4.86-3.85l-.3-1.27A5,5,0,1,1,194,246l.3,1.27a5,5,0,0,1-3.71,6A5.16,5.16,0,0,1,189.46,253.42Z"/><path class="cls-1" d="M166.27,258.9a5,5,0,0,1-4.86-3.85l-.3-1.28a5,5,0,1,1,9.73-2.29l.3,1.27a5,5,0,0,1-4.87,6.15Z"/><path class="cls-1" d="M143.08,264.38a5,5,0,0,1-4.86-3.86l-.3-1.27a5,5,0,1,1,9.73-2.3l.3,1.28a5,5,0,0,1-4.87,6.15Z"/><path class="cls-1" d="M119.9,269.85A5,5,0,0,1,115,266l-.3-1.27a5,5,0,1,1,9.73-2.3l.3,1.27a5,5,0,0,1-3.71,6A5.07,5.07,0,0,1,119.9,269.85Z"/><path class="cls-1" d="M161.78,174.7a5,5,0,0,1-5-5V168.4a5,5,0,0,1,5-5h0a5,5,0,0,1,5,5v1.31a5,5,0,0,1-5,5Z"/><path class="cls-1" d="M138,174.75a5,5,0,0,1-5-5v-1.31a5,5,0,0,1,5-5h0a5,5,0,0,1,5,5v1.31a5,5,0,0,1-5,5Z"/><path class="cls-1" d="M114.12,174.8a5,5,0,0,1-5-5V168.5a5,5,0,0,1,5-5h0a5,5,0,0,1,5,5v1.31a5,5,0,0,1-5,5Z"/><path class="cls-1" d="M400.94,174.7a5,5,0,0,1-5-5V168.4a5,5,0,0,1,5-5h0a5,5,0,0,1,5,5v1.31a5,5,0,0,1-5,5Z"/><path class="cls-1" d="M377.11,174.75a5,5,0,0,1-5-5v-1.31a5,5,0,0,1,5-5h0a5,5,0,0,1,5,5v1.31a5,5,0,0,1-5,5Z"/><path class="cls-1" d="M353.28,174.8a5,5,0,0,1-5-5V168.5a5,5,0,0,1,5-5h0a5,5,0,0,1,5,5v1.31a5,5,0,0,1-5,5Z"/><path class="cls-1" d="M451.67,84.09l-.53,0a5,5,0,0,1-4.46-4.63c-1.23-18-21.28-16.87-22.14-16.82a5,5,0,0,1-.65-10A41,41,0,0,1,439.09,55a26.09,26.09,0,0,1,14.23,11.86c5.75-6.07,15.35-11.13,29.87-9.3a5,5,0,1,1-1.25,9.92c-20.76-2.61-25.28,12.36-25.46,13A5,5,0,0,1,451.67,84.09Z"/><path class="cls-1" d="M56.29,123.63a5,5,0,0,1-4.68-3.24c-6.26-16.89-25.18-10.17-26-9.87a5,5,0,1,1-3.45-9.39,41,41,0,0,1,15.24-2,26,26,0,0,1,17,7.35c3.8-7.45,11.58-15,26-17.36A5,5,0,1,1,82.05,99c-20,3.26-20.74,18-20.75,19.7a5,5,0,0,1-4.14,4.91A5.1,5.1,0,0,1,56.29,123.63Z"/></g></svg>