<?xml version="1.0" ?><svg enable-background="new 0 0 512 512" version="1.1" viewBox="0 0 512 512" xml:space="preserve" xmlns="http://www.w3.org/2000/svg" xmlns:xlink="http://www.w3.org/1999/xlink"><g id="Colors"><g><g><g><g><path d="M380.668,358.713c0,2.992-2.424,5.418-5.418,5.418c-2.992,0-5.418-2.426-5.418-5.418       c0-2.992,2.426-5.419,5.418-5.419C378.244,353.294,380.668,355.721,380.668,358.713z" fill="#3F456B"/></g></g><g><g><path d="M427.497,358.713c0,2.992-2.424,5.418-5.418,5.418c-2.992,0-5.418-2.426-5.418-5.418       c0-2.992,2.426-5.419,5.418-5.419C425.073,353.294,427.497,355.721,427.497,358.713z" fill="#3F456B"/></g></g><g><g><path d="M146.521,358.713c0,2.992-2.424,5.418-5.418,5.418c-2.991,0-5.417-2.426-5.417-5.418       c0-2.992,2.426-5.419,5.417-5.419C144.097,353.294,146.521,355.721,146.521,358.713z" fill="#3F456B"/></g></g><g><g><path d="M99.692,358.713c0,2.992-2.424,5.418-5.418,5.418c-2.991,0-5.417-2.426-5.417-5.418       c0-2.992,2.426-5.419,5.417-5.419C97.268,353.294,99.692,355.721,99.692,358.713z" fill="#3F456B"/></g></g><g><g><path d="M52.862,358.713c0,2.992-2.424,5.418-5.418,5.418c-2.991,0-5.417-2.426-5.417-5.418       c0-2.992,2.426-5.419,5.417-5.419C50.438,353.294,52.862,355.721,52.862,358.713z" fill="#3F456B"/></g></g><g><g><path d="M474.326,358.713c0,2.992-2.424,5.418-5.418,5.418c-2.992,0-5.418-2.426-5.418-5.418       c0-2.992,2.426-5.419,5.418-5.419C471.902,353.294,474.326,355.721,474.326,358.713z" fill="#3F456B"/></g></g></g><g><g><g><path d="M380.668,303.713c0,2.992-2.424,5.418-5.418,5.418c-2.992,0-5.418-2.426-5.418-5.418       c0-2.992,2.426-5.419,5.418-5.419C378.244,298.294,380.668,300.721,380.668,303.713z" fill="#3F456B"/></g></g><g><g><path d="M427.497,303.713c0,2.992-2.424,5.418-5.418,5.418c-2.992,0-5.418-2.426-5.418-5.418       c0-2.992,2.426-5.419,5.418-5.419C425.073,298.294,427.497,300.721,427.497,303.713z" fill="#3F456B"/></g></g><g><g><path d="M146.521,303.713c0,2.992-2.424,5.418-5.418,5.418c-2.991,0-5.417-2.426-5.417-5.418       c0-2.992,2.426-5.419,5.417-5.419C144.097,298.294,146.521,300.721,146.521,303.713z" fill="#3F456B"/></g></g><g><g><path d="M99.692,303.713c0,2.992-2.424,5.418-5.418,5.418c-2.991,0-5.417-2.426-5.417-5.418       c0-2.992,2.426-5.419,5.417-5.419C97.268,298.294,99.692,300.721,99.692,303.713z" fill="#3F456B"/></g></g><g><g><path d="M52.862,303.713c0,2.992-2.424,5.418-5.418,5.418c-2.991,0-5.417-2.426-5.417-5.418       c0-2.992,2.426-5.419,5.417-5.419C50.438,298.294,52.862,300.721,52.862,303.713z" fill="#3F456B"/></g></g><g><g><path d="M474.326,303.713c0,2.992-2.424,5.418-5.418,5.418c-2.992,0-5.418-2.426-5.418-5.418       c0-2.992,2.426-5.419,5.418-5.419C471.902,298.294,474.326,300.721,474.326,303.713z" fill="#3F456B"/></g></g></g><g><g><g><path d="M380.668,248.713c0,2.992-2.424,5.418-5.418,5.418c-2.992,0-5.418-2.426-5.418-5.418       c0-2.992,2.426-5.419,5.418-5.419C378.244,243.294,380.668,245.721,380.668,248.713z" fill="#3F456B"/></g></g><g><g><path d="M427.497,248.713c0,2.992-2.424,5.418-5.418,5.418c-2.992,0-5.418-2.426-5.418-5.418       c0-2.992,2.426-5.419,5.418-5.419C425.073,243.294,427.497,245.721,427.497,248.713z" fill="#3F456B"/></g></g><g><g><path d="M146.521,248.713c0,2.992-2.424,5.418-5.418,5.418c-2.991,0-5.417-2.426-5.417-5.418       c0-2.992,2.426-5.419,5.417-5.419C144.097,243.294,146.521,245.721,146.521,248.713z" fill="#3F456B"/></g></g><g><g><path d="M99.692,248.713c0,2.992-2.424,5.418-5.418,5.418c-2.991,0-5.417-2.426-5.417-5.418       c0-2.992,2.426-5.419,5.417-5.419C97.268,243.294,99.692,245.721,99.692,248.713z" fill="#3F456B"/></g></g><g><g><path d="M52.862,248.713c0,2.992-2.424,5.418-5.418,5.418c-2.991,0-5.417-2.426-5.417-5.418       c0-2.992,2.426-5.419,5.417-5.419C50.438,243.294,52.862,245.721,52.862,248.713z" fill="#3F456B"/></g></g><g><g><path d="M474.326,248.713c0,2.992-2.424,5.418-5.418,5.418c-2.992,0-5.418-2.426-5.418-5.418       c0-2.992,2.426-5.419,5.418-5.419C471.902,243.294,474.326,245.721,474.326,248.713z" fill="#3F456B"/></g></g></g><g><g><g><path d="M263.18,331.213c0,2.992-2.424,5.418-5.418,5.418c-2.991,0-5.418-2.426-5.418-5.418       c0-2.992,2.427-5.419,5.418-5.419C260.756,325.794,263.18,328.221,263.18,331.213z" fill="#3F456B"/></g></g><g><g><path d="M216.35,331.213c0,2.992-2.424,5.418-5.419,5.418c-2.99,0-5.416-2.426-5.416-5.418       c0-2.992,2.426-5.419,5.416-5.419C213.926,325.794,216.35,328.221,216.35,331.213z" fill="#3F456B"/></g></g><g><g><path d="M310.009,331.213c0,2.992-2.424,5.418-5.418,5.418c-2.992,0-5.418-2.426-5.418-5.418       c0-2.992,2.426-5.419,5.418-5.419C307.585,325.794,310.009,328.221,310.009,331.213z" fill="#3F456B"/></g></g><g><g><path d="M356.838,331.213c0,2.992-2.425,5.418-5.417,5.418c-2.992,0-5.418-2.426-5.418-5.418       c0-2.992,2.426-5.419,5.418-5.419C354.413,325.794,356.838,328.221,356.838,331.213z" fill="#3F456B"/></g></g><g><g><path d="M403.668,331.213c0,2.992-2.424,5.418-5.418,5.418c-2.992,0-5.418-2.426-5.418-5.418       c0-2.992,2.426-5.419,5.418-5.419C401.244,325.794,403.668,328.221,403.668,331.213z" fill="#3F456B"/></g></g><g><g><path d="M450.497,331.213c0,2.992-2.424,5.418-5.418,5.418c-2.992,0-5.418-2.426-5.418-5.418       c0-2.992,2.426-5.419,5.418-5.419C448.073,325.794,450.497,328.221,450.497,331.213z" fill="#3F456B"/></g></g><g><g><path d="M169.521,331.213c0,2.992-2.424,5.418-5.418,5.418c-2.991,0-5.417-2.426-5.417-5.418       c0-2.992,2.426-5.419,5.417-5.419C167.097,325.794,169.521,328.221,169.521,331.213z" fill="#3F456B"/></g></g><g><g><path d="M122.692,331.213c0,2.992-2.424,5.418-5.418,5.418c-2.991,0-5.417-2.426-5.417-5.418       c0-2.992,2.426-5.419,5.417-5.419C120.268,325.794,122.692,328.221,122.692,331.213z" fill="#3F456B"/></g></g><g><g><path d="M75.862,331.213c0,2.992-2.424,5.418-5.418,5.418c-2.991,0-5.417-2.426-5.417-5.418       c0-2.992,2.426-5.419,5.417-5.419C73.438,325.794,75.862,328.221,75.862,331.213z" fill="#3F456B"/></g></g></g><g><g><g><path d="M403.668,276.213c0,2.992-2.424,5.418-5.418,5.418c-2.992,0-5.418-2.426-5.418-5.418       c0-2.992,2.426-5.419,5.418-5.419C401.244,270.794,403.668,273.221,403.668,276.213z" fill="#3F456B"/></g></g><g><g><path d="M450.497,276.213c0,2.992-2.424,5.418-5.418,5.418c-2.992,0-5.418-2.426-5.418-5.418       c0-2.992,2.426-5.419,5.418-5.419C448.073,270.794,450.497,273.221,450.497,276.213z" fill="#3F456B"/></g></g><g><g><path d="M122.692,276.213c0,2.992-2.424,5.418-5.418,5.418c-2.991,0-5.417-2.426-5.417-5.418       c0-2.992,2.426-5.419,5.417-5.419C120.268,270.794,122.692,273.221,122.692,276.213z" fill="#3F456B"/></g></g><g><g><path d="M75.862,276.213c0,2.992-2.424,5.418-5.418,5.418c-2.991,0-5.417-2.426-5.417-5.418       c0-2.992,2.426-5.419,5.417-5.419C73.438,270.794,75.862,273.221,75.862,276.213z" fill="#3F456B"/></g></g></g><g><g><g><path d="M380.668,413.713c0,2.992-2.424,5.418-5.418,5.418c-2.992,0-5.418-2.426-5.418-5.418       c0-2.992,2.426-5.419,5.418-5.419C378.244,408.294,380.668,410.721,380.668,413.713z" fill="#3F456B"/></g></g><g><g><path d="M427.497,413.713c0,2.992-2.424,5.418-5.418,5.418c-2.992,0-5.418-2.426-5.418-5.418       c0-2.992,2.426-5.419,5.418-5.419C425.073,408.294,427.497,410.721,427.497,413.713z" fill="#3F456B"/></g></g><g><g><path d="M146.521,413.713c0,2.992-2.424,5.418-5.418,5.418c-2.991,0-5.417-2.426-5.417-5.418       c0-2.992,2.426-5.419,5.417-5.419C144.097,408.294,146.521,410.721,146.521,413.713z" fill="#3F456B"/></g></g><g><g><path d="M99.692,413.713c0,2.992-2.424,5.418-5.418,5.418c-2.991,0-5.417-2.426-5.417-5.418       c0-2.992,2.426-5.419,5.417-5.419C97.268,408.294,99.692,410.721,99.692,413.713z" fill="#3F456B"/></g></g><g><g><path d="M52.862,413.713c0,2.992-2.424,5.418-5.418,5.418c-2.991,0-5.417-2.426-5.417-5.418       c0-2.992,2.426-5.419,5.417-5.419C50.438,408.294,52.862,410.721,52.862,413.713z" fill="#3F456B"/></g></g><g><g><path d="M474.326,413.713c0,2.992-2.424,5.418-5.418,5.418c-2.992,0-5.418-2.426-5.418-5.418       c0-2.992,2.426-5.419,5.418-5.419C471.902,408.294,474.326,410.721,474.326,413.713z" fill="#3F456B"/></g></g></g><g><g><g><path d="M403.668,386.213c0,2.992-2.424,5.418-5.418,5.418c-2.992,0-5.418-2.426-5.418-5.418       c0-2.992,2.426-5.419,5.418-5.419C401.244,380.794,403.668,383.221,403.668,386.213z" fill="#3F456B"/></g></g><g><g><path d="M450.497,386.213c0,2.992-2.424,5.418-5.418,5.418c-2.992,0-5.418-2.426-5.418-5.418       c0-2.992,2.426-5.419,5.418-5.419C448.073,380.794,450.497,383.221,450.497,386.213z" fill="#3F456B"/></g></g><g><g><path d="M169.521,386.213c0,2.992-2.424,5.418-5.418,5.418c-2.991,0-5.417-2.426-5.417-5.418       c0-2.992,2.426-5.419,5.417-5.419C167.097,380.794,169.521,383.221,169.521,386.213z" fill="#3F456B"/></g></g><g><g><path d="M122.692,386.213c0,2.992-2.424,5.418-5.418,5.418c-2.991,0-5.417-2.426-5.417-5.418       c0-2.992,2.426-5.419,5.417-5.419C120.268,380.794,122.692,383.221,122.692,386.213z" fill="#3F456B"/></g></g><g><g><path d="M75.862,386.213c0,2.992-2.424,5.418-5.418,5.418c-2.991,0-5.417-2.426-5.417-5.418       c0-2.992,2.426-5.419,5.417-5.419C73.438,380.794,75.862,383.221,75.862,386.213z" fill="#3F456B"/></g></g></g><g><g><g><path d="M240.18,468.713c0,2.992-2.424,5.418-5.418,5.418c-2.991,0-5.418-2.426-5.418-5.418       c0-2.992,2.427-5.419,5.418-5.419C237.756,463.294,240.18,465.721,240.18,468.713z" fill="#3F456B"/></g></g><g><g><path d="M193.35,468.713c0,2.992-2.424,5.418-5.419,5.418c-2.99,0-5.416-2.426-5.416-5.418       c0-2.992,2.426-5.419,5.416-5.419C190.926,463.294,193.35,465.721,193.35,468.713z" fill="#3F456B"/></g></g><g><g><path d="M287.009,468.713c0,2.992-2.424,5.418-5.418,5.418c-2.992,0-5.418-2.426-5.418-5.418       c0-2.992,2.426-5.419,5.418-5.419C284.585,463.294,287.009,465.721,287.009,468.713z" fill="#3F456B"/></g></g><g><g><path d="M333.838,468.713c0,2.992-2.425,5.418-5.417,5.418c-2.992,0-5.418-2.426-5.418-5.418       c0-2.992,2.426-5.419,5.418-5.419C331.413,463.294,333.838,465.721,333.838,468.713z" fill="#3F456B"/></g></g><g><g><path d="M380.668,468.713c0,2.992-2.424,5.418-5.418,5.418c-2.992,0-5.418-2.426-5.418-5.418       c0-2.992,2.426-5.419,5.418-5.419C378.244,463.294,380.668,465.721,380.668,468.713z" fill="#3F456B"/></g></g><g><g><path d="M427.497,468.713c0,2.992-2.424,5.418-5.418,5.418c-2.992,0-5.418-2.426-5.418-5.418       c0-2.992,2.426-5.419,5.418-5.419C425.073,463.294,427.497,465.721,427.497,468.713z" fill="#3F456B"/></g></g><g><g><path d="M146.521,468.713c0,2.992-2.424,5.418-5.418,5.418c-2.991,0-5.417-2.426-5.417-5.418       c0-2.992,2.426-5.419,5.417-5.419C144.097,463.294,146.521,465.721,146.521,468.713z" fill="#3F456B"/></g></g><g><g><path d="M99.692,468.713c0,2.992-2.424,5.418-5.418,5.418c-2.991,0-5.417-2.426-5.417-5.418       c0-2.992,2.426-5.419,5.417-5.419C97.268,463.294,99.692,465.721,99.692,468.713z" fill="#3F456B"/></g></g><g><g><path d="M52.862,468.713c0,2.992-2.424,5.418-5.418,5.418c-2.991,0-5.417-2.426-5.417-5.418       c0-2.992,2.426-5.419,5.417-5.419C50.438,463.294,52.862,465.721,52.862,468.713z" fill="#3F456B"/></g></g><g><g><path d="M474.326,468.713c0,2.992-2.424,5.418-5.418,5.418c-2.992,0-5.418-2.426-5.418-5.418       c0-2.992,2.426-5.419,5.418-5.419C471.902,463.294,474.326,465.721,474.326,468.713z" fill="#3F456B"/></g></g></g><g><g><g><path d="M310.009,441.213c0,2.992-2.424,5.418-5.418,5.418c-2.992,0-5.418-2.426-5.418-5.418       c0-2.992,2.426-5.419,5.418-5.419C307.585,435.794,310.009,438.221,310.009,441.213z" fill="#3F456B"/></g></g><g><g><path d="M356.838,441.213c0,2.992-2.425,5.418-5.417,5.418c-2.992,0-5.418-2.426-5.418-5.418       c0-2.992,2.426-5.419,5.418-5.419C354.413,435.794,356.838,438.221,356.838,441.213z" fill="#3F456B"/></g></g><g><g><path d="M403.668,441.213c0,2.992-2.424,5.418-5.418,5.418c-2.992,0-5.418-2.426-5.418-5.418       c0-2.992,2.426-5.419,5.418-5.419C401.244,435.794,403.668,438.221,403.668,441.213z" fill="#3F456B"/></g></g><g><g><path d="M450.497,441.213c0,2.992-2.424,5.418-5.418,5.418c-2.992,0-5.418-2.426-5.418-5.418       c0-2.992,2.426-5.419,5.418-5.419C448.073,435.794,450.497,438.221,450.497,441.213z" fill="#3F456B"/></g></g><g><g><path d="M169.521,441.213c0,2.992-2.424,5.418-5.418,5.418c-2.991,0-5.417-2.426-5.417-5.418       c0-2.992,2.426-5.419,5.417-5.419C167.097,435.794,169.521,438.221,169.521,441.213z" fill="#3F456B"/></g></g><g><g><path d="M122.692,441.213c0,2.992-2.424,5.418-5.418,5.418c-2.991,0-5.417-2.426-5.417-5.418       c0-2.992,2.426-5.419,5.417-5.419C120.268,435.794,122.692,438.221,122.692,441.213z" fill="#3F456B"/></g></g><g><g><path d="M75.862,441.213c0,2.992-2.424,5.418-5.418,5.418c-2.991,0-5.417-2.426-5.417-5.418       c0-2.992,2.426-5.419,5.417-5.419C73.438,435.794,75.862,438.221,75.862,441.213z" fill="#3F456B"/></g></g></g><g><g><g><path d="M310.009,221.213c0,2.992-2.424,5.418-5.418,5.418c-2.992,0-5.418-2.426-5.418-5.418       c0-2.992,2.426-5.419,5.418-5.419C307.585,215.794,310.009,218.221,310.009,221.213z" fill="#3F456B"/></g></g><g><g><path d="M356.838,221.213c0,2.992-2.425,5.418-5.417,5.418c-2.992,0-5.418-2.426-5.418-5.418       c0-2.992,2.426-5.419,5.418-5.419C354.413,215.794,356.838,218.221,356.838,221.213z" fill="#3F456B"/></g></g><g><g><path d="M403.668,221.213c0,2.992-2.424,5.418-5.418,5.418c-2.992,0-5.418-2.426-5.418-5.418       c0-2.992,2.426-5.419,5.418-5.419C401.244,215.794,403.668,218.221,403.668,221.213z" fill="#3F456B"/></g></g><g><g><path d="M450.497,221.213c0,2.992-2.424,5.418-5.418,5.418c-2.992,0-5.418-2.426-5.418-5.418       c0-2.992,2.426-5.419,5.418-5.419C448.073,215.794,450.497,218.221,450.497,221.213z" fill="#3F456B"/></g></g><g><g><path d="M169.521,221.213c0,2.992-2.424,5.418-5.418,5.418c-2.991,0-5.417-2.426-5.417-5.418       c0-2.992,2.426-5.419,5.417-5.419C167.097,215.794,169.521,218.221,169.521,221.213z" fill="#3F456B"/></g></g><g><g><path d="M122.692,221.213c0,2.992-2.424,5.418-5.418,5.418c-2.991,0-5.417-2.426-5.417-5.418       c0-2.992,2.426-5.419,5.417-5.419C120.268,215.794,122.692,218.221,122.692,221.213z" fill="#3F456B"/></g></g><g><g><path d="M75.862,221.213c0,2.992-2.424,5.418-5.418,5.418c-2.991,0-5.417-2.426-5.417-5.418       c0-2.992,2.426-5.419,5.417-5.419C73.438,215.794,75.862,218.221,75.862,221.213z" fill="#3F456B"/></g></g></g><g><g><g><path d="M240.18,193.713c0,2.992-2.424,5.418-5.418,5.418c-2.991,0-5.418-2.426-5.418-5.418       c0-2.992,2.427-5.419,5.418-5.419C237.756,188.294,240.18,190.721,240.18,193.713z" fill="#3F456B"/></g></g><g><g><path d="M193.35,193.713c0,2.992-2.424,5.418-5.419,5.418c-2.99,0-5.416-2.426-5.416-5.418       c0-2.992,2.426-5.419,5.416-5.419C190.926,188.294,193.35,190.721,193.35,193.713z" fill="#3F456B"/></g></g><g><g><path d="M287.009,193.713c0,2.992-2.424,5.418-5.418,5.418c-2.992,0-5.418-2.426-5.418-5.418       c0-2.992,2.426-5.419,5.418-5.419C284.585,188.294,287.009,190.721,287.009,193.713z" fill="#3F456B"/></g></g><g><g><path d="M333.838,193.713c0,2.992-2.425,5.418-5.417,5.418c-2.992,0-5.418-2.426-5.418-5.418       c0-2.992,2.426-5.419,5.418-5.419C331.413,188.294,333.838,190.721,333.838,193.713z" fill="#3F456B"/></g></g><g><g><path d="M380.668,193.713c0,2.992-2.424,5.418-5.418,5.418c-2.992,0-5.418-2.426-5.418-5.418       c0-2.992,2.426-5.419,5.418-5.419C378.244,188.294,380.668,190.721,380.668,193.713z" fill="#3F456B"/></g></g><g><g><path d="M427.497,193.713c0,2.992-2.424,5.418-5.418,5.418c-2.992,0-5.418-2.426-5.418-5.418       c0-2.992,2.426-5.419,5.418-5.419C425.073,188.294,427.497,190.721,427.497,193.713z" fill="#3F456B"/></g></g><g><g><path d="M474.326,193.713c0,2.992-2.424,5.418-5.418,5.418c-2.992,0-5.418-2.426-5.418-5.418       c0-2.992,2.426-5.419,5.418-5.419C471.902,188.294,474.326,190.721,474.326,193.713z" fill="#3F456B"/></g></g><g><g><path d="M146.521,193.713c0,2.992-2.424,5.418-5.418,5.418c-2.991,0-5.417-2.426-5.417-5.418       c0-2.992,2.426-5.419,5.417-5.419C144.097,188.294,146.521,190.721,146.521,193.713z" fill="#3F456B"/></g></g><g><g><path d="M99.692,193.713c0,2.992-2.424,5.418-5.418,5.418c-2.991,0-5.417-2.426-5.417-5.418       c0-2.992,2.426-5.419,5.417-5.419C97.268,188.294,99.692,190.721,99.692,193.713z" fill="#3F456B"/></g></g><g><g><path d="M52.862,193.713c0,2.992-2.424,5.418-5.418,5.418c-2.991,0-5.417-2.426-5.417-5.418       c0-2.992,2.426-5.419,5.417-5.419C50.438,188.294,52.862,190.721,52.862,193.713z" fill="#3F456B"/></g></g></g></g></g><g id="Lines"><g><g><path d="M235.101,443.974c-17.351,0-31.05-4.554-40.845-13.604c-11.046-10.201-17.786-30.032-15.347-45.147     c3.471-21.49,19.59-33.133,46.616-33.668l0,0c19.527-0.383,38.903,5.22,46.313,7.648l2.27,0.75     c10.84,3.594,21.077,6.99,30.542,2.263c14.31-7.145,38.259-19.104,56.668-0.772c10.538,10.496,13.714,26.576,7.902,40.014     c-5.327,12.319-16.906,19.525-34.415,21.417c-2.021,0.218-4.023,0.424-6.01,0.627c-12.78,1.311-24.852,2.549-37.01,6.823     c-2.884,1.014-5.827,2.108-8.675,3.166c-10.627,3.949-21.616,8.032-33.38,9.515C244.6,443.65,239.72,443.974,235.101,443.974z      M225.724,361.552c-21.876,0.434-34.305,8.934-36.941,25.265c-1.929,11.941,3.571,28.185,12.259,36.208     c10.279,9.497,25.797,12.786,47.44,10.058c10.615-1.338,20.589-5.043,31.147-8.967c2.888-1.073,5.874-2.182,8.841-3.226     c13.276-4.667,25.92-5.964,39.306-7.337c1.969-0.202,3.953-0.406,5.956-0.622c13.857-1.497,22.464-6.549,26.312-15.444     c4.194-9.7,1.871-21.337-5.781-28.958c-12.296-12.245-28.371-5.742-45.145,2.634c-13.158,6.569-26.439,2.167-38.156-1.719     l-2.237-0.739C261.799,366.435,243.738,361.195,225.724,361.552L225.724,361.552z" fill="#3F456B"/></g></g><g><g><path d="M201.377,309.597c-0.515,0-1.027-0.004-1.542-0.013c-15.041-0.257-26.84-4.216-35.07-11.766     c-8.412-7.716-12.869-19.007-12.55-31.794c0.289-11.604,4.518-23.21,11.6-31.841c7.298-8.895,18.48-14.445,33.236-16.496     c13.701-1.904,27.155-0.354,36.032,1.28c10.297,1.897,18.508,5.244,26.448,8.48c7.099,2.893,13.802,5.625,22.085,7.501     c4.246,0.962,9.745,1.403,15.567,1.871c14.846,1.192,31.673,2.542,40.692,13.202c11.731,13.87,11.954,32.961,0.541,46.428     c-7.701,9.087-16.857,12.154-25.887,12.155c-13.022,0.001-25.786-6.374-33.58-10.265c-9.737-4.861-20.365-1.25-31.618,2.574     c-2.394,0.813-4.869,1.655-7.293,2.389C232.167,305.687,216.888,309.597,201.377,309.597z M210.125,226.84     c-13.571,0-29.57,2.705-38.58,13.686c-11.059,13.478-13.787,37.295-0.021,49.923c6.376,5.849,15.958,8.923,28.48,9.137l0,0     c14.689,0.247,29.562-3.56,37.136-5.853c2.264-0.686,4.552-1.463,6.974-2.287c12.108-4.114,25.831-8.778,39.303-2.053     c27.916,13.939,39.127,10.318,47.371,0.592c8.319-9.817,8.1-23.281-0.547-33.504c-6.331-7.483-20.955-8.657-33.858-9.692     c-6.188-0.497-12.033-0.966-16.976-2.086c-9.086-2.059-16.489-5.076-23.649-7.994c-7.817-3.186-15.2-6.195-24.487-7.906     C227.181,228.048,219.194,226.84,210.125,226.84z" fill="#3F456B"/></g></g><g><g><g><path d="M256.272,79.447c-0.08,0-0.159,0-0.239-0.001c-4.913-0.055-9.54-1.846-13.026-5.042      c-3.639-3.336-5.612-7.783-5.559-12.523c0.054-4.738,2.128-9.139,5.841-12.392c3.558-3.117,8.221-4.801,13.137-4.747      c4.914,0.055,9.539,1.846,13.025,5.042c3.637,3.336,5.611,7.783,5.558,12.522s-2.128,9.141-5.84,12.393      C265.67,77.767,261.099,79.447,256.272,79.447z M256.19,54.741c-2.401,0-4.639,0.803-6.312,2.27      c-1.547,1.355-2.41,3.125-2.431,4.984c-0.021,1.86,0.801,3.649,2.316,5.038c1.668,1.529,3.935,2.386,6.383,2.414      c2.414,0.019,4.731-0.777,6.432-2.268c1.546-1.354,2.409-3.125,2.43-4.985c0.021-1.86-0.802-3.649-2.316-5.039      c-1.667-1.529-3.933-2.386-6.38-2.414C256.271,54.741,256.23,54.741,256.19,54.741z" fill="#3F456B"/></g></g><g><g><path d="M255.962,110.33c-0.094,0-0.187,0-0.28-0.002c-12.254-0.139-22.12-9.421-21.994-20.692      c0.128-11.271,10.166-20.307,22.46-20.188c5.834,0.066,11.321,2.188,15.45,5.976c4.281,3.926,6.604,9.152,6.541,14.716l0,0      c-0.062,5.564-2.503,10.737-6.872,14.565C267.119,108.337,261.694,110.33,255.962,110.33z M255.87,79.445      c-6.669,0-12.118,4.593-12.183,10.303c-0.064,5.757,5.366,10.504,12.107,10.581c3.417,0.027,6.523-1.08,8.881-3.146      c2.203-1.931,3.433-4.472,3.463-7.157c0,0,0,0,0-0.001c0.031-2.684-1.141-5.253-3.3-7.233c-2.312-2.12-5.438-3.308-8.805-3.346      C255.979,79.445,255.925,79.445,255.87,79.445z" fill="#3F456B"/></g></g></g><g><g><path d="M421.277,110.56c-0.58,0-1.169-0.102-1.744-0.316c-2.588-0.964-3.904-3.843-2.94-6.431L433.658,58H407     c-2.762,0-5-2.239-5-5s2.238-5,5-5h33.856c1.638,0,3.172,0.802,4.106,2.147s1.15,3.063,0.579,4.598l-19.578,52.559     C425.214,109.316,423.306,110.56,421.277,110.56z" fill="#3F456B"/></g></g><g><g><g><g><path d="M91.943,84.655c-0.462,0-0.925-0.014-1.39-0.042C78.88,83.907,69.923,74.402,70.586,63.425v0       c0.665-10.976,10.691-19.342,22.378-18.625c5.58,0.338,10.723,2.678,14.48,6.588c3.866,4.021,5.814,9.208,5.487,14.602       c-0.326,5.393-2.886,10.306-7.208,13.832C101.871,82.963,97.022,84.655,91.943,84.655z M80.568,64.028       c-0.331,5.473,4.419,10.229,10.589,10.603c3.067,0.182,5.994-0.724,8.245-2.56c2.132-1.739,3.392-4.114,3.547-6.687       c0.156-2.575-0.808-5.084-2.714-7.068c-2.014-2.094-4.811-3.35-7.876-3.536C86.187,54.403,80.899,58.556,80.568,64.028       L80.568,64.028z" fill="#3F456B"/></g></g></g><g><g><g><path d="M91.853,110.567c-0.383,0-0.763-0.011-1.141-0.034c-10.525-0.636-18.038-6.721-20.095-16.276       c-0.581-2.7,1.136-5.359,3.835-5.94c2.707-0.58,5.359,1.136,5.94,3.836c1.12,5.203,4.796,8.029,10.924,8.399       c3.034,0.182,7.127-1.315,8.913-3.275c4.009-4.391,3.836-12.533,3.709-18.478l-0.015-0.717       c-0.069-3.489-0.142-7.097-0.688-12.605c-0.272-2.748,1.734-5.196,4.482-5.468c2.755-0.272,5.196,1.735,5.469,4.483       c0.584,5.899,0.661,9.707,0.734,13.39l0.015,0.708c0.153,7.199,0.385,18.083-6.319,25.426       C104.021,107.963,97.677,110.567,91.853,110.567z" fill="#3F456B"/></g></g></g></g><g><g><g><path d="M257,166c-2.762,0-5-2.239-5-5v-23c0-2.761,2.238-5,5-5s5,2.239,5,5v23C262,163.761,259.762,166,257,166      z" fill="#3F456B"/></g></g><g><g><path d="M423,166c-2.762,0-5-2.239-5-5v-23c0-2.761,2.238-5,5-5s5,2.239,5,5v23C428,163.761,425.762,166,423,166      z" fill="#3F456B"/></g></g><g><g><path d="M91,166c-2.762,0-5-2.239-5-5v-23c0-2.761,2.238-5,5-5s5,2.239,5,5v23C96,163.761,93.762,166,91,166z" fill="#3F456B"/></g></g><g><g><path d="M174,166c-2.762,0-5-2.239-5-5v-23c0-2.761,2.238-5,5-5s5,2.239,5,5v23C179,163.761,176.762,166,174,166      z" fill="#3F456B"/></g></g><g><g><path d="M340,166c-2.762,0-5-2.239-5-5v-23c0-2.761,2.238-5,5-5s5,2.239,5,5v23C345,163.761,342.762,166,340,166      z" fill="#3F456B"/></g></g></g><g><g><path d="M496,500H16c-2.762,0-5-2.239-5-5V161c0-2.761,2.238-5,5-5h480c2.762,0,5,2.239,5,5v334     C501,497.761,498.762,500,496,500z M21,490h470V166H21V490z" fill="#3F456B"/></g></g><g><g><path d="M496,166H16c-2.762,0-5-2.239-5-5V18c0-2.761,2.238-5,5-5h480c2.762,0,5,2.239,5,5v143     C501,163.761,498.762,166,496,166z M21,156h470V23H21V156z" fill="#3F456B"/></g></g></g></svg>