<?xml version="1.0" ?><svg viewBox="0 0 512 512" xmlns="http://www.w3.org/2000/svg"><defs><style>.cls-1{fill:#3f456b;}</style></defs><title/><g id="Lines"><path class="cls-1" d="M490.34,501.34c-10.53,0-30.14-2.13-43.57-16.34H66.23c-18.75,19.84-49.53,16.13-50.87,16A5,5,0,0,1,11,496V129.33a5,5,0,0,1,4.36-5c1.34-.17,32.12-3.88,50.87,16H96.5a5,5,0,0,1,0,10H64a5,5,0,0,1-3.81-1.77C48.75,135.11,29.58,133.86,21,134V491.3c8.56.19,27.75-1.08,39.19-14.54A5,5,0,0,1,64,475H449a5,5,0,0,1,3.81,1.76c11.44,13.46,30.61,14.71,39.19,14.54V134c-8.56-.19-27.75,1.07-39.19,14.53a5,5,0,0,1-3.81,1.77H416.08a5,5,0,0,1,0-10h30.69c18.75-19.84,49.53-16.13,50.87-16a5,5,0,0,1,4.36,5V496a5,5,0,0,1-4.36,5A61.33,61.33,0,0,1,490.34,501.34Z"/><path class="cls-1" d="M370,406H142a35,35,0,0,1-35-35V254a35.13,35.13,0,0,1,11.21-25.63A5,5,0,0,1,125,235.7a25.07,25.07,0,0,0-8,18.3V371a25,25,0,0,0,25,25H370a25,25,0,0,0,25-25V254a24.75,24.75,0,0,0-7.67-18,5,5,0,0,1,6.95-7.2A34.72,34.72,0,0,1,405,254V371A35,35,0,0,1,370,406Z"/><path class="cls-1" d="M369,318H143a5,5,0,0,1,0-10H369a5,5,0,0,1,0,10Z"/><path class="cls-1" d="M319.39,40.72c-10.92,0-23.53-2.78-36.64-11.25-26.2-16.93-52-.2-52.23,0s-.26.16-.4.24L227.7,31c-4.34,2.76-36.17,21.34-71.52-1.51-12.31-7.95-27.69-9.65-42.2-4.67a90.63,90.63,0,0,0-10.25,4.5c-3.09,1.51-6.29,3.07-9.67,4.36-3.76,1.43-7.43,2.65-10.89,3.64a5,5,0,0,1-2.75-9.62c3.2-.91,6.59-2,10.08-3.37,3-1.13,5.82-2.52,8.85-4a100.57,100.57,0,0,1,11.39-5c17.43-6,36-3.89,50.87,5.74,30.61,19.78,57.84,3.33,60.84,1.39l.35-.2,2.4-1.3c3-1.94,32.37-19.68,63,.11A56.52,56.52,0,0,0,349,22.52l1.91-1.34.1-.07c1.27-.84,31.55-20.48,63.19,0,6.59,4.26,11.43,6.08,18.47,7A5,5,0,0,1,431.38,38c-8.5-1.06-14.85-3.44-22.66-8.49-25.75-16.64-51.08-.76-52.19,0l-1.93,1.35-.15.1A68.18,68.18,0,0,1,319.39,40.72Z"/><path class="cls-1" d="M160.5,317.5a5,5,0,0,1-4.33-2.5c-38.3-66.36-58.33-139.41-68.38-189C76.9,72.28,75,33.61,75,33.23a5,5,0,0,1,10-.46c0,.38,1.87,38.43,12.63,91.43,9.91,48.81,29.61,120.67,67.2,185.8a5,5,0,0,1-1.83,6.83A4.94,4.94,0,0,1,160.5,317.5Z"/><path class="cls-1" d="M352,317.5a4.94,4.94,0,0,1-2.5-.67,5,5,0,0,1-1.83-6.83C419.73,185.16,427.44,34.28,427.5,32.77a5,5,0,0,1,10,.46c0,.38-1.9,39.05-12.79,92.76-10,49.6-30.08,122.65-68.38,189A5,5,0,0,1,352,317.5Z"/><path class="cls-1" d="M224.5,318a5,5,0,0,1-4.74-3.41C191.36,229.89,187,130.2,187,129.2a5,5,0,0,1,10-.4c0,1,4.31,99.29,32.24,182.61a5,5,0,0,1-3.15,6.33A4.9,4.9,0,0,1,224.5,318Z"/><path class="cls-1" d="M288,318a4.9,4.9,0,0,1-1.59-.26,5,5,0,0,1-3.15-6.33c27.95-83.36,32.2-181.63,32.24-182.61a5,5,0,0,1,10,.4c0,1-4.36,100.69-32.76,185.39A5,5,0,0,1,288,318Z"/><path class="cls-1" d="M260.35,376.44a28.67,28.67,0,0,1-6.67-.79c-5.81-1.39-10.47-4.68-14.59-7.58-5.07-3.56-9.44-6.64-15.16-6.19-8.09.64-12.94,7.58-15.12,11.66a5,5,0,1,1-8.82-4.7c5.33-10,13.77-16.19,23.15-16.93s15.9,3.9,21.7,8c3.72,2.61,7.22,5.08,11.17,6a18.64,18.64,0,0,0,8.39.13,24.69,24.69,0,0,1-2-2c-4.92-5.43-6.47-12.22-4.25-18.62,2.7-7.78,8.54-12.9,15.62-13.68A15.92,15.92,0,0,1,289.1,339c3.75,6.07,3,14.06-2.08,21.95a37.66,37.66,0,0,1-2.55,3.49,51.9,51.9,0,0,0,21.15-1,5,5,0,0,1,2.32,9.73c-13.32,3.19-24.38,2.07-32.61-.94A29.84,29.84,0,0,1,260.35,376.44Zm15.25-34.76c-.24,0-.48,0-.72,0-3.2.36-5.85,2.92-7.28,7-1,3-.28,5.87,2.22,8.63a18.8,18.8,0,0,0,4.35,3.45,26.57,26.57,0,0,0,4.44-5.26c2.9-4.51,3.63-8.61,2-11.26A5.84,5.84,0,0,0,275.6,341.68Z"/><path class="cls-1" d="M343,441h-1a5,5,0,0,1,0-10h1a5,5,0,0,1,0,10Zm-21,0h-1a5,5,0,0,1,0-10h1a5,5,0,0,1,0,10Zm-21,0h-1a5,5,0,0,1,0-10h1a5,5,0,0,1,0,10Zm-21,0h-1a5,5,0,0,1,0-10h1a5,5,0,0,1,0,10Zm-21,0h-1a5,5,0,0,1,0-10h1a5,5,0,0,1,0,10Zm-21,0h-1a5,5,0,0,1,0-10h1a5,5,0,0,1,0,10Zm-21,0h-1a5,5,0,0,1,0-10h1a5,5,0,0,1,0,10Zm-21,0h-1a5,5,0,0,1,0-10h1a5,5,0,0,1,0,10Zm-21,0h-1a5,5,0,0,1,0-10h1a5,5,0,0,1,0,10Z"/></g><g id="Outline"><path class="cls-1" d="M64,485a5,5,0,0,1-5-5v-3a5,5,0,0,1,10,0v3A5,5,0,0,1,64,485Zm0-23a5,5,0,0,1-5-5v-3a5,5,0,0,1,10,0v3A5,5,0,0,1,64,462Zm0-23a5,5,0,0,1-5-5v-3a5,5,0,0,1,10,0v3A5,5,0,0,1,64,439Zm0-23a5,5,0,0,1-5-5v-3a5,5,0,0,1,10,0v3A5,5,0,0,1,64,416Zm0-23a5,5,0,0,1-5-5v-3a5,5,0,0,1,10,0v3A5,5,0,0,1,64,393Zm0-23a5,5,0,0,1-5-5v-3a5,5,0,0,1,10,0v3A5,5,0,0,1,64,370Zm0-23a5,5,0,0,1-5-5v-3a5,5,0,0,1,10,0v3A5,5,0,0,1,64,347Zm0-23a5,5,0,0,1-5-5v-3a5,5,0,0,1,10,0v3A5,5,0,0,1,64,324Zm0-23a5,5,0,0,1-5-5v-3a5,5,0,0,1,10,0v3A5,5,0,0,1,64,301Zm0-23a5,5,0,0,1-5-5v-3a5,5,0,0,1,10,0v3A5,5,0,0,1,64,278Zm0-23a5,5,0,0,1-5-5v-3a5,5,0,0,1,10,0v3A5,5,0,0,1,64,255Zm0-23a5,5,0,0,1-5-5v-3a5,5,0,0,1,10,0v3A5,5,0,0,1,64,232Zm0-23a5,5,0,0,1-5-5v-3a5,5,0,0,1,10,0v3A5,5,0,0,1,64,209Zm0-23a5,5,0,0,1-5-5v-3a5,5,0,0,1,10,0v3A5,5,0,0,1,64,186Zm0-23a5,5,0,0,1-5-5v-3a5,5,0,0,1,10,0v3A5,5,0,0,1,64,163Z"/><path class="cls-1" d="M449,475a5,5,0,0,1-5-5v-3a5,5,0,0,1,10,0v3A5,5,0,0,1,449,475Zm0-23a5,5,0,0,1-5-5v-3a5,5,0,0,1,10,0v3A5,5,0,0,1,449,452Zm0-23a5,5,0,0,1-5-5v-3a5,5,0,0,1,10,0v3A5,5,0,0,1,449,429Zm0-23a5,5,0,0,1-5-5v-3a5,5,0,0,1,10,0v3A5,5,0,0,1,449,406Zm0-23a5,5,0,0,1-5-5v-3a5,5,0,0,1,10,0v3A5,5,0,0,1,449,383Zm0-23a5,5,0,0,1-5-5v-3a5,5,0,0,1,10,0v3A5,5,0,0,1,449,360Zm0-23a5,5,0,0,1-5-5v-3a5,5,0,0,1,10,0v3A5,5,0,0,1,449,337Zm0-23a5,5,0,0,1-5-5v-3a5,5,0,0,1,10,0v3A5,5,0,0,1,449,314Zm0-23a5,5,0,0,1-5-5v-3a5,5,0,0,1,10,0v3A5,5,0,0,1,449,291Zm0-23a5,5,0,0,1-5-5v-3a5,5,0,0,1,10,0v3A5,5,0,0,1,449,268Zm0-23a5,5,0,0,1-5-5v-3a5,5,0,0,1,10,0v3A5,5,0,0,1,449,245Zm0-23a5,5,0,0,1-5-5v-3a5,5,0,0,1,10,0v3A5,5,0,0,1,449,222Zm0-23a5,5,0,0,1-5-5v-3a5,5,0,0,1,10,0v3A5,5,0,0,1,449,199Zm0-23a5,5,0,0,1-5-5v-3a5,5,0,0,1,10,0v3A5,5,0,0,1,449,176Zm0-23a5,5,0,0,1-5-5v-3a5,5,0,0,1,10,0v3A5,5,0,0,1,449,153Z"/></g></svg>