<?xml version="1.0" ?><svg viewBox="0 0 512 512" xmlns="http://www.w3.org/2000/svg"><defs><style>.cls-1{fill:#3f456b;}.cls-2{fill:#384169;}</style></defs><title/><g id="Lines"><path class="cls-1" d="M65.55,105.47a7.91,7.91,0,0,1-1.64-.18,7.83,7.83,0,0,1-4.49-3.08,75.42,75.42,0,0,1-7.29-12.09l-.81-1.54c-.87-1.67-1.64-3.16-2.28-4.45-6.83-.11-17.15-1-21.93-3.84A8.3,8.3,0,0,1,22.69,74,8.48,8.48,0,0,1,25,67.49c3-4,11-10.77,15.44-14.44a117.35,117.35,0,0,1-4-18.36,9.9,9.9,0,0,1,.92-5.75,9.24,9.24,0,0,1,5.09-4.31,8.27,8.27,0,0,1,2.17-.43,10.25,10.25,0,0,1,5,1A116.07,116.07,0,0,1,65.7,34.85c4.91-3.07,13.9-8.49,18.6-10a8.54,8.54,0,0,1,6.88-.09,8.29,8.29,0,0,1,4.57,6.2c1.17,5.37-1.21,15.27-3.25,21.78A85.12,85.12,0,0,1,105.93,68c2.62,3.81,1.95,8.43-1.61,11a12.08,12.08,0,0,1-4.45,1.84c-4.23,1-8.42,1.58-12.48,2.16l-2.25.32-1.79.22c-.48.05-1,.1-1.41.17l-.24,0c-.46,1-.9,2-1.37,3-.93,2.1-1.9,4.28-3,6.46-.15.29-.34.69-.56,1.16C74.83,98.33,71.44,105.47,65.55,105.47ZM52.16,74.13A5,5,0,0,1,56.69,77c.52,1.12,1.55,3.22,3.49,6.93L61,85.5a87.25,87.25,0,0,0,4.72,8.36c.81-1.37,1.61-3.06,2-3.81s.56-1.16.76-1.54c1-1.88,1.85-3.81,2.75-5.85.84-1.87,1.7-3.81,2.69-5.76a5.14,5.14,0,0,1,1.53-1.78l.07-.05a8.39,8.39,0,0,1,4.7-1.3l.41,0c.47-.07,1.07-.14,1.68-.2l1.42-.17L86,73.05c3.49-.5,6.81-1,10.12-1.67A75,75,0,0,0,83.51,58.15,5,5,0,0,1,82,52.6c2.26-6.28,4-13.87,4.09-17.78-4.32,1.89-12.9,7.07-17.9,10.29a5,5,0,0,1-5.79-.26,105.87,105.87,0,0,0-15.86-10,106.63,106.63,0,0,0,4.41,18.2,5,5,0,0,1-1.59,5.57c-4.65,3.72-12.3,10.21-15.46,13.7,3.75,1.12,11.49,1.92,18.16,1.77Zm-19.92.2h0ZM45,34.18Z"/><path class="cls-1" d="M150.55,406.47a7.91,7.91,0,0,1-1.64-.18,7.83,7.83,0,0,1-4.49-3.08,75.42,75.42,0,0,1-7.29-12.09l-.81-1.54c-.87-1.67-1.64-3.16-2.28-4.45-6.83-.11-17.15-1-21.93-3.84a8.3,8.3,0,0,1-4.42-6.31,8.48,8.48,0,0,1,2.27-6.49c3-4,11-10.77,15.44-14.44a117.35,117.35,0,0,1-4-18.36,9.9,9.9,0,0,1,.92-5.75,9.24,9.24,0,0,1,5.09-4.31,8.27,8.27,0,0,1,2.18-.43,10.24,10.24,0,0,1,4.95,1,116.67,116.67,0,0,1,16.14,9.61c4.91-3.07,13.9-8.49,18.6-10.05a8.54,8.54,0,0,1,6.88-.09,8.29,8.29,0,0,1,4.57,6.2c1.17,5.37-1.21,15.27-3.25,21.78A85.12,85.12,0,0,1,190.93,369c2.62,3.81,1.95,8.43-1.61,11a12.08,12.08,0,0,1-4.45,1.84c-4.23,1-8.42,1.58-12.48,2.16l-2.25.32-1.79.22c-.48.05-1,.1-1.41.17l-.24,0c-.46,1-.9,2-1.37,3-.93,2.1-1.9,4.28-3.05,6.46-.15.29-.34.69-.56,1.16C159.83,399.33,156.44,406.47,150.55,406.47Zm-13.39-31.34a5,5,0,0,1,4.53,2.88c.52,1.12,1.55,3.22,3.49,6.93l.82,1.56a87.25,87.25,0,0,0,4.72,8.36c.81-1.37,1.61-3.06,2-3.81s.56-1.16.76-1.54c1-1.88,1.85-3.81,2.75-5.85.84-1.87,1.7-3.81,2.69-5.76a5.14,5.14,0,0,1,1.53-1.78l.07-.05a8.39,8.39,0,0,1,4.7-1.3l.41,0c.47-.07,1.07-.14,1.68-.2l1.42-.17,2.28-.33c3.49-.5,6.81-1,10.12-1.67a75,75,0,0,0-12.58-13.23A5,5,0,0,1,167,353.6c2.26-6.28,4-13.87,4.09-17.78-4.32,1.89-12.9,7.07-17.9,10.29a5,5,0,0,1-5.79-.26,105.87,105.87,0,0,0-15.86-10,106.63,106.63,0,0,0,4.41,18.2,5,5,0,0,1-1.59,5.57c-4.65,3.72-12.3,10.21-15.46,13.7,3.75,1.12,11.48,1.92,18.16,1.77Zm-19.92.2h0Zm56.25-40.46h0Z"/><path class="cls-1" d="M437.46,211.17a7.24,7.24,0,0,1-4.5-1.54,7.89,7.89,0,0,1-2.76-4.69,76.29,76.29,0,0,1-1.46-14.05l-.07-1.69c-.09-2.07-.15-3.72-.18-5-6.13-3-15.11-8.19-18.22-12.8a8.29,8.29,0,0,1-1.32-7.59,8.51,8.51,0,0,1,4.82-4.91c4.37-2.32,14.5-5.08,20.1-6.51A117.72,117.72,0,0,1,438.08,134a9.87,9.87,0,0,1,3.27-4.81,9.26,9.26,0,0,1,6.44-1.74,8.18,8.18,0,0,1,2.15.54,10.27,10.27,0,0,1,4.05,3,118.23,118.23,0,0,1,10.53,15.56c5.74-.69,16.18-1.78,21.1-1.19a8.52,8.52,0,0,1,6.27,2.84,8.3,8.3,0,0,1,1.5,7.55c-1.23,5.36-7.58,13.31-12.2,18.34a84.83,84.83,0,0,1,5.67,19.52c.76,4.56-1.82,8.46-6.12,9.27a12,12,0,0,1-4.82-.23c-4.24-.91-8.3-2.15-12.22-3.35l-2.17-.66c-.54-.16-1.12-.36-1.7-.56l-1.35-.45-.24-.07c-.83.7-1.66,1.42-2.52,2.16-1.74,1.51-3.54,3.07-5.51,4.55-.26.2-.6.48-1,.82C446.44,207.44,441.92,211.17,437.46,211.17Zm-17.68-44.1c2.92,2.6,9.58,6.61,15.69,9.32a5,5,0,0,1,3,4.58c0,1.24,0,3.61.22,7.79l.07,1.72a93.24,93.24,0,0,0,.72,9.57c1.32-.89,2.76-2.08,3.4-2.6s1-.82,1.34-1.08c1.7-1.28,3.29-2.66,5-4.13s3.15-2.73,4.88-4.07a4.91,4.91,0,0,1,2.16-1l.09,0a8.37,8.37,0,0,1,4.78.83l.38.15c.46.14,1,.33,1.61.53s.92.32,1.36.45l2.19.67c3.38,1,6.59,2,9.88,2.79a74.71,74.71,0,0,0-5.77-17.32,5,5,0,0,1,1-5.67c4.72-4.73,9.49-10.87,11.27-14.35-4.72-.13-14.69.92-20.58,1.71a5,5,0,0,1-5.13-2.7,106.29,106.29,0,0,0-10.12-15.76,104.93,104.93,0,0,0-3.75,18.35,5,5,0,0,1-3.81,4.37C433.81,162.63,424.12,165.25,419.78,167.07Zm-2.33,1.08h0Zm1-2.57Zm67.1-10.15h0Z"/><path class="cls-2" d="M178,92a23,23,0,1,1,23-23A23,23,0,0,1,178,92Zm0-36a13,13,0,1,0,13,13A13,13,0,0,0,178,56Z"/><path class="cls-2" d="M58,477a23,23,0,1,1,23-23A23,23,0,0,1,58,477Zm0-36a13,13,0,1,0,13,13A13,13,0,0,0,58,441Z"/><path class="cls-2" d="M100,279a23,23,0,1,1,23-23A23,23,0,0,1,100,279Zm0-36a13,13,0,1,0,13,13A13,13,0,0,0,100,243Z"/><path class="cls-2" d="M447,83a23,23,0,1,1,23-23A23,23,0,0,1,447,83Zm0-36a13,13,0,1,0,13,13A13,13,0,0,0,447,47Z"/><path class="cls-2" d="M422,279a23,23,0,1,1,23-23A23,23,0,0,1,422,279Zm0-36a13,13,0,1,0,13,13A13,13,0,0,0,422,243Z"/><path class="cls-2" d="M456,479a23,23,0,1,1,23-23A23,23,0,0,1,456,479Zm0-36a13,13,0,1,0,13,13A13,13,0,0,0,456,443Z"/></g><g id="Outline"><path class="cls-2" d="M178.36,183.36a5,5,0,0,1-3.53-1.46L94.07,101.14a5,5,0,1,1,7.07-7.07l80.76,80.76a5,5,0,0,1-3.54,8.53Z"/><path class="cls-2" d="M221.35,226.35a5,5,0,0,1-3.53-1.46l-23.36-23.35a5,5,0,0,1,7.08-7.08l23.35,23.36a5,5,0,0,1-3.54,8.53Z"/><path class="cls-2" d="M190,327a5,5,0,0,1-3.54-8.54l31.36-31.35a5,5,0,1,1,7.07,7.07l-31.35,31.36A5,5,0,0,1,190,327Z"/><path class="cls-2" d="M301.27,242.25a5,5,0,0,1-1.93-9.61l105.73-44.25a5,5,0,0,1,3.86,9.22L303.2,241.86A5,5,0,0,1,301.27,242.25Z"/><path class="cls-2" d="M374.75,261h-1a5,5,0,0,1,0-10h1a5,5,0,0,1,0,10Zm-21,0h-1a5,5,0,0,1,0-10h1a5,5,0,0,1,0,10Zm-21,0h-1a5,5,0,0,1,0-10h1a5,5,0,0,1,0,10Zm-21,0h-1a5,5,0,0,1,0-10h1a5,5,0,0,1,0,10Z"/><path class="cls-2" d="M492,261h-1a5,5,0,0,1,0-10h1a5,5,0,0,1,0,10Zm-21,0h-1a5,5,0,0,1,0-10h1a5,5,0,0,1,0,10Z"/><path class="cls-2" d="M60,261H59a5,5,0,0,1,0-10h1a5,5,0,0,1,0,10Zm-21,0H38a5,5,0,0,1,0-10h1a5,5,0,0,1,0,10Z"/><path class="cls-2" d="M207,261h-1a5,5,0,0,1,0-10h1a5,5,0,0,1,0,10Zm-21,0h-1a5,5,0,0,1,0-10h1a5,5,0,0,1,0,10Zm-21,0h-1a5,5,0,0,1,0-10h1a5,5,0,0,1,0,10Zm-21,0h-1a5,5,0,0,1,0-10h1a5,5,0,0,1,0,10Z"/><path class="cls-2" d="M256,485a5,5,0,0,1-5-5v-1a5,5,0,0,1,10,0v1A5,5,0,0,1,256,485Zm0-21a5,5,0,0,1-5-5v-1a5,5,0,0,1,10,0v1A5,5,0,0,1,256,464Zm0-21a5,5,0,0,1-5-5v-1a5,5,0,0,1,10,0v1A5,5,0,0,1,256,443Zm0-21a5,5,0,0,1-5-5v-1a5,5,0,0,1,10,0v1A5,5,0,0,1,256,422Zm0-21a5,5,0,0,1-5-5v-1a5,5,0,0,1,10,0v1A5,5,0,0,1,256,401Zm0-21a5,5,0,0,1-5-5v-1a5,5,0,0,1,10,0v1A5,5,0,0,1,256,380Zm0-21a5,5,0,0,1-5-5v-1a5,5,0,0,1,10,0v1A5,5,0,0,1,256,359Zm0-21a5,5,0,0,1-5-5v-1a5,5,0,0,1,10,0v1A5,5,0,0,1,256,338Zm0-21a5,5,0,0,1-5-5v-1a5,5,0,0,1,10,0v1A5,5,0,0,1,256,317Z"/><path class="cls-2" d="M256,212a5,5,0,0,1-5-5v-1a5,5,0,0,1,10,0v1A5,5,0,0,1,256,212Zm0-21a5,5,0,0,1-5-5v-1a5,5,0,0,1,10,0v1A5,5,0,0,1,256,191Zm0-21a5,5,0,0,1-5-5v-1a5,5,0,0,1,10,0v1A5,5,0,0,1,256,170Zm0-21a5,5,0,0,1-5-5v-1a5,5,0,0,1,10,0v1A5,5,0,0,1,256,149Zm0-21a5,5,0,0,1-5-5v-1a5,5,0,0,1,10,0v1A5,5,0,0,1,256,128Zm0-21a5,5,0,0,1-5-5v-1a5,5,0,0,1,10,0v1A5,5,0,0,1,256,107Zm0-21a5,5,0,0,1-5-5V80a5,5,0,0,1,10,0v1A5,5,0,0,1,256,86Zm0-21a5,5,0,0,1-5-5V59a5,5,0,0,1,10,0v1A5,5,0,0,1,256,65Zm0-21a5,5,0,0,1-5-5V38a5,5,0,0,1,10,0v1A5,5,0,0,1,256,44Z"/><path class="cls-2" d="M414.39,419.39a5,5,0,0,1-3.53-1.46l-.71-.71a5,5,0,0,1,7.07-7.07l.71.71a5,5,0,0,1-3.54,8.53Zm-14.85-14.85a5,5,0,0,1-3.53-1.46l-.71-.71a5,5,0,0,1,7.07-7.07l.71.71a5,5,0,0,1-3.54,8.53Zm-14.85-14.85a4.94,4.94,0,0,1-3.53-1.46l-.71-.71a5,5,0,0,1,7.07-7.07l.71.71a5,5,0,0,1-3.54,8.53Zm-14.85-14.85a5,5,0,0,1-3.53-1.46l-.71-.71a5,5,0,1,1,7.07-7.07l.71.71a5,5,0,0,1-3.54,8.53ZM355,360a5,5,0,0,1-3.54-1.47l-.71-.71a5,5,0,1,1,7.07-7.07l.71.71A5,5,0,0,1,355,360Zm-14.85-14.85a5,5,0,0,1-3.54-1.47l-.71-.71A5,5,0,0,1,343,335.9l.71.71a5,5,0,0,1,0,7.07A5,5,0,0,1,340.15,345.15ZM325.3,330.3a5,5,0,0,1-3.54-1.47l-.71-.71a5,5,0,0,1,7.07-7.07l.71.71a5,5,0,0,1-3.53,8.54Zm-14.85-14.85a5,5,0,0,1-3.54-1.47l-.71-.7a5,5,0,0,1,7.08-7.08l.7.71a5,5,0,0,1-3.53,8.54ZM295.6,300.6a5,5,0,0,1-3.54-1.47l-.7-.7a5,5,0,1,1,7.07-7.07l.7.7a5,5,0,0,1-3.53,8.54Z"/><path class="cls-2" d="M97.61,419.39a5,5,0,0,1-3.54-8.53l.71-.71a5,5,0,0,1,7.07,7.07l-.71.71A5,5,0,0,1,97.61,419.39Zm14.85-14.85a5,5,0,0,1-3.54-8.53l.71-.71a5,5,0,0,1,7.07,7.07l-.71.71A5,5,0,0,1,112.46,404.54Z"/><path class="cls-2" d="M290.65,226.35a5,5,0,0,1-3.54-8.53l.71-.71a5,5,0,1,1,7.07,7.07l-.71.71A5,5,0,0,1,290.65,226.35ZM305.5,211.5A5,5,0,0,1,302,203l.71-.71a5,5,0,1,1,7.07,7.07L309,210A5,5,0,0,1,305.5,211.5Zm14.85-14.85a5,5,0,0,1-3.54-8.53l.71-.71a5,5,0,0,1,7.07,7.07l-.71.71A4.94,4.94,0,0,1,320.35,196.65ZM335.2,181.8a5,5,0,0,1-3.54-8.53l.71-.71a5,5,0,0,1,7.07,7.07l-.71.71A4.94,4.94,0,0,1,335.2,181.8ZM350.05,167a5,5,0,0,1-3.54-8.53l.71-.71a5,5,0,0,1,7.07,7.07l-.71.71A5,5,0,0,1,350.05,167Zm14.84-14.84a5,5,0,0,1-3.53-8.54l.71-.71a5,5,0,1,1,7.07,7.07l-.71.71A5,5,0,0,1,364.89,152.11Zm14.85-14.85a5,5,0,0,1-3.53-8.54l.71-.71a5,5,0,1,1,7.07,7.07l-.71.71A5,5,0,0,1,379.74,137.26Zm14.85-14.85a5,5,0,0,1-3.53-8.54l.7-.71a5,5,0,0,1,7.08,7.08l-.71.7A5,5,0,0,1,394.59,122.41Zm14.85-14.85A5,5,0,0,1,405.91,99l.7-.71a5,5,0,0,1,7.08,7.08l-.71.7A5,5,0,0,1,409.44,107.56Z"/><path class="cls-2" d="M54.6,344.43a5,5,0,0,1-1.92-9.63l.93-.38a5,5,0,1,1,3.82,9.24l-.92.38A5,5,0,0,1,54.6,344.43Zm19.4-8a5,5,0,0,1-1.92-9.62l.93-.38a5,5,0,1,1,3.82,9.24l-.92.38A5,5,0,0,1,74,336.39Zm19.4-8a5,5,0,0,1-1.91-9.62l.92-.38a5,5,0,1,1,3.82,9.24l-.92.38A5,5,0,0,1,93.4,328.35Zm19.4-8a5,5,0,0,1-1.92-9.62l.93-.39a5,5,0,0,1,3.83,9.24l-.93.39A5.12,5.12,0,0,1,112.8,320.32Zm19.4-8a5,5,0,0,1-1.91-9.62l.92-.38a5,5,0,0,1,3.83,9.24l-.93.38A4.93,4.93,0,0,1,132.2,312.28Zm19.4-8a5,5,0,0,1-1.91-9.62l.92-.38a5,5,0,0,1,3.83,9.24l-.92.38A5,5,0,0,1,151.6,304.24Zm19.4-8a5,5,0,0,1-1.91-9.62l.92-.39a5,5,0,1,1,3.83,9.24l-.92.39A5,5,0,0,1,171,296.21Zm19.41-8a5,5,0,0,1-1.92-9.62l.92-.38a5,5,0,1,1,3.83,9.24l-.92.38A5,5,0,0,1,190.41,288.17Zm19.4-8a5,5,0,0,1-1.92-9.62l.93-.39a5,5,0,0,1,3.82,9.24l-.92.38A5,5,0,0,1,209.81,280.14Z"/><path class="cls-2" d="M341.72,468a5,5,0,0,1-4.62-3.09l-.38-.92a5,5,0,0,1,9.24-3.83l.38.93a5,5,0,0,1-4.62,6.91Zm-8-19.4a5,5,0,0,1-4.62-3.09l-.39-.92a5,5,0,1,1,9.24-3.83l.38.92a5,5,0,0,1-4.61,6.92Zm-8-19.4a5,5,0,0,1-4.62-3.09l-.38-.92a5,5,0,1,1,9.24-3.83l.38.92a5,5,0,0,1-2.71,6.54A5.12,5.12,0,0,1,325.65,429.15Zm-8-19.4a5,5,0,0,1-4.62-3.09l-.38-.93a5,5,0,1,1,9.24-3.82l.38.92a5,5,0,0,1-4.62,6.92Zm-8-19.41a5,5,0,0,1-4.62-3.08l-.39-.93a5,5,0,1,1,9.24-3.82l.38.92a5,5,0,0,1-4.61,6.91Zm-8-19.4a5,5,0,0,1-4.62-3.08l-.38-.93a5,5,0,0,1,9.24-3.83l.38.93a5,5,0,0,1-2.71,6.53A4.93,4.93,0,0,1,301.54,370.94Zm-8-19.4a5,5,0,0,1-4.62-3.09l-.38-.92a5,5,0,0,1,9.24-3.83l.38.93a5,5,0,0,1-4.62,6.91Zm-8-19.4a5,5,0,0,1-4.62-3.09l-.39-.92a5,5,0,0,1,9.24-3.83l.39.93a5,5,0,0,1-4.62,6.91Zm-8-19.4a5,5,0,0,1-4.62-3.09l-.38-.92a5,5,0,1,1,9.24-3.83l.38.93a5,5,0,0,1-2.71,6.53A4.93,4.93,0,0,1,277.43,312.74Z"/><path class="cls-2" d="M237.25,215.73a5,5,0,0,1-4.62-3.09l-.38-.93a5,5,0,1,1,9.24-3.81l.38.92a5,5,0,0,1-4.62,6.91Zm-8-19.41a5,5,0,0,1-4.62-3.1l-.38-.92a5,5,0,1,1,9.24-3.81l.38.92a5,5,0,0,1-4.62,6.91Zm-8-19.42a5,5,0,0,1-4.63-3.09l-.38-.93a5,5,0,0,1,9.24-3.81l.39.93a5,5,0,0,1-2.72,6.53A5.1,5.1,0,0,1,221.24,176.9Zm-8-19.41a5,5,0,0,1-4.63-3.09l-.38-.93a5,5,0,1,1,9.25-3.81l.38.92a5,5,0,0,1-2.72,6.53A4.92,4.92,0,0,1,213.23,157.49Zm-8-19.41a5,5,0,0,1-4.62-3.1l-.38-.92a5,5,0,1,1,9.24-3.81l.38.92a5,5,0,0,1-4.62,6.91Z"/><path class="cls-2" d="M463,346.72a4.93,4.93,0,0,1-1.91-.38l-.93-.38a5,5,0,0,1,3.83-9.24l.92.38a5,5,0,0,1-1.91,9.62Zm-19.4-8a5,5,0,0,1-1.92-.39l-.92-.38a5,5,0,1,1,3.83-9.24l.92.39a5,5,0,0,1-1.91,9.62Zm-19.41-8a5,5,0,0,1-1.91-.38l-.92-.38a5,5,0,1,1,3.83-9.24l.92.38a5,5,0,0,1-1.92,9.62Zm-19.4-8a5,5,0,0,1-1.91-.38l-.92-.38a5,5,0,0,1,3.82-9.24l.93.38a5,5,0,0,1-1.92,9.62Zm-19.4-8a5,5,0,0,1-1.91-.39l-.92-.38a5,5,0,0,1,3.82-9.24l.93.39a5,5,0,0,1-1.92,9.62Zm-19.4-8a4.93,4.93,0,0,1-1.91-.38l-.93-.38a5,5,0,0,1,3.83-9.24l.93.38a5,5,0,0,1-1.92,9.62Zm-19.4-8a4.93,4.93,0,0,1-1.91-.38l-.93-.38a5,5,0,0,1,3.83-9.24l.92.38a5,5,0,0,1-1.91,9.62Zm-19.4-8a4.93,4.93,0,0,1-1.91-.38l-.93-.39a5,5,0,0,1,3.83-9.24l.92.39a5,5,0,0,1-1.91,9.62Zm-19.4-8a4.93,4.93,0,0,1-1.91-.38l-.93-.38a5,5,0,1,1,3.83-9.24l.92.38a5,5,0,0,1-1.91,9.62Z"/><path class="cls-2" d="M210.73,242.25a4.93,4.93,0,0,1-1.91-.38l-.93-.39a5,5,0,0,1,3.83-9.23l.92.38a5,5,0,0,1-1.91,9.62Zm-19.4-8a5,5,0,0,1-1.92-.38l-.92-.38a5,5,0,0,1,3.83-9.24l.92.38a5,5,0,0,1-1.91,9.62Zm-19.4-8a5.21,5.21,0,0,1-1.92-.38l-.92-.39a5,5,0,1,1,3.83-9.24l.92.39a5,5,0,0,1-1.91,9.62Zm-19.41-8a5,5,0,0,1-1.91-.38l-.92-.38a5,5,0,1,1,3.83-9.24l.92.38a5,5,0,0,1-1.92,9.62Zm-19.4-8a5,5,0,0,1-1.91-.38l-.92-.38a5,5,0,0,1,3.82-9.24l.93.38a5,5,0,0,1-1.92,9.62Zm-19.4-8a4.93,4.93,0,0,1-1.91-.38l-.93-.39a5,5,0,0,1,3.83-9.24l.93.39a5,5,0,0,1-1.92,9.62Zm-19.4-8a4.93,4.93,0,0,1-1.91-.38l-.92-.38A5,5,0,1,1,95.31,184l.92.38A5,5,0,0,1,94.32,194Zm-19.4-8a4.94,4.94,0,0,1-1.91-.39l-.93-.38A5,5,0,0,1,75.91,176l.92.38A5,5,0,0,1,74.92,186Zm-19.4-8a4.93,4.93,0,0,1-1.91-.38l-.93-.38A5,5,0,1,1,56.51,168l.92.38A5,5,0,0,1,55.52,178Z"/><path class="cls-2" d="M170.28,468a5,5,0,0,1-4.62-6.91l.38-.93a5,5,0,0,1,9.24,3.83l-.38.92A5,5,0,0,1,170.28,468Zm8-19.4a5,5,0,0,1-4.61-6.92l.38-.92a5,5,0,1,1,9.24,3.83l-.39.92A5,5,0,0,1,178.31,448.55Zm8-19.4a5.12,5.12,0,0,1-1.91-.38,5,5,0,0,1-2.71-6.54l.38-.92a5,5,0,1,1,9.24,3.83l-.38.92A5,5,0,0,1,186.35,429.15Zm8-19.4a5,5,0,0,1-4.62-6.92l.38-.92a5,5,0,0,1,9.24,3.82l-.38.93A5,5,0,0,1,194.39,409.75Zm8-19.41a5,5,0,0,1-4.61-6.91l.38-.92a5,5,0,0,1,9.24,3.82l-.39.93A5,5,0,0,1,202.42,390.34Zm8-19.4a4.93,4.93,0,0,1-1.91-.38,5,5,0,0,1-2.71-6.53l.38-.93a5,5,0,0,1,9.24,3.83l-.38.93A5,5,0,0,1,210.46,370.94Zm8-19.4a5,5,0,0,1-4.62-6.91l.38-.93a5,5,0,0,1,9.24,3.83l-.38.92A5,5,0,0,1,218.5,351.54Zm8-19.4a5,5,0,0,1-4.62-6.91l.39-.93a5,5,0,0,1,9.24,3.83l-.39.92A5,5,0,0,1,226.53,332.14Zm8-19.4a4.93,4.93,0,0,1-1.91-.38,5,5,0,0,1-2.71-6.53l.38-.93a5,5,0,1,1,9.24,3.83l-.38.92A5,5,0,0,1,234.57,312.74Z"/><path class="cls-2" d="M274.75,215.73a4.93,4.93,0,0,1-1.91-.38,5,5,0,0,1-2.71-6.53l.39-.93a5,5,0,0,1,9.23,3.83l-.38.92A5,5,0,0,1,274.75,215.73Zm8-19.4a5,5,0,0,1-4.62-6.92l.38-.92a5,5,0,0,1,9.24,3.83l-.38.92A5,5,0,0,1,282.79,196.33Zm8-19.4A5,5,0,0,1,286.2,170l.39-.92a5,5,0,1,1,9.24,3.83l-.39.92A5,5,0,0,1,290.82,176.93Zm8-19.4a4.94,4.94,0,0,1-1.91-.39,5,5,0,0,1-2.71-6.53l.38-.92a5,5,0,1,1,9.24,3.83l-.38.92A5,5,0,0,1,298.86,157.53Zm8-19.4a5,5,0,0,1-4.62-6.92l.38-.92a5,5,0,0,1,9.24,3.82l-.38.93A5,5,0,0,1,306.9,138.13Zm8-19.41a5,5,0,0,1-4.62-6.91l.39-.93a5,5,0,0,1,9.24,3.83l-.39.93A5,5,0,0,1,314.93,118.72Zm8-19.4a4.93,4.93,0,0,1-1.91-.38,5,5,0,0,1-2.71-6.53l.38-.92A5,5,0,0,1,328,95.31l-.38.92A5,5,0,0,1,323,99.32Zm8-19.4A5,5,0,0,1,326.39,73l.38-.93A5,5,0,0,1,336,75.91l-.38.92A5,5,0,0,1,331,79.92Zm8-19.4a5,5,0,0,1-4.62-6.91l.38-.93A5,5,0,1,1,344,56.51l-.38.92A5,5,0,0,1,339,60.52Z"/></g></svg>