<?xml version="1.0" ?><svg viewBox="0 0 512 512" xmlns="http://www.w3.org/2000/svg" xmlns:xlink="http://www.w3.org/1999/xlink"><defs><style>.cls-1{fill:none;}.cls-2{fill:#3f456b;}.cls-3{clip-path:url(#clip-path);}</style><clipPath id="clip-path"><path class="cls-1" d="M256.5,444.68v50.84H16.5V444.68h.88v-.18S95.91,427.74,95.91,360c0-58.58-61.48-66.64-75.73-67.76H16.5V241.38h240v48.25l-2.8,2.59c-14.26,1.12-75.29,9.18-75.29,67.76,0,67.76,78.09,84.52,78.09,84.52Z"/></clipPath></defs><title/><g id="Lines"><g data-name="&lt;编组&gt;" id="_编组_"><path class="cls-2" d="M256.5,500.52H16.5a5,5,0,0,1-5-5V444.68a5,5,0,0,1,10,0v45.84h230V444.68a5,5,0,0,1,10,0v50.84A5,5,0,0,1,256.5,500.52Z"/><path class="cls-2" d="M256.5,449.68a5,5,0,0,1-2.38-.6,136.91,136.91,0,0,1-39.38-17.23c-27-17.54-41.33-42.39-41.33-71.87,0-26.43,12.06-47.11,34.87-59.8,16.53-9.19,34.63-12,43.22-12.78v-41H21.5v40.94c8.22.71,27.1,3.35,44.31,12.86,23,12.69,35.1,33.37,35.1,59.8,0,29.49-14.37,54.34-41.55,71.87a138.14,138.14,0,0,1-39.6,17.23,5,5,0,0,1-7.38-4.4v-.18a5,5,0,0,1,3.95-4.89,128.18,128.18,0,0,0,37.85-16.32C78.55,407.48,90.91,386.18,90.91,360c0-22.9-10.07-40.07-29.94-51.05-16-8.86-33.86-11.13-41-11.71H16.5a5,5,0,0,1-5-5V241.38a5,5,0,0,1,5-5h240a5,5,0,0,1,5,5v50.84a5,5,0,0,1-5,5h-2.61c-65.39,5.19-70.48,49.34-70.48,62.76,0,26.3,12.37,47.66,36.77,63.48a125.93,125.93,0,0,0,37.37,16.15,5,5,0,0,1,3.95,4.89v.18A5,5,0,0,1,256.5,449.68Z"/></g><g data-name="&lt;编组&gt;" id="_编组_2"><path class="cls-2" d="M256.5,500.52a5,5,0,0,1-3.42-8.65L491.5,268.4V219.73a5,5,0,0,1,10,0v50.84a5,5,0,0,1-1.58,3.65l-240,225A5,5,0,0,1,256.5,500.52Z"/><path class="cls-2" d="M256.5,449.68a5,5,0,0,1-3.42-8.65L486.67,222.09a136.88,136.88,0,0,1-30.52-13.8C429.73,192,415,168.66,413.53,140.77a5,5,0,0,1,10-.52c1.29,24.72,14,44.7,37.62,59.38a125.47,125.47,0,0,0,36.35,15,5,5,0,0,1,4,4.9v.18a5,5,0,0,1-1.58,3.65l-240,225A5,5,0,0,1,256.5,449.68Z"/><path class="cls-2" d="M16.5,246.38a5,5,0,0,1-3.42-8.64l240-225a5,5,0,0,1,3.42-1.35h240a5,5,0,0,1,5,5V67.27a5,5,0,0,1-10,0V21.43h-233L19.92,245A4.94,4.94,0,0,1,16.5,246.38Z"/></g><path class="cls-2" d="M256.5,246.38a5,5,0,0,1-3.42-8.64l240-225a5,5,0,1,1,6.84,7.3l-240,225A4.94,4.94,0,0,1,256.5,246.38Z"/><path class="cls-2" d="M256.5,297.22a5,5,0,0,1-3.42-8.64l240-225a5,5,0,0,1,6.84,7.3l-240,225A4.94,4.94,0,0,1,256.5,297.22Z"/></g><g id="Outline"><g class="cls-3"><path class="cls-2" d="M-105.29,368.78a5,5,0,0,1-3.53-1.47,5,5,0,0,1,0-7.07L136,115.46a5,5,0,0,1,7.07,7.07L-101.75,367.31A5,5,0,0,1-105.29,368.78Z"/><path class="cls-2" d="M-84.67,389.39a5,5,0,0,1-3.54-1.46,5,5,0,0,1,0-7.08L156.57,136.07a5,5,0,0,1,7.07,7.08L-81.14,387.93A5,5,0,0,1-84.67,389.39Z"/><path class="cls-2" d="M-64.06,410a5,5,0,0,1-3.53-1.47,5,5,0,0,1,0-7.07L177.19,156.69a5,5,0,0,1,7.07,7.07L-60.52,408.54A5,5,0,0,1-64.06,410Z"/><path class="cls-2" d="M-43.44,430.62A5,5,0,0,1-47,429.16a5,5,0,0,1,0-7.07L197.8,177.3a5,5,0,0,1,7.08,7.08L-39.91,429.16A5,5,0,0,1-43.44,430.62Z"/><path class="cls-2" d="M-22.83,451.24a5,5,0,0,1-3.53-1.47,5,5,0,0,1,0-7.07L218.42,197.92a5,5,0,0,1,7.07,7.07L-19.29,449.77A5,5,0,0,1-22.83,451.24Z"/><path class="cls-2" d="M-2.21,471.85a5,5,0,0,1-3.54-1.46,5,5,0,0,1,0-7.07L239,218.54a5,5,0,0,1,7.07,7.07L1.32,470.39A5,5,0,0,1-2.21,471.85Z"/><path class="cls-2" d="M18.4,492.47A5,5,0,0,1,14.87,491a5,5,0,0,1,0-7.07L259.65,239.15a5,5,0,0,1,7.07,7.07L21.94,491A5,5,0,0,1,18.4,492.47Z"/><path class="cls-2" d="M39,513.08a5,5,0,0,1-3.54-8.53L280.27,259.77a5,5,0,0,1,7.07,7.07L42.55,511.62A5,5,0,0,1,39,513.08Z"/><path class="cls-2" d="M59.63,533.7a5,5,0,0,1-3.53-8.54L300.88,280.38a5,5,0,0,1,7.07,7.07L63.17,532.23A5,5,0,0,1,59.63,533.7Z"/><path class="cls-2" d="M80.25,554.31a5,5,0,0,1-3.53-8.53L321.5,301a5,5,0,0,1,7.07,7.07L83.79,552.85A5,5,0,0,1,80.25,554.31Z"/><path class="cls-2" d="M100.87,574.93a5,5,0,0,1-3.54-8.54L342.11,321.61a5,5,0,0,1,7.07,7.07L104.4,573.46A5,5,0,0,1,100.87,574.93Z"/><path class="cls-2" d="M121.48,595.54A5,5,0,0,1,118,587L362.73,342.23a5,5,0,0,1,7.07,7.07L125,594.08A5,5,0,0,1,121.48,595.54Z"/><path class="cls-2" d="M142.1,616.16a5,5,0,0,1-3.54-8.54L383.34,362.84a5,5,0,0,1,7.07,7.07L145.63,614.69A5,5,0,0,1,142.1,616.16Z"/></g></g></svg>