<?xml version="1.0" ?><svg id="图层_1" style="enable-background:new 0 0 512 512;" version="1.1" viewBox="0 0 512 512" xml:space="preserve" xmlns="http://www.w3.org/2000/svg" xmlns:xlink="http://www.w3.org/1999/xlink"><style type="text/css">
	.st0{fill:#3F456B;}
</style><title/><g><path class="st0" d="M51.7,500.3c-1.3,0-2.6-0.5-3.5-1.5l-33.9-33.9c-2-2-2-5.1,0-7.1l62.2-62.2c0.9-0.9,2.2-1.5,3.5-1.5   s2.6,0.5,3.5,1.5l33.9,33.9c2,2,2,5.1,0,7.1l-62.2,62.2C54.3,499.7,53,500.3,51.7,500.3z M24.8,461.3l26.9,26.9l55.2-55.2L80,406.2   L24.8,461.3z"/></g><g><path class="st0" d="M355.7,129.7c-1.3,0-2.6-0.5-3.5-1.5l-21.9-21.9c-0.9-0.9-1.5-2.2-1.5-3.5s0.5-2.6,1.5-3.5l22.6-22.6   c2-2,5.1-2,7.1,0l21.9,21.9c2,2,2,5.1,0,7.1l-22.6,22.6C358.3,129.2,357,129.7,355.7,129.7z M340.9,102.8l14.8,14.8l15.6-15.6   l-14.8-14.8L340.9,102.8z"/></g><g><path class="st0" d="M412.3,186.3c-1.3,0-2.6-0.5-3.5-1.5l-21.9-21.9c-2-2-2-5.1,0-7.1l22.6-22.6c0.9-0.9,2.2-1.5,3.5-1.5   s2.6,0.5,3.5,1.5l21.9,21.9c2,2,2,5.1,0,7.1l-22.6,22.6C414.9,185.8,413.6,186.3,412.3,186.3z M397.5,159.4l14.8,14.8l15.6-15.6   L413,143.8L397.5,159.4z"/></g><g><path class="st0" d="M230.1,463.9c-7.2,0-15.7-2.5-24.1-10.9L61.5,308.5c-20.4-20.4-6.5-47.1,0.9-54.4L217.9,98.5   c7.4-7.4,19.4-7.4,26.8,0l169.8,169.8c3.6,3.6,5.6,8.3,5.6,13.4s-2,9.8-5.6,13.4L258.9,450.7c-2.6,2.6-9.8,9.1-19.7,11.9   C236.5,463.4,233.5,463.9,230.1,463.9z M231.3,103c-2.3,0-4.6,0.9-6.3,2.6L69.4,261.1c-2.2,2.2-6.4,8.7-8,16.3   c-1.9,9.3,0.5,17.3,7.1,24L213.1,446c7.2,7.2,14.8,9.5,23.3,7c7.8-2.2,13.7-7.7,15.3-9.4L407.4,288c1.7-1.7,2.6-3.9,2.6-6.3   s-0.9-4.6-2.6-6.3L237.6,105.6C235.9,103.9,233.6,103,231.3,103z"/></g><g><path class="st0" d="M396,262c-1.3,0-2.6-0.5-3.5-1.5c-2-2-2-5.1,0-7.1l95.9-95.9c2.1-2.1,2.1-5.4,0-7.5L363,24.5   c-1-1-2.3-1.6-3.8-1.6c-1.4,0-2.8,0.6-3.8,1.6l-95.9,95.9c-2,2-5.1,2-7.1,0c-2-2-2-5.1,0-7.1l95.9-95.9c6-6,15.7-6,21.7,0   l125.4,125.4c6,6,6,15.7,0,21.7l-95.9,95.9C398.6,261.5,397.3,262,396,262z"/></g><g><path class="st0" d="M125.8,445.8c-3.8,0-7.6-1.4-10.5-4.3l-43.8-43.8c-2.9-2.9-4.4-6.7-4.3-10.8c0.1-4,1.7-7.8,4.6-10.7l32.3-32.3   c2-2,5.1-2,7.1,0c2,2,2,5.1,0,7.1l-32.3,32.3c-1,1-1.6,2.4-1.7,3.8c0,1.3,0.5,2.6,1.4,3.5l43.8,43.8c0.9,0.9,2.2,1.4,3.5,1.4   c1.4,0,2.8-0.6,3.8-1.7l32.3-32.3c2-2,5.1-2,7.1,0c2,2,2,5.1,0,7.1l-32.3,32.3C133.8,444.3,129.8,445.8,125.8,445.8z"/></g><g><path class="st0" d="M381.2,300.1c-2-2-2-5.1,0-7.1l0,0c1.9-2,5.1-2,7.1,0l0,0c2,2,2,5.1,0,7.1l0,0c-1,1-2.3,1.5-3.5,1.5l0,0   C383.5,301.5,382.2,301.1,381.2,300.1z M367.1,285.9c-2-2-2-5.1,0-7.1l0,0c2-2,5.1-2,7.1,0l0,0c2,1.9,2,5.1,0,7.1l0,0   c-1,1-2.3,1.5-3.5,1.5l0,0C369.3,287.4,368,286.9,367.1,285.9z M352.9,271.8c-2-2-2-5.1,0-7.1l0,0c2-2,5.1-2,7.1,0l0,0   c1.9,2,1.9,5.1,0,7.1l0,0c-1,1-2.3,1.5-3.5,1.5l0,0C355.2,273.3,353.9,272.8,352.9,271.8z M338.8,257.7c-2-1.9-2-5.1,0-7.1l0,0   c2-1.9,5.1-1.9,7.1,0l0,0c2,2,2,5.1,0,7.1l0,0c-1,1-2.2,1.5-3.5,1.5l0,0C341,259.1,339.8,258.6,338.8,257.7z M324.6,243.5   c-2-2-2-5.1,0-7.1l0,0c2-2,5.1-2,7.1,0l0,0c1.9,2,1.9,5.1,0,7.1l0,0c-1,1-2.3,1.5-3.5,1.5l0,0C326.9,245,325.6,244.5,324.6,243.5z    M310.5,229.4c-2-1.9-2-5.1,0-7.1l0,0c1.9-2,5.1-2,7.1,0l0,0c2,1.9,2,5.1,0,7.1l0,0c-1,1-2.3,1.5-3.5,1.5l0,0   C312.7,230.8,311.5,230.4,310.5,229.4z M296.3,215.2c-2-1.9-2-5.1,0-7.1l0,0c2-2,5.1-2,7.1,0l0,0c2,2,2,5.1,0,7.1l0,0   c-1,1-2.3,1.5-3.5,1.5l0,0C298.6,216.7,297.3,216.2,296.3,215.2z M282.2,201.1c-2-2-2-5.1,0-7.1l0,0c2-2,5.1-2,7.1,0l0,0   c2,2,2,5.1,0,7.1l0,0c-1,1-2.2,1.5-3.5,1.5l0,0C284.5,202.6,283.2,202.1,282.2,201.1z M268.1,186.9c-2-2-2-5.1,0-7.1l0,0   c2-1.9,5.1-1.9,7.1,0l0,0c2,2,2,5.1,0,7.1l0,0c-1,1-2.2,1.5-3.5,1.5l0,0C270.3,188.4,269,187.9,268.1,186.9z M253.9,172.8   c-2-2-2-5.1,0-7.1l0,0c1.9-1.9,5.1-1.9,7.1,0l0,0c1.9,2,1.9,5.1,0,7.1l0,0c-1,1-2.3,1.5-3.5,1.5l0,0   C256.2,174.3,254.9,173.8,253.9,172.8z M239.8,158.7c-2-2-2-5.1,0-7.1l0,0c2-2,5.1-2,7.1,0l0,0c2,1.9,2,5.1,0,7.1l0,0   c-1,1-2.3,1.5-3.5,1.5l0,0C242,160.1,240.8,159.6,239.8,158.7z M225.6,144.5c-2-2-2-5.1,0-7.1l0,0c2-2,5.1-2,7.1,0l0,0   c1.9,2,1.9,5.1,0,7.1l0,0c-1,1-2.3,1.5-3.5,1.5l0,0C227.9,146,226.6,145.5,225.6,144.5z M211.5,130.4c-1.9-2-1.9-5.1,0-7.1l0,0   c2-2,5.1-2,7.1,0l0,0c2,2,2,5.1,0,7.1l0,0c-1,1-2.2,1.5-3.5,1.5l0,0C213.8,131.8,212.5,131.4,211.5,130.4z"/></g></svg>