<?xml version="1.0" ?><svg viewBox="0 0 512 512" xmlns="http://www.w3.org/2000/svg"><defs><style>.cls-1{fill:#3f456b;}</style></defs><title/><g id="Lines"><path class="cls-1" d="M253.55,100c-67,0-84.66-43-88.48-56.2-1.44-4.95-1.12-9.14.93-12.45a11.28,11.28,0,0,1,6.41-4.87l25.35-12.23.48-.2c4.41-1.58,7.49-.55,9.29.58A10.6,10.6,0,0,1,212.07,22c5,22.72,28.12,26.12,41.48,26.12a5,5,0,0,1,0,10c-16.67,0-29.77-4.2-38.93-12.5a40.58,40.58,0,0,1-12.37-21.7,2.48,2.48,0,0,1-.08-.49l0-.11-.31.09L176.31,35.7a2.88,2.88,0,0,1-1.18.41,1.25,1.25,0,0,0-.66.56c-.17.29-.63,1.47.2,4.35,3.33,11.49,18.85,49,78.88,49a5,5,0,0,1,0,10Z"/><path class="cls-1" d="M253.94,100a5,5,0,0,1,0-10c54,0,77.3-30.79,82.56-49,.86-3,.35-4.12.18-4.4a1.84,1.84,0,0,0-.53-.5,5.3,5.3,0,0,1-1-.31L305.76,23.42l-.41-.12a.52.52,0,0,0,0,.11,3.7,3.7,0,0,1-.09.49C303,34.18,293.6,58.1,253.94,58.1a5,5,0,0,1,0-10c13.36,0,36.47-3.4,41.48-26.12A10.6,10.6,0,0,1,300,14.63c1.81-1.13,4.88-2.16,9.29-.58l.25.1,29.12,12.29a11.32,11.32,0,0,1,6.56,4.91c2.05,3.31,2.36,7.5.93,12.45C340.07,64.68,313.86,100,253.94,100Z"/><path class="cls-1" d="M255.16,30.3C226,30.3,204.36,24,203,23.61A5,5,0,1,1,205.86,14c.65.19,48,13.84,95.94,0a5,5,0,1,1,2.78,9.6A178.45,178.45,0,0,1,255.16,30.3Z"/><path class="cls-1" d="M381.17,436H127.84c-6.78,0-12-2.05-15.47-6.1-4.66-5.42-4.3-12.29-4.09-14.21V163a5,5,0,0,1,10,0V416a4.52,4.52,0,0,1-.06.74h0s-.5,4.1,1.76,6.68c1.51,1.71,4.15,2.58,7.86,2.58H381.17c4.63,0,7.71-1.58,9.43-4.83A13.19,13.19,0,0,0,392,416V163a5,5,0,1,1,10,0V416C402,424,396.45,436,381.17,436Z"/><path class="cls-1" d="M75.09,464.06c-.65,0-1.16,0-1.5-.07l-46.7-2c-6.71,0-10.6-2.86-12.69-5.24-5-5.65-4.36-13.61-4.18-15.21,1-16.19,1.89-32.67,2.76-48.61,2-36.35,4-73.94,7.28-110.78q.48-5.48,1-10.93c4.06-46.93,8.26-95.47,24.35-141.81a111,111,0,0,1,11.92-23.59C76.54,75.75,123,45.61,167.76,34.16a5,5,0,1,1,2.48,9.68c-41.86,10.71-86.8,39.68-104.53,67.38a101.57,101.57,0,0,0-10.9,21.48C39.12,177.86,35.16,223.64,31,272.09c-.31,3.65-.63,7.29-.95,10.94-3.22,36.68-5.27,74.18-7.26,110.45C21.89,409.49,21,426,20,442.3l0,.35c-.16,1.34-.16,5.35,1.77,7.53.4.45,1.62,1.82,5.27,1.82h.21l47,2a3.55,3.55,0,0,1,.56.06h0a6.58,6.58,0,0,0,4.44-1.41c2-1.63,3.36-4.8,3.82-9.17.42-4,1.17-13.73,2.21-27.21,3.84-49.79,11.84-153.41,23.1-225.54a5,5,0,1,1,9.88,1.54C107,264,99,367.37,95.21,417c-1,13.56-1.8,23.35-2.24,27.48-.77,7.34-3.38,12.77-7.76,16.14A16.6,16.6,0,0,1,75.09,464.06Z"/><path class="cls-1" d="M75,501h-.27l-55-3A5,5,0,0,1,15,492.85l1.09-37.19a5,5,0,0,1,10,.29l-.95,32.32,45.44,2.48,3.91-33.11a5,5,0,1,1,9.93,1.17L80,496.59A5,5,0,0,1,75,501Z"/><path class="cls-1" d="M436,464.06a16.59,16.59,0,0,1-10.11-3.4c-4.38-3.37-7-8.8-7.76-16.14-.44-4.13-1.19-13.92-2.24-27.48-3.84-49.67-11.81-153-23-224.77a5,5,0,0,1,9.88-1.54C414,262.86,422,366.48,425.84,416.27c1,13.48,1.79,23.21,2.21,27.21.46,4.37,1.78,7.54,3.82,9.17a6.59,6.59,0,0,0,4.53,1.4,2.42,2.42,0,0,1,.47-.05l47-2h.21c3.65,0,4.87-1.37,5.27-1.82,1.93-2.18,1.93-6.19,1.77-7.55a1.84,1.84,0,0,1,0-.33c-1-16.27-1.9-32.82-2.78-48.82-2-36.27-4-73.77-7.25-110.45-.33-3.65-.64-7.29-1-10.94-4.18-48.45-8.14-94.23-23.83-139.39a101.57,101.57,0,0,0-10.9-21.48c-18.1-28.28-58.28-54.89-104.86-69.45a5,5,0,0,1,3-9.54c48.73,15.22,91,43.43,110.3,73.6a111,111,0,0,1,11.93,23.59c16.09,46.34,20.29,94.88,24.35,141.81q.46,5.46.95,10.93c3.24,36.84,5.29,74.42,7.28,110.77.87,16,1.78,32.53,2.77,48.76h0a21.36,21.36,0,0,1-2.65,13c-2.05,3.31-6.17,7.25-14.2,7.29l-46.7,2C437.15,464,436.64,464.06,436,464.06Z"/><path class="cls-1" d="M436.07,501a5,5,0,0,1-5-4.41l-4.45-37.78a5,5,0,1,1,9.93-1.17l3.9,33.11,45.45-2.48L485,456a5,5,0,0,1,10-.29l1.1,37.19a5,5,0,0,1-4.73,5.14l-55,3Z"/><path class="cls-1" d="M386,477H124a5,5,0,0,1-5-5V431a5,5,0,0,1,10,0v36H381V431a5,5,0,0,1,10,0v41A5,5,0,0,1,386,477Z"/></g><g id="Outline"><path class="cls-1" d="M254.27,100a5,5,0,0,1-5-5V53.62a5,5,0,1,1,10,0V95A5,5,0,0,1,254.27,100Z"/><path class="cls-1" d="M224.48,96.69a4.91,4.91,0,0,1-1.75-.32,5,5,0,0,1-2.93-6.44l14.9-39.72a5,5,0,0,1,9.36,3.52L229.17,93.45A5,5,0,0,1,224.48,96.69Z"/><path class="cls-1" d="M194.69,82.62A5,5,0,0,1,191,74.29L219.1,42.84a5,5,0,1,1,7.45,6.67L198.42,81A5,5,0,0,1,194.69,82.62Z"/><path class="cls-1" d="M175.44,60.69a5,5,0,0,1-2.61-9.27l35.94-21.91A5,5,0,1,1,214,38L178,60A5,5,0,0,1,175.44,60.69Z"/><path class="cls-1" d="M283,96.69a5,5,0,0,1-4.68-3.24l-14.9-39.73a5,5,0,0,1,9.37-3.51l14.89,39.72A5,5,0,0,1,283,96.69Z"/><path class="cls-1" d="M312.8,82.62A5,5,0,0,1,309.07,81L280.94,49.51a5,5,0,1,1,7.45-6.67l28.14,31.45a5,5,0,0,1-3.73,8.33Z"/><path class="cls-1" d="M332.06,60.69a4.93,4.93,0,0,1-2.6-.73L293.52,38a5,5,0,1,1,5.21-8.53l35.93,21.91a5,5,0,0,1-2.6,9.27Z"/><path class="cls-1" d="M267.44,474.44a5,5,0,0,1-5-5V431a5,5,0,0,1,10,0v38.44A5,5,0,0,1,267.44,474.44Z"/><path class="cls-1" d="M243.56,474.44a5,5,0,0,1-5-5V431a5,5,0,0,1,10,0v38.44A5,5,0,0,1,243.56,474.44Z"/><path class="cls-1" d="M195.78,474.44a5,5,0,0,1-5-5V431a5,5,0,0,1,10,0v38.44A5,5,0,0,1,195.78,474.44Z"/><path class="cls-1" d="M219.67,474.44a5,5,0,0,1-5-5V431a5,5,0,0,1,10,0v38.44A5,5,0,0,1,219.67,474.44Z"/><path class="cls-1" d="M148,474.44a5,5,0,0,1-5-5V431a5,5,0,0,1,10,0v38.44A5,5,0,0,1,148,474.44Z"/><path class="cls-1" d="M171.89,474.44a5,5,0,0,1-5-5V431a5,5,0,0,1,10,0v38.44A5,5,0,0,1,171.89,474.44Z"/><path class="cls-1" d="M363,474.44a5,5,0,0,1-5-5V431a5,5,0,0,1,10,0v38.44A5,5,0,0,1,363,474.44Z"/><path class="cls-1" d="M339.11,474.44a5,5,0,0,1-5-5V431a5,5,0,0,1,10,0v38.44A5,5,0,0,1,339.11,474.44Z"/><path class="cls-1" d="M315.22,474.44a5,5,0,0,1-5-5V431a5,5,0,0,1,10,0v38.44A5,5,0,0,1,315.22,474.44Z"/><path class="cls-1" d="M472.92,497.42a5,5,0,0,1-5-4.72l-1.89-33.95a5,5,0,1,1,10-.56l1.89,33.95a5,5,0,0,1-4.71,5.27Z"/><path class="cls-1" d="M453,498.53a5,5,0,0,1-5-4.72l-1.89-33.95a5,5,0,1,1,10-.56L458,493.25a5,5,0,0,1-4.71,5.27Z"/><path class="cls-1" d="M38.08,497.42h-.29a5,5,0,0,1-4.71-5.27L35,458.19a5,5,0,0,1,10,.56L43.06,492.7A5,5,0,0,1,38.08,497.42Z"/><path class="cls-1" d="M58.05,498.53h-.29a5,5,0,0,1-4.71-5.27l1.89-33.95a5,5,0,1,1,10,.56L63,493.81A5,5,0,0,1,58.05,498.53Z"/><path class="cls-1" d="M291.33,474.44a5,5,0,0,1-5-5V431a5,5,0,0,1,10,0v38.44A5,5,0,0,1,291.33,474.44Z"/></g></svg>