<?xml version="1.0" ?><svg viewBox="0 0 512 512" xmlns="http://www.w3.org/2000/svg"><defs><style>.cls-1{fill:#3f456b;}</style></defs><title/><g id="Lines"><path class="cls-1" d="M466,358H46a35,35,0,0,1-35-35V96A35,35,0,0,1,46,61H466a35,35,0,0,1,35,35V323A35,35,0,0,1,466,358ZM46,71A25,25,0,0,0,21,96V323a25,25,0,0,0,25,25H466a25,25,0,0,0,25-25V96a25,25,0,0,0-25-25Z"/><path class="cls-1" d="M256.3,257.22a65.94,65.94,0,0,1-17.59-2.39l-206.95-53-.17,0C21,198.69,16,192,13.6,187A26.47,26.47,0,0,1,11,176.5a5,5,0,0,1,10,0c0,1.17.58,11.88,13.33,15.68l206.91,53,.1,0c16.28,4.53,28.85.16,29,.11a3.19,3.19,0,0,1,.44-.13l206.91-53C490.85,188.26,491,176.62,491,176.5a5,5,0,0,1,10,0c0,6.66-4.3,20.51-20.59,25.3l-.17,0-206.81,53A57.13,57.13,0,0,1,256.3,257.22Z"/><path class="cls-1" d="M97,70a5,5,0,0,1-5-5V58a5,5,0,0,0-5-5H74a5,5,0,0,0-5,5v7a5,5,0,0,1-10,0V58A15,15,0,0,1,74,43H87a15,15,0,0,1,15,15v7A5,5,0,0,1,97,70Z"/><path class="cls-1" d="M449,70a5,5,0,0,1-5-5V58a5,5,0,0,0-5-5H426a5,5,0,0,0-5,5v7a5,5,0,0,1-10,0V58a15,15,0,0,1,15-15h13a15,15,0,0,1,15,15v7A5,5,0,0,1,449,70Z"/><path class="cls-1" d="M267,226H245a15,15,0,0,1-15-15V157a15,15,0,0,1,15-15h22a15,15,0,0,1,15,15v54A15,15,0,0,1,267,226Zm-22-74a5,5,0,0,0-5,5v54a5,5,0,0,0,5,5h22a5,5,0,0,0,5-5V157a5,5,0,0,0-5-5Z"/><path class="cls-1" d="M495.88,500H438.12a5,5,0,0,1-5-5V415c0-9.53,2.95-17.16,8.77-22.69,9.4-8.92,23-8.88,25.11-8.81s15.71-.11,25.11,8.81c5.82,5.53,8.77,13.16,8.77,22.69v80A5,5,0,0,1,495.88,500Zm-52.76-10h47.76V415c0-6.65-1.89-11.83-5.61-15.39-6.84-6.54-17.92-6.12-18-6.12h-.48c-.16,0-11.21-.4-18,6.12-3.72,3.56-5.61,8.74-5.61,15.39Z"/><path class="cls-1" d="M256,501c-60.15,0-106.75-16.21-138.5-48.19C75.09,410.1,75,355.28,75,353a5,5,0,0,1,5-5h0a5,5,0,0,1,5,5c0,.52.21,53.15,39.7,92.82C154.51,475.81,198.68,491,256,491s101.49-15.19,131.3-45.14C426.79,406.19,427,353.56,427,353V66a5,5,0,0,1,10,0V353c0,2.28-.09,57.1-42.5,99.81C362.75,484.79,316.15,501,256,501Z"/><path class="cls-1" d="M467,393a5,5,0,0,1-5-5V353a5,5,0,0,1,10,0v35A5,5,0,0,1,467,393Z"/></g><g id="Outline"><path class="cls-1" d="M458,500a5,5,0,0,1-5-5V427a5,5,0,0,1,10,0v68A5,5,0,0,1,458,500Z"/><path class="cls-1" d="M477,500a5,5,0,0,1-5-5V427a5,5,0,0,1,10,0v68A5,5,0,0,1,477,500Z"/></g></svg>