<?xml version="1.0" ?><svg viewBox="0 0 512 512" xmlns="http://www.w3.org/2000/svg"><defs><style>.cls-1{fill:#3f456b;}</style></defs><title/><g id="Lines"><path class="cls-1" d="M104.22,61.23c-6.57,0-15.71-2.06-24.56-10.93C63.62,34.23,69.48,16.71,69.73,16a5,5,0,0,1,2.42-2.79c.77-.4,19-9.53,36.57,8.13,9.15,9.17,10.75,18.42,10.48,24.58a27.08,27.08,0,0,1-3.06,11.65,5,5,0,0,1-2.49,2.16A27.51,27.51,0,0,1,104.22,61.23ZM78.72,21.32c-.63,4-.77,13.11,8,21.92s17.69,8.37,21.44,7.63a19.55,19.55,0,0,0,1-5.85c.12-5.88-2.43-11.48-7.59-16.65C92.1,18.81,82.69,20.13,78.72,21.32Z"/><path class="cls-1" d="M433.26,447c-6.57,0-15.7-2.06-24.55-10.93-16-16.08-10.19-33.59-9.93-34.33A4.93,4.93,0,0,1,401.2,399c.76-.4,18.95-9.53,36.57,8.12,9.15,9.17,10.75,18.43,10.48,24.58a27,27,0,0,1-3.07,11.66,5,5,0,0,1-2.49,2.16A27.73,27.73,0,0,1,433.26,447ZM407.77,407.1c-.63,4-.78,13.1,8,21.92s17.73,8.38,21.43,7.64a19.25,19.25,0,0,0,1-5.86c.13-5.88-2.42-11.48-7.58-16.65C421.15,404.59,411.74,405.91,407.77,407.1Z"/><path class="cls-1" d="M135.71,151a32.53,32.53,0,0,1-20.61-7.1,5,5,0,0,1-1.65-3.31c-.07-.85-1.53-21.15,21.54-30.65,12-4.93,21.14-2.86,26.72-.25a27.27,27.27,0,0,1,9.59,7.3,5.05,5.05,0,0,1,1,3.13c0,.78-.57,19.07-21.71,27.78A39,39,0,0,1,135.71,151Zm-12.22-13.35c3.46,2.12,11.81,5.74,23.32,1s14.55-13.19,15.28-16.88c-2.91-2.61-10.72-7.76-23.3-2.58S123.91,133.54,123.49,137.66Z"/><path class="cls-1" d="M323.6,229.69a5,5,0,0,1-5-4.53c0-.51-1.09-12.61,6.65-21.11,4.74-5.21,11.53-7.85,20.16-7.85,9,0,15.92,2.66,20.71,7.9,7.27,8,6.36,18.86,6.31,19.32a5,5,0,1,1-9.95-.92s.5-7.06-3.8-11.71c-2.81-3-7.28-4.59-13.27-4.59-5.7,0-10,1.54-12.77,4.58-4.71,5.18-4.09,13.36-4.08,13.44a5,5,0,0,1-4.51,5.44Z"/><path class="cls-1" d="M72.35,502.46a16.76,16.76,0,0,1-12.62-5.16c-5.85-6.26-5.65-15.82-5.55-17.61V413.37c0-9.25,6.41-13,9.93-13.69,16.4-3.87,27.91-11.26,34.2-21.95,9.16-15.58,4.26-33.42,4.21-33.6a5,5,0,0,1,9.6-2.77c.26.89,6.18,22-5.13,41.33-7.72,13.22-21.41,22.22-40.68,26.74-.17,0-.08,0-.17,0-.77.25-2,1.09-2,3.9v66.47c0,.11,0,.23,0,.34-.11,1.88.19,7.45,2.89,10.32.79.84,2.2,2,5.29,2,4.91,0,10.55-1.44,10.55-12.62V427.69a5,5,0,0,1,5.71-5c.13,0,14.34,1.89,27.13-4a5,5,0,1,1,4.17,9.08c-10.14,4.67-20.71,5.34-27,5.21v46.81C92.9,494,85.22,502.46,72.35,502.46Zm-6.28-93Zm-.9-4.92Z"/><path class="cls-1" d="M340.11,503.37a19.24,19.24,0,0,1-12.25-4.05c-6.47-5.11-7.91-13.13-8.19-15.31-.85-3.19-6.67-25.24-8-32.56a.5.5,0,0,1,0-.12c-.1-.65-2.4-16-2.08-25.2.3-8.66.17-66.6.16-67.18a5,5,0,0,1,5-5h0a5,5,0,0,1,5,5c0,2.39.14,58.7-.16,67.54-.28,8,1.8,22.26,2,23.3,1.31,7.39,7.79,31.77,7.85,32a5.64,5.64,0,0,1,.15.82s.66,5.88,4.53,8.89c2.11,1.65,4.88,2.2,8.48,1.68,4.7-.66,7.8-2.34,9.2-5,2.55-4.79-.13-12.63-1.27-15a4.66,4.66,0,0,1-.39-1.16c-2.47-12-6.35-27.72-6.39-27.88a5.37,5.37,0,0,1-.14-1c0-.35-.35-8.7,0-18.73.34-9.77.48-65.46.48-66a5,5,0,0,1,5-5h0a5,5,0,0,1,5,5c0,2.3-.14,56.41-.49,66.33-.28,8.31-.08,15.58,0,17.49.67,2.77,4,16.34,6.23,27.19,1.3,2.95,5.71,14.25.8,23.45-3,5.59-8.58,9-16.61,10.15A27.63,27.63,0,0,1,340.11,503.37Z"/><path class="cls-1" d="M153.68,502.93c-11,0-17.87-9.85-20.17-15.78l-.08-.21c-.73-2.18-18-53.5-20.43-62.35-2.6-9.56,4.41-17.5,9-20.76,8.35-6.47,12.44-13.42,12.15-20.66-.64-16.24-21.88-30.28-22.09-30.42l-.14-.09c-17.27-12-27.31-26.32-29.85-42.43-2.42-15.45,3-29.19,8.39-36.27,1.07-1.4,1.47-2.55,1.21-3.41-.72-2.3-5.29-4.69-7.46-5.4a4.87,4.87,0,0,1-1.15-.55C48,242,45.85,221.47,50.25,208.25c2-6.16,5.26-10,9.57-11.45a12.41,12.41,0,0,1,10.48,1.52L96.42,216.7c21.56,15.52,39.6,17.68,41.37,17.85h135c18.33,0,28.53-8.43,30.35-25.05a5,5,0,0,1,9.94,1.08c-2.36,21.59-17,34-40.29,34H137.23c-.87-.06-21.59-1.68-46.61-19.69L64.69,206.6a2.43,2.43,0,0,0-1.73-.3c-.84.3-2.13,1.81-3.22,5.1-5.88,17.7,12,33.9,28.29,44.48,2.6,1,11,4.56,13.23,11.69.89,2.84,1.12,7.3-2.79,12.45-4.2,5.51-8.4,16.32-6.47,28.66,2.09,13.3,10.72,25.32,25.63,35.73,1.84,1.21,25.71,17.29,26.56,38.33.44,10.7-5,20.49-16.13,29.09l-.21.15s-6.62,4.75-5.2,10c2.27,8.35,19.2,58.64,20.21,61.64.44,1.06,4.86,11.1,13.24,9,4-1,6.52-2.61,7.57-4.81,1.48-3.06-.11-6.95-.13-7a3.05,3.05,0,0,1-.13-.32l-19.15-51.05a5,5,0,0,1,3.07-6.49,64,64,0,0,0,16.94-9.72c10.91-8.71,16.8-19.44,17.51-31.87,1.06-18.52-3.36-28.43-3.41-28.53a5,5,0,0,1,7.4-6.2c.14.09,19.52,12.47,80.23,9.59a5,5,0,0,1,5.23,5,166.61,166.61,0,0,1-7.4,44.83,5.45,5.45,0,0,1-.53,1.15,36.06,36.06,0,0,0-4,17.18v55.46c0,.11,0,.23,0,.34-.11,1.88.19,7.45,2.89,10.32.79.84,2.2,2,5.29,2,4.92,0,10.56-1.44,10.56-12.62V433.67c-.11-1.72-.26-9.36,5.29-13.52.24-.19.56-.41.93-.67,15.33-10.81,23.1-31.34,23.1-61a5,5,0,0,1,6-4.91c21.81,4.35,42,.52,55.5-10.52,13.09-10.73,19.72-27.65,19.72-50.28a318.39,318.39,0,0,0-10.16-78.66,5,5,0,1,1,9.67-2.54,328.7,328.7,0,0,1,10.49,81.2c0,25.41-8.08,45.47-23.38,58-14.52,11.92-35.38,16.76-57.92,13.6-1,30-10.2,51.26-27.24,63.28l-.69.5c-1.12.84-1.41,3.62-1.31,4.92,0,.12,0,.29,0,.41v46.36c0,14.16-7.69,22.62-20.56,22.62a16.75,16.75,0,0,1-12.61-5.16c-5.86-6.26-5.65-15.82-5.56-17.61V424.38a46.58,46.58,0,0,1,5.18-21.82A164.37,164.37,0,0,0,261,366.44c-37.35,1.27-59.08-3.21-70.47-7a93.94,93.94,0,0,1,1.22,22.46c-1.68,29.33-25.91,43.66-36.44,48.52l17.41,46.41c.61,1.43,3.26,8.41,0,15.28-2.4,5-7.16,8.41-14.14,10.17A20.24,20.24,0,0,1,153.68,502.93Z"/><path class="cls-1" d="M345.42,235.33c-34.47,0-48.11-33.43-49.19-36.23-7.43-17-9-30.64-9.23-37.76-7.07-.47-19.56-2.56-27.73-11-5.94-6.15-8.5-14.36-7.61-24.39a5,5,0,0,1,5-4.56h39.52c4.43-5.64,17.75-17.76,50.5-17.76,17.19,0,31,3.25,41,9.67a34.36,34.36,0,0,1,9,8.09h37.07a5,5,0,0,1,4.9,4c2.07,10,.39,18.28-5,24.56-7.57,8.83-20.52,11-27.82,11.43-.19,7.18-1.81,20.89-9.84,38.54C395.1,202,380.07,235.33,345.42,235.33Zm-53.35-83.89a5,5,0,0,1,5,5.51c0,.14-1.37,15.94,8.39,38.25l.1.25c.46,1.21,11.67,29.88,39.88,29.88,28.51,0,41.31-29.15,41.44-29.44l0-.11c10.55-23.14,8.89-38.58,8.87-38.73a5,5,0,0,1,5.22-5.6c.17,0,17.6.73,25.12-8.07,2.64-3.08,3.75-7,3.36-12H394a5,5,0,0,1-4.54-2.9c0-.06-8-14.86-42.81-14.86s-43.34,14.89-43.42,15.05a4.88,4.88,0,0,1-4.44,2.71H261.53a18.09,18.09,0,0,0,4.93,12c8.42,8.73,25.18,8.1,25.35,8.09Z"/><path class="cls-1" d="M445.25,87.38a74,74,0,0,1-15.15-1.72,5,5,0,0,1,2.06-9.79c13.82,2.91,23.93,1.65,30.07-3.72,7.43-6.51,6.81-17.53,6.81-17.64a5,5,0,0,1,10-.76c.05.65,1.07,16-10.19,25.92C463,84.81,455.06,87.38,445.25,87.38Z"/><path class="cls-1" d="M245.79,87.38c-9.81,0-17.7-2.57-23.56-7.71C211,69.8,212,54.4,212,53.75a5,5,0,0,1,10,.74c0,.2-.61,11.21,6.87,17.71,6.14,5.33,16.24,6.57,30,3.67a5,5,0,1,1,2.05,9.79A73.91,73.91,0,0,1,245.79,87.38Z"/><path class="cls-1" d="M381,116.53q-6,0-12.5-.58a5,5,0,1,1,.88-10c25.06,2.23,42.09-2.3,50.62-13.47,12.6-16.5,3-43,2.9-43.28a5,5,0,0,1,9.37-3.49c.48,1.29,11.64,31.88-4.29,52.8C418.83,110.51,403.06,116.53,381,116.53Z"/><path class="cls-1" d="M368.9,116a5,5,0,0,1-1.37-9.81c6-1.72,10.13-4.75,12.55-9.25,4.89-9.11,1.15-21.24,1.11-21.36a5,5,0,0,1,9.52-3.06c.21.66,5.1,16.19-1.78,29.08-3.71,7-10,11.73-18.66,14.21A5,5,0,0,1,368.9,116Z"/><path class="cls-1" d="M310.42,116.53c-22.1,0-37.87-6-47-18-15.93-20.92-4.77-51.51-4.29-52.8a5,5,0,0,1,9.37,3.5c-.1.26-9.7,26.77,2.9,43.27C280,103.69,297,108.22,322,106a5,5,0,1,1,.88,10Q316.37,116.54,310.42,116.53Z"/><path class="cls-1" d="M322.48,116a5,5,0,0,1-1.37-.19c-8.67-2.48-14.95-7.26-18.66-14.21-6.88-12.89-2-28.42-1.78-29.08a5,5,0,0,1,9.52,3.06c-.06.19-3.77,12.28,1.11,21.36,2.42,4.5,6.53,7.53,12.55,9.25a5,5,0,0,1-1.37,9.81Z"/><path class="cls-1" d="M183.39,356.92a5,5,0,0,1-4.77-3.52c0-.1-3.26-10.34-7.68-17.41a5,5,0,1,1,8.48-5.3c5.11,8.18,8.6,19.27,8.74,19.74a5,5,0,0,1-3.28,6.26A5.19,5.19,0,0,1,183.39,356.92Z"/><path class="cls-1" d="M380.53,173.18a4.89,4.89,0,0,1-1.79-.33,5,5,0,0,1-2.88-6.46l.32-.84a5,5,0,1,1,9.34,3.58l-.32.84A5,5,0,0,1,380.53,173.18Z"/><path class="cls-1" d="M309.9,173.2a5,5,0,0,1-4.84-3.76l-.22-.87a5,5,0,1,1,9.68-2.48l.23.87a5,5,0,0,1-3.61,6.08A4.8,4.8,0,0,1,309.9,173.2Z"/><path class="cls-1" d="M292,164.84a5,5,0,0,1-5-4.83,83.82,83.82,0,0,1,1.29-15,5,5,0,0,1,9.84,1.8A74.43,74.43,0,0,0,297,159.68a5,5,0,0,1-4.83,5.16Z"/><path class="cls-1" d="M400.65,164.84h-.17a5,5,0,0,1-4.83-5.16,73.88,73.88,0,0,0-1.13-12.83,5,5,0,0,1,9.84-1.81,83.21,83.21,0,0,1,1.28,15A5,5,0,0,1,400.65,164.84Z"/></g><g id="Outline"><path class="cls-1" d="M265,271.68H247.63a5,5,0,1,1,0-10H265a5,5,0,0,1,0,10Z"/><path class="cls-1" d="M223.48,271.68H206.09a5,5,0,1,1,0-10h17.39a5,5,0,0,1,0,10Z"/><path class="cls-1" d="M181.94,271.68H164.55a5,5,0,0,1,0-10h17.39a5,5,0,0,1,0,10Z"/><path class="cls-1" d="M243.77,292H226.38a5,5,0,0,1,0-10h17.39a5,5,0,1,1,0,10Z"/><path class="cls-1" d="M202.23,292H184.84a5,5,0,1,1,0-10h17.39a5,5,0,0,1,0,10Z"/><path class="cls-1" d="M265,316.12H247.63a5,5,0,0,1,0-10H265a5,5,0,0,1,0,10Z"/></g></svg>