<?xml version="1.0" ?><svg viewBox="0 0 512 512" xmlns="http://www.w3.org/2000/svg"><defs><style>.cls-1{fill:#3f456b;}</style></defs><title/><g id="Lines"><path class="cls-1" d="M94.79,442.82H70c-14.13,0-25.63-11.77-25.63-26.24V382.94a5,5,0,0,1,10,0v33.64c0,9,7,16.24,15.63,16.24H94.79c8.62,0,15.63-7.28,15.63-16.24V382.94a5,5,0,0,1,10,0v33.64C120.42,431.05,108.92,442.82,94.79,442.82Z"/><path class="cls-1" d="M439.3,442.82H414.54c-14.13,0-25.63-11.77-25.63-26.24v-32a5,5,0,0,1,10,0v32c0,9,7,16.24,15.63,16.24H439.3c8.63,0,15.64-7.28,15.64-16.24v-32a5,5,0,0,1,10,0v32C464.94,431.05,453.44,442.82,439.3,442.82Z"/><path class="cls-1" d="M463.78,387.94H327.5a5,5,0,0,1,0-10H463.78c4.61,0,8.1-1.32,10.67-4.05,5.67-6,5.18-17,5.17-17.09s0-.2,0-.31V291.34c0-.34,1-35.15-20.43-51.14-1.11-.87-25.56-20.08-30.71-41.81l-11.22-47.91c-.36-1.48-9.35-36.67-48-36.67H141.69C103,113.81,94,149,93.68,150.5L82.47,198.37c-5,21.19-28.38,40-30.52,41.67-21.51,19-20.64,51-20.63,51.3v65.15c0,.11,0,.21,0,.31s-.53,11.07,5.2,17.12c2.56,2.71,6,4,10.64,4H181.88a5,5,0,0,1,0,10H47.15c-7.41,0-13.45-2.42-17.95-7.2-8.28-8.8-8-22.56-7.88-24.37V291.61c-.08-2.6-.69-37.43,24.14-59.18l.23-.18c.22-.18,22.71-17.89,27-36.17L84,148.2A64.33,64.33,0,0,1,95.07,126c7.81-10.14,22.24-22.21,46.62-22.21H369.24c24.38,0,38.81,12.07,46.62,22.21A64.51,64.51,0,0,1,427,148.18l11.22,47.91c4.35,18.33,26.82,36,27.05,36.16,25.16,18.8,24.45,56.64,24.36,59.36v64.76c.08,1.81.41,15.57-7.88,24.37C477.24,385.52,471.2,387.94,463.78,387.94Z"/><path class="cls-1" d="M491.19,203.92H458.92a14.05,14.05,0,0,1-14-14V170.21a14.05,14.05,0,0,1,14-14h32.27a14,14,0,0,1,14,14v19.68A14,14,0,0,1,491.19,203.92Zm-32.27-37.74a4,4,0,0,0-4,4v19.68a4,4,0,0,0,4,4h32.27a4,4,0,0,0,4-4V170.21a4,4,0,0,0-4-4Z"/><path class="cls-1" d="M54.16,203.92H21.89a14,14,0,0,1-14-14V170.21a14,14,0,0,1,14-14H54.16a14,14,0,0,1,14,14v19.68A14,14,0,0,1,54.16,203.92ZM21.89,166.18a4,4,0,0,0-4,4v19.68a4,4,0,0,0,4,4H54.16a4,4,0,0,0,4-4V170.21a4,4,0,0,0-4-4Z"/><path class="cls-1" d="M443,218.52a5,5,0,0,1-2.87-9.09L458,196.86a5,5,0,1,1,5.75,8.18l-17.91,12.57A5,5,0,0,1,443,218.52Z"/><path class="cls-1" d="M422.22,154.34a5,5,0,0,1-4.81-3.66C417.21,150,397.21,81,344.92,81H166.12c-52.4,0-72.29,69-72.49,69.68A5,5,0,0,1,84,148a147.82,147.82,0,0,1,18-38.1C119,84.45,141.14,71,166.12,71h178.8c25,0,47.14,13.45,64.11,38.89A148.22,148.22,0,0,1,427,148a5,5,0,0,1-3.47,6.16A4.89,4.89,0,0,1,422.22,154.34Z"/><path class="cls-1" d="M459.78,358.72H49.12c-10,0-17.5-2.59-22.39-7.71a19,19,0,0,1-5.4-13.31,5,5,0,0,1,10,.37,9.33,9.33,0,0,0,2.75,6.16c2.92,2.94,8.12,4.49,15,4.49H459.78c.18,0,18.82-.2,19.53-11.12a5,5,0,0,1,10,.64c-.55,8.54-6.26,15-16.07,18.26A47.73,47.73,0,0,1,459.78,358.72Z"/><path class="cls-1" d="M327,411.1H183a5,5,0,0,1-5-5V353.62a5,5,0,0,1,5-5H327a5,5,0,0,1,5,5V406.1A5,5,0,0,1,327,411.1Zm-139-10H322V358.62H188Z"/><path class="cls-1" d="M436.54,212.28a3.17,3.17,0,0,1-.43,0c-176.66-15.09-359.47-.15-361.3,0a5,5,0,1,1-.83-10c1.83-.15,185.46-15.17,363,0a5,5,0,0,1-.42,10Z"/><path class="cls-1" d="M420,329a37,37,0,1,1,37-37A37,37,0,0,1,420,329Zm0-64a27,27,0,1,0,27,27A27,27,0,0,0,420,265Z"/><path class="cls-1" d="M96,329a37,37,0,1,1,37-37A37,37,0,0,1,96,329Zm0-64a27,27,0,1,0,27,27A27,27,0,0,0,96,265Z"/><path class="cls-1" d="M334.06,337H181.5c-14.41,0-19.31-10.41-19.95-16.23-.61-2.87-5-24.33-4-39.1.4-6,2.54-10.7,6.35-14a20.46,20.46,0,0,1,13.6-4.66c5.27-.31,83.25-4.78,160.64,0a20.43,20.43,0,0,1,13.59,4.66c3.82,3.32,6,8,6.35,14,1,14.77-3.43,36.23-4,39.1C353.36,326.59,348.47,337,334.06,337ZM176.63,273c-2.52,0-8.58.91-9.14,9.36-.94,14.13,3.85,36.38,3.9,36.61s.07.43.09.64c.19,1.69,1.49,7.42,10,7.42H334.06c8.52,0,9.82-5.73,10-7.48a3.69,3.69,0,0,1,.09-.58c.05-.22,4.84-22.5,3.9-36.61-.61-9.1-7.59-9.45-9.7-9.34h-.62c-79.22-4.92-159.14-.05-159.94,0h-.67Z"/><path class="cls-1" d="M25.79,286.78a4.82,4.82,0,0,1-1.12-.13L17.6,285a15,15,0,0,1-11.29-18l2.45-10.72a15,15,0,0,1,18-11.29l9.63,2.19A5,5,0,1,1,34.12,257l-9.62-2.19a5,5,0,0,0-6,3.76L16.06,269.3a5,5,0,0,0,3.77,6l7.07,1.61a5,5,0,0,1-1.11,9.88Z"/><path class="cls-1" d="M485.39,286.78a5,5,0,0,1-1.11-9.88l7.07-1.61a5,5,0,0,0,3.76-6l-2.44-10.72a5,5,0,0,0-2.22-3.11,4.93,4.93,0,0,0-3.77-.65L477.05,257a5,5,0,1,1-2.22-9.75l9.63-2.19a15,15,0,0,1,18,11.29l2.44,10.72a15,15,0,0,1-11.29,18l-7.07,1.61A4.67,4.67,0,0,1,485.39,286.78Z"/></g><g id="Outline"><path class="cls-1" d="M300.62,379.74a5,5,0,0,1,5-5h0a5,5,0,0,1,5,5h0a5,5,0,0,1-5,5h0A5,5,0,0,1,300.62,379.74Zm-20,0a5,5,0,0,1,5-5h0a5,5,0,0,1,5,5h0a5,5,0,0,1-5,5h0A5,5,0,0,1,280.62,379.74Zm-20,0a5,5,0,0,1,5-5h0a5,5,0,0,1,5,5h0a5,5,0,0,1-5,5h0A5,5,0,0,1,260.62,379.74Zm-20,0a5,5,0,0,1,5-5h0a5,5,0,0,1,5,5h0a5,5,0,0,1-5,5h0A5,5,0,0,1,240.62,379.74Zm-20,0a5,5,0,0,1,5-5h0a5,5,0,0,1,5,5h0a5,5,0,0,1-5,5h0A5,5,0,0,1,220.62,379.74Zm-20,0a5,5,0,0,1,5-5h0a5,5,0,0,1,5,5h0a5,5,0,0,1-5,5h0A5,5,0,0,1,200.62,379.74Z"/><path class="cls-1" d="M50.18,403.68a5,5,0,0,1,0-10H67.53a5,5,0,0,1,0,10Z"/><path class="cls-1" d="M50,422.27a5,5,0,1,1,0-10H67.78a5,5,0,1,1,0,10Z"/><path class="cls-1" d="M97.18,403.68a5,5,0,0,1,0-10h17.35a5,5,0,0,1,0,10Z"/><path class="cls-1" d="M97,422.27a5,5,0,0,1,0-10h17.82a5,5,0,1,1,0,10Z"/><path class="cls-1" d="M394.18,403.68a5,5,0,0,1,0-10h17.35a5,5,0,0,1,0,10Z"/><path class="cls-1" d="M394,422.27a5,5,0,0,1,0-10h17.82a5,5,0,1,1,0,10Z"/><path class="cls-1" d="M442.18,403.68a5,5,0,0,1,0-10h17.35a5,5,0,0,1,0,10Z"/><path class="cls-1" d="M442,422.27a5,5,0,0,1,0-10h17.82a5,5,0,1,1,0,10Z"/><path class="cls-1" d="M258,336a5,5,0,0,1-5-5V266a5,5,0,0,1,10,0v65A5,5,0,0,1,258,336Z"/><path class="cls-1" d="M235,337a5,5,0,0,1-5-4.85l-2-66a5,5,0,1,1,10-.3l2,66a5,5,0,0,1-4.85,5.15Z"/><path class="cls-1" d="M213,337a5,5,0,0,1-5-4.69l-4-65a5,5,0,0,1,10-.62l4,65a5,5,0,0,1-4.68,5.3Z"/><path class="cls-1" d="M190,337a5,5,0,0,1-5-4.61l-5-64a5,5,0,0,1,10-.78l5,64a5,5,0,0,1-4.59,5.37A2.68,2.68,0,0,1,190,337Z"/><path class="cls-1" d="M282,337h-.15a5,5,0,0,1-4.85-5.15l2-66a5,5,0,0,1,10,.3l-2,66A5,5,0,0,1,282,337Z"/><path class="cls-1" d="M304,337h-.31a5,5,0,0,1-4.68-5.3l4-65a5,5,0,1,1,10,.62l-4,65A5,5,0,0,1,304,337Z"/><path class="cls-1" d="M327,337a2.61,2.61,0,0,1-.4,0,5,5,0,0,1-4.59-5.37l5-64a5,5,0,0,1,10,.78l-5,64A5,5,0,0,1,327,337Z"/></g></svg>