<?xml version="1.0" ?><svg viewBox="0 0 512 512" xmlns="http://www.w3.org/2000/svg"><defs><style>.cls-1{fill:#3f456b;}</style></defs><title/><g id="Lines"><path class="cls-1" d="M48,156H16a5,5,0,0,1-5-5V70a5,5,0,0,1,5-5H48a5,5,0,0,1,5,5v81A5,5,0,0,1,48,156ZM21,146H43V75H21Z"/><path class="cls-1" d="M212,422h0a5,5,0,0,1-3.76-1.73c-32.36-37.41-45.49-83-46-84.91a5,5,0,0,1,9.62-2.72c.16.54,12.12,41.87,40.29,76.69l41.15-46.64a5,5,0,1,1,7.5,6.62l-45,51A5,5,0,0,1,212,422Z"/><path class="cls-1" d="M301,422a5,5,0,0,1-3.75-1.69l-45-51a5,5,0,1,1,7.5-6.62l41.15,46.64c28.26-34.92,40.17-76.26,40.29-76.69a5,5,0,1,1,9.62,2.72c-.54,1.92-13.67,47.5-46,84.91A5,5,0,0,1,301,422Z"/><path class="cls-1" d="M272,425H240a5,5,0,0,1-4.1-2.13c-7.71-11-8.84-26.87-8.89-27.54a5,5,0,0,1,10-.67h0c0,.13.86,11.71,5.76,20.34H269.3A54.15,54.15,0,0,0,276,394.38a5,5,0,1,1,9.92,1.24c-2.14,17.17-9.69,27-10,27.45A5,5,0,0,1,272,425Z"/><path class="cls-1" d="M224.75,497.4a5.15,5.15,0,0,1-1-.11,5,5,0,0,1-3.87-5.93L235.11,419a5,5,0,0,1,9.78,2.06l-15.25,72.4A5,5,0,0,1,224.75,497.4Z"/><path class="cls-1" d="M288.5,498a5,5,0,0,1-4.88-3.9l-16.5-73a5,5,0,1,1,9.76-2.2l16.5,73a5,5,0,0,1-3.78,6A5.22,5.22,0,0,1,288.5,498Z"/><path class="cls-1" d="M496,500H352a5,5,0,0,1-5-5V399a5,5,0,0,1,5-5H496a5,5,0,0,1,5,5v96A5,5,0,0,1,496,500ZM357,490H491V404H357Z"/><path class="cls-1" d="M396,248.3a5,5,0,0,1-.3-10c13.23-.83,23.59-11.58,23.59-24.47a24.66,24.66,0,0,0-20.92-24.16,5,5,0,0,1,1.66-9.86,34.63,34.63,0,0,1,29.26,34c0,18.16-14.48,33.29-33,34.45Z"/><path class="cls-1" d="M117,248.3h-.32c-18.48-1.16-33-16.29-33-34.45a34.62,34.62,0,0,1,29.26-34,5,5,0,1,1,1.65,9.86,24.65,24.65,0,0,0-20.91,24.16c0,12.89,10.36,23.64,23.59,24.47a5,5,0,0,1-.31,10Z"/><path class="cls-1" d="M256,370.94c-80,0-145-65.15-145-145.22V183.37c-8.93-24.44-3.16-55-2.91-56.32l0-.14c12.49-55.72,57-65.34,66.22-66.71A71.87,71.87,0,0,0,180,54.66l.49-.51c19.65-20.29,48-31.61,81.91-32.74,1.15,0,2.3-.06,3.45-.08h1.85c37.82,0,74.77,12.92,99.17,34.74,22.63,20.24,36.12,51.09,37,84.64.39,14.89.07,25-2.78,42.17,0,4.41.09,42.83.09,42.83C401.16,305.79,336.06,370.94,256,370.94ZM117.9,129c-.28,1.5-5.42,30.26,2.77,51.67a5,5,0,0,1,.33,1.79v43.25c0,74.56,60.58,135.22,135,135.22s135.12-60.66,135.12-135.22c-.09-43.55-.09-43.55-.05-43.87l0-.21A184.38,184.38,0,0,0,393.85,141c-.81-30.81-13.08-59-33.67-77.46C337.57,43.3,303.1,31.33,267.69,31.33H266c-1.08,0-2.16,0-3.24.08-31.29,1-57.25,11.31-75.06,29.7l-.43.44c-6.65,7-8.48,8.22-10.74,8.43S129.87,75.77,117.9,129Zm278.17,53.46h0ZM175.61,60a3.06,3.06,0,0,0-.66.1c.27,0,.49-.07.66-.08Z"/><path class="cls-1" d="M396,228H369a5,5,0,0,1-5-4.8c0-.24-1.12-24.73-11.73-55.58-.15-.4-4.51-11.84-18.75-18-15.6-6.8-36.66-4.77-62.6,6-20.44,8.51-50.54,16.71-77.87,7.38a61.84,61.84,0,0,1-21.4-12.23c-7.74,7.06-16.6,19.78-20.69,42.39a132.73,132.73,0,0,0-2,29.48,5,5,0,0,1-5,5.36H117a5,5,0,0,1,0-10h21.83c-.15-14.95,2.09-56.94,30.17-78a5,5,0,0,1,6.93.91c0,.05,6.69,8.13,21,12.84,19.18,6.31,43.43,3.76,70.14-7.37,28.7-12,52.5-13.92,70.73-5.84s23.67,23.15,23.9,23.79A237.27,237.27,0,0,1,373.64,218H396a5,5,0,0,1,0,10Z"/><path class="cls-1" d="M167,124a5,5,0,0,1-4.76-3.46C150.41,84,174.51,60.37,175.54,59.39a5,5,0,0,1,6.93,7.21c-.88.85-20.56,20.43-10.71,50.86a5,5,0,0,1-3.22,6.3A5.15,5.15,0,0,1,167,124Z"/><path class="cls-1" d="M446.34,403.15a5,5,0,0,1-4.15-7.78,174.72,174.72,0,0,0,10.92-18.58l-82.93-70.64a5,5,0,0,1,6.49-7.61l85.84,73.13a5,5,0,0,1,1.36,5.78c-.17.39-4.27,9.85-13.36,23.47A5,5,0,0,1,446.34,403.15Z"/><path class="cls-1" d="M258.76,500.78a5,5,0,0,1,0-10c32.49,0,62.82-5.9,90.18-17.54a5,5,0,0,1,3.91,9.21C324.25,494.61,292.6,500.78,258.76,500.78Z"/><path class="cls-1" d="M258.76,500.78c-79.67,0-134.34-34.54-166.17-63.53a5,5,0,0,1,6.73-7.39,233.39,233.39,0,0,0,64.27,41.78c29.29,12.7,61.31,19.14,95.17,19.14a5,5,0,0,1,0,10Z"/><path class="cls-1" d="M109.81,328.82a5,5,0,0,1-3.2-8.83L134,297.13a5,5,0,0,1,6.41,7.68L113,327.66A5,5,0,0,1,109.81,328.82Z"/><path class="cls-1" d="M138.93,370.82a5,5,0,0,1-4.92-4.13,54.45,54.45,0,0,0-7.67-19.76c-1.21-1.47-9.36-11.18-17.76-15.91a5,5,0,0,1,4.92-8.71c10.76,6.07,20.4,18.06,20.81,18.57a4.15,4.15,0,0,1,.3.43,64.34,64.34,0,0,1,9.25,23.63,5,5,0,0,1-4.05,5.8A5.24,5.24,0,0,1,138.93,370.82Z"/><path class="cls-1" d="M80.46,439.9a66,66,0,0,1-23.39-4.31c-33.62-12.68-50.79-50-38.28-83.15a63.79,63.79,0,0,1,29.46-33.6,5,5,0,0,1,4.74,8.8A53.8,53.8,0,0,0,28.15,356c-10.57,28,4,59.53,32.45,70.27a55,55,0,0,0,49.09-4.82,5,5,0,0,1,5.32,8.47A64.8,64.8,0,0,1,80.46,439.9Z"/><path class="cls-1" d="M47,326.68c-9.87-23.9-14.16-40.48-14.57-42.12-.74-2.54-9.53-34.18,7-53.3.8-1,8.63-9.92,26.63-18.73,1.2-.61,9.45-4.57,17.48-2a17,17,0,0,1,10,8.83c6.31,12.43,16.88,45.63,17.33,47a3.77,3.77,0,0,1,.14.58c1,5.36.67,15.48-7.12,19.43l-.61.31C90.57,293.12,86.46,298,89,303.39l4.07,8-8.91,4.53-4.1-8.08a.41.41,0,0,1,0-.09c-7.94-16.53,12.06-26.64,18.64-30l.6-.31c2.23-1.13,2.22-6,1.86-8.4-1.13-3.52-11-34.12-16.61-45.2a7,7,0,0,0-4.13-3.84c-4.27-1.37-9.83,1.35-9.88,1.38l-.11.06c-16.5,8.06-23.33,16.11-23.4,16.19l-.07.08c-13.26,15.33-5,43.76-5,44l.06.22c0,.17,4.26,16.92,14.15,40.83Z"/><path class="cls-1" d="M144.93,444.91c-24,0-43-24.25-44.32-26-5.45-6.8-10.77-14-15.82-21.47l8.28-5.61c4.91,7.25,10.09,14.27,15.38,20.87a.76.76,0,0,1,.08.11c.18.23,18.29,23.66,38.47,22h.14c.08,0,10.61-.77,26.86-9.34l.1-.05c1.68-.86,10-5.53,6.29-12.77-5.63-11.08-24.53-37.1-26.7-40.08-1.67-1.67-5.64-4.58-7.88-3.45l-.6.3c-5.9,3-18.18,9.28-27.79,4.67l4.33-9c5.14,2.47,14.8-2.45,18.92-4.55l.61-.32c7.79-3.95,16.17,1.74,19.89,5.72a5.45,5.45,0,0,1,.38.46c.88,1.19,21.44,29.32,27.75,41.74a17,17,0,0,1,1.24,13.28c-2.66,8-10.73,12.34-11.93,12.94-17.72,9.33-29.58,10.36-30.83,10.45C146.82,444.88,145.87,444.91,144.93,444.91Z"/><path class="cls-1" d="M79.84,399.65A44.79,44.79,0,0,1,40.62,377a44.17,44.17,0,0,1-3.85-34.32,46.12,46.12,0,0,1,21.81-27.32c22-12.41,49.87-4.95,62,16.63h0c12.15,21.57,4.09,49.22-18,61.63A46.38,46.38,0,0,1,79.84,399.65Zm1.55-80.27a36.64,36.64,0,0,0-35,26.13,34.23,34.23,0,0,0,3,26.61c9.45,16.77,31.15,22.52,48.4,12.81s23.59-31.25,14.15-48h0A34.79,34.79,0,0,0,81.39,319.38Z"/><path class="cls-1" d="M79.84,399.65A44.79,44.79,0,0,1,40.62,377a44.17,44.17,0,0,1-3.85-34.32,46.12,46.12,0,0,1,21.81-27.32c22-12.41,49.87-4.95,62,16.63h0c12.15,21.57,4.09,49.22-18,61.63A46.38,46.38,0,0,1,79.84,399.65Zm1.55-80.27a36.64,36.64,0,0,0-35,26.13,34.23,34.23,0,0,0,3,26.61c9.45,16.77,31.15,22.52,48.4,12.81s23.59-31.25,14.15-48h0A34.79,34.79,0,0,0,81.39,319.38Z"/><path class="cls-1" d="M18,501a5.09,5.09,0,0,1-2.56-.7,5,5,0,0,1-1.74-6.86,41.25,41.25,0,0,1,7.26-9C32.23,474,49.47,469.91,72.21,472.32c7.8.82,15.34,2.71,22.64,4.54,8.25,2.06,16,4,24.11,4.54,17.41,1.11,36.93-5.61,41.34-23.14a45.5,45.5,0,0,0,0-21.27,5,5,0,0,1,9.73-2.31,55.8,55.8,0,0,1-.07,26c-5.82,23.11-30.14,32.06-51.68,30.67-9-.57-17.58-2.73-25.9-4.81-7.28-1.83-14.16-3.55-21.26-4.3-19.74-2.09-34.34,1.12-43.4,9.51a30.38,30.38,0,0,0-5.46,6.79A5,5,0,0,1,18,501Z"/><path class="cls-1" d="M32,75a5,5,0,0,1-5-5V49a5,5,0,0,1,10,0V70A5,5,0,0,1,32,75Z"/><path class="cls-1" d="M32,177a5,5,0,0,1-5-5V151a5,5,0,0,1,10,0v21A5,5,0,0,1,32,177Z"/><path class="cls-1" d="M449,302H417a5,5,0,0,1-5-5V264a5,5,0,0,1,5-5h32a5,5,0,0,1,5,5v33A5,5,0,0,1,449,302Zm-27-10h22V269H422Z"/><path class="cls-1" d="M433,269a5,5,0,0,1-5-5V243a5,5,0,0,1,10,0v21A5,5,0,0,1,433,269Z"/><path class="cls-1" d="M433,323a5,5,0,0,1-5-5V297a5,5,0,0,1,10,0v21A5,5,0,0,1,433,323Z"/><path class="cls-1" d="M96,172H64a5,5,0,0,1-5-5V103a5,5,0,0,1,5-5H96a5,5,0,0,1,5,5v64A5,5,0,0,1,96,172ZM69,162H91V108H69Z"/><path class="cls-1" d="M80,108a5,5,0,0,1-5-5V82a5,5,0,0,1,10,0v21A5,5,0,0,1,80,108Z"/><path class="cls-1" d="M80,193a5,5,0,0,1-5-5V167a5,5,0,0,1,10,0v21A5,5,0,0,1,80,193Z"/><path class="cls-1" d="M496,341H464a5,5,0,0,1-5-5V239a5,5,0,0,1,5-5h32a5,5,0,0,1,5,5v97A5,5,0,0,1,496,341Zm-27-10h22V244H469Z"/><path class="cls-1" d="M480,244a5,5,0,0,1-5-5V218a5,5,0,0,1,10,0v21A5,5,0,0,1,480,244Z"/><path class="cls-1" d="M480,362a5,5,0,0,1-5-5V336a5,5,0,0,1,10,0v21A5,5,0,0,1,480,362Z"/><path class="cls-1" d="M213,212H193a5,5,0,0,1,0-10h20a5,5,0,0,1,0,10Z"/><path class="cls-1" d="M320,212H300a5,5,0,0,1,0-10h20a5,5,0,0,1,0,10Z"/></g><g id="Outline"><path class="cls-1" d="M399,482a5,5,0,0,1-4.42-2.67l-7.7-14.62-32.6,16.7a5,5,0,0,1-4.56-8.9l37-19a5,5,0,0,1,6.7,2.12l8,15.15,19-6.84,18.11-37.17a5,5,0,0,1,7.44-1.85l18.6,13.52,28-27.07a5,5,0,0,1,7,7.18l-31,30a5,5,0,0,1-6.42.45l-17.18-12.49L428.5,470.19a5,5,0,0,1-2.81,2.51l-25,9A4.75,4.75,0,0,1,399,482Z"/><path class="cls-1" d="M409,425H373a5,5,0,0,1,0-10h36a5,5,0,0,1,0,10Z"/></g></svg>