<?xml version="1.0" ?><svg viewBox="0 0 512 512" xmlns="http://www.w3.org/2000/svg"><defs><style>.cls-1{fill:#3f456b;}</style></defs><title/><g id="Lines"><path class="cls-1" d="M64,236.5a5,5,0,0,1-5-5c0-3.39-.88-5.87-2.68-7.57-3.32-3.13-9-2.94-9-2.94H37.07c-1.43,0-11.7,0-19.24-7.18-5.2-5-7.83-12-7.83-20.82,0-29.66,26.73-30,27-30H48.31s5,.2,8-2.71c1.8-1.71,2.67-4.26,2.67-7.8a5,5,0,0,1,10,0c0,6.38-2,11.47-5.86,15.13-5.85,5.49-13.72,5.44-15.27,5.37H37c-1.71,0-17,.78-17,20,0,6,1.57,10.53,4.68,13.53,4.81,4.66,12,4.47,12.12,4.47H46.88c1.6-.07,10.15-.14,16.3,5.66C67,220.3,69,225.29,69,231.5A5,5,0,0,1,64,236.5Z"/><path class="cls-1" d="M447,236.5a5,5,0,0,1-5-5c0-6.21,2-11.2,5.82-14.84,6.15-5.8,14.7-5.73,16.3-5.66h10.11s7.28.18,12.09-4.48c3.11-3,4.68-7.55,4.68-13.53,0-19.22-15.29-20-17-20H463.13c-1.56.07-9.42.12-15.27-5.37C444,164,442,158.88,442,152.5a5,5,0,0,1,10,0c0,3.56.89,6.13,2.71,7.84,3,2.84,7.93,2.67,8,2.67H474c.27,0,27,.34,27,30,0,8.85-2.63,15.86-7.83,20.82C485.63,221,475.36,221,473.93,221H463.71s-5.72-.22-9.07,3c-1.78,1.7-2.64,4.16-2.64,7.53A5,5,0,0,1,447,236.5Z"/><path class="cls-1" d="M402,357H112a20,20,0,0,1-20-20V63a20,20,0,0,1,20-20H402a20,20,0,0,1,20,20V337A20,20,0,0,1,402,357ZM112,53a10,10,0,0,0-10,10V337a10,10,0,0,0,10,10H402a10,10,0,0,0,10-10V63a10,10,0,0,0-10-10Z"/><path class="cls-1" d="M422,388H89a30,30,0,0,1-30-30V40A30,30,0,0,1,89,10H422a30,30,0,0,1,30,30V358A30,30,0,0,1,422,388ZM89,20A20,20,0,0,0,69,40V358a20,20,0,0,0,20,20H422a20,20,0,0,0,20-20V40a20,20,0,0,0-20-20Z"/><path class="cls-1" d="M400,420H112.5a5,5,0,0,1-5-5V383a5,5,0,0,1,10,0v27H395V383.5a5,5,0,0,1,10,0V415A5,5,0,0,1,400,420Z"/><path class="cls-1" d="M177,501H144a5,5,0,0,1-5-5V415.5a5,5,0,0,1,10,0V491h23V416.33a5,5,0,1,1,10,0V496A5,5,0,0,1,177,501Z"/><path class="cls-1" d="M369,501H336a5,5,0,0,1-5-5V415.5a5,5,0,0,1,10,0V491h23V416.33a5,5,0,1,1,10,0V496A5,5,0,0,1,369,501Z"/><path class="cls-1" d="M305,501H272a5,5,0,0,1-5-5V415.5a5,5,0,0,1,10,0V491h23V416.33a5,5,0,1,1,10,0V496A5,5,0,0,1,305,501Z"/><path class="cls-1" d="M241,501H208a5,5,0,0,1-5-5V415.5a5,5,0,0,1,10,0V491h23V416.33a5,5,0,1,1,10,0V496A5,5,0,0,1,241,501Z"/><path class="cls-1" d="M384,160H128a5,5,0,0,1-5-5V95a5,5,0,0,1,5-5H384a5,5,0,0,1,5,5v60A5,5,0,0,1,384,160ZM133,150H379V100H133Z"/><path class="cls-1" d="M256,160a5,5,0,0,1-5-5V95a5,5,0,0,1,10,0v60A5,5,0,0,1,256,160Z"/><path class="cls-1" d="M213.33,160a5,5,0,0,1-5-5V95a5,5,0,0,1,10,0v60A5,5,0,0,1,213.33,160Z"/><path class="cls-1" d="M170.67,160a5,5,0,0,1-5-5V95a5,5,0,1,1,10,0v60A5,5,0,0,1,170.67,160Z"/><path class="cls-1" d="M341.33,160a5,5,0,0,1-5-5V95a5,5,0,0,1,10,0v60A5,5,0,0,1,341.33,160Z"/><path class="cls-1" d="M298.67,160a5,5,0,0,1-5-5V95a5,5,0,0,1,10,0v60A5,5,0,0,1,298.67,160Z"/><path class="cls-1" d="M122,76h-3a5,5,0,0,1,0-10h3a5,5,0,0,1,0,10Z"/><path class="cls-1" d="M41,197H38a5,5,0,0,1,0-10h3a5,5,0,0,1,0,10Z"/><path class="cls-1" d="M473,197h-3a5,5,0,0,1,0-10h3a5,5,0,0,1,0,10Z"/><path class="cls-1" d="M394,76h-3a5,5,0,0,1,0-10h3a5,5,0,0,1,0,10Z"/><path class="cls-1" d="M122,335h-3a5,5,0,0,1,0-10h3a5,5,0,0,1,0,10Z"/><path class="cls-1" d="M394,335h-3a5,5,0,0,1,0-10h3a5,5,0,0,1,0,10Z"/><path class="cls-1" d="M372,213H140a17,17,0,0,1,0-34H372a17,17,0,0,1,0,34ZM140,189a7,7,0,0,0,0,14H372a7,7,0,0,0,0-14Z"/><rect class="cls-1" height="24" width="10" x="220" y="184"/></g><g id="Outline"><path class="cls-1" d="M256,327.92a5,5,0,0,1-4.66-6.81l14-36.11h-26a5,5,0,0,1-4.64-6.87l17.15-42.58a5,5,0,0,1,9.28,3.73L246.77,275h25.86a5,5,0,0,1,4.67,6.81l-16.64,42.91A5,5,0,0,1,256,327.92Z"/><path class="cls-1" d="M197,285h-1a5,5,0,0,1,0-10h1a5,5,0,0,1,0,10Zm-21,0h-1a5,5,0,0,1,0-10h1a5,5,0,0,1,0,10Zm-21,0h-1a5,5,0,0,1,0-10h1a5,5,0,0,1,0,10Zm-21,0h-1a5,5,0,0,1,0-10h1a5,5,0,0,1,0,10Z"/><path class="cls-1" d="M373,285h-1a5,5,0,0,1,0-10h1a5,5,0,0,1,0,10Zm-21,0h-1a5,5,0,0,1,0-10h1a5,5,0,0,1,0,10Zm-21,0h-1a5,5,0,0,1,0-10h1a5,5,0,0,1,0,10Zm-21,0h-1a5,5,0,0,1,0-10h1a5,5,0,0,1,0,10Z"/><path class="cls-1" d="M149,138a5,5,0,0,1-5-5V117a5,5,0,0,1,10,0v16A5,5,0,0,1,149,138Z"/><path class="cls-1" d="M192,138a5,5,0,0,1-5-5V117a5,5,0,0,1,10,0v16A5,5,0,0,1,192,138Z"/><path class="cls-1" d="M234,138a5,5,0,0,1-5-5V117a5,5,0,0,1,10,0v16A5,5,0,0,1,234,138Z"/><path class="cls-1" d="M277,138a5,5,0,0,1-5-5V117a5,5,0,0,1,10,0v16A5,5,0,0,1,277,138Z"/><path class="cls-1" d="M320,138a5,5,0,0,1-5-5V117a5,5,0,0,1,10,0v16A5,5,0,0,1,320,138Z"/><path class="cls-1" d="M363,138a5,5,0,0,1-5-5V117a5,5,0,0,1,10,0v16A5,5,0,0,1,363,138Z"/></g></svg>