<?xml version="1.0" ?><svg viewBox="0 0 512 512" xmlns="http://www.w3.org/2000/svg"><defs><style>.cls-1{fill:#3f456b;}</style></defs><title/><g id="Lines"><path class="cls-1" d="M223.43,167.77H35.67a23.13,23.13,0,0,1-23.09-23.1V33.84a23.13,23.13,0,0,1,23.09-23.1H223.43a23.13,23.13,0,0,1,23.1,23.1V144.67A23.13,23.13,0,0,1,223.43,167.77ZM35.67,20.74a13.11,13.11,0,0,0-13.09,13.1V144.67a13.11,13.11,0,0,0,13.09,13.1H223.43a13.12,13.12,0,0,0,13.1-13.1V33.84a13.12,13.12,0,0,0-13.1-13.1Z"/><path class="cls-1" d="M240.74,129.92H17.58a5,5,0,0,1,0-10H240.74a5,5,0,1,1,0,10Z"/><path class="cls-1" d="M169,196H87.76a5,5,0,1,1,0-10H169a5,5,0,1,1,0,10Z"/><path class="cls-1" d="M154,196a5,5,0,0,1-5-5V162.77a5,5,0,1,1,10,0V191A5,5,0,0,1,154,196Z"/><path class="cls-1" d="M105.11,196a5,5,0,0,1-5-5V162.77a5,5,0,0,1,10,0V191A5,5,0,0,1,105.11,196Z"/><path class="cls-1" d="M478.43,167.77H290.67a23.13,23.13,0,0,1-23.09-23.1V33.84a23.13,23.13,0,0,1,23.09-23.1H478.43a23.13,23.13,0,0,1,23.1,23.1V144.67A23.13,23.13,0,0,1,478.43,167.77Zm-187.76-147a13.11,13.11,0,0,0-13.09,13.1V144.67a13.11,13.11,0,0,0,13.09,13.1H478.43a13.12,13.12,0,0,0,13.1-13.1V33.84a13.12,13.12,0,0,0-13.1-13.1Z"/><path class="cls-1" d="M495.74,129.92H272.58a5,5,0,0,1,0-10H495.74a5,5,0,1,1,0,10Z"/><path class="cls-1" d="M424,196H342.76a5,5,0,0,1,0-10H424a5,5,0,0,1,0,10Z"/><path class="cls-1" d="M409,196a5,5,0,0,1-5-5V162.77a5,5,0,1,1,10,0V191A5,5,0,0,1,409,196Z"/><path class="cls-1" d="M360.11,196a5,5,0,0,1-5-5V162.77a5,5,0,1,1,10,0V191A5,5,0,0,1,360.11,196Z"/><path class="cls-1" d="M255.5,279A22.5,22.5,0,1,1,278,256.5,22.52,22.52,0,0,1,255.5,279Zm0-35A12.5,12.5,0,1,0,268,256.5,12.52,12.52,0,0,0,255.5,244Z"/><path class="cls-1" d="M127.5,279A22.5,22.5,0,1,1,150,256.5,22.52,22.52,0,0,1,127.5,279Zm0-35A12.5,12.5,0,1,0,140,256.5,12.52,12.52,0,0,0,127.5,244Z"/><path class="cls-1" d="M384.5,279A22.5,22.5,0,1,1,407,256.5,22.52,22.52,0,0,1,384.5,279Zm0-35A12.5,12.5,0,1,0,397,256.5,12.52,12.52,0,0,0,384.5,244Z"/><path class="cls-1" d="M449.69,500.5H61.88a5,5,0,0,1-4.94-5.72,201,201,0,0,1,397.69,0,5,5,0,0,1-4.94,5.72Zm-381.94-10H443.82a191,191,0,0,0-376.07,0Z"/></g><g id="Outline"><path class="cls-1" d="M99,261H98a5,5,0,0,1,0-10h1a5,5,0,0,1,0,10Zm-21,0H77a5,5,0,0,1,0-10h1a5,5,0,0,1,0,10Zm-21,0H56a5,5,0,0,1,0-10h1a5,5,0,0,1,0,10Zm-21,0H35a5,5,0,0,1,0-10h1a5,5,0,0,1,0,10Zm-21,0H14a5,5,0,0,1,0-10h1a5,5,0,0,1,0,10Z"/><path class="cls-1" d="M236,261h-1a5,5,0,0,1,0-10h1a5,5,0,0,1,0,10Zm-21,0h-1a5,5,0,0,1,0-10h1a5,5,0,0,1,0,10Zm-21,0h-1a5,5,0,0,1,0-10h1a5,5,0,0,1,0,10Zm-21,0h-1a5,5,0,0,1,0-10h1a5,5,0,0,1,0,10Zm-21,0h-1a5,5,0,0,1,0-10h1a5,5,0,0,1,0,10Z"/><path class="cls-1" d="M362,261h-1a5,5,0,0,1,0-10h1a5,5,0,0,1,0,10Zm-21,0h-1a5,5,0,0,1,0-10h1a5,5,0,0,1,0,10Zm-21,0h-1a5,5,0,0,1,0-10h1a5,5,0,0,1,0,10Zm-21,0h-1a5,5,0,0,1,0-10h1a5,5,0,0,1,0,10Zm-21,0h-1a5,5,0,0,1,0-10h1a5,5,0,0,1,0,10Z"/><path class="cls-1" d="M499,261h-1a5,5,0,0,1,0-10h1a5,5,0,0,1,0,10Zm-21,0h-1a5,5,0,0,1,0-10h1a5,5,0,0,1,0,10Zm-21,0h-1a5,5,0,0,1,0-10h1a5,5,0,0,1,0,10Zm-21,0h-1a5,5,0,0,1,0-10h1a5,5,0,0,1,0,10Zm-21,0h-1a5,5,0,0,1,0-10h1a5,5,0,0,1,0,10Z"/><path class="cls-1" d="M127,231a5,5,0,0,1-5-5v-1a5,5,0,0,1,10,0v1A5,5,0,0,1,127,231Zm0-21a5,5,0,0,1-5-5v-1a5,5,0,0,1,10,0v1A5,5,0,0,1,127,210Z"/><path class="cls-1" d="M383,231a5,5,0,0,1-5-5v-1a5,5,0,0,1,10,0v1A5,5,0,0,1,383,231Zm0-21a5,5,0,0,1-5-5v-1a5,5,0,0,1,10,0v1A5,5,0,0,1,383,210Z"/><path class="cls-1" d="M256,318a5,5,0,0,1-5-5v-1a5,5,0,0,1,10,0v1A5,5,0,0,1,256,318Zm0-21a5,5,0,0,1-5-5v-1a5,5,0,0,1,10,0v1A5,5,0,0,1,256,297Z"/><path class="cls-1" d="M255.1,500.5a5,5,0,0,1-5-5V328.21a5,5,0,0,1,10,0V495.5A5,5,0,0,1,255.1,500.5Z"/><path class="cls-1" d="M336,500.53a5,5,0,0,1-5-4.79c-2.25-54-10.67-94.44-17.35-118.83-7.23-26.42-14-40.24-14.08-40.38a5,5,0,1,1,9-4.45c1.14,2.3,28.07,57.5,32.48,163.24a5,5,0,0,1-4.79,5.2Z"/><path class="cls-1" d="M406.69,500.53a5,5,0,0,1-5-4.56c-4.12-46.69-18-81.78-29-103-11.88-23-22.93-35.16-23-35.28a5,5,0,0,1,7.35-6.78c1.89,2,46.43,51.21,54.63,144.18a5,5,0,0,1-4.54,5.42Z"/><path class="cls-1" d="M178.09,500.5h-.21a5,5,0,0,1-4.79-5.2c4.41-105.73,31.33-160.92,32.47-163.22a5,5,0,0,1,9,4.45c-.12.23-6.88,14.05-14.09,40.38-6.67,24.38-15.1,64.79-17.35,118.8A5,5,0,0,1,178.09,500.5Z"/><path class="cls-1" d="M107.41,500.5a3.39,3.39,0,0,1-.45,0,5,5,0,0,1-4.54-5.41c8.2-93.2,52.69-143.76,54.58-145.86a5,5,0,0,1,7.45,6.67c-.16.19-11.2,12.68-23.06,36.05-11,21.59-24.89,57.16-29,104A5,5,0,0,1,107.41,500.5Z"/><path class="cls-1" d="M255.44,461.61c-114,0-167.37-32-169.59-33.4a5,5,0,0,1,5.24-8.52h0c.52.32,53.47,31.92,164.35,31.92s165.26-30,165.8-30.32a5,5,0,0,1,4.95,8.69C423.92,431.27,369.39,461.61,255.44,461.61Z"/><path class="cls-1" d="M255.68,397.64c-72.14,0-106-32.71-107.44-34.1a5,5,0,0,1,7-7.12h0c.32.31,32.67,31.22,100.41,31.22S356.73,358.27,357.05,358a5,5,0,0,1,6.75,7.38C362.36,366.67,327.72,397.64,255.68,397.64Z"/></g></svg>