<?xml version="1.0" ?><svg viewBox="0 0 512 512" xmlns="http://www.w3.org/2000/svg"><defs><style>.cls-1{fill:#3f456b;}</style></defs><title/><g id="Lines"><path class="cls-1" d="M268.49,437H150.17c-34.29,0-54.6-14.17-57.32-16.18-3.2-1.92-8.68-6-9.31-6.48l-.1-.08A104.57,104.57,0,0,1,43.51,332V116a105.12,105.12,0,0,1,105-105h120a105.12,105.12,0,0,1,105,105V306a5,5,0,1,1-10,0V116a95.11,95.11,0,0,0-95-95h-120a95.11,95.11,0,0,0-95,95V332A94.63,94.63,0,0,0,89.6,406.36c1.68,1.26,6.33,4.66,8.55,5.95.19.12.38.24.56.38s19,14.29,51.46,14.29H268.49A95.31,95.31,0,0,0,351.4,378.2a5,5,0,0,1,8.72,4.89A105.33,105.33,0,0,1,268.49,437Z"/><path class="cls-1" d="M326.51,229h-236a15,15,0,0,1-15-15V138a15,15,0,0,1,15-15h236a15,15,0,0,1,15,15v76A15,15,0,0,1,326.51,229Zm-236-96a5,5,0,0,0-5,5v76a5,5,0,0,0,5,5h236a5,5,0,0,0,5-5V138a5,5,0,0,0-5-5Z"/><path class="cls-1" d="M48.51,196.5h-22a15,15,0,0,1-15-15V138a15,15,0,0,1,15-15h22a5,5,0,0,1,0,10h-22a5,5,0,0,0-5,5v43.5a5,5,0,0,0,5,5h22a5,5,0,0,1,0,10Z"/><path class="cls-1" d="M390.5,196.5h-22a5,5,0,0,1,0-10h22a5,5,0,0,0,5-5V138a5,5,0,0,0-5-5h-22a5,5,0,0,1,0-10h22a15,15,0,0,1,15,15v43.5A15,15,0,0,1,390.5,196.5Z"/><path class="cls-1" d="M80.51,104.5a5,5,0,0,1-5-5v-1a5,5,0,0,1,10,0v1A5,5,0,0,1,80.51,104.5Z"/><path class="cls-1" d="M336.51,104.5a5,5,0,0,1-5-5v-1a5,5,0,0,1,10,0v1A5,5,0,0,1,336.51,104.5Z"/><path class="cls-1" d="M80.51,261.48a5,5,0,0,1-5-5v-1a5,5,0,0,1,10,0v1A5,5,0,0,1,80.51,261.48Z"/><path class="cls-1" d="M336.51,261.48a5,5,0,0,1-5-5v-1a5,5,0,0,1,10,0v1A5,5,0,0,1,336.51,261.48Z"/><path class="cls-1" d="M417,437a24.92,24.92,0,0,1-17.68-7.31L328.89,359.3a25,25,0,0,1,0-35.36l16.24-16.23a25,25,0,0,1,35.35,0l70.38,70.38a25,25,0,0,1,0,35.35l-16.24,16.24A24.92,24.92,0,0,1,417,437ZM362.8,310.41a14.86,14.86,0,0,0-10.6,4.37L336,331a15,15,0,0,0,0,21.21l70.38,70.38a15,15,0,0,0,21.21,0l16.24-16.24h0a15.05,15.05,0,0,0,0-21.21l-70.38-70.38A14.88,14.88,0,0,0,362.8,310.41Z"/><path class="cls-1" d="M214.28,363a16.48,16.48,0,0,1-10.71-29c.93-.79,23-19.5,57-42.89,35.67-24.5,66.88-8,78.45,4.13l12.82,12.82a5,5,0,1,1-7.07,7.07l-12.87-12.86-.09-.1c-9.5-10-35.43-23.52-65.58-2.82-33.63,23.11-55.29,41.49-56.19,42.26a6.49,6.49,0,0,0,8.42,9.88c.91-.77,22.52-19,55.12-41.43,27.66-19,46.73-1.06,48.81,1.05l.13.13.08.09,13,13a5,5,0,1,1-7.07,7.07l-13-13c-.15-.15-.21-.2-.32-.33-2.59-2.59-15.63-13.74-36,.23C247.07,340.4,225.84,358.35,225,359.1A16.36,16.36,0,0,1,214.28,363Z"/><path class="cls-1" d="M136,414a5,5,0,0,1-4.84-6.25c.34-1.31,8.59-32.39,30.39-49.88,8.94-7.18,18.33-10.16,26.47-8.4a22.69,22.69,0,0,1,2.85.81,5,5,0,0,1-3.36,9.42,11.81,11.81,0,0,0-1.6-.46c-5.05-1.09-11.65,1.25-18.1,6.42-13.34,10.71-21.13,28-24.67,37.57,10.25-1.45,29-5.42,42.06-15.89,3.62-2.9,9.72-8.82,10-15.84a14.73,14.73,0,0,0,0-1.76,5,5,0,1,1,10-.87,24.78,24.78,0,0,1,.07,3c-.3,8.16-5.17,16.43-13.71,23.28-21.28,17.07-53.85,18.79-55.23,18.86Z"/><path class="cls-1" d="M451.82,270a7.67,7.67,0,0,1-4.09-1.21,12.11,12.11,0,0,1-3.38-3.43c-2.49-3.55-4.63-7.21-6.69-10.75l-1.15-2c-.29-.49-.58-1-.87-1.57s-.46-.85-.69-1.24l-.12-.21c-1.09-.06-2.19-.09-3.32-.13-2.3-.07-4.68-.15-7.14-.4-.32,0-.77,0-1.29-.08-4.79-.28-13.73-.79-15-7.75a7.84,7.84,0,0,1,1.16-5.32,76.58,76.58,0,0,1,8.47-11.32l1.11-1.3q1.83-2.16,3.27-3.8c-2.46-6.37-5.53-16.27-4.69-21.77a8.28,8.28,0,0,1,4.18-6.46,8.49,8.49,0,0,1,6.87-.34c4.79,1.26,14.1,6.11,19.19,8.87a118.17,118.17,0,0,1,15.51-10.59,9.83,9.83,0,0,1,5.68-1.31,9.23,9.23,0,0,1,5.91,3.09,8.51,8.51,0,0,1,1.21,1.86,10.16,10.16,0,0,1,.9,5,116.42,116.42,0,0,1-2.83,18.57c4.69,3.39,13.1,9.68,16.31,13.45a8.52,8.52,0,0,1,2.67,6.34,8.33,8.33,0,0,1-4,6.57c-4.54,3.1-14.61,4.62-21.41,5.18a84.9,84.9,0,0,1-9.09,18.18A8.06,8.06,0,0,1,451.82,270Zm1.32-9.62h0Zm-33.75-21.75c1.57.24,3.44.35,4.27.39l1.71.12c2.12.22,4.23.28,6.46.35,2.05.07,4.17.14,6.35.33a4.93,4.93,0,0,1,2.23.75l.07,0a8.27,8.27,0,0,1,3,3.86,4,4,0,0,0,.18.36c.24.42.53,1,.82,1.48s.46.87.69,1.26l1.16,2c1.78,3,3.47,5.94,5.35,8.74a74.69,74.69,0,0,0,7.53-16.63,5,5,0,0,1,4.57-3.49c6.67-.28,14.34-1.55,18-2.9-3.37-3.29-11.41-9.3-16.27-12.71a5,5,0,0,1-1.93-5.47,106.11,106.11,0,0,0,3.26-18.44,106,106,0,0,0-15.21,10.93,5,5,0,0,1-5.76.62c-5.19-2.9-14.08-7.55-18.5-9.16.37,3.89,2.54,11.36,5.19,17.49a5,5,0,0,1-.93,5.38c-.84.91-2.4,2.66-5.11,5.85l-1.13,1.33A90.48,90.48,0,0,0,419.39,238.58Zm5.49-38.37h0Zm43.44-2.4ZM466.9,197Z"/><path class="cls-1" d="M43.71,499.73a7.43,7.43,0,0,1-3.18-.74,7.87,7.87,0,0,1-3.67-4,76.26,76.26,0,0,1-4.32-13.44l-.44-1.72q-.71-2.73-1.2-4.82c-6.62-1.68-16.47-4.91-20.47-8.77a8.29,8.29,0,0,1-2.85-7.15,8.48,8.48,0,0,1,3.7-5.8c3.8-3.18,13.14-8,18.33-10.52A117.71,117.71,0,0,1,30,424a9.84,9.84,0,0,1,2.21-5.38,9.23,9.23,0,0,1,5.94-3,8.29,8.29,0,0,1,2.22.09,10.22,10.22,0,0,1,4.59,2.14,118.07,118.07,0,0,1,13.51,13.05c5.47-1.86,15.47-5.08,20.4-5.51a8.5,8.5,0,0,1,6.72,1.49,8.27,8.27,0,0,1,3,7.07c-.1,5.5-4.68,14.59-8.16,20.46A85.07,85.07,0,0,1,90,472.28c1.68,4.3,0,8.65-4.09,10.33a12.14,12.14,0,0,1-4.76.77c-4.33,0-8.56-.39-12.64-.76l-2.26-.2c-.57-.05-1.18-.12-1.79-.2s-1-.12-1.41-.15l-.24,0c-.68.86-1.34,1.73-2,2.64-1.39,1.83-2.83,3.73-4.45,5.59-.22.24-.49.59-.82,1C53,494.38,48.74,499.73,43.71,499.73ZM18.86,460.06c3.39,1.95,10.73,4.5,17.27,5.89A5,5,0,0,1,40,469.81c.36,1.74,1,4.27,1.81,7.52l.44,1.75a90.29,90.29,0,0,0,2.68,9.2c1.1-1.15,2.26-2.61,2.78-3.25s.81-1,1.09-1.34c1.4-1.6,2.68-3.28,4-5.06,1.23-1.63,2.52-3.32,3.93-5l0,0a5.1,5.1,0,0,1,2-1.44,8.3,8.3,0,0,1,4.85-.18l.4.07c.48,0,1.08.12,1.68.19s1,.12,1.43.16l2.29.2c3.51.31,6.85.61,10.23.7a75.36,75.36,0,0,0-9.21-15.77,5,5,0,0,1-.21-5.74c3.64-5.6,7-12.6,8.06-16.37-4.64.84-14.19,3.92-19.79,5.91a5,5,0,0,1-5.57-1.58,106.72,106.72,0,0,0-13.15-13.33,106,106,0,0,0,.11,18.73A5,5,0,0,1,37,450.27C31.67,452.82,22.73,457.38,18.86,460.06Zm41.69,16.82h0ZM16.8,461.6h0Zm.44-2.72Zm63.58-23.77h0Zm-42.39-9.67Z"/><path class="cls-1" d="M389.87,303a5,5,0,0,1-4.11-7.84c15.65-22.64,34.56-34,35.36-34.49a5,5,0,0,1,5.1,8.6h0A118.3,118.3,0,0,0,394,300.84,5,5,0,0,1,389.87,303Z"/><path class="cls-1" d="M410.37,349.29a5,5,0,0,1-3.54-8.53l15.08-15.12A5,5,0,0,1,429,332.7l-15.08,15.12A5,5,0,0,1,410.37,349.29Z"/><path class="cls-1" d="M435,344.27a5,5,0,0,1-3.65-1.57l-19-20.21a5,5,0,1,1,7.28-6.85l19,20.2a5,5,0,0,1-.22,7.07A5,5,0,0,1,435,344.27Z"/><path class="cls-1" d="M496.5,500.5H459c-11.36,0-19.89-4.39-24-12.36-5.14-9.9-2.55-23.86,6.94-37.35,3.61-5.14,5-10.17,4.15-15-1.51-8.37-9.35-13.85-9.43-13.9a5,5,0,0,1,5.62-8.28c.46.31,11.32,7.77,13.63,20.31,1.39,7.55-.56,15.15-5.79,22.59-7.19,10.23-9.58,20.57-6.25,27,3,5.76,9.9,7,15.16,7h37.5a5,5,0,0,1,0,10Z"/></g><g id="Outline"><path class="cls-1" d="M47.5,153.33h-31a5,5,0,0,1,0-10h31a5,5,0,0,1,0,10Z"/><path class="cls-1" d="M47.5,176.17h-31a5,5,0,0,1,0-10h31a5,5,0,0,1,0,10Z"/><path class="cls-1" d="M400,153.33H369a5,5,0,0,1,0-10h31a5,5,0,0,1,0,10Z"/><path class="cls-1" d="M400,176.17H369a5,5,0,0,1,0-10h31a5,5,0,0,1,0,10Z"/><path class="cls-1" d="M342.23,369.33a5,5,0,0,1-3.54-8.54l20-20a5,5,0,0,1,7.07,7.07l-20,20A5,5,0,0,1,342.23,369.33Z"/><path class="cls-1" d="M358.27,385.38a5,5,0,0,1-3.53-8.54l20-20a5,5,0,0,1,7.07,7.07l-20,20A5,5,0,0,1,358.27,385.38Z"/><path class="cls-1" d="M374.32,401.42a5,5,0,0,1-3.54-8.53l20-20a5,5,0,0,1,7.07,7.07l-20,20A5,5,0,0,1,374.32,401.42Z"/><path class="cls-1" d="M390.37,417.47a5,5,0,0,1-3.54-8.54l20-20a5,5,0,0,1,7.07,7.07l-20,20A5,5,0,0,1,390.37,417.47Z"/><path class="cls-1" d="M163.26,208.73a5,5,0,0,1-3.54-8.53l55.49-55.49a5,5,0,0,1,7.07,7.07l-55.49,55.49A5,5,0,0,1,163.26,208.73Z"/><path class="cls-1" d="M217.13,193.7a5,5,0,0,1-3.53-8.54L239,159.74a5,5,0,1,1,7.07,7.08l-25.41,25.41A5,5,0,0,1,217.13,193.7Z"/><path class="cls-1" d="M460.21,140.3a5,5,0,0,1-3.54-8.54l8-8a5,5,0,1,1,7.07,7.07l-8,8A5,5,0,0,1,460.21,140.3Z"/><path class="cls-1" d="M432.84,167.64a5,5,0,0,1-3.53-8.54l8-8a5,5,0,1,1,7.07,7.07l-8,8A5,5,0,0,1,432.84,167.64Z"/><path class="cls-1" d="M468.21,167.65a5,5,0,0,1-3.53-1.46l-8-8a5,5,0,0,1,7.07-7.07l8,8a5,5,0,0,1-3.54,8.53Z"/><path class="cls-1" d="M440.87,140.29a5,5,0,0,1-3.53-1.47l-8-8a5,5,0,0,1,7.07-7.08l8,8a5,5,0,0,1-3.54,8.54Z"/><path class="cls-1" d="M149.84,465.3a5,5,0,0,1-3.53-8.54l8-8a5,5,0,1,1,7.07,7.07l-8,8A5,5,0,0,1,149.84,465.3Z"/><path class="cls-1" d="M122.48,492.64A5,5,0,0,1,119,484.1l8-8a5,5,0,1,1,7.07,7.07l-8,8A5,5,0,0,1,122.48,492.64Z"/><path class="cls-1" d="M157.85,492.65a5,5,0,0,1-3.54-1.47l-8-8a5,5,0,1,1,7.07-7.07l8,8a5,5,0,0,1-3.54,8.54Z"/><path class="cls-1" d="M130.51,465.29a5,5,0,0,1-3.54-1.47l-8-8a5,5,0,0,1,7.08-7.07l8,8a5,5,0,0,1-3.53,8.54Z"/></g></svg>