<?xml version="1.0" ?><svg viewBox="0 0 512 512" xmlns="http://www.w3.org/2000/svg"><defs><style>.cls-1{fill:#3f456b;}</style></defs><title/><g id="Lines"><path class="cls-1" d="M256,165a5,5,0,0,1-5-5v-1a5,5,0,0,1,10,0v1A5,5,0,0,1,256,165Z"/><path class="cls-1" d="M464,436a5,5,0,0,1-5-5v-1a5,5,0,0,1,10,0v1A5,5,0,0,1,464,436Z"/><path class="cls-1" d="M177,157H148a25,25,0,0,1-25-25V65a25,25,0,0,1,25-25h29a5,5,0,0,1,0,10H148a15,15,0,0,0-15,15v67a15,15,0,0,0,15,15h29a5,5,0,0,1,0,10Z"/><path class="cls-1" d="M80,104H16a5,5,0,0,1,0-10H80a5,5,0,0,1,0,10Z"/><path class="cls-1" d="M216,186.72a5,5,0,0,1-5-5V15.5a5,5,0,0,1,10,0V181.72A5,5,0,0,1,216,186.72Z"/><path class="cls-1" d="M239.17,500.06c-4.74,0-15.84-.91-24.41-8.72-7.14-6.5-10.76-16-10.76-28.34V439.06c0-1.46-.05-15.68,9.86-25.92C220.38,406.41,229.51,403,241,403h9c22.3,0,38.41-5.83,47.89-17.32,13.37-16.2,9.24-38.51,9.2-38.73l0-.15-12-74c-.26-1.65-2.93-15.8-17.06-15.8a5,5,0,0,1,0-10c18.43,0,25.69,15.87,26.94,24.26l12,73.87c.37,2,4.73,27.47-11.32,46.92C294.13,406,275.42,413,250,413h-9c-8.64,0-15.34,2.37-19.89,7-7.3,7.47-7.11,18.71-7.11,18.82V463c0,9.33,2.5,16.36,7.43,20.89,7.65,7,19,6.14,19.12,6.13l.45,0H464c9.37,0,16.42-2.52,20.95-7.49,6.93-7.62,6.08-18.93,6.07-19s0-.31,0-.47V439c0-8.46-2.35-15-7-19.32-7.68-7.22-19.57-6.7-19.69-6.69H423a5,5,0,0,1-5-5c0-77.06-18.63-167.83-19.51-172.1-.71-2.58-6.75-26.57,6.14-43.66,8.11-10.76,21.66-16.22,40.26-16.24,2.87-.13,47.11-2.78,47.11-39V64c0-18.27-7.31-31.19-21.74-38.4A56,56,0,0,0,448,20H208.91c-.1,0-11.82-.19-19.61,7.42C184.46,32.15,182,39.07,182,48V152a31.45,31.45,0,0,0,3.41,12.85c4.17,7.88,11.62,11.87,22.14,11.87H259a5,5,0,0,1,0,10H207.55C172.41,186.72,172,152.35,172,152V48c0-11.77,3.5-21.13,10.4-27.82C193,10,207.66,10,209.12,10H448a66,66,0,0,1,26.74,6.65C487.17,22.87,502,36.13,502,64v73c0,19.3-10,33.94-29,42.32A84.54,84.54,0,0,1,445.19,186H445c-15.35,0-26.25,4.12-32.39,12.26-10.38,13.77-4.52,34.87-4.46,35.08s.06.23.09.35c.19.92,18.95,90.84,19.73,169.31h35.9c1.9-.08,16.56-.4,27,9.39C497.59,418.72,501,427.67,501,439v23.81c.15,2.19.72,16.13-8.66,26.43-6.5,7.14-16,10.76-28.34,10.76H241.19C240.83,500,240.13,500.06,239.17,500.06Z"/><path class="cls-1" d="M278,257H254c-7.12,0-11.31-3-13.58-5.46-5.29-5.81-5-13.94-4.92-15.74V181.72a5,5,0,0,1,10,0V236c0,.16,0,.31,0,.47-.12,1.46.07,5.88,2.36,8.36,1.34,1.46,3.36,2.17,6.16,2.17h19V200a11.33,11.33,0,0,0-6.2-10.5,22,22,0,0,0-7.38-2.53,5,5,0,0,1,1.13-9.94c7.77.86,22.45,6.77,22.45,23v52A5,5,0,0,1,278,257Z"/><path class="cls-1" d="M124,136H100a25,25,0,0,1-25-25V87a25,25,0,0,1,25-25h24a5,5,0,0,1,0,10H100A15,15,0,0,0,85,87v24a15,15,0,0,0,15,15h24a5,5,0,0,1,0,10Z"/><path class="cls-1" d="M496,453H209a5,5,0,0,1,0-10H496a5,5,0,0,1,0,10Z"/><path class="cls-1" d="M428,413H384a5,5,0,0,1,0-10h44a5,5,0,0,1,0,10Z"/><path class="cls-1" d="M420.5,372.5H312.61a5,5,0,0,1,0-10H420.5a5,5,0,0,1,0,10Z"/><path class="cls-1" d="M320,261H291.34a5,5,0,1,1,0-10H320c8.77,0,15.54-2.45,20.11-7.28,7.58-8,7.15-20.33,7.15-20.46a2.17,2.17,0,0,1,0-.26V175.25c0-19,10.14-28,18.64-32.25A44.6,44.6,0,0,1,384,138.5H496a5,5,0,0,1,0,10H384a34.91,34.91,0,0,0-13.92,3.58c-8.51,4.38-12.83,12.17-12.83,23.17v47.64c.07,1.82.31,17-9.88,27.71C340.83,257.5,331.62,261,320,261Z"/><path class="cls-1" d="M385,51H261a15,15,0,0,1-15-15V16a5,5,0,0,1,10,0V36a5,5,0,0,0,5,5H385a5,5,0,0,0,5-5V16a5,5,0,0,1,10,0V36A15,15,0,0,1,385,51Z"/><path class="cls-1" d="M347,115H251a5,5,0,0,1-5-5V77a5,5,0,0,1,5-5h96a5,5,0,0,1,5,5v33A5,5,0,0,1,347,115Zm-91-10h86V82H256Z"/><path class="cls-1" d="M408,470a5,5,0,0,1,5-5h0a5,5,0,0,1,5,5h0a5,5,0,0,1-5,5h0A5,5,0,0,1,408,470Zm-20,0a5,5,0,0,1,5-5h0a5,5,0,0,1,5,5h0a5,5,0,0,1-5,5h0A5,5,0,0,1,388,470Zm-20,0a5,5,0,0,1,5-5h0a5,5,0,0,1,5,5h0a5,5,0,0,1-5,5h0A5,5,0,0,1,368,470Zm-20,0a5,5,0,0,1,5-5h0a5,5,0,0,1,5,5h0a5,5,0,0,1-5,5h0A5,5,0,0,1,348,470Zm-20,0a5,5,0,0,1,5-5h0a5,5,0,0,1,5,5h0a5,5,0,0,1-5,5h0A5,5,0,0,1,328,470Zm-20,0a5,5,0,0,1,5-5h0a5,5,0,0,1,5,5h0a5,5,0,0,1-5,5h0A5,5,0,0,1,308,470Zm-20,0a5,5,0,0,1,5-5h0a5,5,0,0,1,5,5h0a5,5,0,0,1-5,5h0A5,5,0,0,1,288,470Z"/></g><g id="Outline"><path class="cls-1" d="M337,285.2H301a5,5,0,0,1,0-10h36a5,5,0,0,1,0,10Z"/><path class="cls-1" d="M337,306.8H305a5,5,0,0,1,0-10h32a5,5,0,0,1,0,10Z"/><path class="cls-1" d="M337,329.3H309a5,5,0,0,1,0-10h28a5,5,0,0,1,0,10Z"/><path class="cls-1" d="M337,350H314a5,5,0,0,1,0-10h23a5,5,0,0,1,0,10Z"/><path class="cls-1" d="M380,115a5,5,0,0,1-5-5V77a5,5,0,0,1,10,0v33A5,5,0,0,1,380,115Z"/><path class="cls-1" d="M402,115a5,5,0,0,1-5-5V77a5,5,0,0,1,10,0v33A5,5,0,0,1,402,115Z"/><path class="cls-1" d="M446,115a5,5,0,0,1-5-5V77a5,5,0,0,1,10,0v33A5,5,0,0,1,446,115Z"/><path class="cls-1" d="M424,115a5,5,0,0,1-5-5V77a5,5,0,0,1,10,0v33A5,5,0,0,1,424,115Z"/><path class="cls-1" d="M468,115a5,5,0,0,1-5-5V77a5,5,0,0,1,10,0v33A5,5,0,0,1,468,115Z"/><path class="cls-1" d="M452.51,368.11a5,5,0,0,1-3.56-8.5c.78-.81,2.4-3.11,2.17-4.68-.17-1.17-1.6-2.21-2.77-2.87-5.61-3.17-7.31-7.28-7.75-10.17-1.07-7,4.2-12.87,4.81-13.51a5,5,0,1,1,7.28,6.85c-.82.9-2.49,3.4-2.2,5.18.16,1,1.09,2,2.78,2.94,5.7,3.23,7.36,7.35,7.76,10.23.94,6.9-4.37,12.45-5,13.06A5,5,0,0,1,452.51,368.11Z"/><path class="cls-1" d="M449,336.31a5,5,0,0,1-3.56-8.51c.78-.81,2.4-3.1,2.17-4.68-.17-1.17-1.6-2.2-2.77-2.87-5.61-3.17-7.31-7.28-7.75-10.16-1.07-7,4.2-12.87,4.8-13.52a5,5,0,0,1,7.29,6.85c-.83.91-2.49,3.4-2.2,5.18.16,1,1.09,2,2.78,2.95,5.7,3.22,7.37,7.34,7.76,10.23.95,6.89-4.37,12.45-5,13.06A5,5,0,0,1,449,336.31Z"/><path class="cls-1" d="M445.47,304.5a5,5,0,0,1-3.56-8.5c.78-.81,2.4-3.11,2.17-4.68-.17-1.17-1.6-2.21-2.77-2.87-5.61-3.18-7.31-7.28-7.75-10.17-1.07-7,4.2-12.87,4.8-13.51a5,5,0,0,1,7.29,6.85c-.83.9-2.49,3.4-2.2,5.17.16,1,1.09,2,2.78,2.95,5.7,3.23,7.36,7.35,7.76,10.23.94,6.9-4.37,12.45-5,13.06A5,5,0,0,1,445.47,304.5Z"/><path class="cls-1" d="M442,272.7a5,5,0,0,1-3.56-8.51c.78-.81,2.4-3.1,2.17-4.68-.17-1.17-1.6-2.21-2.77-2.87-5.61-3.17-7.31-7.28-7.75-10.17-1.07-7,4.2-12.87,4.8-13.51a5,5,0,1,1,7.29,6.85c-.83.91-2.49,3.4-2.2,5.18.16,1,1.09,2,2.78,2.95,5.7,3.22,7.36,7.34,7.76,10.23.95,6.89-4.37,12.44-5,13.05A5,5,0,0,1,442,272.7Z"/></g></svg>