<?xml version="1.0" ?><svg viewBox="0 0 512 512" xmlns="http://www.w3.org/2000/svg"><defs><style>.cls-1{fill:#3f456b;}</style></defs><title/><g id="Lines"><path class="cls-1" d="M222.91,468H84.6a5,5,0,0,1-5-5V393a5,5,0,0,1,5-5H222.91a5,5,0,0,1,5,5v70A5,5,0,0,1,222.91,468ZM89.6,458H217.91V398H89.6Z"/><path class="cls-1" d="M466,502H49a5,5,0,0,1-5-5V241a5,5,0,0,1,5-5H466a5,5,0,0,1,5,5V497A5,5,0,0,1,466,502ZM54,492H461V246H54Z"/><path class="cls-1" d="M257.49,502a5,5,0,0,1-5-5V241a5,5,0,0,1,10,0V497A5,5,0,0,1,257.49,502Z"/><path class="cls-1" d="M405,373H323.59a5,5,0,0,1-5-5V241a5,5,0,1,1,10,0V363H400V241a5,5,0,0,1,10,0V368A5,5,0,0,1,405,373Z"/><path class="cls-1" d="M208,161.37a5,5,0,0,1-2-.43L47,90.76a5,5,0,0,1,0-9.15L206,11.43A5,5,0,0,1,212.9,17l-14,69.19,14,69.2a5,5,0,0,1-4.9,6ZM61.38,86.18l139.8,61.71L188.9,87.17a5.07,5.07,0,0,1,0-2l12.28-60.72Z"/><path class="cls-1" d="M193.8,91.18H49a5,5,0,0,1,0-10H193.8a5,5,0,0,1,0,10Z"/></g><g id="Outline"><path class="cls-1" d="M199.52,422H107a5,5,0,0,1,0-10h92.55a5,5,0,0,1,0,10Z"/><path class="cls-1" d="M199.52,445H107a5,5,0,0,1,0-10h92.55a5,5,0,0,1,0,10Z"/><path class="cls-1" d="M364,462.66a5,5,0,0,1-5-5V402a5,5,0,0,1,10,0v55.66A5,5,0,0,1,364,462.66Z"/><path class="cls-1" d="M390.37,433.53a5,5,0,0,1-3.54-1.46L364,409.2,341.1,432.07A5,5,0,0,1,334,425l26.4-26.4a5,5,0,0,1,7.07,0L393.9,425a5,5,0,0,1-3.53,8.53Z"/><path class="cls-1" d="M376.13,205a5,5,0,0,1,0-10,52.74,52.74,0,0,0,9.07-.81A5,5,0,1,1,387,204a62.88,62.88,0,0,1-10.81,1Zm-20,0h-10a5,5,0,0,1,0-10h10a5,5,0,0,1,0,10Zm-30,0h-10a5,5,0,0,1,0-10h10a5,5,0,0,1,0,10Zm-30,0h-10a5,5,0,0,1,0-10h10a5,5,0,0,1,0,10Zm-30,0h-10a5,5,0,0,1,0-10h10a5,5,0,0,1,0,10Zm-30,0h-10a5,5,0,0,1,0-10h10a5,5,0,0,1,0,10Zm-30,0h-10a5,5,0,0,1,0-10h10a5,5,0,0,1,0,10Zm-30,0h-10a5,5,0,0,1,0-10h10a5,5,0,0,1,0,10Zm-30,0h-10a5,5,0,0,1,0-10h10a5,5,0,0,1,0,10Zm-30,0h-10a5,5,0,0,1,0-10h10a5,5,0,0,1,0,10Zm-30,0h-10a5,5,0,0,1,0-10h10a5,5,0,0,1,0,10Zm-30,0H49a5,5,0,0,1,0-10h7.13a5,5,0,0,1,0,10Zm348.61-7.76a5,5,0,0,1-2.53-9.32,51.49,51.49,0,0,0,7.43-5.27,5,5,0,1,1,6.48,7.62,62.28,62.28,0,0,1-8.86,6.28A4.91,4.91,0,0,1,404.74,197.24Zm20.83-21.1a5,5,0,0,1-4.34-7.47,51.56,51.56,0,0,0,3.79-8.28,5,5,0,0,1,9.43,3.34,61.31,61.31,0,0,1-4.53,9.89A5,5,0,0,1,425.57,176.14Zm7.43-28.7a5,5,0,0,1-5-5,52.89,52.89,0,0,0-.88-9.07,5,5,0,0,1,9.83-1.83A63,63,0,0,1,438,142.39a5,5,0,0,1-4.95,5.05Zm-8-28.55a5,5,0,0,1-4.3-2.45,52.08,52.08,0,0,0-5.33-7.39,5,5,0,0,1,7.57-6.53,61.72,61.72,0,0,1,6.35,8.81,5,5,0,0,1-4.29,7.56ZM403.76,98.21a5,5,0,0,1-2.43-.64A51.94,51.94,0,0,0,393,93.85a5,5,0,1,1,3.27-9.45,61.48,61.48,0,0,1,9.91,4.44,5,5,0,0,1-2.44,9.37ZM375,91H365a5,5,0,0,1,0-10h10a5,5,0,0,1,0,10Zm-30,0H335a5,5,0,0,1,0-10h10a5,5,0,0,1,0,10Zm-30,0H305a5,5,0,0,1,0-10h10a5,5,0,0,1,0,10Zm-30,0H275a5,5,0,0,1,0-10h10a5,5,0,0,1,0,10Zm-30,0H245a5,5,0,0,1,0-10h10a5,5,0,0,1,0,10Zm-30,0H215a5,5,0,0,1,0-10h10a5,5,0,0,1,0,10Z"/></g></svg>