<?xml version="1.0" ?><svg viewBox="0 0 512 512" xmlns="http://www.w3.org/2000/svg"><defs><style>.cls-1{fill:#3f456b;}</style></defs><title/><g id="Lines"><path class="cls-1" d="M416.66,501H278a5,5,0,0,1-4.85-3.8l-17-68.62-16.24,68.57A5,5,0,0,1,235,501H96.34a5,5,0,0,1-5-5V280a5,5,0,0,1,5-5H416.66a5,5,0,0,1,5,5V496A5,5,0,0,1,416.66,501ZM281.91,491H411.66V285H101.34V491H231.05l20.09-84.78a5,5,0,0,1,4.83-3.85h0a5,5,0,0,1,4.85,3.79Z"/><path class="cls-1" d="M256,411.81a5,5,0,0,1-5-5V306a5,5,0,0,1,10,0V406.81A5,5,0,0,1,256,411.81Z"/><path class="cls-1" d="M256,164a5,5,0,0,1-5-5V128a5,5,0,0,1,10,0v31A5,5,0,0,1,256,164Z"/><path class="cls-1" d="M256,283a5,5,0,0,1-5-5V247a5,5,0,0,1,10,0v31A5,5,0,0,1,256,283Z"/><path class="cls-1" d="M201,340H176a5,5,0,0,1-5-5V280a5,5,0,0,1,10,0v50h15V280a5,5,0,0,1,10,0v55A5,5,0,0,1,201,340Z"/><path class="cls-1" d="M337,340H312a5,5,0,0,1-5-5V280a5,5,0,0,1,10,0v50h15V280a5,5,0,0,1,10,0v55A5,5,0,0,1,337,340Z"/><path class="cls-1" d="M96.69,389a5,5,0,0,1,0-10c12.86,0,22.7-3.6,29.23-10.7,10.8-11.74,9.44-29.59,9.43-29.76s0-.29,0-.43V305.69a5,5,0,0,1,10,0v32.22c.18,2.59,1.15,22.73-12,37.09C124.84,384.29,112.51,389,96.69,389Z"/><path class="cls-1" d="M193.75,107.71c-12.69,0-28.93-.18-33.6-.23a5,5,0,0,1-5-5V13a5,5,0,0,1,5-5H209a5,5,0,0,1,5,5v89.48a5,5,0,0,1-4.33,5C208.15,107.64,201.63,107.71,193.75,107.71ZM165.2,97.53c13.37.14,30.68.25,38.8.14V18H165.2Z"/><path class="cls-1" d="M337.75,107.71c-12.69,0-28.93-.18-33.6-.23a5,5,0,0,1-4.95-5V13a5,5,0,0,1,5-5H353a5,5,0,0,1,5,5v89.48a5,5,0,0,1-4.33,5C352.15,107.64,345.63,107.71,337.75,107.71ZM309.2,97.53c13.37.14,30.68.24,38.8.14V18H309.2Z"/><path class="cls-1" d="M416.45,310.69H337.5a5,5,0,0,1,0-10h78.95a5,5,0,0,1,0,10Z"/><path class="cls-1" d="M311.42,310.69h-110a5,5,0,0,1,0-10h110a5,5,0,0,1,0,10Z"/><path class="cls-1" d="M175.25,310.69H96.55a5,5,0,0,1,0-10h78.7a5,5,0,0,1,0,10Z"/><path class="cls-1" d="M416.53,389c-15.81,0-28.14-4.71-36.65-14-13.14-14.36-12.17-34.5-12-37.09V305.69a5,5,0,1,1,10,0v32.42c0,.14,0,.29,0,.44s-1.37,18,9.43,29.75c6.53,7.1,16.36,10.7,29.22,10.7a5,5,0,0,1,0,10Z"/><path class="cls-1" d="M386,285a5,5,0,0,1-4.91-4.14L355.17,133H157L131.93,280.84a5,5,0,0,1-9.86-1.68l25.82-152a5,5,0,0,1,4.93-4.16H359.37a5,5,0,0,1,4.93,4.14l26.62,152a5,5,0,0,1-4.06,5.78A4.27,4.27,0,0,1,386,285Z"/><path class="cls-1" d="M313.28,249H198.72a5,5,0,0,1-3.58-1.51l-20.72-21.25a5,5,0,0,1-1.42-3.49V159a5,5,0,0,1,5-5H334a5,5,0,0,1,5,5v63.75a5,5,0,0,1-1.42,3.49l-20.72,21.25A5,5,0,0,1,313.28,249ZM200.83,239H311.17L329,220.72V164H183v56.72Z"/><path class="cls-1" d="M242,472H97a5,5,0,0,1,0-10H242a5,5,0,0,1,0,10Z"/><path class="cls-1" d="M416,472H271a5,5,0,0,1,0-10H416a5,5,0,0,1,0,10Z"/><path class="cls-1" d="M185.24,148a5,5,0,0,1-5-5v-1.15a5,5,0,0,1,10,0V143A5,5,0,0,1,185.24,148Z"/><path class="cls-1" d="M112.82,297.42h-1.15a5,5,0,0,1,0-10h1.15a5,5,0,0,1,0,10Z"/><path class="cls-1" d="M112.82,325.42h-1.15a5,5,0,0,1,0-10h1.15a5,5,0,0,1,0,10Z"/><path class="cls-1" d="M400.82,297.42h-1.15a5,5,0,0,1,0-10h1.15a5,5,0,0,1,0,10Z"/><path class="cls-1" d="M400.82,325.42h-1.15a5,5,0,0,1,0-10h1.15a5,5,0,0,1,0,10Z"/><path class="cls-1" d="M328.24,148a5,5,0,0,1-5-5v-1.15a5,5,0,0,1,10,0V143A5,5,0,0,1,328.24,148Z"/><path class="cls-1" d="M171.5,133a5,5,0,0,1-5-5V102.71a5,5,0,1,1,10,0V128A5,5,0,0,1,171.5,133Z"/><path class="cls-1" d="M197.5,133a5,5,0,0,1-5-5V102.71a5,5,0,1,1,10,0V128A5,5,0,0,1,197.5,133Z"/><path class="cls-1" d="M315.5,133a5,5,0,0,1-5-5V102.71a5,5,0,1,1,10,0V128A5,5,0,0,1,315.5,133Z"/><path class="cls-1" d="M341.5,133a5,5,0,0,1-5-5V102.71a5,5,0,1,1,10,0V128A5,5,0,0,1,341.5,133Z"/></g><g id="Outline"><path class="cls-1" d="M261.8,404a38.17,38.17,0,0,1-6.31-.47,5,5,0,0,1,1.74-9.85h0c.12,0,12.44,2.05,20.15-4.45,4.39-3.7,6.62-9.74,6.62-17.93V306a5,5,0,0,1,10,0v65.3c0,11.32-3.45,19.94-10.24,25.63C276.7,402.84,267.72,404,261.8,404Z"/><path class="cls-1" d="M128,472a5,5,0,0,1-5-5v-2a5,5,0,0,1,10,0v2A5,5,0,0,1,128,472Zm0-22a5,5,0,0,1-5-5v-3a5,5,0,0,1,10,0v3A5,5,0,0,1,128,450Zm0-23a5,5,0,0,1-5-5v-3a5,5,0,0,1,10,0v3A5,5,0,0,1,128,427Zm0-23a5,5,0,0,1-5-5v-3a5,5,0,0,1,10,0v3A5,5,0,0,1,128,404Zm0-23a5,5,0,0,1-5-5v-3a5,5,0,0,1,10,0v3A5,5,0,0,1,128,381Z"/><path class="cls-1" d="M384,472a5,5,0,0,1-5-5v-2a5,5,0,0,1,10,0v2A5,5,0,0,1,384,472Zm0-22a5,5,0,0,1-5-5v-3a5,5,0,0,1,10,0v3A5,5,0,0,1,384,450Zm0-23a5,5,0,0,1-5-5v-3a5,5,0,0,1,10,0v3A5,5,0,0,1,384,427Zm0-23a5,5,0,0,1-5-5v-3a5,5,0,0,1,10,0v3A5,5,0,0,1,384,404Zm0-23a5,5,0,0,1-5-5v-3a5,5,0,0,1,10,0v3A5,5,0,0,1,384,381Z"/><path class="cls-1" d="M314,187h-3a5,5,0,0,1,0-10h3a5,5,0,0,1,0,10Zm-23,0h-3a5,5,0,0,1,0-10h3a5,5,0,0,1,0,10Zm-23,0h-3a5,5,0,0,1,0-10h3a5,5,0,0,1,0,10Zm-23,0h-3a5,5,0,0,1,0-10h3a5,5,0,0,1,0,10Zm-23,0h-3a5,5,0,0,1,0-10h3a5,5,0,0,1,0,10Zm-23,0h-3a5,5,0,0,1,0-10h3a5,5,0,0,1,0,10Z"/><path class="cls-1" d="M176,97a5,5,0,0,1-5-5V89a5,5,0,0,1,10,0v3A5,5,0,0,1,176,97Zm0-23a5,5,0,0,1-5-5V66a5,5,0,0,1,10,0v3A5,5,0,0,1,176,74Zm0-23a5,5,0,0,1-5-5V43a5,5,0,0,1,10,0v3A5,5,0,0,1,176,51Zm0-23a5,5,0,0,1-5-5V20a5,5,0,0,1,10,0v3A5,5,0,0,1,176,28Z"/><path class="cls-1" d="M337,97a5,5,0,0,1-5-5V89a5,5,0,0,1,10,0v3A5,5,0,0,1,337,97Zm0-23a5,5,0,0,1-5-5V66a5,5,0,0,1,10,0v3A5,5,0,0,1,337,74Zm0-23a5,5,0,0,1-5-5V43a5,5,0,0,1,10,0v3A5,5,0,0,1,337,51Zm0-23a5,5,0,0,1-5-5V20a5,5,0,0,1,10,0v3A5,5,0,0,1,337,28Z"/></g></svg>