<?xml version="1.0" ?><svg viewBox="0 0 512 512" xmlns="http://www.w3.org/2000/svg"><defs><style>.cls-1{fill:#3f456b;}.cls-2{fill:#384169;}</style></defs><title/><g id="Lines"><path class="cls-1" d="M398.12,79a26,26,0,1,1,26-26A26,26,0,0,1,398.12,79Zm0-42a16,16,0,1,0,16,16A16,16,0,0,0,398.12,37Z"/><path class="cls-1" d="M480,230a26,26,0,1,1,26-26A26,26,0,0,1,480,230Zm0-42a16,16,0,1,0,16,16A16,16,0,0,0,480,188Z"/><path class="cls-1" d="M73,388a26,26,0,1,1,26-26A26,26,0,0,1,73,388Zm0-42a16,16,0,1,0,16,16A16,16,0,0,0,73,346Z"/><path class="cls-1" d="M383.12,138a26,26,0,1,1,26-26A26,26,0,0,1,383.12,138Zm0-42a16,16,0,1,0,16,16A16,16,0,0,0,383.12,96Z"/><path class="cls-1" d="M330.12,86a26,26,0,1,1,26-26A26,26,0,0,1,330.12,86Zm0-42a16,16,0,1,0,16,16A16,16,0,0,0,330.12,44Z"/><path class="cls-1" d="M324.12,150a4.93,4.93,0,0,1-1.46-.22,5,5,0,0,1-3.32-6.24c19.45-63.48,57.2-80.44,58.8-81.13a5,5,0,0,1,4,9.17c-.5.23-35.26,16.29-53.22,74.88A5,5,0,0,1,324.12,150Z"/><path class="cls-1" d="M337,118.47a5,5,0,0,1-4.21-2.29c-8.86-13.75-7.75-34.59-7.7-35.47a5,5,0,1,1,10,.58h0c0,.18-.95,18.49,6.13,29.47a5,5,0,0,1-4.2,7.71Z"/><path class="cls-1" d="M363.35,109.91H342a5,5,0,0,1,0-10h21.4a5,5,0,0,1,0,10Z"/><path class="cls-1" d="M304,437H268.67a5,5,0,0,1,0-10H299V309H213v66.5a5,5,0,0,1-10,0V304a5,5,0,0,1,5-5h96a5,5,0,0,1,5,5V432A5,5,0,0,1,304,437Z"/><path class="cls-1" d="M272.43,90.5h-.07a5,5,0,0,1-4.93-5.07c.12-9.3-4.95-15.9-15.5-20.18-10.92-4.42-18.86-3-25,4.5a5,5,0,1,1-7.74-6.33c6.22-7.61,17.61-15.09,36.49-7.43,18.19,7.36,21.86,20.15,21.74,29.57A5,5,0,0,1,272.43,90.5Z"/><path class="cls-1" d="M176.09,295.89a39.63,39.63,0,0,1-14.88-3.21C142.3,285,139,271.53,139.53,261.56a5,5,0,1,1,10,.55C149,272,154,279,165,283.41s18.88,3,25-4.52a5,5,0,1,1,7.75,6.32C193.35,290.58,186.41,295.89,176.09,295.89Z"/><path class="cls-1" d="M297.65,243.31l-1.27,0a5,5,0,0,1,.36-10c9.6.33,16.43-4.71,20.79-15.47,4.43-10.94,3-18.88-4.52-25a5,5,0,0,1,6.32-7.75c7.63,6.23,15.12,17.61,7.47,36.51C319.59,239.36,307.22,243.31,297.65,243.31Z"/><path class="cls-1" d="M100.82,164.81a5,5,0,0,1-3.14-1.11c-7.7-6.23-15.26-17.64-7.58-36.6,7.42-18.31,20.32-21.92,29.83-21.74a5,5,0,0,1-.2,10c-9.44-.19-16.06,4.88-20.36,15.49-4.44,11-3,18.94,4.6,25.07a5,5,0,0,1-3.15,8.89Z"/><path class="cls-1" d="M316.12,162.12a5,5,0,0,1-3.43-8.64c6.95-6.54,8.14-14.9,3.64-25.53s-11.09-15.36-20.57-14.52a5,5,0,0,1-.89-10c9.66-.86,22.8,2,30.67,20.58,7.77,18.36,1,30.1-6,36.71A5,5,0,0,1,316.12,162.12Z"/><path class="cls-1" d="M119.05,245.33c-9.24,0-20.61-4-27.69-20.71-7.78-18.4-1-30.15,6-36.77a5,5,0,1,1,6.84,7.3c-7,6.55-8.19,14.91-3.68,25.57s11.09,15.36,20.57,14.52a5,5,0,0,1,.89,10C121.07,245.28,120.07,245.33,119.05,245.33Z"/><path class="cls-1" d="M243.21,294.89a28.6,28.6,0,0,1-21.34-9.62,5,5,0,1,1,7.32-6.81c6.56,7.05,14.95,8.28,25.64,3.75s15.37-11.09,14.52-20.57a5,5,0,0,1,10-.89c.86,9.65-2,22.81-20.58,30.67A39.86,39.86,0,0,1,243.21,294.89Z"/><path class="cls-1" d="M142.56,92.47a5,5,0,0,1-5-4.56c-.86-9.65,2-22.8,20.58-30.66s30.23-1,36.85,6.14a5,5,0,1,1-7.31,6.81c-6.57-7-15-8.27-25.64-3.74S146.7,77.54,147.55,87A5,5,0,0,1,143,92.45Z"/><path class="cls-1" d="M209,228a53,53,0,1,1,53-53A53.07,53.07,0,0,1,209,228Zm0-96a43,43,0,1,0,43,43A43,43,0,0,0,209,132Z"/><path class="cls-1" d="M227.25,133.67a5.06,5.06,0,0,1-1.82-.34,5,5,0,0,1-2.84-6.48c3.81-9.83,11.74-38.22,2.73-51.37-3.44-5-9.16-7.48-17.47-7.48S194.16,70.36,191,75.22c-8.59,13.07.58,41.58,4.85,51.47a5,5,0,0,1-9.19,4c-.71-1.66-17.3-40.73-4-60.93C187.72,61.94,196.22,58,207.85,58s20.36,4,25.73,11.84c13.82,20.2-1,59-1.67,60.64A5,5,0,0,1,227.25,133.67Z"/><path class="cls-1" d="M209.05,290.67c-11.7,0-20.36-4-25.73-11.84-13.82-20.21,1-59,1.68-60.64a5,5,0,1,1,9.31,3.62c-3.81,9.83-11.74,38.22-2.73,51.38,3.44,5,9.16,7.48,17.47,7.48,8.16,0,13.69-2.36,16.88-7.21,8.59-13-.58-41.58-4.84-51.48a5,5,0,0,1,9.19-4c.71,1.65,17.3,40.72,4,60.92C229.18,286.72,220.68,290.67,209.05,290.67Z"/><path class="cls-1" d="M290,205.33c-18.07,0-36.61-7.1-37.74-7.54a5,5,0,0,1,3.63-9.32c9.83,3.81,38.22,11.74,51.38,2.74,5-3.45,7.47-9.16,7.47-17.47s-2.36-13.69-7.21-16.89c-13-8.58-41.58.58-51.48,4.84a5,5,0,0,1-3.95-9.18c1.65-.72,40.72-17.31,60.92-4,7.78,5.12,11.72,13.61,11.72,25.25s-4,20.35-11.84,25.73C306.57,203.82,298.35,205.33,290,205.33Z"/><path class="cls-1" d="M124.34,205.32c-7.49,0-14.76-1.37-20.5-5.14-7.78-5.12-11.72-13.62-11.72-25.25s4-20.36,11.84-25.73c20.2-13.81,59,1,60.64,1.68A5,5,0,0,1,161,160.2c-9.83-3.82-38.22-11.74-51.37-2.74-5,3.45-7.48,9.16-7.48,17.47s2.36,13.69,7.21,16.89c13,8.58,41.58-.59,51.48-4.84a5,5,0,1,1,3.95,9.18C163.58,196.67,143.23,205.32,124.34,205.32Z"/><path class="cls-1" d="M254,160.33a5,5,0,0,1-2-9.57c9.65-4.26,35.33-18.73,38.26-34.4,1.12-6-1.19-11.76-7.06-17.64s-11.35-8-17.05-6.84c-15.32,3.16-29,29.82-33,39.82a5,5,0,0,1-9.29-3.69c.66-1.67,16.56-41,40.24-45.92,9.12-1.88,17.91,1.33,26.14,9.56s11.58,17.21,9.82,26.57c-4.52,24.05-42.45,41-44.07,41.69A4.89,4.89,0,0,1,254,160.33Z"/><path class="cls-1" d="M147.73,267.1c-7.33,0-14.41-3.38-21.12-10.09-8.27-8.27-11.57-17.21-9.82-26.56,4.52-24,42.45-41,44.07-41.69a5,5,0,1,1,4,9.15c-9.65,4.25-35.33,18.72-38.26,34.39-1.12,6,1.19,11.77,7.06,17.64s11.36,8,17,6.85c15.29-3.15,29-29.82,33-39.83a5,5,0,0,1,9.29,3.7c-.66,1.67-16.56,41-40.24,45.92A24.6,24.6,0,0,1,147.73,267.1Z"/><path class="cls-1" d="M269.41,266.45a25.74,25.74,0,0,1-4.84-.46c-24.06-4.51-41-42.45-41.7-44.06a5,5,0,0,1,9.16-4c4.25,9.65,18.72,35.33,34.39,38.27,6,1.12,11.76-1.19,17.64-7.07s8-11.35,6.84-17c-3.16-15.32-29.82-29-39.82-33a5,5,0,0,1,3.69-9.29c1.68.67,41,16.56,45.92,40.24,1.89,9.12-1.33,17.91-9.56,26.14C284.3,263,277,266.45,269.41,266.45Z"/><path class="cls-1" d="M164,159.23a5,5,0,0,1-1.84-.35c-1.68-.67-41-16.56-45.92-40.24-1.89-9.12,1.33-17.92,9.56-26.15S143,80.92,152.33,82.68c24.06,4.51,41,42.45,41.7,44.06a5,5,0,1,1-9.16,4c-4.25-9.64-18.72-35.32-34.39-38.26-6-1.12-11.76,1.19-17.64,7.07s-8,11.35-6.84,17c3.16,15.32,29.82,29,39.82,33a5,5,0,0,1-1.85,9.65Z"/><path class="cls-1" d="M336.09,429.89a39.63,39.63,0,0,1-14.88-3.21C302.3,419,299,405.53,299.53,395.56a5,5,0,1,1,10,.55C309,406,314,413,325,417.41s18.88,3,25-4.52a5,5,0,1,1,7.75,6.32C353.35,424.58,346.41,429.89,336.09,429.89Z"/><path class="cls-1" d="M457.65,377.31l-1.27,0a5,5,0,0,1,.36-10c9.6.34,16.43-4.71,20.79-15.47,4.43-10.94,3-18.88-4.52-25a5,5,0,0,1,6.32-7.75c7.63,6.23,15.12,17.61,7.47,36.51C479.59,373.36,467.22,377.31,457.65,377.31Z"/><path class="cls-1" d="M403.21,428.89a28.6,28.6,0,0,1-21.34-9.62,5,5,0,1,1,7.32-6.81c6.56,7.05,14.95,8.28,25.64,3.75s15.37-11.09,14.52-20.57a5,5,0,0,1,10-.89c.86,9.65-2,22.81-20.58,30.67A39.86,39.86,0,0,1,403.21,428.89Z"/><path class="cls-1" d="M369,362a53,53,0,0,1-38.74-89.17,5,5,0,1,1,7.31,6.83,43,43,0,1,0,61.84-1.07,5,5,0,0,1,7.07-7.07A53,53,0,0,1,369,362Z"/><path class="cls-1" d="M369.05,424.67c-11.7,0-20.36-4-25.73-11.84-13.82-20.21,1-59,1.68-60.64a5,5,0,1,1,9.31,3.62c-3.81,9.83-11.74,38.22-2.73,51.38,3.44,5,9.16,7.48,17.47,7.48,8.16,0,13.69-2.36,16.88-7.21,8.59-13-.58-41.58-4.84-51.48a5,5,0,0,1,9.19-4c.71,1.65,17.3,40.72,4,60.92C389.18,420.72,380.68,424.67,369.05,424.67Z"/><path class="cls-1" d="M450,339.33c-18.07,0-36.61-7.1-37.74-7.54a5,5,0,0,1,3.63-9.32c9.83,3.81,38.22,11.74,51.38,2.74,5-3.45,7.47-9.16,7.47-17.47a29.35,29.35,0,0,0-1.07-8.31,5,5,0,0,1,9.58-2.86,39.17,39.17,0,0,1,1.49,11.17c0,11.7-4,20.35-11.84,25.73C466.57,337.82,458.35,339.33,450,339.33Z"/><path class="cls-1" d="M414.12,296.1a5,5,0,0,1-2-9.59,134.17,134.17,0,0,1,19.16-6.28,5,5,0,1,1,2.4,9.7,129.32,129.32,0,0,0-17.61,5.76A4.9,4.9,0,0,1,414.12,296.1Z"/><path class="cls-1" d="M322.78,294.54a5,5,0,0,1-1.81-.34,120.73,120.73,0,0,0-25.51-6.33,5,5,0,0,1,1.22-9.93,129.74,129.74,0,0,1,27.92,6.94,5,5,0,0,1-1.82,9.66Z"/><path class="cls-1" d="M304.49,342.43a5,5,0,0,1-2.87-9.1,96.62,96.62,0,0,1,19.5-10.68,5,5,0,0,1,3.5,9.37,88.06,88.06,0,0,0-17.26,9.51A5,5,0,0,1,304.49,342.43Z"/><path class="cls-1" d="M429.41,400.45a25.74,25.74,0,0,1-4.84-.46c-24.06-4.51-41-42.45-41.7-44.06a5,5,0,0,1,9.16-4c4.25,9.65,18.72,35.33,34.39,38.27,6,1.12,11.76-1.19,17.64-7.07s8-11.35,6.84-17.05c-3.16-15.32-29.82-29-39.82-33a5,5,0,0,1,3.69-9.29c1.68.67,41,16.56,45.92,40.24,1.89,9.12-1.33,17.91-9.56,26.14C444.3,397,437,400.45,429.41,400.45Z"/><path class="cls-1" d="M445,241a5,5,0,0,1-4.93-4.24c-1.44-9.35-11.7-11.78-12.14-11.88a5,5,0,0,1,2.13-9.77c.71.15,17.4,3.91,19.89,20.13A5,5,0,0,1,445,241Z"/><path class="cls-1" d="M307.79,401.09a23.64,23.64,0,0,1-4.07-.35,5,5,0,0,1,1.7-9.86c17.17,3,33.45-27.81,38.28-39.92a5,5,0,0,1,9.29,3.7C352.2,356.64,334.22,401.09,307.79,401.09Z"/><path class="cls-1" d="M368,308c-12.54,0-22.77-4.31-29.57-12.46-5.58-6.68-11.38-19.29-7.35-41.43C337.48,218.9,365.26,218,368,218h0c8.35,0,27.9,0,36.85,35.79,5.17,20.68-.22,33.32-5.65,40.28C392.18,303.05,381.1,308,368,308Zm-.32-80c-2.13,0-21.82.74-26.76,27.89-2.64,14.52-.85,26,5.18,33.24S361.39,298,368,298c10,0,18.24-3.58,23.31-10.08,5.83-7.47,7.16-18.43,3.84-31.71C388.1,228,375.52,228,368,228h-.32Z"/><path class="cls-1" d="M369,248a5,5,0,0,1-5-5v-1a5,5,0,0,1,10,0v1A5,5,0,0,1,369,248Z"/><path class="cls-1" d="M369,272a5,5,0,0,1-5-5v-1a5,5,0,0,1,10,0v1A5,5,0,0,1,369,272Z"/><path class="cls-1" d="M353,261a5,5,0,0,1-5-5v-1a5,5,0,0,1,10,0v1A5,5,0,0,1,353,261Z"/><path class="cls-1" d="M357,288a5,5,0,0,1-5-5v-1a5,5,0,0,1,10,0v1A5,5,0,0,1,357,288Z"/><path class="cls-1" d="M381,288a5,5,0,0,1-5-5v-1a5,5,0,0,1,10,0v1A5,5,0,0,1,381,288Z"/><path class="cls-1" d="M384,261a5,5,0,0,1-5-5v-1a5,5,0,0,1,10,0v1A5,5,0,0,1,384,261Z"/><path class="cls-1" d="M98.1,123.79a5.49,5.49,0,0,1-.8-.06c-10.42-1.68-24.61-9.1-33-34.92C53.25,54.69,77.43,40.75,79.72,39.52h0c7.35-4,24.57-13.22,49.41,14.06,10,11,15,22.68,14.56,33.85a5,5,0,0,1-10-.41c.35-8.49-3.78-17.73-12-26.71-19.58-21.5-30.66-15.55-37.28-12l-.17.08C83.53,48.8,65,58.55,73.83,85.72c5.39,16.63,14.06,26.36,25.06,28.13a5,5,0,0,1-.79,9.94Z"/><path class="cls-1" d="M92.45,66.06A5,5,0,0,1,88,63.43l-.47-.88a5,5,0,0,1,8.81-4.74l.47.88a5,5,0,0,1-2,6.78A5.07,5.07,0,0,1,92.45,66.06Z"/><path class="cls-1" d="M103.82,87.2a5,5,0,0,1-4.4-2.63l-.48-.88A5,5,0,1,1,107.75,79l.47.88a5,5,0,0,1-4.4,7.37Z"/><path class="cls-1" d="M84.52,85.09a5,5,0,0,1-4.41-2.63l-.47-.88a5,5,0,0,1,8.81-4.74l.47.88a5,5,0,0,1-4.4,7.37Z"/><path class="cls-1" d="M100.84,107a5,5,0,0,1-4.41-2.63l-.47-.88a5,5,0,1,1,8.8-4.73l.48.88a5,5,0,0,1-4.4,7.36Z"/><path class="cls-1" d="M122,95.6A5,5,0,0,1,117.56,93l-.47-.88a5,5,0,0,1,8.81-4.74l.47.88a5,5,0,0,1-2,6.78A5.07,5.07,0,0,1,122,95.6Z"/><path class="cls-1" d="M111.82,70.4a5,5,0,0,1-4.41-2.63l-.47-.88a5,5,0,0,1,8.81-4.74l.47.89a5,5,0,0,1-2,6.77A5.07,5.07,0,0,1,111.82,70.4Z"/><path class="cls-1" d="M247,501H224a5,5,0,0,1-5-4.93l-.33-24a5,5,0,0,1,10-.14l.26,19.07H242V464a5,5,0,0,1,10,0v32A5,5,0,0,1,247,501Z"/><path class="cls-1" d="M292,501H269a5,5,0,0,1-5-5l-.33-39a5,5,0,0,1,4.95-5h.05a5,5,0,0,1,5,5l.29,34h13V432.33a5,5,0,1,1,10,0V496A5,5,0,0,1,292,501Z"/><path class="cls-1" d="M268.67,491.33H247a5,5,0,1,1,0-10h21.67a5,5,0,0,1,0,10Z"/><path class="cls-1" d="M222.49,309a5,5,0,0,1-4.94-4.32,39.4,39.4,0,0,0-6.46-16.45,5,5,0,0,1,8-6,49,49,0,0,1,8.39,21.13,5,5,0,0,1-4.27,5.63A4,4,0,0,1,222.49,309Z"/><path class="cls-1" d="M247,308.5a5,5,0,0,1-5-5c0-3.87-1.64-10.07-2.28-12.13a5,5,0,0,1,9.56-2.95c.28.91,2.72,9,2.72,15.08A5,5,0,0,1,247,308.5Z"/><path class="cls-1" d="M293,308.33h-.33A5,5,0,0,1,288,303c3-45.29,16.11-68.8,16.66-69.77a5,5,0,0,1,8.71,4.92h0c-.13.22-12.52,22.74-15.39,65.52A5,5,0,0,1,293,308.33Z"/><path class="cls-1" d="M271,308h-.18a5,5,0,0,1-4.82-5.19c1-27.41,6.05-42.58,6.26-43.21a5,5,0,0,1,9.48,3.19h0c-.05.15-4.79,14.59-5.74,40.4A5,5,0,0,1,271,308Z"/><path class="cls-1" d="M463.39,306.75c-6.64,0-13.52-2.19-20.56-6.55-30.33-18.8-27.63-53.59-27.5-55.06a5,5,0,0,1,2.44-3.86c1.39-.83,34.37-19.94,63.84-4.13,8.76,4.7,14.34,11.29,16.57,19.59,4,15-4.69,30.16-5.66,31.77s-8,13.62-21.42,17.22A29.58,29.58,0,0,1,463.39,306.75Zm-38.18-58.11c0,7.67,2,30.09,22.89,43.06,7.33,4.54,14.17,6,20.33,4.4,9.87-2.61,15.31-12.37,15.36-12.47l.14-.24h0c.07-.12,7.66-12.74,4.58-24.1-1.52-5.59-5.32-10-11.62-13.33-10.14-5.43-22.21-6.48-35.88-3.11A79.73,79.73,0,0,0,425.21,248.64Z"/><path class="cls-1" d="M451.89,135.82a65.65,65.65,0,0,1-32.07-8.67,5,5,0,0,1-2.35-3.91c-.11-1.62-2.27-39.67,25.15-58.83,8.14-5.7,16.54-7.69,24.95-5.94,15.24,3.18,24.79,17.8,25.8,19.4,1,1.45,8.55,13.25,5.69,26.88-1.9,9.08-7.85,16.73-17.7,22.73A55.81,55.81,0,0,1,451.89,135.82Zm-24.49-15.9c6.85,3.45,27.72,11.84,48.76-1,7.39-4.51,11.8-10,13.12-16.24,2.07-9.9-4.14-19.14-4.2-19.24l-.16-.24h0c-.08-.13-7.91-12.59-19.44-15-5.67-1.17-11.27.25-17.14,4.35-9.42,6.59-15.81,16.89-19,30.61A79.46,79.46,0,0,0,427.4,119.92Z"/><path class="cls-1" d="M74.41,328a70.5,70.5,0,0,1-35.28-9c-21.22-12.21-30.76-34.38-24.29-56.48C21.4,240.13,37.35,224.62,61,217.69A98.07,98.07,0,0,1,94.47,214a5,5,0,0,1-.94,10,89.23,89.23,0,0,0-30,3.39c-20.3,6-33.45,18.83-39,38-5.21,17.78,2.33,35,19.68,45,13,7.48,29.58,9.56,46.66,5.83,20.24-4.41,40.47-16.78,58.51-35.79a5,5,0,1,1,7.25,6.88c-19.42,20.47-41.42,33.85-63.63,38.68A87.06,87.06,0,0,1,74.41,328Z"/><path class="cls-1" d="M349.38,234.86a5.82,5.82,0,0,1-.92-.08c-12.14-2.28-21.24-4.67-29.09-9.53a5,5,0,0,1,5.26-8.5c6.53,4,14.66,6.13,25.67,8.2a5,5,0,0,1-.92,9.91Z"/><path class="cls-1" d="M392.5,238.21a5,5,0,0,1-.15-10c34.34-1,42.89-23.47,45-33.07,4.52-20.86-11.14-37.06-18.09-43.06-39-33.67-99.6,8.68-100.21,9.11a5,5,0,0,1-5.8-8.14,153.94,153.94,0,0,1,38.63-18.87c29.59-9.44,55.15-5.87,73.92,10.34,17.53,15.14,25.31,34.36,21.32,52.74-5.37,24.78-25.72,40.09-54.44,41Z"/><path class="cls-1" d="M420,251a5,5,0,0,1-2.34-.59c-.15-.08-14.63-7.74-26-9.53a5,5,0,0,1,1.54-9.88c13.09,2.05,28.53,10.24,29.19,10.59A5,5,0,0,1,420,251Z"/><path class="cls-1" d="M404.12,142.54a5,5,0,0,1-3.92-8.1c5.58-7,18.57-15.31,19.12-15.66a5,5,0,1,1,5.36,8.44c-3.36,2.13-12.88,8.69-16.64,13.43A5,5,0,0,1,404.12,142.54Z"/><path class="cls-1" d="M147.12,391.74c-14.59,0-26.66-10.48-28-11.68s-11.84-10.42-12.82-24.31c-.65-9.25,3-18.23,10.82-26.69,24.23-26.2,57.87-16.92,59.29-16.51a5,5,0,0,1,3.33,3.13c.54,1.52,13,37.54-8.12,63.46-6.28,7.7-13.81,11.92-22.38,12.53C148.53,391.72,147.82,391.74,147.12,391.74ZM125.79,372.6c.22.2,11.13,9.95,22.79,9.09,5.77-.42,10.77-3.32,15.3-8.87,14.7-18,9.42-43.23,7.21-51.24-7.53-1.44-29.9-3.81-46.63,14.27-5.88,6.35-8.63,12.81-8.18,19.2.71,10.1,9.2,17.29,9.29,17.36Z"/><path class="cls-1" d="M174.81,323.29a5,5,0,0,1-4.51-7.13c.41-.86,10.41-21.25,42.9-33.82a5,5,0,1,1,3.6,9.32c-14.91,5.78-24.31,13.31-29.56,18.61a44.36,44.36,0,0,0-7.92,10.21A5,5,0,0,1,174.81,323.29Z"/><path class="cls-1" d="M304,356H208a5,5,0,0,1,0-10h96a5,5,0,0,1,0,10Z"/><path class="cls-1" d="M304,389H255a5,5,0,0,1,0-10h49a5,5,0,0,1,0,10Z"/><path class="cls-1" d="M149,484a5,5,0,0,1-4.83-3.71l-8-30a5,5,0,0,1,4.47-6.28c28.66-2,44.25-17.36,52.28-29.85a5,5,0,1,1,8.41,5.41c-8.68,13.51-25,29.88-54,33.8l5.39,20.23c9.8-1.26,35.32-6.12,50.51-23.51a5,5,0,0,1,7.53,6.57c-21.81,25-59.9,27.25-61.51,27.33Z"/><path class="cls-1" d="M91.48,357a5,5,0,0,1-2.57-9.3,86.45,86.45,0,0,1,23.48-9.17,5,5,0,1,1,2,9.78,77.05,77.05,0,0,0-20.41,8A5,5,0,0,1,91.48,357Z"/><path class="cls-1" d="M439.28,230.43a5,5,0,0,1-3.2-8.84,72.46,72.46,0,0,1,24.06-12.9,5,5,0,1,1,2.72,9.62,63.16,63.16,0,0,0-20.38,11A5,5,0,0,1,439.28,230.43Z"/><path class="cls-1" d="M220.51,475.36A15.07,15.07,0,0,1,206,464.31l-19.5-71.38a15,15,0,0,1,10.52-18.43l41.48-11.33A15,15,0,0,1,257,373.69l19.5,71.38a15,15,0,0,1-10.52,18.43l-41.48,11.33A15.21,15.21,0,0,1,220.51,475.36Zm22-102.72a4.87,4.87,0,0,0-1.31.18l-41.48,11.33a5,5,0,0,0-3.5,6.14l19.5,71.39a5,5,0,0,0,6.14,3.5l41.48-11.33h0a5,5,0,0,0,3.5-6.14l-19.5-71.39a5.06,5.06,0,0,0-4.83-3.68Z"/></g><g id="Outline"><path class="cls-1" d="M366,341.86l-.5,0-1.15-.13a5,5,0,1,1,1.31-9.92l.82.1a5,5,0,0,1-.48,10Zm19.09-4.56a5,5,0,0,1-2.7-9.21l.7-.46a5,5,0,0,1,5.65,8.25l-1,.63A4.92,4.92,0,0,1,385.13,337.3Zm-37.62-4.37a5,5,0,0,1-3.59-1.51c-.27-.28-.53-.56-.79-.85a5,5,0,1,1,7.38-6.74c.19.21.38.41.58.61a5,5,0,0,1-3.58,8.49ZM397.64,321a5.19,5.19,0,0,1-1.49-.23,5,5,0,0,1-3.29-6.26l.24-.81a5,5,0,0,1,9.64,2.67l-.33,1.11A5,5,0,0,1,397.64,321Zm-58.57-6.81a5,5,0,0,1-5-4.65c0-.38,0-.77-.06-1.16a5,5,0,1,1,10-.38c0,.28,0,.56,0,.84a5,5,0,0,1-4.63,5.34Zm57.62-13.75a5,5,0,0,1-4.62-3.07l-.33-.76a5,5,0,1,1,9.09-4.17c.16.36.32.71.47,1.07a5,5,0,0,1-4.61,6.93Z"/><path class="cls-1" d="M213.12,209.72a5,5,0,0,1-.68-9.95l.83-.13a5,5,0,1,1,1.69,9.85c-.38.07-.76.13-1.15.18A5.34,5.34,0,0,1,213.12,209.72Zm-19.25-3.81a5,5,0,0,1-2.52-.68l-1-.61a5,5,0,1,1,5.33-8.46l.72.44a5,5,0,0,1-2.53,9.31Zm37.42-5.84a5,5,0,0,1-3.71-8.34l.55-.63a5,5,0,0,1,7.64,6.44c-.25.3-.5.59-.76.88A5,5,0,0,1,231.29,200.07Zm-50.55-10a5,5,0,0,1-4.72-3.33c-.13-.36-.25-.73-.37-1.1a5,5,0,0,1,9.53-3c.08.27.17.53.27.8a5,5,0,0,1-3,6.38A4.9,4.9,0,0,1,180.74,190.08ZM239,181h-.17a5,5,0,0,1-4.83-5.16c0-.28,0-.56,0-.84a5,5,0,0,1,10,0c0,.39,0,.78,0,1.16A5,5,0,0,1,239,181Zm-58.11-11.49a4.91,4.91,0,0,1-1.75-.32,5,5,0,0,1-2.93-6.43c.14-.37.28-.74.43-1.1a5,5,0,0,1,9.24,3.83l-.3.77A5,5,0,0,1,180.88,169.51Zm52-7.71a5,5,0,0,1-4-2l-.52-.65a5,5,0,0,1,7.74-6.33c.25.3.49.61.72.91a5,5,0,0,1-4,8Zm-38.59-7.93a5,5,0,0,1-2.47-9.35l1-.56a5,5,0,0,1,4.64,8.86l-.73.4A5,5,0,0,1,194.26,153.87Zm21.27-3.16a5,5,0,0,1-1.08-.12l-.83-.16a5,5,0,0,1,1.85-9.83l1.13.23a5,5,0,0,1-1.07,9.88Z"/><path class="cls-2" d="M212.64,405.54a5,5,0,0,1-1.3-9.83l26-7a5,5,0,0,1,2.6,9.66l-26,7A4.89,4.89,0,0,1,212.64,405.54Z"/><path class="cls-2" d="M218.61,427.76a5,5,0,0,1-1.3-9.83l26-7a5,5,0,0,1,2.6,9.66l-26,7A4.91,4.91,0,0,1,218.61,427.76Z"/><path class="cls-2" d="M224.21,449.61a5,5,0,0,1-1.3-9.83l26-7a5,5,0,1,1,2.59,9.65l-26,7A5.34,5.34,0,0,1,224.21,449.61Z"/><path class="cls-1" d="M59.16,281.31a5,5,0,0,1-2.92-9.06c31.43-22.64,66-29,67.5-29.27a5,5,0,1,1,1.76,9.84h0c-.34.06-33.89,6.28-63.42,27.54A5,5,0,0,1,59.16,281.31Z"/><path class="cls-1" d="M316.18,193.93a5,5,0,0,1-2.2-9.49c1.66-.81,41.24-19.65,89.63-3.17a5,5,0,1,1-3.22,9.46c-44.36-15.1-81.66,2.52-82,2.7A5,5,0,0,1,316.18,193.93Z"/><path class="cls-1" d="M352.65,184.58a5,5,0,0,1-5-4.72,29.14,29.14,0,0,1,12.4-23.9,5,5,0,0,1,5.88,8.08,19.44,19.44,0,0,0-8.3,15.26,5,5,0,0,1-4.71,5.27Z"/></g></svg>