<?xml version="1.0" ?><svg id="Lines" viewBox="0 0 512 512" xmlns="http://www.w3.org/2000/svg"><defs><style>.cls-1{fill:#3f456b;}</style></defs><title/><path class="cls-1" d="M81,469h-.38l-65-5A5,5,0,0,1,11,458.63l23-307c3.78-39.92,22.86-64.83,38.2-78.72,16.65-15.07,32.36-20.66,33-20.89l74.9-25.75a5,5,0,0,1,6.63,4.83,50,50,0,0,0,14.07,32.62C212.9,76,231.68,82.16,256.64,82.16s43.74-6.2,55.81-18.44a50,50,0,0,0,14.07-32.63,5,5,0,0,1,10-.19,59.31,59.31,0,0,1-16.8,39.69c-14,14.31-35.24,21.57-63.08,21.57s-49.06-7.26-63.08-21.57a59.81,59.81,0,0,1-16.23-32.78L108.51,61.47c-.12,0-14.73,5.3-29.91,19.15C58.39,99.05,46.74,123.23,44,152.47L21.36,454.4l55.19,4.24L101.91,223a5,5,0,1,1,9.94,1.08L86,464.54A5,5,0,0,1,81,469Z"/><path class="cls-1" d="M432.52,469a5,5,0,0,1-5-4.46L401.67,224a5,5,0,0,1,9.94-1.08L437,458.64l55.19-4.24-22.62-302c-2.76-29.14-14.41-53.32-34.62-71.75C419.74,66.77,405.13,61.51,405,61.46L330.14,35.73a5,5,0,1,1,3.25-9.46L408.27,52c.68.24,16.39,5.83,33,20.9,15.34,13.89,34.42,38.8,38.19,78.62l23,307.1A5,5,0,0,1,497.9,464l-65,5Z"/><path class="cls-1" d="M260.84,44.38c-43.71,0-77-8-79.11-8.53a5,5,0,0,1,2.39-9.71c.75.19,75.76,18.19,147.34,0a5,5,0,1,1,2.46,9.7C308.71,42.25,283.39,44.38,260.84,44.38Z"/><path class="cls-1" d="M406.4,485.28H106.88a5,5,0,0,1-5-5V162a5,5,0,1,1,10,0V475.28H401.4V162a5,5,0,1,1,10,0V480.28A5,5,0,0,1,406.4,485.28Z"/><path class="cls-1" d="M257,152a5,5,0,0,1-5-5V88a5,5,0,0,1,10,0v59A5,5,0,0,1,257,152Z"/></svg>