<?xml version="1.0" ?><svg viewBox="0 0 512 512" xmlns="http://www.w3.org/2000/svg"><defs><style>.cls-1{fill:#3f456b;}</style></defs><title/><g id="Lines"><path class="cls-1" d="M79.74,478.15a5.31,5.31,0,0,1-.68,0l-63.43-8.6a5,5,0,0,1-4.3-5.53L51.1,118.9C52.57,102.09,61.58,87,77.18,75.21a91.55,91.55,0,0,1,23.09-12.72l.14-.05,72.18-22.29a5,5,0,1,1,2.95,9.55L103.45,72c-1.63.58-39.53,14.56-42.39,47.86,0,0,0,.1,0,.15L21.83,460.25l53.77,7.29,37.91-227.46a5,5,0,1,1,9.86,1.64L84.67,474A5,5,0,0,1,79.74,478.15Z"/><path class="cls-1" d="M211.34,139.38h-.24a5,5,0,0,1-3.62-1.82c-1.45-1.76-35.55-43.75-38.41-92.34a5,5,0,0,1,2.22-4.45l39.14-26.09a3.25,3.25,0,0,1,.57-.33c5.67-4.38,13.83-4.3,15.35-4.24h59.43c1.53-.06,9.68-.14,15.36,4.24a4.18,4.18,0,0,1,.57.33l39.13,26.09a5,5,0,0,1,2.22,4.45c-2.86,48.59-36.95,90.58-38.4,92.34a5,5,0,0,1-7.4.36L256.07,96.73l-41.2,41.19A5,5,0,0,1,211.34,139.38Zm53-48.52,35.93,35.93c8.32-11.47,29.51-43.79,32.59-79.32L306.06,29.59c-.12.57-.27,1.15-.44,1.75C304.91,34.05,294.44,72.55,264.35,90.86ZM179.26,47.47c3.09,35.52,24.27,67.85,32.6,79.32l35.93-35.93c-30.1-18.31-40.57-56.81-41.27-59.52-.18-.6-.32-1.18-.44-1.74Zm46.25-27.38c-2.53,0-7.4.66-9.14,2.9-.91,1.16-1,3.05-.23,5.62,0,.05,0,.11,0,.17.11.4,10.55,39.83,39.89,55.29,29.42-15.5,39.78-54.88,39.88-55.29,0-.06,0-.12.05-.17.75-2.57.68-4.46-.23-5.62-1.87-2.4-7.32-3-9.66-2.89h-60.6Z"/><path class="cls-1" d="M393.69,501.8H118.44a5,5,0,0,1-5-5V152.74a5,5,0,0,1,10,0V491.8H388.69V152.74a5,5,0,0,1,10,0V496.8A5,5,0,0,1,393.69,501.8Z"/><path class="cls-1" d="M432.11,478.15a5,5,0,0,1-4.93-4.21L389.55,241.7a5,5,0,0,1,9.87-1.6l36.85,227.44L490,460.25,450.8,120c0-.07,0-.13,0-.2C448.14,85,408.85,72.11,408.46,72L336.31,49.7a5,5,0,1,1,2.95-9.55l72.18,22.29a87.56,87.56,0,0,1,23.3,12.34c15.67,11.61,24.66,26.87,26,44.15l39.77,345a5,5,0,0,1-4.3,5.53l-63.44,8.6A5,5,0,0,1,432.11,478.15Z"/><path class="cls-1" d="M238.86,501.8a5,5,0,0,1-5-5V107.58a5,5,0,1,1,10,0V496.8A5,5,0,0,1,238.86,501.8Z"/><path class="cls-1" d="M266.82,173.86a5,5,0,0,1-5-5v-1.07a5,5,0,0,1,10,0v1.07A5,5,0,0,1,266.82,173.86Z"/><path class="cls-1" d="M266.82,242.94a5,5,0,0,1-5-5v-1.07a5,5,0,0,1,10,0v1.07A5,5,0,0,1,266.82,242.94Z"/><path class="cls-1" d="M266.82,312a5,5,0,0,1-5-5V306a5,5,0,0,1,10,0V307A5,5,0,0,1,266.82,312Z"/><path class="cls-1" d="M266.82,381.11a5,5,0,0,1-5-5V375a5,5,0,0,1,10,0v1.08A5,5,0,0,1,266.82,381.11Z"/><path class="cls-1" d="M266.82,450.19a5,5,0,0,1-5-5v-1.08a5,5,0,0,1,10,0v1.08A5,5,0,0,1,266.82,450.19Z"/><path class="cls-1" d="M371.11,278.16H302.3a5,5,0,0,1-5-5v-86a5,5,0,0,1,5-5h68.81a5,5,0,0,1,5,5v86A5,5,0,0,1,371.11,278.16Zm-63.81-10h58.81v-76H307.3Z"/><path class="cls-1" d="M293.7,52.92H218.11a5,5,0,0,1,0-10H293.7a5,5,0,0,1,0,10Z"/></g><g id="Outline"><path class="cls-1" d="M371.11,219H302.3a5,5,0,0,1,0-10h68.81a5,5,0,0,1,0,10Z"/><path class="cls-1" d="M86.19,433a3.9,3.9,0,0,1-.59,0l-63.44-7.52a5,5,0,1,1,1.18-9.94L86.77,423a5,5,0,0,1-.58,10Z"/><path class="cls-1" d="M425.66,433a5,5,0,0,1-.59-10l63.44-7.53a5,5,0,0,1,1.18,9.94L426.25,433A4,4,0,0,1,425.66,433Z"/></g></svg>