<?xml version="1.0" ?><svg id="Lines" viewBox="0 0 512 512" xmlns="http://www.w3.org/2000/svg"><defs><style>.cls-1{fill:#3f456b;}</style></defs><title/><path class="cls-1" d="M129.84,501a25.48,25.48,0,0,1-6-.77C102.45,495.12,86.58,479,81.44,457c-4.89-20.89-15.63-32.58-22.75-40.32l-1.93-2.12c-12.39-13.73-12.7-28.4-.92-42.42,11.52-13.71,20.66-29.11,15.8-79-4.72-48.5.89-84.12,17.64-112.1C103,158.1,94.09,140.74,94,140.57a5.11,5.11,0,0,1-.22-.48C82,110.91,44.6,55.21,44.22,54.65a5,5,0,0,1-.16-5.32C44.91,47.89,65.53,14,128.85,11a5,5,0,0,1,4.47,2.32l6.45,10.25c.1.15.18.3.26.45,10,20.16,27.43,65.09,34.3,97,7.07,32.85-10.38,67.3-12.43,71.18-12.52,33.16-20.06,69.09-26.71,100.8-4.34,20.66-7.57,37.72-10.18,53.69-4.21,25.83-4.53,52.93-4.84,79.14l0,3.08c-.15,12.61.12,20.94,5.19,30.37,3.19,5.94,7.65,11.13,12.36,16.63,4.42,5.15,6.91,13.47,3.22,19.52C139.51,497.75,136.38,501,129.84,501ZM103,136.15c1.36,2.75,10.68,23.64-5.11,50-15.6,26.05-20.77,59.73-16.26,106,4.73,48.62-3.06,68.5-18.1,86.4-8.47,10.08-8.25,19.39.69,29.3l1.87,2c7.82,8.51,19.63,21.37,25.11,44.81a47.06,47.06,0,0,0,35,35.8c3.6.86,5.71.48,6.15-.24.74-1.21.13-5-2.23-7.75-4.89-5.71-9.91-11.56-13.62-18.45-6.66-12.39-6.51-24-6.38-35.23l0-3.08c.31-26.58.64-54.06,5-80.63C117.77,329,121,311.81,125.4,291c6.75-32.16,14.4-68.61,27.26-102.58a4.78,4.78,0,0,1,.28-.61c.18-.33,18.17-34.16,11.62-64.63-6-28-22.4-72.19-33.38-94.48l-4.75-7.53c-45.8,3-66.21,23.64-72,30.81C62.43,64,92.18,109.55,103,136.15Z"/><path class="cls-1" d="M275.84,501a25.48,25.48,0,0,1-5.95-.77C248.45,495.12,232.58,479,227.44,457c-4.89-20.89-15.63-32.58-22.75-40.32l-1.93-2.12c-12.39-13.73-12.7-28.4-.92-42.42,11.52-13.71,20.66-29.11,15.8-79-4.72-48.5.89-84.12,17.64-112.1,13.73-22.93,4.81-40.29,4.72-40.46a5.11,5.11,0,0,1-.22-.48C228,110.91,190.6,55.21,190.22,54.65a5,5,0,0,1-.16-5.32c.85-1.44,21.47-35.3,84.79-38.32a5,5,0,0,1,4.47,2.32l6.45,10.25c.1.15.18.3.26.45,10,20.16,27.43,65.09,34.3,97,7.07,32.85-10.38,67.3-12.43,71.18-12.52,33.16-20.06,69.09-26.71,100.8-4.34,20.66-7.57,37.72-10.18,53.69-4.21,25.83-4.53,52.93-4.84,79.14l0,3.08c-.15,12.61.12,20.94,5.19,30.37,3.19,5.94,7.65,11.13,12.36,16.63,4.42,5.15,6.91,13.47,3.22,19.52C285.51,497.75,282.38,501,275.84,501ZM249,136.15c1.36,2.75,10.68,23.64-5.11,50-15.6,26.05-20.77,59.73-16.26,106,4.73,48.62-3.06,68.5-18.1,86.4-8.47,10.08-8.25,19.39.69,29.3l1.87,2c7.82,8.51,19.63,21.37,25.11,44.81a47.06,47.06,0,0,0,35,35.8c3.6.86,5.71.48,6.15-.24.74-1.21.13-5-2.23-7.75-4.89-5.71-9.91-11.56-13.62-18.45-6.66-12.39-6.51-24-6.38-35.23l0-3.08c.31-26.58.64-54.06,5-80.63C263.77,329,267,311.81,271.4,291c6.75-32.16,14.4-68.61,27.26-102.58a4.78,4.78,0,0,1,.28-.61c.18-.33,18.17-34.16,11.62-64.63-6-28-22.4-72.19-33.38-94.48l-4.75-7.53c-45.8,3-66.21,23.64-72,30.81C208.43,64,238.18,109.55,249,136.15Z"/><path class="cls-1" d="M422.84,501a25.48,25.48,0,0,1-5.95-.77C395.45,495.12,379.58,479,374.44,457c-4.89-20.89-15.63-32.58-22.75-40.32l-1.93-2.12c-12.39-13.73-12.7-28.4-.92-42.42,11.52-13.71,20.66-29.11,15.8-79-4.72-48.5.89-84.12,17.64-112.1,13.73-22.93,4.81-40.29,4.72-40.46a5.11,5.11,0,0,1-.22-.48C375,110.91,337.6,55.21,337.22,54.65a5,5,0,0,1-.16-5.32c.85-1.44,21.47-35.3,84.79-38.32a5,5,0,0,1,4.47,2.32l6.45,10.25c.1.15.18.3.26.45,10,20.16,27.43,65.09,34.3,97,7.07,32.85-10.38,67.3-12.43,71.18-12.52,33.16-20.06,69.09-26.71,100.8-4.34,20.66-7.57,37.72-10.18,53.69-4.21,25.83-4.53,52.93-4.84,79.14l0,3.08c-.15,12.61.12,20.94,5.19,30.37,3.19,5.94,7.65,11.13,12.36,16.63,4.42,5.15,6.91,13.47,3.22,19.52C432.51,497.75,429.38,501,422.84,501ZM396,136.15c1.36,2.75,10.68,23.64-5.11,50-15.6,26.05-20.77,59.73-16.26,106,4.73,48.62-3.06,68.5-18.1,86.4-8.47,10.08-8.25,19.39.69,29.3.59.65,1.21,1.33,1.87,2,7.82,8.51,19.63,21.37,25.11,44.81a47.06,47.06,0,0,0,35,35.8c3.6.86,5.71.48,6.15-.24.74-1.21.13-5-2.23-7.75-4.89-5.71-9.91-11.56-13.62-18.45-6.66-12.39-6.51-24-6.38-35.23l0-3.08c.31-26.58.64-54.06,5-80.63C410.77,329,414,311.81,418.4,291c6.75-32.16,14.4-68.61,27.26-102.58a4.78,4.78,0,0,1,.28-.61c.18-.33,18.17-34.16,11.62-64.63-6-28-22.4-72.19-33.38-94.48l-4.75-7.53c-45.8,3-66.21,23.64-72,30.81C355.43,64,385.18,109.55,396,136.15Z"/></svg>