<?xml version="1.0" ?><svg viewBox="0 0 512 512" xmlns="http://www.w3.org/2000/svg"><defs><style>.cls-1{fill:#3f456b;}</style></defs><title/><g id="Lines"><path class="cls-1" d="M80.19,470.57A21.81,21.81,0,1,1,102,448.76,21.83,21.83,0,0,1,80.19,470.57Zm0-33.62A11.81,11.81,0,1,0,92,448.76,11.83,11.83,0,0,0,80.19,437Z"/><path class="cls-1" d="M438.15,94.54a27.77,27.77,0,1,1,27.77-27.77A27.8,27.8,0,0,1,438.15,94.54Zm0-45.54a17.77,17.77,0,1,0,17.77,17.77A17.79,17.79,0,0,0,438.15,49Z"/><path class="cls-1" d="M255.86,467.9A212.77,212.77,0,1,1,462.44,306C438.58,402.9,351.45,467.9,255.86,467.9Zm0-415.54C164.77,52.36,81.75,114.3,59,206.63,32.26,315.18,98.82,425.25,207.37,452S426,412.18,452.73,303.63A202.83,202.83,0,0,0,255.88,52.36Z"/><path class="cls-1" d="M415.36,127a5.81,5.81,0,0,1-.72,0C283.21,108,175.82,68.22,174.75,67.82a5,5,0,0,1,3.5-9.37c1.06.4,107.5,39.8,237.82,58.58a5,5,0,0,1-.71,10Z"/><path class="cls-1" d="M330.09,454a4,4,0,0,1-.69,0c-126.77-17.57-230-56.54-231.08-56.93a5,5,0,1,1,3.56-9.35c1,.39,103.3,39,228.89,56.38a5,5,0,0,1-.68,9.95Z"/><path class="cls-1" d="M452.28,200.68a5.81,5.81,0,0,1-.72-.05c-188.34-27.14-342.2-84.12-343.73-84.69a5,5,0,1,1,3.5-9.37c1.52.57,154.43,57.18,341.65,84.16a5,5,0,0,1-.7,10Z"/><path class="cls-1" d="M389.88,402.4c-13.78,0-26.13-4.3-35.48-12.64-6.45-5.76-11.16-12.84-15.71-19.69-2.32-3.48-4.51-6.77-6.9-9.88C321.58,346.9,311.23,338.9,299.21,335c-11.57-3.77-21.92-5.64-31.63-5.72-16.45-.16-31.71,4.81-47.85,10.05-15.56,5.05-31.65,10.27-49,10.57a132.92,132.92,0,0,1-27-2.48c-27.17-5-57.35-15.31-89.71-30.48a5,5,0,1,1,4.24-9.05c31.6,14.81,61,24.8,87.3,29.7a124,124,0,0,0,25,2.32c15.85-.28,30.54-5.05,46.08-10.1,16.19-5.25,32.94-10.65,51-10.53,10.76.09,22.09,2.12,34.65,6.21,14,4.57,25.91,13.66,37.41,28.62,2.6,3.39,5,7,7.29,10.44,4.4,6.62,8.56,12.87,14.05,17.76,11.42,10.19,28.81,12.82,47.7,7.21a5,5,0,0,1,2.84,9.58A76.44,76.44,0,0,1,389.88,402.4Z"/><path class="cls-1" d="M462,275.49a5.81,5.81,0,0,1-.72-.05C243.8,244.3,66.21,178.32,64.44,177.66A5,5,0,1,1,68,168.29c1.76.66,178.39,66.27,394.78,97.25a5,5,0,0,1-.7,9.95Z"/><path class="cls-1" d="M444.82,342.31a5.81,5.81,0,0,1-.72-.05C227.34,311.31,50.4,245.49,48.64,244.83a5,5,0,1,1,3.51-9.37c1.75.66,177.74,66.11,393.37,96.9a5,5,0,0,1-.7,9.95Z"/><path class="cls-1" d="M285.05,418.77a82.88,82.88,0,0,1-19.81-2.47c-30.74-7.57-50.81-29.79-45.69-50.57,2.54-10.32,10.87-18.38,23.47-22.71,11.84-4.07,26.21-4.37,40.48-.86s26.86,10.47,35.45,19.56c9.14,9.69,12.78,20.7,10.24,31h0C325.2,408.92,307.29,418.77,285.05,418.77Zm-21.14-69a54.33,54.33,0,0,0-17.64,2.76c-9.27,3.19-15.32,8.74-17,15.64-3.65,14.83,13.92,32.44,38.38,38.47s48.19-1.42,51.85-16.25c1.7-6.89-1.07-14.62-7.81-21.75-7.28-7.72-18.14-13.66-30.56-16.72A72.46,72.46,0,0,0,263.91,349.72Zm60.42,41.82h0Z"/></g><g id="Outline"><path class="cls-1" d="M461,147a5,5,0,0,1-5-5v-1a5,5,0,0,1,10,0v1A5,5,0,0,1,461,147Z"/><path class="cls-1" d="M407,449a5,5,0,0,1-5-5v-1a5,5,0,0,1,10,0v1A5,5,0,0,1,407,449Z"/><path class="cls-1" d="M63,79a5,5,0,0,1-5-5V73a5,5,0,0,1,10,0v1A5,5,0,0,1,63,79Z"/><path class="cls-1" d="M144.08,227.67a5,5,0,0,1-1.26-.17c-38.53-10-86.9-28-87.39-28.18A5,5,0,1,1,58.92,190c.48.17,48.39,18,86.42,27.88a5,5,0,0,1-1.26,9.84Z"/><path class="cls-1" d="M454,320.16h-.38c-48.76-3.65-104.86-16.65-105.42-16.78a5,5,0,0,1,2.27-9.74c.55.13,55.92,12.95,103.89,16.55a5,5,0,0,1-.36,10Z"/><path class="cls-1" d="M456.8,298.12c-20.93,0-53.56-7-54.94-7.29a5,5,0,1,1,2.11-9.77c.32.07,33,7.06,52.83,7.06h.3a5,5,0,0,1,0,10Z"/><path class="cls-1" d="M458.73,223.41c-20.93,0-53.56-7-55-7.28a5,5,0,0,1,2.11-9.78c.33.07,33,7.06,52.84,7.06h.3a5,5,0,0,1,0,10Z"/><path class="cls-1" d="M138.71,162.52a5,5,0,0,1-1.61-.26C107.51,152.17,83.39,143.12,83.15,143a5,5,0,0,1,3.52-9.36c.24.09,24.22,9.09,53.65,19.12a5,5,0,0,1-1.61,9.73Z"/><path class="cls-1" d="M439.31,162.62H439a459.35,459.35,0,0,1-57.3-7.15,5,5,0,0,1,1.94-9.81,457.59,457.59,0,0,0,55.89,7,5,5,0,0,1-.26,10Z"/><path class="cls-1" d="M111.56,305.17a4.84,4.84,0,0,1-1.35-.19c-24.5-6.8-62.12-20.9-62.5-21a5,5,0,1,1,3.52-9.36c.37.14,37.58,14.08,61.66,20.77a5,5,0,0,1-1.33,9.82Z"/><path class="cls-1" d="M159.31,378.21a5.69,5.69,0,0,1-.91-.08c-48.31-8.81-90.94-27.36-91.36-27.55a5,5,0,0,1,4-9.16c.42.19,42,18.28,89.15,26.87a5,5,0,0,1-.89,9.92Z"/><path class="cls-1" d="M383.39,424.14h-.26c-27.89-1.46-37.33-11.74-38.31-12.91l7.64-6.44-.06-.08c.07.08,7.76,8.21,31.25,9.44a5,5,0,0,1-.26,10Z"/><path class="cls-1" d="M234.76,109.2a5,5,0,0,1-1.38-.19C180.59,94,148.31,81.26,148,81.13a5,5,0,1,1,3.67-9.3c.32.13,32.19,12.66,84.46,27.56a5,5,0,0,1-1.36,9.81Z"/><path class="cls-1" d="M322.89,296.66a5,5,0,0,1-.94-.09c-24.18-4.6-47.25-11-47.48-11.05a5,5,0,1,1,2.68-9.64c.23.06,22.92,6.34,46.67,10.87a5,5,0,0,1-.93,9.91Z"/></g></svg>