<?xml version="1.0" ?><svg viewBox="0 0 512 512" xmlns="http://www.w3.org/2000/svg"><defs><style>.cls-1{fill:#3f456b;}</style></defs><title/><g id="Lines"><path class="cls-1" d="M411,460h-1.93a5,5,0,1,1,0-10H411a5,5,0,0,1,0,10Z"/><path class="cls-1" d="M353,460h-1.93a5,5,0,1,1,0-10H353a5,5,0,0,1,0,10Z"/><path class="cls-1" d="M296.93,460H295a5,5,0,0,1,0-10h1.93a5,5,0,1,1,0,10Z"/><path class="cls-1" d="M263.4,503h-208C30.8,503,10,482.16,10,457.49V55.84A44.13,44.13,0,0,1,23.5,24.13,45.38,45.38,0,0,1,55.43,11h208a5,5,0,0,1,0,10h-208C36.23,21,20,37,20,55.84V457.49C20,476.74,36.23,493,55.43,493h208a5,5,0,0,1,0,10Z"/><path class="cls-1" d="M73.7,105.89a28.64,28.64,0,1,1,28.63-28.64A28.67,28.67,0,0,1,73.7,105.89Zm0-47.27A18.64,18.64,0,1,0,92.33,77.25,18.65,18.65,0,0,0,73.7,58.62Z"/><path class="cls-1" d="M493,97H210a5,5,0,0,1,0-10H493a5,5,0,0,1,0,10Z"/><path class="cls-1" d="M493,426H210a5,5,0,0,1,0-10H493a5,5,0,0,1,0,10Z"/><path class="cls-1" d="M455.4,503h-208C222.8,503,202,482.16,202,457.49V55.84a44.13,44.13,0,0,1,13.5-31.71A45.4,45.4,0,0,1,247.43,11h208A44.78,44.78,0,0,1,500,55.84V457.49C500,482.58,480,503,455.4,503Zm-208-482C228.23,21,212,37,212,55.84V457.49c0,19.25,16.23,35.51,35.43,35.51h208c18.76,0,34.6-16.26,34.6-35.51V55.84A34.76,34.76,0,0,0,455.4,21Z"/><path class="cls-1" d="M73.7,178.89a28.64,28.64,0,1,1,28.63-28.64A28.67,28.67,0,0,1,73.7,178.89Zm0-47.27a18.64,18.64,0,1,0,18.63,18.63A18.65,18.65,0,0,0,73.7,131.62Z"/><path class="cls-1" d="M372,62H329a5,5,0,0,1,0-10h43a5,5,0,0,1,0,10Z"/></g><g id="Outline"><path class="cls-1" d="M404,187a5,5,0,0,1,5-5h0a5,5,0,0,1,5,5h0a5,5,0,0,1-5,5h0A5,5,0,0,1,404,187Zm-20,0a5,5,0,0,1,5-5h0a5,5,0,0,1,5,5h0a5,5,0,0,1-5,5h0A5,5,0,0,1,384,187Zm-20,0a5,5,0,0,1,5-5h0a5,5,0,0,1,5,5h0a5,5,0,0,1-5,5h0A5,5,0,0,1,364,187Zm-20,0a5,5,0,0,1,5-5h0a5,5,0,0,1,5,5h0a5,5,0,0,1-5,5h0A5,5,0,0,1,344,187Zm-20,0a5,5,0,0,1,5-5h0a5,5,0,0,1,5,5h0a5,5,0,0,1-5,5h0A5,5,0,0,1,324,187Zm-20,0a5,5,0,0,1,5-5h0a5,5,0,0,1,5,5h0a5,5,0,0,1-5,5h0A5,5,0,0,1,304,187Zm-20,0a5,5,0,0,1,5-5h0a5,5,0,0,1,5,5h0a5,5,0,0,1-5,5h0A5,5,0,0,1,284,187Z"/><path class="cls-1" d="M372,154H333a5,5,0,0,1,0-10h39a5,5,0,0,1,0,10Z"/><path class="cls-1" d="M293.29,278H292a5,5,0,0,1,0-10h1.29a5,5,0,0,1,0,10Z"/><path class="cls-1" d="M332.11,278h-1.29a5,5,0,1,1,0-10h1.29a5,5,0,0,1,0,10Z"/><path class="cls-1" d="M369.63,278h-1.29a5,5,0,1,1,0-10h1.29a5,5,0,0,1,0,10Z"/><path class="cls-1" d="M409,278h-1.29a5,5,0,0,1,0-10H409a5,5,0,0,1,0,10Z"/><path class="cls-1" d="M293.29,239H292a5,5,0,0,1,0-10h1.29a5,5,0,0,1,0,10Z"/><path class="cls-1" d="M332.11,239h-1.29a5,5,0,1,1,0-10h1.29a5,5,0,0,1,0,10Z"/><path class="cls-1" d="M369.63,239h-1.29a5,5,0,1,1,0-10h1.29a5,5,0,0,1,0,10Z"/><path class="cls-1" d="M409,239h-1.29a5,5,0,0,1,0-10H409a5,5,0,0,1,0,10Z"/><path class="cls-1" d="M293.29,356H292a5,5,0,0,1,0-10h1.29a5,5,0,0,1,0,10Z"/><path class="cls-1" d="M332.11,356h-1.29a5,5,0,1,1,0-10h1.29a5,5,0,0,1,0,10Z"/><path class="cls-1" d="M369.63,356h-1.29a5,5,0,1,1,0-10h1.29a5,5,0,0,1,0,10Z"/><path class="cls-1" d="M409,356h-1.29a5,5,0,0,1,0-10H409a5,5,0,0,1,0,10Z"/><path class="cls-1" d="M293.29,317H292a5,5,0,0,1,0-10h1.29a5,5,0,0,1,0,10Z"/><path class="cls-1" d="M332.11,317h-1.29a5,5,0,1,1,0-10h1.29a5,5,0,0,1,0,10Z"/><path class="cls-1" d="M369.63,317h-1.29a5,5,0,1,1,0-10h1.29a5,5,0,0,1,0,10Z"/><path class="cls-1" d="M409,317h-1.29a5,5,0,0,1,0-10H409a5,5,0,0,1,0,10Z"/></g></svg>