<?xml version="1.0" ?><svg viewBox="0 0 512 512" xmlns="http://www.w3.org/2000/svg"><defs><style>.cls-1{fill:#3f456b;}</style></defs><title/><g id="Lines"><path class="cls-1" d="M327,87a5,5,0,0,1-5-5V81a5,5,0,0,1,10,0v1A5,5,0,0,1,327,87Z"/><path class="cls-1" d="M353,87a5,5,0,0,1-5-5V81a5,5,0,0,1,10,0v1A5,5,0,0,1,353,87Z"/><path class="cls-1" d="M379,87a5,5,0,0,1-5-5V81a5,5,0,0,1,10,0v1A5,5,0,0,1,379,87Z"/><path class="cls-1" d="M494.32,501H16.46a5,5,0,0,1-5-5c0-42.54,15.18-52.26,28.57-60.84a68.9,68.9,0,0,0,9.64-7c13.84-12.71,16.6-32.25,16.62-32.44s0-.2,0-.3c.25-1.3,25.19-129.9,30.35-166.46a58.89,58.89,0,0,1,6-21.53c5.25-10.25,16-22.47,37.59-22.47,42.79,0,44.9,40.76,45,44.26l1.89,28.41A332.3,332.3,0,0,0,207,349.42c6.83,18.69,21.6,41.29,35.92,55,45.67,43.62,112.32,41.05,171.13,38.79,18-.7,35.09-1.35,50.71-.67,14.42.64,24.87,5.53,31.06,14.54,11.16,16.26,3.55,39.56,3.21,40.55A5,5,0,0,1,494.32,501ZM21.53,491h469c1.4-6.15,3.33-19.27-2.9-28.32-4.32-6.27-12.14-9.7-23.24-10.18-15.21-.68-32.06,0-49.89.66-60.79,2.34-129.69,5-178.41-41.54-15.31-14.63-31.11-38.79-38.42-58.76a342.77,342.77,0,0,1-20.38-94.52l-1.91-28.51c0-.11,0-.22,0-.33,0-1.4-.59-34.5-35-34.5-31.69,0-33.6,33.31-33.67,34.73,0,.16,0,.31,0,.46-5.05,36-29.49,162.18-30.43,167-.33,2.3-3.75,23.63-19.75,38.33a76.76,76.76,0,0,1-11,8C33.67,451.11,22.54,458.23,21.53,491Zm80.14-261.5h0Z"/><path class="cls-1" d="M351.76,453a170.62,170.62,0,0,1-48.83-7.15c-42.31-13.5-72.87-46.87-88.32-96.49A238.81,238.81,0,0,1,204,278.41V232a5,5,0,0,1,5-5H495a5,5,0,0,1,5,5v46.41a233,233,0,0,1-4.9,48.32c-5.08,25.06-16.57,60.53-42.43,87.19C427.52,439.85,393.57,453,351.76,453ZM214,237v41.64a232.42,232.42,0,0,0,10.24,68c14.67,46.88,42.18,77.06,81.78,89.69A163.62,163.62,0,0,0,351.76,443c39,0,70.5-12.11,93.69-36C491.84,359.22,490,279.43,490,278.63V237Z"/><path class="cls-1" d="M99.08,251a5,5,0,0,1-5-4.72c-2.12-38.08-47-54-63.92-60l-2.37-.85c-14.14-5.12-17.17-18.88-16.8-25.6V88.5A77.85,77.85,0,0,1,88.5,11h273a76.32,76.32,0,0,1,67.33,40.12l.1.19c1,2,4.76,7.69,9.07,7.69h50.27A13.66,13.66,0,0,1,502,72.55v41.9A13.66,13.66,0,0,1,488.27,128H441.4c-1.16.25-3.4,1.33-3.4,6v25.94c0,1.37,0,10.22-6.07,16.44-3.57,3.68-8.56,5.62-14.43,5.62H273.36a18.48,18.48,0,0,1-13.87-3.91c-4.64-3.89-7-10.06-7-18.34,0-.11,0-.21,0-.32s.18-4.65-2.65-7.62c-1.78-1.86-4.6-2.81-8.36-2.81H217l-.43,0c-.14,0-16.13-1.19-25.84,7.76-5.09,4.69-7.67,11.57-7.67,20.43,0,35.2,1.71,45.44,1.72,45.54a5,5,0,0,1-9.84,1.77c-.07-.43-1.88-10.76-1.88-47.31,0-11.8,3.69-21.17,10.95-27.84,12.38-11.35,30.75-10.5,33.18-10.33H241.5c6.67,0,11.95,2,15.7,6,5.39,5.74,5.37,13.31,5.3,14.85,0,3.52.61,8.15,3.35,10.5a8.75,8.75,0,0,0,6.33,1.7A4.54,4.54,0,0,1,273,172H417.5c3.17,0,5.54-.84,7.23-2.55,3.34-3.4,3.27-9.27,3.27-9.33V134c0-11.71,8.2-15.57,12.53-16l.47,0h47.27a3.64,3.64,0,0,0,3.73-3.55V72.55A3.64,3.64,0,0,0,488.27,69H438c-11,0-17.29-11.77-18-13.21A66.35,66.35,0,0,0,361.5,21H88.5A67.84,67.84,0,0,0,21,88.5V160c0,.11,0,.21,0,.32,0,.45-.48,11.86,10.21,15.73l2.31.82c16.84,6,68.08,24.14,70.56,68.87A5,5,0,0,1,99.36,251Z"/><path class="cls-1" d="M471,128a5,5,0,0,1-5-5V64a5,5,0,0,1,10,0v59A5,5,0,0,1,471,128Z"/><path class="cls-1" d="M411,205H282a15,15,0,0,1-15-15V178a5,5,0,0,1,10,0v12a5,5,0,0,0,5,5H411a5,5,0,0,0,5-5V178a5,5,0,0,1,10,0v12A15,15,0,0,1,411,205Z"/><path class="cls-1" d="M346,237a5,5,0,0,1-5-5V200a5,5,0,0,1,10,0v32A5,5,0,0,1,346,237Z"/><path class="cls-1" d="M125.9,107.09a25.81,25.81,0,1,1,25.81-25.8A25.83,25.83,0,0,1,125.9,107.09Zm0-41.61a15.81,15.81,0,1,0,15.81,15.81A15.82,15.82,0,0,0,125.9,65.48Z"/><path class="cls-1" d="M303,86H147a5,5,0,0,1,0-10H303a5,5,0,0,1,0,10Z"/></g><g id="Outline"><path class="cls-1" d="M346,387a5,5,0,0,1-5-5V221a5,5,0,0,1,10,0V382A5,5,0,0,1,346,387Z"/><path class="cls-1" d="M346,388c-38.32,0-69.5-28.9-69.5-64.42,0-16.7,7.16-33.89,20.7-49.72A129.54,129.54,0,0,1,344,239.79a5,5,0,0,1,4.26.16c32.49,16.84,67.2,47.65,67.2,83.63C415.5,359.1,384.32,388,346,388Zm-.2-138.06c-29.82,13.48-59.3,42.63-59.3,73.64,0,30,26.69,54.42,59.5,54.42s59.5-24.42,59.5-54.42c0-13.8-6.5-28.41-18.81-42.27C376.33,269.64,361.87,258.56,345.8,249.94Z"/><path class="cls-1" d="M346,388c-22.29,0-39.74-28.3-39.74-64.42,0-37.17,19-69.14,36.64-83.11a5,5,0,0,1,6.57.32c17.53,16.87,36.27,47.48,36.27,82.79C385.74,359.7,368.29,388,346,388Zm-.27-136.78c-15.15,14.16-29.47,42.25-29.47,72.36,0,29.5,13.62,54.42,29.74,54.42s29.74-24.92,29.74-54.42C375.74,293.54,360.78,267.16,345.73,251.22Z"/><path class="cls-1" d="M436,123a5,5,0,0,1,5-5h0a5,5,0,0,1,5,5h0a5,5,0,0,1-5,5h0A5,5,0,0,1,436,123Zm-20,0a5,5,0,0,1,5-5h0a5,5,0,0,1,5,5h0a5,5,0,0,1-5,5h0A5,5,0,0,1,416,123Zm-20,0a5,5,0,0,1,5-5h0a5,5,0,0,1,5,5h0a5,5,0,0,1-5,5h0A5,5,0,0,1,396,123Zm-20,0a5,5,0,0,1,5-5h0a5,5,0,0,1,5,5h0a5,5,0,0,1-5,5h0A5,5,0,0,1,376,123Zm-20,0a5,5,0,0,1,5-5h0a5,5,0,0,1,5,5h0a5,5,0,0,1-5,5h0A5,5,0,0,1,356,123Zm-20,0a5,5,0,0,1,5-5h0a5,5,0,0,1,5,5h0a5,5,0,0,1-5,5h0A5,5,0,0,1,336,123Zm-20,0a5,5,0,0,1,5-5h0a5,5,0,0,1,5,5h0a5,5,0,0,1-5,5h0A5,5,0,0,1,316,123Zm-20,0a5,5,0,0,1,5-5h0a5,5,0,0,1,5,5h0a5,5,0,0,1-5,5h0A5,5,0,0,1,296,123Zm-20,0a5,5,0,0,1,5-5h0a5,5,0,0,1,5,5h0a5,5,0,0,1-5,5h0A5,5,0,0,1,276,123Zm-20,0a5,5,0,0,1,5-5h0a5,5,0,0,1,5,5h0a5,5,0,0,1-5,5h0A5,5,0,0,1,256,123Zm-20,0a5,5,0,0,1,5-5h0a5,5,0,0,1,5,5h0a5,5,0,0,1-5,5h0A5,5,0,0,1,236,123Zm-20,0a5,5,0,0,1,5-5h0a5,5,0,0,1,5,5h0a5,5,0,0,1-5,5h0A5,5,0,0,1,216,123Zm-20,0a5,5,0,0,1,5-5h0a5,5,0,0,1,5,5h0a5,5,0,0,1-5,5h0A5,5,0,0,1,196,123Zm-20,0a5,5,0,0,1,5-5h0a5,5,0,0,1,5,5h0a5,5,0,0,1-5,5h0A5,5,0,0,1,176,123Zm-20,0a5,5,0,0,1,5-5h0a5,5,0,0,1,5,5h0a5,5,0,0,1-5,5h0A5,5,0,0,1,156,123Zm-20,0a5,5,0,0,1,5-5h0a5,5,0,0,1,5,5h0a5,5,0,0,1-5,5h0A5,5,0,0,1,136,123Zm-20,0a5,5,0,0,1,5-5h0a5,5,0,0,1,5,5h0a5,5,0,0,1-5,5h0A5,5,0,0,1,116,123Zm-20,0a5,5,0,0,1,5-5h0a5,5,0,0,1,5,5h0a5,5,0,0,1-5,5h0A5,5,0,0,1,96,123Zm-20,0a5,5,0,0,1,5-5h0a5,5,0,0,1,5,5h0a5,5,0,0,1-5,5h0A5,5,0,0,1,76,123Zm-20,0a5,5,0,0,1,5-5h0a5,5,0,0,1,5,5h0a5,5,0,0,1-5,5h0A5,5,0,0,1,56,123Zm-20,0a5,5,0,0,1,5-5h0a5,5,0,0,1,5,5h0a5,5,0,0,1-5,5h0A5,5,0,0,1,36,123Zm-20,0a5,5,0,0,1,5-5h0a5,5,0,0,1,5,5h0a5,5,0,0,1-5,5h0A5,5,0,0,1,16,123Z"/></g></svg>