<?xml version="1.0" ?><svg viewBox="0 0 512 512" xmlns="http://www.w3.org/2000/svg"><defs><style>.cls-1{fill:#3f456b;}</style></defs><title/><g id="Lines"><path class="cls-1" d="M368,372H179a5,5,0,0,1,0-10H363V338H16a5,5,0,0,1-5-5V15a5,5,0,0,1,5-5H496a5,5,0,0,1,5,5V333a5,5,0,0,1-5,5H373v29A5,5,0,0,1,368,372ZM178.88,328H491V20H21V328Z"/><path class="cls-1" d="M412,372H102a5,5,0,0,1,0-10H412a5,5,0,0,1,0,10Z"/><path class="cls-1" d="M144,372a5,5,0,0,1-5-5V333a5,5,0,0,1,10,0v34A5,5,0,0,1,144,372Z"/><path class="cls-1" d="M301.09,467H238a5,5,0,0,1,0-10h63c.17,0,12.44,0,20.25-7.73,4.48-4.44,6.75-10.75,6.75-18.77V367a5,5,0,0,1,10,0v63.5c0,10.83-3.29,19.56-9.79,25.95C317.83,466.67,302.93,467,301.09,467Z"/><path class="cls-1" d="M217,498H33c-13.79,0-25-9.59-25-21.38V404.55c0-11.79,11.21-21.38,25-21.38H217c13.79,0,25,9.59,25,21.38v72.07C242,488.41,230.79,498,217,498ZM33,393.17c-8.27,0-15,5.11-15,11.38v72.07C18,482.9,24.73,488,33,488H217c8.27,0,15-5.1,15-11.38V404.55c0-6.27-6.73-11.38-15-11.38Z"/><path class="cls-1" d="M217,450H33c-14,0-25-8.42-25-19.18a5,5,0,0,1,10,0c0,4.89,7,9.18,15,9.18H217c8,0,15-4.29,15-9.18a5,5,0,1,1,10,0C242,441.58,231,450,217,450Z"/><path class="cls-1" d="M465.5,500A28.5,28.5,0,1,1,494,471.5,28.54,28.54,0,0,1,465.5,500Zm0-47A18.5,18.5,0,1,0,484,471.5,18.52,18.52,0,0,0,465.5,453Z"/></g><g id="Outline"><path class="cls-1" d="M257,355h-1a5,5,0,0,1,0-10h1a5,5,0,0,1,0,10Z"/><path class="cls-1" d="M309.19,187.5h-1a5,5,0,0,1,0-10h1a5,5,0,0,1,0,10Zm-21,0h-1a5,5,0,0,1,0-10h1a5,5,0,0,1,0,10Zm-21,0h-1a5,5,0,0,1,0-10h1a5,5,0,0,1,0,10Zm-21,0h-1a5,5,0,0,1,0-10h1a5,5,0,0,1,0,10Zm-21,0h-1a5,5,0,0,1,0-10h1a5,5,0,0,1,0,10Zm-21,0h-1a5,5,0,0,1,0-10h1a5,5,0,0,1,0,10Z"/><path class="cls-1" d="M98,472H97a5,5,0,0,1,0-10h1a5,5,0,0,1,0,10Z"/><path class="cls-1" d="M128,472h-1a5,5,0,0,1,0-10h1a5,5,0,0,1,0,10Z"/><path class="cls-1" d="M157,472h-1a5,5,0,0,1,0-10h1a5,5,0,0,1,0,10Z"/><path class="cls-1" d="M465,417a5,5,0,0,1-5-5v-1a5,5,0,0,1,10,0v1A5,5,0,0,1,465,417Zm0-21a5,5,0,0,1-5-5v-1a5,5,0,0,1,10,0v1A5,5,0,0,1,465,396Zm0-21a5,5,0,0,1-5-5v-1a5,5,0,0,1,10,0v1A5,5,0,0,1,465,375Zm0-21a5,5,0,0,1-5-5v-1a5,5,0,0,1,10,0v1A5,5,0,0,1,465,354Z"/></g></svg>