<?xml version="1.0" ?><svg viewBox="0 0 512 512" xmlns="http://www.w3.org/2000/svg"><defs><style>.cls-1{fill:#3f456b;}</style></defs><title/><g id="Lines"><g data-name="&lt;编组&gt;" id="_编组_"><path class="cls-1" d="M402.06,500.19a5,5,0,0,1-4.47-2.77l-28.68-57.5a5,5,0,0,1,1.87-6.49c1.49-.94,8.83-6.16,4.45-14.86-1.33-2.65-3-4.28-5.12-5-4-1.32-8.55.94-8.6,1a5,5,0,0,1-6.76-2.19l-14.84-29.48a5,5,0,0,1,2.15-6.68c1.53-.82,9.09-5.47,4.84-13.91-4.47-8.86-13.37-5.17-14.37-4.71a5,5,0,0,1-6.52-2.31l-13.52-26.84a113.74,113.74,0,0,1-65-10.81,112.75,112.75,0,1,1,161.16-81.15,113.87,113.87,0,0,1-30,58.68l85.1,169a5,5,0,0,1-.46,5.23l-21.38,28.69a5,5,0,0,1-4,2l-35.78.1ZM379.68,439.1l25.47,51.08,30.17-.08,18.05-24.21L369,298.26l-.37-.4a5,5,0,0,1,.18-7,103.59,103.59,0,0,0,30-56.12,101.84,101.84,0,0,0-9.38-64.27h0A102.75,102.75,0,1,0,251.91,308.67a103.49,103.49,0,0,0,63,9.3,5,5,0,0,1,5.76,4l.1.54L333,347c7.08-1.48,17.16-.38,22.8,10.81,3.61,7.18,3.11,14.48-1.42,20.56a24.47,24.47,0,0,1-3.64,3.87l10.93,21.69a20.64,20.64,0,0,1,11.42.14c4.68,1.5,8.5,5,11,10C389.78,425.22,384.87,434.16,379.68,439.1ZM279,218.33a38.75,38.75,0,1,1,17.37-4.14h0A38.5,38.5,0,0,1,279,218.33Zm-.11-67.49a28.75,28.75,0,1,0,13,54.42h0a28.74,28.74,0,0,0-13-54.42Z"/></g><path class="cls-1" d="M197.5,223A106.5,106.5,0,1,1,303.58,107a5,5,0,1,1-10,.88,96.43,96.43,0,1,0-5.18,41,5,5,0,1,1,9.42,3.35A106.72,106.72,0,0,1,197.5,223Z"/><g data-name="&lt;编组&gt;" id="_编组_2"><path class="cls-1" d="M459.22,470.36a5,5,0,0,1-.46-10l15.68-1.46,15.79-25.73L391.07,273.84l-.42-.37a5,5,0,0,1-.44-7,103.6,103.6,0,0,0,24.84-58.59,102.79,102.79,0,0,0-187.32-66.73,5,5,0,1,1-8.27-5.63A112.77,112.77,0,0,1,425,208.74a113.82,113.82,0,0,1-24.63,61.14l100,160.65a5,5,0,0,1,0,5.26l-18.71,30.49a5,5,0,0,1-3.8,2.36l-18.17,1.7ZM290.82,202.51a39.37,39.37,0,0,1-8.86-1,38.76,38.76,0,0,1-27.67-50.87A5,5,0,0,1,263.7,154a28.75,28.75,0,0,0,42.24,34.16,5,5,0,0,1,5.29,8.49A38.57,38.57,0,0,1,290.82,202.51Z"/></g><path class="cls-1" d="M253.6,372H2.4a5,5,0,0,1-3.33-8.73l125.6-112a5,5,0,0,1,6.66,0l125.6,112A5,5,0,0,1,253.6,372ZM15.52,362h225L128,261.7Z"/><path class="cls-1" d="M228,483H31.43a5,5,0,0,1-5-5V367a5,5,0,0,1,10,0V473H223V367a5,5,0,0,1,10,0V478A5,5,0,0,1,228,483Z"/><path class="cls-1" d="M128,230.41a32.21,32.21,0,1,1,32.2-32.21A32.24,32.24,0,0,1,128,230.41ZM128,176a22.21,22.21,0,1,0,22.2,22.2A22.23,22.23,0,0,0,128,176Z"/><path class="cls-1" d="M128,260a5,5,0,0,1-5-5V225.41a5,5,0,1,1,10,0V255A5,5,0,0,1,128,260Z"/><path class="cls-1" d="M38,340a5,5,0,0,1-5-5V266a5,5,0,0,1,5-5H76a5,5,0,0,1,5,5v35a5,5,0,0,1-10,0V271H43v64A5,5,0,0,1,38,340Z"/><path class="cls-1" d="M190,450H136a5,5,0,0,1-5-5V391a5,5,0,0,1,5-5h54a5,5,0,0,1,5,5v54A5,5,0,0,1,190,450Zm-49-10h44V396H141Z"/></g><g id="Outline"><path class="cls-1" d="M425.42,456.52a5,5,0,0,1-4.47-2.75l-1.35-2.68a5,5,0,0,1,8.93-4.5l1.35,2.68a5,5,0,0,1-4.46,7.25ZM415.07,436a5,5,0,0,1-4.47-2.75l-1.35-2.68a5,5,0,1,1,8.94-4.5l1.35,2.68a5,5,0,0,1-2.22,6.71A4.9,4.9,0,0,1,415.07,436Zm-10.34-20.54a5,5,0,0,1-4.47-2.76L398.91,410a5,5,0,1,1,8.93-4.49l1.35,2.68a5,5,0,0,1-4.46,7.25Zm-10.35-20.55a5,5,0,0,1-4.46-2.75l-1.35-2.68a5,5,0,0,1,8.93-4.5l1.35,2.68a5,5,0,0,1-4.47,7.25ZM384,374.35a5,5,0,0,1-4.47-2.75l-1.35-2.68a5,5,0,0,1,8.93-4.5l1.35,2.68a5,5,0,0,1-4.46,7.25ZM373.7,353.81a5,5,0,0,1-4.47-2.75l-1.35-2.68a5,5,0,1,1,8.93-4.5l1.35,2.68a5,5,0,0,1-2.22,6.71A4.89,4.89,0,0,1,373.7,353.81Zm-10.35-20.54a5,5,0,0,1-4.47-2.76l-1.35-2.68a5,5,0,1,1,8.93-4.49l1.35,2.68a5,5,0,0,1-4.46,7.25Z"/><path class="cls-1" d="M257.63,270.06a5,5,0,0,1-2.25-9.46L359,208.42a5,5,0,0,1,4.5,8.94L259.87,269.53A5,5,0,0,1,257.63,270.06Z"/><path class="cls-1" d="M284.08,291.45a5,5,0,0,1-2.26-9.46l78.6-39.58a5,5,0,0,1,4.5,8.93l-78.6,39.58A5,5,0,0,1,284.08,291.45Z"/><path class="cls-1" d="M190,423H136a5,5,0,0,1,0-10h54a5,5,0,0,1,0,10Z"/><path class="cls-1" d="M163,450a5,5,0,0,1-5-5V391a5,5,0,0,1,10,0v54A5,5,0,0,1,163,450Z"/></g></svg>