<?xml version="1.0" ?><svg id="Lines" viewBox="0 0 512 512" xmlns="http://www.w3.org/2000/svg"><defs><style>.cls-1{fill:#3f456b;}</style></defs><title/><path class="cls-1" d="M109.84,390a57.87,57.87,0,0,1-19.1-3.4c-10.44-3.76-24.45-12.43-31.92-32.39a5,5,0,0,1,9.36-3.5c11.64,31.08,41.68,29.36,42.95,29.26a5,5,0,0,1,.75,10C111.78,390,111.05,390,109.84,390Z"/><path class="cls-1" d="M17.16,390c-1.21,0-1.94-.05-2-.05a5,5,0,0,1,.76-10c1.26.09,31.3,1.82,42.94-29.26a5,5,0,1,1,9.36,3.5c-7.47,20-21.48,28.63-31.92,32.39A57.87,57.87,0,0,1,17.16,390Z"/><path class="cls-1" d="M205.84,390a57.87,57.87,0,0,1-19.1-3.4c-10.44-3.76-24.45-12.43-31.92-32.39a5,5,0,0,1,9.36-3.5c11.64,31.08,41.68,29.36,42.95,29.26a5,5,0,0,1,.75,10C207.78,390,207.05,390,205.84,390Z"/><path class="cls-1" d="M113.16,390c-1.21,0-1.94-.05-2-.05a5,5,0,0,1,.75-10c1.29.09,31.31,1.82,42.95-29.26a5,5,0,1,1,9.36,3.5c-7.47,20-21.48,28.63-31.92,32.39A57.87,57.87,0,0,1,113.16,390Z"/><path class="cls-1" d="M301.84,390a57.87,57.87,0,0,1-19.1-3.4c-10.44-3.76-24.45-12.43-31.92-32.39a5,5,0,0,1,9.36-3.5c11.64,31.08,41.68,29.35,42.95,29.26a5,5,0,0,1,.75,10C303.78,390,303.05,390,301.84,390Z"/><path class="cls-1" d="M209.16,390c-1.21,0-1.94-.05-2-.05a5,5,0,0,1,.75-10c1.29.09,31.31,1.82,42.95-29.26a5,5,0,1,1,9.36,3.5c-7.47,20-21.48,28.63-31.92,32.39A57.87,57.87,0,0,1,209.16,390Z"/><path class="cls-1" d="M398.84,390a57.87,57.87,0,0,1-19.1-3.4c-10.44-3.76-24.45-12.43-31.92-32.39a5,5,0,1,1,9.36-3.5c11.64,31.08,41.68,29.35,42.95,29.26a5,5,0,0,1,.75,10C400.78,390,400.05,390,398.84,390Z"/><path class="cls-1" d="M306.16,390c-1.21,0-1.94-.05-2-.05a5,5,0,0,1,.75-10c1.28.09,31.31,1.82,42.95-29.26a5,5,0,1,1,9.36,3.5c-7.47,20-21.48,28.63-31.92,32.39A57.87,57.87,0,0,1,306.16,390Z"/><path class="cls-1" d="M494.84,390a57.87,57.87,0,0,1-19.1-3.4c-10.44-3.76-24.45-12.43-31.92-32.39a5,5,0,1,1,9.36-3.5c11.64,31.08,41.68,29.35,42.95,29.26a5,5,0,0,1,.75,10C496.78,390,496.05,390,494.84,390Z"/><path class="cls-1" d="M402.16,390c-1.21,0-1.94-.05-2-.05a5,5,0,0,1,.75-10c1.28.09,31.31,1.82,42.95-29.26a5,5,0,1,1,9.36,3.5c-7.47,20-21.48,28.63-31.92,32.39A57.87,57.87,0,0,1,402.16,390Z"/><path class="cls-1" d="M399,316H399A5,5,0,0,1,394,311c.4-41.06-11.77-71.38-36.17-90.11a83.57,83.57,0,0,0-18.52-10.74,108,108,0,0,1,25.26,54.79c3,20.13-.57,34.71-.72,35.32a5,5,0,0,1-9.7-2.41h0c0-.14,3.26-13.6.47-31.86-3.72-24.3-15.77-45.2-35.84-62.12a5,5,0,0,1,3.73-8.79c.85.08,21.14,2.32,41.41,17.88,18.58,14.26,40.62,42.87,40.08,98.14A5,5,0,0,1,399,316Z"/><path class="cls-1" d="M415,318a5,5,0,0,1-5-4.87C408.49,255,420.14,203,426,180.83c-28.89,19.2-36.8,62.43-36.88,62.91a5,5,0,0,1-9.85-1.73c.42-2.39,10.76-58.81,52.86-75.65a5,5,0,0,1,6.62,6.18c-.21.64-20.72,65.14-18.76,140.33a5,5,0,0,1-4.87,5.13Z"/><path class="cls-1" d="M381,184c-16.88,0-23-13.75-23-23V89.13c-.07-1.63-.14-10.16,5.88-16.57C368,68.21,373.73,66,381,66s13,2.21,17.12,6.56c6,6.41,5.95,14.94,5.88,16.57V161C404,170.25,397.88,184,381,184Zm0-108c-4.37,0-7.66,1.13-9.79,3.36C367.76,83,368,88.67,368,88.72a2.62,2.62,0,0,1,0,.28v72c0,2.15.79,13,13,13s13-10.85,13-13V89c0-.1,0-.21,0-.31s.23-5.7-3.22-9.33C388.66,77.13,385.37,76,381,76Z"/><path class="cls-1" d="M112.61,136.32c-10.31,0-17.59-7.58-20.43-14.15l-28.53-66c-.72-1.47-4.16-9.27-1.18-17.54,2-5.62,6.43-9.93,13.1-12.82s12.84-3.15,18.32-.77c8.07,3.49,11.4,11.34,12,12.86l28.53,66a27.11,27.11,0,0,1,1.91,11.41c-.46,8.47-5.4,15.16-13.88,18.83A24.63,24.63,0,0,1,112.61,136.32ZM86.07,33.49A16.52,16.52,0,0,0,79.55,35c-4,1.74-6.62,4.11-7.67,7-1.67,4.63.74,9.73.76,9.78s.09.19.13.28l28.59,66.08c.88,2,5.88,11.62,17.09,6.77s7.6-15.11,6.76-17.12l-28.57-66-.12-.29s-2-5.33-6.66-7.28A9.46,9.46,0,0,0,86.07,33.49Z"/><path class="cls-1" d="M174.92,164.23a27.08,27.08,0,0,1-6-.7c-9-2.05-15.09-7.72-17.11-16a27.22,27.22,0,0,1-.21-11.57l15.94-70.08c.29-1.61,2.12-9.94,9.41-14.85,5-3.34,11.06-4.21,18.15-2.6s12.21,5,15.24,10.2c4.44,7.58,2.49,15.88,2,17.45l-15.94,70.09a27.22,27.22,0,0,1-5.2,10.33A20.48,20.48,0,0,1,174.92,164.23ZM188.57,57.7a10.58,10.58,0,0,0-6,1.66c-4.09,2.76-5.15,8.29-5.16,8.35l-.06.3-16,70.21c-.45,2.1-2.12,12.85,9.79,15.56,12.32,2.8,15.26-8.5,15.56-9.79l16-70.21c0-.1.05-.2.08-.3s1.49-5.51-1.07-9.81c-1.58-2.65-4.54-4.48-8.8-5.45A19.5,19.5,0,0,0,188.57,57.7Zm-16.13,9.2h0Z"/><path class="cls-1" d="M381,240a5,5,0,0,1-5-5V179a5,5,0,0,1,10,0v56A5,5,0,0,1,381,240Z"/><path class="cls-1" d="M429,309h-.39a5,5,0,0,1-4.61-5.37c5.13-66.66,38.79-89.83,40.22-90.78a5,5,0,0,1,7.46,5.9c-9.48,25.6-4.77,71.27-4.72,71.73a5,5,0,1,1-9.94,1.06c-.17-1.57-3.27-31.67.76-57.87-9.29,12.34-21,34.67-23.8,70.72A5,5,0,0,1,429,309Z"/><path class="cls-1" d="M381,75a5,5,0,0,1-5-5V60a5,5,0,0,1,10,0V70A5,5,0,0,1,381,75Z"/><path class="cls-1" d="M288,314a5.82,5.82,0,0,1-.92-.08,5,5,0,0,1-4-5.83c6.56-35.63-12.53-83.74-12.72-84.22a5,5,0,0,1,6.34-6.57c20.57,7.44,36.15,22.71,45,44.16A96.72,96.72,0,0,1,329,291.81a5,5,0,0,1-10,.39A87.64,87.64,0,0,0,312.38,265c-6.31-15.07-16-26.31-28.74-33.55,1.63,5,3.55,11.49,5.31,18.81,5.63,23.33,7,43.4,4,59.66A5,5,0,0,1,288,314Z"/><path class="cls-1" d="M147,309a5,5,0,0,1-5-4.63c-.06-.85-1.48-21.1,5.14-47.58,6.13-24.51,20.62-59.11,54.85-84.79a5,5,0,0,1,7.53,6.12c-.22.47-21.8,47.67-14.56,113.33a5,5,0,0,1-9.94,1.1,253.45,253.45,0,0,1,8.7-100.17c-46,46.07-41.8,110.54-41.74,111.25a5,5,0,0,1-4.62,5.36Z"/><path class="cls-1" d="M115.5,314.92a4.92,4.92,0,0,1-1.13-.14,5,5,0,0,1-3.74-6c16.8-72.08-17.55-129.6-17.9-130.17a5,5,0,0,1,5.8-7.37c29,9.3,44.15,28.59,51.75,43.14a89.06,89.06,0,0,1,9.66,29.8,5,5,0,0,1-10,1,80.55,80.55,0,0,0-8.74-26.47,75.25,75.25,0,0,0-33.72-33,199.09,199.09,0,0,1,10.1,27.82c6.38,22.55,12,57.78,2.75,97.61A5,5,0,0,1,115.5,314.92Z"/><path class="cls-1" d="M239,320a5,5,0,0,1-4.82-3.67,124.76,124.76,0,0,1-1.13-61.39C210.91,273,212,296.44,212,296.71a5,5,0,0,1-10,.58c-.09-1.51-1.74-37.42,37.61-58.69a5,5,0,0,1,7,6.4c-.13.3-13.12,31-2.76,68.67a5,5,0,0,1-3.49,6.15A5.13,5.13,0,0,1,239,320Z"/><path class="cls-1" d="M98,314a4.82,4.82,0,0,1-1.39-.2,5,5,0,0,1-3.42-6.18,65.13,65.13,0,0,0,.19-27.95C90.2,264.27,82,251.15,68.83,240.48c4.39,12.72,7.32,31.73-.06,55a5,5,0,0,1-9.54-3c12-37.81-6.4-62.41-7.19-63.43a5,5,0,0,1,6.35-7.45c31.14,16.93,41.6,40.09,44.89,56.53,3.57,17.87-.31,31.67-.48,32.25A5,5,0,0,1,98,314Z"/><path class="cls-1" d="M146,222a5,5,0,0,1-4.9-4.07,544.11,544.11,0,0,0-24.36-86.53,5,5,0,0,1,9.38-3.46,554.07,554.07,0,0,1,24.8,88.13A5,5,0,0,1,146,222Z"/><path class="cls-1" d="M75.43,35.74A5,5,0,0,1,71,33a25.7,25.7,0,0,0-3.56-5.53,5,5,0,0,1,0-7,5,5,0,0,1,7.1,0,33.64,33.64,0,0,1,5.34,8,5,5,0,0,1-2.18,6.72A4.84,4.84,0,0,1,75.43,35.74Z"/><path class="cls-1" d="M161.24,234.1l-.46,0a5,5,0,0,1-4.52-5.44c2.11-23.09,5.08-46.43,8.84-69.39a5,5,0,1,1,9.87,1.62c-3.72,22.72-6.66,45.83-8.76,68.68A5,5,0,0,1,161.24,234.1Z"/><path class="cls-1" d="M194.08,58.38a4.8,4.8,0,0,1-1.44-.22,5,5,0,0,1-3.35-6.22c2.84-9.45,3.48-10.21,5.1-11.2a5,5,0,0,1,6.85,6.92,74.56,74.56,0,0,0-2.37,7.15A5,5,0,0,1,194.08,58.38Zm5.54-9.12h0Zm0,0Zm0,0h0Zm0,0h0Zm0,0Z"/><path class="cls-1" d="M207.84,449a57.87,57.87,0,0,1-19.1-3.4c-10.44-3.76-24.45-12.43-31.92-32.39a5,5,0,0,1,9.36-3.5c11.64,31.08,41.68,29.36,42.95,29.26a5,5,0,0,1,.75,10C209.78,449,209.05,449,207.84,449Z"/><path class="cls-1" d="M115.16,449c-1.21,0-1.94-.05-2-.05a5,5,0,0,1,.75-10c1.29.09,31.31,1.82,42.95-29.26a5,5,0,1,1,9.36,3.5c-7.47,20-21.48,28.63-31.92,32.39A57.87,57.87,0,0,1,115.16,449Z"/><path class="cls-1" d="M303.84,449a57.87,57.87,0,0,1-19.1-3.4c-10.44-3.76-24.45-12.43-31.92-32.39a5,5,0,0,1,9.36-3.5c11.64,31.08,41.68,29.35,42.95,29.26a5,5,0,0,1,.75,10C305.78,449,305.05,449,303.84,449Z"/><path class="cls-1" d="M211.16,449c-1.21,0-1.94-.05-2-.05a5,5,0,0,1,.75-10c1.28.09,31.31,1.82,42.95-29.26a5,5,0,1,1,9.36,3.5c-7.47,20-21.48,28.63-31.92,32.39A57.87,57.87,0,0,1,211.16,449Z"/><path class="cls-1" d="M399.84,449a57.87,57.87,0,0,1-19.1-3.4c-10.44-3.76-24.45-12.43-31.92-32.39a5,5,0,1,1,9.36-3.5c11.64,31.08,41.68,29.35,42.95,29.26a5,5,0,0,1,.75,10C401.78,449,401.05,449,399.84,449Z"/><path class="cls-1" d="M307.16,449c-1.21,0-1.94-.05-2-.05a5,5,0,0,1,.75-10c1.28.09,31.31,1.82,42.95-29.26a5,5,0,1,1,9.36,3.5c-7.47,20-21.48,28.63-31.92,32.39A57.87,57.87,0,0,1,307.16,449Z"/><path class="cls-1" d="M255.4,322.16a69.6,69.6,0,0,1-28.41-5.8,82.44,82.44,0,0,1-13.51-8.27c-4.54-3.2-8.82-6.23-13.66-8.06-19-7.22-34.62,0-54.64,10.93-21.06,11.52-46.94,10-65.93-3.93-30.73-22.5-59.89-.31-60.18-.09a5,5,0,1,1-6.14-7.88,64.81,64.81,0,0,1,22.14-10.28C47.32,285.66,66,284.9,85.16,299c15.87,11.62,37.54,12.88,55.22,3.21,17.92-9.8,38.24-20.92,63-11.5,6,2.29,11,5.82,15.86,9.24a73.55,73.55,0,0,0,11.86,7.32c9.35,4.23,20.82,5.8,32.29,4.45A64.11,64.11,0,0,0,283.67,306a106.58,106.58,0,0,0,11.91-7.14c7.66-5.06,15.58-10.29,27.08-11.69,16.87-2.05,33,2.34,44.2,12,17.33,15,38,14.37,49.87,7.45,3.5-2,6.79-4.36,10-6.59,7.67-5.41,15.61-11,26.85-13,15.83-2.76,32,1.86,45.62,13a5,5,0,1,1-6.34,7.74c-11.31-9.28-24.65-13.15-37.56-10.9-9,1.58-15.42,6.08-22.82,11.28-3.35,2.36-6.81,4.8-10.69,7.06-18.15,10.57-43.42,7.06-61.44-8.53-8.95-7.74-22.58-11.36-36.45-9.67-9.17,1.11-15.47,5.28-22.78,10.1a112,112,0,0,1-13,7.78,72.82,72.82,0,0,1-23.48,6.63A78.59,78.59,0,0,1,255.4,322.16Z"/><path class="cls-1" d="M255.4,322.16a69.6,69.6,0,0,1-28.41-5.8,82.44,82.44,0,0,1-13.51-8.27c-4.54-3.2-8.82-6.23-13.66-8.06-19-7.22-34.62,0-54.64,10.93-21.06,11.52-46.94,10-65.93-3.93-30.73-22.5-59.89-.31-60.18-.09a5,5,0,1,1-6.14-7.88,64.81,64.81,0,0,1,22.14-10.28C47.32,285.66,66,284.9,85.16,299c15.87,11.62,37.54,12.88,55.22,3.21,17.92-9.8,38.24-20.92,63-11.5,6,2.29,11,5.82,15.86,9.24a73.55,73.55,0,0,0,11.86,7.32c9.35,4.23,20.82,5.8,32.29,4.45A64.11,64.11,0,0,0,283.67,306a106.58,106.58,0,0,0,11.91-7.14c7.66-5.06,15.58-10.29,27.08-11.69,16.87-2.05,33,2.34,44.2,12,17.33,15,38,14.37,49.87,7.45,3.5-2,6.79-4.36,10-6.59,7.67-5.41,15.61-11,26.85-13,15.83-2.76,32,1.86,45.62,13a5,5,0,1,1-6.34,7.74c-11.31-9.28-24.65-13.15-37.56-10.9-9,1.58-15.42,6.08-22.82,11.28-3.35,2.36-6.81,4.8-10.69,7.06-18.15,10.57-43.42,7.06-61.44-8.53-8.95-7.74-22.58-11.36-36.45-9.67-9.17,1.11-15.47,5.28-22.78,10.1a112,112,0,0,1-13,7.78,72.82,72.82,0,0,1-23.48,6.63A78.59,78.59,0,0,1,255.4,322.16Z"/><path class="cls-1" d="M446.48,162.4H399.81a5,5,0,0,1,0-10h60a31,31,0,0,0,30.95-31.1A31.32,31.32,0,0,0,465,90.44a5,5,0,0,1-3.95-6.17A51.54,51.54,0,0,0,363,53.07a5,5,0,0,1-8.54,1.4,25.22,25.22,0,0,0-44,21.88,5,5,0,0,1-4,6.11A35.2,35.2,0,0,0,311,152.38l51.3,0a5,5,0,0,1,0,10h0l-51.55,0a45.2,45.2,0,0,1-10.83-88.71c-.1-1.07-.15-2.15-.15-3.23a35.23,35.23,0,0,1,57-27.69A61.54,61.54,0,0,1,471.82,81.84a41.22,41.22,0,0,1-11.94,80.56Z"/><path class="cls-1" d="M436.35,95.43a5,5,0,0,1-3.54-8.53c12-12,35.34-6.06,36.32-5.8a5,5,0,1,1-2.54,9.67c-5.19-1.35-20.1-3.41-26.71,3.2A5,5,0,0,1,436.35,95.43Z"/><path class="cls-1" d="M348.55,85.3a5,5,0,0,1-2.35-.59c-15-8-41.75-1.88-42-1.81a5,5,0,0,1-2.28-9.74c1.24-.29,30.68-7,49,2.73a5,5,0,0,1-2.36,9.41Z"/></svg>