<?xml version="1.0" ?><svg viewBox="0 0 512 512" xmlns="http://www.w3.org/2000/svg"><defs><style>.cls-1{fill:#3f456b;}</style></defs><title/><g id="Lines"><path class="cls-1" d="M480.5,500.5H32.5a5,5,0,0,1-5-5v-144a5,5,0,0,1,5-5h448a5,5,0,0,1,5,5v144A5,5,0,0,1,480.5,500.5Zm-443-10h438v-134H37.5Z"/><path class="cls-1" d="M176.5,452.5a5,5,0,0,1-5-5V261.75H26.5a15,15,0,0,1-15-15V89.5a15,15,0,0,1,15-15h135c12.34,0,20,7.85,20,20.5V447.5A5,5,0,0,1,176.5,452.5Zm-150-368a5,5,0,0,0-5,5V246.75a5,5,0,0,0,5,5h145V95c0-7.16-3.18-10.5-10-10.5Z"/><path class="cls-1" d="M48.5,356.5a5,5,0,0,1-5-5V256.75a5,5,0,0,1,10,0V351.5A5,5,0,0,1,48.5,356.5Z"/><path class="cls-1" d="M432.5,500a5,5,0,0,1-4.83-3.7l-8.89-32.9,0-.1c-.29-1.06-3.27-10.8-16.09-10.8H110.75c-13.49,0-16.5,10.77-16.53,10.88L85.33,496.3a5,5,0,0,1-9.66-2.6l8.89-32.9a25.17,25.17,0,0,1,5.16-9.27c3.56-4.12,10.1-9,21-9H402.67c10.87,0,17.31,4.94,20.8,9.08a25.29,25.29,0,0,1,5,9.25l8.88,32.87a5,5,0,0,1-3.53,6.13A5.27,5.27,0,0,1,432.5,500Z"/><path class="cls-1" d="M432.5,424.5H360.67a5,5,0,0,1-5-5V380a5,5,0,0,1,5-5H432.5a5,5,0,0,1,5,5v39.5A5,5,0,0,1,432.5,424.5Zm-66.83-10H427.5V385H365.67Z"/><path class="cls-1" d="M465.45,378h-3a5,5,0,0,1,0-10h3a5,5,0,1,1,0,10Z"/><path class="cls-1" d="M465.45,480h-3a5,5,0,0,1,0-10h3a5,5,0,1,1,0,10Z"/><path class="cls-1" d="M454.26,265.75h-3a5,5,0,0,1,0-10h3a5,5,0,0,1,0,10Z"/><path class="cls-1" d="M454.26,333.67h-3a5,5,0,0,1,0-10h3a5,5,0,0,1,0,10Z"/><path class="cls-1" d="M54,378H51a5,5,0,0,1,0-10h3a5,5,0,0,1,0,10Z"/><path class="cls-1" d="M54,480H51a5,5,0,0,1,0-10h3a5,5,0,0,1,0,10Z"/><path class="cls-1" d="M464.5,212.5H353a5,5,0,0,1-5-5v-64a5,5,0,0,1,5-5H464.5a5,5,0,0,1,5,5v64A5,5,0,0,1,464.5,212.5ZM358,202.5H459.5v-54H358Z"/><path class="cls-1" d="M432.5,356.5a5,5,0,0,1-5-5v-144a5,5,0,0,1,10,0v144A5,5,0,0,1,432.5,356.5Z"/><path class="cls-1" d="M486.5,356.5h-54a5,5,0,0,1,0-10h54a5,5,0,0,0,5-5v-92a5,5,0,0,0-5-5h-54a5,5,0,0,1,0-10h54a15,15,0,0,1,15,15v92A15,15,0,0,1,486.5,356.5Z"/><path class="cls-1" d="M496.5,212.5a5,5,0,0,1-5-5v-64a5,5,0,0,1,10,0v64A5,5,0,0,1,496.5,212.5Z"/><path class="cls-1" d="M496.5,180.75h-32a5,5,0,0,1,0-10h32a5,5,0,0,1,0,10Z"/><path class="cls-1" d="M432.5,147.5a5,5,0,0,1-5-5v-27H177a5,5,0,0,1,0-10H432.5a5,5,0,0,1,5,5v32A5,5,0,0,1,432.5,147.5Z"/><path class="cls-1" d="M352.5,338.75h-112a5,5,0,0,1-5-5v-80a5,5,0,0,1,5-5h112a5,5,0,0,1,5,5v80A5,5,0,0,1,352.5,338.75Zm-107-10h102v-70h-102Z"/><path class="cls-1" d="M240.5,274.58h-64a5,5,0,0,1,0-10h64a5,5,0,0,1,0,10Z"/><path class="cls-1" d="M240.5,322.67h-64a5,5,0,0,1,0-10h64a5,5,0,1,1,0,10Z"/><path class="cls-1" d="M240.5,298.75h-64a5,5,0,0,1,0-10h64a5,5,0,0,1,0,10Z"/><path class="cls-1" d="M432.5,274.58H353a5,5,0,0,1,0-10h79.5a5,5,0,0,1,0,10Z"/><path class="cls-1" d="M432.5,322.67H353a5,5,0,0,1,0-10h79.5a5,5,0,0,1,0,10Z"/><path class="cls-1" d="M432.5,298.75H353a5,5,0,0,1,0-10h79.5a5,5,0,0,1,0,10Z"/><path class="cls-1" d="M352.5,197.25a4.88,4.88,0,0,1-1.4-.2l-22.75-6.62a5,5,0,0,1-3.6-4.81v-18.5a5,5,0,0,1,3.41-4.74l22.75-7.62a5,5,0,1,1,3.18,9.48l-19.34,6.48v11.15l19.15,5.58a5,5,0,0,1-1.4,9.8Z"/><path class="cls-1" d="M320.5,237H256a5,5,0,0,1-5-5V207.5a5,5,0,0,1,5-5h64.5a5,5,0,0,1,5,5V232A5,5,0,0,1,320.5,237ZM261,227h54.5V212.5H261Z"/><path class="cls-1" d="M288.5,258.12a5,5,0,0,1-5-5V232a5,5,0,0,1,10,0v21.12A5,5,0,0,1,288.5,258.12Z"/><path class="cls-1" d="M373.35,81.29a5.24,5.24,0,0,1-1.7-.29L320.93,62.71a5,5,0,0,1-2.67-7.13l23.63-42.51A5,5,0,0,1,348,10.8l36.11,13a5,5,0,0,1,3.21,5.63l-9,47.77a5,5,0,0,1-4.91,4.07Zm-43.49-26,39.67,14.3,7.14-37.82L348.56,21.65Z"/><path class="cls-1" d="M431.4,67.16a5.09,5.09,0,0,1-.95-.09L377,56.78A5,5,0,1,1,378.91,47l53.43,10.29a5,5,0,0,1-.94,9.91Z"/><path class="cls-1" d="M448.5,87.86a22.11,22.11,0,1,1,22.11-22.11A22.14,22.14,0,0,1,448.5,87.86Zm0-34.22a12.11,12.11,0,1,0,12.11,12.11A12.12,12.12,0,0,0,448.5,53.64Z"/><path class="cls-1" d="M448.5,70.75a5,5,0,0,1-5-5v-1a5,5,0,0,1,10,0v1A5,5,0,0,1,448.5,70.75Z"/><path class="cls-1" d="M448.5,147.5a5,5,0,0,1-5-5V82.86a5,5,0,0,1,10,0V142.5A5,5,0,0,1,448.5,147.5Z"/><path class="cls-1" d="M448.75,244.5a5,5,0,0,1-5-5v-32a5,5,0,0,1,10,0v32A5,5,0,0,1,448.75,244.5Z"/><path class="cls-1" d="M200,148.5H177a5,5,0,0,1,0-10h23a5,5,0,0,1,0,10Z"/><path class="cls-1" d="M200,211.54H177a5,5,0,0,1,0-10h23a5,5,0,0,1,0,10Z"/><path class="cls-1" d="M247.25,154.64H230.67a5,5,0,1,1,0-10h16.58a5,5,0,0,1,0,10Z"/><path class="cls-1" d="M247.25,200.86H230.67a5,5,0,1,1,0-10h16.58a5,5,0,0,1,0,10Z"/><path class="cls-1" d="M247.25,177.75H230.67a5,5,0,1,1,0-10h16.58a5,5,0,0,1,0,10Z"/><path class="cls-1" d="M226,228.5H200a5,5,0,0,1-5-5V128a5,5,0,0,1,5-5h26a5,5,0,0,1,5,5v95.5A5,5,0,0,1,226,228.5Zm-21-10h16V133H205Z"/><path class="cls-1" d="M96.5,181.13A31.49,31.49,0,1,1,128,149.64,31.52,31.52,0,0,1,96.5,181.13Zm0-53A21.49,21.49,0,1,0,118,149.64,21.51,21.51,0,0,0,96.5,128.15Z"/><path class="cls-1" d="M144.5,237h-96a5,5,0,0,1-5-5V201.67a5,5,0,0,1,5-5h96a5,5,0,0,1,5,5V232A5,5,0,0,1,144.5,237Zm-91-10h86V206.67h-86Z"/><path class="cls-1" d="M335.25,276.25h-3a5,5,0,0,1,0-10h3a5,5,0,0,1,0,10Z"/><path class="cls-1" d="M335.25,320h-3a5,5,0,0,1,0-10h3a5,5,0,0,1,0,10Z"/><path class="cls-1" d="M262.75,276.25h-3a5,5,0,0,1,0-10h3a5,5,0,0,1,0,10Z"/><path class="cls-1" d="M262.75,320h-3a5,5,0,0,1,0-10h3a5,5,0,0,1,0,10Z"/><path class="cls-1" d="M96.5,144.5a5,5,0,0,1-5-5v-3a5,5,0,0,1,10,0v3A5,5,0,0,1,96.5,144.5Z"/></g><g id="Outline"><path class="cls-1" d="M75.33,326.16a5,5,0,0,1-5-5V283a5,5,0,0,1,10,0v38.16A5,5,0,0,1,75.33,326.16Z"/><path class="cls-1" d="M100.11,326.16a5,5,0,0,1-5-5V283a5,5,0,0,1,10,0v38.16A5,5,0,0,1,100.11,326.16Z"/><path class="cls-1" d="M149.67,326.16a5,5,0,0,1-5-5V283a5,5,0,0,1,10,0v38.16A5,5,0,0,1,149.67,326.16Z"/><path class="cls-1" d="M124.89,326.16a5,5,0,0,1-5-5V283a5,5,0,1,1,10,0v38.16A5,5,0,0,1,124.89,326.16Z"/><path class="cls-1" d="M131,189.11a5,5,0,0,1-3.53-8.53,43.76,43.76,0,1,0-61.88,0,5,5,0,1,1-7.07,7.07,53.75,53.75,0,1,1,76,0A5,5,0,0,1,131,189.11Z"/></g></svg>