<?xml version="1.0" ?><svg id="Lines" viewBox="0 0 512 512" xmlns="http://www.w3.org/2000/svg"><defs><style>.cls-1{fill:#3f456b;}</style></defs><title/><path class="cls-1" d="M305,500.5H17a5,5,0,0,1-5-5V95.5a5,5,0,0,1,5-5c27.76,0,48.87,9.6,57.93,26.34,6.71,12.42,5.71,27-2.74,39.9-2,3-4.18,7.64-3.31,12.31,1.42,7.6,6.75,10.51,15.33,14.63a85.52,85.52,0,0,1,8.08,4.23c8.88,5.42,13.39,15.17,13,28.2-.43,16.73-6.79,35.13-20,57.9s-11.5,32.05-9.27,35.49c3.78,5.82,14.79,5.54,21,4.86a5,5,0,1,1,1.09,9.95c-14.91,1.62-25.44-1.61-30.48-9.36-6.29-9.66-3.34-24.7,9-46S95,230.84,95.35,215.85c.16-6.45-1.14-15-8.27-19.41-2.21-1.35-4.63-2.51-7.2-3.75-8.63-4.14-18.41-8.83-20.83-21.81-1.17-6.27.48-13.06,4.76-19.62,6.39-9.76,7.23-20.57,2.32-29.66-6.74-12.46-22.68-20-44.13-21V490.5H301.56c1.85-5.41,4.89-17.13,0-25.34-3.41-5.69-10.43-8.94-20.88-9.67l-.34,0c-1.36-.19-13.45-2.11-18-10.69-1.65-3.14-2.87-8.38.69-15.5,10-19.91,10.71-32.83,2.44-41.89l-1.41-1.55c-9-9.86-17.55-19.17-16.92-28.9.29-4.54,2.52-8.6,6.63-12.07,5.66-4.78,8.86-10.92,8.16-15.64-.51-3.38-3-6-7.41-7.95-8.58-3.69-19.91-3.74-28.19-.12-3.75,1.64-8.66,4.86-10.78,10.86-3.2,9.07-12.59,16-23.92,17.7a5,5,0,0,1-1.47-9.9c7.59-1.12,14-5.59,16-11.13,2.62-7.43,8.22-13.2,16.2-16.69,10.82-4.74,25-4.7,36.16.09,7.58,3.27,12.32,8.83,13.34,15.67,1.24,8.31-3.1,17.57-11.59,24.75-2.64,2.23-3,4-3.11,5.07-.35,5.48,7.1,13.63,14.32,21.51l1.42,1.56c14.86,16.29,6.61,38.11-.89,53.11-2,4-1.08,5.79-.78,6.37,1.67,3.18,7.59,5,10.35,5.42,13.81,1,23.43,5.89,28.59,14.53,9.22,15.44-.17,36.61-.57,37.5A5,5,0,0,1,305,500.5Z"/><path class="cls-1" d="M412.79,456.76a46,46,0,0,1-15.64-2.9c-3-1.09-7.37-2.94-10.69-6.45a32,32,0,0,1-5.6-9.23c-.68-1.48-1.32-2.89-2.05-4.14A20.73,20.73,0,0,0,362.09,424a46.57,46.57,0,0,0-7.45.55,70.49,70.49,0,0,1-7.18.63c-7.81.15-14.18-2.71-17.51-7.82-4.72-7.25-1.84-14.91.69-21.67,1.76-4.69,3.42-9.11,2.39-12.58-.14-.46-.27-.91-.4-1.38a32.61,32.61,0,0,0-2.1-5.91,17.07,17.07,0,0,1-.73-14.35c3.09-8.32,11.15-14.68,17.33-17.07,10.8-4.16,24-2,33.7,5.53,8.82,6.86,14.59,17.68,15.83,29.69.11,1,.18,2.07.25,3.1a26.57,26.57,0,0,0,1.09,7c1.2,3.25,4.08,6,6.75,8.23A80.92,80.92,0,0,0,423,409.5l1.73.77c4,1.77,8.44,3.76,11.86,7.52a19.9,19.9,0,0,1,4.77,16,25.2,25.2,0,0,1-10.59,17.74A31.71,31.71,0,0,1,412.79,456.76ZM361.21,414c.42,0,.85,0,1.28,0a31,31,0,0,1,25,15,56.21,56.21,0,0,1,2.51,5,23.89,23.89,0,0,0,3.76,6.49c1.42,1.5,3.59,2.75,6.84,3.93,9.35,3.39,18.56,3,24.63-1.16a15.3,15.3,0,0,0,6.27-10.65,10.28,10.28,0,0,0-2.24-8.13c-2-2.21-5.17-3.62-8.53-5.11l-1.82-.82a90.49,90.49,0,0,1-20.55-13c-3.46-2.91-7.69-6.95-9.71-12.43a34.9,34.9,0,0,1-1.67-9.76c-.07-.92-.13-1.85-.23-2.77-.95-9.17-5.44-17.71-12-22.83-7-5.41-16.37-7-24-4.09-4.24,1.64-9.72,6.29-11.56,11.22a7.16,7.16,0,0,0,.18,6.16,40,40,0,0,1,2.89,7.86c.13.44.25.87.38,1.3h0c2,6.68-.46,13.19-2.62,18.93-2.26,6-3.5,9.89-1.67,12.71,1.63,2.5,5.67,3.32,8.95,3.27a59.21,59.21,0,0,0,6.12-.56A63.15,63.15,0,0,1,361.21,414Z"/><path class="cls-1" d="M343.79,129.83a5,5,0,0,1-2.48-.66A24.28,24.28,0,0,1,329.43,108c0-13.26,10.09-24,22.51-24s22.5,10.78,22.5,24a24.53,24.53,0,0,1-11,20.68,5,5,0,1,1-5.35-8.44A14.48,14.48,0,0,0,364.44,108c0-7.74-5.61-14-12.5-14s-12.51,6.3-12.51,14a14.25,14.25,0,0,0,6.85,12.52,5,5,0,0,1-2.49,9.34Z"/><path class="cls-1" d="M315.43,162.93a5,5,0,0,1-5-5c0-1.08,0-2.19,0-3.31,0-16.17,9.21-24.21,16.93-28.11a43.51,43.51,0,0,1,12-3.9,5,5,0,0,1,9.45,2.3v2.19a5,5,0,0,1-4.8,5,33.86,33.86,0,0,0-12.39,3.46c-7.53,3.91-11.19,10.14-11.19,19.06,0,1.09,0,2.16,0,3.22a5,5,0,0,1-5,5Z"/><path class="cls-1" d="M389.23,162.15h0a5,5,0,0,1-5-5c0-.83,0-1.68,0-2.54,0-21.33-22.61-22.49-23.57-22.53a5,5,0,0,1-4.8-5v-2.19a5,5,0,0,1,9.4-2.38c11.87,1.91,29,10.19,29,32.09,0,.88,0,1.75,0,2.61A5,5,0,0,1,389.23,162.15Z"/><path class="cls-1" d="M254.15,129.83a4.93,4.93,0,0,1-2.48-.66A24.29,24.29,0,0,1,239.78,108c0-13.26,10.1-24,22.51-24s22.51,10.78,22.51,24a24.54,24.54,0,0,1-11,20.68,5,5,0,0,1-5.36-8.44A14.48,14.48,0,0,0,274.8,108c0-7.74-5.61-14-12.51-14s-12.51,6.3-12.51,14a14.27,14.27,0,0,0,6.85,12.52,5,5,0,0,1-2.48,9.34Z"/><path class="cls-1" d="M225.79,162.93a5,5,0,0,1-5-5c0-1.08,0-2.19,0-3.31,0-16.17,9.2-24.21,16.93-28.11a43.51,43.51,0,0,1,12-3.9,5,5,0,0,1,9.44,2.3v2.19a5,5,0,0,1-4.8,5A33.91,33.91,0,0,0,242,135.61c-7.53,3.91-11.18,10.14-11.18,19.06,0,1.09,0,2.16,0,3.21a5,5,0,0,1-4.95,5.05Z"/><path class="cls-1" d="M299.58,162.15h0a5,5,0,0,1-5-5c0-.83,0-1.68,0-2.54,0-8.92-3.66-15.15-11.19-19.06A34.21,34.21,0,0,0,271,132a5,5,0,0,1-4.79-5v-2.19a5,5,0,0,1,9.41-2.37c11.86,1.9,29,10.18,29,32.08,0,.88,0,1.75,0,2.61A5,5,0,0,1,299.58,162.15Z"/><path class="cls-1" d="M433.18,129.83a5,5,0,0,1-2.48-.66A24.29,24.29,0,0,1,418.81,108c0-13.26,10.1-24,22.51-24s22.51,10.78,22.51,24a24.53,24.53,0,0,1-11,20.68,5,5,0,0,1-5.36-8.44A14.46,14.46,0,0,0,453.83,108c0-7.74-5.61-14-12.51-14s-12.51,6.3-12.51,14a14.26,14.26,0,0,0,6.86,12.52,5,5,0,0,1-2.49,9.34Z"/><path class="cls-1" d="M404.82,162.93a5,5,0,0,1-5-5c0-1.08,0-2.19,0-3.31,0-16.17,9.21-24.21,16.93-28.11a43.51,43.51,0,0,1,12-3.9,5,5,0,0,1,9.44,2.3v2.19a5,5,0,0,1-4.79,5A33.82,33.82,0,0,0,421,135.61c-7.53,3.91-11.19,10.14-11.19,19.06,0,1.09,0,2.16,0,3.22a5,5,0,0,1-4.95,5Z"/><path class="cls-1" d="M478.61,162.15h0a5,5,0,0,1-5-5c0-.84,0-1.68,0-2.54,0-21.33-22.62-22.49-23.58-22.53a5,5,0,0,1-4.8-5v-2.19a5,5,0,0,1,9.41-2.38c11.86,1.91,29,10.19,29,32.09,0,.88,0,1.76,0,2.62A5,5,0,0,1,478.61,162.15Z"/><path class="cls-1" d="M475.14,235a5,5,0,0,1-3.07-9c11.18-8.68,15.59-26.27,17.31-39.5a154.84,154.84,0,0,0,1.18-23H285.28l-81-.23a96,96,0,0,1,23.28,51,5,5,0,1,1-9.91,1.37c-2.91-21-12.57-39-28.69-53.72a5,5,0,0,1,3.36-8.7h0l93,.26H495.35a5,5,0,0,1,5,4.62c.17,2.26,3.94,55.56-22.13,75.81A5,5,0,0,1,475.14,235Z"/><path class="cls-1" d="M251.38,241.94a35.78,35.78,0,0,1-33.45-23.82,5,5,0,0,1,9.37-3.5c6.91,18.47,25,17.3,25.21,17.28a5,5,0,0,1,.76,10Q252.39,241.94,251.38,241.94Z"/><path class="cls-1" d="M193.85,241.94q-1,0-1.89-.06a5,5,0,0,1,.76-10c.73,0,18.38,1,25.21-17.28a5,5,0,0,1,9.37,3.5A35.78,35.78,0,0,1,193.85,241.94Z"/><path class="cls-1" d="M311.93,241.94a35.78,35.78,0,0,1-33.45-23.82,5,5,0,0,1,9.37-3.5c6.9,18.47,25,17.3,25.2,17.28a5,5,0,0,1,.77,10Q312.94,241.94,311.93,241.94Z"/><path class="cls-1" d="M254.4,241.94q-1,0-1.89-.06a5,5,0,0,1,.74-10c.79.06,18.4,1,25.23-17.28a5,5,0,0,1,9.37,3.5A35.78,35.78,0,0,1,254.4,241.94Z"/><path class="cls-1" d="M372.75,241.94a35.78,35.78,0,0,1-33.45-23.82,5,5,0,0,1,9.37-3.5c6.83,18.27,24.49,17.34,25.23,17.28a5,5,0,0,1,.74,10Q373.76,241.94,372.75,241.94Z"/><path class="cls-1" d="M315.22,241.94q-1,0-1.89-.06a5,5,0,0,1,.76-10c.73,0,18.38,1,25.21-17.28a5,5,0,0,1,9.37,3.5A35.78,35.78,0,0,1,315.22,241.94Z"/><path class="cls-1" d="M433.3,241.94a35.78,35.78,0,0,1-33.45-23.82,5,5,0,0,1,9.37-3.5c6.83,18.27,24.48,17.34,25.23,17.28a5,5,0,0,1,.74,10Q434.31,241.94,433.3,241.94Z"/><path class="cls-1" d="M375.77,241.94q-1,0-1.89-.06a5,5,0,0,1,.74-10c.79.06,18.4,1,25.23-17.28a5,5,0,1,1,9.36,3.5A35.76,35.76,0,0,1,375.77,241.94Z"/><path class="cls-1" d="M493.84,241.94a35.77,35.77,0,0,1-33.44-23.82,5,5,0,1,1,9.36-3.5c6.91,18.47,25,17.3,25.21,17.28a5,5,0,0,1,.76,10C495.15,241.92,494.51,241.94,493.84,241.94Z"/><path class="cls-1" d="M436.31,241.94q-1,0-1.89-.06a5,5,0,0,1,.77-10c.72,0,18.37,1,25.21-17.28a5,5,0,1,1,9.36,3.5A35.78,35.78,0,0,1,436.31,241.94Z"/><path class="cls-1" d="M312.07,276.53a35.78,35.78,0,0,1-33.45-23.82A5,5,0,1,1,288,249.2c6.84,18.27,24.49,17.33,25.24,17.28a5,5,0,0,1,.74,10C313.37,276.5,312.73,276.53,312.07,276.53Z"/><path class="cls-1" d="M254.54,276.53c-.67,0-1.31,0-1.89-.07a5,5,0,1,1,.76-10c.73,0,18.37,1,25.21-17.29a5,5,0,1,1,9.36,3.51A35.79,35.79,0,0,1,254.54,276.53Z"/><path class="cls-1" d="M372.61,276.53a35.76,35.76,0,0,1-33.44-23.82,5,5,0,1,1,9.36-3.51c6.91,18.47,25,17.31,25.21,17.29a5,5,0,1,1,.76,10C373.92,276.5,373.28,276.53,372.61,276.53Z"/><path class="cls-1" d="M315.08,276.53c-.67,0-1.3,0-1.89-.07a5,5,0,0,1,.74-10c.79,0,18.41,1,25.24-17.28a5,5,0,1,1,9.36,3.51A35.8,35.8,0,0,1,315.08,276.53Z"/><path class="cls-1" d="M433.43,276.53A35.77,35.77,0,0,1,400,252.71a5,5,0,1,1,9.36-3.51c6.91,18.47,25,17.31,25.21,17.29a5,5,0,1,1,.76,10C434.74,276.5,434.1,276.53,433.43,276.53Z"/><path class="cls-1" d="M375.9,276.53c-.67,0-1.3,0-1.89-.07a5,5,0,1,1,.77-10c.72,0,18.37,1,25.21-17.29a5,5,0,1,1,9.36,3.51A35.79,35.79,0,0,1,375.9,276.53Z"/><path class="cls-1" d="M493.09,184.89H210.68a5,5,0,0,1,0-10H493.09a5,5,0,1,1,0,10Z"/><path class="cls-1" d="M247.36,206.31a5,5,0,0,1-5-5v-1.69a5,5,0,0,1,10,0v1.69A5,5,0,0,1,247.36,206.31Z"/><path class="cls-1" d="M288.72,206.31a5,5,0,0,1-5-5v-1.69a5,5,0,0,1,10,0v1.69A5,5,0,0,1,288.72,206.31Z"/><path class="cls-1" d="M330.08,206.31a5,5,0,0,1-5-5v-1.69a5,5,0,0,1,10,0v1.69A5,5,0,0,1,330.08,206.31Z"/><path class="cls-1" d="M371.44,206.31a5,5,0,0,1-5-5v-1.69a5,5,0,1,1,10,0v1.69A5,5,0,0,1,371.44,206.31Z"/><path class="cls-1" d="M412.8,206.31a5,5,0,0,1-5-5v-1.69a5,5,0,0,1,10,0v1.69A5,5,0,0,1,412.8,206.31Z"/><path class="cls-1" d="M454.16,206.31a5,5,0,0,1-5-5v-1.69a5,5,0,1,1,10,0v1.69A5,5,0,0,1,454.16,206.31Z"/><path class="cls-1" d="M272,97a5,5,0,0,1-5-5V71a5,5,0,0,1,5-5H432.5a5,5,0,0,1,5,5V91.5a5,5,0,0,1-10,0V76H277V92A5,5,0,0,1,272,97Z"/><path class="cls-1" d="M315.3,76a5,5,0,0,1-5-5V36.5H288.67V71a5,5,0,0,1-10,0V31.5a5,5,0,0,1,5-5H315.3a5,5,0,0,1,5,5V71A5,5,0,0,1,315.3,76Z"/><path class="cls-1" d="M368,76a5,5,0,0,1-5-5V36.5H341.39V71a5,5,0,0,1-10,0V31.5a5,5,0,0,1,5-5H368a5,5,0,0,1,5,5V71A5,5,0,0,1,368,76Z"/><path class="cls-1" d="M420.67,76a5,5,0,0,1-5-5V36.5H394V71a5,5,0,0,1-10,0V31.5a5,5,0,0,1,5-5h31.64a5,5,0,0,1,5,5V71A5,5,0,0,1,420.67,76Z"/><path class="cls-1" d="M315.3,53.76H283.67a5,5,0,0,1,0-10H315.3a5,5,0,0,1,0,10Z"/><path class="cls-1" d="M368,53.76H336.39a5,5,0,0,1,0-10H368a5,5,0,0,1,0,10Z"/><path class="cls-1" d="M420.67,53.76H389a5,5,0,0,1,0-10h31.64a5,5,0,0,1,0,10Z"/><path class="cls-1" d="M396.79,125.75a18.87,18.87,0,1,1,18.86-18.87A18.89,18.89,0,0,1,396.79,125.75Zm0-27.73a8.87,8.87,0,1,0,8.86,8.86A8.87,8.87,0,0,0,396.79,98Z"/><path class="cls-1" d="M307.28,125.75a18.87,18.87,0,1,1,18.86-18.87A18.89,18.89,0,0,1,307.28,125.75Zm0-27.73a8.87,8.87,0,1,0,8.86,8.86A8.88,8.88,0,0,0,307.28,98Z"/><path class="cls-1" d="M138.07,462.48a10.08,10.08,0,0,1-10.46-9.43c-6.25-27.2-24.91-54.84-31.61-63.23-10.49-13.15-15.58-25.44-15.58-37.58a52.75,52.75,0,0,1,6.25-24.95,57.7,57.7,0,0,1,51.19-30c31.68,0,57.46,24.65,57.46,54.94,0,15.5-7.58,27.38-15,37l-.21.26h0c-5.75,6.69-26.17,38.44-31.93,63.59a10,10,0,0,1-8.77,9.25A5,5,0,0,1,138.07,462.48Zm-.48-10.2,0,.12a3.85,3.85,0,0,0,.57,0,.36.36,0,0,1,0-.1,2.51,2.51,0,0,1,.13-1c5.92-26.55,26.95-59.83,34.09-68.23,6.38-8.23,12.89-18.33,12.89-30.81,0-24.78-21.29-44.94-47.46-44.94A49,49,0,0,0,111,315.17l-.11.06A49.27,49.27,0,0,0,95.51,332h0a42.83,42.83,0,0,0-5.09,20.27c0,9.93,4.25,19.88,13.39,31.35,7.13,8.93,27.09,38.5,33.65,67.68A3,3,0,0,1,137.59,452.28Zm0,.09Z"/><path class="cls-1" d="M136.57,370.65a19.23,19.23,0,1,1,19.22-19.23A19.26,19.26,0,0,1,136.57,370.65Zm0-28.45a9.23,9.23,0,1,0,9.22,9.22A9.23,9.23,0,0,0,136.57,342.2Z"/></svg>