<?xml version="1.0" ?><svg viewBox="0 0 512 512" xmlns="http://www.w3.org/2000/svg"><defs><style>.cls-1{fill:#3f456b;}</style></defs><title/><g id="Lines"><path class="cls-1" d="M430.69,499H80.31A37.36,37.36,0,0,1,43,461.69V47.31A37.36,37.36,0,0,1,80.31,10H430.69A37.36,37.36,0,0,1,468,47.31V461.69A37.36,37.36,0,0,1,430.69,499ZM80.31,20A27.34,27.34,0,0,0,53,47.31V461.69A27.34,27.34,0,0,0,80.31,489H430.69A27.34,27.34,0,0,0,458,461.69V47.31A27.34,27.34,0,0,0,430.69,20Z"/><path class="cls-1" d="M255.25,430.5c-73.27,0-132.88-59.61-132.88-132.88S182,164.75,255.25,164.75s132.87,59.61,132.87,132.87S328.52,430.5,255.25,430.5Zm0-255.75A122.88,122.88,0,1,0,378.12,297.62,123,123,0,0,0,255.25,174.75Z"/><path class="cls-1" d="M255.25,455c-86.78,0-157.38-70.6-157.38-157.38s70.6-157.37,157.38-157.37,157.37,70.6,157.37,157.37S342,455,255.25,455Zm0-304.75c-81.27,0-147.38,66.11-147.38,147.37S174,445,255.25,445s147.37-66.11,147.37-147.38S336.51,150.25,255.25,150.25Z"/><path class="cls-1" d="M463,115H48a5,5,0,0,1,0-10H463a5,5,0,0,1,0,10Z"/><path class="cls-1" d="M255.5,90.47a29.09,29.09,0,1,1,29.09-29.08A29.12,29.12,0,0,1,255.5,90.47Zm0-48.17a19.09,19.09,0,1,0,19.09,19.09A19.11,19.11,0,0,0,255.5,42.3Z"/><path class="cls-1" d="M176,113a5,5,0,0,1-5-5V15a5,5,0,0,1,10,0v93A5,5,0,0,1,176,113Z"/><path class="cls-1" d="M317.35,321.64c-19.31,0-42-4.7-64.86-19.85-25.57-16.93-53.83-22.12-84-15.45a122.88,122.88,0,0,0-38.3,15.42,5,5,0,1,1-5.62-8.27c.68-.46,16.85-11.32,41.37-16.82,22.73-5.11,57.16-6.34,92.08,16.79,25.57,16.92,53.83,22.12,84,15.44a122.31,122.31,0,0,0,38.31-15.42,5,5,0,0,1,5.61,8.28c-.67.46-16.85,11.32-41.37,16.82A124.41,124.41,0,0,1,317.35,321.64Z"/><path class="cls-1" d="M431,85H347a5,5,0,0,1-5-5V41a5,5,0,0,1,5-5h84a5,5,0,0,1,5,5V80A5,5,0,0,1,431,85ZM352,75h74V46H352Z"/><path class="cls-1" d="M310,51a5,5,0,0,1,5-5h0a5,5,0,0,1,5,5h0a5,5,0,0,1-5,5h0A5,5,0,0,1,310,51Z"/><path class="cls-1" d="M310,73a5,5,0,0,1,5-5h0a5,5,0,0,1,5,5h0a5,5,0,0,1-5,5h0A5,5,0,0,1,310,73Z"/></g><g id="Outline"><path class="cls-1" d="M133,67H91a5,5,0,0,1,0-10h42a5,5,0,0,1,0,10Z"/><path class="cls-1" d="M350.5,344.67h-1a5,5,0,0,1,0-10h1a5,5,0,0,1,0,10Z"/><path class="cls-1" d="M334.5,375.33h-1a5,5,0,0,1,0-10h1a5,5,0,0,1,0,10Z"/><path class="cls-1" d="M319.58,344.67h-1a5,5,0,0,1,0-10h1a5,5,0,0,1,0,10Z"/><path class="cls-1" d="M303.58,375.33h-1a5,5,0,0,1,0-10h1a5,5,0,0,1,0,10Z"/><path class="cls-1" d="M288.67,344.67h-1a5,5,0,0,1,0-10h1a5,5,0,0,1,0,10Z"/><path class="cls-1" d="M272.67,375.33h-1a5,5,0,0,1,0-10h1a5,5,0,0,1,0,10Z"/><path class="cls-1" d="M288.67,406h-1a5,5,0,0,1,0-10h1a5,5,0,1,1,0,10Z"/><path class="cls-1" d="M257.75,344.67h-1a5,5,0,0,1,0-10h1a5,5,0,0,1,0,10Z"/><path class="cls-1" d="M241.75,375.33h-1a5,5,0,1,1,0-10h1a5,5,0,0,1,0,10Z"/><path class="cls-1" d="M257.75,406h-1a5,5,0,0,1,0-10h1a5,5,0,0,1,0,10Z"/><path class="cls-1" d="M241.75,314h-1a5,5,0,0,1,0-10h1a5,5,0,0,1,0,10Z"/><path class="cls-1" d="M226.83,344.67h-1a5,5,0,1,1,0-10h1a5,5,0,0,1,0,10Z"/><path class="cls-1" d="M210.83,375.33h-1a5,5,0,1,1,0-10h1a5,5,0,0,1,0,10Z"/><path class="cls-1" d="M226.83,406h-1a5,5,0,0,1,0-10h1a5,5,0,1,1,0,10Z"/><path class="cls-1" d="M210.83,314h-1a5,5,0,0,1,0-10h1a5,5,0,1,1,0,10Z"/><path class="cls-1" d="M195.92,344.67h-1a5,5,0,0,1,0-10h1a5,5,0,1,1,0,10Z"/><path class="cls-1" d="M179.92,375.33h-1a5,5,0,0,1,0-10h1a5,5,0,1,1,0,10Z"/><path class="cls-1" d="M179.92,314h-1a5,5,0,1,1,0-10h1a5,5,0,0,1,0,10Z"/><path class="cls-1" d="M165,344.67h-1a5,5,0,0,1,0-10h1a5,5,0,0,1,0,10Z"/><path class="cls-1" d="M149,314h-1a5,5,0,0,1,0-10h1a5,5,0,0,1,0,10Z"/></g></svg>