<?xml version="1.0" ?><svg viewBox="0 0 512 512" xmlns="http://www.w3.org/2000/svg"><defs><style>.cls-1{fill:#3f456b;}</style></defs><title/><g id="Lines"><path class="cls-1" d="M456.17,445.43H16.5a5,5,0,0,1,0-10H456.17a35,35,0,0,0,35-35V385.79c0-29.67-23-65.52-60-93.55-40.74-30.84-92.86-48.53-143-48.53H16.5a5,5,0,0,1,0-10H288.16c52.27,0,106.59,18.42,149,50.55,40.07,30.34,64,68.29,64,101.53v14.64A45,45,0,0,1,456.17,445.43Z"/><path class="cls-1" d="M63.22,499.71a36.5,36.5,0,0,1-25.72-62.4,5,5,0,0,1,7,7.1,26.5,26.5,0,1,0,37.35,0,5,5,0,0,1,7-7.1,36.51,36.51,0,0,1-25.73,62.4Z"/><path class="cls-1" d="M63.22,478.1a14.89,14.89,0,1,1,14.89-14.89A14.9,14.9,0,0,1,63.22,478.1Zm0-19.78a4.89,4.89,0,1,0,4.89,4.89A4.89,4.89,0,0,0,63.22,458.32Z"/><path class="cls-1" d="M126.22,499.71a36.5,36.5,0,0,1-25.2-62.9,5,5,0,1,1,6.91,7.23,26.5,26.5,0,1,0,44.8,19.17c0-7.26-2.79-13.74-8.29-19.25a5,5,0,1,1,7.08-7.06c7.44,7.46,11.21,16.31,11.21,26.31A36.55,36.55,0,0,1,126.22,499.71Z"/><path class="cls-1" d="M126.22,478.1a14.89,14.89,0,1,1,14.89-14.89A14.91,14.91,0,0,1,126.22,478.1Zm0-19.78a4.89,4.89,0,1,0,4.89,4.89A4.89,4.89,0,0,0,126.22,458.32Z"/><path class="cls-1" d="M353.33,499.71a36.5,36.5,0,0,1-25.53-62.59,5,5,0,0,1,7,7.15,26.5,26.5,0,1,0,36.83-.23,5,5,0,1,1,6.91-7.23,36.5,36.5,0,0,1-25.21,62.9Z"/><path class="cls-1" d="M353.33,478.1a14.89,14.89,0,1,1,14.89-14.89A14.9,14.9,0,0,1,353.33,478.1Zm0-19.78a4.89,4.89,0,1,0,4.89,4.89A4.89,4.89,0,0,0,353.33,458.32Z"/><path class="cls-1" d="M416.33,499.71a36.5,36.5,0,0,1-25.81-62.31,5,5,0,0,1,7.07,7.07,26.5,26.5,0,1,0,45.24,18.74c0-7.25-4-15-7.73-19.07a5,5,0,0,1,7.41-6.72c4.76,5.25,10.32,15.16,10.32,25.79A36.54,36.54,0,0,1,416.33,499.71Z"/><path class="cls-1" d="M416.33,478.1a14.89,14.89,0,1,1,14.89-14.89A14.9,14.9,0,0,1,416.33,478.1Zm0-19.78a4.89,4.89,0,1,0,4.89,4.89A4.89,4.89,0,0,0,416.33,458.32Z"/><path class="cls-1" d="M321.83,472.21H157.73a5,5,0,1,1,0-10h164.1a5,5,0,0,1,0,10Z"/><path class="cls-1" d="M488.16,358H320.79c-7.44,0-13.16-2.18-17-6.47a19.62,19.62,0,0,1-4.6-14.09V289c0-6.05,1.87-10.94,5.56-14.55,5.73-5.6,13.55-5.71,14.74-5.7h92.33a5,5,0,0,1,0,10H319.34s-4.73,0-7.63,2.89c-1.69,1.68-2.51,4.09-2.51,7.36v48.58a5.44,5.44,0,0,1,0,.57h0a9.79,9.79,0,0,0,2.14,6.7c1.86,2,5.05,3.07,9.48,3.07H488.16a5,5,0,0,1,0,10Z"/><path class="cls-1" d="M262.16,358.79h-204a15,15,0,0,1-15-15v-60a15,15,0,0,1,15-15h204a15,15,0,0,1,15,15v60A15,15,0,0,1,262.16,358.79Zm-204-80a5,5,0,0,0-5,5v60a5,5,0,0,0,5,5h204a5,5,0,0,0,5-5v-60a5,5,0,0,0-5-5Z"/><path class="cls-1" d="M494.8,414.56H469.19c-6.27,0-11.38-5.73-11.38-12.77V387.68c0-7,5.11-12.77,11.38-12.77H494.8a5,5,0,0,1,0,10H469.19c-.36,0-1.38.95-1.38,2.77v14.11c0,1.82,1,2.77,1.38,2.77H494.8a5,5,0,0,1,0,10Z"/><path class="cls-1" d="M122.83,358a5,5,0,0,1-5-5V273.79a5,5,0,0,1,10,0V353A5,5,0,0,1,122.83,358Z"/><path class="cls-1" d="M197.49,358a5,5,0,0,1-5-5V273.79a5,5,0,0,1,10,0V353A5,5,0,0,1,197.49,358Z"/><path class="cls-1" d="M15.83,499.75a5,5,0,0,1-5-5V217.2a110,110,0,0,1,219.9,0v21.51a5,5,0,0,1-10,0V217.2a99.95,99.95,0,0,0-199.9,0V494.75A5,5,0,0,1,15.83,499.75Z"/><path class="cls-1" d="M495.81,499.75H16.54a5,5,0,0,1,0-10H495.81a5,5,0,0,1,0,10Z"/><path class="cls-1" d="M225.73,499.19a5,5,0,0,1-5-5V467.57a5,5,0,0,1,10,0v26.62A5,5,0,0,1,225.73,499.19Z"/><path class="cls-1" d="M38.94,154.65A5,5,0,0,1,34.5,152a45.23,45.23,0,0,1,28-64.28c-.09-1.07-.14-2.15-.14-3.23a35.23,35.23,0,0,1,57-27.69A61.54,61.54,0,0,1,234.44,95.84,41.65,41.65,0,0,1,261.79,124a5,5,0,1,1-9.61,2.74,31.54,31.54,0,0,0-24.53-22.25,5,5,0,0,1-4-6.17,51.54,51.54,0,0,0-98.08-31.2,5,5,0,0,1-8.54,1.4A25.22,25.22,0,0,0,73,90.35,5,5,0,0,1,69,96.46a35.23,35.23,0,0,0-25.61,50.9,5,5,0,0,1-4.44,7.29Z"/><path class="cls-1" d="M497.62,245a5,5,0,0,1-3.5-1.42c-38.54-37.68-90.33-46.7-138.54-24.14-13.93,6.53-26.07,15.45-37.31,24a5,5,0,1,1-6.07-7.94c11.16-8.53,24.31-18.2,39.14-25.14,52.14-24.41,108.13-14.68,149.77,26a5,5,0,0,1-3.49,8.58Z"/><path class="cls-1" d="M334.62,230a5,5,0,0,1-3.28-1.22c-.53-.46-52.92-45.83-79.15-60.41-17.51-9.73-34.49-14.72-51.91-15.26a5,5,0,0,1,.16-10h.15c19,.59,37.52,6,56.46,16.52,27.14,15.08,78.67,59.7,80.85,61.59a5,5,0,0,1-3.28,8.78Z"/><path class="cls-1" d="M497.62,164a5,5,0,0,1-4.52-2.87c-.63-1.3-16-32.19-54.35-23.26-27.27,6.34-43-8.22-58.21-22.3-3.86-3.58-7.86-7.28-12.07-10.68C346,86.65,319,87.75,288.39,108.16c-24.67,16.45-55.9,48-56.21,48.35a5,5,0,1,1-7.12-7c1.3-1.32,32.25-32.63,57.78-49.65C306.68,84,342,70.58,374.76,97.11c4.47,3.62,8.59,7.43,12.57,11.12,15.11,14,27.05,25,49.16,19.9,24.17-5.62,40.74,2.46,50.39,10.23a58.24,58.24,0,0,1,15.26,18.51,5,5,0,0,1-2.39,6.65A4.9,4.9,0,0,1,497.62,164Z"/></g><g id="Outline"><path class="cls-1" d="M288,412a5,5,0,0,1-5-5V386.29a5,5,0,1,1,10,0V407A5,5,0,0,1,288,412Z"/><path class="cls-1" d="M309.41,412a5,5,0,0,1-5-5V386.29a5,5,0,0,1,10,0V407A5,5,0,0,1,309.41,412Z"/><path class="cls-1" d="M331.12,412a5,5,0,0,1-5-5V386.29a5,5,0,0,1,10,0V407A5,5,0,0,1,331.12,412Z"/><path class="cls-1" d="M352.16,412a5,5,0,0,1-5-5V386.29a5,5,0,0,1,10,0V407A5,5,0,0,1,352.16,412Z"/><path class="cls-1" d="M266.88,412a5,5,0,0,1-5-5V386.29a5,5,0,0,1,10,0V407A5,5,0,0,1,266.88,412Z"/><path class="cls-1" d="M245.17,412a5,5,0,0,1-5-5V386.29a5,5,0,0,1,10,0V407A5,5,0,0,1,245.17,412Z"/><path class="cls-1" d="M223.91,412a5,5,0,0,1-5-5V386.29a5,5,0,0,1,10,0V407A5,5,0,0,1,223.91,412Z"/><path class="cls-1" d="M454.69,61.68l-.45,0a5,5,0,0,1-4.54-4.6C448.6,42.8,433.11,39.92,433,39.89A5,5,0,1,1,434.68,30c6,1.05,16.06,5.33,21.45,14.6,4.91-5,12.75-9,24.31-7.37a5,5,0,0,1-1.38,9.9c-15.93-2.23-19.4,10.24-19.54,10.78A5,5,0,0,1,454.69,61.68Z"/><path class="cls-1" d="M441.33,249.89a5,5,0,0,1-3.38-1.32c-8.39-7.69-17.41-.67-18.41.15a5,5,0,0,1-6.44-7.65c5.66-4.79,19.55-10.92,31.61.13a5,5,0,0,1-3.38,8.69Z"/><path class="cls-1" d="M350.62,171a5,5,0,0,1-3.38-1.31c-8.4-7.7-17.41-.68-18.41.15a5,5,0,0,1-6.44-7.66c5.66-4.78,19.55-10.92,31.61.13a5,5,0,0,1-3.38,8.69Z"/><path class="cls-1" d="M469.62,188a5,5,0,0,1-3.38-1.31c-8.4-7.7-17.41-.68-18.41.15a5,5,0,0,1-6.44-7.66c5.66-4.78,19.55-10.92,31.61.13a5,5,0,0,1-3.38,8.69Z"/></g></svg>