<?xml version="1.0" ?><svg viewBox="0 0 512 512" xmlns="http://www.w3.org/2000/svg"><defs><style>.cls-1{fill:#3f456b;}</style></defs><title/><g id="Lines"><path class="cls-1" d="M496,139H401.26c-8.46,0-15.26-2.62-20.23-7.79-8.11-8.43-8.07-20.65-8-22.09V17h10v92.39c0,.07-.22,9.27,5.28,14.93,3,3.11,7.38,4.68,13,4.68H496Z"/><path class="cls-1" d="M170.88,468.75l-.51,0c-10.6-1.07-36.06-6.59-43.55-34.59a5,5,0,1,1,9.66-2.58c2.43,9.09,10.2,24.72,34.9,27.22a5,5,0,0,1-.5,10Z"/><path class="cls-1" d="M469.68,469H230a5,5,0,0,1,0-10h239.7c11.75,0,21.32-10.6,21.32-23.62V136.62c0-11.37-10.55-24.31-14.62-28.33-.67-.68-62.23-63.27-75-76.09A38.69,38.69,0,0,0,375.68,21H156.05A23.34,23.34,0,0,0,133,44V243a5,5,0,0,1-10,0V44c0-17.89,15.13-33,33.05-33H375.59a48.85,48.85,0,0,1,32.82,14.13c12.84,12.85,74.43,75.47,75,76.1S501,118.8,501,136.62V435.38C501,453.92,487,469,469.68,469Z"/><path class="cls-1" d="M128,399a5,5,0,0,1-5-5V354a5,5,0,0,1,10,0v40A5,5,0,0,1,128,399Z"/><path class="cls-1" d="M128,320a5,5,0,0,1-5-5V280a5,5,0,0,1,10,0v35A5,5,0,0,1,128,320Z"/><path class="cls-1" d="M200.41,499.57A34.57,34.57,0,1,1,235,465,34.6,34.6,0,0,1,200.41,499.57Zm0-59.13A24.57,24.57,0,1,0,225,465,24.59,24.59,0,0,0,200.41,440.44Z"/><path class="cls-1" d="M130.05,437.18a21.72,21.72,0,0,1-15.36-37.09,121.23,121.23,0,0,1,171.45,0,21.72,21.72,0,1,1-30.72,30.72,77.79,77.79,0,0,0-110,0A21.59,21.59,0,0,1,130.05,437.18Zm70.36-62.6a110.5,110.5,0,0,0-78.65,32.58,11.73,11.73,0,0,0,16.58,16.59,87.78,87.78,0,0,1,124.15,0,11.72,11.72,0,0,0,16.58-16.58A110.54,110.54,0,0,0,200.41,374.58Z"/><path class="cls-1" d="M318.88,389.09h0a21.58,21.58,0,0,1-15.37-6.37c-56.84-56.84-149.34-56.84-206.19,0A21.72,21.72,0,1,1,66.6,352a189.47,189.47,0,0,1,267.64,0,21.74,21.74,0,0,1-15.36,37.09Zm-118.46-59a155.3,155.3,0,0,1,110.16,45.56,11.72,11.72,0,1,0,16.58-16.58,179.46,179.46,0,0,0-253.49,0,11.72,11.72,0,1,0,16.58,16.58A155.32,155.32,0,0,1,200.42,330.09Z"/><path class="cls-1" d="M367.27,340.69a21.57,21.57,0,0,1-15.36-6.37c-83.53-83.53-219.46-83.53-303,0a21.76,21.76,0,0,1-30.73,0,21.12,21.12,0,0,1,0-30.18c48.33-48.33,113-74.94,182.22-74.94h0c69.19,0,133.9,26.61,182.23,74.94a21.33,21.33,0,0,1-15.37,36.55Zm-166.86-79A223.52,223.52,0,0,1,359,327.25a11.64,11.64,0,0,0,8.29,3.44,11.35,11.35,0,0,0,8.29-19.48c-46.43-46.44-108.64-72-175.15-72s-128.71,25.57-175.15,72a11.1,11.1,0,0,0,0,16,11.75,11.75,0,0,0,16.59,0A223.55,223.55,0,0,1,200.41,261.68Z"/></g><g id="Outline"><path class="cls-1" d="M330.33,107H278a5,5,0,0,1,0-10h52.33a5,5,0,0,1,0,10Z"/><path class="cls-1" d="M330.33,155H193a5,5,0,0,1,0-10H330.33a5,5,0,0,1,0,10Z"/><path class="cls-1" d="M437,200H193a5,5,0,0,1,0-10H437a5,5,0,0,1,0,10Z"/><path class="cls-1" d="M437,248H337a5,5,0,0,1,0-10H437a5,5,0,0,1,0,10Z"/><path class="cls-1" d="M437,293H401a5,5,0,0,1,0-10h36a5,5,0,0,1,0,10Z"/><path class="cls-1" d="M437,341H401a5,5,0,0,1,0-10h36a5,5,0,0,1,0,10Z"/><path class="cls-1" d="M437,387H401a5,5,0,0,1,0-10h36a5,5,0,0,1,0,10Z"/></g></svg>