<?xml version="1.0" ?><svg id="Lines" viewBox="0 0 512 512" xmlns="http://www.w3.org/2000/svg"><defs><style>.cls-1{fill:#3f456b;}</style></defs><title/><path class="cls-1" d="M198.08,495.13A25.33,25.33,0,0,1,188,493.05L50.7,433.88A25.59,25.59,0,0,1,35.44,413.4L18,264.91a25.61,25.61,0,0,1,10.11-23.46L148,152.14a25.62,25.62,0,0,1,25.37-3L310.7,208.34h0A25.62,25.62,0,0,1,326,228.83l17.4,148.48a25.62,25.62,0,0,1-10.11,23.46L213.36,490.08A25.6,25.6,0,0,1,198.08,495.13Zm-34.77-338a15.62,15.62,0,0,0-9.3,3.07L34.12,249.47A15.58,15.58,0,0,0,28,263.75l17.4,148.48a15.58,15.58,0,0,0,9.28,12.47l137.29,59.17a15.58,15.58,0,0,0,15.44-1.81l119.89-89.31a15.6,15.6,0,0,0,6.16-14.27L316,230a15.6,15.6,0,0,0-9.29-12.46h0L169.45,158.35A15.66,15.66,0,0,0,163.31,157.09Z"/><path class="cls-1" d="M200.53,492.82a5,5,0,0,1-5-4.41L176.25,323.53a5,5,0,0,1,9.93-1.16L205.5,487.24a5,5,0,0,1-4.38,5.55A5.83,5.83,0,0,1,200.53,492.82Z"/><path class="cls-1" d="M181.22,328a5,5,0,0,1-3-9L315.48,218.27a5,5,0,1,1,5.91,8.06L184.18,327A5,5,0,0,1,181.22,328Z"/><path class="cls-1" d="M180.22,328.07a4.92,4.92,0,0,1-1.94-.4L21.51,261.47a5,5,0,0,1,3.89-9.21l156.77,66.2a5,5,0,0,1-1.95,9.61Z"/><path class="cls-1" d="M167.52,254.15c-15,0-26.92-7.29-28.17-17.91-1.39-11.92,11.25-22.87,28.79-24.92,7.93-.93,15.7.14,21.86,3,6.95,3.25,11.18,8.42,11.9,14.56h0c.72,6.13-2.2,12.14-8.21,16.91-5.33,4.23-12.64,7.07-20.57,8A48.84,48.84,0,0,1,167.52,254.15ZM173.63,221a37.23,37.23,0,0,0-4.33.25c-12.58,1.48-20.64,8.47-20,13.82s10.09,10.29,22.66,8.82c6-.71,11.68-2.86,15.52-5.9,3.15-2.51,4.79-5.39,4.5-7.92h0c-.3-2.53-2.56-5-6.21-6.67A29.26,29.26,0,0,0,173.63,221Z"/><path class="cls-1" d="M76.28,365.33c-10.92,0-21.15-10.92-23.83-25.95-1.65-9.27,0-18.45,4.51-24.56a17,17,0,0,1,11.65-7.2c11.7-1.51,23.08,9.82,25.93,25.82,1.66,9.27,0,18.45-4.5,24.55a17.09,17.09,0,0,1-11.65,7.2A16.62,16.62,0,0,1,76.28,365.33Zm-5.52-47.85a6.36,6.36,0,0,0-.87.06,7.19,7.19,0,0,0-4.87,3.2c-2.84,3.88-3.89,10.35-2.72,16.88,1.61,9.05,8.09,18.53,14.8,17.65A7.19,7.19,0,0,0,82,352.08c2.85-3.89,3.89-10.36,2.73-16.89C83.15,326.53,77.16,317.48,70.76,317.48Z"/><path class="cls-1" d="M152.29,437.32c-10.93,0-21.15-10.92-23.83-25.95-1.66-9.27,0-18.45,4.5-24.55a17,17,0,0,1,11.65-7.21h0c11.69-1.52,23.08,9.82,25.94,25.82,1.65,9.27,0,18.45-4.51,24.55a17,17,0,0,1-11.65,7.2A16.46,16.46,0,0,1,152.29,437.32Zm-5.53-47.85a6.33,6.33,0,0,0-.86.06h0a7.22,7.22,0,0,0-4.88,3.2c-2.84,3.88-3.88,10.35-2.72,16.88,1.61,9.05,8.09,18.53,14.81,17.66a7.23,7.23,0,0,0,4.87-3.2c2.84-3.88,3.89-10.35,2.72-16.89C159.16,398.52,153.16,389.47,146.76,389.47Zm-1.51-4.9h0Z"/><path class="cls-1" d="M288.61,327.37a17.72,17.72,0,0,1-11.32-4.27c-5.82-4.83-9.47-12.94-10-22.26-.92-16,7.58-29.66,19.35-31.17h0A17.4,17.4,0,0,1,300,273.81c5.82,4.83,9.47,12.95,10,22.26.92,16-7.58,29.66-19.35,31.17A15.94,15.94,0,0,1,288.61,327.37Zm.12-47.83a7.7,7.7,0,0,0-.83,0h0c-6.26.8-11.23,10.46-10.63,20.67.37,6.46,2.77,12.12,6.41,15.14a7.31,7.31,0,0,0,5.72,1.92c6.26-.8,11.23-10.46,10.64-20.67-.38-6.46-2.78-12.12-6.42-15.14A7.59,7.59,0,0,0,288.73,279.54Zm-1.46-4.91h0Z"/><path class="cls-1" d="M232,368.24A17.72,17.72,0,0,1,220.66,364c-5.82-4.83-9.47-13-10-22.26-.92-16,7.58-29.66,19.36-31.17h0a17.38,17.38,0,0,1,13.37,4.14c5.82,4.83,9.47,12.94,10,22.26.93,16-7.57,29.66-19.35,31.17A15.83,15.83,0,0,1,232,368.24Zm-.71-47.78c-6.25.8-11.23,10.46-10.63,20.67.37,6.46,2.77,12.12,6.41,15.14a7.35,7.35,0,0,0,5.72,1.92c6.26-.8,11.23-10.46,10.64-20.67-.38-6.46-2.77-12.12-6.41-15.14a7.35,7.35,0,0,0-5.73-1.92Zm-.63-5h0Z"/><path class="cls-1" d="M296.76,396.9a17.72,17.72,0,0,1-11.32-4.28c-5.82-4.83-9.47-12.94-10-22.26-.93-16,7.57-29.66,19.35-31.16h0a17.41,17.41,0,0,1,13.38,4.14c5.82,4.83,9.47,12.94,10,22.26.92,16-7.58,29.66-19.36,31.16A15.69,15.69,0,0,1,296.76,396.9Zm-.71-47.79c-6.26.81-11.23,10.46-10.64,20.67.38,6.47,2.77,12.13,6.41,15.15a7.34,7.34,0,0,0,5.73,1.91c6.25-.8,11.23-10.45,10.63-20.66-.37-6.47-2.77-12.13-6.41-15.15a7.39,7.39,0,0,0-5.72-1.92Zm-.63-4.95h0Z"/><path class="cls-1" d="M240.13,437.76a17.72,17.72,0,0,1-11.32-4.27c-5.82-4.83-9.47-12.94-10-22.26-.92-16,7.58-29.66,19.35-31.17h0a17.41,17.41,0,0,1,13.38,4.15c5.82,4.83,9.47,12.94,10,22.26.92,16-7.58,29.66-19.35,31.16A15.94,15.94,0,0,1,240.13,437.76Zm.12-47.83a7.7,7.7,0,0,0-.83.05h0c-6.26.8-11.23,10.46-10.64,20.67.38,6.47,2.78,12.13,6.42,15.15a7.34,7.34,0,0,0,5.72,1.91c6.26-.8,11.23-10.46,10.63-20.67-.37-6.46-2.77-12.12-6.41-15.14A7.61,7.61,0,0,0,240.25,389.93ZM238.79,385h0Z"/><path class="cls-1" d="M335.27,347.59a5,5,0,0,1-1.24-9.85L442.15,310a15.58,15.58,0,0,0,11.11-10.87l40.22-144a15.63,15.63,0,0,0-3.87-15.06L385,33.25a15.56,15.56,0,0,0-15-4.18L225.25,66.23a15.58,15.58,0,0,0-11.11,10.88l-23.39,83.74a5,5,0,1,1-9.63-2.7l23.39-83.73a25.61,25.61,0,0,1,18.25-17.88L367.57,19.38a25.61,25.61,0,0,1,24.6,6.87L496.76,133.08a25.64,25.64,0,0,1,6.35,24.74l-40.22,144a25.61,25.61,0,0,1-18.26,17.87L336.51,347.43A5.27,5.27,0,0,1,335.27,347.59Z"/><path class="cls-1" d="M321.43,238.15a5.2,5.2,0,0,1-1.34-.18,5,5,0,0,1-3.47-6.16l12.05-43.14a5,5,0,0,1,9.63,2.69L326.25,234.5A5,5,0,0,1,321.43,238.15Z"/><path class="cls-1" d="M333.48,195a5,5,0,0,1-1.21-9.85l165.15-41.09a5,5,0,1,1,2.41,9.71L334.69,194.86A4.61,4.61,0,0,1,333.48,195Z"/><path class="cls-1" d="M332.52,194.74a5,5,0,0,1-3.55-1.47L209,72.55a5,5,0,1,1,7.09-7L336.06,186.22a5,5,0,0,1-3.54,8.52Z"/><path class="cls-1" d="M363.16,125.75a42.06,42.06,0,0,1-11.28-1.59c-15.78-4.4-25.78-16.31-22.76-27.11s17.73-15.8,33.51-11.39a38,38,0,0,1,17.64,10.26c4.79,5.21,6.65,11.35,5.12,16.85s-6.32,9.79-13.11,11.76A32.79,32.79,0,0,1,363.16,125.75ZM351.39,94.13c-6.13,0-11.59,1.84-12.64,5.61-1.54,5.51,7.08,12.35,15.82,14.79a28.24,28.24,0,0,0,14.93.39c3.39-1,5.67-2.74,6.25-4.84h0c.59-2.09-.45-4.79-2.84-7.38a28.19,28.19,0,0,0-13-7.41A32.22,32.22,0,0,0,351.39,94.13Z"/><path class="cls-1" d="M426.72,143.52a42.22,42.22,0,0,1-11.28-1.6,38,38,0,0,1-17.64-10.26c-4.79-5.2-6.65-11.35-5.12-16.85S399,105,405.79,103.05a38,38,0,0,1,20.41.37C442,107.82,452,119.73,449,130.53h0C446.68,138.67,437.74,143.52,426.72,143.52Zm-11.83-31.69a22.9,22.9,0,0,0-6.32.83c-3.39,1-5.67,2.74-6.25,4.84s.45,4.79,2.84,7.38a28.19,28.19,0,0,0,13,7.41c8.73,2.44,19.65,1.05,21.19-4.45s-7.08-12.35-15.81-14.79A32.37,32.37,0,0,0,414.89,111.83Zm29.25,17.35h0Z"/><path class="cls-1" d="M297.66,107.47a42.22,42.22,0,0,1-11.28-1.6c-15.77-4.41-25.77-16.32-22.76-27.11S281.36,63,297.14,67.37s25.77,16.31,22.75,27.11h0C317.62,102.62,308.68,107.47,297.66,107.47ZM285.9,75.84c-6.14,0-11.59,1.84-12.65,5.61-1.53,5.51,7.09,12.35,15.82,14.79s19.65,1.05,21.19-4.45S303.18,79.44,294.45,77A32.33,32.33,0,0,0,285.9,75.84Zm29.18,17.29h0Z"/><path class="cls-1" d="M374.83,84a42.13,42.13,0,0,1-11.29-1.59A38,38,0,0,1,345.9,72.13c-4.79-5.2-6.65-11.34-5.11-16.85s6.31-9.79,13.1-11.75a38,38,0,0,1,20.41.36C390.07,48.3,400.07,60.21,397.05,71h0c-1.53,5.51-6.31,9.79-13.1,11.76A32.84,32.84,0,0,1,374.83,84ZM363,52.31a23,23,0,0,0-6.33.82c-3.39,1-5.67,2.75-6.25,4.84s.45,4.79,2.84,7.39a30.65,30.65,0,0,0,27.91,7.79c3.39-1,5.67-2.74,6.25-4.84,1.54-5.5-7.08-12.35-15.81-14.79A32.33,32.33,0,0,0,363,52.31Zm29.24,17.35h0Z"/><path class="cls-1" d="M351.49,167.53a41.77,41.77,0,0,1-11.28-1.6,37.86,37.86,0,0,1-17.64-10.26c-4.79-5.2-6.66-11.34-5.12-16.85s6.31-9.79,13.11-11.75a37.83,37.83,0,0,1,20.4.36c15.78,4.41,25.77,16.32,22.76,27.11h0C371.44,162.68,362.51,167.53,351.49,167.53Zm-11.83-31.68a22.91,22.91,0,0,0-6.32.82c-3.39,1-5.67,2.75-6.26,4.84s.45,4.79,2.84,7.39a28.36,28.36,0,0,0,13,7.4c8.73,2.44,19.65,1.06,21.19-4.45S357,139.5,348.27,137.06A32.22,32.22,0,0,0,339.66,135.85ZM368.9,153.2h0Z"/><path class="cls-1" d="M224.05,173.62a15.48,15.48,0,0,1-4-.52c-10.88-2.9-16.84-17-13.58-32.1,1.88-8.75,6.68-16.21,12.82-20a16.32,16.32,0,0,1,12.95-2.15h0c10.88,2.89,16.85,17,13.59,32.1-1.89,8.74-6.68,16.21-12.83,20A17.13,17.13,0,0,1,224.05,173.62Zm4.26-45.26a7.24,7.24,0,0,0-3.78,1.2c-3.8,2.32-7,7.52-8.27,13.55-2.24,10.38,1.57,19,6.38,20.32a6.53,6.53,0,0,0,5.16-1c3.8-2.33,7-7.52,8.27-13.55,2.24-10.38-1.56-19.05-6.38-20.33h0A5.33,5.33,0,0,0,228.31,128.36Z"/><path class="cls-1" d="M290.74,210.18a4.76,4.76,0,0,1-1.43-.21,5,5,0,0,1-3.36-6.21c.2-.68.38-1.39.53-2.11,2.24-10.38-1.56-19.05-6.38-20.33s-10.69,4.51-13,12.92a5,5,0,0,1-9.64-2.67c3.92-14.13,14.77-22.69,25.23-19.91,10.88,2.89,16.85,17,13.59,32.1-.21,1-.46,1.92-.73,2.84A5,5,0,0,1,290.74,210.18Z"/><path class="cls-1" d="M437.56,236.07a17.18,17.18,0,0,1-4.44-.58,17.38,17.38,0,0,1-10.8-8.9c-3.55-6.68-3.85-15.57-.82-24.39,5.2-15.13,18.26-24.58,29.73-21.5h0A17.4,17.4,0,0,1,462,189.6c3.55,6.68,3.85,15.57.81,24.4C458.31,227.2,447.79,236.07,437.56,236.07Zm9.25-45.95c-5.83,0-12.85,6.6-15.85,15.33-2.11,6.12-2,12.27.19,16.44a7.29,7.29,0,0,0,4.56,3.94c6.1,1.64,14.36-5.41,17.69-15.09,2.1-6.12,2-12.26-.19-16.44a7.36,7.36,0,0,0-4.57-3.94A7,7,0,0,0,446.81,190.12Z"/><path class="cls-1" d="M388.63,277.43a16.76,16.76,0,0,1-4.44-.58,17.38,17.38,0,0,1-10.8-8.9c-3.56-6.68-3.85-15.57-.82-24.39,5.2-15.13,18.27-24.58,29.73-21.5h0a17.45,17.45,0,0,1,10.81,8.9c3.55,6.68,3.85,15.57.81,24.4C409.38,268.56,398.86,277.43,388.63,277.43Zm9.25-46c-5.83,0-12.85,6.6-15.85,15.33-2.11,6.12-2,12.27.18,16.44a7.38,7.38,0,0,0,4.57,3.95c6.1,1.63,14.36-5.42,17.68-15.09,2.11-6.13,2-12.27-.18-16.45a7.36,7.36,0,0,0-4.57-3.94A7,7,0,0,0,397.88,231.48Z"/><path class="cls-1" d="M342.05,321.53a17.18,17.18,0,0,1-4.44-.58,17.43,17.43,0,0,1-10.8-8.91c-3.56-6.67-3.85-15.56-.82-24.39,5.2-15.13,18.27-24.57,29.73-21.5h0a17.47,17.47,0,0,1,10.81,8.91c3.55,6.67,3.85,15.56.81,24.39C362.8,312.65,352.28,321.53,342.05,321.53Zm9.24-45.95c-5.82,0-12.84,6.59-15.84,15.32-2.11,6.12-2,12.27.18,16.45a7.36,7.36,0,0,0,4.57,3.94c6.09,1.64,14.36-5.42,17.68-15.09,2.11-6.12,2-12.27-.18-16.44a7.35,7.35,0,0,0-4.57-3.95h0A7,7,0,0,0,351.29,275.58Z"/></svg>