<?xml version="1.0" ?><svg viewBox="0 0 512 512" xmlns="http://www.w3.org/2000/svg"><defs><style>.cls-1{fill:#3f456b;}.cls-2{fill:#384169;}</style></defs><title/><g id="Lines"><path class="cls-1" d="M363,308a5,5,0,0,1-.32-10l.69,0c30.26-1.92,64.56-4.1,92.68-15.35,8.5-3.4,28.92-13.24,35.09-31.2,5-14.52,1.69-31.7-8.6-44.83-16.11-20.53-46.84-33.51-82.22-34.72-1.9-.07-4.28,0-6.8,0-12.25.13-29,.32-37.85-8.43A19.51,19.51,0,0,1,350,149c0-9.69,7.21-17.43,19.77-21.23a95.63,95.63,0,0,1,14.31-3.25c2.18-.35,4.65-.76,7.93-1.42,34.79-7,51-19.53,51-39.39,0-16.46-15.33-30.92-44.32-41.81C361.75,28,305.67,21,232,21c-74.1,0-130.32,7-167.09,20.9C36.18,52.74,21,67.19,21,83.71c0,11.59,8.47,21.21,25.17,28.59a242.21,242.21,0,0,0,68.67,18.42c18.49,2.1,36.69,3.09,52.06,3.79,5.23.23,10.91.29,16.4.35a5,5,0,0,1-.05,10h-.05c-5.58-.06-11.35-.12-16.75-.36-15.54-.7-33.95-1.71-52.74-3.84a253,253,0,0,1-71.58-19.21C21.76,112.45,11,99.4,11,83.71,11,69,19.74,48.25,61.38,32.54,99.28,18.25,156.69,11,232,11c74.88,0,132.14,7.25,170.19,21.54C444.19,48.32,453,69.07,453,83.71,453,121,408.58,130,394,132.9c-3.46.7-6,1.12-8.3,1.49a85.77,85.77,0,0,0-13,3C367.93,138.77,360,142.19,360,149a9.63,9.63,0,0,0,2.7,7.32c5.88,5.82,20.82,5.65,30.71,5.54,2.64,0,5.13-.06,7.25,0a151,151,0,0,1,48.69,9.55c17.44,6.74,31.26,16.5,41,29,12.37,15.77,16.27,36.56,10.19,54.25-7.51,21.87-31,33.33-40.82,37.24C430.16,303.75,395,306,364,308l-.68,0Z"/><path class="cls-1" d="M73,222c-35.35,0-62-13.33-62-31s26.65-31,62-31,62,13.33,62,31S108.35,222,73,222Zm0-52c-30.64,0-52,11.07-52,21s21.36,21,52,21,52-11.07,52-21S103.64,170,73,170Z"/><path class="cls-1" d="M110.5,385.51c-20.33,0-39.53-3.64-54-10.27C40.68,368.05,32,358,32,347s8.68-21.07,24.45-28.26c14.52-6.62,33.72-10.27,54.05-10.27a163.24,163.24,0,0,1,18.91,1.09,5,5,0,1,1-1.16,9.93,152.24,152.24,0,0,0-17.75-1c-18.93,0-36.65,3.33-49.9,9.37C48.78,333.22,42,340.21,42,347s6.78,13.76,18.6,19.16c13.25,6,31,9.36,49.9,9.36a150.5,150.5,0,0,0,22.42-1.64,5,5,0,1,1,1.49,9.89A160.93,160.93,0,0,1,110.5,385.51Z"/><path class="cls-1" d="M179,501c-44.09,0-61.85-17.76-62.59-18.52a5,5,0,0,1,3.2-8.46c10-.79,16.71-3.91,20.62-9.55,9.44-13.64,1.72-40.4-4.5-61.89-2.27-7.89-4.43-15.34-5.48-21.37a365.66,365.66,0,0,1-5.43-62.95c0-35.85,7.13-73.46,21.78-115a264.7,264.7,0,0,1,27.61-56.11c19.34-31.74,41.49-52.79,69.67-66.24l0,0c3.26-1.74,11-4.45,19.67-6a109.24,109.24,0,0,1,48,2.2c7.83-1.22,51.63-7,70.12,13.45a5,5,0,0,1-3,8.3c-.4.06-39.65,6.05-53.84,32A228.53,228.53,0,0,1,338.57,159c.49,1.2,11.68,28.82,18,56.91a444.28,444.28,0,0,1,10.68,102.41c-.56,51-9.36,90.05-26.89,119.3-14.57,24.32-35,41.32-62.36,52C275.1,491,253.9,499.8,189.14,500A49.54,49.54,0,0,1,179,501Zm-46.2-19.45c8.56,4.35,23.46,9.45,46.2,9.45a43.12,43.12,0,0,0,5.54-.35A5,5,0,0,1,187,490h1.08a30.57,30.57,0,0,0,15.36-8.87c4.08-4.26,17.25-21.15,15.53-59.4-.56-12.56-1.09-21.85-1.09-22a5,5,0,1,1,10-.56c0,.09.53,9.44,1.1,22.06.48,10.67.58,47-18.29,66.76-.52.55-1,1.07-1.59,1.58,41.07-1.46,60.31-6.79,64.59-9a4.9,4.9,0,0,1,.52-.24c25.33-9.82,44.17-25.48,57.6-47.88,16.36-27.29,24.92-65.74,25.46-114.26a435,435,0,0,0-10.43-100.11c-6.14-27.26-17.38-55-17.49-55.3C321.54,144.06,315,134,315,133.87a5,5,0,0,1-.35-4.84c10.86-23.3,36.79-33.54,51.69-37.63-8.55-4.32-19.7-5.64-28.64-5.89a143.12,143.12,0,0,0-25.48,1.65,4.9,4.9,0,0,1-2.22-.11c-35.25-9.89-61.26,2.63-61.69,2.85l-.09,0c-26.39,12.59-47.2,32.46-65.51,62.53l-.15.23A259.43,259.43,0,0,0,156,206.59c-14.27,40.45-21.21,77-21.21,111.67a355.64,355.64,0,0,0,5.27,61.22c1,5.5,3,12.7,5.25,20.32,6.8,23.53,15.26,52.81,3.11,70.36A30.34,30.34,0,0,1,132.8,481.55Z"/><path class="cls-1" d="M210.93,407.44a22,22,0,0,1-4.82-.51,12.22,12.22,0,0,1-7.38-4.18c-3.1-3.57-4.41-8.77-3.9-15.45.92-11.95-9.17-71.81-26.82-99.83a5,5,0,1,1,8.47-5.33c18.43,29.28,29.54,90.18,28.32,105.92-.49,6.38,1.37,8.6,2.64,8.95a2,2,0,0,1,.77.14c2.91.73,9.79.42,17.15-5.32,17.72-13.84,20.37-44.42,20.37-61.42,0-61-28.36-98.38-28.65-98.75a5,5,0,0,1,7.9-6.14c1.25,1.62,30.75,40.28,30.75,104.89,0,41.65-13.17,60.68-24.21,69.3C224.2,405.42,216.75,407.44,210.93,407.44Z"/><path class="cls-2" d="M345,501H179a5,5,0,0,1,0-10H341.63c.6-2,1-4.56.21-6.59-.24-.6-.95-2.43-4.52-3.7-12.31-4.4-41.22.39-46.82,3.62a5,5,0,0,1-5-8.66c8.06-4.65,40-9.8,55.18-4.38,6.53,2.33,9.31,6.48,10.5,9.54,3.09,8-1.26,16.57-1.77,17.52A5,5,0,0,1,345,501Z"/><path class="cls-1" d="M238.87,268.17a5,5,0,0,1-5-5,257.62,257.62,0,0,1,3.65-42.72c3.48-20.9,15.74-55.91,16.26-57.39a4.22,4.22,0,0,1,.18-.45c7.7-16.58,17.48-27.37,29.89-33,10.72-4.84,23.91-6.13,36.19-3.53a5,5,0,1,1-2.08,9.78,49.51,49.51,0,0,0-30,2.86c-10.08,4.56-18.21,13.68-24.84,27.86-1.07,3.08-12.54,36.3-15.75,55.5a249.25,249.25,0,0,0-3.51,41.05,5,5,0,0,1-5,5Z"/><path class="cls-1" d="M307,134.79a5,5,0,0,1-4.11-2.15c-.27-.38-6.4-9.42-3.47-19.78,2.08-7.35,8-13.22,17.57-17.44l.25-.1c33-12.38,60.68-6.46,61.84-6.2a5,5,0,1,1-2.16,9.76c-.39-.08-26.07-5.44-56,5.75-6.64,3-10.63,6.63-11.85,11-1.63,5.78,2,11.31,2.07,11.37a5,5,0,0,1-4.11,7.84Z"/><path class="cls-2" d="M278,108h-1a5,5,0,0,1,0-10h1a5,5,0,0,1,0,10Z"/></g><g id="Outline"><path class="cls-1" d="M472,392H379a5,5,0,0,1,0-10h93a5,5,0,0,1,0,10Z"/><path class="cls-1" d="M434,418H390a5,5,0,0,1,0-10h44a5,5,0,0,1,0,10Z"/><path class="cls-1" d="M462,418h-8a5,5,0,0,1,0-10h8a5,5,0,0,1,0,10Z"/><path class="cls-1" d="M431,442H412a5,5,0,0,1,0-10h19a5,5,0,0,1,0,10Z"/><path class="cls-1" d="M154,119.1c-83,0-108.6-26.53-109.68-27.7a5,5,0,0,1,7.3-6.83c.43.44,26.6,26.34,111.25,24.43a5,5,0,0,1,.22,10C160,119.07,157,119.1,154,119.1Z"/><path class="cls-1" d="M361,284a5,5,0,0,1-.2-10c91.24-3.72,102.42-27.53,102.52-27.77a.88.88,0,0,0-.06.19l9.48,3.16c-1,3.1-12.93,30.39-111.54,34.42Z"/></g></svg>