<?xml version="1.0" ?><svg viewBox="0 0 512 512" xmlns="http://www.w3.org/2000/svg"><defs><style>.cls-1{fill:#3f456b;}</style></defs><title/><g id="Lines"><path class="cls-1" d="M394.35,287.63c-1.42,0-2.9-.08-4.43-.23-23.35-2.39-24-20.27-23.92-23.22h0V188.25c-.06-2.95.55-21,23.92-23.4,21.6-2.19,31.86,12.12,32.83,13.56.41.58,11.91,16.59,26.56,16.59h25.94c1.83-.08,12.43-.29,18.92,5.85A15.58,15.58,0,0,1,499,212.5v27.27a15.46,15.46,0,0,1-4.85,11.63c-6.47,6-17,5.71-18.93,5.6H449.31c-14.92,0-26.4,16.63-26.52,16.8C422.45,274.33,413.54,287.62,394.35,287.63Zm-.06-113a32.87,32.87,0,0,0-3.36.17c-15.69,1.6-15,12.58-14.95,13,0,.13,0,.27,0,.4v75.93c0,.14,0,.28,0,.41-.1,1.84.11,11.34,14.95,12.86,16.27,1.66,23.47-9.09,23.54-9.2.64-.94,14.68-21.25,34.84-21.25h26.42c2.06.14,8.61-.12,11.62-2.94a5.4,5.4,0,0,0,1.65-4.3V212.5a5.63,5.63,0,0,0-1.7-4.39c-3.08-2.91-9.6-3.23-11.64-3.12H449.31c-20.14,0-34.21-20.08-34.8-20.93l-.07-.11C414.18,183.58,408,174.63,394.29,174.63Z"/><path class="cls-1" d="M330,285.6c-12.48,0-31.6-2.3-45.83-14.42C272.13,260.91,266,245.71,266,226c0-20.48,6.28-36,18.67-46.13,22.57-18.45,56.85-11.74,58.31-11.45a5,5,0,0,1,4,4.9V279.81a5,5,0,0,1-4.2,4.93A85.92,85.92,0,0,1,330,285.6Zm-3.4-108.55c-10.63,0-25,1.91-35.65,10.6-9.93,8.14-15,21-15,38.36,0,16.61,4.92,29.24,14.63,37.53C305.42,276.15,327.77,276,337,275.31V177.64A92.6,92.6,0,0,0,326.63,177.05Z"/><path class="cls-1" d="M371,196H342a5,5,0,0,1,0-10h29a5,5,0,0,1,0,10Z"/><path class="cls-1" d="M371,267H342a5,5,0,0,1,0-10h29a5,5,0,0,1,0,10Z"/><path class="cls-1" d="M458,330h-11.7c-7.41,0-15.33-4.82-15.33-12V256a5,5,0,0,1,10,0v61.88c.36.68,2.45,2.12,5.33,2.12H458c2.64,0,4-1.28,4-2V252a5,5,0,0,1,10,0v66C472,324.73,465.86,330,458,330Z"/><path class="cls-1" d="M114.69,139.72c-18.56,0-27.45-12.17-28.33-13.45C86,125.77,74.51,110,59.8,110H33.85c-1.8.07-12.62.25-19.13-5.93A15.29,15.29,0,0,1,10,92.69V66a15.68,15.68,0,0,1,4.66-11.44C21.3,48,32.54,48,33.81,48h26C74.53,48,86,32.61,86.39,32.1c1-1.38,11.22-15,32.74-12.85,23.32,2.33,23.94,20,23.87,23v74.32c.07,3-.56,20.59-23.87,22.91A42.91,42.91,0,0,1,114.69,139.72ZM33.74,100H59.8c20.12,0,34.16,19.7,34.75,20.54a.86.86,0,0,1,.07.1c.27.39,7.48,10.51,23.51,8.9,14.81-1.48,15-10.74,14.88-12.59,0-.14,0-.22,0-.37V42.26c0-.14,0-.29,0-.43.11-1.8-.08-11.15-14.89-12.62-16.07-1.61-23.27,8.24-23.57,8.66C93.93,38.75,79.88,58,59.8,58H33.74c-2.34,0-9,.61-12.07,3.7A5.64,5.64,0,0,0,20,66V92.69a5.32,5.32,0,0,0,1.61,4.13c2.86,2.72,9.24,3.31,11.87,3.19Z"/><path class="cls-1" d="M179,138.81A87.53,87.53,0,0,1,166.2,138,5,5,0,0,1,162,133V26.54a5,5,0,0,1,4-4.91c1.45-.29,35.74-7,58.31,11.46C236.7,43.21,243,58.73,243,79.22c0,19.69-6.11,34.89-18.18,45.17C210.57,136.5,191.45,138.81,179,138.81Zm-7-10.29c9.22.69,31.57.83,46.35-11.78C228.06,108.46,233,95.83,233,79.22c0-17.32-5-30.23-15-38.36-14.81-12.13-37-11.06-46-10Z"/><path class="cls-1" d="M167,49H138a5,5,0,0,1,0-10h29a5,5,0,0,1,0,10Z"/><path class="cls-1" d="M167,120H138a5,5,0,0,1,0-10h29a5,5,0,0,1,0,10Z"/><path class="cls-1" d="M62.79,184H51.08C43.45,184,37,178.15,37,171.22V105a5,5,0,0,1,10,0v66.22c0,.83,1.39,2.78,4.08,2.78H62.79c2.78,0,5-2,5.22-2.86V109a5,5,0,0,1,10,0v62.22C78,177.91,70.75,184,62.79,184Z"/><path class="cls-1" d="M319.51,502.5h-.4a5,5,0,0,1-4.6-5.38,194.79,194.79,0,0,0-2.37-46.88c-4.82-28-20.47-51.35-46.51-69.4-20.53-14.24-47-25.2-80.87-33.51-32.9-8.07-70.19-17.22-95.62-44.7a124.65,124.65,0,0,1-16.88-23.68c-18.09-32.25-20.19-67.12-19.76-100a5,5,0,1,1,10,.12C61.81,232.35,71,256.21,81,274a114.55,114.55,0,0,0,15.5,21.79c23.39,25.27,59.13,34,90.66,41.78,35.1,8.61,62.64,20.06,84.19,35,28.33,19.64,45.38,45.19,50.67,75.92a206.14,206.14,0,0,1,2.49,49.36A5,5,0,0,1,319.51,502.5Z"/><path class="cls-1" d="M335.5,502.5h-.19a5,5,0,0,1-4.81-5.19c1.83-48.07,30.23-61.63,57.7-74.74,18.82-9,38.28-18.27,50.21-39.06,9.58-16.69,9.77-37.13,9.09-58.35a5,5,0,1,1,10-.32c.72,22.72.47,44.68-10.41,63.65C433.6,412,412.71,422,392.51,431.6c-27.06,12.91-50.42,24.06-52,66.09A5,5,0,0,1,335.5,502.5Z"/></g><g id="Outline"><path class="cls-1" d="M242.13,262.64a5,5,0,0,1-4.21-2.31c-12-18.81-12.87-47.81-1.88-66a5,5,0,0,1,8.56,5.16c-8.88,14.72-8.08,40.12,1.74,55.47a5,5,0,0,1-4.21,7.7Z"/><path class="cls-1" d="M213.17,279.88a5,5,0,0,1-4.22-2.3c-18.21-28.46-19.53-74-2.94-101.46a5,5,0,0,1,8.57,5.17c-14.82,24.56-13.57,65.33,2.79,90.89a5,5,0,0,1-4.2,7.7Z"/><path class="cls-1" d="M268.91,114.64a5,5,0,0,1-4.27-7.58c8.88-14.72,8.08-40.12-1.75-55.47a5,5,0,1,1,8.43-5.39c12,18.81,12.86,47.81,1.88,66A5,5,0,0,1,268.91,114.64Z"/><path class="cls-1" d="M298.94,132.82a5,5,0,0,1-4.28-7.58c14.82-24.56,13.56-65.33-2.8-90.9A5,5,0,0,1,300.29,29c18.2,28.45,19.52,74,2.93,101.46A5,5,0,0,1,298.94,132.82Z"/></g></svg>