<?xml version="1.0" ?><svg id="Lines" viewBox="0 0 512 512" xmlns="http://www.w3.org/2000/svg"><defs><style>.cls-1{fill:#3f456b;}</style></defs><title/><path class="cls-1" d="M381.2,448.17h-.12a5,5,0,0,1-4.88-5.12L379.31,306a31.7,31.7,0,0,1,2.86-13.51c2.95-6.57,9.54-15.33,24.23-19.72,3.43-1,8.28-2.16,13.42-3.35l.27-.06.24-.05,18.7-3.37c1.83-.45,10.87-2.28,17,3.53,4.54,4.31,5.85,11.25,3.9,20.65a55.9,55.9,0,0,1-3.72,13.74c-4.24,10-10.92,15.85-19.35,16.88l-48.13,11.85L386.2,443.28A5,5,0,0,1,381.2,448.17Zm41-169.07-.15,0c-5,1.16-9.68,2.25-12.81,3.19-20.86,6.23-20,23.08-20,23.25a3.38,3.38,0,0,1,0,.45L389,322.2l45.81-11.28a4.93,4.93,0,0,1,.67-.11c12-1.27,14.54-21.87,14.57-22.07a2.74,2.74,0,0,1,.08-.5c1.21-5.72.87-9.82-1-11.55-2.1-2-6.72-1.34-7.75-1.06l-.4.09Z"/><path class="cls-1" d="M340.33,482.27h-1c-11.48-.26-21.77-4.94-28.25-12.84A30.94,30.94,0,0,1,304.61,444c3.5-19.74,24.15-35.41,46.12-34.9,11.48.26,21.77,4.94,28.24,12.84a31,31,0,0,1,6.46,25.42h0C382,466.79,361.88,482.27,340.33,482.27Zm9.35-63.18c-16.89,0-32.59,11.81-35.22,26.66a21.1,21.1,0,0,0,4.34,17.33c4.62,5.64,12.18,9,20.74,9.18h.82c16.89,0,32.59-11.81,35.22-26.66h0a21.09,21.09,0,0,0-4.34-17.33c-4.62-5.64-12.18-9-20.74-9.18Z"/><path class="cls-1" d="M290.66,188.36a5,5,0,0,1-3.19-1.15A23.48,23.48,0,1,1,321.89,156a5,5,0,0,1-8.28,5.6,13.48,13.48,0,1,0-19.76,17.93,5,5,0,0,1-3.19,8.85Z"/><path class="cls-1" d="M250.26,226a4.94,4.94,0,0,1-2.77-.84,23.48,23.48,0,1,1,34-30.09,5,5,0,0,1-8.94,4.5A13.48,13.48,0,1,0,253,216.85a5,5,0,0,1-2.77,9.16Z"/><path class="cls-1" d="M209.3,264.92a5,5,0,0,1-3.09-1.07,23.47,23.47,0,1,1,33.91-31.67,5,5,0,0,1-8.26,5.64A13.48,13.48,0,1,0,212.39,256a5,5,0,0,1-3.09,8.93Z"/><path class="cls-1" d="M277.48,310.2a5,5,0,0,1-3.42-1.36l-14.78-13.9a5,5,0,1,1,6.85-7.28l14.77,13.89a5,5,0,0,1-3.42,8.65Z"/><path class="cls-1" d="M348.62,233.32a5,5,0,0,1-3.3-1.24l-7.19-6.31a5,5,0,0,1,6.59-7.52l7.19,6.31a5,5,0,0,1-3.29,8.76Z"/><path class="cls-1" d="M302.93,253.68a5,5,0,0,1-3.66-8.41l17.55-18.82a5,5,0,1,1,7.31,6.82l-17.54,18.82A5,5,0,0,1,302.93,253.68Z"/><path class="cls-1" d="M255.2,304.7a5,5,0,0,1-3.66-8.41l21.18-22.71a5,5,0,1,1,7.31,6.83l-21.18,22.7A4.94,4.94,0,0,1,255.2,304.7Z"/><path class="cls-1" d="M99.06,502.13a5,5,0,0,1-3.54-1.47L10.46,415.6a5,5,0,0,1-.55-6.42c.63-.9,15.74-21.95,33.27-15.85,4,1.4,22.91-7.45,58.57-37.55a5,5,0,1,1,6.45,7.64c-6.7,5.66-19.89,16.48-32.84,25.33-22.66,15.49-30.86,15.64-35.47,14-7.32-2.55-15.17,4.55-19.15,9l78.63,78.64c4.39-4,11.45-11.83,8.92-19.1-1.86-5.34-1.11-15.06,21.4-43,11.83-14.71,24.05-27.43,24.57-28l74.27-79.38a5,5,0,0,1,7.3,6.83l-74.32,79.44c-.17.18-12.51,13-24.07,27.39-21.63,26.9-19.8,33.19-19.71,33.44,6.11,17.53-14.9,32.59-15.79,33.22A5,5,0,0,1,99.06,502.13Z"/><path class="cls-1" d="M137.69,334.31a5,5,0,0,1-3.4-8.67L149,312.06a5,5,0,1,1,6.8,7.33L141.09,333A5,5,0,0,1,137.69,334.31Z"/><path class="cls-1" d="M184.87,290.24a5,5,0,0,1-3.42-8.65L334.71,138.2a5,5,0,0,1,6.83,7.31L188.28,288.89A5,5,0,0,1,184.87,290.24Z"/><path class="cls-1" d="M349.76,203.63a5,5,0,0,1-3.65-8.42L488.45,43.07c1.11-1.46,7.18-10.28-.5-18-3.41-3.41-7.2-4.46-11.57-3.21a18.24,18.24,0,0,0-6,3L359.67,128.54a5,5,0,0,1-6.83-7.31L463.7,17.52c.06-.05.11-.11.17-.15a27.84,27.84,0,0,1,9.77-5.1C481.48,10,489.07,12.08,495,18c7.58,7.58,7.44,15.86,6,21.46a28.51,28.51,0,0,1-4.83,9.95l-.25.29L353.41,202A4.94,4.94,0,0,1,349.76,203.63Z"/><path class="cls-1" d="M361.81,178.08a29.48,29.48,0,0,1-1.08-58.94c.09,0,14.6-.84,23.62-10.19,5.68-5.9,12.27-8.41,18.09-6.91a11.69,11.69,0,0,1,8.51,8.37c1.35,5-.52,10.53-5.14,15-2.84,2.79-5.2,4.86-7.1,6.52-6,5.25-6.76,5.92-7.43,16-1.13,16.83-13.06,29.47-28.36,30Zm37.25-66.46c-1.78,0-4.46,1.1-7.51,4.27-11.83,12.27-29.66,13.21-30.41,13.24a19.48,19.48,0,1,0,1.41,38.93c10.25-.38,18-8.9,18.75-20.71.91-13.55,3.49-16.47,10.82-22.89,1.9-1.67,4.05-3.55,6.69-6.14,2.28-2.24,2.78-4.22,2.48-5.33a1.72,1.72,0,0,0-1.36-1.27A3.35,3.35,0,0,0,399.06,111.62Z"/><path class="cls-1" d="M275.69,281.71a31.68,31.68,0,1,1,22.41-9.27A31.59,31.59,0,0,1,275.69,281.71Zm0-53.37A21.69,21.69,0,1,0,291,234.69,21.53,21.53,0,0,0,275.69,228.34Z"/><path class="cls-1" d="M228.29,329.12a31.69,31.69,0,1,1,22.41-9.28h0A31.49,31.49,0,0,1,228.29,329.12Zm0-53.38a21.69,21.69,0,1,0,15.34,37h0a21.69,21.69,0,0,0-15.34-37Z"/><path class="cls-1" d="M322.54,234.87A31.68,31.68,0,1,1,345,225.59h0A31.49,31.49,0,0,1,322.54,234.87Zm0-53.38a21.69,21.69,0,1,0,15.34,37h0a21.69,21.69,0,0,0-15.34-37Z"/><path class="cls-1" d="M218.17,379.84a5,5,0,0,1-3.21-1.17L196.18,363a5,5,0,0,1,6.42-7.68l15.12,12.65,197-214.45-12.48-11.81a5,5,0,0,1,6.87-7.27l16.07,15.21a5,5,0,0,1,.24,7L221.85,378.22A5,5,0,0,1,218.17,379.84Z"/><path class="cls-1" d="M442.73,100.93a5,5,0,0,1-3.54-1.46l-25.6-25.61a5,5,0,0,1,7.07-7.07l25.6,25.61a5,5,0,0,1-3.53,8.53Z"/><path class="cls-1" d="M420.39,123.27a5,5,0,0,1-3.53-1.47L391.25,96.2a5,5,0,1,1,7.07-7.07l25.61,25.6a5,5,0,0,1-3.54,8.54Z"/><path class="cls-1" d="M193.56,343.61a16.44,16.44,0,0,1-11.37-4.8,59.74,59.74,0,0,1-9-10.95c-3.15-4.72-4-6-12.63-6.15a29.48,29.48,0,1,1,29.57-29.47c0,.1.39,16.91,11.18,21.64,5.86,2.57,9.2,7.31,9.17,13,0,6.41-4.48,12.77-10.8,15.46A15.66,15.66,0,0,1,193.56,343.61Zm-32.9-70.85a19.48,19.48,0,1,0,.09,39h0c13.19.24,16.49,4.18,20.77,10.58a49.17,49.17,0,0,0,7.57,9.27c2.12,2,4.37,2.55,6.69,1.56,2.58-1.09,4.69-3.93,4.71-6.31,0-.59,0-2.38-3.18-3.78-16.73-7.33-17.16-29.8-17.17-30.75A19.51,19.51,0,0,0,160.66,272.76Z"/><path class="cls-1" d="M147.8,389.37a16.44,16.44,0,0,1-11.37-4.8,59.31,59.31,0,0,1-9-10.95c-3.15-4.72-4-6-12.63-6.14h0c-16.48-.3-29.39-13.25-29.39-29.48a29.48,29.48,0,1,1,59,0c0,.1.39,16.92,11.18,21.64,5.86,2.57,9.19,7.31,9.16,13,0,6.42-4.47,12.78-10.79,15.46A15.7,15.7,0,0,1,147.8,389.37ZM115,357.48c13.19.24,16.48,4.18,20.76,10.58a49.3,49.3,0,0,0,7.58,9.28c2.12,2,4.37,2.54,6.69,1.56,2.58-1.1,4.69-3.93,4.7-6.32,0-.59,0-2.38-3.18-3.78-16.72-7.33-17.15-29.8-17.16-30.75A19.48,19.48,0,1,0,115,357.48Z"/><path class="cls-1" d="M470.72,64.9a23.35,23.35,0,0,1-16.08-6.2c-12-10.91-4.42-27.67-4.09-28.38a5,5,0,0,1,9.08,4.19A23.31,23.31,0,0,0,458,41.24c-.37,4.35.74,7.64,3.4,10.06,8,7.3,18.16,1.39,18.59,1.13a5,5,0,0,1,5.2,8.55A29.06,29.06,0,0,1,470.72,64.9Z"/></svg>