<?xml version="1.0" ?><svg viewBox="0 0 512 512" xmlns="http://www.w3.org/2000/svg"><defs><style>.cls-1{fill:#3f456b;}</style></defs><title/><g id="Lines"><path class="cls-1" d="M124.1,249.23c-28,0-50.17-12.38-61.1-34.33-5.93-11.89-7.31-23.73-7.92-34.75a513.49,513.49,0,0,1,1-71.86c.19-2.15.36-4.31.54-6.47,1.19-14.43,2.41-29.34,6-43.69C67,40.51,75.6,19.51,103,13.42c26.87-6,75.35-6.06,86.68,31.42,10.82,35.79,14.4,78.78,11.27,135.31-.61,11-2,22.86-7.91,34.75-11.44,23-35.14,35.45-65,34.25H128C126.68,249.2,125.38,249.23,124.1,249.23Zm5.82-228.79a115,115,0,0,0-24.74,2.75C87.5,27.11,78,37.94,72.35,60.55,69,74.11,67.78,88.61,66.63,102.64l-.54,6.5a501.14,501.14,0,0,0-1,70.46c.55,10,1.76,20.57,6.88,30.84,9.6,19.28,29.88,29.76,55.64,28.72h.87c25.76,1,46-9.44,55.64-28.72,5.11-10.27,6.33-20.89,6.88-30.84,3.06-55.33-.39-97.23-10.86-131.86-3.89-12.88-14-21.33-30.16-25.14A88,88,0,0,0,129.92,20.44Z"/><path class="cls-1" d="M17,500.14a5,5,0,0,1-5-5V347.84C12,125.73,54.26,111,59.08,110L61,119.8a1.77,1.77,0,0,0,.31-.07c-.4.13-39.33,15.66-39.33,228.11v147.3A5,5,0,0,1,17,500.14Z"/><path class="cls-1" d="M240,500.14a5,5,0,0,1-5-5V347.84c0-63.59-3.68-149.73-21.23-198.95-9.08-25.46-17.71-29.07-17.79-29.09a5,5,0,0,1,1.94-9.81c4.82,1,47.08,15.74,47.08,237.85v147.3A5,5,0,0,1,240,500.14Z"/><path class="cls-1" d="M476,500H292a25,25,0,0,1-25-25V307a25,25,0,0,1,25-25H476a25,25,0,0,1,25,25V475A25,25,0,0,1,476,500ZM292,292a15,15,0,0,0-15,15V475a15,15,0,0,0,15,15H476a15,15,0,0,0,15-15V307a15,15,0,0,0-15-15Z"/><path class="cls-1" d="M368,244a5,5,0,0,1-5-5V176a5,5,0,0,1,10,0v63A5,5,0,0,1,368,244Z"/><path class="cls-1" d="M399,244a5,5,0,0,1-5-5V176a5,5,0,0,1,10,0v63A5,5,0,0,1,399,244Z"/><path class="cls-1" d="M433,292a5,5,0,0,1-5-5V249a5,5,0,0,0-5-5H346a5,5,0,0,0-5,5v38a5,5,0,0,1-10,0V249a15,15,0,0,1,15-15h77a15,15,0,0,1,15,15v38A5,5,0,0,1,433,292Z"/><path class="cls-1" d="M431,180H337a15,15,0,0,1-15-15V47c0-4.36.67-12.82,5.18-20.58C331.53,18.93,340.76,10,360,10h48c14.11,0,38,8,38,38V165A15,15,0,0,1,431,180ZM360,20c-24.36,0-28,16.92-28,27V165a5,5,0,0,0,5,5h94a5,5,0,0,0,5-5V48c0-26.65-23.32-28-28-28Z"/><path class="cls-1" d="M431,468H337c-28.94,0-37.48-23.76-38-36.57-.64-4.69-10.05-73.05-12.88-85.31-1.82-7.85-11.94-6-13.08-5.73a5,5,0,0,1-2.12-9.77,29,29,0,0,1,10.29-.17c7.76,1.33,13,6.1,14.65,13.43,3,13.07,12.67,83.45,13.08,86.44a4.8,4.8,0,0,1,.05.52,35.84,35.84,0,0,0,4.07,14.09C317.79,453.6,325.84,458,337,458h94c26.84,0,28-26.05,28-27.16a4.8,4.8,0,0,1,.05-.52c.41-3,10.06-73.37,13.08-86.44,1.69-7.33,6.89-12.1,14.65-13.43a29,29,0,0,1,10.29.17,5,5,0,0,1-2.12,9.77c-1.17-.25-11.27-2.11-13.08,5.73C479,358.38,469.63,426.74,469,431.43,468.48,444.24,459.94,468,431,468Z"/><path class="cls-1" d="M260.5,143a5,5,0,0,1-4.88-3.91c-.09-.39-9.36-39.63-44.21-47.44a5,5,0,0,1,.15-9.79c1.6-.31,39.24-8.06,44-47.46a5,5,0,0,1,4.85-4.4h.11a5,5,0,0,1,4.93,4.18,74.68,74.68,0,0,0,8.38,22.06c8.41,14.56,20.35,23.18,35.48,25.59a5,5,0,0,1,.23,9.84c-1.55.32-38.2,8.55-44.08,47.08a5,5,0,0,1-4.77,4.25ZM227.6,86.82c17.1,8.46,26.94,23.37,32.27,34.74a64.52,64.52,0,0,1,24.29-29.31,75.28,75.28,0,0,1,8.66-5C281.44,82.08,272,73.17,265,60.94A83.53,83.53,0,0,1,261,53a62.36,62.36,0,0,1-23.72,28.41A73.94,73.94,0,0,1,227.6,86.82Z"/></g><g id="Outline"><path class="cls-1" d="M432,260H338a5,5,0,0,1,0-10h94a5,5,0,0,1,0,10Z"/><path class="cls-1" d="M432,276H338a5,5,0,0,1,0-10h94a5,5,0,0,1,0,10Z"/><path class="cls-1" d="M389.34,390.75a31.12,31.12,0,0,1-8.23-1.11c-6.85-1.85-12.18-6-17.34-10-6.28-4.86-11.72-9.06-18.84-8.51-10.09.77-16.07,10.19-18.74,15.74a5,5,0,0,1-9-4.33c6.23-12.94,15.81-20.53,27-21.38,11-.85,18.8,5.22,25.71,10.57,4.59,3.54,8.92,6.89,13.84,8.22a21.06,21.06,0,0,0,12.95-.49,34.58,34.58,0,0,1-3.32-3.07c-6.6-7-8.91-15.75-6.32-24.11,3-9.55,9.24-15.7,17.23-16.88a17.87,17.87,0,0,1,17.53,7.8c5.06,7.48,4.5,17.68-1.53,28a44.71,44.71,0,0,1-4.68,6.61c7.47,2,17,2.41,28.12-.39a5,5,0,0,1,2.45,9.69c-14.13,3.56-28.16,2.79-39.22-1.7A32.54,32.54,0,0,1,389.34,390.75Zm17.54-45.51a7.52,7.52,0,0,0-1.15.09c-4,.6-7.38,4.22-9.15,9.94-1.51,4.88-.08,10,4,14.29a26,26,0,0,0,5.16,4.12,34.86,34.86,0,0,0,5.86-7.49c4-6.86,4.69-13.18,1.88-17.35A8,8,0,0,0,406.88,345.24Z"/><path class="cls-1" d="M132,217a5,5,0,0,1-.1-10c9.75-.2,17.15-3.5,22.63-10.08,8.09-9.73,10.27-24.89,10.68-35.9a125.85,125.85,0,0,0-1.14-22.21,5,5,0,0,1,9.86-1.62c.3,1.77,6.93,43.7-11.71,66.12-7.34,8.83-17.47,13.43-30.12,13.69Z"/></g></svg>