<?xml version="1.0" ?><svg id="Lines" viewBox="0 0 512 512" xmlns="http://www.w3.org/2000/svg"><defs><style>.cls-1{fill:#3f456b;}</style></defs><title/><path class="cls-1" d="M256.5,220a5,5,0,0,1-4.88-3.91c-.09-.39-9.36-39.63-44.21-47.44a5,5,0,0,1,.15-9.79c1.6-.31,39.24-8.06,44-47.46a5,5,0,0,1,4.85-4.4h.11a5,5,0,0,1,4.93,4.18,74.68,74.68,0,0,0,8.38,22.06c8.41,14.56,20.35,23.17,35.48,25.59a5,5,0,0,1,.23,9.84c-1.55.32-38.2,8.55-44.08,47.08a5,5,0,0,1-4.77,4.25Zm-32.9-56.18c17.1,8.46,26.94,23.37,32.27,34.74a64.52,64.52,0,0,1,24.29-29.31,75.28,75.28,0,0,1,8.66-5C277.44,159.08,268,150.17,261,137.94a83.53,83.53,0,0,1-4-7.91,62.36,62.36,0,0,1-23.72,28.41A73.94,73.94,0,0,1,223.6,163.82Z"/><path class="cls-1" d="M145,356a76.5,76.5,0,1,1,76.5-76.5A76.59,76.59,0,0,1,145,356Zm0-143a66.5,66.5,0,1,0,66.5,66.5A66.57,66.57,0,0,0,145,213Z"/><path class="cls-1" d="M144.5,500c-73.34,0-133-59.66-133-133a5,5,0,0,1,5-5h256a5,5,0,0,1,5,5C277.5,440.34,217.84,500,144.5,500ZM21.6,372a123,123,0,0,0,245.8,0Z"/><path class="cls-1" d="M145,372a5,5,0,0,1-5-5V336a5,5,0,0,1,10,0v31A5,5,0,0,1,145,372Z"/><path class="cls-1" d="M145,229a5,5,0,0,1-5-5V190a5,5,0,0,1,10,0v34A5,5,0,0,1,145,229Z"/><path class="cls-1" d="M151,194H139a15,15,0,0,1-15-15V152a15,15,0,0,1,15-15h12a15,15,0,0,1,15,15v27A15,15,0,0,1,151,194Zm-12-47a5,5,0,0,0-5,5v27a5,5,0,0,0,5,5h12a5,5,0,0,0,5-5V152a5,5,0,0,0-5-5Z"/><path class="cls-1" d="M145,147a5,5,0,0,1-5-5v-9a45.42,45.42,0,0,1-11.64-87.41c14-5.52,31.27-4.59,45,2.44,9,4.58,16,11.36,22.83,17.92,2.55,2.46,5.18,5,7.83,7.32,8.52,7.47,21.26,11.28,34.94,10.44a5,5,0,1,1,.61,10c-16.31,1-31.66-3.7-42.15-12.91-2.82-2.47-5.54-5.09-8.17-7.62-6.58-6.34-12.79-12.32-20.44-16.22-11.12-5.68-25.57-6.48-36.82-2a35.43,35.43,0,0,0,13,68.39,5,5,0,0,1,5,5V142A5,5,0,0,1,145,147Z"/><path class="cls-1" d="M369,325a76.5,76.5,0,1,1,76.5-76.5A76.59,76.59,0,0,1,369,325Zm0-143a66.5,66.5,0,1,0,66.5,66.5A66.57,66.57,0,0,0,369,182Z"/><path class="cls-1" d="M368.5,469a133.52,133.52,0,0,1-107.58-54.78,5,5,0,1,1,8.09-5.89A123,123,0,0,0,491.4,341H245.6A123.72,123.72,0,0,0,249,365.07a5,5,0,1,1-9.71,2.35A133.5,133.5,0,0,1,235.5,336a5,5,0,0,1,5-5h256a5,5,0,0,1,5,5C501.5,409.34,441.84,469,368.5,469Z"/><path class="cls-1" d="M369,341a5,5,0,0,1-5-5V305a5,5,0,0,1,10,0v31A5,5,0,0,1,369,341Z"/><path class="cls-1" d="M369,198a5,5,0,0,1-5-5V159a5,5,0,0,1,10,0v34A5,5,0,0,1,369,198Z"/><path class="cls-1" d="M375,163H363a15,15,0,0,1-15-15V121a15,15,0,0,1,15-15h12a15,15,0,0,1,15,15v27A15,15,0,0,1,375,163Zm-12-47a5,5,0,0,0-5,5v27a5,5,0,0,0,5,5h12a5,5,0,0,0,5-5V121a5,5,0,0,0-5-5Z"/><path class="cls-1" d="M369,116a5,5,0,0,1-5-5v-9a45.42,45.42,0,0,1-11.64-87.41c14-5.53,31.27-4.59,45,2.44,9,4.58,16,11.36,22.83,17.92,2.55,2.46,5.18,5,7.83,7.32,8.52,7.47,21.26,11.28,34.94,10.44a5,5,0,1,1,.61,10c-16.31,1-31.66-3.7-42.15-12.91-2.82-2.47-5.54-5.09-8.17-7.62-6.58-6.34-12.79-12.32-20.44-16.22-11.12-5.68-25.57-6.48-36.82-2.05a35.43,35.43,0,0,0,13,68.39,5,5,0,0,1,5,5V111A5,5,0,0,1,369,116Z"/></svg>