<?xml version="1.0" ?><svg viewBox="0 0 512 512" xmlns="http://www.w3.org/2000/svg"><defs><style>.cls-1{fill:#3f456b;}</style></defs><title/><g id="Lines"><path class="cls-1" d="M256,277.77a5,5,0,0,1-3-1C251.28,275.5,210,244,210,153s41.15-124.5,42.9-125.88a5,5,0,0,1,6.21,7.83c-.16.13-9.9,8.1-19.52,26.44C230.65,78.38,220,108.11,220,153s10.63,73.92,19.54,90.46c9.61,17.84,19.35,25.26,19.44,25.34a5,5,0,0,1-3,9Z"/><path class="cls-1" d="M256,277.77a5,5,0,0,1-3-9c.08-.06,9.82-7.48,19.43-25.32C281.37,226.88,292,197.76,292,153c0-86.16-38.71-117.73-39.1-118a5,5,0,0,1,6.2-7.84C260.85,28.46,302,62,302,153S260.72,275.5,259,276.79A5,5,0,0,1,256,277.77Z"/><path class="cls-1" d="M209.35,302.59l-.41,0c-2-.16-49.62-4.87-89.38-79.2C80,149.36,98.82,101.27,99.64,99.26A5,5,0,0,1,108.9,103c-.06.15-4.53,11.57-4.38,31.37.14,18.35,4.39,47.86,23.85,84.25,10.69,20,28.89,47.19,54.84,63.28,15.43,9.56,26.46,10.67,26.57,10.68a5,5,0,0,1-.43,10Z"/><path class="cls-1" d="M209.34,302.59a5,5,0,0,1-4.56-7c0-.09,4.73-11.06,4.79-30.42.06-17.94-3.95-46.94-23.39-83.28-37.27-69.68-82-75.68-82.49-75.73a5,5,0,1,1,1.16-9.93c2,.24,50.44,6.71,90.15,80.94s19.78,120.55,18.91,122.49A5,5,0,0,1,209.34,302.59Z"/><path class="cls-1" d="M151.19,360.13c-15.91,0-35.79-3.26-59.5-13.13-67.82-28.24-80-74.36-80.54-76.31a5,5,0,0,1,9.7-2.45c0,.14,2.9,10.94,13.46,24.81,9.77,12.84,28.32,31,61.23,44.72,18.08,7.53,45.25,15.53,72,10.94,15.92-2.73,24.3-8.73,24.38-8.79a5,5,0,0,1,5.95,8C196.89,348.7,181,360.13,151.19,360.13Z"/><path class="cls-1" d="M194.89,349A5,5,0,0,1,190,345c0-.09-2.5-10.71-12.67-24.39C167.93,308,149.82,290,117,276.32c-63-26.24-97.76-3-98.1-2.74a5,5,0,0,1-5.7-8.22c1.59-1.1,39.62-26.6,107.65,1.73s78.56,73.87,79,75.8a5,5,0,0,1-3.82,5.95A5.63,5.63,0,0,1,194.89,349Z"/><path class="cls-1" d="M85.28,453.81c-40.13,0-59.59-18.19-60.59-19.16a5,5,0,0,1,6.92-7.21c.17.15,7.13,6.58,21.08,11.29,13,4.39,35,8.15,65.57,1.09s48.88-20.09,58.79-29.77c10.69-10.46,14.25-19.39,14.28-19.48a5,5,0,0,1,9.34,3.57c-.62,1.66-16.1,40.66-80.16,55.43A156.72,156.72,0,0,1,85.28,453.81Z"/><path class="cls-1" d="M28.15,436a4.9,4.9,0,0,1-1.93-.39,5,5,0,0,1-2.68-6.52c.69-1.66,17.64-40.88,81.6-55.62,64.2-14.8,93.24,14.13,94.44,15.37a5,5,0,1,1-7.16,7s-6.64-6.58-20.29-11.37c-12.66-4.45-34.17-8.28-64.74-1.23s-49.34,20.23-59.59,30c-11.08,10.58-15,19.63-15,19.72A5,5,0,0,1,28.15,436Z"/><path class="cls-1" d="M256,485a5,5,0,0,1-5-5V272.77a5,5,0,0,1,10,0V480A5,5,0,0,1,256,485Z"/><path class="cls-1" d="M256,381.39a5,5,0,0,1-4.87-3.88c-9.54-41.17-45.24-76-45.6-76.32a5,5,0,0,1,6.94-7.2c1.55,1.5,38.18,37.16,48.4,81.27a5,5,0,0,1-3.74,6A5.52,5.52,0,0,1,256,381.39Z"/><path class="cls-1" d="M256,434.27a5,5,0,0,1-5-5c0-53.38-57.51-80.46-58.09-80.72a5,5,0,0,1,4.18-9.09,134.36,134.36,0,0,1,31.81,22.06c21,19.51,32.1,42.94,32.1,67.75A5,5,0,0,1,256,434.27Z"/><path class="cls-1" d="M256,440.75a5,5,0,0,1-5-5c0-14.54-4.16-25.22-12.37-31.73-15.67-12.43-41.23-6.64-41.49-6.58a5,5,0,1,1-2.28-9.73c1.24-.29,30.56-6.92,50,8.48C255.56,404.69,261,418,261,435.75A5,5,0,0,1,256,440.75Z"/><path class="cls-1" d="M302.65,302.59a5,5,0,0,1-.4-10c.08,0,11.11-1.11,26.54-10.67,25.95-16.09,44.15-43.29,54.84-63.28,37.39-69.9,19.66-115.15,19.47-115.6a5,5,0,0,1,9.26-3.79c.82,2,19.67,50.1-19.92,124.11-39.76,74.33-87.37,79-89.38,79.2Z"/><path class="cls-1" d="M302.66,302.59a5,5,0,0,1-4.57-3c-.87-1.94-20.72-48.4,18.91-122.49s88.11-80.7,90.15-80.94a5,5,0,0,1,1.18,9.93h0c-.11,0-11.41,1.53-27.11,11.53-14.57,9.27-36,27.94-55.4,64.2-37.35,69.82-18.79,113.27-18.6,113.7a5,5,0,0,1-4.56,7Z"/><path class="cls-1" d="M360.81,360.13c-29.82,0-45.7-11.43-46.69-12.17a5,5,0,1,1,6-8c.06,0,8.44,6,24.36,8.77,14.77,2.54,39.26,2.7,72-10.94,18.17-7.56,43.53-21.46,61.23-44.72,10.57-13.89,13.44-24.7,13.46-24.81a5,5,0,0,1,9.7,2.45c-.49,1.95-12.72,48.07-80.54,76.31C396.6,356.87,376.72,360.13,360.81,360.13Z"/><path class="cls-1" d="M317.11,348.94a5.12,5.12,0,0,1-1.09-.12,5,5,0,0,1-3.8-5.93c.42-1.93,11.07-47.53,79-75.8s106.06-2.83,107.65-1.73a5,5,0,0,1-5.68,8.23h0c-.35-.23-35.49-23.35-98.12,2.73-18.14,7.55-43.34,21.37-60.39,44.31C324.49,334.31,322,344.93,322,345A5,5,0,0,1,317.11,348.94Z"/><path class="cls-1" d="M426.72,453.81a156.72,156.72,0,0,1-35.23-4.24C327.43,434.8,312,395.8,311.33,394.14a5,5,0,1,1,9.34-3.55c0,.07,3.59,9,14.28,19.46,9.91,9.68,28.14,22.71,58.79,29.77s52.56,3.3,65.57-1.09c14.05-4.75,21-11.23,21.08-11.3a5,5,0,0,1,6.92,7.22C486.31,435.62,466.85,453.81,426.72,453.81Z"/><path class="cls-1" d="M483.85,436.05a5,5,0,0,1-4.62-3.07c-.08-.18-4-9.19-15-19.71-10.25-9.79-28.9-22.95-59.59-30s-52.08-3.22-64.74,1.23c-13.65,4.79-20.24,11.33-20.3,11.39a5,5,0,0,1-7.15-7c1.2-1.24,30.24-30.17,94.44-15.37,64,14.74,80.91,54,81.6,55.62a5,5,0,0,1-4.61,6.92Z"/><path class="cls-1" d="M256,381.39a5.52,5.52,0,0,1-1.13-.13,5,5,0,0,1-3.74-6c10.22-44.11,46.85-79.77,48.4-81.27a5,5,0,0,1,6.94,7.2h0c-.36.35-36.06,35.15-45.6,76.32A5,5,0,0,1,256,381.39Z"/><path class="cls-1" d="M256,434.27a5,5,0,0,1-5-5c0-24.81,11.1-48.24,32.1-67.75a134.36,134.36,0,0,1,31.81-22.06,5,5,0,0,1,4.18,9.09c-.74.34-58.09,27.54-58.09,80.72A5,5,0,0,1,256,434.27Z"/><path class="cls-1" d="M256,440.75a5,5,0,0,1-5-5c0-17.75,5.44-31.06,16.16-39.56,19.42-15.4,48.74-8.77,50-8.48a5,5,0,1,1-2.27,9.73h0c-.26-.05-25.93-5.8-41.53,6.61-8.19,6.51-12.34,17.18-12.34,31.7A5,5,0,0,1,256,440.75Z"/></g><g id="Outline"><path class="cls-1" d="M256,277.77a5,5,0,0,1-5-5V31a5,5,0,0,1,10,0V272.77A5,5,0,0,1,256,277.77Z"/><path class="cls-1" d="M209,302.6a5,5,0,0,1-4.65-3.17C161.1,190.16,100.54,104.91,99.93,104.06a5,5,0,0,1,8.14-5.81c.61.85,61.86,87,105.58,197.5A5,5,0,0,1,209,302.6Z"/><path class="cls-1" d="M195,349a5,5,0,0,1-3-1c-65.32-49.45-175.91-73.33-177-73.57A5,5,0,0,1,17,264.64,649.53,649.53,0,0,1,82,283c33.54,11.32,80.9,30.4,116.05,57a5,5,0,0,1-3,9Z"/><path class="cls-1" d="M28,436.43a5,5,0,0,1-2.07-9.55c.84-.38,84.94-38.22,170-39.3H196a5,5,0,0,1,.06,10c-83,1.06-165.17,38-166,38.41A4.89,4.89,0,0,1,28,436.43Z"/><path class="cls-1" d="M303,302.6a5,5,0,0,1-4.65-6.85c43.72-110.46,105-196.65,105.58-197.5a5,5,0,0,1,8.14,5.81c-.61.85-61.17,86.1-104.42,195.37A5,5,0,0,1,303,302.6Z"/><path class="cls-1" d="M317,349a5,5,0,0,1-3-9c35.15-26.61,82.51-45.69,116-57A649.53,649.53,0,0,1,495,264.64a5,5,0,1,1,2.08,9.78c-1.11.24-111.71,24.12-177,73.57A5,5,0,0,1,317,349Z"/><path class="cls-1" d="M484,436.43a4.89,4.89,0,0,1-2.07-.45c-.82-.37-83.08-37.35-166-38.41a5,5,0,1,1,.12-10c85.07,1.08,169.17,38.92,170,39.3a5,5,0,0,1-2.07,9.55Z"/></g></svg>