<?xml version="1.0" ?><svg viewBox="0 0 512 512" xmlns="http://www.w3.org/2000/svg"><defs><style>.cls-1{fill:#3f4468;}.cls-2{fill:#3d446b;}</style></defs><title/><g id="Lines"><path class="cls-1" d="M285,202.14a76.08,76.08,0,0,1-75.94-76V104L209,102.2a1.09,1.09,0,0,1,0-.18,76,76,0,1,1,151.94,0l0,2.12,0,22A76.1,76.1,0,0,1,285,202.14ZM219,101.93l.07,1.84V126.1a66,66,0,1,0,131.93,0l-.06-24A66,66,0,1,0,219,101.93Z"/><path class="cls-1" d="M386.06,260.91a5,5,0,0,1-5-5v-27c0-17.73-7.23-31.73-21.48-41.63a65.07,65.07,0,0,0-21.75-9.75,5,5,0,0,1,1.95-9.81,75,75,0,0,1,25.51,11.34c11.75,8.17,25.77,23.45,25.77,49.85v27A5,5,0,0,1,386.06,260.91Z"/><path class="cls-1" d="M183.5,237.91a5,5,0,0,1-5-5v-4c0-26.4,14-41.68,25.77-49.85a75,75,0,0,1,25.51-11.34,5,5,0,0,1,1.95,9.81c-1.76.36-43.23,9.23-43.23,51.38v4A5,5,0,0,1,183.5,237.91Z"/><path class="cls-1" d="M496.5,500.5H17.41a5,5,0,0,1-5-5V256.65a5,5,0,0,1,5-5H496.5a5,5,0,0,1,5,5V495.5A5,5,0,0,1,496.5,500.5Zm-474.09-10H491.5V261.65H22.41Z"/><path class="cls-1" d="M355.66,100H214.24a5,5,0,0,1,0-10H355.66a5,5,0,0,1,0,10Z"/><path class="cls-1" d="M215,147.35H199.12a15,15,0,0,1-15-15v-28a15,15,0,0,1,15-15h15.12a5,5,0,0,1,0,10H199.12a5,5,0,0,0-5,5v28a5,5,0,0,0,5,5H215a5,5,0,0,1,0,10Z"/><path class="cls-1" d="M371.49,147.35H355.66a5,5,0,0,1,0-10h15.83a5,5,0,0,0,5-5v-28a5,5,0,0,0-5-5H356.37a5,5,0,0,1,0-10h15.12a15,15,0,0,1,15,15v28A15,15,0,0,1,371.49,147.35Z"/><path class="cls-1" d="M199.41,99h-.12a5,5,0,0,1-4.88-5.12A100.61,100.61,0,0,1,206.5,51.76c10.69-19.35,33.1-42.41,79.12-42.41,45.71,0,67.45,23.12,77.63,42.51a99.63,99.63,0,0,1,11,42.16,5,5,0,0,1-10,0,91.1,91.1,0,0,0-10-37.83c-13-24.44-36.06-36.84-68.61-36.84-33,0-56.71,12.53-70.37,37.25a91.28,91.28,0,0,0-10.84,37.53A5,5,0,0,1,199.41,99Z"/><path class="cls-1" d="M262.62,141H243.4a15,15,0,0,1-15-15v-5.5a15,15,0,0,1,15-15h19.22a15,15,0,0,1,15,15V126A15,15,0,0,1,262.62,141Zm-19.22-25.5a5,5,0,0,0-5,5V126a5,5,0,0,0,5,5h19.22a5,5,0,0,0,5-5v-5.5a5,5,0,0,0-5-5Z"/><path class="cls-1" d="M323.74,141H304.53a15,15,0,0,1-15-15v-5.5a15,15,0,0,1,15-15h19.21a15,15,0,0,1,15,15V126A15,15,0,0,1,323.74,141Zm-19.21-25.5a5,5,0,0,0-5,5V126a5,5,0,0,0,5,5h19.21a5,5,0,0,0,5-5v-5.5a5,5,0,0,0-5-5Z"/><path class="cls-1" d="M294.53,125.52H272.62a5,5,0,0,1,0-10h21.91a5,5,0,0,1,0,10Z"/><path class="cls-1" d="M233.4,125.52H215a5,5,0,0,1,0-10H233.4a5,5,0,0,1,0,10Z"/><path class="cls-1" d="M355.66,125.52H333.74a5,5,0,0,1,0-10h21.92a5,5,0,0,1,0,10Z"/><path class="cls-1" d="M206.5,260.91a5,5,0,0,1-5-5,18,18,0,1,0-36,0,5,5,0,1,1-10,0,28,28,0,1,1,56,0A5,5,0,0,1,206.5,260.91Z"/><path class="cls-1" d="M342,260.91a5,5,0,0,1-5-5V222.35a5,5,0,0,1,10,0v33.56A5,5,0,0,1,342,260.91Z"/><path class="cls-1" d="M228.89,260.91a5,5,0,0,1-5-5V222.35a5,5,0,0,1,10,0v33.56A5,5,0,0,1,228.89,260.91Z"/><path class="cls-1" d="M424.25,201.34a31.66,31.66,0,1,1,18.4-57.46h0a31.66,31.66,0,0,1-18.4,57.46Zm.09-53.33a21.68,21.68,0,1,0,12.51,4h0A21.5,21.5,0,0,0,424.34,148Z"/><path class="cls-1" d="M470.12,220.68a5.06,5.06,0,0,1-2.43-.63l-37.33-20.72a5,5,0,1,1,4.85-8.74l33.42,18.55,6.73-9.46-27.17-27.93a5,5,0,1,1,7.17-7l30.08,30.91a5,5,0,0,1,.49,6.38l-11.74,16.5A5,5,0,0,1,470.12,220.68Z"/><path class="cls-1" d="M446.09,261a5,5,0,0,1-5-5V202.34a5,5,0,1,1,10,0V256A5,5,0,0,1,446.09,261Z"/><path class="cls-1" d="M17.41,261.65a5,5,0,0,1-5-5V168.27a5,5,0,0,1,5-5H144.5a5,5,0,0,1,5,5v87.66a5,5,0,0,1-10,0V173.27H22.41v83.38A5,5,0,0,1,17.41,261.65Z"/><path class="cls-1" d="M486.5,261.5a5,5,0,0,1-4.09-7.88c7.22-10.27,9.7-19.19,7.36-26.54-3.29-10.29-15.38-14.82-15.5-14.87a5,5,0,1,1,3.33-9.42c.69.24,16.86,6.11,21.69,21.25,3.35,10.48.42,22.37-8.7,35.34A5,5,0,0,1,486.5,261.5Z"/><path class="cls-1" d="M134.22,470.25a91.18,91.18,0,1,1,91.17-91.17A91.28,91.28,0,0,1,134.22,470.25Zm0-172.35a81.18,81.18,0,1,0,81.17,81.18A81.28,81.28,0,0,0,134.22,297.9Z"/><path class="cls-1" d="M134.22,413.31a34.24,34.24,0,1,1,34.24-34.23A34.27,34.27,0,0,1,134.22,413.31Zm0-58.47a24.24,24.24,0,1,0,24.24,24.24A24.26,24.26,0,0,0,134.22,354.84Z"/><path class="cls-1" d="M375.57,470.25a91.18,91.18,0,1,1,91.18-91.17A91.27,91.27,0,0,1,375.57,470.25Zm0-172.35a81.18,81.18,0,1,0,81.18,81.18A81.27,81.27,0,0,0,375.57,297.9Z"/><path class="cls-1" d="M375.57,413.31a34.24,34.24,0,1,1,34.24-34.23A34.27,34.27,0,0,1,375.57,413.31Zm0-58.47a24.24,24.24,0,1,0,24.24,24.24A24.27,24.27,0,0,0,375.57,354.84Z"/><path class="cls-1" d="M467.55,290.68a5,5,0,0,1-5-5v-1a5,5,0,0,1,10,0v1A5,5,0,0,1,467.55,290.68Z"/><path class="cls-1" d="M44.55,290.68a5,5,0,0,1-5-5v-1a5,5,0,0,1,10,0v1A5,5,0,0,1,44.55,290.68Z"/><path class="cls-1" d="M467.55,471.68a5,5,0,0,1-5-5v-1a5,5,0,0,1,10,0v1A5,5,0,0,1,467.55,471.68Z"/><path class="cls-1" d="M44.55,471.68a5,5,0,0,1-5-5v-1a5,5,0,0,1,10,0v1A5,5,0,0,1,44.55,471.68Z"/><path class="cls-1" d="M255.55,290.68a5,5,0,0,1-5-5v-1a5,5,0,0,1,10,0v1A5,5,0,0,1,255.55,290.68Z"/><path class="cls-1" d="M255.55,472.18a5,5,0,0,1-5-5v-1a5,5,0,0,1,10,0v1A5,5,0,0,1,255.55,472.18Z"/></g><g id="Outline"><path class="cls-2" d="M17.41,94.42a5,5,0,0,1-5-5V69.58a5,5,0,0,1,10,0V89.42A5,5,0,0,1,17.41,94.42Z"/><path class="cls-2" d="M38.83,107.65a5,5,0,0,1-5-5V56.35a5,5,0,0,1,10,0v46.3A5,5,0,0,1,38.83,107.65Z"/><path class="cls-2" d="M60.24,127.5a5,5,0,0,1-5-5v-86a5,5,0,1,1,10,0v86A5,5,0,0,1,60.24,127.5Z"/><path class="cls-2" d="M81.66,109a5,5,0,0,1-5-5V55a5,5,0,0,1,10,0v49A5,5,0,0,1,81.66,109Z"/><path class="cls-2" d="M103.08,94.42a5,5,0,0,1-5-5V69.58a5,5,0,0,1,10,0V89.42A5,5,0,0,1,103.08,94.42Z"/><path class="cls-2" d="M124.49,118.55a5,5,0,0,1-5-5V45.45a5,5,0,0,1,10,0v68.1A5,5,0,0,1,124.49,118.55Z"/><path class="cls-2" d="M145.91,144.5a5,5,0,0,1-5-5V19.5a5,5,0,0,1,10,0v120A5,5,0,0,1,145.91,144.5Z"/><path class="cls-2" d="M167.33,120.5a5,5,0,0,1-5-5v-72a5,5,0,0,1,10,0v72A5,5,0,0,1,167.33,120.5Z"/><path class="cls-2" d="M389.83,75.35a5,5,0,0,1-5-5V50.5a5,5,0,0,1,10,0V70.35A5,5,0,0,1,389.83,75.35Z"/><path class="cls-2" d="M411.25,83.58a5,5,0,0,1-5-5V43.27a5,5,0,1,1,10,0V78.58A5,5,0,0,1,411.25,83.58Z"/><path class="cls-2" d="M432.67,94.42a5,5,0,0,1-5-5v-61a5,5,0,0,1,10,0v61A5,5,0,0,1,432.67,94.42Z"/><path class="cls-2" d="M454.08,84.9a5,5,0,0,1-5-5V42a5,5,0,1,1,10,0v38A5,5,0,0,1,454.08,84.9Z"/><path class="cls-2" d="M475.5,75.35a5,5,0,0,1-5-5V50.5a5,5,0,0,1,10,0V70.35A5,5,0,0,1,475.5,75.35Z"/><path class="cls-2" d="M496.5,70.42a5,5,0,0,1-5-5v-10a5,5,0,1,1,10,0v10A5,5,0,0,1,496.5,70.42Z"/><path class="cls-1" d="M290.27,245.74a21.23,21.23,0,0,1-5.55-.74c-4.54-1.23-8.1-4-11.24-6.41-4.05-3.13-6.71-5-10.13-4.78-5.16.4-8.35,5.49-9.79,8.48a5,5,0,1,1-9-4.33c4.05-8.41,10.63-13.55,18.06-14.12s12.73,3.54,17,6.84c2.63,2,5.12,4,7.74,4.67a11.1,11.1,0,0,0,3.32.39A16.48,16.48,0,0,1,287,219.8c2-6.46,6.52-10.81,12.08-11.63a12.82,12.82,0,0,1,12.58,5.59c3.51,5.2,3.2,12.18-.87,19.13q-.52.92-1.11,1.77a33.75,33.75,0,0,0,13.22-.87,5,5,0,0,1,2.44,9.7c-8.75,2.2-17.27,1.87-24.2-.72A21.62,21.62,0,0,1,290.27,245.74ZM300.92,218l-.41,0c-1.68.25-3.14,2-4,4.7a6.8,6.8,0,0,0,2,6.77,11.64,11.64,0,0,0,1.45,1.31,19,19,0,0,0,2.15-3c2-3.45,2.47-6.62,1.21-8.48A2.94,2.94,0,0,0,300.92,218Z"/><path class="cls-1" d="M250.55,444a5,5,0,0,1,5-5h0a5,5,0,0,1,5,5h0a5,5,0,0,1-5,5h0A5,5,0,0,1,250.55,444Zm0-20a5,5,0,0,1,5-5h0a5,5,0,0,1,5,5h0a5,5,0,0,1-5,5h0A5,5,0,0,1,250.55,424Zm0-20a5,5,0,0,1,5-5h0a5,5,0,0,1,5,5h0a5,5,0,0,1-5,5h0A5,5,0,0,1,250.55,404Zm0-20a5,5,0,0,1,5-5h0a5,5,0,0,1,5,5h0a5,5,0,0,1-5,5h0A5,5,0,0,1,250.55,384Zm0-20a5,5,0,0,1,5-5h0a5,5,0,0,1,5,5h0a5,5,0,0,1-5,5h0A5,5,0,0,1,250.55,364Zm0-20a5,5,0,0,1,5-5h0a5,5,0,0,1,5,5h0a5,5,0,0,1-5,5h0A5,5,0,0,1,250.55,344Zm0-20a5,5,0,0,1,5-5h0a5,5,0,0,1,5,5h0a5,5,0,0,1-5,5h0A5,5,0,0,1,250.55,324Zm0-20a5,5,0,0,1,5-5h0a5,5,0,0,1,5,5h0a5,5,0,0,1-5,5h0A5,5,0,0,1,250.55,304Z"/></g></svg>