<?xml version="1.0" ?><svg viewBox="0 0 512 512" xmlns="http://www.w3.org/2000/svg"><defs><style>.cls-1{fill:#3f456b;}</style></defs><title/><g id="Lines"><path class="cls-1" d="M302.69,467H48.31A37.36,37.36,0,0,1,11,429.69V48.31A37.36,37.36,0,0,1,48.31,11H302.69A37.36,37.36,0,0,1,340,48.31V429.69A37.36,37.36,0,0,1,302.69,467ZM48.31,21A27.34,27.34,0,0,0,21,48.31V429.69A27.34,27.34,0,0,0,48.31,457H302.69A27.34,27.34,0,0,0,330,429.69V48.31A27.34,27.34,0,0,0,302.69,21Z"/><path class="cls-1" d="M255,272H96c-11.31,0-20.34-3.4-26.84-10.11C58.94,251.35,59,236.43,59,234.94V16a5,5,0,0,1,10,0V235.16c0,.1-.2,12.05,7.4,19.83,4.54,4.65,11.13,7,19.6,7H255c8.47,0,15.06-2.36,19.6-7,7.6-7.78,7.4-19.73,7.4-19.85V16a5,5,0,0,1,10,0V234.94c0,1.49.06,16.41-10.16,26.95C275.34,268.6,266.31,272,255,272Z"/><path class="cls-1" d="M294,501H57a15,15,0,0,1-15-15V462a5,5,0,0,1,10,0v24a5,5,0,0,0,5,5H294a5,5,0,0,0,5-5V462a5,5,0,0,1,10,0v24A15,15,0,0,1,294,501Z"/></g><g id="Outline"><path class="cls-1" d="M433.53,68.29c-8.6,0-16-3.71-23.93-11.64-6.47-6.48-15-8.41-25.47-5.75a52.58,52.58,0,0,0-15,6.61,5,5,0,0,1-5.68-8.22c10.8-7.49,35.83-17.07,53.19.29C425,57.94,431.16,59.85,441,57.15c4.75-1.3,8.15-4.46,11.74-7.81s7.38-6.89,12.74-8.82C478.1,36,491.06,39.15,501,49.22a5,5,0,1,1-7.11,7c-7.21-7.29-16.1-9.54-25-6.32-3.42,1.23-6.14,3.78-9.3,6.72-4.12,3.84-8.79,8.19-15.91,10.15A38.37,38.37,0,0,1,433.53,68.29Z"/><path class="cls-1" d="M433.53,120.27c-8.6,0-16-3.71-23.93-11.64-15.85-15.86-40.17.69-40.42.86a5,5,0,1,1-5.69-8.22c10.8-7.49,35.83-17.07,53.19.29,8.35,8.36,14.48,10.27,24.31,7.58,4.76-1.31,8.15-4.47,11.74-7.82s7.38-6.89,12.74-8.81C478.1,88,491.06,91.13,501,101.2a5,5,0,0,1-7.11,7c-7.21-7.29-16.1-9.53-25-6.31-3.42,1.23-6.14,3.77-9.3,6.71-4.12,3.85-8.79,8.2-15.91,10.15A38,38,0,0,1,433.53,120.27Z"/><path class="cls-1" d="M433.53,172.25c-8.6,0-16-3.7-23.93-11.63-6.47-6.48-15-8.42-25.47-5.75a52.58,52.58,0,0,0-15,6.61,5,5,0,0,1-5.68-8.23c10.8-7.49,35.83-17.07,53.19.29,8.35,8.36,14.48,10.28,24.31,7.58,4.75-1.3,8.15-4.47,11.74-7.81s7.38-6.9,12.74-8.82c12.63-4.55,25.59-1.38,35.54,8.69a5,5,0,0,1-7.11,7c-7.21-7.29-16.1-9.53-25-6.31-3.42,1.23-6.14,3.77-9.3,6.72-4.12,3.84-8.79,8.19-15.91,10.14A38,38,0,0,1,433.53,172.25Z"/><path class="cls-1" d="M433.53,225.25c-8.6,0-16-3.7-23.93-11.63-6.47-6.48-15-8.42-25.47-5.75a52.58,52.58,0,0,0-15,6.61,5,5,0,0,1-5.68-8.23c10.8-7.49,35.83-17.07,53.19.29,8.35,8.36,14.48,10.28,24.31,7.58,4.75-1.3,8.15-4.47,11.74-7.81s7.38-6.9,12.74-8.82c12.63-4.55,25.59-1.38,35.54,8.69a5,5,0,0,1-7.11,7c-7.21-7.29-16.1-9.53-25-6.31-3.42,1.23-6.14,3.77-9.3,6.72-4.12,3.84-8.79,8.19-15.91,10.14A38,38,0,0,1,433.53,225.25Z"/><path class="cls-1" d="M433.53,278.25c-8.6,0-16-3.7-23.93-11.63-6.47-6.48-15-8.42-25.47-5.75a52.58,52.58,0,0,0-15,6.61,5,5,0,0,1-5.68-8.23c10.8-7.49,35.83-17.07,53.19.29,8.35,8.36,14.48,10.28,24.31,7.58,4.75-1.3,8.15-4.47,11.74-7.81s7.38-6.9,12.74-8.82c12.63-4.55,25.59-1.38,35.54,8.69a5,5,0,0,1-7.11,7c-7.21-7.29-16.1-9.53-25-6.31-3.42,1.23-6.14,3.77-9.3,6.72-4.12,3.84-8.79,8.19-15.91,10.14A38,38,0,0,1,433.53,278.25Z"/><path class="cls-1" d="M229,358H122a5,5,0,0,1,0-10H229a5,5,0,0,1,0,10Z"/><path class="cls-1" d="M149.22,403.5a4.91,4.91,0,0,1-2.49-.67A5,5,0,0,1,144.9,396l52.54-91a5,5,0,0,1,8.66,5l-52.54,91A5,5,0,0,1,149.22,403.5Z"/><path class="cls-1" d="M201.78,403.5a5,5,0,0,1-4.34-2.5L144.9,310a5,5,0,0,1,8.66-5l52.54,91a5,5,0,0,1-1.83,6.83A4.91,4.91,0,0,1,201.78,403.5Z"/><path class="cls-1" d="M286,245H66a5,5,0,0,1,0-10H286a5,5,0,0,1,0,10Z"/><path class="cls-1" d="M287,217H64a5,5,0,0,1,0-10H287a5,5,0,0,1,0,10Z"/><path class="cls-1" d="M287,189H64a5,5,0,0,1,0-10H287a5,5,0,0,1,0,10Z"/><path class="cls-1" d="M287,161H64a5,5,0,0,1,0-10H287a5,5,0,0,1,0,10Z"/><path class="cls-1" d="M287,133H64a5,5,0,0,1,0-10H287a5,5,0,0,1,0,10Z"/><path class="cls-1" d="M287,106H64a5,5,0,0,1,0-10H287a5,5,0,0,1,0,10Z"/><path class="cls-1" d="M287,78H64a5,5,0,0,1,0-10H287a5,5,0,0,1,0,10Z"/><path class="cls-1" d="M287,50H64a5,5,0,0,1,0-10H287a5,5,0,0,1,0,10Z"/></g></svg>