<?xml version="1.0" ?><svg id="Lines" viewBox="0 0 512 512" xmlns="http://www.w3.org/2000/svg"><defs><style>.cls-1{fill:#3f466a;}</style></defs><title/><path class="cls-1" d="M78.37,191.57a4.93,4.93,0,0,1-2.48-.66c-13.83-7.91-22.42-23.3-22.42-40.15,0-25.06,18.93-45.44,42.18-45.44s42.19,20.38,42.19,45.44c0,16-8,31-20.8,39.17a5,5,0,1,1-5.36-8.44c10-6.32,16.16-18.1,16.16-30.73,0-19.54-14.44-35.44-32.19-35.44s-32.18,15.9-32.18,35.44c0,13.28,6.66,25.33,17.38,31.47a5,5,0,0,1-2.48,9.34Z"/><path class="cls-1" d="M48.58,342.59c-14.1,0-23.95-8.87-29.27-26.37-4.29-14.11-6.2-34.55-6.2-66.29,0-31.47,17.88-47.11,32.87-54.69A87.64,87.64,0,0,1,73.37,187v-.12a5,5,0,0,1,10,0v4.66a5,5,0,0,1-4.8,5c-2.26.1-55.46,3-55.46,53.45,0,59.49,7.14,82.66,25.47,82.66a5,5,0,0,1,0,10Z"/><path class="cls-1" d="M144.39,342.38a5,5,0,0,1,0-10c9.8,0,17.44-5.8,22.87-34.07,2.72-14.13,3.33-29.81,1.85-47.91C167.93,236,166.3,224.25,157,214.54c-6.69-7-16.23-12.41-27.58-15.59-1.36-.33-11.95-2.4-14.47-2.69h-.38a5,5,0,0,1-5-5v-4.65a5,5,0,0,1,10,0v.24c1.1.19,2.37.43,3.87.71,2.65.5,7.82,1.51,8.68,1.75,13.08,3.67,24.18,10,32.11,18.31,11.5,12.06,13.57,26.72,14.81,42,1.56,19,.91,35.58-2,50.62C172.87,322.11,166,342.38,144.39,342.38Z"/><path class="cls-1" d="M80.54,501.68c-12.08,0-21.86-8.57-25.56-22.37-4.56-17-5.52-35.59-6.45-53.55-.2-3.81-.4-7.57-.62-11.27-1.23-19.86-2-41.37-2.35-65.77-.53-36.11,0-67.72,1.66-96.64a5,5,0,1,1,10,.57c-1.63,28.68-2.17,60.06-1.65,95.92.36,24.25,1.12,45.6,2.34,65.3.23,3.73.42,7.53.62,11.37.91,17.45,1.84,35.49,6.13,51.48,2.51,9.37,8.44,15,15.86,15l31.94-.22c7.45,0,13.38-5.59,15.89-15,4.29-16,5.23-34,6.13-51.48.2-3.83.4-7.63.63-11.36,1.21-19.7,2-41.06,2.33-65.3.52-35.87,0-67.24-1.65-95.93a5,5,0,0,1,10-.56c1.64,28.92,2.19,60.53,1.66,96.64-.36,24.39-1.13,45.91-2.35,65.76-.23,3.7-.42,7.47-.62,11.27-.93,18-1.9,36.55-6.46,53.55-3.7,13.8-13.48,22.37-25.52,22.37Z"/><path class="cls-1" d="M96.49,501.68a5,5,0,0,1-5-5V336a5,5,0,0,1,10,0V496.68A5,5,0,0,1,96.49,501.68Z"/><path class="cls-1" d="M238.87,191.57a4.93,4.93,0,0,1-2.48-.66C222.56,183,214,167.61,214,150.76c0-25.06,18.93-45.44,42.18-45.44s42.19,20.38,42.19,45.44c0,16-8,31-20.8,39.17a5,5,0,0,1-5.36-8.44c10-6.32,16.16-18.1,16.16-30.73,0-19.54-14.44-35.44-32.19-35.44S224,131.22,224,150.76c0,13.28,6.66,25.33,17.38,31.47a5,5,0,0,1-2.48,9.34Z"/><path class="cls-1" d="M209.08,342.59c-14.1,0-24-8.87-29.27-26.37-4.29-14.11-6.2-34.55-6.2-66.29,0-31.47,17.88-47.11,32.88-54.69A87.53,87.53,0,0,1,233.87,187v-.12a5,5,0,0,1,10,0v4.66a5,5,0,0,1-4.8,5c-2.25.1-55.46,3-55.46,53.45,0,59.49,7.14,82.66,25.47,82.66a5,5,0,0,1,0,10Z"/><path class="cls-1" d="M304.89,342.38a5,5,0,0,1,0-10c9.8,0,17.44-5.8,22.87-34.07,2.72-14.13,3.33-29.81,1.85-47.91-1.18-14.38-2.81-26.15-12.08-35.86-6.69-7-16.23-12.41-27.58-15.59-1.36-.33-11.95-2.4-14.47-2.69h-.38a5,5,0,0,1-5-5v-4.65a5,5,0,0,1,10,0v.24c1.1.19,2.37.43,3.87.71,2.65.5,7.82,1.51,8.68,1.75,13.08,3.67,24.18,10,32.11,18.31,11.5,12.06,13.57,26.73,14.81,42,1.56,19,.91,35.58-2,50.62C333.37,322.11,326.49,342.38,304.89,342.38Z"/><path class="cls-1" d="M241,501.68c-12.08,0-21.86-8.57-25.56-22.37-4.56-17-5.52-35.59-6.45-53.55-.2-3.81-.4-7.57-.63-11.27-1.22-19.85-2-41.36-2.34-65.77-.53-36.12,0-67.73,1.66-96.64a5,5,0,1,1,10,.57c-1.63,28.67-2.17,60-1.65,95.92.36,24.26,1.12,45.62,2.34,65.3.23,3.73.42,7.53.62,11.37.91,17.45,1.84,35.49,6.13,51.48,2.51,9.37,8.44,15,15.86,15l31.94-.22c7.45,0,13.38-5.59,15.89-15,4.29-16,5.23-34,6.13-51.48.2-3.84.4-7.63.63-11.36,1.21-19.71,2-41.07,2.33-65.3.53-35.87,0-67.25-1.65-95.93a5,5,0,0,1,10-.56c1.64,28.92,2.19,60.53,1.66,96.64-.36,24.38-1.13,45.89-2.35,65.76-.23,3.7-.42,7.46-.62,11.27-.93,18-1.9,36.54-6.46,53.55-3.7,13.8-13.48,22.37-25.52,22.37Z"/><path class="cls-1" d="M257,501.68a5,5,0,0,1-5-5V336a5,5,0,0,1,10,0V496.68A5,5,0,0,1,257,501.68Z"/><path class="cls-1" d="M399.37,191.57a4.93,4.93,0,0,1-2.48-.66c-13.83-7.91-22.42-23.3-22.42-40.15,0-25.06,18.93-45.44,42.18-45.44s42.19,20.38,42.19,45.44c0,16-8,31-20.8,39.17a5,5,0,0,1-5.36-8.44c10-6.32,16.16-18.1,16.16-30.73,0-19.54-14.44-35.44-32.19-35.44s-32.18,15.9-32.18,35.44c0,13.28,6.66,25.33,17.38,31.47a5,5,0,0,1-2.48,9.34Z"/><path class="cls-1" d="M369.58,342.59c-14.1,0-23.95-8.87-29.27-26.37-4.29-14.11-6.2-34.55-6.2-66.29,0-31.47,17.88-47.11,32.88-54.69A87.53,87.53,0,0,1,394.37,187v-.12a5,5,0,0,1,10,0v4.66a5,5,0,0,1-4.8,5c-2.25.1-55.46,3-55.46,53.45,0,59.49,7.14,82.66,25.47,82.66a5,5,0,0,1,0,10Z"/><path class="cls-1" d="M465.39,342.38a5,5,0,0,1,0-10c9.8,0,17.44-5.8,22.87-34.07,2.72-14.13,3.33-29.81,1.85-47.91C488.93,236,487.3,224.25,478,214.54c-6.69-7-16.23-12.41-27.58-15.59-1.36-.33-11.95-2.4-14.47-2.69h-.38a5,5,0,0,1-5-5v-4.65a5,5,0,0,1,10,0v.24c1.1.19,2.37.43,3.87.71,2.65.5,7.82,1.51,8.68,1.75,13.08,3.67,24.18,10,32.11,18.31,11.5,12.06,13.57,26.73,14.81,42,1.56,19,.91,35.58-2,50.62C493.87,322.11,487,342.38,465.39,342.38Z"/><path class="cls-1" d="M401.54,501.68c-12.08,0-21.86-8.57-25.56-22.37-4.56-17-5.52-35.59-6.45-53.55-.2-3.81-.4-7.57-.62-11.27-1.23-19.85-2-41.36-2.35-65.77-.53-36.12,0-67.73,1.66-96.64a5,5,0,1,1,10,.57c-1.63,28.67-2.17,60-1.65,95.92.36,24.26,1.12,45.62,2.34,65.3.23,3.73.42,7.53.62,11.37.91,17.45,1.84,35.49,6.13,51.48,2.51,9.37,8.44,15,15.86,15l31.94-.22c7.45,0,13.38-5.59,15.89-15,4.29-16,5.23-34,6.13-51.48.2-3.84.4-7.63.63-11.36,1.21-19.71,2-41.07,2.33-65.3.53-35.87,0-67.25-1.65-95.93a5,5,0,0,1,10-.56c1.64,28.92,2.19,60.53,1.66,96.64-.36,24.38-1.13,45.89-2.35,65.76-.23,3.7-.42,7.46-.62,11.27-.93,18-1.9,36.54-6.46,53.55-3.7,13.8-13.48,22.37-25.52,22.37Z"/><path class="cls-1" d="M417.49,501.68a5,5,0,0,1-5-5V336a5,5,0,0,1,10,0V496.68A5,5,0,0,1,417.49,501.68Z"/><path class="cls-1" d="M496.5,157.84H16.5a5,5,0,0,1,0-10h480a5,5,0,0,1,0,10Z"/><path class="cls-1" d="M80.51,172.65A5,5,0,0,1,77,164.12l32-32a5,5,0,0,1,7.07,7.07l-32,32A5,5,0,0,1,80.51,172.65Z"/><path class="cls-1" d="M112.47,172.65a5,5,0,0,1-3.54-1.46l-32-32A5,5,0,1,1,84,132.16l32,32a5,5,0,0,1-3.53,8.53Z"/><path class="cls-1" d="M239.79,172.65a5,5,0,0,1-3.54-8.53l32-32a5,5,0,1,1,7.07,7.07l-32,32A5,5,0,0,1,239.79,172.65Z"/><path class="cls-1" d="M271.74,172.65a5,5,0,0,1-3.53-1.46l-32-32a5,5,0,0,1,7.07-7.07l32,32a5,5,0,0,1-3.54,8.53Z"/><path class="cls-1" d="M400.52,172.65a5,5,0,0,1-3.53-8.53l31.95-32a5,5,0,1,1,7.07,7.07l-31.95,32A5,5,0,0,1,400.52,172.65Z"/><path class="cls-1" d="M432.48,172.65a5,5,0,0,1-3.54-1.46l-31.95-32a5,5,0,1,1,7.07-7.07l31.95,32a5,5,0,0,1-3.53,8.53Z"/><path class="cls-1" d="M496.5,37.43H16.5a5,5,0,0,1,0-10h480a5,5,0,0,1,0,10Z"/><path class="cls-1" d="M80.51,52.24A5,5,0,0,1,77,43.7l32-31.95A5,5,0,0,1,116,18.82l-32,32A5,5,0,0,1,80.51,52.24Z"/><path class="cls-1" d="M112.47,52.24a5,5,0,0,1-3.54-1.47L77,18.82A5,5,0,1,1,84,11.75l32,32a5,5,0,0,1,0,7.07A5,5,0,0,1,112.47,52.24Z"/><path class="cls-1" d="M239.79,52.24a5,5,0,0,1-3.54-8.54l32-31.95a5,5,0,1,1,7.07,7.07l-32,32A5,5,0,0,1,239.79,52.24Z"/><path class="cls-1" d="M271.74,52.24a5,5,0,0,1-3.53-1.47l-32-31.95a5,5,0,1,1,7.07-7.07l32,32a5,5,0,0,1-3.54,8.54Z"/><path class="cls-1" d="M400.52,52.24A5,5,0,0,1,397,43.7l31.95-31.95A5,5,0,1,1,436,18.82l-31.95,32A5,5,0,0,1,400.52,52.24Z"/><path class="cls-1" d="M432.48,52.24a5,5,0,0,1-3.54-1.47L397,18.82a5,5,0,1,1,7.07-7.07L436,43.7a5,5,0,0,1-3.53,8.54Z"/><path class="cls-1" d="M496.5,285.25H16.5a5,5,0,0,1,0-10h480a5,5,0,0,1,0,10Z"/><path class="cls-1" d="M80.51,300.07A5,5,0,0,1,77,291.53l32-32a5,5,0,0,1,7.07,7.07l-32,32A5,5,0,0,1,80.51,300.07Z"/><path class="cls-1" d="M112.47,300.07a5,5,0,0,1-3.54-1.47l-32-32A5,5,0,0,1,84,259.57l32,32a5,5,0,0,1,0,7.07A5,5,0,0,1,112.47,300.07Z"/><path class="cls-1" d="M239.79,300.07a5,5,0,0,1-3.54-8.54l32-32a5,5,0,0,1,7.07,7.07l-32,32A5,5,0,0,1,239.79,300.07Z"/><path class="cls-1" d="M271.74,300.07a5,5,0,0,1-3.53-1.47l-32-32a5,5,0,0,1,7.07-7.07l32,32a5,5,0,0,1-3.54,8.54Z"/><path class="cls-1" d="M400.52,300.07a5,5,0,0,1-3.53-8.54l31.95-32a5,5,0,0,1,7.07,7.07l-31.95,32A5,5,0,0,1,400.52,300.07Z"/><path class="cls-1" d="M432.48,300.07a5,5,0,0,1-3.54-1.47l-31.95-32a5,5,0,0,1,7.07-7.07l31.95,32a5,5,0,0,1-3.53,8.54Z"/><path class="cls-1" d="M496.5,412.67H16.5a5,5,0,0,1,0-10h480a5,5,0,0,1,0,10Z"/><path class="cls-1" d="M80.51,427.48A5,5,0,0,1,77,418.94l32-31.95a5,5,0,1,1,7.07,7.07L84,426A5,5,0,0,1,80.51,427.48Z"/><path class="cls-1" d="M112.47,427.48a5,5,0,0,1-3.54-1.47L77,394.06A5,5,0,1,1,84,387l32,31.95a5,5,0,0,1,0,7.07A5,5,0,0,1,112.47,427.48Z"/><path class="cls-1" d="M239.79,427.48a5,5,0,0,1-3.54-8.54l32-31.95a5,5,0,1,1,7.07,7.07l-32,31.95A5,5,0,0,1,239.79,427.48Z"/><path class="cls-1" d="M271.74,427.48a5,5,0,0,1-3.53-1.47l-32-31.95a5,5,0,1,1,7.07-7.07l32,31.95a5,5,0,0,1-3.54,8.54Z"/><path class="cls-1" d="M400.52,427.48a5,5,0,0,1-3.53-8.54L428.94,387a5,5,0,1,1,7.07,7.07L404.06,426A5,5,0,0,1,400.52,427.48Z"/><path class="cls-1" d="M432.48,427.48a5,5,0,0,1-3.54-1.47L397,394.06a5,5,0,1,1,7.07-7.07L436,418.94a5,5,0,0,1-3.53,8.54Z"/></svg>