<?xml version="1.0" ?><svg viewBox="0 0 512 512" xmlns="http://www.w3.org/2000/svg"><defs><style>.cls-1{fill:#3f456b;}</style></defs><title/><g id="Lines"><path class="cls-1" d="M259.79,237.28c-23.54,0-45-2.75-51.23-4.75-9.94-3.17-12.23-11.76-12.06-16.07a79.63,79.63,0,0,1,1.3-16.64c.47-3,1-6.75,1.71-12.16.33-2.74-.1-4.14-.61-4.54-1.31-1-5.45-.41-7.73.46a2.06,2.06,0,0,1-.35.12c-17,5.09-27.8-7.3-31.25-14.69-7.58-14.16-11.92-33.34-11.92-52.63,0-29.4,9.4-55.9,26.46-74.62C192.75,21.31,219.69,10.5,252,10.5h9c32.33,0,59.27,10.81,77.91,31.26,17.06,18.72,26.46,45.22,26.46,74.62,0,19.46-4.35,38.74-11.93,52.91-3.44,7.33-14.3,19.63-31.24,14.54l-.33-.1c-2.76-1-6.76-1.45-7.94-.5-.44.37-.82,1.73-.44,4.38.36,2.44.79,4.85,1.21,7.19,1.24,6.86,2.51,13.94,1.82,22,0,10.4-7.17,14.92-11,15.86C291.86,236.08,275.36,237.28,259.79,237.28ZM196.43,172.6a13.82,13.82,0,0,1,8.63,2.64c2.51,2,5.32,5.92,4.38,13.63-.68,5.57-1.28,9.41-1.76,12.48a69.72,69.72,0,0,0-1.18,15.08,2.81,2.81,0,0,1,0,.41c0,1,.28,4.62,5.11,6.17,8.62,2.75,58.87,8.14,91.4-.07.87-.27,3.56-1.5,3.49-6.29a4.87,4.87,0,0,1,0-.54c.62-6.78-.5-13-1.68-19.54-.43-2.41-.88-4.91-1.26-7.52-1.12-7.64,1.59-11.62,4.06-13.61,6.06-4.87,15.31-2,17.55-1.14,13,3.8,19-8.8,19.22-9.34l.13-.28c6.77-12.58,10.81-30.64,10.81-48.3,0-26.9-8.47-51-23.85-67.88-16.69-18.32-41.08-28-70.52-28h-9c-29.44,0-53.83,9.68-70.52,28-15.38,16.87-23.85,41-23.85,67.88,0,17.75,3.94,35.26,10.8,48l.15.28c.62,1.34,6.58,13.15,19.2,9.47A26.89,26.89,0,0,1,196.43,172.6Z"/><path class="cls-1" d="M204.75,149.84a50.82,50.82,0,0,1-8.25-.69c-8.25-1.38-14.66-5.28-19-11.59-9.29-13.39-5.63-32.88-5.47-33.71l.06-.26c.26-1,2.73-10.1,10.23-13.84,2.86-1.43,7.58-2.59,13.78,0a59.1,59.1,0,0,1,11.06,6.49c7.72,5.34,15.69,10.89,36.57,10.59a5,5,0,0,1,5.06,5.27c0,.59-.43,5.93-4.42,13.38h0C237.71,137.84,224.13,149.84,204.75,149.84Zm-23-43.93c-.28,1.64-2.62,16.59,3.92,26,2.82,4.05,6.89,6.47,12.45,7.39,18.57,3.09,31.48-7.53,37.37-18.52h0a36.43,36.43,0,0,0,1.85-4c-19.52-.89-28.55-7.15-35.94-12.27A50.87,50.87,0,0,0,192.2,99c-3.27-1.36-4.9-.56-5.43-.3C184,100.07,182.23,104.32,181.78,105.91Z"/><path class="cls-1" d="M309.2,149.84c-19.38,0-33-12-39.58-24.35-4-7.45-4.39-12.79-4.42-13.38a5,5,0,0,1,5.06-5.27c20.86.31,28.85-5.25,36.57-10.59a59.1,59.1,0,0,1,11.06-6.49c6.21-2.6,10.92-1.44,13.78,0,7.5,3.74,10,12.82,10.23,13.84l.06.26c.16.83,3.82,20.32-5.47,33.71-4.38,6.31-10.79,10.21-19,11.59A50.82,50.82,0,0,1,309.2,149.84Zm-32.62-33.1a36.43,36.43,0,0,0,1.85,4h0c5.89,11,18.79,21.62,37.37,18.52,5.56-.92,9.63-3.34,12.45-7.39,6.54-9.39,4.2-24.34,3.92-26-.44-1.55-2.17-5.83-5-7.22-.53-.26-2.16-1.07-5.43.3a50.87,50.87,0,0,0-9.23,5.49C305.13,109.59,296.1,115.85,276.58,116.74Z"/><path class="cls-1" d="M255.6,236.81a5,5,0,0,1-5-5V210.29a5,5,0,0,1,10,0v21.52A5,5,0,0,1,255.6,236.81Z"/><path class="cls-1" d="M227.42,235.59a5,5,0,0,1-5-5c-.14-14.65,2.41-23.92,2.52-24.31a5,5,0,0,1,9.63,2.69c0,.16-2.28,8.47-2.15,21.52a5,5,0,0,1-5,5.05Z"/><path class="cls-1" d="M284.8,235.59h-.05a5,5,0,0,1-4.95-5.05c.13-13.23-2.13-21.43-2.15-21.51a5,5,0,0,1,9.63-2.7c.11.39,2.66,9.66,2.52,24.31A5,5,0,0,1,284.8,235.59Z"/><path class="cls-1" d="M52.29,500.61a11.1,11.1,0,0,1-1.34-.08c-5.92-.67-9.51-5.49-9.9-6,0,0-23.65-31.87-28.59-38.5a11.35,11.35,0,0,1-2.28-9.33c1.11-5.35,6-8.65,7.26-9.44L130.09,357a5,5,0,0,1,6.91,1.09l18.25,24.57a5,5,0,0,1-.2,6.22C146.29,399.21,69.22,490,61.66,496.72A14,14,0,0,1,52.29,500.61ZM131.9,368,23.08,445.49l-.41.26c-1,.58-2.51,2-2.71,3,0,.12-.09.48.52,1.31,4.95,6.64,28.66,38.59,28.66,38.59a5.25,5.25,0,0,0,3,2A4.13,4.13,0,0,0,55,489.23c5.18-4.58,55.59-63.44,89.83-103.79ZM20.18,441.42h0ZM41.05,494.5h0Zm0,0Z"/><path class="cls-1" d="M151.25,390.65a5,5,0,0,1-2.46-9.36l138.49-77.77-10.16-18.09a21.93,21.93,0,0,1-12.5.78,20.09,20.09,0,0,1-10.87-7.16L146.63,339.2c-2.09,1.18-3.73,4-4.28,5.09l-4.51,18a5,5,0,1,1-9.7-2.44l4.63-18.44a4.91,4.91,0,0,1,.24-.74c.31-.71,3.12-7,8.72-10.18l111.14-62.41a5,5,0,0,1,6.8,1.91c2,3.59,4.47,5.78,7.3,6.5,4.74,1.22,9.53-1.72,9.57-1.75a5,5,0,0,1,7,1.77L298.45,303a5,5,0,0,1-1.92,6.81L153.69,390A5,5,0,0,1,151.25,390.65Z"/><path class="cls-1" d="M339.66,403.49h-.15c-42.88-1.24-71.16-17.49-87.33-30.91-17.66-14.66-25.05-29-25.36-29.62a5,5,0,0,1,8.92-4.53h0c.07.13,7,13.42,23.21,26.77,20.65,17,46.27,26.43,76.23,28.1l2.69-25.51c-15.27-1-57.57-6.9-79.43-42.08a5,5,0,1,1,8.49-5.28C290,357.53,341.26,358,343.29,358h.11a5,5,0,0,1,5,5.52L344.63,399A5,5,0,0,1,339.66,403.49Z"/><path class="cls-1" d="M183.17,441.39c-.87,0-1.72,0-2.57-.12A19.53,19.53,0,0,1,171,438a5,5,0,0,1-1.93-3.11c-.57-3.09-5.53-30.34-5.83-34.79a4.8,4.8,0,0,0-1.69-3l-.15-.11-11.16-8.51a5,5,0,0,1,6.06-7.95L167.39,389a14.73,14.73,0,0,1,5.8,10.45c.18,2.72,3.14,19.63,5.24,31.2,2.63.91,8.53,1.8,17.64-3l-6.95-40.3-3.87-22.75a5,5,0,0,1,9.86-1.67L199,385.68l7.55,43.72a5,5,0,0,1-2.29,5.11C196.83,439.08,189.76,441.39,183.17,441.39Z"/><path class="cls-1" d="M197.21,395l-4.9-8.72,28.55-16c.47-.26,1.27-.79,1.43-1.36a3.17,3.17,0,0,0-.4-1.93.75.75,0,0,1-.07-.12L212.92,351a5,5,0,0,1,8.72-4.89l8.87,15.8a13.15,13.15,0,0,1,1.47,9.46,12.18,12.18,0,0,1-6.22,7.62Z"/><path class="cls-1" d="M207.22,374a5.34,5.34,0,0,1-.69-.05c-9.18-1.26-12.8-9.57-13.44-13.79a5,5,0,0,1,9.88-1.53c.1.54,1,4.87,4.92,5.41a5,5,0,0,1-.67,10Z"/><path class="cls-1" d="M294.09,310.44a5,5,0,0,1-2.87-9.1l74.83-52.24-5.62-10-78.76,44.22a5,5,0,1,1-4.9-8.72l83.12-46.67a5,5,0,0,1,6.81,1.91L377,248.16a5,5,0,0,1-1.5,6.55L297,309.54A5,5,0,0,1,294.09,310.44Z"/><path class="cls-1" d="M370.69,252.14a5,5,0,0,1-2.46-9.36l118-66.26-3.45-6.14-118,66.27a5,5,0,0,1-4.9-8.72l122.38-68.71a5,5,0,0,1,6.8,1.91L497.42,176a5,5,0,0,1-1.92,6.81L373.13,251.5A4.89,4.89,0,0,1,370.69,252.14Z"/><path class="cls-1" d="M281.76,282.54A5,5,0,0,1,277.4,280l-8.51-15.16A5,5,0,0,1,270.8,258l80.58-45.24a5,5,0,0,1,6.81,1.91l8.51,15.16a5,5,0,1,1-8.72,4.9l-6.06-10.81-71.87,40.36,6.07,10.8a5,5,0,0,1-4.36,7.45Z"/><path class="cls-1" d="M456.71,184.3a5,5,0,0,1-4.92-4.17l-4.22-24.81a5,5,0,0,1,2.48-5.2l9-5.05a5,5,0,0,1,6.81,1.91l11.6,20.66a5,5,0,1,1-8.72,4.9l-9.16-16.3-1.57.88,3.63,21.34a5,5,0,0,1-4.1,5.77A6,6,0,0,1,456.71,184.3Z"/><path class="cls-1" d="M255.32,277.44a5,5,0,0,1-2.45-9.36L270.8,258a5,5,0,1,1,4.89,8.72L257.76,276.8A4.89,4.89,0,0,1,255.32,277.44Z"/><path class="cls-1" d="M188.12,340a5,5,0,0,1-2.45-9.36L245,297.29a5,5,0,0,1,4.89,8.72l-59.3,33.3A5.06,5.06,0,0,1,188.12,340Z"/><path class="cls-1" d="M167.08,351.77a5,5,0,0,1-2.46-9.36l.93-.52a5,5,0,1,1,4.89,8.72l-.92.51A4.9,4.9,0,0,1,167.08,351.77Z"/><path class="cls-1" d="M458.54,500.61a14,14,0,0,1-9.36-3.89c-7.56-6.69-84.63-97.51-93.4-107.84a5,5,0,0,1-.2-6.22l18.25-24.57a5,5,0,0,1,6.92-1.09l112.64,80.23c1.29.79,6.16,4.09,7.27,9.44a11.4,11.4,0,0,1-2.29,9.33c-4.94,6.64-28.64,38.57-28.64,38.57-.33.47-3.92,5.29-9.84,6A11.4,11.4,0,0,1,458.54,500.61ZM366,385.44c34.24,40.35,84.64,99.21,89.82,103.79a4.09,4.09,0,0,0,3,1.36,5.27,5.27,0,0,0,2.88-1.9c.06-.07,23.77-32,28.71-38.66.62-.83.54-1.2.52-1.32-.22-1-1.9-2.49-2.7-3a4.28,4.28,0,0,1-.42-.26L378.94,368Z"/><path class="cls-1" d="M377.84,366.07a5,5,0,0,1-4.84-3.78l-4.52-18c-.59-1.2-2.23-3.94-4.27-5.09L301.42,304a5,5,0,0,1,4.9-8.72l62.78,35.25c5.6,3.15,8.42,9.48,8.72,10.19a5,5,0,0,1,.25.74l4.63,18.44a5,5,0,0,1-4.86,6.22Z"/><path class="cls-1" d="M359.59,390.65a4.9,4.9,0,0,1-2.44-.65l-17-9.52a5,5,0,0,1,4.9-8.72l17,9.53a5,5,0,0,1-2.45,9.36Z"/><path class="cls-1" d="M195.67,401a5,5,0,0,1-.89-9.92c22.12-4.05,41.48-12.87,57.54-26.21a5,5,0,1,1,6.39,7.69c-17.39,14.46-38.3,24-62.13,28.35A4.76,4.76,0,0,1,195.67,401Z"/><path class="cls-1" d="M327.67,441.35c-5.42,0-12.52-1.56-21.06-6.84a5,5,0,0,1-2.3-5.11L310.08,396a5,5,0,0,1,9.85,1.7l-5.17,30c9.12,4.82,15,3.93,17.65,3,2.09-11.57,5-28.48,5.23-31.2A14.69,14.69,0,0,1,343.45,389l11.11-8.48a5,5,0,1,1,6.07,7.95L349.47,397a1.43,1.43,0,0,1-.15.11,4.79,4.79,0,0,0-1.7,3c-.29,4.45-5.26,31.7-5.82,34.79a5,5,0,0,1-1.93,3.11C339.57,438.26,335.28,441.35,327.67,441.35Z"/><path class="cls-1" d="M207.08,303.69a5,5,0,0,1-2.86-.9l-68.87-48.08a5,5,0,0,1-1.5-6.55l10.28-18.32a5,5,0,0,1,6.81-1.91l83.12,46.67a5,5,0,1,1-4.89,8.72L150.41,239.1l-5.62,10L210,294.59a5,5,0,0,1-2.87,9.1Z"/><path class="cls-1" d="M140.15,252.14a4.89,4.89,0,0,1-2.44-.64L15.33,182.79A5,5,0,0,1,13.42,176l8.34-14.85a5,5,0,0,1,6.81-1.91l122.37,68.71a5,5,0,0,1-4.89,8.72L28,170.38l-3.44,6.14,118,66.26a5,5,0,0,1-2.45,9.36Z"/><path class="cls-1" d="M229.07,282.54a4.9,4.9,0,0,1-2.44-.65,5,5,0,0,1-1.91-6.8l6.06-10.8-71.86-40.36-6.07,10.81a5,5,0,0,1-8.72-4.9l8.52-15.16a5,5,0,0,1,6.81-1.91L240,258a5,5,0,0,1,1.91,6.81L233.44,280A5,5,0,0,1,229.07,282.54Z"/><path class="cls-1" d="M54.13,184.3a6.22,6.22,0,0,1-.85-.07,5,5,0,0,1-4.09-5.77l3.62-21.34-1.57-.88-9.15,16.3a5,5,0,0,1-8.72-4.9L45,147a5,5,0,0,1,6.81-1.91l9,5.05a5,5,0,0,1,2.48,5.2l-4.21,24.81A5,5,0,0,1,54.13,184.3Z"/><path class="cls-1" d="M255.52,277.44a5,5,0,0,1-2.45-.64l-17.93-10.07A5,5,0,0,1,240,258L258,268.08a5,5,0,0,1-2.45,9.36Z"/><path class="cls-1" d="M322.71,340a5,5,0,0,1-2.44-.64L280.19,316.8a5,5,0,0,1,4.9-8.72l40.08,22.51a5,5,0,0,1-2.46,9.36Z"/><path class="cls-1" d="M343.76,351.77a5,5,0,0,1-2.45-.65l-.92-.51a5,5,0,0,1,4.9-8.72l.92.52a5,5,0,0,1-2.45,9.36Z"/></g><g id="Outline"><path class="cls-1" d="M341.58,386h0c-37.8-.31-62.73-14.14-77-25.69-15.59-12.63-22.13-25.22-22.4-25.75a5,5,0,0,1,8.9-4.56h0c.06.11,6.07,11.54,20.18,22.85C290.11,368,313.79,375.76,341.62,376a5,5,0,0,1,0,10Z"/></g></svg>