<?xml version="1.0" ?><svg id="Lines" viewBox="0 0 512 512" xmlns="http://www.w3.org/2000/svg"><defs><style>.cls-1{fill:#3f456b;}</style></defs><title/><path class="cls-1" d="M256,499A244,244,0,0,1,83.47,82.47,244,244,0,1,1,428.53,427.53,242.38,242.38,0,0,1,256,499Zm0-478A234,234,0,0,0,90.54,420.46,234,234,0,1,0,421.46,89.54,232.45,232.45,0,0,0,256,21Z"/><path class="cls-1" d="M256,499c-37.81,0-97.94-19.81-140.62-63.31a191.12,191.12,0,0,1-41.17-62.92C63.5,346.1,58.38,316.21,59,283.9c.71-36.85,11.13-69.35,31-96.58,15.84-21.72,37.64-40.09,64.8-54.61,38.15-20.38,75.54-27.24,88.23-29.1V81c0-5.49,1.69-9.21,5-11.07,3.52-1.94,7.71-.89,10.35.67,5.06,2.45,69.22,34.42,98.09,92.16,0,.09.09.18.13.27.28.67,6.87,16.36-.23,28.4-31.85,61.61-80.45,86.24-84.06,88-1.47.81-9.07,4.62-15.22,1.05-4-2.34-6.09-6.88-6.09-13.49V237a5,5,0,0,0-.31-2.08,7.35,7.35,0,0,0-3.62.63c-.58.27-59.84,28.09-90.63,87.74l-.15.28c-4.33,7.22-.2,18.18.26,19.36,27.45,54.7,87.72,86.08,90.59,87.55a7.23,7.23,0,0,0,3.55.6A5,5,0,0,0,251,429V402a5,5,0,0,1,4.48-5c.44,0,45-5,89.3-28.71,25.76-13.8,46.37-31.18,61.26-51.67,18.55-25.51,28.3-56,29-90.75,1.12-58.6-16.89-107.25-53.52-144.59C340.83,39.87,283.79,21,248,21a5,5,0,0,1,0-10c37.81,0,97.94,19.81,140.62,63.31a191.12,191.12,0,0,1,41.17,62.92C440.5,163.9,445.62,193.79,445,226.1c-.71,36.85-11.13,69.35-31,96.58-15.84,21.72-37.64,40.09-64.8,54.61-38.15,20.38-75.54,27.24-88.23,29.1V429c0,6.08-2.64,9.05-4.85,10.47-5.28,3.4-11.94.66-13.22.08l-.17-.08c-2.67-1.34-65.82-33.42-95.23-92.23-.05-.09-.09-.18-.13-.27-.28-.67-6.87-16.36.23-28.4,32.43-62.71,92.73-90.94,95.28-92.11,1.3-.6,8-3.33,13.24.07C258.36,228,261,230.92,261,237v30c0,3.44.8,4.66,1.1,4.84.89.52,3.7-.23,5.44-1.19l.3-.16c.48-.23,48.93-24.14,79.72-83.78l.15-.28c4.33-7.22.2-18.18-.26-19.36-27.92-55.63-92.95-87.25-93.61-87.56a4.67,4.67,0,0,1-.49-.27l-.22-.11A11.63,11.63,0,0,0,253,81v27a5,5,0,0,1-4.48,5c-.44,0-45.05,5-89.3,28.71-25.76,13.8-46.37,31.18-61.26,51.67-18.55,25.51-28.3,56-29,90.75-1.12,58.6,16.89,107.25,53.52,144.59C163.17,470.13,220.21,489,256,489a5,5,0,0,1,0,10Z"/></svg>