<?xml version="1.0" ?><svg viewBox="0 0 512 512" xmlns="http://www.w3.org/2000/svg"><defs><style>.cls-1{fill:#3f456b;}</style></defs><title/><g id="Lines"><path class="cls-1" d="M353.86,278.1a5,5,0,0,1-1.87-9.64l23.21-9.34c4.47-1.8,7.16-4.59,8.22-8.52a34.69,34.69,0,0,0,.83-7.85c.17-5.07.35-10.82,4-16.24a26.75,26.75,0,0,1,25.41-11.43c9.76,1.3,17.66,8.08,21.14,18.14,5,14.43-1.48,29.43-15,34.89a5,5,0,1,1-3.74-9.27c8.54-3.44,12.55-13,9.33-22.36-3.07-8.9-9.46-11-13-11.48a16.66,16.66,0,0,0-15.82,7.13c-2.06,3-2.18,6.7-2.32,11a42.3,42.3,0,0,1-1.17,10.14c-1.89,7-6.78,12.21-14.14,15.17l-23.21,9.35A4.88,4.88,0,0,1,353.86,278.1Z"/><path class="cls-1" d="M350.06,312.12a5,5,0,0,1-1.86-9.64l38.26-15.41c7.36-3,14.52-2.57,20.7,1.14a42.7,42.7,0,0,1,7.88,6.51c3,3,5.67,5.53,9.25,6.28a16.62,16.62,0,0,0,16.35-5.82c2.23-2.79,5.37-8.74,1.42-17.29-4.13-8.94-13.68-13.09-22.22-9.65A5,5,0,1,1,416.1,259c13.57-5.46,28.63.87,35,14.74,4.47,9.66,3.47,20-2.67,27.72a26.74,26.74,0,0,1-26.24,9.37c-6.41-1.36-10.53-5.37-14.16-8.91a34.89,34.89,0,0,0-6-5.09c-3.49-2.1-7.36-2.24-11.83-.44l-38.26,15.4A4.91,4.91,0,0,1,350.06,312.12Z"/><path class="cls-1" d="M160.34,278.1a4.93,4.93,0,0,1-1.87-.36l-23.21-9.35c-7.36-3-12.25-8.21-14.14-15.17A43.34,43.34,0,0,1,120,243.08c-.14-4.25-.26-7.92-2.31-11A16.64,16.64,0,0,0,101.81,225c-3.53.47-9.92,2.58-13,11.48-3.22,9.31.8,18.92,9.33,22.36a5,5,0,0,1-3.73,9.27c-13.57-5.46-20-20.46-15-34.89,3.48-10.06,11.38-16.84,21.13-18.14a26.75,26.75,0,0,1,25.42,11.43c3.68,5.42,3.87,11.17,4,16.24a34.77,34.77,0,0,0,.82,7.85c1.07,3.93,3.76,6.72,8.23,8.52l23.21,9.34a5,5,0,0,1-1.87,9.64Z"/><path class="cls-1" d="M164.13,312.12a5,5,0,0,1-1.87-.37L124,296.35c-4.46-1.8-8.33-1.66-11.82.44a34.89,34.89,0,0,0-6,5.09c-3.63,3.54-7.75,7.55-14.17,8.91a26.74,26.74,0,0,1-26.24-9.37c-6.13-7.7-7.13-18.06-2.67-27.72,6.4-13.87,21.46-20.2,35-14.74a5,5,0,0,1-3.73,9.28c-8.54-3.44-18.09.71-22.22,9.65-4,8.55-.81,14.5,1.41,17.29A16.66,16.66,0,0,0,89.9,301c3.58-.75,6.21-3.32,9.26-6.28a42.63,42.63,0,0,1,7.87-6.51c6.19-3.71,13.35-4.1,20.71-1.14L166,302.48a5,5,0,0,1-1.87,9.64Z"/><path class="cls-1" d="M96,224.86a5,5,0,0,1-5-5V193.38a1.77,1.77,0,0,1,0-.23c1.39-30.53,32-46.27,34.64-47.59S172.75,119.5,181.3,114A12.22,12.22,0,0,0,187,103.27a3.46,3.46,0,0,1,0-.46V79.32a5,5,0,0,1,10,0v23.32a22.21,22.21,0,0,1-10.3,19.79c-9,5.8-54.35,30.88-56.28,31.95l-.25.12c-.27.14-27.9,13.84-29.13,39v26.37A5,5,0,0,1,96,224.86Z"/><path class="cls-1" d="M96,363a5,5,0,0,1-5-5V305a5,5,0,0,1,10,0v53A5,5,0,0,1,96,363Z"/><path class="cls-1" d="M144,500c-17.34,0-30.83-5-40.11-14.92-13.57-14.49-13-34.18-12.9-36.44V442a5,5,0,0,1,10,0v6.78c0,.11,0,.21,0,.32s-.89,17.36,10.27,29.2c7.31,7.76,18.33,11.7,32.74,11.7l225-.32c14.46,0,25.5-4,32.81-11.76C413,466,412,449,412,448.78s0-.22,0-.32V442a5,5,0,0,1,10,0v6.32c.11,2.26.67,21.95-12.9,36.43-9.28,9.91-22.77,14.93-40.1,14.93Z"/><path class="cls-1" d="M417,363a5,5,0,0,1-5-5V305a5,5,0,0,1,10,0v53A5,5,0,0,1,417,363Z"/><path class="cls-1" d="M417,224.86a5,5,0,0,1-5-5V193c-1.35-25.15-28.84-38.67-29.12-38.81l-.25-.13c-1.93-1.06-47.25-26.14-56.28-31.94A22.21,22.21,0,0,1,316,102.32V79a5,5,0,0,1,10,0v23.49a4.41,4.41,0,0,1,0,.52,12.24,12.24,0,0,0,5.73,10.68c8.55,5.49,53.05,30.14,55.61,31.55s33.1,17,34.63,47.37a2,2,0,0,1,0,.25v27A5,5,0,0,1,417,224.86Z"/><path class="cls-1" d="M325,84H187a25,25,0,0,1-25-25V35a25,25,0,0,1,25-25H325a25,25,0,0,1,25,25V59A25,25,0,0,1,325,84ZM187,20a15,15,0,0,0-15,15V59a15,15,0,0,0,15,15H325a15,15,0,0,0,15-15V35a15,15,0,0,0-15-15Z"/><path class="cls-1" d="M417,212H329a5,5,0,0,1,0-10h88a5,5,0,0,1,0,10Z"/><path class="cls-1" d="M185,212H96a5,5,0,0,1,0-10h89a5,5,0,0,1,0,10Z"/><path class="cls-1" d="M389,421H124a5,5,0,0,1,0-10H389a5,5,0,0,1,0,10Z"/><path class="cls-1" d="M259.9,389.44c-21.92,0-41.91-2.58-47.72-4.43a15.74,15.74,0,0,1-11.46-15.27,74.11,74.11,0,0,1,1.22-15.52c.43-2.8,1-6.27,1.59-11.29.27-2.24,0-3.59-.44-3.9-1.06-.83-4.82-.29-6.84.49l-.35.12c-16,4.78-26.2-6.87-29.45-13.83-7.07-13.22-11.12-31.09-11.12-49.07,0-27.41,8.77-52.12,24.68-69.58C197.4,188.08,222.52,178,252.67,178H261c30.14,0,55.26,10.08,72.65,29.16,15.91,17.46,24.68,42.17,24.68,69.58,0,18.14-4.05,36.1-11.12,49.32-2.72,5.79-10.32,14.83-22.08,14.83a25.68,25.68,0,0,1-7.37-1.13l-.32-.11c-2.66-1-6.15-1.23-7-.51-.21.16-.66,1.16-.29,3.73.33,2.27.73,4.51,1.13,6.68,1.14,6.38,2.33,13,1.69,20.48,0,9.88-6.84,14.18-10.51,15.08C289.76,388.31,274.4,389.44,259.9,389.44ZM201,328.6a13.13,13.13,0,0,1,8.25,2.55c2.41,1.88,5.09,5.66,4.2,13-.63,5.19-1.19,8.75-1.63,11.61a65.36,65.36,0,0,0-1.1,13.95,1.4,1.4,0,0,1,0,.41c0,.84.27,4,4.51,5.37,8,2.55,54.56,7.55,84.72-.06.76-.24,3.05-1.33,3-5.51a3.13,3.13,0,0,1,0-.53c.57-6.25-.46-12-1.56-18.06-.4-2.25-.82-4.58-1.17-7-1.06-7.27,1.54-11.07,3.9-13,5.76-4.64,14.5-1.91,16.64-1.13,11.44,3.33,16.85-7.29,17.44-8.51,0-.08.08-.18.12-.26,6.26-11.64,10-28.36,10-44.71,0-24.91-7.84-47.23-22.07-62.84C310.81,197,288.24,188,261,188h-8.32c-27.26,0-49.83,9-65.27,25.9-14.23,15.61-22.07,37.93-22.07,62.84,0,16.44,3.65,32.65,10,44.47a2.59,2.59,0,0,1,.14.29c.57,1.21,6,11.92,17.41,8.6A25,25,0,0,1,201,328.6Z"/><path class="cls-1" d="M208.75,308.19a46.57,46.57,0,0,1-7.73-.66c-7.76-1.29-13.79-5-17.92-10.91-8.72-12.56-5.29-30.82-5.14-31.59a2,2,0,0,1,0-.26c.25-1,2.59-9.54,9.69-13.09,2.73-1.37,7.22-2.47,13.11,0a55.74,55.74,0,0,1,10.34,6.06c7.12,4.94,14.45,10,33.77,9.78a5,5,0,0,1,5.06,5.27c0,.55-.4,5.59-4.14,12.58h0C239.63,296.94,226.91,308.19,208.75,308.19Zm-21-41.1c-.27,1.57-2.39,15.28,3.58,23.86,2.57,3.68,6.28,5.88,11.34,6.72,17.08,2.85,28.94-6.93,34.35-17h0a32.26,32.26,0,0,0,1.52-3.25c-17.89-.91-26.24-6.69-33.08-11.43a46.07,46.07,0,0,0-8.52-5.07c-2.88-1.21-4.28-.52-4.74-.29C189.71,261.83,188.16,265.65,187.75,267.09Z"/><path class="cls-1" d="M305.79,308.19c-18.15,0-30.88-11.25-37.08-22.82h0c-3.74-7-4.12-12-4.15-12.58a5,5,0,0,1,5.06-5.27c19.3.27,26.65-4.84,33.78-9.77a55.21,55.21,0,0,1,10.34-6.07c5.89-2.47,10.38-1.37,13.1,0,7.11,3.55,9.45,12.12,9.69,13.09l.06.26c.15.77,3.58,19-5.14,31.59-4.13,5.95-10.16,9.62-17.93,10.91A46.48,46.48,0,0,1,305.79,308.19ZM276,277.4a34.62,34.62,0,0,0,1.52,3.25h0c5.41,10.09,17.28,19.87,34.36,17,5.07-.85,8.79-3.05,11.35-6.75,5.92-8.52,3.83-22.31,3.57-23.84s-2-5.24-4.45-6.47c-.46-.23-1.86-.92-4.75.29a46,46,0,0,0-8.51,5.07C302.24,270.71,293.89,276.49,276,277.4Z"/><path class="cls-1" d="M256,389a5,5,0,0,1-5-5V364a5,5,0,0,1,10,0v20A5,5,0,0,1,256,389Z"/><path class="cls-1" d="M229.81,387.86a5,5,0,0,1-5-4.95c-.13-13.66,2.25-22.32,2.35-22.68a5,5,0,1,1,9.63,2.69,80.35,80.35,0,0,0-2,19.9,5,5,0,0,1-5,5Z"/><path class="cls-1" d="M283.13,387.86h-.05a5,5,0,0,1-4.95-5c.11-12.25-2-19.82-2-19.89a5,5,0,1,1,9.63-2.7c.1.36,2.49,9,2.36,22.68A5,5,0,0,1,283.13,387.86Z"/><path class="cls-1" d="M410.31,447.8a26.81,26.81,0,0,1-22-11.65c-3.69-5.43-3.87-11.17-4-16.25a34.75,34.75,0,0,0-.83-7.85c-1.06-3.93-3.75-6.71-8.22-8.51l-52.87-21.29a5,5,0,1,1,3.73-9.28l52.87,21.29c7.36,3,12.25,8.21,14.14,15.17a42.38,42.38,0,0,1,1.17,10.15c.14,4.25.26,7.92,2.32,10.94a16.65,16.65,0,0,0,15.82,7.14c3.54-.47,9.93-2.59,13-11.49,3.22-9.3-.79-18.91-9.33-22.35a5,5,0,1,1,3.74-9.28c13.57,5.46,20,20.47,15,34.9-3.48,10.06-11.38,16.84-21.14,18.13A25.74,25.74,0,0,1,410.31,447.8Z"/><path class="cls-1" d="M426.08,405.65a26.74,26.74,0,0,1-10-2,5,5,0,1,1,3.74-9.27c8.54,3.43,18.09-.72,22.22-9.65,3.95-8.55.81-14.51-1.42-17.3a16.66,16.66,0,0,0-16.35-5.82c-3.58.76-6.21,3.32-9.25,6.29a43.07,43.07,0,0,1-7.88,6.5c-6.18,3.71-13.34,4.11-20.7,1.14l-52.88-21.29a5,5,0,1,1,3.74-9.27l52.87,21.29c4.47,1.8,8.34,1.65,11.83-.44a34.89,34.89,0,0,0,6-5.09c3.63-3.54,7.75-7.56,14.16-8.91a26.74,26.74,0,0,1,26.24,9.37c6.14,7.7,7.14,18.06,2.67,27.72C446.28,399.46,436.46,405.65,426.08,405.65Z"/><path class="cls-1" d="M102.62,447.8a25.89,25.89,0,0,1-3.4-.23c-9.76-1.29-17.66-8.07-21.13-18.13-5-14.43,1.48-29.44,15-34.9a5,5,0,0,1,3.73,9.28c-8.54,3.44-12.55,13-9.33,22.35,3.08,8.9,9.46,11,13,11.49a16.65,16.65,0,0,0,15.82-7.13c2.06-3,2.18-6.7,2.32-10.95a43.28,43.28,0,0,1,1.17-10.14c1.89-7,6.78-12.21,14.14-15.18L186.86,373a5,5,0,1,1,3.74,9.28l-52.88,21.29c-4.46,1.8-7.15,4.58-8.22,8.51a35.34,35.34,0,0,0-.83,7.85c-.16,5.08-.35,10.82-4,16.25A26.81,26.81,0,0,1,102.62,447.8Z"/><path class="cls-1" d="M86.84,405.65c-10.38,0-20.2-6.19-25.05-16.69-4.46-9.66-3.47-20,2.67-27.72a26.74,26.74,0,0,1,26.24-9.37c6.42,1.35,10.53,5.37,14.17,8.91a34.52,34.52,0,0,0,6,5.09c3.49,2.09,7.35,2.24,11.82.44L175.61,345a5,5,0,0,1,3.73,9.27l-52.87,21.29c-7.36,3-14.52,2.57-20.71-1.14a43,43,0,0,1-7.87-6.5c-3-3-5.68-5.53-9.26-6.29a16.66,16.66,0,0,0-16.35,5.82c-2.22,2.79-5.36,8.75-1.41,17.3,4.13,8.93,13.67,13.08,22.22,9.65a5,5,0,1,1,3.73,9.27A26.7,26.7,0,0,1,86.84,405.65Z"/></g><g id="Outline"><path class="cls-1" d="M447.89,51.27c-9.68,0-20.87-2.91-32.48-11.81-22.07-16.91-43.77-.21-44,0a5,5,0,0,1-6.19-7.86c9.6-7.56,33.72-17.31,56.25,0C447.41,51.38,470.42,34.9,473,33A5,5,0,1,1,479,40.89,54.17,54.17,0,0,1,447.89,51.27Z"/><path class="cls-1" d="M447.89,89c-9.68,0-20.87-2.92-32.48-11.82-22.07-16.91-43.77-.21-44,0a5,5,0,1,1-6.19-7.85c9.6-7.57,33.72-17.31,56.25,0,25.92,19.86,48.93,3.37,51.47,1.43A5,5,0,1,1,479,78.6,54.17,54.17,0,0,1,447.89,89Z"/><path class="cls-1" d="M447.89,126.69c-9.68,0-20.87-2.92-32.48-11.82-22.07-16.91-43.77-.21-44,0a5,5,0,0,1-6.19-7.86c9.6-7.56,33.72-17.31,56.25,0,25.92,19.86,48.93,3.38,51.47,1.43A5,5,0,1,1,479,116.3,54.23,54.23,0,0,1,447.89,126.69Z"/><path class="cls-1" d="M16.34,425.48a5,5,0,0,1-2.77-9.15c1-.67,24.81-16.16,52.62-6.16a5,5,0,1,1-3.38,9.41c-23-8.27-43.52,4.95-43.72,5.08A5,5,0,0,1,16.34,425.48Z"/><path class="cls-1" d="M16.34,463.2A5,5,0,0,1,13.57,454c1-.66,24.82-16.16,52.62-6.15a5,5,0,1,1-3.38,9.41C39.67,449,19.3,462.23,19.1,462.36A4.94,4.94,0,0,1,16.34,463.2Z"/><path class="cls-1" d="M16.34,500.89a5,5,0,0,1-2.77-9.15c1-.67,24.81-16.16,52.62-6.15a5,5,0,1,1-3.38,9.4c-23-8.26-43.52,4.95-43.72,5.08A5,5,0,0,1,16.34,500.89Z"/></g></svg>