<?xml version="1.0" ?><svg viewBox="0 0 512 512" xmlns="http://www.w3.org/2000/svg"><defs><style>.cls-1{fill:#3f456b;}</style></defs><title/><g id="Lines"><path class="cls-1" d="M482,487H145a5,5,0,0,1-5-5V391a5,5,0,0,1,10,0v86H477V353.17a5,5,0,0,1,10,0V482A5,5,0,0,1,482,487Z"/><path class="cls-1" d="M496,357H412.67a5,5,0,0,1,0-10H491V20H164V52.58a5,5,0,0,1-10,0V15a5,5,0,0,1,5-5H496a5,5,0,0,1,5,5V352A5,5,0,0,1,496,357Z"/><path class="cls-1" d="M354.45,369.12a5,5,0,1,1,0-10C430.3,359.12,492,297.41,492,221.57S430.3,84,354.45,84a5,5,0,0,1,0-10C435.81,74,502,140.21,502,221.57S435.81,369.12,354.45,369.12Z"/><path class="cls-1" d="M354.45,255.14a5,5,0,1,1,0-10,23.57,23.57,0,0,0,0-47.14,5,5,0,0,1,0-10,33.57,33.57,0,0,1,0,67.14Z"/><path class="cls-1" d="M329.94,445.56a5.16,5.16,0,0,1-2.14-.48,5,5,0,0,1-2.37-6.67c6.62-13.93,15.87-18.33,22.47-19.58,10.33-1.94,19.65,2.69,24.49,7.25,7.33,6.9,15.42,10.11,22.76,9a18.14,18.14,0,0,0,3-.7,31.2,31.2,0,0,1-2.88-2.62c-6-6.23-8.16-14.16-5.87-21.75,2.64-8.74,8.67-14.65,16.13-15.8a16.91,16.91,0,0,1,16.67,7.22c4.65,6.81,4.19,16.1-1.25,25.51a44.74,44.74,0,0,1-3.68,5.42c6.72,1.49,15.13,1.54,24.95-1.07A5,5,0,0,1,444.8,441c-12.92,3.43-25.76,3-36-.71A29.79,29.79,0,0,1,396.6,445c-10.43,1.53-21.46-2.61-31.06-11.65a19,19,0,0,0-15.79-4.7c-6.19,1.17-11.48,6-15.29,14A5,5,0,0,1,329.94,445.56ZM408.17,404a6.68,6.68,0,0,0-1.09.09c-3.62.56-6.57,3.77-8.09,8.81-1.58,5.23,1,9.36,3.49,11.91a23.31,23.31,0,0,0,4.87,3.76,33.39,33.39,0,0,0,5-6.65c3.44-5.93,4-11.35,1.65-14.85A7,7,0,0,0,408.17,404Z"/><path class="cls-1" d="M140,294a5,5,0,0,1-5-5V151.88a31.37,31.37,0,0,1,2.55-13.57c2.8-6.64,9.19-15.55,23.77-20.27,3.42-1.11,65.33-13.48,77.7-15.94s22.22-.88,29,5c9.32,8.12,9.07,21.14,9,23V250.86a5,5,0,0,1-10,0V130c0-.11,0-.22,0-.33s.49-9.77-5.61-15c-4.3-3.72-11.16-4.63-20.39-2.73-29.13,5.81-73.55,14.77-76.65,15.67-20.4,6.6-19.43,23-19.38,23.73,0,.12,0,.28,0,.41V289A5,5,0,0,1,140,294Z"/><path class="cls-1" d="M140.35,179.33a5,5,0,0,1-1-9.9L271,142.1a5,5,0,1,1,2,9.8L141.37,179.22A5.13,5.13,0,0,1,140.35,179.33Z"/><path class="cls-1" d="M99,329c-11.48,0-21.88-4.44-28.53-12.19a31,31,0,0,1-7-25.27c3-19.81,23.38-35.94,45.31-35.94,11.48,0,21.88,4.45,28.53,12.2a30.93,30.93,0,0,1,7,25.26C141.27,312.91,121,329,99,329Zm9.75-63.4c-17.2,0-33.1,12.32-35.43,27.46a21.1,21.1,0,0,0,4.74,17.23C82.82,315.86,90.45,319,99,319c17.21,0,33.1-12.32,35.43-27.46h0a21.15,21.15,0,0,0-4.73-17.23C125,268.81,117.32,265.63,108.76,265.63Z"/><path class="cls-1" d="M232,298c-11.48,0-21.88-4.44-28.53-12.19a31,31,0,0,1-7-25.27c3.05-19.81,23.38-35.94,45.31-35.94,11.48,0,21.88,4.45,28.53,12.2a30.93,30.93,0,0,1,7,25.26C274.27,281.91,254,298,232,298Zm9.75-63.4c-17.2,0-33.1,12.32-35.43,27.46a21.1,21.1,0,0,0,4.74,17.23c4.75,5.54,12.38,8.71,20.94,8.71,17.21,0,33.1-12.32,35.43-27.46h0a21.15,21.15,0,0,0-4.73-17.23C258,237.81,250.32,234.63,241.76,234.63Z"/><path class="cls-1" d="M354,365H251a5,5,0,0,1-5-5V324a5,5,0,0,1,5-5H354a5,5,0,0,1,5,5v36A5,5,0,0,1,354,365Zm-98-10h93V329H256Z"/><path class="cls-1" d="M354,395H17a5,5,0,0,1-5-5V53a5,5,0,0,1,5-5H354a5,5,0,0,1,5,5V390A5,5,0,0,1,354,395ZM22,385H349V58H22Z"/></g><g id="Outline"><path class="cls-1" d="M383.08,124H354.45a5,5,0,0,1,0-10h28.63a5,5,0,0,1,0,10Z"/><path class="cls-1" d="M375.83,146.58H354a5,5,0,0,1,0-10h21.83a5,5,0,0,1,0,10Z"/><path class="cls-1" d="M366.58,169.17h-12.5a5,5,0,0,1,0-10h12.5a5,5,0,0,1,0,10Z"/><path class="cls-1" d="M371,322.46c-6.33,0-12.76-2.24-18.88-6.6a5,5,0,0,1,5.82-8.14c5.58,4,11.33,5.5,16.61,4.36l.35-.08c-.58-.51-1.13-1-1.66-1.58-5.44-5.62-7.36-12.78-5.29-19.65,2.38-7.89,7.85-13.23,14.62-14.27a15.39,15.39,0,0,1,15.2,6.59c4.21,6.16,3.82,14.54-1.07,23a42.72,42.72,0,0,1-2.61,4A49.22,49.22,0,0,0,414.59,309a5,5,0,1,1,2.57,9.67c-11.3,3-22.53,2.69-31.56-.52a27,27,0,0,1-9,3.73A26.37,26.37,0,0,1,371,322.46Zm14-36.15a5.07,5.07,0,0,0-.86.07c-2.92.45-5.32,3.1-6.58,7.28s.87,7.7,2.91,9.81a19.14,19.14,0,0,0,3.68,2.95,28.81,28.81,0,0,0,3.94-5.36c2.88-5,3.42-9.47,1.47-12.33A5.48,5.48,0,0,0,384.93,286.31Z"/><path class="cls-1" d="M113,97H55a5,5,0,0,1,0-10h58a5,5,0,0,1,0,10Z"/><path class="cls-1" d="M98.5,119.58H55a5,5,0,1,1,0-10H98.5a5,5,0,0,1,0,10Z"/><path class="cls-1" d="M80,142.17H55a5,5,0,0,1,0-10H80a5,5,0,0,1,0,10Z"/></g></svg>