<?xml version="1.0" ?><svg id="Lines" viewBox="0 0 512 512" xmlns="http://www.w3.org/2000/svg"><defs><style>.cls-1{fill:#3f456b;}</style></defs><title/><path class="cls-1" d="M248.82,325.62a5,5,0,0,1-5-5V320a5,5,0,0,1,10,0v.62A5,5,0,0,1,248.82,325.62Z"/><path class="cls-1" d="M248.82,365.31a5,5,0,0,1-5-5v-.62a5,5,0,0,1,10,0v.62A5,5,0,0,1,248.82,365.31Z"/><path class="cls-1" d="M248.82,405a5,5,0,0,1-5-5v-.62a5,5,0,0,1,10,0V400A5,5,0,0,1,248.82,405Z"/><path class="cls-1" d="M212.34,139.38a5,5,0,0,1-3.87-1.83c-1.41-1.72-34.54-42.75-37.4-91.33a5,5,0,0,1,2.22-4.45l39.14-26.09A5,5,0,0,1,218,24L181.26,48.47c3.79,44.1,34.63,82.36,35,82.75a5,5,0,0,1-3.87,8.16Z"/><path class="cls-1" d="M245.24,108.49A5,5,0,0,1,241.7,100l8.09-8.09c-30.1-18.31-40.57-56.81-41.27-59.52-2.11-7.24-.08-11.9,2-14.54,5.39-6.86,16.08-6.76,17.84-6.69h59.43c1.76-.07,12.45-.17,17.84,6.69,2.08,2.64,4.1,7.3,2,14.54-.71,2.71-11.17,41.21-41.27,59.52L273.47,99a5,5,0,1,1-7.07,7.08l-8.33-8.33-9.3,9.29A5,5,0,0,1,245.24,108.49Zm-17.73-87.4c-2.53,0-7.4.66-9.14,2.9-.91,1.16-1,3.05-.23,5.62,0,.05,0,.11,0,.17.11.4,10.55,39.83,39.89,55.29,29.42-15.5,39.78-54.88,39.88-55.29a.84.84,0,0,1,.05-.17c.75-2.57.67-4.47-.24-5.63-1.89-2.41-7.41-3-9.64-2.88H227.51Z"/><path class="cls-1" d="M302.79,140.38a5,5,0,0,1-4-8c.29-.39,29.34-39.66,33-84L298,23.88a5,5,0,1,1,5.87-8.09L339.94,42A5,5,0,0,1,342,46.29c-2.85,48.47-33.88,90.34-35.2,92.09A5,5,0,0,1,302.79,140.38Z"/><path class="cls-1" d="M295.7,53.92H220.11a5,5,0,0,1,0-10H295.7a5,5,0,0,1,0,10Z"/><path class="cls-1" d="M63.74,470.27a123.64,123.64,0,0,1-24.19-2.56c-21.61-4.35-27-11.75-27.84-13.18a5,5,0,0,1-.67-3.19c.35-2.79,35.26-279.27,45.85-351.74.21-3.29,2.79-32,27.22-38.23,6.77-1.71,18-4.06,31-6.77,18.85-3.93,42.32-8.83,59.62-13.43a5,5,0,1,1,2.56,9.66c-17.56,4.67-41.17,9.6-60.14,13.56-12.88,2.69-24,5-30.58,6.68-18.28,4.62-19.69,29-19.7,29.29a3.91,3.91,0,0,1,0,.48c-10,68.48-42.1,322.08-45.55,349.38,2.12,1.71,7.7,5.15,20.26,7.68,13.8,2.78,23.79,2.52,28.64,2.1l45.45-258.5a5,5,0,0,1,9.85,1.74L79.37,465.36a5,5,0,0,1-3.92,4A62.4,62.4,0,0,1,63.74,470.27Z"/><path class="cls-1" d="M439.69,469.53c-1.45,0-2.24,0-2.36,0a5,5,0,0,1-4.7-4.12L388.68,217.62a5,5,0,0,1,9.84-1.74L441.75,459.5a227.89,227.89,0,0,0,28-2.6c13.06-1.93,18.82-5.13,21-6.76-3.45-28-35.46-287.88-45.52-356.72-.45-1.72-5.09-18.25-19.35-21.55-3.58-.83-9-2-15.59-3.51-20.68-4.62-51.93-11.6-74.55-17.52a5,5,0,1,1,2.54-9.68C360.71,47,391.85,54,412.46,58.6c6.62,1.48,12.07,2.7,15.67,3.53C449.28,67,454.79,90.37,455,91.36c0,.13.05.25.07.38,10.55,72.15,45.53,356.75,45.88,359.62a5,5,0,0,1-.67,3.17c-.87,1.46-6.36,8.91-29.09,12.26A222.7,222.7,0,0,1,439.69,469.53Z"/><path class="cls-1" d="M142.38,493a66.72,66.72,0,0,1-12.58-1.13c-4.13-.72-24-4.35-30.08-8.2a5,5,0,0,1-2.32-4.23c0-.91.39-92.58,34-211.41-2.91-11.52-23.94-96-32.85-163.62a5,5,0,0,1,9.91-1.31c9.46,71.8,32.72,162.84,33,163.75a5,5,0,0,1,0,2.61c-30,105.75-33.49,189.83-33.89,206.84,5.36,2,16.57,4.41,24.14,5.73l.18,0c.21,0,22.15,4.44,35.21-6.41,6.9-5.73,10.27-15,10-27.57L170.35,67c-.64-12.22-.37-19.56-.35-20.19a5,5,0,0,1,5-4.8h.06A5,5,0,0,1,180,46.91l.33,18.76a397.66,397.66,0,0,0,7.73,59.71c8.52,41.23,27.88,101.21,71.75,152.84a5,5,0,1,1-7.62,6.48c-40.13-47.23-60.35-101.1-70.52-142.29L187,447.91c.31,15.77-4.29,27.72-13.68,35.49S151.51,493,142.38,493Z"/><path class="cls-1" d="M289,500a5,5,0,0,1-2.91-.93c-57.09-40.78-65.7-98-66-100.38A5.34,5.34,0,0,1,220,398V312a5,5,0,0,1,1.86-3.89c25.45-20.54,47-47,64.17-78.57,13.76-25.39,24.7-54.15,32.5-85.48a443.73,443.73,0,0,0,12.73-88.82l.14-8.33a5,5,0,0,1,10,0c0,.49.05,4-.17,10L334.4,448.09c-.25,12.59,3.13,21.88,10.06,27.61,13.13,10.87,35,6.42,35.17,6.38l.18,0c7.57-1.32,18.78-3.75,24.14-5.73-.4-17-3.86-101.1-33.89-206.84a4.92,4.92,0,0,1,0-2.61c.24-.91,23.51-92,33-163.75a5,5,0,1,1,9.91,1.31C404,172.07,383,256.52,380,268c33.57,118.83,34,210.5,34,211.41a5,5,0,0,1-2.33,4.23c-6.08,3.85-25.93,7.48-30.07,8.2-1.93.39-24.55,4.68-40.93-6.53C320.93,496,290.93,499.8,289.62,500A4.3,4.3,0,0,1,289,500ZM230,397.61c.74,4.41,10.31,55.52,60.3,92.16,6.38-.95,27.33-4.47,42.59-11.69-5.89-7.53-8.74-17.64-8.49-30.18l5.37-307.8c-.47,2-1,4.05-1.47,6.11-8,32.19-19.23,61.79-33.4,87.95-17.36,32.06-39.19,59-64.9,80.21Z"/><path class="cls-1" d="M222,500a4.3,4.3,0,0,1-.62,0c-1.35-.17-33.23-4.26-52.89-15.63a5,5,0,0,1,5-8.66c15.29,8.86,40.14,13.05,47.19,14.1a159.08,159.08,0,0,0,30.59-29.38,5,5,0,1,1,7.83,6.22,169,169,0,0,1-34.21,32.46A5,5,0,0,1,222,500Z"/><path class="cls-1" d="M437.48,469.5a5,5,0,0,1-4.92-4.16L387.61,203.21a5,5,0,0,1,9.85-1.69l45,262.13a5,5,0,0,1-4.09,5.77A4.89,4.89,0,0,1,437.48,469.5Z"/><path class="cls-1" d="M154,369a5,5,0,0,1-.77-.06c-.26,0-25.94-4-35.27-4.78a5,5,0,1,1,.86-10c9.65.82,34.86,4.69,35.93,4.86A5,5,0,0,1,154,369Z"/><path class="cls-1" d="M359.39,369a5,5,0,0,1-.75-9.94c1.07-.17,26.28-4,35.93-4.86a5,5,0,1,1,.86,10c-9.33.8-35,4.74-35.27,4.78A5,5,0,0,1,359.39,369Z"/><path class="cls-1" d="M160,325.38a5,5,0,0,1-5-5v-1a5,5,0,0,1,10,0v1A5,5,0,0,1,160,325.38Z"/><path class="cls-1" d="M160,405.38a5,5,0,0,1-5-5v-1a5,5,0,0,1,10,0v1A5,5,0,0,1,160,405.38Z"/><path class="cls-1" d="M177.75,293a5,5,0,0,1-4.46-2.73C132.59,210.36,121.14,101.6,121,100.51a5,5,0,0,1,3.7-5.35l14.13-3.71L129.51,57a5,5,0,1,1,9.65-2.61l10.67,39.33a5,5,0,0,1-3.56,6.15l-14.8,3.89c2.53,20.68,15.4,112.64,50.73,182a5,5,0,0,1-4.45,7.27Z"/><path class="cls-1" d="M333,293a5,5,0,0,1-4.46-7.27c35.35-69.4,48.21-161.33,50.74-182l-14.8-3.89a5,5,0,0,1-3.56-6.15l10.67-39.33A5,5,0,1,1,381.24,57l-9.35,34.48L386,95.16a5,5,0,0,1,3.7,5.35c-.11,1.09-11.56,109.85-52.26,189.76A5,5,0,0,1,333,293Z"/><path class="cls-1" d="M302,148.73a5,5,0,0,1-2.29-.56l-34.87-18-15.26.34-34.29,17.65a5,5,0,0,1-7.29-4.44V87.54a5,5,0,0,1,7.29-4.45l34.87,18,15.26-.34,34.29-17.65A5,5,0,0,1,307,87.54v56.19a5,5,0,0,1-5,5Zm-84-53v39.79l28-14.43a5.13,5.13,0,0,1,2.18-.55l17.68-.39a4.89,4.89,0,0,1,2.4.55L297,135.52V95.73l-28,14.43a5.13,5.13,0,0,1-2.18.55l-17.68.4a5.11,5.11,0,0,1-2.4-.56Z"/><path class="cls-1" d="M266,130a5,5,0,0,1-5-5V106a5,5,0,0,1,10,0v19A5,5,0,0,1,266,130Z"/><path class="cls-1" d="M248,130a5,5,0,0,1-5-5V106a5,5,0,0,1,10,0v19A5,5,0,0,1,248,130Z"/><path class="cls-1" d="M248,276a5,5,0,0,1-5-5V129a5,5,0,0,1,10,0V271A5,5,0,0,1,248,276Z"/><path class="cls-1" d="M267.82,160.86a5,5,0,0,1-5-5v-1.07a5,5,0,0,1,10,0v1.07A5,5,0,0,1,267.82,160.86Z"/><path class="cls-1" d="M267.82,229.94a5,5,0,0,1-5-5v-1.07a5,5,0,0,1,10,0v1.07A5,5,0,0,1,267.82,229.94Z"/></svg>