<?xml version="1.0" ?><svg id="Lines" viewBox="0 0 512 512" xmlns="http://www.w3.org/2000/svg"><defs><style>.cls-1{fill:#3f456b;}</style></defs><title/><path class="cls-1" d="M436.55,380H241.24c-50.57,0-54.07-48.21-54.29-53.32-1.14-7.26-16.28-103.76-16.28-120,0-6.2,1.93-11.21,5.74-14.9C182.4,186,190.66,186,192,186H484.9c1.32,0,9.42,0,15.33,5.77,3.81,3.69,5.75,8.73,5.75,15,0,16.18-14.21,112.77-15.26,119.89C490.51,331.65,487.19,380,436.55,380ZM191.75,196c-.39,0-5.37.05-8.43,3.06-1.78,1.75-2.65,4.26-2.65,7.67,0,12.56,10.6,83.12,16.2,118.68a6,6,0,0,1,.07.73c0,1.78,1.14,43.86,44.3,43.86H436.55c18.2,0,31.13-7.29,38.43-21.67a56,56,0,0,0,5.75-22.19,5.34,5.34,0,0,1,0-.69c.16-1,15.2-103,15.2-118.71,0-3.48-.89-6-2.7-7.79-3.09-3-8.09-3-8.15-2.95H191.75Z"/><path class="cls-1" d="M179.92,274.6s-25.12-28-34.52-38.37c-6.42-7.12-22.8-8.35-28.58-8.23H22.17C13.66,228,7,221.55,7,213.31v-12.2A15.15,15.15,0,0,1,22.17,186H129.76c2-.12,15.79-.56,27.74,8,11.14,8,21.23,16.21,21.33,16.29a5,5,0,0,1-6.31,7.76c-.1-.08-10-8.1-20.86-15.93-9.61-6.91-21.25-6.17-21.36-6.16H22.17A5.15,5.15,0,0,0,17,201.11v12.2c0,3.08,2.6,4.69,5.17,4.69h94.48c2.87-.06,25.62-.16,36.18,11.53,9.4,10.42,34.52,38.39,34.52,38.39Z"/><path class="cls-1" d="M261.57,195.81a5,5,0,0,1-.73-9.95h0c.21,0,20.28-3.33,19.79-14.07-.19-4.29-.79-17.35,8.76-27.35,8.52-8.92,23.17-13.44,43.53-13.44h10.13c20.37,0,35,4.52,43.53,13.44,9.55,10,9,23.06,8.76,27.35-.49,10.81,19.58,14,19.78,14.07a5,5,0,0,1-1.45,9.89c-10.85-1.58-29-8.51-28.32-24.41.26-5.62-.09-13.8-6-20-6.56-6.87-18.77-10.35-36.3-10.35H332.92c-17.53,0-29.74,3.48-36.3,10.35-5.91,6.19-6.25,14.37-6,20,.73,15.9-17.46,22.83-28.32,24.42A6.11,6.11,0,0,1,261.57,195.81Z"/></svg>