<?xml version="1.0" ?><svg id="Lines" viewBox="0 0 512 512" xmlns="http://www.w3.org/2000/svg"><defs><style>.cls-1{fill:#3f456b;}</style></defs><title/><path class="cls-1" d="M296,500a5,5,0,0,1-4.87-3.85c-4-17-8.34-34.12-12.54-50.65s-8.48-33.43-12.49-50.44a5,5,0,1,1,9.73-2.29c4,16.93,8.3,33.88,12.46,50.27,4.2,16.57,8.55,33.7,12.58,50.81a5,5,0,0,1-3.72,6A5.07,5.07,0,0,1,296,500Z"/><path class="cls-1" d="M254.58,332.82a5,5,0,0,1-4.85-3.79q-4.51-18.21-9-36.41a5,5,0,0,1,9.7-2.42l9.06,36.42a5,5,0,0,1-3.65,6.05A4.61,4.61,0,0,1,254.58,332.82Z"/><path class="cls-1" d="M235.93,258a5,5,0,0,1-4.84-3.78q-5.4-21.58-10.82-43.17a5,5,0,1,1,9.7-2.44q5.42,21.58,10.82,43.18a5,5,0,0,1-3.64,6.06A5.15,5.15,0,0,1,235.93,258Z"/><path class="cls-1" d="M216.12,179.08a5,5,0,0,1-4.84-3.78q-5.44-21.53-10.92-43a5,5,0,0,1,9.7-2.47q5.48,21.53,10.91,43.07a5,5,0,0,1-3.62,6.07A5.17,5.17,0,0,1,216.12,179.08Z"/><path class="cls-1" d="M196.22,100a5,5,0,0,1-4.85-3.79l-11.72-47a5,5,0,0,1,9.7-2.42l11.73,47a5,5,0,0,1-4.86,6.21Z"/><path class="cls-1" d="M245.81,501H212.54a5,5,0,0,1-4.85-6.21L318.41,50.55a5,5,0,1,1,9.7,2.42L218.94,491h22.95L350.3,50.57A5,5,0,0,1,360,53L250.66,497.2A5,5,0,0,1,245.81,501Z"/><path class="cls-1" d="M304,133H112a5,5,0,0,1-5-5V95a5,5,0,0,1,5-5H312a5,5,0,0,1,0,10H117v23H304a5,5,0,0,1,0,10Z"/><path class="cls-1" d="M449,133H337a5,5,0,0,1,0-10H444V100H345a5,5,0,0,1,0-10H449a5,5,0,0,1,5,5v33A5,5,0,0,1,449,133Z"/><path class="cls-1" d="M264,293H72a5,5,0,0,1-5-5V255a5,5,0,0,1,5-5H272a5,5,0,0,1,0,10H77v23H264a5,5,0,0,1,0,10Z"/><path class="cls-1" d="M244,373H52a5,5,0,0,1-5-5V335a5,5,0,0,1,5-5H252a5,5,0,0,1,0,10H57v23H244a5,5,0,0,1,0,10Z"/><path class="cls-1" d="M223,453H31a5,5,0,0,1-5-5V415a5,5,0,0,1,5-5H231a5,5,0,0,1,0,10H36v23H223a5,5,0,0,1,0,10Z"/><path class="cls-1" d="M284,213H92a5,5,0,0,1-5-5V175a5,5,0,0,1,5-5H292a5,5,0,0,1,0,10H97v23H284a5,5,0,0,1,0,10Z"/><path class="cls-1" d="M385,53H128a5,5,0,0,1-5-5V15a5,5,0,0,1,5-5H385a5,5,0,0,1,5,5V48A5,5,0,0,1,385,53ZM133,43H380V20H133Z"/><path class="cls-1" d="M481,500a5,5,0,0,1-4.85-3.79l-111.5-447a5,5,0,0,1,9.7-2.42l111.5,447a5,5,0,0,1-3.64,6.06A5.07,5.07,0,0,1,481,500Z"/><path class="cls-1" d="M445,356H282a5,5,0,0,1,0-10H445a5,5,0,0,1,0,10Z"/><path class="cls-1" d="M464,437H282a5,5,0,0,1,0-10H464a5,5,0,0,1,0,10Z"/><path class="cls-1" d="M425,276H301a5,5,0,0,1,0-10H425a5,5,0,0,1,0,10Z"/><path class="cls-1" d="M404,196H321a5,5,0,0,1,0-10h83a5,5,0,0,1,0,10Z"/><path class="cls-1" d="M385,116H341a5,5,0,0,1,0-10h44a5,5,0,0,1,0,10Z"/><path class="cls-1" d="M132.18,100a5.15,5.15,0,0,1-1.22-.15,5,5,0,0,1-3.63-6.07l11.82-47a5,5,0,0,1,9.7,2.44L137,96.22A5,5,0,0,1,132.18,100Z"/><path class="cls-1" d="M112.2,179.42a4.68,4.68,0,0,1-1.22-.15,5,5,0,0,1-3.63-6.07L119,126.78a5,5,0,1,1,9.69,2.44l-11.67,46.42A5,5,0,0,1,112.2,179.42Z"/><path class="cls-1" d="M91.93,260a5.15,5.15,0,0,1-1.22-.15,5,5,0,0,1-3.63-6.07l11.82-47a5,5,0,1,1,9.7,2.44l-11.82,47A5,5,0,0,1,91.93,260Z"/><path class="cls-1" d="M71.81,340a5.17,5.17,0,0,1-1.23-.15A5,5,0,0,1,67,333.78l11.66-46.34a5,5,0,1,1,9.7,2.44L76.65,336.22A5,5,0,0,1,71.81,340Z"/><path class="cls-1" d="M105,340a5.15,5.15,0,0,1-1.22-.15,5,5,0,0,1-3.64-6.07l11.63-46.34a5,5,0,0,1,9.7,2.43l-11.63,46.35A5,5,0,0,1,105,340Z"/><path class="cls-1" d="M125.06,260a5.17,5.17,0,0,1-1.23-.15,5,5,0,0,1-3.63-6.07l11.8-47a5,5,0,0,1,9.7,2.44l-11.8,47A5,5,0,0,1,125.06,260Z"/><path class="cls-1" d="M145.13,180a5.15,5.15,0,0,1-1.22-.15,5,5,0,0,1-3.63-6.07l11.79-47a5,5,0,0,1,9.7,2.44l-11.79,47A5,5,0,0,1,145.13,180Z"/><path class="cls-1" d="M165.21,100a5.15,5.15,0,0,1-1.22-.15,5,5,0,0,1-3.64-6.07l11.8-47a5,5,0,0,1,9.7,2.44l-11.8,47A5,5,0,0,1,165.21,100Z"/><path class="cls-1" d="M320,53a5,5,0,0,1-5-5V15a5,5,0,0,1,10,0V48A5,5,0,0,1,320,53Z"/><path class="cls-1" d="M51.68,420a5.15,5.15,0,0,1-1.22-.15,5,5,0,0,1-3.63-6.07l11.57-46a5,5,0,1,1,9.69,2.44l-11.56,46A5,5,0,0,1,51.68,420Z"/><path class="cls-1" d="M64.57,501H31.3a5,5,0,0,1-4.87-6.15l11.16-47.3a5,5,0,1,1,9.73,2.29L37.62,491H60.67l11.1-44.22a5,5,0,0,1,9.7,2.44l-12,48A5,5,0,0,1,64.57,501Z"/><path class="cls-1" d="M84.9,420a5.15,5.15,0,0,1-1.22-.15,5,5,0,0,1-3.63-6.07l11.6-46.23a5,5,0,0,1,9.7,2.43l-11.6,46.24A5,5,0,0,1,84.9,420Z"/><path class="cls-1" d="M324,116a5,5,0,0,1-5-5v-1a5,5,0,0,1,10,0v1A5,5,0,0,1,324,116Z"/><path class="cls-1" d="M304,199a5,5,0,0,1-5-5v-1a5,5,0,0,1,10,0v1A5,5,0,0,1,304,199Z"/><path class="cls-1" d="M284,279a5,5,0,0,1-5-5v-1a5,5,0,0,1,10,0v1A5,5,0,0,1,284,279Z"/><path class="cls-1" d="M264,359a5,5,0,0,1-5-5v-1a5,5,0,0,1,10,0v1A5,5,0,0,1,264,359Z"/><path class="cls-1" d="M245,437a5,5,0,0,1-5-5v-1a5,5,0,0,1,10,0v1A5,5,0,0,1,245,437Z"/></svg>