<?xml version="1.0" ?><svg viewBox="0 0 512 512" xmlns="http://www.w3.org/2000/svg"><defs><style>.cls-1{fill:#3f456b;}</style></defs><title/><g id="Lines"><path class="cls-1" d="M466,162.75a5,5,0,0,1-5-5V117a3,3,0,0,0-3-3H441a5,5,0,0,1,0-10h17a13,13,0,0,1,13,13v40.75A5,5,0,0,1,466,162.75Z"/><path class="cls-1" d="M192,163a5,5,0,0,1-5-5V117a13,13,0,0,1,13-13h17a5,5,0,0,1,0,10H200a3,3,0,0,0-3,3v41A5,5,0,0,1,192,163Z"/><path class="cls-1" d="M434,423.41a28.83,28.83,0,1,1,28.83-28.83A28.87,28.87,0,0,1,434,423.41Zm0-47.66a18.83,18.83,0,1,0,18.83,18.83A18.86,18.86,0,0,0,434,375.75Z"/><path class="cls-1" d="M441,164a5,5,0,0,1-5-5V21H222V159a5,5,0,0,1-10,0V16a5,5,0,0,1,5-5H441a5,5,0,0,1,5,5V159A5,5,0,0,1,441,164Z"/><path class="cls-1" d="M466,469H177a5,5,0,0,1,0-10H466a25,25,0,0,0,25-25V190a25,25,0,0,0-25-25H177a5,5,0,0,1,0-10H466a35,35,0,0,1,35,35V434A35,35,0,0,1,466,469Z"/><path class="cls-1" d="M47,469H46c-18.65,0-35-17.76-35-38V190a35,35,0,0,1,35-35h2a5,5,0,0,1,0,10H46a25,25,0,0,0-25,25V431c0,16,13.2,28,25,28h1a5,5,0,0,1,0,10Z"/><path class="cls-1" d="M439,261H257a5,5,0,0,1-5-5V204a5,5,0,0,1,5-5H439a5,5,0,0,1,5,5v52A5,5,0,0,1,439,261ZM262,251H434V209H262Z"/><path class="cls-1" d="M157,500H69a25,25,0,0,1-25-25V148a25,25,0,0,1,25-25h88a25,25,0,0,1,25,25V475A25,25,0,0,1,157,500ZM69,133a15,15,0,0,0-15,15V475a15,15,0,0,0,15,15h88a15,15,0,0,0,15-15V148a15,15,0,0,0-15-15Z"/><path class="cls-1" d="M83,133a5,5,0,0,1-5-5V80a5,5,0,0,1,10,0v48A5,5,0,0,1,83,133Z"/><path class="cls-1" d="M259.29,339H258a5,5,0,0,1,0-10h1.29a5,5,0,0,1,0,10Z"/><path class="cls-1" d="M298.11,339h-1.29a5,5,0,1,1,0-10h1.29a5,5,0,0,1,0,10Z"/><path class="cls-1" d="M335.63,339h-1.29a5,5,0,1,1,0-10h1.29a5,5,0,0,1,0,10Z"/><path class="cls-1" d="M375,339h-1.29a5,5,0,0,1,0-10H375a5,5,0,0,1,0,10Z"/><path class="cls-1" d="M259.29,300H258a5,5,0,0,1,0-10h1.29a5,5,0,0,1,0,10Z"/><path class="cls-1" d="M298.11,300h-1.29a5,5,0,1,1,0-10h1.29a5,5,0,0,1,0,10Z"/><path class="cls-1" d="M335.63,300h-1.29a5,5,0,1,1,0-10h1.29a5,5,0,0,1,0,10Z"/><path class="cls-1" d="M375,300h-1.29a5,5,0,0,1,0-10H375a5,5,0,0,1,0,10Z"/><path class="cls-1" d="M259.29,417H258a5,5,0,0,1,0-10h1.29a5,5,0,0,1,0,10Z"/><path class="cls-1" d="M298.11,417h-1.29a5,5,0,1,1,0-10h1.29a5,5,0,0,1,0,10Z"/><path class="cls-1" d="M335.63,417h-1.29a5,5,0,1,1,0-10h1.29a5,5,0,0,1,0,10Z"/><path class="cls-1" d="M375,417h-1.29a5,5,0,0,1,0-10H375a5,5,0,0,1,0,10Z"/><path class="cls-1" d="M259.29,378H258a5,5,0,0,1,0-10h1.29a5,5,0,0,1,0,10Z"/><path class="cls-1" d="M298.11,378h-1.29a5,5,0,1,1,0-10h1.29a5,5,0,0,1,0,10Z"/><path class="cls-1" d="M335.63,378h-1.29a5,5,0,1,1,0-10h1.29a5,5,0,0,1,0,10Z"/><path class="cls-1" d="M375,378h-1.29a5,5,0,0,1,0-10H375a5,5,0,0,1,0,10Z"/><path class="cls-1" d="M439,339h-1.29a5,5,0,0,1,0-10H439a5,5,0,0,1,0,10Z"/><path class="cls-1" d="M439,300h-1.29a5,5,0,0,1,0-10H439a5,5,0,0,1,0,10Z"/></g><g id="Outline"><path class="cls-1" d="M417,57H243a5,5,0,0,1,0-10H417a5,5,0,0,1,0,10Z"/><path class="cls-1" d="M417,93H243a5,5,0,0,1,0-10H417a5,5,0,0,1,0,10Z"/><path class="cls-1" d="M417,128H243a5,5,0,0,1,0-10H417a5,5,0,0,1,0,10Z"/><path class="cls-1" d="M202,440a5,5,0,0,1,5-5h0a5,5,0,0,1,5,5h0a5,5,0,0,1-5,5h0A5,5,0,0,1,202,440Zm0-20a5,5,0,0,1,5-5h0a5,5,0,0,1,5,5h0a5,5,0,0,1-5,5h0A5,5,0,0,1,202,420Zm0-20a5,5,0,0,1,5-5h0a5,5,0,0,1,5,5h0a5,5,0,0,1-5,5h0A5,5,0,0,1,202,400Zm0-20a5,5,0,0,1,5-5h0a5,5,0,0,1,5,5h0a5,5,0,0,1-5,5h0A5,5,0,0,1,202,380Zm0-20a5,5,0,0,1,5-5h0a5,5,0,0,1,5,5h0a5,5,0,0,1-5,5h0A5,5,0,0,1,202,360Zm0-20a5,5,0,0,1,5-5h0a5,5,0,0,1,5,5h0a5,5,0,0,1-5,5h0A5,5,0,0,1,202,340Zm0-20a5,5,0,0,1,5-5h0a5,5,0,0,1,5,5h0a5,5,0,0,1-5,5h0A5,5,0,0,1,202,320Zm0-20a5,5,0,0,1,5-5h0a5,5,0,0,1,5,5h0a5,5,0,0,1-5,5h0A5,5,0,0,1,202,300Zm0-20a5,5,0,0,1,5-5h0a5,5,0,0,1,5,5h0a5,5,0,0,1-5,5h0A5,5,0,0,1,202,280Zm0-20a5,5,0,0,1,5-5h0a5,5,0,0,1,5,5h0a5,5,0,0,1-5,5h0A5,5,0,0,1,202,260Zm0-20a5,5,0,0,1,5-5h0a5,5,0,0,1,5,5h0a5,5,0,0,1-5,5h0A5,5,0,0,1,202,240Zm0-20a5,5,0,0,1,5-5h0a5,5,0,0,1,5,5h0a5,5,0,0,1-5,5h0A5,5,0,0,1,202,220Zm0-20a5,5,0,0,1,5-5h0a5,5,0,0,1,5,5h0a5,5,0,0,1-5,5h0A5,5,0,0,1,202,200Zm0-20a5,5,0,0,1,5-5h0a5,5,0,0,1,5,5h0a5,5,0,0,1-5,5h0A5,5,0,0,1,202,180Zm0-20a5,5,0,0,1,5-5h0a5,5,0,0,1,5,5h0a5,5,0,0,1-5,5h0A5,5,0,0,1,202,160Z"/></g></svg>