<?xml version="1.0" ?><svg viewBox="0 0 512 512" xmlns="http://www.w3.org/2000/svg"><defs><style>.cls-1{fill:#3f456b;}</style></defs><title/><g id="Lines"><path class="cls-1" d="M100.8,437c-21.37,0-39.49-6.49-54.07-19.38C22.25,396,9.91,357.58,12,309.48c1.4-32.6,22.18-58,55.58-68.06C79,238,91.87,235.78,107,234.64h0c11.78-.89,23.34-1,33.1-1h.25c39.12,0,58.82,7.62,70.25,13.35,20.52,10.31,28.79,33.38,22.69,63.31-5.95,29.24-19.3,57.48-37.58,79.52C175,414.85,149,430.58,120.77,435.29A122.27,122.27,0,0,1,100.8,437Zm7-192.41c-14.4,1.08-26.6,3.17-37.32,6.39C40.85,259.87,23.19,281.34,22,309.91c-1.93,45,9.22,80.62,31.39,100.24C69.91,424.8,92,429.93,119.12,425.42c25.87-4.31,49.69-18.83,68.9-42,17.24-20.8,29.84-47.48,35.47-75.13,3-14.79,4.76-41.26-17.37-52.38-21.89-11-47.93-12.29-65.71-12.29h-.3c-9.57,0-20.91.13-32.36,1Zm-.38-5h0Z"/><path class="cls-1" d="M412,437a122.27,122.27,0,0,1-20-1.73c-28.27-4.71-54.19-20.44-74.95-45.49-18.27-22-31.62-50.28-37.57-79.52-6.1-29.93,2.17-53,22.68-63.31,23.79-11.94,51.39-13.35,70.2-13.35h.3c9.76,0,21.33.13,33.11,1,15.12,1.14,28,3.36,39.44,6.78,33.41,10,54.19,35.46,55.59,68.06,2.06,48.1-10.29,86.51-34.76,108.16C451.49,430.53,433.36,437,412,437Zm-39.55-193.4c-37,0-55.25,7-65.77,12.29C284.54,267,286.29,293.5,289.3,308.29c5.64,27.65,18.24,54.33,35.48,75.13,19.21,23.17,43,37.69,68.89,42,27.09,4.52,49.21-.62,65.77-15.27,22.18-19.62,33.32-55.22,31.39-100.24-1.22-28.57-18.88-50-48.46-58.91-10.72-3.22-22.93-5.31-37.32-6.39h0c-11.46-.86-22.79-1-32.37-1Z"/><path class="cls-1" d="M393.16,243.62h-.26c-135.36-7-272.48-.07-273.85,0a5,5,0,1,1-.52-10c1.38-.07,139-7,274.88,0a5,5,0,0,1-.25,10Z"/><path class="cls-1" d="M282.55,302.66a4.9,4.9,0,0,1-1.41-.2c-22.19-6.49-49.66,0-49.94.06a5,5,0,0,1-2.35-9.72c1.22-.29,30.31-7.19,55.1.06a5,5,0,0,1-1.4,9.8Z"/><path class="cls-1" d="M494,301a5,5,0,0,1-4.87-3.85l-42-178,0-.15c0-.2-4.59-21.26-20.89-30.28-10-5.53-22.6-5.54-37.47,0s-27,10.4-27.12,10.45a5,5,0,1,1-3.74-9.28c.12,0,12.34-5,27.38-10.55,17.77-6.58,33.2-6.34,45.86.7,19.95,11.09,25.36,35,25.76,36.91l42,177.93a5,5,0,0,1-3.72,6A5.07,5.07,0,0,1,494,301Z"/><path class="cls-1" d="M18.75,301a5.07,5.07,0,0,1-1.15-.13,5,5,0,0,1-3.72-6l42-177.93C56.27,115,61.68,91.1,81.62,80c12.67-7,28.1-7.28,45.87-.7,15,5.57,27.26,10.5,27.38,10.55a5,5,0,0,1-3.74,9.28c-.12,0-12.22-4.93-27.12-10.45s-27.53-5.5-37.52.06c-16.36,9.1-20.8,30-20.84,30.25l0,.15-42,178A5,5,0,0,1,18.75,301Z"/></g><g id="Outline"><path class="cls-1" d="M74.5,362.5A5,5,0,0,1,71,354l75-75A5,5,0,0,1,153,286L78,361A5,5,0,0,1,74.5,362.5Z"/><path class="cls-1" d="M117,366a5,5,0,0,1-3.54-8.54l36-36a5,5,0,0,1,7.08,7.08l-36,36A5,5,0,0,1,117,366Z"/><path class="cls-1" d="M350.5,362.5A5,5,0,0,1,347,354l75-75A5,5,0,0,1,429,286l-75,75A5,5,0,0,1,350.5,362.5Z"/><path class="cls-1" d="M393,366a5,5,0,0,1-3.54-8.54l36-36a5,5,0,0,1,7.08,7.08l-36,36A5,5,0,0,1,393,366Z"/></g></svg>