<?xml version="1.0" ?><svg viewBox="0 0 512 512" xmlns="http://www.w3.org/2000/svg"><defs><style>.cls-1{fill:#3f456b;}</style></defs><title/><g id="Lines"><path class="cls-1" d="M346.28,336.47a5.2,5.2,0,0,1-1-.09,5,5,0,0,1-4-5.86c5.9-30.53-1.26-62-18.25-80.17-10.74-11.49-24.6-16.55-40.06-14.63a4.25,4.25,0,0,1-.8,0c-.84,0-21-.38-36.64,18.1a5,5,0,1,1-7.63-6.46c17.48-20.67,40-21.64,44-21.64h.16c18.62-2.21,35.3,3.93,48.24,17.77,19.1,20.44,27.25,55.33,20.76,88.9A5,5,0,0,1,346.28,336.47Z"/><path class="cls-1" d="M223.61,414.74A60.06,60.06,0,1,1,262.1,308.58a5,5,0,1,1-6.41,7.67,50.06,50.06,0,1,0-32.08,88.49,48.19,48.19,0,0,0,22-5.35c5.33-2.72,9.57-6.66,14.07-10.82,1.35-1.26,2.71-2.52,4.12-3.77a27.68,27.68,0,0,1,15.58-7.24,4.1,4.1,0,0,1,.5,0h0a80.71,80.71,0,0,0,27.83-6c18.55-7.77,29.86-21.56,33.62-41a5,5,0,0,1,9.82,1.9c-4.4,22.73-18.2,39.49-39.92,48.46a90.06,90.06,0,0,1-31.11,6.66c-4.08.45-7.51,2.82-9.69,4.75-1.35,1.19-2.65,2.41-3.95,3.61-4.8,4.45-9.76,9.05-16.33,12.4A58.12,58.12,0,0,1,223.61,414.74Z"/><path class="cls-1" d="M238.29,292.42c-15.79,0-24.4-7.65-29-15-4.24-6.77-5.21-14.28-2.88-22.32,6.57-22.65,38.64-43.84,52.08-51.3-.94-3.55-1.66-8.61.06-13a12.61,12.61,0,0,1,6.88-7.13c4.51-2,9.87-.6,15.1,3.87,9.83,8.39,17.83,26.69,13.3,44.09a5,5,0,1,1-9.68-2.52c3.73-14.3-3.67-28.47-10.11-34-2.55-2.18-4.27-2.45-4.61-2.31-4.15,1.82-.3,11.33-.26,11.42a5,5,0,0,1-2.42,6.53c-6.69,3.2-44.45,25.48-50.73,47.12a16.68,16.68,0,0,0,1.74,14.23c6.13,9.77,17.51,12.63,33.83,8.5a103.2,103.2,0,0,0,24.53-10.13,5,5,0,1,1,5.16,8.56A112,112,0,0,1,254,290.27,64,64,0,0,1,238.29,292.42Z"/><path class="cls-1" d="M265,332.9a5,5,0,0,1-4.24-2.34c-.47-.75-11.51-18.71-7.24-47.53a5,5,0,1,1,9.89,1.47c-3.73,25.19,5.72,40.59,5.82,40.74A5,5,0,0,1,265,332.9Z"/><path class="cls-1" d="M283.55,302.44a5,5,0,0,1-3.62-1.54c-5.78-6-10-20.79-10.45-22.45a5,5,0,0,1,9.64-2.67c1.48,5.34,5,15,8,18.21a5,5,0,0,1-3.61,8.45Z"/><path class="cls-1" d="M227.73,437a130,130,0,0,1-23.32-2.06C163,427.4,134.74,395.73,134,356.11a86.25,86.25,0,0,1,14.51-48.92,142.41,142.41,0,0,1,12.08-15c6.36-7.19,12.36-14,15.8-22.36,3.36-8.2,5.49-16.67,7.75-25.65,1.88-7.44,3.81-15.14,6.51-22.6a105.27,105.27,0,0,1,9-18.89h0c18.89-31.06,59.91-44.59,99.75-32.91a99.31,99.31,0,0,1,52.43,37.1c12.26,16.74,19.95,37.23,22.22,59.25.11,1,.2,2.06.29,3.09,2,23.31.5,45-4.48,64.4-5.88,22.95-16.52,42.16-31.62,57.12C308.63,420.06,267.21,437,227.73,437ZM208.18,207.89A94.91,94.91,0,0,0,200.07,225c-2.53,7-4.41,14.45-6.22,21.65-2.25,8.92-4.57,18.15-8.2,27-4.08,9.95-10.93,17.69-17.55,25.19a132.37,132.37,0,0,0-11.26,13.93A76.19,76.19,0,0,0,144,355.93c.64,34.72,25.63,62.51,62.19,69.17,21.32,3.88,44.62,1.79,67.38-6a152.8,152.8,0,0,0,57.62-35.43c18-17.88,38.45-52.09,33.17-113.55-.08-1-.18-1.95-.28-2.93-4.46-43.23-30.33-76.86-67.51-87.77-41.43-12.15-74.86,6.26-88.4,28.51Z"/><path class="cls-1" d="M23.33,501a5,5,0,0,1-4.83-3.69c-15-55.45.37-107.72,47-159.81,22-24.58,30.91-52.69,27.26-85.94-3.68-33.55-20-67.08-32-89.39-22.22-41.46-30.63-96.4-22.5-147A5,5,0,0,1,43.21,11H227a5.34,5.34,0,0,1,1.38.19l2.61.75c31.32,9,104.67,29.9,98,83.68-1.59,12.83-10.14,22.9-24.73,29.11-1.71.73-3.4,1.36-5,1.91a206.3,206.3,0,0,1,49.24,33.77,175,175,0,0,1,41.63,57.81c11.86,26.89,16.66,57.07,14.27,89.69-2.21,30.11-11.51,58.29-26.89,81.5a152.29,152.29,0,0,1-28.84,32.35,164.33,164.33,0,0,1-13.72,10c-7.73,5.24-15,10.2-20.48,17.13-8.45,10.76-10.16,27-4.7,44.59A5,5,0,0,1,305,500L23.34,501ZM47.51,21C40.82,68.3,49,119,69.59,157.45c29.72,55.45,57,126.79,3.34,186.72C29.81,392.36,14.83,440.43,27.2,491l271.27-1c-5.69-24.63,2.44-40,8.14-47.28,6.4-8.15,14.7-13.78,22.73-19.23a153.62,153.62,0,0,0,12.88-9.4,142.32,142.32,0,0,0,27-30.23c14.43-21.77,23.16-48.3,25.24-76.7,2.28-31-2.24-59.54-13.44-84.93a165.2,165.2,0,0,0-39.28-54.51c-29.23-27.14-59.89-37.76-60.2-37.86a5,5,0,0,1,1.17-9.71,67.15,67.15,0,0,0,17.93-4.73c11.14-4.81,17.37-11.89,18.51-21.06,5.61-45.27-62-64.58-90.83-72.83L226.34,21Z"/></g><g id="Outline"><path class="cls-1" d="M502,296.11H470.41a5,5,0,1,1,0-10H502a5,5,0,0,1,0,10Z"/><path class="cls-1" d="M458,402.32a4.94,4.94,0,0,1-3.53-1.46l-22.34-22.34a5,5,0,0,1,7.07-7.07l22.34,22.34a5,5,0,0,1-3.54,8.53Z"/><path class="cls-1" d="M435.67,212.23a5,5,0,0,1-3.54-8.54l22.34-22.34a5,5,0,0,1,7.07,7.08L439.2,210.76A5,5,0,0,1,435.67,212.23Z"/><path class="cls-1" d="M403.61,424a5,5,0,0,1-4.63-3.11l-7.61-18.68a5,5,0,1,1,9.26-3.78l7.61,18.68a5,5,0,0,1-4.63,6.89Z"/><path class="cls-1" d="M462,251.21a5,5,0,0,1-1.89-9.63l17.08-7a5,5,0,1,1,3.77,9.26l-17.07,7A4.86,4.86,0,0,1,462,251.21Z"/><path class="cls-1" d="M478.17,349.78a4.91,4.91,0,0,1-1.93-.4l-18.59-7.82a5,5,0,0,1,3.88-9.22l18.59,7.83a5,5,0,0,1-1.95,9.61Z"/><path class="cls-1" d="M397.24,186.3a5.13,5.13,0,0,1-1.94-.39,5,5,0,0,1-2.67-6.55l7.16-17a5,5,0,1,1,9.21,3.88l-7.15,17A5,5,0,0,1,397.24,186.3Z"/></g></svg>