<?xml version="1.0" ?><svg id="Lines" viewBox="0 0 512 512" xmlns="http://www.w3.org/2000/svg"><defs><style>.cls-1{fill:#3f456b;}</style></defs><title/><path class="cls-1" d="M232.49,454A221.51,221.51,0,0,1,75.86,75.88,221.5,221.5,0,0,1,454,229a5,5,0,0,1-4.92,5.08H449a5,5,0,0,1-5-4.92A211.51,211.51,0,0,0,82.93,83,211.5,211.5,0,0,0,232.49,444a214.94,214.94,0,0,0,30.27-2.14c.25,0,26.77-4,42.13-10.57a5,5,0,0,1,3.93,9.2c-16.55,7.07-43.48,11.09-44.62,11.26A223.63,223.63,0,0,1,232.49,454Z"/><path class="cls-1" d="M388.79,240.87a5,5,0,0,1-4.28-7.57,45.22,45.22,0,0,1,2.53-3.78c2.94-3.94,6.46-8,9.87-11.89,13.43-15.41,21.65-26.16,13.83-34.77-4.79-5.29-12.83-10.27-20.61-15.08-12-7.41-22.34-13.81-23.61-22.52-.38-2.59-.06-6.54,3.6-10.65,9.11-10.25,20.19-1.55,30,6.13,10.17,8,21.7,17,35.63,15.16a5,5,0,0,1,1.35,9.91c-18.13,2.46-32.6-8.91-43.16-17.21-10.93-8.59-14-10-16.31-7.35-1.33,1.5-1.21,2.27-1.17,2.57.6,4.09,11.21,10.66,19,15.46,8.37,5.17,17,10.53,22.76,16.86,14.37,15.84-1.19,33.71-13.7,48.06-3.44,3.94-6.68,7.66-9.39,11.3a33.46,33.46,0,0,0-2,2.94A5,5,0,0,1,388.79,240.87Z"/><path class="cls-1" d="M298.14,367a4.94,4.94,0,0,1-2.26-.54c-6.59-3.35-8.88-10.62-9.2-14.39-1-11.87-8.23-15.29-8.53-15.43a4.63,4.63,0,0,1-.73-.39c-10.36-6.75-13.31-15.13-14-21-1.15-10.3,3.89-20.73,9.06-26.05a8.83,8.83,0,0,0,2.44-8.52,4,4,0,0,1-.23-1.13c-.93-11.39-16-13.74-16.82-13.87-10.49-1.13-21.7,2.68-21.81,2.72-19.69,6.81-43.69,4.48-61.13-5.95-13-7.76-21.35-19.47-23.54-33-5.24-32.29,16.56-49.29,32.48-52.83,6.39-1.41,10.48-6.14,13.7-15.79a34,34,0,0,1,8.48-14,4,4,0,0,1,.45-.37c18.16-12.91,39.84-11.9,62.7,2.92,13.62,8.83,25.13.3,25.25.21,1.89-1.43,7.28-6.5,7.57-11.11.07-1.22-.11-3.11-2.54-5.47-3.91-3.81-8.54-5.79-13-7.7-7.6-3.24-16.21-6.91-16-19.41.07-3.41-4.23-4.93-6.8-5.54-8.78-2.07-21.54.88-24.83,7.78-6.34,13.33-17.46,30-40.67,21C187.35,125.05,180,118,177.66,109.33a20.79,20.79,0,0,1,3.68-18.48c4.24-5.43,11.73-5.8,19.66-6.19,11-.55,23.38-1.16,33.05-13,5.18-6.34,7-13.88,8.69-21.18,2-8.38,4-17,11.2-23.15,7.68-6.52,19.85-8.87,38.31-7.37a5,5,0,0,1-.81,10c-32.94-2.67-35.34,7.48-39,22.85-1.89,8-4,17.09-10.68,25.21-12.48,15.26-28.56,16-40.29,16.64-5.34.26-10.85.53-12.28,2.36a10.69,10.69,0,0,0-1.92,9.66c1.5,5.43,6.8,10.27,14.53,13.26,12.57,4.87,20.17.53,28-16,2.7-5.65,8.38-10.05,16-12.38A39.81,39.81,0,0,1,266,90.72c9.23,2.18,14.65,8,14.51,15.46-.11,5.49,2.29,6.78,9.9,10,4.82,2.05,10.82,4.61,16.07,9.72,5,4.84,5.75,9.91,5.53,13.3-.65,10-10.41,17.61-11.52,18.44a32.29,32.29,0,0,1-36.71.19c-19.27-12.5-36.48-13.63-51.16-3.37a25.85,25.85,0,0,0-5.54,9.58c-2.74,8.21-7.9,19.47-21,22.39-.3.06-30.34,7.15-24.78,41.46,2.19,13.5,11.43,21.59,18.8,26,15,9,35.71,11,52.72,5.08.54-.18,13.45-4.61,26.24-3.2h.1c1,.13,23.48,3.28,25.48,22.4a18.9,18.9,0,0,1-4.95,18c-2.88,3-7.13,10.47-6.29,18,.59,5.31,3.7,9.86,9.23,13.54,2.5,1.25,12.62,7.29,14,23.51,0,0,.52,4.68,3.76,6.33a5,5,0,0,1-2.27,9.46Z"/><path class="cls-1" d="M138.83,432.76a5,5,0,0,1-2.44-9.37c4.58-2.55,6.92-5.5,7.16-9,.52-7.64-8.22-19.19-22.81-30.13-14.25-10.68-6.73-21.18-1.24-28.85,4.3-6,8.75-12.23,7.62-20.31-2.06-14.76-14.92-17.16-35.85-19.36-2.55-.26-5.19-.54-7.75-.86-24-3-30.66-18.1-35.07-46.76-.89-5.76-3.28-9.95-7.31-12.81-9.16-6.5-23.64-3.89-23.78-3.87a5,5,0,0,1-1.87-9.82c.76-.15,18.72-3.45,31.39,5.5,6.29,4.45,10.15,11,11.45,19.48,4.32,28.06,10,36.3,26.43,38.36,2.47.3,5,.58,7.55.84,18.46,1.94,41.43,4.35,44.72,27.92,1.68,12-4.46,20.62-9.4,27.51-6,8.43-7.1,10.38-.89,15C151.1,394.5,154,408.38,153.53,415c-.33,4.87-2.73,11.79-12.27,17.1A5,5,0,0,1,138.83,432.76Z"/><path class="cls-1" d="M83.84,147c-16.27,0-32.34-5.7-43-19.42a5,5,0,0,1,7.91-6.12c11.38,14.69,38.06,22.5,65.1,8,4.55-2.43,7.63-4.85,9.71-7.61,3.85-5.15,3.2-11.83,2.45-19.58-.62-6.41-1.26-13,.74-19.48,3.21-10.36,13.56-16.28,23.56-22,17-9.73,26.22-16.11,17.26-34a5,5,0,0,1,8.94-4.48c13.64,27.23-6.52,38.75-21.23,47.16-8.71,5-16.93,9.68-19,16.28-1.4,4.52-.88,9.88-.33,15.56.83,8.57,1.77,18.29-4.41,26.53-3,4-7.11,7.29-13,10.44A75,75,0,0,1,83.84,147Z"/><path class="cls-1" d="M364.16,485.49c-4.11,0-6.66-.18-7.13-.22a5,5,0,0,1-.86-.14c-14.44-3.69-34.85-15.63-48.86-38.08-21.65-34.68-17.31-77.28-9.86-106.91,10.35-41.15,37-76.08,77.14-101,30.14-18.74,56.89-25.21,58-25.48a5.06,5.06,0,0,1,3.5.46c.75.4,18.45,10,35.23,33.43,15.34,21.42,32.79,59,28.83,116.56-2.78,38.25-16.5,68.24-40.78,89.16C425.54,482.41,381.29,485.49,364.16,485.49Zm-6-10.16c5.2.28,57.73,2.21,94.72-29.71,22.16-19.12,34.7-46.79,37.28-82.23,3.75-54.55-12.61-89.95-27-110-12.6-17.59-25.71-26.68-30.19-29.47a214.52,214.52,0,0,0-53.43,23.9c-38.25,23.86-62.62,55.76-72.44,94.8-10.15,40.36-7.24,73.72,8.65,99.18C328.1,461.47,346.21,472.11,358.2,475.33Z"/><path class="cls-1" d="M357.41,500.79l-.47,0a5,5,0,0,1-4.51-5.45c13.13-139.88,76.16-277.53,76.79-278.91a5,5,0,0,1,9.08,4.2c-.63,1.36-62.95,137.51-75.91,275.64A5,5,0,0,1,357.41,500.79Z"/></svg>