<?xml version="1.0" ?><svg viewBox="0 0 512 512" xmlns="http://www.w3.org/2000/svg"><defs><style>.cls-1{fill:#3f456b;}</style></defs><title/><g id="Lines"><path class="cls-1" d="M154,173.76a5,5,0,0,1-5-5v-30a5,5,0,0,1,10,0v30A5,5,0,0,1,154,173.76Z"/><path class="cls-1" d="M55.79,148.27a14.62,14.62,0,0,1-9.08-3c-4.12-3.23-6.21-8.56-6.21-15.87s2.08-12.66,6.18-16a15.53,15.53,0,0,1,12.06-3l85.57,7.23a5,5,0,0,1-.84,10L57.66,120.4c-.22,0-.43-.06-.65-.1h0a5.67,5.67,0,0,0-4.11,1c-1.57,1.31-2.4,4.13-2.4,8.14s.82,6.74,2.33,8a5.57,5.57,0,0,0,4.12.8,3.29,3.29,0,0,1,.71-.11l85.81-7.25a5,5,0,1,1,.84,10L58.81,148A17,17,0,0,1,55.79,148.27Z"/><path class="cls-1" d="M252.85,148.27a15.93,15.93,0,0,1-3-.28l-85.5-7.22a5,5,0,0,1,.84-10L251,138.06a4.2,4.2,0,0,1,.79.13h0a5.54,5.54,0,0,0,4.06-.82c1.5-1.22,2.32-4,2.32-8s-.83-6.83-2.4-8.14a5.72,5.72,0,0,0-4.19-1,3.56,3.56,0,0,1-.57.09l-85.81,7.25a5,5,0,0,1-.84-10l85.57-7.23a15.53,15.53,0,0,1,12.06,3c4.1,3.31,6.18,8.68,6.18,16s-2.09,12.64-6.21,15.87A14.62,14.62,0,0,1,252.85,148.27Z"/><path class="cls-1" d="M156.26,143.76H151.7a14.5,14.5,0,0,1,0-29h4.56a14.5,14.5,0,1,1,0,29Zm-4.56-19a4.5,4.5,0,1,0,0,9h4.56a4.5,4.5,0,1,0,0-9Z"/><path class="cls-1" d="M388.33,141.76a5,5,0,0,1-5-5v-30a5,5,0,1,1,10,0v30A5,5,0,0,1,388.33,141.76Z"/><path class="cls-1" d="M290.14,116.27a14.63,14.63,0,0,1-9.08-3c-4.12-3.23-6.21-8.56-6.21-15.87s2.08-12.66,6.19-16a15.52,15.52,0,0,1,12.06-3l85.57,7.23a5,5,0,0,1-.85,10L292,88.4c-.21,0-.43-.06-.64-.1h0a5.67,5.67,0,0,0-4.11,1c-1.58,1.31-2.41,4.13-2.41,8.14s.83,6.74,2.33,8a5.58,5.58,0,0,0,4.12.8,3.49,3.49,0,0,1,.71-.11l85.81-7.25a5,5,0,1,1,.85,10L293.16,116A16.94,16.94,0,0,1,290.14,116.27Z"/><path class="cls-1" d="M487.21,116.27a15.93,15.93,0,0,1-3-.28l-85.5-7.22a5,5,0,1,1,.84-10l85.81,7.25a4.24,4.24,0,0,1,.78.13h0a5.52,5.52,0,0,0,4.05-.82c1.5-1.22,2.33-4,2.33-8s-.83-6.83-2.41-8.14a5.7,5.7,0,0,0-4.18-1,3.75,3.75,0,0,1-.57.09l-85.81,7.25a5,5,0,1,1-.84-10l85.56-7.23a15.52,15.52,0,0,1,12.06,3c4.11,3.31,6.19,8.68,6.19,16s-2.09,12.64-6.21,15.87A14.63,14.63,0,0,1,487.21,116.27Z"/><path class="cls-1" d="M390.61,111.76h-4.56a14.5,14.5,0,0,1,0-29h4.56a14.5,14.5,0,0,1,0,29Zm-4.56-19a4.5,4.5,0,0,0,0,9h4.56a4.5,4.5,0,0,0,0-9Z"/><path class="cls-1" d="M118.2,432.75a30.5,30.5,0,1,1,30.74-30.49A30.65,30.65,0,0,1,118.2,432.75Zm0-51a20.5,20.5,0,1,0,20.74,20.5A20.64,20.64,0,0,0,118.2,381.76Z"/><path class="cls-1" d="M60.1,365.76c-2.75,0-22.37-.48-35.65-13.5-7.93-7.78-11.95-18.32-11.95-31.34s4-23.57,11.94-31.4c10.14-10,24-12.75,31.2-13.49a92.28,92.28,0,0,1,7.43-29.33c7.19-15.94,22.6-34.94,55.13-34.94H309.59c.72-7.2,2.5-22.43,6.44-43.91,6.54-35.68,33.54-36.09,33.81-36.09H452c17.6,0,25.94,10.3,29.84,18.94a48.61,48.61,0,0,1,4.06,18.06v53.7c0,25.31-8.81,40.14-21,60.66l-1.6,2.69c-4,6.78-7.56,13-11,18.93-14.73,25.7-24.47,42.68-41.3,51.68-14.46,7.72-32.84,9.34-45.71,9.34H60.1Zm.23-80c-.51,0-18,.11-28.91,10.92-5.92,5.88-8.92,14-8.92,24.24s3,18.37,9,24.2C42.53,356,60.11,355.76,60.3,355.76h305c11.73,0,28.37-1.42,41-8.16,14.3-7.64,23.46-23.63,37.33-47.83,3.28-5.73,7-12.21,11.06-19.06l1.6-2.7c11.81-19.87,19.61-33,19.61-55.55v-53.7a38.77,38.77,0,0,0-3.29-14.2c-4-8.61-10.73-12.8-20.61-12.8H349.84c-.73,0-19,.67-24,27.9-5.39,29.37-6.69,47.27-6.7,47.45a5,5,0,0,1-5,4.65h-196c-21.83,0-37.31,9.77-46,29.05a81.9,81.9,0,0,0-6.78,29.95,5,5,0,0,1-5.06,5Z"/><path class="cls-1" d="M103.75,222.76a5,5,0,0,1-5-5v-19c0-19.3,14.39-35,32.09-35h47c17.7,0,32.09,15.7,32.09,35v18a5,5,0,0,1-10,0v-18c0-13.79-9.91-25-22.09-25h-47c-12.18,0-22.09,11.21-22.09,25v19A5,5,0,0,1,103.75,222.76Z"/><path class="cls-1" d="M118.84,407.26h-.64a5,5,0,0,1,0-10h.64a5,5,0,1,1,0,10Z"/><path class="cls-1" d="M364.29,432.75A30.5,30.5,0,1,1,395,402.26,30.66,30.66,0,0,1,364.29,432.75Zm0-51A20.5,20.5,0,1,0,385,402.26,20.65,20.65,0,0,0,364.29,381.76Z"/><path class="cls-1" d="M364.93,407.26h-.64a5,5,0,1,1,0-10h.64a5,5,0,1,1,0,10Z"/><path class="cls-1" d="M118.2,381.76a5,5,0,0,1-5-5V361.63a5,5,0,0,1,10,0v15.13A5,5,0,0,1,118.2,381.76Z"/><path class="cls-1" d="M364.29,381.76a5,5,0,0,1-5-5V360.87a5,5,0,0,1,10,0v15.89A5,5,0,0,1,364.29,381.76Z"/><path class="cls-1" d="M479.17,245c-.22,0-.44,0-.66,0a5,5,0,0,1-4.3-5.61c.65-5-.28-8.76-2.83-11.55-5-5.45-15.52-6.24-19.16-6.08H420.33a5,5,0,1,1,0-10h31.56c1.79-.07,17.94-.37,26.83,9.28,4.63,5,6.45,11.64,5.4,19.64A5,5,0,0,1,479.17,245Z"/><path class="cls-1" d="M340.17,221.76H310a5,5,0,0,1,0-10h30.21a5,5,0,1,1,0,10Z"/><path class="cls-1" d="M117,285.76H60.4a5,5,0,1,1,0-10h56.1c1.48-.34,7.25-2,7.25-6.75V253c-.28-1-1.89-4.73-10.25-4.73H70.42a5,5,0,0,1,0-10H113.5c14.82,0,19.71,9,20.22,13.71a4.89,4.89,0,0,1,0,.54V269c0,11.05-10.41,15.74-15.91,16.68A6,6,0,0,1,117,285.76Z"/><path class="cls-1" d="M195.33,288.67A25.67,25.67,0,1,1,221,263,25.69,25.69,0,0,1,195.33,288.67Zm0-41.33A15.67,15.67,0,1,0,211,263,15.68,15.68,0,0,0,195.33,247.34Z"/><path class="cls-1" d="M369,288.67A25.67,25.67,0,1,1,394.66,263,25.69,25.69,0,0,1,369,288.67Zm0-41.33A15.67,15.67,0,1,0,384.66,263,15.69,15.69,0,0,0,369,247.34Z"/><path class="cls-1" d="M282.16,288.67A25.67,25.67,0,1,1,307.83,263,25.69,25.69,0,0,1,282.16,288.67Zm0-41.33A15.67,15.67,0,1,0,297.83,263,15.69,15.69,0,0,0,282.16,247.34Z"/><path class="cls-1" d="M109,365.26a25,25,0,0,1-25-25v-18a25,25,0,0,1,25-25H448a5,5,0,1,1,0,10H109a15,15,0,0,0-15,15v18a15,15,0,0,0,15,15,5,5,0,0,1,0,10Z"/><path class="cls-1" d="M403.44,233.38H355.56a5,5,0,0,1-5-5V192.26a5,5,0,0,1,5-5h47.88a23.06,23.06,0,0,1,0,46.12Zm-42.88-10h42.88a13.06,13.06,0,0,0,0-26.12H360.56Z"/><path class="cls-1" d="M354.79,233.41A19.27,19.27,0,0,1,342,228.59c-4.5-4.09-6.78-10.23-6.78-18.27s2.28-14.18,6.78-18.27a19.37,19.37,0,0,1,14.1-4.77,5,5,0,0,1-1,9.95h0a9.6,9.6,0,0,0-6.48,2.29c-2.28,2.12-3.43,5.75-3.43,10.8s1.17,8.75,3.5,10.86a9.47,9.47,0,0,0,6.41,2.23,5,5,0,0,1,1,10A12.49,12.49,0,0,1,354.79,233.41Z"/><path class="cls-1" d="M449.5,221.74a5,5,0,0,1-5-5v-80a5,5,0,0,1,10,0v80A5,5,0,0,1,449.5,221.74Z"/><path class="cls-1" d="M173.8,221.76a5,5,0,0,1-5-5v-48a5,5,0,0,1,10,0v48A5,5,0,0,1,173.8,221.76Z"/><path class="cls-1" d="M96,285.76a5,5,0,0,1-5-5v-37.5a5,5,0,0,1,10,0v37.5A5,5,0,0,1,96,285.76Z"/></g><g id="Outline"><path class="cls-1" d="M331.14,333.76h-1a5,5,0,0,1,0-10h1a5,5,0,0,1,0,10Zm-21,0h-1a5,5,0,0,1,0-10h1a5,5,0,0,1,0,10Zm-21,0h-1a5,5,0,0,1,0-10h1a5,5,0,0,1,0,10Zm-21,0h-1a5,5,0,0,1,0-10h1a5,5,0,0,1,0,10Zm-21,0h-1a5,5,0,0,1,0-10h1a5,5,0,0,1,0,10Zm-21,0h-1a5,5,0,0,1,0-10h1a5,5,0,0,1,0,10Zm-21,0h-1a5,5,0,0,1,0-10h1a5,5,0,0,1,0,10Zm-21,0h-1a5,5,0,0,1,0-10h1a5,5,0,0,1,0,10Z"/></g></svg>