<?xml version="1.0" ?><svg id="Lines" viewBox="0 0 512 512" xmlns="http://www.w3.org/2000/svg"><defs><style>.cls-1{fill:#3f456b;}</style></defs><title/><path class="cls-1" d="M254.86,339.13a84.57,84.57,0,1,1,84.57-84.56A84.65,84.65,0,0,1,254.86,339.13Zm0-159.13a74.57,74.57,0,1,0,74.57,74.57A74.65,74.65,0,0,0,254.86,180Z"/><path class="cls-1" d="M337.34,179.66a5,5,0,0,1-3.53-8.54L492.3,12.63a5,5,0,1,1,7.07,7.07L340.88,178.19A5,5,0,0,1,337.34,179.66Z"/><path class="cls-1" d="M426.93,180H337a5,5,0,0,1-5-5V85.07a5,5,0,0,1,10,0V170h84.93a5,5,0,1,1,0,10Z"/><path class="cls-1" d="M176.47,181.63a5,5,0,0,1-3.54-1.46L12.46,19.7a5,5,0,0,1,7.08-7.07L180,173.1a5,5,0,0,1-3.53,8.53Z"/><path class="cls-1" d="M177,182H86a5,5,0,0,1,0-10H172v-86a5,5,0,0,1,10,0v91A5,5,0,0,1,177,182Z"/><path class="cls-1" d="M16,501a5,5,0,0,1-3.54-8.54L172.93,332a5,5,0,1,1,7.07,7.07L19.54,499.54A5,5,0,0,1,16,501Z"/><path class="cls-1" d="M177,431.05a5,5,0,0,1-5-5V340H86a5,5,0,1,1,0-10H177a5,5,0,0,1,5,5v91.05A5,5,0,0,1,177,431.05Z"/><path class="cls-1" d="M495.83,501a5,5,0,0,1-3.53-1.46L332.81,340.05a5,5,0,0,1,7.07-7.07L499.37,492.46a5,5,0,0,1-3.54,8.54Z"/><path class="cls-1" d="M336,431.48a5,5,0,0,1-5-5V336a5,5,0,0,1,5-5h90.49a5,5,0,0,1,0,10H341v85.5A5,5,0,0,1,336,431.48Z"/></svg>