<?xml version="1.0" ?><svg viewBox="0 0 512 512" xmlns="http://www.w3.org/2000/svg"><defs><style>.cls-1{fill:#3f456b;}</style></defs><title/><g id="Lines"><path class="cls-1" d="M494,138H399.26c-8.46,0-15.26-2.62-20.23-7.79-8.11-8.43-8.07-20.64-8-22.09V16h10v92.39c0,.07-.22,9.27,5.28,14.93,3,3.11,7.38,4.68,13,4.68H494Z"/><path class="cls-1" d="M470.68,468H401a5,5,0,0,1,0-10h69.68c11.75,0,21.32-10.6,21.32-23.62V135.62c0-11.37-10.55-24.31-14.62-28.33-.67-.68-62.23-63.27-75-76.09A39.32,39.32,0,0,0,376.66,20H157.05A23.34,23.34,0,0,0,134,43V207a5,5,0,0,1-10,0V43c0-17.89,15.13-33,33.05-33H376.59a48.77,48.77,0,0,1,32.82,14.13c12.84,12.85,74.43,75.47,75,76.1S502,117.8,502,135.62V434.38C502,452.92,488,468,470.68,468Z"/><path class="cls-1" d="M377.65,237.48h-10V222.74c0-.93-.26-5.58-5.38-5.58H293.68c-1.15,0-4.67,0-4.67,5.58v14.74H279V222.74c0-9.32,5.9-15.58,14.67-15.58h68.59c10.1,0,15.38,7.84,15.38,15.58Z"/><path class="cls-1" d="M381.88,501H34.2A23.23,23.23,0,0,1,11,477.8V253.57a23.23,23.23,0,0,1,23.2-23.2H144.91v10H34.2A13.21,13.21,0,0,0,21,253.57V477.8A13.21,13.21,0,0,0,34.2,491H381.88a13.21,13.21,0,0,0,13.2-13.2V253.57a13.21,13.21,0,0,0-13.2-13.2H269.59v-10H381.88a23.22,23.22,0,0,1,23.2,23.2V477.8A23.22,23.22,0,0,1,381.88,501Z"/><path class="cls-1" d="M118.06,313.55l-9.2-3.92,43.89-103c.76-2,8.77-21.65,26.93-21.65h54.8c18.17,0,26.18,19.66,26.94,21.65l40.11,94.26-9.2,3.92-40.24-94.58c-.05-.14-5.87-15.25-17.61-15.25h-54.8c-11.84,0-17.55,15.1-17.6,15.25l-.1.23Z"/><rect class="cls-1" height="10" width="108.68" x="16" y="277.85"/><rect class="cls-1" height="10" width="120.82" x="17.05" y="445.63"/><rect class="cls-1" height="10" width="122.22" x="277.86" y="445.63"/><path class="cls-1" d="M208,456.51a90.64,90.64,0,1,1,90.64-90.64A90.74,90.74,0,0,1,208,456.51Zm0-171.28a80.64,80.64,0,1,0,80.64,80.64A80.73,80.73,0,0,0,208,285.23Z"/><path class="cls-1" d="M208,432a66.15,66.15,0,1,1,66.15-66.15A66.22,66.22,0,0,1,208,432Zm0-122.29a56.15,56.15,0,1,0,56.15,56.14A56.2,56.2,0,0,0,208,309.73Z"/><path class="cls-1" d="M208,479.83a114,114,0,1,1,114-114A114.09,114.09,0,0,1,208,479.83Zm0-217.92a104,104,0,1,0,104,104A104.08,104.08,0,0,0,208,261.91Z"/><path class="cls-1" d="M317,394.6v-10a18.73,18.73,0,0,0,0-37.46v-10a28.73,28.73,0,0,1,0,57.46Z"/><rect class="cls-1" height="27.43" width="10" x="59.37" y="206.88"/><rect class="cls-1" height="27.43" width="10" x="109.13" y="206.88"/><rect class="cls-1" height="27.43" width="10" x="84.25" y="206.88"/><path class="cls-1" d="M233.24,246.18H182.85a14.12,14.12,0,0,1-14.1-14.1V218.62a14.12,14.12,0,0,1,14.1-14.1h50.39a14.11,14.11,0,0,1,14.09,14.1v13.46A14.11,14.11,0,0,1,233.24,246.18Zm-50.39-31.66a4.11,4.11,0,0,0-4.1,4.1v13.46a4.11,4.11,0,0,0,4.1,4.1h50.39a4.1,4.1,0,0,0,4.09-4.1V218.62a4.1,4.1,0,0,0-4.09-4.1Z"/><path class="cls-1" d="M142.34,234.32h-10V217.1c0-2.73-2.08-5.22-4.37-5.22H49.72c-2.33,0-4.45,2.49-4.45,5.22v17.22h-10V217.1c0-8.25,6.62-15.22,14.45-15.22H128c7.79,0,14.37,7,14.37,15.22Z"/><path class="cls-1" d="M60.92,433.23a28,28,0,1,1,28-28A28,28,0,0,1,60.92,433.23Zm0-45.93a18,18,0,1,0,18,18A18,18,0,0,0,60.92,387.3Z"/></g><g id="Outline"><path class="cls-1" d="M328.33,106H192a5,5,0,0,1,0-10H328.33a5,5,0,0,1,0,10Z"/><path class="cls-1" d="M328.33,154H192a5,5,0,0,1,0-10H328.33a5,5,0,0,1,0,10Z"/><path class="cls-1" d="M435,199H423a5,5,0,0,1,0-10h12a5,5,0,0,1,0,10Z"/><path class="cls-1" d="M435,247H423a5,5,0,0,1,0-10h12a5,5,0,0,1,0,10Z"/><path class="cls-1" d="M435,292H423a5,5,0,0,1,0-10h12a5,5,0,0,1,0,10Z"/><path class="cls-1" d="M435,340H423a5,5,0,0,1,0-10h12a5,5,0,0,1,0,10Z"/><path class="cls-1" d="M435,386H423a5,5,0,0,1,0-10h12a5,5,0,0,1,0,10Z"/></g></svg>