<?xml version="1.0" encoding="iso-8859-1"?>
<!-- Generator: Adobe Illustrator 19.0.0, SVG Export Plug-In . SVG Version: 6.00 Build 0)  -->
<svg version="1.1" id="Capa_1" xmlns="http://www.w3.org/2000/svg" xmlns:xlink="http://www.w3.org/1999/xlink" x="0px" y="0px"
	 viewBox="0 0 512 512" style="enable-background:new 0 0 512 512;" xml:space="preserve">
<g>
	<g>
		<path d="M362.667,277.333c-64.683,0-117.333,52.629-117.333,117.333S297.984,512,362.667,512S480,459.371,480,394.667
			S427.349,277.333,362.667,277.333z M362.667,490.667c-52.928,0-96-43.072-96-96s43.072-96,96-96c52.928,0,96,43.072,96,96
			S415.595,490.667,362.667,490.667z"/>
	</g>
</g>
<g>
	<g>
		<path d="M377.749,394.667l35.115-35.115c4.16-4.16,4.16-10.923,0-15.083c-4.16-4.16-10.923-4.16-15.083,0l-35.115,35.115
			l-35.115-35.115c-4.16-4.16-10.923-4.16-15.083,0c-4.16,4.16-4.16,10.923,0,15.083l35.115,35.115l-35.115,35.115
			c-4.16,4.16-4.16,10.923,0,15.083c2.069,2.091,4.8,3.136,7.531,3.136s5.461-1.045,7.531-3.115l35.136-35.115l35.115,35.115
			c2.091,2.069,4.821,3.115,7.552,3.115c2.731,0,5.461-1.045,7.531-3.115c4.16-4.16,4.16-10.923,0-15.083L377.749,394.667z"/>
	</g>
</g>
<g>
	<g>
		<path d="M384,42.667h-55.296c-4.416-12.395-16.149-21.333-30.037-21.333h-37.845C253.269,8.32,239.296,0,224,0
			s-29.269,8.32-36.821,21.333h-37.845c-13.888,0-25.621,8.939-30.037,21.333H64c-17.643,0-32,14.357-32,32V480
			c0,17.643,14.357,32,32,32h202.667c5.888,0,10.667-4.779,10.667-10.667c0-5.888-4.779-10.667-10.667-10.667H64
			c-5.867,0-10.667-4.779-10.667-10.667V74.667C53.333,68.779,58.133,64,64,64h53.333v10.667c0,5.888,4.779,10.667,10.667,10.667
			h192c5.888,0,10.667-4.779,10.667-10.667V64H384c5.867,0,10.667,4.779,10.667,10.667v170.667c0,5.888,4.779,10.667,10.667,10.667
			c5.888,0,10.667-4.779,10.667-10.667V74.667C416,57.024,401.643,42.667,384,42.667z M309.333,64H138.667V53.333
			c0-5.888,4.8-10.667,10.667-10.667h44.587c4.523,0,8.555-2.837,10.048-7.083c3.051-8.512,11.093-14.251,20.011-14.251
			c8.917,0,16.96,5.739,20.011,14.251c1.515,4.245,5.525,7.083,10.048,7.083h44.629c5.867,0,10.667,4.779,10.667,10.667V64z"/>
	</g>
</g>
<g>
</g>
<g>
</g>
<g>
</g>
<g>
</g>
<g>
</g>
<g>
</g>
<g>
</g>
<g>
</g>
<g>
</g>
<g>
</g>
<g>
</g>
<g>
</g>
<g>
</g>
<g>
</g>
<g>
</g>
</svg>
