<?xml version="1.0" ?><svg viewBox="0 0 512 512" xmlns="http://www.w3.org/2000/svg"><defs><style>.cls-1{fill:#3f456b;}.cls-2{fill:#384169;}</style></defs><title/><g id="Lines"><path class="cls-1" d="M256,496a5,5,0,0,1-5-5V464a5,5,0,0,1,10,0v27A5,5,0,0,1,256,496Z"/><path class="cls-1" d="M320,496.77H192a5,5,0,0,1,0-10H320a5,5,0,0,1,0,10Z"/><path class="cls-1" d="M400,498a5,5,0,0,1-5-5V423a5,5,0,0,1,5-5h95a5,5,0,0,1,0,10H405v65A5,5,0,0,1,400,498Z"/><path class="cls-1" d="M400,428a5,5,0,0,1-5-5V391a5,5,0,0,1,5-5h95a5,5,0,0,1,0,10H405v27A5,5,0,0,1,400,428Z"/><path class="cls-1" d="M496,499a5,5,0,0,1-5-5V294a5,5,0,0,1,10,0V494A5,5,0,0,1,496,499Z"/><path class="cls-1" d="M112,498a5,5,0,0,1-5-5V428H17a5,5,0,0,1,0-10h95a5,5,0,0,1,5,5v70A5,5,0,0,1,112,498Z"/><path class="cls-1" d="M112,428a5,5,0,0,1-5-5V396H17a5,5,0,0,1,0-10h95a5,5,0,0,1,5,5v32A5,5,0,0,1,112,428Z"/><path class="cls-1" d="M16,499a5,5,0,0,1-5-5V294a5,5,0,0,1,10,0V494A5,5,0,0,1,16,499Z"/><path class="cls-1" d="M112,481.51a5,5,0,0,1-5-4.56C106.9,475.8,103.63,448,64,448c-17,0-29.43,5-36.9,14.78A31.34,31.34,0,0,0,21,477a5,5,0,1,1-10-.89c0-.38,4-38.06,53-38.06s53,37.68,53,38.06a5,5,0,0,1-4.53,5.43Z"/><path class="cls-1" d="M496,481.51a5,5,0,0,1-5-4.56c-.12-1.15-3.39-28.95-43-28.95-17,0-29.43,5-36.9,14.78A31.34,31.34,0,0,0,405,477a5,5,0,1,1-10-.89c0-.38,4-38.06,53-38.06s52.95,37.68,53,38.06a5,5,0,0,1-4.53,5.43Z"/><path class="cls-1" d="M375,468H139a5,5,0,0,1-5-5V335a5,5,0,0,1,10,0V458H370V335.5a5,5,0,0,1,10,0V463A5,5,0,0,1,375,468Z"/><path class="cls-1" d="M139.43,340a5,5,0,0,1-4.92-4.15l-3.44-20A5,5,0,0,1,136,310H246a5,5,0,0,1,4.92,5.89l-3.44,19a5,5,0,0,1-9.84-1.78L240,320H141.93l2.44,14.15a5,5,0,0,1-4.09,5.78A4.88,4.88,0,0,1,139.43,340Z"/><path class="cls-1" d="M239,320a5,5,0,0,1-5-5,43,43,0,0,0-86,0,5,5,0,0,1-10,0,53,53,0,0,1,106,0A5,5,0,0,1,239,320Z"/><path class="cls-1" d="M191,271a5,5,0,0,1-5-5V256a5,5,0,0,1,10,0v10A5,5,0,0,1,191,271Z"/><path class="cls-1" d="M268.43,340a5,5,0,0,1-4.92-4.15l-3.44-20A5,5,0,0,1,265,310H375a5,5,0,0,1,4.92,5.89l-3.44,19a5,5,0,0,1-9.84-1.78L369,320H270.93l2.44,14.15a5,5,0,0,1-4.09,5.78A4.88,4.88,0,0,1,268.43,340Z"/><path class="cls-1" d="M368,320a5,5,0,0,1-5-5,43,43,0,0,0-86,0,5,5,0,0,1-10,0,53,53,0,0,1,106,0A5,5,0,0,1,368,320Z"/><path class="cls-1" d="M320,271a5,5,0,0,1-5-5V256a5,5,0,0,1,10,0v10A5,5,0,0,1,320,271Z"/><path class="cls-1" d="M145,274a21,21,0,0,1-21-21V216a5,5,0,0,1,5-5h32a5,5,0,0,1,5,5v37A21,21,0,0,1,145,274Zm-11-53v32a11,11,0,0,0,22,0V221Z"/><path class="cls-1" d="M145,306a5,5,0,0,1-5-5V269a5,5,0,0,1,10,0v32A5,5,0,0,1,145,306Z"/><path class="cls-1" d="M161,246H129a5,5,0,0,1,0-10h32a5,5,0,0,1,0,10Z"/><path class="cls-1" d="M366,274a21,21,0,0,1-21-21V216a5,5,0,0,1,5-5h32a5,5,0,0,1,5,5v37A21,21,0,0,1,366,274Zm-11-53v32a11,11,0,0,0,22,0V221Z"/><path class="cls-1" d="M366,306a5,5,0,0,1-5-5V269a5,5,0,0,1,10,0v32A5,5,0,0,1,366,306Z"/><path class="cls-1" d="M382,246H350a5,5,0,0,1,0-10h32a5,5,0,0,1,0,10Z"/><path class="cls-1" d="M390,372H375a5,5,0,0,1,0-10h15a5,5,0,0,0,5-5V345a5,5,0,0,0-5-5H122a5,5,0,0,0-5,5v12a5,5,0,0,0,5,5h17a5,5,0,0,1,0,10H122a15,15,0,0,1-15-15V345a15,15,0,0,1,15-15H390a15,15,0,0,1,15,15v12A15,15,0,0,1,390,372Z"/><path class="cls-1" d="M256,68C142.76,68,95.16,36.48,93.19,35.13a5,5,0,0,1,5.61-8.27h0C99.27,27.17,146.27,58,256,58c110.18,0,156.73-30.82,157.19-31.13a5,5,0,0,1,5.62,8.26C416.84,36.48,369.24,68,256,68Z"/><path class="cls-2" d="M256,133a23,23,0,1,1,23-23A23,23,0,0,1,256,133Zm0-36a13,13,0,1,0,13,13A13,13,0,0,0,256,97Z"/><path class="cls-2" d="M161,125a23,23,0,1,1,23-23A23,23,0,0,1,161,125Zm0-36a13,13,0,1,0,13,13A13,13,0,0,0,161,89Z"/><path class="cls-2" d="M353,125a23,23,0,1,1,23-23A23,23,0,0,1,353,125Zm0-36a13,13,0,1,0,13,13A13,13,0,0,0,353,89Z"/><path class="cls-2" d="M449,96a23,23,0,1,1,23-23A23,23,0,0,1,449,96Zm0-36a13,13,0,1,0,13,13A13,13,0,0,0,449,60Z"/><path class="cls-2" d="M64,96A23,23,0,1,1,87,73,23,23,0,0,1,64,96Zm0-36A13,13,0,1,0,77,73,13,13,0,0,0,64,60Z"/><path class="cls-2" d="M64,199a23,23,0,1,1,23-23A23,23,0,0,1,64,199Zm0-36a13,13,0,1,0,13,13A13,13,0,0,0,64,163Z"/><path class="cls-2" d="M64,302a23,23,0,1,1,23-23A23,23,0,0,1,64,302Zm0-36a13,13,0,1,0,13,13A13,13,0,0,0,64,266Z"/><path class="cls-2" d="M64,141a5,5,0,0,1-5-5V111a5,5,0,0,1,10,0v25A5,5,0,0,1,64,141Z"/><path class="cls-2" d="M64,245a5,5,0,0,1-5-5V215a5,5,0,0,1,10,0v25A5,5,0,0,1,64,245Z"/><path class="cls-2" d="M449,199a23,23,0,1,1,23-23A23,23,0,0,1,449,199Zm0-36a13,13,0,1,0,13,13A13,13,0,0,0,449,163Z"/><path class="cls-2" d="M449,302a23,23,0,1,1,23-23A23,23,0,0,1,449,302Zm0-36a13,13,0,1,0,13,13A13,13,0,0,0,449,266Z"/><path class="cls-2" d="M449,141a5,5,0,0,1-5-5V111a5,5,0,0,1,10,0v25A5,5,0,0,1,449,141Z"/><path class="cls-2" d="M449,245a5,5,0,0,1-5-5V215a5,5,0,0,1,10,0v25A5,5,0,0,1,449,245Z"/><path class="cls-1" d="M256,291.67c-10,0-18.17-6.73-18.17-15V198a5,5,0,0,1,5-5h26.34a5,5,0,0,1,5,5v78.63C274.17,284.94,266,291.67,256,291.67ZM247.83,203v73.63c0,2.37,3.36,5,8.17,5s8.17-2.64,8.17-5V203Z"/><path class="cls-1" d="M269.17,267.28H242.83a5,5,0,0,1,0-10h26.34a5,5,0,1,1,0,10Z"/><path class="cls-1" d="M255.25,190c-5.69,0-10-1.7-12.77-5.07A14.16,14.16,0,0,1,239.66,174c.22-1.47,2.48-15.5,12.37-23a5,5,0,0,1,6.61.5c.4.41,9.75,10.15,12.16,22.31v0A14.17,14.17,0,0,1,268,184.93C265.23,188.3,260.94,190,255.25,190Zm-5.73-14.27a4.19,4.19,0,0,0,.69,2.85c.79.92,2.58,1.42,5,1.42s4.25-.5,5-1.42a4.17,4.17,0,0,0,.68-2.9c-1.05-5.2-3.94-10-6.26-13.21-4.07,5.57-5.14,12.92-5.15,13a1.87,1.87,0,0,1,0,.25Zm11.44-.09v0h0Z"/></g><g id="Outline"><path class="cls-2" d="M209,467a5,5,0,0,1-5-5V394a5,5,0,0,1,10,0v68A5,5,0,0,1,209,467Z"/><path class="cls-2" d="M241,467a5,5,0,0,1-5-5V394a5,5,0,0,1,10,0v68A5,5,0,0,1,241,467Z"/><path class="cls-2" d="M176,467a5,5,0,0,1-5-5V394a5,5,0,0,1,10,0v68A5,5,0,0,1,176,467Z"/><path class="cls-2" d="M305,467a5,5,0,0,1-5-5V394a5,5,0,0,1,10,0v68A5,5,0,0,1,305,467Z"/><path class="cls-2" d="M337,467a5,5,0,0,1-5-5V394a5,5,0,0,1,10,0v68A5,5,0,0,1,337,467Z"/><path class="cls-2" d="M272,467a5,5,0,0,1-5-5V394a5,5,0,0,1,10,0v68A5,5,0,0,1,272,467Z"/></g></svg>