<?xml version="1.0" ?><svg id="Lines" viewBox="0 0 512 512" xmlns="http://www.w3.org/2000/svg"><defs><style>.cls-1{fill:#3f456b;}</style></defs><title/><path class="cls-1" d="M257.14,364a32,32,0,0,1-19.93-7.27c-3.63-2.82-84.54-66.14-143.29-154.21C65.28,159.56,59.65,112.37,78.49,73c16.45-34.36,49.63-57.76,86.59-61.08,39.46-3.54,63.41,13.26,76.56,28a97,97,0,0,1,15.14,22.92,97,97,0,0,1,15.14-22.92c13.15-14.71,37.1-31.5,76.56-28,37,3.32,70.14,26.72,86.59,61.08,18.84,39.35,13.21,86.55-15.43,129.49-59,88.5-140.46,152-143.34,154.24C269.8,362.08,263.17,364,257.14,364ZM175.74,21.45q-4.77,0-9.76.45c-33.47,3-63.54,24.25-78.47,55.43C70.23,113.42,75.6,157,102.24,197c58.9,88.3,140.37,151.29,141.18,151.92l.24.19C245,350.17,257,359.73,270,349l.13-.11c.82-.63,82.32-63.67,141.18-151.91,26.64-39.93,32-83.53,14.73-119.62-14.93-31.19-45-52.43-78.46-55.44-28.36-2.54-51.31,5.76-68.21,24.67a83.4,83.4,0,0,0-17,29.22,5,5,0,0,1-4.81,3.64H256a5,5,0,0,1-4.81-3.64,84.23,84.23,0,0,0-17.27-29.51C219,29.78,199.49,21.45,175.74,21.45Z"/><path class="cls-1" d="M283.4,262.18H230.66a5,5,0,0,1-5-5v-40.7H186a5,5,0,0,1-5-5V158.75a5,5,0,0,1,5-5h39.63V113.93a5,5,0,0,1,5-5H283.4a5,5,0,0,1,5,5v39.82h39.12a5,5,0,0,1,5,5v52.73a5,5,0,0,1-5,5H288.4v40.7A5,5,0,0,1,283.4,262.18Zm-47.74-10H278.4v-40.7a5,5,0,0,1,5-5h39.12V163.75H283.4a5,5,0,0,1-5-5V118.93H235.66v39.82a5,5,0,0,1-5,5H191v42.73h39.63a5,5,0,0,1,5,5Z"/><path class="cls-1" d="M448.1,426.76a5,5,0,0,1-4.44-7.3c23.4-45.24,37.63-76.52,45.66-111.76l.07-48.95.32-108.89a10.5,10.5,0,0,0-3.78-8,16,16,0,0,0-20.26-.15,10.57,10.57,0,0,0-3.94,7.9c0,.1,0,.21,0,.31l-6,86.09a5,5,0,0,1-10-.7l6-85.95a20.4,20.4,0,0,1,7.42-15.24,26,26,0,0,1,33.38.24,20.35,20.35,0,0,1,7.17,15.52l-.32,108.85-.07,49.5a5.08,5.08,0,0,1-.12,1.1c-8.25,36.51-22.76,68.47-46.66,114.69A5,5,0,0,1,448.1,426.76Z"/><path class="cls-1" d="M366.57,426.05a5,5,0,0,1-4.84-3.73c-7.18-27.35-11.22-66.11,10.34-95.43a71.26,71.26,0,0,1,28.1-23l25.37-50.94a.31.31,0,0,1,0-.1l5.94-11.28a20.44,20.44,0,0,1,13.72-10.25A26,26,0,0,1,474.73,247a20.31,20.31,0,0,1-.82,17.07l-6,11.33-33.4,65.7a5,5,0,1,1-8.91-4.53l33.43-65.76,6-11.42a10.48,10.48,0,0,0,.33-8.8,16,16,0,0,0-17.89-9.5,10.5,10.5,0,0,0-7.14,5.18l-5.91,11.21L408.28,310a5,5,0,0,1-2.86,2.51c-.13,0-14.4,5.17-25.62,20.71-14.93,20.68-17.83,50.59-8.39,86.52a5,5,0,0,1-4.84,6.27Z"/><path class="cls-1" d="M61.44,426.76a5,5,0,0,1-4.44-2.7c-23.9-46.22-38.41-78.18-46.66-114.69a5.08,5.08,0,0,1-.12-1.1l-.07-49.51L9.84,151A20.26,20.26,0,0,1,17,135.46a25.36,25.36,0,0,1,16.63-6.19,25.4,25.4,0,0,1,16.75,5.94,20.42,20.42,0,0,1,7.42,15.24l6,84.9a5,5,0,1,1-10,.71l-6-85c0-.11,0-.21,0-.31a10.56,10.56,0,0,0-3.94-7.9,15.25,15.25,0,0,0-10-3.54h-.16A15.38,15.38,0,0,0,23.61,143a10.44,10.44,0,0,0-3.77,7.93l.31,107.85.07,49c8,35.24,22.27,66.52,45.66,111.76a5,5,0,0,1-4.44,7.3Z"/><path class="cls-1" d="M143,426.05a5.1,5.1,0,0,1-1.27-.17,5,5,0,0,1-3.56-6.1c9.5-36.2,6.49-66.28-8.73-87-11.28-15.34-25.15-20.21-25.29-20.26a5,5,0,0,1-2.86-2.51L75.08,257.45l-5.92-11.23A10.5,10.5,0,0,0,62,241.06a16,16,0,0,0-17.89,9.5,10.46,10.46,0,0,0,.32,8.78l6,11.37,33.46,65.83A5,5,0,0,1,75,341.07L41.57,275.31l-6-11.29a20.3,20.3,0,0,1-.81-17,26,26,0,0,1,29.48-15.66A20.43,20.43,0,0,1,78,241.54l6,11.3a.31.31,0,0,1,0,.1l25.37,50.94a71.19,71.19,0,0,1,28.1,23c11.9,16.18,23.35,45.88,10.34,95.43A5,5,0,0,1,143,426.05Z"/><path class="cls-1" d="M166.59,449a5,5,0,0,1-5-5V427h-105v17a5,5,0,0,1-10,0V422a5,5,0,0,1,5-5h115a5,5,0,0,1,5,5v22A5,5,0,0,1,166.59,449Z"/><path class="cls-1" d="M180.59,498h-139a5,5,0,0,1-5-5V445a5,5,0,0,1,5-5h139a5,5,0,0,1,5,5v48A5,5,0,0,1,180.59,498Zm-134-10h129V450h-129Z"/><path class="cls-1" d="M469.59,498h-139a5,5,0,0,1-5-5V445a5,5,0,0,1,5-5h139a5,5,0,0,1,5,5v48A5,5,0,0,1,469.59,498Zm-134-10h129V450h-129Z"/><path class="cls-1" d="M457.59,449a5,5,0,0,1-5-5V427h-105v17a5,5,0,0,1-10,0V422a5,5,0,0,1,5-5h115a5,5,0,0,1,5,5v22A5,5,0,0,1,457.59,449Z"/></svg>