<?xml version="1.0" ?><svg viewBox="0 0 512 512" xmlns="http://www.w3.org/2000/svg"><defs><style>.cls-1{fill:#3f456b;}</style></defs><title/><g id="Lines"><path class="cls-1" d="M262.6,500.54c-29.61,0-57.38-18.74-59.41-20.14-105.61-69.18-168.56-167.2-171-171-2-2.89-30.92-46-15.72-82.33.58-1.45,7.75-18.7,30.77-41,.92-.92,11.13-10.86,23.67-10.92h.12c6.49,0,12.36,2.57,17.43,7.64,15.71,15.71,48.39,61.12,49.77,63a5.29,5.29,0,0,1,.32.5c.42.77,10.18,18.85-.67,29.71l-.78.78c-12.95,12.89-23.52,26.29-13.4,36.92l75.16,75.16c10.63,10.13,24-.45,36.93-13.39l.78-.79c10.85-10.85,28.93-1.09,29.7-.67a5.43,5.43,0,0,1,.51.32c1.92,1.38,47.33,34.06,63,49.77,5.1,5.1,7.67,11,7.64,17.55-.06,12.54-10,22.76-10.91,23.67-22.34,23-39.58,30.19-41,30.77A59,59,0,0,1,262.6,500.54ZM71.06,185.16H71c-8.61,0-16.55,7.89-16.63,8l-.09.09C32.44,214.4,25.87,230.65,25.8,230.81l0,.12c-13.35,31.78,14.47,72.49,14.76,72.9l.13.2c.61,1,62.78,99.09,168.07,168l.11.08c.41.28,41.21,28.07,72.9,14.75l.13,0c.15-.06,16.4-6.63,37.58-28.47l.09-.09c.07-.07,8-8,8-16.67,0-3.81-1.53-7.21-4.71-10.38-14.51-14.52-57.55-45.65-61.52-48.52-1.66-.83-12.53-6-17.59-.91l-.77.77c-8.69,8.72-31.78,31.9-51,13.53a.3.3,0,0,1-.08-.08l-75.24-75.24-.08-.08c-18.36-19.18,4.81-42.27,13.53-51l.77-.77c5.05-5.05-.06-15.89-.91-17.59-2.87-4-34-47-48.51-61.52C78.26,186.7,74.87,185.16,71.06,185.16Z"/><path class="cls-1" d="M311.85,395h-.31a5,5,0,0,1-4.4-3.31l-18.57-51.85a166.7,166.7,0,0,1-88.5-281.42C264.8-6.84,370.56-7.26,435.81,57.47a166.69,166.69,0,0,1,.95,235.74h0a165,165,0,0,1-94.45,47.59l-26,51.45A5,5,0,0,1,311.85,395Zm6.57-375.81A156.66,156.66,0,0,0,293.1,330.46a5,5,0,0,1,3.9,3.25l15.63,43.65,21.94-43.42a5,5,0,0,1,3.83-2.7,155.16,155.16,0,0,0,91.26-45.07h0a156.62,156.62,0,0,0-111.24-267Z"/><path class="cls-1" d="M351.5,278h-62a5,5,0,0,1-5-5V208.5H220a5,5,0,0,1-5-5v-62a5,5,0,0,1,5-5h64.5V72a5,5,0,0,1,5-5h62a5,5,0,0,1,5,5v64.5H421a5,5,0,0,1,5,5v62a5,5,0,0,1-5,5H356.5V273A5,5,0,0,1,351.5,278Zm-57-10h52V203.5a5,5,0,0,1,5-5H416v-52H351.5a5,5,0,0,1-5-5V77h-52v64.5a5,5,0,0,1-5,5H225v52h64.5a5,5,0,0,1,5,5Z"/></g><g id="Outline"><path class="cls-1" d="M401,492.18c-17.5,0-19.91-26.83-19.91-55.83V430c0-.16,0-.31,0-.47.23-2.57-.17-7.2-1.77-8.94a2.18,2.18,0,0,0-1.82-.68,2.49,2.49,0,0,0-2,.79c-1.89,2-2.35,6.94-2.26,9,.13,1.68.72,12.29-4.64,18.13a11.83,11.83,0,0,1-8.93,3.86,11.51,11.51,0,0,1-8.5-3.61c-3.21-3.36-4.41-8.43-4.85-12.28H330.5a5,5,0,0,1,0-10h20.57a5,5,0,0,1,5,5.23c-.12,3,.53,8.29,2.3,10.14a1.54,1.54,0,0,0,1.27.52,1.84,1.84,0,0,0,1.56-.62c1.9-2.07,2.26-7.95,2-10.63,0-.07,0-.13,0-.19-.05-1.09-.35-10.82,5-16.45a12.5,12.5,0,0,1,9.27-3.88,12.13,12.13,0,0,1,9.23,4c4.9,5.39,4.49,14.43,4.34,16.34v6.14c0,20.91,1.72,45.83,9.91,45.83,4.52,0,9.91-7.95,9.91-45.83v-12.7c0-29,2.41-55.83,19.91-55.83,18.37,0,19.9,27.58,19.9,55.83v.24l-.09,1.9h17.6a5,5,0,0,1,5,5.23c-.12,3,.53,8.29,2.31,10.14a1.51,1.51,0,0,0,1.27.52,1.83,1.83,0,0,0,1.55-.62c1.91-2.07,2.27-7.95,2-10.63a5,5,0,0,1,5-5.43H495a5,5,0,0,1,0,10h-4.67c-.31,4-1.37,9.28-4.62,12.82a11.81,11.81,0,0,1-8.92,3.86,11.51,11.51,0,0,1-8.51-3.61c-3.2-3.36-4.41-8.43-4.84-12.28H445.36a5,5,0,0,1-5-5.24l.34-7c0-12.62,0-45.7-9.9-45.7-4.52,0-9.91,7.95-9.91,45.83v12.7C420.89,465.35,418.48,492.18,401,492.18Z"/></g></svg>