<?xml version="1.0" ?><svg enable-background="new 0 0 512 512" version="1.1" viewBox="0 0 512 512" xml:space="preserve" xmlns="http://www.w3.org/2000/svg" xmlns:xlink="http://www.w3.org/1999/xlink"><g id="Lines"><g><g><path d="M496,268h-54c-2.761,0-5-2.239-5-5s2.239-5,5-5h54c2.761,0,5,2.239,5,5S498.761,268,496,268z" fill="#3F456B"/></g></g><g><g><path d="M64,268H17c-2.761,0-5-2.239-5-5s2.239-5,5-5h47c2.761,0,5,2.239,5,5S66.761,268,64,268z" fill="#3F456B"/></g></g><g><g><path d="M36.204,262.591c0,6.695-5.512,12.124-12.314,12.124c-6.799,0-12.312-5.429-12.312-12.124     c0-6.694,5.514-12.122,12.312-12.122C30.692,250.469,36.204,255.896,36.204,262.591z" fill="#3F456B"/></g></g><g><g><path d="M501.204,262.591c0,6.695-5.512,12.124-12.314,12.124c-6.799,0-12.312-5.429-12.312-12.124     c0-6.694,5.514-12.122,12.312-12.122C495.692,250.469,501.204,255.896,501.204,262.591z" fill="#3F456B"/></g></g><g><g><g><g><path d="M254.97,442.959c-9.454,0-17.535-3.89-21.852-7.253c-3.89-2.743-95.185-67.675-161.474-158.082       c-16.114-21.977-25.812-44.701-28.823-67.541c-2.734-20.739,0.287-41.483,8.737-59.991       c17.473-38.268,55.695-64.275,99.752-67.872c44.083-3.599,70.868,13.523,85.577,28.521c8.82,8.993,14.422,18.225,17.707,24.807       c3.285-6.583,8.886-15.814,17.706-24.807c14.708-14.998,41.491-32.121,85.579-28.521c44.062,3.598,82.286,29.601,99.755,67.864       c8.448,18.502,11.467,39.242,8.731,59.977c-3.013,22.834-12.711,45.554-28.824,67.529       c-66.595,90.827-158.431,155.958-161.52,158.132C268.879,441.052,261.588,442.959,254.97,442.959z M163.244,91.724       c-3.621,0-7.328,0.155-11.12,0.464c-40.45,3.303-75.499,27.082-91.469,62.059c-16.599,36.353-9.832,78.069,19.054,117.465       c66.393,90.549,158.333,155.236,159.253,155.879c0.081,0.056,0.16,0.115,0.236,0.175c0.601,0.465,15.313,11.575,30.89-0.094       c0.044-0.033,0.09-0.066,0.136-0.098c0.921-0.643,92.86-65.347,159.252-155.896c28.884-39.391,35.653-81.099,19.061-117.439       c-15.967-34.971-51.017-58.747-91.472-62.05c-32.107-2.621-58.12,5.87-77.313,25.239       c-14.425,14.558-19.462,30.188-19.511,30.344c-0.656,2.082-2.59,3.508-4.772,3.508h-1.749c-2.19,0-4.126-1.426-4.775-3.518       c-0.046-0.146-5.083-15.776-19.508-30.334C212.509,100.346,190.28,91.724,163.244,91.724z" fill="#3F456B"/></g></g></g></g></g><g id="Outline"><g><g><g><path d="M478.431,133.881c-1.107,0-2.222-0.366-3.148-1.118l-10.093-8.194c-2.144-1.741-2.471-4.89-0.73-7.033      c1.74-2.145,4.889-2.472,7.033-0.73l10.093,8.194c2.144,1.741,2.471,4.89,0.73,7.033      C481.328,133.25,479.886,133.881,478.431,133.881z" fill="#3F456B"/></g></g><g><g><path d="M490.106,108.368c-0.265,0-0.532-0.021-0.802-0.064l-13.197-2.127c-2.727-0.439-4.58-3.006-4.141-5.732      c0.439-2.727,3.005-4.58,5.732-4.141l13.197,2.127c2.727,0.439,4.58,3.006,4.141,5.732      C494.641,106.619,492.517,108.368,490.106,108.368z" fill="#3F456B"/></g></g><g><g><path d="M474.665,85.337c-2.015,0-3.914-1.227-4.674-3.222c-0.982-2.581,0.312-5.469,2.894-6.452l12.588-4.794      c2.581-0.981,5.469,0.312,6.452,2.894c0.982,2.581-0.312,5.469-2.894,6.452l-12.588,4.794      C475.857,85.231,475.256,85.337,474.665,85.337z" fill="#3F456B"/></g></g><g><g><path d="M443.117,57.909c-0.264,0-0.532-0.021-0.801-0.064c-2.727-0.439-4.58-3.006-4.141-5.732l1.983-12.303      c0.439-2.727,3.002-4.583,5.732-4.141c2.727,0.439,4.58,3.006,4.141,5.732l-1.983,12.303      C447.652,56.161,445.528,57.909,443.117,57.909z" fill="#3F456B"/></g></g><g><g><path d="M421.877,60.55c-2.015,0-3.914-1.227-4.674-3.222l-4.606-12.095c-0.982-2.581,0.313-5.469,2.894-6.452      c2.579-0.981,5.469,0.312,6.452,2.894l4.606,12.095c0.982,2.581-0.313,5.469-2.894,6.452      C423.07,60.444,422.469,60.55,421.877,60.55z" fill="#3F456B"/></g></g><g><g><path d="M404.909,73.035c-1.107,0-2.222-0.366-3.148-1.118l-10.093-8.194c-2.144-1.741-2.471-4.89-0.73-7.033      c1.741-2.144,4.89-2.471,7.033-0.73l10.093,8.194c2.144,1.741,2.471,4.89,0.73,7.033      C407.805,72.403,406.363,73.035,404.909,73.035z" fill="#3F456B"/></g></g><g><g><g><path d="M275.694,335c-0.118,0-0.236-0.004-0.355-0.013c-2.261-0.16-4.131-1.82-4.558-4.045L244.47,193.783       l-25.738,71.737c-0.707,1.972-2.568,3.293-4.663,3.312l-21.361,0.185l-19.637,35.119c-0.992,1.772-2.958,2.769-4.973,2.522       c-2.016-0.248-3.682-1.69-4.216-3.65l-23.353-85.819l-23.148,47.983c-0.834,1.729-2.584,2.828-4.503,2.828H69v-10h40.738       l27.598-57.208c0.907-1.879,2.885-2.993,4.962-2.807c2.078,0.191,3.818,1.653,4.366,3.666l23.652,86.919l15.08-26.969       c0.876-1.567,2.525-2.544,4.321-2.56l20.779-0.18l30.734-85.661c0.761-2.122,2.853-3.474,5.093-3.296       c2.247,0.174,4.099,1.83,4.523,4.043l26.216,136.662l16.73-48.725c0.693-2.02,2.593-3.376,4.729-3.376h28.905l23.774-57.557       c0.817-1.98,2.809-3.215,4.943-3.081c2.138,0.138,3.95,1.623,4.506,3.691l18.34,68.201l8.291-10.273       c0.949-1.176,2.379-1.86,3.891-1.86H440v10h-46.436l-12.958,16.058c-1.182,1.464-3.084,2.141-4.924,1.752       c-1.84-0.389-3.307-1.777-3.795-3.594l-17.066-63.46l-19.427,47.032c-0.772,1.871-2.597,3.091-4.621,3.091h-28.68       l-21.672,63.115C279.724,333.654,277.815,335,275.694,335z" fill="#3F456B"/></g></g><g><g><g><path d="M462.066,68.058c-1.11,0-2.227-0.367-3.154-1.123c-2.142-1.744-2.464-4.893-0.721-7.034l8.549-10.5        c1.744-2.141,4.894-2.464,7.034-0.721c2.142,1.744,2.464,4.893,0.721,7.034l-8.549,10.5        C464.958,67.428,463.519,68.058,462.066,68.058z" fill="#3F456B"/></g></g><g><g><path d="M255.019,472.479c-21.231,0-42.463-5.027-58.627-15.081c-2.345-1.458-3.063-4.542-1.605-6.886        c1.458-2.345,4.542-3.064,6.886-1.605c29.416,18.296,77.278,18.296,106.691,0c2.345-1.459,5.429-0.74,6.887,1.604        c1.458,2.345,0.74,5.428-1.604,6.887C297.483,467.453,276.251,472.479,255.019,472.479z" fill="#3F456B"/></g></g><g><g><path d="M255.018,501.298c-34.404,0-66.821-8.378-91.277-23.591c-2.345-1.458-3.063-4.542-1.604-6.887        c1.459-2.344,4.542-3.062,6.887-1.604c47.417,29.496,124.573,29.496,171.991,0c2.347-1.458,5.429-0.74,6.887,1.604        c1.458,2.345,0.74,5.428-1.604,6.887C321.839,492.919,289.423,501.298,255.018,501.298z" fill="#3F456B"/></g></g><g><g><path d="M311.381,64.996c-0.902,0-1.814-0.244-2.636-0.755c-29.624-18.427-77.826-18.427-107.45,0        c-2.347,1.458-5.429,0.74-6.887-1.604c-1.458-2.345-0.74-5.428,1.604-6.887c32.537-20.239,85.478-20.239,118.015,0        c2.345,1.458,3.063,4.542,1.604,6.887C314.684,64.159,313.051,64.996,311.381,64.996z" fill="#3F456B"/></g></g><g><g><path d="M344.251,44.55c-0.902,0-1.814-0.244-2.636-0.755c-47.749-29.703-125.443-29.703-173.192,0        c-2.347,1.458-5.428,0.74-6.887-1.604c-1.458-2.345-0.74-5.428,1.604-6.887c24.617-15.313,57.247-23.747,91.878-23.747        s67.261,8.434,91.878,23.747c2.345,1.458,3.063,4.542,1.604,6.887C347.554,43.713,345.921,44.55,344.251,44.55z" fill="#3F456B"/></g></g><g><g><path d="M100.22,402.302c-1.28,0-2.559-0.488-3.536-1.464c-1.953-1.953-1.953-5.119,0-7.071l9.291-9.291        c1.953-1.952,5.118-1.952,7.071,0c1.953,1.953,1.953,5.119,0,7.071l-9.291,9.291        C102.779,401.814,101.5,402.302,100.22,402.302z" fill="#3F456B"/></g></g><g><g><path d="M68.511,433.988c-1.28,0-2.559-0.488-3.536-1.464c-1.953-1.953-1.953-5.119,0-7.071l9.291-9.291        c1.953-1.952,5.118-1.952,7.071,0c1.953,1.953,1.953,5.119,0,7.071l-9.291,9.291C71.07,433.5,69.791,433.988,68.511,433.988z" fill="#3F456B"/></g></g><g><g><path d="M109.499,434c-1.28,0-2.559-0.488-3.536-1.464l-9.291-9.291c-1.953-1.953-1.953-5.119,0-7.071        c1.953-1.952,5.118-1.952,7.071,0l9.291,9.291c1.953,1.953,1.953,5.119,0,7.071C112.058,433.512,110.779,434,109.499,434z" fill="#3F456B"/></g></g><g><g><path d="M77.813,402.291c-1.28,0-2.559-0.488-3.536-1.464l-9.291-9.291c-1.953-1.953-1.953-5.119,0-7.071        c1.953-1.952,5.118-1.952,7.071,0l9.291,9.291c1.953,1.953,1.953,5.119,0,7.071C80.372,401.802,79.093,402.291,77.813,402.291        z" fill="#3F456B"/></g></g><g><g><path d="M82.616,408.526c0-3.575,2.896-6.473,6.473-6.473c3.574,0,6.473,2.898,6.473,6.473        S92.663,415,89.089,415C85.513,415,82.616,412.101,82.616,408.526z" fill="#3F456B"/></g></g><g><g><path d="M336.14,412.93c-1.66-2.2-1.23-5.33,0.97-7l0,0c2.2-1.67,5.34-1.24,7.01,0.96l0,0        c1.66,2.2,1.23,5.34-0.97,7.01l0,0c-0.9,0.68-1.96,1.01-3.02,1.01l0,0C338.62,414.91,337.13,414.23,336.14,412.93z         M351.95,400.65c-1.77-2.12-1.49-5.27,0.64-7.04l0,0c2.12-1.77,5.27-1.48,7.04,0.64l0,0c1.76,2.12,1.48,5.27-0.64,7.04l0,0        c-0.94,0.78-2.07,1.16-3.2,1.16l0,0C354.36,402.45,352.93,401.84,351.95,400.65z M367.19,387.68        c-1.85-2.05-1.69-5.21,0.36-7.06l0,0c2.05-1.85,5.21-1.69,7.06,0.36l0,0c1.85,2.05,1.69,5.21-0.36,7.06l0,0        c-0.96,0.87-2.15,1.29-3.35,1.29l0,0C369.54,389.33,368.17,388.77,367.19,387.68z M381.93,374.14        c-1.92-1.98-1.87-5.15,0.12-7.07l0,0c1.99-1.92,5.15-1.86,7.07,0.13l0,0c1.92,1.98,1.86,5.15-0.12,7.07l0,0l0,0l0,0        c-0.97,0.93-2.22,1.4-3.47,1.4l0,0C384.22,375.67,382.91,375.16,381.93,374.14z M396.21,360.12        c-1.97-1.92-2.02-5.09-0.09-7.07l0,0c1.93-1.98,5.09-2.02,7.07-0.09l0,0c1.98,1.92,2.02,5.09,0.09,7.07l0,0        c-0.98,1.01-2.28,1.51-3.58,1.51l0,0C398.45,361.54,397.19,361.07,396.21,360.12z M410.07,345.68        c-2.03-1.87-2.16-5.04-0.29-7.07l0,0c1.86-2.03,5.03-2.16,7.06-0.3l0,0c2.03,1.87,2.17,5.04,0.3,7.07l0,0        c-0.99,1.07-2.33,1.61-3.68,1.61l0,0C412.25,346.99,411.03,346.56,410.07,345.68z M423.52,330.84        c-2.09-1.81-2.31-4.97-0.51-7.05l0,0c1.81-2.09,4.97-2.32,7.06-0.51l0,0c2.08,1.81,2.31,4.97,0.5,7.06l0,0        c-0.99,1.14-2.38,1.72-3.78,1.72l0,0C425.63,332.06,424.46,331.66,423.52,330.84z M436.56,315.61        c-2.17-1.71-2.55-4.85-0.84-7.02l0,0c1.7-2.17,4.85-2.55,7.02-0.84l0,0c2.17,1.7,2.54,4.85,0.84,7.02l0,0l0,0l0,0        c-0.99,1.25-2.45,1.91-3.94,1.91l0,0C438.56,316.68,437.47,316.33,436.56,315.61z" fill="#3F456B"/></g></g><g><g><path d="M34.68,135.48c-2.51-1.16-3.61-4.13-2.46-6.64l0,0c1.16-2.5,4.12-3.6,6.63-2.45l0,0        c2.51,1.16,3.61,4.12,2.46,6.63l0,0c-0.85,1.83-2.66,2.92-4.55,2.92l0,0C36.06,135.94,35.35,135.79,34.68,135.48z         M43.9,117.75c-2.24-1.62-2.74-4.75-1.12-6.98l0,0c1.62-2.24,4.75-2.74,6.98-1.12l0,0c2.24,1.62,2.74,4.74,1.12,6.98l0,0        c-0.98,1.35-2.5,2.07-4.05,2.07l0,0C45.81,118.7,44.78,118.39,43.9,117.75z M56.39,102.15c-1.89-2.01-1.79-5.18,0.22-7.07l0,0        c2.01-1.89,5.17-1.8,7.07,0.21l0,0c1.89,2.02,1.79,5.18-0.22,7.07l0,0c-0.97,0.91-2.2,1.36-3.42,1.36l0,0        C58.7,103.72,57.38,103.19,56.39,102.15z M71.54,89.11c-1.53-2.3-0.9-5.4,1.4-6.93l0,0c2.3-1.53,5.4-0.9,6.93,1.4l0,0        c1.53,2.3,0.9,5.4-1.4,6.93l0,0c-0.85,0.56-1.81,0.84-2.76,0.84l0,0C74.09,91.34,72.5,90.56,71.54,89.11z M88.6,78.7        c-1.18-2.5-0.11-5.48,2.38-6.66l0,0c2.5-1.18,5.48-0.12,6.66,2.38l0,0c1.18,2.5,0.12,5.48-2.38,6.66l0,0        c-0.69,0.32-1.42,0.48-2.13,0.48l0,0C91.25,81.56,89.46,80.5,88.6,78.7z M106.95,70.74c-0.87-2.63,0.55-5.45,3.17-6.32l0,0        c2.62-0.87,5.45,0.55,6.32,3.18l0,0c0.87,2.62-0.56,5.45-3.18,6.31l0,0c-0.52,0.18-1.05,0.26-1.57,0.26l0,0        C109.59,74.17,107.64,72.84,106.95,70.74z M126.1,64.98c-0.58-2.7,1.13-5.36,3.83-5.95l0,0c2.69-0.58,5.36,1.13,5.94,3.83l0,0        c0.59,2.7-1.12,5.36-3.82,5.95l0,0c-0.36,0.07-0.71,0.11-1.07,0.11l0,0C128.68,68.92,126.61,67.32,126.1,64.98z" fill="#3F456B"/></g></g></g></g></g></g></svg>