<?xml version="1.0" ?><svg viewBox="0 0 512 512" xmlns="http://www.w3.org/2000/svg"><defs><style>.cls-1{fill:#3f456b;}</style></defs><title/><g id="Lines"><path class="cls-1" d="M33,417h-.22A5,5,0,0,1,28,411.78c.61-13.75,1-26.46,1.46-38.75,1.51-44.6,2.82-83.12,11.61-133.88a272.8,272.8,0,0,1,31.21-87.86c17.43-30.51,41-50.55,70.16-59.56a5,5,0,1,1,2.95,9.55c-26.62,8.24-48.3,26.73-64.43,55a262.6,262.6,0,0,0-30,84.6C42.25,290.94,41,327.32,39.45,373.37,39,385.69,38.6,398.42,38,412.22A5,5,0,0,1,33,417Z"/><path class="cls-1" d="M479.91,417a5,5,0,0,1-5-4.78c-.61-13.8-1-26.54-1.46-38.86-1.56-46.05-2.79-82.43-11.47-132.51a262.62,262.62,0,0,0-30-84.6c-16.13-28.24-37.81-46.73-64.43-55a5,5,0,1,1,3-9.55c29.12,9,52.73,29.05,70.16,59.56a273,273,0,0,1,31.2,87.86c8.8,50.76,10.1,89.27,11.62,133.87.41,12.3.85,25,1.45,38.76a5,5,0,0,1-4.78,5.22Z"/><path class="cls-1" d="M136.48,412.7a5.1,5.1,0,0,1-.87-.07,5,5,0,0,1-4.06-5.79c9-51.56,22-76.31,22.59-77.34a5,5,0,0,1,8.83,4.7h0c-.13.24-12.83,24.58-21.57,74.37A5,5,0,0,1,136.48,412.7Z"/><path class="cls-1" d="M376.55,412.7a5,5,0,0,1-4.92-4.13c-8.78-50-21.44-74.13-21.57-74.37a5,5,0,1,1,8.82-4.7c.55,1,13.54,25.78,22.6,77.34a5,5,0,0,1-4.06,5.79A5.27,5.27,0,0,1,376.55,412.7Z"/><path class="cls-1" d="M350.24,117H314a5,5,0,0,1,0-10h36.24c4.33,0,7.42-1.11,9.47-3.4,3.82-4.27,3.07-11.49,3.06-11.56a5.49,5.49,0,0,1,0-.58c0-19.41-6.05-35.26-18-47.1C320.2,20,278.43,20,278,20H236c-.46,0-43.19,0-68.07,24.68C156.05,56.48,150,72.22,150,91.46a4,4,0,0,1,0,.6s-.76,7.27,3.07,11.54c2,2.29,5.14,3.4,9.47,3.4h36.24a5,5,0,0,1,0,10H162.52c-7.28,0-13-2.29-17-6.8-6.21-7-5.69-17-5.51-19,0-21.91,7.09-40,20.91-53.66C188.81,9.91,234.12,10,236,10h42c1.84,0,46.21-.09,73.77,27.22,13.86,13.74,20.91,31.9,21,54,.18,2,.7,12-5.51,19C363.23,114.71,357.51,117,350.24,117Z"/><path class="cls-1" d="M130.73,501a23.53,23.53,0,0,1-11.66-3.58c-5.18-3.25-11.35-10.06-11.35-24,0-8.32,2.48-14.95,7.36-19.71,7.22-7,17.1-7.16,18.26-7.14l244.59,0a22.83,22.83,0,0,1,15.46,6.33c5.05,4.92,7.61,12.08,7.61,21.29,0,8.59-2.54,15.37-7.56,20.13C386.33,501,376.77,501,375.32,501l-244.58,0Zm2.48-44.46c-.34,0-6.86.06-11.2,4.35-2.85,2.81-4.29,7-4.29,12.5,0,7.55,2.24,12.78,6.67,15.56a13.77,13.77,0,0,0,6.34,2.05l244.67,0h.26s6.57.2,10.95-4c2.91-2.8,4.39-7.11,4.39-12.82,0-6.35-1.52-11.07-4.5-14a13.08,13.08,0,0,0-8.44-3.58h0l-244.75,0Z"/><path class="cls-1" d="M256,229a5,5,0,0,1-5-4.91c-1-53.43,26.14-98.12,27.72-100.68.74-1.25,20.8-35.83,15.42-58.24-1.83-7.62-7.53-13.36-16.95-17.07a5,5,0,1,1,3.66-9.3c12.46,4.9,20.41,13.21,23,24,6.4,26.67-15.62,64.14-16.56,65.73a.22.22,0,0,0-.05.08c-.28.44-27.21,44.44-26.25,95.27a5,5,0,0,1-4.91,5.09Zm27-103h0Z"/><path class="cls-1" d="M256,501a5,5,0,0,1-5-5V224c0-30.6-10.2-63.74-30.33-98.49-5.29-9.14-12.2-23.06-15.09-37.5-3.45-17.18-.42-30.82,9-40.53,9.81-10.11,25-12.55,35.92-11.46a5,5,0,0,1-1,10c-8.61-.87-20.41.91-27.74,8.47-17.34,17.87-.48,52.14,7.57,66C250.34,156.79,261,191.62,261,224V496A5,5,0,0,1,256,501Z"/><path class="cls-1" d="M255.76,324.5a5,5,0,0,1-5-5c0-34.19-26.22-63.87-26.48-64.16l-.12-.14c-.51-.62-51.15-61.48-69.76-81.49-6.34-6.82-9.06-14.08-8.08-21.58,1.77-13.57,15.38-22.27,16-22.63L194.58,109a5,5,0,1,1,5.36,8.44L167.62,138c-.11.07-10.25,6.63-11.39,15.51-.57,4.46,1.23,8.85,5.5,13.44,18.52,19.91,68.11,79.49,70.06,81.84,1.89,2.12,29,33.31,29,70.76A5,5,0,0,1,255.76,324.5Z"/><path class="cls-1" d="M256,325a5,5,0,0,1-5-5,309.11,309.11,0,0,1,41.68-155.2c20.64-35.52,41.08-54.49,41.94-55.28a5,5,0,0,1,6.76,7.36c-.33.31-20.43,19.08-40.26,53.29A299.23,299.23,0,0,0,261,320,5,5,0,0,1,256,325Z"/><path class="cls-1" d="M95,453.33h-.15l-63.07-.79c-10.62-.06-18.92-8.93-18.85-20.19v-2c.07-11.32,8.23-19.81,19-19.81h.12l63.11.79c10.4.07,17.92,8.59,17.85,20.28v2C112.94,445.24,105.54,453.33,95,453.33Zm0-10h0c5.86,0,8-5.05,8-9.78v-2c0-4.69-2-10.18-8-10.22L32,420.54a8.47,8.47,0,0,0-6.39,2.7,10.56,10.56,0,0,0-2.64,7.17v2c0,5,3,10.1,8.94,10.13Z"/><path class="cls-1" d="M128,455a5,5,0,0,1-4.84-3.73c-19.29-73.52-18.27-145-14-192.09,4.61-51,13.65-84.12,14-85.51a5,5,0,0,1,9.64,2.66c-.09.33-9.22,33.84-13.74,84-4.16,46.19-5.15,116.37,13.76,188.4a5,5,0,0,1-3.57,6.11A5.08,5.08,0,0,1,128,455Z"/><path class="cls-1" d="M100,421a5,5,0,0,1-4.92-5.93c.21-1.12,5.3-27.71,13.78-50.81a5,5,0,0,1,9.39,3.44c-8.19,22.31-13.3,49-13.35,49.23A5,5,0,0,1,100,421Z"/><path class="cls-1" d="M418.17,453.33c-10.54,0-17.93-8.09-18-19.72v-2a22,22,0,0,1,4.43-13.84A17,17,0,0,1,418,411.33l63-.79h.12c10.81,0,19,8.49,19,19.81v2c.06,11.26-8.23,20.13-18.89,20.19l-63,.79Zm.09-5h0Zm63-27.79h-.06l-63,.79a7,7,0,0,0-5.71,2.66,12,12,0,0,0-2.26,7.56v2c0,4.73,2.15,9.78,8,9.78h.05l63-.79c5.94,0,9-5.12,9-10.13v-2C490.2,424.68,486.42,420.54,481.23,420.54Z"/><path class="cls-1" d="M385.18,455a5,5,0,0,1-4.84-6.27c36.24-138.07.38-271.07,0-272.4a5,5,0,1,1,9.63-2.66c.39,1.39,9.43,34.52,14,85.51,4.26,47.05,5.28,118.57-14,192.09A5,5,0,0,1,385.18,455Z"/><path class="cls-1" d="M413.17,421a5,5,0,0,1-4.91-4.07c-.05-.26-5.15-26.92-13.34-49.23a5,5,0,1,1,9.38-3.44c8.49,23.1,13.58,49.69,13.79,50.81a5,5,0,0,1-4,5.84A5.07,5.07,0,0,1,413.17,421Z"/><path class="cls-1" d="M440.31,420.17a5,5,0,0,1-4.95-4.31c-5.11-36.56-15.9-77.85-16-78.26a5,5,0,1,1,9.67-2.54c.11.42,11.05,42.26,16.25,79.42a5,5,0,0,1-4.26,5.64A4.2,4.2,0,0,1,440.31,420.17Z"/><path class="cls-1" d="M72.19,420.17a4.2,4.2,0,0,1-.7-.05,5,5,0,0,1-4.26-5.64c5.2-37.16,16.14-79,16.25-79.42a5,5,0,1,1,9.67,2.54c-.11.41-10.9,41.7-16,78.26A5,5,0,0,1,72.19,420.17Z"/><path class="cls-1" d="M97,343a5,5,0,0,1-1.08-.12l-18-4a5,5,0,0,1,2.16-9.76l18,4A5,5,0,0,1,97,343Z"/><path class="cls-1" d="M415,343a5,5,0,0,1-1.08-9.88l18-4a5,5,0,0,1,2.16,9.76l-18,4A5,5,0,0,1,415,343Z"/><path class="cls-1" d="M349.47,190c-6.9,0-11-2.88-13.3-5.29-5.33-5.7-5.23-13.73-5.15-15.33V114.05a5,5,0,0,1,10,0v55.46c0,.12,0,.23,0,.34-.08,1.4.22,5.66,2.49,8.06,1.33,1.4,3.29,2.09,6,2.09,3.9,0,5.2-1.48,5.62-2,2.09-2.39,2-6.8,1.85-7.85a4.92,4.92,0,0,1,0-.67v-60a5,5,0,1,1,10,0v59.71c.2,2,.64,9.76-4.28,15.38C360.47,187.07,356.44,190,349.47,190Z"/><path class="cls-1" d="M349,173a5,5,0,0,1-5-5v-1a5,5,0,0,1,10,0v1A5,5,0,0,1,349,173Z"/></g><g id="Outline"><path class="cls-1" d="M153.74,421.24a5,5,0,0,1-4.92-5.92l.19-1a5,5,0,1,1,9.82,1.85l-.18,1A5,5,0,0,1,153.74,421.24ZM158,400.68a4.84,4.84,0,0,1-1.13-.13,5,5,0,0,1-3.75-6l.22-1a5,5,0,1,1,9.75,2.25l-.23,1A5,5,0,0,1,158,400.68Zm5.15-20.36a5.22,5.22,0,0,1-1.35-.18,5,5,0,0,1-3.47-6.16l.28-1a5,5,0,0,1,9.62,2.72l-.27.95A5,5,0,0,1,163.16,380.32Zm6.22-20.05a5.16,5.16,0,0,1-1.63-.27,5,5,0,0,1-3.1-6.36l.34-1a5,5,0,1,1,9.44,3.29l-.32.93A5,5,0,0,1,169.38,360.27Zm7.73-19.52a4.89,4.89,0,0,1-2.15-.49,5,5,0,0,1-2.36-6.66c.33-.69.5-1,.5-1a5,5,0,0,1,8.9,4.56h0s-.15.29-.37.77A5,5,0,0,1,177.11,340.75Z"/><path class="cls-1" d="M358.32,421.24a5,5,0,0,1-4.91-4.08l-.18-1a5,5,0,0,1,9.83-1.85l.18,1a5,5,0,0,1-4,5.83A4.88,4.88,0,0,1,358.32,421.24Zm-4.26-20.56a5,5,0,0,1-4.87-3.89l-.22-1a5,5,0,1,1,9.74-2.26l.23,1a5,5,0,0,1-3.77,6A4.73,4.73,0,0,1,354.06,400.68Zm-5.16-20.36a5,5,0,0,1-4.81-3.66l-.27-.94a5,5,0,0,1,9.63-2.72l.27,1a5,5,0,0,1-3.48,6.16A5.2,5.2,0,0,1,348.9,380.32Zm-6.22-20.05A5,5,0,0,1,338,356.9l-.33-.93a5,5,0,0,1,9.45-3.29l.33.95a5,5,0,0,1-4.73,6.64ZM335,340.75a5,5,0,0,1-4.52-2.85c-.23-.48-.36-.74-.38-.77a5,5,0,0,1,8.9-4.56s.18.34.5,1a5,5,0,0,1-2.36,6.66A4.81,4.81,0,0,1,335,340.75Z"/><path class="cls-1" d="M392,213H278a5,5,0,0,1,0-10H392a5,5,0,0,1,0,10Z"/><path class="cls-1" d="M189,212H121a5,5,0,0,1,0-10h68a5,5,0,0,1,0,10Z"/><path class="cls-1" d="M401.4,284.33a5,5,0,0,1-.29-10c.37,0,37.93-2.41,67.2-16.33a5,5,0,0,1,4.3,9c-31.07,14.77-69.3,17.19-70.91,17.28Z"/><path class="cls-1" d="M111.46,284.33h-.3c-1.61-.09-39.84-2.51-70.9-17.28a5,5,0,0,1,4.29-9c29.27,13.92,66.83,16.31,67.21,16.33a5,5,0,0,1-.3,10Z"/></g></svg>