<?xml version="1.0" ?><svg id="Lines" viewBox="0 0 512 512" xmlns="http://www.w3.org/2000/svg"><defs><style>.cls-1{fill:#3f456b;}</style></defs><title/><path class="cls-1" d="M500.11,260.11h-432a5,5,0,0,1,0-10h432a5,5,0,0,1,0,10Z"/><path class="cls-1" d="M229.51,421.51A5,5,0,0,1,226,420L64.57,258.64a5,5,0,0,1,0-7.07L226,90.17A5,5,0,0,1,233,97.24L75.18,255.11,233,413a5,5,0,0,1-3.53,8.54Z"/><path class="cls-1" d="M20.11,453.89a5,5,0,0,1-5-5V61.11a5,5,0,0,1,10,0V448.89A5,5,0,0,1,20.11,453.89Z"/></svg>