<?xml version="1.0" ?><svg viewBox="0 0 512 512" xmlns="http://www.w3.org/2000/svg"><defs><style>.cls-1{fill:#3f456b;}</style></defs><title/><g id="Lines"><path class="cls-1" d="M257.76,431.07c-96.95,0-175.82-78.87-175.82-175.82S160.81,79.43,257.76,79.43,433.57,158.3,433.57,255.25,354.7,431.07,257.76,431.07Zm0-341.64c-91.43,0-165.82,74.39-165.82,165.82s74.39,165.82,165.82,165.82,165.81-74.39,165.81-165.82S349.19,89.43,257.76,89.43Z"/><path class="cls-1" d="M432.87,132.29a39.05,39.05,0,1,1,39.05-39A39.09,39.09,0,0,1,432.87,132.29Zm0-68.1a29.05,29.05,0,1,0,29.05,29.05A29.08,29.08,0,0,0,432.87,64.19Z"/></g><g id="Outline"><path class="cls-1" d="M256.86,499.5h-2.05a5,5,0,0,1,0-10h3a5,5,0,1,1,0,10Zm20.95-.9a5,5,0,0,1-.43-10c1-.08,1.95-.17,2.92-.27a5,5,0,1,1,1,10l-3.05.29Zm-42.92-.09-.46,0-3.05-.29a5,5,0,0,1,1-9.95l2.92.29a5,5,0,0,1-.45,10Zm65.69-3a5,5,0,0,1-.9-9.91l2.89-.56a5,5,0,0,1,1.94,9.81l-3,.58A4.84,4.84,0,0,1,300.58,495.51Zm-88.45-.18a4.88,4.88,0,0,1-.93-.09l-3-.59a5,5,0,0,1,2-9.8l2.88.56a5,5,0,0,1-.92,9.92ZM323,490.25a5,5,0,0,1-1.38-9.81l2.82-.82a5,5,0,1,1,2.88,9.57c-1,.3-2,.58-2.94.87A5,5,0,0,1,323,490.25ZM189.78,490a5.15,5.15,0,0,1-1.4-.2l-2.94-.88a5,5,0,0,1,2.92-9.56l2.81.84a5,5,0,0,1-1.39,9.8Zm155-7.12a5,5,0,0,1-1.84-9.66c.91-.36,1.82-.72,2.73-1.1a5,5,0,0,1,3.79,9.26c-.94.39-1.89.77-2.85,1.15A5.12,5.12,0,0,1,344.74,482.85ZM168,482.48a5.07,5.07,0,0,1-1.85-.36L163.35,481a5,5,0,1,1,3.83-9.23l2.72,1.1a5,5,0,0,1-1.86,9.65Zm197.66-9.11a5,5,0,0,1-2.28-9.46c.87-.44,1.75-.9,2.61-1.35a5,5,0,1,1,4.67,8.84L368,472.82A5,5,0,0,1,365.7,473.37Zm-218.55-.45a5,5,0,0,1-2.3-.56c-.9-.46-1.8-.94-2.7-1.42a5,5,0,0,1,4.7-8.82l2.59,1.36a5,5,0,0,1-2.29,9.44Zm238.5-11a5,5,0,0,1-2.7-9.21l2.47-1.6a5,5,0,0,1,5.49,8.36c-.85.56-1.71,1.11-2.57,1.66A4.92,4.92,0,0,1,385.65,461.91Zm-258.38-.5a5,5,0,0,1-2.71-.8c-.85-.56-1.71-1.11-2.55-1.68a5,5,0,1,1,5.52-8.33l2.46,1.61a5,5,0,0,1-2.72,9.2ZM404.4,448.6a5,5,0,0,1-3.09-8.93l2.31-1.83a5,5,0,0,1,6.26,7.79c-.8.64-1.59,1.28-2.4,1.91A4.94,4.94,0,0,1,404.4,448.6ZM108.59,448a5,5,0,0,1-3.1-1.07c-.8-.64-1.6-1.27-2.39-1.92a5,5,0,1,1,6.3-7.76l2.29,1.83a5,5,0,0,1-3.1,8.92Zm313.2-14.46a5,5,0,0,1-3.45-8.63c.71-.67,1.41-1.35,2.12-2a5,5,0,1,1,7,7.16c-.73.72-1.47,1.42-2.21,2.13A5,5,0,0,1,421.79,433.57Zm-330.53-.63a5,5,0,0,1-3.46-1.4c-.74-.71-1.47-1.41-2.19-2.13a5,5,0,0,1,7-7.13l2.11,2.05a5,5,0,0,1-3.47,8.61Zm346.4-16a5,5,0,0,1-3.78-8.28l1.92-2.23a5,5,0,1,1,7.62,6.47l-2,2.32A5,5,0,0,1,437.66,416.94Zm-362.21-.69a5,5,0,0,1-3.79-1.74l-2-2.33a5,5,0,1,1,7.66-6.43l1.9,2.24a5,5,0,0,1-3.79,8.26Zm376.42-17.37a5,5,0,0,1-4.07-7.9q.85-1.2,1.68-2.4a5,5,0,0,1,8.22,5.7c-.58.84-1.16,1.67-1.76,2.5A5,5,0,0,1,451.87,398.88Zm-390.56-.75A5,5,0,0,1,57.22,396c-.59-.83-1.18-1.67-1.75-2.51a5,5,0,1,1,8.24-5.67c.55.81,1.11,1.61,1.68,2.41a5,5,0,0,1-4.08,7.89Zm403-18.58a5,5,0,0,1-4.32-7.5l1.44-2.55a5,5,0,0,1,8.73,4.89c-.5.89-1,1.77-1.51,2.65A5,5,0,0,1,464.28,379.55ZM49,378.73a5,5,0,0,1-4.35-2.52c-.51-.89-1-1.78-1.5-2.68a5,5,0,0,1,8.74-4.85l1.44,2.57a5,5,0,0,1-1.86,6.82A4.92,4.92,0,0,1,49,378.73Zm425.82-19.61a5,5,0,0,1-4.55-7.07c.41-.89.8-1.78,1.2-2.67a5,5,0,1,1,9.15,4c-.41.93-.82,1.86-1.24,2.79A5,5,0,0,1,474.78,359.12Zm-436.25-.89a5,5,0,0,1-4.57-3c-.42-.93-.83-1.87-1.24-2.81a5,5,0,1,1,9.17-4c.39.9.79,1.79,1.19,2.69a5,5,0,0,1-2.51,6.61A4.93,4.93,0,0,1,38.53,358.23Zm444.73-20.45a5.14,5.14,0,0,1-1.62-.27,5,5,0,0,1-3.11-6.35c.32-.92.63-1.85.93-2.78a5,5,0,1,1,9.51,3.11c-.32,1-.65,1.94-1,2.91A5,5,0,0,1,483.26,337.78Zm-453.14-1a5,5,0,0,1-4.74-3.4c-.33-1-.65-1.94-1-2.92a5,5,0,0,1,9.51-3.08c.3.94.61,1.87.93,2.81a5,5,0,0,1-3.15,6.33A4.9,4.9,0,0,1,30.12,336.81ZM489.65,315.7a4.66,4.66,0,0,1-1.16-.14,5,5,0,0,1-3.71-6c.23-1,.45-1.91.66-2.87a5,5,0,0,1,9.76,2.19l-.69,3A5,5,0,0,1,489.65,315.7Zm-465.83-1A5,5,0,0,1,19,310.82c-.23-1-.46-2-.68-3a5,5,0,0,1,9.77-2.15c.21,1,.43,1.92.65,2.87a5,5,0,0,1-3.74,6A4.92,4.92,0,0,1,23.82,314.69Zm470.05-21.58a5.31,5.31,0,0,1-.68-.05,5,5,0,0,1-4.28-5.63c.13-1,.26-1.94.38-2.91a5,5,0,0,1,9.93,1.23c-.13,1-.26,2-.4,3A5,5,0,0,1,493.87,293.11Zm-474.17-1a5,5,0,0,1-4.95-4.34c-.14-1-.26-2-.39-3a5,5,0,1,1,9.93-1.19c.12,1,.24,1.94.37,2.91A5,5,0,0,1,20.37,292,5.12,5.12,0,0,1,19.7,292.08Zm476.2-21.86h-.21a5,5,0,0,1-4.79-5.2c0-1,.08-1.95.11-2.92a5,5,0,0,1,10,.27c0,1-.06,2-.1,3.06A5,5,0,0,1,495.9,270.22Zm-478.13-1a5,5,0,0,1-5-4.81c0-1-.07-2-.09-3.06a5,5,0,0,1,4.88-5.12h.12a5,5,0,0,1,5,4.88q0,1.47.09,2.94A5,5,0,0,1,18,269.18Zm478-22a5,5,0,0,1-5-4.73c-.05-1-.11-2-.17-2.94a5,5,0,1,1,10-.66c.07,1,.13,2,.19,3.06a5,5,0,0,1-4.73,5.26ZM18,246.2h-.29A5,5,0,0,1,13,240.91c.06-1,.12-2,.2-3.06a5,5,0,1,1,10,.7c-.07,1-.13,1.95-.19,2.93A5,5,0,0,1,18,246.2Zm475.4-21.86a5,5,0,0,1-4.94-4.25c-.14-1-.3-1.94-.45-2.91a5,5,0,1,1,9.87-1.61c.16,1,.32,2,.47,3a5,5,0,0,1-4.2,5.69A4.73,4.73,0,0,1,493.42,224.34Zm-473-1a5.12,5.12,0,0,1-.78-.06,5,5,0,0,1-4.17-5.71c.16-1,.32-2,.49-3a5,5,0,0,1,9.86,1.66c-.16,1-.31,1.93-.47,2.9A5,5,0,0,1,20.44,223.34Zm468.47-21.55a5,5,0,0,1-4.85-3.78c-.24-.95-.48-1.9-.73-2.85A5,5,0,0,1,493,192.6c.26,1,.51,2,.76,3a5,5,0,0,1-3.63,6.07A5.15,5.15,0,0,1,488.91,201.79Zm-463.86-1a4.8,4.8,0,0,1-1.24-.16,5,5,0,0,1-3.61-6.08q.38-1.49.78-3a5,5,0,0,1,9.65,2.6c-.25.95-.5,1.89-.74,2.84A5,5,0,0,1,25.05,200.83Zm457.19-21a5,5,0,0,1-4.71-3.32c-.33-.93-.67-1.85-1-2.76a5,5,0,1,1,9.37-3.49c.36,1,.71,1.92,1.06,2.88a5,5,0,0,1-4.71,6.69ZM31.8,178.86a5.08,5.08,0,0,1-1.7-.3,5,5,0,0,1-3-6.41c.35-1,.7-1.91,1.06-2.86a5,5,0,1,1,9.36,3.51l-1,2.77A5,5,0,0,1,31.8,178.86Zm441.67-20.33a5,5,0,0,1-4.53-2.88L467.67,153a5,5,0,0,1,9-4.37c.44.92.89,1.84,1.32,2.77a5,5,0,0,1-2.4,6.65A4.86,4.86,0,0,1,473.47,158.53Zm-432.82-.87a5,5,0,0,1-4.51-7.15c.44-.92.88-1.83,1.33-2.75a5,5,0,0,1,9,4.41c-.43.87-.86,1.75-1.28,2.63A5,5,0,0,1,40.65,157.66ZM51.5,137.41a4.92,4.92,0,0,1-2.57-.71,5,5,0,0,1-1.72-6.86l1.59-2.61a5,5,0,0,1,8.51,5.25L55.79,135A5,5,0,0,1,51.5,137.41ZM64.24,118.3a5,5,0,0,1-4-8c.6-.82,1.21-1.64,1.82-2.45a5,5,0,0,1,8,6c-.59.78-1.18,1.56-1.76,2.35A5,5,0,0,1,64.24,118.3Zm14.52-17.82A5,5,0,0,1,75,92.14l2.06-2.26a5,5,0,1,1,7.36,6.77l-2,2.17A5,5,0,0,1,78.76,100.48ZM94.92,84.13a5,5,0,0,1-3.39-8.68l2.27-2.06a5,5,0,0,1,6.68,7.44l-2.18,2A5,5,0,0,1,94.92,84.13Zm17.65-14.74a5,5,0,0,1-3-9L112,58.57a5,5,0,0,1,5.93,8.05l-2.35,1.76A5,5,0,0,1,112.57,69.39Zm19-13a5,5,0,0,1-2.63-9.26c.87-.54,1.75-1.07,2.63-1.59a5,5,0,1,1,5.14,8.57l-2.52,1.53A4.9,4.9,0,0,1,131.54,56.41Zm243.88-4a5,5,0,0,1-2.48-.66c-.85-.49-1.7-1-2.56-1.44a5,5,0,1,1,4.86-8.74l2.67,1.5a5,5,0,0,1-2.49,9.34ZM151.68,45.3a5,5,0,0,1-2.2-9.49l2.76-1.34a5,5,0,0,1,4.29,9c-.89.42-1.77.84-2.65,1.28A5.09,5.09,0,0,1,151.68,45.3ZM354.94,42a5,5,0,0,1-2.05-.44c-.89-.41-1.79-.8-2.68-1.19a5,5,0,0,1,4-9.17L357,32.41A5,5,0,0,1,354.94,42ZM172.8,36.18A5,5,0,0,1,171,26.5l2.89-1.06a5,5,0,1,1,3.39,9.4l-2.77,1A4.91,4.91,0,0,1,172.8,36.18Zm160.75-2.62a5,5,0,0,1-1.6-.27l-2.79-.92a5,5,0,1,1,3.09-9.51c1,.31,1.94.63,2.9,1a5,5,0,0,1-1.6,9.74Zm-138.86-4.4a5,5,0,0,1-1.29-9.84l3-.77a5,5,0,1,1,2.47,9.69L196,29A4.85,4.85,0,0,1,194.69,29.16Zm116.76-1.9a5.7,5.7,0,0,1-1.14-.13c-.95-.23-1.9-.44-2.86-.65a5,5,0,0,1,2.15-9.77l3,.68a5,5,0,0,1-1.13,9.87Zm-94.3-3a5,5,0,0,1-.82-9.93l3-.49a5,5,0,0,1,1.52,9.89c-1,.14-1.94.3-2.9.46A4.73,4.73,0,0,1,217.15,24.28Zm71.7-1.16a5.12,5.12,0,0,1-.67,0c-1-.13-1.94-.26-2.91-.37a5,5,0,0,1,1.2-9.93l3,.38a5,5,0,0,1-.65,10ZM240,21.59a5,5,0,0,1-.34-10l3.06-.2a5,5,0,0,1,.57,10c-1,.05-2,.12-2.93.18Zm26-.42h-.19l-2.93-.1a5,5,0,0,1,.25-10c1,0,2,.06,3.05.09a5,5,0,0,1-.18,10Z"/><path class="cls-1" d="M283,393a5,5,0,0,1-1.25-9.84c37.32-9.63,66.4-30.12,86.43-60.89,14.92-22.91,18.87-43,18.91-43.21a5,5,0,1,1,9.82,1.88c-.17.89-4.37,22.25-20.34,46.79-14.74,22.64-42.73,52.31-92.32,65.11A4.93,4.93,0,0,1,283,393Z"/></g></svg>