<?xml version="1.0" ?><svg viewBox="0 0 512 512" xmlns="http://www.w3.org/2000/svg"><defs><style>.cls-1{fill:#3f456b;}.cls-2{fill:#384169;}</style></defs><title/><g id="Lines"><path class="cls-1" d="M79,323.59a5,5,0,0,1-2.93-.95c-17.54-12.71-28.09-33.45-29-56.9C46,236.47,57.59,218,67.48,207.58a71.14,71.14,0,0,1,19.31-14.41A195,195,0,0,1,110.42,117c13-23.09,30.45-41.5,51.81-54.72,26.58-16.46,59.26-24.8,97.12-24.8s70.45,8.35,96.84,24.81c21.19,13.23,38.4,31.65,51.14,54.75,21.55,39.11,22.78,77.65,22.82,79.27V231c6.36,3.9,21.39,15.28,27.25,38.44a5,5,0,0,1-9.69,2.45c-6.16-24.34-23.94-33.07-24.69-33.43a5,5,0,0,1-2.87-4.52V196.55c0-1.57-1.6-38.58-21.76-75-11.92-21.51-28-38.63-47.69-50.89C326,55.32,295.23,47.52,259.35,47.52s-66.72,7.8-91.67,23.19c-19.89,12.27-36.17,29.4-48.37,50.92-21,37-22.72,74.67-22.73,75a5,5,0,0,1-3.22,4.48c-1.54.6-38.07,15.35-36.26,64.22.77,20.65,9.59,38.12,24.84,49.17a5,5,0,0,1-2.94,9Z"/><path class="cls-1" d="M401.16,344.54h-.28c-14.56-.82-30-7.11-45.91-18.67a5,5,0,0,1,5.88-8.09c14.33,10.42,28,16.06,40.59,16.78a5,5,0,0,1-.28,10Z"/><path class="cls-1" d="M158.55,324a5,5,0,0,1-3.93-1.91c-18.62-23.67-28.46-53.39-28.46-86V200.42a5,5,0,0,1,10,0V236.1c0,30.3,9.1,57.88,26.32,79.77a5,5,0,0,1-3.93,8.09Z"/><path class="cls-1" d="M259.36,371.44a137,137,0,0,1-57.18-12.14,5,5,0,1,1,4.14-9.1,127.18,127.18,0,0,0,53,11.24c33.58,0,64.55-12.32,87.21-34.69,23.26-23,36.07-55.15,36.07-90.65l-.08-33.69a5,5,0,0,1,5-5h0a5,5,0,0,1,5,5l.08,33.71c0,38.21-13.87,72.93-39,97.78C329.05,358.1,295.58,371.44,259.36,371.44Z"/><path class="cls-1" d="M343.9,209.41c-41.48,0-72.21-11.16-92.36-22.11a151.2,151.2,0,0,1-38.46-29.21,108.54,108.54,0,0,1-16.5,22.36c-18.21,18.91-41.05,27.53-66,25a5,5,0,1,1,1-10c22,2.28,41.4-5,57.59-21.7a96.4,96.4,0,0,0,18.2-26.56,5,5,0,0,1,8.66-1c.13.17,13.29,17.81,40.77,32.61,25.35,13.66,68.48,27.64,130,16.73a5,5,0,0,1,1.74,9.85A255.86,255.86,0,0,1,343.9,209.41Z"/><path class="cls-1" d="M211,228.5H191a5,5,0,0,1,0-10h20a5,5,0,0,1,0,10Z"/><path class="cls-1" d="M318,228.5H298a5,5,0,0,1,0-10h20a5,5,0,0,1,0,10Z"/><path class="cls-1" d="M256.76,501.28a263,263,0,0,1-44.11-3.66,5,5,0,0,1,1.69-9.86,252.44,252.44,0,0,0,42.42,3.52,5,5,0,0,1,0,10Z"/><path class="cls-1" d="M442.55,412.7a5,5,0,0,1-3.88-8.16,205.12,205.12,0,0,0,16.93-23.91l-12.84-10.88a5,5,0,1,1,6.47-7.63l16,13.57a5,5,0,0,1,1.2,6.12c-.26.51-6.63,12.59-20,29A5,5,0,0,1,442.55,412.7Z"/><path class="cls-1" d="M256.76,501.28a5,5,0,0,1,0-10c63.67,0,106.42-22.9,126.24-36.55a5,5,0,1,1,5.67,8.23C367.9,477.27,323.14,501.28,256.76,501.28Z"/><path class="cls-1" d="M256.76,436.5c-20.15,0-37.22-4.57-50.73-13.59a5,5,0,0,1,5.55-8.32c11.84,7.9,27,11.91,45.18,11.91,25.27,0,44.54-7.28,57.26-21.64,21.8-24.59,17.56-62,17.52-62.39a5,5,0,0,1,9.92-1.2c.21,1.72,4.79,42.31-19.95,70.22C306.8,428.09,285,436.5,256.76,436.5Z"/><path class="cls-1" d="M54.27,368.59a5,5,0,0,1-5-5V318.78a65.93,65.93,0,0,1,131.85.09V363a5,5,0,1,1-10,0V318.87a55.93,55.93,0,0,0-111.85-.09v44.81A5,5,0,0,1,54.27,368.59Z"/><path class="cls-1" d="M213.83,499.73H16a5,5,0,0,1-5-5.38L24.2,319.5a5,5,0,0,1,5-4.62H201.06a5,5,0,0,1,5,4.62l2.89,38.8,4.53,63.4,5.36,72.66a5,5,0,0,1-5,5.37Zm-192.44-10H208.45l-5-67.31h0L199,359l-2.54-34.15H33.83Z"/><path class="cls-1" d="M107,458.9a15.12,15.12,0,0,1-15.11-15l-.45-67.72a15.11,15.11,0,0,1,4.19-10.53l.14-.14L122.05,340a11.7,11.7,0,0,1,15.71-.42,3.7,3.7,0,0,1,.42.37c5.94,5.86,27.11,24.65,27.32,24.84l.2.18a15,15,0,0,1,4.5,10.65l.45,67.73a15.14,15.14,0,0,1-15,15.2l-48.52.32Zm-4.19-86.29a5.1,5.1,0,0,0-1.37,3.49l.45,67.73a5.14,5.14,0,0,0,5.14,5.07l48.52-.32a5.12,5.12,0,0,0,5.08-5.14l-.45-67.73a5.05,5.05,0,0,0-1.45-3.51c-1.86-1.65-21.15-18.8-27.37-24.89a1.7,1.7,0,0,0-2.29-.16h0l-.06.05Zm26.25-25.46,0,0h0Zm0,0Z"/><path class="cls-1" d="M131.06,380a5,5,0,0,1-5-5v-1a5,5,0,0,1,10,0v1A5,5,0,0,1,131.06,380Z"/><path class="cls-2" d="M129.75,346.77a5,5,0,0,1-5-5V319.88a5,5,0,0,1,10,0v21.89A5,5,0,0,1,129.75,346.77Z"/><path class="cls-1" d="M425.34,492.55a46.81,46.81,0,0,1-6.12-.4c-25.09-3.25-42.91-25.87-39.73-50.43h0c3.18-24.55,26.18-41.88,51.28-38.63a46.11,46.11,0,0,1,30.45,17.17A44.23,44.23,0,0,1,453,483.32,46,46,0,0,1,425.34,492.55ZM389.41,443c-2.48,19.08,11.47,36.68,31.1,39.22A36.1,36.1,0,0,0,447,475.32a34.22,34.22,0,0,0,6.34-48.86A36.14,36.14,0,0,0,429.48,413c-19.62-2.55-37.6,10.91-40.07,30Z"/><path class="cls-1" d="M425.34,492.55a46.81,46.81,0,0,1-6.12-.4c-25.09-3.25-42.91-25.87-39.73-50.43h0c3.18-24.55,26.18-41.88,51.28-38.63a46.11,46.11,0,0,1,30.45,17.17A44.23,44.23,0,0,1,453,483.32,46,46,0,0,1,425.34,492.55ZM389.41,443c-2.48,19.08,11.47,36.68,31.1,39.22A36.1,36.1,0,0,0,447,475.32a34.22,34.22,0,0,0,6.34-48.86A36.14,36.14,0,0,0,429.48,413c-19.62-2.55-37.6,10.91-40.07,30Z"/><g data-name="&lt;编组&gt;" id="_编组_"><path class="cls-1" d="M436,372.27a4.92,4.92,0,0,1-2.19-.51l-24.49-11.91c-5.06-2.16-13.84-9.28-11.9-21.28,1.81-11.19,7.77-60.14,7.83-60.63.59-5.32,4.38-15.41,14.6-15.16,31.8.82,61.3,9.56,62.54,9.93l.16.05c11,3.72,12.44,13.68,10.69,19.66-.73,3.66-9.9,49-11.64,59.78-1.95,12-12.52,16-18,16.43l-26.94,3.59A4.89,4.89,0,0,1,436,372.27Zm-16.49-99.5c-3.45,0-4.32,6.29-4.33,6.35-.25,2.05-6,49.66-7.89,61.05-1.16,7.16,5.3,10.2,6,10.52l.24.1,23.26,11.32,25.59-3.41.26,0c.84-.07,7.89-.93,9.05-8.07,1.84-11.39,11.36-58.4,11.76-60.39,0-.18.08-.35.13-.52.58-2,.82-5.7-4.18-7.43-1.75-.51-30.22-8.72-59.85-9.49Z"/></g><path class="cls-1" d="M429.44,412.62a5.49,5.49,0,0,1-.8-.06,5,5,0,0,1-4.14-5.74L431,366.47a5,5,0,1,1,9.87,1.6l-6.53,40.35A5,5,0,0,1,429.44,412.62Z"/><path class="cls-1" d="M43.51,94.45a5,5,0,0,1-5-5V70a5,5,0,0,1,10,0v19.5A5,5,0,0,1,43.51,94.45Z"/><path class="cls-1" d="M43.51,75a5,5,0,0,1-5-5V66.62a28.19,28.19,0,0,1-5.33-54C43.44,8.6,55.41,10,63.66,16.14a5,5,0,1,1-6,8c-5.45-4.08-13.82-5-20.82-2.2a18.19,18.19,0,0,0,6.66,35.11,5,5,0,0,1,5,5V70A5,5,0,0,1,43.51,75Z"/><path class="cls-2" d="M43.51,132.5a24,24,0,1,1,24-24A24.06,24.06,0,0,1,43.51,132.5Zm0-38a14,14,0,1,0,14,14A14,14,0,0,0,43.51,94.45Z"/><path class="cls-1" d="M98.69,94.45a5,5,0,0,1-5-5V70a5,5,0,1,1,10,0v19.5A5,5,0,0,1,98.69,94.45Z"/><path class="cls-1" d="M98.69,75a5,5,0,0,1-5-5V66.62a28.19,28.19,0,0,1-5.33-54C98.63,8.6,110.6,10,118.85,16.14a5,5,0,1,1-6,8C107.41,20.07,99,19.19,92,22a18.19,18.19,0,0,0,6.66,35.11,5,5,0,0,1,5,5V70A5,5,0,0,1,98.69,75Z"/><path class="cls-2" d="M98.69,132.5a24,24,0,1,1,24-24A24,24,0,0,1,98.69,132.5Zm0-38a14,14,0,1,0,14,14A14,14,0,0,0,98.69,94.45Z"/><path class="cls-1" d="M483.38,77.83a5,5,0,0,1-4.72-6.64,416.45,416.45,0,0,0,12.59-47.36c0-.19,0-.08,0-.16,0-.36-.09-1-2.33-1.34a5.28,5.28,0,0,1-.66-.16c-.24-.07-24.92-7.55-54.77.08-.87.22-2.93.75-2.33,3.42a.79.79,0,0,1,.05.22c6.23,31.1,10.39,45.39,10.43,45.53a5,5,0,1,1-9.6,2.82c-.17-.58-4.3-14.74-10.62-46.3a13.59,13.59,0,0,1,1.35-9.53,12.78,12.78,0,0,1,8.25-5.85c31.17-8,56.6-1,59.91,0,4.91.93,7.4,3.36,8.63,5.26A10.86,10.86,0,0,1,501,25.92,413.86,413.86,0,0,1,488.1,74.48,5,5,0,0,1,483.38,77.83Zm7.93-54.24Zm0,0Z"/><path class="cls-1" d="M474.26,121.26H446a14.23,14.23,0,0,1-14.12-14.32V72.83a5,5,0,0,1,5-5h46.51a5,5,0,0,1,5,5v34.11A14.23,14.23,0,0,1,474.26,121.26ZM441.87,77.83v29.11a4.23,4.23,0,0,0,4.12,4.32h28.27a4.23,4.23,0,0,0,4.12-4.32V77.83Z"/><path class="cls-1" d="M460.71,234a19.56,19.56,0,0,1-19.54-19.55V116.81a5,5,0,0,1,10,0v97.65a9.54,9.54,0,1,0,19.08,0V116.25a5,5,0,0,1,10,0v98.21A19.57,19.57,0,0,1,460.71,234Z"/></g><g id="Outline"><path class="cls-2" d="M118.81,404.86a5,5,0,0,1,0-10l24.63-.16h0a5,5,0,0,1,0,10l-24.64.16Z"/><path class="cls-2" d="M119,430.46a5,5,0,0,1,0-10l24.64-.16a5,5,0,1,1,.06,10l-24.63.16Z"/><path class="cls-1" d="M420.78,342.37a5.32,5.32,0,0,1-.78-.06,5,5,0,0,1-4.16-5.71L423,290.72a5,5,0,0,1,9.88,1.55l-7.16,45.87A5,5,0,0,1,420.78,342.37Z"/><path class="cls-1" d="M440.54,345.46a5.32,5.32,0,0,1-.78-.06,5,5,0,0,1-4.16-5.71l7.16-45.88a5,5,0,1,1,9.88,1.54l-7.16,45.88A5,5,0,0,1,440.54,345.46Z"/><path class="cls-1" d="M460.3,348.55a5.22,5.22,0,0,1-.78-.06,5,5,0,0,1-4.16-5.72l7.16-45.87a5,5,0,0,1,9.88,1.54l-7.16,45.88A5,5,0,0,1,460.3,348.55Z"/><path class="cls-1" d="M461.37,38.63a5,5,0,0,1-5-5V13.8a5,5,0,0,1,10,0V33.63A5,5,0,0,1,461.37,38.63Z"/><path class="cls-1" d="M444.84,38.63a5,5,0,0,1-4.93-4.18,161.61,161.61,0,0,1-1.62-19.18,5,5,0,1,1,10-.22,152,152,0,0,0,1.49,17.76,5,5,0,0,1-4.11,5.75A4.73,4.73,0,0,1,444.84,38.63Z"/><path class="cls-1" d="M477.67,38.63a4.73,4.73,0,0,1-.83-.07,5,5,0,0,1-4.11-5.75,154.75,154.75,0,0,0,1.49-17.76,5,5,0,1,1,10,.22,159.32,159.32,0,0,1-1.62,19.18A5,5,0,0,1,477.67,38.63Z"/></g></svg>