<?xml version="1.0" ?><svg viewBox="0 0 512 512" xmlns="http://www.w3.org/2000/svg"><defs><style>.cls-1{fill:#3f456b;}</style></defs><title/><g id="Lines"><path class="cls-1" d="M194.84,447.62a27.48,27.48,0,0,1-16.13-5.34c-2.19-1.53-32.17-22.67-59.5-50.12l0,0c-6.22-6.34-24.68-26.16-25.46-27l-.1-.12-1.25-1.42c-8.29-9.47-19.64-22.44-26.46-31.74-29.7-40.51-21.61-74-14.15-90.35,12.4-27.15,39.5-45.6,70.73-48.15s50.34,9.64,60.81,20.32a70.44,70.44,0,0,1,11.25,15.09,70,70,0,0,1,11.24-15.09c10.47-10.68,29.51-22.87,60.81-20.32s58.34,21,70.73,48.15c7.46,16.35,15.55,49.82-14.15,90.32C276.81,395.09,212.91,440.5,210.37,442.29A25.55,25.55,0,0,1,194.84,447.62Zm-68.53-62.5a478.52,478.52,0,0,0,58.22,49l.24.18c1,.74,9.95,7.2,19.67-.09l.13-.09c.64-.45,64.48-45.38,110.56-108.23,19.77-27,24.43-55.47,13.11-80.26-10.89-23.85-34.82-40.08-62.44-42.33-52.23-4.26-65.73,37.22-65.86,37.64a5,5,0,0,1-4.77,3.52H194a5,5,0,0,1-4.78-3.52c-.54-1.7-13.9-41.88-65.85-37.64-27.63,2.25-51.55,18.48-62.45,42.34C49.55,270.46,54.21,299,74,325.94c6.57,9,17.76,21.74,25.93,31.07l1.19,1.37C102.22,359.57,120.33,379,126.31,385.12Z"/><path class="cls-1" d="M283.9,415.48a35.32,35.32,0,0,1-20.65-6.79c-.91-.56-3.61-2.28-8.76-6.16a5,5,0,0,1,6-8c5.65,4.26,8.06,5.68,8.08,5.69a6.1,6.1,0,0,1,.59.4c.56.44,14.28,10.8,28.79-.07l.14-.1c.87-.61,87.57-61.62,150.17-147,36.69-50,27-90.75,17.94-110.57-15-32.91-48-55.28-86.05-58.39-30.38-2.48-54.94,5.59-73,24-13.43,13.68-18,28-18,28.16a5,5,0,0,1-4.77,3.52H282.7a5,5,0,0,1-4.78-3.52,79.53,79.53,0,0,0-18.35-28.48C241.53,90,217.07,82,186.88,84.49c-51.66,4.22-92.19,44.08-94.28,92.73,0,.21-.81,17.18,3.75,26.76a5,5,0,0,1-9,4.29c-5.64-11.88-4.74-30.73-4.7-31.52,2.3-53.63,46.78-97.6,103.45-102.23,41.69-3.41,67,12.78,81,27a93.28,93.28,0,0,1,16.5,23,93.63,93.63,0,0,1,16.51-23C314,87.3,339.29,71.12,381,74.52s77.8,28,94.33,64.21a103.77,103.77,0,0,1,8.27,56.77c-2.84,21.6-12,43.09-27.24,63.86C393.52,345.05,306.89,406.51,303.9,408.61A32.92,32.92,0,0,1,283.9,415.48Z"/><path class="cls-1" d="M479.8,88.28a5,5,0,0,1-3.48-1.41L424.6,36.77a5,5,0,0,1,2.15-8.41L494.15,9.7a5,5,0,0,1,6.21,5.93L484.67,84.4a5,5,0,0,1-4.87,3.88Zm-42-52.61L476.9,73.51l11.85-51.94Z"/><path class="cls-1" d="M51.74,500.91a5.13,5.13,0,0,1-1.39-.2A5,5,0,0,1,46.86,497L41,470,15,466.55a5,5,0,0,1-2.88-8.47l60.7-61.25a5,5,0,0,1,4.32-1.42l30.76,4.79a5,5,0,0,1,4.18,4.2l4.52,30.31a5,5,0,0,1-1.39,4.26L55.3,499.43A5,5,0,0,1,51.74,500.91ZM26.31,458l19.45,2.61A5,5,0,0,1,50,464.48l4.68,21.38,51.7-52.15-3.61-24.2-24.6-3.82Z"/><path class="cls-1" d="M422.78,96.22a5,5,0,0,1-3.53-8.54l31.21-31.22a5,5,0,0,1,7.08,7.08L426.32,94.75A5,5,0,0,1,422.78,96.22Z"/><path class="cls-1" d="M303.63,215.37a5,5,0,0,1-3.54-8.53L317,190A5,5,0,0,1,324,197l-16.88,16.87A5,5,0,0,1,303.63,215.37Z"/><path class="cls-1" d="M107.92,411.08a5,5,0,0,1-3.54-8.53l85.17-85.17a5,5,0,1,1,7.07,7.07l-85.17,85.17A4.94,4.94,0,0,1,107.92,411.08Z"/><path class="cls-1" d="M416.5,472a5,5,0,0,1-4.88-3.91c-.09-.39-9.36-39.63-44.21-47.44a5,5,0,0,1,.15-9.79c1.6-.31,39.24-8.06,44-47.46a5,5,0,0,1,9.89-.22,74.68,74.68,0,0,0,8.38,22.06c8.41,14.56,20.35,23.17,35.48,25.59a5,5,0,0,1,.23,9.84c-1.55.32-38.2,8.55-44.08,47.08a5,5,0,0,1-4.77,4.25Zm-32.9-56.18c17.1,8.46,26.94,23.37,32.27,34.74a64.52,64.52,0,0,1,24.29-29.31,75.28,75.28,0,0,1,8.66-5C437.44,411.08,428,402.17,421,389.94a83.53,83.53,0,0,1-4-7.91,62.36,62.36,0,0,1-23.72,28.41A73.94,73.94,0,0,1,383.6,415.82Z"/><path class="cls-1" d="M80.5,123a5,5,0,0,1-4.88-3.91c-.09-.39-9.36-39.63-44.21-47.44a5,5,0,0,1,.15-9.79c1.6-.31,39.24-8.06,44-47.46a5,5,0,0,1,9.89-.22,74.68,74.68,0,0,0,8.38,22.06c8.41,14.56,20.35,23.17,35.48,25.59a5,5,0,0,1,.23,9.84c-1.55.32-38.2,8.55-44.08,47.08A5,5,0,0,1,80.67,123ZM47.6,66.82c17.1,8.46,26.94,23.37,32.27,34.74a64.52,64.52,0,0,1,24.29-29.31,75.28,75.28,0,0,1,8.66-5C101.44,62.08,92,53.17,85,40.94A83.53,83.53,0,0,1,81,33,62.36,62.36,0,0,1,57.28,61.44,73.94,73.94,0,0,1,47.6,66.82Z"/><path class="cls-1" d="M200,338a5,5,0,0,1-5-4.48c-.47-4.4-2-7.68-4.56-9.74-4.09-3.29-9.86-2.82-9.92-2.81a5,5,0,1,1-1.1-9.94c1-.11,10-.92,17.29,5,4.71,3.79,7.48,9.34,8.23,16.49a5,5,0,0,1-4.45,5.49A4.58,4.58,0,0,1,200,338Z"/><path class="cls-1" d="M328.49,209.5a5,5,0,0,1-5-4.57c-1.09-12.66-14.3-12.44-14.89-12.43a5,5,0,1,1-.26-10,29.73,29.73,0,0,1,11.54,2.34c8,3.42,12.8,10.25,13.57,19.23a5,5,0,0,1-4.55,5.41Z"/></g><g id="Outline"><path class="cls-1" d="M437,225a5,5,0,0,1-4.6-7c23.93-56.14-17.27-82.69-19-83.79a5,5,0,0,1,5.27-8.51,71.67,71.67,0,0,1,22,23.9c8.32,14.56,15.24,38.92,1,72.32A5,5,0,0,1,437,225Z"/><path class="cls-1" d="M142.12,299.43a5,5,0,0,1-4.51-7.15c5.25-11,13.84-17.91,23.56-18.82s16.61,4.14,22.73,8.58c3.94,2.86,7.66,5.57,11.79,6.58a18.13,18.13,0,0,0,9.48-.17,26.8,26.8,0,0,1-2.13-2c-5.72-5.92-7.76-13.45-5.58-20.67,2.51-8.3,8.25-13.92,15.35-15a16.14,16.14,0,0,1,15.92,6.89c4.42,6.48,4,15.3-1.16,24.21a40,40,0,0,1-3.15,4.66,52.7,52.7,0,0,0,22.69-1.06,5,5,0,0,1,2.57,9.67c-12.18,3.23-24.28,2.86-33.93-.69a28.71,28.71,0,0,1-22.43,3.87c-6-1.47-10.75-4.89-15.3-8.2-5.37-3.9-10-7.27-15.92-6.71-8.39.78-13.28,8.58-15.46,13.15A5,5,0,0,1,142.12,299.43Zm73.2-38.85a6.58,6.58,0,0,0-1,.08c-3.25.5-5.92,3.42-7.3,8s.94,8.51,3.19,10.83a20.79,20.79,0,0,0,4.14,3.3,28.84,28.84,0,0,0,4.54-5.94c3.16-5.45,3.72-10.39,1.56-13.55A6.21,6.21,0,0,0,215.32,260.58Z"/></g></svg>