<?xml version="1.0" ?><svg enable-background="new 0 0 512 512" version="1.1" viewBox="0 0 512 512" xml:space="preserve" xmlns="http://www.w3.org/2000/svg" xmlns:xlink="http://www.w3.org/1999/xlink"><g id="Colors"><g><g><g><path d="M161.74,263.62c-1.45-2.36-0.71-5.44,1.64-6.88l0,0c2.36-1.45,5.43-0.71,6.88,1.64l0,0      c1.45,2.36,0.71,5.44-1.64,6.88l0,0c-0.82,0.5-1.72,0.74-2.62,0.74l0,0C164.32,266,162.68,265.15,161.74,263.62z M179.25,253.88      c-1.17-2.5-0.08-5.48,2.42-6.64l0,0c2.5-1.17,5.48-0.08,6.65,2.42l0,0c1.16,2.5,0.08,5.48-2.42,6.64v0.01      c-0.69,0.31-1.41,0.46-2.11,0.46l0,0C181.9,256.77,180.1,255.7,179.25,253.88z M396.31,242.35L396.31,242.35      c-2.6-0.91-3.97-3.77-3.06-6.37l0,0c0.92-2.61,3.77-3.98,6.38-3.06l0,0l0,0l0,0c2.6,0.91,3.97,3.77,3.06,6.37l0,0      c-0.73,2.06-2.66,3.35-4.72,3.35l0,0C397.42,242.64,396.86,242.54,396.31,242.35z M377.57,236.57h0.01      c-2.67-0.71-4.26-3.45-3.55-6.12l0,0c0.71-2.66,3.45-4.25,6.12-3.54l0,0c2.67,0.71,4.25,3.45,3.54,6.12l0,0      c-0.59,2.24-2.61,3.71-4.83,3.71l0,0C378.44,236.74,378.01,236.69,377.57,236.57z" fill="#3F456B"/></g></g></g><g><g><g><path d="M368.965,407.022c-1.071,0-2.167-0.233-3.239-0.72c-1.853-0.842-3.125-2.215-3.808-2.953      c-2.946-3.182-5.55-6.525-8.068-9.759l-1.401-1.795c-0.351-0.448-0.711-0.941-1.07-1.436c-0.286-0.393-0.571-0.787-0.85-1.144      c-0.046-0.06-0.096-0.125-0.147-0.196c-1.084,0.092-2.179,0.203-3.309,0.318c-2.29,0.233-4.657,0.474-7.125,0.557      c-0.327,0.011-0.769,0.047-1.287,0.087c-4.792,0.367-13.713,1.051-15.861-5.682c-0.78-2.449,0.106-4.612,0.439-5.427      c1.854-4.525,4.409-8.496,6.88-12.335l0.928-1.446c1.018-1.594,1.931-2.999,2.731-4.205c-3.285-5.983-7.645-15.388-7.546-20.948      c0.067-3.84,1.821-5.907,3.28-6.966c2.562-1.858,5.454-1.536,6.765-1.25c4.915,0.611,14.791,4.178,20.197,6.231      c5.704-6.072,11.98-11.116,13.962-12.564c1.774-1.296,3.607-1.987,5.449-2.054c2.202-0.074,4.554,0.771,6.27,2.277      c0.546,0.479,1.034,1.044,1.449,1.678c0.878,1.34,1.404,2.961,1.561,4.814c0.208,2.444,0.517,10.486-0.327,18.78      c5.097,2.734,14.266,7.851,17.951,11.161c1.075,0.802,3.215,2.775,3.492,5.927c0.158,1.796-0.253,4.476-3.107,7.045      c-4.084,3.677-13.858,6.529-20.526,7.99c-1.422,6.674-3.587,12.997-6.582,19.234      C374.604,405.289,371.883,407.022,368.965,407.022z M352.628,378.857c0.709,0,1.411,0.151,2.059,0.443l0.081,0.037      c1.784,0.814,2.757,2.334,3.468,3.445c0.081,0.126,0.154,0.244,0.22,0.338c0.298,0.377,0.656,0.869,1.014,1.36      c0.287,0.395,0.573,0.79,0.853,1.148l1.418,1.818c2.166,2.781,4.227,5.428,6.466,7.952c2.468-5.637,4.188-11.383,5.242-17.488      c0.359-2.078,1.982-3.708,4.059-4.073c6.578-1.16,14.012-3.448,17.468-5.272c-3.778-2.813-12.545-7.692-17.821-10.431      c-1.889-0.98-2.95-3.049-2.645-5.155c1.072-7.395,0.943-15.305,0.775-18.711c-2.684,2.11-8.742,7.203-13.617,12.857      c-1.39,1.611-3.647,2.167-5.626,1.384c-5.527-2.187-14.96-5.605-19.562-6.612c0.891,3.805,4.039,10.918,7.477,16.644      c1.019,1.696,0.941,3.833-0.198,5.451c-0.711,1.011-2.032,2.956-4.284,6.481l-0.947,1.475c-1.8,2.798-3.524,5.476-4.909,8.244      c1.585,0.023,3.45-0.119,4.276-0.182c0.691-0.053,1.281-0.096,1.717-0.11c2.128-0.071,4.226-0.285,6.446-0.511      c2.039-0.208,4.146-0.422,6.332-0.526C352.471,378.859,352.549,378.857,352.628,378.857z M396.977,370.171      c0.006,0.004,0.011,0.007,0.016,0.01C396.987,370.178,396.982,370.174,396.977,370.171z M333.938,341.434      c0.005,0.002,0.011,0.003,0.017,0.005C333.948,341.437,333.943,341.436,333.938,341.434z" fill="#384169"/></g></g></g><g><g><g><path d="M106.926,319.86c-0.929,0-1.891-0.183-2.882-0.597c-2.37-0.989-3.447-3.064-3.852-3.846      c-2.25-4.343-3.623-8.861-4.949-13.23l-0.5-1.642c-0.557-1.809-1.037-3.414-1.438-4.806c-6.687-1.369-16.677-4.133-20.852-7.808      c-2.882-2.537-3.324-5.211-3.186-7.009c0.242-3.155,2.36-5.152,3.426-5.966c3.647-3.351,12.758-8.57,17.824-11.361      c-0.938-8.284-0.719-16.33-0.539-18.776c0.16-2.189,0.82-4.034,1.96-5.481c1.369-1.736,3.535-2.972,5.794-3.306      c0.713-0.106,1.46-0.113,2.212-0.019c1.597,0.2,3.171,0.848,4.684,1.926c2,1.426,8.332,6.399,14.104,12.408      c5.383-2.115,15.219-5.792,20.127-6.458c1.306-0.301,4.196-0.655,6.778,1.174c1.471,1.042,3.248,3.09,3.358,6.929      c0.159,5.493-3.994,14.79-7.196,20.817c4.168,5.405,7.585,11.148,10.401,17.467c1.881,4.222,0.368,8.643-3.597,10.512      c-1.843,0.868-3.712,0.948-4.717,0.991c-4.331,0.186-8.563,0.006-12.657-0.167l-2.279-0.094c-0.571-0.022-1.18-0.068-1.79-0.114      c-0.484-0.037-0.969-0.075-1.421-0.093c-0.074-0.003-0.156-0.008-0.243-0.015c-0.632,0.885-1.255,1.791-1.898,2.726      c-1.305,1.897-2.654,3.858-4.189,5.793c-0.204,0.257-0.462,0.617-0.768,1.039C116.248,314.151,112.107,319.86,106.926,319.86z       M80.578,281.388c3.477,1.785,10.937,3.989,17.526,5.075c1.952,0.322,3.531,1.764,4.027,3.679      c0.311,1.198,0.939,3.465,2.169,7.463l0.511,1.676c0.967,3.183,1.892,6.229,3.106,9.077c1.046-1.194,2.143-2.707,2.629-3.376      c0.407-0.562,0.757-1.04,1.028-1.382c1.323-1.668,2.519-3.406,3.784-5.246c1.161-1.688,2.361-3.433,3.696-5.165      c0.5-0.649,1.145-1.156,1.871-1.49c1.807-0.846,3.592-0.604,4.897-0.428c0.148,0.02,0.286,0.041,0.399,0.051      c0.483,0.018,1.089,0.062,1.694,0.108c0.487,0.037,0.974,0.075,1.429,0.093l2.308,0.096c3.521,0.149,6.871,0.292,10.243,0.217      c-2.699-5.529-5.964-10.559-9.937-15.315c-1.352-1.619-1.542-3.911-0.478-5.73c3.374-5.765,6.442-12.913,7.289-16.727      c-4.589,1.058-13.983,4.583-19.486,6.832c-1.971,0.804-4.234,0.274-5.642-1.321c-4.938-5.6-11.054-10.625-13.76-12.703      c-0.129,3.409-0.169,11.32,0.986,18.701c0.329,2.103-0.709,4.183-2.586,5.185C93.037,273.555,84.324,278.532,80.578,281.388z       M78.596,283.017c-0.005,0.003-0.011,0.007-0.016,0.01C78.585,283.023,78.59,283.021,78.596,283.017z M141.308,253.573      c-0.006,0.002-0.011,0.004-0.017,0.005C141.296,253.576,141.302,253.575,141.308,253.573z M98.516,245.893L98.516,245.893      L98.516,245.893z M100.006,245.164L100.006,245.164L100.006,245.164z" fill="#384169"/></g></g></g><g><g><g><path d="M371.466,72.837c-1.28,0-2.559-0.488-3.536-1.464c-1.953-1.953-1.953-5.119,0-7.071l8.017-8.017      c1.953-1.952,5.118-1.952,7.071,0c1.953,1.953,1.953,5.119,0,7.071l-8.017,8.017C374.025,72.349,372.746,72.837,371.466,72.837z      " fill="#3F456B"/></g></g><g><g><path d="M344.103,100.18c-1.28,0-2.559-0.488-3.536-1.464c-1.953-1.953-1.953-5.119,0-7.071l8.017-8.017      c1.953-1.952,5.118-1.952,7.071,0c1.953,1.953,1.953,5.119,0,7.071l-8.017,8.017C346.662,99.691,345.383,100.18,344.103,100.18z      " fill="#3F456B"/></g></g></g><g><g><g><path d="M379.473,100.19c-1.28,0-2.559-0.488-3.536-1.464l-8.018-8.017c-1.953-1.953-1.953-5.118,0-7.071      c1.952-1.952,5.118-1.952,7.071,0l8.018,8.017c1.953,1.953,1.953,5.118,0,7.071C382.033,99.702,380.753,100.19,379.473,100.19z" fill="#3F456B"/></g></g><g><g><path d="M352.13,72.827c-1.28,0-2.559-0.488-3.536-1.464l-8.017-8.017c-1.953-1.953-1.953-5.119,0-7.071      c1.953-1.952,5.118-1.952,7.071,0l8.017,8.017c1.953,1.953,1.953,5.119,0,7.071C354.689,72.339,353.41,72.827,352.13,72.827z" fill="#3F456B"/></g></g></g><g><g><g><path d="M487.466,237.837c-1.28,0-2.559-0.488-3.536-1.464c-1.953-1.953-1.953-5.119,0-7.071l8.017-8.017      c1.953-1.952,5.118-1.952,7.071,0c1.953,1.953,1.953,5.119,0,7.071l-8.017,8.017      C490.025,237.349,488.746,237.837,487.466,237.837z" fill="#3F456B"/></g></g><g><g><path d="M460.103,265.18c-1.28,0-2.559-0.488-3.536-1.464c-1.953-1.953-1.953-5.119,0-7.071l8.017-8.017      c1.953-1.952,5.118-1.952,7.071,0c1.953,1.953,1.953,5.119,0,7.071l-8.017,8.017C462.662,264.691,461.383,265.18,460.103,265.18      z" fill="#3F456B"/></g></g></g><g><g><g><path d="M495.473,265.19c-1.28,0-2.559-0.488-3.536-1.464l-8.018-8.017c-1.953-1.953-1.953-5.118,0-7.071      c1.952-1.952,5.118-1.952,7.071,0l8.018,8.017c1.953,1.953,1.953,5.118,0,7.071C498.033,264.702,496.753,265.19,495.473,265.19z      " fill="#3F456B"/></g></g><g><g><path d="M468.13,237.827c-1.28,0-2.559-0.488-3.536-1.464l-8.017-8.017c-1.953-1.953-1.953-5.119,0-7.071      c1.953-1.952,5.118-1.952,7.071,0l8.017,8.017c1.953,1.953,1.953,5.119,0,7.071C470.689,237.339,469.41,237.827,468.13,237.827z      " fill="#3F456B"/></g></g></g><g><g><path d="M211.83,415.57c-2.76-0.02-4.98-2.28-4.96-5.04l0,0c0.03-2.76,2.29-4.98,5.05-4.96l0,0     c2.76,0.03,4.98,2.29,4.95,5.05l0,0c-0.02,2.74-2.26,4.95-5,4.95l0,0C211.86,415.57,211.84,415.57,211.83,415.57z M226.87,410.36     c-0.17-2.75,1.92-5.13,4.68-5.3l0,0c2.76-0.17,5.13,1.93,5.3,4.68l0,0c0.17,2.76-1.92,5.13-4.68,5.3l0,0     c-0.1,0.01-0.21,0.01-0.31,0.01l0,0C229.24,415.05,227.04,413.01,226.87,410.36z M191.53,414.73c-2.76-0.21-4.82-2.61-4.62-5.36     l0,0c0.2-2.75,2.6-4.82,5.35-4.62l0,0c2.76,0.21,4.83,2.6,4.62,5.36l0,0c-0.19,2.63-2.39,4.63-4.98,4.63l0,0     C191.78,414.74,191.65,414.74,191.53,414.73z M246.81,408.74c-0.39-2.73,1.51-5.26,4.25-5.65l0,0c2.73-0.38,5.26,1.52,5.65,4.26     l0,0c0.38,2.73-1.52,5.26-4.26,5.65l0,0c-0.23,0.03-0.47,0.05-0.7,0.05l0,0C249.3,413.05,247.16,411.24,246.81,408.74z      M171.34,412.61c-2.74-0.37-4.66-2.88-4.29-5.62l0,0c0.37-2.74,2.89-4.65,5.62-4.29l0,0c2.74,0.37,4.66,2.89,4.29,5.62l0,0     c-0.34,2.52-2.48,4.34-4.95,4.34l0,0C171.79,412.66,171.57,412.64,171.34,412.61z M266.54,405.53c-0.62-2.69,1.06-5.37,3.74-6     l0,0c2.69-0.62,5.38,1.05,6.01,3.74l0,0c0.62,2.69-1.05,5.38-3.74,6l0,0l0,0l0,0c-0.38,0.09-0.76,0.13-1.14,0.13l0,0     C269.14,409.4,267.08,407.84,266.54,405.53z M285.91,400.54c-0.9-2.61,0.49-5.46,3.1-6.36l0,0c2.61-0.9,5.45,0.48,6.36,3.09l0,0     c0.9,2.61-0.49,5.46-3.1,6.36l0,0c-0.54,0.19-1.09,0.28-1.63,0.28l0,0C288.57,403.91,286.63,402.61,285.91,400.54z      M304.71,393.56c-1.42-2.37-0.64-5.44,1.73-6.85l0,0c2.37-1.42,5.44-0.64,6.86,1.73l0,0c1.41,2.37,0.63,5.44-1.74,6.86l0,0     c-0.8,0.47-1.68,0.7-2.55,0.7l0,0C307.3,396,305.64,395.13,304.71,393.56z" fill="#384169"/></g></g><g><g><g><g><path d="M442.994,125c-2.478,0-4.629-1.841-4.953-4.364c-0.065-0.502-5.923-43.073-33.507-45.659       c-2.509-0.235-4.451-2.301-4.531-4.82s1.729-4.704,4.218-5.097C405.58,64.835,438,58.958,438,17c0-2.761,2.239-5,5-5       s5,2.239,5,5c0,26.302-11.384,40.661-20.934,48.075c-2.354,1.828-4.711,3.33-6.955,4.562       c8.326,4.758,15.26,12.998,20.442,24.423c5.745,12.665,7.341,24.797,7.407,25.307c0.35,2.739-1.587,5.243-4.327,5.593       C443.418,124.987,443.205,125,442.994,125z" fill="#3F456B"/></g></g><g><g><path d="M443.006,125c-0.211,0-0.424-0.013-0.64-0.041c-2.739-0.35-4.676-2.854-4.327-5.593       c0.065-0.51,1.662-12.642,7.407-25.307c5.182-11.425,12.116-19.666,20.442-24.423c-2.244-1.231-4.601-2.733-6.955-4.562       C449.384,57.661,438,43.302,438,17c0-2.761,2.239-5,5-5s5,2.239,5,5c0,17.867,5.742,31.384,17.066,40.175       c8.253,6.407,16.632,7.873,16.714,7.886c2.489,0.393,4.297,2.578,4.218,5.097s-2.021,4.585-4.531,4.82       c-27.694,2.596-33.452,45.225-33.507,45.655C447.638,123.157,445.485,125,443.006,125z" fill="#3F456B"/></g></g></g></g><g><g><path d="M73.916,122.205c-0.389,0-0.783-0.045-1.177-0.141c-2.685-0.648-4.335-3.35-3.687-6.034     c4.725-19.57,20.418-33.917,45.383-41.493c18.217-5.528,34.85-5.547,35.581-5.538c2.761,0.009,4.993,2.254,4.984,5.016     c-0.009,2.756-2.246,4.984-5,4.984c-0.006,0-0.011,0-0.017,0c-0.807,0-61.801,0.404-71.211,39.377     C78.22,120.667,76.172,122.205,73.916,122.205z" fill="#3F456B"/></g></g><g><g><path d="M179.702,75.016c-1.577,3.209-5.453,4.535-8.664,2.959c-3.208-1.576-4.533-5.456-2.957-8.664     c1.575-3.209,5.454-4.532,8.662-2.957C179.953,67.929,181.276,71.807,179.702,75.016z" fill="#3F456B"/></g></g></g><g id="Lines"><g><g><path d="M384.584,123.683c-1.491,3.25-5.331,4.678-8.582,3.188c-3.249-1.49-4.676-5.334-3.186-8.582     c1.489-3.25,5.332-4.676,8.58-3.187C384.647,116.592,386.073,120.434,384.584,123.683z" fill="#3F456B"/></g></g><g><g><path d="M245.737,262.585c-0.59,0-1.191-0.105-1.776-0.328c-2.581-0.981-3.878-3.87-2.897-6.451l4.613-12.133     c0.981-2.582,3.867-3.878,6.451-2.897c2.581,0.981,3.878,3.87,2.897,6.451l-4.613,12.133     C249.652,261.356,247.753,262.585,245.737,262.585z" fill="#3F456B"/></g></g><g><g><path d="M269.326,200.536c-0.594,0-1.199-0.107-1.787-0.332c-2.579-0.987-3.869-3.878-2.882-6.457l47.673-124.535     c0.988-2.579,3.879-3.87,6.457-2.882c2.579,0.987,3.869,3.878,2.882,6.457l-47.673,124.535     C273.234,199.313,271.337,200.536,269.326,200.536z" fill="#3F456B"/></g></g><g><g><path d="M53.971,94.93c-0.63,0-1.27-0.12-1.887-0.372c-2.409-0.982-3.662-3.648-2.881-6.13     c9.291-29.522,30.307-50.935,62.463-63.641c25.173-9.946,57.225-14.541,95.236-13.684     c64.222,1.465,124.473,18.304,125.074,18.474c1.339,0.379,2.46,1.299,3.093,2.539c0.633,1.24,0.72,2.688,0.241,3.995     l-13.928,37.97c-0.917,2.499-3.628,3.843-6.171,3.055C102.332,11.33,58.846,91.376,58.431,92.192     C57.555,93.918,55.802,94.93,53.971,94.93z M169.275,41.187c4.588,0,9.264,0.104,14.037,0.313     c37.862,1.661,81.683,9.965,130.313,24.691l10.406-28.369c-15.836-4.027-65.381-15.559-117.524-16.726     c-36.638-0.822-67.338,3.56-91.236,13.018c-18.29,7.239-32.588,17.518-42.765,30.706c7.378-4.878,16.876-9.778,28.967-13.845     C120.817,44.468,143.578,41.187,169.275,41.187z" fill="#3F456B"/></g></g><g><g><path d="M243.179,250.49c-40.756,0-96.095-5.324-139.592-29.158c-27.458-15.045-60.496-42.797-61.958-89.568     c-0.87-27.853,9.959-48.991,10.42-49.877c1.258-2.415,4.214-3.379,6.656-2.171c2.439,1.209,3.463,4.148,2.302,6.611     c-0.128,0.276-13.096,28.673-0.348,55.157c9.568,19.879,31.048,33.971,63.841,41.885c31.819,7.678,64.822,10.421,95.717,10.421     c60.64,0.001,113.189-10.561,132.935-15.098c29.344-6.741,28.632-11.831,27.73-18.273c-0.296-2.117,0.786-4.188,2.694-5.154     c1.907-0.966,4.217-0.612,5.748,0.881c16.329,15.919,23.482,30.588,21.262,43.6c-2.25,13.188-13.374,19.714-16.031,21.099     c-17.937,13.419-69.132,25.479-122.208,28.748C264.019,250.105,254.122,250.489,243.179,250.49z M54.446,151.022     c6.625,24.872,24.698,45.515,53.945,61.541c52.971,29.024,125.076,29.405,163.34,27.049     c57.951-3.568,103.592-16.568,117.114-26.987c0.293-0.226,0.61-0.418,0.946-0.575c0.069-0.033,9.387-4.587,10.952-14.079     c1.249-7.573-2.614-16.801-11.23-27.008c-4.012,8.814-15.635,13.229-34.123,17.476c-30.344,6.973-136.842,27.913-233.237,4.651     C89.105,185.114,66.363,170.975,54.446,151.022z" fill="#3F456B"/></g></g><g><g><path d="M88.653,180.533c-1.321,0-2.639-0.519-3.621-1.55c-1.902-1.998-1.831-5.154,0.163-7.06     c0.537-0.514,13.47-12.722,40.187-24.93c24.408-11.154,65.58-24.45,123.108-24.45c126.74,0,151.196,44.158,152.175,46.038     c1.275,2.449,0.324,5.469-2.125,6.744c-2.436,1.268-5.432,0.335-6.72-2.08c-0.15-0.266-5.939-10.262-26.023-20.19     c-18.929-9.357-54.646-20.511-117.306-20.511c-55.437,0-95.008,12.678-118.442,23.313c-25.376,11.517-37.828,23.186-37.95,23.302     C91.131,180.077,89.891,180.533,88.653,180.533z" fill="#3F456B"/></g></g><g><g><path d="M138.867,196.583c-1.953,0-3.808-1.151-4.612-3.065c-1.069-2.546,0.127-5.477,2.673-6.546     c60.449-25.393,113.807-25.575,147.924-21.257c37.103,4.695,59.664,15.336,60.606,15.787c2.491,1.191,3.545,4.177,2.354,6.668     c-1.192,2.491-4.175,3.543-6.664,2.355l0,0c-0.219-0.104-22.354-10.495-57.982-14.943c-32.808-4.096-84.142-3.846-142.364,20.61     C140.168,196.457,139.512,196.583,138.867,196.583z" fill="#3F456B"/></g></g><g><g><path d="M19.293,341.688c-2.371,0-4.429-1.668-4.9-4.01c-9.271-46.062,5.819-84.375,20.111-108.404     c15.419-25.925,32.835-40.878,33.569-41.502c2.104-1.789,5.259-1.533,7.048,0.571c1.788,2.103,1.533,5.256-0.568,7.045     c-0.171,0.146-17.067,14.699-31.627,39.288c-14.403,24.323-21.575,49.376-21.446,74.774c1.934-5.214,4.368-10.996,7.423-17.156     c11.171-22.526,33.164-54.625,74.499-79.625c2.362-1.43,5.437-0.673,6.866,1.691c1.429,2.363,0.672,5.437-1.691,6.866     c-39.098,23.646-59.927,53.899-70.517,75.114c-11.513,23.064-13.78,40.776-13.801,40.952c-0.298,2.436-2.319,4.298-4.771,4.393     C19.422,341.687,19.357,341.688,19.293,341.688z" fill="#3F456B"/></g></g><g><g><path d="M231.017,499.397c-18.219,0-29.767-0.748-30-0.764c-0.062-0.004-0.125-0.01-0.187-0.016     c-38.041-3.996-71.113-12.963-98.299-26.654c-21.936-11.047-40.116-25.175-54.036-41.994     c-23.903-28.878-26.915-55.485-27.031-56.604c-0.255-2.454,1.316-4.727,3.703-5.354c2.384-0.627,4.873,0.58,5.856,2.842     c0.082,0.185,9.076,20.041,36.608,39.642c46.274,32.944,108.376,39.859,152.325,39.859c119.536,0,200.731-20.293,234.808-58.686     c14.214-16.014,20.074-35.405,17.417-57.635c-0.315-2.642,1.492-5.067,4.114-5.521c2.623-0.449,5.139,1.227,5.727,3.821     c8.954,39.467,2.094,72.81-20.389,99.104c-28.575,33.419-81.239,54.875-156.529,63.77     C276.636,498.572,250.148,499.397,231.017,499.397z M201.774,488.661c2.324,0.147,48.754,2.942,102.319-3.403     c49.935-5.916,116.483-21.184,149.945-60.326c11.1-12.984,17.965-27.952,20.569-44.769c-3.194,6.403-7.318,12.458-12.366,18.145     c-45.519,51.283-156.881,62.047-242.287,62.047c-45.685,0-110.319-7.32-158.798-42.195c-7.949-5.718-14.441-11.439-19.692-16.764     c3.751,7.209,8.712,14.999,15.159,22.709C86.181,459.454,136.369,481.775,201.774,488.661z" fill="#3F456B"/></g></g><g><g><path d="M29.679,387.31c-2.021,0-3.923-1.234-4.679-3.236c-10.537-27.927-12.236-55.679-12.304-56.847     c-0.159-2.756,1.946-5.118,4.703-5.278c2.755-0.167,5.12,1.946,5.281,4.702c0.016,0.271,1.698,27.445,11.677,53.893     c0.975,2.584-0.33,5.468-2.913,6.443C30.862,387.206,30.265,387.31,29.679,387.31z" fill="#3F456B"/></g></g><g><g><path d="M141,396c-0.125,0-0.251-0.005-0.377-0.014c-1.446-0.11-2.773-0.841-3.638-2.005l-30.011-40.431     c-0.795-1.07-1.129-2.414-0.929-3.731c0.201-1.318,0.919-2.501,1.996-3.287c51.728-37.756,103.159-64.228,152.865-78.681     c57.473-16.712,110.914-16.649,158.837,0.189c31.943,11.223,47.767,31.171,55.416,45.93c8.338,16.088,9.03,29.521,9.056,30.084     c0.124,2.746-1.994,5.077-4.739,5.218c-2.744,0.13-5.065-1.94-5.246-4.663c-0.044-0.553-1.108-11.764-14.67-23.23     c-13.012-11.002-40.264-24.116-96.2-24.116c-62.215,0-118.316,26.372-154.424,48.496c-39.336,24.102-64.169,48.548-64.416,48.792     C143.582,395.481,142.314,396,141,396z M118.02,351.651l23.638,31.847c8.726-8.017,30.6-26.967,61.829-46.128     c37.255-22.858,95.233-50.107,159.874-50.107c51.057,0,80.55,10.495,97.585,22.464c-10.166-14.603-25.099-25.431-44.517-32.253     c-45.916-16.132-97.302-16.14-152.73-0.021C216.413,291.201,167.424,316.155,118.02,351.651z" fill="#3F456B"/></g></g><g><g><path d="M433.37,224.635c-0.632,0-1.275-0.121-1.897-0.376c-2.555-1.049-3.775-3.97-2.727-6.524     c8.057-19.625,5.287-39.164-8.23-58.075c-10.411-14.565-24.144-23.952-26.831-25.114c-2.556-0.872-3.966-3.627-3.157-6.22     c0.823-2.636,3.627-4.104,6.262-3.285c3.962,1.236,27.827,16.799,39.778,42.22c8.398,17.864,8.879,36.124,1.429,54.272     C437.204,223.466,435.337,224.635,433.37,224.635z M393.733,134.562c0.029,0.01,0.055,0.018,0.079,0.025     C393.786,134.58,393.759,134.571,393.733,134.562z" fill="#3F456B"/></g></g><g><g><path d="M397.546,501.447c-2.254,0-4.3-1.534-4.855-3.821c-0.651-2.684,0.996-5.387,3.679-6.039     c56.116-13.622,80.031-53.094,80.266-53.491c1.407-2.377,4.473-3.163,6.849-1.756c2.376,1.406,3.163,4.473,1.756,6.849     c-1.047,1.77-26.341,43.509-86.512,58.116C398.333,501.401,397.937,501.447,397.546,501.447z" fill="#3F456B"/></g></g></g></svg>