<?xml version="1.0" ?><svg viewBox="0 0 512 512" xmlns="http://www.w3.org/2000/svg"><defs><style>.cls-1{fill:#3f456b;}</style></defs><title/><g id="Lines"><path class="cls-1" d="M489.14,247H445a5,5,0,0,1,0-10h44.14a5.06,5.06,0,0,0,4.86-4.84v-23c0-2-1.82-4.17-4.86-4.17H456a5,5,0,0,1,0-10h33.14c8.33,0,14.86,6.22,14.86,14.17v23C504,241,496.31,247,489.14,247Z"/><path class="cls-1" d="M385.91,82.38a5,5,0,0,1-4.58-7l8.4-19c.06-.13.12-.26.19-.39s2.66-5.1-.27-7l-18.59-12c-3-2-6.65,2.41-6.81,2.6a3.47,3.47,0,0,1-.25.29L349.69,55a5,5,0,0,1-7.27-6.87l14.17-15c3.32-4.05,11.52-10,19.9-4.57l18.58,12c8.45,5.46,6.19,15.34,3.74,20l-8.32,18.87A5,5,0,0,1,385.91,82.38Z"/><path class="cls-1" d="M445.25,451.5a5,5,0,0,1-.85-9.93l19.76-3.45a3.62,3.62,0,0,1,.46-.06c.21,0,5.88-.6,5.89-4.06l.06-21.92c0-3.47-5.65-4.08-5.9-4.1l-.42-.06-19.67-3.57a5,5,0,1,1,1.79-9.84L465.82,398c5.26.54,14.78,4.12,14.75,14.07L480.51,434c0,10-9.57,13.47-14.83,14l-19.56,3.41A5.12,5.12,0,0,1,445.25,451.5Z"/><path class="cls-1" d="M392.69,500H119.42C63.74,500,62,445.44,62,444.89V207a5,5,0,0,1,10,0V444.73c.07,2.42,2,45.27,47.42,45.27H392.69c19.33,0,33.13-7.55,41-22.45A56.85,56.85,0,0,0,440,444.7V207a5,5,0,0,1,10,0V444.79C450,445.43,448.37,500,392.69,500Z"/><path class="cls-1" d="M443.21,212H69.8c-6.21,0-11.07-1.85-14.44-5.5A17.59,17.59,0,0,1,51,194.16v-44a5,5,0,0,1,1.07-3.09c.92-1.17,22.91-29,51.79-49.19a5,5,0,0,1,2.87-.9H406.29a4.94,4.94,0,0,1,2.69.79c30.1,19.29,51.19,48.24,52.07,49.46a5,5,0,0,1,.95,2.93v44a17.61,17.61,0,0,1-4.35,12.34C454.28,210.15,449.43,212,443.21,212ZM61,194.71a7.73,7.73,0,0,0,1.78,5.06c1.4,1.48,3.77,2.23,7,2.23H443.21c3.27,0,5.64-.75,7-2.23a7.68,7.68,0,0,0,1.76-5.12c0-.13,0-.21,0-.34V151.85c-4.3-5.63-22.78-28.83-47.19-44.85H108.31C84.7,123.84,65.62,146.31,61,152v42.36c0,.13,0,.27,0,.4Zm-5-.4h0Z"/><path class="cls-1" d="M67,247H23.85C16.68,247,9,241,9,232.16v-23C9,201.22,15.52,195,23.85,195H56a5,5,0,0,1,0,10H23.85c-3,0-4.85,2.12-4.85,4.17v23A5,5,0,0,0,23.85,237H67a5,5,0,0,1,0,10Z"/><path class="cls-1" d="M106.72,107a5,5,0,0,1-4.49-7.19c.35-.72,8.88-17.87,32.3-34.95C155.83,49.27,194.19,30.75,256,30.75s100.42,18.51,122,34C401.61,81.86,410.39,99,410.75,99.7a5,5,0,1,1-8.93,4.49c-.08-.14-8.33-16-30.27-31.67C351.25,58,314.72,40.75,256,40.75c-112.59,0-144.46,62.75-144.77,63.39A5,5,0,0,1,106.72,107Z"/><path class="cls-1" d="M331,106a5,5,0,0,1-5-5V88.3c-8.25-3.36-34-12.54-69.67-12.54s-61.1,8.76-69.33,12V101a5,5,0,0,1-10,0V84.47a5,5,0,0,1,2.87-4.53c1.23-.57,30.62-14.18,76.46-14.18s75.61,14.15,76.85,14.76A5,5,0,0,1,336,85v16A5,5,0,0,1,331,106Z"/><path class="cls-1" d="M445,437H72a5,5,0,0,1,0-10H445a5,5,0,0,1,0,10Z"/><path class="cls-1" d="M369.25,400.93H145.78c-15.64,0-28.37-12.4-28.37-27.64V268.59c0-15.24,12.73-27.64,28.37-27.64H369.25c15.63,0,28.34,12.4,28.34,27.64v104.7C397.59,388.53,384.88,400.93,369.25,400.93ZM145.78,251c-10,0-18.37,8.08-18.37,17.64v104.7c0,9.56,8.41,17.64,18.37,17.64H369.25c9.94,0,18.34-8.08,18.34-17.64V268.59c0-9.56-8.4-17.64-18.34-17.64Z"/><path class="cls-1" d="M351.67,346H164.48c-9.08,0-16.19-8.16-16.19-18.58V287.1c0-10.42,7.11-18.58,16.19-18.58H351.67c9.05,0,16.14,8.16,16.14,18.58v40.32C367.81,337.84,360.72,346,351.67,346ZM164.48,278.52c-3.41,0-6.19,3.85-6.19,8.58v40.32c0,4.73,2.78,8.58,6.19,8.58H351.67c3.39,0,6.14-3.85,6.14-8.58V287.1c0-4.73-2.75-8.58-6.14-8.58Z"/><path class="cls-1" d="M456,490.77a112,112,0,0,1-28.33-4,5,5,0,1,1,2.54-9.67c22.89,6,42.52,4.47,53.87-4.27,6.78-5.22,10.22-12.62,10.22-22,0-7.78-2-13.7-5.95-17.59C483,428,475.7,428,475.6,428a5,5,0,0,1-.13-10c.48,0,11.54-.06,19.9,8.19,5.93,5.84,8.93,14.16,8.93,24.71,0,12.44-4.88,22.78-14.12,29.89C481.56,487.41,469.85,490.77,456,490.77Z"/><path class="cls-1" d="M14.25,484.09a5.21,5.21,0,0,1-1-.1,5,5,0,0,1-3.86-5.93c3.2-15.24,10.21-26.33,20.82-33,16.61-10.39,35.79-5.77,36.6-5.57a5,5,0,0,1-2.41,9.71c-.28-.07-16.06-3.74-28.95,4.39-8.19,5.15-13.66,14.07-16.28,26.51A5,5,0,0,1,14.25,484.09Z"/><path class="cls-1" d="M228.28,370.33a5,5,0,0,1-5-5v-1.1a5,5,0,0,1,10,0v1.1A5,5,0,0,1,228.28,370.33Z"/><path class="cls-1" d="M257,370.33a5,5,0,0,1-5-5v-1.1a5,5,0,0,1,10,0v1.1A5,5,0,0,1,257,370.33Z"/><path class="cls-1" d="M285.62,370.33a5,5,0,0,1-5-5v-1.1a5,5,0,0,1,10,0v1.1A5,5,0,0,1,285.62,370.33Z"/></g><g id="Outline"><path class="cls-1" d="M327.63,331h-9.5a12.43,12.43,0,0,1-12.42-12.41V296.92a12.43,12.43,0,0,1,12.42-12.41h9.5A12.43,12.43,0,0,1,340,296.92v21.67A12.43,12.43,0,0,1,327.63,331Zm-9.5-36.49a2.42,2.42,0,0,0-2.42,2.41v21.67a2.42,2.42,0,0,0,2.42,2.41h9.5a2.41,2.41,0,0,0,2.41-2.41V296.92a2.41,2.41,0,0,0-2.41-2.41Z"/><path class="cls-1" d="M283.54,331H274a12.43,12.43,0,0,1-12.41-12.41V296.92A12.43,12.43,0,0,1,274,284.51h9.51A12.43,12.43,0,0,1,296,296.92v21.67A12.43,12.43,0,0,1,283.54,331ZM274,294.51a2.41,2.41,0,0,0-2.41,2.41v21.67A2.41,2.41,0,0,0,274,321h9.51a2.41,2.41,0,0,0,2.41-2.41V296.92a2.41,2.41,0,0,0-2.41-2.41Z"/><path class="cls-1" d="M239.45,331h-9.51a12.43,12.43,0,0,1-12.41-12.41V296.92a12.43,12.43,0,0,1,12.41-12.41h9.51a12.43,12.43,0,0,1,12.41,12.41v21.67A12.43,12.43,0,0,1,239.45,331Zm-9.51-36.49a2.41,2.41,0,0,0-2.41,2.41v21.67a2.41,2.41,0,0,0,2.41,2.41h9.51a2.41,2.41,0,0,0,2.41-2.41V296.92a2.41,2.41,0,0,0-2.41-2.41Z"/><path class="cls-1" d="M196.87,331h-9.5A12.43,12.43,0,0,1,175,318.59V296.92a12.43,12.43,0,0,1,12.41-12.41h9.5a12.43,12.43,0,0,1,12.42,12.41v21.67A12.43,12.43,0,0,1,196.87,331Zm-9.5-36.49a2.41,2.41,0,0,0-2.41,2.41v21.67a2.41,2.41,0,0,0,2.41,2.41h9.5a2.42,2.42,0,0,0,2.42-2.41V296.92a2.42,2.42,0,0,0-2.42-2.41Z"/><path class="cls-1" d="M454,156H59a5,5,0,0,1,0-10H454a5,5,0,0,1,0,10Z"/></g></svg>