<?xml version="1.0" ?><svg viewBox="0 0 512 512" xmlns="http://www.w3.org/2000/svg"><defs><style>.cls-1{fill:#3f456b;}.cls-2{opacity:0.5;}</style></defs><title/><g id="Lines"><path class="cls-1" d="M481.86,329.62c-5.43,0-14.75-2.34-17.67-11.27a5,5,0,0,1,9.5-3.11c1.46,4.44,8.32,4.38,8.39,4.38h.14c3.32,0,5.74-.8,7.21-2.36a8.74,8.74,0,0,0,2-5.59c0-.11,0-.22,0-.33V187.12c0-11.76-4.87-23.2-14.47-34a78.31,78.31,0,0,0-15-13.11,5,5,0,0,1,5.27-8.5c1.39.87,34.23,21.57,34.23,55.59v124.1a18.46,18.46,0,0,1-4.65,12.87c-3.42,3.65-8.28,5.51-14.44,5.53Z"/><path class="cls-1" d="M339.71,328.73c-6.19,0-11.08-1.86-14.51-5.53a18.5,18.5,0,0,1-4.65-12.87V187.12c0-34,32.84-54.72,34.24-55.59a5,5,0,0,1,5.26,8.5h0a78.65,78.65,0,0,0-15,13.11c-9.6,10.78-14.47,22.22-14.47,34V310.46c0,.11,0,.22,0,.33h0a8.65,8.65,0,0,0,2,5.63c1.47,1.53,3.88,2.31,7.16,2.31,7.42,0,9.77-2,10.07-2.79a5,5,0,0,1,10,.42C359.76,316.86,359.53,328.73,339.71,328.73Zm10.05-12.38h0Zm0,0h0Zm0-.45Z"/><path class="cls-1" d="M468.06,482.49a5,5,0,0,1-5-5V188.17a5,5,0,0,1,10,0V477.49A5,5,0,0,1,468.06,482.49Z"/><path class="cls-1" d="M354.76,482.49a5,5,0,0,1-5-5V188.17a5,5,0,1,1,10,0V477.49A5,5,0,0,1,354.76,482.49Z"/><path class="cls-1" d="M410.52,292.33a5,5,0,0,1-5-5V165.09a5,5,0,0,1,10,0V287.33A5,5,0,0,1,410.52,292.33Z"/><path class="cls-1" d="M410.52,488.61a5,5,0,0,1-5-5V347.91a5,5,0,0,1,10,0v135.7A5,5,0,0,1,410.52,488.61Z"/><path class="cls-1" d="M354.76,300.85H325.54a5,5,0,0,1,0-10h29.22a5,5,0,0,1,0,10Z"/><path class="cls-1" d="M496.38,300.85H468.93a5,5,0,1,1,0-10h27.45a5,5,0,0,1,0,10Z"/><path class="cls-1" d="M410.53,170.09a67.92,67.92,0,0,1-67.8-67.87V82.7l-.05-1.62a1.09,1.09,0,0,1,0-.18,67.65,67.65,0,0,1,4.57-24.53A5,5,0,0,1,356.56,60a57.73,57.73,0,0,0-3.89,20.84l.06,1.62v19.78a57.82,57.82,0,1,0,115.63,0L468.3,81a57.73,57.73,0,0,0-4-21.32,5,5,0,1,1,9.3-3.67A67.51,67.51,0,0,1,478.3,80.9l0,1.87,0,19.44A67.93,67.93,0,0,1,410.53,170.09Z"/><path class="cls-1" d="M474.25,111.58a5,5,0,0,1,0-10c1.91,0,8.28-.82,8.28-9.16,0-8.73-6.78-9.17-8.14-9.17a5,5,0,0,1,0-10c7.29,0,18.14,5.11,18.14,19.17S481.6,111.58,474.25,111.58Z"/><path class="cls-1" d="M345.91,111.58c-7,0-17.39-5.11-17.39-19.16s10.32-19.17,17.26-19.17a5,5,0,0,1,.05,10c-2.21.07-7.31,1.09-7.31,9.17s5.21,9.1,7.45,9.16a5,5,0,0,1,5,5A5,5,0,0,1,345.91,111.58Z"/><path class="cls-1" d="M382.2,99.75h-.89a5,5,0,0,1,0-10h.89a5,5,0,0,1,0,10Z"/><path class="cls-1" d="M438.85,99.75H438a5,5,0,0,1,0-10h.89a5,5,0,0,1,0,10Z"/><path class="cls-1" d="M410.52,499.59H351a5,5,0,0,1-5-4.54c0-.58-1.23-14.35,8-24.51,6.2-6.8,15.34-10.25,27.17-10.25s20.91,3.45,26.93,10.27c9,10.22,7.41,24.06,7.33,24.65A5,5,0,0,1,410.52,499.59Zm-54.34-10h49.35c-.32-3.53-1.43-8.54-4.93-12.47-4-4.53-10.56-6.83-19.38-6.83s-15.49,2.33-19.71,6.92A22.3,22.3,0,0,0,356.18,489.59Z"/><path class="cls-1" d="M470,499.59H410.52a5,5,0,0,1-5-4.54c-.05-.58-1.22-14.35,8-24.51,6.19-6.8,15.33-10.25,27.17-10.25s20.9,3.45,26.92,10.27c9,10.22,7.41,24.06,7.34,24.65A5,5,0,0,1,470,499.59Zm-54.35-10H465c-.31-3.53-1.43-8.54-4.93-12.47-4-4.53-10.56-6.83-19.37-6.83s-15.56,2.35-19.78,7A22.55,22.55,0,0,0,415.69,489.59Z"/><path class="cls-1" d="M410.48,73.26a5,5,0,0,1-4.08-2.11,22.39,22.39,0,0,0-5.78-1.5l-.31-.05c-7.67-1.5-12.74-4.77-15.07-9.71-1.55-3.3-2.51-8.88,1.77-16.77,2.33-4.29.71-6.41-.16-7.16a4.76,4.76,0,0,1-2.12-4.09,5,5,0,0,1,2.4-4.11l8.05-5.22a4.64,4.64,0,0,1,3.54-1,4.14,4.14,0,0,1,2.82,1.72,5.74,5.74,0,0,0,2.91.61,7,7,0,0,0,2.68-.39,5,5,0,0,1,6.7,0,6.91,6.91,0,0,0,2.68.39,5.74,5.74,0,0,0,2.91-.61,4.12,4.12,0,0,1,2.82-1.72,4.64,4.64,0,0,1,3.54,1l8.05,5.22a5,5,0,0,1,2.4,4.11A4.76,4.76,0,0,1,434.11,36c-.87.75-2.49,2.87-.16,7.16,4.28,7.89,3.32,13.47,1.77,16.77-2.33,4.94-7.4,8.21-15.07,9.71l-.31.05a22.69,22.69,0,0,0-5.78,1.5A5,5,0,0,1,410.48,73.26Zm-8.39-13.5A27.87,27.87,0,0,1,410.48,62a27.87,27.87,0,0,1,8.39-2.25c4.17-.84,6.94-2.3,7.8-4.13s.27-4.46-1.51-7.74c-3.23-6-2.79-11-1.18-14.6l-1-.65a16.29,16.29,0,0,1-6.47,1.24,17.58,17.58,0,0,1-6-1,17.58,17.58,0,0,1-6,1A16.29,16.29,0,0,1,398,32.64l-1,.65c1.61,3.63,2,8.65-1.18,14.6-1.78,3.28-2.32,6-1.51,7.74S397.92,58.92,402.09,59.76ZM414.34,24h0Zm-7.72,0h0Zm7.72,0h0Zm-7.72,0h0Zm7.71,0Zm-7.7,0h0Zm7.11-.57Zm-6.52,0Zm-5.58,0Zm17.68,0Z"/><path class="cls-1" d="M411.9,88.71c-29.39,0-49.19-5.47-58.87-16.26-6.37-7.11-5.84-13.93-5.75-14.68l9.94,1.09v-.14c0,.14-.13,3.52,3.61,7.45,5.45,5.72,18.72,12.54,51.06,12.54,14.61,0,40.52-1.67,49.9-12.87a13.55,13.55,0,0,0,2.09-3.34H432a5,5,0,0,1,0-10h37.62a5,5,0,0,1,4.92,4.13c.14.8,1.22,8.06-5.12,15.63C460.32,83.17,441,88.71,411.9,88.71Z"/><path class="cls-1" d="M388.55,62.5H349.76a5,5,0,0,1-2.54-.69c-5.81-3.43-9-6.66-11.9-11.92-5.14-9.45.18-21.11,13-28.37,17.54-10,39.07-15.23,62.25-15.23a5,5,0,1,1,0,10c-21.45,0-41.27,4.82-57.31,13.93-5.29,3-12.08,9.44-9.12,14.89a17.68,17.68,0,0,0,7.07,7.39h37.38a5,5,0,0,1,0,10Z"/><path class="cls-1" d="M471.29,62.5a5,5,0,0,1-1.18-9.85c3.25-.8,5.43-2.51,7.5-5.89a6.43,6.43,0,0,0,.84-5.25c-1-3.75-5.13-8.18-10.6-11.29C451.8,21.11,432,16.29,410.53,16.29a5,5,0,0,1,0-10c23.18,0,44.71,5.27,62.26,15.23,3.81,2.17,12.95,8.21,15.34,17.49a16.42,16.42,0,0,1-2,13c-3.46,5.65-7.8,8.94-13.65,10.38A4.92,4.92,0,0,1,471.29,62.5Z"/><path class="cls-1" d="M374,195.67a5,5,0,0,1-1.32-.18,5,5,0,0,1-3.28-2.88c-7.62-18-8.46-44.86-8.49-46a5,5,0,1,1,10-.28c0,.23.64,20.41,5.51,36.32l27.27-20.2a5,5,0,0,1,5.95,8L377,194.68A5,5,0,0,1,374,195.67Z"/><path class="cls-1" d="M447.93,195.67a5,5,0,0,1-3-1l-32.66-24.19a5,5,0,0,1,5.95-8l27.27,20.2c4.88-15.92,5.51-36.09,5.51-36.32a5,5,0,0,1,10,.28c0,1.14-.87,28-8.49,46a5,5,0,0,1-3.28,2.88A5,5,0,0,1,447.93,195.67Z"/><path class="cls-1" d="M436.58,292.33H354.76a5,5,0,0,1,0-10h81.82a5,5,0,0,1,0,10Z"/><path class="cls-1" d="M436.58,314.51H354.76a5,5,0,0,1,0-10h81.82a5,5,0,0,1,0,10Z"/><path class="cls-1" d="M354.76,272.25H325.68a5,5,0,0,1,0-10h29.08a5,5,0,0,1,0,10Z"/><path class="cls-1" d="M495.62,272.25H468.83a5,5,0,1,1,0-10h26.79a5,5,0,0,1,0,10Z"/><path class="cls-1" d="M466.78,332.67H447.21a15,15,0,0,1-15-15V281.45a15,15,0,0,1,15-15h20.62a5,5,0,0,1,0,10H447.21a5,5,0,0,0-5,5v36.22a5,5,0,0,0,5,5h19.57a5,5,0,0,1,0,10Z"/><path class="cls-1" d="M396.88,226.71h-29a5,5,0,0,1-5-5V204a5,5,0,0,1,5-5h29a5,5,0,0,1,5,5v17.71A5,5,0,0,1,396.88,226.71Zm-24-10h19V209h-19Z"/><path class="cls-1" d="M454.31,254.75h-29a5,5,0,0,1-5-5V204a5,5,0,0,1,5-5h29a5,5,0,0,1,5,5v45.75A5,5,0,0,1,454.31,254.75Zm-24-10h19V209h-19Z"/><path class="cls-1" d="M467.61,406.41H451.36a5,5,0,0,1-5-5V355.66a5,5,0,0,1,5-5h16.25a5,5,0,0,1,0,10H456.36v35.75h11.25a5,5,0,0,1,0,10Z"/><path class="cls-1" d="M67.3,295.92a5,5,0,0,1-2.87-.9L48.15,283.59a5,5,0,0,1,5.74-8.19l16.29,11.43a5,5,0,0,1-2.88,9.09Z"/><g class="cls-2"><path class="cls-1" d="M196.82,88.22a5,5,0,0,1-4.42-2.65L185.86,73.3a5,5,0,0,1,8.83-4.7l6.54,12.27a5,5,0,0,1-2.06,6.77A5.1,5.1,0,0,1,196.82,88.22Z"/><path class="cls-1" d="M135.89,133.89a5.09,5.09,0,0,1-1.53-.24l-16-5.14a5,5,0,1,1,3.07-9.52l16,5.14a5,5,0,0,1-1.53,9.76Z"/><path class="cls-1" d="M281.63,87.84a4.87,4.87,0,0,1-2.4-.63,5,5,0,0,1-2-6.79L284,68.21A5,5,0,1,1,292.74,73L286,85.25A5,5,0,0,1,281.63,87.84Z"/></g><g class="cls-2"><path class="cls-1" d="M162.21,105.57a5,5,0,0,1-3.05-1L147,95.12a5,5,0,0,1,6.11-7.92l12.19,9.42a5,5,0,0,1-3.06,8.95Z"/><path class="cls-1" d="M238.53,81.22h0a5,5,0,0,1-5-5L233.61,63a5,5,0,0,1,5-5h0a5,5,0,0,1,5,5l-.08,13.25A5,5,0,0,1,238.53,81.22Z"/></g><path class="cls-1" d="M91.37,499.92H68.85c-13.11,0-23.77-10.91-23.77-24.32V445a5,5,0,0,1,10,0V475.6c0,7.9,6.18,14.32,13.77,14.32H91.37c7.59,0,13.76-6.42,13.76-14.32V445a5,5,0,0,1,10,0V475.6C115.13,489,104.47,499.92,91.37,499.92Z"/><path class="cls-1" d="M170.57,450H48.05c-6.88,0-12.48-2.25-16.66-6.69-7.64-8.11-7.36-20.75-7.29-22.49V362c-.07-2.46-.6-34.27,22.11-54.17l.23-.18c.2-.16,20.52-16.17,24.43-32.64l10.2-43.55a58.85,58.85,0,0,1,10.2-20.34c7.17-9.3,20.4-20.38,42.76-20.38H324.25a5,5,0,0,1,0,10H134c-34.79,0-42.9,31.68-43.23,33L80.6,277.25C76,296.64,54.74,313.79,52.7,315.39c-19.39,17.09-18.61,46-18.6,46.3V421c0,.1,0,.2,0,.3s-.47,9.88,4.61,15.23c2.24,2.37,5.3,3.52,9.35,3.52H170.57a5,5,0,0,1,0,10Z"/><path class="cls-1" d="M354.45,450H303a5,5,0,0,1,0-10h51.44a5,5,0,1,1,0,10Z"/><path class="cls-1" d="M354.45,393.21a5.15,5.15,0,0,1-1.22-.15c-10.92-2.73-18.55-12.18-18.55-23v-4.5c0-10.26,6.94-18.62,18.54-22.36a5,5,0,1,1,3.07,9.52c-3.49,1.12-11.61,4.63-11.61,12.84v4.5c0,6.2,4.52,11.66,11,13.28a5,5,0,0,1-1.21,9.85Z"/><path class="cls-1" d="M116.35,393.82H70.43c-13.66,0-24.78-10.65-24.78-23.74v-5.34c0-6.77,0-15.19,5.94-21.16,4.23-4.23,10.5-6.29,19.2-6.29a4,4,0,0,1,.49,0l45.57,4.54.34,0c14.54,2.48,23.94,11.77,23.94,23.68v4.5C141.13,383.17,130,393.82,116.35,393.82ZM70.54,347.29c-5.69,0-9.68,1.16-11.87,3.35-3,3.05-3,8.66-3,14.09v5.35c0,7.58,6.63,13.74,14.78,13.74h45.92c8.15,0,14.78-6.16,14.78-13.74v-4.5c0-8.17-8.29-12.52-15.46-13.79Z"/><path class="cls-1" d="M53.6,282.65H25.89a14,14,0,0,1-14-14V252.36a14,14,0,0,1,14-14H53.6a14,14,0,0,1,14,14v16.26A14,14,0,0,1,53.6,282.65ZM25.89,248.33a4,4,0,0,0-4,4v16.26a4,4,0,0,0,4,4H53.6a4,4,0,0,0,4-4V252.36a4,4,0,0,0-4-4Z"/><path class="cls-1" d="M85.94,237.55a4.88,4.88,0,0,1-1.5-.23,5,5,0,0,1-3.27-6.26,115.33,115.33,0,0,1,16.54-31.21c15.53-20.75,35.77-31.72,58.53-31.72H318.85a69.77,69.77,0,0,1,9.31.62,5,5,0,1,1-1.34,9.91,59.71,59.71,0,0,0-8-.53H156.24c-19.67,0-36.62,9.25-50.35,27.48a106.9,106.9,0,0,0-15.18,28.44A5,5,0,0,1,85.94,237.55Z"/><path class="cls-1" d="M354.45,423.43H49.84c-9.19,0-16.16-2.4-20.7-7.14a17.91,17.91,0,0,1-5-12.45l10,.44v-.09a8,8,0,0,0,2.39,5.3c2.56,2.58,7.18,3.94,13.35,3.94H354.45a5,5,0,0,1,0,10Z"/><path class="cls-1" d="M302.56,471.07h-131a5,5,0,0,1-5-5V418.34a5,5,0,0,1,5-5h131a5,5,0,0,1,5,5v47.73A5,5,0,0,1,302.56,471.07Zm-126-10h121V423.34h-121Z"/><path class="cls-1" d="M304.38,178.13H172.5a26.83,26.83,0,0,1,0-53.65H304.38a26.83,26.83,0,0,1,0,53.65ZM172.5,134.48a16.83,16.83,0,0,0,0,33.65H304.38a16.83,16.83,0,0,0,0-33.65Z"/><path class="cls-1" d="M318.92,422.78a5,5,0,0,1-5-4.4l-6.36-52.51a4,4,0,0,1,0-.6,13.55,13.55,0,0,0-13.64-13.43H183a13.55,13.55,0,0,0-13.65,13.43,4.36,4.36,0,0,1,0,.51l-5.45,52.51a5,5,0,0,1-10-1L159.32,365A23.57,23.57,0,0,1,183,341.84h111A23.56,23.56,0,0,1,317.56,365l6.33,52.23a5,5,0,0,1-4.36,5.56A4.17,4.17,0,0,1,318.92,422.78Z"/><path class="cls-1" d="M217.07,178.13a5,5,0,0,1-5-5V129.48a5,5,0,0,1,10,0v43.65A5,5,0,0,1,217.07,178.13Z"/><path class="cls-1" d="M259.81,178.13a5,5,0,0,1-5-5V129.48a5,5,0,0,1,10,0v43.65A5,5,0,0,1,259.81,178.13Z"/><path class="cls-1" d="M194.79,351.69a3.17,3.17,0,0,1-.43,0,5,5,0,0,1-4.56-5.4c3.16-37.16,7.42-66.55,7.47-66.84a5,5,0,1,1,9.89,1.44c0,.29-4.26,29.4-7.39,66.24A5,5,0,0,1,194.79,351.69Z"/><path class="cls-1" d="M282.24,351.69a5,5,0,0,1-5-4.58c-3.13-36.84-7.35-65.95-7.39-66.24a5,5,0,1,1,9.9-1.44c0,.29,4.3,29.68,7.46,66.84a5,5,0,0,1-4.56,5.4A3.1,3.1,0,0,1,282.24,351.69Z"/><path class="cls-1" d="M72.82,290.25a5,5,0,0,1-.42-10c1.19-.1,120-9.85,253.33-4.68a5,5,0,1,1-.38,10c-132.76-5.13-250.93,4.56-252.11,4.65A3,3,0,0,1,72.82,290.25Z"/></g><g id="Outline"><path class="cls-1" d="M273.5,442.1a5,5,0,0,1,5-5h0a5,5,0,0,1,5,5h0a5,5,0,0,1-5,5h0A5,5,0,0,1,273.5,442.1Zm-20,0a5,5,0,0,1,5-5h0a5,5,0,0,1,5,5h0a5,5,0,0,1-5,5h0A5,5,0,0,1,253.5,442.1Zm-20,0a5,5,0,0,1,5-5h0a5,5,0,0,1,5,5h0a5,5,0,0,1-5,5h0A5,5,0,0,1,233.5,442.1Zm-20,0a5,5,0,0,1,5-5h0a5,5,0,0,1,5,5h0a5,5,0,0,1-5,5h0A5,5,0,0,1,213.5,442.1Zm-20,0a5,5,0,0,1,5-5h0a5,5,0,0,1,5,5h0a5,5,0,0,1-5,5h0A5,5,0,0,1,193.5,442.1Z"/><path class="cls-1" d="M312.56,370.94H164.32a5,5,0,0,1,0-10H312.56a5,5,0,0,1,0,10Z"/><path class="cls-1" d="M312.56,388.67H164.32a5,5,0,0,1,0-10H312.56a5,5,0,0,1,0,10Z"/><path class="cls-1" d="M312.56,406.41H164.32a5,5,0,0,1,0-10H312.56a5,5,0,0,1,0,10Z"/><path class="cls-1" d="M196.82,88.22a5,5,0,0,1-4.42-2.65L185.86,73.3a5,5,0,0,1,8.83-4.7l6.54,12.27a5,5,0,0,1-2.06,6.77A5.1,5.1,0,0,1,196.82,88.22Z"/><path class="cls-1" d="M135.89,133.89a5.09,5.09,0,0,1-1.53-.24l-16-5.14a5,5,0,1,1,3.07-9.52l16,5.14a5,5,0,0,1-1.53,9.76Z"/><path class="cls-1" d="M281.63,87.84a4.87,4.87,0,0,1-2.4-.63,5,5,0,0,1-2-6.79L284,68.21A5,5,0,1,1,292.74,73L286,85.25A5,5,0,0,1,281.63,87.84Z"/><path class="cls-1" d="M162.21,105.57a5,5,0,0,1-3.05-1L147,95.12a5,5,0,0,1,6.11-7.92l12.19,9.42a5,5,0,0,1-3.06,8.95Z"/><path class="cls-1" d="M238.53,81.22h0a5,5,0,0,1-5-5L233.61,63a5,5,0,0,1,5-5h0a5,5,0,0,1,5,5l-.08,13.25A5,5,0,0,1,238.53,81.22Z"/><path class="cls-1" d="M50.8,465.23a5,5,0,1,1,0-10H66.58a5,5,0,0,1,0,10Z"/><path class="cls-1" d="M50.6,482.13a5,5,0,1,1,0-10H66.8a5,5,0,0,1,0,10Z"/><path class="cls-1" d="M93.55,465.23a5,5,0,0,1,0-10h15.79a5,5,0,1,1,0,10Z"/><path class="cls-1" d="M93.34,482.13a5,5,0,1,1,0-10h16.21a5,5,0,1,1,0,10H93.34Z"/><path class="cls-1" d="M454.31,228.38h-29a5,5,0,0,1,0-10h29a5,5,0,1,1,0,10Z"/></g></svg>