<?xml version="1.0" ?><svg viewBox="0 0 512 512" xmlns="http://www.w3.org/2000/svg"><defs><style>.cls-1{fill:#3f456b;}</style></defs><title/><g id="Lines"><path class="cls-1" d="M446.19,442.57A21.81,21.81,0,1,1,468,420.76,21.83,21.83,0,0,1,446.19,442.57Zm0-33.62A11.81,11.81,0,1,0,458,420.76,11.83,11.83,0,0,0,446.19,409Z"/><path class="cls-1" d="M390.62,137.87a43.62,43.62,0,1,1,43.61-43.62A43.67,43.67,0,0,1,390.62,137.87Zm0-77.23a33.62,33.62,0,1,0,33.61,33.61A33.65,33.65,0,0,0,390.62,60.64Z"/><path class="cls-1" d="M55.39,475.79a28.9,28.9,0,1,1,28.89-28.9A28.93,28.93,0,0,1,55.39,475.79Zm0-47.79a18.9,18.9,0,1,0,18.89,18.89A18.91,18.91,0,0,0,55.39,428Z"/><path class="cls-1" d="M360,500a5,5,0,0,1-5-5V274a5,5,0,0,1,10,0V495A5,5,0,0,1,360,500Z"/><path class="cls-1" d="M438,349H360a5,5,0,0,1,0-10h73V278H360a5,5,0,0,1,0-10h78a5,5,0,0,1,5,5v71A5,5,0,0,1,438,349Z"/><path class="cls-1" d="M498,373H421a5,5,0,0,1-5-5V347a5,5,0,0,1,10,0v16h67V302H440a5,5,0,0,1,0-10h58a5,5,0,0,1,5,5v71A5,5,0,0,1,498,373Z"/><path class="cls-1" d="M239.07,383.12a23.62,23.62,0,0,1-20.15-11.36,23.44,23.44,0,0,1-2.71-17.82h0a23.54,23.54,0,1,1,22.86,29.18Zm0-37.1a13.56,13.56,0,0,0-13.12,10.31h0a13.54,13.54,0,1,0,16.39-9.92A14,14,0,0,0,239,346Zm-18,9.12h0Z"/><path class="cls-1" d="M196.08,184.4c-24.82,0-43.34-4.37-56.62-13.36C123.22,160,115,142,115,117.48c0-20.41,8.32-35.69,24.74-45.39,13.49-8,32.45-12,56.36-12,67,0,81.11,31.21,81.11,57.4h0C277.19,142,269,160,252.7,171,239.43,180,220.91,184.4,196.08,184.4Zm0-114.32c-22.09,0-39.35,3.58-51.27,10.62C131.46,88.59,125,100.62,125,117.48c0,21.31,6.57,36.12,20.09,45.28,11.57,7.83,28.26,11.64,51,11.64s39.45-3.81,51-11.64c13.52-9.16,20.09-24,20.09-45.28,0-16.86-6.49-28.89-19.83-36.78C235.43,73.66,218.18,70.08,196.08,70.08Z"/><path class="cls-1" d="M196.09,214.39h0c-33.81,0-59.94-10.08-77.67-29.95-15.63-17.53-23.89-42.29-23.89-71.61A101.54,101.54,0,0,1,196.08,11.26h0A101.56,101.56,0,0,1,297.65,112.83c0,28.92-8.67,53.7-25.07,71.65C254.7,204.05,228.24,214.39,196.09,214.39Zm0-193.13a91.55,91.55,0,0,0-91.56,91.57c0,26.83,7.38,49.29,21.35,65,15.75,17.66,39.38,26.61,70.21,26.61,29.28,0,53.18-9.22,69.12-26.65,14.69-16.08,22.45-38.53,22.45-64.91a91.57,91.57,0,0,0-91.57-91.57Z"/><path class="cls-1" d="M325,214a5,5,0,0,1-5-5V114.6c0-11.18-8.32-19.6-19.35-19.6H291a5,5,0,0,1,0-10h9.65A29.16,29.16,0,0,1,330,114.6V209A5,5,0,0,1,325,214Z"/><path class="cls-1" d="M66,214a5,5,0,0,1-5-5V114.6C61,98.28,74.62,85,91.37,85H100a5,5,0,0,1,0,10H91.37C80.14,95,71,103.79,71,114.6V209A5,5,0,0,1,66,214Z"/><path class="cls-1" d="M78.43,375.21c-17.73,0-31.1-12.26-31.1-28.53l-.33-40v-40c0-38.88,16.33-66,30-81.86,14.84-17.21,29.62-25.19,30.25-25.52a5,5,0,0,1,4.7,8.82c-.14.08-14,7.61-27.64,23.54C66.2,212.77,57,238,57,266.61v40l.33,40c0,12.21,10.62,18.57,21.1,18.57,9.74,0,17.6-5.07,20-12.93a5,5,0,0,1,9.56,3C104.27,367.37,92.66,375.21,78.43,375.21Z"/><path class="cls-1" d="M313.6,373.14h0a34.3,34.3,0,0,1-22-7.57,26.88,26.88,0,0,1-9.87-21,5,5,0,0,1,10,0A16.81,16.81,0,0,0,298,357.88a24.25,24.25,0,0,0,15.57,5.26h0A22.17,22.17,0,0,0,328.42,358a17.35,17.35,0,0,0,5.76-13.38l-.18-38v-40c0-28.61-9.12-53.86-27.09-75-13.52-15.92-27.26-23.45-27.4-23.53a5,5,0,0,1,4.74-8.8c.62.33,15.28,8.31,30,25.53,13.58,15.88,29.76,43,29.76,81.84v40l.18,38a27.44,27.44,0,0,1-9.12,20.87A32.06,32.06,0,0,1,313.6,373.14Z"/><path class="cls-1" d="M287,501a5,5,0,0,1-5-5V227a5,5,0,0,1,10,0V496A5,5,0,0,1,287,501Z"/><path class="cls-1" d="M220,501a5,5,0,0,1-5-5V422.88c0-.11,0-.21,0-.32s.72-13.81-6.41-21.36c-3.18-3.37-7.45-5-13.06-5s-9.76,1.62-12.81,4.94c-6.87,7.49-5.76,21.16-5.75,21.3s0,.3,0,.45V496a5,5,0,0,1-10,0V423.08c-.17-2.32-1-18.45,8.32-28.66,5-5.46,11.78-8.23,20.22-8.23s15.28,2.76,20.38,8.19C225.58,404.67,225.1,421,225,423v73A5,5,0,0,1,220,501Z"/><path class="cls-1" d="M104,501a5,5,0,0,1-5-5V227a5,5,0,0,1,10,0V496A5,5,0,0,1,104,501Z"/><path class="cls-1" d="M477,501H26a5,5,0,0,1,0-10H477a5,5,0,0,1,0,10Z"/><path class="cls-1" d="M232.32,332H159.68A32.72,32.72,0,0,1,127,299.32V263.68A32.72,32.72,0,0,1,159.68,231h72.64A32.72,32.72,0,0,1,265,263.68v35.64A32.72,32.72,0,0,1,232.32,332Zm-72.64-91A22.71,22.71,0,0,0,137,263.68v35.64A22.71,22.71,0,0,0,159.68,322h72.64A22.71,22.71,0,0,0,255,299.32V263.68A22.71,22.71,0,0,0,232.32,241Z"/><path class="cls-1" d="M103,338H53a5,5,0,0,1,0-10h50a5,5,0,0,1,0,10Z"/><path class="cls-1" d="M339,338H287a5,5,0,0,1,0-10h52a5,5,0,0,1,0,10Z"/><path class="cls-1" d="M467.67,501a4.92,4.92,0,0,1-1-.1c-40.14-8.14-61.31-34-72-54.19a130.85,130.85,0,0,1-13-37.71H288a5,5,0,0,1,0-10h98a5,5,0,0,1,5,4.5,117.92,117.92,0,0,0,12.69,38.85c14.09,26.46,36,42.86,65,48.75a5,5,0,0,1-1,9.9Z"/><path class="cls-1" d="M171.91,499.51a5,5,0,0,1-1.72-9.7c38.23-13.94,44.78-67,44.84-67.51a5,5,0,0,1,9.94,1.15A125.46,125.46,0,0,1,216.14,455c-9.49,22.26-24.19,37.55-42.52,44.24A5.18,5.18,0,0,1,171.91,499.51Z"/><path class="cls-1" d="M331,452a5,5,0,0,1-4.75-3.44c-6.85-20.89-6.58-43.68-6.57-44.64a5,5,0,0,1,10,.16h0c0,.21-.24,22.1,6.07,41.36A5,5,0,0,1,331,452Z"/><path class="cls-1" d="M131,354.29a5,5,0,0,1-5-5v-1a5,5,0,0,1,10,0v1A5,5,0,0,1,131,354.29Z"/><path class="cls-1" d="M239.2,364.9a5,5,0,0,1-5-5v-1a5,5,0,0,1,10,0v1A5,5,0,0,1,239.2,364.9Z"/><path class="cls-1" d="M131,375.5a5,5,0,0,1-5-5v-1a5,5,0,0,1,10,0v1A5,5,0,0,1,131,375.5Z"/></g><g id="Outline"><path class="cls-1" d="M337,317.75H287.33a5,5,0,1,1,0-10H337a5,5,0,0,1,0,10Z"/><path class="cls-1" d="M103,317.75H53.33a5,5,0,1,1,0-10H103a5,5,0,0,1,0,10Z"/><path class="cls-1" d="M171,475.75H106.33a5,5,0,0,1,0-10H171a5,5,0,0,1,0,10Z"/><path class="cls-1" d="M286,475.75H221.33a5,5,0,0,1,0-10H286a5,5,0,0,1,0,10Z"/><path class="cls-1" d="M223.87,273.27H170.13a5,5,0,0,1,0-10h53.74a5,5,0,0,1,0,10Z"/><path class="cls-1" d="M223.87,298.73H170.13a5,5,0,0,1,0-10h53.74a5,5,0,0,1,0,10Z"/><path class="cls-1" d="M382.58,220.08H371.75a5,5,0,0,1,0-10h10.83a5,5,0,0,1,0,10Z"/><path class="cls-1" d="M425.25,220.08h-12.1a5,5,0,0,1,0-10h12.1a5,5,0,0,1,0,10Z"/><path class="cls-1" d="M398.08,247.25a5,5,0,0,1-5-5v-12a5,5,0,1,1,10,0v12A5,5,0,0,1,398.08,247.25Z"/><path class="cls-1" d="M398.08,206.17a5,5,0,0,1-5-5V188.75a5,5,0,1,1,10,0v12.42A5,5,0,0,1,398.08,206.17Z"/><path class="cls-1" d="M398.22,234.63a19,19,0,1,1,19-19A19,19,0,0,1,398.22,234.63Zm0-28a9,9,0,1,0,9,9A9,9,0,0,0,398.22,206.59Z"/></g></svg>