<?xml version="1.0" ?><svg viewBox="0 0 512 512" xmlns="http://www.w3.org/2000/svg"><defs><style>.cls-1{fill:#3f456b;}</style></defs><title/><g id="Lines"><path class="cls-1" d="M213.34,140.38h-.24a5,5,0,0,1-3.62-1.82c-1.45-1.76-35.55-43.75-38.41-92.34a5,5,0,0,1,2.22-4.45l39.14-26.09a3.25,3.25,0,0,1,.57-.33c5.67-4.39,13.83-4.3,15.35-4.24h59.43c1.52-.06,9.68-.14,15.36,4.24a4.18,4.18,0,0,1,.57.33l39.13,26.09a5,5,0,0,1,2.22,4.45c-2.86,48.59-36.95,90.58-38.4,92.34a5,5,0,0,1-7.4.36L258.07,97.73l-41.2,41.19A5,5,0,0,1,213.34,140.38Zm53-48.52,35.93,35.93c8.32-11.47,29.51-43.79,32.59-79.32L308.06,30.59c-.12.57-.27,1.15-.44,1.75C306.91,35.05,296.44,73.55,266.35,91.86ZM181.26,48.47c3.09,35.52,24.27,67.85,32.6,79.32l35.93-35.93c-30.1-18.31-40.57-56.81-41.27-59.52-.18-.6-.32-1.18-.44-1.74Zm46.25-27.38c-2.53,0-7.4.66-9.14,2.9-.91,1.16-1,3.05-.23,5.62,0,.05,0,.11,0,.17.11.4,10.55,39.83,39.89,55.29,29.42-15.5,39.78-54.88,39.88-55.29,0-.06,0-.12.05-.17.75-2.57.67-4.47-.24-5.63-1.89-2.41-7.41-3-9.64-2.88H227.51Z"/><path class="cls-1" d="M295.7,53.92H220.11a5,5,0,0,1,0-10H295.7a5,5,0,0,1,0,10Z"/><path class="cls-1" d="M63.74,470.27a123.64,123.64,0,0,1-24.19-2.56c-21.61-4.35-27-11.75-27.84-13.18a5,5,0,0,1-.67-3.19c.35-2.79,35.26-279.27,45.85-351.74.21-3.29,2.79-32,27.22-38.23,6.77-1.71,18-4.06,31-6.77,18.85-3.93,42.32-8.83,59.62-13.43a5,5,0,1,1,2.56,9.66c-17.56,4.67-41.17,9.6-60.14,13.56-12.88,2.69-24,5-30.58,6.68-18.28,4.62-19.69,29-19.7,29.29a3.91,3.91,0,0,1,0,.48c-10,68.48-42.1,322.08-45.55,349.38,2.12,1.71,7.7,5.15,20.26,7.68,13.8,2.78,23.79,2.52,28.64,2.1l45.45-258.5a5,5,0,0,1,9.85,1.74L79.37,465.36a5,5,0,0,1-3.92,4A62.4,62.4,0,0,1,63.74,470.27Z"/><path class="cls-1" d="M439.69,469.53c-1.45,0-2.24,0-2.36,0a5,5,0,0,1-4.7-4.12L388.68,217.62a5,5,0,0,1,9.84-1.74L441.75,459.5a227.89,227.89,0,0,0,28-2.6c13.06-1.93,18.82-5.13,21-6.76-3.45-28-35.47-287.88-45.52-356.71-.45-1.73-5.09-18.26-19.35-21.56l-2.14-.5c-16.89-3.9-56.44-13.06-85-20.53a5,5,0,1,1,2.54-9.68C369.69,48.6,409.14,57.73,426,61.63l2.15.5C449.27,67,454.79,90.37,455,91.36c0,.13.05.25.07.38,10.55,72.15,45.53,356.75,45.88,359.62a5,5,0,0,1-.67,3.17c-.87,1.46-6.36,8.91-29.09,12.26A222.7,222.7,0,0,1,439.69,469.53Z"/><path class="cls-1" d="M202.11,500.15a88.43,88.43,0,0,1-15.22-1.25c-2.55-.39-49.59-7.66-86.06-19.7a5,5,0,0,1-3.43-4.75c0-.89,0-22.25,4.3-58.68A960.25,960.25,0,0,1,131.36,268c-2.91-11.52-23.94-96-32.85-163.62a5,5,0,0,1,9.91-1.31c9.45,71.78,32.72,162.84,33,163.75a5,5,0,0,1,0,2.61,951.22,951.22,0,0,0-29.68,147.25c-3.21,27.45-4,46.55-4.2,54.11,36,11.37,80.55,18.13,81,18.19l.22,0c.3.06,30.13,5.61,48.2-9.31C246.25,472,251,459.87,251,443.64a5,5,0,0,1,10,0c0,19.39-6,34.14-17.79,43.86C230.57,497.91,214,500.15,202.11,500.15Z"/><path class="cls-1" d="M256,286.46a5,5,0,0,1-3.81-1.76c-45.32-53.34-65.25-115.14-74-157.59-9.46-46-8.25-78.93-8.2-80.31a5,5,0,0,1,10,.4c0,.33-1.21,33.34,8.06,78.18,8.52,41.23,27.88,101.21,71.75,152.84a5,5,0,0,1-3.81,8.24Z"/><path class="cls-1" d="M437.48,469.5a5,5,0,0,1-4.92-4.16l-45-262.13a5,5,0,0,1,9.86-1.69l45,262.13a5,5,0,0,1-4.09,5.77A4.89,4.89,0,0,1,437.48,469.5Z"/><path class="cls-1" d="M312,499.8c-12.15,0-30.38-2.23-43.89-13.69-11.43-9.69-17.22-24-17.22-42.47V281.46a5,5,0,0,1,1.19-3.24c44-51.74,64.16-112.15,73.36-153.7,10-45.06,9.53-78.1,9.52-78.43A5,5,0,0,1,339.91,41H340a5,5,0,0,1,5,4.91c0,1.39.47,34.57-9.75,80.77C325.89,169,305.4,230.3,260.93,283.29V443.64c0,15.4,4.59,27.12,13.65,34.82,18.09,15.37,48.5,10.63,48.81,10.58l.11,0c.49-.07,47.9-6.81,81-19-.46-17-4.2-95.82-33.94-200.53a4.84,4.84,0,0,1,0-2.72c.23-.83,23.58-83.83,35.13-163.7a5,5,0,0,1,9.9,1.43c-10.83,74.88-31.93,152.42-35,163.62a964.57,964.57,0,0,1,29.67,147.15c4.27,36.18,4.34,57.29,4.34,58.17a5,5,0,0,1-3.18,4.66c-34,13.31-83.65,20.44-86.47,20.83A86.32,86.32,0,0,1,312,499.8Z"/><path class="cls-1" d="M231,250l-.48,0A5,5,0,0,1,226,244.5l10.4-110.16-3.42-21a5,5,0,0,1,9.87-1.61l3.52,21.63a4.92,4.92,0,0,1,0,1.27l-10.46,110.8A5,5,0,0,1,231,250Z"/><path class="cls-1" d="M281.94,250a5,5,0,0,1-5-4.53l-10.45-110.8a4.57,4.57,0,0,1,.05-1.33l3.78-21.63a5,5,0,1,1,9.85,1.73l-3.66,21L286.92,244.5a5,5,0,0,1-4.51,5.45Z"/><path class="cls-1" d="M270.93,139h-28.8a5,5,0,0,1,0-10h28.8a5,5,0,0,1,0,10Z"/><path class="cls-1" d="M255,287.49a5,5,0,0,1-2-9.6c54.91-23.47,83-61.91,96.86-90,12.52-25.34,16.05-46.9,16.89-53.53L346.32,112.1a5,5,0,0,1,1.52-7.9l23.84-11.39c-10.69-27.64-17-39.29-17.07-39.41a5,5,0,0,1,8.77-4.8c.3.53,7.31,13.44,19.29,44.95a5,5,0,0,1-2.51,6.29l-21.9,10.47,17.42,18.92A5,5,0,0,1,377,133c-.08,1.1-2.25,27.15-18.12,59.29-14.63,29.63-44.18,70.12-101.89,94.79A4.94,4.94,0,0,1,255,287.49Z"/><path class="cls-1" d="M253,287.49a4.89,4.89,0,0,1-2-.44c-55-24.48-83.19-64.65-97.13-94-15.11-31.85-17.17-57.65-17.26-58.74a5,5,0,0,1,1.25-3.68l16.63-18.81-20.83-10.37a5,5,0,0,1-2.47-6.19c11.41-31.24,18.09-44,18.37-44.56a5,5,0,0,1,8.85,4.66c-.13.25-6.14,11.84-16.28,39.13l22.65,11.28a5,5,0,0,1,1.52,7.79l-19.49,22a181.08,181.08,0,0,0,16.27,53.53c13.23,27.73,39.92,65.65,92,88.82a5,5,0,0,1-2,9.57Z"/><path class="cls-1" d="M171.74,371.71a6.27,6.27,0,0,1-.74,0c-.25,0-25-3.7-53.27-7.53a5,5,0,0,1,1.34-9.9c28.3,3.83,53.15,7.5,53.39,7.54a5,5,0,0,1-.72,9.94Z"/><path class="cls-1" d="M343.39,371.71a5,5,0,0,1-.72-9.94c.25,0,25.09-3.71,53.39-7.54a5,5,0,1,1,1.34,9.9c-28.24,3.83-53,7.49-53.27,7.53A6.13,6.13,0,0,1,343.39,371.71Z"/><path class="cls-1" d="M288,317.38a5,5,0,0,1-5-5v-1a5,5,0,0,1,10,0v1A5,5,0,0,1,288,317.38Z"/><path class="cls-1" d="M288,378.57a5,5,0,0,1-5-5v-.95a5,5,0,0,1,10,0v.95A5,5,0,0,1,288,378.57Z"/><path class="cls-1" d="M369,205.51H351a5,5,0,0,1,0-10h18a5,5,0,0,1,0,10Z"/></g><g id="Outline"><path class="cls-1" d="M240.9,163.07a5,5,0,0,1-2.56-9.31l29.5-17.46a5,5,0,0,1,5.09,8.61l-29.49,17.46A5,5,0,0,1,240.9,163.07Z"/><path class="cls-1" d="M239,188.75a5,5,0,0,1-2.53-9.32l33.3-19.51a5,5,0,0,1,5.06,8.62l-33.3,19.52A5.07,5.07,0,0,1,239,188.75Z"/><path class="cls-1" d="M237.09,213.4a5,5,0,0,1-2.61-9.27l37.11-22.6a5,5,0,0,1,5.2,8.54l-37.1,22.6A5,5,0,0,1,237.09,213.4Z"/><path class="cls-1" d="M236.14,238.05a5,5,0,0,1-2.6-9.28l39-23.62a5,5,0,0,1,5.18,8.55l-39,23.63A5,5,0,0,1,236.14,238.05Z"/><path class="cls-1" d="M238,262.7a5,5,0,0,1-2.63-9.26l40-24.65a5,5,0,1,1,5.24,8.51l-40,24.66A5,5,0,0,1,238,262.7Z"/></g></svg>