<?xml version="1.0" ?><svg viewBox="0 0 512 512" xmlns="http://www.w3.org/2000/svg"><defs><style>.cls-1{fill:#3f456b;}</style></defs><title/><g id="Lines"><path class="cls-1" d="M224.88,422.47c-100.68,0-182.6-81.91-182.6-182.6s81.92-182.6,182.6-182.6,182.6,81.92,182.6,182.6S325.57,422.47,224.88,422.47Zm0-355.2c-95.17,0-172.6,77.43-172.6,172.6s77.43,172.6,172.6,172.6,172.6-77.42,172.6-172.6S320.06,67.27,224.88,67.27Z"/><path class="cls-1" d="M225,67a5,5,0,0,1-5-5V15a5,5,0,0,1,10,0V62A5,5,0,0,1,225,67Z"/><path class="cls-1" d="M332,102a5,5,0,0,1-5-5V15a5,5,0,0,1,10,0V97A5,5,0,0,1,332,102Z"/><path class="cls-1" d="M327.74,480.47A156.86,156.86,0,0,1,203.3,419.68a5,5,0,0,1,7.89-6.15,146.9,146.9,0,0,0,116.55,56.94c81.47,0,147.75-66.27,147.75-147.74a147.77,147.77,0,0,0-83-132.83,5,5,0,0,1,4.39-9,157.75,157.75,0,0,1,88.59,141.81C485.49,409.71,414.72,480.47,327.74,480.47Z"/></g><g id="Outline"><path class="cls-1" d="M425.81,92.19a5,5,0,0,1-3.54-8.53l23.47-23.47a5,5,0,0,1,7.07,7.07L429.34,90.73A5,5,0,0,1,425.81,92.19Z"/><path class="cls-1" d="M63.94,454.06a5,5,0,0,1-3.53-8.54l23.46-23.47A5,5,0,0,1,91,429.12L67.48,452.59A5,5,0,0,1,63.94,454.06Z"/><path class="cls-1" d="M50.91,342.46H17.72a5,5,0,1,1,0-10H50.91a5,5,0,1,1,0,10Z"/><path class="cls-1" d="M495.5,180.32H462.31a5,5,0,0,1,0-10H495.5a5,5,0,0,1,0,10Z"/><path class="cls-1" d="M175.54,500.28a5,5,0,0,1-5-5V462.09a5,5,0,0,1,10,0v33.19A5,5,0,0,1,175.54,500.28Z"/><path class="cls-1" d="M386.19,65.11a4.92,4.92,0,0,1-1.94-.4,5,5,0,0,1-2.67-6.54l7.52-17.86a5,5,0,1,1,9.21,3.88L390.8,62A5,5,0,0,1,386.19,65.11Z"/><path class="cls-1" d="M119.06,476.68a5.09,5.09,0,0,1-1.94-.39,5,5,0,0,1-2.67-6.55l8.22-19.53a5,5,0,1,1,9.22,3.88l-8.22,19.53A5,5,0,0,1,119.06,476.68Z"/><path class="cls-1" d="M42.15,397.3a5,5,0,0,1-1.89-9.63l17.94-7.31A5,5,0,0,1,62,389.62L44,396.93A5,5,0,0,1,42.15,397.3Z"/><path class="cls-1" d="M451.82,134.29a5,5,0,0,1-1.88-9.63l19.62-8a5,5,0,1,1,3.77,9.25l-19.62,8A5,5,0,0,1,451.82,134.29Z"/><path class="cls-1" d="M329.65,104.61H118.05a5,5,0,0,1,0-10h211.6a5,5,0,0,1,0,10Z"/><path class="cls-1" d="M365.68,139.68H84.09a5,5,0,0,1,0-10H365.68a5,5,0,0,1,0,10Z"/><path class="cls-1" d="M384.74,174.74H65a5,5,0,0,1,0-10H384.74a5,5,0,0,1,0,10Z"/><path class="cls-1" d="M331.72,385.14H121.16a5,5,0,1,1,0-10H331.72a5,5,0,0,1,0,10Z"/><path class="cls-1" d="M365.68,350.07H86.2a5,5,0,1,1,0-10H365.68a5,5,0,0,1,0,10Z"/><path class="cls-1" d="M384.74,315H67.15a5,5,0,0,1,0-10H384.74a5,5,0,0,1,0,10Z"/><path class="cls-1" d="M392.15,209.81H54.45a5,5,0,1,1,0-10h337.7a5,5,0,0,1,0,10Z"/><path class="cls-1" d="M397.44,244.87H52.33a5,5,0,1,1,0-10H397.44a5,5,0,0,1,0,10Z"/><path class="cls-1" d="M394.26,279.94H55.5a5,5,0,0,1,0-10H394.26a5,5,0,0,1,0,10Z"/><path class="cls-1" d="M454,244.68H404a5,5,0,0,1,0-10h50a5,5,0,0,1,0,10Z"/><path class="cls-1" d="M472,279.74H401a5,5,0,0,1,0-10h71a5,5,0,0,1,0,10Z"/><path class="cls-1" d="M411,455.07H246a5,5,0,1,1,0-10H411a5,5,0,0,1,0,10Z"/><path class="cls-1" d="M448,420H255a5,5,0,0,1,0-10H448a5,5,0,0,1,0,10Z"/><path class="cls-1" d="M479,314.81H390a5,5,0,0,1,0-10h89a5,5,0,0,1,0,10Z"/><path class="cls-1" d="M479,349.87H369a5,5,0,0,1,0-10H479a5,5,0,0,1,0,10Z"/><path class="cls-1" d="M468,384.94H337a5,5,0,0,1,0-10H468a5,5,0,0,1,0,10Z"/></g></svg>