<?xml version="1.0" ?><svg id="Lines" viewBox="0 0 512 512" xmlns="http://www.w3.org/2000/svg"><defs><style>.cls-1{fill:#3f456b;}</style></defs><title/><path class="cls-1" d="M446,502H66a55.06,55.06,0,0,1-55-55V67A55.06,55.06,0,0,1,66,12H446a55.06,55.06,0,0,1,55,55V447A55.06,55.06,0,0,1,446,502ZM66,22A45.05,45.05,0,0,0,21,67V447a45.05,45.05,0,0,0,45,45H446a45.05,45.05,0,0,0,45-45V67a45.05,45.05,0,0,0-45-45Z"/><path class="cls-1" d="M336,421H176a5,5,0,0,1-5-5V373H128a5,5,0,0,1-5-5V325H81a5,5,0,0,1-5-5V97a5,5,0,0,1,5-5H431a5,5,0,0,1,5,5V320a5,5,0,0,1-5,5H389v43a5,5,0,0,1-5,5H341v43A5,5,0,0,1,336,421ZM181,411H331V368a5,5,0,0,1,5-5h43V320a5,5,0,0,1,5-5h42V102H86V315h42a5,5,0,0,1,5,5v43h43a5,5,0,0,1,5,5Z"/><path class="cls-1" d="M367.54,201.38H145.12a5,5,0,0,1-5-5V97.59a5,5,0,0,1,10,0v93.79H362.54V97.59a5,5,0,1,1,10,0v98.79A5,5,0,0,1,367.54,201.38Z"/><path class="cls-1" d="M256.63,201.38a5,5,0,0,1-5-5V100.55a5,5,0,0,1,10,0v95.83A5,5,0,0,1,256.63,201.38Z"/><path class="cls-1" d="M200.73,201.38a5,5,0,0,1-5-5V98.77a5,5,0,0,1,10,0v97.61A5,5,0,0,1,200.73,201.38Z"/><path class="cls-1" d="M312.53,201.38a5,5,0,0,1-5-5V98.77a5,5,0,1,1,10,0v97.61A5,5,0,0,1,312.53,201.38Z"/></svg>