<?xml version="1.0" ?><svg viewBox="0 0 512 512" xmlns="http://www.w3.org/2000/svg"><defs><style>.cls-1{fill:#3f456b;}</style></defs><title/><g id="Lines"><path class="cls-1" d="M165,399H155V367.84A23.62,23.62,0,0,0,148,352.15C140.66,344.75,128.56,341,112,341s-28.66,3.75-35.95,11.15a23.62,23.62,0,0,0-7,15.73V399H59V368a33.79,33.79,0,0,1,9.72-22.69C78,335.83,92.51,331,112,331s34.05,4.83,43.28,14.35A33.79,33.79,0,0,1,165,368Z"/><path class="cls-1" d="M261,399H251V367.84A23.62,23.62,0,0,0,244,352.15C236.66,344.75,224.56,341,208,341s-28.66,3.75-35.95,11.15A23.62,23.62,0,0,0,165,367.88V399H155V368a33.79,33.79,0,0,1,9.72-22.69C174,335.83,188.51,331,208,331s34.05,4.83,43.28,14.35A33.79,33.79,0,0,1,261,368Z"/><path class="cls-1" d="M357,399H347V367.84A23.62,23.62,0,0,0,340,352.15C332.66,344.75,320.56,341,304,341s-28.66,3.75-35.95,11.15A23.62,23.62,0,0,0,261,367.88V399H251V368a33.79,33.79,0,0,1,9.72-22.69C270,335.83,284.51,331,304,331s34.05,4.83,43.28,14.35A33.79,33.79,0,0,1,357,368Z"/><path class="cls-1" d="M453,399H443V367.84A23.62,23.62,0,0,0,436,352.15C428.66,344.75,416.56,341,400,341s-28.66,3.75-35.95,11.15A23.62,23.62,0,0,0,357,367.88V399H347V368a33.79,33.79,0,0,1,9.72-22.69C366,335.83,380.51,331,400,331s34.05,4.83,43.28,14.35A33.79,33.79,0,0,1,453,368Z"/><path class="cls-1" d="M112,500H16a5,5,0,0,1-5-5V431a33.79,33.79,0,0,1,9.72-22.69C30,398.83,44.51,394,64,394s34.05,4.83,43.28,14.35A33.79,33.79,0,0,1,117,431v64A5,5,0,0,1,112,500ZM21,490h86V430.84a23.62,23.62,0,0,0-7-15.69C92.66,407.75,80.56,404,64,404s-28.66,3.75-35.95,11.15a23.62,23.62,0,0,0-7,15.73V490Z"/><path class="cls-1" d="M208,500H112a5,5,0,0,1-5-5V431a33.79,33.79,0,0,1,9.72-22.69C126,398.83,140.51,394,160,394s34.05,4.83,43.28,14.35A33.79,33.79,0,0,1,213,431v64A5,5,0,0,1,208,500Zm-91-10h86V430.84A23.62,23.62,0,0,0,196,415.15C188.66,407.75,176.56,404,160,404s-28.66,3.75-35.95,11.15a23.62,23.62,0,0,0-7,15.73V490Z"/><path class="cls-1" d="M304,500H208a5,5,0,0,1-5-5V431a33.79,33.79,0,0,1,9.72-22.69C222,398.83,236.51,394,256,394s34.05,4.83,43.28,14.35A33.79,33.79,0,0,1,309,431v64A5,5,0,0,1,304,500Zm-91-10h86V430.84A23.62,23.62,0,0,0,292,415.15C284.66,407.75,272.56,404,256,404s-28.66,3.75-35.95,11.15A23.62,23.62,0,0,0,213,430.88V490Z"/><path class="cls-1" d="M400,500H304a5,5,0,0,1-5-5V431a33.79,33.79,0,0,1,9.72-22.69C318,398.83,332.51,394,352,394s34.05,4.83,43.28,14.35A33.79,33.79,0,0,1,405,431v64A5,5,0,0,1,400,500Zm-91-10h86V430.84A23.62,23.62,0,0,0,388,415.15C380.66,407.75,368.56,404,352,404s-28.66,3.75-35.95,11.15A23.62,23.62,0,0,0,309,430.88V490Z"/><path class="cls-1" d="M496,500H400a5,5,0,0,1-5-5V431a33.79,33.79,0,0,1,9.72-22.69C414,398.83,428.51,394,448,394s34.05,4.83,43.28,14.35A33.79,33.79,0,0,1,501,431v64A5,5,0,0,1,496,500Zm-91-10h86V430.84A23.62,23.62,0,0,0,484,415.15C476.66,407.75,464.56,404,448,404s-28.66,3.75-35.95,11.15A23.62,23.62,0,0,0,405,430.88V490Z"/><path class="cls-1" d="M496,372H448a5,5,0,0,1,0-10h43V20H21V362H64a5,5,0,0,1,0,10H16a5,5,0,0,1-5-5V15a5,5,0,0,1,5-5H496a5,5,0,0,1,5,5V367A5,5,0,0,1,496,372Z"/><path class="cls-1" d="M308.24,317.61c-27.09,0-48.56-3.9-64.12-11.68-7.41-3.7-12.4-11.23-13.7-20.64-1.43-10.37,1.88-20.63,8.65-26.77,4.27-3.89,10.65-11.34,5.41-17.63-4.38-5.25-6.18-10.48-5.21-15.13.57-2.71,2.38-6.52,7.79-9.22a16.58,16.58,0,0,1,6.52-1.7,86.57,86.57,0,0,0-8.46-8.63c-4.2-3.49-6.28-8.21-5.73-13,.35-3,2.2-8.81,10.61-13a.57.57,0,0,0,.2-.12c1.19-1.73-2.71-11-8.78-18.84a4.68,4.68,0,0,1-.47-.72c-3.6-6.84-4.2-13.17-1.79-18.82,3.82-8.93,13.67-12.26,15.46-12.79,29.1-10.36,47.88-25.76,45.68-37.49-1.46-7.77,1.2-17.22,7.89-28.07a100.15,100.15,0,0,1,10-13.49l36.17-38.33a5,5,0,1,1,7.28,6.86L325.53,56.69c-4.93,5.43-17.43,22.09-15.4,32.93,3.28,17.49-16.76,36.19-52.29,48.79l-.3.1c-1.94.58-7.43,3-9.2,7.2-1.12,2.65-.69,6,1.27,9.83,2.68,3.53,12.53,17.32,10.41,26.6a10.19,10.19,0,0,1-5.54,7.05c-3.07,1.53-4.95,3.44-5.16,5.23-.15,1.32.65,2.82,2.2,4.11,6.19,5.17,16.36,17.25,19.72,22.85a5,5,0,0,1-7.15,6.67c-2.06-1.42-8.36-4.66-12.56-2.57-1,.51-2.26,1.32-2.47,2.33s.45,3.5,3.1,6.68c5.88,7,7.29,19-6.37,31.43-4.29,3.9-6.43,11-5.46,18,.84,6.1,3.85,10.86,8.26,13.06,20.88,10.44,55.75,13.23,100.84,8a5,5,0,1,1,1.14,9.94A374,374,0,0,1,308.24,317.61Z"/><path class="cls-1" d="M357,141h-.18c-29-1.08-43.2-19.19-43.79-20A5,5,0,0,1,321,115c.51.65,12.13,15.16,36.22,16a5,5,0,0,1-.18,10Z"/><path class="cls-1" d="M258.86,137.72a5,5,0,0,1-2.66-.76,330,330,0,0,1-27.68-20c-15.88-12.7-9.88-31.31-7.32-39.26.28-.87.54-1.65.73-2.32,1.09-3.82-1.36-9-2.39-10.71a5.06,5.06,0,0,1-.46-1C214.56,51,192.19,26.77,184,18.54A5,5,0,0,1,191,11.46c1.26,1.27,30.73,30.86,37.3,48.47,1.28,2.22,5.47,10.33,3.21,18.25-.22.76-.5,1.65-.82,2.64-3.26,10.11-5.63,20.64,4,28.38a326.4,326.4,0,0,0,26.76,19.29,5,5,0,0,1-2.66,9.23Z"/><path class="cls-1" d="M240,269.93a5,5,0,0,1-5-4.82c-.41-11.58-6.71-17.84-6.77-17.9a5,5,0,0,1,2.56-8.56c2-.4,8.44-2.55,6.73-12.9-2.13-12.83-9.87-15.92-10.2-16.05a4.92,4.92,0,0,1-3-2.92,5,5,0,0,1,.34-4.21c6.2-11.16,18.36-12.49,18.87-12.55a5,5,0,0,1,1,9.95,16.55,16.55,0,0,0-8.15,3.74c4.1,3.32,9.17,9.5,11,20.41,1.78,10.68-2.31,16.78-6,20a18.75,18.75,0,0,1-1.92,1.46A39.5,39.5,0,0,1,245,264.76a5,5,0,0,1-4.82,5.17Z"/><path class="cls-1" d="M144,322a5,5,0,0,1-.25-10c74.1-3.76,89.08-23.53,89.22-23.73l-.07.1,8.41,5.41c-1.58,2.47-17.78,24.19-97.06,28.2Z"/><path class="cls-1" d="M211.54,272.26c-.12-.23-13.09-23.06-86.62-34.53-64.09-10-66-47.35-66-48.94a5,5,0,0,1,10-.31c.07,1.21,2.19,30.73,57.58,39.36,78.64,12.27,92.7,37.2,94.05,40l-9,4.32Z"/><path class="cls-1" d="M193.38,99.46A5,5,0,0,1,188.61,96C183.35,79.08,155.14,78,154.85,78a5,5,0,0,1,.29-10c1.45,0,35.63,1.28,43,25a5,5,0,0,1-3.28,6.27A5.17,5.17,0,0,1,193.38,99.46Z"/><path class="cls-1" d="M212,77.88a5,5,0,0,1-4.84-3.73C198.47,41,155.44,39.63,155,39.62a5,5,0,0,1,.11-10h.1a87.72,87.72,0,0,1,26.44,5.47c18.58,7,30.75,19.64,35.19,36.52a5,5,0,0,1-3.56,6.1A4.67,4.67,0,0,1,212,77.88Z"/><path class="cls-1" d="M371,109a5,5,0,0,1-3.26-1.21c-25.87-22.3-43.89-14.59-44.64-14.25a5,5,0,0,1-4.25-9.05c1-.47,24.3-11.1,55.41,15.72A5,5,0,0,1,371,109Z"/><path class="cls-1" d="M70,120a5,5,0,0,1-5-4.67,47,47,0,0,0-3.7-14.07c-3.93-8.82-10-14-18.13-15.33-7.6-1.26-13.47.19-17.45,4.33a19.61,19.61,0,0,0-4.83,16.06,5,5,0,0,1-9.8,2,29.58,29.58,0,0,1,7.42-25c4.4-4.58,12.54-9.55,26.3-7.26C63.88,79.25,71.94,97,74.28,109.3l9.53-1.43A88.45,88.45,0,0,1,98.45,36.43C92.63,32.17,86.83,24.61,89.11,14a5,5,0,1,1,9.78,2.1c-2,9.47,7.86,13.85,9,14.32a5,5,0,0,1,1.77,8.05c-1.09,1.18-26.87,29.63-14.84,72.22a5,5,0,0,1-4.07,6.3l-20,3A4.62,4.62,0,0,1,70,120Z"/><path class="cls-1" d="M39.71,172c-7.27,0-13.41-2.28-18.27-6.78-9.77-9-10.41-23.78-10.44-24.4a5,5,0,0,1,10-.38,33,33,0,0,0,3.11,11.79c3.43,6.88,8.88,10.09,16.68,9.74,6.89-.28,11.93-2.13,15-5.48A13,13,0,0,0,59,148.28a5,5,0,1,1,10-.56,22.54,22.54,0,0,1-5.83,15.52c-4.9,5.41-12.29,8.35-21.95,8.76Z"/><path class="cls-1" d="M40,145a5,5,0,0,1-1.76-9.68c2.1-.79,4-3,5.08-5.86,1.81-4.83,1.18-10.69-1.72-16.09-1.7-3.15-3.59-5.08-5.48-5.6a4.76,4.76,0,0,0-3.44.45l.09-.06-5.54-8.32A14.71,14.71,0,0,1,38.44,98c4.8,1.2,8.82,4.76,12,10.59,4.28,7.94,5.11,16.81,2.28,24.35-2.11,5.62-6.09,9.89-10.92,11.7A5,5,0,0,1,40,145Z"/><path class="cls-1" d="M131.6,343.12a5,5,0,0,1-3.78-8.27c13.59-15.72,19.23-41.63,19.29-41.89a5,5,0,0,1,9.78,2.08c-.25,1.17-6.25,28.71-21.51,46.36A5,5,0,0,1,131.6,343.12Z"/><path class="cls-1" d="M424.92,344.72a5.15,5.15,0,0,1-1.67-.29,5,5,0,0,1-3-6.39c2.5-7,2.18-13-1-18.17-4.6-7.55-14.43-12.26-21.86-14.88a90.49,90.49,0,0,0-16-4l-.4-.07c-33.77-7.36-54.27-25.81-56.25-50.61-2.12-26.58,17.85-54.31,47.48-65.94,26.37-10.33,45.06-33.3,45.47-55.85.3-16.94-9.87-30.76-28.63-38.9-16.37-7.11-26.09-17.22-28.88-30.05C355,36,375.73,12.64,376.62,11.65a5,5,0,0,1,7.43,6.69h0c-.18.2-18.19,20.57-14.14,39.11,2.08,9.49,9.84,17.22,23.08,23,22.39,9.72,35,27.31,34.65,48.26-.48,26.48-21.78,53.21-51.81,65-25.64,10.05-42.95,33.53-41.17,55.83,1.62,20.35,18.74,35.11,48.22,41.58,3.15.45,33.66,5.23,44.86,23.57,4.79,7.84,5.42,16.84,1.89,26.75A5,5,0,0,1,424.92,344.72Z"/><path class="cls-1" d="M325.25,343a5,5,0,0,1-4.89-4c-2.7-12.74-5.91-25.06-5.95-25.19a5,5,0,0,1,9.68-2.53c0,.13,3.31,12.68,6.05,25.64a5,5,0,0,1-3.85,5.93A4.66,4.66,0,0,1,325.25,343Z"/><path class="cls-1" d="M313,134a5,5,0,0,1-2.94-9l8.67-6.3a5,5,0,0,1,5.88,8.09L315.94,133A5,5,0,0,1,313,134Z"/><path class="cls-1" d="M326,145a5,5,0,0,1-4.29-7.56l6.15-10.31a5,5,0,0,1,8.59,5.13l-6.16,10.3A5,5,0,0,1,326,145Z"/><path class="cls-1" d="M342,150a4.49,4.49,0,0,1-.64,0,5,5,0,0,1-4.33-5.59l1.41-11a5,5,0,0,1,9.92,1.27l-1.41,11A5,5,0,0,1,342,150Z"/></g><g id="Outline"><path class="cls-1" d="M401,279a4.43,4.43,0,0,1-.81-.07A76.62,76.62,0,0,1,378.91,272c-8.32-4.17-14.52-9.53-18-15.48-3.82-6.64-4.31-14.13-1.43-21.68,1.79-4.69,4.91-9.18,9.55-13.73,7.7-7.57,16.89-12.45,25.77-17.18a149.53,149.53,0,0,0,16.29-9.55c11.42-8.06,21.15-20.75,26.69-34.83,6.71-17,8.37-45.8-1.74-65.7-5.14-10.1-12.66-16.5-22.35-19a5,5,0,0,1,2.52-9.68c12.41,3.23,22.35,11.59,28.74,24.17,11.57,22.75,9.83,54.4,2.14,73.9-6.34,16.07-17.07,30-30.23,39.33a161.27,161.27,0,0,1-17.36,10.21c-8.64,4.59-16.8,8.93-23.47,15.48a29.45,29.45,0,0,0-7.21,10.16c-1.82,4.78-1.57,9.08.76,13.13,3.76,6.52,15.43,14.79,32.17,17.53A5,5,0,0,1,401,279Z"/><path class="cls-1" d="M399,56a5,5,0,0,1-3.82-1.78c-5.12-6.08-7.22-12.65-6.25-19.54,1.95-13.84,16-23.43,16.62-23.83a5,5,0,0,1,5.58,8.3c-.2.13-11,7.59-12.31,17-.55,4,.76,7.82,4,11.68A5,5,0,0,1,399,56Z"/><path class="cls-1" d="M438,224a5,5,0,0,1-2.49-9.33c.07,0,9.44-5.63,18.43-19.22,8.33-12.58,18.05-34.81,17.06-69.31C470.23,99,463.28,76.86,450.91,62,441.66,51,432.52,47.78,432.42,47.75a5,5,0,0,1,3.13-9.5c1.77.57,43.37,14.92,45.45,87.61,2.06,72.15-38.77,96.47-40.51,97.47A4.88,4.88,0,0,1,438,224Z"/><path class="cls-1" d="M462,372a5,5,0,0,1-4.74-6.61c17.27-50.88-19.8-69.11-21.38-69.86a5,5,0,0,1,4.23-9.06,58.66,58.66,0,0,1,21.12,18.67c15,21.55,11.29,46.41,5.51,63.47A5,5,0,0,1,462,372Z"/><path class="cls-1" d="M496,330.29a5,5,0,0,1-5-4.92c-.39-27.14-11.36-47.89-32.6-61.67A88.94,88.94,0,0,0,426.3,251a5,5,0,1,1,1.4-9.9,98.24,98.24,0,0,1,36.15,14.26c16.64,10.8,36.6,31.7,37.15,69.91a5,5,0,0,1-4.93,5.07Z"/><path class="cls-1" d="M496,268a5,5,0,0,1-4.85-3.79c-5.21-20.85-34.22-29.32-34.51-29.4a5,5,0,0,1,2.71-9.62c1.42.4,34.87,10.09,41.5,36.6A5,5,0,0,1,496,268Z"/><path class="cls-1" d="M96.68,53.76a5.2,5.2,0,0,1-1.34-.18c-17.46-4.84-22.74-17.14-23-17.66A5,5,0,0,1,81.6,32c.2.44,4,8.44,16.41,11.9a5,5,0,0,1-1.33,9.82Z"/><path class="cls-1" d="M89.77,70.92a5.65,5.65,0,0,1-1-.1C66.06,66.23,59.58,49.46,59.31,48.74a5,5,0,0,1,9.36-3.52c.24.59,5.09,12.36,22.08,15.79a5,5,0,0,1-1,9.91Z"/><path class="cls-1" d="M86.69,91a4.73,4.73,0,0,1-.83-.07C65.6,87.53,56.19,73.32,55.8,72.72a5,5,0,0,1,8.38-5.46c.33.49,7.6,11.16,23.32,13.77A5,5,0,0,1,86.69,91Z"/><path class="cls-1" d="M316.42,38h-1a5,5,0,0,1,0-10h1a5,5,0,0,1,0,10Z"/><path class="cls-1" d="M285.5,38h-1a5,5,0,0,1,0-10h1a5,5,0,0,1,0,10Z"/><path class="cls-1" d="M285.5,72h-1a5,5,0,0,1,0-10h1a5,5,0,0,1,0,10Z"/><path class="cls-1" d="M285.5,106h-1a5,5,0,0,1,0-10h1a5,5,0,0,1,0,10Z"/><path class="cls-1" d="M299.5,329h-1a5,5,0,0,1,0-10h1a5,5,0,0,1,0,10Z"/><path class="cls-1" d="M254.58,38h-1a5,5,0,0,1,0-10h1a5,5,0,0,1,0,10Z"/><path class="cls-1" d="M254.58,72h-1a5,5,0,0,1,0-10h1a5,5,0,0,1,0,10Z"/><path class="cls-1" d="M254.58,106h-1a5,5,0,0,1,0-10h1a5,5,0,0,1,0,10Z"/><path class="cls-1" d="M268.58,329h-1a5,5,0,1,1,0-10h1a5,5,0,0,1,0,10Z"/><path class="cls-1" d="M223.67,38h-1a5,5,0,0,1,0-10h1a5,5,0,0,1,0,10Z"/><path class="cls-1" d="M237.67,329h-1a5,5,0,1,1,0-10h1a5,5,0,0,1,0,10Z"/><path class="cls-1" d="M206.75,329h-1a5,5,0,0,1,0-10h1a5,5,0,0,1,0,10Z"/><path class="cls-1" d="M175.83,329h-1a5,5,0,0,1,0-10h1a5,5,0,1,1,0,10Z"/></g></svg>