<?xml version="1.0" ?><svg viewBox="0 0 512 512" xmlns="http://www.w3.org/2000/svg"><defs><style>.cls-1{fill:#3f456b;}</style></defs><title/><g id="Lines"><path class="cls-1" d="M62.5,135a5,5,0,0,1-4.88-3.91c-.09-.39-9.36-39.63-44.21-47.44a5,5,0,0,1,.15-9.79c1.6-.31,39.24-8.06,44-47.46a5,5,0,0,1,9.89-.22,74.68,74.68,0,0,0,8.38,22.06c8.41,14.56,20.35,23.18,35.48,25.59a5,5,0,0,1,.23,9.84c-1.55.32-38.2,8.55-44.08,47.08A5,5,0,0,1,62.67,135ZM29.6,78.82c17.1,8.46,26.94,23.37,32.27,34.74A64.52,64.52,0,0,1,86.16,84.25a75.28,75.28,0,0,1,8.66-5C83.44,74.08,74,65.17,67,52.94A83.53,83.53,0,0,1,63,45,62.36,62.36,0,0,1,39.28,73.44,73.94,73.94,0,0,1,29.6,78.82Z"/><path class="cls-1" d="M457.5,488a5,5,0,0,1-4.88-3.91c-.09-.39-9.36-39.63-44.21-47.44a5,5,0,0,1,.15-9.79c1.6-.31,39.24-8.06,44-47.46a5,5,0,0,1,4.85-4.4h.11a5,5,0,0,1,4.93,4.18,74.68,74.68,0,0,0,8.38,22.06c8.41,14.56,20.35,23.18,35.48,25.59a5,5,0,0,1,.23,9.84c-1.55.32-38.2,8.55-44.08,47.08a5,5,0,0,1-4.77,4.25Zm-32.9-56.18c17.1,8.46,26.94,23.37,32.27,34.74a64.52,64.52,0,0,1,24.29-29.31,75.28,75.28,0,0,1,8.66-5C478.44,427.08,469,418.17,462,405.94a83.53,83.53,0,0,1-4-7.91,62.36,62.36,0,0,1-23.72,28.41A73.94,73.94,0,0,1,424.6,431.82Z"/><path class="cls-1" d="M273,501a5,5,0,0,1-5-5V369a5,5,0,0,1,10,0V491L395.22,490l16.14-57a5,5,0,1,1,9.62,2.73l-17.16,60.59a5,5,0,0,1-4.77,3.64l-126,1Z"/><path class="cls-1" d="M241,501h0l-124.9-1a5,5,0,0,1-4.76-3.62l-35.1-122c-24.71-83.81-12.82-165.49,38.56-264.82,16-31,23.93-62.63,23.47-94a5,5,0,0,1,5-5.07H370.88a5,5,0,0,1,5,5.07c-.46,31.36,7.44,63,23.47,94,23.79,46,38.15,85.74,45.19,125.13,8.36,46.74,6.2,92.86-6.6,141L424.39,427.9a5,5,0,0,1-9.68-2.51l13.56-52.25c12.42-46.72,14.52-91.42,6.43-136.69-6.87-38.37-20.92-77.23-44.23-122.3-15.94-30.82-24.2-62.3-24.59-93.65H148.24c-.39,31.35-8.65,62.83-24.59,93.65-23.81,46-38.14,85.56-45.1,124.42a283.33,283.33,0,0,0,7.25,133L119.88,490,236,491V369a5,5,0,0,1,10,0V496a5,5,0,0,1-5,5Z"/><path class="cls-1" d="M257.16,378a39.14,39.14,0,0,1-18.73-4.72,4.93,4.93,0,0,1-1.63-1.58c-1.29-2-31.75-50-48.73-148.86a5,5,0,1,1,9.86-1.7c8.67,50.5,21.06,87.27,29.93,109.23,8,19.78,14.63,31.41,16.68,34.84a29,29,0,0,0,25-.1c4.66-7.08,33.12-53.32,47.48-144.39a5,5,0,1,1,9.88,1.56c-16,101.49-48.5,147.71-49.88,149.62a5,5,0,0,1-1.72,1.51A38.47,38.47,0,0,1,257.16,378Z"/><path class="cls-1" d="M128.65,219.49a4.71,4.71,0,0,1-.74-.06c-31.6-4.71-47.26-9.6-47.91-9.8a5,5,0,1,1,3-9.54c.15,0,15.68,4.87,46.38,9.45a5,5,0,0,1-.73,10Z"/><path class="cls-1" d="M257,228a950.54,950.54,0,0,1-104.54-5.38,5,5,0,0,1,1.11-9.94A940.24,940.24,0,0,0,257,218a1062.62,1062.62,0,0,0,106.41-5,5,5,0,0,1,1,9.95A1073.83,1073.83,0,0,1,257,228Z"/><path class="cls-1" d="M387.22,220.29a5,5,0,0,1-.66-10c29.93-4,45.16-8.11,45.31-8.15a5,5,0,0,1,2.65,9.64c-.64.18-15.94,4.33-46.64,8.42A4.89,4.89,0,0,1,387.22,220.29Z"/><path class="cls-1" d="M257,180a5,5,0,0,1-5-5V159a5,5,0,0,1,10,0v16A5,5,0,0,1,257,180Z"/><path class="cls-1" d="M241,436.5H98.82a5,5,0,1,1,0-10H241a5,5,0,0,1,0,10Z"/><path class="cls-1" d="M414,436.5H273.82a5,5,0,1,1,0-10H414a5,5,0,0,1,0,10Z"/><path class="cls-1" d="M265.61,125.83c-81.57,0-146.32-8.74-147.29-8.88a5,5,0,1,1,1.36-9.9c1.45.19,145.82,19.66,274.57,0a5,5,0,1,1,1.5,9.88C352.12,123.6,306.72,125.83,265.61,125.83Z"/><path class="cls-1" d="M131,436.22a5,5,0,0,1-4.92-4.19,728.62,728.62,0,0,1-8.31-165.72c2.75-40.57,8.14-64.43,8.37-65.43a5,5,0,0,1,9.74,2.24c-.21.95-21.5,96.69.06,227.28a5,5,0,0,1-4.12,5.75A5.67,5.67,0,0,1,131,436.22Z"/><path class="cls-1" d="M154,436.22a5,5,0,0,1-4.92-4.19,728.62,728.62,0,0,1-8.31-165.72c2.75-40.57,8.14-64.43,8.37-65.43a5,5,0,0,1,9.74,2.24c-.21.95-21.5,96.69.06,227.28a5,5,0,0,1-4.12,5.75A5.67,5.67,0,0,1,154,436.22Z"/><path class="cls-1" d="M384.82,435.72a5.79,5.79,0,0,1-.82-.07,5,5,0,0,1-4.12-5.75c21.59-130.73.29-225.33.07-226.27a5,5,0,1,1,9.74-2.26c.22,1,22,97.5.06,230.16A5,5,0,0,1,384.82,435.72Z"/><path class="cls-1" d="M361.82,435.72a5.79,5.79,0,0,1-.82-.07,5,5,0,0,1-4.12-5.75c21.59-130.73.29-225.33.07-226.27a5,5,0,1,1,9.74-2.26c.22,1,22,97.5.06,230.16A5,5,0,0,1,361.82,435.72Z"/><path class="cls-1" d="M154,207a5.81,5.81,0,0,1-.72-.05l-21-3a5,5,0,0,1-4.27-5.44c.17-1.71,4.33-42.38,24.8-84.26a5,5,0,1,1,9,4.39c-15.73,32.18-21.51,64.29-23.21,76.11l16.12,2.3A5,5,0,0,1,154,207Z"/><path class="cls-1" d="M362,207a5,5,0,0,1-.7-9.95l21-3a5,5,0,1,1,1.42,9.9l-21,3A5.81,5.81,0,0,1,362,207Z"/><path class="cls-1" d="M154,207a5,5,0,0,1-4-8c1.14-1.51,28.85-37,107.71-37S364.79,197.44,366,199a5,5,0,0,1-7.91,6.12c-.28-.36-26.88-33.07-100.33-33.07-73.94,0-99.48,32.68-99.73,33A5,5,0,0,1,154,207Z"/><path class="cls-1" d="M131,207a4.82,4.82,0,0,1-1.12-.13,5,5,0,0,1-3.76-6,25.53,25.53,0,0,0-3.82-18.08c-4.94-7.23-14-12-27.1-14.08a5,5,0,1,1,1.6-9.87c16,2.58,27.35,8.8,33.87,18.49a35.23,35.23,0,0,1,5.2,25.75A5,5,0,0,1,131,207Z"/><path class="cls-1" d="M385,207a5,5,0,0,1-4.83-3.7,27.92,27.92,0,0,1-.71-4.42,320.77,320.77,0,0,0-24.3-80.24,5,5,0,1,1,9-4.39c.62,1.28,12.82,26.51,21.07,62.1,6.37-9.11,17.39-15,32.77-17.47a5,5,0,1,1,1.6,9.87c-12.95,2.1-21.89,6.77-26.56,13.9a24.34,24.34,0,0,0-3.63,15.06c.19,1.18.37,2.37.55,3.57A5,5,0,0,1,385,207Z"/><path class="cls-1" d="M154,435.06l-.45,0a5,5,0,0,1-4.53-5.43c.8-8.93,7.62-25.81,27.65-25.86h.09c10.33,0,18.36,4.75,22.6,13.37a31.7,31.7,0,0,1,3.14,12.81,5,5,0,0,1-5,5h0a5,5,0,0,1-5-5,22.08,22.08,0,0,0-2.24-8.7c-2.59-5.07-7-7.53-13.5-7.53h-.07c-6.79,0-11.64,2.69-14.81,8.17a23.92,23.92,0,0,0-2.9,8.59A5,5,0,0,1,154,435.06Z"/><path class="cls-1" d="M130.53,435a5,5,0,0,1-5-5c0-1.69-.66-16.23-15.75-16.23h-.06c-5.2,0-9.22,1.57-12.28,4.77a5,5,0,0,1-7.22-6.92c5-5.19,11.52-7.83,19.48-7.85h.09c10.33,0,18.36,4.75,22.6,13.37a31.7,31.7,0,0,1,3.14,12.81,5,5,0,0,1-5,5Z"/><path class="cls-1" d="M385.83,434.92h0a5,5,0,0,1-5-5c0-7.7,4.32-23,20.46-25.75.61-.1,14.49-2.3,24.65,7.24a5,5,0,1,1-6.84,7.29c-6.49-6.09-16-4.69-16.13-4.67-12,2.05-12.14,15.35-12.14,15.92A5,5,0,0,1,385.83,434.92Z"/><path class="cls-1" d="M197.53,435a3.85,3.85,0,0,1-.48,0,5,5,0,0,1-4.5-5.41c.8-8.92,7.62-25.81,27.65-25.86h.09c10.33,0,18.36,4.75,22.6,13.37A31.7,31.7,0,0,1,246,429.93a5,5,0,0,1-5,5h0a5,5,0,0,1-5-5,22.08,22.08,0,0,0-2.24-8.7c-2.59-5.07-7-7.53-13.5-7.53h-.07c-6.68,0-11.48,2.61-14.66,7.92a24.47,24.47,0,0,0-3.06,8.86A5,5,0,0,1,197.53,435Z"/><path class="cls-1" d="M274,435.06l-.45,0a5,5,0,0,1-4.53-5.43c.8-8.93,7.62-25.81,27.65-25.86,10.37,0,18.44,4.72,22.69,13.37a31.7,31.7,0,0,1,3.14,12.81,5,5,0,0,1-5,5h0a5,5,0,0,1-5-5,22.08,22.08,0,0,0-2.24-8.7c-2.59-5.07-7-7.53-13.5-7.53h-.07c-6.79,0-11.64,2.69-14.81,8.17a23.92,23.92,0,0,0-2.9,8.59A5,5,0,0,1,274,435.06Z"/><path class="cls-1" d="M317.53,435a3.85,3.85,0,0,1-.48,0,5,5,0,0,1-4.5-5.41c.8-8.92,7.62-25.81,27.65-25.86h.09c10.33,0,18.36,4.75,22.6,13.37A31.7,31.7,0,0,1,366,429.93a5,5,0,0,1-5,5h0a5,5,0,0,1-5-5,22.08,22.08,0,0,0-2.24-8.7c-2.59-5.07-7-7.53-13.5-7.53h-.07c-6.68,0-11.48,2.61-14.66,7.92a24.47,24.47,0,0,0-3.06,8.86A5,5,0,0,1,317.53,435Z"/><path class="cls-1" d="M370.4,277a5,5,0,0,1-.36-10l22.9-1.67a5,5,0,1,1,.73,10L370.77,277Z"/><path class="cls-1" d="M371.59,312a5,5,0,0,1-.21-10l23-1a5,5,0,0,1,.43,10l-23,1Z"/><path class="cls-1" d="M145,277l-.37,0-22.34-1.67a5,5,0,1,1,.75-10L145.37,267a5,5,0,0,1-.37,10Z"/><path class="cls-1" d="M143.85,312h-.23l-22.43-1a5,5,0,0,1,.44-10l22.43,1a5,5,0,0,1-.21,10Z"/><path class="cls-1" d="M469,297a4,4,0,0,1-.69-.05,5,5,0,0,1-4.27-5.63c10.61-77.19-18.87-121-19.17-121.48a5,5,0,0,1,8.24-5.68c1.31,1.91,32,47.53,20.83,128.52A5,5,0,0,1,469,297Z"/><path class="cls-1" d="M47.52,362.12a5,5,0,0,1-4.77-3.49c-17.8-56-5.69-118-5.17-120.66a5,5,0,0,1,9.8,2c-.12.61-12.1,62.14,4.9,115.67A5,5,0,0,1,49,361.89,5,5,0,0,1,47.52,362.12Z"/></g><g id="Outline"><path class="cls-1" d="M233.15,462.38h-1a5,5,0,1,1,0-10h1a5,5,0,0,1,0,10Zm-21,0h-1a5,5,0,1,1,0-10h1a5,5,0,0,1,0,10Zm-21,0h-1a5,5,0,1,1,0-10h1a5,5,0,0,1,0,10Zm-21,0h-1a5,5,0,1,1,0-10h1a5,5,0,0,1,0,10Zm-21,0h-1a5,5,0,1,1,0-10h1a5,5,0,0,1,0,10Zm-21,0h-1a5,5,0,1,1,0-10h1a5,5,0,0,1,0,10Zm-21,0h-1a5,5,0,1,1,0-10h1a5,5,0,0,1,0,10Z"/><path class="cls-1" d="M404.15,462.38h-1a5,5,0,0,1,0-10h1a5,5,0,0,1,0,10Zm-21,0h-1a5,5,0,0,1,0-10h1a5,5,0,0,1,0,10Zm-21,0h-1a5,5,0,0,1,0-10h1a5,5,0,0,1,0,10Zm-21,0h-1a5,5,0,0,1,0-10h1a5,5,0,0,1,0,10Zm-21,0h-1a5,5,0,0,1,0-10h1a5,5,0,0,1,0,10Zm-21,0h-1a5,5,0,0,1,0-10h1a5,5,0,0,1,0,10Zm-21,0h-1a5,5,0,0,1,0-10h1a5,5,0,0,1,0,10Z"/><path class="cls-1" d="M395.53,158.73a5,5,0,0,1-4.64-3.11l-.37-.92a5,5,0,0,1,9.25-3.8l.38.95a5,5,0,0,1-4.62,6.88Zm-8.43-19.26a5,5,0,0,1-4.54-2.89l-.42-.91a5,5,0,0,1,9.07-4.22l.42.91a5,5,0,0,1-4.53,7.11Zm-9.22-18.9a5,5,0,0,1-4.45-2.72L373,117a5,5,0,0,1,8.86-4.64l.48.93a5,5,0,0,1-2.16,6.73A4.92,4.92,0,0,1,377.88,120.57Z"/><path class="cls-1" d="M120.14,158.73a5,5,0,0,1-4.63-6.88l.39-.95a5,5,0,0,1,9.25,3.8l-.37.92A5,5,0,0,1,120.14,158.73Zm8.43-19.26a5,5,0,0,1-4.53-7.11l.42-.91a5,5,0,0,1,9.06,4.22l-.42.91A5,5,0,0,1,128.57,139.47Zm9.22-18.9a4.92,4.92,0,0,1-2.28-.56,5,5,0,0,1-2.16-6.73l.48-.93a5,5,0,0,1,8.86,4.64l-.45.86A5,5,0,0,1,137.79,120.57Z"/></g></svg>