<?xml version="1.0" ?><svg viewBox="0 0 512 512" xmlns="http://www.w3.org/2000/svg"><defs><style>.cls-1{fill:#3f456b;}</style></defs><title/><g id="Lines"><path class="cls-1" d="M132,342h-1a5,5,0,0,1,0-10h1a5,5,0,0,1,0,10Z"/><path class="cls-1" d="M204,447H106a5,5,0,0,1,0-10h98a5,5,0,0,1,0,10Z"/><path class="cls-1" d="M256,502H44A35,35,0,0,1,9,467V47A35,35,0,0,1,44,12H256a35,35,0,0,1,35,35V292a5,5,0,0,1-10,0V47a25,25,0,0,0-25-25H44A25,25,0,0,0,19,47V467a25,25,0,0,0,25,25H256a25,25,0,0,0,25-25V382a5,5,0,0,1,10,0v85A35,35,0,0,1,256,502Z"/><path class="cls-1" d="M69,390c-17.89,0-29-13.41-29-35V319c0-21.59,11.11-35,29-35h.11l396,8.33c10.07,0,18.68,3.79,24.92,10.92,6.55,7.5,10,18.48,10,31.75v3c0,28.51-11.76,43-34.94,43L69.11,390Zm0-96c-17.1,0-19,17.49-19,25v36c0,7.51,1.85,25,19,25l395.94-9H465c12.36,0,25-3.92,25-33v-3c0-20.45-9.35-32.67-25-32.67h-.11Z"/></g><g id="Outline"><path class="cls-1" d="M93.29,144H92a5,5,0,0,1,0-10h1.29a5,5,0,1,1,0,10Z"/><path class="cls-1" d="M132.11,144h-1.29a5,5,0,0,1,0-10h1.29a5,5,0,0,1,0,10Z"/><path class="cls-1" d="M169.63,144h-1.29a5,5,0,0,1,0-10h1.29a5,5,0,0,1,0,10Z"/><path class="cls-1" d="M209,144h-1.29a5,5,0,0,1,0-10H209a5,5,0,0,1,0,10Z"/><path class="cls-1" d="M93.29,105H92a5,5,0,0,1,0-10h1.29a5,5,0,1,1,0,10Z"/><path class="cls-1" d="M132.11,105h-1.29a5,5,0,0,1,0-10h1.29a5,5,0,0,1,0,10Z"/><path class="cls-1" d="M169.63,105h-1.29a5,5,0,0,1,0-10h1.29a5,5,0,0,1,0,10Z"/><path class="cls-1" d="M209,105h-1.29a5,5,0,0,1,0-10H209a5,5,0,0,1,0,10Z"/><path class="cls-1" d="M93.29,222H92a5,5,0,0,1,0-10h1.29a5,5,0,1,1,0,10Z"/><path class="cls-1" d="M132.11,222h-1.29a5,5,0,0,1,0-10h1.29a5,5,0,0,1,0,10Z"/><path class="cls-1" d="M169.63,222h-1.29a5,5,0,0,1,0-10h1.29a5,5,0,0,1,0,10Z"/><path class="cls-1" d="M209,222h-1.29a5,5,0,0,1,0-10H209a5,5,0,0,1,0,10Z"/><path class="cls-1" d="M93.29,183H92a5,5,0,0,1,0-10h1.29a5,5,0,1,1,0,10Z"/><path class="cls-1" d="M132.11,183h-1.29a5,5,0,0,1,0-10h1.29a5,5,0,0,1,0,10Z"/><path class="cls-1" d="M169.63,183h-1.29a5,5,0,0,1,0-10h1.29a5,5,0,0,1,0,10Z"/><path class="cls-1" d="M209,183h-1.29a5,5,0,0,1,0-10H209a5,5,0,0,1,0,10Z"/></g></svg>