<?xml version="1.0" ?><svg viewBox="0 0 512 512" xmlns="http://www.w3.org/2000/svg"><defs><style>.cls-1{fill:#3f456b;}</style></defs><title/><g id="Lines"><path class="cls-1" d="M425.19,260.08a30.34,30.34,0,1,1,30.34-30.34A30.37,30.37,0,0,1,425.19,260.08Zm0-50.68a20.34,20.34,0,1,0,20.34,20.34A20.36,20.36,0,0,0,425.19,209.4Z"/><path class="cls-1" d="M126.6,401.83a39.53,39.53,0,1,1,39.52-39.52A39.57,39.57,0,0,1,126.6,401.83Zm0-69.05a29.53,29.53,0,1,0,29.52,29.53A29.57,29.57,0,0,0,126.6,332.78Z"/><path class="cls-1" d="M50,171.31a38.58,38.58,0,1,1,38.58-38.57A38.62,38.62,0,0,1,50,171.31Zm0-67.15a28.58,28.58,0,1,0,28.58,28.58A28.61,28.61,0,0,0,50,104.16Z"/><path class="cls-1" d="M401,102.31a38.58,38.58,0,1,1,38.58-38.57A38.62,38.62,0,0,1,401,102.31Zm0-67.15a28.58,28.58,0,1,0,28.58,28.58A28.61,28.61,0,0,0,401,35.16Z"/><path class="cls-1" d="M428,468.31a45.58,45.58,0,1,1,45.58-45.57A45.63,45.63,0,0,1,428,468.31Zm0-81.15a35.58,35.58,0,1,0,35.58,35.58A35.62,35.62,0,0,0,428,387.16Z"/><path class="cls-1" d="M257,325.31a69.58,69.58,0,1,1,69.58-69.57A69.65,69.65,0,0,1,257,325.31Zm0-129.15a59.58,59.58,0,1,0,59.58,59.58A59.64,59.64,0,0,0,257,196.16Z"/></g><g id="Outline"><path class="cls-1" d="M97.2,314.79a6,6,0,0,1-5.7-4.12c-.33-1-.64-2-1-3A6,6,0,1,1,102,304.16c.29.92.58,1.84.88,2.75a6,6,0,0,1-3.81,7.58A6.2,6.2,0,0,1,97.2,314.79Zm-5.7-22.27a6,6,0,0,1-5.89-4.91c-.19-1-.37-2-.54-3.07a6,6,0,0,1,11.84-2c.16,1,.32,1.9.5,2.85a6,6,0,0,1-4.82,7A5.74,5.74,0,0,1,91.5,292.52Zm-2.61-22.83a6,6,0,0,1-6-5.72c0-1-.08-2.07-.11-3.11a6,6,0,0,1,12-.35c0,1,.07,1.94.11,2.9a6,6,0,0,1-5.71,6.27Zm.49-23-.53,0a6,6,0,0,1-5.45-6.51c.09-1,.19-2.06.29-3.09a6,6,0,0,1,11.94,1.26c-.1,1-.2,1.92-.28,2.89A6,6,0,0,1,89.38,246.71ZM92.94,224a6.18,6.18,0,0,1-1.34-.15,6,6,0,0,1-4.52-7.18c.23-1,.47-2,.72-3a6,6,0,1,1,11.65,2.87c-.23.93-.45,1.87-.67,2.82A6,6,0,0,1,92.94,224Zm6.61-22a5.88,5.88,0,0,1-2.12-.39,6,6,0,0,1-3.49-7.73c.36-1,.74-1.93,1.12-2.89a6,6,0,0,1,11.15,4.43c-.36.9-.7,1.8-1,2.7A6,6,0,0,1,99.55,202Zm310.57-14.56a6,6,0,0,1-5.4-3.37c-.42-.87-.85-1.73-1.29-2.59A6,6,0,0,1,414.11,176c.47.93.93,1.86,1.39,2.79a6,6,0,0,1-2.75,8A5.93,5.93,0,0,1,410.12,187.45Zm-301-6.32a6,6,0,0,1-5.27-8.86c.49-.91,1-1.82,1.5-2.72a6,6,0,0,1,10.44,5.91c-.47.84-.93,1.68-1.39,2.52A6,6,0,0,1,109.1,181.13Zm289.53-13.6a6,6,0,0,1-5-2.66c-.53-.8-1.08-1.6-1.63-2.39a6,6,0,1,1,9.84-6.86c.6.85,1.18,1.71,1.76,2.57a6,6,0,0,1-5,9.34Zm-277.24-5.8a5.93,5.93,0,0,1-3.54-1.16,6,6,0,0,1-1.29-8.38q.91-1.26,1.86-2.49A6,6,0,0,1,128,157c-.59.76-1.16,1.53-1.73,2.31A6,6,0,0,1,121.39,161.73Zm263.17-12.37a6,6,0,0,1-4.49-2c-.64-.72-1.28-1.43-1.94-2.14a6,6,0,0,1,8.83-8.14c.7.77,1.4,1.54,2.08,2.31a6,6,0,0,1-4.48,10ZM136.2,144.17A6,6,0,0,1,131.89,134c.72-.74,1.44-1.48,2.17-2.21a6,6,0,0,1,8.49,8.48c-.68.69-1.36,1.37-2,2.07A6,6,0,0,1,136.2,144.17Zm232-10.92a6,6,0,0,1-3.91-1.45c-.73-.63-1.47-1.25-2.21-1.86a6,6,0,0,1,7.65-9.25c.8.66,1.59,1.33,2.38,2a6,6,0,0,1-3.91,10.56Zm-214.92-4.5A6,6,0,0,1,149.53,118c.81-.64,1.63-1.27,2.46-1.9a6,6,0,1,1,7.26,9.55L157,127.46A6,6,0,0,1,153.25,128.75Zm196.51-9.26a6,6,0,0,1-3.25-1c-.81-.52-1.62-1-2.44-1.54a6,6,0,0,1,6.33-10.2c.88.55,1.76,1.1,2.62,1.67a6,6,0,0,1-3.26,11Zm-177.54-3.71a6,6,0,0,1-3.05-11.17c.89-.53,1.79-1,2.69-1.56a6,6,0,1,1,5.91,10.45c-.84.47-1.68,1-2.51,1.45A6,6,0,0,1,172.22,115.78Zm157.45-7.42a5.91,5.91,0,0,1-2.54-.57l-2.63-1.2a6,6,0,1,1,4.9-11l2.82,1.28a6,6,0,0,1-2.55,11.44Zm-136.9-2.87A6,6,0,0,1,190.45,94l2.9-1.18a6,6,0,0,1,4.42,11.16c-.9.35-1.79.72-2.68,1.09A5.94,5.94,0,0,1,192.77,105.49Zm115.49-5.42a5.85,5.85,0,0,1-1.78-.28L303.72,99a6,6,0,1,1,3.36-11.52l3,.89a6,6,0,0,1-1.78,11.74Zm-93.72-2A6,6,0,0,1,213,86.29c1-.26,2-.52,3-.76a6,6,0,0,1,2.87,11.65l-2.81.71A5.83,5.83,0,0,1,214.54,98.1Zm71.38-3.33a6.61,6.61,0,0,1-1-.08c-.95-.16-1.9-.31-2.86-.45a6,6,0,1,1,1.76-11.87q1.53.22,3.06.48a6,6,0,0,1-1,11.92Zm-48.82-1a6,6,0,0,1-.73-12c1-.13,2.06-.24,3.09-.35a6,6,0,0,1,1.25,11.93c-1,.1-1.92.21-2.87.33A6.27,6.27,0,0,1,237.1,93.75Zm26-1.21h-.18c-1,0-1.93-.05-2.9-.06a6,6,0,0,1,.08-12h.07l3.1.07a6,6,0,0,1-.17,12Z"/><path class="cls-1" d="M260.81,431a6,6,0,0,1-.09-12c1,0,1.93,0,2.89-.08a6,6,0,0,1,.41,12l-3.1.08Zm-20-.84-.61,0c-1-.1-2.05-.21-3.08-.33a6,6,0,0,1,1.41-11.92c1,.11,1.92.22,2.88.31a6,6,0,0,1-.6,12Zm42.85-1.08a6,6,0,0,1-.89-11.93c.95-.15,1.9-.3,2.85-.47a6,6,0,1,1,2,11.83c-1,.18-2,.34-3.06.5A5.7,5.7,0,0,1,283.7,429.06Zm-65.5-2.76a5.78,5.78,0,0,1-1.41-.17c-1-.24-2-.49-3-.75a6,6,0,0,1,3-11.62c.93.25,1.87.48,2.8.71a6,6,0,0,1-1.4,11.83Zm87.93-2.25a6,6,0,0,1-1.7-11.75l2.78-.85a6,6,0,0,1,3.62,11.44c-1,.31-2,.62-3,.91A6,6,0,0,1,306.13,424.05Zm-109.85-4.64a6,6,0,0,1-2.18-.42c-1-.38-1.93-.76-2.89-1.16a6,6,0,1,1,4.58-11.09c.89.37,1.78.73,2.68,1.08a6,6,0,0,1-2.19,11.59ZM327.69,416a6,6,0,0,1-2.47-11.47l2.63-1.22A6,6,0,1,1,333,414.18c-.94.45-1.88.88-2.83,1.31A6,6,0,0,1,327.69,416ZM175.5,409.58a6,6,0,0,1-2.92-.76c-.9-.5-1.8-1-2.7-1.54a6,6,0,0,1,6-10.37c.84.49,1.67,1,2.52,1.44a6,6,0,0,1-2.94,11.23ZM348,405.14a6,6,0,0,1-3.2-11.08c.82-.51,1.63-1,2.44-1.56a6,6,0,1,1,6.56,10c-.86.57-1.74,1.13-2.61,1.68A6,6,0,0,1,348,405.14Zm18.58-13.52A6,6,0,0,1,362.68,381l2.2-1.87a6,6,0,0,1,7.87,9.06l-2.37,2A6,6,0,0,1,366.53,391.62Zm16.59-15.91a6,6,0,0,1-4.44-10c.65-.71,1.29-1.43,1.93-2.15a6,6,0,1,1,9,7.92c-.68.78-1.37,1.55-2.07,2.32A6,6,0,0,1,383.12,375.71Zm14.28-18a6,6,0,0,1-4.93-9.41c.55-.79,1.09-1.59,1.62-2.39a6,6,0,1,1,10,6.64l-1.74,2.57A6,6,0,0,1,397.4,357.73ZM409.13,338a6,6,0,0,1-5.35-8.71c.44-.86.86-1.72,1.28-2.59a6,6,0,0,1,10.8,5.23c-.45.93-.9,1.85-1.37,2.77A6,6,0,0,1,409.13,338Zm8.95-21.16a6.11,6.11,0,0,1-2-.33,6,6,0,0,1-3.72-7.62c.32-.92.62-1.83.92-2.75a6,6,0,1,1,11.41,3.7c-.31,1-.64,2-1,2.95A6,6,0,0,1,418.08,316.83Zm6-22.19a6.8,6.8,0,0,1-1.17-.11,6,6,0,0,1-4.72-7c.19-.94.36-1.89.53-2.84a6,6,0,0,1,11.82,2.11c-.18,1-.38,2-.58,3.05A6,6,0,0,1,424.05,294.64Z"/><path class="cls-1" d="M470.37,372.82a5.89,5.89,0,0,1-2.77-.69,6,6,0,0,1-2.55-8.09c.45-.86.9-1.73,1.34-2.6a6,6,0,0,1,10.71,5.41c-.46.92-.93,1.83-1.41,2.74A6,6,0,0,1,470.37,372.82ZM480,352a6,6,0,0,1-5.56-8.26c.37-.9.73-1.8,1.08-2.71a6,6,0,0,1,11.18,4.36c-.37,1-.75,1.91-1.14,2.86A6,6,0,0,1,480,352Zm7.59-21.7a6,6,0,0,1-5.75-7.71c.28-.93.55-1.86.81-2.8A6,6,0,1,1,494.21,323c-.28,1-.56,2-.86,3A6,6,0,0,1,487.6,330.25Zm5.48-22.33a5.76,5.76,0,0,1-1.16-.11,6,6,0,0,1-4.74-7c.19-1,.36-1.91.54-2.87a6,6,0,0,1,11.81,2.14l-.57,3A6,6,0,0,1,493.08,307.92Zm3.3-22.74a5.63,5.63,0,0,1-.58,0,6,6,0,0,1-5.4-6.55c.09-1,.18-1.93.26-2.91a6,6,0,0,1,12,1c-.09,1-.18,2-.28,3.06A6,6,0,0,1,496.38,285.18Zm1.12-23a6,6,0,0,1-6-6v-.52c0-.79,0-1.6,0-2.42a6,6,0,1,1,12-.13c0,.86,0,1.72,0,2.58v.49A6,6,0,0,1,497.5,262.22Zm-1-23a6,6,0,0,1-6-5.45c-.09-1-.19-2-.29-2.92a6,6,0,0,1,11.93-1.26c.11,1,.21,2,.31,3.07a6,6,0,0,1-5.42,6.53Zm-3.22-22.78a6,6,0,0,1-5.89-4.88c-.18-1-.37-1.92-.56-2.87a6,6,0,1,1,11.76-2.39c.2,1,.4,2,.59,3a6,6,0,0,1-4.77,7A6.24,6.24,0,0,1,493.24,216.47Zm-5.38-22.35a6,6,0,0,1-5.75-4.32l-.84-2.81a6,6,0,0,1,11.47-3.51c.3,1,.6,2,.88,3a6,6,0,0,1-4.07,7.44A5.82,5.82,0,0,1,487.86,194.12Zm-7.5-21.74a6,6,0,0,1-5.57-3.77c-.36-.91-.73-1.81-1.11-2.71a6,6,0,0,1,11.09-4.6c.39.95.78,1.9,1.16,2.85a6,6,0,0,1-5.57,8.23Zm-9.56-20.91a6,6,0,0,1-5.33-3.25c-.45-.86-.9-1.73-1.36-2.59A6,6,0,0,1,474.7,140c.48.91,1,1.82,1.43,2.73a6,6,0,0,1-5.33,8.76Zm-11.52-19.9a6,6,0,0,1-5-2.75c-.52-.82-1.06-1.63-1.6-2.45a6,6,0,0,1,10-6.63c.57.85,1.13,1.71,1.69,2.58a6,6,0,0,1-5,9.25Z"/><path class="cls-1" d="M257,502.29h-.42a6,6,0,1,1,0-12H257l2.53,0h.06a6,6,0,0,1,.06,12Zm-20.38-.86a4.35,4.35,0,0,1-.51,0l-3.06-.27a6,6,0,0,1,1.15-11.95c1,.1,1.94.18,2.91.27a6,6,0,0,1-.49,12Zm42.93-.19a6,6,0,0,1-.54-12l2.91-.29a6,6,0,1,1,1.26,11.93l-3.06.31A5.43,5.43,0,0,1,279.5,501.24Zm-65.72-2.81a6.56,6.56,0,0,1-1.07-.1l-3-.57A6,6,0,0,1,212,486q1.44.28,2.88.54a6,6,0,0,1-1.07,11.91Zm88.5-.41a6,6,0,0,1-1.12-11.89c1-.18,1.92-.37,2.87-.57a6,6,0,0,1,2.4,11.76c-1,.21-2,.4-3,.6A6.24,6.24,0,0,1,302.28,498Zm-110.89-4.77a6.11,6.11,0,0,1-1.63-.23l-3-.86a6,6,0,1,1,3.41-11.5l2.8.81a6,6,0,0,1-1.62,11.78Zm133.25-.62A6,6,0,0,1,323,480.87c.93-.27,1.87-.55,2.8-.84a6,6,0,0,1,3.52,11.47c-1,.31-2,.6-2.95.89A6.21,6.21,0,0,1,324.64,492.63Zm-155-6.69a6.13,6.13,0,0,1-2.17-.41l-2.87-1.14a6,6,0,1,1,4.51-11.12l2.71,1.07a6,6,0,0,1-2.18,11.6Zm176.79-.82a6,6,0,0,1-2.23-11.57l2.7-1.11a6,6,0,0,1,4.61,11.08c-.95.4-1.9.78-2.86,1.17A6,6,0,0,1,346.38,485.12Zm-197.77-8.55a5.93,5.93,0,0,1-2.7-.65l-2.73-1.39a6,6,0,0,1,5.54-10.65c.87.45,1.73.9,2.6,1.33a6,6,0,0,1-2.71,11.36Zm218.68-1a6,6,0,0,1-2.76-11.33l2.59-1.36a6,6,0,0,1,5.65,10.59L370,474.88A6,6,0,0,1,367.29,475.55ZM128.63,465.24a5.94,5.94,0,0,1-3.2-.93c-.87-.54-1.73-1.1-2.59-1.65a6,6,0,0,1,6.54-10.07c.81.53,1.63,1.06,2.46,1.58a6,6,0,0,1-3.21,11.07Zm-18.82-13.18a6,6,0,0,1-3.67-1.26l-2.42-1.89a6,6,0,0,1,7.47-9.4c.76.61,1.53,1.21,2.3,1.8a6,6,0,0,1-3.68,10.75ZM92.33,437.14a6,6,0,0,1-4.11-1.63L86,433.4a6,6,0,0,1,8.32-8.65c.7.68,1.41,1.35,2.12,2a6,6,0,0,1-4.11,10.38Zm-16-16.51a6,6,0,0,1-4.5-2c-.68-.76-1.35-1.54-2-2.32a6,6,0,0,1,9.1-7.82l1.92,2.21a6,6,0,0,1-4.5,10ZM62,402.67a6,6,0,0,1-4.86-2.48c-.61-.83-1.2-1.67-1.8-2.51a6,6,0,1,1,9.81-6.91l1.7,2.38A6,6,0,0,1,62,402.67ZM49.41,383.42a6,6,0,0,1-5.18-3c-.52-.89-1-1.77-1.55-2.67a6,6,0,0,1,10.43-5.94l1.46,2.53a6,6,0,0,1-5.16,9ZM38.72,363.06a6,6,0,0,1-5.45-3.48c-.43-.93-.86-1.86-1.28-2.8a6,6,0,1,1,10.94-4.92c.4.89.81,1.78,1.22,2.66a6,6,0,0,1-5.43,8.54ZM30,341.75a6,6,0,0,1-5.66-4c-.34-1-.68-1.95-1-2.92A6,6,0,0,1,34.73,331c.31.93.63,1.85,1,2.77a6,6,0,0,1-5.65,8Zm-6.6-22a6,6,0,0,1-5.82-4.56c-.25-1-.49-2-.72-3a6,6,0,1,1,11.68-2.73c.22.95.45,1.89.69,2.84a6,6,0,0,1-5.83,7.44ZM19,297.17a6,6,0,0,1-5.93-5.12c-.15-1-.29-2-.43-3.05a6,6,0,1,1,11.9-1.6c.13,1,.26,1.93.4,2.89a6,6,0,0,1-5.05,6.82A6.77,6.77,0,0,1,19,297.17ZM16.72,274.3a6,6,0,0,1-6-5.69c-.05-1-.1-2.05-.14-3.07a6,6,0,1,1,12-.47c0,1,.08,1.95.13,2.92a6,6,0,0,1-5.68,6.3Zm-.1-23h-.26a6,6,0,0,1-5.74-6.25l.15-3.07a6,6,0,0,1,12,.66c-.06,1-.1,1.94-.15,2.92A6,6,0,0,1,16.62,251.31Zm2.07-22.89a5.9,5.9,0,0,1-.83-.06,6,6,0,0,1-5.12-6.77c.14-1,.29-2,.44-3a6,6,0,0,1,11.87,1.8c-.15,1-.29,1.92-.42,2.89A6,6,0,0,1,18.69,228.42Zm4.24-22.6a6,6,0,0,1-5.84-7.38c.24-1,.48-2,.73-3a6,6,0,1,1,11.64,2.92c-.24.95-.47,1.89-.69,2.84A6,6,0,0,1,22.93,205.82Z"/><path class="cls-1" d="M99,80.26A6,6,0,0,1,95.1,69.73l2.33-2a6,6,0,0,1,7.77,9.15L103,78.79A6,6,0,0,1,99,80.26Zm18-14.26a6,6,0,0,1-3.49-10.88l2.51-1.77A6,6,0,0,1,123,63.19c-.8.56-1.6,1.12-2.39,1.69A6,6,0,0,1,117.08,66ZM136.4,53.53a6,6,0,0,1-3-11.2l2.67-1.52a6,6,0,1,1,5.89,10.45l-2.54,1.46A5.93,5.93,0,0,1,136.4,53.53ZM156.82,43a6,6,0,0,1-2.51-11.45l2.81-1.27a6,6,0,1,1,4.86,11l-2.67,1.21A6,6,0,0,1,156.82,43ZM339,35.56a5.92,5.92,0,0,1-2.05-.37l-2.75-1a6,6,0,1,1,4-11.33l2.89,1a6,6,0,0,1-2,11.64ZM178.16,34.39a6,6,0,0,1-2-11.68l2.92-1a6,6,0,1,1,3.79,11.39l-2.78.94A5.86,5.86,0,0,1,178.16,34.39Zm138.92-5.63a6,6,0,0,1-1.5-.19l-2.83-.71A6,6,0,1,1,315.6,16.2c1,.24,2,.49,3,.75a6,6,0,0,1-1.5,11.81Zm-116.86-.85a6,6,0,0,1-1.4-11.83c1-.25,2-.48,3-.71a6,6,0,0,1,2.67,11.7l-2.86.67A5.67,5.67,0,0,1,200.22,27.91Zm94.36-3.8a6,6,0,0,1-.94-.08l-2.9-.43a6,6,0,0,1,1.73-11.88l3,.46a6,6,0,0,1-.92,11.93Zm-71.77-.52A6,6,0,0,1,222,11.64l3.05-.41a6,6,0,0,1,1.54,11.9l-2.9.4A6.22,6.22,0,0,1,222.81,23.59Zm48.91-2h-.37c-1-.06-1.94-.12-2.91-.16a6,6,0,0,1,.56-12l3.08.17a6,6,0,0,1-.36,12Zm-26-.19a6,6,0,0,1-.27-12l3.07-.13a6,6,0,0,1,.4,12l-2.92.11Z"/><path class="cls-1" d="M218.8,166.89a5,5,0,0,1-4.63-3.11l-5.94-14.56a5,5,0,0,1,9.27-3.77L223.42,160a5,5,0,0,1-4.62,6.89Z"/><path class="cls-1" d="M301.16,369a5,5,0,0,1-4.63-3.11L290.05,350a5,5,0,0,1,9.26-3.77l6.48,15.91a5,5,0,0,1-4.63,6.89Z"/><path class="cls-1" d="M350.9,221.75a5,5,0,0,1-1.89-9.63l14.55-5.94a5,5,0,1,1,3.77,9.26l-14.55,5.94A5,5,0,0,1,350.9,221.75Z"/><path class="cls-1" d="M147.64,304.58a5,5,0,0,1-1.89-9.63l15.92-6.48a5,5,0,0,1,3.77,9.26l-15.92,6.48A5,5,0,0,1,147.64,304.58Z"/><path class="cls-1" d="M163.53,221.05a5.08,5.08,0,0,1-1.93-.39l-14.49-6.1a5,5,0,1,1,3.88-9.22l14.48,6.1a5,5,0,0,1-1.94,9.61Z"/><path class="cls-1" d="M364.7,305.73a4.91,4.91,0,0,1-1.94-.39l-15.84-6.67a5,5,0,1,1,3.88-9.21l15.84,6.66a5,5,0,0,1-1.94,9.61Z"/><path class="cls-1" d="M295.73,166.43a5.13,5.13,0,0,1-1.94-.39,5,5,0,0,1-2.67-6.55l6.1-14.48a5,5,0,1,1,9.22,3.88l-6.1,14.48A5,5,0,0,1,295.73,166.43Z"/><path class="cls-1" d="M210.58,368.73a4.94,4.94,0,0,1-1.94-.39,5,5,0,0,1-2.67-6.55L212.64,346a5,5,0,1,1,9.22,3.88l-6.67,15.84A5,5,0,0,1,210.58,368.73Z"/><path class="cls-1" d="M185.77,188.54a5,5,0,0,1-3.56-1.48L171.15,175.9a5,5,0,0,1,7.11-7L189.32,180a5,5,0,0,1,0,7.07A4.94,4.94,0,0,1,185.77,188.54Z"/><path class="cls-1" d="M339.4,343.57a5,5,0,0,1-3.55-1.48l-12.1-12.2a5,5,0,0,1,7.1-7l12.1,12.2a5,5,0,0,1-3.55,8.52Z"/><path class="cls-1" d="M328.8,188.5a5,5,0,0,1-3.52-8.55l11.17-11.07a5,5,0,0,1,7,7.11l-11.16,11.06A5,5,0,0,1,328.8,188.5Z"/><path class="cls-1" d="M172.91,343a5,5,0,0,1-3.52-8.55l12.2-12.1a5,5,0,0,1,7,7.11l-12.21,12.1A5,5,0,0,1,172.91,343Z"/><path class="cls-1" d="M155.52,259.77h0l-15.71-.07a5,5,0,0,1,0-10h0l15.72.07a5,5,0,0,1,0,10Z"/><path class="cls-1" d="M373.78,260.75h0l-17.18-.07a5,5,0,0,1,0-10h0l17.19.07a5,5,0,0,1,0,10Z"/><path class="cls-1" d="M256.63,158.59h0a5,5,0,0,1-5-5l.08-15.72a5,5,0,0,1,5-5h0a5,5,0,0,1,5,5l-.08,15.71A5,5,0,0,1,256.63,158.59Z"/><path class="cls-1" d="M255.65,378.08h0a5,5,0,0,1-5-5l.08-17.19a5,5,0,0,1,5-5h0a5,5,0,0,1,5,5l-.08,17.18A5,5,0,0,1,255.65,378.08Z"/></g></svg>