<?xml version="1.0" ?><svg viewBox="0 0 512 512" xmlns="http://www.w3.org/2000/svg"><defs><style>.cls-1{fill:#3f456b;}</style></defs><title/><g id="Lines"><path class="cls-1" d="M65.84,455.15A37.78,37.78,0,0,1,28.1,417.41V181.76c0-42.56,41-44.86,41.43-44.88H122a5,5,0,0,1,0,10H69.89A41,41,0,0,0,53.59,152c-10.28,5.95-15.49,16-15.49,29.77V417.41a27.77,27.77,0,0,0,27.74,27.74,5,5,0,1,1,0,10Z"/><path class="cls-1" d="M122,453.2h0a5,5,0,0,1-5-5l.9-118.75.1-36.49L116.65,97.42a5,5,0,0,1,.65-2.5L163,14.26a5,5,0,0,1,4.41-2.53,5,5,0,0,1,4.35,2.63l43.11,80.22a5,5,0,0,1,.59,2.36l.36,350.83a5,5,0,0,1-5,5h0a5,5,0,0,1-5-5l-.36-349.57L167.2,27.08l-40.54,71.6L128,292.91l-.1,36.56L127,448.24A5,5,0,0,1,122,453.2Z"/><rect class="cls-1" height="10" transform="translate(-2.06 0.82) rotate(-0.28)" width="89.44" x="121.21" y="416.78"/><rect class="cls-1" height="10" transform="translate(-1.8 0.82) rotate(-0.28)" width="89.44" x="123.2" y="364.61"/><path class="cls-1" d="M404.72,450h-10V21H294.28V450h-10V16a5,5,0,0,1,5-5H399.72a5,5,0,0,1,5,5Z"/><path class="cls-1" d="M433,455a5,5,0,0,1-5-5V224H400a5,5,0,0,1,0-10h33a5,5,0,0,1,5,5V450A5,5,0,0,1,433,455Z"/><path class="cls-1" d="M288.38,224H211a5,5,0,0,1,0-10h77.4a5,5,0,0,1,0,10Z"/><path class="cls-1" d="M79,455a5,5,0,0,1-5-5V219a5,5,0,0,1,5-5h42.62a5,5,0,0,1,0,10H84V450A5,5,0,0,1,79,455Z"/><path class="cls-1" d="M338.14,477.79H167.84A15.8,15.8,0,0,1,152.06,462V450.15a5,5,0,0,1,10,0V462a5.79,5.79,0,0,0,5.78,5.78h170.3a5.79,5.79,0,0,0,5.78-5.78V450.15a5,5,0,0,1,10,0V462A15.8,15.8,0,0,1,338.14,477.79Z"/><path class="cls-1" d="M459.83,501.5H47.52A37.78,37.78,0,0,1,9.78,463.76V450.15a5,5,0,0,1,5-5h477.5a5,5,0,0,1,5,5v13.61A37.64,37.64,0,0,1,459.83,501.5Zm-440-46.35v8.61A27.77,27.77,0,0,0,47.52,491.5H459.83a27.63,27.63,0,0,0,27.45-27.74v-8.61Z"/><path class="cls-1" d="M289.28,146.88H211a5,5,0,0,1,0-10h78.28a5,5,0,0,1,0,10Z"/><path class="cls-1" d="M441.21,455.15a5,5,0,1,1,0-10A27.77,27.77,0,0,0,469,417.41V174.62a27.77,27.77,0,0,0-27.75-27.74H399.72a5,5,0,0,1,0-10h41.49A37.79,37.79,0,0,1,479,174.62V417.41A37.79,37.79,0,0,1,441.21,455.15Z"/></g><g id="Outline"><rect class="cls-1" height="10" transform="translate(-1.93 0.82) rotate(-0.28)" width="89.44" x="121.74" y="390.38"/><path class="cls-1" d="M327,243H289.28a5,5,0,0,1,0-10H327a5,5,0,0,1,0,10Z"/><path class="cls-1" d="M327,146.06H289.28a5,5,0,0,1,0-10H327a5,5,0,0,1,0,10Z"/><path class="cls-1" d="M313.55,210.11H289.28a5,5,0,0,1,0-10h24.27a5,5,0,1,1,0,10Z"/><path class="cls-1" d="M313.55,178.09H289.28a5,5,0,0,1,0-10h24.27a5,5,0,0,1,0,10Z"/><path class="cls-1" d="M327,50H289.28a5,5,0,0,1,0-10H327a5,5,0,0,1,0,10Z"/><path class="cls-1" d="M313.55,114H289.28a5,5,0,0,1,0-10h24.27a5,5,0,0,1,0,10Z"/><path class="cls-1" d="M313.55,82H289.28a5,5,0,0,1,0-10h24.27a5,5,0,0,1,0,10Z"/><path class="cls-1" d="M327,339H289.28a5,5,0,0,1,0-10H327a5,5,0,0,1,0,10Z"/><path class="cls-1" d="M313.55,307H289.28a5,5,0,0,1,0-10h24.27a5,5,0,0,1,0,10Z"/><path class="cls-1" d="M327,435.1H289.28a5,5,0,0,1,0-10H327a5,5,0,0,1,0,10Z"/><path class="cls-1" d="M313.55,371.06H289.28a5,5,0,0,1,0-10h24.27a5,5,0,0,1,0,10Z"/><path class="cls-1" d="M313.55,403.08H289.28a5,5,0,0,1,0-10h24.27a5,5,0,0,1,0,10Z"/><path class="cls-1" d="M313.55,275H289.28a5,5,0,0,1,0-10h24.27a5,5,0,0,1,0,10Z"/></g></svg>