<?xml version="1.0" ?><svg viewBox="0 0 512 512" xmlns="http://www.w3.org/2000/svg"><defs><style>.cls-1{fill:#3f456b;}</style></defs><title/><g id="Lines"><path class="cls-1" d="M51.3,496.93h0a5,5,0,0,1-3.53-1.46L13.83,461.53a5,5,0,0,1,0-7.07l62.22-62.23a5,5,0,0,1,7.07,0l33.95,33.94a5,5,0,0,1,0,7.07L54.84,495.47A5,5,0,0,1,51.3,496.93ZM24.43,458,51.3,484.86l55.16-55.15L79.59,402.84Z"/><path class="cls-1" d="M229.69,460.71c-7.15,0-15.55-2.51-23.81-10.78L61.34,305.39c-20.61-20.6-6.64-47.37.78-54.78L217.63,95.09a18.52,18.52,0,0,1,13.57-5.38,19.44,19.44,0,0,1,13.33,5.72L414.3,265.2a18.47,18.47,0,0,1,5.5,13.27,18.8,18.8,0,0,1-5.59,13.2L258.61,447.26c-2.67,2.67-9.91,9.18-19.57,12.05A32.81,32.81,0,0,1,229.69,460.71Zm1.05-361a8.45,8.45,0,0,0-6,2.45L69.19,257.68c-3.22,3.21-17,24.38-.78,40.64L213,442.86c7.15,7.15,14.75,9.39,23.24,6.87,7.68-2.28,13.69-7.88,15.35-9.54h0L407.13,284.6a8.54,8.54,0,0,0,.1-12.33L237.46,102.5a9.51,9.51,0,0,0-6.5-2.79Z"/><path class="cls-1" d="M125.3,442.54a14.22,14.22,0,0,1-10.14-4.13L71.32,394.57a15.62,15.62,0,0,1,.17-21.81l32.14-32.15a5,5,0,1,1,7.07,7.07L78.56,379.83a5.65,5.65,0,0,0-.17,7.67l43.84,43.84c1.86,1.86,5,1.6,7.24-.6l32.14-32.14a5,5,0,1,1,7.07,7.07l-32.14,32.14A15.94,15.94,0,0,1,125.3,442.54Z"/><path class="cls-1" d="M394.25,257.23a5,5,0,0,1-3.53-8.54l92.49-92.49a25,25,0,0,0,0-35.35L389.87,27.51a25,25,0,0,0-35.36,0L262,120a5,5,0,0,1-7.07-7.07l92.49-92.49a35,35,0,0,1,49.5,0l93.34,93.34a35,35,0,0,1,0,49.49l-92.49,92.49A5,5,0,0,1,394.25,257.23Z"/></g><g id="Outline"><path class="cls-1" d="M380.82,296.77a5,5,0,0,1,0-7.07h0a5,5,0,0,1,7.07,0h0a5,5,0,0,1,0,7.07h0a5,5,0,0,1-3.54,1.47h0A5,5,0,0,1,380.82,296.77Zm-14.15-14.14a5,5,0,0,1,0-7.07h0a5,5,0,0,1,7.08,0h0a5,5,0,0,1,0,7.07h0a5,5,0,0,1-3.54,1.46h0A5,5,0,0,1,366.67,282.63Zm-14.14-14.14a5,5,0,0,1,0-7.07h0a5,5,0,0,1,7.07,0h0a5,5,0,0,1,0,7.07h0a5,5,0,0,1-3.53,1.46h0A5,5,0,0,1,352.53,268.49Zm-14.14-14.15a5,5,0,0,1,0-7.06h0a5,5,0,0,1,7.07,0h0a5,5,0,0,1,0,7.06h0a5,5,0,0,1-3.53,1.47h0A5,5,0,0,1,338.39,254.34ZM324.25,240.2a5,5,0,0,1,0-7.07h0a5,5,0,0,1,7.07,0h0a5,5,0,0,1,0,7.07h0a5,5,0,0,1-3.54,1.47h0A5,5,0,0,1,324.25,240.2Zm-14.14-14.14a5,5,0,0,1,0-7.07h0a5,5,0,0,1,7.07,0h0a5,5,0,0,1,0,7.07h0a5,5,0,0,1-3.54,1.46h0A4.94,4.94,0,0,1,310.11,226.06ZM296,211.92a5,5,0,0,1,0-7.07h0a5,5,0,0,1,7.08,0h0a5,5,0,0,1,0,7.07h0a5,5,0,0,1-3.54,1.46h0A5,5,0,0,1,296,211.92Zm-14.14-14.14a5,5,0,0,1,0-7.07h0a5,5,0,0,1,7.07,0h0a5,5,0,0,1,0,7.07h0a5,5,0,0,1-3.53,1.46h0A5,5,0,0,1,281.82,197.78Zm-14.14-14.14a5,5,0,0,1,0-7.08h0a5,5,0,0,1,7.07,0h0a5,5,0,0,1,0,7.08h0a5,5,0,0,1-3.54,1.46h0A5,5,0,0,1,267.68,183.64Zm-14.14-14.15a5,5,0,0,1,0-7.07h0a5,5,0,0,1,7.07,0h0a5,5,0,0,1,0,7.07h0a5,5,0,0,1-3.54,1.47h0A5,5,0,0,1,253.54,169.49ZM239.4,155.35a5,5,0,0,1,0-7.07h0a5,5,0,0,1,7.07,0h0a5,5,0,0,1,0,7.07h0a5,5,0,0,1-3.54,1.47h0A5,5,0,0,1,239.4,155.35Zm-14.15-14.14a5,5,0,0,1,0-7.07h0a5,5,0,0,1,7.07,0h0a5,5,0,0,1,0,7.07h0a4.94,4.94,0,0,1-3.53,1.46h0A5,5,0,0,1,225.25,141.21Zm-14.14-14.14a5,5,0,0,1,0-7.08h0a5,5,0,0,1,7.07,0h0a5,5,0,0,1,0,7.08h0a5,5,0,0,1-3.53,1.46h0A5,5,0,0,1,211.11,127.07Z"/><path class="cls-1" d="M350.93,84.18a5,5,0,0,1-3.54-8.54L367.9,55.13A5,5,0,1,1,375,62.21l-20.51,20.5A5,5,0,0,1,350.93,84.18Z"/><path class="cls-1" d="M432.24,165.49a5,5,0,0,1-3.53-8.53l20.5-20.51a5,5,0,1,1,7.07,7.07L435.78,164A5,5,0,0,1,432.24,165.49Z"/><path class="cls-1" d="M416,149.23a5,5,0,0,1-3.54-8.53L433,120.19a5,5,0,1,1,7.07,7.07l-20.5,20.51A5,5,0,0,1,416,149.23Z"/><path class="cls-1" d="M383.45,116.7a5,5,0,0,1-3.53-8.53l20.5-20.51a5,5,0,1,1,7.07,7.07L387,115.24A5,5,0,0,1,383.45,116.7Z"/><path class="cls-1" d="M367.19,100.44a5,5,0,0,1-3.54-8.54l20.51-20.5a5,5,0,1,1,7.07,7.07L370.73,99A5,5,0,0,1,367.19,100.44Z"/><path class="cls-1" d="M399.72,133a5,5,0,0,1-3.54-8.54l20.51-20.5a5,5,0,1,1,7.07,7.07l-20.51,20.5A5,5,0,0,1,399.72,133Z"/></g></svg>