<?xml version="1.0" ?><svg viewBox="0 0 512 512" xmlns="http://www.w3.org/2000/svg"><defs><style>.cls-1{fill:#3f456b;}</style></defs><title/><g id="Lines"><path class="cls-1" d="M256.5,500.5A28.5,28.5,0,1,1,285,472,28.54,28.54,0,0,1,256.5,500.5Zm0-47A18.5,18.5,0,1,0,275,472,18.52,18.52,0,0,0,256.5,453.5Z"/><path class="cls-1" d="M472.5,300.5a29,29,0,1,1,29-29A29,29,0,0,1,472.5,300.5Zm0-48a19,19,0,1,0,19,19A19,19,0,0,0,472.5,252.5Z"/><path class="cls-1" d="M39,300.5a29,29,0,1,1,29-29A29,29,0,0,1,39,300.5Zm0-48a19,19,0,1,0,19,19A19,19,0,0,0,39,252.5Z"/><path class="cls-1" d="M472.5,437a29,29,0,1,1,29-29A29,29,0,0,1,472.5,437Zm0-48a19,19,0,1,0,19,19A19,19,0,0,0,472.5,389Z"/><path class="cls-1" d="M39,437a29,29,0,1,1,29-29A29,29,0,0,1,39,437Zm0-48a19,19,0,1,0,19,19A19,19,0,0,0,39,389Z"/><path class="cls-1" d="M390.52,372.27h-268a25,25,0,0,1-25-25V181.92a25,25,0,0,1,25-25h268a25,25,0,0,1,25,25V347.27A25,25,0,0,1,390.52,372.27Zm-268-205.35a15,15,0,0,0-15,15V347.27a15,15,0,0,0,15,15h268a15,15,0,0,0,15-15V181.92a15,15,0,0,0-15-15Z"/><path class="cls-1" d="M277.57,320.93H233.83a5,5,0,0,1-4.93-5.85L238.07,262a30,30,0,0,1,18.43-53.7,30,30,0,0,1,16.93,54.81l9.07,52a5,5,0,0,1-4.93,5.86Zm-37.8-10h31.86L263,261.4a5,5,0,0,1,2.64-5.31,20,20,0,1,0-19.49-.7,5,5,0,0,1,2.33,5.12Z"/><path class="cls-1" d="M356.22,166.92a5,5,0,0,1-5-5V115.4a95,95,0,1,0-190,0v46.52a5,5,0,0,1-10,0V115.4a105,105,0,1,1,210,0v46.52A5,5,0,0,1,356.22,166.92Z"/><path class="cls-1" d="M316.83,166.92a5,5,0,0,1-5-5V112.64a55.61,55.61,0,1,0-111.22,0v49.28a5,5,0,0,1-10,0V112.64a65.61,65.61,0,1,1,131.22,0v49.28A5,5,0,0,1,316.83,166.92Z"/></g><g id="Outline"><path class="cls-1" d="M251.5,448.5a5,5,0,0,1,5-5h0a5,5,0,0,1,5,5h0a5,5,0,0,1-5,5h0A5,5,0,0,1,251.5,448.5Zm0-20a5,5,0,0,1,5-5h0a5,5,0,0,1,5,5h0a5,5,0,0,1-5,5h0A5,5,0,0,1,251.5,428.5Zm0-20a5,5,0,0,1,5-5h0a5,5,0,0,1,5,5h0a5,5,0,0,1-5,5h0A5,5,0,0,1,251.5,408.5Zm0-20a5,5,0,0,1,5-5h0a5,5,0,0,1,5,5h0a5,5,0,0,1-5,5h0A5,5,0,0,1,251.5,388.5Z"/><path class="cls-1" d="M476.89,471.5a5,5,0,0,1,5-5h0a5,5,0,0,1,5,5h0a5,5,0,0,1-5,5h0A5,5,0,0,1,476.89,471.5Zm-20,0a5,5,0,0,1,5-5h0a5,5,0,0,1,5,5h0a5,5,0,0,1-5,5h0A5,5,0,0,1,456.89,471.5Zm-20,0a5,5,0,0,1,5-5h0a5,5,0,0,1,5,5h0a5,5,0,0,1-5,5h0A5,5,0,0,1,436.89,471.5Zm-20,0a5,5,0,0,1,5-5h0a5,5,0,0,1,5,5h0a5,5,0,0,1-5,5h0A5,5,0,0,1,416.89,471.5Zm-20,0a5,5,0,0,1,5-5h0a5,5,0,0,1,5,5h0a5,5,0,0,1-5,5h0A5,5,0,0,1,396.89,471.5Zm-20,0a5,5,0,0,1,5-5h0a5,5,0,0,1,5,5h0a5,5,0,0,1-5,5h0A5,5,0,0,1,376.89,471.5Zm-20,0a5,5,0,0,1,5-5h0a5,5,0,0,1,5,5h0a5,5,0,0,1-5,5h0A5,5,0,0,1,356.88,471.5Zm-20,0a5,5,0,0,1,5-5h0a5,5,0,0,1,5,5h0a5,5,0,0,1-5,5h0A5,5,0,0,1,336.88,471.5Zm-20,0a5,5,0,0,1,5-5h0a5,5,0,0,1,5,5h0a5,5,0,0,1-5,5h0A5,5,0,0,1,316.89,471.5Zm-20,0a5,5,0,0,1,5-5h0a5,5,0,0,1,5,5h0a5,5,0,0,1-5,5h0A5,5,0,0,1,296.89,471.5Zm-20,0a5,5,0,0,1,5-5h0a5,5,0,0,1,5,5h0a5,5,0,0,1-5,5h0A5,5,0,0,1,276.89,471.5Z"/><path class="cls-1" d="M213.5,471.5a5,5,0,0,1,5-5h0a5,5,0,0,1,5,5h0a5,5,0,0,1-5,5h0A5,5,0,0,1,213.5,471.5Zm-20,0a5,5,0,0,1,5-5h0a5,5,0,0,1,5,5h0a5,5,0,0,1-5,5h0A5,5,0,0,1,193.5,471.5Zm-20,0a5,5,0,0,1,5-5h0a5,5,0,0,1,5,5h0a5,5,0,0,1-5,5h0A5,5,0,0,1,173.5,471.5Zm-20,0a5,5,0,0,1,5-5h0a5,5,0,0,1,5,5h0a5,5,0,0,1-5,5h0A5,5,0,0,1,153.5,471.5Zm-20,0a5,5,0,0,1,5-5h0a5,5,0,0,1,5,5h0a5,5,0,0,1-5,5h0A5,5,0,0,1,133.5,471.5Zm-20,0a5,5,0,0,1,5-5h0a5,5,0,0,1,5,5h0a5,5,0,0,1-5,5h0A5,5,0,0,1,113.5,471.5Zm-20,0a5,5,0,0,1,5-5h0a5,5,0,0,1,5,5h0a5,5,0,0,1-5,5h0A5,5,0,0,1,93.5,471.5Zm-20,0a5,5,0,0,1,5-5h0a5,5,0,0,1,5,5h0a5,5,0,0,1-5,5h0A5,5,0,0,1,73.5,471.5Zm-20,0a5,5,0,0,1,5-5h0a5,5,0,0,1,5,5h0a5,5,0,0,1-5,5h0A5,5,0,0,1,53.5,471.5Zm-20,0a5,5,0,0,1,5-5h0a5,5,0,0,1,5,5h0a5,5,0,0,1-5,5h0A5,5,0,0,1,33.5,471.5Zm-20,0a5,5,0,0,1,5-5h0a5,5,0,0,1,5,5h0a5,5,0,0,1-5,5h0A5,5,0,0,1,13.5,471.5Z"/><path class="cls-1" d="M91.5,271.5a5,5,0,0,1,5-5h0a5,5,0,0,1,5,5h0a5,5,0,0,1-5,5h0A5,5,0,0,1,91.5,271.5Zm-20,0a5,5,0,0,1,5-5h0a5,5,0,0,1,5,5h0a5,5,0,0,1-5,5h0A5,5,0,0,1,71.5,271.5Z"/><path class="cls-1" d="M429.52,271.5a5,5,0,0,1,5-5h0a5,5,0,0,1,5,5h0a5,5,0,0,1-5,5h0A5,5,0,0,1,429.52,271.5Zm-20,0a5,5,0,0,1,5-5h0a5,5,0,0,1,5,5h0a5,5,0,0,1-5,5h0A5,5,0,0,1,409.52,271.5Z"/><path class="cls-1" d="M94.58,50.62a5,5,0,0,1-5-5V17.36a5,5,0,0,1,10,0V45.62A5,5,0,0,1,94.58,50.62Z"/><path class="cls-1" d="M27.43,51.8c-11,0-15-9-15-15v-10c0-6,4-15,15-15s15,9,15,15v10C42.44,42.82,38.44,51.8,27.43,51.8Zm0-30c-4.52,0-5,3.5-5,5v10c0,1.83.76,5,5,5,4.52,0,5-3.51,5-5v-10C32.39,24.94,31.68,21.77,27.43,21.77Z"/><path class="cls-1" d="M64.55,51.8c-11,0-15-9-15-15v-10c0-6,4-15,15-15s15,9,15,15v10C79.56,42.82,75.56,51.8,64.55,51.8Zm0-30c-4.25,0-5,3.17-5,5.07v10c0,1.83.76,5,5,5,4.52,0,5-3.51,5-5v-10C69.51,24.94,68.79,21.77,64.55,21.77Z"/><path class="cls-1" d="M151,50.62a5,5,0,0,1-5-5V17.36a5,5,0,0,1,10,0V45.62A5,5,0,0,1,151,50.62Z"/><path class="cls-1" d="M122.51,51.23c-11,0-15-9-15-15v-10c0-6,4-15,15-15s15,9,15,15v10C137.52,42.26,133.52,51.23,122.51,51.23Zm0-30c-4.52,0-5,3.51-5,5v10c0,1.84.76,5,5,5,4.52,0,5-3.5,5-5v-10C127.47,24.38,126.76,21.2,122.51,21.2Z"/><path class="cls-1" d="M76.67,149.19a5,5,0,0,1-5-5V115.92a5,5,0,0,1,10,0v28.27A5,5,0,0,1,76.67,149.19Z"/><path class="cls-1" d="M106.7,149.77c-11,0-15-9-15-15v-10c0-6,4-15,15-15s15,9,15,15v10C121.71,140.8,117.72,149.77,106.7,149.77Zm0-30c-4.52,0-5,3.5-5,5v10c0,1.84.77,5,5,5s5-3.17,5-5.06v-10C111.67,122.92,111,119.75,106.7,119.75Z"/><path class="cls-1" d="M20.25,149.19a5,5,0,0,1-5-5V115.92a5,5,0,0,1,10,0v28.27A5,5,0,0,1,20.25,149.19Z"/><path class="cls-1" d="M48.74,150.34c-11,0-15-9-15-15v-10c0-6,4-15,15-15s15,9,15,15v10C63.75,141.36,59.75,150.34,48.74,150.34Zm0-30c-4.52,0-5,3.5-5,5v10c.05,1.83.76,5,5,5,4.52,0,5-3.51,5-5v-10C53.7,123.49,53,120.31,48.74,120.31Z"/><path class="cls-1" d="M56.73,99.89a5,5,0,0,1-5-5V66.63a5,5,0,0,1,10,0V94.89A5,5,0,0,1,56.73,99.89Z"/><path class="cls-1" d="M27.43,101.07c-11,0-15-9-15-15v-10c0-6,4-15,15-15s15,9,15,15v10C42.44,92.09,38.44,101.07,27.43,101.07Zm0-30c-4.52,0-5,3.5-5,5v10c0,1.83.76,5,5,5,4.52,0,5-3.51,5-5v-10C32.39,74.21,31.68,71,27.43,71Z"/><path class="cls-1" d="M84.57,101.07c-11,0-15-9-15-15v-10c0-6,4-15,15-15s15,9,15,15v10C99.58,92.09,95.58,101.07,84.57,101.07Zm0-30c-4.53,0-5,3.5-5,5v10c0,1.83.76,5,5,5,4.52,0,5-3.51,5-5v-10C89.53,74.21,88.81,71,84.57,71Z"/><path class="cls-1" d="M122.51,100.5c-11,0-15-9-15-15v-10c0-6,4-15,15-15s15,9,15,15v10C137.52,91.53,133.52,100.5,122.51,100.5Zm0-30c-4.52,0-5,3.51-5,5v10c0,1.84.76,5,5,5,4.52,0,5-3.5,5-5v-10C127.47,73.65,126.76,70.47,122.51,70.47Z"/><path class="cls-1" d="M56.73,198.15a5,5,0,0,1-5-5V164.89a5,5,0,0,1,10,0v28.26A5,5,0,0,1,56.73,198.15Z"/><path class="cls-1" d="M76.67,198.15a5,5,0,0,1-5-5V164.89a5,5,0,0,1,10,0v28.26A5,5,0,0,1,76.67,198.15Z"/><path class="cls-1" d="M27.43,199.33c-11,0-15-9-15-15v-10c0-6,4-15,15-15s15,9,15,15v10C42.44,190.35,38.44,199.33,27.43,199.33Zm0-30c-4.52,0-5,3.5-5,5v10c0,1.83.76,5,5,5,4.52,0,5-3.51,5-5v-10C32.39,172.47,31.68,169.3,27.43,169.3Z"/><path class="cls-1" d="M418.64,50.62a5,5,0,0,1-5-5V17.36a5,5,0,0,1,10,0V45.62A5,5,0,0,1,418.64,50.62Z"/><path class="cls-1" d="M485.78,51.8c-11,0-15-9-15-15v-10c0-6,4-15,15-15s15,9,15,15v10C500.79,42.82,496.8,51.8,485.78,51.8Zm-5-15c.06,1.89.78,5,5,5,4.52,0,5-3.51,5-5v-10c0-1.84-.76-5-5-5-4.52,0-5,3.5-5,5Z"/><path class="cls-1" d="M448.67,51.8c-11,0-15-9-15-15v-10c0-6,4-15,15-15s15,9,15,15v10C463.68,42.82,459.68,51.8,448.67,51.8Zm-5-15c0,1.89.78,5,5,5,4.52,0,5-3.51,5-5v-10c-.05-1.84-.76-5-5-5-4.52,0-5,3.5-5,5Z"/><path class="cls-1" d="M362.21,50.62a5,5,0,0,1-5-5V17.36a5,5,0,0,1,10,0V45.62A5,5,0,0,1,362.21,50.62Z"/><path class="cls-1" d="M390.7,51.23c-11,0-15-9-15-15v-10c0-6,4-15,15-15s15,9,15,15v10C405.71,42.26,401.72,51.23,390.7,51.23Zm-5-15c.06,1.9.78,5,5,5,1.18,0,5-.36,5-5v-10c0-1.83-.76-5-5-5-4.52,0-5,3.51-5,5Z"/><path class="cls-1" d="M436.54,149.19a5,5,0,0,1-5-5V115.92a5,5,0,0,1,10,0v28.27A5,5,0,0,1,436.54,149.19Z"/><path class="cls-1" d="M406.51,149.77c-11,0-15-9-15-15v-10c0-6,4-15,15-15s15,9,15,15v10C421.52,140.8,417.52,149.77,406.51,149.77Zm0-30c-4.52,0-5,3.5-5,5v10c.05,1.84.76,5,5,5,4.52,0,5-3.5,5-5v-10C411.47,122.9,410.74,119.75,406.51,119.75Z"/><path class="cls-1" d="M493,149.19a5,5,0,0,1-5-5V115.92a5,5,0,0,1,10,0v28.27A5,5,0,0,1,493,149.19Z"/><path class="cls-1" d="M464.47,150.34c-11,0-15-9-15-15v-10c0-6,4-15,15-15s15,9,15,15v10C479.48,141.36,475.49,150.34,464.47,150.34Zm0-30c-4.52,0-5,3.5-5,5v10c.05,1.83.77,5,5,5,4.53,0,5-3.51,5-5v-10C469.43,123.46,468.71,120.31,464.47,120.31Z"/><path class="cls-1" d="M256.54,149.19a5,5,0,0,1-5-5V115.92a5,5,0,1,1,10,0v28.27A5,5,0,0,1,256.54,149.19Z"/><path class="cls-1" d="M227.51,149.77c-11,0-15-9-15-15v-10c0-6,4-15,15-15s15,9,15,15v10C242.52,140.8,238.52,149.77,227.51,149.77Zm0-30c-4.52,0-5,3.5-5,5v10c.05,1.84.76,5,5,5,4.52,0,5-3.5,5-5v-10C232.47,122.9,231.74,119.75,227.51,119.75Z"/><path class="cls-1" d="M286.47,150.34c-11,0-15-9-15-15v-10c0-6,4-15,15-15s15,9,15,15v10C301.48,141.36,297.49,150.34,286.47,150.34Zm0-30c-4.52,0-5,3.5-5,5v10c.05,1.83.77,5,5,5,4.53,0,5-3.51,5-5v-10C291.43,123.46,290.71,120.31,286.47,120.31Z"/><path class="cls-1" d="M456.48,99.89a5,5,0,0,1-5-5V66.63a5,5,0,1,1,10,0V94.89A5,5,0,0,1,456.48,99.89Z"/><path class="cls-1" d="M485.78,101.07c-11,0-15-9-15-15v-10c0-6,4-15,15-15s15,9,15,15v10C500.79,92.09,496.8,101.07,485.78,101.07Zm-5-15c.06,1.89.78,5,5,5,4.52,0,5-3.51,5-5v-10c0-1.84-.76-5-5-5-4.52,0-5,3.5-5,5Z"/><path class="cls-1" d="M428.65,101.07c-11,0-15-9-15-15v-10c0-6,4-15,15-15s15,9,15,15v10C443.66,92.09,439.66,101.07,428.65,101.07Zm-5-15c.05,1.89.77,5,5,5,4.52,0,5-3.51,5-5v-10c-.05-1.84-.76-5-5-5s-5,3.17-5,5.07Zm0,0h0Z"/><path class="cls-1" d="M390.7,100.5c-11,0-15-9-15-15v-10c0-6,4-15,15-15s15,9,15,15v10C405.71,91.53,401.72,100.5,390.7,100.5Zm-5-15c.06,1.9.78,5,5,5,1.18,0,5-.36,5-5v-10c0-1.83-.76-5-5-5-4.52,0-5,3.51-5,5Z"/><path class="cls-1" d="M456.48,198.15a5,5,0,0,1-5-5V164.89a5,5,0,0,1,10,0v28.26A5,5,0,0,1,456.48,198.15Z"/><path class="cls-1" d="M436.54,198.15a5,5,0,0,1-5-5V164.89a5,5,0,0,1,10,0v28.26A5,5,0,0,1,436.54,198.15Z"/><path class="cls-1" d="M485.78,199.33c-11,0-15-9-15-15v-10c0-6,4-15,15-15s15,9,15,15v10C500.79,190.35,496.8,199.33,485.78,199.33Zm-5-15.05c.06,1.89.78,5.05,5,5.05,4.52,0,5-3.51,5-5v-10c0-1.84-.76-5-5-5-4.52,0-5,3.5-5,5Z"/><path class="cls-1" d="M170,408a5,5,0,0,1,5-5h0a5,5,0,0,1,5,5h0a5,5,0,0,1-5,5h0A5,5,0,0,1,170,408Zm-20,0a5,5,0,0,1,5-5h0a5,5,0,0,1,5,5h0a5,5,0,0,1-5,5h0A5,5,0,0,1,150,408Zm-20,0a5,5,0,0,1,5-5h0a5,5,0,0,1,5,5h0a5,5,0,0,1-5,5h0A5,5,0,0,1,130,408Zm-20,0a5,5,0,0,1,5-5h0a5,5,0,0,1,5,5h0a5,5,0,0,1-5,5h0A5,5,0,0,1,110,408Zm-20,0a5,5,0,0,1,5-5h0a5,5,0,0,1,5,5h0a5,5,0,0,1-5,5h0A5,5,0,0,1,90,408Zm-20,0a5,5,0,0,1,5-5h0a5,5,0,0,1,5,5h0a5,5,0,0,1-5,5h0A5,5,0,0,1,70,408Zm117.5-2.5a5,5,0,0,1,5-5h0a5,5,0,0,1,5,5h0a5,5,0,0,1-5,5h0A5,5,0,0,1,187.5,405.5Zm0-20a5,5,0,0,1,5-5h0a5,5,0,0,1,5,5h0a5,5,0,0,1-5,5h0A5,5,0,0,1,187.5,385.5Z"/><path class="cls-1" d="M433,408a5,5,0,0,1,5-5h0a5,5,0,0,1,5,5h0a5,5,0,0,1-5,5h0A5,5,0,0,1,433,408Zm-20,0a5,5,0,0,1,5-5h0a5,5,0,0,1,5,5h0a5,5,0,0,1-5,5h0A5,5,0,0,1,413,408Zm-20,0a5,5,0,0,1,5-5h0a5,5,0,0,1,5,5h0a5,5,0,0,1-5,5h0A5,5,0,0,1,393,408Zm-20,0a5,5,0,0,1,5-5h0a5,5,0,0,1,5,5h0a5,5,0,0,1-5,5h0A5,5,0,0,1,373,408Zm-20,0a5,5,0,0,1,5-5h0a5,5,0,0,1,5,5h0a5,5,0,0,1-5,5h0A5,5,0,0,1,353,408Zm-20,0a5,5,0,0,1,5-5h0a5,5,0,0,1,5,5h0a5,5,0,0,1-5,5h0A5,5,0,0,1,333,408Zm-17.5-2.5a5,5,0,0,1,5-5h0a5,5,0,0,1,5,5h0a5,5,0,0,1-5,5h0A5,5,0,0,1,315.5,405.5Zm0-20a5,5,0,0,1,5-5h0a5,5,0,0,1,5,5h0a5,5,0,0,1-5,5h0A5,5,0,0,1,315.5,385.5Z"/></g></svg>