<?xml version="1.0" ?><svg viewBox="0 0 512 512" xmlns="http://www.w3.org/2000/svg"><defs><style>.cls-1{fill:#3f456b;}</style></defs><title/><g id="Lines"><path class="cls-1" d="M441,421h-1a5,5,0,0,1,0-10h1a5,5,0,0,1,0,10Z"/><path class="cls-1" d="M466,164a5,5,0,0,1-5-5V118a3,3,0,0,0-3-3H441a5,5,0,0,1,0-10h17a13,13,0,0,1,13,13v41A5,5,0,0,1,466,164Z"/><path class="cls-1" d="M192,164a5,5,0,0,1-5-5V118a13,13,0,0,1,13-13h17a5,5,0,0,1,0,10H200a3,3,0,0,0-3,3v41A5,5,0,0,1,192,164Z"/><path class="cls-1" d="M441,165a5,5,0,0,1-5-5V22H222V160a5,5,0,0,1-10,0V17a5,5,0,0,1,5-5H441a5,5,0,0,1,5,5V160A5,5,0,0,1,441,165Z"/><path class="cls-1" d="M466,470H177a5,5,0,0,1,0-10H466a25,25,0,0,0,25-25V191a25,25,0,0,0-25-25H177a5,5,0,0,1,0-10H466a35,35,0,0,1,35,35V435A35,35,0,0,1,466,470Z"/><path class="cls-1" d="M47,470H46c-18.65,0-35-17.76-35-38V191a35,35,0,0,1,35-35h2a5,5,0,0,1,0,10H46a25,25,0,0,0-25,25V432c0,16,13.2,28,25,28h1a5,5,0,0,1,0,10Z"/><path class="cls-1" d="M464,262H257a5,5,0,0,1-5-5V205a5,5,0,0,1,5-5H464a5,5,0,0,1,5,5v52A5,5,0,0,1,464,262ZM262,252H459V210H262Z"/><path class="cls-1" d="M157,501H69a25,25,0,0,1-25-25V149a25,25,0,0,1,25-25h88a25,25,0,0,1,25,25V476A25,25,0,0,1,157,501ZM69,134a15,15,0,0,0-15,15V476a15,15,0,0,0,15,15h88a15,15,0,0,0,15-15V149a15,15,0,0,0-15-15Z"/><path class="cls-1" d="M80,134a5,5,0,0,1-5-5V63a5,5,0,0,1,10,0v66A5,5,0,0,1,80,134Z"/><path class="cls-1" d="M440,331a23,23,0,1,1,23-23A23,23,0,0,1,440,331Zm0-36a13,13,0,1,0,13,13A13,13,0,0,0,440,295Z"/><path class="cls-1" d="M440,390a23,23,0,1,1,23-23A23,23,0,0,1,440,390Zm0-36a13,13,0,1,0,13,13A13,13,0,0,0,440,354Z"/><path class="cls-1" d="M271,300h-7a5,5,0,0,1,0-10h7a5,5,0,0,1,0,10Z"/><path class="cls-1" d="M309.67,300h-7a5,5,0,0,1,0-10h7a5,5,0,1,1,0,10Z"/><path class="cls-1" d="M387,300h-7a5,5,0,0,1,0-10h7a5,5,0,0,1,0,10Z"/><path class="cls-1" d="M348.33,300h-7a5,5,0,1,1,0-10h7a5,5,0,0,1,0,10Z"/><path class="cls-1" d="M271,340.33h-7a5,5,0,0,1,0-10h7a5,5,0,0,1,0,10Z"/><path class="cls-1" d="M309.67,340.33h-7a5,5,0,0,1,0-10h7a5,5,0,0,1,0,10Z"/><path class="cls-1" d="M387,340.33h-7a5,5,0,0,1,0-10h7a5,5,0,0,1,0,10Z"/><path class="cls-1" d="M348.33,340.33h-7a5,5,0,0,1,0-10h7a5,5,0,0,1,0,10Z"/><path class="cls-1" d="M271,380.67h-7a5,5,0,0,1,0-10h7a5,5,0,0,1,0,10Z"/><path class="cls-1" d="M309.67,380.67h-7a5,5,0,0,1,0-10h7a5,5,0,0,1,0,10Z"/><path class="cls-1" d="M387,380.67h-7a5,5,0,0,1,0-10h7a5,5,0,0,1,0,10Z"/><path class="cls-1" d="M348.33,380.67h-7a5,5,0,0,1,0-10h7a5,5,0,0,1,0,10Z"/><path class="cls-1" d="M271,421h-7a5,5,0,0,1,0-10h7a5,5,0,0,1,0,10Z"/><path class="cls-1" d="M309.67,421h-7a5,5,0,0,1,0-10h7a5,5,0,1,1,0,10Z"/><path class="cls-1" d="M387,421h-7a5,5,0,0,1,0-10h7a5,5,0,0,1,0,10Z"/><path class="cls-1" d="M348.33,421h-7a5,5,0,1,1,0-10h7a5,5,0,0,1,0,10Z"/></g><g id="Outline"><path class="cls-1" d="M417,52H243a5,5,0,0,1,0-10H417a5,5,0,0,1,0,10Z"/><path class="cls-1" d="M417,79H243a5,5,0,0,1,0-10H417a5,5,0,0,1,0,10Z"/><path class="cls-1" d="M417,106H243a5,5,0,0,1,0-10H417a5,5,0,0,1,0,10Z"/><path class="cls-1" d="M417,133H243a5,5,0,0,1,0-10H417a5,5,0,0,1,0,10Z"/><path class="cls-1" d="M219,441a5,5,0,0,1-5-5v-1a5,5,0,0,1,10,0v1A5,5,0,0,1,219,441Zm0-21a5,5,0,0,1-5-5v-1a5,5,0,0,1,10,0v1A5,5,0,0,1,219,420Zm0-21a5,5,0,0,1-5-5v-1a5,5,0,0,1,10,0v1A5,5,0,0,1,219,399Zm0-21a5,5,0,0,1-5-5v-1a5,5,0,0,1,10,0v1A5,5,0,0,1,219,378Zm0-21a5,5,0,0,1-5-5v-1a5,5,0,0,1,10,0v1A5,5,0,0,1,219,357Zm0-21a5,5,0,0,1-5-5v-1a5,5,0,0,1,10,0v1A5,5,0,0,1,219,336Zm0-21a5,5,0,0,1-5-5v-1a5,5,0,0,1,10,0v1A5,5,0,0,1,219,315Zm0-21a5,5,0,0,1-5-5v-1a5,5,0,0,1,10,0v1A5,5,0,0,1,219,294Zm0-21a5,5,0,0,1-5-5v-1a5,5,0,0,1,10,0v1A5,5,0,0,1,219,273Zm0-21a5,5,0,0,1-5-5v-1a5,5,0,0,1,10,0v1A5,5,0,0,1,219,252Zm0-21a5,5,0,0,1-5-5v-1a5,5,0,0,1,10,0v1A5,5,0,0,1,219,231Zm0-21a5,5,0,0,1-5-5v-1a5,5,0,0,1,10,0v1A5,5,0,0,1,219,210Zm0-21a5,5,0,0,1-5-5v-1a5,5,0,0,1,10,0v1A5,5,0,0,1,219,189Z"/></g></svg>