<?xml version="1.0" ?><svg id="Lines" viewBox="0 0 512 512" xmlns="http://www.w3.org/2000/svg"><defs><style>.cls-1{fill:#3f456b;}</style></defs><title/><path class="cls-1" d="M460,337c-19.79,0-36-12.24-39.47-29.75-3.77-19.17,7.16-34.19,16.8-47.43a142.83,142.83,0,0,0,9.7-14.47c3.46-6.25,7.37-13.32,8.93-20.6a5,5,0,0,1,9.78,0c1.41,6.59,5,13,8.4,19.17l.79,1.43a144.53,144.53,0,0,0,9.7,14.47c9.64,13.23,20.57,28.23,16.8,47.4C498,324.76,481.71,337,461.84,337l-1.77,0Zm.93-96.6c-1.64,3.45-3.45,6.71-5.15,9.79a153.31,153.31,0,0,1-10.36,15.51c-9.26,12.72-18,24.73-15.07,39.62S447.37,327,460,327l1.8,0c17.67,0,27.71-10.89,29.83-21.69,2.93-14.88-5.81-26.88-15.06-39.58a151.88,151.88,0,0,1-10.37-15.52l-.79-1.42C463.94,246.14,462.39,243.35,461,240.42Z"/><path class="cls-1" d="M286.65,327c-.88,0-1.47,0-1.76,0H181.18c-13,0-23.29-4-30.48-11.78-11.5-12.49-10.74-30.38-10.58-32.74V216a5,5,0,0,1,5-5H289.37a5,5,0,0,1,1.95.4l27,11.43,140.58-27a5,5,0,0,1,1.89,9.82L438.1,210l-.58.2c-36.77,10.21-50,36-50.11,36.29l-.18.32-24.71,41.7a2.68,2.68,0,0,1-.18.28C337.57,324.9,296.07,327,286.65,327ZM150.12,221v61.67c0,.13,0,.27,0,.41s-1.1,15.59,8,25.43c5.22,5.64,13,8.5,23.08,8.5H285.23c.43,0,44.48,1.5,68.77-33.76l24.55-41.42c.91-1.76,7.33-13.49,22.11-24.65l-81.93,15.75a5,5,0,0,1-2.89-.3L288.36,221Z"/><path class="cls-1" d="M145.05,266.36a5.2,5.2,0,0,1-1.17-.14c-2.33-.56-57.09-13.76-67-17.07-29.36-9.79-30.45-30.68-26.2-46.48,2.56-9.49,7.57-16.3,14.9-20.24,12.09-6.49,26.18-2.55,28.39-1.87,2.33.52,20.63,4.72,34.37,10,16.35,6.29,21.39,23.34,21.59,24.06a5,5,0,0,1-9.61,2.76c-.08-.26-4-13-15.57-17.49-13.7-5.26-33-9.57-33.17-9.62a4.43,4.43,0,0,1-.49-.13c-.1,0-11.8-3.76-20.83,1.13-4.78,2.59-8.12,7.3-9.92,14-6.16,22.89,8.29,30.59,19.7,34.39,9.53,3.18,65.62,16.7,66.19,16.84a5,5,0,0,1-1.17,9.86Z"/><path class="cls-1" d="M259.86,185H185.55a5,5,0,0,1,0-10h74.31a5,5,0,0,1,0,10Z"/><path class="cls-1" d="M223.44,221a5,5,0,0,1-5-5V180a5,5,0,0,1,10,0v36A5,5,0,0,1,223.44,221Z"/><path class="cls-1" d="M480.5,407a5,5,0,0,1-4.87-3.85l-7.77-32.9L435.3,378.1a5,5,0,1,1-2.35-9.72l37.44-9.07a5,5,0,0,1,6.05,3.71l8.93,37.8a5,5,0,0,1-3.72,6A4.58,4.58,0,0,1,480.5,407Z"/><path class="cls-1" d="M47.41,144.91a5.12,5.12,0,0,1-2.62-.74,5.05,5.05,0,0,1-2.25-3.11l-8.93-37.8a5,5,0,1,1,9.74-2.3l7.77,32.9L83.68,126A5,5,0,1,1,86,135.7l-37.45,9.06A4.77,4.77,0,0,1,47.41,144.91Z"/><path class="cls-1" d="M256.38,501.87a242.24,242.24,0,0,1-121.23-32.48,246.72,246.72,0,0,1-103-115.19,5,5,0,1,1,9.17-4,236.65,236.65,0,0,0,98.85,110.49,232.87,232.87,0,0,0,148.34,29,234.69,234.69,0,0,0,176-122.54,5,5,0,0,1,8.83,4.7A244.71,244.71,0,0,1,289.81,499.61,249.79,249.79,0,0,1,256.38,501.87Z"/><path class="cls-1" d="M473.34,157.78a5,5,0,0,1-4.51-2.83A235.06,235.06,0,0,0,54.44,137.63a5,5,0,1,1-8.61-5.08,245.08,245.08,0,0,1,432,18.07,5,5,0,0,1-2.34,6.67A5.08,5.08,0,0,1,473.34,157.78Z"/></svg>