<?xml version="1.0" ?><svg id="Lines" viewBox="0 0 512 512" xmlns="http://www.w3.org/2000/svg"><defs><style>.cls-1{fill:#3f456b;}</style></defs><title/><path class="cls-1" d="M259.46,474c-18.28,0-36.73-11.63-50.6-31.9-13.36-19.52-21-44.74-21-69.22,0-43.59,20.29-75.21,53.24-83.64-.55-72-15.22-244.11-15.66-249.31a23.92,23.92,0,0,1,5.39-17.77C236.57,15.42,246.1,12,259.16,12h.71c12.21,0,21.39,3.27,27.28,9.71a25.46,25.46,0,0,1,6.47,18.13C293.47,41.65,278.58,220,278,289c14.91,2.87,28.22,13,37.85,29,9.85,16.38,15.27,37.7,15.27,60.05C331.07,429.18,297.61,474,259.46,474Zm-.3-452c-9.78,0-16.92,2.27-20.66,6.55a13.66,13.66,0,0,0-3.16,10.12,2.77,2.77,0,0,1,0,.3c.16,1.83,15.72,183.79,15.72,254.27a5,5,0,0,1-4.05,4.91c-30.35,5.83-49.2,34.46-49.2,74.73,0,22.51,7,45.68,19.27,63.57C229.09,454,244.53,464,259.46,464s30.47-9.15,42.3-25.11c12.27-16.56,19.31-38.73,19.31-60.81,0-43-20.89-77.26-48.59-79.78a5,5,0,0,1-4.55-5c0-65.95,15.57-252.46,15.73-254.34a15.27,15.27,0,0,0-4-10.63c-3.93-4.21-10.6-6.35-19.81-6.35ZM246.09,293.24h0Z"/><path class="cls-1" d="M424.93,501.62a487.38,487.38,0,0,1-56.56-3.13l-.17,0c-19.24-3.2-22.28-19.16-21.19-27.41.21-5.21,3.49-89.26,3.49-109.06,0-19.37,15.72-28.28,24.17-30.33,30.44-9,29.4-35,29.34-36.14a2.81,2.81,0,0,1,0-.29v-2c0-69.38-15.18-248.08-15.63-253.31a24,24,0,0,1,5.42-17.77C399.56,15.42,409.1,12,422.16,12h.71c12.21,0,21.39,3.26,27.3,9.7a25.59,25.59,0,0,1,6.49,18.13c-.16,1.86-15.66,188-15.66,253.49v2c0,.13,0,.26,0,.39-.07,1-1.24,24.73,29.95,36,8.48,2.11,24,11,24,30.29,0,20.33,3.47,108.42,3.5,109.3.42,8.35-2.79,24.79-18,26.85A419,419,0,0,1,424.93,501.62Zm54.85-8.42h0Zm-110-4.61c2.43.31,55.91,6.89,109.36-.35h0c9.92-1.34,9.39-15.88,9.36-16.5C488.33,468.07,485,382.53,485,362c0-16.35-15.95-20.47-16.63-20.64a4.28,4.28,0,0,1-.51-.15c-20.11-7.18-29.06-19.21-33-28a41.34,41.34,0,0,1-3.8-18v-1.86C431,227.37,446.54,40.86,446.69,39a15.23,15.23,0,0,0-4-10.62C438.76,24.14,432.09,22,422.87,22h-.71c-9.78,0-16.93,2.27-20.68,6.56a13.7,13.7,0,0,0-3.19,10.12,2.89,2.89,0,0,1,0,.29C398.48,40.8,414,222.76,414,293.24v1.95c.09,3.24,0,35.38-36.64,46.11l-.26.07c-.65.16-16.6,4.28-16.6,20.63,0,20.53-3.36,106.07-3.5,109.7,0,.17,0,.35-.05.53C356.64,474.52,355.81,486.22,369.75,488.59Z"/><path class="cls-1" d="M387.91,478h-5.82c-6.55,0-12.09-6-12.09-13.06V368.06A12,12,0,0,1,382.09,356h5.82A12,12,0,0,1,400,368.06v96.88C400,472,394.46,478,387.91,478Zm-5.82-112a1.93,1.93,0,0,0-2.09,2.06v96.88c0,1.58,1.18,3.06,2.09,3.06h5.82c.91,0,2.09-1.48,2.09-3.06V368.06a1.93,1.93,0,0,0-2.09-2.06Z"/><path class="cls-1" d="M424.91,478h-5.82c-6.55,0-12.09-6-12.09-13.06V368.06A12,12,0,0,1,419.09,356h5.82A12,12,0,0,1,437,368.06v96.88C437,472,431.46,478,424.91,478Zm-5.82-112a1.93,1.93,0,0,0-2.09,2.06v96.88c0,1.58,1.18,3.06,2.09,3.06h5.82c.91,0,2.09-1.48,2.09-3.06V368.06a1.93,1.93,0,0,0-2.09-2.06Z"/><path class="cls-1" d="M462.91,478h-5.82c-6.55,0-12.09-6-12.09-13.06V368.06A12,12,0,0,1,457.09,356h5.82A12,12,0,0,1,475,368.06v96.88C475,472,469.46,478,462.91,478Zm-5.82-112a1.93,1.93,0,0,0-2.09,2.06v96.88c0,1.58,1.18,3.06,2.09,3.06h5.82c.91,0,2.09-1.48,2.09-3.06V368.06a1.93,1.93,0,0,0-2.09-2.06Z"/><path class="cls-1" d="M148.53,502.69a26.47,26.47,0,0,1-8.21-1.44,5,5,0,0,1-3.44-4.68C136.84,494,133,238.13,96.64,150l-.7-1.55-.06-.15A4.55,4.55,0,0,0,95,147a5,5,0,0,0-.94,1.39l-.15.33-.67,1.33C56.9,238.32,53,494,53,496.57a5,5,0,0,1-3.44,4.68c-7.2,2.36-13.26,1.82-18-1.62-8.15-5.91-8.39-17.79-8.39-19.13C23.17,256.67,59,123.18,62,112.31V33.17c-.11-1.81-.38-10.91,4.93-16.66A14.34,14.34,0,0,1,77.75,12h34.42A14.34,14.34,0,0,1,123,16.51c5.35,5.75,5.11,14.87,5,16.65v79.15c3,10.85,38.75,144.35,38.75,368.19,0,1.34-.26,13.23-8.43,19.14A16.32,16.32,0,0,1,148.53,502.69ZM77.75,22a4.26,4.26,0,0,0-3.46,1.29C72,25.7,71.87,31,72,32.63c0,.12,0,.25,0,.37v80a5.09,5.09,0,0,1-.2,1.4c-.39,1.33-38.63,135.15-38.63,366.1,0,2.07.84,8.58,4.28,11.05a7.65,7.65,0,0,0,5.62,1c.29-15.09,1.63-72.24,6.34-136.92,7.36-101.23,19-171.73,34.63-209.55l.15-.33.69-1.36c.63-1.45,3.65-7.48,10.08-7.48,6.62,0,9.63,6.32,10.12,7.45l.71,1.58.06.14c15.62,37.82,27.27,108.32,34.63,209.55,4.7,64.67,6,121.83,6.33,136.92a7.62,7.62,0,0,0,5.65-1c3.49-2.52,4.28-9,4.29-11,0-231.1-38.17-364.77-38.55-366.09a5.15,5.15,0,0,1-.2-1.4V33c0-.12,0-.24,0-.36.11-1.64-.09-6.92-2.35-9.34a4.33,4.33,0,0,0-3.49-1.3ZM89.42,146.5h0Z"/><path class="cls-1" d="M95,147a5,5,0,0,1-5-5V95a5,5,0,0,1,10,0v47A5,5,0,0,1,95,147Z"/><path class="cls-1" d="M260,52a5,5,0,0,1-5-5V44a5,5,0,0,1,10,0v3A5,5,0,0,1,260,52Z"/><path class="cls-1" d="M423,52a5,5,0,0,1-5-5V44a5,5,0,0,1,10,0v3A5,5,0,0,1,423,52Z"/></svg>