<?xml version="1.0" ?><svg id="Lines" viewBox="0 0 512 512" xmlns="http://www.w3.org/2000/svg"><defs><style>.cls-1{fill:#3f456b;}</style></defs><title/><path class="cls-1" d="M56.58,116.5a5,5,0,0,1-4.95-4.4A40.79,40.79,0,0,1,80.62,68c-.07-.81-.1-1.63-.1-2.45a31.86,31.86,0,0,1,51-25.45A55.23,55.23,0,0,1,235.34,66.38a56.87,56.87,0,0,1-.72,9,37.6,37.6,0,0,1,23,21.75,5,5,0,1,1-9.3,3.67,27.48,27.48,0,0,0-20.51-16.86,5,5,0,0,1-3.32-2.22,5.08,5.08,0,0,1-.63-4,45.23,45.23,0,0,0-86.07-27.38,5,5,0,0,1-8.54,1.4A21.86,21.86,0,0,0,90.52,65.58a21.39,21.39,0,0,0,.61,5.11,5,5,0,0,1-4,6.11,30.65,30.65,0,0,0-25.76,30.34,31.36,31.36,0,0,0,.22,3.76,5,5,0,0,1-4.36,5.56A4.17,4.17,0,0,1,56.58,116.5Z"/><path class="cls-1" d="M256.52,283.66A52.45,52.45,0,1,1,309,231.21,52.5,52.5,0,0,1,256.52,283.66Zm0-94.9A42.45,42.45,0,1,0,299,231.21,42.5,42.5,0,0,0,256.52,188.76Z"/><path class="cls-1" d="M279.35,251.55a5,5,0,0,1-2.62-.75l-22.12-13.67a5,5,0,0,1-2.37-4.25V205.54a5,5,0,1,1,10,0v24.55L282,242.29a5,5,0,0,1-2.64,9.26Z"/><path class="cls-1" d="M105.78,337.06H56.24a5,5,0,0,1-5-5V295.82A36.92,36.92,0,0,1,54.85,281c3.45-7,10.79-15.37,26.16-15.37S103.72,274,107.17,281a36.92,36.92,0,0,1,3.61,14.78v36.24A5,5,0,0,1,105.78,337.06Zm-44.54-10h39.54V295.84c0-2.1-.75-20.17-19.77-20.17s-19.75,18.11-19.77,20.18Z"/><path class="cls-1" d="M105.78,417.12H56.24a5,5,0,0,1-5-5V375.88a36.92,36.92,0,0,1,3.61-14.78c3.45-7,10.79-15.36,26.16-15.36s22.71,8.35,26.16,15.36a36.92,36.92,0,0,1,3.61,14.78v36.24A5,5,0,0,1,105.78,417.12Zm-44.54-10h39.54V375.9c0-2.1-.75-20.16-19.77-20.16-19.54,0-19.77,19.32-19.77,20.14Z"/><path class="cls-1" d="M180.67,337.06H131.13a5,5,0,0,1-5-5V295.82A36.92,36.92,0,0,1,129.74,281c3.45-7,10.79-15.37,26.16-15.37S178.6,274,182.06,281a36.92,36.92,0,0,1,3.61,14.78v36.24A5,5,0,0,1,180.67,337.06Zm-44.54-10h39.54V295.84c0-2.1-.75-20.17-19.77-20.17-19.54,0-19.77,19.33-19.77,20.15Z"/><path class="cls-1" d="M180.67,417.12H131.13a5,5,0,0,1-5-5V375.88a36.92,36.92,0,0,1,3.61-14.78c3.45-7,10.79-15.36,26.16-15.36s22.7,8.35,26.16,15.36a36.92,36.92,0,0,1,3.61,14.78v36.24A5,5,0,0,1,180.67,417.12Zm-44.54-10h39.54V375.9c0-2.1-.75-20.16-19.77-20.16s-19.75,18.1-19.77,20.17Z"/><path class="cls-1" d="M382,337.06H332.5a5,5,0,0,1-5-5V295.82A36.92,36.92,0,0,1,331.11,281c3.45-7,10.79-15.37,26.16-15.37S380,274,383.43,281A36.92,36.92,0,0,1,387,295.82v36.24A5,5,0,0,1,382,337.06Zm-44.54-10H377V295.84c0-2.1-.75-20.17-19.77-20.17s-19.75,18.11-19.77,20.18Z"/><path class="cls-1" d="M301.29,436.75H210.71a5,5,0,0,1-5-5V365.49c0-.51.58-51,50.29-51s50.29,50.48,50.29,51v66.26A5,5,0,0,1,301.29,436.75Zm-85.58-10h80.58V365.49c0-1.75-.68-41-40.29-41-39.83,0-40.29,39.31-40.29,41Z"/><path class="cls-1" d="M382,417.12H332.5a5,5,0,0,1-5-5V375.88a36.92,36.92,0,0,1,3.61-14.78c3.45-7,10.79-15.36,26.16-15.36s22.7,8.35,26.16,15.36A36.92,36.92,0,0,1,387,375.88v36.24A5,5,0,0,1,382,417.12Zm-44.54-10H377V375.9c0-2.1-.75-20.16-19.77-20.16-19.55,0-19.77,19.32-19.77,20.14Z"/><path class="cls-1" d="M456.92,337.06H407.39a5,5,0,0,1-5-5V295.82A36.92,36.92,0,0,1,406,281c3.45-7,10.79-15.37,26.16-15.37S454.86,274,458.31,281a36.92,36.92,0,0,1,3.61,14.78v36.24A5,5,0,0,1,456.92,337.06Zm-44.53-10h39.53V295.84c0-2.1-.74-20.17-19.76-20.17s-19.75,18.11-19.77,20.18Z"/><path class="cls-1" d="M456.92,417.12H407.39a5,5,0,0,1-5-5V375.88A36.92,36.92,0,0,1,406,361.1c3.45-7,10.79-15.36,26.16-15.36s22.7,8.35,26.15,15.36a36.92,36.92,0,0,1,3.61,14.78v36.24A5,5,0,0,1,456.92,417.12Zm-44.53-10h39.53V375.9c0-2.1-.74-20.16-19.76-20.16-19.55,0-19.77,19.32-19.77,20.14Z"/><path class="cls-1" d="M496.5,500.42H23.5a5,5,0,0,1-5-5V463.58a5,5,0,0,1,5-5h473a5,5,0,0,1,5,5v31.84A5,5,0,0,1,496.5,500.42Zm-468-10h463V468.58H28.5Z"/><path class="cls-1" d="M352.79,468.58H167.21a5,5,0,0,1-5-5V431.75a5,5,0,0,1,5-5H352.79a5,5,0,0,1,5,5v31.83A5,5,0,0,1,352.79,468.58Zm-180.58-10H347.79V436.75H172.21Z"/><path class="cls-1" d="M401.58,244.5a5,5,0,0,1-3.53-1.45L256.44,102.56,116.11,243a5,5,0,0,1-3.53,1.47H16.5a5,5,0,0,1-4.85-6.21l32-128a5,5,0,0,1,4.85-3.79H238.36L252.89,92A5,5,0,0,1,260,92L405.1,236a5,5,0,0,1,0,7.07A4.94,4.94,0,0,1,401.58,244.5ZM22.9,234.5h87.6l117.88-118H52.4Z"/><path class="cls-1" d="M128.81,261h0a5,5,0,0,1-3.54-1.5L109,243a5,5,0,1,1,7.13-7l12.7,12.92,124-124.18a5,5,0,0,1,7.06,0l124.94,124,13.32-12.79a5,5,0,0,1,3.46-1.39h89.68l-29.5-118H276.25a5,5,0,0,1,0-10h189.5a5,5,0,0,1,4.85,3.79l32,128a5,5,0,0,1-4.85,6.21H403.69l-15.4,14.77a5,5,0,0,1-7-.06L256.44,135.33,132.34,259.56A5,5,0,0,1,128.81,261Z"/><path class="cls-1" d="M480.5,468.58a5,5,0,0,1-5-5V239.5a5,5,0,0,1,10,0V463.58A5,5,0,0,1,480.5,468.58Z"/><path class="cls-1" d="M32.5,468.58a5,5,0,0,1-5-5V239.5a5,5,0,0,1,10,0V463.58A5,5,0,0,1,32.5,468.58Z"/><path class="cls-1" d="M301.29,372.5H210.71a5,5,0,0,1,0-10h90.58a5,5,0,0,1,0,10Z"/><path class="cls-1" d="M256,436.75a5,5,0,0,1-5-5V367.5a5,5,0,0,1,10,0v64.25A5,5,0,0,1,256,436.75Z"/><path class="cls-1" d="M240.75,406.47a5,5,0,0,1-5-5v-2.69a5,5,0,0,1,10,0v2.69A5,5,0,0,1,240.75,406.47Z"/><path class="cls-1" d="M271.33,406.47a5,5,0,0,1-5-5v-2.69a5,5,0,0,1,10,0v2.69A5,5,0,0,1,271.33,406.47Z"/><path class="cls-1" d="M58.78,468.29a5,5,0,0,1-5-5c0-8.91,2.78-15.45,8.26-19.44,6.14-4.48,13.89-4.34,18.94-3.58a16.91,16.91,0,0,1,6.72-8.41,19.76,19.76,0,0,1,12.22-2.65c3.28-5.41,10.46-11.53,23.2-10.82a19.67,19.67,0,0,1,14.15,6.55c4.06,4.69,5.22,10.64,5.51,14.6,11.75,4.38,15,16.45,15,22.79a5,5,0,0,1-10,0c0-1.26-.46-12.12-10.91-14.11a5,5,0,0,1-4.05-5.35c.16-2-.1-8-3.14-11.44-1.65-1.9-4-2.9-7.13-3.08-12.44-.72-14.83,7.62-14.86,7.71a5,5,0,0,1-6.26,3.48c-1.37-.39-5.62-1-8.43.77-1.85,1.18-3,3.34-3.49,6.61a5,5,0,0,1-6.48,4c-2.66-.84-10.61-2.3-15.12,1-2.74,2-4.13,5.82-4.13,11.34A5,5,0,0,1,58.78,468.29Z"/><path class="cls-1" d="M461.64,468.29a5,5,0,0,1-5-5c0-5.52-1.39-9.33-4.13-11.34-4.51-3.31-12.46-1.85-15.13-1a5,5,0,0,1-6.46-4c-.51-3.27-1.65-5.43-3.5-6.61-2.8-1.8-7.05-1.16-8.46-.76a5,5,0,0,1-6.23-3.49c-.25-.8-2.89-8.4-14.85-7.71-3.16.18-5.49,1.18-7.14,3.08-3,3.48-3.3,9.45-3.14,11.46a5,5,0,0,1-4.05,5.33c-10.46,2-10.89,12.88-10.91,14.11a5,5,0,0,1-10,0c0-6.34,3.26-18.41,15-22.79.28-4,1.44-9.91,5.5-14.6a19.67,19.67,0,0,1,14.16-6.55c12.74-.71,19.92,5.41,23.19,10.82a19.76,19.76,0,0,1,12.22,2.65,16.86,16.86,0,0,1,6.72,8.41c5.05-.77,12.8-.89,18.94,3.58,5.48,4,8.26,10.53,8.26,19.44A5,5,0,0,1,461.64,468.29Z"/></svg>