<?xml version="1.0" ?><svg viewBox="0 0 512 512" xmlns="http://www.w3.org/2000/svg"><defs><style>.cls-1{fill:#3f456b;}</style></defs><title/><g id="Lines"><path class="cls-1" d="M186.91,118.83a26,26,0,1,1,26-25.95A26,26,0,0,1,186.91,118.83Zm0-41.9a15.95,15.95,0,1,0,16,15.95A16,16,0,0,0,186.91,76.93Z"/><path class="cls-1" d="M186.84,149.58h0A56.84,56.84,0,0,1,130.06,92.8h0a56.78,56.78,0,1,1,56.78,56.78ZM140.06,92.8A46.78,46.78,0,1,0,186.84,46,46.83,46.83,0,0,0,140.06,92.8Z"/><path class="cls-1" d="M322.91,118.83a26,26,0,1,1,25.95-25.95A26,26,0,0,1,322.91,118.83Zm0-41.9a15.95,15.95,0,1,0,15.95,15.95A16,16,0,0,0,322.91,76.93Z"/><path class="cls-1" d="M322.84,149.58h0A56.84,56.84,0,0,1,266.06,92.8h0a56.78,56.78,0,1,1,56.78,56.78ZM276.06,92.8A46.78,46.78,0,1,0,322.84,46,46.83,46.83,0,0,0,276.06,92.8Z"/><path class="cls-1" d="M253.91,229.83a26,26,0,1,1,26-26A26,26,0,0,1,253.91,229.83Zm0-41.9a15.95,15.95,0,1,0,16,15.95A16,16,0,0,0,253.91,187.93Z"/><path class="cls-1" d="M253.84,260.58h0a56.84,56.84,0,0,1-56.78-56.78h0a56.78,56.78,0,1,1,56.78,56.78ZM207.06,203.8A46.78,46.78,0,1,0,253.84,157a46.83,46.83,0,0,0-46.78,46.78Z"/><path class="cls-1" d="M255.29,292.46a82.31,82.31,0,0,1-71.52-41.36l-.09-.18-.19-.36-.12-.21L113.84,129.42l-.13-.26a82.82,82.82,0,0,1-8.54-36.86,81.82,81.82,0,0,1,81.72-81.73l131.41.19a17.23,17.23,0,0,1,3.23.23,12,12,0,0,0,1.34.14,81.78,81.78,0,0,1,81.7,81.67,80.77,80.77,0,0,1-8.47,36.37l-.11.21-4.54,8.08L328.59,246.82,323.25,256c-.06.1-.12.2-.19.3A82.33,82.33,0,0,1,255.29,292.46Zm-62.77-46.21a72,72,0,0,0,122.19,4.49l5.23-8.93,62.82-109.29,4.44-7.93a70.74,70.74,0,0,0,7.37-31.79,71.76,71.76,0,0,0-71.7-71.67,18,18,0,0,1-2.74-.24,9.87,9.87,0,0,0-1.41-.14h-1.11l-130.73-.19A71.8,71.8,0,0,0,115.17,92.3a72.94,72.94,0,0,0,7.42,32.27l69.64,121.12a5.28,5.28,0,0,1,.27.53Z"/><path class="cls-1" d="M258.27,500h-4.54c-40.19,0-72-11.85-94.53-35.21-36.68-38-35.57-92.55-35.46-96V146a5,5,0,0,1,10,0V369.06c0,.53-1.43,53.52,32.71,88.85C187,479.2,216.39,490,253.73,490h4.54c37.34,0,66.7-10.8,87.27-32.09,34.15-35.33,32.74-88.32,32.72-88.85V146a5,5,0,0,1,10,0V368.79c.11,3.45,1.22,58-35.46,96C330.27,488.15,298.46,500,258.27,500Z"/><path class="cls-1" d="M256,469a85.64,85.64,0,0,1-85.54-85.54V227.55a5,5,0,0,1,10,0V383.46a75.54,75.54,0,0,0,151.08,0V225a5,5,0,1,1,10,0V383.46A85.63,85.63,0,0,1,256,469Z"/><path class="cls-1" d="M256.12,393.13a43.88,43.88,0,0,1,0-87.76h0A43.89,43.89,0,0,1,300,349.25h0A43.92,43.92,0,0,1,256.12,393.13Zm0-77.76A33.88,33.88,0,1,0,290,349.25h0a33.89,33.89,0,0,0-33.88-33.88Z"/></g><g id="Outline"><path class="cls-1" d="M188.3,133.93a5,5,0,0,1-.19-10l.85,0a5,5,0,1,1,.68,10l-1.14.06Zm-19.19-4.61a5.07,5.07,0,0,1-2.46-.64l-1-.58a5,5,0,1,1,5.15-8.57l.75.44a5,5,0,0,1-2.46,9.35Zm38.78-2.11a5,5,0,0,1-2.92-9.06l.69-.52a5,5,0,0,1,6.05,8c-.3.23-.61.45-.92.67A4.92,4.92,0,0,1,207.89,127.21Zm-53.16-12.78a5,5,0,0,1-4.45-2.7c-.17-.33-.34-.67-.5-1a5,5,0,1,1,9-4.38l.39.78a5,5,0,0,1-4.43,7.3Zm65.84-3.58a4.94,4.94,0,0,1-1.8-.33,5,5,0,0,1-2.86-6.47l.3-.81a5,5,0,1,1,9.42,3.35l-.39,1.06A5,5,0,0,1,220.57,110.85Zm-69.89-13a5,5,0,0,1-5-5c0-.38,0-.76,0-1.14a5,5,0,1,1,10,.28c0,.29,0,.57,0,.86A5,5,0,0,1,150.68,97.8Zm71.52-7.59a5,5,0,0,1-4.88-3.95c-.07-.28-.13-.57-.2-.85a5,5,0,0,1,9.72-2.35c.09.36.17.73.25,1.1a5,5,0,0,1-3.84,5.94A5.35,5.35,0,0,1,222.2,90.21ZM156.6,78a4.91,4.91,0,0,1-2.74-.82,5,5,0,0,1-1.44-6.92l.64-1a5,5,0,0,1,8.2,5.73l-.48.71A5,5,0,0,1,156.6,78Zm55.64-5.9a5,5,0,0,1-3.51-1.44l-.63-.6a5,5,0,0,1,6.84-7.3l.81.78a5,5,0,0,1-3.51,8.56Zm-39.81-7.44a5,5,0,0,1-2-9.58l1-.44a5,5,0,1,1,3.74,9.28c-.27.1-.53.21-.79.33A5,5,0,0,1,172.43,64.62ZM194,62.34a4.89,4.89,0,0,1-1-.1l-.84-.15a5,5,0,1,1,1.68-9.86c.38.06.75.13,1.13.21a5,5,0,0,1-1,9.9Z"/><path class="cls-1" d="M324.3,133.93a5,5,0,0,1-.19-10l.86,0a5,5,0,0,1,.67,10l-1.14.06Zm-19.19-4.61a5,5,0,0,1-2.45-.64l-1-.58a5,5,0,1,1,5.15-8.57l.75.44a5,5,0,0,1-2.46,9.35Zm38.77-2.11a5,5,0,0,1-2.9-9.07l.68-.5a5,5,0,1,1,6,8l-.92.68A5,5,0,0,1,343.88,127.21Zm-53.15-12.78a5,5,0,0,1-4.44-2.69c-.18-.34-.35-.68-.52-1a5,5,0,0,1,9-4.34c.12.25.25.5.38.76a5,5,0,0,1-4.43,7.3Zm65.84-3.58a4.94,4.94,0,0,1-1.8-.33,5,5,0,0,1-2.86-6.47l.3-.81a5,5,0,1,1,9.42,3.35l-.39,1.06A5,5,0,0,1,356.57,110.85Zm-69.89-13a5,5,0,0,1-5-5c0-.38,0-.76,0-1.13a5,5,0,1,1,10,.26c0,.29,0,.58,0,.87A5,5,0,0,1,286.68,97.8Zm71.52-7.59a5,5,0,0,1-4.89-3.95c-.06-.28-.12-.57-.19-.85a5,5,0,0,1,9.72-2.35c.09.36.17.73.25,1.1a5,5,0,0,1-3.84,5.94A5.35,5.35,0,0,1,358.2,90.21ZM292.59,78a5,5,0,0,1-2.74-.82,5,5,0,0,1-1.43-6.93l.64-.93a5,5,0,1,1,8.2,5.71l-.48.72A5,5,0,0,1,292.59,78Zm55.65-5.9a5,5,0,0,1-3.51-1.44l-.63-.6a5,5,0,1,1,6.84-7.3l.81.78a5,5,0,0,1-3.51,8.56Zm-39.81-7.44a5,5,0,0,1-2-9.58l1.05-.44a5,5,0,0,1,3.73,9.28c-.27.1-.53.22-.8.33A5,5,0,0,1,308.43,64.62ZM330,62.34a4.75,4.75,0,0,1-1-.1l-.84-.15a5,5,0,1,1,1.68-9.86c.38.06.76.13,1.13.21a5,5,0,0,1-1,9.9Z"/><path class="cls-1" d="M255.3,244.93a5,5,0,0,1-.19-10l.86,0a5,5,0,0,1,.67,10l-1.14.06Zm-19.19-4.61a5,5,0,0,1-2.45-.64l-1-.58a5,5,0,1,1,5.15-8.57l.75.44a5,5,0,0,1-2.46,9.35Zm38.77-2.11a5,5,0,0,1-2.9-9.07l.68-.5a5,5,0,1,1,6,8l-.92.68A5,5,0,0,1,274.88,238.21Zm-53.15-12.78a5,5,0,0,1-4.44-2.69c-.18-.34-.35-.68-.52-1a5,5,0,0,1,9-4.34l.38.76a5,5,0,0,1-4.43,7.3Zm65.84-3.58a4.94,4.94,0,0,1-1.8-.33,5,5,0,0,1-2.86-6.47l.3-.81a5,5,0,1,1,9.42,3.35l-.39,1.06A5,5,0,0,1,287.57,221.85Zm-69.89-13a5,5,0,0,1-5-5c0-.38,0-.76,0-1.13a5,5,0,1,1,10,.26c0,.29,0,.58,0,.87A5,5,0,0,1,217.68,208.8Zm71.52-7.59a5,5,0,0,1-4.89-4c-.06-.28-.12-.57-.19-.85a5,5,0,0,1,9.72-2.35c.09.36.17.73.25,1.1a5,5,0,0,1-3.84,5.94A5.35,5.35,0,0,1,289.2,201.21ZM223.59,189a5,5,0,0,1-2.74-.82,5,5,0,0,1-1.43-6.93l.64-.93a5,5,0,1,1,8.2,5.71l-.48.72A5,5,0,0,1,223.59,189Zm55.65-5.9a5,5,0,0,1-3.51-1.44l-.63-.6a5,5,0,0,1,6.84-7.3l.81.78a5,5,0,0,1-3.51,8.56Zm-39.81-7.44a5,5,0,0,1-2-9.58l1.05-.44a5,5,0,0,1,3.73,9.28c-.27.1-.53.22-.8.33A5,5,0,0,1,239.43,175.62ZM261,173.34a4.75,4.75,0,0,1-1-.1l-.84-.15a5,5,0,1,1,1.68-9.86c.38.06.76.13,1.13.21a5,5,0,0,1-1,9.9Z"/><path class="cls-1" d="M264,422H248a5,5,0,0,1,0-10h16a5,5,0,0,1,0,10Z"/><path class="cls-1" d="M95.22,198.5a5,5,0,0,1-3.28-8.78c.91-.81,2.82-3.13,2.72-4.92-.06-1-.89-2.1-2.47-3.22-5.35-3.78-6.59-8.05-6.69-11-.24-7,5.61-11.94,6.27-12.49a5,5,0,0,1,6.36,7.72c-.86.73-2.7,2.85-2.64,4.44.05,1.18,1.38,2.35,2.47,3.13,5.26,3.72,6.54,8,6.68,10.9.36,7.1-5.48,12.38-6.15,13A5,5,0,0,1,95.22,198.5Z"/><path class="cls-1" d="M95.5,230.5a5,5,0,0,1-3.28-8.77c.91-.82,2.82-3.14,2.72-4.93-.06-1-.89-2.1-2.47-3.22-5.35-3.78-6.59-8.05-6.69-11-.24-7,5.61-11.94,6.27-12.49a5,5,0,0,1,6.36,7.72c-.86.73-2.7,2.84-2.63,4.44,0,1.18,1.37,2.35,2.47,3.13,5.25,3.72,6.53,8,6.68,10.9.35,7.1-5.49,12.38-6.15,13A5,5,0,0,1,95.5,230.5Z"/><path class="cls-1" d="M95.78,262.5a5,5,0,0,1-3.28-8.78c.91-.81,2.82-3.13,2.72-4.92-.06-1-.89-2.1-2.47-3.22-5.34-3.78-6.59-8.05-6.69-11-.24-7,5.61-12,6.28-12.49a5,5,0,0,1,6.35,7.72c-.85.72-2.7,2.84-2.63,4.43,0,1.19,1.37,2.36,2.47,3.14,5.26,3.72,6.53,8,6.68,10.9.35,7.1-5.49,12.38-6.15,12.95A5,5,0,0,1,95.78,262.5Z"/><path class="cls-1" d="M96.06,294.5a5,5,0,0,1-3.28-8.78c.92-.81,2.82-3.13,2.72-4.92-.06-1-.89-2.1-2.47-3.22-5.34-3.78-6.58-8.05-6.69-11-.24-7,5.61-12,6.28-12.49A5,5,0,0,1,99,261.85c-.85.73-2.7,2.84-2.63,4.43,0,1.18,1.37,2.36,2.47,3.14,5.26,3.72,6.53,8,6.68,10.9.35,7.1-5.49,12.38-6.15,12.95A5,5,0,0,1,96.06,294.5Z"/><path class="cls-1" d="M415.22,198.5a5,5,0,0,1-3.28-8.78c.91-.81,2.82-3.13,2.72-4.92-.06-1-.89-2.1-2.47-3.22-5.35-3.78-6.59-8.05-6.69-11-.24-7,5.61-11.94,6.27-12.49a5,5,0,0,1,6.36,7.72c-.86.73-2.7,2.85-2.64,4.44.05,1.18,1.38,2.35,2.47,3.13,5.26,3.72,6.54,8,6.68,10.9.36,7.1-5.48,12.38-6.15,13A5,5,0,0,1,415.22,198.5Z"/><path class="cls-1" d="M415.5,230.5a5,5,0,0,1-3.28-8.77c.91-.82,2.82-3.14,2.72-4.93-.06-1-.89-2.1-2.47-3.22-5.35-3.78-6.59-8.05-6.69-11-.24-7,5.61-11.94,6.27-12.49a5,5,0,0,1,6.36,7.72c-.86.73-2.7,2.84-2.63,4.44.05,1.18,1.37,2.35,2.47,3.13,5.25,3.72,6.53,8,6.68,10.9.35,7.1-5.49,12.38-6.15,13A5,5,0,0,1,415.5,230.5Z"/><path class="cls-1" d="M415.78,262.5a5,5,0,0,1-3.28-8.78c.92-.81,2.82-3.13,2.72-4.92-.06-1-.89-2.1-2.47-3.22-5.34-3.78-6.59-8.05-6.69-11-.24-7,5.61-12,6.28-12.49a5,5,0,0,1,6.35,7.72c-.86.73-2.7,2.84-2.63,4.43.05,1.19,1.37,2.36,2.47,3.14,5.26,3.72,6.53,8,6.68,10.9.35,7.1-5.49,12.38-6.15,12.95A5,5,0,0,1,415.78,262.5Z"/><path class="cls-1" d="M416.06,294.5a5,5,0,0,1-3.28-8.78c.92-.81,2.82-3.13,2.72-4.92-.06-1-.89-2.1-2.47-3.22-5.34-3.78-6.58-8.05-6.69-11-.24-7,5.61-12,6.28-12.49a5,5,0,0,1,6.35,7.72c-.85.73-2.7,2.84-2.63,4.43.05,1.18,1.37,2.36,2.47,3.14,5.26,3.72,6.53,8,6.68,10.9.35,7.1-5.49,12.38-6.15,12.95A5,5,0,0,1,416.06,294.5Z"/><path class="cls-1" d="M256,349.7a5,5,0,0,1-5-5V327.57a5,5,0,1,1,10,0V344.7A5,5,0,0,1,256,349.7Z"/><path class="cls-1" d="M256,373.26a24.27,24.27,0,0,1-17.16-41.44,5,5,0,0,1,7.07,7.07,14.27,14.27,0,1,0,20.18,0,5,5,0,0,1,7.08-7.07A24.28,24.28,0,0,1,256,373.26Z"/></g></svg>