<?xml version="1.0" ?><svg enable-background="new 0 0 512 512" version="1.1" viewBox="0 0 512 512" xml:space="preserve" xmlns="http://www.w3.org/2000/svg" xmlns:xlink="http://www.w3.org/1999/xlink"><g id="Lines"><g><g><g><g><path d="M149.179,389.781c-0.822,0-1.675-0.144-2.56-0.462c-2.416-0.87-3.594-2.89-4.038-3.65       c-2.462-4.226-4.057-8.669-5.598-12.967l-0.593-1.646c-0.641-1.769-1.197-3.339-1.664-4.699       c-6.746-1.037-16.861-3.302-21.214-6.764c-3.005-2.391-3.578-5.042-3.53-6.843c0.085-3.163,2.101-5.262,3.125-6.128       c3.477-3.528,12.318-9.192,17.239-12.231c-1.347-8.227-1.527-16.273-1.469-18.726c0.052-2.195,0.619-4.07,1.686-5.572       c1.284-1.804,3.386-3.145,5.625-3.589c0.707-0.142,1.453-0.185,2.208-0.129c1.604,0.121,3.209,0.69,4.773,1.692       c2.068,1.325,8.638,5.978,14.701,11.692c5.271-2.379,14.913-6.54,19.782-7.448c1.29-0.367,4.158-0.861,6.828,0.837       c1.521,0.968,3.397,2.925,3.698,6.753c0.431,5.479-3.256,14.97-6.156,21.149c4.43,5.19,8.128,10.757,11.254,16.929       c2.088,4.125,0.796,8.615-3.072,10.678c-1.796,0.958-3.66,1.131-4.661,1.224c-4.317,0.4-8.555,0.431-12.652,0.46l-2.279,0.019       c-0.569,0.007-1.182-0.009-1.794-0.025c-0.485-0.013-0.971-0.027-1.422-0.022c-0.073,0-0.156,0-0.244-0.003       c-0.587,0.917-1.165,1.853-1.762,2.819c-1.208,1.958-2.458,3.984-3.896,5.993c-0.191,0.267-0.432,0.64-0.716,1.076       C158.504,383.685,154.528,389.781,149.179,389.781z M121.305,352.653c3.561,1.61,11.121,3.442,17.756,4.2       c1.965,0.225,3.613,1.586,4.204,3.474c0.366,1.17,1.102,3.39,2.527,7.321l0.603,1.675c1.124,3.131,2.199,6.127,3.552,8.911       c0.986-1.245,2.006-2.809,2.458-3.502c0.379-0.582,0.705-1.077,0.959-1.432c1.238-1.731,2.346-3.525,3.518-5.425       c1.076-1.744,2.188-3.546,3.437-5.344c0.454-0.653,1.058-1.189,1.761-1.562l0.078-0.042c1.714-0.912,3.512-0.759,4.824-0.646       c0.149,0.013,0.288,0.026,0.402,0.031c0.486-0.004,1.091,0.009,1.698,0.024c0.488,0.013,0.978,0.027,1.431,0.022l2.307-0.019       c3.524-0.026,6.88-0.05,10.245-0.291c-2.97-5.389-6.481-10.251-10.685-14.805c-1.43-1.549-1.734-3.829-0.761-5.7       c3.083-5.924,5.793-13.216,6.451-17.068c-4.532,1.285-13.74,5.271-19.124,7.79c-1.926,0.903-4.215,0.485-5.7-1.04       c-5.211-5.348-11.568-10.063-14.374-12.005c0.04,3.412,0.393,11.315,1.912,18.63c0.433,2.083-0.501,4.213-2.327,5.306       C133.359,344.212,124.904,349.615,121.305,352.653z M119.405,354.379c-0.005,0.004-0.01,0.007-0.015,0.011       C119.395,354.386,119.399,354.383,119.405,354.379z" fill="#384169"/></g></g></g><g><g><g><path d="M399.784,273.624c-1.277,0-2.579-0.335-3.812-1.032c-1.773-1.004-2.918-2.485-3.533-3.282       c-2.651-3.429-4.949-6.991-7.171-10.437l-1.235-1.91c-0.311-0.479-0.627-1.004-0.942-1.531       c-0.249-0.415-0.496-0.831-0.742-1.209c-0.041-0.062-0.084-0.132-0.129-0.208c-1.091-0.01-2.189,0.008-3.324,0.023       c-2.302,0.029-4.681,0.06-7.146-0.077c-0.327-0.018-0.77-0.021-1.29-0.027c-4.806-0.059-13.752-0.168-15.295-7.065       c-0.56-2.511,0.515-4.587,0.92-5.369c2.246-4.341,5.144-8.07,7.946-11.675l1.049-1.353c1.26-1.633,2.28-2.93,3.097-3.951       c-2.741-6.251-6.25-16.006-5.66-21.536c0.408-3.818,2.338-5.723,3.886-6.647c2.715-1.623,5.567-1.046,6.848-0.646       c4.842,1.044,14.363,5.472,19.566,7.998c6.219-5.542,12.917-10.01,15.021-11.276c1.886-1.134,3.777-1.659,5.61-1.563       c2.208,0.116,4.467,1.171,6.042,2.822c0.504,0.529,0.939,1.135,1.295,1.802c0.756,1.414,1.136,3.075,1.128,4.935       c-0.01,2.451-0.415,10.489-1.992,18.676c4.834,3.175,13.514,9.084,16.891,12.708c1,0.894,2.956,3.049,2.953,6.213       c-0.002,1.803-0.648,4.436-3.719,6.742c-4.395,3.3-14.383,5.275-21.154,6.139c-2.008,6.521-4.726,12.628-8.261,18.575       C405.034,272.152,402.462,273.624,399.784,273.624z M400.993,263.95h0.01H400.993z M381.745,244.014       c1.107,0,2.233,0.015,3.378,0.063c0.797,0.033,1.574,0.256,2.267,0.651l0.077,0.044c1.683,0.956,2.518,2.556,3.127,3.725       c0.069,0.133,0.132,0.257,0.189,0.356c0.264,0.403,0.576,0.922,0.887,1.442c0.251,0.419,0.502,0.84,0.75,1.222l1.252,1.937       c1.911,2.962,3.73,5.783,5.737,8.496c2.958-5.396,5.181-10.966,6.772-16.955c0.542-2.038,2.303-3.517,4.404-3.697       c6.654-0.572,14.263-2.192,17.867-3.702c-3.513-3.137-11.814-8.774-16.827-11.97c-1.794-1.144-2.668-3.299-2.177-5.37       c1.724-7.271,2.297-15.163,2.432-18.569c-2.857,1.861-9.345,6.399-14.703,11.599c-1.527,1.482-3.825,1.835-5.727,0.88       c-5.312-2.668-14.405-6.91-18.898-8.32c0.549,3.869,3.055,11.233,5.971,17.242c0.864,1.78,0.597,3.901-0.68,5.412       c-0.8,0.946-2.29,2.769-4.845,6.082l-1.071,1.38c-2.042,2.627-3.996,5.142-5.621,7.777c1.58,0.165,3.448,0.188,4.276,0.197       c0.693,0.009,1.284,0.018,1.72,0.042c2.125,0.117,4.232,0.09,6.466,0.062C379.745,244.027,380.737,244.014,381.745,244.014z        M430.299,239.37c0.006,0.005,0.012,0.01,0.018,0.014C430.311,239.379,430.305,239.375,430.299,239.37z M430.199,236.621       L430.199,236.621L430.199,236.621L430.199,236.621z M370.059,205.16c0.005,0.002,0.011,0.004,0.017,0.007       C370.07,205.165,370.064,205.162,370.059,205.16z M413.345,200.803L413.345,200.803L413.345,200.803z" fill="#384169"/></g></g></g><g><g><g><path d="M215.566,266c-0.567,0-1.144-0.097-1.708-0.302C88.154,219.988,46.921,162.264,45.227,159.829       c-5.435-7.812-2.004-14.743,0.569-17.316c0.138-0.138,0.284-0.268,0.438-0.389c3.904-3.083,8.343-4.429,12.832-3.893       c7.389,0.882,12.654,6.453,14.141,8.202c38.005,31.781,73.855,45.236,97.268,50.928c20.111,4.889,34.741,5.046,40.075,4.89       c10.047-13.104,25.272-13.457,34.785-11.156c9.931-19.085-4.278-34.467-5.276-35.511c-45.921-45.419-116-75.387-121.907-77.863       c-2.512-0.569-10.191-2.729-13.537-8.431c-1.67-2.846-1.992-6.09-0.93-9.382c0.932-2.887,2.891-5.154,5.666-6.556       c7.365-3.722,18.654-0.256,20.841,0.476c50.001,16.594,87.521,33.95,110.189,45.588c24.673,12.667,37.336,21.305,37.863,21.667       c2.276,1.562,2.855,4.672,1.295,6.95c-1.561,2.276-4.671,2.858-6.951,1.297c-0.501-0.343-51.237-34.711-145.559-66.015       c-3.714-1.231-10.463-2.41-13.174-1.036c-0.475,0.241-0.574,0.45-0.655,0.699c-0.246,0.764-0.084,1.042,0.035,1.246       c0.983,1.688,4.934,3.294,7.409,3.806c0.301,0.062,0.611,0.155,0.896,0.271c3.097,1.266,76.425,31.559,125.593,80.218       c0.025,0.024,0.049,0.049,0.074,0.074c7.863,8.115,18.947,29.254,4.617,51.179c-1.297,1.985-3.809,2.787-6.015,1.918       c-0.734-0.282-18.516-6.891-28.411,8.177c-0.835,1.271-2.203,2.093-3.717,2.234c-0.727,0.069-18.12,1.579-45.054-4.897       c-24.645-5.925-62.38-19.999-102.199-53.402c-0.266-0.223-0.507-0.473-0.721-0.745c-1.077-1.342-6.749-7.791-12.903-3.366       c-0.519,0.745-0.937,2.175,0.631,4.429c0.447,0.643,11.273,15.988,39.129,37.087c33.274,25.202,75.232,47.103,124.71,65.094       c2.595,0.944,3.934,3.812,2.991,6.408C219.527,264.738,217.609,266,215.566,266z" fill="#3F456B"/></g></g></g><g><g><g><path d="M290.54,126.956c-2.181,0-4.186-1.438-4.809-3.64c-3.99-14.099-10.087-25.493-10.148-25.606       c-1.309-2.43-0.402-5.463,2.028-6.773c2.428-1.311,5.46-0.405,6.772,2.024c0.271,0.5,6.667,12.43,10.97,27.632       c0.752,2.657-0.792,5.421-3.449,6.173C291.449,126.895,290.991,126.956,290.54,126.956z" fill="#3F456B"/></g></g></g><g><g><g><path d="M315.061,144.885c-1.648,0-3.262-0.814-4.216-2.305c-1.488-2.326-0.81-5.418,1.516-6.907       c17.843-11.42,42.472-21.59,73.201-30.229c22.782-6.404,40.113-9.442,40.84-9.568c0.229-0.04,0.459-0.063,0.69-0.071       c3.534-0.136,7.377-1.447,7.767-2.363l0,0c0,0,0.007-0.031,0.006-0.105c-0.534-0.909-4.356-1.91-7.878-1.824       c-87.023,2.953-134.658,28.601-135.129,28.859c-2.42,1.328-5.459,0.448-6.79-1.969c-1.331-2.417-0.455-5.454,1.961-6.788       c1.999-1.103,49.974-27.054,139.638-30.097c1.673-0.058,10.239-0.097,15.009,4.431c2.03,1.927,3.132,4.414,3.187,7.192       c0.161,8.224-8.393,12.254-17.065,12.645c-5.135,0.929-70.788,13.185-110.046,38.311       C316.917,144.63,315.983,144.885,315.061,144.885z" fill="#3F456B"/></g></g></g><g><g><g><path d="M298.523,484.171c-0.206,0-0.378-0.004-0.513-0.008h-35.623c-7.669,0-11.754-3.083-13.831-5.669       c-4.078-5.079-3.368-11.51-3.031-13.46c1.023-25.404,0.919-48.333-0.317-70.087c-1.061-18.646-2.885-35.253-5.577-50.77       c-2.184-12.591-4.782-23.586-7.942-33.613c-2.784-8.833-5.723-15.795-9.249-21.909l-0.287-0.497       c-5.948-10.31-12.099-20.972-12.729-34.219c-0.327-6.868,0.068-16.779,7.238-23.528c2.01-1.893,5.175-1.797,7.068,0.214       c1.893,2.011,1.797,5.175-0.214,7.068c-3.169,2.983-4.473,7.994-4.104,15.771c0.515,10.826,5.804,19.992,11.403,29.697       l0.287,0.498c3.899,6.76,7.116,14.354,10.124,23.899c3.295,10.456,5.997,21.875,8.257,34.91       c2.758,15.897,4.625,32.878,5.708,51.911c1.262,22.186,1.363,45.55,0.311,71.427c-0.012,0.295-0.05,0.589-0.114,0.877       c-0.189,0.944-0.401,3.881,0.988,5.577c1.288,1.572,3.979,1.902,6.011,1.902h35.719c0.075,0,0.149,0.001,0.224,0.005       c1.617,0.058,3.527-0.467,3.879-0.911c0,0,0,0,0,0c-0.007,0,0.016-0.119,0.007-0.333c-0.085-2.07-2.502-3.142-9.24-4.096       c-0.455-0.064-1.005-0.118-1.626-0.181c-4.838-0.488-13.845-1.396-19.557-8.449c-3.815-4.711-5.303-11.178-4.424-19.222       c0.598-5.473,1.129-11.186,1.579-16.979c2.431-31.333,2.717-64.988,0.902-105.912c-0.551-12.421-1.3-24.745-2.024-36.663       l-0.153-2.426c-0.688-10.67-1.399-21.704,4.576-32.245c2.16-3.81,4.942-6.699,7.632-9.494c1.533-1.592,2.98-3.095,4.255-4.708       c10.891-13.783,18.459-33.867,20.766-55.104c0.155-1.429,0.918-2.723,2.095-3.55c0.326-0.237,8.647-6.402,8.313-17.897       c-0.332-11.456-9.592-17.267-9.986-17.508c-2.343-1.438-3.1-4.506-1.677-6.858c1.422-2.353,4.464-3.122,6.826-1.714       c0.585,0.349,14.339,8.746,14.833,25.791c0.383,13.212-7.1,21.593-10.698,24.844c-2.761,22.312-10.954,43.427-22.626,58.198       c-1.578,1.997-3.265,3.75-4.897,5.445c-2.365,2.456-4.599,4.776-6.137,7.49c-4.503,7.943-3.917,17.039-3.296,26.669       l0.156,2.463c0.727,11.958,1.478,24.323,2.033,36.826c1.833,41.34,1.54,75.381-0.923,107.128       c-0.457,5.898-0.998,11.716-1.608,17.293c-0.579,5.295,0.18,9.279,2.255,11.841c3.089,3.814,8.926,4.403,12.789,4.792       c0.773,0.078,1.458,0.149,2.024,0.229c5.64,0.798,17.375,2.459,17.83,13.589c0.126,3.079-0.896,5.79-2.955,7.841       C305.785,483.81,300.554,484.171,298.523,484.171z" fill="#3F456B"/></g></g></g><g><g><g><path d="M267.15,496.209c-2.761,0-5-2.239-5-5v-12.047c0-2.761,2.239-5,5-5s5,2.239,5,5v12.047       C272.15,493.971,269.911,496.209,267.15,496.209z" fill="#3F456B"/></g></g></g><g><g><g><path d="M294.885,496.209c-2.761,0-5-2.239-5-5v-12.047c0-2.761,2.239-5,5-5s5,2.239,5,5v12.047       C299.885,493.971,297.646,496.209,294.885,496.209z" fill="#3F456B"/></g></g></g><g><g><g><path d="M275.416,117.149c-1.26,0-2.52-0.473-3.493-1.422c-1.976-1.929-2.014-5.095-0.084-7.071       c3.287-3.366,3.119-10.516,2.802-12.756c-0.013-0.088-0.023-0.177-0.031-0.267c-0.423-4.838-2.847-9.239-7.009-12.727       c-5.731-4.804-13.878-7.129-22.354-6.376c-12.54,1.112-20.563,5.487-23.846,13.004c-1.106,2.53-4.055,3.684-6.583,2.581       c-2.53-1.105-3.686-4.053-2.581-6.583c4.79-10.966,15.899-17.523,32.127-18.962c11.104-0.983,21.91,2.177,29.661,8.673       c6.117,5.127,9.855,12.01,10.536,19.395c0.254,1.927,1.484,13.784-5.566,21.005       C278.014,116.646,276.715,117.149,275.416,117.149z" fill="#3F456B"/></g></g></g><g><g><g><path d="M49.329,151.048c-1.146,0-2.299-0.392-3.24-1.194c-7.883-6.714-16.885-18.488-17.264-18.986       c-1.673-2.196-1.25-5.333,0.946-7.007c2.197-1.675,5.334-1.249,7.007,0.946c0.087,0.114,8.736,11.422,15.795,17.435       c2.102,1.791,2.355,4.946,0.564,7.048C52.149,150.451,50.744,151.048,49.329,151.048z" fill="#3F456B"/></g></g></g><g><g><g><path d="M432.339,500.552h-352c-2.761,0-5-2.239-5-5s2.239-5,5-5h352c2.761,0,5,2.239,5,5       S435.101,500.552,432.339,500.552z" fill="#3F456B"/></g></g></g><g><g><g><g><path d="M400.511,428.323c-0.554,0-1.117-0.093-1.669-0.289c-2.603-0.922-3.966-3.779-3.043-6.382        l37.748-106.565c1.96-7.19,10.747-20.258,30.655-19.697c2.97,0.075,7.052,0.443,11.374,0.832l0.289,0.026        c0.083,0.007,0.165,0.017,0.247,0.028l15.495,2.173c1.71,0.139,9.594,1.125,13.074,7.602c2.591,4.822,1.829,10.877-2.265,18        c-1.211,2.554-10.858,21.659-26.864,18.518l-40.046-3.062l-30.281,85.485C404.498,427.042,402.569,428.323,400.511,428.323z         M438.963,329.742l37.665,2.88c0.227,0.017,0.452,0.05,0.674,0.098c9.053,1.945,16.051-12.895,16.12-13.045        c0.07-0.154,0.147-0.305,0.232-0.451c2.198-3.777,3.026-6.932,2.216-8.439c-0.868-1.614-4.075-2.311-5.083-2.369        c-0.136-0.008-0.271-0.021-0.406-0.04l-15.703-2.194c-4.157-0.374-8.084-0.727-10.742-0.794        c-16.706-0.458-20.412,11.142-20.779,12.466c-0.031,0.112-0.08,0.272-0.119,0.382L438.963,329.742z" fill="#3F456B"/></g></g></g></g><g><g><g><path d="M370.48,446.213c-4.427,0-8.891-0.716-13.16-2.228c-9.167-3.247-16.22-9.754-19.348-17.852       c-2.819-7.296-2.273-15.219,1.536-22.31c8.027-14.935,28.75-22.057,46.197-15.876c9.168,3.248,16.221,9.755,19.349,17.854       c2.818,7.296,2.271,15.218-1.539,22.308C397.455,439.39,384.147,446.213,370.48,446.213z M372.303,395.666       c-10.019,0-19.657,4.836-23.986,12.891c-2.407,4.479-2.768,9.441-1.018,13.973c2.076,5.373,6.945,9.758,13.359,12.03       c12.989,4.6,28.263-0.417,34.048-11.184v0c2.407-4.478,2.769-9.439,1.019-13.97c-2.076-5.374-6.945-9.759-13.36-12.032       C379.095,396.215,375.676,395.666,372.303,395.666z" fill="#3F456B"/></g></g></g></g></g><g id="Outline"><g><g><g><g><g><path d="M277.506,37.811c-0.632,0-1.275-0.121-1.896-0.376c-2.555-1.048-3.775-3.97-2.727-6.524l5.142-12.526        c1.048-2.555,3.969-3.776,6.524-2.727c2.555,1.048,3.775,3.97,2.727,6.524l-5.142,12.526        C281.34,36.642,279.474,37.811,277.506,37.811z" fill="#3F456B"/></g></g></g></g><g><g><g><g><path d="M312.232,96.074c-0.63,0-1.271-0.12-1.89-0.374l-12.033-4.92c-2.556-1.045-3.781-3.964-2.736-6.52        c1.044-2.556,3.965-3.782,6.52-2.736l12.033,4.92c2.556,1.045,3.781,3.964,2.736,6.52        C316.07,94.901,314.203,96.074,312.232,96.074z" fill="#3F456B"/></g></g></g></g><g><g><g><g><path d="M302.757,70.06c-2.464,0-4.61-1.822-4.949-4.333c-0.369-2.736,1.55-5.254,4.287-5.623l13.247-1.786        c2.731-0.372,5.254,1.55,5.623,4.287c0.369,2.736-1.55,5.254-4.287,5.623l-13.247,1.786        C303.205,70.045,302.98,70.06,302.757,70.06z" fill="#3F456B"/></g></g></g></g><g><g><g><g><path d="M294.569,50.7c-1.496,0-2.975-0.668-3.96-1.943c-1.688-2.186-1.285-5.326,0.9-7.014l10.66-8.234        c2.185-1.688,5.325-1.286,7.014,0.9c1.688,2.186,1.285,5.326-0.9,7.014l-10.66,8.234        C296.712,50.359,295.637,50.7,294.569,50.7z" fill="#3F456B"/></g></g></g></g><g><g><g><g><path d="M256.417,33.585c-2.464,0-4.61-1.822-4.949-4.332l-1.666-12.35c-0.369-2.737,1.55-5.254,4.287-5.624        c2.738-0.374,5.254,1.55,5.624,4.287l1.666,12.35c0.369,2.737-1.55,5.254-4.287,5.624        C256.864,33.571,256.639,33.585,256.417,33.585z" fill="#3F456B"/></g></g></g></g><g><g><g><g><path d="M236.866,42.262c-1.496,0-2.976-0.668-3.96-1.944l-7.911-10.243c-1.688-2.186-1.285-5.325,0.901-7.013        c2.185-1.688,5.326-1.286,7.013,0.901l7.911,10.243c1.688,2.186,1.285,5.325-0.901,7.013        C239.009,41.922,237.933,42.262,236.866,42.262z" fill="#3F456B"/></g></g></g></g><g><g><g><g><path d="M224.239,59.127c-0.63,0-1.271-0.12-1.89-0.374l-12.033-4.92c-2.556-1.045-3.781-3.964-2.736-6.52        c1.044-2.556,3.965-3.782,6.52-2.736l12.033,4.92c2.556,1.045,3.781,3.964,2.736,6.52        C228.077,57.955,226.209,59.127,224.239,59.127z" fill="#3F456B"/></g></g></g></g><g><g><g><path d="M481.495,220.255c-2.761,0-5-2.239-5-5v-38.782c0-2.761,2.239-5,5-5s5,2.239,5,5v38.782       C486.495,218.016,484.256,220.255,481.495,220.255z" fill="#3F456B"/></g></g></g><g><g><g><path d="M498.292,210.56c-0.848,0-1.707-0.216-2.494-0.67l-33.602-19.391c-2.392-1.38-3.212-4.438-1.832-6.83       c1.379-2.392,4.437-3.214,6.83-1.832l33.602,19.391c2.392,1.38,3.212,4.438,1.832,6.83       C501.701,209.663,500.02,210.56,498.292,210.56z" fill="#3F456B"/></g></g></g><g><g><g><path d="M464.699,210.56c-1.729,0-3.41-0.897-4.335-2.502c-1.38-2.392-0.56-5.449,1.832-6.83l33.602-19.391       c2.391-1.381,5.449-0.56,6.83,1.832s0.56,5.449-1.832,6.83l-33.602,19.391C466.406,210.344,465.547,210.56,464.699,210.56z" fill="#3F456B"/></g></g></g><g><g><g><path d="M365.01,71.033c-2.761,0-5-2.239-5-5V27.251c0-2.761,2.239-5,5-5s5,2.239,5,5v38.782       C370.01,68.794,367.771,71.033,365.01,71.033z" fill="#3F456B"/></g></g></g><g><g><g><path d="M381.806,61.338c-0.848,0-1.707-0.216-2.494-0.67L345.71,41.277c-2.392-1.38-3.212-4.438-1.832-6.83       c1.38-2.392,4.437-3.213,6.83-1.832l33.602,19.391c2.392,1.38,3.212,4.438,1.832,6.83       C385.216,60.441,383.535,61.338,381.806,61.338z" fill="#3F456B"/></g></g></g><g><g><g><path d="M348.214,61.338c-1.729,0-3.41-0.897-4.335-2.502c-1.38-2.392-0.56-5.45,1.832-6.83l33.602-19.391       c2.391-1.38,5.45-0.56,6.83,1.832c1.38,2.392,0.56,5.45-1.832,6.83l-33.602,19.391       C349.921,61.122,349.062,61.338,348.214,61.338z" fill="#3F456B"/></g></g></g><g><g><g><path d="M41.421,239.646c-2.761,0-5-2.239-5-5v-38.782c0-2.761,2.239-5,5-5s5,2.239,5,5v38.782       C46.421,237.407,44.183,239.646,41.421,239.646z" fill="#3F456B"/></g></g></g><g><g><g><path d="M58.218,229.951c-0.848,0-1.707-0.216-2.494-0.67L22.122,209.89c-2.392-1.38-3.212-4.438-1.832-6.83       c1.379-2.392,4.437-3.214,6.83-1.832l33.602,19.391c2.392,1.38,3.212,4.438,1.832,6.83       C61.627,229.054,59.946,229.951,58.218,229.951z" fill="#3F456B"/></g></g></g><g><g><g><path d="M24.625,229.951c-1.729,0-3.41-0.897-4.335-2.502c-1.38-2.392-0.56-5.449,1.832-6.83l33.602-19.391       c2.392-1.381,5.45-0.56,6.83,1.832c1.38,2.392,0.56,5.449-1.832,6.83L27.12,229.281       C26.333,229.735,25.473,229.951,24.625,229.951z" fill="#3F456B"/></g></g></g><g><g><g><path d="M293.36,438.91c-2.71-0.53-4.48-3.16-3.94-5.87l0,0c0.52-2.71,3.15-4.48,5.86-3.95l0,0       c2.71,0.53,4.48,3.16,3.95,5.87l0,0c-0.47,2.38-2.56,4.04-4.9,4.04l0,0C294.01,439,293.69,438.97,293.36,438.91z M297.5,419.34       c-2.67-0.7-4.27-3.43-3.57-6.1l0,0c0.69-2.67,3.42-4.27,6.1-3.58l0,0c2.67,0.7,4.27,3.43,3.57,6.1l0,0       c-0.58,2.25-2.61,3.74-4.83,3.74l0,0C298.35,419.5,297.93,419.45,297.5,419.34z M302.84,400.07c-2.62-0.86-4.05-3.69-3.2-6.31       l0,0c0.86-2.63,3.69-4.06,6.31-3.2l0,0c2.63,0.86,4.06,3.68,3.2,6.31l0,0c-0.69,2.11-2.65,3.45-4.75,3.45l0,0       C303.88,400.31,303.36,400.23,302.84,400.07z M309.34,381.15c-2.56-1.02-3.82-3.92-2.81-6.49l0,0       c1.02-2.57,3.92-3.83,6.49-2.81l0,0c2.57,1.01,3.83,3.92,2.81,6.48l0,0c0,0,0,0,0,0.01l0,0c-0.77,1.96-2.66,3.16-4.65,3.16l0,0       C310.57,381.5,309.95,381.39,309.34,381.15z M316.97,362.66c-2.5-1.17-3.59-4.14-2.43-6.65l0,0c1.17-2.5,4.14-3.59,6.65-2.42       l0,0c2.5,1.16,3.59,4.14,2.42,6.64l0,0l0,0l0,0c-0.85,1.82-2.65,2.89-4.54,2.89l0,0C318.37,363.12,317.65,362.97,316.97,362.66       z M325.67,344.64c-2.43-1.31-3.34-4.34-2.03-6.77l0,0c1.31-2.43,4.34-3.34,6.77-2.03l0,0c2.43,1.31,3.34,4.34,2.03,6.77l0,0       c-0.9,1.68-2.62,2.63-4.4,2.63l0,0C327.24,345.24,326.43,345.05,325.67,344.64z M335.41,327.16c-2.35-1.45-3.08-4.53-1.63-6.88       l0,0c1.45-2.35,4.53-3.08,6.88-1.63l0,0c2.35,1.45,3.08,4.53,1.63,6.88l0,0l0,0l0,0c-0.94,1.53-2.58,2.38-4.26,2.38l0,0       C337.14,327.91,336.23,327.67,335.41,327.16z M346.17,310.29c-2.26-1.59-2.8-4.71-1.22-6.97l0,0c1.59-2.26,4.71-2.8,6.97-1.22       l0,0c2.26,1.59,2.8,4.71,1.22,6.97l0,0c-0.98,1.39-2.53,2.13-4.1,2.13l0,0C348.05,311.2,347.04,310.9,346.17,310.29z        M357.94,294.09c-2.15-1.73-2.49-4.88-0.76-7.03l0,0c1.74-2.15,4.89-2.49,7.04-0.75l0,0c2.15,1.73,2.48,4.88,0.75,7.03l0,0l0,0       l0,0c-0.99,1.22-2.44,1.86-3.9,1.86l0,0C359.97,295.2,358.86,294.84,357.94,294.09z M370.75,278.66       c-1.93-1.98-1.9-5.14,0.08-7.07l0,0c1.97-1.93,5.14-1.9,7.07,0.08l0,0c1.93,1.97,1.89,5.14-0.08,7.07l0,0l0,0l0,0       c-0.97,0.95-2.24,1.42-3.5,1.42l0,0C373.02,280.16,371.73,279.66,370.75,278.66z" fill="#384169"/></g></g></g><g><g><g><path d="M220.32,453.46c-1.27-2.46-0.3-5.47,2.15-6.74l0,0c2.46-1.26,5.47-0.3,6.74,2.15l0,0c0,0,0,0,0,0.01       l0,0c1.26,2.45,0.3,5.47-2.16,6.73l0,0c-0.73,0.38-1.51,0.56-2.28,0.56l0,0C222.95,456.17,221.21,455.18,220.32,453.46z        M210.66,436.38c-1.45-2.35-0.72-5.43,1.63-6.88l0,0c2.35-1.45,5.43-0.72,6.88,1.63l0,0c1.45,2.35,0.72,5.43-1.63,6.88l0,0       c-0.82,0.51-1.73,0.75-2.62,0.75l0,0C213.24,438.76,211.6,437.91,210.66,436.38z M199.74,420.05       c-1.61-2.24-1.11-5.36,1.13-6.98l0,0c2.24-1.62,5.37-1.11,6.98,1.13l0,0c1.62,2.24,1.11,5.36-1.12,6.98l0,0       c-0.89,0.64-1.91,0.95-2.93,0.95l0,0C202.25,422.13,200.72,421.41,199.74,420.05z M187.68,404.55       c-1.78-2.11-1.5-5.27,0.61-7.04l0,0c2.12-1.78,5.27-1.5,7.04,0.61l0,0c1.78,2.11,1.51,5.27-0.61,7.05l0,0       c-0.93,0.78-2.08,1.17-3.21,1.17l0,0C190.08,406.34,188.67,405.73,187.68,404.55z M174.53,390.24       c-2.01-1.89-2.11-5.06-0.22-7.07l0,0c1.89-2.01,5.06-2.11,7.07-0.22l0,0c2.01,1.89,2.11,5.06,0.22,7.07l0,0       c-0.99,1.05-2.31,1.58-3.65,1.58l0,0C176.73,391.6,175.5,391.15,174.53,390.24z" fill="#384169"/></g></g></g><g><g><g><path d="M490.454,169.102c-0.569,0-1.148-0.098-1.713-0.304c-2.594-0.947-3.93-3.817-2.983-6.411       c0.985-2.7,1.641-5.63,1.949-8.709c0.432-4.318-0.219-8.63-1.745-12.625c-0.071,0.072-0.143,0.144-0.214,0.215       c-11.404,11.403-26.157,16.646-40.485,14.382c-6.796-1.074-12.46-4.729-15.541-10.029c-2.775-4.775-3.148-10.464-1.05-16.019       c5.94-15.731,26.326-20.974,41.643-16.003c6.327,2.054,11.863,5.591,16.28,10.117c4.48-8.057,6.371-17.099,5.056-25.424       c-2.451-15.529-14.359-27.143-31.854-31.068c-2.694-0.605-4.389-3.279-3.784-5.974c0.605-2.693,3.277-4.388,5.974-3.784       c21.646,4.857,36.428,19.536,39.542,39.267c1.873,11.862-1.33,24.77-8.512,35.633c3.684,6.688,5.429,14.422,4.64,22.306       c-0.391,3.91-1.233,7.659-2.504,11.143C494.411,167.842,492.495,169.102,490.454,169.102z M458.452,121.77       c-8.735,0-17.551,3.755-20.425,11.366c-1.044,2.765-0.93,5.275,0.34,7.461c1.539,2.647,4.7,4.583,8.456,5.176       c11.126,1.759,22.738-2.461,31.854-11.576c0.675-0.674,1.326-1.367,1.955-2.075c-3.503-4.087-8.105-7.291-13.405-9.011       C464.478,122.218,461.468,121.77,458.452,121.77z" fill="#384169"/></g></g></g><g><g><g><path d="M46.444,466.725c-0.317,0-0.638-0.03-0.961-0.093c-13.794-2.687-25.357-12.388-30.93-25.951       c-5.402-13.147-4.008-27.768,3.729-39.109c2.047-3,4.253-5.817,6.604-8.44c-3.334-5.076-5.561-10.852-6.525-17.102       c-1.924-12.464,1.128-24.735,8.295-34.597c-3.684-5.685-5.457-12.407-4.77-19.434c2.396-24.5,22.856-35.03,33.34-37.174       c2.704-0.556,5.347,1.191,5.9,3.896c0.552,2.7-1.183,5.335-3.878,5.897l0,0c-0.944,0.2-23.143,5.174-25.41,28.354       c-0.339,3.467,0.247,7.2,1.892,10.7c0.512-0.452,1.035-0.894,1.57-1.327c11.183-9.058,28.254-16.269,42.635-9.346       c5.937,2.86,9.357,8.18,9.15,14.231c-0.21,6.116-2.905,11.25-7.795,14.848c-8.369,6.157-22.243,6.774-31.623,4.202       c-5.418-1.486-10.195-3.975-14.124-7.189c-4.753,7.43-6.697,16.359-5.3,25.415c0.694,4.495,2.122,8.292,3.953,11.491       c7.325-6.238,15.681-10.885,24.779-13.722c10.877-3.392,30.958-7.195,43.225,5.434c4.238,4.363,5.84,9.831,4.512,15.396       c-2.049,8.584-10.612,15.652-18.011,18.198c-15.693,5.397-33.942,3.62-47.626-4.642c-2.809-1.696-5.374-3.637-7.672-5.792       c-1.714,1.992-3.336,4.106-4.86,6.34c-5.923,8.681-6.921,19.497-2.74,29.672c4.29,10.441,13.11,17.894,23.592,19.936       c2.71,0.528,4.479,3.153,3.952,5.864C50.881,465.068,48.789,466.725,46.444,466.725z M38.468,393.796       c1.936,1.772,3.927,3.188,5.775,4.304c11.216,6.771,26.238,8.206,39.205,3.746c4.661-1.604,10.397-6.29,11.537-11.063       c0.535-2.24-0.087-4.18-1.958-6.106c-8.541-8.793-24.389-5.564-33.075-2.854C52.075,384.277,44.828,388.333,38.468,393.796z        M39.96,341.515c2.713,2.18,6.142,3.967,10.352,5.122c6.831,1.873,17.586,1.408,23.05-2.612       c2.438-1.794,3.623-4.062,3.728-7.137c0.089-2.598-1.852-4.087-3.495-4.879c-6.669-3.211-18.577-2.768-32,8.107       C41.034,340.569,40.489,341.036,39.96,341.515z" fill="#384169"/></g></g></g></g></g></svg>