<?xml version="1.0" ?><svg viewBox="0 0 512 512" xmlns="http://www.w3.org/2000/svg"><defs><style>.cls-1{fill:#3f456b;}</style></defs><title/><g id="Lines"><path class="cls-1" d="M117.79,501.82H93c-14.13,0-25.63-11.77-25.63-26.24V446.94a5,5,0,0,1,10,0v28.64c0,9,7,16.24,15.63,16.24h24.77c8.62,0,15.63-7.28,15.63-16.24V446.94a5,5,0,0,1,10,0v28.64C143.42,490.05,131.92,501.82,117.79,501.82Z"/><path class="cls-1" d="M418.3,501.82H393.54c-14.13,0-25.63-11.77-25.63-26.24v-27a5,5,0,0,1,10,0v27c0,9,7,16.24,15.63,16.24H418.3c8.63,0,15.64-7.28,15.64-16.24v-27a5,5,0,0,1,10,0v27C443.94,490.05,432.44,501.82,418.3,501.82Z"/><path class="cls-1" d="M442.78,451.94H70.15c-7.41,0-13.45-2.42-18-7.2-8.29-8.8-8-22.56-7.88-24.37V64a60.81,60.81,0,0,1,7.75-26.73C59,25.05,73.71,10.49,104,10.49H412c55.3,0,56.6,52.91,56.61,53.45V420.37c.08,1.81.41,15.57-7.88,24.37C456.24,449.52,450.2,451.94,442.78,451.94ZM104,20.49c-48.27,0-49.65,41.81-49.68,43.59V420.49c0,.11,0,.21,0,.31s-.53,11.07,5.2,17.12c2.56,2.71,6,4,10.64,4H442.78c4.6,0,8.08-1.31,10.65-4,5.72-6.05,5.2-17,5.19-17.14a2.71,2.71,0,0,1,0-.29V64c0-1.7-1.28-43.51-46.61-43.51Z"/><path class="cls-1" d="M417,109H96A25,25,0,0,1,71,84V60A25,25,0,0,1,96,35H417a25,25,0,0,1,25,25V84A25,25,0,0,1,417,109ZM96,45A15,15,0,0,0,81,60V84A15,15,0,0,0,96,99H417a15,15,0,0,0,15-15V60a15,15,0,0,0-15-15Z"/><path class="cls-1" d="M463,133H50a5,5,0,0,1,0-10H463a5,5,0,0,1,0,10Z"/><path class="cls-1" d="M463,278H50a5,5,0,0,1,0-10H463a5,5,0,0,1,0,10Z"/><path class="cls-1" d="M463,404H50a5,5,0,0,1,0-10H463a5,5,0,0,1,0,10Z"/><path class="cls-1" d="M321,373H190a15,15,0,0,1-15-15V313a15,15,0,0,1,15-15H321c8.52,0,16,7,16,15v45C337,366,329.52,373,321,373ZM190,308a5,5,0,0,0-5,5v45a5,5,0,0,0,5,5H321c3,0,6-2.52,6-5V313c0-2.48-3-5-6-5Z"/><path class="cls-1" d="M256,278a5,5,0,0,1-5-5V128a5,5,0,0,1,10,0V273A5,5,0,0,1,256,278Z"/><path class="cls-1" d="M193,450a5,5,0,0,1-5-5V399a5,5,0,0,1,10,0v46A5,5,0,0,1,193,450Z"/><path class="cls-1" d="M321,450a5,5,0,0,1-5-5V399a5,5,0,0,1,10,0v46A5,5,0,0,1,321,450Z"/><path class="cls-1" d="M23.5,239A14.51,14.51,0,0,1,9,224.5v-63a14.5,14.5,0,0,1,29,0v63A14.51,14.51,0,0,1,23.5,239Zm0-82a4.51,4.51,0,0,0-4.5,4.5v63a4.5,4.5,0,0,0,9,0v-63A4.51,4.51,0,0,0,23.5,157Z"/><path class="cls-1" d="M24,157a5,5,0,0,1-5-4.51c0-.49-1.08-12,6.73-20.6C31.09,126,39,123,49.32,123a5,5,0,0,1,0,10c-7.35,0-12.79,1.89-16.16,5.6C28.37,143.88,29,151.44,29,151.51A5,5,0,0,1,24.49,157Z"/><path class="cls-1" d="M489.5,239A14.51,14.51,0,0,1,475,224.5v-63a14.5,14.5,0,0,1,29,0v63A14.51,14.51,0,0,1,489.5,239Zm0-82a4.51,4.51,0,0,0-4.5,4.5v63a4.5,4.5,0,0,0,9,0v-63A4.51,4.51,0,0,0,489.5,157Z"/><path class="cls-1" d="M489,157l-.5,0a5,5,0,0,1-4.49-5.44c0-.16.58-7.76-4.23-13-3.38-3.68-8.8-5.54-16.11-5.54a5,5,0,0,1,0-10c10.3,0,18.23,3,23.57,8.89,7.81,8.61,6.77,20.11,6.73,20.6A5,5,0,0,1,489,157Z"/><path class="cls-1" d="M81,278a5,5,0,0,1-5-5V129a5,5,0,0,1,10,0V273A5,5,0,0,1,81,278Z"/><path class="cls-1" d="M433,278a5,5,0,0,1-5-5V129a5,5,0,0,1,10,0V273A5,5,0,0,1,433,278Z"/><path class="cls-1" d="M113,93a21,21,0,1,1,21-21A21,21,0,0,1,113,93Zm0-32a11,11,0,1,0,11,11A11,11,0,0,0,113,61Z"/><path class="cls-1" d="M401,93a21,21,0,1,1,21-21A21,21,0,0,1,401,93Zm0-32a11,11,0,1,0,11,11A11,11,0,0,0,401,61Z"/><path class="cls-1" d="M401,373a33.5,33.5,0,1,1,33.5-33.5A33.54,33.54,0,0,1,401,373Zm0-57a23.5,23.5,0,1,0,23.5,23.5A23.52,23.52,0,0,0,401,316Z"/><path class="cls-1" d="M112,373a33.5,33.5,0,1,1,33.5-33.5A33.54,33.54,0,0,1,112,373Zm0-57a23.5,23.5,0,1,0,23.5,23.5A23.52,23.52,0,0,0,112,316Z"/></g><g id="Outline"><path class="cls-1" d="M229.71,373a5,5,0,0,1-5-5V304a5,5,0,0,1,10,0v64A5,5,0,0,1,229.71,373Z"/><path class="cls-1" d="M281.9,373a5,5,0,0,1-5-5V304a5,5,0,0,1,10,0v64A5,5,0,0,1,281.9,373Z"/><path class="cls-1" d="M308,373a5,5,0,0,1-5-5V304a5,5,0,0,1,10,0v64A5,5,0,0,1,308,373Z"/><path class="cls-1" d="M255.8,373a5,5,0,0,1-5-5V304a5,5,0,0,1,10,0v64A5,5,0,0,1,255.8,373Z"/><path class="cls-1" d="M203.61,373a5,5,0,0,1-5-5V304a5,5,0,0,1,10,0v64A5,5,0,0,1,203.61,373Z"/><path class="cls-1" d="M293.62,422.74a5,5,0,0,1,5-5h0a5,5,0,0,1,5,5h0a5,5,0,0,1-5,5h0A5,5,0,0,1,293.62,422.74Zm-20,0a5,5,0,0,1,5-5h0a5,5,0,0,1,5,5h0a5,5,0,0,1-5,5h0A5,5,0,0,1,273.62,422.74Zm-20,0a5,5,0,0,1,5-5h0a5,5,0,0,1,5,5h0a5,5,0,0,1-5,5h0A5,5,0,0,1,253.62,422.74Zm-20,0a5,5,0,0,1,5-5h0a5,5,0,0,1,5,5h0a5,5,0,0,1-5,5h0A5,5,0,0,1,233.62,422.74Zm-20,0a5,5,0,0,1,5-5h0a5,5,0,0,1,5,5h0a5,5,0,0,1-5,5h0A5,5,0,0,1,213.62,422.74Z"/><path class="cls-1" d="M352,72a5,5,0,0,1,5-5h0a5,5,0,0,1,5,5h0a5,5,0,0,1-5,5h0A5,5,0,0,1,352,72Zm-20,0a5,5,0,0,1,5-5h0a5,5,0,0,1,5,5h0a5,5,0,0,1-5,5h0A5,5,0,0,1,332,72Zm-20,0a5,5,0,0,1,5-5h0a5,5,0,0,1,5,5h0a5,5,0,0,1-5,5h0A5,5,0,0,1,312,72Zm-20,0a5,5,0,0,1,5-5h0a5,5,0,0,1,5,5h0a5,5,0,0,1-5,5h0A5,5,0,0,1,292,72Zm-20,0a5,5,0,0,1,5-5h0a5,5,0,0,1,5,5h0a5,5,0,0,1-5,5h0A5,5,0,0,1,272,72Zm-20,0a5,5,0,0,1,5-5h0a5,5,0,0,1,5,5h0a5,5,0,0,1-5,5h0A5,5,0,0,1,252,72Zm-20,0a5,5,0,0,1,5-5h0a5,5,0,0,1,5,5h0a5,5,0,0,1-5,5h0A5,5,0,0,1,232,72Zm-20,0a5,5,0,0,1,5-5h0a5,5,0,0,1,5,5h0a5,5,0,0,1-5,5h0A5,5,0,0,1,212,72Zm-20,0a5,5,0,0,1,5-5h0a5,5,0,0,1,5,5h0a5,5,0,0,1-5,5h0A5,5,0,0,1,192,72Zm-20,0a5,5,0,0,1,5-5h0a5,5,0,0,1,5,5h0a5,5,0,0,1-5,5h0A5,5,0,0,1,172,72Zm-20,0a5,5,0,0,1,5-5h0a5,5,0,0,1,5,5h0a5,5,0,0,1-5,5h0A5,5,0,0,1,152,72Z"/><path class="cls-1" d="M73.18,465.68a5,5,0,0,1,0-10H90.53a5,5,0,0,1,0,10Z"/><path class="cls-1" d="M73,484.27a5,5,0,0,1,0-10H90.78a5,5,0,1,1,0,10Z"/><path class="cls-1" d="M120.18,465.68a5,5,0,0,1,0-10h17.35a5,5,0,0,1,0,10Z"/><path class="cls-1" d="M120,484.27a5,5,0,0,1,0-10h17.82a5,5,0,1,1,0,10Z"/><path class="cls-1" d="M374,465.68a5,5,0,0,1,0-10h16.95a5,5,0,0,1,0,10Z"/><path class="cls-1" d="M373.73,484.27a5,5,0,0,1,0-10h17.4a5,5,0,1,1,0,10Z"/><path class="cls-1" d="M420.82,465.68a5,5,0,0,1,0-10h16.95a5,5,0,0,1,0,10Z"/><path class="cls-1" d="M420.6,484.27a5,5,0,0,1,0-10H438a5,5,0,0,1,0,10H420.6Z"/><path class="cls-1" d="M193,427H51a5,5,0,0,1,0-10H193a5,5,0,0,1,0,10Z"/><path class="cls-1" d="M463,427H321a5,5,0,0,1,0-10H463a5,5,0,0,1,0,10Z"/></g></svg>