<?xml version="1.0" ?><svg viewBox="0 0 512 512" xmlns="http://www.w3.org/2000/svg"><defs><style>.cls-1{fill:#3f456b;}</style></defs><title/><g id="Lines"><path class="cls-1" d="M496,501H16a5,5,0,0,1-5-5V464a5,5,0,0,1,5-5H496a5,5,0,0,1,5,5v32A5,5,0,0,1,496,501ZM21,491H491V469H21Z"/><path class="cls-1" d="M496,469H16a5,5,0,0,1-5-5V351a5,5,0,0,1,5-5H496a5,5,0,0,1,5,5V464A5,5,0,0,1,496,469ZM21,459H491V356H21Z"/><path class="cls-1" d="M433,356a5,5,0,0,1-5-5V100H230V351a5,5,0,0,1-10,0V95a5,5,0,0,1,5-5H433a5,5,0,0,1,5,5V351A5,5,0,0,1,433,356Z"/><path class="cls-1" d="M481,356a5,5,0,0,1-5-5V68H262V95a5,5,0,0,1-10,0V63a5,5,0,0,1,5-5H481a5,5,0,0,1,5,5V351A5,5,0,0,1,481,356Z"/><path class="cls-1" d="M374,453H137a15,15,0,0,1-15-15v-7a15,15,0,0,1,15-15H374a15,15,0,0,1,15,15v7A15,15,0,0,1,374,453ZM137,426a5,5,0,0,0-5,5v7a5,5,0,0,0,5,5H374a5,5,0,0,0,5-5v-7a5,5,0,0,0-5-5Z"/><path class="cls-1" d="M384,436a5,5,0,0,1-5-5V380a5,5,0,0,0-5-5H137c-1.9,0-5,4.47-5,8v48a5,5,0,0,1-10,0V383c0-8.32,6.55-18,15-18H374a15,15,0,0,1,15,15v51A5,5,0,0,1,384,436Z"/><path class="cls-1" d="M144,469a5,5,0,0,1-5-5V448a5,5,0,0,1,10,0v16A5,5,0,0,1,144,469Z"/><path class="cls-1" d="M369,469a5,5,0,0,1-5-5V448a5,5,0,0,1,10,0v16A5,5,0,0,1,369,469Z"/><path class="cls-1" d="M379,356a5,5,0,0,1-5-5V96a5,5,0,0,1,10,0V351A5,5,0,0,1,379,356Z"/><path class="cls-1" d="M432,68a5,5,0,0,1-5-5V37H309.5V63a5,5,0,0,1-10,0V32a5,5,0,0,1,5-5H432a5,5,0,0,1,5,5V63A5,5,0,0,1,432,68Z"/><path class="cls-1" d="M145,212a5,5,0,0,1-5-5V144a5,5,0,0,1,5-5h78.93a5,5,0,0,1,0,10H150v58A5,5,0,0,1,145,212Z"/><path class="cls-1" d="M112,276a5,5,0,0,1-5-5V208a5,5,0,0,1,5-5H223.93a5,5,0,0,1,0,10H117v58A5,5,0,0,1,112,276Z"/><path class="cls-1" d="M96,356a5,5,0,0,1-5-5V271a5,5,0,0,1,5-5H225a5,5,0,0,1,0,10H101v75A5,5,0,0,1,96,356Z"/><path class="cls-1" d="M208,149H171a5,5,0,0,1-5-5V111a5,5,0,0,1,5-5h37a5,5,0,0,1,5,5v33A5,5,0,0,1,208,149Zm-32-10h27V116H176Z"/><path class="cls-1" d="M189,116a5,5,0,0,1-5-5V32a5,5,0,0,1,10,0v79A5,5,0,0,1,189,116Z"/><path class="cls-1" d="M51.53,197.48h-.17A40.72,40.72,0,0,1,41.15,117.7c-.07-.82-.1-1.64-.1-2.46a31.86,31.86,0,0,1,51-25.45,55.58,55.58,0,0,1,48.59-29,55,55,0,0,1,52.73,38.8,5,5,0,1,1-9.55,3A45.23,45.23,0,0,0,98.36,100a5,5,0,0,1-8.54,1.4,21.86,21.86,0,0,0-38.77,13.84,21.53,21.53,0,0,0,.61,5.12,5,5,0,0,1-.69,3.93,5,5,0,0,1-3.35,2.18,30.71,30.71,0,0,0,3.49,61,6.57,6.57,0,0,1,1.56-.19H144.5a5,5,0,0,1,0,10H53.17A7,7,0,0,1,51.53,197.48Z"/><path class="cls-1" d="M67,131A5,5,0,0,1,63.93,130c-7-5.42-18.76-3.09-18.88-3.06a5,5,0,1,1-2.1-9.78c.67-.14,16.4-3.39,27.12,4.94A5,5,0,0,1,67,131Z"/></g><g id="Outline"><path class="cls-1" d="M211,453a5,5,0,0,1-5-5V370a5,5,0,0,1,10,0v78A5,5,0,0,1,211,453Z"/><path class="cls-1" d="M302,453a5,5,0,0,1-5-5V370a5,5,0,0,1,10,0v78A5,5,0,0,1,302,453Z"/><path class="cls-1" d="M96,467a5,5,0,0,1-5-5V351a5,5,0,0,1,10,0V462A5,5,0,0,1,96,467Z"/><path class="cls-1" d="M416,467a5,5,0,0,1-5-5V351a5,5,0,0,1,10,0V462A5,5,0,0,1,416,467Z"/><path class="cls-1" d="M256,375a5,5,0,0,1-5-5V351a5,5,0,0,1,10,0v19A5,5,0,0,1,256,375Z"/><path class="cls-1" d="M256,469a5,5,0,0,1-5-5V449a5,5,0,0,1,10,0v15A5,5,0,0,1,256,469Z"/><path class="cls-1" d="M166,191a5,5,0,0,1-5-5V163a5,5,0,0,1,10,0v23A5,5,0,0,1,166,191Z"/><path class="cls-1" d="M185.5,191a5,5,0,0,1-5-5V163a5,5,0,0,1,10,0v23A5,5,0,0,1,185.5,191Z"/><path class="cls-1" d="M205,191a5,5,0,0,1-5-5V163a5,5,0,0,1,10,0v23A5,5,0,0,1,205,191Z"/><path class="cls-1" d="M159,256a5,5,0,0,1-5-5V228a5,5,0,0,1,10,0v23A5,5,0,0,1,159,256Z"/><path class="cls-1" d="M178.5,256a5,5,0,0,1-5-5V228a5,5,0,0,1,10,0v23A5,5,0,0,1,178.5,256Z"/><path class="cls-1" d="M140,256a5,5,0,0,1-5-5V228a5,5,0,0,1,10,0v23A5,5,0,0,1,140,256Z"/><path class="cls-1" d="M198,256a5,5,0,0,1-5-5V228a5,5,0,0,1,10,0v23A5,5,0,0,1,198,256Z"/><path class="cls-1" d="M179,319a5,5,0,0,1-5-5V291a5,5,0,0,1,10,0v23A5,5,0,0,1,179,319Z"/><path class="cls-1" d="M198.5,319a5,5,0,0,1-5-5V291a5,5,0,0,1,10,0v23A5,5,0,0,1,198.5,319Z"/><path class="cls-1" d="M160,319a5,5,0,0,1-5-5V291a5,5,0,0,1,10,0v23A5,5,0,0,1,160,319Z"/><path class="cls-1" d="M140,319a5,5,0,0,1-5-5V291a5,5,0,0,1,10,0v23A5,5,0,0,1,140,319Z"/><path class="cls-1" d="M121,319a5,5,0,0,1-5-5V291a5,5,0,0,1,10,0v23A5,5,0,0,1,121,319Z"/><path class="cls-1" d="M179,337a5,5,0,0,1-5-5v-2a5,5,0,0,1,10,0v2A5,5,0,0,1,179,337Z"/><path class="cls-1" d="M198.5,337a5,5,0,0,1-5-5v-2a5,5,0,0,1,10,0v2A5,5,0,0,1,198.5,337Z"/><path class="cls-1" d="M160,337a5,5,0,0,1-5-5v-2a5,5,0,0,1,10,0v2A5,5,0,0,1,160,337Z"/><path class="cls-1" d="M140,337a5,5,0,0,1-5-5v-2a5,5,0,0,1,10,0v2A5,5,0,0,1,140,337Z"/><path class="cls-1" d="M121,337a5,5,0,0,1-5-5v-2a5,5,0,0,1,10,0v2A5,5,0,0,1,121,337Z"/><path class="cls-1" d="M481,133H225a5,5,0,0,1,0-10H481a5,5,0,0,1,0,10Z"/><path class="cls-1" d="M481,100H429a5,5,0,0,1,0-10h52a5,5,0,0,1,0,10Z"/><path class="cls-1" d="M481,165H225a5,5,0,0,1,0-10H481a5,5,0,0,1,0,10Z"/><path class="cls-1" d="M481,197H225a5,5,0,0,1,0-10H481a5,5,0,0,1,0,10Z"/><path class="cls-1" d="M481,229H225a5,5,0,0,1,0-10H481a5,5,0,0,1,0,10Z"/><path class="cls-1" d="M481,261H225a5,5,0,0,1,0-10H481a5,5,0,0,1,0,10Z"/><path class="cls-1" d="M481,293H225a5,5,0,0,1,0-10H481a5,5,0,0,1,0,10Z"/><path class="cls-1" d="M481,325H225a5,5,0,0,1,0-10H481a5,5,0,0,1,0,10Z"/></g></svg>