<?xml version="1.0" encoding="iso-8859-1"?>
<!-- Generator: Adobe Illustrator 19.0.0, SVG Export Plug-In . SVG Version: 6.00 Build 0)  -->
<svg version="1.1" id="Capa_1" xmlns="http://www.w3.org/2000/svg" xmlns:xlink="http://www.w3.org/1999/xlink" x="0px" y="0px"
	 viewBox="0 0 512.043 512.043" style="enable-background:new 0 0 512.043 512.043;" xml:space="preserve">
<g>
	<g>
		<path d="M394.697,277.376c-64.704,0-117.333,52.629-117.333,117.333s52.629,117.333,117.333,117.333
			S512.03,459.413,512.03,394.709S459.401,277.376,394.697,277.376z M394.697,490.709c-52.928,0-96-43.072-96-96s43.072-96,96-96
			s96,43.072,96,96S447.625,490.709,394.697,490.709z"/>
	</g>
</g>
<g>
	<g>
		<path d="M402.163,451.029c-4.053-3.84-10.88-3.84-14.933,0.213c-2.133,1.92-3.2,4.693-3.2,7.467c0,2.987,1.067,5.547,3.2,7.68
			c2.133,1.92,4.693,2.987,7.467,2.987s5.547-1.067,7.68-3.2c1.92-2.133,2.987-4.693,2.987-7.467
			C405.363,455.936,404.297,453.163,402.163,451.029z"/>
	</g>
</g>
<g>
	<g>
		<path d="M394.675,320.043c-28.459,0-51.371,17.088-53.248,39.723c-0.491,5.867,3.861,11.029,9.728,11.52
			c5.931,0.661,11.029-3.861,11.52-9.728c0.917-11.136,15.296-20.181,32-20.181c17.344,0,32.021,9.771,32.021,21.333
			c0,10.389-10.112,17.109-31.808,21.12l-2.325,0.448c-4.949,1.024-8.512,5.376-8.512,10.432l-0.021,21.333
			c0,5.867,4.757,10.667,10.667,10.667c5.888,0,10.667-4.757,10.667-10.667l0.021-12.629c28.309-6.656,42.645-20.331,42.645-40.704
			C448.03,339.179,424.094,320.043,394.675,320.043z"/>
	</g>
</g>
<g>
	<g>
		<path d="M494.537,273.408L447.859,8.853c-1.003-5.76-6.528-9.685-12.245-8.661l-133.76,22.293L32.905,0.064
			c-2.88-0.341-5.717,0.704-7.893,2.581c-2.176,1.899-3.499,4.587-3.648,7.467l-21.333,384c-0.32,5.653,3.84,10.581,9.472,11.2
			l93.205,10.368l4.16,23.552c0.917,5.163,5.419,8.811,10.496,8.811c0.576,0,1.152-0.043,1.707-0.149l129.664-21.611
			c5.803-0.96,9.728-6.464,8.768-12.267c-0.96-5.803-6.485-9.792-12.267-8.768l-119.232,19.861L65.715,83.456l362.965-60.48
			l44.864,254.144c1.003,5.803,6.549,9.728,12.352,8.64C491.699,284.736,495.561,279.211,494.537,273.408z M51.614,64.192
			c-2.816,0.469-5.312,2.069-6.955,4.373s-2.283,5.205-1.792,8l55.979,317.205l-76.928-8.555l20.16-362.965l174.123,14.507
			L51.614,64.192z"/>
	</g>
</g>
<g>
</g>
<g>
</g>
<g>
</g>
<g>
</g>
<g>
</g>
<g>
</g>
<g>
</g>
<g>
</g>
<g>
</g>
<g>
</g>
<g>
</g>
<g>
</g>
<g>
</g>
<g>
</g>
<g>
</g>
</svg>
