<?xml version="1.0" ?><svg viewBox="0 0 512 512" xmlns="http://www.w3.org/2000/svg"><defs><style>.cls-1{fill:#3f456b;}</style></defs><title/><g id="Lines"><path class="cls-1" d="M319,147.19H288a14.39,14.39,0,0,1-14.38-14.37v-6.33A14.39,14.39,0,0,1,288,112.12h31a14.39,14.39,0,0,1,14.38,14.37v6.33A14.39,14.39,0,0,1,319,147.19Zm-31-25.07a4.38,4.38,0,0,0-4.38,4.37v6.33a4.38,4.38,0,0,0,4.38,4.37h31a4.38,4.38,0,0,0,4.38-4.37v-6.33a4.38,4.38,0,0,0-4.38-4.37Z"/><path class="cls-1" d="M423.12,447.24A77,77,0,0,1,376.05,309.3a5,5,0,0,1,6.12,7.91,67,67,0,1,0,88.5,5.82,5,5,0,1,1,7.09-7,77,77,0,0,1-54.64,131.25Z"/><path class="cls-1" d="M423.12,415.24a45,45,0,0,1-21-84.82,5,5,0,1,1,4.67,8.84,35,35,0,1,0,18.51-4,5,5,0,0,1,.62-10,45,45,0,0,1-2.82,89.92Z"/><path class="cls-1" d="M159.47,361a5,5,0,0,1-4.91-4.05,68.69,68.69,0,0,0-23.42-39.85,5,5,0,0,1,6.46-7.64A78.62,78.62,0,0,1,164.38,355a5,5,0,0,1-4,5.85A4.43,4.43,0,0,1,159.47,361Z"/><path class="cls-1" d="M88.83,447.24A77,77,0,0,1,41.76,309.3a5,5,0,0,1,6.12,7.91,67,67,0,1,0,104.31,74.87,5,5,0,0,1,9.46,3.25A77,77,0,0,1,88.83,447.24Z"/><path class="cls-1" d="M88.83,415.24A45,45,0,1,1,131,354.59a5,5,0,1,1-9.38,3.48,35,35,0,1,0-4,32.08,5,5,0,1,1,8.21,5.7A45,45,0,0,1,88.83,415.24Z"/><path class="cls-1" d="M156.39,318.25H19.07a5,5,0,0,1-5-5V293.56a5,5,0,0,1,1.63-3.7,108.66,108.66,0,0,1,144-2,5,5,0,0,1,1.74,3.79v21.64A5,5,0,0,1,156.39,318.25Zm-132.32-10H151.39V293.94A98.66,98.66,0,0,0,24.07,295.8Z"/><path class="cls-1" d="M390,330.07a5,5,0,0,1-4-2L368.7,305.48a5,5,0,0,1-1-3.73,5,5,0,0,1,2-3.32A88.9,88.9,0,0,1,392.77,286a5,5,0,0,1,3.38,9.41,79.18,79.18,0,0,0-16.33,8.11l11.3,14.75a61.93,61.93,0,0,1,8.13-4.21,5,5,0,1,1,3.91,9.21,50.85,50.85,0,0,0-10.19,5.8A5,5,0,0,1,390,330.07Z"/><path class="cls-1" d="M462.72,335.64a5,5,0,0,1-3.54-1.47,50.52,50.52,0,0,0-37.42-14.92,5,5,0,0,1-.27-10,60.28,60.28,0,0,1,41.09,14.45l13.11-13.11A79.45,79.45,0,0,0,416.89,291a5,5,0,0,1-.78-10A89.4,89.4,0,0,1,486.41,307a5,5,0,0,1,0,7.07l-20.15,20.15A5,5,0,0,1,462.72,335.64Z"/><path class="cls-1" d="M423.11,385.24a15.09,15.09,0,0,1-14.63-11.75L362.19,165.14A5,5,0,1,1,372,163l46.28,208.35a5.06,5.06,0,0,0,6,3.8,5,5,0,0,0,3.79-6L382.79,165.64a5,5,0,1,1,9.76-2.17L437.77,367a15,15,0,0,1-14.66,18.26Z"/><path class="cls-1" d="M228.29,249.62a17.44,17.44,0,0,1-11.66-4.41c-2.34-2.19-5.13-6.29-5.13-13.37,0-8.75,6.78-17,7.55-17.88h0c40.58-47.65,102.12-53.69,106.48-54.06,2-.27,16.93-1.89,28.11,7.71,7.86,6.74,11.85,17.14,11.85,30.9v27.42a29.64,29.64,0,0,1-2.61,11.44c-3.64,7.9-10.6,12.25-19.59,12.25h-115Zm-1.61-29.19c-1.44,1.71-5.18,7.09-5.18,11.41,0,2.81.66,4.85,2,6.08a7.6,7.6,0,0,0,4.87,1.7h115c11.86,0,12.2-12.29,12.2-13.69V198.5c0-10.71-2.81-18.55-8.36-23.31-8.18-7-20.17-5.41-20.29-5.39l-.36,0c-.61,0-61.37,5.44-99.81,50.58Zm0,0Z"/><path class="cls-1" d="M156.19,278.93c-17.74,0-39.2-2.76-63.78-11a5,5,0,0,1-3.39-4.3c-.06-.62-1.2-15.31,9.54-30.79a5,5,0,0,1,5.93-1.81c.35.14,24.66,9.5,48.41,9.5s44.85-9.31,45.06-9.4a5,5,0,0,1,4.2.05c.63.3,15.26,7.61,13.16,32.43a5,5,0,0,1-2.62,4C211.44,268.28,191,278.93,156.19,278.93ZM99.06,259.59c34.2,10.83,61.57,10.23,78.72,7.74a112.39,112.39,0,0,0,27.73-7.4c.27-11.11-3.78-16.42-6.14-18.56-6.77,2.66-25.45,9.17-46.47,9.17-20.13,0-40-6-48.16-8.78A42.81,42.81,0,0,0,99.06,259.59Z"/><path class="cls-1" d="M274,398H77.17a5,5,0,0,1-4.46-7.27l18.57-36.38a5,5,0,0,1,4.45-2.73H265.87a22.52,22.52,0,0,0,19.83-11.05c8.4-14.23,32.79-71.19,33-71.76h0c.91-2.19,9.42-20.79,30.44-14.49,5.38,1.61,9.44,4.25,12.12,7.86,8.59-20.06,15-35.12,15.18-35.52a5,5,0,0,1,9.2,3.92c-.22.51-10.48,24.57-22.47,52.54a1.12,1.12,0,0,0,0,.13l0,.09c-13.44,31.35-29,67.53-35.06,81C313.39,396.94,278.42,398,274,398ZM85.33,388H274c3.22,0,32.76-.75,44.92-27.78,6-13.41,21.61-49.6,35-80.93.17-.43,2.1-5.59.11-9.77-1.21-2.54-3.82-4.43-7.77-5.61-13.38-4-18.11,8.12-18.31,8.64a1.67,1.67,0,0,1-.08.2c-1,2.37-24.89,58.14-33.63,72.91-9.64,16.32-26.66,16.07-28.94,16H98.79Z"/><path class="cls-1" d="M236,294.13a26.88,26.88,0,1,1,26.88-26.88A26.91,26.91,0,0,1,236,294.13Zm0-43.76a16.88,16.88,0,1,0,16.88,16.88A16.9,16.9,0,0,0,236,250.37Z"/><path class="cls-1" d="M236,272.25a5,5,0,0,1-5-5v-.69a5,5,0,0,1,10,0v.69A5,5,0,0,1,236,272.25Z"/><path class="cls-1" d="M205,243.71a5,5,0,0,1-1.9-9.63l11.07-4.53A5,5,0,0,1,218,238.8l-11.07,4.54A5,5,0,0,1,205,243.71Z"/><path class="cls-1" d="M357.17,185.62a5,5,0,0,1-1.2-9.85l12.86-3.21a5,5,0,1,1,2.42,9.71l-12.87,3.2A5,5,0,0,1,357.17,185.62Z"/><path class="cls-1" d="M411.92,169.62h0l-38.37-.14a30.63,30.63,0,0,1,0-61.25h38.38a5,5,0,0,1,5,5v51.39a5,5,0,0,1-5,5Zm-38.38-51.39a20.63,20.63,0,0,0,0,41.25h0l33.36.12V118.23Z"/><path class="cls-1" d="M387.75,169.54a5,5,0,0,1-5-5V113.23a5,5,0,0,1,10,0v51.31A5,5,0,0,1,387.75,169.54Z"/><path class="cls-1" d="M432.5,261.12a5,5,0,0,1-5-5v-80a5,5,0,0,1,6.76-4.68c1.09.41,26.74,10.44,26.74,44.68s-25.65,44.27-26.74,44.68A5.11,5.11,0,0,1,432.5,261.12Zm5-76.12v62.28c5.9-4.78,13.5-14.22,13.5-31.16S443.39,189.79,437.5,185Z"/><path class="cls-1" d="M333.68,95.74a5,5,0,0,1-5-5V37.5a5,5,0,0,1,6.21-4.85c9.44,2.36,27.29,12,27.29,31.47s-17.85,29.11-27.29,31.47A5,5,0,0,1,333.68,95.74Zm5-50.91V83.45c5.78-2.92,13.5-8.79,13.5-19.33,0-6.78-3.16-12.44-9.37-16.82A32.56,32.56,0,0,0,338.68,44.83Z"/><path class="cls-1" d="M392.54,191.46a5,5,0,0,1-2.48-9.34c21.72-12.42,42-11.05,42.82-11a5,5,0,0,1-.75,10A72.6,72.6,0,0,0,395,190.8,4.93,4.93,0,0,1,392.54,191.46Z"/><path class="cls-1" d="M430.36,261.18A81.55,81.55,0,0,1,405.6,257a5,5,0,0,1,3.12-9.5,68.11,68.11,0,0,0,23.42,3.62,5,5,0,0,1,.74,10C432.75,261.11,431.86,261.18,430.36,261.18Z"/><path class="cls-1" d="M158.33,300.84a5,5,0,0,1-1.55-9.75l54.9-17.93a5,5,0,1,1,3.1,9.5l-54.89,17.93A5,5,0,0,1,158.33,300.84Z"/><path class="cls-1" d="M163.55,316.8a5,5,0,0,1-1.55-9.75l54.89-17.93a5,5,0,1,1,3.11,9.5l-54.9,17.93A5,5,0,0,1,163.55,316.8Z"/><path class="cls-1" d="M168.76,332.76a5,5,0,0,1-1.55-9.75l54.89-17.93a5,5,0,1,1,3.11,9.51l-54.9,17.92A4.93,4.93,0,0,1,168.76,332.76Z"/><path class="cls-1" d="M174,348.72a5,5,0,0,1-1.55-9.75L227.32,321a5,5,0,0,1,3.1,9.51l-54.9,17.92A4.88,4.88,0,0,1,174,348.72Z"/><path class="cls-1" d="M314.84,292a5.05,5.05,0,0,1-2-.4l-53.09-22.74a5,5,0,0,1,3.94-9.2l53.09,22.75a5,5,0,0,1-2,9.59Z"/><path class="cls-1" d="M308.23,307.41a4.89,4.89,0,0,1-2-.41l-53.09-22.74a5,5,0,0,1,3.94-9.19l53.08,22.74a5,5,0,0,1-2,9.6Z"/><path class="cls-1" d="M301.62,322.84a5.1,5.1,0,0,1-2-.4l-53.08-22.75a5,5,0,1,1,3.94-9.19l53.08,22.74a5,5,0,0,1-2,9.6Z"/><path class="cls-1" d="M295,338.27a5.06,5.06,0,0,1-2-.4L240,315.13a5,5,0,1,1,3.94-9.19L297,328.68a5,5,0,0,1-2,9.59Z"/><path class="cls-1" d="M285.29,353.43a4.9,4.9,0,0,1-2-.41l-51.24-21.95a5,5,0,1,1,3.94-9.19l51.24,21.95a5,5,0,0,1-2,9.6Z"/><path class="cls-1" d="M228.87,330.79a5,5,0,0,1-4.8-3.58l-18.53-62.59a5,5,0,0,1,9.59-2.84l18.53,62.59a5,5,0,0,1-4.79,6.42Z"/><path class="cls-1" d="M235.28,331.35a5,5,0,0,1-1.89-.37,5,5,0,0,1-2.74-6.52l33.19-81.23A5,5,0,1,1,273.1,247l-33.19,81.23A5,5,0,0,1,235.28,331.35Z"/><path class="cls-1" d="M174,348.72a5,5,0,0,1-4.75-3.45l-15.64-47.88a5,5,0,0,1,9.51-3.1l15.64,47.88a5,5,0,0,1-3.21,6.3A4.88,4.88,0,0,1,174,348.72Z"/><path class="cls-1" d="M324.51,273.38a5,5,0,0,1-4.23-7.66,3.17,3.17,0,0,0,.49-3.13c-2-5.17-14.15-10.82-22.18-13.18a5,5,0,1,1,2.82-9.6c4,1.19,24.33,7.67,28.71,19.23a13.08,13.08,0,0,1-1.37,12A5,5,0,0,1,324.51,273.38Z"/><path class="cls-1" d="M210.5,361.62a5,5,0,0,1-4.75-3.44l-7.36-22.42a5,5,0,0,1,9.5-3.12l7.36,22.42a5,5,0,0,1-4.75,6.56Z"/><path class="cls-1" d="M247.22,361.62a4.88,4.88,0,0,1-2.06-.45,5,5,0,0,1-2.49-6.61L251.94,334a5,5,0,0,1,9.12,4.11l-9.28,20.53A5,5,0,0,1,247.22,361.62Z"/><path class="cls-1" d="M348.83,134.66H328.38a5,5,0,0,1,0-10h20.45a5,5,0,0,1,0,10Z"/><path class="cls-1" d="M79.57,393a4.92,4.92,0,0,1-1.94-.4A23.76,23.76,0,1,1,101.52,352a5,5,0,0,1-6.17,7.87A13.62,13.62,0,0,0,86.88,357a13.76,13.76,0,0,0-5.36,26.44,5,5,0,0,1-2,9.61Z"/><path class="cls-1" d="M373.54,118.23a5,5,0,0,1-4.74-3.42L352.43,65.7a5,5,0,0,1,9.49-3.16l16.37,49.11a5,5,0,0,1-3.17,6.32A4.84,4.84,0,0,1,373.54,118.23Z"/><path class="cls-1" d="M224.1,398a5,5,0,0,1-5-5V356.62a5,5,0,0,1,10,0V393A5,5,0,0,1,224.1,398Z"/></g><g id="Outline"><path class="cls-1" d="M402.5,443.4a4.91,4.91,0,0,1-1.45-.22,5,5,0,0,1-3.34-6.23L401,426.14a5,5,0,1,1,9.57,2.89l-3.26,10.81A5,5,0,0,1,402.5,443.4Z"/><path class="cls-1" d="M364.23,357.64a5,5,0,0,1-1.42-.21l-10.09-3a5,5,0,1,1,2.84-9.59l10.09,3a5,5,0,0,1-1.42,9.79Z"/><path class="cls-1" d="M492.11,395.5a5.09,5.09,0,0,1-1.43-.2l-10.08-3a5,5,0,0,1,2.84-9.59l10.08,3a5,5,0,0,1-1.41,9.79Z"/><path class="cls-1" d="M457.32,437.82a5,5,0,0,1-4.4-2.6l-5.29-9.71a5,5,0,1,1,8.78-4.79l5.3,9.71a5,5,0,0,1-2,6.78A4.91,4.91,0,0,1,457.32,437.82Z"/><path class="cls-1" d="M359.77,408.94a5,5,0,0,1-2.36-9.41l9.8-5.24a5,5,0,0,1,4.72,8.82l-9.81,5.24A5,5,0,0,1,359.77,408.94Z"/><path class="cls-1" d="M477.76,345.87a5,5,0,0,1-2.36-9.41l8.72-4.66a5,5,0,1,1,4.71,8.82l-8.71,4.66A5,5,0,0,1,477.76,345.87Z"/><path class="cls-1" d="M377.67,430.38a5,5,0,0,1-3.86-8.18l7.14-8.69a5,5,0,0,1,7.73,6.35l-7.14,8.69A5,5,0,0,1,377.67,430.38Z"/><path class="cls-1" d="M375.18,336.43a5,5,0,0,1-3.14-1.11L364.15,329a5,5,0,1,1,6.28-7.79l7.89,6.36a5,5,0,0,1-3.14,8.9Z"/><path class="cls-1" d="M479,420.09a4.94,4.94,0,0,1-3.13-1.11l-8.41-6.78a5,5,0,1,1,6.28-7.78l8.4,6.78a5,5,0,0,1-3.14,8.89Z"/><path class="cls-1" d="M430.46,446a5,5,0,0,1-5-4.48l-1.15-11.15a5,5,0,1,1,10-1l1.15,11.15A5,5,0,0,1,431,446Z"/><path class="cls-1" d="M351.49,382.35a5,5,0,0,1-.5-10l10.8-1.1a5,5,0,0,1,1,10l-10.8,1.1Z"/><path class="cls-1" d="M484.61,368.83a5,5,0,0,1-.5-10l10.13-1a5,5,0,1,1,1,9.95l-10.13,1Z"/><path class="cls-1" d="M75.66,445.6a5.2,5.2,0,0,1-1-.09,5,5,0,0,1-4-5.86l2.17-11.19a5,5,0,1,1,9.82,1.9l-2.17,11.19A5,5,0,0,1,75.66,445.6Z"/><path class="cls-1" d="M29,363.24a5.36,5.36,0,0,1-1-.09l-10.34-2a5,5,0,0,1,1.9-9.82l10.34,2a5,5,0,0,1-.94,9.91Z"/><path class="cls-1" d="M129.64,434.56a5,5,0,0,1-4.14-2.2l-6.24-9.23a5,5,0,1,1,8.28-5.6l6.24,9.23a5,5,0,0,1-4.14,7.8Z"/><path class="cls-1" d="M29.68,415.23a5,5,0,0,1-2.8-9.15l9.23-6.24a5,5,0,0,1,5.6,8.29l-9.23,6.24A5,5,0,0,1,29.68,415.23Z"/><path class="cls-1" d="M140.77,340.14A5,5,0,0,1,138,331l8.21-5.55a5,5,0,0,1,5.6,8.29l-8.21,5.54A5,5,0,0,1,140.77,340.14Z"/><path class="cls-1" d="M49.64,435a5,5,0,0,1-4.17-7.75l6.24-9.44a5,5,0,1,1,8.34,5.51l-6.23,9.44A5,5,0,0,1,49.64,435Z"/><path class="cls-1" d="M37.74,340.84A5,5,0,0,1,35,340L26.5,334.4A5,5,0,1,1,32,326.06l8.49,5.61a5,5,0,0,1-2.76,9.17Z"/><path class="cls-1" d="M149.39,414.59a5,5,0,0,1-2.75-.83l-9-6a5,5,0,0,1,5.51-8.34l9.05,6a5,5,0,0,1-2.76,9.17Z"/><path class="cls-1" d="M103.74,445.45a5,5,0,0,1-4.89-4l-2.27-11.08a5,5,0,1,1,9.8-2l2.26,11.09a5,5,0,0,1-4.9,6Z"/><path class="cls-1" d="M18.78,389.33a5,5,0,0,1-1-9.9l10.63-2.17a5,5,0,0,1,2,9.8l-10.62,2.17A5,5,0,0,1,18.78,389.33Z"/><path class="cls-1" d="M321.7,211.79h-1a5,5,0,0,1,0-10h1a5,5,0,0,1,0,10Zm-21,0h-1a5,5,0,0,1,0-10h1a5,5,0,0,1,0,10Zm-21,0h-1a5,5,0,0,1,0-10h1a5,5,0,0,1,0,10Z"/></g></svg>