<?xml version="1.0" ?><svg viewBox="0 0 512 512" xmlns="http://www.w3.org/2000/svg"><defs><style>.cls-1{fill:#3f456b;}</style></defs><title/><g id="Lines"><path class="cls-1" d="M441.93,428.23a5,5,0,0,1-3.31-8.75A155.24,155.24,0,0,0,491.27,303c0-85.54-69.59-155.13-155.14-155.13a155.07,155.07,0,0,0-134.42,77.64,5,5,0,1,1-8.66-5,165.08,165.08,0,0,1,143.08-82.64c91.06,0,165.14,74.08,165.14,165.13a165.24,165.24,0,0,1-56,124A5,5,0,0,1,441.93,428.23Z"/><path class="cls-1" d="M374.68,428a5,5,0,0,1-1.53-9.76,121,121,0,1,0-74.66-.21,5,5,0,0,1-3.11,9.51A130.74,130.74,0,0,1,205.11,303c0-72.24,58.78-131,131-131s131,58.78,131,131A131.07,131.07,0,0,1,376.2,427.8,5,5,0,0,1,374.68,428Z"/><path class="cls-1" d="M209,501.1H112.85a5,5,0,0,1,0-10H204V276.81H117.85v83.52a5,5,0,0,1-10,0V271.81a5,5,0,0,1,5-5H209a5,5,0,0,1,5,5V496.1A5,5,0,0,1,209,501.1Z"/><path class="cls-1" d="M209,312.11H112.85a5,5,0,0,1,0-10H209a5,5,0,0,1,0,10Z"/><path class="cls-1" d="M125.24,276.81a5,5,0,0,1-5-5V161.92c-.16-1.94-.51-10.46,5-16.62,2.41-2.68,6.9-5.88,14.64-5.88a29.68,29.68,0,0,1,14.67,4.51c5.63,3.52,28.46,16.68,30.5,17.85a42.75,42.75,0,0,1,8,5.29C198.9,172,202,177.66,202,183.48v87.58a5,5,0,0,1-10,0V183.48c0-5.95-8.46-11.34-11.42-12.77a2.31,2.31,0,0,1-.35-.18c-1-.58-24.93-14.36-31-18.12a20.07,20.07,0,0,0-9.37-3c-3.3,0-5.65.83-7.2,2.56-3,3.31-2.48,9.12-2.48,9.17a4.89,4.89,0,0,1,0,.54V271.81A5,5,0,0,1,125.24,276.81Z"/><path class="cls-1" d="M77,324a5,5,0,0,1-5-5V244H38v75a5,5,0,0,1-10,0V239a5,5,0,0,1,5-5H77a5,5,0,0,1,5,5v80A5,5,0,0,1,77,324Z"/><path class="cls-1" d="M93,501H16a5,5,0,0,1-5-5V319a5,5,0,0,1,5-5H93a5,5,0,0,1,5,5v42.5a5,5,0,0,1-10,0V324H21V491H93a5,5,0,0,1,0,10Z"/><path class="cls-1" d="M156,501H60a5,5,0,0,1-5-5V386.07c0-1.44-.06-13.08,7.93-21.39,5.2-5.43,12.46-8.18,21.57-8.18H133c14.51,0,21.41,8.23,24.65,15.13A37.38,37.38,0,0,1,161,386V496A5,5,0,0,1,156,501ZM65,491h86V386c0-2-.66-19.5-18-19.5H84.5c-6.28,0-11.11,1.72-14.36,5.1C64.8,377.17,65,385.71,65,385.8V491Z"/><path class="cls-1" d="M55,244a5,5,0,0,1-5-5V16a5,5,0,0,1,10,0V239A5,5,0,0,1,55,244Z"/><path class="cls-1" d="M74,61.5H36a5,5,0,0,1,0-10H74a5,5,0,0,1,0,10Z"/><path class="cls-1" d="M79,84H31a5,5,0,0,1,0-10H79a5,5,0,0,1,0,10Z"/><path class="cls-1" d="M74,106.5H36a5,5,0,0,1,0-10H74a5,5,0,0,1,0,10Z"/><path class="cls-1" d="M68,39H42a5,5,0,0,1,0-10H68a5,5,0,0,1,0,10Z"/><path class="cls-1" d="M68,129H42a5,5,0,0,1,0-10H68a5,5,0,0,1,0,10Z"/><path class="cls-1" d="M192.5,123a5,5,0,0,1-4.88-3.91c-.09-.39-9.36-39.63-44.21-47.44a5,5,0,0,1,.15-9.79c1.6-.31,39.24-8.06,44-47.46a5,5,0,0,1,9.89-.22,74.68,74.68,0,0,0,8.38,22.06c8.41,14.56,20.35,23.17,35.48,25.59a5,5,0,0,1,.23,9.84c-1.55.32-38.2,8.55-44.08,47.08a5,5,0,0,1-4.77,4.25ZM159.6,66.82c17.1,8.46,26.94,23.37,32.27,34.74a64.52,64.52,0,0,1,24.29-29.31,75.28,75.28,0,0,1,8.66-5C213.44,62.08,204,53.17,197,40.94A83.53,83.53,0,0,1,193,33a62.36,62.36,0,0,1-23.72,28.41A73.94,73.94,0,0,1,159.6,66.82Z"/><path class="cls-1" d="M448.5,168a5,5,0,0,1-4.88-3.91c-.09-.39-9.36-39.63-44.21-47.44a5,5,0,0,1,.15-9.79c1.6-.31,39.24-8.06,44-47.46a5,5,0,0,1,4.85-4.4h.11a5,5,0,0,1,4.93,4.18,74.68,74.68,0,0,0,8.38,22.06c8.41,14.56,20.35,23.17,35.48,25.59a5,5,0,0,1,.23,9.84c-1.55.32-38.2,8.55-44.08,47.08a5,5,0,0,1-4.77,4.25Zm-32.9-56.18c17.1,8.46,26.94,23.37,32.27,34.74a64.52,64.52,0,0,1,24.29-29.31,75.28,75.28,0,0,1,8.66-5C469.44,107.08,460,98.17,453,85.94A83.53,83.53,0,0,1,449,78a62.36,62.36,0,0,1-23.72,28.41A73.94,73.94,0,0,1,415.6,111.82Z"/><path class="cls-1" d="M230.11,428a5,5,0,0,1-3.31-1.26,166.74,166.74,0,0,1-20.92-22.24,5,5,0,0,1,7.88-6.16,156.29,156.29,0,0,0,19.67,20.91,5,5,0,0,1-3.32,8.75Z"/><path class="cls-1" d="M448.25,501.25H209a5,5,0,0,1,0-10H448.25c15.44,0,26.94-4,34.18-11.86,9.64-10.48,8.6-24.39,8.59-24.53s0-.28,0-.41V445H209a5,5,0,0,1,0-10H496a5,5,0,0,1,5,5v14.27c.14,2.3.73,18.91-11.21,31.89C480.58,496.17,466.6,501.25,448.25,501.25Z"/><path class="cls-1" d="M337,476a36,36,0,0,1-36-36,5,5,0,0,1,10,0,26,26,0,0,0,52,0,5,5,0,0,1,10,0A36,36,0,0,1,337,476Z"/><path class="cls-1" d="M485.5,445a5,5,0,0,1-5-5c0-4.07-1-7.08-3-8.94-3.13-2.91-8-2.58-8.07-2.58l-.41,0H209.82a5,5,0,1,1,0-10h259c1.73-.11,9.44-.27,15.36,5.13,4.19,3.83,6.32,9.34,6.32,16.37A5,5,0,0,1,485.5,445Z"/></g><g id="Outline"><path class="cls-1" d="M299,333a5,5,0,0,1-3.54-8.54l66-66a5,5,0,0,1,7.08,7.08l-66,66A5,5,0,0,1,299,333Z"/><path class="cls-1" d="M337.5,343.5A5,5,0,0,1,334,335l38-38A5,5,0,0,1,379,304l-38,38A5,5,0,0,1,337.5,343.5Z"/></g></svg>