<?xml version="1.0" ?><svg id="Lines" viewBox="0 0 512 512" xmlns="http://www.w3.org/2000/svg"><defs><style>.cls-1{fill:#3f456b;}</style></defs><title/><path class="cls-1" d="M387.43,463H124.7C70.92,463,70,409.64,70,409.1V266.83c-8.8-3.24-32.91-12.19-46.34-18.08C4.61,240.39,4,220,4,219.09V176.5a18.63,18.63,0,0,1,5.66-13.91c7.23-6.86,18.57-6.67,20.46-6.59H481.88c1.88-.08,13.23-.27,20.46,6.59A18.63,18.63,0,0,1,508,176.5V219c0,1-.61,21.39-19.66,29.75-13.43,5.89-37.54,14.84-46.34,18.08V409.08C442,409.63,441.23,463,387.43,463ZM14,218.92c0,1.05.79,15,13.68,20.67,16,7,48.7,18.93,49,19A5,5,0,0,1,80,263.33V409.08c0,1.75.94,43.92,44.7,43.92H387.43c18.46,0,31.54-7.31,38.86-21.73A55.41,55.41,0,0,0,432,409.06V263.33a5,5,0,0,1,3.29-4.69c.33-.12,33-12,49-19,13.24-5.82,13.67-20.53,13.67-20.68V176.5a8.65,8.65,0,0,0-2.52-6.64c-3.68-3.51-10.8-4-13.23-3.87H29.73c-2.41-.11-9.53.36-13.21,3.87A8.65,8.65,0,0,0,14,176.5Z"/><path class="cls-1" d="M438,166a5,5,0,0,1-4-2c-.07-.09-9.23-11.57-35.35-22.92C374.41,130.57,330.23,118,257.5,118s-117.22,12.58-141.7,23.13C89.41,152.5,80,164,79.92,164.1a5,5,0,0,1-7.86-6.18c1.59-2,40.67-49.92,185.44-49.92S440.43,155.93,442,158a5,5,0,0,1-4,8Z"/><path class="cls-1" d="M445.46,230.65a11.77,11.77,0,0,1-7-2.19C434.83,225.83,433,221.3,433,215V197.06a10.84,10.84,0,0,1,3.38-8.38A11.12,11.12,0,0,1,444.3,186h25.76a12.19,12.19,0,0,1,8.52,3.08,11.34,11.34,0,0,1,3.42,8.59v8.22c.14,3.64-1.16,10.61-6.89,14.44a5,5,0,0,1-1,.52L449.58,230l-.21.07A13.47,13.47,0,0,1,445.46,230.65Zm-2.34-34.56a3,3,0,0,0-.12,1V215c0,3.22.68,4.88,1.32,5.37a2.81,2.81,0,0,0,2,.2l23.63-8.84c2.11-1.79,2.08-5.45,2.08-5.49a1.93,1.93,0,0,1,0-.24v-8.33a2.23,2.23,0,0,0-.26-1.3,2.4,2.4,0,0,0-1.32-.37h-26.3a2.8,2.8,0,0,1-.42,0A1.67,1.67,0,0,0,443.12,196.09Z"/><path class="cls-1" d="M68.55,230.65a13.4,13.4,0,0,1-3.91-.56l-.22-.07-24.5-9.17a5,5,0,0,1-1-.52c-5.73-3.83-7-10.8-6.89-14.44v-8.22a11.38,11.38,0,0,1,3.41-8.59A12.25,12.25,0,0,1,44,186H69.71a11.1,11.1,0,0,1,7.91,2.68A10.82,10.82,0,0,1,81,197.06V215c0,6.3-1.83,10.83-5.45,13.46A11.76,11.76,0,0,1,68.55,230.65Zm-.8-10.06a2.86,2.86,0,0,0,1.93-.22c.64-.49,1.32-2.15,1.32-5.37V197.06a3.09,3.09,0,0,0-.12-1,3,3,0,0,0-.51-.1h0l-.49,0H43.58a2.4,2.4,0,0,0-1.32.37,2.23,2.23,0,0,0-.26,1.3V206a1.93,1.93,0,0,1,0,.24h0s0,3.69,2.08,5.49Z"/><path class="cls-1" d="M352.76,126.88a4.46,4.46,0,0,1-.72-.06c-1.46-.21-35.61-5.45-34.52-29.35.33-7.3-.12-17.93-7.89-26.06C301.13,62.51,285.45,58,263,58H250.3c-22.42,0-38.09,4.51-46.59,13.41-7.77,8.13-8.23,18.76-7.89,26.06.32,7.12-2.48,17.11-17.67,24.21a67.28,67.28,0,0,1-16.85,5.13,5,5,0,0,1-1.45-9.89h0c.27,0,26.65-4.12,26-19-.24-5.26-1-21.26,10.65-33.42,10.46-11,28.57-16.5,53.82-16.5H263c25.25,0,43.36,5.55,53.82,16.5,11.62,12.16,10.89,28.16,10.65,33.42-.68,14.88,25.71,19,26,19a5,5,0,0,1-.73,9.95Z"/><path class="cls-1" d="M292.21,119.09a3,3,0,0,1-.42,0,5,5,0,0,1-4.57-5.39c0-.11.92-11.4,1-19.63a6.81,6.81,0,0,0-2-5.16C282.37,85,272.62,83,257.25,83h-1c-15.37,0-25.13,2-29,5.89a6.74,6.74,0,0,0-2,5.16c.06,8.23,1,19.48,1,19.59a5,5,0,0,1-10,.82c0-.48-1-11.73-1-20.33a16.61,16.61,0,0,1,4.86-12.28c6.07-6.12,17.2-8.85,36.1-8.85h1c18.9,0,30,2.73,36.1,8.85a16.61,16.61,0,0,1,4.86,12.28c-.07,8.6-1,19.89-1,20.37A5,5,0,0,1,292.21,119.09Z"/></svg>