<?xml version="1.0" ?><svg id="Lines" viewBox="0 0 512 512" xmlns="http://www.w3.org/2000/svg"><defs><style>.cls-1{fill:#3f456b;}</style></defs><title/><path class="cls-1" d="M282.14,192.07a4.93,4.93,0,0,1-2.7-.79,5,5,0,0,1-1.51-6.89c1-1.58,25.54-38.74,87.31-27.4,21.22,3.9,37.54-.39,48.52-12.73a46.36,46.36,0,0,0,10.31-19.62,5,5,0,0,1,7.74-3.16c.79.54,19.13,13.59,14.5,44-.24,1.61-.55,3.2-.92,4.7a5,5,0,1,1-9.72-2.36c.3-1.22.55-2.52.76-3.84,2.17-14.31-1.72-23.61-5.33-28.87a57.33,57.33,0,0,1-9.86,15.77c-9.26,10.41-26.81,21.62-57.81,15.92-54.87-10.08-76.2,21.62-77.08,23A5,5,0,0,1,282.14,192.07Z"/><path class="cls-1" d="M406.83,273.2c-7.7,0-16.54-2.16-26.42-6.5a5,5,0,0,1,4-9.16c14.58,6.39,26.26,7.36,33.8,2.79a17.25,17.25,0,0,0,8.11-13.15c.63-9.14-3.71-13.46-3.9-13.64a5,5,0,0,1-.32-7,5,5,0,0,1,7.09-.33c.33.3,8.08,7.48,7.11,21.69a27.2,27.2,0,0,1-12.91,21A31.36,31.36,0,0,1,406.83,273.2Z"/><path class="cls-1" d="M367.3,304.46q-19.29,0-46-9.76a5,5,0,0,1,3.44-9.4c29.81,10.91,52.27,12.06,64.95,3.34,10.81-7.43,11.12-19.64,11.12-19.77a5,5,0,0,1,10,.16c0,.71-.44,17.53-15.45,27.85C388,301.93,378.62,304.46,367.3,304.46Z"/><path class="cls-1" d="M132.92,148.58H52.34A40.76,40.76,0,0,1,42.15,68.72c-.07-.82-.1-1.64-.1-2.47a31.86,31.86,0,0,1,51-25.45,55.57,55.57,0,0,1,38.19-28,66.19,66.19,0,0,1,23.77.31c17.2,3.43,29.74,13.72,36.27,29.76A5,5,0,0,1,182,46.65c-5.28-13-15-20.94-29-23.72a55.93,55.93,0,0,0-19.88-.31A45.47,45.47,0,0,0,99.36,51a5,5,0,0,1-8.54,1.4A21.86,21.86,0,0,0,52.05,66.25a22.08,22.08,0,0,0,.61,5.13,5,5,0,0,1-4,6.11,30.75,30.75,0,0,0,4,61.08h80.32a5,5,0,0,1,0,10Z"/><path class="cls-1" d="M68,82a5,5,0,0,1-3.07-1c-7-5.42-18.76-3.09-18.88-3.06A5,5,0,1,1,44,68.11c.67-.14,16.4-3.39,27.12,4.94A5,5,0,0,1,68,82Z"/><path class="cls-1" d="M49.25,227.64c-13.46,0-33.56-6.53-39.65-32.28-7.08-30,10.14-44.44,10.88-45.05a5,5,0,0,1,8,2.53c.47,1.65,12.3,40.63,61.26,27.45C150.36,164,177.83,199,179,200.52a5,5,0,0,1-7.95,6.06h0c-1-1.27-24.83-31.13-78.7-16.63-30.44,8.19-48.83-1.55-58.91-11.17A57.08,57.08,0,0,1,22.3,163.85c-3.17,5.53-6.3,15.12-3,29.21,6.67,28.22,32.92,24.45,34,24.28a5,5,0,0,1,1.55,9.88A37.37,37.37,0,0,1,49.25,227.64Z"/><path class="cls-1" d="M44.38,262.83c-6.94,0-13.84-1.49-19.7-5.59A29.13,29.13,0,0,1,12.59,234c-.32-13.68,9.67-22.29,10.09-22.65a5,5,0,0,1,6.48,7.61c-.15.13-6.78,6.05-6.58,14.8.06,2.35.79,10.38,7.83,15.31s18.64,5.08,33.11.17a5,5,0,1,1,3.21,9.47A71.19,71.19,0,0,1,44.38,262.83Z"/><path class="cls-1" d="M54.55,299.64a30.25,30.25,0,0,1-13.71-3.09,27.16,27.16,0,0,1-14.57-19.9c-2.13-14.08,5-21.87,5.32-22.2a5,5,0,0,1,7.33,6.8c-.25.29-4.12,4.95-2.77,13.9a17.29,17.29,0,0,0,9.16,12.45c7.88,3.94,19.45,2,33.45-5.52a5,5,0,1,1,4.75,8.8C72.69,296.71,63,299.64,54.55,299.64Z"/><path class="cls-1" d="M94,329.17a39.26,39.26,0,0,1-15.14-2.92c-19.15-7.9-25.07-28.86-25.31-29.75a5,5,0,0,1,9.64-2.65c.06.21,5,17.22,19.56,23.19,10.8,4.42,24.51,1.94,40.74-7.38a5,5,0,1,1,5,8.68C115.92,325.55,104.38,329.17,94,329.17Z"/><path class="cls-1" d="M305,131a5,5,0,0,1-5-4.84c-.33-10.23-5.85-19.1-15.55-25-13.41-8.11-31.77-9-45.69-2.31-16.38,7.91-29.55,4.65-38.21-1a33.4,33.4,0,0,1-6.26,16c-6.37,8.46-16.8,13.18-31,14a43.33,43.33,0,0,1-15.82-2.25c-11.24-3.93-18-12.25-19.44-24.08-.08-.67-1.72-15.77,8.67-25.18,7.58-6.87,19.15-8.66,34.36-5.32a5,5,0,1,1-2.14,9.76c-11.84-2.6-20.41-1.61-25.47,2.93-6.57,5.91-5.5,16.52-5.49,16.63,1,7.87,5.09,13,12.55,15.73a33.33,33.33,0,0,0,12.12,1.8c11.2-.66,19.14-4,23.66-10.06,6.56-8.71,4.12-20.66,4.09-20.77a5,5,0,0,1,9.05-3.86,26.75,26.75,0,0,0,9,7.62c7.64,3.94,16.37,3.6,25.94-1,16.84-8.14,39-7,55.21,2.76,12.7,7.68,19.93,19.47,20.38,33.2a5,5,0,0,1-4.84,5.16Z"/><path class="cls-1" d="M305.44,150.33c-1,0-1.62-.05-1.74-.06a5,5,0,0,1,.82-10c.09,0,11.12.72,19.22-6.62,5.86-5.31,9-13.65,9.26-24.81.87-33.94-25.67-38.75-26.8-38.93A5,5,0,0,1,302,65.58C300,48.42,284.12,17,238.43,21c-42,3.65-49.52,31-49.59,31.27A5,5,0,0,1,184,56c-10.95,0-16.57,4.28-19.36,7.87-3.15,4.05-3.48,8.07-3.14,9.39a5,5,0,0,1-9.69,2.46c-1.11-4.36,0-11.62,4.93-18,3.82-4.91,11-10.69,23.7-11.61,3.78-9,17.19-31.63,57.13-35.1C288,6.63,307.43,40,311.43,61a45,45,0,0,1,14.51,7.48c8.1,6.29,17.63,18.47,17.06,40.7-.36,14.06-4.62,24.85-12.66,32.06C321.12,149.47,309.74,150.33,305.44,150.33Z"/><path class="cls-1" d="M209,128h-1a5,5,0,0,1,0-10h1a5,5,0,0,1,0,10Z"/><path class="cls-1" d="M273,128h-1a5,5,0,0,1,0-10h1a5,5,0,0,1,0,10Z"/><path class="cls-1" d="M156.61,172a27.52,27.52,0,0,1-14.8-4.25A30.49,30.49,0,0,1,128,142c0-16.33,11.73-24.42,17.93-26.42a5,5,0,0,1,3.11,9.51c-.53.18-11,4-11,16.91a20.41,20.41,0,0,0,9.13,17.31c5.68,3.57,12.88,3.58,20.27,0a5,5,0,1,1,4.33,9A34.86,34.86,0,0,1,156.61,172Z"/><path class="cls-1" d="M357.36,250.39A175,175,0,0,1,323,246.9a5,5,0,1,1,2-9.8c30.93,6.18,60,3.8,86.27-7.1,20-8.28,32.91-19.47,36.93-24.23,5.78-6.82,12.33-15.49,11.77-22-.23-2.55-1.55-4.76-4.15-6.93-8.52-7.1-21.7,1.43-22.85,2.2-15.4,12-36.07,20.08-58.22,22.8-20.16,2.47-39.62.08-52-6.41A52.21,52.21,0,0,0,283,191.84a5,5,0,0,1-3.64-9.32c.94-.36,23.25-8.86,48,4,10.7,5.58,28,7.58,46.21,5.34,20.43-2.5,39.4-9.91,53.4-20.85l.2-.14a43.59,43.59,0,0,1,11.42-5.45c9.22-2.81,17.4-1.53,23.66,3.69,4.66,3.88,7.25,8.5,7.71,13.75.88,10.12-6.63,20.5-14.09,29.32C445.56,224.36,410.64,250.39,357.36,250.39Z"/><path class="cls-1" d="M234,210.11a76.08,76.08,0,0,1-75.95-76V125a5,5,0,0,1,10,0v9.07a66,66,0,1,0,131.94,0l-.05-8a5,5,0,0,1,5-5h0a5,5,0,0,1,5,5l.05,8.08A76.11,76.11,0,0,1,234,210.11Z"/><path class="cls-1" d="M138.22,500.52a17.48,17.48,0,0,1-8.63-2.11,13,13,0,0,1-6.5-9.85,10.41,10.41,0,0,1,2.2-7.9c3.48-4.46,10.26-6.36,14.2-7.12a37.84,37.84,0,0,1,16.34-15c-6.06-13-20-48.51-8.32-81.2A89.77,89.77,0,0,1,158,356.68a5,5,0,0,1,8.25,5.65,80,80,0,0,0-9.27,18.32c-12.72,35.76,9.95,77.64,10.18,78.06A5,5,0,0,1,164,466c-.09,0-11.53,3.25-16.71,14.26a5,5,0,0,1-4,2.84c-3.33.39-8.73,1.92-10.17,3.77-.18.23-.17.29-.15.43a3,3,0,0,0,1.54,2.47c1.94,1.11,5.53,1,8.36-.17,7.79-3.31,27.87-11,46-11,5.74,0,9.69-1.36,11.1-3.83s.45-5.43-.7-7.38c-5.22-8.88-16.14-61.92,23-87.58a5,5,0,0,1,5.48,8.37C193,411,205.73,458.53,207.93,462.27c3.35,5.7,3.65,12.37.76,17.41-2.31,4.05-7.62,8.87-19.78,8.87-16.29,0-34.86,7.14-42.09,10.21A22,22,0,0,1,138.22,500.52Z"/><path class="cls-1" d="M231,259a5,5,0,0,1-.19-10c13.23-.5,23.15-4.77,29.48-12.71,12.37-15.52,7.85-40.39,7.8-40.63a5,5,0,0,1,9.82-1.88c.23,1.19,5.46,29.54-9.77,48.69-8.22,10.35-20.66,15.91-36.95,16.53Z"/><path class="cls-1" d="M237.39,393.05c-15.29,0-23.22-12.24-30.25-23.09-7.81-12-13.29-19.28-23.52-18-13,1.62-18,10.92-18.17,11.31a5,5,0,0,1-8.92-4.51c.29-.58,7.41-14.42,25.85-16.72,17.19-2.15,25.67,10.94,33.15,22.48,7.74,11.94,13.16,19.14,23.15,18.49a5,5,0,0,1,.64,10C238.67,393,238,393.05,237.39,393.05Z"/><path class="cls-1" d="M185,255.76a5,5,0,0,1-4.93-4.21c-1.09-6.82-.08-16.66,0-17.07a5,5,0,1,1,9.94,1c0,.09-.91,8.94,0,14.45a5,5,0,0,1-4.15,5.72A4.33,4.33,0,0,1,185,255.76Z"/><path class="cls-1" d="M137.34,320.86c-8.32,0-15.42-2.87-20.5-8.4-8.09-8.81-10.25-23.72-5.62-38.92,7.7-25.29,25.05-48.59,48.87-65.61C182,192.29,198,191.06,198.67,191a5,5,0,1,1,.66,10c-.11,0-14.05,1.24-33.42,15.08-22,15.74-38.07,37.19-45.13,60.39-3.6,11.82-2.29,23,3.42,29.23,4.34,4.73,11.17,6.26,19.75,4.42,26.9-5.76,60.18-25.22,60.51-25.42,12.88-7.36,20.85-15,22.5-21.6a9.6,9.6,0,0,0-1.34-7.78c-3.37-5.35-17.17-4.71-23.33-3.55-.22,0-29.6,6.14-50.47,20.37a5,5,0,1,1-5.64-8.26c22.58-15.39,52.91-21.67,54.2-21.93,2.67-.5,25.81-4.49,33.7,8a19.6,19.6,0,0,1,2.58,15.53c-2.38,9.52-11.52,18.88-27.18,27.83-1.36.8-35,20.45-63.43,26.55A41.42,41.42,0,0,1,137.34,320.86Z"/><path class="cls-1" d="M149,393l-.51,0c-10.13-1-17.78-8-19.94-18.13-2.64-12.41,3.05-30.53,27-44.19,24.56-14,24.06-29.44,24-29.59a5,5,0,0,1,10-.79c.07.88,1.34,21.69-29.06,39.06-19.25,11-24,24.88-22.14,33.43,1.25,5.85,5.42,9.68,11.16,10.25a5,5,0,0,1-.49,10Z"/><path class="cls-1" d="M354.93,462c-9.86,0-13.86-10.53-17.44-19.94-1.37-3.61-2.79-7.34-4.54-10.85-4.59-9.2-16.94-6.22-18.86-5.69-2.58,1.14-15.76,6.38-40.92,6.38-26.06,0-38.73-13.65-38.73-41.72,0-22.46,11.57-40.35,12.06-41.1l.11-.16c13.17-18.48,27.55-28.59,42.76-30.05,18.1-1.74,30.3,9.65,30.81,10.14a5,5,0,0,1-6.88,7.26c-.15-.14-9.63-8.79-23.12-7.43-12.12,1.22-24,9.9-35.36,25.79-.7,1.1-10.38,16.78-10.38,35.55,0,22.53,8.32,31.72,28.73,31.72,25,0,36.87-5.52,37-5.58a5.07,5.07,0,0,1,.68-.27,35.59,35.59,0,0,1,11.73-1.35c9,.51,15.65,4.68,19.33,12,2,4,3.54,8.1,4.94,11.76,4.12,10.83,6,14.08,9.41,13.33,9.24-2,14.23-9.92,14.23-16.33,0-6.64-7.75-19.76-15.25-28.59-3.55-4.19-11.06-10.73-21.5-7.45a4.89,4.89,0,0,1-4.54-.51,4.46,4.46,0,0,1-1.95-3.76c-.68-2.43-6.73-7.7-27.38-5.06a5,5,0,1,1-1.27-9.92c15.55-2,26.75-.29,33.29,5.05a16.21,16.21,0,0,1,3.31,3.63c10.12-1.54,20,2.52,27.67,11.55,6.54,7.72,17.62,23.79,17.62,35.06,0,12.13-9.5,23.36-22.1,26.1A15.94,15.94,0,0,1,354.93,462ZM327.25,395.1Z"/><path class="cls-1" d="M324.41,276.5a5,5,0,0,1-1.68-.29c-18.56-6.63-29.71-25-32.22-53.21a163.69,163.69,0,0,1,1.58-39.42,5,5,0,0,1,9.84,1.79c-.15.82-11.91,68.53,24.17,81.42a5,5,0,0,1-1.69,9.71Z"/><path class="cls-1" d="M313,389a5,5,0,0,1-4-8c21.72-28.66,3.47-45.52,2.68-46.23a5.06,5.06,0,0,1-1.5-5.12c15.43-54,7-94.16,6.93-94.56a5,5,0,0,1,9.76-2.14c.38,1.69,8.81,41.57-6.31,96.73,5.75,6.86,18.83,27.78-3.58,57.36A5,5,0,0,1,313,389Z"/><path class="cls-1" d="M422.89,352.75h-.27A25.7,25.7,0,0,1,404,344a25.77,25.77,0,0,1,3.27-38.11c7.16-5.6,15.33-7,23.31-7.29a76,76,0,0,0,5.52-16.79c2.65-12,5-32.63,1.08-62.67a5,5,0,0,1,9.92-1.29c8,61.65-8.66,87.39-9.37,88.46a5,5,0,0,1-4.1,2.22c-8.23.09-14.81,1-20.19,5.24a16.61,16.61,0,0,0-6.3,11.26,16.27,16.27,0,0,0,4.29,12.29,15.73,15.73,0,0,0,11.31,5.42c6,0,10.85-3.89,11.69-9.63a8.15,8.15,0,0,0-1.86-6.37,5.14,5.14,0,0,0-3.9-1.91h0a4,4,0,0,0-2.92,1.18,3.77,3.77,0,0,0-1,2.81,5,5,0,0,1-10,.38,13.69,13.69,0,0,1,3.76-10.1,13.94,13.94,0,0,1,10.08-4.27,15.17,15.17,0,0,1,11.54,5.34,18.18,18.18,0,0,1,4.2,14.38A21.3,21.3,0,0,1,422.89,352.75Zm10.68-49.21h0Z"/><path class="cls-1" d="M432.82,177.64a5,5,0,0,1-4.75-3.46c-7.89-24.23-18.33-41-25.71-50.72a105,105,0,0,0-12.11-13.66c-7.31,3-15.24,5-24,2.93a25.77,25.77,0,0,1-18.8-33.31A25.71,25.71,0,0,1,360.8,63.74a21.32,21.32,0,0,1,27.28,7.54,18.13,18.13,0,0,1,2.14,14.83A15,15,0,0,1,382,95.75a13.91,13.91,0,0,1-10.95.31,13.68,13.68,0,0,1-7.61-7.63,5,5,0,0,1,9.25-3.8,3.72,3.72,0,0,0,2.06,2.14,4,4,0,0,0,3.15-.14,5.09,5.09,0,0,0,2.78-3.36,8.11,8.11,0,0,0-.95-6.56c-3.14-4.88-9.16-6.49-14.63-3.92a15.69,15.69,0,0,0-8,9.63,16.24,16.24,0,0,0,1.19,13A16.62,16.62,0,0,0,368.61,103c6.64,1.6,13-.29,20.55-3.61a5,5,0,0,1,5.08.62c1.1.86,27.22,21.54,43.34,71.07a5,5,0,0,1-4.76,6.55Z"/><path class="cls-1" d="M232,261a5,5,0,0,1-1.39-9.8l262-76a5,5,0,1,1,2.78,9.6l-262,76A4.77,4.77,0,0,1,232,261Z"/><path class="cls-1" d="M487.1,201.36a5,5,0,0,1-4.45-7.28l7-13.69-13.69-7a5,5,0,1,1,4.55-8.91l18.15,9.28a5,5,0,0,1,2.17,6.72l-9.27,18.15A5,5,0,0,1,487.1,201.36Z"/><path class="cls-1" d="M461.8,500.5a5.15,5.15,0,0,1-1.48-.23H331.17a6.75,6.75,0,0,1-1.81.21,40.56,40.56,0,0,1-39.5-40.67c0-20.89,14.87-38.45,36.16-42.71a5,5,0,1,1,2,9.8c-16.82,3.37-28.12,16.59-28.12,32.91a30.6,30.6,0,0,0,29.25,30.65,6.57,6.57,0,0,1,1.56-.19h130.8a5.13,5.13,0,0,1,1.41.19,26.94,26.94,0,0,0,25.9-27,27.27,27.27,0,0,0-22.4-26.87,5,5,0,0,1-3.95-6.17,45.24,45.24,0,0,0-43.78-56.56c-25.87,0-42.88,11.44-52,35a5,5,0,0,1-9.32-3.62c10.62-27.44,31.25-41.36,61.31-41.36a55.28,55.28,0,0,1,55.22,55.22,56.71,56.71,0,0,1-.72,8.93,37.18,37.18,0,0,1-11.23,72.52Zm.05-10h0Zm-132.19,0h0Z"/><path class="cls-1" d="M78.48,467.86a12.52,12.52,0,0,1-4.49-.81c-2.11-.75-26.35-9.61-47.26-26.09-10.64-8.39-15.71-19.72-13.9-31.08a31.74,31.74,0,0,1,20.69-24.52c11.3-4.15,20.21-1.51,26.06,2.45,3-6.4,9.24-13.25,21.07-15.52A31.75,31.75,0,0,1,111,382.65c7.4,8.8,8.89,21.12,4.09,33.79-9.5,25.07-25.86,45.25-27.1,46.75A11.75,11.75,0,0,1,78.48,467.86Zm-.82-10.11a2.07,2.07,0,0,0,2.48-.74.69.69,0,0,1,.11-.13c.23-.29,16.46-20.13,25.5-44,3.53-9.32,2.68-17.78-2.4-23.82-4.81-5.73-13-8.46-20.82-7-14.21,2.71-15.17,13.71-15.23,15a5.07,5.07,0,0,1-3.66,4.62l-.39.11a5,5,0,0,1-5.54-2.11c-.67-1-7.16-9.94-20.74-4.95-7.49,2.75-13.09,9.3-14.26,16.7-1.25,7.79,2.38,15.48,10.21,21.65C53,448.93,77.19,457.58,77.43,457.66A1.1,1.1,0,0,1,77.66,457.75Z"/><path class="cls-1" d="M437,445a5,5,0,0,1-3.25-8.8c15.71-13.47,35.5-9.27,36.33-9.08a5,5,0,0,1-2.15,9.76c-.24-.05-15.86-3.21-27.68,6.92A5,5,0,0,1,437,445Z"/><path class="cls-1" d="M444.77,99a7.26,7.26,0,0,1-4-1.19,7.83,7.83,0,0,1-3.13-4.45,76.54,76.54,0,0,1-2.61-13.88l-.22-1.77c-.23-1.85-.43-3.5-.58-4.92-6.35-2.5-15.72-6.93-19.2-11.27a8.29,8.29,0,0,1-1.94-7.45,8.5,8.5,0,0,1,4.4-5.29c4.17-2.68,14-6.25,19.51-8.13a116.86,116.86,0,0,1,2.69-18.59A9.81,9.81,0,0,1,442.59,17a9.2,9.2,0,0,1,6.27-2.26,8.29,8.29,0,0,1,2.19.36,10.27,10.27,0,0,1,4.28,2.71,116.87,116.87,0,0,1,11.76,14.64c5.67-1.16,16-3.1,20.94-2.91a8.49,8.49,0,0,1,6.47,2.32,8.29,8.29,0,0,1,2.12,7.4c-.78,5.44-6.47,13.89-10.66,19.28a84.75,84.75,0,0,1,7.25,19c1.13,4.48-1.12,8.58-5.35,9.74a12,12,0,0,1-4.82.16c-4.3-.56-8.45-1.46-12.46-2.34l-2.21-.48c-.55-.12-1.15-.27-1.74-.42s-.94-.24-1.38-.33l-.24-.06c-.78.77-1.55,1.55-2.34,2.36-1.61,1.65-3.28,3.35-5.12,5-.25.22-.56.53-.94.89C453.93,94.68,449.44,99,444.77,99Zm-20.6-42.53c3.12,2.35,10.09,5.81,16.4,8a5,5,0,0,1,3.34,4.31c.14,1.76.42,4.35.84,7.67l.23,1.8a87.2,87.2,0,0,0,1.5,9.47c1.23-1,2.57-2.3,3.17-2.87s.92-.9,1.25-1.19c1.59-1.41,3.06-2.92,4.62-4.51s2.92-3,4.53-4.46a5,5,0,0,1,2.07-1.14l.08,0a8.36,8.36,0,0,1,4.85.43l.39.12c.47.1,1.06.25,1.64.4l1.4.34,2.24.48c3.45.76,6.73,1.47,10.07,2a74.87,74.87,0,0,0-7.16-16.8,5,5,0,0,1,.51-5.72c4.31-5.1,8.56-11.62,10.05-15.23-4.7.25-14.56,2.11-20.37,3.38a5,5,0,0,1-5.33-2.27,106,106,0,0,0-11.37-14.87,105.62,105.62,0,0,0-2.24,18.59,5,5,0,0,1-3.44,4.67C437.79,50.93,428.35,54.34,424.17,56.51Zm-2.23,1.26h0Zm66.84-18.24h0ZM447.94,24.62Z"/></svg>