<?xml version="1.0" ?><svg viewBox="0 0 512 512" xmlns="http://www.w3.org/2000/svg"><defs><style>.cls-1{fill:#3f456b;}</style></defs><title/><g id="Lines"><path class="cls-1" d="M144,501a5,5,0,0,1-5-5,59.07,59.07,0,0,0-59-59,5,5,0,0,1,0-10,69.07,69.07,0,0,1,69,69A5,5,0,0,1,144,501Z"/><path class="cls-1" d="M368,501a5,5,0,0,1-5-5,69.07,69.07,0,0,1,69-69,5,5,0,0,1,0,10,59.07,59.07,0,0,0-59,59A5,5,0,0,1,368,501Z"/><path class="cls-1" d="M402,501H110a35,35,0,0,1-35-35V161c0-7.61,0-25.42,9.18-41.2C95.29,100.69,115.75,91,145,91H369c8.85,0,25.34,0,40.18,8.54C427.64,110.16,437,130.17,437,159V466A35,35,0,0,1,402,501ZM145,101c-60,0-60,45.16-60,60V466a25,25,0,0,0,25,25H402a25,25,0,0,0,25-25V159c0-25-7.67-42.08-22.81-50.79C391.66,101,376.92,101,369,101Z"/><path class="cls-1" d="M164,388H137.45C85.83,386.59,75,350.25,75,320a5,5,0,0,1,10,0c0,38,17.22,57,52.65,57.95H164a5,5,0,1,1,0,10Z"/><path class="cls-1" d="M307.42,388H209a5,5,0,0,1,0-10h98.42a5,5,0,1,1,0,10Z"/><path class="cls-1" d="M367,388H353.33a5,5,0,1,1,0-10H367c60,0,60-45.16,60-60a5,5,0,0,1,10,0c0,7.61,0,25.42-9.18,41.2C416.71,378.31,396.25,388,367,388Z"/><path class="cls-1" d="M144,101a5,5,0,0,1-5-5V25a15,15,0,0,1,15-15h27a15,15,0,0,1,15,15V95a5,5,0,0,1-10,0V25a5,5,0,0,0-5-5H154a5,5,0,0,0-5,5V96A5,5,0,0,1,144,101Z"/><path class="cls-1" d="M369,101a5,5,0,0,1-5-5V25a5,5,0,0,0-5-5H332a5,5,0,0,0-5,5V95a5,5,0,0,1-10,0V25a15,15,0,0,1,15-15h27a15,15,0,0,1,15,15V96A5,5,0,0,1,369,101Z"/><path class="cls-1" d="M187,474a27,27,0,0,1-27-27V432.25a5,5,0,0,1,10,0V447a17,17,0,0,0,34,0V433a5,5,0,0,1,10,0v14A27,27,0,0,1,187,474Z"/><path class="cls-1" d="M209,410a5,5,0,0,1-5-5V292H170V404.25a5,5,0,0,1-10,0V287a5,5,0,0,1,5-5h44a5,5,0,0,1,5,5V405A5,5,0,0,1,209,410Z"/><path class="cls-1" d="M208.5,101a5,5,0,0,1-5-4.64c-.06-.91-1.46-22.58,13.05-38.19C225.92,48.1,239.52,43,257,43s31.18,5.11,40.45,15.19C311.68,73.67,310.06,95,310,95.92a5,5,0,0,1-10-.84c0-.16,1.27-18-10-30.19C282.73,57,271.62,53,257,53s-25.73,4-33.12,12c-11.58,12.45-10.41,30.48-10.39,30.66a5,5,0,0,1-4.63,5.35Z"/><path class="cls-1" d="M240.49,101a5,5,0,0,1-5-4.64c-.26-3.59-2.22-35.44,9.45-48A16.14,16.14,0,0,1,257,43a15.85,15.85,0,0,1,12,5.41c11.37,12.56,8.58,44.26,8.23,47.84a5,5,0,0,1-10-1c1.17-11.8.65-33.14-5.69-40.14A5.8,5.8,0,0,0,257,53a6.05,6.05,0,0,0-4.71,2.17c-6.57,7.07-7.66,28.57-6.8,40.47a5,5,0,0,1-4.63,5.35Z"/><path class="cls-1" d="M450,469H433a5,5,0,0,1,0-10h17a25,25,0,0,0,25-25V269a25,25,0,0,0-25-25H433a5,5,0,0,1,0-10h17a35,35,0,0,1,35,35V434A35,35,0,0,1,450,469Z"/><path class="cls-1" d="M80,469H63a35,35,0,0,1-35-35V269a35,35,0,0,1,35-35H80a5,5,0,0,1,0,10H63a25,25,0,0,0-25,25V434a25,25,0,0,0,25,25H80a5,5,0,0,1,0,10Z"/><path class="cls-1" d="M480,356.5a5,5,0,0,1-1.62-9.73c.45-.17,12.62-5,12.62-25.77,0-21.74-13.21-29-13.35-29.08a5,5,0,1,1,4.7-8.84c.76.41,18.65,10.23,18.65,37.92,0,28.24-18.58,35-19.38,35.23A5.05,5.05,0,0,1,480,356.5Z"/><path class="cls-1" d="M33,356.5a5.05,5.05,0,0,1-1.62-.27C30.58,356,12,349.24,12,321c0-27.69,17.89-37.51,18.65-37.92a5,5,0,0,1,4.73,8.82C34.75,292.25,22,299.64,22,321c0,21.19,12.5,25.73,12.62,25.77A5,5,0,0,1,33,356.5Z"/><path class="cls-1" d="M220,437H154a5,5,0,0,1-5-5V405a5,5,0,0,1,5-5h66a5,5,0,0,1,5,5v27A5,5,0,0,1,220,437Zm-61-10h56V410H159Z"/><path class="cls-1" d="M187,321a5,5,0,0,1-5-5v-1a5,5,0,0,1,10,0v1A5,5,0,0,1,187,321Z"/><path class="cls-1" d="M330,474a27,27,0,0,1-27-27V432.25a5,5,0,0,1,10,0V447a17,17,0,0,0,34,0V433a5,5,0,0,1,10,0v14A27,27,0,0,1,330,474Z"/><path class="cls-1" d="M352,410a5,5,0,0,1-5-5V292H313V404.25a5,5,0,0,1-10,0V287a5,5,0,0,1,5-5h44a5,5,0,0,1,5,5V405A5,5,0,0,1,352,410Z"/><path class="cls-1" d="M363,437H297a5,5,0,0,1-5-5V405a5,5,0,0,1,5-5h66a5,5,0,0,1,5,5v27A5,5,0,0,1,363,437Zm-61-10h56V410H302Z"/><path class="cls-1" d="M330,321a5,5,0,0,1-5-5v-1a5,5,0,0,1,10,0v1A5,5,0,0,1,330,321Z"/><path class="cls-1" d="M80,324H33a5,5,0,0,1,0-10H80a5,5,0,0,1,0,10Z"/><path class="cls-1" d="M480,324H433a5,5,0,0,1,0-10h47a5,5,0,0,1,0,10Z"/><path class="cls-1" d="M320,198H193a5,5,0,0,1-5-5V143a5,5,0,0,1,5-5H320a5,5,0,0,1,5,5v50A5,5,0,0,1,320,198ZM198,188H315V148H198Z"/><path class="cls-1" d="M385,229H127a5,5,0,0,1,0-10H385a5,5,0,0,1,0,10Z"/><path class="cls-1" d="M385,244a5,5,0,0,1-5-5V224a5,5,0,0,1,10,0v15A5,5,0,0,1,385,244Z"/><path class="cls-1" d="M391,314H379a15,15,0,0,1-15-15V251a15,15,0,0,1,15-15h12a15,15,0,0,1,15,15v48A15,15,0,0,1,391,314Zm-12-68a5,5,0,0,0-5,5v48a5,5,0,0,0,5,5h12a5,5,0,0,0,5-5V251a5,5,0,0,0-5-5Z"/><path class="cls-1" d="M258,501a5,5,0,0,1-5-5V383a5,5,0,0,1,10,0V496A5,5,0,0,1,258,501Z"/><path class="cls-1" d="M385,297a5,5,0,0,1-5-5v-1a5,5,0,0,1,10,0v1A5,5,0,0,1,385,297Z"/><path class="cls-1" d="M162,379h-3a5,5,0,0,1,0-10h3a5,5,0,0,1,0,10Z"/><path class="cls-1" d="M202,379h-3a5,5,0,0,1,0-10h3a5,5,0,0,1,0,10Z"/></g><g id="Outline"><path class="cls-1" d="M203.67,242a5,5,0,0,1-5-5V224a5,5,0,0,1,10,0v13A5,5,0,0,1,203.67,242Z"/><path class="cls-1" d="M178.44,242a5,5,0,0,1-5-5V224a5,5,0,0,1,10,0v13A5,5,0,0,1,178.44,242Z"/><path class="cls-1" d="M153.22,242a5,5,0,0,1-5-5V224a5,5,0,0,1,10,0v13A5,5,0,0,1,153.22,242Z"/><path class="cls-1" d="M279.33,242a5,5,0,0,1-5-5V224a5,5,0,0,1,10,0v13A5,5,0,0,1,279.33,242Z"/><path class="cls-1" d="M254.11,242a5,5,0,0,1-5-5V224a5,5,0,0,1,10,0v13A5,5,0,0,1,254.11,242Z"/><path class="cls-1" d="M228.89,242a5,5,0,0,1-5-5V224a5,5,0,0,1,10,0v13A5,5,0,0,1,228.89,242Z"/><path class="cls-1" d="M355,242a5,5,0,0,1-5-5V224a5,5,0,0,1,10,0v13A5,5,0,0,1,355,242Z"/><path class="cls-1" d="M329.78,242a5,5,0,0,1-5-5V224a5,5,0,0,1,10,0v13A5,5,0,0,1,329.78,242Z"/><path class="cls-1" d="M304.56,242a5,5,0,0,1-5-5V224a5,5,0,1,1,10,0v13A5,5,0,0,1,304.56,242Z"/><path class="cls-1" d="M128,242a5,5,0,0,1-5-5V224a5,5,0,0,1,10,0v13A5,5,0,0,1,128,242Z"/></g></svg>