<?xml version="1.0" ?><svg viewBox="0 0 512 512" xmlns="http://www.w3.org/2000/svg"><defs><style>.cls-1{fill:#3f456b;}</style></defs><title/><g id="Lines"><path class="cls-1" d="M462.4,98.13a5,5,0,0,1-3.54-8.54,32,32,0,1,0-45.27-45.27,5,5,0,1,1-7.07-7.07,42,42,0,0,1,59.42,59.42A5,5,0,0,1,462.4,98.13Z"/><path class="cls-1" d="M43.69,490.09a26.19,26.19,0,1,1,18.53-7.66h0A26.12,26.12,0,0,1,43.69,490.09Zm0-42.38a16.2,16.2,0,1,0,11.46,4.74A16.13,16.13,0,0,0,43.69,447.71Zm15,31.18h0Z"/><path class="cls-1" d="M134,488.82a5,5,0,0,1-3.53-1.47L17.23,374.07a5,5,0,0,1,.64-7.61c25-17.78,70.1-18.23,104.29,16,33.3,33.3,33.3,77.59,16.08,104.12a5,5,0,0,1-3.67,2.25A4.71,4.71,0,0,1,134,488.82ZM28.76,371.46,133,475.66c11.73-23.48,9.48-58.83-17.86-86.17C97.6,372,79,366.56,66.41,365.06,52.76,363.44,39.37,365.76,28.76,371.46Z"/><path class="cls-1" d="M166.69,239.83a5.08,5.08,0,0,1-1.58-.26l-64.24-21.42a5,5,0,0,1-2-8.28l94.2-94.24a5,5,0,0,1,5.11-1.21l64.25,21.43a5,5,0,0,1,1.95,8.28l-94.19,94.23A5,5,0,0,1,166.69,239.83Zm-55-28.61,53.64,17.89,86.29-86.33L198,124.89Z"/><path class="cls-1" d="M81.07,154.21a5.08,5.08,0,0,1-1.58-.26L15.25,132.52a5,5,0,0,1-2-8.27L107.48,30a5,5,0,0,1,5.12-1.21l64.24,21.42a5,5,0,0,1,2,8.28L84.61,152.74A5,5,0,0,1,81.07,154.21Zm-55-28.61,53.64,17.88L166,57.15,112.37,39.26Z"/><path class="cls-1" d="M196.69,124.21a5,5,0,0,1-4.75-3.42L170.52,56.55A5,5,0,1,1,180,53.39l21.42,64.24a5,5,0,0,1-3.16,6.32A4.89,4.89,0,0,1,196.69,124.21Z"/><path class="cls-1" d="M58.68,453.92a5,5,0,0,1-3.53-1.47,5,5,0,0,1,0-7.07l20.23-20.23a5,5,0,0,1,7.07,7.07L62.22,452.45A5,5,0,0,1,58.68,453.92Z"/><path class="cls-1" d="M102.45,218.41A5,5,0,0,1,97.71,215L76.28,150.74a5,5,0,0,1,9.49-3.16l21.42,64.24a5,5,0,0,1-3.16,6.33A5.13,5.13,0,0,1,102.45,218.41Z"/><path class="cls-1" d="M398.5,471.64a5.08,5.08,0,0,1-1.58-.26L332.68,450a5,5,0,0,1-2-8.28l94.19-94.24a5,5,0,0,1,5.12-1.21l64.25,21.43a5,5,0,0,1,2,8.27L402,470.17A5,5,0,0,1,398.5,471.64Zm-55-28.61,53.64,17.89,86.29-86.34L429.8,356.69Z"/><path class="cls-1" d="M312.88,386a5,5,0,0,1-1.58-.25l-64.25-21.43a5,5,0,0,1-2-8.28l94.19-94.23a5,5,0,0,1,5.12-1.21L408.65,282a5,5,0,0,1,2,8.28l-94.2,94.24A5,5,0,0,1,312.88,386Zm-55-28.61,53.64,17.89L397.82,289l-53.64-17.89Z"/><path class="cls-1" d="M428.5,356a5,5,0,0,1-4.75-3.42l-21.42-64.24a5,5,0,1,1,9.48-3.17l21.43,64.25a5,5,0,0,1-3.16,6.32A4.89,4.89,0,0,1,428.5,356Z"/><path class="cls-1" d="M334.26,450.21a5,5,0,0,1-4.74-3.42l-21.43-64.24a5,5,0,0,1,9.49-3.16L339,443.63a5,5,0,0,1-3.16,6.33A5.11,5.11,0,0,1,334.26,450.21Z"/><path class="cls-1" d="M165.31,404.21h0a14.17,14.17,0,0,1-10.1-4.19l-50.59-50.58a14.31,14.31,0,0,1,0-20.21l207.6-207.6a14.28,14.28,0,0,1,20.21,0L383,172.21a14.28,14.28,0,0,1,0,20.21L175.42,400A14.21,14.21,0,0,1,165.31,404.21Zm3-11.26,3.53,3.54L168.35,393l207.59-207.6a4.27,4.27,0,0,0,0-6.06L325.36,128.7a4.29,4.29,0,0,0-6.07,0L111.69,336.3a4.3,4.3,0,0,0,0,6.07L162.28,393a4.29,4.29,0,0,0,6.07,0Z"/><path class="cls-1" d="M317.24,295.48A5,5,0,0,1,313.7,294l-19.24-19.25a5,5,0,0,1,7.07-7.07l19.24,19.24a5,5,0,0,1-3.53,8.54Z"/><path class="cls-1" d="M295.35,317.37a5,5,0,0,1-3.54-1.46l-19.24-19.25a5,5,0,0,1,7.07-7.07l19.24,19.24a5,5,0,0,1-3.53,8.54Z"/><path class="cls-1" d="M233.88,212.12a5,5,0,0,1-3.53-1.46L211.1,191.41a5,5,0,0,1,7.07-7.07l19.25,19.25a5,5,0,0,1-3.54,8.53Z"/><path class="cls-1" d="M212,234a5,5,0,0,1-3.54-1.46L189.21,213.3a5,5,0,1,1,7.07-7.07l19.25,19.25A5,5,0,0,1,212,234Z"/><path class="cls-1" d="M297.91,275.93a5,5,0,0,1-3.54-1.47l-63.74-63.74a5,5,0,0,1,7.07-7.07l63.74,63.74a5,5,0,0,1,0,7.07A5,5,0,0,1,297.91,275.93Z"/><path class="cls-1" d="M253.08,320.76a5,5,0,0,1-3.54-1.47L185.8,255.55a5,5,0,1,1,7.07-7.07l63.74,63.74a5,5,0,0,1-3.53,8.54Z"/><path class="cls-1" d="M208.24,365.59a5,5,0,0,1-3.53-1.47L141,300.38a5,5,0,0,1,7.08-7.07l63.74,63.74a5,5,0,0,1-3.54,8.54Z"/><path class="cls-1" d="M119.28,391.51a5,5,0,0,1-3.53-8.54l14.71-14.71a5,5,0,1,1,7.07,7.07L122.82,390A5,5,0,0,1,119.28,391.51Z"/><path class="cls-1" d="M382,188.69a5,5,0,0,1-4.24-7.63l29.36-47.39-38-38-45.79,31.29a5,5,0,1,1-5.64-8.26L366.88,85a5,5,0,0,1,6.36.6L417,129.4a5,5,0,0,1,.72,6.16l-31.45,50.76A5,5,0,0,1,382,188.69Z"/><path class="cls-1" d="M413.49,137.93a5,5,0,0,1-3.54-1.46L366.17,92.69a5,5,0,0,1-.64-6.29l32.8-49.78A5,5,0,0,1,406,35.8l61.73,60.73a5,5,0,0,1-.79,7.76L416.2,137.13A5,5,0,0,1,413.49,137.93ZM376.12,88.5l38,38,42.12-27.26L403.33,47.2Z"/><path class="cls-1" d="M301.56,224.87a19.69,19.69,0,0,1-13.92-33.6l53.68-53.68a5,5,0,1,1,7.07,7.07l-53.68,53.69a9.69,9.69,0,0,0,0,13.69,9.69,9.69,0,0,0,13.7,0L362,158.48a5,5,0,0,1,7.07,7.07l-53.57,53.57A19.64,19.64,0,0,1,301.56,224.87Z"/><path class="cls-1" d="M218.29,188.94a5,5,0,0,1-1.56-.25l-64.8-21.26a5,5,0,0,1-3.2-3.2l-19.89-61-62-21.41a5,5,0,0,1,3.26-9.46l64.41,22.23a5,5,0,0,1,3.12,3.18l19.87,60.91,62.4,20.47a5,5,0,0,1-1.56,9.75Z"/><path class="cls-1" d="M447.93,420a5,5,0,0,1-1.56-.25l-62.64-20.55a5,5,0,0,1-3.19-3.2l-19.89-61-62-21.41a5,5,0,1,1,3.26-9.46l64.41,22.23a5,5,0,0,1,3.12,3.18l19.87,60.91,60.23,19.76a5,5,0,0,1-1.56,9.75Z"/><path class="cls-1" d="M249.38,480.25a97.2,97.2,0,0,1-21-2.5c-19.26-4.32-32.22-11.57-38.51-21.54-4.24-6.71-5.39-14.43-3.45-22.93s6.73-14.87,13.87-18.67c8.62-4.57,20.26-4.79,31.13-.59,5.94,2.3,11,2.37,15.43.21a38.57,38.57,0,0,1,4.05-1.72h0a25.33,25.33,0,0,1,18.41.27c8,3.05,14.16,9.82,17.32,19.06a46.82,46.82,0,0,1,1.27,24.84C284.45,471.84,270.06,480.25,249.38,480.25ZM215.69,421A22.86,22.86,0,0,0,205,423.45c-4.57,2.42-7.53,6.48-8.81,12.06-1.35,5.9-.64,10.92,2.15,15.36,4.76,7.54,15.91,13.46,32.24,17.12,25.75,5.76,44.43.46,47.59-13.51,4-17.55-4.87-29.48-12.4-32.35a15.46,15.46,0,0,0-11.5-.2h0a27.31,27.31,0,0,0-3,1.29c-7,3.4-14.86,3.44-23.42.13A33.79,33.79,0,0,0,215.69,421Z"/><path class="cls-1" d="M252.65,76.55a26.28,26.28,0,1,1,26.28-26.27A26.31,26.31,0,0,1,252.65,76.55Zm0-42.55a16.28,16.28,0,1,0,16.28,16.28A16.29,16.29,0,0,0,252.65,34Z"/><path class="cls-1" d="M244,266a5,5,0,0,1-3.54-8.54l.71-.7a5,5,0,1,1,7.07,7.07l-.7.71A5,5,0,0,1,244,266Z"/><path class="cls-1" d="M200,310a5,5,0,0,1-3.54-8.54l.71-.7a5,5,0,1,1,7.07,7.07l-.7.71A5,5,0,0,1,200,310Z"/><path class="cls-1" d="M156.5,353.5A5,5,0,0,1,153,345l.71-.7a5,5,0,1,1,7.07,7.07l-.7.71A5,5,0,0,1,156.5,353.5Z"/></g><g id="Outline"><path class="cls-1" d="M27.73,260.13H17a5,5,0,0,1,0-10H27.73a5,5,0,0,1,0,10Z"/><path class="cls-1" d="M70,260.13H58a5,5,0,1,1,0-10H70a5,5,0,0,1,0,10Z"/><path class="cls-1" d="M43.08,287.05a5,5,0,0,1-5-5V270.17a5,5,0,0,1,10,0v11.88A5,5,0,0,1,43.08,287.05Z"/><path class="cls-1" d="M43.08,246.36a5,5,0,0,1-5-5V229.05a5,5,0,0,1,10,0v12.31A5,5,0,0,1,43.08,246.36Z"/><path class="cls-1" d="M43.22,274.55a18.89,18.89,0,1,1,18.89-18.89A18.91,18.91,0,0,1,43.22,274.55Zm0-27.78a8.89,8.89,0,1,0,8.89,8.89A8.9,8.9,0,0,0,43.22,246.77Z"/><path class="cls-1" d="M312.36,99.58a18.89,18.89,0,1,1,13.36-5.53h0A18.8,18.8,0,0,1,312.36,99.58Zm9.82-9.06h0Zm-9.82-18.71a8.89,8.89,0,1,0,6.29,2.6A8.85,8.85,0,0,0,312.36,71.81Z"/><path class="cls-1" d="M433,241.81a5,5,0,0,1-3.53-8.53,15.34,15.34,0,0,0,0-21.65,5,5,0,0,1,7.07-7.07,25.35,25.35,0,0,1,0,35.79A5,5,0,0,1,433,241.81Z"/><path class="cls-1" d="M451.42,260.29a5,5,0,0,1-3.53-8.54,41.44,41.44,0,0,0,0-58.59,5,5,0,1,1,7.07-7.08,51.45,51.45,0,0,1,0,72.74A5,5,0,0,1,451.42,260.29Z"/><path class="cls-1" d="M470.57,279.43A5,5,0,0,1,467,270.9,68.53,68.53,0,0,0,467,174a5,5,0,0,1,7.07-7.07,78.52,78.52,0,0,1,0,111A5,5,0,0,1,470.57,279.43Z"/><path class="cls-1" d="M407,226h-3a5,5,0,0,1,0-10h3a5,5,0,0,1,0,10Zm-23,0h-3a5,5,0,0,1,0-10h3a5,5,0,0,1,0,10Z"/><path class="cls-1" d="M218.49,455.69a15.31,15.31,0,0,1-10.7-4.72,14.16,14.16,0,0,1-4.2-10.65c.47-7.22,6.76-10.33,10-11l1.91,9.82.09,0c-.33.07-2,.52-2.05,1.81a4.28,4.28,0,0,0,1.38,3,5.28,5.28,0,0,0,3.64,1.7,5,5,0,1,1,.39,10Z"/></g></svg>