<?xml version="1.0" ?><svg enable-background="new 0 0 512 512" version="1.1" viewBox="0 0 512 512" xml:space="preserve" xmlns="http://www.w3.org/2000/svg" xmlns:xlink="http://www.w3.org/1999/xlink"><g id="Colors"><g><g><g><path d="M290.935,324.606c0,3.53-2.859,6.392-6.392,6.392c-3.529,0-6.392-2.862-6.392-6.392      c0-3.53,2.863-6.393,6.392-6.393C288.075,318.213,290.935,321.076,290.935,324.606z" fill="#384169"/></g></g><g><g><path d="M231.855,324.606c0,3.53-2.859,6.392-6.393,6.392c-3.528,0-6.39-2.862-6.39-6.392      c0-3.53,2.862-6.393,6.39-6.393C228.995,318.213,231.855,321.076,231.855,324.606z" fill="#384169"/></g></g><g><g><path d="M350.014,324.606c0,3.53-2.86,6.392-6.392,6.392c-3.53,0-6.392-2.862-6.392-6.392      c0-3.53,2.862-6.393,6.392-6.393C347.154,318.213,350.014,321.076,350.014,324.606z" fill="#384169"/></g></g><g><g><path d="M409.092,324.606c0,3.53-2.861,6.392-6.391,6.392c-3.53,0-6.392-2.862-6.392-6.392      c0-3.53,2.862-6.393,6.392-6.393C406.231,318.213,409.092,321.076,409.092,324.606z" fill="#384169"/></g></g><g><g><path d="M172.776,324.606c0,3.53-2.86,6.392-6.392,6.392c-3.529,0-6.391-2.862-6.391-6.392      c0-3.53,2.862-6.393,6.391-6.393C169.916,318.213,172.776,321.076,172.776,324.606z" fill="#384169"/></g></g><g><g><path d="M113.697,324.606c0,3.53-2.86,6.392-6.392,6.392c-3.529,0-6.391-2.862-6.391-6.392      c0-3.53,2.862-6.393,6.391-6.393C110.837,318.213,113.697,321.076,113.697,324.606z" fill="#384169"/></g></g><g><g><path d="M203.541,280.236c0,3.53-2.86,6.392-6.393,6.392c-3.528,0-6.39-2.862-6.39-6.392      c0-3.53,2.862-6.393,6.39-6.393C200.681,273.842,203.541,276.705,203.541,280.236z" fill="#384169"/></g></g><g><g><path d="M321.7,280.236c0,3.53-2.86,6.392-6.392,6.392c-3.53,0-6.392-2.862-6.392-6.392      c0-3.53,2.862-6.393,6.392-6.393C318.84,273.842,321.7,276.705,321.7,280.236z" fill="#384169"/></g></g><g><g><path d="M290.935,198.146c0,3.53-2.859,6.392-6.392,6.392c-3.529,0-6.392-2.862-6.392-6.392      s2.863-6.393,6.392-6.393C288.075,191.753,290.935,194.616,290.935,198.146z" fill="#384169"/></g></g><g><g><path d="M231.855,198.146c0,3.53-2.859,6.392-6.393,6.392c-3.528,0-6.39-2.862-6.39-6.392      s2.862-6.393,6.39-6.393C228.995,191.753,231.855,194.616,231.855,198.146z" fill="#384169"/></g></g><g><g><path d="M350.014,198.146c0,3.53-2.86,6.392-6.392,6.392c-3.53,0-6.392-2.862-6.392-6.392      s2.862-6.393,6.392-6.393C347.154,191.753,350.014,194.616,350.014,198.146z" fill="#384169"/></g></g><g><g><path d="M409.092,198.146c0,3.53-2.861,6.392-6.391,6.392c-3.53,0-6.392-2.862-6.392-6.392      s2.862-6.393,6.392-6.393C406.231,191.753,409.092,194.616,409.092,198.146z" fill="#384169"/></g></g><g><g><path d="M172.776,198.146c0,3.53-2.86,6.392-6.392,6.392c-3.529,0-6.391-2.862-6.391-6.392      s2.862-6.393,6.391-6.393C169.916,191.753,172.776,194.616,172.776,198.146z" fill="#384169"/></g></g><g><g><path d="M113.697,198.146c0,3.53-2.86,6.392-6.392,6.392c-3.529,0-6.391-2.862-6.391-6.392      s2.862-6.393,6.391-6.393C110.837,191.753,113.697,194.616,113.697,198.146z" fill="#384169"/></g></g><g><g><path d="M262.621,149.776c0,3.53-2.859,6.392-6.392,6.392c-3.529,0-6.392-2.862-6.392-6.392      c0-3.53,2.863-6.393,6.392-6.393C259.761,143.383,262.621,146.246,262.621,149.776z" fill="#384169"/></g></g><g><g><path d="M203.541,149.776c0,3.53-2.86,6.392-6.393,6.392c-3.528,0-6.39-2.862-6.39-6.392      c0-3.53,2.862-6.393,6.39-6.393C200.681,143.383,203.541,146.246,203.541,149.776z" fill="#384169"/></g></g><g><g><path d="M321.7,149.776c0,3.53-2.86,6.392-6.392,6.392c-3.53,0-6.392-2.862-6.392-6.392      c0-3.53,2.862-6.393,6.392-6.393C318.84,143.383,321.7,146.246,321.7,149.776z" fill="#384169"/></g></g><g><g><path d="M380.778,149.776c0,3.53-2.861,6.392-6.391,6.392c-3.53,0-6.392-2.862-6.392-6.392      c0-3.53,2.862-6.393,6.392-6.393C377.917,143.383,380.778,146.246,380.778,149.776z" fill="#384169"/></g></g><g><g><path d="M144.462,149.776c0,3.53-2.86,6.392-6.392,6.392c-3.529,0-6.391-2.862-6.391-6.392      c0-3.53,2.862-6.393,6.391-6.393C141.602,143.383,144.462,146.246,144.462,149.776z" fill="#384169"/></g></g></g></g><g id="Lines"><g><g><g><path d="M283.571,315.544c-0.053,0-0.106,0-0.16-0.001c-2.175-0.035-3.994-0.757-5.528-1.43      c-5.152-2.261-10.01-4.908-14.708-7.468l-2.619-1.424c-0.644-0.348-1.322-0.746-2.001-1.145      c-0.563-0.332-1.126-0.664-1.661-0.955c-0.329-0.178-0.642-0.377-0.961-0.588c-1.539,0.813-3.062,1.669-4.645,2.558      c-2.61,1.466-5.309,2.982-8.188,4.35c-0.403,0.192-0.938,0.477-1.564,0.809c-5.193,2.75-14.861,7.864-20.156,1.816      c-1.847-2.109-1.902-4.672-1.926-5.767c-0.136-6.273,0.85-12.319,1.803-18.165l0.364-2.25c0.456-2.861,0.874-5.33,1.247-7.384      c-6.367-4.878-17.489-14.375-20.312-21.19c-1.683-4.062-0.817-6.979,0.204-8.71c1.838-3.116,5.081-4.054,6.524-4.324      c6.3-1.881,21.302-2.757,28.309-3.074c3.676-10.566,8.794-20.323,10.453-23.157c1.297-2.214,2.915-3.797,4.81-4.705      c2.265-1.085,5.099-1.258,7.585-0.464c0.774,0.248,1.527,0.61,2.238,1.077c1.544,1.013,2.851,2.499,3.886,4.416      c1.559,2.887,6.332,12.812,9.639,23.507c6.991,0.562,21.952,1.961,28.184,4.061c1.433,0.32,4.641,1.371,6.369,4.549      c0.961,1.766,1.723,4.711-0.1,8.711c-3.028,6.645-14.272,15.63-20.838,20.324c1.911,8.992,2.673,17.932,2.326,27.222      C291.951,311.947,288.436,315.544,283.571,315.544z M255.872,291.949c0.028,0,0.056,0,0.084,0l0.116,0.002      c2.091,0.037,3.766,1.161,5.112,2.063c0.19,0.128,0.364,0.249,0.508,0.334c0.6,0.324,1.268,0.716,1.936,1.109      c0.571,0.336,1.142,0.673,1.685,0.967l2.647,1.439c4.721,2.573,9.181,5.002,13.942,7.092c0.075,0.033,0.175,0.077,0.29,0.126      c0.229-9.05-0.709-17.752-2.858-26.562c-0.5-2.048,0.339-4.19,2.098-5.354c8.728-5.778,17.779-13.85,19.914-17.699      c-4.61-1.675-20.424-3.266-29.314-3.876c-2.123-0.146-3.922-1.619-4.481-3.672c-3.06-11.211-8.497-22.413-9.785-24.799      c-0.228-0.422-0.404-0.638-0.498-0.736c-0.026-0.001-0.056-0.001-0.08,0c-0.097,0.101-0.276,0.315-0.512,0.716      c-1.372,2.343-7.198,13.354-10.645,24.443c-0.631,2.033-2.479,3.442-4.606,3.514c-8.908,0.299-24.768,1.337-29.434,2.85      c1.999,3.92,10.764,12.303,19.285,18.383c1.61,1.149,2.392,3.14,1.993,5.078c-0.329,1.597-0.903,4.645-1.772,10.093      l-0.369,2.282c-0.843,5.17-1.643,10.079-1.684,14.979c1.576-0.426,4.058-1.533,7.414-3.311c0.781-0.413,1.448-0.763,1.95-1.002      c2.57-1.222,5.006-2.59,7.583-4.038c2.327-1.307,4.733-2.659,7.272-3.909C254.351,292.125,255.106,291.949,255.872,291.949z       M257.266,222.309L257.266,222.309L257.266,222.309z" fill="#384169"/></g></g></g><g><g><g><path d="M407.571,315.544c-0.053,0-0.106,0-0.16-0.001c-2.175-0.035-3.994-0.757-5.528-1.43      c-5.152-2.261-10.01-4.908-14.708-7.468l-2.619-1.424c-0.644-0.348-1.322-0.746-2.001-1.145      c-0.563-0.332-1.126-0.664-1.661-0.955c-0.329-0.178-0.642-0.377-0.961-0.588c-1.539,0.813-3.062,1.669-4.645,2.558      c-2.61,1.466-5.309,2.982-8.188,4.35c-0.403,0.192-0.938,0.477-1.564,0.809c-5.194,2.75-14.862,7.864-20.156,1.816      c-1.847-2.109-1.902-4.672-1.926-5.767c-0.136-6.273,0.85-12.319,1.803-18.165l0.364-2.25c0.456-2.861,0.874-5.33,1.247-7.384      c-6.367-4.878-17.489-14.375-20.312-21.19c-1.683-4.062-0.817-6.979,0.204-8.71c1.838-3.116,5.081-4.054,6.524-4.324      c6.3-1.881,21.302-2.757,28.309-3.074c3.676-10.566,8.794-20.323,10.453-23.157c1.297-2.214,2.915-3.797,4.81-4.705      c2.265-1.085,5.099-1.258,7.585-0.464c0.774,0.248,1.527,0.61,2.238,1.077c1.544,1.013,2.851,2.499,3.886,4.416      c1.559,2.887,6.332,12.812,9.639,23.507c6.991,0.562,21.952,1.961,28.184,4.061c1.433,0.32,4.641,1.371,6.369,4.549      c0.961,1.766,1.723,4.711-0.1,8.711c-3.028,6.645-14.272,15.63-20.838,20.324c1.911,8.992,2.673,17.932,2.326,27.222      C415.951,311.947,412.436,315.544,407.571,315.544z M379.872,291.949c0.028,0,0.056,0,0.084,0l0.116,0.002      c2.091,0.037,3.766,1.161,5.112,2.063c0.19,0.128,0.364,0.249,0.508,0.334c0.6,0.324,1.268,0.716,1.936,1.109      c0.571,0.336,1.142,0.673,1.685,0.967l2.647,1.439c4.721,2.573,9.181,5.002,13.942,7.092c0.075,0.033,0.175,0.077,0.29,0.126      c0.229-9.05-0.709-17.752-2.858-26.562c-0.5-2.048,0.339-4.19,2.098-5.354c8.728-5.778,17.779-13.85,19.914-17.699      c-4.61-1.675-20.424-3.266-29.314-3.876c-2.123-0.146-3.922-1.619-4.481-3.672c-3.06-11.211-8.497-22.413-9.785-24.799      c-0.228-0.422-0.404-0.638-0.498-0.736c-0.026-0.001-0.057-0.001-0.08,0c-0.097,0.101-0.276,0.315-0.512,0.716      c-1.372,2.343-7.198,13.354-10.645,24.443c-0.631,2.033-2.479,3.442-4.606,3.514c-8.908,0.299-24.768,1.337-29.434,2.85      c1.999,3.92,10.764,12.303,19.285,18.383c1.61,1.149,2.392,3.14,1.993,5.078c-0.329,1.597-0.903,4.645-1.772,10.093      l-0.369,2.282c-0.843,5.17-1.643,10.079-1.684,14.979c1.576-0.426,4.058-1.533,7.414-3.311c0.781-0.413,1.448-0.763,1.95-1.002      c2.57-1.222,5.006-2.59,7.583-4.038c2.327-1.307,4.733-2.659,7.272-3.909C378.351,292.125,379.106,291.949,379.872,291.949z       M381.266,222.309L381.266,222.309L381.266,222.309z" fill="#384169"/></g></g></g><g><g><g><path d="M158.571,315.544c-0.053,0-0.106,0-0.16-0.001c-2.175-0.035-3.994-0.757-5.528-1.43      c-5.152-2.261-10.01-4.908-14.708-7.468l-2.619-1.424c-0.644-0.348-1.322-0.746-2.001-1.145      c-0.563-0.332-1.126-0.664-1.661-0.955c-0.329-0.178-0.642-0.377-0.961-0.588c-1.539,0.813-3.062,1.669-4.645,2.558      c-2.61,1.466-5.309,2.982-8.188,4.35c-0.403,0.192-0.938,0.477-1.564,0.809c-5.194,2.75-14.861,7.864-20.156,1.816      c-1.847-2.109-1.902-4.672-1.926-5.767c-0.136-6.273,0.85-12.319,1.803-18.165l0.364-2.25c0.456-2.861,0.874-5.33,1.247-7.384      c-6.367-4.878-17.489-14.375-20.312-21.19c-1.683-4.062-0.817-6.979,0.204-8.71c1.838-3.116,5.081-4.054,6.524-4.324      c6.3-1.881,21.302-2.757,28.309-3.074c3.676-10.566,8.794-20.323,10.453-23.157c1.297-2.214,2.915-3.797,4.81-4.705      c2.265-1.085,5.1-1.258,7.585-0.464c0.774,0.248,1.527,0.61,2.238,1.077c1.544,1.013,2.851,2.499,3.886,4.416      c1.559,2.887,6.332,12.812,9.639,23.507c6.991,0.562,21.952,1.961,28.184,4.061c1.433,0.32,4.641,1.371,6.369,4.549      c0.961,1.766,1.723,4.711-0.1,8.711c-3.028,6.645-14.272,15.63-20.838,20.324c1.911,8.992,2.673,17.932,2.326,27.222      C166.951,311.947,163.436,315.544,158.571,315.544z M130.872,291.949c0.028,0,0.056,0,0.084,0l0.116,0.002      c2.091,0.037,3.766,1.161,5.112,2.063c0.19,0.128,0.364,0.249,0.508,0.334c0.6,0.324,1.268,0.716,1.936,1.109      c0.571,0.336,1.142,0.673,1.685,0.967l2.647,1.439c4.721,2.573,9.181,5.002,13.942,7.092c0.075,0.033,0.175,0.077,0.29,0.126      c0.229-9.05-0.709-17.752-2.858-26.562c-0.5-2.048,0.339-4.19,2.098-5.354c8.728-5.778,17.779-13.85,19.914-17.699      c-4.61-1.675-20.424-3.266-29.314-3.876c-2.123-0.146-3.922-1.619-4.481-3.672c-3.06-11.211-8.497-22.413-9.785-24.799      c-0.228-0.422-0.404-0.638-0.498-0.736c-0.026-0.001-0.057-0.001-0.08,0c-0.097,0.101-0.276,0.315-0.512,0.716      c-1.372,2.343-7.198,13.354-10.645,24.443c-0.631,2.033-2.479,3.442-4.606,3.514c-8.908,0.299-24.768,1.337-29.434,2.85      c1.999,3.92,10.764,12.303,19.285,18.383c1.61,1.149,2.392,3.14,1.993,5.078c-0.329,1.597-0.903,4.645-1.772,10.093      l-0.369,2.282c-0.843,5.17-1.643,10.079-1.684,14.979c1.576-0.426,4.058-1.533,7.414-3.311c0.781-0.413,1.448-0.763,1.95-1.002      c2.57-1.222,5.006-2.59,7.583-4.038c2.327-1.307,4.733-2.659,7.272-3.909C129.351,292.125,130.106,291.949,130.872,291.949z       M132.266,222.309L132.266,222.309L132.266,222.309z" fill="#384169"/></g></g></g><g><g><g><path d="M416.498,145c-2.333,0-4.367-1.62-4.878-3.912c-0.088-0.388-9.356-39.628-44.214-47.44      c-2.313-0.519-3.945-2.591-3.905-4.962c0.039-2.368,1.734-4.382,4.059-4.827c1.604-0.312,39.241-8.057,43.977-47.456      c0.297-2.471,2.365-4.347,4.853-4.402C416.427,32,416.464,32,416.501,32c2.44,0,4.531,1.765,4.932,4.183      c0.017,0.099,1.883,10.825,8.373,22.06c8.414,14.562,20.352,23.172,35.483,25.589c2.383,0.381,4.153,2.409,4.21,4.821      c0.056,2.412-1.619,4.521-3.981,5.012c-1.546,0.329-38.195,8.554-44.075,47.089c-0.362,2.379-2.368,4.162-4.772,4.243      C416.612,144.999,416.555,145,416.498,145z M383.603,88.821c17.095,8.459,26.938,23.371,32.265,34.742      c4.874-11.856,13.098-21.824,24.291-29.311c2.995-2.003,5.936-3.65,8.665-4.996c-11.384-5.176-20.857-14.085-27.852-26.317      c-1.55-2.711-2.862-5.381-3.969-7.911c-5.764,14.027-15.486,22.979-23.719,28.41C389.929,85.652,386.629,87.42,383.603,88.821z" fill="#384169"/></g></g></g><g><g><g><path d="M48.22,350.302c-1.279,0-2.56-0.488-3.535-1.464c-1.953-1.953-1.953-5.119,0-7.071l9.291-9.291      c1.951-1.952,5.119-1.952,7.07,0c1.953,1.953,1.953,5.119,0,7.071l-9.291,9.291C50.779,349.814,49.499,350.302,48.22,350.302z" fill="#384169"/></g></g><g><g><path d="M16.511,381.988c-1.279,0-2.56-0.488-3.535-1.464c-1.953-1.953-1.953-5.119,0-7.071l9.291-9.291      c1.951-1.952,5.119-1.952,7.07,0c1.953,1.953,1.953,5.119,0,7.071l-9.291,9.291C19.07,381.5,17.79,381.988,16.511,381.988z" fill="#384169"/></g></g></g><g><g><g><path d="M57.499,382c-1.279,0-2.56-0.488-3.535-1.464l-9.291-9.291c-1.953-1.953-1.953-5.119,0-7.071      c1.951-1.952,5.119-1.952,7.07,0l9.291,9.291c1.953,1.953,1.953,5.119,0,7.071C60.059,381.512,58.778,382,57.499,382z" fill="#384169"/></g></g><g><g><path d="M25.813,350.291c-1.279,0-2.56-0.488-3.535-1.464l-9.291-9.291c-1.953-1.953-1.953-5.119,0-7.071      c1.951-1.952,5.119-1.952,7.07,0l9.291,9.291c1.953,1.953,1.953,5.119,0,7.071C28.373,349.802,27.093,350.291,25.813,350.291z" fill="#384169"/></g></g></g><g opacity="0.5"><g><path d="M30.616,356.526c0-3.575,2.897-6.473,6.473-6.473c3.574,0,6.473,2.898,6.473,6.473S40.663,363,37.089,363     C33.513,363,30.616,360.101,30.616,356.526z" fill="#384169"/></g></g><g><g><g><path d="M161.22,63.302c-1.279,0-2.56-0.488-3.535-1.464c-1.953-1.953-1.953-5.119,0-7.071l9.291-9.291      c1.951-1.952,5.119-1.952,7.07,0c1.953,1.953,1.953,5.119,0,7.071l-9.291,9.291C163.779,62.814,162.499,63.302,161.22,63.302z" fill="#384169"/></g></g><g><g><path d="M129.511,94.988c-1.279,0-2.56-0.488-3.535-1.464c-1.953-1.953-1.953-5.119,0-7.071l9.291-9.291      c1.951-1.952,5.119-1.952,7.07,0c1.953,1.953,1.953,5.119,0,7.071l-9.291,9.291C132.07,94.5,130.79,94.988,129.511,94.988z" fill="#384169"/></g></g></g><g><g><g><path d="M170.499,95c-1.279,0-2.56-0.488-3.535-1.464l-9.291-9.291c-1.953-1.953-1.953-5.119,0-7.071      c1.951-1.952,5.119-1.952,7.07,0l9.291,9.291c1.953,1.953,1.953,5.119,0,7.071C173.059,94.512,171.778,95,170.499,95z" fill="#384169"/></g></g><g><g><path d="M138.813,63.291c-1.279,0-2.56-0.488-3.535-1.464l-9.291-9.291c-1.953-1.953-1.953-5.119,0-7.071      c1.951-1.952,5.119-1.952,7.07,0l9.291,9.291c1.953,1.953,1.953,5.119,0,7.071C141.373,62.802,140.093,63.291,138.813,63.291z" fill="#384169"/></g></g></g><g opacity="0.5"><g><path d="M143.616,69.526c0-3.575,2.896-6.473,6.473-6.473c3.574,0,6.473,2.898,6.473,6.473S153.663,76,150.089,76     C146.513,76,143.616,73.101,143.616,69.526z" fill="#384169"/></g></g><g><g><g><path d="M487.22,206.302c-1.279,0-2.56-0.488-3.535-1.464c-1.953-1.953-1.953-5.119,0-7.071l9.291-9.291      c1.951-1.952,5.119-1.952,7.07,0c1.953,1.953,1.953,5.119,0,7.071l-9.291,9.291C489.779,205.814,488.499,206.302,487.22,206.302      z" fill="#384169"/></g></g><g><g><path d="M455.511,237.988c-1.279,0-2.56-0.488-3.535-1.464c-1.953-1.953-1.953-5.119,0-7.071l9.291-9.291      c1.951-1.952,5.119-1.952,7.07,0c1.953,1.953,1.953,5.119,0,7.071l-9.291,9.291C458.07,237.5,456.79,237.988,455.511,237.988z" fill="#384169"/></g></g></g><g><g><g><path d="M496.499,238c-1.279,0-2.56-0.488-3.535-1.464l-9.291-9.291c-1.953-1.953-1.953-5.119,0-7.071      c1.951-1.952,5.119-1.952,7.07,0l9.291,9.291c1.953,1.953,1.953,5.119,0,7.071C499.059,237.512,497.778,238,496.499,238z" fill="#384169"/></g></g><g><g><path d="M464.813,206.291c-1.279,0-2.56-0.488-3.535-1.464l-9.291-9.291c-1.953-1.953-1.953-5.119,0-7.071      c1.951-1.952,5.119-1.952,7.07,0l9.291,9.291c1.953,1.953,1.953,5.119,0,7.071C467.373,205.802,466.093,206.291,464.813,206.291      z" fill="#384169"/></g></g></g><g opacity="0.5"><g><path d="M469.616,212.526c0-3.575,2.896-6.473,6.473-6.473c3.574,0,6.473,2.898,6.473,6.473     c0,3.575-2.898,6.474-6.473,6.474C472.513,219,469.616,216.101,469.616,212.526z" fill="#384169"/></g></g><g><g><path d="M444,500H68c-13.785,0-25-11.215-25-25v-55c0-13.785,11.215-25,25-25h376c13.785,0,25,11.215,25,25v55     C469,488.785,457.785,500,444,500z M68,405c-8.271,0-15,6.729-15,15v55c0,8.271,6.729,15,15,15h376c8.271,0,15-6.729,15-15v-55     c0-8.271-6.729-15-15-15H68z" fill="#384169"/></g></g><g><g><path d="M432,405c-2.762,0-5-2.239-5-5V275c0-0.071,0.002-0.142,0.005-0.213     c0.026-0.652,2.185-66.192-42.18-112.417C355.294,131.601,311.951,116,256,116c-56.578,0-100.198,15.645-129.649,46.5     c-43.307,45.372-40.886,108.634-40.856,109.268c0.004,0.077,0.006,0.155,0.006,0.232v128c0,2.761-2.238,5-5,5s-5-2.239-5-5     V272.11c-0.175-4.17-2.072-68.647,43.617-116.515C150.528,122.686,196.583,106,256,106c58.83,0,104.627,16.664,136.118,49.528     C438.929,204.379,437.16,270.942,437,275.101V400C437,402.761,434.762,405,432,405z" fill="#384169"/></g></g><g><g><path d="M256,116c-28.948,0-52.5-23.551-52.5-52.5S227.052,11,256,11s52.5,23.551,52.5,52.5S284.948,116,256,116z      M256,21c-23.435,0-42.5,19.065-42.5,42.5S232.565,106,256,106s42.5-19.065,42.5-42.5S279.435,21,256,21z" fill="#384169"/></g></g><g><g><path d="M81,498c-2.762,0-5-2.239-5-5v-91c0-2.761,2.238-5,5-5s5,2.239,5,5v91C86,495.761,83.762,498,81,498z" fill="#384169"/></g></g><g><g><path d="M113,498c-2.762,0-5-2.239-5-5v-91c0-2.761,2.238-5,5-5s5,2.239,5,5v91C118,495.761,115.762,498,113,498z     " fill="#384169"/></g></g><g><g><path d="M145,498c-2.762,0-5-2.239-5-5v-91c0-2.761,2.238-5,5-5s5,2.239,5,5v91C150,495.761,147.762,498,145,498z     " fill="#384169"/></g></g><g><g><path d="M177,498c-2.762,0-5-2.239-5-5v-91c0-2.761,2.238-5,5-5s5,2.239,5,5v91C182,495.761,179.762,498,177,498z     " fill="#384169"/></g></g><g><g><path d="M209,498c-2.762,0-5-2.239-5-5v-91c0-2.761,2.238-5,5-5s5,2.239,5,5v91C214,495.761,211.762,498,209,498z     " fill="#384169"/></g></g><g><g><path d="M241,498c-2.762,0-5-2.239-5-5v-91c0-2.761,2.238-5,5-5s5,2.239,5,5v91C246,495.761,243.762,498,241,498z     " fill="#384169"/></g></g><g><g><path d="M337,498c-2.762,0-5-2.239-5-5v-91c0-2.761,2.238-5,5-5s5,2.239,5,5v91C342,495.761,339.762,498,337,498z     " fill="#384169"/></g></g><g><g><path d="M369,498c-2.762,0-5-2.239-5-5v-91c0-2.761,2.238-5,5-5s5,2.239,5,5v91C374,495.761,371.762,498,369,498z     " fill="#384169"/></g></g><g><g><path d="M401,498c-2.762,0-5-2.239-5-5v-91c0-2.761,2.238-5,5-5s5,2.239,5,5v91C406,495.761,403.762,498,401,498z     " fill="#384169"/></g></g><g><g><path d="M433,498c-2.762,0-5-2.239-5-5v-91c0-2.761,2.238-5,5-5s5,2.239,5,5v91C438,495.761,435.762,498,433,498z     " fill="#384169"/></g></g><g><g><path d="M273,498c-2.762,0-5-2.239-5-5v-91c0-2.761,2.238-5,5-5s5,2.239,5,5v91C278,495.761,275.762,498,273,498z     " fill="#384169"/></g></g><g><g><path d="M305,498c-2.762,0-5-2.239-5-5v-91c0-2.761,2.238-5,5-5s5,2.239,5,5v91C310,495.761,307.762,498,305,498z     " fill="#384169"/></g></g><g><g><path d="M193.004,214c-0.068,0-0.137-0.001-0.205-0.004c-2.759-0.111-4.905-2.438-4.795-5.197     c0.042-1.031,1.113-25.525,9.747-50.437C209.624,124.107,230.109,106,256.992,106c26.905,0,47.226,18.122,58.764,52.405     c8.385,24.917,9.211,49.414,9.242,50.444c0.083,2.76-2.087,5.065-4.848,5.148c-2.77,0.076-5.065-2.087-5.148-4.847     c-0.028-0.929-3.512-93.15-58.01-93.15c-54.62,0-58.959,92.269-58.996,93.201C197.888,211.892,195.673,214,193.004,214z" fill="#384169"/></g></g><g><g><path d="M430.848,377c-1.209,0-2.421-0.436-3.381-1.317l-30.921-28.394l-30.377,27.894     c-1.912,1.757-4.852,1.757-6.764,0l-32.01-29.395l-32.011,29.395c-1.912,1.757-4.852,1.757-6.764,0l-31.957-29.346     l-31.462,29.794c-1.908,1.806-4.886,1.829-6.82,0.052l-32.554-29.894l-31.466,28.894c-1.912,1.757-4.852,1.757-6.764,0     l-30.921-28.395l-30.922,28.395c-2.032,1.867-5.195,1.734-7.064-0.301c-1.868-2.034-1.733-5.197,0.301-7.064l34.304-31.5     c1.912-1.757,4.852-1.757,6.764,0l30.921,28.395l31.466-28.895c1.912-1.757,4.852-1.757,6.764,0l32.501,29.846l31.462-29.794     c1.908-1.806,4.887-1.829,6.82-0.052l32.01,29.395l32.011-29.395c1.912-1.757,4.852-1.757,6.764,0l32.01,29.395l30.377-27.895     c1.912-1.757,4.852-1.757,6.764,0l34.303,31.5c2.034,1.868,2.169,5.031,0.301,7.064C433.546,376.456,432.198,377,430.848,377z" fill="#384169"/></g></g></g></svg>