<?xml version="1.0" ?><svg viewBox="0 0 512 512" xmlns="http://www.w3.org/2000/svg"><defs><style>.cls-1{fill:#3f456b;}</style></defs><title/><g id="Lines"><path class="cls-1" d="M357.35,317.85a4.94,4.94,0,0,1-3.53-1.46l-.71-.71a5,5,0,1,1,7.07-7.07l.71.71a5,5,0,0,1-3.54,8.53Z"/><path class="cls-1" d="M468,501H48c-18.65,0-35-17.76-35-38V237a35,35,0,0,1,35-35H468a35,35,0,0,1,35,35V466A35,35,0,0,1,468,501ZM48,212a25,25,0,0,0-25,25V463c0,13.22,10.69,28,25,28H468a25,25,0,0,0,25-25V237a25,25,0,0,0-25-25Z"/><path class="cls-1" d="M385,398.07a63.87,63.87,0,1,1,63.87-63.87A63.94,63.94,0,0,1,385,398.07Zm0-117.74a53.87,53.87,0,1,0,53.87,53.87A53.94,53.94,0,0,0,385,280.33Z"/><path class="cls-1" d="M158,464.64A113.06,113.06,0,1,1,271.06,351.58,113.19,113.19,0,0,1,158,464.64Zm0-216.12A103.06,103.06,0,1,0,261.06,351.58,103.17,103.17,0,0,0,158,248.52Z"/><path class="cls-1" d="M448,461.41a28.83,28.83,0,1,1,28.83-28.83A28.87,28.87,0,0,1,448,461.41Zm0-47.66a18.83,18.83,0,1,0,18.83,18.83A18.86,18.86,0,0,0,448,413.75Z"/><path class="cls-1" d="M160,212a5,5,0,0,1-5-5V186.59a2.39,2.39,0,0,0-2.15-2.59h-47.7a2.39,2.39,0,0,0-2.15,2.59V207a5,5,0,0,1-10,0V186.59A12.39,12.39,0,0,1,105.15,174h47.7A12.39,12.39,0,0,1,165,186.59V207A5,5,0,0,1,160,212Z"/><path class="cls-1" d="M130.4,183.91a5,5,0,0,1-3.46-8.61L297.17,12.88a5,5,0,0,1,6.91,7.24L133.85,182.53A5,5,0,0,1,130.4,183.91Z"/><path class="cls-1" d="M450.5,212a5,5,0,0,1-4.12-2.17c-.07-.09-7.94-11.17-26.95-22.11-17.62-10.14-48.66-22.22-96.52-22.22-91.94,0-124,43.94-124.32,44.38a5,5,0,0,1-8.18-5.76c1.41-2,35.43-48.62,132.5-48.62s130.34,46.68,131.71,48.67A5,5,0,0,1,450.5,212Z"/><path class="cls-1" d="M324,458h-1a5,5,0,0,1,0-10h1a5,5,0,0,1,0,10Z"/><path class="cls-1" d="M354,458h-1a5,5,0,0,1,0-10h1a5,5,0,0,1,0,10Z"/><path class="cls-1" d="M383,458h-1a5,5,0,0,1,0-10h1a5,5,0,0,1,0,10Z"/></g><g id="Outline"><path class="cls-1" d="M298.6,75.4h-1a58.94,58.94,0,0,1-57.92-59.81,5,5,0,1,1,10,.16,48.87,48.87,0,1,0,97.73,1.56,5,5,0,1,1,10,.16A59,59,0,0,1,298.6,75.4Z"/><path class="cls-1" d="M297.65,108.76l-1.5,0A90.77,90.77,0,0,1,232,81a90.76,90.76,0,0,1-25.71-65,5,5,0,1,1,10,.16A80.77,80.77,0,0,0,239.19,74a81.33,81.33,0,0,0,115,1.83,80.78,80.78,0,0,0,24.74-57.12,5,5,0,1,1,10,.16A90.78,90.78,0,0,1,361.15,83,90.72,90.72,0,0,1,297.65,108.76Z"/><path class="cls-1" d="M297.64,141.26l-2,0a123,123,0,0,1-87-37.66,123,123,0,0,1-34.87-88.13,5,5,0,0,1,10,.15,113.08,113.08,0,0,0,32.05,81,113.08,113.08,0,0,0,80,34.62,114,114,0,0,0,115.64-112,5,5,0,1,1,10,.16A124,124,0,0,1,297.64,141.26Z"/><path class="cls-1" d="M385,424.54a90.34,90.34,0,1,1,90.33-90.34,5,5,0,0,1-10,0A80.33,80.33,0,1,0,385,414.54a5,5,0,0,1,0,10Z"/><path class="cls-1" d="M245.86,331.23h-.79a5,5,0,1,1,0-10h.79a5,5,0,0,1,0,10Z"/><path class="cls-1" d="M245.86,357.94h-.79a5,5,0,0,1,0-10h.79a5,5,0,0,1,0,10Z"/><path class="cls-1" d="M245.86,384.65h-.79a5,5,0,0,1,0-10h.79a5,5,0,0,1,0,10Z"/><path class="cls-1" d="M221.57,304.52h-.78a5,5,0,1,1,0-10h.78a5,5,0,0,1,0,10Z"/><path class="cls-1" d="M221.57,331.23h-.78a5,5,0,1,1,0-10h.78a5,5,0,0,1,0,10Z"/><path class="cls-1" d="M221.57,357.94h-.78a5,5,0,0,1,0-10h.78a5,5,0,0,1,0,10Z"/><path class="cls-1" d="M221.57,384.65h-.78a5,5,0,1,1,0-10h.78a5,5,0,1,1,0,10Z"/><path class="cls-1" d="M221.57,411.35h-.78a5,5,0,1,1,0-10h.78a5,5,0,1,1,0,10Z"/><path class="cls-1" d="M197.29,277.81h-.79a5,5,0,0,1,0-10h.79a5,5,0,1,1,0,10Z"/><path class="cls-1" d="M197.29,304.52h-.79a5,5,0,0,1,0-10h.79a5,5,0,0,1,0,10Z"/><path class="cls-1" d="M197.29,331.23h-.79a5,5,0,0,1,0-10h.79a5,5,0,0,1,0,10Z"/><path class="cls-1" d="M197.29,357.94h-.79a5,5,0,0,1,0-10h.79a5,5,0,1,1,0,10Z"/><path class="cls-1" d="M197.29,384.65h-.79a5,5,0,0,1,0-10h.79a5,5,0,0,1,0,10Z"/><path class="cls-1" d="M197.29,411.35h-.79a5,5,0,0,1,0-10h.79a5,5,0,0,1,0,10Z"/><path class="cls-1" d="M197.29,438.06h-.79a5,5,0,1,1,0-10h.79a5,5,0,1,1,0,10Z"/><path class="cls-1" d="M173,277.81h-.79a5,5,0,1,1,0-10H173a5,5,0,0,1,0,10Z"/><path class="cls-1" d="M173,304.52h-.79a5,5,0,0,1,0-10H173a5,5,0,0,1,0,10Z"/><path class="cls-1" d="M173,331.23h-.79a5,5,0,0,1,0-10H173a5,5,0,0,1,0,10Z"/><path class="cls-1" d="M173,357.94h-.79a5,5,0,1,1,0-10H173a5,5,0,1,1,0,10Z"/><path class="cls-1" d="M173,384.65h-.79a5,5,0,0,1,0-10H173a5,5,0,0,1,0,10Z"/><path class="cls-1" d="M173,411.35h-.79a5,5,0,0,1,0-10H173a5,5,0,0,1,0,10Z"/><path class="cls-1" d="M173,438.06h-.79a5,5,0,1,1,0-10H173a5,5,0,0,1,0,10Z"/><path class="cls-1" d="M148.71,277.81h-.78a5,5,0,0,1,0-10h.78a5,5,0,0,1,0,10Z"/><path class="cls-1" d="M148.71,304.52h-.78a5,5,0,0,1,0-10h.78a5,5,0,1,1,0,10Z"/><path class="cls-1" d="M148.71,331.23h-.78a5,5,0,0,1,0-10h.78a5,5,0,1,1,0,10Z"/><path class="cls-1" d="M148.71,357.94h-.78a5,5,0,0,1,0-10h.78a5,5,0,0,1,0,10Z"/><path class="cls-1" d="M148.71,384.65h-.78a5,5,0,1,1,0-10h.78a5,5,0,1,1,0,10Z"/><path class="cls-1" d="M148.71,411.35h-.78a5,5,0,1,1,0-10h.78a5,5,0,1,1,0,10Z"/><path class="cls-1" d="M148.71,438.06h-.78a5,5,0,0,1,0-10h.78a5,5,0,0,1,0,10Z"/><path class="cls-1" d="M124.43,277.81h-.79a5,5,0,1,1,0-10h.79a5,5,0,0,1,0,10Z"/><path class="cls-1" d="M124.43,304.52h-.79a5,5,0,1,1,0-10h.79a5,5,0,0,1,0,10Z"/><path class="cls-1" d="M124.43,331.23h-.79a5,5,0,1,1,0-10h.79a5,5,0,0,1,0,10Z"/><path class="cls-1" d="M124.43,357.94h-.79a5,5,0,1,1,0-10h.79a5,5,0,0,1,0,10Z"/><path class="cls-1" d="M124.43,384.65h-.79a5,5,0,1,1,0-10h.79a5,5,0,0,1,0,10Z"/><path class="cls-1" d="M124.43,411.35h-.79a5,5,0,1,1,0-10h.79a5,5,0,0,1,0,10Z"/><path class="cls-1" d="M124.43,438.06h-.79a5,5,0,0,1,0-10h.79a5,5,0,0,1,0,10Z"/><path class="cls-1" d="M100.14,304.52h-.78a5,5,0,0,1,0-10h.78a5,5,0,0,1,0,10Z"/><path class="cls-1" d="M100.14,331.23h-.78a5,5,0,0,1,0-10h.78a5,5,0,0,1,0,10Z"/><path class="cls-1" d="M100.14,357.94h-.78a5,5,0,0,1,0-10h.78a5,5,0,0,1,0,10Z"/><path class="cls-1" d="M100.14,384.65h-.78a5,5,0,0,1,0-10h.78a5,5,0,0,1,0,10Z"/><path class="cls-1" d="M100.14,411.35h-.78a5,5,0,0,1,0-10h.78a5,5,0,0,1,0,10Z"/><path class="cls-1" d="M75.86,331.23h-.79a5,5,0,0,1,0-10h.79a5,5,0,1,1,0,10Z"/><path class="cls-1" d="M75.86,357.94h-.79a5,5,0,0,1,0-10h.79a5,5,0,1,1,0,10Z"/><path class="cls-1" d="M75.86,384.65h-.79a5,5,0,0,1,0-10h.79a5,5,0,1,1,0,10Z"/></g></svg>