<?xml version="1.0" ?><svg viewBox="0 0 512 512" xmlns="http://www.w3.org/2000/svg"><defs><style>.cls-1{fill:#3f456b;}</style></defs><title/><g id="Lines"><path class="cls-1" d="M131,442.19a5.11,5.11,0,0,1-1.82-.35A496.39,496.39,0,0,1,48.3,401.41C30,389.92,20.36,381.89,20,381.56a5,5,0,0,1-1.77-3.47c-3.42-47.68,3.62-83.37,3.92-84.86a5,5,0,0,1,3.24-3.73,419.83,419.83,0,0,0,68.94-31c7.35-4.21,14.69-8.73,21.8-13.1,5.87-3.62,11.94-7.36,18-10.92a5,5,0,1,1,5.06,8.63c-6,3.51-12,7.22-17.84,10.8-7.17,4.42-14.59,9-22.07,13.27A427.77,427.77,0,0,1,31.42,298,351,351,0,0,0,28,375.2a299.24,299.24,0,0,0,25.82,17.87,485.83,485.83,0,0,0,79,39.46,5,5,0,0,1-1.84,9.66Z"/><path class="cls-1" d="M414.54,429.23a5,5,0,0,1-4.83-6.32c6.5-23.92,10.35-45.79,11.76-66.85,2.47-36.92-5.5-66.61-23.71-88.24-20.18-24-45.45-39.88-75.1-47.25a283.74,283.74,0,0,0-66.62-8c-29.24,0-54.09,3.61-76,11a5,5,0,0,1-3.21-9.47c22.95-7.78,48.85-11.56,79.2-11.56a294.74,294.74,0,0,1,69,8.32c31.74,7.9,58.77,24.89,80.34,50.52,19.92,23.68,28.68,55.76,26,95.35C430,378.46,426,401,419.36,425.54A5,5,0,0,1,414.54,429.23Z"/><path class="cls-1" d="M341.59,501a5,5,0,0,1-4.87-3.89c-.05-.22-4.57-20-8.56-34.42-54.2,9.94-98.21,2.95-110.88.46-3.45,6-11,20-14.62,34.08a5,5,0,0,1-4.84,3.77H149.56a5,5,0,0,1-4.38-2.6c-.47-.85-11.53-21.31-19.05-60.27a5,5,0,1,1,9.81-1.89c5.72,29.59,13.65,48.24,16.72,54.76H194c5.53-18.6,16.11-35.4,16.59-36.15a5,5,0,0,1,5.37-2.19c.51.12,51.77,11.9,114.77-.64a5,5,0,0,1,5.78,3.5c3.32,11.34,7.29,28,9.05,35.48h40.89c8.36-21.11,14.66-38.95,19.76-55.91A5,5,0,1,1,415.8,438c-5.44,18.08-12.21,37.11-21.31,59.88h0c-.56,1.42-1.9,3.16-5.14,3.16Z"/><path class="cls-1" d="M458.82,342.57c-.75,0-1.53,0-2.33-.09a18.86,18.86,0,0,1-16.1-11.14,18,18,0,0,1,1.95-18.28c1.89-2.48,5.47-5.78,11.86-7.58A28.4,28.4,0,0,0,441,303.06a32.08,32.08,0,0,0-16.05,5.31,5,5,0,0,1-5.61-8.28,42.46,42.46,0,0,1,21.18-7c11.47-.55,21.84,3.59,29,11.32,1.37.13,2.81.3,4.31.54,13,2,22.33,9.37,27.86,21.91a5,5,0,1,1-9.15,4C489,323,483.73,318,476.43,315.75c2.42,6.76,2.09,13.59-1.09,18.7C473.39,337.58,468.73,342.57,458.82,342.57Zm5.66-28.4c-6.72,0-11.72,1.71-14.18,4.94a7.86,7.86,0,0,0-.79,8.12,9,9,0,0,0,7.71,5.27c3.29.25,7.63-.13,9.63-3.33s1.37-8.73-1.57-13.73C465,315,464.76,314.58,464.48,314.17Z"/><path class="cls-1" d="M195,304.17a5,5,0,0,1-4.94-4.28c-8.16-56.16-16.79-75.63-21.42-86.09l-.42-1c-7.83-17.72-9.4-18.95-21-16.46-3.21.69-5.34,2-6.51,4-1.79,3-1.1,7.31-.68,8.72.06.21.11.45.15.66,3.52,21.92,4.38,41.47,4,52.46a5,5,0,0,1-10-.34c.36-10.47-.47-29.14-3.84-50.23-.53-2-2.23-9.57,1.7-16.28,1.81-3.09,5.55-7.11,13.08-8.72,19.67-4.2,24.36,4.24,32.29,22.2l.41.94c4.83,10.9,13.82,31.18,22.17,88.7a5,5,0,0,1-4.23,5.67A5.81,5.81,0,0,1,195,304.17Z"/><path class="cls-1" d="M323.4,220.41a5,5,0,0,1-4.18-7.73,71.89,71.89,0,1,0-121.83-2.22,5,5,0,1,1-8.56,5.16,81.89,81.89,0,1,1,138.75,2.53A5,5,0,0,1,323.4,220.41Z"/><path class="cls-1" d="M259,211.87c-16.84,0-27.93-8.47-28.32-21.71a5,5,0,1,1,10-.3c.33,11.06,13.31,12.08,18.86,12s10.72-2.19,13.51-5.41a9.17,9.17,0,0,0,2.16-7.59c-.51-3.89-2.84-6.8-12.55-8.39l-2.83-.43c-8.39-1.27-17.89-2.7-24.37-11.87a16.17,16.17,0,0,1-2.76-12.44,22.87,22.87,0,0,1,9.79-14.28c7.21-4.9,18.27-5.64,27.5-1.85a26.58,26.58,0,0,1,14.74,14.69,5,5,0,1,1-9.32,3.64,16.72,16.72,0,0,0-9.21-9.08c-6.17-2.53-13.61-2.17-18.1.88a13.06,13.06,0,0,0-5.56,7.79,6.17,6.17,0,0,0,1.09,4.88c3.82,5.41,9.21,6.47,17.69,7.75,1,.15,2,.29,2.95.45,4.71.77,19,3.11,20.86,17A19.16,19.16,0,0,1,280.61,203c-4.71,5.44-12.54,8.75-20.94,8.86Z"/><path class="cls-1" d="M259,147a5,5,0,0,1-5-5V127a5,5,0,0,1,10,0v15A5,5,0,0,1,259,147Z"/><path class="cls-1" d="M104.19,304.76a5,5,0,0,1-1.57-9.75l10.62-3.51a5,5,0,0,1,3.14,9.49l-10.62,3.51A4.79,4.79,0,0,1,104.19,304.76Z"/><path class="cls-1" d="M447.5,488a5,5,0,0,1-4.88-3.91c-.09-.39-9.36-39.63-44.21-47.44a5,5,0,0,1,.15-9.79c1.6-.31,39.24-8.06,44-47.46a5,5,0,0,1,9.89-.22,74.68,74.68,0,0,0,8.38,22.06c8.41,14.56,20.35,23.17,35.48,25.59a5,5,0,0,1,.23,9.84c-1.55.32-38.2,8.55-44.08,47.08a5,5,0,0,1-4.77,4.25Zm-32.9-56.18c17.1,8.46,26.94,23.37,32.27,34.74a64.52,64.52,0,0,1,24.29-29.31,75.28,75.28,0,0,1,8.66-5C468.44,427.08,459,418.17,452,405.94a83.53,83.53,0,0,1-4-7.91,62.36,62.36,0,0,1-23.72,28.41A73.94,73.94,0,0,1,414.6,431.82Z"/><path class="cls-1" d="M64.5,264a5,5,0,0,1-4.88-3.91c-.09-.39-9.36-39.63-44.21-47.44a5,5,0,0,1,.15-9.79c1.6-.31,39.24-8.06,44-47.46a5,5,0,0,1,9.89-.22,74.68,74.68,0,0,0,8.38,22.06c8.41,14.56,20.35,23.17,35.48,25.59a5,5,0,0,1,.23,9.84c-1.55.32-38.2,8.55-44.08,47.08A5,5,0,0,1,64.67,264ZM31.6,207.82c17.1,8.46,26.94,23.37,32.27,34.74a64.52,64.52,0,0,1,24.29-29.31,75.28,75.28,0,0,1,8.66-5C85.44,203.08,76,194.17,69,181.94A83.53,83.53,0,0,1,65,174a62.36,62.36,0,0,1-23.72,28.41A73.94,73.94,0,0,1,31.6,207.82Z"/></g><g id="Outline"><path class="cls-1" d="M281.87,63.92a5,5,0,0,1-4.9-6L283.32,27a5,5,0,1,1,9.79,2l-6.35,30.91A5,5,0,0,1,281.87,63.92Z"/><path class="cls-1" d="M405,210.22a5.05,5.05,0,0,1-1-.11l-30.91-6.35a5,5,0,1,1,2-9.79L406,200.32a5,5,0,0,1-1,9.9Z"/><path class="cls-1" d="M141.92,156.14a5,5,0,0,1-1-.11L110,149.68a5,5,0,1,1,2-9.79l30.91,6.35a5,5,0,0,1-1,9.9Z"/><path class="cls-1" d="M192.79,81a5,5,0,0,1-4.18-2.25L171.25,52.44a5,5,0,1,1,8.35-5.5L197,73.29A5,5,0,0,1,192.79,81Z"/><path class="cls-1" d="M357,114.79a5,5,0,0,1-2.75-9.18l26.35-17.36a5,5,0,1,1,5.5,8.35L359.71,114A5,5,0,0,1,357,114.79Z"/><path class="cls-1" d="M236.1,64.05A5,5,0,0,1,231.19,60l-3.38-18.11A5,5,0,0,1,237.65,40L241,58.13A5,5,0,0,1,237,64,4.86,4.86,0,0,1,236.1,64.05Z"/><path class="cls-1" d="M374.86,158.23a5,5,0,0,1-.91-9.91l18.11-3.38a5,5,0,1,1,1.83,9.83l-18.11,3.38A4.84,4.84,0,0,1,374.86,158.23Z"/><path class="cls-1" d="M159.85,113.2a5,5,0,0,1-2.82-.87l-15.2-10.42a5,5,0,0,1,5.66-8.25l15.19,10.42a5,5,0,0,1-2.83,9.12Z"/><path class="cls-1" d="M324.57,81.68a5,5,0,0,1-2.82-.87,5,5,0,0,1-1.3-7l10.42-15.19a5,5,0,0,1,8.25,5.66L328.7,79.51A5,5,0,0,1,324.57,81.68Z"/></g></svg>