<?xml version="1.0" encoding="iso-8859-1"?>
<!-- Generator: Adobe Illustrator 19.0.0, SVG Export Plug-In . SVG Version: 6.00 Build 0)  -->
<svg version="1.1" id="Capa_1" xmlns="http://www.w3.org/2000/svg" xmlns:xlink="http://www.w3.org/1999/xlink" x="0px" y="0px"
	 viewBox="0 0 512.043 512.043" style="enable-background:new 0 0 512.043 512.043;" xml:space="preserve">
<g>
	<g>
		<path d="M394.697,277.376c-64.704,0-117.333,52.629-117.333,117.333c0,32.32,13.141,61.611,34.347,82.859
			c0.043,0.043,0.043,0.128,0.085,0.171c0.256,0.256,0.555,0.427,0.811,0.661c5.099,4.992,10.603,9.557,16.533,13.568
			c0.704,0.469,1.429,0.853,2.155,1.301c5.675,3.669,11.627,6.912,17.899,9.579c0.747,0.32,1.515,0.533,2.24,0.832
			c6.379,2.539,12.992,4.608,19.861,6.016c0.427,0.085,0.853,0.107,1.259,0.192c7.168,1.365,14.549,2.155,22.123,2.155
			s14.955-0.789,22.123-2.155c0.427-0.085,0.853-0.107,1.259-0.192c6.912-1.408,13.525-3.477,19.904-6.016
			c0.747-0.299,1.515-0.512,2.261-0.832c6.272-2.645,12.245-5.909,17.899-9.579c0.704-0.448,1.451-0.832,2.155-1.301
			c5.931-4.011,11.456-8.576,16.533-13.589c0.256-0.235,0.555-0.405,0.811-0.661c0.043-0.043,0.043-0.128,0.085-0.171
			c21.205-21.205,34.325-50.517,34.325-82.837C512.03,330.005,459.401,277.376,394.697,277.376z M452.382,470.955
			c-2.261,1.707-4.48,3.413-6.869,4.864c-1.899,1.195-3.968,2.176-5.952,3.243c-27.733,14.229-61.973,14.229-89.707,0
			c-2.005-1.067-4.053-2.027-5.952-3.243c-2.389-1.451-4.608-3.179-6.848-4.864c-1.685-1.28-3.285-2.645-4.885-4.032
			c11.285-24.32,35.563-40.235,62.549-40.235c26.987,0,51.264,15.915,62.549,40.235
			C455.667,468.309,454.067,469.675,452.382,470.955z M362.697,373.376c0-17.643,14.357-32,32-32s32,14.357,32,32s-14.357,32-32,32
			S362.697,391.019,362.697,373.376z M472.478,450.517c-9.856-16.917-24.768-29.952-42.389-37.547
			c10.923-9.792,17.941-23.829,17.941-39.595c0-29.397-23.936-53.333-53.333-53.333s-53.333,23.936-53.333,53.333
			c0,15.765,7.019,29.803,17.941,39.573c-17.621,7.595-32.533,20.629-42.389,37.547c-11.349-15.744-18.219-34.923-18.219-55.787
			c0-52.928,43.072-96,96-96c52.928,0,96,43.072,96,96C490.697,415.573,483.827,434.752,472.478,450.517z"/>
	</g>
</g>
<g>
	<g>
		<path d="M494.537,273.408L447.859,8.853c-1.024-5.76-6.507-9.685-12.245-8.661l-133.76,22.293L32.905,0.064
			c-2.859-0.341-5.717,0.704-7.893,2.581c-2.176,1.899-3.499,4.587-3.648,7.467l-21.333,384c-0.32,5.653,3.84,10.581,9.472,11.2
			l93.205,10.368l4.16,23.552c0.917,5.163,5.419,8.811,10.496,8.811c0.576,0,1.152-0.043,1.707-0.149l129.664-21.611
			c5.803-0.96,9.728-6.464,8.768-12.267c-0.96-5.803-6.464-9.792-12.267-8.768l-119.232,19.861L65.715,83.456l362.965-60.48
			l44.864,254.144c1.003,5.803,6.485,9.728,12.352,8.64C491.699,284.736,495.561,279.211,494.537,273.408z M51.614,64.192
			c-2.816,0.469-5.312,2.069-6.955,4.373s-2.283,5.205-1.792,8l55.979,317.205l-76.928-8.555l20.16-362.965l174.123,14.507
			L51.614,64.192z"/>
	</g>
</g>
<g>
</g>
<g>
</g>
<g>
</g>
<g>
</g>
<g>
</g>
<g>
</g>
<g>
</g>
<g>
</g>
<g>
</g>
<g>
</g>
<g>
</g>
<g>
</g>
<g>
</g>
<g>
</g>
<g>
</g>
</svg>
