<?xml version="1.0" ?><svg viewBox="0 0 512 512" xmlns="http://www.w3.org/2000/svg"><defs><style>.cls-1{fill:#3f456b;}</style></defs><title/><g id="Lines"><path class="cls-1" d="M161,333.75a5,5,0,0,1-3.39-1.33A145,145,0,0,1,111,225.72V182.47a147,147,0,0,1,1.37-20,5,5,0,1,1,9.9,1.36A138.21,138.21,0,0,0,121,182.47v43.25a135,135,0,0,0,43.4,99.36,5,5,0,0,1-3.4,8.67Z"/><path class="cls-1" d="M256,370.94a144.77,144.77,0,0,1-74.4-20.51,5,5,0,0,1,5.14-8.58A135.24,135.24,0,0,0,323.31,343a5,5,0,1,1,5,8.67A145.07,145.07,0,0,1,256,370.94Z"/><path class="cls-1" d="M354.84,330.17a5,5,0,0,1-3.53-8.54,136.72,136.72,0,0,0,17.87-21.92,134.83,134.83,0,0,0,22-74l-.09-43.24c0-74.57-60.57-135.23-135-135.23a134.08,134.08,0,0,0-107.31,53.08,5,5,0,1,1-7.95-6.07A144,144,0,0,1,256,37.25c80,0,145,65.15,145,145.22l.09,43.24a145,145,0,0,1-42.79,103A5,5,0,0,1,354.84,330.17Z"/><path class="cls-1" d="M394.11,164.5H171a5,5,0,0,1,0-10H394.11a5,5,0,0,1,0,10Z"/><path class="cls-1" d="M174.51,330.17a5,5,0,0,1-4.42-2.65c-25.51-47.94-26.54-113.37-24.89-148.1a5,5,0,0,1,10,.48c-3.74,78.53,13.26,123.25,23.73,142.92a5,5,0,0,1-4.41,7.35Z"/><path class="cls-1" d="M343.46,318.07a5.05,5.05,0,0,1-2-.4,5,5,0,0,1-2.64-6.56c26.83-63,16.77-150.14,16.67-151a5,5,0,0,1,9.93-1.2c.44,3.68,10.46,90.66-17.4,156.13A5,5,0,0,1,343.46,318.07Z"/><path class="cls-1" d="M207.33,224.33c-15.6,0-19.57-8.8-20-9.81l9.28-3.71a1.21,1.21,0,0,0-.09-.22c.08.15,2.08,3.74,10.78,3.74,9.26,0,12.36-4.19,12.38-4.24a5,5,0,0,1,8.58,5.15C227.73,216.17,222.4,224.33,207.33,224.33Z"/><path class="cls-1" d="M305.33,224.33c-15.6,0-19.57-8.8-20-9.81l9.28-3.71a1.21,1.21,0,0,0-.09-.22c.08.15,2.08,3.74,10.78,3.74,9.26,0,12.36-4.19,12.38-4.24a5,5,0,0,1,8.58,5.15C325.73,216.17,320.4,224.33,305.33,224.33Z"/><path class="cls-1" d="M260.76,501.78c-33.88,0-66.07-6.22-95.65-18.48A242.12,242.12,0,0,1,99,442.21a5,5,0,1,1,6.56-7.55,232.14,232.14,0,0,0,63.34,39.4c28.36,11.76,59.26,17.72,91.82,17.72a5,5,0,0,1,0,10Z"/><path class="cls-1" d="M73,413.37a5,5,0,0,1-3.87-1.82c-15.41-18.71-22.64-32.85-22.94-33.44a5,5,0,0,1,1.26-6.1l87.92-73.4a5,5,0,0,1,6.41,7.68L57.07,377a213.77,213.77,0,0,0,19.82,28.15,5,5,0,0,1-.68,7A4.94,4.94,0,0,1,73,413.37Z"/><path class="cls-1" d="M439.86,416a5,5,0,0,1-4-8.05,191.93,191.93,0,0,0,19.21-30.15l-84.57-72a5,5,0,0,1,6.49-7.62l87.48,74.53a5,5,0,0,1,1.36,5.78c-.28.64-6.89,15.85-22,35.58A5,5,0,0,1,439.86,416Z"/><path class="cls-1" d="M260.76,501.78a5,5,0,0,1,0-10c57.23,0,106.49-17.85,146.4-53.06a5,5,0,0,1,6.62,7.5C372,483.09,320.5,501.78,260.76,501.78Z"/><path class="cls-1" d="M142.19,187.5a15,15,0,0,1-10.61-4.39L43.19,94.73a15,15,0,0,1,0-21.22L74.31,42.4a15,15,0,0,1,21.21,0l88.39,88.39a15,15,0,0,1,0,21.21l-31.12,31.11A14.91,14.91,0,0,1,142.19,187.5ZM84.91,48a5,5,0,0,0-3.53,1.46L50.26,80.58a5,5,0,0,0,0,7.08L138.65,176a5,5,0,0,0,7.07,0l31.12-31.11a5,5,0,0,0,0-7.07L88.45,49.47A5,5,0,0,0,84.91,48Z"/><path class="cls-1" d="M16.32,65.79a5,5,0,0,1-3.53-8.54L58,12a5,5,0,1,1,7.07,7.07L19.86,64.32A5,5,0,0,1,16.32,65.79Z"/><path class="cls-1" d="M84.91,134.37a5,5,0,0,1-3.53-8.53l45.25-45.26a5,5,0,0,1,7.07,7.07L88.45,132.91A5,5,0,0,1,84.91,134.37Z"/><path class="cls-1" d="M190.9,195.1a5,5,0,0,1-3.54-1.46l-26.08-26.08a5,5,0,0,1,7.07-7.07l26.08,26.08a5,5,0,0,1,0,7.07A4.94,4.94,0,0,1,190.9,195.1Z"/><path class="cls-1" d="M107.54,111.75a5,5,0,0,1-3.54-1.47L35.42,41.69a5,5,0,0,1,7.07-7.07l68.59,68.59a5,5,0,0,1-3.54,8.54Z"/><path class="cls-1" d="M441.14,421l-26-26.54-19.53,19.07c-6.85,6.7-15.44,3.73-19.54.1l-.26-.25L336.37,373c-16.55-16.94-18.25-32.69-16.76-42.92a41.21,41.21,0,0,1,7.55-18.56,13.28,13.28,0,0,1,9.13-5.15c2.78-.21,7.06.5,11.61,5.16,7.74,7.93,99.46,101.53,100.39,102.47ZM382.8,406.25c1.24,1,3.61,2.32,5.82.16l19.52-19.06c-27.43-28-62.72-64-67.39-68.8-1.42-1.46-2.75-2.25-3.68-2.18a3.48,3.48,0,0,0-1.87,1.12l-.21.28c-.7.87-17.1,22,8.54,48.28Z"/><path class="cls-1" d="M467.48,498.86a15,15,0,0,1-10.6-4.39L406,443.56a15,15,0,0,1,0-21.22l14.85-14.84a15,15,0,0,1,21.22,0l50.91,50.91a15,15,0,0,1,0,21.21l-14.85,14.85A15,15,0,0,1,467.48,498.86ZM431.42,413.1a5,5,0,0,0-3.54,1.47L413,429.42a5,5,0,0,0,0,7.07L464,487.4a5,5,0,0,0,7.07,0l14.85-14.85a5,5,0,0,0,0-7.07L435,414.57A5,5,0,0,0,431.42,413.1Z"/><path class="cls-1" d="M422.71,277h-34a5,5,0,0,1,0-10h34a5,5,0,1,1,0,10Z"/><path class="cls-1" d="M497,277H475.83a5,5,0,1,1,0-10H492V21H261V42.25a5,5,0,0,1-10,0V16a5,5,0,0,1,5-5H497a5,5,0,0,1,5,5V272A5,5,0,0,1,497,277Z"/><path class="cls-1" d="M256,418a5,5,0,0,1-5-5V366a5,5,0,0,1,10,0v47A5,5,0,0,1,256,418Z"/><path class="cls-1" d="M41.64,500A14.94,14.94,0,0,1,31,495.58L16.19,480.73a15,15,0,0,1,0-21.22L144.5,331.21a4.9,4.9,0,0,1,1.95-1.21L191,315.15a5,5,0,0,1,6.29,6.41L181.74,365.4a5.08,5.08,0,0,1-1.18,1.87L52.25,495.58A15,15,0,0,1,41.64,500ZM150.73,339.11,23.26,466.58a5,5,0,0,0,0,7.08l14.85,14.85a5,5,0,0,0,7.07,0L172.69,361l11.75-33.12ZM177,363.73h0Z"/><path class="cls-1" d="M177,368.73a5,5,0,0,1-3.53-1.46l-29-29a5,5,0,0,1,7.07-7.07l29,29a5,5,0,0,1-3.54,8.53Z"/><path class="cls-1" d="M128.94,416.82a5,5,0,0,1-3.53-1.47l-29-29a5,5,0,0,1,7.07-7.07l29,29a5,5,0,0,1-3.54,8.54Z"/><path class="cls-1" d="M475,308H423a5,5,0,0,1-5-5V62a5,5,0,0,1,5-5h52a5,5,0,0,1,5,5V303A5,5,0,0,1,475,308Zm-47-10h42V67H428Z"/><path class="cls-1" d="M98.29,340H48a5,5,0,0,1-5-5V175a5,5,0,0,1,5-5h67a5,5,0,0,1,0,10H53V330H98.29a5,5,0,1,1,0,10Z"/><path class="cls-1" d="M394.11,258.32a5,5,0,0,1-.26-10c13.38-.71,23.86-11.46,23.86-24.49a24,24,0,0,0-7.7-17.63l-.12-.11a29.46,29.46,0,0,0-11-5.95,5,5,0,1,1,3-9.55,38.47,38.47,0,0,1,15,8.36,33.89,33.89,0,0,1,10.81,24.88c0,18.35-14.64,33.49-33.34,34.47Z"/><path class="cls-1" d="M118,258.17a3.64,3.64,0,0,1-.57,0,34.74,34.74,0,0,1-31.17-34.29A33.91,33.91,0,0,1,97,199a38.47,38.47,0,0,1,15-8.36,5,5,0,1,1,3,9.55,29.42,29.42,0,0,0-11,6l-.1.09a24,24,0,0,0-7.7,17.63,24.77,24.77,0,0,0,22.3,24.36,5,5,0,0,1-.56,10Z"/></g><g id="Outline"><path class="cls-1" d="M248.23,339.73l-.37,0c-1.76-.13-3.51-.3-5.22-.51a5,5,0,1,1,1.23-9.92c1.54.19,3.12.34,4.72.46a5,5,0,0,1-.36,10Zm20-.38a5,5,0,0,1-.54-10c1.58-.17,3.16-.38,4.71-.63a5,5,0,0,1,1.58,9.87c-1.71.28-3.46.51-5.2.7Zm-44.29-4.88a5.1,5.1,0,0,1-1.82-.34c-1.67-.66-3.33-1.38-4.93-2.14a5,5,0,0,1,4.33-9c1.37.66,2.8,1.28,4.24,1.84a5,5,0,0,1-1.82,9.66Zm68.48-1.09a5,5,0,0,1-1.9-9.63c1.45-.59,2.88-1.23,4.26-1.91a5,5,0,0,1,4.39,9c-1.58.77-3.21,1.5-4.86,2.18A5,5,0,0,1,292.37,333.38Zm-89.24-12.47a5,5,0,0,1-3.65-1.59,31.49,31.49,0,0,1-3.75-4.72,5,5,0,0,1,8.52-5.23,24.35,24.35,0,0,0,2.54,3.13,5,5,0,0,1-3.66,8.41Zm110.22-.86a5,5,0,0,1-3.48-8.59,32.86,32.86,0,0,0,2.92-3.18,5,5,0,1,1,7.88,6.16,43.9,43.9,0,0,1-3.84,4.2A5,5,0,0,1,313.35,320.05Z"/><path class="cls-1" d="M210.69,250.91a5,5,0,0,1-.39-10,39.75,39.75,0,0,0,4.37-.62,5,5,0,1,1,2,9.8,49,49,0,0,1-5.54.79Zm-19.89-.48a4.92,4.92,0,0,1-1.07-.11,43.92,43.92,0,0,1-5.44-1.55,5,5,0,0,1,3.4-9.41,34.18,34.18,0,0,0,4.16,1.19,5,5,0,0,1-1,9.88Zm42.86-8.5a5,5,0,0,1-3.2-8.85,28.67,28.67,0,0,0,3.08-3,5,5,0,1,1,7.43,6.69,37.85,37.85,0,0,1-4.13,4A5,5,0,0,1,233.66,241.93Zm-62.76-5.3a5,5,0,0,1-4.38-2.59,23.64,23.64,0,0,1-2.41-6,5,5,0,0,1,9.77-2.17,14.68,14.68,0,0,0,1.4,3.33,5,5,0,0,1-4.38,7.41Z"/><path class="cls-1" d="M301.31,250.91h-.41a49,49,0,0,1-5.54-.79,5,5,0,1,1,2-9.8,39.75,39.75,0,0,0,4.37.62,5,5,0,0,1-.39,10Zm19.89-.48a5,5,0,0,1-1.05-9.88,34.18,34.18,0,0,0,4.16-1.19,5,5,0,0,1,3.4,9.41,43.92,43.92,0,0,1-5.44,1.55A4.92,4.92,0,0,1,321.2,250.43Zm-42.86-8.5a5,5,0,0,1-3.18-1.14,37.85,37.85,0,0,1-4.13-4,5,5,0,0,1,7.43-6.69,28.67,28.67,0,0,0,3.08,3,5,5,0,0,1-3.2,8.85Zm62.76-5.3a5,5,0,0,1-4.38-7.41,15.72,15.72,0,0,0,1.41-3.33,5,5,0,0,1,5.94-3.8,5,5,0,0,1,3.82,6,23.64,23.64,0,0,1-2.41,6A5,5,0,0,1,341.1,236.63Z"/><path class="cls-1" d="M102,83.44a5,5,0,0,1-3.54-8.54l10.61-10.6a5,5,0,0,1,7.07,7.07L105.52,82A5,5,0,0,1,102,83.44Z"/><path class="cls-1" d="M136.84,118.3a5,5,0,0,1-3.53-1.47,5,5,0,0,1,0-7.07l10.61-10.6a5,5,0,0,1,7.07,7.07l-10.61,10.6A5,5,0,0,1,136.84,118.3Z"/><path class="cls-1" d="M154.27,135.73a5,5,0,0,1-3.53-8.54l10.6-10.61a5,5,0,0,1,7.07,7.07l-10.6,10.61A5,5,0,0,1,154.27,135.73Z"/><path class="cls-1" d="M440.09,98.54h-15a5,5,0,0,1,0-10h15a5,5,0,0,1,0,10Z"/><path class="cls-1" d="M448.09,128.31h-23a5,5,0,0,1,0-10h23a5,5,0,0,1,0,10Z"/><path class="cls-1" d="M440.09,158.08h-15a5,5,0,0,1,0-10h15a5,5,0,0,1,0,10Z"/><path class="cls-1" d="M448.09,187.85h-23a5,5,0,0,1,0-10h23a5,5,0,0,1,0,10Z"/><path class="cls-1" d="M440.09,217.62h-15a5,5,0,0,1,0-10h15a5,5,0,1,1,0,10Z"/><path class="cls-1" d="M448.09,247.39h-23a5,5,0,0,1,0-10h23a5,5,0,1,1,0,10Z"/><path class="cls-1" d="M440.09,277.16h-15a5,5,0,0,1,0-10h15a5,5,0,0,1,0,10Z"/><path class="cls-1" d="M399.48,98.81a5,5,0,0,1-4.65-3.16c-.58-1.45-1.2-2.91-1.86-4.33a5,5,0,1,1,9.07-4.2c.74,1.58,1.44,3.21,2.09,4.84a5,5,0,0,1-4.65,6.85ZM387.2,77.13a5,5,0,0,1-4-2c-.94-1.24-1.94-2.48-3-3.69A5,5,0,0,1,387.89,65c1.14,1.35,2.25,2.73,3.29,4.1a5,5,0,0,1-1,7A4.94,4.94,0,0,1,387.2,77.13ZM369.74,59.31a5,5,0,0,1-3.13-1.1c-1.23-1-2.5-2-3.79-2.9a5,5,0,0,1,5.9-8.08c1.41,1,2.8,2.1,4.15,3.18a5,5,0,0,1-3.13,8.9ZM348.6,46a4.94,4.94,0,0,1-2.13-.49c-2.59-1.23-4.17-1.81-4.19-1.81a5,5,0,0,1,3.43-9.4c.08,0,2,.73,5,2.18A5,5,0,0,1,348.6,46Z"/></g></svg>