<?xml version="1.0" ?><svg id="Lines" viewBox="0 0 512 512" xmlns="http://www.w3.org/2000/svg"><defs><style>.cls-1{fill:#3f456b;}</style></defs><title/><path class="cls-1" d="M22,122a5,5,0,0,1-5-5V20a5,5,0,0,1,5-5h97a5,5,0,0,1,0,10H27v92A5,5,0,0,1,22,122Z"/><path class="cls-1" d="M471,122a5,5,0,0,1-5-5V25H374a5,5,0,0,1,0-10h97a5,5,0,0,1,5,5v97A5,5,0,0,1,471,122Z"/><path class="cls-1" d="M471,473H374a5,5,0,0,1,0-10h92V371a5,5,0,0,1,10,0v97A5,5,0,0,1,471,473Z"/><path class="cls-1" d="M119,473H22a5,5,0,0,1-5-5V371a5,5,0,0,1,10,0v92h92a5,5,0,0,1,0,10Z"/><path class="cls-1" d="M368,165H330a5,5,0,0,1-5-5V123a5,5,0,0,1,5-5h38a5,5,0,0,1,5,5v37A5,5,0,0,1,368,165Zm-33-10h28V128H335Z"/><path class="cls-1" d="M163,165H126a5,5,0,0,1-5-5V123a5,5,0,0,1,5-5h37a5,5,0,0,1,5,5v37A5,5,0,0,1,163,165Zm-32-10h27V128H131Z"/><path class="cls-1" d="M368,369H330a5,5,0,0,1-5-5V327a5,5,0,0,1,5-5h38a5,5,0,0,1,5,5v37A5,5,0,0,1,368,369Zm-33-10h28V332H335Z"/><path class="cls-1" d="M163,369H126a5,5,0,0,1-5-5V327a5,5,0,0,1,5-5h37a5,5,0,0,1,5,5v37A5,5,0,0,1,163,369Zm-32-10h27V332H131Z"/><path class="cls-1" d="M407,207H289a5,5,0,0,1-5-5V84a5,5,0,0,1,5-5H407a5,5,0,0,1,5,5V202A5,5,0,0,1,407,207ZM294,197H402V89H294Z"/><path class="cls-1" d="M407,409H289a5,5,0,0,1-5-5V285a5,5,0,0,1,5-5H407a5,5,0,0,1,5,5V404A5,5,0,0,1,407,409ZM294,399H402V290H294Z"/><path class="cls-1" d="M204,207H85a5,5,0,0,1-5-5V84a5,5,0,0,1,5-5H204a5,5,0,0,1,5,5V202A5,5,0,0,1,204,207ZM90,197H199V89H90Z"/><path class="cls-1" d="M204,409H85a5,5,0,0,1-5-5V285a5,5,0,0,1,5-5H204a5,5,0,0,1,5,5V404A5,5,0,0,1,204,409ZM90,399H199V290H90Z"/><path class="cls-1" d="M232,148a5,5,0,0,1-5-5V84a5,5,0,0,1,5-5h28a5,5,0,0,1,0,10H237v54A5,5,0,0,1,232,148Z"/><path class="cls-1" d="M260,215a5,5,0,0,1-5-5V107a5,5,0,0,1,10,0V210A5,5,0,0,1,260,215Z"/><path class="cls-1" d="M209,264H175a5,5,0,0,1-5-5V235H85a5,5,0,0,1,0-10h90a5,5,0,0,1,5,5v24h29a5,5,0,0,1,0,10Z"/><path class="cls-1" d="M151,264H85a5,5,0,0,1,0-10h66a5,5,0,0,1,0,10Z"/><path class="cls-1" d="M262,264H232a5,5,0,0,1,0-10h30a5,5,0,0,1,0,10Z"/><path class="cls-1" d="M232,409H204a5,5,0,0,1,0-10h23V288a5,5,0,0,1,10,0V404A5,5,0,0,1,232,409Z"/><path class="cls-1" d="M289,235H232a5,5,0,0,1-5-5V166a5,5,0,0,1,10,0v59h52a5,5,0,0,1,0,10Z"/><path class="cls-1" d="M407,264a5,5,0,0,1-5-5V235H333a5,5,0,0,1,0-10h74a5,5,0,0,1,5,5v29A5,5,0,0,1,407,264Z"/><path class="cls-1" d="M378,264H289a5,5,0,0,1,0-10h89a5,5,0,0,1,0,10Z"/><path class="cls-1" d="M260,342a5,5,0,0,1-5-5V288a5,5,0,0,1,10,0v49A5,5,0,0,1,260,342Z"/><path class="cls-1" d="M260,382a5,5,0,0,1-5-5V359a5,5,0,0,1,10,0v18A5,5,0,0,1,260,382Z"/><path class="cls-1" d="M209,235h-7a5,5,0,0,1,0-10h7a5,5,0,0,1,0,10Z"/><path class="cls-1" d="M315,235h-7a5,5,0,0,1,0-10h7a5,5,0,0,1,0,10Z"/><path class="cls-1" d="M260,409a5,5,0,0,1-5-5v-7a5,5,0,0,1,10,0v7A5,5,0,0,1,260,409Z"/></svg>