<?xml version="1.0" ?><svg viewBox="0 0 512 512" xmlns="http://www.w3.org/2000/svg"><defs><style>.cls-1{fill:#3f456b;}.cls-2{opacity:0.5;}</style></defs><title/><g id="Lines"><path class="cls-1" d="M459,432a5,5,0,0,1,5-5h0a5,5,0,0,1,5,5h0a5,5,0,0,1-5,5h0A5,5,0,0,1,459,432Z"/><path class="cls-1" d="M41,432a5,5,0,0,1,5-5h0a5,5,0,0,1,5,5h0a5,5,0,0,1-5,5h0A5,5,0,0,1,41,432Z"/><path class="cls-1" d="M463.69,467H48.31A37.36,37.36,0,0,1,11,429.69V143.31A37.36,37.36,0,0,1,48.31,106H463.69A37.36,37.36,0,0,1,501,143.31V429.69A37.36,37.36,0,0,1,463.69,467ZM48.31,116A27.34,27.34,0,0,0,21,143.31V429.69A27.34,27.34,0,0,0,48.31,457H463.69A27.34,27.34,0,0,0,491,429.69V143.31A27.34,27.34,0,0,0,463.69,116Z"/><path class="cls-1" d="M367.23,186a25.75,25.75,0,0,1-9.21-1.66,23.27,23.27,0,0,1-9.72-6.84,5,5,0,0,1,7.92-6.12c.72.89,6.42,7.3,18,3.4a29.55,29.55,0,0,1-6.27-9.7,19.56,19.56,0,0,1,.43-15.13,15.11,15.11,0,0,1,9.07-8.09c8.88-2.84,17.18.66,20.64,8.72a21.15,21.15,0,0,1-.1,16.09,25.73,25.73,0,0,1-3.71,6.41c.34,0,.69,0,1.05,0,5.81-.38,11.62-2.57,17.78-4.89,10.23-3.85,20.81-7.84,32.69-4a33.56,33.56,0,0,1,13.93,9.51,5,5,0,1,1-7.52,6.58,23.78,23.78,0,0,0-9.5-6.57c-8.54-2.78-17.06.43-26.08,3.83-6.57,2.48-13.36,5-20.66,5.51a28.12,28.12,0,0,1-11.79-1.73C377.64,184.85,371.94,186,367.23,186Zm16.31-35.13a9.93,9.93,0,0,0-3,.52,5,5,0,0,0-3.06,2.83,9.51,9.51,0,0,0-.2,7.15,19,19,0,0,0,6.37,8.37c5.69-4.75,7.12-11,5.31-15.21A5.58,5.58,0,0,0,383.54,150.91Z"/><path class="cls-1" d="M192.25,435.25c-82,0-148.75-66.73-148.75-148.75s66.73-148.75,148.75-148.75S341,204.48,341,286.5,274.27,435.25,192.25,435.25Zm0-287.5C115.74,147.75,53.5,210,53.5,286.5s62.24,138.75,138.75,138.75S331,363,331,286.5,268.76,147.75,192.25,147.75Z"/><path class="cls-1" d="M448,501a5,5,0,0,1-5-5V463a5,5,0,0,1,10,0v33A5,5,0,0,1,448,501Z"/><path class="cls-1" d="M64,501a5,5,0,0,1-5-5V463a5,5,0,0,1,10,0v33A5,5,0,0,1,64,501Z"/><path class="cls-1" d="M448,489H64a5,5,0,0,1,0-10H448a5,5,0,0,1,0,10Z"/></g><g id="Outline"><g class="cls-2"><path class="cls-1" d="M194.05,90a5,5,0,0,1-3.15-8.88c.09-.08,8.68-9.2-1.27-23.35-10.52-15-4.18-29.41.65-35a5,5,0,0,1,7.57,6.54,19.25,19.25,0,0,0-3.39,6.95c-1.37,5.31-.25,10.6,3.35,15.72,12.17,17.31,4.68,32.56-.6,36.86A5,5,0,0,1,194.05,90Z"/><path class="cls-1" d="M132.2,90A5,5,0,0,1,129,81.12c.09-.08,8.68-9.2-1.27-23.35-10.52-15-4.18-29.41.65-35A5,5,0,0,1,136,29.35a19.17,19.17,0,0,0-3.39,6.95c-1.37,5.31-.25,10.6,3.35,15.72,12.17,17.31,4.68,32.56-.6,36.86A5,5,0,0,1,132.2,90Z"/><path class="cls-1" d="M255.91,90a5,5,0,0,1-3.16-8.88c.09-.08,8.69-9.2-1.27-23.35-10.51-15-4.17-29.41.66-35a5,5,0,0,1,7.56,6.54,19.43,19.43,0,0,0-3.38,6.95c-1.38,5.31-.25,10.6,3.34,15.72,12.18,17.31,4.69,32.56-.6,36.86A5,5,0,0,1,255.91,90Z"/></g><g class="cls-2"><path class="cls-1" d="M318.05,90a5,5,0,0,1-3.15-8.88c.09-.08,8.68-9.2-1.27-23.35-10.52-15-4.18-29.41.65-35a5,5,0,0,1,7.57,6.54,19.25,19.25,0,0,0-3.39,6.95c-1.37,5.31-.25,10.6,3.35,15.72,12.17,17.31,4.68,32.56-.6,36.86A5,5,0,0,1,318.05,90Z"/><path class="cls-1" d="M379.91,90a5,5,0,0,1-3.16-8.88c.09-.08,8.69-9.2-1.27-23.35-10.51-15-4.17-29.41.66-35a5,5,0,0,1,7.56,6.54,19.43,19.43,0,0,0-3.38,6.95c-1.38,5.31-.25,10.6,3.34,15.72,12.18,17.31,4.69,32.56-.6,36.86A5,5,0,0,1,379.91,90Z"/></g><path class="cls-1" d="M336,294H51a5,5,0,0,1,0-10H336a5,5,0,0,1,0,10Z"/><path class="cls-1" d="M327,243H58a5,5,0,0,1,0-10H327a5,5,0,0,1,0,10Z"/><path class="cls-1" d="M331,268H51a5,5,0,0,1,0-10H331a5,5,0,0,1,0,10Z"/><path class="cls-1" d="M328,319H55a5,5,0,0,1,0-10H328a5,5,0,0,1,0,10Z"/><path class="cls-1" d="M316,218H70a5,5,0,0,1,0-10H316a5,5,0,0,1,0,10Z"/><path class="cls-1" d="M295,193H88a5,5,0,0,1,0-10H295a5,5,0,0,1,0,10Z"/><path class="cls-1" d="M263,168H119a5,5,0,0,1,0-10H263a5,5,0,0,1,0,10Z"/><path class="cls-1" d="M326,344H60a5,5,0,0,1,0-10H326a5,5,0,0,1,0,10Z"/><path class="cls-1" d="M311,369H73a5,5,0,0,1,0-10H311a5,5,0,0,1,0,10Z"/><path class="cls-1" d="M291,394H98a5,5,0,0,1,0-10H291a5,5,0,0,1,0,10Z"/><path class="cls-1" d="M256,419H126a5,5,0,0,1,0-10H256a5,5,0,0,1,0,10Z"/></g></svg>