<?xml version="1.0" ?><svg id="Lines" viewBox="0 0 512 512" xmlns="http://www.w3.org/2000/svg"><defs><style>.cls-1{fill:#3f456b;}</style></defs><title/><path class="cls-1" d="M179.61,386.44H78.48c-15.84,0-28.74-5-38.33-14.85-17.95-18.43-17.67-47.22-17.62-49.28v-206a105.73,105.73,0,0,1,211.46.2V322.1a84.69,84.69,0,0,1-2.65,23.61c-4.45,17.15-14,29.51-27.58,35.73h0A57.52,57.52,0,0,1,179.61,386.44Zm22.06-9.54h0ZM128.26,20.65a95.79,95.79,0,0,0-95.73,95.63V322.37a.53.53,0,0,1,0,.13c0,.26-.45,26.5,14.83,42.16,7.64,7.82,18.11,11.78,31.13,11.78H179.61a47.58,47.58,0,0,0,20-4.09h0c26.26-12,24.43-49.45,24.41-49.82,0-.1,0-.2,0-.3V116.48A95.89,95.89,0,0,0,128.26,20.65Z"/><path class="cls-1" d="M127.47,499.89h0a22.57,22.57,0,0,1-16.16-6.73A22.88,22.88,0,0,1,104.69,477V381.44a5,5,0,0,1,10,0V477a13,13,0,0,0,3.73,9.16,12.67,12.67,0,0,0,9,3.76h0a12.64,12.64,0,0,0,9-3.76,12.93,12.93,0,0,0,3.73-9.16V383a5,5,0,0,1,10,0v94a22.88,22.88,0,0,1-6.62,16.19A22.55,22.55,0,0,1,127.47,499.89Z"/><path class="cls-1" d="M87.5,337.67a25,25,0,0,1-25-25V108.25a25,25,0,0,1,50,0V312.67A25,25,0,0,1,87.5,337.67Zm0-244.42a15,15,0,0,0-15,15V312.67a15,15,0,0,0,30,0V108.25A15,15,0,0,0,87.5,93.25Z"/><path class="cls-1" d="M168,337.67a25,25,0,0,1-25-25V108.25a25,25,0,0,1,50,0V312.67A25,25,0,0,1,168,337.67Zm0-244.42a15,15,0,0,0-15,15V312.67a15,15,0,0,0,30,0V108.25A15,15,0,0,0,168,93.25Z"/><path class="cls-1" d="M435.61,386.44H334.48c-15.84,0-28.74-5-38.33-14.85-17.95-18.43-17.67-47.22-17.62-49.28v-206a105.73,105.73,0,0,1,211.46.2V322.1a84.69,84.69,0,0,1-2.65,23.61c-4.45,17.15-14,29.51-27.58,35.73h0A57.52,57.52,0,0,1,435.61,386.44Zm22.06-9.54h0ZM384.26,20.65a95.79,95.79,0,0,0-95.73,95.63V322.37a.53.53,0,0,1,0,.13c0,.26-.45,26.5,14.83,42.16,7.64,7.82,18.11,11.78,31.13,11.78H435.61a47.58,47.58,0,0,0,20-4.09h0c26.26-12,24.43-49.45,24.41-49.82,0-.1,0-.2,0-.3V116.48A95.89,95.89,0,0,0,384.26,20.65Z"/><path class="cls-1" d="M383.47,499.89h0a22.57,22.57,0,0,1-16.16-6.73A22.88,22.88,0,0,1,360.69,477V381.44a5,5,0,0,1,10,0V477a13,13,0,0,0,3.73,9.16,12.67,12.67,0,0,0,9.05,3.76h0a12.64,12.64,0,0,0,9-3.76,12.93,12.93,0,0,0,3.73-9.16V383a5,5,0,0,1,10,0v94a22.88,22.88,0,0,1-6.62,16.19A22.55,22.55,0,0,1,383.47,499.89Z"/><path class="cls-1" d="M343.5,337.67a25,25,0,0,1-25-25V108.25a25,25,0,0,1,50,0V312.67A25,25,0,0,1,343.5,337.67Zm0-244.42a15,15,0,0,0-15,15V312.67a15,15,0,1,0,30,0V108.25A15,15,0,0,0,343.5,93.25Z"/><path class="cls-1" d="M424,337.67a25,25,0,0,1-25-25V108.25a25,25,0,0,1,50,0V312.67A25,25,0,0,1,424,337.67Zm0-244.42a15,15,0,0,0-15,15V312.67a15,15,0,1,0,30,0V108.25A15,15,0,0,0,424,93.25Z"/></svg>