<?xml version="1.0" ?><svg enable-background="new 0 0 512 512" version="1.1" viewBox="0 0 512 512" xml:space="preserve" xmlns="http://www.w3.org/2000/svg" xmlns:xlink="http://www.w3.org/1999/xlink"><g id="Colors"><g><g><g><g><path d="M354.331,294.201c-2.754,0-4.99-2.228-5-4.983c-0.01-2.761,2.222-5.007,4.983-5.017l11.726-0.04       c0.005,0,0.012,0,0.017,0c2.754,0,4.99,2.228,5,4.983c0.01,2.761-2.222,5.007-4.983,5.017l-11.726,0.04       C354.343,294.201,354.336,294.201,354.331,294.201z" fill="#384169"/></g></g><g><g><path d="M437.068,293.939c-2.749,0-4.984-2.222-4.999-4.975c-0.015-2.761,2.213-5.011,4.975-5.025l10.582-0.055       c0.009,0,0.018,0,0.026,0c2.749,0,4.984,2.222,4.999,4.975c0.015,2.761-2.213,5.011-4.975,5.025l-10.582,0.055       C437.086,293.939,437.077,293.939,437.068,293.939z" fill="#384169"/></g></g></g><g><g><g><path d="M432.318,275.597c-1.723,0-3.398-0.891-4.327-2.486c-1.388-2.388-0.579-5.448,1.808-6.837l9.328-5.427       c2.387-1.39,5.447-0.58,6.837,1.808c1.388,2.388,0.579,5.448-1.808,6.837l-9.328,5.427       C434.037,275.378,433.172,275.597,432.318,275.597z" fill="#384169"/></g></g></g><g><g><g><path d="M418.88,262.825c-0.843,0-1.697-0.214-2.48-0.663c-2.396-1.372-3.226-4.428-1.853-6.823l5.572-9.726       c1.37-2.396,4.428-3.228,6.823-1.853c2.396,1.372,3.226,4.428,1.853,6.823l-5.572,9.726       C422.3,261.922,420.614,262.825,418.88,262.825z" fill="#384169"/></g></g></g><g><g><g><path d="M401.207,258.318c-2.75,0-4.985-2.223-4.999-4.977l-0.054-11.259c-0.013-2.761,2.215-5.01,4.977-5.023       c0.008,0,0.016,0,0.024,0c2.75,0,4.985,2.223,4.999,4.977l0.054,11.259c0.013,2.761-2.215,5.01-4.977,5.023       C401.224,258.318,401.216,258.318,401.207,258.318z" fill="#384169"/></g></g></g><g><g><g><path d="M383.487,263.263c-1.723,0-3.398-0.891-4.326-2.486l-5.821-10.005c-1.389-2.387-0.58-5.447,1.807-6.836       c2.386-1.392,5.448-0.58,6.836,1.807l5.821,10.005c1.389,2.387,0.58,5.447-1.807,6.836       C385.206,263.044,384.341,263.263,383.487,263.263z" fill="#384169"/></g></g></g><g><g><g><path d="M370.708,276.241c-0.843,0-1.696-0.214-2.48-0.662l-10.122-5.799c-2.396-1.373-3.226-4.429-1.854-6.824       c1.372-2.396,4.425-3.225,6.824-1.854l10.122,5.799c2.396,1.373,3.226,4.429,1.854,6.824       C374.128,275.338,372.442,276.241,370.708,276.241z" fill="#384169"/></g></g></g></g><g><g><g><g><path d="M435.925,293.865c-2.754,0-4.99-2.228-5-4.983c-0.01-2.761,2.222-5.007,4.983-5.017l11.727-0.04       c0.005,0,0.012,0,0.017,0c2.754,0,4.99,2.228,5,4.983c0.01,2.761-2.222,5.007-4.983,5.017l-11.727,0.04       C435.937,293.865,435.93,293.865,435.925,293.865z" fill="#384169"/></g></g><g><g><path d="M354.33,294.142c-2.749,0-4.984-2.222-4.999-4.975c-0.015-2.761,2.213-5.011,4.975-5.025l10.581-0.055       c0.009,0,0.018,0,0.026,0c2.749,0,4.984,2.222,4.999,4.975c0.015,2.761-2.213,5.011-4.975,5.025l-10.581,0.055       C354.348,294.142,354.339,294.142,354.33,294.142z" fill="#384169"/></g></g></g><g><g><g><path d="M360.345,317.859c-1.723,0-3.398-0.891-4.326-2.486c-1.389-2.387-0.58-5.447,1.807-6.836l9.329-5.428       c2.386-1.392,5.447-0.58,6.836,1.807s0.58,5.447-1.807,6.836l-9.329,5.428C362.063,317.641,361.198,317.859,360.345,317.859z" fill="#384169"/></g></g></g><g><g><g><path d="M377.521,334.929c-0.843,0-1.696-0.214-2.48-0.662c-2.396-1.373-3.226-4.428-1.854-6.824l5.571-9.726       c1.373-2.396,4.425-3.225,6.824-1.854c2.396,1.373,3.226,4.428,1.854,6.824l-5.571,9.726       C380.94,334.025,379.255,334.929,377.521,334.929z" fill="#384169"/></g></g></g><g><g><g><path d="M400.826,340.967c-2.75,0-4.985-2.223-4.999-4.977l-0.054-11.259c-0.013-2.761,2.215-5.01,4.977-5.023       c0.008,0,0.016,0,0.024,0c2.75,0,4.985,2.223,4.999,4.977l0.054,11.259c0.013,2.761-2.215,5.01-4.977,5.023       C400.843,340.967,400.835,340.967,400.826,340.967z" fill="#384169"/></g></g></g><g><g><g><path d="M424.325,334.771c-1.723,0-3.398-0.891-4.327-2.486l-5.821-10.006       c-1.388-2.387-0.579-5.448,1.808-6.837s5.448-0.579,6.837,1.808l5.821,10.006c1.388,2.387,0.579,5.448-1.808,6.837       C426.044,334.553,425.179,334.771,424.325,334.771z" fill="#384169"/></g></g></g><g><g><g><path d="M441.386,317.586c-0.843,0-1.696-0.214-2.48-0.662l-10.122-5.799c-2.396-1.373-3.226-4.429-1.854-6.824       c1.373-2.396,4.425-3.226,6.824-1.854l10.122,5.799c2.396,1.373,3.226,4.429,1.854,6.824       C444.806,316.683,443.12,317.586,441.386,317.586z" fill="#384169"/></g></g></g></g></g><g id="Lines"><g><g><g><path d="M401.651,311.796c-12.683,0-23-10.317-23-23s10.317-23,23-23s23,10.317,23,23      S414.334,311.796,401.651,311.796z M401.651,275.796c-7.168,0-13,5.832-13,13s5.832,13,13,13s13-5.832,13-13      S408.819,275.796,401.651,275.796z" fill="#384169"/></g></g></g><g><g><path d="M395.8,495.34c0-2.76,2.23-5,5-5l0,0c2.76,0,5,2.24,5,5l0,0c0,2.76-2.24,5-5,5l0,0     C398.03,500.34,395.8,498.1,395.8,495.34z M395.8,475.34c0-2.76,2.23-5,5-5l0,0c2.76,0,5,2.24,5,5l0,0c0,2.76-2.24,5-5,5l0,0     C398.03,480.34,395.8,478.1,395.8,475.34z M395.8,455.34c0-2.76,2.23-5,5-5l0,0c2.76,0,5,2.24,5,5l0,0c0,2.76-2.24,5-5,5l0,0     C398.03,460.34,395.8,458.1,395.8,455.34z M395.8,435.34c0-2.76,2.23-5,5-5l0,0c2.76,0,5,2.24,5,5l0,0c0,2.76-2.24,5-5,5l0,0     C398.03,440.34,395.8,438.1,395.8,435.34z M395.8,415.34c0-2.76,2.23-5,5-5l0,0c2.76,0,5,2.24,5,5l0,0c0,2.76-2.24,5-5,5l0,0     C398.03,420.34,395.8,418.1,395.8,415.34z M395.8,395.34c0-2.76,2.23-5,5-5l0,0c2.76,0,5,2.24,5,5l0,0c0,2.76-2.24,5-5,5l0,0     C398.03,400.34,395.8,398.1,395.8,395.34z M395.8,375.34c0-2.76,2.23-5,5-5l0,0c2.76,0,5,2.24,5,5l0,0c0,2.76-2.24,5-5,5l0,0     C398.03,380.34,395.8,378.1,395.8,375.34z M395.8,355.34c0-2.76,2.23-5,5-5l0,0c2.76,0,5,2.24,5,5l0,0c0,2.76-2.24,5-5,5l0,0     C398.03,360.34,395.8,358.1,395.8,355.34z" fill="#384169"/></g></g><g><g><g><path d="M347.871,465.099c-1.279,0-2.56-0.488-3.535-1.465c-1.953-1.952-1.953-5.118,0-7.07l9.291-9.291      c1.951-1.953,5.119-1.953,7.07,0c1.953,1.952,1.953,5.118,0,7.07l-9.291,9.291C350.431,464.61,349.15,465.099,347.871,465.099z" fill="#384169"/></g></g><g><g><path d="M316.162,496.784c-1.279,0-2.56-0.488-3.535-1.465c-1.953-1.952-1.953-5.118,0-7.07l9.29-9.29      c1.951-1.953,5.119-1.953,7.07,0c1.953,1.952,1.953,5.118,0,7.07l-9.29,9.29C318.722,496.296,317.441,496.784,316.162,496.784z" fill="#384169"/></g></g><g><g><path d="M357.15,496.796c-1.279,0-2.559-0.488-3.535-1.464l-9.291-9.29c-1.953-1.953-1.953-5.119-0.001-7.071      c1.953-1.953,5.118-1.952,7.071-0.001l9.291,9.29c1.953,1.953,1.953,5.119,0.001,7.071      C359.71,496.308,358.43,496.796,357.15,496.796z" fill="#384169"/></g></g><g><g><path d="M325.464,465.087c-1.279,0-2.56-0.488-3.536-1.465l-9.29-9.291c-1.952-1.952-1.952-5.118,0.001-7.071      c1.951-1.951,5.118-1.952,7.071,0.001l9.29,9.291c1.952,1.952,1.952,5.118-0.001,7.071      C328.023,464.599,326.743,465.087,325.464,465.087z" fill="#384169"/></g></g><g><g><path d="M330.267,471.323c0-3.575,2.897-6.473,6.473-6.473c3.574,0,6.473,2.898,6.473,6.473      c0,3.575-2.898,6.474-6.473,6.474C333.164,477.796,330.267,474.897,330.267,471.323z" fill="#384169"/></g></g></g><g><g><g><path d="M475.871,398.099c-1.279,0-2.56-0.488-3.535-1.465c-1.953-1.952-1.953-5.118,0-7.07l9.291-9.291      c1.951-1.953,5.119-1.953,7.07,0c1.953,1.952,1.953,5.118,0,7.07l-9.291,9.291C478.431,397.61,477.15,398.099,475.871,398.099z" fill="#384169"/></g></g><g><g><path d="M444.162,429.784c-1.279,0-2.56-0.488-3.535-1.465c-1.953-1.952-1.953-5.118,0-7.07l9.29-9.29      c1.951-1.953,5.119-1.953,7.07,0c1.953,1.952,1.953,5.118,0,7.07l-9.29,9.29C446.722,429.296,445.441,429.784,444.162,429.784z" fill="#384169"/></g></g><g><g><path d="M485.15,429.796c-1.279,0-2.559-0.488-3.535-1.464l-9.291-9.29c-1.953-1.953-1.953-5.119-0.001-7.071      c1.953-1.953,5.118-1.952,7.071-0.001l9.291,9.29c1.953,1.953,1.953,5.119,0.001,7.071      C487.71,429.308,486.43,429.796,485.15,429.796z" fill="#384169"/></g></g><g><g><path d="M453.464,398.087c-1.279,0-2.56-0.488-3.536-1.465l-9.29-9.291c-1.952-1.952-1.952-5.118,0.001-7.071      c1.951-1.951,5.118-1.952,7.071,0.001l9.29,9.291c1.952,1.952,1.952,5.118-0.001,7.071      C456.023,397.599,454.743,398.087,453.464,398.087z" fill="#384169"/></g></g><g><g><path d="M458.267,404.323c0-3.575,2.897-6.473,6.473-6.473c3.574,0,6.473,2.898,6.473,6.473      c0,3.575-2.898,6.474-6.473,6.474C461.164,410.796,458.267,407.897,458.267,404.323z" fill="#384169"/></g></g></g><g><g><path d="M51.871,34.099c-1.279,0-2.56-0.488-3.535-1.465c-1.953-1.952-1.953-5.118,0-7.07l9.291-9.291     c1.951-1.953,5.119-1.953,7.07,0c1.953,1.952,1.953,5.118,0,7.07l-9.291,9.291C54.431,33.61,53.15,34.099,51.871,34.099z" fill="#384169"/></g></g><g><g><path d="M20.162,65.784c-1.279,0-2.56-0.488-3.535-1.465c-1.953-1.952-1.953-5.118,0-7.07l9.29-9.29     c1.951-1.953,5.119-1.953,7.07,0c1.953,1.952,1.953,5.118,0,7.07l-9.29,9.29C22.722,65.296,21.441,65.784,20.162,65.784z" fill="#384169"/></g></g><g><g><path d="M61.15,65.796c-1.279,0-2.559-0.488-3.535-1.464l-9.291-9.29c-1.953-1.953-1.953-5.119-0.001-7.071     c1.953-1.953,5.118-1.952,7.071-0.001l9.291,9.29c1.953,1.953,1.953,5.119,0.001,7.071C63.71,65.308,62.43,65.796,61.15,65.796z" fill="#384169"/></g></g><g><g><path d="M29.464,34.087c-1.279,0-2.56-0.488-3.536-1.465l-9.29-9.291c-1.952-1.952-1.952-5.118,0.001-7.071     c1.951-1.951,5.118-1.952,7.071,0.001L33,25.552c1.952,1.952,1.952,5.118-0.001,7.071C32.023,33.599,30.743,34.087,29.464,34.087     z" fill="#384169"/></g></g><g><g><path d="M34.267,40.323c0-3.575,2.896-6.473,6.473-6.473c3.574,0,6.473,2.898,6.473,6.473     c0,3.575-2.898,6.474-6.473,6.474C37.164,46.796,34.267,43.897,34.267,40.323z" fill="#384169"/></g></g><g><g><path d="M206.66,501H147c-21.041,0-39.462-15.638-41.212-17.166c-37.267-29.752-63.954-70.336-79.32-120.623     c-12.712-41.603-17.363-89.877-13.452-139.603c1.848-23.493,4.776-42.044,8.954-56.714c5.721-20.085,13.786-33.351,24.658-40.557     c10.259-6.798,22.694-7.836,36.953-3.081c14.015,4.671,28.725,8.416,43.72,11.13c2.717,0.491,4.521,3.093,4.029,5.811     s-3.089,4.522-5.811,4.029c-15.462-2.798-30.636-6.661-45.101-11.483c-11.351-3.782-20.598-3.151-28.267,1.931     c-23.327,15.46-27.723,71.352-29.168,89.718c-3.813,48.489,0.698,95.481,13.048,135.897     c14.777,48.363,40.376,87.325,76.085,115.802c0.07,0.056,0.138,0.113,0.205,0.172C112.483,476.406,129.197,491,147,491h59.66     c17.892,0,34.513-14.59,34.678-14.737c2.065-1.834,5.224-1.648,7.06,0.415c1.834,2.064,1.648,5.225-0.415,7.06     C247.189,484.442,228.312,501,206.66,501z" fill="#384169"/></g></g><g><g><path d="M332.014,325.502c-0.271,0-0.546-0.022-0.823-0.068c-2.724-0.451-4.566-3.025-4.115-5.75     c4.992-30.134,6.203-62.194,3.601-95.292c-0.901-11.458-2.019-21.377-3.415-30.324c-0.426-2.728,1.441-5.285,4.17-5.711     c2.731-0.43,5.285,1.441,5.711,4.17c1.436,9.2,2.582,19.367,3.503,31.081c2.667,33.904,1.42,66.779-3.704,97.711     C336.535,323.766,334.416,325.502,332.014,325.502z" fill="#384169"/></g></g><g><g><path d="M244.663,485c-1.469,0-2.925-0.645-3.912-1.883c-1.722-2.159-1.367-5.305,0.792-7.026     c23.783-18.966,43.255-42.827,57.876-70.921c13.135-25.238,22.439-54,27.656-85.486c0.451-2.724,3.018-4.572,5.75-4.115     c2.725,0.451,4.566,3.025,4.115,5.75c-5.39,32.528-15.029,62.293-28.651,88.468c-15.27,29.341-35.629,54.28-60.512,74.123     C246.856,484.644,245.756,485,244.663,485z" fill="#384169"/></g></g><g><g><path d="M158.626,324.975c-0.056,0-0.111-0.001-0.167-0.003c-2.76-0.09-4.924-2.401-4.833-5.161     c1.074-32.749-2.794-53.302-6.228-64.777c-3.697-12.357-7.684-17.074-7.724-17.121c-0.142-0.155-0.229-0.271-0.351-0.444     C125.76,218.11,104.467,214.021,88.993,214c-0.035,0-0.075,0-0.11,0c-32.213,0-43.015,19.499-43.459,20.33     c-1.297,2.424-4.312,3.36-6.747,2.079c-2.432-1.281-3.381-4.271-2.115-6.711C37.106,228.647,50.334,204,88.882,204     c0.042,0,0.083,0,0.125,0c17.782,0.024,42.307,4.819,58.338,27.489c6.976,7.997,18.024,35.33,16.275,88.649     C163.531,322.843,161.312,324.975,158.626,324.975z" fill="#384169"/></g></g><g><g><path d="M208.389,239.599c-0.991,0-1.992-0.293-2.865-0.905c-2.262-1.584-2.811-4.702-1.226-6.964     c16.026-22.874,40.662-27.705,58.507-27.729c0.04,0,0.085,0,0.125,0c38.553,0,51.775,24.647,52.32,25.698     c1.271,2.451,0.314,5.469-2.137,6.74c-2.44,1.269-5.448,0.321-6.728-2.112C305.91,233.439,295.087,214,262.929,214     c-0.037,0-0.073,0-0.11,0c-15.475,0.021-36.768,4.11-50.331,23.468C211.515,238.856,209.964,239.599,208.389,239.599z" fill="#384169"/></g></g><g><g><path d="M177,443c-23.063,0-56.063-7.011-82.307-40.411c-15.553-19.794-21.266-39.391-21.501-40.215     c-0.759-2.655,0.779-5.423,3.434-6.182c2.65-0.757,5.419,0.776,6.18,3.429l0,0c0.054,0.186,5.522,18.793,19.963,37.06     C121.822,420.78,146.798,433,177,433c29.117,0,53.974-12.336,73.88-36.666c15.001-18.334,21.321-36.75,21.383-36.934     c0.884-2.617,3.723-4.018,6.337-3.138c2.616,0.884,4.021,3.721,3.138,6.337c-0.277,0.821-6.977,20.339-23.117,40.066     C237.03,429.053,208.807,443,177,443z" fill="#384169"/></g></g><g><g><path d="M297,263c-2.762,0-5-2.238-5-5c0-7.095-12.731-15-31-15s-31,7.905-31,15c0,2.762-2.238,5-5,5     s-5-2.238-5-5c0-14.019,18.01-25,41-25s41,10.981,41,25C302,260.762,299.762,263,297,263z" fill="#384169"/></g></g><g><g><path d="M126.204,263c-2.762,0-5-2.238-5-5c0-7.095-12.731-15-31-15s-31,7.905-31,15c0,2.762-2.238,5-5,5     s-5-2.238-5-5c0-14.019,18.01-25,41-25s41,10.981,41,25C131.204,260.762,128.966,263,126.204,263z" fill="#384169"/></g></g><g><g><path d="M465,380c-2.762,0-5-2.238-5-5V142c0-2.762,2.238-5,5-5s5,2.238,5,5v233C470,377.762,467.762,380,465,380     z" fill="#384169"/></g></g><g opacity="0.2"><g><path d="M429.57,98c0,0,8,47-45,55c-45,6-53-24-53-24s17,13,56,7S429.57,98,429.57,98z" fill="#FFFFFF"/></g></g><g><g><g><path d="M372.279,205.165c-6.784,0-13.625-0.672-20.438-2.058c-7.315-1.488-14.238-3.706-20.933-5.851      c-10.911-3.495-21.218-6.797-32.624-6.932h-3.518c-11.346,0.135-21.652,3.437-32.564,6.932      c-6.694,2.145-13.617,4.362-20.934,5.851c-6.811,1.386-13.656,2.058-20.438,2.058c-39.708,0.003-77.468-23.006-96.3-60.516      C95.208,86.24,107.931,16.984,108.486,14.064c0.363-1.906,1.797-3.431,3.678-3.91c1.884-0.475,3.869,0.174,5.1,1.674      c0.272,0.327,28.884,33.831,89.124,26.396c54.261-6.687,80.968,13.973,90.556,24.104c9.394-10.178,35.592-30.785,89.779-24.104      c17.392,2.148,43.208,2.089,67.407-10.361c14.492-7.457,21.655-15.962,21.727-16.047c1.236-1.487,3.225-2.138,5.1-1.651      c1.874,0.483,3.306,1.999,3.668,3.899c0.556,2.92,13.277,72.176-16.045,130.585      C449.749,182.156,411.984,205.165,372.279,205.165z M298.344,180.325c12.967,0.153,24.48,3.842,35.616,7.409      c6.438,2.062,13.095,4.194,19.875,5.574c42.271,8.597,85.781-13.256,105.807-53.146c21.679-43.182,18.854-94.089,16.489-114.779      c-11.047,9.22-34.545,23.943-71.903,23.945c-5.899,0.001-12.134-0.366-18.729-1.179c-18.194-2.248-44.43-2.421-66.094,9.484      c-12.855,7.064-18.118,15.189-18.169,15.271c-0.915,1.438-2.507,2.324-4.211,2.329c-0.006,0-0.012,0-0.017,0      c-1.689,0-3.272-0.841-4.195-2.255l0,0c-0.054-0.081-5.533-8.231-18.623-15.318c-22.036-11.928-48.368-11.759-66.577-9.511      c-48.357,5.96-77.83-12.083-90.627-22.761c-2.354,20.711-5.16,71.662,16.483,114.773c20.026,39.89,63.538,61.743,105.806,53.146      c6.781-1.38,13.438-3.513,19.877-5.575c11.135-3.566,22.648-7.255,35.556-7.408H298.344z" fill="#384169"/></g></g><g><g><path d="M370.192,141.005c-18.807,0-32.283-2.696-40.997-8.171c-1.606-1.009-2.504-2.842-2.315-4.73      c0.034-0.341,0.899-8.469,6.464-17.54c5.092-8.301,15.255-19.121,34.759-23.531c35.895-8.118,63.019,6.363,64.156,6.982      c2.079,1.135,3.077,3.571,2.392,5.838c-0.12,0.396-3.028,9.829-10.725,19.521c-10.322,12.998-24.382,20.345-40.658,21.247      C378.653,140.876,374.295,141.005,370.192,141.005z M337.458,125.955c9.176,4.265,24.368,5.84,45.257,4.681      c25.514-1.414,36.952-20.951,40.795-29.629c-8.259-3.357-28.604-9.785-53.202-4.221      C346.113,102.258,339.288,118.91,337.458,125.955z" fill="#384169"/></g></g><g><g><path d="M225.34,141.005c-4.104,0-8.459-0.129-13.075-0.385c-16.277-0.902-30.337-8.249-40.659-21.247      c-7.696-9.691-10.604-19.124-10.725-19.521c-0.686-2.267,0.312-4.703,2.392-5.838c1.138-0.619,28.262-15.102,64.156-6.982      c19.504,4.41,29.667,15.23,34.759,23.531c5.564,9.071,6.43,17.199,6.464,17.54c0.188,1.889-0.709,3.722-2.315,4.73      C257.623,138.308,244.144,141.005,225.34,141.005z M172.021,101.007c3.84,8.671,15.278,28.214,40.797,29.629      c20.892,1.161,36.082-0.416,45.256-4.681c-1.83-7.045-8.655-23.697-32.85-29.169C200.636,91.227,180.288,97.648,172.021,101.007      z" fill="#384169"/></g></g></g><g><g><g><g><path d="M338.586,159.039c-1.788,3.096-5.745,4.157-8.842,2.369c-3.095-1.787-4.156-5.745-2.369-8.842       c1.787-3.095,5.746-4.156,8.841-2.369C339.313,151.985,340.373,155.943,338.586,159.039z" fill="#384169"/></g></g></g><g><g><g><path d="M373.586,165.039c-1.788,3.096-5.745,4.157-8.842,2.369c-3.095-1.787-4.156-5.745-2.369-8.842       c1.787-3.095,5.746-4.156,8.841-2.369C374.313,157.985,375.373,161.943,373.586,165.039z" fill="#384169"/></g></g></g><g><g><g><path d="M408.586,161.039c-1.788,3.096-5.745,4.157-8.842,2.369c-3.095-1.787-4.156-5.745-2.369-8.842       c1.787-3.095,5.746-4.156,8.841-2.369C409.313,153.985,410.373,157.943,408.586,161.039z" fill="#384169"/></g></g></g><g><g><g><path d="M437.586,139.039c-1.788,3.096-5.745,4.157-8.842,2.369c-3.095-1.787-4.156-5.745-2.369-8.842       c1.787-3.095,5.746-4.156,8.841-2.369C438.313,131.985,439.373,135.943,437.586,139.039z" fill="#384169"/></g></g></g><g><g><g><path d="M454.586,104.039c-1.788,3.096-5.745,4.157-8.842,2.369c-3.095-1.787-4.156-5.745-2.369-8.842       c1.787-3.095,5.746-4.156,8.841-2.369C455.313,96.985,456.373,100.943,454.586,104.039z" fill="#384169"/></g></g></g><g><g><g><path d="M417.586,72.039c-1.788,3.096-5.745,4.157-8.842,2.369c-3.095-1.787-4.156-5.745-2.369-8.842       c1.787-3.095,5.746-4.156,8.841-2.369C418.313,64.985,419.373,68.943,417.586,72.039z" fill="#384169"/></g></g></g><g><g><g><path d="M188.586,72.039c-1.788,3.096-5.745,4.157-8.842,2.369c-3.095-1.787-4.156-5.745-2.369-8.842       c1.787-3.095,5.746-4.156,8.841-2.369C189.313,64.985,190.373,68.943,188.586,72.039z" fill="#384169"/></g></g></g></g><g><g><g><g><path d="M254.375,159.039c1.788,3.096,5.745,4.157,8.842,2.369c3.095-1.787,4.156-5.745,2.369-8.842       c-1.787-3.095-5.746-4.156-8.841-2.369C253.647,151.985,252.588,155.943,254.375,159.039z" fill="#384169"/></g></g></g><g><g><g><path d="M219.375,165.039c1.788,3.096,5.745,4.157,8.842,2.369c3.095-1.787,4.156-5.745,2.369-8.842       c-1.787-3.095-5.746-4.156-8.841-2.369C218.647,157.985,217.588,161.943,219.375,165.039z" fill="#384169"/></g></g></g><g><g><g><path d="M184.375,161.039c1.788,3.096,5.745,4.157,8.842,2.369c3.095-1.787,4.156-5.745,2.369-8.842       c-1.787-3.095-5.746-4.156-8.841-2.369C183.647,153.985,182.588,157.943,184.375,161.039z" fill="#384169"/></g></g></g><g><g><g><path d="M155.375,139.039c1.788,3.096,5.745,4.157,8.842,2.369c3.095-1.787,4.156-5.745,2.369-8.842       c-1.787-3.095-5.746-4.156-8.841-2.369C154.647,131.985,153.588,135.943,155.375,139.039z" fill="#384169"/></g></g></g><g><g><g><path d="M138.375,104.039c1.788,3.096,5.745,4.157,8.842,2.369c3.095-1.787,4.156-5.745,2.369-8.842       c-1.787-3.095-5.746-4.156-8.841-2.369C137.647,96.985,136.588,100.943,138.375,104.039z" fill="#384169"/></g></g></g></g><g><g><g><path d="M296.994,139.001c-2.35,0-4.444-1.664-4.904-4.057c-5.829-30.323-22.136-50.213-48.469-59.116      c-20.059-6.783-38.773-4.423-38.961-4.399c-2.737,0.354-5.249-1.562-5.613-4.296s1.552-5.247,4.286-5.615      c0.844-0.114,20.905-2.695,43.124,4.714c20.769,6.926,47.248,24.142,55.453,66.824c0.521,2.712-1.255,5.333-3.966,5.854      C297.625,138.972,297.308,139.001,296.994,139.001z" fill="#384169"/></g></g><g><g><path d="M297.006,139.001c-0.313,0-0.631-0.029-0.95-0.091c-2.711-0.521-4.487-3.143-3.966-5.854      c8.205-42.683,34.685-59.898,55.453-66.824c22.222-7.41,42.281-4.828,43.124-4.714c2.737,0.368,4.657,2.886,4.288,5.622      c-0.368,2.734-2.887,4.659-5.615,4.289l0,0c-0.188-0.024-18.902-2.383-38.961,4.399c-26.333,8.903-42.64,28.793-48.469,59.116      C301.45,137.337,299.354,139.001,297.006,139.001z" fill="#384169"/></g></g></g></g></svg>