<?xml version="1.0" ?><svg enable-background="new 0 0 512 512" version="1.1" viewBox="0 0 512 512" xml:space="preserve" xmlns="http://www.w3.org/2000/svg" xmlns:xlink="http://www.w3.org/1999/xlink"><g id="Lines"><g><g><g><g><path d="M285.327,379.314v0.003h-0.305C285.123,379.317,285.227,379.317,285.327,379.314z" fill="#4D4D4D"/></g></g></g><g><g><g><path d="M84.521,136.239c-0.731,0-1.473-0.161-2.174-0.5c-2.486-1.203-3.526-4.193-2.323-6.679       c9.64-19.924,22.462-37.46,38.112-52.121c2.015-1.887,5.18-1.785,7.067,0.23c1.888,2.015,1.785,5.18-0.23,7.067       c-14.75,13.818-26.844,30.364-35.947,49.179C88.163,135.2,86.378,136.239,84.521,136.239z" fill="#3F456B"/></g></g></g><g><g><g><path d="M176.236,51.272c-1.995,0-3.879-1.202-4.654-3.17c-1.011-2.57,0.252-5.473,2.822-6.484       c16.128-6.346,33.646-10.659,52.067-12.819c2.74-0.322,5.227,1.641,5.548,4.384c0.322,2.743-1.641,5.227-4.384,5.548       c-17.565,2.06-34.242,6.162-49.569,12.193C177.464,51.16,176.845,51.272,176.236,51.272z" fill="#3F456B"/></g></g></g><g><g><g><path d="M336.196,51.181c-0.607,0-1.224-0.111-1.823-0.346c-15.264-5.982-31.867-10.055-49.349-12.104       c-2.743-0.321-4.706-2.805-4.384-5.548s2.807-4.705,5.548-4.384c18.333,2.149,35.772,6.431,51.834,12.726       c2.571,1.008,3.838,3.909,2.831,6.48C340.08,49.976,338.193,51.181,336.196,51.181z" fill="#3F456B"/></g></g></g><g><g><g><path d="M428.813,137.637c-1.873,0-3.668-1.057-4.522-2.861c-9.263-19.566-21.72-36.703-37.024-50.936       c-2.022-1.881-2.137-5.044-0.257-7.067c1.881-2.022,5.044-2.137,7.067-0.256c16.238,15.101,29.444,33.263,39.252,53.98       c1.182,2.496,0.116,5.477-2.379,6.659C430.259,137.482,429.53,137.637,428.813,137.637z" fill="#3F456B"/></g></g></g><g><g><g><path d="M345.782,453.301c-2.478,0-4.629-1.841-4.953-4.364c-0.065-0.502-5.923-43.073-33.507-45.659       c-2.509-0.235-4.451-2.301-4.531-4.82s1.729-4.704,4.218-5.097c1.36-0.226,33.78-6.103,33.78-48.061c0-2.761,2.239-5,5-5       s5,2.239,5,5c0,26.302-11.384,40.661-20.934,48.075c-2.354,1.828-4.711,3.33-6.955,4.562       c8.326,4.758,15.26,12.998,20.442,24.423c5.745,12.665,7.341,24.797,7.407,25.307c0.35,2.739-1.587,5.243-4.327,5.593       C346.207,453.288,345.993,453.301,345.782,453.301z" fill="#3F456B"/></g></g></g><g><g><g><path d="M345.794,453.301c-0.211,0-0.424-0.013-0.64-0.041c-2.739-0.35-4.676-2.854-4.327-5.593       c0.065-0.51,1.662-12.642,7.407-25.307c5.182-11.425,12.116-19.665,20.442-24.423c-2.244-1.231-4.601-2.733-6.955-4.562       c-9.55-7.414-20.934-21.772-20.934-48.075c0-2.761,2.239-5,5-5s5,2.239,5,5c0,17.867,5.742,31.384,17.066,40.176       c8.253,6.407,16.632,7.873,16.714,7.886c2.49,0.393,4.297,2.578,4.218,5.097s-2.021,4.585-4.531,4.82       c-27.694,2.596-33.452,45.224-33.507,45.655C350.426,451.458,348.273,453.301,345.794,453.301z" fill="#3F456B"/></g></g></g><g><g><g><path d="M405.65,326.493c-1.98,0-4.247-0.366-6.817-1.285c-9.476-3.387-12.862-15.233-16.448-27.775       C376.287,276.101,370.46,261,350.918,261H161.931c-19.553,0-25.502,15.518-31.772,37.441       c-3.772,13.19-7.031,24.583-16.645,26.917c-7.447,1.809-12.244-0.452-14.957-2.666c-7.318-5.971-7.274-17.525-7.224-19.273       V271.5c0-10.321-9.117-11.247-11.086-11.325H67.353c-12.304,0-18.861-14.55-19.568-16.209c-0.04-0.094-0.078-0.19-0.112-0.287       c-9.156-25.778-8.278-55.623,2.541-86.308c0.025-0.071,0.052-0.142,0.08-0.211l5.405-13.367       c0.018-0.044,0.036-0.088,0.055-0.132C63.864,125.142,72.144,123,77.667,123c12.268,0,17.555,16.332,18.327,18.961       c7.183,20.026,17.34,45.443,32.294,64.753c0.098,0.127,0.19,0.259,0.276,0.395c0.081,0.127,8.942,13.585,17.408,10.378       c3.024-1.194,4.944-2.867,5.807-5.091c1.612-4.157-0.742-9.302-0.766-9.353c-30.419-64.852-35.175-128.39-35.362-131.063       c-0.007-0.107-0.012-0.214-0.012-0.321c-0.006-1.125,0.149-27.663,26.844-38.303c14.083-5.614,23.593-3.336,29.092-0.437       c6.192,3.265,8.839,8.018,9.12,8.549c0.401,0.758,0.601,1.607,0.58,2.465c-0.021,0.834-1.852,84.269,17.621,152.78       c0.297,1.002,3.233,9.811,14.292,8.917c3.227-0.257,5.463-1.239,6.837-3.001c2.411-3.092,1.732-7.899,1.725-7.946       c-0.022-0.133-0.039-0.267-0.051-0.401c-6.561-76.054-0.076-158.239-0.01-159.06c0.003-0.044,0.008-0.088,0.013-0.132       c0.914-8.505,9.328-24.59,34.633-24.59c25.393,0,33.443,16.164,34.153,24.711c0.067,0.823,6.551,82.36-0.008,159.067       c-0.012,0.136-0.029,0.271-0.051,0.405c-0.202,1.319-0.292,5.4,1.754,7.985c1.376,1.738,3.603,2.707,6.807,2.962       c11.052,0.885,13.997-7.915,14.293-8.921c0.009-0.031,0.033-0.111,0.043-0.142c21.7-68.369,17.626-151.664,17.582-152.498       c-0.036-0.679,0.067-1.358,0.303-1.996c0.275-0.744,7.075-18.116,37.017-9.617c23.439,6.653,28.765,28.673,28.306,39.386       c-0.002,0.045-0.005,0.091-0.008,0.136c-0.188,2.673-4.943,66.211-35.327,130.989c-0.703,1.483-2.166,5.975-0.785,9.469       c0.87,2.203,2.785,3.862,5.854,5.074c8.469,3.209,17.258-10.266,17.344-10.403c0.086-0.136,0.178-0.268,0.276-0.395       c15.443-19.941,26.591-46.098,33.25-64.63c1.262-5.157,6.523-14.548,18.163-15.404c6.67-0.492,13.008,3.864,18.847,12.941       c3.832,5.956,6.144,11.95,6.24,12.202l2.202,5.939c10.688,30.606,11.509,60.285,2.404,85.917       c-0.034,0.097-0.071,0.192-0.112,0.287c-0.699,1.64-7.112,15.874-19.142,16.204c-0.081,0.004-0.163,0.006-0.244,0.006h-12.908       c-1.892,0.072-11.072,0.968-11.072,11.325v31.922c0.054,1.884,0.123,14.778-7.699,20.491       C412.006,325.237,409.319,326.493,405.65,326.493z M161.931,251h188.988c28.594,0,35.812,25.249,41.082,43.685       c2.733,9.562,5.56,19.449,10.199,21.107c2.576,0.921,4.501,0.937,5.72,0.047c2.933-2.143,3.7-9.253,3.6-12.167       c-0.002-0.058-0.003-0.115-0.003-0.172v-32c0-15.333,12.498-21.153,20.898-21.324c0.034,0,0.068-0.001,0.102-0.001h12.797       c4.929,0,9.289-7.69,10.313-10.002c10.451-29.589,4.442-59.297-2.447-79.025l-2.151-5.8       c-3.094-8.04-10.032-19.062-14.996-18.695c-7.521,0.553-9.19,7.836-9.207,7.91c-0.046,0.212-0.106,0.42-0.179,0.625       c-6.874,19.178-18.471,46.428-34.724,67.479c-1.535,2.342-13.775,20.038-29.265,14.171c-7.22-2.849-10.28-7.458-11.587-10.827       c-3.175-8.187,0.66-16.448,1.107-17.363c29.085-62.012,34.164-124.672,34.363-127.289c0.042-1.536,0.24-23.24-21.047-29.282       c-17.541-4.979-23.185,0.835-24.544,2.837c0.439,11.251,2.611,89.36-18.069,154.594c-1.743,6.17-9.094,17.329-24.689,16.091       c-7.588-0.605-11.763-4.043-13.929-6.821c-4.779-6.13-3.977-13.858-3.736-15.518c6.463-75.807,0.057-156.424-0.008-157.23       c-0.162-1.536-2.257-15.53-24.187-15.53c-22.308,0-24.542,14.445-24.684,15.605c-0.233,2.966-6.378,83.029-0.003,157.152       c0.241,1.655,1.045,9.387-3.736,15.52c-2.166,2.778-6.34,6.216-13.929,6.821c-15.688,1.249-23.027-10.045-24.718-16.193       c-18.392-64.709-18.167-142.208-18.013-154.152c-2.005-2.609-8.913-9.046-25.066-2.609       c-19.558,7.796-20.501,27.013-20.545,28.821c0.307,3.882,5.625,65.929,34.391,127.257c0.412,0.841,4.247,9.102,1.072,17.289       c-1.307,3.369-4.366,7.978-11.523,10.802c-15.559,5.896-27.797-11.809-29.329-14.146       c-15.78-20.445-26.308-46.792-33.723-67.479c-0.038-0.106-0.072-0.213-0.103-0.321C85.232,140.735,81.437,133,77.667,133       c-1.563,0-6.313,0-12.725,14.608l-5.334,13.193c-6.979,19.839-13.059,49.662-2.57,79.366       c1.212,2.723,5.505,10.007,10.315,10.007h12.98c0.034,0,0.068,0,0.102,0.001c8.4,0.171,20.898,5.991,20.898,21.324v32       c0,0.061-0.001,0.121-0.003,0.181c-0.062,2.113,0.457,8.758,3.561,11.274c0.519,0.42,2.096,1.697,6.262,0.686       c3.96-0.961,6.845-11.049,9.391-19.95C125.938,276.831,133.325,251,161.931,251z" fill="#3F456B"/></g></g></g><g><g><g><path d="M188.632,232.796c-1.56,3.217-5.43,4.563-8.648,3.004c-3.216-1.56-4.561-5.433-3.002-8.649       c1.559-3.217,5.431-4.56,8.646-3.002C188.847,225.708,190.19,229.579,188.632,232.796z" fill="#3F456B"/></g></g></g><g><g><g><path d="M335.417,232.796c-1.56,3.217-5.43,4.563-8.648,3.004c-3.216-1.56-4.561-5.433-3.002-8.649       c1.559-3.217,5.431-4.56,8.646-3.002C335.632,225.708,336.976,229.579,335.417,232.796z" fill="#3F456B"/></g></g></g><g><g><g><path d="M438.158,232.796c-1.56,3.217-5.43,4.563-8.648,3.004c-3.216-1.56-4.561-5.433-3.002-8.649       c1.559-3.217,5.431-4.56,8.646-3.002C438.373,225.708,439.716,229.579,438.158,232.796z" fill="#3F456B"/></g></g></g><g><g><g><path d="M86.158,232.796c-1.56,3.217-5.43,4.563-8.648,3.004c-3.216-1.56-4.561-5.433-3.002-8.649       c1.559-3.217,5.431-4.56,8.646-3.002C86.373,225.708,87.716,229.579,86.158,232.796z" fill="#3F456B"/></g></g></g><g><g><g><path d="M313.833,261c-2.761,0-5-2.239-5-5v-17.539c0-2.757-2.243-5-5-5h-94.194c-2.757,0-5,2.243-5,5V256       c0,2.761-2.239,5-5,5s-5-2.239-5-5v-17.539c0-8.271,6.729-15,15-15h94.194c8.271,0,15,6.729,15,15V256       C318.833,258.761,316.594,261,313.833,261z" fill="#3F456B"/></g></g></g><g><g><g><path d="M304.333,498.5c-2.761,0-5-2.239-5-5v-19.539c0-2.757-2.243-5-5-5h-76c-2.757,0-5,2.243-5,5V493.5       c0,2.761-2.239,5-5,5s-5-2.239-5-5v-19.539c0-8.271,6.729-15,15-15h76c8.271,0,15,6.729,15,15V493.5       C309.333,496.261,307.094,498.5,304.333,498.5z" fill="#3F456B"/></g></g></g><g><g><g><path d="M102.333,388.5h-12c-8.271,0-15-6.729-15-15v-28c0-8.271,6.729-15,15-15h12c8.271,0,15,6.729,15,15v28       C117.333,381.771,110.604,388.5,102.333,388.5z M90.333,340.5c-2.757,0-5,2.243-5,5v28c0,2.757,2.243,5,5,5h12       c2.757,0,5-2.243,5-5v-28c0-2.757-2.243-5-5-5H90.333z" fill="#3F456B"/></g></g></g><g><g><g><path d="M86.81,341.153c-1.453,0-2.894-0.63-3.882-1.845c-21.945-26.978-20.64-81.949-20.573-84.276       c0.079-2.76,2.366-4.943,5.139-4.854c2.76,0.078,4.934,2.378,4.857,5.138c-0.015,0.533-1.262,53.593,18.335,77.682       c1.742,2.142,1.418,5.292-0.724,7.034C89.035,340.786,87.919,341.153,86.81,341.153z" fill="#3F456B"/></g></g></g><g><g><g><path d="M103.838,340.167c-0.342,0-0.69-0.035-1.039-0.109c-2.702-0.571-4.429-3.224-3.858-5.926l3.006-14.228       c0.571-2.701,3.223-4.431,5.926-3.858c2.702,0.571,4.429,3.224,3.858,5.926l-3.006,14.228       C108.228,338.553,106.151,340.167,103.838,340.167z" fill="#3F456B"/></g></g></g><g><g><g><path d="M289.83,500.5h-65.497c-28.507,0-52.545-8.089-71.446-24.043c-2.11-1.781-2.377-4.936-0.596-7.046       c1.781-2.111,4.936-2.377,7.046-0.596c17.047,14.389,38.915,21.685,64.996,21.685h65.497c43.788,0,74.892-19.445,92.448-57.794       c13.355-29.174,13.552-58.913,13.552-59.209c0.004-2.759,2.242-4.995,5-4.995c0.001,0,0.002,0,0.003,0       c2.76,0.002,4.997,2.238,4.997,4.998c0,1.29-0.163,31.942-14.324,63.07C378.238,465.735,349.829,500.5,289.83,500.5z" fill="#3F456B"/></g></g></g><g><g><g><path d="M122.657,426.839c-2.054,0-3.979-1.276-4.709-3.322C107.618,394.561,107.5,368.591,107.5,367.5       c0-2.761,2.239-5,5-5c2.76,0,4.999,2.237,5,4.997l0,0c0,0.25,0.144,25.404,9.867,52.661c0.928,2.601-0.429,5.461-3.03,6.389       C123.781,426.745,123.214,426.839,122.657,426.839z M117.5,367.5h0.01H117.5z" fill="#3F456B"/></g></g></g><g><g><g><path d="M422.83,388.5h-12c-8.271,0-15-6.729-15-15v-28c0-8.271,6.729-15,15-15h12c8.271,0,15,6.729,15,15v28       C437.83,381.771,431.101,388.5,422.83,388.5z M410.83,340.5c-2.757,0-5,2.243-5,5v28c0,2.757,2.243,5,5,5h12       c2.757,0,5-2.243,5-5v-28c0-2.757-2.243-5-5-5H410.83z" fill="#3F456B"/></g></g></g><g><g><g><path d="M426.353,341.153c-1.109,0-2.225-0.367-3.152-1.121c-2.142-1.743-2.466-4.892-0.724-7.034       c19.597-24.089,18.351-77.148,18.335-77.682c-0.077-2.76,2.097-5.061,4.857-5.138c2.794-0.078,5.061,2.096,5.139,4.854       c0.066,2.327,1.372,57.298-20.574,84.276C429.246,340.523,427.805,341.153,426.353,341.153z" fill="#3F456B"/></g></g></g><g><g><g><path d="M409.325,340.167c-2.313,0-4.39-1.614-4.887-3.968l-2.793-13.222c-0.571-2.702,1.157-5.354,3.859-5.925       c2.704-0.572,5.355,1.157,5.925,3.859l2.793,13.222c0.571,2.702-1.157,5.354-3.859,5.925       C410.015,340.132,409.667,340.167,409.325,340.167z" fill="#3F456B"/></g></g></g><g><g><g><path d="M425.044,212.667c-0.023,0-0.042,0-0.056,0c-2.057-0.004-3.901-1.268-4.647-3.185       c-0.747-1.917-0.244-4.095,1.268-5.49c19.564-18.058,31.567-46.156,31.687-46.438c1.074-2.545,4.009-3.736,6.551-2.661       c2.544,1.074,3.735,4.007,2.661,6.551c-0.441,1.046-9.501,22.249-25.179,40.567c7.745-0.698,18.001-2.137,27.323-5.108       c2.628-0.84,5.443,0.614,6.282,3.245c0.839,2.631-0.614,5.444-3.245,6.282C448.477,212.554,426.586,212.667,425.044,212.667z" fill="#3F456B"/></g></g></g><g><g><g><path d="M87.534,212.667c-1.54,0-23.431-0.112-42.643-6.236c-2.631-0.838-4.084-3.651-3.245-6.282       c0.839-2.631,3.653-4.084,6.282-3.245c9.342,2.978,19.59,4.417,27.326,5.113c-15.68-18.319-24.741-39.524-25.183-40.571       c-1.074-2.543,0.117-5.477,2.661-6.551c2.544-1.074,5.477,0.117,6.551,2.661c0.167,0.393,12.209,28.46,31.686,46.438       c1.512,1.395,2.015,3.573,1.268,5.49c-0.747,1.917-2.591,3.18-4.647,3.185C87.576,212.667,87.557,212.667,87.534,212.667z" fill="#3F456B"/></g></g></g><g><g><g><path d="M127.583,373.26c-1.932,0-8.637-0.389-13.922-5.451c-4.088-3.916-6.162-9.459-6.162-16.476       c0-2.761,2.239-5,5-5s5,2.239,5,5c0,4.184,1.036,7.297,3.079,9.254c2.848,2.727,6.997,2.676,7.04,2.672       c0.072-0.003,0.144-0.004,0.215-0.004h80.5c13.416,0,18.019-12.822,18.208-13.368c0.032-0.093,0.076-0.211,0.114-0.301       l16.2-39.106c1.358-3.5,5.683-9.314,13.478-9.314c8.025,0,12.171,5.799,13.429,9.396l16.332,39.006       c0.046,0.11,0.087,0.221,0.125,0.333c0.177,0.503,4.697,12.961,18.113,12.961h79.5c0.087,0,0.174,0.002,0.26,0.007       c0.023,0.001,5.502,0.171,8.861-3.063c1.935-1.862,2.875-4.58,2.875-8.308c0-2.761,2.239-5,5-5s5,2.239,5,5       c0,6.552-2.029,11.801-6.032,15.601c-6.154,5.841-14.544,5.82-16.071,5.763h-79.393c-16.407,0-25.13-12.704-27.527-19.585       l-16.335-39.014c-0.079-0.188-0.089-0.192-0.145-0.389c-0.213-0.568-1.222-2.709-3.994-2.709c-2.788,0-3.976,2.507-4.186,3.009       l-16.202,39.112c-0.797,2.223-7.792,19.968-27.613,19.968h-80.418C127.829,373.258,127.717,373.26,127.583,373.26z" fill="#3F456B"/></g></g></g><g><g><g><path d="M436.096,260.175h-28.163c-2.761,0-5-2.239-5-5s2.239-5,5-5h28.163c2.761,0,5,2.239,5,5       S438.857,260.175,436.096,260.175z" fill="#3F456B"/></g></g></g><g><g><g><path d="M108.496,260.175H80.333c-2.761,0-5-2.239-5-5s2.239-5,5-5h28.163c2.761,0,5,2.239,5,5       S111.257,260.175,108.496,260.175z" fill="#3F456B"/></g></g></g><g><g><g><path d="M132.657,502.612c-6.136,0-12.236-1.977-17.292-5.85c-11.962,4.494-25.786,0.402-33.308-10.292       c-8.289-11.782-6.542-27.409,3.65-37.038c-2.331-11.005,2.104-22.639,11.475-29.231c12.854-9.042,30.666-5.94,39.708,6.912       c0.719,1.022,1.366,2.083,1.939,3.176l34.187-7.355c2.054-0.438,4.155,0.443,5.275,2.212c1.121,1.77,1.021,4.051-0.253,5.715       l-21.357,27.912c8.15,12.757,4.875,29.85-7.626,38.644C144.1,500.902,138.363,502.612,132.657,502.612z M116.231,485.906       c1.281,0,2.545,0.491,3.503,1.431c6.356,6.236,16.268,7.035,23.567,1.9l0,0c8.343-5.869,10.356-17.432,4.487-25.776       c-0.36-0.513-0.743-1.001-1.136-1.453c-1.561-1.792-1.645-4.435-0.201-6.323l15.396-20.12l-24.935,5.365       c-2.497,0.535-4.995-0.893-5.798-3.316c-0.553-1.671-1.361-3.269-2.402-4.748c-5.869-8.343-17.432-10.355-25.775-4.487       c-6.715,4.723-9.525,13.43-6.835,21.174c0.717,2.065,0.01,4.357-1.748,5.659c-8.133,6.023-9.941,17.226-4.118,25.504       c5.324,7.568,15.5,10.044,23.675,5.76C114.645,486.093,115.441,485.906,116.231,485.906z" fill="#3F456B"/></g></g></g><g><g><g><path d="M22.035,183.584c0,3.226,2.615,5.839,5.84,5.839c3.226,0,5.84-2.613,5.84-5.839       c0-3.225-2.613-5.84-5.84-5.84C24.65,177.744,22.035,180.359,22.035,183.584z" fill="#3F456B"/></g></g></g><g><g><g><path d="M410.99,413.625c0,3.226,2.615,5.839,5.84,5.839c3.227,0,5.84-2.613,5.84-5.839       c0-3.225-2.613-5.84-5.84-5.84C413.605,407.785,410.99,410.4,410.99,413.625z" fill="#3F456B"/></g></g></g><g><g><g><path d="M31.843,170.469c-0.411,0-0.829-0.051-1.245-0.158c-2.675-0.686-4.288-3.41-3.602-6.085       c10.333-40.305,27.493-53.231,28.219-53.762c2.229-1.63,5.357-1.146,6.987,1.084c1.623,2.219,1.149,5.329-1.054,6.965       c-0.304,0.234-15.186,11.998-24.466,48.196C36.104,168.968,34.071,170.469,31.843,170.469z" fill="#3F456B"/></g></g></g><g><g><g><path d="M387.676,479.41c-1.295,0-2.59-0.5-3.569-1.498c-1.935-1.971-1.905-5.137,0.066-7.071       c12.025-11.801,20.718-31.418,23.373-41.011c0.736-2.662,3.491-4.222,6.152-3.485c2.662,0.736,4.222,3.491,3.485,6.152       c-3.048,11.014-12.489,32.216-26.005,45.48C390.204,478.934,388.939,479.41,387.676,479.41z" fill="#3F456B"/></g></g></g></g></g><g id="Outline"><g><g><g><g><path d="M159.197,371.869c-1.688,0-3.335-0.854-4.277-2.402c-3.409-5.604-5.21-12.053-5.21-18.649       c0-16.031,10.396-29.791,25.329-34.372c-0.032-0.548-0.048-1.097-0.048-1.646c0-15.577,12.676-28.25,28.258-28.25       c5.948,0,11.637,1.85,16.365,5.216c8.487-15.052,24.692-24.761,42.286-24.761c26.733,0,48.483,21.75,48.483,48.483       c0,2.442-0.182,4.876-0.544,7.278c13.071,4.535,22.117,16.923,22.117,31.15c0,5.246-1.198,10.256-3.559,14.891       c-1.254,2.46-4.264,3.438-6.726,2.185c-2.46-1.254-3.438-4.265-2.185-6.726c1.639-3.214,2.469-6.697,2.469-10.35       c0-11.12-7.924-20.627-18.843-22.606c-1.368-0.248-2.57-1.054-3.319-2.224c-0.75-1.17-0.978-2.6-0.63-3.946       c0.81-3.134,1.22-6.382,1.22-9.652c0-21.22-17.263-38.483-38.483-38.483c-15.895,0-30.358,9.979-35.993,24.833       c-0.633,1.668-2.106,2.873-3.867,3.161c-1.762,0.29-3.542-0.384-4.673-1.763c-3.486-4.249-8.631-6.686-14.118-6.686       c-10.067,0-18.258,8.187-18.258,18.25c0,1.445,0.171,2.885,0.51,4.28c0.328,1.352,0.077,2.779-0.691,3.938       s-1.984,1.947-3.357,2.173c-12.599,2.073-21.743,12.85-21.743,25.627c0,4.763,1.298,9.415,3.754,13.452       c1.435,2.359,0.686,5.435-1.673,6.871C160.979,371.634,160.082,371.869,159.197,371.869z" fill="#3F456B"/></g></g></g><g><g><g><path d="M203.641,326.242c-0.518,0-1.044-0.081-1.562-0.251c-9.665-3.178-22.711-0.448-22.842-0.42       c-2.697,0.576-5.357-1.14-5.937-3.837c-0.58-2.697,1.131-5.354,3.828-5.938c0.64-0.138,15.798-3.341,28.074,0.695       c2.624,0.862,4.051,3.688,3.188,6.312C207.698,324.906,205.742,326.241,203.641,326.242z" fill="#3F456B"/></g></g></g><g><g><g><path d="M480.208,458.837c-1.28,0-2.559-0.488-3.536-1.464c-1.953-1.953-1.953-5.119,0-7.071l8.017-8.017       c1.953-1.952,5.118-1.952,7.071,0c1.953,1.953,1.953,5.119,0,7.071l-8.017,8.017       C482.768,458.349,481.488,458.837,480.208,458.837z" fill="#3F456B"/></g></g></g><g><g><g><path d="M452.846,486.18c-1.28,0-2.559-0.488-3.536-1.464c-1.953-1.953-1.953-5.119,0-7.071l8.017-8.017       c1.953-1.952,5.118-1.952,7.071,0c1.953,1.953,1.953,5.119,0,7.071l-8.017,8.017       C455.405,485.691,454.125,486.18,452.846,486.18z" fill="#3F456B"/></g></g></g><g><g><g><path d="M488.216,486.19c-1.28,0-2.559-0.488-3.536-1.464l-8.018-8.017c-1.953-1.953-1.953-5.118,0-7.071       c1.952-1.952,5.118-1.952,7.071,0l8.018,8.017c1.953,1.953,1.953,5.118,0,7.071C490.775,485.702,489.496,486.19,488.216,486.19       z" fill="#3F456B"/></g></g></g><g><g><g><path d="M460.873,458.827c-1.28,0-2.559-0.488-3.536-1.464l-8.017-8.017c-1.953-1.953-1.953-5.119,0-7.071       c1.953-1.952,5.118-1.952,7.071,0l8.017,8.017c1.953,1.953,1.953,5.119,0,7.071       C463.432,458.339,462.153,458.827,460.873,458.827z" fill="#3F456B"/></g></g></g><g><g><g><path d="M44.77,379.337c-1.28,0-2.559-0.488-3.536-1.464c-1.953-1.953-1.953-5.119,0-7.071l8.017-8.017       c1.953-1.952,5.118-1.952,7.071,0c1.953,1.953,1.953,5.119,0,7.071l-8.017,8.017C47.329,378.849,46.049,379.337,44.77,379.337z       " fill="#3F456B"/></g></g></g><g><g><g><path d="M17.407,406.68c-1.28,0-2.559-0.488-3.536-1.464c-1.953-1.953-1.953-5.119,0-7.071l8.017-8.017       c1.953-1.952,5.118-1.952,7.071,0c1.953,1.953,1.953,5.119,0,7.071l-8.017,8.017C19.966,406.191,18.687,406.68,17.407,406.68z" fill="#3F456B"/></g></g></g><g><g><g><path d="M52.776,406.69c-1.28,0-2.559-0.488-3.536-1.464l-8.017-8.017c-1.953-1.953-1.953-5.119,0-7.071       c1.953-1.952,5.118-1.952,7.071,0l8.017,8.017c1.953,1.953,1.953,5.119,0,7.071C55.335,406.202,54.056,406.69,52.776,406.69z" fill="#3F456B"/></g></g></g><g><g><g><path d="M25.434,379.327c-1.28,0-2.559-0.488-3.536-1.464l-8.017-8.017c-1.953-1.953-1.953-5.119,0-7.071       c1.953-1.952,5.118-1.952,7.071,0l8.017,8.017c1.953,1.953,1.953,5.119,0,7.071C27.993,378.839,26.714,379.327,25.434,379.327z       " fill="#3F456B"/></g></g></g><g><g><g><path d="M470.042,50.991c-1.482,0-2.949-0.656-3.936-1.912c-1.706-2.171-1.328-5.315,0.844-7.021l10.648-8.364       c2.171-1.706,5.315-1.328,7.021,0.844s1.328,5.315-0.844,7.021l-10.648,8.364C472.211,50.643,471.122,50.991,470.042,50.991z" fill="#3F456B"/></g></g></g><g><g><g><path d="M471.532,118.802c-1.48,0-2.945-0.653-3.931-1.906l-8.044-10.213c-1.709-2.169-1.335-5.313,0.834-7.021       c2.17-1.709,5.314-1.335,7.021,0.834l8.044,10.213c1.709,2.169,1.335,5.313-0.834,7.021       C473.706,118.452,472.615,118.802,471.532,118.802z" fill="#3F456B"/></g></g></g><g><g><g><path d="M488.518,96.478c-0.62,0-1.25-0.116-1.86-0.361l-12.406-4.976c-2.563-1.028-3.807-3.939-2.779-6.502       s3.939-3.807,6.502-2.779l12.406,4.976c2.563,1.028,3.807,3.939,2.779,6.502C492.377,95.291,490.5,96.478,488.518,96.478z" fill="#3F456B"/></g></g></g><g><g><g><path d="M478.519,70.616c-2.448,0-4.586-1.798-4.943-4.292c-0.391-2.733,1.508-5.267,4.241-5.658l13.334-1.909       c2.734-0.39,5.267,1.507,5.658,4.241c0.391,2.733-1.508,5.267-4.241,5.658l-13.334,1.909       C478.993,70.599,478.754,70.616,478.519,70.616z" fill="#3F456B"/></g></g></g><g><g><g><path d="M453.774,36.923c-0.62,0-1.25-0.116-1.86-0.361c-2.563-1.028-3.807-3.939-2.779-6.502l4.64-11.566       c1.028-2.563,3.938-3.808,6.502-2.779c2.563,1.028,3.807,3.939,2.779,6.502l-4.64,11.566       C457.633,35.735,455.757,36.923,453.774,36.923z" fill="#3F456B"/></g></g></g><g><g><g><path d="M432.474,34.828c-2.448,0-4.586-1.799-4.943-4.292l-1.833-12.812c-0.391-2.733,1.508-5.267,4.241-5.658       c2.735-0.39,5.267,1.507,5.658,4.241l1.833,12.812c0.391,2.734-1.508,5.267-4.241,5.658       C432.948,34.812,432.709,34.828,432.474,34.828z" fill="#3F456B"/></g></g></g><g><g><g><path d="M413.188,43.278c-1.48,0-2.945-0.653-3.931-1.906l-8.044-10.212c-1.709-2.169-1.335-5.313,0.834-7.022       c2.17-1.709,5.314-1.335,7.021,0.834l8.044,10.213c1.709,2.169,1.335,5.313-0.834,7.021       C415.362,42.928,414.271,43.278,413.188,43.278z" fill="#3F456B"/></g></g></g></g></g></svg>