<?xml version="1.0" ?><svg viewBox="0 0 512 512" xmlns="http://www.w3.org/2000/svg"><defs><style>.cls-1{fill:#3f456b;}</style></defs><title/><g id="Lines"><path class="cls-1" d="M211,501H47a35,35,0,0,1-35-35V302a35,35,0,0,1,35-35H211a35,35,0,0,1,35,35V466A35,35,0,0,1,211,501ZM47,277a25,25,0,0,0-25,25V466a25,25,0,0,0,25,25H211a25,25,0,0,0,25-25V302a25,25,0,0,0-25-25Z"/><path class="cls-1" d="M466,501H302a35,35,0,0,1-35-35V302a35,35,0,0,1,35-35H466a35,35,0,0,1,35,35V466A35,35,0,0,1,466,501ZM302,277a25,25,0,0,0-25,25V466a25,25,0,0,0,25,25H466a25,25,0,0,0,25-25V302a25,25,0,0,0-25-25Z"/><path class="cls-1" d="M358.5,404.68C330,404.68,330,377,330,367.86c0-13.83,0-42.6,29.21-42.6,8.88,0,15.85,2.53,20.73,7.51a24.53,24.53,0,0,1,6.63,16.4,5,5,0,0,1-10-.18,14.44,14.44,0,0,0-3.87-9.3c-2.93-2.94-7.47-4.43-13.5-4.43-16.15,0-19.21,11.46-19.21,32.6,0,23.57,8.89,26.82,18.5,26.82,16.3,0,18.5-7.71,18.5-15.25a5,5,0,0,1,10,0C387,395.71,376.88,404.68,358.5,404.68Z"/><path class="cls-1" d="M416,402c-16.29,0-21.5-10.85-22-16.58a5,5,0,0,1,10-.84c.15,1.17,1.44,7.42,12,7.42,9.28,0,10-5.7,10-7.44,0-3,0-7.45-10.94-7.45-7.2,0-12.65-1.95-16.17-5.79a14.62,14.62,0,0,1-3.83-10.09,18,18,0,0,1,4.59-12.45c3.57-3.83,8.76-5.78,15.41-5.78,15.53,0,20.32,10.75,20.68,16.43a5,5,0,0,1-10,.71c-.17-1.69-1.45-7.14-10.71-7.14-3.76,0-6.49.87-8.09,2.6a8.2,8.2,0,0,0-1.92,5.27,2.9,2.9,0,0,1,0,.72,4.6,4.6,0,0,0,1.28,3.06c1.56,1.61,4.58,2.46,8.72,2.46,13.5,0,20.94,6.2,20.94,17.45C436,390.59,431.82,402,416,402Z"/><path class="cls-1" d="M99.5,405c-28.61,0-28.61-27.82-28.61-37,0-13.89,0-42.78,29.33-42.78,6.34,0,21.53,1.65,25.63,17a5,5,0,0,1-9.66,2.59c-1.7-6.34-7.07-9.55-16-9.55C84,335.26,80.89,346.78,80.89,368c0,23.69,8.94,27,18.61,27,16.4,0,18.61-7.76,18.61-15.34v-7.57h-15a5,5,0,1,1,0-10h20a5,5,0,0,1,5,5v12.57C128.11,396,118,405,99.5,405Z"/><path class="cls-1" d="M172,403a5,5,0,0,1-5-5V363.31c0-.11,0-.22,0-.33h0s.17-4.34-2.53-7.16C162.7,354,159.84,353,156,353s-6.53.91-8.08,2.69c-2.24,2.59-1.82,6.7-1.81,6.74a5,5,0,1,1-9.9,1.41c-.13-.87-1.07-8.68,4.16-14.7,3.53-4.07,8.79-6.14,15.63-6.14s12.08,2,15.83,6c5.26,5.61,5.24,12.9,5.17,14.4V398A5,5,0,0,1,172,403Z"/><path class="cls-1" d="M172,400H152c-6.43,0-16-4.26-16-16,0-5.84,2.42-9.3,4.44-11.18,4.39-4.07,10.31-4.05,11.7-4H172a5,5,0,0,1,0,10H151.62a6.86,6.86,0,0,0-4.4,1.36c-.3.28-1.22,1.15-1.22,3.82,0,5.1,3.79,5.95,6.05,6H172a5,5,0,0,1,0,10Z"/><path class="cls-1" d="M105.43,149c-21.72,0-28.64-14.21-29.27-21.73a5,5,0,1,1,10-.83C86.26,127.68,88,139,105.43,139c15.63,0,16.43-10.64,16.43-12.78,0-4.46,0-12.78-17.77-12.78-9.67,0-16.91-2.55-21.53-7.58a18.65,18.65,0,0,1-4.9-13c0-1.88.1-10,6-16.27,4.68-5,11.57-7.58,20.45-7.58,25.73,0,27.39,21.26,27.4,21.47a5,5,0,0,1-10,.69A13.75,13.75,0,0,0,119,85c-2.94-4-8-6-14.89-6-6,0-10.42,1.48-13.13,4.4-3.52,3.77-3.31,9.08-3.31,9.14a5.08,5.08,0,0,1,0,.78A8.67,8.67,0,0,0,90,99.21c2.63,2.77,7.49,4.23,14.06,4.23,23,0,27.77,12.39,27.77,22.78a23.06,23.06,0,0,1-4.73,13.62C123.89,144,117.5,149,105.43,149Z"/><path class="cls-1" d="M164.46,147H144a5,5,0,0,1-5-5V92a5,5,0,0,1,10,0v17h10.87c1.6-.07,9.86-.16,15.71,5.34,2.47,2.32,5.42,6.57,5.42,13.66,0,6.45-1.87,11.45-5.56,14.84A16.42,16.42,0,0,1,164.46,147Zm0-10a6.57,6.57,0,0,0,4.31-1.6c1.88-1.78,2.27-5,2.27-7.42,0-2.86-.74-4.94-2.26-6.37-3-2.84-8.37-2.64-8.43-2.64H149v18h15l.42,0Z"/><path class="cls-1" d="M335.93,149a5,5,0,0,1-5-5V74a5,5,0,0,1,10,0v70A5,5,0,0,1,335.93,149Z"/><path class="cls-1" d="M383.07,149a5,5,0,0,1-5-5V74a5,5,0,0,1,10,0v70A5,5,0,0,1,383.07,149Z"/><path class="cls-1" d="M383.07,113.29H335.93a5,5,0,0,1,0-10h47.14a5,5,0,0,1,0,10Z"/><path class="cls-1" d="M423,145a13.28,13.28,0,0,1-10.2-4.17c-4-4.38-3.89-10.51-3.8-12V92a5,5,0,0,1,10,0v37c0,.15,0,.3,0,.45-.07,1,.13,3.48,1.22,4.66.21.22.83.89,2.8.89a4,4,0,0,0,4-3.74,5,5,0,1,1,9.92,1.23C436.43,136.81,432.83,145,423,145Z"/><path class="cls-1" d="M431,112H402a5,5,0,0,1,0-10h29a5,5,0,0,1,0,10Z"/><path class="cls-1" d="M211,245H47a35,35,0,0,1-35-35V46A35,35,0,0,1,47,11H211a35,35,0,0,1,35,35V210A35,35,0,0,1,211,245ZM47,21A25,25,0,0,0,22,46V210a25,25,0,0,0,25,25H211a25,25,0,0,0,25-25V46a25,25,0,0,0-25-25Z"/><path class="cls-1" d="M466,245H302a35,35,0,0,1-35-35V46a35,35,0,0,1,35-35H466a35,35,0,0,1,35,35V210A35,35,0,0,1,466,245ZM302,21a25,25,0,0,0-25,25V210a25,25,0,0,0,25,25H466a25,25,0,0,0,25-25V46a25,25,0,0,0-25-25Z"/></g><g id="Outline"><path class="cls-1" d="M192,436H64a5,5,0,0,1,0-10H192a5,5,0,0,1,0,10Z"/><path class="cls-1" d="M177,460H79a5,5,0,0,1,0-10h98a5,5,0,0,1,0,10Z"/><path class="cls-1" d="M58,301H41a5,5,0,0,1,0-10H58a5,5,0,0,1,0,10Z"/><path class="cls-1" d="M448,436H320a5,5,0,0,1,0-10H448a5,5,0,0,1,0,10Z"/><path class="cls-1" d="M433,460H335a5,5,0,0,1,0-10h98a5,5,0,0,1,0,10Z"/><path class="cls-1" d="M314,301H297a5,5,0,0,1,0-10h17a5,5,0,0,1,0,10Z"/><path class="cls-1" d="M192,180H64a5,5,0,0,1,0-10H192a5,5,0,0,1,0,10Z"/><path class="cls-1" d="M177,204H79a5,5,0,0,1,0-10h98a5,5,0,0,1,0,10Z"/><path class="cls-1" d="M58,45H41a5,5,0,0,1,0-10H58a5,5,0,0,1,0,10Z"/><path class="cls-1" d="M448,180H320a5,5,0,0,1,0-10H448a5,5,0,0,1,0,10Z"/><path class="cls-1" d="M433,204H335a5,5,0,0,1,0-10h98a5,5,0,0,1,0,10Z"/><path class="cls-1" d="M314,45H297a5,5,0,0,1,0-10h17a5,5,0,0,1,0,10Z"/></g></svg>