<?xml version="1.0" ?><svg viewBox="0 0 512 512" xmlns="http://www.w3.org/2000/svg"><defs><style>.cls-1{fill:#3f456b;}</style></defs><title/><g id="Lines"><path class="cls-1" d="M256.51,200.57c-41.88,0-75.95-32.24-75.95-71.86V107.85a5,5,0,1,1,10,0v20.86c0,34.11,29.59,61.86,65.95,61.86s66-27.75,66-61.86l-.05-20.62a5,5,0,0,1,10,0l.05,20.62C332.5,168.33,298.41,200.57,256.51,200.57Z"/><path class="cls-1" d="M256.5,218.67c-47.95,0-70.85-24.38-81.61-44.82a106,106,0,0,1-11.75-44.45l0-4.88-.06-25.71c0-48.7,41.92-88.31,93.43-88.31s93.38,39.61,93.38,88.3v26l.08,4.52v.11a105.92,105.92,0,0,1-11.8,44.45C327.36,194.3,304.45,218.67,256.5,218.67Zm0-198.17c-46,0-83.43,35.12-83.43,78.3l.09,30.55a97.34,97.34,0,0,0,10.77,40.15c13.82,26,38.24,39.17,72.59,39.17s58.79-13.18,72.63-39.17a97.69,97.69,0,0,0,10.81-40.11l-.08-4.53V98.8C339.86,55.62,302.46,20.5,256.48,20.5Z"/><path class="cls-1" d="M99,155.54a5,5,0,0,1-4.17-2.24C72.44,119.64,49.89,83,49.66,82.6c-.53-.87-13.27-21.54-16.91-30.14A5,5,0,0,1,33,48.12,37.42,37.42,0,0,1,61.51,30.45a5,5,0,0,1,4.81,2.46L81,58c1,1.58,23.8,38.54,46.94,73a5,5,0,1,1-8.3,5.57C96,101.34,72.65,63.56,72.42,63.18l-.06-.1-13-22.2A27.57,27.57,0,0,0,43.07,51c4.41,9,15,26.2,15.11,26.39.23.37,22.69,36.9,45,70.41a5,5,0,0,1-1.4,6.93A4.94,4.94,0,0,1,99,155.54Z"/><path class="cls-1" d="M83.88,187.39a6.54,6.54,0,0,1-1.25-.12,6.35,6.35,0,0,1-4.13-2.8l-7.09-10.95a6.62,6.62,0,0,1,1.83-9l69.42-48.11a6.55,6.55,0,0,1,5-1,6.33,6.33,0,0,1,4.13,2.8l7.09,11a6.62,6.62,0,0,1-1.82,9L87.62,186.22A6.54,6.54,0,0,1,83.88,187.39Zm-2.24-16.48,3.25,5,63.75-44.18-3.25-5Zm68.84-36.31h0Zm0,0h0Z"/><path class="cls-1" d="M43.51,67.36a5,5,0,0,1-2.7-9.21L65.72,42.2a5,5,0,0,1,5.39,8.42L46.2,66.57A5,5,0,0,1,43.51,67.36Z"/><path class="cls-1" d="M323.33,156.34a5,5,0,0,1-2.05-.44c-.33-.14-33-14.77-49.78-20.71-13.82-4.89-28.58,0-28.73,0l-52.49,17.87a5,5,0,0,1-3.22-9.47l52.5-17.87c.72-.25,18.1-6.06,35.27,0s49.19,20.41,50.54,21a5,5,0,0,1-2,9.56Z"/><path class="cls-1" d="M229.83,116.5H219.17a5,5,0,1,1,0-10h10.66a5,5,0,1,1,0,10Z"/><path class="cls-1" d="M293.83,116.5H283.17a5,5,0,0,1,0-10h10.66a5,5,0,0,1,0,10Z"/><path class="cls-1" d="M384.81,392.72a5,5,0,0,1-1.73-.31,189.19,189.19,0,0,0-46.91-10.53,5,5,0,0,1,.65-10A195.84,195.84,0,0,1,386.53,383a5,5,0,0,1-1.72,9.69Z"/><path class="cls-1" d="M409.56,500.5H349.67a5,5,0,0,1-3.14-1.11c-.15-.12-15.31-12.18-38.94-21.14a5,5,0,0,1,3.54-9.35,170.1,170.1,0,0,1,40.24,21.6h58.19c13.14,0,25.24-8.2,30.83-20.88,3.19-7.24,8.45-26.45-11.61-48.42l-.81-.88a5,5,0,0,1,7.28-6.85l.92,1c16.67,18.26,21.67,40.39,13.37,59.19C442.35,490,426.66,500.5,409.56,500.5Z"/><path class="cls-1" d="M279,470.36a4.62,4.62,0,0,1-.82-.07,134.73,134.73,0,0,0-21.72-1.79,138.31,138.31,0,0,0-21.74,1.77,5,5,0,0,1-1.58-9.88,148.69,148.69,0,0,1,23.32-1.89,145.7,145.7,0,0,1,23.34,1.92,5,5,0,0,1-.8,9.94Z"/><path class="cls-1" d="M160.5,500.5H103.44c-17.1,0-32.79-10.54-40-26.85-8.3-18.8-3.3-40.93,13.37-59.19,1.35-1.48,2.78-2.95,4.25-4.35a5,5,0,1,1,6.93,7.2c-1.31,1.26-2.59,2.57-3.79,3.89-20.06,22-14.8,41.18-11.61,48.42C78.2,482.3,90.3,490.5,103.44,490.5h55.44a189.2,189.2,0,0,1,42-21.57,5,5,0,1,1,3.45,9.39A176.92,176.92,0,0,0,163.5,499.5,5,5,0,0,1,160.5,500.5Z"/><path class="cls-1" d="M133.56,390.85A5,5,0,0,1,132,381.1a195.33,195.33,0,0,1,44.19-9.2,5,5,0,0,1,.65,10h0a188.14,188.14,0,0,0-41.7,8.72A5,5,0,0,1,133.56,390.85Z"/><path class="cls-1" d="M185.56,117.86a5,5,0,0,1-5-5c0-20.09,13.37-36.38,38.66-47.12a149.86,149.86,0,0,1,37-10,5,5,0,1,1,1.17,9.93h0c-.67.08-66.81,8.34-66.81,47.2A5,5,0,0,1,185.56,117.86Z"/><path class="cls-1" d="M327.5,117.86a5,5,0,0,1-5-5c0-38.93-66.13-47.12-66.8-47.2a5,5,0,1,1,1.16-9.93,149.75,149.75,0,0,1,37,10c25.29,10.74,38.66,27,38.66,47.12A5,5,0,0,1,327.5,117.86Z"/><path class="cls-1" d="M296.88,344.23a5,5,0,0,1-3.85-1.81c-59.77-72-69.07-129-69.44-131.4a5,5,0,1,1,9.89-1.51c.05.33,2.35,14.42,11.68,36.81,8.66,20.82,25.34,53.28,55.57,89.72a5,5,0,0,1-3.85,8.19Z"/><path class="cls-1" d="M250.66,347.45a5,5,0,0,1-3.9-1.86c-52.87-65.49-63.57-141.25-64-144.45,0-.19-1.83-14.7-2.8-19.56a5,5,0,0,1,9.8-2c1.05,5.23,2.84,19.64,2.91,20.25s10.82,76.21,61.87,139.45a5,5,0,0,1-.75,7A4.94,4.94,0,0,1,250.66,347.45Z"/><path class="cls-1" d="M256.5,285a5,5,0,0,1-2.43-.63,5,5,0,0,1-1.94-6.8c22.44-40.32,26.84-67.75,26.88-68a5,5,0,1,1,9.88,1.51c-.18,1.19-4.72,29.5-28,71.38A5,5,0,0,1,256.5,285Z"/><path class="cls-1" d="M279.85,322.3a5,5,0,0,1-4.21-7.68c35.59-56,43.9-112.87,44.17-114.77l2-17.93a5,5,0,1,1,9.93,1.12l-2,18s0,.07,0,.1c-.33,2.44-8.46,60.35-45.65,118.84A5,5,0,0,1,279.85,322.3Z"/><path class="cls-1" d="M171.16,324.5a5,5,0,0,1-2.33-.58l-90.67-48a5,5,0,0,1-2.39-6.05,154,154,0,0,1,62.87-80.58C161,175,179.7,170.79,180.49,170.61a5,5,0,0,1,2.13,9.77h0c-.18,0-18.06,4.08-38.92,17.55-26.64,17.19-45.81,41.12-57,71.18l86.84,46a5,5,0,0,1-2.35,9.42Z"/><path class="cls-1" d="M341.84,324.5a5,5,0,0,1-2.35-9.42l86.84-46c-11.22-30.06-30.39-54-57-71.18-20.86-13.47-38.74-17.51-38.92-17.55a5,5,0,0,1,2.13-9.77c.79.18,19.53,4.36,41.85,18.68a154,154,0,0,1,62.87,80.58,5,5,0,0,1-2.39,6.05l-90.67,48A5,5,0,0,1,341.84,324.5Z"/><path class="cls-1" d="M263,389.06a541.15,541.15,0,0,1-87.35-7.25,5,5,0,0,1-3.81-3.22c-8.74-24.21-.25-44.24.12-45.08a5,5,0,0,1,5.48-2.93c.86.16,87.7,15.63,158,0a5,5,0,0,1,5.41,2.37c8.64,14.9,1.34,42.19.48,45.25a5,5,0,0,1-3.72,3.53C313.17,387.23,287,389.06,263,389.06Zm-82.67-16.61c15.53,2.49,90.2,13.19,152.13.21,1.82-7.81,4.09-22.32,1.16-31.43-63.19,12.94-135.37,2.87-153.69-.09A57.08,57.08,0,0,0,180.29,372.45Z"/><path class="cls-1" d="M176.5,340.5a5,5,0,0,1-4.74-3.42l-16-48a5,5,0,1,1,9.48-3.16l16,48a5,5,0,0,1-3.16,6.32A4.84,4.84,0,0,1,176.5,340.5Z"/><path class="cls-1" d="M336.5,340.5a4.84,4.84,0,0,1-1.58-.26,5,5,0,0,1-3.16-6.32l16-48a5,5,0,0,1,9.48,3.16l-16,48A5,5,0,0,1,336.5,340.5Z"/><path class="cls-1" d="M308.33,500.5H272.5a5,5,0,0,1-4.63-6.89c15.4-37.61-.09-107.9-.25-108.61a5,5,0,0,1,9.76-2.19c.64,2.84,14.66,66.53,2.18,107.69h24.1c.95-16.38,3-72.79-11.37-105.81a5,5,0,1,1,9.17-4c7.55,17.33,11.83,42,12.73,73.39a409.37,409.37,0,0,1-.87,41.83A5,5,0,0,1,308.33,500.5Z"/><path class="cls-1" d="M240.5,500.5H204.67a5,5,0,0,1-5-4.58c-.25-3-6-74.16,11.86-115.22a5,5,0,1,1,9.17,4c-14.37,33-12.32,89.43-11.37,105.81h24.1C221,449.34,235,385.65,235.62,382.81a5,5,0,0,1,9.76,2.19c-.16.71-15.63,71-.25,108.61a5,5,0,0,1-4.63,6.89Z"/><path class="cls-1" d="M247.16,387.69a5,5,0,0,1-4.88-3.92,103.37,103.37,0,0,1,0-42.51,5,5,0,0,1,9.72,2.37,94.58,94.58,0,0,0,0,38,5,5,0,0,1-3.8,6A5.1,5.1,0,0,1,247.16,387.69Z"/><path class="cls-1" d="M111.14,438.46a30.57,30.57,0,0,1-24.09-11.63c-5.84-7.65-8.91-17-11.37-26-16.33-59.71,15-120.61,16.39-123.17a5,5,0,0,1,8.86,4.64h0c-.31.59-30.88,60-15.61,115.89,2.19,8,4.88,16.29,9.68,22.59a20.48,20.48,0,0,0,18.56,7.54A16.29,16.29,0,0,0,127,418.48c2.36-5.45,1.82-11.83,1.25-18.59-.18-2.19-.37-4.46-.46-6.7-.26-6.87-.33-12.93-.21-18.54.36-17.65,2.22-31.87,5.85-44.76,2.87-10.16,6.61-18.36,11.44-25.07a5,5,0,0,1,8.12,5.85c-4.14,5.74-7.39,12.92-9.93,21.93-3.4,12-5.14,25.48-5.48,42.25-.11,5.42-.05,11.29.2,18,.08,2,.25,4.06.44,6.23.61,7.34,1.31,15.65-2,23.4a26.17,26.17,0,0,1-21.44,15.79A29.35,29.35,0,0,1,111.14,438.46Z"/><path class="cls-1" d="M83.56,414.39a5,5,0,0,1-2-9.6c.65-.28,14.57-6.22,27.24-8.41.9-9.28,6.34-22.08,23-24.44a5,5,0,0,1,1.4,9.9c-6.63.94-10.91,4.16-13.1,9.86a22.59,22.59,0,0,0-1.43,8.67,5,5,0,0,1-4.51,5.36c-12,1.16-28.53,8.18-28.7,8.25A4.9,4.9,0,0,1,83.56,414.39Z"/><path class="cls-1" d="M406.32,438.46a29.47,29.47,0,0,1-3.63-.22,26.17,26.17,0,0,1-21.44-15.79c-3.35-7.75-2.65-16.06-2-23.39.19-2.18.36-4.24.44-6.24.25-6.69.31-12.56.2-18-.34-16.77-2.08-30.2-5.48-42.25-2.54-9-5.79-16.19-9.93-21.93a5,5,0,0,1,8.12-5.85c4.83,6.71,8.57,14.91,11.44,25.07,3.63,12.89,5.49,27.11,5.85,44.76.12,5.6,0,11.66-.21,18.54-.09,2.24-.28,4.51-.46,6.71-.57,6.75-1.11,13.14,1.25,18.58a16.29,16.29,0,0,0,13.47,9.83,20.47,20.47,0,0,0,18.56-7.54c4.8-6.3,7.49-14.58,9.68-22.59,15.3-55.95-15.3-115.29-15.61-115.89a5,5,0,1,1,8.86-4.64c1.34,2.56,32.72,63.46,16.39,123.17-2.45,9-5.53,18.36-11.37,26A30.58,30.58,0,0,1,406.32,438.46Z"/><path class="cls-1" d="M433.9,414.39a4.9,4.9,0,0,1-2-.41c-.17-.07-16.65-7.09-28.7-8.25a5,5,0,0,1-4.51-5.36c.11-1.65.65-16.38-14.53-18.53a5,5,0,1,1,1.4-9.9c16.7,2.36,22.14,15.16,23,24.44,12.67,2.19,26.59,8.13,27.24,8.41a5,5,0,0,1-2,9.6Z"/><path class="cls-1" d="M76,374.8a5,5,0,0,1-2.67-9.23c23.72-15,58.81-10.73,60.29-10.54a5,5,0,1,1-1.26,9.92c-.51-.06-33.1-3.93-53.69,9.08A5,5,0,0,1,76,374.8Z"/><path class="cls-1" d="M440.83,374.8a5,5,0,0,1-2.7-.79c-20.36-13.07-52.46-9.1-52.79-9.06a5,5,0,0,1-1.28-9.92c1.47-.18,36.08-4.45,59.47,10.56a5,5,0,0,1-2.7,9.21Z"/><path class="cls-1" d="M463,240a5,5,0,0,1-3.57-1.5c-.88-.88-22.18-21.82-55.35-13.49a5,5,0,0,1-2.43-9.7,69.92,69.92,0,0,1,59,11.25l13.9-39.73c-8.09-5.52-33.37-19.69-68.25-10-25.07,7-42.49.42-52.69-6.28a53.27,53.27,0,0,1-16.45-16.77,5,5,0,0,1,8.73-4.87c.74,1.31,17.32,29.5,57.73,18.28,47-13.05,78.75,12.87,80.08,14a5,5,0,0,1,1.51,5.49l-17.5,50a5,5,0,0,1-3.63,3.23A5.06,5.06,0,0,1,463,240Z"/><path class="cls-1" d="M130.5,206.14a5,5,0,0,1-4.24-2.34c-3.92-6.22-22.76-34.34-23-34.62a5,5,0,1,1,8.31-5.57c.78,1.16,19.11,28.52,23.1,34.87a5,5,0,0,1-4.22,7.66Z"/><path class="cls-1" d="M154.09,191.16a5,5,0,0,1-4.3-2.44l-22-36.85a5,5,0,1,1,8.59-5.12l22,36.85a5,5,0,0,1-4.29,7.56Z"/></g><g id="Outline"><path class="cls-1" d="M53.52,84a5,5,0,0,1-2.68-9.22l25-15.8a5,5,0,1,1,5.34,8.45l-25,15.8A5,5,0,0,1,53.52,84Z"/><path class="cls-1" d="M65.43,102.73a5,5,0,0,1-2.77-9.17L86.18,78a5,5,0,1,1,5.52,8.34L68.18,101.9A5,5,0,0,1,65.43,102.73Z"/><path class="cls-1" d="M77.19,120.52a5,5,0,0,1-2.77-9.17L97.94,95.78a5,5,0,0,1,5.52,8.34L79.94,119.69A5,5,0,0,1,77.19,120.52Z"/><path class="cls-1" d="M89,137.82a5,5,0,0,1-2.76-9.17l23.52-15.57a5,5,0,1,1,5.52,8.33L91.74,137A5,5,0,0,1,89,137.82Z"/></g></svg>