<?xml version="1.0" ?><svg viewBox="0 0 512 512" xmlns="http://www.w3.org/2000/svg"><defs><style>.cls-1{fill:#3f456b;}</style></defs><title/><g id="Lines"><path class="cls-1" d="M48.53,146.48h-.17A40.72,40.72,0,0,1,38.15,66.7c-.07-.82-.1-1.64-.1-2.46a31.86,31.86,0,0,1,51-25.45,55.23,55.23,0,0,1,89-11.41,5,5,0,0,1-7.31,6.82,44.76,44.76,0,0,0-33.06-14.37A45.45,45.45,0,0,0,95.36,49a5,5,0,0,1-8.54,1.4A21.86,21.86,0,0,0,48.05,64.24a21.39,21.39,0,0,0,.61,5.11,5,5,0,0,1-4,6.12,30.71,30.71,0,0,0,3.49,61,6.57,6.57,0,0,1,1.56-.19H129a5,5,0,0,1,0,10H50.17A7,7,0,0,1,48.53,146.48Z"/><path class="cls-1" d="M64,80a5,5,0,0,1-3.07-1c-7-5.42-18.77-3.09-18.88-3.06A5,5,0,1,1,40,66.11c.67-.14,16.4-3.39,27.12,4.94A5,5,0,0,1,64,80Z"/><path class="cls-1" d="M497,501H129a5,5,0,0,1-5-5V472a5,5,0,0,1,5-5H497a5,5,0,0,1,5,5v24A5,5,0,0,1,497,501ZM134,491H492V477H134Z"/><path class="cls-1" d="M131,501H17a5,5,0,0,1-5-5V472a5,5,0,0,1,5-5H131a5,5,0,0,1,5,5v24A5,5,0,0,1,131,501ZM22,491H126V477H22Z"/><path class="cls-1" d="M161,477a5,5,0,0,1-5-5V408H42v26a5,5,0,0,1-10,0V403a5,5,0,0,1,5-5H161a5,5,0,0,1,5,5v69A5,5,0,0,1,161,477Z"/><path class="cls-1" d="M21.9,199.33a5,5,0,0,1-4.9-4l-4.53-22a5,5,0,0,1,3.71-5.86L336.91,88.81a5,5,0,0,1,3.86.63A5,5,0,0,1,343,92.66l4.53,22a5,5,0,0,1-3.71,5.86L23.09,199.19A4.78,4.78,0,0,1,21.9,199.33ZM23.24,176l2.51,12.21,311-76.27-2.51-12.21Z"/><path class="cls-1" d="M481.5,477a5,5,0,0,1-5-5V309H279V472a5,5,0,0,1-10,0V304a5,5,0,0,1,5-5H481.5a5,5,0,0,1,5,5V472A5,5,0,0,1,481.5,477Z"/><path class="cls-1" d="M449,477a5,5,0,0,1-5-5V356H311.5V472a5,5,0,0,1-10,0V351a5,5,0,0,1,5-5H449a5,5,0,0,1,5,5V472A5,5,0,0,1,449,477Z"/><path class="cls-1" d="M127,477a5,5,0,0,1-5-5c0-6.82-1.76-11.57-5.24-14.1-6.69-4.86-18.28-1.3-18.4-1.26a5,5,0,0,1-6.48-4c-.63-4.09-2.16-6.92-4.54-8.43-4.23-2.66-10.43-1-10.49-.95a5,5,0,0,1-6.34-3.78c-.44-1.92-3.42-11.67-17.71-9.48-14.09,2.17-13.42,16.5-13.29,18.13a5,5,0,0,1-4,5.31C22.15,456,22,470.28,22,470.88a5,5,0,0,1-10,0c0-7.32,3.78-21.35,17.52-26.17.64-9.15,5.6-22.11,21.77-24.59,17-2.6,24.35,6.73,27.29,12.7a22.37,22.37,0,0,1,14.09,2.93,19,19,0,0,1,7.83,10.18c5.71-.93,15-1.31,22.14,3.89,6.21,4.51,9.36,12,9.36,22.18A5,5,0,0,1,127,477Z"/><path class="cls-1" d="M328,211.88a5,5,0,0,1-5-5c0-7.32,3.78-21.35,17.52-26.17.64-9.15,5.6-22.11,21.77-24.59,17-2.61,24.35,6.73,27.29,12.7a22.37,22.37,0,0,1,14.09,2.93,19,19,0,0,1,7.73,9.9c5.79-1.3,15.12-2.21,22.29,2.68,6.18,4.22,9.31,11.51,9.31,21.67a5,5,0,0,1-10,0c0-6.64-1.66-11.15-4.93-13.4-5.47-3.76-15.17-1.31-18.44,0a5.06,5.06,0,0,1-4.31-.34,5,5,0,0,1-2.44-3.57c-.63-4.09-2.16-6.92-4.54-8.43-4.23-2.66-10.43-1-10.49-1a5,5,0,0,1-6.34-3.78c-.44-1.92-3.42-11.67-17.71-9.48-14.09,2.17-13.42,16.5-13.29,18.13a5,5,0,0,1-4.05,5.31C333.15,192,333,206.28,333,206.88A5,5,0,0,1,328,211.88Z"/><path class="cls-1" d="M49.32,408a5,5,0,0,1-5-5V188a5,5,0,0,1,10,0V403A5,5,0,0,1,49.32,408Z"/><path class="cls-1" d="M312,309a5,5,0,0,1-5-5V124a5,5,0,0,1,10,0V304A5,5,0,0,1,312,309Z"/><path class="cls-1" d="M146,406a5,5,0,0,1-5-5V335.5a5,5,0,0,1,5-5H274a5,5,0,0,1,0,10H151V401A5,5,0,0,1,146,406Z"/><path class="cls-1" d="M449,276a5,5,0,0,1-5-5V212H312a5,5,0,0,1,0-10H449a5,5,0,0,1,5,5v64A5,5,0,0,1,449,276Z"/><path class="cls-1" d="M273,245H81a5,5,0,0,1-5-5V207a5,5,0,0,1,5-5H273a5,5,0,0,1,5,5v33A5,5,0,0,1,273,245ZM86,235H268V212H86Z"/><path class="cls-1" d="M114,309H81a5,5,0,0,1-5-5V271a5,5,0,0,1,5-5h33a5,5,0,0,1,5,5v33A5,5,0,0,1,114,309ZM86,299h23V276H86Z"/><path class="cls-1" d="M177,309H144a5,5,0,0,1-5-5V271a5,5,0,0,1,5-5h33a5,5,0,0,1,5,5v33A5,5,0,0,1,177,309Zm-28-10h23V276H149Z"/><path class="cls-1" d="M273,453H161a5,5,0,0,1,0-10H273a5,5,0,0,1,0,10Z"/><path class="cls-1" d="M449,245H348a5,5,0,0,1-5-5V207a5,5,0,0,1,5-5H449a5,5,0,0,1,5,5v33A5,5,0,0,1,449,245Zm-96-10h91V212H353Z"/><path class="cls-1" d="M246,453a5,5,0,0,1-5-5V372H195v76a5,5,0,0,1-10,0V367a5,5,0,0,1,5-5h56a5,5,0,0,1,5,5v81A5,5,0,0,1,246,453Z"/><path class="cls-1" d="M230.5,414.5a5,5,0,0,1-5-5v-1a5,5,0,0,1,10,0v1A5,5,0,0,1,230.5,414.5Z"/><path class="cls-1" d="M475,308.5a5,5,0,0,1-5-5v-27H312a5,5,0,0,1,0-10H475a5,5,0,0,1,5,5v32A5,5,0,0,1,475,308.5Z"/><path class="cls-1" d="M145,373H50a5,5,0,0,1,0-10h95a5,5,0,0,1,0,10Z"/><path class="cls-1" d="M417,189.75a5,5,0,0,1-5-5V37H135V139a5,5,0,0,1-10,0V32a5,5,0,0,1,5-5H417a5,5,0,0,1,5,5V184.75A5,5,0,0,1,417,189.75Z"/><path class="cls-1" d="M385,148H313.12a5,5,0,0,1,0-10H380V69H166v68.1a5,5,0,1,1-10,0V64a5,5,0,0,1,5-5H385a5,5,0,0,1,5,5v79A5,5,0,0,1,385,148Z"/></g><g id="Outline"><path class="cls-1" d="M449,384H307a5,5,0,0,1,0-10H449a5,5,0,0,1,0,10Z"/><path class="cls-1" d="M439,333h-1a5,5,0,0,1,0-10h1a5,5,0,0,1,0,10Zm-21,0h-1a5,5,0,0,1,0-10h1a5,5,0,0,1,0,10Zm-21,0h-1a5,5,0,0,1,0-10h1a5,5,0,0,1,0,10Zm-21,0h-1a5,5,0,0,1,0-10h1a5,5,0,0,1,0,10Zm-21,0h-1a5,5,0,0,1,0-10h1a5,5,0,0,1,0,10Zm-21,0h-1a5,5,0,0,1,0-10h1a5,5,0,0,1,0,10Zm-21,0h-1a5,5,0,0,1,0-10h1a5,5,0,0,1,0,10Z"/><path class="cls-1" d="M449,408H307a5,5,0,0,1,0-10H449a5,5,0,0,1,0,10Z"/><path class="cls-1" d="M449,432H307a5,5,0,0,1,0-10H449a5,5,0,0,1,0,10Z"/><path class="cls-1" d="M449,456H307a5,5,0,0,1,0-10H449a5,5,0,0,1,0,10Z"/><path class="cls-1" d="M69,463a5,5,0,0,1-4.64-3.14c-.68-1.69-1.52-3.79-7.65-2.91-3.87.55-4.91,2.21-5,2.28a1.13,1.13,0,0,0,.13-.27L42.69,455c.29-.68,3.09-6.63,12.6-8,11.5-1.64,16.33,4,18.35,9.09a5,5,0,0,1-2.78,6.5A4.88,4.88,0,0,1,69,463Z"/><path class="cls-1" d="M380,199a5,5,0,0,1-4.64-3.14c-.68-1.69-1.52-3.79-7.65-2.91-3.87.55-4.91,2.21-4.95,2.28a1.13,1.13,0,0,0,.13-.27l-9.2-3.92c.29-.68,3.09-6.63,12.6-8,11.5-1.64,16.33,4,18.35,9.09a5,5,0,0,1-2.78,6.5A4.88,4.88,0,0,1,380,199Z"/><path class="cls-1" d="M422,309a5,5,0,0,1-5-5V273a5,5,0,0,1,10,0v31A5,5,0,0,1,422,309Z"/><path class="cls-1" d="M449,309a5,5,0,0,1-5-5V273a5,5,0,0,1,10,0v31A5,5,0,0,1,449,309Z"/><path class="cls-1" d="M394.67,309a5,5,0,0,1-5-5V273a5,5,0,0,1,10,0v31A5,5,0,0,1,394.67,309Z"/><path class="cls-1" d="M367.33,309a5,5,0,0,1-5-5V273a5,5,0,0,1,10,0v31A5,5,0,0,1,367.33,309Z"/><path class="cls-1" d="M340,309a5,5,0,0,1-5-5V273a5,5,0,0,1,10,0v31A5,5,0,0,1,340,309Z"/><path class="cls-1" d="M209.54,244a5,5,0,0,1-5-5V208a5,5,0,0,1,10,0v31A5,5,0,0,1,209.54,244Z"/><path class="cls-1" d="M241,244a5,5,0,0,1-5-5V208a5,5,0,0,1,10,0v31A5,5,0,0,1,241,244Z"/><path class="cls-1" d="M177.69,244a5,5,0,0,1-5-5V208a5,5,0,0,1,10,0v31A5,5,0,0,1,177.69,244Z"/><path class="cls-1" d="M145.85,244a5,5,0,0,1-5-5V208a5,5,0,0,1,10,0v31A5,5,0,0,1,145.85,244Z"/><path class="cls-1" d="M114,244a5,5,0,0,1-5-5V208a5,5,0,0,1,10,0v31A5,5,0,0,1,114,244Z"/><path class="cls-1" d="M414.85,244a5,5,0,0,1-5-5V208a5,5,0,0,1,10,0v31A5,5,0,0,1,414.85,244Z"/><path class="cls-1" d="M383,244a5,5,0,0,1-5-5V208a5,5,0,0,1,10,0v31A5,5,0,0,1,383,244Z"/></g></svg>