<?xml version="1.0" ?><svg viewBox="0 0 512 512" xmlns="http://www.w3.org/2000/svg"><defs><style>.cls-1{fill:#3f456b;}</style></defs><title/><g id="Lines"><path class="cls-1" d="M255,399.5c-56,0-95.13-10.06-96.77-10.49C93.79,371,49.74,332.81,27.23,275.64c-18-45.87-17.21-91.45-16.8-113.35.05-2.6.09-4.84.09-6.68,0-16.34,3.81-27.77,11.33-34A20.1,20.1,0,0,1,37,117H474.74A18.9,18.9,0,0,1,489,121.32c7.47,6.11,11.25,17.64,11.25,34.29,0,1.84,0,4.08.09,6.67.4,21.87,1.25,67.39-16.74,113.22-22.42,57.12-66.31,95.28-130.45,113.4l-.12,0C351.34,389.37,311,399.5,255,399.5ZM34.89,126.86a10.55,10.55,0,0,0-6.83,2.61c-3.44,2.94-7.54,9.87-7.54,26.14,0,1.89,0,4.19-.09,6.86C20,183.73,19.21,228,36.54,272c21.3,54.1,63.12,90.23,124.31,107.38.3.07,39.52,10.14,94.15,10.14,53.73,0,93.8-9.81,95.51-10.24C411.44,362,453.09,325.89,474.3,271.85c17.26-44,16.44-88.16,16.05-109.39-.05-2.66-.09-5-.09-6.85,0-16.82-4.12-23.72-7.58-26.55a9.09,9.09,0,0,0-6.57-2.16,4.75,4.75,0,0,1-1,.1H36.66a4.91,4.91,0,0,1-.94-.09A6.7,6.7,0,0,0,34.89,126.86Z"/><path class="cls-1" d="M342.52,461H170.1c-6.69,0-10.3-3-12.15-5.44-5-6.73-2.36-16.77-1.93-18.25.64-2.38,10.6-37.79,41.11-50.79a5,5,0,1,1,3.92,9.2c-26.34,11.23-35.3,43.88-35.38,44.21l0,.15c-.61,2.12-1.34,7.26.36,9.52.26.34,1.05,1.4,4.12,1.4H342.52c3.33,0,4.23-1.18,4.53-1.57,1.77-2.33,1.16-7.46.61-9.45-.1-.38-9.05-33-35.4-44.26a5,5,0,0,1,3.92-9.2c30.91,13.17,40.73,49.33,41.14,50.86.3,1.08,2.9,11.26-2.32,18.1C353.09,458,349.37,461,342.52,461Z"/><path class="cls-1" d="M384.23,126.5l-.49,0a5,5,0,0,1-4.49-5.47c0-.39,2.81-31.44-12.46-48.26C360.31,65.62,351.26,62,339.9,62s-20.56,3.65-27.2,10.84c-15.63,16.94-13.35,48-13.32,48.26a5,5,0,0,1-10,.8c-.12-1.45-2.63-35.72,15.95-55.85,8.6-9.32,20.23-14,34.54-14s25.86,4.73,34.32,14.06c18.27,20.15,15.13,54.48,15,55.93A5,5,0,0,1,384.23,126.5Z"/><path class="cls-1" d="M218.23,126.5l-.49,0a5,5,0,0,1-4.49-5.47c0-.39,2.81-31.44-12.46-48.26C194.31,65.62,185.26,62,173.9,62s-20.56,3.65-27.2,10.84c-15.63,16.94-13.35,48-13.32,48.26a5,5,0,0,1-10,.8c-.12-1.45-2.63-35.72,16-55.85,8.6-9.32,20.23-14,34.54-14s25.86,4.73,34.32,14.06c18.27,20.15,15.13,54.48,15,55.93A5,5,0,0,1,218.23,126.5Z"/></g><g id="Outline"><path class="cls-1" d="M461,153a5,5,0,0,1,5-5h0a5,5,0,0,1,5,5h0a5,5,0,0,1-5,5h0A5,5,0,0,1,461,153Zm-30,0a5,5,0,0,1,5-5h0a5,5,0,0,1,5,5h0a5,5,0,0,1-5,5h0A5,5,0,0,1,431,153Zm-30,0a5,5,0,0,1,5-5h0a5,5,0,0,1,5,5h0a5,5,0,0,1-5,5h0A5,5,0,0,1,401,153Zm-30,0a5,5,0,0,1,5-5h0a5,5,0,0,1,5,5h0a5,5,0,0,1-5,5h0A5,5,0,0,1,371,153Zm-30,0a5,5,0,0,1,5-5h0a5,5,0,0,1,5,5h0a5,5,0,0,1-5,5h0A5,5,0,0,1,341,153Zm-30,0a5,5,0,0,1,5-5h0a5,5,0,0,1,5,5h0a5,5,0,0,1-5,5h0A5,5,0,0,1,311,153Zm-30,0a5,5,0,0,1,5-5h0a5,5,0,0,1,5,5h0a5,5,0,0,1-5,5h0A5,5,0,0,1,281,153Zm-30,0a5,5,0,0,1,5-5h0a5,5,0,0,1,5,5h0a5,5,0,0,1-5,5h0A5,5,0,0,1,251,153Zm-30,0a5,5,0,0,1,5-5h0a5,5,0,0,1,5,5h0a5,5,0,0,1-5,5h0A5,5,0,0,1,221,153Zm-30,0a5,5,0,0,1,5-5h0a5,5,0,0,1,5,5h0a5,5,0,0,1-5,5h0A5,5,0,0,1,191,153Zm-30,0a5,5,0,0,1,5-5h0a5,5,0,0,1,5,5h0a5,5,0,0,1-5,5h0A5,5,0,0,1,161,153Zm-30,0a5,5,0,0,1,5-5h0a5,5,0,0,1,5,5h0a5,5,0,0,1-5,5h0A5,5,0,0,1,131,153Zm-30,0a5,5,0,0,1,5-5h0a5,5,0,0,1,5,5h0a5,5,0,0,1-5,5h0A5,5,0,0,1,101,153Zm-30,0a5,5,0,0,1,5-5h0a5,5,0,0,1,5,5h0a5,5,0,0,1-5,5h0A5,5,0,0,1,71,153Zm-30,0a5,5,0,0,1,5-5h0a5,5,0,0,1,5,5h0a5,5,0,0,1-5,5h0A5,5,0,0,1,41,153Z"/><path class="cls-1" d="M461,195a5,5,0,0,1,5-5h0a5,5,0,0,1,5,5h0a5,5,0,0,1-5,5h0A5,5,0,0,1,461,195Zm-30,0a5,5,0,0,1,5-5h0a5,5,0,0,1,5,5h0a5,5,0,0,1-5,5h0A5,5,0,0,1,431,195Zm-30,0a5,5,0,0,1,5-5h0a5,5,0,0,1,5,5h0a5,5,0,0,1-5,5h0A5,5,0,0,1,401,195Zm-30,0a5,5,0,0,1,5-5h0a5,5,0,0,1,5,5h0a5,5,0,0,1-5,5h0A5,5,0,0,1,371,195Zm-30,0a5,5,0,0,1,5-5h0a5,5,0,0,1,5,5h0a5,5,0,0,1-5,5h0A5,5,0,0,1,341,195Zm-30,0a5,5,0,0,1,5-5h0a5,5,0,0,1,5,5h0a5,5,0,0,1-5,5h0A5,5,0,0,1,311,195Zm-30,0a5,5,0,0,1,5-5h0a5,5,0,0,1,5,5h0a5,5,0,0,1-5,5h0A5,5,0,0,1,281,195Zm-30,0a5,5,0,0,1,5-5h0a5,5,0,0,1,5,5h0a5,5,0,0,1-5,5h0A5,5,0,0,1,251,195Zm-30,0a5,5,0,0,1,5-5h0a5,5,0,0,1,5,5h0a5,5,0,0,1-5,5h0A5,5,0,0,1,221,195Zm-30,0a5,5,0,0,1,5-5h0a5,5,0,0,1,5,5h0a5,5,0,0,1-5,5h0A5,5,0,0,1,191,195Zm-30,0a5,5,0,0,1,5-5h0a5,5,0,0,1,5,5h0a5,5,0,0,1-5,5h0A5,5,0,0,1,161,195Zm-30,0a5,5,0,0,1,5-5h0a5,5,0,0,1,5,5h0a5,5,0,0,1-5,5h0A5,5,0,0,1,131,195Zm-30,0a5,5,0,0,1,5-5h0a5,5,0,0,1,5,5h0a5,5,0,0,1-5,5h0A5,5,0,0,1,101,195Zm-30,0a5,5,0,0,1,5-5h0a5,5,0,0,1,5,5h0a5,5,0,0,1-5,5h0A5,5,0,0,1,71,195Zm-30,0a5,5,0,0,1,5-5h0a5,5,0,0,1,5,5h0a5,5,0,0,1-5,5h0A5,5,0,0,1,41,195Z"/><path class="cls-1" d="M461,237a5,5,0,0,1,5-5h0a5,5,0,0,1,5,5h0a5,5,0,0,1-5,5h0A5,5,0,0,1,461,237Zm-30,0a5,5,0,0,1,5-5h0a5,5,0,0,1,5,5h0a5,5,0,0,1-5,5h0A5,5,0,0,1,431,237Zm-30,0a5,5,0,0,1,5-5h0a5,5,0,0,1,5,5h0a5,5,0,0,1-5,5h0A5,5,0,0,1,401,237Zm-30,0a5,5,0,0,1,5-5h0a5,5,0,0,1,5,5h0a5,5,0,0,1-5,5h0A5,5,0,0,1,371,237Zm-30,0a5,5,0,0,1,5-5h0a5,5,0,0,1,5,5h0a5,5,0,0,1-5,5h0A5,5,0,0,1,341,237Zm-30,0a5,5,0,0,1,5-5h0a5,5,0,0,1,5,5h0a5,5,0,0,1-5,5h0A5,5,0,0,1,311,237Zm-30,0a5,5,0,0,1,5-5h0a5,5,0,0,1,5,5h0a5,5,0,0,1-5,5h0A5,5,0,0,1,281,237Zm-30,0a5,5,0,0,1,5-5h0a5,5,0,0,1,5,5h0a5,5,0,0,1-5,5h0A5,5,0,0,1,251,237Zm-30,0a5,5,0,0,1,5-5h0a5,5,0,0,1,5,5h0a5,5,0,0,1-5,5h0A5,5,0,0,1,221,237Zm-30,0a5,5,0,0,1,5-5h0a5,5,0,0,1,5,5h0a5,5,0,0,1-5,5h0A5,5,0,0,1,191,237Zm-30,0a5,5,0,0,1,5-5h0a5,5,0,0,1,5,5h0a5,5,0,0,1-5,5h0A5,5,0,0,1,161,237Zm-30,0a5,5,0,0,1,5-5h0a5,5,0,0,1,5,5h0a5,5,0,0,1-5,5h0A5,5,0,0,1,131,237Zm-30,0a5,5,0,0,1,5-5h0a5,5,0,0,1,5,5h0a5,5,0,0,1-5,5h0A5,5,0,0,1,101,237Zm-30,0a5,5,0,0,1,5-5h0a5,5,0,0,1,5,5h0a5,5,0,0,1-5,5h0A5,5,0,0,1,71,237Zm-30,0a5,5,0,0,1,5-5h0a5,5,0,0,1,5,5h0a5,5,0,0,1-5,5h0A5,5,0,0,1,41,237Z"/><path class="cls-1" d="M432.62,280a5,5,0,0,1,5-5h0a5,5,0,0,1,5,5h0a5,5,0,0,1-5,5h0A5,5,0,0,1,432.62,280Zm-30,0a5,5,0,0,1,5-5h0a5,5,0,0,1,5,5h0a5,5,0,0,1-5,5h0A5,5,0,0,1,402.62,280Zm-30,0a5,5,0,0,1,5-5h0a5,5,0,0,1,5,5h0a5,5,0,0,1-5,5h0A5,5,0,0,1,372.62,280Zm-30,0a5,5,0,0,1,5-5h0a5,5,0,0,1,5,5h0a5,5,0,0,1-5,5h0A5,5,0,0,1,342.62,280Zm-30,0a5,5,0,0,1,5-5h0a5,5,0,0,1,5,5h0a5,5,0,0,1-5,5h0A5,5,0,0,1,312.62,280Zm-30,0a5,5,0,0,1,5-5h0a5,5,0,0,1,5,5h0a5,5,0,0,1-5,5h0A5,5,0,0,1,282.62,280Zm-30,0a5,5,0,0,1,5-5h0a5,5,0,0,1,5,5h0a5,5,0,0,1-5,5h0A5,5,0,0,1,252.62,280Zm-30,0a5,5,0,0,1,5-5h0a5,5,0,0,1,5,5h0a5,5,0,0,1-5,5h0A5,5,0,0,1,222.62,280Zm-30,0a5,5,0,0,1,5-5h0a5,5,0,0,1,5,5h0a5,5,0,0,1-5,5h0A5,5,0,0,1,192.62,280Zm-30,0a5,5,0,0,1,5-5h0a5,5,0,0,1,5,5h0a5,5,0,0,1-5,5h0A5,5,0,0,1,162.63,280Zm-30,0a5,5,0,0,1,5-5h0a5,5,0,0,1,5,5h0a5,5,0,0,1-5,5h0A5,5,0,0,1,132.62,280Zm-30,0a5,5,0,0,1,5-5h0a5,5,0,0,1,5,5h0a5,5,0,0,1-5,5h0A5,5,0,0,1,102.62,280Zm-30,0a5,5,0,0,1,5-5h0a5,5,0,0,1,5,5h0a5,5,0,0,1-5,5h0A5,5,0,0,1,72.63,280Z"/><path class="cls-1" d="M399.6,322a5,5,0,0,1,5-5h0a5,5,0,0,1,5,5h0a5,5,0,0,1-5,5h0A5,5,0,0,1,399.6,322Zm-30,0a5,5,0,0,1,5-5h0a5,5,0,0,1,5,5h0a5,5,0,0,1-5,5h0A5,5,0,0,1,369.6,322Zm-30,0a5,5,0,0,1,5-5h0a5,5,0,0,1,5,5h0a5,5,0,0,1-5,5h0A5,5,0,0,1,339.6,322Zm-30,0a5,5,0,0,1,5-5h0a5,5,0,0,1,5,5h0a5,5,0,0,1-5,5h0A5,5,0,0,1,309.6,322Zm-30,0a5,5,0,0,1,5-5h0a5,5,0,0,1,5,5h0a5,5,0,0,1-5,5h0A5,5,0,0,1,279.6,322Zm-30,0a5,5,0,0,1,5-5h0a5,5,0,0,1,5,5h0a5,5,0,0,1-5,5h0A5,5,0,0,1,249.6,322Zm-30,0a5,5,0,0,1,5-5h0a5,5,0,0,1,5,5h0a5,5,0,0,1-5,5h0A5,5,0,0,1,219.6,322Zm-30,0a5,5,0,0,1,5-5h0a5,5,0,0,1,5,5h0a5,5,0,0,1-5,5h0A5,5,0,0,1,189.6,322Zm-30,0a5,5,0,0,1,5-5h0a5,5,0,0,1,5,5h0a5,5,0,0,1-5,5h0A5,5,0,0,1,159.6,322Zm-30,0a5,5,0,0,1,5-5h0a5,5,0,0,1,5,5h0a5,5,0,0,1-5,5h0A5,5,0,0,1,129.6,322Zm-30,0a5,5,0,0,1,5-5h0a5,5,0,0,1,5,5h0a5,5,0,0,1-5,5h0A5,5,0,0,1,99.6,322Z"/><path class="cls-1" d="M332.61,364a5,5,0,0,1,5-5h0a5,5,0,0,1,5,5h0a5,5,0,0,1-5,5h0A5,5,0,0,1,332.61,364Zm-30,0a5,5,0,0,1,5-5h0a5,5,0,0,1,5,5h0a5,5,0,0,1-5,5h0A5,5,0,0,1,302.61,364Zm-30,0a5,5,0,0,1,5-5h0a5,5,0,0,1,5,5h0a5,5,0,0,1-5,5h0A5,5,0,0,1,272.61,364Zm-30,0a5,5,0,0,1,5-5h0a5,5,0,0,1,5,5h0a5,5,0,0,1-5,5h0A5,5,0,0,1,242.61,364Zm-30,0a5,5,0,0,1,5-5h0a5,5,0,0,1,5,5h0a5,5,0,0,1-5,5h0A5,5,0,0,1,212.61,364Zm-30,0a5,5,0,0,1,5-5h0a5,5,0,0,1,5,5h0a5,5,0,0,1-5,5h0A5,5,0,0,1,182.62,364Zm-30,0a5,5,0,0,1,5-5h0a5,5,0,0,1,5,5h0a5,5,0,0,1-5,5h0A5,5,0,0,1,152.62,364Z"/></g></svg>