<?xml version="1.0" ?><svg viewBox="0 0 512 512" xmlns="http://www.w3.org/2000/svg"><defs><style>.cls-1{fill:#3f456b;}</style></defs><title/><g id="Lines"><path class="cls-1" d="M112.27,88.71h-.33a5,5,0,0,1-4.66-5.31c2.32-35.51,53.84-37.27,78.59-38.12,2-.07,3.87-.13,5.52-.21a13.17,13.17,0,0,0,9.88-4.47c5.85-6.7,6.11-19.7,5.72-24.14A5,5,0,0,1,212,11h88.35a5,5,0,0,1,5,5.67c0,.14-1.85,14.78,4.77,23,2.62,3.24,6.23,5,11,5.42,2.56.21,5.61.37,9.14.55,25,1.31,71.44,3.73,73.67,37.62a5,5,0,0,1-10,.66C392.4,60.82,360,57.2,329.7,55.62c-3.45-.18-6.72-.35-9.44-.58-7.6-.63-13.66-3.71-18-9.14C296,38.17,295,27.48,295,21H217.08c-.15,6.78-1.49,18.38-8.26,26.14a23,23,0,0,1-17,7.91c-1.68.08-3.57.14-5.63.21-23.49.81-67.22,2.3-69,28.78A5,5,0,0,1,112.27,88.71Z"/><path class="cls-1" d="M495,436H16a5,5,0,0,1-5-5V84a5,5,0,0,1,5-5H495a5,5,0,0,1,5,5V431A5,5,0,0,1,495,436ZM21,426H490V89H21Z"/><path class="cls-1" d="M352,500H160a5,5,0,0,1-5-5V431a5,5,0,0,1,5-5H352a5,5,0,0,1,5,5v64A5,5,0,0,1,352,500ZM165,490H347V436H165Z"/><path class="cls-1" d="M101,462.4a31.59,31.59,0,0,1-31.55-31.55,5,5,0,0,1,10,0,21.55,21.55,0,0,0,43.1,0,5,5,0,0,1,10,0A31.59,31.59,0,0,1,101,462.4Z"/><path class="cls-1" d="M410,462.66a31.85,31.85,0,0,1-31.82-31.81,5,5,0,0,1,10,0,21.82,21.82,0,0,0,43.64,0,5,5,0,0,1,10,0A31.85,31.85,0,0,1,410,462.66Z"/></g><g id="Outline"><path class="cls-1" d="M111.6,250a4.82,4.82,0,0,1-1.12-.13,5,5,0,0,1-3.76-6c10.06-43.88,9.17-112.12,9.16-112.81a5,5,0,0,1,4.93-5.07h.07a5,5,0,0,1,5,4.92c0,2.85.92,70.13-9.41,115.2A5,5,0,0,1,111.6,250Z"/><path class="cls-1" d="M96.12,379a5,5,0,0,1-4.92-4.14C78.69,303.08,98,262.49,98.85,260.8a5,5,0,0,1,9,4.39h0c-.19.39-18.7,39.65-6.79,108A5,5,0,0,1,97,378.93,5.07,5.07,0,0,1,96.12,379Z"/><path class="cls-1" d="M109.53,352a5,5,0,0,1-4.58-7c12.54-29,4-63.42,3.87-63.77a5,5,0,0,1,9.68-2.49c.4,1.54,9.55,38-4.38,70.24A5,5,0,0,1,109.53,352Z"/><path class="cls-1" d="M256,347a5,5,0,0,1-5-5V143a5,5,0,0,1,10,0V342A5,5,0,0,1,256,347Z"/><path class="cls-1" d="M231.54,189.19c-16,0-33.89-2.38-42.6-11.76-4.72-5.08-6.41-11.79-4.89-19.41,2.84-14.23,12-25.67,26.62-33.1A72.33,72.33,0,0,1,231.61,118,5,5,0,0,1,233,128h0c-1.37.19-33.69,5-39.09,32-.9,4.52-.14,7.9,2.41,10.64,8.79,9.47,36.78,9.73,58.08,7.09a5,5,0,1,1,1.23,9.92A200.69,200.69,0,0,1,231.54,189.19Z"/><path class="cls-1" d="M218,219.65a123.69,123.69,0,0,1-13-.68l-.26,0c-14.3-2.25-24.2-7.84-29.41-16.6-7-11.72-2.56-24.48-2.37-25a5,5,0,0,1,9.43,3.33c-.07.19-3,9.07,1.58,16.66,3.63,6,11.09,10,22.2,11.73,27.27,2.8,47.28-5.1,47.48-5.18a5,5,0,0,1,3.74,9.28C256.56,213.45,240.85,219.64,218,219.65Z"/><path class="cls-1" d="M206,247c-13.55,0-28.36-2.91-37.67-11.18A26.67,26.67,0,0,1,159.2,215a5,5,0,0,1,5-5h0a5,5,0,0,1,5,5A16.86,16.86,0,0,0,175,228.39c8.93,7.92,27.1,9.76,41.15,8.05,11.89-1.44,25.36-3.08,36.86-8a5,5,0,1,1,4,9.18c-12.83,5.53-27.06,7.25-39.62,8.78A94.8,94.8,0,0,1,206,247Z"/><path class="cls-1" d="M198.07,275.3c-30.77,0-38.27-20.73-38.6-21.67a5,5,0,0,1,9.44-3.3c.3.79,6.77,17.26,35.06,14.69,31.56-2.87,48.36-12.27,48.52-12.36a5,5,0,1,1,4.95,8.68c-.75.43-18.86,10.58-52.56,13.64C202.49,275.2,200.22,275.3,198.07,275.3Z"/><path class="cls-1" d="M195.62,317.85a36.51,36.51,0,0,1-5.32-.38c-12.68-1.81-22.79-10.85-27.72-24.8a5,5,0,0,1,9.43-3.34c1.73,4.89,7.1,16.44,19.71,18.25,17.08,2.44,29-10.84,33.37-16.67.86-1.14,1.7-2.31,2.54-3.48,6.48-9,13.82-19.15,27.75-20.89a5,5,0,0,1,1.24,9.92c-9.61,1.2-14.83,8.44-20.88,16.82-.87,1.21-1.74,2.42-2.63,3.61C223.13,310.28,209.42,317.85,195.62,317.85Z"/><path class="cls-1" d="M255,387c-20.57,0-33.05-9-41.76-30.09-6.64-16.12-24.9-14-25.68-14-8.58,1.22-14.9,4.67-18.72,10.22-7.06,10.28-3.89,24.56-3.86,24.7a5,5,0,0,1-9.75,2.24c-.17-.76-4.15-18.75,5.37-32.6,5.46-8,14.08-12.83,25.62-14.47,9.22-1.21,28.58,1.41,36.27,20C230.64,372.93,241.38,377,255,377a5,5,0,1,1,0,10Z"/><path class="cls-1" d="M214.15,156.28c-50,0-70-18.78-71-19.69a5,5,0,0,1,6.93-7.2c.38.35,24.58,22.23,86.79,15.64A5,5,0,1,1,238,155,226.15,226.15,0,0,1,214.15,156.28Z"/><path class="cls-1" d="M400.42,250a5,5,0,0,1-4.87-3.88c-10.33-45.07-9.45-112.35-9.4-115.2a5,5,0,0,1,5-4.92h.08a5,5,0,0,1,4.92,5.07c0,.69-.9,68.93,9.16,112.81a5,5,0,0,1-3.75,6A4.9,4.9,0,0,1,400.42,250Z"/><path class="cls-1" d="M415.91,379a5.1,5.1,0,0,1-.87-.07,5,5,0,0,1-4.07-5.79c6.23-35.7,4-63.15,1.13-79.89-3.17-18.14-7.87-28-7.91-28.06a5,5,0,0,1,9-4.39c.83,1.69,20.17,42.28,7.66,114.06A5,5,0,0,1,415.91,379Z"/><path class="cls-1" d="M402.5,352a5,5,0,0,1-4.6-3c-13.93-32.21-4.77-68.7-4.38-70.24a5,5,0,0,1,9.69,2.5c-.14.56-8.63,34.86,3.87,63.76a5,5,0,0,1-4.58,7Z"/><path class="cls-1" d="M280.49,189.19a201,201,0,0,1-24.05-1.56,5,5,0,0,1,1.23-9.92c21.3,2.64,49.3,2.38,58.09-7.09,2.54-2.74,3.31-6.12,2.41-10.64-5.41-27.06-37.72-31.84-39.1-32a5,5,0,0,1,1.35-9.91,72.33,72.33,0,0,1,20.94,6.88c14.57,7.43,23.77,18.87,26.61,33.1,1.52,7.62-.17,14.33-4.89,19.41C314.37,186.8,296.45,189.19,280.49,189.19Z"/><path class="cls-1" d="M294.07,219.65c-22.89,0-38.6-6.2-39.37-6.51a5,5,0,0,1,3.73-9.28c.19.08,20.38,8,47.49,5.18,11.15-1.77,18.64-5.75,22.24-11.81,4.53-7.61,1.58-16.47,1.55-16.55a5,5,0,0,1,9.42-3.36c.19.54,4.6,13.3-2.37,25-5.22,8.77-15.11,14.35-29.42,16.6l-.26,0A126.44,126.44,0,0,1,294.07,219.65Zm12.5-5.65h0Z"/><path class="cls-1" d="M306,247a95.1,95.1,0,0,1-11.33-.67c-12.56-1.53-26.79-3.25-39.61-8.78a5,5,0,1,1,4-9.18c11.49,5,25,6.59,36.86,8,14.05,1.71,32.22-.13,41.14-8.05A16.87,16.87,0,0,0,342.83,215a5,5,0,0,1,5-5h0a5,5,0,0,1,5,5,26.68,26.68,0,0,1-9.15,20.87C334.38,244.13,319.57,247,306,247Z"/><path class="cls-1" d="M314,275.3c-2.15,0-4.42-.1-6.8-.32-33.7-3.06-51.82-13.21-52.57-13.64a5,5,0,1,1,5-8.68c.15.09,17.17,9.51,48.51,12.36,28.37,2.58,34.8-14,35.06-14.7a5,5,0,0,1,9.44,3.31C352.23,254.57,344.72,275.3,314,275.3Z"/><path class="cls-1" d="M316.41,317.85c-13.81,0-27.51-7.57-37.5-21q-1.32-1.78-2.62-3.6c-6.05-8.39-11.27-15.63-20.88-16.83a5,5,0,0,1,1.24-9.92c13.93,1.74,21.27,11.92,27.75,20.9.84,1.16,1.68,2.33,2.53,3.47,4.34,5.83,16.3,19.1,33.38,16.67,12.6-1.81,18-13.36,19.71-18.25a5,5,0,0,1,9.42,3.34c-4.93,13.95-15,23-27.72,24.8A36.38,36.38,0,0,1,316.41,317.85Z"/><path class="cls-1" d="M257.06,387a5,5,0,1,1,0-10c13.59,0,24.32-4.07,32.51-23.91,7.68-18.63,27.05-21.26,36.22-20,11.58,1.65,20.2,6.52,25.67,14.48,9.51,13.85,5.54,31.84,5.37,32.6a5,5,0,0,1-9.76-2.22h0c0-.15,3.15-14.57-3.89-24.77-3.82-5.52-10.13-8.95-18.75-10.18-.71-.09-19-2.16-25.62,14C290.11,378,277.62,387,257.06,387Z"/><path class="cls-1" d="M297.87,156.28A226.29,226.29,0,0,1,274.06,155a5,5,0,0,1,1.06-9.94c62.38,6.61,86.55-15.42,86.78-15.64a5,5,0,0,1,6.94,7.2C367.9,137.5,347.87,156.28,297.87,156.28Z"/><path class="cls-1" d="M46,153a5,5,0,0,1-5-5V114a5,5,0,0,1,5-5H80a5,5,0,0,1,0,10H51v29A5,5,0,0,1,46,153Z"/><path class="cls-1" d="M467,153a5,5,0,0,1-5-5V119H433a5,5,0,0,1,0-10h34a5,5,0,0,1,5,5v34A5,5,0,0,1,467,153Z"/><path class="cls-1" d="M467,405H433a5,5,0,0,1,0-10h29V366a5,5,0,0,1,10,0v34A5,5,0,0,1,467,405Z"/><path class="cls-1" d="M80,405H46a5,5,0,0,1-5-5V366a5,5,0,0,1,10,0v29H80a5,5,0,0,1,0,10Z"/></g></svg>