<?xml version="1.0" ?><svg viewBox="0 0 512 512" xmlns="http://www.w3.org/2000/svg"><defs><style>.cls-1{fill:#3f456b;}</style></defs><title/><g id="Lines"><path class="cls-1" d="M366,445H147a55.06,55.06,0,0,1-55-55V282a55.06,55.06,0,0,1,55-55H366a55.06,55.06,0,0,1,55,55V390A55.06,55.06,0,0,1,366,445ZM147,237a45.05,45.05,0,0,0-45,45V390a45.05,45.05,0,0,0,45,45H366a45.05,45.05,0,0,0,45-45V282a45.05,45.05,0,0,0-45-45Z"/><path class="cls-1" d="M98.84,408.41a5,5,0,0,1-4.53-2.88L43.47,297.12A5,5,0,0,1,43,295V232a5,5,0,0,1,5-5h99a5,5,0,0,1,0,10H53v56.89l50.37,107.39a5,5,0,0,1-2.41,6.65A4.86,4.86,0,0,1,98.84,408.41Z"/><path class="cls-1" d="M414.16,408.41a4.86,4.86,0,0,1-2.12-.48,5,5,0,0,1-2.41-6.65L460,293.89V237H366a5,5,0,0,1,0-10h99a5,5,0,0,1,5,5v63a5,5,0,0,1-.47,2.12L418.69,405.53A5,5,0,0,1,414.16,408.41Z"/><path class="cls-1" d="M415,286H97a5,5,0,0,1,0-10H415a5,5,0,0,1,0,10Z"/><path class="cls-1" d="M337,381H175a5,5,0,0,1,0-10H337a5,5,0,0,1,0,10Z"/><path class="cls-1" d="M336,401a5,5,0,0,1-5-5V378a5,5,0,0,1,10,0v18A5,5,0,0,1,336,401Z"/><path class="cls-1" d="M340,445H174a35,35,0,0,1-35-35V373a35,35,0,0,1,35-35H340a35,35,0,0,1,35,35v37A35,35,0,0,1,340,445ZM174,348a25,25,0,0,0-25,25v37a25,25,0,0,0,25,25H340a25,25,0,0,0,25-25V373a25,25,0,0,0-25-25Z"/><path class="cls-1" d="M464,237a5,5,0,0,1-1.18-9.86C464,226.85,492,219.37,492,183c0-11.55-3-41.16-30.53-66.71C434.08,90.88,391.86,78,336,78H176c-55,0-96.83,12.88-124.23,38.29C24,142.05,21,171.52,21,183c0,36.37,28,43.85,29.2,44.15a5,5,0,0,1-2.38,9.71,49,49,0,0,1-18.59-10.2C20.91,219.48,11,206.07,11,183c0-12.79,3.31-45.6,34-74,29.3-27.18,73.38-41,131-41H336c58.47,0,103,13.78,132.28,41C498.71,137.19,502,170.14,502,183c0,23.07-9.92,36.48-18.23,43.66a49,49,0,0,1-18.59,10.2A4.81,4.81,0,0,1,464,237Z"/><path class="cls-1" d="M32,227a5.1,5.1,0,0,1-.87-.07,5,5,0,0,1-4.07-5.79c4.54-26.1,18.87-47.9,41.42-63C94.3,140.78,130.47,132,176,132H336c45.43,0,81.79,8.86,108.08,26.34,22.78,15.14,37.25,36.5,41.84,61.77a5,5,0,1,1-9.84,1.78c-4.1-22.52-17.08-41.62-37.54-55.23C413.92,150.3,379.42,142,336,142H176C67.23,142,42.18,192.66,36.93,222.86A5,5,0,0,1,32,227Z"/><path class="cls-1" d="M49,301a4.81,4.81,0,0,1-1.18-.14,49,49,0,0,1-18.59-10.2C20.91,283.48,11,270.07,11,247V183a5,5,0,0,1,10,0v64c0,36.37,28,43.85,29.2,44.15A5,5,0,0,1,49,301Z"/><path class="cls-1" d="M465,301a5,5,0,0,1-1.23-9.85C465,290.84,492,283.35,492,247V183a5,5,0,0,1,10,0v64c0,23-9.61,36.43-17.67,43.61a47.16,47.16,0,0,1-18.12,10.24A5,5,0,0,1,465,301Z"/><path class="cls-1" d="M374,338h-6.06a15,15,0,0,1-15-15V291.75a15,15,0,0,1,15-15H374a15,15,0,0,1,15,15V323A15,15,0,0,1,374,338Zm-6.06-51.25a5,5,0,0,0-5,5V323a5,5,0,0,0,5,5H374a5,5,0,0,0,5-5V291.75a5,5,0,0,0-5-5Z"/><path class="cls-1" d="M371,323.19a5,5,0,0,1-5-5v-.76a5,5,0,0,1,10,0v.76A5,5,0,0,1,371,323.19Z"/></g><g id="Outline"><path class="cls-1" d="M103.5,262H103a5,5,0,0,1,0-10h.5a5,5,0,0,1,0,10Z"/><path class="cls-1" d="M389.07,262h-1a5,5,0,0,1,0-10h1a5,5,0,0,1,0,10Zm-20.4,0h-1a5,5,0,0,1,0-10h1a5,5,0,1,1,0,10Zm-20.39,0h-1a5,5,0,1,1,0-10h1a5,5,0,0,1,0,10Zm-20.4,0h-1a5,5,0,0,1,0-10h1a5,5,0,0,1,0,10Zm-20.4,0h-1a5,5,0,0,1,0-10h1a5,5,0,0,1,0,10Zm-20.4,0h-1a5,5,0,0,1,0-10h1a5,5,0,0,1,0,10Zm-20.4,0h-1a5,5,0,0,1,0-10h1a5,5,0,1,1,0,10Zm-20.39,0h-1a5,5,0,0,1,0-10h1a5,5,0,0,1,0,10Zm-20.4,0h-1a5,5,0,1,1,0-10h1a5,5,0,0,1,0,10Zm-20.4,0h-1a5,5,0,1,1,0-10h1a5,5,0,0,1,0,10Zm-20.4,0h-1a5,5,0,0,1,0-10h1a5,5,0,1,1,0,10Zm-20.4,0h-1a5,5,0,0,1,0-10h1a5,5,0,0,1,0,10Zm-20.39,0h-1a5,5,0,0,1,0-10h1a5,5,0,0,1,0,10Zm-20.4,0h-1a5,5,0,0,1,0-10h1a5,5,0,0,1,0,10Z"/><path class="cls-1" d="M409,262h-.5a5,5,0,0,1,0-10h.5a5,5,0,0,1,0,10Z"/><path class="cls-1" d="M465,262H412a5,5,0,0,1,0-10h53a5,5,0,0,1,0,10Z"/><path class="cls-1" d="M101,262H49a5,5,0,0,1,0-10h52a5,5,0,0,1,0,10Z"/><path class="cls-1" d="M321,141a5,5,0,0,1-5-5V73a5,5,0,0,1,10,0v63A5,5,0,0,1,321,141Z"/></g></svg>