<?xml version="1.0" ?><svg viewBox="0 0 512 512" xmlns="http://www.w3.org/2000/svg"><defs><style>.cls-1{fill:#3f456b;}</style></defs><title/><g id="Lines"><path class="cls-1" d="M255.61,347a138.57,138.57,0,0,1-86.53-30.42,5,5,0,0,1,6.27-7.8A126.77,126.77,0,0,0,255.61,337a128.35,128.35,0,0,0,83-30.47,5,5,0,1,1,6.47,7.62A138.38,138.38,0,0,1,255.61,347Z"/><path class="cls-1" d="M335.53,500H177a5,5,0,0,1-4.87-6.11C188.79,421,187.52,327.16,187.5,326.22a5,5,0,0,1,4.92-5.08h.08a5,5,0,0,1,5,4.92c0,.92,1.24,90.88-14.28,163.94H329.31C313.79,416.94,315,327,315,326.06a5,5,0,1,1,10,.16c0,.94-1.29,94.8,15.38,167.67a5,5,0,0,1-4.88,6.11Z"/><path class="cls-1" d="M138.63,489.62c-11.2,0-24.94-2.05-37.39-9.67-15.61-9.54-25.75-25.69-30.15-48a97,97,0,0,1,3.68-52.14c3.65-10.16,9.32-19.17,14.81-27.88,5.3-8.43,10.32-16.39,13.6-25.25,7.56-20.37,7.4-41.6,4.84-67.2a5,5,0,0,1,10-1c2.69,27,2.81,49.5-5.42,71.67-3.65,9.84-9.17,18.62-14.52,27.1-5.44,8.65-10.58,16.81-13.85,25.94A86.86,86.86,0,0,0,80.91,430c3.82,19.41,12.4,33.32,25.49,41.36,13.28,8.14,28.81,8.77,39.46,7.87a63.44,63.44,0,0,1-22-28.18c-11.16-29.23,3.9-55.67,16.21-73,2.61-3.67,5.4-7.12,8.09-10.46,6.5-8,12.64-15.63,15.47-25.33,8-27.33-1.74-57.66-11.13-87-4.76-14.87-9.69-30.26-12.07-44.81-9.11-55.69.08-96.6,27.33-121.6C188.88,69.5,221.13,59.35,256.24,61a5,5,0,1,1-.48,10c-32-1.5-62.35,7.93-81.22,25.24-13.73,12.6-22.43,30-25.85,51.73-2.75,17.48-2.22,37.39,1.63,60.88,2.26,13.82,6.86,28.18,11.72,43.39,9.85,30.76,20,62.57,11.21,92.83-3.39,11.64-10.46,20.38-17.29,28.83-2.6,3.21-5.29,6.54-7.72,10-17.68,24.93-22.31,44.57-15,63.66,4.78,12.53,15.07,23.18,29,30a5,5,0,0,1-.83,9.3A90.27,90.27,0,0,1,138.63,489.62Z"/><path class="cls-1" d="M423.8,471.59c-1.24,0-2.47,0-3.72-.1a5,5,0,1,1,.53-10c14.67.77,28.3-3.82,38.38-12.94C474,435,480.7,410.25,477,382.26c-2.78-21.21-12.43-39.65-22.65-59.17C444.85,304.87,435,286,431.3,264.8c-3.25-18.75-3.78-37.75-4.3-56.13-.63-22.75-1.29-46.27-7.22-68.86-8.65-32.91-26.65-61.18-52.07-81.75-45-36.43-109.12-47.21-167.32-28.13-54.46,17.85-93.52,57.9-107.18,109.88-5.93,22.59-6.59,46.11-7.22,68.86-.51,18.38-1,37.38-4.3,56.13C78,286,68.15,304.87,58.61,323.09c-10.23,19.52-19.88,38-22.65,59.17-3.67,28,3.08,52.78,18,66.31,10.08,9.12,23.71,13.72,38.39,12.94a5,5,0,0,1,.52,10c-17.34.92-33.55-4.58-45.61-15.5C22.22,433.31,24.08,396,26,381c3-23,13.53-43.07,23.71-62.51,9.6-18.34,18.68-35.67,22.09-55.36,3.13-18,3.65-36.68,4.15-54.7.65-23.31,1.32-47.42,7.55-71.12C98.07,82,139.53,39.36,197.28,20.43,258.66.3,326.38,11.75,374,50.29c27.09,21.91,46.26,52,55.45,87,6.23,23.7,6.9,47.81,7.55,71.12.5,18,1,36.66,4.15,54.7,3.42,19.69,12.49,37,22.1,55.36C473.42,337.89,484,358,487,381c2,15,3.82,52.35-21.25,75C454.5,466.12,439.73,471.59,423.8,471.59Z"/><path class="cls-1" d="M374.36,489.62a90.27,90.27,0,0,1-22.74-2.81,5,5,0,0,1-.83-9.3c13.91-6.82,24.2-17.47,29-30,7.29-19.09,2.66-38.73-15-63.66-2.43-3.42-5.12-6.75-7.72-10-6.83-8.45-13.9-17.19-17.29-28.83C330.92,314.8,341.1,283,351,252.23c4.86-15.21,9.46-29.57,11.72-43.39,3.85-23.49,4.38-43.4,1.63-60.88-3.41-21.72-12.11-39.13-25.85-51.73C319.58,78.92,289.22,69.49,257.23,71a5,5,0,1,1-.47-10c35.11-1.66,67.35,8.49,88.45,27.85,27.25,25,36.45,65.91,27.33,121.6-2.38,14.55-7.31,29.94-12.07,44.81-9.39,29.34-19.09,59.67-11.13,87,2.83,9.7,9,17.29,15.47,25.33,2.7,3.34,5.49,6.79,8.1,10.46,12.3,17.35,27.36,43.79,16.21,73a63.53,63.53,0,0,1-22,28.18c10.65.9,26.18.27,39.46-7.87,13.09-8,21.67-21.95,25.5-41.36a87,87,0,0,0-3.28-46.82c-3.28-9.13-8.42-17.29-13.86-25.94-5.34-8.48-10.87-17.26-14.52-27.1-8.22-22.17-8.11-44.68-5.41-71.67a5,5,0,1,1,10,1c-2.56,25.6-2.72,46.83,4.84,67.2,3.29,8.86,8.3,16.82,13.6,25.25,5.49,8.71,11.16,17.72,14.81,27.88A96.89,96.89,0,0,1,441.9,432c-4.4,22.29-14.54,38.44-30.15,48C399.3,487.57,385.56,489.62,374.36,489.62Z"/><path class="cls-1" d="M142,474.44a5,5,0,0,1-4.91-4.1c-.18-1-4.25-24.48,9.69-43.28,8.94-12.05,23-19.27,41.91-21.46a5,5,0,1,1,1.15,9.94c-16,1.85-27.8,7.73-35,17.47-11.38,15.36-7.92,35.34-7.88,35.54a5,5,0,0,1-4,5.81A4.56,4.56,0,0,1,142,474.44Z"/><path class="cls-1" d="M370.65,474.44a4.56,4.56,0,0,1-.9-.08,5,5,0,0,1-4-5.8c0-.31,3.4-20.39-7.94-35.62-7.22-9.7-19-15.55-35-17.4A5,5,0,0,1,324,405.6c18.87,2.19,33,9.41,41.91,21.46,13.94,18.8,9.87,42.29,9.69,43.28A5,5,0,0,1,370.65,474.44Z"/><path class="cls-1" d="M252,258c-7.3,0-12.78-2.08-16.3-6.18a16.45,16.45,0,0,1-3.7-12.11V185c0-5.75-1.91-10-5.83-13-13.33-10.2-46.29-4.31-57.86-1.17a5,5,0,1,1-2.62-9.66c1.89-.51,46.57-12.4,66.55,2.88,6.48,4.95,9.76,12,9.76,20.95v55a4.87,4.87,0,0,1-.06.76h0a6.59,6.59,0,0,0,1.4,4.61c1.93,2.17,5.77,2.63,8.66,2.63a5,5,0,0,1,0,10Z"/><path class="cls-1" d="M277,190a5,5,0,0,1-5-5c0-8.95,3.28-16,9.76-20.95,20-15.28,64.66-3.39,66.55-2.88a5,5,0,0,1-2.62,9.66c-11.57-3.14-44.53-9-57.86,1.17-3.92,3-5.83,7.25-5.83,13A5,5,0,0,1,277,190Z"/></g><g id="Outline"><path class="cls-1" d="M256,69a5,5,0,0,1-5-5V16a5,5,0,0,1,10,0V64A5,5,0,0,1,256,69Z"/></g></svg>