<?xml version="1.0" ?><svg enable-background="new 0 0 512 512" version="1.1" viewBox="0 0 512 512" xml:space="preserve" xmlns="http://www.w3.org/2000/svg" xmlns:xlink="http://www.w3.org/1999/xlink"><g id="Lines"><g><g><g><g><g><path d="M181.659,463.5c-0.551,0-1.114-0.059-1.686-0.18c-1.993-0.42-3.533-1.488-4.359-2.062        c-3.558-2.465-6.821-5.164-9.976-7.774l-1.764-1.456c-0.441-0.363-0.897-0.766-1.354-1.169        c-0.365-0.323-0.729-0.647-1.081-0.937c-0.057-0.047-0.119-0.101-0.185-0.158c-1.04,0.324-2.085,0.67-3.164,1.026        c-2.185,0.723-4.443,1.47-6.834,2.084c-0.316,0.081-0.74,0.212-1.237,0.363c-4.599,1.394-13.163,3.991-16.715-2.117        c-1.292-2.222-0.895-4.525-0.746-5.394c0.831-4.817,2.467-9.244,4.048-13.526l0.599-1.627c0.648-1.773,1.235-3.34,1.754-4.688        c-4.5-5.131-10.791-13.369-11.898-18.82c-0.764-3.764,0.501-6.161,1.697-7.511c2.099-2.367,4.993-2.68,6.333-2.684        c4.934-0.471,15.346,0.88,21.068,1.717c4.256-7.165,9.292-13.444,10.915-15.287c1.451-1.647,3.091-2.719,4.874-3.183        c2.14-0.559,4.613-0.234,6.616,0.867c0.635,0.347,1.236,0.795,1.781,1.328c1.144,1.116,2.008,2.585,2.562,4.36        c0.731,2.341,2.772,10.128,3.741,18.405c5.567,1.567,15.626,4.58,19.939,7.015c1.223,0.551,3.739,2.014,4.691,5.031        c0.543,1.719,0.722,4.425-1.51,7.55c-3.193,4.475-12.119,9.372-18.312,12.24c0.055,6.822-0.691,13.464-2.266,20.202        C188.28,461.021,185.245,463.499,181.659,463.5z M162.331,439.239c0.353,0,0.792,0.056,1.136,0.13        c1.89,0.4,3.17,1.676,4.105,2.606c0.106,0.105,0.203,0.205,0.287,0.282c0.375,0.307,0.831,0.709,1.287,1.112        c0.365,0.323,0.729,0.647,1.081,0.937l1.784,1.473c2.713,2.245,5.296,4.381,8.025,6.358c1.19-6.038,1.627-12.02,1.336-18.208        c-0.099-2.106,1.134-4.049,3.083-4.855c6.17-2.554,12.935-6.396,15.915-8.924c-4.296-1.93-13.912-4.797-19.655-6.33        c-2.056-0.549-3.54-2.339-3.697-4.462c-0.552-7.448-2.389-15.146-3.289-18.436c-2.164,2.64-6.977,8.921-10.514,15.497        c-1.008,1.874-3.092,2.901-5.194,2.568c-5.842-0.936-15.726-2.227-20.463-2.227c-0.022,0-0.044,0-0.067,0        c1.692,3.523,6.304,9.787,10.899,14.634c1.361,1.436,1.748,3.539,0.986,5.365c-0.475,1.139-1.342,3.319-2.778,7.247        l-0.611,1.659c-1.152,3.119-2.255,6.104-3.008,9.104c1.556-0.32,3.344-0.862,4.137-1.103c0.663-0.201,1.229-0.371,1.652-0.479        c2.062-0.529,4.063-1.191,6.182-1.893c1.946-0.644,3.958-1.31,6.07-1.883C161.448,439.298,161.888,439.239,162.331,439.239z         M134.91,406.861c0.007,0,0.015,0.001,0.023,0.002C134.925,406.862,134.917,406.861,134.91,406.861z" fill="#3F456B"/></g></g></g></g><g><g><g><g><path d="M379.393,114.554c-0.877,0-1.777-0.154-2.675-0.476c-1.915-0.686-3.296-1.95-4.038-2.63        c-3.203-2.932-6.078-6.056-8.858-9.076l-1.53-1.659c-0.386-0.417-0.784-0.878-1.183-1.339        c-0.317-0.369-0.634-0.739-0.942-1.072c-0.052-0.056-0.106-0.117-0.164-0.185c-1.073,0.181-2.154,0.382-3.271,0.59        c-2.263,0.421-4.603,0.855-7.056,1.142c-0.323,0.037-0.761,0.109-1.273,0.192c-4.746,0.76-13.582,2.179-16.277-4.357        c-0.979-2.374-0.274-4.604-0.009-5.443c1.474-4.661,3.692-8.827,5.839-12.855l0.815-1.536        c0.882-1.668,1.673-3.139,2.369-4.402c-3.767-5.692-8.886-14.707-9.246-20.255c-0.249-3.833,1.328-6.038,2.696-7.213        c2.398-2.061,5.308-1.98,6.638-1.803c4.949,0.204,15.085,2.945,20.643,4.547c5.187-6.524,11.024-12.066,12.881-13.672        c1.663-1.438,3.435-2.278,5.264-2.495c2.196-0.262,4.597,0.393,6.433,1.752c0.586,0.434,1.12,0.958,1.586,1.558        c0.985,1.265,1.643,2.837,1.949,4.67c0.408,2.415,1.378,10.406,1.22,18.739c5.305,2.305,14.864,6.649,18.809,9.644        c1.138,0.711,3.433,2.501,3.969,5.619c0.306,1.777,0.116,4.481-2.517,7.277c-3.768,4.001-13.273,7.648-19.798,9.653        c-0.867,6.769-2.505,13.249-4.976,19.711C385.397,112.558,382.548,114.554,379.393,114.554z M361.815,87.788        c0.576,0,1.15,0.1,1.695,0.296l0.084,0.03c1.825,0.656,2.921,2.093,3.722,3.142c0.091,0.119,0.174,0.231,0.247,0.319        c0.326,0.351,0.725,0.812,1.123,1.272c0.317,0.369,0.634,0.739,0.942,1.072l1.55,1.68c2.392,2.599,4.669,5.072,7.113,7.407        c1.995-5.82,3.236-11.688,3.784-17.861c0.187-2.1,1.671-3.857,3.71-4.394c6.46-1.697,13.681-4.59,16.975-6.692        c-3.998-2.494-13.138-6.634-18.619-8.928c-1.964-0.821-3.191-2.796-3.061-4.92c0.459-7.456-0.321-15.33-0.769-18.711        c-2.499,2.321-8.116,7.895-12.512,13.935c-1.252,1.719-3.457,2.462-5.493,1.843c-5.688-1.724-15.371-4.354-20.04-4.979        c1.201,3.718,4.924,10.548,8.822,15.972c1.154,1.606,1.253,3.742,0.252,5.449c-0.623,1.061-1.775,3.102-3.729,6.8        l-0.832,1.565c-1.562,2.935-3.059,5.743-4.21,8.615c1.585-0.107,3.431-0.403,4.249-0.534c0.683-0.109,1.267-0.201,1.699-0.252        c2.116-0.246,4.189-0.632,6.384-1.04c2.014-0.375,4.097-0.762,6.267-1.045C361.384,87.802,361.6,87.788,361.815,87.788z         M404.316,72.803L404.316,72.803L404.316,72.803z M404.316,72.802C404.316,72.803,404.316,72.803,404.316,72.802        C404.316,72.803,404.316,72.803,404.316,72.802z M339.694,52.048c0.006,0.002,0.012,0.003,0.019,0.004        C339.707,52.051,339.701,52.05,339.694,52.048z" fill="#3F456B"/></g></g></g></g><g><g><g><path d="M463.462,382.616c-25.947,0.003-52.767-22.924-55.192-25.045l-102.693-79.032       c-0.054-0.041-0.106-0.084-0.159-0.127l0,0c-0.225-0.188-22.775-18.75-49.567-18.75c-26.964,0-50.67,18.8-50.906,18.989       c-0.027,0.021-0.055,0.044-0.083,0.065L102.397,357.57c-2.508,2.193-31.268,26.738-58.054,24.951       c-10.191-0.689-18.803-5.039-25.597-12.93c-11.955-13.887-12.737-31.622-2.26-51.29c7.503-14.087,18.151-24.186,18.601-24.608       l121.021-117.266c3.135-3.492,44.808-48.72,99.11-48.72c54.049,0,96.999,46.051,100.096,49.453l120.318,116.583       c0.396,0.372,11.044,10.471,18.547,24.558c10.477,19.668,9.695,37.403-2.26,51.29c-6.793,7.89-15.405,12.24-25.596,12.93       C465.374,382.585,464.416,382.616,463.462,382.616z M255.219,137.708c-50.721,0-91.357,45.049-91.761,45.504       c-0.083,0.093-0.171,0.186-0.26,0.271L41.993,300.926c-0.149,0.142-10.078,9.589-16.783,22.271       c-8.385,15.857-8.01,29.272,1.115,39.87c5.052,5.869,11.167,8.969,18.693,9.478c23.336,1.575,50.612-22.337,50.885-22.578       c0.086-0.077,0.175-0.15,0.266-0.221l102.557-78.926c1.611-1.285,27.021-21.157,57.124-21.157       c29.896,0,53.987,19.427,55.9,21.011l102.748,79.072c0.091,0.07,0.18,0.144,0.266,0.221       c0.271,0.239,27.615,24.146,50.905,22.577c7.517-0.514,13.625-3.613,18.673-9.477c22.288-25.887-15.233-61.73-15.614-62.09       L348.239,184.229c-0.081-0.079-0.16-0.16-0.236-0.245C347.588,183.524,305.64,137.708,255.219,137.708z" fill="#3F456B"/></g></g></g><g><g><g><path d="M146.75,322.13c-1.405,0-2.802-0.589-3.791-1.736l-57.377-66.603c-1.802-2.093-1.567-5.249,0.524-7.052       c2.093-1.803,5.25-1.566,7.052,0.524l57.377,66.603c1.802,2.093,1.567,5.249-0.524,7.052       C149.067,321.731,147.906,322.13,146.75,322.13z" fill="#3F456B"/></g></g></g><g><g><g><path d="M118.969,342.425c-1.405,0-2.802-0.589-3.791-1.736l-54.91-63.738       c-1.802-2.093-1.567-5.249,0.524-7.052c2.093-1.804,5.25-1.566,7.052,0.524l54.91,63.738c1.802,2.093,1.567,5.249-0.524,7.052       C121.286,342.026,120.124,342.425,118.969,342.425z" fill="#3F456B"/></g></g></g><g><g><g><path d="M364.225,322.13c-1.156,0-2.317-0.398-3.262-1.212c-2.092-1.803-2.327-4.959-0.524-7.052l57.378-66.603       c1.804-2.092,4.961-2.325,7.052-0.524c2.092,1.803,2.327,4.959,0.524,7.052l-57.378,66.603       C367.025,321.541,365.629,322.13,364.225,322.13z" fill="#3F456B"/></g></g></g><g><g><g><path d="M336.685,299.887c-1.156,0-2.317-0.398-3.262-1.212c-2.092-1.803-2.327-4.959-0.524-7.052       l60.483-70.207c1.805-2.092,4.961-2.325,7.052-0.524c2.092,1.803,2.327,4.959,0.524,7.052l-60.483,70.207       C339.485,299.298,338.089,299.887,336.685,299.887z" fill="#3F456B"/></g></g></g><g><g><g><path d="M174.887,299.887c-1.405,0-2.802-0.589-3.791-1.736l-60.483-70.207       c-1.802-2.093-1.567-5.249,0.524-7.052c2.093-1.803,5.25-1.566,7.052,0.524l60.483,70.207c1.802,2.093,1.567,5.249-0.524,7.052       C177.204,299.488,176.042,299.887,174.887,299.887z" fill="#3F456B"/></g></g></g><g><g><g><path d="M392.007,342.425c-1.156,0-2.317-0.398-3.262-1.212c-2.092-1.803-2.327-4.959-0.524-7.052l54.91-63.738       c1.805-2.092,4.961-2.326,7.052-0.524c2.092,1.803,2.327,4.959,0.524,7.052l-54.91,63.738       C394.808,341.836,393.411,342.425,392.007,342.425z" fill="#3F456B"/></g></g></g></g></g><g id="Outline"><g><g><g><g><path d="M258.55,495.18c-0.08-2.76,2.09-5.06,4.85-5.14l0,0c2.761-0.08,5.061,2.1,5.141,4.859l0,0       c0.08,2.761-2.09,5.061-4.851,5.141l0,0c-0.05,0-0.1,0-0.14,0l0,0C260.85,500.04,258.62,497.899,258.55,495.18z M278.52,494.2       c-0.31-2.75,1.67-5.221,4.41-5.521l0,0c2.75-0.31,5.22,1.67,5.53,4.41l0,0c0.3,2.75-1.67,5.22-4.42,5.53l0,0       c-0.19,0.02-0.37,0.029-0.561,0.029l0,0C280.97,498.649,278.8,496.76,278.52,494.2z M298.34,491.569       c-0.54-2.71,1.229-5.34,3.94-5.88l0,0c2.71-0.529,5.34,1.23,5.869,3.94l0,0c0.53,2.71-1.229,5.34-3.939,5.87l0,0       c-0.32,0.069-0.65,0.1-0.97,0.1l0,0C300.899,495.6,298.81,493.95,298.34,491.569z M317.87,487.29       c-0.761-2.66,0.779-5.431,3.43-6.19v0.01c2.66-0.76,5.43,0.771,6.19,3.431l0,0c0.75,2.649-0.78,5.42-3.431,6.18l0,0       c-0.46,0.13-0.93,0.19-1.38,0.19l0,0C320.5,490.91,318.5,489.479,317.87,487.29z M336.97,481.39       c-0.99-2.58,0.311-5.47,2.89-6.45l0,0c2.591-0.979,5.471,0.32,6.45,2.9l0,0c0.98,2.58-0.319,5.47-2.899,6.45l0,0l0,0l0,0       c-0.58,0.22-1.181,0.319-1.771,0.319l0,0C339.62,484.609,337.72,483.38,336.97,481.39z M355.5,473.91       c-1.2-2.5-0.141-5.48,2.35-6.67l0,0c2.49-1.2,5.47-0.141,6.67,2.35l0,0c1.19,2.49,0.141,5.47-2.35,6.67l0,0       c-0.7,0.33-1.44,0.49-2.16,0.49l0,0C358.149,476.75,356.359,475.7,355.5,473.91z M373.34,464.899       c-1.39-2.38-0.59-5.449,1.79-6.84l0,0c2.38-1.399,5.439-0.6,6.84,1.78l0,0c1.39,2.38,0.6,5.45-1.79,6.84l0,0       c-0.79,0.47-1.66,0.69-2.52,0.69l0,0C375.939,467.37,374.27,466.49,373.34,464.899z M390.37,454.43       c-1.58-2.25-1.04-5.37,1.22-6.96l0,0c2.25-1.59,5.37-1.05,6.96,1.21l0,0c1.59,2.25,1.05,5.37-1.21,6.96l0,0       c-0.87,0.62-1.88,0.92-2.87,0.92l0,0C392.899,456.56,391.35,455.819,390.37,454.43z M406.479,442.59       c-1.77-2.12-1.489-5.28,0.63-7.05l0,0c2.12-1.771,5.271-1.48,7.04,0.63l0,0c1.771,2.12,1.49,5.27-0.63,7.05l0,0       c-0.93,0.78-2.069,1.16-3.2,1.16l0,0C408.89,444.38,407.47,443.77,406.479,442.59z M421.55,429.439       c-1.94-1.96-1.92-5.13,0.05-7.069l0,0c1.96-1.94,5.12-1.92,7.07,0.05l0,0c1.939,1.96,1.92,5.13-0.05,7.07l0,0       c-0.971,0.96-2.24,1.439-3.511,1.439l0,0C423.819,430.93,422.53,430.43,421.55,429.439z M435.479,415.1       c-2.09-1.8-2.34-4.95-0.54-7.05l0,0c1.801-2.1,4.95-2.34,7.051-0.54l0,0c2.1,1.79,2.34,4.95,0.54,7.05l0,0l0,0l0,0       c-0.99,1.15-2.391,1.74-3.801,1.74l0,0C437.58,416.3,436.42,415.91,435.479,415.1z M448.18,399.649       c-2.24-1.619-2.74-4.739-1.13-6.979l0,0c1.62-2.24,4.75-2.75,6.98-1.13l0,0c2.239,1.62,2.75,4.74,1.13,6.979l0,0l0,0l0,0       c-0.98,1.36-2.511,2.08-4.061,2.08l0,0C450.09,400.6,449.06,400.29,448.18,399.649z M459.55,383.2       c-2.37-1.431-3.13-4.5-1.7-6.87l0,0c1.42-2.36,4.5-3.12,6.86-1.7l0,0c2.37,1.43,3.13,4.5,1.7,6.86l0,0c0,0,0,0,0.01,0.01l0,0       c-0.94,1.55-2.601,2.41-4.29,2.41l0,0C461.25,383.91,460.359,383.68,459.55,383.2z" fill="#384169"/></g></g></g><g><g><g><path d="M19.25,315.689L19.25,315.689L19.25,315.689c-0.68-2.68,0.94-5.399,3.62-6.08l0,0       c2.68-0.68,5.4,0.94,6.08,3.62l0,0c0.67,2.681-0.95,5.4-3.62,6.08l0,0c-0.41,0.101-0.83,0.15-1.23,0.15l0,0       C21.86,319.46,19.83,317.95,19.25,315.689z M15.07,295.71L15.07,295.71L15.07,295.71c-0.46-2.72,1.39-5.3,4.11-5.75l0,0       c2.73-0.45,5.3,1.39,5.75,4.109l0,0c0.46,2.721-1.39,5.301-4.11,5.75l0,0c-0.28,0.051-0.55,0.07-0.82,0.07l0,0       C17.59,299.89,15.47,298.16,15.07,295.71z M12.57,275.45c-0.23-2.75,1.82-5.16,4.58-5.391l0,0c2.75-0.22,5.16,1.83,5.38,4.58       l0,0c0.23,2.75-1.82,5.17-4.57,5.391l0,0c-0.14,0.01-0.28,0.02-0.41,0.02l0,0C14.97,280.05,12.78,278.069,12.57,275.45z        M16.75,260.069c-2.77,0-5-2.239-5-5l0,0c0,0,0,0,0-0.01l0,0c0.01-2.76,2.25-4.99,5.01-4.99l0,0c2.76,0,5,2.24,4.99,5.011l0,0       C21.75,257.83,19.51,260.069,16.75,260.069L16.75,260.069L16.75,260.069z M17.18,240.09c-2.76-0.23-4.8-2.65-4.57-5.4l0,0       c0.23-2.75,2.65-4.8,5.4-4.569l0,0c2.75,0.229,4.79,2.649,4.56,5.399l0,0c-0.21,2.61-2.4,4.58-4.97,4.58l0,0       C17.46,240.1,17.32,240.1,17.18,240.09z M19.25,220.2c-2.72-0.45-4.56-3.03-4.1-5.761l0,0c0.45-2.72,3.03-4.55,5.76-4.1l0,0       c2.72,0.46,4.56,3.04,4.1,5.76l0,0c-0.41,2.44-2.53,4.17-4.92,4.17l0,0C19.81,220.27,19.53,220.25,19.25,220.2z M22.98,200.56       c-2.68-0.68-4.29-3.41-3.61-6.08l0,0c0.69-2.68,3.41-4.29,6.08-3.6l0,0c2.68,0.68,4.29,3.4,3.61,6.08l0,0       c-0.58,2.26-2.61,3.76-4.84,3.76l0,0C23.81,200.72,23.39,200.67,22.98,200.56z M28.34,181.3c-2.61-0.9-3.99-3.75-3.09-6.36l0,0       c0.91-2.609,3.76-3.989,6.37-3.08l0,0c2.6,0.9,3.98,3.75,3.08,6.36l0,0c-0.72,2.061-2.65,3.36-4.72,3.36l0,0       C29.43,181.58,28.88,181.49,28.34,181.3z M35.3,162.55c-2.53-1.13-3.66-4.08-2.54-6.6l0,0c0,0,0,0,0-0.011l0,0       c1.12-2.52,4.08-3.649,6.6-2.529l0,0c2.53,1.12,3.66,4.08,2.54,6.6l0,0c-0.83,1.86-2.66,2.97-4.58,2.97l0,0       C36.65,162.979,35.96,162.84,35.3,162.55z M43.81,144.439c-2.42-1.33-3.31-4.37-1.98-6.79l0,0c1.33-2.42,4.37-3.3,6.79-1.97       l0,0c2.42,1.33,3.31,4.36,1.98,6.79l0,0c-0.91,1.65-2.63,2.59-4.39,2.59l0,0C45.39,145.06,44.57,144.859,43.81,144.439z        M53.8,127.12c-2.3-1.53-2.93-4.63-1.41-6.931l0,0c1.53-2.31,4.63-2.93,6.93-1.409l0,0c2.3,1.529,2.93,4.63,1.41,6.93l0,0       c-0.97,1.45-2.56,2.24-4.18,2.24l0,0C55.61,127.95,54.65,127.68,53.8,127.12z M65.19,110.68c-2.16-1.71-2.53-4.85-0.82-7.02       l0,0c1.71-2.17,4.86-2.54,7.02-0.82l0,0c2.17,1.71,2.54,4.85,0.83,7.02l0,0c-0.99,1.25-2.45,1.9-3.93,1.9l0,0       C67.21,111.76,66.11,111.41,65.19,110.68z M77.91,95.25c-2.01-1.88-2.12-5.05-0.24-7.061l0,0c1.89-2.02,5.06-2.13,7.07-0.239       l0,0c2.02,1.88,2.13,5.05,0.24,7.069l0,0c-0.98,1.05-2.31,1.58-3.65,1.58l0,0C80.11,96.6,78.88,96.149,77.91,95.25z        M91.87,80.93c-1.86-2.05-1.7-5.21,0.34-7.06l0,0l0,0l0,0c2.05-1.86,5.21-1.7,7.07,0.35l0,0c1.85,2.04,1.7,5.2-0.35,7.061l0,0       c-0.96,0.869-2.16,1.289-3.36,1.289l0,0C94.21,82.569,92.85,82.02,91.87,80.93z M106.96,67.81c-1.68-2.189-1.27-5.33,0.93-7       l0,0c2.19-1.68,5.33-1.27,7.01,0.92l0,0c1.67,2.2,1.26,5.34-0.94,7.021l0,0c-0.9,0.689-1.97,1.02-3.03,1.02l0,0       C109.43,69.77,107.94,69.1,106.96,67.81z M123.08,55.99c-1.49-2.32-0.82-5.41,1.51-6.9l0,0c2.32-1.49,5.42-0.82,6.91,1.51l0,0       c1.49,2.32,0.81,5.41-1.51,6.9l0,0c-0.84,0.54-1.77,0.8-2.7,0.8l0,0C125.64,58.3,124.03,57.479,123.08,55.99z M140.12,45.56       c-1.29-2.439-0.36-5.47,2.08-6.76l0,0c2.44-1.29,5.47-0.36,6.76,2.08l0,0c1.29,2.439,0.36,5.47-2.08,6.76l0,0       c-0.74,0.391-1.54,0.58-2.33,0.58l0,0C142.75,48.22,141.02,47.25,140.12,45.56z M157.98,36.58c-1.09-2.54,0.1-5.48,2.63-6.561       l0,0l0,0l0,0c2.54-1.08,5.48,0.101,6.56,2.641l0,0c1.09,2.54-0.09,5.47-2.63,6.56l0,0c-0.64,0.271-1.31,0.4-1.96,0.4l0,0       C160.64,39.62,158.79,38.479,157.98,36.58z M176.51,29.13c-0.86-2.62,0.56-5.45,3.18-6.32l0,0c0,0,0,0,0,0.01l0,0       c2.62-0.869,5.45,0.551,6.32,3.171l0,0c0.87,2.619-0.56,5.449-3.18,6.319l0,0c-0.52,0.17-1.05,0.25-1.57,0.25l0,0       C179.16,32.56,177.21,31.229,176.51,29.13z M195.63,23.26c-0.65-2.69,1.01-5.39,3.69-6.03l0,0c2.69-0.64,5.39,1.011,6.03,3.7       l0,0c0.64,2.68-1.01,5.38-3.7,6.021l0,0c-0.39,0.1-0.78,0.14-1.17,0.14l0,0C198.22,27.09,196.17,25.55,195.63,23.26z        M215.16,19.01c-0.42-2.729,1.46-5.28,4.189-5.7l0,0c2.72-0.41,5.28,1.46,5.69,4.19l0,0c0.42,2.729-1.46,5.28-4.19,5.7l0,0       c-0.25,0.04-0.5,0.05-0.76,0.05l0,0C217.67,23.25,215.53,21.479,215.16,19.01z M234.979,16.41       c-0.189-2.761,1.891-5.141,4.65-5.33l0,0c2.75-0.19,5.14,1.89,5.32,4.64l0,0c0.189,2.76-1.891,5.14-4.641,5.33l0,0       c-0.12,0.01-0.229,0.02-0.35,0.02l0,0C237.35,21.069,235.16,19.05,234.979,16.41z" fill="#384169"/></g></g></g><g><g><g><path d="M58.24,255.319L58.24,255.319L58.24,255.319c0-2.76,2.24-5,5-5l0,0c2.76,0,5,2.24,5,5l0,0       c0,2.761-2.24,5-5,5l0,0C60.48,260.319,58.24,258.08,58.24,255.319z M63.79,240.33c-2.74-0.311-4.72-2.771-4.42-5.521l0,0l0,0       l0,0c0.3-2.75,2.77-4.72,5.52-4.42l0,0c2.74,0.3,4.72,2.771,4.42,5.51l0,0c-0.28,2.561-2.45,4.46-4.96,4.46l0,0       C64.16,240.359,63.98,240.35,63.79,240.33z M66.52,220.52c-2.7-0.6-4.4-3.27-3.81-5.96l0,0c0.6-2.7,3.27-4.399,5.96-3.81l0,0       c2.7,0.6,4.4,3.27,3.81,5.96l0,0c-0.52,2.34-2.59,3.93-4.88,3.93l0,0C67.24,220.64,66.88,220.6,66.52,220.52z M71.35,201.109       c-2.62-0.88-4.03-3.71-3.15-6.329l0,0c0.88-2.62,3.71-4.03,6.33-3.15l0,0c2.62,0.88,4.03,3.71,3.15,6.33l0,0       c-0.7,2.09-2.65,3.41-4.74,3.41l0,0C72.41,201.37,71.88,201.29,71.35,201.109z M78.21,182.33c-2.51-1.15-3.62-4.12-2.47-6.63       l0,0c1.14-2.511,4.11-3.62,6.62-2.471l0,0c2.51,1.15,3.62,4.11,2.47,6.63l0,0c-0.84,1.841-2.65,2.921-4.55,2.921l0,0       C79.59,182.78,78.88,182.64,78.21,182.33z M86.98,164.359c-2.38-1.399-3.18-4.46-1.78-6.84l0,0c1.4-2.39,4.46-3.18,6.84-1.779       l0,0c2.38,1.39,3.18,4.46,1.78,6.84l0,0c-0.93,1.59-2.6,2.47-4.31,2.47l0,0C88.65,165.05,87.77,164.83,86.98,164.359z        M97.55,147.38c-2.23-1.63-2.71-4.76-1.08-6.99l0,0l0,0l0,0c1.64-2.22,4.77-2.7,6.99-1.07l0,0c2.23,1.631,2.71,4.761,1.08,6.99       l0,0c-0.98,1.34-2.5,2.04-4.04,2.04l0,0C99.47,148.35,98.44,148.04,97.55,147.38z M109.78,131.569       c-2.05-1.85-2.21-5.02-0.35-7.069l0,0c0,0,0,0-0.01,0.01l0,0c1.86-2.05,5.02-2.21,7.07-0.36l0,0       c2.05,1.851,2.21,5.011,0.36,7.061l0,0c-0.99,1.09-2.35,1.649-3.72,1.649l0,0C111.94,132.859,110.74,132.43,109.78,131.569z        M123.56,117.08c-1.85-2.05-1.69-5.221,0.36-7.061l0,0c2.05-1.859,5.21-1.7,7.06,0.351l0,0c1.85,2.05,1.69,5.21-0.36,7.069l0,0       c-0.96,0.86-2.15,1.28-3.35,1.28l0,0C125.91,118.72,124.55,118.17,123.56,117.08z M138.74,104.05       c-1.63-2.22-1.15-5.36,1.08-6.99l0,0c2.22-1.63,5.35-1.14,6.98,1.08l0,0c1.64,2.23,1.15,5.36-1.07,6.99l0,0       c-0.89,0.65-1.93,0.97-2.95,0.97l0,0C141.24,106.1,139.72,105.39,138.74,104.05z M155.17,92.649       c-1.39-2.38-0.59-5.449,1.79-6.84l0,0c2.39-1.399,5.45-0.59,6.84,1.79l0,0c1.4,2.391,0.59,5.45-1.79,6.84l0,0       c-0.79,0.46-1.66,0.69-2.52,0.69l0,0C157.77,95.13,156.1,94.24,155.17,92.649z M172.69,83.01c-1.14-2.52-0.03-5.479,2.48-6.62       l0,0c2.52-1.14,5.48-0.03,6.62,2.48l0,0c1.14,2.52,0.03,5.479-2.48,6.62l0,0c-0.67,0.31-1.37,0.449-2.06,0.449l0,0       C175.34,85.939,173.53,84.85,172.69,83.01z M191.1,75.21c-0.88-2.62,0.52-5.45,3.14-6.34l0,0c2.61-0.88,5.45,0.52,6.33,3.14       l0,0c0.89,2.62-0.52,5.45-3.13,6.34l0,0c-0.54,0.17-1.07,0.26-1.61,0.26l0,0C193.75,78.609,191.8,77.29,191.1,75.21z        M210.189,69.28c-0.63-2.69,1.051-5.381,3.74-6l0,0c2.69-0.631,5.38,1.039,6,3.729l0,0c0.63,2.69-1.04,5.38-3.729,6.01v-0.01       c-0.381,0.09-0.761,0.14-1.141,0.14l0,0C212.79,73.149,210.729,71.59,210.189,69.28z M313.52,71.29L313.52,71.29       c-2.72-0.471-4.55-3.05-4.08-5.771l0,0c0.471-2.72,3.051-4.55,5.771-4.08l0,0c2.729,0.46,4.55,3.04,4.09,5.771l0,0       c-0.42,2.439-2.53,4.149-4.93,4.149l0,0C314.09,71.359,313.81,71.34,313.52,71.29z M229.76,65.2       c-0.38-2.74,1.53-5.261,4.271-5.641l0,0l0,0l0,0c2.729-0.38,5.26,1.53,5.64,4.26l0,0c0.38,2.74-1.53,5.261-4.271,5.641l0,0       c-0.229,0.03-0.46,0.05-0.689,0.05l0,0C232.25,69.51,230.109,67.7,229.76,65.2z M294.05,68.63h0.01       c-2.75-0.28-4.75-2.73-4.479-5.48l0,0c0.279-2.739,2.729-4.75,5.479-4.47l0,0l0,0l0,0c2.75,0.28,4.75,2.73,4.471,5.48l0,0       c-0.261,2.58-2.431,4.5-4.971,4.5l0,0C294.39,68.66,294.22,68.649,294.05,68.63z M249.62,62.88       c-0.141-2.76,1.97-5.11,4.729-5.26l0,0c2.76-0.141,5.11,1.979,5.26,4.739l0,0c0.141,2.75-1.979,5.11-4.729,5.25l0,0       c-0.09,0-0.18,0.011-0.271,0.011l0,0C251.97,67.62,249.76,65.55,249.62,62.88z M274.47,67.37c-2.76-0.07-4.939-2.37-4.86-5.13       l0,0c0.07-2.761,2.37-4.94,5.131-4.87l0,0c2.76,0.08,4.939,2.38,4.859,5.14l0,0c-0.069,2.71-2.29,4.86-4.99,4.86l0,0       C274.56,67.37,274.52,67.37,274.47,67.37z" fill="#384169"/></g></g></g><g><g><g><path d="M242.689,448.22c-0.01-2.76,2.23-5.01,4.99-5.01l0,0c2.76-0.01,5,2.229,5.01,4.99l0,0       c0,2.76-2.229,5-4.989,5.01l0,0c-0.011,0-0.011,0-0.011,0l0,0C244.93,453.21,242.689,450.979,242.689,448.22z M227.26,452.29       c0,0,0,0,0,0.01l0,0c-2.75-0.26-4.78-2.69-4.52-5.44l0,0c0.25-2.75,2.68-4.779,5.43-4.52l0,0c2.75,0.25,4.78,2.69,4.52,5.43       l0,0c-0.239,2.601-2.42,4.55-4.97,4.55l0,0C227.569,452.319,227.41,452.31,227.26,452.29z M262.68,447.71       c-0.26-2.75,1.76-5.18,4.51-5.44l0,0c2.75-0.26,5.19,1.75,5.45,4.5l0,0c0.25,2.75-1.76,5.19-4.51,5.45l0,0       c-0.16,0.021-0.32,0.021-0.48,0.021l0,0C265.1,452.24,262.92,450.3,262.68,447.71z M282.54,445.38       c-0.51-2.71,1.279-5.32,4-5.83l0,0c2.71-0.51,5.319,1.28,5.83,3.99l0,0c0.51,2.72-1.28,5.33-3.99,5.84l0,0       c-0.32,0.06-0.62,0.08-0.93,0.08l0,0C285.09,449.46,282.99,447.79,282.54,445.38z M302.109,441.26       c-0.75-2.66,0.79-5.42,3.45-6.17l0,0c2.66-0.75,5.42,0.79,6.17,3.45l0,0c0.75,2.66-0.79,5.42-3.449,6.17l0,0l0,0l0,0       c-0.45,0.13-0.91,0.189-1.36,0.189l0,0C304.74,444.899,302.729,443.46,302.109,441.26z M321.22,435.38       c-0.99-2.58,0.29-5.47,2.87-6.46l0,0c2.58-1,5.47,0.29,6.46,2.87l0,0c1,2.569-0.29,5.46-2.86,6.46l0,0l0,0l0,0       c-0.59,0.229-1.199,0.33-1.8,0.33l0,0C323.88,438.58,321.99,437.359,321.22,435.38z M339.71,427.76       c-1.23-2.479-0.23-5.479,2.25-6.71l0,0c2.47-1.23,5.47-0.22,6.7,2.25l0,0c1.239,2.47,0.229,5.47-2.24,6.71l0,0c0,0,0,0,0-0.01       l0,0c-0.72,0.359-1.48,0.53-2.23,0.53l0,0C342.35,430.53,340.59,429.51,339.71,427.76z M357.39,418.42       c-1.46-2.34-0.75-5.43,1.59-6.89l0,0c2.34-1.471,5.42-0.761,6.891,1.59l0,0c1.46,2.33,0.75,5.42-1.59,6.89l0,0l0,0l0,0       c-0.82,0.51-1.74,0.76-2.641,0.76l0,0C359.97,420.77,358.34,419.939,357.39,418.42z M374.069,407.39       c-1.689-2.18-1.3-5.32,0.891-7.01l0,0c2.18-1.7,5.32-1.3,7.01,0.88l0,0c1.7,2.18,1.3,5.32-0.88,7.021l0,0       c-0.91,0.699-1.99,1.05-3.07,1.05l0,0C376.53,409.33,375.06,408.66,374.069,407.39z M389.54,394.72       c-1.91-1.99-1.851-5.15,0.14-7.07l0,0c1.99-1.909,5.16-1.85,7.07,0.141l0,0c1.92,2,1.85,5.16-0.141,7.069l0,0l0,0l0,0       c-0.97,0.931-2.22,1.4-3.46,1.4l0,0C391.83,396.26,390.52,395.74,389.54,394.72z M403.58,380.479       c-2.12-1.77-2.41-4.92-0.641-7.04h0.011c1.77-2.12,4.92-2.409,7.04-0.64l0,0c2.119,1.77,2.399,4.93,0.63,7.05l0,0       c-0.99,1.181-2.41,1.79-3.84,1.79l0,0C405.649,381.64,404.52,381.26,403.58,380.479z M415.96,364.77       c-2.311-1.51-2.94-4.62-1.42-6.92l0,0c1.51-2.31,4.609-2.939,6.92-1.42l0,0c2.31,1.51,2.95,4.61,1.43,6.92l0,0       c-0.96,1.46-2.56,2.25-4.18,2.25l0,0C417.76,365.6,416.81,365.33,415.96,364.77z" fill="#384169"/></g></g></g><g><g><g><path d="M115.91,224.77c-2.68-0.68-4.3-3.399-3.62-6.069l0,0l0,0l0,0c0.68-2.681,3.4-4.301,6.07-3.62l0,0       c2.68,0.67,4.3,3.39,3.63,6.069l0,0c-0.58,2.271-2.61,3.78-4.85,3.78l0,0C116.74,224.93,116.32,224.88,115.91,224.77z        M121.5,205.56c-2.56-1.04-3.78-3.96-2.74-6.51l0,0c1.05-2.56,3.96-3.79,6.52-2.74l0,0c2.56,1.04,3.78,3.96,2.74,6.521l0,0       c-0.79,1.93-2.66,3.109-4.63,3.109l0,0C122.76,205.939,122.12,205.819,121.5,205.56z M129.71,187.33       c-2.39-1.391-3.2-4.45-1.81-6.84l0,0c1.39-2.381,4.46-3.19,6.84-1.801l0,0c2.39,1.391,3.19,4.45,1.8,6.841l0,0       c-0.93,1.59-2.6,2.479-4.32,2.479l0,0C131.37,188.01,130.5,187.79,129.71,187.33z M140.37,170.41       c-2.17-1.71-2.55-4.851-0.84-7.021l0,0c1.71-2.17,4.85-2.54,7.02-0.84l0,0c2.17,1.71,2.55,4.85,0.84,7.02l0,0       c-0.99,1.261-2.45,1.91-3.93,1.91l0,0C142.38,171.479,141.29,171.13,140.37,170.41z M153.27,155.14       c-1.92-1.99-1.86-5.16,0.13-7.07l0,0c0,0,0,0,0-0.01l0,0c1.99-1.91,5.16-1.85,7.07,0.141l0,0c1.92,1.989,1.86,5.159-0.13,7.069       l0,0c-0.97,0.931-2.22,1.4-3.47,1.4l0,0C155.56,156.67,154.25,156.149,153.27,155.14z M168.14,141.78       c-1.62-2.23-1.12-5.36,1.11-6.98l0,0l0,0l0,0c2.24-1.62,5.36-1.13,6.98,1.11l0,0c1.63,2.229,1.13,5.359-1.1,6.979l0,0       c-0.89,0.641-1.92,0.95-2.94,0.95l0,0C170.64,143.84,169.12,143.13,168.14,141.78z M184.71,130.609       c-1.29-2.439-0.37-5.47,2.07-6.76l0,0c2.44-1.3,5.47-0.38,6.77,2.061l0,0c1.29,2.439,0.37,5.47-2.07,6.76v0.01       c-0.75,0.39-1.55,0.58-2.34,0.58l0,0C187.35,133.26,185.61,132.3,184.71,130.609z M202.67,121.84c-0.94-2.59,0.4-5.46,2.99-6.4       l0,0l0,0l0,0c2.6-0.949,5.47,0.391,6.41,2.98l0,0c0.95,2.6-0.39,5.47-2.989,6.41l0,0c-0.56,0.21-1.14,0.31-1.71,0.31l0,0       C205.33,125.14,203.41,123.87,202.67,121.84z M221.689,115.67c-0.58-2.7,1.15-5.36,3.851-5.93l0,0       c2.7-0.57,5.359,1.149,5.93,3.859l0,0c0.57,2.69-1.15,5.351-3.86,5.92h0.011c-0.351,0.08-0.7,0.11-1.051,0.11l0,0       C224.26,119.63,222.189,118.02,221.689,115.67z M241.37,112.21c-0.19-2.76,1.89-5.15,4.64-5.34l0,0       c2.76-0.19,5.15,1.88,5.34,4.64l0,0c0.19,2.75-1.88,5.14-4.64,5.33l0,0c-0.12,0.01-0.23,0.02-0.351,0.02l0,0       C243.75,116.859,241.56,114.84,241.37,112.21z" fill="#384169"/></g></g></g><g><g><g><path d="M258.77,399.21c-0.14-2.76,1.99-5.11,4.75-5.24h-0.01c2.76-0.14,5.11,1.99,5.24,4.75l0,0       c0.14,2.75-1.99,5.1-4.74,5.24l0,0l0,0l0,0c-0.09,0-0.17,0-0.25,0l0,0C261.109,403.96,258.899,401.88,258.77,399.21z        M278.689,397.54c-0.52-2.721,1.261-5.33,3.98-5.851l0,0c2.71-0.51,5.33,1.271,5.84,3.98l0,0c0.521,2.71-1.26,5.33-3.97,5.84       l0,0l0,0l0,0c-0.32,0.06-0.63,0.09-0.94,0.09l0,0C281.24,401.6,279.149,399.93,278.689,397.54z M298.189,393.12       c-0.89-2.62,0.511-5.46,3.12-6.351l0,0c2.61-0.89,5.46,0.511,6.34,3.12l0,0c0.891,2.62-0.5,5.46-3.119,6.351l0,0       c-0.53,0.18-1.07,0.27-1.61,0.27l0,0C300.84,396.51,298.899,395.2,298.189,393.12z M316.87,386.02       c-1.24-2.46-0.25-5.47,2.21-6.72l0,0c2.47-1.24,5.47-0.25,6.72,2.21l0,0c1.24,2.46,0.26,5.47-2.21,6.72l0,0       c-0.72,0.36-1.49,0.54-2.25,0.54l0,0C319.52,388.77,317.75,387.76,316.87,386.02z M334.399,376.39       c-1.58-2.27-1.02-5.39,1.25-6.96l0,0c2.271-1.58,5.381-1.01,6.96,1.26l0,0c1.57,2.261,1.011,5.38-1.26,6.95l0,0       c-0.87,0.61-1.859,0.9-2.85,0.9l0,0C336.92,378.54,335.359,377.79,334.399,376.39z M350.41,364.42       c-1.87-2.03-1.75-5.19,0.279-7.061h0.011c2.02-1.88,5.189-1.75,7.06,0.28l0,0c1.87,2.03,1.74,5.19-0.28,7.07l0,0       c-0.96,0.88-2.18,1.32-3.39,1.32l0,0C352.74,366.03,351.399,365.49,350.41,364.42z M364.63,350.359       c-2.14-1.75-2.45-4.899-0.7-7.029l0,0c1.76-2.141,4.9-2.45,7.04-0.7l0,0c2.13,1.75,2.44,4.9,0.69,7.04l0,0c0,0,0,0,0.01,0l0,0       c-0.99,1.2-2.43,1.83-3.87,1.83l0,0C366.68,351.5,365.56,351.13,364.63,350.359z M376.77,334.479       c-2.359-1.439-3.1-4.52-1.66-6.88l0,0c1.44-2.35,4.521-3.09,6.87-1.649l0,0c2.36,1.439,3.101,4.51,1.66,6.869l0,0       c-0.939,1.54-2.58,2.391-4.27,2.391l0,0C378.479,335.21,377.58,334.97,376.77,334.479z" fill="#384169"/></g></g></g><g><g><g><g><g><path d="M74.113,428.527c-1.28,0-2.559-0.488-3.536-1.465c-1.953-1.952-1.953-5.118,0-7.07l8.017-8.018         c1.952-1.953,5.118-1.953,7.071,0c1.953,1.952,1.953,5.118,0,7.07l-8.017,8.018         C76.672,428.039,75.393,428.527,74.113,428.527z" fill="#3F456B"/></g></g></g><g><g><g><path d="M46.75,455.87c-1.28,0-2.559-0.488-3.536-1.465c-1.953-1.952-1.953-5.118,0-7.07l8.017-8.018         c1.952-1.953,5.118-1.953,7.071,0c1.953,1.952,1.953,5.118,0,7.07l-8.017,8.018C49.31,455.382,48.03,455.87,46.75,455.87z" fill="#3F456B"/></g></g></g></g><g><g><g><g><path d="M82.12,455.88c-1.28,0-2.559-0.488-3.535-1.464l-8.018-8.017c-1.953-1.953-1.953-5.119,0-7.071         c1.952-1.953,5.119-1.952,7.071-0.001l8.018,8.017c1.953,1.953,1.953,5.119,0,7.071C84.68,455.392,83.4,455.88,82.12,455.88z         " fill="#3F456B"/></g></g></g><g><g><g><path d="M54.777,428.518c-1.28,0-2.559-0.488-3.536-1.465l-8.017-8.018c-1.953-1.952-1.953-5.118,0-7.07         c1.954-1.953,5.119-1.952,7.071,0l8.017,8.018c1.953,1.952,1.953,5.118,0,7.07C57.336,428.029,56.057,428.518,54.777,428.518         z" fill="#3F456B"/></g></g></g></g></g><g><g><g><g><g><path d="M238.566,316.587c-1.279,0-2.56-0.488-3.536-1.465c-1.952-1.952-1.952-5.118,0.001-7.071l8.018-8.017         c1.953-1.951,5.118-1.952,7.071,0.001c1.952,1.952,1.952,5.118-0.001,7.071l-8.018,8.017         C241.125,316.099,239.846,316.587,238.566,316.587z" fill="#3F456B"/></g></g></g><g><g><g><path d="M211.204,343.93c-1.279,0-2.559-0.488-3.536-1.465c-1.953-1.952-1.953-5.118,0-7.07l8.017-8.017         c1.951-1.953,5.119-1.953,7.07,0c1.953,1.952,1.953,5.118,0,7.07l-8.017,8.017         C213.764,343.441,212.483,343.93,211.204,343.93z" fill="#3F456B"/></g></g></g></g><g><g><g><g><path d="M246.574,343.94c-1.279,0-2.56-0.488-3.535-1.465l-8.018-8.018c-1.953-1.952-1.953-5.118,0-7.07         c1.951-1.953,5.119-1.953,7.07,0l8.018,8.018c1.953,1.952,1.953,5.118,0,7.07C249.134,343.452,247.854,343.94,246.574,343.94         z" fill="#3F456B"/></g></g></g><g><g><g><path d="M219.231,316.577c-1.279,0-2.56-0.488-3.535-1.465l-8.018-8.018c-1.953-1.952-1.953-5.118,0-7.07         c1.953-1.953,5.12-1.953,7.071,0l8.018,8.018c1.953,1.952,1.953,5.118,0,7.07         C221.791,316.089,220.511,316.577,219.231,316.577z" fill="#3F456B"/></g></g></g></g></g><g><g><g><g><g><g><path d="M441.493,173.72c-1.271,0-2.542-0.481-3.517-1.445c-1.963-1.942-1.98-5.108-0.038-7.071l9.522-9.626          c1.941-1.964,5.108-1.979,7.071-0.038c1.963,1.942,1.98,5.107,0.038,7.071l-9.522,9.626          C444.07,173.225,442.781,173.72,441.493,173.72z" fill="#3F456B"/></g></g></g></g><g><g><g><g><path d="M451.432,240.814c-1.269,0-2.537-0.479-3.511-1.44l-9.255-9.129          c-1.967-1.939-1.988-5.104-0.049-7.07c1.939-1.968,5.105-1.988,7.07-0.049l9.255,9.129c1.967,1.939,1.988,5.104,0.049,7.07          C454.013,240.317,452.723,240.814,451.432,240.814z" fill="#3F456B"/></g></g></g></g><g><g><g><g><path d="M465.508,216.546c-0.419,0-0.846-0.053-1.271-0.164l-12.93-3.39c-2.672-0.7-4.27-3.434-3.569-6.104          s3.428-4.27,6.104-3.569l12.93,3.39c2.672,0.7,4.27,3.434,3.569,6.104C469.753,215.059,467.727,216.546,465.508,216.546z" fill="#3F456B"/></g></g></g></g><g><g><g><g><path d="M452.358,192.133c-2.197,0-4.212-1.459-4.819-3.681c-0.729-2.663,0.839-5.414,3.502-6.143          l12.992-3.557c2.666-0.728,5.415,0.838,6.143,3.502c0.729,2.663-0.839,5.414-3.502,6.143l-12.992,3.557          C453.239,192.075,452.796,192.133,452.358,192.133z" fill="#3F456B"/></g></g></g></g></g><g><g><g><g><g><path d="M442.487,172.844c-1.268,0-2.536-0.479-3.51-1.439c-1.967-1.938-1.989-5.104-0.051-7.07l8.577-8.701          c1.939-1.968,5.104-1.988,7.07-0.051c1.967,1.938,1.989,5.104,0.051,7.07l-8.577,8.701          C445.069,172.347,443.778,172.844,442.487,172.844z" fill="#3F456B"/></g></g></g></g><g><g><g><g><path d="M423.605,161.79c-0.419,0-0.846-0.053-1.271-0.164c-2.672-0.7-4.27-3.434-3.569-6.104l3.16-12.055          c0.699-2.67,3.429-4.271,6.104-3.569c2.672,0.7,4.27,3.434,3.569,6.104l-3.16,12.055          C427.851,160.303,425.824,161.79,423.605,161.79z" fill="#3F456B"/></g></g></g></g><g><g><g><g><path d="M402.209,162.369c-2.197,0-4.212-1.459-4.819-3.681l-3.417-12.482          c-0.729-2.664,0.839-5.414,3.502-6.143c2.664-0.731,5.414,0.839,6.143,3.502l3.417,12.482          c0.729,2.664-0.839,5.414-3.502,6.143C403.091,162.312,402.646,162.369,402.209,162.369z" fill="#3F456B"/></g></g></g></g><g><g><g><g><path d="M384.122,173.159c-1.269,0-2.537-0.479-3.511-1.44l-9.256-9.129          c-1.967-1.938-1.988-5.104-0.049-7.07c1.938-1.968,5.105-1.988,7.07-0.049l9.256,9.129c1.967,1.938,1.988,5.104,0.049,7.07          C386.704,172.662,385.413,173.159,384.122,173.159z" fill="#3F456B"/></g></g></g></g></g></g><g><g><g><g><path d="M237.665,212.883c-1.279,0-2.56-0.488-3.535-1.465c-1.953-1.952-1.953-5.118,0-7.07l35.216-35.216        c1.951-1.953,5.119-1.953,7.07,0c1.953,1.952,1.953,5.118,0,7.07L241.2,211.418        C240.225,212.395,238.944,212.883,237.665,212.883z" fill="#3F456B"/></g></g></g><g><g><g><path d="M272.881,212.883c-1.279,0-2.56-0.488-3.535-1.465l-35.216-35.216c-1.953-1.952-1.953-5.118,0-7.07        c1.951-1.953,5.119-1.953,7.07,0l35.216,35.216c1.953,1.952,1.953,5.118,0,7.07        C275.44,212.395,274.16,212.883,272.881,212.883z" fill="#3F456B"/></g></g></g></g></g></g></svg>