<?xml version="1.0" ?><svg id="图层_1" style="enable-background:new 0 0 512 512;" version="1.1" viewBox="0 0 512 512" xml:space="preserve" xmlns="http://www.w3.org/2000/svg" xmlns:xlink="http://www.w3.org/1999/xlink"><style type="text/css">
	.st0{fill:#3F456B;}
</style><title/><path class="st0" d="M181.8,251.9c-38.9,0.4-70.7-30.7-71.1-69.6c0-1.8,0-3.6,0.1-5.4c2.2-41.1,37.4-74.4,78.5-74.4  c38.9-0.4,70.7,30.8,71.1,69.6c0,1.8,0,3.6-0.2,5.4C258,218.5,222.9,251.9,181.8,251.9z M189.3,112.5c-35.8,0-66.6,29.1-68.5,65  c-2.3,33.3,22.9,62.1,56.1,64.3c1.6,0.1,3.2,0.2,4.9,0.1c35.8,0,66.5-29.1,68.5-65c2.3-33.3-22.9-62.1-56.2-64.3  C192.6,112.5,190.9,112.4,189.3,112.5L189.3,112.5z"/><path class="st0" d="M258.7,332.2c-154.3,0-225.7-45.8-238.4-54.9c-2.2-1.6-2.8-4.7-1.1-7c1.6-2.2,4.7-2.8,7-1.1l0,0  c5.2,3.8,25.2,17,62.9,29.3c48.3,15.8,105.3,23.8,169.7,23.8c85.9,0,144.3-14.7,178.2-27c36.7-13.3,53.3-26.9,53.4-27  c2.1-1.8,5.3-1.5,7,0.7s1.5,5.3-0.7,7c-0.7,0.6-17.7,14.5-55.7,28.4C406.3,317,346.5,332.2,258.7,332.2z"/><path class="st0" d="M189.2,199.3c-11.6,0.1-21.1-9.3-21.2-20.9c0-0.5,0-1,0-1.5c0.1-2.8,2.5-4.9,5.3-4.7c2.8,0.1,4.9,2.5,4.7,5.3  c-0.4,6.1,4.2,11.4,10.3,11.8c0.3,0,0.6,0,0.9,0c6.9-0.1,12.6-5.5,13.1-12.4c0.4-6.1-4.1-11.4-10.2-11.8c-0.3,0-0.7,0-1,0  c-2.8,0-5-2.2-5-5s2.2-5,5-5c11.6-0.1,21.1,9.2,21.2,20.8c0,0.5,0,1.1,0,1.6C211.4,189.6,201.4,199.1,189.2,199.3z"/><path class="st0" d="M187.8,179.9c-1.2,0-2.3-0.4-3.2-1.2L12.8,35c-2.1-1.8-2.4-4.9-0.6-7s4.9-2.4,7-0.6L191,171.1  c2.1,1.8,2.4,4.9,0.6,7C190.7,179.2,189.3,179.9,187.8,179.9L187.8,179.9z"/><g id="Outline"><path class="st0" d="M364.6,255.8c-2.7,0-4.9-2.1-5-4.8c-2.7-54.2-15.1-91.1-15.3-91.5c-0.9-2.6,0.5-5.5,3.1-6.4   c0.2-0.1,0.5-0.2,0.8-0.2c36.7-6.4,58.7-16.2,58.9-16.3c2.2-1,4.7-0.3,6.1,1.6c24.7,34.7,34,88.1,34.4,90.4   c0.4,2.1-0.7,4.2-2.6,5.2c-31.6,17-78,21.6-80,21.8L364.6,255.8z M355.6,161.8c3.5,11.9,11.2,42.1,13.8,83.4   c12.3-1.6,44.1-6.7,67.8-18.4c-2.4-12-11.4-51.6-29.8-79.4C399.9,150.4,381.9,156.8,355.6,161.8L355.6,161.8z"/><path class="st0" d="M367.9,375.4c-2.8,0-5-2.2-5-5c0-0.2,0-0.5,0.1-0.7c1.5-11.5,2.3-23.1,2.3-34.7c0-2.8,2.3-5,5-5   c2.8,0,5,2.3,5,5c0,10-0.6,19.9-1.6,29.8c21.7-2.3,43-7.6,63.2-15.9c3.6-8.9,6.1-19.5,7.5-31.5c0.3-2.7,2.8-4.7,5.5-4.4   s4.7,2.8,4.4,5.5l0,0c-1.6,13.9-4.6,26-9,36.1c-0.5,1.1-1.4,2-2.5,2.6c-1.3,0.6-33.2,15.2-74.5,18.1L367.9,375.4z"/><path class="st0" d="M369.2,304.6c-2.6,0-4.8-2.1-5-4.7c-0.6-10.2-1.3-17.1-1.3-17.1c-0.3-2.5,1.4-4.9,4-5.4   c0.5-0.1,45.4-9.5,79.2-24.3c2.5-1.1,5.5,0,6.6,2.6c0.2,0.4,0.3,0.8,0.4,1.2c0.1,0.4,1.5,9.7,2.2,23.4c0.1,2.8-2,5.1-4.8,5.2   s-5.1-2-5.2-4.8c-0.3-6.5-0.9-12.1-1.3-16c-27.6,11.2-59.2,18.8-70.7,21.4c0.3,3.1,0.6,7.6,1,13.1c0.2,2.8-1.9,5.1-4.7,5.3   c0,0,0,0,0,0L369.2,304.6z"/><path class="st0" d="M283.1,263c-2.8,0-5-2.2-5-5c0-2.8,2.2-5,5-5c14.1-0.2,28.1-1.2,42-3.1c1.5-32-6.7-69.9-9.7-82.4   c-29.5,3-59.2-0.3-60.6-0.5c-2.7-0.4-4.6-2.9-4.2-5.7c0.4-2.6,2.7-4.5,5.4-4.3c0.3,0,32.9,3.7,62.6,0c2.5-0.3,4.8,1.3,5.5,3.7   c0.6,2.1,13.8,52.8,10.8,93.8c-0.2,2.3-1.8,4.1-4.1,4.5c-0.7,0.1-18.4,3.4-47.5,3.9L283.1,263z"/><path class="st0" d="M468.5,224.7c-2.6,0-4.7-1.9-5-4.4c-4.7-42.7-32.5-89.6-32.7-90.1c-1.4-2.4-0.6-5.4,1.7-6.9   c0.4-0.2,0.8-0.4,1.3-0.5c6.9-1.8,12.2-8.3,12.2-8.3c1.7-2.2,4.8-2.6,7-1s2.6,4.8,1,7c-0.1,0.1-0.1,0.1-0.2,0.2   c-3.2,3.8-7.2,7-11.6,9.4c7.1,12.9,25,48.1,30.4,83.2c4.8-1.8,9.2-4.2,13.3-7.2c2.2-1.6,5.4-1.2,7,1.1c1.6,2.2,1.2,5.4-1.1,7   c-6.7,5-14.4,8.6-22.5,10.5C469.1,224.7,468.8,224.7,468.5,224.7z"/><path class="st0" d="M466.2,347.9c-2.8,0-5-2.2-5-5c0-0.6,0.1-1.2,0.3-1.7c3.8-10.6,6.3-23.3,7.3-37.7c0.2-2.8,2.6-4.8,5.4-4.6   c2.8,0.2,4.8,2.6,4.6,5.4l0,0c-0.7,10.2-2.2,20.2-4.7,30.1l3.9-1.5c2.6-1,5.5,0.4,6.4,2.9c0.9,2.5-0.3,5.3-2.7,6.3l-13.6,5.5   C467.5,347.8,466.9,347.9,466.2,347.9z"/><path class="st0" d="M473.6,273.6c-2.6,0-4.8-2-5-4.6c-0.9-12.6-2.4-21.1-2.4-21.2c-0.5-2.6,1.1-5.1,3.7-5.7   c5.9-1.5,17-8.1,20.8-10.5c2.3-1.5,5.4-0.8,6.9,1.5s0.8,5.4-1.5,6.9l0,0c-1.3,0.8-11.2,7.1-19.4,10.3c0.5,3.9,1.3,10.1,1.9,17.9   c0.2,2.8-1.9,5.1-4.6,5.4L473.6,273.6z"/><path class="st0" d="M370.1,468.2c-2.8,0-5-2.2-5-5c0-1.6,0.8-3.1,2.1-4.1c35.9-25.7,31.5-72,31.5-72.4c-0.3-2.7,1.6-5.1,4.2-5.5   c21.1-3.9,41.7-10.3,61.3-19c2.5-1.2,5.5-0.2,6.7,2.3c1.2,2.5,0.2,5.5-2.3,6.7c-0.1,0.1-0.2,0.1-0.4,0.2   c-19,8.5-38.9,14.8-59.4,18.9c0.3,13.5-2,52.6-35.8,76.9C372.2,467.9,371.2,468.2,370.1,468.2z"/><path class="st0" d="M332.2,312c-2.6,0-4.8-2.1-5-4.7c-0.4-7.3-1-13.3-1.4-17.1c-12.9,1.3-48.9,4.3-85.2,1.3   c-2.8-0.2-4.8-2.7-4.6-5.4c0.2-2.8,2.7-4.8,5.4-4.6c44.1,3.7,87.7-1.7,88.1-1.8c2.7-0.3,5.2,1.6,5.6,4.3c0,0.4,1.2,9.1,2,22.7   c0.2,2.8-1.9,5.1-4.6,5.3c0,0,0,0,0,0H332.2z"/><path class="st0" d="M330.2,378.2c-0.2,0-0.5,0-0.7-0.1c-2.7-0.4-4.6-2.9-4.2-5.6c1.4-9.9,2.2-19.8,2.5-29.8   c0.1-2.8,2.4-4.9,5.2-4.8c2.8,0.1,4.9,2.4,4.8,5.2l0,0c-0.3,10.3-1.2,20.6-2.6,30.9C334.8,376.4,332.7,378.2,330.2,378.2z"/><path class="st0" d="M279.9,140c-11.1,0.1-22.3-0.5-33.3-1.7c-2.7-0.5-4.6-3-4.1-5.8c0.4-2.6,2.8-4.4,5.4-4.2   c0.5,0.1,49.5,6.2,109.8-6.4c2.7-0.4,5.3,1.4,5.7,4.1c0.4,2.6-1.2,5-3.7,5.7C333.5,137.2,306.7,140,279.9,140z"/><path class="st0" d="M303.8,402.5c-8,0-12.6-0.4-13.1-0.4c-2.8-0.2-4.8-2.7-4.6-5.4s2.7-4.8,5.4-4.6c0.5,0,35,2.8,86.9-7.9   c2.7-0.4,5.3,1.4,5.7,4.1c0.4,2.6-1.2,5-3.7,5.7C345.6,401.2,318.7,402.5,303.8,402.5z"/><path class="st0" d="M187.8,179.9c-1.2,0-2.3-0.4-3.2-1.2L34.3,53c-2.2-1.7-2.5-4.9-0.8-7c1.7-2.2,4.9-2.5,7-0.8   c0.1,0.1,0.1,0.1,0.2,0.2L191,171.1c2.1,1.8,2.4,4.9,0.6,7C190.7,179.2,189.3,179.9,187.8,179.9L187.8,179.9z"/><path class="st0" d="M490.2,117.1c-1.8,0-3.5-1-4.4-2.6c-0.5-0.8-0.9-1.7-1.4-2.5c-1.3-2.4-0.5-5.5,1.9-6.8   c2.4-1.3,5.5-0.5,6.8,1.9l0,0c0.5,0.9,1,1.8,1.5,2.7c1.3,2.4,0.4,5.5-2.1,6.8c0,0,0,0,0,0C491.9,116.9,491,117.1,490.2,117.1z    M478,97.6c-1.6,0-3.1-0.8-4-2.1c-0.6-0.8-1.1-1.6-1.7-2.4c-1.7-2.2-1.2-5.3,1-7s5.3-1.2,7,1c0.6,0.8,1.2,1.7,1.8,2.5   c1.6,2.2,1.1,5.4-1.1,7c0,0,0,0,0,0C480.1,97.3,479.1,97.6,478,97.6z M463.6,79.7c-1.4,0-2.8-0.6-3.7-1.7c-0.6-0.7-1.3-1.5-2-2.2   c-1.8-2.1-1.5-5.3,0.6-7c2-1.7,5-1.6,6.8,0.3c0.7,0.8,1.4,1.5,2.1,2.3c1.8,2.1,1.6,5.2-0.4,7.1C466,79.2,464.8,79.7,463.6,79.7   L463.6,79.7z M447.5,63.2c-1.3,0-2.5-0.5-3.4-1.3l-2.2-2c-2-1.9-2.2-5-0.3-7.1c1.9-2,5-2.2,7.1-0.3c0.7,0.7,1.5,1.4,2.2,2.1   c2,1.9,2.1,5.1,0.2,7.1C450.2,62.6,448.9,63.2,447.5,63.2L447.5,63.2z M430,48.3c-1.1,0-2.1-0.4-3-1c-1.4-1.1-2.2-1.7-2.3-1.7   c-2.2-1.6-2.8-4.7-1.1-7c1.6-2.2,4.7-2.8,7-1.2c0,0,0.9,0.7,2.5,1.9c2.2,1.7,2.7,4.8,1,7C433.1,47.6,431.6,48.3,430,48.3L430,48.3z   "/><path class="st0" d="M85.7,472c-1,0-2.1-0.3-2.9-0.9c0,0-0.9-0.6-2.6-1.9c-2.2-1.6-2.7-4.8-1-7c1.6-2.2,4.8-2.7,7-1   c0,0,0.1,0.1,0.1,0.1c1.4,1.1,2.2,1.7,2.3,1.7c2.2,1.6,2.8,4.7,1.1,7C88.8,471.2,87.3,472,85.7,472z M67.9,457.3   c-1.2,0-2.5-0.5-3.4-1.3l-2.2-2.1c-2-1.9-2.1-5.1-0.2-7.1c1.9-2,5.1-2.1,7.1-0.2c0.7,0.7,1.5,1.4,2.2,2c2,1.9,2.2,5,0.3,7.1   C70.7,456.7,69.3,457.3,67.9,457.3L67.9,457.3z M51.7,441c-1.4,0-2.7-0.6-3.7-1.6c-0.7-0.7-1.4-1.5-2-2.3c-1.8-2.1-1.7-5.2,0.4-7.1   s5.2-1.7,7.1,0.4l0,0c0.7,0.7,1.3,1.5,2,2.2c1.9,2,1.7,5.2-0.4,7.1C54.2,440.6,52.9,441,51.7,441z M37,423.3c-1.6,0-3.1-0.7-4-2   c-0.6-0.8-1.2-1.6-1.8-2.5c-1.8-2.1-1.6-5.3,0.5-7s5.3-1.6,7,0.5c0.2,0.2,0.4,0.5,0.5,0.7c0.6,0.8,1.1,1.6,1.7,2.4   c1.7,2.2,1.2,5.3-1,7C39.1,423,38.1,423.4,37,423.3L37,423.3z M24.5,404c-1.8,0-3.5-1-4.4-2.6c-0.5-0.9-1-1.8-1.5-2.7   c-1.3-2.4-0.4-5.5,2.1-6.8c2.4-1.3,5.5-0.4,6.8,2.1c0.5,0.9,0.9,1.7,1.4,2.5c1.3,2.4,0.5,5.5-1.9,6.8C26.2,403.8,25.3,404,24.5,404   z"/></g><g><path class="st0" d="M258.3,498.7c-64.8,0-125.8-25.2-171.6-71.1C40.8,381.8,15.6,320.8,15.6,256c0-64.8,25.2-125.8,71.1-171.6   s106.8-71.1,171.6-71.1c64.8,0,125.8,25.2,171.6,71.1C475.7,130.2,501,191.2,501,256c0,64.8-25.2,125.8-71.1,171.6   C384,473.5,323.1,498.7,258.3,498.7z M258.3,23.3c-62.2,0-120.6,24.2-164.5,68.2c-44,44-68.2,102.4-68.2,164.5   c0,62.2,24.2,120.6,68.2,164.5c44,44,102.4,68.2,164.5,68.2c62.2,0,120.6-24.2,164.5-68.2c44-44,68.2-102.4,68.2-164.5   c0-62.2-24.2-120.6-68.2-164.5C378.9,47.5,320.4,23.3,258.3,23.3z"/></g></svg>