<?xml version="1.0" ?><svg viewBox="0 0 512 512" xmlns="http://www.w3.org/2000/svg"><defs><style>.cls-1{fill:#3f456b;}</style></defs><title/><g id="Lines"><path class="cls-1" d="M495,303a5,5,0,0,1-4.87-3.85l-42-178,0-.15c0-.2-4.59-21.26-20.89-30.28-10-5.53-22.6-5.54-37.47,0s-27,10.4-27.12,10.45a5,5,0,1,1-3.74-9.28c.12,0,12.34-5,27.38-10.55,17.77-6.58,33.2-6.34,45.86.7,19.95,11.09,25.36,35,25.76,36.91l42,177.93a5,5,0,0,1-3.72,6A5.07,5.07,0,0,1,495,303Z"/><path class="cls-1" d="M16.75,303a5.07,5.07,0,0,1-1.15-.13,5,5,0,0,1-3.72-6l42-177.93C54.27,117,59.68,93.1,79.62,82c12.67-7,28.1-7.28,45.87-.7,15,5.57,27.26,10.5,27.38,10.55a5,5,0,0,1-3.74,9.28c-.12,0-12.22-4.93-27.12-10.45s-27.53-5.5-37.52.06c-16.36,9.1-20.8,30-20.84,30.25l0,.15-42,178A5,5,0,0,1,16.75,303Z"/><path class="cls-1" d="M128,401a82,82,0,1,1,82-82A82.1,82.1,0,0,1,128,401Zm0-154a72,72,0,1,0,72,72A72.08,72.08,0,0,0,128,247Z"/><path class="cls-1" d="M384,401a82,82,0,1,1,82-82A82.1,82.1,0,0,1,384,401Zm0-154a72,72,0,1,0,72,72A72.08,72.08,0,0,0,384,247Z"/><g data-name="&lt;编组&gt;" id="_编组_"><path class="cls-1" d="M384,437a118,118,0,0,1-115.52-93.87c-1.53-.79-5.11-2.13-11.71-2.13-8.22,0-12.32,2.1-13.38,2.74a118,118,0,1,1,.26-48.23c1,.61,4.55,2.49,12.35,2.49,6.47,0,10.39-1.3,12.28-2.16A118,118,0,1,1,384,437ZM275,335.41a4.35,4.35,0,0,1,.7.38,4.94,4.94,0,0,1,2.15,3.25,108,108,0,1,0-.17-39.16,5,5,0,0,1-1.71,2.95c-.63.53-6.55,5.17-20,5.17-9.46,0-14.85-2.27-17.52-3.93a5,5,0,0,1-4.15-4.07,108,108,0,1,0-.18,38.91,5,5,0,0,1,2.11-3.22,4.88,4.88,0,0,1,2.57-.86c2.8-1.55,8.52-3.83,17.94-3.83C267.18,331,272.66,333.75,275,335.41Z"/></g></g><g id="Outline"><path class="cls-1" d="M350.1,236.56a5,5,0,0,1-4.63-3.12l-5.57-13.67a5,5,0,0,1,9.26-3.77l5.57,13.67a5,5,0,0,1-4.63,6.89Z"/><path class="cls-1" d="M427.48,426.44a5,5,0,0,1-4.64-3.12l-6.09-14.95A5,5,0,0,1,426,404.6l6.09,14.95a5,5,0,0,1-4.62,6.89Z"/><path class="cls-1" d="M474.2,288.09a5,5,0,0,1-1.89-9.63L486,272.89a5,5,0,1,1,3.77,9.26l-13.67,5.57A5,5,0,0,1,474.2,288.09Z"/><path class="cls-1" d="M283.25,365.91a5,5,0,0,1-1.89-9.63l14.95-6.09a5,5,0,0,1,3.78,9.26l-14.95,6.09A5,5,0,0,1,283.25,365.91Z"/><path class="cls-1" d="M298.18,287.44a5.17,5.17,0,0,1-1.94-.39l-13.6-5.73a5,5,0,1,1,3.88-9.22l13.6,5.73a5,5,0,0,1-1.94,9.61Z"/><path class="cls-1" d="M487.16,367a5.13,5.13,0,0,1-1.94-.39l-14.88-6.27a5,5,0,1,1,3.88-9.21l14.88,6.26a5,5,0,0,1-1.94,9.61Z"/><path class="cls-1" d="M422.37,236.13a5,5,0,0,1-4.6-6.95l5.72-13.6a5,5,0,1,1,9.22,3.88L427,233.07A5,5,0,0,1,422.37,236.13Z"/><path class="cls-1" d="M342.38,426.17a4.94,4.94,0,0,1-1.94-.39,5,5,0,0,1-2.67-6.55L344,404.35a5,5,0,1,1,9.21,3.88L347,423.11A5,5,0,0,1,342.38,426.17Z"/><path class="cls-1" d="M319.07,256.9a5,5,0,0,1-3.55-1.48l-10.4-10.48a5,5,0,0,1,7.11-7l10.39,10.48a5,5,0,0,1-3.55,8.52Z"/><path class="cls-1" d="M463.4,402.54a5,5,0,0,1-3.56-1.48l-11.36-11.47a5,5,0,0,1,7.1-7L467,394a5,5,0,0,1-3.55,8.52Z"/><path class="cls-1" d="M453.44,256.86a5,5,0,0,1-3.52-8.55l10.49-10.39a5,5,0,0,1,7,7.1L457,255.41A5,5,0,0,1,453.44,256.86Z"/><path class="cls-1" d="M307,402a5,5,0,0,1-3.52-8.55l11.46-11.36a5,5,0,0,1,7,7.1l-11.46,11.37A5,5,0,0,1,307,402Z"/><path class="cls-1" d="M495.7,324.74h0l-16.14-.08a5,5,0,0,1,0-10h0l16.14.08a5,5,0,0,1,0,10Z"/><path class="cls-1" d="M385.65,228.76h0a5,5,0,0,1-5-5l.07-14.76a5,5,0,0,1,5-5h0a5,5,0,0,1,5,5l-.07,14.76A5,5,0,0,1,385.65,228.76Z"/><path class="cls-1" d="M384.72,435h0a5,5,0,0,1-5-5l.07-16.14a5,5,0,0,1,5-5h0a5,5,0,0,1,5,5L389.72,430A5,5,0,0,1,384.72,435Z"/><path class="cls-1" d="M162.85,236.56a5,5,0,0,1-4.63-6.89L163.79,216a5,5,0,0,1,9.26,3.77l-5.57,13.67A5,5,0,0,1,162.85,236.56Z"/><path class="cls-1" d="M85.47,426.44a5,5,0,0,1-4.63-6.89l6.1-14.95a5,5,0,0,1,9.26,3.77l-6.1,14.95A5,5,0,0,1,85.47,426.44Z"/><path class="cls-1" d="M38.75,288.09a5,5,0,0,1-1.89-.37l-13.67-5.57A5,5,0,1,1,27,272.89l13.67,5.57a5,5,0,0,1-1.89,9.63Z"/><path class="cls-1" d="M229.7,365.91a5,5,0,0,1-1.89-.37l-14.95-6.09a5,5,0,0,1,3.77-9.26l15,6.09a5,5,0,0,1-1.88,9.63Z"/><path class="cls-1" d="M214.76,287.44a5,5,0,0,1-1.94-9.61l13.61-5.73a5,5,0,1,1,3.88,9.22l-13.61,5.73A5.09,5.09,0,0,1,214.76,287.44Z"/><path class="cls-1" d="M25.79,367a5,5,0,0,1-1.95-9.61l14.88-6.26a5,5,0,1,1,3.88,9.21L27.72,366.6A5.08,5.08,0,0,1,25.79,367Z"/><path class="cls-1" d="M90.57,236.13A5,5,0,0,1,86,233.07l-5.72-13.61a5,5,0,1,1,9.21-3.88l5.73,13.6a5,5,0,0,1-2.67,6.55A4.92,4.92,0,0,1,90.57,236.13Z"/><path class="cls-1" d="M170.57,426.17a5,5,0,0,1-4.61-3.06l-6.27-14.88a5,5,0,1,1,9.22-3.88l6.26,14.88a5,5,0,0,1-2.67,6.55A4.9,4.9,0,0,1,170.57,426.17Z"/><path class="cls-1" d="M193.88,256.9a5,5,0,0,1-3.55-8.52l10.39-10.48a5,5,0,0,1,7.1,7l-10.39,10.48A5,5,0,0,1,193.88,256.9Z"/><path class="cls-1" d="M49.55,402.54A5,5,0,0,1,46,394l11.36-11.47a5,5,0,0,1,7.11,7L53.1,401.06A5,5,0,0,1,49.55,402.54Z"/><path class="cls-1" d="M59.5,256.86A5,5,0,0,1,56,255.41L45.5,245a5,5,0,0,1,7-7.1L63,248.31a5,5,0,0,1-3.52,8.55Z"/><path class="cls-1" d="M206,402a5,5,0,0,1-3.52-1.44L191,389.19a5,5,0,1,1,7-7.1l11.47,11.36A5,5,0,0,1,206,402Z"/><path class="cls-1" d="M17.25,324.74a5,5,0,0,1,0-10l16.14-.08a5,5,0,0,1,.05,10l-16.15.08Z"/><path class="cls-1" d="M127.3,228.76a5,5,0,0,1-5-5L122.24,209a5,5,0,0,1,5-5h0a5,5,0,0,1,5,5l.06,14.76a5,5,0,0,1-5,5Z"/><path class="cls-1" d="M128.23,435a5,5,0,0,1-5-5l-.08-16.15a5,5,0,0,1,5-5h0a5,5,0,0,1,5,5l.08,16.14a5,5,0,0,1-5,5Z"/><path class="cls-1" d="M92.5,338.5A5,5,0,0,1,89,330l57-57A5,5,0,0,1,153,280L96,337A5,5,0,0,1,92.5,338.5Z"/><path class="cls-1" d="M130.5,346.5A5,5,0,0,1,127,338l27-27A5,5,0,0,1,161,318l-27,27A5,5,0,0,1,130.5,346.5Z"/><path class="cls-1" d="M347.5,338.5A5,5,0,0,1,344,330l57-57A5,5,0,0,1,408,280l-57,57A5,5,0,0,1,347.5,338.5Z"/><path class="cls-1" d="M385.5,346.5A5,5,0,0,1,382,338l27-27A5,5,0,0,1,416,318l-27,27A5,5,0,0,1,385.5,346.5Z"/></g></svg>