<?xml version="1.0" ?><svg viewBox="0 0 512 512" xmlns="http://www.w3.org/2000/svg"><defs><style>.cls-1{fill:#3f456b;}</style></defs><title/><g id="Lines"><path class="cls-1" d="M464.17,385.94a5,5,0,0,1-2.88-9.09c30.36-21.36,30.73-77.08,30.15-93.45h-328L29.3,283.06c22,21.3,35.34,46.68,39.78,75.59a5,5,0,1,1-9.88,1.52C54.51,329.62,39,303.28,13,281.89A5,5,0,0,1,16.16,273h0l147.25.37H496.18a5,5,0,0,1,5,4.58,207.14,207.14,0,0,1-1.64,42.27C495.07,351.21,484.14,373,467,385A5,5,0,0,1,464.17,385.94Z"/><path class="cls-1" d="M110.44,397a57.91,57.91,0,0,1-19.09-3.41c-10.43-3.76-24.43-12.43-31.89-32.39a5,5,0,0,1,9.36-3.5c11.63,31.08,41.64,29.36,42.91,29.26a5,5,0,0,1,.75,10C112.37,396.9,111.65,397,110.44,397Z"/><path class="cls-1" d="M17.84,397c-1.21,0-1.94-.06-2-.06a5,5,0,0,1,.76-10c1.27.09,31.27,1.82,42.9-29.26a5,5,0,0,1,9.36,3.5c-7.46,20-21.47,28.63-31.9,32.39A57.82,57.82,0,0,1,17.84,397Z"/><path class="cls-1" d="M206.35,397a57.86,57.86,0,0,1-19.08-3.41c-10.43-3.76-24.44-12.43-31.9-32.39a5,5,0,0,1,9.36-3.5c11.63,31.08,41.64,29.36,42.91,29.26a5,5,0,0,1,.75,10C208.29,396.9,207.56,397,206.35,397Z"/><path class="cls-1" d="M113.76,397c-1.22,0-1.94-.06-2.05-.06a5,5,0,0,1,.75-10c1.3.09,31.29,1.81,42.91-29.26a5,5,0,0,1,9.36,3.5c-7.46,20-21.46,28.63-31.89,32.39A57.9,57.9,0,0,1,113.76,397Z"/><path class="cls-1" d="M302.7,397a57.82,57.82,0,0,1-19.08-3.41c-10.44-3.76-24.44-12.43-31.9-32.39a5,5,0,0,1,9.36-3.5C272.71,388.74,302.72,387,304,386.92a5,5,0,0,1,.75,10C304.63,396.9,303.91,397,302.7,397Z"/><path class="cls-1" d="M210.1,397c-1.21,0-1.93-.06-2-.06a5,5,0,0,1,.77-10c1.25.09,31.26,1.82,42.89-29.26a5,5,0,1,1,9.36,3.5c-7.46,20-21.46,28.63-31.9,32.39A57.82,57.82,0,0,1,210.1,397Z"/><path class="cls-1" d="M398.61,397a57.86,57.86,0,0,1-19.08-3.41c-10.43-3.76-24.44-12.43-31.9-32.39a5,5,0,0,1,9.37-3.5c11.62,31.08,41.63,29.36,42.9,29.26a5,5,0,0,1,.75,10C400.55,396.9,399.82,397,398.61,397Z"/><path class="cls-1" d="M306,397c-1.22,0-1.94-.06-2-.06a5,5,0,0,1,.75-10c1.31.09,31.29,1.81,42.91-29.26a5,5,0,0,1,9.37,3.5c-7.47,20-21.47,28.63-31.9,32.39A57.9,57.9,0,0,1,306,397Z"/><path class="cls-1" d="M494.52,397a57.9,57.9,0,0,1-19.08-3.41c-10.43-3.76-24.43-12.43-31.9-32.39a5,5,0,0,1,9.37-3.5c11.63,31.08,41.64,29.36,42.91,29.26a5,5,0,0,1,.74,10C496.46,396.9,495.74,397,494.52,397Z"/><path class="cls-1" d="M401.93,397c-1.21,0-1.94-.06-2-.06a5,5,0,1,1,.76-10c1.26.09,31.27,1.82,42.89-29.26a5,5,0,0,1,9.37,3.5c-7.47,20-21.47,28.63-31.9,32.39A57.86,57.86,0,0,1,401.93,397Z"/><path class="cls-1" d="M206.57,451.74a57.82,57.82,0,0,1-19.08-3.41c-10.44-3.76-24.44-12.43-31.9-32.39a5,5,0,0,1,9.36-3.5c11.7,31.28,42.58,29.29,42.89,29.27a5,5,0,1,1,.77,10C208.5,451.68,207.78,451.74,206.57,451.74Z"/><path class="cls-1" d="M114,451.74c-1.21,0-1.94-.06-2-.06a5,5,0,0,1,.76-10c1.26.08,31.27,1.81,42.9-29.27a5,5,0,0,1,9.36,3.5c-7.46,20-21.46,28.63-31.9,32.39A57.82,57.82,0,0,1,114,451.74Z"/><path class="cls-1" d="M302.48,451.74a57.82,57.82,0,0,1-19.08-3.41C273,444.57,259,435.9,251.5,415.94a5,5,0,0,1,9.37-3.5c11.7,31.28,42.57,29.29,42.89,29.27a5,5,0,0,1,.76,10C304.42,451.68,303.69,451.74,302.48,451.74Z"/><path class="cls-1" d="M209.89,451.74c-1.22,0-1.94-.06-2-.06a5,5,0,0,1,.75-10c1.3.09,31.29,1.8,42.91-29.26a5,5,0,0,1,9.37,3.5c-7.47,20-21.47,28.63-31.9,32.39A57.9,57.9,0,0,1,209.89,451.74Z"/><path class="cls-1" d="M398.83,451.74a57.82,57.82,0,0,1-19.08-3.41c-10.44-3.76-24.44-12.43-31.9-32.39a5,5,0,1,1,9.36-3.5c11.63,31.08,41.64,29.35,42.91,29.26a5,5,0,0,1,.75,10C400.77,451.68,400,451.74,398.83,451.74Z"/><path class="cls-1" d="M306.23,451.74c-1.21,0-1.93-.06-2-.06a5,5,0,0,1,.77-10c1.26.08,31.26,1.81,42.89-29.27a5,5,0,1,1,9.36,3.5c-7.46,20-21.46,28.63-31.9,32.39A57.82,57.82,0,0,1,306.23,451.74Z"/><path class="cls-1" d="M177.74,205.48a5,5,0,0,1-5-5v-92.2H128.5v92.2a5,5,0,1,1-10,0v-97.2a5,5,0,0,1,5-5h54.24a5,5,0,0,1,5,5v97.2A5,5,0,0,1,177.74,205.48Z"/><path class="cls-1" d="M177.74,140.28H123.5a5,5,0,1,1,0-10h54.24a5,5,0,0,1,0,10Z"/><path class="cls-1" d="M255.75,205.48a5,5,0,0,1-5-5v-92.2H206.51v92.2a5,5,0,1,1-10,0v-97.2a5,5,0,0,1,5-5h54.24a5,5,0,0,1,5,5v97.2A5,5,0,0,1,255.75,205.48Z"/><path class="cls-1" d="M255.75,140.28H201.51a5,5,0,0,1,0-10h54.24a5,5,0,0,1,0,10Z"/><path class="cls-1" d="M334,205.48a5,5,0,0,1-5-5v-92.2H284.77v92.2a5,5,0,1,1-10,0v-97.2a5,5,0,0,1,5-5H334a5,5,0,0,1,5,5v97.2A5,5,0,0,1,334,205.48Z"/><path class="cls-1" d="M334,140.28H279.77a5,5,0,0,1,0-10H334a5,5,0,0,1,0,10Z"/><path class="cls-1" d="M411.5,205.48a5,5,0,0,1-5-5v-92.2H362.26v92.2a5,5,0,1,1-10,0v-97.2a5,5,0,0,1,5-5H411.5a5,5,0,0,1,5,5v97.2A5,5,0,0,1,411.5,205.48Z"/><path class="cls-1" d="M411.5,140.28H357.26a5,5,0,0,1,0-10H411.5a5,5,0,0,1,0,10Z"/><path class="cls-1" d="M495.29,311H42.53a5,5,0,1,1,0-10H495.29a5,5,0,0,1,0,10Z"/><path class="cls-1" d="M459.5,283H75.5a5,5,0,0,1-5-5V239.5a5,5,0,0,1,5-5h27V201a5,5,0,0,1,5-5h320a5,5,0,0,1,5,5V234.5h27a5,5,0,0,1,5,5V278A5,5,0,0,1,459.5,283Zm-379-10h374V244.5h-27a5,5,0,0,1-5-5V206h-310V239.5a5,5,0,0,1-5,5h-27Z"/><path class="cls-1" d="M231.17,264.67a25.17,25.17,0,1,1,25.16-25.17A25.2,25.2,0,0,1,231.17,264.67Zm0-40.33a15.17,15.17,0,1,0,15.16,15.16A15.18,15.18,0,0,0,231.17,224.34Z"/><path class="cls-1" d="M303.12,264.67a25.17,25.17,0,1,1,25.17-25.17A25.19,25.19,0,0,1,303.12,264.67Zm0-40.33a15.17,15.17,0,1,0,15.17,15.16A15.18,15.18,0,0,0,303.12,224.34Z"/><path class="cls-1" d="M374.83,264.67A25.17,25.17,0,1,1,400,239.5,25.19,25.19,0,0,1,374.83,264.67Zm0-40.33A15.17,15.17,0,1,0,390,239.5,15.18,15.18,0,0,0,374.83,224.34Z"/><path class="cls-1" d="M159.45,264.67a25.17,25.17,0,1,1,25.17-25.17A25.19,25.19,0,0,1,159.45,264.67Zm0-40.33a15.17,15.17,0,1,0,15.17,15.16A15.18,15.18,0,0,0,159.45,224.34Z"/><path class="cls-1" d="M175.67,107.67A5,5,0,0,1,173.92,98c11-4.08,8.69-14.72,8.4-15.92a5.23,5.23,0,0,1,3.09-6.17,4.74,4.74,0,0,1,6,2.27c.73.8,6.47,6.27,26.06,4.85,21.12-1.53,23.77-17.17,23.79-17.32a5.07,5.07,0,0,1,4.41-4.32,4.89,4.89,0,0,1,5.14,3.11c.4.82,3.31,5.88,12.84,4.82,10-1.11,11.25-6.75,11.26-6.8a5,5,0,0,1,7.17-3.65c.5.24,12.77,6.05,22.51-3.09a5,5,0,0,1,8.34,2.75c.1.47,3.16,13.38,26.65,14.68s27.61-11.5,27.78-12a5,5,0,0,1,3.69-3.62,4.84,4.84,0,0,1,4.8,1.63c.54.52,6,5.39,17.78,2.44a5,5,0,0,1,6,3.27c.28.79,7.24,20,32.81,20,11.88,0,22.21-4.19,28.35-11.48,5.58-6.63,7.6-15.51,5.84-25.7-3.29-19-17.54-24.93-25.75-26.8-18.09-4.1-38.68,3.42-49,17.89a5,5,0,0,1-6.55,1.45c-19.16-11-37.82-.15-38,0A5,5,0,0,1,340,37.31a25.62,25.62,0,0,0-5.4-9c-5.1-5.45-12-7.81-20.62-7-21.05,2-24.47,18.48-24.5,18.65a5,5,0,0,1-5.89,4C271.27,41.51,266,48.88,266,49a5,5,0,0,1-4.24,2.16,5,5,0,0,1-4.13-2.38c-.41-.67-10.69-16.64-28.33-9.7-18.21,7.15-18.13,23.65-18.12,24.35a5,5,0,0,1-8.82,3.34c-.57-.66-14.58-16.54-39.11-9.53C135.83,65,135.93,87.55,136,101v1.66a5,5,0,1,1-10,0v-1.61c-.06-13-.21-43.58,34.46-53.48,19.75-5.65,34.16.74,42.19,6.32A37.09,37.09,0,0,1,204,50.24c2.72-6.55,8.7-15.44,21.64-20.52,16.73-6.57,29.84,1.33,36.82,9A27.2,27.2,0,0,1,281,33.55c3.5-8.64,12.93-20.36,32-22.15s29.7,8.94,34.36,17.79c7.65-3.07,22.81-7,39,.41,13.17-15.35,36.25-23,56.63-18.41C461.15,15.3,473.32,28,476.44,46c2.28,13.18-.5,24.88-8,33.84-8.16,9.7-20.95,15-36,15-22.85,0-35.53-13.21-40.53-22.79A30.69,30.69,0,0,1,374,69.83a27.22,27.22,0,0,1-4.4,4.88c-5,4.36-14.32,9.37-30.56,8.46-20.15-1.12-29.14-9.69-33-16-8.9,5.17-18.06,4-23.49,2.44-2.49,3.85-7.56,8.52-17.73,9.65-7.74.86-13.12-1-16.72-3.48-4.33,7.68-13.39,16-29.84,17.23-12.34.89-20.54-.63-25.91-2.73-1.22,6.5-5.2,13.49-14.87,17.09A4.82,4.82,0,0,1,175.67,107.67Zm15.8-29.39Z"/><path class="cls-1" d="M103.33,340.55a5,5,0,0,1-5-5v-2.68a5,5,0,0,1,10,0v2.68A5,5,0,0,1,103.33,340.55Z"/><path class="cls-1" d="M142.85,340.55a5,5,0,0,1-5-5v-2.68a5,5,0,0,1,10,0v2.68A5,5,0,0,1,142.85,340.55Z"/><path class="cls-1" d="M182.36,340.55a5,5,0,0,1-5-5v-2.68a5,5,0,0,1,10,0v2.68A5,5,0,0,1,182.36,340.55Z"/><path class="cls-1" d="M221.87,340.55a5,5,0,0,1-5-5v-2.68a5,5,0,0,1,10,0v2.68A5,5,0,0,1,221.87,340.55Z"/><path class="cls-1" d="M261.39,340.55a5,5,0,0,1-5-5v-2.68a5,5,0,0,1,10,0v2.68A5,5,0,0,1,261.39,340.55Z"/><path class="cls-1" d="M300.9,340.55a5,5,0,0,1-5-5v-2.68a5,5,0,0,1,10,0v2.68A5,5,0,0,1,300.9,340.55Z"/><path class="cls-1" d="M340.42,340.55a5,5,0,0,1-5-5v-2.68a5,5,0,0,1,10,0v2.68A5,5,0,0,1,340.42,340.55Z"/><path class="cls-1" d="M379.49,340.55a5,5,0,0,1-5-5v-2.68a5,5,0,0,1,10,0v2.68A5,5,0,0,1,379.49,340.55Z"/><path class="cls-1" d="M419,340.55a5,5,0,0,1-5-5v-2.68a5,5,0,0,1,10,0v2.68A5,5,0,0,1,419,340.55Z"/></g><g id="Outline"><path class="cls-1" d="M42.93,187.94l-.56,0a5,5,0,0,1-4.43-4.61c-1.21-17.53-20-16.92-22.16-16.8a5,5,0,0,1-.64-10,40.69,40.69,0,0,1,15.19,2.35,26,26,0,0,1,14.24,11.84c5.75-6.07,15.35-11.14,29.87-9.31a5,5,0,1,1-1.24,9.92c-20.15-2.52-25,11.45-25.47,13.05A5,5,0,0,1,42.93,187.94Z"/></g></svg>