<?xml version="1.0" ?><svg viewBox="0 0 512 512" xmlns="http://www.w3.org/2000/svg"><defs><style>.cls-1{fill:#3f456b;}</style></defs><title/><g id="Lines"><path class="cls-1" d="M464,278a5,5,0,0,1-5-5V39a18,18,0,0,0-17.95-18H72A18,18,0,0,0,54,39V273a5,5,0,0,1-10,0V39A28,28,0,0,1,72,11h369.1A28,28,0,0,1,469,39V273A5,5,0,0,1,464,278Z"/><path class="cls-1" d="M463.67,501H49.33C30.77,501,28,483.49,28,473.05c0-.13,0-.27,0-.4l16-200a5,5,0,1,1,10,.8L38,473.25c0,5.9.13,17.75,11.33,17.75H463.67c11.2,0,11.33-11.85,11.33-17.75L459,273.4a5,5,0,0,1,10-.8l16,200c0,.13,0,.27,0,.4C485,483.49,482.23,501,463.67,501Z"/><path class="cls-1" d="M463,278H49a5,5,0,0,1,0-10H463a5,5,0,0,1,0,10Z"/><path class="cls-1" d="M480,477H33a5,5,0,0,1,0-10H480a5,5,0,0,1,0,10Z"/><path class="cls-1" d="M326,453H189a5,5,0,0,1-5-5.37l4-54a5,5,0,0,1,5-4.63H321a5,5,0,0,1,5,4.54l5,54a5,5,0,0,1-5,5.46ZM194.38,443H320.52l-4.08-44H197.64Z"/></g><g id="Outline"><path class="cls-1" d="M401.42,370h-1a5,5,0,0,1,0-10h1a5,5,0,1,1,0,10Z"/><path class="cls-1" d="M398.08,310h-1a5,5,0,1,1,0-10h1a5,5,0,0,1,0,10Z"/><path class="cls-1" d="M383.17,340h-1a5,5,0,0,1,0-10h1a5,5,0,1,1,0,10Z"/><path class="cls-1" d="M368.83,370h-1a5,5,0,1,1,0-10h1a5,5,0,0,1,0,10Z"/><path class="cls-1" d="M367.17,310h-1a5,5,0,0,1,0-10h1a5,5,0,1,1,0,10Z"/><path class="cls-1" d="M352.25,340h-1a5,5,0,0,1,0-10h1a5,5,0,0,1,0,10Z"/><path class="cls-1" d="M434,370h-1a5,5,0,0,1,0-10h1a5,5,0,0,1,0,10Z"/><path class="cls-1" d="M429.08,310h-1a5,5,0,1,1,0-10h1a5,5,0,0,1,0,10Z"/><path class="cls-1" d="M414.17,340h-1a5,5,0,0,1,0-10h1a5,5,0,1,1,0,10Z"/><path class="cls-1" d="M336.25,370h-1a5,5,0,0,1,0-10h1a5,5,0,0,1,0,10Z"/><path class="cls-1" d="M336.25,310h-1a5,5,0,0,1,0-10h1a5,5,0,0,1,0,10Z"/><path class="cls-1" d="M321.33,340h-1a5,5,0,1,1,0-10h1a5,5,0,0,1,0,10Z"/><path class="cls-1" d="M305.33,310h-1a5,5,0,1,1,0-10h1a5,5,0,0,1,0,10Z"/><path class="cls-1" d="M290.42,340h-1a5,5,0,0,1,0-10h1a5,5,0,1,1,0,10Z"/><path class="cls-1" d="M274.42,310h-1a5,5,0,0,1,0-10h1a5,5,0,1,1,0,10Z"/><path class="cls-1" d="M259.5,340h-1a5,5,0,0,1,0-10h1a5,5,0,0,1,0,10Z"/><path class="cls-1" d="M243.5,310h-1a5,5,0,0,1,0-10h1a5,5,0,0,1,0,10Z"/><path class="cls-1" d="M228.58,340h-1a5,5,0,0,1,0-10h1a5,5,0,1,1,0,10Z"/><path class="cls-1" d="M212.58,310h-1a5,5,0,0,1,0-10h1a5,5,0,1,1,0,10Z"/><path class="cls-1" d="M197.67,340h-1a5,5,0,1,1,0-10h1a5,5,0,0,1,0,10Z"/><path class="cls-1" d="M181.67,310h-1a5,5,0,1,1,0-10h1a5,5,0,0,1,0,10Z"/><path class="cls-1" d="M166.75,340h-1a5,5,0,0,1,0-10h1a5,5,0,0,1,0,10Z"/><path class="cls-1" d="M150.75,370h-1a5,5,0,0,1,0-10h1a5,5,0,0,1,0,10Z"/><path class="cls-1" d="M150.75,310h-1a5,5,0,0,1,0-10h1a5,5,0,0,1,0,10Z"/><path class="cls-1" d="M135.83,340h-1a5,5,0,0,1,0-10h1a5,5,0,1,1,0,10Z"/><path class="cls-1" d="M117.38,370h-1a5,5,0,0,1,0-10h1a5,5,0,0,1,0,10Z"/><path class="cls-1" d="M119.83,310h-1a5,5,0,1,1,0-10h1a5,5,0,0,1,0,10Z"/><path class="cls-1" d="M104.92,340h-1a5,5,0,0,1,0-10h1a5,5,0,1,1,0,10Z"/><path class="cls-1" d="M84,370H83a5,5,0,0,1,0-10h1a5,5,0,0,1,0,10Z"/><path class="cls-1" d="M88.92,310h-1a5,5,0,0,1,0-10h1a5,5,0,1,1,0,10Z"/><path class="cls-1" d="M305,370H181a5,5,0,0,1,0-10H305a5,5,0,0,1,0,10Z"/></g></svg>