<?xml version="1.0" ?><svg viewBox="0 0 512 512" xmlns="http://www.w3.org/2000/svg"><defs><style>.cls-1{fill:#3f456b;}</style></defs><title/><g id="Lines"><path class="cls-1" d="M334.26,451H180.17c-8.18,0-14.54-3.71-17.91-10.45a24,24,0,0,1-2.45-9.91V99.4A43.45,43.45,0,0,1,203.22,56H309.78a43.45,43.45,0,0,1,43.41,43.4V430.63c0,6.6-2,11.79-5.87,15.43A19.49,19.49,0,0,1,334.26,451Zm-.14-10a9.82,9.82,0,0,0,6.42-2.29c1.76-1.68,2.65-4.4,2.65-8.08V99.4A33.44,33.44,0,0,0,309.78,66H203.22a33.44,33.44,0,0,0-33.41,33.4V430.63c0,2.4.9,10.36,10.36,10.36h154Z"/><path class="cls-1" d="M348.19,235H164.81a5,5,0,0,1,0-10H348.19a5,5,0,0,1,0,10Z"/><path class="cls-1" d="M348.19,278H282a5,5,0,0,1,0-10h66.19a5,5,0,1,1,0,10Z"/><path class="cls-1" d="M229.83,278h-65a5,5,0,0,1,0-10h65a5,5,0,1,1,0,10Z"/><path class="cls-1" d="M238.44,359H100a5,5,0,0,1,0-10H238.44a5,5,0,1,1,0,10Z"/><path class="cls-1" d="M413,359H272.69a5,5,0,0,1,0-10H413a5,5,0,0,1,0,10Z"/><path class="cls-1" d="M255.92,498c-30,0-52.09-7.14-65.65-21.22-13.72-14.24-13.29-30.29-13.27-31a5,5,0,0,1,10,.35c0,.55-.17,12.77,10.64,23.86,11.64,11.93,31.25,18,58.28,18,27.2,0,47.05-6.13,59-18.22C326,458.53,326,446.19,326,446.06a5,5,0,0,1,10-.12c0,.67,0,16.68-14,30.87S285.9,498,255.92,498Z"/><path class="cls-1" d="M269.52,347.56a5,5,0,0,1-3.3-8.76l79.49-69.51a5,5,0,0,1,6.79.19l70.77,69.35a5,5,0,0,1-7,7.14l-67.46-66.11-76,66.47A5,5,0,0,1,269.52,347.56Z"/><path class="cls-1" d="M242.92,347.56a4.93,4.93,0,0,1-3.35-1.29l-73.41-66.34L99.6,346a5,5,0,1,1-7-7.1l69.93-69.36a5,5,0,0,1,6.87-.16l76.92,69.51a5,5,0,0,1-3.35,8.71Z"/><path class="cls-1" d="M166,434.46a5,5,0,0,1-3.38-1.32l-69.68-63.8A5,5,0,0,1,99.69,362l66.46,60.85,74-61.77a5,5,0,1,1,6.41,7.68L169.2,433.3A5,5,0,0,1,166,434.46Z"/><path class="cls-1" d="M349,437a5,5,0,0,1-3.2-1.16L265.66,369a5,5,0,1,1,6.41-7.68l76.74,64,67.57-63.15a5,5,0,1,1,6.83,7.3l-70.8,66.17A5,5,0,0,1,349,437Z"/><path class="cls-1" d="M432,375a21,21,0,1,1,21-21A21,21,0,0,1,432,375Zm0-32a11,11,0,1,0,11,11A11,11,0,0,0,432,343Z"/><path class="cls-1" d="M256,375a21,21,0,1,1,21-21A21,21,0,0,1,256,375Zm0-32a11,11,0,1,0,11,11A11,11,0,0,0,256,343Z"/><path class="cls-1" d="M84,375a21,21,0,1,1,21-21A21,21,0,0,1,84,375Zm0-32a11,11,0,1,0,11,11A11,11,0,0,0,84,343Z"/><path class="cls-1" d="M256,423a5,5,0,0,1-5-5v-1a5,5,0,0,1,10,0v1A5,5,0,0,1,256,423Z"/><path class="cls-1" d="M256,305a30,30,0,1,1,30-30A30,30,0,0,1,256,305Zm0-50a20,20,0,1,0,20,20A20,20,0,0,0,256,255Z"/></g><g id="Outline"><path class="cls-1" d="M330,124h-.95a5,5,0,0,1,0-10H330a5,5,0,0,1,0,10Z"/><path class="cls-1" d="M330,180h-.95a5,5,0,0,1,0-10H330a5,5,0,0,1,0,10Z"/><path class="cls-1" d="M315.9,96H315a5,5,0,0,1,0-10h.95a5,5,0,0,1,0,10Z"/><path class="cls-1" d="M300.77,124h-.94a5,5,0,0,1,0-10h.94a5,5,0,0,1,0,10Z"/><path class="cls-1" d="M315.9,152H315a5,5,0,0,1,0-10h.95a5,5,0,0,1,0,10Z"/><path class="cls-1" d="M300.77,180h-.94a5,5,0,0,1,0-10h.94a5,5,0,0,1,0,10Z"/><path class="cls-1" d="M315.9,208H315a5,5,0,0,1,0-10h.95a5,5,0,0,1,0,10Z"/><path class="cls-1" d="M286.67,96h-.94a5,5,0,0,1,0-10h.94a5,5,0,0,1,0,10Z"/><path class="cls-1" d="M271.54,124h-.94a5,5,0,0,1,0-10h.94a5,5,0,0,1,0,10Z"/><path class="cls-1" d="M286.67,152h-.94a5,5,0,0,1,0-10h.94a5,5,0,0,1,0,10Z"/><path class="cls-1" d="M271.54,180h-.94a5,5,0,0,1,0-10h.94a5,5,0,0,1,0,10Z"/><path class="cls-1" d="M286.67,208h-.94a5,5,0,0,1,0-10h.94a5,5,0,0,1,0,10Z"/><path class="cls-1" d="M257.44,96h-.94a5,5,0,0,1,0-10h.94a5,5,0,0,1,0,10Z"/><path class="cls-1" d="M242.32,124h-.95a5,5,0,0,1,0-10h.95a5,5,0,0,1,0,10Z"/><path class="cls-1" d="M257.44,152h-.94a5,5,0,0,1,0-10h.94a5,5,0,0,1,0,10Z"/><path class="cls-1" d="M242.32,180h-.95a5,5,0,0,1,0-10h.95a5,5,0,0,1,0,10Z"/><path class="cls-1" d="M257.44,208h-.94a5,5,0,0,1,0-10h.94a5,5,0,0,1,0,10Z"/><path class="cls-1" d="M228.22,96h-.95a5,5,0,1,1,0-10h.95a5,5,0,1,1,0,10Z"/><path class="cls-1" d="M213.09,124h-1a5,5,0,0,1,0-10h1a5,5,0,1,1,0,10Z"/><path class="cls-1" d="M228.22,152h-.95a5,5,0,1,1,0-10h.95a5,5,0,1,1,0,10Z"/><path class="cls-1" d="M213.09,180h-1a5,5,0,0,1,0-10h1a5,5,0,1,1,0,10Z"/><path class="cls-1" d="M228.22,208h-.95a5,5,0,1,1,0-10h.95a5,5,0,1,1,0,10Z"/><path class="cls-1" d="M199,96h-1a5,5,0,1,1,0-10h1a5,5,0,0,1,0,10Z"/><path class="cls-1" d="M183.86,124h-.94a5,5,0,1,1,0-10h.94a5,5,0,0,1,0,10Z"/><path class="cls-1" d="M199,152h-1a5,5,0,1,1,0-10h1a5,5,0,0,1,0,10Z"/><path class="cls-1" d="M183.86,180h-.94a5,5,0,1,1,0-10h.94a5,5,0,0,1,0,10Z"/><path class="cls-1" d="M199,208h-1a5,5,0,1,1,0-10h1a5,5,0,0,1,0,10Z"/><path class="cls-1" d="M83,341.54a5,5,0,0,1-4.16-2.22A212,212,0,0,1,43,221C43,103.55,138.55,8,256,8s213,95.55,213,213a212.45,212.45,0,0,1-32.32,112.85,5,5,0,1,1-8.48-5.3A202.43,202.43,0,0,0,459,221c0-111.93-91.07-203-203-203S53,109.07,53,221A202.05,202.05,0,0,0,87.17,333.76,5,5,0,0,1,83,341.54Z"/><path class="cls-1" d="M70.23,255a5,5,0,0,1-4.93-4.23c-.27-1.69-.51-3.39-.72-5.08a5,5,0,1,1,9.91-1.28c.21,1.61.44,3.22.69,4.82A5,5,0,0,1,71,254.94,4.9,4.9,0,0,1,70.23,255Zm373.5-18.86h-.27a5,5,0,0,1-4.72-5.26c.09-1.61.15-3.25.19-4.86a5,5,0,1,1,10,.27c-.05,1.7-.11,3.43-.21,5.13A5,5,0,0,1,443.73,236.14ZM68,230.12a5,5,0,0,1-5-4.9c0-1.34,0-2.69,0-4v-1.1a5,5,0,0,1,5-5h0a5,5,0,0,1,5,5v1.05c0,1.27,0,2.55,0,3.82a5,5,0,0,1-4.89,5.1Zm375.36-19a5,5,0,0,1-5-4.61c-.12-1.61-.27-3.23-.44-4.85a5,5,0,0,1,9.94-1c.18,1.68.34,3.4.47,5.11a5,5,0,0,1-4.59,5.38Zm-374.23-6-.56,0a5,5,0,0,1-4.41-5.52c.19-1.7.4-3.4.63-5.09a5,5,0,0,1,9.91,1.36c-.22,1.61-.42,3.22-.61,4.83A5,5,0,0,1,69.17,205.16Zm370.62-18.72a5,5,0,0,1-4.88-3.95c-.34-1.59-.7-3.17-1.08-4.75a5,5,0,1,1,9.71-2.36c.41,1.66.79,3.34,1.15,5a5,5,0,0,1-3.84,5.94A5.53,5.53,0,0,1,439.79,186.44ZM73.57,180.57a5,5,0,0,1-4.86-6.2c.42-1.68.85-3.35,1.3-5a5,5,0,0,1,9.64,2.67c-.43,1.54-.84,3.12-1.23,4.71A5,5,0,0,1,73.57,180.57ZM433,162.41a5,5,0,0,1-4.7-3.32c-.54-1.5-1.12-3-1.71-4.55a5,5,0,1,1,9.32-3.63c.63,1.6,1.23,3.22,1.8,4.81a5,5,0,0,1-4.71,6.69ZM81.17,156.79a5.22,5.22,0,0,1-1.84-.35A5,5,0,0,1,76.52,150c.63-1.59,1.28-3.19,2-4.74a5,5,0,1,1,9.2,3.92c-.64,1.49-1.25,3-1.85,4.49A5,5,0,0,1,81.17,156.79ZM423,139.5a5,5,0,0,1-4.44-2.7c-.75-1.44-1.52-2.88-2.3-4.29a5,5,0,1,1,8.75-4.84c.82,1.49,1.64,3,2.43,4.53a5,5,0,0,1-4.44,7.3Zm-331.1-5.27a5,5,0,0,1-4.36-7.45c.84-1.48,1.7-3,2.57-4.43a5,5,0,1,1,8.59,5.11c-.83,1.39-1.64,2.8-2.43,4.21A5,5,0,0,1,91.87,134.23ZM410,118.14a5,5,0,0,1-4.1-2.13c-.93-1.33-1.89-2.66-2.85-4a5,5,0,1,1,8-6c1,1.37,2,2.77,3,4.17a5,5,0,0,1-4.09,7.88ZM105.49,113.3a4.93,4.93,0,0,1-3-1,5,5,0,0,1-1-7c1-1.36,2.08-2.73,3.13-4a5,5,0,1,1,7.83,6.21q-1.5,1.91-3,3.84A5,5,0,0,1,105.49,113.3ZM394.33,98.68a5,5,0,0,1-3.68-1.61q-1.65-1.78-3.34-3.54a5,5,0,0,1,7.17-7c1.19,1.24,2.38,2.49,3.53,3.73a5,5,0,0,1-3.68,8.39ZM121.77,94.37a5,5,0,0,1-3.57-8.5c.44-.45.88-.9,1.33-1.34.76-.77,1.54-1.53,2.32-2.28a5,5,0,1,1,6.94,7.19L126.6,91.6l-1.26,1.27A5,5,0,0,1,121.77,94.37ZM376.23,81.46A5,5,0,0,1,373,80.3q-1.86-1.56-3.77-3.06a5,5,0,0,1,6.2-7.85q2,1.58,4,3.23a5,5,0,0,1-3.21,8.84ZM140.4,77.72a5,5,0,0,1-3.08-8.94c1.35-1.06,2.73-2.11,4.1-3.12a5,5,0,0,1,5.94,8c-1.29,1-2.6,1.94-3.88,3A5,5,0,0,1,140.4,77.72ZM356,66.78a5,5,0,0,1-2.66-.77c-1.37-.86-2.76-1.71-4.15-2.53a5,5,0,0,1,5.1-8.6c1.46.86,2.93,1.76,4.38,2.67A5,5,0,0,1,356,66.78Zm-195-3.11a5,5,0,0,1-2.54-9.31c1.48-.87,3-1.72,4.47-2.54a5,5,0,1,1,4.82,8.76c-1.4.78-2.83,1.59-4.23,2.41A5.05,5.05,0,0,1,161.08,63.67Zm173-8.75a4.89,4.89,0,0,1-2.07-.45c-1.48-.67-3-1.33-4.45-2a5,5,0,1,1,3.9-9.2c1.57.66,3.15,1.36,4.7,2.06a5,5,0,0,1-2.08,9.55Zm-150.64-2.4a5,5,0,0,1-1.93-9.62c1.58-.65,3.18-1.3,4.77-1.91a5,5,0,1,1,3.61,9.32c-1.51.59-3,1.2-4.52,1.82A5,5,0,0,1,183.43,52.52ZM310.71,46.1a4.86,4.86,0,0,1-1.45-.22q-2.33-.71-4.67-1.35a5,5,0,1,1,2.64-9.64c1.65.45,3.3.93,4.93,1.42a5,5,0,0,1-1.45,9.79ZM207.08,44.45a5,5,0,0,1-1.3-9.83c1.64-.45,3.32-.87,5-1.27a5,5,0,1,1,2.33,9.72c-1.57.38-3.16.79-4.71,1.2A5,5,0,0,1,207.08,44.45Zm79.31-4a4.43,4.43,0,0,1-.81-.07c-1.6-.26-3.21-.5-4.82-.72a5,5,0,0,1,1.35-9.91c1.68.23,3.39.49,5.08.76a5,5,0,0,1-.8,9.94Zm-54.81-.88a5,5,0,0,1-.64-10c1.69-.22,3.4-.42,5.1-.59a5,5,0,0,1,1,9.95c-1.62.16-3.23.35-4.84.56A4.82,4.82,0,0,1,231.58,39.58Zm29.94-1.5h-.15c-1.62,0-3.25-.07-4.87-.08a5,5,0,0,1,0-10h0c1.71,0,3.43,0,5.13.08a5,5,0,0,1-.14,10Z"/><path class="cls-1" d="M432,434.46a5,5,0,0,1-3.34-1.28l-83.81-75.07a5,5,0,0,1-.15-7.32l83.82-81.38A5,5,0,0,1,437,273v65a5,5,0,0,1-10,0V284.82l-71.48,69.41,71.48,64V370a5,5,0,0,1,10,0v59.46a5,5,0,0,1-3,4.56A5.06,5.06,0,0,1,432,434.46Z"/><path class="cls-1" d="M84,434.46a5,5,0,0,1-5-5V370a5,5,0,0,1,10,0v47.79l68.62-65.34L89,284.93V338a5,5,0,0,1-10,0V273a5,5,0,0,1,8.51-3.56l80.81,79.5a5,5,0,0,1-.06,7.19L87.45,433.08A5,5,0,0,1,84,434.46Z"/><path class="cls-1" d="M367.47,238.79a5,5,0,0,1-3.69-8.37c17.5-19.14,17.5-50.29,0-69.43a5,5,0,1,1,7.38-6.74c20.9,22.86,20.9,60.05,0,82.91A5,5,0,0,1,367.47,238.79Z"/><path class="cls-1" d="M387.77,261a5,5,0,0,1-3.69-8.37c28.71-31.39,28.71-82.46,0-113.85a5,5,0,0,1,7.38-6.75c32.11,35.11,32.11,92.24,0,127.35A5,5,0,0,1,387.77,261Z"/><path class="cls-1" d="M146.31,239.05a5,5,0,0,1-3.69-1.63c-21-23-21-60.43,0-83.43a5,5,0,0,1,7.38,6.74c-17.63,19.29-17.63,50.66,0,69.94a5,5,0,0,1-3.69,8.38Z"/><path class="cls-1" d="M125.86,261.41a5,5,0,0,1-3.69-1.63c-32.31-35.33-32.31-92.82,0-128.15a5,5,0,1,1,7.38,6.74c-28.9,31.62-28.9,83,0,114.67a5,5,0,0,1-3.69,8.37Z"/><path class="cls-1" d="M256,423a5,5,0,0,1-5-5v-1a5,5,0,0,1,10,0v1A5,5,0,0,1,256,423Z"/><path class="cls-1" d="M256,401a5,5,0,0,1-5-5v-1a5,5,0,0,1,10,0v1A5,5,0,0,1,256,401Z"/></g></svg>