<?xml version="1.0" encoding="iso-8859-1"?>
<!-- Generator: Adobe Illustrator 19.0.0, SVG Export Plug-In . SVG Version: 6.00 Build 0)  -->
<svg version="1.1" id="Capa_1" xmlns="http://www.w3.org/2000/svg" xmlns:xlink="http://www.w3.org/1999/xlink" x="0px" y="0px"
	 viewBox="0 0 512 512" style="enable-background:new 0 0 512 512;" xml:space="preserve">
<g>
	<g>
		<path d="M473.387,357.184c-0.96-2.795-3.029-5.077-5.739-6.293c-2.709-1.216-5.803-1.237-8.533-0.085
			c-5.056,2.176-10.667,0.427-13.312-4.139c-2.624-4.565-1.323-10.283,3.093-13.611c2.389-1.792,3.904-4.48,4.203-7.445
			c0.299-2.944-0.64-5.909-2.603-8.128c-17.408-19.776-39.829-32.875-64.832-37.845c-2.944-0.64-6.016,0.085-8.427,1.877
			c-2.432,1.771-3.968,4.501-4.288,7.488c-0.555,5.525-4.971,9.664-10.283,9.664s-9.728-4.139-10.261-9.643
			c-0.32-2.987-1.877-5.717-4.288-7.488c-2.432-1.792-5.504-2.517-8.427-1.877c-25.003,4.949-47.424,18.048-64.832,37.845
			c-1.963,2.24-2.901,5.184-2.603,8.128c0.299,2.965,1.835,5.675,4.203,7.445c4.437,3.328,5.739,9.045,3.093,13.611
			c-2.645,4.565-8.277,6.315-13.312,4.139c-2.752-1.173-5.845-1.152-8.533,0.085c-2.709,1.195-4.779,3.477-5.739,6.293
			c-4.459,13.141-6.635,25.408-6.635,37.461s2.176,24.32,6.613,37.483c0.96,2.795,3.029,5.077,5.739,6.293
			c2.688,1.216,5.803,1.237,8.533,0.085c5.056-2.133,10.688-0.427,13.312,4.139c2.624,4.565,1.323,10.283-3.093,13.611
			c-2.389,1.792-3.904,4.48-4.203,7.445c-0.299,2.944,0.64,5.909,2.603,8.128c17.408,19.776,39.829,32.875,64.832,37.845
			c2.923,0.576,5.995-0.107,8.427-1.877c2.432-1.771,3.968-4.501,4.288-7.488c0.555-5.525,4.971-9.664,10.283-9.664
			s9.728,4.139,10.283,9.643c0.32,2.987,1.877,5.717,4.288,7.488c1.856,1.365,4.075,2.091,6.336,2.091
			c0.704,0,1.387-0.064,2.069-0.213c25.003-4.949,47.424-18.048,64.832-37.845c1.963-2.24,2.901-5.184,2.603-8.128
			c-0.299-2.965-1.835-5.675-4.203-7.445c-4.437-3.328-5.739-9.045-3.093-13.611c2.645-4.565,8.256-6.315,13.312-4.139
			c2.731,1.152,5.824,1.131,8.533-0.085c2.709-1.195,4.779-3.477,5.739-6.293c4.459-13.141,6.635-25.408,6.635-37.461
			S477.824,370.347,473.387,357.184z M455.829,416.341c-11.776-0.469-22.571,5.376-28.501,15.68
			c-5.931,10.261-5.355,22.741,0.661,32.469c-10.816,10.24-23.488,17.685-37.291,21.952c-5.333-10.261-15.936-17.109-28.032-17.109
			s-22.699,6.848-28.032,17.088c-13.824-4.245-26.475-11.712-37.291-21.952c6.016-9.707,6.592-22.187,0.661-32.469
			c-5.952-10.304-16.896-16.128-28.501-15.68c-1.899-7.531-2.837-14.677-2.837-21.653s0.939-14.144,2.837-21.675
			c11.584,0.277,22.549-5.397,28.501-15.68c5.931-10.261,5.355-22.741-0.661-32.469c10.816-10.24,23.488-17.685,37.291-21.952
			C339.968,313.152,350.571,320,362.667,320s22.699-6.848,28.032-17.088c13.824,4.245,26.475,11.712,37.291,21.952
			c-6.016,9.707-6.592,22.187-0.661,32.469c5.931,10.283,16.725,15.979,28.501,15.68c1.899,7.531,2.837,14.677,2.837,21.653
			S457.728,408.789,455.829,416.341z"/>
	</g>
</g>
<g>
	<g>
		<path d="M362.667,341.333c-29.397,0-53.333,23.936-53.333,53.333S333.269,448,362.667,448S416,424.064,416,394.667
			S392.064,341.333,362.667,341.333z M362.667,426.667c-17.643,0-32-14.357-32-32s14.357-32,32-32s32,14.357,32,32
			S380.309,426.667,362.667,426.667z"/>
	</g>
</g>
<g>
	<g>
		<path d="M384,42.667h-55.296c-4.416-12.395-16.149-21.333-30.037-21.333h-37.845C253.291,8.32,239.317,0,224,0
			s-29.291,8.32-36.821,21.333h-37.845c-13.888,0-25.621,8.939-30.037,21.333H64c-17.643,0-32,14.357-32,32V480
			c0,17.643,14.357,32,32,32h202.667c5.888,0,10.667-4.779,10.667-10.667c0-5.888-4.779-10.667-10.667-10.667H64
			c-5.888,0-10.667-4.779-10.667-10.667V74.667C53.333,68.779,58.112,64,64,64h53.333v10.667c0,5.888,4.779,10.667,10.667,10.667
			h192c5.888,0,10.667-4.779,10.667-10.667V64H384c5.888,0,10.667,4.779,10.667,10.667v170.667c0,5.888,4.779,10.667,10.667,10.667
			c5.888,0,10.667-4.779,10.667-10.667V74.667C416,57.024,401.643,42.667,384,42.667z M309.333,64H138.667V53.333
			c0-5.888,4.779-10.667,10.667-10.667h44.629c4.501,0,8.533-2.837,10.048-7.104c3.029-8.512,11.072-14.229,19.989-14.229
			s16.96,5.717,19.989,14.229c1.515,4.267,5.547,7.104,10.048,7.104h44.629c5.888,0,10.667,4.779,10.667,10.667V64z"/>
	</g>
</g>
<g>
</g>
<g>
</g>
<g>
</g>
<g>
</g>
<g>
</g>
<g>
</g>
<g>
</g>
<g>
</g>
<g>
</g>
<g>
</g>
<g>
</g>
<g>
</g>
<g>
</g>
<g>
</g>
<g>
</g>
</svg>
