<?xml version="1.0" ?><svg id="Lines" viewBox="0 0 512 512" xmlns="http://www.w3.org/2000/svg"><defs><style>.cls-1{fill:#3f456b;}</style></defs><title/><path class="cls-1" d="M373,500H356a5,5,0,0,1-5-4.79l-7.5-178a5,5,0,0,1,10-.42L360.79,490h7.42l7.29-173.21a5,5,0,1,1,10,.42l-7.5,178A5,5,0,0,1,373,500Z"/><path class="cls-1" d="M454,418H295a5,5,0,0,1,0-10H454a5,5,0,0,1,0,10Z"/><path class="cls-1" d="M255.55,322h-2.22a25,25,0,0,1-25-25V225a24.9,24.9,0,0,1,4.29-14,5,5,0,0,1,8.28,5.61,14.85,14.85,0,0,0-2.57,8.36v72a15,15,0,0,0,15,15h2.22a5,5,0,0,1,0,10Z"/><path class="cls-1" d="M474.67,322H282.12a5,5,0,0,1,0-10H474.67a15,15,0,0,0,15-15V225a15,15,0,0,0-15-15H266.25a5,5,0,0,1,0-10H474.67a25,25,0,0,1,25,25v72A25,25,0,0,1,474.67,322Z"/><path class="cls-1" d="M491.17,284.67H275.75a5,5,0,0,1,0-10H491.17a5,5,0,0,1,0,10Z"/><path class="cls-1" d="M249.33,284.67h-16a5,5,0,1,1,0-10h16a5,5,0,0,1,0,10Z"/><path class="cls-1" d="M251,500H235a5,5,0,0,1-4.91-5.92l27.36-145.41a5,5,0,0,1,9.83,1.85L241,490h6.17L269,411.61a5,5,0,1,1,9.63,2.68l-22.81,82A5,5,0,0,1,251,500Z"/><path class="cls-1" d="M287.64,368.24a4.82,4.82,0,0,1-1.34-.19,5,5,0,0,1-3.48-6.15l12.86-46.24a5,5,0,0,1,9.64,2.68l-12.86,46.24A5,5,0,0,1,287.64,368.24Z"/><path class="cls-1" d="M492.5,500h-16a5,5,0,0,1-4.82-3.69l-48.5-178a5,5,0,1,1,9.64-2.62L480.32,490h6.18L455.08,317.9a5,5,0,0,1,9.84-1.8l32.5,178a5,5,0,0,1-4.92,5.9Z"/><path d="M288.17,106.92H30.33a.26.26,0,0,1-.25-.25.25.25,0,0,1,.25-.25H288.17a.25.25,0,0,1,.25.25A.26.26,0,0,1,288.17,106.92Z"/><path class="cls-1" d="M170,500H153a5,5,0,0,1-5-4.89l-7.5-351a5,5,0,0,1,4.89-5.11h.11a5,5,0,0,1,5,4.89L157.89,490h7.22l7.39-346.11a5,5,0,1,1,10,.22l-7.5,351A5,5,0,0,1,170,500Z"/><path class="cls-1" d="M260,343H62a5,5,0,0,1,0-10H260a5,5,0,0,1,0,10Z"/><path class="cls-1" d="M230,179H92a5,5,0,0,1,0-10H230a5,5,0,0,1,0,10Z"/><path class="cls-1" d="M271.67,149H50.33a25,25,0,0,1-25-25V52a25,25,0,0,1,25-25H271.67a25,25,0,0,1,25,25v72A25,25,0,0,1,271.67,149ZM50.33,37a15,15,0,0,0-15,15v72a15,15,0,0,0,15,15H271.67a15,15,0,0,0,15-15V52a15,15,0,0,0-15-15Z"/><path class="cls-1" d="M288.17,111.67H30.33a5,5,0,0,1,0-10H288.17a5,5,0,0,1,0,10Z"/><path class="cls-1" d="M33,500H17a5,5,0,0,1-4.95-5.68l48.5-351a5,5,0,1,1,9.9,1.36L22.74,490h6.09L92.58,143.1a5,5,0,1,1,9.84,1.8l-64.5,351A5,5,0,0,1,33,500Z"/><path class="cls-1" d="M305.5,500h-16a5,5,0,0,1-4.92-4.1l-64.5-351a5,5,0,0,1,9.84-1.8L293.67,490h6.09L252.05,144.68a5,5,0,1,1,9.9-1.36l48.5,351A5,5,0,0,1,305.5,500Z"/><path class="cls-1" d="M422,210H362a15,15,0,0,1-15-14.87l-2-41.89a1.93,1.93,0,0,1,0-.24,15,15,0,0,1,15-15h64a15,15,0,0,1,15,15,1.93,1.93,0,0,1,0,.24l-2,41.89A15,15,0,0,1,422,210Zm-67-57.1,2,41.86a1.93,1.93,0,0,1,0,.24,5,5,0,0,0,5,5h60a5,5,0,0,0,5-5,1.93,1.93,0,0,1,0-.24l2-41.86a5,5,0,0,0-5-4.9H360A5,5,0,0,0,355,152.9Z"/><path class="cls-1" d="M387.62,148h-.12a5,5,0,0,1-4.88-5.06c0-.8.54-19.89,22-31.9a5,5,0,0,1,4.88,8.73c-16.23,9.09-16.86,22.79-16.87,23.37A5,5,0,0,1,387.62,148Z"/><path class="cls-1" d="M407.06,120.37a5.09,5.09,0,0,1-1.92-.38,5,5,0,0,1-3-3.68c-.22-1.14-4.95-28.09,19.91-43.52,23.37-14.51,53.39-3.23,56.48-2,1.1.32,11,3.07,15.31-1.7a5,5,0,0,1,8.68,2.67c.08.64,2,15.83-8,27.14-7,7.92-17.92,11.79-32.29,11.51-37.3-.71-52.15,9-52.3,9.1A5,5,0,0,1,407.06,120.37Zm42.85-44.88c-7.46,0-15.52,1.41-22.58,5.79a32.46,32.46,0,0,0-15.6,26.29c8.51-3.35,24.67-7.66,50.64-7.15,11.3.2,19.56-2.51,24.58-8.1A22.92,22.92,0,0,0,492.2,81.1c-8,2-16.44-.69-16.93-.86l-.32-.11A74.68,74.68,0,0,0,449.91,75.49Z"/><path class="cls-1" d="M376.83,147.57h-.14a5,5,0,0,1-4.87-5.1,29.66,29.66,0,0,0-7.26-18.11,5.64,5.64,0,0,1-.83-.72,5.15,5.15,0,0,1-.71-1A41.49,41.49,0,0,0,348.24,113c-29.65-11.86-43.16-38.13-32.85-63.9a5,5,0,0,1,9.56,1c.12.63,3.34,16.15,21.3,18.72,19.88,2.84,33.41,11.33,37.13,23.28,3.55,11.4-3.06,21.75-9.13,28.36a39.41,39.41,0,0,1,7.57,22.23A5,5,0,0,1,376.83,147.57ZM322,66.07c-.17,15.73,10.73,30,30,37.69a53.46,53.46,0,0,1,15.54,9.29c5.74-6.43,8-12.7,6.35-18-2.46-7.89-13.57-14.16-29-16.36A35,35,0,0,1,322,66.07Z"/><path class="cls-1" d="M409.16,98c-9,0-15.86-8.31-17.05-9.86-1.55-1.84-11.15-14.37-7-38,4.43-25.42,30.41-39,46.57-40.13a5,5,0,0,1,4.05,8.37c-.35.38-8.77,10-4.05,21.76,7,17.47,7,30.39,0,38.4A5,5,0,0,1,424.11,72c5.38-6.17,2-18.69-1.75-28.11a29.53,29.53,0,0,1-.31-21.41c-11.22,4.23-24.42,13.84-27.12,29.41-3.48,20,4.47,29.43,4.81,29.82A2.78,2.78,0,0,1,400,82c1.28,1.69,5.88,6.44,9.72,6a5,5,0,1,1,1.21,9.92A13.35,13.35,0,0,1,409.16,98Z"/><path class="cls-1" d="M395.4,129.86a5,5,0,0,1-4.52-2.85c-10.68-22.39,1.7-42.3,2.24-43.13a5,5,0,0,1,8.44,5.35c-.43.69-9.89,16.21-1.65,33.47a5,5,0,0,1-2.37,6.67A5,5,0,0,1,395.4,129.86Z"/><path class="cls-1" d="M399.68,148a5,5,0,0,1-4.83-6.39c.27-1,7-23.19,43.9-17.59,13.79,2.09,23.57.45,28.28-4.74,4.05-4.46,3.31-10.49,2.5-13.69a5,5,0,0,1,9.7-2.45c2.2,8.75.45,17.08-4.79,22.86-7.17,7.9-19.68,10.56-37.19,7.9-27.78-4.2-32.6,9.89-32.79,10.49A5,5,0,0,1,399.68,148Z"/></svg>