<?xml version="1.0" ?><svg viewBox="0 0 512 512" xmlns="http://www.w3.org/2000/svg"><defs><style>.cls-1{fill:#3f456b;}</style></defs><title/><g id="Lines"><path class="cls-1" d="M297,71a5,5,0,0,1-5-5V32.05c0-6.82-7.51-11-14.48-11H197.06c-6.91,0-14.06,4.13-14.06,11V66a5,5,0,0,1-10,0V32.05c0-11.8,10.57-21,24.06-21h80.46c15.32,0,24.48,10.7,24.48,21V66A5,5,0,0,1,297,71Z"/><path class="cls-1" d="M280.5,501H102.14c-14.62,0-19.6-14.65-20.2-22.45L50.06,150.3H41c-8.28,0-15-7.78-15-17.35v-8.42C26,115.26,32.59,108,41,108H436c8.41,0,15,7.26,15,16.54V133c0,9.54-6.73,17.29-15,17.29l-9,.17-14.08,160a5,5,0,0,1-10-.88l14.47-164.52a5,5,0,0,1,4.89-4.56l13.59-.25c2.71,0,5.09-3.47,5.09-7.29v-8.42c0-3.73-2.15-6.54-5-6.54H41c-2.85,0-5,2.81-5,6.54V133c0,4.21,2.64,7.35,5,7.35H54.6a5,5,0,0,1,5,4.51L91.9,477.64a.37.37,0,0,1,0,.11c0,.52,1.19,13.25,10.23,13.25H280.5a5,5,0,0,1,0,10Z"/><path class="cls-1" d="M54.34,118.05a5.12,5.12,0,0,1-1.74-.31,5,5,0,0,1-3-6.45c.53-1.44,5.88-14.4,32.18-27.05C116,67.82,168.69,59.5,238.5,59.5s122.68,8.32,157.17,24.74c26.51,12.61,32.11,25.53,32.66,27a5,5,0,1,1-9.33,3.6s-5-11.23-29.48-22.4C366.66,82,321.9,69.5,238.5,69.5S110.66,81.94,88,92.37c-24.19,11.15-29,22.32-29,22.43A4.94,4.94,0,0,1,54.34,118.05Z"/><path class="cls-1" d="M240.12,355.25a5,5,0,0,1-5-5V195a5,5,0,0,1,10,0V350.25A5,5,0,0,1,240.12,355.25Z"/><path class="cls-1" d="M341,228.88h-.39a5,5,0,0,1-4.6-5.37l2.2-28.67a5,5,0,0,1,10,.77L346,224.27A5,5,0,0,1,341,228.88Z"/><path class="cls-1" d="M155,444.46a5,5,0,0,1-5-4.62L131.23,195.6a5,5,0,0,1,10-.77L160,439.08a5,5,0,0,1-4.61,5.37Z"/><path class="cls-1" d="M417.76,501H280.5c-16.37,0-37.77-11.48-47.49-22.21-20.75-22.9-21.51-62.21-15.32-91.37,6.29-29.54,27.87-56.94,59.22-75.18,14.82-8.62,50.36-21.44,67.9-24.5l.86-.15.86.15c17.59,3.07,59.84,15.78,74.82,24.5,31.35,18.24,52.94,45.64,59.22,75.18,6.2,29.16,5.43,68.47-15.32,91.37C455.54,489.52,434.13,501,417.76,501ZM345.67,297.75C329,300.87,295.51,313,281.93,320.89c-28.91,16.82-48.76,41.82-54.45,68.61s-5.27,62.47,12.94,82.57c8.09,8.94,27,18.93,40.08,18.93H417.76c13.13,0,32-10,40.08-18.93,18.22-20.1,18.63-55.83,13-82.57s-25.55-51.79-54.46-68.61C402.84,313,363.06,301,345.67,297.75Z"/><path class="cls-1" d="M345,297.5a5,5,0,0,1-2.25-.53c-1.59-.81-39.15-20.17-45.41-63.34a5,5,0,0,1,2.89-5.27c1.71-.77,42.38-18.65,91.72-.81a5,5,0,0,1,3.3,4.92,89.67,89.67,0,0,1-6.9,28.31c-8.43,19.7-23.05,32.36-42.27,36.6A5,5,0,0,1,345,297.5Zm-37.08-61.39c6.27,30.89,31.34,47.31,37.8,51.08,30.83-8,37.71-40.48,39.16-51.5A123.75,123.75,0,0,0,307.92,236.11Z"/></g><g id="Outline"><path class="cls-1" d="M405,152h-1a5,5,0,0,1,0-10h1a5,5,0,0,1,0,10Zm-21,0h-1a5,5,0,0,1,0-10h1a5,5,0,0,1,0,10Zm-21,0h-1a5,5,0,0,1,0-10h1a5,5,0,0,1,0,10Zm-21,0h-1a5,5,0,0,1,0-10h1a5,5,0,0,1,0,10Zm-21,0h-1a5,5,0,0,1,0-10h1a5,5,0,0,1,0,10Zm-21,0h-1a5,5,0,0,1,0-10h1a5,5,0,0,1,0,10Zm-21,0h-1a5,5,0,0,1,0-10h1a5,5,0,0,1,0,10Zm-21,0h-1a5,5,0,0,1,0-10h1a5,5,0,0,1,0,10Zm-21,0h-1a5,5,0,0,1,0-10h1a5,5,0,0,1,0,10Zm-21,0h-1a5,5,0,0,1,0-10h1a5,5,0,0,1,0,10Zm-21,0h-1a5,5,0,0,1,0-10h1a5,5,0,0,1,0,10Zm-21,0h-1a5,5,0,0,1,0-10h1a5,5,0,0,1,0,10Zm-21,0h-1a5,5,0,0,1,0-10h1a5,5,0,0,1,0,10Zm-21,0h-1a5,5,0,0,1,0-10h1a5,5,0,0,1,0,10Zm-21,0h-1a5,5,0,0,1,0-10h1a5,5,0,0,1,0,10Zm-21,0H89a5,5,0,0,1,0-10h1a5,5,0,0,1,0,10Zm-21,0H68a5,5,0,0,1,0-10h1a5,5,0,0,1,0,10Z"/><path class="cls-1" d="M411,466a5,5,0,0,1-.84-9.93c1-.18,24.85-5.06,24.85-41.07,0-37.78-26.37-54.59-26.64-54.75a5,5,0,0,1,5.28-8.5c1.28.8,31.36,20,31.36,63.25,0,23.05-8.81,35.63-16.2,42.13a38,38,0,0,1-16.95,8.8A5,5,0,0,1,411,466Z"/></g></svg>