<?xml version="1.0" ?><svg viewBox="0 0 512 512" xmlns="http://www.w3.org/2000/svg"><defs><style>.cls-1{fill:#3f456b;}</style></defs><title/><g id="Lines"><path class="cls-1" d="M237.28,112.2a5,5,0,0,1-5-5V43.5a5,5,0,0,1,5-5h25.58c8.45,0,21,5.4,21,20.28,0,5.77-1.89,10.66-5.46,14.14-5.82,5.65-13.94,5.74-15.2,5.72H242.28V107.2A5,5,0,0,1,237.28,112.2Zm26.13-43.56s5.08,0,8.07-2.93c1.61-1.59,2.4-3.86,2.4-6.93,0-10-9.89-10.28-11-10.28H242.28V68.64h21.13Z"/><path class="cls-1" d="M268.48,133a5,5,0,0,1-3.54-8.54l39-39A5,5,0,1,1,311,92.54l-39,39A5,5,0,0,1,268.48,133Z"/><path class="cls-1" d="M307.48,133a5,5,0,0,1-3.54-1.46L250,77.58a5,5,0,0,1,7.07-7.07L311,124.46a5,5,0,0,1-3.53,8.54Z"/><path class="cls-1" d="M47.5,501A28.54,28.54,0,0,1,19,472.5v-259a28.5,28.5,0,0,1,57,0v259A28.54,28.54,0,0,1,47.5,501Zm0-306A18.52,18.52,0,0,0,29,213.5v259a18.5,18.5,0,0,0,37,0v-259A18.52,18.52,0,0,0,47.5,195Z"/><path class="cls-1" d="M71,293H24a5,5,0,0,1,0-10H71a5,5,0,0,1,0,10Z"/><path class="cls-1" d="M71,357H24a5,5,0,0,1,0-10H71a5,5,0,0,1,0,10Z"/><path class="cls-1" d="M477,501h-5.41a5,5,0,0,1-5-5,6.7,6.7,0,0,0-13.4,0,5,5,0,0,1-5,5H430a5,5,0,0,1-5-5,6.7,6.7,0,0,0-13.4,0,5,5,0,0,1-5,5H388.49a5,5,0,0,1-5-5,6.7,6.7,0,1,0-13.39,0,5,5,0,0,1-5,5H346.94a5,5,0,0,1-5-5,6.7,6.7,0,1,0-13.39,0,5,5,0,0,1-5,5H305.39a5,5,0,0,1-5-5A6.7,6.7,0,1,0,287,496a5,5,0,0,1-5,5h-4a25,25,0,0,1-25-25v-4.72a5,5,0,0,1,5.31-5,6.7,6.7,0,0,0,0-13.39,5,5,0,0,1-5.31-5V429.74a5,5,0,0,1,5.31-5,6.7,6.7,0,0,0,0-13.4,5,5,0,0,1-5.33-5V388.19a5,5,0,0,1,5.31-5,6.7,6.7,0,0,0,0-13.4,5,5,0,0,1-5.31-5V346.64a5,5,0,0,1,1.66-3.72,4.93,4.93,0,0,1,3.66-1.27,6.7,6.7,0,0,0,0-13.4,5,5,0,0,1-5.31-5V305.09a5,5,0,0,1,5.31-5,6.7,6.7,0,0,0,0-13.39,5,5,0,0,1-5.31-5V277a25,25,0,0,1,25-25h4a5,5,0,0,1,5,5,6.7,6.7,0,1,0,13.39,0,5,5,0,0,1,5-5h18.16a5,5,0,0,1,5,5,6.7,6.7,0,1,0,13.39,0,5,5,0,0,1,5-5H365.1a5,5,0,0,1,5,5,6.7,6.7,0,1,0,13.39,0,5,5,0,0,1,5-5h18.15a5,5,0,0,1,5,5,6.7,6.7,0,0,0,13.4,0,5,5,0,0,1,5-5h18.15a5,5,0,0,1,5,5,6.7,6.7,0,0,0,13.4,0,5,5,0,0,1,5-5H477a25,25,0,0,1,25,25v4.72a5,5,0,0,1-4.88,5,6.63,6.63,0,0,0-6.52,6.68,6.72,6.72,0,0,0,6.52,6.69,5,5,0,0,1,4.88,5v18.17a5,5,0,0,1-4.88,5A6.64,6.64,0,0,0,490.6,335a6.72,6.72,0,0,0,6.52,6.69,5,5,0,0,1,4.88,5v18.17a5,5,0,0,1-4.88,5,6.69,6.69,0,0,0,0,13.38,5,5,0,0,1,4.88,5v18.17a5,5,0,0,1-4.88,5,6.72,6.72,0,0,0-6.52,6.69,6.64,6.64,0,0,0,6.52,6.69,5,5,0,0,1,4.88,5v18.17a5,5,0,0,1-4.88,5,6.72,6.72,0,0,0-6.52,6.69,6.63,6.63,0,0,0,6.52,6.68,5,5,0,0,1,4.88,5V476A25,25,0,0,1,477,501Zm-1.17-10H477a15,15,0,0,0,15-15v-.55a16.58,16.58,0,0,1-11.4-15.85A16.8,16.8,0,0,1,492,443.78v-9.87a16.59,16.59,0,0,1-11.4-15.86A16.8,16.8,0,0,1,492,402.23v-9.87a16.73,16.73,0,0,1,0-31.72v-9.87A16.8,16.8,0,0,1,480.6,335,16.59,16.59,0,0,1,492,319.09v-9.87a16.8,16.8,0,0,1-11.4-15.82A16.58,16.58,0,0,1,492,277.55V277a15,15,0,0,0-15-15h-1.17A16.7,16.7,0,0,1,444,262h-9.68a16.71,16.71,0,0,1-31.88,0h-9.67a16.7,16.7,0,0,1-31.87,0h-9.68a16.7,16.7,0,0,1-31.87,0h-9.68a16.7,16.7,0,0,1-31.87,0A15,15,0,0,0,263,277v.39a16.69,16.69,0,0,1,0,32v9.51a16.7,16.7,0,0,1,0,32v9.51a16.7,16.7,0,0,1,0,32V402a16.7,16.7,0,0,1,0,32v9.51a16.69,16.69,0,0,1,0,32V476a15,15,0,0,0,14.76,15,16.7,16.7,0,0,1,31.87,0h9.68a16.7,16.7,0,0,1,31.87,0h9.68a16.7,16.7,0,0,1,31.87,0h9.67a16.71,16.71,0,0,1,31.88,0H444a16.7,16.7,0,0,1,31.87,0ZM258.48,466.3h0Zm0-13.41h0Zm0-28.13h0Zm0-13.43h0Zm0,0h0Zm-.06-28.12h0Zm0-13.42Zm0,0h0Zm0-41.55Zm0,0h0Zm0-28.13h0Zm0-13.41Zm0,0h0Z"/><path class="cls-1" d="M438.65,262a5,5,0,0,1-5-5V57.51C433.65,37.38,418,21,398.79,21H86.08a5,5,0,0,1,0-10H398.79c24.74,0,44.86,20.86,44.86,46.51V257A5,5,0,0,1,438.65,262Z"/><path class="cls-1" d="M257,452H126.25a5,5,0,0,1-5-5V163H46.77a5,5,0,0,1-5-5L41.38,57.53c0-25.67,20.19-46.53,45-46.53s44.86,20.86,44.86,46.51V442H257a5,5,0,0,1,0,10ZM51.75,153h69.5V57.51C121.25,37.38,105.62,21,86.39,21s-35,16.38-35,36.51Z"/><path class="cls-1" d="M377,455a79,79,0,1,1,79-79A79.09,79.09,0,0,1,377,455Zm0-148a69,69,0,1,0,69,69A69.07,69.07,0,0,0,377,307Z"/></g><g id="Outline"><path class="cls-1" d="M392,164h-1a5,5,0,0,1,0-10h1a5,5,0,0,1,0,10Zm-21,0h-1a5,5,0,0,1,0-10h1a5,5,0,0,1,0,10Zm-21,0h-1a5,5,0,0,1,0-10h1a5,5,0,0,1,0,10Zm-21,0h-1a5,5,0,0,1,0-10h1a5,5,0,0,1,0,10Zm-21,0h-1a5,5,0,0,1,0-10h1a5,5,0,0,1,0,10Zm-21,0h-1a5,5,0,0,1,0-10h1a5,5,0,0,1,0,10Zm-21,0h-1a5,5,0,0,1,0-10h1a5,5,0,0,1,0,10Zm-21,0h-1a5,5,0,0,1,0-10h1a5,5,0,0,1,0,10Zm-21,0h-1a5,5,0,0,1,0-10h1a5,5,0,0,1,0,10Zm-21,0h-1a5,5,0,0,1,0-10h1a5,5,0,0,1,0,10Zm-21,0h-1a5,5,0,0,1,0-10h1a5,5,0,0,1,0,10Zm-21,0h-1a5,5,0,0,1,0-10h1a5,5,0,0,1,0,10Z"/><path class="cls-1" d="M400,198.29H161.16a5,5,0,0,1,0-10H400a5,5,0,0,1,0,10Z"/><path class="cls-1" d="M401,232.57H160.58a5,5,0,1,1,0-10H401a5,5,0,0,1,0,10Z"/><path class="cls-1" d="M234,266.86H160a5,5,0,0,1,0-10h74a5,5,0,0,1,0,10Z"/><path class="cls-1" d="M234,301.14H160a5,5,0,0,1,0-10h74a5,5,0,0,1,0,10Z"/><path class="cls-1" d="M234,335.43H160a5,5,0,0,1,0-10h74a5,5,0,1,1,0,10Z"/><path class="cls-1" d="M234,404H160a5,5,0,0,1,0-10h74a5,5,0,0,1,0,10Z"/><path class="cls-1" d="M234,369.71H160a5,5,0,0,1,0-10h74a5,5,0,1,1,0,10Z"/><path class="cls-1" d="M71,314H24a5,5,0,0,1,0-10H71a5,5,0,0,1,0,10Z"/><path class="cls-1" d="M71,335H24a5,5,0,0,1,0-10H71a5,5,0,0,1,0,10Z"/></g></svg>