<?xml version="1.0" ?><svg viewBox="0 0 512 512" xmlns="http://www.w3.org/2000/svg"><defs><style>.cls-1{fill:#3f456b;}</style></defs><title/><g id="Lines"><path class="cls-1" d="M16,345a5,5,0,0,1-5-5V16a5,5,0,0,1,5-5H432.47a5,5,0,0,1,5,5V170a5,5,0,0,1-10,0V21H21V335L80,335h0a5,5,0,0,1,0,10L16,345Z"/><path class="cls-1" d="M80,499a5,5,0,0,1-5-5V170a5,5,0,0,1,5-5H496.47a5,5,0,0,1,5,5V493.68a5,5,0,0,1-5,5L80,499Zm416.52-5.32h0ZM85,175V489l406.52-.31V175Z"/></g><g id="Outline"><path class="cls-1" d="M125,345a5,5,0,1,1,0-10l302.47-.26V210a5,5,0,0,1,10,0V339.68a5,5,0,0,1-5,5L125,345Z"/><path class="cls-1" d="M362.5,458.5A5,5,0,0,1,359,450l89-89A5,5,0,0,1,455,368l-89,89A5,5,0,0,1,362.5,458.5Z"/><path class="cls-1" d="M404,466a5,5,0,0,1-3.54-8.54l55-55a5,5,0,0,1,7.08,7.08l-55,55A5,5,0,0,1,404,466Z"/><path class="cls-1" d="M56.5,141.5A5,5,0,0,1,53,133l89-89A5,5,0,0,1,149,51L60,140A5,5,0,0,1,56.5,141.5Z"/><path class="cls-1" d="M98,149a5,5,0,0,1-3.54-8.54l55-55a5,5,0,1,1,7.08,7.08l-55,55A5,5,0,0,1,98,149Z"/></g></svg>