<?xml version="1.0" ?><svg id="Lines" viewBox="0 0 512 512" xmlns="http://www.w3.org/2000/svg"><defs><style>.cls-1{fill:#3f456b;}</style></defs><title/><path class="cls-1" d="M256,132.5H16.5a5,5,0,0,1-3.42-8.65l119.75-112a5,5,0,0,1,6.84,0l119.75,112A5,5,0,0,1,256,132.5Zm-226.83-10H243.33L136.25,22.35Z"/><path class="cls-1" d="M256.5,164.5H16.5a5,5,0,0,1-5-5v-32a5,5,0,0,1,10,0v27h230v-27a5,5,0,0,1,10,0v32A5,5,0,0,1,256.5,164.5Z"/><path class="cls-1" d="M240.5,328H32.5a5,5,0,0,1-5-5V159.5a5,5,0,0,1,10,0V318h198V159.5a5,5,0,0,1,10,0V323A5,5,0,0,1,240.5,328Z"/><path class="cls-1" d="M64.5,500.5h-32a5,5,0,0,1-5-5V323a5,5,0,0,1,10,0V490.5h22V323.07a5,5,0,0,1,10,0V495.5A5,5,0,0,1,64.5,500.5Z"/><path class="cls-1" d="M240.5,500.5h-32a5,5,0,0,1-5-5V323a5,5,0,0,1,10,0V490.5h22V323.07a5,5,0,1,1,10,0V495.5A5,5,0,0,1,240.5,500.5Z"/><path class="cls-1" d="M136.25,299.75A59.75,59.75,0,1,1,196,240,59.81,59.81,0,0,1,136.25,299.75Zm0-109.5A49.75,49.75,0,1,0,186,240,49.81,49.81,0,0,0,136.25,190.25Z"/><path class="cls-1" d="M96.5,500.5a5,5,0,0,1-5-5v-218a5,5,0,0,1,10,0v218A5,5,0,0,1,96.5,500.5Z"/><path class="cls-1" d="M176.5,500.5a5,5,0,0,1-5-5v-218a5,5,0,0,1,10,0v218A5,5,0,0,1,176.5,500.5Z"/><path class="cls-1" d="M176.5,347.67h-80a5,5,0,0,1,0-10h80a5,5,0,1,1,0,10Z"/><path class="cls-1" d="M176.5,379.75h-80a5,5,0,0,1,0-10h80a5,5,0,0,1,0,10Z"/><path class="cls-1" d="M176.5,411.83h-80a5,5,0,0,1,0-10h80a5,5,0,0,1,0,10Z"/><path class="cls-1" d="M176.5,443.92h-80a5,5,0,0,1,0-10h80a5,5,0,1,1,0,10Z"/><path class="cls-1" d="M176.5,476h-80a5,5,0,0,1,0-10h80a5,5,0,0,1,0,10Z"/><path class="cls-1" d="M497,500.83H433.5c-19.25,0-33.7-15.87-35.42-17.84L254.13,339c-1.88-1.86-7.91-6.71-13.13-6.71a5,5,0,1,1,0-10c10.27,0,19.22,8.65,20.2,9.63L405.29,476.05l.28.3c.11.14,12.53,14.48,27.93,14.48H492l0-10.05c0-4.21-1.12-7.43-3.34-9.57-3.65-3.52-9.44-3.49-9.52-3.46h-34c-19.25,0-33.7-15.87-35.42-17.84L263.67,303.83c-.06-.06-10.05-9.66-22.17-9.66a5,5,0,0,1,0-10c16.28,0,28.7,12.05,29.22,12.56L417,443a4.12,4.12,0,0,1,.28.31c.12.14,12.54,14.48,27.94,14.48h33.75c1.45,0,10.23,0,16.72,6.26,4.25,4.09,6.4,9.74,6.4,16.78l0,15.06A5,5,0,0,1,497,500.83Z"/><path class="cls-1" d="M486,251.33H282.5a15,15,0,0,1-15-15v-12a15,15,0,0,1,15-15H486a15,15,0,0,1,15,15v12A15,15,0,0,1,486,251.33Zm-203.54-32a5,5,0,0,0-5,5v12a5,5,0,0,0,5,5H486a5,5,0,0,0,5-5v-12a5,5,0,0,0-5-5Z"/><path class="cls-1" d="M288.33,500.5a5,5,0,0,1-5-5v-128a5,5,0,0,1,10,0v128A5,5,0,0,1,288.33,500.5Z"/><path class="cls-1" d="M288.33,326.42a5,5,0,0,1-5-5V246.33a5,5,0,1,1,10,0v75.09A5,5,0,0,1,288.33,326.42Z"/><path class="cls-1" d="M480.5,466.7a5,5,0,0,1-5-5V246.33a5,5,0,0,1,10,0V461.7A5,5,0,0,1,480.5,466.7Z"/><path class="cls-1" d="M422.5,422.75H384.67a5,5,0,0,1,0-10H422.5a5,5,0,0,0,5-5V402.5a5,5,0,0,0-5-5H359.42a5,5,0,0,1,0-10H422.5a15,15,0,0,1,15,15v5.25A15,15,0,0,1,422.5,422.75Z"/><path class="cls-1" d="M416,397.5a5,5,0,0,1-5-5V246.33a5,5,0,0,1,10,0V392.5A5,5,0,0,1,416,397.5Z"/><path class="cls-1" d="M352.5,390.28a5,5,0,0,1-5-5V246.33a5,5,0,0,1,10,0V385.28A5,5,0,0,1,352.5,390.28Z"/><path class="cls-1" d="M272.5,484.5H241a5,5,0,0,1,0-10h31.5a35.25,35.25,0,0,0,0-70.5h-32a5,5,0,0,1,0-10h32a45.25,45.25,0,0,1,0,90.5Z"/><path class="cls-1" d="M208.38,484.5H192.5a5,5,0,0,1-5-5V399a5,5,0,0,1,5-5h15.25a5,5,0,0,1,0,10H197.5v70.5h10.88a5,5,0,0,1,0,10Z"/><path class="cls-1" d="M272.5,500.83a5,5,0,0,1-5-5V479.5a5,5,0,0,1,10,0v16.33A5,5,0,0,1,272.5,500.83Z"/><path class="cls-1" d="M261.83,483.75a5,5,0,0,1-5-5V399a5,5,0,0,1,10,0v79.75A5,5,0,0,1,261.83,483.75Z"/><path class="cls-1" d="M464.78,197a5,5,0,0,1-1.46-.23H334.17a6.84,6.84,0,0,1-1.82.21,40.72,40.72,0,0,1-10.2-79.78c-.07-.82-.1-1.64-.1-2.46a31.86,31.86,0,0,1,51-25.45,55.23,55.23,0,0,1,103.81,26.26,56.71,56.71,0,0,1-.72,8.93A37.18,37.18,0,0,1,464.92,197Zm.08-10h0ZM353.91,92.89a21.88,21.88,0,0,0-21.86,21.85,21.53,21.53,0,0,0,.61,5.12,5,5,0,0,1-.69,3.93,5,5,0,0,1-3.35,2.18,30.71,30.71,0,0,0,3.49,61,6.57,6.57,0,0,1,1.56-.19h130.8a5.13,5.13,0,0,1,1.41.19,27,27,0,0,0,25.9-27,27.27,27.27,0,0,0-22.4-26.87,5,5,0,0,1-3.95-6.17A45.23,45.23,0,0,0,379.36,99.5a5,5,0,0,1-8.54,1.4A21.81,21.81,0,0,0,353.91,92.89Z"/><path class="cls-1" d="M302.07,143.61a4.78,4.78,0,0,1-1.92-.39,69,69,0,1,1,95.39-67.61,5,5,0,1,1-10,.55A59,59,0,1,0,304,134a5,5,0,0,1-1.92,9.62Z"/><path class="cls-1" d="M444,137.5a5,5,0,0,1-3.54-8.54c4.74-4.73,11.79-7,21-6.83a55,55,0,0,1,11.79,1.54,5,5,0,0,1-2.53,9.67h0c-4.53-1.18-17.53-3-23.2,2.7A5,5,0,0,1,444,137.5Z"/><path class="cls-1" d="M366,128.5a5,5,0,0,1-2.35-.59c-13.14-7-36.71-1.62-36.95-1.56a5,5,0,0,1-2.28-9.74c1.11-.26,27.46-6.31,43.93,2.48A5,5,0,0,1,366,128.5Z"/></svg>