<?xml version="1.0" ?><svg viewBox="0 0 512 512" xmlns="http://www.w3.org/2000/svg"><defs><style>.cls-1{fill:#3f456b;}</style></defs><title/><g id="Lines"><path class="cls-1" d="M132.23,499.49a123,123,0,0,1-21.66-2c-37-6.7-81.9-31.55-93.09-70.28-10-34.75,6.29-71,19.4-100.17,8.85-19.65,24-40.42,44.95-61.74,1.45-1.62,12.1-12.64,28.26-7.48l66.51,21.28,35.54,11.36C228,295.55,246.4,314,243.69,373.11c-1.26,27.64-7.05,50.46-17.69,69.77-1,1.95-16.68,30.93-38.92,27.25-1,2.05-1.75,3.43-2.08,4C175.84,492.85,154.27,499.49,132.23,499.49Zm-30.53-233A17.53,17.53,0,0,0,89.27,272l-.23.24c-20.19,20.5-34.67,40.33-43,58.92-13.09,29.1-27.93,62.08-18.91,93.29,5.73,19.85,21.3,33.81,33.35,42a139.59,139.59,0,0,0,51.91,21.19c24.47,4.43,54.07,2,63.75-18.1a3.37,3.37,0,0,1,.25-.46c.12-.2,12.37-20.65,3.83-42a5,5,0,0,1,2.54-6.39,15.54,15.54,0,0,0,6.81-7.15,5,5,0,0,1,9.25,3.79,24.16,24.16,0,0,1-7.91,10c3.92,12.6,2.37,24.41-.14,33h.16c14.46,0,26.14-22,26.27-22.21l.06-.1c9.89-18,15.29-39.35,16.48-65.45,1.1-23.84-.65-65-24.62-72.65l-35.53-11.37L107,267.36A17.4,17.4,0,0,0,101.7,266.5Z"/><path class="cls-1" d="M104,266.35c-3.25-1.89-2.43-5.18-2-6.76.2-.81.5-2,.9-3.53.72-2.79,1.9-7.29,3.46-12.89a5,5,0,1,1,9.64,2.68c-3,10.6-4.58,17.28-4.59,17.35L106.5,262h0Z"/><path class="cls-1" d="M238.58,215.07a4.45,4.45,0,0,1-1-.1,5,5,0,0,1-4-5.85c.92-4.79,1.72-9.43,2.37-13.83L145,166.16c-2.09,4.06-3.87,7.75-5.9,12.23a5,5,0,1,1-9.11-4.13c2.72-6,5-10.62,8.12-16.49a5,5,0,0,1,5.93-2.42l99.11,31.7a5,5,0,0,1,3.43,5.41c-.76,5.8-1.78,12-3,18.55A5,5,0,0,1,238.58,215.07Z"/><path class="cls-1" d="M214.75,301.58a5.14,5.14,0,0,1-1.79-.33,5,5,0,0,1-2.88-6.46c0-.06,2.56-6.7,6.42-17.52a5,5,0,0,1,9.42,3.36c-3.9,10.94-6.47,17.67-6.5,17.74A5,5,0,0,1,214.75,301.58Z"/><path class="cls-1" d="M222.34,283.79a15.42,15.42,0,0,1-3.88-.47l-.22-.07L114.3,250a28.59,28.59,0,0,1-10.5-6.69c-4.54-4.45-9.86-12.5-9.44-25.59,0-2.13.21-19.23,13.81-35.2,12.35-14.52,29.86-9.83,30.6-9.62l.17,0,103.94,33.24c9.83,3.14,10.58,13.9,9.6,19.15-3.35,16.84-9.21,36.41-14.26,47.66C234.39,281.54,227.45,283.79,222.34,283.79Zm-1.22-10.12c1.28.28,5.52.71,8-4.76,4-9,10-27.49,13.56-45.46,0-.17,1.07-6.49-2.83-7.73h0L136,182.51c-1-.25-12.29-2.84-20.23,6.49-11.75,13.8-11.42,28.45-11.42,28.6a1.82,1.82,0,0,1,0,.33c-.62,17.73,12.47,22.37,13,22.56Z"/><path class="cls-1" d="M235.2,269.62a5.09,5.09,0,0,1-.77-.06,376.89,376.89,0,0,1-82.8-24.89,5,5,0,0,1-2.81-3.17c-7.1-23.89,11.43-41,12.23-41.75a5,5,0,0,1,5.24-.92c16,6.51,80.07,25.48,80.71,25.67a5,5,0,1,1-2.83,9.59c-2.51-.74-58.36-17.27-78.45-24.76-3.65,4.25-10.61,14.35-7.88,27.12A374,374,0,0,0,236,259.68a5,5,0,0,1-.76,9.94Z"/><path class="cls-1" d="M387.91,459c-28.13,0-60.29-9.29-68-35.48-.23-.6-.77-2.09-1.38-4.28-22.54-.07-33.14-31.24-33.83-33.35-7.27-20.81-9.17-44.28-5.8-71.75,7.18-58.71,28.38-73.85,44.9-76.21l33.36-4.77,72.69-10.39c16.8-2.4,25.47,10.25,26.63,12.08,17.13,24.52,28.57,47.53,34,68.37,8.07,30.93,18.12,69.42,2.42,102C475.39,441.54,427,458.55,389.37,459Zm-67.26-99.82a5,5,0,0,1,4.87,3.9c1.13,5,5.51,8.18,5.55,8.21a5,5,0,0,1,1.41,6.7c-12.06,19.74-3.32,41.81-3.23,42a3.17,3.17,0,0,1,.17.49c6.2,21.44,34.93,28.77,59.84,28.49A139.75,139.75,0,0,0,444,436.76c13.25-6.1,30.93-17.27,39.89-35.88,14.1-29.28,5-64.27-3.08-95.14-5.15-19.73-16.12-41.69-32.62-65.27l-.2-.31a17.16,17.16,0,0,0-16.73-7.5l-72.7,10.39-33.35,4.77c-24.92,3.56-33.5,43.84-36.4,67.53-3.17,25.93-1.43,47.93,5.34,67.28,0,0,0,.07,0,.11.08.26,8,24,22.35,26.31-1-8.93-.59-20.84,5.38-32.61a24.09,24.09,0,0,1-6.14-11.17,5,5,0,0,1,3.78-6A5.24,5.24,0,0,1,320.65,359.17Z"/><path class="cls-1" d="M432.66,232.49a5,5,0,0,1-5-4.64c0-.29-.51-7.08-1.63-17.88a5,5,0,0,1,9.95-1c1.14,11,1.63,17.92,1.66,18.21a5,5,0,0,1-4.64,5.34Z"/><path class="cls-1" d="M311.1,159.23a5,5,0,0,1-5-4.89c-.15-6.64-.12-13,.1-18.79a5,5,0,0,1,4.29-4.77l103-14.72a5,5,0,0,1,5.45,3.37c2.1,6.3,3.57,11.24,5.25,17.62a5,5,0,0,1-9.67,2.55c-1.26-4.76-2.39-8.69-3.78-13l-94.67,13.53c-.09,4.45-.08,9.15,0,14a5,5,0,0,1-4.88,5.12Z"/><path class="cls-1" d="M320.16,248.5a5,5,0,0,1-4.9-4c0-.07-1.42-7.14-3.45-18.57a5,5,0,0,1,9.85-1.75c2,11.32,3.39,18.28,3.41,18.35a5,5,0,0,1-3.92,5.89A5.52,5.52,0,0,1,320.16,248.5Z"/><path class="cls-1" d="M317.51,229.86c-5.1,0-13.75-2.73-16.55-13.52-3.1-11.94-5.62-32.21-6.11-49.3-.09-5.41,2.45-15.89,12.66-17.35h0l108-15.44.18,0c.76-.08,18.8-1.79,28.56,14.59,10.75,18,8.12,34.92,7.74,37-1.77,13-8.35,20-13.58,23.66A28.73,28.73,0,0,1,427,214.34L319,229.78l-.23,0C318.34,229.84,317.94,229.86,317.51,229.86Zm-8.59-70.27c-4.07.58-4.08,7.16-4.08,7.22.54,18.25,3.32,37.49,5.8,47,1.58,6.09,6.18,6.09,7,6l107.89-15.42c.54-.09,14.21-2.48,16.56-20.07,0-.11,0-.22.05-.33a46.85,46.85,0,0,0-6.49-30.1c-6.28-10.55-17.91-9.85-18.86-9.77Z"/><path class="cls-1" d="M306.39,213.59h-1.12a5,5,0,0,1,.07-10h.06a373.63,373.63,0,0,0,80.91-9.87c4.79-12.08-.39-23.25-3.25-28.05-21.08,4-78.88,11-81.48,11.32a5,5,0,1,1-1.19-9.92c.67-.08,67-8.1,83.86-11.86a5,5,0,0,1,5,1.79c.66.84,16.07,20.83,5.09,43.21a5,5,0,0,1-3.3,2.65A381.45,381.45,0,0,1,306.39,213.59Z"/><path class="cls-1" d="M192.33,180.33a5,5,0,0,1-2.53-.69A5,5,0,0,1,188,172.8c12.47-21.18,21.93-46.06,26-68.28.24-1.32.46-2.62.66-3.92a65.05,65.05,0,0,1-65.28-21.49c-14.16-17.1-13.23-40.88,2.19-56.54,8.68-8.81,19.72-13,31.08-11.89,12,1.21,23,8.34,30.34,19.56,9.68,14.89,14.14,33.84,13.2,55.58a193.38,193.38,0,0,0,19.94-11.67c7.42-4.73,15.09-9.63,23.41-13.38,17.63-7.92,36.38-10.54,52.82-7.36,15.46,3,28,12,36.28,26.22,7,11.9,10.95,27.36,11.55,44.7a5,5,0,0,1-10,.35c-.57-16.28-5.56-54.85-39.74-61.45-14.43-2.79-31.06-.42-46.82,6.67C266,73.34,259,77.83,251.51,82.58c-8.31,5.3-16.83,10.75-26.29,14.59q-.56,4.5-1.39,9.14c-4.25,23.33-14.15,49.41-27.19,71.56A5,5,0,0,1,192.33,180.33ZM179,20.5c-7.38,0-14.52,3.17-20.35,9.09-11.75,11.93-12.44,30.07-1.62,43.14A55,55,0,0,0,214.3,90.36l1.61-.47c1.71-21.55-2.13-40.08-11.31-54.2-5.64-8.67-14-14.15-23-15.06A25.29,25.29,0,0,0,179,20.5Z"/></g><g id="Outline"><path class="cls-1" d="M219.69,246.32a5,5,0,0,1-3.59-6.1h0a5,5,0,0,1,6.1-3.58h0a5,5,0,0,1,3.58,6.1h0a5,5,0,0,1-4.84,3.74h0A4.87,4.87,0,0,1,219.69,246.32Zm-19.5-5.78a5,5,0,0,1-3.19-6.31h0a5,5,0,0,1,6.31-3.19h0a5,5,0,0,1,3.19,6.31h0a5,5,0,0,1-4.75,3.44h0A5,5,0,0,1,200.19,240.54Zm-19.14-6.84a5,5,0,0,1-2.81-6.49h0a5,5,0,0,1,6.5-2.81h0a5,5,0,0,1,2.8,6.49h0a5,5,0,0,1-4.65,3.15h0A5,5,0,0,1,181.05,233.7Z"/><path class="cls-1" d="M321.67,188.88a5,5,0,0,1,4.65-5.33h0a5,5,0,0,1,5.33,4.64h0a5,5,0,0,1-4.65,5.33h0l-.34,0h0A5,5,0,0,1,321.67,188.88Zm19.94-1.73a5,5,0,0,1,4.3-5.62h0a5,5,0,0,1,5.62,4.3h0a5,5,0,0,1-4.3,5.61h0a5,5,0,0,1-.66.05h0A5,5,0,0,1,341.61,187.15Zm19.83-2.85a5,5,0,0,1,3.95-5.87h0a5,5,0,0,1,5.86,3.95h0a5,5,0,0,1-3.95,5.87h0a5.28,5.28,0,0,1-1,.09h0A5,5,0,0,1,361.44,184.3Z"/></g></svg>