<?xml version="1.0" ?><svg id="Lines" viewBox="0 0 512 512" xmlns="http://www.w3.org/2000/svg"><defs><style>.cls-1{fill:#3f456b;}</style></defs><title/><path class="cls-1" d="M197.31,124.37A56.66,56.66,0,1,1,254,67.71,56.73,56.73,0,0,1,197.31,124.37Zm0-103.32A46.66,46.66,0,1,0,244,67.71,46.72,46.72,0,0,0,197.31,21.05Z"/><path class="cls-1" d="M68.16,124.37a56.66,56.66,0,1,1,56.66-56.66A56.73,56.73,0,0,1,68.16,124.37Zm0-103.32a46.66,46.66,0,1,0,46.66,46.66A46.71,46.71,0,0,0,68.16,21.05Z"/><path class="cls-1" d="M326.47,124.37a56.66,56.66,0,1,1,56.66-56.66A56.73,56.73,0,0,1,326.47,124.37Zm0-103.32a46.66,46.66,0,1,0,46.66,46.66A46.71,46.71,0,0,0,326.47,21.05Z"/><path class="cls-1" d="M197.31,249.69A56.66,56.66,0,1,1,254,193,56.73,56.73,0,0,1,197.31,249.69Zm0-103.32A46.66,46.66,0,1,0,244,193,46.72,46.72,0,0,0,197.31,146.37Z"/><path class="cls-1" d="M68.16,249.69A56.66,56.66,0,1,1,124.82,193,56.73,56.73,0,0,1,68.16,249.69Zm0-103.32A46.66,46.66,0,1,0,114.82,193,46.71,46.71,0,0,0,68.16,146.37Z"/><path class="cls-1" d="M326.47,249.69A56.66,56.66,0,1,1,383.13,193,56.73,56.73,0,0,1,326.47,249.69Zm0-103.32A46.66,46.66,0,1,0,373.13,193,46.71,46.71,0,0,0,326.47,146.37Z"/><path class="cls-1" d="M197.31,375A56.66,56.66,0,1,1,254,318.35,56.73,56.73,0,0,1,197.31,375Zm0-103.32A46.66,46.66,0,1,0,244,318.35,46.72,46.72,0,0,0,197.31,271.69Z"/><path class="cls-1" d="M68.16,375a56.66,56.66,0,1,1,56.66-56.66A56.73,56.73,0,0,1,68.16,375Zm0-103.32a46.66,46.66,0,1,0,46.66,46.66A46.71,46.71,0,0,0,68.16,271.69Z"/><path class="cls-1" d="M302.38,369.07a5,5,0,0,1-2.32-.58,56.66,56.66,0,1,1,53.42-.32,5,5,0,1,1-4.77-8.79,46.65,46.65,0,1,0-44,.27,5,5,0,0,1-2.34,9.42Z"/><path class="cls-1" d="M197.31,500.33a56.66,56.66,0,1,1,55.08-70,5,5,0,1,1-9.72,2.34A46.67,46.67,0,1,0,232.76,474a5,5,0,0,1,7.59,6.51A56.6,56.6,0,0,1,197.31,500.33Z"/><path class="cls-1" d="M304.41,485.65a5,5,0,0,1-5-5L298,311.31c0-14.38,13.1-26.05,29.2-26.05s29.16,11.71,29.16,26.1V383a5,5,0,0,1-10,0V311.36c0-8.88-8.59-16.1-19.16-16.1s-19.2,7.18-19.2,16l1.43,169.34a5,5,0,0,1-5,5Z"/><path class="cls-1" d="M399.72,442.1a5,5,0,0,1-5-5V409.93a5,5,0,0,1,10,0V437.1A5,5,0,0,1,399.72,442.1Z"/><path class="cls-1" d="M351.34,442.1a5,5,0,0,1-5-5V383c0-14.34,13.1-26,29.19-26s29.19,11.72,29.19,26.12v1.69a5,5,0,0,1-10,0v-1.69c0-8.89-8.61-16.12-19.19-16.12s-19.19,7.18-19.19,16V437.1A5,5,0,0,1,351.34,442.1Z"/><path class="cls-1" d="M399.72,414.93a5,5,0,0,1-5-5V384.84c0-14.35,13.09-26,29.18-26s29.2,11.72,29.2,26.12v8.27a5,5,0,0,1-10,0v-8.27c0-8.89-8.61-16.12-19.2-16.12s-19.18,7.19-19.18,16v25.09A5,5,0,0,1,399.72,414.93Z"/><path class="cls-1" d="M495.66,500.58h0L249.25,499.5a5,5,0,0,1-4.14-2.23l-19-28.54a4.09,4.09,0,0,1-.38-.68c-6.88-15-2.59-29.55,10.94-37,15.26-8.38,33.25-2.94,43.85,13.22l27.21,33.21a5,5,0,0,1-7.74,6.34L272.64,450.4q-.18-.22-.33-.45c-6.43-9.94-18.44-16.92-30.79-10.13-8.75,4.81-11.29,13.66-6.83,23.72l17.27,26,238.93,1.05c.82-19.87.71-49,.62-72.71,0-6.81-.05-13.09-.05-18.46v-6.08c0-8.89-8.6-16.13-19.17-16.13s-19.19,7.19-19.19,16V437.1a5,5,0,0,1-10,0V393.21c0-14.35,13.09-26,29.19-26s29.17,11.72,29.17,26.13v6.09c0,5.35,0,11.62.05,18.41.1,25.84.22,58-.86,78A5,5,0,0,1,495.66,500.58Z"/></svg>