<?xml version="1.0" ?><svg viewBox="0 0 512 512" xmlns="http://www.w3.org/2000/svg"><defs><style>.cls-1{fill:#3f456b;}</style></defs><title/><g id="Lines"><path class="cls-1" d="M480,307.28h-96.1A20.83,20.83,0,0,1,372.6,304a5,5,0,0,1,5.42-8.41,10.77,10.77,0,0,0,5.87,1.73H480a10.91,10.91,0,0,0,10.9-10.9v-3.73A10.91,10.91,0,0,0,480,271.74H390.31a5,5,0,1,1,0-10H480a20.92,20.92,0,0,1,20.9,20.91v3.73A20.92,20.92,0,0,1,480,307.28Z"/><path class="cls-1" d="M416.37,307.28a5,5,0,0,1-5-5V266.74a5,5,0,0,1,10,0v35.54A5,5,0,0,1,416.37,307.28Z"/><path class="cls-1" d="M447.51,307.28a5,5,0,0,1-5-5V266.74a5,5,0,0,1,10,0v35.54A5,5,0,0,1,447.51,307.28Z"/><path class="cls-1" d="M413.09,341a4.93,4.93,0,0,1-3.21-1.17l-3.83-3.21L370.6,306.6a5,5,0,1,1,6.46-7.62l35.44,30,3.81,3.2a5,5,0,0,1-3.22,8.83Z"/><path class="cls-1" d="M412.83,442.2a5,5,0,0,1-3.28-8.77c26.42-23,41.12-46.61,46-55.22l-26.24-22a5,5,0,0,1,6.43-7.66l29.35,24.64a5,5,0,0,1,1.28,6c-.62,1.28-15.65,31.68-50.25,61.79A5,5,0,0,1,412.83,442.2Z"/><path class="cls-1" d="M256.63,498.78a259.72,259.72,0,0,1-98.85-19,5,5,0,0,1,3.78-9.26,249.78,249.78,0,0,0,95.07,18.25c29.68,0,57.84-4.82,83.7-14.32a5,5,0,0,1,3.45,9.39C316.81,493.75,287.49,498.78,256.63,498.78Z"/><path class="cls-1" d="M102.41,447.31a5,5,0,0,1-3-1c-3.62-2.76-7.22-5.65-10.71-8.6a5,5,0,1,1,6.46-7.64c3.36,2.84,6.83,5.63,10.31,8.28a5,5,0,0,1-3,9Z"/><path class="cls-1" d="M105.63,328.45a5,5,0,0,1-3.2-8.85l29.84-24.83a5,5,0,1,1,6.4,7.69l-29.84,24.83A5,5,0,0,1,105.63,328.45Z"/><path class="cls-1" d="M256.91,368.93a145,145,0,0,1-145-145.22V138.32a5,5,0,0,1,10,0v85.39a135.08,135.08,0,1,0,270.16,0l-.09-85.38a5,5,0,0,1,5-5h0a5,5,0,0,1,5,5l.09,85.39A145.1,145.1,0,0,1,256.91,368.93Z"/><path class="cls-1" d="M116.87,187.74a5,5,0,0,1-5-5v-2.28a5,5,0,0,1,10,0v2.28A5,5,0,0,1,116.87,187.74Z"/><path class="cls-1" d="M117.91,246.29h-.32c-18.49-1.15-33-16.29-33-34.45a34.63,34.63,0,0,1,29.27-34,5,5,0,0,1,1.65,9.86,24.68,24.68,0,0,0-20.92,24.16c0,12.9,10.37,23.64,23.6,24.47a5,5,0,0,1-.31,10Z"/><path class="cls-1" d="M396.62,246.29a5,5,0,0,1-.31-10c13.23-.83,23.59-11.57,23.59-24.47A24.67,24.67,0,0,0,399,187.67a5,5,0,1,1,1.65-9.86,34.62,34.62,0,0,1,29.26,34c0,18.16-14.48,33.3-33,34.45Z"/><path class="cls-1" d="M210.87,210h-20a5,5,0,0,1,0-10h20a5,5,0,0,1,0,10Z"/><path class="cls-1" d="M317.87,210h-20a5,5,0,0,1,0-10h20a5,5,0,0,1,0,10Z"/><path class="cls-1" d="M257,113.5a5,5,0,0,1-4.39-2.6c-1.3-1.14-6.83-2.76-11.61-3.39l-.31-.05c-11.7-2.28-19.35-7.11-22.76-14.34-2.26-4.8-3.6-13,2.87-24.94,5.89-10.86-.87-16-1.16-16.18a5,5,0,0,1,.23-8.24l13.44-8.69a4.63,4.63,0,0,1,6.4.81c.41.35,2.55,1.95,7.24,1.95,3.92,0,5.74-.84,6.3-1.17a4.14,4.14,0,0,1,7.5,0c.56.33,2.38,1.17,6.3,1.17,5,0,7.17-1.86,7.18-1.88a5,5,0,0,1,6.46-.88l13.44,8.69a5,5,0,0,1,.23,8.24c-1.12.87-6.71,6-1.16,16.18,6.47,11.92,5.13,20.14,2.87,24.94-3.41,7.23-11.06,12.06-22.76,14.34l-.31.05c-4.87.65-10.3,2.24-11.61,3.39A5,5,0,0,1,257,113.5ZM242.46,97.62c4.12.55,10.22,1.75,14.54,4.26,4.32-2.51,10.42-3.71,14.54-4.26,5.75-1.14,13-3.59,15.48-8.76,2.31-4.91-.14-11.37-2.61-15.91-5.59-10.3-3.79-18.61-.53-23.91l-5.8-3.75a23.07,23.07,0,0,1-11,2.54A24,24,0,0,1,257,46,24,24,0,0,1,247,47.83a23.07,23.07,0,0,1-11-2.54L230.12,49c3.26,5.3,5.06,13.61-.53,23.91-2.47,4.54-4.92,11-2.61,15.91C229.42,94,236.71,96.48,242.46,97.62Zm18.09-61.09Zm-7.1,0Z"/><path class="cls-1" d="M380.55,503.12h0a5,5,0,0,1-4.39-2.61c-1.3-1.13-6.83-2.75-11.61-3.38l-.31-.05c-11.7-2.29-19.35-7.11-22.76-14.34-2.26-4.8-3.6-13,2.87-24.95,5.55-10.22,0-15.3-1.22-16.22a4.94,4.94,0,0,1-2-4.15,5,5,0,0,1,2.31-4l13.44-8.69a4.64,4.64,0,0,1,6.4.8c.41.35,2.55,1.95,7.24,1.95,3.92,0,5.74-.84,6.3-1.17a4.16,4.16,0,0,1,3.75-2.38h0a4.17,4.17,0,0,1,3.75,2.38c.56.33,2.38,1.17,6.3,1.17,4.69,0,6.83-1.6,7.24-1.95a4.64,4.64,0,0,1,6.4-.8l13.44,8.69a5,5,0,0,1,.23,8.24c-1.12.87-6.71,5.95-1.16,16.17,6.47,11.92,5.13,20.15,2.87,24.95-3.41,7.23-11.06,12.05-22.75,14.34l-.32.05c-4.87.65-10.3,2.24-11.61,3.38A5,5,0,0,1,380.55,503.12ZM366,487.24c4.11.55,10.22,1.74,14.54,4.26,4.32-2.52,10.43-3.71,14.54-4.26,5.75-1.15,13-3.59,15.48-8.76,2.31-4.92-.14-11.37-2.61-15.92-5.59-10.29-3.79-18.6-.54-23.9l-5.79-3.75a23.09,23.09,0,0,1-11,2.53,24.22,24.22,0,0,1-10.05-1.85,24.22,24.22,0,0,1-10.05,1.85,23.09,23.09,0,0,1-11-2.53l-5.79,3.75c3.25,5.3,5.05,13.61-.54,23.9-2.47,4.55-4.92,11-2.61,15.92C353,483.65,360.26,486.09,366,487.24Zm11-61.1Zm7.1,0Z"/><path class="cls-1" d="M115.94,129.15a5.44,5.44,0,0,1-1.19-.14c-9.12-2.24-25.51-7.91-32.82-20.72-4.4-7.71-5.51-15.71-3.3-23.76,4.58-16.67,22.71-29.92,37.12-38.11C155.46,23.87,204.27,12,256.9,12a5,5,0,0,1,0,10c-50.91,0-98,11.47-136.21,33.17-18,10.25-29.56,21.63-32.42,32.06-1.5,5.47-.73,10.76,2.34,16.15,4,7,13.66,12.81,26.52,16a5,5,0,0,1-1.19,9.86Z"/><path class="cls-1" d="M256.9,156.26a5,5,0,1,1,0-10c103.64,0,129.76-8,135.5-10.63V118.56C388,115.47,373,107,339.83,104.49c-19.45-1.12-36-2-53.52-2.49a5,5,0,1,1,.29-10c17.6.51,34.27,1.37,53.89,2.51,45.09,3.39,59.82,17.47,60.43,18.06a5,5,0,0,1,1.48,3.56v22.18a5,5,0,0,1-.76,2.66C398.76,145.57,378.89,156.26,256.9,156.26Z"/><path class="cls-1" d="M256.9,156.26c-122,0-141.87-10.69-144.75-15.29a5,5,0,0,1-.76-2.65V116.14a5,5,0,0,1,1.41-3.48c.56-.58,14.3-14.31,56.46-18.13,19.28-1.75,37-2.67,57.45-3a5,5,0,0,1,.16,10c-20.19.32-37.68,1.22-56.71,2.95-30.83,2.79-44.63,11-48.77,14v17.14c5.75,2.6,31.87,10.63,135.51,10.63a5,5,0,0,1,0,10Z"/><path class="cls-1" d="M397.85,129.15a5,5,0,0,1-1.19-9.86c12.87-3.15,22.53-9,26.52-16,3.08-5.39,3.84-10.68,2.34-16.15-2.86-10.43-14.37-21.81-32.42-32.06C354.9,33.42,307.8,22,256.9,22a5,5,0,1,1,0-10C309.53,12,358.33,23.87,398,46.42c14.41,8.19,32.55,21.44,37.12,38.11,2.21,8,1.1,16-3.29,23.76C424.55,121.1,408.16,126.77,399,129A5.44,5.44,0,0,1,397.85,129.15Z"/><path class="cls-1" d="M260.05,189.94c-50.84,0-116.26-5.59-139.29-32.21-8.28-9.58-7.36-17.79-7.23-18.69l9.89,1.44,0-.13c0,.21-.38,5.09,5.44,11.46,22.38,24.47,91.79,28.13,131.17,28.13,38.89,0,107.17-3.68,127.56-28.3,5.59-6.75,4.66-12,4.62-12.27l0,.11,9.73-2.32c.23,1,2,9.85-6.13,20.19C374.57,184.28,310.26,189.94,260.05,189.94Z"/><path class="cls-1" d="M137.31,212.5H116.87a5,5,0,0,1,0-10h15.54c.88-21.81,7.27-35.72,7.56-36.34a5,5,0,0,1,9.07,4.22h0c-.07.15-6.73,14.82-6.73,37.12A5,5,0,0,1,137.31,212.5Z"/><path class="cls-1" d="M396.13,212.5H375.69a5,5,0,0,1-5-5c0-22.17-6.27-35.07-6.33-35.2a5,5,0,0,1,8.93-4.49c.28.56,6.45,13,7.3,34.69h15.54a5,5,0,0,1,0,10Z"/><path class="cls-1" d="M252.5,420.21a4.87,4.87,0,0,1-1.75-.32c-65.12-24.41-75.5-73.52-75.91-75.6a5,5,0,0,1,9.81-1.93c0,.1,2.43,11.57,12.18,25.62,9,13,26.23,30.85,57.42,42.55a5,5,0,0,1-1.75,9.68Z"/><path class="cls-1" d="M222.37,424c-37.5,0-63.93-16.47-65.31-17.35a5,5,0,0,1-2.19-5.36l4.89-20.76H132.52a5,5,0,0,1,0-10h33.56a5,5,0,0,1,4.87,6.15l-5.48,23.25c10.16,5.38,44.58,20.95,85.79,10.45a5,5,0,0,1,2.48,9.69A127,127,0,0,1,222.37,424Z"/><path class="cls-1" d="M113.13,336.5a4.92,4.92,0,0,1-1.9-.38,5,5,0,0,1-2.73-6.52,103.09,103.09,0,0,1,23.63-34.71,5,5,0,0,1,6.69,7.44,94.39,94.39,0,0,0-21.07,31.06A5,5,0,0,1,113.13,336.5Z"/><path class="cls-1" d="M254,420.21a5,5,0,0,1-1.75-9.68c17.21-6.45,41.1-18.88,57.13-41.41,9.59-13.46,11.86-24.34,11.88-24.45a5,5,0,0,1,9.81,1.93c-.38,2-10.19,48.88-75.32,73.29A4.87,4.87,0,0,1,254,420.21Z"/><path class="cls-1" d="M254,498.74a5,5,0,0,1-5-5V415.21a5,5,0,0,1,6.24-4.84c41.2,10.5,75.62-5.07,85.79-10.45l-5.48-23.25a5,5,0,0,1,4.87-6.15h53.24c5.89-38.66-21.85-62.88-23.07-63.92a5,5,0,0,1,6.47-7.62c1.45,1.23,35.42,30.65,25.67,77.56a5,5,0,0,1-4.9,4H346.74l4.89,20.76a5,5,0,0,1-2.19,5.36c-1.67,1.07-40.12,25-90.44,14.84v72.26A5,5,0,0,1,254,498.74Z"/><path class="cls-1" d="M445.81,406.91a5,5,0,0,1-3.25-1.21l-46.39-39.76a5,5,0,0,1,6.51-7.59l46.39,39.76a5,5,0,0,1-3.26,8.8Z"/><path class="cls-1" d="M422.62,361.5a16.67,16.67,0,1,1,16.67-16.67A16.68,16.68,0,0,1,422.62,361.5Zm0-23.33a6.67,6.67,0,1,0,6.67,6.66A6.67,6.67,0,0,0,422.62,338.17Z"/><path class="cls-1" d="M368.88,364.38a16.67,16.67,0,1,1,16.67-16.67A16.68,16.68,0,0,1,368.88,364.38Zm0-23.34a6.67,6.67,0,1,0,6.67,6.67A6.67,6.67,0,0,0,368.88,341Z"/><path class="cls-1" d="M139.22,364.38a16.67,16.67,0,1,1,16.66-16.67A16.69,16.69,0,0,1,139.22,364.38Zm0-23.34a6.67,6.67,0,1,0,6.66,6.67A6.67,6.67,0,0,0,139.22,341Z"/><path class="cls-1" d="M160.05,140.51a16.67,16.67,0,1,1,16.66-16.67A16.69,16.69,0,0,1,160.05,140.51Zm0-23.34a6.67,6.67,0,1,0,6.66,6.67A6.67,6.67,0,0,0,160.05,117.17Z"/><path class="cls-1" d="M355.16,140.51a16.67,16.67,0,1,1,16.67-16.67A16.69,16.69,0,0,1,355.16,140.51Zm0-23.34a6.67,6.67,0,1,0,6.67,6.67A6.68,6.68,0,0,0,355.16,117.17Z"/><path class="cls-1" d="M256.09,131.81c-39.23,0-83.07-2.61-83.51-2.63a5,5,0,0,1,.6-10c.44,0,44,2.62,82.91,2.62s87.44-.6,87.93-.6h.06a5,5,0,0,1,.06,10C343.66,131.21,295.2,131.81,256.09,131.81Z"/><path class="cls-1" d="M204.5,480H88a5,5,0,0,1-5-5V442.83a5,5,0,0,1,5-5H204.5a5,5,0,0,1,5,5V475A5,5,0,0,1,204.5,480ZM93,470H199.5V447.83H93Z"/><path class="cls-1" d="M73.9,441A65.75,65.75,0,0,1,9.7,362.4a63.38,63.38,0,0,1,27.62-40.87,58.31,58.31,0,0,1,6.79-3.87,65.74,65.74,0,0,1,10.1-3.83A5,5,0,1,1,57,323.44a56.19,56.19,0,0,0-8.56,3.24,50.65,50.65,0,0,0-5.63,3.22A53.48,53.48,0,0,0,19.5,364.38a55.81,55.81,0,0,0,42.7,65.36,53.66,53.66,0,0,0,64.22-41.95,55.26,55.26,0,0,0-8-41.39,49.87,49.87,0,0,0-14.06-14.77,5,5,0,1,1,5.66-8.24,59.26,59.26,0,0,1,16.77,17.54,65.2,65.2,0,0,1,9.44,48.84A63.68,63.68,0,0,1,73.9,441Z"/><path class="cls-1" d="M74.21,417.12a45.61,45.61,0,0,1-9.88-1.1,46.11,46.11,0,0,1-28.7-20C22.09,375.34,27.18,347.44,47,333.87h0a44.44,44.44,0,0,1,31.58-7.53,46.57,46.57,0,0,1,39,54.9,44.22,44.22,0,0,1-43.35,35.88Zm-1.69-81.27a35.18,35.18,0,0,0-19.89,6.27h0C37.28,352.64,33.42,374.38,44,390.59a36.18,36.18,0,0,0,22.5,15.67,34.22,34.22,0,0,0,41.25-26.95,36.57,36.57,0,0,0-30.69-43.08l-.34-.06A23.88,23.88,0,0,0,72.52,335.85ZM49.8,338h0Z"/><path class="cls-1" d="M85.58,425.51a15,15,0,0,1-14.66-11.85,5,5,0,1,1,9.77-2.1,5,5,0,0,0,5.94,3.84l27.25-5.85a5,5,0,0,0,3.84-5.94l-19.17-89.3a5,5,0,0,0-5.93-3.84l-27.25,5.85a5,5,0,0,0-3.84,5.94l2,9.24a5,5,0,0,1-9.78,2.09l-2-9.23a15,15,0,0,1,11.52-17.82l27.25-5.84a15,15,0,0,1,17.81,11.51l19.17,89.3A15,15,0,0,1,116,419.33l-27.25,5.85A15.47,15.47,0,0,1,85.58,425.51Z"/><path class="cls-1" d="M73.22,314.52a5,5,0,0,1-4.88-3.93l-15.72-72a5,5,0,0,1,9.76-2.14l15.73,72a5,5,0,0,1-3.82,6A5.63,5.63,0,0,1,73.22,314.52Z"/><path class="cls-1" d="M496.5,469.35H415.9a5,5,0,0,1,0-10h75.6V307.29H471.75a5,5,0,0,1,0-10H496.5a5,5,0,0,1,5,5V464.35A5,5,0,0,1,496.5,469.35Z"/><path class="cls-1" d="M496,340.5H431.94a5,5,0,0,1,0-10H496a5,5,0,0,1,0,10Z"/><path class="cls-1" d="M496,436.5H419.17a5,5,0,0,1,0-10H496a5,5,0,0,1,0,10Z"/><path class="cls-1" d="M458.54,176a4.93,4.93,0,0,1-1.63-.29H398.55a5,5,0,0,1,0-10h59.58a5.05,5.05,0,0,1,1.6.25A34.45,34.45,0,0,0,493,131.37,34.86,34.86,0,0,0,464.41,97a5,5,0,0,1-4-6.17,57.11,57.11,0,0,0-55.23-71.34,56.58,56.58,0,0,0-40.8,17.18,5,5,0,0,1-7.15-7,67,67,0,0,1,115,46.85,67.86,67.86,0,0,1-1,11.84,44.88,44.88,0,0,1,31.82,43,44.18,44.18,0,0,1-13,31.45A44.82,44.82,0,0,1,458.67,176Zm.07-10h0Z"/></g><g id="Outline"><path class="cls-1" d="M256.47,75.06a5,5,0,0,1-5-5V59a5,5,0,1,1,10,0V70.06A5,5,0,0,1,256.47,75.06Z"/><path class="cls-1" d="M249.57,85.24a4.91,4.91,0,0,1-2.8-.86,5,5,0,0,1-1.34-6.94l6.9-10.19a5,5,0,1,1,8.28,5.62l-6.9,10.18A5,5,0,0,1,249.57,85.24Z"/><path class="cls-1" d="M263.38,85.24a5,5,0,0,1-4.14-2.19l-6.91-10.18a5,5,0,0,1,8.28-5.62l6.9,10.19a5,5,0,0,1-4.13,7.8Z"/><path class="cls-1" d="M256.47,75.06a5,5,0,0,1-1.27-9.83l11.17-3A5,5,0,0,1,268.92,72l-11.17,2.94A4.75,4.75,0,0,1,256.47,75.06Z"/><path class="cls-1" d="M256.48,75.06a4.69,4.69,0,0,1-1.28-.17L244,72a5,5,0,0,1,2.55-9.67l11.17,3a5,5,0,0,1-1.27,9.83Z"/><path class="cls-1" d="M380,464.68a5,5,0,0,1-5-5V448.62a5,5,0,0,1,10,0v11.06A5,5,0,0,1,380,464.68Z"/><path class="cls-1" d="M373.12,474.86a5,5,0,0,1-4.14-7.8l6.9-10.19a5,5,0,0,1,8.28,5.61l-6.9,10.19A5,5,0,0,1,373.12,474.86Z"/><path class="cls-1" d="M386.93,474.86a5,5,0,0,1-4.14-2.19l-6.91-10.19a5,5,0,0,1,8.28-5.61l6.9,10.19a5,5,0,0,1-4.13,7.8Z"/><path class="cls-1" d="M380,464.68a5,5,0,0,1-1.27-9.84l11.17-2.94a5,5,0,0,1,2.55,9.67l-11.17,2.94A5.18,5.18,0,0,1,380,464.68Z"/><path class="cls-1" d="M380,464.68a5.12,5.12,0,0,1-1.28-.17l-11.17-2.94a5,5,0,0,1,2.55-9.67l11.17,2.94a5,5,0,0,1-1.27,9.84Z"/></g></svg>