<?xml version="1.0" ?><svg viewBox="0 0 512 512" xmlns="http://www.w3.org/2000/svg"><defs><style>.cls-1{fill:#3f456b;}</style></defs><title/><g id="Lines"><path class="cls-1" d="M255.73,420c-78.84,0-143-64.14-143-143V249.34a5,5,0,0,1,5-5H137a5,5,0,0,1,0,10h-14.2V277c0,73.33,59.65,133,133,133s133-59.66,133-133V254.34H375.58a5,5,0,0,1,0-10h18.14a5,5,0,0,1,5,5V277C398.72,355.86,334.58,420,255.73,420Z"/><path class="cls-1" d="M365.58,271.39H147a15,15,0,0,1-15-15v-14.1a15,15,0,0,1,15-15H365.58a15,15,0,0,1,15,15v14.1A15,15,0,0,1,365.58,271.39ZM147,237.29a5,5,0,0,0-5,5v14.1a5,5,0,0,0,5,5H365.58a5,5,0,0,0,5-5v-14.1a5,5,0,0,0-5-5Z"/><path class="cls-1" d="M255.73,378.45A94.59,94.59,0,0,1,161.25,284V266.39a5,5,0,0,1,10,0V284a84.49,84.49,0,1,0,169,0V266.39a5,5,0,0,1,10,0V284A94.6,94.6,0,0,1,255.73,378.45Z"/><path class="cls-1" d="M166.25,237.29a5,5,0,0,1-5-5V105a94.49,94.49,0,1,1,189,0V231.58a5,5,0,1,1-10,0V105a84.49,84.49,0,1,0-169,0v127.3A5,5,0,0,1,166.25,237.29Z"/><path class="cls-1" d="M352.23,500.5h-192a5,5,0,0,1-5-5v-22a15,15,0,0,1,15-15h172a15,15,0,0,1,15,15v22A5,5,0,0,1,352.23,500.5Zm-187-10h182v-17a5,5,0,0,0-5-5h-172a5,5,0,0,0-5,5Z"/><path class="cls-1" d="M255.73,468.5a5,5,0,0,1-5-5V415a5,5,0,0,1,10,0v48.5A5,5,0,0,1,255.73,468.5Z"/><path class="cls-1" d="M255.89,338.16a25.49,25.49,0,1,1,25.48-25.49A25.52,25.52,0,0,1,255.89,338.16Zm0-41a15.49,15.49,0,1,0,15.48,15.49A15.51,15.51,0,0,0,255.89,297.18Z"/></g><g id="Outline"><path class="cls-1" d="M221.64,105.73H166.35a5,5,0,0,1,0-10h55.29a5,5,0,0,1,0,10Z"/><path class="cls-1" d="M221.64,138.57H166.35a5,5,0,1,1,0-10h55.29a5,5,0,0,1,0,10Z"/><path class="cls-1" d="M221.64,171.42H166.35a5,5,0,0,1,0-10h55.29a5,5,0,0,1,0,10Z"/><path class="cls-1" d="M221.64,204.27H166.35a5,5,0,0,1,0-10h55.29a5,5,0,0,1,0,10Z"/><path class="cls-1" d="M289.82,59.28a5,5,0,0,1-5-5V22.6a5,5,0,0,1,10,0V54.28A5,5,0,0,1,289.82,59.28Z"/><path class="cls-1" d="M255.73,59.28a5,5,0,0,1-5-5V15.5a5,5,0,0,1,10,0V54.28A5,5,0,0,1,255.73,59.28Z"/><path class="cls-1" d="M221.64,59.28a5,5,0,0,1-5-5V22.6a5,5,0,1,1,10,0V54.28A5,5,0,0,1,221.64,59.28Z"/><path class="cls-1" d="M345.12,105.73h-55.3a5,5,0,0,1,0-10h55.3a5,5,0,0,1,0,10Z"/><path class="cls-1" d="M345.12,138.57h-55.3a5,5,0,0,1,0-10h55.3a5,5,0,0,1,0,10Z"/><path class="cls-1" d="M345.12,171.42h-55.3a5,5,0,0,1,0-10h55.3a5,5,0,0,1,0,10Z"/><path class="cls-1" d="M345.12,204.27h-55.3a5,5,0,0,1,0-10h55.3a5,5,0,0,1,0,10Z"/><path class="cls-1" d="M431.64,212c-17.49,0-19.91-26.83-19.91-55.83v-6.35a3.59,3.59,0,0,1,0-.47c.22-2.57-.18-7.2-1.78-8.94a2.18,2.18,0,0,0-1.82-.68,2.49,2.49,0,0,0-2,.79c-1.89,2-2.34,6.94-2.26,9,.13,1.68.72,12.29-4.64,18.13a11.83,11.83,0,0,1-8.93,3.86,11.51,11.51,0,0,1-8.5-3.61c-3.21-3.36-4.41-8.43-4.85-12.28H364.23a5,5,0,0,1,0-10h17.5a5,5,0,0,1,5,5.23c-.12,3,.53,8.29,2.3,10.14a1.54,1.54,0,0,0,1.27.52,1.84,1.84,0,0,0,1.56-.62c1.9-2.07,2.26-7.95,2-10.63,0-.07,0-.13,0-.19-.05-1.1-.35-10.82,5-16.45a12.5,12.5,0,0,1,9.27-3.88,12.13,12.13,0,0,1,9.23,4c4.9,5.39,4.49,14.43,4.34,16.34v6.14c0,37.88,5.39,45.83,9.91,45.83s9.91-7.95,9.91-45.83v-12.7c0-29,2.41-55.84,19.91-55.84,18.37,0,19.9,27.59,19.9,55.84v.24l-.09,1.9h15a5,5,0,0,1,0,10H476a5,5,0,0,1-5-5.24l.34-7c0-12.62,0-45.71-9.9-45.71-4.52,0-9.91,8-9.91,45.84v12.7C451.55,185.17,449.14,212,431.64,212Z"/><path class="cls-1" d="M83.64,212c-17.49,0-19.91-26.83-19.91-55.83v-6.35a3.59,3.59,0,0,1,0-.47c.22-2.57-.18-7.2-1.78-8.94a2.18,2.18,0,0,0-1.82-.68,2.49,2.49,0,0,0-2,.79c-1.89,2-2.34,6.94-2.26,9,.13,1.68.72,12.29-4.64,18.13a11.83,11.83,0,0,1-8.93,3.86,11.51,11.51,0,0,1-8.5-3.61c-3.21-3.36-4.41-8.43-4.85-12.28H16.23a5,5,0,1,1,0-10h17.5a5,5,0,0,1,5,5.23c-.12,3,.53,8.29,2.3,10.14a1.54,1.54,0,0,0,1.27.52,1.84,1.84,0,0,0,1.56-.62c1.9-2.07,2.26-7.95,2-10.63,0-.07,0-.13,0-.19-.05-1.1-.35-10.82,5-16.45a12.5,12.5,0,0,1,9.27-3.88,12.13,12.13,0,0,1,9.23,4c4.9,5.39,4.49,14.43,4.34,16.34v6.14c0,37.88,5.39,45.83,9.91,45.83s9.91-7.95,9.91-45.83v-12.7c0-29,2.41-55.84,19.91-55.84,18.37,0,19.9,27.59,19.9,55.84v.24l-.09,1.9h15a5,5,0,1,1,0,10H128a5,5,0,0,1-5-5.24l.34-7c0-12.62,0-45.71-9.9-45.71-4.52,0-9.91,8-9.91,45.84v12.7C103.55,185.17,101.14,212,83.64,212Z"/></g></svg>