<?xml version="1.0" ?><svg viewBox="0 0 512 512" xmlns="http://www.w3.org/2000/svg"><defs><style>.cls-1{fill:#3f456b;}</style></defs><title/><g id="Lines"><path class="cls-1" d="M345,413H207.57a5,5,0,1,1,0-10H340V284.64H203.75a5,5,0,0,1,0-10H345a5,5,0,0,1,5,5V408a5,5,0,0,1-5,5Z"/><path class="cls-1" d="M464,501H211a15,15,0,0,1-15-15V201a15,15,0,0,1,11.05-14.47c.26-4.55,1.45-11.22,5.8-16A17.31,17.31,0,0,1,226.08,165H448a17.31,17.31,0,0,1,13.23,5.53c4.28,4.71,5.5,11.24,5.79,15.78A15,15,0,0,1,479,201V486A15,15,0,0,1,464,501ZM211.54,196a4.89,4.89,0,0,1-.54,0,5,5,0,0,0-5,5V486a5,5,0,0,0,5,5H464a5,5,0,0,0,5-5V201a5,5,0,0,0-5-5l-15,0V305.35c.22,2.2.89,12.6-5.71,20.16-4.48,5.14-11.07,7.75-19.58,7.75-8.35,0-14.93-2.58-19.54-7.68-7.11-7.86-6.67-18.93-6.53-20.93V232.28c0-.11,0-.23,0-.34s.33-6.67-3.45-10.66c-2.08-2.21-5.11-3.28-9.25-3.28s-7.31,1.1-9.57,3.37c-4.08,4.11-4.08,10.85-4.08,10.92v.14C371.2,242,365.73,260,346.07,260c-8.36,0-14.93-2.58-19.54-7.68-7.12-7.86-6.67-18.93-6.53-20.93V196H212.08A4.89,4.89,0,0,1,211.54,196Zm196.14,36.45v72.43a4.18,4.18,0,0,1,0,.5c0,.06-.7,8.41,4,13.56,2.64,2.89,6.71,4.35,12.09,4.35s9.55-1.45,12-4.32c4.23-4.85,3.31-12.55,3.3-12.62a4,4,0,0,1,0-.69V191a5,5,0,0,1,5-5L457,186c-.29-3-1.12-6.57-3.13-8.77A7.33,7.33,0,0,0,448,175H226.08a7.33,7.33,0,0,0-5.82,2.24c-2,2.19-2.84,5.76-3.13,8.76H325a5,5,0,0,1,5,5v40.57c0,.17,0,.34,0,.5s-.71,8.42,4,13.56c2.63,2.89,6.7,4.35,12.09,4.35,6.22,0,10.49-2.74,13.07-8.39a26.77,26.77,0,0,0,2.21-9.29c0-1.34.24-11.1,6.91-17.89,4.17-4.25,9.81-6.41,16.74-6.41s12.57,2.18,16.59,6.49C407.93,221.27,407.78,230.64,407.68,232.42Z"/><path class="cls-1" d="M200,293H188a15,15,0,0,1-15-15V250a15,15,0,0,1,15-15h12a5,5,0,0,1,0,10H188a5,5,0,0,0-5,5v28a5,5,0,0,0,5,5h12a5,5,0,0,1,0,10Z"/><path class="cls-1" d="M486,293H474a5,5,0,0,1,0-10h12a5,5,0,0,0,5-5V250a5,5,0,0,0-5-5H474a5,5,0,0,1,0-10h12a15,15,0,0,1,15,15v28A15,15,0,0,1,486,293Z"/><path class="cls-1" d="M489,245a5,5,0,0,1-5-5V159c0-.1,0-.21,0-.31a124,124,0,0,0-8.83-47.75C461.83,77.46,435.9,54.86,398.1,43.76a5,5,0,1,1,2.82-9.59c51.14,15,73.74,48.24,83.7,73.46C495,134,494.13,156.78,494,159.14V240A5,5,0,0,1,489,245Z"/><path class="cls-1" d="M187,245a5,5,0,0,1-5-5V159.14c-.12-2.33-1-24.51,8.93-50.36C200.45,84,222.07,51.15,271.05,35.4a5,5,0,1,1,3.06,9.52c-36.16,11.63-61,34.19-73.7,67.08A123.63,123.63,0,0,0,192,158.69c0,.1,0,.21,0,.31v81A5,5,0,0,1,187,245Z"/><path class="cls-1" d="M384,55.92a20,20,0,0,1-4.84-.6c-43.24-10.67-85.26-.16-85.68,0a20.22,20.22,0,0,1-5,.64,20,20,0,0,1-5-39.36c2.09-.55,52-13.23,105.32-.06A20,20,0,0,1,384,55.92ZM337.57,40.55a185.13,185.13,0,0,1,44,5.06,10,10,0,1,0,4.8-19.41c-50.9-12.57-98.42-.49-100.42,0a10,10,0,0,0,2.51,19.68,9.74,9.74,0,0,0,2.52-.33A209.19,209.19,0,0,1,337.57,40.55Z"/><path class="cls-1" d="M31.22,361a5,5,0,0,1-5-5V334.5c0-30.44,11.67-38.13,24-46.27l2.13-1.41c10.45-7,9.76-22.61,9.75-22.77a2.44,2.44,0,0,1,0-.27v-91.4A34.42,34.42,0,0,1,96.5,138a5,5,0,0,1,0,10,24.41,24.41,0,0,0-24.38,24.38v91.27c.1,2.18.52,21.68-14.19,31.49l-2.18,1.44C44,304.33,36.22,309.45,36.22,334.5V356A5,5,0,0,1,31.22,361Z"/><path class="cls-1" d="M161.78,361a5,5,0,0,1-5-5V334.5c0-25.05-7.77-30.17-19.53-37.92l-2.18-1.44c-14.71-9.81-14.29-29.31-14.19-31.49V172.38A24.41,24.41,0,0,0,96.5,148a5,5,0,0,1,0-10,34.42,34.42,0,0,1,34.38,34.38v91.4c0,.09,0,.19,0,.29s-.7,15.78,9.75,22.75l2.13,1.41c12.36,8.14,24,15.83,24,46.27V356A5,5,0,0,1,161.78,361Zm-35.9-97.22h0Z"/><path class="cls-1" d="M176,405H16a5,5,0,0,1-5-5V356a5,5,0,0,1,5-5H176a5,5,0,0,1,5,5v44A5,5,0,0,1,176,405ZM21,395H171V361H21Z"/><path class="cls-1" d="M170,500H22.5a5,5,0,0,1-5-5V400a5,5,0,0,1,10,0v90H165V400a5,5,0,0,1,10,0v95A5,5,0,0,1,170,500Z"/><path class="cls-1" d="M97,193a16,16,0,1,1,16-16A16,16,0,0,1,97,193Zm0-22a6,6,0,1,0,6,6A6,6,0,0,0,97,171Z"/></g><g id="Outline"><path class="cls-1" d="M325,228H203a5,5,0,0,1,0-10H325a5,5,0,0,1,0,10Z"/><path class="cls-1" d="M473,228H444a5,5,0,0,1,0-10h29a5,5,0,0,1,0,10Z"/><path class="cls-1" d="M473,469H203a5,5,0,0,1,0-10H473a5,5,0,0,1,0,10Z"/><path class="cls-1" d="M96,500a5,5,0,0,1-5-5V431a5,5,0,0,1,10,0v64A5,5,0,0,1,96,500Z"/><path class="cls-1" d="M71.3,500a5,5,0,0,1-5-5V431a5,5,0,0,1,10,0v64A5,5,0,0,1,71.3,500Z"/><path class="cls-1" d="M46.62,500a5,5,0,0,1-5-5V431a5,5,0,0,1,10,0v64A5,5,0,0,1,46.62,500Z"/><path class="cls-1" d="M145.32,500a5,5,0,0,1-5-5V431a5,5,0,0,1,10,0v64A5,5,0,0,1,145.32,500Z"/><path class="cls-1" d="M120.65,500a5,5,0,0,1-5-5V431a5,5,0,0,1,10,0v64A5,5,0,0,1,120.65,500Z"/><path class="cls-1" d="M152,383H40a5,5,0,0,1,0-10H152a5,5,0,0,1,0,10Z"/></g></svg>