<?xml version="1.0" ?><svg viewBox="0 0 512 512" xmlns="http://www.w3.org/2000/svg"><defs><style>.cls-1{fill:#3f456b;}</style></defs><title/><g id="Lines"><path class="cls-1" d="M447.14,130a5,5,0,0,1-5-5V85.89c0-7.86-2.26-14-6.73-18.39-8-7.8-21-7.65-21.12-7.65H334.45a5,5,0,0,1,0-10h79.64c1.48,0,17.42-.09,28.28,10.47,6.49,6.29,9.77,14.89,9.77,25.56V125A5,5,0,0,1,447.14,130Z"/><path class="cls-1" d="M361,86.26a5,5,0,0,1-3.54-1.46l-26.4-26.41a5,5,0,0,1,0-7.07l26.4-26.4A5,5,0,1,1,364.52,32L341.66,54.86l22.86,22.86A5,5,0,0,1,361,86.26Z"/><path class="cls-1" d="M162,482.55a22,22,0,1,1,22-22A22,22,0,0,1,162,482.55Zm0-33.93a12,12,0,1,0,12,12A12,12,0,0,0,162,448.62Z"/><path class="cls-1" d="M302,97H19a5,5,0,0,1,0-10H302a5,5,0,0,1,0,10Z"/><path class="cls-1" d="M302,426H19a5,5,0,0,1,0-10H302a5,5,0,0,1,0,10Z"/><path class="cls-1" d="M181,62H138a5,5,0,0,1,0-10h43a5,5,0,0,1,0,10Z"/><path class="cls-1" d="M264.4,503h-208C31.8,503,11,482.16,11,457.49V55.84A44.13,44.13,0,0,1,24.5,24.13,45.4,45.4,0,0,1,56.43,11h208A44.78,44.78,0,0,1,309,55.84V124a5,5,0,0,1-10,0V55.84A34.76,34.76,0,0,0,264.4,21h-208C37.23,21,21,37,21,55.84V457.49C21,476.74,37.23,493,56.43,493h208c18.75,0,34.6-16.26,34.6-35.51V389a5,5,0,0,1,10,0v68.49C309,482.58,289,503,264.4,503Z"/><path class="cls-1" d="M146.23,183.37a5,5,0,0,1,0-10L496,172.72h0a5,5,0,0,1,0,10l-349.75.65Z"/><path class="cls-1" d="M146.32,235a5,5,0,0,1,0-10l349.76-.65h0a5,5,0,1,1,0,10L146.33,235Z"/><path class="cls-1" d="M464.4,392.12h0L145.45,392a5,5,0,0,1-5-5l.14-262.29a5,5,0,0,1,5-5h0l318.93.16A37.7,37.7,0,0,1,502,157.64l-.11,196.3A38.37,38.37,0,0,1,491,380.81,36.86,36.86,0,0,1,464.4,392.12ZM150.45,382l313.94.16h0a26.92,26.92,0,0,0,19.44-8.28,28.4,28.4,0,0,0,8.05-19.91l.11-196.3a27.68,27.68,0,0,0-27.47-27.81l-313.94-.16Z"/><path class="cls-1" d="M436,355H195a5,5,0,0,1-5-5V287a5,5,0,0,1,5-5H436a5,5,0,0,1,5,5v63A5,5,0,0,1,436,355ZM200,345H431V292H200Z"/></g><g id="Outline"><path class="cls-1" d="M112,389a5,5,0,0,1-5-5v-1a5,5,0,0,1,10,0v1A5,5,0,0,1,112,389Zm0-21a5,5,0,0,1-5-5v-1a5,5,0,0,1,10,0v1A5,5,0,0,1,112,368Zm0-21a5,5,0,0,1-5-5v-1a5,5,0,0,1,10,0v1A5,5,0,0,1,112,347Zm0-21a5,5,0,0,1-5-5v-1a5,5,0,0,1,10,0v1A5,5,0,0,1,112,326Zm0-21a5,5,0,0,1-5-5v-1a5,5,0,0,1,10,0v1A5,5,0,0,1,112,305Zm0-21a5,5,0,0,1-5-5v-1a5,5,0,0,1,10,0v1A5,5,0,0,1,112,284Zm0-21a5,5,0,0,1-5-5v-1a5,5,0,0,1,10,0v1A5,5,0,0,1,112,263Zm0-21a5,5,0,0,1-5-5v-1a5,5,0,0,1,10,0v1A5,5,0,0,1,112,242Zm0-21a5,5,0,0,1-5-5v-1a5,5,0,0,1,10,0v1A5,5,0,0,1,112,221Zm0-21a5,5,0,0,1-5-5v-1a5,5,0,0,1,10,0v1A5,5,0,0,1,112,200Zm0-21a5,5,0,0,1-5-5v-1a5,5,0,0,1,10,0v1A5,5,0,0,1,112,179Zm0-21a5,5,0,0,1-5-5v-1a5,5,0,0,1,10,0v1A5,5,0,0,1,112,158Zm0-21a5,5,0,0,1-5-5v-1a5,5,0,0,1,10,0v1A5,5,0,0,1,112,137Z"/><path class="cls-1" d="M381,324H256a5,5,0,0,1,0-10H381a5,5,0,0,1,0,10Z"/><path class="cls-1" d="M443.07,258.36h-5a5,5,0,0,1,0-10h5a5,5,0,1,1,0,10Zm-25,0h-5a5,5,0,0,1,0-10h5a5,5,0,1,1,0,10Zm-25,0h-5a5,5,0,0,1,0-10h5a5,5,0,1,1,0,10Zm-25,0h-5a5,5,0,0,1,0-10h5a5,5,0,1,1,0,10Zm-25,0h-5a5,5,0,0,1,0-10h5a5,5,0,1,1,0,10Zm-25,0h-5a5,5,0,0,1,0-10h5a5,5,0,1,1,0,10Zm-25,0h-5a5,5,0,0,1,0-10h5a5,5,0,1,1,0,10Zm-25,0h-5a5,5,0,0,1,0-10h5a5,5,0,1,1,0,10Zm-25,0h-5a5,5,0,0,1,0-10h5a5,5,0,0,1,0,10Zm-25,0h-5a5,5,0,0,1,0-10h5a5,5,0,0,1,0,10Zm-25,0h-5a5,5,0,0,1,0-10h5a5,5,0,0,1,0,10Z"/></g></svg>