<?xml version="1.0" ?><svg id="Lines" viewBox="0 0 512 512" xmlns="http://www.w3.org/2000/svg"><defs><style>.cls-1{fill:#3f456b;}</style></defs><title/><path class="cls-1" d="M61.5,500.5h-35a15,15,0,0,1-15-15V330a15,15,0,0,1,15-15h35a15,15,0,0,1,15,15V485.5A15,15,0,0,1,61.5,500.5ZM26.5,325a5,5,0,0,0-5,5V485.5a5,5,0,0,0,5,5h35a5,5,0,0,0,5-5V330a5,5,0,0,0-5-5Z"/><path class="cls-1" d="M486.5,500.5h-35a15,15,0,0,1-15-15v-60a15,15,0,0,1,15-15h35a15,15,0,0,1,15,15v60A15,15,0,0,1,486.5,500.5Zm-35-80a5,5,0,0,0-5,5v60a5,5,0,0,0,5,5h35a5,5,0,0,0,5-5v-60a5,5,0,0,0-5-5Z"/><path class="cls-1" d="M380.25,500.5h-35a15,15,0,0,1-15-15V89.5a15,15,0,0,1,15-15h35a15,15,0,0,1,15,15v396A15,15,0,0,1,380.25,500.5Zm-35-416a5,5,0,0,0-5,5v396a5,5,0,0,0,5,5h35a5,5,0,0,0,5-5V89.5a5,5,0,0,0-5-5Z"/><path class="cls-1" d="M274,500.5H239a15,15,0,0,1-15-15v-316a15,15,0,0,1,15-15h35a15,15,0,0,1,15,15v316A15,15,0,0,1,274,500.5Zm-35-336a5,5,0,0,0-5,5v316a5,5,0,0,0,5,5h35a5,5,0,0,0,5-5v-316a5,5,0,0,0-5-5Z"/><path class="cls-1" d="M167.75,500.5h-35a15,15,0,0,1-15-15v-236a15,15,0,0,1,15-15h35a15,15,0,0,1,15,15v236A15,15,0,0,1,167.75,500.5Zm-35-256a5,5,0,0,0-5,5v236a5,5,0,0,0,5,5h35a5,5,0,0,0,5-5v-236a5,5,0,0,0-5-5Z"/></svg>