<?xml version="1.0" ?><svg id="Lines" viewBox="0 0 512 512" xmlns="http://www.w3.org/2000/svg"><defs><style>.cls-1{fill:#3f456b;}</style></defs><title/><path class="cls-1" d="M257,502A246,246,0,0,1,83.05,82.05,246,246,0,0,1,431,430,244.42,244.42,0,0,1,257,502Zm0-482A236,236,0,0,0,90.12,422.88,236,236,0,0,0,423.88,89.12,234.48,234.48,0,0,0,257,20Z"/><path class="cls-1" d="M255.39,406.05c-73.53,0-113.9-30.93-134.81-56.89C97.85,321,92.71,293.05,92.51,291.87a5,5,0,0,1,9.84-1.75h0c.05.27,5,26.93,26.31,53.14a133.44,133.44,0,0,0,46.08,36.24c22.81,11,49.95,16.55,80.65,16.55s57.84-5.57,80.66-16.55a133.44,133.44,0,0,0,46.08-36.24c21.28-26.21,26.26-52.87,26.31-53.14a5,5,0,0,1,9.84,1.75c-.21,1.18-5.34,29.1-28.07,57.29C369.29,375.12,328.92,406.05,255.39,406.05Z"/><path class="cls-1" d="M81,301a5,5,0,0,1-1.49-9.77l32-10a5,5,0,1,1,3,9.54l-32,10A4.82,4.82,0,0,1,81,301Z"/><path class="cls-1" d="M429,301a4.82,4.82,0,0,1-1.49-.23l-32-10a5,5,0,1,1,3-9.54l32,10A5,5,0,0,1,429,301Z"/><path class="cls-1" d="M193,227a5,5,0,0,1-5-5V143a5,5,0,0,1,10,0v79A5,5,0,0,1,193,227Z"/><path class="cls-1" d="M320,227a5,5,0,0,1-5-5V143a5,5,0,0,1,10,0v79A5,5,0,0,1,320,227Z"/></svg>