<?xml version="1.0" ?><svg viewBox="0 0 512 512" xmlns="http://www.w3.org/2000/svg"><defs><style>.cls-1{fill:#3f456b;}</style></defs><title/><g id="Lines"><path class="cls-1" d="M68.85,454.15A37.78,37.78,0,0,1,31.1,416.41V180.76c0-42.56,41-44.86,41.43-44.88H117a5,5,0,0,1,0,10H72.89A41,41,0,0,0,56.6,151c-10.29,5.95-15.5,16-15.5,29.77V416.41a27.77,27.77,0,0,0,27.75,27.74,5,5,0,1,1,0,10Z"/><path class="cls-1" d="M341.14,476.79H170.84A15.8,15.8,0,0,1,155.06,461V449.15a5,5,0,0,1,10,0V461a5.79,5.79,0,0,0,5.78,5.78h170.3a5.79,5.79,0,0,0,5.78-5.78V449.15a5,5,0,0,1,10,0V461A15.8,15.8,0,0,1,341.14,476.79Z"/><path class="cls-1" d="M462.83,500.5H50.52a37.78,37.78,0,0,1-37.74-37.74V449.15a5,5,0,0,1,5-5h477.5a5,5,0,0,1,5,5v13.61A37.64,37.64,0,0,1,462.83,500.5Zm-440-46.35v8.61A27.77,27.77,0,0,0,50.52,490.5H462.83a27.63,27.63,0,0,0,27.45-27.74v-8.61Z"/><path class="cls-1" d="M444.21,454.15a5,5,0,1,1,0-10A27.77,27.77,0,0,0,472,416.41V173.62a27.77,27.77,0,0,0-27.75-27.74H397a5,5,0,0,1,0-10h47.21A37.79,37.79,0,0,1,482,173.62V416.41A37.79,37.79,0,0,1,444.21,454.15Z"/><path class="cls-1" d="M257,347.5h-.68a4.9,4.9,0,0,1-1.69-.3c-38.44-13.85-69.77-35.7-93.12-64.94-19.07-23.88-32.88-52.73-41.06-85.74-6.28-25.37-8.18-53.59-8.26-54.78-2.51-40.85,3-70.67,3.28-71.92a5,5,0,0,1,4.84-4.06c19.9-.26,38.24-2.53,54.49-6.75a203,203,0,0,0,48.14-19.92c20.53-12.71,29.17-25.19,29.25-25.31a5.67,5.67,0,0,1,8.94,0c.08.11,9,12.81,29.53,25.49C309.63,51,342.83,65.1,393,65.76a5,5,0,0,1,4.84,4.06c.41,2.17,9.95,53.77-2.15,114.06-7.13,35.58-20.38,66.68-39.38,92.43-23.79,32.27-56.64,56.12-97.63,70.89A4.9,4.9,0,0,1,257,347.5ZM124.6,75.67a326.59,326.59,0,0,0-2.48,65.44c0,.26,1.93,28.52,8,53,7.83,31.6,21,59.16,39.17,81.9,21.9,27.43,51.28,48,87.33,61.28,38.46-14.12,69.28-36.63,91.62-66.92,18.11-24.57,30.77-54.33,37.62-88.46,9.84-49,4.72-93.09,2.77-106.25-28.9-.83-69-6.59-103.82-28.24-14.49-9-23.55-18-28.19-23.28-4.67,5.32-13.82,14.38-28.49,23.47a210.24,210.24,0,0,1-50.86,21.07A236,236,0,0,1,124.6,75.67Z"/><rect class="cls-1" height="325.93" width="10" x="251.48" y="15.5"/><rect class="cls-1" height="10" width="265.95" x="122.94" y="176.86"/></g><g id="Outline"><path class="cls-1" d="M388,384a5,5,0,0,1,5-5h0a5,5,0,0,1,5,5h0a5,5,0,0,1-5,5h0A5,5,0,0,1,388,384Zm-20,0a5,5,0,0,1,5-5h0a5,5,0,0,1,5,5h0a5,5,0,0,1-5,5h0A5,5,0,0,1,368,384Zm-20,0a5,5,0,0,1,5-5h0a5,5,0,0,1,5,5h0a5,5,0,0,1-5,5h0A5,5,0,0,1,348,384Zm-20,0a5,5,0,0,1,5-5h0a5,5,0,0,1,5,5h0a5,5,0,0,1-5,5h0A5,5,0,0,1,328,384Zm-20,0a5,5,0,0,1,5-5h0a5,5,0,0,1,5,5h0a5,5,0,0,1-5,5h0A5,5,0,0,1,308,384Zm-20,0a5,5,0,0,1,5-5h0a5,5,0,0,1,5,5h0a5,5,0,0,1-5,5h0A5,5,0,0,1,288,384Zm-20,0a5,5,0,0,1,5-5h0a5,5,0,0,1,5,5h0a5,5,0,0,1-5,5h0A5,5,0,0,1,268,384Zm-20,0a5,5,0,0,1,5-5h0a5,5,0,0,1,5,5h0a5,5,0,0,1-5,5h0A5,5,0,0,1,248,384Zm-20,0a5,5,0,0,1,5-5h0a5,5,0,0,1,5,5h0a5,5,0,0,1-5,5h0A5,5,0,0,1,228,384Zm-20,0a5,5,0,0,1,5-5h0a5,5,0,0,1,5,5h0a5,5,0,0,1-5,5h0A5,5,0,0,1,208,384Zm-20,0a5,5,0,0,1,5-5h0a5,5,0,0,1,5,5h0a5,5,0,0,1-5,5h0A5,5,0,0,1,188,384Zm-20,0a5,5,0,0,1,5-5h0a5,5,0,0,1,5,5h0a5,5,0,0,1-5,5h0A5,5,0,0,1,168,384Zm-20,0a5,5,0,0,1,5-5h0a5,5,0,0,1,5,5h0a5,5,0,0,1-5,5h0A5,5,0,0,1,148,384Zm-20,0a5,5,0,0,1,5-5h0a5,5,0,0,1,5,5h0a5,5,0,0,1-5,5h0A5,5,0,0,1,128,384Zm-20,0a5,5,0,0,1,5-5h0a5,5,0,0,1,5,5h0a5,5,0,0,1-5,5h0A5,5,0,0,1,108,384Z"/></g></svg>