<?xml version="1.0" ?><svg viewBox="0 0 512 512" xmlns="http://www.w3.org/2000/svg"><defs><style>.cls-1{fill:#3f456b;}</style></defs><title/><g id="Lines"><path class="cls-1" d="M486,469H27a15,15,0,0,1-15-15V25A15,15,0,0,1,27,10H486a15,15,0,0,1,15,15V454A15,15,0,0,1,486,469ZM27,20a5,5,0,0,0-5,5V454a5,5,0,0,0,5,5H486a5,5,0,0,0,5-5V25a5,5,0,0,0-5-5Z"/><path class="cls-1" d="M265,469a5,5,0,0,1,0-10c10.37,0,17.58-2.69,21.4-8,6.65-9.22,1.91-24.27,1.86-24.42l-57-178.06a5,5,0,0,1,3-6.21c1.91-.71,192.24-71.13,228.64-87.85,32.75-15.05,28.38-40.93,28.18-42a5,5,0,0,1,9.82-1.9,43.37,43.37,0,0,1-1.77,19.86c-3.16,9.85-11.29,23.6-32.05,33.14C433,179.19,272,239,242.22,250l55.54,173.45c.25.75,6.47,19.89-3.24,33.36C288.7,464.91,278.77,469,265,469Z"/><path class="cls-1" d="M290.32,459.1a4.92,4.92,0,0,1-2.66-.78,5,5,0,0,1-1.56-6.89L488,131.64a5,5,0,0,1,8.45,5.33L294.56,456.76A5,5,0,0,1,290.32,459.1Z"/><path class="cls-1" d="M265,469a5,5,0,0,1,0-10c10.37,0,17.58-2.69,21.4-8,6.65-9.22,1.91-24.27,1.86-24.42l-57-178.06a5,5,0,0,1,3-6.21c1.91-.71,192.24-71.13,228.64-87.85,32.75-15.05,28.38-40.93,28.18-42a5,5,0,0,1,9.82-1.9,43.37,43.37,0,0,1-1.77,19.86c-3.16,9.85-11.29,23.6-32.05,33.14C433,179.19,272,239,242.22,250l55.54,173.45c.25.75,6.47,19.89-3.24,33.36C288.7,464.91,278.77,469,265,469Z"/><path class="cls-1" d="M290.32,459.1a4.92,4.92,0,0,1-2.66-.78,5,5,0,0,1-1.56-6.89L488,131.64a5,5,0,0,1,8.45,5.33L294.56,456.76A5,5,0,0,1,290.32,459.1Z"/><path class="cls-1" d="M178,133.75h0l-160.33-.33a5,5,0,0,1-4.07-7.89L93.64,12.77a5,5,0,0,1,8.15,0l80.29,113.09a5,5,0,0,1-4.08,7.89ZM27.33,123.44l141,.29L97.71,24.3Z"/><path class="cls-1" d="M252.19,245.48h0l-154.5-.33a5,5,0,0,1-4.06-7.89l80-112.75a5,5,0,0,1,8.16,0L260.7,235.62a5,5,0,0,1-1.18,7,5.08,5.08,0,0,1-3.35.91A5,5,0,0,1,252.19,245.48ZM107.36,235.17l141,.3L177.74,136Z"/><path class="cls-1" d="M96.63,243.51a5,5,0,0,1-4.09-2.1L13.66,130.3a5,5,0,1,1,8.16-5.79L100.7,235.62a5,5,0,0,1-4.07,7.89Z"/><path class="cls-1" d="M92.19,245.48h0L18,245.15a5,5,0,0,1,0-10h0l74.19.33a5,5,0,0,1,0,10Z"/><path class="cls-1" d="M96.63,466.51a5,5,0,0,1-4.09-2.1L13.66,353.3a5,5,0,1,1,8.16-5.79L100.7,458.62a5,5,0,0,1-4.07,7.89Z"/><path class="cls-1" d="M256.08,244.66a4.93,4.93,0,0,1-2.89-.92,5,5,0,0,1-1.18-7l80-112.75a5,5,0,0,1,8.16,0l45.64,64.29a5,5,0,1,1-8.15,5.79l-41.57-58.55-76,107A5,5,0,0,1,256.08,244.66Z"/><path class="cls-1" d="M258,469a5,5,0,0,1-4.07-2.09L177.74,360.5l-76,106.08a5,5,0,0,1-8.13-5.82l80-111.76a5,5,0,0,1,8.13,0l80.29,112.09A5,5,0,0,1,258,469Z"/><path class="cls-1" d="M336.69,468.67a5,5,0,0,1-4.06-7.91l80-111.76a5,5,0,0,1,4.07-2.09h0a5,5,0,0,1,4.07,2.09l77.26,108.09a5,5,0,0,1-8.14,5.82L416.74,360.5l-76,106.08A5,5,0,0,1,336.69,468.67Z"/><path class="cls-1" d="M336.66,133.75h0l-160.33-.33a5,5,0,0,1-4.07-7.89L252.3,12.77a5,5,0,0,1,8.15,0l80.29,113.09a5,5,0,0,1-4.08,7.89ZM186,123.44l141,.29L256.38,24.3Z"/><path class="cls-1" d="M496,134h0l-160.33-.34a5,5,0,0,1-4.07-7.89L411.64,13a5,5,0,0,1,4.08-2.11h0A5,5,0,0,1,419.79,13l80.29,113.09A5,5,0,0,1,496,134ZM345.34,123.68l141,.3L415.72,24.55Z"/><path class="cls-1" d="M178,357.28h0l-160.33-.34a5,5,0,0,1-4.07-7.9L93.64,236.29a5,5,0,0,1,8.15,0l80.29,113.09a5,5,0,0,1-4.08,7.9ZM27.33,347l141,.29L97.71,247.82Z"/><path class="cls-1" d="M496,357h0l-79.33-.34a5,5,0,0,1-4.07-7.88L491.63,237a5,5,0,0,1,8.16,5.78L426.3,346.71,496,347a5,5,0,0,1,0,10Z"/><path class="cls-1" d="M418,357h0l-62.5-.13a5,5,0,0,1,0-10h0l52.79.11L380.91,308.4a5,5,0,0,1,8.16-5.79l33,46.5A5,5,0,0,1,418,357Z"/><path class="cls-1" d="M268.62,356.86h0l-92.56-.2a5,5,0,0,1-4.07-7.89l63.37-89.26a5,5,0,0,1,8.15,5.79l-57.78,81.38,82.92.18a5,5,0,0,1,0,10Z"/><path class="cls-1" d="M320,411a5,5,0,0,1-4.79-3.57l-1-3.3a5,5,0,0,1,9.59-2.86l1,3.3a5,5,0,0,1-3.36,6.22A5.1,5.1,0,0,1,320,411Zm-6.7-22.46a5,5,0,0,1-4.79-3.58l-1.43-4.79a5,5,0,0,1,9.58-2.86l1.43,4.8a5,5,0,0,1-3.36,6.22A5.1,5.1,0,0,1,313.3,388.54Zm-7.15-24a5,5,0,0,1-4.79-3.57l-1.43-4.8a5,5,0,0,1,9.59-2.85l1.43,4.79a5,5,0,0,1-4.8,6.43Zm-7.14-24a5,5,0,0,1-4.79-3.57l-1.43-4.79a5,5,0,0,1,9.58-2.86l1.43,4.79a5,5,0,0,1-3.36,6.22A5.1,5.1,0,0,1,299,340.62Zm-7.15-24a5,5,0,0,1-4.79-3.57l-1.43-4.79a5,5,0,0,1,9.59-2.86l1.43,4.79a5,5,0,0,1-3.37,6.22A4.72,4.72,0,0,1,291.86,316.66Zm-7.14-24a5,5,0,0,1-4.79-3.57l-1.43-4.8a5,5,0,1,1,9.58-2.86l1.43,4.8a5,5,0,0,1-3.36,6.22A5.1,5.1,0,0,1,284.72,292.71Zm-7.15-24a5,5,0,0,1-4.79-3.57l-1.43-4.79a5,5,0,0,1,9.59-2.86l1.43,4.79a5,5,0,0,1-4.8,6.43Zm-7.14-24a5,5,0,0,1-4.79-3.57l-1.43-4.79a5,5,0,0,1,9.58-2.86l1.43,4.79a5,5,0,0,1-3.36,6.22A5.1,5.1,0,0,1,270.43,244.79Z"/><path class="cls-1" d="M258,469a5,5,0,0,1-4.1-7.86l32-46a5,5,0,1,1,8.2,5.72l-32,46A5,5,0,0,1,258,469Z"/></g><g id="Outline"><path class="cls-1" d="M32,501a5,5,0,0,1-5-5V465a5,5,0,0,1,10,0v31A5,5,0,0,1,32,501Z"/><path class="cls-1" d="M65,501a5,5,0,0,1-5-5V465a5,5,0,0,1,10,0v31A5,5,0,0,1,65,501Z"/><path class="cls-1" d="M96,501a5,5,0,0,1-5-5V465a5,5,0,0,1,10,0v31A5,5,0,0,1,96,501Z"/><path class="cls-1" d="M129,501a5,5,0,0,1-5-5V465a5,5,0,0,1,10,0v31A5,5,0,0,1,129,501Z"/><path class="cls-1" d="M160,501a5,5,0,0,1-5-5V465a5,5,0,0,1,10,0v31A5,5,0,0,1,160,501Z"/><path class="cls-1" d="M193,501a5,5,0,0,1-5-5V465a5,5,0,0,1,10,0v31A5,5,0,0,1,193,501Z"/><path class="cls-1" d="M224,501a5,5,0,0,1-5-5V465a5,5,0,0,1,10,0v31A5,5,0,0,1,224,501Z"/><path class="cls-1" d="M257,501a5,5,0,0,1-5-5V465a5,5,0,0,1,10,0v31A5,5,0,0,1,257,501Z"/><path class="cls-1" d="M288,501a5,5,0,0,1-5-5V465a5,5,0,0,1,10,0v31A5,5,0,0,1,288,501Z"/><path class="cls-1" d="M321,501a5,5,0,0,1-5-5V465a5,5,0,0,1,10,0v31A5,5,0,0,1,321,501Z"/><path class="cls-1" d="M352,501a5,5,0,0,1-5-5V465a5,5,0,0,1,10,0v31A5,5,0,0,1,352,501Z"/><path class="cls-1" d="M385,501a5,5,0,0,1-5-5V465a5,5,0,0,1,10,0v31A5,5,0,0,1,385,501Z"/><path class="cls-1" d="M417,501a5,5,0,0,1-5-5V465a5,5,0,0,1,10,0v31A5,5,0,0,1,417,501Z"/><path class="cls-1" d="M449,501a5,5,0,0,1-5-5V465a5,5,0,0,1,10,0v31A5,5,0,0,1,449,501Z"/><path class="cls-1" d="M481,501a5,5,0,0,1-5-5V465a5,5,0,0,1,10,0v31A5,5,0,0,1,481,501Z"/><path class="cls-1" d="M212.46,280.22a5,5,0,0,1-1.55-9.76l29.46-9.62a5,5,0,1,1,3.11,9.5L214,280A4.93,4.93,0,0,1,212.46,280.22Z"/><path class="cls-1" d="M222.08,309.68a5,5,0,0,1-1.55-9.75L250,290.3a5,5,0,0,1,3.1,9.51l-29.46,9.63A5.28,5.28,0,0,1,222.08,309.68Z"/><path class="cls-1" d="M232.33,341.05a5,5,0,0,1-1.55-9.75l29.47-9.63a5,5,0,0,1,3.1,9.51l-29.46,9.62A5,5,0,0,1,232.33,341.05Z"/><path class="cls-1" d="M242,370.52a5,5,0,0,1-1.55-9.75l29.47-9.63a5,5,0,1,1,3.1,9.5l-29.47,9.63A4.93,4.93,0,0,1,242,370.52Z"/><path class="cls-1" d="M252.21,401.89a5,5,0,0,1-1.55-9.76l29.46-9.62a5,5,0,1,1,3.11,9.5l-29.47,9.63A4.93,4.93,0,0,1,252.21,401.89Z"/><path class="cls-1" d="M261.84,431.36a5,5,0,0,1-1.56-9.76L289.75,412a5,5,0,1,1,3.11,9.51l-29.47,9.63A5,5,0,0,1,261.84,431.36Z"/></g></svg>