<?xml version="1.0" ?><svg viewBox="0 0 512 512" xmlns="http://www.w3.org/2000/svg"><defs><style>.cls-1{fill:#3f456b;}</style></defs><title/><g id="Lines"><path class="cls-1" d="M312.54,401.71a15,15,0,0,1-11.21-5l-5.32-6a5,5,0,0,1,7.47-6.65l5.32,6a5,5,0,0,0,7.06.41l33.6-29.92a5,5,0,0,0,.41-7.06l-5.32-6a5,5,0,1,1,7.47-6.65l5.32,6A15,15,0,0,1,356.11,368l-33.6,29.93A15,15,0,0,1,312.54,401.71Z"/><path class="cls-1" d="M240.26,457.21a15.23,15.23,0,0,1-1.89-.12,14.89,14.89,0,0,1-10-5.67l-4.91-6.32a5,5,0,0,1,7.9-6.14l4.91,6.32a5,5,0,0,0,7,.88l.21-.16,14.18-9.91a5,5,0,0,0,.79-6.95l-4.91-6.31a5,5,0,1,1,7.9-6.14l4.91,6.31a15,15,0,0,1-2.63,21.05l-.21.16-14.21,9.92A14.85,14.85,0,0,1,240.26,457.21Zm20.42-17.1h0Z"/><path class="cls-1" d="M124.56,499.5c-13.18,0-24.65-4.6-33.66-13.62L45.58,440.7h0c-12.12-12.11-16.27-28.63-12-47.77a86.41,86.41,0,0,1,9.81-24.76c31.1-53.46,94.88-140.35,147.82-193.29,17.45-17.45,35.94-26.06,54.94-25.57,27.08.7,45.22,19.7,46.87,21.5l67.73,67.72c1.79,1.66,20.79,19.8,21.49,46.87.49,19-8.11,37.49-25.57,54.94C303.8,393.19,217,456.92,163.5,488a86.79,86.79,0,0,1-24.79,9.85A65.22,65.22,0,0,1,124.56,499.5ZM52.64,433.62,98,478.81c23.43,23.43,59.94.93,60.3.7l.15-.09c52.9-30.77,138.87-93.86,191.17-146.16,15.41-15.4,23-31.39,22.65-47.5-.56-23.49-18.14-39.76-18.32-39.92l-.18-.17-67.88-67.88-.18-.19c-.15-.16-16.42-17.75-39.9-18.3-16.13-.4-32.1,7.24-47.51,22.64C145.88,234.32,82.75,320.34,52,373.25a1,1,0,0,1-.08.14,77.57,77.57,0,0,0-8.63,21.95C39.84,411.09,43,424,52.64,433.62Z"/><path class="cls-1" d="M51.69,284.5a18.57,18.57,0,0,1-2.36-.14A20,20,0,0,1,31.8,262.17C36,226,49.12,170.49,87.37,111.64c22.26-34.25,42.75-53.85,45-56,27-25.72,63-42.31,98.91-45.48,38.81-3.42,73.94,8.46,98.92,33.45a131.79,131.79,0,0,1,8.89,176.52,5,5,0,0,1-7.73-6.34A121.79,121.79,0,0,0,323.15,50.7C300.29,27.84,268,17,232.18,20.14c-33.68,3-67.55,18.57-92.92,42.79-2.2,2.07-21.89,20.9-43.51,54.16-37.19,57.23-49.9,111.12-54,146.25a10,10,0,0,0,19.87,2.33c7-59.42,31.25-107.23,50.4-136.87,21.19-32.8,40.73-51.09,40.92-51.27l.09-.08c22.17-21.18,51.66-34.8,80.93-37.38,29.81-2.63,56.47,6.17,75.07,24.77a101.8,101.8,0,0,1,8.5,134.28,5,5,0,1,1-7.89-6.14,91.81,91.81,0,0,0-7.68-121.07C285.46,55.44,261.62,47.66,234.82,50c-27,2.38-54.35,15-74.89,34.64l-.18.17c-.2.19-19.15,18.13-39.35,49.39C101.82,163,78.27,209.32,71.53,266.83A20,20,0,0,1,51.69,284.5Z"/></g><g id="Outline"><path class="cls-1" d="M202.43,403.9a5.67,5.67,0,0,1-.82-.07l-78.53-13a5,5,0,0,1-2.71-8.46l62-62-47.62-7.22a5,5,0,0,1,1.5-9.88l48.47,7.34-7-48.93a5,5,0,1,1,9.9-1.42l6.88,48,62.38-62.37a5,5,0,0,1,8.48,2.79l12,79.54a5,5,0,0,1-5.69,5.69l-75.1-11.38,10.85,75.68a5,5,0,0,1-4.95,5.71Zm-68.11-21.34,62.19,10.29-9.08-63.4Zm69.11-69.12,63,9.55-9.49-63.05Z"/><path class="cls-1" d="M399.92,303.28a5,5,0,0,1-3.54-8.54,21.29,21.29,0,0,0,0-30.07,5,5,0,1,1,7.07-7.07,31.29,31.29,0,0,1,0,44.21A5,5,0,0,1,399.92,303.28Z"/><path class="cls-1" d="M423.81,327.17a5,5,0,0,1-3.54-8.54,55,55,0,0,0,0-77.86,5,5,0,1,1,7.07-7.07,65.05,65.05,0,0,1,0,92A5,5,0,0,1,423.81,327.17Z"/><path class="cls-1" d="M448.57,351.94A5,5,0,0,1,445,343.4,90.09,90.09,0,0,0,445,216a5,5,0,0,1,7.07-7.07,100.08,100.08,0,0,1,0,141.53A5,5,0,0,1,448.57,351.94Z"/></g></svg>