<?xml version="1.0" ?><svg viewBox="0 0 512 512" xmlns="http://www.w3.org/2000/svg"><defs><style>.cls-1{fill:#3f456b;}</style></defs><title/><g id="Lines"><path class="cls-1" d="M497,434.61a5,5,0,0,1-4.08-2.11c-.59-.8-15.62-20.52-59.53-16.5-44.11,4-64.17-6.64-75.42-15-10.55-7.86-15.46-19.19-20.21-30.15C334,362.18,330.48,354,324.42,348c-14.86-14.89-42-16.13-59.31-2.71-6.14,4.77-15.37,10.88-24.63,8.9-5.55-1.19-10.09-5-13.51-11.43-5.7-10.68-7.86-23.86-9.76-35.5-.29-1.75-.57-3.49-.86-5.18-1-5.66-3.24-18.91-9.45-23.08-2.07-1.39-4.6-1.73-7.73-1-12.73,2.83-16.36,21.17-19.27,35.91-.78,3.93-1.51,7.64-2.37,10.86-3.86,14.42-9.49,23.19-17.72,27.62-7.57,4.08-16.9,4.18-28.51.32-11.23-3.74-18.74-12.6-26-21.17-6.21-7.31-12.07-14.23-19.87-17.76-21.78-9.89-44.18-10.4-66.57-1.53A5,5,0,0,1,12,307.52V176a5,5,0,0,1,6.84-4.64,82.89,82.89,0,0,0,26.28,4.57c19.7.28,36.44-6.43,49.77-19.85,33.24-33.46,51.68-60.16,52.63-61.55S158,78.66,173.07,76c8.55-1.49,17,1,25.16,7.42,16.55,13,29.5,30.29,40.35,45.43,1.75,2.44,3.45,5.1,5.25,7.92,7.24,11.34,14.7,23,26.31,22.88,7.59-.11,14.23-5.35,19.74-15.57,1.68-3.12,3.27-6.45,4.8-9.68C301.54,120,309.31,103.66,330,100c9.74-1.74,20.29-1.46,31.46-1.16,27.18.72,52.85,1.41,66.48-26,6.61-13.3,16-21.9,27.95-25.55,21.32-6.51,42.71,5.43,43.61,5.94A5,5,0,0,1,502,57.5V429.61a5,5,0,0,1-5,5Zm-52.28-29.14c23.8,0,38.79,6.92,47.28,12.87V60.6c-5.65-2.58-19.86-7.92-33.28-3.8-9.17,2.83-16.53,9.7-21.85,20.42-16.47,33.16-47.94,32.32-75.71,31.57-10.64-.28-20.69-.55-29.42,1-15.6,2.8-21.36,14.91-28,28.93-1.59,3.34-3.23,6.8-5,10.14-7.25,13.45-17.07,20.65-28.39,20.82h-.43c-16.9,0-26.63-15.23-34.46-27.5-1.72-2.7-3.35-5.25-5-7.48C220,120.13,207.56,103.55,192,91.32c-5.8-4.57-11.59-6.4-17.2-5.44C163.71,87.79,156,99.77,156,99.89l-.09.14c-.77,1.13-19.17,28.13-53.85,63-15.19,15.3-35.05,23.19-57.39,22.8A96.18,96.18,0,0,1,22,182.75V300.42c22.72-7.27,45.42-5.87,67.55,4.17,9.83,4.46,16.71,12.57,23.35,20.41s13,15.29,21.54,18.14c8.85,2.95,15.6,3.07,20.61.37,5.64-3,9.7-9.84,12.8-21.41.78-2.9,1.48-6.45,2.22-10.21,3.29-16.66,7.8-39.48,26.91-43.73,5.86-1.3,11.06-.47,15.47,2.49,8.58,5.76,11.68,17.67,13.74,29.69.29,1.72.58,3.48.87,5.26,1.78,10.87,3.79,23.18,8.71,32.4,2,3.73,4.21,5.81,6.78,6.36,3.84.82,9.36-1.54,16.41-7,21.07-16.35,54.28-14.73,72.51,3.54,7.41,7.42,11.49,16.85,15.44,26,4.43,10.21,8.6,19.85,17,26.11C384.69,408.41,413,407.83,432.47,406,436.79,405.65,440.87,405.47,444.72,405.47Z"/><path class="cls-1" d="M340.28,299.75c-1.29,0-2.61,0-3.95-.12-34.22-2.16-47.92-33.51-60-61.16-8.33-19.06-16.2-37.06-29.23-43-27.34-12.53-51.1,12.14-72.06,33.9-5,5.21-9.75,10.12-14.33,14.3-33.64,30.67-66.95.27-67.28,0-24.81-22.65-73.73.61-74.22.85a5,5,0,0,1-4.37-9c2.25-1.09,55.51-26.46,85.37.81,1.12,1,27,24.38,53.76,0,4.35-4,9-8.76,13.87-13.85,22.11-23,49.63-51.54,83.43-36.05,16.5,7.56,25.11,27.26,34.22,48.11C297,260.72,308.83,287.87,337,289.65c35,2.2,49.54-30.78,60-66.75,8.12-28,19.62-59.82,43.36-84C456.92,122,476,113.35,497,113.27h0a5,5,0,0,1,0,10c-18.22.07-34.9,7.68-49.58,22.64-22.19,22.59-33.12,53-40.9,79.78C399.5,250,385,299.75,340.28,299.75Z"/><path class="cls-1" d="M79.34,489.28H24.67a5,5,0,0,1-5-5V430.7a5,5,0,0,1,5-5H79.34a5,5,0,0,1,5,5v53.58A5,5,0,0,1,79.34,489.28Zm-49.67-10H74.34V435.7H29.67Z"/><path class="cls-1" d="M161.34,489.28H106.67a5,5,0,0,1-5-5V430.7a5,5,0,0,1,5-5h54.67a5,5,0,0,1,5,5v53.58A5,5,0,0,1,161.34,489.28Zm-49.67-10h44.67V435.7H111.67Z"/></g><g id="Outline"><path class="cls-1" d="M217,292.47H184a5,5,0,0,1,0-10h33a5,5,0,0,1,0,10Z"/><path class="cls-1" d="M344,378.85H17a5,5,0,1,1,0-10H344a5,5,0,0,1,0,10Z"/><path class="cls-1" d="M497,463H193a5,5,0,1,1,0-10H497a5,5,0,0,1,0,10Z"/><path class="cls-1" d="M497,37.72H17a5,5,0,1,1,0-10H497a5,5,0,0,1,0,10Z"/><path class="cls-1" d="M134,123H17a5,5,0,0,1,0-10H134a5,5,0,0,1,0,10Z"/><path class="cls-1" d="M308,123H227a5,5,0,1,1,0-10h81a5,5,0,0,1,0,10Z"/></g></svg>