<?xml version="1.0" ?><svg id="Lines" viewBox="0 0 512 512" xmlns="http://www.w3.org/2000/svg"><defs><style>.cls-1{fill:#3f456b;}</style></defs><title/><path class="cls-1" d="M496.49,283.92H470.88c-6.28,0-11.38-5.73-11.38-12.77V257c0-7,5.1-12.77,11.38-12.77h25.61a5,5,0,0,1,0,10H470.88c-.36,0-1.38.95-1.38,2.77v14.11c0,1.82,1,2.77,1.38,2.77h25.61a5,5,0,0,1,0,10Z"/><path class="cls-1" d="M32,287.71H16.48a5,5,0,0,1,0-10H32c1.38,0,3-2.19,3-5v-17c0-2.82-1.6-5-3-5H17.48a5,5,0,1,1,0-10H32c7.16,0,13,6.72,13,15v17C45,281,39.17,287.71,32,287.71Z"/><path class="cls-1" d="M111.58,371.14A45.12,45.12,0,1,1,156.69,326,45.16,45.16,0,0,1,111.58,371.14Zm0-80.23A35.12,35.12,0,1,0,146.69,326,35.15,35.15,0,0,0,111.58,290.91Z"/><path class="cls-1" d="M111.58,343.62A17.59,17.59,0,1,1,129.17,326,17.62,17.62,0,0,1,111.58,343.62Zm0-25.18a7.59,7.59,0,1,0,7.59,7.58A7.59,7.59,0,0,0,111.58,318.44Z"/><path class="cls-1" d="M396.83,371.14A45.12,45.12,0,1,1,441.94,326,45.16,45.16,0,0,1,396.83,371.14Zm0-80.23A35.12,35.12,0,1,0,431.94,326,35.15,35.15,0,0,0,396.83,290.91Z"/><path class="cls-1" d="M396.83,343.62A17.59,17.59,0,1,1,414.42,326,17.62,17.62,0,0,1,396.83,343.62Zm0-25.18a7.59,7.59,0,1,0,7.59,7.58A7.59,7.59,0,0,0,396.83,318.44Z"/><path class="cls-1" d="M356.72,331h-205a5,5,0,0,1,0-10h205a5,5,0,0,1,0,10Z"/><path class="cls-1" d="M39.23,331c-1.26,0-12.53-.24-20.37-8C14,318.26,11.5,311.74,11.5,303.7V249.86c0-15.75,11.46-32.68,12.57-34.27L52.9,170.4c1.23-2,19.33-30.54,59.6-30.54h176c44.34,0,63.67,31.82,64.47,33.17l24.65,40.53c13.45,1,74,5.49,96.47,8.34,15,1.91,21.71,9.45,24.66,15.43A26.29,26.29,0,0,1,501.46,250V303.7c0,8-2.47,14.56-7.36,19.37-8.16,8.05-20,8-20.55,7.95H441.5a5,5,0,0,1,0-10h32.13c.08,0,8.36,0,13.5-5.12,2.87-2.86,4.33-7,4.33-12.2V249.86c0-.15,0-.3,0-.45.11-1.51.56-15.15-18.65-17.59-24.54-3.11-97.77-8.42-98.51-8.47a5,5,0,0,1-3.91-2.39l-26-42.78c-.72-1.2-17.43-28.32-55.9-28.32h-176c-35.26,0-50.91,25.48-51.06,25.74l-.08.12L32.44,221.05l-.12.19c-.11.15-10.82,15.61-10.82,28.62V303.7c0,5.24,1.46,9.34,4.33,12.2C31,321,39.25,321,39.28,321H71.47a5,5,0,1,1,0,10H39.23Z"/><path class="cls-1" d="M324.76,223.36H90.23c-8,0-12-3.26-14-6-4.63-6.44-2-15-1.66-15.9l0-.15c0-.1,3.85-10.41,8.59-21.64a25.35,25.35,0,0,1,19.2-15.52c.2,0,.4,0,.59,0h208.9c.2,0,.4,0,.6,0a25.35,25.35,0,0,1,19.2,15.52c4.74,11.23,8.55,21.54,8.59,21.64a.88.88,0,0,0,.05.15c.32.95,3,9.46-1.66,15.9C336.74,220.1,332.72,223.36,324.76,223.36ZM84.08,204.68c-.46,1.48-1,5.06.32,6.85,1.1,1.52,3.78,1.83,5.83,1.83H324.76c2.06,0,4.74-.32,5.84-1.85,1.43-2,.62-5.84.31-6.82s-4-10.66-8.38-21.13a15.63,15.63,0,0,0-11-9.45H103.44a15.51,15.51,0,0,0-11,9.45C88.05,194,84.47,203.63,84.08,204.68Z"/><path class="cls-1" d="M246,223.36a5,5,0,0,1-5-5V169.11a5,5,0,0,1,10,0v49.25A5,5,0,0,1,246,223.36Z"/><path class="cls-1" d="M161.5,223.36a5,5,0,0,1-5-5V169.11a5,5,0,0,1,10,0v49.25A5,5,0,0,1,161.5,223.36Z"/><path class="cls-1" d="M256.5,249h-16a5,5,0,0,1,0-10h16a5,5,0,0,1,0,10Z"/><path class="cls-1" d="M158.17,249h-16a5,5,0,0,1,0-10h16a5,5,0,0,1,0,10Z"/><path class="cls-1" d="M80.5,305.36h-64a5,5,0,1,1,0-10h64a5,5,0,0,1,0,10Z"/><path class="cls-1" d="M496.46,305.36H428.25a5,5,0,0,1,0-10h68.21a5,5,0,0,1,0,10Z"/><path class="cls-1" d="M364.75,305.36H142.17a5,5,0,1,1,0-10H364.75a5,5,0,0,1,0,10Z"/></svg>