<?xml version="1.0" ?><svg viewBox="0 0 512 512" xmlns="http://www.w3.org/2000/svg"><defs><style>.cls-1{fill:#3f456b;}</style></defs><title/><g id="Lines"><path class="cls-1" d="M384.88,308.5H128.12c-11.47,0-21.11-7.22-22.92-17.16L78.82,146.65A18.44,18.44,0,0,1,83,131.33,24.16,24.16,0,0,1,101.74,123H411.26A24.15,24.15,0,0,1,430,131.33a18.46,18.46,0,0,1,4.19,15.33L407.8,291.34C406,301.28,396.35,308.5,384.88,308.5ZM101.74,133a14.38,14.38,0,0,0-11,4.74,8.54,8.54,0,0,0-2,7.12L115,289.54c.93,5.11,6.55,9,13.08,9H384.88c6.53,0,12.15-3.85,13.08-9l26.38-144.68a8.54,8.54,0,0,0-2-7.12A14.38,14.38,0,0,0,411.26,133Z"/><path class="cls-1" d="M145.33,133a5,5,0,0,1-4.33-7.48,133,133,0,0,1,231,0,5,5,0,1,1-8.68,5,123,123,0,0,0-213.64,0A5,5,0,0,1,145.33,133Z"/><path class="cls-1" d="M208.5,132.59a5,5,0,0,1-3.75-8.31,69,69,0,0,1,103.5,0,5,5,0,0,1-7.5,6.62,59,59,0,0,0-88.5,0A5,5,0,0,1,208.5,132.59Z"/><path class="cls-1" d="M145.34,133a5,5,0,0,1-5-5V15.5a5,5,0,0,1,10,0V128A5,5,0,0,1,145.34,133Z"/><path class="cls-1" d="M112.5,133a5,5,0,0,1-5-5V15.5a5,5,0,0,1,10,0V128A5,5,0,0,1,112.5,133Z"/><path class="cls-1" d="M400.5,133a5,5,0,0,1-5-5V15.5a5,5,0,0,1,10,0V128A5,5,0,0,1,400.5,133Z"/><path class="cls-1" d="M368.5,133a5,5,0,0,1-5-5V15.5a5,5,0,0,1,10,0V128A5,5,0,0,1,368.5,133Z"/><path class="cls-1" d="M256,502a75.14,75.14,0,0,1-75.06-75.06,20,20,0,0,1,40,0A35.06,35.06,0,1,0,256,391.89a20,20,0,0,1-20-20V335.5a5,5,0,0,1,10,0v36.39a10,10,0,0,0,10,10,45.06,45.06,0,1,1-45.06,45.05,10,10,0,0,0-20,0,65.06,65.06,0,1,0,79-63.55A5,5,0,0,1,266,358.5v-23a5,5,0,0,1,10,0v19.09A75.06,75.06,0,0,1,256,502Z"/><path class="cls-1" d="M342.5,340.5h-172a15,15,0,0,1-15-15v-22a5,5,0,0,1,10,0v22a5,5,0,0,0,5,5h172a5,5,0,0,0,5-5v-22a5,5,0,0,1,10,0v22A15,15,0,0,1,342.5,340.5Z"/><path class="cls-1" d="M139.88,155.12a5,5,0,0,1-3.54-8.53l22.12-22.13a5,5,0,0,1,7.08,7.08l-22.13,22.12A5,5,0,0,1,139.88,155.12Z"/><path class="cls-1" d="M93.07,201.93a5,5,0,0,1-3.54-8.53l22.6-22.6a5,5,0,0,1,7.07,7.07l-22.6,22.6A5,5,0,0,1,93.07,201.93Z"/><path class="cls-1" d="M104.19,260.5a5,5,0,0,1-3.54-8.54l127.5-127.5a5,5,0,0,1,7.07,7.08L107.73,259A5,5,0,0,1,104.19,260.5Z"/><path class="cls-1" d="M125.88,308.5a5,5,0,0,1-3.54-8.54l175.5-175.5a5,5,0,0,1,7.08,7.08L129.42,307A5,5,0,0,1,125.88,308.5Z"/><path class="cls-1" d="M195.57,308.5A5,5,0,0,1,192,300l175.5-175.5a5,5,0,0,1,7.07,7.08L199.1,307A5,5,0,0,1,195.57,308.5Z"/><path class="cls-1" d="M265.26,308.5a5,5,0,0,1-3.54-8.54L425.94,135.75a5,5,0,1,1,7.07,7.07L268.79,307A5,5,0,0,1,265.26,308.5Z"/><path class="cls-1" d="M383.56,259.89a5,5,0,0,1-3.54-8.53l31.54-31.55a5,5,0,1,1,7.07,7.07l-31.54,31.55A5,5,0,0,1,383.56,259.89Z"/><path class="cls-1" d="M335,308.5a5,5,0,0,1-3.54-8.54l25.2-25.19a5,5,0,0,1,7.07,7.07L338.48,307A5,5,0,0,1,335,308.5Z"/><path class="cls-1" d="M130,185.5A21.5,21.5,0,1,1,151.5,164,21.52,21.52,0,0,1,130,185.5Zm0-33A11.5,11.5,0,1,0,141.5,164,11.51,11.51,0,0,0,130,152.5Z"/><path class="cls-1" d="M381,185.5A21.5,21.5,0,1,1,402.5,164,21.52,21.52,0,0,1,381,185.5Zm0-33A11.5,11.5,0,1,0,392.5,164,11.51,11.51,0,0,0,381,152.5Z"/><path class="cls-1" d="M368.5,284.92a21.5,21.5,0,1,1,21.5-21.5A21.52,21.52,0,0,1,368.5,284.92Zm0-33a11.5,11.5,0,1,0,11.5,11.5A11.51,11.51,0,0,0,368.5,251.92Z"/><path class="cls-1" d="M142.25,284.92a21.5,21.5,0,1,1,21.5-21.5A21.52,21.52,0,0,1,142.25,284.92Zm0-33a11.5,11.5,0,1,0,11.5,11.5A11.51,11.51,0,0,0,142.25,251.92Z"/></g><g id="Outline"><path class="cls-1" d="M176.92,94.75a5,5,0,0,1-5-5V15.5a5,5,0,0,1,10,0V89.75A5,5,0,0,1,176.92,94.75Z"/><path class="cls-1" d="M336.5,94.75a5,5,0,0,1-5-5V15.5a5,5,0,0,1,10,0V89.75A5,5,0,0,1,336.5,94.75Z"/></g></svg>