<?xml version="1.0" ?><svg id="Lines" viewBox="0 0 512 512" xmlns="http://www.w3.org/2000/svg"><defs><style>.cls-1{fill:#3f456b;}</style></defs><title/><path class="cls-1" d="M40.5,68.5a29,29,0,1,1,29-29A29,29,0,0,1,40.5,68.5Zm0-48a19,19,0,1,0,19,19A19,19,0,0,0,40.5,20.5Z"/><path class="cls-1" d="M187.5,498.5a29,29,0,0,1-26.3-41.23l9.06,4.22A19,19,0,1,0,206.18,473l9.83,1.84A29,29,0,0,1,187.5,498.5Z"/><path class="cls-1" d="M95.5,330.5a29,29,0,1,1,29-29A29,29,0,0,1,95.5,330.5Zm0-48a19,19,0,1,0,19,19A19,19,0,0,0,95.5,282.5Z"/><rect class="cls-1" height="58.05" transform="translate(-32.51 82.63) rotate(-47.79)" width="10" x="72" y="48.97"/><path class="cls-1" d="M450.94,149.64a5,5,0,0,1-4.57-7c11.36-25.65,16.55-47.72,15-63.82a5,5,0,0,1,10-1c1.73,18.06-3.59,41.21-15.81,68.82A5,5,0,0,1,450.94,149.64Z"/><path class="cls-1" d="M267.12,124.93a5,5,0,0,1-3.06-9c69-53.24,132.68-82,170.35-77a5,5,0,0,1-1.32,9.92c-35.08-4.67-96,23.39-162.92,75A5,5,0,0,1,267.12,124.93Z"/><path class="cls-1" d="M110.06,285.58a5,5,0,0,1-4-7.95A796.34,796.34,0,0,1,186,185c12.75-12.75,25.92-25.12,39.12-36.77a5,5,0,1,1,6.62,7.5c-13,11.51-26.06,23.74-38.66,36.35a785.46,785.46,0,0,0-78.94,91.49A5,5,0,0,1,110.06,285.58Z"/><path class="cls-1" d="M85.65,470.71c-14.56,0-26.07-4.06-34.19-12.17-22.62-22.63-13.05-73.1,26.25-138.46a5,5,0,1,1,8.57,5.15c-36.2,60.21-46.58,107.4-27.74,126.23,14.12,14.13,44.36,12,85.14-6.12a5,5,0,0,1,4,9.15C123.35,465.29,102.47,470.71,85.65,470.71Z"/><path class="cls-1" d="M44.91,184.46a5,5,0,0,1-4.13-2.17C13.61,142.65,6.4,111.07,19.92,91c11.88-17.68,38.49-23.92,77-18,36.11,5.51,80.61,21.18,128.68,45.32a5,5,0,0,1-4.49,8.94c-47.15-23.68-90.61-39-125.7-44.38-33.87-5.16-57.72-.28-67.15,13.75C17.33,112.73,24.73,141.18,49,176.63a5,5,0,0,1-1.3,7A4.92,4.92,0,0,1,44.91,184.46Z"/><path class="cls-1" d="M456.5,84.5a29,29,0,1,1,29-29A29,29,0,0,1,456.5,84.5Zm0-48a19,19,0,1,0,19,19A19,19,0,0,0,456.5,36.5Z"/><path class="cls-1" d="M246.5,163.5a29,29,0,1,1,29-29A29,29,0,0,1,246.5,163.5Zm0-48a19,19,0,1,0,19,19A19,19,0,0,0,246.5,115.5Z"/><path class="cls-1" d="M256.29,483.52A228.13,228.13,0,0,1,95,94.08,228.15,228.15,0,0,1,482.4,225a5,5,0,1,1-9.91,1.32,218,218,0,1,0-164.37,241,5,5,0,1,1,2.37,9.72A229.12,229.12,0,0,1,256.29,483.52Z"/><path class="cls-1" d="M340.81,197.17a5,5,0,0,1-3-1,709.61,709.61,0,0,0-72-47.17,5,5,0,0,1,4.82-8.76,720.12,720.12,0,0,1,73.14,47.9,5,5,0,0,1-3,9Z"/><path class="cls-1" d="M363,503.5h-.68a4.9,4.9,0,0,1-1.69-.3c-38.44-13.85-69.77-35.7-93.12-64.94-19.07-23.88-32.88-52.73-41.06-85.74-6.28-25.37-8.18-53.59-8.26-54.78-2.51-40.85,3-70.67,3.28-71.92a5,5,0,0,1,4.84-4.06c19.91-.26,38.24-2.53,54.49-6.75a203,203,0,0,0,48.14-19.92c20.36-12.6,29.17-25.2,29.26-25.33a5.69,5.69,0,0,1,8.93,0c.08.11,9,12.81,29.53,25.49,19,11.72,52.22,25.83,102.35,26.49a5,5,0,0,1,4.84,4.06c.41,2.17,9.95,53.77-2.15,114.06-7.13,35.58-20.38,66.68-39.38,92.43-23.79,32.27-56.64,56.12-97.63,70.89A4.9,4.9,0,0,1,363,503.5ZM230.6,231.67a326.59,326.59,0,0,0-2.48,65.44c0,.26,1.93,28.52,8,53,7.83,31.6,21,59.16,39.17,81.9,21.9,27.43,51.28,48,87.33,61.28,38.46-14.12,69.28-36.63,91.62-66.92,18.11-24.57,30.77-54.33,37.62-88.46,9.84-49,4.72-93.09,2.77-106.25-28.9-.83-69-6.59-103.82-28.24-14.49-9-23.55-18-28.19-23.28-4.67,5.32-13.82,14.38-28.49,23.47a210.24,210.24,0,0,1-50.86,21.07A236,236,0,0,1,230.6,231.67Z"/><rect class="cls-1" height="325.93" width="10" x="357.48" y="171.5"/><rect class="cls-1" height="10" width="265.95" x="228.94" y="332.86"/></svg>