<?xml version="1.0" ?><svg enable-background="new 0 0 512 512" version="1.1" viewBox="0 0 512 512" xml:space="preserve" xmlns="http://www.w3.org/2000/svg" xmlns:xlink="http://www.w3.org/1999/xlink"><g id="Colors"><g><path d="M265.041,90.314c-1.165,0-2.335-0.404-3.283-1.23c-2.08-1.812-2.299-4.966-0.49-7.048    C261.504,81.761,276,64.63,276,41c0-8.693-2.946-14.823-8.755-18.22c-4.601-2.69-9.437-2.78-9.485-2.78h-2.549    C253.374,20.022,237,20.807,237,41c0,23.703,14.586,40.867,14.734,41.038c1.802,2.087,1.579,5.242-0.504,7.049    c-2.083,1.809-5.231,1.591-7.043-0.488C243.485,87.794,227,68.556,227,41c0-30.646,27.928-31,28.21-31h2.579    c0.282,0,28.21,0.354,28.21,31c0,27.556-16.485,46.794-17.187,47.599C267.824,89.733,266.436,90.314,265.041,90.314z" fill="#3F456B"/></g><g><g><path d="M447.076,289.38c-2.753,0-4.989-2.227-5-4.981c-0.01-2.762,2.22-5.009,4.981-5.019l48.425-0.179     c0.006,0,0.013,0,0.019,0c2.753,0,4.989,2.227,5,4.981c0.01,2.762-2.22,5.009-4.981,5.019l-48.425,0.179     C447.088,289.38,447.082,289.38,447.076,289.38z" fill="#3F456B"/></g></g><g><g><path d="M15.076,289.38c-2.753,0-4.989-2.227-5-4.981c-0.01-2.762,2.22-5.009,4.981-5.019l48.425-0.179     c0.006,0,0.013,0,0.019,0c2.753,0,4.989,2.227,5,4.981c0.01,2.762-2.22,5.009-4.981,5.019l-48.425,0.179     C15.088,289.38,15.082,289.38,15.076,289.38z" fill="#3F456B"/></g></g><g><g><path d="M119.738,153.614c-1.273,0-2.547-0.483-3.522-1.451l-34.368-34.115c-1.96-1.945-1.972-5.111-0.026-7.071     c1.944-1.96,5.111-1.972,7.071-0.026l34.368,34.115c1.96,1.945,1.972,5.111,0.026,7.071     C122.31,153.121,121.024,153.614,119.738,153.614z" fill="#3F456B"/></g></g><g><g><path d="M425.208,459.084c-1.273,0-2.547-0.483-3.522-1.451l-34.368-34.115c-1.96-1.945-1.972-5.111-0.026-7.071     c1.944-1.96,5.111-1.972,7.071-0.026l34.368,34.115c1.96,1.945,1.972,5.111,0.026,7.071     C427.779,458.591,426.494,459.084,425.208,459.084z" fill="#3F456B"/></g></g><g><g><path d="M390.966,153.74c-1.273,0-2.547-0.483-3.522-1.451c-1.96-1.945-1.972-5.111-0.026-7.071l34.115-34.368     c1.944-1.96,5.111-1.972,7.071-0.026s1.972,5.111,0.026,7.071l-34.115,34.368C393.537,153.247,392.251,153.74,390.966,153.74z" fill="#3F456B"/></g></g><g><g><path d="M432.513,215.98c-1.956,0-3.812-1.154-4.614-3.07c-1.066-2.548,0.135-5.477,2.682-6.543l44.671-18.696     c2.544-1.064,5.476,0.135,6.542,2.682c1.066,2.548-0.135,5.477-2.682,6.543l-44.671,18.696     C433.811,215.855,433.156,215.98,432.513,215.98z" fill="#3F456B"/></g></g><g><g><path d="M33.397,381.3c-1.956,0-3.812-1.154-4.614-3.07c-1.066-2.548,0.135-5.477,2.682-6.543l44.67-18.696     c2.548-1.065,5.477,0.135,6.543,2.682c1.066,2.548-0.135,5.477-2.682,6.543l-44.67,18.696     C34.695,381.175,34.041,381.3,33.397,381.3z" fill="#3F456B"/></g></g><g><g><path d="M78.134,215.815c-0.632,0-1.273-0.12-1.894-0.374l-44.809-18.365c-2.555-1.048-3.778-3.968-2.73-6.523     c1.047-2.556,3.968-3.777,6.522-2.73l44.809,18.365c2.555,1.048,3.778,3.968,2.73,6.523     C81.969,214.646,80.103,215.815,78.134,215.815z" fill="#3F456B"/></g></g><g><g><path d="M477.248,381.135c-0.632,0-1.274-0.12-1.895-0.375l-44.807-18.366c-2.555-1.047-3.777-3.967-2.73-6.522     s3.967-3.779,6.523-2.729l44.807,18.366c2.555,1.047,3.777,3.967,2.73,6.522C481.083,379.965,479.217,381.135,477.248,381.135z" fill="#3F456B"/></g></g></g><g id="Lines"><g><g><g><path d="M368.994,133.001c-2.478,0-4.629-1.842-4.953-4.364c-0.065-0.502-5.923-43.072-33.507-45.658      c-2.509-0.235-4.451-2.302-4.531-4.82c-0.08-2.52,1.729-4.704,4.218-5.097C331.58,72.835,364,66.958,364,25c0-2.762,2.239-5,5-5      s5,2.238,5,5c0,26.302-11.384,40.661-20.934,48.074c-2.354,1.828-4.711,3.33-6.955,4.562      c8.326,4.759,15.26,12.999,20.442,24.424c5.745,12.665,7.341,24.797,7.407,25.308c0.35,2.739-1.587,5.243-4.327,5.593      C369.418,132.987,369.205,133.001,368.994,133.001z" fill="#3F456B"/></g><g><path d="M369.006,133.001c-0.211,0-0.424-0.014-0.64-0.041c-2.739-0.35-4.676-2.854-4.327-5.593      c0.065-0.511,1.662-12.643,7.407-25.308c5.182-11.425,12.116-19.665,20.442-24.424c-2.244-1.231-4.601-2.733-6.955-4.562      C375.384,65.661,364,51.302,364,25c0-2.762,2.239-5,5-5s5,2.238,5,5c0,17.867,5.742,31.384,17.066,40.176      c8.253,6.407,16.632,7.872,16.714,7.886c2.489,0.393,4.297,2.577,4.218,5.097c-0.08,2.519-2.021,4.585-4.531,4.82      c-27.694,2.596-33.452,45.225-33.507,45.654C373.638,131.157,371.485,133.001,369.006,133.001z" fill="#3F456B"/></g></g></g><g><path d="M298.673,140.669h-84.711c-2.761,0-5-2.238-5-5v-34.673c0-10.606,8.227-18.915,18.729-18.915h57.14    c10.566,0,18.842,8.309,18.842,18.915v34.673C303.673,138.431,301.435,140.669,298.673,140.669z M218.962,130.669h74.711v-29.673    c0-5.082-3.801-8.915-8.842-8.915h-57.14c-4.977,0-8.729,3.833-8.729,8.915V130.669z" fill="#3F456B"/></g><g><path d="M257.62,499h-2.467c-46.547,0-77.611-71.26-90.069-132.282c-0.552-2.705,1.193-5.347,3.899-5.899    c2.702-0.552,5.346,1.193,5.899,3.899C187.512,426.579,217.23,489,255.153,489h2.467c38.646,0,74.303-66.808,82.134-126.766    c0.358-2.738,2.866-4.662,5.605-4.311c2.738,0.357,4.668,2.867,4.311,5.605c-4.213,32.254-15.725,65.401-31.585,90.942    C300.256,483.187,278.782,499,257.62,499z" fill="#3F456B"/></g><g><path d="M154.993,267c-0.518,0.001-1.046-0.081-1.566-0.254c-0.679-0.225-16.632-5.73-16.756-24.723    c0-27.534,24.118-39.409,25.144-39.901c2.489-1.194,5.476-0.143,6.67,2.348c1.192,2.486,0.146,5.467-2.336,6.664    c-0.853,0.418-19.478,9.785-19.478,30.857c0.075,11.466,8.935,14.921,9.945,15.277c2.587,0.912,3.979,3.746,3.092,6.341    C158.998,265.687,157.069,267,154.993,267z" fill="#3F456B"/></g><g><path d="M159.53,208.03c-0.83-2.641,0.64-5.44,3.27-6.271l0,0c2.64-0.83,5.44,0.63,6.27,3.271l0,0    c0.83,2.63-0.64,5.439-3.27,6.27l0,0c-0.5,0.16-1.01,0.23-1.5,0.23l0,0C162.17,211.53,160.2,210.16,159.53,208.03z M178.61,202.03    c-0.83-2.631,0.64-5.44,3.27-6.271l0,0c2.63-0.83,5.44,0.64,6.27,3.271l0,0c0.83,2.64-0.64,5.439-3.27,6.27l0,0    c-0.5,0.16-1.01,0.23-1.5,0.23l0,0C181.25,205.53,179.28,204.17,178.61,202.03z M197.69,196.03c-0.83-2.631,0.64-5.44,3.27-6.261    l0,0c2.63-0.83,5.44,0.63,6.27,3.271l0,0c0.83,2.63-0.64,5.439-3.27,6.26l0,0c-0.5,0.16-1.01,0.24-1.5,0.24l0,0    C200.33,199.54,198.36,198.17,197.69,196.03z M216.77,190.04c-0.83-2.641,0.64-5.44,3.27-6.271l0,0    c2.63-0.83,5.44,0.641,6.27,3.271l0,0c0.83,2.63-0.64,5.439-3.27,6.27l0,0c-0.5,0.16-1,0.23-1.5,0.23l0,0    C219.41,193.54,217.44,192.17,216.77,190.04z" fill="#3F456B"/></g><g><path d="M158.126,320.181c-0.312,0-0.627-0.029-0.944-0.089c-7.379-1.406-21.333-9.742-21.333-31.228    c0-26.679,17.106-31.01,17.835-31.182l2.29,9.734l0.096-0.024c-0.417,0.117-10.221,3.072-10.221,21.472    c0,18.062,11.9,21.124,13.257,21.414c2.712,0.517,4.467,3.13,3.95,5.842C162.599,318.517,160.482,320.181,158.126,320.181z" fill="#3F456B"/></g><g><path d="M155.02,262.49c-0.83-2.641,0.63-5.44,3.27-6.271l0,0c2.63-0.83,5.44,0.63,6.27,3.26l0,0    c0.83,2.641-0.63,5.44-3.27,6.271l0,0c-0.5,0.16-1,0.24-1.5,0.24l0,0C157.67,265.99,155.69,264.62,155.02,262.49z M174.1,256.479    c-0.83-2.64,0.63-5.449,3.26-6.279l0,0c2.64-0.82,5.44,0.64,6.27,3.27l0,0c0.84,2.63-0.63,5.44-3.26,6.271l0,0    c-0.5,0.159-1.01,0.239-1.5,0.239l0,0C176.74,259.979,174.77,258.609,174.1,256.479z M193.17,250.46    c-0.83-2.63,0.64-5.44,3.27-6.271l0,0c2.63-0.83,5.44,0.641,6.27,3.271l0,0c0.83,2.64-0.63,5.439-3.27,6.27l0,0    c-0.5,0.16-1,0.23-1.5,0.23l0,0C195.82,253.96,193.84,252.6,193.17,250.46z M212.25,244.45c-0.83-2.631,0.63-5.44,3.26-6.271l0,0    c2.64-0.83,5.45,0.64,6.28,3.271l0,0c0.82,2.63-0.64,5.439-3.27,6.27l0,0c-0.5,0.16-1.01,0.23-1.5,0.23l0,0    C214.89,247.95,212.92,246.59,212.25,244.45z M231.32,238.439c-0.83-2.63,0.63-5.439,3.27-6.27l0,0c2.63-0.83,5.44,0.63,6.27,3.27    l0,0c0.83,2.63-0.63,5.44-3.27,6.271l0,0c-0.5,0.16-1,0.229-1.5,0.229l0,0C233.97,241.939,232,240.58,231.32,238.439z     M250.4,232.43c-0.83-2.63,0.63-5.439,3.27-6.27l0,0c2.63-0.83,5.44,0.63,6.27,3.27l0,0c0.83,2.63-0.64,5.44-3.27,6.271l0,0    c-0.5,0.159-1.01,0.229-1.5,0.229l0,0C253.04,235.93,251.07,234.56,250.4,232.43z M269.47,226.42c-0.83-2.63,0.64-5.44,3.27-6.271    l0,0c2.63-0.83,5.44,0.631,6.27,3.271l0,0c0.83,2.63-0.63,5.439-3.26,6.27l0,0c-0.5,0.16-1.01,0.23-1.51,0.23l0,0    C272.12,229.92,270.15,228.56,269.47,226.42z M288.55,220.41c-0.83-2.63,0.63-5.44,3.26-6.271l0,0c2.64-0.83,5.45,0.63,6.28,3.26    l0,0c0.83,2.641-0.63,5.45-3.27,6.28l0,0c-0.5,0.15-1.01,0.23-1.5,0.23l0,0C291.19,223.91,289.22,222.54,288.55,220.41z     M307.62,214.399c-0.83-2.64,0.64-5.439,3.27-6.27l0,0c2.63-0.83,5.44,0.63,6.27,3.26l0,0c0.83,2.641-0.63,5.44-3.26,6.28l0,0    c-0.5,0.149-1.01,0.229-1.51,0.229l0,0C310.27,217.899,308.3,216.53,307.62,214.399z M326.7,208.39    c-0.83-2.64,0.63-5.439,3.27-6.27l0,0c2.63-0.83,5.44,0.63,6.27,3.26l0,0c0.83,2.64-0.64,5.439-3.27,6.27l0,0    c-0.5,0.16-1,0.24-1.5,0.24l0,0C329.34,211.89,327.37,210.52,326.7,208.39z M345.78,202.38c-0.84-2.64,0.63-5.44,3.26-6.271l0,0    c2.64-0.84,5.44,0.631,6.27,3.261l0,0c0.83,2.64-0.63,5.439-3.26,6.27l0,0c-0.5,0.16-1.01,0.24-1.51,0.24l0,0    C348.42,205.88,346.45,204.51,345.78,202.38z" fill="#3F456B"/></g><g><path d="M357.945,256.86c-2.061,0-3.99-1.283-4.715-3.337c-0.912-2.583,0.425-5.414,2.989-6.356    c0.559-0.222,10.706-4.491,10.706-22.444c0-16.279-15.241-18.665-16.979-18.884c-2.73-0.343-4.683-2.829-4.354-5.561    c0.329-2.731,2.783-4.687,5.524-4.37c8.926,1.029,25.808,8.377,25.808,28.814c0,25.448-16.608,31.603-17.315,31.852    C359.059,256.769,358.498,256.86,357.945,256.86z" fill="#3F456B"/></g><g><path d="M350.672,205.622c-0.128,0-0.258-0.005-0.388-0.015c-2.75-0.211-4.81-2.609-4.603-5.359l0,0    c0.157-2.15,3.269-52.756-47.405-60.167c-2.732-0.399-4.624-2.938-4.224-5.671s2.938-4.625,5.671-4.224    c31.352,4.585,44.93,23.723,50.8,38.97c6.242,16.214,5.177,31.218,5.128,31.849C355.451,203.628,353.26,205.622,350.672,205.622z" fill="#3F456B"/></g><g><path d="M163.003,211c-0.068,0-0.137-0.001-0.206-0.004c-2.759-0.112-4.905-2.439-4.793-5.199l0.214-5.279    c0.006-1.605,0.249-15.978,6.621-31.467c8.958-21.775,25.683-35.211,48.368-38.854c2.731-0.437,5.292,1.417,5.729,4.144    c0.438,2.727-1.417,5.292-4.144,5.729c-19.339,3.105-33.035,14.136-40.706,32.784c-5.865,14.257-5.869,27.61-5.869,27.743l0,0.114    l-0.223,5.491C167.887,208.893,165.671,211,163.003,211z" fill="#3F456B"/></g><g><path d="M162.52,313.78c-0.83-2.631,0.63-5.44,3.26-6.271l0,0c2.63-0.84,5.44,0.62,6.27,3.25l0,0    c0.84,2.64-0.62,5.45-3.25,6.28l0,0c-0.5,0.16-1.01,0.229-1.51,0.229l0,0C165.17,317.27,163.2,315.91,162.52,313.78z     M181.59,307.74c-0.84-2.631,0.62-5.44,3.25-6.28l0,0c2.64-0.83,5.45,0.63,6.28,3.26l0,0c0.83,2.63-0.62,5.44-3.26,6.28l0,0    c-0.5,0.16-1.01,0.229-1.51,0.229l0,0C184.23,311.229,182.26,309.87,181.59,307.74z M200.65,301.7    c-0.83-2.631,0.63-5.44,3.26-6.28l0,0c2.63-0.83,5.44,0.63,6.28,3.26l0,0c0.83,2.63-0.63,5.44-3.26,6.28l0,0    c-0.5,0.149-1.01,0.229-1.51,0.229l0,0C203.3,305.189,201.33,303.83,200.65,301.7z M219.72,295.66c-0.84-2.63,0.62-5.44,3.25-6.28    l0,0c2.64-0.83,5.45,0.63,6.28,3.26l0,0c0.84,2.63-0.62,5.44-3.25,6.271l0,0c-0.51,0.159-1.02,0.239-1.52,0.239l0,0    C222.36,299.149,220.39,297.79,219.72,295.66z M238.78,289.62c-0.83-2.63,0.63-5.45,3.26-6.28l0,0c2.63-0.83,5.44,0.62,6.28,3.26    l0,0c0.83,2.63-0.63,5.44-3.26,6.271l0,0c-0.5,0.16-1.01,0.239-1.51,0.239l0,0C241.43,293.109,239.46,291.75,238.78,289.62z     M257.85,283.58c-0.83-2.641,0.62-5.45,3.26-6.28l0,0c2.63-0.83,5.44,0.62,6.27,3.26l0,0c0.84,2.63-0.62,5.44-3.25,6.271l0,0    c-0.51,0.16-1.01,0.239-1.51,0.239l0,0C260.49,287.069,258.52,285.71,257.85,283.58z M276.92,277.53    c-0.84-2.631,0.62-5.44,3.25-6.271l0,0c2.64-0.84,5.44,0.62,6.28,3.25l0,0c0.83,2.64-0.63,5.45-3.26,6.28l0,0    c-0.5,0.16-1.01,0.229-1.51,0.229l0,0C279.56,281.02,277.59,279.66,276.92,277.53z M295.98,271.49    c-0.83-2.631,0.63-5.44,3.26-6.271l0,0c2.63-0.84,5.44,0.62,6.27,3.25l0,0c0.84,2.63-0.62,5.44-3.25,6.28l0,0    c-0.5,0.16-1.01,0.229-1.51,0.229l0,0C298.63,274.979,296.66,273.62,295.98,271.49z M315.05,265.45    c-0.84-2.631,0.62-5.44,3.25-6.271l0,0c2.64-0.84,5.45,0.62,6.28,3.25l0,0c0.83,2.63-0.62,5.44-3.26,6.28l0,0    c-0.5,0.16-1.01,0.229-1.51,0.229l0,0C317.69,268.939,315.72,267.58,315.05,265.45z M334.11,259.41    c-0.83-2.63,0.63-5.44,3.26-6.28l0,0c2.63-0.83,5.44,0.63,6.28,3.26l0,0c0.83,2.63-0.63,5.44-3.26,6.28l0,0    c-0.5,0.16-1.01,0.229-1.51,0.229l0,0C336.76,262.899,334.79,261.54,334.11,259.41z M353.18,253.37    c-0.83-2.63,0.62-5.44,3.25-6.28l0,0c2.64-0.83,5.45,0.63,6.28,3.26l0,0c0.84,2.63-0.62,5.44-3.25,6.28l0,0    c-0.51,0.15-1.02,0.229-1.52,0.229l0,0C355.82,256.859,353.85,255.5,353.18,253.37z" fill="#3F456B"/></g><g><path d="M357.127,310.312c-1.762,0-3.471-0.934-4.382-2.586c-1.327-2.404-0.465-5.426,1.923-6.771    c0.59-0.344,12.359-7.493,12.359-28.537c-0.079-11.94-10.639-15.806-10.746-15.844c-2.604-0.919-3.97-3.774-3.051-6.379    c0.918-2.604,3.775-3.973,6.379-3.051c0.706,0.249,17.293,6.32,17.418,25.24c0,27.341-16.775,36.91-17.489,37.305    C358.772,310.112,357.944,310.312,357.127,310.312z" fill="#3F456B"/></g><g><path d="M164.86,366.02c-0.83-2.63,0.63-5.439,3.26-6.27l0,0c2.64-0.83,5.44,0.63,6.28,3.26l0,0    c0.83,2.64-0.63,5.45-3.27,6.28l0,0c-0.5,0.149-1,0.229-1.5,0.229l0,0C167.5,369.52,165.54,368.16,164.86,366.02z M183.93,360    c-0.83-2.63,0.63-5.44,3.27-6.271l0,0c2.63-0.83,5.44,0.63,6.27,3.261l0,0c0.83,2.63-0.63,5.439-3.26,6.27l0,0    c-0.5,0.16-1.01,0.24-1.51,0.24l0,0C186.58,363.5,184.61,362.13,183.93,360z M203.01,353.979c-0.84-2.63,0.62-5.439,3.26-6.27l0,0    c2.63-0.84,5.44,0.62,6.27,3.26l0,0c0.83,2.63-0.63,5.44-3.26,6.271l0,0c-0.5,0.159-1.01,0.229-1.51,0.229l0,0    C205.65,357.47,203.68,356.109,203.01,353.979z M222.08,347.96c-0.83-2.641,0.63-5.44,3.26-6.28l0,0    c2.63-0.83,5.44,0.63,6.27,3.26l0,0c0.83,2.641-0.63,5.45-3.26,6.28l0,0c-0.5,0.16-1.01,0.23-1.51,0.23l0,0    C224.72,351.45,222.75,350.09,222.08,347.96z M241.15,341.93c-0.83-2.63,0.63-5.439,3.26-6.27l0,0c2.63-0.83,5.44,0.63,6.28,3.26    l0,0c0.83,2.64-0.63,5.439-3.27,6.28l0,0c-0.5,0.149-1,0.229-1.5,0.229l0,0C243.79,345.43,241.82,344.069,241.15,341.93z     M260.22,335.91c-0.83-2.63,0.63-5.44,3.26-6.271l0,0c2.63-0.83,5.45,0.63,6.28,3.26l0,0c0.83,2.631-0.63,5.44-3.27,6.271l0,0    c-0.5,0.16-1.01,0.24-1.5,0.24l0,0C262.86,339.41,260.89,338.04,260.22,335.91z M279.29,329.89c-0.83-2.63,0.63-5.439,3.26-6.28    l0,0c2.64-0.829,5.45,0.631,6.28,3.271l0,0c0.83,2.63-0.63,5.439-3.27,6.27l0,0c-0.5,0.16-1,0.24-1.5,0.24l0,0    C281.94,333.39,279.96,332.02,279.29,329.89z M298.36,323.859c-0.83-2.63,0.63-5.439,3.27-6.27l0,0c2.63-0.83,5.44,0.63,6.27,3.26    l0,0c0.83,2.641-0.63,5.45-3.26,6.28l0,0c-0.5,0.16-1.01,0.229-1.51,0.229l0,0C301.01,327.359,299.04,326,298.36,323.859z     M317.44,317.84c-0.84-2.63,0.62-5.44,3.26-6.271l0,0c2.63-0.829,5.44,0.631,6.27,3.261l0,0c0.83,2.64-0.63,5.439-3.26,6.279l0,0    c-0.5,0.15-1.01,0.23-1.51,0.23l0,0C320.08,321.34,318.11,319.979,317.44,317.84z M336.51,311.819    c-0.83-2.63,0.63-5.439,3.26-6.27l0,0c2.63-0.83,5.44,0.63,6.27,3.26l0,0c0.83,2.63-0.63,5.44-3.26,6.271l0,0    c-0.5,0.16-1.01,0.239-1.51,0.239l0,0C339.15,315.319,337.18,313.95,336.51,311.819z" fill="#3F456B"/></g><g><path d="M169.634,369.521c-0.262,0-0.527-0.021-0.794-0.063c-8.567-1.371-24.768-9.666-24.768-31.252    c0-23.693,11.427-27.494,12.73-27.85l2.631,9.648c0,0,0.108-0.016,0.291-0.094c-0.056,0.024-5.652,2.593-5.652,18.295    c0,7.707,2.662,13.602,7.911,17.522c4.125,3.08,8.425,3.853,8.468,3.86c2.708,0.469,4.546,3.039,4.094,5.751    C174.138,367.783,172.034,369.521,169.634,369.521z" fill="#3F456B"/></g><g><path d="M345.613,367.054c-1.864,0-3.653-1.047-4.512-2.84c-1.192-2.487-0.145-5.468,2.337-6.665    c0.872-0.427,19.477-9.796,19.477-30.856c-0.075-11.353-9.315-14.578-10.368-14.908c-2.619-0.821-4.108-3.605-3.31-6.231    s3.541-4.126,6.175-3.349c6.01,1.77,17.402,9.158,17.503,24.455c0,27.535-24.118,39.41-25.145,39.902    C347.074,366.896,346.338,367.054,345.613,367.054z" fill="#3F456B"/></g><g><path d="M283.28,381.64c-0.83-2.63,0.63-5.439,3.27-6.27l0,0c2.63-0.82,5.44,0.64,6.27,3.27l0,0    c0.82,2.641-0.64,5.45-3.27,6.271l0,0c-0.5,0.159-1.01,0.229-1.5,0.229l0,0C285.92,385.14,283.95,383.78,283.28,381.64z     M302.36,375.649c-0.83-2.64,0.63-5.449,3.27-6.27l0,0c2.63-0.83,5.44,0.63,6.26,3.27l0,0c0.83,2.631-0.63,5.44-3.26,6.271l0,0    c-0.5,0.149-1.01,0.229-1.5,0.229l0,0C305,379.149,303.03,377.78,302.36,375.649z M321.44,369.649    c-0.83-2.64,0.63-5.439,3.27-6.27l0,0c2.63-0.83,5.44,0.64,6.27,3.27l0,0c0.82,2.631-0.64,5.44-3.27,6.271l0,0    c-0.5,0.16-1.01,0.229-1.51,0.229l0,0C324.08,373.149,322.11,371.78,321.44,369.649z M340.52,363.649    c-0.83-2.63,0.63-5.439,3.27-6.27l0,0c2.63-0.82,5.44,0.64,6.27,3.27l0,0c0.82,2.641-0.64,5.45-3.28,6.271l0,0    c-0.49,0.16-1,0.24-1.5,0.24l0,0C343.16,367.16,341.19,365.79,340.52,363.649z" fill="#3F456B"/></g><g><g><g><path d="M116.994,485.001c-2.478,0-4.629-1.842-4.953-4.364c-0.065-0.502-5.923-43.072-33.507-45.658      c-2.509-0.235-4.451-2.302-4.531-4.82c-0.08-2.52,1.729-4.704,4.218-5.097C79.58,424.835,112,418.958,112,377      c0-2.762,2.239-5,5-5s5,2.238,5,5c0,26.302-11.384,40.661-20.934,48.074c-2.354,1.828-4.711,3.33-6.955,4.562      c8.326,4.759,15.26,12.999,20.442,24.424c5.745,12.665,7.341,24.797,7.407,25.308c0.35,2.739-1.587,5.243-4.327,5.593      C117.418,484.987,117.205,485.001,116.994,485.001z" fill="#3F456B"/></g><g><path d="M117.006,485.001c-0.211,0-0.424-0.014-0.64-0.041c-2.739-0.35-4.676-2.854-4.327-5.593      c0.065-0.511,1.662-12.643,7.407-25.308c5.182-11.425,12.116-19.665,20.442-24.424c-2.244-1.231-4.601-2.733-6.955-4.562      C123.384,417.661,112,403.302,112,377c0-2.762,2.239-5,5-5s5,2.238,5,5c0,17.867,5.742,31.384,17.066,40.176      c8.253,6.407,16.632,7.872,16.714,7.886c2.489,0.393,4.297,2.577,4.218,5.097c-0.08,2.519-2.021,4.585-4.531,4.82      c-27.694,2.596-33.452,45.225-33.507,45.654C121.638,483.157,119.485,485.001,117.006,485.001z" fill="#3F456B"/></g></g></g></g></svg>