<?xml version="1.0" ?><svg viewBox="0 0 512 512" xmlns="http://www.w3.org/2000/svg"><defs><style>.cls-1{fill:#3f456b;}</style></defs><title/><g id="Lines"><path class="cls-1" d="M13,260a5,5,0,0,1-5-5c0-11.23,0-37.54,7.69-65,9.76-34.88,28.31-59.19,55.12-72.28,35.77-17.45,92.29-24,133.4-26.37a5,5,0,1,1,.58,10c-40.2,2.35-95.31,8.65-129.6,25.38C37.24,145.23,18,188.39,18,255A5,5,0,0,1,13,260Z"/><path class="cls-1" d="M499,260a5,5,0,0,1-5-5c0-15.47,0-62.54-22.69-97.35a5,5,0,0,1,8.38-5.45C504,189.49,504,238.8,504,255A5,5,0,0,1,499,260Z"/><path class="cls-1" d="M59.08,384.34a5,5,0,0,1-3-1c-20.57-15.24-34.77-38.89-42.21-70.3C8,288.19,8,264.93,8,255a5,5,0,0,1,10,0c0,58.18,14.82,98.66,44.06,120.33a5,5,0,0,1-3,9Z"/><path class="cls-1" d="M310.25,418.49a5,5,0,0,1-.3-10c39.27-2.43,93.15-8.78,126.83-25.21,38-18.52,57.2-61.68,57.2-128.29a5,5,0,0,1,10,0c0,11.23,0,37.54-7.69,65-9.76,34.88-28.31,59.19-55.12,72.28C406,409.43,350.74,416,310.57,418.48Z"/><path class="cls-1" d="M222,501a55.39,55.39,0,0,1-51.7-36.24,42,42,0,0,1-52.1-9.34,51,51,0,1,1,22.37-68.36,42.69,42.69,0,0,1,6.93-1v-.57a39.5,39.5,0,1,1,78.6,5.65,54.47,54.47,0,0,1,30.49,12.08A33,33,0,1,1,283,456a32.67,32.67,0,0,1-6.79-.7A55,55,0,0,1,222,501Zm-48.82-49.17a5,5,0,0,1,4.88,3.92,45,45,0,0,0,88.87-7.3,5,5,0,0,1,7-4.32A23,23,0,1,0,283,400a23.12,23.12,0,0,0-20.78,13.14,5,5,0,0,1-8.09,1.36A44.66,44.66,0,0,0,222,401c-.65,0-1.3,0-1.94,0a5,5,0,0,1-4.19-2,5,5,0,0,1-.78-4.56,29.5,29.5,0,1,0-57.59-9,30,30,0,0,0,.39,4.81,5,5,0,0,1-5.34,5.79,32.29,32.29,0,0,0-13.13,1.68,5,5,0,0,1-6.29-2.88,41,41,0,1,0-16.3,49.8,5,5,0,0,1,6.79,1.4A32,32,0,0,0,150,460a31.59,31.59,0,0,0,20-7.06A5,5,0,0,1,173.18,451.83Z"/><path class="cls-1" d="M262,361a30,30,0,1,1,30-30A30,30,0,0,1,262,361Zm0-50a20,20,0,1,0,20,20A20,20,0,0,0,262,311Z"/><path class="cls-1" d="M69.5,100A33.5,33.5,0,1,1,103,66.5,33.54,33.54,0,0,1,69.5,100Zm0-57A23.5,23.5,0,1,0,93,66.5,23.52,23.52,0,0,0,69.5,43Z"/><path class="cls-1" d="M328,166a39.54,39.54,0,0,1-39.1-45.15,54.47,54.47,0,0,1-30.49-12.08A33,33,0,1,1,232,56a32.67,32.67,0,0,1,6.79.7,55,55,0,0,1,105.92-9.46,42,42,0,0,1,34.69-2.7A5,5,0,0,1,376,53.93,31.92,31.92,0,0,0,365,52a31.59,31.59,0,0,0-20,7.06,5,5,0,0,1-8-2.81,45,45,0,0,0-88.87,7.3,5,5,0,0,1-7,4.32A23,23,0,1,0,232,112a23.12,23.12,0,0,0,20.78-13.14,5,5,0,0,1,8.09-1.36A44.66,44.66,0,0,0,293,111c.65,0,1.3,0,1.94,0a5,5,0,0,1,5,6.52,29.5,29.5,0,1,0,57.59,9,30,30,0,0,0-.39-4.81,5,5,0,0,1,5.34-5.79,32.49,32.49,0,0,0,13.13-1.68,5,5,0,0,1,6.29,2.88A40.8,40.8,0,0,0,420,143a41.21,41.21,0,0,0,19.09-4.7,5,5,0,0,1,6.85,2.28,20,20,0,1,0,19.44-28.53,5,5,0,0,1-4.63-5.56A38.23,38.23,0,0,0,461,102a41,41,0,0,0-28-38.89,5,5,0,1,1,3.17-9.48A51,51,0,0,1,471,102c0,.28,0,.55,0,.82a30,30,0,1,1-31.58,46.35,51,51,0,0,1-65-24.23,42.69,42.69,0,0,1-6.93,1v.57A39.55,39.55,0,0,1,328,166Z"/><path class="cls-1" d="M405,93a34,34,0,1,1,34-34A34,34,0,0,1,405,93Zm0-58a24,24,0,1,0,24,24A24,24,0,0,0,405,35Z"/><path class="cls-1" d="M384.5,210A25.5,25.5,0,1,1,410,184.5,25.53,25.53,0,0,1,384.5,210Zm0-41A15.5,15.5,0,1,0,400,184.5,15.51,15.51,0,0,0,384.5,169Z"/><path class="cls-1" d="M431,475a31,31,0,1,1,31-31A31,31,0,0,1,431,475Zm0-52a21,21,0,1,0,21,21A21,21,0,0,0,431,423Z"/><path class="cls-1" d="M197,411a5,5,0,0,1-3.36-8.7C205.93,391.13,221.35,391,222,391a5,5,0,0,1,0,10c-.18,0-12.33.22-21.66,8.7A5,5,0,0,1,197,411Z"/><path class="cls-1" d="M297.42,121.14c-2.3,0-3.76-.15-4-.17a5,5,0,0,1,1.09-9.94c.21,0,16.11,1.56,27.23-7.85a5,5,0,0,1,6.46,7.64C317.5,119.9,304,121.14,297.42,121.14Z"/></g><g id="Outline"><path class="cls-1" d="M342,288a5,5,0,1,1,0-10h0a5,5,0,0,1,0,10Zm-20,0h-1a5,5,0,0,1,0-10h1a5,5,0,0,1,0,10Zm-21,0h-1a5,5,0,0,1,0-10h1a5,5,0,0,1,0,10Zm-21,0h-1a5,5,0,0,1,0-10h1a5,5,0,0,1,0,10Zm-21,0h-1a5,5,0,0,1,0-10h1a5,5,0,0,1,0,10Zm-21,0h-1a5,5,0,0,1,0-10h1a5,5,0,0,1,0,10Zm-21,0h-1a5,5,0,0,1,0-10h1a5,5,0,0,1,0,10Zm-21,0h-1a5,5,0,0,1,0-10h1a5,5,0,0,1,0,10Zm-21,0h-1a5,5,0,0,1,0-10h1a5,5,0,0,1,0,10Z"/><path class="cls-1" d="M265.06,262a37.19,37.19,0,0,1-9.74-1.31c-8.14-2.2-14.56-7.17-20.77-12-7.85-6.06-14.62-11.29-23.75-10.61C197.93,239.1,190.38,251,187,258a5,5,0,0,1-9-4.34c7.42-15.42,18.79-24.46,32-25.47,13-1,22.34,6.27,30.62,12.67,5.69,4.39,11.06,8.54,17.28,10.23a26.77,26.77,0,0,0,18.29-1.36,41.22,41.22,0,0,1-5.46-4.8c-7.77-8.21-10.49-18.54-7.46-28.35,3.48-11.22,10.82-18.46,20.14-19.84a20.71,20.71,0,0,1,20.32,9.06c5.92,8.76,5.23,20.78-1.91,33a53.6,53.6,0,0,1-6.73,9.19c9.53,2.92,21.91,3.71,36.56,0a5,5,0,0,1,2.44,9.7c-17.24,4.34-34.35,3.34-47.71-2.25A38.73,38.73,0,0,1,265.06,262Zm21.43-55.53a11.84,11.84,0,0,0-1.57.11c-5.37.8-9.76,5.5-12.05,12.91-2,6.35-.14,12.92,5.16,18.51a33,33,0,0,0,7.25,5.64,43.23,43.23,0,0,0,8-10c5.12-8.75,5.94-16.9,2.26-22.34A10.87,10.87,0,0,0,286.49,206.48Z"/></g></svg>