<?xml version="1.0" ?><svg enable-background="new 0 0 512 512" version="1.1" viewBox="0 0 512 512" xml:space="preserve" xmlns="http://www.w3.org/2000/svg" xmlns:xlink="http://www.w3.org/1999/xlink"><g id="Colors"><g><path d="M130,499c-2.761,0-5-2.239-5-5V14c0-2.761,2.239-5,5-5s5,2.239,5,5v480C135,496.761,132.761,499,130,499z" fill="#3F456B"/></g><g><path d="M385,499c-2.762,0-5-2.239-5-5V14c0-2.761,2.238-5,5-5s5,2.239,5,5v480C390,496.761,387.762,499,385,499z" fill="#3F456B"/></g><g><path d="M385,132H132c-2.761,0-5-2.239-5-5s2.239-5,5-5h253c2.762,0,5,2.239,5,5S387.762,132,385,132z" fill="#3F456B"/></g><g><path d="M385,388H131c-2.761,0-5-2.239-5-5s2.239-5,5-5h254c2.762,0,5,2.239,5,5S387.762,388,385,388z" fill="#3F456B"/></g><g><path d="M257,388c-2.762,0-5-2.239-5-5V127c0-2.761,2.238-5,5-5s5,2.239,5,5v256C262,385.761,259.762,388,257,388z    " fill="#3F456B"/></g></g><g id="Lines"><g><path d="M449,499H65c-2.761,0-5-2.239-5-5V14c0-2.761,2.239-5,5-5h384c2.762,0,5,2.239,5,5v480    C454,496.761,451.762,499,449,499z M70,489h374V19H70V489z" fill="#3F456B"/></g><g><path d="M465,259H50c-2.761,0-5-2.239-5-5s2.239-5,5-5h415c2.762,0,5,2.239,5,5S467.762,259,465,259z" fill="#3F456B"/></g><g><path d="M481.5,275c-11.579,0-21-9.42-21-21s9.421-21,21-21s21,9.42,21,21S493.079,275,481.5,275z M481.5,243    c-6.065,0-11,4.935-11,11s4.935,11,11,11s11-4.935,11-11S487.565,243,481.5,243z" fill="#3F456B"/></g><g><path d="M33.5,275c-11.58,0-21-9.42-21-21s9.42-21,21-21s21,9.42,21,21S45.08,275,33.5,275z M33.5,243    c-6.065,0-11,4.935-11,11s4.935,11,11,11s11-4.935,11-11S39.565,243,33.5,243z" fill="#3F456B"/></g></g></svg>