<?xml version="1.0" ?><svg id="Lines" viewBox="0 0 512 512" xmlns="http://www.w3.org/2000/svg"><defs><style>.cls-1{fill:#3f456b;}</style></defs><title/><path class="cls-1" d="M272,189H242a5,5,0,0,1-5-5V107a5,5,0,0,1,5-5h30a5,5,0,0,1,5,5v77A5,5,0,0,1,272,189Zm-25-10h20V112H247Z"/><path class="cls-1" d="M286,147H228a5,5,0,0,1,0-10h58a5,5,0,0,1,0,10Z"/><path class="cls-1" d="M72.67,405H59a15,15,0,0,1-15-15V303.5a5,5,0,0,1,10,0V390a5,5,0,0,0,5,5H72.67a5,5,0,1,1,0,10Z"/><path class="cls-1" d="M454,405H440.54a5,5,0,1,1,0-10H454a5,5,0,0,0,5-5V303.5a5,5,0,0,1,10,0V390A15,15,0,0,1,454,405Z"/><path class="cls-1" d="M464,188.5a5,5,0,0,1-5-5V26a5,5,0,0,0-5-5H59a5,5,0,0,0-5,5V183.25a5,5,0,0,1-10,0V26A15,15,0,0,1,59,11H454a15,15,0,0,1,15,15V183.5A5,5,0,0,1,464,188.5Z"/><path class="cls-1" d="M454,357H59a15,15,0,0,1-15-15,5,5,0,0,1,10,0,5,5,0,0,0,5,5H454a5,5,0,0,0,5-5,5,5,0,0,1,10,0A15,15,0,0,1,454,357Z"/><path class="cls-1" d="M464,78a5,5,0,0,1-5-5,5,5,0,0,0-5-5H59a5,5,0,0,0-5,5,5,5,0,0,1-10,0A15,15,0,0,1,59,58H454a15,15,0,0,1,15,15A5,5,0,0,1,464,78Z"/><path class="cls-1" d="M321,213H192a5,5,0,0,1,0-10H321a5,5,0,0,1,0,10Z"/><path class="cls-1" d="M440,500H73a5,5,0,0,1-5-5V376a5,5,0,0,1,5-5H440a5,5,0,0,1,5,5V495A5,5,0,0,1,440,500ZM78,490H435V381H78Z"/><path class="cls-1" d="M440,478H73a5,5,0,0,1,0-10H440a5,5,0,0,1,0,10Z"/><path class="cls-1" d="M192,308H16a5,5,0,0,1-5-5V184a5,5,0,0,1,5-5H192a5,5,0,0,1,5,5V303A5,5,0,0,1,192,308ZM21,298H187V189H21Z"/><path class="cls-1" d="M192,286H16a5,5,0,0,1,0-10H192a5,5,0,0,1,0,10Z"/><path class="cls-1" d="M497,308H321a5,5,0,0,1-5-5V184a5,5,0,0,1,5-5H497a5,5,0,0,1,5,5V303A5,5,0,0,1,497,308ZM326,298H492V189H326Z"/><path class="cls-1" d="M497,286H321a5,5,0,0,1,0-10H497a5,5,0,0,1,0,10Z"/><path class="cls-1" d="M161,357a5,5,0,0,1-4.19-2.27l-32-49a5,5,0,0,1,8.38-5.46l32,49A5,5,0,0,1,161,357Z"/><path class="cls-1" d="M353,357a5,5,0,0,1-4.19-7.73l32-49a5,5,0,1,1,8.38,5.46l-32,49A5,5,0,0,1,353,357Z"/><path class="cls-1" d="M134.17,478a5,5,0,0,1-5-5V376a5,5,0,0,1,10,0v97A5,5,0,0,1,134.17,478Z"/><path class="cls-1" d="M256.5,478a5,5,0,0,1-5-5V376a5,5,0,0,1,10,0v97A5,5,0,0,1,256.5,478Z"/><path class="cls-1" d="M317.67,478a5,5,0,0,1-5-5V376a5,5,0,0,1,10,0v97A5,5,0,0,1,317.67,478Z"/><path class="cls-1" d="M378.83,478a5,5,0,0,1-5-5V376a5,5,0,0,1,10,0v97A5,5,0,0,1,378.83,478Z"/><path class="cls-1" d="M195.33,478a5,5,0,0,1-5-5V376a5,5,0,0,1,10,0v97A5,5,0,0,1,195.33,478Z"/><path class="cls-1" d="M440,430H73a5,5,0,0,1,0-10H440a5,5,0,0,1,0,10Z"/><path class="cls-1" d="M113,356a5,5,0,0,1-5-5V304a5,5,0,0,1,10,0v47A5,5,0,0,1,113,356Z"/><path class="cls-1" d="M256.5,356a5,5,0,0,1-5-5V208a5,5,0,0,1,10,0V351A5,5,0,0,1,256.5,356Z"/><path class="cls-1" d="M328.25,356a5,5,0,0,1-5-5V304a5,5,0,0,1,10,0v47A5,5,0,0,1,328.25,356Z"/><path class="cls-1" d="M400,356a5,5,0,0,1-5-5V304a5,5,0,0,1,10,0v47A5,5,0,0,1,400,356Z"/><path class="cls-1" d="M184.75,356a5,5,0,0,1-5-5V304a5,5,0,0,1,10,0v47A5,5,0,0,1,184.75,356Z"/><path class="cls-1" d="M321,260H192a5,5,0,0,1,0-10H321a5,5,0,0,1,0,10Z"/><path class="cls-1" d="M321,308H192a5,5,0,0,1,0-10H321a5,5,0,0,1,0,10Z"/><path class="cls-1" d="M64.5,230.66C42,230.66,28,223.45,28,211.83c0-7,4.74-18.83,36.5-18.83,22.17,0,36.5,7.39,36.5,18.83C101,223.45,87,230.66,64.5,230.66Zm0-27.66c-15.85,0-26.5,3.55-26.5,8.83,0,5.53,13.47,8.83,26.5,8.83s26.5-3.3,26.5-8.83C91,207.58,80.87,203,64.5,203Z"/><path class="cls-1" d="M144.5,230.66c-22.51,0-36.5-7.21-36.5-18.83,0-7,4.74-18.83,36.5-18.83,22.17,0,36.5,7.39,36.5,18.83C181,223.45,167,230.66,144.5,230.66Zm0-27.66c-15.85,0-26.5,3.55-26.5,8.83,0,5.53,13.47,8.83,26.5,8.83s26.5-3.3,26.5-8.83C171,207.58,160.87,203,144.5,203Z"/><path class="cls-1" d="M64.5,271.66C42,271.66,28,264.45,28,252.83c0-7,4.74-18.83,36.5-18.83,22.17,0,36.5,7.39,36.5,18.83C101,264.45,87,271.66,64.5,271.66Zm0-27.66c-15.85,0-26.5,3.55-26.5,8.83,0,5.53,13.47,8.83,26.5,8.83s26.5-3.3,26.5-8.83C91,248.58,80.87,244,64.5,244Z"/><path class="cls-1" d="M144.5,271.66c-22.51,0-36.5-7.21-36.5-18.83,0-7,4.74-18.83,36.5-18.83,22.17,0,36.5,7.39,36.5,18.83C181,264.45,167,271.66,144.5,271.66Zm0-27.66c-15.85,0-26.5,3.55-26.5,8.83,0,5.53,13.47,8.83,26.5,8.83s26.5-3.3,26.5-8.83C171,248.58,160.87,244,144.5,244Z"/><path class="cls-1" d="M370.5,230.66c-22.51,0-36.5-7.21-36.5-18.83,0-7,4.74-18.83,36.5-18.83,22.17,0,36.5,7.39,36.5,18.83C407,223.45,393,230.66,370.5,230.66Zm0-27.66c-15.85,0-26.5,3.55-26.5,8.83,0,5.53,13.47,8.83,26.5,8.83s26.5-3.3,26.5-8.83C397,207.58,386.87,203,370.5,203Z"/><path class="cls-1" d="M450.5,230.66c-22.51,0-36.5-7.21-36.5-18.83,0-7,4.74-18.83,36.5-18.83,22.17,0,36.5,7.39,36.5,18.83C487,223.45,473,230.66,450.5,230.66Zm0-27.66c-15.85,0-26.5,3.55-26.5,8.83,0,5.53,13.47,8.83,26.5,8.83s26.5-3.3,26.5-8.83C477,207.58,466.87,203,450.5,203Z"/><path class="cls-1" d="M370.5,271.66c-22.51,0-36.5-7.21-36.5-18.83,0-7,4.74-18.83,36.5-18.83,22.17,0,36.5,7.39,36.5,18.83C407,264.45,393,271.66,370.5,271.66Zm0-27.66c-15.85,0-26.5,3.55-26.5,8.83,0,5.53,13.47,8.83,26.5,8.83s26.5-3.3,26.5-8.83C397,248.58,386.87,244,370.5,244Z"/><path class="cls-1" d="M450.5,271.66c-22.51,0-36.5-7.21-36.5-18.83,0-7,4.74-18.83,36.5-18.83,22.17,0,36.5,7.39,36.5,18.83C487,264.45,473,271.66,450.5,271.66Zm0-27.66c-15.85,0-26.5,3.55-26.5,8.83,0,5.53,13.47,8.83,26.5,8.83s26.5-3.3,26.5-8.83C477,248.58,466.87,244,450.5,244Z"/><path class="cls-1" d="M192,68a5,5,0,0,1-5-5V49a5,5,0,0,0-5-5H138a5,5,0,0,0-5,5V63a5,5,0,0,1-10,0V49a15,15,0,0,1,15-15h44a15,15,0,0,1,15,15V63A5,5,0,0,1,192,68Z"/><path class="cls-1" d="M385,68a5,5,0,0,1-5-5V49a5,5,0,0,0-5-5H331a5,5,0,0,0-5,5V63a5,5,0,0,1-10,0V49a15,15,0,0,1,15-15h44a15,15,0,0,1,15,15V63A5,5,0,0,1,385,68Z"/><path class="cls-1" d="M272,112h-.21a5,5,0,0,1-4.79-5.21c.12-3.17-.46-12.37-4.53-16.6a7.91,7.91,0,0,0-11,0c-4.08,4.25-4.65,13.63-4.52,16.58a5,5,0,0,1-10,.42c-.06-1.6-.42-15.87,7.3-23.93a17.91,17.91,0,0,1,25.4,0c7.72,8.06,7.36,22.33,7.3,23.93A5,5,0,0,1,272,112Z"/><path class="cls-1" d="M351,189H321a5,5,0,0,1-5-5V107a5,5,0,0,1,5-5h30a5,5,0,0,1,5,5v77A5,5,0,0,1,351,189Zm-25-10h20V112H326Z"/><path class="cls-1" d="M365,147H307a5,5,0,0,1,0-10h58a5,5,0,0,1,0,10Z"/><path class="cls-1" d="M351,112h-.21a5,5,0,0,1-4.79-5.21c.12-3.17-.46-12.37-4.53-16.6a7.91,7.91,0,0,0-11,0c-4.08,4.25-4.65,13.63-4.52,16.58a5,5,0,0,1-10,.42c-.06-1.6-.42-15.87,7.3-23.93a17.91,17.91,0,0,1,25.4,0c7.72,8.06,7.36,22.33,7.3,23.93A5,5,0,0,1,351,112Z"/><path class="cls-1" d="M431,189H401a5,5,0,0,1-5-5V107a5,5,0,0,1,5-5h30a5,5,0,0,1,5,5v77A5,5,0,0,1,431,189Zm-25-10h20V112H406Z"/><path class="cls-1" d="M445,147H387a5,5,0,0,1,0-10h58a5,5,0,0,1,0,10Z"/><path class="cls-1" d="M431,112h-.21a5,5,0,0,1-4.79-5.21c.12-3.17-.46-12.37-4.53-16.6a7.91,7.91,0,0,0-11,0c-4.08,4.25-4.65,13.63-4.52,16.58a5,5,0,1,1-10,.42c-.06-1.6-.42-15.87,7.3-23.93a17.91,17.91,0,0,1,25.4,0c7.72,8.06,7.36,22.33,7.3,23.93A5,5,0,0,1,431,112Z"/><path class="cls-1" d="M112,189H82a5,5,0,0,1-5-5V107a5,5,0,0,1,5-5h30a5,5,0,0,1,5,5v77A5,5,0,0,1,112,189ZM87,179h20V112H87Z"/><path class="cls-1" d="M126,147H68a5,5,0,0,1,0-10h58a5,5,0,0,1,0,10Z"/><path class="cls-1" d="M112,112h-.21a5,5,0,0,1-4.79-5.21c.12-3.17-.46-12.37-4.53-16.6a7.91,7.91,0,0,0-11,0c-4.08,4.25-4.65,13.63-4.52,16.58a5,5,0,0,1-10,.42c-.06-1.6-.42-15.87,7.3-23.93a17.91,17.91,0,0,1,25.4,0c7.72,8.06,7.36,22.33,7.3,23.93A5,5,0,0,1,112,112Z"/><path class="cls-1" d="M192,189H162a5,5,0,0,1-5-5V107a5,5,0,0,1,5-5h30a5,5,0,0,1,5,5v77A5,5,0,0,1,192,189Zm-25-10h20V112H167Z"/><path class="cls-1" d="M206,147H148a5,5,0,0,1,0-10h58a5,5,0,0,1,0,10Z"/><path class="cls-1" d="M192,112h-.21a5,5,0,0,1-4.79-5.21c.12-3.17-.46-12.37-4.53-16.6a7.91,7.91,0,0,0-10.95,0c-4.08,4.25-4.65,13.63-4.52,16.58a5,5,0,0,1-10,.42c-.06-1.6-.42-15.87,7.3-23.93a17.91,17.91,0,0,1,25.4,0c7.72,8.06,7.36,22.33,7.3,23.93A5,5,0,0,1,192,112Z"/></svg>