<?xml version="1.0" ?><svg id="Lines" viewBox="0 0 512 512" xmlns="http://www.w3.org/2000/svg"><defs><style>.cls-1{fill:#3f456b;}</style></defs><title/><path class="cls-1" d="M195.16,321.84a5,5,0,0,1-3.54-8.53L492.46,12.46a5,5,0,0,1,7.08,7.08L198.69,320.38A5,5,0,0,1,195.16,321.84Z"/><path class="cls-1" d="M17.33,499.67a5,5,0,0,1-3.53-1.47,5,5,0,0,1,0-7.07L191.62,313.31a5,5,0,0,1,7.07,7.07L20.87,498.2A5,5,0,0,1,17.33,499.67Z"/><path class="cls-1" d="M137.55,500H17a5,5,0,0,1-5-5V374.45a5,5,0,0,1,10,0V490H137.55a5,5,0,0,1,0,10Z"/><path class="cls-1" d="M496,141.55a5,5,0,0,1-5-5V21H375.45a5,5,0,0,1,0-10H496a5,5,0,0,1,5,5V136.55A5,5,0,0,1,496,141.55Z"/></svg>