<?xml version="1.0" ?><svg id="Lines" viewBox="0 0 512 512" xmlns="http://www.w3.org/2000/svg"><defs><style>.cls-1{fill:#3f456b;}</style></defs><title/><g data-name="&lt;编组&gt;" id="_编组_"><path class="cls-1" d="M16.79,486a5,5,0,0,1-5-5V91a5,5,0,0,1,2.78-4.48L134.62,27.15a5,5,0,0,1,4.36,0l51.17,24.37a5,5,0,0,1-4.3,9l-49-23.32L21.79,94.07V472.93l112.83-55.77a5,5,0,0,1,4.42,0L255,474l118.76-58.46a5,5,0,0,1,4.49,0l112.79,57.27L491,94,375.87,35.6,326.24,60.47a5,5,0,0,1-4.48-8.94l51.89-26a5,5,0,0,1,4.5,0l120.11,61A5,5,0,0,1,501,91l.06,390a5,5,0,0,1-7.26,4.45L376,425.61,257.22,484.06a5,5,0,0,1-4.41,0l-116-56.84L19,485.46A4.94,4.94,0,0,1,16.79,486Z"/></g><path class="cls-1" d="M256.65,321.13c-10.68,0-14.79-8-15.07-13.76C230,256.55,195.14,204.92,182.64,189.28c-18.89-23.7-27.69-44.8-27.69-66.41A92.81,92.81,0,0,1,166,79l4.41,2.34L166,79c11.91-22.47,31.87-35.2,33.35-36.13a104.26,104.26,0,0,1,57-16.72c55.87,0,101.33,43.4,101.33,96.73,0,27.19-13.45,48.25-26.63,65.27a4.78,4.78,0,0,1-.3.38c-10.77,12.56-49,71.93-59.58,118.85a14.08,14.08,0,0,1-12.82,13.5A5.08,5.08,0,0,1,256.65,321.13Zm-.39-285a94.27,94.27,0,0,0-51.55,15.13l-.1.07c-.19.11-19,12-29.83,32.34A83,83,0,0,0,165,122.87c0,19.22,8.1,38.34,25.51,60.17,12.93,16.19,49.1,69.79,61,122.61a5.08,5.08,0,0,1,.12,1.1,4.05,4.05,0,0,0,3.76,4.29A5.19,5.19,0,0,1,256,311c4.6,0,5.09-3,5.09-4.24a4.92,4.92,0,0,1,.12-1.09C272,257.54,310.1,197.22,323,182.12l.09-.13c21.61-27.92,24.52-45.55,24.52-59.12C347.59,75.05,306.62,36.14,256.26,36.14Z"/><path class="cls-1" d="M253.88,152.49A31.13,31.13,0,1,1,285,121.36,31.16,31.16,0,0,1,253.88,152.49Zm0-52.25A21.13,21.13,0,1,0,275,121.36,21.14,21.14,0,0,0,253.88,100.24Z"/></svg>