<?xml version="1.0" ?><svg enable-background="new 0 0 512 512" version="1.1" viewBox="0 0 512 512" xml:space="preserve" xmlns="http://www.w3.org/2000/svg" xmlns:xlink="http://www.w3.org/1999/xlink"><g id="Lines"><g><g><g><path d="M87.074,226.406c-0.051,0-0.102-0.001-0.153-0.002c-2.038-0.037-3.75-0.792-4.669-1.197      c-3.662-1.616-7.129-3.535-10.481-5.392c-0.963-0.533-1.925-1.065-2.89-1.59l-2.695-1.468c-0.065-0.036-0.136-0.076-0.211-0.121      c-0.958,0.515-1.917,1.051-2.908,1.605c-2.009,1.124-4.087,2.286-6.321,3.342c-0.295,0.14-0.687,0.349-1.146,0.592      c-4.252,2.241-12.167,6.414-16.812,1.085c-1.689-1.937-1.735-4.274-1.752-5.155c-0.097-4.89,0.672-9.55,1.415-14.057      l0.278-1.695c0.301-1.866,0.581-3.518,0.836-4.941c-5.391-4.187-13.127-11.086-15.246-16.228      c-1.463-3.551-0.674-6.145,0.245-7.696c1.612-2.722,4.396-3.576,5.711-3.834c4.753-1.392,15.233-2.041,21.011-2.303      c2.823-7.842,6.579-14.962,7.823-17.077c1.115-1.896,2.523-3.258,4.186-4.05c1.995-0.95,4.485-1.102,6.66-0.398      c0.683,0.218,1.358,0.544,1.994,0.964c1.337,0.881,2.464,2.159,3.344,3.797c1.162,2.162,4.64,9.422,7.159,17.366      c5.764,0.485,16.211,1.538,20.907,3.113c1.306,0.309,4.053,1.27,5.559,4.052c0.858,1.585,1.545,4.208-0.054,7.699      c-2.315,5.056-10.307,11.647-15.855,15.623c0.962,6.424,1.792,13.161,1.795,19.93c0,2.318-0.832,4.412-2.343,5.897      C91.052,225.649,89.145,226.406,87.074,226.406z M65.984,206.008c0.037,0,0.073,0,0.11,0.001l0.089,0.002      c1.927,0.037,3.425,1.046,4.519,1.782c0.124,0.083,0.238,0.162,0.336,0.223l2.619,1.425c0.985,0.535,1.971,1.08,2.957,1.626      c2.777,1.538,5.424,3.003,8.127,4.283c-0.241-6.196-1.157-12.495-2.091-18.475c-0.302-1.935,0.553-3.868,2.188-4.945      c5.576-3.677,11.49-8.729,13.938-11.776c-4.586-1.083-14.57-2.077-20.498-2.495c-2.123-0.149-3.918-1.626-4.475-3.68      c-1.953-7.211-5.214-14.421-6.721-17.481c-1.624,3-5.16,10.079-7.39,17.208c-0.635,2.031-2.486,3.438-4.613,3.505      c-5.941,0.189-15.957,0.799-20.58,1.702c2.328,3.138,8.042,8.416,13.473,12.306c1.608,1.151,2.386,3.144,1.983,5.08      c-0.251,1.21-0.69,3.519-1.356,7.648l-0.283,1.729c-0.542,3.283-1.06,6.427-1.231,9.519c1.467-0.608,3.119-1.479,3.852-1.865      c0.614-0.324,1.138-0.598,1.533-0.784c1.926-0.911,3.767-1.94,5.716-3.03c1.788-1,3.636-2.034,5.6-2.996      C64.469,206.183,65.222,206.008,65.984,206.008z M32.005,179.495c-0.008,0.001-0.016,0.002-0.024,0.003      C31.989,179.497,31.997,179.496,32.005,179.495z M99.846,178.463L99.846,178.463L99.846,178.463L99.846,178.463z       M67.947,155.021L67.947,155.021L67.947,155.021z M66.289,155.016L66.289,155.016L66.289,155.016z" fill="#3F456B"/></g></g><g><g><path d="M454.072,318.411c-1.702,0-3.4-0.593-4.86-1.805c-1.567-1.302-2.432-2.96-2.896-3.852      c-2.006-3.847-3.64-7.761-5.22-11.546l-0.875-2.092c-0.221-0.525-0.439-1.097-0.655-1.667c-0.172-0.455-0.344-0.909-0.519-1.327      c-0.029-0.069-0.059-0.145-0.09-0.228c-1.071-0.197-2.156-0.377-3.277-0.563c-2.27-0.377-4.618-0.768-7.02-1.337      c-0.317-0.075-0.753-0.156-1.264-0.255c-4.721-0.905-13.508-2.591-13.809-9.653c-0.11-2.566,1.315-4.423,1.853-5.121      c2.978-3.878,6.488-7.037,9.883-10.092l1.272-1.146c1.528-1.385,2.76-2.48,3.744-3.341c-1.595-6.637-3.328-16.857-1.77-22.196      c1.075-3.687,3.311-5.22,4.997-5.857c2.959-1.122,5.667-0.049,6.855,0.572c4.581,1.883,13.171,7.922,17.847,11.325      c7.104-4.361,14.484-7.574,16.776-8.449c2.053-0.781,4.004-0.967,5.797-0.547c2.15,0.501,4.189,1.939,5.45,3.845      c0.398,0.6,0.722,1.275,0.957,2c0.495,1.526,0.575,3.228,0.24,5.054c-0.443,2.414-2.261,10.256-5.256,18.034      c4.198,3.979,11.698,11.327,14.383,15.49c0.826,1.057,2.372,3.523,1.81,6.637c-0.32,1.774-1.422,4.252-4.852,5.979      c-4.908,2.473-15.088,2.654-21.904,2.31c-3.127,6.066-6.88,11.597-11.409,16.825      C458.542,317.392,456.304,318.411,454.072,318.411z M455.68,308.987h0.01H455.68z M425.105,282.971      c1.526,0.441,3.361,0.793,4.174,0.949c0.681,0.131,1.261,0.244,1.685,0.345c2.072,0.491,4.152,0.837,6.354,1.203      c2.021,0.336,4.112,0.683,6.249,1.158c0.779,0.174,1.504,0.531,2.117,1.042l0.068,0.057c1.487,1.236,2.026,2.96,2.42,4.219      c0.045,0.143,0.084,0.276,0.124,0.384c0.188,0.443,0.404,1.011,0.619,1.578c0.173,0.457,0.345,0.914,0.522,1.334l0.886,2.117      c1.359,3.256,2.653,6.355,4.151,9.382c3.863-4.788,7.034-9.879,9.658-15.493c0.893-1.909,2.885-3.059,4.988-2.861      c6.649,0.611,14.424,0.358,18.239-0.492c-2.904-3.708-10.08-10.722-14.449-14.751c-1.564-1.443-2.044-3.718-1.196-5.67      c2.979-6.851,4.936-14.518,5.67-17.849c-3.142,1.328-10.324,4.647-16.52,8.823c-1.765,1.189-4.088,1.131-5.792-0.145      c-4.758-3.563-12.959-9.344-17.134-11.525c-0.143,3.905,1.024,11.596,2.834,18.025c0.537,1.904-0.1,3.945-1.624,5.207      c-0.954,0.789-2.741,2.32-5.841,5.129l-1.298,1.171C429.538,278.533,427.17,280.663,425.105,282.971z M488.867,289.969      c0.005,0.005,0.009,0.01,0.013,0.014C488.875,289.979,488.871,289.974,488.867,289.969z M478.981,249.012L478.981,249.012      L478.981,249.012z M477.691,247.971L477.691,247.971L477.691,247.971z M435.608,245.661c0.005,0.003,0.01,0.006,0.016,0.01      C435.618,245.667,435.613,245.664,435.608,245.661z" fill="#384169"/></g></g><g><g><path d="M316.156,94.054c-0.756,0-1.532-0.113-2.313-0.349c-1.945-0.586-3.39-1.779-4.166-2.42      c-3.343-2.762-6.368-5.729-9.294-8.598l-1.629-1.595c-0.408-0.398-0.832-0.841-1.254-1.283c-0.335-0.352-0.669-0.703-0.993-1.02      c-0.053-0.052-0.11-0.109-0.17-0.173c-1.063,0.235-2.134,0.491-3.24,0.756c-2.237,0.535-4.55,1.09-6.984,1.5      c-0.325,0.055-0.759,0.149-1.269,0.258c-4.701,1.002-13.449,2.865-16.472-3.521c-1.098-2.323-0.509-4.585-0.287-5.437      c1.236-4.734,3.241-9.01,5.18-13.146l0.722-1.545c0.87-1.872,1.58-3.362,2.152-4.539c-4.051-5.493-9.625-14.234-10.267-19.758      c-0.444-3.814,1.019-6.097,2.324-7.341c2.291-2.183,5.2-2.25,6.538-2.14c0.053,0,0.107-0.001,0.162-0.001      c5.011,0,15.114,2.188,20.685,3.489c4.845-6.776,10.394-12.611,12.167-14.31c1.587-1.521,3.312-2.45,5.127-2.761      c2.179-0.375,4.612,0.157,6.513,1.419c0.609,0.405,1.164,0.896,1.657,1.465c1.056,1.223,1.792,2.758,2.194,4.57      c0.531,2.396,1.908,10.328,2.175,18.658c5.415,2.031,15.183,5.883,19.276,8.673c1.173,0.652,3.556,2.322,4.25,5.409      c0.396,1.759,0.345,4.47-2.142,7.396c-3.559,4.188-12.866,8.314-19.281,10.65c-0.521,6.805-1.826,13.359-3.963,19.938      C322.391,91.882,319.467,94.053,316.156,94.054z M297.876,68.202c0.501,0,1,0.075,1.482,0.225l0.085,0.026      c1.825,0.553,2.993,1.929,3.845,2.935c0.097,0.114,0.185,0.222,0.263,0.306c0.348,0.337,0.767,0.774,1.185,1.213      c0.338,0.354,0.675,0.709,1.001,1.027l1.649,1.614c2.516,2.468,4.911,4.816,7.466,7.02c1.695-5.914,2.636-11.837,2.869-18.03      c0.079-2.107,1.472-3.938,3.48-4.577c6.365-2.025,13.429-5.282,16.612-7.55c-4.12-2.287-13.458-5.955-19.051-7.967      c-2.002-0.721-3.33-2.63-3.307-4.758c0.078-7.469-1.102-15.293-1.722-18.647c-2.378,2.446-7.706,8.302-11.785,14.555      c-1.162,1.782-3.325,2.635-5.392,2.12c-5.769-1.432-15.573-3.564-20.268-3.95c1.389,3.653,5.456,10.284,9.625,15.502      c1.235,1.545,1.442,3.674,0.53,5.429c-0.572,1.1-1.625,3.207-3.387,7.002l-0.737,1.577c-1.413,3.013-2.765,5.897-3.77,8.827      c1.576-0.188,3.402-0.577,4.211-0.749c0.68-0.146,1.261-0.267,1.692-0.339c2.097-0.354,4.147-0.845,6.317-1.364      c1.994-0.477,4.055-0.971,6.208-1.364C297.275,68.229,297.576,68.202,297.876,68.202z M340.011,53.738      c0.005,0.002,0.01,0.005,0.015,0.007C340.021,53.742,340.016,53.74,340.011,53.738z M273.707,33.644      c0.005,0.001,0.011,0.002,0.017,0.003C273.718,33.646,273.712,33.645,273.707,33.644z M275.791,31.825L275.791,31.825      L275.791,31.825z M313.372,19.396L313.372,19.396L313.372,19.396z" fill="#384169"/></g></g><g><g><path d="M437.994,219.001c-2.478,0-4.629-1.842-4.953-4.364c-0.065-0.502-5.923-43.072-33.507-45.658      c-2.509-0.235-4.451-2.302-4.531-4.82c-0.08-2.52,1.729-4.704,4.218-5.097C400.58,158.835,433,152.958,433,111      c0-2.762,2.239-5,5-5s5,2.238,5,5c0,26.302-11.384,40.661-20.934,48.074c-2.354,1.828-4.711,3.33-6.955,4.562      c8.326,4.759,15.26,12.999,20.442,24.424c5.745,12.665,7.341,24.797,7.407,25.308c0.35,2.739-1.587,5.243-4.327,5.593      C438.418,218.987,438.205,219.001,437.994,219.001z" fill="#3F456B"/></g></g><g><g><path d="M438.006,219.001c-0.211,0-0.424-0.014-0.64-0.041c-2.739-0.35-4.676-2.854-4.327-5.593      c0.065-0.511,1.662-12.643,7.407-25.308c5.182-11.425,12.116-19.665,20.442-24.424c-2.244-1.231-4.601-2.733-6.955-4.562      C444.384,151.661,433,137.302,433,111c0-2.762,2.239-5,5-5s5,2.238,5,5c0,17.867,5.742,31.384,17.066,40.176      c8.253,6.407,16.632,7.872,16.714,7.886c2.489,0.393,4.297,2.577,4.218,5.097c-0.08,2.519-2.021,4.585-4.531,4.82      c-27.694,2.596-33.452,45.225-33.507,45.654C442.638,217.157,440.485,219.001,438.006,219.001z" fill="#3F456B"/></g></g><g><g><path d="M176.339,448.113c-1.322,0-2.595-0.524-3.535-1.465L66.875,340.718      c-1.003-1.003-1.533-2.384-1.458-3.801c0.075-1.416,0.749-2.733,1.852-3.624c0.495-0.4,12.327-9.82,30.539-12.936      c16.802-2.873,42.377-0.746,68.827,25.704c14.828,14.827,31.45,38.924,26.433,69.517c-3.007,18.334-12.438,30.181-12.837,30.677      c-0.891,1.103-2.208,1.776-3.625,1.852C176.517,448.111,176.428,448.113,176.339,448.113z M78.259,337.961l97.325,97.325      c7.081-12.018,20.78-45.354-16.021-82.154c-18.808-18.808-39.023-26.521-60.069-22.917      C90.123,331.817,82.719,335.356,78.259,337.961z" fill="#3F456B"/></g></g><g><g><path d="M47.651,496.962c-8.526,0-16.542-3.32-22.569-9.35c-6.028-6.028-9.349-14.043-9.349-22.569      c0-8.525,3.32-16.541,9.349-22.569l75.31-75.31c1.953-1.953,5.118-1.953,7.071,0c1.953,1.952,1.953,5.118,0,7.07l-75.31,75.31      c-4.14,4.141-6.42,9.645-6.42,15.499s2.28,11.359,6.42,15.499c4.14,4.14,9.644,6.42,15.498,6.42      c5.855,0,11.359-2.28,15.499-6.42l75.31-75.309c1.954-1.953,5.119-1.952,7.071,0c1.953,1.952,1.953,5.118,0,7.07l-75.31,75.309      C64.193,493.642,56.178,496.962,47.651,496.962z" fill="#3F456B"/></g></g><g><g><path d="M31.1,448.526c-1.28,0-2.559-0.488-3.536-1.465c-12.826-12.826-18.354-27.169-16.43-42.63      c5.056-40.637,60.434-74.1,62.789-75.504c2.371-1.412,5.439-0.639,6.854,1.731c1.415,2.37,0.64,5.439-1.729,6.855      c-0.535,0.32-53.552,32.378-57.992,68.166c-1.54,12.41,2.902,23.633,13.58,34.311c1.953,1.952,1.953,5.118,0,7.07      C33.659,448.038,32.379,448.526,31.1,448.526z" fill="#3F456B"/></g></g><g><g><path d="M163.488,353.951c-1.28,0-2.559-0.488-3.536-1.465c-1.953-1.952-1.953-5.118,0-7.07L493.964,11.404      c1.953-1.953,5.118-1.953,7.071,0c1.953,1.952,1.953,5.118,0,7.07L167.024,352.486      C166.047,353.463,164.768,353.951,163.488,353.951z" fill="#3F456B"/></g></g><g><g><path d="M112.203,441.906c-1.28,0-2.559-0.488-3.536-1.465L71.426,403.2c-1.953-1.952-1.953-5.118,0-7.07      c1.953-1.953,5.118-1.953,7.071,0l37.241,37.241c1.953,1.952,1.953,5.118,0,7.07      C114.762,441.418,113.482,441.906,112.203,441.906z" fill="#3F456B"/></g></g><g><g><path d="M82.41,471.698c-1.28,0-2.559-0.488-3.536-1.465l-37.241-37.241c-1.953-1.952-1.953-5.118,0-7.07      c1.953-1.953,5.118-1.953,7.071,0l37.241,37.241c1.953,1.952,1.953,5.118,0,7.07C84.969,471.21,83.69,471.698,82.41,471.698z" fill="#3F456B"/></g></g><g><g><path d="M337.145,448.113c-0.088,0-0.177-0.002-0.266-0.007c-1.417-0.075-2.734-0.749-3.625-1.852      c-0.4-0.496-9.83-12.343-12.837-30.677c-2.769-16.886-0.432-42.653,26.432-69.517c14.599-14.599,38.392-30.903,68.827-25.704      c18.213,3.115,30.045,12.535,30.54,12.936c1.104,0.891,1.777,2.208,1.852,3.624c0.075,1.417-0.455,2.798-1.458,3.801      L340.68,446.648C339.74,447.589,338.467,448.113,337.145,448.113z M404.326,329.311c-14.449,0-32.046,5.462-50.406,23.821      c-36.792,36.792-23.105,70.123-16.02,82.154l97.353-97.354C429.35,334.434,418.314,329.311,404.326,329.311z" fill="#3F456B"/></g></g><g><g><path d="M465.833,496.962c-8.526,0-16.542-3.32-22.57-9.35l-75.311-75.309c-1.953-1.952-1.953-5.118,0-7.07      c1.953-1.953,5.118-1.953,7.071,0l75.311,75.309c4.14,4.14,9.644,6.42,15.499,6.42s11.359-2.28,15.499-6.42      c8.546-8.546,8.545-22.451,0-30.998l-75.311-75.31c-1.953-1.952-1.953-5.118,0-7.07c1.953-1.953,5.118-1.953,7.071,0      l75.311,75.31c12.444,12.445,12.444,32.694,0,45.139C482.375,493.642,474.359,496.962,465.833,496.962z" fill="#3F456B"/></g></g><g><g><path d="M482.385,448.526c-1.28,0-2.559-0.488-3.536-1.465c-1.953-1.952-1.953-5.118,0-7.07      c10.677-10.678,15.119-21.9,13.58-34.311c-4.44-35.788-57.457-67.846-57.992-68.166c-2.37-1.416-3.145-4.485-1.729-6.855      c1.415-2.371,4.484-3.146,6.854-1.731c2.355,1.404,57.733,34.867,62.79,75.504c1.924,15.461-3.604,29.804-16.43,42.63      C484.944,448.038,483.665,448.526,482.385,448.526z" fill="#3F456B"/></g></g><g><g><path d="M349.996,353.951c-1.28,0-2.559-0.488-3.536-1.465L14.487,20.513c-1.953-1.952-1.953-5.118,0-7.07      c1.953-1.953,5.118-1.953,7.071,0l331.974,331.974c1.953,1.952,1.953,5.118,0,7.07      C352.555,353.463,351.276,353.951,349.996,353.951z" fill="#3F456B"/></g></g><g><g><path d="M401.281,441.906c-1.28,0-2.559-0.488-3.536-1.465c-1.953-1.952-1.953-5.118,0-7.07l37.242-37.241      c1.954-1.953,5.119-1.953,7.071,0c1.953,1.952,1.953,5.118,0,7.07l-37.242,37.241      C403.84,441.418,402.561,441.906,401.281,441.906z" fill="#3F456B"/></g></g><g><g><path d="M431.074,471.698c-1.28,0-2.559-0.488-3.536-1.465c-1.953-1.952-1.953-5.118,0-7.07l37.241-37.241      c1.953-1.953,5.118-1.953,7.071,0c1.953,1.952,1.953,5.118,0,7.07l-37.241,37.241      C433.633,471.21,432.354,471.698,431.074,471.698z" fill="#3F456B"/></g></g><g><g><path d="M277.006,152.001c-0.207,0-0.416-0.014-0.626-0.04c-2.74-0.342-4.684-2.841-4.341-5.581      c3.041-24.326,12.877-50.09,13.295-51.175c0.991-2.577,3.885-3.861,6.46-2.872c2.577,0.991,3.863,3.884,2.873,6.461      c-0.098,0.255-9.819,25.735-12.706,48.826C281.645,150.149,279.491,152.001,277.006,152.001z" fill="#3F456B"/></g></g><g><g><path d="M158,221.001c-0.577,0-1.164-0.101-1.736-0.312c-26.305-9.742-46.993-13.737-47.199-13.776      c-2.713-0.518-4.493-3.135-3.976-5.848c0.517-2.712,3.133-4.488,5.847-3.977c0.874,0.167,21.721,4.193,48.801,14.224      c2.59,0.959,3.912,3.836,2.953,6.425C161.942,219.754,160.031,221.001,158,221.001z" fill="#3F456B"/></g></g><g><g><path d="M415.317,264.008c-0.317,0-0.639-0.03-0.962-0.094c-0.262-0.051-26.489-5.097-53.733-4.432      c-2.757,0.117-5.053-2.116-5.121-4.876c-0.067-2.761,2.116-5.053,4.876-5.12c28.375-0.707,54.784,4.396,55.895,4.613      c2.71,0.529,4.477,3.155,3.948,5.865C419.753,262.352,417.661,264.008,415.317,264.008z" fill="#3F456B"/></g></g></g></g><g id="Outline"><g><g><g><path d="M211.466,100.837c-1.28,0-2.559-0.488-3.536-1.465c-1.953-1.952-1.953-5.118,0-7.07l8.017-8.017      c1.954-1.953,5.119-1.953,7.071,0c1.953,1.952,1.953,5.118,0,7.07l-8.017,8.017      C214.025,100.349,212.745,100.837,211.466,100.837z" fill="#3F456B"/></g></g><g><g><path d="M184.103,128.18c-1.28,0-2.559-0.488-3.536-1.465c-1.953-1.952-1.953-5.118,0-7.07l8.017-8.017      c1.954-1.953,5.119-1.952,7.071,0s1.953,5.118,0,7.07l-8.017,8.017C186.662,127.691,185.382,128.18,184.103,128.18z" fill="#3F456B"/></g></g><g><g><path d="M219.473,128.19c-1.28,0-2.559-0.488-3.536-1.465l-8.018-8.018c-1.953-1.952-1.953-5.118,0-7.07      c1.953-1.953,5.118-1.953,7.071,0l8.018,8.018c1.953,1.952,1.953,5.118,0,7.07C222.032,127.702,220.753,128.19,219.473,128.19z" fill="#3F456B"/></g></g><g><g><path d="M192.13,100.827c-1.28,0-2.559-0.488-3.536-1.465l-8.017-8.018c-1.953-1.952-1.953-5.118,0-7.07      c1.954-1.953,5.119-1.953,7.071,0l8.017,8.018c1.953,1.952,1.953,5.118,0,7.07C194.689,100.339,193.41,100.827,192.13,100.827z" fill="#3F456B"/></g></g><g><g><path d="M43.466,278.837c-1.28,0-2.559-0.488-3.536-1.465c-1.953-1.952-1.953-5.118,0-7.07l8.017-8.017      c1.954-1.953,5.119-1.952,7.071,0s1.953,5.118,0,7.07l-8.017,8.017C46.025,278.349,44.745,278.837,43.466,278.837z" fill="#3F456B"/></g></g><g><g><path d="M16.103,306.18c-1.28,0-2.559-0.488-3.536-1.465c-1.953-1.952-1.953-5.118,0-7.07l8.017-8.017      c1.954-1.953,5.119-1.952,7.071,0s1.953,5.118,0,7.07l-8.017,8.017C18.662,305.691,17.382,306.18,16.103,306.18z" fill="#3F456B"/></g></g><g><g><path d="M51.473,306.19c-1.28,0-2.559-0.488-3.536-1.465l-8.018-8.018c-1.953-1.952-1.953-5.118,0-7.07      c1.953-1.953,5.118-1.953,7.071,0l8.018,8.018c1.953,1.952,1.953,5.118,0,7.07C54.032,305.702,52.753,306.19,51.473,306.19z" fill="#3F456B"/></g></g><g><g><path d="M24.13,278.827c-1.28,0-2.559-0.488-3.536-1.465l-8.017-8.018c-1.953-1.952-1.953-5.118,0-7.07      c1.954-1.953,5.119-1.952,7.071,0l8.017,8.018c1.953,1.952,1.953,5.118,0,7.07C26.689,278.339,25.41,278.827,24.13,278.827z" fill="#3F456B"/></g></g><g><g><path d="M172,261.121c-2.756,0-4.994-2.231-5-4.988c-0.006-2.762,2.227-5.006,4.989-5.012l24.635-0.056      c0.003,0,0.008,0,0.012,0c2.756,0,4.993,2.231,5,4.988c0.006,2.762-2.227,5.006-4.989,5.012l-24.635,0.056      C172.008,261.121,172.003,261.121,172,261.121z" fill="#3F456B"/></g></g><g><g><path d="M315.86,261.121c-2.756,0-4.993-2.23-5-4.988c-0.006-2.762,2.227-5.005,4.988-5.012l24.14-0.056      c0.004,0,0.008,0,0.012,0c2.756,0,4.993,2.23,5,4.988c0.006,2.762-2.227,5.005-4.988,5.012l-24.14,0.056      C315.868,261.121,315.864,261.121,315.86,261.121z" fill="#3F456B"/></g></g><g><g><path d="M256.274,201.48c-2.756,0-4.993-2.231-5-4.988l-0.055-24.48c-0.006-2.762,2.228-5.006,4.989-5.012      c0.004,0,0.008,0,0.012,0c2.756,0,4.993,2.231,5,4.988l0.055,24.48c0.006,2.762-2.228,5.006-4.989,5.012      C256.282,201.48,256.278,201.48,256.274,201.48z" fill="#3F456B"/></g></g><g><g><path d="M256.275,345c-2.756,0-4.994-2.231-5-4.988l-0.056-24.294c-0.006-2.762,2.227-5.006,4.989-5.012      c0.003,0,0.008,0,0.011,0c2.756,0,4.994,2.231,5,4.988l0.056,24.294c0.006,2.762-2.227,5.006-4.989,5.012      C256.283,345,256.279,345,256.275,345z" fill="#3F456B"/></g></g><g><g><path d="M201.181,238.256c-0.632,0-1.274-0.12-1.895-0.375l-13.927-5.709c-2.555-1.047-3.777-3.968-2.73-6.522      s3.967-3.778,6.523-2.729l13.927,5.709c2.555,1.047,3.777,3.968,2.73,6.522C205.017,237.086,203.15,238.256,201.181,238.256z" fill="#3F456B"/></g></g><g><g><path d="M325.237,289.642c-0.631,0-1.274-0.12-1.895-0.375l-13.927-5.709c-2.555-1.047-3.777-3.968-2.73-6.522      c1.047-2.556,3.967-3.779,6.523-2.729l13.927,5.709c2.555,1.047,3.777,3.968,2.73,6.522      C329.073,288.472,327.206,289.642,325.237,289.642z" fill="#3F456B"/></g></g><g><g><path d="M279.084,206.029c-0.632,0-1.274-0.12-1.895-0.375c-2.555-1.047-3.777-3.967-2.73-6.522l5.708-13.927      c1.047-2.556,3.969-3.779,6.523-2.729c2.555,1.047,3.777,3.967,2.73,6.522l-5.708,13.927      C282.919,204.859,281.053,206.029,279.084,206.029z" fill="#3F456B"/></g></g><g><g><path d="M227.698,330.086c-0.632,0-1.274-0.12-1.895-0.375c-2.555-1.047-3.777-3.967-2.73-6.522l5.708-13.927      c1.047-2.556,3.968-3.779,6.523-2.729c2.555,1.047,3.777,3.967,2.73,6.522l-5.708,13.927      C231.534,328.916,229.667,330.086,227.698,330.086z" fill="#3F456B"/></g></g><g><g><path d="M187.279,289.693c-1.956,0-3.812-1.153-4.614-3.07c-1.066-2.548,0.134-5.477,2.682-6.543l13.885-5.812      c2.548-1.065,5.477,0.134,6.543,2.682s-0.134,5.477-2.682,6.543l-13.885,5.812C188.577,289.568,187.922,289.693,187.279,289.693      z" fill="#3F456B"/></g></g><g><g><path d="M311.335,238.308c-1.956,0-3.812-1.154-4.614-3.07c-1.066-2.548,0.135-5.477,2.682-6.543l13.885-5.812      c2.547-1.066,5.477,0.136,6.543,2.682c1.066,2.548-0.135,5.477-2.682,6.543l-13.885,5.812      C312.633,238.183,311.979,238.308,311.335,238.308z" fill="#3F456B"/></g></g><g><g><path d="M233.462,206.009c-1.956,0-3.812-1.154-4.614-3.07l-5.811-13.885c-1.066-2.548,0.135-5.477,2.682-6.543      c2.546-1.065,5.476,0.135,6.542,2.682l5.811,13.885c1.066,2.548-0.135,5.477-2.682,6.543      C234.76,205.884,234.105,206.009,233.462,206.009z" fill="#3F456B"/></g></g><g><g><path d="M284.848,330.065c-1.956,0-3.812-1.153-4.614-3.07l-5.812-13.885c-1.066-2.548,0.135-5.477,2.682-6.543      c2.548-1.066,5.477,0.134,6.543,2.682l5.812,13.885c1.066,2.548-0.135,5.477-2.682,6.543      C286.146,329.94,285.492,330.065,284.848,330.065z" fill="#3F456B"/></g></g></g></g></svg>