<?xml version="1.0" ?><svg viewBox="0 0 512 512" xmlns="http://www.w3.org/2000/svg"><defs><style>.cls-1{fill:#3f456b;}</style></defs><title/><g id="Lines"><path class="cls-1" d="M31.7,121.28a5,5,0,0,1-5-5V101.8A23.68,23.68,0,0,1,50.35,78.15l28.71-.41,6.6-22.13s0-.1,0-.15c4.89-14.65,16.68-22.07,35.05-22.07H240.89c16.81,0,28,7.38,33.29,21.94a1.59,1.59,0,0,1,.07.2l7,22.17,49.57.12h130c8.11.34,23.45,5.78,23.45,24v12.06a5,5,0,0,1-10,0V101.8c0-12.79-12-13.89-13.77-14H330.83l-53.22-.13a5,5,0,0,1-4.76-3.49l-8.1-25.55c-3.86-10.55-11.23-15.26-23.86-15.26H120.75c-13.94,0-22.06,4.82-25.53,15.16L87.6,84.11a5,5,0,0,1-4.72,3.57l-32.46.47A13.68,13.68,0,0,0,36.7,101.8v14.48A5,5,0,0,1,31.7,121.28Z"/><path class="cls-1" d="M23.52,157.51a5,5,0,0,1-5-5V132.1a25,25,0,0,1,25-25H462.16c2-.13,15.86-.7,24.33,7.1,4.26,3.92,6.51,9.39,6.51,15.8v21a5,5,0,0,1-10,0V130c0-3.64-1.08-6.41-3.29-8.45-5.68-5.23-16.86-4.47-17-4.46H43.52a15,15,0,0,0-15,15v20.41A5,5,0,0,1,23.52,157.51Z"/><path class="cls-1" d="M476.5,489.5H35.5a25,25,0,0,1-25-25v-296a25,25,0,0,1,25-25H472.41c2.63,0,11.65.13,16,3.06h0c8.45,5.71,13.1,13.5,13.1,21.94v296A25,25,0,0,1,476.5,489.5Zm-441-336a15,15,0,0,0-15,15v296a15,15,0,0,0,15,15h441a15,15,0,0,0,15-15v-296c0-6.43-4.72-11-8.69-13.65-1.17-.73-6.2-1.4-10.35-1.35Z"/><path class="cls-1" d="M256.42,363.41a55.19,55.19,0,1,1,55.18-55.19A55.25,55.25,0,0,1,256.42,363.41Zm0-100.37a45.19,45.19,0,1,0,45.18,45.18A45.24,45.24,0,0,0,256.42,263Z"/><g data-name="&lt;编组&gt;" id="_编组_"><path class="cls-1" d="M267.52,453H244.88c-7.43,0-9.65-6.5-10.49-8.95a5.12,5.12,0,0,1-.15-.56l-5.59-25.87L227,417.2,209.4,436.72l-.35.35c-4.65,4.24-9.24,5.11-13.62,2.58l-19.61-11.32c-6.45-3.72-5.11-10.46-4.6-13,0-.18.09-.37.14-.55L179.31,390c-.5-.49-1-1-1.49-1.48l-24.65,8a4.27,4.27,0,0,1-.48.13c-6.15,1.34-10.56-.21-13.09-4.59l-11.31-19.6c-3.72-6.43.81-11.61,2.52-13.56a5.18,5.18,0,0,1,.4-.41l19.13-17.34c-.17-.6-.33-1.22-.49-1.86l-25.19-5.43-.45-.12c-5.84-1.86-8.81-5.4-8.81-10.52V300.58c0-7.52,6.32-9.68,8.7-10.5a5.62,5.62,0,0,1,.55-.15l25.22-5.48c.18-.69.36-1.38.56-2.06L131.19,265l-.33-.33c-4.19-4.59-5-9.15-2.47-13.57l11.32-19.61c3.75-6.47,10.38-5.16,12.88-4.66a3.53,3.53,0,0,1,.56.14L178.23,235c.39-.4.79-.79,1.18-1.17l-8.11-25.15a4.21,4.21,0,0,1-.12-.48c-1.32-6.06.25-10.42,4.66-13l19.6-11.31c6.48-3.74,11.57.72,13.49,2.39a5.29,5.29,0,0,1,.41.41l18.1,19.95,1.06-.27,5.55-26a3.59,3.59,0,0,1,.12-.47c2-6.17,5.51-9.3,10.52-9.3h22.64c7.35,0,9.63,6.68,10.48,9.2a3.58,3.58,0,0,1,.16.56l5.7,26.38.84.23,18.23-20.21.35-.35c4.81-4.36,9.44-5.31,13.77-2.81L336.46,195c6.35,3.66,5,10.61,4.47,13.23a5.09,5.09,0,0,1-.14.56L332.35,235l.27.27L359,226.77a4.27,4.27,0,0,1,.48-.13c6.36-1.39,10.85.11,13.34,4.45l11.33,19.6c3.68,6.38-1,11.7-2.72,13.7a5.29,5.29,0,0,1-.41.41l-20.44,18.56.18.6,27.34,5.79a3.74,3.74,0,0,1,.48.12c6.56,2.08,9.89,5.62,9.89,10.52V323c0,7.15-6.86,9.49-9.78,10.49a4.18,4.18,0,0,1-.58.16l-27.38,5.81c0,.13-.07.25-.1.38l20.5,18.47c.12.11.24.22.35.34,4.44,4.88,5.43,9.54,2.94,13.85l-11.32,19.6c-3.64,6.31-10.7,4.92-13.35,4.4a4.74,4.74,0,0,1-.57-.15L333.24,388l-.58.59,8.39,25.83c.05.16.09.32.13.48,1.4,6.44-.07,11-4.37,13.45L317.2,439.7c-6.32,3.65-11.73-1.09-13.77-2.87a4.07,4.07,0,0,1-.42-.41l-17.82-19.69-1.38.39-5.65,26.36c0,.16-.08.32-.13.47C276.11,450,272.58,453,267.52,453Zm-22.7-10h22.76a6.53,6.53,0,0,0,.85-1.87L274.69,412a5,5,0,0,1,3.73-3.81c2.3-.55,4.61-1.19,6.84-1.9a5,5,0,0,1,5.22,1.41l19.75,21.81A9.47,9.47,0,0,0,312.3,431l19.39-11.19a7.41,7.41,0,0,0-.23-2.5l-9.27-28.53a5,5,0,0,1,1.31-5.17c1.59-1.5,3.12-3.07,4.57-4.66a5,5,0,0,1,5.23-1.39l28.6,9.22a9.52,9.52,0,0,0,2.55.25l11.2-19.39a7.77,7.77,0,0,0-1.46-2l-22.61-20.37a5,5,0,0,1-1.44-5.13c.59-2,1.11-4,1.55-5.93a5,5,0,0,1,3.83-3.79L385.68,324a11.15,11.15,0,0,0,2.74-1.22V300.68a9.42,9.42,0,0,0-2.69-1.2l-30.1-6.37a5,5,0,0,1-3.84-3.76c-.4-1.73-.94-3.47-1.5-5.31l-.24-.8a5,5,0,0,1,1.42-5.16L374,257.6a8.71,8.71,0,0,0,1.39-2l-11.27-19.51a7.35,7.35,0,0,0-2.36.22l-29.08,9.42a5,5,0,0,1-5.21-1.36c-1.32-1.43-2.77-2.89-4.29-4.33a5,5,0,0,1-1.33-5.17L331.17,206a9.11,9.11,0,0,0,.24-2.39l-19.5-11.26a6.91,6.91,0,0,0-1.92,1.37l-20.15,22.34a5,5,0,0,1-5.19,1.43c-2.16-.66-4.3-1.25-6.36-1.74a5,5,0,0,1-3.74-3.81l-6.29-29.12a9.07,9.07,0,0,0-1-2.16H244.74a7,7,0,0,0-1,2.11l-6.15,28.8a5,5,0,0,1-3.8,3.84c-2.35.52-4.51,1.08-6.59,1.69a5,5,0,0,1-5.13-1.43l-20-22a7.75,7.75,0,0,0-1.6-1.14l-.11.06-19.6,11.31-.11.07a6.54,6.54,0,0,0,.18,1.9l9,27.92a5,5,0,0,1-1.4,5.24c-1.76,1.59-3.5,3.31-5.19,5.1a5,5,0,0,1-5.17,1.35l-27.76-8.91a7.89,7.89,0,0,0-1.94-.19l-.07.11-11.32,19.6-.06.11a6.35,6.35,0,0,0,1.1,1.55l21.39,19.35a5,5,0,0,1,1.41,5.21c-.77,2.44-1.45,4.95-2,7.48a5,5,0,0,1-3.82,3.78l-28,6.08a7.83,7.83,0,0,0-1.67.75c0,.05,0,.11,0,.19v22.63c0,.08,0,.14,0,.19a6,6,0,0,0,1.61.72l28,6.05a5,5,0,0,1,3.82,3.79c.62,2.75,1.25,5.14,1.93,7.3a5,5,0,0,1-1.42,5.2l-21.22,19.22a8.54,8.54,0,0,0-1.23,1.72l0,0,11.32,19.61,0,.05a6.06,6.06,0,0,0,2-.18l27.39-8.85a5,5,0,0,1,5.2,1.36c1.75,1.89,3.59,3.72,5.47,5.43a5,5,0,0,1,1.39,5.22L181,417.54a7.64,7.64,0,0,0-.21,2.1l0,0L200.42,431l.06,0a6.09,6.09,0,0,0,1.67-1.18l19.56-21.63a5,5,0,0,1,5.13-1.44c2.34.69,4.73,1.31,7.1,1.84a5,5,0,0,1,3.82,3.82L244,441.08A8.19,8.19,0,0,0,244.82,443Z"/></g></g><g id="Outline"><path class="cls-1" d="M256.05,332.73a24,24,0,1,1,24-24A24,24,0,0,1,256.05,332.73Zm0-37.92a14,14,0,1,0,14,14A14,14,0,0,0,256.05,294.81Z"/></g></svg>