<?xml version="1.0" ?><svg viewBox="0 0 512 512" xmlns="http://www.w3.org/2000/svg"><defs><style>.cls-1{fill:#3f456b;}</style></defs><title/><g id="Lines"><path class="cls-1" d="M459,132.58H309.5a5,5,0,0,1-4.87-6.12L330.92,12.87A5,5,0,0,1,335.79,9h97a5,5,0,0,1,4.88,3.88l26.15,113.58a5,5,0,0,1-4.87,6.12Zm-143.21-10H452.72L428.86,19H339.77Z"/><path class="cls-1" d="M384,303a5,5,0,0,1-5-5V128a5,5,0,0,1,10,0V298A5,5,0,0,1,384,303Z"/><path class="cls-1" d="M384,500a5,5,0,0,1-5-5V399a5,5,0,0,1,10,0v96A5,5,0,0,1,384,500Z"/><path class="cls-1" d="M350,213a5,5,0,0,1-5-5V129a5,5,0,0,1,10,0v79A5,5,0,0,1,350,213Z"/><path class="cls-1" d="M350,241a18,18,0,1,1,18-18A18,18,0,0,1,350,241Zm0-26a8,8,0,1,0,8,8A8,8,0,0,0,350,215Z"/><path class="cls-1" d="M410,500H358a5,5,0,0,1,0-10h52a5,5,0,0,1,0,10Z"/><path class="cls-1" d="M425,500H347a5,5,0,0,1,0-10h78a5,5,0,0,1,0,10Z"/><path class="cls-1" d="M140.43,214.9A21.24,21.24,0,0,1,127.08,210a20.21,20.21,0,0,1-7.58-13.72,15.59,15.59,0,0,1,3.66-11.71c6.11-7.09,17.8-7.38,26.05-.65a20.21,20.21,0,0,1,7.58,13.72,15.59,15.59,0,0,1-3.66,11.71A16.51,16.51,0,0,1,140.43,214.9Zm-4.61-25.83a6.57,6.57,0,0,0-5.09,2.07,5.67,5.67,0,0,0-1.27,4.31,10.25,10.25,0,0,0,3.93,6.84c4,3.28,9.61,3.54,12.17.57h0a5.71,5.71,0,0,0,1.27-4.31,10.25,10.25,0,0,0-3.93-6.84A11.46,11.46,0,0,0,135.82,189.07Z"/><path class="cls-1" d="M350.58,403.05c-.79,0-1.39,0-1.73,0H76c-31.56,0-35.66-27.87-36-31C24.46,267.22,15,192.86,12,151c-1.48-20.07,2.84-35.3,12.82-45.26C37.1,93.45,53.61,93.92,55.81,94h137a42.28,42.28,0,0,1,28.65,9.69c11.71,9.65,18.62,25.41,20.53,46.83,4.67,52.29,9.93,89.81,10,90.19a3.91,3.91,0,0,1,0,.48c.07,1.38,1.11,13.77,13.56,13.77h28.26c4.2-.3,47.29-2.31,56.5,41.2a5,5,0,1,1-9.79,2.07c-3.27-15.44-11.93-25.72-25.76-30.55A52.41,52.41,0,0,0,294.54,265a4.53,4.53,0,0,1-.52,0H265.57c-17.64,0-23.09-14.95-23.54-23.08-.45-3.23-5.51-40-10-90.48-1.66-18.55-7.3-32-16.78-39.87A31.93,31.93,0,0,0,193.49,104a4.15,4.15,0,0,1-.49,0H55.66l-.38,0c-.12,0-13.87-.81-23.53,8.91-7.77,7.82-11.08,20.39-9.83,37.37C25,191.89,34.39,266,49.89,370.65c0,.12,0,.23,0,.35A28,28,0,0,0,54,382.35C58.57,389.42,66,393,76,393H349.35c2.75.18,10.86-.24,15.09-4.21,2-1.88,3-4.41,3-7.74,0-1,0-1.92,0-2.88,0-9.64.09-18.75-4.6-23.46-3.17-3.18-8.66-4.73-16.8-4.73H209a5,5,0,0,1,0-10H346c10.93,0,18.75,2.51,23.89,7.67,7.61,7.66,7.56,19.3,7.51,30.57,0,.94,0,1.88,0,2.83a20,20,0,0,1-6.16,15.07C364.61,402.33,354.8,403.05,350.58,403.05Z"/><path class="cls-1" d="M209,350H172c-8.57,0-14.94-2.21-18.95-6.56a15.23,15.23,0,0,1-4.06-10.1l-4.47-29a1.23,1.23,0,0,1,0-.19c-2.12-18.09-10.59-30.15-25.19-35.85A52.3,52.3,0,0,0,97.54,265a4.53,4.53,0,0,1-.52,0H68.57c-9.11,0-16.34-4.25-20.37-12A29.33,29.33,0,0,1,45,241.66a5,5,0,0,1,10-.45c.08,1.43,1.12,13.79,13.56,13.79H96.83c4.41-.32,51.65-2.5,57.59,47.89l4.52,29.35a3.21,3.21,0,0,1,.05,1.11,5.32,5.32,0,0,0,1.54,3.45c2,2.09,6,3.2,11.47,3.2h37a5,5,0,0,1,0,10Z"/><path class="cls-1" d="M479,403H316c-12.95,0-22-10.28-22-25V365c0-14.72,9.05-25,22-25H479c12.95,0,22,10.28,22,25v13C501,392.72,492,403,479,403ZM316,350c-8.85,0-12,7.75-12,15v13c0,7.25,3.15,15,12,15H479c8.85,0,12-7.75,12-15V365c0-7.25-3.15-15-12-15Z"/><path class="cls-1" d="M65,500a4.84,4.84,0,0,1-1.58-.26,5,5,0,0,1-3.16-6.32l32-96a5,5,0,1,1,9.48,3.16l-32,96A5,5,0,0,1,65,500Z"/><path class="cls-1" d="M305,500a4.84,4.84,0,0,1-1.58-.26,5,5,0,0,1-3.16-6.32l32-96a5,5,0,0,1,9.48,3.16l-32,96A5,5,0,0,1,305,500Z"/><path class="cls-1" d="M426,500a4.84,4.84,0,0,1-1.58-.26,5,5,0,0,1-3.16-6.32l32-96a5,5,0,0,1,9.48,3.16l-32,96A5,5,0,0,1,426,500Z"/><path class="cls-1" d="M490,500a5,5,0,0,1-4.74-3.42l-32-96a5,5,0,1,1,9.48-3.16l32,96a5,5,0,0,1-3.16,6.32A4.84,4.84,0,0,1,490,500Z"/><path class="cls-1" d="M261,500a5,5,0,0,1-4.74-3.42l-32-96a5,5,0,1,1,9.48-3.16l32,96a5,5,0,0,1-3.16,6.32A4.84,4.84,0,0,1,261,500Z"/><path class="cls-1" d="M188,500a4.84,4.84,0,0,1-1.58-.26,5,5,0,0,1-3.16-6.32l32-96a5,5,0,0,1,9.48,3.16l-32,96A5,5,0,0,1,188,500Z"/><path class="cls-1" d="M372,500a5,5,0,0,1-4.74-3.42l-32-96a5,5,0,1,1,9.48-3.16l32,96a5,5,0,0,1-3.16,6.32A4.84,4.84,0,0,1,372,500Z"/><path class="cls-1" d="M327,350a5,5,0,0,1-1.72-9.69C325.8,340.11,336,336,336,322c0-14.58-10.43-19.38-10.53-19.43a5,5,0,0,1,2-9.57H456.81c7.16.45,20.69,7.08,20.69,29,0,27.68-21.29,28-21.5,28a5,5,0,0,1,0-10c1.12,0,11.5-.83,11.5-18,0-7.81-2.1-13.58-6.08-16.69a11.44,11.44,0,0,0-5.15-2.31H340.43A32.71,32.71,0,0,1,346,322c0,21.28-16.61,27.46-17.32,27.71A4.91,4.91,0,0,1,327,350Z"/></g><g id="Outline"><path class="cls-1" d="M146.05,192.83a5,5,0,0,1-3.78-8.26l11.5-13.34a5,5,0,1,1,7.57,6.54l-11.5,13.33A5,5,0,0,1,146.05,192.83Z"/><path class="cls-1" d="M118.73,224.5a5,5,0,0,1-3.78-8.27l11.5-13.33a5,5,0,1,1,7.57,6.53l-11.5,13.34A5,5,0,0,1,118.73,224.5Z"/><path class="cls-1" d="M165.64,224.4a5,5,0,0,1-3.16-1.12L146.19,210a5,5,0,1,1,6.32-7.75l16.29,13.28a5,5,0,0,1-3.16,8.87Z"/><path class="cls-1" d="M126.94,192.87a5,5,0,0,1-3.16-1.12l-16.29-13.28a5,5,0,1,1,6.32-7.75L130.1,184a5,5,0,0,1-3.16,8.87Z"/><path class="cls-1" d="M368,132.31h-.28A5,5,0,0,1,363,127l6.25-113.32a5,5,0,0,1,10,.56L373,127.59A5,5,0,0,1,368,132.31Z"/><path class="cls-1" d="M335.66,132.31a5,5,0,0,1-4.93-5.84L350.14,13.16A5,5,0,1,1,360,14.84l-19.4,113.31A5,5,0,0,1,335.66,132.31Z"/><path class="cls-1" d="M400.66,132.31a5,5,0,0,1-5-4.69L388.62,14.31a5,5,0,0,1,10-.62l7,113.31a5,5,0,0,1-4.67,5.3Z"/><path class="cls-1" d="M433.06,132.31a5,5,0,0,1-4.93-4.16L408.73,14.84a5,5,0,1,1,9.85-1.68L438,126.47a5,5,0,0,1-4.93,5.84Z"/><path class="cls-1" d="M470.5,319h-126a5,5,0,0,1,0-10h126a5,5,0,0,1,0,10Z"/><path class="cls-1" d="M470.5,335h-126a5,5,0,0,1,0-10h126a5,5,0,0,1,0,10Z"/></g></svg>