<?xml version="1.0" ?><svg viewBox="0 0 512 512" xmlns="http://www.w3.org/2000/svg"><defs><style>.cls-1{fill:#3f456b;}</style></defs><title/><g id="Lines"><path class="cls-1" d="M157,184a5,5,0,0,1-4.84-6.26c9.05-34.72,34-61.5,68.58-73.47a5,5,0,0,1,3.28,9.45c-31.33,10.86-54,35.11-62.18,66.54A5,5,0,0,1,157,184Z"/><path class="cls-1" d="M355.49,182.79a5,5,0,0,1-4.8-3.61,98.47,98.47,0,0,0-62.23-65.46,5,5,0,0,1,3.28-9.45,108.49,108.49,0,0,1,68.55,72.12,5,5,0,0,1-3.4,6.2A4.88,4.88,0,0,1,355.49,182.79Z"/><path class="cls-1" d="M489,382h-8a5,5,0,0,1,0-10h8a5,5,0,0,0,5-5V322a5,5,0,0,0-5-5h-8a5,5,0,0,1,0-10h8a15,15,0,0,1,15,15v45A15,15,0,0,1,489,382Z"/><path class="cls-1" d="M424.5,482H91.5A15.9,15.9,0,0,1,76,466.5V459a5,5,0,0,1,10,0v7.5a5.87,5.87,0,0,0,5.5,5.5h333c2.78,0,4.5-2.85,4.5-5.5V459a5,5,0,0,1,10,0v7.5C439,475.05,432.5,482,424.5,482Z"/><path class="cls-1" d="M33,382H25a15,15,0,0,1-15-15V322a15,15,0,0,1,15-15h8a5,5,0,0,1,0,10H25a5,5,0,0,0-5,5v45a5,5,0,0,0,5,5h8a5,5,0,0,1,0,10Z"/><path class="cls-1" d="M431,464H83a55.06,55.06,0,0,1-55-55V285a55.06,55.06,0,0,1,55-55H431a55.06,55.06,0,0,1,55,55V409A55.06,55.06,0,0,1,431,464ZM83,240a45.05,45.05,0,0,0-45,45V409a45.05,45.05,0,0,0,45,45H431a45.05,45.05,0,0,0,45-45V285a45.05,45.05,0,0,0-45-45Z"/><path class="cls-1" d="M434,240a5,5,0,0,1-5-5V209a25,25,0,0,0-25-25H112a25,25,0,0,0-25,25v26a5,5,0,0,1-10,0V209a35,35,0,0,1,35-35H404a35,35,0,0,1,35,35v26A5,5,0,0,1,434,240Z"/><path class="cls-1" d="M289,184a5,5,0,0,1-5-5V51c0-3-1-4.64-1.41-5H231.27c-.5.1-2.27,1.86-2.27,5V179a5,5,0,0,1-10,0V51c0-8.13,5.62-15,12.27-15h51.46C289.26,36,294,42.31,294,51V179A5,5,0,0,1,289,184Z"/></g><g id="Outline"><path class="cls-1" d="M134.84,135.24h0a5,5,0,0,1-5-5A31.31,31.31,0,0,1,161.11,99a5,5,0,0,1,0,10,21.3,21.3,0,0,0-21.27,21.26A5,5,0,0,1,134.84,135.24Z"/><path class="cls-1" d="M101.06,135.24a5,5,0,0,1-5-5,65,65,0,0,1,65.05-65.05h0a5,5,0,0,1,0,10h0a55,55,0,0,0-55.05,55.05A5,5,0,0,1,101.06,135.24Z"/><path class="cls-1" d="M66,135.24a5,5,0,0,1-5-5A100.09,100.09,0,0,1,161.11,30.17h0a5,5,0,0,1,0,10h0A90.08,90.08,0,0,0,71,130.24,5,5,0,0,1,66,135.24Z"/><path class="cls-1" d="M57,397a5,5,0,0,1,5-5h0a5,5,0,0,1,5,5h0a5,5,0,0,1-5,5h0A5,5,0,0,1,57,397Zm0-20a5,5,0,0,1,5-5h0a5,5,0,0,1,5,5h0a5,5,0,0,1-5,5h0A5,5,0,0,1,57,377Zm0-20a5,5,0,0,1,5-5h0a5,5,0,0,1,5,5h0a5,5,0,0,1-5,5h0A5,5,0,0,1,57,357Zm0-20a5,5,0,0,1,5-5h0a5,5,0,0,1,5,5h0a5,5,0,0,1-5,5h0A5,5,0,0,1,57,337Zm0-20a5,5,0,0,1,5-5h0a5,5,0,0,1,5,5h0a5,5,0,0,1-5,5h0A5,5,0,0,1,57,317Zm0-20a5,5,0,0,1,5-5h0a5,5,0,0,1,5,5h0a5,5,0,0,1-5,5h0A5,5,0,0,1,57,297Z"/><path class="cls-1" d="M448,397a5,5,0,0,1,5-5h0a5,5,0,0,1,5,5h0a5,5,0,0,1-5,5h0A5,5,0,0,1,448,397Zm0-20a5,5,0,0,1,5-5h0a5,5,0,0,1,5,5h0a5,5,0,0,1-5,5h0A5,5,0,0,1,448,377Zm0-20a5,5,0,0,1,5-5h0a5,5,0,0,1,5,5h0a5,5,0,0,1-5,5h0A5,5,0,0,1,448,357Zm0-20a5,5,0,0,1,5-5h0a5,5,0,0,1,5,5h0a5,5,0,0,1-5,5h0A5,5,0,0,1,448,337Zm0-20a5,5,0,0,1,5-5h0a5,5,0,0,1,5,5h0a5,5,0,0,1-5,5h0A5,5,0,0,1,448,317Zm0-20a5,5,0,0,1,5-5h0a5,5,0,0,1,5,5h0a5,5,0,0,1-5,5h0A5,5,0,0,1,448,297Z"/><path class="cls-1" d="M229,212h-1a5,5,0,0,1,0-10h1a5,5,0,0,1,0,10Z"/><path class="cls-1" d="M259,212h-1a5,5,0,0,1,0-10h1a5,5,0,0,1,0,10Z"/><path class="cls-1" d="M288,212h-1a5,5,0,0,1,0-10h1a5,5,0,0,1,0,10Z"/><path class="cls-1" d="M284.54,370H228.46C216.83,370,207,359.75,207,347.62v-.24c0-12.13,9.83-22.38,21.46-22.38h56.08c11.28,0,20.46,10,20.46,22.38v.24C305,360,295.82,370,284.54,370Zm-56.08-35c-6.1,0-11.46,5.79-11.46,12.38v.24c0,6.59,5.36,12.38,11.46,12.38h56.08c5.77,0,10.46-5.55,10.46-12.38v-.24c0-6.83-4.69-12.38-10.46-12.38Z"/></g></svg>