<?xml version="1.0" ?><svg viewBox="0 0 512 512" xmlns="http://www.w3.org/2000/svg"><defs><style>.cls-1{fill:#3f456b;}</style></defs><title/><g id="Lines"><path class="cls-1" d="M196.9,257.33a5,5,0,0,1-5-4.43l-1.11-9.62a25.77,25.77,0,0,1,22.95-28.37l67.11-7a5,5,0,0,1,1,9.95l-67.11,7a15.77,15.77,0,0,0-14,17.32l1.11,9.58a5,5,0,0,1-4.4,5.54A5.63,5.63,0,0,1,196.9,257.33Z"/><path class="cls-1" d="M322.87,188.54a5,5,0,0,1-4-7.95l33.63-46.15a25.78,25.78,0,0,1,36-5.65L418.4,150.6a5,5,0,1,1-5.89,8.08l-29.92-21.81a15.79,15.79,0,0,0-22,3.46l-33.63,46.15A5,5,0,0,1,322.87,188.54Z"/><path class="cls-1" d="M128,207a4.66,4.66,0,0,1-1.16-.14l-30.34-7.2c-.38-.09-.7-.16-1-.22a5,5,0,1,1,1.8-9.84c.53.1,1.06.21,1.6.34l30.29,7.2A5,5,0,0,1,128,207Z"/><path class="cls-1" d="M110.39,256.49a5,5,0,0,1-5-4.45,25.83,25.83,0,0,1,2-13.1l26.08-60a25.76,25.76,0,0,1,33.91-13.37l65.73,28.55a25.83,25.83,0,0,1,15.41,21.28,5,5,0,1,1-10,.92,15.78,15.78,0,0,0-9.43-13L163.4,174.72a15.76,15.76,0,0,0-20.75,8.18l-26.07,60a15.77,15.77,0,0,0-1.22,8,5,5,0,0,1-4.42,5.53A5.07,5.07,0,0,1,110.39,256.49Z"/><path class="cls-1" d="M284,257.55a5,5,0,0,1-5-4.76l-2.21-45a25.77,25.77,0,0,1,24.49-27l71.58-3.51a25.79,25.79,0,0,1,27,24.48l2.41,49.28a5,5,0,1,1-10,.49l-2.41-49.28a15.78,15.78,0,0,0-16.53-15l-71.58,3.5a15.79,15.79,0,0,0-15,16.53l2.2,45a5,5,0,0,1-4.75,5.24Z"/><path class="cls-1" d="M430.69,501H80.31A37.36,37.36,0,0,1,43,463.69V47.31A37.36,37.36,0,0,1,80.31,10H430.69A37.36,37.36,0,0,1,468,47.31V463.69A37.36,37.36,0,0,1,430.69,501ZM80.31,20A27.34,27.34,0,0,0,53,47.31V463.69A27.34,27.34,0,0,0,80.31,491H430.69A27.34,27.34,0,0,0,458,463.69V47.31A27.34,27.34,0,0,0,430.69,20Z"/><path class="cls-1" d="M396,258H116a25,25,0,0,1-25-25V87a25,25,0,0,1,25-25H396a25,25,0,0,1,25,25V233A25,25,0,0,1,396,258ZM116,72a15,15,0,0,0-15,15V233a15,15,0,0,0,15,15H396a15,15,0,0,0,15-15V87a15,15,0,0,0-15-15Z"/></g><g id="Outline"><path class="cls-1" d="M17.22,291.5a5,5,0,0,1-3.28-8.78c.91-.81,2.82-3.13,2.72-4.92-.06-1-.89-2.1-2.47-3.22-5.35-3.78-6.59-8.05-6.69-11-.24-6.95,5.61-11.94,6.27-12.49a5,5,0,0,1,6.36,7.72c-.86.73-2.7,2.84-2.64,4.44.05,1.18,1.38,2.35,2.47,3.13,5.26,3.72,6.54,8,6.68,10.9.35,7.1-5.48,12.38-6.15,13A5,5,0,0,1,17.22,291.5Z"/><path class="cls-1" d="M17.5,323.5a5,5,0,0,1-3.28-8.77c.91-.82,2.82-3.14,2.72-4.93-.06-1-.89-2.1-2.47-3.22-5.35-3.78-6.59-8.05-6.69-11-.24-6.95,5.61-11.94,6.27-12.49a5,5,0,0,1,6.36,7.72c-.86.73-2.7,2.84-2.63,4.44,0,1.18,1.37,2.35,2.47,3.13,5.25,3.72,6.53,8,6.68,10.9.35,7.1-5.49,12.38-6.15,13A5,5,0,0,1,17.5,323.5Z"/><path class="cls-1" d="M17.78,355.5a5,5,0,0,1-3.28-8.78c.91-.81,2.82-3.13,2.72-4.92-.06-1-.89-2.1-2.47-3.22-5.34-3.78-6.59-8.05-6.69-11-.24-7,5.61-11.95,6.28-12.49a5,5,0,0,1,6.35,7.72c-.86.73-2.7,2.84-2.63,4.43.05,1.19,1.37,2.36,2.47,3.14,5.26,3.72,6.53,8,6.68,10.9.35,7.1-5.49,12.38-6.15,12.95A5,5,0,0,1,17.78,355.5Z"/><path class="cls-1" d="M18.06,387.5a5,5,0,0,1-3.28-8.78c.92-.82,2.82-3.13,2.72-4.92-.06-1-.89-2.1-2.47-3.22-5.34-3.78-6.58-8.05-6.69-11-.24-7,5.61-11.95,6.28-12.49A5,5,0,0,1,21,354.85c-.86.72-2.71,2.84-2.64,4.43.05,1.18,1.37,2.36,2.47,3.14,5.26,3.72,6.53,8,6.68,10.9.35,7.1-5.49,12.38-6.15,12.95A5,5,0,0,1,18.06,387.5Z"/><path class="cls-1" d="M495.22,77.5a5,5,0,0,1-3.28-8.78c.91-.81,2.82-3.13,2.72-4.92-.06-1-.89-2.1-2.47-3.22-5.35-3.78-6.59-8-6.69-11-.24-6.95,5.61-11.94,6.27-12.49a5,5,0,0,1,6.36,7.72c-.86.73-2.7,2.84-2.64,4.44.05,1.18,1.38,2.35,2.47,3.13,5.26,3.72,6.54,8,6.68,10.9.35,7.1-5.48,12.38-6.15,13A5,5,0,0,1,495.22,77.5Z"/><path class="cls-1" d="M495.5,109.5a5,5,0,0,1-3.28-8.77c.91-.82,2.82-3.14,2.72-4.93-.06-1-.89-2.1-2.47-3.22-5.35-3.78-6.59-8-6.69-11-.24-7,5.61-11.94,6.27-12.49a5,5,0,0,1,6.36,7.72c-.86.73-2.7,2.84-2.63,4.44.05,1.18,1.37,2.35,2.47,3.13,5.25,3.72,6.53,8,6.68,10.9.35,7.1-5.49,12.38-6.15,13A5,5,0,0,1,495.5,109.5Z"/><path class="cls-1" d="M495.78,141.5a5,5,0,0,1-3.28-8.78c.91-.81,2.82-3.13,2.72-4.92-.06-1-.89-2.1-2.47-3.22-5.34-3.78-6.59-8-6.69-11-.24-7,5.61-12,6.28-12.49a5,5,0,0,1,6.35,7.72c-.86.73-2.7,2.84-2.63,4.43.05,1.19,1.37,2.36,2.47,3.14,5.26,3.72,6.53,8,6.68,10.9.35,7.1-5.49,12.38-6.15,13A5,5,0,0,1,495.78,141.5Z"/><path class="cls-1" d="M496.06,173.5a5,5,0,0,1-3.28-8.78c.92-.82,2.82-3.13,2.72-4.92-.06-1-.89-2.1-2.47-3.22-5.34-3.78-6.58-8.05-6.69-11-.24-7,5.61-12,6.28-12.49a5,5,0,0,1,6.36,7.72c-.86.72-2.71,2.84-2.64,4.43.05,1.18,1.37,2.36,2.47,3.14,5.26,3.72,6.53,8,6.68,10.9.35,7.1-5.49,12.38-6.15,13A5,5,0,0,1,496.06,173.5Z"/><path class="cls-1" d="M462,423.83H419a5,5,0,0,1,0-10h43a5,5,0,0,1,0,10Z"/><path class="cls-1" d="M462,454H419a5,5,0,0,1,0-10h43a5,5,0,0,1,0,10Z"/><path class="cls-1" d="M462,308H419a5,5,0,0,1,0-10h43a5,5,0,0,1,0,10Z"/><path class="cls-1" d="M462,337H419a5,5,0,0,1,0-10h43a5,5,0,0,1,0,10Z"/><path class="cls-1" d="M462,365.92H419a5,5,0,0,1,0-10h43a5,5,0,0,1,0,10Z"/><path class="cls-1" d="M462,394.88H419a5,5,0,0,1,0-10h43a5,5,0,0,1,0,10Z"/><path class="cls-1" d="M91,423.83H48a5,5,0,0,1,0-10H91a5,5,0,0,1,0,10Z"/><path class="cls-1" d="M91,454H48a5,5,0,0,1,0-10H91a5,5,0,0,1,0,10Z"/><path class="cls-1" d="M91,308H48a5,5,0,0,1,0-10H91a5,5,0,0,1,0,10Z"/><path class="cls-1" d="M91,337H48a5,5,0,0,1,0-10H91a5,5,0,0,1,0,10Z"/><path class="cls-1" d="M91,365.92H48a5,5,0,0,1,0-10H91a5,5,0,0,1,0,10Z"/><path class="cls-1" d="M91,394.88H48a5,5,0,0,1,0-10H91a5,5,0,0,1,0,10Z"/><path class="cls-1" d="M321,367H190a5,5,0,0,1,0-10H321a5,5,0,0,1,0,10Z"/><path class="cls-1" d="M222.81,423.61a5,5,0,0,1-4.32-7.5l65.36-113.22a5,5,0,0,1,8.66,5L227.15,421.11A5,5,0,0,1,222.81,423.61Z"/><path class="cls-1" d="M288.19,423.61a5,5,0,0,1-4.34-2.5L218.49,307.89a5,5,0,0,1,8.66-5l65.36,113.22a5,5,0,0,1-4.32,7.5Z"/></g></svg>