<?xml version="1.0" ?><svg id="Lines" viewBox="0 0 512 512" xmlns="http://www.w3.org/2000/svg"><defs><style>.cls-1{fill:#3f456b;}</style></defs><title/><path class="cls-1" d="M263.76,408.34q-4.93,0-9.91-.26c-29.93-1.58-58.68-10.22-81-24.32-29.74-18.82-51.2-52.47-58.89-92.32a190,190,0,0,1,12.58-111.3c16-36.55,43.24-65.19,76.61-80.67,3.69-2,48.06-25.87,109.07-22.8.51,0,13.83.64,21.09,9.51,3.9,4.77,5.3,10.8,4.15,17.91-2.7,16.75-9.54,53-12,66.11a102.86,102.86,0,0,1,49.46,27.61c23,23.22,33.43,56.29,29.45,93.11-4.75,43.85-30.06,81.62-67.72,101.05C316,402.64,290.42,408.34,263.76,408.34ZM301.6,86.4c-54.3,0-93.27,21.65-93.68,21.88l-.37.19c-31.69,14.64-56.52,40.81-71.82,75.68a180,180,0,0,0-11.92,105.39c7.17,37.16,27,68.42,54.42,85.77,43.25,27.37,109.39,30.71,153.85,7.78,34.66-17.89,58-52.75,62.35-93.25,3.66-33.77-5.79-63.95-26.61-85-13.09-13.24-29.77-22-48.67-25.8l-.45-.06c-.17,0-.33-.08-.49-.12a117.45,117.45,0,0,0-33.7-1.39c-31.08,3-54.78,15-68.55,34.74-12.68,18.16-16.17,41.6-9.82,66,6.25,24,25.26,40.9,49.61,44,22.25,2.84,48.92-3.06,58.33-22.66,7.78-16.21.6-38.92-14.79-46.73-11.17-5.68-24.31-5.56-32,.28-5,3.8-6.81,9.59-5.32,16.74,1.06,5.12,3,8.33,5.83,9.53,4.77,2,11.91-1.31,14.26-2.77a5,5,0,0,1,5.32,8.47c-1.3.82-13.06,7.93-23.47,3.51-6-2.55-10-8.17-11.73-16.7-2.29-11,.92-20.51,9-26.72,10.74-8.22,27.84-8.72,42.55-1.26,20.23,10.28,29.42,38.86,19.27,60-11.57,24.09-42.79,31.54-68.6,28.25-28.5-3.64-50.73-23.34-58-51.42-7.1-27.29-3.08-53.66,11.31-74.26,15.49-22.18,41.69-35.65,75.77-39a129.83,129.83,0,0,1,32.12.75c2.48-13.09,9.28-49.17,12-65.77.68-4.21,0-7.47-2-10-3.63-4.47-11.22-5.76-13.83-5.89Q306.61,86.4,301.6,86.4Z"/><path class="cls-1" d="M313.75,263.49h-.51a5,5,0,0,1,.31-10c.85,0,20.72.29,28.78-18.62a5,5,0,1,1,9.19,3.92C341.42,262.5,317.64,263.49,313.75,263.49Z"/><path class="cls-1" d="M346.29,309.12H346c-19.11-1.15-28.2-9.47-28.58-9.82a5,5,0,0,1,6.8-7.33c.2.18,7.29,6.26,22.38,7.17a5,5,0,0,1-.3,10Z"/><path class="cls-1" d="M334.37,392.53a5,5,0,0,1-3.53-1.46c-20.17-20.06-25.46-41.39-25.68-42.29a5,5,0,0,1,9.72-2.34c.06.26,5,19.61,23,37.54a5,5,0,0,1,0,7.07A4.94,4.94,0,0,1,334.37,392.53Z"/><path class="cls-1" d="M196.25,395.22a5,5,0,0,1-2.87-9.1c35.92-25.08,37.93-64,38-64.39a5,5,0,0,1,10,.42c-.07,1.79-2.28,44.29-42.21,72.17A5,5,0,0,1,196.25,395.22Z"/><path class="cls-1" d="M185.62,328.36a5,5,0,0,1-1.94-9.61c17.92-7.55,23.2-18.59,23.41-19.06a5,5,0,0,1,9.13,4.08c-.26.61-6.83,15-28.66,24.2A5.09,5.09,0,0,1,185.62,328.36Z"/><path class="cls-1" d="M208.11,169.94a5,5,0,0,1-3.33-1.27c-27.05-24.21-31.2-46.44-31.36-47.38a5,5,0,0,1,9.85-1.74c0,.14,1,5.08,4.88,12.58,3.63,7,10.61,17.73,23.3,29.09a5,5,0,0,1-3.34,8.72Z"/><path class="cls-1" d="M267.66,180a5,5,0,0,1-4.7-3.27c-10.74-29.2-9.28-65-9.21-66.54a5,5,0,0,1,10,.44c0,.35-1.42,35.37,8.61,62.65a5,5,0,0,1-4.69,6.72Z"/><path class="cls-1" d="M158.55,212h-.28a98.87,98.87,0,0,1-35.57-9.19,5,5,0,0,1,4.51-8.93,90.19,90.19,0,0,0,31.6,8.14,5,5,0,0,1-.26,10Z"/><path class="cls-1" d="M162.65,267.57c-12.32,0-17.17-1.89-18-2.23l4-9.16-.12,0c.12,0,11.75,4.27,48.72-2.09a5,5,0,1,1,1.7,9.86C182.77,266.7,171,267.57,162.65,267.57Z"/><path class="cls-1" d="M123.7,314.25a5,5,0,0,1,0-10h0c.19,0,19-.28,30.2-6.94a5,5,0,0,1,5.11,8.6c-13.55,8-34.33,8.34-35.21,8.34Z"/><path class="cls-1" d="M287.71,220.56a5.24,5.24,0,0,1-1.11-.12,5,5,0,0,1-3.78-6c5.38-23.87-3.07-39.37-3.16-39.52a5,5,0,0,1,8.73-4.88c.43.76,10.4,19,4.19,46.6A5,5,0,0,1,287.71,220.56Z"/><path class="cls-1" d="M260.56,257.89a5,5,0,0,1-3.8-1.75c-.41-.46-8.62-9.53-27.37-9.77a5,5,0,1,1,.13-10c23.66.31,34.42,12.77,34.86,13.3a5,5,0,0,1-3.82,8.22Z"/><path class="cls-1" d="M224,319.55a5,5,0,0,1-4.57-7c.3-.67,7.43-16.51,24.16-20.81a5,5,0,1,1,2.49,9.68c-12.07,3.11-17.44,15-17.5,15.16A5,5,0,0,1,224,319.55Z"/><path class="cls-1" d="M366.42,275.94a5,5,0,0,1-.2-10c23.11-.9,29.58-5.76,29.62-5.81a5,5,0,0,1,7.53,6.59c-1.18,1.35-8.49,8.11-36.76,9.21Z"/><path class="cls-1" d="M325.39,500.23a60.31,60.31,0,0,1-6.95-.42c-22.5-2.57-45.26-5.86-67.28-9L231.94,488q-27-3.82-53.95-7.71c-22.63-3.26-46.16-25.57-60.63-45.36a5,5,0,1,1,8.08-5.9c12.66,17.32,34.39,38.54,54,41.36q27,3.88,53.92,7.71,9.63,1.36,19.25,2.76c21.94,3.17,44.63,6.44,67,9,9.74,1.12,16.79-.32,21.55-4.4,5.78-4.94,8.63-13.94,9.25-29.16.95-23.41,17.62-40,19.6-41.85,2.9-3.17,55.28-60.35,79.64-89.83,23.81-28.83,22.18-79.86,22.16-80.37,0-.2,0-.4,0-.61.05-.5,4.29-51.25,5.21-100.51.3-16-3-26.93-10.17-33.46-10.94-10-30.48-8.79-49.55-6.7a56,56,0,0,1-6,.33c-29.61,0-44.61-25-46.5-28.35-2-2.71-19.76-27.17-32.53-41.79-11.75-13.45-36-9.76-36.28-9.72l-.26,0L166.43,37.34C150.1,39.09,137.09,53.9,137,54a4.91,4.91,0,0,1-.51.51c-.72.62-72.2,62.48-90.27,78.27-15,13.15-5,31.26-4.58,32a4.78,4.78,0,0,1,.23.45L65.47,219a4.93,4.93,0,0,1,.32,3.05c-.11.52-11,51.85-15.79,76.63-4.44,22.66,8.8,40.68,8.94,40.86l43.4,59.36a5,5,0,0,1-8.08,5.91L50.9,345.45c-.62-.83-16-21.75-10.72-48.72,4.38-22.39,13.63-66.33,15.49-75.2l-22.89-52c-5-9.06-9.93-29.63,6.82-44.27C57.15,110,125,51.25,129.66,47.2c2.16-2.4,16.68-17.77,35.71-19.8L294.54,13.57c2.55-.39,30.24-4.17,45.26,13,13.77,15.77,32.49,41.67,33.28,42.76.13.19.25.38.36.58.57,1.06,14.47,26.2,42.74,23.11,21.35-2.34,43.36-3.55,57.38,9.26,9.4,8.58,13.79,22,13.43,41-.9,47.63-4.87,96.61-5.22,100.87.15,4.93,1,56-24.45,86.8-25.1,30.37-79.56,89.76-80.11,90.35a3.83,3.83,0,0,1-.28.29c-.15.14-15.75,14.92-16.57,35.08-.5,12.27-2.4,27.5-12.74,36.35C342.07,497.83,334.61,500.23,325.39,500.23Z"/><path class="cls-1" d="M214,211.4a5,5,0,0,1-1.88-.37c-21.66-8.79-37.25-28.49-37.9-29.32a5,5,0,0,1,7.87-6.17h0c.14.19,14.65,18.46,33.79,26.22A5,5,0,0,1,214,211.4Z"/><path class="cls-1" d="M301.56,253.4a5,5,0,0,1-2.94-9.05c38.21-27.72,29.8-64,29.43-65.56a5,5,0,0,1,9.7-2.44c.45,1.8,10.59,44.28-33.26,76.1A5,5,0,0,1,301.56,253.4Z"/><path class="cls-1" d="M268.09,385.55a5,5,0,0,1-5-4.58,251.1,251.1,0,0,1,1.08-53.87,5,5,0,0,1,9.89,1.51,245.35,245.35,0,0,0-1,51.51,5,5,0,0,1-4.56,5.41Z"/><path class="cls-1" d="M432.5,191a5.12,5.12,0,0,1-.67,0L407,187.62a5,5,0,0,1,1.33-9.91l21.38,2.87,9.54-18a5,5,0,0,1,4.82-2.64L481.68,163a5,5,0,1,1-.81,10l-34.33-2.8-9.62,18.15A5,5,0,0,1,432.5,191Z"/><path class="cls-1" d="M121.4,437a5,5,0,0,1-4.07-7.9L134.45,405l-35.9,1.81a5,5,0,0,1-.5-10l46.2-2.32a5,5,0,0,1,4.33,7.89l-23.1,32.5A5,5,0,0,1,121.4,437Z"/><path class="cls-1" d="M218.67,442.33h-33a5,5,0,0,1-4.51-2.83l-8.46-17.63L142,403.81a5,5,0,0,1,5.08-8.62L179,414a5.05,5.05,0,0,1,2,2.15l7.75,16.16h29.91a5,5,0,1,1,0,10Z"/><path class="cls-1" d="M120.25,136.25a5,5,0,0,1-2.64-9.25l5.77-3.58-5.31-14.16a5,5,0,0,1,.13-3.83l11.42-25.08L116.48,65.24A5,5,0,0,1,124,58.68l15.25,17.54a5,5,0,0,1,.78,5.35l-11.89,26.12,6,16a5,5,0,0,1-2,6l-9.25,5.75A5,5,0,0,1,120.25,136.25Z"/><path class="cls-1" d="M154.75,94a4.88,4.88,0,0,1-2.21-.52L133.29,84a5,5,0,1,1,4.42-9L155,83.52l33.67-13.65a5,5,0,0,1,4.55.4l11.5,7.25A5,5,0,0,1,199.33,86L190,80.1,156.63,93.63A4.88,4.88,0,0,1,154.75,94Z"/><path class="cls-1" d="M72.5,270.8h-21a5,5,0,0,1,0-10h19l9.56-9a5,5,0,1,1,6.84,7.3l-11,10.3A5,5,0,0,1,72.5,270.8Z"/><path class="cls-1" d="M436.59,310.72A4.94,4.94,0,0,1,434,310l-13.45-8.24-21.28,2.56a5,5,0,1,1-1.19-9.93l23-2.76a5,5,0,0,1,3.21.7l14.93,9.15a5,5,0,0,1-2.62,9.26Z"/><path class="cls-1" d="M88.5,369.75a4.91,4.91,0,0,1-1.68-.29,5,5,0,0,1-3-6.39c3.09-8.66,7.79-14.22,13.95-16.53a19.28,19.28,0,0,1,15.45,1.1l.13.07c5.42,3.25,13,6.63,15.46,6.54s8.43-4.09,12.41-7.61a5,5,0,1,1,6.62,7.5c-1.85,1.63-11.44,9.79-18.59,10.11-6.65.29-17.57-5.89-20.93-7.9a9.58,9.58,0,0,0-7.12-.42c-3.2,1.25-6,4.88-8,10.5A5,5,0,0,1,88.5,369.75Z"/></svg>