<?xml version="1.0" ?><svg viewBox="0 0 512 512" xmlns="http://www.w3.org/2000/svg"><defs><style>.cls-1{fill:#3f456b;}</style></defs><title/><g id="Lines"><path class="cls-1" d="M258.31,207.33c-30.13,0-34.63-10.44-34.63-16.66,0-3.08,1.54-8.85,11.85-12.91,6.16-2.42,14.25-3.76,22.78-3.76s16.61,1.34,22.78,3.76c10.3,4.06,11.84,9.83,11.84,12.91C292.93,196.89,288.43,207.33,258.31,207.33Zm0-23.33c-15.86,0-24.16,4.87-24.63,6.72,0,3.18,8.63,6.61,24.63,6.61s24.56-3.41,24.62-6.63C282.4,188.83,274.11,184,258.31,184Z"/><path class="cls-1" d="M392.71,197.08c-30.12,0-34.62-10.45-34.62-16.67,0-3.08,1.54-8.84,11.84-12.9,6.17-2.43,14.26-3.77,22.78-3.77s16.62,1.34,22.79,3.77c10.3,4.06,11.84,9.82,11.84,12.9C427.34,186.63,422.84,197.08,392.71,197.08Zm0-23.34c-15.85,0-24.15,4.87-24.63,6.73,0,3.17,8.64,6.61,24.63,6.61s24.57-3.41,24.63-6.64C416.81,178.58,408.51,173.74,392.71,173.74Z"/><path class="cls-1" d="M119.63,197.08C89.5,197.08,85,186.63,85,180.41c0-3.08,1.54-8.84,11.85-12.9,6.16-2.43,14.25-3.77,22.78-3.77s16.61,1.34,22.78,3.77c10.3,4.06,11.84,9.82,11.84,12.9C154.25,186.63,149.75,197.08,119.63,197.08Zm0-23.34c-15.86,0-24.16,4.87-24.63,6.73,0,3.17,8.63,6.61,24.63,6.61s24.56-3.41,24.62-6.64C143.72,178.58,135.42,173.74,119.63,173.74Z"/><path class="cls-1" d="M251.69,157.87c-76.12,0-116.67-17.16-118.39-17.9a5,5,0,0,1-3-4.62,125.66,125.66,0,1,1,251.31,1.72,5,5,0,0,1-3.31,4.67c-1.75.63-43.74,15.46-122.38,16.11ZM140.36,132c10.95,3.95,50.73,16.41,115.47,15.88,40.1-.33,70.34-4.54,88.65-8a264,264,0,0,0,27.09-6.45A115.66,115.66,0,0,0,140.36,132ZM376.6,137h0Z"/><path class="cls-1" d="M257.34,276.5C49.47,276.5,13.46,209.1,12,206.23a5,5,0,0,1,.07-4.61C25.77,176.31,51.31,156.16,86,143.34a212.53,212.53,0,0,1,48.44-11.82,5,5,0,1,1,1,10h0a206,206,0,0,0-46.16,11.33c-21.8,8.1-50.78,23.47-66.87,51,3.49,4.86,14.4,17.52,40.52,30.1,55.87,26.91,136.61,32.56,194.5,32.56a5,5,0,0,1,0,10Z"/><path class="cls-1" d="M255.75,276.5a5,5,0,0,1,0-10c57.89,0,138.63-5.65,194.5-32.56,26.09-12.56,37-25.21,40.51-30.1-9.29-15.88-28.35-36.78-67.09-51.12a204.72,204.72,0,0,0-45.92-11.24,5,5,0,1,1,.95-10,212.41,212.41,0,0,1,48.44,11.82c34.64,12.82,60.18,33,73.85,58.28a5,5,0,0,1,.07,4.61C499.63,209.1,463.62,276.5,255.75,276.5Z"/><path class="cls-1" d="M256.5,236c-55,0-133-2.36-192.92-13.59-36.39-6.82-49-13.76-49.53-14a5,5,0,0,1,4.88-8.73h0c.48.26,50.25,26.37,237.57,26.37s237.18-26.11,237.67-26.37a5,5,0,0,1,4.87,8.73c-.52.29-13.16,7.23-49.57,14C389.54,233.64,311.46,236,256.5,236Z"/><path class="cls-1" d="M256,303c-32.58,0-75.2-3.89-93.18-22.43-7.33-7.57-7.34-14.38-7.32-15.14l10,.31v-.16c0,.28,2,27.42,90.5,27.42,48.59,0,71.22-8.35,81.65-15.35,9.27-6.23,9.85-12,9.85-12a5,5,0,0,1,10,0c0,1.1-.4,11-14.28,20.35C326.38,297.26,297,303,256,303Z"/><path class="cls-1" d="M104.2,78.56h-.4A20.83,20.83,0,1,1,125,58.14h0A20.84,20.84,0,0,1,104.2,78.56Zm0-31.64A10.82,10.82,0,1,0,115,58l5,.09L115,58a10.82,10.82,0,0,0-10.61-11Z"/><rect class="cls-1" height="78.07" rx="5" ry="5" width="10" x="99.18" y="68.74"/><path class="cls-1" d="M255.75,500.75c-50.61,0-98.25-4.12-134.13-11.6C82.39,481,62.5,470,62.5,456.5a5,5,0,0,1,10,0c0,4.53,10.78,14.44,51.16,22.86,35.23,7.34,82.14,11.39,132.09,11.39s96.86-4.05,132.09-11.39C428.23,470.94,439,461,439,456.5a5,5,0,0,1,10,0c0,13.49-19.89,24.47-59.12,32.65C354,496.63,306.37,500.75,255.75,500.75Z"/><path class="cls-1" d="M69.67,455.52a5,5,0,0,1-4.18-7.74L173.85,282.57a5,5,0,0,1,8.36,5.48L73.85,453.26A5,5,0,0,1,69.67,455.52Z"/><path class="cls-1" d="M442.32,455.52a5,5,0,0,1-4.18-2.26L329.78,288.05a5,5,0,0,1,8.36-5.48L446.5,447.78a5,5,0,0,1-4.18,7.74Z"/></g><g id="Outline"><path class="cls-1" d="M258.31,466.67a5,5,0,0,1-5-5v-3a5,5,0,0,1,10,0v3A5,5,0,0,1,258.31,466.67Zm0-23a5,5,0,0,1-5-5v-3a5,5,0,0,1,10,0v3A5,5,0,0,1,258.31,443.67Zm0-23a5,5,0,0,1-5-5v-3a5,5,0,0,1,10,0v3A5,5,0,0,1,258.31,420.67Zm0-23a5,5,0,0,1-5-5v-3a5,5,0,0,1,10,0v3A5,5,0,0,1,258.31,397.67Zm0-23a5,5,0,0,1-5-5v-3a5,5,0,0,1,10,0v3A5,5,0,0,1,258.31,374.67Zm0-23a5,5,0,0,1-5-5v-3a5,5,0,0,1,10,0v3A5,5,0,0,1,258.31,351.67Zm0-23a5,5,0,0,1-5-5v-3a5,5,0,0,1,10,0v3A5,5,0,0,1,258.31,328.67Z"/><path class="cls-1" d="M352.1,460.23a5,5,0,0,1-4.77-3.5l-.89-2.87a5,5,0,1,1,9.54-3l.9,2.86A5,5,0,0,1,353.6,460,5.19,5.19,0,0,1,352.1,460.23Zm-6.87-22a5,5,0,0,1-4.77-3.5l-.89-2.87a5,5,0,1,1,9.54-3l.9,2.86a5,5,0,0,1-3.28,6.26A4.88,4.88,0,0,1,345.23,438.28Zm-6.86-21.95a5,5,0,0,1-4.77-3.5l-.9-2.87a5,5,0,1,1,9.54-3l.9,2.86a5,5,0,0,1-3.28,6.26A4.82,4.82,0,0,1,338.37,416.33Zm-6.87-21.95a5,5,0,0,1-4.77-3.5l-.9-2.87a5,5,0,0,1,9.55-3l.89,2.87a5,5,0,0,1-3.28,6.26A4.82,4.82,0,0,1,331.5,394.38Zm-6.87-21.95a5,5,0,0,1-4.77-3.51l-.9-2.86a5,5,0,0,1,9.55-3l.89,2.86a5,5,0,0,1-3.28,6.26A4.82,4.82,0,0,1,324.63,372.43Zm-6.87-21.95A5,5,0,0,1,313,347l-.89-2.86a5,5,0,0,1,9.54-3l.9,2.87a5,5,0,0,1-3.28,6.26A4.88,4.88,0,0,1,317.76,350.48Zm-6.87-22a5,5,0,0,1-4.77-3.51l-.89-2.86a5,5,0,1,1,9.54-3l.9,2.87a5,5,0,0,1-3.28,6.26A4.88,4.88,0,0,1,310.89,328.53Z"/><path class="cls-1" d="M161.52,458.61a4.84,4.84,0,0,1-1.66-.29,5,5,0,0,1-3.05-6.38l1-2.82a5,5,0,0,1,9.43,3.33l-1,2.83A5,5,0,0,1,161.52,458.61Zm7.66-21.68a5.09,5.09,0,0,1-1.66-.29,5,5,0,0,1-3.05-6.38l1-2.83a5,5,0,0,1,9.43,3.33l-1,2.83A5,5,0,0,1,169.18,436.93Zm7.67-21.69a4.85,4.85,0,0,1-1.67-.29,5,5,0,0,1-3.05-6.38l1-2.83a5,5,0,0,1,9.43,3.34l-1,2.82A5,5,0,0,1,176.85,415.24Zm7.66-21.69a5.18,5.18,0,0,1-1.67-.28,5,5,0,0,1-3-6.38l1-2.83a5,5,0,1,1,9.42,3.33l-1,2.83A5,5,0,0,1,184.51,393.55Zm7.66-21.68a4.84,4.84,0,0,1-1.66-.29,5,5,0,0,1-3-6.38l1-2.83a5,5,0,0,1,9.43,3.33l-1,2.83A5,5,0,0,1,192.17,371.87Zm7.67-21.69a5.09,5.09,0,0,1-1.67-.28,5,5,0,0,1-3-6.39l1-2.82a5,5,0,0,1,9.43,3.33l-1,2.83A5,5,0,0,1,199.84,350.18Zm7.66-21.68a5.15,5.15,0,0,1-1.67-.29,5,5,0,0,1-3-6.38l1-2.83a5,5,0,1,1,9.42,3.33l-1,2.83A5,5,0,0,1,207.5,328.5Z"/><path class="cls-1" d="M256.5,276.48a5,5,0,0,1-5-5V231a5,5,0,0,1,10,0v40.48A5,5,0,0,1,256.5,276.48Z"/><path class="cls-1" d="M224.5,275.48a4.94,4.94,0,0,1-2.37-.6c-26.06-14-34.11-41.35-34.44-42.51a5,5,0,0,1,9.62-2.75c.1.37,7.36,24.5,29.56,36.45a5,5,0,0,1-2.37,9.41Z"/><path class="cls-1" d="M176.33,272.67a4.9,4.9,0,0,1-1.63-.28c-45.51-15.75-51.69-43.87-51.93-45.06a5,5,0,0,1,9.79-2c.24,1.06,5.79,23.92,45.41,37.63a5,5,0,0,1-1.64,9.73Z"/><path class="cls-1" d="M107,260a5,5,0,0,1-1.89-.37c-32.41-13.24-44.78-38.4-45.29-39.47a5,5,0,0,1,9-4.33h0c.11.22,11.36,22.82,40.05,34.54A5,5,0,0,1,107,260Z"/><path class="cls-1" d="M288.42,275.48a5,5,0,0,1-2.37-9.41c22.38-12,29.49-36.2,29.56-36.44a5,5,0,1,1,9.62,2.74c-.33,1.16-8.38,28.48-34.44,42.51A5,5,0,0,1,288.42,275.48Z"/><path class="cls-1" d="M336.58,272.67a5,5,0,0,1-1.63-9.73c40.17-13.9,45.35-37.36,45.4-37.6a5,5,0,1,1,9.8,2c-.24,1.19-6.42,29.31-51.93,45.06A5,5,0,0,1,336.58,272.67Z"/><path class="cls-1" d="M405.92,260a5,5,0,0,1-1.89-9.63c28.69-11.72,39.94-34.32,40.05-34.54a5,5,0,0,1,9,4.33c-.51,1.07-12.87,26.23-45.28,39.47A5,5,0,0,1,405.92,260Z"/><path class="cls-1" d="M336.58,119a5,5,0,0,1-5-4.81c-.74-19.31-9-35.46-24.62-48a82.7,82.7,0,0,0-24-13.41,5,5,0,0,1,3-9.55,91,91,0,0,1,27,14.93c17.9,14.27,27.8,33.51,28.64,55.66a5,5,0,0,1-4.81,5.19Z"/></g></svg>