<?xml version="1.0" ?><svg id="Lines" viewBox="0 0 512 512" xmlns="http://www.w3.org/2000/svg"><defs><style>.cls-1{fill:#3f456b;}</style></defs><title/><g data-name="&lt;编组&gt;" id="_编组_"><path class="cls-1" d="M384,69H128a5,5,0,0,1-5-5V16a5,5,0,0,1,5-5H384a5,5,0,0,1,5,5V64A5,5,0,0,1,384,69ZM133,59H379V21H133Z"/></g><path class="cls-1" d="M384,502H128a5,5,0,0,1,0-10H384a5,5,0,0,1,0,10Z"/><path class="cls-1" d="M128,502a5,5,0,0,1-4.71-3.32c-.4-1.11-39.95-112.84-48.28-240.35-2.89-44.2-1.64-107.26,20.68-156.76,13.66-30.27,28.79-41.2,29.42-41.65a5,5,0,0,1,5.8,8.15h0c-.14.1-14,10.33-26.52,38.55C92.75,132.85,79.94,180.35,85,257.67c8.24,126.13,47.32,236.54,47.72,237.65a5,5,0,0,1-3,6.39A4.91,4.91,0,0,1,128,502Z"/><path class="cls-1" d="M383.84,502a4.91,4.91,0,0,1-1.68-.29,5,5,0,0,1-3-6.39c.4-1.11,39.48-111.58,47.72-237.65C436.56,109.18,381.51,68.48,381,68.08a5,5,0,1,1,5.77-8.16c.63.45,15.77,11.38,29.42,41.65,22.32,49.5,23.57,112.56,20.68,156.76C428.5,385.84,389,497.57,388.55,498.68A5,5,0,0,1,383.84,502Z"/><path class="cls-1" d="M256,133a5,5,0,0,1-5-5V16a5,5,0,0,1,10,0V128A5,5,0,0,1,256,133Z"/><path class="cls-1" d="M282,55a15,15,0,1,1,15-15A15,15,0,0,1,282,55Zm0-20a5,5,0,1,0,5,5A5,5,0,0,0,282,35Z"/><path class="cls-1" d="M149.54,501.4a5,5,0,0,1-4.83-3.73C117.37,393.05,109.1,295.39,109,294.41a5,5,0,1,1,10-.82c.08,1,8.29,97.81,35.4,201.55a5,5,0,0,1-3.57,6.1A5.08,5.08,0,0,1,149.54,501.4Z"/><path class="cls-1" d="M107,299a5,5,0,0,1-.35-10l14-1a5,5,0,1,1,.72,10l-14,1Z"/></svg>