<?xml version="1.0" ?><svg viewBox="0 0 512 512" xmlns="http://www.w3.org/2000/svg"><defs><style>.cls-1{fill:#3f456b;}</style></defs><title/><g id="Lines"><path class="cls-1" d="M475,500H35a25,25,0,0,1-25-25V36A25,25,0,0,1,35,11H475a25,25,0,0,1,25,25V475A25,25,0,0,1,475,500ZM35,21A15,15,0,0,0,20,36V475a15,15,0,0,0,15,15H475a15,15,0,0,0,15-15V36a15,15,0,0,0-15-15Z"/><path class="cls-1" d="M196.53,198.34H147.2a15,15,0,0,1-15-15V134a15,15,0,0,1,15-15h49.33a15,15,0,0,1,15,15v49.34A15,15,0,0,1,196.53,198.34ZM147.2,129a5,5,0,0,0-5,5v49.34a5,5,0,0,0,5,5h49.33a5,5,0,0,0,5-5V134a5,5,0,0,0-5-5Z"/><path class="cls-1" d="M196,287.55H146.64a15,15,0,0,1-15-15V223.21a15,15,0,0,1,15-15H196a15,15,0,0,1,15,15v49.34A15,15,0,0,1,196,287.55Zm-49.34-69.34a5,5,0,0,0-5,5v49.34a5,5,0,0,0,5,5H196a5,5,0,0,0,5-5V223.21a5,5,0,0,0-5-5Z"/><path class="cls-1" d="M196,376.76H146.64a15,15,0,0,1-15-15V312.42a15,15,0,0,1,15-15H196a15,15,0,0,1,15,15v49.34A15,15,0,0,1,196,376.76Zm-49.34-69.34a5,5,0,0,0-5,5v49.34a5,5,0,0,0,5,5H196a5,5,0,0,0,5-5V312.42a5,5,0,0,0-5-5Z"/><path class="cls-1" d="M196,466H146.64a15,15,0,0,1-15-15V401.64a15,15,0,0,1,15-15H196a15,15,0,0,1,15,15V451A15,15,0,0,1,196,466Zm-49.34-69.33a5,5,0,0,0-5,5V451a5,5,0,0,0,5,5H196a5,5,0,0,0,5-5V401.64a5,5,0,0,0-5-5Z"/><path class="cls-1" d="M105.66,198.34H56.32a15,15,0,0,1-15-15V134a15,15,0,0,1,15-15h49.34a15,15,0,0,1,15,15v49.34A15,15,0,0,1,105.66,198.34ZM56.32,129a5,5,0,0,0-5,5v49.34a5,5,0,0,0,5,5h49.34a5,5,0,0,0,5-5V134a5,5,0,0,0-5-5Z"/><path class="cls-1" d="M105.11,287.55H55.77a15,15,0,0,1-15-15V223.21a15,15,0,0,1,15-15h49.34a15,15,0,0,1,15,15v49.34A15,15,0,0,1,105.11,287.55ZM55.77,218.21a5,5,0,0,0-5,5v49.34a5,5,0,0,0,5,5h49.34a5,5,0,0,0,5-5V223.21a5,5,0,0,0-5-5Z"/><path class="cls-1" d="M105.11,376.76H55.77a15,15,0,0,1-15-15V312.42a15,15,0,0,1,15-15h49.34a15,15,0,0,1,15,15v49.34A15,15,0,0,1,105.11,376.76ZM55.77,307.42a5,5,0,0,0-5,5v49.34a5,5,0,0,0,5,5h49.34a5,5,0,0,0,5-5V312.42a5,5,0,0,0-5-5Z"/><path class="cls-1" d="M105.11,466H55.77a15,15,0,0,1-15-15V401.64a15,15,0,0,1,15-15h49.34a15,15,0,0,1,15,15V451A15,15,0,0,1,105.11,466ZM55.77,396.64a5,5,0,0,0-5,5V451a5,5,0,0,0,5,5h49.34a5,5,0,0,0,5-5V401.64a5,5,0,0,0-5-5Z"/><path class="cls-1" d="M287.4,198.34H238.07a15,15,0,0,1-15-15V134a15,15,0,0,1,15-15H287.4a15,15,0,0,1,15,15v49.34A15,15,0,0,1,287.4,198.34ZM238.07,129a5,5,0,0,0-5,5v49.34a5,5,0,0,0,5,5H287.4a5,5,0,0,0,5-5V134a5,5,0,0,0-5-5Z"/><path class="cls-1" d="M286.85,287.55H237.51a15,15,0,0,1-15-15V223.21a15,15,0,0,1,15-15h49.34a15,15,0,0,1,15,15v49.34A15,15,0,0,1,286.85,287.55Zm-49.34-69.34a5,5,0,0,0-5,5v49.34a5,5,0,0,0,5,5h49.34a5,5,0,0,0,5-5V223.21a5,5,0,0,0-5-5Z"/><path class="cls-1" d="M286.85,376.76H237.51a15,15,0,0,1-15-15V312.42a15,15,0,0,1,15-15h49.34a15,15,0,0,1,15,15v49.34A15,15,0,0,1,286.85,376.76Zm-49.34-69.34a5,5,0,0,0-5,5v49.34a5,5,0,0,0,5,5h49.34a5,5,0,0,0,5-5V312.42a5,5,0,0,0-5-5Z"/><path class="cls-1" d="M286.85,466H237.51a15,15,0,0,1-15-15V401.64a15,15,0,0,1,15-15h49.34a15,15,0,0,1,15,15V451A15,15,0,0,1,286.85,466Zm-49.34-69.33a5,5,0,0,0-5,5V451a5,5,0,0,0,5,5h49.34a5,5,0,0,0,5-5V401.64a5,5,0,0,0-5-5Z"/><path class="cls-1" d="M378.27,198.34H328.94a15,15,0,0,1-15-15V134a15,15,0,0,1,15-15h49.33a15,15,0,0,1,15,15v49.34A15,15,0,0,1,378.27,198.34ZM328.94,129a5,5,0,0,0-5,5v49.34a5,5,0,0,0,5,5h49.33a5,5,0,0,0,5-5V134a5,5,0,0,0-5-5Z"/><path class="cls-1" d="M377.72,287.55H328.38a15,15,0,0,1-15-15V223.21a15,15,0,0,1,15-15h49.34a15,15,0,0,1,15,15v49.34A15,15,0,0,1,377.72,287.55Zm-49.34-69.34a5,5,0,0,0-5,5v49.34a5,5,0,0,0,5,5h49.34a5,5,0,0,0,5-5V223.21a5,5,0,0,0-5-5Z"/><path class="cls-1" d="M377.72,376.76H328.38a15,15,0,0,1-15-15V312.42a15,15,0,0,1,15-15h49.34a15,15,0,0,1,15,15v49.34A15,15,0,0,1,377.72,376.76Zm-49.34-69.34a5,5,0,0,0-5,5v49.34a5,5,0,0,0,5,5h49.34a5,5,0,0,0,5-5V312.42a5,5,0,0,0-5-5Z"/><path class="cls-1" d="M377.72,466H328.38a15,15,0,0,1-15-15V401.64a15,15,0,0,1,15-15h49.34a15,15,0,0,1,15,15V451A15,15,0,0,1,377.72,466Zm-49.34-69.33a5,5,0,0,0-5,5V451a5,5,0,0,0,5,5h49.34a5,5,0,0,0,5-5V401.64a5,5,0,0,0-5-5Z"/><path class="cls-1" d="M463,245.23H425.74a15,15,0,0,1-15-15V193a15,15,0,0,1,15-15H463a15,15,0,0,1,15,15v37.23A15,15,0,0,1,463,245.23ZM425.74,188a5,5,0,0,0-5,5v37.23a5,5,0,0,0,5,5H463a5,5,0,0,0,5-5V193a5,5,0,0,0-5-5Z"/><path class="cls-1" d="M462.51,318.86H425.29a15,15,0,0,1-15-15V266.63a15,15,0,0,1,15-15h37.22a15,15,0,0,1,15,15v37.23A15,15,0,0,1,462.51,318.86Zm-37.22-57.23a5,5,0,0,0-5,5v37.23a5,5,0,0,0,5,5h37.22a5,5,0,0,0,5-5V266.63a5,5,0,0,0-5-5Z"/><path class="cls-1" d="M462.51,392.49H425.29a15,15,0,0,1-15-15V340.26a15,15,0,0,1,15-15h37.22a15,15,0,0,1,15,15v37.23A15,15,0,0,1,462.51,392.49Zm-37.22-57.23a5,5,0,0,0-5,5v37.23a5,5,0,0,0,5,5h37.22a5,5,0,0,0,5-5V340.26a5,5,0,0,0-5-5Z"/><path class="cls-1" d="M462.51,466.12H425.29a15,15,0,0,1-15-15V413.89a15,15,0,0,1,15-15h37.22a15,15,0,0,1,15,15v37.23A15,15,0,0,1,462.51,466.12Zm-37.22-57.23a5,5,0,0,0-5,5v37.23a5,5,0,0,0,5,5h37.22a5,5,0,0,0,5-5V413.89a5,5,0,0,0-5-5Z"/><path class="cls-1" d="M76,94.24a27.62,27.62,0,1,1,27.62-27.62A27.65,27.65,0,0,1,76,94.24ZM76,49A17.62,17.62,0,1,0,93.62,66.62,17.64,17.64,0,0,0,76,49Z"/><path class="cls-1" d="M145,94.24a27.62,27.62,0,1,1,27.62-27.62A27.65,27.65,0,0,1,145,94.24ZM145,49a17.62,17.62,0,1,0,17.62,17.62A17.64,17.64,0,0,0,145,49Z"/><path class="cls-1" d="M218,94.24a27.62,27.62,0,1,1,27.62-27.62A27.65,27.65,0,0,1,218,94.24ZM218,49a17.62,17.62,0,1,0,17.62,17.62A17.64,17.64,0,0,0,218,49Z"/><path class="cls-1" d="M292,94.24a27.62,27.62,0,1,1,27.62-27.62A27.65,27.65,0,0,1,292,94.24ZM292,49a17.62,17.62,0,1,0,17.62,17.62A17.64,17.64,0,0,0,292,49Z"/><path class="cls-1" d="M366,94.24a27.62,27.62,0,1,1,27.62-27.62A27.65,27.65,0,0,1,366,94.24ZM366,49a17.62,17.62,0,1,0,17.62,17.62A17.64,17.64,0,0,0,366,49Z"/><path class="cls-1" d="M438,94.24a27.62,27.62,0,1,1,27.62-27.62A27.65,27.65,0,0,1,438,94.24ZM438,49a17.62,17.62,0,1,0,17.62,17.62A17.64,17.64,0,0,0,438,49Z"/><path class="cls-1" d="M422,123a5,5,0,0,1-5-5v-1a5,5,0,0,1,10,0v1A5,5,0,0,1,422,123Z"/><path class="cls-1" d="M76,72a5,5,0,0,1-5-5V66a5,5,0,0,1,10,0v1A5,5,0,0,1,76,72Z"/><path class="cls-1" d="M145,72a5,5,0,0,1-5-5V66a5,5,0,0,1,10,0v1A5,5,0,0,1,145,72Z"/><path class="cls-1" d="M445,123a5,5,0,0,1-5-5v-1a5,5,0,0,1,10,0v1A5,5,0,0,1,445,123Z"/><path class="cls-1" d="M468,123a5,5,0,0,1-5-5v-1a5,5,0,0,1,10,0v1A5,5,0,0,1,468,123Z"/><path class="cls-1" d="M422,144a5,5,0,0,1-5-5v-1a5,5,0,0,1,10,0v1A5,5,0,0,1,422,144Z"/><path class="cls-1" d="M445,144a5,5,0,0,1-5-5v-1a5,5,0,0,1,10,0v1A5,5,0,0,1,445,144Z"/><path class="cls-1" d="M468,144a5,5,0,0,1-5-5v-1a5,5,0,0,1,10,0v1A5,5,0,0,1,468,144Z"/><path class="cls-1" d="M422,165a5,5,0,0,1-5-5v-1a5,5,0,0,1,10,0v1A5,5,0,0,1,422,165Z"/><path class="cls-1" d="M445,165a5,5,0,0,1-5-5v-1a5,5,0,0,1,10,0v1A5,5,0,0,1,445,165Z"/><path class="cls-1" d="M468,165a5,5,0,0,1-5-5v-1a5,5,0,0,1,10,0v1A5,5,0,0,1,468,165Z"/></g><g id="Outline"><path class="cls-1" d="M439,227.33a5,5,0,0,1-3.12-8.9l8.31-6.65-8.46-7.34a5,5,0,1,1,6.54-7.55l13,11.26a5,5,0,0,1-.15,7.69l-13,10.4A4.94,4.94,0,0,1,439,227.33Z"/><path class="cls-1" d="M439,301.33a5,5,0,0,1-3.12-8.9l8.31-6.65-8.46-7.34a5,5,0,1,1,6.54-7.55l13,11.26a5,5,0,0,1-.15,7.69l-13,10.4A4.94,4.94,0,0,1,439,301.33Z"/><path class="cls-1" d="M439,375.33a5,5,0,0,1-3.12-8.9l8.31-6.65-8.46-7.34a5,5,0,1,1,6.54-7.55l13,11.26a5,5,0,0,1-.15,7.69l-13,10.4A4.94,4.94,0,0,1,439,375.33Z"/><path class="cls-1" d="M439,449.33a5,5,0,0,1-3.12-8.9l8.31-6.65-8.46-7.34a5,5,0,1,1,6.54-7.55l13,11.26a5,5,0,0,1-.15,7.69l-13,10.4A4.94,4.94,0,0,1,439,449.33Z"/><path class="cls-1" d="M218,72a5,5,0,0,1-5-5V66a5,5,0,0,1,10,0v1A5,5,0,0,1,218,72Z"/><path class="cls-1" d="M292,72a5,5,0,0,1-5-5V66a5,5,0,0,1,10,0v1A5,5,0,0,1,292,72Z"/><path class="cls-1" d="M366,72a5,5,0,0,1-5-5V66a5,5,0,0,1,10,0v1A5,5,0,0,1,366,72Z"/><path class="cls-1" d="M438,72a5,5,0,0,1-5-5V66a5,5,0,0,1,10,0v1A5,5,0,0,1,438,72Z"/></g></svg>