<?xml version="1.0" ?><svg viewBox="0 0 512 512" xmlns="http://www.w3.org/2000/svg"><defs><style>.cls-1{fill:#3f456b;}</style></defs><title/><g id="Lines"><path class="cls-1" d="M74.43,90a5,5,0,0,1-3.06-1C63,82.49,49.15,85.29,49,85.32a5,5,0,0,1-2.08-9.78c.75-.16,18.52-3.83,30.58,5.55A5,5,0,0,1,74.43,90Z"/><path class="cls-1" d="M167.64,108.44a5,5,0,0,1-4-7.94c16.26-22.36,43.63-20.62,55.84-16.57a5,5,0,0,1-3.14,9.49c-1.22-.39-28.65-9-44.62,13A5,5,0,0,1,167.64,108.44Z"/><path class="cls-1" d="M89.75,166.54H56.45A46.1,46.1,0,0,1,45.5,76c-.11-1.12-.17-2.25-.17-3.38a35.91,35.91,0,0,1,58.19-28.14A62.79,62.79,0,0,1,222,73.58a63.84,63.84,0,0,1-.92,10.8,42.21,42.21,0,0,1,28.34,30,5,5,0,1,1-9.7,2.42A32.19,32.19,0,0,0,214.24,93a5,5,0,0,1-4-6.17,52.8,52.8,0,0,0-100.48-32,5,5,0,0,1-8.54,1.39,25.9,25.9,0,0,0-45.94,16.4,25.33,25.33,0,0,0,.73,6.07,5,5,0,0,1-.69,3.93A5,5,0,0,1,52,84.83a36.1,36.1,0,0,0,4.68,71.7H89.75a5,5,0,0,1,0,10Z"/><path class="cls-1" d="M120.87,502.09a77,77,0,1,1,77-77A77.08,77.08,0,0,1,120.87,502.09Zm0-144a67,67,0,1,0,67,67A67.08,67.08,0,0,0,120.87,358.09Z"/><path class="cls-1" d="M120.87,456.25A31.16,31.16,0,1,1,152,425.09,31.19,31.19,0,0,1,120.87,456.25Zm0-52.31A21.16,21.16,0,1,0,142,425.09,21.18,21.18,0,0,0,120.87,403.94Z"/><path class="cls-1" d="M262.54,359.57a5.19,5.19,0,0,1-1.29-.17L15.71,293.92a5,5,0,0,1-3.44-6.44L33.52,225a5,5,0,0,1,4.73-3.39H229.3l25.57-55.27a5,5,0,0,1,4.54-2.9H477.48a5,5,0,0,1,5,5v32.51a5,5,0,0,1-5,5H318.1L267.27,356.17A5,5,0,0,1,262.54,359.57ZM23.46,285.64,259.3,348.53l50.48-149.21a5,5,0,0,1,4.73-3.39h158V173.42H262.6L237,228.69a5,5,0,0,1-4.54,2.9H41.83Z"/><path class="cls-1" d="M86,374.59H65a5,5,0,0,1-5-5v-67.7a5,5,0,0,1,10,0v62.7H86a5,5,0,1,1,0,10Z"/><path class="cls-1" d="M289,454H225a5,5,0,0,1-5-5V369.59a5,5,0,0,1,5-5h64a5,5,0,0,1,5,5V449A5,5,0,0,1,289,454Zm-59-10h54V374.59H230Z"/><path class="cls-1" d="M305.43,437.84H289a5,5,0,0,1,0-10h16.43a5,5,0,0,1,0,10Z"/><path class="cls-1" d="M225,437.84H190.86a5,5,0,0,1,0-10H225a5,5,0,0,1,0,10Z"/><path class="cls-1" d="M487,437.84h-9a5,5,0,0,1,0-10h9a5,5,0,0,0,5-5V299.09a5,5,0,0,0-5-5H321a5,5,0,0,1,0-10H487a15,15,0,0,1,15,15V422.84A15,15,0,0,1,487,437.84Z"/><path class="cls-1" d="M321,318.84a5,5,0,0,1-5-5V239.59a5,5,0,0,1,5-5H448.5a5,5,0,0,1,5,5v49.5a5,5,0,0,1-10,0v-44.5H326v69.25A5,5,0,0,1,321,318.84Z"/><path class="cls-1" d="M434.83,294.09a5,5,0,0,1-4.95-4.32l-12-87.36a5,5,0,0,1,9.91-1.36l12,87.36a5,5,0,0,1-4.28,5.64A5.27,5.27,0,0,1,434.83,294.09Z"/><path class="cls-1" d="M321.07,246.59a5,5,0,0,1-5-5V206.7a5,5,0,0,1,10,0v34.89A5,5,0,0,1,321.07,246.59Z"/><path class="cls-1" d="M497,318.84H449a5,5,0,0,1,0-10h48a5,5,0,0,1,0,10Z"/><path class="cls-1" d="M497,339.84H456a5,5,0,0,1,0-10h41a5,5,0,0,1,0,10Z"/><path class="cls-1" d="M497,360.84H461.5a5,5,0,0,1,0-10H497a5,5,0,0,1,0,10Z"/><path class="cls-1" d="M497,381.84H470.83a5,5,0,0,1,0-10H497a5,5,0,0,1,0,10Z"/><path class="cls-1" d="M497,402.84H474.94a5,5,0,0,1,0-10H497a5,5,0,0,1,0,10Z"/><path class="cls-1" d="M304.31,231.59H232.5a5,5,0,0,1,0-10h71.81a5,5,0,0,1,0,10Z"/><path class="cls-1" d="M475.87,294.09a5,5,0,0,1-5-5V229.93a5,5,0,1,1,10,0v59.16A5,5,0,0,1,475.87,294.09Z"/><path class="cls-1" d="M289,472.59H254.13a5,5,0,0,1-5-5V398.85H188.52a5,5,0,1,1,0-10h65.61a5,5,0,0,1,5,5v68.74H284V393.85a5,5,0,0,1,10,0v73.74A5,5,0,0,1,289,472.59Z"/><path class="cls-1" d="M289,412.59H254.13a5,5,0,0,1,0-10H289a5,5,0,0,1,0,10Z"/><path class="cls-1" d="M289,433.46H254.13a5,5,0,1,1,0-10H289a5,5,0,0,1,0,10Z"/><path class="cls-1" d="M485.07,472.59H450.2a5,5,0,0,1-5-5v-34.5a5,5,0,0,1,10,0v29.5h24.87V432.84a5,5,0,0,1,10,0v34.75A5,5,0,0,1,485.07,472.59Z"/><path class="cls-1" d="M481,438.09H446.49a5,5,0,0,1,0-10h28L445.17,318.84H323.9l-30.56,53.24a5,5,0,1,1-8.68-5l32-55.75a5,5,0,0,1,4.34-2.51H449a5,5,0,0,1,4.83,3.71l32,119.25a5,5,0,0,1-4.83,6.29Z"/><path class="cls-1" d="M485.07,455.93H450.2a5,5,0,0,1,0-10h34.87a5,5,0,0,1,0,10Z"/><path class="cls-1" d="M477.48,177.71a5,5,0,0,1-5-5V146.26a5,5,0,0,1,10,0v26.45A5,5,0,0,1,477.48,177.71Z"/><path class="cls-1" d="M38.25,231.59a5,5,0,0,1-5-5V202.72a5,5,0,0,1,5-5H243.54a5,5,0,0,1,0,10H43.25v18.87A5,5,0,0,1,38.25,231.59Z"/><path class="cls-1" d="M53.25,207.72a5,5,0,0,1-4.11-7.84c33.51-48.52,80.08-77.31,138.42-85.56,39.13-5.54,78.55-3.57,114,5.69,34.24,8.94,64.09,24.4,86.3,44.72a5,5,0,1,1-6.75,7.38c-21-19.23-49.4-33.9-82.07-42.43-34.19-8.93-72.26-10.81-110.09-5.46-55.46,7.85-99.73,35.21-131.6,81.34A5,5,0,0,1,53.25,207.72Z"/><path class="cls-1" d="M377,501.16a76.54,76.54,0,1,1,76.54-76.53A76.62,76.62,0,0,1,377,501.16Zm0-143.07a66.54,66.54,0,1,0,66.54,66.54A66.61,66.61,0,0,0,377,358.09Z"/><path class="cls-1" d="M377,455.62a31,31,0,1,1,31-31A31,31,0,0,1,377,455.62Zm0-52a21,21,0,1,0,21,21A21,21,0,0,0,377,403.64Z"/><path class="cls-1" d="M120.87,430.1a5,5,0,0,1-5-5v-1a5,5,0,0,1,10,0v1A5,5,0,0,1,120.87,430.1Z"/><path class="cls-1" d="M377,430.1a5,5,0,0,1-5-5v-1a5,5,0,0,1,10,0v1A5,5,0,0,1,377,430.1Z"/></g><g id="Outline"><path class="cls-1" d="M404.55,294.09a5,5,0,0,1-5-5v-49.5a5,5,0,1,1,10,0v49.5A5,5,0,0,1,404.55,294.09Z"/><path class="cls-1" d="M363.31,294.09a5,5,0,0,1-5-5V202.72a5,5,0,1,1,10,0v86.37A5,5,0,0,1,363.31,294.09Z"/><path class="cls-1" d="M123,368.36a5,5,0,0,1-4.25-2.36l-4.28-6.89a5,5,0,1,1,8.49-5.28l4.28,6.89a5,5,0,0,1-4.24,7.64Z"/><path class="cls-1" d="M123,498.72a5,5,0,0,1-4.25-2.36l-4.28-6.89a5,5,0,1,1,8.49-5.28l4.28,6.89a5,5,0,0,1-4.24,7.64Z"/><path class="cls-1" d="M52.25,432.23A5,5,0,0,1,49.61,423l6.89-4.28a5,5,0,0,1,5.28,8.49l-6.89,4.28A5,5,0,0,1,52.25,432.23Z"/><path class="cls-1" d="M182.61,432.23A5,5,0,0,1,180,423l6.89-4.28a5,5,0,1,1,5.28,8.49l-6.89,4.28A5,5,0,0,1,182.61,432.23Z"/><path class="cls-1" d="M78.74,384.93a4.94,4.94,0,0,1-1.14-.14L69.7,383A5,5,0,0,1,72,373.21l7.9,1.85a5,5,0,0,1-1.13,9.87Z"/><path class="cls-1" d="M170.92,477.11a4.94,4.94,0,0,1-1.14-.14l-7.9-1.84a5,5,0,1,1,2.27-9.74l7.9,1.85a5,5,0,0,1-1.13,9.87Z"/><path class="cls-1" d="M73.87,480.13a5.07,5.07,0,0,1-1.15-.13A5,5,0,0,1,69,474l1.85-7.89a5,5,0,1,1,9.74,2.27l-1.85,7.9A5,5,0,0,1,73.87,480.13Z"/><path class="cls-1" d="M166,388a5,5,0,0,1-1.14-.13,5,5,0,0,1-3.73-6l1.85-7.9a5,5,0,1,1,9.73,2.27l-1.84,7.9A5,5,0,0,1,166,388Z"/><path class="cls-1" d="M99.22,372.24a5,5,0,0,1-2.91-.94l-6.59-4.73a5,5,0,1,1,5.83-8.12l6.59,4.72a5,5,0,0,1-2.92,9.07Z"/><path class="cls-1" d="M149.11,492.67a5,5,0,0,1-2.91-.93L139.61,487a5,5,0,0,1,5.82-8.13l6.6,4.73a5,5,0,0,1-2.92,9.06Z"/><path class="cls-1" d="M58.29,458.33a5,5,0,0,1-4.06-7.91L59,443.83a5,5,0,0,1,8.13,5.82l-4.73,6.6A5,5,0,0,1,58.29,458.33Z"/><path class="cls-1" d="M178.72,408.44a5,5,0,0,1-4.05-7.91l4.72-6.59a5,5,0,1,1,8.13,5.83l-4.73,6.59A5,5,0,0,1,178.72,408.44Z"/><path class="cls-1" d="M56.65,405.81a5,5,0,0,1-.81-9.93l8-1.32a5,5,0,1,1,1.63,9.86l-8,1.32A4.62,4.62,0,0,1,56.65,405.81Z"/><path class="cls-1" d="M177.08,455.7a5,5,0,0,1-.8-9.94l8-1.32a5,5,0,0,1,1.63,9.87l-8,1.32A5.67,5.67,0,0,1,177.08,455.7Z"/><path class="cls-1" d="M96.58,494.31a5,5,0,0,1-4.92-4.19l-1.32-8a5,5,0,0,1,9.86-1.62l1.32,8a5,5,0,0,1-4.12,5.75A5.66,5.66,0,0,1,96.58,494.31Z"/><path class="cls-1" d="M146.47,373.88a5,5,0,0,1-4.93-4.19l-1.32-8a5,5,0,0,1,9.87-1.62l1.32,8a5,5,0,0,1-4.12,5.75A5.79,5.79,0,0,1,146.47,373.88Z"/><path class="cls-1" d="M379.21,366.76A5,5,0,0,1,375,364.4l-4.36-7a5,5,0,1,1,8.5-5.28l4.36,7a5,5,0,0,1-1.61,6.88A4.88,4.88,0,0,1,379.21,366.76Z"/><path class="cls-1" d="M379.21,499.51a5,5,0,0,1-4.26-2.36l-4.36-7a5,5,0,0,1,8.5-5.28l4.36,7a5,5,0,0,1-4.24,7.63Z"/><path class="cls-1" d="M307.14,431.81a5,5,0,0,1-2.64-9.25l7-4.36a5,5,0,1,1,5.28,8.49l-7,4.36A5,5,0,0,1,307.14,431.81Z"/><path class="cls-1" d="M439.9,431.81a5,5,0,0,1-2.65-9.25l7-4.36a5,5,0,0,1,5.28,8.49l-7,4.36A5,5,0,0,1,439.9,431.81Z"/><path class="cls-1" d="M334.11,383.63a5,5,0,0,1-1.14-.13l-8-1.88a5,5,0,1,1,2.27-9.74l8.05,1.88a5,5,0,0,1-1.14,9.87Z"/><path class="cls-1" d="M428,477.5a5,5,0,0,1-1.14-.13l-8-1.88a5,5,0,0,1,2.27-9.74l8.05,1.88A5,5,0,0,1,428,477.5Z"/><path class="cls-1" d="M329.15,480.59a5,5,0,0,1-4.87-6.14l1.88-8a5,5,0,1,1,9.73,2.27l-1.87,8A5,5,0,0,1,329.15,480.59Z"/><path class="cls-1" d="M423,386.71a5,5,0,0,1-4.87-6.13l1.88-8.05a5,5,0,0,1,9.74,2.28l-1.88,8A5,5,0,0,1,423,386.71Z"/><path class="cls-1" d="M355,370.71a5,5,0,0,1-2.91-.94L345.35,365a5,5,0,0,1,5.83-8.13l6.71,4.82a5,5,0,0,1-2.92,9.06Z"/><path class="cls-1" d="M405.78,493.36a4.92,4.92,0,0,1-2.91-.94l-6.72-4.81a5,5,0,1,1,5.83-8.13l6.71,4.82a5,5,0,0,1-2.91,9.06Z"/><path class="cls-1" d="M313.29,458.39a5,5,0,0,1-4.06-7.92l4.81-6.71a5,5,0,1,1,8.13,5.83l-4.82,6.71A5,5,0,0,1,313.29,458.39Z"/><path class="cls-1" d="M435.94,407.58a5,5,0,0,1-4.06-7.91l4.81-6.71a5,5,0,0,1,8.13,5.82L440,405.5A5,5,0,0,1,435.94,407.58Z"/><path class="cls-1" d="M311.62,404.9a5,5,0,0,1-.81-9.94l8.15-1.34a5,5,0,1,1,1.62,9.87l-8.15,1.34A4.51,4.51,0,0,1,311.62,404.9Z"/><path class="cls-1" d="M434.27,455.7a5,5,0,0,1-.81-9.93l8.15-1.35a5,5,0,1,1,1.62,9.87l-8.15,1.34A4.43,4.43,0,0,1,434.27,455.7Z"/><path class="cls-1" d="M352.29,495a5,5,0,0,1-4.93-4.19L346,482.69a5,5,0,0,1,9.87-1.63l1.34,8.15A5,5,0,0,1,353.1,495,4.51,4.51,0,0,1,352.29,495Z"/><path class="cls-1" d="M403.09,372.38a5,5,0,0,1-4.93-4.19L396.82,360a5,5,0,1,1,9.87-1.62l1.34,8.15a5,5,0,0,1-4.12,5.74A4.62,4.62,0,0,1,403.09,372.38Z"/><path class="cls-1" d="M52.46,302.81a4.87,4.87,0,0,1-1.54-.25,5,5,0,0,1-3.21-6.3l17.54-53.92a5,5,0,0,1,9.51,3.09L57.22,299.36A5,5,0,0,1,52.46,302.81Z"/><path class="cls-1" d="M87.84,311.27a4.91,4.91,0,0,1-1.55-.24,5,5,0,0,1-3.21-6.3l17.55-53.93a5,5,0,0,1,9.51,3.1L92.59,307.82A5,5,0,0,1,87.84,311.27Z"/><path class="cls-1" d="M122.54,321.8a5,5,0,0,1-4.75-6.54l17.54-53.93a5,5,0,0,1,9.51,3.1l-17.55,53.92A5,5,0,0,1,122.54,321.8Z"/><path class="cls-1" d="M158.14,329.57a4.87,4.87,0,0,1-1.54-.25,5,5,0,0,1-3.21-6.3l17.54-53.92a5,5,0,0,1,9.51,3.09L162.9,326.12A5,5,0,0,1,158.14,329.57Z"/><path class="cls-1" d="M192.89,340a5.17,5.17,0,0,1-1.55-.24,5,5,0,0,1-3.21-6.3l17.55-53.93a5,5,0,0,1,9.51,3.1l-17.55,53.92A5,5,0,0,1,192.89,340Z"/><path class="cls-1" d="M227.6,350.47a5.26,5.26,0,0,1-1.55-.24,5,5,0,0,1-3.21-6.31L240.39,290a5,5,0,1,1,9.51,3.1L232.35,347A5,5,0,0,1,227.6,350.47Z"/><path class="cls-1" d="M305.47,151h-1a5,5,0,0,1,0-10h1a5,5,0,0,1,0,10Z"/><path class="cls-1" d="M274.55,151h-1a5,5,0,0,1,0-10h1a5,5,0,0,1,0,10Z"/><path class="cls-1" d="M243.63,151h-1a5,5,0,0,1,0-10h1a5,5,0,0,1,0,10Z"/><path class="cls-1" d="M212.72,151h-1a5,5,0,0,1,0-10h1a5,5,0,1,1,0,10Z"/><path class="cls-1" d="M228.72,185h-1a5,5,0,0,1,0-10h1a5,5,0,1,1,0,10Z"/><path class="cls-1" d="M181.8,151h-1a5,5,0,0,1,0-10h1a5,5,0,0,1,0,10Z"/><path class="cls-1" d="M197.8,185h-1a5,5,0,0,1,0-10h1a5,5,0,0,1,0,10Z"/><path class="cls-1" d="M150.88,151h-1a5,5,0,0,1,0-10h1a5,5,0,0,1,0,10Z"/><path class="cls-1" d="M166.88,185h-1a5,5,0,0,1,0-10h1a5,5,0,0,1,0,10Z"/><path class="cls-1" d="M136,185h-1a5,5,0,0,1,0-10h1a5,5,0,1,1,0,10Z"/><path class="cls-1" d="M105.05,185h-1a5,5,0,0,1,0-10h1a5,5,0,1,1,0,10Z"/></g></svg>