<?xml version="1.0" ?><svg viewBox="0 0 512 512" xmlns="http://www.w3.org/2000/svg"><defs><style>.cls-1{fill:#3f456b;}</style></defs><title/><g id="Lines"><path class="cls-1" d="M120.72,500.5H100.11c-12.22,0-22.17-10.17-22.17-22.67v-28a5,5,0,0,1,10,0v28a12.45,12.45,0,0,0,12.17,12.67h20.61a12.45,12.45,0,0,0,12.18-12.67v-28a5,5,0,0,1,10,0v28A22.45,22.45,0,0,1,120.72,500.5Z"/><path class="cls-1" d="M407.47,500.5H386.86c-12.22,0-22.17-10.17-22.17-22.67V451.2a5,5,0,0,1,10,0v26.63a12.45,12.45,0,0,0,12.17,12.67h20.61a12.45,12.45,0,0,0,12.18-12.67V451.2a5,5,0,1,1,10,0v26.63A22.45,22.45,0,0,1,407.47,500.5Z"/><path class="cls-1" d="M427.84,454.83H314.42a5,5,0,0,1,0-10H427.84c3.6,0,6.31-1,8.28-3.11,4.47-4.76,4.08-13.52,4.07-13.6s0-.21,0-.31V373.74a1.28,1.28,0,0,1,0-.19c0-.28.77-28.82-16.67-41.86-.95-.74-21.52-16.91-25.88-35.28,0-.08,0-.16-.05-.23l-9.31-49.65c-.55-2.14-8.2-29.79-39.13-29.79H159.77c-13.31,0-23.92,5-31.56,14.92a45.68,45.68,0,0,0-7.57,14.88l-9.31,49.64c0,.07,0,.15,0,.23C107.05,314.24,87.54,330,85.6,331.53c-17.67,15.58-16.88,41.75-16.87,42a1.15,1.15,0,0,1,0,.19v54.07c0,.1,0,.2,0,.31-.13,2.43.35,9.67,4.1,13.62,2,2.08,4.66,3.09,8.25,3.09H193.21a5,5,0,0,1,0,10H81.08c-6.42,0-11.65-2.11-15.56-6.26-7.08-7.53-6.85-19.22-6.78-20.88V373.82c-.07-2.33-.53-31.59,20.37-49.9l.23-.18c.18-.15,18.58-14.64,22.18-29.53l9.32-49.66a1.55,1.55,0,0,1,0-.23c.09-.38,9.37-37.58,48.88-37.58H349.15c39.51,0,48.79,37.2,48.88,37.58a1.55,1.55,0,0,1,.05.23l9.32,49.66c3.6,14.89,22,29.38,22.18,29.53,21.22,15.86,20.68,47.66,20.6,50.08v53.87c.07,1.66.3,13.35-6.78,20.88C439.49,452.72,434.26,454.83,427.84,454.83Z"/><path class="cls-1" d="M449.15,301.66H425.32a14,14,0,0,1-14-14V274.28a14,14,0,0,1,14-14h23.83a14,14,0,0,1,14,14v13.35A14.05,14.05,0,0,1,449.15,301.66Zm-23.83-31.41a4,4,0,0,0-4,4v13.35a4,4,0,0,0,4,4h23.83a4,4,0,0,0,4-4V274.28a4,4,0,0,0-4-4Z"/><path class="cls-1" d="M85.39,301.66H61.56a14.05,14.05,0,0,1-14-14V274.28a14,14,0,0,1,14-14H85.39a14,14,0,0,1,14,14v13.35A14,14,0,0,1,85.39,301.66ZM61.56,270.25a4,4,0,0,0-4,4v13.35a4,4,0,0,0,4,4H85.39a4,4,0,0,0,4-4V274.28a4,4,0,0,0-4-4Z"/><path class="cls-1" d="M410.51,313.81a5,5,0,0,1-2.88-9.09l14.91-10.46a5,5,0,1,1,5.74,8.18l-14.9,10.46A5,5,0,0,1,410.51,313.81Z"/><path class="cls-1" d="M393.25,250.47a5,5,0,0,1-4.77-3.5c-.16-.51-16.59-50.88-59.57-50.88H180.1c-43,0-59.42,50.37-59.58,50.88a5,5,0,1,1-9.54-3,106.05,106.05,0,0,1,15.21-28.69c14.3-19.1,32.94-29.19,53.91-29.19H328.91c21,0,39.61,10.09,53.91,29.19A105.85,105.85,0,0,1,398,244a5,5,0,0,1-3.27,6.27A4.88,4.88,0,0,1,393.25,250.47Z"/><path class="cls-1" d="M424.52,430.5H82.72c-8.54,0-15-2.24-19.25-6.67a16.81,16.81,0,0,1-4.73-11.7l10,.44v-.1c0,1.34.68,8,14,8h341.8c.13,0,14.89-.3,15.41-8.47a5,5,0,1,1,10,.64c-.48,7.48-5.43,13.14-14,15.94A40.8,40.8,0,0,1,424.52,430.5Z"/><path class="cls-1" d="M314,474.1H194.14a5,5,0,0,1-5-5V425.42a5,5,0,0,1,5-5H314a5,5,0,0,1,5,5V469.1A5,5,0,0,1,314,474.1Zm-114.86-10H309V430.42H199.14Z"/><path class="cls-1" d="M405.18,308.62l-.43,0c-147-12.56-299.07-.12-300.58,0a5,5,0,0,1-.84-10c1.53-.13,154.44-12.63,302.27,0a5,5,0,0,1-.42,10Z"/><path class="cls-1" d="M319.87,412.42h-127c-12.56,0-16.85-9.09-17.44-14.21-.54-2.56-4.19-20.39-3.37-32.73.44-6.49,3.27-10.24,5.57-12.25a18,18,0,0,1,11.86-4.08c4.7-.28,69.45-4,133.73,0a17.94,17.94,0,0,1,11.85,4.08c2.31,2,5.14,5.76,5.57,12.25.83,12.34-2.82,30.17-3.37,32.73C336.72,403.33,332.43,412.42,319.87,412.42Zm-131-53.29c-2.14,0-6.35.81-6.76,7-.77,11.62,3.19,30.05,3.23,30.24a4.48,4.48,0,0,1,.09.64c.19,1.57,1.31,5.4,7.51,5.4h127c6.19,0,7.32-3.83,7.51-5.48a3.44,3.44,0,0,1,.09-.56c0-.19,4-18.62,3.23-30.24-.44-6.6-5.18-7.1-7.2-7-.22,0-.39,0-.61,0-65.86-4.1-132.35,0-133,0a5,5,0,0,1-.67,0Z"/><path class="cls-1" d="M409.84,391.1h-42c-12.73,0-23.1-9.94-23.1-22.16v-4.11c0-11.12,8.74-19.78,22.26-22.09l.35-.05,41.7-4.15a4,4,0,0,1,.49,0c8.08,0,13.92,1.93,17.87,5.88,5.58,5.6,5.57,13.4,5.56,19.67v4.88C432.94,381.16,422.58,391.1,409.84,391.1Zm-41.35-38.47c-6.39,1.13-13.78,5-13.78,12.2v4.11c0,6.71,5.88,12.16,13.1,12.16h42c7.22,0,13.1-5.45,13.1-12.16v-4.89c0-4.89,0-9.93-2.64-12.59-1.92-1.92-5.47-2.91-10.55-2.94Z"/><path class="cls-1" d="M145.32,391.1h-42c-12.74,0-23.1-9.94-23.1-22.16v-4.88c0-6.27,0-14.07,5.56-19.67,3.95-3.95,9.79-5.88,17.87-5.88a4,4,0,0,1,.49,0l41.7,4.15.34.05c13.53,2.31,22.26,11,22.26,22.09v4.11C168.42,381.16,158.06,391.1,145.32,391.1Zm-41.94-42.58c-5.08,0-8.62,1-10.54,2.94-2.66,2.66-2.65,7.7-2.64,12.58v4.9c0,6.71,5.87,12.16,13.1,12.16h42c7.23,0,13.1-5.45,13.1-12.16v-4.11c0-7.21-7.38-11.07-13.77-12.2Z"/><path class="cls-1" d="M387.33,138.14c-7.23,0-27.05-1.16-39.69-13.06-7.23-6.8-10.9-15.87-10.9-26.95V50.8c0-11.08,3.67-20.15,10.9-26.95,14.9-14,39.75-13.13,42.24-13h47.86a5,5,0,0,1,5,5V133.08a5,5,0,0,1-5,5H389.88C389.5,138.1,388.61,138.14,387.33,138.14ZM387.5,20.8c-5.75,0-22.95.84-33,10.35-5.2,4.91-7.73,11.34-7.73,19.65V98.13c0,8.33,2.54,14.76,7.76,19.67,12.24,11.53,34.71,10.31,34.94,10.29h43.3V20.85h-43.3S388.7,20.8,387.5,20.8Z"/><path class="cls-1" d="M341.74,111H308.26a5,5,0,0,1-5-5V42a5,5,0,0,1,5-5h33.48a5,5,0,0,1,0,10H313.26v54h28.48a5,5,0,0,1,0,10Z"/><path class="cls-1" d="M308.26,94.48h-54a15,15,0,0,1-15-15v-12a15,15,0,0,1,15-15h54a5,5,0,0,1,0,10h-54a5,5,0,0,0-5,5v12a5,5,0,0,0,5,5h54a5,5,0,0,1,0,10Z"/><path class="cls-1" d="M103.74,148.52c-7.17,0-12.91-2.26-17.06-6.73-6.74-7.23-6.52-17.71-6.44-19.41V95.48c0-4.93-1.37-8.69-4.18-11.5-5.33-5.33-14.23-5.46-14.31-5.46H16.26a5,5,0,0,1,0-10H61.74c.52,0,13.06.07,21.39,8.39,4.72,4.71,7.11,11,7.11,18.57v27c0,.12,0,.24,0,.36S89.81,130.52,94,135c2.22,2.35,5.39,3.5,9.71,3.5s7.65-1.16,9.87-3.56c4-4.35,3.65-11.51,3.64-11.58s0-.26,0-.39l.52-86.89c-.08-1.73-.25-11.81,6.31-18.87,4.16-4.48,9.94-6.75,17.19-6.75s12.91,2.26,17.06,6.73c4.53,4.85,5.92,11.18,6.32,15.32a5.29,5.29,0,0,1,.12,1.13v.75a22,22,0,0,1,0,2.21V50c0,6.41,1.7,11.21,5,14.28,5.18,4.76,13,4.25,13,4.24l.42,0h61a5,5,0,0,1,0,10H183.43c-1.85.11-12.52.38-20.4-6.86-5.48-5-8.27-12.32-8.27-21.64V34.51C154.64,32,154,27.2,151,24c-2.21-2.35-5.39-3.5-9.71-3.5s-7.64,1.16-9.87,3.56c-4,4.35-3.64,11.51-3.64,11.58s0,.26,0,.39l-.52,86.89c.08,1.73.26,11.81-6.3,18.87C116.77,146.25,111,148.52,103.74,148.52Zm-18.5-26h0Z"/><path class="cls-1" d="M495.26,45.48h-57a5,5,0,0,1,0-10h57a5,5,0,0,1,0,10Z"/><path class="cls-1" d="M495.26,110.48h-57a5,5,0,0,1,0-10h57a5,5,0,0,1,0,10Z"/></g><g id="Outline"><path class="cls-1" d="M288.26,94.48a5,5,0,0,1-5-5v-32a5,5,0,0,1,10,0v32A5,5,0,0,1,288.26,94.48Z"/><path class="cls-1" d="M267.26,94.48a5,5,0,0,1-5-5v-32a5,5,0,0,1,10,0v32A5,5,0,0,1,267.26,94.48Z"/><path class="cls-1" d="M394.26,114.14a5,5,0,0,1-4.66-6.81L400,80.6h-18.7a5,5,0,0,1-4.63-6.87L390,40.45a5,5,0,0,1,9.28,3.74L388.67,70.6h18.59a5,5,0,0,1,4.67,6.81l-13,33.54A5,5,0,0,1,394.26,114.14Z"/><path class="cls-1" d="M288,447.16a5,5,0,0,1,5-5h0a5,5,0,0,1,5,5h0a5,5,0,0,1-5,5h0A5,5,0,0,1,288,447.16Zm-20,0a5,5,0,0,1,5-5h0a5,5,0,0,1,5,5h0a5,5,0,0,1-5,5h0A5,5,0,0,1,268,447.16Zm-20,0a5,5,0,0,1,5-5h0a5,5,0,0,1,5,5h0a5,5,0,0,1-5,5h0A5,5,0,0,1,248,447.16Zm-20,0a5,5,0,0,1,5-5h0a5,5,0,0,1,5,5h0a5,5,0,0,1-5,5h0A5,5,0,0,1,228,447.16Zm-20,0a5,5,0,0,1,5-5h0a5,5,0,0,1,5,5h0a5,5,0,0,1-5,5h0A5,5,0,0,1,208,447.16Z"/><path class="cls-1" d="M83.6,467.93a5,5,0,0,1,0-10H98a5,5,0,1,1,0,10Z"/><path class="cls-1" d="M83.41,483.39a5,5,0,1,1,0-10H98.24a5,5,0,1,1,0,10Z"/><path class="cls-1" d="M122.71,467.93a5,5,0,1,1,0-10h14.45a5,5,0,1,1,0,10H122.71Z"/><path class="cls-1" d="M122.53,483.39a5,5,0,1,1,0-10h14.83a5,5,0,1,1,0,10Z"/><path class="cls-1" d="M369.92,467.93a5,5,0,0,1,0-10h14.45a5,5,0,0,1,0,10Z"/><path class="cls-1" d="M369.73,483.39a5,5,0,1,1,0-10h14.83a5,5,0,1,1,0,10Z"/><path class="cls-1" d="M409.87,467.93a5,5,0,0,1,0-10h14.45a5,5,0,0,1,0,10Z"/><path class="cls-1" d="M409.68,483.39a5,5,0,1,1,0-10h14.83a5,5,0,1,1,0,10Z"/><path class="cls-1" d="M256.57,411.59a5,5,0,0,1-5-5v-54.1a5,5,0,0,1,10,0v54.1A5,5,0,0,1,256.57,411.59Z"/><path class="cls-1" d="M237.42,412.42a5,5,0,0,1-5-4.84l-1.67-54.94a5,5,0,0,1,4.85-5.15h.15a5,5,0,0,1,5,4.85l1.66,54.93a5,5,0,0,1-4.84,5.15Z"/><path class="cls-1" d="M219.11,412.42a5,5,0,0,1-5-4.69l-3.33-54.1a5,5,0,1,1,10-.61l3.32,54.1a5,5,0,0,1-4.68,5.3Z"/><path class="cls-1" d="M200,412.42a5,5,0,0,1-5-4.61l-4.17-53.26a5,5,0,1,1,10-.78L205,407a5,5,0,0,1-4.6,5.37Z"/><path class="cls-1" d="M276.55,412.42h-.16a5,5,0,0,1-4.84-5.15l1.66-54.93a5,5,0,0,1,10,.3l-1.67,54.94A5,5,0,0,1,276.55,412.42Z"/><path class="cls-1" d="M294.86,412.42h-.31a5,5,0,0,1-4.68-5.3l3.32-54.1a5,5,0,1,1,10,.61l-3.32,54.1A5,5,0,0,1,294.86,412.42Z"/><path class="cls-1" d="M314,412.42h-.39A5,5,0,0,1,309,407l4.17-53.27a5,5,0,1,1,10,.78L319,407.81A5,5,0,0,1,314,412.42Z"/></g></svg>