<?xml version="1.0" ?><svg viewBox="0 0 512 512" xmlns="http://www.w3.org/2000/svg"><defs><style>.cls-1{fill:#3f456b;}</style></defs><title/><g id="Lines"><path class="cls-1" d="M311.81,498.31H188.75c-17.07,0-23.67-16.61-24.78-25.39L127.62,182.43c-.57-2.5-3.05-15.05,2.83-22.55,1.92-2.45,5.54-5.36,11.86-5.36H375a14.33,14.33,0,0,1,11.13,4c4.79,4.66,6.52,12.6,5.15,23.6l-10.5,82.56a5,5,0,1,1-9.92-1.26l10.49-82.55c1.26-10.12-.83-13.86-2.2-15.19a4.46,4.46,0,0,0-3.15-1.24,4.52,4.52,0,0,1-.74.06H142.31c-2.47,0-3.43.82-4,1.54-2.54,3.23-1.71,11-.91,14.29a5.67,5.67,0,0,1,.1.57l36.38,290.76c.09.66,2.35,16.63,14.86,16.63H311.81a5,5,0,0,1,0,10Z"/><path class="cls-1" d="M430.46,498.08H303.71c-21.54,0-28.58-15.13-29.32-23.23l-6.72-54.17c0-.06,0-.11,0-.17,0-.63-.11-1.53-.19-2.67-1.62-24.74-5.69-39.95-12.1-45.21-11.62-9.51-12.89-18.43-13-20.48l-8.13-67.7c-1.46-8.68-.06-15.38,4.16-19.93,5.27-5.67,12.7-5.55,14.44-5.43h231.5c1.74-.12,9.18-.24,14.44,5.43,4.23,4.55,5.63,11.25,4.17,19.93l-8.13,67.68c-.14,2.06-1.41,11-13,20.5-6.41,5.25-10.49,20.47-12.11,45.21-.07,1.14-.13,2-.19,2.66,0,.06,0,.12,0,.18l-6.74,54.26C461.73,482.94,453.72,498.08,430.46,498.08ZM277.61,419.55l6.72,54.16c0,.06,0,.13,0,.19.14,1.42,2,14.18,19.36,14.18H430.46c20.33,0,22.26-13.78,22.34-14.37l6.72-54.17c.05-.56.1-1.36.16-2.35,1.17-17.87,4.08-42.73,15.75-52.3,8.43-6.9,9.29-12.6,9.37-13.33a2.5,2.5,0,0,1,0-.45l8.16-68a1.87,1.87,0,0,1,0-.25c.64-3.76.89-8.81-1.57-11.52s-6.5-2.3-6.54-2.3l-.43,0H252.62l-.48,0h0s-4.14-.28-6.48,2.3-2.22,7.76-1.57,11.52l0,.25,8.17,68a2.43,2.43,0,0,1,0,.45c.08.73,1,6.43,9.37,13.33,11.68,9.56,14.58,34.42,15.75,52.28C277.5,418.18,277.56,419,277.61,419.55Z"/><path class="cls-1" d="M340.2,60.07a9.72,9.72,0,0,1-4.39-1,10.62,10.62,0,0,1-5.08-6s-2.84-8.23-13.28-16.32C299.67,22.89,274,20,255.5,20s-44.16,2.94-61.94,17c-10.44,8.24-13.27,16.58-13.3,16.66a5,5,0,0,1-9.54-3C171.24,49,184.14,10,255.5,10c70.09,0,83.78,37,84.73,39.88,0,0,.06.12.1.18a3.53,3.53,0,0,0,.46-.12,5,5,0,0,1,3.2,9.48A11.83,11.83,0,0,1,340.2,60.07Zm0-10.18,0,.11h0A.82.82,0,0,0,340.23,49.89Z"/><path class="cls-1" d="M151.56,462.6c-15.91,0-40.23-6.38-69-35.13C32.13,377,50.13,340.77,50.92,339.25l.06-.13c-5.18-1.88-40-17.07-40-84.57,0-71.35,38.37-84.26,40-84.77l.13,0c-2.33-5-16.24-40.38,31.5-88.11C133,31.18,169.28,49.18,170.8,50l.14.07a5,5,0,0,1,9.39,3.35,8.87,8.87,0,0,1-5.23,6.35c-3.92,1.59-7.81-.28-9-.92-.66-.31-8.34-3.73-20.9-2.14-22.31,2.83-42.55,19-55.59,32S60.5,122,57.84,144.48c-1.57,13.21,2.34,21.11,2.38,21.19,2.16,4.35,1.37,7.45.32,9.29a9.62,9.62,0,0,1-6.88,4.47c-1.55.61-8.83,3.87-16,13.17C23.84,210.38,21,236.1,21,254.55s2.94,44.16,17,61.94c8.24,10.44,16.58,13.27,16.67,13.3a5.52,5.52,0,0,1,.67.27c3.9,1.9,5.29,4.61,5.77,6.56a9.82,9.82,0,0,1-1.29,7.4c-.51,1.13-3.62,8.7-2.09,20.79,2.83,22.31,19,42.55,32,55.59,36.73,36.73,64,33.58,74.06,30.52a5,5,0,1,1,2.92,9.56A51.6,51.6,0,0,1,151.56,462.6Z"/><path class="cls-1" d="M494.64,271.76h-.35a5,5,0,0,1-4.64-5.34c.26-3.81.4-7.8.4-11.86,0-64.08-33.24-75.12-33.58-75.23l-.25-.08a9.22,9.22,0,0,1-5.73-5.4,11.08,11.08,0,0,1,.74-8.65h0s3.8-7.8,2.14-20.9c-1.57-12.32-8.39-32-32-55.59C376,43.39,344.73,59.09,344.42,59.25a5,5,0,1,1-4.66-8.85c1.53-.81,38.2-19.23,88.66,31.23s32.45,86.7,31.66,88.22c0,0,0,.08-.05.13,5.22,1.9,40,17.12,40,84.57,0,4.29-.14,8.51-.43,12.56A5,5,0,0,1,494.64,271.76Z"/></g><g id="Outline"><path class="cls-1" d="M156.24,379.91a5,5,0,0,1-3.18-1.14l-.79-.66a5,5,0,0,1,6.41-7.67l.74.62a5,5,0,0,1-3.18,8.85ZM141,365.5a5,5,0,0,1-3.67-1.6l-.7-.76a5,5,0,0,1,7.38-6.75l.66.72A5,5,0,0,1,141,365.5ZM127.8,349.19a5,5,0,0,1-4.1-2.13l-.59-.84a5,5,0,0,1,8.22-5.7l.55.8a5,5,0,0,1-4.08,7.87Zm-10.9-17.93a5,5,0,0,1-4.44-2.7l-.47-.91a5,5,0,1,1,8.91-4.55l.44.86a5,5,0,0,1-4.44,7.3ZM108.52,312a5,5,0,0,1-4.71-3.32l-.34-1a5,5,0,1,1,9.44-3.3l.32.91a5,5,0,0,1-3,6.39A4.91,4.91,0,0,1,108.52,312Zm-5.71-20.18a5,5,0,0,1-4.89-4l-.21-1a5,5,0,0,1,9.8-2l.2.95a5,5,0,0,1-3.87,5.92A4.51,4.51,0,0,1,102.81,291.85Zm-2.94-20.77a5,5,0,0,1-5-4.63l-.07-1a5,5,0,1,1,10-.67l.07,1a5,5,0,0,1-4.62,5.36Zm311.65-8.58h-.11a5,5,0,0,1-4.89-5.1v-.95a5,5,0,0,1,5-4.95h.06a5,5,0,0,1,4.94,5.06l0,1.05A5,5,0,0,1,411.52,262.5ZM99.74,250.1h-.31a5,5,0,0,1-4.69-5.29l.07-1a5,5,0,1,1,10,.65l-.06,1A5,5,0,0,1,99.74,250.1Zm310.78-8.55a5,5,0,0,1-5-4.43l-.11-1a5,5,0,1,1,9.93-1.2l.12,1a5,5,0,0,1-4.4,5.54ZM102.38,229.29a5.2,5.2,0,0,1-1-.09,5,5,0,0,1-4-5.87l.2-1a5,5,0,0,1,9.8,2l-.18.95A5,5,0,0,1,102.38,229.29Zm304.35-8.37a5,5,0,0,1-4.84-3.76l-.24-.95a5,5,0,1,1,9.68-2.52l.25,1a5,5,0,0,1-3.6,6.09A4.87,4.87,0,0,1,406.73,220.92ZM107.8,209a4.77,4.77,0,0,1-1.61-.27,5,5,0,0,1-3.12-6.35l.34-1a5,5,0,1,1,9.44,3.29l-.31.92A5,5,0,0,1,107.8,209Zm292.4-8a5,5,0,0,1-4.64-3.12l-.36-.9a5,5,0,0,1,9.25-3.81l.39,1A5,5,0,0,1,400.2,201ZM115.92,189.65a5,5,0,0,1-4.47-7.24l.47-.92a5,5,0,1,1,8.91,4.53l-.44.87A5,5,0,0,1,115.92,189.65Zm275.13-7.52a5,5,0,0,1-4.35-2.52l-.48-.84a5,5,0,0,1,8.65-5l.51.89a5,5,0,0,1-1.86,6.82A4.93,4.93,0,0,1,391.05,182.13ZM126.57,171.57a5,5,0,0,1-4.12-7.83l.58-.84a5,5,0,1,1,8.22,5.69l-.55.8A5,5,0,0,1,126.57,171.57Zm252.86-6.91a5,5,0,0,1-4-2l-.59-.76a5,5,0,1,1,7.9-6.13l.63.81a5,5,0,0,1-4,8Zm-239.89-9.59a5,5,0,0,1-3.71-8.34l.7-.77a5,5,0,0,1,7.38,6.74l-.65.72A5,5,0,0,1,139.54,155.07Zm226-6.16a5,5,0,0,1-3.52-1.46l-.69-.68a5,5,0,0,1,7-7.13l.73.72a5,5,0,0,1-3.53,8.55Zm-211-8.45a5,5,0,0,1-3.23-8.81l.79-.67a5,5,0,0,1,6.41,7.68l-.74.62A5,5,0,0,1,154.6,140.46Zm195.15-5.33a5,5,0,0,1-3-1l-.77-.58a5,5,0,0,1,6-8l.82.62a5,5,0,0,1-3,9ZM171.47,128a5,5,0,0,1-2.7-9.21l.86-.55a5,5,0,0,1,5.35,8.45l-.82.52A4.92,4.92,0,0,1,171.47,128Zm160.75-4.4a5,5,0,0,1-2.46-.65l-.84-.47a5,5,0,0,1,4.87-8.74l.91.51a5,5,0,0,1-2.48,9.35ZM189.84,117.9a5,5,0,0,1-2.11-9.53l.93-.43a5,5,0,1,1,4.17,9.09l-.88.41A5.12,5.12,0,0,1,189.84,117.9Zm123.46-3.39a5.05,5.05,0,0,1-1.85-.35l-.9-.36a5,5,0,0,1,3.65-9.31l1,.38a5,5,0,0,1-1.86,9.64Zm-103.88-4.14a5,5,0,0,1-1.48-9.78l1-.3a5,5,0,1,1,2.9,9.58l-.93.28A5,5,0,0,1,209.42,110.37Zm83.91-2.3a5.07,5.07,0,0,1-1.21-.15l-.95-.23A5,5,0,0,1,293.53,98l1,.25a5,5,0,0,1-1.19,9.85Zm-63.5-2.51a5,5,0,0,1-.81-9.94l1-.16a5,5,0,1,1,1.58,9.87l-1,.16A4.62,4.62,0,0,1,229.83,105.56Zm42.85-1.17a5.07,5.07,0,0,1-.55,0l-1-.1a5,5,0,1,1,1-10l1,.11a5,5,0,0,1-.53,10Zm-22-.86a5,5,0,0,1-.14-10l1,0h.12a5,5,0,0,1,.13,10l-1,0Z"/><path class="cls-1" d="M192.53,387.55a30.44,30.44,0,0,1-30-36.76c1.56-7.81,6.59-13.41,13.79-15.34,6.91-1.86,14.5.23,18.88,5.21,4.15,4.69,5,11.22,2.22,17.92a5,5,0,0,1-9.26-3.78c1.3-3.18,1.15-5.71-.46-7.53-1.9-2.15-5.51-3-8.78-2.17-2.44.66-5.56,2.52-6.58,7.65a20.46,20.46,0,0,0,5.48,18.78,20.7,20.7,0,0,0,18.95,5.61c8.51-1.66,14.39-7.06,17.48-16.06,5.12-14.91.95-37.92-8.93-49.23-20.55-23.57-21-43-20.91-46.58-1.65-14.84,2.82-44.44,31.52-53.1,19-5.71,39.39-.91,50.87,12,9.61,10.76,11.49,25.36,5.16,40.06a5,5,0,1,1-9.19-3.95c4.8-11.14,3.58-21.6-3.43-29.45-8.94-10-25.23-13.66-40.52-9-11.67,3.52-19.32,11.58-22.74,24a55.12,55.12,0,0,0-1.69,18.77,4.67,4.67,0,0,1,0,1s-.25,4.38,1.87,11.41c2,6.53,6.44,16.75,16.58,28.37,12.32,14.12,17.18,40.61,10.85,59.05-4.28,12.46-12.93,20.28-25,22.63A32,32,0,0,1,192.53,387.55Z"/><path class="cls-1" d="M196.05,415.08c-29.31,0-39.21-20.71-39.63-21.63a5,5,0,0,1,9.06-4.21c.38.78,8.57,17.08,33.5,15.76,27.55-1.48,45.52-25.95,45-47.89a5,5,0,0,1,4.89-5.11H249a5,5,0,0,1,5,4.89c.68,29.87-24.27,56.47-54.48,58.09C198.33,415,197.18,415.08,196.05,415.08Z"/><path class="cls-1" d="M200.29,442.1a91.65,91.65,0,0,1-39.17-9.18,5,5,0,0,1,4.66-8.85c.4.21,28,14.31,55.31,4.53,17.61-6.33,31.49-21.24,41.24-44.32a5,5,0,0,1,9.22,3.89C260.64,414,244.77,430.76,224.37,438A71.2,71.2,0,0,1,200.29,442.1Z"/><path class="cls-1" d="M300.71,267.22a4.51,4.51,0,0,1-.81-.07,5,5,0,0,1-4.13-5.74c1.68-10.23,4.9-44.89-24-61.32-39.15-22.44-73.07-1.07-74.49-.15-.16.1-23.78,16.56-27.17,49.11a5,5,0,0,1-10-1c3.9-37.34,30.47-55.65,31.6-56.41,1.69-1.1,40.4-25.75,85-.19,14.85,8.45,24.34,21.67,28.19,39.29a89,89,0,0,1,.68,32.33A5,5,0,0,1,300.71,267.22Z"/><path class="cls-1" d="M460,346.94H280.26a5,5,0,0,1,0-10H460a5,5,0,0,1,0,10Z"/><path class="cls-1" d="M460,321.32H280.26a5,5,0,0,1,0-10H460a5,5,0,0,1,0,10Z"/><path class="cls-1" d="M460,294.93H280.26a5,5,0,0,1,0-10H460a5,5,0,0,1,0,10Z"/><path class="cls-1" d="M350.73,472.1a4.3,4.3,0,0,1-.62,0,5,5,0,0,1-4.35-5.58l13-104.72a5,5,0,0,1,9.92,1.23l-13,104.73A5,5,0,0,1,350.73,472.1Z"/></g></svg>