<?xml version="1.0" ?><svg viewBox="0 0 512 512" xmlns="http://www.w3.org/2000/svg"><defs><style>.cls-1{fill:#3f456b;}</style></defs><title/><g id="Lines"><path class="cls-1" d="M436,292H76a5,5,0,0,1,0-10H436a5,5,0,0,1,0,10Z"/><path class="cls-1" d="M334.93,126.32H292.71c-5.86,0-9.8-4-9.8-10.09V62.53c0-6,3.94-10.08,9.8-10.08h42.22c5.87,0,9.81,4,9.81,10.08v53.7C344.74,122.27,340.8,126.32,334.93,126.32Zm-42-10h41.82a.28.28,0,0,0,0-.09V62.53a.22.22,0,0,0,0-.08H292.91v53.87Zm.07-54.4Z"/><path class="cls-1" d="M441.05,496.14h-10V243.06a9.31,9.31,0,0,0-4.43-1.05H82.52a4.74,4.74,0,0,0-2.07.36V496.14h-10V242.4c0-6.22,4.85-10.39,12.07-10.39h344.1c7,0,14.43,3.64,14.43,10.39Z"/><path class="cls-1" d="M468.11,442.2a5,5,0,0,1-5-5V424a5,5,0,0,1,10,0v13.2A5,5,0,0,1,468.11,442.2Z"/><path class="cls-1" d="M47.11,442.2a5,5,0,0,1-5-5V424a5,5,0,0,1,10,0v13.2A5,5,0,0,1,47.11,442.2Z"/><path class="cls-1" d="M482.32,498H33.49C20.63,498,12,488.14,12,478.93V30.09c0-11.5,11.32-19.52,21.49-19.52H409a5,5,0,0,1,3.62,1.55l87,91.24a5,5,0,0,1,1.38,3.45V478.93C501,490,493.15,498,482.32,498ZM33.49,20.57C28.28,20.57,22,24.82,22,30.09V478.93c0,5.19,6.06,9.07,11.49,9.07H482.32c5.19,0,8.68-3.65,8.68-9.07V108.81L406.86,20.57Z"/><path class="cls-1" d="M365.65,171.34H91.78c-9.61,0-17.13-8-17.13-18.2V10.86h10V153.14c0,4,2.67,8.2,7.13,8.2H365.65c4.1,0,7.56-3.76,7.56-8.2V10.86h10V153.14C383.21,163.17,375.33,171.34,365.65,171.34Z"/><path class="cls-1" d="M365.3,171.34H159.91c-10.1,0-19.3-8.6-19.3-18.05V28.61c0-9.44,9.2-18,19.3-18H365.3a18.21,18.21,0,0,1,17.91,18V153.29A18.22,18.22,0,0,1,365.3,171.34ZM159.91,20.57c-4.52,0-9.3,4.13-9.3,8V153.29c0,3.91,4.78,8.05,9.3,8.05H365.3a8.18,8.18,0,0,0,7.91-8.05V28.61a8.18,8.18,0,0,0-7.91-8Z"/></g><g id="Outline"><path class="cls-1" d="M376,339H132.29a5,5,0,1,1,0-10H376a5,5,0,0,1,0,10Z"/><path class="cls-1" d="M376,375H132.29a5,5,0,1,1,0-10H376a5,5,0,0,1,0,10Z"/><path class="cls-1" d="M376,410.93H132.29a5,5,0,1,1,0-10H376a5,5,0,0,1,0,10Z"/><path class="cls-1" d="M256.14,446.89H132.29a5,5,0,1,1,0-10H256.14a5,5,0,0,1,0,10Z"/></g></svg>