<?xml version="1.0" ?><svg enable-background="new 0 0 512 512" version="1.1" viewBox="0 0 512 512" xml:space="preserve" xmlns="http://www.w3.org/2000/svg" xmlns:xlink="http://www.w3.org/1999/xlink"><g id="Colors"><g><g><path d="M409.836,398.161c-0.979,0-2.082-0.167-3.309-0.584c-5.205-1.764-12.472-8.896-17.007-13.997     c-6.516,2.023-13.091,3.226-19.996,3.664c-4.607,0.305-8.229-2.665-8.601-7.033c-0.172-2.028,0.404-3.81,0.714-4.767     c1.336-4.131,2.982-8.042,4.574-11.825l0.875-2.086c0.22-0.527,0.476-1.085,0.732-1.644c0.203-0.439,0.406-0.877,0.58-1.293     c0.028-0.069,0.062-0.144,0.098-0.223c-0.609-0.9-1.241-1.799-1.893-2.727c-1.324-1.885-2.693-3.833-3.973-5.948     c-0.169-0.279-0.417-0.647-0.705-1.08c-2.664-4.001-7.624-11.448-2.8-16.614c1.754-1.878,4.076-2.163,4.95-2.271     c4.851-0.596,9.562-0.309,14.119-0.03l1.76,0.105c1.875,0.108,3.533,0.217,4.963,0.324c3.613-5.791,9.685-14.192,14.583-16.826     c3.382-1.819,6.043-1.3,7.68-0.544c2.873,1.326,4.007,4.006,4.398,5.289c1.871,4.587,3.589,14.945,4.44,20.666     c8.09,2.007,15.556,5.015,17.788,6.036c2,0.916,3.499,2.177,4.456,3.749c1.149,1.887,1.553,4.346,1.081,6.579     c-0.152,0.714-0.406,1.415-0.755,2.085c-0.741,1.425-1.898,2.676-3.438,3.719c-2.031,1.376-8.896,5.579-16.541,8.897     c0.107,5.783,0.127,16.283-0.958,21.115c-0.174,1.33-0.848,4.162-3.462,5.944C413.206,397.516,411.758,398.161,409.836,398.161z      M391.134,372.776c1.472,0,2.903,0.651,3.872,1.835c4.228,5.17,9.859,10.536,13.14,12.659c0.608-4.673,0.576-14.706,0.385-20.646     c-0.068-2.127,1.217-4.064,3.204-4.828c6.971-2.68,13.811-6.661,16.701-8.474c-3.149-1.308-10.553-4.102-17.874-5.591     c-2.085-0.424-3.674-2.122-3.958-4.231c-0.795-5.891-2.425-15.792-3.797-20.297c-2.885,2.637-7.549,8.861-10.863,14.66     c-0.982,1.718-2.885,2.693-4.852,2.494c-1.767-0.182-4.362-0.372-7.712-0.565l-1.792-0.107c-3.319-0.202-6.495-0.397-9.587-0.25     c0.755,1.397,1.791,2.952,2.25,3.641c0.384,0.577,0.71,1.071,0.937,1.444c1.104,1.823,2.316,3.55,3.6,5.377     c1.177,1.675,2.394,3.408,3.552,5.262c0.422,0.676,0.677,1.443,0.742,2.238l0.007,0.089c0.161,1.93-0.689,3.522-1.31,4.686     c-0.071,0.132-0.138,0.254-0.188,0.357c-0.184,0.444-0.436,0.994-0.688,1.542c-0.205,0.445-0.411,0.89-0.586,1.311l-0.888,2.115     c-1.369,3.253-2.672,6.351-3.78,9.543c6.124-0.604,11.977-1.913,17.818-3.979C390.014,372.87,390.577,372.776,391.134,372.776z      M429.828,352.384L429.828,352.384L429.828,352.384z M404.424,322.028L404.424,322.028     C404.424,322.028,404.424,322.028,404.424,322.028z M401.965,320.761c0.001,0.005,0.002,0.011,0.004,0.017     C401.967,320.772,401.966,320.767,401.965,320.761z" fill="#3F456B"/></g></g><g><g><path d="M124.707,334.228c-2.331,0-4.546-1.069-6.069-3.129c-1.211-1.638-1.654-3.457-1.892-4.434     c-1.026-4.211-1.675-8.399-2.303-12.45l-0.351-2.25c-0.089-0.563-0.164-1.173-0.238-1.783c-0.058-0.48-0.115-0.96-0.186-1.406     c-0.011-0.074-0.022-0.155-0.033-0.242c-0.992-0.447-2.001-0.882-3.043-1.331c-2.115-0.91-4.301-1.851-6.499-2.979     c-0.292-0.15-0.696-0.333-1.169-0.551c-4.366-2.01-12.492-5.75-11.094-12.678c0.509-2.52,2.336-3.979,3.024-4.529     c3.819-3.051,7.982-5.277,12.008-7.43l1.517-0.813c1.665-0.897,3.146-1.681,4.432-2.346c0.04-6.825,0.804-17.163,3.595-21.974     c1.927-3.322,4.465-4.276,6.254-4.491c3.145-0.377,5.512,1.31,6.519,2.197c3.998,2.924,10.892,10.844,14.617,15.269     c7.938-2.533,15.874-3.887,18.311-4.188c2.181-0.27,4.119,0.019,5.76,0.855c1.97,1.004,3.604,2.888,4.371,5.038     c0.243,0.683,0.395,1.411,0.45,2.163c0.115,1.608-0.214,3.279-0.977,4.974c-1.009,2.239-4.653,9.419-9.421,16.25     c3.123,4.868,8.647,13.798,10.256,18.482c0.55,1.224,1.46,3.988,0.169,6.877c-0.735,1.646-2.398,3.788-6.141,4.645     c-5.358,1.226-15.285-1.035-21.821-3.002c-4.488,5.14-9.456,9.612-15.105,13.605     C128.081,333.688,126.364,334.228,124.707,334.228z M126.74,325.249h0.01H126.74z M103.283,292.668     c1.375,0.793,3.072,1.574,3.824,1.92c0.631,0.29,1.167,0.54,1.556,0.74c1.894,0.973,3.832,1.806,5.883,2.689     c1.881,0.81,3.827,1.647,5.786,2.619c0.722,0.358,1.346,0.885,1.82,1.537l0.052,0.072c1.135,1.538,1.246,3.341,1.328,4.658     c0.009,0.149,0.016,0.288,0.027,0.402c0.076,0.474,0.15,1.073,0.223,1.673c0.059,0.486,0.117,0.973,0.188,1.424l0.356,2.281     c0.54,3.483,1.053,6.799,1.783,10.093c4.898-3.725,9.195-7.909,13.085-12.731c1.325-1.641,3.535-2.275,5.528-1.585     c6.311,2.186,13.92,3.802,17.827,3.89c-1.933-4.297-7.221-12.824-10.498-17.782c-1.174-1.775-1.095-4.099,0.196-5.791     c4.529-5.935,8.267-12.913,9.778-15.972c-3.37,0.538-11.14,2.042-18.151,4.611c-1.998,0.731-4.241,0.12-5.589-1.527     c-3.766-4.599-10.345-12.174-13.876-15.292c-1.073,3.758-1.782,11.504-1.563,18.179c0.065,1.977-1.042,3.806-2.823,4.667     c-1.114,0.538-3.215,1.596-6.897,3.581l-1.547,0.83C108.646,289.422,105.839,290.923,103.283,292.668z M164.542,312.171     L164.542,312.171L164.542,312.171z M122.411,258.958c0.003,0.004,0.008,0.008,0.012,0.013     C122.419,258.966,122.415,258.962,122.411,258.958z" fill="#3F456B"/></g></g><g opacity="0.3"><g><ellipse cx="293.5" cy="167" fill="#FFFFFF" rx="10.5" ry="13"/></g></g><g><g><path d="M34.33,74.201c-2.753,0-4.99-2.227-5-4.983c-0.009-2.761,2.222-5.008,4.983-5.017l11.726-0.04     c2.783,0.034,5.008,2.221,5.017,4.983c0.009,2.761-2.222,5.008-4.983,5.017l-11.726,0.04     C34.342,74.201,34.336,74.201,34.33,74.201z" fill="#384169"/></g><g><path d="M117.069,73.94c-2.75,0-4.985-2.222-5-4.974c-0.014-2.761,2.213-5.012,4.974-5.026l10.581-0.055     c2.735-0.047,5.012,2.213,5.026,4.974s-2.213,5.012-4.974,5.026l-10.581,0.055C117.087,73.94,117.078,73.94,117.069,73.94z" fill="#384169"/></g></g><g><g><path d="M112.318,55.597c-1.723,0-3.398-0.891-4.327-2.486c-1.389-2.387-0.58-5.448,1.807-6.836l9.328-5.427     c2.386-1.389,5.447-0.58,6.836,1.807c1.389,2.387,0.58,5.448-1.807,6.836l-9.328,5.427     C114.037,55.377,113.171,55.597,112.318,55.597z" fill="#384169"/></g></g><g><g><path d="M98.88,42.825c-0.843,0-1.697-0.213-2.48-0.663c-2.396-1.373-3.226-4.428-1.853-6.824l5.571-9.726     c1.372-2.396,4.427-3.227,6.824-1.853c2.396,1.373,3.226,4.428,1.853,6.824l-5.571,9.726     C102.3,41.922,100.615,42.825,98.88,42.825z" fill="#384169"/></g></g><g><g><path d="M81.208,38.318c-2.75,0-4.986-2.223-5-4.976l-0.054-11.258c-0.013-2.761,2.214-5.011,4.976-5.024     c0.008,0,0.016,0,0.024,0c2.75,0,4.986,2.223,5,4.976l0.054,11.258c0.013,2.761-2.214,5.011-4.976,5.024     C81.225,38.318,81.216,38.318,81.208,38.318z" fill="#384169"/></g></g><g><g><path d="M63.488,43.263c-1.722,0-3.398-0.891-4.327-2.486l-5.822-10.006c-1.389-2.387-0.58-5.448,1.807-6.836     c2.387-1.388,5.447-0.58,6.836,1.807l5.822,10.006c1.389,2.387,0.58,5.448-1.807,6.836     C65.207,43.044,64.341,43.263,63.488,43.263z" fill="#384169"/></g></g><g><g><path d="M50.708,56.241c-0.843,0-1.697-0.213-2.48-0.662L38.105,49.78c-2.396-1.372-3.226-4.427-1.853-6.824     c1.372-2.396,4.426-3.227,6.824-1.853l10.123,5.798c2.396,1.373,3.226,4.428,1.854,6.824     C54.128,55.338,52.442,56.241,50.708,56.241z" fill="#384169"/></g></g><g><g><path d="M115.924,73.865c-2.753,0-4.99-2.227-5-4.983c-0.009-2.761,2.222-5.008,4.983-5.017l11.726-0.04     c0.006,0,0.012,0,0.018,0c2.753,0,4.99,2.227,5,4.983c0.009,2.761-2.222,5.008-4.983,5.017l-11.726,0.04     C115.936,73.865,115.93,73.865,115.924,73.865z" fill="#384169"/></g><g><path d="M34.33,74.142c-2.75,0-4.985-2.222-5-4.974c-0.014-2.761,2.213-5.012,4.974-5.026l10.582-0.055     c0.009,0,0.018,0,0.026,0c2.75,0,4.985,2.222,5,4.974c0.014,2.761-2.213,5.012-4.974,5.026l-10.582,0.055     C34.348,74.142,34.339,74.142,34.33,74.142z" fill="#384169"/></g></g><g><g><path d="M40.345,97.859c-1.723,0-3.398-0.891-4.327-2.486c-1.389-2.387-0.58-5.448,1.807-6.836l9.328-5.427     c2.387-1.389,5.447-0.58,6.836,1.807c1.389,2.387,0.58,5.448-1.807,6.836l-9.328,5.427C42.064,97.64,41.199,97.859,40.345,97.859     z" fill="#384169"/></g></g><g><g><path d="M57.52,114.929c-0.843,0-1.697-0.213-2.48-0.663c-2.396-1.373-3.226-4.428-1.853-6.824l5.572-9.726     c1.372-2.396,4.428-3.227,6.824-1.853c2.396,1.373,3.226,4.428,1.853,6.824l-5.572,9.726     C60.94,114.025,59.254,114.929,57.52,114.929z" fill="#384169"/></g></g><g><g><path d="M104.325,114.771c-1.723,0-3.398-0.891-4.327-2.486l-5.821-10.005c-1.389-2.387-0.58-5.448,1.807-6.836     c2.387-1.389,5.447-0.58,6.836,1.807l5.821,10.005c1.389,2.387,0.58,5.448-1.807,6.836     C106.044,114.552,105.179,114.771,104.325,114.771z" fill="#384169"/></g></g><g><g><path d="M121.386,97.585c-0.843,0-1.696-0.213-2.48-0.662l-10.123-5.798c-2.396-1.373-3.227-4.428-1.854-6.824     c1.373-2.397,4.427-3.227,6.824-1.854l10.123,5.798c2.396,1.373,3.226,4.428,1.854,6.824     C124.806,96.682,123.121,97.585,121.386,97.585z" fill="#384169"/></g></g><g><g><path d="M81.651,91.796c-12.682,0-23-10.318-23-23s10.318-23,23-23s23,10.318,23,23S94.333,91.796,81.651,91.796z      M81.651,55.796c-7.168,0-13,5.832-13,13s5.832,13,13,13s13-5.832,13-13S88.819,55.796,81.651,55.796z" fill="#384169"/></g></g><g><g><path d="M402.33,453.201c-2.753,0-4.99-2.227-5-4.983c-0.009-2.761,2.222-5.008,4.983-5.017l11.726-0.04     c0.006,0,0.012,0,0.018,0c2.753,0,4.99,2.227,5,4.983c0.009,2.761-2.222,5.008-4.983,5.017l-11.726,0.04     C402.342,453.201,402.336,453.201,402.33,453.201z" fill="#384169"/></g><g><path d="M485.069,452.94c-2.75,0-4.985-2.222-5-4.974c-0.014-2.761,2.213-5.012,4.974-5.026l10.581-0.055     c0.009,0,0.018,0,0.026,0c2.75,0,4.985,2.222,5,4.974c0.014,2.761-2.213,5.012-4.974,5.026l-10.581,0.055     C485.087,452.94,485.078,452.94,485.069,452.94z" fill="#384169"/></g></g><g><g><path d="M480.318,434.597c-1.723,0-3.398-0.891-4.327-2.486c-1.389-2.387-0.58-5.448,1.807-6.836l9.328-5.427     c2.387-1.389,5.447-0.58,6.836,1.807c1.389,2.387,0.58,5.448-1.807,6.836l-9.328,5.427     C482.037,434.377,481.171,434.597,480.318,434.597z" fill="#384169"/></g></g><g><g><path d="M466.88,421.825c-0.843,0-1.697-0.213-2.48-0.663c-2.396-1.373-3.226-4.428-1.853-6.824l5.571-9.726     c1.372-2.396,4.426-3.228,6.824-1.853c2.396,1.373,3.226,4.428,1.853,6.824l-5.571,9.726     C470.3,420.922,468.615,421.825,466.88,421.825z" fill="#384169"/></g></g><g><g><path d="M449.208,417.318c-2.75,0-4.986-2.223-5-4.976l-0.054-11.258c-0.013-2.761,2.214-5.011,4.976-5.024     c0.008,0,0.016,0,0.024,0c2.75,0,4.986,2.223,5,4.976l0.054,11.258c0.013,2.761-2.214,5.011-4.976,5.024     C449.225,417.318,449.216,417.318,449.208,417.318z" fill="#384169"/></g></g><g><g><path d="M431.488,422.263c-1.722,0-3.398-0.891-4.327-2.486l-5.822-10.006c-1.389-2.387-0.58-5.448,1.807-6.836     c2.387-1.388,5.448-0.58,6.836,1.807l5.822,10.006c1.389,2.387,0.58,5.448-1.807,6.836     C433.207,422.044,432.341,422.263,431.488,422.263z" fill="#384169"/></g></g><g><g><path d="M418.708,435.241c-0.843,0-1.697-0.213-2.48-0.662l-10.123-5.799c-2.396-1.372-3.226-4.427-1.853-6.824     c1.372-2.396,4.427-3.227,6.824-1.853l10.123,5.798c2.396,1.373,3.226,4.428,1.854,6.824     C422.128,434.338,420.442,435.241,418.708,435.241z" fill="#384169"/></g></g><g><g><path d="M483.924,452.865c-2.753,0-4.99-2.227-5-4.983c-0.009-2.761,2.222-5.008,4.983-5.017l11.726-0.04     c0.006,0,0.012,0,0.018,0c2.753,0,4.99,2.227,5,4.983c0.009,2.761-2.222,5.008-4.983,5.017l-11.726,0.04     C483.936,452.865,483.93,452.865,483.924,452.865z" fill="#384169"/></g><g><path d="M402.33,453.142c-2.75,0-4.985-2.222-5-4.974c-0.014-2.761,2.213-5.012,4.974-5.026l10.582-0.055     c0.009,0,0.018,0,0.026,0c2.75,0,4.985,2.222,5,4.974c0.014,2.761-2.213,5.012-4.974,5.026l-10.582,0.055     C402.348,453.142,402.339,453.142,402.33,453.142z" fill="#384169"/></g></g><g><g><path d="M408.345,476.859c-1.723,0-3.398-0.891-4.327-2.486c-1.389-2.387-0.58-5.448,1.807-6.836l9.328-5.427     c2.387-1.389,5.447-0.58,6.836,1.807c1.389,2.387,0.58,5.448-1.807,6.836l-9.328,5.427     C410.064,476.64,409.199,476.859,408.345,476.859z" fill="#384169"/></g></g><g><g><path d="M425.52,493.929c-0.843,0-1.697-0.213-2.48-0.663c-2.396-1.373-3.226-4.428-1.853-6.824l5.572-9.726     c1.372-2.396,4.427-3.227,6.824-1.853c2.396,1.373,3.226,4.428,1.853,6.824l-5.572,9.726     C428.94,493.025,427.254,493.929,425.52,493.929z" fill="#384169"/></g></g><g><g><path d="M472.325,493.771c-1.723,0-3.398-0.891-4.327-2.486l-5.821-10.005c-1.389-2.387-0.58-5.448,1.807-6.836     c2.386-1.389,5.447-0.58,6.836,1.807l5.821,10.005c1.389,2.387,0.58,5.448-1.807,6.836     C474.044,493.552,473.179,493.771,472.325,493.771z" fill="#384169"/></g></g><g><g><path d="M489.386,476.585c-0.843,0-1.696-0.213-2.48-0.662l-10.123-5.798c-2.396-1.373-3.227-4.428-1.854-6.824     c1.373-2.396,4.426-3.227,6.824-1.854l10.123,5.798c2.396,1.373,3.226,4.428,1.854,6.824     C492.806,475.682,491.121,476.585,489.386,476.585z" fill="#384169"/></g></g><g><g><path d="M449.651,470.796c-12.682,0-23-10.318-23-23s10.318-23,23-23s23,10.318,23,23     S462.333,470.796,449.651,470.796z M449.651,434.796c-7.168,0-13,5.832-13,13s5.832,13,13,13s13-5.832,13-13     S456.819,434.796,449.651,434.796z" fill="#3F456B"/></g></g><g><path d="M76,384.95c0-2.76,2.24-5,5-5l0,0c2.76,0,5,2.24,5,5l0,0c0,2.76-2.24,5-5,5l0,0    C78.24,389.95,76,387.71,76,384.95z M76,364.95c0-2.77,2.24-5,5-5l0,0c2.76,0,5,2.23,5,5l0,0c0,2.76-2.24,5-5,5l0,0    C78.24,369.95,76,367.71,76,364.95z M76,344.95c0-2.76,2.24-5,5-5l0,0c2.76,0,5,2.24,5,5l0,0c0,2.76-2.24,5-5,5l0,0    C78.24,349.95,76,347.71,76,344.95z M76,324.95c0-2.76,2.24-5,5-5l0,0c2.76,0,5,2.24,5,5l0,0c0,2.76-2.24,5-5,5l0,0    C78.24,329.95,76,327.71,76,324.95z M76,304.95c0-2.77,2.24-5,5-5l0,0c2.76,0,5,2.23,5,5l0,0c0,2.76-2.24,5-5,5l0,0    C78.24,309.95,76,307.71,76,304.95z M76,284.95c0-2.76,2.24-5,5-5l0,0c2.76,0,5,2.24,5,5l0,0c0,2.76-2.24,5-5,5l0,0    C78.24,289.95,76,287.71,76,284.95z M76,264.95c0-2.77,2.24-5,5-5l0,0c2.76,0,5,2.23,5,5l0,0c0,2.76-2.24,5-5,5l0,0    C78.24,269.95,76,267.71,76,264.95z M76,244.95c0-2.77,2.24-5,5-5l0,0c2.76,0,5,2.23,5,5l0,0c0,2.76-2.24,5-5,5l0,0    C78.24,249.95,76,247.71,76,244.95z M76,224.95c0-2.76,2.24-5,5-5l0,0c2.76,0,5,2.24,5,5l0,0c0,2.76-2.24,5-5,5l0,0    C78.24,229.95,76,227.71,76,224.95z M76,204.95c0-2.77,2.24-5,5-5l0,0c2.76,0,5,2.23,5,5l0,0c0,2.76-2.24,5-5,5l0,0    C78.24,209.95,76,207.71,76,204.95z M76,184.95c0-2.76,2.24-5,5-5l0,0c2.76,0,5,2.24,5,5l0,0c0,2.76-2.24,5-5,5l0,0    C78.24,189.95,76,187.71,76,184.95z M76,164.95c0-2.76,2.24-5,5-5l0,0c2.76,0,5,2.24,5,5l0,0c0,2.76-2.24,5-5,5l0,0    C78.24,169.95,76,167.71,76,164.95z M76,144.95c0-2.77,2.24-5,5-5l0,0c2.76,0,5,2.23,5,5l0,0c0,2.76-2.24,5-5,5l0,0    C78.24,149.95,76,147.71,76,144.95z M76,124.95c0-2.76,2.24-5,5-5l0,0c2.76,0,5,2.24,5,5l0,0c0,2.76-2.24,5-5,5l0,0    C78.24,129.95,76,127.71,76,124.95z M76,104.95c0-2.77,2.24-5,5-5l0,0c2.76,0,5,2.23,5,5l0,0c0,2.76-2.24,5-5,5l0,0    C78.24,109.95,76,107.71,76,104.95z" fill="#384169"/></g><g><path d="M36,395c0-2.76,2.24-5,5-5l0,0c2.76,0,5,2.24,5,5l0,0c0,2.76-2.24,5-5,5l0,0C38.24,400,36,397.76,36,395z     M36,375c0-2.76,2.24-5,5-5l0,0c2.76,0,5,2.24,5,5l0,0c0,2.76-2.24,5-5,5l0,0C38.24,380,36,377.76,36,375z M36,355    c0-2.76,2.24-5,5-5l0,0c2.76,0,5,2.24,5,5l0,0c0,2.76-2.24,5-5,5l0,0C38.24,360,36,357.76,36,355z M36,335c0-2.76,2.24-5,5-5l0,0    c2.76,0,5,2.24,5,5l0,0c0,2.76-2.24,5-5,5l0,0C38.24,340,36,337.76,36,335z" fill="#384169"/></g><g><path d="M465,381c0-2.76,2.24-5,5-5l0,0c2.76,0,5,2.24,5,5l0,0c0,2.76-2.24,5-5,5l0,0    C467.24,386,465,383.76,465,381z M465,361c0-2.76,2.24-5,5-5l0,0c2.76,0,5,2.24,5,5l0,0c0,2.76-2.24,5-5,5l0,0    C467.24,366,465,363.76,465,361z M465,341c0-2.76,2.24-5,5-5l0,0c2.76,0,5,2.24,5,5l0,0c0,2.76-2.24,5-5,5l0,0    C467.24,346,465,343.76,465,341z M465,321c0-2.76,2.24-5,5-5l0,0c2.76,0,5,2.24,5,5l0,0c0,2.76-2.24,5-5,5l0,0    C467.24,326,465,323.76,465,321z" fill="#384169"/></g><g><path d="M427.005,286.001c-0.31,0-0.625-0.029-0.941-0.089c-15.5-2.953-28.402-13.673-34.512-28.677    c-5.86-14.393-4.276-29.736,4.348-42.096c2.341-3.356,4.869-6.502,7.564-9.424c-3.793-5.557-6.296-11.92-7.403-18.937    c-2.162-13.691,1.303-27.163,9.415-37.946c-4.195-6.217-6.224-13.603-5.451-21.33c2.664-26.641,25.364-38.079,36.995-40.405    c2.704-0.544,5.342,1.214,5.883,3.922c0.541,2.703-1.208,5.332-3.907,5.88l0,0c-1.078,0.223-26.436,5.752-29.021,31.598    c-0.412,4.122,0.371,8.581,2.534,12.707c0.777-0.692,1.579-1.367,2.405-2.021c12.403-9.825,31.309-17.663,47.171-10.192    c6.471,3.048,10.198,8.73,9.971,15.199c-0.227,6.474-3.098,11.93-8.3,15.778c-10.292,7.612-26.68,6.979-35.187,4.697    c-6.265-1.681-11.754-4.544-16.209-8.255c-5.689,8.37-8.047,18.519-6.422,28.81c0.837,5.305,2.62,9.738,4.888,13.423    c8.312-7.06,17.837-12.302,28.228-15.47c12.069-3.68,34.336-7.818,47.877,5.813c4.61,4.641,6.378,10.462,4.977,16.39    c-2.204,9.321-11.678,16.997-19.897,19.762c-17.698,5.952-38.182,3.897-53.462-5.364c-3.141-1.904-5.983-4.049-8.514-6.417    c-2.1,2.346-4.082,4.85-5.933,7.504c-6.647,9.527-7.845,21.41-3.287,32.603c4.826,11.852,14.965,20.31,27.122,22.625    c2.713,0.517,4.493,3.135,3.976,5.847C431.455,284.332,429.358,286.001,427.005,286.001z M417.211,206.346    c2.184,2.007,4.434,3.611,6.52,4.876c12.833,7.777,30.11,9.477,45.091,4.438c5.423-1.824,12.07-7.154,13.354-12.584    c0.611-2.583-0.133-4.821-2.339-7.043c-9.844-9.911-27.95-6.319-37.865-3.295C432.871,195.512,424.516,200.124,417.211,206.346z     M418.873,148.931c3.174,2.595,7.242,4.721,12.289,6.075c8.112,2.176,20.296,1.619,26.649-3.079    c2.742-2.028,4.133-4.674,4.252-8.089c0.109-3.093-2.245-4.862-4.238-5.801c-7.687-3.621-21.367-3.162-36.701,8.984    C420.347,147.637,419.596,148.274,418.873,148.931z" fill="#384169"/></g><g><g><path d="M413,75c-1.28,0-2.559-0.488-3.536-1.464l-27-27c-1.953-1.953-1.953-5.119,0-7.071l27-27     c1.953-1.952,5.118-1.952,7.071,0l27,27c1.953,1.953,1.953,5.119,0,7.071l-27,27C415.559,74.512,414.28,75,413,75z M393.071,43     L413,62.929L432.929,43L413,23.071L393.071,43z" fill="#3F456B"/></g></g><g><g><path d="M41,256c-1.28,0-2.559-0.488-3.536-1.464l-27-27c-1.953-1.953-1.953-5.119,0-7.071l27-27     c1.953-1.952,5.118-1.952,7.071,0l27,27c1.953,1.953,1.953,5.119,0,7.071l-27,27C43.559,255.512,42.28,256,41,256z M21.071,224     L41,243.929L60.929,224L41,204.071L21.071,224z" fill="#3F456B"/></g></g><g><g><path d="M470,310c-1.28,0-2.559-0.488-3.536-1.464l-27-27c-1.953-1.953-1.953-5.119,0-7.071l27-27     c1.953-1.952,5.118-1.952,7.071,0l27,27c1.953,1.953,1.953,5.119,0,7.071l-27,27C472.559,309.512,471.28,310,470,310z      M450.071,278L470,297.929L489.929,278L470,258.071L450.071,278z" fill="#3F456B"/></g></g><g><g><path d="M127,439c-1.28,0-2.559-0.488-3.536-1.464l-27-27c-1.953-1.953-1.953-5.119,0-7.071l27-27     c1.953-1.952,5.118-1.952,7.071,0l27,27c1.953,1.953,1.953,5.119,0,7.071l-27,27C129.559,438.512,128.28,439,127,439z      M107.071,407L127,426.929L146.929,407L127,387.071L107.071,407z" fill="#3F456B"/></g></g><g><path d="M364.006,470.001c-0.289,0-0.581-0.025-0.875-0.077c-2.719-0.48-4.535-3.073-4.055-5.793    c6.045-34.254,19.81-63.996,20.393-65.245c1.167-2.502,4.142-3.583,6.644-2.417c2.502,1.167,3.584,4.142,2.418,6.644    c-0.137,0.295-13.799,29.842-19.607,62.756C368.496,468.294,366.386,470.001,364.006,470.001z" fill="#3F456B"/></g><g><path d="M167.994,389.001c-2.363,0-4.465-1.683-4.911-4.09c-4.774-25.779-17.21-46.077-17.335-46.279    c-1.453-2.348-0.728-5.43,1.62-6.883c2.348-1.454,5.43-0.729,6.883,1.62c0.551,0.89,13.553,22.116,18.665,49.721    c0.503,2.715-1.291,5.324-4.006,5.827C168.603,388.973,168.296,389.001,167.994,389.001z" fill="#3F456B"/></g><g><path d="M52.22,292.302c-1.28,0-2.559-0.488-3.536-1.464c-1.953-1.953-1.953-5.119,0-7.071l9.291-9.291    c1.953-1.952,5.118-1.952,7.071,0c1.953,1.953,1.953,5.119,0,7.071l-9.291,9.291C54.779,291.814,53.5,292.302,52.22,292.302z" fill="#384169"/></g><g><path d="M20.511,323.988c-1.28,0-2.559-0.488-3.536-1.464c-1.953-1.953-1.953-5.119,0-7.071l9.291-9.291    c1.953-1.952,5.118-1.952,7.071,0c1.953,1.953,1.953,5.119,0,7.071l-9.291,9.291C23.07,323.5,21.791,323.988,20.511,323.988z" fill="#384169"/></g><g><path d="M61.499,324c-1.28,0-2.559-0.488-3.536-1.464l-9.291-9.291c-1.953-1.953-1.953-5.119,0-7.071    c1.953-1.952,5.118-1.952,7.071,0l9.291,9.291c1.953,1.953,1.953,5.119,0,7.071C64.058,323.512,62.779,324,61.499,324z" fill="#384169"/></g><g><path d="M29.813,292.291c-1.28,0-2.559-0.488-3.536-1.464l-9.291-9.291c-1.953-1.953-1.953-5.119,0-7.071    c1.953-1.952,5.118-1.952,7.071,0l9.291,9.291c1.953,1.953,1.953,5.119,0,7.071C32.372,291.802,31.093,292.291,29.813,292.291z" fill="#384169"/></g><g><path d="M34.616,298.526c0-3.575,2.896-6.473,6.473-6.473c3.574,0,6.473,2.898,6.473,6.473    c0,3.575-2.898,6.474-6.473,6.474C37.513,305,34.616,302.101,34.616,298.526z" fill="#384169"/></g><g><g><g><path d="M63.041,503c-2.478,0-4.629-1.841-4.953-4.364c-0.065-0.502-5.923-43.073-33.507-45.659      c-2.509-0.235-4.451-2.301-4.531-4.82s1.729-4.704,4.218-5.097c1.36-0.226,33.78-6.103,33.78-48.061c0-2.761,2.239-5,5-5      s5,2.239,5,5c0,26.302-11.384,40.661-20.934,48.075c-2.354,1.828-4.711,3.33-6.955,4.562      c8.326,4.758,15.26,12.998,20.442,24.423c5.745,12.665,7.341,24.797,7.407,25.307c0.35,2.739-1.587,5.243-4.327,5.593      C63.466,502.987,63.252,503,63.041,503z" fill="#3F456B"/></g><g><path d="M63.054,503c-0.211,0-0.424-0.013-0.64-0.041c-2.739-0.35-4.676-2.854-4.327-5.593      c0.065-0.51,1.662-12.642,7.407-25.307c5.182-11.425,12.116-19.666,20.442-24.423c-2.244-1.231-4.601-2.733-6.955-4.562      c-9.55-7.414-20.934-21.772-20.934-48.075c0-2.761,2.239-5,5-5s5,2.239,5,5c0,17.867,5.742,31.384,17.066,40.175      c8.253,6.407,16.632,7.873,16.714,7.886c2.489,0.393,4.297,2.578,4.218,5.097s-2.021,4.585-4.531,4.82      c-27.694,2.596-33.452,45.225-33.507,45.655C67.685,501.157,65.533,503,63.054,503z" fill="#3F456B"/></g></g></g></g><g id="Lines"><g><path d="M301,212c-15.991,0-29-15.028-29-33.5s13.009-33.5,29-33.5s29,15.028,29,33.5S316.991,212,301,212z     M301,155c-10.477,0-19,10.542-19,23.5s8.523,23.5,19,23.5s19-10.542,19-23.5S311.477,155,301,155z" fill="#3F456B"/></g><g><path d="M367.253,140.017c-0.112,0-0.226-0.003-0.34-0.011c-2.755-0.185-4.839-2.568-4.654-5.324    c1.284-19.115-2.578-38.204-11.167-55.204c-1.245-2.465-0.256-5.472,2.208-6.718c2.465-1.246,5.472-0.257,6.718,2.208    c9.397,18.6,13.623,39.48,12.219,60.383C372.06,137.993,369.862,140.017,367.253,140.017z" fill="#3F456B"/></g><g><path d="M155.97,181.819c-1.844,0-3.618-1.024-4.488-2.79c-22.079-44.773-13.182-98.586,22.14-133.908    c20.88-20.88,48.623-32.971,78.116-34.044c29.333-1.068,57.73,8.823,79.951,27.852c2.097,1.796,2.341,4.953,0.545,7.05    c-1.796,2.097-4.953,2.341-7.05,0.545c-20.308-17.391-46.255-26.431-73.083-25.454c-26.96,0.981-52.32,12.034-71.408,31.123    c-32.292,32.291-40.426,81.485-20.243,122.414c1.221,2.477,0.204,5.475-2.273,6.696    C157.467,181.653,156.712,181.819,155.97,181.819z" fill="#3F456B"/></g><g><path d="M345,500H166.899c-2.761,0-5-2.239-5-5c0-19.644,10.259-48.471,10.695-49.688    c0.208-0.571,19.74-55.037,14.719-127.173c-4.081-58.621-44.565-117.616-46.344-120.177c-1.057-1.382-8.281-11.327-6.294-22.397    c1.208-6.729,5.409-12.312,12.486-16.593c2.363-1.429,5.437-0.672,6.866,1.69s0.672,5.437-1.69,6.866    c-4.557,2.756-7.112,5.948-7.811,9.758c-1.322,7.199,4.342,14.544,4.399,14.618c0.051,0.065,0.113,0.148,0.161,0.215    c1.789,2.538,43.854,62.859,48.202,125.326c5.177,74.38-14.455,128.987-15.293,131.275c-0.081,0.228-8.392,23.592-9.873,41.28    h167.653c-1.479-17.705-9.792-41.055-9.884-41.312c-0.369-1.034-8.998-25.551-13.447-64.115c-0.316-2.744,1.651-5.224,4.394-5.541    c2.745-0.312,5.224,1.651,5.541,4.394c4.319,37.44,12.844,61.655,12.929,61.895C339.742,446.529,350,475.356,350,495    C350,497.761,347.761,500,345,500z" fill="#3F456B"/></g><g><path d="M185.003,429.001c-1.894,0-3.705-1.081-4.547-2.915c-1.152-2.51-0.052-5.478,2.458-6.63    c35.041-16.084,52.355-47.451,60.71-70.932c10.437-29.332,12.56-63.419,5.679-91.184c-4.319-17.427-11.822-34.511-19.078-51.031    c-5.819-13.25-11.837-26.95-16.338-41.018c-2.508-7.838-2.441-14.662,0.193-19.733c2.084-4.012,5.596-6.814,10.438-8.328    c4.915-1.535,9.607-1.091,13.571,1.284c7.637,4.576,9.981,14.646,10.341,16.424c0.749,2.932,17.358,66.263,50.599,66.263    c0.183,0,0.362-0.002,0.546-0.006c43.205-0.898,49.436-72.727,49.494-73.452c0.004-0.046,0.008-0.093,0.013-0.14    c0.846-7.818,6.975-18.95,20.386-17.592c4.134,0.42,7.535,2.234,9.833,5.245c5,6.55,3.325,16.577,2.521,21.396l-0.034,0.204    c-2.854,17.121-6.715,34.649-11.804,53.587c-25.543,95.06-72.218,170.288-134.976,217.55c-2.207,1.661-5.341,1.219-7.002-0.986    s-1.22-5.341,0.986-7.002c77.016-58,113.93-147.385,131.334-212.156c5.004-18.621,8.797-35.838,11.597-52.636l0.035-0.208    c0.483-2.892,1.766-10.573-0.605-13.68c-0.413-0.54-1.114-1.183-2.896-1.364c-8.033-0.824-9.286,7.453-9.427,8.663    c-0.135,1.616-1.854,20.592-9.422,39.986c-10.693,27.403-27.922,42.128-49.825,42.584c-0.255,0.005-0.513,0.008-0.766,0.008    c-41.654,0.004-59.575-70.935-60.322-73.973c-0.021-0.085-0.04-0.172-0.056-0.258c-0.376-1.897-2.239-7.828-5.708-9.889    c-0.948-0.563-2.542-1.208-5.429-0.306c-2.237,0.699-3.725,1.809-4.547,3.393c-1.359,2.617-1.197,6.905,0.457,12.075    c4.343,13.572,10.253,27.03,15.97,40.044c7.425,16.907,15.104,34.389,19.628,52.647c7.334,29.594,5.104,65.833-5.964,96.941    c-12.723,35.756-36.147,62.983-65.959,76.667C186.41,428.854,185.701,429.001,185.003,429.001z" fill="#3F456B"/></g><g><path d="M327,429H185c-2.761,0-5-2.239-5-5s2.239-5,5-5h142c2.761,0,5,2.239,5,5S329.761,429,327,429z" fill="#3F456B"/></g><g><path d="M340,477H172c-2.761,0-5-2.239-5-5s2.239-5,5-5h168c2.761,0,5,2.239,5,5S342.761,477,340,477z" fill="#3F456B"/></g><g><path d="M334,452H178c-2.761,0-5-2.239-5-5s2.239-5,5-5h156c2.761,0,5,2.239,5,5S336.761,452,334,452z" fill="#3F456B"/></g><g><path d="M304.999,413c-1.194,0-2.392-0.425-3.348-1.288c-2.05-1.85-2.212-5.012-0.362-7.062    c35.442-39.274,43.896-148.421,43.977-149.52c0.204-2.754,2.6-4.82,5.355-4.617c2.754,0.204,4.821,2.602,4.617,5.355    c-0.021,0.282-2.163,28.57-8.837,61.499c-9.056,44.684-21.736,76.304-37.689,93.981C307.725,412.444,306.364,413,304.999,413z" fill="#3F456B"/></g><g><path d="M191.5,219.5c-12.347,0-24.129-10.227-35.02-30.395c-7.636-14.142-12.056-28.059-12.24-28.644    c-0.829-2.633,0.633-5.44,3.266-6.27c2.634-0.831,5.441,0.632,6.271,3.265c4.261,13.502,20.336,52.044,37.722,52.044    c3.913,0,7.185-1.418,10.002-4.334c9.997-10.346,11.37-36.346,11.055-45.491c-0.095-2.759,2.064-5.074,4.823-5.17    c2.761-0.082,5.074,2.06,5.171,4.819c0.053,1.514,1.139,37.254-13.848,52.781C203.967,217.012,198.179,219.5,191.5,219.5z" fill="#3F456B"/></g><g><path d="M242.171,369.246c-0.193,0-0.388-0.011-0.584-0.034c-43.934-5.116-60.791-86.028-61.487-89.47    c-0.547-2.706,1.203-5.343,3.909-5.891c2.709-0.546,5.344,1.202,5.893,3.907c0.04,0.198,4.119,20.03,13.006,40.082    c7.846,17.702,21.126,39.261,39.836,41.439c2.743,0.319,4.708,2.802,4.388,5.544C246.834,367.37,244.673,369.246,242.171,369.246z    " fill="#3F456B"/></g><g><g><g><path d="M336.041,123c-2.478,0-4.629-1.841-4.953-4.364c-0.065-0.502-5.923-43.073-33.507-45.659      c-2.509-0.235-4.451-2.301-4.531-4.82s1.729-4.704,4.218-5.097c1.36-0.226,33.78-6.103,33.78-48.061c0-2.761,2.239-5,5-5      s5,2.239,5,5c0,26.302-11.384,40.661-20.934,48.075c-2.354,1.828-4.711,3.33-6.955,4.562      c8.326,4.758,15.26,12.998,20.442,24.423c5.745,12.665,7.341,24.797,7.407,25.307c0.35,2.739-1.587,5.243-4.327,5.593      C336.466,122.987,336.252,123,336.041,123z" fill="#3F456B"/></g><g><path d="M336.054,123c-0.211,0-0.424-0.013-0.64-0.041c-2.739-0.35-4.676-2.854-4.327-5.593      c0.065-0.51,1.662-12.642,7.407-25.307c5.182-11.425,12.116-19.666,20.442-24.423c-2.244-1.231-4.601-2.733-6.955-4.562      c-9.55-7.414-20.934-21.772-20.934-48.075c0-2.761,2.239-5,5-5s5,2.239,5,5c0,17.867,5.742,31.384,17.066,40.175      c8.253,6.407,16.632,7.873,16.714,7.886c2.489,0.393,4.297,2.578,4.218,5.097s-2.021,4.585-4.531,4.82      c-27.694,2.596-33.452,45.225-33.507,45.655C340.685,121.157,338.533,123,336.054,123z" fill="#3F456B"/></g></g></g></g></svg>