<?xml version="1.0" ?><svg viewBox="0 0 512 512" xmlns="http://www.w3.org/2000/svg"><defs><style>.cls-1{fill:#3f456b;}.cls-2{fill:#3d446b;}</style></defs><title/><g id="Lines"><path class="cls-1" d="M437.42,91.5a12.94,12.94,0,0,1-9.05-3.39c-3.54-3.31-4.78-8.5-3.32-13.89,3.08-11.42,16.61-20.91,36.17-25.37a5,5,0,0,1,5.52,2.51A112.17,112.17,0,0,1,473,65.67c7.64-4.94,13.68-10.41,16.28-16.08a13.23,13.23,0,0,0,.38-10.9c-2.74-6.9-11.56-8.54-26.2-4.87-12.71,3.19-23.56,9.26-35,15.69-2,1.13-4.05,2.27-6.11,3.4a112.48,112.48,0,0,1-25,9.69C349.84,75.35,297.62,65.53,248.27,53c-19.1-4.84-46.53-9.06-66.6-11.5-1.35,2.56-3.29,8.54-4.76,13.08-5.13,15.81-10.43,32.15-21.43,32.66h-.75c-14,0-16.26-18.52-18.12-33.47-.67-5.43-1.67-13.47-3.07-15.82-22-.88-36.75-.48-36.9-.48h-.3c-.59,0-58.47-1.54-71.53,24.58-3.14,6.27-1.11,8-.35,8.69,3.8,3.28,14.11,4.17,26.91,2.33l.79-.12a119.6,119.6,0,0,0-1.73-15.33A5,5,0,0,1,53.55,52C70,45.72,88.37,47.77,92.94,56.38c1.29,2.43,3.24,8.82-6.41,15.56C81,75.83,70.25,79.69,58.72,82a4.88,4.88,0,0,1-.94.18C42.36,85.05,25.67,85,17.92,78.34c-3.24-2.8-7.82-9.22-2.06-20.74C31.55,26.23,92.23,27.38,96.51,27.5c1.67,0,16.65-.37,38.26.52,8.76.36,10.15,11.57,11.76,24.55,1.24,9.93,3.09,24.93,8.49,24.7,0,0,2.07-.18,5.44-7.07,2.6-5.31,4.91-12.42,6.94-18.69,4.24-13.06,6.8-20.95,13.46-20.16,20.52,2.43,49.66,6.85,69.87,12,48,12.17,98.73,21.77,144,9.61a102.07,102.07,0,0,0,22.75-8.8c2-1.11,4.05-2.24,6-3.36,12.08-6.76,23.49-13.15,37.5-16.66C486.32,17.79,495.62,26.54,499,35a23,23,0,0,1-.58,18.78c-8.8,19.13-41.24,32-54.78,36.63A19,19,0,0,1,437.42,91.5Zm22.24-31.95c-16.1,4.46-23.52,11.94-25,17.27-.47,1.76-.29,3.25.5,4s2.91.91,5.18.13A173.62,173.62,0,0,0,464.19,70.8,86.66,86.66,0,0,0,459.66,59.55ZM61,60.07c.39,2.7.84,6.5,1.11,10.93C70,69.05,77,66.38,80.8,63.74a10.29,10.29,0,0,0,3.1-2.92C81.93,58.8,72.11,56.92,61,60.07Z"/><path class="cls-1" d="M65.87,448.18H64.44c-17.17-.22-30.82-3.68-40.57-10.3-7.74-5.25-10.14-10.69-10.39-11.3a5,5,0,0,1-.34-2.49c17.84-149.25.17-349,0-351a5,5,0,0,1,10-.9c.18,2,17.81,201.33.17,351.43,2.18,3.21,11.76,14.14,41.3,14.52,30.36.38,40.53-12.74,42.83-16.53-1.94-21.82-24.24-275.72-23.5-362a5,5,0,0,1,5-5h0a5,5,0,0,1,5,5c-.77,89.24,23.35,359.78,23.59,362.5a5.1,5.1,0,0,1-.38,2.41C116.68,425.61,106.53,448.18,65.87,448.18Z"/><path class="cls-1" d="M431.59,289.5l-.41,0a5,5,0,0,1-4.58-5.39c5.75-70.89,5.16-138.95-1.75-202.29a5,5,0,0,1,9.94-1.09c7,64,7.58,132.67,1.78,204.19A5,5,0,0,1,431.59,289.5Z"/><path class="cls-1" d="M458.28,457c-14.16,0-32.22-4.45-51.46-20.4a5,5,0,0,1-1.67-5c.06-.26,6.47-27.21,12.76-70.56a5,5,0,0,1,9.9,1.43c-5.14,35.4-10.37,60-12.23,68.37,17.15,13.4,34.95,18.54,52.94,15.25a58.37,58.37,0,0,0,21.18-8.29c23.44-160-.1-398.08-.34-400.48a5,5,0,0,1,9.95-1c.24,2.42,24.11,243.82,0,405.07a5,5,0,0,1-1.85,3.19A66,66,0,0,1,470.31,456,67.15,67.15,0,0,1,458.28,457Zm36.05-16.37h0Z"/><path class="cls-1" d="M393,425.08a5,5,0,0,1-.94-9.91c12.87-2.49,19.79-5.46,19.86-5.49a5,5,0,0,1,4,9.17c-.32.14-8,3.45-22,6.14A5.17,5.17,0,0,1,393,425.08Z"/><path class="cls-1" d="M342.87,428h-.31a274,274,0,0,1-71.67-14.58c-4.6-1.54-5.24-6.66-5.75-10.77-.74-5.95-1.45-7.75-3.16-8.05s-3.37,1.31-6.15,5.08c-2.34,3.18-5.56,7.53-10.71,6.25-41.47-10.26-75.54-10-96.82-7.92-22.87,2.2-36,6.79-36.1,6.84a5,5,0,0,1-3.35-9.42c2.26-.81,55.94-19.32,137.28.46.51-.6,1.17-1.49,1.66-2.15,2.87-3.89,7.67-10.41,15.89-9,9.52,1.64,10.73,11.41,11.38,16.66.12.92.27,2.16.44,3A263,263,0,0,0,343.16,418a5,5,0,0,1-.29,10Zm-68.79-24.07h0Z"/><path class="cls-1" d="M399,369.26a33.41,33.41,0,0,1-7.38-.67,5,5,0,0,1,2.32-9.73c3.07.73,9.67.33,13.11-.1l.53,0c.26,0,26.61-.7,32.54-18.18a52.31,52.31,0,0,0-5.86-46.75c-2.94,9.38-8.66,21.48-18.74,22.26-5.15.41-8.17-1.78-9.8-3.68-4.25-5-3.21-12.78-2.21-17,2.66-11.23,4.52-21.32.18-31.16-2.6-5.88-7.81-10.55-15.94-14.28l-1.21-.55c-4.56-2.08-9.28-4.23-13.35-7.84-5.72-5.07-8.29-12.14-7.64-21a30.82,30.82,0,0,1,.83-4.94c-6.07,2.85-11.78,6.35-16.21,11.31-8.6,9.62-11.79,24.27-7.75,35.61.45,1.27,1,2.54,1.51,3.88,2.56,6.36,5.47,13.56,2.24,22.12-.16.42-.32.81-.49,1.2a23.56,23.56,0,0,1-20.1,13.42c-7.81.46-14.68-2.92-18.35-9a28.4,28.4,0,0,1-3.41-9.4c-17.45,19.27-15.62,39.76-15.52,40.73a1.79,1.79,0,0,0,0,.23c.67,11.47,4.41,20.12,11.1,25.69,11.09,9.23,26.7,7.42,26.86,7.4s.4,0,.6,0a32.14,32.14,0,0,0,8.63-1.15,5,5,0,1,1,3.38,9.41c-4.3,1.55-10.21,1.72-11.7,1.74-2.7.28-20.62,1.61-34.16-9.67-8.89-7.4-13.83-18.4-14.69-32.69-.25-2.63-2.4-32.44,26.43-56.35l.38-.3a5,5,0,0,1,7.67,5.7c0,.5.07,1.47.28,3.34,0,.29.06.51.07.63a22.26,22.26,0,0,0,2.64,9.59c2.48,4.13,7.24,4.32,9.17,4.2a13.47,13.47,0,0,0,11.57-7.52c.09-.2.19-.43.28-.67,1.75-4.65.31-8.66-2.18-14.83-.55-1.38-1.13-2.8-1.65-4.27-5.29-14.87-1.39-33.2,9.72-45.63,8.34-9.33,20-14.28,30.22-18.18a5,5,0,0,1,6.36,6.67c-2.06,4.69-3.58,9.73-3.78,12.54-.42,5.74.95,9.81,4.31,12.79,2.94,2.62,6.79,4.37,10.86,6.22l1.23.56c10.3,4.73,17.34,11.23,20.91,19.33,5.59,12.65,3.27,25.47.41,37.51-1,4.37-.58,7.41.08,8.18.25.29,1.23.23,1.42.21,3.33-.26,9.41-8.79,12.16-24.13a5,5,0,0,1,8.33-2.78c1.13,1.05,27.42,26.1,14.36,64.58-7.9,23.27-38.08,24.86-41.57,25A84.71,84.71,0,0,1,399,369.26Z"/><path class="cls-1" d="M368.56,373.28a87.38,87.38,0,0,1-28.27-4.76c-2.69-.66-17.49-4.8-25.84-17.95-5.64-8.89-7-19.73-4.15-32.21a5,5,0,0,1,6.37-3.64c.19,0,20,6,32.68-4.54,9.79-8.11,13.42-24,10.8-47.32a5,5,0,0,1,4.41-5.53,5,5,0,0,1,3,.61c.55.2,1.7.57,2.23.75.85.28,1.11.36,1.41.49a38.65,38.65,0,0,1,10,6.16c9.68,8.36,9.5,19.85,9.35,30a64,64,0,0,0,.61,12.76c1.58,8.17,6,15.33,11.32,18.24a12,12,0,0,0,10.71.39,5,5,0,0,1,6.69,3.41c2.21,8.67-.22,27.82-25.24,38.22h0A67.86,67.86,0,0,1,368.56,373.28Zm24.19-9.56h0Zm-73.59-38.19c-1,7.62.29,14.2,3.69,19.61,6.71,10.65,19.83,13.67,20,13.7a4.83,4.83,0,0,1,.74.22c.24.09,24.93,9.34,47.28.05,9.82-4.08,16.06-9.78,18.53-16.93a20.63,20.63,0,0,0,1-4.53,21.27,21.27,0,0,1-12.65-2.56c-9.47-5.19-14.65-16.38-16.34-25.12a72.19,72.19,0,0,1-.79-14.8c.14-9.1.26-16.95-5.89-22.26a25.86,25.86,0,0,0-3.9-2.76c1.19,22.46-3.88,38.51-15.13,47.78C343.41,328,327.44,327,319.16,325.53Zm50.93-63.8h0Zm0,0h0Zm-.3-1.22a5.07,5.07,0,0,1,.3,1.22A5.07,5.07,0,0,0,369.79,260.5Z"/><path class="cls-1" d="M368.17,500.5a29.62,29.62,0,0,1-29.5-29.68V365.25a5,5,0,0,1,10,0V470.82a19.5,19.5,0,1,0,39,0V365.25a5,5,0,0,1,10,0V470.82A29.63,29.63,0,0,1,368.17,500.5Z"/><path class="cls-2" d="M335.49,189.11a5,5,0,0,1-3.54-1.47l-13.79-13.79-13.79,13.79a5,5,0,0,1-7.07,0l-24.75-24.75a5,5,0,0,1,0-7.07L286.34,142l-13.79-13.78a5,5,0,0,1,0-7.08L297.3,96.43A5,5,0,0,1,300.84,95h0a5,5,0,0,1,3.53,1.47l13.79,13.78L332,96.43a5,5,0,0,1,7.07,0l24.75,24.74a5,5,0,0,1,0,7.08L350,142l13.79,13.79a5,5,0,0,1,0,7.07L339,187.64A5,5,0,0,1,335.49,189.11Zm-17.33-27.33a5,5,0,0,1,3.54,1.47L335.49,177l17.67-17.68-13.78-13.79a5,5,0,0,1,0-7.07l13.78-13.79L335.49,107,321.7,120.82a5,5,0,0,1-3.54,1.47h0a5,5,0,0,1-3.53-1.47L300.84,107l-17.68,17.68L297,138.5a5,5,0,0,1,0,7.07l-13.79,13.79L300.84,177l13.79-13.79A5,5,0,0,1,318.16,161.78Z"/><path class="cls-1" d="M180.09,290.61c-1.13,0-2.37,0-3.56-.1a5,5,0,1,1,.53-10c1,.05,2,.07,3,.08.52,0,1,0,1.55,0a5,5,0,0,1,.3,10C181.32,290.6,180.71,290.61,180.09,290.61Zm-22.85-4a5,5,0,0,1-1.6-.26c-1.66-.56-3.33-1.18-5-1.84a5,5,0,0,1,3.75-9.27c1.45.59,2.94,1.14,4.41,1.63a5,5,0,0,1-1.6,9.74Zm43.91-.46a5,5,0,0,1-2.12-9.53,40.44,40.44,0,0,0,3.89-2.1,5,5,0,1,1,5.25,8.5,49.14,49.14,0,0,1-4.9,2.65A5,5,0,0,1,201.15,286.17ZM135,275.4a5,5,0,0,1-2.84-.89c-1.45-1-2.88-2.06-4.26-3.13A5,5,0,0,1,134,263.5c1.22.95,2.5,1.89,3.8,2.79A5,5,0,0,1,135,275.4Zm84.7-5.53a5,5,0,0,1-4.17-7.76l.39-.6a30.84,30.84,0,0,0,1.79-3.16,5,5,0,0,1,9,4.4,40.88,40.88,0,0,1-2.36,4.17l-.46.71A5,5,0,0,1,219.68,269.87Zm6.86-23.69h-.26a5,5,0,0,1-4.73-5.26c.07-1.4.12-2.94.16-4.83a5,5,0,0,1,10,.19c0,2-.1,3.65-.18,5.16A5,5,0,0,1,226.54,246.18Zm1.25-25a5.35,5.35,0,0,1-.79-.06,5,5,0,0,1-4.16-5.72c0-.27.09-.55.14-.82.25-1.5.55-3,.88-4.42a5,5,0,1,1,9.74,2.23c-.28,1.26-.54,2.56-.77,3.87l-.11.7A5,5,0,0,1,227.79,221.23Zm8.28-23.42a4.93,4.93,0,0,1-2.6-.73,5,5,0,0,1-1.67-6.87c.95-1.56,2-3.09,3.07-4.54a5,5,0,0,1,8,6c-.89,1.19-1.74,2.44-2.53,3.73A5,5,0,0,1,236.07,197.81Zm17.72-17.24a5,5,0,0,1-2.47-9.35q2.37-1.33,4.91-2.46a5,5,0,0,1,4,9.15c-1.38.61-2.74,1.29-4,2A4.93,4.93,0,0,1,253.79,180.57Z"/><path class="cls-1" d="M203,230H127a5,5,0,0,1-3.76-8.29l38-43.47a5,5,0,0,1,7.52,0l38,43.47A5,5,0,0,1,203,230Zm-65-10h54L165,189.1Z"/><path class="cls-1" d="M320.86,262h-76a5,5,0,0,1-3.77-8.29l38-43.48a5,5,0,0,1,7.53,0l38,43.48a5,5,0,0,1-3.76,8.29Zm-65-10h54l-27-30.88Z"/></g><g id="Outline"><path class="cls-2" d="M220.74,342.31c-8.34,0-17.56-2.76-26.65-10.5-21.22-18.07-40.75-2.31-41.57-1.63a5,5,0,0,1-6.38-7.7c9.19-7.61,32.39-17.05,54.43,1.71,21.06,17.93,40.1.86,40.9.13a5,5,0,1,1,6.77,7.36A42.35,42.35,0,0,1,220.74,342.31Z"/><path class="cls-2" d="M220.74,366.65c-8.34,0-17.56-2.77-26.65-10.51-21.22-18.07-40.75-2.3-41.57-1.62a5,5,0,0,1-6.38-7.7c9.19-7.62,32.39-17.06,54.43,1.71,21.06,17.92,40.1.86,40.9.12a5,5,0,1,1,6.77,7.37A42.4,42.4,0,0,1,220.74,366.65Z"/><path class="cls-2" d="M188.64,136.37c-8.33,0-17.55-2.76-26.64-10.5-21.23-18.07-40.75-2.31-41.57-1.63a5,5,0,1,1-6.38-7.7c9.19-7.61,32.39-17.05,54.43,1.71,20.9,17.8,40.11.85,40.91.11a5,5,0,0,1,6.75,7.38A42.32,42.32,0,0,1,188.64,136.37Z"/><path class="cls-2" d="M188.64,160.71c-8.33,0-17.55-2.77-26.64-10.51-21.23-18.07-40.75-2.3-41.57-1.62a5,5,0,1,1-6.38-7.7c9.19-7.62,32.39-17.06,54.43,1.7,20.9,17.8,40.11.85,40.91.12a5,5,0,0,1,6.75,7.37A42.38,42.38,0,0,1,188.64,160.71Z"/></g></svg>