<?xml version="1.0" encoding="iso-8859-1"?>
<!-- Generator: Adobe Illustrator 19.0.0, SVG Export Plug-In . SVG Version: 6.00 Build 0)  -->
<svg version="1.1" id="Capa_1" xmlns="http://www.w3.org/2000/svg" xmlns:xlink="http://www.w3.org/1999/xlink" x="0px" y="0px"
	 viewBox="0 0 512.05 512.05" style="enable-background:new 0 0 512.05 512.05;" xml:space="preserve">
<g>
	<g>
		<path d="M458.7,426.717c-14.549,0-27.392,7.339-35.115,18.496l-95.296-47.659c1.451-4.267,2.411-8.768,2.411-13.525
			c0-4.757-0.96-9.259-2.411-13.525l95.296-47.637c7.701,11.157,20.544,18.517,35.115,18.517c23.531,0,42.667-19.136,42.667-42.667
			S482.231,256.05,458.7,256.05s-42.667,19.136-42.667,42.667c0,1.323,0.277,2.581,0.384,3.883l-99.883,49.941
			c-7.573-6.848-17.515-11.157-28.523-11.157c-23.531,0-42.667,19.136-42.667,42.667c0,23.531,19.136,42.667,42.667,42.667
			c11.008,0,20.949-4.288,28.523-11.157l99.883,49.941c-0.128,1.301-0.384,2.56-0.384,3.883c0,23.531,19.136,42.667,42.667,42.667
			s42.667-19.136,42.667-42.667C501.367,445.853,482.231,426.717,458.7,426.717z M458.7,277.383
			c11.755,0,21.333,9.579,21.333,21.333c0,11.755-9.579,21.333-21.333,21.333s-21.333-9.579-21.333-21.333
			C437.367,286.962,446.946,277.383,458.7,277.383z M288.034,405.383c-11.755,0-21.333-9.579-21.333-21.333
			c0-11.755,9.579-21.333,21.333-21.333s21.333,9.579,21.333,21.333C309.367,395.805,299.788,405.383,288.034,405.383z
			 M458.7,490.717c-11.755,0-21.333-9.579-21.333-21.333s9.579-21.333,21.333-21.333s21.333,9.579,21.333,21.333
			S470.455,490.717,458.7,490.717z"/>
	</g>
</g>
<g>
	<g>
		<path d="M501.154,221.938L458.487,8.605c-1.131-5.653-6.613-9.493-12.203-8.427L312.439,22.493L43.575,0.071
			c-2.923-0.341-5.717,0.704-7.893,2.581c-2.176,1.899-3.499,4.587-3.648,7.467l-21.333,384c-0.32,5.653,3.84,10.581,9.472,11.2
			l93.205,10.368l4.16,23.531c0.512,2.923,2.197,5.483,4.693,7.104c1.749,1.152,3.755,1.728,5.803,1.728
			c0.875,0,1.728-0.107,2.603-0.341l85.333-21.333c5.717-1.429,9.195-7.211,7.765-12.928c-1.429-5.717-7.232-9.216-12.928-7.765
			l-74.24,18.56l-60.139-340.8l363.179-60.523l40.64,203.2c1.131,5.76,6.72,9.579,12.544,8.363
			C498.551,233.33,502.306,227.719,501.154,221.938z M62.284,64.178c-2.816,0.469-5.312,2.069-6.955,4.373
			c-1.643,2.304-2.283,5.205-1.792,8l55.979,317.227l-76.928-8.555l20.16-362.965l174.037,14.507L62.284,64.178z"/>
	</g>
</g>
<g>
</g>
<g>
</g>
<g>
</g>
<g>
</g>
<g>
</g>
<g>
</g>
<g>
</g>
<g>
</g>
<g>
</g>
<g>
</g>
<g>
</g>
<g>
</g>
<g>
</g>
<g>
</g>
<g>
</g>
</svg>
