<?xml version="1.0" ?><svg viewBox="0 0 512 512" xmlns="http://www.w3.org/2000/svg"><defs><style>.cls-1{fill:#3f456b;}</style></defs><title/><g id="Lines"><path class="cls-1" d="M450,486H70.75A37.66,37.66,0,0,1,33,448.5V113a5,5,0,0,1,10,0V448.5A27.66,27.66,0,0,0,70.75,476H450a15,15,0,0,0,15-15V353a5,5,0,0,1,10,0V461A25,25,0,0,1,450,486Z"/><path class="cls-1" d="M470,277a5,5,0,0,1-5-5V165a15,15,0,0,0-15-15H70.75a37.5,37.5,0,0,1,0-75H128a5,5,0,0,1,0,10H70.75a27.5,27.5,0,0,0,0,55H450a25,25,0,0,1,25,25V272A5,5,0,0,1,470,277Z"/><path class="cls-1" d="M276,85H230a5,5,0,0,1,0-10h46a5,5,0,0,1,0,10Z"/><path class="cls-1" d="M450,150a5,5,0,0,1-5-5V100a15,15,0,0,0-15-15H377a5,5,0,0,1,0-10h53a25,25,0,0,1,25,25v45A5,5,0,0,1,450,150Z"/><path class="cls-1" d="M466,358H378a25,25,0,0,1-25-25V293a25,25,0,0,1,25-25h88a25,25,0,0,1,25,25v40A25,25,0,0,1,466,358Zm-88-80a15,15,0,0,0-15,15v40a15,15,0,0,0,15,15h88a15,15,0,0,0,15-15V293a15,15,0,0,0-15-15Z"/><path class="cls-1" d="M404.33,337.75A24.75,24.75,0,1,1,429.08,313,24.78,24.78,0,0,1,404.33,337.75Zm0-39.5A14.75,14.75,0,1,0,419.08,313,14.77,14.77,0,0,0,404.33,298.25Z"/><path class="cls-1" d="M246,148a5,5,0,0,1-3.53-1.46l-28.7-28.7a53.52,53.52,0,0,1-68.27,0l-28.69,28.7a5,5,0,0,1-7.07-7.08l32.07-32.06a5,5,0,0,1,7.07,0,43.5,43.5,0,0,0,61.52,0,5,5,0,0,1,7.07,0l32.07,32.07A5,5,0,0,1,246,148Z"/><path class="cls-1" d="M293.89,150a5,5,0,0,1-3.53-1.46L179.62,37.93,87,130.71,69.47,147.6a5,5,0,0,1-6.94-7.2L80,123.58l96.12-96.26a5,5,0,0,1,3.54-1.46h0a5,5,0,0,1,3.53,1.46L297.43,141.46a5,5,0,0,1-3.54,8.54Z"/><path class="cls-1" d="M179.6,108.2A24.5,24.5,0,1,1,196.92,101,24.42,24.42,0,0,1,179.6,108.2Zm0-39a14.49,14.49,0,1,0,10.25,4.24A14.45,14.45,0,0,0,179.6,69.22Z"/><path class="cls-1" d="M344.59,148a5,5,0,0,1-4.95-4.35c-.37-2.87-2.18-5-9.76-6.27l-2.35-.37c-7.15-1.08-15.25-2.3-20.85-10.23a14.24,14.24,0,0,1-2.44-11,19.88,19.88,0,0,1,8.5-12.43c6.23-4.23,15.76-4.89,23.7-1.63a22.93,22.93,0,0,1,12.73,12.71,5,5,0,1,1-9.31,3.64,13.13,13.13,0,0,0-7.21-7.1c-4.82-2-10.83-1.7-14.29.65a10,10,0,0,0-4.28,6,4.28,4.28,0,0,0,.76,3.43c3,4.24,7.34,5.08,14.18,6.11.83.13,1.65.25,2.47.39,4.08.66,16.48,2.68,18.07,14.84a5,5,0,0,1-4.31,5.61A4.87,4.87,0,0,1,344.59,148Z"/><path class="cls-1" d="M327,109.5a5,5,0,0,1-5-5V92a5,5,0,0,1,10,0v12.5A5,5,0,0,1,327,109.5Z"/><path class="cls-1" d="M403.69,150h-.36a5,5,0,0,1-4.63-5.35c.13-1.74.19-3.51.19-5.25a71.9,71.9,0,0,0-137-30.43,5,5,0,0,1-9.06-4.24,81.9,81.9,0,0,1,156.1,34.67c0,2-.07,4-.22,6A5,5,0,0,1,403.69,150Z"/></g><g id="Outline"><path class="cls-1" d="M420.69,448h-5a5,5,0,0,1,0-10h5a5,5,0,1,1,0,10Zm-25,0h-5a5,5,0,0,1,0-10h5a5,5,0,1,1,0,10Zm-25,0h-5a5,5,0,0,1,0-10h5a5,5,0,1,1,0,10Zm-25,0h-5a5,5,0,0,1,0-10h5a5,5,0,1,1,0,10Zm-25,0h-5a5,5,0,0,1,0-10h5a5,5,0,1,1,0,10Zm-25,0h-5a5,5,0,0,1,0-10h5a5,5,0,1,1,0,10Zm-25,0h-5a5,5,0,0,1,0-10h5a5,5,0,1,1,0,10Zm-25,0h-5a5,5,0,0,1,0-10h5a5,5,0,1,1,0,10Zm-25,0h-5a5,5,0,0,1,0-10h5a5,5,0,1,1,0,10Zm-25,0h-5a5,5,0,0,1,0-10h5a5,5,0,1,1,0,10Zm-25,0h-5a5,5,0,0,1,0-10h5a5,5,0,1,1,0,10Zm-25,0h-5a5,5,0,0,1,0-10h5a5,5,0,1,1,0,10Zm-25,0h-5a5,5,0,0,1,0-10h5a5,5,0,1,1,0,10Zm-25,0h-5a5,5,0,0,1,0-10h5a5,5,0,1,1,0,10ZM435,438a5,5,0,0,1-5-5v-5a5,5,0,0,1,10,0v5A5,5,0,0,1,435,438ZM80,434.37a5,5,0,0,1-5-5v-5a5,5,0,0,1,10,0v5A5,5,0,0,1,80,434.37ZM435,413a5,5,0,0,1-5-5v-5a5,5,0,0,1,10,0v5A5,5,0,0,1,435,413ZM80,409.37a5,5,0,0,1-5-5v-5a5,5,0,0,1,10,0v5A5,5,0,0,1,80,409.37ZM435,388a5,5,0,0,1-5-5v-5a5,5,0,0,1,10,0v5A5,5,0,0,1,435,388ZM80,384.37a5,5,0,0,1-5-5v-5a5,5,0,0,1,10,0v5A5,5,0,0,1,80,384.37ZM435,363a5,5,0,0,1-5-5v-5a5,5,0,0,1,10,0v5A5,5,0,0,1,435,363ZM80,359.37a5,5,0,0,1-5-5v-5a5,5,0,0,1,10,0v5A5,5,0,0,1,80,359.37Zm0-25a5,5,0,0,1-5-5v-5a5,5,0,0,1,10,0v5A5,5,0,0,1,80,334.37Zm0-25a5,5,0,0,1-5-5v-5a5,5,0,0,1,10,0v5A5,5,0,0,1,80,309.37Zm0-25a5,5,0,0,1-5-5v-5a5,5,0,0,1,10,0v5A5,5,0,0,1,80,284.37Zm355-9.11a5,5,0,0,1-5-5v-5a5,5,0,0,1,10,0v5A5,5,0,0,1,435,275.26ZM80,259.37a5,5,0,0,1-5-5v-5a5,5,0,0,1,10,0v5A5,5,0,0,1,80,259.37Zm355-9.11a5,5,0,0,1-5-5v-5a5,5,0,0,1,10,0v5A5,5,0,0,1,435,250.26ZM80,234.37a5,5,0,0,1-5-5v-5a5,5,0,0,1,10,0v5A5,5,0,0,1,80,234.37Zm355-9.11a5,5,0,0,1-5-5v-5a5,5,0,0,1,10,0v5A5,5,0,0,1,435,225.26ZM80,209.37a5,5,0,0,1-5-5v-5a5,5,0,0,1,10,0v5A5,5,0,0,1,80,209.37Zm355-9.11a5,5,0,0,1-5-5V193a4.6,4.6,0,0,0-.19-1.33,5,5,0,1,1,9.62-2.75A14.71,14.71,0,0,1,440,193v2.27A5,5,0,0,1,435,200.26Zm-347-12a5,5,0,0,1-1-9.89,14.65,14.65,0,0,1,3.17-.34h2.86a5,5,0,0,1,0,10H90.08a5.47,5.47,0,0,0-1.07.11A4.79,4.79,0,0,1,88,188.23Zm330-.23h-5a5,5,0,0,1,0-10h5a5,5,0,1,1,0,10Zm-25,0h-5a5,5,0,0,1,0-10h5a5,5,0,1,1,0,10Zm-25,0h-5a5,5,0,0,1,0-10h5a5,5,0,1,1,0,10Zm-25,0h-5a5,5,0,0,1,0-10h5a5,5,0,1,1,0,10Zm-25,0h-5a5,5,0,0,1,0-10h5a5,5,0,0,1,0,10Zm-25,0h-5a5,5,0,0,1,0-10h5a5,5,0,0,1,0,10Zm-25,0h-5a5,5,0,0,1,0-10h5a5,5,0,0,1,0,10Zm-25,0h-5a5,5,0,0,1,0-10h5a5,5,0,0,1,0,10Zm-25,0h-5a5,5,0,0,1,0-10h5a5,5,0,0,1,0,10Zm-25,0h-5a5,5,0,0,1,0-10h5a5,5,0,0,1,0,10Zm-25,0h-5a5,5,0,0,1,0-10h5a5,5,0,0,1,0,10Zm-25,0h-5a5,5,0,0,1,0-10h5a5,5,0,0,1,0,10Zm-25,0h-5a5,5,0,0,1,0-10h5a5,5,0,0,1,0,10Z"/><path class="cls-1" d="M188.13,407a33.33,33.33,0,0,1-8.47-1.1c-7.14-1.87-12.73-6.07-18.13-10.13-6.65-5-12.41-9.33-20-8.74-10.8.83-17.2,10.61-20,16.36a5,5,0,0,1-9-4.44c6.55-13.22,16.58-21,28.24-21.89,11.42-.88,19.6,5.28,26.82,10.72,4.84,3.64,9.41,7.08,14.65,8.45a23.17,23.17,0,0,0,14.12-.64,33.49,33.49,0,0,1-4-3.67c-6.59-7-8.82-15.88-6.14-24.25,3.14-9.82,9.75-16.11,18.14-17.26a18.61,18.61,0,0,1,18.21,8.25c5,7.63,4.32,18-1.93,28.35a46.4,46.4,0,0,1-5,6.89c7.94,2.12,18.07,2.51,30-.45a5,5,0,0,1,2.41,9.71c-14.94,3.7-29.68,2.94-41.26-1.69A34.71,34.71,0,0,1,188.13,407Zm18.74-46.77a8.45,8.45,0,0,0-1.22.09c-4.42.6-8.06,4.39-10,10.39-2,6.28,1,11.29,3.92,14.38a26.79,26.79,0,0,0,6,4.7,36.34,36.34,0,0,0,6.43-7.93c4.19-7,5-13.41,2.15-17.69A8.66,8.66,0,0,0,206.87,360.19Z"/></g></svg>