<?xml version="1.0" ?><svg enable-background="new 0 0 512 512" version="1.1" viewBox="0 0 512 512" xml:space="preserve" xmlns="http://www.w3.org/2000/svg" xmlns:xlink="http://www.w3.org/1999/xlink"><g id="Lines"><g><g><g><g><g><path d="M435.08,279.896c-1.035,0-2.095-0.217-3.136-0.67c-1.867-0.815-3.159-2.168-3.854-2.896        c-2.992-3.135-5.646-6.437-8.211-9.63l-1.433-1.779c-0.358-0.444-0.729-0.935-1.098-1.426        c-0.29-0.387-0.579-0.774-0.862-1.125c-0.047-0.058-0.097-0.123-0.149-0.192c-1.084,0.108-2.177,0.236-3.306,0.369        c-2.285,0.268-4.647,0.545-7.113,0.665c-0.327,0.016-0.77,0.059-1.287,0.106c-4.787,0.441-13.696,1.26-15.944-5.441        c-0.818-2.435,0.035-4.612,0.356-5.432c1.784-4.552,4.278-8.561,6.69-12.437l0.936-1.507c0.985-1.593,1.867-2.997,2.64-4.2        c-3.375-5.932-7.878-15.268-7.865-20.831c0.01-3.841,1.732-5.935,3.175-7.016c2.532-1.895,5.429-1.618,6.744-1.353        c4.925,0.537,14.854,3.952,20.29,5.924c5.611-6.159,11.81-11.297,13.77-12.775c1.756-1.323,3.577-2.041,5.415-2.137        c2.211-0.109,4.569,0.703,6.307,2.182c0.553,0.47,1.051,1.029,1.476,1.658c0.896,1.325,1.447,2.937,1.633,4.787        c0.244,2.443,0.676,10.483-0.042,18.783c5.138,2.657,14.384,7.633,18.118,10.886c1.087,0.786,3.257,2.726,3.582,5.873        c0.186,1.793-0.185,4.479-2.999,7.091c-4.029,3.739-13.758,6.74-20.402,8.301c-1.319,6.694-3.389,13.05-6.287,19.332        C440.787,278.116,438.041,279.896,435.08,279.896z M418.505,251.982c0.685,0,1.443,0.176,2.071,0.448        c1.795,0.786,2.791,2.292,3.519,3.39c0.083,0.125,0.158,0.242,0.226,0.335c0.302,0.372,0.666,0.854,1.028,1.338        c0.294,0.392,0.588,0.785,0.875,1.14l1.451,1.803c2.207,2.746,4.307,5.36,6.583,7.847c2.382-5.674,4.015-11.446,4.976-17.566        c0.327-2.083,1.926-3.737,3.996-4.134c6.56-1.26,13.958-3.661,17.386-5.537c-3.819-2.755-12.661-7.5-17.978-10.159        c-1.904-0.952-2.997-3.004-2.724-5.115c0.959-7.403,0.71-15.315,0.491-18.721c-2.648,2.148-8.63,7.334-13.42,13.063        c-1.366,1.633-3.614,2.223-5.604,1.47c-5.561-2.103-15.045-5.378-19.66-6.314c0.947,3.791,4.204,10.856,7.729,16.528        c1.044,1.681,0.999,3.819-0.115,5.454c-0.996,1.462-2.395,3.65-4.158,6.503l-0.952,1.534        c-1.757,2.824-3.439,5.527-4.781,8.316c1.588,0,3.447-0.171,4.272-0.247c0.691-0.063,1.281-0.115,1.717-0.137        c2.125-0.104,4.219-0.349,6.435-0.609c2.036-0.239,4.141-0.485,6.326-0.622C418.297,251.985,418.4,251.982,418.505,251.982z         M399.171,214.848c0.007,0.002,0.015,0.004,0.023,0.007C399.187,214.852,399.179,214.85,399.171,214.848z M441.771,206.021        L441.771,206.021L441.771,206.021z M440.241,205.38L440.241,205.38L440.241,205.38z" fill="#384169"/></g></g></g></g><g><g><g><g><path d="M58.069,319.794c-0.861,0-1.746-0.148-2.629-0.458c-1.921-0.674-3.311-1.93-4.057-2.605        c-3.217-2.907-6.107-6.007-8.903-9.006l-1.553-1.662c-0.392-0.417-0.796-0.879-1.199-1.342        c-0.318-0.365-0.636-0.73-0.943-1.059c-0.051-0.054-0.105-0.115-0.163-0.181c-1.071,0.188-2.15,0.396-3.265,0.61        c-2.261,0.436-4.599,0.886-7.051,1.188c-0.325,0.04-0.762,0.115-1.275,0.201c-4.74,0.792-13.564,2.264-16.302-4.252        c-0.996-2.371-0.304-4.605-0.043-5.447c1.444-4.67,3.638-8.854,5.76-12.899l0.778-1.488c0.957-1.84,1.736-3.304,2.364-4.46        c-3.803-5.667-8.98-14.647-9.377-20.195c-0.273-3.832,1.29-6.046,2.65-7.23c2.385-2.077,5.293-2.015,6.626-1.845        c4.951,0.172,15.104,2.848,20.672,4.414c5.144-6.558,10.946-12.137,12.792-13.754c1.655-1.449,3.419-2.299,5.244-2.529        c2.196-0.276,4.604,0.363,6.446,1.71c0.594,0.436,1.128,0.954,1.595,1.545c0.994,1.26,1.661,2.828,1.981,4.657        c0.424,2.415,1.445,10.398,1.341,18.734c5.318,2.271,14.905,6.554,18.869,9.523c1.143,0.703,3.449,2.479,4.005,5.593        c0.316,1.775,0.146,4.48-2.469,7.292c-3.743,4.025-13.225,7.733-19.736,9.78c-0.823,6.773-2.42,13.264-4.849,19.743        C64.104,317.775,61.244,319.794,58.069,319.794z M40.401,293.141c0.567,0,1.133,0.097,1.671,0.288l0.084,0.03        c1.822,0.642,2.926,2.069,3.732,3.111c0.092,0.119,0.176,0.23,0.25,0.318c0.33,0.351,0.729,0.805,1.126,1.261        c0.322,0.37,0.644,0.74,0.956,1.073l1.573,1.684c2.404,2.579,4.693,5.033,7.148,7.348c1.958-5.834,3.162-11.709,3.67-17.884        c0.173-2.102,1.646-3.868,3.682-4.417c6.448-1.739,13.649-4.678,16.931-6.801c-4.014-2.469-13.179-6.55-18.676-8.808        c-1.969-0.809-3.209-2.775-3.092-4.9c0.411-7.461-0.419-15.33-0.889-18.708c-2.481,2.335-8.064,7.946-12.422,14.015        c-1.241,1.729-3.439,2.481-5.481,1.878c-5.699-1.688-15.399-4.256-20.072-4.85c1.225,3.711,4.992,10.517,8.925,15.915        c1.165,1.599,1.277,3.734,0.287,5.447c-0.625,1.083-1.776,3.152-3.707,6.865l-0.795,1.521        c-1.547,2.948-3.026,5.769-4.16,8.651c1.584-0.117,3.426-0.424,4.242-0.561c0.686-0.114,1.27-0.209,1.703-0.263        c2.113-0.259,4.185-0.659,6.377-1.081c2.011-0.388,4.091-0.789,6.258-1.085C39.948,293.157,40.175,293.141,40.401,293.141z         M82.772,277.883L82.772,277.883L82.772,277.883z M18.02,257.544c0.005,0.001,0.011,0.002,0.018,0.003        C18.031,257.547,18.025,257.545,18.02,257.544z M20.183,255.821L20.183,255.821L20.183,255.821z" fill="#384169"/></g></g></g></g><g><g><g><path d="M181.886,113.532c-19.541,0-36.121-18.455-37.307-41.949c-0.673-13.305,3.819-26.446,12.017-35.151       c6.234-6.621,14.267-10.311,22.616-10.391c0.174-0.001,0.352-0.002,0.524-0.002c23.223,0,36.75,14.865,38.117,41.919       c0,0,0,0,0,0c0.656,12.991-3.502,25.453-11.407,34.189c-6.237,6.893-14.415,10.922-23.027,11.347       C182.906,113.519,182.395,113.532,181.886,113.532z M179.719,36.039c-0.138,0-0.272,0.001-0.411,0.002       c-7.179,0.068-12.354,3.979-15.432,7.246c-6.367,6.762-9.848,17.152-9.311,27.792c0.939,18.606,13.669,33.158,28.361,32.427       c6.027-0.297,11.597-3.087,16.104-8.069c6.139-6.783,9.358-16.615,8.836-26.975C206.779,46.947,197.308,36.039,179.719,36.039z       " fill="#3F456B"/></g></g></g><g><g><g><path d="M326.769,168.83c-1.15,0-2.33-0.117-3.532-0.354c-5.052-0.995-7.417-3.948-8.512-6.25       c-2.891-6.082,0.096-13.981,1.697-17.425c-0.551-4.67-3.327-21.519-15.356-31.384c-7.83-6.422-18.328-8.797-31.192-7.058       c-2.744,0.369-5.256-1.549-5.625-4.286c-0.37-2.736,1.549-5.254,4.285-5.625c15.766-2.128,28.865,0.995,38.938,9.29       c17.371,14.304,18.995,38.675,19.056,39.706c0.054,0.917-0.146,1.831-0.577,2.642c-1.707,3.246-3.031,8.096-2.192,9.85       c0.065,0.136,0.238,0.498,1.411,0.729c6.049,1.193,8.183-5.023,8.52-6.161c2.291-10.304,2.51-20.396,0.65-29.996       c-1.53-7.9-4.654-15.422-9.285-22.355c-0.953-1.426-1.998-2.85-3.193-4.35c-10.76-13.494-25.797-23.056-45.971-29.232       c-18.957-5.804-41.389-6.739-63.168-2.634c-2.704,0.511-5.328-1.273-5.839-3.987c-0.512-2.714,1.273-5.328,3.987-5.84       c23.675-4.464,47.172-3.46,67.947,2.899c22.166,6.786,38.803,17.436,50.862,32.56c1.372,1.722,2.579,3.366,3.689,5.028       c5.373,8.045,9.003,16.795,10.788,26.008c2.131,11.004,1.882,22.52-0.742,34.225c-0.019,0.082-0.039,0.164-0.062,0.245       c-0.113,0.41-1.191,4.1-3.972,7.536C336.083,166.688,331.69,168.83,326.769,168.83z" fill="#3F456B"/></g></g></g><g><g><g><path d="M53.582,214.675c-4.835,0-8.103-2.231-9.942-4.015c-2.766-2.681-4.255-6.106-4.31-9.906       c-0.123-8.665,7.271-16.759,8.527-18.071c48.269-54.892,107.138-90.825,107.728-91.181c2.36-1.431,5.437-0.673,6.865,1.688       c1.431,2.362,0.675,5.437-1.687,6.867c-0.577,0.35-58.239,35.57-105.472,89.316c-0.057,0.064-0.115,0.127-0.175,0.188       c-0.083,0.086-8.924,9.647-4.517,13.921c4.503,4.364,14.701-4.916,14.802-5.012c2.14-2.035,52.562-49.435,112.814-59.951       c2.72-0.467,5.311,1.346,5.785,4.066c0.475,2.721-1.346,5.311-4.066,5.786c-57.221,9.987-107.124,56.854-107.621,57.326       c-0.136,0.13-3.942,3.771-8.952,6.328C59.581,213.955,56.328,214.675,53.582,214.675z" fill="#3F456B"/></g></g></g><g><g><g><path d="M285.767,214.666c-2.306,0-4.694-0.108-7.166-0.326c-1.387-0.097-20.354-1.517-50.561-8.74       c-2.686-0.642-4.342-3.34-3.7-6.025c0.643-2.686,3.333-4.347,6.026-3.7c29.912,7.152,48.773,8.479,48.96,8.492       c0.035,0.002,0.071,0.005,0.106,0.008c14.479,1.281,25.198-1.681,31.855-8.811c10.92-11.698,8.007-31.018,7.977-31.211       c-0.432-2.728,1.429-5.289,4.156-5.721c2.726-0.432,5.288,1.429,5.721,4.156c0.156,0.988,3.67,24.374-10.544,39.6       C310.979,210.549,299.954,214.666,285.767,214.666z" fill="#3F456B"/></g></g></g><g><g><g><path d="M189.876,268.821c-0.151,0-0.305-0.007-0.459-0.021c-2.75-0.25-4.776-2.682-4.526-5.432       c0.584-6.423,4.328-11.291,10.542-13.708c0.444-0.172,0.886-0.327,1.32-0.464c-5.765-13.388-19.578-45.658-23.582-56.667       c-5.308-14.596-1.562-27.11-1.075-28.613c4.965-16.814,16.79-27.072,34.204-29.666c12.632-1.881,23.731,1.032,24.197,1.158       c0.698,0.181,18.256,4.779,40.355,14.322c2.535,1.095,3.702,4.038,2.607,6.572c-1.094,2.535-4.031,3.704-6.572,2.608       c-21.35-9.219-38.768-13.789-38.941-13.834c-1.539-0.407-37.136-9.412-46.278,21.735c-0.021,0.072-0.044,0.143-0.068,0.213       c-0.025,0.079-3.319,10.292,0.97,22.086c4.892,13.453,25.68,61.488,25.889,61.972c0.677,1.561,0.513,3.359-0.436,4.771       c-0.946,1.413-2.562,2.249-4.248,2.214c-0.013,0-0.025,0-0.04,0c-1.001,0-8.34,0.209-8.885,6.204       C194.613,266.869,192.433,268.82,189.876,268.821z" fill="#3F456B"/></g></g></g><g><g><g><path d="M241.778,296.472c-1.725,0-3.402-0.893-4.33-2.493c-1.386-2.389-0.572-5.448,1.816-6.833       c7.173-4.16,11.382-9.301,12.513-15.282c2.058-10.892-6.401-21.906-6.487-22.015c-21.713-27.915-24.307-59.936-24.406-61.285       c-0.204-2.754,1.863-5.151,4.617-5.355c2.779-0.199,5.149,1.861,5.355,4.611l0,0c0.022,0.302,2.531,30.438,22.293,55.847       c0.435,0.546,11.385,14.538,8.454,30.053c-1.694,8.965-7.522,16.393-17.321,22.076       C243.492,296.254,242.629,296.472,241.778,296.472z" fill="#3F456B"/></g></g></g><g><g><g><path d="M390.469,368.439c-2.765,0-5.771-0.373-9.015-1.122c-6.446-1.487-11.573-3.987-11.788-4.092       c-0.031-0.015-0.062-0.031-0.093-0.046l-303-156.667c-2.452-1.268-3.413-4.285-2.145-6.738       c1.268-2.454,4.284-3.414,6.738-2.145l302.946,156.639c4.242,2.059,17.501,6.83,23.315,2.218       c2.165-1.716,5.309-1.353,7.024,0.811c1.717,2.164,1.354,5.309-0.81,7.024C400.186,367.063,395.773,368.439,390.469,368.439z" fill="#3F456B"/></g></g></g><g><g><g><path d="M69.814,426.909c-4.626,0-9.609-0.731-14.714-2.663c-2.583-0.977-3.884-3.863-2.907-6.446       c0.978-2.582,3.862-3.884,6.446-2.907c14.92,5.644,29.045-2.276,30.94-3.408l262.711-217.026       c0.093-0.08,14.597-12.83,10.077-22.11c-1.209-2.482-0.177-5.475,2.306-6.684c2.486-1.209,5.477-0.176,6.685,2.306       c7.984,16.396-11.803,33.439-12.649,34.157L95.683,419.416c-0.153,0.126-0.313,0.244-0.481,0.351       C94.61,420.147,83.875,426.908,69.814,426.909z M92.498,415.561h0.01H92.498z" fill="#3F456B"/></g></g></g><g><g><g><path d="M197.04,242.179c-0.437,0-0.881-0.058-1.322-0.179c-1.514-0.415-37.139-10.453-42.978-36.589       c-4.96-22.204,11.747-33.354,21.274-36.148c2.651-0.777,5.428,0.741,6.205,3.391c0.775,2.643-0.733,5.414-3.371,6.199       c-1.909,0.58-18.419,6.159-14.349,24.377c4.523,20.25,35.551,29.041,35.864,29.127c2.659,0.734,4.224,3.485,3.492,6.146       C201.246,240.722,199.235,242.179,197.04,242.179z" fill="#3F456B"/></g></g></g><g><g><g><path d="M284.342,262.084c-1.735,0-3.423-0.905-4.346-2.52c-8.203-14.348-29.114-8.113-29.323-8.048       c-2.637,0.81-5.438-0.67-6.249-3.31s0.67-5.437,3.31-6.249c0.287-0.088,7.147-2.16,15.405-1.788       c11.609,0.523,20.44,5.514,25.539,14.432c1.37,2.397,0.538,5.452-1.859,6.822C286.036,261.871,285.183,262.084,284.342,262.084       z" fill="#3F456B"/></g></g></g><g><g><g><path d="M496.504,168.57c-0.104,0-0.21-0.003-0.315-0.01l-157.963-9.833c-2.756-0.171-4.852-2.545-4.68-5.301       c0.172-2.756,2.562-4.856,5.301-4.68l157.963,9.833c2.756,0.171,4.852,2.545,4.68,5.301       C501.324,166.531,499.123,168.57,496.504,168.57z" fill="#3F456B"/></g></g></g><g><g><g><path d="M481.504,175.16c-0.103,0-0.205-0.003-0.309-0.009c-2.757-0.168-4.854-2.538-4.688-5.294l1-16.423       c0.168-2.756,2.548-4.858,5.295-4.687c2.757,0.168,4.854,2.538,4.688,5.294l-1,16.423       C486.328,173.117,484.126,175.16,481.504,175.16z" fill="#3F456B"/></g></g></g><g><g><g><path d="M48.816,193.801c-2.409,0-4.532-1.746-4.93-4.201L17.869,29.063c-0.441-2.726,1.41-5.293,4.136-5.735       c2.721-0.443,5.294,1.41,5.735,4.136L53.758,188c0.441,2.726-1.41,5.293-4.136,5.735       C49.352,193.78,49.082,193.801,48.816,193.801z" fill="#3F456B"/></g></g></g><g><g><g><path d="M16.276,49.081c-2.41,0-4.533-1.747-4.93-4.203c-0.441-2.726,1.411-5.293,4.137-5.734l16.242-2.627       c2.731-0.441,5.295,1.412,5.734,4.138c0.441,2.726-1.411,5.293-4.137,5.734l-16.242,2.627       C16.811,49.06,16.541,49.081,16.276,49.081z" fill="#3F456B"/></g></g></g><g><g><g><path d="M187.282,153.021c-0.55,0-1.109-0.091-1.657-0.284c-17.894-6.287-19.665-22.497-19.731-23.184       c-0.267-2.749,1.745-5.193,4.494-5.459c2.733-0.271,5.169,1.727,5.455,4.455c0.062,0.516,1.416,10.649,13.097,14.754       c2.605,0.916,3.976,3.77,3.06,6.375C191.276,151.734,189.346,153.021,187.282,153.021z" fill="#3F456B"/></g></g></g><g><g><g><path d="M84.329,500.503c-1.025,0-2.058-0.314-2.941-0.958c-0.152-0.111-0.298-0.23-0.436-0.357       c-0.79-0.723-1.298-1.649-1.509-2.634c-0.059-0.274-0.095-0.556-0.107-0.841c-0.006-0.157-0.006-0.314,0.003-0.471       c0.418-10.463-2.381-18.968-8.317-25.278c-10.135-10.773-25.874-11.908-30.456-12c-14.805-0.307-19.885,5.853-20.095,6.114       l0.065-0.085l-8.074-5.901c0.789-1.079,8.269-10.534,28.303-10.125c14.863,0.296,28.896,5.958,37.54,15.145       c5.096,5.416,8.447,11.932,10.024,19.462l52.276-64.874c0.756-0.938,1.825-1.571,3.01-1.784l62.356-11.192l126.863-136.622       c0.946-1.019,2.274-1.598,3.664-1.598c0.005,0,0.009,0,0.013,0c1.396,0.003,2.726,0.59,3.669,1.617l46.661,50.779       l47.331,16.816c1.068,0.379,1.976,1.11,2.573,2.073l64,103.029c0.764,1.23,0.957,2.73,0.53,4.114       c-0.428,1.383-1.434,2.514-2.758,3.099c-10.152,4.482-15.288,14.041-15.339,14.137c-1.213,2.298-3.994,3.303-6.389,2.283       c-17.045-7.254-36.062,1.071-36.252,1.157c-2.428,1.085-5.281,0.08-6.492-2.289c-0.052-0.101-5.963-11.34-18.822-20.804       c-17.057-12.553-37.803-16.271-61.656-11.049c-23.963,5.245-41.023,17.651-50.709,36.875       c-7.228,14.346-7.443,27.089-7.444,27.216c-0.021,1.969-1.195,3.743-3,4.53c-1.809,0.789-3.906,0.442-5.361-0.881       c-23.611-21.446-62.438-9.814-62.826-9.694c-2.625,0.809-5.411-0.646-6.243-3.26c-0.322-0.975-8.473-24.467-41.125-22.106       c-32.941,2.381-38.212,31.879-38.262,32.177c-0.256,1.544-1.222,2.88-2.607,3.608c-1.387,0.728-3.034,0.764-4.45,0.1       c-25.186-11.827-43.349-1.037-44.43-0.367c-0.559,0.373-1.18,0.625-1.824,0.75c0.001,0.001-0.004,0.001-0.009,0.001       c-0.206,0.04-0.414,0.066-0.622,0.08c-0.004,0-0.005,0-0.013,0C84.538,500.5,84.434,500.503,84.329,500.503z M108.114,484.493       c6.55,0,14.069,1.105,22.296,4.207c3.769-10.727,15.111-32.317,45.729-34.529c21.1-1.529,33.909,6.329,40.944,13.185       c4.229,4.123,6.925,8.394,8.515,11.465c10.64-2.469,38.576-6.925,60.862,7.375c1.058-5.836,3.187-13.854,7.47-22.354       c7.636-15.156,23.81-34.77,57.5-42.144c33.613-7.357,56.685,3.04,70.12,13.059c9.849,7.342,16.033,15.48,19.094,20.151       c6.938-2.288,21.455-5.765,36.05-1.142c2.39-3.363,6.597-8.322,12.747-12.196l-60.265-97.016l-46.851-16.645       c-0.768-0.272-1.457-0.729-2.008-1.328l-43.838-47.707l-124.316,133.88c-0.737,0.794-1.714,1.328-2.78,1.519l-62.162,11.157       l-48.176,59.786C101.801,484.771,104.835,484.493,108.114,484.493z" fill="#3F456B"/></g></g></g><g><g><g><path d="M132.849,458.956c-1.88,0-3.554-0.209-5.001-0.516c-6.273-1.333-9.824-4.772-10.208-5.16       c-1.943-1.962-1.929-5.127,0.033-7.071c1.945-1.927,5.075-1.928,7.022-0.015c0.876,0.823,8.602,7.35,22.695-2.9       c18.02-13.104,37.56-24.49,60.866-7.678c10.597,7.643,21.115,11.077,29.63,9.668c4.965-0.822,8.901-3.235,11.701-7.174       c2.94-4.138,4.192-9.736,5.517-15.663c2.075-9.283,4.427-19.805,14.273-26.082c10.569-6.739,22.421-3.962,32.876-1.511       c7.444,1.745,14.475,3.394,20.589,1.89c5.285-1.299,9.364-5.133,13.683-9.192c3.318-3.12,6.75-6.345,11.025-8.789       c5.199-2.971,10.175-3.804,14.783-2.478c4.929,1.418,9.075,5.218,12.325,11.293c4.107,7.679,10.685,13.058,17.166,14.036       c5.143,0.777,10.065-1.106,14.632-5.596c1.309-1.382,10.032-10.117,20.481-8.896c6.1,0.714,11.171,4.553,15.072,11.409       l1.127,1.985c6.998,12.347,17.573,31.005,29.143,32.969c4.407,0.75,8.926-0.967,13.812-5.244       c2.077-1.818,5.237-1.608,7.056,0.47s1.608,5.237-0.47,7.056c-7.191,6.293-14.619,8.842-22.07,7.578       c-16.254-2.758-27.765-23.068-36.17-37.897l-1.118-1.971c-2.24-3.938-4.778-6.099-7.544-6.422       c-4.869-0.569-10.495,4.164-12.084,5.867c-0.046,0.049-0.093,0.098-0.141,0.146c-8.655,8.562-17.403,9.315-23.219,8.436       c-9.685-1.462-18.841-8.643-24.491-19.208c-1.325-2.477-3.488-5.598-6.271-6.399c-1.919-0.552-4.292-0.03-7.056,1.55       c-3.25,1.858-6.111,4.547-9.14,7.394c-4.833,4.542-10.31,9.69-18.145,11.616c-8.444,2.076-16.991,0.073-25.257-1.864       c-9.768-2.289-18.203-4.267-25.22,0.208c-6.363,4.057-7.997,11.367-9.89,19.831c-1.482,6.634-3.016,13.494-7.125,19.275       c-4.337,6.102-10.637,9.991-18.219,11.246c-11.16,1.849-24.339-2.21-37.112-11.424c-16.385-11.82-29.402-6.696-49.134,7.655       C145.17,457.273,138.184,458.956,132.849,458.956z" fill="#3F456B"/></g></g></g></g></g><g id="Outline"><g><g><g><g><g><g><g><path d="M346.263,49.917c-1.165,0-2.335-0.405-3.282-1.23c-2.082-1.813-2.3-4.972-0.486-7.054l8.894-10.21          c1.815-2.083,4.973-2.299,7.055-0.486s2.3,4.972,0.486,7.054l-8.894,10.21C349.046,49.336,347.658,49.917,346.263,49.917z" fill="#3F456B"/></g></g></g></g><g><g><g><g><path d="M360.428,116.249c-1.163,0-2.33-0.403-3.277-1.225l-9.814-8.525          c-2.084-1.811-2.307-4.969-0.495-7.054c1.812-2.085,4.968-2.306,7.054-0.496l9.814,8.525          c2.084,1.811,2.307,4.969,0.495,7.054C363.216,115.666,361.825,116.249,360.428,116.249z" fill="#3F456B"/></g></g></g></g><g><g><g><g><path d="M372.944,91.138c-0.318,0-0.642-0.031-0.965-0.094l-13.118-2.565          c-2.711-0.53-4.478-3.157-3.948-5.867c0.53-2.71,3.162-4.474,5.866-3.948l13.118,2.565c2.711,0.53,4.478,3.157,3.948,5.867          C377.379,89.482,375.287,91.138,372.944,91.138z" fill="#3F456B"/></g></g></g></g><g><g><g><g><path d="M358.276,67.606c-2.077,0-4.018-1.304-4.729-3.378c-0.896-2.612,0.494-5.456,3.106-6.353          l12.741-4.373c2.616-0.894,5.456,0.495,6.353,3.106s-0.494,5.456-3.106,6.353l-12.741,4.373          C359.361,67.519,358.814,67.606,358.276,67.606z" fill="#3F456B"/></g></g></g></g></g><g><g><g><g><g><path d="M327.661,39.144c-0.318,0-0.642-0.031-0.965-0.094c-2.71-0.53-4.478-3.156-3.948-5.866l2.391-12.23          c0.53-2.71,3.162-4.474,5.866-3.948c2.71,0.53,4.478,3.156,3.948,5.866l-2.391,12.23          C332.096,37.488,330.004,39.144,327.661,39.144z" fill="#3F456B"/></g></g></g></g><g><g><g><g><path d="M306.344,41.076c-2.077,0-4.018-1.304-4.729-3.379l-4.2-12.242          c-0.896-2.612,0.495-5.456,3.106-6.352c2.616-0.893,5.456,0.495,6.353,3.107l4.2,12.242          c0.896,2.612-0.495,5.456-3.106,6.352C307.429,40.988,306.882,41.076,306.344,41.076z" fill="#3F456B"/></g></g></g></g><g><g><g><g><path d="M288.971,52.989c-1.163,0-2.33-0.403-3.277-1.225l-9.814-8.525          c-2.084-1.811-2.307-4.969-0.495-7.054c1.811-2.085,4.969-2.306,7.054-0.496l9.814,8.525          c2.084,1.811,2.307,4.969,0.495,7.054C291.759,52.406,290.368,52.989,288.971,52.989z" fill="#3F456B"/></g></g></g></g></g></g><g><g><g><g><path d="M437.444,132.923c-2.762,0-5-2.239-5-5V89.141c0-2.761,2.238-5,5-5s5,2.239,5,5v38.782        C442.444,130.684,440.206,132.923,437.444,132.923z" fill="#3F456B"/></g></g></g><g><g><g><path d="M454.24,123.229c-0.848,0-1.707-0.216-2.494-0.67l-33.603-19.391c-2.392-1.38-3.212-4.438-1.832-6.83        c1.381-2.392,4.437-3.214,6.83-1.832l33.603,19.391c2.392,1.38,3.212,4.438,1.832,6.83        C457.649,122.331,455.969,123.229,454.24,123.229z" fill="#3F456B"/></g></g></g><g><g><g><path d="M420.647,123.229c-1.729,0-3.409-0.897-4.336-2.502c-1.38-2.392-0.56-5.449,1.832-6.83l33.603-19.391        c2.392-1.381,5.448-0.56,6.83,1.832c1.38,2.392,0.56,5.449-1.832,6.83l-33.603,19.391        C422.354,123.012,421.495,123.229,420.647,123.229z" fill="#3F456B"/></g></g></g></g><g><g><g><g><path d="M84.33,379.945c-2.762,0-5-2.239-5-5v-38.782c0-2.761,2.238-5,5-5s5,2.239,5,5v38.782        C89.33,377.706,87.092,379.945,84.33,379.945z" fill="#3F456B"/></g></g></g><g><g><g><path d="M101.126,370.25c-0.848,0-1.707-0.216-2.494-0.67L65.03,350.189c-2.392-1.38-3.212-4.438-1.832-6.83        c1.381-2.392,4.437-3.214,6.83-1.832l33.602,19.391c2.392,1.38,3.212,4.438,1.832,6.83        C104.535,369.353,102.854,370.25,101.126,370.25z" fill="#3F456B"/></g></g></g><g><g><g><path d="M67.534,370.25c-1.729,0-3.409-0.897-4.336-2.502c-1.38-2.392-0.56-5.449,1.832-6.83l33.602-19.391        c2.391-1.381,5.449-0.561,6.83,1.832c1.38,2.392,0.56,5.449-1.832,6.83L70.028,369.58        C69.241,370.034,68.382,370.25,67.534,370.25z" fill="#3F456B"/></g></g></g></g><g><g><g><path d="M394.698,301.796c-0.039,3.225,2.544,5.87,5.769,5.909c3.226,0.039,5.871-2.542,5.91-5.768       c0.039-3.224-2.542-5.871-5.768-5.91C397.384,295.988,394.737,298.571,394.698,301.796z" fill="#3F456B"/></g></g></g><g><g><g><path d="M82.523,453.89c-0.039,3.225,2.544,5.87,5.769,5.909c3.226,0.039,5.871-2.542,5.91-5.768       c0.039-3.224-2.542-5.871-5.768-5.91C85.209,448.082,82.562,450.665,82.523,453.89z" fill="#3F456B"/></g></g></g><g><g><g><path d="M193.661,386.442c-0.039,3.225,2.544,5.87,5.769,5.909c3.226,0.039,5.871-2.542,5.91-5.768       c0.039-3.224-2.542-5.871-5.768-5.91C196.347,380.634,193.7,383.218,193.661,386.442z" fill="#3F456B"/></g></g></g><g><g><g><path d="M45.527,60.348c-0.039,3.225,2.544,5.87,5.769,5.909c3.226,0.039,5.871-2.542,5.91-5.768       c0.039-3.224-2.542-5.871-5.768-5.91C48.213,54.541,45.566,57.124,45.527,60.348z" fill="#3F456B"/></g></g></g><g><g><g><path d="M16.966,163.497c-0.039,3.225,2.544,5.87,5.769,5.909c3.226,0.039,5.871-2.542,5.91-5.768       c0.039-3.224-2.542-5.871-5.768-5.91C19.652,157.689,17.005,160.272,16.966,163.497z" fill="#3F456B"/></g></g></g><g><g><g><path d="M305.66,267.44c-1.9-2.01-1.811-5.17,0.199-7.07l0,0c2-1.9,5.171-1.81,7.061,0.2l0,0       c1.899,2.01,1.81,5.17-0.2,7.07l0,0c0,0,0,0,0.01,0l0,0c-0.97,0.91-2.21,1.36-3.439,1.36l0,0       C307.96,269,306.64,268.48,305.66,267.44z M320.8,254.4c-1.49-2.32-0.82-5.42,1.5-6.92v0.01c2.32-1.5,5.41-0.83,6.91,1.49l0,0       c1.49,2.32,0.83,5.41-1.49,6.91l0,0c-0.84,0.54-1.78,0.8-2.71,0.8l0,0C323.37,256.69,321.76,255.88,320.8,254.4z        M338.08,244.33c-1.07-2.55,0.13-5.48,2.68-6.54v-0.01c2.55-1.06,5.48,0.14,6.55,2.69l0,0c1.061,2.54-0.14,5.47-2.689,6.54l0,0       c-0.63,0.26-1.28,0.39-1.931,0.39l0,0C340.74,247.4,338.88,246.24,338.08,244.33z M356.84,237.39       c-0.62-2.69,1.05-5.38,3.729-6.01l0,0c2.69-0.63,5.381,1.04,6.011,3.73l0,0c0.63,2.69-1.04,5.38-3.73,6.01l0,0       c-0.38,0.09-0.76,0.13-1.14,0.13l0,0C359.439,241.25,357.38,239.69,356.84,237.39z M376.53,233.5c0-2.76,2.239-5,5-5l0,0       c2.76,0,5,2.24,5,5l0,0c0,2.76-2.24,5-5,5l0,0l0,0l0,0C378.77,238.5,376.53,236.26,376.53,233.5z" fill="#384169"/></g></g></g><g><g><g><path d="M189.84,298.85v-0.01c-2.69-0.61-4.38-3.29-3.771-5.98l0,0c0.61-2.69,3.29-4.38,5.98-3.77l0,0       c2.69,0.61,4.38,3.29,3.77,5.98l0,0c-0.52,2.33-2.59,3.9-4.869,3.9l0,0C190.58,298.97,190.21,298.93,189.84,298.85z        M170.45,294.96c-2.721-0.47-4.53-3.07-4.051-5.79l0,0c0.48-2.72,3.07-4.53,5.79-4.05l0,0c2.721,0.47,4.53,3.07,4.061,5.79l0,0       c-0.431,2.42-2.54,4.13-4.92,4.13l0,0C171.04,295.04,170.75,295.02,170.45,294.96z M150.859,291.91       c-2.729-0.38-4.64-2.9-4.27-5.63l0,0c0.38-2.74,2.9-4.65,5.63-4.28l0,0c2.74,0.38,4.65,2.9,4.28,5.64l0,0       c-0.34,2.5-2.49,4.32-4.95,4.32l0,0C151.319,291.96,151.1,291.94,150.859,291.91z M131.149,289.54       c-2.739-0.29-4.739-2.74-4.449-5.49l0,0c0.279-2.75,2.739-4.74,5.489-4.46l0,0c2.74,0.29,4.74,2.74,4.45,5.49l0,0       c-0.26,2.57-2.439,4.48-4.96,4.48l0,0C131.5,289.56,131.33,289.56,131.149,289.54z M111.41,287.85h0.01       c-2.76-0.16-4.87-2.53-4.71-5.28l0,0c0.16-2.76,2.52-4.87,5.28-4.71l0,0c2.76,0.16,4.859,2.53,4.699,5.28l0,0       c-0.149,2.66-2.35,4.71-4.979,4.71l0,0C111.609,287.85,111.51,287.85,111.41,287.85z" fill="#384169"/></g></g></g></g></g></svg>