<?xml version="1.0" ?><svg id="Lines" viewBox="0 0 512 512" xmlns="http://www.w3.org/2000/svg"><defs><style>.cls-1{fill:#3f456b;}</style></defs><title/><path class="cls-1" d="M176,116H17a5,5,0,0,1-5-5V16a5,5,0,0,1,5-5H176a5,5,0,0,1,5,5v95A5,5,0,0,1,176,116ZM22,106H171V21H22Z"/><path class="cls-1" d="M359,244H232a5,5,0,0,1-5-5V144a5,5,0,0,1,5-5H359a5,5,0,0,1,5,5v95A5,5,0,0,1,359,244ZM237,234H354V149H237Z"/><path class="cls-1" d="M359,372H232a5,5,0,0,1-5-5V272a5,5,0,0,1,5-5H359a5,5,0,0,1,5,5v95A5,5,0,0,1,359,372ZM237,362H354V277H237Z"/><path class="cls-1" d="M359,500H232a5,5,0,0,1-5-5V400a5,5,0,0,1,5-5H359a5,5,0,0,1,5,5v95A5,5,0,0,1,359,500ZM237,490H354V405H237Z"/><path class="cls-1" d="M215,196H95a5,5,0,0,1-5-5V113a5,5,0,0,1,10,0v73H215a5,5,0,0,1,0,10Z"/><path class="cls-1" d="M189.91,222.47a5,5,0,0,1-3.49-8.58l23.62-23-22.9-23.29a5,5,0,0,1,7.13-7l26.43,26.87a5,5,0,0,1-.08,7.09L193.4,221.06A5,5,0,0,1,189.91,222.47Z"/><path class="cls-1" d="M215,453H95a5,5,0,0,1-5-5V320a5,5,0,0,1,5-5H232a5,5,0,0,1,0,10H100V443H215a5,5,0,0,1,0,10Z"/><path class="cls-1" d="M189.91,479.47a5,5,0,0,1-3.49-8.58l23.62-23-22.9-23.29a5,5,0,1,1,7.13-7l26.43,26.87a5,5,0,0,1-.08,7.09L193.4,478.06A5,5,0,0,1,189.91,479.47Z"/><path class="cls-1" d="M496,322H376a5,5,0,0,1,0-10H491V194H359a5,5,0,0,1,0-10H496a5,5,0,0,1,5,5V317A5,5,0,0,1,496,322Z"/><path class="cls-1" d="M401.09,348a5,5,0,0,1-3.49-1.42L370.38,320.1a5,5,0,0,1-.08-7.09l26.43-26.87a5,5,0,0,1,7.13,7L381,316.44l23.62,23a5,5,0,0,1-3.49,8.58Z"/></svg>