<?xml version="1.0" encoding="iso-8859-1"?>
<!-- Generator: Adobe Illustrator 19.0.0, SVG Export Plug-In . SVG Version: 6.00 Build 0)  -->
<svg version="1.1" id="Capa_1" xmlns="http://www.w3.org/2000/svg" xmlns:xlink="http://www.w3.org/1999/xlink" x="0px" y="0px"
	 viewBox="0 0 512 512" style="enable-background:new 0 0 512 512;" xml:space="preserve">
<g>
	<g>
		<path d="M373.333,277.333C308.629,277.333,256,329.963,256,394.667S308.629,512,373.333,512
			c64.683,0,117.333-52.629,117.333-117.333S438.037,277.333,373.333,277.333z M373.333,490.667c-52.928,0-96-43.072-96-96
			s43.072-96,96-96c52.928,0,96,43.072,96,96S426.261,490.667,373.333,490.667z"/>
	</g>
</g>
<g>
	<g>
		<path d="M423.509,408.491c-4.16-4.16-10.944-4.181-15.083-0.021L384,432.896V330.667c0-5.888-4.779-10.667-10.667-10.667
			c-5.888,0-10.667,4.779-10.667,10.667v102.272l-24.469-24.469c-4.16-4.16-10.923-4.16-15.083,0c-4.16,4.16-4.16,10.923,0,15.083
			l42.667,42.667c0.363,0.341,0.811,0.491,1.195,0.789c0.725,0.555,1.429,1.152,2.283,1.493c1.28,0.555,2.667,0.832,4.075,0.832
			c1.387,0,2.752-0.277,4.053-0.811c1.344-0.555,2.539-1.365,3.541-2.368l42.581-42.581
			C427.669,419.413,427.669,412.651,423.509,408.491z"/>
	</g>
</g>
<g>
	<g>
		<path d="M394.667,0H53.333c-17.621,0-32,14.357-32,32v405.333c0,17.643,14.379,32,32,32H224c5.888,0,10.667-4.779,10.667-10.667
			S229.888,448,224,448H53.333c-5.888,0-10.667-4.779-10.667-10.667V32c0-5.888,4.779-10.667,10.667-10.667h32v23.296
			C72.96,49.045,64,60.779,64,74.667c0,17.643,14.379,32,32,32c17.664,0,32-14.357,32-32c0-13.888-8.939-25.621-21.333-30.037
			V21.333h64v23.296c-12.373,4.416-21.333,16.149-21.333,30.037c0,17.643,14.379,32,32,32c17.664,0,32-14.357,32-32
			c0-13.888-8.939-25.621-21.333-30.037V21.333h64v23.296c-12.373,4.416-21.333,16.149-21.333,30.037c0,17.643,14.379,32,32,32
			c17.664,0,32-14.357,32-32c0-13.888-8.939-25.621-21.333-30.037V21.333h64v23.296C328.96,49.045,320,60.779,320,74.667
			c0,17.643,14.379,32,32,32c17.664,0,32-14.357,32-32c0-13.888-8.939-25.621-21.333-30.037V21.333h32
			c5.888,0,10.667,4.779,10.667,10.667v213.333c0,5.888,4.779,10.667,10.667,10.667c5.888,0,10.667-4.779,10.667-10.667V32
			C426.667,14.357,412.331,0,394.667,0z M96,85.333c-5.888,0-10.667-4.779-10.667-10.667S90.112,64,96,64
			s10.667,4.779,10.667,10.667S101.888,85.333,96,85.333z M181.333,85.333c-5.888,0-10.667-4.779-10.667-10.667
			S175.445,64,181.333,64S192,68.779,192,74.667S187.221,85.333,181.333,85.333z M266.667,85.333
			c-5.888,0-10.667-4.779-10.667-10.667S260.779,64,266.667,64s10.667,4.779,10.667,10.667S272.555,85.333,266.667,85.333z
			 M352,85.333c-5.888,0-10.667-4.779-10.667-10.667S346.112,64,352,64c5.888,0,10.667,4.779,10.667,10.667
			S357.888,85.333,352,85.333z"/>
	</g>
</g>
<g>
</g>
<g>
</g>
<g>
</g>
<g>
</g>
<g>
</g>
<g>
</g>
<g>
</g>
<g>
</g>
<g>
</g>
<g>
</g>
<g>
</g>
<g>
</g>
<g>
</g>
<g>
</g>
<g>
</g>
</svg>
