<?xml version="1.0" ?><svg enable-background="new 0 0 512 512" version="1.1" viewBox="0 0 512 512" xml:space="preserve" xmlns="http://www.w3.org/2000/svg" xmlns:xlink="http://www.w3.org/1999/xlink"><g id="Lines"><g><g><g><g><path d="M84.899,145.282c-0.494,0-4.958-0.074-9.48-2.659c-4.343-2.481-9.52-7.678-9.52-18.341       c0-10.65,5.125-15.847,9.425-18.33c4.494-2.595,8.935-2.67,9.426-2.67c2.761,0,5,2.238,5,5c0,2.745-2.213,4.975-4.953,5       c-2.099,0.051-8.898,1-8.898,11c0,4.776,1.466,7.936,4.48,9.659c2.209,1.262,4.498,1.341,4.52,1.341c2.761,0,5,2.238,5,5       S87.661,145.282,84.899,145.282z" fill="#3F456B"/></g></g></g><g><g><g><path d="M229.045,145.282c-2.761,0-5-2.238-5-5c0-2.745,2.213-4.975,4.953-5c2.099-0.051,8.898-1,8.898-11       c0-4.776-1.466-7.936-4.48-9.659c-2.209-1.262-4.498-1.341-4.52-1.341c-2.761,0-5-2.238-5-5s2.239-5,5-5       c0.494,0,4.958,0.074,9.48,2.659c4.343,2.481,9.52,7.678,9.52,18.341c0,10.65-5.125,15.847-9.425,18.33       C233.978,145.207,229.537,145.282,229.045,145.282z" fill="#3F456B"/></g></g></g><g><g><g><g><path d="M417.359,441.766c-1.075,0-2.177-0.235-3.252-0.727c-1.704-0.776-2.855-1.935-3.801-2.96        c-2.939-3.188-5.534-6.536-8.043-9.773l-1.401-1.804c-0.35-0.449-0.709-0.944-1.068-1.439        c-0.284-0.394-0.568-0.787-0.846-1.145c-0.046-0.059-0.095-0.125-0.147-0.196c-1.084,0.089-2.178,0.198-3.307,0.311        c-2.291,0.229-4.66,0.465-7.129,0.542c-0.329,0.01-0.771,0.045-1.291,0.084c-4.793,0.355-13.712,1.02-15.845-5.717        c-0.774-2.45,0.116-4.612,0.451-5.426c1.864-4.524,4.43-8.49,6.911-12.326l0.92-1.427c1.116-1.739,2.022-3.121,2.75-4.211        c-3.271-5.99-7.61-15.404-7.5-20.966c0.076-3.839,1.834-5.903,3.296-6.958c2.564-1.852,5.456-1.523,6.767-1.235        c4.915,0.622,14.782,4.21,20.184,6.276c5.721-6.064,12.006-11.091,13.991-12.533c1.776-1.292,3.612-1.979,5.453-2.042        c2.21-0.066,4.55,0.781,6.262,2.288c0.552,0.487,1.039,1.055,1.45,1.688c0.872,1.338,1.395,2.96,1.547,4.813        c0.202,2.445,0.493,10.49-0.369,18.779c5.09,2.746,14.249,7.883,17.926,11.2c1.073,0.805,3.209,2.782,3.479,5.936        c0.154,1.796-0.263,4.475-3.123,7.037c-4.093,3.667-13.873,6.498-20.543,7.944c-1.437,6.672-3.616,12.989-6.625,19.22        C422.99,440.04,420.272,441.766,417.359,441.766z M401.058,413.564c0.721,0,1.435,0.156,2.092,0.459l0.081,0.037        c1.758,0.807,2.728,2.329,3.436,3.439c0.081,0.127,0.153,0.245,0.219,0.339c0.297,0.379,0.654,0.87,1.01,1.363        c0.286,0.395,0.571,0.791,0.851,1.149l1.419,1.827c2.158,2.784,4.212,5.435,6.445,7.961c2.48-5.631,4.213-11.372,5.281-17.477        c0.364-2.076,1.991-3.702,4.067-4.063c6.581-1.146,14.02-3.418,17.48-5.233c-3.772-2.823-12.529-7.722-17.797-10.471        c-1.887-0.984-2.944-3.056-2.634-5.161c1.088-7.389,0.977-15.302,0.817-18.709c-2.688,2.103-8.754,7.18-13.646,12.826        c-1.393,1.609-3.651,2.161-5.629,1.372c-5.523-2.199-14.949-5.64-19.547-6.655c0.882,3.807,4.014,10.927,7.44,16.66        c1.015,1.698,0.932,3.836-0.21,5.451c-0.717,1.015-2.047,2.963-4.306,6.484l-0.94,1.457c-1.808,2.795-3.538,5.47-4.929,8.236        c1.588,0.019,3.449-0.111,4.274-0.172c0.693-0.052,1.285-0.094,1.722-0.107c2.127-0.066,4.226-0.275,6.448-0.497        c2.038-0.203,4.146-0.413,6.331-0.512C400.908,413.566,400.983,413.564,401.058,413.564z M445.437,404.978        c0.005,0.003,0.01,0.007,0.015,0.01C445.447,404.983,445.442,404.98,445.437,404.978z M382.461,376.101        c0.005,0.001,0.011,0.003,0.018,0.005C382.473,376.104,382.467,376.103,382.461,376.101z M384.773,374.58L384.773,374.58        L384.773,374.58z M384.773,374.58L384.773,374.58L384.773,374.58z M423.69,367.351L423.69,367.351L423.69,367.351z" fill="#3F456B"/></g></g></g></g><g><g><g><g><path d="M117.796,127.649c-1.86-3.221-0.757-7.338,2.465-9.198c3.22-1.859,7.338-0.756,9.198,2.465        c1.859,3.22,0.756,7.339-2.464,9.198C123.773,131.974,119.656,130.869,117.796,127.649z" fill="#3F456B"/></g></g></g></g><g><g><g><g><path d="M182.377,127.649c-1.86-3.221-0.757-7.338,2.465-9.198c3.22-1.859,7.338-0.756,9.198,2.465        c1.859,3.22,0.756,7.339-2.464,9.198C188.354,131.974,184.237,130.869,182.377,127.649z" fill="#3F456B"/></g></g></g></g><g><g><g><path d="M156.907,209.819c-41.876,0-75.945-34.109-75.945-76.035V111.72l-0.064-1.841       c-0.002-0.059-0.003-0.116-0.003-0.175c0-41.927,34.089-76.036,75.99-76.036c41.876,0,75.945,34.109,75.945,76.036l0.021,2.116       l0.046,21.953C232.896,175.71,198.807,209.819,156.907,209.819z M90.895,109.619l0.064,1.839       c0.002,0.059,0.003,0.116,0.003,0.175v22.151c0,36.412,29.583,66.035,65.945,66.035c36.387,0,65.989-29.623,65.989-66.035       l-0.067-24.03c0-36.462-29.583-66.086-65.945-66.086C120.526,43.668,90.941,73.246,90.895,109.619z" fill="#3F456B"/></g></g></g><g><g><g><path d="M217.901,79.46H96.102c-2.761,0-5-2.238-5-5s2.239-5,5-5h121.799c2.761,0,5,2.238,5,5       S220.662,79.46,217.901,79.46z" fill="#3F456B"/></g></g></g><g><g><g><path d="M137.428,331.669c-0.609,0-1.228-0.111-1.829-0.348c-2.57-1.011-3.833-3.914-2.823-6.483       l50.779-129.108c1.011-2.569,3.914-3.833,6.483-2.823c2.57,1.011,3.833,3.914,2.823,6.483l-50.779,129.108       C141.308,330.467,139.423,331.669,137.428,331.669z" fill="#3F456B"/></g></g></g><g><g><g><path d="M156.399,282.198c-1.995,0-3.88-1.202-4.654-3.171l-31.322-79.638c-1.011-2.57,0.253-5.473,2.823-6.483       c2.57-1.013,5.472,0.254,6.483,2.823l31.322,79.638c1.011,2.57-0.253,5.473-2.823,6.483       C157.627,282.087,157.008,282.198,156.399,282.198z" fill="#3F456B"/></g></g></g><g><g><g><path d="M237.398,363.668H77.491c-2.761,0-5-2.238-5-5v-128c0-2.762,2.239-5,5-5s5,2.238,5,5v123h149.907v-123       c0-2.762,2.239-5,5-5s5,2.238,5,5v128C242.398,361.43,240.159,363.668,237.398,363.668z" fill="#3F456B"/></g></g></g><g><g><g><path d="M237.398,331.668H77.491c-2.761,0-5-2.238-5-5s2.239-5,5-5h159.907c2.761,0,5,2.238,5,5       S240.159,331.668,237.398,331.668z" fill="#3F456B"/></g></g></g><g><g><g><path d="M237.4,235.668c-1.379,0-2.751-0.566-3.739-1.678c-1.835-2.064-1.649-5.225,0.415-7.06       c36.832-32.739,51.352-73.187,57.046-101.353c6.241-30.871,3.971-56.594,2.438-62.472c-0.191-0.732-0.38-1.476-0.57-2.224       c-3.133-12.353-5.312-18.72-17.003-16.929c-11.217,1.715-9.471,18.879-9.452,19.052c0.02,0.181,0.03,0.362,0.03,0.544       c0,93.077-43.415,107.341-45.263,107.902c-2.642,0.803-5.435-0.688-6.238-3.33c-0.798-2.629,0.673-5.406,3.289-6.226       c0.268-0.09,9.611-3.348,18.873-16.606c15.929-22.803,19.316-56.842,19.339-81.481c-0.936-9.367,1.61-27.248,17.912-29.739       c21.209-3.243,25.419,13.364,28.208,24.354c0.184,0.727,0.367,1.447,0.552,2.159c1.982,7.597,4.151,35.009-2.312,66.977       c-5.997,29.659-21.309,72.271-60.204,106.846C239.767,235.252,238.581,235.668,237.4,235.668z" fill="#3F456B"/></g></g></g><g><g><g><path d="M37.898,320.793c-2.761,0-5-2.238-5-5v-69.125c0-34.314,19.442-51.312,35.752-59.528       c17.274-8.702,34.344-9.44,35.062-9.468c2.765-0.133,5.082,2.047,5.186,4.807c0.104,2.757-2.044,5.077-4.8,5.186l0,0       c-0.157,0.007-15.876,0.729-31.224,8.547c-19.89,10.131-29.975,27.107-29.975,50.457v69.125       C42.898,318.555,40.659,320.793,37.898,320.793z" fill="#3F456B"/></g></g></g><g><g><g><path d="M52.898,363.668c-15.991,0-29-13.01-29-29s13.009-29,29-29s29,13.01,29,29       S68.889,363.668,52.898,363.668z M52.898,315.668c-10.477,0-19,8.523-19,19s8.523,19,19,19s19-8.523,19-19       S63.375,315.668,52.898,315.668z" fill="#3F456B"/></g></g></g><g><g><g><path d="M300.191,99.841c-0.085,0-0.17-0.002-0.256-0.007l-39.548-1.998c-2.758-0.139-4.88-2.487-4.741-5.245       s2.498-4.907,5.246-4.741l39.548,1.998c2.758,0.139,4.88,2.487,4.741,5.245C305.045,97.765,302.836,99.841,300.191,99.841z" fill="#3F456B"/></g></g></g><g><g><g><path d="M269.398,436.491H125.076c-1.472,0-2.87-0.648-3.82-1.773c-0.95-1.125-1.356-2.611-1.11-4.062       l12.353-72.823c0.462-2.723,3.044-4.553,5.766-4.094c2.722,0.462,4.555,3.043,4.093,5.766l-11.363,66.987h132.867       c-1.656-13.001-7.932-46.71-29.575-63.908c-2.162-1.719-2.521-4.863-0.804-7.025c1.718-2.161,4.863-2.521,7.025-0.805       c12.931,10.276,22.565,26.308,28.636,47.65c4.454,15.66,5.215,28.273,5.245,28.803c0.079,1.374-0.412,2.719-1.357,3.719       C272.088,435.925,270.773,436.491,269.398,436.491z" fill="#3F456B"/></g></g></g><g><g><g><path d="M50.249,500.491c-25.809,0-26.348-20.732-26.351-20.941l0-13.595c0-25.721,4.394-62.125,25.325-89.493       c12.827-16.772,25.835-22.202,26.382-22.425c2.559-1.041,5.476,0.188,6.517,2.745c1.039,2.551-0.181,5.459-2.725,6.508       c-0.198,0.084-11.509,4.976-22.665,19.818c-18.874,25.11-22.835,58.912-22.835,82.847v13.454       c0.085,1.945,1.296,11.082,16.351,11.082c16.056,0,19.338-3.526,20.992-11.962c6.091-31.064,21.424-55.46,45.573-72.509       c2.257-1.593,5.375-1.055,6.968,1.201s1.055,5.376-1.201,6.969c-21.976,15.515-35.948,37.809-41.527,66.263       C77.793,497.084,66.381,500.491,50.249,500.491z" fill="#3F456B"/></g></g></g><g><g><g><path d="M127.786,420.491c-1.031,0-2.07-0.317-2.964-0.976c-16.933-12.487-70.538-38.659-71.077-38.922       c-2.482-1.21-3.514-4.203-2.304-6.686c1.209-2.482,4.202-3.515,6.685-2.305c2.236,1.09,54.968,26.837,72.632,39.863       c2.222,1.64,2.695,4.77,1.056,6.992C130.834,419.788,129.32,420.491,127.786,420.491z" fill="#3F456B"/></g></g></g><g><g><g><path d="M80.194,469.316c-0.212,0-0.427-0.014-0.643-0.042l-50.586-6.497c-2.739-0.352-4.674-2.857-4.323-5.596       c0.353-2.738,2.86-4.687,5.596-4.322l50.586,6.497c2.739,0.352,4.674,2.857,4.323,5.596       C84.823,467.475,82.671,469.316,80.194,469.316z" fill="#3F456B"/></g></g></g><g><g><g><path d="M251.45,500.491c-9.663,0-15.798-1.163-20.515-3.89c-5.482-3.17-8.752-8.301-10.291-16.148       c-3.454-17.617-10.241-33.062-20.172-45.905c-1.689-2.185-1.288-5.325,0.897-7.014c2.186-1.688,5.325-1.288,7.014,0.896       c10.891,14.085,18.317,30.94,22.074,50.099c1.654,8.436,4.937,11.962,20.992,11.962c6.831,0,11.459-2.591,14.149-7.92       c2.107-4.174,2.202-8.415,2.202-8.457v-8.159c0-11.96-0.942-23.291-2.8-33.677c-0.486-2.719,1.323-5.316,4.042-5.803       c2.715-0.492,5.316,1.323,5.802,4.041c1.962,10.967,2.957,22.89,2.957,35.438v8.203c-0.006,0.709-0.147,6.723-3.275,12.92       C271.438,493.197,264.927,500.491,251.45,500.491z" fill="#3F456B"/></g></g></g><g><g><g><path d="M221.505,469.316c-2.478,0-4.629-1.841-4.953-4.364c-0.352-2.738,1.583-5.244,4.323-5.596l50.586-6.497       c2.728-0.368,5.244,1.582,5.596,4.322c0.352,2.738-1.583,5.244-4.323,5.596l-50.586,6.497       C221.933,469.303,221.718,469.316,221.505,469.316z" fill="#3F456B"/></g></g></g><g><g><g><path d="M141.398,363.668c-2.761,0-5-2.238-5-5v-32c0-2.762,2.239-5,5-5s5,2.238,5,5v32       C146.398,361.43,144.159,363.668,141.398,363.668z" fill="#3F456B"/></g></g></g><g><g><g><path d="M173.398,363.668c-2.761,0-5-2.238-5-5v-32c0-2.762,2.239-5,5-5s5,2.238,5,5v32       C178.398,361.43,176.159,363.668,173.398,363.668z" fill="#3F456B"/></g></g></g><g><g><g><path d="M168.568,417.824c-1.586,0-3.141-0.753-4.108-2.145c-16.392-23.563-22.916-54.032-23.186-55.318       c-0.567-2.702,1.164-5.353,3.867-5.92c2.704-0.566,5.352,1.164,5.92,3.865l0,0c0.059,0.277,5.676,26.422,19.009,47.721       l17.224-10.6c-4.519-6.395-12.62-19.048-18.579-35.011c-0.966-2.587,0.348-5.468,2.936-6.434       c2.587-0.965,5.467,0.349,6.433,2.936c7.956,21.312,20.244,36.604,20.367,36.757c0.906,1.118,1.287,2.571,1.044,3.989       c-0.242,1.418-1.083,2.663-2.308,3.417l-26,16C170.37,417.584,169.464,417.824,168.568,417.824z" fill="#3F456B"/></g></g></g><g><g><g><path d="M307.755,207.734c-0.396,0.001-0.795-0.047-1.193-0.145c-2.24-0.55-3.814-2.561-3.808-4.868       l0.104-41.519l-14.755,3.615c-2.685,0.654-5.389-0.983-6.046-3.667c-0.657-2.682,0.984-5.389,3.667-6.046l20.961-5.136       c1.494-0.367,3.072-0.024,4.281,0.927c1.208,0.95,1.913,2.404,1.909,3.942l-0.068,27.314l12.586-24.242       c0.71-1.367,2.01-2.331,3.525-2.612c1.515-0.282,3.074,0.151,4.228,1.173l16.471,14.586l-5.302-21.352       c-0.371-1.495-0.033-3.078,0.918-4.29c0.948-1.209,2.399-1.915,3.935-1.915c0.004,0,0.008,0,0.013,0l27.316,0.068       l-24.243-12.587c-1.365-0.709-2.327-2.006-2.61-3.518c-0.283-1.511,0.145-3.068,1.161-4.224l14.401-16.363l-21.172,5.188       c-1.494,0.367-3.072,0.023-4.281-0.927c-1.208-0.95-1.913-2.404-1.909-3.942l0.068-27.315l-12.587,24.242       c-0.708,1.362-2.001,2.324-3.509,2.609c-1.508,0.287-3.063-0.139-4.22-1.149l-19.798-17.312       c-2.079-1.817-2.29-4.977-0.473-7.055c1.818-2.081,4.976-2.291,7.056-0.473l15.004,13.12l19.142-36.866       c1.063-2.049,3.39-3.102,5.629-2.552c2.241,0.55,3.814,2.561,3.808,4.868l-0.104,41.519l30.423-7.454       c2.122-0.518,4.334,0.397,5.466,2.266s0.92,4.255-0.523,5.895l-20.693,23.514l36.849,19.132       c2.047,1.063,3.102,3.389,2.552,5.63c-0.549,2.235-2.554,3.808-4.856,3.808c-0.004,0-0.008,0-0.013,0l-41.499-0.104       l7.635,30.746c0.528,2.125-0.389,4.347-2.262,5.481c-1.874,1.134-4.267,0.919-5.906-0.533l-23.717-21.003l-19.122,36.83       C311.317,206.723,309.588,207.734,307.755,207.734z" fill="#3F456B"/></g></g></g><g><g><g><path d="M416.09,292.875c-1.25,0-2.458-0.469-3.382-1.317l-58.915-54.12c-1.49-1.368-2.008-3.499-1.314-5.398       s2.464-3.194,4.484-3.279l17.611-0.747l-0.747-17.612c-0.117-2.759,2.025-5.091,4.784-5.207l17.611-0.747l-0.747-17.612       c-0.085-2.021,1.054-3.894,2.888-4.746c1.834-0.854,4-0.517,5.49,0.852l58.915,54.12c2.034,1.868,2.168,5.031,0.3,7.065       l-43.296,47.133c-0.897,0.977-2.146,1.557-3.47,1.612C416.231,292.873,416.16,292.875,416.09,292.875z M369.447,238.239       l46.343,42.571l36.531-39.769l-46.343-42.571l0.447,10.547c0.117,2.759-2.025,5.091-4.784,5.207l-17.611,0.747l0.747,17.612       c0.117,2.759-2.025,5.091-4.784,5.207L369.447,238.239z" fill="#3F456B"/></g></g></g><g><g><g><path d="M411.934,111.254c-1.271,0-2.521-0.484-3.473-1.401c-1.455-1.404-1.921-3.547-1.181-5.429l6.453-16.404       l-16.404-6.452c-1.234-0.485-2.225-1.441-2.754-2.657s-0.554-2.593-0.068-3.826l6.453-16.404l-16.404-6.452       c-1.882-0.74-3.133-2.542-3.169-4.563c-0.037-2.022,1.149-3.867,3.003-4.674l73.35-31.935c1.217-0.53,2.592-0.554,3.827-0.069       c1.234,0.485,2.225,1.441,2.754,2.657l25.547,58.68c1.102,2.532-0.057,5.479-2.588,6.58l-73.35,31.935       C413.287,111.118,412.607,111.254,411.934,111.254z M405.643,74.092l16.404,6.452c1.234,0.485,2.225,1.441,2.754,2.657       s0.554,2.593,0.068,3.826l-3.864,9.823l57.698-25.12L457.147,22.22l-57.698,25.12l9.824,3.864       c1.234,0.485,2.225,1.441,2.754,2.657s0.554,2.593,0.068,3.826L405.643,74.092z" fill="#3F456B"/></g></g></g><g><g><g><path d="M314.557,48.992c-2.015,0.001-3.914-1.227-4.673-3.221c-6.81-17.875-17.165-26.104-31.665-25.143       c-21.33,1.405-27.166,19.347-27.222,19.527c-0.821,2.637-3.625,4.107-6.262,3.285c-2.636-0.822-4.107-3.626-3.285-6.262       c0.314-1.007,8.011-24.678,36.111-26.529c23.896-1.58,35.852,16.293,41.667,31.561c0.983,2.581-0.312,5.47-2.893,6.453       C315.75,48.887,315.148,48.992,314.557,48.992z" fill="#3F456B"/></g></g></g><g><g><g><path d="M246.214,62.122c-1.56,3.217-5.43,4.563-8.648,3.004c-3.216-1.56-4.561-5.433-3.002-8.649       c1.559-3.217,5.431-4.56,8.646-3.002C246.429,55.034,247.772,58.905,246.214,62.122z" fill="#3F456B"/></g></g></g><g><g><g><path d="M72.829,173.006c-1.56,3.217-5.43,4.563-8.648,3.004c-3.216-1.56-4.561-5.433-3.002-8.649       c1.559-3.217,5.431-4.56,8.646-3.002C73.044,165.918,74.387,169.789,72.829,173.006z" fill="#3F456B"/></g></g></g><g><g><g><path d="M153.971,498.313c-1.56,3.217-5.43,4.563-8.648,3.004c-3.216-1.56-4.561-5.433-3.002-8.649       c1.559-3.217,5.431-4.56,8.646-3.002C154.185,491.225,155.529,495.096,153.971,498.313z" fill="#3F456B"/></g></g></g><g><g><g><path d="M355.446,498.313c-1.56,3.217-5.43,4.563-8.648,3.004c-3.216-1.56-4.561-5.433-3.002-8.649       c1.559-3.217,5.431-4.56,8.646-3.002C355.661,491.225,357.004,495.096,355.446,498.313z" fill="#3F456B"/></g></g></g><g><g><g><path d="M18.244,231.325c-0.308,0-0.62-0.028-0.934-0.088c-2.713-0.513-4.497-3.128-3.984-5.842       c6.357-33.632,32.826-49.032,33.95-49.671c2.398-1.367,5.453-0.527,6.818,1.874c1.363,2.396,0.528,5.444-1.865,6.812       c-0.322,0.187-23.615,13.94-29.077,42.842C22.698,229.652,20.6,231.325,18.244,231.325z" fill="#3F456B"/></g></g></g><g><g><g><path d="M127.79,500.491H50.249c-2.761,0-5-2.238-5-5s2.239-5,5-5h77.541c2.761,0,5,2.238,5,5       S130.551,500.491,127.79,500.491z" fill="#3F456B"/></g></g></g><g><g><g><path d="M328.16,500.491h-77.541c-2.761,0-5-2.238-5-5s2.239-5,5-5h77.541c2.761,0,5,2.238,5,5       S330.921,500.491,328.16,500.491z" fill="#3F456B"/></g></g></g></g></g><g id="Outline"><g><g><g><g><g><g><path d="M307.07,257.46c-1.28,0-2.559-0.488-3.536-1.465c-1.953-1.952-1.953-5.118,0-7.07l8.017-8.018         c1.952-1.953,5.118-1.953,7.071,0c1.953,1.952,1.953,5.118,0,7.07l-8.017,8.018C309.629,256.972,308.35,257.46,307.07,257.46         z" fill="#3F456B"/></g></g></g><g><g><g><path d="M279.707,284.803c-1.28,0-2.559-0.488-3.536-1.465c-1.953-1.952-1.953-5.118,0-7.07l8.017-8.018         c1.952-1.953,5.118-1.953,7.071,0c1.953,1.952,1.953,5.118,0,7.07l-8.017,8.018         C282.267,284.314,280.987,284.803,279.707,284.803z" fill="#3F456B"/></g></g></g></g><g><g><g><g><path d="M315.077,284.812c-1.28,0-2.559-0.488-3.536-1.465l-8.017-8.018c-1.953-1.952-1.953-5.118,0-7.07         c1.954-1.953,5.119-1.952,7.071,0l8.017,8.018c1.953,1.952,1.953,5.118,0,7.07         C317.636,284.324,316.356,284.812,315.077,284.812z" fill="#3F456B"/></g></g></g><g><g><g><path d="M287.734,257.45c-1.28,0-2.559-0.488-3.536-1.465l-8.017-8.018c-1.953-1.952-1.953-5.118,0-7.07         c1.954-1.952,5.119-1.952,7.071,0l8.017,8.018c1.953,1.952,1.953,5.118,0,7.07         C290.293,256.962,289.014,257.45,287.734,257.45z" fill="#3F456B"/></g></g></g></g></g><g><g><g><g><g><path d="M469.169,146.056c-1.28,0-2.559-0.488-3.536-1.465c-1.953-1.952-1.953-5.118,0-7.07l8.018-8.018         c1.953-1.953,5.118-1.953,7.071,0c1.953,1.952,1.953,5.118,0,7.07l-8.018,8.018         C471.729,145.567,470.449,146.056,469.169,146.056z" fill="#3F456B"/></g></g></g><g><g><g><path d="M441.807,173.398c-1.28,0-2.559-0.488-3.536-1.465c-1.953-1.952-1.953-5.118,0-7.07l8.018-8.018         c1.953-1.953,5.118-1.953,7.071,0c1.953,1.952,1.953,5.118,0,7.07l-8.018,8.018         C444.366,172.91,443.086,173.398,441.807,173.398z" fill="#3F456B"/></g></g></g></g><g><g><g><g><path d="M477.177,173.408c-1.28,0-2.559-0.488-3.536-1.465l-8.017-8.017c-1.953-1.952-1.953-5.118,0-7.07         c1.952-1.953,5.118-1.953,7.071,0l8.017,8.017c1.953,1.952,1.953,5.118,0,7.07         C479.736,172.92,478.457,173.408,477.177,173.408z" fill="#3F456B"/></g></g></g><g><g><g><path d="M449.834,146.046c-1.28,0-2.559-0.488-3.536-1.465l-8.017-8.018c-1.953-1.952-1.953-5.118,0-7.07         c1.954-1.953,5.119-1.952,7.071,0l8.017,8.018c1.953,1.952,1.953,5.118,0,7.07         C452.393,145.558,451.113,146.046,449.834,146.046z" fill="#3F456B"/></g></g></g></g></g><g><g><g><path d="M394.76,353.06c-0.76-2.66,0.77-5.43,3.43-6.189l0,0c2.65-0.761,5.42,0.77,6.18,3.43l0,0       c0.76,2.65-0.77,5.42-3.42,6.18l0,0c-0.46,0.141-0.93,0.2-1.38,0.2l0,0C397.39,356.68,395.39,355.25,394.76,353.06z        M388.67,334.319c-0.93-2.6,0.42-5.46,3.02-6.39l0,0c2.6-0.93,5.47,0.43,6.4,3.03l0,0c0.92,2.6-0.43,5.46-3.03,6.39l0,0       c-0.56,0.2-1.13,0.29-1.68,0.29l0,0C391.32,337.64,389.4,336.37,388.67,334.319z M381.62,315.79       c-1.04-2.561,0.21-5.471,2.77-6.5l0,0c2.56-1.03,5.48,0.21,6.5,2.77l0,0c1.03,2.561-0.21,5.48-2.77,6.51l0,0       c-0.61,0.24-1.24,0.36-1.86,0.36l0,0C384.27,318.93,382.4,317.74,381.62,315.79z M373.93,297.46       c-1.11-2.53,0.05-5.47,2.58-6.58l0,0c2.53-1.11,5.48,0.05,6.58,2.58l0,0c1.11,2.54-0.05,5.479-2.58,6.59l0,0       c-0.65,0.28-1.33,0.42-2,0.42l0,0C376.58,300.47,374.75,299.34,373.93,297.46z M365.72,279.37L365.72,279.37       c-1.2-2.49-0.15-5.48,2.34-6.67l0,0c2.49-1.2,5.48-0.15,6.67,2.34l0,0l0,0l0,0c1.2,2.489,0.15,5.479-2.34,6.68l0,0       c-0.7,0.33-1.44,0.49-2.16,0.49l0,0C368.37,282.21,366.58,281.16,365.72,279.37z" fill="#384169"/></g></g></g><g><g><g><g><g><g><path d="M327.658,393.786c-2.012,0-3.909-1.223-4.671-3.215c-0.987-2.579,0.305-5.47,2.884-6.456          l12.646-4.837c2.577-0.985,5.469,0.304,6.456,2.884c0.987,2.579-0.305,5.47-2.884,6.456l-12.646,4.837          C328.855,393.68,328.251,393.786,327.658,393.786z" fill="#3F456B"/></g></g></g></g><g><g><g><g><path d="M309.014,459.001c-2.01,0-3.905-1.22-4.668-3.208l-4.661-12.136          c-0.99-2.578,0.297-5.471,2.875-6.461c2.578-0.986,5.47,0.296,6.46,2.875l4.661,12.136c0.99,2.578-0.297,5.471-2.875,6.461          C310.216,458.894,309.61,459.001,309.014,459.001z" fill="#3F456B"/></g></g></g></g><g><g><g><g><path d="M331.846,442.703c-1.107,0-2.222-0.366-3.148-1.118l-10.377-8.425          c-2.144-1.74-2.471-4.89-0.73-7.033s4.888-2.471,7.033-0.73L335,433.821c2.144,1.74,2.471,4.89,0.73,7.033          C334.743,442.071,333.301,442.703,331.846,442.703z" fill="#3F456B"/></g></g></g></g><g><g><g><g><path d="M343.264,417.166c-0.262,0-0.527-0.021-0.794-0.063l-13.302-2.123          c-2.727-0.436-4.584-2.999-4.149-5.726c0.435-2.728,2.997-4.593,5.726-4.149l13.302,2.123          c2.727,0.436,4.584,2.999,4.149,5.726C347.802,415.413,345.678,417.166,343.264,417.166z" fill="#3F456B"/></g></g></g></g></g><g><g><g><g><g><path d="M328.924,393.399c-2.009,0-3.903-1.219-4.668-3.206c-0.991-2.577,0.295-5.471,2.872-6.462          l11.404-4.386c2.579-0.987,5.471,0.295,6.462,2.872s-0.295,5.471-2.872,6.462l-11.404,4.386          C330.128,393.292,329.521,393.399,328.924,393.399z" fill="#3F456B"/></g></g></g></g><g><g><g><g><path d="M316.284,375.533c-1.107,0-2.222-0.366-3.148-1.118c-2.144-1.74-2.471-4.89-0.73-7.033l7.854-9.675          c1.74-2.144,4.889-2.471,7.033-0.73s2.471,4.89,0.73,7.033l-7.854,9.675C319.18,374.901,317.738,375.533,316.284,375.533z" fill="#3F456B"/></g></g></g></g><g><g><g><g><path d="M296.57,367.232c-0.262,0-0.527-0.021-0.794-0.063c-2.727-0.436-4.585-2.999-4.149-5.726          l2.041-12.78c0.435-2.728,3-4.591,5.726-4.149c2.727,0.436,4.585,2.999,4.149,5.726l-2.041,12.78          C301.109,365.479,298.984,367.232,296.57,367.232z" fill="#3F456B"/></g></g></g></g><g><g><g><g><path d="M275.634,369.594c-2.01,0-3.905-1.22-4.668-3.208l-4.662-12.136          c-0.99-2.578,0.297-5.471,2.875-6.461c2.578-0.986,5.47,0.297,6.46,2.875L280.3,362.8c0.99,2.578-0.297,5.471-2.875,6.461          C276.836,369.486,276.23,369.594,275.634,369.594z" fill="#3F456B"/></g></g></g></g></g></g></g></g></svg>