<?xml version="1.0" ?><svg id="Lines" viewBox="0 0 512 512" xmlns="http://www.w3.org/2000/svg"><defs><style>.cls-1{fill:#3f456b;}</style></defs><title/><path class="cls-1" d="M166.36,383.05A39.64,39.64,0,1,1,206,343.41,39.68,39.68,0,0,1,166.36,383.05Zm0-69.28A29.64,29.64,0,1,0,196,343.41,29.68,29.68,0,0,0,166.36,313.77Z"/><g data-name="&lt;编组&gt;" id="_编组_"><path class="cls-1" d="M178.76,500.83H153.42c-7.88,0-10.27-7-11.17-9.61a5.12,5.12,0,0,1-.15-.56l-6.34-29.32-2.5-.65-20,22.12a2.73,2.73,0,0,1-.34.34c-5,4.56-9.89,5.5-14.55,2.82l-22-12.67c-6.84-3.95-5.4-11.2-4.86-13.93a5.54,5.54,0,0,1,.14-.55l9-28.05c-.74-.71-1.47-1.43-2.18-2.16l-27.95,9-.47.13c-6.61,1.43-11.32-.2-14-4.86L23.44,411c-4-6.82.92-12.38,2.75-14.48a3.87,3.87,0,0,1,.4-.41l21.68-19.65c-.24-.9-.49-1.83-.73-2.79L19,367.47a3.45,3.45,0,0,1-.46-.12c-6.26-2-9.44-5.75-9.44-11.2V330.81c0-8,6.78-10.3,9.33-11.18a5.12,5.12,0,0,1,.56-.15l28.58-6.22c.26-1,.53-2,.81-3l-21.8-19.73c-.12-.11-.23-.22-.34-.34-4.48-4.92-5.39-9.79-2.68-14.48l12.67-21.95c4-6.88,11.11-5.47,13.79-4.94a4.94,4.94,0,0,1,.55.15L79,258.08c.6-.61,1.22-1.21,1.83-1.81l-9.18-28.51a3.62,3.62,0,0,1-.13-.47c-1.41-6.51.24-11.17,4.93-13.88l21.94-12.66c6.88-4,12.35.81,14.41,2.61.14.13.28.26.41.4l20.51,22.61,1.89-.49,6.29-29.42A3.59,3.59,0,0,1,142,196c2.11-6.63,5.88-10,11.21-10h25.34c7.79,0,10.24,7.18,11.17,9.89a5.12,5.12,0,0,1,.15.56l6.46,29.89,1.65.45,20.65-22.9a3.85,3.85,0,0,1,.35-.35c5.16-4.69,10.11-5.72,14.71-3.07l21.94,12.67c6.74,3.89,5.27,11.36,4.72,14.18a5.12,5.12,0,0,1-.15.56l-9.56,29.73.82.82,29.83-9.67.48-.13c6.83-1.48,11.64.1,14.29,4.7l12.68,21.94c3.9,6.77-1.1,12.49-3,14.64a5.29,5.29,0,0,1-.41.41l-23.16,21c.14.45.27.91.41,1.38l31,6.54.47.13c2.64.83,10.66,3.38,10.66,11.2v25.34c0,7.57-7.4,10.1-10.55,11.18a5.47,5.47,0,0,1-.58.15l-31,6.59c-.1.37-.19.75-.29,1.12l23.21,20.92a3.85,3.85,0,0,1,.35.35c4.78,5.24,5.86,10.22,3.22,14.79L296.38,433c-3.87,6.69-11.46,5.19-14.32,4.63l-.57-.15L252.16,428,251,429.2l9.5,29.26a2.85,2.85,0,0,1,.13.48c1.51,6.93,0,11.78-4.6,14.42L234.08,486c-6.7,3.87-12.53-1.23-14.72-3.15a4.07,4.07,0,0,1-.42-.41l-20.2-22.31-2.24.62-6.41,29.87a3.62,3.62,0,0,1-.13.47C187.91,497.57,184.14,500.83,178.76,500.83Zm-25.69-10a3.16,3.16,0,0,0,.35,0h25.34a.87.87,0,0,0,.36,0s.53-.33,1.25-2.49l7-32.66a5,5,0,0,1,3.73-3.81c2.58-.62,5.17-1.33,7.7-2.14A5,5,0,0,1,204,451.1l22.12,24.44c1.88,1.61,2.61,1.86,2.81,1.9l.12-.07L251,464.7l.11-.08h0s.33-.67-.22-3.32l-10.38-32a5,5,0,0,1,1.31-5.17c1.78-1.69,3.51-3.45,5.15-5.25a5,5,0,0,1,5.22-1.38l32.06,10.32c2.42.46,3.19.31,3.38.24l.07-.11L300.39,406a.49.49,0,0,0,.06-.12h0s-.06-.75-1.85-2.76l-25.34-22.83a5,5,0,0,1-1.44-5.13c.66-2.26,1.25-4.51,1.74-6.68a5,5,0,0,1,3.84-3.79l33.79-7.17c2.48-.87,3.26-1.41,3.5-1.66V330.66c-.19-.2-.92-.83-3.45-1.66l-33.74-7.13a5,5,0,0,1-3.83-3.76c-.46-2-1.06-3.93-1.7-6l-.27-.87a5,5,0,0,1,1.42-5.17l25.29-22.95c1.55-1.81,1.75-2.49,1.77-2.65,0,0,0-.08-.11-.2l-12.67-21.94a.59.59,0,0,0-.12-.17s-.63-.33-3.16.2l-32.57,10.55a5,5,0,0,1-5.21-1.36c-1.5-1.62-3.12-3.26-4.84-4.88a5,5,0,0,1-1.33-5.16l10.42-32.4c.43-2.34.28-3,.22-3.2l-.18-.11L228.7,209.13l-.18-.09s-.72,0-2.63,1.75l-22.58,25a5,5,0,0,1-5.19,1.43c-2.44-.75-4.85-1.41-7.16-1.95a5,5,0,0,1-3.74-3.81l-7.05-32.64c-.78-2.21-1.26-2.74-1.39-2.84H153.22a.75.75,0,0,0-.23,0h0s-.59.39-1.38,2.78l-6.89,32.27a5,5,0,0,1-3.81,3.84c-2.65.59-5.07,1.21-7.41,1.9a5,5,0,0,1-5.12-1.43L106,210.71a6.37,6.37,0,0,0-2.22-1.5,3.83,3.83,0,0,0-.4.2L81.44,222.07a1.5,1.5,0,0,0-.36.27s-.27.55.15,2.6l10.09,31.28a5,5,0,0,1-1.41,5.24c-2,1.79-3.94,3.73-5.84,5.76a5,5,0,0,1-5.17,1.34l-31.11-10a6.07,6.07,0,0,0-2.66-.18,2.34,2.34,0,0,0-.25.37L32.21,280.7a1.28,1.28,0,0,0-.17.41s0,.6,1.43,2.17l24,21.68a5,5,0,0,1,1.41,5.22c-.87,2.74-1.64,5.58-2.29,8.42a5,5,0,0,1-3.81,3.77L21.4,329.19a6,6,0,0,0-2.27,1.11,2.36,2.36,0,0,0,0,.51v25.34c0,.38.06.51.07.51s.31.47,2.18,1.09l31.4,6.77a5,5,0,0,1,3.82,3.79c.7,3.1,1.41,5.79,2.17,8.22a5,5,0,0,1-1.42,5.2L33.53,403.27a6.66,6.66,0,0,0-1.59,2.38s0,.11.15.31l12.67,22a1.21,1.21,0,0,0,.22.29s.54.29,2.78-.16l30.68-9.91a5,5,0,0,1,5.21,1.36c2,2.12,4,4.18,6.15,6.1a5,5,0,0,1,1.39,5.23l-9.87,30.77a6.6,6.6,0,0,0-.2,2.85h0s.1.08.3.2l21.94,12.66a1.23,1.23,0,0,0,.33.15s.63,0,2.33-1.54l21.91-24.23a5,5,0,0,1,5.14-1.44c2.63.79,5.32,1.48,8,2.07a5,5,0,0,1,3.81,3.82l6.94,32.12a6.43,6.43,0,0,0,1.26,2.56Z"/></g><path class="cls-1" d="M166.36,428.08A84.67,84.67,0,1,1,251,343.41,84.76,84.76,0,0,1,166.36,428.08Zm0-159.34A74.67,74.67,0,1,0,241,343.41,74.76,74.76,0,0,0,166.36,268.74Z"/><g data-name="&lt;编组&gt;" id="_编组_2"><g data-name="&lt;编组&gt;" id="_编组_3"><path class="cls-1" d="M420.22,483.56H397.71c-7.32,0-9.59-6.66-10.45-9.16-.06-.19-.12-.37-.16-.56l-4.31-20L365.6,465a3.7,3.7,0,0,1-.43.25c-5.73,2.95-10.42,2.66-13.95-.87L335.3,448.45c-5.18-5.19-2.08-11.5-.91-13.87a4.16,4.16,0,0,1,.28-.51l11.09-17.19-20-4.28a4.05,4.05,0,0,1-.47-.12c-6.14-2-9.26-5.48-9.26-10.49V379.48c0-7.33,6.66-9.59,9.17-10.44a3.47,3.47,0,0,1,.55-.16l20-4.32-11.13-17.19a4.23,4.23,0,0,1-.25-.42c-2.95-5.72-2.67-10.42.86-14l15.92-15.92c5.19-5.18,11.5-2.08,13.87-.91a4.08,4.08,0,0,1,.5.29l17.2,11.08,4.27-20c0-.16.08-.32.13-.48,1.95-6.14,5.48-9.26,10.49-9.26h22.5c7.32,0,9.6,6.66,10.46,9.16a5.12,5.12,0,0,1,.15.56l4.32,20,17.18-11.13a4.49,4.49,0,0,1,.42-.24c5.73-3,10.43-2.68,14,.86l15.91,15.92c5.19,5.17,2.09,11.49.92,13.86a5.14,5.14,0,0,1-.29.51L472,364.45l20,4.28a3.74,3.74,0,0,1,.48.12c6.14,2,9.26,5.5,9.26,10.49v22.5c0,7.32-6.66,9.6-9.16,10.46l-.57.16-20,4.31L483.21,434a4.19,4.19,0,0,1,.24.42c3,5.73,2.68,10.42-.86,14l-15.91,15.92c-5.19,5.18-11.5,2.08-13.88.91a5,5,0,0,1-.5-.29L435.11,453.8l-4.28,20a4.21,4.21,0,0,1-.12.48C428.75,480.44,425.22,483.56,420.22,483.56Zm-22.45-10h22.39a7,7,0,0,0,.95-2.08l5.73-26.85a5,5,0,0,1,7.6-3.16l23,14.85a9.16,9.16,0,0,0,2.18.82l15.82-15.82a6.91,6.91,0,0,0-.8-2.14l-14.93-23.05a5,5,0,0,1,3.14-7.6l26.78-5.78a9.18,9.18,0,0,0,2.13-1V379.4a7.18,7.18,0,0,0-2.08-.95l-26.85-5.73a5,5,0,0,1-3.16-7.6l14.84-23a9.1,9.1,0,0,0,.83-2.17l-15.83-15.84a7.8,7.8,0,0,0-2.14.8l-23,14.93a5,5,0,0,1-7.61-3.14L421,309.9a9.38,9.38,0,0,0-1-2.13H397.62a7.48,7.48,0,0,0-.94,2.07L391,336.7a5,5,0,0,1-7.6,3.16l-23-14.85a9,9,0,0,0-2.18-.82L342.31,340a7.33,7.33,0,0,0,.8,2.14L358,365.2a5,5,0,0,1-3.14,7.6l-26.77,5.79a9.38,9.38,0,0,0-2.13,1v22.38a7,7,0,0,0,2.07.95l26.87,5.74a5,5,0,0,1,3.15,7.6l-14.85,23a8.84,8.84,0,0,0-.82,2.18l15.82,15.83a7.57,7.57,0,0,0,2.14-.8l23-14.93a5,5,0,0,1,7.61,3.14l5.78,26.77A9.89,9.89,0,0,0,397.77,473.56Z"/></g></g><path class="cls-1" d="M409.24,431.61a40.38,40.38,0,1,1,40.39-40.38A40.43,40.43,0,0,1,409.24,431.61Zm0-70.76a30.38,30.38,0,1,0,30.39,30.38A30.42,30.42,0,0,0,409.24,360.85Z"/><path class="cls-1" d="M423,287c-19.79,0-36-12.24-39.47-29.75-3.77-19.17,7.16-34.19,16.8-47.43a142.83,142.83,0,0,0,9.7-14.47c3.46-6.25,7.37-13.32,8.93-20.6a5,5,0,0,1,9.78,0c1.41,6.59,5,13,8.4,19.17l.79,1.43a144.53,144.53,0,0,0,9.7,14.47c9.64,13.23,20.57,28.23,16.8,47.4C461,274.76,444.71,287,424.84,287l-1.77,0Zm.93-96.6c-1.64,3.45-3.45,6.71-5.15,9.79a153.31,153.31,0,0,1-10.36,15.51c-9.26,12.72-18,24.73-15.07,39.62S410.37,277,423,277l1.8,0c17.67,0,27.71-10.89,29.83-21.69,2.93-14.88-5.81-26.88-15.06-39.58a151.88,151.88,0,0,1-10.37-15.52l-.79-1.42C426.94,196.14,425.39,193.35,424,190.42Z"/><path class="cls-1" d="M295.37,159.72a11.15,11.15,0,0,1-2.14-.2l-16.77-3.21a5,5,0,1,1,1.88-9.82l16.77,3.21a1.32,1.32,0,0,0,.54,0l7.42-38.78a1.33,1.33,0,0,0-.5-.21l-16.77-3.21a5,5,0,1,1,1.88-9.82l16.77,3.21c5.7,1.09,9.52,6.27,8.52,11.54l-7.56,39.52A10,10,0,0,1,295.37,159.72Zm7.82-48.7h0Z"/><path class="cls-1" d="M270.23,170.82a11.16,11.16,0,0,1-2.14-.21l-15.64-3a5,5,0,1,1,1.88-9.82l15.64,3a1.17,1.17,0,0,0,.54,0l13.2-69a1.33,1.33,0,0,0-.5-.21l-15.64-3a5,5,0,1,1,1.88-9.82l15.64,3c5.71,1.09,9.53,6.27,8.52,11.54L280.27,163A10,10,0,0,1,270.23,170.82Zm13.6-78.92h0Z"/><path class="cls-1" d="M250.88,180.84a4.59,4.59,0,0,1-.73-.06L83.92,156.39l-.21,1.1a12.47,12.47,0,0,1-7.15,8.76,18.69,18.69,0,0,1-11.45,1.31l-1.4-.27a18.63,18.63,0,0,1-10.16-5.44,12.45,12.45,0,0,1-3.42-10.78l25-130.79a12.43,12.43,0,0,1,7.15-8.75,18.65,18.65,0,0,1,11.44-1.31l1.41.27a18.6,18.6,0,0,1,10.15,5.44,12.44,12.44,0,0,1,3.42,10.78l-.21,1.1L272,66.5a5,5,0,0,1,3.76,5.81l-20,104.46A5,5,0,0,1,250.88,180.84Zm-171-35.09a4.48,4.48,0,0,1,.73.05l166.24,24.39,18.18-95.06L101.55,36.44a5,5,0,0,1-3.76-5.81l1.12-5.8a2.75,2.75,0,0,0-.93-2.1,8.79,8.79,0,0,0-4.7-2.42L91.88,20a8.71,8.71,0,0,0-5.26.51A2.73,2.73,0,0,0,85,22.16L60,153a2.7,2.7,0,0,0,.92,2.1,8.71,8.71,0,0,0,4.7,2.41l1.41.27a8.73,8.73,0,0,0,5.26-.5,2.74,2.74,0,0,0,1.63-1.61h0L75,149.81A5,5,0,0,1,79.9,145.75Z"/><path class="cls-1" d="M421.27,165.68a4.82,4.82,0,0,1-.65,0L301,150a5,5,0,0,1,1.3-9.92l115,15,.59-3.08L305.44,123.57a5,5,0,0,1,2.46-9.7l117,29.63a5,5,0,0,1,3.68,5.78l-2.36,12.34A5,5,0,0,1,421.27,165.68Z"/><path class="cls-1" d="M161.2,80.06c-1.76,0-3.53,0-5.32-.06a498.71,498.71,0,0,1-85.63-9.79,5,5,0,1,1,2.17-9.76A487.24,487.24,0,0,0,156.12,70c41.64,1,80-10.66,80.41-10.78a5,5,0,0,1,2.94,9.56C237.91,69.26,202.31,80.06,161.2,80.06Z"/></svg>