<?xml version="1.0" ?><svg viewBox="0 0 512 512" xmlns="http://www.w3.org/2000/svg"><defs><style>.cls-1{fill:#3f456b;}</style></defs><title/><g id="Lines"><path class="cls-1" d="M256,260.5a5,5,0,0,1-5-5V97a5,5,0,0,1,10,0V255.5A5,5,0,0,1,256,260.5Z"/><path class="cls-1" d="M117.79,501.82H93c-14.13,0-25.63-11.77-25.63-26.24V446.94a5,5,0,0,1,10,0v28.64c0,9,7,16.24,15.63,16.24h24.77c8.62,0,15.63-7.28,15.63-16.24V446.94a5,5,0,0,1,10,0v28.64C143.42,490.05,131.92,501.82,117.79,501.82Z"/><path class="cls-1" d="M418.3,501.82H393.54c-14.13,0-25.63-11.77-25.63-26.24v-27a5,5,0,0,1,10,0v27c0,9,7,16.24,15.63,16.24H418.3c8.62,0,15.64-7.28,15.64-16.24v-27a5,5,0,0,1,10,0v27C443.94,490.05,432.44,501.82,418.3,501.82Z"/><path class="cls-1" d="M49.32,259.5a5,5,0,0,1-5-5V96c0-1.29-.27-33.9,24.14-58.71C86,19.51,111.36,10.49,144,10.49H368c28.37,0,66.62,7.32,87.71,42.17A90.83,90.83,0,0,1,468.61,95V253.67a5,5,0,1,1-10,0V95a82.12,82.12,0,0,0-11.67-37.52c-15-24.54-41.6-37-78.94-37H144c-29.85,0-52.87,8-68.41,23.81C54.08,66.16,54.32,95.62,54.32,95.92V254.5A5,5,0,0,1,49.32,259.5Z"/><path class="cls-1" d="M442.78,451.94H70.15c-7.41,0-13.45-2.42-18-7.2-8.29-8.8-8-22.56-7.88-24.37V293.1a5,5,0,0,1,10,0V420.49c0,.11,0,.21,0,.31s-.53,11.07,5.2,17.12c2.56,2.71,6,4,10.64,4H442.78c4.61,0,8.1-1.32,10.67-4.05,5.67-6,5.18-17,5.17-17.09s0-.2,0-.31V293.1a5,5,0,0,1,10,0V420.37c.08,1.81.41,15.57-7.88,24.37C456.24,449.52,450.2,451.94,442.78,451.94Z"/><path class="cls-1" d="M463,101H50a5,5,0,0,1,0-10H463a5,5,0,0,1,0,10Z"/><path class="cls-1" d="M463,404H50a5,5,0,0,1,0-10H463a5,5,0,0,1,0,10Z"/><path class="cls-1" d="M193,450a5,5,0,0,1-5-5V399a5,5,0,0,1,10,0v46A5,5,0,0,1,193,450Z"/><path class="cls-1" d="M321,450a5,5,0,0,1-5-5V399a5,5,0,0,1,10,0v46A5,5,0,0,1,321,450Z"/><path class="cls-1" d="M23.5,239A14.51,14.51,0,0,1,9,224.5v-63a14.5,14.5,0,0,1,29,0v63A14.51,14.51,0,0,1,23.5,239Zm0-82a4.51,4.51,0,0,0-4.5,4.5v63a4.5,4.5,0,0,0,9,0v-63A4.51,4.51,0,0,0,23.5,157Z"/><path class="cls-1" d="M24,157a5,5,0,0,1-5-4.51c0-.49-1.08-12,6.73-20.6C31.09,126,39,123,49.32,123a5,5,0,0,1,0,10c-7.35,0-12.79,1.89-16.16,5.6C28.37,143.88,29,151.44,29,151.51A5,5,0,0,1,24.49,157Z"/><path class="cls-1" d="M489.5,239A14.51,14.51,0,0,1,475,224.5v-63a14.5,14.5,0,0,1,29,0v63A14.51,14.51,0,0,1,489.5,239Zm0-82a4.51,4.51,0,0,0-4.5,4.5v63a4.5,4.5,0,0,0,9,0v-63A4.51,4.51,0,0,0,489.5,157Z"/><path class="cls-1" d="M489,157l-.5,0a5,5,0,0,1-4.49-5.44c0-.16.58-7.76-4.23-13-3.38-3.68-8.8-5.54-16.11-5.54a5,5,0,0,1,0-10c10.3,0,18.23,3,23.57,8.89,7.81,8.61,6.77,20.11,6.73,20.6A5,5,0,0,1,489,157Z"/><path class="cls-1" d="M463.68,321.64a5,5,0,1,1,0-10c7.35,0,12.79-1.88,16.16-5.6,4.79-5.28,4.19-12.83,4.18-12.91a5,5,0,0,1,10-1c0,.49,1.08,12-6.73,20.6C481.91,318.65,474,321.64,463.68,321.64Z"/><path class="cls-1" d="M49.32,321.64c-10.3,0-18.23-3-23.57-8.89-7.81-8.6-6.77-20.11-6.73-20.6a5,5,0,0,1,10,1c0,.16-.58,7.76,4.23,13,3.38,3.68,8.8,5.54,16.11,5.54a5,5,0,0,1,0,10Z"/><path class="cls-1" d="M97,84a21,21,0,1,1,21-21A21,21,0,0,1,97,84Zm0-32a11,11,0,1,0,11,11A11,11,0,0,0,97,52Z"/><path class="cls-1" d="M145,84a21,21,0,1,1,21-21A21,21,0,0,1,145,84Zm0-32a11,11,0,1,0,11,11A11,11,0,0,0,145,52Z"/><path class="cls-1" d="M417,84a21,21,0,1,1,21-21A21,21,0,0,1,417,84Zm0-32a11,11,0,1,0,11,11A11,11,0,0,0,417,52Z"/><path class="cls-1" d="M369,84a21,21,0,1,1,21-21A21,21,0,0,1,369,84Zm0-32a11,11,0,1,0,11,11A11,11,0,0,0,369,52Z"/><path class="cls-1" d="M79,428.86H78a5,5,0,0,1,0-10h1a5,5,0,0,1,0,10Z"/><path class="cls-1" d="M431,428.86h-1a5,5,0,0,1,0-10h1a5,5,0,0,1,0,10Z"/><path class="cls-1" d="M177,101a5,5,0,0,1-5-5V17a5,5,0,0,1,10,0V96A5,5,0,0,1,177,101Z"/><path class="cls-1" d="M336,101a5,5,0,0,1-5-5V17a5,5,0,0,1,10,0V96A5,5,0,0,1,336,101Z"/><path class="cls-1" d="M81,260.5a5,5,0,0,1-5-5V97.1a5,5,0,0,1,10,0V255.5A5,5,0,0,1,81,260.5Z"/><path class="cls-1" d="M431,259.4a5,5,0,0,1-5-5V96a5,5,0,0,1,10,0V254.4A5,5,0,0,1,431,259.4Z"/><path class="cls-1" d="M64,265a5,5,0,0,1-2.29-9.45,41.89,41.89,0,0,1,19.4-4.28H430.89a42.78,42.78,0,0,1,17,3.22,5,5,0,1,1-3.88,9.21,32.89,32.89,0,0,0-12.75-2.44H80.7a32,32,0,0,0-14.41,3.18A4.92,4.92,0,0,1,64,265Z"/><path class="cls-1" d="M297.67,60H215.26a5,5,0,0,1,0-10h82.41a5,5,0,0,1,0,10Z"/><path class="cls-1" d="M336.41,404a5,5,0,0,1-5-5V336a2.62,2.62,0,0,1,0-.28c0-.11.5-12.08-6.95-19.91-4.51-4.74-11.2-7.14-19.9-7.14H208.33c-8.72,0-15.43,2.42-19.94,7.19-7.36,7.79-6.9,19.74-6.9,19.86a2.62,2.62,0,0,1,0,.28v63a5,5,0,0,1-10,0V336.11c-.07-1.84-.33-16.58,9.62-27.12,6.47-6.85,15.63-10.32,27.21-10.32h96.24c11.59,0,20.74,3.47,27.22,10.32,9.95,10.54,9.69,25.28,9.62,27.12V399A5,5,0,0,1,336.41,404Z"/><path class="cls-1" d="M137.67,375.62H49.86a5,5,0,0,1,0-10h87.81c6.32,0,11.66-7.14,11.66-15.61v-4.95c0-8.46-5.34-15.61-11.66-15.61h-87a5,5,0,1,1,0-10h87c11.94,0,21.66,11.49,21.66,25.61V350C159.33,364.14,149.61,375.62,137.67,375.62Z"/><path class="cls-1" d="M79.29,375.46a5,5,0,0,1-5-5v-46a5,5,0,0,1,10,0v46A5,5,0,0,1,79.29,375.46Z"/><path class="cls-1" d="M463.63,375.62h-87.8c-11.94,0-21.66-11.48-21.66-25.61v-4.95c0-14.12,9.72-25.61,21.66-25.61h87a5,5,0,0,1,0,10h-87c-6.32,0-11.66,7.15-11.66,15.61V350c0,8.47,5.34,15.61,11.66,15.61h87.8a5,5,0,0,1,0,10Z"/><path class="cls-1" d="M434.21,375.46a5,5,0,0,1-5-5v-46a5,5,0,0,1,10,0v46A5,5,0,0,1,434.21,375.46Z"/><path class="cls-1" d="M55,297.66H22.71a14,14,0,0,1-14-14V264a14,14,0,0,1,14-14H55a14.05,14.05,0,0,1,14,14v19.68A14,14,0,0,1,55,297.66ZM22.71,259.92a4,4,0,0,0-4,4v19.68a4,4,0,0,0,4,4H55a4,4,0,0,0,4-4V264a4,4,0,0,0-4-4Z"/><path class="cls-1" d="M487.27,297.66H455a14,14,0,0,1-14-14V264a14,14,0,0,1,14-14h32.27a14,14,0,0,1,14,14v19.68A14,14,0,0,1,487.27,297.66ZM455,259.92a4,4,0,0,0-4,4v19.68a4,4,0,0,0,4,4h32.27a4,4,0,0,0,4-4V264a4,4,0,0,0-4-4Z"/><path class="cls-1" d="M208.67,308.67a5,5,0,0,1-5-5V256.26a5,5,0,0,1,10,0v47.41A5,5,0,0,1,208.67,308.67Z"/><path class="cls-1" d="M304.5,308.67a5,5,0,0,1-5-5V256.26a5,5,0,0,1,10,0v47.41A5,5,0,0,1,304.5,308.67Z"/></g><g id="Outline"><path class="cls-1" d="M293.62,422.74a5,5,0,0,1,5-5h0a5,5,0,0,1,5,5h0a5,5,0,0,1-5,5h0A5,5,0,0,1,293.62,422.74Zm-20,0a5,5,0,0,1,5-5h0a5,5,0,0,1,5,5h0a5,5,0,0,1-5,5h0A5,5,0,0,1,273.62,422.74Zm-20,0a5,5,0,0,1,5-5h0a5,5,0,0,1,5,5h0a5,5,0,0,1-5,5h0A5,5,0,0,1,253.62,422.74Zm-20,0a5,5,0,0,1,5-5h0a5,5,0,0,1,5,5h0a5,5,0,0,1-5,5h0A5,5,0,0,1,233.62,422.74Zm-20,0a5,5,0,0,1,5-5h0a5,5,0,0,1,5,5h0a5,5,0,0,1-5,5h0A5,5,0,0,1,213.62,422.74Z"/></g></svg>