<?xml version="1.0" ?><svg viewBox="0 0 512 512" xmlns="http://www.w3.org/2000/svg"><defs><style>.cls-1{fill:#3f456b;}</style></defs><title/><g id="Lines"><path class="cls-1" d="M256,501A245,245,0,0,1,82.76,82.77,245,245,0,0,1,429.24,429.24,243.38,243.38,0,0,1,256,501Zm0-480A235,235,0,0,0,89.84,422.17,235,235,0,0,0,422.17,89.84,233.48,233.48,0,0,0,256,21Z"/><path class="cls-1" d="M255,261a5,5,0,0,1-5-5V87a5,5,0,0,1,10,0V256A5,5,0,0,1,255,261Z"/><path class="cls-1" d="M382,335a5,5,0,0,1-2.52-.68l-127-74a5,5,0,0,1,5-8.64l127,74A5,5,0,0,1,382,335Z"/></g><g id="Outline"><path class="cls-1" d="M468.88,261H451a5,5,0,0,1,0-10h17.89a5,5,0,0,1,0,10Z"/><path class="cls-1" d="M62.16,261H44.28a5,5,0,1,1,0-10H62.16a5,5,0,0,1,0,10Z"/><path class="cls-1" d="M256.58,473.31a5,5,0,0,1-5-5V451a5,5,0,0,1,10,0v17.31A5,5,0,0,1,256.58,473.31Z"/><path class="cls-1" d="M256.58,64.86a5,5,0,0,1-5-5V43.71a5,5,0,0,1,10,0V59.86A5,5,0,0,1,256.58,64.86Z"/><path class="cls-1" d="M425,163.8a5,5,0,0,1-2.5-9.33l15.48-8.94a5,5,0,0,1,5,8.66l-15.48,8.94A5,5,0,0,1,425,163.8Z"/><path class="cls-1" d="M72.72,367.16a5,5,0,0,1-2.5-9.33l15.49-8.94a5,5,0,1,1,5,8.66l-15.49,8.94A5,5,0,0,1,72.72,367.16Z"/><path class="cls-1" d="M362.73,444.87a5,5,0,0,1-4.33-2.5l-8.66-15a5,5,0,1,1,8.66-5l8.66,15a5,5,0,0,1-4.33,7.5Z"/><path class="cls-1" d="M158.51,91.14a5,5,0,0,1-4.34-2.5l-8.07-14a5,5,0,1,1,8.66-5l8.07,14a5,5,0,0,1-4.32,7.5Z"/><path class="cls-1" d="M353.78,92.64a5,5,0,0,1-4.32-7.5l8.94-15.49a5,5,0,0,1,8.66,5l-8.94,15.49A5,5,0,0,1,353.78,92.64Z"/><path class="cls-1" d="M150.42,444.87a5,5,0,0,1-4.32-7.5L155,421.88a5,5,0,0,1,8.66,5l-8.94,15.49A5,5,0,0,1,150.42,444.87Z"/><path class="cls-1" d="M440.43,367.16a5,5,0,0,1-2.5-.67l-15-8.66a5,5,0,0,1,5-8.66l15,8.66a5,5,0,0,1-2.5,9.33Z"/><path class="cls-1" d="M86.7,162.94a4.94,4.94,0,0,1-2.49-.68l-14-8.07a5,5,0,1,1,5-8.66l14,8.07a5,5,0,0,1-2.51,9.34Z"/></g></svg>