<?xml version="1.0" ?><svg viewBox="0 0 512 512" xmlns="http://www.w3.org/2000/svg"><defs><style>.cls-1{fill:#3f456b;}</style></defs><title/><g id="Lines"><path class="cls-1" d="M257,372c-99.8,0-181-81.2-181-181S157.2,10,257,10,438,91.2,438,191,356.8,372,257,372Zm0-352C162.71,20,86,96.71,86,191s76.71,171,171,171,171-76.71,171-171S351.29,20,257,20Z"/><path class="cls-1" d="M257,340c-82.16,0-149-66.84-149-149S174.84,42,257,42s149,66.84,149,149S339.16,340,257,340Zm0-288c-76.64,0-139,62.35-139,139s62.36,139,139,139,139-62.35,139-139S333.64,52,257,52Z"/><path class="cls-1" d="M257,406A215,215,0,0,1,42,191a5,5,0,0,1,10,0c0,113,92,205,205,205s205-92,205-205a5,5,0,0,1,10,0A215,215,0,0,1,257,406Z"/><path class="cls-1" d="M320,501H192a5,5,0,0,1-5-5c0-1.51.78-37,69-37,28.52,0,48.76,6,60.14,17.7,8.91,9.19,8.89,18.43,8.86,19.46A5,5,0,0,1,320,501ZM198.29,491H313.85a23,23,0,0,0-5.18-7.64c-6.55-6.55-21-14.36-52.67-14.36C213.52,469,201.62,483.15,198.29,491Z"/><path class="cls-1" d="M257,468a5,5,0,0,1-5-5V401a5,5,0,0,1,10,0v62A5,5,0,0,1,257,468Z"/><path class="cls-1" d="M467,195a20,20,0,1,1,20-20A20,20,0,0,1,467,195Zm0-30a10,10,0,1,0,10,10A10,10,0,0,0,467,165Z"/><path class="cls-1" d="M47,195a20.5,20.5,0,1,1,20.5-20.5A20.53,20.53,0,0,1,47,195Zm0-31a10.5,10.5,0,1,0,10.5,10.5A10.51,10.51,0,0,0,47,164Z"/><path class="cls-1" d="M65,402a37,37,0,1,1,37-37A37,37,0,0,1,65,402Zm0-64a27,27,0,1,0,27,27A27,27,0,0,0,65,338Z"/><path class="cls-1" d="M65,484a37,37,0,1,1,37-37A37,37,0,0,1,65,484Zm0-64a27,27,0,1,0,27,27A27,27,0,0,0,65,420Z"/><path class="cls-1" d="M145,402a37,37,0,0,1,0-74,50.81,50.81,0,0,1,10.16,1.14,5,5,0,1,1-2.32,9.72A42.1,42.1,0,0,0,145,338a27,27,0,1,0,19.63,8.46,5,5,0,1,1,7.26-6.87A37,37,0,0,1,145,402Z"/><path class="cls-1" d="M145,484a37,37,0,1,1,37-37A37,37,0,0,1,145,484Zm0-64a27,27,0,1,0,27,27A27,27,0,0,0,145,420Z"/><path class="cls-1" d="M225,402a37,37,0,0,1-35.36-47.93A5,5,0,0,1,199.2,357,27,27,0,1,0,252,366.69a5,5,0,0,1,10,.61A37,37,0,0,1,225,402Z"/><path class="cls-1" d="M206,477.76a5,5,0,0,1-3-1A37,37,0,1,1,262,447a36.51,36.51,0,0,1-3.79,16.32,5,5,0,1,1-9-4.42A26.69,26.69,0,0,0,252,447a27,27,0,1,0-43,21.74,5,5,0,0,1-3,9Z"/><path class="cls-1" d="M192,501H26a15.13,15.13,0,0,1-15-15.23V325.23A15.13,15.13,0,0,1,26,310H130.42a5,5,0,0,1,0,10H26a5.12,5.12,0,0,0-5,5.23V485.77A5.12,5.12,0,0,0,26,491H192a5,5,0,0,1,0,10Z"/><path class="cls-1" d="M272,469a5,5,0,0,1-5-5V367a5,5,0,0,1,10,0v97A5,5,0,0,1,272,469Z"/><path class="cls-1" d="M450,406.58h-.27a5,5,0,0,1-4.72-5.26c.2-3.82,5-93.76,7.08-104.63,2.21-11.84,10.11-14.12,14.3-13.67,3.81.19,10.35,3.21,12.5,13.58,2,9.69,6.59,94.07,7.1,103.66a5,5,0,1,1-10,.53c-2-37.35-5.49-95.38-6.9-102.16-.82-3.91-2.36-5.33-3.26-5.6-.39.07-.05.08-.5,0-1.15.07-2.68,1.55-3.44,5.56C460.32,307,456.38,376,455,401.85A5,5,0,0,1,450,406.58Zm15.25-113.64Z"/><path class="cls-1" d="M492,443H441a5,5,0,0,1-5-5V411.58a15,15,0,0,1,15-15h31a15,15,0,0,1,15,15V438A5,5,0,0,1,492,443Zm-46-10h41V411.58a5,5,0,0,0-5-5H451a5,5,0,0,0-5,5Z"/><path class="cls-1" d="M504,501H427a5,5,0,0,1-5-5c0-33.91,14-59.38,14.64-60.44a5,5,0,0,1,8.72,4.88A126.87,126.87,0,0,0,432.11,491h66.82c-1-32.72-11.12-50.26-11.23-50.44a5,5,0,0,1,8.59-5.13c.52.86,12.71,21.63,12.71,60.57A5,5,0,0,1,504,501Z"/><path class="cls-1" d="M427,501H320a5,5,0,0,1,0-10H427a5,5,0,0,1,0,10Z"/><path class="cls-1" d="M304,478.13a5,5,0,0,1-5-5V434a15,15,0,0,1,15-15H440a5,5,0,0,1,0,10H314a5,5,0,0,0-5,5v39.13A5,5,0,0,1,304,478.13Z"/><path class="cls-1" d="M398,429a5,5,0,0,1-5-5V399a5,5,0,0,0-5-5H366a5,5,0,0,0-5,5v25a5,5,0,0,1-10,0V399a15,15,0,0,1,15-15h22a15,15,0,0,1,15,15v25A5,5,0,0,1,398,429Z"/><path class="cls-1" d="M377,412a5,5,0,0,1-5-5v-1a5,5,0,0,1,10,0v1A5,5,0,0,1,377,412Z"/><path class="cls-1" d="M452.5,124a5,5,0,0,1-4.88-3.91c-.09-.39-9.36-39.63-44.21-47.44a5,5,0,0,1,.15-9.79c1.6-.31,39.24-8.06,44-47.46a5,5,0,0,1,4.85-4.4h.11a5,5,0,0,1,4.93,4.18,74.68,74.68,0,0,0,8.38,22.06c8.41,14.56,20.35,23.17,35.48,25.59a5,5,0,0,1,.23,9.84c-1.55.32-38.2,8.55-44.08,47.08a5,5,0,0,1-4.77,4.25ZM419.6,67.82c17.1,8.46,26.94,23.37,32.27,34.74a64.52,64.52,0,0,1,24.29-29.31,75.28,75.28,0,0,1,8.66-5C473.44,63.08,464,54.17,457,41.94A83.53,83.53,0,0,1,453,34a62.36,62.36,0,0,1-23.72,28.41A73.94,73.94,0,0,1,419.6,67.82Z"/></g><g id="Outline"><path class="cls-1" d="M207.5,245.5A5,5,0,0,1,204,237l99-99A5,5,0,0,1,310,145l-99,99A5,5,0,0,1,207.5,245.5Z"/><path class="cls-1" d="M247.5,241.5A5,5,0,0,1,244,233l55.5-55.5a5,5,0,0,1,7.08,7.08L251,240A5,5,0,0,1,247.5,241.5Z"/></g></svg>