<?xml version="1.0" ?><svg id="图层_1" style="enable-background:new 0 0 512 512;" version="1.1" viewBox="0 0 512 512" xml:space="preserve" xmlns="http://www.w3.org/2000/svg" xmlns:xlink="http://www.w3.org/1999/xlink"><style type="text/css">
	.st0{fill:#3F456B;}
</style><title/><g id="Lines"><path class="st0" d="M384,196H256c-2.8,0-5-2.2-5-5s2.2-5,5-5h128c2.8,0,5,2.2,5,5S386.8,196,384,196z"/><path class="st0" d="M321,244.8c-64.7,0.1-117.2-52.3-117.3-117c-0.1-64.7,52.3-117.2,117-117.3c64.7-0.1,117.2,52.3,117.3,117   c0.1,41.9-22.3,80.6-58.6,101.6C361.6,239.3,341.5,244.7,321,244.8z M320.6,20.4c-59.2,0.1-107.1,48.2-107,107.4   s48.2,107.1,107.4,107l0,0c59.2-0.1,107.1-48.2,107-107.3c0-18.8-5-37.2-14.4-53.4c-14.2-24.7-37.6-42.7-65.1-49.9   C339.4,21.6,330,20.4,320.6,20.4L320.6,20.4z"/><path class="st0" d="M374,191h-10v-91h-22v91h-10V95c0-2.8,2.2-5,5-5h32c2.8,0,5,2.2,5,5V191z"/><path class="st0" d="M305,196c-2.8,0-5-2.2-5-5V63c0-2.8,2.2-5,5-5h32c2.8,0,5,2.2,5,5v41c0,2.8-2.2,5-5,5s-5-2.2-5-5V68h-22v123   C310,193.8,307.8,196,305,196z"/><path class="st0" d="M278,191h-10v-63c0-2.8,2.2-5,5-5h32v10h-27V191z"/><path class="st0" d="M34.1,500c-2.5,0-4.5-1.8-4.9-4.2c-0.7-7.3,1.7-14.6,6.6-20.1c9-10.6,25.8-15.9,49.9-15.9   c13.4,0,30.7-2.4,37.2-13.8c2.6-4.5,2.4-8.2,2.2-13.3c0-1.5-0.1-3-0.1-4.6c0-2.8,2.2-5,5-5c2.8,0,5,2.2,5,5c0,1.5,0.1,2.9,0.1,4.3   c0.2,5.8,0.4,11.8-3.6,18.7c-7.1,12.3-23,18.7-45.9,18.7c-26.2,0-37.5,6.8-42.3,12.4c-5.1,6-4.3,12-4.3,12.1   c0.4,2.7-1.4,5.3-4.2,5.7c0,0,0,0,0,0C34.6,500,34.4,500,34.1,500z"/><path class="st0" d="M467,433H47c-19.3,0-35-15.7-35-35l0,0V108c0-19.3,15.7-35,35-35h172c2.8,0,5,2.2,5,5s-2.2,5-5,5H47   c-13.8,0-25,11.2-25,25l0,0v290c0,13.8,11.2,25,25,25l0,0h420c13.8,0,25-11.2,25-25l0,0V108c0-13.8-11.2-25-25-25l0,0h-44.2   c-2.8,0-5-2.2-5-5s2.2-5,5-5H467c19.3,0,35,15.7,35,35l0,0v290C502,417.3,486.3,433,467,433L467,433z"/><path class="st0" d="M297,474.5c-2.8,0-5-2.2-5-5V428c0-2.8,2.2-5,5-5s5,2.2,5,5v41.5C302,472.3,299.8,474.5,297,474.5z"/><path class="st0" d="M217,474.5c-2.8,0-5-2.2-5-5V428c0-2.8,2.2-5,5-5s5,2.2,5,5v41.5C222,472.3,219.8,474.5,217,474.5z"/><path class="st0" d="M369.1,499.3c-2.8,0-5-2.2-5-5v-12.9c0-3.2-2.6-5.7-5.7-5.7H156.7c-3.2,0-5.7,2.6-5.7,5.7v12.9   c0,2.8-2.2,5-5,5s-5-2.2-5-5v-12.9c0-8.7,7-15.7,15.7-15.7h201.7c8.7,0,15.7,7,15.7,15.7v12.9C374.1,497,371.8,499.3,369.1,499.3z"/><path class="st0" d="M423.1,356H17c-2.8,0-5-2.2-5-5s2.2-5,5-5h406.1c2.8,0,5,2.2,5,5S425.9,356,423.1,356z"/><path class="st0" d="M497,356h-27.2c-2.8,0-5-2.2-5-5s2.2-5,5-5H497c2.8,0,5,2.2,5,5S499.8,356,497,356z"/><path class="st0" d="M417,500H98c-2.8,0-5-2.2-5-5s2.2-5,5-5h319c2.8,0,5,2.2,5,5S419.8,500,417,500z"/><path class="st0" d="M257,410.5c-12.2,0-22-9.8-22-22s9.8-22,22-22s22,9.8,22,22S269.2,410.5,257,410.5z M257,376.6   c-6.6,0-12,5.4-12,12s5.4,12,12,12s12-5.4,12-12S263.6,376.6,257,376.6z"/><path class="st0" d="M446.6,371.8c-2.5,0-4.9-0.3-7.3-1c-7.2-1.9-13.4-6.7-17.1-13.1l-52.9-91.6c-1.4-2.4-0.6-5.4,1.8-6.8   c0,0,0,0,0,0l40.2-23.2c2.4-1.4,5.4-0.5,6.8,1.8l52.8,91.6c7.8,13.5,3.2,30.8-10.4,38.6C456.4,370.5,451.5,371.8,446.6,371.8   L446.6,371.8z M380.4,265.4l50.4,87.3c5,8.7,16.2,11.7,24.9,6.7c8.7-5,11.7-16.2,6.7-24.9l0,0L412,247.3L380.4,265.4z"/><path class="st0" d="M393.7,257c-1.8,0-3.4-0.9-4.3-2.5l-15-26c-1.4-2.4-0.5-5.5,1.9-6.8c2.4-1.4,5.4-0.5,6.8,1.8l15,26   c1.4,2.4,0.6,5.4-1.8,6.8C395.5,256.8,394.6,257,393.7,257z"/><path class="st0" d="M436,500h-1c-2.8,0-5-2.2-5-5s2.2-5,5-5h1c2.8,0,5,2.2,5,5S438.8,500,436,500z"/></g><g id="Outline"><path class="st0" d="M134,196.3H49c-2.8,0-5-2.2-5-5s2.2-5,5-5h85c2.8,0,5,2.2,5,5S136.8,196.3,134,196.3z"/><path class="st0" d="M96,228H49c-2.8,0-5-2.2-5-5s2.2-5,5-5h47c2.8,0,5,2.2,5,5S98.8,228,96,228z"/><path class="st0" d="M164,132.9H49c-2.8,0-5-2.2-5-5c0-2.8,2.2-5,5-5h115c2.8,0,5,2.2,5,5C169,130.7,166.8,132.9,164,132.9z"/><path class="st0" d="M164,164.6H49c-2.8,0-5-2.2-5-5s2.2-5,5-5h115c2.8,0,5,2.2,5,5S166.8,164.6,164,164.6z"/><path class="st0" d="M353,324H49c-2.8,0-5-2.2-5-5s2.2-5,5-5h304c2.8,0,5,2.2,5,5S355.8,324,353,324z"/><path class="st0" d="M353,293.4h-0.2c-31-1.1-63.5-3.9-90.7-24.8c-6.6-5.1-12.5-11-18.2-16.8c-6.1-6.2-11.9-12-18.4-16.8   c-16.5-12.2-36.5-10.3-54.8,5.2c-3.9,3.3-7.8,6.8-11.6,10.1c-12.6,11.3-24.6,21.9-40.3,29c-20,9-43.4,13.8-69.7,14.1H49   c-2.8,0-5-2.2-5-5c0-2.8,2.2-5,5-5c25.2-0.3,46.7-4.6,65.6-13.2c14.4-6.5,25.8-16.6,37.8-27.4c3.8-3.4,7.7-6.9,11.8-10.3   c21.9-18.4,47-20.5,67.2-5.5c7.1,5.3,13.4,11.6,19.5,17.8c5.8,5.8,11.2,11.3,17.2,15.9c24.9,19.1,55.6,21.7,85,22.7   c2.8,0,5,2.3,4.9,5.1S355.8,293.4,353,293.4L353,293.4z"/><path class="st0" d="M201,288c-2.8,0-5-2.2-5-5v-1c0-2.8,2.2-5,5-5s5,2.2,5,5v1C206,285.8,203.8,288,201,288z M201,267   c-2.8,0-5-2.2-5-5v-1c0-2.8,2.2-5,5-5s5,2.2,5,5v1C206,264.8,203.8,267,201,267z M201,246c-2.8,0-5-2.2-5-5v-1c0-2.8,2.2-5,5-5   s5,2.2,5,5v1C206,243.8,203.8,246,201,246z"/></g></svg>