<?xml version="1.0" ?><svg enable-background="new 0 0 512 512" version="1.1" viewBox="0 0 512 512" xml:space="preserve" xmlns="http://www.w3.org/2000/svg" xmlns:xlink="http://www.w3.org/1999/xlink"><g id="Colors"><g><path d="M277.62,68.12c-0.333,0-0.669-0.033-1.008-0.103c-2.706-0.554-4.45-3.195-3.896-5.901    c3.215-15.711,17.209-27.115,33.274-27.115c7.62,0,14.887,2.526,20.777,7.094c10.155-19.061,30.322-31.433,52.262-31.433    c29.818,0,55.054,22.285,58.702,51.836c0.338,2.74-1.609,5.236-4.35,5.575c-2.729,0.336-5.236-1.609-5.575-4.35    c-3.03-24.548-24-43.061-48.777-43.061c-20.3,0-38.773,12.746-45.97,31.716c-0.633,1.668-2.106,2.873-3.867,3.161    c-1.759,0.288-3.542-0.384-4.673-1.763c-4.575-5.577-11.328-8.775-18.529-8.775c-11.336,0-21.21,8.041-23.477,19.12    C282.029,66.489,279.945,68.12,277.62,68.12z" fill="#3F456B"/></g><g opacity="0.7"><path d="M464,380l-63-63H113l-65,63V123c0,0,3-28,35.5-28s342.606,0,342.606,0S465,96,465,123S464,380,464,380z" fill="#FFFFFF"/></g><g><g><path d="M292.021,115.608c0,3.53-2.859,6.392-6.392,6.392c-3.529,0-6.392-2.862-6.392-6.392     s2.863-6.393,6.392-6.393C289.161,109.215,292.021,112.078,292.021,115.608z" fill="#3F456B"/></g><g><path d="M233.968,115.608c0,3.53-2.86,6.392-6.393,6.392c-3.528,0-6.39-2.862-6.39-6.392s2.862-6.393,6.39-6.393     C231.108,109.215,233.968,112.078,233.968,115.608z" fill="#3F456B"/></g><g><path d="M321.047,115.608c0,3.53-2.86,6.392-6.392,6.392c-3.53,0-6.392-2.862-6.392-6.392     s2.862-6.393,6.392-6.393C318.187,109.215,321.047,112.078,321.047,115.608z" fill="#3F456B"/></g><g><path d="M146.889,115.608c0,3.53-2.86,6.392-6.392,6.392c-3.53,0-6.392-2.862-6.392-6.392     s2.862-6.393,6.392-6.393C144.03,109.215,146.889,112.078,146.889,115.608z" fill="#3F456B"/></g><g><path d="M204.942,115.608c0,3.53-2.86,6.392-6.392,6.392c-3.53,0-6.392-2.862-6.392-6.392     s2.862-6.393,6.392-6.393C202.082,109.215,204.942,112.078,204.942,115.608z" fill="#3F456B"/></g><g><path d="M175.915,115.608c0,3.53-2.86,6.392-6.392,6.392c-3.529,0-6.391-2.862-6.391-6.392     s2.862-6.393,6.391-6.393C173.055,109.215,175.915,112.078,175.915,115.608z" fill="#3F456B"/></g><g><path d="M117.863,115.608c0,3.53-2.859,6.392-6.392,6.392c-3.529,0-6.391-2.862-6.391-6.392     s2.862-6.393,6.391-6.393C115.003,109.215,117.863,112.078,117.863,115.608z" fill="#3F456B"/></g><g><path d="M262.994,115.608c0,3.53-2.86,6.392-6.392,6.392c-3.53,0-6.392-2.862-6.392-6.392     s2.862-6.393,6.392-6.393C260.135,109.215,262.994,112.078,262.994,115.608z" fill="#3F456B"/></g><g><path d="M306.021,145.608c0,3.53-2.859,6.392-6.392,6.392c-3.529,0-6.392-2.862-6.392-6.392     s2.863-6.393,6.392-6.393C303.161,139.215,306.021,142.078,306.021,145.608z" fill="#3F456B"/></g><g><path d="M247.968,145.608c0,3.53-2.86,6.392-6.393,6.392c-3.528,0-6.39-2.862-6.39-6.392s2.862-6.393,6.39-6.393     C245.108,139.215,247.968,142.078,247.968,145.608z" fill="#3F456B"/></g><g><path d="M335.047,145.608c0,3.53-2.86,6.392-6.392,6.392c-3.53,0-6.392-2.862-6.392-6.392     s2.862-6.393,6.392-6.393C332.187,139.215,335.047,142.078,335.047,145.608z" fill="#3F456B"/></g><g><path d="M160.889,145.608c0,3.53-2.86,6.392-6.392,6.392c-3.53,0-6.392-2.862-6.392-6.392     s2.862-6.393,6.392-6.393C158.03,139.215,160.889,142.078,160.889,145.608z" fill="#3F456B"/></g><g><path d="M218.942,145.608c0,3.53-2.86,6.392-6.392,6.392c-3.53,0-6.392-2.862-6.392-6.392     s2.862-6.393,6.392-6.393C216.082,139.215,218.942,142.078,218.942,145.608z" fill="#3F456B"/></g><g><path d="M189.915,145.608c0,3.53-2.86,6.392-6.392,6.392c-3.529,0-6.391-2.862-6.391-6.392     s2.862-6.393,6.391-6.393C187.055,139.215,189.915,142.078,189.915,145.608z" fill="#3F456B"/></g><g><path d="M131.863,145.608c0,3.53-2.859,6.392-6.392,6.392c-3.529,0-6.391-2.862-6.391-6.392     s2.862-6.393,6.391-6.393C129.003,139.215,131.863,142.078,131.863,145.608z" fill="#3F456B"/></g><g><path d="M276.994,145.608c0,3.53-2.86,6.392-6.392,6.392c-3.53,0-6.392-2.862-6.392-6.392     s2.862-6.393,6.392-6.393C274.135,139.215,276.994,142.078,276.994,145.608z" fill="#3F456B"/></g><g><path d="M292.021,175.608c0,3.53-2.859,6.392-6.392,6.392c-3.529,0-6.392-2.862-6.392-6.392     s2.863-6.393,6.392-6.393C289.161,169.215,292.021,172.078,292.021,175.608z" fill="#3F456B"/></g><g><path d="M233.968,175.608c0,3.53-2.86,6.392-6.393,6.392c-3.528,0-6.39-2.862-6.39-6.392s2.862-6.393,6.39-6.393     C231.108,169.215,233.968,172.078,233.968,175.608z" fill="#3F456B"/></g><g><path d="M321.047,175.608c0,3.53-2.86,6.392-6.392,6.392c-3.53,0-6.392-2.862-6.392-6.392     s2.862-6.393,6.392-6.393C318.187,169.215,321.047,172.078,321.047,175.608z" fill="#3F456B"/></g><g><path d="M146.889,175.608c0,3.53-2.86,6.392-6.392,6.392c-3.53,0-6.392-2.862-6.392-6.392     s2.862-6.393,6.392-6.393C144.03,169.215,146.889,172.078,146.889,175.608z" fill="#3F456B"/></g><g><path d="M204.942,175.608c0,3.53-2.86,6.392-6.392,6.392c-3.53,0-6.392-2.862-6.392-6.392     s2.862-6.393,6.392-6.393C202.082,169.215,204.942,172.078,204.942,175.608z" fill="#3F456B"/></g><g><path d="M175.915,175.608c0,3.53-2.86,6.392-6.392,6.392c-3.529,0-6.391-2.862-6.391-6.392     s2.862-6.393,6.391-6.393C173.055,169.215,175.915,172.078,175.915,175.608z" fill="#3F456B"/></g><g><path d="M262.994,175.608c0,3.53-2.86,6.392-6.392,6.392c-3.53,0-6.392-2.862-6.392-6.392     s2.862-6.393,6.392-6.393C260.135,169.215,262.994,172.078,262.994,175.608z" fill="#3F456B"/></g><g><path d="M306.021,205.608c0,3.53-2.859,6.392-6.392,6.392c-3.529,0-6.392-2.862-6.392-6.392     s2.863-6.393,6.392-6.393C303.161,199.215,306.021,202.078,306.021,205.608z" fill="#3F456B"/></g><g><path d="M247.968,205.608c0,3.53-2.86,6.392-6.393,6.392c-3.528,0-6.39-2.862-6.39-6.392s2.862-6.393,6.39-6.393     C245.108,199.215,247.968,202.078,247.968,205.608z" fill="#3F456B"/></g><g><path d="M335.047,205.608c0,3.53-2.86,6.392-6.392,6.392c-3.53,0-6.392-2.862-6.392-6.392     s2.862-6.393,6.392-6.393C332.187,199.215,335.047,202.078,335.047,205.608z" fill="#3F456B"/></g><g><path d="M160.889,205.608c0,3.53-2.86,6.392-6.392,6.392c-3.53,0-6.392-2.862-6.392-6.392     s2.862-6.393,6.392-6.393C158.03,199.215,160.889,202.078,160.889,205.608z" fill="#3F456B"/></g><g><path d="M218.942,205.608c0,3.53-2.86,6.392-6.392,6.392c-3.53,0-6.392-2.862-6.392-6.392     s2.862-6.393,6.392-6.393C216.082,199.215,218.942,202.078,218.942,205.608z" fill="#3F456B"/></g><g><path d="M189.915,205.608c0,3.53-2.86,6.392-6.392,6.392c-3.529,0-6.391-2.862-6.391-6.392     s2.862-6.393,6.391-6.393C187.055,199.215,189.915,202.078,189.915,205.608z" fill="#3F456B"/></g><g><path d="M131.863,205.608c0,3.53-2.859,6.392-6.392,6.392c-3.529,0-6.391-2.862-6.391-6.392     s2.862-6.393,6.391-6.393C129.003,199.215,131.863,202.078,131.863,205.608z" fill="#3F456B"/></g><g><path d="M276.994,205.608c0,3.53-2.86,6.392-6.392,6.392c-3.53,0-6.392-2.862-6.392-6.392     s2.862-6.393,6.392-6.393C274.135,199.215,276.994,202.078,276.994,205.608z" fill="#3F456B"/></g><g><path d="M292.021,235.608c0,3.53-2.859,6.392-6.392,6.392c-3.529,0-6.392-2.862-6.392-6.392     s2.863-6.393,6.392-6.393C289.161,229.215,292.021,232.078,292.021,235.608z" fill="#3F456B"/></g><g><path d="M233.968,235.608c0,3.53-2.86,6.392-6.393,6.392c-3.528,0-6.39-2.862-6.39-6.392s2.862-6.393,6.39-6.393     C231.108,229.215,233.968,232.078,233.968,235.608z" fill="#3F456B"/></g><g><path d="M321.047,235.608c0,3.53-2.86,6.392-6.392,6.392c-3.53,0-6.392-2.862-6.392-6.392     s2.862-6.393,6.392-6.393C318.187,229.215,321.047,232.078,321.047,235.608z" fill="#3F456B"/></g><g><path d="M146.889,235.608c0,3.53-2.86,6.392-6.392,6.392c-3.53,0-6.392-2.862-6.392-6.392     s2.862-6.393,6.392-6.393C144.03,229.215,146.889,232.078,146.889,235.608z" fill="#3F456B"/></g><g><path d="M204.942,235.608c0,3.53-2.86,6.392-6.392,6.392c-3.53,0-6.392-2.862-6.392-6.392     s2.862-6.393,6.392-6.393C202.082,229.215,204.942,232.078,204.942,235.608z" fill="#3F456B"/></g><g><path d="M175.915,235.608c0,3.53-2.86,6.392-6.392,6.392c-3.529,0-6.391-2.862-6.391-6.392     s2.862-6.393,6.391-6.393C173.055,229.215,175.915,232.078,175.915,235.608z" fill="#3F456B"/></g><g><path d="M262.994,235.608c0,3.53-2.86,6.392-6.392,6.392c-3.53,0-6.392-2.862-6.392-6.392     s2.862-6.393,6.392-6.393C260.135,229.215,262.994,232.078,262.994,235.608z" fill="#3F456B"/></g><g><path d="M306.021,264.608c0,3.53-2.859,6.392-6.392,6.392c-3.529,0-6.392-2.862-6.392-6.392     s2.863-6.393,6.392-6.393C303.161,258.215,306.021,261.078,306.021,264.608z" fill="#3F456B"/></g><g><path d="M247.968,264.608c0,3.53-2.86,6.392-6.393,6.392c-3.528,0-6.39-2.862-6.39-6.392s2.862-6.393,6.39-6.393     C245.108,258.215,247.968,261.078,247.968,264.608z" fill="#3F456B"/></g><g><path d="M335.047,264.608c0,3.53-2.86,6.392-6.392,6.392c-3.53,0-6.392-2.862-6.392-6.392     s2.862-6.393,6.392-6.393C332.187,258.215,335.047,261.078,335.047,264.608z" fill="#3F456B"/></g><g><path d="M160.889,264.608c0,3.53-2.86,6.392-6.392,6.392c-3.53,0-6.392-2.862-6.392-6.392     s2.862-6.393,6.392-6.393C158.03,258.215,160.889,261.078,160.889,264.608z" fill="#3F456B"/></g><g><path d="M218.942,264.608c0,3.53-2.86,6.392-6.392,6.392c-3.53,0-6.392-2.862-6.392-6.392     s2.862-6.393,6.392-6.393C216.082,258.215,218.942,261.078,218.942,264.608z" fill="#3F456B"/></g><g><path d="M189.915,264.608c0,3.53-2.86,6.392-6.392,6.392c-3.529,0-6.391-2.862-6.391-6.392     s2.862-6.393,6.391-6.393C187.055,258.215,189.915,261.078,189.915,264.608z" fill="#3F456B"/></g><g><path d="M131.863,264.608c0,3.53-2.859,6.392-6.392,6.392c-3.529,0-6.391-2.862-6.391-6.392     s2.862-6.393,6.391-6.393C129.003,258.215,131.863,261.078,131.863,264.608z" fill="#3F456B"/></g><g><path d="M276.994,264.608c0,3.53-2.86,6.392-6.392,6.392c-3.53,0-6.392-2.862-6.392-6.392     s2.862-6.393,6.392-6.393C274.135,258.215,276.994,261.078,276.994,264.608z" fill="#3F456B"/></g><g><g><path d="M292.021,293.608c0,3.53-2.859,6.392-6.392,6.392c-3.529,0-6.392-2.862-6.392-6.392      s2.863-6.393,6.392-6.393C289.161,287.215,292.021,290.078,292.021,293.608z" fill="#3F456B"/></g><g><path d="M233.968,293.608c0,3.53-2.86,6.392-6.393,6.392c-3.528,0-6.39-2.862-6.39-6.392s2.862-6.393,6.39-6.393      C231.108,287.215,233.968,290.078,233.968,293.608z" fill="#3F456B"/></g><g><path d="M321.047,293.608c0,3.53-2.86,6.392-6.392,6.392c-3.53,0-6.392-2.862-6.392-6.392      s2.862-6.393,6.392-6.393C318.187,287.215,321.047,290.078,321.047,293.608z" fill="#3F456B"/></g><g><path d="M146.889,293.608c0,3.53-2.86,6.392-6.392,6.392c-3.53,0-6.392-2.862-6.392-6.392      s2.862-6.393,6.392-6.393C144.03,287.215,146.889,290.078,146.889,293.608z" fill="#3F456B"/></g><g><path d="M204.942,293.608c0,3.53-2.86,6.392-6.392,6.392c-3.53,0-6.392-2.862-6.392-6.392      s2.862-6.393,6.392-6.393C202.082,287.215,204.942,290.078,204.942,293.608z" fill="#3F456B"/></g><g><path d="M175.915,293.608c0,3.53-2.86,6.392-6.392,6.392c-3.529,0-6.391-2.862-6.391-6.392      s2.862-6.393,6.391-6.393C173.055,287.215,175.915,290.078,175.915,293.608z" fill="#3F456B"/></g><g><path d="M262.994,293.608c0,3.53-2.86,6.392-6.392,6.392c-3.53,0-6.392-2.862-6.392-6.392      s2.862-6.393,6.392-6.393C260.135,287.215,262.994,290.078,262.994,293.608z" fill="#3F456B"/></g></g><g><path d="M408.021,115.608c0,3.53-2.859,6.392-6.392,6.392c-3.529,0-6.392-2.862-6.392-6.392     s2.863-6.393,6.392-6.393C405.161,109.215,408.021,112.078,408.021,115.608z" fill="#3F456B"/></g><g><path d="M349.968,115.608c0,3.53-2.859,6.392-6.393,6.392c-3.528,0-6.39-2.862-6.39-6.392s2.862-6.393,6.39-6.393     C347.108,109.215,349.968,112.078,349.968,115.608z" fill="#3F456B"/></g><g><path d="M378.994,115.608c0,3.53-2.86,6.392-6.392,6.392c-3.53,0-6.392-2.862-6.392-6.392     s2.862-6.393,6.392-6.393C376.135,109.215,378.994,112.078,378.994,115.608z" fill="#3F456B"/></g><g><path d="M363.968,145.608c0,3.53-2.859,6.392-6.393,6.392c-3.528,0-6.39-2.862-6.39-6.392s2.862-6.393,6.39-6.393     C361.108,139.215,363.968,142.078,363.968,145.608z" fill="#3F456B"/></g><g><path d="M392.994,145.608c0,3.53-2.86,6.392-6.392,6.392c-3.53,0-6.392-2.862-6.392-6.392     s2.862-6.393,6.392-6.393C390.135,139.215,392.994,142.078,392.994,145.608z" fill="#3F456B"/></g><g><path d="M349.968,175.608c0,3.53-2.859,6.392-6.393,6.392c-3.528,0-6.39-2.862-6.39-6.392s2.862-6.393,6.39-6.393     C347.108,169.215,349.968,172.078,349.968,175.608z" fill="#3F456B"/></g><g><path d="M378.994,175.608c0,3.53-2.86,6.392-6.392,6.392c-3.53,0-6.392-2.862-6.392-6.392     s2.862-6.393,6.392-6.393C376.135,169.215,378.994,172.078,378.994,175.608z" fill="#3F456B"/></g><g><path d="M363.968,205.608c0,3.53-2.859,6.392-6.393,6.392c-3.528,0-6.39-2.862-6.39-6.392s2.862-6.393,6.39-6.393     C361.108,199.215,363.968,202.078,363.968,205.608z" fill="#3F456B"/></g><g><path d="M392.994,205.608c0,3.53-2.86,6.392-6.392,6.392c-3.53,0-6.392-2.862-6.392-6.392     s2.862-6.393,6.392-6.393C390.135,199.215,392.994,202.078,392.994,205.608z" fill="#3F456B"/></g><g><path d="M349.968,235.608c0,3.53-2.859,6.392-6.393,6.392c-3.528,0-6.39-2.862-6.39-6.392s2.862-6.393,6.39-6.393     C347.108,229.215,349.968,232.078,349.968,235.608z" fill="#3F456B"/></g><g><path d="M378.994,235.608c0,3.53-2.86,6.392-6.392,6.392c-3.53,0-6.392-2.862-6.392-6.392     s2.862-6.393,6.392-6.393C376.135,229.215,378.994,232.078,378.994,235.608z" fill="#3F456B"/></g><g><path d="M363.968,264.608c0,3.53-2.859,6.392-6.393,6.392c-3.528,0-6.39-2.862-6.39-6.392s2.862-6.393,6.39-6.393     C361.108,258.215,363.968,261.078,363.968,264.608z" fill="#3F456B"/></g><g><path d="M392.994,264.608c0,3.53-2.86,6.392-6.392,6.392c-3.53,0-6.392-2.862-6.392-6.392     s2.862-6.393,6.392-6.393C390.135,258.215,392.994,261.078,392.994,264.608z" fill="#3F456B"/></g><g><path d="M349.968,293.608c0,3.53-2.859,6.392-6.393,6.392c-3.528,0-6.39-2.862-6.39-6.392s2.862-6.393,6.39-6.393     C347.108,287.215,349.968,290.078,349.968,293.608z" fill="#3F456B"/></g><g><path d="M378.994,293.608c0,3.53-2.86,6.392-6.392,6.392c-3.53,0-6.392-2.862-6.392-6.392     s2.862-6.393,6.392-6.393C376.135,287.215,378.994,290.078,378.994,293.608z" fill="#3F456B"/></g><g><g><path d="M292.021,115.608c0,3.53-2.859,6.392-6.392,6.392c-3.529,0-6.392-2.862-6.392-6.392      s2.863-6.393,6.392-6.393C289.161,109.215,292.021,112.078,292.021,115.608z" fill="#3F456B"/></g><g><path d="M233.968,115.608c0,3.53-2.86,6.392-6.393,6.392c-3.528,0-6.39-2.862-6.39-6.392s2.862-6.393,6.39-6.393      C231.108,109.215,233.968,112.078,233.968,115.608z" fill="#3F456B"/></g><g><path d="M321.047,115.608c0,3.53-2.86,6.392-6.392,6.392c-3.53,0-6.392-2.862-6.392-6.392      s2.862-6.393,6.392-6.393C318.187,109.215,321.047,112.078,321.047,115.608z" fill="#3F456B"/></g><g><path d="M146.889,115.608c0,3.53-2.86,6.392-6.392,6.392c-3.53,0-6.392-2.862-6.392-6.392      s2.862-6.393,6.392-6.393C144.03,109.215,146.889,112.078,146.889,115.608z" fill="#3F456B"/></g><g><path d="M204.942,115.608c0,3.53-2.86,6.392-6.392,6.392c-3.53,0-6.392-2.862-6.392-6.392      s2.862-6.393,6.392-6.393C202.082,109.215,204.942,112.078,204.942,115.608z" fill="#3F456B"/></g><g><path d="M175.915,115.608c0,3.53-2.86,6.392-6.392,6.392c-3.529,0-6.391-2.862-6.391-6.392      s2.862-6.393,6.391-6.393C173.055,109.215,175.915,112.078,175.915,115.608z" fill="#3F456B"/></g><g><path d="M117.863,115.608c0,3.53-2.859,6.392-6.392,6.392c-3.529,0-6.391-2.862-6.391-6.392      s2.862-6.393,6.391-6.393C115.003,109.215,117.863,112.078,117.863,115.608z" fill="#3F456B"/></g><g><path d="M262.994,115.608c0,3.53-2.86,6.392-6.392,6.392c-3.53,0-6.392-2.862-6.392-6.392      s2.862-6.393,6.392-6.393C260.135,109.215,262.994,112.078,262.994,115.608z" fill="#3F456B"/></g></g></g><g><g><path d="M87.915,129.608c0,3.53-2.86,6.392-6.392,6.392c-3.529,0-6.391-2.862-6.391-6.392     s2.862-6.393,6.391-6.393C85.055,123.215,87.915,126.078,87.915,129.608z" fill="#3F456B"/></g><g><path d="M72.889,159.608c0,3.53-2.86,6.392-6.392,6.392c-3.53,0-6.392-2.862-6.392-6.392s2.862-6.393,6.392-6.393     C70.03,153.215,72.889,156.078,72.889,159.608z" fill="#3F456B"/></g><g><path d="M101.915,159.608c0,3.53-2.86,6.392-6.392,6.392c-3.529,0-6.391-2.862-6.391-6.392     s2.862-6.393,6.391-6.393C99.055,153.215,101.915,156.078,101.915,159.608z" fill="#3F456B"/></g><g><path d="M87.915,189.608c0,3.53-2.86,6.392-6.392,6.392c-3.529,0-6.391-2.862-6.391-6.392     s2.862-6.393,6.391-6.393C85.055,183.215,87.915,186.078,87.915,189.608z" fill="#3F456B"/></g><g><path d="M72.889,219.608c0,3.53-2.86,6.392-6.392,6.392c-3.53,0-6.392-2.862-6.392-6.392s2.862-6.393,6.392-6.393     C70.03,213.215,72.889,216.078,72.889,219.608z" fill="#3F456B"/></g><g><path d="M101.915,219.608c0,3.53-2.86,6.392-6.392,6.392c-3.529,0-6.391-2.862-6.391-6.392     s2.862-6.393,6.391-6.393C99.055,213.215,101.915,216.078,101.915,219.608z" fill="#3F456B"/></g><g><path d="M87.915,249.608c0,3.53-2.86,6.392-6.392,6.392c-3.529,0-6.391-2.862-6.391-6.392     s2.862-6.393,6.391-6.393C85.055,243.215,87.915,246.078,87.915,249.608z" fill="#3F456B"/></g><g><path d="M72.889,278.608c0,3.53-2.86,6.392-6.392,6.392c-3.53,0-6.392-2.862-6.392-6.392s2.862-6.393,6.392-6.393     C70.03,272.215,72.889,275.078,72.889,278.608z" fill="#3F456B"/></g><g><path d="M101.915,278.608c0,3.53-2.86,6.392-6.392,6.392c-3.529,0-6.391-2.862-6.391-6.392     s2.862-6.393,6.391-6.393C99.055,272.215,101.915,275.078,101.915,278.608z" fill="#3F456B"/></g><g><path d="M72.889,336.608c0,3.53-2.86,6.392-6.392,6.392c-3.53,0-6.392-2.862-6.392-6.392s2.862-6.393,6.392-6.393     C70.03,330.215,72.889,333.078,72.889,336.608z" fill="#3F456B"/></g><g><g><path d="M87.915,307.608c0,3.53-2.86,6.392-6.392,6.392c-3.529,0-6.391-2.862-6.391-6.392      s2.862-6.393,6.391-6.393C85.055,301.215,87.915,304.078,87.915,307.608z" fill="#3F456B"/></g></g><g><g><path d="M87.915,129.608c0,3.53-2.86,6.392-6.392,6.392c-3.529,0-6.391-2.862-6.391-6.392      s2.862-6.393,6.391-6.393C85.055,123.215,87.915,126.078,87.915,129.608z" fill="#3F456B"/></g></g></g><g><g><path d="M426.106,129.608c0,3.53,2.86,6.392,6.392,6.392c3.529,0,6.391-2.862,6.391-6.392     s-2.862-6.393-6.391-6.393C428.965,123.215,426.106,126.078,426.106,129.608z" fill="#3F456B"/></g><g><path d="M441.131,159.608c0,3.53,2.86,6.392,6.392,6.392c3.53,0,6.392-2.862,6.392-6.392     s-2.862-6.393-6.392-6.393C443.991,153.215,441.131,156.078,441.131,159.608z" fill="#3F456B"/></g><g><path d="M412.106,159.608c0,3.53,2.86,6.392,6.392,6.392c3.529,0,6.391-2.862,6.391-6.392     s-2.862-6.393-6.391-6.393C414.965,153.215,412.106,156.078,412.106,159.608z" fill="#3F456B"/></g><g><path d="M426.106,189.608c0,3.53,2.86,6.392,6.392,6.392c3.529,0,6.391-2.862,6.391-6.392     s-2.862-6.393-6.391-6.393C428.965,183.215,426.106,186.078,426.106,189.608z" fill="#3F456B"/></g><g><path d="M441.131,219.608c0,3.53,2.86,6.392,6.392,6.392c3.53,0,6.392-2.862,6.392-6.392     s-2.862-6.393-6.392-6.393C443.991,213.215,441.131,216.078,441.131,219.608z" fill="#3F456B"/></g><g><path d="M412.106,219.608c0,3.53,2.86,6.392,6.392,6.392c3.529,0,6.391-2.862,6.391-6.392     s-2.862-6.393-6.391-6.393C414.965,213.215,412.106,216.078,412.106,219.608z" fill="#3F456B"/></g><g><path d="M426.106,249.608c0,3.53,2.86,6.392,6.392,6.392c3.529,0,6.391-2.862,6.391-6.392     s-2.862-6.393-6.391-6.393C428.965,243.215,426.106,246.078,426.106,249.608z" fill="#3F456B"/></g><g><path d="M441.131,278.608c0,3.53,2.86,6.392,6.392,6.392c3.53,0,6.392-2.862,6.392-6.392     s-2.862-6.393-6.392-6.393C443.991,272.215,441.131,275.078,441.131,278.608z" fill="#3F456B"/></g><g><path d="M412.106,278.608c0,3.53,2.86,6.392,6.392,6.392c3.529,0,6.391-2.862,6.391-6.392     s-2.862-6.393-6.391-6.393C414.965,272.215,412.106,275.078,412.106,278.608z" fill="#3F456B"/></g><g><path d="M441.131,336.608c0,3.53,2.86,6.392,6.392,6.392c3.53,0,6.392-2.862,6.392-6.392     s-2.862-6.393-6.392-6.393C443.991,330.215,441.131,333.078,441.131,336.608z" fill="#3F456B"/></g><g><g><path d="M426.106,307.608c0,3.53,2.86,6.392,6.392,6.392c3.529,0,6.391-2.862,6.391-6.392      s-2.862-6.393-6.391-6.393C428.965,301.215,426.106,304.078,426.106,307.608z" fill="#3F456B"/></g></g><g><g><path d="M426.106,129.608c0,3.53,2.86,6.392,6.392,6.392c3.529,0,6.391-2.862,6.391-6.392      s-2.862-6.393-6.391-6.393C428.965,123.215,426.106,126.078,426.106,129.608z" fill="#3F456B"/></g></g></g><g><path d="M464,385H320.667c-2.761,0-5-2.239-5-5s2.239-5,5-5H464c2.761,0,5,2.239,5,5S466.761,385,464,385z" fill="#3F456B"/></g><g><path d="M191.667,385H48c-2.761,0-5-2.239-5-5s2.239-5,5-5h143.667c2.761,0,5,2.239,5,5S194.428,385,191.667,385z" fill="#3F456B"/></g><g><path d="M427.492,458H294.344c-2.761,0-5-2.239-5-5s2.239-5,5-5h123.454l-46.322-65.101    c-1.601-2.25-1.075-5.372,1.175-6.973c2.25-1.603,5.372-1.075,6.973,1.175l51.942,73c1.085,1.525,1.228,3.528,0.37,5.191    S429.363,458,427.492,458z" fill="#3F456B"/></g><g><path d="M218.562,458H84.508c-1.885,0-3.609-1.06-4.46-2.741c-0.852-1.681-0.686-3.698,0.43-5.218l53.591-73    c1.633-2.226,4.763-2.707,6.989-1.071c2.226,1.634,2.706,4.763,1.071,6.989L94.381,448h124.18c2.761,0,5,2.239,5,5    S221.323,458,218.562,458z" fill="#3F456B"/></g></g><g id="Lines"><g><g><path d="M496,385.033h-32c-2.761,0-5-2.239-5-5V125.62c0-14.145-11.508-25.653-25.653-25.653H78.78     c-14.146,0-25.653,11.508-25.653,25.653v254.413c0,2.761-2.239,5-5,5h-32c-2.761,0-5-2.239-5-5V125.62     c0-37.304,30.349-67.653,67.653-67.653h354.567c37.304,0,67.653,30.349,67.653,67.653v254.413     C501,382.794,498.761,385.033,496,385.033z M469,375.033h22V125.62c0-31.79-25.863-57.653-57.653-57.653H78.78     c-31.79,0-57.653,25.863-57.653,57.653v249.413h22V125.62c0-19.659,15.994-35.653,35.653-35.653h354.567     c19.659,0,35.653,15.994,35.653,35.653V375.033z" fill="#3F456B"/></g></g><g><path d="M48,385c-1.306,0-2.61-0.508-3.591-1.52c-1.922-1.983-1.873-5.148,0.11-7.07l65-63    c0.933-0.904,2.181-1.41,3.48-1.41h288c1.326,0,2.598,0.527,3.536,1.464l63,63c1.953,1.953,1.953,5.119,0,7.071    c-1.953,1.952-5.118,1.952-7.071,0L398.929,322H115.025L51.48,383.59C50.509,384.532,49.254,385,48,385z" fill="#3F456B"/></g><g><path d="M112,322c-2.761,0-5-2.239-5-5V157c0-48.45-44.318-51.262-46.205-51.358    c-2.753-0.14-4.879-2.482-4.746-5.236c0.133-2.753,2.46-4.891,5.219-4.752c0.57,0.026,14.11,0.734,27.747,8.588    C101.781,111.594,117,126.716,117,157v160C117,319.761,114.761,322,112,322z" fill="#3F456B"/></g><g><path d="M400,322c-2.761,0-5-2.239-5-5V157c0-30.284,15.219-45.406,27.986-52.759    c13.636-7.854,27.177-8.562,27.747-8.588c2.74-0.135,5.098,2.005,5.225,4.764c0.127,2.757-2.003,5.095-4.759,5.225    C449.221,105.744,405,108.604,405,157v160C405,319.761,402.761,322,400,322z" fill="#3F456B"/></g><g><path d="M497,500H16c-2.761,0-5-2.239-5-5V380c0-2.761,2.239-5,5-5s5,2.239,5,5v110h470.957L491,380.043    c-0.024-2.761,2.195-5.019,4.957-5.043c2.74-0.002,5.02,2.195,5.043,4.957l1,115c0.011,1.333-0.51,2.617-1.449,3.563    C499.612,499.467,498.333,500,497,500z" fill="#3F456B"/></g><g><path d="M256.646,373.191c-1.381,0-2.5-1.119-2.5-2.5v-19.244c0-1.381,1.119-2.5,2.5-2.5s2.5,1.119,2.5,2.5v19.244    C259.146,372.072,258.027,373.191,256.646,373.191z" fill="#3F456B"/></g><g><path d="M230.25,392.764c-0.25,0-0.505-0.038-0.756-0.118l-19.014-6.031c-1.316-0.417-2.044-1.823-1.627-3.139    c0.417-1.316,1.822-2.048,3.139-1.627l19.014,6.031c1.316,0.417,2.044,1.823,1.627,3.139    C232.295,392.084,231.311,392.764,230.25,392.764z" fill="#3F456B"/></g><g><path d="M228.502,439.89c-0.483,0-0.971-0.14-1.401-0.432c-1.143-0.775-1.44-2.33-0.666-3.472l11.566-17.049    c0.775-1.142,2.331-1.44,3.472-0.666c1.143,0.775,1.44,2.33,0.666,3.472l-11.566,17.049    C230.09,439.506,229.303,439.89,228.502,439.89z" fill="#3F456B"/></g><g><path d="M284.399,439.894c-0.801,0-1.588-0.385-2.072-1.098l-11.556-17.052c-0.775-1.143-0.476-2.697,0.667-3.472    c1.144-0.775,2.698-0.476,3.472,0.667l11.556,17.052c0.775,1.143,0.476,2.697-0.667,3.472    C285.369,439.754,284.881,439.894,284.399,439.894z" fill="#3F456B"/></g><g><path d="M282.965,391.792c-1.102,0-2.111-0.734-2.412-1.849c-0.36-1.333,0.429-2.705,1.762-3.065l18.704-5.053    c1.332-0.362,2.706,0.429,3.065,1.762c0.36,1.333-0.429,2.705-1.762,3.065l-18.704,5.053    C283.4,391.764,283.181,391.792,282.965,391.792z" fill="#3F456B"/></g><g><path d="M256.454,469.959c-39.138,0-70.979-31.841-70.979-70.979c0-39.139,31.841-70.98,70.979-70.98    c39.139,0,70.98,31.841,70.98,70.98C327.434,438.118,295.592,469.959,256.454,469.959z M256.454,338    c-33.624,0-60.979,27.355-60.979,60.98c0,33.624,27.355,60.979,60.979,60.979c33.625,0,60.98-27.355,60.98-60.979    C317.434,365.355,290.078,338,256.454,338z" fill="#3F456B"/></g><g><path d="M272.84,422.841h-32.769c-1.082,0-2.041-0.696-2.376-1.724l-10.126-31.011    c-0.337-1.032,0.031-2.165,0.911-2.801l26.511-19.183c0.873-0.632,2.054-0.633,2.929-0.001l26.51,19.145    c0.881,0.636,1.25,1.769,0.913,2.802l-10.126,31.05C274.882,422.145,273.922,422.841,272.84,422.841z M241.885,417.841h29.141    l8.998-27.591l-23.566-17.019l-23.57,17.055L241.885,417.841z" fill="#3F456B"/></g><g><path d="M256.456,353.883c-0.309,0-0.617-0.057-0.909-0.171l-22.736-8.876c-0.694-0.271-1.231-0.837-1.465-1.544    c-0.233-0.708-0.14-1.482,0.257-2.113l4.502-7.17c0.733-1.169,2.276-1.522,3.446-0.788c1.169,0.734,1.522,2.277,0.788,3.446    l-2.895,4.611l19.04,7.433l18.985-6.959l-2.996-4.921c-0.718-1.179-0.344-2.717,0.835-3.435c1.179-0.719,2.717-0.344,3.435,0.835    l4.578,7.521c0.389,0.639,0.472,1.418,0.225,2.125c-0.247,0.706-0.797,1.265-1.5,1.522l-22.73,8.333    C257.039,353.833,256.747,353.883,256.456,353.883z" fill="#3F456B"/></g><g><path d="M195.769,405.613c-0.741,0-1.443-0.329-1.918-0.897l-5.896-7.059c-0.885-1.06-0.744-2.636,0.316-3.521    c1.06-0.885,2.637-0.744,3.521,0.316l3.959,4.739l12.952-15.811l-0.752-20.207l-6.53,1.547c-1.343,0.319-2.69-0.513-3.009-1.856    s0.513-2.69,1.856-3.009l9.492-2.249c0.726-0.174,1.494-0.01,2.09,0.443c0.596,0.453,0.957,1.148,0.984,1.896l0.9,24.193    c0.023,0.609-0.178,1.206-0.564,1.677l-15.467,18.88c-0.472,0.576-1.177,0.912-1.922,0.916    C195.777,405.613,195.773,405.613,195.769,405.613z" fill="#3F456B"/></g><g><path d="M233.147,463.861c-0.991,0-1.929-0.593-2.321-1.569c-0.514-1.281,0.108-2.737,1.389-3.251l5.73-2.3    l-11.035-17.205l-19.45-5.529l-0.546,6.689c-0.113,1.375-1.316,2.408-2.695,2.288c-1.376-0.112-2.4-1.319-2.288-2.695l0.794-9.722    c0.061-0.746,0.453-1.425,1.067-1.851s1.389-0.556,2.108-0.35l23.288,6.62c0.586,0.167,1.092,0.542,1.421,1.055l13.177,20.545    c0.402,0.627,0.504,1.401,0.277,2.111c-0.227,0.71-0.759,1.281-1.45,1.559l-8.535,3.426    C233.772,463.803,233.457,463.861,233.147,463.861z" fill="#3F456B"/></g><g><path d="M278.583,463.254c-0.326,0-0.657-0.064-0.976-0.199l-7.68-3.258c-0.687-0.291-1.207-0.874-1.419-1.588    c-0.213-0.715-0.095-1.487,0.32-2.106L282.321,436c0.34-0.506,0.853-0.871,1.442-1.025l23.611-6.183    c0.719-0.188,1.485-0.047,2.089,0.386s0.985,1.113,1.038,1.854l0.598,8.375c0.098,1.377-0.938,2.573-2.316,2.671    c-1.376,0.1-2.574-0.938-2.671-2.316l-0.383-5.371l-19.784,5.18l-11.278,16.804l4.895,2.077c1.271,0.539,1.864,2.007,1.325,3.278    C280.482,462.682,279.557,463.254,278.583,463.254z" fill="#3F456B"/></g><g><path d="M316.62,405.782c-0.019,0-0.037,0-0.055,0c-0.748-0.017-1.449-0.367-1.911-0.956l-14.949-19.044    c-0.376-0.479-0.565-1.08-0.529-1.688l1.417-24.366c0.043-0.744,0.416-1.43,1.017-1.871c0.6-0.44,1.368-0.591,2.089-0.409    l8.919,2.245c1.339,0.337,2.151,1.695,1.814,3.035c-0.336,1.339-1.694,2.152-3.035,1.814l-5.988-1.507l-1.186,20.404    l12.486,15.906l4.374-5.09c0.9-1.047,2.479-1.167,3.525-0.267c1.047,0.899,1.167,2.478,0.267,3.525l-6.357,7.398    C318.041,405.464,317.348,405.782,316.62,405.782z" fill="#3F456B"/></g></g></svg>