<?xml version="1.0" ?><svg viewBox="0 0 512 512" xmlns="http://www.w3.org/2000/svg"><defs><style>.cls-1{fill:#3f456b;}</style></defs><title/><g id="Lines"><path class="cls-1" d="M448.55,443.86h-383a5,5,0,0,1-5-5v-111a5,5,0,0,1,5-5h383a5,5,0,0,1,5,5v111A5,5,0,0,1,448.55,443.86Zm-378-10h373v-101h-373Z"/><path class="cls-1" d="M465.82,495H48c-18.83,0-35.35-15.46-35.35-33.08V306.43c0-17,16.19-31.43,35.35-31.43h417.8c19,0,34.51,14.1,34.51,31.43V461.92C500.33,479.54,484.21,495,465.82,495ZM48,285c-13.74,0-25.35,9.81-25.35,21.43V461.92C22.67,474,34.75,485,48,485h417.8c13.06,0,24.51-10.79,24.51-23.08V306.43c0-11.82-11-21.43-24.51-21.43Z"/><path class="cls-1" d="M317,235.38a5,5,0,0,1-4.6-3,112.39,112.39,0,0,0-31.42-42.59,5,5,0,0,1,.78-8.22,49,49,0,1,0-49.6-1.33,5,5,0,0,1,.47,8.16A111.79,111.79,0,0,0,199.8,231.3a5,5,0,0,1-9.15-4,122.46,122.46,0,0,1,30.64-42.46,59,59,0,1,1,71.15,1.78,123,123,0,0,1,29.1,41.83,5,5,0,0,1-2.62,6.57A5.06,5.06,0,0,1,317,235.38Z"/><path class="cls-1" d="M255.91,258.36A102.09,102.09,0,1,1,358,156.27,102.21,102.21,0,0,1,255.91,258.36Zm0-194.18A92.09,92.09,0,1,0,348,156.27,92.19,92.19,0,0,0,255.91,64.18Z"/><path class="cls-1" d="M399,285H345a5,5,0,0,1-5-5V195a5,5,0,0,1,10,0v80h44V163.59a136.08,136.08,0,0,0-40.78-97.23A138,138,0,0,0,255.5,26C179.13,26,117,87.53,117,163.15V275h44V194a5,5,0,0,1,10,0v86a5,5,0,0,1-5,5H112a5,5,0,0,1-5-5V163.15C107,82,173.62,16,255.5,16A148,148,0,0,1,360.26,59.26,146,146,0,0,1,404,163.59V280A5,5,0,0,1,399,285Z"/><path class="cls-1" d="M399,197H347a5,5,0,0,1,0-10h52a5,5,0,0,1,0,10Z"/></g><g id="Outline"><path class="cls-1" d="M332.12,389.46H269a5,5,0,0,1,0-10h63.11a5,5,0,0,1,0,10Z"/><path class="cls-1" d="M285.92,415.47a4.94,4.94,0,0,1-2.5-.67,5,5,0,0,1-1.83-6.83L312.16,355a5,5,0,0,1,8.66,5L290.25,413A5,5,0,0,1,285.92,415.47Z"/><path class="cls-1" d="M316.5,415.47a5,5,0,0,1-4.34-2.5L281.59,360a5,5,0,1,1,8.66-5L320.82,408A5,5,0,0,1,319,414.8,4.93,4.93,0,0,1,316.5,415.47Z"/><path class="cls-1" d="M420.26,389.46h-62a5,5,0,0,1,0-10h62a5,5,0,0,1,0,10Z"/><path class="cls-1" d="M373.74,415.47a4.94,4.94,0,0,1-2.5-.67,5,5,0,0,1-1.83-6.83L400,355a5,5,0,0,1,8.66,5L378.07,413A5,5,0,0,1,373.74,415.47Z"/><path class="cls-1" d="M404.31,415.47A5,5,0,0,1,400,413L369.41,360a5,5,0,1,1,8.66-5L408.64,408a5,5,0,0,1-1.83,6.83A4.94,4.94,0,0,1,404.31,415.47Z"/><path class="cls-1" d="M244,389.46H182a5,5,0,1,1,0-10h62a5,5,0,1,1,0,10Z"/><path class="cls-1" d="M198.41,415.47a4.94,4.94,0,0,1-2.5-.67,5,5,0,0,1-1.83-6.83L224.65,355a5,5,0,0,1,8.66,5L202.74,413A5,5,0,0,1,198.41,415.47Z"/><path class="cls-1" d="M229,415.47a5,5,0,0,1-4.33-2.5L194.08,360a5,5,0,0,1,8.66-5L233.31,408a5,5,0,0,1-1.83,6.83A4.94,4.94,0,0,1,229,415.47Z"/><path class="cls-1" d="M155.85,389.46h-62a5,5,0,1,1,0-10h62a5,5,0,0,1,0,10Z"/><path class="cls-1" d="M110.24,415.47a4.88,4.88,0,0,1-2.49-.67,5,5,0,0,1-1.83-6.83L136.48,355a5,5,0,0,1,8.66,5L114.58,413A5,5,0,0,1,110.24,415.47Z"/><path class="cls-1" d="M140.82,415.47a5,5,0,0,1-4.34-2.5L105.91,360a5,5,0,1,1,8.66-5L145.14,408a5,5,0,0,1-1.83,6.83A4.93,4.93,0,0,1,140.82,415.47Z"/><path class="cls-1" d="M470,196.25H456.8a5,5,0,1,1,0-10H470a5,5,0,0,1,0,10Z"/><path class="cls-1" d="M438.63,250.59a5,5,0,0,1-4.34-2.5l-6.59-11.42a5,5,0,1,1,8.66-5l6.6,11.42a5,5,0,0,1-1.84,6.83A4.88,4.88,0,0,1,438.63,250.59Z"/><path class="cls-1" d="M450.17,171.47a5,5,0,0,1-2.51-9.33l11.43-6.6a5,5,0,0,1,5,8.67l-11.43,6.59A4.88,4.88,0,0,1,450.17,171.47Z"/><path class="cls-1" d="M461.59,227.63a5,5,0,0,1-2.5-.67l-11.42-6.6a5,5,0,1,1,5-8.66l11.42,6.59a5,5,0,0,1-2.5,9.34Z"/><path class="cls-1" d="M432,153.34a5,5,0,0,1-4.32-7.5l6.59-11.43a5,5,0,0,1,8.67,5l-6.6,11.43A5,5,0,0,1,432,153.34Z"/></g></svg>