<?xml version="1.0" ?><svg viewBox="0 0 512 512" xmlns="http://www.w3.org/2000/svg"><defs><style>.cls-1{fill:#3f456b;}</style></defs><title/><g id="Lines"><path class="cls-1" d="M110.84,453a57.87,57.87,0,0,1-19.1-3.4c-10.44-3.76-24.45-12.43-31.92-32.39a5,5,0,0,1,9.36-3.5c11.64,31.08,41.68,29.36,42.95,29.26a5,5,0,0,1,.75,10C112.78,453,112.05,453,110.84,453Z"/><path class="cls-1" d="M18.16,453c-1.21,0-1.94-.05-2-.05a5,5,0,0,1,.76-10c1.26.09,31.3,1.83,42.94-29.26a5,5,0,1,1,9.36,3.5c-7.47,20-21.48,28.63-31.92,32.39A57.87,57.87,0,0,1,18.16,453Z"/><path class="cls-1" d="M206.84,453a57.87,57.87,0,0,1-19.1-3.4c-10.44-3.76-24.45-12.43-31.92-32.39a5,5,0,0,1,9.36-3.5c11.64,31.08,41.68,29.36,42.95,29.26a5,5,0,0,1,.75,10C208.78,453,208.05,453,206.84,453Z"/><path class="cls-1" d="M114.16,453c-1.21,0-1.94-.05-2-.05a5,5,0,0,1,.75-10c1.28.09,31.31,1.82,42.95-29.26a5,5,0,1,1,9.36,3.5c-7.47,20-21.48,28.63-31.92,32.39A57.87,57.87,0,0,1,114.16,453Z"/><path class="cls-1" d="M302.84,453a57.87,57.87,0,0,1-19.1-3.4c-10.44-3.76-24.45-12.43-31.92-32.39a5,5,0,0,1,9.36-3.5c11.64,31.08,41.68,29.36,42.95,29.26a5,5,0,0,1,.75,10C304.78,453,304.05,453,302.84,453Z"/><path class="cls-1" d="M210.16,453c-1.21,0-1.94-.05-2-.05a5,5,0,0,1,.75-10c1.28.09,31.31,1.82,42.95-29.26a5,5,0,1,1,9.36,3.5c-7.47,20-21.48,28.63-31.92,32.39A57.87,57.87,0,0,1,210.16,453Z"/><path class="cls-1" d="M399.84,453a57.87,57.87,0,0,1-19.1-3.4c-10.44-3.76-24.45-12.43-31.92-32.39a5,5,0,1,1,9.36-3.5c11.64,31.08,41.68,29.36,42.95,29.26a5,5,0,0,1,.75,10C401.78,453,401.05,453,399.84,453Z"/><path class="cls-1" d="M307.16,453c-1.21,0-1.94-.05-2-.05a5,5,0,0,1,.75-10c1.28.09,31.31,1.82,42.95-29.26a5,5,0,1,1,9.36,3.5c-7.47,20-21.48,28.63-31.92,32.39A57.87,57.87,0,0,1,307.16,453Z"/><path class="cls-1" d="M495.84,453a57.87,57.87,0,0,1-19.1-3.4c-10.44-3.76-24.45-12.43-31.92-32.39a5,5,0,1,1,9.36-3.5c11.64,31.08,41.68,29.36,42.95,29.26a5,5,0,0,1,.75,10C497.78,453,497.05,453,495.84,453Z"/><path class="cls-1" d="M403.16,453c-1.21,0-1.94-.05-2-.05a5,5,0,0,1,.75-10c1.28.09,31.31,1.82,42.95-29.26a5,5,0,1,1,9.36,3.5c-7.47,20-21.48,28.63-31.92,32.39A57.87,57.87,0,0,1,403.16,453Z"/><path class="cls-1" d="M310.53,383h-5.06a16.1,16.1,0,0,1-16.08-16.09V292.09A16.1,16.1,0,0,1,305.47,276h5.06a16.1,16.1,0,0,1,16.08,16.09v74.82A16.1,16.1,0,0,1,310.53,383Zm-5.06-97a6.09,6.09,0,0,0-6.08,6.09v74.82a6.09,6.09,0,0,0,6.08,6.09h5.06a6.09,6.09,0,0,0,6.08-6.09V292.09a6.09,6.09,0,0,0-6.08-6.09Z"/><path class="cls-1" d="M454.53,383h-5.06a16.1,16.1,0,0,1-16.08-16.09V292.09A16.1,16.1,0,0,1,449.47,276h5.06a16.1,16.1,0,0,1,16.08,16.09v74.82A16.1,16.1,0,0,1,454.53,383Zm-5.06-97a6.09,6.09,0,0,0-6.08,6.09v74.82a6.09,6.09,0,0,0,6.08,6.09h5.06a6.09,6.09,0,0,0,6.08-6.09V292.09a6.09,6.09,0,0,0-6.08-6.09Z"/><path class="cls-1" d="M417.41,260.11H342.59A16.1,16.1,0,0,1,326.5,244V239a16.1,16.1,0,0,1,16.09-16.08h74.82A16.1,16.1,0,0,1,433.5,239V244A16.1,16.1,0,0,1,417.41,260.11Zm-74.82-27.22A6.09,6.09,0,0,0,336.5,239V244a6.09,6.09,0,0,0,6.09,6.08h74.82A6.09,6.09,0,0,0,423.5,244V239a6.09,6.09,0,0,0-6.09-6.08Z"/><path class="cls-1" d="M291,362H220a5,5,0,0,1,0-10h71a5,5,0,0,1,0,10Z"/><path class="cls-1" d="M47.17,362H16a5,5,0,0,1-5-5V301a5,5,0,0,1,5-5H48.39a5,5,0,0,1,0,10H21v46H47.17a5,5,0,1,1,0,10Z"/><path class="cls-1" d="M291,306H220a5,5,0,0,1,0-10h71a5,5,0,0,1,0,10Z"/><path class="cls-1" d="M438,367H321.9a5,5,0,0,1,0-10H438a5,5,0,0,1,0,10Z"/><path class="cls-1" d="M325.47,301.47a5,5,0,0,1,0-10c5.81,0,10.12-1.51,12.84-4.49,4.18-4.58,3.67-11.45,3.66-11.52s0-.3,0-.46V256a5,5,0,0,1,10,0v18.87c.11,1.84.38,11.62-6.25,18.9C341,298.87,334.21,301.47,325.47,301.47Z"/><path class="cls-1" d="M435.17,301.47c-8.9,0-15.85-2.63-20.67-7.83-6.78-7.3-6.63-17.08-6.55-18.78V256a5,5,0,0,1,10,0V275c0,.13,0,.25,0,.38s-.37,6.92,3.95,11.52c2.85,3,7.32,4.57,13.29,4.57a5,5,0,1,1,0,10Z"/><path class="cls-1" d="M64.53,383H59.47a16.1,16.1,0,0,1-16.08-16.09V292.09A16.1,16.1,0,0,1,59.47,276h5.06a16.1,16.1,0,0,1,16.08,16.09v74.82A16.1,16.1,0,0,1,64.53,383Zm-5.06-97a6.09,6.09,0,0,0-6.08,6.09v74.82A6.09,6.09,0,0,0,59.47,373h5.06a6.09,6.09,0,0,0,6.08-6.09V292.09A6.09,6.09,0,0,0,64.53,286Z"/><path class="cls-1" d="M208.53,383h-5.06a16.1,16.1,0,0,1-16.08-16.09V292.09A16.1,16.1,0,0,1,203.47,276h5.06a16.1,16.1,0,0,1,16.08,16.09v74.82A16.1,16.1,0,0,1,208.53,383Zm-5.06-97a6.09,6.09,0,0,0-6.08,6.09v74.82a6.09,6.09,0,0,0,6.08,6.09h5.06a6.09,6.09,0,0,0,6.08-6.09V292.09a6.09,6.09,0,0,0-6.08-6.09Z"/><path class="cls-1" d="M171.41,260.11H96.59A16.1,16.1,0,0,1,80.5,244V239a16.1,16.1,0,0,1,16.09-16.08h74.82A16.1,16.1,0,0,1,187.5,239V244A16.1,16.1,0,0,1,171.41,260.11ZM96.59,232.89A6.09,6.09,0,0,0,90.5,239V244a6.09,6.09,0,0,0,6.09,6.08h74.82A6.09,6.09,0,0,0,177.5,244V239a6.09,6.09,0,0,0-6.09-6.08Z"/><path class="cls-1" d="M96.5,367H75.9a5,5,0,1,1,0-10H96.5a5,5,0,0,1,0,10Z"/><path class="cls-1" d="M192,367H169.83a5,5,0,0,1,0-10H192a5,5,0,0,1,0,10Z"/><path class="cls-1" d="M79.47,301.47a5,5,0,0,1,0-10c5.81,0,10.12-1.51,12.84-4.49C96.49,282.4,96,275.53,96,275.46s0-.3,0-.46V256a5,5,0,0,1,10,0v18.87c.11,1.84.38,11.62-6.25,18.9C95,298.87,88.21,301.47,79.47,301.47Z"/><path class="cls-1" d="M189.17,301.47c-8.9,0-15.85-2.63-20.67-7.83-6.78-7.3-6.63-17.08-6.55-18.78V256a5,5,0,0,1,10,0V275c0,.13,0,.25,0,.38s-.37,6.92,3.95,11.52c2.85,3,7.32,4.57,13.29,4.57a5,5,0,0,1,0,10Z"/><path class="cls-1" d="M496,362H465.9a5,5,0,0,1,0-10H491V306H465.9a5,5,0,0,1,0-10H496a5,5,0,0,1,5,5v56A5,5,0,0,1,496,362Z"/><path class="cls-1" d="M133.52,411.41h-.18l-1.78-.07c-20.21,0-36.77-12.54-40.29-30.43-3.85-19.58,7.3-34.78,17.13-48.19a144.32,144.32,0,0,0,10.06-14.92,97.93,97.93,0,0,0,8.66-21.05A5,5,0,0,1,132,293h1.4a5,5,0,0,1,4.84,3.75,97.93,97.93,0,0,0,8.66,21.05,147.36,147.36,0,0,0,10,14.9c9.86,13.48,21,28.75,17.17,48.35C170.53,398.93,153.87,411.41,133.52,411.41Zm-.86-100.12a116.37,116.37,0,0,1-5.45,11.35,156.8,156.8,0,0,1-10.74,16C107,351.53,98.08,363.71,101.08,379c3,15.45,17.55,22.36,30.58,22.36h.18l1.78.07c18.13,0,28.44-11.21,30.62-22.29,3-15.3-6-27.55-15.43-40.52a156.45,156.45,0,0,1-10.7-16A116.37,116.37,0,0,1,132.66,311.29Z"/><path class="cls-1" d="M380,210A100,100,0,1,1,480,110,100.09,100.09,0,0,1,380,210Zm0-190a90,90,0,1,0,90,90A90.08,90.08,0,0,0,380,20Z"/><path class="cls-1" d="M382,119a5,5,0,0,1-4.35-2.53l-37-65a5,5,0,0,1,8.7-4.94l37,65A5,5,0,0,1,382,119Z"/><path class="cls-1" d="M358,232a5,5,0,0,1-5-5V204a5,5,0,0,1,10,0v23A5,5,0,0,1,358,232Z"/><path class="cls-1" d="M401,232a5,5,0,0,1-5-5V204a5,5,0,0,1,10,0v23A5,5,0,0,1,401,232Z"/><path class="cls-1" d="M56.16,151.29A31.25,31.25,0,1,1,78.08,97.76c2.72,2.22,10.47,7.56,16.09,7.56h15a5,5,0,0,1,0,10h-15c-10.35,0-21.42-9-22.65-10-.11-.1-.23-.2-.33-.31a21.26,21.26,0,1,0,0,30.06,1.29,1.29,0,0,1,.17-.16c1.14-1,11.48-10.14,22.81-10.14h14.15a5,5,0,0,1,0,10H94.17c-6.32,0-13.61,5.32-16,7.46A31.05,31.05,0,0,1,56.16,151.29Z"/><path class="cls-1" d="M211.75,151.29a31,31,0,0,1-22-9c-2.4-2.14-9.75-7.47-16-7.47H157.05a5,5,0,0,1,0-10h16.68c11.33,0,21.67,9.1,22.81,10.14l.18.16a21.26,21.26,0,1,0,0-30.06l-.34.31c-1.23,1-12.3,10-22.65,10H157.05a5,5,0,0,1,0-10h16.68c5.62,0,13.36-5.33,16.1-7.56a31.25,31.25,0,1,1,21.92,53.53Z"/><path class="cls-1" d="M133.07,150.68A30.64,30.64,0,1,1,163.7,120,30.67,30.67,0,0,1,133.07,150.68Zm0-51.28A20.64,20.64,0,1,0,153.7,120,20.66,20.66,0,0,0,133.07,99.4Z"/><path class="cls-1" d="M104,232a5,5,0,0,1-5-5c0-12.73,5.15-19.88,9.47-23.65a25.05,25.05,0,0,1,6-3.88V143a5,5,0,0,1,10,0v60a5,5,0,0,1-4.05,4.91c-1.12.25-11.46,3-11.46,19.09A5,5,0,0,1,104,232Z"/><path class="cls-1" d="M165,232a5,5,0,0,1-5-5c0-6.7-2.31-11.95-6.87-15.6a19.89,19.89,0,0,0-6.74-3.53,5,5,0,0,1-3.88-4.87V143a5,5,0,1,1,10,0v56.39C160.06,202.66,170,211,170,227A5,5,0,0,1,165,232Z"/></g><g id="Outline"><path class="cls-1" d="M450,115h-5.88a5,5,0,0,1,0-10H450a5,5,0,0,1,0,10Z"/><path class="cls-1" d="M316.33,115h-5.87a5,5,0,0,1,0-10h5.87a5,5,0,0,1,0,10Z"/><path class="cls-1" d="M380.23,50.52a5,5,0,0,1-5-5V40.21a5,5,0,1,1,10,0v5.31A5,5,0,0,1,380.23,50.52Z"/><path class="cls-1" d="M435.57,83a5,5,0,0,1-2.51-9.33l5.09-2.94a5,5,0,1,1,5,8.66l-5.09,2.94A5,5,0,0,1,435.57,83Z"/><path class="cls-1" d="M319.81,149.87a5,5,0,0,1-2.51-9.33l5.09-2.94a5,5,0,1,1,5,8.66l-5.09,2.94A4.88,4.88,0,0,1,319.81,149.87Z"/><path class="cls-1" d="M348,59.16a5,5,0,0,1-4.33-2.5L341,52.06a5,5,0,0,1,8.66-5l2.66,4.6a5,5,0,0,1-4.33,7.5Z"/><path class="cls-1" d="M412.17,59.65a4.88,4.88,0,0,1-2.49-.67,5,5,0,0,1-1.83-6.83l2.93-5.09a5,5,0,0,1,8.66,5l-2.93,5.09A5,5,0,0,1,412.17,59.65Z"/><path class="cls-1" d="M440.65,149.87a4.94,4.94,0,0,1-2.5-.67l-4.92-2.84a5,5,0,0,1,5-8.66l4.92,2.84a5,5,0,0,1-2.5,9.33Z"/><path class="cls-1" d="M324.4,82.75a4.94,4.94,0,0,1-2.5-.67l-4.6-2.65a5,5,0,0,1,5-8.66l4.6,2.65a5,5,0,0,1-2.5,9.33Z"/><path class="cls-1" d="M257.5,360a5,5,0,0,1-5-5V303a5,5,0,0,1,10,0v52A5,5,0,0,1,257.5,360Z"/></g></svg>