<?xml version="1.0" ?><svg viewBox="0 0 512 512" xmlns="http://www.w3.org/2000/svg"><defs><style>.cls-1{fill:#3f456b;}</style></defs><title/><g id="Lines"><path class="cls-1" d="M320,165H192a5,5,0,0,1-5-5V16a5,5,0,0,1,5-5H320a5,5,0,0,1,5,5V160A5,5,0,0,1,320,165ZM197,155H315V21H197Z"/><path class="cls-1" d="M496,405H15a5,5,0,0,1-5-5V335a5,5,0,0,1,5-5H496a5,5,0,0,1,5,5v65A5,5,0,0,1,496,405ZM20,395H491V340H20Z"/><path class="cls-1" d="M15,340a5,5,0,0,1-3.52-8.56l177-175a5,5,0,0,1,7,7.12l-177,175A5,5,0,0,1,15,340Z"/><path class="cls-1" d="M496,340a5,5,0,0,1-3.53-1.45l-176-175a5,5,0,1,1,7.06-7.1l176,175A5,5,0,0,1,496,340Z"/><path class="cls-1" d="M56,388.78A21.44,21.44,0,1,1,77.4,367.34,21.47,21.47,0,0,1,56,388.78Zm0-32.88A11.44,11.44,0,1,0,67.4,367.34,11.46,11.46,0,0,0,56,355.9Z"/><path class="cls-1" d="M108,388.78a21.44,21.44,0,1,1,21.44-21.44A21.47,21.47,0,0,1,108,388.78Zm0-32.88a11.44,11.44,0,1,0,11.44,11.44A11.46,11.46,0,0,0,108,355.9Z"/><path class="cls-1" d="M403,372a5,5,0,0,1-5-5v-1a5,5,0,0,1,10,0v1A5,5,0,0,1,403,372Z"/><path class="cls-1" d="M429,372a5,5,0,0,1-5-5v-1a5,5,0,0,1,10,0v1A5,5,0,0,1,429,372Z"/><path class="cls-1" d="M455,372a5,5,0,0,1-5-5v-1a5,5,0,0,1,10,0v1A5,5,0,0,1,455,372Z"/></g><g id="Outline"><path class="cls-1" d="M256,405a5,5,0,0,1-5-5V385a5,5,0,0,1,10,0v15A5,5,0,0,1,256,405Z"/><path class="cls-1" d="M228,405a5,5,0,0,1-5-5V385a5,5,0,0,1,10,0v15A5,5,0,0,1,228,405Z"/><path class="cls-1" d="M283,405a5,5,0,0,1-5-5V385a5,5,0,0,1,10,0v15A5,5,0,0,1,283,405Z"/><path class="cls-1" d="M310,405a5,5,0,0,1-5-5V385a5,5,0,0,1,10,0v15A5,5,0,0,1,310,405Z"/><path class="cls-1" d="M201,405a5,5,0,0,1-5-5V385a5,5,0,0,1,10,0v15A5,5,0,0,1,201,405Z"/><path class="cls-1" d="M250,497a5,5,0,0,1,5-5h0a5,5,0,0,1,5,5h0a5,5,0,0,1-5,5h0A5,5,0,0,1,250,497Zm0-20a5,5,0,0,1,5-5h0a5,5,0,0,1,5,5h0a5,5,0,0,1-5,5h0A5,5,0,0,1,250,477Zm0-20a5,5,0,0,1,5-5h0a5,5,0,0,1,5,5h0a5,5,0,0,1-5,5h0A5,5,0,0,1,250,457Zm0-20a5,5,0,0,1,5-5h0a5,5,0,0,1,5,5h0a5,5,0,0,1-5,5h0A5,5,0,0,1,250,437Zm0-20a5,5,0,0,1,5-5h0a5,5,0,0,1,5,5h0a5,5,0,0,1-5,5h0A5,5,0,0,1,250,417Z"/><path class="cls-1" d="M355,503.36a5,5,0,0,1-3.05-6.38h0a5,5,0,0,1,6.38-3.05h0a5,5,0,0,1,3,6.38h0a5,5,0,0,1-4.71,3.34h0A4.84,4.84,0,0,1,355,503.36Zm-18.83-10.63a5,5,0,0,1-.67-7h0a5,5,0,0,1,7-.67h0a5,5,0,0,1,.67,7h0a5,5,0,0,1-3.85,1.82h0A5,5,0,0,1,336.15,492.73ZM322,476.56h0a5,5,0,0,1,1.53-6.9h0a5,5,0,0,1,6.91,1.53h0a5,5,0,0,1-1.54,6.9h0a5,5,0,0,1-2.68.78h0A5,5,0,0,1,322,476.56ZM313,457.5a5,5,0,0,1,3.07-6.37h0a5,5,0,0,1,6.37,3.07h0a5,5,0,0,1-3.07,6.37h0a5.06,5.06,0,0,1-1.65.28h0A5,5,0,0,1,313,457.5Zm-5.11-20.22a5,5,0,0,1,4.1-5.75h0a5,5,0,0,1,5.76,4.1h0a5,5,0,0,1-4.1,5.76h0a4.76,4.76,0,0,1-.84.07h0A5,5,0,0,1,307.84,437.28Zm3-15.78a5,5,0,0,1-4.87-5.13h0a5,5,0,0,1,5.13-4.87h0a5,5,0,0,1,4.87,5.13h0a5,5,0,0,1-5,4.87h-.13Z"/><path class="cls-1" d="M492.75,501.47a5,5,0,0,1-4.93-5.07h0a5,5,0,0,1,5.07-4.93h0a5,5,0,0,1,4.93,5.07h0a5,5,0,0,1-5,4.93h-.07Zm-20.33-1.06A5,5,0,0,1,467.9,495h0a5,5,0,0,1,5.44-4.52h0a5,5,0,0,1,4.52,5.44h0a5,5,0,0,1-5,4.54h0A3.54,3.54,0,0,1,472.42,500.41Zm-20.27-2.87h0a5,5,0,0,1-3.95-5.86h0a5,5,0,0,1,5.87-3.95h0a5,5,0,0,1,3.95,5.86h0a5,5,0,0,1-4.9,4h0A5.39,5.39,0,0,1,452.15,497.54Zm-19.94-5.19a5,5,0,0,1-3.16-6.33h0a5,5,0,0,1,6.33-3.16h0a5,5,0,0,1,3.16,6.33h0a5,5,0,0,1-4.75,3.42h0A5.17,5.17,0,0,1,432.21,492.35Zm-19.12-8.17a5,5,0,0,1-2-6.77h0a5,5,0,0,1,6.77-2h0a5,5,0,0,1,2.05,6.76h0a5,5,0,0,1-4.41,2.64h0A5,5,0,0,1,413.09,484.18Zm-17.38-11.79a5,5,0,0,1-.56-7h0a5,5,0,0,1,7.05-.56h0a5,5,0,0,1,.55,7h0a5,5,0,0,1-3.8,1.75h0A4.93,4.93,0,0,1,395.71,472.39Zm-14.28-15.66h0a5,5,0,0,1,1.24-7h0a5,5,0,0,1,7,1.23h0a5,5,0,0,1-1.23,7h0a5,5,0,0,1-2.86.9h0A5,5,0,0,1,381.43,456.73Zm-9.72-19a5,5,0,0,1,3.05-6.37h0a5,5,0,0,1,6.38,3h0a5,5,0,0,1-3.06,6.37h0a5.08,5.08,0,0,1-1.66.28h0A5,5,0,0,1,371.71,437.78Zm.76-16.28a5,5,0,0,1-4.8-5.2h0a5,5,0,0,1,5.19-4.8h0a5,5,0,0,1,4.8,5.19h0a5,5,0,0,1-5,4.81h-.2Z"/><path class="cls-1" d="M150.64,500.31a5,5,0,0,1,3.05-6.38h0a5,5,0,0,1,6.38,3h0a5,5,0,0,1-3,6.38h0a4.85,4.85,0,0,1-1.67.29h0A5,5,0,0,1,150.64,500.31Zm18.16-8.24a5,5,0,0,1,.67-7h0a5,5,0,0,1,7,.67h0a5,5,0,0,1-.67,7h0a5,5,0,0,1-3.18,1.14h0A5,5,0,0,1,168.8,492.07Zm14.25-14a5,5,0,0,1-1.53-6.9h0a5,5,0,0,1,6.9-1.53h0a5,5,0,0,1,1.53,6.9h0a5,5,0,0,1-4.22,2.32h0A5,5,0,0,1,183.05,478.09Zm9.63-17.52a5,5,0,0,1-3.08-6.37h0a5,5,0,0,1,6.37-3.07h0A5,5,0,0,1,199,457.5h0a5,5,0,0,1-4.72,3.35h0A5,5,0,0,1,192.68,460.57Zm5.72-19.18a5,5,0,0,1-4.11-5.76h0a5,5,0,0,1,5.76-4.1h0a5,5,0,0,1,4.11,5.75h0a5,5,0,0,1-4.93,4.18h0A5.93,5.93,0,0,1,198.4,441.39ZM196,416.58h0a5,5,0,0,1,4.92-5.08h0a5,5,0,0,1,5.07,4.92h0a5,5,0,0,1-4.93,5.08H201A5,5,0,0,1,196,416.58Z"/><path class="cls-1" d="M14.17,496.54a5,5,0,0,1,4.93-5.07h0a5,5,0,0,1,5.07,4.93h0a5,5,0,0,1-4.92,5.07h-.08A5,5,0,0,1,14.17,496.54Zm20-.64a5,5,0,0,1,4.51-5.45h0A5,5,0,0,1,44.09,495h0a5,5,0,0,1-4.51,5.44h0a3.7,3.7,0,0,1-.47,0h0A5,5,0,0,1,34.14,495.9ZM54,493.59a5,5,0,0,1,4-5.86h0a5,5,0,0,1,5.86,3.95h0a5,5,0,0,1-3.95,5.86h0a5.2,5.2,0,0,1-1,.09h0A5,5,0,0,1,54,493.59Zm19.48-4.4a5,5,0,0,1,3.15-6.33h0A5,5,0,0,1,82.94,486h0a5,5,0,0,1-3.16,6.33h0a5.13,5.13,0,0,1-1.58.26h0A5,5,0,0,1,73.46,489.19Zm18.68-7.05a5,5,0,0,1,2-6.77h0a5,5,0,0,1,6.77,2h0a5,5,0,0,1-2,6.77h0a5,5,0,0,1-2.35.59h0A5,5,0,0,1,92.14,482.14Zm17.1-10.3a5,5,0,0,1,.55-7h0a5,5,0,0,1,7,.56h0a5,5,0,0,1-.55,7h0a5,5,0,0,1-3.25,1.19h0A5,5,0,0,1,109.24,471.84ZM123.6,458a5,5,0,0,1-1.24-7h0a5,5,0,0,1,7-1.24h0a5,5,0,0,1,1.23,7h0a5,5,0,0,1-4.1,2.13h0A5,5,0,0,1,123.6,458Zm10.31-17.12a5,5,0,0,1-3.06-6.37h0a5,5,0,0,1,6.38-3.06h0a5,5,0,0,1,3.06,6.37h0a5,5,0,0,1-4.72,3.35h0A5.09,5.09,0,0,1,133.91,440.84Zm.42-24.24h0a5,5,0,0,1,4.9-5.1h0a5,5,0,0,1,5.1,4.9h0a5,5,0,0,1-4.9,5.1h-.1A5,5,0,0,1,134.33,416.6Z"/></g></svg>