<?xml version="1.0" ?><svg viewBox="0 0 512 512" xmlns="http://www.w3.org/2000/svg"><defs><style>.cls-1{fill:#3f456b;}</style></defs><title/><g id="Lines"><path class="cls-1" d="M84,292H16a5,5,0,0,1-5-5V15a5,5,0,0,1,5-5H256a5,5,0,0,1,5,5V236a5,5,0,0,1-10,0V20H21V282H84a5,5,0,0,1,0,10Z"/><path class="cls-1" d="M168,292H124a5,5,0,0,1,0-10h44a5,5,0,0,1,0,10Z"/><path class="cls-1" d="M256,68H16a5,5,0,0,1,0-10H256a5,5,0,0,1,0,10Z"/><path class="cls-1" d="M16,164.5a5,5,0,0,1-1.37-9.81C15.22,154.52,74,138,136,138s120.78,16.52,121.37,16.69a5,5,0,0,1-2.74,9.62C254.06,164.15,196.54,148,136,148S17.94,164.15,17.37,164.31A5,5,0,0,1,16,164.5Z"/><path class="cls-1" d="M353.86,331.1a5,5,0,0,1-1.87-9.64l23.21-9.34c4.47-1.8,7.16-4.59,8.22-8.52a34.69,34.69,0,0,0,.83-7.85c.17-5.07.35-10.82,4-16.24a26.74,26.74,0,0,1,25.41-11.43c9.76,1.3,17.66,8.08,21.14,18.14,5,14.43-1.48,29.43-15,34.89a5,5,0,1,1-3.74-9.27c8.54-3.44,12.55-13,9.33-22.36-3.07-8.9-9.46-11-13-11.48a16.63,16.63,0,0,0-15.82,7.13c-2.06,3-2.18,6.7-2.32,10.95a42.3,42.3,0,0,1-1.17,10.14c-1.89,7-6.77,12.21-14.13,15.17l-23.22,9.35A4.88,4.88,0,0,1,353.86,331.1Z"/><path class="cls-1" d="M350.06,365.12a5,5,0,0,1-1.86-9.64l38.26-15.41c7.36-3,14.52-2.57,20.7,1.14a42.7,42.7,0,0,1,7.88,6.51c3,3,5.67,5.53,9.25,6.28a16.64,16.64,0,0,0,16.35-5.82c2.23-2.79,5.37-8.74,1.42-17.29-4.13-8.94-13.68-13.09-22.22-9.65A5,5,0,1,1,416.1,312c13.57-5.46,28.63.87,35,14.74,4.47,9.66,3.47,20-2.67,27.72a26.74,26.74,0,0,1-26.24,9.37c-6.41-1.36-10.53-5.37-14.16-8.91a34.89,34.89,0,0,0-6-5.09c-3.49-2.1-7.36-2.24-11.83-.44l-38.26,15.4A4.91,4.91,0,0,1,350.06,365.12Z"/><path class="cls-1" d="M160.34,331.1a4.9,4.9,0,0,1-1.87-.36l-23.21-9.35c-7.36-3-12.25-8.21-14.14-15.17A43.34,43.34,0,0,1,120,296.08c-.14-4.25-.26-7.92-2.31-10.95A16.64,16.64,0,0,0,101.81,278c-3.53.47-9.92,2.58-13,11.48-3.22,9.31.79,18.92,9.33,22.36a5,5,0,0,1-3.73,9.27c-13.57-5.46-20-20.46-15-34.89,3.48-10.06,11.38-16.84,21.13-18.14a26.75,26.75,0,0,1,25.42,11.43c3.68,5.42,3.87,11.17,4,16.24a34.71,34.71,0,0,0,.82,7.85c1.07,3.93,3.76,6.72,8.23,8.52l23.21,9.34a5,5,0,0,1-1.87,9.64Z"/><path class="cls-1" d="M164.13,365.12a5,5,0,0,1-1.87-.37L124,349.35c-4.46-1.8-8.33-1.66-11.82.44a34.89,34.89,0,0,0-6,5.09c-3.63,3.54-7.75,7.55-14.17,8.91a26.74,26.74,0,0,1-26.24-9.37c-6.13-7.7-7.13-18.06-2.67-27.72,6.4-13.87,21.46-20.2,35-14.74a5,5,0,0,1-3.73,9.28c-8.54-3.44-18.09.71-22.22,9.65-4,8.55-.81,14.5,1.41,17.29A16.65,16.65,0,0,0,89.9,354c3.58-.75,6.21-3.32,9.26-6.28a42.63,42.63,0,0,1,7.87-6.51c6.19-3.71,13.35-4.1,20.71-1.14L166,355.48a5,5,0,0,1-1.87,9.64Z"/><path class="cls-1" d="M259.9,442.44c-21.92,0-41.91-2.58-47.72-4.43a15.74,15.74,0,0,1-11.46-15.27,74.11,74.11,0,0,1,1.22-15.52c.43-2.8,1-6.27,1.58-11.29.28-2.24,0-3.59-.43-3.9-1.06-.83-4.82-.29-6.84.49l-.35.12c-16,4.78-26.2-6.87-29.45-13.83-7.07-13.22-11.12-31.09-11.12-49.07,0-27.41,8.77-52.12,24.68-69.58C197.4,241.08,222.52,231,252.67,231H261c30.14,0,55.26,10.08,72.65,29.16,15.91,17.46,24.68,42.17,24.68,69.58,0,18.14-4.05,36.1-11.12,49.32-2.72,5.79-10.32,14.83-22.08,14.83a25.68,25.68,0,0,1-7.37-1.13l-.32-.11c-2.66-1-6.15-1.23-7-.51-.21.16-.66,1.16-.29,3.73.33,2.27.74,4.51,1.13,6.68,1.14,6.38,2.33,13,1.69,20.48,0,9.88-6.84,14.18-10.51,15.08C289.76,441.31,274.4,442.44,259.9,442.44ZM201,381.6a13.13,13.13,0,0,1,8.25,2.55c2.41,1.88,5.09,5.66,4.2,13-.63,5.19-1.19,8.75-1.63,11.61a65.36,65.36,0,0,0-1.1,13.95,1.87,1.87,0,0,1,0,.41c0,.84.26,4,4.5,5.37,8,2.55,54.56,7.55,84.72-.06.76-.24,3.05-1.32,3-5.51a3.13,3.13,0,0,1,0-.53c.57-6.25-.46-12-1.56-18.06-.4-2.25-.82-4.58-1.17-7-1.06-7.27,1.54-11.07,3.9-13,5.76-4.64,14.5-1.91,16.64-1.13,11.44,3.34,16.85-7.29,17.44-8.51,0-.08.08-.18.12-.26,6.26-11.64,10-28.36,10-44.71,0-24.91-7.84-47.23-22.07-62.84C310.81,250,288.24,241,261,241h-8.32c-27.26,0-49.83,9-65.27,25.9-14.23,15.61-22.07,37.93-22.07,62.84,0,16.44,3.65,32.65,10,44.47a2.59,2.59,0,0,1,.14.29c.57,1.21,6,11.92,17.41,8.6A25,25,0,0,1,201,381.6Z"/><path class="cls-1" d="M208.75,361.19a46.57,46.57,0,0,1-7.73-.66c-7.76-1.29-13.79-5-17.92-10.91-8.72-12.56-5.29-30.82-5.14-31.59a1.1,1.1,0,0,1,.06-.26c.24-1,2.58-9.54,9.68-13.09,2.73-1.37,7.22-2.47,13.11,0a55.74,55.74,0,0,1,10.34,6.06c7.12,4.94,14.47,10,33.77,9.78a5,5,0,0,1,5.06,5.27c0,.55-.4,5.59-4.14,12.58h0C239.63,349.94,226.91,361.19,208.75,361.19Zm-21-41.1c-.27,1.57-2.39,15.28,3.59,23.86,2.56,3.68,6.27,5.88,11.33,6.72,17.08,2.85,28.94-6.93,34.35-17h0a32.26,32.26,0,0,0,1.52-3.25c-17.89-.91-26.24-6.69-33.08-11.43a46.07,46.07,0,0,0-8.52-5.07c-2.88-1.21-4.28-.52-4.74-.29C189.71,314.83,188.16,318.65,187.75,320.09Z"/><path class="cls-1" d="M305.8,361.19c-18.16,0-30.89-11.25-37.09-22.82h0c-3.74-7-4.12-12-4.15-12.58a5,5,0,0,1,1.39-3.73,4.89,4.89,0,0,1,3.67-1.54c19.28.27,26.65-4.84,33.78-9.77a55.21,55.21,0,0,1,10.34-6.07c5.89-2.47,10.38-1.37,13.1,0,7.11,3.55,9.45,12.12,9.69,13.09l.06.26c.15.77,3.58,19-5.14,31.59-4.13,5.95-10.16,9.62-17.93,10.91A46.45,46.45,0,0,1,305.8,361.19ZM276,330.4a34.62,34.62,0,0,0,1.52,3.25h0c5.41,10.09,17.28,19.87,34.36,17,5.07-.85,8.79-3.05,11.35-6.75,5.92-8.52,3.83-22.31,3.57-23.84s-2-5.24-4.45-6.47c-.46-.23-1.86-.92-4.75.29a46,46,0,0,0-8.51,5.07C302.24,323.71,293.89,329.49,276,330.4Z"/><path class="cls-1" d="M256,442a5,5,0,0,1-5-5V417a5,5,0,0,1,10,0v20A5,5,0,0,1,256,442Z"/><path class="cls-1" d="M229.81,440.86a5,5,0,0,1-5-4.95c-.13-13.66,2.25-22.32,2.35-22.68a5,5,0,1,1,9.63,2.69,80.35,80.35,0,0,0-2,19.9,5,5,0,0,1-5,5Z"/><path class="cls-1" d="M283.13,440.86h-.05a5,5,0,0,1-4.95-5c.11-12.25-2-19.82-2-19.89a5,5,0,1,1,9.63-2.7c.1.36,2.49,9,2.36,22.68A5,5,0,0,1,283.13,440.86Z"/><path class="cls-1" d="M410.31,500.8a26.79,26.79,0,0,1-22-11.65c-3.69-5.43-3.87-11.17-4-16.25a34.75,34.75,0,0,0-.83-7.85c-1.06-3.93-3.75-6.71-8.22-8.51l-52.88-21.29a5,5,0,1,1,3.74-9.28l52.88,21.29c7.36,3,12.24,8.21,14.13,15.18a42.3,42.3,0,0,1,1.17,10.14c.14,4.25.26,7.92,2.32,10.94a16.65,16.65,0,0,0,15.82,7.14c3.54-.47,9.93-2.59,13-11.49,3.22-9.3-.79-18.91-9.33-22.35a5,5,0,1,1,3.74-9.28c13.57,5.46,20,20.47,15,34.9-3.48,10.06-11.38,16.83-21.14,18.13A25.74,25.74,0,0,1,410.31,500.8Z"/><path class="cls-1" d="M426.08,458.65a26.74,26.74,0,0,1-10-2,5,5,0,1,1,3.74-9.27c8.54,3.43,18.09-.72,22.22-9.65,3.95-8.55.81-14.51-1.42-17.3a16.64,16.64,0,0,0-16.35-5.82c-3.58.76-6.21,3.32-9.25,6.29a43.07,43.07,0,0,1-7.88,6.5c-6.18,3.71-13.34,4.11-20.7,1.14l-52.88-21.29a5,5,0,1,1,3.74-9.27l52.87,21.29c4.47,1.8,8.34,1.65,11.83-.44a34.89,34.89,0,0,0,6-5.09c3.63-3.54,7.75-7.56,14.17-8.91a26.73,26.73,0,0,1,26.23,9.37c6.14,7.7,7.14,18.06,2.67,27.72C446.28,452.46,436.46,458.65,426.08,458.65Z"/><path class="cls-1" d="M102.62,500.8a25.89,25.89,0,0,1-3.4-.23c-9.76-1.3-17.66-8.07-21.13-18.13-5-14.43,1.48-29.44,15-34.9a5,5,0,0,1,3.73,9.28c-8.54,3.44-12.55,13.05-9.33,22.35,3.08,8.9,9.46,11,13,11.49a16.64,16.64,0,0,0,15.82-7.14c2.06-3,2.18-6.69,2.32-10.94a43.48,43.48,0,0,1,1.17-10.15c1.89-7,6.78-12.2,14.14-15.17L186.86,426a5,5,0,1,1,3.74,9.28l-52.88,21.29c-4.46,1.8-7.15,4.58-8.22,8.51a35.34,35.34,0,0,0-.83,7.85c-.16,5.08-.35,10.82-4,16.25A26.81,26.81,0,0,1,102.62,500.8Z"/><path class="cls-1" d="M86.85,458.65c-10.38,0-20.21-6.19-25.06-16.69-4.46-9.66-3.46-20,2.67-27.72a26.74,26.74,0,0,1,26.24-9.37c6.42,1.35,10.53,5.37,14.17,8.91a34.52,34.52,0,0,0,6,5.09c3.49,2.09,7.36,2.23,11.82.44L175.61,398a5,5,0,0,1,3.73,9.27l-52.87,21.29c-7.36,3-14.52,2.57-20.71-1.14a43,43,0,0,1-7.87-6.5c-3-3-5.68-5.53-9.26-6.29a16.66,16.66,0,0,0-16.35,5.82c-2.22,2.79-5.36,8.75-1.41,17.3,4.13,8.93,13.68,13.08,22.21,9.65a5,5,0,1,1,3.74,9.27A26.69,26.69,0,0,1,86.85,458.65Z"/><path class="cls-1" d="M389.38,164.5c-31.62,0-74.21-6-97.58-34.63-14.34-17.58-14.51-35.21-14.51-36a5,5,0,0,1,5-5H496.46a5,5,0,0,1,5,5c0,.75-.16,18.38-14.51,36C474.05,145.67,446.66,164.5,389.38,164.5ZM287.9,98.91A55.58,55.58,0,0,0,300,124C316.58,144,347.5,154.5,389.38,154.5c42.23,0,73.29-10.7,89.83-30.95a55.24,55.24,0,0,0,11.67-24.64Z"/><path class="cls-1" d="M464.34,98.91A5,5,0,0,1,459.81,96a161.15,161.15,0,0,0-19.87-30.54C428.74,52,410.88,36,389.38,36S350,52,338.81,65.49A161.88,161.88,0,0,0,318.94,96a5,5,0,0,1-9.05-4.25A168.9,168.9,0,0,1,331,59.26C349,37.5,369.23,26,389.38,26s40.34,11.5,58.39,33.26a168.67,168.67,0,0,1,21.1,32.53,5,5,0,0,1-4.53,7.12Z"/><path class="cls-1" d="M389.38,197a5,5,0,0,1-5-5V159.5a5,5,0,0,1,10,0V192A5,5,0,0,1,389.38,197Z"/><path class="cls-1" d="M465,197H313a5,5,0,0,1,0-10H465a5,5,0,0,1,0,10Z"/><path class="cls-1" d="M448.8,257c-15.05,0-18.2-12.44-18.2-22.88,0-7.81,0-26.12,18.6-26.12,12.17,0,15.57,7.78,16.46,11.12a5,5,0,0,1-9.66,2.59c-.27-1-1-3.71-6.8-3.71s-8.6,2.41-8.6,16.12c0,11.9,3.88,12.88,8.2,12.88,7.57,0,8.2-3,8.2-6.38v-2h-6.2a5,5,0,0,1,0-10H462a5,5,0,0,1,5,5v7C467,251,460.37,257,448.8,257Z"/><path class="cls-1" d="M392.39,257a5,5,0,0,1-5-5V213.59a5,5,0,0,1,10,0V252A5,5,0,0,1,392.39,257Z"/><path class="cls-1" d="M392.39,244.2a5,5,0,0,1-3.54-8.54l25.61-25.6a5,5,0,1,1,7.07,7.07l-25.61,25.6A5,5,0,0,1,392.39,244.2Z"/><path class="cls-1" d="M418,257a5,5,0,0,1-4.15-2.2l-15.47-22.94a5,5,0,0,1,8.29-5.59l15.47,22.93A5,5,0,0,1,418,257Z"/></g><g id="Outline"><path class="cls-1" d="M228.17,221h-1a5,5,0,1,1,0-10h1a5,5,0,0,1,0,10Z"/><path class="cls-1" d="M213.25,183h-1a5,5,0,0,1,0-10h1a5,5,0,0,1,0,10Z"/><path class="cls-1" d="M197.25,221h-1a5,5,0,0,1,0-10h1a5,5,0,0,1,0,10Z"/><path class="cls-1" d="M182.33,183h-1a5,5,0,0,1,0-10h1a5,5,0,1,1,0,10Z"/><path class="cls-1" d="M166.33,221h-1a5,5,0,0,1,0-10h1a5,5,0,1,1,0,10Z"/><path class="cls-1" d="M151.42,183h-1a5,5,0,1,1,0-10h1a5,5,0,0,1,0,10Z"/><path class="cls-1" d="M135.42,221h-1a5,5,0,1,1,0-10h1a5,5,0,0,1,0,10Z"/><path class="cls-1" d="M151.42,259h-1a5,5,0,1,1,0-10h1a5,5,0,0,1,0,10Z"/><path class="cls-1" d="M120.5,183h-1a5,5,0,0,1,0-10h1a5,5,0,0,1,0,10Z"/><path class="cls-1" d="M104.5,221h-1a5,5,0,0,1,0-10h1a5,5,0,0,1,0,10Z"/><path class="cls-1" d="M120.5,259h-1a5,5,0,0,1,0-10h1a5,5,0,0,1,0,10Z"/><path class="cls-1" d="M89.58,183h-1a5,5,0,1,1,0-10h1a5,5,0,0,1,0,10Z"/><path class="cls-1" d="M73.58,221h-1a5,5,0,1,1,0-10h1a5,5,0,0,1,0,10Z"/><path class="cls-1" d="M89.58,259h-1a5,5,0,1,1,0-10h1a5,5,0,0,1,0,10Z"/><path class="cls-1" d="M58.67,183h-1a5,5,0,0,1,0-10h1a5,5,0,1,1,0,10Z"/><path class="cls-1" d="M42.67,221h-1a5,5,0,0,1,0-10h1a5,5,0,1,1,0,10Z"/><path class="cls-1" d="M58.67,259h-1a5,5,0,0,1,0-10h1a5,5,0,1,1,0,10Z"/><path class="cls-1" d="M420.33,83h-1a5,5,0,0,1,0-10h1a5,5,0,0,1,0,10Z"/><path class="cls-1" d="M405.42,59h-1a5,5,0,0,1,0-10h1a5,5,0,0,1,0,10Z"/><path class="cls-1" d="M389.42,83h-1a5,5,0,0,1,0-10h1a5,5,0,0,1,0,10Z"/><path class="cls-1" d="M374.5,59h-1a5,5,0,0,1,0-10h1a5,5,0,0,1,0,10Z"/><path class="cls-1" d="M358.5,83h-1a5,5,0,0,1,0-10h1a5,5,0,0,1,0,10Z"/></g></svg>