<?xml version="1.0" ?><svg id="Lines" viewBox="0 0 512 512" xmlns="http://www.w3.org/2000/svg"><defs><style>.cls-1{fill:#3d446b;}</style></defs><title/><path class="cls-1" d="M144,500.68c-31,0-42-18.22-42-33.81,0-14.35-4.11-85.69-4.15-86.4,0-.14,0-.28,0-.42,0-.55,1.13-54.68-19.32-78.12l-.11-.13L57.42,276a79.45,79.45,0,0,1-13.56-26.44c-4.2-14.55-5.22-36.15,13.79-56.43l.2-.2,39-37.2a4.41,4.41,0,0,1,.58-.47c.79-.57,20-15.05,7.48-51.34C91.16,63.86,71.7,19.5,71.5,19.06A5,5,0,0,1,76,12l115.4-.86h0a5,5,0,0,1,4.61,3.07c.32.76,31.87,77.65,33.38,199.13.24,3.67,3.21,54.36-9.62,105.71-12.6,50.42-38.67,146.41-40,151.24C177.79,480.94,167.69,500.68,144,500.68ZM107.88,380.09c.29,5,4.16,72.39,4.16,86.78,0,11.51,8.4,23.81,32,23.81,21.61,0,25.91-21.5,26.09-22.41,0-.13,0-.26.08-.39.27-1,27.14-99.85,40-151.22,12.64-50.6,9.37-102.23,9.34-102.75a2.44,2.44,0,0,1,0-.27c-1.31-105.9-25.68-177.1-31.42-192.44L83.66,22c6.06,14.17,20.08,47.67,30.73,78.62,14.27,41.45-7.59,60.05-10.83,62.52L64.85,200c-30,32.19-1,68.06.29,69.57l21,25.83C108.64,321.29,108,375.62,107.88,380.09Z"/><path class="cls-1" d="M203.26,368.49a5.1,5.1,0,0,1-.86-.08c-6.5-1.13-19.28-5.69-31.85-23.55S148.8,300.41,143.39,266c-4.74-30.14-16.82-53.33-35.91-68.93-14.23-11.64-27.29-14.49-27.42-14.51a5,5,0,0,1,2-9.8c.61.13,15.19,3.21,31.27,16.18,14.66,11.83,33.49,34.53,39.93,75.51,5.17,32.88,13.74,58,25.46,74.65,10.5,14.92,20.41,18.59,25.39,19.46a5,5,0,0,1-.86,9.93Z"/><path class="cls-1" d="M146.8,261.89a5,5,0,0,1-2-9.59c1.75-.75,43.13-18.49,79.54-22.62a5,5,0,0,1,1.13,9.94c-34.95,4-76.29,21.68-76.7,21.86A5,5,0,0,1,146.8,261.89Z"/><path class="cls-1" d="M170.65,210.49A5,5,0,0,1,167.1,209c-28.07-28.36-64.31-49.78-64.67-50a5,5,0,0,1,5.06-8.62c1.53.9,37.74,22.31,66.71,51.59a5,5,0,0,1-3.55,8.51Z"/><path class="cls-1" d="M132.32,223.62a5,5,0,0,1-1.63-9.73c.42-.14,39.54-13.53,83.22-24.27C180.56,159,111,118.47,110.29,118a5,5,0,0,1,5-8.65c3.31,1.92,81.47,47.5,112.2,79.52a5,5,0,0,1-2.47,8.33c-46.6,10.88-90.66,25.95-91.1,26.11A5.1,5.1,0,0,1,132.32,223.62Z"/><path class="cls-1" d="M147.77,66.75c-32.85,0-53.54-1.06-53.85-1.08a5,5,0,1,1,.53-10c.46,0,46.56,2.37,110.71,0a5,5,0,0,1,.37,10C183.9,66.48,164.29,66.75,147.77,66.75Z"/><path class="cls-1" d="M164.2,100.67c-31.36,0-57.41-1.74-57.8-1.76a5,5,0,1,1,.68-10c.58,0,58.51,3.9,105.21,0a5,5,0,0,1,.83,10C197.2,100.23,180,100.67,164.2,100.67Z"/><path class="cls-1" d="M365.17,500.68c-31,0-41.95-18.22-41.95-33.81,0-14.35-4.12-85.69-4.16-86.4,0-.14,0-.28,0-.42,0-.55,1.14-54.68-19.31-78.12l-.11-.13L278.6,276A79.58,79.58,0,0,1,265,249.51c-4.2-14.55-5.22-36.15,13.8-56.43.06-.07.13-.13.2-.2l39-37.2a5.08,5.08,0,0,1,.57-.47c.79-.57,20-15.05,7.48-51.34-13.77-40-33.24-84.37-33.43-84.81a5,5,0,0,1,4.54-7l115.39-.86h0a5,5,0,0,1,4.61,3.07c.32.76,31.87,77.65,33.39,199.13.23,3.67,3.21,54.36-9.63,105.71-12.6,50.42-38.66,146.41-40,151.24C399,480.94,388.87,500.68,365.17,500.68ZM329.05,380.09c.3,5,4.17,72.39,4.17,86.78,0,11.51,8.39,23.81,31.95,23.81,21.61,0,25.92-21.5,26.09-22.41a2.74,2.74,0,0,1,.09-.39c.27-1,27.13-99.85,40-151.22,12.65-50.6,9.38-102.23,9.34-102.75a2.44,2.44,0,0,1,0-.27C439.35,107.74,415,36.54,409.24,21.2L304.84,22c6.06,14.17,20.07,47.67,30.73,78.62,14.26,41.45-7.6,60.05-10.83,62.52L286,200c-30,32.19-1,68.06.29,69.57l21,25.83C329.81,321.29,329.15,375.62,329.05,380.09Z"/><path class="cls-1" d="M424.44,368.49a5,5,0,0,1-.86-.08c-6.5-1.13-19.28-5.69-31.85-23.55S370,300.41,364.57,266c-4.74-30.14-16.83-53.33-35.91-68.93-14.24-11.64-27.3-14.49-27.43-14.51a5,5,0,0,1,2-9.8c.61.13,15.19,3.21,31.26,16.18,14.66,11.83,33.49,34.53,39.94,75.51,5.17,32.88,13.73,58,25.46,74.65,10.49,14.92,20.4,18.59,25.38,19.46a5,5,0,0,1-.85,9.93Z"/><path class="cls-1" d="M368,261.89a5,5,0,0,1-2-9.59c1.74-.75,43.12-18.49,79.53-22.62a5,5,0,0,1,1.13,9.94c-34.95,4-76.29,21.68-76.7,21.86A5,5,0,0,1,368,261.89Z"/><path class="cls-1" d="M391.82,210.49a5,5,0,0,1-3.55-1.48c-28.06-28.36-64.3-49.78-64.67-50a5,5,0,1,1,5.07-8.62c1.52.9,37.73,22.31,66.71,51.59a5,5,0,0,1-3.56,8.51Z"/><path class="cls-1" d="M353.49,223.62a5,5,0,0,1-1.62-9.73c.41-.14,39.53-13.53,83.22-24.27C401.74,159,332.21,118.47,331.46,118a5,5,0,1,1,5-8.65c3.31,1.92,81.47,47.5,112.2,79.52a5,5,0,0,1-2.48,8.33c-46.59,10.88-90.65,25.95-91.09,26.11A5.16,5.16,0,0,1,353.49,223.62Z"/><path class="cls-1" d="M368.94,66.75c-32.85,0-53.54-1.06-53.84-1.08a5,5,0,1,1,.52-10c.46,0,46.56,2.37,110.71,0a5,5,0,0,1,.37,10C405.08,66.48,385.47,66.75,368.94,66.75Z"/><path class="cls-1" d="M385.38,100.67c-31.37,0-57.41-1.74-57.8-1.76a5,5,0,0,1,.68-10c.58,0,58.51,3.9,105.2,0a5,5,0,1,1,.83,10C418.38,100.23,401.2,100.67,385.38,100.67Z"/></svg>