<?xml version="1.0" ?><svg id="Lines" viewBox="0 0 512 512" xmlns="http://www.w3.org/2000/svg"><defs><style>.cls-1{fill:#3f456b;}</style></defs><title/><path class="cls-1" d="M357.35,124.8a5,5,0,0,1-3.54-1.47l-21.92-21.92a5,5,0,0,1,0-7.07l22.63-22.63a5,5,0,0,1,7.07,0l21.92,21.92a5,5,0,0,1,0,7.07l-22.63,22.63A5,5,0,0,1,357.35,124.8ZM342.5,97.88l14.85,14.85,15.56-15.56L358.06,82.32Z"/><path class="cls-1" d="M413.92,181.37a5,5,0,0,1-3.54-1.47L388.46,158a5,5,0,0,1,0-7.07l22.63-22.63a5,5,0,0,1,7.07,0l21.92,21.92a5,5,0,0,1,0,7.07L417.45,179.9A5,5,0,0,1,413.92,181.37Zm-14.85-26.93,14.85,14.85,15.55-15.55-14.85-14.85Z"/><path class="cls-1" d="M397.65,257a5,5,0,0,1-3.53-8.54L490,152.61a5.83,5.83,0,0,0,1.77-3.82,4.51,4.51,0,0,0-1.36-3.41L365,20c-2.14-2.15-5.92-2.28-7.91-.28l-95.89,95.88a5,5,0,1,1-7.07-7.07L350,12.6c5.91-5.9,16-5.77,22.06.28L497.48,138.31a14.43,14.43,0,0,1,4.28,10.88,15.75,15.75,0,0,1-4.69,10.49l-95.88,95.88A5,5,0,0,1,397.65,257Z"/><path class="cls-1" d="M175.42,500.92A53.8,53.8,0,0,1,137.09,485L26.78,374.71C5.14,353.07,5,318,26.48,296.52L222.59,100.41c4.34-4.35,9.14-6.55,14.25-6.55h0c3.81,0,9.62,1.31,15.72,7.46l.1.09L411.09,259.8c6.84,6.84,10.32,18-.41,28.7L214.57,484.61a55.07,55.07,0,0,1-38.7,16.31Zm61.42-397.06c-2.4,0-4.74,1.18-7.18,3.62L33.55,303.59c-17.58,17.58-17.44,46.31.3,64.05L144.16,478a43.89,43.89,0,0,0,31.63,13,45.16,45.16,0,0,0,31.71-13.38h0L403.61,281.43c3.21-3.22,6.75-8.22.41-14.56L245.5,108.36c-3.68-3.71-6.73-4.5-8.64-4.5Z"/><path class="cls-1" d="M163.62,389.2a42.1,42.1,0,1,1,29.78-12.33h0A41.86,41.86,0,0,1,163.62,389.2Zm0-74.23a32.12,32.12,0,1,0,22.71,54.83h0A32.12,32.12,0,0,0,163.62,315Z"/></svg>