<?xml version="1.0" ?><svg viewBox="0 0 512 512" xmlns="http://www.w3.org/2000/svg"><defs><style>.cls-1{fill:#3f456b;}</style></defs><title/><g id="Lines"><path class="cls-1" d="M303.28,212.42h-145a29,29,0,0,1,0-58h145a29,29,0,0,1,0,58Zm-145-48a19,19,0,0,0,0,38h145a19,19,0,0,0,0-38Z"/><path class="cls-1" d="M207.28,212.42a5,5,0,0,1-5-5v-48a5,5,0,0,1,10,0v48A5,5,0,0,1,207.28,212.42Z"/><path class="cls-1" d="M254.28,212.42a5,5,0,0,1-5-5v-48a5,5,0,1,1,10,0v48A5,5,0,0,1,254.28,212.42Z"/><path class="cls-1" d="M497.37,342.49H471.76c-6.28,0-11.38-5.73-11.38-12.78v-10.1c0-7,5.1-12.78,11.38-12.78h25.61a5,5,0,0,1,0,10H471.76c-.36,0-1.38,1-1.38,2.78v10.1c0,1.82,1,2.78,1.38,2.78h25.61a5,5,0,0,1,0,10Z"/><path class="cls-1" d="M32.89,346.27H17.36a5,5,0,0,1,0-10H32.89c1.38,0,3-2.18,3-5v-13c0-2.81-1.6-5-3-5H18.36a5,5,0,0,1,0-10H32.89c7.16,0,13,6.73,13,15v13C45.87,339.54,40.05,346.27,32.89,346.27Z"/><path class="cls-1" d="M112.45,429.7a45.11,45.11,0,1,1,45.12-45.11A45.17,45.17,0,0,1,112.45,429.7Zm0-80.22a35.11,35.11,0,1,0,35.12,35.11A35.15,35.15,0,0,0,112.45,349.48Z"/><path class="cls-1" d="M112.45,402.18A17.59,17.59,0,1,1,130,384.59,17.61,17.61,0,0,1,112.45,402.18Zm0-25.18a7.59,7.59,0,1,0,7.59,7.59A7.6,7.6,0,0,0,112.45,377Z"/><path class="cls-1" d="M397.71,429.7a45.11,45.11,0,1,1,45.11-45.11A45.17,45.17,0,0,1,397.71,429.7Zm0-80.22a35.11,35.11,0,1,0,35.11,35.11A35.16,35.16,0,0,0,397.71,349.48Z"/><path class="cls-1" d="M397.71,402.18a17.59,17.59,0,1,1,17.58-17.59A17.61,17.61,0,0,1,397.71,402.18Zm0-25.18a7.59,7.59,0,1,0,7.58,7.59A7.6,7.6,0,0,0,397.71,377Z"/><path class="cls-1" d="M357.59,389.59h-205a5,5,0,0,1,0-10h205a5,5,0,0,1,0,10Z"/><path class="cls-1" d="M40.11,389.59c-1.27,0-12.53-.23-20.37-7.95-4.89-4.81-7.36-11.33-7.36-19.38V312.6c-.11-1.81-.34-11.43,6.28-19,4.89-5.62,12.12-8.69,21.48-9.13,18.89-.88,32.14-2,37.31-2.48L115.7,221c1.29-2.69,9.62-18.6,25.56-18.6H319.43c16,0,24.35,16,25.58,18.63l33.48,55.07c13.45,1,74,5.49,96.48,8.34,15,1.91,21.7,9.44,24.66,15.43a26.26,26.26,0,0,1,2.71,12.71v49.65c0,8.05-2.48,14.57-7.36,19.38-8.17,8-20,8-20.55,7.95H442.37a5,5,0,0,1,0-10h32.14c.11,0,8.37,0,13.5-5.12,2.87-2.86,4.33-7,4.33-12.21V312.43c0-.15,0-.31,0-.46.11-1.5.55-15.14-18.65-17.58-24.54-3.11-97.77-8.42-98.51-8.47a5,5,0,0,1-3.91-2.39l-35-57.5a4.25,4.25,0,0,1-.29-.56c-.05-.11-6.07-13-16.61-13H141.26c-10.47,0-16.54,12.91-16.6,13a6.08,6.08,0,0,1-.33.62L84.61,289.35a5,5,0,0,1-3.71,2.31c-.16,0-15.43,1.6-40.29,2.76-6.53.31-11.38,2.23-14.41,5.71-4.34,5-3.85,11.78-3.84,11.84s0,.31,0,.46v49.83c0,5.24,1.45,9.35,4.33,12.21,5.1,5.07,13.26,5.12,13.45,5.12H72.34a5,5,0,0,1,0,10H40.11Z"/><path class="cls-1" d="M325.64,285.93H139.75c-8,0-12-3.27-14-6-4.64-6.43-2-14.95-1.66-15.9a.58.58,0,0,1,0-.14c0-.1,3.84-10.42,8.58-21.65A25.4,25.4,0,0,1,152,226.71q.3,0,.6,0H312.82q.3,0,.6,0a25.4,25.4,0,0,1,19.2,15.52c4.74,11.23,8.55,21.55,8.58,21.65a.58.58,0,0,1,.05.14c.32,1,3,9.47-1.66,15.9C337.62,282.66,333.6,285.93,325.64,285.93Zm-192-18.69c-.46,1.48-1,5.07.32,6.85,1.11,1.52,3.78,1.84,5.83,1.84H325.64c2.05,0,4.72-.32,5.83-1.84,1.3-1.78.78-5.34.31-6.86-.4-1.1-4-10.7-8.37-21.11a15.61,15.61,0,0,0-11-9.44H153a15.52,15.52,0,0,0-11,9.44C137.57,256.57,134,266.19,133.6,267.24Z"/><path class="cls-1" d="M232.69,285.93a5,5,0,0,1-5-5V231.68a5,5,0,0,1,10,0v49.25A5,5,0,0,1,232.69,285.93Z"/><path class="cls-1" d="M257.38,311.6h-16a5,5,0,0,1,0-10h16a5,5,0,0,1,0,10Z"/><path class="cls-1" d="M159,311.6H143a5,5,0,1,1,0-10h16a5,5,0,0,1,0,10Z"/><path class="cls-1" d="M81.38,363.93h-64a5,5,0,1,1,0-10h64a5,5,0,0,1,0,10Z"/><path class="cls-1" d="M497.34,363.93H429.13a5,5,0,0,1,0-10h68.21a5,5,0,0,1,0,10Z"/><path class="cls-1" d="M365.63,363.93H143a5,5,0,0,1,0-10H365.63a5,5,0,0,1,0,10Z"/></g><g id="Outline"><path class="cls-1" d="M185,113.56a5,5,0,0,1-4.42-2.64l-7.19-13.5a5,5,0,0,1,8.82-4.7l7.19,13.49a5,5,0,0,1-2.06,6.77A4.94,4.94,0,0,1,185,113.56Z"/><path class="cls-1" d="M345.15,164.42a5,5,0,0,1-1.49-9.77l17.64-5.5a5,5,0,0,1,3,9.55l-17.64,5.5A5.17,5.17,0,0,1,345.15,164.42Z"/><path class="cls-1" d="M118,163.78a5.09,5.09,0,0,1-1.53-.24l-17.56-5.65a5,5,0,0,1,3.07-9.52L119.55,154a5,5,0,0,1-1.53,9.76Z"/><path class="cls-1" d="M278.28,113.14a5,5,0,0,1-4.38-7.41l7.39-13.43a5,5,0,1,1,8.76,4.82l-7.39,13.43A5,5,0,0,1,278.28,113.14Z"/><path class="cls-1" d="M147,132.64a5,5,0,0,1-3.05-1l-13.41-10.35a5,5,0,1,1,6.11-7.91L150,123.68a5,5,0,0,1-3.06,9Z"/><path class="cls-1" d="M316.37,132.6a5,5,0,0,1-3-9l13.53-10.25a5,5,0,0,1,6,8l-13.53,10.25A5,5,0,0,1,316.37,132.6Z"/><path class="cls-1" d="M230.88,105.87h0a5,5,0,0,1-5-5L226,86.27a5,5,0,0,1,5-5,5,5,0,0,1,5,5l-.09,14.57A5,5,0,0,1,230.88,105.87Z"/></g></svg>