<?xml version="1.0" ?><svg id="Lines" viewBox="0 0 512 512" xmlns="http://www.w3.org/2000/svg"><defs><style>.cls-1{fill:#3f456b;}</style></defs><title/><path class="cls-1" d="M208,152.2a5,5,0,0,1-5-5l-.92-101.49c0-10.22,9.2-18.5,20.49-18.5S243,35.56,243,45.76a5,5,0,1,1-10,0c0-4.61-4.8-8.51-10.48-8.51S212.05,41,212.05,45.71L213,147.15a5,5,0,0,1-5,5Z"/><path class="cls-1" d="M238,120a5,5,0,0,1-5-5V30.2c0-10.17,9.19-18.45,20.48-18.45S274,20.06,274,30.27V45.71a5,5,0,0,1-10,0V30.27c0-4.62-4.8-8.52-10.49-8.52S243,25.54,243,30.2V115A5,5,0,0,1,238,120Z"/><path class="cls-1" d="M269,120a5,5,0,0,1-5-5V45.71c0-10.18,9.19-18.46,20.48-18.46S305,35.56,305,45.77V75.5a5,5,0,0,1-10,0V45.77c0-4.62-4.8-8.52-10.49-8.52S274,41,274,45.71V115A5,5,0,0,1,269,120Z"/><path class="cls-1" d="M310.2,226.75H219.4a5,5,0,0,1-4-2c-14.72-19.18-31.91-43.39-32.09-43.63l-.08-.13A49.89,49.89,0,0,1,176,155.5V109c0-.44,0-12.22,8.45-20.19,5.59-5.24,13.32-7.53,23-6.8a5,5,0,0,1-.75,10c-6.75-.52-11.93.87-15.39,4.12C186.06,101,186,108.86,186,108.94V155.5a40.34,40.34,0,0,0,5.57,20c1.12,1.59,16.5,23.21,30.3,41.29h85.62c.7-1.5,1.73-3.89,3.05-7.14.37-.91.65-1.56.75-1.78,8.5-17.93,13.25-35.2,14.13-51.35.66-12.3.6-24.9.54-37.1,0-3.72,0-7.45,0-11.18V75.56c0-4.62-4.79-8.52-10.47-8.52S305,70.83,305,75.5V115a5,5,0,0,1-10,0V75.5C295,65.32,304.15,57,315.45,57s20.47,8.31,20.47,18.52v32.65c0,3.7,0,7.41,0,11.12.06,12.34.12,25.1-.56,37.69-.95,17.46-6,36-15.07,55.07-.07.16-.26.65-.53,1.3C315.72,223.38,314.35,226.75,310.2,226.75Z"/><path class="cls-1" d="M315.46,260.75a5,5,0,0,1-5-5v-29H219.54v29a5,5,0,0,1-10,0v-34a5,5,0,0,1,5-5H315.46a5,5,0,0,1,5,5v34A5,5,0,0,1,315.46,260.75Z"/><path class="cls-1" d="M323.63,501.25h-121a5,5,0,0,1-5-5V256.75a5,5,0,0,1,5-5h121a5,5,0,0,1,5,5v239.5A5,5,0,0,1,323.63,501.25Zm-116-10h111V261.75h-111Z"/><path class="cls-1" d="M293.19,244.25h-.86a5,5,0,1,1,0-10h.86a5,5,0,1,1,0,10Z"/><path class="cls-1" d="M373.47,216a5,5,0,0,1-5-5l-.91-101.49c0-10.22,9.19-18.5,20.49-18.5s20.47,8.31,20.47,18.51a5,5,0,0,1-10,0c0-4.61-4.79-8.51-10.47-8.51s-10.49,3.79-10.49,8.46l.91,101.44a5,5,0,0,1-5,5Z"/><path class="cls-1" d="M403.52,183.7a5,5,0,0,1-5-5V94c0-10.17,9.19-18.45,20.49-18.45S439.49,83.81,439.49,94v15.44a5,5,0,1,1-10,0V94c0-4.62-4.8-8.52-10.48-8.52S408.52,89.29,408.52,94V178.7A5,5,0,0,1,403.52,183.7Z"/><path class="cls-1" d="M434.49,183.7a5,5,0,0,1-5-5V109.46C429.49,99.28,438.68,91,450,91s20.49,8.31,20.49,18.52v29.73a5,5,0,0,1-10,0V109.52c0-4.62-4.81-8.52-10.49-8.52s-10.49,3.79-10.49,8.46V178.7A5,5,0,0,1,434.49,183.7Z"/><path class="cls-1" d="M475.7,290.5H384.9a5,5,0,0,1-4-2c-14.73-19.18-31.92-43.39-32.09-43.63l-.09-.13a50,50,0,0,1-7.25-25.53v-46.5c0-.44-.05-12.22,8.45-20.19,5.59-5.24,13.32-7.53,23-6.8a5,5,0,0,1-.76,10c-6.75-.52-11.92.87-15.38,4.12-5.24,4.91-5.29,12.75-5.29,12.83v46.56a40.38,40.38,0,0,0,5.56,20c1.13,1.59,16.51,23.21,30.3,41.29H473c.71-1.5,1.73-3.89,3.06-7.14.37-.91.64-1.56.74-1.78,8.5-17.93,13.25-35.2,14.13-51.35.67-12.3.6-24.9.54-37.1,0-3.72,0-7.45,0-11.18V139.31c0-4.62-4.8-8.52-10.47-8.52s-10.49,3.79-10.49,8.46V178.7a5,5,0,1,1-10,0V139.25c0-10.18,9.19-18.46,20.49-18.46s20.47,8.31,20.47,18.52V172c0,3.7,0,7.41,0,11.12.07,12.34.13,25.1-.55,37.69-1,17.46-6,36-15.07,55.07-.07.16-.27.65-.53,1.3C481.23,287.13,479.85,290.5,475.7,290.5Z"/><path class="cls-1" d="M481,324.5a5,5,0,0,1-5-5v-29H385.05v29a5,5,0,0,1-10,0v-34a5,5,0,0,1,5-5H481a5,5,0,0,1,5,5v34A5,5,0,0,1,481,324.5Z"/><path class="cls-1" d="M489.13,501.25h-121a5,5,0,0,1-5-5V320.5a5,5,0,0,1,5-5h121a5,5,0,0,1,5,5V496.25A5,5,0,0,1,489.13,501.25Zm-116-10h111V325.5h-111Z"/><path class="cls-1" d="M458.7,308h-.87a5,5,0,1,1,0-10h.87a5,5,0,1,1,0,10Z"/><path class="cls-1" d="M42.24,216a5,5,0,0,1-5-5L36.33,109.5c0-10.22,9.19-18.5,20.49-18.5s20.47,8.31,20.47,18.51a5,5,0,0,1-10,0c0-4.61-4.79-8.51-10.47-8.51s-10.49,3.79-10.49,8.46l.91,101.44a5,5,0,0,1-5,5Z"/><path class="cls-1" d="M72.29,183.7a5,5,0,0,1-5-5V94c0-10.17,9.19-18.45,20.49-18.45S108.26,83.81,108.26,94v15.44a5,5,0,0,1-10,0V94c0-4.62-4.8-8.52-10.48-8.52S77.29,89.29,77.29,94V178.7A5,5,0,0,1,72.29,183.7Z"/><path class="cls-1" d="M103.26,183.7a5,5,0,0,1-5-5V109.46c0-10.18,9.19-18.46,20.49-18.46s20.49,8.31,20.49,18.52v29.73a5,5,0,0,1-10,0V109.52c0-4.62-4.81-8.52-10.49-8.52s-10.49,3.79-10.49,8.46V178.7A5,5,0,0,1,103.26,183.7Z"/><path class="cls-1" d="M144.47,290.5H53.67a5,5,0,0,1-4-2C35,269.36,17.79,245.15,17.62,244.91l-.09-.13a50,50,0,0,1-7.25-25.53v-46.5c0-.44,0-12.22,8.44-20.19,5.6-5.24,13.33-7.53,23-6.8a5,5,0,0,1-.76,10c-6.71-.52-11.87.85-15.33,4.06-5.28,4.91-5.34,12.84-5.34,12.92v46.53a39.79,39.79,0,0,0,5.55,19.95c1.06,1.49,16.48,23.18,30.31,41.3h85.62c.71-1.5,1.73-3.89,3.06-7.14.37-.91.64-1.56.74-1.78,8.5-17.93,13.25-35.2,14.13-51.35.67-12.29.6-24.88.54-37.07q0-5.59,0-11.21V139.31c0-4.62-4.8-8.52-10.48-8.52s-10.48,3.79-10.48,8.46V178.7a5,5,0,0,1-10,0V139.25c0-10.18,9.19-18.46,20.48-18.46s20.48,8.31,20.48,18.52V172q0,5.56,0,11.16c.06,12.32.13,25.07-.55,37.65-1,17.45-6,36-15.07,55.07-.07.16-.27.65-.53,1.3C150,287.13,148.62,290.5,144.47,290.5Z"/><path class="cls-1" d="M149.74,324.5a5,5,0,0,1-5-5v-29H53.82v29a5,5,0,0,1-10,0v-34a5,5,0,0,1,5-5H149.74a5,5,0,0,1,5,5v34A5,5,0,0,1,149.74,324.5Z"/><path class="cls-1" d="M157.9,501.25h-121a5,5,0,0,1-5-5V320.5a5,5,0,0,1,5-5h121a5,5,0,0,1,5,5V496.25A5,5,0,0,1,157.9,501.25Zm-116-10h111V325.5h-111Z"/><path class="cls-1" d="M127.47,308h-.87a5,5,0,0,1,0-10h.87a5,5,0,1,1,0,10Z"/></svg>