<?xml version="1.0" ?><svg viewBox="0 0 512 512" xmlns="http://www.w3.org/2000/svg"><defs><style>.cls-1{fill:#3f456b;}</style></defs><title/><g id="Lines"><path class="cls-1" d="M401,253h-8a5,5,0,0,1,0-10h8a5,5,0,0,0,5-5V193a5,5,0,0,0-5-5h-8a5,5,0,0,1,0-10h8a15,15,0,0,1,15,15v45A15,15,0,0,1,401,253Z"/><path class="cls-1" d="M401,342h-8a5,5,0,0,1,0-10h8a5,5,0,0,0,5-5V282a5,5,0,0,0-5-5h-8a5,5,0,0,1,0-10h8a15,15,0,0,1,15,15v45A15,15,0,0,1,401,342Z"/><path class="cls-1" d="M209,134a5,5,0,0,1-5-5V25.25A11.27,11.27,0,0,0,192.75,14h-.5A11.27,11.27,0,0,0,181,25.25V129a5,5,0,0,1-10,0V25.25A21.27,21.27,0,0,1,192.25,4h.5A21.27,21.27,0,0,1,214,25.25V129A5,5,0,0,1,209,134Z"/><path class="cls-1" d="M342,499H172a55.06,55.06,0,0,1-55-55V179a55.06,55.06,0,0,1,55-55H342a55.06,55.06,0,0,1,55,55V444A55.06,55.06,0,0,1,342,499ZM172,134a45.05,45.05,0,0,0-45,45V444a45.05,45.05,0,0,0,45,45H342a45.05,45.05,0,0,0,45-45V179a45.05,45.05,0,0,0-45-45Z"/><path class="cls-1" d="M122.09,423.83H122a5,5,0,0,1-4.88-5.12,22.43,22.43,0,0,1,13.4-19.12C141,394.93,141,391.53,141,389.5V253.83c0-2,0-5.43-10.52-10.09A22.61,22.61,0,0,1,117,224.66a5,5,0,0,1,10-.37,12.58,12.58,0,0,0,7.52,10.3c8.15,3.61,16.48,8.72,16.48,19.24V389.5c0,10.53-8.33,15.63-16.48,19.24A12.26,12.26,0,0,0,127.08,419,5,5,0,0,1,122.09,423.83Z"/><path class="cls-1" d="M391.92,423.83a5,5,0,0,1-5-4.87,12.41,12.41,0,0,0-7.44-10.22C371.33,405.13,363,400,363,389.5V253.83c0-10.52,8.33-15.63,16.48-19.24A12.41,12.41,0,0,0,387,224.34a5,5,0,1,1,10,.32,22.61,22.61,0,0,1-13.48,19.08C373,248.4,373,251.8,373,253.83V389.5c0,2,0,5.43,10.52,10.09a22.43,22.43,0,0,1,13.4,19.12,5,5,0,0,1-4.88,5.12Z"/><path class="cls-1" d="M234,316H187a15,15,0,0,1-15-15V282a15,15,0,0,1,15-15h47a15,15,0,0,1,15,15v19A15,15,0,0,1,234,316Zm-47-39a5,5,0,0,0-5,5v19a5,5,0,0,0,5,5h47a5,5,0,0,0,5-5V282a5,5,0,0,0-5-5Z"/><path class="cls-1" d="M327,316H280a15,15,0,0,1-15-15V282a15,15,0,0,1,15-15h47a15,15,0,0,1,15,15v19A15,15,0,0,1,327,316Zm-47-39a5,5,0,0,0-5,5v19a5,5,0,0,0,5,5h47a5,5,0,0,0,5-5V282a5,5,0,0,0-5-5Z"/><path class="cls-1" d="M317,134a5,5,0,0,1-5-5V93.67a4,4,0,0,1,0-.59,9.45,9.45,0,0,0-2.3-6.6c-2.38-2.6-6.78-4-12.74-4s-10.09,1.36-12.52,4a10.4,10.4,0,0,0-2.5,7.08c0,.16,0,.32,0,.48V129a5,5,0,0,1-10,0V94.29a20.26,20.26,0,0,1,5.08-14.47C281.48,75,288.19,72.5,297,72.5c9.09,0,15.92,2.5,20.29,7.42a19.34,19.34,0,0,1,4.71,14V129A5,5,0,0,1,317,134Z"/><path class="cls-1" d="M337,253H177a5,5,0,0,1-5-5V160a5,5,0,0,1,5-5H337a5,5,0,0,1,5,5v88A5,5,0,0,1,337,253ZM182,243H332V165H182Z"/></g><g id="Outline"><path class="cls-1" d="M449.46,434.69a5,5,0,0,1-4.24-7.64c18.3-29.42,18.3-77.28,0-106.69a5,5,0,1,1,8.49-5.28c20.11,32.32,20.11,84.92,0,117.25A5,5,0,0,1,449.46,434.69Z"/><path class="cls-1" d="M469.77,467.34a5,5,0,0,1-4.24-7.64c29.49-47.42,29.49-124.57,0-172a5,5,0,1,1,8.49-5.28c15.21,24.45,23.59,56.87,23.59,91.28S489.23,440.53,474,465A5,5,0,0,1,469.77,467.34Z"/><path class="cls-1" d="M66.31,435.07a5,5,0,0,1-4.25-2.36c-20.24-32.54-20.24-85.48,0-118A5,5,0,1,1,70.55,320c-18.42,29.62-18.42,77.83,0,107.45a5,5,0,0,1-4.24,7.64Z"/><path class="cls-1" d="M45.87,467.94a5,5,0,0,1-4.25-2.36C26.3,441,17.87,408.34,17.87,373.71s8.43-67.27,23.75-91.88a5,5,0,1,1,8.49,5.28c-29.7,47.75-29.7,125.44,0,173.19a5,5,0,0,1-4.24,7.64Z"/><path class="cls-1" d="M340,404H176a5,5,0,0,1,0-10H340a5,5,0,0,1,0,10Z"/><path class="cls-1" d="M315,450.93H201a5,5,0,0,1,0-10H315a5,5,0,0,1,0,10Z"/><path class="cls-1" d="M328,428.07H188a5,5,0,1,1,0-10H328a5,5,0,0,1,0,10Z"/><path class="cls-1" d="M315,357.07H201a5,5,0,1,1,0-10H315a5,5,0,0,1,0,10Z"/><path class="cls-1" d="M328,379.93H188a5,5,0,0,1,0-10H328a5,5,0,0,1,0,10Z"/><path class="cls-1" d="M317,108H277a5,5,0,0,1,0-10h40a5,5,0,0,1,0,10Z"/></g></svg>