<?xml version="1.0" ?><svg viewBox="0 0 512 512" xmlns="http://www.w3.org/2000/svg"><defs><style>.cls-1{fill:#3f456b;}</style></defs><title/><g id="Lines"><path class="cls-1" d="M255.86,433.21c-98.13,0-178-79.83-178-178s79.83-178,178-178,178,79.83,178,178S354,433.21,255.86,433.21Zm0-345.92c-92.62,0-168,75.35-168,168s75.34,168,168,168,168-75.35,168-168S348.47,87.29,255.86,87.29Z"/><path class="cls-1" d="M273.43,223A55.23,55.23,0,1,1,324,190a5,5,0,1,1-9.15-4,45.27,45.27,0,1,0-41.44,27,5,5,0,0,1,0,10Z"/><path class="cls-1" d="M193.34,371.45A41.6,41.6,0,1,1,233,317.51a5,5,0,1,1-9.55,3A31.59,31.59,0,1,0,202.69,360a5,5,0,1,1,3,9.55A41.45,41.45,0,0,1,193.34,371.45Z"/><path class="cls-1" d="M171.66,258.15a27.26,27.26,0,1,1,26-35.35,5,5,0,1,1-9.55,3,17.27,17.27,0,0,0-21.6-11.36A17.26,17.26,0,0,0,155.16,236a17.27,17.27,0,0,0,21.6,11.36,5,5,0,1,1,3,9.55A27.21,27.21,0,0,1,171.66,258.15Z"/><path class="cls-1" d="M254.73,406.13a93.57,93.57,0,0,1-10.17-.47,5,5,0,0,1,1.18-9.94c.53.07,45.14,4.84,86.4-23.16a5,5,0,0,1,5.61,8.28C305.08,403,271.2,406.13,254.73,406.13Z"/><path class="cls-1" d="M354.42,295.89a25.69,25.69,0,0,1-3.38-.22,26.25,26.25,0,0,1-17.74-10.32,27.49,27.49,0,0,1,4.86-38,26.2,26.2,0,0,1,19.76-5.53c14.59,1.86,24.92,15.46,23,30.31h0a27.22,27.22,0,0,1-10.14,18A26.28,26.28,0,0,1,354.42,295.89Zm.14-44.29a16.37,16.37,0,0,0-10.2,3.59,17.49,17.49,0,0,0-3.08,24.13,16.36,16.36,0,0,0,23.32,3A17.25,17.25,0,0,0,371,270.86h0a17,17,0,0,0-14.37-19.13A18.18,18.18,0,0,0,354.56,251.6ZM376,271.49h0Z"/><path class="cls-1" d="M308.12,210.33a5,5,0,0,1-3.26-8.8l.76-.65a5,5,0,0,1,6.52,7.59l-.76.65A5,5,0,0,1,308.12,210.33Z"/></g><g id="Outline"><path class="cls-1" d="M255.39,470.39a5,5,0,0,1-5-5h0a5,5,0,0,1,5-5h0a5,5,0,0,1,5,5h0a5,5,0,0,1-5,5h0Zm15-5.43a5,5,0,0,1,4.52-5.44h0a5,5,0,0,1,5.44,4.52h0a5,5,0,0,1-4.52,5.44h0l-.47,0h0A5,5,0,0,1,270.38,465ZM235,469.39a5,5,0,0,1-4.5-5.46h0a5,5,0,0,1,5.46-4.49h0a5,5,0,0,1,4.49,5.45h0a5,5,0,0,1-5,4.53h0A3.87,3.87,0,0,1,235,469.39Zm55.28-6.73a5,5,0,0,1,4-5.85h0a5,5,0,0,1,5.85,4h0a5,5,0,0,1-4,5.84h0a4.88,4.88,0,0,1-.93.09h0A5,5,0,0,1,290.24,462.66Zm-75.53,3.8h0a5,5,0,0,1-4-5.86h0a5,5,0,0,1,5.86-4h0a5,5,0,0,1,4,5.86h0a5,5,0,0,1-4.91,4.05h0A4.45,4.45,0,0,1,214.71,466.46Zm95.08-8a5,5,0,0,1,3.41-6.2h0a5,5,0,0,1,6.19,3.4h0a5,5,0,0,1-3.4,6.2h0a5.26,5.26,0,0,1-1.4.2h0A5,5,0,0,1,309.79,458.47Zm-115,3.14h0a5,5,0,0,1-3.38-6.22h0a5,5,0,0,1,6.21-3.38h0a5,5,0,0,1,3.38,6.22h0a5,5,0,0,1-4.8,3.58h0A5,5,0,0,1,194.83,461.61Zm134-9.17a5,5,0,0,1,2.8-6.5h0a5,5,0,0,1,6.49,2.8h0a5,5,0,0,1-2.8,6.49h0a5,5,0,0,1-1.84.36h0A5,5,0,0,1,328.85,452.44ZM175.5,454.88a5,5,0,0,1-2.77-6.5h0a5,5,0,0,1,6.5-2.77h0a5,5,0,0,1,2.77,6.51h0a5,5,0,0,1-4.63,3.13h0A4.91,4.91,0,0,1,175.5,454.88ZM347.25,444.6a5,5,0,0,1,2.16-6.73h0a5,5,0,0,1,6.73,2.17h0a5,5,0,0,1-2.16,6.73h0a5,5,0,0,1-2.28.55h0A5,5,0,0,1,347.25,444.6ZM156.9,446.34h0a5,5,0,0,1-2.13-6.74h0a5,5,0,0,1,6.74-2.14h0a5,5,0,0,1,2.13,6.74h0a5,5,0,0,1-4.44,2.7h0A5,5,0,0,1,156.9,446.34Zm207.91-11.29a5,5,0,0,1,1.51-6.91h0a5,5,0,0,1,6.91,1.52h0a5,5,0,0,1-1.51,6.9h0a5,5,0,0,1-2.69.79h0A5,5,0,0,1,364.81,435.05Zm-225.6,1a5,5,0,0,1-1.49-6.91h0a5,5,0,0,1,6.92-1.49h0a5,5,0,0,1,1.48,6.92h0a5,5,0,0,1-4.2,2.28h0A5,5,0,0,1,139.21,436.06Zm242.18-12.19a5,5,0,0,1,.85-7h0a5,5,0,0,1,7,.85h0a5,5,0,0,1-.85,7h0a5,5,0,0,1-3.08,1.07h0A5,5,0,0,1,381.39,423.87Zm-258.82.28h0a5,5,0,0,1-.82-7h0a5,5,0,0,1,7-.83h0a5,5,0,0,1,.82,7h0a5,5,0,0,1-3.92,1.9h0A5,5,0,0,1,122.57,424.15Zm274.26-13a5,5,0,0,1,.19-7.07h0a5,5,0,0,1,7.07.19h0a5,5,0,0,1-.19,7.07h0a5,5,0,0,1-3.44,1.37h0A5,5,0,0,1,396.83,411.17Zm-289.7-.45a5,5,0,0,1-.15-7.07h0a5,5,0,0,1,7.07-.16h0a5,5,0,0,1,.15,7.07h0a5,5,0,0,1-3.61,1.54h0A5,5,0,0,1,107.13,410.72ZM411,397.07a5,5,0,0,1-.48-7.05h0a5,5,0,0,1,7.05-.49h0a5,5,0,0,1,.49,7.06h0a5,5,0,0,1-3.78,1.71h0A5,5,0,0,1,411,397.07ZM93,395.89h0a5,5,0,0,1,.52-7.05h0a5,5,0,0,1,7,.52h0a5,5,0,0,1-.51,7h0a5,5,0,0,1-3.27,1.22h0A5,5,0,0,1,93,395.89Zm330.76-14.2a5,5,0,0,1-1.15-7h0a5,5,0,0,1,7-1.15h0a5,5,0,0,1,1.15,7h0a5,5,0,0,1-4.07,2.08h0A4.92,4.92,0,0,1,423.79,381.69ZM80.4,379.79a5,5,0,0,1,1.18-7h0a5,5,0,0,1,7,1.17h0a5,5,0,0,1-1.18,7h0a5,5,0,0,1-2.89.92h0A5,5,0,0,1,80.4,379.79Zm354.66-14.61a5,5,0,0,1-1.8-6.84h0a5,5,0,0,1,6.84-1.8h0a5,5,0,0,1,1.81,6.83h0a5,5,0,0,1-4.33,2.49h0A5,5,0,0,1,435.06,365.18ZM69.35,362.57a5,5,0,0,1,1.83-6.83h0A5,5,0,0,1,78,357.57h0a5,5,0,0,1-1.84,6.83h0a5,5,0,0,1-2.49.67h0A5,5,0,0,1,69.35,362.57Zm375.36-14.9a5,5,0,0,1-2.45-6.64h0a5,5,0,0,1,6.63-2.44h0a5,5,0,0,1,2.45,6.63h0a5,5,0,0,1-4.54,2.91h0A5,5,0,0,1,444.71,347.67ZM60,344.37a5,5,0,0,1,2.48-6.62h0a5,5,0,0,1,6.62,2.47h0a5,5,0,0,1-2.48,6.62h0a4.94,4.94,0,0,1-2.07.46h0A5,5,0,0,1,60,344.37Zm392.66-15.05a5,5,0,0,1-3.07-6.37h0a5,5,0,0,1,6.37-3.07h0a5,5,0,0,1,3.07,6.37h0a5,5,0,0,1-4.72,3.35h0A5,5,0,0,1,452.64,329.32Zm-400.25-4a5,5,0,0,1,3.1-6.36h0a5,5,0,0,1,6.36,3.1h0a5,5,0,0,1-3.1,6.36h0a5.16,5.16,0,0,1-1.63.27h0A5,5,0,0,1,52.39,325.36Zm406.39-15.07a5,5,0,0,1-3.67-6.05h0a5,5,0,0,1,6.05-3.66h0a5,5,0,0,1,3.67,6.05h0a5,5,0,0,1-4.86,3.81h0A4.91,4.91,0,0,1,458.78,310.29ZM46.66,305.71a5,5,0,0,1,3.69-6h0a5,5,0,0,1,6,3.69h0a5,5,0,0,1-3.69,6h0a5.18,5.18,0,0,1-1.17.13h0A5,5,0,0,1,46.66,305.71Zm416.41-14.94a5,5,0,0,1-4.23-5.67h0a5,5,0,0,1,5.67-4.23h0a5,5,0,0,1,4.23,5.67h0a5,5,0,0,1-4.94,4.28h0A6,6,0,0,1,463.07,290.77ZM42.83,285.61A5,5,0,0,1,47.09,280h0a5,5,0,0,1,5.65,4.25h0a5,5,0,0,1-4.25,5.65h0a4.31,4.31,0,0,1-.71.05h0A5,5,0,0,1,42.83,285.61Zm422.65-14.69a5,5,0,0,1-4.74-5.24h0a5,5,0,0,1,5.24-4.74h0a5,5,0,0,1,4.75,5.24h0a5,5,0,0,1-5,4.75h-.26ZM40.94,265.24A5,5,0,0,1,45.7,260h0a5,5,0,0,1,5.23,4.76h0A5,5,0,0,1,46.16,270h-.23A5,5,0,0,1,40.94,265.24ZM460.8,246.16a5,5,0,0,1,4.78-5.21h0a5,5,0,0,1,5.21,4.77h0a5,5,0,0,1-4.78,5.22h-.22A5,5,0,0,1,460.8,246.16ZM45.72,250A5,5,0,0,1,41,244.79h0A5,5,0,0,1,46.19,240h0A5,5,0,0,1,51,245.26h0A5,5,0,0,1,46,250h-.24ZM459,226.73h0a5,5,0,0,1,4.26-5.64h0a5,5,0,0,1,5.64,4.26h0a5,5,0,0,1-4.26,5.64h0a5.62,5.62,0,0,1-.7,0h0A5,5,0,0,1,459,226.73ZM47.14,230.08a5,5,0,0,1-4.24-5.66h0a5,5,0,0,1,5.66-4.24h0a5,5,0,0,1,4.24,5.66h0a5,5,0,0,1-4.94,4.29h0A5.81,5.81,0,0,1,47.14,230.08Zm408.29-22.52a5,5,0,0,1,3.71-6h0a5,5,0,0,1,6,3.71h0a5,5,0,0,1-3.71,6h0a4.66,4.66,0,0,1-1.16.14h0A5,5,0,0,1,455.43,207.56Zm-405,2.81a5,5,0,0,1-3.68-6h0a5,5,0,0,1,6-3.68h0a5,5,0,0,1,3.68,6h0a5,5,0,0,1-4.86,3.82h0A5.35,5.35,0,0,1,50.45,210.37ZM450,188.82a5,5,0,0,1,3.11-6.35h0a5,5,0,0,1,6.35,3.11h0a5,5,0,0,1-3.11,6.35h0a5.14,5.14,0,0,1-1.62.27h0A5,5,0,0,1,450,188.82ZM55.63,191.06a5,5,0,0,1-3.08-6.37h0a5,5,0,0,1,6.36-3.08h0A5,5,0,0,1,62,188h0a5,5,0,0,1-4.72,3.36h0A5,5,0,0,1,55.63,191.06Zm387.18-20.38a5,5,0,0,1,2.5-6.62h0a5,5,0,0,1,6.61,2.49h0a5,5,0,0,1-2.49,6.62h0a5,5,0,0,1-2.06.45h0A5,5,0,0,1,442.81,170.68ZM62.64,172.33a5,5,0,0,1-2.47-6.63h0a5,5,0,0,1,6.63-2.46h0a5,5,0,0,1,2.46,6.63h0a5,5,0,0,1-4.54,2.92h0A5,5,0,0,1,62.64,172.33Zm371.28-19a5,5,0,0,1,1.85-6.82h0a5,5,0,0,1,6.83,1.85h0a5,5,0,0,1-1.85,6.82h0a5,5,0,0,1-2.48.67h0A5,5,0,0,1,433.92,153.31ZM71.4,154.36a5,5,0,0,1-1.82-6.83h0a5,5,0,0,1,6.83-1.82h0a5,5,0,0,1,1.82,6.83h0A5,5,0,0,1,73.9,155h0A5,5,0,0,1,71.4,154.36Zm352-17.49a5,5,0,0,1,1.19-7h0a5,5,0,0,1,7,1.19h0a5,5,0,0,1-1.19,7h0a5,5,0,0,1-2.89.92h0A5,5,0,0,1,423.42,136.87Zm-341.59.44a5,5,0,0,1-1.16-7h0a5,5,0,0,1,7-1.16h0a5,5,0,0,1,1.17,7h0a5,5,0,0,1-4.08,2.1h0A5,5,0,0,1,81.83,137.31ZM411.4,121.49a5,5,0,0,1,.53-7h0A5,5,0,0,1,419,115h0a5,5,0,0,1-.53,7h0a5,5,0,0,1-3.26,1.21h0A5,5,0,0,1,411.4,121.49Zm-317.56-.17a5,5,0,0,1-.5-7.06h0a5,5,0,0,1,7-.49h0a5,5,0,0,1,.5,7h0a5,5,0,0,1-3.78,1.72h0A5,5,0,0,1,93.84,121.32Zm304.14-14a5,5,0,0,1-.14-7.07h0a5,5,0,0,1,7.07-.14h0a5,5,0,0,1,.14,7.07h0a5,5,0,0,1-3.6,1.53h0A5,5,0,0,1,398,107.32Zm-290.68-.79a5,5,0,0,1,.17-7.07h0a5,5,0,0,1,7.07.17h0a5,5,0,0,1-.17,7.07h0a5,5,0,0,1-3.45,1.38h0A5,5,0,0,1,107.3,106.53Zm276-12.06a5,5,0,0,1-.81-7h0a5,5,0,0,1,7-.81h0a5,5,0,0,1,.8,7h0a5,5,0,0,1-3.92,1.89h0A5,5,0,0,1,383.29,94.47ZM122.1,93.09a5,5,0,0,1,.83-7h0a5,5,0,0,1,7,.84h0a5,5,0,0,1-.84,7h0A5,5,0,0,1,126,95h0A5,5,0,0,1,122.1,93.09Zm245.35-10A5,5,0,0,1,366,76.16h0a5,5,0,0,1,6.91-1.47h0a5,5,0,0,1,1.47,6.92h0a5,5,0,0,1-4.2,2.28h0A4.93,4.93,0,0,1,367.45,83.08Zm-229.35-2a5,5,0,0,1,1.5-6.91h0a5,5,0,0,1,6.91,1.5h0A5,5,0,0,1,145,82.6h0a5,5,0,0,1-2.7.79h0A5,5,0,0,1,138.1,81.1Zm212.5-7.86a5,5,0,0,1-2.12-6.74h0a5,5,0,0,1,6.74-2.12h0a5,5,0,0,1,2.12,6.74h0a5,5,0,0,1-4.44,2.69h0A4.86,4.86,0,0,1,350.6,73.24ZM155.17,70.68A5,5,0,0,1,157.32,64h0a5,5,0,0,1,6.73,2.15h0a5,5,0,0,1-2.15,6.73h0a4.93,4.93,0,0,1-2.29.56h0A5,5,0,0,1,155.17,70.68Zm177.72-5.62h0a5,5,0,0,1-2.76-6.52h0a5,5,0,0,1,6.52-2.75h0a5,5,0,0,1,2.76,6.51h0a5,5,0,0,1-4.64,3.12h0A4.93,4.93,0,0,1,332.89,65.06ZM173.15,61.94a5,5,0,0,1,2.78-6.5h0a5,5,0,0,1,6.5,2.78h0a5,5,0,0,1-2.78,6.5h0a4.88,4.88,0,0,1-1.86.36h0A5,5,0,0,1,173.15,61.94ZM314.48,58.6h0a5,5,0,0,1-3.37-6.22h0A5,5,0,0,1,317.33,49h0a5,5,0,0,1,3.37,6.21h0a5,5,0,0,1-4.79,3.58h0A5,5,0,0,1,314.48,58.6ZM191.88,55a5,5,0,0,1,3.4-6.21h0a5,5,0,0,1,6.2,3.39h0a5,5,0,0,1-3.39,6.21h0a5,5,0,0,1-1.41.2h0A5,5,0,0,1,191.88,55Zm103.66-1a5,5,0,0,1-4-5.87h0a5,5,0,0,1,5.87-4h0a5,5,0,0,1,4,5.87h0a5,5,0,0,1-4.9,4h0A5.31,5.31,0,0,1,295.54,53.94ZM211.2,49.8a5,5,0,0,1,4-5.85h0a5,5,0,0,1,5.85,4h0a5,5,0,0,1-4,5.85h0a5.09,5.09,0,0,1-1,.09h0A5,5,0,0,1,211.2,49.8Zm65,1.3a5,5,0,0,1-4.49-5.46h0a5,5,0,0,1,5.47-4.49h0a5,5,0,0,1,4.48,5.47h0a5,5,0,0,1-5,4.51h0A4,4,0,0,1,276.24,51.1Zm-45.32-4.59a5,5,0,0,1,4.51-5.45h0a5,5,0,0,1,5.44,4.51h0A5,5,0,0,1,236.36,51h0l-.47,0h0A5,5,0,0,1,230.92,46.51Zm25.83,3.6h0a3.4,3.4,0,0,1-.45,0h0a3.17,3.17,0,0,1-.44,0h0a5,5,0,0,1-5-5h0a5,5,0,0,1,5-5h0a3.54,3.54,0,0,1,.46,0h0a3.7,3.7,0,0,1,.47,0h0a5,5,0,0,1,5,5h0a5,5,0,0,1-5,5h0Z"/></g></svg>