<?xml version="1.0" ?><svg enable-background="new 0 0 512 512" version="1.1" viewBox="0 0 512 512" xml:space="preserve" xmlns="http://www.w3.org/2000/svg" xmlns:xlink="http://www.w3.org/1999/xlink"><g id="Colors"><g><path d="M420.594,362.945c-4.357,0-8.655-0.868-12.429-2.51c-2.532-1.102-3.691-4.048-2.59-6.58    c1.103-2.532,4.049-3.691,6.58-2.59c2.525,1.099,5.443,1.68,8.439,1.68c8.445,0,15.579-4.666,15.579-10.189c0-2.761,2.239-5,5-5    s5,2.239,5,5C446.173,353.888,434.698,362.945,420.594,362.945z" fill="#3F456B"/></g><g><path d="M402,295c-2.761,0-5-2.239-5-5s2.239-5,5-5c10.211,0,12.051-9.806,12.227-10.924    c0.406-2.579,2.737-4.425,5.333-4.225c2.602,0.204,4.612,2.357,4.612,4.967c0,4.934,6.46,9.102,14.107,9.102    c7.174,0,12.584-4.028,12.584-9.371c0-0.085,0.002-0.171,0.006-0.257c0.003-0.14,0.079-4.919-3.864-9.769    c-6.353-7.815-40.941-48.349-41.29-48.758c-0.026-0.03-0.052-0.061-0.077-0.092l0,0c-0.001,0-2.189-2.516-4.984-2.516    c-3.847,0-5.633,1.865-5.944,2.228c-0.112,0.184-0.129,0.181-0.299,0.38l-5.734,6.726c-1.792,2.102-4.946,2.354-7.049,0.563    c-2.102-1.791-2.354-4.947-0.563-7.049l5.626-6.599c1.058-1.394,5.362-6.25,13.963-6.25c7.281,0,11.971,5.278,12.693,6.146    c1.765,2.068,35.024,41.047,41.417,48.911c6.07,7.466,6.142,15.021,6.097,16.435c-0.059,10.993-9.748,19.269-22.584,19.269    c-7.785,0-14.6-2.783-18.979-7.19C415.832,291.242,410.306,295,402,295z" fill="#3F456B"/></g><g><path d="M462.065,362.945c-14.104,0-25.579-9.057-25.579-20.189c0-2.761,2.239-5,5-5s5,2.239,5,5    c0,5.523,7.134,10.189,15.579,10.189c7.928,0,11.766-3.232,12.832-10.807c0.014-0.099,0.031-0.198,0.051-0.296    c0.027-0.16,0.891-5.402-3.185-10.415c-6.861-8.44-32.386-38.993-32.643-39.3c-1.771-2.119-1.488-5.272,0.631-7.043    c2.119-1.771,5.272-1.489,7.043,0.631c0.257,0.308,25.826,30.912,32.729,39.404c6.625,8.149,5.523,16.946,5.266,18.486    C483.006,356.077,474.938,362.945,462.065,362.945z" fill="#3F456B"/></g><g><path d="M453.055,429.558c-1.836,0-3.604-1.015-4.479-2.77c-1.232-2.472-0.228-5.474,2.244-6.706    c3.949-1.969,6.306-5.004,6.306-8.12c0-2.761,2.239-5,5-5s5,2.239,5,5c0,6.991-4.428,13.372-11.844,17.069    C454.565,429.389,453.804,429.558,453.055,429.558z" fill="#3F456B"/></g><g><path d="M481.747,432.151c-13.812,0-24.632-8.868-24.632-20.188c0-2.761,2.239-5,5-5s5,2.239,5,5    c0,5.713,6.427,10.188,14.632,10.188c7.068,0,14.621-2.677,14.621-10.19c0-0.142,0.006-0.283,0.018-0.424    c0.01-0.176,0.298-5.626-3.993-10.905c-6.861-8.439-32.387-38.992-32.644-39.3c-1.771-2.119-1.488-5.272,0.631-7.043    c2.119-1.77,5.273-1.488,7.043,0.631c0.257,0.308,25.826,30.913,32.729,39.404c6.334,7.792,6.292,16.125,6.215,17.778    C506.29,424.101,496.416,432.151,481.747,432.151z" fill="#3F456B"/></g><g><path d="M97.101,341.504c-11.652,0-20.779-7.312-20.779-16.646c0-2.761,2.239-5,5-5s5,2.239,5,5    c0,3.144,4.427,6.646,10.779,6.646s10.779-3.502,10.779-6.646c0-2.761,2.239-5,5-5s5,2.239,5,5    C117.879,334.192,108.752,341.504,97.101,341.504z" fill="#3F456B"/></g><g><path d="M77.703,398.376c-0.177,0-0.356-0.009-0.537-0.029c-11.017-1.175-19.013-8.486-19.013-17.385    c0-2.761,2.239-5,5-5s5,2.239,5,5c0,3.571,4.425,6.839,10.074,7.442c2.746,0.292,4.734,2.756,4.441,5.502    C82.395,396.471,80.226,398.376,77.703,398.376z" fill="#3F456B"/></g><g><path d="M118.331,338.667c-0.921,0-1.854-0.254-2.688-0.787c-4.934-3.153-7.764-7.899-7.764-13.021    c0-2.761,2.239-5,5-5s5,2.239,5,5c0,1.642,1.147,3.316,3.148,4.595c2.327,1.487,3.008,4.579,1.521,6.906    C121.595,337.851,119.98,338.667,118.331,338.667z" fill="#3F456B"/></g><g><path d="M65.542,341.504c-11.073,0-19.432-7.211-19.492-16.791c-0.042-1.329,0.045-7.771,5.202-14.114    c5.21-6.409,31.974-37.779,34.137-40.314c0.999-1.296,4.791-5.474,12.199-5.474c6.376,0,10.485,4.591,11.147,5.384    c0.578,0.677,11.759,13.78,21.33,25.072c1.785,2.106,1.525,5.262-0.582,7.047c-2.106,1.785-5.262,1.525-7.047-0.582    c-9.817-11.583-21.331-25.074-21.331-25.074c-0.026-0.03-0.051-0.061-0.077-0.092c0,0,0,0,0,0c-0.003,0-1.591-1.756-3.441-1.756    c-2.654,0-3.898,1.153-4.201,1.483c-0.109,0.187-0.108,0.148-0.292,0.364c-0.288,0.337-28.845,33.803-34.084,40.248    c-3.021,3.716-2.97,7.343-2.966,7.496c0.005,0.095,0.004,0.111,0.004,0.206c0,3.931,4.081,6.896,9.493,6.896    c6.353,0,10.779-3.502,10.779-6.646c0-2.761,2.239-5,5-5s5,2.239,5,5C86.322,334.192,77.194,341.504,65.542,341.504z" fill="#3F456B"/></g><g><path d="M46.159,398.505c-11.757,0-20.31-7.265-20.408-17.302c-0.089-1.588-0.136-8.649,5.315-15.355    c5.705-7.017,26.823-32.295,27.036-32.549c1.77-2.119,4.924-2.402,7.043-0.631c2.119,1.771,2.401,4.924,0.631,7.043    c-0.212,0.254-21.288,25.479-26.95,32.445c-3.31,4.072-3.1,8.328-3.09,8.507c0.013,0.143,0.014,0.222,0.014,0.365    c0,4.403,4.28,7.479,10.409,7.479c6.39,0,11.994-3.525,11.994-7.543c0-2.761,2.239-5,5-5s5,2.239,5,5    C68.153,390.799,58.492,398.505,46.159,398.505z" fill="#3F456B"/></g><g><path d="M48.47,449.387c-1.483,0-2.951-0.657-3.938-1.914c-2.187-2.788-3.342-6.024-3.342-9.36    c0-2.761,2.239-5,5-5s5,2.239,5,5c0,1.092,0.407,2.165,1.21,3.188c1.704,2.173,1.325,5.316-0.848,7.02    C50.637,449.039,49.55,449.387,48.47,449.387z" fill="#3F456B"/></g><g><path d="M29.206,455.656c-11.269,0-19.357-7.069-20.161-17.602c-0.151-1.438-0.506-8.199,5.068-15.056    c5.705-7.017,26.823-32.295,27.036-32.549c1.77-2.119,4.924-2.401,7.043-0.631s2.401,4.924,0.631,7.043    c-0.212,0.254-21.288,25.479-26.95,32.445c-3.167,3.896-2.898,7.577-2.894,7.611c0.014,0.105,0.025,0.21,0.033,0.316    c0.382,5.353,4.098,8.423,10.194,8.423c6.39,0,11.994-3.525,11.994-7.543c0-2.761,2.239-5,5-5s5,2.239,5,5    C51.2,447.95,41.539,455.656,29.206,455.656z" fill="#3F456B"/></g><g><g><path d="M89.167,157.341C89.166,157.341,89.166,157.341,89.167,157.341c-38.144-0.005-38.29-0.01-38.418-0.014     C27.08,156.57,8.544,137.456,8.544,113.811c0-19.75,13.026-36.652,31.611-41.907c-0.085-0.979-0.128-1.963-0.128-2.948     c0-18.722,15.236-33.954,33.964-33.954c7.62,0,14.887,2.526,20.777,7.094c10.155-19.061,30.322-31.433,52.262-31.433     c14.171,0,27.88,5.089,38.601,14.329c10.606,9.142,17.645,21.754,19.821,35.516c0.432,2.728-1.43,5.288-4.158,5.719     c-2.724,0.434-5.289-1.429-5.719-4.158c-3.793-23.992-24.209-41.406-48.544-41.406c-20.3,0-38.773,12.746-45.97,31.716     c-0.633,1.668-2.106,2.873-3.867,3.161c-1.762,0.288-3.542-0.384-4.673-1.763c-4.575-5.577-11.328-8.775-18.529-8.775     c-13.214,0-23.964,10.746-23.964,23.954c0,1.896,0.225,3.786,0.669,5.62c0.328,1.352,0.077,2.779-0.691,3.938     s-1.984,1.947-3.357,2.172c-16.285,2.679-28.104,16.61-28.104,33.124c0,18.194,14.252,32.906,32.458,33.52     c0.641,0.002,6.695,0.006,38.165,0.011c2.762,0,5,2.239,5,5S91.928,157.341,89.167,157.341z" fill="#3F456B"/></g></g><g><g><path d="M383,260h-64.5c-2.761,0-5-2.239-5-5s2.239-5,5-5H383c2.761,0,5,2.239,5,5S385.761,260,383,260z" fill="#3F456B"/></g><g><path d="M191,260h-63c-2.761,0-5-2.239-5-5s2.239-5,5-5h63c2.761,0,5,2.239,5,5S193.761,260,191,260z" fill="#3F456B"/></g><g><path d="M383,292h-58c-2.761,0-5-2.239-5-5s2.239-5,5-5h58c2.761,0,5,2.239,5,5S385.761,292,383,292z" fill="#3F456B"/></g><g><path d="M183.75,292H128c-2.761,0-5-2.239-5-5s2.239-5,5-5h55.75c2.761,0,5,2.239,5,5S186.511,292,183.75,292z" fill="#3F456B"/></g><g><path d="M383,324h-39.25c-2.761,0-5-2.239-5-5s2.239-5,5-5H383c2.761,0,5,2.239,5,5S385.761,324,383,324z" fill="#3F456B"/></g><g><path d="M168,324h-40c-2.761,0-5-2.239-5-5s2.239-5,5-5h40c2.761,0,5,2.239,5,5S170.761,324,168,324z" fill="#3F456B"/></g><g><path d="M383,356h-36c-2.761,0-5-2.239-5-5s2.239-5,5-5h36c2.761,0,5,2.239,5,5S385.761,356,383,356z" fill="#3F456B"/></g><g><path d="M162.717,356H128c-2.761,0-5-2.239-5-5s2.239-5,5-5h34.717c2.761,0,5,2.239,5,5S165.478,356,162.717,356z     " fill="#3F456B"/></g><g><path d="M383,388H128c-2.761,0-5-2.239-5-5s2.239-5,5-5h255c2.761,0,5,2.239,5,5S385.761,388,383,388z" fill="#3F456B"/></g><g><path d="M160,291c-2.761,0-5-2.239-5-5v-31c0-2.761,2.239-5,5-5s5,2.239,5,5v31C165,288.761,162.761,291,160,291z     " fill="#3F456B"/></g><g><path d="M352,291c-2.761,0-5-2.239-5-5v-31c0-2.761,2.239-5,5-5s5,2.239,5,5v31C357,288.761,354.761,291,352,291z     " fill="#3F456B"/></g><g><path d="M191,387c-2.761,0-5-2.239-5-5v-29c0-2.761,2.239-5,5-5s5,2.239,5,5v29C196,384.761,193.761,387,191,387z     " fill="#3F456B"/></g><g><path d="M319,387c-2.761,0-5-2.239-5-5v-29c0-2.761,2.239-5,5-5s5,2.239,5,5v29C324,384.761,321.761,387,319,387z     " fill="#3F456B"/></g><g><path d="M289,419c-2.761,0-5-2.239-5-5v-31c0-2.761,2.239-5,5-5s5,2.239,5,5v31C294,416.761,291.761,419,289,419z     " fill="#3F456B"/></g><g><path d="M224,419c-2.761,0-5-2.239-5-5v-31c0-2.761,2.239-5,5-5s5,2.239,5,5v31C229,416.761,226.761,419,224,419z     " fill="#3F456B"/></g><g><path d="M160,419c-2.761,0-5-2.239-5-5v-31c0-2.761,2.239-5,5-5s5,2.239,5,5v31C165,416.761,162.761,419,160,419z     " fill="#3F456B"/></g><g><path d="M352,419c-2.761,0-5-2.239-5-5v-31c0-2.761,2.239-5,5-5s5,2.239,5,5v31C357,416.761,354.761,419,352,419z     " fill="#3F456B"/></g></g><g><g><path d="M121,165c-2.761,0-5-2.239-5-5v-60c0-2.761,2.239-5,5-5s5,2.239,5,5v60C126,162.762,123.761,165,121,165z     " fill="#3F456B"/></g><g><path d="M223,148c-2.761,0-5-2.239-5-5v-21c0-2.761,2.239-5,5-5s5,2.239,5,5v21C228,145.761,225.761,148,223,148z     " fill="#3F456B"/></g><g><path d="M257,165c-2.761,0-5-2.239-5-5v-35c0-2.761,2.239-5,5-5s5,2.239,5,5v35C262,162.762,259.761,165,257,165z     " fill="#3F456B"/></g><g><path d="M291,148c-2.761,0-5-2.239-5-5v-29c0-2.761,2.239-5,5-5s5,2.239,5,5v29C296,145.761,293.761,148,291,148z     " fill="#3F456B"/></g><g><path d="M325,136c-2.761,0-5-2.239-5-5V99c0-2.761,2.239-5,5-5s5,2.239,5,5v32C330,133.761,327.761,136,325,136z" fill="#3F456B"/></g><g><path d="M359,165c-2.761,0-5-2.239-5-5V93c0-2.761,2.239-5,5-5s5,2.239,5,5v67C364,162.762,361.762,165,359,165z" fill="#3F456B"/></g><g><path d="M393,165c-2.761,0-5-2.239-5-5V99c0-2.761,2.239-5,5-5s5,2.239,5,5v61C398,162.762,395.762,165,393,165z" fill="#3F456B"/></g><g><path d="M155,165c-2.761,0-5-2.239-5-5V94c0-2.761,2.239-5,5-5s5,2.239,5,5v66C160,162.762,157.761,165,155,165z" fill="#3F456B"/></g><g><path d="M189,136c-2.761,0-5-2.239-5-5v-24c0-2.761,2.239-5,5-5s5,2.239,5,5v24C194,133.761,191.761,136,189,136z     " fill="#3F456B"/></g></g></g><g id="Lines"><g><path d="M416.406,195.635c-3.575,0-6.473-2.896-6.473-6.473c0-3.574,2.897-6.472,6.473-6.472    c3.574,0,6.473,2.898,6.473,6.472C422.879,192.738,419.98,195.635,416.406,195.635z" fill="#3F456B"/></g><g><path d="M51.406,288.635c-3.575,0-6.473-2.896-6.473-6.473c0-3.574,2.898-6.472,6.473-6.472    c3.574,0,6.473,2.898,6.473,6.472C57.879,285.738,54.98,288.635,51.406,288.635z" fill="#3F456B"/></g><g><path d="M16.406,404.635c-3.575,0-6.473-2.896-6.473-6.473c0-3.574,2.898-6.472,6.473-6.472    c3.574,0,6.473,2.898,6.473,6.472C22.879,401.738,19.98,404.635,16.406,404.635z" fill="#3F456B"/></g><g><path d="M89.406,198.635c-3.575,0-6.473-2.896-6.473-6.473c0-3.574,2.898-6.472,6.473-6.472    c3.574,0,6.473,2.898,6.473,6.472C95.879,195.738,92.98,198.635,89.406,198.635z" fill="#3F456B"/></g><g><path d="M102.406,242.635c-3.575,0-6.473-2.896-6.473-6.473c0-3.574,2.898-6.472,6.473-6.472    c3.574,0,6.473,2.898,6.473,6.472C108.879,239.738,105.98,242.635,102.406,242.635z" fill="#3F456B"/></g><g><path d="M492.406,456.635c-3.575,0-6.473-2.896-6.473-6.473c0-3.574,2.897-6.472,6.473-6.472    c3.574,0,6.473,2.898,6.473,6.472C498.879,453.738,495.98,456.635,492.406,456.635z" fill="#3F456B"/></g><g><path d="M480.406,296.635c-3.575,0-6.473-2.896-6.473-6.473c0-3.574,2.897-6.472,6.473-6.472    c3.574,0,6.473,2.898,6.473,6.472C486.879,293.738,483.98,296.635,480.406,296.635z" fill="#3F456B"/></g><g><path d="M474.406,158.635c-3.575,0-6.473-2.896-6.473-6.473c0-3.574,2.897-6.472,6.473-6.472    c3.574,0,6.473,2.898,6.473,6.472C480.879,155.738,477.98,158.635,474.406,158.635z" fill="#3F456B"/></g><g><path d="M410.406,25.635c-3.575,0-6.473-2.896-6.473-6.473c0-3.574,2.897-6.472,6.473-6.472    c3.574,0,6.473,2.898,6.473,6.472C416.879,22.738,413.98,25.635,410.406,25.635z" fill="#3F456B"/></g><g><path d="M478.406,101.635c-3.575,0-6.473-2.896-6.473-6.473c0-3.574,2.897-6.472,6.473-6.472    c3.574,0,6.473,2.898,6.473,6.472C484.879,98.738,481.98,101.635,478.406,101.635z" fill="#3F456B"/></g><g><path d="M32.406,236.635c-3.575,0-6.473-2.896-6.473-6.473c0-3.574,2.898-6.472,6.473-6.472    c3.574,0,6.473,2.898,6.473,6.472C38.879,233.738,35.98,236.635,32.406,236.635z" fill="#3F456B"/></g><g><path d="M214.406,43.635c-3.575,0-6.473-2.896-6.473-6.473c0-3.574,2.898-6.472,6.473-6.472    c3.574,0,6.473,2.898,6.473,6.472C220.879,40.738,217.98,43.635,214.406,43.635z" fill="#3F456B"/></g><g><path d="M384,420H126.982c-2.761,0-5-2.239-5-5V160c0-2.761,2.239-5,5-5h27.352c2.761,0,5,2.239,5,5s-2.239,5-5,5    h-22.352v245H379V165h-20c-2.761,0-5-2.239-5-5s2.239-5,5-5h25c2.761,0,5,2.239,5,5v255C389,417.761,386.761,420,384,420z" fill="#3F456B"/></g><g><path d="M274,165h-34c-2.761,0-5-2.239-5-5s2.239-5,5-5h34c2.761,0,5,2.239,5,5S276.761,165,274,165z" fill="#3F456B"/></g><g><path d="M496,500H16c-1.824,0-3.502-0.993-4.381-2.591c-0.878-1.598-0.818-3.547,0.159-5.087l111-175    c1.479-2.332,4.567-3.024,6.9-1.544c2.332,1.479,3.023,4.568,1.544,6.9L25.092,490h461.787L380.785,323.689    c-1.485-2.328-0.802-5.419,1.526-6.904s5.419-0.802,6.904,1.526l111,174c0.982,1.539,1.047,3.492,0.169,5.093    C499.507,499.005,497.826,500,496,500z" fill="#3F456B"/></g><g><path d="M154.333,165H100c-8.271,0-15-6.729-15-15v-8.333c0-2.761,2.239-5,5-5s5,2.239,5,5V150    c0,2.757,2.243,5,5,5h54.333c2.761,0,5,2.239,5,5S157.095,165,154.333,165z" fill="#3F456B"/></g><g><path d="M414,165h-55c-2.761,0-5-2.239-5-5s2.239-5,5-5h55c2.757,0,5-2.243,5-5v-19.583c0-2.761,2.239-5,5-5    s5,2.239,5,5V150C429,158.271,422.271,165,414,165z" fill="#3F456B"/></g><g><path d="M93.609,145.525c-9.669,0-18.181-5.861-21.678-15.196c-2.259-6.029-2.116-12.453-1.989-18.12    c0.029-1.297,0.058-2.585,0.058-3.857V86c0-26.462,25.504-27.982,25.762-27.995C95.841,58.002,95.921,58,96,58h316    c9.076,0,16.355,2.782,21.634,8.268c8.443,8.774,8.401,21.334,8.366,22.801V113c0,12.222-9.28,20.449-17.878,21.063    c-1.858,0.134-3.601,0.024-5.179-0.323c-8.71-1.915-12.212-9.297-15.027-15.228c-1.136-2.395-2.209-4.656-3.468-6.327    c-14.411-19.124-39.311-16.542-63.579-12.261c-7.437,1.312-18.37,6.218-29.944,11.412c-13.588,6.097-28.989,13.008-43.766,16.528    c-31.361,7.472-53.75-5.048-77.452-18.304l-3.178-1.775c-14.064-7.835-30.746-11.111-48.235-9.471    c-8.862,0.83-13.655,7.693-15.724,11.71c-1.811,3.517-3.11,7.225-3.755,10.726c-0.199,1.078-0.355,2.207-0.521,3.402    c-0.677,4.882-1.444,10.417-5.525,15.023c-3.058,3.453-7.504,5.656-12.518,6.205C95.363,145.477,94.481,145.525,93.609,145.525z     M96.15,68C94.142,68.139,80,69.701,80,86v22.352c0,1.345-0.03,2.708-0.061,4.08c-0.117,5.227-0.227,10.163,1.356,14.388    c2.216,5.915,7.65,9.294,13.868,8.619c2.502-0.274,4.733-1.329,6.12-2.895c2.076-2.344,2.553-5.783,3.105-9.766    c0.173-1.251,0.353-2.545,0.592-3.843c0.821-4.45,2.446-9.115,4.699-13.49c5.188-10.076,13.599-16.145,23.682-17.088    c19.514-1.827,38.198,1.869,54.034,10.691l3.192,1.783c22.904,12.809,42.685,23.873,70.253,17.304    c13.86-3.302,28.804-10.008,41.989-15.924c12.685-5.692,23.64-10.607,32.3-12.136c20.195-3.564,53.997-9.528,73.303,16.09    c1.871,2.483,3.216,5.317,4.517,8.058c2.614,5.509,4.406,8.927,8.14,9.749c0.64,0.141,1.422,0.179,2.319,0.115    c5.062-0.361,8.59-6.134,8.59-11.088V89c0-0.064,0.001-0.128,0.004-0.192c0.002-0.075,0.218-9.637-5.622-15.653    C423.063,69.734,418.224,68,412,68H96.15z" fill="#3F456B"/></g><g><path d="M256,500c-2.761,0-5-2.239-5-5v-79.5c0-2.761,2.239-5,5-5s5,2.239,5,5V495    C261,497.761,258.761,500,256,500z" fill="#3F456B"/></g><g><path d="M199.005,500.001c-0.329,0-0.663-0.033-0.998-0.101c-2.707-0.548-4.456-3.187-3.908-5.893l16-79    c0.548-2.706,3.187-4.457,5.893-3.908c2.707,0.548,4.456,3.187,3.908,5.893l-16,79    C203.42,498.364,201.335,500.001,199.005,500.001z" fill="#3F456B"/></g><g><path d="M139,500.001c-0.572,0-1.154-0.099-1.723-0.308c-2.592-0.952-3.922-3.825-2.971-6.417l29-79    c0.952-2.592,3.821-3.923,6.417-2.971c2.592,0.952,3.922,3.825,2.971,6.417l-29,79C142.951,498.747,141.037,500.001,139,500.001z" fill="#3F456B"/></g><g><path d="M77.662,500.001c-0.776,0-1.563-0.181-2.3-0.563c-2.451-1.273-3.406-4.291-2.133-6.742l49.333-95    c1.272-2.451,4.29-3.406,6.742-2.133c2.451,1.273,3.406,4.291,2.133,6.742l-49.333,95    C81.214,499.019,79.469,500.001,77.662,500.001z" fill="#3F456B"/></g><g><path d="M312.661,500.001c-2.33,0-4.415-1.637-4.895-4.008l-16-79c-0.548-2.707,1.201-5.345,3.908-5.893    c2.705-0.55,5.345,1.201,5.893,3.908l16,79c0.548,2.707-1.201,5.345-3.908,5.893C313.324,499.968,312.99,500.001,312.661,500.001z    " fill="#3F456B"/></g><g><path d="M372.667,500.001c-2.038,0-3.951-1.254-4.694-3.278l-29-79c-0.952-2.592,0.378-5.465,2.971-6.417    c2.593-0.952,5.465,0.378,6.417,2.971l29,79c0.952,2.592-0.378,5.465-2.971,6.417    C373.821,499.902,373.239,500.001,372.667,500.001z" fill="#3F456B"/></g><g><path d="M434.004,500.001c-1.807,0-3.551-0.982-4.442-2.697l-49.333-95c-1.272-2.451-0.317-5.469,2.133-6.742    c2.451-1.273,5.468-0.317,6.742,2.133l49.333,95c1.272,2.451,0.317,5.469-2.133,6.742    C435.568,499.82,434.78,500.001,434.004,500.001z" fill="#3F456B"/></g><g><path d="M164,194h-36c-2.761,0-5-2.239-5-5s2.239-5,5-5h36c2.761,0,5,2.239,5,5S166.761,194,164,194z" fill="#3F456B"/></g><g><path d="M197,229h-69c-2.761,0-5-2.239-5-5s2.239-5,5-5h69c2.761,0,5,2.239,5,5S199.761,229,197,229z" fill="#3F456B"/></g><g><path d="M384,229h-73c-2.761,0-5-2.239-5-5s2.239-5,5-5h73c2.761,0,5,2.239,5,5S386.761,229,384,229z" fill="#3F456B"/></g><g><g><path d="M306.854,206.116c-16.218,0-32.789-3.701-46.213-8.698c-1.253-0.467-2.499-0.95-3.739-1.447     c-0.001,0-0.002-0.001-0.004-0.002c-1.57-0.631-2.757-1.947-3.259-3.61c-0.662-2.197-0.726-4.99,5.228-16.967     c2.786-5.604,5.996-11.36,6.675-12.347c11.912-17.298,25.951-28.595,41.727-33.577c9.441-2.98,20.125-3.25,29.309-0.741     c11.468,3.134,19.54,10.151,23.342,20.291c3.689,9.838,3.773,19.911,0.243,29.129c-3.194,8.339-9.106,15.268-16.648,19.51     C332.746,203.715,319.914,206.116,306.854,206.116z M264.094,188.033c0.012,0.004,0.024,0.009,0.036,0.014     c22.131,8.237,53.319,12.798,74.482,0.895c13.878-7.807,16.514-24.227,11.945-36.412c-6.069-16.186-27.206-17.653-40.276-13.525     c-13.602,4.295-25.883,14.292-36.502,29.713C272.35,170.949,266.237,182.392,264.094,188.033z M260.63,186.692     c0.002,0,0.004,0.001,0.007,0.002C260.634,186.693,260.632,186.692,260.63,186.692L260.63,186.692z" fill="#3F456B"/></g><g><path d="M262.31,197.512c-1.141,0-2.288-0.388-3.227-1.183c-2.108-1.784-2.371-4.938-0.587-7.046     c9.753-11.527,38.506-27.639,56.915-29.313c20.244-1.839,24.28,7.1,24.884,8.911c0.873,2.62-0.543,5.451-3.163,6.325     c-2.485,0.83-5.163-0.405-6.176-2.771c-0.729-1.056-4.631-3.412-14.64-2.505c-16.654,1.514-42.672,16.932-50.187,25.813     C265.141,196.91,263.73,197.512,262.31,197.512z M330.992,172.489L330.992,172.489L330.992,172.489z M330.812,172.057     C330.812,172.057,330.812,172.057,330.812,172.057C330.812,172.057,330.812,172.057,330.812,172.057z M330.81,172.049     c0,0.002,0.001,0.003,0.001,0.005C330.811,172.052,330.81,172.051,330.81,172.049z M330.807,172.042     c0.001,0.001,0.001,0.003,0.002,0.005C330.809,172.046,330.808,172.044,330.807,172.042z" fill="#3F456B"/></g></g><g><g><path d="M206.251,206.116c-13.061,0-25.89-2.4-36.66-8.458c-14.217-7.998-24.418-27.273-16.406-48.639     c3.802-10.14,11.874-17.157,23.342-20.291c9.185-2.51,19.868-2.241,29.309,0.741c15.775,4.982,29.814,16.279,41.727,33.577     c0.679,0.987,3.889,6.742,6.675,12.347c5.954,11.977,5.89,14.77,5.228,16.967c-0.501,1.663-1.689,2.979-3.259,3.61     c-0.001,0-0.002,0.001-0.004,0.002c-1.24,0.497-2.486,0.98-3.738,1.446C239.042,202.414,222.468,206.116,206.251,206.116z      M189.652,137.046c-11.123,0-22.836,4.104-27.104,15.483c-4.569,12.186-1.934,28.605,11.945,36.413     c21.164,11.904,52.352,7.343,74.483-0.896c0.012-0.004,0.024-0.009,0.036-0.013c-2.144-5.642-8.263-17.093-9.725-19.375     c-10.58-15.361-22.86-25.358-36.462-29.653C198.943,137.778,194.35,137.046,189.652,137.046z M254.341,191.331h0.01H254.341z      M252.476,186.692c-0.003,0.001-0.006,0.002-0.009,0.003C252.469,186.694,252.473,186.693,252.476,186.692L252.476,186.692z" fill="#3F456B"/></g><g><path d="M250.795,197.512c-1.42,0-2.831-0.602-3.819-1.771c-7.515-8.881-33.532-24.299-50.187-25.813     c-10.01-0.91-13.912,1.449-14.64,2.505c-1.012,2.367-3.688,3.602-6.176,2.771c-2.62-0.874-4.036-3.705-3.163-6.325     c0.604-1.811,4.644-10.746,24.884-8.911c18.409,1.674,47.162,17.786,56.915,29.313c1.784,2.108,1.521,5.263-0.587,7.046     C253.083,197.124,251.937,197.512,250.795,197.512z M182.114,172.489L182.114,172.489L182.114,172.489z M182.293,172.057     L182.293,172.057C182.293,172.057,182.293,172.057,182.293,172.057z M182.296,172.049c0,0.002-0.001,0.003-0.001,0.005     C182.295,172.052,182.295,172.051,182.296,172.049z M182.298,172.042c-0.001,0.001-0.001,0.003-0.002,0.005     C182.297,172.046,182.297,172.044,182.298,172.042z" fill="#3F456B"/></g></g><g><g><path d="M255.162,384c-7.038,0-13.657-2.733-18.645-7.701c-6.377-6.351-9.071-15.405-7.205-24.22     c0.572-2.701,3.227-4.426,5.927-3.856c2.702,0.572,4.428,3.226,3.856,5.927c-1.161,5.483,0.513,11.114,4.478,15.062     c3.101,3.088,7.215,4.787,11.589,4.787c0.012,0,0.023,0,0.035,0c4.388-0.009,8.509-1.727,11.605-4.835     c4.04-4.057,5.664-9.811,4.344-15.392c-0.636-2.687,1.028-5.381,3.715-6.016c2.687-0.634,5.38,1.028,6.016,3.715     c2.122,8.971-0.491,18.224-6.99,24.75c-4.981,5.001-11.611,7.764-18.67,7.779C255.2,384,255.18,384,255.162,384z" fill="#3F456B"/></g><g><path d="M338.077,320.679c0,0-0.001,0-0.001,0l-166.747-0.056c-2.762-0.001-5-2.24-4.999-5.001     c0.001-2.761,2.239-4.999,5-4.999c0,0,0.001,0,0.001,0l166.747,0.056c2.762,0.001,5,2.24,4.999,5.001     C343.076,318.441,340.837,320.679,338.077,320.679z" fill="#3F456B"/></g><g><path d="M167.251,357.024c-3.257,0-8.445-1.394-12.387-5.328c-3.234-3.228-4.944-7.538-4.944-12.466     c0-10.361,7.283-16.547,8.621-17.596c16.955-14.422,25.787-35.713,28.63-69.01c2.825-33.075,18.571-47.459,21.22-49.659     c2.365-2.415,18.056-17.198,47.58-17.259c0.044,0,0.092,0,0.136,0c25.54,0,42.158,14.919,44.269,16.918     c2.36,1.933,18.565,16.351,21.561,49.815c3.078,34.334,10.988,53.048,29.188,69.045c0.037,0.032,0.073,0.065,0.109,0.099     c0.799,0.746,7.806,7.555,7.608,16.903c-0.114,5.376-1.977,9.905-5.388,13.094c-5.45,5.097-12.869,5.127-14.247,5.085     l-171.934,0.357C167.267,357.024,167.259,357.024,167.251,357.024z M256.104,195.707c-0.039,0-0.074,0-0.113,0     c-26.858,0.055-39.994,13.76-40.541,14.343c-0.188,0.202-0.411,0.406-0.63,0.574c-0.009,0.008-3.78,3.021-7.82,9.753     c-3.744,6.239-8.495,17.046-9.866,33.099c-3.091,36.194-13.025,59.59-32.21,75.858c-0.091,0.077-0.185,0.151-0.282,0.222     c-0.156,0.12-4.723,3.673-4.723,9.676c0,2.277,0.657,4.04,2.007,5.387c1.809,1.805,4.422,2.359,5.326,2.406l172.028-0.357     c0.084,0.001,0.16,0.002,0.24,0.005c1.206,0.039,4.926-0.327,7.139-2.429c1.413-1.342,2.127-3.294,2.184-5.968     c0.101-4.739-3.964-8.914-4.412-9.358c-20.064-17.675-29.166-38.879-32.456-75.584c-1.438-16.057-6.254-26.897-10.042-33.163     c-4.089-6.766-7.894-9.808-7.932-9.837c-0.144-0.113-0.309-0.256-0.439-0.385C293.428,209.815,278.668,195.707,256.104,195.707z" fill="#3F456B"/></g></g><g><path d="M383,194h-36c-2.761,0-5-2.239-5-5s2.239-5,5-5h36c2.761,0,5,2.239,5,5S385.761,194,383,194z" fill="#3F456B"/></g></g></svg>