<?xml version="1.0" ?><svg viewBox="0 0 512 512" xmlns="http://www.w3.org/2000/svg"><defs><style>.cls-1{fill:#3f456b;}</style></defs><title/><g id="Lines"><path class="cls-1" d="M494.24,427.27a5,5,0,0,1-4.44-2.7L442.56,333.3a5,5,0,1,1,8.88-4.6L498.68,420a5,5,0,0,1-4.44,7.29Z"/><path class="cls-1" d="M74.61,422.32a5,5,0,0,1-4.44-7.3L278.5,12.7a5,5,0,0,1,4.44-2.7h0a5,5,0,0,1,4.44,2.7L404.32,238.09a5,5,0,1,1-8.88,4.6L283,25.87,79.05,419.62A5,5,0,0,1,74.61,422.32Z"/><path class="cls-1" d="M282.94,500c-57.45,0-111.53-6.72-152.28-18.92-43.21-12.93-66-30.2-66-49.95a5,5,0,0,1,10,0c0,14.24,22,29.33,58.92,40.37,39.84,11.93,92.9,18.5,149.41,18.5s109.58-6.57,149.42-18.5c36.89-11,58.92-26.13,58.92-40.37a5,5,0,0,1,10,0c0,19.75-22.84,37-66,49.95C394.48,493.28,340.4,500,282.94,500Z"/><path class="cls-1" d="M496.28,436.13a5,5,0,0,1-5-5,16.05,16.05,0,0,0-1.57-6.75,5,5,0,1,1,9.07-4.21,25.94,25.94,0,0,1,2.5,11A5,5,0,0,1,496.28,436.13Z"/><path class="cls-1" d="M69.61,436.13a5,5,0,0,1-5-5,27.54,27.54,0,0,1,5.21-15.69,5,5,0,1,1,8.25,5.64,17.9,17.9,0,0,0-3.46,10.05A5,5,0,0,1,69.61,436.13Z"/><path class="cls-1" d="M97,160a5,5,0,0,1-5-5V107a5,5,0,0,1,10,0v48A5,5,0,0,1,97,160Z"/><path class="cls-1" d="M129,160a5,5,0,0,1-5-5V139c0-.1,0-.21,0-.31s.19-4.84-2.72-7.88C119.51,129,116.72,128,113,128s-6.26.93-8.06,2.83c-3.13,3.32-3,8.82-3,8.88a5,5,0,1,1-10,.58c-.06-1-.4-9.9,5.66-16.32,3.73-4,8.89-6,15.33-6,6.62,0,11.88,2,15.62,6,5.48,5.83,5.45,13.58,5.38,15.11V155A5,5,0,0,1,129,160Z"/><path class="cls-1" d="M428.65,128c-7.18,0-14.11-3-18.19-8.1a17.81,17.81,0,0,1-3.31-6.71,5,5,0,0,1,9.7-2.42,7.68,7.68,0,0,0,1.43,2.89c2.6,3.26,8.29,5,13.25,4.07,2.61-.49,6-1.87,7.12-5.63.59-1.88.16-2.62,0-2.87-1.4-2.45-7.67-4-10.68-4.67C422.05,103.17,406.27,99.4,409,84c1.11-6.18,5.91-11.46,12.52-13.77a22.65,22.65,0,0,1,19.5,1.95A18.39,18.39,0,0,1,450,85.38,5,5,0,0,1,440,86.62a8.62,8.62,0,0,0-4.26-5.91,12.64,12.64,0,0,0-10.92-1c-2.52.87-5.41,2.94-6,6.1-.64,3.54-.19,6.27,11.43,9,5.38,1.28,13.5,3.22,17.05,9.44a13.2,13.2,0,0,1,.85,10.78c-2,6.54-7.43,11.1-14.82,12.49A25.28,25.28,0,0,1,428.65,128Z"/><path class="cls-1" d="M112,190a55,55,0,1,1,55-55A55.06,55.06,0,0,1,112,190Zm0-100a45,45,0,1,0,45,45A45.05,45.05,0,0,0,112,90Z"/><path class="cls-1" d="M429,153a55,55,0,1,1,55-55A55.06,55.06,0,0,1,429,153Zm0-100a45,45,0,1,0,45,45A45.05,45.05,0,0,0,429,53Z"/><path class="cls-1" d="M417,311a5,5,0,0,1-5-4.66,53.47,53.47,0,0,1,0-5.58V265a5,5,0,0,1,10,0v7.74a23.81,23.81,0,0,1,2-1.78c6.91-5.63,16.12-6.91,27.38-3.78a5,5,0,0,1-2.68,9.64c-7.94-2.21-14.12-1.58-18.37,1.88-6.06,4.92-7.92,15.16-8.29,22V306a5,5,0,0,1-4.83,5Z"/><path class="cls-1" d="M427,339a55,55,0,1,1,55-55A55.06,55.06,0,0,1,427,339Zm0-100a45,45,0,1,0,45,45A45.05,45.05,0,0,0,427,239Z"/><path class="cls-1" d="M355.58,160a5,5,0,0,1-2.78-9.16l35.87-24a5,5,0,0,1,5.56,8.32l-35.87,24A5,5,0,0,1,355.58,160Z"/><path class="cls-1" d="M427,418a5,5,0,0,1-5-5V334a5,5,0,0,1,10,0v79A5,5,0,0,1,427,418Z"/><path class="cls-1" d="M330,436H284a5,5,0,0,1-5-5l.09-42.33a5,5,0,0,1,5-5H330a5,5,0,0,1,5,5V431A5,5,0,0,1,330,436Zm-41-10h36V393.67H289.08Z"/><path class="cls-1" d="M369,436H330a5,5,0,0,1,0-10h39a5,5,0,0,1,0,10Z"/><path class="cls-1" d="M284,404a5,5,0,0,1-5-5V360a5,5,0,0,1,10,0v39A5,5,0,0,1,284,404Z"/><path class="cls-1" d="M264,140H162a5,5,0,0,1,0-10H264a5,5,0,0,1,0,10Z"/><path class="cls-1" d="M48,500H16a5,5,0,0,1-5-5V222a5,5,0,0,1,5-5H48a5,5,0,0,1,0,10H21V490H48a5,5,0,0,1,0,10Z"/><path class="cls-1" d="M81.92,299.76a5,5,0,0,1-3.48-1.41L39.1,260.27a5,5,0,0,1,7-7.19l39.33,38.09a5,5,0,0,1-3.47,8.59Z"/><path class="cls-1" d="M43.21,300.39a5,5,0,0,1-3.6-8.48L77.7,252.57a5,5,0,1,1,7.18,7L46.8,298.86A5,5,0,0,1,43.21,300.39Z"/></g><g id="Outline"><path class="cls-1" d="M494.25,427.27a5,5,0,0,1-4.54-2.89c-6.29-13.55-30.84-26.83-67.37-36.43-38.5-10.11-88-15.68-139.4-15.68-49.05,0-96.81,5.12-134.5,14.43-49.07,12.13-65.15,26.75-70.37,34.38a5,5,0,1,1-8.25-5.64c21.4-31.31,109-53.17,213.12-53.17,52.23,0,102.64,5.68,141.94,16,28.3,7.44,64.09,20.74,73.9,41.89a5,5,0,0,1-4.53,7.1Z"/><path class="cls-1" d="M494.06,436.13h-5a5,5,0,0,1,0-10h5a5,5,0,1,1,0,10Zm-25,0h-5a5,5,0,0,1,0-10h5a5,5,0,1,1,0,10Zm-25,0h-5a5,5,0,0,1,0-10h5a5,5,0,1,1,0,10Zm-25,0h-5a5,5,0,0,1,0-10h5a5,5,0,1,1,0,10Zm-25,0h-5a5,5,0,0,1,0-10h5a5,5,0,1,1,0,10Zm-25,0h-5a5,5,0,0,1,0-10h5a5,5,0,1,1,0,10Zm-25,0h-5a5,5,0,0,1,0-10h5a5,5,0,1,1,0,10Zm-25,0h-5a5,5,0,0,1,0-10h5a5,5,0,1,1,0,10Zm-25,0h-5a5,5,0,0,1,0-10h5a5,5,0,1,1,0,10Zm-10-15a5,5,0,0,1-5-5v-5a5,5,0,0,1,10,0v5A5,5,0,0,1,284.06,421.13Zm0-25a5,5,0,0,1-5-5v-5a5,5,0,0,1,10,0v5A5,5,0,0,1,284.06,396.13Zm0-25a5,5,0,0,1-5-5v-5a5,5,0,0,1,10,0v5A5,5,0,0,1,284.06,371.13Zm0-25a5,5,0,0,1-5-5v-5a5,5,0,0,1,10,0v5A5,5,0,0,1,284.06,346.13Zm0-25a5,5,0,0,1-5-5v-5a5,5,0,0,1,10,0v5A5,5,0,0,1,284.06,321.13Zm0-25a5,5,0,0,1-5-5v-5a5,5,0,0,1,10,0v5A5,5,0,0,1,284.06,296.13Zm0-25a5,5,0,0,1-5-5v-5a5,5,0,0,1,10,0v5A5,5,0,0,1,284.06,271.13Zm0-25a5,5,0,0,1-5-5v-5a5,5,0,0,1,10,0v5A5,5,0,0,1,284.06,246.13Zm0-25a5,5,0,0,1-5-5v-5a5,5,0,0,1,10,0v5A5,5,0,0,1,284.06,221.13Zm0-25a5,5,0,0,1-5-5v-5a5,5,0,0,1,10,0v5A5,5,0,0,1,284.06,196.13Zm0-25a5,5,0,0,1-5-5v-5a5,5,0,0,1,10,0v5A5,5,0,0,1,284.06,171.13Zm0-25a5,5,0,0,1-5-5v-5a5,5,0,0,1,10,0v5A5,5,0,0,1,284.06,146.13Zm0-25a5,5,0,0,1-5-5v-5a5,5,0,0,1,10,0v5A5,5,0,0,1,284.06,121.13Zm0-25a5,5,0,0,1-5-5v-5a5,5,0,0,1,10,0v5A5,5,0,0,1,284.06,96.13Zm0-25a5,5,0,0,1-5-5v-5a5,5,0,1,1,10,0v5A5,5,0,0,1,284.06,71.13Zm0-25a5,5,0,0,1-5-5v-5a5,5,0,1,1,10,0v5A5,5,0,0,1,284.06,46.13Z"/><path class="cls-1" d="M283.62,258c-28.46,0-55.29-3.3-75.53-9.29-22.43-6.63-34.28-15.87-34.28-26.71s11.85-20.08,34.28-26.71c20.24-6,47.07-9.29,75.53-9.29s55.29,3.3,75.53,9.29c22.42,6.63,34.28,15.87,34.28,26.71s-11.86,20.08-34.28,26.71C338.91,254.7,312.08,258,283.62,258Zm0-62c-27.53,0-53.35,3.15-72.69,8.87-20,5.92-27.12,12.93-27.12,17.13s7.1,11.21,27.12,17.13c19.34,5.72,45.16,8.87,72.69,8.87s53.34-3.15,72.69-8.87c20-5.92,27.12-12.93,27.12-17.13s-7.1-11.21-27.12-17.13C337,199.15,311.15,196,283.62,196Z"/></g></svg>