<?xml version="1.0" ?><svg viewBox="0 0 512 512" xmlns="http://www.w3.org/2000/svg"><defs><style>.cls-1{fill:#3f456b;}</style></defs><title/><g id="Lines"><path class="cls-1" d="M496,139H401.26c-8.46,0-15.26-2.62-20.23-7.79-8.11-8.43-8.07-20.65-8-22.09V17h10v92.39c0,.07-.22,9.27,5.28,14.93,3,3.11,7.38,4.68,13,4.68H496Z"/><path class="cls-1" d="M469.68,469H347a5,5,0,0,1,0-10H469.68c11.75,0,21.32-10.6,21.32-23.62V136.62c0-11.37-10.55-24.31-14.62-28.33-.67-.68-62.23-63.27-75-76.09A38.81,38.81,0,0,0,375.68,21H156.05A23.34,23.34,0,0,0,133,44V81a5,5,0,0,1-10,0V44c0-17.89,15.13-33,33.05-33H375.59a48.8,48.8,0,0,1,32.82,14.13c12.84,12.85,74.43,75.47,75,76.1S501,118.8,501,136.62V435.38C501,453.92,487,469,469.68,469Z"/><path class="cls-1" d="M128,260a5,5,0,0,1-5-5V220a5,5,0,0,1,10,0v35A5,5,0,0,1,128,260Z"/><path class="cls-1" d="M81.25,501H26.44A14.46,14.46,0,0,1,12,486.56V401.44A14.46,14.46,0,0,1,26.44,387H66a5,5,0,0,1,0,10H26.44A4.44,4.44,0,0,0,22,401.44v85.12A4.44,4.44,0,0,0,26.44,491H81.25a5,5,0,0,1,0,10Z"/><path class="cls-1" d="M64.75,432H19a5,5,0,0,1,0-10H64.75a5,5,0,0,1,0,10Z"/><path class="cls-1" d="M64,467H19a5,5,0,0,1,0-10H64a5,5,0,0,1,0,10Z"/><path class="cls-1" d="M336.56,501h-68A14.52,14.52,0,0,1,254,486.56V402.21c0-8.1,6.8-15.21,14.55-15.21h68c7.83,0,14.44,7,14.44,15.21v84.35A14.46,14.46,0,0,1,336.56,501Zm-68-104c-2.3,0-4.55,2.58-4.55,5.21v84.35a4.55,4.55,0,0,0,4.55,4.44h68a4.44,4.44,0,0,0,4.44-4.44V402.21c0-2.63-2.2-5.21-4.44-5.21Z"/><path class="cls-1" d="M342,432H262a5,5,0,0,1,0-10h80a5,5,0,0,1,0,10Z"/><path class="cls-1" d="M342,467H262a5,5,0,0,1,0-10h80a5,5,0,0,1,0,10Z"/><path class="cls-1" d="M143.56,501H75.44A14.46,14.46,0,0,1,61,486.56V264.44A14.46,14.46,0,0,1,75.44,250h68.12A14.46,14.46,0,0,1,158,264.44V486.56A14.46,14.46,0,0,1,143.56,501ZM75.44,260A4.44,4.44,0,0,0,71,264.44V486.56A4.44,4.44,0,0,0,75.44,491h68.12a4.44,4.44,0,0,0,4.44-4.44V264.44a4.44,4.44,0,0,0-4.44-4.44Z"/><path class="cls-1" d="M150,295H68a5,5,0,0,1,0-10h82a5,5,0,0,1,0,10Z"/><path class="cls-1" d="M150,330H68a5,5,0,0,1,0-10h82a5,5,0,0,1,0,10Z"/><path class="cls-1" d="M150,363H68a5,5,0,0,1,0-10h82a5,5,0,0,1,0,10Z"/><path class="cls-1" d="M150,397H68a5,5,0,0,1,0-10h82a5,5,0,0,1,0,10Z"/><path class="cls-1" d="M150,432H68a5,5,0,0,1,0-10h82a5,5,0,0,1,0,10Z"/><path class="cls-1" d="M150,467H68a5,5,0,0,1,0-10h82a5,5,0,0,1,0,10Z"/><path class="cls-1" d="M214.56,501H146.44a5,5,0,0,1,0-10h68.12a4.44,4.44,0,0,0,4.44-4.44V334.44a4.44,4.44,0,0,0-4.44-4.44H146.44a5,5,0,0,1,0-10h68.12A14.46,14.46,0,0,1,229,334.44V486.56A14.46,14.46,0,0,1,214.56,501Z"/><path class="cls-1" d="M220,363H138a5,5,0,0,1,0-10h82a5,5,0,0,1,0,10Z"/><path class="cls-1" d="M220,397H138a5,5,0,0,1,0-10h82a5,5,0,0,1,0,10Z"/><path class="cls-1" d="M220,432H138a5,5,0,0,1,0-10h82a5,5,0,0,1,0,10Z"/><path class="cls-1" d="M220,467H138a5,5,0,0,1,0-10h82a5,5,0,0,1,0,10Z"/><path class="cls-1" d="M128.07,185.49c-15.51,0-25.72-7.84-26.09-20.09a5,5,0,1,1,10-.3c.09,3.19,1.91,10.57,16.57,10.39,4.77-.06,9.42-1.92,11.85-4.72a7.83,7.83,0,0,0,1.85-6.49c-.44-3.31-2.46-5.79-10.95-7.17l-2.56-.4c-7.67-1.16-16.37-2.47-22.35-10.93a15,15,0,0,1-2.58-11.61,21.18,21.18,0,0,1,9-13.22c6.65-4.51,16.83-5.2,25.33-1.72a24.48,24.48,0,0,1,13.58,13.55,5,5,0,0,1-9.31,3.65,14.64,14.64,0,0,0-8.07-8c-5.35-2.19-12-1.88-15.91.75a11.32,11.32,0,0,0-4.83,6.73,5.13,5.13,0,0,0,.9,4c3.35,4.74,8.14,5.68,15.68,6.81.89.14,1.79.27,2.68.42,4.34.7,17.56,2.86,19.25,15.74a17.76,17.76,0,0,1-4.2,14.33c-4.34,5-11.55,8.08-19.28,8.18Z"/><path class="cls-1" d="M128.06,224.74a74.53,74.53,0,1,1,74.53-74.52h0A74.61,74.61,0,0,1,128.06,224.74Zm0-139a64.53,64.53,0,1,0,64.53,64.53A64.6,64.6,0,0,0,128.06,85.69Z"/><path class="cls-1" d="M127,125.21a5,5,0,0,1-5-5V106a5,5,0,0,1,10,0v14.21A5,5,0,0,1,127,125.21Z"/><path class="cls-1" d="M127,201a5,5,0,0,1-5-5V181.79a5,5,0,1,1,10,0V196A5,5,0,0,1,127,201Z"/><path class="cls-1" d="M259,469H224a5,5,0,0,1,0-10h35a5,5,0,0,1,0,10Z"/></g><g id="Outline"><path class="cls-1" d="M330.33,107H224a5,5,0,0,1,0-10H330.33a5,5,0,0,1,0,10Z"/><path class="cls-1" d="M330.33,155H224a5,5,0,0,1,0-10H330.33a5,5,0,0,1,0,10Z"/><path class="cls-1" d="M437,200H225a5,5,0,0,1,0-10H437a5,5,0,0,1,0,10Z"/><path class="cls-1" d="M437,248H225a5,5,0,0,1,0-10H437a5,5,0,0,1,0,10Z"/><path class="cls-1" d="M437,293H273a5,5,0,0,1,0-10H437a5,5,0,0,1,0,10Z"/><path class="cls-1" d="M437,341H273a5,5,0,0,1,0-10H437a5,5,0,0,1,0,10Z"/><path class="cls-1" d="M437,387H384a5,5,0,0,1,0-10h53a5,5,0,0,1,0,10Z"/></g></svg>