<?xml version="1.0" ?><svg id="Lines" viewBox="0 0 512 512" xmlns="http://www.w3.org/2000/svg"><defs><style>.cls-1{fill:#3f456b;}</style></defs><title/><path class="cls-1" d="M25.05,395.35a5,5,0,0,1-3.84-1.8l-.94-1.13c-1.22-1.35-11.4-13.07-11.4-27.66,0-14.15,10.23-19,15.64-19.59a5,5,0,0,1,1.09,0c5.4.59,15.63,5.44,15.63,19.59,0,14.59-10.17,26.31-11.39,27.66l-.95,1.13A5,5,0,0,1,25.05,395.35ZM25,355.22c-5.67,1.26-6.13,7.57-6.13,9.54,0,7.13,3.59,13.69,6.19,17.51,2.6-3.81,6.17-10.35,6.17-17.51,0-3.9-1.14-6.6-3.48-8.26A9.1,9.1,0,0,0,25,355.22Z"/><path class="cls-1" d="M335.68,500c-6.33,0-11.4-2-15.08-5.87-5.69-6-5.64-14.32-5.57-15.89V388.92c-10.88-4.26-19.07-11.64-23.81-21.5a5,5,0,0,1,9-4.34c4,8.34,11.38,14.41,21.3,17.54a5,5,0,0,1,3.5,4.77v93c0,.1,0,.2,0,.3s-.21,5.4,2.89,8.64c1.74,1.82,4.28,2.7,7.77,2.7,3.84,0,6.65-1,8.35-2.85,2.83-3.13,2.35-8.19,2.34-8.24s0-.38,0-.55v-93a5,5,0,0,1,3-4.6c1-.43,24.42-11.65,24.87-62a5,5,0,0,1,10,.09c-.43,47.13-20.16,64.44-27.9,69.42v89.82c.17,1.89.48,9.7-4.8,15.64C347.86,497.9,342.52,500,335.68,500Z"/><path class="cls-1" d="M359.17,500c-8,0-12.67-3.26-15.2-6a5,5,0,1,1,7.34-6.79c1.74,1.88,4.31,2.79,7.86,2.79,3.83,0,6.64-1,8.35-2.85,2.83-3.13,2.35-8.19,2.34-8.24a5.07,5.07,0,0,1,0-.55v-93a5,5,0,0,1,3-4.6c.76-.34,19.64-9.32,24-47.34a5,5,0,1,1,9.93,1.14c-4.05,35.37-20.15,49.32-27,53.71v89.82c.17,1.89.48,9.7-4.8,15.64C371.35,497.9,366,500,359.17,500Z"/><path class="cls-1" d="M54.81,500c-7,0-11.16-2.9-13.45-5.33C36,488.91,36,480.79,36.11,479.21v-62.5a90.42,90.42,0,0,1,6.21-32.16c8.25-23.14,2.69-71.49,2.63-72-.22-2-4.78-48.25,25.45-81.9,19.85-22.09,49.84-33.29,89.13-33.29h.16c.3,0,30.93,1,63.07,4.93,52.55,6.37,92.85,6.3,123.19-.2a5,5,0,1,1,2.1,9.78c-31.45,6.74-72.82,6.85-126.49.35-30.92-3.75-60.39-4.8-62.12-4.86-36.24,0-63.68,10.08-81.54,29.91-27.26,30.27-23.06,73.74-23,74.17.23,2,5.9,51.32-3.21,76.6,0,.09-.07.19-.11.28a81.55,81.55,0,0,0-5.46,28.37v62.63c0,.11,0,.21,0,.31-.07,1.43.25,5.75,2.58,8.2,1.37,1.45,3.38,2.15,6.13,2.15,8.72,0,12.61-3.29,12.61-10.66v-53.6C67.19,423,66,403.35,80.29,397.41a6.75,6.75,0,0,1,.76-.25c.14,0,14.73-3.69,29-16.45,19.09-17,28.78-41.46,28.78-72.64a5,5,0,0,1,10,0c0,42.82-17.69,67.39-32.53,80.46S86.71,406,83.84,406.77c-7.75,3.59-6.46,18.07-6.44,18.22a4.61,4.61,0,0,1,0,.52v53.83C77.42,492.28,69,500,54.81,500Z"/><path class="cls-1" d="M77.32,500c-6.93,0-11.1-2.86-13.39-5.27a5,5,0,0,1,7.25-6.89c1.38,1.45,3.39,2.16,6.14,2.16,8.72,0,12.61-3.29,12.61-10.66V439.45c-.23-2.76-1.38-22.4,12.87-28.34.15-.06.31-.12.48-.17a61.74,61.74,0,0,0,9.36-4.1,5,5,0,0,1,4.66,8.85,74.16,74.16,0,0,1-10.83,4.73c-7.89,3.51-6.58,18.12-6.56,18.27s0,.35,0,.53v40.12C99.93,492.28,91.48,500,77.32,500Z"/><path class="cls-1" d="M247.8,399.31a319.38,319.38,0,0,1-61-6.18c-36.52-7.17-61.63-17.86-62.69-18.32a5,5,0,0,1,3.95-9.18c1,.42,100.38,42.31,186.74,13.64a5,5,0,1,1,3.15,9.49C294.56,396.54,270.36,399.31,247.8,399.31Z"/><path class="cls-1" d="M400.88,292.68c-14.52,0-27.1-.58-28.66-.65-10.44,0-17.13-1.54-21.67-4.95-6.51-4.88-7.26-12.66-7.26-18.09,0-10.4,3.92-17.15,6.7-20.63-7.19-19-7.88-40.23-7.45-52.88-5.13,2.32-12.57,4-23.15,3.33-9.52-.5-16.72-3.91-21.32-10.14-8.24-11.14-4.41-27-4.24-27.63a5,5,0,0,1,4.85-3.79h50.65c3.47-7.59,14.7-23.48,47.88-23.48,34.08,0,46.09,16,49.83,23.48h50.8a5,5,0,0,1,4.85,3.79c.16.67,4,16.49-4.24,27.63-4.6,6.23-11.8,9.64-21.4,10.15-10.53.7-17.95-1-23.07-3.34.42,12.66-.26,33.86-7.45,52.88,2.77,3.48,6.7,10.23,6.7,20.63,0,19.53-13,22-28.72,23C417,292.52,408.66,292.68,400.88,292.68Zm-52.61-113a5,5,0,0,1,5,5.75c0,.35-4.18,35.13,7.16,62.08a5,5,0,0,1-1.48,5.85c-.18.15-5.64,4.91-5.64,15.64,0,9.07,1.8,13,19,13h.25c.29,0,29.83,1.44,51.25,0,17.88-1.19,19.39-4.16,19.39-13.05,0-10.73-5.46-15.49-5.7-15.68a5,5,0,0,1-1.43-5.81c11.38-27,7.21-61.73,7.17-62.08a5.07,5.07,0,0,1,3.44-5.52,4.85,4.85,0,0,1,5.83,2.37c.54.78,5.95,7.76,23.92,6.56,6.52-.34,11.18-2.38,13.92-6.07,3.52-4.73,3.59-11.37,3.19-15.51H443.72a5,5,0,0,1-4.83-3.69c-.22-.75-6.29-19.79-41.68-19.79-34.25,0-39.35,18.83-39.55,19.63a4.92,4.92,0,0,1-4.86,3.85H303c-.4,4.13-.34,10.78,3.18,15.51,2.75,3.69,7.41,5.73,13.86,6.07,18.05,1.2,23.44-5.78,24-6.56A4.76,4.76,0,0,1,348.27,179.67Z"/><path class="cls-1" d="M371.89,365.92a5,5,0,0,1-1.32-9.82c34.85-9.58,33.54-63,33.52-63.52,0-.05,0-.11,0-.16V288.5a5,5,0,0,1,10,0v3.84A116.36,116.36,0,0,1,410,324c-6.26,22.43-19,36.87-36.77,41.76A4.68,4.68,0,0,1,371.89,365.92Z"/><path class="cls-1" d="M364.16,212.61a5,5,0,0,1-5-5v-2.82a5,5,0,0,1,10,0v2.82A5,5,0,0,1,364.16,212.61Z"/><path class="cls-1" d="M381.47,274.86h-3.06a5,5,0,1,1,0-10h3.06a5,5,0,0,1,0,10Z"/><path class="cls-1" d="M418.74,274.86h-3.06a5,5,0,1,1,0-10h3.06a5,5,0,0,1,0,10Z"/><path class="cls-1" d="M431.69,212.61a5,5,0,0,1-5-5v-2.82a5,5,0,0,1,10,0v2.82A5,5,0,0,1,431.69,212.61Z"/><path class="cls-1" d="M360.9,155h-.12c-7.84-.19-14-2.76-18.31-7.64-7.11-8.06-6.06-19.36-6-19.84a5,5,0,0,1,10,1c0,.14-.61,7.57,3.59,12.29,2.39,2.68,6.1,4.1,11,4.22a5,5,0,0,1-.12,10Z"/><path class="cls-1" d="M436.3,155a5,5,0,0,1-.12-10c4.92-.12,8.62-1.54,11-4.22,4.23-4.74,3.61-12.22,3.6-12.29a5,5,0,0,1,9.95-1c.05.48,1.1,11.78-6,19.84-4.31,4.88-10.47,7.45-18.31,7.64Z"/><path class="cls-1" d="M26,355a5,5,0,0,1-5-5V297c0-26.88,12.4-41.68,22.81-49.36a57.79,57.79,0,0,1,23-10.25,5,5,0,0,1,1.61,9.87h0C66.84,247.51,31,254,31,297v53A5,5,0,0,1,26,355Z"/><path class="cls-1" d="M441,254a4.68,4.68,0,0,1-1.17-.14,42.86,42.86,0,0,1-16.63-9.23C415.81,238.13,407,226,407,205c0-39.56,28.27-54.92,29.47-55.55a5,5,0,0,1,4.68,8.84c-1,.56-24.15,13.42-24.15,46.71,0,32.4,24.17,38.89,25.2,39.15A5,5,0,0,1,441,254Z"/><path class="cls-1" d="M356,254a5,5,0,0,1-1.19-9.86c1-.25,24.76-6.73,24.76-39.14,0-33.59-23.89-46.58-24.14-46.71a5,5,0,1,1,4.67-8.84c1.2.63,29.47,16,29.47,55.55,0,21-8.68,33.11-16,39.61a42.4,42.4,0,0,1-16.42,9.25A5.44,5.44,0,0,1,356,254Z"/><path class="cls-1" d="M278.78,325.91a21.64,21.64,0,0,1-11-2.86c-3.84-2.27-7-5.88-9.64-11-6-11.63-9.19-31.12-3.81-45.89,3-8.32,8.54-14.36,15.92-17.46,10.07-4.23,18.13-.77,25.23,2.28,1.65.71,3.35,1.44,5.06,2.08a3.53,3.53,0,0,0,1.56.36c4.4-.83,4.18-13.27,4.11-17.35v-.75c-.14-9.12-.32-20.47,8.85-28.08a5,5,0,0,1,6.39,7.7c-5.49,4.55-5.37,12.16-5.24,20.22v.73c.13,7.47.44,25-12.27,27.36a12.74,12.74,0,0,1-6.89-.82c-1.94-.72-3.76-1.5-5.52-2.26-6.53-2.81-11.25-4.84-17.4-2.25-4.82,2-8.32,5.95-10.4,11.66-4.36,11.95-1.55,28.44,3.31,37.9,1.76,3.43,3.67,5.72,5.84,7a13.15,13.15,0,0,0,9.65,1c5.53-1.33,9.76-5.4,14.25-9.7,5.13-4.92,10.44-10,18.24-11.82a24.15,24.15,0,0,1,23.85,7.87c3.78,4.53,12.78,7.75,21.32,5.28,5.78-1.67,13-6.51,14.83-20.06a5,5,0,0,1,9.91,1.31c-1.92,14.54-9.93,24.87-22,28.35-11.54,3.34-24.9-.22-31.78-8.48a14.08,14.08,0,0,0-13.92-4.53c-5.12,1.19-9.22,5.13-13.57,9.3-5,4.8-10.67,10.24-18.82,12.2A25.39,25.39,0,0,1,278.78,325.91Z"/><path class="cls-1" d="M207.85,357.47c-5.88,0-11.74-2.24-17-6.62-21.89-18.07-43.23-7.14-49-1.89a5,5,0,1,1-6.74-7.38c11.05-10.1,37.68-18.59,62.08,1.57,5.06,4.17,10.24,5.34,15.4,3.47,7.94-2.88,15.15-12.7,17.15-23.35.88-4.7-.42-10.41-2.95-13a5.29,5.29,0,0,0-5-1.5,26.4,26.4,0,0,0-6.59,2.43l-1.64.76c-3.56,1.61-7.84,3.17-12.53,2.56-5.08-.65-11.64-3.44-14-13-1.36-5.57-1-12.11-.62-17.87.24-3.95.48-8,0-10.31a24.17,24.17,0,0,0-14.94-18.13c-11.25-4.61-27-2.65-38.18,4.77a38.65,38.65,0,0,0-16.37,39.15c4.92,27.87,22.44,25.81,24.42,25.48a5,5,0,0,1,1.77,9.84,28.85,28.85,0,0,1-20.23-4.9c-8.12-5.64-13.44-15.29-15.8-28.68a48.64,48.64,0,0,1,20.69-49.23c14-9.28,33.14-11.56,47.49-5.68a34.2,34.2,0,0,1,20.93,25.3c.77,3.61.49,8.16.2,13-1,16.62,1,19.71,5.9,20.34,2.22.28,4.85-.73,7.13-1.76l1.54-.71a34.34,34.34,0,0,1,9.24-3.25A15.33,15.33,0,0,1,234,303.28c5.61,5.78,6.86,15.12,5.61,21.83C236.91,339.24,227.22,352,216,356A23.91,23.91,0,0,1,207.85,357.47Z"/><path class="cls-1" d="M214.19,238.4a41.29,41.29,0,0,1-5.92-.45c-9.68-1.44-16.88-5.46-21.39-12-7.06-10.19-4.52-22.57-4.41-23.09a5,5,0,0,1,9.78,2.07c0,.23-1.68,8.85,2.89,15.38,2.88,4.1,7.79,6.7,14.59,7.7,9.11,1.36,16.3-1.37,21.35-8.08a32.12,32.12,0,0,0,5.34-11.56,5,5,0,0,1,9.82,1.91C244.26,220.58,235.08,238.4,214.19,238.4Z"/><path class="cls-1" d="M51,371a5,5,0,0,1,0-10c10.1,0,17.52-5.72,20.37-15.67,3.21-11.18,0-18.56-5.57-29.38C57.12,299.18,69.87,282.17,76,274c5.79-7.72,8.07-15,6.77-21.51-1.85-9.36-10.55-14.74-10.64-14.79a5,5,0,1,1,5.1-8.6c.52.3,12.6,7.61,15.35,21.44,1.88,9.45-1,19.37-8.58,29.46-9.07,12.1-14.13,22.05-9.33,31.32C81,323.57,85.2,333.38,81,348.06,76.88,362.39,65.67,371,51,371Z"/><path class="cls-1" d="M146,426c-38.38,0-47.56-32.09-47.65-32.42a5,5,0,0,1,9.65-2.65c.29,1,7.43,25.07,38,25.07,30.87,0,40.8-27.45,41.21-28.62a5,5,0,0,1,9.46,3.25,57.49,57.49,0,0,1-10.84,17.7A51.84,51.84,0,0,1,146,426Z"/><path class="cls-1" d="M149.2,438a5,5,0,0,1-5-4.94l-.15-12a5,5,0,0,1,10-.12l.15,12a5,5,0,0,1-4.94,5.06Z"/><path class="cls-1" d="M176.66,430.42a5,5,0,0,1-4.51-2.85L167,416.74a5,5,0,1,1,9-4.31l5.18,10.83a5,5,0,0,1-4.51,7.16Z"/><path class="cls-1" d="M121.48,433.42a5,5,0,0,1-4.51-7.16l5.18-10.83a5,5,0,1,1,9,4.31L126,430.57A5,5,0,0,1,121.48,433.42Z"/><path class="cls-1" d="M95,478H41a5,5,0,0,1,0-10H95a5,5,0,0,1,0,10Z"/><path class="cls-1" d="M374,478H320a5,5,0,0,1,0-10h54a5,5,0,0,1,0,10Z"/><path class="cls-1" d="M90.55,90.06a5,5,0,0,1-3.07-1c-8.34-6.49-22.22-3.69-22.36-3.66A5,5,0,0,1,63,75.57c.75-.16,18.53-3.83,30.58,5.55a5,5,0,0,1-3.07,8.94Z"/><path class="cls-1" d="M183.75,108.48a5,5,0,0,1-4-8C196,78.17,223.35,79.91,235.55,84a5,5,0,0,1-3.14,9.49c-1.22-.39-28.65-9-44.61,13A5,5,0,0,1,183.75,108.48Z"/><path class="cls-1" d="M225.08,166.58l-152.36,0h-.16a46.1,46.1,0,0,1-11-90.49c-.11-1.13-.16-2.26-.16-3.39a35.91,35.91,0,0,1,58.19-28.14A62.8,62.8,0,0,1,237.15,84.41a42,42,0,0,1-12.07,82.17Zm-152.28-10,152.22,0a31.76,31.76,0,0,0,31.73-31.9A32.13,32.13,0,0,0,230.36,93a5,5,0,0,1-4-6.17,52.8,52.8,0,0,0-100.48-32,5,5,0,0,1-8.54,1.39A25.9,25.9,0,0,0,72.17,78.75a5,5,0,0,1-4,6.11,36.1,36.1,0,0,0,4.67,71.7Z"/></svg>