<?xml version="1.0" ?><svg viewBox="0 0 512 512" xmlns="http://www.w3.org/2000/svg"><defs><style>.cls-1{fill:#3f456b;}</style></defs><title/><g id="Lines"><path class="cls-1" d="M112.46,456.77a68.91,68.91,0,1,1,68.92-68.91A69,69,0,0,1,112.46,456.77Zm0-127.82a58.91,58.91,0,1,0,58.92,58.91A59,59,0,0,0,112.46,329Z"/><path class="cls-1" d="M112.46,412.92a25.06,25.06,0,1,1,25.06-25.06A25.09,25.09,0,0,1,112.46,412.92Zm0-40.12a15.06,15.06,0,1,0,15.06,15.06A15.08,15.08,0,0,0,112.46,372.8Z"/><path class="cls-1" d="M256.2,456.77a68.91,68.91,0,1,1,68.92-68.91A69,69,0,0,1,256.2,456.77Zm0-127.82a58.91,58.91,0,1,0,58.92,58.91A59,59,0,0,0,256.2,329Z"/><path class="cls-1" d="M256.2,412.92a25.06,25.06,0,1,1,25.06-25.06A25.08,25.08,0,0,1,256.2,412.92Zm0-40.12a15.06,15.06,0,1,0,15.06,15.06A15.07,15.07,0,0,0,256.2,372.8Z"/><path class="cls-1" d="M368.5,456.77a36.5,36.5,0,1,1,36.5-36.5A36.54,36.54,0,0,1,368.5,456.77Zm0-63a26.5,26.5,0,1,0,26.5,26.5A26.53,26.53,0,0,0,368.5,393.77Z"/><path class="cls-1" d="M368.5,435.16a14.89,14.89,0,1,1,14.89-14.89A14.91,14.91,0,0,1,368.5,435.16Zm0-19.77a4.89,4.89,0,1,0,4.89,4.88A4.9,4.9,0,0,0,368.5,415.39Z"/><path class="cls-1" d="M456.66,456.77a36.5,36.5,0,1,1,36.51-36.5A36.53,36.53,0,0,1,456.66,456.77Zm0-63a26.5,26.5,0,1,0,26.51,26.5A26.52,26.52,0,0,0,456.66,393.77Z"/><path class="cls-1" d="M456.66,435.16a14.89,14.89,0,1,1,14.89-14.89A14.91,14.91,0,0,1,456.66,435.16Zm0-19.77a4.89,4.89,0,1,0,4.89,4.88A4.89,4.89,0,0,0,456.66,415.39Z"/><path class="cls-1" d="M208.5,97.23H16.5a5,5,0,0,1-5-5v-22a15,15,0,0,1,15-15h172a15,15,0,0,1,15,15v22A5,5,0,0,1,208.5,97.23Zm-187-10h182v-17a5,5,0,0,0-5-5H26.5a5,5,0,0,0-5,5Z"/><path class="cls-1" d="M52.46,369.64H31.67a5,5,0,0,1-5-5V93.06a5,5,0,0,1,10,0V359.64H52.46a5,5,0,0,1,0,10Z"/><path class="cls-1" d="M192.5,328.28a5,5,0,0,1-5-5V93.06a5,5,0,0,1,10,0V323.28A5,5,0,0,1,192.5,328.28Z"/><path class="cls-1" d="M471.67,328.28H16.5a5,5,0,0,1,0-10H471.67a5,5,0,1,1,0,10Z"/><path class="cls-1" d="M471.67,328.28a5,5,0,0,1-3.11-8.92c.22-.17,22.94-19,22.94-63.4s-22.72-63.22-22.95-63.41a5,5,0,0,1,6.22-7.83c1.09.86,26.73,21.71,26.73,71.24s-25.64,70.38-26.73,71.24A5,5,0,0,1,471.67,328.28Z"/><path class="cls-1" d="M425.17,425.27H400a5,5,0,0,1,0-10h25.17a5,5,0,1,1,0,10Z"/><path class="cls-1" d="M446.78,381.48H378.55a5,5,0,0,1-5-5V344.21a5,5,0,0,1,5-5h68.23a5,5,0,0,1,5,5v32.27A5,5,0,0,1,446.78,381.48Zm-63.23-10h58.23V349.21H383.55Z"/><path class="cls-1" d="M412.58,424.31a5,5,0,0,1-5-5V376.48a5,5,0,0,1,10,0v42.83A5,5,0,0,1,412.58,424.31Z"/><path class="cls-1" d="M392,349.21a5,5,0,0,1-5-5V323.28a5,5,0,0,1,10,0v20.93A5,5,0,0,1,392,349.21Z"/><path class="cls-1" d="M432.5,349.21a5,5,0,0,1-5-5V323.28a5,5,0,0,1,10,0v20.93A5,5,0,0,1,432.5,349.21Z"/><path class="cls-1" d="M378.55,369.64H315.83a5,5,0,0,1,0-10h62.72a5,5,0,1,1,0,10Z"/><path class="cls-1" d="M195.75,369.64H172a5,5,0,1,1,0-10h23.73a5,5,0,0,1,0,10Z"/><path class="cls-1" d="M446.5,193.64a5,5,0,0,1-5-5v-75H387v75a5,5,0,0,1-10,0v-80a5,5,0,0,1,5-5h64.5a5,5,0,0,1,5,5v80A5,5,0,0,1,446.5,193.64Z"/><path class="cls-1" d="M449,113.64H379.5a15,15,0,0,1-15-15v-12a15,15,0,0,1,15-15H449a15,15,0,0,1,15,15v12A15,15,0,0,1,449,113.64Zm-69.5-32a5,5,0,0,0-5,5v12a5,5,0,0,0,5,5H449a5,5,0,0,0,5-5v-12a5,5,0,0,0-5-5Z"/><path class="cls-1" d="M304.5,177.64a5,5,0,0,1-5-5v-34a25,25,0,0,0-25-25h-4a25,25,0,0,0-25,25v34a5,5,0,0,1-10,0v-34a35,35,0,0,1,35-35h4a35,35,0,0,1,35,35v34A5,5,0,0,1,304.5,177.64Z"/><path class="cls-1" d="M471.67,193.64H352.5a5,5,0,0,1-2.18-.5l-31-15H194a5,5,0,1,1,0-10H320.5a5,5,0,0,1,2.18.5l31,15h118a5,5,0,0,1,0,10Z"/><path class="cls-1" d="M432.5,328.28a5,5,0,0,1-5-5V188.64a5,5,0,0,1,10,0V323.28A5,5,0,0,1,432.5,328.28Z"/><path class="cls-1" d="M352.5,328.28a5,5,0,0,1-5-5V188.64a5,5,0,0,1,10,0V323.28A5,5,0,0,1,352.5,328.28Z"/><path class="cls-1" d="M272.5,328.28a5,5,0,0,1-5-5V173.14a5,5,0,0,1,10,0V323.28A5,5,0,0,1,272.5,328.28Z"/><path class="cls-1" d="M448.5,305.64H16.5a5,5,0,0,1,0-10h432a5,5,0,0,1,0,10Z"/><path class="cls-1" d="M169.5,185.89H55a5,5,0,0,1-5-5V115.64a5,5,0,0,1,5-5H169.5a5,5,0,0,1,5,5v65.25A5,5,0,0,1,169.5,185.89ZM60,175.89H164.5V120.64H60Z"/><path class="cls-1" d="M112.5,185.89a5,5,0,0,1-5-5V115.64a5,5,0,1,1,10,0v65.25A5,5,0,0,1,112.5,185.89Z"/><path class="cls-1" d="M192.29,209.89H31.67a5,5,0,0,1,0-10H192.29a5,5,0,0,1,0,10Z"/><path class="cls-1" d="M246.41,410.37a4.84,4.84,0,0,1-1.35-.19l-122.9-34.46a5,5,0,1,1,2.7-9.63l122.9,34.46a5,5,0,0,1-1.35,9.82Z"/><path class="cls-1" d="M471.67,369.64H446.78a5,5,0,0,1,0-10h24.89a5,5,0,0,1,0,10Z"/></g><g id="Outline"><path class="cls-1" d="M112.46,372.8a5,5,0,0,1-5-5V324a5,5,0,0,1,10,0V367.8A5,5,0,0,1,112.46,372.8Z"/><path class="cls-1" d="M112.46,456.77a5,5,0,0,1-5-5V408.21a5,5,0,0,1,10,0v43.56A5,5,0,0,1,112.46,456.77Z"/><path class="cls-1" d="M92.1,392.86H48.54a5,5,0,0,1,0-10H92.1a5,5,0,1,1,0,10Z"/><path class="cls-1" d="M126.64,378.68a5,5,0,0,1-3.53-8.54l31-31a5,5,0,1,1,7.07,7.07l-31,31A5,5,0,0,1,126.64,378.68Z"/><path class="cls-1" d="M67.26,438.05a5,5,0,0,1-3.53-8.53l30.8-30.8a5,5,0,1,1,7.07,7.07l-30.8,30.8A5,5,0,0,1,67.26,438.05Z"/><path class="cls-1" d="M157.65,438.05a4.94,4.94,0,0,1-3.53-1.46l-31-31a5,5,0,1,1,7.07-7.07l31,31a5,5,0,0,1-3.54,8.53Z"/><path class="cls-1" d="M98.07,378.47A5,5,0,0,1,94.53,377l-30.8-30.8a5,5,0,1,1,7.07-7.07l30.8,30.8a5,5,0,0,1-3.53,8.54Z"/><path class="cls-1" d="M256.2,372.8a5,5,0,0,1-5-5V324a5,5,0,0,1,10,0V367.8A5,5,0,0,1,256.2,372.8Z"/><path class="cls-1" d="M256.2,456.77a5,5,0,0,1-5-5V408.21a5,5,0,0,1,10,0v43.56A5,5,0,0,1,256.2,456.77Z"/><path class="cls-1" d="M320.12,392.86H276.26a5,5,0,0,1,0-10h43.86a5,5,0,0,1,0,10Z"/><path class="cls-1" d="M270.39,378.68a5,5,0,0,1-3.54-8.54l31-31a5,5,0,0,1,7.07,7.07l-31,31A5,5,0,0,1,270.39,378.68Z"/><path class="cls-1" d="M211,438.05a5,5,0,0,1-3.54-8.53l30.81-30.8a5,5,0,1,1,7.07,7.07l-30.8,30.8A5,5,0,0,1,211,438.05Z"/><path class="cls-1" d="M301.4,438.05a5,5,0,0,1-3.54-1.46l-31-31a5,5,0,1,1,7.07-7.07l31,31a5,5,0,0,1-3.53,8.53Z"/><path class="cls-1" d="M241.81,378.47a5,5,0,0,1-3.53-1.47l-30.81-30.8a5,5,0,1,1,7.08-7.07l30.8,30.8a5,5,0,0,1-3.54,8.54Z"/><path class="cls-1" d="M445.92,143.89h-64a5,5,0,1,1,0-10h64a5,5,0,0,1,0,10Z"/><path class="cls-1" d="M304.5,153.56h-64a5,5,0,0,1,0-10h64a5,5,0,0,1,0,10Z"/><path class="cls-1" d="M464.5,304.14a5,5,0,0,1-4.37-7.43c22.89-41.1.23-83.06,0-83.48a5,5,0,1,1,8.76-4.84c1.05,1.91,25.54,47.29,0,93.19A5,5,0,0,1,464.5,304.14Z"/></g></svg>