<?xml version="1.0" ?><svg viewBox="0 0 512 512" xmlns="http://www.w3.org/2000/svg"><defs><style>.cls-1{fill:#3f456b;}</style></defs><title/><g id="Lines"><path class="cls-1" d="M451.52,99.65a29,29,0,1,1,29-29A29,29,0,0,1,451.52,99.65Zm0-48a19,19,0,1,0,19,19A19,19,0,0,0,451.52,51.65Z"/><path class="cls-1" d="M53.2,472.21a23.06,23.06,0,1,1,4.26-.4A22.77,22.77,0,0,1,53.2,472.21Zm.07-35.92a13,13,0,0,0-10.71,5.63,13,13,0,1,0,10.71-5.63Z"/><path class="cls-1" d="M60.2,159.21a23.06,23.06,0,1,1,4.26-.4A22.77,22.77,0,0,1,60.2,159.21Zm.07-35.92a13,13,0,0,0-10.71,5.63,13,13,0,1,0,10.71-5.63Z"/><path class="cls-1" d="M157.61,327.43a102.09,102.09,0,0,1-10.42-.54C115.11,323.65,91.33,306.57,82,280a68.33,68.33,0,0,1-3.12-12.33c-5.23-32.93,12.67-69.06,32.73-90.26,15.56-16.45,37-28.81,62-35.73a208.77,208.77,0,0,1,58.33-7c.89,0,7.36.34,13.07.7,13.66.85,14.1,1,15.68,2.84a5,5,0,0,1,1.18,4v0c-7.9,55.07-23.13,114.64-23.91,117.68A100.73,100.73,0,0,1,221,296C210,310.79,190.33,327.43,157.61,327.43Zm71-182.77a196.06,196.06,0,0,0-52.32,6.7c-23.27,6.44-43.13,17.84-57.44,33C101.05,203.11,84,236.73,88.7,266.15a59.64,59.64,0,0,0,2.68,10.56c4.72,13.36,18.39,36.34,56.82,40.23,27.47,2.79,49.21-6.17,64.62-26.62a91.77,91.77,0,0,0,15.34-32.56l.06-.25c.15-.59,14.81-57.45,23-111.67-6.49-.51-17.77-1.12-19.43-1.16Zm28.32-3.15h0Z"/><path class="cls-1" d="M356,327.43c-32.72,0-52.41-16.64-63.42-31.4a100.64,100.64,0,0,1-16.9-36.13c-.78-3-16-62.61-23.91-117.68v0a5,5,0,0,1,1.18-4c1.58-1.83,2-2,15.69-2.84,5.7-.36,12.17-.69,13.06-.7a208.35,208.35,0,0,1,58.33,7c25,6.92,46.47,19.28,62,35.73,20.06,21.2,38,57.33,32.74,90.26A69.19,69.19,0,0,1,431.69,280c-9.38,26.53-33.16,43.61-65.24,46.85A102.09,102.09,0,0,1,356,327.43Zm-93.6-181.59c8.18,54.24,22.84,111.08,23,111.67l.06.26a91.76,91.76,0,0,0,15.35,32.55c15.4,20.45,37.14,29.41,64.61,26.62,38.43-3.89,52.1-26.87,56.82-40.23a58.79,58.79,0,0,0,2.68-10.56c4.66-29.42-12.35-63-30.12-81.83-14.31-15.12-34.17-26.52-57.44-33a198.23,198.23,0,0,0-55.53-6.67C280.2,144.72,268.92,145.33,262.43,145.84Z"/><path class="cls-1" d="M326.59,148.09h-.32a5,5,0,0,1-4.68-5.3c0-.27,1.43-27.93-16.2-46.63-11-11.7-27.3-17.63-48.37-17.63s-37.35,5.93-48.38,17.63c-17.63,18.7-16.22,46.36-16.2,46.63a5,5,0,0,1-10,.62c-.08-1.3-1.75-32.12,18.83-54C214.29,75.53,233,68.52,257,68.52s42.73,7,55.72,20.85c20.59,21.91,18.91,52.73,18.83,54A5,5,0,0,1,326.59,148.09Z"/><path class="cls-1" d="M257,422c-39.59,0-69.14-13.21-87.85-39.26-15.49-21.57-19.3-46.83-20.2-60a5,5,0,0,1,10-.69C160.79,349.13,174,412,257,412s96.24-62.94,98.07-90a5,5,0,0,1,10,.68c-.89,13.13-4.69,38.39-20.16,60C326.21,408.77,296.64,422,257,422Z"/><path class="cls-1" d="M297.23,299.17H216.71a5,5,0,1,1,0-10h80.52a5,5,0,0,1,0,10Z"/><path class="cls-1" d="M245.79,78.52h-.3a5,5,0,0,1-4.7-5.28c1.1-18.52-4.76-32.76-17.41-42.32a50.1,50.1,0,0,0-19.39-9,5,5,0,0,1,1.71-9.86,60.54,60.54,0,0,1,23.72,10.86c10.64,8.05,23,23.41,21.36,50.89A5,5,0,0,1,245.79,78.52Z"/><path class="cls-1" d="M269.1,78.52a5,5,0,0,1-5-4.7C262.49,46.34,274.83,31,285.48,22.93A60.42,60.42,0,0,1,309.2,12.07a5,5,0,0,1,1.72,9.85h0c-1.61.29-39.41,7.59-36.82,51.31a5,5,0,0,1-4.69,5.28Z"/></g><g id="Outline"><path class="cls-1" d="M388.86,445.74a5,5,0,0,1-3.53-1.47l-27.68-27.68a5,5,0,1,1,7.07-7.07L392.4,437.2a5,5,0,0,1-3.54,8.54Z"/><path class="cls-1" d="M125.64,445.74a5,5,0,0,1-3.53-8.54l27.67-27.68a5,5,0,1,1,7.07,7.07l-27.67,27.68A5,5,0,0,1,125.64,445.74Z"/><path class="cls-1" d="M257.25,500.25a5,5,0,0,1-5-5V456.11a5,5,0,0,1,10,0v39.14A5,5,0,0,1,257.25,500.25Z"/><path class="cls-1" d="M413.33,379.45a4.92,4.92,0,0,1-1.94-.4l-21.06-8.86a5,5,0,0,1,3.88-9.22l21.06,8.87a5,5,0,0,1-1.94,9.61Z"/><path class="cls-1" d="M191.17,471.06a4.9,4.9,0,0,1-1.93-.39,5,5,0,0,1-2.67-6.55l8.86-21.05a5,5,0,0,1,9.22,3.87L195.78,468A5,5,0,0,1,191.17,471.06Z"/><path class="cls-1" d="M99.5,377.84a5,5,0,0,1-1.89-9.63l23.14-9.43a5,5,0,1,1,3.77,9.26l-23.14,9.43A5,5,0,0,1,99.5,377.84Z"/><path class="cls-1" d="M322.26,471.32a5,5,0,0,1-4.63-3.11L309,447.05a5,5,0,1,1,9.26-3.77l8.62,21.15a5,5,0,0,1-4.63,6.89Z"/><path class="cls-1" d="M154,295h-.17a5,5,0,0,1-4.83-5.17c2-59.63,20.93-91.13,21.74-92.44a5,5,0,0,1,8.53,5.22c-.06.09-4.65,7.72-9.41,22.24-4.4,13.43-9.86,35.66-10.86,65.32A5,5,0,0,1,154,295Z"/><path class="cls-1" d="M357,295a5,5,0,0,1-5-4.83c-1-29.66-6.46-51.89-10.86-65.32-4.77-14.54-9.36-22.17-9.41-22.25a5,5,0,0,1,8.53-5.21c.81,1.31,19.72,32.81,21.74,92.44a5,5,0,0,1-4.83,5.17Z"/><path class="cls-1" d="M262.31,396.12c-1.9,0-3.75,0-5.54-.12a5,5,0,1,1,.46-10c25.31,1.18,44.43-5.75,56.81-20.58a51.51,51.51,0,0,0,11-22.21,5,5,0,1,1,9.88,1.58,61.44,61.44,0,0,1-13.23,27C305.3,391.48,281.31,396.12,262.31,396.12Z"/></g></svg>