<?xml version="1.0" ?><svg id="Lines" viewBox="0 0 512 512" xmlns="http://www.w3.org/2000/svg"><defs><style>.cls-1{fill:#3f456b;}.cls-2{fill:#384169;}</style></defs><title/><path class="cls-1" d="M496,500H16a5,5,0,0,1-5-5V16a5,5,0,0,1,5-5H496a5,5,0,0,1,5,5V495A5,5,0,0,1,496,500ZM21,490H491V21H21Z"/><path class="cls-1" d="M464,468H49a5,5,0,0,1-5-5V48a5,5,0,0,1,5-5H464a5,5,0,0,1,5,5V463A5,5,0,0,1,464,468ZM54,458H459V53H54Z"/><path class="cls-1" d="M464,156.75H49a5,5,0,0,1,0-10H464a5,5,0,0,1,0,10Z"/><path class="cls-1" d="M464,260.5H49a5,5,0,0,1,0-10H464a5,5,0,0,1,0,10Z"/><path class="cls-1" d="M464,364.25H49a5,5,0,0,1,0-10H464a5,5,0,0,1,0,10Z"/><path class="cls-1" d="M360.25,468a5,5,0,0,1-5-5V48a5,5,0,0,1,10,0V463A5,5,0,0,1,360.25,468Z"/><path class="cls-1" d="M256.5,468a5,5,0,0,1-5-5V48a5,5,0,0,1,10,0V463A5,5,0,0,1,256.5,468Z"/><path class="cls-1" d="M152.75,468a5,5,0,0,1-5-5V48a5,5,0,0,1,10,0V463A5,5,0,0,1,152.75,468Z"/><path class="cls-1" d="M214,286.5H196a5,5,0,0,1,0-10h18a5,5,0,0,1,0,10Z"/><path class="cls-1" d="M317,183.5H299a5,5,0,0,1,0-10h18a5,5,0,0,1,0,10Z"/><path class="cls-1" d="M421,390.5H403a5,5,0,0,1,0-10h18a5,5,0,0,1,0,10Z"/><path class="cls-1" d="M447,260a5,5,0,0,1-5-5V224c0-25.21-18.52-32.23-18.71-32.3A5,5,0,0,1,420,187v-7H404v7a5,5,0,0,1-3.29,4.7C400,192,382,199.06,382,224v31a5,5,0,0,1-10,0V224c0-25.38,15.13-36.44,22-40.16V175a5,5,0,0,1,5-5h26a5,5,0,0,1,5,5v8.84c6.87,3.72,22,14.78,22,40.16v31A5,5,0,0,1,447,260Z"/><path class="cls-1" d="M205,260a5,5,0,0,1-5-5V179a5,5,0,0,1,10,0v76A5,5,0,0,1,205,260Z"/><path class="cls-1" d="M179,260a5,5,0,0,1-5-5V179a5,5,0,0,1,10,0v76A5,5,0,0,1,179,260Z"/><path class="cls-1" d="M256,184H153a5,5,0,0,1,0-10H256a5,5,0,0,1,0,10Z"/><path class="cls-1" d="M230.33,260a5,5,0,0,1-5-5V179a5,5,0,0,1,10,0v76A5,5,0,0,1,230.33,260Z"/><path class="cls-1" d="M101,155.93a42.47,42.47,0,1,1,42.46-42.47A42.51,42.51,0,0,1,101,155.93ZM101,81a32.47,32.47,0,1,0,32.46,32.46A32.49,32.49,0,0,0,101,81Z"/><path class="cls-1" d="M153,467H49a5,5,0,0,1-5-5V403a5,5,0,0,1,5-5H153a5,5,0,0,1,5,5v59A5,5,0,0,1,153,467ZM54,457h94V408H54Z"/><path class="cls-2" d="M102,430H99a5,5,0,0,1,0-10h3a5,5,0,0,1,0,10Z"/></svg>