<?xml version="1.0" ?><svg viewBox="0 0 512 512" xmlns="http://www.w3.org/2000/svg"><defs><style>.cls-1{fill:#3f456b;}</style></defs><title/><g id="Lines"><path class="cls-1" d="M468,500H41a15,15,0,0,1-15-15V243.62a5,5,0,0,1,10,0V485a5,5,0,0,0,5,5H468a5,5,0,0,0,5-5V243.33a5,5,0,0,1,10,0V485A15,15,0,0,1,468,500Z"/><path class="cls-1" d="M486,248H26a15,15,0,0,1-15-15V217a15,15,0,0,1,15-15H486a15,15,0,0,1,15,15v16A15,15,0,0,1,486,248ZM26,212a5,5,0,0,0-5,5v16a5,5,0,0,0,5,5H486a5,5,0,0,0,5-5V217a5,5,0,0,0-5-5Z"/><path class="cls-1" d="M145,180a5,5,0,0,1-5-5V163a5,5,0,0,0-5-5H75a5,5,0,0,0-5,5v12a5,5,0,0,1-10,0V163a15,15,0,0,1,15-15h60a15,15,0,0,1,15,15v12A5,5,0,0,1,145,180Z"/><path class="cls-1" d="M80.5,158a5,5,0,0,1-5-5V111a5,5,0,0,1,5-5H128a5,5,0,0,1,5,5v40a5,5,0,0,1-10,0V116H85.5v37A5,5,0,0,1,80.5,158Z"/><path class="cls-1" d="M449,180a5,5,0,0,1-5-5V163a5,5,0,0,0-5-5H379a5,5,0,0,0-5,5v12a5,5,0,0,1-10,0V163a15,15,0,0,1,15-15h60a15,15,0,0,1,15,15v12A5,5,0,0,1,449,180Z"/><path class="cls-1" d="M384.5,158a5,5,0,0,1-5-5V111a5,5,0,0,1,5-5H432a5,5,0,0,1,5,5v40a5,5,0,0,1-10,0V116H389.5v37A5,5,0,0,1,384.5,158Z"/><path class="cls-1" d="M478,211.5a5,5,0,0,1-5-5V186a5,5,0,0,0-5-5H353a27.25,27.25,0,0,1-10.32-2.32c-7.21-3.28-11.18-9.56-11.18-17.68,0-1.81-.68-11-11-11H193c-10.32,0-11,9.19-11,11,0,8.08-4,14.36-11.18,17.64A27.25,27.25,0,0,1,160.5,181H41a5,5,0,0,0-5,5v20.5a5,5,0,0,1-10,0V186a15,15,0,0,1,15-15H160.5c1.9,0,11.5-.61,11.5-10,0-8.44,5.59-21,21-21H320.5c15.41,0,21,12.56,21,21,0,9.39,9.6,10,11.53,10H468a15,15,0,0,1,15,15v20.5A5,5,0,0,1,478,211.5Z"/></g><g id="Outline"><path class="cls-1" d="M400.43,100a5,5,0,0,1-4.66-6.81l13-33.57h-24a5,5,0,0,1-4.64-6.87l16.15-40.07a5,5,0,0,1,9.27,3.74l-13.37,33.2h23.89a5,5,0,0,1,4.67,6.81L405.1,96.81A5,5,0,0,1,400.43,100Z"/><path class="cls-1" d="M109.57,101a5,5,0,0,1-4.67-6.81l13.21-34.07H93.72a5,5,0,0,1-4.64-6.87l16.34-40.57a5,5,0,0,1,9.28,3.74l-13.58,33.7h24.29a5,5,0,0,1,4.66,6.81L114.23,97.81A5,5,0,0,1,109.57,101Z"/><path class="cls-1" d="M449,373H319.5a5,5,0,0,1,0-10H449a5,5,0,0,1,0,10Z"/><path class="cls-1" d="M384.25,437.75a5,5,0,0,1-5-5V303.25a5,5,0,0,1,10,0v129.5A5,5,0,0,1,384.25,437.75Z"/><path class="cls-1" d="M192.5,373H63a5,5,0,0,1,0-10H192.5a5,5,0,0,1,0,10Z"/><path class="cls-1" d="M103,137H81a5,5,0,0,1,0-10h22a5,5,0,0,1,0,10Z"/><path class="cls-1" d="M407,137H385a5,5,0,0,1,0-10h22a5,5,0,0,1,0,10Z"/></g></svg>