<?xml version="1.0" ?><svg viewBox="0 0 512 512" xmlns="http://www.w3.org/2000/svg"><defs><style>.cls-1{fill:#3f456b;}</style></defs><title/><g id="Lines"><path class="cls-1" d="M324.35,500a33.61,33.61,0,0,1-24.68-10.72L24.43,193.73a33.76,33.76,0,0,1,1.69-47.65L162.69,18.9a33.74,33.74,0,0,1,47.64,1.69L485.57,316.13h0a33.74,33.74,0,0,1-1.69,47.64L347.31,491A33.56,33.56,0,0,1,324.35,500ZM185.65,19.87a23.61,23.61,0,0,0-16.15,6.35L32.94,153.4a23.73,23.73,0,0,0-1.19,33.51L307,482.45a23.73,23.73,0,0,0,33.51,1.19L477.06,356.46a23.75,23.75,0,0,0,1.19-33.52L203,27.41A23.63,23.63,0,0,0,185.65,19.87Z"/><path class="cls-1" d="M185,142.85a43.11,43.11,0,1,1,31.54-72.49h0A43.1,43.1,0,0,1,185,142.85Zm0-76.22a33.12,33.12,0,1,0,24.26,10.54h0A32.86,32.86,0,0,0,186.2,66.65C185.79,66.63,185.39,66.63,185,66.63Z"/><path class="cls-1" d="M258.11,221.3c-.53,0-1.05,0-1.57,0a43.12,43.12,0,1,1,33.08-72.48h0a43.11,43.11,0,0,1-31.51,72.51ZM258,145.06a33.12,33.12,0,1,0,24.27,10.55h0a33,33,0,0,0-23.06-10.53Z"/><path class="cls-1" d="M331.16,299.74c-.53,0-1.05,0-1.58,0a42.95,42.95,0,1,1,1.58,0Zm-.07-76.24a33.14,33.14,0,1,0,24.26,10.55h0a32.83,32.83,0,0,0-23.06-10.53C331.89,223.5,331.49,223.5,331.09,223.5Z"/><path class="cls-1" d="M404.21,378.18c-.53,0-1,0-1.58,0a43.12,43.12,0,1,1,33.09-72.48h0a43.13,43.13,0,0,1-31.51,72.51Zm0-76.23a33.1,33.1,0,1,0,24.25,10.53A33,33,0,0,0,404.16,302Z"/><path class="cls-1" d="M105.9,216.55a43.11,43.11,0,1,1,31.54-72.49h0a43.1,43.1,0,0,1-31.54,72.49Zm-.05-76.22a33.12,33.12,0,1,0,24.27,10.55h0a32.87,32.87,0,0,0-23.06-10.53C106.66,140.33,106.25,140.33,105.85,140.33Z"/><path class="cls-1" d="M179,295c-.52,0-1.05,0-1.57,0a43.12,43.12,0,1,1,33.09-72.48h0A43.13,43.13,0,0,1,179,295Zm-.05-76.23a33.1,33.1,0,1,0,24.25,10.53h0A33,33,0,0,0,178.92,218.78Z"/><path class="cls-1" d="M92,394c-.52,0-1,0-1.57,0a43.12,43.12,0,1,1,33.09-72.48h0A43.13,43.13,0,0,1,92,394Zm0-76.23a33.1,33.1,0,1,0,24.25,10.53h0A33,33,0,0,0,91.92,317.78Z"/><path class="cls-1" d="M252,373.44c-.52,0-1.05,0-1.57,0a43.12,43.12,0,1,1,33.09-72.48h0A43.12,43.12,0,0,1,252,373.44ZM252,297.22a33.1,33.1,0,1,0,24.25,10.53h0A33,33,0,0,0,252,297.22Z"/><path class="cls-1" d="M325.07,451.88c-.52,0-1.05,0-1.57,0a43.12,43.12,0,1,1,33.08-72.48h0a43.12,43.12,0,0,1-31.51,72.51ZM325,375.64a33.12,33.12,0,1,0,24.27,10.55h0a32.9,32.9,0,0,0-23.06-10.52C325.8,375.64,325.4,375.64,325,375.64Z"/><path class="cls-1" d="M33,150.88a5,5,0,0,1-5-5V94.56a5,5,0,0,1,5-5H88.78a5,5,0,0,1,0,10H38v46.32A5,5,0,0,1,33,150.88Z"/><path class="cls-1" d="M230.33,414H33a5,5,0,0,1-5-5V197a5,5,0,0,1,10,0V404H230.33a5,5,0,1,1,0,10Z"/><path class="cls-1" d="M363,414H287a5,5,0,0,1,0-10h76a5,5,0,0,1,0,10Z"/><path class="cls-1" d="M480.24,414H428a5,5,0,0,1,0-10h47.26V360.11a5,5,0,0,1,10,0V409A5,5,0,0,1,480.24,414Z"/><path class="cls-1" d="M480.24,322.74a5,5,0,0,1-5-5V99.56H273.33a5,5,0,0,1,0-10H480.24a5,5,0,0,1,5,5V317.74A5,5,0,0,1,480.24,322.74Z"/></g><g id="Outline"><path class="cls-1" d="M448,132.87H304a5,5,0,0,1,0-10H448a5,5,0,0,1,0,10Z"/><path class="cls-1" d="M448,164.14H333a5,5,0,0,1,0-10H448a5,5,0,0,1,0,10Z"/><path class="cls-1" d="M448,196H364a5,5,0,0,1,0-10h84a5,5,0,0,1,0,10Z"/><path class="cls-1" d="M448,229H394a5,5,0,0,1,0-10h54a5,5,0,0,1,0,10Z"/></g></svg>