<?xml version="1.0" ?><svg id="Lines" viewBox="0 0 512 512" xmlns="http://www.w3.org/2000/svg"><defs><style>.cls-1{fill:#3f456b;}</style></defs><title/><path class="cls-1" d="M405.09,501.73H108.91a97.67,97.67,0,0,1-97.56-97.56V108a97.66,97.66,0,0,1,97.56-97.56H405.09A97.67,97.67,0,0,1,502.65,108V404.17A97.68,97.68,0,0,1,405.09,501.73ZM108.91,20.43A87.66,87.66,0,0,0,21.35,108V404.17a87.66,87.66,0,0,0,87.56,87.56H405.09a87.66,87.66,0,0,0,87.56-87.56V108a87.66,87.66,0,0,0-87.56-87.56Z"/><path class="cls-1" d="M497.65,261.08H16.35a5,5,0,0,1,0-10h481.3a5,5,0,1,1,0,10Z"/><path class="cls-1" d="M257,501.73a5,5,0,0,1-5-5V15.43a5,5,0,0,1,10,0v481.3A5,5,0,0,1,257,501.73Z"/><path class="cls-1" d="M346,221.48c-15.26,0-28.63-5.26-38.61-15.4-26.36-26.81-16.83-74.47,22.68-113.33,18.33-18,39.5-30.31,59.61-34.61,21.57-4.6,40.78.31,54.07,13.83,13.58,13.8,18.27,33.2,13.19,54.6-4.66,19.72-17.4,40.57-35.86,58.72h0c-18.29,18-39.49,30.25-59.71,34.52A74.24,74.24,0,0,1,346,221.48Zm59.23-155a65.18,65.18,0,0,0-13.46,1.48c-18.28,3.9-37.7,15.25-54.69,32-35.37,34.79-44.86,76.51-22.56,99.19,7.59,7.71,21.52,15.88,44.78,11,18.38-3.89,37.83-15.2,54.77-31.87h0c17.13-16.85,28.9-36,33.14-53.89,3-12.69,3.61-30.85-10.59-45.29C427.19,69.35,415.69,66.44,405.27,66.44Z"/><path class="cls-1" d="M408.78,466.05a62,62,0,0,1-43.94-18.2L303.5,386.51c-24.17-24.17-24.28-63.4-.23-87.44s63.27-23.94,87.44.23l61.34,61.33c24.17,24.18,24.28,63.41.23,87.45A61.31,61.31,0,0,1,408.78,466.05Zm-98.21-86.61,61.34,61.34A51.67,51.67,0,1,0,445,367.71l-61.34-61.34a51.67,51.67,0,1,0-73.07,73.07Z"/><path class="cls-1" d="M337.7,418.65a5,5,0,0,1-3.53-8.54L414.31,330a5,5,0,1,1,7.07,7.07l-80.14,80.14A5,5,0,0,1,337.7,418.65Z"/><path class="cls-1" d="M79.29,441.08a5,5,0,0,1-3.53-1.47,5,5,0,0,1,0-7.07l124.7-124.71a5,5,0,0,1,7.08,7.07L82.83,439.61A5,5,0,0,1,79.29,441.08Z"/><path class="cls-1" d="M203.37,441.08a5,5,0,0,1-3.54-1.47L75.12,314.9a5,5,0,0,1,7.07-7.07L206.9,432.54a5,5,0,0,1-3.53,8.54Z"/><path class="cls-1" d="M136.56,216.14a78.22,78.22,0,1,1,7.2-.33Q140.14,216.14,136.56,216.14Zm-6-145.94a68.1,68.1,0,1,0,74,61.67,68.17,68.17,0,0,0-74-61.67Zm-.46-5h0Z"/><path class="cls-1" d="M86.72,192a5,5,0,0,1-3.54-8.53L183.25,83.36a5,5,0,0,1,7.07,7.07L90.25,190.5A4.94,4.94,0,0,1,86.72,192Z"/></svg>