<?xml version="1.0" ?><svg viewBox="0 0 512 512" xmlns="http://www.w3.org/2000/svg"><defs><style>.cls-1{fill:#3f456b;}</style></defs><title/><g id="Lines"><path class="cls-1" d="M67.08,484H47a35,35,0,0,1-35-35V62A35,35,0,0,1,47,27H173.75a5,5,0,0,1,0,10H47A25,25,0,0,0,22,62V449a25,25,0,0,0,25,25H67.08a5,5,0,1,1,0,10Z"/><path class="cls-1" d="M412.88,484H103.08a5,5,0,0,1,0-10h309.8a5,5,0,0,1,0,10Z"/><path class="cls-1" d="M468,484H448.12a5,5,0,0,1,0-10H468a25,25,0,0,0,25-25V62a25,25,0,0,0-25-25H337a5,5,0,0,1,0-10H468a35,35,0,0,1,35,35V449A35,35,0,0,1,468,484Z"/><path class="cls-1" d="M115,206.5A76.5,76.5,0,1,1,191.5,130,76.59,76.59,0,0,1,115,206.5Zm0-143A66.5,66.5,0,1,0,181.5,130,66.57,66.57,0,0,0,115,63.5Z"/><path class="cls-1" d="M399.5,206A76.5,76.5,0,1,1,476,129.5,76.59,76.59,0,0,1,399.5,206Zm0-143A66.5,66.5,0,1,0,466,129.5,66.57,66.57,0,0,0,399.5,63Z"/><path class="cls-1" d="M135.41,424.54a5,5,0,0,1-1.42-9.79,66.57,66.57,0,0,0,43.5-86.54,5,5,0,0,1,9.4-3.42A76.61,76.61,0,0,1,176,397.14a77,77,0,0,1-39.18,27.2A5.09,5.09,0,0,1,135.41,424.54Z"/><path class="cls-1" d="M96.13,425a5,5,0,0,1-1.32-.17,76.51,76.51,0,1,1,73.75-128.43,5,5,0,0,1-7,7.14A66.51,66.51,0,1,0,97.44,415.16,5,5,0,0,1,96.13,425Z"/><path class="cls-1" d="M381,424.59a5.26,5.26,0,0,1-1.29-.17A76.56,76.56,0,0,1,328,323.31a5,5,0,1,1,9.34,3.55,66.59,66.59,0,0,0,45,87.9,5,5,0,0,1-1.29,9.83Z"/><path class="cls-1" d="M419.28,424.23a5,5,0,0,1-1.38-9.81,66.51,66.51,0,1,0-64.06-112.26,5,5,0,0,1-6.87-7.27A76.5,76.5,0,1,1,420.66,424,4.7,4.7,0,0,1,419.28,424.23Z"/><path class="cls-1" d="M257,325a85.21,85.21,0,0,1-62.67-27.58,5,5,0,1,1,7.37-6.75,75,75,0,0,0,111.56-1.08,5,5,0,0,1,7.5,6.62A85.05,85.05,0,0,1,257,325Z"/><path class="cls-1" d="M183,275.43a5,5,0,0,1-4.62-3.1,85,85,0,1,1,158.33-2.71,5,5,0,0,1-9.38-3.49,75,75,0,1,0-139.71,2.4,5,5,0,0,1-2.72,6.52A4.88,4.88,0,0,1,183,275.43Z"/><path class="cls-1" d="M257.5,113H257c-31.53,0-55-10.35-69.68-30.78C173.57,63.13,172.5,41.51,172.5,35.34,172.5,15.3,185.91,10,193,10H321.5c7.09,0,20.5,5.3,20.5,25.34,0,6.17-1.07,27.79-14.82,46.88C312.47,102.65,289,113,257.5,113Zm63.94-93H193c-1.7.05-10.5,1-10.5,15.34,0,5.42.93,24.38,12.93,41C208.15,94,228.87,103,257,103h.5c28.13,0,48.85-9,61.57-26.62,12-16.66,12.93-35.62,12.93-41C332,21,323.2,20.05,321.44,20Z"/><path class="cls-1" d="M313,61H201a5,5,0,0,1-5-5V34a5,5,0,0,1,5-5H313a5,5,0,0,1,5,5V56A5,5,0,0,1,313,61ZM206,51H308V39H206Z"/><path class="cls-1" d="M195,434.93a4.94,4.94,0,0,1-2.14-.48,5,5,0,0,1-2.37-6.66c6.85-14.45,16.44-19,23.27-20.3,10.68-2,20.33,2.79,25.34,7.5,7.69,7.24,16.17,10.61,23.9,9.48a21.7,21.7,0,0,0,3.56-.85,33.18,33.18,0,0,1-3.29-3c-6.23-6.44-8.44-14.63-6.07-22.47,2.72-9,8.95-15.14,16.64-16.33A17.42,17.42,0,0,1,291,389.31c4.8,7,4.32,16.63-1.31,26.36a48,48,0,0,1-4,5.89c7.09,1.63,16,1.73,26.43-1a5,5,0,1,1,2.57,9.66c-13.47,3.58-26.85,3.16-37.5-.76a31,31,0,0,1-12.73,4.94c-10.79,1.58-22.23-2.71-32.19-12.08a20,20,0,0,0-16.64-5c-6.53,1.23-12.09,6.33-16.09,14.75A5,5,0,0,1,195,434.93Zm81.55-43.28a6.72,6.72,0,0,0-1.18.1c-3.86.59-7,4-8.6,9.33-1.68,5.55,1.08,9.93,3.69,12.63a24.54,24.54,0,0,0,5.26,4,34.74,34.74,0,0,0,5.32-7.09c3.63-6.26,4.25-12,1.71-15.7A7.48,7.48,0,0,0,276.58,391.65Z"/><path class="cls-1" d="M86.52,498.88a24.28,24.28,0,0,1-11.44-3.23c-6.29-3.39-10.13-7.89-11.42-13.39-1.73-7.43,2-13.72,3-15.28l37.8-70.21c23.88-44.35,74.19-127.65,82.14-140.78a23.62,23.62,0,0,1,1.85-14.14,20.07,20.07,0,0,1,12.38-11.09A21,21,0,0,1,227,244.84a20.09,20.09,0,0,1-2.45,16.44,23.69,23.69,0,0,1-10.76,9.31c-6.05,13-42.11,90-71.85,145.21l-4.41-2.37,4.41,2.37-38.28,71.09c-.74,1.72-3.94,8.28-11.1,10.92A17.37,17.37,0,0,1,86.52,498.88Zm120.37-259a10.84,10.84,0,0,0-3.18.47,10.26,10.26,0,0,0-6.19,5.74,13.28,13.28,0,0,0-.78,9.31,5,5,0,0,1-.51,4c-.57.94-57.24,94.33-82.95,142.09L75.35,472a5.69,5.69,0,0,1-.33.52s-2.53,3.77-1.6,7.57c.62,2.56,2.77,4.85,6.4,6.81s6.73,2.49,9.21,1.6c3.69-1.32,5.43-5.51,5.45-5.55s.16-.37.24-.52l38.4-71.32h0c32.26-59.93,72.06-145.7,72.46-146.56a5,5,0,0,1,3.1-2.68A13.34,13.34,0,0,0,216,256a10.22,10.22,0,0,0,1.39-8.33,11,11,0,0,0-10.52-7.84Z"/><path class="cls-1" d="M428.5,496.88a17.32,17.32,0,0,1-6-1.07c-7.16-2.64-10.36-9.2-11.1-10.92l-38.28-71.1c-29.74-55.23-65.8-132.23-71.85-145.2a23.64,23.64,0,0,1-10.76-9.31A20.09,20.09,0,0,1,288,242.84a21,21,0,0,1,26.15-14.08,20.07,20.07,0,0,1,12.38,11.09A23.54,23.54,0,0,1,328.41,254c8,13.13,58.27,96.43,82.15,140.77L448.36,465c1,1.56,4.74,7.85,3,15.28-1.29,5.49-5.13,10-11.42,13.39A24.28,24.28,0,0,1,428.5,496.88Zm-46.59-87.83,38.4,71.32c.1.19.18.38.26.57,0,0,1.74,4.19,5.43,5.51,2.48.89,5.58.35,9.21-1.6s5.82-4.28,6.42-6.87c.88-3.76-1.6-7.47-1.62-7.51a4.72,4.72,0,0,1-.33-.53l-37.93-70.43C376,351.75,319.37,258.36,318.8,257.42a5,5,0,0,1-.51-4,13.34,13.34,0,0,0-.78-9.31,10.26,10.26,0,0,0-6.19-5.74,11,11,0,0,0-13.7,7.37A10.22,10.22,0,0,0,299,254a13.3,13.3,0,0,0,7.34,5.78,5,5,0,0,1,3.1,2.68c.4.86,40.19,86.63,72.46,146.55Z"/><path class="cls-1" d="M290,82a5,5,0,0,1-5-5V76a5,5,0,0,1,10,0v1A5,5,0,0,1,290,82Z"/><path class="cls-1" d="M226,82a5,5,0,0,1-5-5V76a5,5,0,0,1,10,0v1A5,5,0,0,1,226,82Z"/><path class="cls-1" d="M258,82a5,5,0,0,1-5-5V76a5,5,0,0,1,10,0v1A5,5,0,0,1,258,82Z"/></g><g id="Outline"><path class="cls-1" d="M114,160a30,30,0,1,1,30-30A30,30,0,0,1,114,160Zm0-50a20,20,0,1,0,20,20A20,20,0,0,0,114,110Z"/><path class="cls-1" d="M114,182a52,52,0,1,1,52-52A52.06,52.06,0,0,1,114,182Zm0-94a42,42,0,1,0,42,42A42,42,0,0,0,114,88Z"/><path class="cls-1" d="M400,160a30,30,0,1,1,30-30A30,30,0,0,1,400,160Zm0-50a20,20,0,1,0,20,20A20,20,0,0,0,400,110Z"/><path class="cls-1" d="M400,182a52,52,0,1,1,52-52A52.06,52.06,0,0,1,400,182Zm0-94a42,42,0,1,0,42,42A42,42,0,0,0,400,88Z"/><path class="cls-1" d="M114,381a30,30,0,1,1,29.23-36.78,5,5,0,0,1-9.74,2.26A20,20,0,1,0,114,371a20.2,20.2,0,0,0,6-.91,5,5,0,0,1,3,9.54A30,30,0,0,1,114,381Z"/><path class="cls-1" d="M109.2,402.76l-.51,0a52,52,0,1,1,46.74-83.16,5,5,0,1,1-8,6.05,42,42,0,1,0-37.77,67.16,5,5,0,0,1-.5,10Z"/><path class="cls-1" d="M400,381a30.48,30.48,0,0,1-6-.61,5,5,0,1,1,2-9.8A20,20,0,1,0,400,331a19.91,19.91,0,0,0-19.1,14.05,5,5,0,1,1-9.55-3A30,30,0,1,1,400,381Z"/><path class="cls-1" d="M406.21,402.59a5,5,0,0,1-.65-9.95,42,42,0,1,0-38.16-68.12,5,5,0,1,1-7.76-6.31,52,52,0,1,1,47.23,84.34A4.87,4.87,0,0,1,406.21,402.59Z"/><path class="cls-1" d="M258,270a30,30,0,1,1,30-30A30,30,0,0,1,258,270Zm0-50a20,20,0,1,0,20,20A20,20,0,0,0,258,220Z"/><path class="cls-1" d="M258,292a52.22,52.22,0,0,1-44.93-25.81,5,5,0,1,1,8.63-5,42,42,0,0,0,73.47-1.57,5,5,0,0,1,8.84,4.67A51.91,51.91,0,0,1,258,292Z"/><path class="cls-1" d="M211.28,239.87a4.89,4.89,0,0,1-.54,0,5,5,0,0,1-4.43-5.51,52,52,0,0,1,103.1-2.21,5,5,0,0,1-9.89,1.5,42,42,0,0,0-83.27,1.79A5,5,0,0,1,211.28,239.87Z"/><path class="cls-1" d="M86,249.5H17a5,5,0,0,1,0-10H86a5,5,0,0,1,0,10Z"/><path class="cls-1" d="M70,230.25H17a5,5,0,0,1,0-10H70a5,5,0,0,1,0,10Z"/><path class="cls-1" d="M57,211H17a5,5,0,0,1,0-10H57a5,5,0,0,1,0,10Z"/><path class="cls-1" d="M57,288H17a5,5,0,0,1,0-10H57a5,5,0,0,1,0,10Z"/><path class="cls-1" d="M70,268.75H17a5,5,0,0,1,0-10H70a5,5,0,0,1,0,10Z"/><path class="cls-1" d="M498,249.5H429a5,5,0,0,1,0-10h69a5,5,0,0,1,0,10Z"/><path class="cls-1" d="M498,230.25H445a5,5,0,0,1,0-10h53a5,5,0,0,1,0,10Z"/><path class="cls-1" d="M498,211H458a5,5,0,0,1,0-10h40a5,5,0,0,1,0,10Z"/><path class="cls-1" d="M498,288H458a5,5,0,0,1,0-10h40a5,5,0,0,1,0,10Z"/><path class="cls-1" d="M498,268.75H445a5,5,0,0,1,0-10h53a5,5,0,0,1,0,10Z"/></g></svg>