<?xml version="1.0" ?><svg id="Lines" viewBox="0 0 512 512" xmlns="http://www.w3.org/2000/svg"><defs><style>.cls-1{fill:#3f456b;}</style></defs><title/><path class="cls-1" d="M109.05,419.46a43.12,43.12,0,1,1,43.12-43.12A43.17,43.17,0,0,1,109.05,419.46Zm0-76.24a33.12,33.12,0,1,0,33.12,33.12A33.16,33.16,0,0,0,109.05,343.22Z"/><path class="cls-1" d="M109.05,382a5,5,0,0,1-5-5v-1.28a5,5,0,0,1,10,0V377A5,5,0,0,1,109.05,382Z"/><path class="cls-1" d="M193.85,419.46A43.12,43.12,0,1,1,237,376.34,43.17,43.17,0,0,1,193.85,419.46Zm0-76.24A33.12,33.12,0,1,0,227,376.34,33.16,33.16,0,0,0,193.85,343.22Z"/><path class="cls-1" d="M193.85,382a5,5,0,0,1-5-5v-1.28a5,5,0,0,1,10,0V377A5,5,0,0,1,193.85,382Z"/><path class="cls-1" d="M279,419.46a43.12,43.12,0,1,1,43.13-43.12A43.16,43.16,0,0,1,279,419.46Zm0-76.24a33.12,33.12,0,1,0,33.13,33.12A33.16,33.16,0,0,0,279,343.22Z"/><path class="cls-1" d="M279,398.41A22.07,22.07,0,1,1,301,376.34,22.09,22.09,0,0,1,279,398.41Zm0-34.13A12.07,12.07,0,1,0,291,376.34,12.07,12.07,0,0,0,279,364.28Z"/><path class="cls-1" d="M193.85,398.41a22.07,22.07,0,1,1,22.06-22.07A22.09,22.09,0,0,1,193.85,398.41Zm0-34.13a12.07,12.07,0,1,0,12.06,12.06A12.08,12.08,0,0,0,193.85,364.28Z"/><path class="cls-1" d="M109.05,398.41a22.07,22.07,0,1,1,22.06-22.07A22.09,22.09,0,0,1,109.05,398.41Zm0-34.13a12.07,12.07,0,1,0,12.06,12.06A12.08,12.08,0,0,0,109.05,364.28Z"/><path class="cls-1" d="M363,398.41A22.07,22.07,0,1,1,385,376.34,22.09,22.09,0,0,1,363,398.41Zm0-34.13A12.07,12.07,0,1,0,375,376.34,12.08,12.08,0,0,0,363,364.28Z"/><path class="cls-1" d="M279,382a5,5,0,0,1-5-5v-1.28a5,5,0,0,1,10,0V377A5,5,0,0,1,279,382Z"/><path class="cls-1" d="M363,419.46a43.12,43.12,0,1,1,43.13-43.12A43.16,43.16,0,0,1,363,419.46Zm0-76.24a33.12,33.12,0,1,0,33.13,33.12A33.16,33.16,0,0,0,363,343.22Z"/><path class="cls-1" d="M363,382a5,5,0,0,1-5-5v-1.28a5,5,0,0,1,10,0V377A5,5,0,0,1,363,382Z"/><path class="cls-1" d="M431.54,390.31A28.49,28.49,0,1,1,460,361.82,28.52,28.52,0,0,1,431.54,390.31Zm0-47A18.49,18.49,0,1,0,450,361.82,18.51,18.51,0,0,0,431.54,343.33Z"/><path class="cls-1" d="M431.54,366.65a5,5,0,0,1-5-5v-.55a5,5,0,0,1,10,0v.55A5,5,0,0,1,431.54,366.65Z"/><path class="cls-1" d="M41.34,390.31a28.49,28.49,0,1,1,28.48-28.49A28.52,28.52,0,0,1,41.34,390.31Zm0-47a18.49,18.49,0,1,0,18.48,18.49A18.51,18.51,0,0,0,41.34,343.33Z"/><path class="cls-1" d="M41.34,366.65a5,5,0,0,1-5-5v-.55a5,5,0,0,1,10,0v.55A5,5,0,0,1,41.34,366.65Z"/><path class="cls-1" d="M431.54,343.33H41.34a5,5,0,1,1,0-10h390.2a5,5,0,0,1,0,10Z"/><path class="cls-1" d="M91.09,414.88a5,5,0,0,1-2-.44l-6.12-2.75a5,5,0,1,1,4.1-9.12l6.12,2.75a5,5,0,0,1-2,9.56ZM75.85,408a5,5,0,0,1-2-.44l-9.12-4.1a5,5,0,0,1-2.53-6.57,5,5,0,0,1-6.59,2.47l-9.12-4.1a5,5,0,0,1,4.1-9.12l9.12,4.1a5,5,0,0,1,2.53,6.57,5,5,0,0,1,6.59-2.47l9.12,4.1A5,5,0,0,1,75.85,408Zm-36.48-16.4a5,5,0,0,1-2-.44l-9.12-4.1A5,5,0,1,1,32.3,378l9.12,4.1a5,5,0,0,1-2.05,9.56Z"/><path class="cls-1" d="M381.56,414.88a5,5,0,0,1-2.05-9.56l6.11-2.75a5,5,0,1,1,4.1,9.12l-6.11,2.75A5,5,0,0,1,381.56,414.88ZM396.8,408a5,5,0,0,1-2.06-9.56l9.12-4.1a5,5,0,0,1,6.6,2.47,5,5,0,0,1,2.53-6.57l9.12-4.1a5,5,0,1,1,4.1,9.12l-9.12,4.1a5,5,0,0,1-6.6-2.47,5,5,0,0,1-2.52,6.57l-9.13,4.1A4.93,4.93,0,0,1,396.8,408Zm36.48-16.4a5,5,0,0,1-2-9.56l9.12-4.1a5,5,0,1,1,4.1,9.12l-9.12,4.1A5,5,0,0,1,433.28,391.63Z"/><path class="cls-1" d="M359.05,419.47h-10a5,5,0,1,1,0-10h10a5,5,0,0,1,0,10Zm-20,0h-10a5,5,0,1,1,0-10h10a5,5,0,0,1,0,10Zm-20,0h-10a5,5,0,1,1,0-10h10a5,5,0,0,1,0,10Zm-20,0h-10a5,5,0,1,1,0-10h10a5,5,0,0,1,0,10Zm-20,0h-10a5,5,0,1,1,0-10h10a5,5,0,0,1,0,10Zm-20,0h-10a5,5,0,1,1,0-10h10a5,5,0,0,1,0,10Zm-20,0h-10a5,5,0,1,1,0-10h10a5,5,0,0,1,0,10Zm-20,0h-10a5,5,0,1,1,0-10h10a5,5,0,0,1,0,10Zm-20,0h-10a5,5,0,1,1,0-10h10a5,5,0,0,1,0,10Zm-20,0h-10a5,5,0,1,1,0-10h10a5,5,0,0,1,0,10Zm-20,0h-10a5,5,0,1,1,0-10h10a5,5,0,0,1,0,10Zm-20,0h-10a5,5,0,0,1,0-10h10a5,5,0,0,1,0,10Zm-20,0h-10a5,5,0,1,1,0-10h10a5,5,0,0,1,0,10Z"/><path class="cls-1" d="M454.89,366.82a5,5,0,0,1-5-5V341.65a1.41,1.41,0,0,1,0-.2c0-.09.29-11.69-7-19.27-4.44-4.58-10.94-6.9-19.33-6.9H49.22c-8.39,0-14.89,2.32-19.33,6.9-7.34,7.58-7,19.18-7,19.29a1.15,1.15,0,0,1,0,.18v20.17a5,5,0,0,1-10,0V341.73c0-1.6-.14-16.1,9.78-26.42,6.39-6.66,15.34-10,26.59-10h374.3c11.25,0,20.2,3.37,26.59,10,9.92,10.32,9.83,24.83,9.78,26.42v20.09A5,5,0,0,1,454.89,366.82Z"/><path class="cls-1" d="M423,232.4H271.31a5,5,0,0,1,0-10H423a5,5,0,0,1,0,10Z"/><path class="cls-1" d="M423,212.06H259.84a5,5,0,1,1,0-10H423a5,5,0,0,1,0,10Z"/><path class="cls-1" d="M485.4,240.8H433.49a15,15,0,0,1-15-15V209.53a15,15,0,0,1,15-15H485.4a15,15,0,0,1,15,15V225.8A15,15,0,0,1,485.4,240.8Zm-51.91-36.27a5,5,0,0,0-5,5V225.8a5,5,0,0,0,5,5H485.4a5,5,0,0,0,5-5V209.53a5,5,0,0,0-5-5Z"/><path class="cls-1" d="M419.5,315.28a5,5,0,0,1-5-5V265.5a5,5,0,0,0-5-5H58.5a5,5,0,0,0-5,5v44.78a5,5,0,0,1-10,0V265.5a15,15,0,0,1,15-15h351a15,15,0,0,1,15,15v44.78A5,5,0,0,1,419.5,315.28Z"/><path class="cls-1" d="M286.29,260.5a5,5,0,0,1-4.39-2.6c-.33-.6-33.2-60.52-38.73-69.89-4-6.75-14.35-7.47-15.15-7.51H98.2c-5.19,0-9,1.23-11.19,3.65a10.49,10.49,0,0,0-2.53,7,2.55,2.55,0,0,1,0,.39v64a5,5,0,0,1-10,0V191.65a20.3,20.3,0,0,1,5.17-14.29c4.21-4.55,10.44-6.86,18.53-6.86H228.28c.68,0,16.54.64,23.5,12.42,5.62,9.5,37.53,67.7,38.89,70.18a5,5,0,0,1-4.38,7.4Z"/><path class="cls-1" d="M384,288.17H258a5,5,0,0,1,0-10H384a5,5,0,0,1,0,10Z"/><path class="cls-1" d="M215,180.5a5,5,0,0,1-5-5V166a5,5,0,0,0-5-5H122.5a5,5,0,0,0-5,5v9.5a5,5,0,0,1-10,0V166a15,15,0,0,1,15-15H205a15,15,0,0,1,15,15v9.5A5,5,0,0,1,215,180.5Z"/><path class="cls-1" d="M192.5,239.75h-46a15,15,0,0,1-15-15v-18.5a15,15,0,0,1,15-15h46a15,15,0,0,1,15,15v18.5A15,15,0,0,1,192.5,239.75Zm-46-38.5a5,5,0,0,0-5,5v18.5a5,5,0,0,0,5,5h46a5,5,0,0,0,5-5v-18.5a5,5,0,0,0-5-5Z"/><path class="cls-1" d="M136.33,220.5H124.14a5,5,0,1,1,0-10h12.19a5,5,0,1,1,0,10Z"/></svg>