<?xml version="1.0" ?><svg viewBox="0 0 512 512" xmlns="http://www.w3.org/2000/svg"><defs><style>.cls-1{fill:#3f456b;}</style></defs><title/><g id="Lines"><path class="cls-1" d="M452,455.17a365,365,0,0,1-88.64-11.08c-7.32-1.86-14.82-3.82-22.06-5.72-30.45-8-61.93-16.21-92.86-20.3-34.1-4.5-70.82-5.17-112.25-2-44.72,3.37-83.59,9.84-118.83,19.78a5,5,0,0,1-2.72-9.62c35.9-10.12,75.41-16.71,120.8-20.13,42.13-3.18,79.52-2.49,114.31,2.1,31.55,4.16,63.34,12.49,94.08,20.54,7.23,1.89,14.71,3.85,22,5.7,42.82,10.89,90,13.68,129.43,7.66a5,5,0,1,1,1.5,9.88A297.93,297.93,0,0,1,452,455.17Z"/><path class="cls-1" d="M266.75,420.5a5,5,0,0,1-4.47-7.24l9.25-18.5.05-.1c6.68-12.62-3.4-20.76-4.46-21.57-2.11-1.41-33.6-22.34-52.69-33.8-18.19-10.92-54.29-5.41-54.65-5.35s-42.26,6.05-64.92,10c-4.73.82-8.17,2.86-10.54,6.24-5.1,7.28-3.62,18.5-3.42,19.82l.95,3.8a5,5,0,0,1-9.7,2.42l-1-4c0-.11-.05-.22-.07-.33-.12-.66-2.79-16.25,5-27.44,3.91-5.6,9.64-9.08,17-10.37,22.81-4,64.73-10,65.15-10,1.55-.24,40-6.13,61.28,6.66,19.87,11.93,52.87,33.91,53.2,34.13l.19.13c6.38,4.68,16.16,17.87,7.49,34.31l-9.23,18.46A5,5,0,0,1,266.75,420.5Z"/><path class="cls-1" d="M471,453a4.44,4.44,0,0,1-.63,0,5,5,0,0,1-4.34-5.58c0-.08,1-8.2,3-27.88a9.54,9.54,0,0,0-2.29-7.73c-5.15-5.89-17.42-7.6-21.82-7.77-1.88,0-32.41.07-51.41,2-14.61,1.46-13.68,15-13.52,16.52,0,.07,0,.14,0,.21l1.12,19a5,5,0,1,1-10,.59L370,423.38A30,30,0,0,1,371.83,411c3.29-8.63,10.63-13.94,20.67-15,20-2,51.18-2,52.5-2h.16c2,.07,20.11.94,29.08,11.17A19.71,19.71,0,0,1,479,420.5c-2,19.83-3,27.79-3,28.12A5,5,0,0,1,471,453Z"/><path class="cls-1" d="M44.07,429a5,5,0,0,1-4.76-3.49c-.23-.71-5.51-17.73-.05-34.08,6.31-18.94,38.81-22.36,57-21.41,18.44,1,24.88,17.77,25.72,26.52a5,5,0,0,1-10,.94,26.56,26.56,0,0,0-2.94-9c-3-5.4-7.34-8.18-13.34-8.5-20.08-1.06-43.37,3.7-47,14.59-4.4,13.21,0,27.76.1,27.91a5,5,0,0,1-3.27,6.26A5,5,0,0,1,44.07,429Z"/><path class="cls-1" d="M224.49,344.58a5,5,0,0,1-4.92-4.18c-.1-.57-9.48-56.9-19.9-74.9-3.73-6.44-9.75-10.19-17.88-11.16a36.58,36.58,0,0,0-11.58.51l-.41.09-37,6-.37,0c-.76.07-19.23,2.06-22.5,20.88-3.91,22.46-6.14,56.31-6.16,56.65a5,5,0,0,1-10-.65c.09-1.4,2.28-34.72,6.28-57.72,3.66-21,22-28.21,31.3-29.1L168,245.1c9.66-2.34,30.21-2.08,40.33,15.4,11.32,19.56,20.71,75.88,21.1,78.27a5,5,0,0,1-4.12,5.75A5.66,5.66,0,0,1,224.49,344.58Z"/><path class="cls-1" d="M76,364a4.89,4.89,0,0,1-2-.42c-17.84-7.8-25-22.15-25.76-33-.84-11.87,5.89-21.74,10-26.56l.6-.7a18.48,18.48,0,0,0,1.46-1.83c7.15-10.71-.29-26.57-8.77-33.24C44,262.4,41,253.88,42.69,243.65A48.92,48.92,0,0,1,50.49,225c6-8.56,2-13.19-6.79-22-1.26-1.26-2.55-2.56-3.8-3.89-5.79-6.18-8.79-12.84-8.67-19.27.16-7.88,4.27-14,7.9-19.43s6.62-9.87,6.25-15.49a44,44,0,0,0-2.49-10.23c-.59-1.81-1.21-3.68-1.72-5.62-2.11-7.9-.45-20,6-26.54a15.74,15.74,0,0,1,15.61-4.19c17.85,4.4,16.13,21.22,14.87,33.5-.7,6.9-1.43,14,.77,18.22,1.46,2.77,3.79,5.05,6.27,7.47,3.2,3.13,6.83,6.68,8.94,11.81,4.73,11.52-.1,20.07-4.36,27.61-1.12,2-2.27,4-3.24,6.07s-3.07,7.37-1.08,11.31c1.44,2.86,3.66,5.11,6,7.49,3.79,3.83,8.09,8.17,9.63,15.57,2.1,10-.57,21-7.93,32.67-4.91,7.75-6.57,15.2-4.94,22.16,2.76,11.77,13.81,18.59,13.92,18.66a5,5,0,1,1-5.19,8.55c-.6-.37-14.75-9.11-18.46-24.92-2.27-9.67-.18-19.7,6.22-29.8,5.93-9.36,8.14-17.86,6.59-25.27-.94-4.51-3.59-7.19-7-10.59-2.67-2.7-5.69-5.75-7.84-10-2.84-5.63-2.5-12.77,1-20.09,1.12-2.39,2.37-4.59,3.57-6.72,4.28-7.58,6.57-12.19,3.82-18.89-1.32-3.22-3.81-5.65-6.69-8.46s-5.93-5.8-8.12-10c-3.61-6.85-2.72-15.52-1.87-23.9,1.49-14.53,1.24-20.66-7.31-22.77-2.58-.64-4.45-.18-6.08,1.48-3.6,3.67-4.79,12-3.46,17,.44,1.67,1,3.33,1.56,5.09a51,51,0,0,1,3,12.68c.61,9-3.92,15.77-7.91,21.72-3.28,4.89-6.11,9.11-6.21,14.05-.09,4.76,3.19,9.28,6,12.24,1.15,1.22,2.39,2.46,3.59,3.67,8,8,19,19,7.9,34.84-.56.8-13.61,19.78-1,29.69,13.05,10.25,20.74,31.93,10.91,46.66a29.14,29.14,0,0,1-2.21,2.8l-.53.62c-5.28,6.25-8.07,13.32-7.64,19.41.56,7.91,6.05,18.51,19.79,24.52A5,5,0,0,1,76,364Z"/><path class="cls-1" d="M128.64,261.6a5,5,0,0,1-3.94-8.08,48,48,0,0,1,7.32-7.43l.71-.57a21.57,21.57,0,0,0,1.78-1.53c6.05-6.22,8-22.27-2.56-34.29-6.28-7.14-7.73-16.07-4.17-25.81A48.72,48.72,0,0,1,138.85,167c7.46-7.33,4.4-12.61-2.66-22.92-1-1.47-2-3-3-4.52-4.57-7.13-6.3-14.23-5-20.52,1.59-7.72,6.75-13,11.31-17.66s8.31-8.5,9-14.09a42.87,42.87,0,0,0-.58-10.52c-.25-1.89-.51-3.84-.67-5.83-.63-8.16,3.21-19.74,10.73-25A15.78,15.78,0,0,1,174,44.61c16.75,7.59,12,23.81,8.52,35.66-2,6.65-4,13.54-2.58,18,.93,3,2.81,5.67,4.8,8.49,2.58,3.67,5.51,7.82,6.64,13.26,2.55,12.18-3.76,19.7-9.32,26.34-1.46,1.74-3,3.53-4.29,5.38s-4.36,6.69-3.13,10.92c.9,3.07,2.67,5.69,4.56,8.46,3,4.46,6.46,9.52,6.63,17.07.23,10.26-4.39,20.58-13.76,30.68-8.71,9.38-11.05,19.29-7,29.46a5,5,0,1,1-9.27,3.73c-3.9-9.68-5.51-24.47,8.9-40C172.29,204,176,196,175.85,188.46c-.1-4.61-2.22-7.73-4.91-11.68-2.13-3.14-4.54-6.69-5.88-11.28-1.76-6.05-.12-13,4.62-19.57,1.54-2.14,3.17-4.08,4.74-6,5.59-6.67,8.68-10.79,7.2-17.88-.72-3.41-2.72-6.25-5-9.54s-4.78-6.78-6.18-11.28c-2.29-7.39.16-15.74,2.53-23.83,4.11-14,5-20.09-3-23.73-2.41-1.09-4.34-1-6.25.36-4.2,2.94-6.9,10.9-6.49,16,.13,1.72.36,3.45.61,5.29a51.69,51.69,0,0,1,.59,13c-1.05,9-6.73,14.79-11.74,19.92C142.5,112.54,139,116.17,138,121c-1,4.66,1.44,9.71,3.63,13.12.9,1.41,1.89,2.86,2.85,4.26,6.41,9.36,15.18,22.18,1.42,35.7-.7.69-17,17-6.4,29,10.95,12.46,14.56,35.18,2.22,47.86a28.6,28.6,0,0,1-2.7,2.36l-.63.51a37.52,37.52,0,0,0-5.77,5.86A5,5,0,0,1,128.64,261.6Z"/><path class="cls-1" d="M334.79,436.5a5,5,0,0,1-3.52-8.56c20.21-19.94,23.85-49.68,23.88-50a4.1,4.1,0,0,1,.11-.61c0-.07,2.6-12-1.81-28.67-.37-1.39-.78-2.79-1.22-4.17a93.32,93.32,0,0,1-23.19,3c-36.86,0-62.13-22.69-63.19-23.65a15,15,0,0,1,4.2-24.86,64.59,64.59,0,0,1-10.37-4.75c-34.31-19.49-41.81-65.3-42.11-67.24a15,15,0,0,1,29.64-4.65c0,.32,5.77,33.64,27.36,45.85A36.05,36.05,0,0,0,291,272.68,142,142,0,0,1,251.18,199c-5-25.53-1.26-44.7-1.1-45.5a15,15,0,0,1,29.43,5.84c0,.11-2.71,15,1.28,34.72a109,109,0,0,0,22.89,48.11c3.24-5.17,4.44-11.85,3.66-20.23a74.56,74.56,0,0,0-5.81-21.82,15,15,0,0,1,24.28-16.94c-9.94-37.5-10.1-63.67-10.1-65.2a15,15,0,0,1,30,0c0,.42.51,43.47,22.22,96.55a58.42,58.42,0,0,0,9.72-7.36c-8.07-6.86-13.89-16.59-17.33-29a94.64,94.64,0,0,1-3.26-27.47,15,15,0,0,1,30,1.5c-.23,5.64.79,19.81,7,28.56.79-2.32,1.48-4.7,2.08-7.12a110,110,0,0,0,2.4-36.25,15,15,0,0,1,29.71-4.16,129.32,129.32,0,0,1,.48,25.28,26.26,26.26,0,0,0,5-7.39,41.81,41.81,0,0,0,3.73-15.68,15,15,0,0,1,14.84-15.1h.17a15,15,0,0,1,15,14.84,71,71,0,0,1-6.6,28.76c-5.59,11.83-17,26.53-40,30.8a100.22,100.22,0,0,1-7.61,15.56l-.12.19a89.4,89.4,0,0,1-12.49,16.12,15,15,0,0,1,24,15,77.49,77.49,0,0,0-1.4,16c.12,5.49,1,12.34,4.2,17,1.44-1.83,2.82-3.75,4.12-5.75.19-.32.4-.65.62-1a95,95,0,0,0,7.6-14.9,126.44,126.44,0,0,0,8.85-43,15,15,0,0,1,14.83-15.15h.17a15,15,0,0,1,15,14.84A139.4,139.4,0,0,1,476.41,233a15,15,0,0,1,24.39,14c-4.86,29.09-27.67,41.76-48.23,44.11-14.18,18.89-33.21,31.43-56.65,37.31-.13,5.42-.52,10.81-1.17,16.12A59.13,59.13,0,0,0,421.69,329a42.94,42.94,0,0,0,9-12.87,14.76,14.76,0,0,1,7.78-8.33,15,15,0,0,1,20.29,18.91c-.66,1.77-16.3,42.25-70.2,49.77l0,1.95c-.11,8.08-.23,17.25-6.8,35.32a5,5,0,0,1-9.4-3.42c6-16.48,6.1-24.39,6.2-32,0-2.13.06-4.33.22-6.62A5,5,0,0,1,383.2,367c51.26-5.27,65.57-42.25,66.15-43.82a5,5,0,0,0-6.76-6.33,4.91,4.91,0,0,0-2.59,2.78c-.49,1.26-11.79,29.21-50.34,36.34a5,5,0,0,1-5.84-5.75A157.29,157.29,0,0,0,386,324.44a5,5,0,0,1,3.94-4.88c23.5-5.07,42.3-17.22,55.88-36.14a5,5,0,0,1,3.68-2.06c8.43-.65,36.31-5.17,41.45-36a5,5,0,0,0-9.86-1.64c-1.74,10.44-7,18.1-15.62,22.77a5,5,0,0,1-7-6.27,143.86,143.86,0,0,0,10.22-50.47,5,5,0,1,0-10,.11,134.23,134.23,0,0,1-9.59,46.85,104.36,104.36,0,0,1-8.49,16.61c-.05.08-.1.17-.16.25a3.77,3.77,0,0,0-.26.39,2.39,2.39,0,0,1-.13.21,86.67,86.67,0,0,1-8.56,11.12,5,5,0,0,1-6.55.73c-7.45-5.2-11.37-14.74-11.65-28.34a87.36,87.36,0,0,1,1.63-18.23,5,5,0,1,0-9.75-2.21,93.42,93.42,0,0,0-1.53,26c1.11,12,5.24,21.72,11.93,28.07a5,5,0,0,1-.81,7.89A84.13,84.13,0,0,1,391.05,309a5,5,0,0,1-6.19-4.29c-2.19-19.67-7.54-40.23-16.34-62.84a5,5,0,0,1,2.51-6.33,77.89,77.89,0,0,0,33.6-30.28.43.43,0,0,1,0-.07l.08-.13a90.22,90.22,0,0,0,7.74-16.46,5,5,0,0,1,4-3.28c16.49-2.31,28.38-10.94,35.33-25.66a60.1,60.1,0,0,0,5.64-24.38,5,5,0,0,0-10,.11,50.9,50.9,0,0,1-4.69,20c-4,8.46-10.17,14.39-18.35,17.61a5,5,0,0,1-6.78-5.39,124.6,124.6,0,0,0,.67-33,5,5,0,0,0-9.9,1.4,117.5,117.5,0,0,1-2.6,40,92,92,0,0,1-5.34,15.61,5,5,0,0,1-7.37,2.09C375.81,182.05,377,153,377,151.75a5,5,0,0,0-4.74-5.25,5,5,0,0,0-5.25,4.74,85.17,85.17,0,0,0,2.9,24.28c3.43,12.32,9.47,21.36,18,26.86a5,5,0,0,1,1,7.5,68.52,68.52,0,0,1-21.27,16.2,5,5,0,0,1-6.81-2.5c-24.78-57.65-25.16-105.1-25.16-105.57a5,5,0,1,0-10,0c0,2.07.31,51.38,27.24,112.43,15.33,34.76,22.84,65.22,23,93.11a5,5,0,0,1-9.54,2.14c-9.7-20.84-26.3-39.85-49.32-56.53l-.18-.14c-.37-.29-.73-.59-1.09-.89l-.61-.51a5,5,0,0,1-.36-7.41c9.81-9.8,14-23.29,12.43-40.1a93,93,0,0,0-7.68-28.6,5,5,0,0,0-9,4.34A83.29,83.29,0,0,1,317.3,221c1.29,13.86-2.09,24.8-10,32.52a5,5,0,0,1-3.64,1.41,5,5,0,0,1-3.55-1.64A119.47,119.47,0,0,1,271,196.07c-4.39-21.68-1.43-37.92-1.3-38.6a5,5,0,1,0-9.8-2c-.15.72-3.49,18,1.11,41.63,3.56,18.27,13.07,45.19,38.17,69.63l.16.15c2.08,2,4.35,4.08,6.75,6.15a5,5,0,0,1-2.41,8.72c-12.93,2.23-24.38.6-34-4.86-26-14.7-32.25-52.61-32.31-53a5,5,0,0,0-9.88,1.55c.27,1.74,7,43,37.17,60.09a56.23,56.23,0,0,0,28.13,7.24,85.08,85.08,0,0,0,27.73-5.14,5,5,0,0,1,5,1,136.79,136.79,0,0,1,25,28.91,5,5,0,0,1-3,7.51c-38.62,10-67-14.9-68.17-16a5,5,0,0,0-7.07.32,5,5,0,0,0,.32,7.06c.94.86,23.42,21,56.45,21a83.53,83.53,0,0,0,24.87-3.86,5,5,0,0,1,6.17,3,99.33,99.33,0,0,1,3,9.48c4.7,17.73,2.42,30.88,1.95,33.21-.41,3.31-4.77,34-26.76,55.72A5,5,0,0,1,334.79,436.5ZM287.12,302.57c4.77,3.85,24.36,18,50.76,14.23A130,130,0,0,0,320.93,298C309,301.86,297.65,303.39,287.12,302.57Zm38.55-39.5c16,11.94,28.9,25,38.68,39.14-2.85-20.67-9.65-43-20.55-67.75q-3.65-8.27-6.68-16.23l.09.94C338.83,236.58,334.85,251.63,325.67,263.07Zm53.79-20.57c7.34,19.59,12.14,37.77,14.6,55.26a73.21,73.21,0,0,0,10.17-4.17c-5.86-7.66-9.48-17.71-10.57-29.45a102.87,102.87,0,0,1,1.73-29.08,14.89,14.89,0,0,1,3.06-6.25A88,88,0,0,1,379.46,242.5Z"/><path class="cls-1" d="M271.91,72.89a33.33,33.33,0,0,1-15.77-4C245.36,63,239,52.19,239.54,40.55A30.35,30.35,0,0,1,250.39,19a32.06,32.06,0,0,1,24.43-7.42c19.06,2.27,29,19.2,27.55,34.26h0A29.21,29.21,0,0,1,290.25,67,31,31,0,0,1,271.91,72.89Zm-.79-51.54a22.16,22.16,0,0,0-14.27,5.27A20,20,0,0,0,249.53,41c-.36,7.88,3.88,15,11.36,19,6.06,3.27,15.42,4.68,23.47-1.18a19.1,19.1,0,0,0,8.06-14h0c1-10.28-5.79-21.84-18.78-23.39A21.3,21.3,0,0,0,271.12,21.35Z"/><path class="cls-1" d="M233.69,139.65a28.32,28.32,0,0,1-13.45-3.46c-9.22-5-14.66-14.24-14.19-24.21a26,26,0,0,1,9.27-18.46,27.44,27.44,0,0,1,20.88-6.33c16.29,1.94,24.77,16.41,23.55,29.28h0a25,25,0,0,1-10.38,18.09A26.57,26.57,0,0,1,233.69,139.65ZM233,97a17.48,17.48,0,0,0-11.24,4.15,15.71,15.71,0,0,0-5.75,11.3c-.29,6.18,3.05,11.76,8.94,14.94,4.79,2.58,12.16,3.69,18.5-.92a15,15,0,0,0,6.32-10.94h0A16.83,16.83,0,0,0,235,97.12,16.44,16.44,0,0,0,233,97Z"/><path class="cls-1" d="M471.53,386.91a23.12,23.12,0,0,1-11-2.82,21,21,0,0,1-4-35,22.43,22.43,0,0,1,17.09-5.18c13.35,1.59,20.29,13.44,19.29,24h0a20.5,20.5,0,0,1-8.53,14.86A21.75,21.75,0,0,1,471.53,386.91ZM471,353.73a12.48,12.48,0,0,0-8,3,11.13,11.13,0,0,0-4.08,8,11.39,11.39,0,0,0,6.38,10.59,12.39,12.39,0,0,0,13.21-.63,10.58,10.58,0,0,0,4.46-7.73h0a12,12,0,0,0-10.53-13.11A11.12,11.12,0,0,0,471,353.73Zm16.92,13.68h0Z"/><path class="cls-1" d="M99.53,91.91a23.12,23.12,0,0,1-11-2.82,21,21,0,0,1-4-35,22.43,22.43,0,0,1,17.09-5.18c13.35,1.59,20.29,13.44,19.29,24h0a20.5,20.5,0,0,1-8.53,14.86A21.75,21.75,0,0,1,99.53,91.91ZM99,58.73a12.48,12.48,0,0,0-8,3,11.13,11.13,0,0,0-4.08,8,11.39,11.39,0,0,0,6.38,10.59,12.39,12.39,0,0,0,13.21-.63A10.58,10.58,0,0,0,111,71.93h0a12,12,0,0,0-10.53-13.11A11.12,11.12,0,0,0,99,58.73Zm16.92,13.68h0Z"/><path class="cls-1" d="M212.59,204.65a23,23,0,0,1-11-2.82,20.95,20.95,0,0,1-4-34.91,22.38,22.38,0,0,1,17-5.17c13.32,1.59,20.24,13.41,19.24,23.92a20.48,20.48,0,0,1-8.5,14.82A21.72,21.72,0,0,1,212.59,204.65Zm-.51-33.05a12.41,12.41,0,0,0-8,3A11.08,11.08,0,0,0,200,182.5,11.34,11.34,0,0,0,206.37,193a12.33,12.33,0,0,0,13.15-.63,10.49,10.49,0,0,0,4.43-7.68h0a11.92,11.92,0,0,0-10.47-13A11.06,11.06,0,0,0,212.08,171.6Z"/><path class="cls-1" d="M203.77,414.43a3.62,3.62,0,0,1-.46,0,5,5,0,0,1-4.52-5.43L201,384.54a5,5,0,1,1,10,.92l-2.23,24.43A5,5,0,0,1,203.77,414.43Z"/></g><g id="Outline"><path class="cls-1" d="M430,478h-1a5,5,0,0,1,0-10h1a5,5,0,0,1,0,10Z"/><path class="cls-1" d="M399.08,478h-1a5,5,0,1,1,0-10h1a5,5,0,0,1,0,10Z"/><path class="cls-1" d="M461.08,478h-1a5,5,0,1,1,0-10h1a5,5,0,0,1,0,10Z"/><path class="cls-1" d="M306.33,451h-1a5,5,0,1,1,0-10h1a5,5,0,0,1,0,10Z"/><path class="cls-1" d="M289.33,479h-1a5,5,0,1,1,0-10h1a5,5,0,0,1,0,10Z"/><path class="cls-1" d="M258.42,479h-1a5,5,0,0,1,0-10h1a5,5,0,1,1,0,10Z"/><path class="cls-1" d="M213.58,451h-1a5,5,0,0,1,0-10h1a5,5,0,1,1,0,10Z"/><path class="cls-1" d="M183,462h-1a5,5,0,0,1,0-10h1a5,5,0,0,1,0,10Z"/><path class="cls-1" d="M152,470h-1a5,5,0,0,1,0-10h1a5,5,0,0,1,0,10Z"/><path class="cls-1" d="M120.83,437h-1a5,5,0,0,1,0-10h1a5,5,0,1,1,0,10Z"/><path class="cls-1" d="M89.92,451h-1a5,5,0,1,1,0-10h1a5,5,0,0,1,0,10Z"/><path class="cls-1" d="M72.92,485h-1a5,5,0,1,1,0-10h1a5,5,0,0,1,0,10Z"/><path class="cls-1" d="M59,451H58a5,5,0,0,1,0-10h1a5,5,0,0,1,0,10Z"/><path class="cls-1" d="M42,485H41a5,5,0,0,1,0-10h1a5,5,0,0,1,0,10Z"/></g></svg>