<?xml version="1.0" ?><svg viewBox="0 0 512 512" xmlns="http://www.w3.org/2000/svg"><defs><style>.cls-1{fill:#3f456b;}</style></defs><title/><g id="Lines"><path class="cls-1" d="M105,246a5,5,0,0,1-5-5V149a5,5,0,0,1,10,0v92A5,5,0,0,1,105,246Z"/><path class="cls-1" d="M496,480.67H18a5,5,0,0,1-5-5L12,306a5,5,0,0,1,5-5H40a5,5,0,0,1,4.91,4.07L68.14,428H443.86l23.23-122.93A5,5,0,0,1,472,301h24a5,5,0,0,1,5,5V475.67A5,5,0,0,1,496,480.67Zm-473-10H491V311H476.14L452.91,433.93A5,5,0,0,1,448,438H64a5,5,0,0,1-4.91-4.07L35.86,311H22Z"/><path class="cls-1" d="M68,502a5,5,0,0,1-5-5V476a5,5,0,0,1,10,0v21A5,5,0,0,1,68,502Z"/><path class="cls-1" d="M441,502a5,5,0,0,1-5-5V476a5,5,0,0,1,10,0v21A5,5,0,0,1,441,502Z"/><path class="cls-1" d="M86,391a5,5,0,0,1-.57-10c5-.58,8.44-2.44,10.59-5.7,4.53-6.88,2.4-18.86,1.2-22.89a5.29,5.29,0,0,1-.13-.54l-11-60c-.36-2-4.06-18.93-26.2-15-6.29,1.12-10.62,3.73-13.26,8-5.38,8.67-1.86,21.59-1.82,21.72a5,5,0,0,1-9.6,2.78c-.2-.69-4.87-17.22,2.93-29.78,4.16-6.69,10.88-10.91,20-12.53,10.38-1.86,19.11-.35,26,4.48,9.8,6.92,11.77,18.14,11.85,18.62l10.94,59.67c.72,2.53,5.07,19.42-2.49,30.94-3.81,5.82-9.8,9.24-17.8,10.18A5.83,5.83,0,0,1,86,391Z"/><path class="cls-1" d="M426,391a5.83,5.83,0,0,1-.59,0c-8-.94-14-4.36-17.8-10.18-7.56-11.52-3.21-28.41-2.49-30.94l10.95-59.75c.07-.4,2-11.62,11.84-18.54,6.85-4.83,15.58-6.33,26-4.48,9.11,1.62,15.83,5.84,20,12.53,7.8,12.56,3.13,29.09,2.93,29.78a5,5,0,0,1-9.61-2.77h0c0-.13,3.62-13-1.84-21.77-2.63-4.21-7-6.81-13.23-7.93-22.14-3.95-25.84,13-26.19,14.93l-11,60c0,.19-.08.37-.13.55-1.2,4-3.33,16,1.2,22.88,2.15,3.26,5.61,5.12,10.59,5.7a5,5,0,0,1-.57,10Z"/><path class="cls-1" d="M453.71,407a4.43,4.43,0,0,1-.88-.08,5,5,0,0,1-4.05-5.79c.51-2.88.14-5-1.12-6.54-2.41-2.89-7.75-3.57-9.61-3.59H75.9c-5,0-8.53,1.16-10.54,3.45a10,10,0,0,0-2.1,6.9,5,5,0,0,1-9.92,1.3,19.81,19.81,0,0,1,4.51-14.8c4-4.55,10.06-6.85,18.05-6.85H438.07c1.15,0,11.41.2,17.23,7.15,2.24,2.66,4.63,7.38,3.33,14.72A5,5,0,0,1,453.71,407Z"/><path class="cls-1" d="M64.5,276a5,5,0,0,1-5-4.75c0-.68-.73-16.87,9-27.14,5.13-5.38,12-8.11,20.46-8.11H424c.29,0,29,.4,29,35a5,5,0,0,1-10,0c0-10.6-3.25-18-9.65-22a20,20,0,0,0-9.35-3H89c-5.69,0-10,1.64-13.21,5-6.73,7.08-6.3,19.63-6.3,19.75A5,5,0,0,1,64.75,276Z"/><path class="cls-1" d="M400.1,245.38a5,5,0,0,1-4.72-3.35c-.66-1.88-15.92-46.71,6.37-98.72,10.18-23.73,29.27-36.55,43.5-43.12,17.06-7.9,36.22-10.91,51.24-8.07a5,5,0,0,1,1.63,9.2c-.17.11-18,10.9-35.79,33.19C446,155,426.22,189.63,425,238.6a5,5,0,1,1-10-.24c1.27-52,22.32-88.74,39.76-110.44a178,178,0,0,1,26.53-26.76c-24.58,1.23-57.32,15.66-70.37,46.1-20.78,48.46-6.28,91-6.13,91.46a5,5,0,0,1-3.06,6.37A4.84,4.84,0,0,1,400.1,245.38Z"/><path class="cls-1" d="M382.33,246a5,5,0,0,1-5-4.76c-3.48-73-58.74-97.4-59.3-97.64a5,5,0,0,1,1.73-9.59c19.26-.91,46.32,2.16,65.84,21.88,11.84,12,15.21,24.38,15.34,24.9a5,5,0,0,1-9.66,2.56h0c-.42-1.52-9.6-33.33-52.54-38.72a117.84,117.84,0,0,1,14.66,13.05c14.39,15.1,31.95,41.77,33.92,83.08a5,5,0,0,1-4.76,5.23Z"/><path class="cls-1" d="M434,248a5,5,0,0,1-4.94-5.84c4-23.31,18.86-42,43.08-54A119.06,119.06,0,0,1,486.93,182c-42.34-6.49-56.95,17.91-57.11,18.2a5,5,0,0,1-8.67-5c.24-.42,6-10.33,20.11-17.36,12.58-6.29,34.64-11.51,68.28-.66a5,5,0,0,1-.93,9.72,112.87,112.87,0,0,0-32.26,10.27c-21.4,10.69-34,26.38-37.42,46.61A5,5,0,0,1,434,248Z"/><path class="cls-1" d="M427,54H87a5,5,0,0,1-4.82-6.33l9-32.5A5,5,0,0,1,96,11.5H417.8a5,5,0,0,1,4.82,3.64l9.19,32.5A5,5,0,0,1,427,54ZM93.57,44H420.39L414,21.5H99.8Z"/><path class="cls-1" d="M427,87H87a5,5,0,0,1-4.82-6.33l9-32.5a5,5,0,0,1,9.64,2.66L93.57,77H420.39L413,50.86a5,5,0,0,1,9.63-2.72l9.19,32.5A5,5,0,0,1,427,87Z"/><path class="cls-1" d="M427,120H87a5,5,0,0,1-4.82-6.33l9-32.5a5,5,0,0,1,9.64,2.66L93.57,110H420.39L413,83.86a5,5,0,0,1,9.63-2.72l9.19,32.5A5,5,0,0,1,427,120Z"/><path class="cls-1" d="M405,153H369.58a5,5,0,1,1,0-10H405a5,5,0,0,1,0,10Z"/><path class="cls-1" d="M334.17,153H87a5,5,0,0,1-4.82-6.33l9-32.5a5,5,0,0,1,9.64,2.66L93.57,143h240.6a5,5,0,0,1,0,10Z"/></g><g id="Outline"><path class="cls-1" d="M255.92,246a5,5,0,0,1-5-5V148a5,5,0,0,1,10,0v93A5,5,0,0,1,255.92,246Z"/><path class="cls-1" d="M386.48,276h-1.21a5,5,0,0,1,0-10h1.21a5,5,0,0,1,0,10Z"/><path class="cls-1" d="M386.48,358h-1.21a5,5,0,0,1,0-10h1.21a5,5,0,0,1,0,10Z"/><path class="cls-1" d="M349.23,276H348a5,5,0,0,1,0-10h1.2a5,5,0,0,1,0,10Z"/><path class="cls-1" d="M368.51,317H367.3a5,5,0,1,1,0-10h1.21a5,5,0,0,1,0,10Z"/><path class="cls-1" d="M349.23,358H348a5,5,0,0,1,0-10h1.2a5,5,0,0,1,0,10Z"/><path class="cls-1" d="M312,276h-1.2a5,5,0,0,1,0-10H312a5,5,0,0,1,0,10Z"/><path class="cls-1" d="M331.26,317h-1.2a5,5,0,1,1,0-10h1.2a5,5,0,0,1,0,10Z"/><path class="cls-1" d="M312,358h-1.2a5,5,0,0,1,0-10H312a5,5,0,0,1,0,10Z"/><path class="cls-1" d="M274.74,276h-1.21a5,5,0,0,1,0-10h1.21a5,5,0,0,1,0,10Z"/><path class="cls-1" d="M294,317h-1.2a5,5,0,1,1,0-10H294a5,5,0,0,1,0,10Z"/><path class="cls-1" d="M274.74,358h-1.21a5,5,0,0,1,0-10h1.21a5,5,0,0,1,0,10Z"/><path class="cls-1" d="M237.49,276h-1.2a5,5,0,0,1,0-10h1.2a5,5,0,0,1,0,10Z"/><path class="cls-1" d="M256.77,317h-1.21a5,5,0,1,1,0-10h1.21a5,5,0,0,1,0,10Z"/><path class="cls-1" d="M237.49,358h-1.2a5,5,0,0,1,0-10h1.2a5,5,0,1,1,0,10Z"/><path class="cls-1" d="M200.25,276H199a5,5,0,0,1,0-10h1.21a5,5,0,0,1,0,10Z"/><path class="cls-1" d="M219.52,317h-1.2a5,5,0,1,1,0-10h1.2a5,5,0,0,1,0,10Z"/><path class="cls-1" d="M200.25,358H199a5,5,0,0,1,0-10h1.21a5,5,0,1,1,0,10Z"/><path class="cls-1" d="M163,276h-1.21a5,5,0,0,1,0-10H163a5,5,0,0,1,0,10Z"/><path class="cls-1" d="M182.27,317h-1.2a5,5,0,0,1,0-10h1.2a5,5,0,0,1,0,10Z"/><path class="cls-1" d="M163,358h-1.21a5,5,0,0,1,0-10H163a5,5,0,1,1,0,10Z"/><path class="cls-1" d="M125.75,276h-1.2a5,5,0,0,1,0-10h1.2a5,5,0,0,1,0,10Z"/><path class="cls-1" d="M145,317h-1.21a5,5,0,0,1,0-10H145a5,5,0,0,1,0,10Z"/><path class="cls-1" d="M125.75,358h-1.2a5,5,0,0,1,0-10h1.2a5,5,0,0,1,0,10Z"/></g></svg>