<?xml version="1.0" ?><svg viewBox="0 0 512 512" xmlns="http://www.w3.org/2000/svg"><defs><style>.cls-1{fill:#3f456b;}</style></defs><title/><g id="Lines"><path class="cls-1" d="M327.42,499H123.82C76.46,499,75,448.32,75,447.8v-198c0-57.3,38.28-85.2,56.67-98.61.94-.68,1.82-1.32,2.65-1.94,14.48-10.68,12.75-24.35,12.73-24.49a5.34,5.34,0,0,1-.05-.69V105a5,5,0,0,1,10,0v18.79c.29,3,1.14,20.3-16.74,33.5l-2.7,2C119.19,172.65,85,197.58,85,249.79V447.71A57.47,57.47,0,0,0,90.42,469c6.52,13.31,17.76,20.05,33.4,20.05h203.6c15.74,0,27-6.83,33.4-20.3A56.6,56.6,0,0,0,366,447.65V249.79c0-31.92-12.35-57.93-37.75-79.52a5,5,0,0,1,6.47-7.62C362.5,186.25,376,214.76,376,249.79V447.71C376,448.29,374.8,499,327.42,499Z"/><path class="cls-1" d="M331.58,171.46a5,5,0,0,1-3.24-1.19C323.08,165.8,318,162.1,314,159.13l-2.51-1.84c-17.84-13.16-16.79-30.42-16.44-33.54V105a5,5,0,0,1,10,0v19.06a5.12,5.12,0,0,1-.06.78c-.07.53-1.78,13.91,12.43,24.4l2.47,1.81c4.2,3.07,9.43,6.89,15,11.6a5,5,0,0,1-3.24,8.81Z"/><path class="cls-1" d="M295.42,110H147.74a14.76,14.76,0,0,1-13.32-7.72A19.72,19.72,0,0,1,132,95.14a4.58,4.58,0,0,1,0-.53V77.22C132,65.32,140.78,42,161.09,42H286.76c10,0,17.89,4.8,22.94,13.87,4.92,8.85,5.3,18.58,5.3,21.35V94.61a13.64,13.64,0,0,1-4.12,10C305.74,109.66,297.57,110,295.42,110ZM142,94.28c.24,1.56,1.29,5.72,5.74,5.72H295.27c1.53,0,6.46-.36,8.65-2.52A3.65,3.65,0,0,0,305,94.61V77.22a36.18,36.18,0,0,0-4-16.49c-3.27-5.87-7.91-8.73-14.2-8.73H161.09c-5.56,0-10.28,3-14,9A33.53,33.53,0,0,0,142,77.22Z"/><path class="cls-1" d="M280,417H80a5,5,0,0,1,0-10H275V251H80a5,5,0,0,1,0-10H280a5,5,0,0,1,5,5V412A5,5,0,0,1,280,417Z"/><path class="cls-1" d="M468.91,499H331a5,5,0,0,1,0-10H468.91c5.66,0,10.09-4.66,10.09-10.62V267a5,5,0,0,1,10,0V478.38C489,489.94,480.18,499,468.91,499Z"/><path class="cls-1" d="M488.26,271H372a5,5,0,0,1,0-10H488.26a2.74,2.74,0,0,0,2.74-2.74V211.74a2.74,2.74,0,0,0-2.74-2.74H362a5,5,0,0,1,0-10H488.26A12.76,12.76,0,0,1,501,211.74v46.52A12.76,12.76,0,0,1,488.26,271Z"/><path class="cls-1" d="M480,209a5,5,0,0,1-5-5V180.74a2.74,2.74,0,0,0-2.74-2.74H359.74a2.74,2.74,0,0,0-2.74,2.74V188a5,5,0,0,1-10,0v-7.26A12.76,12.76,0,0,1,359.74,168H472.26A12.76,12.76,0,0,1,485,180.74V204A5,5,0,0,1,480,209Z"/><path class="cls-1" d="M481,306H371a5,5,0,0,1,0-10H481a5,5,0,0,1,0,10Z"/><path class="cls-1" d="M481,461H370a5,5,0,0,1,0-10H481a5,5,0,0,1,0,10Z"/><path class="cls-1" d="M376,132a45,45,0,1,1,45-45A45.05,45.05,0,0,1,376,132Zm0-80a35,35,0,1,0,35,35A35,35,0,0,0,376,52Z"/><path class="cls-1" d="M448,178a5,5,0,0,1-5-5V46a25,25,0,0,0-25-25H221a25,25,0,0,0-25,25,5,5,0,0,1-10,0,35,35,0,0,1,35-35H418a35,35,0,0,1,35,35V173A5,5,0,0,1,448,178Z"/><path class="cls-1" d="M119,499H16a5,5,0,0,1-5-5V128a5,5,0,0,1,5-5H151a5,5,0,0,1,0,10H21V489h98a5,5,0,0,1,0,10Z"/><path class="cls-1" d="M80,341H16a5,5,0,0,1,0-10H80a5,5,0,0,1,0,10Z"/><path class="cls-1" d="M194.62,391H160.38a5,5,0,0,1-5-5V352.62H122a5,5,0,0,1-5-5V313.38a5,5,0,0,1,5-5h33.38V275a5,5,0,0,1,5-5h34.24a5,5,0,0,1,5,5v33.38H233a5,5,0,0,1,5,5v34.24a5,5,0,0,1-5,5H199.62V386A5,5,0,0,1,194.62,391Zm-29.24-10h24.24V347.62a5,5,0,0,1,5-5H228V318.38H194.62a5,5,0,0,1-5-5V280H165.38v33.38a5,5,0,0,1-5,5H127v24.24h33.38a5,5,0,0,1,5,5Z"/></g><g id="Outline"><path class="cls-1" d="M458,342H373a5,5,0,0,1,0-10h85a5,5,0,0,1,0,10Z"/><path class="cls-1" d="M458,370.3H373a5,5,0,0,1,0-10h85a5,5,0,0,1,0,10Z"/><path class="cls-1" d="M458,397.7H373a5,5,0,0,1,0-10h85a5,5,0,0,1,0,10Z"/><path class="cls-1" d="M458,426H373a5,5,0,0,1,0-10h85a5,5,0,0,1,0,10Z"/><path class="cls-1" d="M119,172H46a5,5,0,0,1,0-10h73a5,5,0,0,1,0,10Z"/><path class="cls-1" d="M93,202.75H46a5,5,0,0,1,0-10H93a5,5,0,0,1,0,10Z"/><path class="cls-1" d="M80,233.5H46a5,5,0,0,1,0-10H80a5,5,0,0,1,0,10Z"/><path class="cls-1" d="M80,264.25H46a5,5,0,0,1,0-10H80a5,5,0,0,1,0,10Z"/><path class="cls-1" d="M80,295H46a5,5,0,0,1,0-10H80a5,5,0,0,1,0,10Z"/><path class="cls-1" d="M224,110a5,5,0,0,1-5-5V84a5,5,0,0,1,10,0v21A5,5,0,0,1,224,110Z"/><path class="cls-1" d="M193,110a5,5,0,0,1-5-5V84a5,5,0,0,1,10,0v21A5,5,0,0,1,193,110Z"/><path class="cls-1" d="M162,110a5,5,0,0,1-5-5V84a5,5,0,0,1,10,0v21A5,5,0,0,1,162,110Z"/><path class="cls-1" d="M286,110a5,5,0,0,1-5-5V84a5,5,0,0,1,10,0v21A5,5,0,0,1,286,110Z"/><path class="cls-1" d="M255,110a5,5,0,0,1-5-5V84a5,5,0,0,1,10,0v21A5,5,0,0,1,255,110Z"/><path class="cls-1" d="M343,251a5,5,0,0,1-5-5c0-37.75-40.32-64.55-40.73-64.81a5,5,0,0,1,5.46-8.38,123.53,123.53,0,0,1,22.51,20C340.13,209.6,348,228,348,246A5,5,0,0,1,343,251Z"/></g></svg>