<?xml version="1.0" ?><svg viewBox="0 0 512 512" xmlns="http://www.w3.org/2000/svg"><defs><style>.cls-1{fill:#3f456b;}</style></defs><title/><g id="Lines"><path class="cls-1" d="M117.79,501.44H93a25.61,25.61,0,0,1-25.63-25.53V448.22a5,5,0,0,1,10,0v27.69A15.59,15.59,0,0,0,93,491.44h24.77a15.59,15.59,0,0,0,15.63-15.53V448.22a5,5,0,0,1,10,0v27.69A25.61,25.61,0,0,1,117.79,501.44Z"/><path class="cls-1" d="M418.3,501.44H393.54c-14.13,0-25.63-11.76-25.63-26.23v-27a5,5,0,0,1,10,0v27c0,9,7,16.23,15.63,16.23H418.3c8.62,0,15.64-7.28,15.64-16.23v-27a5,5,0,0,1,10,0v27C443.94,489.68,432.44,501.44,418.3,501.44Z"/><path class="cls-1" d="M463.61,403.63a5,5,0,0,1-5-5V151.76c0-1.71-1.28-43.51-46.61-43.51H104c-20.47,0-35,7.31-43.25,21.73a50.64,50.64,0,0,0-6.43,21.85v246.8a5,5,0,0,1-10,0V151.76A60.66,60.66,0,0,1,52.07,125C59,112.81,73.71,98.25,104,98.25H412c55.3,0,56.6,52.91,56.61,53.44V398.63A5,5,0,0,1,463.61,403.63Z"/><path class="cls-1" d="M463,155.81H50a5,5,0,0,1,0-10H463a5,5,0,0,1,0,10Z"/><path class="cls-1" d="M463,277.63H50a5,5,0,0,1,0-10H463a5,5,0,0,1,0,10Z"/><path class="cls-1" d="M332,404.06a5,5,0,0,1-5-5V312.63c0-2.48-3-5-6-5H190a5,5,0,0,0-5,5v86.43a5,5,0,0,1-10,0V312.63a15,15,0,0,1,15-15H321c8.52,0,16,7,16,15v86.43A5,5,0,0,1,332,404.06Z"/><path class="cls-1" d="M256,277.63a5,5,0,0,1-5-5V150.81a5,5,0,0,1,10,0V272.63A5,5,0,0,1,256,277.63Z"/><path class="cls-1" d="M193,449.63a5,5,0,0,1-5-5V401a5,5,0,0,1,10,0v43.63A5,5,0,0,1,193,449.63Z"/><path class="cls-1" d="M321,449.63a5,5,0,0,1-5-5V401a5,5,0,0,1,10,0v43.63A5,5,0,0,1,321,449.63Z"/><path class="cls-1" d="M23.5,238.63A14.52,14.52,0,0,1,9,224.13V184.31a14.5,14.5,0,0,1,29,0v39.82A14.52,14.52,0,0,1,23.5,238.63Zm0-58.82a4.51,4.51,0,0,0-4.5,4.5v39.82a4.5,4.5,0,0,0,9,0V184.31A4.51,4.51,0,0,0,23.5,179.81Z"/><path class="cls-1" d="M24,179.81a5,5,0,0,1-5-4.51c0-.48-1.08-12,6.73-20.6,5.34-5.9,13.27-8.89,23.57-8.89a5,5,0,0,1,0,10c-7.35,0-12.79,1.89-16.16,5.61-4.79,5.27-4.19,12.83-4.18,12.9a5,5,0,0,1-4.49,5.47A4.18,4.18,0,0,1,24,179.81Z"/><path class="cls-1" d="M489.5,238.63a14.52,14.52,0,0,1-14.5-14.5V184.31a14.5,14.5,0,1,1,29,0v39.82A14.52,14.52,0,0,1,489.5,238.63Zm0-58.82a4.51,4.51,0,0,0-4.5,4.5v39.82a4.5,4.5,0,0,0,9,0V184.31A4.51,4.51,0,0,0,489.5,179.81Z"/><path class="cls-1" d="M489,179.81a4.18,4.18,0,0,1-.5,0,5,5,0,0,1-4.49-5.44c0-.16.58-7.76-4.23-13-3.38-3.67-8.8-5.54-16.11-5.54a5,5,0,0,1,0-10c10.3,0,18.23,3,23.57,8.89,7.81,8.61,6.77,20.12,6.73,20.6A5,5,0,0,1,489,179.81Z"/><path class="cls-1" d="M470,453.22H42a15,15,0,0,1-15-15V409.5a15,15,0,0,1,15-15H470a15,15,0,0,1,15,15v28.72A15,15,0,0,1,470,453.22ZM42,404.5a5,5,0,0,0-5,5v28.72a5,5,0,0,0,5,5H470a5,5,0,0,0,5-5V409.5a5,5,0,0,0-5-5Z"/><path class="cls-1" d="M429.25,340.5H369.93a15,15,0,0,1-15-15v-13a15,15,0,0,1,15-15h59.32a15,15,0,0,1,15,15v13A15,15,0,0,1,429.25,340.5Zm-59.32-33a5,5,0,0,0-5,5v13a5,5,0,0,0,5,5h59.32a5,5,0,0,0,5-5v-13a5,5,0,0,0-5-5Z"/><path class="cls-1" d="M415.25,385.25H383.93a15,15,0,0,1-15-15V364a15,15,0,0,1,15-15h31.32a15,15,0,0,1,15,15v6.25A15,15,0,0,1,415.25,385.25ZM383.93,359a5,5,0,0,0-5,5v6.25a5,5,0,0,0,5,5h31.32a5,5,0,0,0,5-5V364a5,5,0,0,0-5-5Z"/><path class="cls-1" d="M143.16,340.5H83.84a15,15,0,0,1-15-15v-13a15,15,0,0,1,15-15h59.32a15,15,0,0,1,15,15v13A15,15,0,0,1,143.16,340.5Zm-59.32-33a5,5,0,0,0-5,5v13a5,5,0,0,0,5,5h59.32a5,5,0,0,0,5-5v-13a5,5,0,0,0-5-5Z"/><path class="cls-1" d="M129.16,385.25H97.84a15,15,0,0,1-15-15V364a15,15,0,0,1,15-15h31.32a15,15,0,0,1,15,15v6.25A15,15,0,0,1,129.16,385.25ZM97.84,359a5,5,0,0,0-5,5v6.25a5,5,0,0,0,5,5h31.32a5,5,0,0,0,5-5V364a5,5,0,0,0-5-5Z"/><path class="cls-1" d="M489.5,274.79a17.17,17.17,0,1,1,17.17-17.16A17.18,17.18,0,0,1,489.5,274.79Zm0-24.33a7.17,7.17,0,1,0,7.17,7.17A7.18,7.18,0,0,0,489.5,250.46Z"/><path class="cls-1" d="M489.5,250.46a5,5,0,0,1-5-5V233.63a5,5,0,0,1,10,0v11.83A5,5,0,0,1,489.5,250.46Z"/><path class="cls-1" d="M481,292.63H464a5,5,0,0,1,0-10h17a2.68,2.68,0,0,0,2.36-.89c2-2.38,1.67-8.59,1.22-11.05a5,5,0,1,1,9.84-1.79c.23,1.27,2.11,12.66-3.38,19.25A12.63,12.63,0,0,1,481,292.63Z"/><path class="cls-1" d="M23.82,274.79A17.17,17.17,0,1,1,41,257.63,17.18,17.18,0,0,1,23.82,274.79Zm0-24.33A7.17,7.17,0,1,0,31,257.63,7.18,7.18,0,0,0,23.82,250.46Z"/><path class="cls-1" d="M23.82,250.46a5,5,0,0,1-5-5V233.63a5,5,0,0,1,10,0v11.83A5,5,0,0,1,23.82,250.46Z"/><path class="cls-1" d="M49.32,292.63h-17a12.63,12.63,0,0,1-10-4.48c-5.49-6.59-3.61-18-3.38-19.25a5,5,0,1,1,9.84,1.78c-.57,3.2-.57,8.93,1.22,11.07a2.73,2.73,0,0,0,2.36.88h17a5,5,0,0,1,0,10Z"/><path class="cls-1" d="M416.5,62.92H96.5a5,5,0,0,1-5-5V37.08a5,5,0,0,1,5-5h320a5,5,0,0,1,5,5V57.92A5,5,0,0,1,416.5,62.92Zm-315-10h310V42.08h-310Z"/><path class="cls-1" d="M143,62.92a5,5,0,0,1-5-5V37.08a5,5,0,1,1,10,0V57.92A5,5,0,0,1,143,62.92Z"/><path class="cls-1" d="M370.5,62.92a5,5,0,0,1-5-5V37.08a5,5,0,1,1,10,0V57.92A5,5,0,0,1,370.5,62.92Z"/><path class="cls-1" d="M325,62.92a5,5,0,0,1-5-5V37.08a5,5,0,1,1,10,0V57.92A5,5,0,0,1,325,62.92Z"/><path class="cls-1" d="M279.5,62.92a5,5,0,0,1-5-5V37.08a5,5,0,1,1,10,0V57.92A5,5,0,0,1,279.5,62.92Z"/><path class="cls-1" d="M234,62.92a5,5,0,0,1-5-5V37.08a5,5,0,1,1,10,0V57.92A5,5,0,0,1,234,62.92Z"/><path class="cls-1" d="M188.5,62.92a5,5,0,0,1-5-5V37.08a5,5,0,1,1,10,0V57.92A5,5,0,0,1,188.5,62.92Z"/><path class="cls-1" d="M128,84.07a5,5,0,0,1-5-5v-21a5,5,0,1,1,10,0v21A5,5,0,0,1,128,84.07Z"/><path class="cls-1" d="M385,84.07a5,5,0,0,1-5-5V57.92a5,5,0,0,1,10,0V79.07A5,5,0,0,1,385,84.07Z"/><path class="cls-1" d="M385,42.08a5,5,0,0,1-5-5V35.5a15,15,0,0,0-15-15H148a15,15,0,0,0-15,15V37a5,5,0,0,1-10,0V35.5a25,25,0,0,1,25-25H365a25,25,0,0,1,25,25v1.58A5,5,0,0,1,385,42.08Z"/><path class="cls-1" d="M192,107.33a5,5,0,0,1-5-5V94.5a10,10,0,0,0-10-10H111.5a10,10,0,0,0-10,10v7.83a5,5,0,0,1-10,0V94.5a20,20,0,0,1,20-20H177a20,20,0,0,1,20,20v7.83A5,5,0,0,1,192,107.33Z"/><path class="cls-1" d="M416.25,107.33a5,5,0,0,1-5-5V94.5a10,10,0,0,0-10-10h-65.5a10,10,0,0,0-10,10v7.83a5,5,0,0,1-10,0V94.5a20,20,0,0,1,20-20h65.5a20,20,0,0,1,20,20v7.83A5,5,0,0,1,416.25,107.33Z"/><path class="cls-1" d="M302.75,107.76a5,5,0,0,1-2.16-.49l-93.5-44.68a5,5,0,0,1,4.32-9l93.5,44.68a5,5,0,0,1-2.16,9.51Z"/><path class="cls-1" d="M209.25,107.76a5,5,0,0,1-2.16-9.51l93.5-44.68a5,5,0,0,1,4.32,9l-93.5,44.68A5,5,0,0,1,209.25,107.76Z"/></g><g id="Outline"><path class="cls-1" d="M187.72,428.86H34a5,5,0,0,1,0-10H187.72a5,5,0,1,1,0,10Z"/><path class="cls-1" d="M480,428.86H326.28a5,5,0,0,1,0-10H480a5,5,0,0,1,0,10Z"/><path class="cls-1" d="M73.18,467.09a5,5,0,0,1,0-10H90.54a5,5,0,1,1,0,10Z"/><path class="cls-1" d="M73,483.91a5,5,0,1,1,0-10H90.78a5,5,0,0,1,0,10Z"/><path class="cls-1" d="M120.18,467.09a5,5,0,0,1,0-10h17.36a5,5,0,1,1,0,10Z"/><path class="cls-1" d="M120,483.91a5,5,0,1,1,0-10h17.82a5,5,0,1,1,0,10Z"/><path class="cls-1" d="M374,467.07a5,5,0,0,1,0-10h16.95a5,5,0,0,1,0,10Z"/><path class="cls-1" d="M373.73,483.89a5,5,0,1,1,0-10h17.4a5,5,0,0,1,0,10Z"/><path class="cls-1" d="M420.82,467.07a5,5,0,1,1,0-10h16.95a5,5,0,0,1,0,10H420.82Z"/><path class="cls-1" d="M420.61,483.89a5,5,0,0,1,0-10H438a5,5,0,0,1,0,10Z"/><path class="cls-1" d="M293.62,423.86a5,5,0,0,1,5-5h0a5,5,0,0,1,5,5h0a5,5,0,0,1-5,5h0A5,5,0,0,1,293.62,423.86Zm-20,0a5,5,0,0,1,5-5h0a5,5,0,0,1,5,5h0a5,5,0,0,1-5,5h0A5,5,0,0,1,273.62,423.86Zm-20,0a5,5,0,0,1,5-5h0a5,5,0,0,1,5,5h0a5,5,0,0,1-5,5h0A5,5,0,0,1,253.62,423.86Zm-20,0a5,5,0,0,1,5-5h0a5,5,0,0,1,5,5h0a5,5,0,0,1-5,5h0A5,5,0,0,1,233.62,423.86Zm-20,0a5,5,0,0,1,5-5h0a5,5,0,0,1,5,5h0a5,5,0,0,1-5,5h0A5,5,0,0,1,213.62,423.86Z"/><path class="cls-1" d="M332,329.63H180a5,5,0,0,1,0-10H332a5,5,0,0,1,0,10Z"/><path class="cls-1" d="M332,367.38H180a5,5,0,0,1,0-10H332a5,5,0,0,1,0,10Z"/><path class="cls-1" d="M332,386.25H180a5,5,0,0,1,0-10H332a5,5,0,0,1,0,10Z"/><path class="cls-1" d="M332,348.5H180a5,5,0,0,1,0-10H332a5,5,0,0,1,0,10Z"/></g></svg>