<?xml version="1.0" ?><svg id="Lines" viewBox="0 0 512 512" xmlns="http://www.w3.org/2000/svg"><defs><style>.cls-1{fill:#3f456b;}</style></defs><title/><path class="cls-1" d="M173,364a5,5,0,0,1,5-5h0a5,5,0,0,1,5,5h0a5,5,0,0,1-5,5h0A5,5,0,0,1,173,364Z"/><path class="cls-1" d="M330,364a5,5,0,0,1,5-5h0a5,5,0,0,1,5,5h0a5,5,0,0,1-5,5h0A5,5,0,0,1,330,364Z"/><path class="cls-1" d="M447,430H65c-52.66,0-54-53.06-54-53.6v-54c0-1.4,0-10.15,5.81-16.15A18,18,0,0,1,30.13,301H481.87a18,18,0,0,1,13.32,5.26c5.8,6,5.84,14.74,5.81,16.14v53.93C501,376.94,499.65,430,447,430ZM30.13,311A8,8,0,0,0,24,313.21c-3.06,3.16-3,8.9-3,9v54.16a57,57,0,0,0,6,22.35C34.32,412.83,47.11,420,65,420H447c17.89,0,30.68-7.17,38-21.32a56.9,56.9,0,0,0,6-22.43V322.17c0-1.58-.44-6.34-3-9a8.1,8.1,0,0,0-6.11-2.18Z"/><path class="cls-1" d="M463,311a5,5,0,0,1-5-5V284c0-2.76-1.87-5-4.16-5H59.16c-2.3,0-4.16,2.24-4.16,5v22a5,5,0,0,1-10,0V284c0-8.27,6.35-15,14.16-15H453.84c7.81,0,14.16,6.73,14.16,15v22A5,5,0,0,1,463,311Z"/><path class="cls-1" d="M105.65,478.5c-13.85,0-24.77-4.34-32.44-12.9-14.08-15.72-11.61-39.8-11.49-40.81a5,5,0,0,1,9.94,1.08c0,.33-2,20.78,9,33.09,5.69,6.33,14.08,9.54,25,9.54s19.22-3.21,24.94-9.54c11.24-12.45,9.28-33.24,9.26-33.45a5,5,0,0,1,9.94-1c.11,1,2.49,25.34-11.74,41.14C130.35,474.17,119.45,478.5,105.65,478.5Z"/><path class="cls-1" d="M408.65,478.5c-13.85,0-24.77-4.34-32.44-12.9-14.08-15.72-11.61-39.8-11.49-40.81a5,5,0,1,1,9.94,1.08h0c0,.21-2.07,20.75,9,33.09,5.69,6.33,14.08,9.54,24.95,9.54s19.22-3.21,24.94-9.54c11.24-12.45,9.28-33.24,9.26-33.45a5,5,0,0,1,9.94-1c.11,1,2.49,25.34-11.74,41.14C433.35,474.17,422.45,478.5,408.65,478.5Z"/><path class="cls-1" d="M178,279a5,5,0,0,1-5-5V159a5,5,0,0,0-5-5H74a5,5,0,0,0-5,5V274a5,5,0,0,1-10,0V159a15,15,0,0,1,15-15h94a15,15,0,0,1,15,15V274A5,5,0,0,1,178,279Z"/><path class="cls-1" d="M449,279a5,5,0,0,1-5-5V159a5,5,0,0,0-5-5H345a5,5,0,0,0-5,5V274a5,5,0,0,1-10,0V159a15,15,0,0,1,15-15h94a15,15,0,0,1,15,15V274A5,5,0,0,1,449,279Z"/><path class="cls-1" d="M313,279a5,5,0,0,1-5-5V159c0-2.48-1.55-5-4.5-5h-94c-2.88,0-5.5,2.38-5.5,5V274a5,5,0,0,1-10,0V159c0-8.13,7.1-15,15.5-15h94c8.13,0,14.5,6.59,14.5,15V274A5,5,0,0,1,313,279Z"/><path class="cls-1" d="M256.41,405.1a41.31,41.31,0,1,1,41.3-41.31A41.35,41.35,0,0,1,256.41,405.1Zm0-72.62a31.31,31.31,0,1,0,31.3,31.31A31.34,31.34,0,0,0,256.41,332.48Z"/><path class="cls-1" d="M35.14,311a21.37,21.37,0,0,1-14.23-5.41C15.66,300.86,13,293.55,13,283.89v-74.5c-.18-3.65-1.88-52.69,32.2-88.72C68.22,96.34,101.91,84,145.33,84h48.56a62.6,62.6,0,0,1,8.75-21.48c7.74-11.87,23.37-26,53.86-26s46.12,14.15,53.86,26A62.6,62.6,0,0,1,319.11,84h48.63c43.42,0,77.1,12.34,100.11,36.67,34,36,32.33,85.05,32.15,88.72v74.5c0,9.69-2.66,17-7.91,21.78A21.23,21.23,0,0,1,476.65,311a5,5,0,1,1,1-10,11.22,11.22,0,0,0,7.83-2.84c3-2.8,4.54-7.61,4.54-14.29V209.26a2.72,2.72,0,0,1,0-.28c0-.47,2.2-48.06-29.5-81.51C439.47,105.26,408.25,94,367.74,94H314.83a5,5,0,0,1-5-4.62c-.14-1.73-4.12-42.88-53.35-42.88C235.62,46.5,220.31,53.73,211,68a51.08,51.08,0,0,0-7.86,21.4,5,5,0,0,1-5,4.62H145.33c-40.56,0-71.81,11.29-92.87,33.55C20.73,161.09,23,208.51,23,209a2.44,2.44,0,0,1,0,.27v74.63c0,6.72,1.56,11.54,4.63,14.33a11.59,11.59,0,0,0,7.89,2.8,5,5,0,1,1,1,10C36.3,311,35.83,311,35.14,311Z"/><path class="cls-1" d="M177,181H64a5,5,0,0,1,0-10H177a5,5,0,0,1,0,10Z"/><path class="cls-1" d="M313,181H200a5,5,0,0,1,0-10H313a5,5,0,0,1,0,10Z"/><path class="cls-1" d="M449,181H336a5,5,0,0,1,0-10H449a5,5,0,0,1,0,10Z"/></svg>