<?xml version="1.0" ?><svg enable-background="new 0 0 512 512" version="1.1" viewBox="0 0 512 512" xml:space="preserve" xmlns="http://www.w3.org/2000/svg" xmlns:xlink="http://www.w3.org/1999/xlink"><g id="Colors"><g><g><g><path d="M462.5,292.94c2.7,0.57,4.44,3.21,3.87,5.92l0,0l0,0l0,0c-0.56,2.7-3.21,4.44-5.91,3.87l0,0      c-2.71-0.56-4.44-3.21-3.88-5.91l0,0c0.49-2.36,2.57-3.98,4.89-3.98l0,0C461.81,292.84,462.15,292.87,462.5,292.94z       M457.95,312.41c2.64,0.82,4.11,3.62,3.29,6.26l0,0c-0.82,2.64-3.62,4.11-6.26,3.29l0,0c-2.63-0.82-4.11-3.62-3.29-6.26l0,0      c0.67-2.14,2.64-3.52,4.78-3.52l0,0C456.96,312.18,457.46,312.26,457.95,312.41z M451.55,331.35c2.55,1.08,3.74,4.01,2.67,6.55      l0,0l0,0l0,0c-1.07,2.55-4,3.74-6.54,2.67l0,0c-2.55-1.07-3.75-4-2.68-6.55v0.01c0.81-1.92,2.66-3.07,4.62-3.07l0,0      C450.26,330.96,450.92,331.09,451.55,331.35z M443.36,349.59c2.43,1.31,3.34,4.35,2.03,6.78l0,0c-1.31,2.43-4.34,3.34-6.77,2.03      l0,0c-2.43-1.31-3.34-4.35-2.03-6.78l0,0c0.9-1.67,2.62-2.63,4.4-2.63l0,0C441.79,348.99,442.61,349.19,443.36,349.59z       M433.46,366.96c2.29,1.54,2.91,4.65,1.37,6.94l0,0c-1.53,2.3-4.64,2.91-6.93,1.38l0,0c-2.3-1.54-2.91-4.65-1.38-6.94l0,0      c0.97-1.44,2.55-2.22,4.16-2.22l0,0C431.64,366.12,432.6,366.39,433.46,366.96z M421.94,383.31c2.14,1.75,2.46,4.9,0.71,7.04      l0,0l0,0l0,0c-1.75,2.13-4.9,2.45-7.04,0.7l0,0c-2.13-1.74-2.45-4.89-0.7-7.03l0,0c0.99-1.21,2.42-1.84,3.87-1.84l0,0      C419.89,382.18,421.01,382.55,421.94,383.31z M408.92,398.49c1.97,1.94,1.98,5.1,0.04,7.07l0,0c-1.94,1.96-5.11,1.98-7.07,0.03      l0,0c-1.96-1.94-1.98-5.1-0.04-7.07l0,0c0.98-0.98,2.27-1.48,3.56-1.48l0,0C406.68,397.04,407.95,397.52,408.92,398.49z       M394.52,412.36c1.77,2.12,1.49,5.27-0.63,7.04l0,0c-2.12,1.77-5.27,1.49-7.04-0.63l0,0c-1.77-2.12-1.49-5.28,0.63-7.05l0,0      c0.94-0.78,2.07-1.16,3.2-1.16l0,0C392.11,410.56,393.54,411.17,394.52,412.36z M378.87,424.8c1.56,2.28,0.98,5.39-1.3,6.95l0,0      c-2.28,1.56-5.39,0.98-6.95-1.3l0,0c-1.56-2.28-0.98-5.39,1.3-6.95l0,0c0.86-0.59,1.85-0.88,2.82-0.88l0,0      C376.33,422.62,377.9,423.38,378.87,424.8z M362.1,435.69c1.34,2.42,0.46,5.46-1.96,6.8l0,0c-2.41,1.33-5.46,0.45-6.79-1.96l0,0      c-1.33-2.42-0.46-5.46,1.96-6.8l0,0c0.77-0.42,1.59-0.62,2.41-0.62l0,0C359.48,433.11,361.19,434.04,362.1,435.69z       M344.37,444.93c1.1,2.54-0.06,5.48-2.6,6.58l0,0c-2.53,1.09-5.48-0.07-6.57-2.61l0,0c-1.1-2.53,0.06-5.47,2.6-6.57l0,0      c0.65-0.28,1.32-0.41,1.98-0.41l0,0C341.72,441.92,343.56,443.04,344.37,444.93z M325.84,452.43c0.85,2.62-0.6,5.44-3.22,6.29      l0,0c-2.63,0.85-5.45-0.6-6.3-3.22l0,0c-0.84-2.63,0.6-5.45,3.23-6.3l0,0c0.51-0.16,1.03-0.24,1.53-0.24l0,0      C323.2,448.96,325.16,450.31,325.84,452.43z M306.67,458.1c0.59,2.7-1.12,5.36-3.81,5.95l0,0c-2.7,0.6-5.36-1.11-5.96-3.81l0,0      c-0.59-2.7,1.12-5.36,3.82-5.95l0,0c0.36-0.08,0.72-0.12,1.07-0.12l0,0C304.09,454.17,306.16,455.76,306.67,458.1z" fill="#384169"/></g></g></g><g><g><g><path d="M51.4,292.84L51.4,292.84c2.32,0,4.4,1.62,4.89,3.98l0,0c0.56,2.7-1.17,5.35-3.88,5.91l0,0      c-2.7,0.57-5.35-1.17-5.91-3.87l0,0l0,0l0,0c-0.57-2.71,1.17-5.35,3.87-5.92C50.72,292.87,51.06,292.84,51.4,292.84z       M56.4,312.18L56.4,312.18c2.14,0,4.11,1.38,4.78,3.52l0,0c0.82,2.64-0.66,5.44-3.29,6.26l0,0c-2.64,0.82-5.44-0.65-6.26-3.29      l0,0c-0.82-2.64,0.65-5.44,3.29-6.26C55.41,312.26,55.91,312.18,56.4,312.18z M63.25,330.96L63.25,330.96      c1.96,0,3.81,1.15,4.62,3.07v-0.01c1.07,2.55-0.13,5.48-2.68,6.55l0,0c-2.54,1.07-5.47-0.12-6.54-2.67l0,0l0,0l0,0      c-1.07-2.54,0.12-5.47,2.67-6.55C61.95,331.09,62.61,330.96,63.25,330.96z M71.88,348.99L71.88,348.99c1.78,0,3.5,0.96,4.4,2.63      l0,0c1.31,2.43,0.4,5.47-2.03,6.78l0,0c-2.43,1.31-5.46,0.4-6.77-2.03l0,0c-1.31-2.43-0.4-5.47,2.03-6.78      C70.26,349.19,71.08,348.99,71.88,348.99z M82.19,366.12L82.19,366.12c1.61,0,3.19,0.78,4.16,2.22l0,0      c1.53,2.29,0.92,5.4-1.38,6.94l0,0c-2.29,1.53-5.4,0.92-6.93-1.38l0,0c-1.54-2.29-0.92-5.4,1.37-6.94      C80.27,366.39,81.23,366.12,82.19,366.12z M94.09,382.18L94.09,382.18c1.45,0,2.88,0.63,3.87,1.84l0,0      c1.75,2.14,1.43,5.29-0.7,7.03l0,0c-2.14,1.75-5.29,1.43-7.04-0.7l0,0l0,0l0,0c-1.75-2.14-1.43-5.29,0.71-7.04      C91.86,382.55,92.98,382.18,94.09,382.18z M107.46,397.04L107.46,397.04c1.29,0,2.58,0.5,3.56,1.48l0,0      c1.94,1.97,1.92,5.13-0.04,7.07l0,0c-1.96,1.95-5.13,1.93-7.07-0.03l0,0c-1.94-1.97-1.93-5.13,0.04-7.07      C104.92,397.52,106.19,397.04,107.46,397.04z M122.19,410.56L122.19,410.56c1.13,0,2.26,0.38,3.2,1.16l0,0      c2.12,1.77,2.4,4.93,0.63,7.05l0,0c-1.77,2.12-4.92,2.4-7.04,0.63l0,0c-2.12-1.77-2.4-4.92-0.63-7.04      C119.33,411.17,120.76,410.56,122.19,410.56z M138.13,422.62L138.13,422.62c0.97,0,1.96,0.29,2.82,0.88l0,0      c2.28,1.56,2.86,4.67,1.3,6.95l0,0c-1.56,2.28-4.67,2.86-6.95,1.3l0,0c-2.28-1.56-2.86-4.67-1.3-6.95      C134.97,423.38,136.54,422.62,138.13,422.62z M155.15,433.11L155.15,433.11c0.82,0,1.64,0.2,2.41,0.62l0,0      c2.42,1.34,3.29,4.38,1.96,6.8l0,0c-1.33,2.41-4.38,3.29-6.79,1.96l0,0c-2.42-1.34-3.3-4.38-1.96-6.8      C151.68,434.04,153.39,433.11,155.15,433.11z M173.09,441.92L173.09,441.92c0.66,0,1.33,0.13,1.98,0.41l0,0      c2.54,1.1,3.7,4.04,2.6,6.57l0,0c-1.09,2.54-4.04,3.7-6.57,2.61l0,0c-2.54-1.1-3.7-4.04-2.6-6.58      C169.31,443.04,171.15,441.92,173.09,441.92z M191.79,448.96L191.79,448.96c0.5,0,1.02,0.08,1.53,0.24l0,0      c2.63,0.85,4.07,3.67,3.23,6.3l0,0c-0.85,2.62-3.67,4.07-6.3,3.22l0,0c-2.62-0.85-4.07-3.67-3.22-6.29      C187.71,450.31,189.67,448.96,191.79,448.96z M211.08,454.17L211.08,454.17c0.35,0,0.71,0.04,1.07,0.12l0,0      c2.7,0.59,4.41,3.25,3.82,5.95l0,0c-0.6,2.7-3.26,4.41-5.96,3.81l0,0c-2.69-0.59-4.4-3.25-3.81-5.95      C206.71,455.76,208.78,454.17,211.08,454.17z" fill="#384169"/></g></g></g><g><g><g><path d="M50.37,215.07c-2.7-0.57-4.44-3.21-3.87-5.92l0,0l0,0l0,0c0.56-2.7,3.21-4.44,5.91-3.87l0,0      c2.71,0.56,4.44,3.21,3.88,5.91l0,0c-0.49,2.36-2.57,3.98-4.89,3.98l0,0C51.06,215.17,50.72,215.14,50.37,215.07z M54.92,195.6      c-2.64-0.82-4.11-3.62-3.29-6.26l0,0c0.82-2.64,3.62-4.11,6.26-3.29l0,0c2.63,0.82,4.11,3.62,3.29,6.26l0,0      c-0.67,2.14-2.64,3.52-4.78,3.52l0,0C55.91,195.83,55.41,195.75,54.92,195.6z M61.32,176.66c-2.55-1.08-3.74-4.01-2.67-6.55l0,0      l0,0l0,0c1.07-2.55,4-3.74,6.54-2.67l0,0c2.55,1.07,3.75,4,2.68,6.55v-0.01c-0.81,1.92-2.66,3.07-4.62,3.07l0,0      C62.61,177.05,61.95,176.92,61.32,176.66z M69.51,158.42c-2.43-1.31-3.34-4.35-2.03-6.78l0,0c1.31-2.43,4.34-3.34,6.77-2.03l0,0      c2.43,1.31,3.34,4.35,2.03,6.78l0,0c-0.9,1.67-2.62,2.63-4.4,2.63l0,0C71.08,159.02,70.26,158.82,69.51,158.42z M79.41,141.05      c-2.29-1.54-2.91-4.65-1.37-6.94l0,0c1.53-2.3,4.64-2.91,6.93-1.38l0,0c2.3,1.54,2.91,4.65,1.38,6.94l0,0      c-0.97,1.44-2.55,2.22-4.16,2.22l0,0C81.23,141.89,80.27,141.62,79.41,141.05z M90.93,124.7c-2.14-1.75-2.46-4.9-0.71-7.04l0,0      l0,0l0,0c1.75-2.13,4.9-2.45,7.04-0.7l0,0c2.13,1.74,2.45,4.89,0.7,7.03l0,0c-0.99,1.21-2.42,1.84-3.87,1.84l0,0      C92.98,125.83,91.86,125.46,90.93,124.7z M103.95,109.52c-1.97-1.94-1.98-5.1-0.04-7.07l0,0c1.94-1.96,5.11-1.98,7.07-0.03l0,0      c1.96,1.94,1.98,5.1,0.04,7.07l0,0c-0.98,0.98-2.27,1.48-3.56,1.48l0,0C106.19,110.97,104.92,110.49,103.95,109.52z       M118.35,95.65c-1.77-2.12-1.49-5.27,0.63-7.04l0,0c2.12-1.77,5.27-1.49,7.04,0.63l0,0c1.77,2.12,1.49,5.28-0.63,7.05l0,0      c-0.94,0.78-2.07,1.16-3.2,1.16l0,0C120.76,97.45,119.33,96.84,118.35,95.65z M134,83.21c-1.56-2.28-0.98-5.39,1.3-6.95l0,0      c2.28-1.56,5.39-0.98,6.95,1.3l0,0c1.56,2.28,0.98,5.39-1.3,6.95l0,0c-0.86,0.59-1.85,0.88-2.82,0.88l0,0      C136.54,85.39,134.97,84.63,134,83.21z M150.77,72.32c-1.34-2.42-0.46-5.46,1.96-6.8l0,0c2.41-1.33,5.46-0.45,6.79,1.96l0,0      c1.33,2.42,0.46,5.46-1.96,6.8l0,0c-0.77,0.42-1.59,0.62-2.41,0.62l0,0C153.39,74.9,151.68,73.97,150.77,72.32z M168.5,63.08      c-1.1-2.54,0.06-5.48,2.6-6.58l0,0c2.53-1.09,5.48,0.07,6.57,2.61l0,0c1.1,2.53-0.06,5.47-2.6,6.57l0,0      c-0.65,0.28-1.32,0.41-1.98,0.41l0,0C171.15,66.09,169.31,64.97,168.5,63.08z M187.03,55.58c-0.85-2.62,0.6-5.44,3.22-6.29l0,0      c2.63-0.85,5.45,0.6,6.3,3.22l0,0c0.84,2.63-0.6,5.45-3.23,6.3l0,0c-0.51,0.16-1.03,0.24-1.53,0.24l0,0      C189.67,59.05,187.71,57.7,187.03,55.58z M206.2,49.91c-0.59-2.7,1.12-5.36,3.81-5.95l0,0c2.7-0.6,5.36,1.11,5.96,3.81l0,0      c0.59,2.7-1.12,5.36-3.82,5.95l0,0c-0.36,0.08-0.72,0.12-1.07,0.12l0,0C208.78,53.84,206.71,52.25,206.2,49.91z" fill="#384169"/></g></g></g><g><g><g><path d="M461.47,215.17L461.47,215.17c-2.32,0-4.4-1.62-4.89-3.98l0,0c-0.56-2.7,1.17-5.35,3.88-5.91l0,0      c2.7-0.57,5.35,1.17,5.91,3.87l0,0l0,0l0,0c0.57,2.71-1.17,5.35-3.87,5.92C462.15,215.14,461.81,215.17,461.47,215.17z       M456.47,195.83L456.47,195.83c-2.14,0-4.11-1.38-4.78-3.52l0,0c-0.82-2.64,0.66-5.44,3.29-6.26l0,0      c2.64-0.82,5.44,0.65,6.26,3.29l0,0c0.82,2.64-0.65,5.44-3.29,6.26C457.46,195.75,456.96,195.83,456.47,195.83z M449.62,177.05      L449.62,177.05c-1.96,0-3.81-1.15-4.62-3.07v0.01c-1.07-2.55,0.13-5.48,2.68-6.55l0,0c2.54-1.07,5.47,0.12,6.54,2.67l0,0l0,0      l0,0c1.07,2.54-0.12,5.47-2.67,6.55C450.92,176.92,450.26,177.05,449.62,177.05z M440.99,159.02L440.99,159.02      c-1.78,0-3.5-0.96-4.4-2.63l0,0c-1.31-2.43-0.4-5.47,2.03-6.78l0,0c2.43-1.31,5.46-0.4,6.77,2.03l0,0      c1.31,2.43,0.4,5.47-2.03,6.78C442.61,158.82,441.79,159.02,440.99,159.02z M430.68,141.89L430.68,141.89      c-1.61,0-3.19-0.78-4.16-2.22l0,0c-1.53-2.29-0.92-5.4,1.38-6.94l0,0c2.29-1.53,5.4-0.92,6.93,1.38l0,0      c1.54,2.29,0.92,5.4-1.37,6.94C432.6,141.62,431.64,141.89,430.68,141.89z M418.78,125.83L418.78,125.83      c-1.45,0-2.88-0.63-3.87-1.84l0,0c-1.75-2.14-1.43-5.29,0.7-7.03l0,0c2.14-1.75,5.29-1.43,7.04,0.7l0,0l0,0l0,0      c1.75,2.14,1.43,5.29-0.71,7.04C421.01,125.46,419.89,125.83,418.78,125.83z M405.41,110.97L405.41,110.97      c-1.29,0-2.58-0.5-3.56-1.48l0,0c-1.94-1.97-1.92-5.13,0.04-7.07l0,0c1.96-1.95,5.13-1.93,7.07,0.03l0,0      c1.94,1.97,1.93,5.13-0.04,7.07C407.95,110.49,406.68,110.97,405.41,110.97z M390.68,97.45L390.68,97.45      c-1.13,0-2.26-0.38-3.2-1.16l0,0c-2.12-1.77-2.4-4.93-0.63-7.05l0,0c1.77-2.12,4.92-2.4,7.04-0.63l0,0      c2.12,1.77,2.4,4.92,0.63,7.04C393.54,96.84,392.11,97.45,390.68,97.45z M374.74,85.39L374.74,85.39      c-0.97,0-1.96-0.29-2.82-0.88l0,0c-2.28-1.56-2.86-4.67-1.3-6.95l0,0c1.56-2.28,4.67-2.86,6.95-1.3l0,0      c2.28,1.56,2.86,4.67,1.3,6.95C377.9,84.63,376.33,85.39,374.74,85.39z M357.72,74.9L357.72,74.9c-0.82,0-1.64-0.2-2.41-0.62      l0,0c-2.42-1.34-3.29-4.38-1.96-6.8l0,0c1.33-2.41,4.38-3.29,6.79-1.96l0,0c2.42,1.34,3.3,4.38,1.96,6.8      C361.19,73.97,359.48,74.9,357.72,74.9z M339.78,66.09L339.78,66.09c-0.66,0-1.33-0.13-1.98-0.41l0,0      c-2.54-1.1-3.7-4.04-2.6-6.57l0,0c1.09-2.54,4.04-3.7,6.57-2.61l0,0c2.54,1.1,3.7,4.04,2.6,6.58      C343.56,64.97,341.72,66.09,339.78,66.09z M321.08,59.05L321.08,59.05c-0.5,0-1.02-0.08-1.53-0.24l0,0      c-2.63-0.85-4.07-3.67-3.23-6.3l0,0c0.85-2.62,3.67-4.07,6.3-3.22l0,0c2.62,0.85,4.07,3.67,3.22,6.29      C325.16,57.7,323.2,59.05,321.08,59.05z M301.79,53.84L301.79,53.84c-0.35,0-0.71-0.04-1.07-0.12l0,0      c-2.7-0.59-4.41-3.25-3.82-5.95l0,0c0.6-2.7,3.26-4.41,5.96-3.81l0,0c2.69,0.59,4.4,3.25,3.81,5.95      C306.16,52.25,304.09,53.84,301.79,53.84z" fill="#384169"/></g></g></g></g><g id="Lines"><g><g><path d="M256,500c-65.442,0-126.967-25.484-173.241-71.759S11,320.442,11,255S36.484,128.033,82.759,81.759     S190.558,10,256,10s126.967,25.484,173.241,71.759S501,189.558,501,255s-25.484,126.967-71.759,173.241S321.442,500,256,500z      M256,20c-62.771,0-121.785,24.444-166.17,68.83C45.444,133.215,21,192.229,21,255s24.444,121.785,68.83,166.17     C134.215,465.556,193.229,490,256,490s121.785-24.444,166.17-68.83C466.556,376.785,491,317.771,491,255     s-24.444-121.785-68.83-166.17C377.785,44.444,318.771,20,256,20z" fill="#384169"/></g></g><g><g><g><path d="M255.119,279.012c-7.285,0-15.95-1.025-25.614-4.077c-2.08-0.657-3.494-2.587-3.494-4.768v-37.424      c0-1.986,1.176-3.785,2.996-4.581c1.022-0.448,25.32-10.828,50.068,0c1.82,0.796,2.996,2.594,2.996,4.581v37.424      c0,1.95-1.134,3.723-2.905,4.54C278.611,274.963,269.59,279.012,255.119,279.012z M236.011,266.418      c17.437,4.674,30.523,1.943,36.061,0.248v-30.531c-15.075-5.37-29.882-1.855-36.061,0.115V266.418z" fill="#384169"/></g></g><g><g><path d="M232,386c-0.684,0-1.369-0.14-2.013-0.423l-23.426-10.307l-24.7,6.259      c-1.524,0.388-3.146,0.032-4.371-0.958c-1.225-0.99-1.912-2.5-1.854-4.073c1.453-39.223,14.168-73.538,14.709-74.979      c0.969-2.585,3.852-3.892,6.436-2.926c2.585,0.969,3.896,3.85,2.928,6.436c-0.119,0.318-11.229,30.345-13.714,65.138      l19.778-5.012c1.08-0.273,2.222-0.179,3.242,0.27l18.524,8.151c1.623-19.823,7.228-75.26,20.677-99.866      c1.325-2.423,4.364-3.314,6.785-1.989c2.423,1.324,3.314,4.362,1.989,6.785c-15.125,27.674-19.952,102.062-19.999,102.81      c-0.103,1.63-0.995,3.108-2.391,3.958C233.805,385.755,232.904,386,232,386z" fill="#384169"/></g></g><g><g><path d="M278,390c-0.89,0-1.777-0.237-2.564-0.707c-1.44-0.86-2.353-2.384-2.431-4.06      c-0.038-0.804-3.935-80.726-19.033-108.351c-1.324-2.423-0.434-5.461,1.99-6.786c2.424-1.323,5.46-0.434,6.786,1.99      c13.491,24.684,18.444,84.059,19.815,105.177l18.274-8.771c0.959-0.46,2.041-0.603,3.084-0.407l21.078,3.95      c-2.424-35.032-13.625-65.249-13.745-65.567c-0.97-2.586,0.34-5.468,2.926-6.438c2.587-0.97,5.467,0.34,6.437,2.926      c0.541,1.441,13.256,35.756,14.709,74.979c0.056,1.519-0.581,2.98-1.732,3.973s-2.692,1.406-4.185,1.127l-25.721-4.82      l-23.524,11.292C279.478,389.837,278.738,390,278,390z" fill="#384169"/></g></g><g><g><path d="M318.813,256.456c-0.597,0-1.204-0.107-1.794-0.335c-16.842-6.476-36.73,0.006-36.928,0.071      c-2.624,0.875-5.452-0.544-6.324-3.164c-0.873-2.62,0.544-5.451,3.164-6.324c0.952-0.317,23.525-7.667,43.678,0.083      c2.577,0.991,3.863,3.884,2.872,6.461C322.717,255.236,320.822,256.456,318.813,256.456z" fill="#384169"/></g></g><g><g><path d="M189.27,256.456c-2.009,0-3.903-1.22-4.668-3.207c-0.991-2.578,0.295-5.47,2.872-6.461      c20.154-7.752,42.727-0.401,43.678-0.083c2.62,0.873,4.036,3.704,3.164,6.324c-0.871,2.618-3.698,4.037-6.316,3.166l0,0      c-0.2-0.066-20.183-6.516-36.936-0.073C190.473,256.348,189.866,256.456,189.27,256.456z" fill="#384169"/></g></g><g><g><path d="M166.668,316.884c-3.719,0-9.949-0.742-15.412-4.944c-5.734-4.41-9.099-11.308-10-20.5      c-4.037-41.16-0.424-76.125-0.021-79.786c0.107-8.758,2.835-15.481,8.112-19.988c8.414-7.185,20.034-5.513,20.523-5.439      c42.124,7.241,64.455,42.377,65.384,43.87c1.461,2.343,0.745,5.427-1.599,6.888c-2.342,1.461-5.422,0.747-6.884-1.592l0,0      c-0.206-0.328-20.96-32.798-58.419-39.28c-0.584-0.073-7.84-0.875-12.557,3.197c-2.994,2.585-4.53,6.85-4.564,12.677      c-0.001,0.18-0.012,0.36-0.032,0.538c-0.041,0.36-4.06,36.459,0.008,77.939c0.621,6.333,2.688,10.892,6.145,13.55      c4.778,3.674,10.898,2.799,10.959,2.79c37.616-6.467,58.252-38.954,58.457-39.281c1.46-2.343,4.543-3.061,6.888-1.599      c2.344,1.46,3.06,4.544,1.599,6.888c-0.93,1.492-23.26,36.629-65.29,43.854C169.808,316.691,168.564,316.884,166.668,316.884z" fill="#384169"/></g></g><g><g><path d="M341.142,316.886c-1.882,0-3.11-0.19-3.252-0.214c-42.071-7.232-64.402-42.369-65.332-43.861      c-1.461-2.343-0.745-5.427,1.599-6.888c2.343-1.463,5.427-0.746,6.888,1.599c0.202,0.321,20.988,32.84,58.498,39.288l0,0      c0.009-0.001,6.236,0.86,10.991-2.854c3.412-2.665,5.455-7.205,6.071-13.493c4.074-41.538,0.05-77.579,0.008-77.938      c-0.02-0.179-0.031-0.359-0.032-0.539c-0.035-5.827-1.57-10.092-4.564-12.677c-4.717-4.072-11.975-3.271-12.557-3.197      c-37.605,6.507-58.211,38.947-58.415,39.274c-1.46,2.343-4.544,3.06-6.888,1.599c-2.344-1.46-3.06-4.544-1.599-6.888      c0.93-1.492,23.26-36.629,65.29-43.854c0.584-0.09,12.203-1.763,20.618,5.424c5.277,4.507,8.005,11.23,8.112,19.988      c0.403,3.66,4.016,38.626-0.021,79.786c-0.901,9.192-4.266,16.09-10,20.5C351.086,316.147,344.847,316.886,341.142,316.886z" fill="#384169"/></g></g></g><g><g><path d="M480.22,37.302c-1.28,0-2.559-0.488-3.536-1.464c-1.953-1.953-1.953-5.119,0-7.071l9.291-9.291     c1.953-1.952,5.118-1.952,7.071,0c1.953,1.953,1.953,5.119,0,7.071l-9.291,9.291C482.779,36.814,481.5,37.302,480.22,37.302z" fill="#384169"/></g></g><g><g><path d="M448.511,68.988c-1.28,0-2.559-0.488-3.536-1.464c-1.953-1.953-1.953-5.119,0-7.071l9.291-9.291     c1.953-1.952,5.118-1.952,7.071,0c1.953,1.953,1.953,5.119,0,7.071l-9.291,9.291C451.07,68.5,449.791,68.988,448.511,68.988z" fill="#384169"/></g></g><g><g><path d="M489.499,69c-1.28,0-2.559-0.488-3.536-1.464l-9.291-9.291c-1.953-1.953-1.953-5.119,0-7.071     c1.953-1.952,5.118-1.952,7.071,0l9.291,9.291c1.953,1.953,1.953,5.119,0,7.071C492.058,68.512,490.779,69,489.499,69z" fill="#384169"/></g></g><g><g><path d="M457.813,37.291c-1.28,0-2.559-0.488-3.536-1.464l-9.291-9.291c-1.953-1.953-1.953-5.119,0-7.071     c1.953-1.952,5.118-1.952,7.071,0l9.291,9.291c1.953,1.953,1.953,5.119,0,7.071C460.372,36.802,459.093,37.291,457.813,37.291z" fill="#384169"/></g></g><g><g><path d="M462.616,43.526c0-3.575,2.896-6.473,6.473-6.473c3.574,0,6.473,2.898,6.473,6.473     c0,3.575-2.898,6.474-6.473,6.474C465.513,50,462.616,47.101,462.616,43.526z" fill="#384169"/></g></g><g><g><path d="M57.22,460.302c-1.28,0-2.559-0.488-3.536-1.464c-1.953-1.953-1.953-5.119,0-7.071l9.291-9.291     c1.953-1.952,5.118-1.952,7.071,0c1.953,1.953,1.953,5.119,0,7.071l-9.291,9.291C59.779,459.814,58.5,460.302,57.22,460.302z" fill="#384169"/></g></g><g><g><path d="M25.511,491.988c-1.28,0-2.559-0.488-3.536-1.464c-1.953-1.953-1.953-5.119,0-7.071l9.291-9.291     c1.953-1.952,5.118-1.952,7.071,0c1.953,1.953,1.953,5.119,0,7.071l-9.291,9.291C28.07,491.5,26.791,491.988,25.511,491.988z" fill="#384169"/></g></g><g><g><path d="M66.499,492c-1.28,0-2.559-0.488-3.536-1.464l-9.291-9.291c-1.953-1.953-1.953-5.119,0-7.071     c1.953-1.952,5.118-1.952,7.071,0l9.291,9.291c1.953,1.953,1.953,5.119,0,7.071C69.058,491.512,67.779,492,66.499,492z" fill="#384169"/></g></g><g><g><path d="M34.813,460.291c-1.28,0-2.559-0.488-3.536-1.464l-9.291-9.291c-1.953-1.953-1.953-5.119,0-7.071     c1.953-1.952,5.118-1.952,7.071,0l9.291,9.291c1.953,1.953,1.953,5.119,0,7.071C37.372,459.802,36.093,460.291,34.813,460.291z" fill="#384169"/></g></g><g><g><path d="M39.616,466.526c0-3.575,2.896-6.473,6.473-6.473c3.574,0,6.473,2.898,6.473,6.473     c0,3.575-2.898,6.474-6.473,6.474C42.513,473,39.616,470.101,39.616,466.526z" fill="#384169"/></g></g><g><g><rect fill="#384169" height="10" width="127.564" x="366.436" y="227"/></g></g><g><g><rect fill="#384169" height="10" width="131.377" x="16" y="227"/></g></g><g><g><rect fill="#384169" height="10" width="127.564" x="366.436" y="274"/></g></g><g><g><rect fill="#384169" height="10" width="132.257" x="16" y="274"/></g></g><g><g><path d="M278.5,498c-2.761,0-5-2.239-5-5V384.947c0-2.761,2.239-5,5-5s5,2.239,5,5V493     C283.5,495.761,281.261,498,278.5,498z" fill="#384169"/></g></g><g><g><rect fill="#384169" height="213.25" width="10" x="273.5" y="16.5"/></g></g><g><g><path d="M231.5,498c-2.761,0-5-2.239-5-5V381c0-2.761,2.239-5,5-5s5,2.239,5,5v112     C236.5,495.761,234.261,498,231.5,498z" fill="#384169"/></g></g><g><g><rect fill="#384169" height="212.661" width="10" x="226.5" y="16.5"/></g></g></g></svg>