<?xml version="1.0" ?><svg id="Lines" viewBox="0 0 512 512" xmlns="http://www.w3.org/2000/svg"><defs><style>.cls-1{fill:#3f456b;}</style></defs><title/><path class="cls-1" d="M248,55a5,5,0,0,1,5-5h0a5,5,0,0,1,5,5h0a5,5,0,0,1-5,5h0A5,5,0,0,1,248,55Z"/><path class="cls-1" d="M248,455a5,5,0,0,1,5-5h0a5,5,0,0,1,5,5h0a5,5,0,0,1-5,5h0A5,5,0,0,1,248,455Z"/><path class="cls-1" d="M446,501H66a55.06,55.06,0,0,1-55-55V66A55.06,55.06,0,0,1,66,11H446a55.06,55.06,0,0,1,55,55V446A55.06,55.06,0,0,1,446,501ZM66,21A45.05,45.05,0,0,0,21,66V446a45.05,45.05,0,0,0,45,45H446a45.05,45.05,0,0,0,45-45V66a45.05,45.05,0,0,0-45-45Z"/><path class="cls-1" d="M285,373H228a5,5,0,0,1-5-5V335.49a33.56,33.56,0,1,1,67.11.25v0L290,368A5,5,0,0,1,285,373Zm-52-10h47l.09-27.27a23.56,23.56,0,1,0-47.11-.24Zm52.11-27.26h0Z"/><path class="cls-1" d="M336,421H176a85.1,85.1,0,0,1-85-85V176a85.1,85.1,0,0,1,85-85H336a85.1,85.1,0,0,1,85,85V336A85.1,85.1,0,0,1,336,421ZM176,101a75.08,75.08,0,0,0-75,75V336a75.08,75.08,0,0,0,75,75H336a75.08,75.08,0,0,0,75-75V176a75.08,75.08,0,0,0-75-75Z"/><path class="cls-1" d="M344,257H305a5,5,0,0,1-5-5V173a5,5,0,0,1,5-5h39a5,5,0,0,1,5,5v79A5,5,0,0,1,344,257Zm-34-10h29V178H310Z"/><path class="cls-1" d="M208,257H169a5,5,0,0,1-5-5V173a5,5,0,0,1,5-5h39a5,5,0,0,1,5,5v79A5,5,0,0,1,208,257Zm-34-10h29V178H174Z"/></svg>