<?xml version="1.0" ?><svg viewBox="0 0 512 512" xmlns="http://www.w3.org/2000/svg"><defs><style>.cls-1{fill:#3f456b;}</style></defs><title/><g id="Lines"><path class="cls-1" d="M130,92.78A21.44,21.44,0,1,1,151.4,71.34,21.47,21.47,0,0,1,130,92.78Zm0-32.88A11.44,11.44,0,1,0,141.4,71.34,11.46,11.46,0,0,0,130,59.9Z"/><path class="cls-1" d="M76,92.78A21.44,21.44,0,1,1,97.4,71.34,21.47,21.47,0,0,1,76,92.78ZM76,59.9A11.44,11.44,0,1,0,87.4,71.34,11.46,11.46,0,0,0,76,59.9Z"/><path class="cls-1" d="M398.69,501H48.31A37.36,37.36,0,0,1,11,463.69V48.31A37.36,37.36,0,0,1,48.31,11H398.69A37.36,37.36,0,0,1,436,48.31V166.38a5,5,0,0,1-10,0V48.31A27.34,27.34,0,0,0,398.69,21H48.31A27.34,27.34,0,0,0,21,48.31V463.69A27.34,27.34,0,0,0,48.31,491H398.69A27.34,27.34,0,0,0,426,463.69V420.17a5,5,0,0,1,10,0v43.52A37.36,37.36,0,0,1,398.69,501Z"/><path class="cls-1" d="M331.83,131H248.66a5,5,0,1,1,0-10h83.17a5,5,0,0,1,0,10Z"/><path class="cls-1" d="M431,131H369.22a5,5,0,0,1,0-10H426V48.31A27.34,27.34,0,0,0,398.69,21H48.31A27.34,27.34,0,0,0,21,48.31V121H197.5a5,5,0,0,1,0,10H16a5,5,0,0,1-5-5V48.31A37.36,37.36,0,0,1,48.31,11H398.69A37.36,37.36,0,0,1,436,48.31V126A5,5,0,0,1,431,131Z"/><path class="cls-1" d="M398.69,501H48.31A37.36,37.36,0,0,1,11,463.69V386a5,5,0,0,1,5-5H312.58a5,5,0,0,1,0,10H21v72.69A27.34,27.34,0,0,0,48.31,491H398.69A27.34,27.34,0,0,0,426,463.69V421.88a5,5,0,0,1,10,0v41.81A37.36,37.36,0,0,1,398.69,501Z"/><path class="cls-1" d="M223.5,77C204.13,77,189,67,189,54.27S204.13,31.5,223.5,31.5s34.55,10,34.55,22.77S242.87,77,223.5,77Zm0-35.54C209,41.5,199,48.23,199,54.27S209,67,223.5,67s24.55-6.73,24.55-12.77S238,41.5,223.5,41.5Z"/><path class="cls-1" d="M223.5,162c-16.26,0-29-8.49-29.14-19.35L189,54.58a5,5,0,1,1,10-.61l5.4,88.2c0,.11,0,.21,0,.31,0,4.49,8.19,9.52,19.15,9.52s19.15-5,19.15-9.52c0-.1,0-.2,0-.31l5.4-88.2a5,5,0,1,1,10,.61l-5.4,88.07C252.51,153.51,239.76,162,223.5,162Z"/><path class="cls-1" d="M271,192H178a25,25,0,0,1-25-25V127a5,5,0,0,1,10,0v40a15,15,0,0,0,15,15h93a15,15,0,0,0,15-15V127a5,5,0,0,1,10,0v40A25,25,0,0,1,271,192Z"/><path class="cls-1" d="M233.9,234H212.54c-9.92,0-13.34-11.45-13.81-18.35l-3.4-27a5,5,0,1,1,9.92-1.25l3.42,27.19a1.63,1.63,0,0,1,0,.31c.25,3.63,1.9,9.13,3.84,9.13H233.9c1.94,0,3.6-5.5,3.84-9.14l0-.31,3.42-27a5,5,0,1,1,9.92,1.26l-3.4,26.81C247.24,222.55,243.83,234,233.9,234Z"/><path class="cls-1" d="M49,391a5,5,0,0,1-5-5V364c0-8.41,5.86-15,13.34-15H296.67a5,5,0,1,1,0,10H57.34c-1.84,0-3.34,2.24-3.34,5v22A5,5,0,0,1,49,391Z"/><path class="cls-1" d="M476,282H290.33a4.3,4.3,0,0,1-.62,0c-.22,0-.52,0-.9-.07-13.86-.95-30.11-7.74-28.87-34.67,1.1-23.91,21.52-34.67,35.64-38-2.09-15.75,3.93-29.38,17.6-39.68a72.33,72.33,0,0,1,16.35-9.06,32.82,32.82,0,0,1-5.59-21.69C326.2,114,354.67,93,355.88,92.16l.19-.13c.82-.54,8.21-5.17,14.43-1.26,5.05,3.18,5.18,9.46,3.16,14l-.12.24c-1.39,2.73-4.72,11.56-1.81,16.26,2.24,3.62,8.26,4.31,12.89,4.25,14.05-.16,24.88,3.76,32.2,11.66s9.11,17.83,9.47,23.56c12.79,2.49,22.42,8.2,28.67,17,7.6,10.72,8.08,23.2,7.61,30.11A50.61,50.61,0,0,1,486.71,219c8.7,7.61,13.47,18.25,13.79,30.76.57,22.48-15.31,30.87-23.79,32.16A4.87,4.87,0,0,1,476,282ZM290.59,272H475.5c2.59-.52,15.46-4,15-22-.7-27.26-26.22-32.17-34-33a5,5,0,0,1-4.36-6c0-.15,3.08-15.77-5.36-27.6-5.26-7.38-14.05-11.93-26.1-13.52a5,5,0,0,1-4.33-5.4c0-.1.89-12.29-6.91-20.65-5.31-5.7-13.61-8.51-24.68-8.39h-.62c-10.19,0-17.22-3-20.91-9-6.15-10,.17-23.53,1.35-25.87a5.63,5.63,0,0,0,.31-1.39,8.26,8.26,0,0,0-3.22,1.13c-1.72,1.29-26,19.71-27.75,39.42-.66,7.25,1.83,13.71,7.61,19.76a5,5,0,0,1-2.4,8.3A63.5,63.5,0,0,0,319,177.73c-11.74,8.93-16,20.5-12.7,34.39a5,5,0,0,1-4.28,6.12c-1.25.16-30.9,4.09-32.07,29.44-.93,20.23,10,23.58,19.57,24.24C289.92,271.94,290.29,272,290.59,272ZM369.1,102.67h0Zm0,0h0Z"/><path class="cls-1" d="M360.72,172c-16.72,0-24.86-4.47-25.3-4.72a5,5,0,0,1,4.89-8.72c.3.15,11.8,6,36.32,2.11a5,5,0,1,1,1.57,9.87A111.71,111.71,0,0,1,360.72,172Z"/><path class="cls-1" d="M347.8,222.57a263.36,263.36,0,0,1-47.38-4.39,5,5,0,0,1,2-9.8c.41.08,41.42,8.18,76.68,1.54a5,5,0,1,1,1.85,9.83A181.12,181.12,0,0,1,347.8,222.57Z"/><path class="cls-1" d="M460.42,217.57a5.12,5.12,0,0,1-.78-.06,103.83,103.83,0,0,0-27.6,0,5,5,0,0,1-1.54-9.88,112,112,0,0,1,30.68,0,5,5,0,0,1-.76,9.94Z"/><path class="cls-1" d="M381.22,500.06c-18.3,0-25.89-17.06-26.88-19.49L267.78,304.7a27.28,27.28,0,0,1,3.73-30.92,5,5,0,0,1,3.82-1.78H487a5,5,0,0,1,3.71,1.65,28.62,28.62,0,0,1,4.11,29.91l-.12.26L406.36,480.68C405.37,483.11,397.85,500.06,381.22,500.06ZM277.8,282a17.25,17.25,0,0,0-1.3,17.81c.07.11.13.23.19.34L363.4,476.33a3.43,3.43,0,0,1,.19.44c.21.52,5.31,13.29,17.63,13.29,10.62,0,15.86-13.1,15.92-13.23a3.3,3.3,0,0,1,.19-.43l88.35-176.91A18.69,18.69,0,0,0,484.46,282Zm212.43,19.59h0Z"/><path class="cls-1" d="M224,173a5,5,0,0,1-5-5V157a5,5,0,0,1,10,0v11A5,5,0,0,1,224,173Z"/></g><g id="Outline"><path class="cls-1" d="M223,468a5,5,0,0,1-5-5V420a5,5,0,0,1,10,0v43A5,5,0,0,1,223,468Z"/><path class="cls-1" d="M248,468a5,5,0,0,1-5-5V420a5,5,0,0,1,10,0v43A5,5,0,0,1,248,468Z"/><path class="cls-1" d="M272,468a5,5,0,0,1-5-5V420a5,5,0,0,1,10,0v43A5,5,0,0,1,272,468Z"/><path class="cls-1" d="M296,468a5,5,0,0,1-5-5V420a5,5,0,0,1,10,0v43A5,5,0,0,1,296,468Z"/><path class="cls-1" d="M151,468a5,5,0,0,1-5-5V420a5,5,0,0,1,10,0v43A5,5,0,0,1,151,468Z"/><path class="cls-1" d="M175,468a5,5,0,0,1-5-5V420a5,5,0,0,1,10,0v43A5,5,0,0,1,175,468Z"/><path class="cls-1" d="M199,468a5,5,0,0,1-5-5V420a5,5,0,0,1,10,0v43A5,5,0,0,1,199,468Z"/><path class="cls-1" d="M455,348a5,5,0,0,1,5-5h0a5,5,0,0,1,5,5h0a5,5,0,0,1-5,5h0A5,5,0,0,1,455,348Zm-20,0a5,5,0,0,1,5-5h0a5,5,0,0,1,5,5h0a5,5,0,0,1-5,5h0A5,5,0,0,1,435,348Zm-20,0a5,5,0,0,1,5-5h0a5,5,0,0,1,5,5h0a5,5,0,0,1-5,5h0A5,5,0,0,1,415,348Zm-20,0a5,5,0,0,1,5-5h0a5,5,0,0,1,5,5h0a5,5,0,0,1-5,5h0A5,5,0,0,1,395,348Zm-20,0a5,5,0,0,1,5-5h0a5,5,0,0,1,5,5h0a5,5,0,0,1-5,5h0A5,5,0,0,1,375,348Zm-20,0a5,5,0,0,1,5-5h0a5,5,0,0,1,5,5h0a5,5,0,0,1-5,5h0A5,5,0,0,1,355,348Zm-20,0a5,5,0,0,1,5-5h0a5,5,0,0,1,5,5h0a5,5,0,0,1-5,5h0A5,5,0,0,1,335,348Zm-20,0a5,5,0,0,1,5-5h0a5,5,0,0,1,5,5h0a5,5,0,0,1-5,5h0A5,5,0,0,1,315,348Zm-20,0a5,5,0,0,1,5-5h0a5,5,0,0,1,5,5h0a5,5,0,0,1-5,5h0A5,5,0,0,1,295,348Z"/><path class="cls-1" d="M435,383a5,5,0,0,1,5-5h0a5,5,0,0,1,5,5h0a5,5,0,0,1-5,5h0A5,5,0,0,1,435,383Zm-20,0a5,5,0,0,1,5-5h0a5,5,0,0,1,5,5h0a5,5,0,0,1-5,5h0A5,5,0,0,1,415,383Zm-20,0a5,5,0,0,1,5-5h0a5,5,0,0,1,5,5h0a5,5,0,0,1-5,5h0A5,5,0,0,1,395,383Zm-20,0a5,5,0,0,1,5-5h0a5,5,0,0,1,5,5h0a5,5,0,0,1-5,5h0A5,5,0,0,1,375,383Zm-20,0a5,5,0,0,1,5-5h0a5,5,0,0,1,5,5h0a5,5,0,0,1-5,5h0A5,5,0,0,1,355,383Zm-20,0a5,5,0,0,1,5-5h0a5,5,0,0,1,5,5h0a5,5,0,0,1-5,5h0A5,5,0,0,1,335,383Zm-20,0a5,5,0,0,1,5-5h0a5,5,0,0,1,5,5h0a5,5,0,0,1-5,5h0A5,5,0,0,1,315,383Z"/><path class="cls-1" d="M413,417a5,5,0,0,1,5-5h0a5,5,0,0,1,5,5h0a5,5,0,0,1-5,5h0A5,5,0,0,1,413,417Zm-20,0a5,5,0,0,1,5-5h0a5,5,0,0,1,5,5h0a5,5,0,0,1-5,5h0A5,5,0,0,1,393,417Zm-20,0a5,5,0,0,1,5-5h0a5,5,0,0,1,5,5h0a5,5,0,0,1-5,5h0A5,5,0,0,1,373,417Zm-20,0a5,5,0,0,1,5-5h0a5,5,0,0,1,5,5h0a5,5,0,0,1-5,5h0A5,5,0,0,1,353,417Zm-20,0a5,5,0,0,1,5-5h0a5,5,0,0,1,5,5h0a5,5,0,0,1-5,5h0A5,5,0,0,1,333,417Z"/><path class="cls-1" d="M395,451a5,5,0,0,1,5-5h0a5,5,0,0,1,5,5h0a5,5,0,0,1-5,5h0A5,5,0,0,1,395,451Zm-20,0a5,5,0,0,1,5-5h0a5,5,0,0,1,5,5h0a5,5,0,0,1-5,5h0A5,5,0,0,1,375,451Zm-20,0a5,5,0,0,1,5-5h0a5,5,0,0,1,5,5h0a5,5,0,0,1-5,5h0A5,5,0,0,1,355,451Z"/><path class="cls-1" d="M475,314a5,5,0,0,1,5-5h0a5,5,0,0,1,5,5h0a5,5,0,0,1-5,5h0A5,5,0,0,1,475,314Zm-20,0a5,5,0,0,1,5-5h0a5,5,0,0,1,5,5h0a5,5,0,0,1-5,5h0A5,5,0,0,1,455,314Zm-20,0a5,5,0,0,1,5-5h0a5,5,0,0,1,5,5h0a5,5,0,0,1-5,5h0A5,5,0,0,1,435,314Zm-20,0a5,5,0,0,1,5-5h0a5,5,0,0,1,5,5h0a5,5,0,0,1-5,5h0A5,5,0,0,1,415,314Zm-20,0a5,5,0,0,1,5-5h0a5,5,0,0,1,5,5h0a5,5,0,0,1-5,5h0A5,5,0,0,1,395,314Zm-20,0a5,5,0,0,1,5-5h0a5,5,0,0,1,5,5h0a5,5,0,0,1-5,5h0A5,5,0,0,1,375,314Zm-20,0a5,5,0,0,1,5-5h0a5,5,0,0,1,5,5h0a5,5,0,0,1-5,5h0A5,5,0,0,1,355,314Zm-20,0a5,5,0,0,1,5-5h0a5,5,0,0,1,5,5h0a5,5,0,0,1-5,5h0A5,5,0,0,1,335,314Zm-20,0a5,5,0,0,1,5-5h0a5,5,0,0,1,5,5h0a5,5,0,0,1-5,5h0A5,5,0,0,1,315,314Zm-20,0a5,5,0,0,1,5-5h0a5,5,0,0,1,5,5h0a5,5,0,0,1-5,5h0A5,5,0,0,1,295,314Zm-20,0a5,5,0,0,1,5-5h0a5,5,0,0,1,5,5h0a5,5,0,0,1-5,5h0A5,5,0,0,1,275,314Z"/></g></svg>