<?xml version="1.0" ?><svg viewBox="0 0 512 512" xmlns="http://www.w3.org/2000/svg"><defs><style>.cls-1{fill:#3f456b;}</style></defs><title/><g id="Lines"><path class="cls-1" d="M495,340.82H464a5,5,0,0,1-5-5V272.16a5,5,0,0,1,5-5h31a5,5,0,0,1,0,10H469v53.66h26a5,5,0,0,1,0,10Z"/><path class="cls-1" d="M368.86,285.32a5,5,0,0,1-5-5v-8.16a5,5,0,1,1,10,0v8.16A5,5,0,0,1,368.86,285.32Z"/><path class="cls-1" d="M99.66,410.64a45.11,45.11,0,1,1,45.12-45.11A45.17,45.17,0,0,1,99.66,410.64Zm0-80.22a35.11,35.11,0,1,0,35.12,35.11A35.15,35.15,0,0,0,99.66,330.42Z"/><path class="cls-1" d="M99.66,383.12a17.59,17.59,0,1,1,17.59-17.59A17.6,17.6,0,0,1,99.66,383.12Zm0-25.18a7.59,7.59,0,1,0,7.59,7.59A7.59,7.59,0,0,0,99.66,357.94Z"/><path class="cls-1" d="M179.89,410.64A45.11,45.11,0,1,1,225,365.53,45.16,45.16,0,0,1,179.89,410.64Zm0-80.22A35.11,35.11,0,1,0,215,365.53,35.15,35.15,0,0,0,179.89,330.42Z"/><path class="cls-1" d="M179.89,383.12a17.59,17.59,0,1,1,17.59-17.59A17.61,17.61,0,0,1,179.89,383.12Zm0-25.18a7.59,7.59,0,1,0,7.59,7.59A7.59,7.59,0,0,0,179.89,357.94Z"/><path class="cls-1" d="M408.13,410.64a45.11,45.11,0,1,1,45.12-45.11A45.17,45.17,0,0,1,408.13,410.64Zm0-80.22a35.11,35.11,0,1,0,35.12,35.11A35.15,35.15,0,0,0,408.13,330.42Z"/><path class="cls-1" d="M408.13,383.12a17.59,17.59,0,1,1,17.59-17.59A17.61,17.61,0,0,1,408.13,383.12Zm0-25.18a7.59,7.59,0,1,0,7.59,7.59A7.59,7.59,0,0,0,408.13,357.94Z"/><path class="cls-1" d="M476.83,371.1H448.25a5,5,0,0,1,0-10h28.58c5.08,0,8.72-1.24,10.84-3.69,3-3.47,2.41-8.73,2.4-8.78a4.17,4.17,0,0,1-.05-.71V264.87c0-4.15-1.08-7.19-3.29-9.28-4-3.79-10.62-3.49-10.68-3.48h-15.6a5,5,0,0,1-5-5v-16c0-.14,0-.28,0-.43s1.86-24.79-13.6-41.58c-9.92-10.78-25-16.25-44.68-16.25H352a14.71,14.71,0,0,0-5.81,1.55c-3.29,1.74-4.82,4.63-4.82,9.08V324.86a5,5,0,0,1-5,5H300a5,5,0,0,1,0-10h31.37V183.48c0-8.29,3.76-14.73,10.58-18.15A24.35,24.35,0,0,1,352,162.85h45.19c22.68,0,40.21,6.58,52.11,19.56,17.74,19.35,16.37,45.91,16.15,48.9v10.8h10.18c1.57-.06,11.16-.17,17.9,6.15,4.3,4,6.49,9.62,6.49,16.61v82.74c.22,2.06.67,10-4.79,16.35C491.13,368.7,484.94,371.1,476.83,371.1Z"/><path class="cls-1" d="M368,370.53H220a5,5,0,0,1,0-10H368a5,5,0,0,1,0,10Z"/><path class="cls-1" d="M336.37,370.28a5,5,0,0,1-5-5V322.61a5,5,0,0,1,10,0v42.67A5,5,0,0,1,336.37,370.28Z"/><path class="cls-1" d="M460.39,252.28H367.83a5,5,0,0,1-5-5V199.11a5,5,0,0,1,5-5h86.6a5,5,0,0,1,0,10h-81.6v38.17h87.56a5,5,0,0,1,0,10Z"/><path class="cls-1" d="M301.88,329.86H26a15,15,0,0,1-15-15V115.37a15,15,0,0,1,15-15H301.88a15,15,0,0,1,15,15V314.86A15,15,0,0,1,301.88,329.86ZM26,110.37a5,5,0,0,0-5,5V314.86a5,5,0,0,0,5,5H301.88a5,5,0,0,0,5-5V115.37a5,5,0,0,0-5-5Z"/><path class="cls-1" d="M336.37,238.37H311.88a5,5,0,0,1,0-10h24.49a5,5,0,0,1,0,10Z"/><path class="cls-1" d="M59.55,372.9H48c-15.37,0-21-12.56-21-21v-27a5,5,0,0,1,10,0v27h0a15.2,15.2,0,0,0,1.62,6c1.82,3.43,4.81,5,9.42,5H59.55a5,5,0,1,1,0,10Z"/><path class="cls-1" d="M311.88,270.37H16a5,5,0,0,1,0-10H311.88a5,5,0,0,1,0,10Z"/><path class="cls-1" d="M63.58,350.37H33.25a5,5,0,0,1,0-10H63.58a5,5,0,0,1,0,10Z"/><path class="cls-1" d="M336,350.37H216.38a5,5,0,0,1,0-10H336a5,5,0,0,1,0,10Z"/></g><g id="Outline"><path class="cls-1" d="M65.81,270.36a5,5,0,0,1-5-5v-160a5,5,0,0,1,10,0v160A5,5,0,0,1,65.81,270.36Z"/><path class="cls-1" d="M115.12,270.36a5,5,0,0,1-5-5v-160a5,5,0,0,1,10,0v160A5,5,0,0,1,115.12,270.36Z"/><path class="cls-1" d="M164.44,270.36a5,5,0,0,1-5-5v-160a5,5,0,0,1,10,0v160A5,5,0,0,1,164.44,270.36Z"/><path class="cls-1" d="M213.75,270.36a5,5,0,0,1-5-5v-160a5,5,0,0,1,10,0v160A5,5,0,0,1,213.75,270.36Z"/><path class="cls-1" d="M263.06,270.36a5,5,0,0,1-5-5v-160a5,5,0,0,1,10,0v160A5,5,0,0,1,263.06,270.36Z"/><path class="cls-1" d="M312.38,289.74H16.5a5,5,0,0,1,0-10H312.38a5,5,0,0,1,0,10Z"/><path class="cls-1" d="M312.38,309H16.5a5,5,0,0,1,0-10H312.38a5,5,0,0,1,0,10Z"/><path class="cls-1" d="M495,297.88H464a5,5,0,0,1,0-10h31a5,5,0,0,1,0,10Z"/><path class="cls-1" d="M495,320.11H464a5,5,0,0,1,0-10h31a5,5,0,0,1,0,10Z"/></g></svg>