<svg xmlns="http://www.w3.org/2000/svg" version="1.1" xmlns:xlink="http://www.w3.org/1999/xlink" xmlns:svgjs="http://svgjs.dev/svgjs" viewBox="0 0 800 800" width="800" height="800"><g stroke-width="3.5" stroke="hsl(261, 60%, 38%)" fill="none"><rect width="14.473684210526315" height="14.473684210526315" x="-7.2368421052631575" y="-7.2368421052631575" fill="hsl(261, 60%, 38%)" stroke="none"></rect><rect width="14.473684210526315" height="14.473684210526315" x="59.429824561403514" y="-7.2368421052631575" fill="hsl(261, 60%, 38%)" stroke="none"></rect><rect width="14.473684210526315" height="14.473684210526315" x="126.09649122807019" y="-7.2368421052631575" fill="hsl(261, 60%, 38%)" stroke="none"></rect><rect width="14.473684210526315" height="14.473684210526315" x="192.76315789473685" y="-7.2368421052631575" fill="hsl(261, 60%, 38%)" stroke="none"></rect><rect width="14.473684210526315" height="14.473684210526315" x="259.4298245614035" y="-7.2368421052631575" fill="hsl(261, 60%, 38%)" stroke="none"></rect><rect width="14.473684210526315" height="14.473684210526315" x="326.0964912280702" y="-7.2368421052631575" fill="hsl(261, 60%, 38%)" stroke="none"></rect><rect width="14.473684210526315" height="14.473684210526315" x="392.7631578947369" y="-7.2368421052631575" fill="hsl(261, 60%, 38%)" stroke="none"></rect><rect width="14.473684210526315" height="14.473684210526315" x="459.42982456140356" y="-7.2368421052631575" fill="hsl(261, 60%, 38%)" stroke="none"></rect><rect width="14.473684210526315" height="14.473684210526315" x="526.0964912280702" y="-7.2368421052631575" fill="hsl(261, 60%, 38%)" stroke="none"></rect><rect width="14.473684210526315" height="14.473684210526315" x="592.7631578947369" y="-7.2368421052631575" fill="hsl(261, 60%, 38%)" stroke="none"></rect><rect width="14.473684210526315" height="14.473684210526315" x="659.4298245614035" y="-7.2368421052631575" fill="hsl(261, 60%, 38%)" stroke="none"></rect><rect width="14.473684210526315" height="14.473684210526315" x="726.0964912280701" y="-7.2368421052631575" fill="hsl(261, 60%, 38%)" stroke="none"></rect><rect width="14.473684210526315" height="14.473684210526315" x="792.7631578947368" y="-7.2368421052631575" fill="hsl(261, 60%, 38%)" stroke="none"></rect><rect width="14.473684210526315" height="14.473684210526315" x="-7.2368421052631575" y="59.429824561403514" fill="hsl(261, 60%, 38%)" stroke="none"></rect><rect width="14.473684210526315" height="14.473684210526315" x="59.429824561403514" y="59.429824561403514" fill="hsl(261, 60%, 38%)" stroke="none"></rect><rect width="14.473684210526315" height="14.473684210526315" x="126.09649122807019" y="59.429824561403514" fill="hsl(261, 60%, 38%)" stroke="none"></rect><rect width="14.473684210526315" height="14.473684210526315" x="192.76315789473685" y="59.429824561403514" fill="hsl(261, 60%, 38%)" stroke="none" transform="rotate(45, 200, 66.66666666666667)"></rect><rect width="14.473684210526315" height="14.473684210526315" x="259.4298245614035" y="59.429824561403514" fill="hsl(261, 60%, 38%)" stroke="none"></rect><rect width="14.473684210526315" height="14.473684210526315" x="326.0964912280702" y="59.429824561403514" fill="hsl(261, 60%, 38%)" stroke="none"></rect><rect width="14.473684210526315" height="14.473684210526315" x="392.7631578947369" y="59.429824561403514" fill="hsl(261, 60%, 38%)" stroke="none"></rect><rect width="14.473684210526315" height="14.473684210526315" x="459.42982456140356" y="59.429824561403514" fill="hsl(261, 60%, 38%)" stroke="none"></rect><rect width="14.473684210526315" height="14.473684210526315" x="526.0964912280702" y="59.429824561403514" fill="hsl(261, 60%, 38%)" stroke="none" transform="rotate(45, 533.3333333333334, 66.66666666666667)"></rect><rect width="14.473684210526315" height="14.473684210526315" x="592.7631578947369" y="59.429824561403514" fill="hsl(261, 60%, 38%)" stroke="none"></rect><rect width="14.473684210526315" height="14.473684210526315" x="659.4298245614035" y="59.429824561403514" fill="hsl(261, 60%, 38%)" stroke="none" transform="rotate(45, 666.6666666666666, 66.66666666666667)"></rect><rect width="14.473684210526315" height="14.473684210526315" x="726.0964912280701" y="59.429824561403514" fill="hsl(261, 60%, 38%)" stroke="none"></rect><rect width="14.473684210526315" height="14.473684210526315" x="792.7631578947368" y="59.429824561403514" fill="hsl(261, 60%, 38%)" stroke="none"></rect><rect width="14.473684210526315" height="14.473684210526315" x="-7.2368421052631575" y="126.09649122807019" fill="hsl(261, 60%, 38%)" stroke="none"></rect><rect width="14.473684210526315" height="14.473684210526315" x="59.429824561403514" y="126.09649122807019" fill="hsl(261, 60%, 38%)" stroke="none"></rect><rect width="14.473684210526315" height="14.473684210526315" x="126.09649122807019" y="126.09649122807019" fill="hsl(261, 60%, 38%)" stroke="none"></rect><rect width="14.473684210526315" height="14.473684210526315" x="192.76315789473685" y="126.09649122807019" fill="hsl(261, 60%, 38%)" stroke="none"></rect><rect width="14.473684210526315" height="14.473684210526315" x="259.4298245614035" y="126.09649122807019" fill="hsl(261, 60%, 38%)" stroke="none"></rect><rect width="14.473684210526315" height="14.473684210526315" x="326.0964912280702" y="126.09649122807019" fill="hsl(261, 60%, 38%)" stroke="none" transform="rotate(45, 333.33333333333337, 133.33333333333334)"></rect><rect width="14.473684210526315" height="14.473684210526315" x="392.7631578947369" y="126.09649122807019" fill="hsl(261, 60%, 38%)" stroke="none"></rect><rect width="14.473684210526315" height="14.473684210526315" x="459.42982456140356" y="126.09649122807019" fill="hsl(261, 60%, 38%)" stroke="none"></rect><rect width="14.473684210526315" height="14.473684210526315" x="526.0964912280702" y="126.09649122807019" fill="hsl(261, 60%, 38%)" stroke="none"></rect><rect width="14.473684210526315" height="14.473684210526315" x="592.7631578947369" y="126.09649122807019" fill="hsl(261, 60%, 38%)" stroke="none"></rect><rect width="14.473684210526315" height="14.473684210526315" x="659.4298245614035" y="126.09649122807019" fill="hsl(261, 60%, 38%)" stroke="none"></rect><rect width="14.473684210526315" height="14.473684210526315" x="726.0964912280701" y="126.09649122807019" fill="hsl(261, 60%, 38%)" stroke="none"></rect><rect width="14.473684210526315" height="14.473684210526315" x="792.7631578947368" y="126.09649122807019" fill="hsl(261, 60%, 38%)" stroke="none"></rect><rect width="14.473684210526315" height="14.473684210526315" x="-7.2368421052631575" y="192.76315789473685" fill="hsl(261, 60%, 38%)" stroke="none"></rect><rect width="14.473684210526315" height="14.473684210526315" x="59.429824561403514" y="192.76315789473685" fill="hsl(261, 60%, 38%)" stroke="none"></rect><rect width="14.473684210526315" height="14.473684210526315" x="126.09649122807019" y="192.76315789473685" fill="hsl(261, 60%, 38%)" stroke="none"></rect><rect width="14.473684210526315" height="14.473684210526315" x="192.76315789473685" y="192.76315789473685" fill="hsl(261, 60%, 38%)" stroke="none"></rect><rect width="14.473684210526315" height="14.473684210526315" x="259.4298245614035" y="192.76315789473685" fill="hsl(261, 60%, 38%)" stroke="none" transform="rotate(45, 266.6666666666667, 200)"></rect><rect width="14.473684210526315" height="14.473684210526315" x="326.0964912280702" y="192.76315789473685" fill="hsl(261, 60%, 38%)" stroke="none" transform="rotate(45, 333.33333333333337, 200)"></rect><rect width="14.473684210526315" height="14.473684210526315" x="392.7631578947369" y="192.76315789473685" fill="hsl(261, 60%, 38%)" stroke="none"></rect><rect width="14.473684210526315" height="14.473684210526315" x="459.42982456140356" y="192.76315789473685" fill="hsl(261, 60%, 38%)" stroke="none"></rect><rect width="14.473684210526315" height="14.473684210526315" x="526.0964912280702" y="192.76315789473685" fill="hsl(261, 60%, 38%)" stroke="none"></rect><rect width="14.473684210526315" height="14.473684210526315" x="592.7631578947369" y="192.76315789473685" fill="hsl(261, 60%, 38%)" stroke="none"></rect><rect width="14.473684210526315" height="14.473684210526315" x="659.4298245614035" y="192.76315789473685" fill="hsl(261, 60%, 38%)" stroke="none"></rect><rect width="14.473684210526315" height="14.473684210526315" x="726.0964912280701" y="192.76315789473685" fill="hsl(261, 60%, 38%)" stroke="none"></rect><rect width="14.473684210526315" height="14.473684210526315" x="792.7631578947368" y="192.76315789473685" fill="hsl(261, 60%, 38%)" stroke="none"></rect><rect width="14.473684210526315" height="14.473684210526315" x="-7.2368421052631575" y="259.4298245614035" fill="hsl(261, 60%, 38%)" stroke="none"></rect><rect width="14.473684210526315" height="14.473684210526315" x="59.429824561403514" y="259.4298245614035" fill="hsl(261, 60%, 38%)" stroke="none"></rect><rect width="14.473684210526315" height="14.473684210526315" x="126.09649122807019" y="259.4298245614035" fill="hsl(261, 60%, 38%)" stroke="none" transform="rotate(45, 133.33333333333334, 266.6666666666667)"></rect><rect width="14.473684210526315" height="14.473684210526315" x="192.76315789473685" y="259.4298245614035" fill="hsl(261, 60%, 38%)" stroke="none" transform="rotate(45, 200, 266.6666666666667)"></rect><rect width="14.473684210526315" height="14.473684210526315" x="259.4298245614035" y="259.4298245614035" fill="hsl(261, 60%, 38%)" stroke="none"></rect><rect width="14.473684210526315" height="14.473684210526315" x="326.0964912280702" y="259.4298245614035" fill="hsl(261, 60%, 38%)" stroke="none"></rect><rect width="14.473684210526315" height="14.473684210526315" x="392.7631578947369" y="259.4298245614035" fill="hsl(261, 60%, 38%)" stroke="none" transform="rotate(45, 400.00000000000006, 266.6666666666667)"></rect><rect width="14.473684210526315" height="14.473684210526315" x="459.42982456140356" y="259.4298245614035" fill="hsl(261, 60%, 38%)" stroke="none"></rect><rect width="14.473684210526315" height="14.473684210526315" x="526.0964912280702" y="259.4298245614035" fill="hsl(261, 60%, 38%)" stroke="none"></rect><rect width="14.473684210526315" height="14.473684210526315" x="592.7631578947369" y="259.4298245614035" fill="hsl(261, 60%, 38%)" stroke="none"></rect><rect width="14.473684210526315" height="14.473684210526315" x="659.4298245614035" y="259.4298245614035" fill="hsl(261, 60%, 38%)" stroke="none"></rect><rect width="14.473684210526315" height="14.473684210526315" x="726.0964912280701" y="259.4298245614035" fill="hsl(261, 60%, 38%)" stroke="none"></rect><rect width="14.473684210526315" height="14.473684210526315" x="792.7631578947368" y="259.4298245614035" fill="hsl(261, 60%, 38%)" stroke="none"></rect><rect width="14.473684210526315" height="14.473684210526315" x="-7.2368421052631575" y="326.0964912280702" fill="hsl(261, 60%, 38%)" stroke="none"></rect><rect width="14.473684210526315" height="14.473684210526315" x="59.429824561403514" y="326.0964912280702" fill="hsl(261, 60%, 38%)" stroke="none" transform="rotate(45, 66.66666666666667, 333.33333333333337)"></rect><rect width="14.473684210526315" height="14.473684210526315" x="126.09649122807019" y="326.0964912280702" fill="hsl(261, 60%, 38%)" stroke="none"></rect><rect width="14.473684210526315" height="14.473684210526315" x="192.76315789473685" y="326.0964912280702" fill="hsl(261, 60%, 38%)" stroke="none"></rect><rect width="14.473684210526315" height="14.473684210526315" x="259.4298245614035" y="326.0964912280702" fill="hsl(261, 60%, 38%)" stroke="none"></rect><rect width="14.473684210526315" height="14.473684210526315" x="326.0964912280702" y="326.0964912280702" fill="hsl(261, 60%, 38%)" stroke="none"></rect><rect width="14.473684210526315" height="14.473684210526315" x="392.7631578947369" y="326.0964912280702" fill="hsl(261, 60%, 38%)" stroke="none" transform="rotate(45, 400.00000000000006, 333.33333333333337)"></rect><rect width="14.473684210526315" height="14.473684210526315" x="459.42982456140356" y="326.0964912280702" fill="hsl(261, 60%, 38%)" stroke="none"></rect><rect width="14.473684210526315" height="14.473684210526315" x="526.0964912280702" y="326.0964912280702" fill="hsl(261, 60%, 38%)" stroke="none"></rect><rect width="14.473684210526315" height="14.473684210526315" x="592.7631578947369" y="326.0964912280702" fill="hsl(261, 60%, 38%)" stroke="none" transform="rotate(45, 600, 333.33333333333337)"></rect><rect width="14.473684210526315" height="14.473684210526315" x="659.4298245614035" y="326.0964912280702" fill="hsl(261, 60%, 38%)" stroke="none"></rect><rect width="14.473684210526315" height="14.473684210526315" x="726.0964912280701" y="326.0964912280702" fill="hsl(261, 60%, 38%)" stroke="none"></rect><rect width="14.473684210526315" height="14.473684210526315" x="792.7631578947368" y="326.0964912280702" fill="hsl(261, 60%, 38%)" stroke="none"></rect><rect width="14.473684210526315" height="14.473684210526315" x="-7.2368421052631575" y="392.7631578947369" fill="hsl(261, 60%, 38%)" stroke="none"></rect><rect width="14.473684210526315" height="14.473684210526315" x="59.429824561403514" y="392.7631578947369" fill="hsl(261, 60%, 38%)" stroke="none"></rect><rect width="14.473684210526315" height="14.473684210526315" x="126.09649122807019" y="392.7631578947369" fill="hsl(261, 60%, 38%)" stroke="none" transform="rotate(45, 133.33333333333334, 400.00000000000006)"></rect><rect width="14.473684210526315" height="14.473684210526315" x="192.76315789473685" y="392.7631578947369" fill="hsl(261, 60%, 38%)" stroke="none" transform="rotate(45, 200, 400.00000000000006)"></rect><rect width="14.473684210526315" height="14.473684210526315" x="259.4298245614035" y="392.7631578947369" fill="hsl(261, 60%, 38%)" stroke="none"></rect><rect width="14.473684210526315" height="14.473684210526315" x="326.0964912280702" y="392.7631578947369" fill="hsl(261, 60%, 38%)" stroke="none" transform="rotate(45, 333.33333333333337, 400.00000000000006)"></rect><rect width="14.473684210526315" height="14.473684210526315" x="392.7631578947369" y="392.7631578947369" fill="hsl(261, 60%, 38%)" stroke="none" transform="rotate(45, 400.00000000000006, 400.00000000000006)"></rect><rect width="14.473684210526315" height="14.473684210526315" x="459.42982456140356" y="392.7631578947369" fill="hsl(261, 60%, 38%)" stroke="none"></rect><rect width="14.473684210526315" height="14.473684210526315" x="526.0964912280702" y="392.7631578947369" fill="hsl(261, 60%, 38%)" stroke="none"></rect><rect width="14.473684210526315" height="14.473684210526315" x="592.7631578947369" y="392.7631578947369" fill="hsl(261, 60%, 38%)" stroke="none"></rect><rect width="14.473684210526315" height="14.473684210526315" x="659.4298245614035" y="392.7631578947369" fill="hsl(261, 60%, 38%)" stroke="none"></rect><rect width="14.473684210526315" height="14.473684210526315" x="726.0964912280701" y="392.7631578947369" fill="hsl(261, 60%, 38%)" stroke="none"></rect><rect width="14.473684210526315" height="14.473684210526315" x="792.7631578947368" y="392.7631578947369" fill="hsl(261, 60%, 38%)" stroke="none"></rect><rect width="14.473684210526315" height="14.473684210526315" x="-7.2368421052631575" y="459.42982456140356" fill="hsl(261, 60%, 38%)" stroke="none"></rect><rect width="14.473684210526315" height="14.473684210526315" x="59.429824561403514" y="459.42982456140356" fill="hsl(261, 60%, 38%)" stroke="none" transform="rotate(45, 66.66666666666667, 466.66666666666674)"></rect><rect width="14.473684210526315" height="14.473684210526315" x="126.09649122807019" y="459.42982456140356" fill="hsl(261, 60%, 38%)" stroke="none"></rect><rect width="14.473684210526315" height="14.473684210526315" x="192.76315789473685" y="459.42982456140356" fill="hsl(261, 60%, 38%)" stroke="none"></rect><rect width="14.473684210526315" height="14.473684210526315" x="259.4298245614035" y="459.42982456140356" fill="hsl(261, 60%, 38%)" stroke="none" transform="rotate(45, 266.6666666666667, 466.66666666666674)"></rect><rect width="14.473684210526315" height="14.473684210526315" x="326.0964912280702" y="459.42982456140356" fill="hsl(261, 60%, 38%)" stroke="none"></rect><rect width="14.473684210526315" height="14.473684210526315" x="392.7631578947369" y="459.42982456140356" fill="hsl(261, 60%, 38%)" stroke="none"></rect><rect width="14.473684210526315" height="14.473684210526315" x="459.42982456140356" y="459.42982456140356" fill="hsl(261, 60%, 38%)" stroke="none"></rect><rect width="14.473684210526315" height="14.473684210526315" x="526.0964912280702" y="459.42982456140356" fill="hsl(261, 60%, 38%)" stroke="none"></rect><rect width="14.473684210526315" height="14.473684210526315" x="592.7631578947369" y="459.42982456140356" fill="hsl(261, 60%, 38%)" stroke="none"></rect><rect width="14.473684210526315" height="14.473684210526315" x="659.4298245614035" y="459.42982456140356" fill="hsl(261, 60%, 38%)" stroke="none" transform="rotate(45, 666.6666666666666, 466.66666666666674)"></rect><rect width="14.473684210526315" height="14.473684210526315" x="726.0964912280701" y="459.42982456140356" fill="hsl(261, 60%, 38%)" stroke="none"></rect><rect width="14.473684210526315" height="14.473684210526315" x="792.7631578947368" y="459.42982456140356" fill="hsl(261, 60%, 38%)" stroke="none"></rect><rect width="14.473684210526315" height="14.473684210526315" x="-7.2368421052631575" y="526.0964912280702" fill="hsl(261, 60%, 38%)" stroke="none"></rect><rect width="14.473684210526315" height="14.473684210526315" x="59.429824561403514" y="526.0964912280702" fill="hsl(261, 60%, 38%)" stroke="none"></rect><rect width="14.473684210526315" height="14.473684210526315" x="126.09649122807019" y="526.0964912280702" fill="hsl(261, 60%, 38%)" stroke="none" transform="rotate(45, 133.33333333333334, 533.3333333333334)"></rect><rect width="14.473684210526315" height="14.473684210526315" x="192.76315789473685" y="526.0964912280702" fill="hsl(261, 60%, 38%)" stroke="none"></rect><rect width="14.473684210526315" height="14.473684210526315" x="259.4298245614035" y="526.0964912280702" fill="hsl(261, 60%, 38%)" stroke="none" transform="rotate(45, 266.6666666666667, 533.3333333333334)"></rect><rect width="14.473684210526315" height="14.473684210526315" x="326.0964912280702" y="526.0964912280702" fill="hsl(261, 60%, 38%)" stroke="none" transform="rotate(45, 333.33333333333337, 533.3333333333334)"></rect><rect width="14.473684210526315" height="14.473684210526315" x="392.7631578947369" y="526.0964912280702" fill="hsl(261, 60%, 38%)" stroke="none" transform="rotate(45, 400.00000000000006, 533.3333333333334)"></rect><rect width="14.473684210526315" height="14.473684210526315" x="459.42982456140356" y="526.0964912280702" fill="hsl(261, 60%, 38%)" stroke="none"></rect><rect width="14.473684210526315" height="14.473684210526315" x="526.0964912280702" y="526.0964912280702" fill="hsl(261, 60%, 38%)" stroke="none" transform="rotate(45, 533.3333333333334, 533.3333333333334)"></rect><rect width="14.473684210526315" height="14.473684210526315" x="592.7631578947369" y="526.0964912280702" fill="hsl(261, 60%, 38%)" stroke="none" transform="rotate(45, 600, 533.3333333333334)"></rect><rect width="14.473684210526315" height="14.473684210526315" x="659.4298245614035" y="526.0964912280702" fill="hsl(261, 60%, 38%)" stroke="none"></rect><rect width="14.473684210526315" height="14.473684210526315" x="726.0964912280701" y="526.0964912280702" fill="hsl(261, 60%, 38%)" stroke="none"></rect><rect width="14.473684210526315" height="14.473684210526315" x="792.7631578947368" y="526.0964912280702" fill="hsl(261, 60%, 38%)" stroke="none"></rect><rect width="14.473684210526315" height="14.473684210526315" x="-7.2368421052631575" y="592.7631578947369" fill="hsl(261, 60%, 38%)" stroke="none"></rect><rect width="14.473684210526315" height="14.473684210526315" x="59.429824561403514" y="592.7631578947369" fill="hsl(261, 60%, 38%)" stroke="none"></rect><rect width="14.473684210526315" height="14.473684210526315" x="126.09649122807019" y="592.7631578947369" fill="hsl(261, 60%, 38%)" stroke="none"></rect><rect width="14.473684210526315" height="14.473684210526315" x="192.76315789473685" y="592.7631578947369" fill="hsl(261, 60%, 38%)" stroke="none"></rect><rect width="14.473684210526315" height="14.473684210526315" x="259.4298245614035" y="592.7631578947369" fill="hsl(261, 60%, 38%)" stroke="none"></rect><rect width="14.473684210526315" height="14.473684210526315" x="326.0964912280702" y="592.7631578947369" fill="hsl(261, 60%, 38%)" stroke="none"></rect><rect width="14.473684210526315" height="14.473684210526315" x="392.7631578947369" y="592.7631578947369" fill="hsl(261, 60%, 38%)" stroke="none"></rect><rect width="14.473684210526315" height="14.473684210526315" x="459.42982456140356" y="592.7631578947369" fill="hsl(261, 60%, 38%)" stroke="none"></rect><rect width="14.473684210526315" height="14.473684210526315" x="526.0964912280702" y="592.7631578947369" fill="hsl(261, 60%, 38%)" stroke="none"></rect><rect width="14.473684210526315" height="14.473684210526315" x="592.7631578947369" y="592.7631578947369" fill="hsl(261, 60%, 38%)" stroke="none"></rect><rect width="14.473684210526315" height="14.473684210526315" x="659.4298245614035" y="592.7631578947369" fill="hsl(261, 60%, 38%)" stroke="none"></rect><rect width="14.473684210526315" height="14.473684210526315" x="726.0964912280701" y="592.7631578947369" fill="hsl(261, 60%, 38%)" stroke="none"></rect><rect width="14.473684210526315" height="14.473684210526315" x="792.7631578947368" y="592.7631578947369" fill="hsl(261, 60%, 38%)" stroke="none"></rect><rect width="14.473684210526315" height="14.473684210526315" x="-7.2368421052631575" y="659.4298245614035" fill="hsl(261, 60%, 38%)" stroke="none"></rect><rect width="14.473684210526315" height="14.473684210526315" x="59.429824561403514" y="659.4298245614035" fill="hsl(261, 60%, 38%)" stroke="none" transform="rotate(45, 66.66666666666667, 666.6666666666666)"></rect><rect width="14.473684210526315" height="14.473684210526315" x="126.09649122807019" y="659.4298245614035" fill="hsl(261, 60%, 38%)" stroke="none"></rect><rect width="14.473684210526315" height="14.473684210526315" x="192.76315789473685" y="659.4298245614035" fill="hsl(261, 60%, 38%)" stroke="none"></rect><rect width="14.473684210526315" height="14.473684210526315" x="259.4298245614035" y="659.4298245614035" fill="hsl(261, 60%, 38%)" stroke="none"></rect><rect width="14.473684210526315" height="14.473684210526315" x="326.0964912280702" y="659.4298245614035" fill="hsl(261, 60%, 38%)" stroke="none"></rect><rect width="14.473684210526315" height="14.473684210526315" x="392.7631578947369" y="659.4298245614035" fill="hsl(261, 60%, 38%)" stroke="none" transform="rotate(45, 400.00000000000006, 666.6666666666666)"></rect><rect width="14.473684210526315" height="14.473684210526315" x="459.42982456140356" y="659.4298245614035" fill="hsl(261, 60%, 38%)" stroke="none"></rect><rect width="14.473684210526315" height="14.473684210526315" x="526.0964912280702" y="659.4298245614035" fill="hsl(261, 60%, 38%)" stroke="none" transform="rotate(45, 533.3333333333334, 666.6666666666666)"></rect><rect width="14.473684210526315" height="14.473684210526315" x="592.7631578947369" y="659.4298245614035" fill="hsl(261, 60%, 38%)" stroke="none" transform="rotate(45, 600, 666.6666666666666)"></rect><rect width="14.473684210526315" height="14.473684210526315" x="659.4298245614035" y="659.4298245614035" fill="hsl(261, 60%, 38%)" stroke="none"></rect><rect width="14.473684210526315" height="14.473684210526315" x="726.0964912280701" y="659.4298245614035" fill="hsl(261, 60%, 38%)" stroke="none" transform="rotate(45, 733.3333333333333, 666.6666666666666)"></rect><rect width="14.473684210526315" height="14.473684210526315" x="792.7631578947368" y="659.4298245614035" fill="hsl(261, 60%, 38%)" stroke="none"></rect><rect width="14.473684210526315" height="14.473684210526315" x="-7.2368421052631575" y="726.0964912280701" fill="hsl(261, 60%, 38%)" stroke="none"></rect><rect width="14.473684210526315" height="14.473684210526315" x="59.429824561403514" y="726.0964912280701" fill="hsl(261, 60%, 38%)" stroke="none"></rect><rect width="14.473684210526315" height="14.473684210526315" x="126.09649122807019" y="726.0964912280701" fill="hsl(261, 60%, 38%)" stroke="none" transform="rotate(45, 133.33333333333334, 733.3333333333333)"></rect><rect width="14.473684210526315" height="14.473684210526315" x="192.76315789473685" y="726.0964912280701" fill="hsl(261, 60%, 38%)" stroke="none"></rect><rect width="14.473684210526315" height="14.473684210526315" x="259.4298245614035" y="726.0964912280701" fill="hsl(261, 60%, 38%)" stroke="none"></rect><rect width="14.473684210526315" height="14.473684210526315" x="326.0964912280702" y="726.0964912280701" fill="hsl(261, 60%, 38%)" stroke="none"></rect><rect width="14.473684210526315" height="14.473684210526315" x="392.7631578947369" y="726.0964912280701" fill="hsl(261, 60%, 38%)" stroke="none" transform="rotate(45, 400.00000000000006, 733.3333333333333)"></rect><rect width="14.473684210526315" height="14.473684210526315" x="459.42982456140356" y="726.0964912280701" fill="hsl(261, 60%, 38%)" stroke="none" transform="rotate(45, 466.66666666666674, 733.3333333333333)"></rect><rect width="14.473684210526315" height="14.473684210526315" x="526.0964912280702" y="726.0964912280701" fill="hsl(261, 60%, 38%)" stroke="none"></rect><rect width="14.473684210526315" height="14.473684210526315" x="592.7631578947369" y="726.0964912280701" fill="hsl(261, 60%, 38%)" stroke="none"></rect><rect width="14.473684210526315" height="14.473684210526315" x="659.4298245614035" y="726.0964912280701" fill="hsl(261, 60%, 38%)" stroke="none"></rect><rect width="14.473684210526315" height="14.473684210526315" x="726.0964912280701" y="726.0964912280701" fill="hsl(261, 60%, 38%)" stroke="none"></rect><rect width="14.473684210526315" height="14.473684210526315" x="792.7631578947368" y="726.0964912280701" fill="hsl(261, 60%, 38%)" stroke="none"></rect><rect width="14.473684210526315" height="14.473684210526315" x="-7.2368421052631575" y="792.7631578947368" fill="hsl(261, 60%, 38%)" stroke="none"></rect><rect width="14.473684210526315" height="14.473684210526315" x="59.429824561403514" y="792.7631578947368" fill="hsl(261, 60%, 38%)" stroke="none"></rect><rect width="14.473684210526315" height="14.473684210526315" x="126.09649122807019" y="792.7631578947368" fill="hsl(261, 60%, 38%)" stroke="none"></rect><rect width="14.473684210526315" height="14.473684210526315" x="192.76315789473685" y="792.7631578947368" fill="hsl(261, 60%, 38%)" stroke="none"></rect><rect width="14.473684210526315" height="14.473684210526315" x="259.4298245614035" y="792.7631578947368" fill="hsl(261, 60%, 38%)" stroke="none"></rect><rect width="14.473684210526315" height="14.473684210526315" x="326.0964912280702" y="792.7631578947368" fill="hsl(261, 60%, 38%)" stroke="none"></rect><rect width="14.473684210526315" height="14.473684210526315" x="392.7631578947369" y="792.7631578947368" fill="hsl(261, 60%, 38%)" stroke="none"></rect><rect width="14.473684210526315" height="14.473684210526315" x="459.42982456140356" y="792.7631578947368" fill="hsl(261, 60%, 38%)" stroke="none"></rect><rect width="14.473684210526315" height="14.473684210526315" x="526.0964912280702" y="792.7631578947368" fill="hsl(261, 60%, 38%)" stroke="none"></rect><rect width="14.473684210526315" height="14.473684210526315" x="592.7631578947369" y="792.7631578947368" fill="hsl(261, 60%, 38%)" stroke="none"></rect><rect width="14.473684210526315" height="14.473684210526315" x="659.4298245614035" y="792.7631578947368" fill="hsl(261, 60%, 38%)" stroke="none"></rect><rect width="14.473684210526315" height="14.473684210526315" x="726.0964912280701" y="792.7631578947368" fill="hsl(261, 60%, 38%)" stroke="none"></rect><rect width="14.473684210526315" height="14.473684210526315" x="792.7631578947368" y="792.7631578947368" fill="hsl(261, 60%, 38%)" stroke="none"></rect></g></svg>