<?xml version="1.0" ?><svg id="Lines" viewBox="0 0 512 512" xmlns="http://www.w3.org/2000/svg"><defs><style>.cls-1{fill:#3f456b;}</style></defs><title/><path class="cls-1" d="M209.7,495.55c-14.64,0-31.34-3.24-50-9.78C101.92,465.53,56,422.41,30.54,364.36S3,240.54,24.58,178.84,89,67,145,37.59,263.91,3.08,321.7,23.33,425.37,86.69,450.87,144.74s27.57,123.81,6,185.52c-.39,1.11-9.77,27.31-30.44,36.56-9.73,4.35-20.23,4.26-31.21-.28a5,5,0,0,1,3.82-9.25c8.46,3.5,16.08,3.63,23.3.4,16.79-7.51,25-30.51,25.09-30.74,20.77-59.3,18.76-122.58-5.67-178.19s-68.18-96.68-123.33-116S203.32,18.31,149.64,46.45,54.79,122.85,34,182.15,15.26,304.73,39.69,360.34,107.87,457,163,476.34c21.88,7.66,40.89,10.53,56.51,8.55,20.8-2.65,35-13.62,43.38-33.53,4.7-11.16,7.27-23,4.54-44.69-3-24-.33-42.71,8-55.72,7.4-11.59,18.94-18.49,34.31-20.5a5,5,0,0,1,1.29,9.92c-27.31,3.57-38.63,25.45-33.65,65.05,3,23.88.08,37.18-5.25,49.82C260.84,482,239.61,495.55,209.7,495.55Z"/><path class="cls-1" d="M188,441.45a44.95,44.95,0,1,1,19.4-4.46A44.94,44.94,0,0,1,188,441.45Zm0-79.69a34.83,34.83,0,1,0,32.84,46.35h0A34.84,34.84,0,0,0,188,361.76Z"/><path class="cls-1" d="M351.71,165a37.08,37.08,0,1,1,35-24.82h0A37.16,37.16,0,0,1,351.71,165Zm0-64.18a27.09,27.09,0,1,0,25.58,36.05h0a27.13,27.13,0,0,0-25.58-36Zm30.3,37.7h0Z"/><path class="cls-1" d="M392.27,263.94a37.08,37.08,0,1,1,35-24.82h0A37.16,37.16,0,0,1,392.27,263.94Zm0-64.18a27.13,27.13,0,1,0,9,1.54A27,27,0,0,0,392.28,199.76Zm30.3,37.71h0Z"/><path class="cls-1" d="M251.27,124.5a37.09,37.09,0,1,1,35-24.83h0A37.14,37.14,0,0,1,251.27,124.5Zm.06-64.17a27.07,27.07,0,1,0,8.93,1.52A27.14,27.14,0,0,0,251.33,60.33ZM281.58,98h0Z"/><path class="cls-1" d="M151.37,167.91a37.11,37.11,0,1,1,35-24.85h0a37.14,37.14,0,0,1-35,24.85Zm0-64.19a27.1,27.1,0,1,0,8.93,1.53A26.79,26.79,0,0,0,151.36,103.72Zm30.26,37.69h0Z"/><path class="cls-1" d="M90,255.56a37.08,37.08,0,1,1,35-24.83h0A37.16,37.16,0,0,1,90,255.56Zm.06-64.17A27.08,27.08,0,1,0,99,192.91,27.12,27.12,0,0,0,90.1,191.39Zm30.26,37.69h0Z"/><path class="cls-1" d="M99.06,362.39a37.09,37.09,0,1,1,35-24.83h0A37.14,37.14,0,0,1,99.06,362.39Zm.06-64.17a27.07,27.07,0,1,0,8.93,1.52A27.13,27.13,0,0,0,99.12,298.22Zm30.25,37.69h0Z"/><path class="cls-1" d="M470.67,500.84h-.13a31,31,0,0,1-22.08-9.26l-.13-.13L285.4,314.29a5,5,0,0,1,.16-6.93L312.12,281a5,5,0,0,1,7,0L431.33,388.48l7.5,7.12,54,51.84.09.09a31.3,31.3,0,0,1-22.24,53.31ZM455.62,484.6a21.12,21.12,0,0,0,15,6.24h.08a21.29,21.29,0,0,0,15.19-36.23l-53.93-51.78-7.48-7.11h0L315.7,291.56,296,311.07Z"/><path class="cls-1" d="M289.08,315.91a5,5,0,0,1-3.68-1.61c-18.85-20.45-32.86-34.68-33-34.82a5,5,0,0,1,0-7.05l24.92-24.81a5,5,0,0,1,7.06,0c16.85,16.77,34.68,33.11,34.86,33.28a5,5,0,0,1-6.76,7.37c-.17-.15-15.75-14.44-31.62-30.06L263,276c5.33,5.49,16.33,16.93,29.76,31.5a5,5,0,0,1-3.67,8.39Z"/><path class="cls-1" d="M240.68,283c-6.72,0-23.29-2.15-37.51-21.38-22.29-30.15-14.14-70.22-13.78-71.91a5,5,0,0,1,3.82-3.85c1.72-.38,42.51-9,71.72,12.77,22.51,16.78,22.05,38.08,21.94,40.21,0,1.19-.41,10.4-4.52,17.67a5,5,0,1,1-8.71-4.93c3-5.34,3.23-12.94,3.23-13a2.26,2.26,0,0,0,0-.26c0-.68.75-17.74-17.92-31.65-21.17-15.77-50.56-13.06-60.32-11.6-1.32,9.67-3.59,38.76,12.57,60.63,14.21,19.21,30.39,17.34,31.07,17.25a4.2,4.2,0,0,1,.79-.05c.05,0,7.43,0,12.62-3.59a5,5,0,1,1,5.73,8.2c-7.13,5-16.15,5.37-18.15,5.39C242.77,282.92,241.89,283,240.68,283Z"/></svg>