<?xml version="1.0" ?><svg viewBox="0 0 512 512" xmlns="http://www.w3.org/2000/svg"><defs><style>.cls-1{fill:#3f456b;}.cls-2{fill:#384169;}</style></defs><title/><g id="Lines"><path class="cls-1" d="M88,261.62a5,5,0,0,1-1.58-9.74c.66-.23,14-5,14-21.5,0-17-13.55-22.69-13.69-22.75A5,5,0,0,1,88.62,198H249.38c8.52.49,24.62,7.88,24.62,32.37,0,30.88-25.27,31.24-25.53,31.24a5,5,0,0,1,0-10c1.55,0,15.53-.87,15.53-21.24,0-20.54-13.58-22.25-15.08-22.38H102.86a34.62,34.62,0,0,1,7.56,22.38c0,19.11-13.65,28.63-20.86,31A5,5,0,0,1,88,261.62Z"/><path class="cls-1" d="M496,422H16a5,5,0,0,1-5-5V257a5,5,0,0,1,5-5H496a5,5,0,0,1,5,5V417A5,5,0,0,1,496,422ZM21,412H491V262H21Z"/><path class="cls-1" d="M64,502a5.47,5.47,0,0,1-.9-.08,5,5,0,0,1-4-5.81l9-50a5,5,0,1,1,9.84,1.78l-9,50A5,5,0,0,1,64,502Z"/><path class="cls-1" d="M449,502a5,5,0,0,1-4.93-4.21l-8-50a5,5,0,0,1,9.88-1.58l8,50a5,5,0,0,1-4.15,5.73A5.39,5.39,0,0,1,449,502Z"/><path class="cls-1" d="M449,262H289a5,5,0,0,1-5-5V63a5,5,0,0,1,5-5H449a5,5,0,0,1,5,5V257A5,5,0,0,1,449,262ZM294,252H444V68H294Z"/><path class="cls-1" d="M423.74,234.74H313.5a5,5,0,0,1-5-5V88.65a5,5,0,0,1,5-5H423.74a5,5,0,0,1,5,5V229.74A5,5,0,0,1,423.74,234.74Zm-105.24-10H418.74V93.65H318.5Z"/><path class="cls-1" d="M336,422a5,5,0,0,1-5-5V257a5,5,0,0,1,10,0V417A5,5,0,0,1,336,422Z"/><path class="cls-1" d="M176,422a5,5,0,0,1-5-5V257a5,5,0,0,1,10,0V417A5,5,0,0,1,176,422Z"/><path class="cls-1" d="M145,342a5,5,0,0,1-5-5v-3a5,5,0,0,1,10,0v3A5,5,0,0,1,145,342Z"/><path class="cls-1" d="M305,342a5,5,0,0,1-5-5v-3a5,5,0,0,1,10,0v3A5,5,0,0,1,305,342Z"/><path class="cls-1" d="M369,342a5,5,0,0,1-5-5v-3a5,5,0,0,1,10,0v3A5,5,0,0,1,369,342Z"/><path class="cls-1" d="M39.75,261a5,5,0,0,1-5-5V154.35c0-28.6,17.88-41.52,25.3-45.64V98a5,5,0,0,1,5-5H95a5,5,0,0,1,5,5v10.61c7.55,4,25.3,16.43,25.3,45.74V203a5,5,0,0,1-10,0V154.35c0-29.51-21.79-37.77-22-37.85A5,5,0,0,1,90,111.8V103H70.05v8.8a5,5,0,0,1-3.13,4.64c-.88.36-22.17,9.51-22.17,37.91V256A5,5,0,0,1,39.75,261Z"/><path class="cls-1" d="M79.66,103a5,5,0,0,1-5-4.66L69,15.34a5,5,0,0,1,10-.68l5.66,83A5,5,0,0,1,80,103Z"/><path class="cls-1" d="M90.34,103a5.47,5.47,0,0,1-.9-.08,5,5,0,0,1-4-5.82l9.67-53a5,5,0,0,1,9.84,1.8l-9.67,53A5,5,0,0,1,90.34,103Z"/><path class="cls-1" d="M68,103a5,5,0,0,1-4.67-3.23l-11-29a5,5,0,0,1,9.34-3.54l11,29a5,5,0,0,1-2.9,6.44A4.78,4.78,0,0,1,68,103Z"/><path class="cls-1" d="M249,208H139a5,5,0,0,1-5-5V175a5,5,0,0,1,5-5H249a5,5,0,0,1,5,5v28A5,5,0,0,1,249,208ZM144,198H244V180H144Z"/><path class="cls-2" d="M465,452H48.5a5,5,0,0,1-5-5V417a5,5,0,0,1,10,0v25H460V417a5,5,0,0,1,10,0v30A5,5,0,0,1,465,452Z"/></g><g id="Outline"><path class="cls-1" d="M266.51,226.25H109.77a5,5,0,1,1,0-10H266.51a5,5,0,0,1,0,10Z"/><path class="cls-1" d="M266.51,244.51H109.77a5,5,0,1,1,0-10H266.51a5,5,0,0,1,0,10Z"/><path class="cls-1" d="M400,125H336a5,5,0,0,1,0-10h64a5,5,0,0,1,0,10Z"/><path class="cls-1" d="M400,150H336a5,5,0,0,1,0-10h64a5,5,0,0,1,0,10Z"/><path class="cls-1" d="M400,175H336a5,5,0,0,1,0-10h64a5,5,0,0,1,0,10Z"/><path class="cls-1" d="M369,200H336a5,5,0,0,1,0-10h33a5,5,0,0,1,0,10Z"/></g></svg>