<?xml version="1.0" ?><svg viewBox="0 0 512 512" xmlns="http://www.w3.org/2000/svg"><defs><style>.cls-1{fill:#3f456b;}</style></defs><title/><g id="Lines"><path class="cls-1" d="M361,430H273a5,5,0,0,1-5-5V82a5,5,0,0,1,5-5h86a5,5,0,0,1,0,10H278V420h83a5,5,0,0,1,0,10Z"/><path class="cls-1" d="M359,259H192a5,5,0,0,1,0-10H359a5,5,0,0,1,0,10Z"/><path class="cls-1" d="M496,147H359a5,5,0,0,1-5-5V22a5,5,0,0,1,5-5H496a5,5,0,0,1,5,5V142A5,5,0,0,1,496,147ZM364,137H491V27H364Z"/><path class="cls-1" d="M495,319H359a5,5,0,0,1-5-5V194a5,5,0,0,1,5-5H495a5,5,0,0,1,5,5V314A5,5,0,0,1,495,319ZM364,309H490V199H364Z"/><path class="cls-1" d="M497,490H361a5,5,0,0,1-5-5V365a5,5,0,0,1,5-5H497a5,5,0,0,1,5,5V485A5,5,0,0,1,497,490ZM366,480H492V370H366Z"/><path class="cls-1" d="M192,328H16a5,5,0,0,1-5-5V185a5,5,0,0,1,5-5H192a5,5,0,0,1,5,5V323A5,5,0,0,1,192,328ZM21,318H187V190H21Z"/></g><g id="Outline"><path class="cls-1" d="M463,72H394a5,5,0,0,1,0-10h69a5,5,0,0,1,0,10Z"/><path class="cls-1" d="M463,101H394a5,5,0,0,1,0-10h69a5,5,0,0,1,0,10Z"/><path class="cls-1" d="M462,244H393a5,5,0,0,1,0-10h69a5,5,0,0,1,0,10Z"/><path class="cls-1" d="M462,273H393a5,5,0,0,1,0-10h69a5,5,0,0,1,0,10Z"/><path class="cls-1" d="M464,415H395a5,5,0,0,1,0-10h69a5,5,0,0,1,0,10Z"/><path class="cls-1" d="M464,444H395a5,5,0,0,1,0-10h69a5,5,0,0,1,0,10Z"/><path class="cls-1" d="M159,230H52a5,5,0,0,1,0-10H159a5,5,0,0,1,0,10Z"/><path class="cls-1" d="M159,259H52a5,5,0,0,1,0-10H159a5,5,0,0,1,0,10Z"/><path class="cls-1" d="M120,288H52a5,5,0,0,1,0-10h68a5,5,0,0,1,0,10Z"/></g></svg>