<?xml version="1.0" ?><svg viewBox="0 0 512 512" xmlns="http://www.w3.org/2000/svg"><defs><style>.cls-1{fill:#3f456b;}</style></defs><title/><g id="Lines"><path class="cls-1" d="M65.36,463.68a15,15,0,0,1-14.79-12.59L10.14,203.37a15,15,0,0,1,12.39-17.22l185.55-30.28a15,15,0,0,1,17.22,12.39L265.72,416a15,15,0,0,1-12.38,17.22L67.79,463.48A14.23,14.23,0,0,1,65.36,463.68Zm145.13-298a5.29,5.29,0,0,0-.8.06L24.14,196A5,5,0,0,0,20,201.76L60.44,449.48a5,5,0,0,0,5.74,4.13l185.55-30.28h0a5,5,0,0,0,4.12-5.74L215.43,169.87a5.05,5.05,0,0,0-4.94-4.19Z"/><path class="cls-1" d="M59,262.71a15.64,15.64,0,0,1-8.65-2.59,14.28,14.28,0,0,1-6.28-9.62l-4.42-26.78a14.26,14.26,0,0,1,2.87-11.13,15.73,15.73,0,0,1,9.94-5.87L188,184.36c8.39-1.38,16.27,4,17.59,12L210,223.13h0a14.3,14.3,0,0,1-2.87,11.13,15.74,15.74,0,0,1-10,5.88L61.65,262.49A16,16,0,0,1,59,262.71Zm131.6-68.56a5.81,5.81,0,0,0-1,.08L54.08,216.59a5.67,5.67,0,0,0-3.65,2.12,4.32,4.32,0,0,0-.92,3.38l4.41,26.78a4.39,4.39,0,0,0,2,2.92,5.75,5.75,0,0,0,4.14.83l135.5-22.35a5.76,5.76,0,0,0,3.65-2.12,4.36,4.36,0,0,0,.92-3.39L195.68,198A4.94,4.94,0,0,0,190.59,194.15Z"/><path class="cls-1" d="M28.92,292.44a5,5,0,0,1-.8-9.93l203.31-33.18A5,5,0,1,1,233,259.2L29.73,292.38A5.52,5.52,0,0,1,28.92,292.44Z"/><path class="cls-1" d="M42.94,378.31a5,5,0,0,1-.8-9.94l203.31-33.18a5,5,0,1,1,1.61,9.87L43.75,378.24A4.59,4.59,0,0,1,42.94,378.31Z"/><path class="cls-1" d="M160.74,448.25a5,5,0,0,1-4.93-4.2L127.62,271.34a5,5,0,1,1,9.87-1.61l28.19,172.71a5,5,0,0,1-4.13,5.74A4.43,4.43,0,0,1,160.74,448.25Z"/><path class="cls-1" d="M71.91,349.3a5,5,0,0,1-4-7.92l33.32-46.33a5,5,0,0,1,8.12,5.84L76,347.22A5,5,0,0,1,71.91,349.3Z"/><path class="cls-1" d="M111.54,342.83a5,5,0,0,1-2.92-.94L62.29,308.56a5,5,0,0,1,5.84-8.12l46.33,33.33a5,5,0,0,1-2.92,9.06Z"/><path class="cls-1" d="M193.76,334.11a5,5,0,0,1-4.92-4.19l-7.84-48a5,5,0,0,1,9.87-1.61l7.84,48a5,5,0,0,1-4.13,5.74A5.76,5.76,0,0,1,193.76,334.11Z"/><path class="cls-1" d="M165.82,314a5,5,0,0,1-.79-9.93l46.74-7.63a5,5,0,0,1,1.61,9.87L166.64,314A5.76,5.76,0,0,1,165.82,314Z"/><path class="cls-1" d="M179.05,388.86a5,5,0,0,1-.8-9.94L225,371.3a5,5,0,0,1,1.61,9.87l-46.75,7.62A4.43,4.43,0,0,1,179.05,388.86Z"/><path class="cls-1" d="M182.92,412.55a5,5,0,0,1-.8-9.94L228.86,395a5,5,0,0,1,1.61,9.87l-46.74,7.63A5.54,5.54,0,0,1,182.92,412.55Z"/><path class="cls-1" d="M76.61,417a5,5,0,0,1-.8-9.94l50-8.16a5,5,0,1,1,1.61,9.87l-50,8.16A5.54,5.54,0,0,1,76.61,417Z"/><path class="cls-1" d="M480,500H81a5,5,0,0,1-5-5V456H86v34H475V399.25h10V495A5,5,0,0,1,480,500Z"/><path class="cls-1" d="M86,180.49H76V15a5,5,0,0,1,5-5H480a5,5,0,0,1,5,5V80H475V20H86Z"/><path class="cls-1" d="M475.23,403a5.25,5.25,0,0,1-3.68-1.53c-3.58-3.5-6.69-21.55-7.86-29.15-2.23-14.49-4.92-39.19-5.1-74.53L458.24,86a12.35,12.35,0,0,1,3.14-8.77A7.46,7.46,0,0,1,466.7,75l26.07-.13a7.07,7.07,0,0,1,5,2.09,11.9,11.9,0,0,1,3.13,8.45l.35,211.71c.18,36.35-2.55,61.65-4.87,76.47a172,172,0,0,1-4,19.3c-1.4,5.05-2.72,9.81-7.23,9.89l-9.86.19Zm-6.9-318a5,5,0,0,0-.09,1l.35,211.71c.29,57.14,7.06,87.13,9.69,95.19l3.73-.07c2.64-8,9.53-38.31,9.24-95.68L490.9,85.43a4.75,4.75,0,0,0,0-.56Zm-1.59,0h0Zm26.05-.13h0Z"/><rect class="cls-1" height="25.76" rx="5" ry="5" width="10" x="474.97" y="393.24"/><path class="cls-1" d="M464.84,252a5,5,0,1,1,0-10l30,0h0a5,5,0,1,1,0,10l-30,0Z"/></g><g id="Outline"><path class="cls-1" d="M369,327a5,5,0,0,1-4.39-2.61L348.5,294.86l-7.18,2a5,5,0,1,1-2.64-9.64l11-3a5,5,0,0,1,5.71,2.43l9.84,18,5.78-81a5,5,0,0,1,4.52-4.62l64-6a5,5,0,0,1,.94,10l-59.78,5.6L374,322.36a5,5,0,0,1-3.93,4.53A5.45,5.45,0,0,1,369,327Z"/><path class="cls-1" d="M379.05,470.84A23.4,23.4,0,0,1,361,462.1a33.08,33.08,0,0,1-6.05-10.9,76.21,76.21,0,0,1-8-1.32,5,5,0,1,1,2.14-9.76c1,.22,2.39.49,4,.74a30.41,30.41,0,0,1,1.09-9.07,21,21,0,0,1,14.39-14.38,21.75,21.75,0,0,1,20.61,4.25c5.94,5.14,6.86,13.29,2.24,19.83a20.79,20.79,0,0,1-10.57,7.62,55.81,55.81,0,0,1-14.9,2.53,21.28,21.28,0,0,0,2.65,4,13.3,13.3,0,0,0,22-1.28,5,5,0,0,1,8.59,5.12,23.7,23.7,0,0,1-17.41,11.22A24.39,24.39,0,0,1,379.05,470.84Zm-15.9-29.17a46.54,46.54,0,0,0,14.63-2.08,10.8,10.8,0,0,0,5.46-3.88,4.57,4.57,0,0,0-.61-6.49A11.8,11.8,0,0,0,371.44,427a11,11,0,0,0-7.65,7.51A21.19,21.19,0,0,0,363.15,441.67Z"/><path class="cls-1" d="M398,258a5,5,0,0,1-.27-10l37-2a5,5,0,0,1,.54,10l-37,2Z"/><path class="cls-1" d="M406,285a5.06,5.06,0,0,1-2-.4A5,5,0,0,1,401.4,278a48.16,48.16,0,0,0,3.42-24.19,5,5,0,0,1,9.86-1.69A57.66,57.66,0,0,1,410.6,282,5,5,0,0,1,406,285Z"/><path class="cls-1" d="M427,285a5,5,0,0,1-5-4.73l-1.5-28a5,5,0,1,1,10-.54l1.5,28a5,5,0,0,1-4.72,5.26Z"/><path class="cls-1" d="M390,309a5,5,0,0,1-.36-10l54-4a5,5,0,1,1,.74,10l-54,4Z"/><path class="cls-1" d="M402,350a5,5,0,0,1-4.85-6.21l6-24a5,5,0,1,1,9.7,2.42l-4.31,17.24L438.6,337a5,5,0,1,1,.8,10l-37,3Z"/><path class="cls-1" d="M422,367a5,5,0,0,1-5-5V322a5,5,0,0,1,10,0v40A5,5,0,0,1,422,367Z"/><path class="cls-1" d="M128.07,139.86a5,5,0,0,1-.56-10c2.48-.28,4.16-1.09,5.15-2.47,1.73-2.43,1.28-6.48,1.06-7.43a4.85,4.85,0,0,1-.09-.55l-5.82-51.8A18.44,18.44,0,0,1,131,54.45c3-4,7.52-6.3,13.54-7s11,.63,14.61,3.91c5.33,4.83,5.4,11.86,5.39,12.64a5,5,0,0,1-10-.07c0-.16-.1-3.39-2.14-5.19-1.41-1.24-3.67-1.7-6.74-1.35s-5.41,1.38-6.65,3a8.66,8.66,0,0,0-1.32,5.66c0,.1,0,.21.05.31l5.8,51.69c.35,1.78,1.48,9.2-2.74,15.12-1.84,2.6-5.45,5.85-12.17,6.6A3.6,3.6,0,0,1,128.07,139.86Z"/><path class="cls-1" d="M120.26,99.66a5,5,0,0,1-.55-10l29.21-3.28A5,5,0,0,1,150,96.35l-29.2,3.28A5.44,5.44,0,0,1,120.26,99.66Z"/><path class="cls-1" d="M179.81,132.4a5,5,0,0,1-3.3-1.24c-.43-.38-10.59-9.51-12.7-28.25s5.78-29.89,6.11-30.36a5,5,0,0,1,8.13,5.83c-.29.42-5.94,8.79-4.3,23.41s9.28,21.79,9.36,21.86a5,5,0,0,1-3.3,8.75Z"/><path class="cls-1" d="M231.72,126.57a5,5,0,0,1-4.07-7.9c.3-.42,5.95-8.79,4.3-23.41s-9.28-21.79-9.36-21.85a5,5,0,1,1,6.61-7.51c.43.37,10.59,9.5,12.69,28.24s-5.77,29.89-6.11,30.36A5,5,0,0,1,231.72,126.57Z"/><path class="cls-1" d="M217.29,115.05a5,5,0,0,1-3.12-1.09l-28.87-23a5,5,0,0,1,6.23-7.81l28.88,23a5,5,0,0,1-3.12,8.91Z"/><path class="cls-1" d="M191.33,118a4.94,4.94,0,0,1-3.12-1.09,5,5,0,0,1-.79-7l23-28.87a5,5,0,0,1,7.82,6.24l-23,28.87A5,5,0,0,1,191.33,118Z"/><path class="cls-1" d="M257,87a5,5,0,0,1-.17-10l30-1a5,5,0,0,1,.34,10l-30,1Z"/><path class="cls-1" d="M257,107a5,5,0,0,1-.17-10l30-1a5,5,0,0,1,.34,10l-30,1Z"/><path class="cls-1" d="M320.11,157.3a23.32,23.32,0,0,1-5.51-.65,14.49,14.49,0,0,1-8.56-5.23c-3.23-4.36-2.59-10.38,1.55-14.64,4.69-4.83,11.56-7,19.87-6.36a41.09,41.09,0,0,1,7.86,1.45,12,12,0,0,0-5.9-10.67c-3.75-2.22-9.85-3-15.71,1.43a5,5,0,0,1-6-8c8.08-6.12,18.61-6.93,26.84-2.07,7.88,4.67,11.91,13.58,10.53,23.29a33.09,33.09,0,0,1,11.06,9.4,5,5,0,1,1-8.2,5.74,21.47,21.47,0,0,0-6.38-5.64,25.73,25.73,0,0,1-7.39,7.57A25.13,25.13,0,0,1,320.11,157.3Zm4.52-17c-3.33,0-7.21.71-9.87,3.44-.58.6-.91,1.42-.68,1.72a5.3,5.3,0,0,0,2.88,1.46,14.64,14.64,0,0,0,11.58-2.27,16,16,0,0,0,3.59-3.3,30.53,30.53,0,0,0-5.47-1C326,140.34,325.34,140.31,324.63,140.31Z"/><path class="cls-1" d="M305,100a5,5,0,0,1-.31-10l48-3a5,5,0,0,1,.62,10l-48,3Z"/><path class="cls-1" d="M326,78a5,5,0,0,1-5-5V47a5,5,0,0,1,10,0V73A5,5,0,0,1,326,78Z"/><path class="cls-1" d="M400.12,420a5,5,0,0,1-3.07-8.95c7.5-5.83,10.5-12.92,9.51-16.63-.23-.88-.7-1.73-2.56-2-1.66-.24-2.86-.06-3.56.54A5.86,5.86,0,0,0,399,396.7a5,5,0,0,1-10-.05c0-.72.14-7.13,4.86-11.23,2.06-1.78,5.73-3.73,11.55-2.9a12.47,12.47,0,0,1,10.82,9.33c1.3,4.89.07,10.62-3.17,16.1l6.18-.95a5,5,0,0,1,1.52,9.88l-19.88,3.06A5,5,0,0,1,400.12,420Z"/><path class="cls-1" d="M336.19,222.94c-.44,0-.88,0-1.32-.05-10.14-.75-16.27-7-21.49-13.09-4.31,4.49-9.25,9.34-16.7,10.5a17.84,17.84,0,0,1-12.85-3c-6.35-4.43-9-12.3-6.48-19.13a16.84,16.84,0,0,1,9.82-9.54c9.19-3.58,19-1,27,6.94a32,32,0,0,1,18.14-6.05h.19c11.09.08,18.59,7.1,18.65,17.47a16.13,16.13,0,0,1-4.76,12.07A14.77,14.77,0,0,1,336.19,222.94Zm-15.33-19.78c4.38,5.11,8.46,9.29,14.75,9.76a5.18,5.18,0,0,0,4-1.13,6.38,6.38,0,0,0,1.59-4.71c0-2.78-1.17-7.47-8.72-7.52A21.34,21.34,0,0,0,320.86,203.16Zm-25.41-6.07a12.67,12.67,0,0,0-4.64.9,6.9,6.9,0,0,0-4.08,3.71c-1.06,2.85.62,5.9,2.82,7.44a7.88,7.88,0,0,0,5.58,1.28c4.45-.69,7.92-4.29,11.59-8.12C304.32,200,300.33,197.09,295.45,197.09Z"/><path class="cls-1" d="M338.2,397.11c-.43,0-.87,0-1.32-.05-10.13-.75-16.27-7-21.48-13.09-4.31,4.49-9.26,9.34-16.71,10.51a17.87,17.87,0,0,1-12.84-3c-6.36-4.43-9-12.29-6.48-19.12a16.78,16.78,0,0,1,9.82-9.54c9.18-3.59,19-1.06,27,6.93a31.9,31.9,0,0,1,18.32-6c11.1.08,18.59,7.1,18.65,17.47a16.05,16.05,0,0,1-4.76,12.07A14.75,14.75,0,0,1,338.2,397.11Zm-15.32-19.78c4.37,5.12,8.45,9.29,14.74,9.76a5.2,5.2,0,0,0,4-1.13,6.39,6.39,0,0,0,1.58-4.7c0-2.79-1.17-7.48-8.72-7.53h-.12A21.55,21.55,0,0,0,322.88,377.33Zm-25.41-6.06a12.7,12.7,0,0,0-4.65.89,7,7,0,0,0-4.08,3.71c-1.06,2.85.62,5.9,2.83,7.44a7.9,7.9,0,0,0,5.57,1.29c4.46-.7,7.93-4.3,11.59-8.13C306.34,374.18,302.34,371.27,297.47,371.27Z"/><path class="cls-1" d="M407,159H379a5,5,0,0,1-5-4.86l-3-105A5,5,0,0,1,375.66,44l29-2a5,5,0,1,1,.68,10l-24.2,1.67L383.86,149H407a5,5,0,0,1,0,10Z"/><path class="cls-1" d="M302.23,349.87a5,5,0,0,1-.28-10c4.47-.26,7.65-1.57,9.44-3.91,3-3.93,1.84-10,1.83-10a6.42,6.42,0,0,1-.1-.75l-3.91-67.88c-.42-7.43,1.47-13.3,5.64-17.46,6.16-6.15,14.7-5.83,15.65-5.77a5,5,0,0,1-.56,10c-.16,0-5.06-.14-8.07,2.92-2,2.05-2.93,5.33-2.67,9.75l3.89,67.55c.4,2.2,1.53,10.79-3.7,17.68-3.64,4.8-9.32,7.45-16.87,7.88Z"/></g></svg>