<?xml version="1.0" ?><svg viewBox="0 0 512 512" xmlns="http://www.w3.org/2000/svg"><defs><style>.cls-1{fill:#3f456b;}</style></defs><title/><g id="Lines"><path class="cls-1" d="M424.12,403.5H89.84a5,5,0,0,1-5-5v-24a5,5,0,0,1,5-5H424.12a5,5,0,0,1,5,5v24A5,5,0,0,1,424.12,403.5Zm-329.28-10H419.12v-14H94.84Z"/><path class="cls-1" d="M424.12,148.21H89.84a5,5,0,0,1-5-5v-24a5,5,0,0,1,5-5H424.12a5,5,0,0,1,5,5v24A5,5,0,0,1,424.12,148.21Zm-329.28-10H419.12v-14H94.84Z"/><path class="cls-1" d="M377.1,100.5H130.9a5,5,0,0,1-5-5v-79a5,5,0,0,1,5-5H377.1a5,5,0,0,1,5,5v79A5,5,0,0,1,377.1,100.5Zm-241.2-10H372.1v-69H135.9Z"/><path class="cls-1" d="M157.46,427.5h-42a5,5,0,0,1-5-5v-24a5,5,0,0,1,10,0v19h32v-19a5,5,0,0,1,10,0v24A5,5,0,0,1,157.46,427.5Z"/><path class="cls-1" d="M123.34,500.5a5,5,0,0,1-5-5v-73a5,5,0,0,1,10,0v73A5,5,0,0,1,123.34,500.5Z"/><path class="cls-1" d="M149.59,500.5a5,5,0,0,1-5-5v-73a5,5,0,0,1,10,0v73A5,5,0,0,1,149.59,500.5Z"/><path class="cls-1" d="M397.71,427.5h-42a5,5,0,0,1-5-5v-24a5,5,0,0,1,10,0v19h32v-19a5,5,0,0,1,10,0v24A5,5,0,0,1,397.71,427.5Z"/><path class="cls-1" d="M363.58,500.5a5,5,0,0,1-5-5v-73a5,5,0,0,1,10,0v73A5,5,0,0,1,363.58,500.5Z"/><path class="cls-1" d="M389.83,500.5a5,5,0,0,1-5-5v-73a5,5,0,0,1,10,0v73A5,5,0,0,1,389.83,500.5Z"/><path class="cls-1" d="M116.09,379.5a5,5,0,0,1-5-5V143.21a5,5,0,0,1,10,0V374.5A5,5,0,0,1,116.09,379.5Z"/><path class="cls-1" d="M397,379.5a5,5,0,0,1-5-5V143.21a5,5,0,0,1,10,0V374.5A5,5,0,0,1,397,379.5Z"/><path class="cls-1" d="M487.16,500.5H26.8a5,5,0,0,1-5-5V131.21a5,5,0,0,1,5-5h63a5,5,0,0,1,0,10h-58V490.5H482.16V136.21h-58a5,5,0,1,1,0-10h63a5,5,0,0,1,5,5V495.5A5,5,0,0,1,487.16,500.5Z"/><path class="cls-1" d="M332.43,500.5a5,5,0,0,1-5-5v-67H185.09v67a5,5,0,0,1-10,0v-72a5,5,0,0,1,5-5H332.43a5,5,0,0,1,5,5v72A5,5,0,0,1,332.43,500.5Z"/><path class="cls-1" d="M256.5,500.5a5,5,0,0,1-5-5v-72a5,5,0,0,1,10,0v72A5,5,0,0,1,256.5,500.5Z"/><path class="cls-1" d="M371.59,213.21H142.37a5,5,0,0,1,0-10H371.59a5,5,0,0,1,0,10Z"/><path class="cls-1" d="M156.93,213a5,5,0,0,1-5-5V175.21a5,5,0,0,1,5-5h30.33a5,5,0,0,1,5,5v32.5a5,5,0,1,1-10,0v-27.5H161.93V208A5,5,0,0,1,156.93,213Z"/><path class="cls-1" d="M326,213a5,5,0,0,1-5-5V175.21a5,5,0,0,1,5-5h30.32a5,5,0,0,1,5,5v32.5a5,5,0,0,1-10,0v-27.5H331V208A5,5,0,0,1,326,213Z"/><path class="cls-1" d="M269.64,213a5,5,0,0,1-5-5V175.21a5,5,0,0,1,5-5H300a5,5,0,0,1,5,5v32.5a5,5,0,0,1-10,0v-27.5H274.64V208A5,5,0,0,1,269.64,213Z"/><path class="cls-1" d="M213.28,213a5,5,0,0,1-5-5V175.21a5,5,0,0,1,5-5h30.33a5,5,0,0,1,5,5v32.5a5,5,0,1,1-10,0v-27.5H218.28V208A5,5,0,0,1,213.28,213Z"/><path class="cls-1" d="M371.59,276.71H142.37a5,5,0,0,1,0-10H371.59a5,5,0,0,1,0,10Z"/><path class="cls-1" d="M156.93,276.46a5,5,0,0,1-5-5V238.71a5,5,0,0,1,5-5h30.33a5,5,0,0,1,5,5v32.5a5,5,0,0,1-10,0v-27.5H161.93v27.75A5,5,0,0,1,156.93,276.46Z"/><path class="cls-1" d="M326,276.46a5,5,0,0,1-5-5V238.71a5,5,0,0,1,5-5h30.32a5,5,0,0,1,5,5v32.5a5,5,0,0,1-10,0v-27.5H331v27.75A5,5,0,0,1,326,276.46Z"/><path class="cls-1" d="M269.64,276.46a5,5,0,0,1-5-5V238.71a5,5,0,0,1,5-5H300a5,5,0,0,1,5,5v32.5a5,5,0,0,1-10,0v-27.5H274.64v27.75A5,5,0,0,1,269.64,276.46Z"/><path class="cls-1" d="M213.28,276.46a5,5,0,0,1-5-5V238.71a5,5,0,0,1,5-5h30.33a5,5,0,0,1,5,5v32.5a5,5,0,0,1-10,0v-27.5H218.28v27.75A5,5,0,0,1,213.28,276.46Z"/><path class="cls-1" d="M371.59,340.21H142.37a5,5,0,0,1,0-10H371.59a5,5,0,0,1,0,10Z"/><path class="cls-1" d="M156.93,340a5,5,0,0,1-5-5V302.21a5,5,0,0,1,5-5h30.33a5,5,0,0,1,5,5v32.5a5,5,0,1,1-10,0v-27.5H161.93V335A5,5,0,0,1,156.93,340Z"/><path class="cls-1" d="M326,340a5,5,0,0,1-5-5V302.21a5,5,0,0,1,5-5h30.32a5,5,0,0,1,5,5v32.5a5,5,0,0,1-10,0v-27.5H331V335A5,5,0,0,1,326,340Z"/><path class="cls-1" d="M269.64,340a5,5,0,0,1-5-5V302.21a5,5,0,0,1,5-5H300a5,5,0,0,1,5,5v32.5a5,5,0,0,1-10,0v-27.5H274.64V335A5,5,0,0,1,269.64,340Z"/><path class="cls-1" d="M213.28,340a5,5,0,0,1-5-5V302.21a5,5,0,0,1,5-5h30.33a5,5,0,0,1,5,5v32.5a5,5,0,0,1-10,0v-27.5H218.28V335A5,5,0,0,1,213.28,340Z"/><path class="cls-1" d="M56.65,213a5,5,0,0,1-5-5V175.21a5,5,0,0,1,5-5H87a5,5,0,0,1,5,5v32.5a5,5,0,0,1-10,0v-27.5H61.65V208A5,5,0,0,1,56.65,213Z"/><path class="cls-1" d="M56.65,276.46a5,5,0,0,1-5-5V238.71a5,5,0,0,1,5-5H87a5,5,0,0,1,5,5v32.5a5,5,0,0,1-10,0v-27.5H61.65v27.75A5,5,0,0,1,56.65,276.46Z"/><path class="cls-1" d="M56.65,340a5,5,0,0,1-5-5V302.21a5,5,0,0,1,5-5H87a5,5,0,0,1,5,5v32.5a5,5,0,0,1-10,0v-27.5H61.65V335A5,5,0,0,1,56.65,340Z"/><path class="cls-1" d="M96.52,213.21H46.86a5,5,0,1,1,0-10H96.52a5,5,0,1,1,0,10Z"/><path class="cls-1" d="M96.52,277.21H46.86a5,5,0,0,1,0-10H96.52a5,5,0,0,1,0,10Z"/><path class="cls-1" d="M96.52,340.21H46.86a5,5,0,0,1,0-10H96.52a5,5,0,0,1,0,10Z"/><path class="cls-1" d="M428.18,213a5,5,0,0,1-5-5V175.21a5,5,0,0,1,5-5h30.33a5,5,0,0,1,5,5v32.5a5,5,0,1,1-10,0v-27.5H433.18V208A5,5,0,0,1,428.18,213Z"/><path class="cls-1" d="M428.18,276.46a5,5,0,0,1-5-5V238.71a5,5,0,0,1,5-5h30.33a5,5,0,0,1,5,5v32.5a5,5,0,1,1-10,0v-27.5H433.18v27.75A5,5,0,0,1,428.18,276.46Z"/><path class="cls-1" d="M428.18,340a5,5,0,0,1-5-5V302.21a5,5,0,0,1,5-5h30.33a5,5,0,0,1,5,5v32.5a5,5,0,1,1-10,0v-27.5H433.18V335A5,5,0,0,1,428.18,340Z"/><path class="cls-1" d="M468.06,213.21H418.39a5,5,0,0,1,0-10h49.67a5,5,0,0,1,0,10Z"/><path class="cls-1" d="M468.06,277.21H418.39a5,5,0,0,1,0-10h49.67a5,5,0,0,1,0,10Z"/><path class="cls-1" d="M468.06,340.21H418.39a5,5,0,0,1,0-10h49.67a5,5,0,0,1,0,10Z"/><path class="cls-1" d="M64,130.83a5,5,0,0,1-5-5V65.17a5,5,0,0,1,5-5h66.9a5,5,0,0,1,0,10H69v55.66A5,5,0,0,1,64,130.83Z"/><path class="cls-1" d="M447.64,130.83a5,5,0,0,1-5-5V70.17H377.1a5,5,0,0,1,0-10h70.54a5,5,0,0,1,5,5v60.66A5,5,0,0,1,447.64,130.83Z"/><path class="cls-1" d="M409.32,500.5a5,5,0,0,1-5-5v-41a5,5,0,0,1,5-5h77.84a5,5,0,1,1,0,10H414.32v36A5,5,0,0,1,409.32,500.5Z"/><path class="cls-1" d="M409.79,459.5a5,5,0,0,1-4.94-4.25c-.16-1.09-1.41-10.79,4.9-17.43a18,18,0,0,1,11.7-5.34,22.25,22.25,0,0,1,2.87-10.79c3.09-5.4,8.38-9.1,15.73-11,14.65-3.83,23,1,26.67,4.16a18.63,18.63,0,0,1,6,9.7,22.19,22.19,0,0,1,13,5.34c4.64,4.26,6.82,10.49,6.46,18.53a5,5,0,1,1-10-.45c.22-4.91-.86-8.5-3.19-10.67-3.82-3.54-10.23-2.82-10.29-2.81a5,5,0,0,1-5.6-5.55,7.77,7.77,0,0,0-2.94-6.55c-3.77-3.28-10-4-17.57-2-4.65,1.22-7.88,3.34-9.59,6.32-2.47,4.32-1.2,9.44-1.19,9.49a5,5,0,0,1-5.31,6.33c-4.47-.45-7.66.3-9.49,2.23-3,3.15-2.27,9-2.26,9a5,5,0,0,1-4.2,5.69A4.74,4.74,0,0,1,409.79,459.5Z"/><path class="cls-1" d="M105.15,500.5a5,5,0,0,1-5-5v-36H27.31a5,5,0,0,1,0-10h77.84a5,5,0,0,1,5,5v41A5,5,0,0,1,105.15,500.5Z"/><path class="cls-1" d="M104.68,459.5a4.74,4.74,0,0,1-.75-.06,5,5,0,0,1-4.2-5.66c.22-1.64.25-6.46-2.29-9.1-1.83-1.91-5-2.65-9.46-2.2a5,5,0,0,1-5.31-6.33S84,431,81.43,426.58c-1.71-2.93-4.92-5-9.54-6.24-7.56-2-13.8-1.26-17.57,2a7.77,7.77,0,0,0-2.94,6.55,5,5,0,0,1-5.63,5.55s-6.44-.73-10.26,2.81c-2.33,2.17-3.41,5.76-3.18,10.67a5,5,0,0,1-10,.45c-.35-8,1.82-14.27,6.46-18.53a22.19,22.19,0,0,1,13-5.34,18.63,18.63,0,0,1,6-9.7c3.67-3.2,12-8,26.67-4.16,7.35,1.93,12.64,5.63,15.73,11A22.25,22.25,0,0,1,93,432.48a18,18,0,0,1,11.7,5.34c6.31,6.64,5.06,16.34,4.9,17.43A5,5,0,0,1,104.68,459.5Z"/><path class="cls-1" d="M459.82,70.17H447.4a5,5,0,0,1,0-10h12.42a5,5,0,0,1,0,10Z"/><path class="cls-1" d="M64.6,70.17H52.18a5,5,0,1,1,0-10H64.6a5,5,0,0,1,0,10Z"/><path class="cls-1" d="M317.67,122.71a5,5,0,0,1-5-5V95.5a5,5,0,0,1,10,0v22.21A5,5,0,0,1,317.67,122.71Z"/><path class="cls-1" d="M193.38,122.71a5,5,0,0,1-5-5V95.5a5,5,0,0,1,10,0v22.21A5,5,0,0,1,193.38,122.71Z"/><path class="cls-1" d="M500.5,500.5h-17a5,5,0,0,1,0-10h17a5,5,0,0,1,0,10Z"/><path class="cls-1" d="M30,500.5H13a5,5,0,0,1,0-10H30a5,5,0,0,1,0,10Z"/><path class="cls-1" d="M312.4,79.88H287a5,5,0,0,1-5-5V35a5,5,0,0,1,5-5h25a5,5,0,0,1,0,10H292V69.88H312.4a5,5,0,0,1,0,10Z"/><path class="cls-1" d="M312.8,59.92H287a5,5,0,0,1,0-10H312.8a5,5,0,0,1,0,10Z"/><path class="cls-1" d="M158.36,80.3a5,5,0,0,1-5-5V34.55a5,5,0,0,1,10,0V75.3A5,5,0,0,1,158.36,80.3Z"/><path class="cls-1" d="M185.8,80.3a5,5,0,0,1-5-5V34.55a5,5,0,0,1,10,0V75.3A5,5,0,0,1,185.8,80.3Z"/><path class="cls-1" d="M185.8,59.51H158.36a5,5,0,0,1,0-10H185.8a5,5,0,0,1,0,10Z"/><path class="cls-1" d="M355.41,79.88H329.63a5,5,0,0,1-5-5V35a5,5,0,0,1,10,0V69.88h20.78a5,5,0,0,1,0,10Z"/><path class="cls-1" d="M271.85,40h-29.1a5,5,0,0,1,0-10h29.1a5,5,0,0,1,0,10Z"/><path class="cls-1" d="M256.86,79.88a5,5,0,0,1-5-5V35.38a5,5,0,1,1,10,0v39.5A5,5,0,0,1,256.86,79.88Z"/><path class="cls-1" d="M215.69,81.13c-14,0-19.14-11.44-19.14-19.14V47.86c0-7.7,5.1-19.14,19.14-19.14s19.14,11.44,19.14,19.14V62C234.83,69.69,229.73,81.13,215.69,81.13Zm0-42.41c-8.34,0-9.1,7-9.14,9.18V62c0,2.12.8,9.14,9.14,9.14s9.1-7,9.14-9.16V47.86C224.79,45.74,224,38.72,215.69,38.72ZM229.83,62h0Z"/></g><g id="Outline"><path class="cls-1" d="M256,144.71a5,5,0,0,1-5-5v-20a5,5,0,0,1,10,0v20A5,5,0,0,1,256,144.71Z"/><path class="cls-1" d="M172.93,144.71a5,5,0,0,1-5-5v-20a5,5,0,0,1,10,0v20A5,5,0,0,1,172.93,144.71Z"/><path class="cls-1" d="M341.15,144.71a5,5,0,0,1-5-5v-20a5,5,0,0,1,10,0v20A5,5,0,0,1,341.15,144.71Z"/><path class="cls-1" d="M256,401.51a5,5,0,0,1-5-5v-20a5,5,0,0,1,10,0v20A5,5,0,0,1,256,401.51Z"/><path class="cls-1" d="M172.93,401.51a5,5,0,0,1-5-5v-20a5,5,0,0,1,10,0v20A5,5,0,0,1,172.93,401.51Z"/><path class="cls-1" d="M341.15,401.51a5,5,0,0,1-5-5v-20a5,5,0,0,1,10,0v20A5,5,0,0,1,341.15,401.51Z"/><path class="cls-1" d="M465.79,51.79a5.1,5.1,0,0,1-.87-.07,5,5,0,0,1-4.12-5.34c1.06-12.85-15.06-16.25-15.75-16.39A5,5,0,0,1,447,20.18c6.22,1.21,16.15,5.46,21,13.92,4.62-4.45,11.94-8,23.14-5.64a5,5,0,0,1-2.06,9.79c-6.38-1.35-11.22-.13-14.82,3.7a17.13,17.13,0,0,0-3.64,6.15A5,5,0,0,1,465.79,51.79Z"/></g></svg>