<?xml version="1.0" ?><svg viewBox="0 0 512 512" xmlns="http://www.w3.org/2000/svg"><defs><style>.cls-1{fill:#3f456b;}</style></defs><title/><g id="Lines"><g data-name="&lt;编组&gt;" id="_编组_"><g data-name="&lt;编组&gt;" id="_编组_2"><path class="cls-1" d="M122.34,210.67H98.43c-7.55,0-9.92-6.91-10.81-9.51-.06-.19-.12-.38-.16-.57l-4.68-21.67L64.15,191a3.7,3.7,0,0,1-.43.25c-5.95,3.07-10.81,2.78-14.46-.87l-16.9-16.9c-5.35-5.35-2.13-11.91-.91-14.38a4.91,4.91,0,0,1,.28-.5l12-18.64L22,135.31a3.59,3.59,0,0,1-.47-.12c-6.39-2-9.62-5.68-9.62-10.85v-23.9c0-7.57,6.92-9.92,9.52-10.81a5.62,5.62,0,0,1,.55-.15L43.7,84.79,31.63,66.16a4.49,4.49,0,0,1-.24-.42c-3.08-5.95-2.79-10.81.85-14.47L49.15,34.36c5.36-5.34,11.91-2.12,14.38-.91a5,5,0,0,1,.5.29l18.64,12L87.31,24a4.05,4.05,0,0,1,.12-.47c2-6.38,5.68-9.62,10.84-9.62h23.91c7.55,0,9.92,6.91,10.81,9.52a5.15,5.15,0,0,1,.16.56l4.68,21.68,18.63-12.07.42-.25c6-3.08,10.82-2.79,14.47.86l16.91,16.91c5.35,5.34,2.12,11.9.91,14.37a5,5,0,0,1-.29.5l-12,18.65,21.71,4.63.49.13c6.37,2,9.61,5.69,9.61,10.84v23.91c0,7.55-6.92,9.92-9.52,10.81a5.12,5.12,0,0,1-.56.15l-21.68,4.68L189,158.46c.09.14.17.28.25.43,3.08,6,2.79,10.82-.86,14.47l-16.91,16.9c-5.35,5.35-11.91,2.12-14.37.91a5.05,5.05,0,0,1-.51-.28l-18.64-12-4.63,21.71c0,.16-.08.32-.13.47C131.15,207.44,127.5,210.67,122.34,210.67Zm-24-10h24.08a6.64,6.64,0,0,0,1.16-2.43l6.09-28.54a5,5,0,0,1,7.6-3.16l24.48,15.78a8.38,8.38,0,0,0,2.58.93l.06-.06,16.91-16.91,0-.05a6.61,6.61,0,0,0-.9-2.54l-15.87-24.5a5,5,0,0,1,3.14-7.6l28.46-6.15a8.22,8.22,0,0,0,2.48-1.16.28.28,0,0,0,0-.09V100.28a.19.19,0,0,0,0-.08A6.46,6.46,0,0,0,196.23,99L167.69,93a5,5,0,0,1-3.15-7.6l15.77-24.48a8.48,8.48,0,0,0,.94-2.57l-.06-.06L164.28,41.32l-.05,0a6.47,6.47,0,0,0-2.55.9L137.19,58a5,5,0,0,1-7.61-3.15l-6.14-28.45A8.69,8.69,0,0,0,122.27,24H98.19A6.84,6.84,0,0,0,97,26.38L90.94,54.92a5,5,0,0,1-7.6,3.16L58.86,42.3a8.38,8.38,0,0,0-2.58-.93l-.07.07-16.9,16.9s0,0-.05,0a6.73,6.73,0,0,0,.9,2.55L56,85.43A5,5,0,0,1,52.89,93L24.43,99.19A8.25,8.25,0,0,0,22,100.35v24.07a6.44,6.44,0,0,0,2.43,1.17l28.55,6.09a5,5,0,0,1,3.15,7.6L40.3,163.76a8.58,8.58,0,0,0-.94,2.57l.07.07,16.9,16.9a.13.13,0,0,0,.06,0,6.57,6.57,0,0,0,2.54-.89l24.49-15.87A5,5,0,0,1,91,169.73l6.14,28.45A8.69,8.69,0,0,0,98.34,200.67Zm-.09,0Zm100.4-76.29ZM98.14,24Z"/></g></g><path class="cls-1" d="M110.68,155.5a42.59,42.59,0,1,1,42.58-42.59A42.64,42.64,0,0,1,110.68,155.5Zm0-75.17a32.59,32.59,0,1,0,32.58,32.58A32.62,32.62,0,0,0,110.68,80.33Z"/><path class="cls-1" d="M440.31,500.5H71.69a60.75,60.75,0,0,1,0-121.5H440.31a60.75,60.75,0,0,1,0,121.5ZM71.69,389a50.75,50.75,0,0,0,0,101.5H440.31a50.75,50.75,0,0,0,0-101.5Z"/><path class="cls-1" d="M68.22,465A25.28,25.28,0,1,1,93.5,439.75,25.31,25.31,0,0,1,68.22,465Zm0-40.56A15.28,15.28,0,1,0,83.5,439.75,15.3,15.3,0,0,0,68.22,424.47Z"/><path class="cls-1" d="M143.33,465a25.28,25.28,0,1,1,25.28-25.28A25.31,25.31,0,0,1,143.33,465Zm0-40.56a15.28,15.28,0,1,0,15.28,15.28A15.3,15.3,0,0,0,143.33,424.47Z"/><path class="cls-1" d="M218.45,465a25.28,25.28,0,1,1,25.28-25.28A25.31,25.31,0,0,1,218.45,465Zm0-40.56a15.28,15.28,0,1,0,15.28,15.28A15.3,15.3,0,0,0,218.45,424.47Z"/><path class="cls-1" d="M293.56,465a25.28,25.28,0,1,1,25.28-25.28A25.3,25.3,0,0,1,293.56,465Zm0-40.56a15.28,15.28,0,1,0,15.28,15.28A15.3,15.3,0,0,0,293.56,424.47Z"/><path class="cls-1" d="M368.68,465A25.28,25.28,0,1,1,394,439.75,25.31,25.31,0,0,1,368.68,465Zm0-40.56A15.28,15.28,0,1,0,384,439.75,15.3,15.3,0,0,0,368.68,424.47Z"/><path class="cls-1" d="M443.79,465a25.28,25.28,0,1,1,25.28-25.28A25.31,25.31,0,0,1,443.79,465Zm0-40.56a15.28,15.28,0,1,0,15.28,15.28A15.3,15.3,0,0,0,443.79,424.47Z"/><path class="cls-1" d="M294.43,368.85H216.51a5,5,0,0,1-5-5V324.41a5,5,0,0,1,5-5h77.92a5,5,0,0,1,5,5v39.44A5,5,0,0,1,294.43,368.85Zm-72.92-10h67.92V329.41H221.51Z"/><path class="cls-1" d="M431.35,388a5,5,0,0,1-5-5V243.78H201.46V383a5,5,0,0,1-10,0V238.78a5,5,0,0,1,5-5H431.35a5,5,0,0,1,5,5V383A5,5,0,0,1,431.35,388Z"/><path class="cls-1" d="M313.91,388a5,5,0,0,1-5-5V238.78a5,5,0,0,1,10,0V383A5,5,0,0,1,313.91,388Z"/><path class="cls-1" d="M160.5,315.75H104.84a5,5,0,0,1,0-10H160.5a5,5,0,0,1,0,10Z"/><path class="cls-1" d="M134,342.15a5,5,0,0,1-3.54-8.53l22.87-22.87-22.87-22.87a5,5,0,0,1,7.07-7.07l26.4,26.4a5,5,0,0,1,0,7.08l-26.4,26.4A5,5,0,0,1,134,342.15Z"/><path class="cls-1" d="M84.33,315.89h-1a5,5,0,1,1,0-10h1a5,5,0,0,1,0,10Zm-21,0h-1a5,5,0,1,1,0-10h1a5,5,0,0,1,0,10Zm-21,0h-1a5,5,0,1,1,0-10h1a5,5,0,0,1,0,10Z"/><path class="cls-1" d="M311.25,215.56a5,5,0,0,1-4.75-3.44l-10.31-31.5a5,5,0,0,1,4.76-6.56h72.94a5,5,0,0,1,4.62,6.93l-13.15,31.5a5,5,0,1,1-9.23-3.85l10.26-24.58H307.84L316,209a5,5,0,0,1-3.2,6.3A4.93,4.93,0,0,1,311.25,215.56Z"/><path class="cls-1" d="M361,184.06a5,5,0,0,1-5-5c0-2-.71-20-19.5-20-5.66,0-10,1.58-12.91,4.68-5.3,5.66-4.77,14.88-4.76,15a5,5,0,0,1-10,.71c0-.55-.89-13.56,7.38-22.46,4.87-5.25,11.69-7.91,20.27-7.91,15.23,0,22.51,8.32,25.93,15.3a36.9,36.9,0,0,1,3.57,14.7A5,5,0,0,1,361,184.06Z"/><path class="cls-1" d="M324.33,159.06a5,5,0,0,1-5-5V86.5a5,5,0,0,1,10,0v67.56A5,5,0,0,1,324.33,159.06Z"/><path class="cls-1" d="M348.67,159.06a5,5,0,0,1-5-5V86.5a5,5,0,0,1,10,0v67.56A5,5,0,0,1,348.67,159.06Z"/><path class="cls-1" d="M496.5,44.5H376a5,5,0,0,1,0-10H496.5a5,5,0,0,1,0,10Z"/><path class="cls-1" d="M296.5,44.5h-88a5,5,0,0,1,0-10h88a5,5,0,0,1,0,10Z"/><path class="cls-1" d="M376,68.5H296.5a5,5,0,0,1-5-5v-48a5,5,0,0,1,5-5H376a5,5,0,0,1,5,5v48A5,5,0,0,1,376,68.5Zm-74.5-10H371v-38H301.5Z"/><path class="cls-1" d="M361,91.5H311.5a5,5,0,0,1-5-5v-23a5,5,0,0,1,10,0v18H356v-18a5,5,0,0,1,10,0v23A5,5,0,0,1,361,91.5Z"/></g><g id="Outline"><path class="cls-1" d="M373.89,349.13a5,5,0,0,1-5-5v-58a5,5,0,0,1,10,0v58A5,5,0,0,1,373.89,349.13Z"/><path class="cls-1" d="M401.42,318.76a5,5,0,0,1-3.54-1.46l-24-24-24,24a5,5,0,0,1-7.07-7.07l27.53-27.53a5,5,0,0,1,7.07,0L405,310.23a5,5,0,0,1-3.53,8.53Z"/></g></svg>