<?xml version="1.0" ?><svg id="Lines" viewBox="0 0 512 512" xmlns="http://www.w3.org/2000/svg"><defs><style>.cls-1{fill:#3f456b;}</style></defs><title/><path class="cls-1" d="M144.09,295.91H90.74a11.84,11.84,0,0,1-11.83-11.82V271.74a11.85,11.85,0,0,1,11.83-11.83h53.35a5,5,0,0,1,0,10H90.74a1.83,1.83,0,0,0-1.83,1.83v12.35a1.83,1.83,0,0,0,1.83,1.82h53.35a5,5,0,0,1,0,10Z"/><path class="cls-1" d="M144.09,343.91H90.74a11.84,11.84,0,0,1-11.83-11.82V319.74a11.85,11.85,0,0,1,11.83-11.83h53.35a5,5,0,0,1,0,10H90.74a1.83,1.83,0,0,0-1.83,1.83v12.35a1.83,1.83,0,0,0,1.83,1.82h53.35a5,5,0,0,1,0,10Z"/><path class="cls-1" d="M144.09,152.91H90.74a11.84,11.84,0,0,1-11.83-11.82V128.74a11.85,11.85,0,0,1,11.83-11.83h53.35a5,5,0,0,1,0,10H90.74a1.83,1.83,0,0,0-1.83,1.83v12.35a1.83,1.83,0,0,0,1.83,1.82h53.35a5,5,0,0,1,0,10Z"/><path class="cls-1" d="M144.09,200.91H90.74a11.84,11.84,0,0,1-11.83-11.82V176.74a11.85,11.85,0,0,1,11.83-11.83h53.35a5,5,0,0,1,0,10H90.74a1.83,1.83,0,0,0-1.83,1.83v12.35a1.83,1.83,0,0,0,1.83,1.82h53.35a5,5,0,0,1,0,10Z"/><path class="cls-1" d="M144.09,390.91H90.74a11.84,11.84,0,0,1-11.83-11.82V366.74a11.85,11.85,0,0,1,11.83-11.83h53.35a5,5,0,0,1,0,10H90.74a1.83,1.83,0,0,0-1.83,1.83v12.35a1.83,1.83,0,0,0,1.83,1.82h53.35a5,5,0,0,1,0,10Z"/><path class="cls-1" d="M84,140H18a5,5,0,0,1,0-10H84a5,5,0,0,1,0,10Z"/><path class="cls-1" d="M84,188H18a5,5,0,0,1,0-10H84a5,5,0,0,1,0,10Z"/><path class="cls-1" d="M84,283H18a5,5,0,0,1,0-10H84a5,5,0,0,1,0,10Z"/><path class="cls-1" d="M84,331H18a5,5,0,0,1,0-10H84a5,5,0,0,1,0,10Z"/><path class="cls-1" d="M84,378H18a5,5,0,0,1,0-10H84a5,5,0,0,1,0,10Z"/><path class="cls-1" d="M368,481a5,5,0,0,1-5-5V32a5,5,0,0,1,10,0V476A5,5,0,0,1,368,481Z"/><path class="cls-1" d="M368,37a5,5,0,0,1-3-1l-19.15-14.3L326.75,35.59a5,5,0,0,1-5.82,0l-19.84-14L281.9,35.59a5,5,0,0,1-5.89,0L256.92,21.68,237.78,35.59a5,5,0,0,1-5.82,0l-19.84-14L192.93,35.59a5,5,0,0,1-5.88,0L168,21.68,148.81,35.59a5,5,0,1,1-5.87-8.09l22.08-16a5,5,0,0,1,5.89,0L190,25.37l19.15-13.92a5,5,0,0,1,5.82,0l19.84,14L254,11.45a5,5,0,0,1,5.88,0L279,25.37,298.1,11.45a5,5,0,0,1,5.82,0l19.84,14L343,11.45a5,5,0,0,1,5.93,0L371,28a5,5,0,0,1-3,9Z"/><path class="cls-1" d="M301.8,500a5,5,0,0,1-2.88-.91l-19.84-14L259.88,499a5,5,0,0,1-5.88,0l-19.09-13.91L215.77,499a5,5,0,0,1-5.82,0l-19.84-14L170.92,499a5,5,0,0,1-5.93,0l-22.11-16.5a5,5,0,0,1,6-8L168,488.79l19.11-13.88a5,5,0,0,1,5.82-.05l19.84,14L232,474.91a5,5,0,0,1,5.88,0L257,488.82l19.14-13.91a5,5,0,0,1,5.83-.05l19.83,14L321,474.91a5,5,0,0,1,5.88,0l19.09,13.91,19.14-13.91a5,5,0,0,1,5.88,8.09l-22.09,16a5,5,0,0,1-5.88,0l-19.09-13.91L304.74,499A5,5,0,0,1,301.8,500Z"/><path class="cls-1" d="M190,483a5,5,0,0,1-5-5V32a5,5,0,0,1,10,0V478A5,5,0,0,1,190,483Z"/><path class="cls-1" d="M144,483a5,5,0,0,1-5-5V32a5,5,0,0,1,10,0V478A5,5,0,0,1,144,483Z"/><path class="cls-1" d="M235,483a5,5,0,0,1-5-5V32a5,5,0,0,1,10,0V478A5,5,0,0,1,235,483Z"/><path class="cls-1" d="M279,483a5,5,0,0,1-5-5V32a5,5,0,0,1,10,0V478A5,5,0,0,1,279,483Z"/><path class="cls-1" d="M324,483a5,5,0,0,1-5-5V32a5,5,0,0,1,10,0V478A5,5,0,0,1,324,483Z"/><path class="cls-1" d="M456.32,483H369a5,5,0,0,1,0-10h87.32A34.78,34.78,0,0,0,491,438.19V71.94A34.85,34.85,0,0,0,456.32,37H368a5,5,0,0,1,0-10h88.32A44.86,44.86,0,0,1,501,71.94V438.19A44.79,44.79,0,0,1,456.32,483Z"/><path class="cls-1" d="M144,483H57.63A44.77,44.77,0,0,1,13,438.19V71.94A44.84,44.84,0,0,1,57.63,27H144a5,5,0,0,1,0,10H57.63A34.83,34.83,0,0,0,23,71.94V438.19A34.76,34.76,0,0,0,57.63,473H144a5,5,0,0,1,0,10Z"/><path class="cls-1" d="M141,93H18a5,5,0,0,1,0-10H141a5,5,0,0,1,0,10Z"/><path class="cls-1" d="M141,427H18a5,5,0,0,1,0-10H141a5,5,0,0,1,0,10Z"/><path class="cls-1" d="M466.5,123.55h-1a5,5,0,0,1,0-10h1a5,5,0,0,1,0,10Z"/><path class="cls-1" d="M466.5,154.09h-1a5,5,0,0,1,0-10h1a5,5,0,0,1,0,10Z"/><path class="cls-1" d="M466.5,184.64h-1a5,5,0,0,1,0-10h1a5,5,0,0,1,0,10Z"/><path class="cls-1" d="M466.5,215.18h-1a5,5,0,0,1,0-10h1a5,5,0,0,1,0,10Z"/><path class="cls-1" d="M466.5,245.73h-1a5,5,0,0,1,0-10h1a5,5,0,0,1,0,10Z"/><path class="cls-1" d="M466.5,276.27h-1a5,5,0,0,1,0-10h1a5,5,0,0,1,0,10Z"/><path class="cls-1" d="M466.5,306.82h-1a5,5,0,0,1,0-10h1a5,5,0,0,1,0,10Z"/><path class="cls-1" d="M466.5,337.36h-1a5,5,0,0,1,0-10h1a5,5,0,0,1,0,10Z"/><path class="cls-1" d="M466.5,367.91h-1a5,5,0,0,1,0-10h1a5,5,0,0,1,0,10Z"/><path class="cls-1" d="M466.5,93h-1a5,5,0,0,1,0-10h1a5,5,0,0,1,0,10Z"/><path class="cls-1" d="M435.58,123.55h-1a5,5,0,0,1,0-10h1a5,5,0,0,1,0,10Z"/><path class="cls-1" d="M435.58,154.09h-1a5,5,0,0,1,0-10h1a5,5,0,0,1,0,10Z"/><path class="cls-1" d="M435.58,184.64h-1a5,5,0,0,1,0-10h1a5,5,0,1,1,0,10Z"/><path class="cls-1" d="M435.58,215.18h-1a5,5,0,0,1,0-10h1a5,5,0,0,1,0,10Z"/><path class="cls-1" d="M435.58,245.73h-1a5,5,0,0,1,0-10h1a5,5,0,0,1,0,10Z"/><path class="cls-1" d="M435.58,276.27h-1a5,5,0,1,1,0-10h1a5,5,0,0,1,0,10Z"/><path class="cls-1" d="M435.58,306.82h-1a5,5,0,0,1,0-10h1a5,5,0,0,1,0,10Z"/><path class="cls-1" d="M435.58,337.36h-1a5,5,0,0,1,0-10h1a5,5,0,1,1,0,10Z"/><path class="cls-1" d="M435.58,367.91h-1a5,5,0,0,1,0-10h1a5,5,0,0,1,0,10Z"/><path class="cls-1" d="M435.58,398.45h-1a5,5,0,0,1,0-10h1a5,5,0,0,1,0,10Z"/><path class="cls-1" d="M404.67,154.09h-1a5,5,0,0,1,0-10h1a5,5,0,0,1,0,10Z"/><path class="cls-1" d="M404.67,184.64h-1a5,5,0,1,1,0-10h1a5,5,0,0,1,0,10Z"/><path class="cls-1" d="M404.67,215.18h-1a5,5,0,0,1,0-10h1a5,5,0,0,1,0,10Z"/><path class="cls-1" d="M404.67,245.73h-1a5,5,0,0,1,0-10h1a5,5,0,0,1,0,10Z"/><path class="cls-1" d="M404.67,276.27h-1a5,5,0,0,1,0-10h1a5,5,0,1,1,0,10Z"/><path class="cls-1" d="M404.67,306.82h-1a5,5,0,0,1,0-10h1a5,5,0,0,1,0,10Z"/><path class="cls-1" d="M404.67,337.36h-1a5,5,0,1,1,0-10h1a5,5,0,0,1,0,10Z"/><path class="cls-1" d="M404.67,367.91h-1a5,5,0,0,1,0-10h1a5,5,0,0,1,0,10Z"/><path class="cls-1" d="M404.67,398.45h-1a5,5,0,0,1,0-10h1a5,5,0,0,1,0,10Z"/><path class="cls-1" d="M403.67,429h-1a5,5,0,0,1,0-10h1a5,5,0,1,1,0,10Z"/></svg>