<?xml version="1.0" ?><svg viewBox="0 0 512 512" xmlns="http://www.w3.org/2000/svg"><defs><style>.cls-1{fill:#3f456b;}</style></defs><title/><g id="Lines"><path class="cls-1" d="M456.51,380.68h-400a45.05,45.05,0,0,1-45-45V214a45,45,0,0,1,45-45h232c52.27,0,106.59,18.42,149,50.55,40.06,30.34,64,68.29,64,101.53v14.64A45,45,0,0,1,456.51,380.68ZM56.51,179a35,35,0,0,0-35,35V335.68a35,35,0,0,0,35,35h400a35,35,0,0,0,35-35V321c0-29.67-23-65.52-60-93.55C390.75,196.65,338.63,179,288.5,179Z"/><path class="cls-1" d="M63.56,435A36.5,36.5,0,0,1,41,369.76a5,5,0,0,1,6.18,7.86,26.51,26.51,0,1,0,35.05,2,5,5,0,0,1,7.05-7.1A36.5,36.5,0,0,1,63.56,435Z"/><path class="cls-1" d="M63.56,413.35a14.89,14.89,0,1,1,14.89-14.89A14.91,14.91,0,0,1,63.56,413.35Zm0-19.78a4.89,4.89,0,1,0,4.89,4.89A4.89,4.89,0,0,0,63.56,393.57Z"/><path class="cls-1" d="M126.57,435a36.5,36.5,0,0,1-25.21-62.9,5,5,0,1,1,6.91,7.23,26.5,26.5,0,1,0,44.8,19.17c0-7.26-2.79-13.74-8.29-19.25a5,5,0,1,1,7.08-7.06c7.44,7.46,11.21,16.31,11.21,26.31A36.55,36.55,0,0,1,126.57,435Z"/><path class="cls-1" d="M126.57,413.35a14.89,14.89,0,1,1,14.88-14.89A14.91,14.91,0,0,1,126.57,413.35Zm0-19.78a4.89,4.89,0,1,0,4.88,4.89A4.89,4.89,0,0,0,126.57,393.57Z"/><path class="cls-1" d="M353.67,435a36.5,36.5,0,0,1-25.52-62.59,5,5,0,1,1,7,7.15,26.5,26.5,0,1,0,36.83-.23,5,5,0,0,1,6.91-7.23A36.5,36.5,0,0,1,353.67,435Z"/><path class="cls-1" d="M353.67,413.35a14.89,14.89,0,1,1,14.89-14.89A14.9,14.9,0,0,1,353.67,413.35Zm0-19.78a4.89,4.89,0,1,0,4.89,4.89A4.89,4.89,0,0,0,353.67,393.57Z"/><path class="cls-1" d="M416.67,435a36.5,36.5,0,0,1-25.81-62.31,5,5,0,0,1,7.08,7.07,26.5,26.5,0,1,0,45.24,18.74c0-7.25-4-15-7.74-19.07a5,5,0,0,1,7.41-6.72c4.76,5.25,10.33,15.16,10.33,25.79A36.55,36.55,0,0,1,416.67,435Z"/><path class="cls-1" d="M416.67,413.35a14.89,14.89,0,1,1,14.89-14.89A14.91,14.91,0,0,1,416.67,413.35Zm0-19.78a4.89,4.89,0,1,0,4.89,4.89A4.89,4.89,0,0,0,416.67,393.57Z"/><path class="cls-1" d="M322.17,407.46H158.07a5,5,0,0,1,0-10h164.1a5,5,0,0,1,0,10Z"/><path class="cls-1" d="M488.5,293.21H321.13c-7.44,0-13.16-2.18-17-6.47a19.62,19.62,0,0,1-4.6-14.09V224.29c0-6,1.87-10.94,5.56-14.55,5.73-5.6,13.56-5.71,14.74-5.7h92.33a5,5,0,0,1,0,10H319.69s-4.74,0-7.64,2.89c-1.69,1.68-2.51,4.09-2.51,7.36v48.59a5.4,5.4,0,0,1,0,.56h0a9.79,9.79,0,0,0,2.14,6.7c1.86,2,5.05,3.07,9.48,3.07H488.5a5,5,0,0,1,0,10Z"/><path class="cls-1" d="M262.5,294H58.5a15,15,0,0,1-15-15V219a15,15,0,0,1,15-15h204a15,15,0,0,1,15,15v60A15,15,0,0,1,262.5,294Zm-204-80a5,5,0,0,0-5,5v60a5,5,0,0,0,5,5h204a5,5,0,0,0,5-5V219a5,5,0,0,0-5-5Z"/><path class="cls-1" d="M495.14,349.81H469.53c-6.27,0-11.38-5.73-11.38-12.77V322.93c0-7,5.11-12.77,11.38-12.77h25.61a5,5,0,0,1,0,10H469.53c-.35,0-1.38.95-1.38,2.77V337c0,1.82,1,2.77,1.38,2.77h25.61a5,5,0,0,1,0,10Z"/><path class="cls-1" d="M123.17,293.21a5,5,0,0,1-5-5V209a5,5,0,1,1,10,0v79.17A5,5,0,0,1,123.17,293.21Z"/><path class="cls-1" d="M197.83,293.21a5,5,0,0,1-5-5V209a5,5,0,0,1,10,0v79.17A5,5,0,0,1,197.83,293.21Z"/><path class="cls-1" d="M252.46,178.17a5,5,0,0,1-3.54-1.47L188.8,116.58a5,5,0,0,1,7.07-7.07L256,169.63a5,5,0,0,1-3.53,8.54Z"/><path class="cls-1" d="M211.25,118h-80a5,5,0,0,1-5-5V81a5,5,0,0,1,5-5h80a5,5,0,0,1,5,5v32A5,5,0,0,1,211.25,118Zm-75-10h70V86h-70Z"/></g><g id="Outline"><path class="cls-1" d="M496.51,102H16.17a5,5,0,0,1,0-10H496.51a5,5,0,0,1,0,10Z"/><path class="cls-1" d="M288.34,347.21a5,5,0,0,1-5-5V321.54a5,5,0,0,1,10,0v20.67A5,5,0,0,1,288.34,347.21Z"/><path class="cls-1" d="M309.75,347.21a5,5,0,0,1-5-5V321.54a5,5,0,1,1,10,0v20.67A5,5,0,0,1,309.75,347.21Z"/><path class="cls-1" d="M331.46,347.21a5,5,0,0,1-5-5V321.54a5,5,0,0,1,10,0v20.67A5,5,0,0,1,331.46,347.21Z"/><path class="cls-1" d="M352.5,347.21a5,5,0,0,1-5-5V321.54a5,5,0,1,1,10,0v20.67A5,5,0,0,1,352.5,347.21Z"/><path class="cls-1" d="M267.22,347.21a5,5,0,0,1-5-5V321.54a5,5,0,1,1,10,0v20.67A5,5,0,0,1,267.22,347.21Z"/><path class="cls-1" d="M245.51,347.21a5,5,0,0,1-5-5V321.54a5,5,0,1,1,10,0v20.67A5,5,0,0,1,245.51,347.21Z"/><path class="cls-1" d="M224.25,347.21a5,5,0,0,1-5-5V321.54a5,5,0,1,1,10,0v20.67A5,5,0,0,1,224.25,347.21Z"/></g></svg>