<?xml version="1.0" ?><svg id="Lines" viewBox="0 0 512 512" xmlns="http://www.w3.org/2000/svg"><defs><style>.cls-1{fill:#3f456b;}</style></defs><title/><path class="cls-1" d="M311.22,195.09c-.84,0-1.7,0-2.6-.1-11-.85-15.65-9.27-17.08-16.1a14.62,14.62,0,0,1-8.09-4.1c-3.51-3.51-5.12-8.76-4.41-14.41a16.35,16.35,0,0,1,7.41-11.8,14.65,14.65,0,0,1,2.71-13.78,13.64,13.64,0,0,1,13.27-4.88,20.67,20.67,0,0,1,16.12-9.9c9.07-.82,14.61,4.77,17.41,10a20,20,0,0,1,11.33,1,17.35,17.35,0,0,1,9.38,10.21c3.9,10.14.25,17.25-4.06,21.25,2,4.88,2.66,12-2.51,19.41-6.06,8.64-16.26,8.73-23.12,7C324.37,191.78,319.56,195.09,311.22,195.09ZM296,169a5,5,0,0,1,5,5c0,1,.35,10.4,8.38,11,8.86.68,10.92-3.72,10.94-3.77A5,5,0,0,1,323,178.4a5.06,5.06,0,0,1,3.93,0c.4.17,10.38,4.24,14.93-2.27s.74-11.35.29-11.89a5,5,0,0,1,1.74-7.79c1.51-.74,6.41-3.85,3.4-11.66a7.44,7.44,0,0,0-3.93-4.58c-3.63-1.53-8.38.37-8.43.39a5,5,0,0,1-6.82-3.39c-2-7.61-8-7.3-8.7-7.23a11.29,11.29,0,0,0-9.66,7.46,5,5,0,0,1-7.22,2.93,4.41,4.41,0,0,0-5.73.83c-2.5,3,.2,6.86.23,6.89a5,5,0,0,1-2.86,7.76c-.43.12-4.71,1.43-5.25,5.77-.32,2.57.25,4.79,1.56,6.1a5.76,5.76,0,0,0,4.86,1.32A4.3,4.3,0,0,1,296,169Z"/><path class="cls-1" d="M367,205a5,5,0,0,1-.44-10c2.08-.19,2.66-1,2.88-1.27,1.25-1.71,1-5.22.69-6.65a5.09,5.09,0,0,1,1.34-4.64,11.9,11.9,0,0,0,2.7-4.71c0-.13.09-.3.13-.43,1.31-3.65.39-5.16.09-5.66-1.48-2.44-5.68-3.52-7-3.7a5.09,5.09,0,0,1-3.82-2.72c-1.06-2.11-2.34-3.37-3.94-3.85-2.81-.85-6.37.66-7.5,1.32a5,5,0,0,1-5.08-8.62c.79-.46,7.89-4.5,15.36-2.31a15.86,15.86,0,0,1,8.83,6.77c3.25.85,8.66,2.93,11.68,7.85,1.7,2.75,3.22,7.42.9,14.09a22.55,22.55,0,0,1-3.51,7c.28,3,.17,8.06-2.73,12.07A13.4,13.4,0,0,1,367.45,205Z"/><path class="cls-1" d="M285,222.88a18,18,0,0,1-7.53-1.52,15.43,15.43,0,0,1-8.27-9.89C266,201,269.68,193.79,273.5,190a17.41,17.41,0,0,1,2-10.72c4.28-7.58,13.15-10.18,14.14-10.46a5,5,0,0,1,2.66,9.65c-1.63.46-6.23,2.39-8.1,5.76a8.06,8.06,0,0,0-.43,6.41,4.79,4.79,0,0,1-2.38,5.74c-.83.51-5.25,3.72-2.65,12.16.77,2.52,2,3.34,2.88,3.74,3.4,1.56,9-.27,10.34-.85a5,5,0,1,1,4,9.16A29.76,29.76,0,0,1,285,222.88Z"/><path class="cls-1" d="M314.85,229.26c-5,0-11.28-1-16.24-5.14-4.61-3.83-7.17-9.49-7.6-16.83-.39-6.54,1.32-11.86,5.08-15.83,5.41-5.71,13-6.31,15-6.37,8.81-1.16,17.32,1.25,22.83,6.49a19.13,19.13,0,0,1,6,15.87c-1.09,12-8.7,20.05-20.36,21.51A37.82,37.82,0,0,1,314.85,229.26Zm-3.34-34.17c-.16,0-5.23.12-8.2,3.29-1.75,1.88-2.53,4.68-2.32,8.33.27,4.52,1.58,7.7,4,9.73,3.89,3.23,10.05,3,13.38,2.6,7.05-.88,11-5.09,11.64-12.49a9.24,9.24,0,0,0-3-7.73c-3.38-3.21-8.93-4.62-14.86-3.78A5.34,5.34,0,0,1,311.51,195.09Z"/><path class="cls-1" d="M359.62,221.89a35.59,35.59,0,0,1-28.88-15.37,5,5,0,0,1,8.4-5.43c.38.58,8.47,12.51,23.64,10.61a26.18,26.18,0,0,0-.38-9.06c-1.91-8.38-8.07-14.78-18.31-19a5,5,0,0,1,3.82-9.24c26.3,10.88,27.1,33,23.85,43.14a5,5,0,0,1-3.6,3.34A36.35,36.35,0,0,1,359.62,221.89Z"/><path class="cls-1" d="M319,164a5,5,0,0,1-5-5v-1a5,5,0,0,1,10,0v1A5,5,0,0,1,319,164Z"/><path class="cls-1" d="M273,105.49H239a5,5,0,0,1-5-5V69.08a5,5,0,0,1,5-5h34a5,5,0,0,1,5,5v31.41A5,5,0,0,1,273,105.49Zm-29-10h24V74.08H244Z"/><path class="cls-1" d="M207.17,115a30.3,30.3,0,0,1-5.08-.35,5,5,0,0,1-3.59-2.73c-9.67-19.85-1.71-53.65-1.36-55.08A5,5,0,0,1,202.35,53c27.31,1.94,39.37,11.82,39.87,12.24a5,5,0,0,1-6.41,7.69c-.23-.19-9.32-7.28-29.81-9.56-1.6,8.6-4.44,28.46.41,41.6,4.76.09,16-.74,30.11-8.83a5,5,0,1,1,5,8.68C226.23,113.55,213.76,115,207.17,115Z"/><path class="cls-1" d="M304.55,115c-6.59,0-19.06-1.44-34.31-10.16a5,5,0,1,1,5-8.68c14.14,8.08,25.31,8.94,30.1,8.83,4.48-12.28,2.38-31.3.44-41.6-20.66,2.29-29.75,9.48-29.84,9.56a5,5,0,0,1-6.4-7.69C270,64.83,282.06,55,309.37,53a5,5,0,0,1,5.21,3.82c.35,1.43,8.31,35.23-1.36,55.08a5,5,0,0,1-3.59,2.73A30.3,30.3,0,0,1,304.55,115Z"/><path class="cls-1" d="M53.53,472.72a67.55,67.55,0,0,1-14-1.51C21.08,467.34,13.08,457,11.26,451.57A5,5,0,0,1,11,449.4c.36-3,35.26-300,45.85-375.85.18-3.58,2.45-35.09,27.51-39.9,22.13-4.25,114.25-22.37,115.18-22.56a5,5,0,0,1,1.93,9.82c-.93.18-93.07,18.31-115.22,22.56C68,47,66.87,73.91,66.86,74.18a4.55,4.55,0,0,1,0,.52C56.65,147.42,23.73,427.1,21.13,449.2c1.28,2.35,6.14,9.22,20.43,12.23,14.55,3.06,24.42,0,28.37-1.68L115.6,188.12a5,5,0,0,1,9.86,1.66L79.37,463.92a5,5,0,0,1-2.32,3.44C76.6,467.63,68.07,472.72,53.53,472.72Z"/><path class="cls-1" d="M459.6,472.26c-15.18,0-23.92-4.51-24.38-4.75a5,5,0,0,1-2.59-3.57L386.07,193.85a5,5,0,0,1,9.86-1.7L442,459.53c4.14,1.47,14.16,4.09,28.68,1.85,15-2.32,19.24-9.63,20.2-11.93C488.53,429.3,455.39,147.7,445.18,74.7a4.55,4.55,0,0,1,0-.52c0-.26-1.24-27.22-19.42-30.71C403.57,39.22,311.43,21.09,310.5,20.91a5,5,0,0,1,1.93-9.82c.93.19,93.05,18.31,115.18,22.56,25.06,4.81,27.33,36.32,27.51,39.9C465.71,149.39,500.61,446.41,501,449.4a5.18,5.18,0,0,1-.1,1.71c-.15.67-4,16.36-28.64,20.15A82.81,82.81,0,0,1,459.6,472.26Z"/><path class="cls-1" d="M194.91,499.65a37,37,0,0,1-8.16-.83c-3.53-.56-49.92-8.14-86-20.59a5,5,0,0,1-3.37-4.72c0-.94,0-23.25,4.3-61.33a1045.29,1045.29,0,0,1,29.67-154.55c-2.8-11.58-23.93-100.22-32.86-171.18a5,5,0,1,1,9.92-1.25c9.45,75.11,32.73,170.35,33,171.31a5,5,0,0,1,0,2.5,1035,1035,0,0,0-29.72,154.28c-3.23,28.93-4,48.91-4.18,56.65,36,11.9,80.59,19,81.05,19a4,4,0,0,1,.5.1c.58.15,14.86,3.57,29.53-7.87C245.37,460.3,251,408.11,251,368a5,5,0,0,1,10,0c0,61.81-12.31,102.63-36.58,121.31A48,48,0,0,1,194.91,499.65Z"/><path class="cls-1" d="M256,55.38h-.16a5,5,0,0,1-1.63-.28c-40-9.09-57.33-35.27-58.05-36.38a5,5,0,0,1,4.2-7.72H311.47a5,5,0,0,1,4.19,7.72c-.72,1.11-18.06,27.29-58,36.38A5,5,0,0,1,256,55.38ZM211.18,21A92.87,92.87,0,0,0,255.9,45.23C278.52,40,293,28.65,300.67,21Z"/><path class="cls-1" d="M314.28,85.42a5,5,0,0,1-3.92-8.1,92.72,92.72,0,0,0,15.71-28.49,5,5,0,1,1,9.51,3.09,102.56,102.56,0,0,1-17.37,31.59A5,5,0,0,1,314.28,85.42Z"/><path class="cls-1" d="M267.26,72.4a5,5,0,0,1-4.16-2.21l-11.44-17A5,5,0,1,1,260,47.58l11.45,17a5,5,0,0,1-4.14,7.79Z"/><path class="cls-1" d="M196.8,83.54a5,5,0,0,1-3.91-1.88,95.49,95.49,0,0,1-16.51-29.74,5,5,0,0,1,9.51-3.09,85.65,85.65,0,0,0,14.82,26.59,5,5,0,0,1-3.91,8.12Z"/><path class="cls-1" d="M245.41,72.4a5,5,0,0,1-4.22-7.67l10.74-17A5,5,0,0,1,260.39,53l-10.75,17A5,5,0,0,1,245.41,72.4Z"/><path class="cls-1" d="M256,276.67a5,5,0,0,1-3.88-1.85C206.79,219,188.6,152.7,181.33,106.88c-7.87-49.56-5.1-85.48-5-87a5,5,0,1,1,10,.81c0,.36-2.79,36.45,4.93,84.89,7.1,44.52,24.77,108.93,68.63,162.92a5,5,0,0,1-3.88,8.16Z"/><path class="cls-1" d="M318,499.53c-6.74,0-17.22-1.68-28-10-26-20-39.11-65.92-39.11-136.57V271.67a5,5,0,0,1,1.12-3.16,293.71,293.71,0,0,0,34.06-52.88,5,5,0,0,1,8.93,4.51,304.94,304.94,0,0,1-34.11,53.29V353c0,83.93,19.15,116.28,35.21,128.64,13.89,10.69,26.65,7.48,26.78,7.44a4.86,4.86,0,0,1,.55-.11c.49-.07,48-7.14,81.07-19.91-.18-7.57-1-27.52-4.23-56.51A1040.92,1040.92,0,0,0,370.57,259a5.06,5.06,0,0,1,0-2.62c.24-.86,23.59-87.69,35.14-171.25a5,5,0,1,1,9.91,1.37c-10.86,78.56-32.06,159.91-35.05,171.18a1050.37,1050.37,0,0,1,29.7,154c4.26,37.81,4.33,59.87,4.33,60.79a5,5,0,0,1-3.11,4.63c-33.51,13.71-82.16,21.15-86.35,21.77A32.81,32.81,0,0,1,318,499.53Z"/><path class="cls-1" d="M322.56,128.4a4.89,4.89,0,0,1-1-.1,5,5,0,0,1-3.91-5.89c11.38-56.73,8-101.27,7.95-101.71a5,5,0,0,1,10-.81c.15,1.87,3.56,46.3-8.12,104.49A5,5,0,0,1,322.56,128.4Z"/><path class="cls-1" d="M256,277.74a5.09,5.09,0,0,1-1.78-.33c-55.6-21.14-84-63-98-94.34-15.12-33.87-17.14-62.42-17.22-63.62a5.07,5.07,0,0,1,.91-3.22l12.43-17.52-16.73-7.22a5,5,0,0,1-2.86-5.83c8.6-33.58,25.06-62.46,25.76-63.67a5,5,0,1,1,8.67,5c-.16.27-15.12,26.55-23.64,57.05L162,92a4.93,4.93,0,0,1,2.83,3.24,5,5,0,0,1-.73,4.24l-14.93,21.05a202.28,202.28,0,0,0,16.36,58.8c19.27,42.94,50.31,72.8,92.27,88.76a5,5,0,0,1-1.78,9.67Z"/><path class="cls-1" d="M258.13,277.74a5,5,0,0,1-1.77-9.67,159.35,159.35,0,0,0,78.05-62.73,5,5,0,1,1,8.36,5.49,169.17,169.17,0,0,1-82.86,66.58A5,5,0,0,1,258.13,277.74Z"/><path class="cls-1" d="M363,159.85a5,5,0,0,1-4.8-6.42,189.73,189.73,0,0,0,6.8-32.92L350.06,99.46A5,5,0,0,1,352.15,92l18.44-8c-8.54-30.55-23.49-56.78-23.65-57a5,5,0,0,1,8.68-5c.69,1.21,17.15,30.09,25.76,63.67a5,5,0,0,1-2.87,5.83l-16.73,7.22,12.43,17.52a5,5,0,0,1,.91,3.22c0,.63-1.08,15.66-7.34,36.82A5,5,0,0,1,363,159.85Z"/><path class="cls-1" d="M343.46,365.83a5,5,0,0,1-.14-10,279.17,279.17,0,0,0,52.27-7.73,5,5,0,1,1,2.42,9.7,282.85,282.85,0,0,1-54.4,8Z"/><path class="cls-1" d="M171.74,365.83h-.15a282.85,282.85,0,0,1-54.4-8,5,5,0,0,1,2.42-9.7,279.17,279.17,0,0,0,52.27,7.73,5,5,0,0,1-.14,10Z"/><path class="cls-1" d="M288.5,308.5h-1a5,5,0,0,1,0-10h1a5,5,0,0,1,0,10Z"/><path class="cls-1" d="M288.5,372.5h-1a5,5,0,0,1,0-10h1a5,5,0,0,1,0,10Z"/><path class="cls-1" d="M257,272a5,5,0,0,1-5-5V102a5,5,0,0,1,10,0V267A5,5,0,0,1,257,272Z"/></svg>