<?xml version="1.0" ?><svg viewBox="0 0 512 512" xmlns="http://www.w3.org/2000/svg"><defs><style>.cls-1{fill:#3f456b;}.cls-2{fill:#3f466a;}</style></defs><title/><g id="Lines"><path class="cls-1" d="M456.62,317.38a5,5,0,0,1-4.81-6.37A204.52,204.52,0,0,0,428,146.1a5,5,0,0,1,8.45-5.36,214.57,214.57,0,0,1,25,173A5,5,0,0,1,456.62,317.38Z"/><path class="cls-1" d="M255.59,469.12A214,214,0,0,1,76.07,138.69a5,5,0,0,1,8.39,5.45,203.17,203.17,0,0,0-32.83,111c0,112.46,91.49,204,204,204a202.1,202.1,0,0,0,124-42,5,5,0,1,1,6.08,7.93A212,212,0,0,1,255.59,469.12Z"/><path class="cls-1" d="M366.6,83.09a4.93,4.93,0,0,1-2.65-.76,204.16,204.16,0,0,0-215.66-.66,5,5,0,1,1-5.27-8.5,214.17,214.17,0,0,1,226.25.69,5,5,0,0,1-2.67,9.23Z"/><path class="cls-1" d="M336,397.29a26.52,26.52,0,0,1-14.34-4c-11.27-7.11-14.82-21.1-15.13-27.51-.3-6.26-8-11.59-10.62-13-.16-.08-.32-.18-.48-.28a21.08,21.08,0,0,1-9.78-17.75c-2-11.41,3-17.92,6.63-22.69,3.85-5,6-7.83,2.24-15.74-7.49-15.85-35.15-6.44-35.43-6.35-19.05,6.59-42.27,4.33-59.15-5.75-12.58-7.52-20.68-18.87-22.8-31.95-5.08-31.29,16.05-47.75,31.48-51.18,6.1-1.36,10-5.88,13.1-15.13A33,33,0,0,1,230,172.42a5.54,5.54,0,0,1,.45-.37c17.59-12.51,38.58-11.53,60.71,2.81,13,8.47,24.06.3,24.17.22,1.8-1.37,7-6.21,7.23-10.6.07-1.14-.1-2.92-2.39-5.15-3.75-3.65-8.21-5.55-12.51-7.38-7-3-15.76-6.73-15.52-18.91.06-3.16-4-4.59-6.44-5.17-8.4-2-20.62.82-23.76,7.42-3.92,8.23-14.33,30.11-39.47,20.38-10.55-4.09-17.64-11-19.95-19.35a20.21,20.21,0,0,1,3.58-18c4.14-5.3,11.41-5.66,19.1-6,10.54-.53,22.49-1.12,31.78-12.47,5-6.08,6.69-13.34,8.34-20.37,1.92-8.11,3.9-16.51,10.88-22.44,7.44-6.32,19.23-8.6,37.1-7.15a5,5,0,0,1-.81,10c-31.65-2.57-34,7.18-37.43,21.92-1.83,7.75-3.91,16.54-10.34,24.41-12.1,14.78-27.66,15.55-39,16.11-5.11.26-10.39.52-11.72,2.22a10.18,10.18,0,0,0-1.82,9.17c1.43,5.19,6.5,9.81,13.92,12.68,12,4.65,19.29.49,26.83-15.35,2.62-5.5,8.15-9.78,15.57-12.05a38.54,38.54,0,0,1,19.52-.8c9,2.12,14.28,7.77,14.14,15.09-.1,5.19,2.19,6.42,9.44,9.52,4.67,2,10.47,4.47,15.56,9.42,4.85,4.72,5.62,9.66,5.4,13-.63,9.77-10.11,17.12-11.19,17.92a31.3,31.3,0,0,1-35.63.19c-18.53-12-35.07-13.11-49.17-3.26a24.81,24.81,0,0,0-5.3,9.17c-2.65,8-7.66,18.89-20.41,21.72-.29.06-29.13,6.87-23.78,39.82,2.1,13,11,20.73,18.06,25,14.45,8.63,34.37,10.56,50.74,4.9a69.35,69.35,0,0,1,18.72-3.35c14.2-.43,24.23,4.71,29,14.87,6.34,13.41,1,20.43-3.33,26.08-3.39,4.43-6.07,7.94-4.65,15.31a5,5,0,0,1,.06,1.44,11,11,0,0,0,5.15,9.18c2.21,1.2,15.14,8.8,15.73,21.22.25,5.15,3.31,15,10.48,19.52,5.37,3.38,12.37,3.3,20.81-.25a49.8,49.8,0,0,0,12.06-7.39,5,5,0,1,1,6.31,7.76,59.92,59.92,0,0,1-14.49,8.84A40.33,40.33,0,0,1,336,397.29Z"/><path class="cls-1" d="M399,314.87l-.36,0a5,5,0,0,1-4.63-5.34,245.3,245.3,0,0,0,.26-25.24,3.37,3.37,0,0,1,0-.55c.54-8.81,2.78-21.43,10.33-31.55,2.84-3.81,6.24-7.71,9.53-11.48,13.29-15.25,20.82-25.11,13.36-33.34-4.61-5.08-12.37-9.88-19.86-14.52C396,185.66,386,179.46,384.77,171c-.37-2.54-.06-6.4,3.52-10.43,8.9-10,19.66-1.56,29.15,5.9,9.79,7.69,20.9,16.41,34.26,14.6A5,5,0,1,1,453,191c-17.56,2.38-31.56-8.62-41.78-16.65-10.45-8.21-13.34-9.54-15.5-7.11-1.23,1.38-1.13,2.1-1.09,2.33.57,3.88,10.77,10.19,18.23,14.8,8.08,5,16.45,10.18,22,16.3,14,15.41-1.1,32.72-13.22,46.63-3.31,3.8-6.44,7.39-9.05,10.89-6,8.05-7.87,18.49-8.36,25.93a249.75,249.75,0,0,1-.29,26.15A5,5,0,0,1,399,314.87Z"/><path class="cls-1" d="M165.19,448.6a5,5,0,0,1-2.44-9.37c7.33-4.08,8.69-9.12,4.53-16.86a5,5,0,1,1,8.8-4.74c6.74,12.54,3.66,23.59-8.46,30.34A5,5,0,0,1,165.19,448.6Z"/><path class="cls-1" d="M123.89,336.1l-.56,0-4.09-.44c-2.45-.25-5-.52-7.46-.83-23.16-2.9-29.82-18.14-34-45.27-.85-5.53-3.15-9.54-7-12.27-8.71-6.16-22.64-3.71-22.78-3.69a5,5,0,0,1-1.87-9.82c.73-.14,18.13-3.34,30.42,5.34,6.12,4.32,9.87,10.68,11.13,18.92,4.15,27,9.6,34.9,25.35,36.87,2.38.29,4.86.56,7.27.81l4.15.44a5,5,0,0,1-.55,10Z"/><path class="cls-1" d="M112.11,172.75c-15.74,0-31.31-5.52-41.6-18.8a5,5,0,0,1,7.91-6.13c10.93,14.12,36.6,21.62,62.61,7.72,4.37-2.34,7.32-4.66,9.31-7.3,3.68-4.91,3-11.33,2.33-18.77-.6-6.21-1.22-12.62.72-18.87,3.13-10.07,13.14-15.8,22.83-21.33,16.33-9.34,25.16-15.46,16.58-32.59a5,5,0,1,1,8.94-4.48C215,78.63,195.44,89.79,181.18,98c-8.37,4.78-16.28,9.3-18.24,15.61-1.34,4.33-.84,9.49-.31,14.94.8,8.31,1.71,17.72-4.29,25.74-2.89,3.85-6.89,7.07-12.6,10.12A72.58,72.58,0,0,1,112.11,172.75Z"/><path class="cls-1" d="M432.5,148.5a69,69,0,1,1,69-69A69.07,69.07,0,0,1,432.5,148.5Zm0-128a59,59,0,1,0,59,59A59.07,59.07,0,0,0,432.5,20.5Z"/><path class="cls-2" d="M433.75,124c-9,0-17.21-1.09-19.7-1.89a9.21,9.21,0,0,1-6.61-8.91,32.67,32.67,0,0,1,.51-6.54c.09-.58.2-1.25.31-2-7.51,1.58-12.32-3.87-13.95-7.28-3-5.6-4.68-13.11-4.68-20.62,0-25,16.57-41.79,41.24-41.79h3.26c24.67,0,41.24,16.79,41.24,41.79,0,7.57-1.7,15.12-4.68,20.73-1.62,3.36-6.4,8.75-13.86,7.24,0,0,0,0,0,.07a32.42,32.42,0,0,1,.71,8.71,8.83,8.83,0,0,1-6.44,8.74A73.84,73.84,0,0,1,433.75,124Zm-16.32-11.33c3.43.79,19.16,2.5,30.15.1a23.2,23.2,0,0,0-.58-6.24c-.16-.93-.33-1.87-.47-2.85-.66-4.49,1.36-6.87,2.63-7.89,3.39-2.73,8-1.45,9.35-1,1.68.45,2.66-.71,3.2-1.77a1.36,1.36,0,0,1,.1-.21c2.23-4.15,3.56-10.17,3.56-16.11,0-23.44-16.13-31.79-31.24-31.79h-3.26c-15.11,0-31.24,8.35-31.24,31.79,0,5.88,1.33,11.87,3.56,16,.05.09.1.19.14.28a2.72,2.72,0,0,0,3.15,1.75c1.36-.48,5.83-1.73,9.22.91,1.28,1,3.34,3.35,2.79,7.86-.25,2.09-.48,3.51-.66,4.66A23.51,23.51,0,0,0,417.43,112.71Zm0,.82s0,0,0,.06S417.44,113.55,417.44,113.53Zm30.11,0Zm1.15-1h0Z"/><path class="cls-2" d="M421.13,82.55a5.35,5.35,0,0,1-1.18-.14l-5.33-1.29A5,5,0,0,1,417,71.4l5.33,1.28a5,5,0,0,1-1.17,9.87Z"/><path class="cls-2" d="M445.19,82.55a5,5,0,0,1-1.51-9.77l4.05-1.29a5,5,0,0,1,3,9.54l-4.05,1.28A5,5,0,0,1,445.19,82.55Z"/><path class="cls-1" d="M80.5,146.42a69,69,0,1,1,69-69A69.08,69.08,0,0,1,80.5,146.42Zm0-128a59,59,0,1,0,59,59A59.06,59.06,0,0,0,80.5,18.42Z"/><path class="cls-2" d="M81.75,122c-9,0-17.21-1.09-19.7-1.88a9.21,9.21,0,0,1-6.61-8.92,32.63,32.63,0,0,1,.51-6.53c.09-.58.2-1.25.31-2-7.51,1.58-12.32-3.88-13.95-7.28-3-5.6-4.68-13.11-4.68-20.62,0-25,16.57-41.8,41.24-41.8h3.26c24.67,0,41.24,16.8,41.24,41.8,0,7.57-1.7,15.12-4.68,20.73-1.62,3.36-6.4,8.75-13.86,7.24a.64.64,0,0,1,0,.07,32.35,32.35,0,0,1,.71,8.71,8.81,8.81,0,0,1-6.44,8.73A73.31,73.31,0,0,1,81.75,122ZM65.43,110.62c3.43.79,19.16,2.51,30.15.1a23.09,23.09,0,0,0-.58-6.23c-.16-.93-.33-1.87-.47-2.85-.66-4.49,1.36-6.87,2.63-7.89,3.39-2.74,8-1.45,9.35-1,2.06.55,3.06-1.47,3.17-1.7a2.39,2.39,0,0,1,.13-.28c2.23-4.15,3.56-10.17,3.56-16.11,0-23.45-16.13-31.8-31.24-31.8H78.87c-15.11,0-31.24,8.35-31.24,31.8,0,5.88,1.33,11.86,3.56,16,.05.1.1.19.14.29a2.7,2.7,0,0,0,3.15,1.74c1.36-.47,5.83-1.72,9.22.92C65,94.64,67,97,66.49,101.5c-.25,2.09-.48,3.51-.66,4.66A23.48,23.48,0,0,0,65.43,110.62Zm0,.83v.06S65.44,111.47,65.44,111.45Zm31.26-1h0Z"/><path class="cls-2" d="M69.13,80.46A4.81,4.81,0,0,1,68,80.32L62.62,79A5,5,0,0,1,65,69.32L70.3,70.6a5,5,0,0,1-1.17,9.86Z"/><path class="cls-2" d="M93.19,80.46a5,5,0,0,1-1.51-9.76l4-1.29a5,5,0,1,1,3,9.53l-4.05,1.29A5,5,0,0,1,93.19,80.46Z"/><path class="cls-2" d="M342.75,278.52c-9,0-17.21-1.09-19.7-1.89a9.21,9.21,0,0,1-6.61-8.91,32.74,32.74,0,0,1,.51-6.54c.09-.58.2-1.24.31-2-7.51,1.58-12.32-3.87-13.95-7.27a45.39,45.39,0,0,1-4.68-20.63c0-25,16.57-41.79,41.24-41.79h3.26c24.67,0,41.24,16.79,41.24,41.79,0,7.58-1.7,15.12-4.68,20.73-1.62,3.36-6.4,8.75-13.86,7.24a.64.64,0,0,0,0,.07,32.46,32.46,0,0,1,.71,8.72,8.83,8.83,0,0,1-6.44,8.73A73.84,73.84,0,0,1,342.75,278.52Zm-16.32-11.33c3.43.79,19.16,2.5,30.15.1a23.2,23.2,0,0,0-.58-6.24c-.16-.92-.33-1.87-.47-2.85-.66-4.49,1.36-6.87,2.63-7.89,3.39-2.73,8-1.44,9.35-1,1.68.44,2.66-.72,3.2-1.78a1.86,1.86,0,0,1,.1-.2c2.23-4.15,3.56-10.18,3.56-16.12,0-23.44-16.13-31.79-31.24-31.79h-3.26c-15.11,0-31.24,8.35-31.24,31.79,0,5.88,1.33,11.87,3.56,16a2.59,2.59,0,0,1,.14.29,2.71,2.71,0,0,0,3.15,1.74c1.36-.48,5.83-1.73,9.22.92,1.28,1,3.34,3.35,2.79,7.85-.25,2.09-.48,3.52-.66,4.66A23.51,23.51,0,0,0,326.43,267.19Zm0,.82s0,0,0,.07S326.44,268,326.44,268Zm30.11,0Zm1.15-1,0,0Z"/><path class="cls-2" d="M330.13,237a5.35,5.35,0,0,1-1.18-.14l-5.33-1.29a5,5,0,0,1,2.35-9.72l5.33,1.29a5,5,0,0,1-1.17,9.86Z"/><path class="cls-2" d="M354.19,237a5,5,0,0,1-1.51-9.77l4.05-1.28a5,5,0,1,1,3,9.53l-4.05,1.28A5,5,0,0,1,354.19,237Z"/><path class="cls-1" d="M183.1,424.83a69,69,0,1,1,69-69A69.07,69.07,0,0,1,183.1,424.83Zm0-128a59,59,0,1,0,59,59A59.06,59.06,0,0,0,183.1,296.83Z"/><path class="cls-2" d="M184.34,400.37c-9,0-17.2-1.09-19.69-1.89a9.2,9.2,0,0,1-6.61-8.91,32,32,0,0,1,.51-6.54c.09-.58.2-1.24.31-2-7.51,1.58-12.33-3.87-14-7.28a45.32,45.32,0,0,1-4.69-20.62c0-25,16.58-41.79,41.24-41.79h3.27c24.67,0,41.24,16.79,41.24,41.79,0,7.58-1.71,15.12-4.69,20.73-1.61,3.36-6.4,8.76-13.85,7.24v.07a32,32,0,0,1,.71,8.71,8.82,8.82,0,0,1-6.44,8.74A73.78,73.78,0,0,1,184.34,400.37ZM168,389c3.42.79,19.15,2.5,30.15.1a23.2,23.2,0,0,0-.58-6.24c-.17-.93-.34-1.87-.48-2.85-.65-4.49,1.37-6.87,2.64-7.89,3.39-2.73,8-1.45,9.34-1a2.8,2.8,0,0,0,3.17-1.7c0-.09.09-.19.14-.27,2.23-4.16,3.56-10.18,3.56-16.12,0-23.44-16.14-31.79-31.24-31.79h-3.27c-15.1,0-31.24,8.35-31.24,31.79,0,5.88,1.33,11.87,3.56,16l.15.29a2.71,2.71,0,0,0,3.15,1.74c1.36-.48,5.83-1.73,9.21.91,1.28,1,3.35,3.36,2.8,7.86-.26,2.09-.48,3.52-.66,4.66A23.51,23.51,0,0,0,168,389Zm0,.82v0Zm31.27-1h0Z"/><path class="cls-2" d="M171.73,358.88a5.28,5.28,0,0,1-1.18-.14l-5.33-1.29a5,5,0,1,1,2.35-9.72L172.9,349a5,5,0,0,1-1.17,9.86Z"/><path class="cls-2" d="M195.79,358.88a5,5,0,0,1-1.51-9.77l4.05-1.28a5,5,0,0,1,3,9.53l-4.05,1.28A5.07,5.07,0,0,1,195.79,358.88Z"/><path class="cls-1" d="M426.4,437.81a69,69,0,1,1,69-69A69.08,69.08,0,0,1,426.4,437.81Zm0-128a59,59,0,1,0,59,59A59.06,59.06,0,0,0,426.4,309.81Z"/><path class="cls-2" d="M427.64,413.34c-9,0-17.2-1.09-19.69-1.88a9.19,9.19,0,0,1-6.61-8.92,31.91,31.91,0,0,1,.51-6.53l.31-2c-7.52,1.58-12.33-3.88-14-7.28a45.35,45.35,0,0,1-4.69-20.62c0-25,16.57-41.8,41.24-41.8H428c24.67,0,41.24,16.8,41.24,41.8,0,7.57-1.71,15.12-4.69,20.72-1.62,3.37-6.4,8.76-13.85,7.25,0,0,0,0,0,.07a32,32,0,0,1,.71,8.71,8.8,8.8,0,0,1-6.44,8.73A73.26,73.26,0,0,1,427.64,413.34ZM411.33,402c3.42.79,19.15,2.51,30.15.1a23.09,23.09,0,0,0-.58-6.23c-.17-.93-.34-1.87-.48-2.85-.65-4.49,1.37-6.87,2.63-7.89,3.4-2.74,8-1.45,9.35-1,2.05.55,3.06-1.47,3.17-1.7a2.44,2.44,0,0,1,.14-.28c2.23-4.15,3.56-10.17,3.56-16.11,0-23.45-16.14-31.8-31.24-31.8h-3.27c-15.1,0-31.24,8.35-31.24,31.8,0,5.88,1.33,11.86,3.56,16l.15.29a2.69,2.69,0,0,0,3.15,1.74c1.36-.47,5.83-1.73,9.21.92,1.28,1,3.35,3.35,2.8,7.86-.26,2.08-.48,3.51-.66,4.66A23.48,23.48,0,0,0,411.33,402Zm0,.83v0Zm31.27-1h0Z"/><path class="cls-2" d="M415,371.85a4.76,4.76,0,0,1-1.18-.14l-5.33-1.28a5,5,0,1,1,2.35-9.72l5.32,1.28a5,5,0,0,1-1.16,9.86Z"/><path class="cls-2" d="M439.09,371.85a5,5,0,0,1-1.51-9.76l4.05-1.29a5,5,0,1,1,3,9.53l-4.06,1.29A5,5,0,0,1,439.09,371.85Z"/><path class="cls-1" d="M360.67,144.67a5,5,0,0,1-3-9l23.85-17.82a5,5,0,1,1,6,8l-23.85,17.82A5,5,0,0,1,360.67,144.67Z"/><path class="cls-1" d="M376.06,334.27a5,5,0,0,1-3.47-1.4L351,312.1a5,5,0,0,1,6.94-7.2l21.56,20.77a5,5,0,0,1-3.47,8.6Z"/></g><g id="Outline"><path class="cls-1" d="M250.79,499.25h-.1l-3.05-.08a5,5,0,1,1,.32-10l2.93.08a5,5,0,0,1-.1,10Zm-22.92-1.55-.57,0-3.05-.37a5,5,0,0,1,1.28-9.92c1,.13,1.93.24,2.91.36a5,5,0,0,1-.57,10ZM205.19,494a4.75,4.75,0,0,1-1.05-.11c-1-.21-2-.43-3-.66a5,5,0,1,1,2.22-9.75c.95.22,1.91.43,2.87.63a5,5,0,0,1-1.05,9.89ZM183,488.07a5.06,5.06,0,0,1-1.52-.23l-2.91-.95a5,5,0,1,1,3.15-9.49l2.79.9a5,5,0,0,1-1.51,9.77Zm-21.53-8a5.06,5.06,0,0,1-2-.4l-2.8-1.22a5,5,0,0,1,4.06-9.14l2.68,1.17a5,5,0,0,1-2,9.59ZM140.8,470a5,5,0,0,1-2.4-.62l-2.67-1.48a5,5,0,0,1,4.92-8.71l2.56,1.42A5,5,0,0,1,140.8,470Zm-19.59-12a5,5,0,0,1-2.81-.87l-2.51-1.73a5,5,0,1,1,5.72-8.2l2.42,1.67a5,5,0,0,1-2.82,9.13Zm-18.36-13.82A5,5,0,0,1,99.66,443l-2.34-2a5,5,0,0,1,6.49-7.61l2.24,1.89a5,5,0,0,1-3.2,8.85ZM85.9,428.66a5,5,0,0,1-3.55-1.48c-.72-.72-1.43-1.45-2.14-2.18a5,5,0,0,1,7.18-7l2.06,2.1a5,5,0,0,1-3.55,8.52ZM70.5,411.59a5,5,0,0,1-3.87-1.83c-.64-.79-1.29-1.58-1.92-2.38a5,5,0,1,1,7.81-6.24c.61.76,1.23,1.53,1.85,2.28a5,5,0,0,1-3.87,8.17ZM56.8,393.13a5,5,0,0,1-4.16-2.22c-.57-.85-1.13-1.7-1.69-2.56a5,5,0,0,1,8.38-5.46L61,385.35a5,5,0,0,1-1.37,6.93A4.91,4.91,0,0,1,56.8,393.13Zm-11.87-19.7a5,5,0,0,1-4.4-2.63c-.49-.9-1-1.8-1.44-2.71A5,5,0,0,1,48,363.46c.45.87.91,1.74,1.38,2.6a5,5,0,0,1-4.4,7.37ZM35,352.68a5,5,0,0,1-4.61-3.06c-.4-.95-.79-1.9-1.18-2.85A5,5,0,1,1,38.49,343c.37.91.75,1.82,1.13,2.72a5,5,0,0,1-2.68,6.55A5.08,5.08,0,0,1,35,352.68Zm-7.88-21.62a5,5,0,0,1-4.77-3.52c-.3-1-.6-2-.89-2.93a5,5,0,1,1,9.59-2.84c.28.94.56,1.87.85,2.81a5,5,0,0,1-3.29,6.25A4.87,4.87,0,0,1,27.13,331.06ZM21.4,308.8a5,5,0,0,1-4.9-4l-.6-3a5,5,0,0,1,9.82-1.9c.19,1,.38,1.92.58,2.88a5,5,0,0,1-4.9,6Zm-3.57-22.7a5,5,0,0,1-5-4.47c-.11-1-.21-2-.31-3a5,5,0,1,1,10-.95c.09,1,.19,1.95.29,2.92a5,5,0,0,1-4.43,5.51A5.07,5.07,0,0,1,17.83,286.1Zm-1.36-22.94a5,5,0,0,1-5-4.94c0-1,0-2,0-3.06a5,5,0,0,1,10,0c0,1,0,2,0,2.93a5,5,0,0,1-4.94,5.07Z"/></g></svg>