<?xml version="1.0" ?><svg viewBox="0 0 512 512" xmlns="http://www.w3.org/2000/svg"><defs><style>.cls-1{fill:#3f456b;}</style></defs><title/><g id="Lines"><path class="cls-1" d="M150,425.88a5,5,0,0,1-5-5v-6.76a5,5,0,0,1,10,0v6.76A5,5,0,0,1,150,425.88Z"/><path class="cls-1" d="M176,180H16a5,5,0,0,1-5-5V15a5,5,0,0,1,5-5H176a5,5,0,0,1,5,5V175A5,5,0,0,1,176,180ZM21,170H171V20H21Z"/><path class="cls-1" d="M176,500H16a5,5,0,0,1-5-5V335a5,5,0,0,1,5-5H176a5,5,0,0,1,5,5V495A5,5,0,0,1,176,500ZM21,490H171V340H21Z"/><path class="cls-1" d="M336,340H176a5,5,0,0,1-5-5V175a5,5,0,0,1,5-5H336a5,5,0,0,1,5,5V335A5,5,0,0,1,336,340ZM181,330H331V180H181Z"/><path class="cls-1" d="M495.5,499.5h-160a5,5,0,0,1-5-5v-160a5,5,0,0,1,5-5h160a5,5,0,0,1,5,5v160A5,5,0,0,1,495.5,499.5Zm-155-10h150v-150h-150Z"/><path class="cls-1" d="M456.41,339.5a5,5,0,0,1-2.83-9.13c9.6-6.54,15.38-18.54,15.47-32.1.09-13.33-5.23-25.28-14.29-32.31H383c-9.06,7-14.38,19-14.29,32.31.09,13.56,5.87,25.56,15.46,32.1a5,5,0,1,1-5.63,8.26c-12.31-8.39-19.72-23.46-19.83-40.3-.11-17.2,7.28-32.71,19.78-41.47a5,5,0,0,1,2.87-.9h75a5,5,0,0,1,2.87.9c12.5,8.76,19.89,24.27,19.78,41.48-.11,16.84-7.52,31.9-19.83,40.29A5,5,0,0,1,456.41,339.5Z"/><path class="cls-1" d="M461.65,266.35a37.75,37.75,0,0,1-5.73-.45,5,5,0,0,1,1.52-9.89c6.53,1,12.22-.25,15.6-3.46a9.87,9.87,0,0,0,3-8.47c-.7-7-6.14-8.12-7.22-8.27a5,5,0,0,1-4-7c6.41-14.65-2.86-22.77-3.26-23.11a5,5,0,0,1-1.76-4.19,5,5,0,0,1,2.32-3.89c3.34-2.09,5.5-6.81,5.13-11.23a10.11,10.11,0,0,0-6.65-8.84,29.37,29.37,0,0,0-12.59-.84,5,5,0,0,1-5.47-3.75c0-.06-2.17-8.1-8.49-11.47-3.73-2-8.43-2-14-.08-5.2,1.82-8.67,4.69-10.6,8.76-3.82,8.06-.29,18.3-.25,18.4a5,5,0,0,1-7.18,6.05c-1.26-.7-12.79-6.64-21.35,4.5-8.81,11.44.34,20.82.73,21.21a5,5,0,0,1-2.22,8.36,12.7,12.7,0,0,0-7.92,6.75,15,15,0,0,0-.83,11.93c1.9,5,7.59,7.79,11.89,8.65a5,5,0,0,1-2,9.81c-7.13-1.43-15.95-6.1-19.28-14.93a24.8,24.8,0,0,1,1.27-20,23.51,23.51,0,0,1,7.9-9c-3.9-7-6-17.82,2.49-28.88,7.62-9.91,17.44-11.46,25.13-10.2a32.48,32.48,0,0,1,2.54-16.93c3.1-6.52,8.59-11.21,16.34-13.92,8.32-2.91,15.74-2.66,22.06.75,6.56,3.53,10.16,9.66,11.94,13.73a35.13,35.13,0,0,1,13.52,1.81c7.58,3.16,12.27,9.46,12.91,17.32a23.07,23.07,0,0,1-5.38,16.7c3.86,5.45,7.08,14.34,4,25.41,4.54,2.32,9.3,7,10.14,15.37a19.85,19.85,0,0,1-6.06,16.72C475.43,264.07,469,266.35,461.65,266.35Z"/><path class="cls-1" d="M263,340a5,5,0,0,1-5-5V304c0-25.21-18.52-32.23-18.71-32.3A5,5,0,0,1,236,267v-7H220v7a5,5,0,0,1-3.29,4.7C216,272,198,279.06,198,304v31a5,5,0,0,1-10,0V304c0-25.38,15.13-36.44,22-40.16V255a5,5,0,0,1,5-5h26a5,5,0,0,1,5,5v8.84c6.87,3.72,22,14.78,22,40.16v31A5,5,0,0,1,263,340Z"/><path class="cls-1" d="M282,339a5,5,0,0,1-5-5V207a5,5,0,0,1,5-5h27a5,5,0,0,1,0,10H287V334A5,5,0,0,1,282,339Z"/><path class="cls-1" d="M309,339a5,5,0,0,1-5-5V207a5,5,0,0,1,5-5h27a5,5,0,0,1,0,10H314V334A5,5,0,0,1,309,339Z"/><path class="cls-1" d="M363.63,471.37a5,5,0,0,1-5-5v-27a5,5,0,0,1,5-5h105a5,5,0,0,1,0,10h-100v22A5,5,0,0,1,363.63,471.37Z"/><path class="cls-1" d="M468.63,498a5,5,0,0,1-5-5V417.19h-95v22a5,5,0,0,1-10,0v-27a5,5,0,0,1,5-5h105a5,5,0,0,1,5,5V493A5,5,0,0,1,468.63,498Z"/><path class="cls-1" d="M363.63,498.37a5,5,0,0,1-5-5v-27a5,5,0,0,1,5-5h105a5,5,0,0,1,0,10h-100v22A5,5,0,0,1,363.63,498.37Z"/><path class="cls-1" d="M336,180a5,5,0,0,1-5-5V68H229.5V175a5,5,0,0,1-10,0V63a5,5,0,0,1,5-5H336a5,5,0,0,1,5,5V175A5,5,0,0,1,336,180Z"/><path class="cls-1" d="M316,159H246a5,5,0,0,1-5-5V83a5,5,0,0,1,5-5h70a5,5,0,0,1,5,5v71A5,5,0,0,1,316,159Zm-65-10h60V88H251Z"/><path class="cls-1" d="M96,159a51,51,0,1,1,51-51A51.06,51.06,0,0,1,96,159Zm0-92a41,41,0,1,0,41,41A41,41,0,0,0,96,67Z"/><path class="cls-1" d="M64,180a5,5,0,0,1-4.82-6.31l7.61-28a5,5,0,0,1,9.65,2.62l-7.62,28A5,5,0,0,1,64,180Z"/><path class="cls-1" d="M128.5,180a5,5,0,0,1-4.82-3.69l-7.62-28a5,5,0,0,1,9.65-2.62l7.61,28A5,5,0,0,1,128.5,180Z"/><path class="cls-1" d="M222.74,260a5,5,0,0,1-5-4.42l-3.75-32a5,5,0,1,1,9.94-1.16l3.75,32a5,5,0,0,1-4.39,5.55A5.83,5.83,0,0,1,222.74,260Z"/><path class="cls-1" d="M235,260a5.25,5.25,0,0,1-.56,0,5,5,0,0,1-4.42-5.52l2-18a5,5,0,0,1,9.94,1.1l-2,18A5,5,0,0,1,235,260Z"/><path class="cls-1" d="M96,67a5,5,0,0,1-5-5V50a5,5,0,0,1,10,0V62A5,5,0,0,1,96,67Z"/><path class="cls-1" d="M119,124a5,5,0,0,1-2.16-.49l-23-11A5,5,0,0,1,91,108V87a5,5,0,0,1,10,0v17.85l20.16,9.64A5,5,0,0,1,119,124Z"/></g><g id="Outline"><path class="cls-1" d="M432.36,240.48A5,5,0,0,1,428,238a10.38,10.38,0,0,0-10.17-4.46c-6,.67-7.06,4.38-7.2,5.11l0-.11-9.9-1.41c.59-4.13,4.69-12.28,16-13.53A20.52,20.52,0,0,1,436.7,233a5,5,0,0,1-1.86,6.82A5.06,5.06,0,0,1,432.36,240.48Z"/><path class="cls-1" d="M422.82,204.84a5.08,5.08,0,0,1-2.37-.6,5,5,0,0,1-2-6.8c1.47-2.75,5.68-7.47,12.16-7.64a14.35,14.35,0,0,1,13.69,8.45L435,202.12l0,.1a4.32,4.32,0,0,0-4.24-2.43c-2.26.07-3.59,2.33-3.65,2.43A4.94,4.94,0,0,1,422.82,204.84Z"/></g></svg>