<?xml version="1.0" ?><svg viewBox="0 0 512 512" xmlns="http://www.w3.org/2000/svg"><defs><style>.cls-1{fill:#3f456b;}</style></defs><title/><g id="Lines"><path class="cls-1" d="M447.65,404a5,5,0,0,1-5-5V56.51C442.65,36.38,427,20,407.79,20H81.08a5,5,0,0,1,0-10H407.79c24.74,0,44.86,20.86,44.86,46.51V399A5,5,0,0,1,447.65,404Z"/><path class="cls-1" d="M456.63,500.38h-296c-24.73,0-44.86-20.87-44.86-46.51V313l.48-115.65V116H41.77a5,5,0,0,1-5-5l-.39-54.49c0-25.69,20.19-46.55,45-46.55s44.86,20.86,44.86,46.51V197.38L125.77,313V453.87c0,20.13,15.64,36.51,34.86,36.51s35-16.38,35-36.51l-.39-54.46a5,5,0,0,1,5-5h296a5,5,0,0,1,5,5l.39,54.49C501.65,479.51,481.46,500.38,456.63,500.38Zm-268.14-10H456.63c19.31,0,35-16.38,35-36.51l-.36-49.49h-286l.36,49.45A47.09,47.09,0,0,1,188.49,490.38ZM46.73,106h69.52V56.51C116.25,36.38,100.62,20,81.39,20s-35,16.38-35,36.51Z"/><path class="cls-1" d="M289,241.38a99.44,99.44,0,1,1,99.44-99.44A99.55,99.55,0,0,1,289,241.38ZM289,52.5a89.44,89.44,0,1,0,89.44,89.44A89.54,89.54,0,0,0,289,52.5Z"/><path class="cls-1" d="M289,213.88a71.94,71.94,0,1,1,71.94-71.94A72,72,0,0,1,289,213.88ZM289,80a61.94,61.94,0,1,0,61.94,61.94A62,62,0,0,0,289,80Z"/><path class="cls-1" d="M288.75,178.11c-16.37,0-27.14-8.24-27.53-21.13a5,5,0,0,1,4.85-5.15h.15a5,5,0,0,1,5,4.85c.31,10.53,12.74,11.54,18,11.43s10.26-2.1,12.92-5.16a8.71,8.71,0,0,0,2-7.2c-.48-3.68-2.7-6.45-12-8l-2.74-.42c-8.13-1.22-17.35-2.61-23.65-11.53a15.73,15.73,0,0,1-2.69-12.14,22.25,22.25,0,0,1,9.52-13.9c7-4.76,17.76-5.49,26.73-1.81a25.8,25.8,0,0,1,14.32,14.29,5,5,0,0,1-9.31,3.64,16,16,0,0,0-8.8-8.68c-5.91-2.42-13-2.08-17.33.83a12.49,12.49,0,0,0-5.29,7.41,5.82,5.82,0,0,0,1,4.59c3.65,5.17,8.83,6.19,17,7.41.95.15,1.91.29,2.86.45,4.58.74,18.51,3,20.28,16.53a18.65,18.65,0,0,1-4.41,15c-4.57,5.28-12.18,8.5-20.34,8.61Z"/><path class="cls-1" d="M288.74,115.15a5,5,0,0,1-5-5V96a5,5,0,0,1,10,0v14.15A5,5,0,0,1,288.74,115.15Z"/><path class="cls-1" d="M288.74,193a5,5,0,0,1-5-5V173.06a5,5,0,0,1,10,0V188A5,5,0,0,1,288.74,193Z"/><path class="cls-1" d="M121,435H26a15,15,0,0,1-15-15V169a15,15,0,0,1,15-15h95a5,5,0,0,1,0,10H26a5,5,0,0,0-5,5V420a5,5,0,0,0,5,5h95a5,5,0,0,1,0,10Z"/><path class="cls-1" d="M52.28,235.64c-8.48,0-15.39-6.57-15.4-14.67l0-27.14c0-8.1,6.89-14.7,15.38-14.71l69.06-.12h0a5,5,0,0,1,0,10l-69.06.12c-3,0-5.41,2.11-5.4,4.7l0,27.14c0,2.58,2.43,4.68,5.4,4.68h0l69-.12h0a5,5,0,0,1,0,10l-69,.12Z"/><path class="cls-1" d="M121,260H16a5,5,0,0,1,0-10H121a5,5,0,0,1,0,10Z"/><path class="cls-1" d="M121,347H16a5,5,0,0,1,0-10H121a5,5,0,0,1,0,10Z"/><path class="cls-1" d="M49.27,323a5,5,0,0,1-3.54-8.54l40.36-40.36a5,5,0,1,1,7.07,7.07L52.8,321.57A5,5,0,0,1,49.27,323Z"/><path class="cls-1" d="M89.42,323a5,5,0,0,1-3.54-1.47L45.53,281.21a5,5,0,1,1,7.07-7.07L93,314.5A5,5,0,0,1,89.42,323Z"/><path class="cls-1" d="M93.65,390.64H43a5,5,0,0,1,0-10H93.65a5,5,0,0,1,0,10Z"/></g><g id="Outline"><path class="cls-1" d="M178,323a5,5,0,0,1-2.35-9.41l92.43-49.24a5,5,0,0,1,6.67,1.88l17.37,29.64,106.82-48.42a5,5,0,0,1,4.12,9.1L292.14,306.84a5,5,0,0,1-6.38-2l-17.21-29.38-88.2,47A5,5,0,0,1,178,323Z"/><path class="cls-1" d="M179,372a5,5,0,0,1-5-5V350a5,5,0,0,1,10,0v17A5,5,0,0,1,179,372Z"/><path class="cls-1" d="M210.71,372a5,5,0,0,1-5-5V330a5,5,0,0,1,10,0v37A5,5,0,0,1,210.71,372Z"/><path class="cls-1" d="M242.43,372a5,5,0,0,1-5-5V315a5,5,0,0,1,10,0v52A5,5,0,0,1,242.43,372Z"/><path class="cls-1" d="M274.14,372a5,5,0,0,1-5-5V338a5,5,0,0,1,10,0v29A5,5,0,0,1,274.14,372Z"/><path class="cls-1" d="M305.86,372a5,5,0,0,1-5-5V322a5,5,0,0,1,10,0v45A5,5,0,0,1,305.86,372Z"/><path class="cls-1" d="M337.57,372a5,5,0,0,1-5-5V308a5,5,0,0,1,10,0v59A5,5,0,0,1,337.57,372Z"/><path class="cls-1" d="M369.29,372a5,5,0,0,1-5-5V293a5,5,0,0,1,10,0v74A5,5,0,0,1,369.29,372Z"/><path class="cls-1" d="M401,372a5,5,0,0,1-5-5V275a5,5,0,0,1,10,0v92A5,5,0,0,1,401,372Z"/></g></svg>