<?xml version="1.0" ?><svg viewBox="0 0 512 512" xmlns="http://www.w3.org/2000/svg"><defs><style>.cls-1{fill:#3f456b;}</style></defs><title/><g id="Lines"><path class="cls-1" d="M117.29,494H92.52c-14.13,0-25.63-11.77-25.63-26.23V439.1a5,5,0,0,1,10,0v28.64c0,8.95,7,16.23,15.63,16.23h24.77c8.62,0,15.63-7.28,15.63-16.23V439.1a5,5,0,0,1,10,0v28.64C142.92,482.2,131.42,494,117.29,494Z"/><path class="cls-1" d="M417.8,494H393c-14.13,0-25.63-11.77-25.63-26.23v-27a5,5,0,0,1,10,0v27c0,8.95,7,16.23,15.63,16.23H417.8c8.62,0,15.64-7.28,15.64-16.23v-27a5,5,0,0,1,10,0v27C443.44,482.2,431.94,494,417.8,494Z"/><path class="cls-1" d="M489.33,172.47H474.16a14,14,0,0,1-14-14V126.76a14,14,0,0,1,14-14h15.17a14,14,0,0,1,14,14v31.68A14,14,0,0,1,489.33,172.47Zm-15.17-49.74a4,4,0,0,0-4,4v31.68a4,4,0,0,0,4,4h15.17a4,4,0,0,0,4-4V126.76a4,4,0,0,0-4-4Z"/><path class="cls-1" d="M298,410.52H214.58a5,5,0,0,1-5-5V362a5,5,0,0,1,5-5H298a5,5,0,0,1,5,5v43.49A5,5,0,0,1,298,410.52Zm-78.42-10H293V367H219.58Z"/><path class="cls-1" d="M128,365a37,37,0,1,1,37-37A37,37,0,0,1,128,365Zm0-64a27,27,0,1,0,27,27A27,27,0,0,0,128,301Z"/><path class="cls-1" d="M384,365a37,37,0,1,1,37-37A37,37,0,0,1,384,365Zm0-64a27,27,0,1,0,27,27A27,27,0,0,0,384,301Z"/><path class="cls-1" d="M158.58,443.75H68a15,15,0,0,1-15-15V416a15,15,0,0,1,15-15h91a5,5,0,0,1,0,10H68a5,5,0,0,0-5,5v12.72a5,5,0,0,0,5,5h90.58a5,5,0,1,1,0,10Z"/><path class="cls-1" d="M319.58,443.75H193.25a5,5,0,0,1,0-10H319.58a5,5,0,0,1,0,10Z"/><path class="cls-1" d="M445,443.75H353.54a5,5,0,1,1,0-10H445a5,5,0,0,0,5-5V416a5,5,0,0,0-5-5H353.54a5,5,0,1,1,0-10H445a15,15,0,0,1,15,15v12.72A15,15,0,0,1,445,443.75Z"/><path class="cls-1" d="M319.58,411H193.42a5,5,0,1,1,0-10H319.58a5,5,0,0,1,0,10Z"/><path class="cls-1" d="M87.11,411a33.66,33.66,0,0,1-33.63-33.57c-.09-3.86-3.47-156.38,14.83-306a5,5,0,1,1,9.92,1.21C59.88,222.71,63.44,375.75,63.48,377.27v.13A23.66,23.66,0,0,0,87.11,401a5,5,0,1,1,0,10Z"/><path class="cls-1" d="M425.25,411a5,5,0,0,1,0-10,23.66,23.66,0,0,0,23.63-23.63.62.62,0,0,1,0-.13c0-1.52,3.59-154.56-14.76-304.64a5,5,0,1,1,9.92-1.21c18.3,149.66,14.92,302.18,14.83,306A33.66,33.66,0,0,1,425.25,411Z"/><path class="cls-1" d="M73.11,77c-.21,0-.43,0-.65,0a5,5,0,0,1-4.31-5.61c2.15-16.49,16.19-23.6,18.56-24.69C91,44.31,138.89,19,256.5,19c118.17,0,166,25.52,169.84,27.69,2.14,1,16.46,8.61,17.89,24.87a5,5,0,0,1-10,.88c-1-11.33-11.88-16.56-12.34-16.78l-.42-.21c-.45-.26-47.39-26.45-165-26.45S91.94,55.22,91.48,55.49a5.77,5.77,0,0,1-.56.27c-.44.19-11.31,5.05-12.85,16.91A5,5,0,0,1,73.11,77Z"/><path class="cls-1" d="M398,189H114.45c-7.68,0-13.63-2.42-17.68-7.19-6.56-7.75-5.22-18.84-5-20.39C92,159,97,113.78,98.18,93.25,99,79.68,107,73.35,113.7,70.44a36.76,36.76,0,0,1,13.65-2.91H385.08c9.52-.13,28,5,29.15,25.72,1.16,20.53,6.15,65.79,6.41,68.2.23,1.56,1.57,12.65-5,20.39C411.6,186.61,405.65,189,398,189ZM127.18,77.53c-2.26,0-18.12.56-19,16.28-1.21,21.27-6.42,68.37-6.47,68.84l0,.27c0,.05-1.18,7.88,2.76,12.48,2.09,2.44,5.36,3.63,10,3.63H398c4.65,0,7.93-1.19,10-3.63,3.94-4.6,2.77-12.43,2.76-12.5s0-.17,0-.25c0-.47-5.26-47.57-6.46-68.84-.39-6.92-3.51-11.57-9.55-14.22a26.34,26.34,0,0,0-9.54-2.06h-258Z"/><path class="cls-1" d="M256.5,189a5,5,0,0,1-5-5V73a5,5,0,1,1,10,0V184A5,5,0,0,1,256.5,189Z"/><path class="cls-1" d="M421.76,293a19.81,19.81,0,1,1,19.81-19.81A19.83,19.83,0,0,1,421.76,293Zm0-29.62a9.81,9.81,0,1,0,9.81,9.81A9.82,9.82,0,0,0,421.76,263.34Z"/><path class="cls-1" d="M91.22,293A19.81,19.81,0,1,1,111,273.15,19.84,19.84,0,0,1,91.22,293Zm0-29.62a9.81,9.81,0,1,0,9.81,9.81A9.82,9.82,0,0,0,91.22,263.34Z"/><path class="cls-1" d="M246.75,366.36a5,5,0,0,1-4.74-3.43,167,167,0,0,0-45.17-70.88c-16.7-15.5-37.06-28.16-60.51-37.62C96.13,238.22,60.35,237,60,237a5,5,0,0,1,.13-10h.14c1.52,0,37.67,1.2,79.49,18,24.65,9.9,46.1,23.21,63.75,39.55a176.93,176.93,0,0,1,48,75.21,5,5,0,0,1-4.75,6.57Z"/><path class="cls-1" d="M264.87,366.63a5,5,0,0,1-1.57-.25,5,5,0,0,1-3.18-6.31,176.89,176.89,0,0,1,48-75.37c17.65-16.37,39.11-29.71,63.78-39.63,41.86-16.84,78.06-18,79.58-18a5,5,0,1,1,.28,10c-.51,0-36.27,1.23-76.43,17.44-23.47,9.48-43.84,22.16-60.54,37.69a167,167,0,0,0-45.13,71A5,5,0,0,1,264.87,366.63Z"/><path class="cls-1" d="M176.11,461a21.42,21.42,0,0,1-21.39-21.39V392.92a21.39,21.39,0,1,1,42.78,0v46.72A21.42,21.42,0,0,1,176.11,461Zm0-79.5a11.4,11.4,0,0,0-11.39,11.39v46.72a11.39,11.39,0,1,0,22.78,0V392.92A11.4,11.4,0,0,0,176.11,381.53Z"/><path class="cls-1" d="M336.5,461a21.42,21.42,0,0,1-21.39-21.39V392.92a21.39,21.39,0,0,1,42.78,0v46.72A21.42,21.42,0,0,1,336.5,461Zm0-79.5a11.4,11.4,0,0,0-11.39,11.39v46.72a11.39,11.39,0,0,0,22.78,0V392.92A11.4,11.4,0,0,0,336.5,381.53Z"/><path class="cls-1" d="M255.55,289.53a43.15,43.15,0,1,1,43.14-43.15A43.2,43.2,0,0,1,255.55,289.53Zm0-76.29a33.15,33.15,0,1,0,33.14,33.14A33.18,33.18,0,0,0,255.55,213.24Z"/><path class="cls-1" d="M470.29,199H450.57a5,5,0,0,1,0-10h19.72c2.26,0,3.91-.53,4.9-1.59a7.39,7.39,0,0,0,1.56-4.57c0-.1,0-.2,0-.29V168a5,5,0,1,1,10,0v14.39a17.08,17.08,0,0,1-4.27,11.83C480.43,196.41,476.67,199,470.29,199Z"/><path class="cls-1" d="M37.54,172.47H22.36a14,14,0,0,1-14-14V126.76a14,14,0,0,1,14-14H37.54a14,14,0,0,1,14,14v31.68A14,14,0,0,1,37.54,172.47ZM22.36,122.73a4,4,0,0,0-4,4v31.68a4,4,0,0,0,4,4H37.54a4,4,0,0,0,4-4V126.76a4,4,0,0,0-4-4Z"/><path class="cls-1" d="M61.13,199H41.41c-6.38,0-10.15-2.57-12.18-4.73C25,189.72,24.91,183.72,25,182.42V168a5,5,0,0,1,10,0v14.5c0,.09,0,.19,0,.29a7.19,7.19,0,0,0,1.6,4.61c1,1,2.63,1.55,4.87,1.55H61.13a5,5,0,0,1,0,10Z"/><path class="cls-1" d="M96,411a5,5,0,0,1-5-4.46c-.14-1.28-1.17-12.76,5.76-20.49,3.76-4.19,9.19-6.4,15.71-6.4h48.7a5,5,0,0,1,0,10H112.5c-3.7,0-6.41,1-8.26,3.07-3.39,3.78-3.5,10.63-3.27,12.73A5,5,0,0,1,96.54,411,5.07,5.07,0,0,1,96,411Z"/><path class="cls-1" d="M213.25,390H191.66a5,5,0,1,1,0-10h21.59a5,5,0,0,1,0,10Z"/><path class="cls-1" d="M416.81,411a5.07,5.07,0,0,1-.55,0,5,5,0,0,1-4.43-5.5c.23-2.29.09-9-3.29-12.77-1.85-2.06-4.55-3.05-8.24-3.05H351.6a5,5,0,0,1,0-10h48.7c6.52,0,12,2.21,15.71,6.4,6.93,7.73,5.9,19.21,5.76,20.49A5,5,0,0,1,416.81,411Z"/><path class="cls-1" d="M321.14,390H299.55a5,5,0,1,1,0-10h21.59a5,5,0,0,1,0,10Z"/></g><g id="Outline"><path class="cls-1" d="M72.68,457.84a5,5,0,0,1,0-10H90a5,5,0,1,1,0,10Z"/><path class="cls-1" d="M72.46,476.42a5,5,0,1,1,0-10H90.28a5,5,0,1,1,0,10Z"/><path class="cls-1" d="M119.68,457.84a5,5,0,0,1,0-10H137a5,5,0,1,1,0,10Z"/><path class="cls-1" d="M119.46,476.42a5,5,0,1,1,0-10h17.82a5,5,0,1,1,0,10Z"/><path class="cls-1" d="M373.45,457.84a5,5,0,0,1,0-10h16.95a5,5,0,0,1,0,10Z"/><path class="cls-1" d="M373.23,476.42a5,5,0,0,1,0-10h17.4a5,5,0,0,1,0,10Z"/><path class="cls-1" d="M420.32,457.84a5,5,0,0,1,0-10h16.95a5,5,0,0,1,0,10Z"/><path class="cls-1" d="M420.11,476.42a5,5,0,0,1,0-10h17.4a5,5,0,0,1,0,10Z"/><path class="cls-1" d="M270.7,384.68a5,5,0,0,1,5-5h0a5,5,0,0,1,5,5h0a5,5,0,0,1-5,5h0A5,5,0,0,1,270.7,384.68Zm-20,0a5,5,0,0,1,5-5h0a5,5,0,0,1,5,5h0a5,5,0,0,1-5,5h0A5,5,0,0,1,250.7,384.68Zm-20,0a5,5,0,0,1,5-5h0a5,5,0,0,1,5,5h0a5,5,0,0,1-5,5h0A5,5,0,0,1,230.7,384.68Z"/></g></svg>