<?xml version="1.0" ?><svg viewBox="0 0 512 512" xmlns="http://www.w3.org/2000/svg"><defs><style>.cls-1{fill:#3f456b;}</style></defs><title/><g id="Lines"><path class="cls-1" d="M335.63,279H175.37a5,5,0,0,1-4.89-6l20-95a5,5,0,0,1,4.89-4H316.83a5,5,0,0,1,4.9,4l18.81,95a5,5,0,0,1-4.91,6Zm-154.1-10h148l-16.82-85H199.44Z"/><path class="cls-1" d="M335.63,469H175.37a5,5,0,0,1-4.89-6l20-95a5,5,0,0,1,4.89-4H316.83a5,5,0,0,1,4.9,4l18.81,95a5,5,0,0,1-4.91,6Zm-154.1-10h148l-16.82-85H199.44Z"/><path class="cls-1" d="M175.63,469H15.37a5,5,0,0,1-4.89-6l20-95a5,5,0,0,1,4.89-4H156.83a5,5,0,0,1,4.9,4l18.8,95a5,5,0,0,1-4.9,6ZM21.53,459h148l-16.82-85H39.44Z"/><path class="cls-1" d="M415.63,374H255.37a5,5,0,0,1-4.89-6l20-95a5,5,0,0,1,4.89-4H396.83a5,5,0,0,1,4.9,4l18.81,95a5,5,0,0,1-4.91,6Zm-154.1-10h148l-16.82-85H279.44Z"/><path class="cls-1" d="M255.63,374H95.37a5,5,0,0,1-4.89-6l20-95a5,5,0,0,1,4.89-4H236.83a5,5,0,0,1,4.9,4l18.81,95a5,5,0,0,1-4.91,6Zm-154.1-10h148l-16.82-85H119.44Z"/><path class="cls-1" d="M495.63,469H335.37a5,5,0,0,1-4.89-6l20-95a5,5,0,0,1,4.89-4H476.83a5,5,0,0,1,4.9,4l18.81,95a5,5,0,0,1-4.91,6Zm-154.1-10h148l-16.82-85H359.44Z"/><path class="cls-1" d="M287,452.1c-1.06,0-2.16,0-3.29-.11a5,5,0,0,1,.68-10c6.78.46,11.55-.77,14.16-3.66,3.41-3.76,2.46-9.67,2.45-9.73a5,5,0,0,1,9.84-1.78c.08.43,1.88,10.66-4.78,18.12C301.78,449.71,295.38,452.1,287,452.1Z"/><path class="cls-1" d="M206,356.1c-1.06,0-2.16,0-3.29-.11a5,5,0,0,1,.68-10c6.78.46,11.55-.77,14.16-3.66,3.41-3.76,2.46-9.67,2.45-9.73a5,5,0,0,1,9.84-1.78c.08.43,1.88,10.66-4.78,18.12C220.78,353.71,214.38,356.1,206,356.1Z"/><path class="cls-1" d="M366,356.1c-1.06,0-2.16,0-3.29-.11a5,5,0,0,1,.68-10c6.78.46,11.55-.77,14.16-3.66,3.41-3.76,2.46-9.67,2.45-9.73a5,5,0,0,1,9.84-1.78c.08.43,1.88,10.66-4.78,18.12C380.78,353.71,374.38,356.1,366,356.1Z"/><path class="cls-1" d="M287,260.1c-1.06,0-2.16,0-3.29-.11a5,5,0,0,1,.68-10c6.78.46,11.55-.77,14.16-3.66,3.41-3.76,2.46-9.67,2.45-9.73a5,5,0,0,1,9.84-1.78c.08.43,1.88,10.66-4.78,18.12C301.78,257.71,295.38,260.1,287,260.1Z"/><path class="cls-1" d="M448,452.1c-1.06,0-2.16,0-3.29-.11a5,5,0,0,1,.68-10c6.78.46,11.55-.77,14.16-3.66,3.41-3.76,2.46-9.67,2.45-9.73a5,5,0,0,1,9.84-1.78c.08.43,1.88,10.66-4.78,18.12C462.78,449.71,456.38,452.1,448,452.1Z"/><path class="cls-1" d="M127,452.1c-1.06,0-2.16,0-3.29-.11a5,5,0,0,1,.68-10c6.79.46,11.55-.77,14.16-3.66,3.41-3.76,2.46-9.67,2.45-9.73a5,5,0,0,1,9.84-1.78c.08.43,1.88,10.66-4.78,18.12C141.78,449.71,135.38,452.1,127,452.1Z"/></g><g id="Outline"><path class="cls-1" d="M257,105.47a5,5,0,0,1-5-5V50a5,5,0,0,1,10,0v50.47A5,5,0,0,1,257,105.47Z"/><path class="cls-1" d="M497,295H446.53a5,5,0,0,1,0-10H497a5,5,0,0,1,0,10Z"/><path class="cls-1" d="M67.47,295H17a5,5,0,0,1,0-10H67.47a5,5,0,1,1,0,10Z"/><path class="cls-1" d="M162.24,130.87a5,5,0,0,1-4.33-2.51L132.67,84.65a5,5,0,1,1,8.66-5l25.24,43.71a5,5,0,0,1-4.33,7.51Z"/><path class="cls-1" d="M421.14,200.24a5,5,0,0,1-2.51-9.33l43.72-25.24a5,5,0,0,1,5,8.66l-43.72,25.24A5,5,0,0,1,421.14,200.24Z"/><path class="cls-1" d="M92.86,200.24a5,5,0,0,1-2.5-.67L46.65,174.33a5,5,0,1,1,5-8.66l43.71,25.24a5,5,0,0,1-2.5,9.33Z"/><path class="cls-1" d="M351.76,130.87a5,5,0,0,1-4.33-7.51l25.24-43.71a5,5,0,0,1,8.66,5l-25.24,43.71A5,5,0,0,1,351.76,130.87Z"/><path class="cls-1" d="M207.61,110.8a5,5,0,0,1-4.83-3.71l-7.62-28.46a5,5,0,1,1,9.65-2.58l7.63,28.45a5,5,0,0,1-3.54,6.13A5.19,5.19,0,0,1,207.61,110.8Z"/><path class="cls-1" d="M441.74,248.23a5,5,0,0,1-1.29-9.83l28.45-7.63a5,5,0,1,1,2.59,9.66L443,248.06A5.19,5.19,0,0,1,441.74,248.23Z"/><path class="cls-1" d="M124,159a5,5,0,0,1-3.54-1.46L98.78,135.87a5,5,0,0,1,7.07-7.07l21.68,21.68A5,5,0,0,1,124,159Z"/><path class="cls-1" d="M392.47,160.68a5,5,0,0,1-3.53-8.53l21.67-21.68a5,5,0,0,1,7.08,7.07L396,159.22A5,5,0,0,1,392.47,160.68Z"/><path class="cls-1" d="M74.75,243.92a4.84,4.84,0,0,1-1.3-.17l-29.62-7.93a5,5,0,0,1,2.59-9.66L76,234.09a5,5,0,0,1-1.29,9.83Z"/><path class="cls-1" d="M308.09,111.13a5.34,5.34,0,0,1-1.3-.17,5,5,0,0,1-3.53-6.13l7.93-29.61a5,5,0,1,1,9.66,2.59l-7.93,29.61A5,5,0,0,1,308.09,111.13Z"/></g></svg>