<?xml version="1.0" ?><svg viewBox="0 0 512 512" xmlns="http://www.w3.org/2000/svg"><defs><style>.cls-1{fill:#3f456b;}</style></defs><title/><g id="Lines"><path class="cls-1" d="M417.48,261l-.89-10a37,37,0,0,0,29.53-53.83l8.88-4.61A47,47,0,0,1,417.48,261Z"/><path class="cls-1" d="M66,341.35c-1.09,0-2.18,0-3.3-.11a5,5,0,0,1,.64-10c6.94.44,16.63-.58,23.4-7.93,2.35-2.54,4.38-6.12,6.34-9.62-14.89-5.22-31.63-13.47-45.19-26.35C35.61,275.71,28,258.33,28,242c0-25.72,21.85-34.75,33.4-35.94a5,5,0,0,1,1,9.95c-1,.11-24.44,3-24.44,26,0,13.68,6.42,28.28,16.76,38.11,13,12.34,29.34,20.08,43.66,24.88,10.48-14.86,27.43-26.69,46.92-19.48a17.47,17.47,0,0,1,11.53,13.81,18,18,0,0,1-7.16,17.08c-7,5.34-17.21,6.79-30.47,4.3-4.55-.85-10.19-2.1-16.44-3.89l-.87,1.54c-2.18,3.89-4.66,8.29-7.86,11.76C87.34,337.42,77.45,341.35,66,341.35Zm42.64-33.3c4.68,1.24,8.92,2.16,12.47,2.82,10.2,1.92,18,1.09,22.53-2.4a8.11,8.11,0,0,0,3.36-7.65,7.5,7.5,0,0,0-5.11-5.93C126.91,289.36,115.16,299.79,108.62,308.05Z"/><path class="cls-1" d="M349.79,305.8a24.06,24.06,0,0,1-3.67-.28L73.19,261.36A23.87,23.87,0,0,1,53.28,234.1l11-70.91a5,5,0,1,1,9.88,1.53l-11,70.92a13.87,13.87,0,0,0,11.59,15.84l272.93,44.16A13.89,13.89,0,0,0,363.49,284l10.76-69.42a5,5,0,1,1,9.88,1.53l-10.75,69.42A23.93,23.93,0,0,1,349.79,305.8Z"/><path class="cls-1" d="M421.55,225.64a72.49,72.49,0,0,1-11.23-1.08L72.14,169.47a23.9,23.9,0,0,1-19.91-27.26L67.28,56.08c.93-6,5.65-12.74,12.59-17.85s14.68-7.63,20.9-6.67L473.8,92c6.8,1,13.37,5.88,17.1,12.6a24.68,24.68,0,0,1,1.17,22.09c-.05.13-.11.25-.17.37l-44.14,84.1a2.54,2.54,0,0,1-.16.28C440.51,223.06,430.31,225.64,421.55,225.64ZM98,41.35c-3.37,0-8,1.84-12.2,4.93-4.72,3.48-8.11,8-8.65,11.43L62.09,143.84a13.89,13.89,0,0,0,11.62,15.75l338.18,55.09c10.94,1.69,20.57,2.24,27.09-8.31l44-83.76a15,15,0,0,0-.78-13.15c-2.23-4-6.13-7-9.93-7.57L99.2,41.44A7.69,7.69,0,0,0,98,41.35Zm345.33,167.5h0Z"/><path class="cls-1" d="M399.2,282.88a24.06,24.06,0,0,1-3.67-.28l-26.13-4.05a5,5,0,0,1,1.53-9.88l26.13,4.05a13.9,13.9,0,0,0,15.85-11.6l6.45-41.25a5,5,0,0,1,9.88,1.54l-6.45,41.25A23.92,23.92,0,0,1,399.2,282.88Z"/><path class="cls-1" d="M105.86,265.41a5.09,5.09,0,0,1-.77-.06,5,5,0,0,1-4.17-5.71L114.65,171a5,5,0,1,1,9.88,1.53L110.8,261.17A5,5,0,0,1,105.86,265.41Z"/><path class="cls-1" d="M26,480a5,5,0,0,1-5-5V290a5,5,0,0,1,10,0V475A5,5,0,0,1,26,480Z"/><path class="cls-1" d="M55.12,457H29a5,5,0,0,1,0-10H55.12A3.14,3.14,0,0,0,58,443.79V324.1a3,3,0,0,0-2.88-3.1H29a5,5,0,0,1,0-10H55.12A13,13,0,0,1,68,324.1V443.79A13.07,13.07,0,0,1,55.12,457Z"/><path class="cls-1" d="M63,431.33a5,5,0,0,1-1.35-9.81c89.36-25,164.63-30.81,185.56-32,4.76-.27,8.13-1.43,9.74-3.36a4.84,4.84,0,0,0,1.12-3,4.8,4.8,0,0,1-.07-.85V382a5,5,0,0,1,6.61-4.73L258,367.5c0-3.65-.93-6.24-2.85-7.94-3.15-2.8-8.67-2.82-10.52-2.6-.2,0-.43,0-.63,0H63a5,5,0,0,1,0-10H243.71c2.17-.23,11.39-.79,18,5,2.86,2.52,6.28,7.25,6.28,15.49v14.2a14.83,14.83,0,0,1-3.13,10.56c-3.45,4.35-9.2,6.78-17.08,7.23-20.69,1.18-95,7-183.44,31.66A5.28,5.28,0,0,1,63,431.33Z"/><path class="cls-1" d="M253,357a5,5,0,0,1-4.92-4.16c-.15-.84-4.07-21.17-26.16-21.17s-24.51,20-24.61,20.88a5,5,0,1,1-9.94-1.1c1.15-10.3,9.84-29.78,34.55-29.78,24.5,0,34.27,19.29,36,29.49a5,5,0,0,1-4.09,5.77A4.88,4.88,0,0,1,253,357Z"/><path class="cls-1" d="M208.65,334.26a5,5,0,0,1-5-5c0-8.12-5.08-9.76-19.57-12.37-1.73-.31-3.5-.63-5.3-1-7.43-1.47-10.89-5.35-12.48-8.34-3.43-6.47-1.12-13.75-.34-15.79l4.48-20a5,5,0,0,1,9.76,2.18l-4.57,20.43a5.08,5.08,0,0,1-.28.86c-.51,1.26-1.57,5.16-.2,7.71.84,1.55,2.71,2.62,5.57,3.18,1.74.35,3.45.66,5.13,1,13,2.34,27.8,5,27.8,22.21A5,5,0,0,1,208.65,334.26Z"/><path class="cls-1" d="M231.29,332.86a5.17,5.17,0,0,1-.95-.09,5,5,0,0,1-4-5.86L235,282.32a5,5,0,1,1,9.82,1.9l-8.62,44.59A5,5,0,0,1,231.29,332.86Z"/><path class="cls-1" d="M237,379h-1a5,5,0,0,1,0-10h1a5,5,0,0,1,0,10Z"/></g><g id="Outline"><path class="cls-1" d="M225.52,145.36a6.07,6.07,0,0,1-.84-.07l-123.6-21a5,5,0,1,1,1.68-9.86l123.6,21a5,5,0,0,1-.84,9.93Z"/><path class="cls-1" d="M229,123a4.84,4.84,0,0,1-.84-.07l-123.6-21A5,5,0,1,1,106.23,92l123.6,21A5,5,0,0,1,229,123Z"/><path class="cls-1" d="M232.46,100.57a6.07,6.07,0,0,1-.84-.07L108,79.48a5,5,0,1,1,1.68-9.86l123.6,21a5,5,0,0,1-.84,9.93Z"/></g></svg>