<?xml version="1.0" ?><svg viewBox="0 0 512 512" xmlns="http://www.w3.org/2000/svg"><defs><style>.cls-1{fill:#3f456b;}</style></defs><title/><g id="Lines"><path class="cls-1" d="M107.7,419.46a43.12,43.12,0,1,1,43.13-43.12A43.16,43.16,0,0,1,107.7,419.46Zm0-76.24a33.12,33.12,0,1,0,33.13,33.12A33.16,33.16,0,0,0,107.7,343.22Z"/><path class="cls-1" d="M107.7,382a5,5,0,0,1-5-5v-1.28a5,5,0,0,1,10,0V377A5,5,0,0,1,107.7,382Z"/><path class="cls-1" d="M192.5,419.46a43.12,43.12,0,1,1,43.13-43.12A43.16,43.16,0,0,1,192.5,419.46Zm0-76.24a33.12,33.12,0,1,0,33.13,33.12A33.16,33.16,0,0,0,192.5,343.22Z"/><path class="cls-1" d="M192.5,382a5,5,0,0,1-5-5v-1.28a5,5,0,0,1,10,0V377A5,5,0,0,1,192.5,382Z"/><path class="cls-1" d="M277.63,419.46a43.12,43.12,0,1,1,43.12-43.12A43.17,43.17,0,0,1,277.63,419.46Zm0-76.24a33.12,33.12,0,1,0,33.12,33.12A33.16,33.16,0,0,0,277.63,343.22Z"/><path class="cls-1" d="M277.63,398.41a22.07,22.07,0,1,1,22.06-22.07A22.09,22.09,0,0,1,277.63,398.41Zm0-34.13a12.07,12.07,0,1,0,12.06,12.06A12.08,12.08,0,0,0,277.63,364.28Z"/><path class="cls-1" d="M192.5,398.41a22.07,22.07,0,1,1,22.06-22.07A22.09,22.09,0,0,1,192.5,398.41Zm0-34.13a12.07,12.07,0,1,0,12.06,12.06A12.08,12.08,0,0,0,192.5,364.28Z"/><path class="cls-1" d="M107.7,398.41a22.07,22.07,0,1,1,22.07-22.07A22.09,22.09,0,0,1,107.7,398.41Zm0-34.13a12.07,12.07,0,1,0,12.07,12.06A12.07,12.07,0,0,0,107.7,364.28Z"/><path class="cls-1" d="M361.63,398.41a22.07,22.07,0,1,1,22.07-22.07A22.09,22.09,0,0,1,361.63,398.41Zm0-34.13a12.07,12.07,0,1,0,12.07,12.06A12.08,12.08,0,0,0,361.63,364.28Z"/><path class="cls-1" d="M277.63,382a5,5,0,0,1-5-5v-1.28a5,5,0,0,1,10,0V377A5,5,0,0,1,277.63,382Z"/><path class="cls-1" d="M361.63,419.46a43.12,43.12,0,1,1,43.12-43.12A43.17,43.17,0,0,1,361.63,419.46Zm0-76.24a33.12,33.12,0,1,0,33.12,33.12A33.16,33.16,0,0,0,361.63,343.22Z"/><path class="cls-1" d="M361.63,382a5,5,0,0,1-5-5v-1.28a5,5,0,0,1,10,0V377A5,5,0,0,1,361.63,382Z"/><path class="cls-1" d="M430.2,390.31a28.49,28.49,0,1,1,28.48-28.49A28.52,28.52,0,0,1,430.2,390.31Zm0-47a18.49,18.49,0,1,0,18.48,18.49A18.51,18.51,0,0,0,430.2,343.33Z"/><path class="cls-1" d="M430.19,366.65a5,5,0,0,1-5-5v-.55a5,5,0,0,1,10,0v.55A5,5,0,0,1,430.19,366.65Z"/><path class="cls-1" d="M40,390.31a28.49,28.49,0,1,1,28.49-28.49A28.52,28.52,0,0,1,40,390.31Zm0-47a18.49,18.49,0,1,0,18.49,18.49A18.51,18.51,0,0,0,40,343.33Z"/><path class="cls-1" d="M40,366.65a5,5,0,0,1-5-5v-.55a5,5,0,0,1,10,0v.55A5,5,0,0,1,40,366.65Z"/><path class="cls-1" d="M430.19,343.33H40a5,5,0,0,1,0-10h390.2a5,5,0,0,1,0,10Z"/><path class="cls-1" d="M89.74,414.88a5,5,0,0,1-2-.44l-6.11-2.75a5,5,0,1,1,4.1-9.12l6.11,2.75a5,5,0,0,1-2.05,9.56ZM74.5,408a5,5,0,0,1-2-.44l-9.12-4.1a5,5,0,0,1-2.52-6.57,5,5,0,0,1-6.6,2.47l-9.12-4.1a5,5,0,1,1,4.1-9.12l9.12,4.1a5,5,0,0,1,2.53,6.57,5,5,0,0,1,6.59-2.47l9.12,4.1a5,5,0,0,1-2,9.56ZM38,391.63a5,5,0,0,1-2.05-.44l-9.12-4.1A5,5,0,1,1,31,378l9.12,4.1a5,5,0,0,1-2,9.56Z"/><path class="cls-1" d="M380.21,414.88a5,5,0,0,1-2-9.56l6.12-2.75a5,5,0,1,1,4.1,9.12l-6.12,2.75A5,5,0,0,1,380.21,414.88ZM395.45,408a5,5,0,0,1-2.05-9.56l9.12-4.1a5,5,0,0,1,6.59,2.47,5,5,0,0,1,2.53-6.57l9.12-4.1a5,5,0,1,1,4.1,9.12l-9.12,4.1a5,5,0,0,1-6.59-2.47,5,5,0,0,1-2.53,6.57l-9.12,4.1A5,5,0,0,1,395.45,408Zm36.48-16.4a5,5,0,0,1-2.05-9.56L439,378a5,5,0,1,1,4.1,9.12l-9.12,4.1A5,5,0,0,1,431.93,391.63Z"/><path class="cls-1" d="M357.7,419.47h-10a5,5,0,0,1,0-10h10a5,5,0,1,1,0,10Zm-20,0h-10a5,5,0,0,1,0-10h10a5,5,0,1,1,0,10Zm-20,0h-10a5,5,0,0,1,0-10h10a5,5,0,1,1,0,10Zm-20,0h-10a5,5,0,0,1,0-10h10a5,5,0,1,1,0,10Zm-20,0h-10a5,5,0,0,1,0-10h10a5,5,0,1,1,0,10Zm-20,0h-10a5,5,0,0,1,0-10h10a5,5,0,1,1,0,10Zm-20,0h-10a5,5,0,0,1,0-10h10a5,5,0,1,1,0,10Zm-20,0h-10a5,5,0,0,1,0-10h10a5,5,0,1,1,0,10Zm-20,0h-10a5,5,0,0,1,0-10h10a5,5,0,1,1,0,10Zm-20,0h-10a5,5,0,0,1,0-10h10a5,5,0,1,1,0,10Zm-20,0h-10a5,5,0,0,1,0-10h10a5,5,0,1,1,0,10Zm-20,0h-10a5,5,0,0,1,0-10h10a5,5,0,1,1,0,10Zm-20,0h-10a5,5,0,0,1,0-10h10a5,5,0,1,1,0,10Z"/><path class="cls-1" d="M453.55,366.82a5,5,0,0,1-5-5V341.45c0-.09.29-11.69-7.05-19.27-4.44-4.58-10.94-6.9-19.33-6.9H47.88c-8.39,0-14.9,2.32-19.33,6.9-7.34,7.58-7.06,19.18-7,19.29v20.35a5,5,0,0,1-10,0V341.73c0-1.59-.14-16.1,9.78-26.42,6.4-6.66,15.35-10,26.6-10H422.17c11.25,0,20.2,3.37,26.59,10,9.92,10.32,9.83,24.82,9.79,26.42v20.09A5,5,0,0,1,453.55,366.82Z"/><path class="cls-1" d="M418.5,315.28A5,5,0,0,1,415,313.8l-48-48.31-.18-.2c-.12-.13-13.18-14.32-34.1-14.32h-200a47.06,47.06,0,0,0-32.9,13.12,5,5,0,1,1-7.09-7,57.35,57.35,0,0,1,40-16.07h200a58.83,58.83,0,0,1,41.46,17.55l47.92,48.23a5,5,0,0,1-3.55,8.53Z"/><path class="cls-1" d="M46.83,315.28a5,5,0,0,1-3.55-8.53l19.37-19.49a5,5,0,0,1,7.09,7.05L50.37,313.8A4.94,4.94,0,0,1,46.83,315.28Z"/><path class="cls-1" d="M300,251H164a25,25,0,0,1-25-25V186a25,25,0,0,1,25-25H300a25,25,0,0,1,25,25v40A25,25,0,0,1,300,251ZM164,171a15,15,0,0,0-15,15v40a15,15,0,0,0,15,15H300a15,15,0,0,0,15-15V186a15,15,0,0,0-15-15Z"/><path class="cls-1" d="M351.5,230.22H320a5,5,0,0,1,0-10h31.5a5,5,0,0,0,5-5V198.47a5,5,0,0,0-5-5H320a5,5,0,0,1,0-10h31.5a15,15,0,0,1,15,15v16.75A15,15,0,0,1,351.5,230.22Z"/><path class="cls-1" d="M494.64,221.13H361.5a5,5,0,0,1,0-10H493.33c0-.88,0-2,0-3q0-1.07,0-2.19c0-.76,0-1.49,0-2.2,0-.94,0-2.09,0-3H361.5a5,5,0,0,1,0-10H494.64a8.25,8.25,0,0,1,6.08,2.37c2.75,2.81,2.68,6.86,2.61,10.77,0,.65,0,1.33,0,2s0,1.37,0,2c.07,3.92.14,8-2.61,10.77A8.25,8.25,0,0,1,494.64,221.13Zm.06-20.33h0Z"/><path class="cls-1" d="M119.67,299H74.5a15,15,0,0,1-15-15V271.1a15,15,0,0,1,15-15h45.17a15,15,0,0,1,15,15V284A15,15,0,0,1,119.67,299ZM74.5,266.1a5,5,0,0,0-5,5V284a5,5,0,0,0,5,5h45.17a5,5,0,0,0,5-5V271.1a5,5,0,0,0-5-5Z"/><path class="cls-1" d="M281,171a5,5,0,0,1-5-5V152.22a5,5,0,0,0-5-5H194.5a5,5,0,0,0-5,5V166a5,5,0,1,1-10,0V152.22a15,15,0,0,1,15-15H271a15,15,0,0,1,15,15V166A5,5,0,0,1,281,171Z"/><path class="cls-1" d="M262,211H199.25a5,5,0,0,1,0-10H262a5,5,0,0,1,0,10Z"/><path class="cls-1" d="M297.5,170.22a5,5,0,0,1-5-5V96.53a5,5,0,1,1,10,0v68.69A5,5,0,0,1,297.5,170.22Z"/></g><g id="Outline"><path class="cls-1" d="M160.5,315.28a5,5,0,0,1-5-5V278.13a5,5,0,0,1,10,0v32.15A5,5,0,0,1,160.5,315.28Z"/><path class="cls-1" d="M192.5,315.28a5,5,0,0,1-5-5V278.13a5,5,0,0,1,10,0v32.15A5,5,0,0,1,192.5,315.28Z"/><path class="cls-1" d="M224.5,315.28a5,5,0,0,1-5-5V278.13a5,5,0,0,1,10,0v32.15A5,5,0,0,1,224.5,315.28Z"/><path class="cls-1" d="M256.5,315.28a5,5,0,0,1-5-5V278.13a5,5,0,0,1,10,0v32.15A5,5,0,0,1,256.5,315.28Z"/><path class="cls-1" d="M288.5,315.28a5,5,0,0,1-5-5V278.13a5,5,0,0,1,10,0v32.15A5,5,0,0,1,288.5,315.28Z"/><path class="cls-1" d="M320.5,315.28a5,5,0,0,1-5-5V278.13a5,5,0,0,1,10,0v32.15A5,5,0,0,1,320.5,315.28Z"/></g></svg>