<?xml version="1.0" ?><svg viewBox="0 0 512 512" xmlns="http://www.w3.org/2000/svg"><defs><style>.cls-1{fill:#3f456b;}</style></defs><title/><g id="Lines"><path class="cls-1" d="M132.93,290.28a5.11,5.11,0,0,1-1.16-.14l-76-18.07a5,5,0,0,1-3.67-6.16l48.1-179.18C104.1,59.42,139.53,45,141,44.36l38.13-15a5,5,0,0,1,3.66,9.3l-38.1,15c-.29.12-31.77,13-34.63,34.72A4.53,4.53,0,0,1,110,89L63.12,263.53l65.79,15.65,21.21-122a5,5,0,1,1,9.85,1.72L137.86,286.13a5,5,0,0,1-4.93,4.15Z"/><path class="cls-1" d="M380.07,290.28a5,5,0,0,1-4.93-4.15L353,158.88a5,5,0,1,1,9.85-1.72l21.21,122,65.79-15.65L403,89a4.53,4.53,0,0,1-.13-.64c-2.86-21.71-34.34-34.6-34.66-34.73l-37.11-15a5,5,0,1,1,3.74-9.28l37.11,15c1.49.6,36.92,15.06,40.79,42.37l48.1,179.18a5,5,0,0,1-3.67,6.16l-76,18.07A5.11,5.11,0,0,1,380.07,290.28Z"/><path class="cls-1" d="M369,501H145a5,5,0,0,1-5-5c0-120.18,18.07-238.56,19.62-248.53L143.3,94a5,5,0,0,1,9.94-1.06l16.4,154.17a5.29,5.29,0,0,1,0,1.32C169.41,249.6,150.52,368.61,150,491H364c-.54-122.4-20.44-241.36-20.65-242.57a5.15,5.15,0,0,1,0-1.36L359.69,92.9A5,5,0,0,1,369.64,94L353.32,247.45C355,257.55,374,375.88,374,496A5,5,0,0,1,369,501Z"/><path class="cls-1" d="M286,219a5,5,0,0,1-4.23-2.34c-3.77-6-92.5-146.95-99.24-160.42S174.68,31.45,179.39,23c6.34-11.42,20.54-12.87,21.14-12.93l.47,0H313c.62,0,15.15.12,21.37,10.8,4.73,8.13,3,19.46-5,33.67C324.51,63,291,120.27,262.62,167.36c15.42,24.61,27.28,43.45,27.61,44A5,5,0,0,1,286,219ZM201.29,20c-1.31.18-9.72,1.56-13.18,7.86-2.94,5.35-1.78,13.62,3.36,23.9,3.9,7.8,38.12,62.81,65.21,106.1,27.76-46.13,59.3-100.09,64-108.33,6.08-10.71,7.84-18.89,5.09-23.67C322.5,20.24,313.07,20,313,20Z"/><path class="cls-1" d="M350,221H258a5,5,0,0,1,0-10h92a5,5,0,0,1,0,10Z"/><path class="cls-1" d="M224.33,221H162a5,5,0,0,1,0-10h62.33a5,5,0,1,1,0,10Z"/><path class="cls-1" d="M348,253H258a5,5,0,0,1,0-10h90a5,5,0,0,1,0,10Z"/><path class="cls-1" d="M223.92,253H165a5,5,0,0,1,0-10h58.92a5,5,0,0,1,0,10Z"/><path class="cls-1" d="M288.5,500a5,5,0,0,1-5-5V248a5,5,0,0,1,10,0V495A5,5,0,0,1,288.5,500Z"/><path class="cls-1" d="M258,405H225a5,5,0,0,1-5-5V213a15,15,0,0,1,15-15h13a15,15,0,0,1,15,15V400A5,5,0,0,1,258,405Zm-28-10h23V213a5,5,0,0,0-5-5H235a5,5,0,0,0-5,5Z"/><path class="cls-1" d="M168,397H148.87a5,5,0,0,1,0-10H168c6,0,10.57-1.66,13.72-4.94,5.49-5.71,5.29-14.77,5.28-14.86V308.5H157.18a5,5,0,0,1,0-10H192a5,5,0,0,1,5,5v63.43c0,1.46.08,13.58-8.07,22.06C183.83,394.3,176.78,397,168,397Z"/><path class="cls-1" d="M364,397H344.88c-8.78,0-15.83-2.7-20.93-8-8.15-8.48-8.11-20.6-8.07-22.06V303.5a5,5,0,0,1,5-5H355.7a5,5,0,1,1,0,10H325.88v58.7c0,.07-.22,9.19,5.32,14.91,3.15,3.24,7.75,4.89,13.68,4.89H364a5,5,0,0,1,0,10Z"/><path class="cls-1" d="M256,105a5,5,0,0,1-4.27-2.4l-39-64a5,5,0,0,1,8.54-5.2l39,64A5,5,0,0,1,256,105Z"/><path class="cls-1" d="M237,139a5,5,0,0,1-4.31-7.53l58-99a5,5,0,1,1,8.62,5.06l-58,99A5,5,0,0,1,237,139Z"/><path class="cls-1" d="M288,52H224a5,5,0,0,1,0-10h64a5,5,0,0,1,0,10Z"/></g><g id="Outline"><path class="cls-1" d="M139,256a4.9,4.9,0,0,1-1.13-.13l-73-17a5,5,0,0,1,2.26-9.74l73,17A5,5,0,0,1,139,256Z"/><path class="cls-1" d="M374,256a5,5,0,0,1-1.13-9.87l73-17a5,5,0,0,1,2.26,9.74l-73,17A4.9,4.9,0,0,1,374,256Z"/></g></svg>