<?xml version="1.0" ?><svg id="Lines" viewBox="0 0 512 512" xmlns="http://www.w3.org/2000/svg"><defs><style>.cls-1{fill:#3d446b;}</style></defs><title/><path class="cls-1" d="M165,400H155V368.84A23.62,23.62,0,0,0,148,353.15C140.66,345.75,128.56,342,112,342s-28.66,3.75-35.95,11.15a23.62,23.62,0,0,0-7,15.73V400H59V369a33.79,33.79,0,0,1,9.72-22.69C78,336.83,92.51,332,112,332s34.05,4.83,43.28,14.35A33.79,33.79,0,0,1,165,369Z"/><path class="cls-1" d="M261,400H251V368.84A23.62,23.62,0,0,0,244,353.15C236.66,345.75,224.56,342,208,342s-28.66,3.75-35.95,11.15A23.62,23.62,0,0,0,165,368.88V400H155V369a33.79,33.79,0,0,1,9.72-22.69C174,336.83,188.51,332,208,332s34.05,4.83,43.28,14.35A33.79,33.79,0,0,1,261,369Z"/><path class="cls-1" d="M357,400H347V368.84A23.62,23.62,0,0,0,340,353.15C332.66,345.75,320.56,342,304,342s-28.66,3.75-35.95,11.15A23.62,23.62,0,0,0,261,368.88V400H251V369a33.79,33.79,0,0,1,9.72-22.69C270,336.83,284.51,332,304,332s34.05,4.83,43.28,14.35A33.79,33.79,0,0,1,357,369Z"/><path class="cls-1" d="M453,400H443V368.84A23.62,23.62,0,0,0,436,353.15C428.66,345.75,416.56,342,400,342s-28.66,3.75-35.95,11.15A23.62,23.62,0,0,0,357,368.88V400H347V369a33.79,33.79,0,0,1,9.72-22.69C366,336.83,380.51,332,400,332s34.05,4.83,43.28,14.35A33.79,33.79,0,0,1,453,369Z"/><path class="cls-1" d="M112,501H16a5,5,0,0,1-5-5V432a33.79,33.79,0,0,1,9.72-22.69C30,399.83,44.51,395,64,395s34.05,4.83,43.28,14.35A33.79,33.79,0,0,1,117,432v64A5,5,0,0,1,112,501ZM21,491h86V431.84a23.62,23.62,0,0,0-7-15.69C92.66,408.75,80.56,405,64,405s-28.66,3.75-35.95,11.15a23.62,23.62,0,0,0-7,15.73V491Z"/><path class="cls-1" d="M208,501H112a5,5,0,0,1-5-5V432a33.79,33.79,0,0,1,9.72-22.69C126,399.83,140.51,395,160,395s34.05,4.83,43.28,14.35A33.79,33.79,0,0,1,213,432v64A5,5,0,0,1,208,501Zm-91-10h86V431.84A23.62,23.62,0,0,0,196,416.15C188.66,408.75,176.56,405,160,405s-28.66,3.75-35.95,11.15a23.62,23.62,0,0,0-7,15.73V491Z"/><path class="cls-1" d="M304,501H208a5,5,0,0,1-5-5V432a33.79,33.79,0,0,1,9.72-22.69C222,399.83,236.51,395,256,395s34.05,4.83,43.28,14.35A33.79,33.79,0,0,1,309,432v64A5,5,0,0,1,304,501Zm-91-10h86V431.84A23.62,23.62,0,0,0,292,416.15C284.66,408.75,272.56,405,256,405s-28.66,3.75-35.95,11.15A23.62,23.62,0,0,0,213,431.88V491Z"/><path class="cls-1" d="M400,501H304a5,5,0,0,1-5-5V432a33.79,33.79,0,0,1,9.72-22.69C318,399.83,332.51,395,352,395s34.05,4.83,43.28,14.35A33.79,33.79,0,0,1,405,432v64A5,5,0,0,1,400,501Zm-91-10h86V431.84A23.62,23.62,0,0,0,388,416.15C380.66,408.75,368.56,405,352,405s-28.66,3.75-35.95,11.15A23.62,23.62,0,0,0,309,431.88V491Z"/><path class="cls-1" d="M496,501H400a5,5,0,0,1-5-5V432a33.79,33.79,0,0,1,9.72-22.69C414,399.83,428.51,395,448,395s34.05,4.83,43.28,14.35A33.79,33.79,0,0,1,501,432v64A5,5,0,0,1,496,501Zm-91-10h86V431.84A23.62,23.62,0,0,0,484,416.15C476.66,408.75,464.56,405,448,405s-28.66,3.75-35.95,11.15A23.62,23.62,0,0,0,405,431.88V491Z"/><path class="cls-1" d="M257.08,133c-47.51,0-83.6-12.83-107.26-38.15-31.66-33.87-29.1-77.35-29-79.19a5,5,0,1,1,10,.68c0,.69-2.21,41.26,26.4,71.78C178.91,111.27,212.51,123,257.08,123s78-11.72,99.44-34.83c28.4-30.62,25.69-71.38,25.66-71.79a5,5,0,0,1,10-.77c.14,1.84,3.15,45.36-28.2,79.25C340.54,120.17,304.59,133,257.08,133Z"/><path class="cls-1" d="M16.5,197a5,5,0,0,1,0-10c111.06,0,142.7-50,151.67-79.84a5,5,0,0,1,9.58,2.88c-4.64,15.41-15.4,37.56-40.34,55.61C108.68,186.45,68,197,16.5,197Z"/><path class="cls-1" d="M128,343.35a5,5,0,0,1-5-5V166a5,5,0,0,1,10,0V338.35A5,5,0,0,1,128,343.35Z"/><path class="cls-1" d="M495.5,197c-117,0-151.16-54.13-161.07-86.39a5,5,0,1,1,9.55-2.94C353.09,137.3,384.89,187,495.5,187a5,5,0,0,1,0,10Z"/><path class="cls-1" d="M384,343.35a5,5,0,0,1-5-5V166a5,5,0,0,1,10,0V338.35A5,5,0,0,1,384,343.35Z"/><path class="cls-1" d="M384,261H128a5,5,0,0,1,0-10H384a5,5,0,0,1,0,10Z"/><path class="cls-1" d="M496,373H448a5,5,0,0,1,0-10h43V21H21V363H64a5,5,0,0,1,0,10H16a5,5,0,0,1-5-5V16a5,5,0,0,1,5-5H496a5,5,0,0,1,5,5V368A5,5,0,0,1,496,373Z"/><path class="cls-1" d="M89,343a5,5,0,0,1-5-5V240a5,5,0,0,1,10,0v98A5,5,0,0,1,89,343Z"/><path class="cls-1" d="M53,373a5,5,0,0,1-5-5V240a5,5,0,0,1,10,0V368A5,5,0,0,1,53,373Z"/><path class="cls-1" d="M423,343a5,5,0,0,1-5-5V240a5,5,0,0,1,10,0v98A5,5,0,0,1,423,343Z"/><path class="cls-1" d="M459,373a5,5,0,0,1-5-5V240a5,5,0,0,1,10,0V368A5,5,0,0,1,459,373Z"/><path class="cls-1" d="M64,146a5,5,0,0,1-.43-10c63.83-5.63,78.14-53.63,78.28-54.11a5,5,0,1,1,9.62,2.72c-.16.57-4.12,14.2-16.9,28.58-11.7,13.16-33.36,29.53-70.12,32.77Z"/><path class="cls-1" d="M449.66,146l-.45,0c-36.76-3.24-58.42-19.61-70.12-32.77-12.78-14.38-16.74-28-16.9-28.58a5,5,0,0,1,9.62-2.74c.06.23,3.7,12.39,15.08,25,15.25,16.95,36.51,26.73,63.2,29.09a5,5,0,0,1-.43,10Z"/><path class="cls-1" d="M256,94c-69.55,0-86.92-40.38-87.63-42.1a5,5,0,0,1,9.25-3.82h0c0,.09,3.92,9.06,15.37,17.9,15.27,11.79,37.06,18,63,18,62.92,0,78.23-35.54,78.37-35.9a5,5,0,0,1,9.26,3.8C342.92,53.62,325.55,94,256,94Z"/></svg>