<?xml version="1.0" ?><svg viewBox="0 0 512 512" xmlns="http://www.w3.org/2000/svg"><defs><style>.cls-1{fill:#3f456b;}</style></defs><title/><g id="Lines"><g data-name="&lt;编组&gt;" id="_编组_"><path class="cls-1" d="M353.12,68H160.79a5,5,0,0,1-5-5V15a5,5,0,0,1,5-5H353.12a5,5,0,0,1,5,5V63A5,5,0,0,1,353.12,68ZM165.79,58H348.12V20H165.79Z"/></g><path class="cls-1" d="M256,500a107.66,107.66,0,0,1-39.24-7.65c-34.36,11-64.11.73-71.25-2.13-41.47,8.63-66-5.3-67-5.9A5,5,0,0,1,76,480c0-.76-.17-77.44,4.41-173.25C90.7,91.16,156.19,59.67,159,58.43a5,5,0,0,1,4.1,9.12c-5.37,2.53-19.06,14.29-32.4,40.73-28.09,55.68-37.41,138.93-40.28,199C86.35,391.92,86,461.57,86,476.87c6.89,3,27.8,10.08,58.93,3.25a4.93,4.93,0,0,1,3.14.33c.3.14,31.76,14,67.31,1.82a5,5,0,0,1,3.75.21A97,97,0,0,0,256,490c20.51,0,34.51-7.34,34.64-7.41a5,5,0,0,1,4-.32c35.54,12.16,67-1.68,67.32-1.83a5,5,0,0,1,3.13-.32c31.11,6.83,52-.27,58.93-3.26,0-15.29-.35-85-4.4-169.62C414.42,198.56,396,139.09,381.42,108.33,368.88,81.83,356.06,70,351,67.49a5,5,0,0,1-2.35-6.65,5,5,0,0,1,6.69-2.36c2.61,1.24,63.92,32.77,74.21,248.28C434.17,402.57,434,479.25,434,480a5,5,0,0,1-2.48,4.31c-1,.6-25.56,14.53-67,5.9-7.13,2.85-36.84,13.14-71.15,2.16A93,93,0,0,1,256,500Z"/><path class="cls-1" d="M144,490a5,5,0,0,1-5-4.9c-2-102,3.94-240.92,4-242.32C149,123.92,183.21,63,184.66,60.51a5,5,0,0,1,8.68,5c-.47.81-34.5,61.78-40.35,177.76-.05,1.35-6,140-4,241.65a5,5,0,0,1-4.9,5.1Z"/><path class="cls-1" d="M215,490a5,5,0,0,1-5-5V271c0-107.12,13.91-205.72,14.05-206.71a5,5,0,1,1,9.9,1.42C233.81,66.68,220,164.62,220,271V485A5,5,0,0,1,215,490Z"/><path class="cls-1" d="M365,490h-.1a5,5,0,0,1-4.9-5.1c2-101.66-3.94-240.3-4-241.68-5.85-116.13-40-176.11-40.32-176.7a5,5,0,0,1,8.64-5C325.77,64,360,123.9,366,242.75c.07,1.43,6,140.37,4,242.35A5,5,0,0,1,365,490Z"/><path class="cls-1" d="M294,490a5,5,0,0,1-5-5V271c0-106.39-14.79-204.27-14.94-205.24a5,5,0,1,1,9.88-1.52c.15,1,15.06,99.62,15.06,206.76V485A5,5,0,0,1,294,490Z"/><path class="cls-1" d="M224,68a5,5,0,0,1-5-5V15a5,5,0,0,1,10,0V63A5,5,0,0,1,224,68Z"/><path class="cls-1" d="M289,68a5,5,0,0,1-5-5V15a5,5,0,0,1,10,0V63A5,5,0,0,1,289,68Z"/></g><g id="Outline"><path class="cls-1" d="M352,44H290a5,5,0,0,1,0-10h62a5,5,0,0,1,0,10Z"/><path class="cls-1" d="M224,44H162a5,5,0,0,1,0-10h62a5,5,0,0,1,0,10Z"/></g></svg>