<?xml version="1.0" ?><svg viewBox="0 0 512 512" xmlns="http://www.w3.org/2000/svg"><defs><style>.cls-1{fill:#3f456b;}</style></defs><title/><g id="Lines"><path class="cls-1" d="M97,346a5,5,0,0,1-5-5V139a15,15,0,0,1,15-15H407a15,15,0,0,1,15,15V340a5,5,0,0,1-10,0V139a5,5,0,0,0-5-5H107a5,5,0,0,0-5,5V341A5,5,0,0,1,97,346Z"/><path class="cls-1" d="M155,179a5,5,0,0,1-5-5v-1a5,5,0,0,1,10,0v1A5,5,0,0,1,155,179Z"/><path class="cls-1" d="M223,179a5,5,0,0,1-5-5v-1a5,5,0,0,1,10,0v1A5,5,0,0,1,223,179Z"/><path class="cls-1" d="M290,179a5,5,0,0,1-5-5v-1a5,5,0,0,1,10,0v1A5,5,0,0,1,290,179Z"/><path class="cls-1" d="M358,179a5,5,0,0,1-5-5v-1a5,5,0,0,1,10,0v1A5,5,0,0,1,358,179Z"/><path class="cls-1" d="M155,247a5,5,0,0,1-5-5v-1a5,5,0,0,1,10,0v1A5,5,0,0,1,155,247Z"/><path class="cls-1" d="M223,247a5,5,0,0,1-5-5v-1a5,5,0,0,1,10,0v1A5,5,0,0,1,223,247Z"/><path class="cls-1" d="M290,247a5,5,0,0,1-5-5v-1a5,5,0,0,1,10,0v1A5,5,0,0,1,290,247Z"/><path class="cls-1" d="M358,247a5,5,0,0,1-5-5v-1a5,5,0,0,1,10,0v1A5,5,0,0,1,358,247Z"/><path class="cls-1" d="M155,315a5,5,0,0,1-5-5v-1a5,5,0,0,1,10,0v1A5,5,0,0,1,155,315Z"/><path class="cls-1" d="M223,315a5,5,0,0,1-5-5v-1a5,5,0,0,1,10,0v1A5,5,0,0,1,223,315Z"/><path class="cls-1" d="M290,315a5,5,0,0,1-5-5v-1a5,5,0,0,1,10,0v1A5,5,0,0,1,290,315Z"/><path class="cls-1" d="M358,315a5,5,0,0,1-5-5v-1a5,5,0,0,1,10,0v1A5,5,0,0,1,358,315Z"/><path class="cls-1" d="M432,428H80a5,5,0,0,1,0-10H432a5,5,0,0,1,0,10Z"/><path class="cls-1" d="M80,501a5,5,0,0,1-3-9c33.47-24.79,30.52-92.05,30.49-92.73a5,5,0,0,1,10-.5,198.29,198.29,0,0,1-2.81,39.6C109.64,467.42,99,488.16,83,500A5,5,0,0,1,80,501Z"/><path class="cls-1" d="M433.59,501a5,5,0,0,1-3-1c-16-11.86-26.67-32.6-31.7-61.67a197.88,197.88,0,0,1-2.82-39.6,5,5,0,0,1,10,.5h0c0,.67-2.93,68,30.48,92.73a5,5,0,0,1-3,9Z"/><path class="cls-1" d="M221.86,354.63a5,5,0,0,1-3.56-8.52c.46-.46,11.61-11.4,39.95-11.46,11.66,0,21.86,1.75,30.19,5.28,6.51,2.76,9.54,5.67,9.87,6a5,5,0,0,1-7.06,7.09s-9.17-8.37-32.75-8.37h-.23c-23.84.05-32.77,8.41-32.86,8.5A5,5,0,0,1,221.86,354.63Z"/><path class="cls-1" d="M295.88,355.28a5,5,0,0,1-3.54-8.55c.46-.47,11.61-11.4,40-11.47h.25c11.6,0,21.67,1.78,29.94,5.28,6.51,2.76,9.54,5.67,9.87,6a5,5,0,1,1-7.06,7.08s-9.17-8.36-32.75-8.36h-.23c-23.73.05-32.82,8.47-32.91,8.55A4.93,4.93,0,0,1,295.88,355.28Z"/><path class="cls-1" d="M75.46,404.17c-8.35,0-15.19-5.89-15.27-13.16L60,367.9c0-12.64,10-20.34,12.14-21.86C74.47,344,86,335,111.64,335h.25c20.12,0,31.57,5.52,36.65,8.84,5.06-3.37,16.54-9,36.79-9h.25c28.15,0,39.34,10.81,39.8,11.27a5,5,0,1,1-7,7.09s-9.17-8.36-32.75-8.36h-.22c-23.74.05-32.83,8.46-32.92,8.55a4.81,4.81,0,0,1-3.49,1.43h-.77a5,5,0,0,1-3.53-1.46S135.48,345,111.89,345h-.22c-23.73,0-32.82,8.46-32.91,8.55a4.37,4.37,0,0,1-.79.63s-7.94,5.37-8,13.71l.19,23.05c0,1.53,2.28,3.25,5.28,3.25h0l363.16-.56a6.33,6.33,0,0,0,4.41-1.64,2.37,2.37,0,0,0,.77-1.6l-.19-23.11c0-9.17-3.86-13-4.34-13.49a3.09,3.09,0,0,1-.34-.31s-9.17-8.37-32.74-8.37H406c-23.74.06-32.83,8.47-32.92,8.55a5,5,0,0,1-7,0,5,5,0,0,1,0-7.1c.46-.46,11.61-11.4,40-11.47h.25c26.42,0,37.9,9.53,39.59,11.08,1.35,1.17,7.75,7.42,7.83,21l.19,23.09a12.29,12.29,0,0,1-3.65,8.72,16.31,16.31,0,0,1-11.51,4.61l-363.15.56Z"/><path class="cls-1" d="M497,85H256a5,5,0,0,1,0-10H497a5,5,0,0,1,0,10Z"/><path class="cls-1" d="M497,308H418a5,5,0,0,1,0-10h74V20H21V298H96a5,5,0,0,1,0,10H16a5,5,0,0,1-5-5V15a5,5,0,0,1,5-5H497a5,5,0,0,1,5,5V303A5,5,0,0,1,497,308Z"/><path class="cls-1" d="M256,134a5,5,0,0,1-5-5V16a5,5,0,0,1,10,0V129A5,5,0,0,1,256,134Z"/></g><g id="Outline"><path class="cls-1" d="M170.92,246.13H139.8a5,5,0,0,1,0-10h31.12a5,5,0,0,1,0,10Z"/><path class="cls-1" d="M155.36,261.69a5,5,0,0,1-5-5V225.58a5,5,0,0,1,10,0v31.11A5,5,0,0,1,155.36,261.69Z"/><path class="cls-1" d="M238.49,178.56H207.38a5,5,0,0,1,0-10h31.11a5,5,0,0,1,0,10Z"/><path class="cls-1" d="M222.93,194.12a5,5,0,0,1-5-5V158a5,5,0,0,1,10,0v31.12A5,5,0,0,1,222.93,194.12Z"/><path class="cls-1" d="M238.8,314H207.69a5,5,0,0,1,0-10H238.8a5,5,0,0,1,0,10Z"/><path class="cls-1" d="M223.24,329.57a5,5,0,0,1-5-5V293.46a5,5,0,0,1,10,0v31.11A5,5,0,0,1,223.24,329.57Z"/><path class="cls-1" d="M306.37,246.44H275.26a5,5,0,0,1,0-10h31.11a5,5,0,0,1,0,10Z"/><path class="cls-1" d="M290.82,262a5,5,0,0,1-5-5V225.88a5,5,0,0,1,10,0V257A5,5,0,0,1,290.82,262Z"/><path class="cls-1" d="M374,178.87H342.83a5,5,0,0,1,0-10H374a5,5,0,0,1,0,10Z"/><path class="cls-1" d="M358.39,194.42a5,5,0,0,1-5-5V158.31a5,5,0,0,1,10,0v31.11A5,5,0,0,1,358.39,194.42Z"/><path class="cls-1" d="M238.45,246.49H207.33a5,5,0,0,1,0-10h31.12a5,5,0,0,1,0,10Z"/><path class="cls-1" d="M222.89,262a5,5,0,0,1-5-5V225.93a5,5,0,0,1,10,0V257A5,5,0,0,1,222.89,262Z"/><path class="cls-1" d="M306,178.91H274.91a5,5,0,0,1,0-10H306a5,5,0,0,1,0,10Z"/><path class="cls-1" d="M290.46,194.47a5,5,0,0,1-5-5V158.36a5,5,0,0,1,10,0v31.11A5,5,0,0,1,290.46,194.47Z"/><path class="cls-1" d="M170.87,314.06H139.76a5,5,0,0,1,0-10h31.11a5,5,0,0,1,0,10Z"/><path class="cls-1" d="M155.32,329.61a5,5,0,0,1-5-5V293.5a5,5,0,0,1,10,0v31.11A5,5,0,0,1,155.32,329.61Z"/><path class="cls-1" d="M306.33,314.37H275.22a5,5,0,0,1,0-10h31.11a5,5,0,1,1,0,10Z"/><path class="cls-1" d="M290.77,329.92a5,5,0,0,1-5-5V293.81a5,5,0,1,1,10,0v31.11A5,5,0,0,1,290.77,329.92Z"/><path class="cls-1" d="M374.33,314.37H343.22a5,5,0,0,1,0-10h31.11a5,5,0,1,1,0,10Z"/><path class="cls-1" d="M358.77,329.92a5,5,0,0,1-5-5V293.81a5,5,0,1,1,10,0v31.11A5,5,0,0,1,358.77,329.92Z"/><path class="cls-1" d="M373.9,246.79H342.79a5,5,0,0,1,0-10H373.9a5,5,0,0,1,0,10Z"/><path class="cls-1" d="M358.34,262.35a5,5,0,0,1-5-5V226.24a5,5,0,1,1,10,0v31.11A5,5,0,0,1,358.34,262.35Z"/><path class="cls-1" d="M170.56,178.6H139.45a5,5,0,0,1,0-10h31.11a5,5,0,0,1,0,10Z"/><path class="cls-1" d="M155,194.16a5,5,0,0,1-5-5V158.05a5,5,0,0,1,10,0v31.11A5,5,0,0,1,155,194.16Z"/><path class="cls-1" d="M256.5,428a5,5,0,0,1-5-5V399a5,5,0,0,1,10,0v24A5,5,0,0,1,256.5,428Z"/><path class="cls-1" d="M219,428a5,5,0,0,1-5-5V399a5,5,0,0,1,10,0v24A5,5,0,0,1,219,428Z"/><path class="cls-1" d="M181.5,428a5,5,0,0,1-5-5V399a5,5,0,0,1,10,0v24A5,5,0,0,1,181.5,428Z"/><path class="cls-1" d="M144,428a5,5,0,0,1-5-5V399a5,5,0,0,1,10,0v24A5,5,0,0,1,144,428Z"/><path class="cls-1" d="M369,428a5,5,0,0,1-5-5V399a5,5,0,0,1,10,0v24A5,5,0,0,1,369,428Z"/><path class="cls-1" d="M331.5,428a5,5,0,0,1-5-5V399a5,5,0,0,1,10,0v24A5,5,0,0,1,331.5,428Z"/><path class="cls-1" d="M294,428a5,5,0,0,1-5-5V399a5,5,0,0,1,10,0v24A5,5,0,0,1,294,428Z"/><path class="cls-1" d="M145,501a5,5,0,0,1-2.17-.5c-31.25-15.08-36-74.61-36.14-77.13a5,5,0,1,1,10-.74A170.48,170.48,0,0,0,122.32,453c4,14,11.58,32,24.85,38.46A5,5,0,0,1,145,501Z"/><path class="cls-1" d="M367.68,501a5,5,0,0,1-2.18-9.5c13.31-6.43,20.89-24.55,24.9-38.62A169.15,169.15,0,0,0,396,422.63a5,5,0,0,1,10,.74c-.19,2.52-4.9,62.05-36.14,77.13A5,5,0,0,1,367.68,501Z"/><path class="cls-1" d="M494,52H16a5,5,0,0,1,0-10H494a5,5,0,0,1,0,10Z"/><path class="cls-1" d="M256,85H16a5,5,0,0,1,0-10H256a5,5,0,0,1,0,10Z"/><path class="cls-1" d="M256,117H16a5,5,0,0,1,0-10H256a5,5,0,0,1,0,10Z"/><path class="cls-1" d="M97,149H16a5,5,0,0,1,0-10H97a5,5,0,0,1,0,10Z"/><path class="cls-1" d="M97,181H16a5,5,0,0,1,0-10H97a5,5,0,0,1,0,10Z"/><path class="cls-1" d="M97,213H16a5,5,0,0,1,0-10H97a5,5,0,0,1,0,10Z"/><path class="cls-1" d="M97,245H16a5,5,0,0,1,0-10H97a5,5,0,0,1,0,10Z"/><path class="cls-1" d="M97,277H16a5,5,0,0,1,0-10H97a5,5,0,0,1,0,10Z"/></g></svg>