<?xml version="1.0" encoding="iso-8859-1"?>
<!-- Generator: Adobe Illustrator 19.0.0, SVG Export Plug-In . SVG Version: 6.00 Build 0)  -->
<svg version="1.1" id="Capa_1" xmlns="http://www.w3.org/2000/svg" xmlns:xlink="http://www.w3.org/1999/xlink" x="0px" y="0px"
	 viewBox="0 0 512 512" style="enable-background:new 0 0 512 512;" xml:space="preserve">
<g>
	<g>
		<path d="M437.333,362.667H288c-41.173,0-74.667,33.493-74.667,74.667S246.827,512,288,512h117.333
			c5.888,0,10.667-4.779,10.667-10.667c0-5.888-4.779-10.667-10.667-10.667H288c-29.397,0-53.333-23.936-53.333-53.333
			S258.603,384,288,384h149.333c17.643,0,32,14.357,32,32c0,17.643-14.357,32-32,32H288c-5.888,0-10.667-4.779-10.667-10.667
			c0-5.888,4.779-10.667,10.667-10.667h117.333c5.888,0,10.667-4.779,10.667-10.667c0-5.888-4.779-10.667-10.667-10.667H288
			c-17.643,0-32,14.357-32,32c0,17.643,14.357,32,32,32h149.333c29.397,0,53.333-23.936,53.333-53.333
			S466.731,362.667,437.333,362.667z"/>
	</g>
</g>
<g>
	<g>
		<path d="M394.667,0H53.333c-17.643,0-32,14.357-32,32v405.333c0,17.643,14.357,32,32,32h128c5.888,0,10.667-4.779,10.667-10.667
			S187.221,448,181.333,448h-128c-5.888,0-10.667-4.779-10.667-10.667V32c0-5.888,4.779-10.667,10.667-10.667h32v23.296
			C72.939,49.045,64,60.779,64,74.667c0,17.643,14.357,32,32,32s32-14.357,32-32c0-13.888-8.939-25.621-21.333-30.037V21.333h64
			v23.296c-12.395,4.416-21.333,16.149-21.333,30.037c0,17.643,14.357,32,32,32c17.643,0,32-14.357,32-32
			c0-13.888-8.939-25.621-21.333-30.037V21.333h64v23.296c-12.395,4.416-21.333,16.149-21.333,30.037c0,17.643,14.357,32,32,32
			c17.643,0,32-14.357,32-32c0-13.888-8.939-25.621-21.333-30.037V21.333h64v23.296C328.939,49.045,320,60.779,320,74.667
			c0,17.643,14.357,32,32,32c17.643,0,32-14.357,32-32c0-13.888-8.939-25.621-21.333-30.037V21.333h32
			c5.888,0,10.667,4.779,10.667,10.667v298.667c0,5.888,4.779,10.667,10.667,10.667c5.888,0,10.667-4.779,10.667-10.667V32
			C426.667,14.357,412.309,0,394.667,0z M96,85.333c-5.888,0-10.667-4.779-10.667-10.667S90.112,64,96,64
			s10.667,4.779,10.667,10.667S101.888,85.333,96,85.333z M181.333,85.333c-5.888,0-10.667-4.779-10.667-10.667
			S175.445,64,181.333,64S192,68.779,192,74.667S187.221,85.333,181.333,85.333z M266.667,85.333
			c-5.888,0-10.667-4.779-10.667-10.667S260.779,64,266.667,64s10.667,4.779,10.667,10.667S272.555,85.333,266.667,85.333z
			 M352,85.333c-5.888,0-10.667-4.779-10.667-10.667S346.112,64,352,64c5.888,0,10.667,4.779,10.667,10.667
			S357.888,85.333,352,85.333z"/>
	</g>
</g>
<g>
</g>
<g>
</g>
<g>
</g>
<g>
</g>
<g>
</g>
<g>
</g>
<g>
</g>
<g>
</g>
<g>
</g>
<g>
</g>
<g>
</g>
<g>
</g>
<g>
</g>
<g>
</g>
<g>
</g>
</svg>
