<svg id="visual" viewBox="0 0 900 600" width="900" height="600" xmlns="http://www.w3.org/2000/svg" xmlns:xlink="http://www.w3.org/1999/xlink" version="1.1"><path d="M0 251L21.5 251.7C43 252.3 86 253.7 128.8 232.5C171.7 211.3 214.3 167.7 257.2 143.3C300 119 343 114 385.8 120.8C428.7 127.7 471.3 146.3 514.2 165.5C557 184.7 600 204.3 642.8 207.2C685.7 210 728.3 196 771.2 182C814 168 857 154 878.5 147L900 140L900 601L878.5 601C857 601 814 601 771.2 601C728.3 601 685.7 601 642.8 601C600 601 557 601 514.2 601C471.3 601 428.7 601 385.8 601C343 601 300 601 257.2 601C214.3 601 171.7 601 128.8 601C86 601 43 601 21.5 601L0 601Z" fill="#ff9480"></path><path d="M0 308L21.5 311.2C43 314.3 86 320.7 128.8 311.3C171.7 302 214.3 277 257.2 280.3C300 283.7 343 315.3 385.8 313.3C428.7 311.3 471.3 275.7 514.2 263.8C557 252 600 264 642.8 266.8C685.7 269.7 728.3 263.3 771.2 264.7C814 266 857 275 878.5 279.5L900 284L900 601L878.5 601C857 601 814 601 771.2 601C728.3 601 685.7 601 642.8 601C600 601 557 601 514.2 601C471.3 601 428.7 601 385.8 601C343 601 300 601 257.2 601C214.3 601 171.7 601 128.8 601C86 601 43 601 21.5 601L0 601Z" fill="#c86553"></path><path d="M0 388L21.5 380.7C43 373.3 86 358.7 128.8 340.5C171.7 322.3 214.3 300.7 257.2 300C300 299.3 343 319.7 385.8 320.2C428.7 320.7 471.3 301.3 514.2 306C557 310.7 600 339.3 642.8 355.3C685.7 371.3 728.3 374.7 771.2 381.2C814 387.7 857 397.3 878.5 402.2L900 407L900 601L878.5 601C857 601 814 601 771.2 601C728.3 601 685.7 601 642.8 601C600 601 557 601 514.2 601C471.3 601 428.7 601 385.8 601C343 601 300 601 257.2 601C214.3 601 171.7 601 128.8 601C86 601 43 601 21.5 601L0 601Z" fill="#93372a"></path><path d="M0 428L21.5 422.8C43 417.7 86 407.3 128.8 414.8C171.7 422.3 214.3 447.7 257.2 447.3C300 447 343 421 385.8 409.8C428.7 398.7 471.3 402.3 514.2 411.2C557 420 600 434 642.8 444C685.7 454 728.3 460 771.2 454.5C814 449 857 432 878.5 423.5L900 415L900 601L878.5 601C857 601 814 601 771.2 601C728.3 601 685.7 601 642.8 601C600 601 557 601 514.2 601C471.3 601 428.7 601 385.8 601C343 601 300 601 257.2 601C214.3 601 171.7 601 128.8 601C86 601 43 601 21.5 601L0 601Z" fill="#600400"></path><path d="M0 486L21.5 490.8C43 495.7 86 505.3 128.8 505.5C171.7 505.7 214.3 496.3 257.2 487.7C300 479 343 471 385.8 471.3C428.7 471.7 471.3 480.3 514.2 487.7C557 495 600 501 642.8 500C685.7 499 728.3 491 771.2 498C814 505 857 527 878.5 538L900 549L900 601L878.5 601C857 601 814 601 771.2 601C728.3 601 685.7 601 642.8 601C600 601 557 601 514.2 601C471.3 601 428.7 601 385.8 601C343 601 300 601 257.2 601C214.3 601 171.7 601 128.8 601C86 601 43 601 21.5 601L0 601Z" fill="#000000"></path></svg>