<?xml version="1.0" ?><svg viewBox="0 0 512 512" xmlns="http://www.w3.org/2000/svg"><defs><style>.cls-1{fill:#3f456b;}</style></defs><title/><g id="Lines"><path class="cls-1" d="M78.25,470.28a32.62,32.62,0,1,1,32.61-32.61A32.64,32.64,0,0,1,78.25,470.28Zm0-55.23a22.62,22.62,0,1,0,22.61,22.62A22.64,22.64,0,0,0,78.25,415.05Z"/><path class="cls-1" d="M157.25,470.28a32.62,32.62,0,1,1,32.61-32.61A32.64,32.64,0,0,1,157.25,470.28Zm0-55.23a22.62,22.62,0,1,0,22.61,22.62A22.64,22.64,0,0,0,157.25,415.05Z"/><path class="cls-1" d="M236.25,470.28a32.62,32.62,0,1,1,32.61-32.61A32.64,32.64,0,0,1,236.25,470.28Zm0-55.23a22.62,22.62,0,1,0,22.61,22.62A22.64,22.64,0,0,0,236.25,415.05Z"/><path class="cls-1" d="M397,459a5,5,0,0,1-5-5v-1a5,5,0,0,1,10,0v1A5,5,0,0,1,397,459Z"/><path class="cls-1" d="M423,459a5,5,0,0,1-5-5v-1a5,5,0,0,1,10,0v1A5,5,0,0,1,423,459Z"/><path class="cls-1" d="M449,459a5,5,0,0,1-5-5v-1a5,5,0,0,1,10,0v1A5,5,0,0,1,449,459Z"/><path class="cls-1" d="M467.51,500h-420C29.1,500,13,483.78,13,465.28v-420C13,27.22,28.78,12,47.46,12H467.51A33.4,33.4,0,0,1,501,45.24v420C501,484.1,485.66,500,467.51,500ZM47.46,22C34.2,22,23,32.64,23,45.24v420C23,478.22,34.66,490,47.46,490H467.51C480,490,491,478.45,491,465.28v-420A23.39,23.39,0,0,0,467.51,22Z"/><path class="cls-1" d="M148.09,210.52a87,87,0,1,1,86.95-87A87.06,87.06,0,0,1,148.09,210.52Zm0-163.91a77,77,0,1,0,76.95,77A77,77,0,0,0,148.09,46.61Z"/><path class="cls-1" d="M360.09,400.52a87,87,0,1,1,87-86.95A87.06,87.06,0,0,1,360.09,400.52Zm0-163.91a77,77,0,1,0,77,77A77,77,0,0,0,360.09,236.61Z"/><path class="cls-1" d="M149,386.43a75.92,75.92,0,1,1,75.92-75.92A76,76,0,0,1,149,386.43Zm0-141.84a65.92,65.92,0,1,0,65.92,65.92A66,66,0,0,0,149,244.59Z"/><path class="cls-1" d="M366.89,200.39a75.93,75.93,0,1,1,75.92-75.92A76,76,0,0,1,366.89,200.39Zm0-141.85a65.93,65.93,0,1,0,65.92,65.93A66,66,0,0,0,366.89,58.54Z"/></g><g id="Outline"><path class="cls-1" d="M360.09,371.48A57.92,57.92,0,1,1,418,313.57,58,58,0,0,1,360.09,371.48Zm0-105.83A47.92,47.92,0,1,0,408,313.57,48,48,0,0,0,360.09,265.65Z"/><path class="cls-1" d="M360.09,343.48A29.92,29.92,0,1,1,390,313.56,30,30,0,0,1,360.09,343.48Zm0-49.83A19.92,19.92,0,1,0,380,313.56,19.94,19.94,0,0,0,360.09,293.65Z"/><path class="cls-1" d="M148.09,181.48A57.92,57.92,0,1,1,206,123.57,58,58,0,0,1,148.09,181.48Zm0-105.83A47.92,47.92,0,1,0,196,123.57,48,48,0,0,0,148.09,75.65Z"/><path class="cls-1" d="M148.09,153.48A29.92,29.92,0,1,1,178,123.56,30,30,0,0,1,148.09,153.48Zm0-49.83A19.92,19.92,0,1,0,168,123.56,19.94,19.94,0,0,0,148.09,103.65Z"/><path class="cls-1" d="M79,431a5,5,0,0,1-5-5v-3a5,5,0,0,1,10,0v3A5,5,0,0,1,79,431Z"/><path class="cls-1" d="M158,431a5,5,0,0,1-5-5v-3a5,5,0,0,1,10,0v3A5,5,0,0,1,158,431Z"/><path class="cls-1" d="M237,431a5,5,0,0,1-5-5v-3a5,5,0,0,1,10,0v3A5,5,0,0,1,237,431Z"/></g></svg>