<?xml version="1.0" ?><svg id="Lines" viewBox="0 0 512 512" xmlns="http://www.w3.org/2000/svg"><defs><style>.cls-1{fill:#3f456b;}</style></defs><title/><path class="cls-1" d="M227.82,186.36a5,5,0,0,1-5-5V180a5,5,0,0,1,10,0v1.36A5,5,0,0,1,227.82,186.36Z"/><path class="cls-1" d="M227.82,316.12a5,5,0,0,1-5-5v-1.36a5,5,0,0,1,10,0v1.36A5,5,0,0,1,227.82,316.12Z"/><path class="cls-1" d="M227.82,251.24a5,5,0,0,1-5-5v-1.36a5,5,0,0,1,10,0v1.36A5,5,0,0,1,227.82,251.24Z"/><path class="cls-1" d="M227.82,381a5,5,0,0,1-5-5v-1.36a5,5,0,0,1,10,0V376A5,5,0,0,1,227.82,381Z"/><path class="cls-1" d="M257,117c-27.32,0-50.29-5.11-66.44-14.77-15.8-9.45-24.5-23-24.5-38.23s8.7-28.78,24.5-38.23C206.71,16.11,229.68,11,257,11c26.72,0,49.49,5.1,65.83,14.75S347.94,48.9,347.94,64C347.94,95.7,311.39,117,257,117Zm0-96c-48.41,0-80.94,17.28-80.94,43s32.53,43,80.94,43c25.22,0,46.33-4.62,61-13.36,13-7.74,19.91-18,19.91-29.64C337.94,38.68,304.65,21,257,21Z"/><path class="cls-1" d="M262.61,500.42c-84.8,0-149.66-3.13-153.42-3.31-1.86,0-12.45-.27-20.19-7.76-5.31-5.14-8-12.31-8-21.3s2.69-16.15,8-21.29c8.32-8.05,20-7.77,20.44-7.76h.12c1.48.08,150.32,8.16,293.83,0h.13c.52,0,12.89-.3,21.52,8.07,5.28,5.12,8,12.18,8,21s-2.68,15.86-8,21c-8.07,7.81-19.41,8.1-21.27,8.07C355.18,499.59,306.25,500.42,262.61,500.42ZM109.28,487.1h.26c1.47.08,149.2,7.42,293.88,0h.41c.05,0,8.76.12,14.3-5.3,3.23-3.17,4.87-7.8,4.87-13.76s-1.66-10.63-4.92-13.8c-5.35-5.19-13.6-5.24-14.21-5.25-142.63,8.1-290.4.24-294.78,0h0c-.7,0-8.18.12-13.17,5-3.25,3.18-4.9,7.91-4.9,14.05s1.67,10.93,5,14.11c5.21,5,13.08,5,13.16,4.95Z"/><path class="cls-1" d="M106,448a4.4,4.4,0,0,1-.62,0,5,5,0,0,1-4.34-5.57l33.33-269a5,5,0,1,1,9.92,1.22l-33.33,269A5,5,0,0,1,106,448Z"/><path class="cls-1" d="M406,448a5,5,0,0,1-4.95-4.39l-33.34-269a5,5,0,0,1,9.93-1.22l33.33,269a5,5,0,0,1-4.35,5.57A4.3,4.3,0,0,1,406,448Z"/><path class="cls-1" d="M256,449a5,5,0,0,1-5-5V112a5,5,0,1,1,10,0V444A5,5,0,0,1,256,449Z"/><path class="cls-1" d="M151.8,397l-.47,0a5,5,0,0,1-4.52-5.44l5.21-56a5,5,0,0,1,10,.92l-5.21,56A5,5,0,0,1,151.8,397Z"/><path class="cls-1" d="M108,423h-.36c-28-2-59.28-8-59.59-8.08s-25.6-5.19-22-31.59c1.64-12,8.43-17.5,13.84-20a26.88,26.88,0,0,1,6.72-2l28.44-203c8.27-51.69,55-72.62,57.94-73.88l36.92-17.05a5,5,0,0,1,4.19,9.08l-37,17.08-.13.06c-.44.19-44.6,19.62-52.05,66.19L56,366.69a5,5,0,0,1-5.22,4.3c-1.28,0-12.9-.08-14.78,13.69-1,7.32,1,12.75,6,16.61a21.8,21.8,0,0,0,8,3.8c.32.06,31.05,6,58.42,7.92a5,5,0,0,1-.36,10Z"/><path class="cls-1" d="M256,74C213.85,74,201.28,58.72,200,57a5,5,0,0,1,8-6c.31.37,11.25,13,48.08,13,38.07,0,48.9-12.93,49-13.06a5,5,0,0,1,7-1,5,5,0,0,1,1,7C311.72,58.72,299.12,74,256,74Z"/><path class="cls-1" d="M256,116a5,5,0,0,1-5-5V69a5,5,0,0,1,10,0v42A5,5,0,0,1,256,116Z"/><path class="cls-1" d="M113.72,380.28h-.24c-37.46-1.73-62.84-9.16-63.9-9.48a5,5,0,0,1,2.84-9.58c.29.08,25.39,7.4,61.52,9.07a5,5,0,0,1-.22,10Z"/><path class="cls-1" d="M361.91,397a5,5,0,0,1-5-4.54l-5.21-56a5,5,0,0,1,10-.92l5.21,56a5,5,0,0,1-4.52,5.44Z"/><path class="cls-1" d="M405.71,423a5,5,0,0,1-.36-10c27.39-1.95,58.1-7.86,58.41-7.92,1.66-.33,16.26-3.78,14-20.41-1.88-13.77-13.52-13.74-14.82-13.69a5.05,5.05,0,0,1-5.18-4.3l-29-207c-7.44-46.47-51.6-65.9-52-66.09L340.67,77.48a5,5,0,1,1,4.08-9.13l36,16.09c1.94.82,49.59,21.64,57.93,73.77L467.1,361.28c7.92,1.25,18.48,6.76,20.56,22,3.6,26.4-21.76,31.54-22,31.59S434,421,406.07,423Z"/><path class="cls-1" d="M400,380.28a5,5,0,0,1-.22-10c36.16-1.67,61.27-9,61.52-9.07a5,5,0,0,1,2.84,9.58c-1.06.32-26.44,7.75-63.9,9.48Z"/></svg>