<?xml version="1.0" ?><svg viewBox="0 0 512 512" xmlns="http://www.w3.org/2000/svg"><defs><style>.cls-1{fill:#3f456b;}</style></defs><title/><g id="Lines"><path class="cls-1" d="M256,372c-99.53,0-180.5-81-180.5-180.5S156.47,11,256,11,436.5,92,436.5,191.5,355.53,372,256,372Zm0-351C162,21,85.5,97.49,85.5,191.5S162,362,256,362s170.5-76.49,170.5-170.5S350,21,256,21Z"/><path class="cls-1" d="M256,247.32a55.82,55.82,0,1,1,55.82-55.82A55.88,55.88,0,0,1,256,247.32Zm0-101.64a45.82,45.82,0,1,0,45.82,45.82A45.88,45.88,0,0,0,256,145.68Z"/><path class="cls-1" d="M332,500H180a25,25,0,0,1-25-25V404a25,25,0,0,1,25-25H332a25,25,0,0,1,25,25v71A25,25,0,0,1,332,500ZM180,389a15,15,0,0,0-15,15v71a15,15,0,0,0,15,15H332a15,15,0,0,0,15-15V404a15,15,0,0,0-15-15Z"/><path class="cls-1" d="M56,321a29,29,0,1,1,29-29A29,29,0,0,1,56,321Zm0-48a19,19,0,1,0,19,19A19,19,0,0,0,56,273Z"/><path class="cls-1" d="M160,445a4.26,4.26,0,0,1-.61,0c-58.16-7-84.58-41.86-96.5-69.88A152.5,152.5,0,0,1,51,315.82a5,5,0,0,1,10,.36h0a144.83,144.83,0,0,0,11.23,55.3c15.88,37,45.61,58.41,88.37,63.56a5,5,0,0,1-.59,10Z"/><path class="cls-1" d="M256,197a5,5,0,0,1-5-5v-1a5,5,0,0,1,10,0v1A5,5,0,0,1,256,197Z"/><path class="cls-1" d="M184,413a5,5,0,0,1-5-5v-1a5,5,0,0,1,10,0v1A5,5,0,0,1,184,413Z"/><path class="cls-1" d="M184,477a5,5,0,0,1-5-5v-1a5,5,0,0,1,10,0v1A5,5,0,0,1,184,477Z"/><path class="cls-1" d="M328,413a5,5,0,0,1-5-5v-1a5,5,0,0,1,10,0v1A5,5,0,0,1,328,413Z"/><path class="cls-1" d="M328,477a5,5,0,0,1-5-5v-1a5,5,0,0,1,10,0v1A5,5,0,0,1,328,477Z"/><path class="cls-1" d="M305,469H209a5,5,0,0,1-5-5V416a5,5,0,0,1,5-5h96a5,5,0,0,1,5,5v48A5,5,0,0,1,305,469Zm-91-10h86V421H214Z"/><path class="cls-1" d="M257,468a5,5,0,0,1-5-5V416a5,5,0,0,1,10,0v47A5,5,0,0,1,257,468Z"/><path class="cls-1" d="M193,389a5,5,0,0,1-5-5V357a5,5,0,0,1,10,0v27A5,5,0,0,1,193,389Z"/><path class="cls-1" d="M321,389a5,5,0,0,1-5-5V357a5,5,0,0,1,10,0v27A5,5,0,0,1,321,389Z"/></g><g id="Outline"><path class="cls-1" d="M463.62,170.6a5.76,5.76,0,0,1-.82-.06,5,5,0,0,1-4.12-5.75c5.65-34.42-12.85-78.94-41.23-99.22a5,5,0,0,1,5.81-8.14c31.18,22.28,51.49,71.17,45.29,109A5,5,0,0,1,463.62,170.6Z"/><path class="cls-1" d="M495.11,193.11h-.36a5,5,0,0,1-4.63-5.34c2.34-33-2.62-65.33-14.33-93.39-11.59-27.77-29.59-50.94-52.08-67a5,5,0,0,1,5.82-8.14c24,17.15,43.18,41.8,55.49,71.29s17.52,63.36,15.07,98A5,5,0,0,1,495.11,193.11Z"/><path class="cls-1" d="M49.54,170.6a5,5,0,0,1-4.93-4.19c-6.21-37.81,14.11-86.7,45.28-109a5,5,0,0,1,5.82,8.14c-28.39,20.28-46.88,64.8-41.23,99.22a5,5,0,0,1-4.13,5.75A5.62,5.62,0,0,1,49.54,170.6Z"/><path class="cls-1" d="M18,193.11a5,5,0,0,1-5-4.51C6.18,119.05,32.55,55.73,83.62,19.23a5,5,0,0,1,5.82,8.14C41.31,61.76,16.49,121.67,23,187.62a5,5,0,0,1-4.48,5.47Z"/><path class="cls-1" d="M256,222.29a30.75,30.75,0,0,1-21.79-9,5,5,0,0,1,7.08-7.08,20.81,20.81,0,0,0,29.42,0,5,5,0,0,1,7.08,7.08A30.75,30.75,0,0,1,256,222.29Z"/><path class="cls-1" d="M274.25,178.25a5,5,0,0,1-3.54-1.46,20.81,20.81,0,0,0-29.42,0,5,5,0,0,1-7.08-7.08,30.86,30.86,0,0,1,43.58,0,5,5,0,0,1-3.54,8.54Z"/><path class="cls-1" d="M256,340a5,5,0,0,1,0-10c76.37,0,138.5-62.13,138.5-138.5a5,5,0,0,1,10,0C404.5,273.38,337.88,340,256,340Z"/></g></svg>