<?xml version="1.0" ?><svg viewBox="0 0 512 512" xmlns="http://www.w3.org/2000/svg"><defs><style>.cls-1{fill:#3f456b;}.cls-2{fill:#384169;}</style></defs><title/><g id="Lines"><path class="cls-1" d="M496,461H421a5,5,0,0,1,0-10h70V93H21V451H348a5,5,0,0,1,0,10H16a5,5,0,0,1-5-5V88a5,5,0,0,1,5-5H496a5,5,0,0,1,5,5V456A5,5,0,0,1,496,461Z"/><path class="cls-1" d="M384,431.35a53.18,53.18,0,1,1,53.18-53.17A53.24,53.24,0,0,1,384,431.35ZM384,335a43.18,43.18,0,1,0,43.18,43.18A43.23,43.23,0,0,0,384,335Z"/><path class="cls-1" d="M419.18,492a5,5,0,0,1-2.58-.72l-32.67-19.65L350.64,491.3a5,5,0,0,1-7.55-4.3V412.82a5,5,0,0,1,10,0v65.42l28.32-16.74a5,5,0,0,1,5.12,0l27.65,16.64V412.82a5,5,0,0,1,10,0V487a5,5,0,0,1-2.54,4.35A5.06,5.06,0,0,1,419.18,492Z"/><path class="cls-1" d="M464,430H420.33a5,5,0,1,1,0-10H459V125H53V420H348a5,5,0,0,1,0,10H48a5,5,0,0,1-5-5V120a5,5,0,0,1,5-5H464a5,5,0,0,1,5,5V425A5,5,0,0,1,464,430Z"/><path class="cls-2" d="M384,93a5,5,0,0,1-2.24-.53l-112-56a5,5,0,1,1,4.47-9l112,56A5,5,0,0,1,384,93Z"/><path class="cls-2" d="M128,93a5,5,0,0,1-2.22-9.48l111.55-55.3a5,5,0,1,1,4.44,9L130.22,92.48A5,5,0,0,1,128,93Z"/><path class="cls-2" d="M256,65a23,23,0,1,1,23-23A23,23,0,0,1,256,65Zm0-36a13,13,0,1,0,13,13A13,13,0,0,0,256,29Z"/></g><g id="Outline"><path class="cls-1" d="M408,254H104.83a5,5,0,1,1,0-10H408a5,5,0,0,1,0,10Z"/><path class="cls-1" d="M408,282.34H104.83a5,5,0,1,1,0-10H408a5,5,0,0,1,0,10Z"/><path class="cls-1" d="M323,339H189.83a5,5,0,0,1,0-10H323a5,5,0,0,1,0,10Z"/><path class="cls-1" d="M408,311.56H104.83a5,5,0,1,1,0-10H408a5,5,0,0,1,0,10Z"/><path class="cls-1" d="M289,398h-1a5,5,0,0,1,0-10h1a5,5,0,0,1,0,10Zm-21,0h-1a5,5,0,0,1,0-10h1a5,5,0,0,1,0,10Zm-21,0h-1a5,5,0,0,1,0-10h1a5,5,0,0,1,0,10Zm-21,0h-1a5,5,0,0,1,0-10h1a5,5,0,0,1,0,10Zm-21,0h-1a5,5,0,0,1,0-10h1a5,5,0,0,1,0,10Z"/><path class="cls-1" d="M255.15,221.26a60,60,0,0,1-27.4-6.16,31.81,31.81,0,0,1-26.1,1.83c-6.65-2.47-11.59-7.05-16.36-11.49-5.82-5.41-10.84-10.08-18-10.19H167c-10,0-16.7,8.74-19.84,14a5,5,0,0,1-8.58-5.13C145.9,191.93,156,185.25,167,185.25h.42c11,.17,18.25,6.91,24.65,12.86,4.24,3.95,8.25,7.67,13,9.45a21,21,0,0,0,12.94.68,34.19,34.19,0,0,1-3-3.35c-5.94-7.54-7.44-16.5-4.1-24.59,5.4-13.12,14.87-15,18.69-15.25a17.9,17.9,0,0,1,16.75,9.37c4.36,7.9,2.87,18-4.07,27.74a45.22,45.22,0,0,1-5.26,6.15c7.26,2.69,16.69,3.95,28,2.17,14.64-2.3,27.84-8.62,41.83-15.32,5.62-2.69,11.44-5.47,17.3-7.94,14-5.9,46.86-19.71,63.34,4.6,3.24,4.77,5.3,10.57,6.31,17.74A5,5,0,0,1,384,211c-.78-5.55-2.36-10.1-4.68-13.53-10.47-15.44-31.75-9.17-51.19-1-5.64,2.37-11.35,5.1-16.86,7.74-14,6.71-28.52,13.65-44.59,16.18A74.27,74.27,0,0,1,255.15,221.26ZM230.64,175l-.45,0c-4.08.23-7.72,3.53-10,9.07-1.94,4.72-1,9.9,2.71,14.59a25.87,25.87,0,0,0,4.77,4.57,34.81,34.81,0,0,0,6.51-6.92c4.62-6.47,5.88-12.7,3.45-17.11A8,8,0,0,0,230.64,175Z"/><path class="cls-1" d="M48,125a5,5,0,0,1-3.54-1.46l-31-31a5,5,0,0,1,7.08-7.08l31,31A5,5,0,0,1,48,125Z"/><path class="cls-1" d="M464,125a5,5,0,0,1-3.54-8.54l31-31a5,5,0,0,1,7.08,7.08l-31,31A5,5,0,0,1,464,125Z"/><path class="cls-1" d="M495,460a5,5,0,0,1-3.54-1.46l-31-31a5,5,0,0,1,7.08-7.08l31,31A5,5,0,0,1,495,460Z"/><path class="cls-1" d="M17,460a5,5,0,0,1-3.54-8.54l31-31a5,5,0,1,1,7.08,7.08l-31,31A5,5,0,0,1,17,460Z"/><path class="cls-1" d="M384,407.65a29.47,29.47,0,1,1,29.47-29.47A29.5,29.5,0,0,1,384,407.65Zm0-48.94a19.47,19.47,0,1,0,19.47,19.47A19.49,19.49,0,0,0,384,358.71Z"/></g></svg>