<?xml version="1.0" ?><svg viewBox="0 0 512 512" xmlns="http://www.w3.org/2000/svg"><defs><style>.cls-1{fill:#3f456b;}</style></defs><title/><g id="Lines"><path class="cls-1" d="M368,501H179a5,5,0,0,1,0-10H363V467H16a5,5,0,0,1-5-5V144a5,5,0,0,1,5-5H496a5,5,0,0,1,5,5V462a5,5,0,0,1-5,5H373v29A5,5,0,0,1,368,501ZM178.88,457H491V149H21V457Z"/><path class="cls-1" d="M412,501H102a5,5,0,0,1,0-10H412a5,5,0,0,1,0,10Z"/><path class="cls-1" d="M144,501a5,5,0,0,1-5-5V462a5,5,0,0,1,10,0v34A5,5,0,0,1,144,501Z"/><path class="cls-1" d="M435.31,349.06H358.26a25,25,0,0,1-25-25V247a25,25,0,0,1,25-25h77.05a25,25,0,0,1,25,25v77.06A25,25,0,0,1,435.31,349.06ZM358.26,232a15,15,0,0,0-15,15v77.06a15,15,0,0,0,15,15h77.05a15,15,0,0,0,15-15V247a15,15,0,0,0-15-15Z"/><path class="cls-1" d="M154.56,349.51h-77a25,25,0,0,1-25-25V247.45a25,25,0,0,1,25-25h77.05a25,25,0,0,1,25,25v77.06A25,25,0,0,1,154.56,349.51Zm-77-117.06a15,15,0,0,0-15,15v77.06a15,15,0,0,0,15,15h77.05a15,15,0,0,0,15-15V247.45a15,15,0,0,0-15-15Z"/><path class="cls-1" d="M294.22,349.06H217.16a25,25,0,0,1-25-25V247a25,25,0,0,1,25-25h77.06a25,25,0,0,1,25,25v77.06A25,25,0,0,1,294.22,349.06ZM217.16,232a15,15,0,0,0-15,15v77.06a15,15,0,0,0,15,15h77.06a15,15,0,0,0,15-15V247a15,15,0,0,0-15-15Z"/></g><g id="Outline"><path class="cls-1" d="M211.14,118.35a5,5,0,0,1-3.53-8.53,69.28,69.28,0,0,1,98,0,5,5,0,0,1-7.07,7.08,59.27,59.27,0,0,0-83.82,0A5,5,0,0,1,211.14,118.35Z"/><path class="cls-1" d="M328.53,91.85A5,5,0,0,1,325,90.38a96.76,96.76,0,0,0-136.82,0,5,5,0,0,1-7.07-7.07,106.76,106.76,0,0,1,151,0,5,5,0,0,1-3.54,8.54Z"/><path class="cls-1" d="M156.9,64.1a5,5,0,0,1-3.54-8.53,146,146,0,0,1,206.46,0,5,5,0,0,1-7.07,7.07,136,136,0,0,0-192.32,0A4.94,4.94,0,0,1,156.9,64.1Z"/><path class="cls-1" d="M257,484h-1a5,5,0,0,1,0-10h1a5,5,0,0,1,0,10Z"/><path class="cls-1" d="M235.38,321.81a4.92,4.92,0,0,1-2.44-.64,5,5,0,0,1-2.56-4.36V251.2a5,5,0,0,1,7.61-4.26l53.33,32.81a5,5,0,0,1,0,8.52L238,321.07A5,5,0,0,1,235.38,321.81Zm5-61.66v47.71L279.16,284Z"/><path class="cls-1" d="M397.7,326.87h0a5,5,0,0,1-4.26-2.37l-6.23-10.12c-19.72-3.76-33.79-17.76-33.79-34,0-19.29,19.86-35,44.28-35s44.27,15.69,44.27,35c0,16.24-14.06,30.24-33.78,34L402,324.5A5,5,0,0,1,397.7,326.87Zm-2.88-19.2,2.88,4.67,2.92-4.74a5,5,0,0,1,3.74-2.72c16-2.33,27.61-12.63,27.61-24.5,0-13.77-15.37-25-34.27-25s-34.28,11.21-34.28,25c0,11.87,11.61,22.17,27.61,24.5A5,5,0,0,1,394.82,307.67Z"/><path class="cls-1" d="M117,324.68a40.43,40.43,0,1,1,40.42-40.43A40.47,40.47,0,0,1,117,324.68Zm0-70.86a30.43,30.43,0,1,0,30.42,30.43A30.46,30.46,0,0,0,117,253.82Z"/><path class="cls-1" d="M117,289.25a5,5,0,0,1-5-5V267.13a5,5,0,0,1,10,0v17.12A5,5,0,0,1,117,289.25Z"/><path class="cls-1" d="M131,297.8a4.88,4.88,0,0,1-2.58-.73l-14.11-8.55a5,5,0,0,1,5.19-8.55l14.1,8.55a5,5,0,0,1-2.6,9.28Z"/><path class="cls-1" d="M305.19,401.5h-1a5,5,0,0,1,0-10h1a5,5,0,1,1,0,10Zm-21,0h-1a5,5,0,0,1,0-10h1a5,5,0,1,1,0,10Zm-21,0h-1a5,5,0,0,1,0-10h1a5,5,0,1,1,0,10Zm-21,0h-1a5,5,0,0,1,0-10h1a5,5,0,1,1,0,10Zm-21,0h-1a5,5,0,0,1,0-10h1a5,5,0,1,1,0,10Zm-21,0h-1a5,5,0,0,1,0-10h1a5,5,0,1,1,0,10Z"/></g></svg>