<?xml version="1.0" ?><svg viewBox="0 0 512 512" xmlns="http://www.w3.org/2000/svg"><defs><style>.cls-1{fill:#3f456b;}</style></defs><title/><g id="Lines"><path class="cls-1" d="M108.15,387.45a5,5,0,0,1-2.65-.77c-3-1.9-12.26-7.68-11.38-45.26A310.17,310.17,0,0,1,97,307.3a5,5,0,1,1,9.89,1.45c-4.33,29.5-4,64.43,4,69.46a5,5,0,0,1-2.66,9.24Z"/><path class="cls-1" d="M404.49,388.67a5,5,0,0,1-2.63-9.26c1.76-1.08,7.45-6.9,7-36.5A307.38,307.38,0,0,0,406.41,310a5,5,0,1,1,9.9-1.38,312.41,312.41,0,0,1,2.55,34.14c.57,37.59-8.71,43.3-11.76,45.17A5,5,0,0,1,404.49,388.67Z"/><path class="cls-1" d="M164.27,257.9a5,5,0,0,1-.58-10c.29,0,29.22-3.39,57.59-4.72a5,5,0,0,1,.47,10c-28,1.32-56.61,4.63-56.9,4.67A5.63,5.63,0,0,1,164.27,257.9Z"/><path class="cls-1" d="M348.49,258.66a4.44,4.44,0,0,1-.63,0c-.29,0-28.86-3.59-56.86-5.13a5,5,0,1,1,.55-10c28.36,1.56,57.26,5.15,57.55,5.19a5,5,0,0,1-.61,10Z"/><path class="cls-1" d="M99,474.88H99l-36.51-.15a21.39,21.39,0,0,1-21.26-21.44l.18-44.42a5,5,0,0,1,5-5h0a5,5,0,0,1,5,5l-.18,44.41a11.39,11.39,0,0,0,11.3,11.4l36.52.15h0a11.4,11.4,0,0,0,11.35-11.3l.19-44.42a5,5,0,0,1,5-5h0a5,5,0,0,1,5,5l-.19,44.42A21.41,21.41,0,0,1,99,474.88Z"/><path class="cls-1" d="M447.84,476.32h-.09l-36.52-.15A21.41,21.41,0,0,1,390,454.73l.19-44.41a5,5,0,0,1,5-5h0a5,5,0,0,1,5,5L400,454.77a11.4,11.4,0,0,0,11.3,11.4l36.52.15h0A11.39,11.39,0,0,0,459.18,455l.19-44.42a5,5,0,1,1,10,0l-.19,44.41a21.37,21.37,0,0,1-21.34,21.26Z"/><path class="cls-1" d="M434.13,268.4a5,5,0,0,1-4.93-4.22l-17.51-111.1c-2-13.5-10.92-23.89-26.62-30.94a88.12,88.12,0,0,0-24-6.74,5.18,5.18,0,0,1-.95-.2c-.16,0-19.85-5.56-93.46-5.87-74.73-.32-113.6,5.12-114,5.17a3.44,3.44,0,0,1-.45,0A88.3,88.3,0,0,0,127,120.48c-16.15,6.6-25.23,17.07-27,31.11,0,0,0,.08,0,.12l-16.49,111a5,5,0,1,1-9.89-1.47L90.07,150.3c2.22-17.7,13.76-31.25,33.37-39.18a97.43,97.43,0,0,1,28.05-6.54c3.48-.49,41.77-5.54,115.23-5.25,70.24.3,92.3,5.24,95.84,6.17a98.32,98.32,0,0,1,26.6,7.52c18.77,8.42,30,21.76,32.42,38.57l17.5,111a5,5,0,0,1-4.16,5.72A5.25,5.25,0,0,1,434.13,268.4Z"/><path class="cls-1" d="M137.51,313.17h-.12l-57.71-.23a21.67,21.67,0,0,1-10.24-3.05c-4.61-2.77-10.1-8.56-10-20.39h0a54.39,54.39,0,0,1,1.74-14.95,24.53,24.53,0,0,1,7.77-12.24c15.44-12.69,42.74-4.67,57.63,1.24,9.34,3.71,21.63,10.75,27.13,23.28,3,6.76,2.75,13.84-.6,18.95C149.93,310.55,144.41,313.17,137.51,313.17ZM69.39,289.55c-.06,13,9.27,13.38,10.33,13.39l57.71.23c2.47,0,5.69-.48,7.26-2.88,1.47-2.23,1.4-5.85-.18-9.44-4.14-9.42-14.07-15-21.67-18-6.3-2.5-15.82-5.72-25.39-6.86-10-1.19-17.48.17-22.21,4a14.9,14.9,0,0,0-4.51,7.32,45.29,45.29,0,0,0-1.34,12.2Z"/><path class="cls-1" d="M432.6,314.4h0l-57.71-.24c-6.95,0-12.49-2.7-15.6-7.53-3.31-5.13-3.48-12.22-.45-18.95,5.6-12.48,17.95-19.43,27.32-23.06,14.95-5.78,42.31-13.58,57.65-.76a24.6,24.6,0,0,1,7.66,12.31,54.19,54.19,0,0,1,1.62,15h0c-.05,11.83-5.58,17.57-10.22,20.31A21.59,21.59,0,0,1,432.6,314.4Zm-11.18-47.47a57.31,57.31,0,0,0-6.22.36A106.51,106.51,0,0,0,389.75,274c-10.78,4.17-18.53,10.5-21.82,17.82-1.61,3.58-1.71,7.2-.26,9.45,1.55,2.41,4.79,2.93,7.23,2.94l57.71.24c1.7,0,10.4-.83,10.45-13.31a44.73,44.73,0,0,0-1.25-12.2,14.79,14.79,0,0,0-4.44-7.36C433.7,268.47,428.35,266.93,421.42,266.93Zm26.64,24.18h0Z"/><path class="cls-1" d="M371.4,284.17a5.09,5.09,0,0,1-1.15-.14c-.46-.1-46.44-10.78-114-11.06s-113.58,10-114,10.12a5,5,0,0,1-2.22-9.75c.46-.11,46.32-10.37,113.57-10.37h2.74c68.74.29,115.74,11.22,116.21,11.33a5,5,0,0,1-1.15,9.87Z"/><path class="cls-1" d="M430.81,249a4.84,4.84,0,0,1-1.66-.29c-.47-.16-49.47-16.82-172.68-17.33-64.41-.26-108,3.89-133.2,7.42C96,242.62,83.7,246.56,83.58,246.6a5,5,0,0,1-3.12-9.5c2-.66,50.82-16.23,176.05-15.73s174,17.19,176,17.9a5,5,0,0,1-1.67,9.72Z"/><path class="cls-1" d="M430.36,389.05h-.15L81.42,387.61c-9.15,0-16.43-3.55-21.63-10.44-19.26-25.55-1-91.56-.19-94.36a5,5,0,1,1,9.62,2.71A270.65,270.65,0,0,0,62.3,321c-3,24.16-1.07,41.52,5.48,50.2,3.26,4.32,7.74,6.43,13.68,6.46l348.8,1.44h.1c5.9,0,10.36-2.08,13.63-6.35,13.69-17.83,4.11-67.86-.73-85.63a5,5,0,0,1,9.65-2.63c.76,2.8,18.49,69-1,94.35C446.7,385.6,439.45,389.05,430.36,389.05Z"/><path class="cls-1" d="M81.44,387.61h0l-34.88-.15C30.08,387.39,24.16,374,24.2,364.93l.43-104.64c0-7.22,2.22-12.91,6.5-16.89,6-5.61,13.86-5.53,15.43-5.46l18,.08h.07C76.12,238,78.75,226.1,79,224.74a5,5,0,0,1,9.83,1.81C87.49,234,80.69,248,64.67,248h-.11l-18.17-.08h-.32s-4.94-.22-8.19,2.85c-2.14,2-3.23,5.24-3.25,9.55L34.2,365c0,2,.7,12.44,12.38,12.49l34.88.15a5,5,0,0,1,0,10Z"/><path class="cls-1" d="M465.19,389.19h-.13l-34.88-.14a5,5,0,0,1,0-10h0l34.88.14h.08c11.61,0,12.38-10.34,12.41-12.42l.44-104.6c0-4.35-1.07-7.59-3.23-9.63-3.2-3-8.06-2.87-8.11-2.87h-.32l-18.17-.07c-16-.07-23.37-15.56-25-23.74a5,5,0,0,1,9.8-2c.15.72,3.46,15.69,15.27,15.74l18,.07c1.57-.06,9.4-.07,15.39,5.59,4.25,4,6.39,9.71,6.36,16.94l-.44,104.64C487.56,375.84,481.56,389.19,465.19,389.19Z"/><path class="cls-1" d="M465.12,415.63H465L46.43,413.89c-7.9,0-13.91-2.35-17.86-6.9-5-5.76-4.67-12.84-4.49-14.72l.12-27.34a5,5,0,0,1,5-5h0a5,5,0,0,1,5,5l-.12,27.61a4.91,4.91,0,0,1,0,.67h0s-.46,4.29,2.15,7.24c2,2.24,5.44,3.38,10.29,3.4L465,405.63h.13c4.78,0,8.21-1.12,10.2-3.32,2.64-2.93,2.2-7.23,2.2-7.27a4.4,4.4,0,0,1,0-.62l.11-27.61a5,5,0,0,1,5-5h0a5,5,0,0,1,5,5l-.11,27.34c.17,1.88.43,9-4.61,14.68C478.91,413.35,472.94,415.63,465.12,415.63Z"/><path class="cls-1" d="M151.2,387.9h0a5,5,0,0,1-5-5l.16-37.7c-.79-6.88,2.64-20.42,21.33-25,10-2.45,47.65-9.37,88.43-9.24,42.6.18,84.08,9,88,9.88,7.91,1,22.4,7.45,22.33,24.95l-.16,38-10-.05.16-38c.05-13.27-13.18-14.94-13.74-15a4.71,4.71,0,0,1-.52-.09c-.43-.1-43.4-9.52-86.11-9.7-36.86-.14-73.85,6-86,8.95-15.11,3.72-13.83,13.85-13.76,14.28a6,6,0,0,1,.05.73l-.16,38A5,5,0,0,1,151.2,387.9Z"/><path class="cls-1" d="M487.42,232.33h-.07l-32.58-.14a15,15,0,0,1-14.94-15.06l.06-14.88a15,15,0,0,1,15-14.94H455l32.59.14a15,15,0,0,1,14.94,15.06l-.07,14.88a15,15,0,0,1-15,14.94Zm0-10h0a5,5,0,0,0,5-5l.07-14.88a5,5,0,0,0-5-5l-32.59-.14h0a5,5,0,0,0-5,5l-.06,14.88a5,5,0,0,0,5,5Z"/><path class="cls-1" d="M58.23,230.55h-.06l-32.59-.13a15,15,0,0,1-14.94-15.07l.07-14.87a15,15,0,0,1,15-14.94h.06l32.58.13a15,15,0,0,1,14.94,15.06l-.06,14.88a15,15,0,0,1-15,14.94Zm0-10a5.13,5.13,0,0,0,3.53-1.46,5,5,0,0,0,1.49-3.52l.06-14.88a5,5,0,0,0-5-5l-32.58-.13h0a5,5,0,0,0-5,5l-.07,14.88a5,5,0,0,0,5,5Z"/><path class="cls-1" d="M462.42,249.66h0a5,5,0,0,1-5-5l.07-17.44a5,5,0,0,1,5-5h0a5,5,0,0,1,5,5l-.07,17.43A5,5,0,0,1,462.42,249.66Z"/><path class="cls-1" d="M51.32,248h0a5,5,0,0,1-5-5l.07-17.44a5,5,0,0,1,5-5h0a5,5,0,0,1,5,5L56.32,243A5,5,0,0,1,51.32,248Z"/><path class="cls-1" d="M309.24,109.51a4,4,0,0,1-.69-.05,5,5,0,0,1-4.26-5.64h0A12,12,0,0,0,302,95.88c-2.23-2.78-6.06-4.46-11.4-5-32.69-3.32-67.57-.31-67.92-.28-5.32.4-9.12,2-11.36,4.66a12.22,12.22,0,0,0-2.45,8.22,5,5,0,1,1-9.92,1.24A21.8,21.8,0,0,1,203.45,89c4-5,10.21-7.78,18.36-8.4,1.4-.12,36.09-3.12,69.75.3,8.2.83,14.36,3.81,18.32,8.86a21.58,21.58,0,0,1,4.31,15.41A5,5,0,0,1,309.24,109.51Z"/><path class="cls-1" d="M221.24,320.79h0a5,5,0,0,1-5-5l.37-89.12a5,5,0,0,1,5-5h0a5,5,0,0,1,5,5l-.37,89.12A5,5,0,0,1,221.24,320.79Z"/><path class="cls-1" d="M291,321.08h0a5,5,0,0,1-5-5l.37-89.13a5,5,0,0,1,10,0L296,316.1A5,5,0,0,1,291,321.08Z"/><path class="cls-1" d="M222,132.22h0a5,5,0,0,1-5-5l.09-21.79a5,5,0,0,1,5-5h0a5,5,0,0,1,5,5L227,127.24A5,5,0,0,1,222,132.22Z"/><path class="cls-1" d="M291.78,132.51h0a5,5,0,0,1-5-5l.09-21.79a5,5,0,0,1,5-5h0a5,5,0,0,1,5,5l-.09,21.79A5,5,0,0,1,291.78,132.51Z"/><path class="cls-1" d="M257.08,89.31h0a5,5,0,0,1-5-5l.18-44.75a5,5,0,0,1,5-5h0a5,5,0,0,1,5,5l-.18,44.75A5,5,0,0,1,257.08,89.31Z"/><path class="cls-1" d="M417.44,162.46a5,5,0,0,1-4.88-3.92c-.61-1.32-14.08-25.59-156.4-26.18C174,132,135,139.7,116.75,146.2c-9.63,3.43-14.08,6.68-16.12,8.8a6.84,6.84,0,0,0-1.39,1.88c-.11.41,0-.51,0-.51l-10-.5c.13-2.51,2.24-11.3,24.11-19.09,27.65-9.84,75.71-14.69,142.8-14.42,154.27.64,165.52,28.85,166.21,34.49a5,5,0,0,1-4.36,5.57A4.17,4.17,0,0,1,417.44,162.46Zm-4.85-3.87h0Zm-.1-.51h0Zm0,0h0Z"/><path class="cls-1" d="M115.47,440.07a5,5,0,0,1-1.39-9.8L202,404.74a5,5,0,0,1,2.78,9.61l-87.94,25.52A5.13,5.13,0,0,1,115.47,440.07Z"/><path class="cls-1" d="M395.05,441.23a4.85,4.85,0,0,1-1.44-.22l-87.72-26.25a5,5,0,1,1,2.86-9.58l87.73,26.25a5,5,0,0,1-1.43,9.8Z"/></g><g id="Outline"><path class="cls-1" d="M66.51,433.25h0l-18.91-.08a5,5,0,0,1,0-10h0l18.92.08a5,5,0,0,1,0,10Z"/><path class="cls-1" d="M66.67,453.51h0l-19.42-.08a5,5,0,0,1,0-10h0l19.42.08a5,5,0,0,1,0,10Z"/><path class="cls-1" d="M114.73,433.19h0l-18.92-.07a5,5,0,0,1,0-10h0l18.92.07a5,5,0,0,1,0,10Z"/><path class="cls-1" d="M114.9,453.45h0l-19.42-.08a5,5,0,0,1,0-10h0l19.42.08a5,5,0,0,1,0,10Z"/><path class="cls-1" d="M416,434.13h0l-18.91-.07a5,5,0,0,1,0-10h0l18.92.07a5,5,0,0,1,0,10Z"/><path class="cls-1" d="M416.18,454.39h0l-19.42-.08a5,5,0,0,1,0-10h0l19.42.08a5,5,0,0,1,0,10Z"/><path class="cls-1" d="M464.24,434.08h0L445.3,434a5,5,0,0,1,0-10h0l18.92.08a5,5,0,0,1,0,10Z"/><path class="cls-1" d="M464.41,454.33h0L445,454.25a5,5,0,0,1,0-10h0l19.42.08a5,5,0,0,1,0,10Z"/><path class="cls-1" d="M358.73,349h0l-204.64-.85a5,5,0,0,1,0-10h0l204.64.85a5,5,0,0,1,0,10Z"/><path class="cls-1" d="M361.37,369.24h0l-210.09-.87a5,5,0,0,1,0-10h0l210.09.87a5,5,0,0,1,0,10Z"/><path class="cls-1" d="M66,279.11h0L29.64,279a5,5,0,0,1,0-10h0l36.37.15a5,5,0,0,1,0,10Z"/><path class="cls-1" d="M483.2,280.84h0l-36.37-.15a5,5,0,0,1,0-10h0l36.37.15a5,5,0,0,1,0,10Z"/></g></svg>