<?xml version="1.0" ?><svg id="Lines" viewBox="0 0 512 512" xmlns="http://www.w3.org/2000/svg"><defs><style>.cls-1{fill:#384169;}</style></defs><title/><path class="cls-1" d="M340,374a23,23,0,1,1,23-23A23,23,0,0,1,340,374Zm0-36a13,13,0,1,0,13,13A13,13,0,0,0,340,338Z"/><path class="cls-1" d="M340,448a23,23,0,1,1,23-23A23,23,0,0,1,340,448Zm0-36a13,13,0,1,0,13,13A13,13,0,0,0,340,412Z"/><path class="cls-1" d="M164.3,69.33a5,5,0,0,1-4.13-7.79c4.1-6,14.36-15.21,28.17-15.21h.29c-2.95-6.68-5.31-15.61-1.81-23,3.2-6.73,10.25-10.56,21-11.36,15.47-1.16,25.63,1.73,31.06,8.82,3.51,4.59,4.71,10.5,3.59,17.9,6.25-1.38,14.67-1,23.48,5.8C271,35.43,282.55,25.61,303.71,28,331.15,31,338.5,50.87,338.56,61a5,5,0,0,1-5,5h0a5,5,0,0,1-5-5,24.15,24.15,0,0,0-3.39-10.65c-4.27-7.08-11.87-11.27-22.56-12.46S283.68,39,278.12,44.84a22.34,22.34,0,0,0-5.39,9.35,5,5,0,0,1-8.58,2.28c-13.12-14.43-24.73-6.28-26-5.3a5,5,0,0,1-7.78-5.62c3.11-8.81,3.3-15.1.56-18.68-3.13-4.09-10.86-5.8-22.37-4.93-6.87.52-11.14,2.43-12.68,5.67-3.14,6.62,3.68,18.86,6.32,22.63a5,5,0,0,1-5.79,7.57c-17-6.12-27.52,8.72-27.95,9.36A5,5,0,0,1,164.3,69.33Z"/><path class="cls-1" d="M98,223.7a5,5,0,0,1-4.91-4.1c-1.92-10.55.06-18.35,2.58-23.57-6.32-1.07-14.53-3.62-19.93-9.64-4.62-5.14-6.44-11.75-5.39-19.63,1.12-8.37,4.7-14.64,10.65-18.62,11.11-7.44,26.25-3.57,26.88-3.4a5,5,0,1,1-2.53,9.67c-.19,0-11.52-2.86-18.82,2.06-3.48,2.35-5.53,6.15-6.26,11.62-.66,4.91.29,8.71,2.91,11.62,6.53,7.27,21.28,7.09,21.42,7.1a5,5,0,0,1,3.33,8.84c-.27.23-7.75,7-5,22.16a5,5,0,0,1-4,5.81A4.56,4.56,0,0,1,98,223.7Z"/><path class="cls-1" d="M398.75,66.39A5,5,0,0,1,395,58.1c5.34-6.12,7.14-13,4.8-18.35-2.68-6.17-10.39-9.89-21.13-10.23-5.87-.19-9.93,1.2-12.41,4.23-4.27,5.22-3.26,14.74-2.5,18A5,5,0,0,1,354,54c-.16-.66-3.8-16.43,4.46-26.57,4.52-5.55,11.4-8.2,20.49-7.94,14.77.47,25.7,6.38,30,16.24,3.92,9,1.51,19.81-6.44,28.92A5,5,0,0,1,398.75,66.39Z"/><path class="cls-1" d="M389.75,201.85a5,5,0,0,1-2.51-9.33c12.61-7.3,10.27-18,10.24-18.06a5,5,0,0,1,7.92-5.11,17.1,17.1,0,0,0,16.37,2.17c6-2.42,9.73-8.15,10.93-16.57.68-4.74-.18-8.44-2.62-11.33-5.68-6.7-18.08-7.17-18.21-7.18a5,5,0,1,1,.24-10c.68,0,16.95.51,25.6,10.71,4.33,5.12,6,11.58,4.89,19.2-2.3,16.14-11.68,22.23-17.06,24.42a27.05,27.05,0,0,1-18.33.61c-1.1,6-4.68,13.83-15,19.78A5,5,0,0,1,389.75,201.85Z"/><path class="cls-1" d="M295,312.93c-12.36,0-22.21-2.53-29.33-7.55a25.77,25.77,0,0,1-6.35-6.28c-16.41,2.68-28-1.09-33.51-3.66-5.53,4.91-18.36,14-32.85,8.65-19-7-19.24-20.91-19.24-21.5h10v-.12c0,.32.52,7.75,12.71,12.24,12.63,4.65,24.68-8.59,24.8-8.73a5,5,0,0,1,6.56-.79h0a30.79,30.79,0,0,0,8.61,3.41c5.14,1.31,13.57,2.37,24.5,0a4.77,4.77,0,0,1,5.8,3.33c.43,1.06,5.65,12.24,32.82,10.85,28.4-1.45,31.38-18.25,31.4-18.42a5,5,0,1,1,9.88,1.56c-.16,1-4.35,25-40.77,26.85C298.33,312.89,296.66,312.93,295,312.93Z"/><path class="cls-1" d="M411,228.34a5,5,0,0,1-2.27-9.46c1-.55,10.28-5.77,7.31-16.49-2.93-10.54-14.84-9.48-16.19-9.32a5,5,0,0,1-1.22-9.92c7.5-.94,22.8,1.3,27,16.56,4.19,15.09-6.28,25-12.4,28.08A5,5,0,0,1,411,228.34Z"/><path class="cls-1" d="M306,500H208a5,5,0,0,1-4.62-6.92c8.55-20.51,28.2-24.93,37.62-25.85V387.69c-18.79-6.93-22-26.67-21-36.95V289a5,5,0,0,1,10,0v62a5.07,5.07,0,0,1,0,.55c-.1.91-2.15,22.75,17.24,27.6A5,5,0,0,1,251,384v88a5,5,0,0,1-1.53,3.6,5.09,5.09,0,0,1-3.65,1.4c-.87,0-18.94-.39-29.22,13h80.78c-10.43-13.49-29-13-29.2-13a5.05,5.05,0,0,1-3.65-1.4A5,5,0,0,1,263,472V384a5,5,0,0,1,3.79-4.85c8.12-2,13.48-7.19,15.92-15.34A35,35,0,0,0,284,351.55a5.07,5.07,0,0,1,0-.55V308a5,5,0,0,1,10,0v42.74c1,10.28-2.21,30-21,36.95v79.54c9.42.92,29.07,5.34,37.62,25.85A5,5,0,0,1,306,500Z"/><path class="cls-1" d="M342.64,88.44a4.93,4.93,0,0,1-2.49-.67c-1.49-.86-14.54-8.72-14.38-20,.1-6.72,4.67-12.57,13.59-17.39s16.32-5.44,22-1.84c9.55,6.07,9,21.29,8.88,23a5,5,0,1,1-10-.56c.18-3.58-.62-11.71-4.27-14-3.13-2-8.78.53-11.87,2.2s-8.29,5-8.34,8.73c-.06,4.36,6.29,9.45,9.38,11.23a5,5,0,0,1-2.51,9.33Z"/><path class="cls-1" d="M328.17,131.39a15.2,15.2,0,0,1-4.94-.8c-6.35-2.16-10.5-8.32-12.33-18.29s-.13-17.2,5-21.48c8.72-7.21,23-2,24.62-1.34A5,5,0,1,1,337,98.8c-3.34-1.28-11.32-3-14.65-.27-2.84,2.36-2.2,8.51-1.57,12s2.22,9.44,5.73,10.63c4.13,1.41,10.93-3.06,13.58-5.44a5,5,0,0,1,6.69,7.43C345.65,124.08,337.23,131.39,328.17,131.39Z"/><path class="cls-1" d="M365.43,160.59a42.23,42.23,0,0,1-5.64-.4c-10.05-1.35-16.4-5.19-18.87-11.44-4.16-10.52,5.25-22.5,6.34-23.83a5,5,0,0,1,7.75,6.31h0c-2.25,2.79-6.38,9.84-4.78,13.85,1.36,3.44,7.41,4.73,10.89,5.2s9.65.8,11.87-2.15c2.6-3.45.46-11.34-1-14.62a5,5,0,0,1,9.14-4.06c.7,1.57,6.63,15.6-.15,24.66C377.78,158.42,372.55,160.59,365.43,160.59Z"/><path class="cls-1" d="M394.08,97a5,5,0,0,1-1.27-9.84c3.45-.93,10.94-4.2,12-8.39.91-3.58-3.22-8.18-5.76-10.6s-7.34-6.33-10.87-5.24c-4.13,1.27-7,8.9-7.8,12.41a5,5,0,0,1-9.78-2.1c.36-1.68,3.81-16.52,14.62-19.86,6.41-2,13.38.55,20.73,7.55s10.21,13.84,8.54,20.34c-2.81,11-17.47,15.12-19.13,15.56A5.18,5.18,0,0,1,394.08,97Z"/><path class="cls-1" d="M402.47,142c-10.84,0-18.89-12-19.8-13.41a5,5,0,0,1,8.41-5.42c1.95,3,7.35,9.12,11.69,8.83,3.69-.24,6.78-5.59,8.3-8.76s3.75-8.94,1.62-12c-2.51-3.57-10.65-3.95-14.19-3.58a5,5,0,1,1-1.05-9.95c1.71-.18,16.89-1.48,23.41,7.76,3.87,5.49,3.61,12.91-.77,22s-10,14-16.71,14.42C403.08,142,402.77,142,402.47,142Z"/><path class="cls-1" d="M432.64,115.16a5,5,0,0,1-3.66-1.6c-1.17-1.26-11.3-12.64-7.8-23.4,2.08-6.38,8.18-10.62,18.13-12.58s17.19-.36,21.54,4.75c7.33,8.63,2.27,23,1.67,24.61a5,5,0,0,1-9.37-3.49c1.24-3.36,2.88-11.36.07-14.65-2.39-2.81-8.53-2.09-12-1.41s-9.4,2.35-10.55,5.86c-1.34,4.1,3.22,10.88,5.64,13.53a5,5,0,0,1-3.69,8.38Z"/><path class="cls-1" d="M439.16,191.86a37.23,37.23,0,0,1-23.27-10.47,5,5,0,0,1,7.42-6.71,22.27,22.27,0,0,0,7.18,4.79c3.19,1.47,9,3.63,12,1.45,3.53-2.56,3.8-10.69,3.38-14.23a5,5,0,1,1,9.93-1.18c.21,1.7,1.72,16.86-7.44,23.51A15.27,15.27,0,0,1,439.16,191.86Z"/><path class="cls-1" d="M480.16,138.58l-1.13,0a5,5,0,1,1,.43-10c3.56.12,11.69-.78,13.94-4.46,1.93-3.15-.65-8.76-2.36-11.83s-5.13-8.21-8.83-8.23h0c-4.32,0-9.35,6.43-11.11,9.54a5,5,0,0,1-8.72-4.89c.84-1.5,8.52-14.65,19.83-14.65h0c6.71,0,12.62,4.5,17.56,13.36s5.66,16.24,2.14,22C496.67,137.87,484.2,138.58,480.16,138.58Z"/><path class="cls-1" d="M476.75,184.51a14.84,14.84,0,0,1-3.44-.41c-11-2.67-15.36-17.27-15.82-18.93a5,5,0,0,1,9.64-2.69c1,3.45,4.35,10.89,8.55,11.9,3.59.86,8.13-3.33,10.52-5.9s6.23-7.43,5.09-10.95c-1.34-4.15-9-6.93-12.49-7.62a5,5,0,0,1,1.94-9.81c1.69.34,16.57,3.58,20.06,14.35,2.07,6.38-.37,13.39-7.27,20.83C487.84,181.42,482.21,184.51,476.75,184.51Z"/><path class="cls-1" d="M367,105.18a5,5,0,0,1-5-5v-.84a5,5,0,1,1,10,0v.84A5,5,0,0,1,367,105.18Z"/><path class="cls-1" d="M451,138.18a5,5,0,0,1-5-5v-.84a5,5,0,1,1,10,0v.84A5,5,0,0,1,451,138.18Z"/><path class="cls-1" d="M235.05,113.66a4.94,4.94,0,0,1-2.5-.67c-1.49-.86-14.54-8.72-14.38-20,.1-6.71,4.67-12.56,13.59-17.38s16.32-5.44,22-1.84c9.55,6.06,9,21.29,8.88,23a5,5,0,1,1-10-.55c.18-3.58-.62-11.71-4.27-14-3.13-2-8.77.53-11.86,2.2s-8.29,5-8.35,8.73c-.06,4.36,6.3,9.45,9.38,11.23a5,5,0,0,1-2.5,9.33Z"/><path class="cls-1" d="M220.57,156.61a15.2,15.2,0,0,1-4.94-.8c-6.35-2.17-10.5-8.32-12.33-18.3s-.13-17.2,5-21.47c8.72-7.21,23-2,24.63-1.34a5,5,0,0,1-3.61,9.32h0c-3.35-1.28-11.33-3-14.65-.27-2.85,2.36-2.21,8.51-1.58,12s2.23,9.44,5.73,10.63c4.13,1.41,10.93-3.06,13.58-5.44a5,5,0,0,1,6.69,7.43C238.05,149.3,229.63,156.61,220.57,156.61Z"/><path class="cls-1" d="M257.83,185.81a44,44,0,0,1-5.64-.4c-10.05-1.35-16.4-5.19-18.87-11.44-4.16-10.52,5.25-22.5,6.34-23.83a5,5,0,0,1,7.75,6.32c-2.25,2.79-6.38,9.83-4.78,13.84,1.37,3.44,7.41,4.73,10.89,5.2s9.66.8,11.88-2.16c2.61-3.5.46-11.35-1-14.6a5,5,0,1,1,9.13-4.07c.7,1.57,6.63,15.6-.15,24.66C270.18,183.64,265,185.81,257.83,185.81Z"/><path class="cls-1" d="M286.48,122.21a5,5,0,0,1-1.27-9.83c3.45-.93,10.94-4.21,12-8.39.91-3.58-3.22-8.18-5.76-10.6s-7.35-6.33-10.88-5.24c-4.16,1.29-7,8.91-7.78,12.39A5,5,0,0,1,263,98.46c.36-1.68,3.81-16.52,14.62-19.86,6.41-2,13.39.55,20.73,7.55s10.22,13.84,8.54,20.34c-2.81,11-17.47,15.12-19.13,15.56A5.16,5.16,0,0,1,286.48,122.21Z"/><path class="cls-1" d="M294.87,167.26c-10.83,0-18.89-12-19.8-13.42a5,5,0,0,1,8.41-5.42h0c1.95,3,7.35,9.13,11.69,8.83,3.69-.24,6.78-5.58,8.3-8.75s3.75-8.93,1.63-12c-2.48-3.53-10.65-3.94-14.21-3.58a5,5,0,0,1-1-10c1.71-.18,16.89-1.48,23.41,7.76,3.87,5.49,3.61,12.91-.77,22s-10,14-16.71,14.41C295.48,167.25,295.17,167.26,294.87,167.26Z"/><path class="cls-1" d="M259.45,130.39a5,5,0,0,1-5-5v-.84a5,5,0,0,1,10,0v.84A5,5,0,0,1,259.45,130.39Z"/><path class="cls-1" d="M229.6,239.05a16.34,16.34,0,0,1-8.23-2c-5.83-3.33-8.75-10.15-8.66-20.29s3.13-16.92,9-20.14c9.92-5.43,23,2.42,24.43,3.34a5,5,0,1,1-5.31,8.47h0c-3-1.89-10.55-5.12-14.33-3-3.24,1.78-3.77,7.93-3.81,11.45s.4,9.67,3.6,11.51c3.75,2.15,11.31-.94,14.39-2.78a5,5,0,0,1,5.16,8.57C244.77,234.76,237.36,239.05,229.6,239.05Z"/><path class="cls-1" d="M262.49,275a34.43,34.43,0,0,1-10.82-2c-9.61-3.22-15.12-8.2-16.36-14.8-2.1-11.11,9.4-21.1,10.72-22.2a5,5,0,1,1,6.42,7.67c-2.74,2.31-8.13,8.45-7.32,12.69.7,3.63,6.39,6,9.72,7.16s9.33,2.61,12.07.12c3.23-2.93,2.6-11,1.8-14.52a5,5,0,0,1,9.74-2.27c.39,1.68,3.56,16.58-4.81,24.19A16,16,0,0,1,262.49,275Z"/><path class="cls-1" d="M298.23,217.51a5,5,0,0,1-.33-10c3.56-.26,11.53-2.06,13.37-6,1.57-3.34-1.61-8.64-3.65-11.5s-6-7.6-9.69-7.2c-4.34.48-8.6,7.41-10,10.7a5,5,0,1,1-9.21-3.89c.67-1.59,6.86-15.51,18.1-16.75,6.69-.74,13.05,3.08,18.93,11.34s7.42,15.52,4.55,21.59c-4.84,10.22-20,11.54-21.73,11.66Z"/><path class="cls-1" d="M299.78,263.51a14.79,14.79,0,0,1-1.87-.12c-11.22-1.44-17.16-15.47-17.8-17.07a5,5,0,0,1,9.27-3.74c1.36,3.32,5.53,10.35,9.82,10.89,3.64.46,7.71-4.21,9.8-7s5.38-8.07,3.86-11.44c-1.8-4-9.71-5.89-13.26-6.2a5,5,0,1,1,.85-10c1.71.15,16.87,1.73,21.52,12,2.76,6.12,1.1,13.36-4.93,21.51C311.58,259.78,305.78,263.51,299.78,263.51Z"/><path class="cls-1" d="M270.15,220.43a5.2,5.2,0,0,1-1-.09,5,5,0,0,1-4-5.86l.16-.82a5,5,0,0,1,9.82,1.89l-.16.83A5,5,0,0,1,270.15,220.43Z"/><path class="cls-1" d="M345.17,229.65a4.94,4.94,0,0,1-3.26-1.22c-1.3-1.13-12.63-11.32-10.33-22.4,1.36-6.57,6.95-11.45,16.63-14.5s17.05-2.26,21.93,2.35c8.24,7.76,4.8,22.6,4.38,24.27a5,5,0,0,1-9.7-2.43h0c.85-3.48,1.6-11.61-1.54-14.57-2.7-2.53-8.72-1.13-12.07-.08s-9.08,3.37-9.84,7c-.89,4.23,4.4,10.47,7.09,12.83a5,5,0,0,1-3.29,8.77Z"/><path class="cls-1" d="M358.32,305.26a34.47,34.47,0,0,1-10.82-2c-9.61-3.22-15.12-8.2-16.36-14.79-2.1-11.12,9.4-21.11,10.72-22.21a5,5,0,1,1,6.42,7.67c-2.74,2.31-8.13,8.45-7.32,12.69.7,3.63,6.39,6,9.72,7.16s9.32,2.61,12.06.13c3.2-2.9,2.6-11,1.8-14.54a5,5,0,0,1,9.75-2.26c.39,1.68,3.56,16.58-4.81,24.19A16,16,0,0,1,358.32,305.26Z"/><path class="cls-1" d="M394.06,247.77a5,5,0,0,1-.33-10c3.56-.26,11.53-2.06,13.37-6,1.57-3.34-1.61-8.64-3.65-11.5s-6-7.59-9.68-7.2c-4.3.47-8.6,7.42-10,10.71a5,5,0,0,1-9.2-3.9c.66-1.59,6.86-15.5,18.1-16.75,6.68-.73,13,3.08,18.93,11.34S419,230,416.14,236.1c-4.84,10.23-20,11.54-21.73,11.66Z"/><path class="cls-1" d="M395.61,293.77a14.79,14.79,0,0,1-1.87-.12c-11.22-1.44-17.16-15.47-17.8-17.07a5,5,0,1,1,9.27-3.73c1.36,3.32,5.53,10.34,9.82,10.88,3.67.46,7.71-4.2,9.8-7s5.38-8.07,3.86-11.44c-1.8-4-9.71-5.89-13.26-6.19a5,5,0,0,1,.85-10c1.71.15,16.87,1.73,21.52,12,2.76,6.12,1.1,13.35-4.93,21.5C407.41,290,401.61,293.77,395.61,293.77Z"/><path class="cls-1" d="M366,250.69a5.09,5.09,0,0,1-1-.09,5,5,0,0,1-4-5.85l.16-.83a5,5,0,0,1,9.82,1.89l-.16.82A5,5,0,0,1,366,250.69Z"/><path class="cls-1" d="M125.76,224.62a4.93,4.93,0,0,1-2.49-.67c-1.49-.86-14.54-8.72-14.38-20,.1-6.72,4.67-12.57,13.59-17.39s16.32-5.44,22-1.84c9.55,6.06,9,21.29,8.88,23a5,5,0,1,1-10-.55c.18-3.58-.62-11.71-4.27-14-3.13-2-8.77.53-11.86,2.2s-8.29,5-8.35,8.72c-.07,4.31,6.3,9.44,9.39,11.25a5,5,0,0,1-2.52,9.32Z"/><path class="cls-1" d="M111.29,267.57a15.2,15.2,0,0,1-4.94-.8C100,264.6,95.85,258.45,94,248.48s-.13-17.21,5-21.48c8.72-7.21,23-2,24.63-1.34a5,5,0,0,1-3.61,9.32h0c-3.35-1.28-11.33-3-14.65-.27-2.85,2.36-2.21,8.51-1.57,12s2.22,9.44,5.72,10.63c4.13,1.41,10.93-3.06,13.58-5.44a5,5,0,1,1,6.69,7.43C128.77,260.26,120.35,267.57,111.29,267.57Z"/><path class="cls-1" d="M148.55,296.77a43.69,43.69,0,0,1-5.63-.4c-10.06-1.35-16.4-5.19-18.88-11.44-4.16-10.52,5.25-22.5,6.34-23.83a5,5,0,0,1,7.75,6.32c-2.25,2.78-6.38,9.83-4.78,13.84,1.37,3.44,7.41,4.73,10.89,5.2s9.65.8,11.87-2.15c2.6-3.45.46-11.34-1-14.62a5,5,0,0,1,9.14-4.06c.7,1.57,6.63,15.6-.15,24.66C160.9,294.6,155.68,296.77,148.55,296.77Z"/><path class="cls-1" d="M177.2,233.17a5,5,0,0,1-1.27-9.83c3.45-.93,10.94-4.2,12-8.39.91-3.58-3.22-8.18-5.76-10.6s-7.35-6.33-10.88-5.24c-4.16,1.29-7,8.91-7.78,12.39a5,5,0,0,1-9.79-2.08c.36-1.68,3.81-16.52,14.62-19.86,6.41-2,13.39.55,20.73,7.55s10.22,13.84,8.54,20.34c-2.81,11-17.47,15.12-19.13,15.56A5.16,5.16,0,0,1,177.2,233.17Z"/><path class="cls-1" d="M185.59,278.22c-10.83,0-18.89-12-19.8-13.41a5,5,0,0,1,8.41-5.43c2,3,7.37,9.13,11.69,8.83,3.69-.24,6.78-5.58,8.3-8.75s3.75-8.93,1.63-12c-2.48-3.53-10.65-3.94-14.21-3.58a5,5,0,0,1-1-9.95c1.71-.18,16.88-1.48,23.4,7.76,3.87,5.49,3.61,12.91-.77,22s-10,14-16.71,14.42Z"/><path class="cls-1" d="M150.17,241.36a5,5,0,0,1-5-5v-.85a5,5,0,0,1,10,0v.85A5,5,0,0,1,150.17,241.36Z"/><path class="cls-1" d="M66.17,220.36a5,5,0,0,1-5-5v-.85a5,5,0,0,1,10,0v.85A5,5,0,0,1,66.17,220.36Z"/><path class="cls-1" d="M107.28,82.54A5,5,0,0,1,104,81.32C102.71,80.19,91.39,70,93.68,58.93c1.37-6.58,7-11.46,16.63-14.51s17.06-2.25,21.94,2.35c8.23,7.77,4.79,22.61,4.37,24.27a5,5,0,0,1-9.7-2.42h0c.86-3.48,1.61-11.62-1.54-14.58-2.69-2.53-8.71-1.13-12.06-.08s-9.08,3.37-9.84,7c-.89,4.23,4.39,10.47,7.09,12.83a5,5,0,0,1-3.29,8.77Z"/><path class="cls-1" d="M87.54,122.21a16.48,16.48,0,0,1-8.24-2c-5.83-3.33-8.74-10.16-8.65-20.3s3.12-16.91,9-20.14c9.93-5.43,23,2.43,24.44,3.34a5,5,0,0,1-5.31,8.48h0c-3-1.89-10.55-5.12-14.33-3-3.24,1.78-3.78,7.94-3.81,11.45s.4,9.69,3.61,11.52c3.79,2.16,11.32-.94,14.37-2.78a5,5,0,1,1,5.16,8.56C102.71,117.92,95.29,122.21,87.54,122.21Z"/><path class="cls-1" d="M120.43,158.15a34.47,34.47,0,0,1-10.82-2C100,152.92,94.49,148,93.24,141.35c-2.1-11.12,9.41-21.11,10.73-22.21a5,5,0,0,1,6.42,7.67c-2.74,2.31-8.13,8.45-7.32,12.69.69,3.63,6.39,6.05,9.72,7.16s9.33,2.62,12.07.13c3.22-2.94,2.6-11.06,1.79-14.53a5,5,0,1,1,9.74-2.26c.39,1.67,3.57,16.57-4.8,24.19A16,16,0,0,1,120.43,158.15Z"/><path class="cls-1" d="M156.17,100.66a5,5,0,0,1-.33-10c3.56-.25,11.53-2,13.37-6,1.57-3.35-1.61-8.64-3.65-11.5s-6-7.58-9.69-7.2c-4.34.48-8.61,7.41-10,10.69a5,5,0,1,1-9.21-3.89c.67-1.58,6.86-15.5,18.11-16.74,6.67-.74,13,3.07,18.93,11.33s7.42,15.52,4.54,21.59c-4.83,10.23-20,11.55-21.73,11.66Z"/><path class="cls-1" d="M157.72,146.66a14.79,14.79,0,0,1-1.87-.12c-11.22-1.44-17.16-15.47-17.81-17.06a5,5,0,0,1,9.28-3.74h0c1.35,3.32,5.53,10.34,9.81,10.88,3.65.46,7.72-4.2,9.81-7s5.37-8.07,3.85-11.45c-1.79-4-9.71-5.89-13.26-6.19a5,5,0,0,1,.86-10c1.71.14,16.86,1.73,21.52,12,2.76,6.12,1.1,13.36-4.93,21.51C169.51,142.93,163.71,146.66,157.72,146.66Z"/><path class="cls-1" d="M39.49,205.88a4.93,4.93,0,0,1-2-.44c-1.57-.7-15.35-7.19-16.35-18.46-.59-6.69,3.36-13,11.75-18.68s15.67-7.08,21.68-4.08c10.12,5.06,11.11,20.27,11.18,22a5,5,0,1,1-10,.47h0c-.19-3.57-1.81-11.59-5.68-13.51-3.3-1.64-8.67,1.43-11.58,3.4s-7.73,5.85-7.41,9.54c.39,4.34,7.23,8.76,10.48,10.22a5,5,0,0,1-2,9.56Z"/><path class="cls-1" d="M28.33,250.14a14.76,14.76,0,0,1-3.34-.38c-6.55-1.5-11.3-7.2-14.14-16.94S9,215.72,13.68,210.94c7.94-8.06,22.7-4.3,24.36-3.84a5,5,0,0,1-2.64,9.64c-3.46-.93-11.58-1.86-14.61,1.22-2.58,2.64-1.32,8.69-.34,12.07s3.17,9.15,6.77,10c4.2,1,10.55-4.16,13-6.81a5,5,0,0,1,7.41,6.72C46.56,241.07,38,250.14,28.33,250.14Z"/><path class="cls-1" d="M65.89,275.5l-1.51,0C54.24,275.17,47.53,272,44.44,266c-5.22-10,2.92-22.92,3.87-24.36a5,5,0,0,1,8.36,5.49c-2,3-5.35,10.44-3.35,14.27,1.71,3.27,7.85,3.94,11.36,4.05s9.7-.18,11.6-3.36c2.24-3.74-.69-11.33-2.47-14.42a5,5,0,0,1,8.68-5c.85,1.49,8.18,14.85,2.36,24.55C81.58,272.73,75.2,275.5,65.89,275.5Z"/><path class="cls-1" d="M128.08,103.59a5.17,5.17,0,0,1-1-.09,5,5,0,0,1-4-5.86l.16-.83a5,5,0,0,1,9.82,1.9l-.16.82A5,5,0,0,1,128.08,103.59Z"/><path class="cls-1" d="M339,335a5,5,0,0,1-5-5V313a5,5,0,0,1,10,0v17A5,5,0,0,1,339,335Z"/><path class="cls-1" d="M399,363a23,23,0,1,1,23-23A23,23,0,0,1,399,363Zm0-36a13,13,0,1,0,13,13A13,13,0,0,0,399,327Z"/><path class="cls-1" d="M398,324a5,5,0,0,1-5-5V302a5,5,0,0,1,10,0v17A5,5,0,0,1,398,324Z"/><path class="cls-1" d="M456,258a23,23,0,1,1,23-23A23,23,0,0,1,456,258Zm0-36a13,13,0,1,0,13,13A13,13,0,0,0,456,222Z"/><path class="cls-1" d="M455,219a5,5,0,0,1-5-5V197a5,5,0,0,1,10,0v17A5,5,0,0,1,455,219Z"/><path class="cls-1" d="M101,340a23,23,0,1,1,23-23A23,23,0,0,1,101,340Zm0-36a13,13,0,1,0,13,13A13,13,0,0,0,101,304Z"/><path class="cls-1" d="M100,301a5,5,0,0,1-5-5V279a5,5,0,0,1,10,0v17A5,5,0,0,1,100,301Z"/><path class="cls-1" d="M339,408a5,5,0,0,1-5-5V386a5,5,0,0,1,10,0v17A5,5,0,0,1,339,408Z"/><path class="cls-1" d="M170,360a23,23,0,1,1,23-23A23,23,0,0,1,170,360Zm0-36a13,13,0,1,0,13,13A13,13,0,0,0,170,324Z"/><path class="cls-1" d="M170,434a23,23,0,1,1,23-23A23,23,0,0,1,170,434Zm0-36a13,13,0,1,0,13,13A13,13,0,0,0,170,398Z"/><path class="cls-1" d="M169,321a5,5,0,0,1-5-5V299a5,5,0,0,1,10,0v17A5,5,0,0,1,169,321Z"/><path class="cls-1" d="M169,394a5,5,0,0,1-5-5V372a5,5,0,0,1,10,0v17A5,5,0,0,1,169,394Z"/></svg>