<?xml version="1.0" ?><svg viewBox="0 0 512 512" xmlns="http://www.w3.org/2000/svg"><defs><style>.cls-1{fill:#3f456b;}.cls-2{fill:#384169;}</style></defs><title/><g id="Lines"><path class="cls-1" d="M245.1,64.45a5,5,0,0,1-1.43-.21c-.57-.17-13.82-4.28-16.23-21.15A29.31,29.31,0,0,1,234,19.69c5.42-6.25,13.45-9.69,22.6-9.69,13.32,0,25,7.94,29,19.76a28.46,28.46,0,0,1-1.52,22,24.45,24.45,0,0,1-14.53,12.5,5,5,0,0,1-3-9.55,14.4,14.4,0,0,0,8.59-7.47,18.62,18.62,0,0,0,1-14.2c-2.62-7.65-10.67-13-19.57-13-6.3,0-11.5,2.16-15,6.25a19.26,19.26,0,0,0-4.22,15.42c1.48,10.35,8.92,12.9,9.23,13a5,5,0,0,1-1.47,9.78Z"/><path class="cls-1" d="M288.47,132a5,5,0,0,1-1.49-9.78,14.37,14.37,0,0,0,8.59-7.47,18.64,18.64,0,0,0,1-14.19c-2.63-7.66-10.68-13-19.58-13-6.3,0-11.5,2.16-15,6.25a19.27,19.27,0,0,0-4.22,15.43c1.51,10.59,9.09,13,9.17,13a5,5,0,0,1-2.84,9.59c-.57-.17-13.82-4.28-16.23-21.15a29.29,29.29,0,0,1,6.56-23.39c5.42-6.25,13.45-9.7,22.6-9.7,13.32,0,25,7.94,29,19.76a28.45,28.45,0,0,1-1.52,22A24.41,24.41,0,0,1,290,131.81,5.09,5.09,0,0,1,288.47,132Z"/><path class="cls-1" d="M332.62,183.71a5,5,0,0,1-1.43-.21c-.57-.17-13.82-4.28-16.23-21.15a29.27,29.27,0,0,1,6.56-23.4c5.42-6.25,13.45-9.69,22.59-9.69,13.32,0,25,7.94,29,19.76,3.5,10.2.81,21.83-6.69,29a5,5,0,1,1-6.89-7.25c4.64-4.41,6.34-12,4.12-18.47-2.62-7.65-10.67-13-19.58-13-6.29,0-11.49,2.16-15,6.24a19.25,19.25,0,0,0-4.22,15.43c1.48,10.35,8.91,12.9,9.23,13a5,5,0,0,1-1.47,9.78Z"/><path class="cls-1" d="M140,296a4.76,4.76,0,0,1-1.43-.21c-.56-.16-13.81-4.28-16.22-21.15a29.21,29.21,0,0,1,6.56-23.39c5.42-6.25,13.44-9.69,22.59-9.69,13.32,0,25,7.94,29,19.76a28.43,28.43,0,0,1-1.51,21.95,24.44,24.44,0,0,1-14.53,12.5,5,5,0,0,1-3-9.54,14.44,14.44,0,0,0,8.59-7.48,18.64,18.64,0,0,0,1-14.19c-2.62-7.66-10.67-13-19.58-13-6.29,0-11.49,2.16-15,6.24a19.27,19.27,0,0,0-4.21,15.43c1.47,10.35,8.91,12.89,9.23,13a5,5,0,0,1,3.34,6.2A5,5,0,0,1,140,296Z"/><path class="cls-1" d="M197,205a4.76,4.76,0,0,1-1.43-.21c-.56-.16-13.81-4.28-16.22-21.15a29.21,29.21,0,0,1,6.56-23.39c5.42-6.25,13.44-9.69,22.59-9.69,13.32,0,25,7.94,29,19.76a28.43,28.43,0,0,1-1.51,22,24.44,24.44,0,0,1-14.53,12.5,5,5,0,0,1-3-9.54,14.44,14.44,0,0,0,8.59-7.48,18.64,18.64,0,0,0,1-14.19c-2.62-7.66-10.67-13-19.58-13-6.29,0-11.49,2.16-15,6.24a19.27,19.27,0,0,0-4.21,15.43c1.47,10.35,8.91,12.89,9.23,13a5,5,0,0,1,3.34,6.2A5,5,0,0,1,197,205Z"/><path class="cls-2" d="M154.38,201.86c-3.21,0-14.66-1-21.91-13.92a29.26,29.26,0,0,1-2.3-24.19c2.81-7.78,9.05-13.88,17.59-17.17,12.42-4.8,26.17-1.6,34.2,8a28.43,28.43,0,0,1,6.5,21,24.48,24.48,0,0,1-9.06,16.9,5,5,0,0,1-6.21-7.84,14.4,14.4,0,0,0,5.32-10.06,18.68,18.68,0,0,0-4.2-13.59c-5.21-6.2-14.64-8.29-22.95-5.09-5.88,2.27-10,6.16-11.78,11.25a19.23,19.23,0,0,0,1.62,15.91c5.22,9.33,13.14,8.81,13.22,8.8a5,5,0,1,1,.8,10C155.15,201.84,154.85,201.86,154.38,201.86Z"/><path class="cls-1" d="M142.38,238.86c-3.21,0-14.66-1-21.91-13.92a29.26,29.26,0,0,1-2.3-24.19c2.81-7.78,9-13.88,17.59-17.17a5,5,0,0,1,3.6,9.32c-5.88,2.27-10,6.16-11.78,11.25a19.23,19.23,0,0,0,1.62,15.91,16.7,16.7,0,0,0,8.89,8,12.72,12.72,0,0,0,4.33.8,5,5,0,1,1,.8,10C143.15,238.84,142.85,238.86,142.38,238.86Z"/><path class="cls-2" d="M165.34,153.76a5,5,0,0,1-3.91-1.88,29.23,29.23,0,0,1-6.19-23.5c1.5-8.13,6.68-15.16,14.56-19.8,11.49-6.75,25.57-5.81,35,2.32a28.23,28.23,0,0,1,6.54,8.2,5,5,0,0,1-8.83,4.69,18.37,18.37,0,0,0-4.22-5.3c-6.14-5.27-15.79-5.8-23.47-1.29-5.43,3.19-8.82,7.69-9.8,13a19.27,19.27,0,0,0,4.18,15.43,5,5,0,0,1-.79,7A4.94,4.94,0,0,1,165.34,153.76Z"/><path class="cls-1" d="M335,140a5,5,0,0,1-4.95-4.38c-1.41-11.28-9.5-11-9.84-11a5,5,0,0,1-1.74-9.76,14.41,14.41,0,0,0,8.59-7.48,18.59,18.59,0,0,0,1-14.19c-2.63-7.66-10.68-13-19.58-13a25.58,25.58,0,0,0-3.07.18,5,5,0,0,1-1.21-9.93,35.4,35.4,0,0,1,4.28-.25c13.32,0,25,7.94,29,19.76a28.47,28.47,0,0,1-1.51,22,25.9,25.9,0,0,1-4.58,6.41c4,2.94,7.55,7.94,8.56,16.07a5,5,0,0,1-4.34,5.58A4.44,4.44,0,0,1,335,140Z"/><path class="cls-1" d="M191.39,114.45a5.1,5.1,0,0,1-1.43-.21c-.56-.17-13.81-4.28-16.22-21.15a29.27,29.27,0,0,1,6.56-23.4c5.42-6.25,13.44-9.69,22.59-9.69,13.32,0,25,7.94,29,19.76A5,5,0,0,1,222.47,83c-2.62-7.65-10.67-13-19.58-13-6.29,0-11.49,2.16-15,6.24a19.29,19.29,0,0,0-4.21,15.43c1.47,10.35,8.91,12.9,9.23,13a5,5,0,0,1-1.48,9.78Z"/><path class="cls-1" d="M203.11,70a5.34,5.34,0,0,1-.69,0,5,5,0,0,1-4.27-5.63c1.32-9.63,5.25-16.85,11.67-21.48,10-7.25,22.38-5.07,22.89-5a5,5,0,0,1-1.79,9.84c-.2,0-8.83-1.44-15.31,3.29-4.08,3-6.62,7.92-7.56,14.69A5,5,0,0,1,203.11,70Z"/><path class="cls-1" d="M295.7,94.07A5,5,0,0,1,293,84.83a15.15,15.15,0,0,0,6.71-10c.57-3.6-.53-7.09-3.27-10.38-7.28-8.74-17.88-6.78-18-6.76a5,5,0,0,1-1.92-9.81c.67-.14,16.57-3.07,27.59,10.17,5.83,7,6.18,13.84,5.46,18.36a25.14,25.14,0,0,1-11.28,16.85A4.92,4.92,0,0,1,295.7,94.07Z"/><path class="cls-1" d="M444,250.21a64.06,64.06,0,0,1-29.75-7.86,5.09,5.09,0,0,1-1.28-1c-10.07-11.3-24.15-38.67-5.37-61.42,6.5-7.88,14.35-12.19,23.33-12.81,17-1.19,31.85,11.57,33.57,13.1s17.05,14.17,18.9,31.21c.95,8.74-1.72,17-7.94,24.52C466.63,246.63,455.08,250.21,444,250.21ZM419.91,234a62.09,62.09,0,0,0,17.66,5.7c12.84,2,23-1.45,30.19-10.16,4.5-5.45,6.36-11,5.71-17.08-1.48-13.58-15.14-24.43-15.28-24.54a3.22,3.22,0,0,1-.28-.24c-.13-.12-12.93-11.59-26.32-10.64-6.2.45-11.53,3.46-16.27,9.21-7.44,9-9,19.71-4.52,31.8A58.77,58.77,0,0,0,419.91,234Z"/><path class="cls-1" d="M62,283a39.11,39.11,0,0,1-19.78-5.46c-8.84-5.11-14.4-12.13-16.51-20.88-4-16.57,6.12-33.34,7.34-35.28S44.2,202.22,60.7,197.56c8.46-2.38,17-1.12,25.5,3.76,24.79,14.3,21.64,45,16.51,59.29a4.94,4.94,0,0,1-.81,1.43C94.94,270.73,79.74,283,62,283ZM41.57,226.65c-.1.15-9.29,14.68-6.12,27.72,1.47,6,5.32,10.79,11.78,14.51,10.12,5.84,20.93,5.56,32.12-.82a59.1,59.1,0,0,0,14.21-11.64,62.29,62.29,0,0,0,2.68-18.36c-.19-13-5.25-22.44-15-28.08-6.12-3.53-11.94-4.44-17.79-2.79-13.15,3.71-21.58,19-21.66,19.14a3.37,3.37,0,0,1-.19.32Zm-4.21-2.71h0Z"/><path class="cls-1" d="M257,500a37,37,0,0,1-37-37V367a5,5,0,0,1,10,0v96a27,27,0,0,0,54,0V379a5,5,0,0,1,10,0v84A37,37,0,0,1,257,500Z"/><path class="cls-1" d="M289,404.5a4.81,4.81,0,0,1-1.18-.14l-64-15.5a5,5,0,0,1,2.36-9.72l64,15.5A5,5,0,0,1,289,404.5Z"/><path class="cls-1" d="M289,436.5a4.81,4.81,0,0,1-1.18-.14l-64-15.5a5,5,0,0,1,2.36-9.72l64,15.5A5,5,0,0,1,289,436.5Z"/><path class="cls-1" d="M289,468.5a4.81,4.81,0,0,1-1.18-.14l-64-15.5a5,5,0,0,1,2.36-9.72l64,15.5A5,5,0,0,1,289,468.5Z"/><path class="cls-1" d="M317.05,312.36a5,5,0,0,1-3.72-1.66c-1.37-1.52-33.34-37.79-16-79,8.71-20.67,24.46-36.35,44.34-44.17a70.46,70.46,0,0,1,55.1,1,5,5,0,0,1,.57,8.82c-.94.59-23.33,14.94-22.83,46.83.48,29.89-3.52,59.76-56.69,68A5.09,5.09,0,0,1,317.05,312.36Zm51.14-119.88a62.46,62.46,0,0,0-22.86,4.39c-17.35,6.83-31.13,20.59-38.78,38.75-12.77,30.29,6.53,58.61,12.53,66.34,42.75-7.56,45.88-29.61,45.44-57.54-.41-25.61,11.9-41.69,20.21-49.6A59.44,59.44,0,0,0,368.19,192.48Z"/><path class="cls-1" d="M317.05,312.36a5,5,0,0,1-3.15-1.11c-37.59-30.46-97.07-35.54-122.46-37.71-2.48-.21-4.6-.39-6.31-.57-8.62-.87-12.2-4.86-13.67-8.05-3.87-8.34,2.92-18.73,3.82-20.06.61-.91,7.23-10.52,20.69-18.75,12.66-7.74,34.09-15.74,64.33-9.91,17.61,3.39,32.07,9.59,43,18.4a5,5,0,0,1-6.28,7.79c-9.63-7.78-22.62-13.29-38.61-16.37-51.31-9.9-73.87,23-74.8,24.4-2,2.92-4.11,8.06-3.07,10.3.54,1.16,2.58,2,5.61,2.3,1.66.17,3.73.35,6.15.56,26.31,2.24,87.93,7.51,127.91,39.9a5,5,0,0,1-3.15,8.88Z"/><path class="cls-1" d="M385.76,407.38c-19.11,0-36.63-7.74-37.64-8.19-23.26-10.46-52-30.44-56.8-66.2A78.64,78.64,0,0,1,296,294.17a5,5,0,0,1,9.16,4h0a69.83,69.83,0,0,0-3.82,33.91c3.51,24.86,20.65,44.36,50.93,58,.3.13,30.19,13.29,51.13,4,.3-.19,2.35-1.7,2.37-7.31,0-4.37-2.18-19.26-12.43-35.42-13.14-20.7-33.87-35.08-61.62-42.74a5,5,0,0,1,2.67-9.64c29.78,8.23,53.09,24.49,67.39,47,11.13,17.53,14,34.36,14,40.81-.05,12.06-6.71,15.71-8.3,16.4h0A53.21,53.21,0,0,1,385.76,407.38ZM403.46,394a.2.2,0,0,0-.08,0Zm.16-.06Z"/><path class="cls-1" d="M447.84,339.49c-4.32,0-8.83-2-13.45-6.06-7.09-6.19-12.72-9.07-19.41-9.93a25.08,25.08,0,0,0-25.33,12.38,5,5,0,1,1-8.58-5.14,35.27,35.27,0,0,1,35.19-17.16c11,1.41,18.64,7,24.71,12.31,2.13,1.87,5.19,4,7.57,3.53a5.64,5.64,0,0,0,3.87-2.89c3.23-5.17,3-15.12,1.65-20.31-3.74-14-14.24-26.29-29.55-34.51-17.2-9.24-37.83-11.64-53.85-6.26a5,5,0,0,1-3.18-9.48c18.83-6.33,41.91-3.74,61.76,6.93,17.77,9.54,30,24,34.48,40.74,1.78,6.67,2.49,19.68-2.83,28.19a15.73,15.73,0,0,1-10.44,7.41A14.25,14.25,0,0,1,447.84,339.49Z"/><path class="cls-1" d="M212.89,376.11c-6,0-11.44-3.18-15.27-9.3-4.07-6.5-9-21.81,4.07-51.31a69.45,69.45,0,0,1,22.93-28.8,64,64,0,0,1,34.81-12.07,5,5,0,0,1,.28,10c-9.87.27-20.54,4-29.3,10.22a59.53,59.53,0,0,0-19.57,24.68c-3,6.82-12.25,30-4.75,42,3.14,5,7.07,5.92,12.37,2.86,4-2.34,7.87-5.06,11.56-7.69,7.42-5.27,15.09-10.73,25.18-13.63a71.36,71.36,0,0,1,48.51,3.55,5,5,0,1,1-4,9.14,61.26,61.26,0,0,0-41.7-3.07c-8.45,2.42-15.1,7.15-22.14,12.16-3.88,2.76-7.9,5.62-12.36,8.2A21.24,21.24,0,0,1,212.89,376.11Z"/><path class="cls-1" d="M266,226.43a5,5,0,0,1-5-4.78A103.47,103.47,0,0,0,246,173.12l-.26-.44c-2.9-4.73-6.86-11.21-2.8-18.46,5.66-10.12,22-5.86,24.82-5,40.11,8.16,56,36.22,61.83,52.24a5,5,0,0,1-9.39,3.45C315,190.8,301.07,166.1,265.57,159a3.89,3.89,0,0,1-.49-.12c-5.23-1.59-12.24-1.82-13.4.26s0,4,2.6,8.37l.27.45a113.67,113.67,0,0,1,8.56,17.18A111.7,111.7,0,0,1,271,221.21a5,5,0,0,1-4.78,5.22Z"/><path class="cls-1" d="M409.34,265a4.43,4.43,0,0,1-1-.11,5,5,0,0,1-3.88-5.91,110.08,110.08,0,0,1,7.67-23.11,5,5,0,0,1,9.1,4.15,100.08,100.08,0,0,0-7,21A5,5,0,0,1,409.34,265Z"/><path class="cls-1" d="M411.25,151c-20.34,0-36.18-16.77-42.56-27.48a5.19,5.19,0,0,1-.6-1.53C365,107.21,366.41,76.46,394,66.09c9.56-3.59,18.51-3.42,26.61.51C436,74,442.5,92.5,443.22,94.68s7.73,20.78.84,36.48c-3.53,8.05-9.95,13.88-19.09,17.31A38.87,38.87,0,0,1,411.25,151Zm-33.52-31.89a62.14,62.14,0,0,0,12.48,13.74c10.15,8.11,20.66,10.2,31.24,6.23,6.6-2.48,11-6.38,13.44-11.93,5.48-12.43-.94-28.77-1-28.93s-.09-.23-.13-.35c-.08-.27-5.47-16.51-17.51-22.32-5.61-2.71-11.72-2.75-18.7-.13-11,4.14-17.68,12.75-19.81,25.6A58.38,58.38,0,0,0,377.73,119.14Z"/><path class="cls-1" d="M355.62,141.42a5,5,0,0,1-3.74-8.32A110.17,110.17,0,0,1,370,116.88a5,5,0,0,1,5.83,8.13,99.63,99.63,0,0,0-16.51,14.73A5,5,0,0,1,355.62,141.42Z"/><path class="cls-1" d="M177,380a48,48,0,1,1,39.06-75.9,5,5,0,0,1-8.13,5.82A38,38,0,1,0,177,370a37.71,37.71,0,0,0,22.07-7.06,5,5,0,1,1,5.82,8.13A47.68,47.68,0,0,1,177,380Z"/><path class="cls-1" d="M134,340.33a5.24,5.24,0,0,1-1.23-.15c-10-2.54-28.71-12.58-27.76-32.42a33.73,33.73,0,0,1,23.31-30.92,5,5,0,0,1,2.78,9.61A23.69,23.69,0,0,0,115,308.24c-.79,16.72,20,22.19,20.24,22.25a5,5,0,0,1-1.23,9.84Z"/><path class="cls-1" d="M292.3,382.79a43.25,43.25,0,0,1-16.16-3.15,33.77,33.77,0,0,1-21.66-32.91,5,5,0,0,1,10,.71,23.77,23.77,0,0,0,15.41,22.92c17.1,6.84,31.32-2.89,31.92-3.31a5,5,0,0,1,5.78,8.16A46.86,46.86,0,0,1,292.3,382.79Z"/><path class="cls-1" d="M128.6,285.41a5,5,0,0,1-3.28-1.23c-6.85-5.94-16.87-13.14-29.8-21.38a5,5,0,1,1,5.38-8.43c13.34,8.5,23.76,16,31,22.26a5,5,0,0,1-3.28,8.78Z"/><path class="cls-1" d="M131.36,261.25a5,5,0,0,1-3.55-1.48c-16.82-17-1.5-33.9-1.35-34.07a5,5,0,0,1,7.36,6.77,17.58,17.58,0,0,0-3.45,6.67c-1.22,4.83.27,9.28,4.54,13.59a5,5,0,0,1-3.55,8.52Z"/><path class="cls-1" d="M381.33,193.82H381a5,5,0,0,1-4.65-5.33c1-14.15-8.24-16.79-9.3-17a5,5,0,0,1-3.82-5.93,5,5,0,0,1,6-3.84c6.48,1.39,18.41,8.91,17.13,27.51A5,5,0,0,1,381.33,193.82Z"/><path class="cls-1" d="M158.18,321.38a5,5,0,0,1-3.83-8.21l.64-.77a5,5,0,0,1,7.66,6.43l-.64.77A5,5,0,0,1,158.18,321.38Z"/><path class="cls-1" d="M92.61,365.49a5,5,0,0,1-4.85-3.82l-.24-1a5,5,0,0,1,9.72-2.37l.24,1a5,5,0,0,1-3.68,6A4.85,4.85,0,0,1,92.61,365.49Z"/><path class="cls-1" d="M116,405a49,49,0,0,1-6.65-97.55,5,5,0,0,1,1.35,9.91,39,39,0,1,0,42,52,5,5,0,0,1,9.4,3.41A49.16,49.16,0,0,1,116,405Z"/><path class="cls-1" d="M98.56,109.44A27.44,27.44,0,1,1,126,82,27.47,27.47,0,0,1,98.56,109.44Zm0-44.88A17.44,17.44,0,1,0,116,82,17.46,17.46,0,0,0,98.56,64.56Z"/><path class="cls-1" d="M45.56,340.44A27.44,27.44,0,1,1,73,313,27.47,27.47,0,0,1,45.56,340.44Zm0-44.88A17.44,17.44,0,1,0,63,313,17.46,17.46,0,0,0,45.56,295.56Z"/><path class="cls-1" d="M478.56,362.44A27.44,27.44,0,1,1,506,335,27.47,27.47,0,0,1,478.56,362.44Zm0-44.88A17.44,17.44,0,1,0,496,335,17.46,17.46,0,0,0,478.56,317.56Z"/><path class="cls-1" d="M126.56,144.44A27.44,27.44,0,1,1,154,117,27.47,27.47,0,0,1,126.56,144.44Zm0-44.88A17.44,17.44,0,1,0,144,117,17.46,17.46,0,0,0,126.56,99.56Z"/><path class="cls-1" d="M75.56,185.44A27.44,27.44,0,1,1,103,158,27.47,27.47,0,0,1,75.56,185.44Zm0-44.88A17.44,17.44,0,1,0,93,158,17.46,17.46,0,0,0,75.56,140.56Z"/><path class="cls-1" d="M153.56,76.44A27.44,27.44,0,1,1,181,49,27.47,27.47,0,0,1,153.56,76.44Zm0-44.88A17.44,17.44,0,1,0,171,49,17.46,17.46,0,0,0,153.56,31.56Z"/><path class="cls-2" d="M125,203.13a5,5,0,0,1-4-2c-10.32-13.94-29.26-26.38-29.45-26.51A5,5,0,1,1,97,166.21c.83.55,20.62,13.53,32,28.95a5,5,0,0,1-4,8Z"/><path class="cls-2" d="M145.8,158a5,5,0,0,1-4.77-3.5c-2-6.38-7.31-15.61-7.36-15.7a5,5,0,1,1,8.66-5c.24.42,5.9,10.26,8.24,17.7a5,5,0,0,1-3.27,6.27A4.93,4.93,0,0,1,145.8,158Z"/><path class="cls-2" d="M183,111a5,5,0,0,1-4.89-4c-2.24-11.18-15.83-27.9-20.88-33.39a5,5,0,1,1,7.36-6.77c.82.89,20.09,22,23.32,38.2A5,5,0,0,1,184,110.9,4.75,4.75,0,0,1,183,111Z"/><path class="cls-1" d="M110,313a5,5,0,0,1-1.51-.23c-17.35-5.48-39,0-39.23.07a5,5,0,1,1-2.52-9.68c1-.26,24.62-6.29,44.77.07A5,5,0,0,1,110,313Z"/><path class="cls-1" d="M331,455a5,5,0,0,1-3.31-1.25c-11.59-10.26-19.93-26.5-24.8-48.29a161.79,161.79,0,0,1-3.84-29.37,5,5,0,1,1,10-.19h0c0,.47,1.15,45.16,22.41,67.58l18-13.17c-6.4-7.31-18.3-23.28-21.41-43.93A5,5,0,0,1,338,384.9c3.69,24.52,22.29,42.28,22.47,42.46A5,5,0,0,1,360,435l-26,19A5,5,0,0,1,331,455Z"/><path class="cls-1" d="M186.22,434.5c-7.72,0-14.95-3.47-20.95-10.17a22.08,22.08,0,0,1-5.78-17.17c.68-8,5.17-16.75,13.34-26.07a100.23,100.23,0,0,1,11.7-11.34,5,5,0,0,1,6.22,7.83c-5.59,4.46-20.3,18.61-21.29,30.44a12.27,12.27,0,0,0,3.27,9.65c5.44,6.08,12,8.13,18.9,5.95,11.44-3.6,25.2-19.68,28.41-46.44a5,5,0,1,1,9.92,1.19c-3.24,27.13-17.44,49.15-35.32,54.79A28.22,28.22,0,0,1,186.22,434.5Z"/><path class="cls-1" d="M190,405a5,5,0,0,1-4.31-7.54,147.61,147.61,0,0,1,23.61-30,5,5,0,0,1,6.83,7.31h0a139.62,139.62,0,0,0-21.82,27.76A5,5,0,0,1,190,405Z"/><path class="cls-1" d="M468.4,317.61a40.15,40.15,0,0,1-8.88-1,5,5,0,0,1,2.21-9.75,28.37,28.37,0,0,0,21-3.24c6.1-3.52,9.8-8.09,11.3-14,3.37-13.17-5.64-28.23-5.73-28.38a3.47,3.47,0,0,1-.18-.33c-.08-.14-7.88-15-20.5-19a5,5,0,1,1,3-9.54c16,5.06,25.23,21.83,26.29,23.83s11,19.23,6.81,35.85c-2.17,8.52-7.55,15.32-16,20.2A38.22,38.22,0,0,1,468.4,317.61Z"/><path class="cls-1" d="M428.66,273.12l-.52,0a5,5,0,0,1-4.46-5.48c1-9.9,4.75-18.19,11.08-24.65a5,5,0,0,1,7.14,7c-4.71,4.8-7.49,11.07-8.27,18.66A5,5,0,0,1,428.66,273.12Z"/><path class="cls-1" d="M335.46,102.66a5,5,0,0,1-2.32-9.43,28.76,28.76,0,0,0,10.14-9c4.09-5.76,5.55-11.47,4.46-17.44-2.45-13.45-16.86-23.28-17-23.38l-.32-.22c-.12-.11-13.73-10.63-27-8.71-6.16.89-11.25,4.28-15.57,10.35a32.32,32.32,0,0,0-4.06,7.68,5,5,0,0,1-9.41-3.38A41.84,41.84,0,0,1,279.7,39c5.92-8.32,13.44-13.19,22.35-14.46,16.86-2.41,32.61,9.24,34.43,10.64s18,12.9,21.1,29.77c1.58,8.65-.49,17.07-6.15,25a38.47,38.47,0,0,1-13.66,12.07A4.93,4.93,0,0,1,335.46,102.66Z"/><path class="cls-1" d="M420.6,427.29a34.35,34.35,0,0,1-16.89-4.74,38.09,38.09,0,0,1-16.62-18.16,5,5,0,1,1,9.16-4,28.19,28.19,0,0,0,12.37,13.46c6.15,3.46,12,4.31,17.81,2.6,13.11-3.86,21.37-19.22,21.45-19.38s.13-.22.2-.33S457.2,382,453.89,369c-1.54-6-5.44-10.74-11.94-14.39-11.65-6.55-24-5.15-36.64,4.17a5,5,0,1,1-5.93-8.05c15.66-11.53,32.52-13.24,47.47-4.84,8.9,5,14.54,12,16.74,20.7,4.18,16.52-5.76,33.4-7,35.36S445.7,421.19,429.25,426A30.3,30.3,0,0,1,420.6,427.29Z"/></g><g id="Outline"><path class="cls-1" d="M488.47,135.84a5,5,0,0,1-3.54-8.54l8-8a5,5,0,1,1,7.07,7.08l-8,8A5,5,0,0,1,488.47,135.84Z"/><path class="cls-1" d="M461.1,163.18a5,5,0,0,1-3.53-8.54l8-8a5,5,0,0,1,7.08,7.07l-8,8A5,5,0,0,1,461.1,163.18Z"/><path class="cls-1" d="M496.47,163.19a5,5,0,0,1-3.53-1.46l-8-8a5,5,0,0,1,7.07-7.07l8,8a5,5,0,0,1-3.54,8.54Z"/><path class="cls-1" d="M469.13,135.83a5,5,0,0,1-3.54-1.47l-8-8a5,5,0,0,1,7.07-7.08l8,8a5,5,0,0,1-3.54,8.54Z"/><path class="cls-1" d="M54.47,397.84a5,5,0,0,1-3.54-8.54l8-8A5,5,0,0,1,66,388.36l-8,8A5,5,0,0,1,54.47,397.84Z"/><path class="cls-1" d="M27.1,425.18a5,5,0,0,1-3.53-8.54l8-8a5,5,0,1,1,7.08,7.07l-8,8A5,5,0,0,1,27.1,425.18Z"/><path class="cls-1" d="M62.47,425.19a5,5,0,0,1-3.53-1.46l-8-8A5,5,0,1,1,58,408.64l8,8a5,5,0,0,1-3.54,8.54Z"/><path class="cls-1" d="M35.13,397.83a5,5,0,0,1-3.54-1.47l-8-8a5,5,0,0,1,7.07-7.08l8,8a5,5,0,0,1-3.54,8.54Z"/><path class="cls-1" d="M360.92,356.22a5,5,0,0,1-2.05-.44c-41.15-18.51-46.53-46.37-46.74-47.54a5,5,0,0,1,9.84-1.78c.2,1.05,5.07,24,41,40.2a5,5,0,0,1-2.05,9.56Z"/><path class="cls-1" d="M317,312.36a5,5,0,0,1-4.91-4.13C306.58,276.77,328,246,328.86,244.74a5,5,0,0,1,8.18,5.77c-.28.4-19.87,28.73-15.07,56a5,5,0,0,1-4.05,5.8A5.3,5.3,0,0,1,317,312.36Z"/><path class="cls-1" d="M297.34,268.41a4.93,4.93,0,0,1-2.55-.7h0c-.22-.13-21.59-12.67-45.3-12.1a5,5,0,0,1-.24-10c26.63-.64,49.68,12.93,50.65,13.51a5,5,0,0,1-2.56,9.29Z"/><path class="cls-1" d="M338.18,309.28a5,5,0,0,1-3-9,105.45,105.45,0,0,1,21.69-12c17.15-7,33.67-8.45,47.77-4.06a5,5,0,0,1-3,9.55c-28.84-9-60.15,14.21-60.46,14.45A5,5,0,0,1,338.18,309.28Z"/><path class="cls-1" d="M236.48,323.28a5,5,0,0,1-3.62-8.44c16.26-17.14,33.54-21,45.18-21.21a55.23,55.23,0,0,1,21.9,3.84,5,5,0,0,1-4.08,9.13c-1.23-.54-29.52-12.52-55.75,15.12A5,5,0,0,1,236.48,323.28Z"/><path class="cls-1" d="M302,238.68a5,5,0,0,1-4.95-5.76c4-26.15-12.66-36.78-12.83-36.88a5,5,0,1,1,5.25-8.51c.92.56,22.51,14.28,17.46,46.92A5,5,0,0,1,302,238.68Z"/><path class="cls-1" d="M446,286.51a5,5,0,0,1-3-9,172.46,172.46,0,0,1,47.33-25,5,5,0,1,1,3,9.54A165.6,165.6,0,0,0,449,285.51,5,5,0,0,1,446,286.51Z"/><path class="cls-1" d="M305.66,75.82a5,5,0,0,1-4.23-7.67,171.76,171.76,0,0,1,27.41-33.52,5,5,0,0,1,6.68,7.44A165.29,165.29,0,0,0,309.9,73.48,5,5,0,0,1,305.66,75.82Z"/><path class="cls-1" d="M453.07,403a5,5,0,0,1-3.35-1.29,165.88,165.88,0,0,0-43-26.25,5,5,0,0,1,3.79-9.26,173.06,173.06,0,0,1,45.91,28.08,5,5,0,0,1-3.35,8.72Z"/><path class="cls-1" d="M416.66,243a5,5,0,0,1-4.55-7.08c15.39-33.77,43.63-55.92,44.83-56.84a5,5,0,0,1,6.13,7.9h0c-.28.21-27.52,21.62-41.86,53.09A5,5,0,0,1,416.66,243Z"/><path class="cls-1" d="M373,126a5,5,0,0,1-2.92-9.07c30.17-21.62,65.69-26.75,67.19-27a5,5,0,1,1,1.37,9.91h0c-.34,0-34.63,5-62.73,25.18A5,5,0,0,1,373,126Z"/><path class="cls-1" d="M98.21,263.59a5,5,0,0,1-2.69-.79c-27.78-17.7-59.71-34.31-60-34.48a5,5,0,0,1,4.61-8.88c.32.17,32.65,17,60.8,34.93a5,5,0,0,1-2.69,9.22Z"/></g></svg>