<?xml version="1.0" ?><svg enable-background="new 0 0 512 512" version="1.1" viewBox="0 0 512 512" xml:space="preserve" xmlns="http://www.w3.org/2000/svg" xmlns:xlink="http://www.w3.org/1999/xlink"><g id="Colors"><g><g><path d="M67.02,391.84c-2.52-1.13-3.65-4.09-2.52-6.61l0,0c1.13-2.52,4.08-3.65,6.6-2.52l0,0     c2.52,1.12,3.65,4.08,2.53,6.6l0,0c-0.83,1.86-2.66,2.96-4.57,2.96l0,0C68.38,392.27,67.68,392.13,67.02,391.84z M74.35,373.23     c-2.66-0.71-4.25-3.45-3.53-6.12l0,0c0.71-2.67,3.45-4.25,6.12-3.54l0,0c2.67,0.72,4.25,3.46,3.54,6.13l0,0     c-0.6,2.23-2.62,3.7-4.83,3.7l0,0C75.22,373.4,74.79,373.35,74.35,373.23z M85.74,301.96c-2.76-0.04-4.97-2.3-4.94-5.06l0,0     c0.03-2.76,2.3-4.97,5.06-4.94l0,0c2.76,0.03,4.97,2.29,4.94,5.05l0,0c-0.03,2.74-2.26,4.95-5,4.95l0,0     C85.78,301.96,85.76,301.96,85.74,301.96z M80.48,277.17c-0.12-2.75,2.02-5.09,4.78-5.21l0,0c2.75-0.12,5.09,2.02,5.21,4.78l0,0     c0.12,2.75-2.02,5.09-4.78,5.21l0,0c-0.07,0-0.14,0.01-0.22,0.01l0,0C82.81,281.96,80.6,279.86,80.48,277.17z" fill="#384169"/></g></g><g><g><g><path d="M96.033,72c-0.358,0-0.722-0.039-1.085-0.119c-2.696-0.597-4.398-3.267-3.801-5.962      c6.651-30.044,30.038-51.959,58.194-54.533c31.884-2.917,61.597,19.539,70.658,53.39c0.714,2.667-0.87,5.409-3.537,6.123      c-2.667,0.713-5.409-0.87-6.123-3.537c-7.799-29.134-33.066-48.487-60.087-46.017c-23.805,2.176-43.634,20.958-49.341,46.736      C100.393,70.412,98.326,72,96.033,72z" fill="#384169"/></g></g></g><g><g><g><path d="M74.936,265.411c-3.704,0-5.849-1.801-6.834-2.939c-3.065-3.541-2.313-8.605-2.006-10.089l0.415-2.874      c-29.669-5.354-52.799-32.289-55.885-66.044c-1.774-19.406,3.399-38.301,14.567-53.203      c11.284-15.057,27.318-24.246,45.149-25.876c1.638-0.15,3.3-0.235,4.939-0.252c0.019,0,0.037,0,0.055,0      c2.737,0,4.969,2.204,4.999,4.946c0.03,2.761-2.185,5.024-4.946,5.053c-1.372,0.015-2.764,0.086-4.136,0.211      c-14.977,1.369-28.492,9.152-38.057,21.915c-9.681,12.917-14.16,29.359-12.611,46.296c2.826,30.907,24.719,55.176,52.056,57.706      c1.364,0.126,2.617,0.807,3.466,1.883c0.848,1.076,1.218,2.454,1.022,3.81l-1.159,8.03c-0.02,0.139-0.046,0.277-0.078,0.415      c-0.058,0.273-0.092,0.622-0.101,0.949l16.356-1.369c-0.045-0.154-0.107-0.337-0.191-0.551c-2.515-6.384-3.08-8.179-3.205-8.654      c-0.697-2.632,0.841-5.338,3.458-6.086c22.618-6.47,39.22-28.297,41.313-54.315c0.221-2.752,2.629-4.812,5.385-4.583      c2.752,0.221,4.804,2.632,4.583,5.385c-2.268,28.199-19.476,52.216-43.459,61.432c0.338,0.881,0.744,1.924,1.229,3.156      c1.832,4.648,0.836,7.845-0.321,9.709c-2.373,3.82-6.673,4.366-7.512,4.436l-17.478,1.463      C75.598,265.397,75.261,265.411,74.936,265.411z M75.864,256.237h0.01H75.864z" fill="#3F456B"/></g></g></g><g><g><path d="M130.716,306.961c-0.543,0-1.096-0.089-1.638-0.277c-2.609-0.904-3.991-3.752-3.087-6.361l40.902-118.031     c0.905-2.608,3.753-3.991,6.362-3.087c2.609,0.904,3.991,3.752,3.087,6.361L135.44,303.597     C134.724,305.664,132.787,306.961,130.716,306.961z" fill="#3F456B"/></g></g><g><g><path d="M63.472,501.001c-0.543,0-1.095-0.089-1.637-0.277c-2.609-0.904-3.991-3.752-3.087-6.361l49.463-142.729     c0.904-2.608,3.752-3.991,6.361-3.087c2.609,0.904,3.991,3.752,3.087,6.361L68.197,497.637     C67.48,499.704,65.543,501.001,63.472,501.001z" fill="#3F456B"/></g></g><g><g><path d="M158.98,306.961c-0.444,0-0.895-0.06-1.343-0.185c-2.661-0.74-4.217-3.497-3.477-6.157l32.833-118.031     c0.74-2.661,3.499-4.219,6.157-3.477c2.661,0.74,4.217,3.497,3.477,6.157L163.794,303.3     C163.179,305.512,161.169,306.961,158.98,306.961z" fill="#3F456B"/></g></g><g><g><path d="M105.003,501.001c-0.444,0-0.895-0.06-1.343-0.185c-2.661-0.74-4.217-3.497-3.477-6.157l39.704-142.729     c0.74-2.661,3.499-4.219,6.157-3.477c2.661,0.74,4.217,3.497,3.477,6.157L109.817,497.34     C109.202,499.552,107.192,501.001,105.003,501.001z" fill="#3F456B"/></g></g><g><g><path d="M351.722,307.366c-2.189,0-4.199-1.449-4.814-3.662L313.97,185.299c-0.74-2.66,0.817-5.417,3.478-6.157     c2.661-0.743,5.417,0.816,6.157,3.477l32.938,118.405c0.74,2.66-0.817,5.417-3.478,6.157     C352.616,307.307,352.165,307.366,351.722,307.366z" fill="#3F456B"/></g></g><g><g><path d="M405.586,501.001c-2.189,0-4.199-1.449-4.814-3.662l-39.946-143.6c-0.74-2.66,0.817-5.417,3.478-6.157     c2.662-0.743,5.417,0.816,6.157,3.477l39.946,143.6c0.74,2.66-0.817,5.417-3.478,6.157     C406.48,500.942,406.029,501.001,405.586,501.001z" fill="#3F456B"/></g></g><g><g><path d="M380,308.001c-2.073,0-4.011-1.299-4.726-3.368L334.013,185.23c-0.902-2.61,0.482-5.457,3.093-6.359     c2.611-0.903,5.457,0.483,6.358,3.092l41.262,119.403c0.902,2.61-0.482,5.457-3.093,6.359     C381.093,307.913,380.541,308.001,380,308.001z" fill="#3F456B"/></g></g><g><g><path d="M447,501.001c-2.071,0-4.008-1.297-4.725-3.364l-49.137-141.79c-0.904-2.609,0.479-5.458,3.088-6.361     c2.605-0.905,5.456,0.478,6.361,3.087l49.137,141.79c0.904,2.609-0.479,5.458-3.088,6.361     C448.096,500.912,447.543,501.001,447,501.001z" fill="#3F456B"/></g></g><g><g><g><path d="M72.001,357.001c-0.515,0-1.038-0.08-1.553-0.249c-2.625-0.857-4.059-3.68-3.201-6.305l16-49      c0.856-2.626,3.681-4.059,6.305-3.201c2.625,0.857,4.059,3.68,3.201,6.305l-16,49C76.064,355.662,74.106,357.001,72.001,357.001      z" fill="#3F456B"/></g></g><g><g><path d="M136.001,357.001c-0.515,0-1.038-0.08-1.553-0.249c-2.625-0.857-4.059-3.68-3.201-6.305l16-49      c0.857-2.626,3.683-4.059,6.305-3.201c2.625,0.857,4.059,3.68,3.201,6.305l-16,49      C140.064,355.662,138.106,357.001,136.001,357.001z" fill="#3F456B"/></g></g><g><g><path d="M200.001,357.001c-0.515,0-1.038-0.08-1.553-0.249c-2.625-0.857-4.059-3.68-3.201-6.305l16-49      c0.857-2.625,3.681-4.058,6.305-3.201c2.625,0.857,4.059,3.68,3.201,6.305l-16,49      C204.064,355.662,202.106,357.001,200.001,357.001z" fill="#3F456B"/></g></g><g><g><path d="M264.001,357.001c-0.515,0-1.037-0.08-1.553-0.249c-2.625-0.857-4.059-3.68-3.201-6.305l16-49      c0.857-2.625,3.681-4.058,6.305-3.201c2.625,0.857,4.059,3.68,3.201,6.305l-16,49      C268.064,355.662,266.105,357.001,264.001,357.001z" fill="#3F456B"/></g></g><g><g><path d="M328.001,357.001c-0.515,0-1.037-0.08-1.553-0.249c-2.625-0.857-4.059-3.68-3.201-6.305l16-49      c0.857-2.625,3.681-4.058,6.305-3.201c2.625,0.857,4.059,3.68,3.201,6.305l-16,49      C332.064,355.662,330.105,357.001,328.001,357.001z" fill="#3F456B"/></g></g><g><g><path d="M392,357.001c-0.554,0-1.117-0.093-1.669-0.289c-2.604-0.922-3.966-3.779-3.044-6.382l17-48      c0.922-2.603,3.778-3.967,6.382-3.043c2.604,0.922,3.966,3.779,3.044,6.382l-17,48C395.986,355.72,394.059,357.001,392,357.001z      " fill="#3F456B"/></g></g><g><g><path d="M103.001,357.001c-0.515,0-1.038-0.08-1.553-0.249c-2.625-0.857-4.059-3.68-3.201-6.305l16-49      c0.856-2.626,3.682-4.059,6.305-3.201c2.625,0.857,4.059,3.68,3.201,6.305l-16,49      C107.064,355.662,105.106,357.001,103.001,357.001z" fill="#3F456B"/></g></g><g><g><path d="M167.001,357.001c-0.515,0-1.038-0.08-1.553-0.249c-2.625-0.857-4.059-3.68-3.201-6.305l16-49      c0.856-2.626,3.681-4.059,6.305-3.201c2.625,0.857,4.059,3.68,3.201,6.305l-16,49      C171.064,355.662,169.106,357.001,167.001,357.001z" fill="#3F456B"/></g></g><g><g><path d="M231.001,357.001c-0.515,0-1.037-0.08-1.553-0.249c-2.625-0.857-4.059-3.68-3.201-6.305l16-49      c0.857-2.625,3.683-4.058,6.305-3.201c2.625,0.857,4.059,3.68,3.201,6.305l-16,49      C235.064,355.662,233.105,357.001,231.001,357.001z" fill="#3F456B"/></g></g><g><g><path d="M295.001,357.001c-0.515,0-1.037-0.08-1.553-0.249c-2.625-0.857-4.059-3.68-3.201-6.305l16-49      c0.857-2.625,3.683-4.058,6.305-3.201c2.625,0.857,4.059,3.68,3.201,6.305l-16,49      C299.064,355.662,297.105,357.001,295.001,357.001z" fill="#3F456B"/></g></g><g><g><path d="M359.001,357.001c-0.515,0-1.037-0.08-1.553-0.249c-2.625-0.857-4.059-3.68-3.201-6.305l16-49      c0.857-2.625,3.683-4.058,6.305-3.201c2.625,0.857,4.059,3.68,3.201,6.305l-16,49      C363.064,355.662,361.105,357.001,359.001,357.001z" fill="#3F456B"/></g></g><g><g><path d="M423,357.001c-0.548,0-1.105-0.091-1.651-0.282c-2.606-0.912-3.98-3.765-3.068-6.371l14-40      c0.913-2.606,3.769-3.98,6.371-3.067c2.606,0.912,3.98,3.765,3.068,6.371l-14,40C426.998,355.711,425.065,357.001,423,357.001z" fill="#3F456B"/></g></g></g><g><g><g><g><path d="M362.13,163.051c-2.762,0-5-2.239-5-5V93.773c0-2.761,2.238-5,5-5s5,2.239,5,5v64.278       C367.13,160.812,364.892,163.051,362.13,163.051z" fill="#3F456B"/></g></g><g><g><path d="M405.419,163.051c-2.762,0-5-2.239-5-5V93.773c0-2.761,2.238-5,5-5s5,2.239,5,5v64.278       C410.419,160.812,408.181,163.051,405.419,163.051z" fill="#3F456B"/></g></g><g><g><path d="M405.419,130.256H362.13c-2.762,0-5-2.239-5-5s2.238-5,5-5h43.289c2.762,0,5,2.239,5,5       S408.181,130.256,405.419,130.256z" fill="#3F456B"/></g></g></g><g><g><g><g><path d="M106.667,163.051c-2.761,0-5-2.239-5-5V95.421c0-2.761,2.239-5,5-5h40.38c2.761,0,5,2.239,5,5        s-2.239,5-5,5h-35.38v57.629C111.667,160.812,109.428,163.051,106.667,163.051z" fill="#3F456B"/></g></g><g><g><path d="M147.046,131.736h-40.38c-2.761,0-5-2.239-5-5s2.239-5,5-5h40.38c2.761,0,5,2.239,5,5        S149.808,131.736,147.046,131.736z" fill="#3F456B"/></g></g><g><g><path d="M168.472,163.051c-2.761,0-5-2.239-5-5V94.597c0-2.761,2.239-5,5-5s5,2.239,5,5v63.454        C173.472,160.812,171.233,163.051,168.472,163.051z" fill="#3F456B"/></g></g><g><g><path d="M272.306,163.051c-2.762,0-5-2.239-5-5V94.597c0-2.761,2.238-5,5-5s5,2.239,5,5v63.454        C277.306,160.812,275.067,163.051,272.306,163.051z" fill="#3F456B"/></g></g><g><g><path d="M196.491,163.051c-2.761,0-5-2.239-5-5V94.924c0-2.139,1.361-4.041,3.385-4.732        c2.022-0.692,4.264-0.018,5.572,1.675l39.664,51.343V93.773c0-2.761,2.238-5,5-5s5,2.239,5,5v64.088        c0,2.139-1.36,4.041-3.385,4.732c-2.025,0.691-4.264,0.018-5.572-1.675l-39.664-51.343v48.476        C201.491,160.812,199.252,163.051,196.491,163.051z" fill="#3F456B"/></g></g><g><g><path d="M318.53,163.159c-1.812,0-3.523-0.128-5.052-0.35c-11.544-1.673-19.552-7.258-22.55-15.727        c-0.922-2.603,0.441-5.46,3.044-6.382c2.604-0.921,5.461,0.442,6.382,3.044c2.292,6.473,10.104,8.522,14.558,9.167        c4.886,0.707,11.937,0.007,15.881-3.201c1.929-1.568,2.903-3.554,3.069-6.248c0.482-7.865-3.717-11.189-17.282-13.681        c-20.014-3.676-23.002-14.149-23.002-20.065c0-5.62,2.059-10.758,5.797-14.468c4.572-4.536,11.209-6.811,19.791-6.736        c18.484,0.144,23.511,14.294,23.716,14.897c0.89,2.614-0.509,5.455-3.123,6.344c-2.598,0.884-5.414-0.489-6.324-3.066        c-0.053-0.136-0.863-2.167-2.949-4.129c-2.815-2.647-6.649-4.009-11.397-4.045c-5.751-0.078-10.097,1.282-12.669,3.835        c-2.348,2.33-2.841,5.293-2.841,7.369c0,6.207,8.053,8.989,14.809,10.23c8.646,1.588,26.638,4.893,25.456,24.129        c-0.334,5.447-2.664,10.078-6.74,13.393C331.897,161.704,324.642,163.159,318.53,163.159z" fill="#3F456B"/></g></g></g></g></g></g><g id="Lines"><g><g><path d="M444,501H60c-2.761,0-5-2.239-5-5s2.239-5,5-5h384c2.762,0,5,2.239,5,5S446.762,501,444,501z" fill="#3F456B"/></g></g><g><g><path d="M40,405c-2.761,0-5-2.239-5-5V32c0-2.761,2.239-5,5-5s5,2.239,5,5v368C45,402.761,42.761,405,40,405z" fill="#3F456B"/></g></g><g><g><path d="M64,501H16c-2.761,0-5-2.239-5-5v-81.422C11,403.6,19.819,395,31.078,395h18.094     C60.291,395,69,403.6,69,414.578V496C69,498.761,66.761,501,64,501z M21,491h38v-76.422c0-5.46-4.225-9.578-9.828-9.578H31.078     C25.333,405,21,409.118,21,414.578V491z" fill="#3F456B"/></g></g><g><g><path d="M471,405c-2.762,0-5-2.239-5-5V288c0-2.761,2.238-5,5-5s5,2.239,5,5v112C476,402.761,473.762,405,471,405     z" fill="#3F456B"/></g></g><g><g><path d="M471,172c-2.762,0-5-2.239-5-5V32c0-2.761,2.238-5,5-5s5,2.239,5,5v135C476,169.761,473.762,172,471,172z     " fill="#3F456B"/></g></g><g><g><path d="M495,501h-48c-2.762,0-5-2.239-5-5v-81.422C442,403.6,450.819,395,462.078,395h18.094     C491.29,395,500,403.6,500,414.578V496C500,498.761,497.762,501,495,501z M452,491h38v-76.422c0-5.46-4.226-9.578-9.828-9.578     h-18.094c-5.745,0-10.078,4.118-10.078,9.578V491z" fill="#3F456B"/></g></g><g><g><path d="M433.004,72.001c-1.815,0-3.566-0.992-4.452-2.718c-1.261-2.457-0.291-5.47,2.165-6.731l38-19.5     c2.456-1.26,5.471-0.292,6.731,2.166c1.261,2.457,0.291,5.47-2.165,6.731l-38,19.5C434.553,71.823,433.772,72.001,433.004,72.001     z" fill="#3F456B"/></g></g><g><g><path d="M77.996,72.001c-0.769,0-1.548-0.178-2.279-0.553l-38-19.5c-2.457-1.261-3.426-4.274-2.166-6.731     c1.26-2.457,4.274-3.426,6.731-2.166l38,19.5c2.457,1.261,3.426,4.274,2.166,6.731C81.562,71.009,79.812,72.001,77.996,72.001z" fill="#3F456B"/></g></g><g><g><path d="M40.004,208.001c-1.834,0-3.6-1.013-4.476-2.765c-1.235-2.47-0.234-5.473,2.236-6.708l38-19     c2.468-1.235,5.473-0.234,6.708,2.236c1.235,2.47,0.234,5.473-2.236,6.708l-38,19C41.519,207.831,40.755,208.001,40.004,208.001z     " fill="#3F456B"/></g></g><g><g><path d="M471,357H40c-2.761,0-5-2.239-5-5v-49c0-2.761,2.239-5,5-5h382c2.762,0,5,2.239,5,5s-2.238,5-5,5H45v39     h426c2.762,0,5,2.239,5,5S473.762,357,471,357z" fill="#3F456B"/></g></g><g><g><path d="M392,188.597H77.824c-2.761,0-5-2.239-5-5V67.403c0-2.761,2.239-5,5-5H433c2.762,0,5,2.239,5,5V158     c0,2.761-2.238,5-5,5s-5-2.239-5-5V72.403H82.824v106.194H392c2.762,0,5,2.239,5,5S394.762,188.597,392,188.597z" fill="#3F456B"/></g></g><g><g><g><path d="M445.066,317.288c-0.241,0-0.474-0.009-0.695-0.027c-1.054-0.06-12.118-0.681-17.388-0.928      c-3.212-0.151-5.874-1.57-7.495-3.997c-3.148-4.713-1.124-11.474-0.53-13.187l0.811-2.817      c-28.661-9.353-47.9-39.19-46.353-73.051c1.848-40.383,33.198-71.866,69.947-70.192c17.886,0.818,34.321,9.269,46.277,23.797      c11.835,14.379,17.861,33.019,16.972,52.486c-1.545,33.796-23.613,61.818-53.275,68.671c0.216,0.896,0.48,1.958,0.804,3.214      c1.414,5.494,0.846,9.777-1.689,12.73C450.341,316.446,447.327,317.288,445.066,317.288z M445.23,307.298L445.23,307.298      L445.23,307.298z M427.764,306.358c5.314,0.253,15.697,0.835,17.094,0.914c0.071-0.479,0.105-1.554-0.4-3.522      c-0.89-3.453-1.965-7.892-2.043-9.432c-0.13-2.581,1.729-4.836,4.288-5.201c27.511-3.926,48.505-29.245,49.92-60.202      c0.777-16.99-4.444-33.21-14.702-45.674c-10.136-12.314-23.99-19.475-39.014-20.162c-0.785-0.036-1.567-0.054-2.346-0.054      c-30.194,0-55.6,26.715-57.154,60.714c-1.418,31.003,16.958,58.032,43.695,64.269c1.335,0.311,2.482,1.156,3.177,2.338      c0.693,1.182,0.871,2.596,0.492,3.913l-2.243,7.797c-0.03,0.105-0.063,0.21-0.101,0.313      C427.973,303.662,427.7,305.394,427.764,306.358z M452.386,293.597L452.386,293.597      C452.386,293.598,452.386,293.598,452.386,293.597z" fill="#3F456B"/></g></g></g><g><g><path d="M429.687,406.779L429.687,406.779c-0.804-2.646,0.7-5.44,3.339-6.235l0,0     c2.64-0.795,5.44,0.701,6.235,3.34l0,0c0.797,2.653-0.7,5.439-3.34,6.234l0,0c-1.534,0.46-3.117,0.153-4.326-0.699l0,0     C430.712,408.798,430.022,407.884,429.687,406.779z M426.582,385.608L426.582,385.608c0.01-2.758,2.257-4.991,5.022-4.976l0,0     c2.763,0.002,4.992,2.256,4.982,5.014l0,0l0,0l0,0c-0.016,2.766-2.264,4.986-5.022,4.976l0,0     c-1.063-0.003-2.053-0.333-2.862-0.903l0,0C427.41,388.809,426.575,387.304,426.582,385.608z M429.727,364.509     c0.768-2.652,3.553-4.176,6.208-3.395l0,0c2.646,0.776,4.162,3.556,3.386,6.202l0,0l0,0l0,0c-0.781,2.655-3.561,4.17-6.207,3.395     l0,0c-0.537-0.158-1.039-0.401-1.472-0.707l0,0C429.941,368.807,429.101,366.613,429.727,364.509z" fill="#384169"/></g></g><g><g><path d="M495,437h-48c-2.762,0-5-2.239-5-5s2.238-5,5-5h48c2.762,0,5,2.239,5,5S497.762,437,495,437z" fill="#3F456B"/></g></g><g><g><path d="M64,437H16c-2.761,0-5-2.239-5-5s2.239-5,5-5h48c2.761,0,5,2.239,5,5S66.761,437,64,437z" fill="#3F456B"/></g></g><g><g><path d="M471,308h-21c-2.762,0-5-2.239-5-5s2.238-5,5-5h21c2.762,0,5,2.239,5,5S473.762,308,471,308z" fill="#3F456B"/></g></g><g><g><g><path d="M456.1,273.834c-1.62,3.188-5.515,4.46-8.703,2.841c-3.187-1.619-4.458-5.517-2.838-8.703      c1.618-3.188,5.515-4.458,8.701-2.84C456.448,266.752,457.719,270.647,456.1,273.834z" fill="#3F456B"/></g></g><g><g><path d="M465.005,265c-1.675,0-3.311-0.84-4.256-2.369c-1.454-2.348-0.729-5.43,1.619-6.883      c17.799-11.018,12.796-35.456,12.743-35.701c-0.579-2.7,1.141-5.358,3.841-5.937c2.709-0.579,5.358,1.142,5.937,3.841      c0.069,0.32,1.667,7.949,0.444,17.319c-1.673,12.826-7.794,22.847-17.701,28.98C466.812,264.759,465.903,265,465.005,265z" fill="#3F456B"/></g></g></g></g></svg>