<?xml version="1.0" ?><svg id="Lines" viewBox="0 0 512 512" xmlns="http://www.w3.org/2000/svg"><defs><style>.cls-1{fill:#3f456b;}</style></defs><title/><path class="cls-1" d="M98,102H95a5,5,0,0,1,0-10h3a5,5,0,0,1,0,10Z"/><path class="cls-1" d="M402.52,330h-4.86a117.39,117.39,0,0,1-23.51-2.1c-23.49-4.81-40.22-15.74-49.73-32.48-10.69-18.83-10.7-44.19,0-69.59a5,5,0,0,1,.26-.52c.29-.53,29.63-54,2.22-105.15-14.34-26.77-15.95-52.57-4.54-72.65,11-19.37,33-31.22,60.37-32.53,2.09-.24,19.15-2.08,34.87,0,27.93,2,50.08,14.19,60.79,33.56,10.91,19.72,9.12,45.14-5.05,71.59-27.41,51.19,1.92,104.58,2.22,105.11a5,5,0,0,1,.26.52c10.66,25.36,10.65,50.69,0,69.49-9.58,16.88-26.31,27.87-49.73,32.66A117.32,117.32,0,0,1,402.52,330ZM333.51,230c-9.36,22.43-9.51,44.48-.4,60.53,8,14.12,22.51,23.42,43,27.62a105.56,105.56,0,0,0,21.51,1.9h4.86A105.56,105.56,0,0,0,424,318.1c20.46-4.19,34.94-13.54,43-27.8,9.1-16,8.95-38-.4-60.43a135.79,135.79,0,0,1-12.44-35.77c-5.74-28.22-2.19-55.44,10.27-78.7s14.32-45.39,5.11-62C460.55,37,441.27,26.62,416.72,24.94l-.31,0c-15.19-2-32.53,0-32.7,0a2.22,2.22,0,0,1-.37,0c-23.95,1.11-43,11.13-52.32,27.49-9.65,17-8,39.36,4.66,63,12.46,23.26,16,50.48,10.27,78.72A135.59,135.59,0,0,1,333.51,230Z"/><path class="cls-1" d="M400.13,297.5c-28.88,0-52.38-19.73-52.38-44s23.5-44,52.38-44,52.37,19.73,52.37,44S429,297.5,400.13,297.5Zm0-77.95c-23.37,0-42.38,15.24-42.38,34s19,34,42.38,34,42.37-15.24,42.37-34S423.49,219.55,400.13,219.55Z"/><path class="cls-1" d="M399.5,137c-27.13,0-45.9-16.55-55.79-49.2C340.46,77.05,341,67.71,345.29,60c5.67-10.08,16-13.54,18-14.13,1.65-.62,8.54-2.86,14.21.23,2.31,1.26,5.27,3.88,6.29,9.24l.19,1c1.89,10,2.76,14.62,15.4,14.62h1.24c12.64,0,13.51-4.58,15.4-14.62l.19-1c1-5.36,4-8,6.28-9.24,5.68-3.11,12.58-.87,14.21-.26,2,.58,12.34,4,18,14.15,4.3,7.66,4.83,17,1.57,27.75l-.06.19c-3,8.77-5.91,16-10.07,22.65a57.38,57.38,0,0,1-10.43,12.53A54.1,54.1,0,0,1,399.5,137ZM370.75,54.54a12.27,12.27,0,0,0-4,.75c-.21.08-.41.15-.62.21S358,57.78,354,65c-2.87,5.19-3.1,11.87-.67,19.87C361.87,113.23,377,127,399.5,127A43.48,43.48,0,0,0,429,115.71a47.39,47.39,0,0,0,8.64-10.38h0c3.65-5.85,6.27-12.44,9.07-20.54,2.39-8,2.16-14.61-.7-19.78-4-7.26-12.12-9.53-12.2-9.55a5.62,5.62,0,0,1-.58-.19c-1.55-.6-4.55-1.14-6-.35-.22.12-.9.5-1.25,2.33l-.18,1C423.93,68.38,421.55,81,400.62,81h-1.24c-20.93,0-23.32-12.62-25.23-22.77l-.19-1c-.35-1.83-1-2.21-1.25-2.33A4.26,4.26,0,0,0,370.75,54.54Z"/><path class="cls-1" d="M68.22,503.79c-4.95,0-9.31-1-12.89-3.24C51.53,498.16,47,493.16,47,483V399.21C47,389,51.53,384,55.34,381.58,69,373,94,382.85,119,394.8c1.77.85,3.27,1.56,4.42,2.08,16.73,7.56,35.49,7.09,49-1.23,4.45-3.13,27.25-17.65,66.94-17.65h1.3a142.11,142.11,0,0,1,49.2,8.38,91.81,91.81,0,0,1,19,9.24c13.53,8.37,31.61,8.83,48.39,1.25,1.19-.54,2.75-1.29,4.59-2.17,24.65-11.84,49.32-21.62,62.83-13.12C428.46,384,433,389,433,399.26v83.61c0,10.26-4.53,15.26-8.33,17.65-13.47,8.47-38.11-1.33-62.73-13.19-1.89-.9-3.49-1.67-4.7-2.22-17.07-7.72-35.23-7.4-48.57.86-2.87,1.88-27.16,17-68,17h-1.3a141.86,141.86,0,0,1-48.59-8.08,87,87,0,0,1-18.48-9c-13.2-8.15-31.92-8.46-48.87-.79-1.17.52-2.69,1.26-4.5,2.12C100.5,496.1,82.08,503.79,68.22,503.79Zm.06-115.51A14.28,14.28,0,0,0,60.67,390c-.91.57-3.67,2.31-3.67,9.17V483c0,6.84,2.75,8.57,3.66,9.14,10.82,6.82,42.14-8.18,53.93-13.83,1.89-.9,3.48-1.67,4.7-2.22,20.29-9.17,42.1-8.62,58.35,1.46l.24.16c2.3,1.57,23.54,15.34,61.47,15.34h1.3c38.15,0,60.15-13.82,62.53-15.39l.16-.1c16.19-10.05,37.88-10.62,58-1.51,1.27.57,2.94,1.37,4.91,2.32,11.61,5.59,42.43,20.42,53.08,13.74.9-.57,3.65-2.3,3.65-9.19V399.26c0-6.91-2.76-8.65-3.67-9.22-10.69-6.72-41.55,8.09-53.17,13.67-1.93.93-3.56,1.71-4.8,2.27-19.85,9-41.48,8.26-57.86-1.91l-.22-.14C300.87,402.3,278.64,388,240.65,388h-1.3c-37.74,0-58.94,14.23-61.23,15.86l-.31.21c-16.33,10.13-38.74,10.87-58.52,1.92-1.2-.54-2.76-1.28-4.61-2.17C105,399.2,82.17,388.28,68.28,388.28Z"/><path class="cls-1" d="M255,388a5,5,0,0,1-5-5V271a10,10,0,1,0-20,0V383a5,5,0,0,1-10,0V271a20,20,0,1,1,40,0V383A5,5,0,0,1,255,388Z"/><path class="cls-1" d="M227.48,202.58a5,5,0,0,1-1-9.91L235,191a4.08,4.08,0,0,1,.69-.09,17.09,17.09,0,0,0,5.86-1.68,7.76,7.76,0,0,0,4.59-7.49c0-1.22,0-4.94-5.52-8.17a34.78,34.78,0,0,0-13.5-4,5,5,0,0,1,1-10c20.65,2.12,28,12.79,28,22.08a17.73,17.73,0,0,1-10.37,16.56,27.22,27.22,0,0,1-9.13,2.57l-8.19,1.61A5.31,5.31,0,0,1,227.48,202.58Z"/><path class="cls-1" d="M239.29,259.12a5,5,0,0,1-5-5c0-2.16-.1-2.21-2.65-3.4-2.85-1.33-7.62-3.55-8.92-10.56a13,13,0,0,1,2.16-10.58c3.66-4.85,9.91-5.58,10.61-5.64l.2,0c1.72-.11,10.45-1.11,10.45-9.17,0-9.9-17.07-11.93-19-12.13a5,5,0,0,1,1-10c20.65,2.12,28,12.79,28,22.08,0,14.17-12.83,18.71-19.75,19.15a6,6,0,0,0-3.53,1.72c-.16.21-.65.88-.31,2.72s.88,2.18,3.31,3.32c3.15,1.47,8.43,3.92,8.43,12.46A5,5,0,0,1,239.29,259.12Z"/><path class="cls-1" d="M227.48,169.6a5,5,0,0,1-1-9.91L235,158a4.08,4.08,0,0,1,.69-.09,17,17,0,0,0,5.86-1.69,7.73,7.73,0,0,0,4.59-7.48c0-1.23,0-4.94-5.52-8.17a34.78,34.78,0,0,0-13.5-4,5,5,0,0,1,1-9.95c20.65,2.11,28,12.79,28,22.08a17.73,17.73,0,0,1-10.37,16.56,26.88,26.88,0,0,1-9.13,2.56l-8.19,1.61A4.57,4.57,0,0,1,227.48,169.6Z"/><path class="cls-1" d="M227.48,136.58a5,5,0,0,1-1-9.91L235,125a4.08,4.08,0,0,1,.69-.09,17.09,17.09,0,0,0,5.86-1.68,7.76,7.76,0,0,0,4.59-7.49c0-1.22,0-4.94-5.52-8.17a34.78,34.78,0,0,0-13.5-4,5,5,0,0,1,1-10c20.65,2.12,28,12.79,28,22.08a17.73,17.73,0,0,1-10.37,16.56,27.22,27.22,0,0,1-9.13,2.57l-8.19,1.61A5.31,5.31,0,0,1,227.48,136.58Z"/><path class="cls-1" d="M227.48,103.6a5,5,0,0,1-1-9.91L235,92a4.08,4.08,0,0,1,.69-.09c1.72-.12,10.45-1.11,10.45-9.17,0-3-.59-5.57-7.93-7.23-.87-.19-8.89-2.12-12.36-9-1.46-2.88-2.59-7.69.32-14.26a5,5,0,0,1,9.14,4c-1.05,2.38-1.24,4.28-.55,5.66,1.12,2.26,4.55,3.51,5.66,3.77,10.43,2.36,15.72,8.07,15.72,17a17.73,17.73,0,0,1-10.37,16.56,26.88,26.88,0,0,1-9.13,2.56l-8.19,1.61A4.57,4.57,0,0,1,227.48,103.6Z"/><path class="cls-1" d="M402,177h-3a5,5,0,0,1,0-10h3a5,5,0,0,1,0,10Z"/><path class="cls-1" d="M48,346c-8.84,0-15.75-2.63-20.53-7.81-6.74-7.3-6.56-17.1-6.47-18.84V125a5,5,0,0,1,10,0V319.5c0,.13,0,.27,0,.4s-.41,7,3.89,11.56c2.81,3,7.23,4.54,13.13,4.54s10.18-1.52,13-4.53c4.46-4.76,4-12,4-12.11s0-.25,0-.36V237.5c0-12,3.34-21.34,9.94-27.81A31.06,31.06,0,0,1,91,201.52v-75.9a5,5,0,0,1,10,0V206a5,5,0,0,1-5.1,5,21.8,21.8,0,0,0-14,5.91C77.31,221.43,75,228.36,75,237.5v81.35c.09,1.75.29,11.89-6.61,19.36C63.6,343.38,56.75,346,48,346Z"/><path class="cls-1" d="M26,75.67a5,5,0,0,1-5-5V40c0-10.35,3.66-16.22,6.73-19.33A18.93,18.93,0,0,1,41.09,15h44C93.86,15,101,21.73,101,30V70.38a5,5,0,0,1-10,0V30c0-2.76-2.65-5-5.91-5h-44C39.41,25,31,25.72,31,40V70.67A5,5,0,0,1,26,75.67Z"/><path class="cls-1" d="M144,346c-8.75,0-15.6-2.62-20.39-7.79-6.9-7.47-6.7-17.61-6.61-19.36V237.5c0-9.14-2.31-16.07-6.86-20.59A21.79,21.79,0,0,0,96.07,211h0a5,5,0,0,1-5-5V125.62a5,5,0,0,1,10,0v75.9a31.06,31.06,0,0,1,16.06,8.17c6.6,6.47,9.94,15.83,9.94,27.81V319a2.55,2.55,0,0,1,0,.39c0,.05-.43,7.32,4,12.08,2.81,3,7.18,4.53,13,4.53s10.18-1.52,13-4.53c4.46-4.76,4-12,4-12.11s0-.25,0-.36V195H144a15.82,15.82,0,0,1-11.68-4.8c-6.41-6.62-6.36-17.62-6.32-19.27V155.58c0-6.61,2.07-11.82,6.15-15.49,6.17-5.55,14.53-5.24,16.44-5.09H161v-9a5,5,0,0,1,10,0v14a5,5,0,0,1-5,5H148.36a4.53,4.53,0,0,1-.52,0s-5.67-.48-9,2.59c-1.88,1.72-2.8,4.34-2.8,8v15.49a2.18,2.18,0,0,1,0,.25c0,2.41.52,8.85,3.53,12A5.84,5.84,0,0,0,144,185h22a5,5,0,0,1,5,5V318.85c.09,1.75.29,11.89-6.61,19.36C159.6,343.38,152.75,346,144,346Z"/><path class="cls-1" d="M166,75.38a5,5,0,0,1-5-5V56.75c0-13.66-4.2-23-12.49-27.85C141.78,25,134.09,25,131.17,25h-24.3c-3.24,0-5.87,2.24-5.87,5V70.38a5,5,0,0,1-10,0V30c0-8.27,7.12-15,15.87-15h24.29c3.63,0,13.31,0,22.38,5.26C168,28.65,171,44.73,171,56.75V70.38A5,5,0,0,1,166,75.38Z"/><path class="cls-1" d="M181.09,130H10.91C2.29,130-5,122.22-5,113V82A15.78,15.78,0,0,1,10.91,66H181.09A15.78,15.78,0,0,1,197,82v31C197,122.22,189.71,130,181.09,130ZM10.91,76A5.76,5.76,0,0,0,5,82v31c0,3.72,2.76,7,5.91,7H181.09c3.15,0,5.91-3.27,5.91-7V82a5.76,5.76,0,0,0-5.91-6Z"/><path class="cls-1" d="M70,243H26a5,5,0,0,1,0-10H70a5,5,0,0,1,0,10Z"/><path class="cls-1" d="M166,243H122a5,5,0,0,1,0-10h44a5,5,0,0,1,0,10Z"/><path class="cls-1" d="M62,53H59a5,5,0,0,1,0-10h3a5,5,0,0,1,0,10Z"/></svg>