<?xml version="1.0" ?><svg viewBox="0 0 512 512" xmlns="http://www.w3.org/2000/svg"><defs><style>.cls-1{fill:#3f456b;}</style></defs><title/><g id="Lines"><path class="cls-1" d="M426.52,498H31.25c-6.75,0-10.53-2.7-12.51-5a15.88,15.88,0,0,1-3.52-11.54c.13-22.91,17-38.53,17.68-39.18A5,5,0,0,1,36.27,441H421.5a5,5,0,0,1,3.37,1.31c.72.65,17.55,16.27,17.68,39.18.15,1.62.31,7.17-3.51,11.54C437.05,495.3,433.27,498,426.52,498ZM25.17,482.41a6.16,6.16,0,0,0,1.12,4.07c.91,1,2.58,1.52,5,1.52H426.52c2.41,0,4.09-.52,5-1.55a6.32,6.32,0,0,0,1.09-4,5,5,0,0,1-.05-.67c0-15.32-9.59-27-13.13-30.75H38.36c-3.54,3.81-13.14,15.54-13.14,30.75a5,5,0,0,1,0,.67Zm-5-.66h0Z"/><path class="cls-1" d="M419.84,451h-.15a5,5,0,0,1-4.85-5.15c3.94-133.12-25.2-202.06-37.64-231.49-2-4.77-3.61-8.53-4.63-11.53-1.49-4.37-3.05-8.49-4.42-12.12-6.08-16.14-11.34-30.09,3.37-37.21,13.14-6.36,24.81,3.55,25.3,4l.18.16c15.93,15.17,38.36,44.57,54.75,98.51a365.4,365.4,0,0,1,12.84,58.3c.26,1.56,2.1,8.61,13,7.47,12.06-1.25,12.2-9.06,12.2-9.39,0-27.89-7.46-63-22.8-107.47C432,103.67,337,44.8,184.62,30.08c-30.9-3-105.62-9.52-144.12-6.94A27.68,27.68,0,0,0,38,36c36.89,15.78,56.42,47,56.54,90.45.09,32.91-10.88,60.88-11.35,62.05-45.8,116.33-41,256-40.89,257.35a5,5,0,0,1-10,.39c0-1.42-5-143.08,41.59-261.42.12-.28,10.8-27.58,10.65-58.6-.19-40.52-18-68.12-52.94-82.05a5,5,0,0,1-3-3.39c-.12-.46-2.89-11.59,4.3-24.77a5,5,0,0,1,4-2.59c38.36-3.17,116.77,3.66,148.7,6.74C255.92,26.92,315.23,43.35,361.86,69c56.28,30.92,94.84,75.6,114.6,132.82,15.71,45.5,23.35,81.72,23.35,110.74,0,5.93-4.42,17.6-21.16,19.34-21.25,2.21-23.95-15.89-24-16.07-.13-1.1-12.18-100.9-64.47-150.81-.75-.62-7.45-5.81-14.33-2.48-5.58,2.7-5.35,6.16,1.63,24.68,1.4,3.7,3,7.9,4.52,12.42.91,2.67,2.44,6.28,4.38,10.86,12.69,30,42.43,100.39,38.43,235.69A5,5,0,0,1,419.84,451Z"/><path class="cls-1" d="M486,435H421a5,5,0,0,1,0-10h65a5,5,0,0,0,5-5v-6a5,5,0,0,0-5-5H421a5,5,0,0,1,0-10h65a15,15,0,0,1,15,15v6A15,15,0,0,1,486,435Z"/><path class="cls-1" d="M258.7,380H199c-10.15,0-18.08-3.22-23.55-9.56-9.43-10.93-7.74-27.25-7.43-29.65,4.85-98.54,24.84-166.61,26.14-170.93a51.77,51.77,0,0,1,6.49-15.36c6.78-10.63,16.53-16.25,28.2-16.25s21.41,5.59,28.19,16.18a51.16,51.16,0,0,1,6.5,15.31c1.29,4.29,21.29,72.48,26.15,171.05.31,2.4,2,18.72-7.44,29.65C276.78,376.78,268.86,380,258.7,380ZM228.85,148.25c-19.84,0-24.9,23.64-24.95,23.88a4.05,4.05,0,0,1-.12.47c-.21.67-20.88,68.79-25.79,168.89a3.89,3.89,0,0,1,0,.49c0,.13-1.89,13.9,5.1,22C186.59,368,191.8,370,199,370h59.7c7.2,0,12.42-2,15.95-6.06,7-8.06,5.13-21.83,5.1-22s0-.32,0-.48c-4.91-100.11-25.58-168.34-25.79-169,0-.15-.08-.3-.11-.46C253.58,171,248.52,148.25,228.85,148.25Z"/><path class="cls-1" d="M367.81,179.1a5,5,0,0,1-4.66-3.19c-.82-2.09-19.5-51.68,12.89-93.21a5,5,0,0,1,7.89,6.15c-28.84,37-11.64,83-11.46,83.45a5,5,0,0,1-4.66,6.8Z"/></g><g id="Outline"><path class="cls-1" d="M241,268H217a5,5,0,0,1,0-10h24a5,5,0,0,1,0,10Z"/><path class="cls-1" d="M241,354H217a5,5,0,0,1,0-10h24a5,5,0,0,1,0,10Z"/><path class="cls-1" d="M237,325H221a5,5,0,0,1,0-10h16a5,5,0,0,1,0,10Z"/><path class="cls-1" d="M237,296H221a5,5,0,0,1,0-10h16a5,5,0,0,1,0,10Z"/><path class="cls-1" d="M241,181H217a5,5,0,0,1,0-10h24a5,5,0,0,1,0,10Z"/><path class="cls-1" d="M237,239H221a5,5,0,0,1,0-10h16a5,5,0,0,1,0,10Z"/><path class="cls-1" d="M237,210H221a5,5,0,0,1,0-10h16a5,5,0,0,1,0,10Z"/></g></svg>