<?xml version="1.0" ?><svg viewBox="0 0 512 512" xmlns="http://www.w3.org/2000/svg"><defs><style>.cls-1{fill:#3f466a;}</style></defs><title/><g id="Lines"><path class="cls-1" d="M256.52,317.18a29.75,29.75,0,1,1,29.75-29.75A29.78,29.78,0,0,1,256.52,317.18Zm0-49.5a19.75,19.75,0,1,0,19.75,19.75A19.77,19.77,0,0,0,256.52,267.68Z"/><path class="cls-1" d="M225.72,451.43a5,5,0,0,1-5-5V388.07c-.15-2.3-.88-19.33,9.74-30.87,6.29-6.84,15.13-10.31,26.26-10.31,11.45,0,20.54,3.49,27,10.37,10.4,11,10.05,26.82,10,28.75v59.42a5,5,0,1,1-10,0V385.89a2.71,2.71,0,0,1,0-.29c0-.12.59-13.21-7.3-21.53-4.52-4.77-11.15-7.18-19.71-7.18-8.2,0-14.54,2.37-18.87,7.05-8.19,8.85-7.16,23.4-7.15,23.55s0,.27,0,.4v58.54A5,5,0,0,1,225.72,451.43Z"/><path class="cls-1" d="M233.24,237.14a5,5,0,0,1-5-5v-40.4c-.13-1.88-.39-11,6-18.07,5-5.6,12.64-8.44,22.59-8.44,10.28,0,18.11,2.83,23.28,8.42a23.91,23.91,0,0,1,6.08,16.49v41.23a5,5,0,0,1-10,0V190c0-.13,0-.26,0-.39a13.82,13.82,0,0,0-3.51-9.28c-3.21-3.4-8.54-5.12-15.86-5.12-6.95,0-12,1.7-15.09,5.06-4.05,4.44-3.53,10.69-3.52,10.75s0,.35,0,.5v40.6A5,5,0,0,1,233.24,237.14Z"/><path class="cls-1" d="M337,187.33a5,5,0,0,1-2.58-.71L257,140.16l-77.43,46.46a5,5,0,0,1-6.93-1.83L163,167.69a5,5,0,0,1,1.78-6.75l89.67-53.8a5,5,0,0,1,5.15,0l89.67,53.8a5,5,0,0,1,1.78,6.75l-9.67,17.1a5,5,0,0,1-4.35,2.54Zm-80-58a5,5,0,0,1,2.57.71l75.6,45.36,4.74-8.39L257,117.26,174.1,167l4.74,8.39L254.44,130A5,5,0,0,1,257,129.33Z"/><path class="cls-1" d="M455.35,335.93a5,5,0,0,1-2.57-.71L319.33,255.49a5,5,0,1,1,5.13-8.59L453.51,324l4.75-8.39-138.93-83a5,5,0,1,1,5.13-8.58l143.12,85.53a5,5,0,0,1,1.79,6.75l-9.67,17.1a5,5,0,0,1-3.07,2.37A4.64,4.64,0,0,1,455.35,335.93Z"/><path class="cls-1" d="M58.69,335.93a4.64,4.64,0,0,1-1.28-.17,5,5,0,0,1-3.08-2.37l-9.67-17.1a5,5,0,0,1,1.79-6.75l142.73-85.3a5,5,0,1,1,5.13,8.59L55.77,315.62,60.52,324l129-77.06a5,5,0,0,1,5.13,8.59L61.25,335.22A5,5,0,0,1,58.69,335.93Z"/><path class="cls-1" d="M305,145.23a5,5,0,0,1-4.45-2.7L257,58.31l-43.56,84.22a5,5,0,0,1-8.89-4.6l48-92.8a5,5,0,0,1,8.89,0l48,92.8a5,5,0,0,1-4.44,7.3Z"/><path class="cls-1" d="M257,52.43a5,5,0,0,1-5-5v-32a5,5,0,0,1,10,0v32A5,5,0,0,1,257,52.43Z"/><path class="cls-1" d="M193,452.43a5,5,0,0,1-5-5V173.18a5,5,0,0,1,10,0V447.43A5,5,0,0,1,193,452.43Z"/><path class="cls-1" d="M321,452.43a5,5,0,0,1-5-5V173.18a5,5,0,0,1,10,0V447.43A5,5,0,0,1,321,452.43Z"/><path class="cls-1" d="M184.77,159.78a5.58,5.58,0,0,1-.7,0,5,5,0,0,1-4.26-5.65l8.25-59.35a5,5,0,0,1,5-4.31h39.17a5,5,0,0,1,0,10H197.37l-7.66,55A5,5,0,0,1,184.77,159.78Z"/><path class="cls-1" d="M330.18,159.78a5,5,0,0,1-4.94-4.31l-7.66-55H282.76a5,5,0,0,1,0-10h39.17a5,5,0,0,1,5,4.31l8.25,59.35a5,5,0,0,1-4.26,5.65A5.58,5.58,0,0,1,330.18,159.78Z"/><path class="cls-1" d="M81,500.48a5,5,0,0,1-5-5V318.64a5,5,0,0,1,10,0V495.48A5,5,0,0,1,81,500.48Z"/><path class="cls-1" d="M433,500.48a5,5,0,0,1-5-5v-177a5,5,0,0,1,10,0v177A5,5,0,0,1,433,500.48Z"/><path class="cls-1" d="M353,500.48a5,5,0,0,1-5-5V477.26H165.52v17.67a5,5,0,0,1-10,0V472.26a5,5,0,0,1,5-5H353a5,5,0,0,1,5,5v23.22A5,5,0,0,1,353,500.48Z"/><path class="cls-1" d="M337,475.65a5,5,0,0,1-5-5V452.43H181.52V470.1a5,5,0,0,1-10,0V447.43a5,5,0,0,1,5-5H337a5,5,0,0,1,5,5v23.22A5,5,0,0,1,337,475.65Z"/><path class="cls-1" d="M97,500.48a5,5,0,0,1-2.59-9.28l79.5-48.05a5,5,0,1,1,5.17,8.56L99.6,499.76A5,5,0,0,1,97,500.48Z"/><path class="cls-1" d="M97,452.48a5,5,0,0,1-2.59-9.28l79.5-48.05a5,5,0,1,1,5.17,8.56L99.6,451.76A5,5,0,0,1,97,452.48Z"/><path class="cls-1" d="M176.52,452.43a5,5,0,0,1-5-5v-48a5,5,0,0,1,10,0v48A5,5,0,0,1,176.52,452.43Z"/><path class="cls-1" d="M97,498.94a5,5,0,0,1-5-5V447.65a5,5,0,0,1,10,0v46.29A5,5,0,0,1,97,498.94Z"/><path class="cls-1" d="M116.89,487.68a5,5,0,0,1-5-5V436.4a5,5,0,0,1,10,0v46.28A5,5,0,0,1,116.89,487.68Z"/><path class="cls-1" d="M136.77,476.26a5,5,0,0,1-5-5V425a5,5,0,0,1,10,0v46.28A5,5,0,0,1,136.77,476.26Z"/><path class="cls-1" d="M157.35,464a5,5,0,0,1-5-5V412.75a5,5,0,1,1,10,0V459A5,5,0,0,1,157.35,464Z"/><path class="cls-1" d="M416.76,500.48a5,5,0,0,1-2.58-.72l-79.5-48.05a5,5,0,0,1,5.17-8.56l79.5,48.05a5,5,0,0,1-2.59,9.28Z"/><path class="cls-1" d="M416.76,452.48a5,5,0,0,1-2.58-.72l-79.5-48.05a5,5,0,0,1,5.17-8.56l79.5,48.05a5,5,0,0,1-2.59,9.28Z"/><path class="cls-1" d="M337.27,452.43a5,5,0,0,1-5-5v-48a5,5,0,0,1,10,0v48A5,5,0,0,1,337.27,452.43Z"/><path class="cls-1" d="M416.77,498.94a5,5,0,0,1-5-5V447.65a5,5,0,0,1,10,0v46.29A5,5,0,0,1,416.77,498.94Z"/><path class="cls-1" d="M396.89,487.68a5,5,0,0,1-5-5V436.4a5,5,0,0,1,10,0v46.28A5,5,0,0,1,396.89,487.68Z"/><path class="cls-1" d="M377,476.26a5,5,0,0,1-5-5V425a5,5,0,0,1,10,0v46.28A5,5,0,0,1,377,476.26Z"/><path class="cls-1" d="M356.43,464a5,5,0,0,1-5-5V412.75a5,5,0,0,1,10,0V459A5,5,0,0,1,356.43,464Z"/><path class="cls-1" d="M288.74,237.68H225a5,5,0,0,1,0-10h63.72a5,5,0,0,1,0,10Z"/><path class="cls-1" d="M353.38,387.11a5,5,0,0,1-5-5v-40.4c-.13-1.88-.39-10.95,6-18.06,5-5.6,12.63-8.44,22.59-8.44,10.28,0,18.11,2.83,23.28,8.41a23.83,23.83,0,0,1,6.07,16.49v41.24a5,5,0,0,1-10,0V340c0-.13,0-.25,0-.38a13.8,13.8,0,0,0-3.51-9.28c-3.21-3.4-8.55-5.12-15.86-5.12-7,0-12,1.7-15.09,5.05-4.05,4.44-3.53,10.7-3.52,10.76s0,.34,0,.49v40.6A5,5,0,0,1,353.38,387.11Z"/><path class="cls-1" d="M408.88,387.65H345.15a5,5,0,0,1,0-10h63.73a5,5,0,0,1,0,10Z"/><path class="cls-1" d="M113.13,387.11a5,5,0,0,1-5-5v-40.4c-.13-1.88-.39-10.95,6-18.06,5-5.6,12.63-8.44,22.59-8.44,10.28,0,18.11,2.83,23.28,8.41a23.83,23.83,0,0,1,6.07,16.49v41.24a5,5,0,0,1-10,0V340c0-.13,0-.25,0-.38a13.8,13.8,0,0,0-3.51-9.28c-3.21-3.4-8.55-5.12-15.86-5.12-7,0-12.1,1.72-15.15,5.12-4,4.46-3.48,10.59-3.47,10.65a4.84,4.84,0,0,1,0,.53v40.6A5,5,0,0,1,113.13,387.11Z"/><path class="cls-1" d="M168.63,387.65H104.9a5,5,0,1,1,0-10h63.73a5,5,0,0,1,0,10Z"/><path class="cls-1" d="M497,500.48H16.47a5,5,0,0,1-4.75-3.42c-2.37-7.14-2.46-22.66,14.2-30.34,10.9-5,18.9-4.09,24-2.12A32.3,32.3,0,0,1,53,458.8c4-5.94,11.92-13.47,27.31-15.63a5,5,0,1,1,1.39,9.9C60,456.13,58.06,472.06,58,472.73a5,5,0,0,1-3.45,4.38,4.85,4.85,0,0,1-5.2-1.45c-.59-.57-6.53-5.71-19.23.14-8.65,4-9.75,10.64-9.5,14.68H492.67c1.24-11.13-1-15.71-1.46-16.43,0-.05,0,0-.09-.15-10.44-14.16-28.4-6.85-29.16-6.53a5,5,0,0,1-4.76-.48,5,5,0,0,1-2.18-4.25c.15-5.89-1.3-10.13-4.3-12.6-4.81-4-13.26-3.19-16.11-2.56a5,5,0,0,1-2.21-9.76c.61-.14,15-3.31,24.63,4.56a21.7,21.7,0,0,1,7.57,13.92,43.07,43.07,0,0,1,8-1c11-.26,20.2,4.12,26.52,12.65,1.3,1.67,6.05,9.3,2.84,28.42A5,5,0,0,1,497,500.48Z"/><path class="cls-1" d="M256.72,451.43a5,5,0,0,1-5-5V351.89a5,5,0,1,1,10,0v94.54A5,5,0,0,1,256.72,451.43Z"/><path class="cls-1" d="M56.12,147.22H56A40.72,40.72,0,0,1,45.74,67.43c-.07-.81-.1-1.63-.1-2.45a31.86,31.86,0,0,1,51-25.45A55.23,55.23,0,0,1,199.73,74.72,37.3,37.3,0,0,1,220.26,91.3a5,5,0,0,1-8.63,5.06A27.27,27.27,0,0,0,193,83.29,5,5,0,0,1,189,77.12a45.23,45.23,0,0,0-86.08-27.38,5,5,0,0,1-8.54,1.4A21.85,21.85,0,0,0,55.64,65a21.45,21.45,0,0,0,.61,5.11,5,5,0,0,1-4,6.11,30.72,30.72,0,0,0,3.5,61,6.52,6.52,0,0,1,1.56-.2H184.77a5,5,0,0,1,0,10h-127A6.44,6.44,0,0,1,56.12,147.22Z"/><path class="cls-1" d="M503.58,435.63c-12.29,0-23.08-5.36-29.07-13.38-6,8-16.79,13.38-29.08,13.38a40.63,40.63,0,0,1-12.91-2.06,5,5,0,0,1,3.17-9.49,30.57,30.57,0,0,0,9.74,1.55c13.28,0,24.08-8.05,24.08-17.94a5,5,0,0,1,10,0c0,9.89,10.8,17.94,24.07,17.94,12.71,0,22.29-7.66,22.29-17.82a35.4,35.4,0,0,0-7.07-19c-8.66-11.38-38.3-49.33-44.86-57.73a40.13,40.13,0,0,1-13.89-2.58,5,5,0,0,1,3.56-9.35,30.23,30.23,0,0,0,10.83,1.94c.66,0,1.25,0,1.79-.06a5,5,0,0,1,5,3.1c5,6.42,36.55,46.79,45.56,58.62a44.92,44.92,0,0,1,9.11,25C535.87,423.67,522,435.63,503.58,435.63Z"/><path class="cls-1" d="M434.11,433.83a5.19,5.19,0,0,1-1.59-.26l-.76-.26a5,5,0,0,1,3.38-9.42l.55.19a5,5,0,0,1-1.58,9.75Z"/><path class="cls-1" d="M474.44,331.13a40.29,40.29,0,0,1-14.39-2.59,5,5,0,0,1,3.56-9.35,30.23,30.23,0,0,0,10.83,1.94c.66,0,1.25,0,1.79-.06,11.89-.68,20.48-8.15,20.48-17.77a35.32,35.32,0,0,0-7.07-19C481,273,451.5,235.21,444.84,226.69a38.24,38.24,0,0,1-4,.2c-11.33,0-21.31-4.86-27-12.19-5.69,7.33-15.67,12.19-27,12.19s-21.32-4.86-27-12.19c-5.68,7.33-15.66,12.19-27,12.19-1.17,0-2.33,0-3.47-.15-.78,1.07-1.91,2.58-3.52,4.64a5,5,0,1,1-7.88-6.16c2.21-2.83,3.44-4.52,4-5.36a5,5,0,0,1,5.71-3.43,27.58,27.58,0,0,0,5.13.46c12.13,0,22-7.31,22-16.29a5,5,0,1,1,10,0c0,9,9.87,16.29,22,16.29s22-7.31,22-16.29a5,5,0,1,1,10,0c0,9,9.87,16.29,22,16.29a27.61,27.61,0,0,0,5.51-.53,5,5,0,0,1,5.73,3.34c5.07,6.48,36.54,46.76,45.54,58.58a45,45,0,0,1,9.11,25c0,15.1-12.55,26.77-29.85,27.75C476.14,331.1,475.33,331.13,474.44,331.13Z"/><path class="cls-1" d="M440.82,226.89c-11.33,0-21.31-4.86-27-12.19-5.69,7.33-15.67,12.19-27,12.19s-21.32-4.86-27-12.19c-5.68,7.33-15.66,12.19-27,12.19a37.32,37.32,0,0,1-7-.64A33.8,33.8,0,0,1,321,225a5,5,0,1,1,3.27-9.45,25.29,25.29,0,0,0,3.45.91,27.76,27.76,0,0,0,5.14.46c12.13,0,22-7.31,22-16.29a5,5,0,1,1,10,0c0,9,9.87,16.29,22,16.29s22-7.31,22-16.29a5,5,0,1,1,10,0c0,9,9.87,16.29,22,16.29a27.61,27.61,0,0,0,5.51-.53c9-1.82,14.83-8,14.83-15.65a32.47,32.47,0,0,0-6.5-17.39c-9-11.82-57.89-73.06-58.38-73.67l-.07-.09s-3.68-4.62-8.55-4.62c-7.07,0-10,4.22-10,4.27a4.37,4.37,0,0,1-.31.44c-.22.28-22.58,28.27-39.77,50a5,5,0,0,1-7.84-6.21c16.49-20.82,37.71-47.4,39.66-49.83,2.25-3.34,8.42-8.65,18.24-8.65,9.5,0,15.74,7.59,16.45,8.48,2.21,2.77,49.46,62,58.51,73.84a42.14,42.14,0,0,1,8.54,23.45c0,12.45-9.18,22.68-22.85,25.45A37.82,37.82,0,0,1,440.82,226.89Z"/><path class="cls-1" d="M272.84,34h-32a5,5,0,0,1,0-10h32a5,5,0,0,1,0,10Z"/></g><g id="Outline"><path class="cls-1" d="M443.38,75.08l-.38,0a5,5,0,0,1-4.59-4.44c-1.85-17.58-20.73-16.3-22.87-16.1a5,5,0,0,1-1-10,40.8,40.8,0,0,1,15.33,1.81,26.13,26.13,0,0,1,14.72,11.4c5.54-6.31,15-11.74,29.65-10.43a5,5,0,0,1-.89,10c-20.32-1.82-24.7,12.4-25.13,14A5,5,0,0,1,443.38,75.08Z"/><path class="cls-1" d="M106.29,225.33a5,5,0,0,1-4.85-3.77c-3.61-14.62-20-10.79-20.75-10.62a5,5,0,0,1-2.37-9.71A36,36,0,0,1,92,200.94a23.45,23.45,0,0,1,13.84,7.59c4.21-6,11.75-11.46,24.24-12.07a5,5,0,0,1,.49,10c-17.1.84-19.11,13.08-19.28,14.47a5,5,0,0,1-4.67,4.4Z"/><path class="cls-1" d="M273,83.9H240.74a5,5,0,0,1,0-10H273a5,5,0,0,1,0,10Z"/><path class="cls-1" d="M281.2,103.76H232.55a5,5,0,0,1,0-10H281.2a5,5,0,0,1,0,10Z"/><path class="cls-1" d="M220.11,122.26H190.39a5,5,0,0,1,0-10h29.72a5,5,0,0,1,0,10Z"/><path class="cls-1" d="M324.44,122.26H294.72a5,5,0,0,1,0-10h29.72a5,5,0,0,1,0,10Z"/><path class="cls-1" d="M256.84,237.14a5,5,0,0,1-5-5V170.75a5,5,0,0,1,10,0v61.39A5,5,0,0,1,256.84,237.14Z"/><path class="cls-1" d="M280.5,206.44H233.24a5,5,0,0,1,0-10H280.5a5,5,0,0,1,0,10Z"/><path class="cls-1" d="M136.61,387.12a5,5,0,0,1-5-5V320.74a5,5,0,0,1,10,0v61.38A5,5,0,0,1,136.61,387.12Z"/><path class="cls-1" d="M160.27,356.43H113a5,5,0,1,1,0-10h47.25a5,5,0,1,1,0,10Z"/><path class="cls-1" d="M377.3,387.12a5,5,0,0,1-5-5V320.74a5,5,0,0,1,10,0v61.38A5,5,0,0,1,377.3,387.12Z"/><path class="cls-1" d="M401,356.43H353.71a5,5,0,0,1,0-10H401a5,5,0,0,1,0,10Z"/></g></svg>