<?xml version="1.0" ?><svg id="Lines" style="enable-background:new 0 0 512 512;" version="1.1" viewBox="0 0 512 512" xml:space="preserve" xmlns="http://www.w3.org/2000/svg" xmlns:xlink="http://www.w3.org/1999/xlink"><style type="text/css">
	.st0{fill:#3F456B;}
</style><title/><path class="st0" d="M256.9,468.4c-117.2,0-212.1-95-212.1-212.1c0-56.3,22.4-110.2,62.1-150c82.9-82.8,217.2-82.8,300,0  c39.8,39.8,62.1,93.7,62.1,150C469,373.2,373.8,468.4,256.9,468.4z M256.9,54.1c-111.5,0-202.1,90.7-202.1,202.1  s90.7,202.1,202.1,202.1S459,367.7,459,256.2S368.3,54.1,256.9,54.1z"/><path class="st0" d="M277.9,216.6c-36,0-65.2-29.2-65.2-65.2c0-36,29.2-65.2,65.2-65.2s65.2,29.2,65.2,65.2c0,0,0,0,0,0  c0,9-1.9,18-5.5,26.3c-1,2.6-3.9,3.9-6.4,2.9c-2.6-1-3.9-3.9-2.9-6.4c0.1-0.2,0.1-0.3,0.2-0.5c12.3-27.9-0.4-60.5-28.3-72.8  c-27.9-12.3-60.5,0.4-72.8,28.3c-12.3,27.9,0.4,60.5,28.3,72.8c7,3.1,14.6,4.7,22.2,4.7c2.8,0,5,2.2,5,5S280.7,216.7,277.9,216.6  L277.9,216.6z"/><path class="st0" d="M182,394.4c-27,0-48.8-21.8-48.9-48.8c0-27,21.8-48.8,48.8-48.9c21.4,0,40.3,13.9,46.7,34.3  c0.8,2.6-0.6,5.4-3.3,6.3c-2.6,0.8-5.4-0.6-6.3-3.3l0,0c-6.4-20.5-28.1-31.9-48.6-25.6s-31.9,28.1-25.6,48.6  c6.4,20.5,28.1,31.9,48.6,25.6c2.6-0.8,5.4,0.6,6.3,3.3s-0.6,5.4-3.3,6.3l0,0C191.8,393.7,186.9,394.4,182,394.4z"/><path class="st0" d="M278.3,437.8c-5.9,0.1-11.6-1.4-16.8-4.2c-6.2-3.5-10-9.1-10.6-15.1c-0.2-2.8,1.8-5.2,4.6-5.4  c2.8-0.2,5.2,1.8,5.4,4.5c0.3,3.8,3.6,6.2,5.6,7.4c4.4,2.3,9.5,3.3,14.4,2.8c10.3-0.9,18.5-7.1,17.9-13.5c-0.2-2.8,1.8-5.2,4.6-5.4  c2.8-0.2,5.2,1.8,5.4,4.5c1.1,12.2-10.7,22.9-26.9,24.4C280.7,437.7,279.5,437.8,278.3,437.8z"/><path class="st0" d="M86.8,309c-0.3,0-0.7,0-1-0.1c-6.5-1.3-14.5-7.1-15.9-19.1s5.8-20.3,9.5-22.5c2.4-1.4,5.5-0.6,6.9,1.8  c1.4,2.4,0.6,5.5-1.8,6.9l0,0c-3.5,3.2-5.2,8-4.7,12.7c1,8.8,7.3,10.3,8,10.4c2.7,0.5,4.5,3.2,3.9,5.9  C91.3,307.4,89.2,309.1,86.8,309L86.8,309z"/><path class="st0" d="M378.5,368c-1.8,0-3.6-0.1-5.3-0.5c-2.7-0.4-4.7-2.9-4.3-5.6s2.9-4.7,5.6-4.3c0.1,0,0.3,0,0.4,0.1  c1.6,0.3,3.3,0.4,4.9,0.3c11.9-0.7,21.1-10.9,20.4-22.9c-0.2-2.9-0.9-5.7-2.2-8.3c-1.2-2.5-0.2-5.5,2.3-6.7s5.5-0.2,6.7,2.3  c7.7,15.7,1.3,34.7-14.4,42.4c-3.8,1.9-7.9,3-12.1,3.2C379.8,368,379.1,368,378.5,368z"/><path class="st0" d="M377.9,284c-9.6,0-18.7-4.5-24.5-12.2c-5-6.6-7.2-15-6.1-23.2c2.2-17.2,17.8-29.5,34.8-27.3s28.9,18,26.7,35.2  l0,0c-1,8.3-5.3,15.8-11.8,20.9C391.5,281.6,384.8,284,377.9,284z M378.1,231c-10.7,0.2-19.7,8.2-20.9,18.9  c-0.8,5.7,0.8,11.4,4.2,15.9c6.8,9.1,19.7,11,28.8,4.2c0.2-0.1,0.4-0.3,0.5-0.4c4.5-3.5,7.4-8.7,8.1-14.4l0,0  c1.5-11.8-6.6-22.6-18.1-24C379.8,231.1,379,231,378.1,231L378.1,231z M403.7,255.8L403.7,255.8z"/><path class="st0" d="M145.6,251.2c-17.5,0-31.7-14.2-31.7-31.6c0-17.5,14.2-31.7,31.6-31.7c13.9,0,26.1,9,30.3,22.3  c0.8,2.6-0.6,5.4-3.3,6.3c-2.6,0.8-5.4-0.6-6.3-3.3c-3.5-11.4-15.7-17.8-27.1-14.3c-11.4,3.5-17.8,15.7-14.3,27.1  s15.7,17.8,27.1,14.3c0,0,0,0,0,0c2.6-0.8,5.4,0.6,6.3,3.3c0.8,2.6-0.6,5.4-3.3,6.3C152,250.7,148.8,251.2,145.6,251.2z"/><path class="st0" d="M325.2,195.2c-2.8,0-5-2.3-5-5c0-1,0.3-1.9,0.8-2.7l0.5-0.8c1.5-2.3,4.6-3,6.9-1.5c2.3,1.5,3,4.6,1.5,6.9  l-0.5,0.8C328.5,194.4,326.9,195.2,325.2,195.2z"/><g><path class="st0" d="M255,501.5c-65.6,0-127.2-25.5-173.6-71.9C35,383.2,9.5,321.6,9.5,256c0-65.6,25.5-127.2,71.9-173.6   C127.8,36,189.5,10.5,255,10.5S382.3,36,428.7,82.4s71.9,108,71.9,173.6c0,65.6-25.5,127.2-71.9,173.6S320.6,501.5,255,501.5z    M255,20.5c-62.9,0-122.1,24.5-166.5,69c-44.5,44.5-69,103.6-69,166.5s24.5,122.1,69,166.5s103.6,69,166.5,69   c62.9,0,122.1-24.5,166.6-69s69-103.6,69-166.5c0-62.9-24.5-122.1-69-166.5C377.1,45,318,20.5,255,20.5z"/></g></svg>