<?xml version="1.0" ?><svg enable-background="new 0 0 512 512" version="1.1" viewBox="0 0 512 512" xml:space="preserve" xmlns="http://www.w3.org/2000/svg" xmlns:xlink="http://www.w3.org/1999/xlink"><g id="Colors"/><g id="Lines"><g><g><path d="M128.25,170.198c-2.762,0-5-2.239-5-5s2.238-5,5-5c3.31,0,5.75-0.925,7.463-2.829     c3.51-3.901,3.584-11.302,3.316-13.825c-0.021-0.208-0.032-0.436-0.028-0.646c0.846-41.413-2.958-105.211-4.081-122.884     l-48.609,0.141c2.779,17.157,10.947,68.534,14.646,102.17c0.257,1.648,1.277,10.418-4.665,17.599     C91.308,145.947,83.135,149,72,149H40.402c-1.33,0.262-3.402,1.144-3.402,4v12c0,2.761-2.238,5-5,5s-5-2.239-5-5v-12     c0-9.819,8.098-13.426,12.38-13.961C39.586,139.013,39.793,139,40,139h32c7.957,0,13.517-1.809,16.525-5.377     c3.47-4.116,2.564-9.674,2.555-9.73c-0.017-0.1-0.039-0.247-0.05-0.347C86.596,83.149,75.608,16.656,75.498,15.989     c-0.24-1.446,0.168-2.925,1.114-4.045c0.947-1.12,2.338-1.768,3.804-1.772L139.589,10c0.005,0,0.01,0,0.015,0     c2.629,0,4.81,2.036,4.988,4.659c0.054,0.791,5.378,79.458,4.413,128.141c0.227,2.465,0.846,13.756-5.816,21.211     C139.571,168.059,134.405,170.198,128.25,170.198z" fill="#3F456B"/></g></g><g><g><path d="M72,170c-2.762,0-5-2.239-5-5v-12c0-9.819,8.098-13.426,12.38-13.961C79.586,139.013,79.793,139,80,139     h32c2.762,0,5,2.239,5,5s-2.238,5-5,5H80.402c-1.329,0.262-3.402,1.144-3.402,4v12C77,167.761,74.762,170,72,170z" fill="#3F456B"/></g></g><g><g><path d="M287,170c-2.762,0-5-2.239-5-5v-12c0-3.076-2.449-3.826-3.376-4H247c-2.762,0-5-2.239-5-5s2.238-5,5-5h32     c0.207,0,0.414,0.013,0.62,0.039C283.902,139.574,292,143.181,292,153v12C292,167.761,289.762,170,287,170z" fill="#3F456B"/></g></g><g><g><path d="M228.874,170.198c-6.155,0-11.321-2.139-14.938-6.187c-6.662-7.455-6.043-18.746-5.816-21.211     c-0.965-48.683,4.359-127.351,4.413-128.141c0.179-2.624,2.36-4.659,4.988-4.659c0.005,0,0.01,0,0.015,0l59.173,0.172     c1.466,0.004,2.856,0.652,3.804,1.772c0.946,1.12,1.354,2.599,1.114,4.045c-0.11,0.667-11.099,67.165-15.532,107.557     c-0.014,0.131-0.033,0.261-0.058,0.39c-0.002,0.013-0.907,5.571,2.562,9.687c3.009,3.568,8.568,5.377,16.525,5.377h32     c0.207,0,0.414,0.013,0.62,0.039c4.282,0.535,12.38,4.142,12.38,13.961v12c0,2.761-2.238,5-5,5s-5-2.239-5-5v-12     c0-2.828-2.031-3.721-3.422-4h-31.578c-11.135,0-19.308-3.053-24.291-9.076c-5.942-7.181-4.922-15.951-4.665-17.599     c3.698-33.637,11.866-85.013,14.646-102.17l-48.609-0.141c-1.123,17.673-4.927,81.471-4.081,122.884     c0.005,0.221-0.006,0.442-0.03,0.662c-0.266,2.507-0.191,9.908,3.318,13.809c1.713,1.904,4.153,2.829,7.463,2.829     c2.762,0,5,2.239,5,5S231.636,170.198,228.874,170.198z" fill="#3F456B"/></g></g><g><g><path d="M442.387,395.125c-3.183,0-7.008-0.587-10.712-2.624c-5.365-2.949-9.026-8.106-10.884-15.33     c-9.361-36.418-24.61-95.773-25.184-98.006c-12.738-44.327-87.126-41.639-87.87-41.609c-0.071,0.003-0.146,0.005-0.218,0.005     H53.166c-8.061,0-14.268-2.401-18.447-7.136c-5.696-6.452-5.323-14.708-5.136-16.708v-25.29c0-2.761,2.238-5,5-5s5,2.239,5,5     v25.552c0,0.208-0.013,0.415-0.039,0.62c-0.001,0.02-0.569,5.594,2.717,9.259c2.203,2.458,5.872,3.704,10.905,3.704h254.251     c1.854-0.072,21.212-0.684,42.515,4.497c29.962,7.289,49.088,22.65,55.31,44.425c0.013,0.043,0.024,0.086,0.035,0.129     c0,0,15.658,60.95,25.2,98.07c1.134,4.413,3.138,7.449,5.955,9.023c4.576,2.557,10.259,0.845,10.314,0.828l22.726-7.293     c2.632-0.845,5.445,0.604,6.289,3.233c0.844,2.629-0.604,5.445-3.232,6.289l-22.741,7.298     C449.252,394.233,446.308,395.125,442.387,395.125z" fill="#3F456B"/></g></g><g><g><path d="M467.53,383.61c-0.671-2.67,0.96-5.39,3.64-6.06l0,0c2.68-0.67,5.39,0.96,6.06,3.64l0,0     c0.67,2.68-0.96,5.39-3.64,6.06l0,0c-0.41,0.1-0.81,0.15-1.21,0.15l0,0C470.14,387.4,468.1,385.89,467.53,383.61z M462.68,364.21     c-0.67-2.68,0.96-5.39,3.64-6.06l0,0c2.671-0.67,5.391,0.96,6.061,3.63l0,0c0.67,2.68-0.96,5.4-3.64,6.07l0,0     c-0.41,0.1-0.82,0.15-1.221,0.15l0,0C465.28,368,463.24,366.48,462.68,364.21z M457.83,344.81c-0.67-2.68,0.96-5.39,3.64-6.06     l0,0c2.67-0.67,5.39,0.95,6.061,3.63l0,0c0.67,2.68-0.961,5.4-3.641,6.07l0,0c-0.41,0.1-0.82,0.15-1.22,0.15l0,0     C460.43,348.6,458.39,347.08,457.83,344.81z M452.979,325.4c-0.67-2.67,0.96-5.39,3.63-6.06l0,0c2.681-0.67,5.4,0.96,6.07,3.64     l0,0c0.67,2.68-0.96,5.39-3.64,6.06l0,0c-0.41,0.11-0.82,0.15-1.221,0.15l0,0C455.58,329.19,453.54,327.68,452.979,325.4z      M448.12,306c-0.67-2.68,0.96-5.39,3.64-6.06l0,0c2.68-0.67,5.4,0.96,6.07,3.64l0,0c0.67,2.68-0.96,5.39-3.641,6.06l0,0     c-0.409,0.1-0.819,0.15-1.22,0.15l0,0C450.729,309.79,448.689,308.27,448.12,306z M443.27,286.6c-0.66-2.68,0.96-5.39,3.641-6.06     l0,0c2.68-0.67,5.399,0.95,6.069,3.63l0,0c0.67,2.68-0.96,5.4-3.64,6.07l0,0c-0.41,0.1-0.82,0.15-1.22,0.15l0,0     C445.88,290.39,443.84,288.87,443.27,286.6z M438.25,267.63c-0.86-2.63,0.56-5.45,3.189-6.32l0,0c2.62-0.86,5.44,0.57,6.311,3.19     l0,0c0.859,2.62-0.57,5.45-3.19,6.31l0,0c-0.52,0.17-1.04,0.25-1.56,0.25l0,0C440.899,271.06,438.939,269.73,438.25,267.63z      M430.609,250.25L430.609,250.25L430.609,250.25c-1.359-2.4-0.52-5.45,1.891-6.81l0,0c2.399-1.36,5.45-0.51,6.81,1.89l0,0     c1.36,2.4,0.51,5.45-1.89,6.81l0,0c-0.78,0.44-1.62,0.65-2.46,0.65l0,0C433.22,252.79,431.53,251.88,430.609,250.25z      M419.63,234.86c-1.84-2.07-1.64-5.23,0.43-7.06l0,0c2.07-1.83,5.23-1.64,7.061,0.43v0.01c1.83,2.06,1.63,5.22-0.44,7.05l0,0     c-0.95,0.84-2.13,1.26-3.31,1.26l0,0C421.99,236.55,420.609,235.98,419.63,234.86z M405.689,221.97c-2.199-1.67-2.63-4.8-0.96-7     l0,0c1.681-2.2,4.811-2.63,7.011-0.96l0,0c2.199,1.67,2.63,4.81,0.96,7.01l0,0c-0.99,1.29-2.48,1.97-3.99,1.97l0,0     C407.66,222.99,406.6,222.66,405.689,221.97z M389.51,211.77c0,0,0,0,0,0.01l0,0c-2.45-1.28-3.4-4.31-2.12-6.75l0,0     c1.28-2.45,4.3-3.4,6.75-2.12l0,0c2.44,1.28,3.391,4.3,2.12,6.74l0,0c-0.9,1.71-2.64,2.69-4.44,2.69l0,0     C391.04,212.34,390.25,212.16,389.51,211.77z M371.81,204.08c-2.6-0.93-3.95-3.79-3.02-6.39l0,0c0.939-2.6,3.8-3.95,6.399-3.02     l0,0c2.601,0.93,3.95,3.79,3.021,6.39l0,0c-0.74,2.05-2.66,3.32-4.71,3.32l0,0C372.939,204.38,372.37,204.28,371.81,204.08z      M353.18,198.6c-2.689-0.63-4.36-3.32-3.729-6.01l0,0c0.63-2.69,3.319-4.35,6.01-3.72l0,0c2.689,0.63,4.359,3.32,3.729,6.01l0,0     c-0.54,2.3-2.6,3.86-4.87,3.86l0,0C353.95,198.74,353.56,198.69,353.18,198.6z M333.99,195.11c-2.74-0.37-4.66-2.88-4.301-5.62     l0,0c0.36-2.73,2.87-4.66,5.61-4.3l0,0c2.74,0.36,4.67,2.88,4.3,5.62l0,0c-0.33,2.51-2.479,4.34-4.95,4.34l0,0     C334.43,195.15,334.21,195.14,333.99,195.11z M314.55,193.48c-2.76-0.09-4.93-2.41-4.84-5.17l0,0c0.09-2.76,2.399-4.92,5.17-4.83     l0,0c2.76,0.09,4.92,2.4,4.83,5.16l0,0c-0.09,2.71-2.311,4.84-5,4.84l0,0C314.66,193.48,314.6,193.48,314.55,193.48z      M289.71,188.43c0-2.77,2.24-5,5-5l0,0c2.76,0,5,2.23,5,5l0,0c0,2.76-2.24,5-5,5l0,0C291.95,193.43,289.71,191.19,289.71,188.43z      M269.71,188.43c0-2.77,2.24-5,5-5l0,0c2.76,0,5,2.23,5,5l0,0c0,2.76-2.24,5-5,5l0,0C271.95,193.43,269.71,191.19,269.71,188.43z      M249.71,188.43c0-2.77,2.24-5,5-5l0,0c2.76,0,5,2.23,5,5l0,0c0,2.76-2.24,5-5,5l0,0C251.95,193.43,249.71,191.19,249.71,188.43z      M229.71,188.43c0-2.77,2.24-5,5-5l0,0c2.76,0,5,2.23,5,5l0,0c0,2.76-2.24,5-5,5l0,0C231.95,193.43,229.71,191.19,229.71,188.43z      M209.71,188.43c0-2.77,2.24-5,5-5l0,0c2.76,0,5,2.23,5,5l0,0c0,2.76-2.24,5-5,5l0,0C211.95,193.43,209.71,191.19,209.71,188.43z      M189.71,188.43c0-2.77,2.24-5,5-5l0,0c2.76,0,5,2.23,5,5l0,0c0,2.76-2.24,5-5,5l0,0C191.95,193.43,189.71,191.19,189.71,188.43z      M169.71,188.43c0-2.77,2.24-5,5-5l0,0c2.76,0,5,2.23,5,5l0,0c0,2.76-2.24,5-5,5l0,0C171.95,193.43,169.71,191.19,169.71,188.43z      M149.71,188.43c0-2.77,2.24-5,5-5l0,0c2.76,0,5,2.23,5,5l0,0c0,2.76-2.24,5-5,5l0,0C151.95,193.43,149.71,191.19,149.71,188.43z      M129.71,188.43c0-2.77,2.24-5,5-5l0,0c2.76,0,5,2.23,5,5l0,0c0,2.76-2.24,5-5,5l0,0C131.95,193.43,129.71,191.19,129.71,188.43z      M109.71,188.43c0-2.77,2.24-5,5-5l0,0c2.76,0,5,2.23,5,5l0,0c0,2.76-2.24,5-5,5l0,0C111.95,193.43,109.71,191.19,109.71,188.43z      M89.71,188.43c0-2.77,2.24-5,5-5l0,0c2.76,0,5,2.23,5,5l0,0c0,2.76-2.24,5-5,5l0,0C91.95,193.43,89.71,191.19,89.71,188.43z      M69.71,188.43c0-2.77,2.24-5,5-5l0,0c2.76,0,5,2.23,5,5l0,0c0,2.76-2.24,5-5,5l0,0C71.95,193.43,69.71,191.19,69.71,188.43z      M49.71,188.43c0-2.77,2.24-5,5-5l0,0c2.76,0,5,2.23,5,5l0,0c0,2.76-2.24,5-5,5l0,0C51.95,193.43,49.71,191.19,49.71,188.43z      M29.71,188.43c0-2.77,2.24-5,5-5l0,0c2.76,0,5,2.23,5,5l0,0c0,2.76-2.24,5-5,5l0,0C31.95,193.43,29.71,191.19,29.71,188.43z" fill="#3D4368"/></g></g><g><g><path d="M484.048,399.002c-7.632,0-14.257-5.176-16.109-12.587l-6.17-26.108     c-0.635-2.688,1.029-5.381,3.717-6.016c2.685-0.637,5.381,1.029,6.016,3.716l6.154,26.045c0.723,2.889,3.357,4.95,6.393,4.95     c0.539,0,1.083-0.067,1.617-0.201c3.534-0.884,5.693-4.482,4.809-8.021l-27.878-112.67     c-11.062-42.238-41.584-72.549-88.284-87.717c-33.493-10.877-63.517-10.3-66.831-10.198c-0.051,0.001-0.103,0.002-0.153,0.002     H27.614c-3.647,0-6.614,2.967-6.614,6.614s2.967,6.614,6.614,6.614h32.521c2.762,0,5,2.239,5,5s-2.238,5-5,5H27.614     c-9.161,0-16.614-7.453-16.614-16.614s7.453-16.614,16.614-16.614h279.639c3.856-0.114,35.297-0.634,70.148,10.685     c50.101,16.272,82.9,48.996,94.854,94.634l0.064,0.26l27.858,112.59c2.219,8.876-3.204,17.915-12.091,20.137     C486.759,398.835,485.401,399.002,484.048,399.002z" fill="#3F456B"/></g></g><g><g><path d="M142.328,68.877H88.062c-2.762,0-5-2.239-5-5s2.238-5,5-5h54.267c2.762,0,5,2.239,5,5     S145.09,68.877,142.328,68.877z" fill="#3F456B"/></g></g><g><g><path d="M143.5,116.5H94.653c-2.762,0-5-2.239-5-5s2.238-5,5-5H143.5c2.762,0,5,2.239,5,5     S146.262,116.5,143.5,116.5z" fill="#3F456B"/></g></g><g><g><path d="M224,372h-48c-2.762,0-5-2.239-5-5v-64c0-48.418-74.815-65.39-75.571-65.556     c-2.697-0.592-4.404-3.258-3.812-5.955c0.592-2.698,3.259-4.402,5.955-3.812c0.841,0.184,20.818,4.645,41.098,15.853     C166.362,258.835,181,279.4,181,303v59h38.039l0.461-59.039c0-23.561,14.638-44.125,42.331-59.432     c20.279-11.208,40.257-15.668,41.098-15.853c2.688-0.592,5.363,1.114,5.955,3.812c0.592,2.697-1.115,5.363-3.812,5.955     C304.318,237.61,229.5,254.664,229.5,303l-0.5,64.039C228.979,369.785,226.746,372,224,372z" fill="#3F456B"/></g></g><g><g><path d="M195.691,339.344c1.576,3.209,5.453,4.535,8.663,2.959c3.208-1.576,4.532-5.456,2.957-8.664     c-1.575-3.209-5.454-4.532-8.661-2.957C195.439,332.257,194.116,336.135,195.691,339.344z" fill="#3F456B"/></g></g><g><g><path d="M216,500h-31c-2.762,0-5-2.239-5-5V367c0-2.761,2.238-5,5-5s5,2.239,5,5v123h21V367c0-2.761,2.238-5,5-5     s5,2.239,5,5v128C221,497.761,218.762,500,216,500z" fill="#3F456B"/></g></g><g><g><path d="M175,356h-30c-2.762,0-5-2.239-5-5s2.238-5,5-5h30c2.762,0,5,2.239,5,5S177.762,356,175,356z" fill="#3F456B"/></g></g><g><g><path d="M144,372c-2.762,0-5-2.239-5-5v-32c0-2.761,2.238-5,5-5s5,2.239,5,5v32C149,369.761,146.762,372,144,372z     " fill="#3F456B"/></g></g><g><g><path d="M322.109,488.93c-2.75-0.26-4.77-2.7-4.52-5.45l0,0c0.26-2.75,2.7-4.77,5.45-4.51l0,0     c2.75,0.25,4.77,2.69,4.51,5.44l0,0c-0.24,2.6-2.42,4.54-4.97,4.54l0,0C322.42,488.95,322.26,488.94,322.109,488.93z      M324.09,469.02c-2.75-0.32-4.71-2.8-4.39-5.54l0,0c0.319-2.75,2.81-4.71,5.55-4.39l0,0c2.74,0.32,4.71,2.81,4.39,5.55l0,0     c-0.3,2.55-2.47,4.42-4.97,4.42l0,0C324.479,469.06,324.28,469.05,324.09,469.02z M326.53,449.17     c-2.73-0.38-4.641-2.91-4.25-5.65l0,0c0.38-2.73,2.909-4.63,5.649-4.25l0,0c2.73,0.39,4.64,2.92,4.25,5.65l0,0     c-0.35,2.5-2.49,4.3-4.939,4.3l0,0C327.01,449.22,326.77,449.21,326.53,449.17z M329.45,429.39c-2.73-0.45-4.57-3.03-4.12-5.75     l0,0c0.45-2.73,3.029-4.57,5.75-4.12l0,0c2.729,0.46,4.569,3.03,4.12,5.75l0,0c-0.41,2.45-2.53,4.19-4.931,4.19l0,0     C330,429.46,329.72,429.43,329.45,429.39z M332.84,409.68c-2.72-0.52-4.49-3.14-3.98-5.85l0,0c0.521-2.71,3.141-4.49,5.851-3.97     l0,0c2.71,0.51,4.49,3.13,3.979,5.84l0,0c-0.46,2.4-2.56,4.07-4.909,4.07l0,0C333.47,409.77,333.149,409.74,332.84,409.68z      M336.71,390.05c-2.7-0.58-4.42-3.24-3.83-5.94l0,0c0.58-2.7,3.24-4.41,5.939-3.83l0,0c2.7,0.59,4.41,3.25,3.83,5.95l0,0     c-0.51,2.34-2.58,3.94-4.88,3.94l0,0C337.42,390.17,337.06,390.13,336.71,390.05z M341.06,370.53     c-2.689-0.65-4.34-3.35-3.68-6.03l0,0c0.65-2.69,3.35-4.33,6.03-3.69l0,0c2.689,0.66,4.33,3.36,3.68,6.04l0,0     c-0.55,2.29-2.6,3.83-4.85,3.83l0,0C341.85,370.68,341.45,370.63,341.06,370.53z M345.89,351.13c-2.66-0.72-4.24-3.46-3.52-6.13     l0,0c0.71-2.67,3.46-4.25,6.12-3.53l0,0c2.67,0.72,4.25,3.47,3.529,6.13l0,0c-0.6,2.23-2.62,3.7-4.819,3.7l0,0     C346.77,351.3,346.33,351.24,345.89,351.13z M351.22,331.85c-2.65-0.79-4.15-3.57-3.37-6.22l0,0c0.79-2.65,3.57-4.15,6.22-3.37     l0,0c2.65,0.79,4.16,3.57,3.37,6.22l0,0l0,0l0,0c-0.649,2.17-2.64,3.58-4.79,3.58l0,0     C352.17,332.06,351.689,331.99,351.22,331.85z M357.04,312.72c-2.62-0.86-4.061-3.68-3.2-6.31l0,0c0.85-2.62,3.68-4.06,6.3-3.2     l0,0c2.63,0.85,4.061,3.67,3.21,6.3l0,0c-0.689,2.11-2.649,3.45-4.76,3.45l0,0C358.08,312.96,357.56,312.88,357.04,312.72z      M363.37,293.74c-2.601-0.93-3.96-3.79-3.04-6.39l0,0c0.93-2.6,3.79-3.96,6.39-3.03l0,0c2.6,0.92,3.96,3.78,3.04,6.39l0,0     c-0.729,2.04-2.66,3.32-4.71,3.32l0,0C364.49,294.03,363.92,293.94,363.37,293.74z M370.2,274.94c-2.58-0.99-3.86-3.89-2.86-6.47     l0,0c1-2.57,3.89-3.85,6.47-2.85l0,0c2.57,0.99,3.851,3.89,2.86,6.46l0,0c-0.771,1.99-2.66,3.2-4.67,3.2l0,0     C371.399,275.28,370.79,275.17,370.2,274.94z M377.55,256.34c-2.55-1.07-3.75-4-2.68-6.55l0,0c1.069-2.54,4-3.74,6.55-2.67l0,0     c2.54,1.07,3.74,4,2.67,6.54l0,0c-0.8,1.92-2.66,3.07-4.61,3.07l0,0C378.84,256.73,378.18,256.61,377.55,256.34z" fill="#3D4368"/></g></g><g><g><path d="M409.18,190.16c-2.399-1.37-3.25-4.42-1.88-6.82l0,0c1.36-2.4,4.41-3.24,6.81-1.88l0,0     c2.41,1.36,3.25,4.41,1.881,6.81l0,0c-0.921,1.63-2.61,2.54-4.351,2.54l0,0C410.81,190.81,409.96,190.6,409.18,190.16z      M419.22,172.86c-2.34-1.47-3.05-4.55-1.59-6.89l0,0c1.47-2.35,4.55-3.06,6.89-1.59l0,0c2.34,1.46,3.05,4.55,1.59,6.89l0,0     c-0.949,1.52-2.579,2.35-4.25,2.35l0,0C420.96,173.62,420.04,173.37,419.22,172.86z M429.979,155.99     c-2.199-1.67-2.63-4.8-0.97-7.01l0,0c1.67-2.2,4.8-2.63,7.01-0.97l0,0c2.2,1.67,2.63,4.8,0.971,7.01l0,0     c-0.98,1.3-2.48,1.98-4,1.98l0,0C431.939,157,430.89,156.67,429.979,155.99z" fill="#3D4368"/></g></g><g><g><g><path d="M460.72,138.797c-1.259,0-2.542-0.325-3.761-1.002c-1.78-0.989-2.938-2.46-3.559-3.251      c-2.681-3.41-5.008-6.955-7.259-10.384l-1.248-1.896c-0.314-0.476-0.636-1-0.956-1.524c-0.252-0.413-0.502-0.826-0.751-1.203      c-0.041-0.062-0.084-0.131-0.13-0.206c-1.087,0.003-2.187,0.026-3.32,0.05c-2.302,0.048-4.682,0.097-7.15-0.019      c-0.327-0.016-0.771-0.015-1.29-0.018c-4.807-0.02-13.753-0.056-15.351-6.941c-0.582-2.5,0.476-4.587,0.874-5.373      c2.212-4.362,5.078-8.112,7.851-11.74l1.058-1.388c1.139-1.5,2.157-2.821,3.047-3.953c-2.791-6.229-6.38-15.956-5.834-21.488      c0.377-3.822,2.292-5.742,3.832-6.679c2.703-1.646,5.561-1.092,6.844-0.701c4.849,1.005,14.405,5.356,19.629,7.839      c6.175-5.594,12.837-10.115,14.93-11.399c1.877-1.149,3.773-1.684,5.598-1.608c2.208,0.098,4.477,1.135,6.066,2.776      c0.499,0.514,0.938,1.114,1.303,1.778c0.771,1.419,1.164,3.075,1.173,4.932c0.01,2.459-0.332,10.505-1.84,18.696      c4.859,3.136,13.587,8.974,16.993,12.57c1.007,0.886,2.98,3.025,3.004,6.188c0.013,1.803-0.612,4.44-3.664,6.771      c-4.368,3.336-14.34,5.392-21.104,6.311c-1.955,6.537-4.622,12.664-8.109,18.641      C466.006,137.302,463.419,138.797,460.72,138.797z M461.909,129.114h0.01H461.909z M443.369,109.332      c0.826,0,1.662,0.011,2.51,0.039c0.803,0.027,1.587,0.247,2.287,0.641l0.077,0.043c1.676,0.934,2.524,2.529,3.145,3.693      c0.07,0.132,0.134,0.255,0.191,0.354c0.265,0.398,0.58,0.914,0.896,1.43c0.255,0.418,0.51,0.837,0.762,1.219l1.265,1.922      c1.936,2.949,3.779,5.756,5.809,8.454c2.914-5.42,5.092-11.009,6.635-17.009c0.525-2.042,2.275-3.535,4.374-3.733      c6.648-0.626,14.243-2.308,17.835-3.847c-3.537-3.108-11.884-8.678-16.922-11.833c-1.804-1.129-2.695-3.277-2.221-5.352      c1.662-7.275,2.172-15.176,2.28-18.588c-2.843,1.885-9.292,6.474-14.608,11.719c-1.517,1.495-3.811,1.867-5.72,0.926      c-5.334-2.625-14.461-6.793-18.966-8.167c0.58,3.863,3.146,11.207,6.111,17.193c0.878,1.772,0.629,3.896-0.636,5.417      c-0.785,0.944-2.251,2.768-4.779,6.099l-1.078,1.415c-2.02,2.642-3.952,5.171-5.555,7.818c1.58,0.152,3.448,0.16,4.276,0.163      c0.693,0.003,1.285,0.007,1.722,0.028c2.127,0.101,4.236,0.058,6.469,0.01C440.782,109.358,442.062,109.332,443.369,109.332z       M490.894,101.548L490.894,101.548L490.894,101.548L490.894,101.548z M430.5,70.577c0.007,0.002,0.015,0.005,0.022,0.009      C430.515,70.583,430.508,70.58,430.5,70.577z" fill="#384169"/></g></g></g><g><g><path d="M282.466,316.837c-1.279,0-2.56-0.488-3.535-1.464c-1.953-1.953-1.953-5.119,0-7.071l8.018-8.017     c1.951-1.952,5.119-1.952,7.07,0c1.953,1.953,1.953,5.119,0,7.071l-8.018,8.017C285.025,316.349,283.745,316.837,282.466,316.837     z" fill="#3F456B"/></g></g><g><g><path d="M255.104,344.18c-1.279,0-2.56-0.488-3.535-1.464c-1.953-1.953-1.953-5.118,0-7.071l8.017-8.017     c1.951-1.952,5.119-1.952,7.07,0c1.953,1.953,1.953,5.118,0,7.071l-8.017,8.017C257.663,343.691,256.383,344.18,255.104,344.18z" fill="#3F456B"/></g></g><g><g><path d="M290.473,344.19c-1.279,0-2.56-0.488-3.535-1.464l-8.017-8.017c-1.953-1.953-1.953-5.119,0-7.071     c1.951-1.952,5.119-1.952,7.07,0l8.017,8.017c1.953,1.953,1.953,5.119,0,7.071C293.032,343.702,291.752,344.19,290.473,344.19z" fill="#3F456B"/></g></g><g><g><path d="M263.13,316.827c-1.279,0-2.56-0.488-3.535-1.464l-8.017-8.017c-1.953-1.953-1.953-5.119,0-7.071     c1.951-1.952,5.119-1.952,7.07,0l8.017,8.017c1.953,1.953,1.953,5.119,0,7.071C265.689,316.339,264.409,316.827,263.13,316.827z" fill="#3F456B"/></g></g><g><g><path d="M58.466,426.837c-1.279,0-2.56-0.488-3.535-1.464c-1.953-1.953-1.953-5.119,0-7.071l8.018-8.017     c1.951-1.952,5.119-1.952,7.07,0c1.953,1.953,1.953,5.119,0,7.071l-8.018,8.017C61.025,426.349,59.745,426.837,58.466,426.837z" fill="#3F456B"/></g></g><g><g><path d="M31.104,454.18c-1.279,0-2.56-0.488-3.535-1.464c-1.953-1.953-1.953-5.118,0-7.071l8.017-8.017     c1.951-1.952,5.119-1.952,7.07,0c1.953,1.953,1.953,5.118,0,7.071l-8.017,8.017C33.663,453.691,32.383,454.18,31.104,454.18z" fill="#3F456B"/></g></g><g><g><path d="M66.473,454.19c-1.279,0-2.56-0.488-3.535-1.464l-8.017-8.017c-1.953-1.953-1.953-5.119,0-7.071     c1.951-1.952,5.119-1.952,7.07,0l8.017,8.017c1.953,1.953,1.953,5.119,0,7.071C69.032,453.702,67.752,454.19,66.473,454.19z" fill="#3F456B"/></g></g><g><g><path d="M39.13,426.827c-1.279,0-2.56-0.488-3.535-1.464l-8.017-8.017c-1.953-1.953-1.953-5.119,0-7.071     c1.951-1.952,5.119-1.952,7.07,0l8.017,8.017c1.953,1.953,1.953,5.119,0,7.071C41.689,426.339,40.409,426.827,39.13,426.827z" fill="#3F456B"/></g></g><g><g><g><path d="M352.853,102.883c-0.745,0-1.502-0.167-2.216-0.521c-2.474-1.226-3.486-4.225-2.261-6.7l6.01-12.133      c1.225-2.474,4.222-3.488,6.7-2.261c2.474,1.226,3.486,4.225,2.261,6.7l-6.01,12.133      C356.465,101.862,354.693,102.883,352.853,102.883z" fill="#3F456B"/></g></g></g><g><g><g><path d="M383.395,163.444c-0.743,0-1.498-0.166-2.209-0.518l-11.657-5.754c-2.477-1.222-3.493-4.22-2.271-6.697      c1.223-2.476,4.223-3.493,6.696-2.27l11.657,5.754c2.477,1.222,3.493,4.22,2.271,6.697      C387.011,162.421,385.237,163.444,383.395,163.444z" fill="#3F456B"/></g></g></g><g><g><g><path d="M375.776,136.828c-2.616,0-4.816-2.034-4.985-4.682c-0.175-2.756,1.916-5.132,4.672-5.308l13.34-0.85      c2.774-0.174,5.133,1.916,5.309,4.672c0.175,2.756-1.916,5.132-4.672,5.308l-13.34,0.85      C375.991,136.825,375.883,136.828,375.776,136.828z" fill="#3F456B"/></g></g></g><g><g><g><path d="M368.971,116.94c-1.617,0-3.204-0.783-4.167-2.23c-1.53-2.299-0.907-5.402,1.392-6.933l11.213-7.464      c2.299-1.531,5.403-0.907,6.933,1.392c1.53,2.299,0.907,5.402-1.392,6.933l-11.213,7.464      C370.885,116.669,369.922,116.94,368.971,116.94z" fill="#3F456B"/></g></g></g><g><g><g><path d="M353.521,101.739c-0.742,0-1.496-0.166-2.208-0.517c-2.477-1.221-3.494-4.219-2.272-6.696l5.404-10.958      c1.222-2.477,4.216-3.495,6.696-2.273c2.477,1.221,3.494,4.219,2.272,6.696l-5.404,10.958      C357.138,100.715,355.364,101.739,353.521,101.739z" fill="#3F456B"/></g></g></g><g><g><g><path d="M332.116,97.185c-2.616,0-4.816-2.034-4.985-4.682l-0.793-12.437c-0.176-2.756,1.916-5.132,4.672-5.308      c2.768-0.175,5.133,1.916,5.309,4.671l0.793,12.437c0.176,2.756-1.916,5.132-4.672,5.308      C332.331,97.181,332.223,97.185,332.116,97.185z" fill="#3F456B"/></g></g></g><g><g><g><path d="M312.004,104.464c-1.617,0-3.204-0.783-4.167-2.23l-7.171-10.774c-1.53-2.299-0.907-5.403,1.392-6.933      c2.3-1.531,5.403-0.906,6.933,1.392l7.171,10.774c1.53,2.299,0.907,5.403-1.392,6.933      C313.918,104.193,312.955,104.464,312.004,104.464z" fill="#3F456B"/></g></g></g><g><g><g><path d="M298.218,120.399c-0.743,0-1.498-0.166-2.209-0.518l-11.657-5.754c-2.477-1.222-3.493-4.22-2.271-6.697      c1.223-2.476,4.223-3.493,6.696-2.27l11.657,5.754c2.477,1.222,3.493,4.22,2.271,6.697      C301.834,119.376,300.061,120.399,298.218,120.399z" fill="#3F456B"/></g></g></g><g><g><g><path d="M58.737,341.284c-0.501,0-1.02-0.051-1.559-0.16c-2.517-0.508-3.977-2.336-4.526-3.024      c-3.053-3.824-5.278-7.99-7.43-12.019L44.43,324.6c-0.984-1.825-1.758-3.293-2.36-4.462c-6.825-0.042-17.163-0.81-21.973-3.603      c-3.321-1.928-4.274-4.466-4.489-6.256c-0.377-3.141,1.312-5.512,2.199-6.518c2.927-3.996,10.849-10.888,15.274-14.611      c-2.53-7.94-3.881-15.876-4.181-18.312c-0.269-2.179,0.02-4.118,0.857-5.759c1.006-1.97,2.889-3.602,5.037-4.368      c0.688-0.245,1.418-0.396,2.173-0.45c1.607-0.113,3.272,0.215,4.967,0.979c2.236,1.009,9.413,4.653,16.246,9.427      c4.869-3.122,13.801-8.642,18.486-10.25c1.224-0.548,3.987-1.459,6.878-0.167c1.646,0.736,3.786,2.399,4.642,6.144      c1.225,5.359-1.041,15.284-3.01,21.819c5.139,4.49,9.608,9.459,13.6,15.11c2.667,3.774,2.044,8.406-1.483,11.011      c-1.64,1.209-3.457,1.652-4.434,1.89c-4.212,1.025-8.398,1.672-12.447,2.298l-2.255,0.351c-0.563,0.088-1.168,0.163-1.772,0.236      c-0.483,0.058-0.968,0.115-1.416,0.186c-0.074,0.012-0.155,0.022-0.243,0.033c-0.447,0.992-0.883,2.001-1.332,3.044      c-0.91,2.114-1.852,4.299-2.98,6.496c-0.15,0.292-0.334,0.695-0.551,1.167C68.007,334.059,64.678,341.284,58.737,341.284z       M45.137,310.102c1.915,0,3.667,1.096,4.503,2.829c0.543,1.125,1.606,3.24,3.592,6.923l0.812,1.516      c1.568,2.936,3.068,5.746,4.814,8.304c0.794-1.375,1.576-3.073,1.922-3.825c0.291-0.63,0.54-1.166,0.739-1.554      c0.974-1.893,1.808-3.83,2.691-5.88c0.811-1.881,1.648-3.827,2.621-5.787c0.353-0.709,0.868-1.325,1.505-1.795l0.071-0.053      c1.574-1.158,3.375-1.269,4.689-1.349c0.149-0.009,0.289-0.016,0.402-0.027c0.479-0.077,1.083-0.151,1.688-0.224      c0.483-0.058,0.968-0.115,1.416-0.186l2.281-0.355c3.481-0.538,6.797-1.051,10.089-1.779c-3.724-4.9-7.905-9.198-12.726-13.091      c-1.641-1.325-2.274-3.536-1.583-5.529c2.188-6.309,3.808-13.917,3.896-17.824c-4.296,1.93-12.825,7.215-17.785,10.491      c-1.775,1.174-4.1,1.094-5.791-0.198c-5.937-4.534-12.91-8.272-15.968-9.784c0.537,3.372,2.037,11.141,4.604,18.152      c0.731,1.999,0.118,4.241-1.529,5.589c-4.6,3.764-12.178,10.341-15.296,13.871c3.757,1.075,11.501,1.785,18.179,1.569      C45.027,310.103,45.082,310.102,45.137,310.102z M25.167,310.519c-0.005,0.005-0.01,0.009-0.014,0.014      C25.157,310.529,25.162,310.524,25.167,310.519z" fill="#384169"/></g></g></g><g><g><path d="M137.6,489.03c-0.479-2.72,1.34-5.31,4.061-5.79l0,0c2.72-0.48,5.31,1.34,5.79,4.06l0,0l0,0l0,0     c0.47,2.72-1.341,5.31-4.061,5.79l0,0c-0.3,0.05-0.59,0.07-0.88,0.07l0,0C140.13,493.16,138.02,491.46,137.6,489.03z      M133.72,469.65c-0.6-2.7,1.09-5.37,3.79-5.98l0,0c2.69-0.6,5.36,1.09,5.97,3.79l0,0l0,0l0,0c0.601,2.69-1.09,5.37-3.779,5.97     l0,0c-0.37,0.08-0.74,0.12-1.101,0.12l0,0C136.31,473.55,134.24,471.97,133.72,469.65z M128.939,450.47     c-0.729-2.66,0.83-5.41,3.5-6.15l0,0c2.66-0.73,5.41,0.84,6.141,3.5l0,0c0.729,2.66-0.83,5.42-3.49,6.15l0,0     c-0.45,0.12-0.89,0.18-1.33,0.18l0,0C131.56,454.15,129.55,452.69,128.939,450.47z M123.26,431.54c-0.86-2.63,0.57-5.45,3.2-6.31     l0,0c2.62-0.85,5.439,0.58,6.3,3.21l0,0l0,0l0,0c0.86,2.62-0.57,5.44-3.2,6.3l0,0c-0.51,0.17-1.04,0.25-1.55,0.25l0,0     C125.899,434.99,123.939,433.65,123.26,431.54z M116.67,412.91c-0.98-2.58,0.32-5.47,2.899-6.46l0,0     c2.58-0.98,5.471,0.32,6.45,2.9l0,0l0,0l0,0c0.98,2.58-0.31,5.47-2.89,6.45l0,0c-0.59,0.22-1.19,0.33-1.78,0.33l0,0     C119.33,416.13,117.43,414.9,116.67,412.91z M109.189,394.62L109.189,394.62c-1.109-2.53,0.04-5.48,2.57-6.59l0,0     c2.53-1.11,5.48,0.04,6.59,2.57l0,0c1.11,2.53-0.04,5.48-2.569,6.59l0,0c-0.65,0.29-1.341,0.42-2.011,0.42l0,0     C111.85,397.61,110.02,396.5,109.189,394.62z M100.79,376.75c-1.24-2.46-0.25-5.47,2.22-6.71l0,0c2.47-1.24,5.47-0.25,6.72,2.22     l0,0c1.24,2.47,0.24,5.47-2.22,6.71l0,0c-0.729,0.36-1.49,0.54-2.25,0.54l0,0C103.43,379.51,101.67,378.5,100.79,376.75z      M91.43,359.41c-1.39-2.39-0.58-5.45,1.811-6.84l0,0c2.39-1.38,5.449-0.57,6.84,1.82l0,0c1.38,2.39,0.569,5.45-1.82,6.83l0,0     c-0.79,0.46-1.65,0.68-2.5,0.68l0,0C94.03,361.9,92.359,361.01,91.43,359.41z M80.979,342.98h0.011     c-1.65-2.22-1.19-5.35,1.029-6.99l0,0c2.221-1.65,5.351-1.19,7,1.03l0,0c1.641,2.22,1.181,5.35-1.04,7l0,0     C87.08,344.68,86.04,345,85,345l0,0C83.47,345,81.96,344.3,80.979,342.98z" fill="#3D4368"/></g></g><g><g><path d="M267,491c0-2.76,2.24-5,5-5l0,0c2.76,0,5,2.24,5,5l0,0c0,2.76-2.24,5-5,5l0,0     C269.24,496,267,493.76,267,491z M267,471c0-2.76,2.24-5,5-5l0,0c2.76,0,5,2.24,5,5l0,0c0,2.76-2.24,5-5,5l0,0     C269.24,476,267,473.76,267,471z M267,451c0-2.76,2.24-5,5-5l0,0c2.76,0,5,2.24,5,5l0,0c0,2.76-2.24,5-5,5l0,0     C269.24,456,267,453.76,267,451z M267,431c0-2.76,2.24-5,5-5l0,0c2.76,0,5,2.24,5,5l0,0c0,2.76-2.24,5-5,5l0,0     C269.24,436,267,433.76,267,431z M267,411c0-2.76,2.24-5,5-5l0,0c2.76,0,5,2.24,5,5l0,0c0,2.76-2.24,5-5,5l0,0     C269.24,416,267,413.76,267,411z M267,391c0-2.76,2.24-5,5-5l0,0c2.76,0,5,2.24,5,5l0,0c0,2.76-2.24,5-5,5l0,0     C269.24,396,267,393.76,267,391z M267,371c0-2.76,2.24-5,5-5l0,0c2.76,0,5,2.24,5,5l0,0c0,2.76-2.24,5-5,5l0,0     C269.24,376,267,373.76,267,371z M267,351c0-2.76,2.24-5,5-5l0,0c2.76,0,5,2.24,5,5l0,0c0,2.76-2.24,5-5,5l0,0     C269.24,356,267,353.76,267,351z" fill="#3D4368"/></g></g></g></svg>