<?xml version="1.0" ?><svg viewBox="0 0 512 512" xmlns="http://www.w3.org/2000/svg"><defs><style>.cls-1{fill:#3f456b;}</style></defs><title/><g id="Lines"><path class="cls-1" d="M428.89,501H412.11A46.23,46.23,0,0,1,366,454.76V393.24A46.23,46.23,0,0,1,412.11,347h16.78A46.23,46.23,0,0,1,475,393.24v61.52A46.23,46.23,0,0,1,428.89,501ZM412.11,357A36.22,36.22,0,0,0,376,393.24v61.52A36.22,36.22,0,0,0,412.11,491h16.78A36.22,36.22,0,0,0,465,454.76V393.24A36.22,36.22,0,0,0,428.89,357Z"/><path class="cls-1" d="M470,412H372a5,5,0,0,1,0-10h98a5,5,0,0,1,0,10Z"/><path class="cls-1" d="M421,412a5,5,0,0,1-5-5V352a5,5,0,0,1,10,0v55A5,5,0,0,1,421,412Z"/><path class="cls-1" d="M315,501H51a17,17,0,0,1-17-17V364a17,17,0,0,1,17-17H315a17,17,0,0,1,17,17V484A17,17,0,0,1,315,501ZM51,357a7,7,0,0,0-7,7V484a7,7,0,0,0,7,7H315a7,7,0,0,0,7-7V364a7,7,0,0,0-7-7Z"/><path class="cls-1" d="M440.05,289H71A28,28,0,0,1,43,261.05V39A28,28,0,0,1,71,11h369.1A28,28,0,0,1,468,39v222.1A28,28,0,0,1,440.05,289ZM71,21A18,18,0,0,0,53,39v222.1A18,18,0,0,0,71,279h369.1A18,18,0,0,0,458,261.05V39a18,18,0,0,0-17.95-18Z"/><path class="cls-1" d="M462,241H48a5,5,0,0,1,0-10H462a5,5,0,0,1,0,10Z"/><path class="cls-1" d="M351,331H158a5,5,0,0,1,0-10H351a5,5,0,0,1,0,10Z"/><path class="cls-1" d="M287,331a5,5,0,0,1-5-5V284a5,5,0,0,1,10,0v42A5,5,0,0,1,287,331Z"/><path class="cls-1" d="M225,331a5,5,0,0,1-5-5V284a5,5,0,0,1,10,0v42A5,5,0,0,1,225,331Z"/></g><g id="Outline"><path class="cls-1" d="M295.83,457h-1a5,5,0,1,1,0-10h1a5,5,0,0,1,0,10Z"/><path class="cls-1" d="M294.17,397h-1a5,5,0,0,1,0-10h1a5,5,0,1,1,0,10Z"/><path class="cls-1" d="M279.25,427h-1a5,5,0,0,1,0-10h1a5,5,0,0,1,0,10Z"/><path class="cls-1" d="M263.25,457h-1a5,5,0,0,1,0-10h1a5,5,0,0,1,0,10Z"/><path class="cls-1" d="M263.25,397h-1a5,5,0,0,1,0-10h1a5,5,0,0,1,0,10Z"/><path class="cls-1" d="M248.33,427h-1a5,5,0,0,1,0-10h1a5,5,0,1,1,0,10Z"/><path class="cls-1" d="M232.33,397h-1a5,5,0,0,1,0-10h1a5,5,0,1,1,0,10Z"/><path class="cls-1" d="M217.42,427h-1a5,5,0,1,1,0-10h1a5,5,0,0,1,0,10Z"/><path class="cls-1" d="M201.42,397h-1a5,5,0,1,1,0-10h1a5,5,0,0,1,0,10Z"/><path class="cls-1" d="M186.5,427h-1a5,5,0,0,1,0-10h1a5,5,0,0,1,0,10Z"/><path class="cls-1" d="M170.5,397h-1a5,5,0,0,1,0-10h1a5,5,0,0,1,0,10Z"/><path class="cls-1" d="M155.58,427h-1a5,5,0,0,1,0-10h1a5,5,0,1,1,0,10Z"/><path class="cls-1" d="M139.58,397h-1a5,5,0,0,1,0-10h1a5,5,0,1,1,0,10Z"/><path class="cls-1" d="M124.67,427h-1a5,5,0,1,1,0-10h1a5,5,0,0,1,0,10Z"/><path class="cls-1" d="M108.67,397h-1a5,5,0,0,1,0-10h1a5,5,0,1,1,0,10Z"/><path class="cls-1" d="M93.75,427h-1a5,5,0,0,1,0-10h1a5,5,0,0,1,0,10Z"/><path class="cls-1" d="M77.75,457h-1a5,5,0,0,1,0-10h1a5,5,0,0,1,0,10Z"/><path class="cls-1" d="M77.75,397h-1a5,5,0,0,1,0-10h1a5,5,0,0,1,0,10Z"/><path class="cls-1" d="M232,457H108a5,5,0,0,1,0-10H232a5,5,0,0,1,0,10Z"/></g></svg>