<?xml version="1.0" encoding="iso-8859-1"?>
<!-- Generator: Adobe Illustrator 19.0.0, SVG Export Plug-In . SVG Version: 6.00 Build 0)  -->
<svg version="1.1" id="Capa_1" xmlns="http://www.w3.org/2000/svg" xmlns:xlink="http://www.w3.org/1999/xlink" x="0px" y="0px"
	 viewBox="0 0 512 512" style="enable-background:new 0 0 512 512;" xml:space="preserve">
<g>
	<g>
		<path d="M416,42.667h-55.296c-4.416-12.395-16.149-21.333-30.037-21.333h-37.845C285.291,8.32,271.317,0,256,0
			s-29.291,8.32-36.821,21.333h-37.845c-13.888,0-25.621,8.939-30.037,21.333H96c-17.643,0-32,14.357-32,32V480
			c0,17.643,14.357,32,32,32h320c17.643,0,32-14.357,32-32V74.667C448,57.024,433.643,42.667,416,42.667z M170.667,53.333
			c0-5.888,4.779-10.667,10.667-10.667h44.629c4.501,0,8.533-2.859,10.048-7.104c3.029-8.512,11.072-14.229,19.989-14.229
			s16.96,5.717,19.989,14.229c1.515,4.267,5.547,7.104,10.048,7.104h44.629c5.888,0,10.667,4.779,10.667,10.667V64H170.667V53.333z
			 M426.667,480c0,5.888-4.779,10.667-10.667,10.667H96c-5.888,0-10.667-4.779-10.667-10.667V74.667C85.333,68.779,90.112,64,96,64
			h53.333v10.667c0,5.888,4.779,10.667,10.667,10.667h192c5.888,0,10.667-4.779,10.667-10.667V64H416
			c5.888,0,10.667,4.779,10.667,10.667V480z"/>
	</g>
</g>
<g>
	<g>
		<path d="M394.667,234.667h-192c-5.888,0-10.667,4.779-10.667,10.667S196.779,256,202.667,256h192
			c5.888,0,10.667-4.779,10.667-10.667S400.555,234.667,394.667,234.667z"/>
	</g>
</g>
<g>
	<g>
		<path d="M394.667,149.333h-192c-5.888,0-10.667,4.779-10.667,10.667s4.779,10.667,10.667,10.667h192
			c5.888,0,10.667-4.779,10.667-10.667S400.555,149.333,394.667,149.333z"/>
	</g>
</g>
<g>
	<g>
		<path d="M394.667,320h-192c-5.888,0-10.667,4.779-10.667,10.667s4.779,10.667,10.667,10.667h192
			c5.888,0,10.667-4.779,10.667-10.667S400.555,320,394.667,320z"/>
	</g>
</g>
<g>
	<g>
		<path d="M288,405.333h-85.333c-5.888,0-10.667,4.779-10.667,10.667c0,5.888,4.779,10.667,10.667,10.667H288
			c5.888,0,10.667-4.779,10.667-10.667C298.667,410.112,293.888,405.333,288,405.333z"/>
	</g>
</g>
<g>
	<g>
		<path d="M138.667,384c-17.643,0-32,14.357-32,32c0,17.643,14.357,32,32,32c17.643,0,32-14.357,32-32
			C170.667,398.357,156.309,384,138.667,384z M138.667,426.667c-5.888,0-10.667-4.779-10.667-10.667
			c0-5.888,4.779-10.667,10.667-10.667s10.667,4.779,10.667,10.667C149.333,421.888,144.555,426.667,138.667,426.667z"/>
	</g>
</g>
<g>
	<g>
		<path d="M138.667,298.667c-17.643,0-32,14.357-32,32c0,17.643,14.357,32,32,32c17.643,0,32-14.357,32-32
			C170.667,313.024,156.309,298.667,138.667,298.667z M138.667,341.333c-5.888,0-10.667-4.779-10.667-10.667
			S132.779,320,138.667,320s10.667,4.779,10.667,10.667S144.555,341.333,138.667,341.333z"/>
	</g>
</g>
<g>
	<g>
		<path d="M138.667,213.333c-17.643,0-32,14.357-32,32c0,17.643,14.357,32,32,32c17.643,0,32-14.357,32-32
			C170.667,227.691,156.309,213.333,138.667,213.333z M138.667,256c-5.888,0-10.667-4.779-10.667-10.667s4.779-10.667,10.667-10.667
			s10.667,4.779,10.667,10.667S144.555,256,138.667,256z"/>
	</g>
</g>
<g>
	<g>
		<path d="M138.667,128c-17.643,0-32,14.357-32,32s14.357,32,32,32c17.643,0,32-14.357,32-32S156.309,128,138.667,128z
			 M138.667,170.667c-5.888,0-10.667-4.779-10.667-10.667s4.779-10.667,10.667-10.667s10.667,4.779,10.667,10.667
			S144.555,170.667,138.667,170.667z"/>
	</g>
</g>
<g>
</g>
<g>
</g>
<g>
</g>
<g>
</g>
<g>
</g>
<g>
</g>
<g>
</g>
<g>
</g>
<g>
</g>
<g>
</g>
<g>
</g>
<g>
</g>
<g>
</g>
<g>
</g>
<g>
</g>
</svg>
