<?xml version="1.0" ?><svg viewBox="0 0 512 512" xmlns="http://www.w3.org/2000/svg"><defs><style>.cls-1{fill:#3f456b;}</style></defs><title/><g id="Lines"><path class="cls-1" d="M254,261h-1a5,5,0,0,1,0-10h1a5,5,0,0,1,0,10Z"/><path class="cls-1" d="M457.86,195.36c-12,0-24.38-7.52-35.46-21.68-12.06-15.41-21.37-37.14-26.21-61.18-10.39-51.66,2.87-96.42,30.19-101.92s56.86,30.66,67.25,82.31h0c4.84,24,4.66,47.68-.5,66.56-5.49,20.05-16,32.61-29.68,35.36A28.4,28.4,0,0,1,457.86,195.36ZM432,20a18.25,18.25,0,0,0-3.61.35C407.26,24.63,397,65.91,406,110.52c4.53,22.55,13.16,42.79,24.27,57,10.22,13,21.59,19.41,31.21,17.49s17.63-12.22,22-28.2c4.76-17.4,4.89-39.4.35-61.95C475.36,52.77,452.26,20,432,20Z"/><path class="cls-1" d="M392,208.4c-25.63,0-51.95-34.72-61.65-82.92-4.84-24.1-4.65-47.77.54-66.65,5.52-20,16.08-32.57,29.74-35.32l64.9-13.06a5,5,0,1,1,2,9.8L362.6,33.31c-9.63,1.94-17.67,12.21-22.06,28.17-4.79,17.41-4.93,39.44-.38,62,9,44.64,34.34,78.76,55.39,74.54l69-13.89a5,5,0,0,1,2,9.8l-69,13.89A27.85,27.85,0,0,1,392,208.4Z"/><path class="cls-1" d="M164.82,245c-10.84,0-22-6.7-31.91-19.32-10.77-13.7-19.09-33.12-23.43-54.71s-4.15-42.71.54-59.53c5-17.94,14.57-29.19,27-31.69L339.47,39a5,5,0,0,1,2,9.81L139,89.53c-8.41,1.69-15.45,10.64-19.33,24.56-4.27,15.34-4.4,34.83-.36,54.88s11.67,38,21.48,50.5c9,11.5,18.71,16.9,27.23,15.18l204.6-41.16a5,5,0,1,1,2,9.8L170,244.46A26.22,26.22,0,0,1,164.82,245Z"/><path class="cls-1" d="M37.16,220.93c-10.45,0-20.56-12.49-24.2-30.57-1.75-8.73-1.65-17.31.3-24.16,2.27-7.93,6.79-13,12.75-14.16L109,135.35a5,5,0,1,1,2,9.8L28,161.84c-2,.41-3.95,3.07-5.1,7.11-1.52,5.33-1.56,12.24-.11,19.44,3.05,15.19,10.79,23.34,15,22.48l83-16.7a5,5,0,0,1,2,9.8l-83,16.71A13.37,13.37,0,0,1,37.16,220.93Z"/><path class="cls-1" d="M213.19,260.51a15,15,0,0,1-14.7-12L195.61,235a5,5,0,1,1,9.78-2.09l2.89,13.51a5,5,0,0,0,5.9,4L233,246.6a5,5,0,0,1,2,9.81l-18.79,3.8A14.49,14.49,0,0,1,213.19,260.51Z"/><path class="cls-1" d="M270.38,249.12a5,5,0,0,1-1-9.9l21.24-4.3a5,5,0,0,0,3.91-5.9l-2.89-13.46a5,5,0,1,1,9.78-2.09l2.9,13.51a15,15,0,0,1-11.72,17.74L271.38,249A4.92,4.92,0,0,1,270.38,249.12Z"/><path class="cls-1" d="M253.75,280a24.49,24.49,0,1,1,24.49-24.49A24.52,24.52,0,0,1,253.75,280Zm0-39a14.49,14.49,0,1,0,14.49,14.48A14.5,14.5,0,0,0,253.75,241Z"/><path class="cls-1" d="M254,501a5,5,0,0,1-5-5V275a5,5,0,0,1,10,0V496A5,5,0,0,1,254,501Z"/><path class="cls-1" d="M400.5,500.5a5,5,0,0,1-4.17-2.24L254.24,284,110.65,498.28a5,5,0,0,1-8.3-5.56l147.76-220.5a5,5,0,0,1,4.16-2.22h0a5,5,0,0,1,4.15,2.24l146.24,220.5a5,5,0,0,1-4.17,7.76Z"/></g><g id="Outline"><path class="cls-1" d="M201.1,237.67c-10.84,0-22-6.7-31.92-19.32-10.76-13.7-19.08-33.12-23.42-54.71s-4.15-42.7.53-59.53c5-17.94,14.58-29.19,27-31.69a5,5,0,1,1,2,9.81c-8.41,1.69-15.45,10.64-19.32,24.56-4.28,15.34-4.41,34.83-.37,54.88s11.67,38,21.48,50.5c9.05,11.51,18.72,16.89,27.23,15.18a5,5,0,0,1,2,9.81A26.2,26.2,0,0,1,201.1,237.67Z"/><path class="cls-1" d="M416.54,203.67c-25.52,0-51.7-34.4-61.31-82.17-4.74-23.56-4.1-47.36,1.8-67s16.67-32.88,29.44-35.86a5,5,0,1,1,2.27,9.74c-9,2.11-17.32,12.95-22.13,29-5.44,18.13-6,40.21-1.58,62.18,8.4,41.71,31.32,74.15,51.48,74.15a18.75,18.75,0,0,0,3.59-.35,5,5,0,1,1,2,9.8A28.05,28.05,0,0,1,416.54,203.67Z"/><path class="cls-1" d="M65.28,215.28c-5.08,0-10.16-3-14.53-8.53s-7.76-13.42-9.5-22.08c-3.94-19.56,1.6-36,12.88-38.29a5,5,0,1,1,2,9.8C52,157,48,167.74,51.05,182.7c1.42,7.05,4.17,13.57,7.56,17.87,2.55,3.26,5.35,5,7.29,4.64a5,5,0,0,1,2,9.81A13.38,13.38,0,0,1,65.28,215.28Z"/></g></svg>