<?xml version="1.0" ?><svg viewBox="0 0 512 512" xmlns="http://www.w3.org/2000/svg"><defs><style>.cls-1{fill:#3f456b;}</style></defs><title/><g id="Lines"><path class="cls-1" d="M256,502A245,245,0,0,1,82.76,83.76,245,245,0,1,1,429.24,430.24,243.37,243.37,0,0,1,256,502Zm0-480A235,235,0,0,0,89.83,423.17,235,235,0,1,0,422.17,90.83,233.44,233.44,0,0,0,256,22Z"/><path class="cls-1" d="M359,159a5,5,0,0,1-3.54-8.54l65-65a5,5,0,0,1,7.08,7.08l-65,65A5,5,0,0,1,359,159Z"/><path class="cls-1" d="M88,430a5,5,0,0,1-3.54-8.54l58-58a5,5,0,0,1,7.08,7.08l-58,58A5,5,0,0,1,88,430Z"/><path class="cls-1" d="M162.84,205.72A30.71,30.71,0,1,1,193.55,175,30.74,30.74,0,0,1,162.84,205.72Zm0-51.42A20.71,20.71,0,1,0,183.55,175,20.73,20.73,0,0,0,162.84,154.3Z"/><path class="cls-1" d="M410.39,371H102.61a27.07,27.07,0,0,1-27-27V177.22a27.07,27.07,0,0,1,27-27h14.52a52,52,0,0,1,91.42,0H410.39a27.07,27.07,0,0,1,27,27V344A27.07,27.07,0,0,1,410.39,371ZM162.84,133a42.18,42.18,0,0,0-38.1,24.29,5,5,0,0,1-4.53,2.89h-17.6a17.05,17.05,0,0,0-17,17V344a17.05,17.05,0,0,0,17,17H410.39a17.05,17.05,0,0,0,17-17V177.22a17.05,17.05,0,0,0-17-17H205.48a5,5,0,0,1-4.53-2.89A42.2,42.2,0,0,0,162.84,133Z"/><path class="cls-1" d="M256.45,345a78.15,78.15,0,1,1,78.14-78.15A78.23,78.23,0,0,1,256.45,345Zm0-146.29a68.15,68.15,0,1,0,68.14,68.14A68.21,68.21,0,0,0,256.45,198.69Z"/><path class="cls-1" d="M256.45,312.63a45.8,45.8,0,1,1,45.79-45.8A45.84,45.84,0,0,1,256.45,312.63Zm0-81.59a35.8,35.8,0,1,0,35.79,35.79A35.83,35.83,0,0,0,256.45,231Z"/><path class="cls-1" d="M195.9,230.7H80.57a5,5,0,0,1,0-10H195.9a5,5,0,1,1,0,10Z"/><path class="cls-1" d="M432.43,230.7H317.1a5,5,0,0,1,0-10H432.43a5,5,0,0,1,0,10Z"/><path class="cls-1" d="M394.23,212.33H338.41a5,5,0,0,1-5-5V176.48a5,5,0,0,1,5-5h55.82a5,5,0,0,1,5,5v30.85A5,5,0,0,1,394.23,212.33Zm-50.82-10h45.82V181.48H343.41Z"/><path class="cls-1" d="M394,346.23a21.41,21.41,0,1,1,21.4-21.4A21.43,21.43,0,0,1,394,346.23Zm0-32.81a11.41,11.41,0,1,0,11.4,11.41A11.42,11.42,0,0,0,394,313.42Z"/><path class="cls-1" d="M125.92,346.23a28,28,0,1,1,28-28A28,28,0,0,1,125.92,346.23Zm0-45.93a18,18,0,1,0,18,18A18,18,0,0,0,125.92,300.3Z"/></g><g id="Outline"><path class="cls-1" d="M257.25,77.25a5,5,0,0,1-5-5V57a5,5,0,0,1,10,0V72.25A5,5,0,0,1,257.25,77.25Z"/><path class="cls-1" d="M329.75,134.5H314.5a5,5,0,0,1,0-10h15.25a5,5,0,0,1,0,10Z"/><path class="cls-1" d="M228.63,84.92a5,5,0,0,1-4.34-2.5l-7.62-13.21a5,5,0,0,1,8.66-5L233,77.42a5,5,0,0,1-4.32,7.5Z"/><path class="cls-1" d="M306.84,105.87a5,5,0,0,1-2.51-9.33l13.21-7.62a5,5,0,1,1,5,8.66l-13.21,7.62A4.93,4.93,0,0,1,306.84,105.87Z"/><path class="cls-1" d="M207.66,105.87a4.88,4.88,0,0,1-2.49-.67L192,97.58a5,5,0,1,1,5-8.66l13.21,7.62a5,5,0,0,1-2.51,9.33Z"/><path class="cls-1" d="M285.87,84.92a5,5,0,0,1-4.32-7.5l7.62-13.21a5,5,0,0,1,8.66,5l-7.62,13.21A5,5,0,0,1,285.87,84.92Z"/></g></svg>