<?xml version="1.0" ?><svg viewBox="0 0 512 512" xmlns="http://www.w3.org/2000/svg"><defs><style>.cls-1{fill:#3f456b;}</style></defs><title/><g id="Lines"><path class="cls-1" d="M381.08,176.61a5,5,0,0,1-1.43-9.79c27-8,56.48-2.4,57.72-2.15a5,5,0,1,1-1.93,9.81h0c-.28,0-28.39-5.41-52.93,1.92A5,5,0,0,1,381.08,176.61Z"/><path class="cls-1" d="M82.08,158.09a5,5,0,0,1-1-9.88c1.08-.24,26.71-5.68,53.32-2.58a5,5,0,0,1-1.16,9.94c-24.9-2.91-49.8,2.36-50,2.41A4.83,4.83,0,0,1,82.08,158.09Z"/><path class="cls-1" d="M231,500.69a5,5,0,0,1-5-5V370a5,5,0,0,1,10,0V495.69A5,5,0,0,1,231,500.69Z"/><path class="cls-1" d="M231,500.56a5,5,0,0,1-3.53-1.47L201,472.69a5,5,0,1,1,7.07-7.07L231,488.49l22.87-22.87a5,5,0,1,1,7.07,7.07l-26.4,26.4A5,5,0,0,1,231,500.56Z"/><path class="cls-1" d="M231,375a5,5,0,0,1-5-5c0-13.18-3.75-23.49-11.14-30.65-12.44-12-31.44-11.55-31.64-11.55H183l-82.94,0A91,91,0,0,1,83,148a69.61,69.61,0,0,1,68.72-80.83,69.34,69.34,0,0,1,48.35,19.54,125.86,125.86,0,0,1,237.65,78.45,82.65,82.65,0,0,1,62.74,80.31,82.44,82.44,0,0,1-81.74,82.38H341c-19.58,0-34.93-5.64-45.63-16.74-15.71-16.32-15.46-38.49-15.41-40.47V145a5,5,0,0,1,10,0V270.88c0,.18-.48,19.73,12.68,33.33,8.74,9,21.65,13.61,38.36,13.61h77.67a72.55,72.55,0,0,0,50.8-21.42,71.79,71.79,0,0,0,21-51,72.65,72.65,0,0,0-59.66-71.57,5,5,0,0,1-3.95-6.17A115.93,115.93,0,0,0,314.7,22.83,115.85,115.85,0,0,0,206.37,97.57a5,5,0,0,1-8.54,1.4A59.6,59.6,0,0,0,93.77,150.73a5,5,0,0,1-.69,3.94,5,5,0,0,1-3.36,2.18,81,81,0,0,0,10.66,160.93l82.54,0c2-.06,23.6-.32,38.78,14.3C231.17,341.21,236,354,236,370A5,5,0,0,1,231,375Z"/><path class="cls-1" d="M311.37,176.53a5,5,0,0,1-3.54-1.46L285,152.2,262.1,175.07A5,5,0,1,1,255,168l26.4-26.4a5,5,0,0,1,7.07,0L314.9,168a5,5,0,0,1-3.53,8.53Z"/></g><g id="Outline"><path class="cls-1" d="M300.78,452.31a5,5,0,0,1-5-5V414a5,5,0,0,1,10,0v33.31A5,5,0,0,1,300.78,452.31Z"/><path class="cls-1" d="M324.78,452.31a5,5,0,0,1-5-5V414a5,5,0,0,1,10,0v33.31A5,5,0,0,1,324.78,452.31Z"/><path class="cls-1" d="M388.78,452.31a5,5,0,0,1-5-5V414a5,5,0,0,1,10,0v33.31A5,5,0,0,1,388.78,452.31Z"/><path class="cls-1" d="M359.2,453H357a15,15,0,0,1-15-15V424.69a15,15,0,0,1,15-15h2.2a15,15,0,0,1,15,15V438A15,15,0,0,1,359.2,453ZM357,419.69a5,5,0,0,0-5,5V438a5,5,0,0,0,5,5h2.2a5,5,0,0,0,5-5V424.69a5,5,0,0,0-5-5Z"/><path class="cls-1" d="M421.2,453H419a15,15,0,0,1-15-15V424.69a15,15,0,0,1,15-15h2.2a15,15,0,0,1,15,15V438A15,15,0,0,1,421.2,453ZM419,419.69a5,5,0,0,0-5,5V438a5,5,0,0,0,5,5h2.2a5,5,0,0,0,5-5V424.69a5,5,0,0,0-5-5Z"/><path class="cls-1" d="M387.43,400a5,5,0,0,1-5-5V361.69a5,5,0,0,1,10,0V395A5,5,0,0,1,387.43,400Z"/><path class="cls-1" d="M363.43,400a5,5,0,0,1-5-5V361.69a5,5,0,0,1,10,0V395A5,5,0,0,1,363.43,400Z"/><path class="cls-1" d="M299.43,400a5,5,0,0,1-5-5V361.69a5,5,0,0,1,10,0V395A5,5,0,0,1,299.43,400Z"/><path class="cls-1" d="M421.2,399.31H419a15,15,0,0,1-15-15V371a15,15,0,0,1,15-15h2.2a15,15,0,0,1,15,15v13.31A15,15,0,0,1,421.2,399.31ZM419,366a5,5,0,0,0-5,5v13.31a5,5,0,0,0,5,5h2.2a5,5,0,0,0,5-5V371a5,5,0,0,0-5-5Z"/><path class="cls-1" d="M331.2,399.31H329a15,15,0,0,1-15-15V371a15,15,0,0,1,15-15h2.2a15,15,0,0,1,15,15v13.31A15,15,0,0,1,331.2,399.31ZM329,366a5,5,0,0,0-5,5v13.31a5,5,0,0,0,5,5h2.2a5,5,0,0,0,5-5V371a5,5,0,0,0-5-5Z"/><path class="cls-1" d="M160.78,452.31a5,5,0,0,1-5-5V414a5,5,0,0,1,10,0v33.31A5,5,0,0,1,160.78,452.31Z"/><path class="cls-1" d="M92.2,453H90a15,15,0,0,1-15-15V424.69a15,15,0,0,1,15-15h2.2a15,15,0,0,1,15,15V438A15,15,0,0,1,92.2,453ZM90,419.69a5,5,0,0,0-5,5V438a5,5,0,0,0,5,5h2.2a5,5,0,0,0,5-5V424.69a5,5,0,0,0-5-5Z"/><path class="cls-1" d="M132.2,453H130a15,15,0,0,1-15-15V424.69a15,15,0,0,1,15-15h2.2a15,15,0,0,1,15,15V438A15,15,0,0,1,132.2,453ZM130,419.69a5,5,0,0,0-5,5V438a5,5,0,0,0,5,5h2.2a5,5,0,0,0,5-5V424.69a5,5,0,0,0-5-5Z"/><path class="cls-1" d="M122.43,400a5,5,0,0,1-5-5V361.69a5,5,0,0,1,10,0V395A5,5,0,0,1,122.43,400Z"/><path class="cls-1" d="M154.2,399.31H152a15,15,0,0,1-15-15V371a15,15,0,0,1,15-15h2.2a15,15,0,0,1,15,15v13.31A15,15,0,0,1,154.2,399.31ZM152,366a5,5,0,0,0-5,5v13.31a5,5,0,0,0,5,5h2.2a5,5,0,0,0,5-5V371a5,5,0,0,0-5-5Z"/><path class="cls-1" d="M92.2,399.31H90a15,15,0,0,1-15-15V371a15,15,0,0,1,15-15h2.2a15,15,0,0,1,15,15v13.31A15,15,0,0,1,92.2,399.31ZM90,366a5,5,0,0,0-5,5v13.31a5,5,0,0,0,5,5h2.2a5,5,0,0,0,5-5V371a5,5,0,0,0-5-5Z"/><path class="cls-1" d="M256,423a5,5,0,0,1-5-5v-1a5,5,0,0,1,10,0v1A5,5,0,0,1,256,423Zm0-21a5,5,0,0,1-5-5v-1a5,5,0,0,1,10,0v1A5,5,0,0,1,256,402Zm0-21a5,5,0,0,1-5-5v-1a5,5,0,0,1,10,0v1A5,5,0,0,1,256,381Zm0-21a5,5,0,0,1-5-5v-1a5,5,0,0,1,10,0v1A5,5,0,0,1,256,360Zm0-21a5,5,0,0,1-5-5v-1a5,5,0,0,1,10,0v1A5,5,0,0,1,256,339Zm0-21a5,5,0,0,1-5-5v-1a5,5,0,0,1,10,0v1A5,5,0,0,1,256,318Zm0-21a5,5,0,0,1-5-5v-1a5,5,0,0,1,10,0v1A5,5,0,0,1,256,297Zm0-21a5,5,0,0,1-5-5v-1a5,5,0,0,1,10,0v1A5,5,0,0,1,256,276Zm0-21a5,5,0,0,1-5-5v-1a5,5,0,0,1,10,0v1A5,5,0,0,1,256,255Zm0-21a5,5,0,0,1-5-5v-1a5,5,0,0,1,10,0v1A5,5,0,0,1,256,234Zm0-21a5,5,0,0,1-5-5v-1a5,5,0,0,1,10,0v1A5,5,0,0,1,256,213Z"/></g></svg>