<?xml version="1.0" ?><svg viewBox="0 0 512 512" xmlns="http://www.w3.org/2000/svg"><defs><style>.cls-1{fill:#3f456b;}</style></defs><title/><g id="Lines"><path class="cls-1" d="M188.4,330.72a5,5,0,0,1-3.53-1.47l-.92-.91a5,5,0,1,1,7.07-7.07l.92.91a5,5,0,0,1-3.54,8.54Z"/><path class="cls-1" d="M206.79,312.33a5,5,0,0,1-3.54-1.46l-.91-.92a5,5,0,1,1,7.07-7.07l.91.92a5,5,0,0,1-3.53,8.53Z"/><path class="cls-1" d="M48.05,494.59a10.56,10.56,0,0,1-7.57-3L20.71,471.85A10.55,10.55,0,0,1,18,462.4a16.32,16.32,0,0,1,4.6-8.52l13.44-13.44a5,5,0,0,1,7.07,7.07L29.69,461c-1.65,1.65-2,3.39-1.84,3.89l19.7,19.7c.38.2,2.32.07,4.06-1.67l13.44-13.45a5,5,0,0,1,7.08,7.07L58.68,490a15.75,15.75,0,0,1-8.8,4.51A14.2,14.2,0,0,1,48.05,494.59Z"/><path class="cls-1" d="M388.16,266.53a5,5,0,0,1-.67-9.95c24.26-3.33,45.76-14.21,63.88-32.33A114.84,114.84,0,0,0,289,61.84a113.81,113.81,0,0,0-32.56,65.45,5,5,0,0,1-9.91-1.36,124.85,124.85,0,1,1,212,105.39c-19.7,19.7-43.12,31.53-69.59,35.16A4,4,0,0,1,388.16,266.53Z"/><path class="cls-1" d="M92.07,493.76c-4.87,0-10.78-1.71-16.68-7.6L28.18,439c-12.61-12.62-5.11-25.95-.93-30.3L235.69,154.57a5,5,0,0,1,7.73,6.35L34.84,415.16a3.7,3.7,0,0,1-.33.36c-1.25,1.3-7.27,8.35.75,16.36l47.2,47.2c9,9,16.87,2.48,17.74,1.71l.15-.13L354.68,272a5,5,0,1,1,6.34,7.73L106.75,488.35a24.28,24.28,0,0,1-9.64,4.81A22,22,0,0,1,92.07,493.76Z"/><path class="cls-1" d="M370.55,287.32a14.91,14.91,0,0,1-10.6-4.51L232.54,155.4a15.42,15.42,0,0,1-.12-22.05l6-6a16,16,0,0,1,11.17-4.71,15.34,15.34,0,0,1,11.19,4.52L388.23,254.53a14.63,14.63,0,0,1,4.33,11.17,16.43,16.43,0,0,1-4.9,10.81l-6,6h0A15.66,15.66,0,0,1,370.55,287.32Zm7.53-8.3h0ZM249.82,132.6h-.07a6,6,0,0,0-4.22,1.78l-6,6a5.47,5.47,0,0,0,.12,7.91L367,275.74c2.17,2.18,5.2,2.07,7.53-.26l6-6a6.48,6.48,0,0,0,2-4.21,4.7,4.7,0,0,0-1.41-3.63L253.75,134.19A5.49,5.49,0,0,0,249.82,132.6Z"/><path class="cls-1" d="M251.84,306.2a5,5,0,0,1-3.53-1.46l-37.48-37.48a5,5,0,0,1,0-7.07l37.48-37.48a5,5,0,0,1,7.07,0l37.47,37.48a5,5,0,0,1,0,7.07l-37.47,37.48A5,5,0,0,1,251.84,306.2Zm-30.4-42.47,30.4,30.4,30.41-30.4-30.41-30.41Z"/></g><g id="Outline"><path class="cls-1" d="M365.16,340.66a5,5,0,0,1-.12-10c34.64-.84,74.65-27.1,89.21-58.53a5,5,0,1,1,9.07,4.2c-16,34.54-60,63.4-98,64.32Z"/><path class="cls-1" d="M349,375.55a5,5,0,0,1-.11-10c55.82-1.35,120.33-43.68,143.8-94.35a5,5,0,1,1,9.07,4.2c-12.1,26.13-34.61,50.92-63.37,69.8s-60.47,29.65-89.26,30.34Z"/><path class="cls-1" d="M178.31,153.09h0a5,5,0,0,1-5-5c.31-38.07,28.46-82.5,62.75-99.05a5,5,0,1,1,4.35,9c-31.2,15.05-56.82,55.48-57.1,90.12A5,5,0,0,1,178.31,153.09Z"/><path class="cls-1" d="M143.68,169.8h0a5,5,0,0,1-5-5c.24-28.8,10.51-60.67,28.92-89.73s42.84-52,68.78-64.48a5,5,0,1,1,4.35,9c-50.3,24.27-91.59,89.44-92,145.28A5,5,0,0,1,143.68,169.8Z"/><path class="cls-1" d="M457.55,183a5,5,0,0,1-3.54-1.46l-.55-.55a5,5,0,0,1,7.06-7.08l.56.56a5,5,0,0,1-3.53,8.53Z"/><path class="cls-1" d="M438.66,201.88a5,5,0,0,1-3.54-1.47l-.55-.55a5,5,0,0,1,7.07-7.07l.56.56a5,5,0,0,1-3.54,8.53Z"/><path class="cls-1" d="M419.77,220.76a5,5,0,0,1-3.53-1.46l-.55-.55a5,5,0,1,1,7.06-7.08l.56.56a5,5,0,0,1,0,7.07A5,5,0,0,1,419.77,220.76Z"/><path class="cls-1" d="M459.26,146.94a5,5,0,0,1-3.54-1.47l-.55-.55a5,5,0,0,1,7.07-7.07l.55.55a5,5,0,0,1-3.53,8.54Z"/><path class="cls-1" d="M440.37,165.82a5,5,0,0,1-3.53-1.46l-.56-.56a5,5,0,1,1,7.07-7.07l.56.56a5,5,0,0,1-3.54,8.53Z"/><path class="cls-1" d="M421.49,184.71a5,5,0,0,1-3.54-1.47l-.55-.55a5,5,0,0,1,7.07-7.07l.55.55a5,5,0,0,1-3.53,8.54Z"/><path class="cls-1" d="M402.6,203.59a5,5,0,0,1-3.53-1.46l-.56-.56a5,5,0,1,1,7.07-7.07l.56.56a5,5,0,0,1-3.54,8.53Z"/><path class="cls-1" d="M383.72,222.48a5,5,0,0,1-3.54-1.47l-.55-.55a5,5,0,1,1,7.07-7.07l.55.55a5,5,0,0,1-3.53,8.54Z"/><path class="cls-1" d="M461,110.88a5,5,0,0,1-3.54-1.47l-.55-.55a5,5,0,1,1,7.07-7.07l.56.55a5,5,0,0,1-3.54,8.54Z"/><path class="cls-1" d="M442.09,129.76a5,5,0,0,1-3.54-1.46l-.55-.55a5,5,0,1,1,7.06-7.08l.56.56a5,5,0,0,1-3.53,8.53Z"/><path class="cls-1" d="M423.2,148.65a5,5,0,0,1-3.54-1.47l-.55-.55a5,5,0,1,1,7.07-7.07l.56.56a5,5,0,0,1-3.54,8.53Z"/><path class="cls-1" d="M404.31,167.53a5,5,0,0,1-3.53-1.46l-.55-.55a5,5,0,0,1,7.06-7.08l.56.56a5,5,0,0,1-3.54,8.53Z"/><path class="cls-1" d="M385.43,186.42a5,5,0,0,1-3.54-1.47l-.55-.55a5,5,0,0,1,7.07-7.07l.56.56a5,5,0,0,1-3.54,8.53Z"/><path class="cls-1" d="M366.54,205.3a5,5,0,0,1-3.53-1.46l-.55-.55a5,5,0,0,1,7.06-7.08l.56.56a5,5,0,0,1-3.54,8.53Z"/><path class="cls-1" d="M443.8,93.71a5,5,0,0,1-3.54-1.47l-.55-.55a5,5,0,0,1,7.07-7.07l.55.55a5,5,0,0,1-3.53,8.54Z"/><path class="cls-1" d="M424.91,112.59a5,5,0,0,1-3.53-1.46l-.56-.56a5,5,0,0,1,7.07-7.07l.56.56a5,5,0,0,1-3.54,8.53Z"/><path class="cls-1" d="M406,131.48a5,5,0,0,1-3.54-1.47l-.55-.55a5,5,0,0,1,7.07-7.07l.55.55a5,5,0,0,1-3.53,8.54Z"/><path class="cls-1" d="M387.14,150.36a5,5,0,0,1-3.53-1.46l-.56-.56a5,5,0,0,1,7.07-7.07l.56.56a5,5,0,0,1-3.54,8.53Z"/><path class="cls-1" d="M368.26,169.25a5,5,0,0,1-3.54-1.47l-.55-.55a5,5,0,0,1,7.07-7.07l.55.55a5,5,0,0,1-3.53,8.54Z"/><path class="cls-1" d="M349.37,188.13a5,5,0,0,1-3.53-1.46l-.56-.56a5,5,0,1,1,7.07-7.07l.56.56a5,5,0,0,1-3.54,8.53Z"/><path class="cls-1" d="M426.63,76.53a5,5,0,0,1-3.54-1.46l-.55-.55a5,5,0,1,1,7.06-7.08l.56.56a5,5,0,0,1-3.53,8.53Z"/><path class="cls-1" d="M407.74,95.42A5,5,0,0,1,404.2,94l-.55-.55a5,5,0,0,1,7.07-7.07l.56.55a5,5,0,0,1-3.54,8.54Z"/><path class="cls-1" d="M388.85,114.3a5,5,0,0,1-3.53-1.46l-.55-.55a5,5,0,1,1,7.06-7.08l.56.56a5,5,0,0,1-3.54,8.53Z"/><path class="cls-1" d="M370,133.19a5,5,0,0,1-3.54-1.47l-.55-.55A5,5,0,1,1,373,124.1l.56.56a5,5,0,0,1-3.54,8.53Z"/><path class="cls-1" d="M351.08,152.07a5,5,0,0,1-3.53-1.46l-.55-.55a5,5,0,0,1,7.06-7.08l.56.56a5,5,0,0,1-3.54,8.53Z"/><path class="cls-1" d="M332.2,171a5,5,0,0,1-3.54-1.47l-.55-.55a5,5,0,1,1,7.07-7.07l.56.56A5,5,0,0,1,332.2,171Z"/><path class="cls-1" d="M409.45,59.36a5,5,0,0,1-3.53-1.46l-.56-.56a5,5,0,1,1,7.07-7.07l.56.56a5,5,0,0,1-3.54,8.53Z"/><path class="cls-1" d="M390.57,78.25A5,5,0,0,1,387,76.78l-.55-.55a5,5,0,1,1,7.07-7.07l.55.55a5,5,0,0,1-3.53,8.54Z"/><path class="cls-1" d="M371.68,97.13a5,5,0,0,1-3.53-1.46l-.56-.56A5,5,0,0,1,374.66,88l.56.56a5,5,0,0,1-3.54,8.53Z"/><path class="cls-1" d="M352.8,116a5,5,0,0,1-3.54-1.47l-.55-.55a5,5,0,0,1,7.07-7.07l.55.55A5,5,0,0,1,352.8,116Z"/><path class="cls-1" d="M333.91,134.9a5,5,0,0,1-3.53-1.46l-.56-.56a5,5,0,0,1,7.07-7.07l.56.56a5,5,0,0,1-3.54,8.53Z"/><path class="cls-1" d="M315,153.79a5,5,0,0,1-3.54-1.47l-.55-.55A5,5,0,0,1,318,144.7l.55.55a5,5,0,0,1-3.53,8.54Z"/><path class="cls-1" d="M373.4,61.07a5,5,0,0,1-3.54-1.46l-.55-.55A5,5,0,1,1,376.37,52l.56.56a5,5,0,0,1-3.53,8.53Z"/><path class="cls-1" d="M354.51,80A5,5,0,0,1,351,78.49l-.55-.55a5,5,0,0,1,7.07-7.07l.56.55A5,5,0,0,1,354.51,80Z"/><path class="cls-1" d="M335.62,98.84a5,5,0,0,1-3.53-1.46l-.55-.55a5,5,0,1,1,7.06-7.08l.56.56a5,5,0,0,1-3.54,8.53Z"/><path class="cls-1" d="M316.74,117.73a5,5,0,0,1-3.54-1.47l-.55-.55a5,5,0,0,1,7.07-7.07l.56.56a5,5,0,0,1-3.54,8.53Z"/><path class="cls-1" d="M297.85,136.61a5,5,0,0,1-3.53-1.46l-.56-.55a5,5,0,0,1,7.07-7.08l.56.56a5,5,0,0,1-3.54,8.53Z"/><path class="cls-1" d="M337.34,62.79a5,5,0,0,1-3.54-1.47l-.55-.55a5,5,0,1,1,7.07-7.07l.55.55a5,5,0,0,1-3.53,8.54Z"/><path class="cls-1" d="M318.45,81.67a5,5,0,0,1-3.53-1.46l-.56-.56a5,5,0,1,1,7.07-7.07l.56.56a5,5,0,0,1-3.54,8.53Z"/><path class="cls-1" d="M299.57,100.56A5,5,0,0,1,296,99.09l-.55-.55a5,5,0,1,1,7.07-7.07l.55.55a5,5,0,0,1-3.53,8.54Z"/></g></svg>