<?xml version="1.0" ?><svg viewBox="0 0 512 512" xmlns="http://www.w3.org/2000/svg"><defs><style>.cls-1{fill:#3f456b;}</style></defs><title/><g id="Lines"><path class="cls-1" d="M480,500H368.51a5,5,0,0,1-5-5V176a5,5,0,0,1,5-5H480a5,5,0,0,1,5,5V495A5,5,0,0,1,480,500ZM373.51,490H475V181H373.51Z"/><path class="cls-1" d="M368.51,500H257a5,5,0,0,1-5-5V288a5,5,0,0,1,5-5h111.5a5,5,0,0,1,0,10H262V490h106.5a5,5,0,0,1,0,10Z"/><path class="cls-1" d="M257,500H144.51a5,5,0,0,1-5-5V256a5,5,0,0,1,5-5H257a5,5,0,0,1,5,5v32a5,5,0,0,1-10,0V261H149.51V490H257a5,5,0,0,1,0,10Z"/><path class="cls-1" d="M144.51,500H32a5,5,0,0,1-5-5V384a5,5,0,0,1,5-5H144.51a5,5,0,0,1,0,10H37V490H144.51a5,5,0,0,1,0,10Z"/><path class="cls-1" d="M422.5,89.5A31.5,31.5,0,1,1,454,58,31.53,31.53,0,0,1,422.5,89.5Zm0-53A21.5,21.5,0,1,0,444,58,21.52,21.52,0,0,0,422.5,36.5Z"/><path class="cls-1" d="M312.5,181.5A31.5,31.5,0,1,1,344,150,31.53,31.53,0,0,1,312.5,181.5Zm0-53A21.5,21.5,0,1,0,334,150,21.52,21.52,0,0,0,312.5,128.5Z"/><path class="cls-1" d="M200.5,153.5A31.5,31.5,0,1,1,232,122,31.53,31.53,0,0,1,200.5,153.5Zm0-53A21.5,21.5,0,1,0,222,122,21.52,21.52,0,0,0,200.5,100.5Z"/><path class="cls-1" d="M87.5,260.5A31.5,31.5,0,1,1,119,229,31.53,31.53,0,0,1,87.5,260.5Zm0-53A21.5,21.5,0,1,0,109,229,21.52,21.52,0,0,0,87.5,207.5Z"/><path class="cls-1" d="M333.36,138.66a5,5,0,0,1-3.22-8.82L398.69,72a5,5,0,1,1,6.45,7.64l-68.55,57.86A5,5,0,0,1,333.36,138.66Z"/><path class="cls-1" d="M286.87,148.28a5,5,0,0,1-1.21-.15l-60.61-15a5,5,0,0,1,2.41-9.71l60.6,15a5,5,0,0,1-1.19,9.86Z"/><path class="cls-1" d="M107.66,215.33a5,5,0,0,1-3.44-8.63l73.53-69.57a5,5,0,0,1,6.87,7.27L111.1,214A5,5,0,0,1,107.66,215.33Z"/></g><g id="Outline"><path class="cls-1" d="M176,36.45H31.19a5,5,0,1,1,0-10H176a5,5,0,0,1,0,10Z"/><path class="cls-1" d="M176,68.22H31.19a5,5,0,1,1,0-10H176a5,5,0,0,1,0,10Z"/><path class="cls-1" d="M103.68,100H31.27a5,5,0,1,1,0-10h72.41a5,5,0,0,1,0,10Z"/></g></svg>