<?xml version="1.0" ?><svg viewBox="0 0 512 512" xmlns="http://www.w3.org/2000/svg"><defs><style>.cls-1{fill:#3f456b;}</style></defs><title/><g id="Lines"><path class="cls-1" d="M257.43,472c-18.55,0-37.27-11.62-51.37-31.87-13.59-19.52-21.38-44.76-21.38-69.25,0-43.62,20.63-75.26,54.14-83.66-.56-72-15.47-244.08-15.92-249.28a23.71,23.71,0,0,1,5.34-17.65C234.06,13.46,243.78,10,257.12,10h.73c12.49,0,21.84,3.31,27.81,9.84a25.25,25.25,0,0,1,6.43,18C291.94,39.66,276.8,218,276.15,287c15.16,2.85,28.69,13,38.49,29,10,16.38,15.54,37.72,15.54,60.08C330.18,427.18,296.18,472,257.43,472Zm-.31-452c-10.13,0-17.49,2.34-21.27,6.78a13.46,13.46,0,0,0-3,9.82c0,.12,0,.24,0,.36.16,1.83,16,183.8,16,254.28a5,5,0,0,1-4.07,4.91c-30.9,5.84-50.09,34.47-50.09,74.73,0,22.5,7.14,45.65,19.59,63.54C226.47,452,242.2,462,257.43,462s31.07-9.16,43.11-25.14c12.48-16.55,19.64-38.71,19.64-60.78,0-43-21.28-77.26-49.49-79.78a5,5,0,0,1-4.56-5c0-65.95,15.84-252.47,16-254.35a15,15,0,0,0-3.95-10.49c-4-4.3-10.85-6.48-20.33-6.48ZM243.84,291.24h0Z"/><path class="cls-1" d="M425.72,499.62a503.58,503.58,0,0,1-57.5-3.13l-.16,0c-19.53-3.19-22.6-19.16-21.5-27.42.21-5.25,3.55-89.26,3.55-109,0-19.39,16-28.29,24.53-30.34,31-9,29.95-35,29.89-36.12,0-.1,0-.21,0-.3v-2c0-69.37-15.44-248.07-15.89-253.3A23.75,23.75,0,0,1,394,20.29C399.83,13.46,409.56,10,422.9,10h.73c12.49,0,21.85,3.31,27.82,9.84a25.32,25.32,0,0,1,6.46,18c-.16,1.85-15.93,188-15.93,253.48v2c0,.13,0,.27,0,.4-.07,1-1.26,24.71,30.5,36,8.61,2.11,24.4,11,24.4,30.3,0,20.33,3.52,108.41,3.55,109.3.43,8.35-2.82,24.8-18.25,26.85h0A432.93,432.93,0,0,1,425.72,499.62Zm55.79-8.42h0Zm-111.93-4.61c2.45.3,56.87,6.89,111.27-.35h0c10.15-1.35,9.61-15.88,9.58-16.5-.14-3.67-3.56-89.21-3.56-109.74,0-16.34-16.28-20.47-17-20.63l-.5-.15c-20.42-7.17-29.52-19.19-33.55-28a40.87,40.87,0,0,1-3.87-18v-1.86c0-65.95,15.8-252.47,16-254.35a15,15,0,0,0-4-10.49c-4-4.3-10.87-6.48-20.35-6.48h-.73c-10.06,0-17.39,2.31-21.2,6.68a13.52,13.52,0,0,0-3.16,10,2.89,2.89,0,0,1,0,.29c.16,1.83,15.94,183.8,15.94,254.28v1.95c.09,3.29,0,35.41-37.23,46.11l-.25.07c-.67.16-16.93,4.29-16.93,20.63,0,20.53-3.42,106.07-3.56,109.7,0,.18,0,.36-.05.54C356.19,472.53,355.35,484.21,369.58,486.59Z"/><path class="cls-1" d="M388.08,476h-5.93c-6.62,0-12.21-6-12.21-13.06V366.06A12,12,0,0,1,382.15,354h5.93a12,12,0,0,1,12.2,12.06v96.88C400.28,470,394.69,476,388.08,476Zm-5.93-112a2,2,0,0,0-2.21,2.06v96.88c0,1.62,1.24,3.06,2.21,3.06h5.93c1,0,2.2-1.44,2.2-3.06V366.06a2,2,0,0,0-2.2-2.06Z"/><path class="cls-1" d="M425.71,476h-5.93c-6.62,0-12.21-6-12.21-13.06V366.06A12,12,0,0,1,419.78,354h5.93a12,12,0,0,1,12.2,12.06v96.88C437.91,470,432.32,476,425.71,476Zm-5.93-112a2,2,0,0,0-2.21,2.06v96.88c0,1.62,1.24,3.06,2.21,3.06h5.93c1,0,2.2-1.44,2.2-3.06V366.06a2,2,0,0,0-2.2-2.06Z"/><path class="cls-1" d="M464.35,476h-5.92c-6.62,0-12.21-6-12.21-13.06V366.06A12,12,0,0,1,458.43,354h5.92a12,12,0,0,1,12.21,12.06v96.88C476.56,470,471,476,464.35,476Zm-5.92-112a2,2,0,0,0-2.21,2.06v96.88c0,1.62,1.24,3.06,2.21,3.06h5.92c1,0,2.21-1.44,2.21-3.06V366.06a2,2,0,0,0-2.21-2.06Z"/><path class="cls-1" d="M144.61,500.69a27.28,27.28,0,0,1-8.3-1.43,5,5,0,0,1-3.46-4.69c0-2.58-4-258.42-40.92-346.56l-.71-1.55a.77.77,0,0,1-.07-.16,4.33,4.33,0,0,0-1-1.32,4.63,4.63,0,0,0-1,1.41l-.17.38-.68,1.33C51.33,236.34,47.4,492,47.37,494.57a5,5,0,0,1-3.47,4.69c-7.35,2.37-13.51,1.8-18.31-1.7-8.16-5.94-8.39-17.74-8.39-19.06,0-223.77,36.39-357.26,39.49-368.2V31.17c-.11-1.8-.39-10.83,4.93-16.59a14.54,14.54,0,0,1,11-4.58h35a14.6,14.6,0,0,1,11,4.57c5.35,5.77,5.11,14.81,5,16.59V110.3c3.09,10.94,39.4,144.44,39.4,368.2,0,1.33-.26,13.12-8.43,19.06A16.54,16.54,0,0,1,144.61,500.69ZM72.62,20A4.53,4.53,0,0,0,69,21.35c-2.25,2.42-2.42,7.64-2.3,9.27,0,.12,0,.26,0,.38v80a4.88,4.88,0,0,1-.21,1.42C66.09,113.75,27.2,247.57,27.2,478.5c0,2.19.82,8.48,4.3,11a8,8,0,0,0,5.94,1.06c.29-15.1,1.66-72.25,6.44-136.92,7.5-101.23,19.35-171.74,35.24-209.57a2.41,2.41,0,0,1,.15-.33l.69-1.36c.65-1.45,3.7-7.45,10.17-7.45,6.65,0,9.7,6.28,10.2,7.42l.72,1.58c0,.05,0,.1.07.14C117,181.89,128.85,252.4,136.34,353.63c4.78,64.67,6.14,121.82,6.44,136.92a8,8,0,0,0,5.95-1.06c3.48-2.52,4.3-8.81,4.32-11,0-230.9-38.81-364.73-39.2-366a4.87,4.87,0,0,1-.2-1.42V31c0-.12,0-.25,0-.37.11-1.62-.1-6.84-2.36-9.27A4.6,4.6,0,0,0,107.63,20ZM84.49,144.5h0Z"/><path class="cls-1" d="M90.17,145a5,5,0,0,1-5-5V93a5,5,0,0,1,10,0v47A5,5,0,0,1,90.17,145Z"/><path class="cls-1" d="M258,62a5,5,0,0,1-5-5V56a5,5,0,0,1,10,0v1A5,5,0,0,1,258,62Z"/><path class="cls-1" d="M91,62a5,5,0,0,1-5-5V56a5,5,0,0,1,10,0v1A5,5,0,0,1,91,62Z"/><path class="cls-1" d="M423,62a5,5,0,0,1-5-5V56a5,5,0,0,1,10,0v1A5,5,0,0,1,423,62Z"/><path class="cls-1" d="M392.75,36H287.5a5,5,0,0,1,0-10H392.75a5,5,0,0,1,0,10Z"/><path class="cls-1" d="M226.25,36H118.65a5,5,0,0,1,0-10h107.6a5,5,0,0,1,0,10Z"/><path class="cls-1" d="M60.33,100H26A15,15,0,0,1,11,85V41A15,15,0,0,1,26,26H59.75a5,5,0,0,1,0,10H26a5,5,0,0,0-5,5V85a5,5,0,0,0,5,5H60.33a5,5,0,0,1,0,10Z"/><path class="cls-1" d="M230.63,100H119a5,5,0,0,1,0-10H230.63a5,5,0,0,1,0,10Z"/><path class="cls-1" d="M396.38,100H283.67a5,5,0,0,1,0-10H396.38a5,5,0,0,1,0,10Z"/><path class="cls-1" d="M486,100H449.14a5,5,0,0,1,0-10H486a5,5,0,0,0,5-5V41a5,5,0,0,0-5-5H453.67a5,5,0,0,1,0-10H486a15,15,0,0,1,15,15V85A15,15,0,0,1,486,100Z"/></g><g id="Outline"><path class="cls-1" d="M257,442a5,5,0,0,1-.81-9.93c37.32-6.22,36.83-62.42,36.82-63a5,5,0,0,1,10-.16,117.26,117.26,0,0,1-5,32.94c-7.14,23-21,36.88-40.21,40.07A4.65,4.65,0,0,1,257,442Z"/></g></svg>