<?xml version="1.0" ?><svg viewBox="0 0 512 512" xmlns="http://www.w3.org/2000/svg"><defs><style>.cls-1{fill:#3f456b;}</style></defs><title/><g id="Lines"><path class="cls-1" d="M270.33,89.65H241.47a15,15,0,0,1-15-15V64.9a15,15,0,0,1,15-15h28.86a15,15,0,0,1,15,15v9.75A15,15,0,0,1,270.33,89.65ZM241.47,59.9a5,5,0,0,0-5,5v9.75a5,5,0,0,0,5,5h28.86a5,5,0,0,0,5-5V64.9a5,5,0,0,0-5-5Z"/><path class="cls-1" d="M247.33,468.65a5,5,0,0,1-2.19-.51c-15.93-7.79-26.7-33.15-32-75.39a478,478,0,0,1-3.4-59.57V74.45c0-18.17,3.89-42.68,22.41-56.25a43,43,0,0,1,23.33-8.43h1.09a42.65,42.65,0,0,1,23.24,8.43C290,25.69,302.1,41.53,302.1,74.45V208l.19,12V333.27a491,491,0,0,1-3.18,58.09c-5,41.38-15,66.87-29.8,75.76a5,5,0,0,1-5.15-8.58c24.5-14.7,28.61-95.35,28.13-125.19V220l-.2-12V74.45c0-53.64-34.14-54.66-35.59-54.68h-1.06c-1.43,0-35.74,1-35.74,54.68V333.27c-.5,30.77,3.87,113.19,29.83,125.88a5,5,0,0,1-2.2,9.5Z"/><path class="cls-1" d="M16.54,319.51a5,5,0,0,1-4.81-3.65c-6.38-22.76.88-39,8.1-48.63a58.11,58.11,0,0,1,17.42-15.5l.11-.06,175.11-86.54a5,5,0,1,1,4.43,9l-175,86.51c-1.67.91-28.1,15.83-21.55,48.24l193.57-31.29a5,5,0,0,1,1.59,9.88l-198.14,32A5.29,5.29,0,0,1,16.54,319.51Z"/><path class="cls-1" d="M145.25,487.87a5,5,0,0,1-4.81-3.65c-7.2-25.66,9.16-42.06,18.81-47.15l.12-.06L219,407.53a5,5,0,1,1,4.43,9l-59.57,29.45c-1.19.65-18.16,10.35-14.78,31.21l97.74-16.35a5,5,0,1,1,1.65,9.87L146.08,487.8A4.73,4.73,0,0,1,145.25,487.87Z"/><path class="cls-1" d="M367.75,487.87a4.73,4.73,0,0,1-.83-.07L264.51,470.67a5,5,0,0,1,1.65-9.87l97.75,16.36a28.67,28.67,0,0,0-5.32-22.68,33,33,0,0,0-9.47-8.54l-59.57-29.45a5,5,0,1,1,4.43-9L353.63,437l.12.06c9.65,5.09,26,21.49,18.81,47.15A5,5,0,0,1,367.75,487.87Z"/><path class="cls-1" d="M52.67,330.25a5,5,0,0,1-5-5v-16a5,5,0,0,1,10,0v16A5,5,0,0,1,52.67,330.25Z"/><path class="cls-1" d="M172.33,310.5a5,5,0,0,1-5-5v-16a5,5,0,0,1,10,0v16A5,5,0,0,1,172.33,310.5Z"/><path class="cls-1" d="M132.44,317.25a5,5,0,0,1-5-5v-16a5,5,0,0,1,10,0v16A5,5,0,0,1,132.44,317.25Z"/><path class="cls-1" d="M92.56,323.75a5,5,0,0,1-5-5v-16a5,5,0,0,1,10,0v16A5,5,0,0,1,92.56,323.75Z"/><path class="cls-1" d="M132.09,214.29a5,5,0,0,1-4.7-3.31C123,198.8,123,184.17,123,178.66v-3.3c0-9.65,6.73-17.5,15-17.5h28c8.27,0,15,7.85,15,17.5v3.3a101.79,101.79,0,0,1-.78,10.54,5,5,0,0,1-9.93-1.16,92.73,92.73,0,0,0,.71-9.38v-3.3c0-4.42-2.63-7.5-5-7.5H138c-2.37,0-5,3.08-5,7.5v3.3c0,5,0,18.39,3.8,28.93a5,5,0,0,1-4.71,6.7Z"/><path class="cls-1" d="M60.71,250.23A5,5,0,0,1,56,247c-4.52-12.25-4.52-27.08-4.52-32.67V211c0-9.65,6.73-17.51,15-17.51h28c8.27,0,15,7.86,15,17.51v3.29a100,100,0,0,1-.72,10,5,5,0,1,1-9.94-1.13,87.34,87.34,0,0,0,.66-8.89V211c0-4.42-2.63-7.51-5-7.51h-28c-2.37,0-5,3.09-5,7.51v3.29c0,5.1,0,18.63,3.9,29.21a5,5,0,0,1-4.69,6.73Z"/><path class="cls-1" d="M495.46,319.51a5.29,5.29,0,0,1-.8-.06l-198.14-32a5,5,0,0,1,1.59-9.88l193.58,31.29c2.71-13.37.19-25.33-7.52-35.6a48.11,48.11,0,0,0-14-12.64l-175-86.51a5,5,0,1,1,4.43-9l175.11,86.54.11.06a58.11,58.11,0,0,1,17.42,15.5c7.22,9.62,14.48,25.87,8.1,48.63A5,5,0,0,1,495.46,319.51Z"/><path class="cls-1" d="M459.33,330.25a5,5,0,0,1-5-5v-16a5,5,0,0,1,10,0v16A5,5,0,0,1,459.33,330.25Z"/><path class="cls-1" d="M339.67,310.5a5,5,0,0,1-5-5v-16a5,5,0,0,1,10,0v16A5,5,0,0,1,339.67,310.5Z"/><path class="cls-1" d="M379.56,317.25a5,5,0,0,1-5-5v-16a5,5,0,0,1,10,0v16A5,5,0,0,1,379.56,317.25Z"/><path class="cls-1" d="M419.44,323.75a5,5,0,0,1-5-5v-16a5,5,0,0,1,10,0v16A5,5,0,0,1,419.44,323.75Z"/><path class="cls-1" d="M379.91,214.29a5,5,0,0,1-4.71-6.7c3.8-10.54,3.8-23.9,3.8-28.93v-3.3c0-4.42-2.63-7.5-5-7.5H346c-2.37,0-5,3.08-5,7.5v3.3a92.73,92.73,0,0,0,.71,9.38,5,5,0,0,1-9.93,1.16,101.79,101.79,0,0,1-.78-10.54v-3.3c0-9.65,6.73-17.5,15-17.5h28c8.27,0,15,7.85,15,17.5v3.3c0,5.51,0,20.14-4.39,32.32A5,5,0,0,1,379.91,214.29Z"/><path class="cls-1" d="M451.29,250.23a5,5,0,0,1-4.69-6.73c3.9-10.58,3.9-24.11,3.9-29.21V211c0-4.42-2.63-7.51-5-7.51h-28c-2.37,0-5,3.09-5,7.51v3.29a87.34,87.34,0,0,0,.66,8.89,5,5,0,1,1-9.94,1.13,100,100,0,0,1-.72-10V211c0-9.65,6.73-17.51,15-17.51h28c8.27,0,15,7.86,15,17.51v3.29c0,5.59,0,20.42-4.52,32.67A5,5,0,0,1,451.29,250.23Z"/><path class="cls-1" d="M256.5,500.5a13.85,13.85,0,0,1-13.83-13.83V376.33a13.83,13.83,0,1,1,27.66,0V486.67A13.85,13.85,0,0,1,256.5,500.5Zm0-128a3.84,3.84,0,0,0-3.83,3.83V486.67a3.83,3.83,0,1,0,7.66,0V376.33A3.84,3.84,0,0,0,256.5,372.5Z"/></g><g id="Outline"><path class="cls-1" d="M103,223.5H56.5a5,5,0,0,1,0-10H103a5,5,0,0,1,0,10Z"/><path class="cls-1" d="M454.75,223.5h-46.5a5,5,0,0,1,0-10h46.5a5,5,0,0,1,0,10Z"/><path class="cls-1" d="M175.25,187.5h-46.5a5,5,0,0,1,0-10h46.5a5,5,0,0,1,0,10Z"/><path class="cls-1" d="M383.25,187.5h-46.5a5,5,0,0,1,0-10h46.5a5,5,0,0,1,0,10Z"/><path class="cls-1" d="M16.49,293.5a5,5,0,0,1-.88-9.92l198.18-36a5,5,0,1,1,1.79,9.84l-198.19,36A5.47,5.47,0,0,1,16.49,293.5Z"/><path class="cls-1" d="M495.51,293.5a5.47,5.47,0,0,1-.9-.08l-198.19-36a5,5,0,1,1,1.79-9.84l198.18,36a5,5,0,0,1-.88,9.92Z"/><path class="cls-1" d="M231.47,315.67a5,5,0,0,1-5-5v-1a5,5,0,0,1,10,0v1A5,5,0,0,1,231.47,315.67Zm0-21a5,5,0,0,1-5-5v-1a5,5,0,0,1,10,0v1A5,5,0,0,1,231.47,294.67Zm0-21a5,5,0,0,1-5-5v-1a5,5,0,0,1,10,0v1A5,5,0,0,1,231.47,273.67Zm0-21a5,5,0,0,1-5-5v-1a5,5,0,0,1,10,0v1A5,5,0,0,1,231.47,252.67Zm0-21a5,5,0,0,1-5-5v-1a5,5,0,0,1,10,0v1A5,5,0,0,1,231.47,231.67Zm0-21a5,5,0,0,1-5-5v-1a5,5,0,0,1,10,0v1A5,5,0,0,1,231.47,210.67Zm0-21a5,5,0,0,1-5-5v-1a5,5,0,0,1,10,0v1A5,5,0,0,1,231.47,189.67Zm0-21a5,5,0,0,1-5-5v-1a5,5,0,0,1,10,0v1A5,5,0,0,1,231.47,168.67Zm0-21a5,5,0,0,1-5-5v-1a5,5,0,0,1,10,0v1A5,5,0,0,1,231.47,147.67Zm0-21a5,5,0,0,1-5-5v-1a5,5,0,1,1,10,0v1A5,5,0,0,1,231.47,126.67Z"/><path class="cls-1" d="M280.33,315.67a5,5,0,0,1-5-5v-1a5,5,0,0,1,10,0v1A5,5,0,0,1,280.33,315.67Zm0-21a5,5,0,0,1-5-5v-1a5,5,0,0,1,10,0v1A5,5,0,0,1,280.33,294.67Zm0-21a5,5,0,0,1-5-5v-1a5,5,0,0,1,10,0v1A5,5,0,0,1,280.33,273.67Zm0-21a5,5,0,0,1-5-5v-1a5,5,0,0,1,10,0v1A5,5,0,0,1,280.33,252.67Zm0-21a5,5,0,0,1-5-5v-1a5,5,0,0,1,10,0v1A5,5,0,0,1,280.33,231.67Zm0-21a5,5,0,0,1-5-5v-1a5,5,0,0,1,10,0v1A5,5,0,0,1,280.33,210.67Zm0-21a5,5,0,0,1-5-5v-1a5,5,0,0,1,10,0v1A5,5,0,0,1,280.33,189.67Zm0-21a5,5,0,0,1-5-5v-1a5,5,0,0,1,10,0v1A5,5,0,0,1,280.33,168.67Zm0-21a5,5,0,0,1-5-5v-1a5,5,0,0,1,10,0v1A5,5,0,0,1,280.33,147.67Zm0-21a5,5,0,0,1-5-5v-1a5,5,0,0,1,10,0v1A5,5,0,0,1,280.33,126.67Z"/></g></svg>