<?xml version="1.0" ?><svg viewBox="0 0 512 512" xmlns="http://www.w3.org/2000/svg"><defs><style>.cls-1{fill:#3f456b;}</style></defs><title/><g id="Lines"><path class="cls-1" d="M411,283.57h-.5a15,15,0,0,1-15-15V246.74a15,15,0,0,1,15-15h.5a15,15,0,0,1,15,15v21.83A15,15,0,0,1,411,283.57Zm-.5-41.83a5,5,0,0,0-5,5v21.83a5,5,0,0,0,5,5h.5a5,5,0,0,0,5-5V246.74a5,5,0,0,0-5-5Z"/><path class="cls-1" d="M78.84,453.73A45.11,45.11,0,1,1,124,408.62,45.17,45.17,0,0,1,78.84,453.73Zm0-80.22A35.11,35.11,0,1,0,114,408.62,35.15,35.15,0,0,0,78.84,373.51Z"/><path class="cls-1" d="M78.84,426.21a17.59,17.59,0,1,1,17.59-17.59A17.61,17.61,0,0,1,78.84,426.21Zm0-25.18a7.59,7.59,0,1,0,7.59,7.59A7.59,7.59,0,0,0,78.84,401Z"/><path class="cls-1" d="M64.5,274a45.11,45.11,0,1,1,45.11-45.11A45.16,45.16,0,0,1,64.5,274Zm0-80.22a35.11,35.11,0,1,0,35.11,35.11A35.15,35.15,0,0,0,64.5,193.74Z"/><path class="cls-1" d="M64.5,246.44a17.59,17.59,0,1,1,17.59-17.59A17.61,17.61,0,0,1,64.5,246.44Zm0-25.18a7.59,7.59,0,1,0,7.59,7.59A7.6,7.6,0,0,0,64.5,221.26Z"/><path class="cls-1" d="M160,453.73a45.11,45.11,0,1,1,45.12-45.11A45.17,45.17,0,0,1,160,453.73Zm0-80.22a35.11,35.11,0,1,0,35.12,35.11A35.15,35.15,0,0,0,160,373.51Z"/><path class="cls-1" d="M160,426.21a17.59,17.59,0,1,1,17.59-17.59A17.61,17.61,0,0,1,160,426.21ZM160,401a7.59,7.59,0,1,0,7.59,7.59A7.6,7.6,0,0,0,160,401Z"/><path class="cls-1" d="M418.66,453.73a45.11,45.11,0,1,1,45.11-45.11A45.17,45.17,0,0,1,418.66,453.73Zm0-80.22a35.11,35.11,0,1,0,35.11,35.11A35.15,35.15,0,0,0,418.66,373.51Z"/><path class="cls-1" d="M418.66,426.21a17.59,17.59,0,1,1,17.59-17.59A17.61,17.61,0,0,1,418.66,426.21Zm0-25.18a7.59,7.59,0,1,0,7.59,7.59A7.59,7.59,0,0,0,418.66,401Z"/><path class="cls-1" d="M378.54,414.34H321.67a5,5,0,0,1,0-10h56.87a5,5,0,0,1,0,10Z"/><path class="cls-1" d="M240.5,414.34H200.14a5,5,0,0,1,0-10H240.5a5,5,0,0,1,0,10Z"/><path class="cls-1" d="M320.5,433.6h-80a5,5,0,0,1-5-5V387.74a5,5,0,0,1,5-5h80a5,5,0,0,1,5,5V428.6A5,5,0,0,1,320.5,433.6Zm-75-10h70V392.74h-70Z"/><path class="cls-1" d="M212,283.57H132a5,5,0,0,1-5-5V228.41a5,5,0,0,1,5-5h80a5,5,0,0,1,5,5v50.16A5,5,0,0,1,212,283.57Zm-75-10h70V233.41H137Z"/><path class="cls-1" d="M320.5,373.51h-112a5,5,0,0,1-5-5V300.74a5,5,0,0,1,5-5h112a5,5,0,0,1,5,5v67.77A5,5,0,0,1,320.5,373.51Zm-107-10h102V305.74h-102Z"/><path class="cls-1" d="M38.73,413.17H16.5a5,5,0,0,1-5-5V284.74a4.93,4.93,0,0,1,.36-1.86l13.48-33.7a5,5,0,1,1,9.28,3.71L21.5,285.7V403.17H38.73a5,5,0,1,1,0,10Z"/><path class="cls-1" d="M463.75,414.19h-5a5,5,0,0,1,0-10h5c5.81,0,9.92-1.21,11.89-3.48a6.27,6.27,0,0,0,1.37-4.63,2.63,2.63,0,0,1-.07-.84V327.43c0-14.21-18.4-15.36-19.18-15.41a5.23,5.23,0,0,1-.57-.06L350.53,294a5,5,0,0,1-4.1-4.06L332.3,209.74H98a5,5,0,0,1,0-10H336.5a5,5,0,0,1,4.92,4.13l14.25,80.88,102.9,17.3c10,.59,28.37,6.58,28.37,25.38v67.46A16.22,16.22,0,0,1,483.41,407C479.46,411.77,472.84,414.19,463.75,414.19Z"/><path class="cls-1" d="M351.36,373.51a5,5,0,0,1-5-5V289.09a5,5,0,0,1,10,0v79.42A5,5,0,0,1,351.36,373.51Z"/><path class="cls-1" d="M418.66,373.51H78.84a5,5,0,0,1,0-10H418.66a5,5,0,1,1,0,10Z"/><path class="cls-1" d="M448.5,336.17a5,5,0,0,1-5-5V280.74c0-4.62-5.49-8.41-6.25-8.92l-18.57-9.74a5,5,0,1,1,4.64-8.85l18.75,9.83.25.14c.46.28,11.18,6.83,11.18,17.54v50.43A5,5,0,0,1,448.5,336.17Z"/><path class="cls-1" d="M349.5,283.57H248.75a5,5,0,0,1-5-5V227.91a5,5,0,0,1,5-5h91.83a5,5,0,0,1,0,10H253.75v40.66H349.5a5,5,0,0,1,0,10Z"/><path class="cls-1" d="M111,373.51a5,5,0,0,1-5-5V310.24a5,5,0,0,0-5-5H72.77a5,5,0,0,0-5,5v58.27a5,5,0,1,1-10,0V310.24a15,15,0,0,1,15-15H101a15,15,0,0,1,15,15v58.27A5,5,0,0,1,111,373.51Z"/><path class="cls-1" d="M183.89,373.51a5,5,0,0,1-5-5V310.24a5,5,0,0,0-5-5H145.64a5,5,0,0,0-5,5v58.27a5,5,0,0,1-10,0V310.24a15,15,0,0,1,15-15h28.25a15,15,0,0,1,15,15v58.27A5,5,0,0,1,183.89,373.51Z"/><path class="cls-1" d="M176.5,209.24a4.57,4.57,0,0,1-1-.11,5,5,0,0,1-3.86-5.92l10-47.5a5,5,0,0,1,4.89-4h102a5,5,0,0,1,4.93,4.17l8,47.5a5,5,0,1,1-9.86,1.66l-7.3-43.33H190.56l-9.17,43.53A5,5,0,0,1,176.5,209.24Z"/><path class="cls-1" d="M382.58,177.74H291.19a5,5,0,0,1,0-10h91.39a5,5,0,0,1,0,10Z"/><path class="cls-1" d="M97,104.24A14.35,14.35,0,0,1,82.67,89.91V70.07a14.33,14.33,0,0,1,28.66,0V89.91A14.35,14.35,0,0,1,97,104.24Zm0-38.5a4.33,4.33,0,0,0-4.33,4.33V89.91a4.33,4.33,0,0,0,8.66,0V70.07A4.33,4.33,0,0,0,97,65.74Z"/><path class="cls-1" d="M96.5,209.74a5,5,0,0,1-5-5V99.24a5,5,0,0,1,10,0v105.5A5,5,0,0,1,96.5,209.74Z"/></g><g id="Outline"><path class="cls-1" d="M378.07,336.17a5,5,0,0,1-5-5v-37.1a5,5,0,0,1,10,0v37.1A5,5,0,0,1,378.07,336.17Z"/><path class="cls-1" d="M400.5,336.17a5,5,0,0,1-5-5V297.7a5,5,0,0,1,10,0v33.47A5,5,0,0,1,400.5,336.17Z"/><path class="cls-1" d="M422.93,336.17a5,5,0,0,1-5-5V301.66a5,5,0,0,1,10,0v29.51A5,5,0,0,1,422.93,336.17Z"/><path class="cls-1" d="M268.12,185.07h-.24a5,5,0,0,1,0-10h.24a5,5,0,0,1,0,10Zm-20.24,0h-1a5,5,0,0,1,0-10h1a5,5,0,0,1,0,10Zm-21,0h-1a5,5,0,0,1,0-10h1a5,5,0,0,1,0,10Zm-21,0h-1a5,5,0,0,1,0-10h1a5,5,0,0,1,0,10Z"/><path class="cls-1" d="M320.5,323.54h-112a5,5,0,1,1,0-10h112a5,5,0,0,1,0,10Z"/><path class="cls-1" d="M320.5,356.07h-112a5,5,0,1,1,0-10h112a5,5,0,0,1,0,10Z"/><path class="cls-1" d="M320.5,339.81h-112a5,5,0,1,1,0-10h112a5,5,0,0,1,0,10Z"/></g></svg>