<?xml version="1.0" ?><svg viewBox="0 0 512 512" xmlns="http://www.w3.org/2000/svg"><defs><style>.cls-1{fill:#3f456b;}</style></defs><title/><g id="Lines"><path class="cls-1" d="M437.25,478.1a5,5,0,0,1-2.55-.7l-81.92-48.53a285.8,285.8,0,0,1-96.28,16.37c-65.41,0-126.94-21.24-173.26-59.79C36.66,346.68,11,295.05,11,240.07c0-32,8.56-62.65,25.45-91.1a5,5,0,1,1,8.6,5.1c-16,26.89-24,55.82-24,86,0,107.61,105.65,195.17,235.5,195.17a275.58,275.58,0,0,0,95.08-16.57,5,5,0,0,1,4.27.39l76.22,45.16-1.82-90.13a5,5,0,0,1,1.6-3.77C470.64,334.48,492,288.22,492,240.07,492,132.45,386.36,44.9,256.5,44.9a277.09,277.09,0,0,0-87.64,14,5,5,0,1,1-3.15-9.49A287,287,0,0,1,256.5,34.9c65.41,0,126.94,21.23,173.26,59.79C476.34,133.46,502,185.09,502,240.07c0,50.28-21.9,98.52-61.71,136.05l2,96.88a5,5,0,0,1-5,5.1Z"/><path class="cls-1" d="M256,270a31,31,0,1,1,31-31A31,31,0,0,1,256,270Zm0-52a21,21,0,1,0,21,21A21,21,0,0,0,256,218Z"/><path class="cls-1" d="M138,270a31,31,0,1,1,31-31A31,31,0,0,1,138,270Zm0-52a21,21,0,1,0,21,21A21,21,0,0,0,138,218Z"/><path class="cls-1" d="M375,270a31,31,0,1,1,31-31A31,31,0,0,1,375,270Zm0-52a21,21,0,1,0,21,21A21,21,0,0,0,375,218Z"/><path class="cls-1" d="M97.27,178.53a84.27,84.27,0,1,1,84.26-84.26A84.36,84.36,0,0,1,97.27,178.53ZM97.27,20a74.27,74.27,0,1,0,74.26,74.27A74.36,74.36,0,0,0,97.27,20Z"/></g><g id="Outline"><path class="cls-1" d="M124,133H73.17a5,5,0,0,1-3.45-8.63c1.36-1.29,33.35-31.66,41.38-38.85,6.71-6,6.89-13,6.89-13a3.87,3.87,0,0,1,0-.48,15,15,0,0,0-3.61-10.28c-3.25-3.51-8.66-5.29-16.08-5.29-7.06,0-12.36,1.8-15.73,5.35-4.76,5-4.44,12.25-4.44,12.32a5,5,0,0,1-10,.62c0-.46-.66-11.46,7.06-19.7,5.33-5.7,13.1-8.59,23.09-8.59,10.41,0,18.34,2.91,23.55,8.65,6.49,7.13,6.21,16.09,6.11,17.65A29.74,29.74,0,0,1,117.77,93c-5.27,4.72-21.62,20.15-32.06,30H124a5,5,0,0,1,0,10Z"/></g></svg>