<?xml version="1.0" ?><svg viewBox="0 0 512 512" xmlns="http://www.w3.org/2000/svg"><defs><style>.cls-1{fill:#3f456b;}.cls-2{fill:#3f466a;}</style></defs><title/><g id="Lines"><path class="cls-1" d="M140.94,200h-.34a5,5,0,0,1-4.66-5.32A180,180,0,0,1,423.6,63.11l.12.09s5.19,4.17,10,7.58a5,5,0,1,1-5.81,8.14c-4.77-3.41-9.7-7.35-10.35-7.87a170,170,0,0,0-271.6,124.28A5,5,0,0,1,140.94,200Z"/><path class="cls-1" d="M274.4,236.85a5,5,0,0,1-4.29-2.42,53,53,0,0,1,72.72-72.78,5,5,0,1,1-5.15,8.56,43,43,0,0,0-59,59,5,5,0,0,1-1.7,6.87A4.93,4.93,0,0,1,274.4,236.85Z"/><path class="cls-1" d="M315.45,260.07a52.85,52.85,0,0,1-26.25-7,5,5,0,0,1,5-8.68,43,43,0,0,0,58.94-58.25,5,5,0,1,1,8.74-4.86,53,53,0,0,1-46.4,78.76Z"/><path class="cls-1" d="M199.94,222.11a5,5,0,0,1-5-4.57,120.8,120.8,0,0,1,35-96c42.7-42.71,111-47.29,158.93-10.67a4.18,4.18,0,0,1,.5.43l2.48,2.48a5,5,0,1,1-7.07,7.07l-2.24-2.24c-43.93-33.37-106.43-29.1-145.53,10a110.79,110.79,0,0,0-32.1,88.09,5,5,0,0,1-4.55,5.42Z"/><path class="cls-1" d="M189,351.47a14.94,14.94,0,0,1-10.61-4.39L176.22,345a15,15,0,0,1,0-21.21l13.32-13.32a5,5,0,0,1,7.07,7.07l-13.32,13.32a5,5,0,0,0,0,7.07l2.12,2.12a5,5,0,0,0,7.07,0L449.16,83.33a5,5,0,0,0,0-7.07L447,74.14a5,5,0,0,0-7.07,0L425.12,89a5,5,0,0,1-7.07-7.07L432.9,67.07a15,15,0,0,1,21.21,0l2.12,2.12a15,15,0,0,1,0,21.21L199.55,347.08A14.91,14.91,0,0,1,189,351.47Z"/><path class="cls-1" d="M193.07,319a5,5,0,0,1-3.53-8.54L396,104a5,5,0,0,1,7.07,7.07L196.61,317.5A5,5,0,0,1,193.07,319Z"/><path class="cls-1" d="M396.84,89.75a5,5,0,0,1-3.54-1.47l-.71-.7a5,5,0,1,1,7.07-7.08l.71.71a5,5,0,0,1,0,7.07A5,5,0,0,1,396.84,89.75Z"/><path class="cls-1" d="M191.77,294.81a5,5,0,0,1-3.53-1.47l-.71-.7a5,5,0,1,1,7.07-7.07l.71.7a5,5,0,0,1-3.54,8.54Z"/><path class="cls-1" d="M114.35,217.38a5,5,0,0,1-3.54-1.47l-.71-.7a5,5,0,0,1,7.08-7.07l.7.71a5,5,0,0,1-3.53,8.53Z"/><path class="cls-1" d="M315.47,358.67a150.92,150.92,0,0,1-98-36,5,5,0,0,1,6.47-7.62A141.61,141.61,0,0,0,423.51,115.48a5,5,0,0,1,7.62-6.47A151.6,151.6,0,0,1,321.32,358.56C319.37,358.64,317.42,358.67,315.47,358.67Z"/><path class="cls-1" d="M103.79,376.35A78.09,78.09,0,0,1,48,353.64a79.07,79.07,0,0,1,0-111.7l48.87-48.87c.67-.67,16.57-16.27,34.55-8,10.42,4.78,50.94,24.44,52.66,25.28a5.82,5.82,0,0,1,.6.34c.08.05,9.41,6.1,14.55,1L259.92,151c2.05-2.26,27.55-29.55,59.86-30.42,16.78-.45,32.22,6.27,45.94,20a5,5,0,0,1-7.07,7.07C347,135.9,334,130.16,320.1,130.52c-28.66.75-52.6,26.95-52.84,27.22l-.18.19-60.76,60.76c-4.6,4.6-11.1,6.09-18.31,4.19a32.41,32.41,0,0,1-8.55-3.7c-3.62-1.76-42.31-20.52-52.18-25.05-11.74-5.37-23.21,5.9-23.32,6L55.09,249a69.06,69.06,0,0,0,0,97.56c26.65,26.64,72.06,26.25,99.16-.85L187,313a5,5,0,1,1,7.07,7.08l-32.72,32.72a80.75,80.75,0,0,1-56.59,23.56Z"/><path class="cls-1" d="M105.2,339.4a44,44,0,1,1,31.11-12.86A43.9,43.9,0,0,1,105.2,339.4Zm0-78a34,34,0,1,0,24,9.94A33.86,33.86,0,0,0,105.2,261.44Z"/><path class="cls-1" d="M78.15,223.88a5,5,0,0,1-3.54-1.47l-8.84-8.83a25,25,0,0,1,0-35.36l50.92-50.91a25,25,0,0,1,35.35,0l6.47,6.47a5,5,0,0,1-7.07,7.07L145,134.38a15,15,0,0,0-21.21,0L72.85,185.29a15,15,0,0,0,0,21.21l8.84,8.84a5,5,0,0,1-3.54,8.54Z"/><path class="cls-1" d="M469.81,500.5H41.72a15,15,0,0,1-15-15v-28a15,15,0,0,1,15-15H469.81a15,15,0,0,1,15,15v28A15,15,0,0,1,469.81,500.5Zm-428.09-48a5,5,0,0,0-5,5v28a5,5,0,0,0,5,5H469.81a5,5,0,0,0,5-5v-28a5,5,0,0,0-5-5Z"/><path class="cls-1" d="M452.91,75.45a5,5,0,0,1-3.54-8.54l23-23a14.21,14.21,0,0,0-20.1-20.09L413.88,62.23a5,5,0,0,1-7.07-7.07l38.43-38.44A24.21,24.21,0,1,1,479.48,51l-23,23A5,5,0,0,1,452.91,75.45Z"/><path class="cls-1" d="M66.2,452.5a4.53,4.53,0,0,1-.89-.08,5,5,0,0,1-4-5.81l14.3-79.5a5,5,0,1,1,9.84,1.78l-14.3,79.5A5,5,0,0,1,66.2,452.5Z"/><path class="cls-1" d="M142.3,452.5a5,5,0,0,1-4.92-4.11l-14.3-79.5a5,5,0,0,1,9.84-1.78l14.3,79.5a5,5,0,0,1-4,5.81A5.45,5.45,0,0,1,142.3,452.5Z"/><path class="cls-1" d="M135.15,404.5a5,5,0,0,1,0-10c13-.08,21.6-3.41,25.44-9.89,6.53-11-1-30.07-4.48-36.48a5,5,0,0,1,8.8-4.75c.62,1.15,15,28.24,4.28,46.33-5.75,9.71-17.18,14.69-34,14.79Z"/><path class="cls-1" d="M16.51,452.5a6.13,6.13,0,0,1-.74-.05,5,5,0,0,1-4.22-5.68c2.6-17.49,9.79-30.51,21.39-38.71,18.42-13,41-8.82,42-8.63a5,5,0,0,1-1.9,9.81c-.32-.06-19.55-3.51-34.38,7-9.24,6.57-15,17.32-17.19,32A5,5,0,0,1,16.51,452.5Z"/><path class="cls-1" d="M262.48,452.5a5,5,0,0,1-5-5V428.63c-7.15-.84-12.91-3.58-17.16-8.16a28.62,28.62,0,0,1-7-16H135.15a5,5,0,1,1,0-10H238.06a5,5,0,0,1,5,5.37c0,.06-.48,8.38,4.65,13.86,3.23,3.44,8.2,5.19,14.78,5.19a5,5,0,0,1,5,5V447.5A5,5,0,0,1,262.48,452.5Z"/><path class="cls-1" d="M448.5,452.5a5,5,0,0,1-5-5v-43H331.74a28.62,28.62,0,0,1-7,16c-4.25,4.58-10,7.32-17.16,8.16V447.5a5,5,0,0,1-10,0V423.92a5,5,0,0,1,5-5c6.58,0,11.55-1.75,14.78-5.19,5.13-5.48,4.66-13.8,4.65-13.88a5,5,0,0,1,5-5.35H448.5a5,5,0,0,1,5,5v48A5,5,0,0,1,448.5,452.5Z"/></g><g id="Outline"><path class="cls-1" d="M171.83,182.78a4.47,4.47,0,0,1-1-.1,5,5,0,0,1-4-5.86A150.21,150.21,0,0,1,284.7,58.49a5,5,0,1,1,2,9.8A140.24,140.24,0,0,0,176.73,178.73,5,5,0,0,1,171.83,182.78Z"/><path class="cls-1" d="M491.81,207a5,5,0,0,1-5-4.82l0-.47a5,5,0,1,1,10-.41l0,.53A5,5,0,0,1,492,207Z"/><path class="cls-1" d="M454.36,321.62a5,5,0,0,1-3.93-8.1l.59-.75a5,5,0,0,1,7.89,6.15l-.62.79A5,5,0,0,1,454.36,321.62Zm11.71-16.84a4.92,4.92,0,0,1-2.59-.73,5,5,0,0,1-1.68-6.87l.51-.82a5,5,0,1,1,8.55,5.17l-.51.85A5,5,0,0,1,466.07,304.78Zm9.66-18.09a5,5,0,0,1-4.53-7.1l.39-.85a5,5,0,0,1,9.11,4.12l-.42.93A5,5,0,0,1,475.73,286.69Zm7.51-19.09a5,5,0,0,1-4.75-6.57l.29-.89a5,5,0,0,1,9.52,3.06l-.31,1A5,5,0,0,1,483.24,267.6Zm5.24-19.83a5,5,0,0,1-4.9-6l.18-.92a5,5,0,0,1,9.81,1.92l-.2,1A5,5,0,0,1,488.48,247.77Zm2.88-20.3-.43,0a5,5,0,0,1-4.56-5.4l.07-.93a5,5,0,0,1,10,.75l-.09,1A5,5,0,0,1,491.36,227.47Z"/><path class="cls-1" d="M441.07,336.62a5,5,0,0,1-3.53-8.54l.26-.26.07-.08a5,5,0,1,1,7.1,7.05l-3.55-3.52,3.48,3.58-.3.31A5,5,0,0,1,441.07,336.62Z"/><path class="cls-1" d="M194.61,44.08a16.89,16.89,0,0,1-2.33-.14A5,5,0,1,1,193.62,34c1.21.15,4.21,0,5.49-1.21.72-.71,1-2.05.78-4-.69-6.51,1.7-10.26,3.82-12.26,5.06-4.77,12.67-3.68,13.52-3.54a5,5,0,0,1-1.6,9.87c-1.11-.16-3.92-.15-5.07.95-.85.82-.87,2.59-.72,3.93.68,6.41-1.68,10.18-3.78,12.21C202.47,43.5,197.53,44.08,194.61,44.08Z"/><path class="cls-1" d="M170.77,65.43a17,17,0,0,1-2.33-.14,5,5,0,1,1,1.34-9.91c1.21.15,4.21,0,5.49-1.21.72-.72,1-2.05.78-4-.69-6.51,1.7-10.26,3.82-12.26,5.06-4.78,12.67-3.68,13.52-3.54a5,5,0,0,1-1.6,9.87c-1.11-.16-3.92-.15-5.07,1-.85.82-.86,2.59-.72,3.93.68,6.4-1.68,10.18-3.77,12.21C178.63,64.84,173.69,65.43,170.77,65.43Z"/><path class="cls-1" d="M146.94,86.78a19,19,0,0,1-2.34-.14,5,5,0,0,1,1.34-9.91c1.22.15,4.21,0,5.49-1.21.73-.72,1-2.06.79-4-.69-6.51,1.69-10.26,3.81-12.26,5.06-4.78,12.67-3.68,13.52-3.54a5,5,0,0,1-1.6,9.87c-1.11-.17-3.92-.15-5.07,1-.85.82-.86,2.59-.72,3.93.68,6.4-1.68,10.18-3.77,12.21C154.79,86.19,149.85,86.78,146.94,86.78Z"/><path class="cls-1" d="M123.1,108.13a19,19,0,0,1-2.34-.14,5,5,0,0,1,1.34-9.91c1.22.15,4.21,0,5.49-1.22.73-.71,1-2,.79-4-.69-6.51,1.69-10.26,3.81-12.27,5.06-4.77,12.67-3.68,13.52-3.53a5,5,0,0,1-1.6,9.87c-1.11-.17-3.92-.15-5.07,1-.85.82-.86,2.59-.72,3.92.68,6.41-1.67,10.18-3.77,12.22C131,107.54,126,108.13,123.1,108.13Z"/><path class="cls-2" d="M214.32,423.5a5,5,0,0,1-5-5V400.13a5,5,0,0,1,10,0V418.5A5,5,0,0,1,214.32,423.5Z"/><path class="cls-2" d="M169,423.5a5,5,0,0,1-5-5V400.13a5,5,0,0,1,10,0V418.5A5,5,0,0,1,169,423.5Z"/><path class="cls-2" d="M191.67,423.5a5,5,0,0,1-5-5V400.13a5,5,0,0,1,10,0V418.5A5,5,0,0,1,191.67,423.5Z"/><path class="cls-2" d="M420.58,423.5a5,5,0,0,1-5-5V400.13a5,5,0,0,1,10,0V418.5A5,5,0,0,1,420.58,423.5Z"/><path class="cls-2" d="M375.29,423.5a5,5,0,0,1-5-5V400.13a5,5,0,0,1,10,0V418.5A5,5,0,0,1,375.29,423.5Z"/><path class="cls-2" d="M397.94,423.5a5,5,0,0,1-5-5V400.13a5,5,0,0,1,10,0V418.5A5,5,0,0,1,397.94,423.5Z"/><path class="cls-2" d="M352.64,423.5a5,5,0,0,1-5-5V400.13a5,5,0,0,1,10,0V418.5A5,5,0,0,1,352.64,423.5Z"/></g></svg>