<?xml version="1.0" ?><svg viewBox="0 0 512 512" xmlns="http://www.w3.org/2000/svg"><defs><style>.cls-1{fill:#3f456b;}</style></defs><title/><g id="Lines"><path class="cls-1" d="M441.4,503H383a5,5,0,0,1,0-10h58.4c18.76,0,34.6-16.26,34.6-35.51V55.84A34.76,34.76,0,0,0,441.4,21H249a5,5,0,1,1,0-10H441.4A44.78,44.78,0,0,1,486,55.84V457.49C486,482.58,466,503,441.4,503Z"/><path class="cls-1" d="M377.4,503h-305C47.8,503,27,482.16,27,457.49V55.84A44.13,44.13,0,0,1,40.5,24.13,45.4,45.4,0,0,1,72.43,11h305A44.78,44.78,0,0,1,422,55.84V457.49C422,482.58,402,503,377.4,503ZM72.43,21C53.23,21,37,37,37,55.84V457.49C37,476.74,53.23,493,72.43,493h305c18.76,0,34.6-16.26,34.6-35.51V55.84A34.76,34.76,0,0,0,377.4,21Z"/><path class="cls-1" d="M373,421H73a15,15,0,0,1-15-15V58A15,15,0,0,1,73,43H373a15,15,0,0,1,15,15V406A15,15,0,0,1,373,421ZM73,53a5,5,0,0,0-5,5V406a5,5,0,0,0,5,5H373a5,5,0,0,0,5-5V58a5,5,0,0,0-5-5Z"/><path class="cls-1" d="M330,143.67a5,5,0,0,1-3.43-1.37L295,112.54,263.43,142.3a5,5,0,0,1-8.43-3.63V49h10v78.08l26.57-25a5,5,0,0,1,6.86,0l26.57,25V50h10v88.67a5,5,0,0,1-3,4.59A5.09,5.09,0,0,1,330,143.67Z"/><path class="cls-1" d="M248,457H198a5,5,0,0,1,0-10h50a5,5,0,0,1,0,10Z"/></g><g id="Outline"><path class="cls-1" d="M346,173H207a5,5,0,0,1,0-10H346a5,5,0,0,1,0,10Z"/><path class="cls-1" d="M346,205H106a5,5,0,0,1,0-10H346a5,5,0,0,1,0,10Z"/><path class="cls-1" d="M220.72,361a5,5,0,0,1,5-5h0a5,5,0,0,1,5,5h0a5,5,0,0,1-5,5h0A5,5,0,0,1,220.72,361Zm-20,0a5,5,0,0,1,5-5h0a5,5,0,0,1,5,5h0a5,5,0,0,1-5,5h0A5,5,0,0,1,200.72,361Zm-20,0a5,5,0,0,1,5-5h0a5,5,0,0,1,5,5h0a5,5,0,0,1-5,5h0A5,5,0,0,1,180.72,361Zm-20,0a5,5,0,0,1,5-5h0a5,5,0,0,1,5,5h0a5,5,0,0,1-5,5h0A5,5,0,0,1,160.72,361Zm-20,0a5,5,0,0,1,5-5h0a5,5,0,0,1,5,5h0a5,5,0,0,1-5,5h0A5,5,0,0,1,140.72,361Zm-20,0a5,5,0,0,1,5-5h0a5,5,0,0,1,5,5h0a5,5,0,0,1-5,5h0A5,5,0,0,1,120.72,361Zm-20,0a5,5,0,0,1,5-5h0a5,5,0,0,1,5,5h0a5,5,0,0,1-5,5h0A5,5,0,0,1,100.72,361Zm240,0a5,5,0,0,1,5-5h0a5,5,0,0,1,5,5h0a5,5,0,0,1-5,5h0A5,5,0,0,1,340.72,361Zm-20,0a5,5,0,0,1,5-5h0a5,5,0,0,1,5,5h0a5,5,0,0,1-5,5h0A5,5,0,0,1,320.72,361Zm-20,0a5,5,0,0,1,5-5h0a5,5,0,0,1,5,5h0a5,5,0,0,1-5,5h0A5,5,0,0,1,300.72,361Zm-20,0a5,5,0,0,1,5-5h0a5,5,0,0,1,5,5h0a5,5,0,0,1-5,5h0A5,5,0,0,1,280.72,361Zm-20,0a5,5,0,0,1,5-5h0a5,5,0,0,1,5,5h0a5,5,0,0,1-5,5h0A5,5,0,0,1,260.72,361Zm-20,0a5,5,0,0,1,5-5h0a5,5,0,0,1,5,5h0a5,5,0,0,1-5,5h0A5,5,0,0,1,240.72,361Z"/><path class="cls-1" d="M105.72,333.88a5,5,0,0,1,0-10H346a5,5,0,0,1,0,10Z"/><path class="cls-1" d="M105.72,301.75a5,5,0,0,1,0-10H346a5,5,0,0,1,0,10Z"/><path class="cls-1" d="M346,238H107a5,5,0,0,1,0-10H346a5,5,0,0,1,0,10Z"/><path class="cls-1" d="M105.72,269.63a5,5,0,0,1,0-10H346a5,5,0,0,1,0,10Z"/><path class="cls-1" d="M173,109H105a5,5,0,0,1,0-10h68a5,5,0,0,1,0,10Z"/><path class="cls-1" d="M138,173a5,5,0,0,1-5-5V104a5,5,0,0,1,10,0v64A5,5,0,0,1,138,173Z"/></g></svg>