<?xml version="1.0" ?><svg id="Lines" viewBox="0 0 512 512" xmlns="http://www.w3.org/2000/svg"><defs><style>.cls-1{fill:#3f456b;}</style></defs><title/><path class="cls-1" d="M255.1,169.7c-16.84,0-27.93-8.47-28.32-21.71a5,5,0,0,1,10-.3c.33,11.06,13.3,12.07,18.86,12s10.72-2.2,13.51-5.41a9.17,9.17,0,0,0,2.16-7.59c-.51-3.89-2.84-6.8-12.55-8.39l-2.83-.43c-8.39-1.27-17.89-2.7-24.37-11.87a16.12,16.12,0,0,1-2.76-12.44,22.83,22.83,0,0,1,9.79-14.28c7.21-4.89,18.27-5.64,27.5-1.85a26.56,26.56,0,0,1,14.73,14.69,5,5,0,1,1-9.31,3.64,16.72,16.72,0,0,0-9.21-9.08c-6.17-2.53-13.61-2.17-18.1.88a13.06,13.06,0,0,0-5.56,7.79,6.2,6.2,0,0,0,1.08,4.88c3.83,5.41,9.22,6.47,17.7,7.75,1,.15,2,.29,2.95.45,4.71.77,19,3.11,20.85,17a19.13,19.13,0,0,1-4.52,15.43c-4.7,5.44-12.53,8.75-20.93,8.86Z"/><path class="cls-1" d="M255,105a5,5,0,0,1-5-5V85a5,5,0,0,1,10,0v15A5,5,0,0,1,255,105Z"/><path class="cls-1" d="M255,185a5,5,0,0,1-5-5V165a5,5,0,0,1,10,0v15A5,5,0,0,1,255,185Z"/><path class="cls-1" d="M255.09,213.11A81.89,81.89,0,1,1,337,131.22h0A82,82,0,0,1,255.09,213.11Zm0-153.78A71.89,71.89,0,1,0,327,131.22,72,72,0,0,0,255.09,59.33Z"/><path class="cls-1" d="M251,379H224a5,5,0,0,1,0-10h27a5,5,0,0,1,0,10Z"/><path class="cls-1" d="M251,399H224a5,5,0,0,1,0-10h27a5,5,0,0,1,0,10Z"/><path class="cls-1" d="M255.79,463.42a81.89,81.89,0,1,1,81.89-81.89A82,82,0,0,1,255.79,463.42Zm0-153.78a71.89,71.89,0,1,0,71.89,71.89A72,72,0,0,0,255.79,309.64Z"/><path class="cls-1" d="M256,427.5a26,26,0,0,1-18.59-7.77,26.31,26.31,0,0,1-7.64-18.62l-.32-36.65a26.32,26.32,0,1,1,52.63,0,5,5,0,0,1-10,0,16.32,16.32,0,0,0-32.63,0l.32,36.64a16.39,16.39,0,0,0,4.75,11.64A16,16,0,0,0,256,417.5a16.25,16.25,0,0,0,16.23-16.23,5,5,0,0,1,10,0A26.25,26.25,0,0,1,256,427.5Z"/><path class="cls-1" d="M396,263H351a5,5,0,0,1,0-10h45a5,5,0,0,1,0,10Z"/><path class="cls-1" d="M380.1,337.7A81.89,81.89,0,1,1,462,255.81,82,82,0,0,1,380.1,337.7Zm0-153.78A71.89,71.89,0,1,0,452,255.81,72,72,0,0,0,380.09,183.92Z"/><path class="cls-1" d="M130.5,337.7h0a81.87,81.87,0,1,1,57.9-24A82,82,0,0,1,130.5,337.7Zm0-153.78a71.9,71.9,0,1,0,71.88,71.89A72,72,0,0,0,130.5,183.92Z"/><path class="cls-1" d="M129,302a5,5,0,0,1-5-5V255a5,5,0,0,1,10,0v42A5,5,0,0,1,129,302Z"/><path class="cls-1" d="M154,265H104a5,5,0,0,1,0-10h50a5,5,0,0,1,0,10Z"/><path class="cls-1" d="M154,284H104a5,5,0,0,1,0-10h50a5,5,0,0,1,0,10Z"/><path class="cls-1" d="M129.5,260.42h0a5,5,0,0,1-3.8-1.76L96.61,224.5a5,5,0,1,1,7.61-6.48l25.29,29.7L155,218a5,5,0,1,1,7.59,6.5l-29.25,34.17A5,5,0,0,1,129.5,260.42Z"/><path class="cls-1" d="M405,299H348.6a5,5,0,0,1-.71-9.95c16.23-2.32,15.17-21.49,15.12-22.3,0-.11,0-.22,0-.33V236c.34-9.17,3.51-16.17,9.42-20.8,10.63-8.32,26.06-5.22,26.7-5.09a5,5,0,0,1-2,9.8c-.23-.05-11.64-2.25-18.54,3.19-3.49,2.75-5.31,7.06-5.55,13.18v30c.36,6.05-1,15.49-6.39,22.73H405a5,5,0,0,1,0,10Z"/><path class="cls-1" d="M406.05,436.08H406a5,5,0,0,1-4.91-5.08l.57-32.95L369,397.65a5,5,0,0,1,.06-10h.06l37.68.45a5,5,0,0,1,4.94,5.08l-.65,38A5,5,0,0,1,406.05,436.08Z"/><path class="cls-1" d="M155.49,111.32h-.06l-37.68-.45a5,5,0,0,1-4.94-5.08l.65-38a5,5,0,0,1,10,.17l-.57,33,32.65.39a5,5,0,0,1,0,10Z"/><path class="cls-1" d="M423.85,381.85a5,5,0,0,1-3.54-8.54l37.74-37.73a113,113,0,0,0,0-159.62L335.81,53.72a112.89,112.89,0,0,0-159.62,0l-53.82,53.82a5,5,0,0,1-7.07-7.07l53.82-53.82a122.88,122.88,0,0,1,173.76,0L465.12,168.89a123,123,0,0,1,0,173.76l-37.74,37.73A5,5,0,0,1,423.85,381.85Z"/><path class="cls-1" d="M256,500.88a122.1,122.1,0,0,1-86.88-36L46.88,342.65a122.86,122.86,0,0,1,0-173.76l52-52A5,5,0,0,1,106,124L54,176a112.86,112.86,0,0,0,0,159.62L176.19,457.82a112.86,112.86,0,0,0,159.62,0l65.67-65.67a5,5,0,0,1,7.07,7.07l-65.67,65.67A122.1,122.1,0,0,1,256,500.88Z"/></svg>