<?xml version="1.0" ?><svg viewBox="0 0 512 512" xmlns="http://www.w3.org/2000/svg"><defs><style>.cls-1{fill:#3f456b;}</style></defs><title/><g id="Lines"><path class="cls-1" d="M221.91,465H83.6a5,5,0,0,1-5-5V390a5,5,0,0,1,5-5H221.91a5,5,0,0,1,5,5v70A5,5,0,0,1,221.91,465ZM88.6,455H216.91V395H88.6Z"/><path class="cls-1" d="M465,499H48a5,5,0,0,1-5-5V334a5,5,0,0,1,10,0V489H460V334a5,5,0,0,1,10,0V494A5,5,0,0,1,465,499Z"/><path class="cls-1" d="M256.49,499a5,5,0,0,1-5-5V238a5,5,0,0,1,10,0V494A5,5,0,0,1,256.49,499Z"/><path class="cls-1" d="M496,339H288a5,5,0,0,1-4.76-3.46l-31-96A5,5,0,0,1,257,233H465a5,5,0,0,1,4.76,3.46l31,96A5,5,0,0,1,496,339ZM291.64,329H489.13l-27.77-86H263.87Z"/><path class="cls-1" d="M226,339H18a5,5,0,0,1-4.76-6.54l31-96A5,5,0,0,1,49,233H257a5,5,0,0,1,4.76,6.54l-31,96A5,5,0,0,1,226,339ZM24.87,329H222.36l27.77-86H52.64Z"/><path class="cls-1" d="M201,212a5,5,0,0,1-3.84-1.8L158.66,164H62a35,35,0,0,1-35-35V61A35,35,0,0,1,62,26H450a35,35,0,0,1,35,35v68a35,35,0,0,1-35,35H242.38l-37.5,46.15A5,5,0,0,1,201,212ZM62,36A25,25,0,0,0,37,61v68a25,25,0,0,0,25,25h99a5,5,0,0,1,3.84,1.8L201,199.13l35.17-43.28A5,5,0,0,1,240,154H450a25,25,0,0,0,25-25V61a25,25,0,0,0-25-25Z"/></g><g id="Outline"><path class="cls-1" d="M198.52,419H106a5,5,0,0,1,0-10h92.55a5,5,0,0,1,0,10Z"/><path class="cls-1" d="M198.52,442H106a5,5,0,0,1,0-10h92.55a5,5,0,0,1,0,10Z"/><path class="cls-1" d="M337,463.7a5,5,0,0,1-3.53-8.53,49.07,49.07,0,0,1,69.4,0,5,5,0,0,1-7.07,7.07,39.07,39.07,0,0,0-55.26,0A5,5,0,0,1,337,463.7Z"/><path class="cls-1" d="M417.47,445.53a5,5,0,0,1-3.53-1.47,64.77,64.77,0,0,0-91.6,0,5,5,0,0,1-7.07-7.07A74.77,74.77,0,0,1,421,437a5,5,0,0,1-3.54,8.54Z"/><path class="cls-1" d="M299.77,426.5a5,5,0,0,1-3.53-8.53A101.67,101.67,0,0,1,440,418,5,5,0,0,1,433,425a91.66,91.66,0,0,0-129.65,0A5,5,0,0,1,299.77,426.5Z"/><path class="cls-1" d="M372.62,122a4.82,4.82,0,0,1-1.74-.32,5,5,0,0,1-2.94-6.43L384.46,71H358.74a5,5,0,0,1,0-10h32.92a5,5,0,0,1,4.68,6.75l-19,51A5,5,0,0,1,372.62,122Z"/><path class="cls-1" d="M280.29,121.38H246.84a5,5,0,0,1-3.45-8.63c.9-.85,22-20.86,27.27-25.61a11.28,11.28,0,0,0,4-7.38,1.73,1.73,0,0,1,0-.39h0a8.17,8.17,0,0,0-1.95-5.47C270.89,72,267.76,71,263.4,71c-4.19,0-7.27,1-9.15,3a10.34,10.34,0,0,0-2.43,6.76,5,5,0,1,1-10,.66A20.09,20.09,0,0,1,247,67.19c3.85-4.11,9.38-6.2,16.45-6.2,7.35,0,13,2.11,16.76,6.25a18,18,0,0,1,4.46,12.85,21.06,21.06,0,0,1-7.29,14.51c-3,2.65-11.3,10.5-17.95,16.78h20.91a5,5,0,0,1,0,10Z"/><path class="cls-1" d="M200.56,122.87a64.92,64.92,0,0,1-9.81-.73,5,5,0,0,1,1.67-9.86C197,113,210.15,113.94,216,109a8.43,8.43,0,0,0,2.88-6.93,8.52,8.52,0,0,0-2.92-7c-5.87-5-19.33-4.2-23.58-3.52a5,5,0,0,1-5.79-4.94V66a5,5,0,0,1,5-5h32.29a5,5,0,1,1,0,10H196.59V81.12c1.66-.08,3.58-.12,5.63,0,8.83.32,15.64,2.46,20.23,6.38a18.54,18.54,0,0,1,6.43,14.61,18.4,18.4,0,0,1-6.44,14.57c-4.6,3.89-11.42,6-20.26,6.21Z"/><path class="cls-1" d="M430.86,99.91c-13.86,0-21.81-7.15-21.81-19.62a18,18,0,0,1,5.35-13.08c4.11-4.07,10-6.29,16.76-6.22,12.81.12,21.77,8.19,21.77,19.62C452.93,92.87,444.88,99.91,430.86,99.91Zm0-28.92c-3.88,0-7.32,1.21-9.45,3.32a8.09,8.09,0,0,0-2.39,6c0,5,1.43,9.62,11.81,9.62,10.6,0,12.07-4.47,12.07-9.3,0-7-6.13-9.56-11.86-9.62Z"/><path class="cls-1" d="M431.45,123c-8.39,0-14.51-2.2-18.17-6.52a14.15,14.15,0,0,1-3.23-11l9.86,1.66,0-.13a4.25,4.25,0,0,0,1.07,3.09c1.66,1.86,5.38,2.89,10.45,2.89,4.24,0,7.32-1,9.16-3.1,2.88-3.21,2.35-8.25,2.35-8.3a5.85,5.85,0,0,1,0-.59V80.87a5,5,0,1,1,10,0v19.91c.19,1.94.53,9.7-4.76,15.71C444.34,120.83,438.72,123,431.45,123Z"/><path class="cls-1" d="M326.37,122h-14a15,15,0,0,1-15-15V76a15,15,0,0,1,15-15h14a15,15,0,0,1,15,15v31A15,15,0,0,1,326.37,122Zm-14-51a5,5,0,0,0-5,5v31a5,5,0,0,0,5,5h14a5,5,0,0,0,5-5V76a5,5,0,0,0-5-5Z"/><path class="cls-1" d="M112.76,138.31a12.39,12.39,0,0,1-7.19-2.35c-1.75-1.23-21.57-15.41-36.44-35.69-7.63-10.4-9.39-22.08-4.83-32A30.21,30.21,0,0,1,89.52,51c11.24-.93,18.7,3.61,23.09,8.64,4.39-5,11.84-9.57,23.09-8.64a30.21,30.21,0,0,1,25.22,17.23c4.56,10,2.79,21.64-4.83,32-15,20.41-34.94,34.65-36.48,35.72A11.31,11.31,0,0,1,112.76,138.31ZM111.59,128a1.67,1.67,0,0,0,2.1,0l.13-.1c.27-.19,20-14.11,34.21-33.48,5.49-7.5,6.84-15.3,3.8-22C148.94,66,142.29,61.56,134.89,61c-13.85-1.14-17.18,9.09-17.31,9.52A5,5,0,0,1,112.8,74h-.38a5,5,0,0,1-4.78-3.52c-.35-1-3.94-10.6-17.31-9.52-7.4.6-14,5.08-16.94,11.42-3,6.67-1.7,14.48,3.8,22,14.27,19.47,34,33.34,34.2,33.48A1.58,1.58,0,0,1,111.59,128Z"/></g></svg>