<?xml version="1.0" ?><svg id="Lines" viewBox="0 0 512 512" xmlns="http://www.w3.org/2000/svg"><defs><style>.cls-1{fill:#3f456b;}</style></defs><title/><path class="cls-1" d="M492.85,216.79H18.19a5,5,0,1,1,0-10H492.85a5,5,0,0,1,0,10Z"/><path class="cls-1" d="M351.64,217.12a5,5,0,0,1-4.05-2.07L252,82.93a5,5,0,0,1,8.1-5.86l89.24,123.27L378,78.85a5,5,0,1,1,9.73,2.3L356.51,213.27a5,5,0,0,1-3.89,3.75A5.52,5.52,0,0,1,351.64,217.12Z"/><path class="cls-1" d="M160.88,217.12a4.47,4.47,0,0,1-1-.1,5,5,0,0,1-3.9-3.74L124.31,81.17A5,5,0,0,1,134,78.83L163.2,200.34,251.94,77.08a5,5,0,0,1,8.12,5.84L164.94,215A5,5,0,0,1,160.88,217.12Z"/><path class="cls-1" d="M312.76,324.91a4.79,4.79,0,0,1-1.69-.3,5,5,0,0,1-3-6.4l38.88-107.79a5,5,0,1,1,9.4,3.39l-38.87,107.8A5,5,0,0,1,312.76,324.91Z"/><path class="cls-1" d="M349.78,376.92a5,5,0,0,1-3.72-8.34L486.73,211.77,380.52,85h-249L25.31,211.77,166,368a5,5,0,0,1-7.43,6.7L15,215.23a5,5,0,0,1-.12-6.55L125.34,76.79A5,5,0,0,1,129.17,75H382.85a5,5,0,0,1,3.84,1.79L497.18,208.68a5,5,0,0,1-.11,6.55l-143.57,160A5,5,0,0,1,349.78,376.92Z"/><path class="cls-1" d="M200,324.91a5,5,0,0,1-4.7-3.3L156.18,213.82a5,5,0,0,1,9.4-3.41l39.08,107.8a5,5,0,0,1-3,6.4A5.14,5.14,0,0,1,200,324.91Z"/><path class="cls-1" d="M317,478.38a5,5,0,0,1-4.6-3,112.39,112.39,0,0,0-31.42-42.59,5,5,0,0,1,.78-8.22,49,49,0,1,0-49.6-1.33,5,5,0,0,1,.47,8.16A111.79,111.79,0,0,0,199.8,474.3a5,5,0,0,1-9.15-4,122.36,122.36,0,0,1,30.64-42.46,59,59,0,1,1,71.15,1.78,123,123,0,0,1,29.1,41.83,5,5,0,0,1-2.62,6.57A5.1,5.1,0,0,1,317,478.38Z"/><path class="cls-1" d="M255.91,501.36A102.09,102.09,0,1,1,358,399.27,102.21,102.21,0,0,1,255.91,501.36Zm0-194.18A92.09,92.09,0,1,0,348,399.27,92.19,92.19,0,0,0,255.91,307.18Z"/><path class="cls-1" d="M448.94,124a5,5,0,0,1-4.88-3.91c-.08-.39-9.35-39.63-44.21-47.44a5,5,0,0,1,.15-9.79c1.61-.31,39.24-8.06,44-47.46a5,5,0,0,1,9.9-.22,74.14,74.14,0,0,0,8.37,22.06c8.41,14.56,20.35,23.17,35.48,25.59a5,5,0,0,1,.23,9.84c-1.54.32-38.19,8.55-44.07,47.08a5,5,0,0,1-4.78,4.25ZM416.05,67.82c17.09,8.46,26.93,23.37,32.26,34.74A64.64,64.64,0,0,1,472.6,73.25a76.22,76.22,0,0,1,8.67-5c-11.39-5.18-20.86-14.09-27.85-26.32a81.21,81.21,0,0,1-4-7.91,62.48,62.48,0,0,1-23.72,28.41A75.25,75.25,0,0,1,416.05,67.82Z"/><path class="cls-1" d="M80.94,488a5,5,0,0,1-4.88-3.91c-.08-.39-9.35-39.63-44.21-47.44a5,5,0,0,1,.15-9.79c1.61-.31,39.24-8.06,44-47.46a5,5,0,0,1,9.9-.22,74.14,74.14,0,0,0,8.37,22.06c8.41,14.56,20.35,23.17,35.48,25.59a5,5,0,0,1,.23,9.84c-1.54.32-38.19,8.55-44.07,47.08A5,5,0,0,1,81.11,488ZM48.05,431.82c17.09,8.46,26.93,23.37,32.26,34.74a64.64,64.64,0,0,1,24.29-29.31,76.22,76.22,0,0,1,8.67-5c-11.39-5.18-20.86-14.09-27.85-26.32a81.21,81.21,0,0,1-4-7.91,62.48,62.48,0,0,1-23.72,28.41A75.25,75.25,0,0,1,48.05,431.82Z"/></svg>