<?xml version="1.0" ?><svg viewBox="0 0 512 512" xmlns="http://www.w3.org/2000/svg"><defs><style>.cls-1{fill:#3f456b;}</style></defs><title/><g id="Lines"><path class="cls-1" d="M151.9,340H130.54c-5.24,0-9.47-2.79-11.91-7.86a21.2,21.2,0,0,1-1.87-6.51l-3.4-19.79a5,5,0,0,1,9.86-1.69l3.42,20c0,.14,0,.28,0,.42s.59,5.48,3.85,5.48H151.9c3.29,0,3.85-5.42,3.85-5.48s0-.28.05-.42l3.42-19.88a5,5,0,0,1,9.86,1.7l-3.39,19.68C165.18,330.72,161.69,340,151.9,340Z"/><path class="cls-1" d="M58.17,71.93a5,5,0,0,1-4.35-2.51L43.57,51.51C40.65,47.16,37.35,37.59,45,31.14L61.83,16.83C69.5,10.33,78.3,15.35,82,19L97.7,32.47a5,5,0,0,1-6.51,7.59L75.39,26.51c-.11-.09-.21-.19-.31-.29s-4.12-4-6.78-1.76L51.42,38.77c-2.77,2.35.47,7.19.5,7.24s.16.24.23.36L62.5,64.45a5,5,0,0,1-4.33,7.48Z"/><path class="cls-1" d="M141,501a5,5,0,0,1-5-5V335a5,5,0,0,1,10,0V496A5,5,0,0,1,141,501Z"/><path class="cls-1" d="M141,502c-38.32,0-69.5-28.9-69.5-64.42,0-16.7,7.16-33.89,20.7-49.72A129.54,129.54,0,0,1,139,353.79a5,5,0,0,1,4.26.16c32.49,16.84,67.2,47.65,67.2,83.63C210.5,473.1,179.32,502,141,502Zm-.2-138.06C111,377.42,81.5,406.57,81.5,437.58c0,30,26.69,54.42,59.5,54.42s59.5-24.42,59.5-54.42c0-13.8-6.5-28.41-18.81-42.27C171.33,383.64,156.87,372.56,140.8,363.94Z"/><path class="cls-1" d="M141,502c-22.29,0-39.74-28.3-39.74-64.42,0-37.17,19-69.14,36.64-83.11a5,5,0,0,1,6.57.32c17.53,16.87,36.27,47.48,36.27,82.79C180.74,473.7,163.29,502,141,502Zm-.27-136.78c-15.15,14.16-29.47,42.25-29.47,72.36,0,29.5,13.62,54.42,29.74,54.42s29.74-24.92,29.74-54.42C170.74,407.54,155.78,381.16,140.73,365.22Z"/><path class="cls-1" d="M412.7,310.16c-2.39,0-4-.11-4.66-.16H100.22C53.27,310,31,282.29,20.59,259A135.85,135.85,0,0,1,9.38,209c0-44.64,8.3-82.78,24.67-113.37A153.82,153.82,0,0,1,88.81,36.76C128.1,12.28,166.89,12,168.52,12H323.07c70.64,0,118.33,19.22,145.8,58.77C496,109.87,499.5,165,499.5,208.62c0,35.7-9.78,62.7-29.07,80.26C449.43,308,423.41,310.16,412.7,310.16ZM168.53,22c-.38,0-37.92.35-74.82,23.48a143.91,143.91,0,0,0-51,55.15C27.23,129.71,19.38,166.17,19.38,209c0,.22.19,23.46,10.46,46.23C43.25,284.94,66.93,300,100.22,300h308l.47,0c.31,0,31.82,2.61,55.06-18.62,17.07-15.59,25.72-40.07,25.72-72.78,0-80.31-15.42-112.8-28.85-132.14C435.19,39.82,390.19,22,323.07,22Z"/><path class="cls-1" d="M270.87,186.08c-9.31,0-35.12-1.59-52.64-18-11.1-10.42-16.73-24.74-16.73-42.57,0-37.46,22.31-53.35,41-60.08a5,5,0,1,1,3.39,9.41C223.08,83,211.5,100.09,211.5,125.5c0,15,4.57,26.83,13.57,35.27,18.11,17,48.31,15.26,48.61,15.24H398.5c8.57,0,15.11-2.63,20-8,12-13.31,9.61-38.7,9.59-39-2.9-24-18.94-41.18-47.68-51.06a5,5,0,1,1,3.25-9.46c32.21,11.08,51,31.62,54.36,59.41.14,1.3,2.93,30.1-12.07,46.73-6.8,7.55-16,11.37-27.45,11.37H274.15C273.69,186,272.55,186.08,270.87,186.08Z"/><path class="cls-1" d="M382,78.22a4.83,4.83,0,0,1-1.62-.27c-23.15-8-46.11-8-46.39-8h-57.3a88.45,88.45,0,0,0-30.8,4.84,5,5,0,0,1-3.39-9.41A97.31,97.31,0,0,1,277.13,60H334a167.65,167.65,0,0,1,49.66,8.49A5,5,0,0,1,382,78.22Z"/><path class="cls-1" d="M484,265H29a5,5,0,0,1,0-10H484a5,5,0,0,1,0,10Z"/><path class="cls-1" d="M135.78,113.28a32.62,32.62,0,1,1,32.61-32.61A32.65,32.65,0,0,1,135.78,113.28Zm0-55.23a22.62,22.62,0,1,0,22.61,22.62A22.64,22.64,0,0,0,135.78,58.05Z"/></g><g id="Outline"><path class="cls-1" d="M113,213H64a5,5,0,0,1,0-10h49a5,5,0,0,1,0,10Z"/><path class="cls-1" d="M119.5,192h-62a5,5,0,0,1,0-10h62a5,5,0,0,1,0,10Z"/><path class="cls-1" d="M113,170H64a5,5,0,0,1,0-10h49a5,5,0,0,1,0,10Z"/><path class="cls-1" d="M107.25,149H69.76a5,5,0,1,1,0-10h37.49a5,5,0,0,1,0,10Z"/><path class="cls-1" d="M107.25,235H69.76a5,5,0,1,1,0-10h37.49a5,5,0,0,1,0,10Z"/></g></svg>