<?xml version="1.0" ?><svg id="Lines" viewBox="0 0 512 512" xmlns="http://www.w3.org/2000/svg"><defs><style>.cls-1{fill:#3f456b;}</style></defs><title/><path class="cls-1" d="M176.5,468a5.2,5.2,0,0,1-1.34-.18,5,5,0,0,1-3.62-4.23L152,298.34l-137.29-36a5,5,0,0,1-.74-9.41L491.92,43.46a4.78,4.78,0,0,1,2.31-.45h0c.13,0,.26,0,.39,0h0a5,5,0,0,1,2.91,1.48,5.85,5.85,0,0,1,.4.47,4.92,4.92,0,0,1,1,2.58,5.57,5.57,0,0,1,0,1.08,5,5,0,0,1-.18.79L384,450.64a5,5,0,0,1-7.69,2.71L256.22,368.58l-75.77,97.49A5,5,0,0,1,176.5,468ZM161.9,296.68,180,450.3l68-87.49-32.79-23.15a5,5,0,0,1-.72-7.55L451.05,85.55Zm63.87,38.16L376.32,441.12,483.64,66ZM31.17,256.3l124.39,32.63L454.09,71Z"/><path class="cls-1" d="M176.51,468a5,5,0,0,1-4.76-6.55L213.38,334a5,5,0,0,1,9.51,3.11L181.26,464.55A5,5,0,0,1,176.51,468Z"/></svg>