<?xml version="1.0" ?><svg viewBox="0 0 512 512" xmlns="http://www.w3.org/2000/svg"><defs><style>.cls-1{fill:#3f456b;}</style></defs><title/><g id="Lines"><path class="cls-1" d="M493.84,246a4.84,4.84,0,0,1-2-.42c-.26-.11-26.14-11.16-68-14.75a5,5,0,0,1,.86-10c43.66,3.74,70.07,15.07,71.17,15.55a5,5,0,0,1-2,9.58Z"/><path class="cls-1" d="M188.26,262.26a352.34,352.34,0,0,1-53.25-4c-31.67-4.85-50.72-12.3-51.51-12.61a5,5,0,1,1,3.67-9.3c.92.36,75.84,29.13,173.11,8.36a5,5,0,0,1,2.09,9.78A355.18,355.18,0,0,1,188.26,262.26Z"/><path class="cls-1" d="M435.85,94a5,5,0,0,1-4.92-4.16l-3.42-20c0-.14,0-.28-.05-.42S426.87,64,423.61,64H402.25c-3.29,0-3.84,5.42-3.85,5.47s0,.29,0,.43l-3.42,19.87a5,5,0,0,1-9.86-1.69l3.39-19.69c.51-5.11,4-14.39,13.79-14.39h21.36c5.24,0,9.47,2.79,11.91,7.85a21.73,21.73,0,0,1,1.88,6.52l3.39,19.79a5,5,0,0,1-4.09,5.77A4.88,4.88,0,0,1,435.85,94Z"/><path class="cls-1" d="M135.38,180.13a5,5,0,0,1-4.7-3.29l-7.11-19.51c-2.2-4.75-3.65-14.88,5.94-21.08l23.12-14.93c9.66-6.25,18.18-.58,21.52,3.47l14.48,14.85a5,5,0,0,1-7.17,7l-14.63-15a3.25,3.25,0,0,1-.35-.39c-.85-1-4.07-4.31-8.42-1.5l-23.12,14.94c-4.44,2.87-2.84,7.3-2.24,8.59.07.16.12.28.18.44l7.2,19.73a5,5,0,0,1-3,6.41A4.87,4.87,0,0,1,135.38,180.13Z"/><path class="cls-1" d="M37.3,415.25c-4.23,0-10.77-.86-16.16-5.34-5.73-4.77-8.64-12.2-8.64-22.07,0-.14,0-.28,0-.42.17-2.05,4.58-50.84,35.73-109.67a337.15,337.15,0,0,1,70.61-91.41c35.68-32.62,79-58,128.68-75.54l.11,0c.84-.27,84.65-27.27,183.61-27.27A85,85,0,0,1,455.87,88c17.28,6,27.65,17.23,30,32.37l4.65,29c0,.11,0,.22,0,.32.54,5.66,13.13,138.76,13.13,156.08,0,9-4.15,16-11.69,19.63A27.54,27.54,0,0,1,481.3,328c-54.75,7.57-65.29,40.91-71.59,60.84a90.32,90.32,0,0,1-3.38,9.56c-7.76,17-22.91,16.78-25.42,16.62H41.15A28.25,28.25,0,0,1,37.3,415.25ZM22.5,388.06c0,6.65,1.73,11.41,5,14.16,4.93,4.09,12.26,2.88,12.33,2.86a5.59,5.59,0,0,1,.91-.08H381.09l.52,0c1,.08,10.46.51,15.62-10.8a84.32,84.32,0,0,0,2.94-8.42C406.74,365,419,326.39,480.23,318a5.19,5.19,0,0,1,.68-.05c2.1,0,12.76-.74,12.76-12.29,0-16.59-12.55-149.54-13.07-155L476,121.89C471.7,94.11,431.63,93.5,431.22,93.5c-96.37,0-178,26-180.41,26.76-48.42,17-90.54,41.77-125.2,73.46a327.16,327.16,0,0,0-68.52,88.71C27.86,337.62,22.83,384.64,22.5,388.06Z"/><path class="cls-1" d="M300.26,349c-1,0-1.72,0-2,0H28a5,5,0,0,1,0-10H298.56c.35,0,35.83,1.25,63.45-20,3.11-2.4,6.31-4.95,9.7-7.66,28.14-22.46,66.67-53.24,125.2-45.22a5,5,0,1,1-1.35,9.91c-54.28-7.44-89.4,20.6-117.61,43.13-3.43,2.73-6.66,5.31-9.84,7.76C341.28,347.57,308.88,349,300.26,349Z"/><path class="cls-1" d="M393.72,440l-.85,0H21.77C15.43,439.71,6,435.14,6,423.75c0-7.35,3.19-13.15,9-16.32A20.29,20.29,0,0,1,23.65,405H50a5,5,0,0,1,0,10H23.85c-1.92.09-7.85,1-7.85,8.75,0,5.53,4.9,6.17,6.13,6.25H393.32c1.47.08,5.87-.23,8.32-2.56,1.38-1.31,2.05-3.2,2.05-5.78a4,4,0,0,0-1.35-3.22c-3.45-3.22-12.35-3.72-16.12-3.46a5,5,0,0,1-.69-10c1.63-.11,16.1-.9,23.63,6.13a14,14,0,0,1,4.53,10.53c0,5.36-1.81,9.89-5.23,13.1C403.39,439.52,396.42,440,393.72,440Z"/><path class="cls-1" d="M498,101a23.51,23.51,0,0,1-17.22-7.19C467.47,80.39,467.48,52.2,467.49,51a2.09,2.09,0,0,1,0-.25c0-.15.72-16.41-8-25.62-4.09-4.3-9.56-6.39-16.72-6.39-6.3,0-11.27,2-15.18,6.09-8.68,9.08-9.85,26.73-9.57,32.76a5,5,0,1,1-10,.46C408,57,407,31.94,420.33,17.93c5.81-6.09,13.36-9.18,22.41-9.18,9.93,0,18,3.21,24,9.55,11.33,12,10.83,30.86,10.74,32.86,0,7.08,1.82,27,10.43,35.61A13.6,13.6,0,0,0,498,91a5,5,0,0,1,0,10Z"/><path class="cls-1" d="M306.19,266.11a103.25,103.25,0,0,1-24.89-2.71c-22.06-5.51-35.47-19.56-39.87-41.76s2.62-40.39,20.91-53.87c14.49-10.68,35.62-18.5,66.49-24.62,29-5.75,52.94-6.12,71.26-1.11,22.09,6,35.38,19.61,39.48,40.32,4.4,22.2-2.64,40.3-20.92,53.8-14.33,10.59-36.08,18.67-66.48,24.69C334.49,264.36,319.25,266.11,306.19,266.11Zm64.7-117.58A208.58,208.58,0,0,0,330.78,153c-29,5.74-49.42,13.22-62.51,22.86-15.1,11.14-20.68,25.49-17,43.88s14.26,29.45,32.48,34c15.83,3.95,37.58,3.08,66.5-2.66s49.37-13.23,62.49-22.92c15.11-11.16,20.69-25.49,17.05-43.82h0c-3.35-16.92-13.92-27.58-32.31-32.61A100.87,100.87,0,0,0,370.89,148.53Z"/></g><g id="Outline"><path class="cls-1" d="M85.53,490.29c-8.6,0-16-3.71-23.93-11.64-6.47-6.48-15.05-8.41-25.47-5.75a52.58,52.58,0,0,0-15,6.61,5,5,0,0,1-5.68-8.22c10.8-7.5,35.83-17.07,53.19.29C77,479.94,83.17,481.85,93,479.15c4.75-1.3,8.15-4.46,11.74-7.81s7.38-6.89,12.74-8.82c12.63-4.54,25.59-1.37,35.54,8.7a5,5,0,1,1-7.11,7c-7.21-7.29-16.1-9.54-25.05-6.32-3.42,1.23-6.14,3.78-9.3,6.72-4.12,3.84-8.79,8.19-15.91,10.15A38.37,38.37,0,0,1,85.53,490.29Z"/><path class="cls-1" d="M241.53,490.29c-8.6,0-16-3.71-23.93-11.64-6.48-6.48-15-8.41-25.47-5.75a52.58,52.58,0,0,0-15,6.61,5,5,0,0,1-5.68-8.22c10.8-7.5,35.83-17.07,53.19.29,8.35,8.36,14.49,10.27,24.31,7.57,4.75-1.3,8.15-4.46,11.74-7.81s7.38-6.89,12.74-8.82c12.63-4.54,25.59-1.37,35.54,8.7a5,5,0,0,1-7.11,7c-7.21-7.29-16.1-9.54-25-6.32-3.42,1.23-6.14,3.78-9.3,6.72-4.12,3.84-8.79,8.19-15.91,10.15A38.37,38.37,0,0,1,241.53,490.29Z"/><path class="cls-1" d="M397.53,490.29c-8.6,0-16-3.71-23.93-11.64-6.47-6.48-15-8.41-25.47-5.75a52.58,52.58,0,0,0-15,6.61,5,5,0,0,1-5.68-8.22c10.8-7.5,35.83-17.07,53.19.29,8.35,8.36,14.49,10.27,24.31,7.57,4.75-1.3,8.15-4.46,11.74-7.81s7.38-6.89,12.74-8.82c12.63-4.54,25.59-1.37,35.54,8.7a5,5,0,0,1-7.11,7c-7.21-7.29-16.1-9.54-25-6.32-3.42,1.23-6.14,3.78-9.3,6.72-4.12,3.84-8.79,8.19-15.91,10.15A38.37,38.37,0,0,1,397.53,490.29Z"/><path class="cls-1" d="M308.06,372a5,5,0,0,1-5.06-4.94h0a5,5,0,0,1,4.94-5.06h0A5,5,0,0,1,313,367h0a5,5,0,0,1-4.94,5.06ZM283,367a5,5,0,0,1,5-5h0a5,5,0,0,1,5,5h0a5,5,0,0,1-5,5h0A5,5,0,0,1,283,367Zm-20,0a5,5,0,0,1,5-5h0a5,5,0,0,1,5,5h0a5,5,0,0,1-5,5h0A5,5,0,0,1,263,367Zm-20,0a5,5,0,0,1,5-5h0a5,5,0,0,1,5,5h0a5,5,0,0,1-5,5h0A5,5,0,0,1,243,367Zm-20,0a5,5,0,0,1,5-5h0a5,5,0,0,1,5,5h0a5,5,0,0,1-5,5h0A5,5,0,0,1,223,367Zm-20,0a5,5,0,0,1,5-5h0a5,5,0,0,1,5,5h0a5,5,0,0,1-5,5h0A5,5,0,0,1,203,367Zm-20,0a5,5,0,0,1,5-5h0a5,5,0,0,1,5,5h0a5,5,0,0,1-5,5h0A5,5,0,0,1,183,367Zm-20,0a5,5,0,0,1,5-5h0a5,5,0,0,1,5,5h0a5,5,0,0,1-5,5h0A5,5,0,0,1,163,367Zm-20,0a5,5,0,0,1,5-5h0a5,5,0,0,1,5,5h0a5,5,0,0,1-5,5h0A5,5,0,0,1,143,367Zm-20,0a5,5,0,0,1,5-5h0a5,5,0,0,1,5,5h0a5,5,0,0,1-5,5h0A5,5,0,0,1,123,367Zm-20,0a5,5,0,0,1,5-5h0a5,5,0,0,1,5,5h0a5,5,0,0,1-5,5h0A5,5,0,0,1,103,367Zm-20,0a5,5,0,0,1,5-5h0a5,5,0,0,1,5,5h0a5,5,0,0,1-5,5h0A5,5,0,0,1,83,367Zm-20,0a5,5,0,0,1,5-5h0a5,5,0,0,1,5,5h0a5,5,0,0,1-5,5h0A5,5,0,0,1,63,367Zm-20,0a5,5,0,0,1,5-5h0a5,5,0,0,1,5,5h0a5,5,0,0,1-5,5h0A5,5,0,0,1,43,367Zm-20,0a5,5,0,0,1,5-5h0a5,5,0,0,1,5,5h0a5,5,0,0,1-5,5h0A5,5,0,0,1,23,367Zm300-1.08a5,5,0,0,1,4-5.81h0a5,5,0,0,1,5.8,4h0a5,5,0,0,1-4,5.8h0a4.53,4.53,0,0,1-.89.08h0A5,5,0,0,1,323,365.92Zm19.54-4.31a5,5,0,0,1,3-6.38h0a5,5,0,0,1,6.38,3h0a5,5,0,0,1-3,6.38h0a4.9,4.9,0,0,1-1.67.29h0A5,5,0,0,1,342.52,361.61ZM361,354.07a5,5,0,0,1,1.76-6.84h0a5,5,0,0,1,6.85,1.75h0a5,5,0,0,1-1.76,6.85h0a4.9,4.9,0,0,1-2.54.7h0A5,5,0,0,1,361,354.07ZM377.65,343a5,5,0,0,1,.88-7h0a5,5,0,0,1,7,.88h0a5,5,0,0,1-.88,7h0a5,5,0,0,1-3.07,1.06h0A5,5,0,0,1,377.65,343Zm15.8-12.26a5,5,0,0,1,1.05-7h0a5,5,0,0,1,7,1.05h0a5,5,0,0,1-1,7h0a5,5,0,0,1-3,1h0A5,5,0,0,1,393.45,330.7ZM409.7,319a5,5,0,0,1,1.56-6.9h0a5,5,0,0,1,6.9,1.56h0a5,5,0,0,1-1.56,6.9h0a5,5,0,0,1-2.66.77h0A5,5,0,0,1,409.7,319Zm17.17-10.26a5,5,0,0,1,2.31-6.68h0a5,5,0,0,1,6.69,2.31h0a5,5,0,0,1-2.31,6.68h0a5,5,0,0,1-2.19.51h0A5,5,0,0,1,426.87,308.77Zm18.26-8.14a5,5,0,0,1,3.22-6.3h0a5,5,0,0,1,6.29,3.21h0a5,5,0,0,1-3.21,6.3h0a4.87,4.87,0,0,1-1.54.25h0A5,5,0,0,1,445.13,300.63Zm19.23-5.43a5,5,0,0,1,4.16-5.73h0a5,5,0,0,1,5.72,4.15h0a5,5,0,0,1-4.15,5.73h0a5.35,5.35,0,0,1-.79.06h0A5,5,0,0,1,464.36,295.2Zm19.85-2.37a5,5,0,0,1,5-5h0a5,5,0,0,1,5,5h0a5,5,0,0,1-5,5h0A5,5,0,0,1,484.21,292.83Z"/></g></svg>