<?xml version="1.0" ?><svg id="Lines" viewBox="0 0 512 512" xmlns="http://www.w3.org/2000/svg"><defs><style>.cls-1{fill:#3f456b;}</style></defs><title/><path class="cls-1" d="M240.23,213c-25.26,0-45.46-7.59-60-22.55-24.49-25.14-24.12-61.89-24.07-64.29V30a5,5,0,0,1,5.63-5c2.36.3,54.5,7.39,76.38,47.28a106.42,106.42,0,0,1,31.35-31.71,117.63,117.63,0,0,1,34.46-15c.73-.18,5.48-1.09,7.87-1.53,8.51-1.58,9.2-1.71,11.13-.21a5,5,0,0,1,1.93,3.95V128.31c0,2.19.22,37.52-23.85,62.07-11.16,11.4-25.64,18.53-43.19,21.3a4.89,4.89,0,0,1-1.68.25A114.58,114.58,0,0,1,240.23,213ZM166.12,36v90.34c0,.34-.56,34.81,21.29,57.18,12.27,12.56,29.41,19.1,51,19.45-12-10-19.43-26.52-20.88-47.59-1.79-26,3.58-51.37,14.59-72.65C218.11,50.14,180.45,39.09,166.12,36Zm148.75-2.28c-3.55.65-7.69,1.45-8.51,1.64A107.26,107.26,0,0,0,274.9,49c-31.83,20.5-50.44,62-47.43,105.67.8,11.65,5.24,39.26,29,47.06,15.27-2.46,27.79-8.59,37.34-18.32,21.38-21.75,21.06-54.66,21.05-55Z"/><path class="cls-1" d="M201.44,48.77a5,5,0,0,1-4.07-7.89c.64-.91,16-22.2,41.94-30.09a5,5,0,0,1,3.3.14c1.12.44,27.39,11,39.46,27.41A5,5,0,0,1,274,44.27c-8.84-12-27.85-20.91-33.49-23.37-21.58,7.29-34.88,25.59-35,25.78A5,5,0,0,1,201.44,48.77Z"/><path class="cls-1" d="M416.23,376c-25.26,0-45.46-7.59-60-22.55-24.49-25.14-24.12-61.89-24.07-64.29V193a5,5,0,0,1,5.63-5c2.36.3,54.5,7.39,76.38,47.28a106.42,106.42,0,0,1,31.35-31.71,117.63,117.63,0,0,1,34.46-15c.73-.18,5.48-1.09,7.87-1.53,8.51-1.58,9.2-1.71,11.13-.21a5,5,0,0,1,1.93,4V291.31c0,2.19.22,37.52-23.85,62.07-11.16,11.4-25.64,18.53-43.19,21.3a4.92,4.92,0,0,1-1.68.25A114.58,114.58,0,0,1,416.23,376ZM342.12,199v90.34c0,.34-.56,34.81,21.29,57.18,12.27,12.56,29.41,19.1,51,19.45-12-10-19.43-26.52-20.88-47.59-1.79-26,3.58-51.37,14.59-72.65C394.11,213.14,356.45,202.09,342.12,199Zm148.75-2.28c-3.55.65-7.69,1.45-8.51,1.64A107.26,107.26,0,0,0,450.9,212c-31.83,20.5-50.44,62-47.43,105.67.8,11.65,5.24,39.26,29,47.06,15.27-2.46,27.79-8.59,37.34-18.32,21.38-21.75,21.06-54.66,21.05-55Z"/><path class="cls-1" d="M377.44,211.77a5,5,0,0,1-4.07-7.89c.64-.91,16-22.2,41.94-30.09a5,5,0,0,1,3.3.14c1.12.44,27.39,11,39.46,27.41a5,5,0,0,1-8.05,5.93c-8.84-12-27.85-20.91-33.49-23.37-21.58,7.29-34.88,25.59-35,25.78A5,5,0,0,1,377.44,211.77Z"/><path class="cls-1" d="M95.23,390c-25.26,0-45.46-7.59-60-22.55-24.49-25.14-24.12-61.89-24.07-64.29V207a5,5,0,0,1,5.63-5c2.36.3,54.5,7.39,76.38,47.28a106.42,106.42,0,0,1,31.35-31.71,117.63,117.63,0,0,1,34.46-15c.73-.18,5.48-1.09,7.87-1.53,8.51-1.58,9.2-1.71,11.13-.21a5,5,0,0,1,1.93,4V305.31c0,2.19.22,37.52-23.85,62.07-11.16,11.4-25.64,18.53-43.19,21.3a4.92,4.92,0,0,1-1.68.25A114.58,114.58,0,0,1,95.23,390ZM21.12,213v90.34c0,.34-.56,34.81,21.29,57.18,12.27,12.56,29.41,19.1,51,19.45-12-10-19.43-26.52-20.88-47.59-1.79-26,3.58-51.37,14.59-72.65C73.11,227.14,35.45,216.09,21.12,213Zm148.75-2.28c-3.55.65-7.69,1.45-8.51,1.64A107.26,107.26,0,0,0,129.9,226c-31.83,20.5-50.44,62-47.43,105.67.8,11.65,5.24,39.26,29,47.06,15.27-2.46,27.79-8.59,37.34-18.32,21.38-21.75,21.06-54.66,21.05-55Z"/><path class="cls-1" d="M56.44,225.77a5,5,0,0,1-4.07-7.89c.64-.91,16-22.2,41.94-30.09a5,5,0,0,1,3.3.14c1.12.44,27.39,11,39.46,27.41a5,5,0,1,1-8,5.93c-8.84-12-27.85-20.91-33.49-23.37-21.58,7.29-34.88,25.59-35,25.78A5,5,0,0,1,56.44,225.77Z"/><path class="cls-1" d="M96,500a5,5,0,0,1-5-5V384a5,5,0,0,1,10,0V495A5,5,0,0,1,96,500Z"/><path class="cls-1" d="M240,500a5,5,0,0,1-5-5V209a5,5,0,0,1,10,0V495A5,5,0,0,1,240,500Z"/><path class="cls-1" d="M416,501a5,5,0,0,1-5-5V371a5,5,0,0,1,10,0V496A5,5,0,0,1,416,501Z"/><path class="cls-1" d="M284.2,500h-44a5,5,0,0,1-5-5V463.61a529.79,529.79,0,0,1,5.7-92.87c10.31-66.92,32.24-112.62,65.19-135.83a5,5,0,0,1,7.39,6.24c-.23.5-24.31,54.38-24.31,253.85A5,5,0,0,1,284.2,500Zm-39-10h34c.28-140.14,12.24-207.46,19.62-235.72-59.63,61.12-53.67,207.42-53.59,209V490Z"/><path class="cls-1" d="M239.87,500H198.71a5,5,0,0,1-5-5.11c1.17-54.12-1.21-90-3.41-110.53-2.38-22.29-5.08-31.88-5.1-32A5,5,0,0,1,193,347c44.55,33.81,47.91,86.34,51.16,137.15.22,3.5.44,7,.68,10.5a5,5,0,0,1-5,5.34Zm-36.06-10h30.72l-.33-5.2c-2.94-45.91-5.72-89.52-36.43-120.4.77,4.8,1.61,10.86,2.42,18.3C202.38,403,204.75,437.82,203.81,490Z"/><path class="cls-1" d="M395.87,500H354.71a5,5,0,0,1-5-5.15c2.22-73.38-8.25-100.73-8.35-101a5,5,0,0,1,7-6.26c45.08,24.48,48.48,62.59,51.78,99.44.22,2.5.44,5,.68,7.5a5,5,0,0,1-5,5.47Zm-36-10h30.54l-.18-2.08c-2.9-32.41-5.65-63.18-36.08-85C357.16,417.29,360.89,444.66,359.85,490Z"/><path class="cls-1" d="M96,500H49.78a5,5,0,0,1-5-5.18c2.47-68-9.18-93.4-9.3-93.65a5,5,0,0,1,6.56-6.73c50.59,22.8,54.44,58.5,58.15,93,.25,2.32.5,4.65.77,7A5,5,0,0,1,96,500ZM55,490H90.42c0-.5-.11-1-.16-1.48-3.27-30.41-6.38-59.27-41.79-79.62C51.89,422.35,56.08,447.87,55,490Z"/><path class="cls-1" d="M435,500a5,5,0,0,1-5-5.41c.23-2.91.46-5.83.68-8.74,3.27-42.63,6.65-86.72,51.5-115.09a5,5,0,0,1,7.39,5.87c-.1.3-10.66,32.3-8.43,118.23a5,5,0,0,1-5,5.13ZM476.91,387c-30.56,25.56-33.32,61.66-36.24,99.68-.09,1.12-.17,2.25-.26,3.38H471C469.91,435.5,473.85,403.29,476.91,387Z"/></svg>