<?xml version="1.0" ?><svg viewBox="0 0 512 512" xmlns="http://www.w3.org/2000/svg"><defs><style>.cls-1{fill:#3f456b;}</style></defs><title/><g id="Lines"><path class="cls-1" d="M361.26,500.5a5.31,5.31,0,0,1-4.06-1.92c-35.25-42.28-12.95-66.53-12-67.54a5,5,0,1,1,7.23,6.91c-.64.7-15.4,17.56,8.8,49.65,24.53-32.47,9-49.47,8.79-49.65a5,5,0,0,1,7.23-6.91c1,1,23.29,25.28-11.89,67.43a5.21,5.21,0,0,1-3.72,2Z"/><path class="cls-1" d="M151.7,500.5a5.3,5.3,0,0,1-4-1.92c-35.26-42.28-13-66.53-12-67.54a5,5,0,1,1,7.23,6.91c-.63.7-15.39,17.56,8.8,49.65,24.54-32.47,9-49.47,8.79-49.65a5,5,0,1,1,7.23-6.91c1,1,23.29,25.28-11.89,67.43a5.21,5.21,0,0,1-3.71,2Z"/><path class="cls-1" d="M214.51,465.39a5.3,5.3,0,0,1-4-1.92c-35.25-42.28-13-66.53-12-67.54a5,5,0,0,1,7.23,6.91c-.64.7-15.4,17.56,8.79,49.65,24.54-32.47,9-49.47,8.79-49.65a5,5,0,0,1,7.23-6.91c1,1,23.29,25.28-11.89,67.43a5.19,5.19,0,0,1-3.71,2Z"/><path class="cls-1" d="M298.45,465.39a5.31,5.31,0,0,1-4.06-1.92c-35.25-42.28-12.95-66.53-12-67.54a5,5,0,1,1,7.23,6.91c-.64.7-15.4,17.56,8.8,49.65,24.53-32.47,9-49.47,8.79-49.65a5,5,0,0,1,7.23-6.91c1,1,23.29,25.28-11.9,67.43a5.17,5.17,0,0,1-3.71,2Z"/><path class="cls-1" d="M290.56,311.34a5,5,0,0,1-5-5V125.16c0-18.58-5.11-32.16-14.78-39.27a26.46,26.46,0,0,0-13.86-5.21H256c-1.14,0-28.79.91-28.79,44.48V306.34a5,5,0,0,1-10,0V125.16c0-15.27,3.29-35.87,18.94-47.33A36.52,36.52,0,0,1,256,70.68h.89a36.29,36.29,0,0,1,19.78,7.15c15.59,11.47,18.86,32.06,18.86,47.33V306.34A5,5,0,0,1,290.56,311.34Z"/><path class="cls-1" d="M245.41,383H199.07a5,5,0,0,1-5-5v-42.6c0-11.88,3.24-21,9.61-27a27.32,27.32,0,0,1,18.85-7.18,5,5,0,0,1-.54,10,17.29,17.29,0,0,0-11.54,4.56c-4.23,4.06-6.38,10.65-6.38,19.6V373h41.34a5,5,0,0,1,0,10Z"/><path class="cls-1" d="M313.88,383H267.24a5,5,0,0,1,0-10h41.64v-37.6c0-9-2.18-15.59-6.47-19.65a17.32,17.32,0,0,0-11.56-4.51,5,5,0,0,1-.58-10,27.55,27.55,0,0,1,19,7.23c6.38,6,9.61,15.07,9.61,26.92V378A5,5,0,0,1,313.88,383Z"/><path class="cls-1" d="M257.88,407.43h-3.41a13.51,13.51,0,0,1-13.5-13.5V314.75a13.51,13.51,0,0,1,13.5-13.5h3.41a13.51,13.51,0,0,1,13.5,13.5v79.18A13.51,13.51,0,0,1,257.88,407.43Zm-3.41-96.18a3.54,3.54,0,0,0-3.5,3.5v79.18a3.5,3.5,0,0,0,3.5,3.5h3.41a3.5,3.5,0,0,0,3.5-3.5V314.75a3.54,3.54,0,0,0-3.5-3.5Z"/><path class="cls-1" d="M227.1,403.57H202a5,5,0,0,1-5-4.3l-2.92-20.56a5,5,0,1,1,9.9-1.4l2.31,16.26h16.42L225,377.62a5,5,0,1,1,9.9,1.39l-2.84,20.26A5,5,0,0,1,227.1,403.57Z"/><path class="cls-1" d="M311,403.57H285.92a5,5,0,0,1-4.95-4.3l-2.91-20.56a5,5,0,1,1,9.9-1.4l2.31,16.26h16.42l2.24-15.95a5,5,0,1,1,9.9,1.39L316,399.27A5,5,0,0,1,311,403.57Z"/><path class="cls-1" d="M374.38,439.5H349.27a5,5,0,0,1-4.95-4.3l-2.92-20.57a5,5,0,1,1,9.9-1.4l2.31,16.27H370l2.24-15.95a5,5,0,1,1,9.9,1.38l-2.84,20.26A5,5,0,0,1,374.38,439.5Z"/><path class="cls-1" d="M198.51,368.13h-.23l-85.54-3.88a5,5,0,0,1-4.77-5c.11-14.66,1.36-25.57,4.06-35.39a78.51,78.51,0,0,1,17.25-31.92c7.66-8.67,16.47-16.12,25-23.34C162,262,170,255.3,176.82,247.82a171.25,171.25,0,0,0,29.25-42.75c7.53-16,11.18-29.85,11.17-42.23a5,5,0,0,1,5-5h0a5,5,0,0,1,5,5c0,13.89-4,29.1-12.12,46.49a181.17,181.17,0,0,1-30.94,45.27c-7.29,7.93-15.5,14.89-23.45,21.61-8.63,7.3-16.78,14.2-24,22.32-14.32,16.2-18.12,34.22-18.72,56l80.68,3.66a5,5,0,0,1-.22,10Z"/><path class="cls-1" d="M199.13,347.13H116a5,5,0,1,1,0-10h83.12a5,5,0,0,1,0,10Z"/><path class="cls-1" d="M314.3,368.13a5,5,0,0,1-.23-10l80.68-3.66c-.59-21.73-4.4-39.75-18.72-56-7.18-8.12-15.33-15-24-22.32-7.94-6.72-16.16-13.68-23.45-21.61a181.17,181.17,0,0,1-30.94-45.27c-8.17-17.39-12.13-32.6-12.12-46.49a5,5,0,0,1,5-5h0a5,5,0,0,1,5,5c0,12.38,3.65,26.2,11.17,42.23A171,171,0,0,0,336,247.82c6.86,7.48,14.83,14.22,22.54,20.74,8.52,7.22,17.34,14.67,25,23.34,18.45,20.86,21.15,44.68,21.31,67.31a5,5,0,0,1-4.77,5l-85.53,3.88Z"/><path class="cls-1" d="M396.79,347.13H314.61a5,5,0,0,1,0-10h82.18a5,5,0,1,1,0,10Z"/><path class="cls-1" d="M290.56,185.94H222.24a5,5,0,0,1,0-10h68.32a5,5,0,0,1,0,10Z"/><path class="cls-1" d="M266.66,150.94H246.15a15,15,0,0,1-15-15v-4.66a15,15,0,0,1,15-15h20.51a15,15,0,0,1,15,15v4.66A15,15,0,0,1,266.66,150.94Zm-20.51-24.66a5,5,0,0,0-5,5v4.66a5,5,0,0,0,5,5h20.51a5,5,0,0,0,5-5v-4.66a5,5,0,0,0-5-5Z"/><path class="cls-1" d="M196.71,236.38a5,5,0,0,1-5-5V126.22c-.21-2.46-1.4-19.64,5.07-41.55,6.32-21.39,21.45-51.49,57.66-73.45a5,5,0,0,1,4.72-.25c.64.3,15.77,7.53,30.91,25.15,13.89,16.17,30.46,44.57,30.46,88v104a5,5,0,0,1-10,0v-104c0-68-42.8-96.84-53.31-102.89-61.44,39-55.6,103.55-55.54,104.21a4.36,4.36,0,0,1,0,.51V231.38A5,5,0,0,1,196.71,236.38Z"/><path class="cls-1" d="M382.27,128.56h-43a5,5,0,0,1,0-10h43a5,5,0,0,1,0,10Z"/><path class="cls-1" d="M391.88,418.93H331.7a5,5,0,0,1-4.74-6.59L334.48,390A5,5,0,1,1,344,393.2l-5.29,15.73h46l-5.92-15.55a5,5,0,0,1,9.35-3.56l8.5,22.33a5,5,0,0,1-4.67,6.78Z"/><path class="cls-1" d="M221.93,140.85H197.21a5,5,0,0,1,0-10h24.72a5,5,0,0,1,0,10Z"/><path class="cls-1" d="M315.28,140.85H290.56a5,5,0,0,1,0-10h24.72a5,5,0,0,1,0,10Z"/><path class="cls-1" d="M383.37,304.58a5,5,0,0,1-5-5V101c0-21-11.6-31.14-16.6-34.51a40.08,40.08,0,0,0-17.58,34.68,4.24,4.24,0,0,1,0,.51V258.22a5,5,0,0,1-10,0V101.91C334,98.66,332.75,72.3,359,56.36a5,5,0,0,1,4.72-.25c1,.47,24.61,11.93,24.61,44.91V299.58A5,5,0,0,1,383.37,304.58Z"/><path class="cls-1" d="M383.37,396.6H339.22a5,5,0,0,1-5-5V362a5,5,0,0,1,10,0v24.6h34.15V360a5,5,0,0,1,10,0V391.6A5,5,0,0,1,383.37,396.6Z"/><path class="cls-1" d="M339.14,155.9H316.66a5,5,0,0,1,0-10h22.48a5,5,0,0,1,0,10Z"/><path class="cls-1" d="M339.14,178.46H316.66a5,5,0,0,1,0-10h22.48a5,5,0,0,1,0,10Z"/><path class="cls-1" d="M163.68,439.5H138.57a5,5,0,0,1-4.95-4.31l-2.84-20.26a5,5,0,1,1,9.9-1.38l2.24,15.95h16.42l2.31-16.27a5,5,0,1,1,9.9,1.4l-2.92,20.57A5,5,0,0,1,163.68,439.5Z"/><path class="cls-1" d="M173.74,128.56H130.68a5,5,0,0,1,0-10h43.06a5,5,0,0,1,0,10Z"/><path class="cls-1" d="M181.25,418.93H121.08a5,5,0,0,1-4.68-6.78l8.51-22.33a5,5,0,0,1,9.34,3.56l-5.92,15.55h46L169,393.2a5,5,0,1,1,9.48-3.19L186,412.34a5,5,0,0,1-4.74,6.59Z"/><path class="cls-1" d="M129.58,304.58a5,5,0,0,1-5-5V101c0-33,23.61-44.44,24.61-44.91a5,5,0,0,1,4.72.25C180.2,72.3,179,98.66,178.74,101.91V258.22a5,5,0,0,1-10,0V101.7c0-.17,0-.35,0-.51A39.75,39.75,0,0,0,151.18,66.5c-5,3.36-16.6,13.4-16.6,34.52V299.58A5,5,0,0,1,129.58,304.58Z"/><path class="cls-1" d="M173.74,396.6H129.58a5,5,0,0,1-5-5V360a5,5,0,1,1,10,0V386.6h34.16V362a5,5,0,0,1,10,0v29.6A5,5,0,0,1,173.74,396.6Z"/><path class="cls-1" d="M196.3,155.9H173.82a5,5,0,0,1,0-10H196.3a5,5,0,0,1,0,10Z"/><path class="cls-1" d="M196.3,178.46H173.82a5,5,0,0,1,0-10H196.3a5,5,0,0,1,0,10Z"/><path class="cls-1" d="M245.41,362.28H199.13a5,5,0,0,1,0-10h46.28a5,5,0,0,1,0,10Z"/><path class="cls-1" d="M313.7,362.28H267.42a5,5,0,0,1,0-10H313.7a5,5,0,1,1,0,10Z"/><path class="cls-1" d="M279.3,479.39a5,5,0,0,1-3.23-1.19c-6.09-5.16-17.15-2.25-20.89-.7a5,5,0,0,1-6.5-6.63c3.77-8.55-.93-17.35-6.91-21.89a5,5,0,0,1,6.06-8c9.21,7,12.5,16.53,12.08,24.85,6.58-1.15,15.67-1.19,22.63,4.7a5,5,0,0,1-3.24,8.82Z"/><path class="cls-1" d="M100.33,476.83a5,5,0,0,1-3.23-1.18c-.44-.36-11.56-9.29-27.52-2.66a5,5,0,0,1-3.83-9.24c14.32-5.94,25.9-2.44,32.32.79,8.88-16.7,26.23-19.26,34.9-18.06a5,5,0,0,1-1.35,9.91c-.82-.11-19.74-2.28-26.57,17.1a5,5,0,0,1-3.41,3.17A4.86,4.86,0,0,1,100.33,476.83Z"/><path class="cls-1" d="M89.87,439.5a5,5,0,0,1-4.94-4.27c-1.3-8.79-11-12.88-11.11-12.92A5,5,0,0,1,77.51,413c.62.25,15.17,6.18,17.31,20.75a5,5,0,0,1-4.22,5.67A4.49,4.49,0,0,1,89.87,439.5Z"/><path class="cls-1" d="M39.92,424.86a5,5,0,0,1-4.74-3.39c-.39-1.16-9.38-28.66,14.18-49.42,12.6-11.11,30.77-13.58,45.22-6.17,11.77,6.05,18,17.32,16.73,30.15a5,5,0,0,1-10-1c.88-8.72-3.26-16.1-11.35-20.25a30.74,30.74,0,0,0-34,4.77C37.36,396,44.58,418,44.65,418.25a5,5,0,0,1-3.12,6.35A5.07,5.07,0,0,1,39.92,424.86Z"/><path class="cls-1" d="M48.5,500.5h-.23c-.37,0-36.77-2.17-36.77-41.49,0-16.6,6.93-30.68,19.5-39.63a51.76,51.76,0,0,1,41.92-7.72,39.46,39.46,0,0,1,17.32-17c10.62-5.15,23.42-5.09,38,.18a5,5,0,1,1-3.39,9.4c-12-4.32-22.17-4.51-30.28-.58a29.6,29.6,0,0,0-14.19,15.63A5,5,0,0,1,74,422.39a41.65,41.65,0,0,0-37.22,5.12c-9.87,7-15.31,18.21-15.31,31.49,0,12.48,4.46,21.53,13.25,26.89a33.77,33.77,0,0,0,14,4.62,5,5,0,0,1-.25,10Z"/><path class="cls-1" d="M461.89,500.72a52.68,52.68,0,0,1-5.46-.25,5,5,0,0,1,1.14-9.94c.17,0,17.84,1.89,27-6.6,3.91-3.62,5.7-8.65,5.45-15.38-.35-9.81-3.23-17-8.56-21.32-8.36-6.8-20.46-4.83-20.58-4.81a5,5,0,0,1-1.74-9.85c.68-.12,16.59-2.82,28.55,6.84,7.71,6.23,11.86,15.91,12.33,28.78.35,9.69-2.57,17.46-8.68,23.11C482.5,499.45,469.27,500.72,461.89,500.72Z"/><path class="cls-1" d="M478.09,444.53a5,5,0,0,1-3.64-8.43,21.68,21.68,0,0,0,4.68-21,18,18,0,0,0-13.55-12.6c-18.25-4.07-25.06,4.81-25.34,5.19a5,5,0,0,1-6.27,1.63,5,5,0,0,1-2.59-6c0-.11,3.63-12.69-3.14-23.44-5.12-8.15-14.95-13.45-29.21-15.76a5,5,0,0,1,1.6-9.87c17.29,2.8,29.45,9.67,36.15,20.42a38.12,38.12,0,0,1,5.59,19.51c5.72-2.47,14-4,25.38-1.45a27.72,27.72,0,0,1,20.94,19.43,31.86,31.86,0,0,1-7,30.74A5,5,0,0,1,478.09,444.53Z"/><path class="cls-1" d="M399.81,461.59c-16.58,0-24.45-10.91-26.39-17.47a5,5,0,0,1,9.58-2.87c.44,1.37,4.71,12.92,22.48,9.82a5,5,0,0,1,1.71,9.86A43.8,43.8,0,0,1,399.81,461.59Z"/><path class="cls-1" d="M87.84,373.47a5,5,0,0,1-3-1c-7.67-5.87-11-13.82-9.49-22.38a26.89,26.89,0,0,1,1.2-4.37c-5.82-1.75-10.28-4.78-13.29-9.06a23,23,0,0,1-4-12.54C46.53,322.17,34.32,313.51,27.06,301c-9-15.53-8.58-34.1,1.1-51,10.18-17.72,26.31-26.75,46.67-26.11A76,76,0,0,1,96.67,228c6.07-14.95,23.89-17.47,33.42-16.51a5,5,0,0,1-1,10c-.88-.09-21.53-1.88-24.18,14a5,5,0,0,1-7.08,3.69c-1.66-.78-41.1-18.81-61,15.81-10.77,18.73-5.33,33.71-1.12,41,6.42,11.09,18,18.54,28.78,18.54a5,5,0,0,1,4.88,6.11s-1.18,5.8,2.07,10.33c2.42,3.38,6.84,5.47,13.14,6.22a5,5,0,0,1,3.38,8c-1.34,1.8-7.59,11.29,2.91,19.33a5,5,0,0,1-3,9Z"/><path class="cls-1" d="M116,260.5a5,5,0,0,1-5-5c0-11.05-12.3-16-12.83-16.17a5,5,0,0,1,3.57-9.34c.79.3,19.26,7.52,19.26,25.51A5,5,0,0,1,116,260.5Z"/><path class="cls-1" d="M448.5,298a4.91,4.91,0,0,1-1.36-.19,5,5,0,0,1-3.45-6.17c3.17-11.21,1.85-20.46-3.84-26.74-6.17-6.84-17.13-9.63-29.31-7.48-9,1.58-15.42,6-19.15,13.13a27,27,0,0,0-3,10.2,5,5,0,1,1-10-.33c.32-9.56,7.09-28.73,30.42-32.85,15.6-2.75,30,1.22,38.47,10.62,8,8.85,10.14,21.69,6,36.17A5,5,0,0,1,448.5,298Z"/><path class="cls-1" d="M478.73,345.82c-.46,0-.92,0-1.39,0a5,5,0,0,1,.65-10c7.39.48,11-5.83,12.2-8.56,2.48-5.64,2.56-13.69-2.11-18.16a15.72,15.72,0,0,0-14.42-4.16,24.45,24.45,0,0,0-7.65,2.8,5,5,0,0,1-7-1.77c-2.8-5-6.84-7.33-12.41-7.2a22.7,22.7,0,0,0-8.1,1.77,5,5,0,1,1-4.27-9,32.36,32.36,0,0,1,12.15-2.73A22.73,22.73,0,0,1,465,297.07c7.74-3.18,20.08-4.74,30,4.8,7.15,6.86,8.93,18.95,4.34,29.4C495.35,340.35,487.54,345.82,478.73,345.82Z"/><path class="cls-1" d="M482.35,414.82a5,5,0,0,1-3.63-8.44c11.64-12.28.45-24.44,0-24.95a5,5,0,0,1-1-5.2c4.09-10.74,4.18-19.71.26-26-3.46-5.51-10.27-9.08-18.68-9.8-14.46-1.22-21,6.88-21.27,7.23a5,5,0,1,1-8-6c.39-.53,9.89-12.87,30.09-11.15,11.56,1,21.15,6.24,26.3,14.44,3.73,5.94,6.89,16.22,1.61,32.05,5.75,7.78,10.91,22.61-2,36.25A5,5,0,0,1,482.35,414.82Z"/></g><g id="Outline"><path class="cls-1" d="M471.23,305.32a5,5,0,0,1-4.94-4.29L447,166.94H435.49L426,251.55a5,5,0,0,1-9.94-1.12l10-89.05a5,5,0,0,1,5-4.44h20.34a5,5,0,0,1,4.95,4.29l19.88,138.38a5,5,0,0,1-4.24,5.66A4.36,4.36,0,0,1,471.23,305.32Z"/><path class="cls-1" d="M453.36,197.25h-24a5,5,0,0,1,0-10h24a5,5,0,0,1,0,10Z"/><path class="cls-1" d="M456.36,225.75h-30a5,5,0,0,1,0-10h30a5,5,0,0,1,0,10Z"/><path class="cls-1" d="M431.36,166.94a5,5,0,0,1-5-5v-66a5,5,0,1,1,10,0v66A5,5,0,0,1,431.36,166.94Z"/><path class="cls-1" d="M451.36,166.94a5,5,0,0,1-5-5v-33a5,5,0,1,1,10,0v33A5,5,0,0,1,451.36,166.94Z"/><path class="cls-1" d="M463.25,256.71H426.36a5,5,0,0,1,0-10h36.89a5,5,0,1,1,0,10Z"/><path class="cls-1" d="M362.26,161.54a5,5,0,0,1-5-5V150a5,5,0,0,1,10,0v6.58A5,5,0,0,1,362.26,161.54Z"/><path class="cls-1" d="M150.7,161.54a5,5,0,0,1-5-5V150a5,5,0,1,1,10,0v6.58A5,5,0,0,1,150.7,161.54Z"/><path class="cls-1" d="M70.29,186.26a5,5,0,0,1-4.84-3.75c-1.32-5.21-4.85-8.43-10.8-9.83a29.69,29.69,0,0,0-9.4-.56,5,5,0,1,1-1.38-9.9c6.28-.88,17.05-.09,24.4,6.34,2.92-5.71,8.68-11.44,20-12.85a5,5,0,1,1,1.23,9.92C75.33,167.4,75.18,178.73,75.29,181A5,5,0,0,1,71,186.2,4.74,4.74,0,0,1,70.29,186.26Z"/><path class="cls-1" d="M382.27,201h-43a5,5,0,0,1,0-10h43a5,5,0,0,1,0,10Z"/><path class="cls-1" d="M382.27,231.12h-43a5,5,0,0,1,0-10h43a5,5,0,0,1,0,10Z"/><path class="cls-1" d="M173.74,201H130.68a5,5,0,0,1,0-10h43.06a5,5,0,0,1,0,10Z"/><path class="cls-1" d="M173.74,231.12H130.68a5,5,0,0,1,0-10h43.06a5,5,0,0,1,0,10Z"/></g></svg>