<?xml version="1.0" ?><svg viewBox="0 0 512 512" xmlns="http://www.w3.org/2000/svg"><defs><style>.cls-1{fill:#3f456b;}</style></defs><title/><g id="Lines"><path class="cls-1" d="M256.56,406.69A205.19,205.19,0,0,1,184.7,394l-29.85.47c-6.38,0-12.83.1-19.06.2-22.09.34-44.93.69-67.29-3.18-18.66-3.23-50.77-12.63-56.21-39.22-2.55-12.45-.32-23.64,6.46-32.37,7.44-9.58,19.66-15.26,34.4-16,29.42-1.43,51.19,19.45,70.4,37.88,5.58,5.36,10.86,10.42,16.22,14.9,30.87,25.83,72.45,40,117,40s85.94-14.25,116.68-40c5.36-4.48,10.63-9.54,16.22-14.9,19.21-18.43,41-39.3,70.4-37.88,14.74.71,27,6.39,34.4,16,6.78,8.73,9,19.92,6.46,32.37-5.44,26.6-37.55,36-56.21,39.22-22.36,3.87-45.2,3.52-67.29,3.18-6.23-.1-12.68-.19-19-.19l-30-.48a205.56,205.56,0,0,1-71.68,12.68Zm102.08-22.2c6.28,0,12.74.1,19,.19,21.63.34,44,.68,65.42-3,16.15-2.8,43.87-10.6,48.12-31.37,1.95-9.51.37-17.89-4.56-24.23-5.62-7.25-15.21-11.55-27-12.12-25.11-1.22-44.36,17.24-63,35.1-5.72,5.49-11.12,10.66-16.73,15.36a170.29,170.29,0,0,1-29.84,20l8.5.14ZM56,313.87c-.78,0-1.56,0-2.36.06-11.77.57-21.36,4.87-27,12.12-4.92,6.34-6.5,14.72-4.56,24.23,4.26,20.77,32,28.57,48.13,31.37,21.43,3.71,43.79,3.37,65.42,3,6.28-.09,12.76-.19,19.14-.19l8.4-.14a170.88,170.88,0,0,1-29.82-20c-5.61-4.7-11-9.87-16.73-15.36C98.59,331.74,80,313.87,56,313.87Z"/><path class="cls-1" d="M404,309a5,5,0,0,1-4.85-3.79c-3.86-15.42-7.21-29.38-10.45-42.87C383.2,239.45,378,217.83,371.07,192c-.82-3.05-1.66-6.45-2.55-10C361.64,154.08,351.24,112,321.23,112c-13.93,0-25,7.43-30.44,20.39-5.74,13.76-15.63,32-35.1,32-10.61,0-20.52-6.8-26.53-18.2-1.64-3.1-3-6.29-4.27-9.37-2.72-6.48-5.29-12.6-10.19-17A33.24,33.24,0,0,0,192.77,112c-30,0-40.41,42.08-47.29,69.93-.89,3.59-1.73,7-2.55,10-6.31,23.51-10.79,43.27-15.54,64.19-3.49,15.37-7.09,31.26-11.54,49a5,5,0,1,1-9.7-2.42c4.42-17.69,8-33.53,11.49-48.85,4.77-21,9.27-40.87,15.63-64.56.79-3,1.62-6.31,2.5-9.85,3.7-15,8.3-33.59,16.49-48.93,10.13-19,23.76-28.6,40.51-28.6,10.73,0,21.15,3.8,28.58,10.42,6.59,5.88,9.73,13.35,12.76,20.57,1.27,3,2.46,5.87,3.89,8.58,2,3.87,7.85,12.86,17.69,12.86,10.41,0,18.39-8,25.87-25.89C288.5,111.92,303.33,102,321.23,102c16.75,0,30.38,9.62,40.51,28.6,8.19,15.34,12.79,34,16.49,48.93.88,3.54,1.71,6.89,2.5,9.85,7,26,12.18,47.67,17.69,70.62,3.24,13.47,6.59,27.41,10.43,42.79A5,5,0,0,1,404,309Z"/><path class="cls-1" d="M208,368a4.88,4.88,0,0,1-.85-.07c-35.27-6-63-29.31-87.55-49.84-12.32-10.32-36.59-27-60.78-22.63-17.94,3.23-32.34,18.08-35.83,37a5,5,0,1,1-9.83-1.82c4.24-22.94,21.88-41,43.89-45,12.1-2.18,37.16-1.85,69,24.8,23.54,19.72,50.21,42.07,82.81,47.65A5,5,0,0,1,208,368Z"/><path class="cls-1" d="M305.08,368a5,5,0,0,1-.84-9.93c32.6-5.58,59.28-27.93,82.82-47.65,31.81-26.65,56.86-27,69-24.8,22,4,39.64,22,43.89,45a5,5,0,1,1-9.84,1.82c-3.49-18.87-17.89-33.72-35.83-37-24.18-4.35-48.46,12.31-60.77,22.63-24.51,20.53-52.29,43.81-87.55,49.84A5,5,0,0,1,305.08,368Z"/><path class="cls-1" d="M390,256.5H266.25a5,5,0,0,1,0-10H390a5,5,0,0,1,0,10Z"/><path class="cls-1" d="M247,256.5H125a5,5,0,0,1,0-10H247a5,5,0,0,1,0,10Z"/><path class="cls-1" d="M389,320H286.38a5,5,0,0,1,0-10H389a5,5,0,0,1,0,10Z"/><path class="cls-1" d="M226.58,320H124a5,5,0,0,1,0-10H226.58a5,5,0,1,1,0,10Z"/><path class="cls-1" d="M282.54,332.8h-.05a13.53,13.53,0,0,1-5.35-1.32c-4.91-2.1-9.54-4.56-14-6.94l-2.5-1.32c-.61-.32-1.26-.69-1.91-1.07s-1.07-.61-1.58-.88c-.27-.15-.54-.31-.8-.48-1.4.76-2.79,1.56-4.23,2.39-2.46,1.42-5,2.88-7.73,4.21l-1.46.78c-5,2.69-14.18,7.69-19.39,1.86a8.49,8.49,0,0,1-2-5.61,93.61,93.61,0,0,1,1.53-17.26l.32-2.13c.4-2.64.76-4.94,1.09-6.86-6.12-4.6-16.66-13.45-19.4-19.88-1.68-3.93-.86-6.78.12-8.48a9.36,9.36,0,0,1,6.3-4.29c5.93-1.83,19.94-2.81,26.65-3.18a143.93,143.93,0,0,1,9.63-21.91,11,11,0,0,1,4.62-4.61,10.23,10.23,0,0,1,7.37-.53,8.8,8.8,0,0,1,2.2,1,11.53,11.53,0,0,1,3.81,4.24,143.68,143.68,0,0,1,9.33,22c6.7.47,20.69,1.64,26.6,3.56a9.33,9.33,0,0,1,6.23,4.37c1,1.72,1.74,4.58,0,8.49-2.81,6.32-13.27,14.9-19.48,19.45a104.83,104.83,0,0,1,2.44,25.65C290.8,329.24,287.35,332.8,282.54,332.8ZM280.93,324Zm-66.29-49c2.16,3.75,10.3,11.32,18.21,16.84a5,5,0,0,1,2,5.06c-.29,1.52-.81,4.41-1.58,9.57l-.32,2.17a95.9,95.9,0,0,0-1.45,13.79,43.59,43.59,0,0,0,6.6-3.08c.74-.4,1.37-.74,1.85-1,2.41-1.17,4.7-2.49,7.12-3.88,2.2-1.27,4.47-2.57,6.86-3.78a5.13,5.13,0,0,1,2.28-.54h.11a9.26,9.26,0,0,1,5,1.95l.47.3c.56.3,1.21.67,1.85,1s1.07.62,1.59.9l2.52,1.33c4.46,2.37,8.68,4.61,13.16,6.53a94.6,94.6,0,0,0-3-24.66,5,5,0,0,1,2-5.37c8-5.41,16.23-12.86,18.44-16.59-4.71-1.49-19.2-2.79-27.42-3.27a5,5,0,0,1-4.52-3.62,132.12,132.12,0,0,0-9.49-23.33,4.85,4.85,0,0,0-.28-.45,3.72,3.72,0,0,0-.29.44,132,132,0,0,0-9.81,23.2,5,5,0,0,1-4.57,3.56C233.87,272.51,219.37,273.6,214.64,275Z"/></g><g id="Outline"><path class="cls-1" d="M216,289.25h-9a5,5,0,0,1,0-10h9a5,5,0,0,1,0,10Zm-29,0H177a5,5,0,0,1,0-10h10a5,5,0,0,1,0,10Zm-30,0H147a5,5,0,0,1,0-10h10a5,5,0,0,1,0,10Zm-30,0H117a5,5,0,0,1,0-10h10a5,5,0,0,1,0,10Z"/><path class="cls-1" d="M396,289H386a5,5,0,0,1,0-10h10a5,5,0,0,1,0,10Zm-30,0H356a5,5,0,0,1,0-10h10a5,5,0,0,1,0,10Zm-30,0H326a5,5,0,0,1,0-10h10a5,5,0,0,1,0,10Zm-30,0h-8a5,5,0,0,1,0-10h8a5,5,0,0,1,0,10Z"/></g></svg>