<?xml version="1.0" ?><svg viewBox="0 0 512 512" xmlns="http://www.w3.org/2000/svg"><defs><style>.cls-1{fill:#3f456b;}</style></defs><title/><g id="Lines"><path class="cls-1" d="M46,470H45a5,5,0,1,1,0-10h1a5,5,0,0,1,0,10Z"/><path class="cls-1" d="M461,470h-1a5,5,0,0,1,0-10h1a5,5,0,0,1,0,10Z"/><path class="cls-1" d="M465.64,169.2h-10V148.33c0-1.85,0-5.7-7.93-5.7H362.19c-6.53,0-7.05,2.47-7.05,5.7V169.2h-10V148.33c0-10,6.22-15.7,17.05-15.7h85.52c8.67,0,17.93,4.12,17.93,15.7Z"/><path class="cls-1" d="M172.28,168.25h-10V146.79c0-4.12-3.12-7.74-6.69-7.74H58c-3.55,0-6.78,3.69-6.78,7.74v21.46h-10V146.79c0-9.62,7.68-17.74,16.78-17.74h97.55c9,0,16.69,8.12,16.69,17.74Z"/><path class="cls-1" d="M472.16,499.5H38.69A27.72,27.72,0,0,1,11,471.81V192.25a27.72,27.72,0,0,1,27.69-27.68h138v10h-138A17.71,17.71,0,0,0,21,192.25V471.81A17.71,17.71,0,0,0,38.69,489.5H472.16a17.71,17.71,0,0,0,17.69-17.69V192.25a17.71,17.71,0,0,0-17.69-17.68h-140v-10h140a27.72,27.72,0,0,1,27.69,27.68V471.81A27.72,27.72,0,0,1,472.16,499.5Z"/><path class="cls-1" d="M142.11,266.56l-9.2-3.92,54.72-128.41C188.48,132,198.15,108,220.07,108h68.32c9.47,0,18.14,4.65,25.06,13.45a53.14,53.14,0,0,1,7.38,12.77l50,117.54-9.2,3.92L311.5,137.82c-.07-.19-7.6-19.82-23.11-19.82H220.07c-15.62,0-23,19.62-23.11,19.82l-.09.23Z"/><rect class="cls-1" height="10" width="140.1" x="354.75" y="223.77"/><rect class="cls-1" height="10" width="135.5" x="16" y="223.77"/><rect class="cls-1" height="10" width="150.63" x="17.32" y="432.93"/><rect class="cls-1" height="10" width="152.38" x="342.47" y="432.93"/><path class="cls-1" d="M255.43,444A111.77,111.77,0,1,1,367.19,332.26,111.9,111.9,0,0,1,255.43,444Zm0-213.53A101.77,101.77,0,1,0,357.19,332.26,101.88,101.88,0,0,0,255.43,230.5Z"/><path class="cls-1" d="M255.43,413.5a81.24,81.24,0,1,1,81.23-81.24A81.33,81.33,0,0,1,255.43,413.5Zm0-152.47a71.24,71.24,0,1,0,71.23,71.23A71.31,71.31,0,0,0,255.43,261Z"/><path class="cls-1" d="M255.43,473.11c-77.67,0-140.85-63.18-140.85-140.85s63.18-140.84,140.85-140.84S396.27,254.6,396.27,332.26,333.09,473.11,255.43,473.11Zm0-271.69c-72.15,0-130.85,58.69-130.85,130.84s58.7,130.85,130.85,130.85,130.84-58.7,130.84-130.85A131,131,0,0,0,255.43,201.42Z"/><path class="cls-1" d="M391.27,366.85v-10a24.59,24.59,0,1,0,0-49.18v-10a34.59,34.59,0,1,1,0,69.18Z"/><rect class="cls-1" height="34.2" width="10" x="67.57" y="134.05"/><rect class="cls-1" height="34.2" width="10" x="133.34" y="134.05"/><rect class="cls-1" height="34.2" width="10" x="101.77" y="134.05"/><path class="cls-1" d="M286.83,181.8H224a16.36,16.36,0,0,1-16.34-16.34V148.68A16.36,16.36,0,0,1,224,132.34h62.82a16.36,16.36,0,0,1,16.35,16.34v16.78A16.36,16.36,0,0,1,286.83,181.8ZM224,142.34a6.35,6.35,0,0,0-6.34,6.34v16.78A6.35,6.35,0,0,0,224,171.8h62.82a6.35,6.35,0,0,0,6.35-6.34V148.68a6.35,6.35,0,0,0-6.35-6.34Z"/></g><g id="Outline"><path class="cls-1" d="M27.82,100.84a5,5,0,0,1,0-10l28.52-.1h0a5,5,0,0,1,0,10l-28.51.1Z"/><path class="cls-1" d="M159.44,100.39a5,5,0,0,1,0-10l27.42-.09h0a5,5,0,0,1,0,10l-27.42.09Z"/><path class="cls-1" d="M152.37,74a5,5,0,0,1-2.52-9.32L174.1,50.56a5,5,0,1,1,5,8.65l-24.25,14.1A5,5,0,0,1,152.37,74Z"/><path class="cls-1" d="M133.38,55.14a5,5,0,0,1-4.33-7.49L143,23.31a5,5,0,1,1,8.68,5L137.72,52.62A5,5,0,0,1,133.38,55.14Z"/><path class="cls-1" d="M107.71,47.92a5,5,0,0,1-5-5l-.09-27.42a5,5,0,0,1,5-5h0a5,5,0,0,1,5,5l.09,27.43a5,5,0,0,1-5,5Z"/><path class="cls-1" d="M81.69,55.31a5,5,0,0,1-4.32-2.48L63.26,28.58a5,5,0,1,1,8.64-5L86,47.8a5,5,0,0,1-4.32,7.51Z"/><path class="cls-1" d="M62.83,74.3a5,5,0,0,1-2.48-.67L36,59.69A5,5,0,0,1,41,51L65.32,65a5,5,0,0,1-2.49,9.34Z"/></g></svg>