<?xml version="1.0" ?><svg viewBox="0 0 512 512" xmlns="http://www.w3.org/2000/svg"><defs><style>.cls-1{fill:#3f456b;}</style></defs><title/><g id="Lines"><path class="cls-1" d="M79.77,271.36a5,5,0,0,1-4.85-3.82L54.4,183.09a5,5,0,0,1,3.68-6l25.73-6.26c2.08-.58,13-2.92,21.18,9.56,6.44,9.81,35.3,41,35.59,41.34,3.64,4,14.84,13.87,23.5,11.76a5,5,0,0,1,2.37,9.72,20.41,20.41,0,0,1-4.82.57c-14.51,0-27.82-14.63-28.44-15.32-1.15-1.25-29.66-32.08-36.56-42.57-4.71-7.17-9.87-5.51-9.92-5.49l-.44.13-21,5.09,19.34,79.6a5,5,0,0,1-3.68,6A4.85,4.85,0,0,1,79.77,271.36Z"/><path class="cls-1" d="M235.41,385.31a11.55,11.55,0,0,1-7.07-2.3c-5.37-4-5.88-11.78-5.92-13.24l-5.74-81.92a5,5,0,0,1,3.89-5.23l86.06-19.39a5,5,0,0,1,5.79,6.61l-33.3,90.66-.09.24c-.65,1.52-6.64,15-16.47,17.68l-7.11,1.95c-4.46,1.23-8.88,2.45-15.92,4.36h0A15.68,15.68,0,0,1,235.41,385.31ZM227,291.43l5.44,77.75c0,.09,0,.18,0,.26.05,1.76.76,4.7,1.94,5.58a3.13,3.13,0,0,0,2.57.06h0c7-1.91,11.42-3.12,15.88-4.35l7.12-2c4-1.11,8.34-8.38,9.86-11.85L299.87,275Z"/><path class="cls-1" d="M212.8,227.17a5,5,0,0,1-4.46-2.73L176.08,161.2c-.69-1.25-4.26-8.18-1.7-14.41,1-2.46,3.33-5.7,8.73-7.21,7-2,11.42-3.18,15.87-4.41l7.13-2c9.83-2.72,21.87,5.76,23.21,6.74l.2.15,64.68,52.38a5,5,0,0,1-6.29,7.77L223.33,148c-3.06-2.19-10.5-6.24-14.54-5.12l-7.15,2c-4.44,1.22-8.84,2.44-15.83,4.4-1.22.34-1.95.8-2.18,1.37-.59,1.43.45,4.47,1.2,5.78l.11.21,32.31,63.33a5,5,0,0,1-4.45,7.27Z"/><path class="cls-1" d="M90.33,301.15h-.07c-4.63-.07-7.39-.13-8-.15-18.31.45-21.64-9.21-22.17-11.55h0c-4-17.3,10.22-25.78,18.32-27.86,7.83-2,15.78-4.79,23.47-7.51,3.89-1.38,7.91-2.81,11.89-4.11L272.27,197.9l5.41-1.8c19.65-6.55,40-13.33,62.2-8.6a53.93,53.93,0,0,1,19.5,8c2,1.38,3.8,2.81,5.54,4.2,3.44,2.75,6.42,5.13,10.29,6.63,8.22,2.61,16,2.8,24,2.76h2.15c8.63,0,17.56-.07,26.34-.06,10.12,0,22.39,6.11,25.22,17.37a100.43,100.43,0,0,1,2.62,12.77c2,10.48-.51,31.65-24.38,38.6-24.87,7.25-75.41,13.94-77.55,14.22C335,294.45,321.21,296,301,297.79a5,5,0,0,1-.91-10c20.05-1.82,33.71-3.32,52.22-5.72.51-.07,51.91-6.88,76.06-13.91,21.34-6.22,17.49-26.42,17.32-27.28a3.74,3.74,0,0,1-.09-.66h0a89.58,89.58,0,0,0-2.38-11.39c-1.54-6.13-9.11-9.8-15.54-9.81-8.76,0-17.66,0-26.28.06h-2.15c-8.85,0-17.59-.19-27.25-3.28a1.25,1.25,0,0,1-.25-.09c-5.4-2-9.32-5.18-13.11-8.21-1.67-1.34-3.25-2.6-5-3.78a44,44,0,0,0-15.91-6.49c-19.57-4.17-37.73,1.89-56.95,8.31l-5.46,1.81L116.88,259.47c-3.86,1.27-7.83,2.67-11.67,4-7.91,2.81-16.08,5.7-24.35,7.79-1.4.36-13.81,4-11,15.89.07.31.09.19.09.3.36.71,2.48,3.77,12.21,3.52h.26s2.83.08,8,.15a5,5,0,0,1-.07,10ZM69.91,287.67Z"/><path class="cls-1" d="M208.62,302.81c-20.45,0-43-.83-66.1-1.76a5,5,0,0,1,.4-10c28.34,1.15,55.73,2.13,79.35,1.62h.11a5,5,0,0,1,.11,10Q215.74,302.8,208.62,302.81Z"/><path class="cls-1" d="M106,342.47c-2.67,0-7.66-.51-11.6-3.86-2.16-1.83-4.79-5.25-5.07-11.09-.55-11.23-4.44-44.62-4.48-45a5,5,0,0,1,3.52-5.36l62.18-18.85a5,5,0,0,1,6.26,6.14l-17,60.6a35.47,35.47,0,0,1-2.41,7.67c-3.82,8.4-9.49,9.65-12.53,9.65H107.46C107.14,342.44,106.62,342.47,106,342.47ZM95.23,285.56c1.08,9.44,3.6,32.22,4.06,41.48.13,2.73,1.21,3.65,1.56,3.95,1.8,1.53,5.1,1.53,5.82,1.45a5.25,5.25,0,0,1,.56,0h17.59c2.38,0,4.6-6,5.12-9.24a5.41,5.41,0,0,1,.12-.55l14.63-52.05Z"/><path class="cls-1" d="M345,240c-13.08,0-19-11-20.36-17.13l-6.92-29.42a5,5,0,1,1,9.73-2.29l6.94,29.5c.41,1.75,2.86,10.21,12.14,9.25,14.06-1.44,96.18-14,97-14.1a5,5,0,1,1,1.51,9.88c-3.39.52-83.19,12.7-97.5,14.17A25.12,25.12,0,0,1,345,240Z"/><path class="cls-1" d="M223.72,270.11a14.93,14.93,0,0,1-14.2-11l-1.85-5.65a2.17,2.17,0,0,1-.07-.24A15.11,15.11,0,0,1,208.84,242a14.16,14.16,0,0,1,8.7-7l75.67-23.32.15-.05a14.77,14.77,0,0,1,17.95,10.64l2.87,10.44a14.78,14.78,0,0,1-10,18.3l-.14,0-76.65,18.64A13.9,13.9,0,0,1,223.72,270.11Zm-6.51-19.64,1.84,5.63c0,.08,0,.16.07.23a4.85,4.85,0,0,0,5.67,3.64l.14,0,76.63-18.64a4.84,4.84,0,0,0,3-6l-2.86-10.45a4.85,4.85,0,0,0-5.61-3.65l-75.64,23.32-.15,0a4.22,4.22,0,0,0-2.62,2.15A5.25,5.25,0,0,0,217.21,250.47Zm85.62-4.34h0Z"/><path class="cls-1" d="M277,257.47a5,5,0,0,1-4.84-3.78l-7-27.64a5,5,0,1,1,9.7-2.44l7,27.64a5,5,0,0,1-3.63,6.07A5.17,5.17,0,0,1,277,257.47Z"/><path class="cls-1" d="M244.48,265.42a5,5,0,0,1-4.84-3.78l-6.39-25.39a5,5,0,0,1,9.69-2.44l6.39,25.39a5,5,0,0,1-3.62,6.07A5.17,5.17,0,0,1,244.48,265.42Z"/><path class="cls-1" d="M306,277.76a5,5,0,0,1-.69-9.95c102.23-14.33,142.21-28.82,142.6-29a5,5,0,0,1,3.48,9.38c-1.63.6-41.12,15-144.69,29.49A4.2,4.2,0,0,1,306,277.76Z"/><path class="cls-1" d="M64.89,210.09a5,5,0,0,1-1.23-9.85L108,189a5,5,0,1,1,2.45,9.69l-44.3,11.21A4.78,4.78,0,0,1,64.89,210.09Z"/><path class="cls-1" d="M227.41,374.53a5,5,0,0,1-4.81-6.36c5.6-19.83,18.67-35.44,37.79-45.12a87.09,87.09,0,0,1,27.42-8.69,5,5,0,0,1,1.05,9.95h0c-1.83.19-45,5.35-56.64,46.58A5,5,0,0,1,227.41,374.53Z"/><path class="cls-1" d="M215.35,168.86c-12.74,0-27.3-2.41-39.67-10.71a5,5,0,1,1,5.57-8.3c24.91,16.71,62.39,5,62.76,4.89a5,5,0,1,1,3.05,9.52A113.62,113.62,0,0,1,215.35,168.86Z"/><path class="cls-1" d="M449.24,237.45a5,5,0,0,1-1.06-9.89l12.76-2.78a5,5,0,1,1,2.12,9.77l-12.75,2.78A4.94,4.94,0,0,1,449.24,237.45Z"/><path class="cls-1" d="M470.41,279.4c-13.13,0-21.73-29.27-24.82-47.18a145.27,145.27,0,0,1-2.23-26h0c.22-16.5,4.15-25.87,11.35-27.11,6-1,11.61,3.83,16.7,14.44,4.08,8.52,7.51,20.1,9.66,32.6,3.2,18.61,4.88,50.74-9.12,53.15A9,9,0,0,1,470.41,279.4Zm.25-10h0Zm-17.3-63.09a135,135,0,0,0,2.09,24.2c4.21,24.48,11.76,36.83,14.77,38.69,2.22-2.76,5.21-16.92,1-41.4S459.48,191,456.46,189.14c-1,1.35-2.95,6.16-3.1,17.18Z"/><path class="cls-1" d="M442.86,89a5,5,0,0,1-2.58-9.28c13.22-7.94,32.05-4.35,32.85-4.2a5,5,0,0,1-1.92,9.82h0c-.16,0-15.89-3-25.79,3A5,5,0,0,1,442.86,89Z"/><path class="cls-1" d="M378.18,64a5,5,0,0,1-4.95-4.36c-.44-3.31-2.94-7.31-3.87-8.57a5,5,0,0,1,8-6c.5.67,4.91,6.74,5.75,13.24a5,5,0,0,1-4.31,5.61C378.61,64,378.39,64,378.18,64Z"/><path class="cls-1" d="M457.24,149.13h-125a40.76,40.76,0,0,1-10.19-79.85c-.06-.82-.1-1.64-.1-2.47a31.86,31.86,0,0,1,51-25.45A55.23,55.23,0,0,1,476.08,76.52a37.23,37.23,0,0,1-11.23,72.61Zm-124.71-10H464.79a27.23,27.23,0,0,0,4.52-54,5,5,0,0,1-3.95-6.17,45.24,45.24,0,0,0-43.78-56.56,45.46,45.46,0,0,0-42.29,29.18,5,5,0,0,1-8.54,1.4A21.86,21.86,0,0,0,332,66.79a22.08,22.08,0,0,0,.61,5.13,5,5,0,0,1-4,6.11,30.75,30.75,0,0,0,4,61.08Z"/><path class="cls-1" d="M354.3,79.23a5,5,0,0,1-1.57-.25c-11.42-3.75-26.62-.54-26.77-.5a5,5,0,0,1-2.12-9.78c.73-.16,18-3.81,32,.78a5,5,0,0,1-1.56,9.75Z"/><path class="cls-1" d="M91.43,439.67a5,5,0,0,1-3.07-1.06c-8.18-6.36-23.36-3.83-28.52-2.31a5,5,0,0,1-6.41-4.8c0-8.45-2.53-15-7.52-19.49-10.45-9.37-28.26-7.56-28.44-7.54a5,5,0,0,1-1.08-9.94c.91-.1,22.47-2.28,36.2,10,5.86,5.26,9.36,12.24,10.46,20.82,7.89-1.31,21.8-2.18,31.45,5.33a5,5,0,0,1-3.07,8.95Z"/><path class="cls-1" d="M323.43,468.49a5.06,5.06,0,0,1-1.75-.32,5,5,0,0,1-3.24-4.35c-.11-1.36-3.31-34.24-57.67-38.33-35.72-2.69-52.45,11-63,23.25a5,5,0,0,1-7.51.06c-10.75-12-26.12-6.5-26.27-6.44a5,5,0,0,1-6.47-3.07c-.3-.86-8.07-21.62-36-17.35-28.25,4.32-29.39,27.26-29.43,28.24a5,5,0,0,1-5,4.82h-.18a5,5,0,0,1-4.82-5.18c.4-11.12,8.83-33.32,37.91-37.77,25.36-3.88,39.53,9.45,45.08,19.72,6.37-1.24,18.27-1.93,28.65,6.55,11.66-12.14,31.16-25.57,67.81-22.81,18,1.36,42.59,6.81,57.1,25.07a48.16,48.16,0,0,1,8,14.47c7.4-4,18.53-6.25,30.45,1a5,5,0,1,1-5.2,8.54c-13.77-8.39-24.4,2-24.84,2.41A5,5,0,0,1,323.43,468.49Z"/><path class="cls-1" d="M303.17,438.18l-.42,0a5,5,0,0,1-4.57-5.4,48,48,0,0,1,9.09-22.39c6.92-9.38,20.45-20.45,46.09-21.74a74.07,74.07,0,0,1,2.9-18.79c5.06-17.16,16.14-29.11,32.05-34.57,17.67-6.06,33.85-5.84,46.79.62a44.83,44.83,0,0,1,22.59,26.56,5,5,0,1,1-9.51,3.1,34.86,34.86,0,0,0-17.54-20.71c-10.5-5.24-24-5.28-39.09-.11-12.8,4.39-21.42,13.69-25.61,27.64a63,63,0,0,0-2.52,20.72,5,5,0,0,1-5,5.41c-19.89,0-34.39,6-43.11,17.81a38.26,38.26,0,0,0-7.17,17.28A5,5,0,0,1,303.17,438.18Z"/><path class="cls-1" d="M496.93,420.5a5,5,0,0,1-5-5c0-14.24-12.93-17-13.48-17.1a5,5,0,0,1-3.5-7.11c0-.06,3.63-7.65,1.08-13.79-1.37-3.28-4.31-5.66-9-7.27-16.49-5.7-23.28,8.94-23.56,9.57a5,5,0,0,1-9.12-4.1c3.67-8.18,15.91-21.84,35.94-14.93,7.47,2.58,12.51,6.94,15,13s1.68,12.34.54,16.64c7.35,3.34,16.1,11,16.1,25.11A5,5,0,0,1,496.93,420.5Z"/><path class="cls-1" d="M362.6,500.5a5.39,5.39,0,0,1-1-.09,5,5,0,0,1-3.94-5.87,60.17,60.17,0,0,1,39.18-44.91,67.93,67.93,0,0,1,29.95-2.8c8.05,1,19.47,3.92,28.17,11.95a28.93,28.93,0,0,1,4.83,5.74c6.6-.78,20.46-1.32,30.63,5.91,6.47,4.6,10.32,11.43,11.44,20.28A5,5,0,0,1,492,492c-.76-6-3.15-10.4-7.29-13.36-9.9-7.07-26.39-3.74-26.55-3.71a5,5,0,0,1-5.61-2.87,17.9,17.9,0,0,0-4.31-5.9c-11.58-10.68-33.95-12-48-7.05-16.52,5.78-29.34,20.45-32.67,37.39A5,5,0,0,1,362.6,500.5Z"/></g><g id="Outline"><path class="cls-1" d="M115,122.77h-.3A5,5,0,0,1,110,118c-.22-5.37-3-9.25-8.53-11.85a29.44,29.44,0,0,0-9.08-2.5,5,5,0,1,1,.7-10c6.32.44,16.7,3.44,22.55,11.26,4-5,10.86-9.4,22.28-8.42a5,5,0,1,1-.86,10c-14.29-1.23-16.77,9.84-17.12,12.07A5,5,0,0,1,115,122.77Z"/><path class="cls-1" d="M459,328.46a5,5,0,0,1-5-4.35c-1.67-12.79-18.14-12.72-18.85-12.71h-.06a5,5,0,0,1-.11-10c6.3-.13,16.94,1.94,23.47,9.19,3.58-5.32,10-10.33,21.43-10.38h0a5,5,0,0,1,0,10c-6.51,0-11,2.23-13.7,6.74a17,17,0,0,0-2.27,6.78,5,5,0,0,1-4.81,4.73Z"/></g></svg>