<?xml version="1.0" ?><svg viewBox="0 0 512 512" xmlns="http://www.w3.org/2000/svg"><defs><style>.cls-1{fill:#3f456b;}</style></defs><title/><g id="Lines"><path class="cls-1" d="M28.74,195.2a5,5,0,0,1-4.48-2.76A124.58,124.58,0,0,1,11,136.15,125.85,125.85,0,0,1,228.66,50.06a5,5,0,1,1-7.29,6.84,114.76,114.76,0,0,0-84.51-36.61A116,116,0,0,0,21,136.15,114.77,114.77,0,0,0,33.2,188a5,5,0,0,1-4.46,7.24Z"/><path class="cls-1" d="M114.37,85.11a5,5,0,0,1-4.94-4.28,40.16,40.16,0,0,1,39.7-45.95,39.93,39.93,0,0,1,35.94,22.26,5,5,0,0,1-8.95,4.46A30.13,30.13,0,0,0,119,75a30.56,30.56,0,0,0,.32,4.39,5,5,0,0,1-4.23,5.67A6,6,0,0,1,114.37,85.11Z"/><path class="cls-1" d="M53.72,137.75a4.84,4.84,0,0,1-1.7-.3,20.55,20.55,0,1,1,26.32-12.34,5,5,0,0,1-9.4-3.4A10.57,10.57,0,0,0,62.6,108.2a10.55,10.55,0,0,0-7.18,19.85,5,5,0,0,1-1.7,9.7Z"/><path class="cls-1" d="M365.89,180.18a5,5,0,0,1-2.58-9.29c29.52-17.71,72.26-9.58,74.06-9.22a5,5,0,1,1-1.93,9.81c-.57-.11-40.85-7.69-67,8A5,5,0,0,1,365.89,180.18Z"/><path class="cls-1" d="M210.29,119.94a5,5,0,0,1-4.95-4.35c-1.51-11.55-10.53-23.78-10.62-23.9a5,5,0,0,1,8-6c.44.58,10.68,14.46,12.51,28.57a5,5,0,0,1-4.31,5.61A4.73,4.73,0,0,1,210.29,119.94Z"/><path class="cls-1" d="M400.5,324.82h0l-288,0H100.08A91,91,0,0,1,83,145a69.61,69.61,0,0,1,68.72-80.83,69.34,69.34,0,0,1,48.35,19.54,125.86,125.86,0,0,1,237.65,78.45,82.65,82.65,0,0,1,62.74,80.31,82.44,82.44,0,0,1-81.74,82.38Zm0-10h18.17a72.55,72.55,0,0,0,50.8-21.42,71.79,71.79,0,0,0,21-51,72.65,72.65,0,0,0-59.66-71.57,5,5,0,0,1-3.95-6.17A115.93,115.93,0,0,0,314.7,19.83,115.85,115.85,0,0,0,206.37,94.57a5,5,0,0,1-8.54,1.4A59.61,59.61,0,0,0,93.77,147.74a5,5,0,0,1-.69,3.93,5,5,0,0,1-3.36,2.18,81,81,0,0,0,10.66,160.93H112.5l288,0Z"/><path class="cls-1" d="M152.82,156.65a5,5,0,0,1-1.56-.26C122,146.79,83.53,154.9,83.14,155A5,5,0,0,1,81,145.21c1.68-.37,41.51-8.78,73.35,1.68a5,5,0,0,1-1.56,9.76Z"/><path class="cls-1" d="M149.65,240h-.44a5,5,0,0,1-4.54-5.41c.17-2,4.84-49.15,58.08-67.48,27.82-9.59,60.35-7.39,87,5.87,17.87,8.88,30.64,21.68,35,35.1a5,5,0,1,1-9.5,3.11c-3.56-10.89-14.49-21.56-30-29.26-24.31-12.09-54-14.1-79.31-5.37-46.92,16.16-51.21,57.17-51.37,58.9A5,5,0,0,1,149.65,240Z"/></g><g id="Outline"><path class="cls-1" d="M150.43,463.36H105.61a5,5,0,0,1,0-10h44.82a5,5,0,0,1,0,10Z"/><path class="cls-1" d="M117.19,482.49a4.88,4.88,0,0,1-2.49-.67,5,5,0,0,1-1.83-6.83l21.64-37.49a5,5,0,0,1,8.66,5L121.53,480A5,5,0,0,1,117.19,482.49Z"/><path class="cls-1" d="M138.84,482.49a5,5,0,0,1-4.33-2.5L112.86,442.5a5,5,0,1,1,8.66-5L143.17,475a5,5,0,0,1-1.83,6.83A4.94,4.94,0,0,1,138.84,482.49Z"/><path class="cls-1" d="M278.43,463.36H233.61a5,5,0,0,1,0-10h44.82a5,5,0,0,1,0,10Z"/><path class="cls-1" d="M245.19,482.49a4.88,4.88,0,0,1-2.49-.67,5,5,0,0,1-1.83-6.83l21.64-37.49a5,5,0,0,1,8.66,5L249.53,480A5,5,0,0,1,245.19,482.49Z"/><path class="cls-1" d="M266.84,482.49a5,5,0,0,1-4.33-2.5L240.86,442.5a5,5,0,0,1,8.66-5L271.17,475a5,5,0,0,1-1.83,6.83A4.94,4.94,0,0,1,266.84,482.49Z"/><path class="cls-1" d="M215.43,384.36H170.61a5,5,0,0,1,0-10h44.82a5,5,0,0,1,0,10Z"/><path class="cls-1" d="M182.19,403.49a4.88,4.88,0,0,1-2.49-.67,5,5,0,0,1-1.83-6.83l21.64-37.49a5,5,0,0,1,8.66,5L186.53,401A5,5,0,0,1,182.19,403.49Z"/><path class="cls-1" d="M203.84,403.49a5,5,0,0,1-4.33-2.5L177.86,363.5a5,5,0,0,1,8.66-5L208.17,396a5,5,0,0,1-1.83,6.83A4.94,4.94,0,0,1,203.84,403.49Z"/><path class="cls-1" d="M343.43,384.36H298.61a5,5,0,0,1,0-10h44.82a5,5,0,0,1,0,10Z"/><path class="cls-1" d="M310.19,403.49a4.88,4.88,0,0,1-2.49-.67,5,5,0,0,1-1.83-6.83l21.64-37.49a5,5,0,0,1,8.66,5L314.53,401A5,5,0,0,1,310.19,403.49Z"/><path class="cls-1" d="M331.84,403.49a5,5,0,0,1-4.33-2.5L305.86,363.5a5,5,0,1,1,8.66-5L336.17,396a5,5,0,0,1-1.83,6.83A4.94,4.94,0,0,1,331.84,403.49Z"/><path class="cls-1" d="M405.43,463.36H360.61a5,5,0,0,1,0-10h44.82a5,5,0,0,1,0,10Z"/><path class="cls-1" d="M372.19,482.49a4.88,4.88,0,0,1-2.49-.67,5,5,0,0,1-1.83-6.83l21.64-37.49a5,5,0,1,1,8.66,5L376.53,480A5,5,0,0,1,372.19,482.49Z"/><path class="cls-1" d="M393.84,482.49a5,5,0,0,1-4.33-2.5L367.86,442.5a5,5,0,1,1,8.66-5L398.17,475a5,5,0,0,1-1.83,6.83A4.94,4.94,0,0,1,393.84,482.49Z"/></g></svg>