<?xml version="1.0" ?><svg id="Lines" viewBox="0 0 512 512" xmlns="http://www.w3.org/2000/svg"><defs><style>.cls-1{fill:#3f456b;}</style></defs><title/><path class="cls-1" d="M66.76,88.82a5,5,0,0,1-4.27-7.58C63,80.46,73.41,62.38,57,44.76s-36-9.07-36.83-8.69A5,5,0,0,1,15.93,27C25.11,22.69,47,19.41,64.31,38c11.29,12.12,12.55,24.62,11.63,33A40.92,40.92,0,0,1,71,86.43,5,5,0,0,1,66.76,88.82Z"/><path class="cls-1" d="M52,92.08c-9.54,0-20.85-3.29-30.79-14C3.91,59.58,8.74,37.94,13.7,29.09A5,5,0,0,1,22.43,34C22,34.77,12,53.58,28.5,71.31s35.78,8.17,36,8.07a5,5,0,1,1,4.59,8.88A38.4,38.4,0,0,1,52,92.08Z"/><path class="cls-1" d="M444.36,152.82a5,5,0,0,1-4.28-2.39c-5.26-8.63-10.62-29.86,6.73-48.48S486,86.69,495.19,91a5,5,0,0,1-4.26,9c-.8-.37-20.29-9-36.81,8.7s-5.61,36.27-5.5,36.46a5,5,0,0,1-4.26,7.6Z"/><path class="cls-1" d="M459.46,156.09c-.55,0-1.08,0-1.6,0a40.57,40.57,0,0,1-15.8-3.79,5,5,0,1,1,4.59-8.88c.77.39,19.55,9.56,36-8.07,16.67-17.9,6.19-37.14,6.08-37.33a5,5,0,1,1,8.72-4.89c5,8.85,9.79,30.49-7.48,49C479.35,153.5,467.79,156.09,459.46,156.09Z"/><path class="cls-1" d="M106.36,134.82a5,5,0,0,1-4.28-2.39c-5.26-8.63-10.62-29.86,6.73-48.48S148,68.69,157.19,73a5,5,0,0,1-4.26,9c-.8-.37-20.29-9-36.81,8.7s-5.61,36.27-5.5,36.46a5,5,0,0,1-4.26,7.6Z"/><path class="cls-1" d="M121.46,138.09c-.55,0-1.08,0-1.6,0a40.57,40.57,0,0,1-15.8-3.79,5,5,0,0,1,4.57-8.89c.86.43,19.6,9.53,36-8.06,16.67-17.9,6.19-37.14,6.08-37.33a5,5,0,1,1,8.72-4.89c5,8.85,9.79,30.49-7.48,49C141.35,135.5,129.78,138.09,121.46,138.09Z"/><path class="cls-1" d="M255.51,491.07c-30.08,0-53.64-6.93-84-24.71a5,5,0,1,1,5.05-8.63c28.71,16.8,50.85,23.34,79,23.34,29.92,0,58.8-7.86,75.39-20.52A5,5,0,0,1,337,468.5C318.72,482.42,287.51,491.07,255.51,491.07Z"/><path class="cls-1" d="M359.28,497a5,5,0,0,1-3.54-1.47c-1.06-1.07-26.35-26.7-51.94-74.49A439.56,439.56,0,0,1,257,278.73a413.14,413.14,0,0,1-49.75,141.14C180,467,153.17,492,152,493.08a5,5,0,0,1-6.13.5C91.49,457.83,59,398.39,59,334.58c0-54.47,19.89-104.92,56-142.06,36.5-37.52,86.57-58.18,141-58.18s104.59,20.61,141,58c36.09,37.07,56,87.58,56,142.2,0,65.78-34.05,126.21-91.08,161.67A5,5,0,0,1,359.28,497ZM262.13,212.92a431.77,431.77,0,0,0,50.3,203c20.12,37.68,40.47,61.65,47.67,69.59,52-33.88,82.9-90,82.9-151,0-52-18.87-100-53.14-135.23-34.54-35.47-82.08-55-133.86-55s-99.23,19.59-133.82,55.15C87.89,234.75,69,282.73,69,334.58,69,393.7,98.48,448.87,148.06,483c7.55-7.66,29.25-31.14,50.7-68.45a404.58,404.58,0,0,0,53.37-201.61,5,5,0,1,1,10,0Z"/><path class="cls-1" d="M324.88,155.67h0a5,5,0,0,1-5-5c0-8-3.85-21.29-14.95-32.44-8.18-8.22-23.13-18-47.91-18-23.58,0-38.08,9.3-46.09,17.11-9.18,8.94-15.14,21.14-16,32.63a5,5,0,1,1-10-.7c1-14.08,7.89-28.33,18.94-39.1C213.3,101,230.08,90.19,257,90.19c28.21,0,45.48,11.4,55,21,13.24,13.31,17.91,29.15,17.86,39.54A5,5,0,0,1,324.88,155.67Z"/><path class="cls-1" d="M146.52,296c-21.71,0-39.37-16.82-39.37-37.5S124.81,221,146.52,221s39.38,16.82,39.38,37.5S168.24,296,146.52,296Zm0-65c-16.2,0-29.37,12.34-29.37,27.5S130.32,286,146.52,286s29.38-12.34,29.38-27.5S162.72,231,146.52,231Z"/><path class="cls-1" d="M346.44,305c-21.72,0-39.38-16.82-39.38-37.5S324.72,230,346.44,230s39.37,16.82,39.37,37.5S368.15,305,346.44,305Zm0-65c-16.2,0-29.38,12.34-29.38,27.5S330.24,295,346.44,295s29.37-12.34,29.37-27.5S362.64,240,346.44,240Z"/><path class="cls-1" d="M176.14,188c-13.42,0-23-4.45-30.14-14a5,5,0,1,1,8-6c5.18,6.92,12,10,22.14,10,16.2,0,29.38-12.34,29.38-27.5a9.84,9.84,0,0,0-.33-3.11l-.08-.33a5,5,0,0,1,9.78-2.12l.07.33a18.62,18.62,0,0,1,.56,5.23C215.52,171.18,197.85,188,176.14,188Z"/><path class="cls-1" d="M322.11,202c-21.71,0-39.38-16.82-39.38-37.5a33.38,33.38,0,0,1,9.64-23.94,5,5,0,0,1,7.26,6.88,23.23,23.23,0,0,0-6.9,17.06c0,15.16,13.18,27.5,29.38,27.5,16.74,0,28.89-10.51,28.89-25a5,5,0,0,1,10,0C361,187.28,344.64,202,322.11,202Z"/><path class="cls-1" d="M442.69,347c-21.71,0-39.37-16.82-39.37-37.5,0-19.88,16-36.35,36.4-37.49a5,5,0,0,1,.56,10c-15.37.86-27,12.69-27,27.51,0,15.16,13.18,27.5,29.37,27.5a30.83,30.83,0,0,0,4.41-.31,5,5,0,0,1,1.39,9.91A43.14,43.14,0,0,1,442.69,347Z"/><path class="cls-1" d="M399.33,460C377.61,460,360,443.18,360,422.5S377.61,385,399.33,385c15.3,0,29.34,8.55,35.76,21.79a5,5,0,1,1-9,4.36c-4.75-9.81-15.26-16.15-26.76-16.15-16.2,0-29.38,12.34-29.38,27.5S383.13,450,399.33,450c.61,0,1.22,0,1.83-.05a5,5,0,1,1,.57,10C400.93,460,400.12,460,399.33,460Z"/><path class="cls-1" d="M70.36,365a42,42,0,0,1-5.27-.33,5,5,0,0,1,1.27-9.92,31.24,31.24,0,0,0,4,.25c16.2,0,29.38-12.34,29.38-27.5S86.56,300,70.36,300c-.85,0-1.72,0-2.56.1a5,5,0,1,1-.81-10c1.11-.09,2.25-.14,3.37-.14,21.72,0,39.38,16.82,39.38,37.5S92.08,365,70.36,365Z"/><path class="cls-1" d="M121.14,466a42.13,42.13,0,0,1-7.19-.62,5,5,0,1,1,1.73-9.85,32,32,0,0,0,5.46.47c16.2,0,29.37-12.34,29.37-27.5S137.34,401,121.14,401c-14,0-26.13,9.32-28.83,22.15a5,5,0,1,1-9.78-2c3.67-17.44,19.9-30.1,38.61-30.1,21.71,0,39.37,16.82,39.37,37.5S142.85,466,121.14,466Z"/><path class="cls-1" d="M215.48,398.77a5.1,5.1,0,0,1-1.08-.12c-25.16-5.54-42.73-26.57-42.73-51.15,0-28.95,24.78-52.5,55.24-52.5a57.54,57.54,0,0,1,21.42,4.09,5,5,0,0,1-3.72,9.29,47.42,47.42,0,0,0-17.7-3.38c-24.95,0-45.24,19.07-45.24,42.5,0,19.85,14.34,36.86,34.88,41.38a5,5,0,0,1-1.07,9.89Z"/><path class="cls-1" d="M299.55,405.43a5,5,0,0,1-1.84-9.65,46.21,46.21,0,0,0,9.06-4.8,41.93,41.93,0,0,0,18.16-28,40.33,40.33,0,0,0-8-31.13c-10.67-14-29.09-20.53-46.94-16.67a5,5,0,0,1-2.11-9.78c21.62-4.67,44,3.33,57,20.38a50.27,50.27,0,0,1,9.88,38.8,51.83,51.83,0,0,1-22.39,34.68,56.71,56.71,0,0,1-11,5.84A5,5,0,0,1,299.55,405.43Z"/><path class="cls-1" d="M241,100h-.26A5,5,0,0,1,236,94.74c1.35-26.4-12.83-43.94-27.48-49.62-19.24-7.44-47.09-3.6-60.41,15.72a5,5,0,0,1-8.24-5.68c14.69-21.3,45.75-29.62,72.26-19.36,11.3,4.37,20.47,12.85,26.52,24.51a69.19,69.19,0,0,1,7.33,35A5,5,0,0,1,241,100Z"/><path class="cls-1" d="M272.08,100a5,5,0,0,1-5-4.74,69.3,69.3,0,0,1,7.33-34.95C280.47,48.65,289.64,40.17,301,35.8c26.5-10.26,57.56-1.94,72.25,19.36A5,5,0,1,1,365,60.84c-13.32-19.32-41.18-23.16-60.41-15.72-14.66,5.68-28.84,23.22-27.48,49.62a5,5,0,0,1-4.74,5.25Z"/><path class="cls-1" d="M90,188a4.58,4.58,0,0,1-.64,0A5,5,0,0,1,85,182.37c4-31.26-2.17-55.43-8-70.21-6.35-16-13.75-24.82-13.83-24.91a5,5,0,0,1,7.59-6.51c1.32,1.54,32.36,38.42,24.17,102.89A5,5,0,0,1,90,188Z"/><path class="cls-1" d="M91.28,157.24A4.91,4.91,0,0,1,89.6,157a5,5,0,0,1-3-6.39c5.7-15.92,15.89-24.14,16.32-24.48a5,5,0,0,1,6.23,7.83c-.16.12-8.46,7-13.13,20A5,5,0,0,1,91.28,157.24Z"/><path class="cls-1" d="M415,190a4.84,4.84,0,0,1-2-.42,5,5,0,0,1-2.59-6.57c10.41-24,29.79-38.43,30.61-39A5,5,0,1,1,447,152c-.26.2-18.1,13.61-27.39,35A5,5,0,0,1,415,190Z"/></svg>