<?xml version="1.0" ?><svg viewBox="0 0 512 512" xmlns="http://www.w3.org/2000/svg"><defs><style>.cls-1{fill:#3f456b;}</style></defs><title/><g id="Lines"><path class="cls-1" d="M159.7,152.63c-12.39,0-25.19-3.68-35-12-12.93-11-19.29-29.49-16.6-48.29,4.4-30.69,24.06-53.17,58.42-66.81C196.61,13.51,231.73,11,255.89,11a5,5,0,0,1,0,10c-23.28,0-57.06,2.39-85.73,13.77C139.37,47,121.8,66.83,118,93.71c-2.21,15.43,2.84,30.47,13.17,39.25,12.18,10.34,41.48,14.92,57,0,8.55-8.18,11.58-21.66,7.93-35.19-3.59-13.28-12.88-23.23-24.24-26a5,5,0,1,1,2.34-9.72c14.92,3.58,27,16.25,31.55,33.07,4.61,17.06.52,34.32-10.67,45C186.92,148,173.57,152.63,159.7,152.63Z"/><path class="cls-1" d="M354.15,152.2c-13.88,0-27.38-4.84-35.87-13-11.37-10.89-15.6-28.16-11-45.08,4.46-16.47,16-28.44,30.92-32a5,5,0,1,1,2.33,9.72c-11.29,2.71-20.11,12-23.59,24.91-3.62,13.38-.44,26.89,8.29,35.24,5.79,5.54,15.75,9.38,26,10,11.59.73,22.26-2.5,30-9.08,10.34-8.78,15.39-23.82,13.18-39.25C390.53,66.83,373,47,342.17,34.77,313.5,23.39,279.73,21,256.44,21a5,5,0,0,1,0-10c24.16,0,59.29,2.51,89.42,14.48,34.37,13.64,54,36.12,58.42,66.81,2.7,18.8-3.66,37.3-16.6,48.29C378.18,148.65,366,152.2,354.15,152.2Z"/><path class="cls-1" d="M311.3,100.5a5,5,0,0,1-1.47-.22c-51.58-15.85-107.24-.14-107.8,0a5,5,0,0,1-2.78-9.6c2.39-.69,59-16.73,113.52,0a5,5,0,0,1-1.47,9.78Z"/><path class="cls-1" d="M257.09,501C155.17,501,113.75,485.33,112,484.66a5,5,0,0,1-3-3.49C87.6,392.16,88.44,318,92.91,271.4c4.85-50.63,14.68-79.8,15.09-81a5,5,0,0,1,9.47,3.23h0c-.1.29-9.93,29.55-14.65,79.13C98.51,318,97.7,389.86,118.07,476.16c10.12,3.21,52.71,14.84,139,14.84,86.12,0,127.31-11.58,137.12-14.81,20.42-86.48,19.57-158.49,15.22-203.84-4.74-49.47-14.51-78.45-14.6-78.73a5,5,0,1,1,9.46-3.24c.42,1.22,10.24,30.39,15.1,81,4.47,46.57,5.3,120.76-16.08,209.77a5,5,0,0,1-3,3.46C398.7,485.3,359.06,501,257.09,501Z"/><path class="cls-1" d="M256,501a5,5,0,0,1-5-5V191c0-14.53-4.36-26.07-13-34.29C221.54,140.94,194.51,142,194.23,142a5,5,0,0,1-.47-10c1.27-.07,31.49-1.3,51.14,17.42C255.58,159.61,261,173.6,261,191V496A5,5,0,0,1,256,501Z"/><path class="cls-1" d="M256,196a5,5,0,0,1-5-5c0-17.24,5.4-31.21,16-41.52,19.9-19.27,50.81-18.52,52.12-18.48a5,5,0,0,1-.31,10h0c-.29,0-28.08-.62-44.89,15.71-8.6,8.35-13,19.89-13,34.29A5,5,0,0,1,256,196Z"/><path class="cls-1" d="M465,485H418a17.06,17.06,0,0,1-13-5.47c-7-7.71-6.1-20.54-6-22a5,5,0,0,1,10,.89h0c-.23,2.71-.07,10.58,3.4,14.36A7.1,7.1,0,0,0,418,475h47c13.06,0,14-17.47,14-18.22a.49.49,0,0,0,0-.12c.32-4.72.62-8.52.92-12.19.47-6,.88-11.15,1.24-18.72,2.65-55.7,3.53-120.82-10-181.49-13.74-61.4-40.63-99.26-79.92-112.55a5,5,0,1,1,3.21-9.47c23.77,8,43.58,24.4,58.88,48.65,12,19,21.27,43,27.59,71.18,13.83,61.83,12.95,127.79,10.27,184.16-.36,7.72-.8,13.22-1.27,19-.28,3.63-.58,7.38-.9,12C488.55,466.9,483,485,465,485Z"/><path class="cls-1" d="M92,485H47c-18,0-23.2-18.09-23.42-27.78-.31-4.61-.61-8.34-.9-12-.46-5.81-.9-11.31-1.26-19-2.69-56.37-3.56-122.33,10.27-184.16,6.32-28.23,15.6-52.18,27.59-71.18,15.3-24.25,35.11-40.61,58.88-48.65a5,5,0,1,1,3.21,9.47C82.07,145,55.19,182.86,41.45,244.26,27.88,304.93,28.75,370.05,31.4,425.75c.36,7.57.78,12.74,1.25,18.72.3,3.67.6,7.47.92,12.19,0,.08,0,.17,0,.25,0,.72.58,18.09,13.42,18.09H92c10.7,0,11-20.79,11-21a5,5,0,0,1,10,0C113,465.51,108.58,485,92,485Z"/><path class="cls-1" d="M201.19,125a5,5,0,0,1-1.15-9.87c2.28-.54,56.6-13.11,112.4,0a5,5,0,1,1-2.28,9.73c-53.54-12.57-107.28-.13-107.82,0A5,5,0,0,1,201.19,125Z"/><path class="cls-1" d="M156.11,433.76a5,5,0,0,1-4.92-4.14c-9.07-51.55-5.3-79.25-5.13-80.4a5,5,0,1,1,9.9,1.41c-.07.46-3.65,27.66,5.08,77.26a5,5,0,0,1-4.06,5.79A5.21,5.21,0,0,1,156.11,433.76Z"/><path class="cls-1" d="M354.33,433.76a5.12,5.12,0,0,1-.87-.08,5,5,0,0,1-4.06-5.79c8.76-49.78,5.12-77,5.08-77.26a5,5,0,0,1,9.9-1.41c.16,1.15,3.94,28.85-5.13,80.4A5,5,0,0,1,354.33,433.76Z"/></g><g id="Outline"><path class="cls-1" d="M106.29,225.5a5,5,0,0,1-.72-9.95c1.48-.21,149.8-21.35,301.13,0a5,5,0,0,1-1.4,9.9c-149.87-21.15-296.82-.22-298.29,0A5.81,5.81,0,0,1,106.29,225.5Z"/><path class="cls-1" d="M251.12,419.43c-45.88,0-97.65-2.38-149.78-9.53A5,5,0,1,1,102.7,400c154.24,21.16,305.37.22,306.88,0a5,5,0,0,1,1.4,9.9C410,410,342.18,419.43,251.12,419.43Z"/><path class="cls-1" d="M102,318.5a5,5,0,0,1-.14-10c1.55,0,156.88-4.45,308.55,0a5,5,0,1,1-.29,10c-151.38-4.45-306.42-.05-308,0Z"/><path class="cls-1" d="M38.36,240.59a5,5,0,0,1-4-8c9.28-12.49,25-19.35,45.5-19.84a111.45,111.45,0,0,1,27.7,2.89,5,5,0,0,1-2.51,9.68c-.64-.16-44.6-11.06-62.66,13.23A5,5,0,0,1,38.36,240.59Z"/><path class="cls-1" d="M26,326a5,5,0,0,1-3.15-8.89c22.55-18.25,70.08-9.41,72.09-9a5,5,0,0,1-1.88,9.82h0a159.87,159.87,0,0,0-25.39-2.29c-17.59-.11-30.87,3.07-38.52,9.27A5,5,0,0,1,26,326Z"/><path class="cls-1" d="M61.59,410.8c-11,0-23.46-.21-36.3-.86a5,5,0,1,1,.5-10c37.81,1.91,72.6,0,72.95,0a5,5,0,1,1,.55,10C99.06,410,83.36,410.8,61.59,410.8Z"/><path class="cls-1" d="M474,240a5,5,0,0,1-4-2c-18.11-24.36-62.19-12.29-62.64-12.17a5,5,0,0,1-2.7-9.62,110.16,110.16,0,0,1,27.24-3.47h.5c20.54.11,36.32,6.78,45.62,19.3a5,5,0,0,1-4,8Z"/><path class="cls-1" d="M486,326a5,5,0,0,1-3.15-1.11c-18.9-15.31-64.37-6.09-64.83-6a5,5,0,0,1-2-9.8c2-.42,50.58-10.27,73.17,8A5,5,0,0,1,486,326Z"/><path class="cls-1" d="M451.38,410.84c-22.3,0-38.6-.89-38.84-.9a5,5,0,1,1,.56-10c.35,0,35.84,2,73.65.06a5,5,0,1,1,.5,10C474.65,410.63,462.3,410.84,451.38,410.84Z"/></g></svg>