<?xml version="1.0" ?><svg id="Lines" viewBox="0 0 512 512" xmlns="http://www.w3.org/2000/svg"><defs><style>.cls-1{fill:#3f456b;}</style></defs><title/><path class="cls-1" d="M447,502H66a55.06,55.06,0,0,1-55-55V66A55.06,55.06,0,0,1,66,11H256a5,5,0,0,1,0,10H66A45.05,45.05,0,0,0,21,66V447a45.05,45.05,0,0,0,45,45H447a45.05,45.05,0,0,0,45-45V257a5,5,0,0,1,10,0V447A55.06,55.06,0,0,1,447,502Z"/><path class="cls-1" d="M256.5,261.5A5,5,0,0,1,253,253L493.88,12.05A5,5,0,0,1,501,19.12L260,260A5,5,0,0,1,256.5,261.5Z"/><path class="cls-1" d="M497.41,180a5,5,0,0,1-5-5V20.59H337a5,5,0,0,1,0-10H497.41a5,5,0,0,1,5,5V175A5,5,0,0,1,497.41,180Z"/></svg>