<?xml version="1.0" ?><svg viewBox="0 0 512 512" xmlns="http://www.w3.org/2000/svg"><defs><style>.cls-1{fill:#3f456b;}</style></defs><title/><g id="Lines"><path class="cls-1" d="M498.26,306h-480a5,5,0,0,1-5-5V120.49a45,45,0,0,1,45-45h400a45,45,0,0,1,45,45V301A5,5,0,0,1,498.26,306Zm-475-10h470V120.49a35,35,0,0,0-35-35h-400a35,35,0,0,0-35,35Z"/><path class="cls-1" d="M63,370a36.54,36.54,0,0,1-36.5-36.5,5,5,0,0,1,10,0,26.5,26.5,0,0,0,53,0,5,5,0,0,1,10,0A36.54,36.54,0,0,1,63,370Z"/><path class="cls-1" d="M63,348.34a14.9,14.9,0,0,1-14.89-14.88,5,5,0,0,1,10,0,4.89,4.89,0,0,0,9.77,0,5,5,0,0,1,10,0A14.89,14.89,0,0,1,63,348.34Z"/><path class="cls-1" d="M126,370a36.54,36.54,0,0,1-36.5-36.5,5,5,0,0,1,10,0,26.5,26.5,0,1,0,53,0,5,5,0,0,1,10,0A36.54,36.54,0,0,1,126,370Z"/><path class="cls-1" d="M126,348.34a14.9,14.9,0,0,1-14.89-14.88,5,5,0,0,1,10,0,4.89,4.89,0,0,0,9.78,0,5,5,0,0,1,10,0A14.9,14.9,0,0,1,126,348.34Z"/><path class="cls-1" d="M384.4,370a36.54,36.54,0,0,1-36.5-36.5,5,5,0,1,1,10,0,26.5,26.5,0,0,0,53,0,5,5,0,1,1,10,0A36.55,36.55,0,0,1,384.4,370Z"/><path class="cls-1" d="M384.4,348.34a14.9,14.9,0,0,1-14.89-14.88,5,5,0,0,1,10,0,4.89,4.89,0,0,0,9.77,0,5,5,0,0,1,10,0A14.89,14.89,0,0,1,384.4,348.34Z"/><path class="cls-1" d="M447.4,370a36.54,36.54,0,0,1-36.5-36.5,5,5,0,1,1,10,0,26.5,26.5,0,0,0,53,0,5,5,0,1,1,10,0A36.54,36.54,0,0,1,447.4,370Z"/><path class="cls-1" d="M447.4,348.34a14.9,14.9,0,0,1-14.89-14.88,5,5,0,0,1,10,0,4.89,4.89,0,0,0,9.78,0,5,5,0,0,1,10,0A14.9,14.9,0,0,1,447.4,348.34Z"/><path class="cls-1" d="M498.26,338.26h-480a5,5,0,0,1-5-5V301a5,5,0,0,1,10,0v27.3h470V301a5,5,0,0,1,10,0v32.3A5,5,0,0,1,498.26,338.26Z"/><path class="cls-1" d="M498.26,125.49h-480a5,5,0,0,1,0-10h480a5,5,0,0,1,0,10Z"/><path class="cls-1" d="M175.5,338.26a5,5,0,0,1-5-5V120.49a5,5,0,0,1,10,0V333.26A5,5,0,0,1,175.5,338.26Z"/><path class="cls-1" d="M336.5,338.26a5,5,0,0,1-5-5V120.49a5,5,0,0,1,10,0V333.26A5,5,0,0,1,336.5,338.26Z"/><path class="cls-1" d="M255.16,306a5,5,0,0,1-5-5V120.49a5,5,0,0,1,10,0V301A5,5,0,0,1,255.16,306Z"/><path class="cls-1" d="M134.5,213h-76a15,15,0,0,1-15-15V154a15,15,0,0,1,15-15h76a15,15,0,0,1,15,15v44A15,15,0,0,1,134.5,213Zm-76-64a5,5,0,0,0-5,5v44a5,5,0,0,0,5,5h76a5,5,0,0,0,5-5V154a5,5,0,0,0-5-5Z"/><path class="cls-1" d="M454.5,213h-76a15,15,0,0,1-15-15V154a15,15,0,0,1,15-15h76a15,15,0,0,1,15,15v44A15,15,0,0,1,454.5,213Zm-76-64a5,5,0,0,0-5,5v44a5,5,0,0,0,5,5h76a5,5,0,0,0,5-5V154a5,5,0,0,0-5-5Z"/><path class="cls-1" d="M226.69,229H206.31a15,15,0,0,1-15-15V154a15,15,0,0,1,15-15h20.38a15,15,0,0,1,15,15v60A15,15,0,0,1,226.69,229Zm-20.38-80a5,5,0,0,0-5,5v60a5,5,0,0,0,5,5h20.38a5,5,0,0,0,5-5V154a5,5,0,0,0-5-5Z"/><path class="cls-1" d="M307,229H286.64a15,15,0,0,1-15-15V154a15,15,0,0,1,15-15H307a15,15,0,0,1,15,15v60A15,15,0,0,1,307,229Zm-20.38-80a5,5,0,0,0-5,5v60a5,5,0,0,0,5,5H307a5,5,0,0,0,5-5V154a5,5,0,0,0-5-5Z"/><path class="cls-1" d="M175.5,236.59H18.26a5,5,0,0,1,0-10H175.5a5,5,0,0,1,0,10Z"/><path class="cls-1" d="M495.12,236.59H337.88a5,5,0,0,1,0-10H495.12a5,5,0,0,1,0,10Z"/><path class="cls-1" d="M152.5,105.87h-80a5,5,0,0,1-5-5V80.54a5,5,0,0,1,10,0V95.87h70V81a5,5,0,0,1,10,0v19.88A5,5,0,0,1,152.5,105.87Z"/><path class="cls-1" d="M440.5,105.87h-80a5,5,0,0,1-5-5V80.54a5,5,0,0,1,10,0V95.87h70V81a5,5,0,0,1,10,0v19.88A5,5,0,0,1,440.5,105.87Z"/><path class="cls-1" d="M495.12,373H16.5a5,5,0,0,1,0-10H495.12a5,5,0,0,1,0,10Z"/><path class="cls-1" d="M496.5,437.51H15a5,5,0,0,1-5-5V400a5,5,0,0,1,5-5H496.5a5,5,0,0,1,5,5v32.5A5,5,0,0,1,496.5,437.51ZM20,427.51H491.5V405H20Z"/></g><g id="Outline"><path class="cls-1" d="M136.25,262H56.75a5,5,0,1,1,0-10h79.5a5,5,0,0,1,0,10Z"/><path class="cls-1" d="M136.25,282.51H56.75a5,5,0,0,1,0-10h79.5a5,5,0,0,1,0,10Z"/><path class="cls-1" d="M457.13,262H377.62a5,5,0,1,1,0-10h79.51a5,5,0,0,1,0,10Z"/><path class="cls-1" d="M457.13,282.51H377.62a5,5,0,0,1,0-10h79.51a5,5,0,0,1,0,10Z"/></g></svg>