<?xml version="1.0" ?><svg viewBox="0 0 512 512" xmlns="http://www.w3.org/2000/svg"><defs><style>.cls-1{fill:#3f456b;}</style></defs><title/><g id="Lines"><path class="cls-1" d="M495,311H463c-7.16,0-13-6.73-13-15V283c0-8.27,5.82-15,13-15h32a5,5,0,0,1,0,10H463c-1.38,0-3,2.19-3,5v13c0,2.82,1.6,5,3,5h32a5,5,0,0,1,0,10Z"/><path class="cls-1" d="M103.94,421.5a45.11,45.11,0,1,1,45.11-45.11A45.16,45.16,0,0,1,103.94,421.5Zm0-80.22a35.11,35.11,0,1,0,35.11,35.11A35.15,35.15,0,0,0,103.94,341.28Z"/><path class="cls-1" d="M103.94,394a17.59,17.59,0,1,1,17.59-17.59A17.61,17.61,0,0,1,103.94,394Zm0-25.18a7.59,7.59,0,1,0,7.59,7.59A7.59,7.59,0,0,0,103.94,368.8Z"/><path class="cls-1" d="M423.69,421.5a45.11,45.11,0,1,1,45.11-45.11A45.16,45.16,0,0,1,423.69,421.5Zm0-80.22a35.11,35.11,0,1,0,35.11,35.11A35.15,35.15,0,0,0,423.69,341.28Z"/><path class="cls-1" d="M423.69,394a17.59,17.59,0,1,1,17.59-17.59A17.61,17.61,0,0,1,423.69,394Zm0-25.18a7.59,7.59,0,1,0,7.59,7.59A7.59,7.59,0,0,0,423.69,368.8Z"/><path class="cls-1" d="M383.58,382.11H304c-6.2,0-11.23-1.92-14.94-5.69-5.91-6-5.92-14.33-5.91-15.26V178.27c0-15.41,12.56-21,21-21h55.75c22.17,0,32.43,17.79,32.85,18.55a3.33,3.33,0,0,1,.25.5l25.46,60.17,53.36,3.64c9.94.49,28.63,6.43,28.63,25.39v97.14a16.18,16.18,0,0,1-3.53,12.11C493,379.54,486.38,382,477.29,382H463.8a5,5,0,0,1,0-10h13.49c5.81,0,9.92-1.2,11.88-3.48a6.17,6.17,0,0,0,1.37-4.63,2.92,2.92,0,0,1-.07-.84V265.52c0-14.32-18.38-15.37-19.16-15.41h-.1l-56.47-3.85a5,5,0,0,1-4.27-3l-26.53-62.7c-1.05-1.71-8.71-13.25-24-13.25H304.17c-1.8,0-11,.68-11,11v183c0,.11,0,5.11,3.09,8.19,1.78,1.79,4.32,2.66,7.76,2.66h79.56a5,5,0,1,1,0,10Z"/><path class="cls-1" d="M320.92,278.27a5,5,0,0,1-5-5V265.1a5,5,0,0,1,10,0v8.17A5,5,0,0,1,320.92,278.27Z"/><path class="cls-1" d="M415.08,246.43h-93.2a5,5,0,0,1-5-5V193.27a5,5,0,0,1,5-5h69.51a5,5,0,0,1,0,10H326.88v38.16h88.2a5,5,0,0,1,0,10Z"/><path class="cls-1" d="M304,382.11h-160a5,5,0,0,1,0-10H304a5,5,0,0,1,0,10Z"/><path class="cls-1" d="M390.45,358.76H139.9a5,5,0,1,1,0-10H390.45a5,5,0,1,1,0,10Z"/><path class="cls-1" d="M493.31,358.76h-36.5a5,5,0,1,1,0-10h36.5a5,5,0,0,1,0,10Z"/><path class="cls-1" d="M69.33,358.76H15.83a5,5,0,1,1,0-10h53.5a5,5,0,0,1,0,10Z"/><path class="cls-1" d="M495,331.59H471.66a5,5,0,0,1,0-10H495a5,5,0,0,1,0,10Z"/><path class="cls-1" d="M63.83,382.11h-48a5,5,0,0,1-5-5V106.34a14.94,14.94,0,0,1,15-14.84H278.17a14.94,14.94,0,0,1,15,14.84V247.27a5,5,0,1,1-10,0V106.34a4.92,4.92,0,0,0-5-4.84H25.83a4.92,4.92,0,0,0-5,4.84V372.11h43a5,5,0,0,1,0,10Z"/></g><g id="Outline"><path class="cls-1" d="M288.17,306H15.83a5,5,0,1,1,0-10H288.17a5,5,0,1,1,0,10Z"/></g></svg>