<?xml version="1.0" ?><svg id="图层_1" style="enable-background:new 0 0 512 512;" version="1.1" viewBox="0 0 512 512" xml:space="preserve" xmlns="http://www.w3.org/2000/svg" xmlns:xlink="http://www.w3.org/1999/xlink"><style type="text/css">
	.st0{fill:#3F456B;}
</style><title/><g id="Lines"><path class="st0" d="M270.6,207.5H57.7c-8.1,0-14.7-6.6-14.7-14.7v-12.6c0-8.1,6.6-14.7,14.7-14.7h212.9c8.1,0,14.7,6.6,14.7,14.7   v12.6C285.2,200.9,278.7,207.5,270.6,207.5z M57.7,175.5c-2.6,0-4.7,2.1-4.7,4.6c0,0,0,0,0,0v12.6c0,2.6,2.1,4.7,4.7,4.7h212.9   c2.6,0,4.7-2.1,4.7-4.7v-12.6c0-2.6-2.1-4.7-4.7-4.7L57.7,175.5z"/><path class="st0" d="M256.1,311H73.2c-8.1,0-14.7-6.6-14.7-14.7v-93.9c0-2.8,2.2-5,5-5c2.8,0,5,2.2,5,5v93.9c0,2.6,2.1,4.7,4.7,4.7   h182.9c2.6,0,4.7-2.1,4.7-4.7v-93.9c0-2.8,2.2-5,5-5s5,2.2,5,5v93.9C270.7,304.4,264.2,311,256.1,311z"/><path class="st0" d="M231.9,286.8c-2.8,0-5-2.2-5-5v-57.1c0-2.8,2.2-5,5-5s5,2.2,5,5v57.1C236.9,284.6,234.6,286.8,231.9,286.8z"/><path class="st0" d="M96.4,286.8c-2.8,0-5-2.2-5-5v-57.1c0-2.8,2.2-5,5-5s5,2.2,5,5v57.1C101.4,284.6,99.2,286.8,96.4,286.8z"/><path class="st0" d="M141.9,286.8c-2.8,0-5-2.2-5-5v-57.1c0-2.8,2.2-5,5-5s5,2.2,5,5v57.1C146.9,284.6,144.7,286.8,141.9,286.8z"/><path class="st0" d="M186.4,286.8c-2.8,0-5-2.2-5-5v-57.1c0-2.8,2.2-5,5-5s5,2.2,5,5v57.1C191.4,284.6,189.2,286.8,186.4,286.8z"/><path class="st0" d="M79.5,175.1c-2.8,0-5-2.2-5-5c0-1.6,0.7-3.1,2-4l61.9-46.4c2.2-1.7,5.3-1.2,7,1s1.2,5.3-1,7c0,0,0,0,0,0   l-61.9,46.4C81.6,174.7,80.6,175.1,79.5,175.1z"/><path class="st0" d="M249.8,175.1c-1.1,0-2.1-0.3-3-1l-61.9-46.4c-2.2-1.7-2.7-4.8-1-7s4.8-2.7,7-1l61.9,46.4c2.2,1.7,2.7,4.8,1,7   C252.8,174.3,251.3,175.1,249.8,175.1L249.8,175.1z"/><path class="st0" d="M466,433H46c-19.3,0-35-15.7-35-35l0,0V108c0-19.3,15.7-35,35-35h420c19.3,0,35,15.7,35,35l0,0v290   C501,417.3,485.3,433,466,433L466,433z M46,83c-13.8,0-25,11.2-25,25l0,0v290c0,13.8,11.2,25,25,25l0,0h420c13.8,0,25-11.2,25-25   l0,0V108c0-13.8-11.2-25-25-25l0,0H46z"/><path class="st0" d="M16,346c-2.8,0-5,2.2-5,5s2.2,5,5,5h353.8c-0.7-3.3-1.4-6.7-2.3-10H16z"/><path class="st0" d="M495,346h-72.3c2.7,3.7,6.1,6.7,8.9,10H495c2.8,0,5-2.2,5-5S497.8,346,495,346z"/><path class="st0" d="M33.1,500c-2.5,0-4.5-1.8-4.9-4.2c-0.7-7.3,1.7-14.6,6.6-20.1c9-10.6,25.8-15.9,49.9-15.9   c13.4,0,30.7-2.4,37.2-13.8c2.6-4.5,2.4-8.2,2.2-13.3c0-1.5-0.1-3-0.1-4.6c0-2.8,2.2-5,5-5c2.8,0,5,2.2,5,5c0,1.5,0.1,2.9,0.1,4.3   c0.2,5.8,0.4,11.8-3.6,18.7c-7.1,12.3-23,18.7-45.9,18.7c-26.2,0-37.5,6.8-42.3,12.4c-5.1,6-4.3,12-4.3,12.1   c0.4,2.7-1.4,5.3-4.2,5.7c0,0,0,0,0,0C33.6,500,33.4,500,33.1,500z"/><path class="st0" d="M296,423c-2.8,0-5,2.2-5,5v43c3.3,0,6.7-0.1,10-0.1V428C301,425.2,298.8,423,296,423z"/><path class="st0" d="M216,423c-2.8,0-5,2.2-5,5v42.3c3.3,0.2,6.7,0.4,10,0.5V428C221,425.2,218.8,423,216,423z"/><path class="st0" d="M368.1,499.3c-2.8,0-5-2.2-5-5v-12.9c0-3.2-2.6-5.7-5.7-5.7H155.7c-3.2,0-5.7,2.6-5.7,5.7v12.9   c0,2.8-2.2,5-5,5s-5-2.2-5-5v-12.9c0-8.7,7-15.7,15.7-15.7h201.7c8.7,0,15.7,7,15.7,15.7v12.9C373.1,497,370.8,499.3,368.1,499.3z"/><path class="st0" d="M416,500H97c-2.8,0-5-2.2-5-5s2.2-5,5-5h319c2.8,0,5,2.2,5,5S418.8,500,416,500z"/><path class="st0" d="M256,410.5c-12.2,0-22-9.8-22-22s9.8-22,22-22s22,9.8,22,22S268.2,410.5,256,410.5z M256,376.6   c-6.6,0-12,5.4-12,12s5.4,12,12,12s12-5.4,12-12S262.6,376.6,256,376.6z"/><path class="st0" d="M439,253H314c-8.3,0-15,6.7-15,15v27c0,8.3,6.7,15,15,15h44.4c-0.6-3.3-1.6-6.7-2.7-10H314c-2.8,0-5-2.2-5-5   v-27c0-2.8,2.2-5,5-5h125c2.8,0,5,2.2,5,5v27c0,2.8-2.2,5-5,5h-51.8c5.2,4.5,11.1,7.2,17.2,10H439c8.3,0,15-6.7,15-15v-27   C454,259.7,447.3,253,439,253z"/><path class="st0" d="M423.1,410.3c-0.3,0-0.5,0-0.8-0.1c-1.4-0.2-2.6-1-3.3-2.1l-25.5-36.9l-15,11.5c-2.2,1.7-5.3,1.3-7-0.9   c-0.4-0.5-0.7-1.2-0.9-1.8l-25.1-99.6c-0.7-2.7,0.9-5.4,3.6-6.1c1.2-0.3,2.6-0.1,3.7,0.5l89.5,50.4c2.4,1.4,3.3,4.4,1.9,6.8   c-0.3,0.6-0.8,1.1-1.3,1.5l-15,11.5l28.6,34.6c1.8,2.1,1.5,5.3-0.7,7c0,0-0.1,0.1-0.2,0.1l-29.5,22.5   C425.2,410,424.2,410.3,423.1,410.3z M394.6,359.1c0.3,0,0.5,0,0.8,0.1c1.4,0.2,2.6,1,3.3,2.1l25.5,36.9l21.2-16.2l-28.6-34.5   c-1.8-2.1-1.5-5.3,0.7-7c0,0,0.1-0.1,0.2-0.1l13.1-10l-72.7-41l20.4,81l13.1-10C392.4,359.5,393.5,359.2,394.6,359.1z"/><path class="st0" d="M435,500h-1c-2.8,0-5-2.2-5-5s2.2-5,5-5h1c2.8,0,5,2.2,5,5S437.8,500,435,500z"/></g><g id="Outline"><path class="st0" d="M417,133H307c-2.8,0-5-2.2-5-5c0-2.8,2.2-5,5-5h110c2.8,0,5,2.2,5,5C422,130.8,419.8,133,417,133z"/><path class="st0" d="M448,164.7H307c-2.8,0-5-2.2-5-5s2.2-5,5-5h141c2.8,0,5,2.2,5,5S450.8,164.7,448,164.7z"/><path class="st0" d="M385,196.3h-78c-2.8,0-5-2.2-5-5s2.2-5,5-5h78c2.8,0,5,2.2,5,5S387.8,196.3,385,196.3z"/><path class="st0" d="M433,196h-25c-2.8,0-5-2.2-5-5s2.2-5,5-5h25c2.8,0,5,2.2,5,5S435.8,196,433,196z"/><path class="st0" d="M385,228h-78c-2.8,0-5-2.2-5-5s2.2-5,5-5h78c2.8,0,5,2.2,5,5S387.8,228,385,228z"/><path class="st0" d="M384.2,33.5c-2.8,0-5-2.2-5-5V16c0-2.8,2.2-5,5-5s5,2.2,5,5v12.5C389.2,31.3,387,33.5,384.2,33.5z"/><path class="st0" d="M360.8,39.8c-1.8,0-3.4-1-4.3-2.5l-6.3-10.8c-1.4-2.4-0.5-5.5,1.9-6.8c2.4-1.4,5.4-0.5,6.8,1.8l6.3,10.8   c1.4,2.4,0.6,5.4-1.8,6.8C362.5,39.6,361.6,39.8,360.8,39.8z"/><path class="st0" d="M424.9,57c-2.8,0-5-2.2-5-5c0-1.8,0.9-3.4,2.5-4.3l10.8-6.2c2.4-1.4,5.4-0.6,6.8,1.8c1.4,2.4,0.6,5.4-1.8,6.8   c0,0,0,0-0.1,0l-10.8,6.2C426.7,56.8,425.8,57,424.9,57z"/><path class="st0" d="M343.6,57c-0.9,0-1.7-0.2-2.5-0.7l-10.8-6.2c-2.4-1.4-3.2-4.5-1.8-6.8c1.4-2.4,4.4-3.2,6.8-1.8l10.8,6.2   c2.4,1.4,3.2,4.4,1.8,6.8C347,56.1,345.3,57,343.6,57z"/><path class="st0" d="M407.7,39.8c-0.9,0-1.7-0.2-2.5-0.7c-2.4-1.4-3.2-4.4-1.8-6.8l6.2-10.8c1.4-2.4,4.5-3.2,6.8-1.8   c2.4,1.4,3.2,4.4,1.8,6.8l-6.3,10.8C411.2,38.9,409.5,39.8,407.7,39.8z"/></g></svg>