<svg id="visual" viewBox="0 0 900 600" width="900" height="600" xmlns="http://www.w3.org/2000/svg" xmlns:xlink="http://www.w3.org/1999/xlink" version="1.1"><path d="M557 600L611 545L629 491L611 436L728 382L647 327L620 273L647 218L584 164L746 109L539 55L728 0L900 0L900 55L900 109L900 164L900 218L900 273L900 327L900 382L900 436L900 491L900 545L900 600Z" fill="#000000"></path><path d="M332 600L485 545L404 491L386 436L359 382L395 327L341 273L341 218L377 164L440 109L305 55L368 0L729 0L540 55L747 109L585 164L648 218L621 273L648 327L729 382L612 436L630 491L612 545L558 600Z" fill="#5248be"></path><path d="M215 600L350 545L251 491L260 436L233 382L296 327L278 273L242 218L305 164L332 109L206 55L224 0L369 0L306 55L441 109L378 164L342 218L342 273L396 327L360 382L387 436L405 491L486 545L333 600Z" fill="#9480ff"></path><path d="M89 600L215 545L98 491L125 436L89 382L143 327L143 273L80 218L215 164L206 109L107 55L152 0L225 0L207 55L333 109L306 164L243 218L279 273L297 327L234 382L261 436L252 491L351 545L216 600Z" fill="#5248be"></path><path d="M0 600L0 545L0 491L0 436L0 382L0 327L0 273L0 218L0 164L0 109L0 55L0 0L153 0L108 55L207 109L216 164L81 218L144 273L144 327L90 382L126 436L99 491L216 545L90 600Z" fill="#000000"></path></svg>