<?xml version="1.0" ?><svg viewBox="0 0 512 512" xmlns="http://www.w3.org/2000/svg"><defs><style>.cls-1{fill:#3f456b;}</style></defs><title/><g id="Lines"><path class="cls-1" d="M86,342a5,5,0,0,1-5-4.58C78.8,310.81,79,289,79.1,268c-15.73,1.3-32.31-8-37.67-22.12C38,236.79,36.9,226.12,38,212.28c.5-6.42,2.27-19.37,5.68-27.26a14.9,14.9,0,0,1,26.43-2.75c4.29,6,4.71,13.7,5,19.86l0,.72c.19,3.51.21,7,.23,10.44,0,4.35,0,8.47.39,12.58.13,1.43.36,4,3.86,5,1.49-38.87,5.74-64.12,7.55-73.42,5.14-26.32,19.65-29,22.8-29.28,3.09-.46,19.34-1.53,27,25.16,4.53,15.86,11.25,69.14,12.19,126.47,2.48-2.26,3.69-6,4-9.31a193.16,193.16,0,0,0,.06-22.58c-.13-3.74-.27-7.6-.3-11.38,0-1.37-.12-3.13-.23-5-.63-10.15-1.57-25.48,9.92-30.83,5.87-2.73,10.33-1.24,13,.49,14.66,9.35,14.66,52.47,14.66,66.65V269c.05,14.81-1.23,29.95-10.93,40.41a22.7,22.7,0,0,1-14.15,6.89,51.54,51.54,0,0,1-16.3-.77c-.19,5.73-.46,11.27-.8,16.55a5,5,0,1,1-10-.65c.45-7,.78-14.57,1-22.4a5,5,0,0,1,6.48-4.66,44.74,44.74,0,0,0,18.42,2,13.06,13.06,0,0,0,8-3.76c7.7-8.31,8.3-21.69,8.26-33.58v-1.2a284.64,284.64,0,0,0-1.51-31.54c-2.46-21.27-7.15-25.79-8.53-26.67-.46-.3-1.32-.84-3.44.15-5.31,2.47-4.62,13.71-4.16,21.14.12,2,.24,3.88.25,5.52,0,3.64.17,7.43.3,11.1a200.6,200.6,0,0,1-.09,23.77c-1.16,13.74-10.2,20.22-18.66,20.54a4.93,4.93,0,0,1-3.65-1.38,5,5,0,0,1-1.54-3.57c-.45-56.85-7.23-114.51-11.89-130.83-5.4-18.87-14.78-18.16-15.74-18a2,2,0,0,1-1,.11c-1,.11-9.83,1.65-13.64,21.21-1.85,9.47-6.29,35.92-7.56,77a5,5,0,0,1-4.69,4.84c-11,.67-18.09-4.73-18.94-14.44-.39-4.52-.42-9-.43-13.41,0-3.43,0-6.67-.21-9.93l0-.73c-.28-5.12-.6-10.93-3.21-14.6a5.29,5.29,0,0,0-4.83-2.59A5.45,5.45,0,0,0,52.85,189c-2.52,5.81-4.3,16.55-4.89,24.06-1,12.32-.08,21.61,2.82,29.23,4.29,11.31,19.55,18.41,32,14.9A5,5,0,0,1,89.14,262l0,5.84c-.15,20.89-.31,42.49,1.88,68.71a5,5,0,0,1-4.56,5.4Z"/><path class="cls-1" d="M494.32,417.18a309.7,309.7,0,0,1-110.26-20.44,319.84,319.84,0,0,1-51.77-25.19c-20.51-12.39-47.77-26.79-76.66-28.22-24.77-1.22-52.67,8.28-78.59,26.75a223.14,223.14,0,0,0-27.55,23.46,5,5,0,0,1-7.06-7.08,232.71,232.71,0,0,1,28.8-24.52c19.63-14,50.32-30.29,84.89-28.59,31.13,1.53,59.82,16.65,81.34,29.64a310,310,0,0,0,50.14,24.4A300,300,0,0,0,496,407.18a5,5,0,1,1,.06,10Z"/><path class="cls-1" d="M403.22,280a5.81,5.81,0,0,1-.72-.05c-18.78-2.69-37.76-8-58-16.32-14.55-6-28.25-14.44-41.5-22.63-3.56-2.21-7.25-4.49-10.88-6.67-3.4-2.05-6.86-4.31-10.2-6.5-9.19-6-18.69-12.26-28.3-14.86-22-6-43.08-1.83-68.41,13.36a5,5,0,0,1-5.15-8.58c18.75-11.24,44.36-23.05,76.17-14.44,11.15,3,21.33,9.7,31.17,16.15,3.42,2.24,6.64,4.36,9.87,6.3,3.69,2.22,7.4,4.51,11,6.74,12.91,8,26.25,16.23,40,21.87,19.48,8,37.68,13.11,55.64,15.68a5,5,0,0,1-.7,9.95Z"/><path class="cls-1" d="M144,253.93a5,5,0,0,1-2.93-9.05q3.71-2.69,7.4-5.4l5.39-3.94a5,5,0,0,1,5.88,8.09l-5.36,3.92q-3.72,2.73-7.45,5.43A5,5,0,0,1,144,253.93Z"/><path class="cls-1" d="M31.76,294.83a151.37,151.37,0,0,1-16.3-.86A5,5,0,0,1,16.54,284c20.63,2.22,42.89-.18,64.37-6.93a5,5,0,0,1,3,9.54A175,175,0,0,1,31.76,294.83Z"/><path class="cls-1" d="M320.24,328a5,5,0,0,1-1.56-9.75c36.07-11.79,54.65-26.31,72.61-40.35,2.9-2.26,5.89-4.6,8.9-6.88,14.29-10.84,31.46-14.72,48.33-10.95,7.76,1.74,14,5.94,20,10l.34.23c1.76,1.18,3.51,2.38,5.26,3.57,8.06,5.51,15.68,10.7,24,14.62a5,5,0,0,1-4.26,9c-9-4.25-17.32-9.92-25.35-15.4-1.73-1.18-3.46-2.36-5.19-3.52l-.35-.24c-5.51-3.7-10.72-7.2-16.64-8.53-14-3.12-28.2.13-40.11,9.15-3,2.24-5.92,4.56-8.78,6.8-18.65,14.57-37.92,29.64-75.66,42A4.93,4.93,0,0,1,320.24,328Z"/><path class="cls-1" d="M394.67,495.17a247.31,247.31,0,0,1-59.21-6.91c-41.66-10.2-74-30.21-108.3-51.4-14.25-8.82-29-17.93-44.7-26.47C137.28,385.82,95.13,385.21,67.74,389c-29.83,4.15-49.2,14.29-49.39,14.39a5,5,0,0,1-4.7-8.82c.83-.45,20.82-11,52.28-15.42,29-4.09,73.56-3.53,121.31,22.44,15.95,8.67,30.81,17.86,45.18,26.74,68,42,126.72,78.36,262.28,41.82a5,5,0,0,1,2.6,9.66C459.24,490.09,425.57,495.17,394.67,495.17Z"/><path class="cls-1" d="M390.86,177.39A64.14,64.14,0,1,1,455,113.25,64.22,64.22,0,0,1,390.86,177.39Zm0-118.28A54.14,54.14,0,1,0,445,113.25,54.21,54.21,0,0,0,390.86,59.11Z"/><path class="cls-1" d="M170,347a5.2,5.2,0,0,1-1.34-.18c-51.94-14.43-103.78-.15-104.3,0a5,5,0,0,1-2.72-9.62c2.22-.63,55-15.21,109.7,0A5,5,0,0,1,170,347Z"/></g><g id="Outline"><path class="cls-1" d="M420,314h-1a5,5,0,0,1,0-10h1a5,5,0,0,1,0,10Z"/><path class="cls-1" d="M404,348h-1a5,5,0,0,1,0-10h1a5,5,0,0,1,0,10Z"/><path class="cls-1" d="M420,382h-1a5,5,0,0,1,0-10h1a5,5,0,0,1,0,10Z"/><path class="cls-1" d="M420,450h-1a5,5,0,0,1,0-10h1a5,5,0,0,1,0,10Z"/><path class="cls-1" d="M389.08,314h-1a5,5,0,1,1,0-10h1a5,5,0,0,1,0,10Z"/><path class="cls-1" d="M373.08,348h-1a5,5,0,1,1,0-10h1a5,5,0,0,1,0,10Z"/><path class="cls-1" d="M389.08,382h-1a5,5,0,1,1,0-10h1a5,5,0,0,1,0,10Z"/><path class="cls-1" d="M383.08,416h-1a5,5,0,1,1,0-10h1a5,5,0,0,1,0,10Z"/><path class="cls-1" d="M389.08,450h-1a5,5,0,1,1,0-10h1a5,5,0,0,1,0,10Z"/><path class="cls-1" d="M482,314h-1a5,5,0,0,1,0-10h1a5,5,0,0,1,0,10Z"/><path class="cls-1" d="M466,348h-1a5,5,0,0,1,0-10h1a5,5,0,0,1,0,10Z"/><path class="cls-1" d="M482,382h-1a5,5,0,0,1,0-10h1a5,5,0,0,1,0,10Z"/><path class="cls-1" d="M482,450h-1a5,5,0,0,1,0-10h1a5,5,0,0,1,0,10Z"/><path class="cls-1" d="M435,290h-1a5,5,0,0,1,0-10h1a5,5,0,0,1,0,10Z"/><path class="cls-1" d="M451.08,314h-1a5,5,0,1,1,0-10h1a5,5,0,0,1,0,10Z"/><path class="cls-1" d="M435.08,348h-1a5,5,0,1,1,0-10h1a5,5,0,0,1,0,10Z"/><path class="cls-1" d="M451.08,382h-1a5,5,0,1,1,0-10h1a5,5,0,0,1,0,10Z"/><path class="cls-1" d="M451.08,450h-1a5,5,0,1,1,0-10h1a5,5,0,0,1,0,10Z"/><path class="cls-1" d="M342.17,280h-1a5,5,0,0,1,0-10h1a5,5,0,1,1,0,10Z"/><path class="cls-1" d="M342.17,348h-1a5,5,0,0,1,0-10h1a5,5,0,1,1,0,10Z"/><path class="cls-1" d="M352.17,416h-1a5,5,0,0,1,0-10h1a5,5,0,1,1,0,10Z"/><path class="cls-1" d="M358.17,450h-1a5,5,0,0,1,0-10h1a5,5,0,1,1,0,10Z"/><path class="cls-1" d="M311.25,280h-1a5,5,0,0,1,0-10h1a5,5,0,0,1,0,10Z"/><path class="cls-1" d="M321.25,416h-1a5,5,0,0,1,0-10h1a5,5,0,0,1,0,10Z"/><path class="cls-1" d="M327.25,450h-1a5,5,0,0,1,0-10h1a5,5,0,0,1,0,10Z"/><path class="cls-1" d="M280.33,280h-1a5,5,0,1,1,0-10h1a5,5,0,0,1,0,10Z"/><path class="cls-1" d="M296.33,314h-1a5,5,0,1,1,0-10h1a5,5,0,0,1,0,10Z"/><path class="cls-1" d="M305.33,382h-1a5,5,0,1,1,0-10h1a5,5,0,0,1,0,10Z"/><path class="cls-1" d="M290.33,416h-1a5,5,0,1,1,0-10h1a5,5,0,0,1,0,10Z"/><path class="cls-1" d="M296.33,450h-1a5,5,0,1,1,0-10h1a5,5,0,0,1,0,10Z"/><path class="cls-1" d="M279.33,484h-1a5,5,0,1,1,0-10h1a5,5,0,0,1,0,10Z"/><path class="cls-1" d="M265.42,246h-1a5,5,0,0,1,0-10h1a5,5,0,0,1,0,10Z"/><path class="cls-1" d="M249.42,280h-1a5,5,0,1,1,0-10h1a5,5,0,0,1,0,10Z"/><path class="cls-1" d="M265.42,314h-1a5,5,0,0,1,0-10h1a5,5,0,1,1,0,10Z"/><path class="cls-1" d="M274.42,382h-1a5,5,0,0,1,0-10h1a5,5,0,1,1,0,10Z"/><path class="cls-1" d="M259.42,416h-1a5,5,0,0,1,0-10h1a5,5,0,1,1,0,10Z"/><path class="cls-1" d="M248.42,484h-1a5,5,0,1,1,0-10h1a5,5,0,0,1,0,10Z"/><path class="cls-1" d="M234.5,246h-1a5,5,0,0,1,0-10h1a5,5,0,0,1,0,10Z"/><path class="cls-1" d="M218.5,280h-1a5,5,0,0,1,0-10h1a5,5,0,0,1,0,10Z"/><path class="cls-1" d="M234.5,314h-1a5,5,0,0,1,0-10h1a5,5,0,0,1,0,10Z"/><path class="cls-1" d="M243.5,382h-1a5,5,0,0,1,0-10h1a5,5,0,0,1,0,10Z"/><path class="cls-1" d="M228.5,416h-1a5,5,0,0,1,0-10h1a5,5,0,0,1,0,10Z"/><path class="cls-1" d="M217.5,484h-1a5,5,0,0,1,0-10h1a5,5,0,0,1,0,10Z"/><path class="cls-1" d="M203.58,246h-1a5,5,0,0,1,0-10h1a5,5,0,1,1,0,10Z"/><path class="cls-1" d="M203.58,314h-1a5,5,0,0,1,0-10h1a5,5,0,1,1,0,10Z"/><path class="cls-1" d="M187.58,348h-1a5,5,0,0,1,0-10h1a5,5,0,1,1,0,10Z"/><path class="cls-1" d="M212.58,382h-1a5,5,0,0,1,0-10h1a5,5,0,1,1,0,10Z"/><path class="cls-1" d="M203.58,450h-1a5,5,0,0,1,0-10h1a5,5,0,1,1,0,10Z"/><path class="cls-1" d="M186.58,484h-1a5,5,0,0,1,0-10h1a5,5,0,1,1,0,10Z"/><path class="cls-1" d="M156.67,416h-1a5,5,0,1,1,0-10h1a5,5,0,0,1,0,10Z"/><path class="cls-1" d="M172.67,450h-1a5,5,0,1,1,0-10h1a5,5,0,0,1,0,10Z"/><path class="cls-1" d="M155.67,484h-1a5,5,0,1,1,0-10h1a5,5,0,0,1,0,10Z"/><path class="cls-1" d="M125.75,416h-1a5,5,0,0,1,0-10h1a5,5,0,0,1,0,10Z"/><path class="cls-1" d="M141.75,450h-1a5,5,0,0,1,0-10h1a5,5,0,0,1,0,10Z"/><path class="cls-1" d="M124.75,484h-1a5,5,0,0,1,0-10h1a5,5,0,0,1,0,10Z"/><path class="cls-1" d="M110.83,367h-1a5,5,0,1,1,0-10h1a5,5,0,0,1,0,10Z"/><path class="cls-1" d="M94.83,416h-1a5,5,0,1,1,0-10h1a5,5,0,0,1,0,10Z"/><path class="cls-1" d="M110.83,450h-1a5,5,0,0,1,0-10h1a5,5,0,1,1,0,10Z"/><path class="cls-1" d="M93.83,484h-1a5,5,0,0,1,0-10h1a5,5,0,1,1,0,10Z"/><path class="cls-1" d="M79.92,367h-1a5,5,0,0,1,0-10h1a5,5,0,1,1,0,10Z"/><path class="cls-1" d="M63.92,416h-1a5,5,0,0,1,0-10h1a5,5,0,1,1,0,10Z"/><path class="cls-1" d="M79.92,450h-1a5,5,0,1,1,0-10h1a5,5,0,0,1,0,10Z"/><path class="cls-1" d="M62.92,484h-1a5,5,0,1,1,0-10h1a5,5,0,0,1,0,10Z"/><path class="cls-1" d="M49,314H48a5,5,0,0,1,0-10h1a5,5,0,0,1,0,10Z"/><path class="cls-1" d="M33,348H32a5,5,0,0,1,0-10h1a5,5,0,0,1,0,10Z"/><path class="cls-1" d="M33,416H32a5,5,0,0,1,0-10h1a5,5,0,0,1,0,10Z"/><path class="cls-1" d="M49,450H48a5,5,0,0,1,0-10h1a5,5,0,0,1,0,10Z"/><path class="cls-1" d="M32,484H31a5,5,0,0,1,0-10h1a5,5,0,0,1,0,10Z"/><path class="cls-1" d="M391.25,43.16a5,5,0,0,1-5-5V17.5a5,5,0,0,1,10,0V38.16A5,5,0,0,1,391.25,43.16Z"/><path class="cls-1" d="M391.25,219a5,5,0,0,1-5-5V193.34a5,5,0,0,1,10,0V214A5,5,0,0,1,391.25,219Z"/><path class="cls-1" d="M489.5,120.75H468.84a5,5,0,1,1,0-10H489.5a5,5,0,0,1,0,10Z"/><path class="cls-1" d="M313.66,120.75H293a5,5,0,0,1,0-10h20.66a5,5,0,0,1,0,10Z"/><path class="cls-1" d="M352.46,53.56a5,5,0,0,1-4.33-2.5l-10.34-17.9a5,5,0,0,1,8.67-5l10.33,17.9a5,5,0,0,1-4.33,7.5Z"/><path class="cls-1" d="M440.38,205.84a5,5,0,0,1-4.34-2.5l-10.33-17.9a5,5,0,0,1,8.66-5l10.34,17.9a5,5,0,0,1-4.33,7.5Z"/><path class="cls-1" d="M458.45,82a5,5,0,0,1-2.51-9.33l17.9-10.34a5,5,0,0,1,5,8.67l-17.9,10.33A5,5,0,0,1,458.45,82Z"/><path class="cls-1" d="M306.17,169.88a5,5,0,0,1-2.51-9.34l17.9-10.33a5,5,0,1,1,5,8.66l-17.9,10.34A5,5,0,0,1,306.17,169.88Z"/><path class="cls-1" d="M324.05,82a5,5,0,0,1-2.49-.67L303.66,71a5,5,0,0,1,5-8.67l17.9,10.34A5,5,0,0,1,324.05,82Z"/><path class="cls-1" d="M476.33,169.88a5,5,0,0,1-2.49-.67l-17.9-10.34a5,5,0,0,1,5-8.66l17.9,10.33a5,5,0,0,1-2.51,9.34Z"/><path class="cls-1" d="M430,53.56a5,5,0,0,1-4.33-7.5L436,28.16a5,5,0,0,1,8.67,5l-10.34,17.9A5,5,0,0,1,430,53.56Z"/><path class="cls-1" d="M342.12,205.84a5,5,0,0,1-4.33-7.5l10.34-17.9a5,5,0,0,1,8.66,5l-10.33,17.9A5,5,0,0,1,342.12,205.84Z"/></g></svg>