<?xml version="1.0" ?><svg enable-background="new 0 0 512 512" version="1.1" viewBox="0 0 512 512" xml:space="preserve" xmlns="http://www.w3.org/2000/svg" xmlns:xlink="http://www.w3.org/1999/xlink"><g id="Colors"/><g id="Lines"><g><g><path d="M445.802,265.016c-1.577,3.209-5.453,4.535-8.664,2.959c-3.208-1.576-4.533-5.456-2.957-8.664     c1.575-3.209,5.454-4.532,8.662-2.957C446.053,257.929,447.376,261.807,445.802,265.016z" fill="#3F456B"/></g></g><g><g><path d="M417.53,300.421c-0.89,0-1.796-0.017-2.722-0.049c-14.638-0.518-25.287-4.843-31.649-12.855     c-6.707-8.445-7.121-18.942-5.961-27.101c-7.119-6.371-30.347-27.4-41.574-40.47c-9.013-0.477-39.493-4.658-55.17-38.863     c-11.742-25.619-1.561-52.736-1.122-53.878c0.992-2.578,3.887-3.86,6.462-2.872c2.577,0.991,3.863,3.885,2.872,6.462     c-0.088,0.233-9.076,24.402,0.879,46.122c15.41,33.622,47.986,33.098,48.314,33.085c1.534-0.045,3.03,0.633,4.011,1.832     c11.643,14.231,43.709,42.658,44.032,42.943c1.327,1.175,1.934,2.965,1.593,4.704c-1.247,6.374-1.653,15.333,3.496,21.816     c4.459,5.616,12.592,8.671,24.171,9.08c29.287,0.999,34.773-17.822,34.825-18.013c0.361-1.325,1.251-2.442,2.461-3.091     c11.52-6.177,3.46-27.979,2.944-29.33c-5.603-12.401-12.394-26.97-19.583-42.391c-10.92-23.427-22.212-47.65-30.398-66.568     c-13.905-32.135-30.428-57.932-30.594-58.188c-0.682-1.06-0.938-2.338-0.719-3.578c3.414-19.266,9.067-37.346,12.447-47.234     c-25.078,5.115-33.373,26.551-33.744,27.547c-0.663,1.775-2.279,3.04-4.163,3.239c-80.027,8.488-138.605,38.813-173.654,62.759     c-37.864,25.869-56.958,49.847-57.146,50.086c-1.708,2.168-4.852,2.541-7.021,0.833c-2.169-1.709-2.542-4.853-0.833-7.022     c0.808-1.025,20.242-25.429,59.359-52.153c35.574-24.304,94.732-55.006,175.352-64.129c3.945-8.156,17.514-30.335,49.02-32.136     c1.699-0.086,3.323,0.674,4.324,2.045c1.001,1.371,1.237,3.157,0.628,4.741c-0.096,0.25-9.441,24.73-14.377,51.273     c3.948,6.324,17.957,29.423,30.299,57.947c8.131,18.79,19.393,42.949,30.284,66.313c7.224,15.497,14.047,30.134,19.684,42.613     c0.026,0.057,0.05,0.114,0.074,0.172c0.503,1.234,11.752,29.487-5.724,40.944C456.422,283.151,446.794,300.42,417.53,300.421z" fill="#3F456B"/></g></g><g><g><path d="M237.448,338.293l-8.119-5.838c1.26-1.752,2.486-3.69,3.644-5.762     c9.83-17.585,10.348-36.665,10.896-56.866c0.283-10.416,0.575-21.187,2.237-31.817c4.24-27.126,15.876-49.251,34.585-65.759     l6.616,7.498c-16.913,14.924-27.451,35.045-31.322,59.806c-1.562,9.997-1.846,20.442-2.12,30.544     c-0.557,20.521-1.133,41.741-12.165,61.474C240.359,333.974,238.928,336.234,237.448,338.293z" fill="#3F456B"/></g></g><g><g><path d="M266.778,500.294c-2.328,0-6.658-0.463-10.314-3.457c-2.235-1.83-4.999-5.303-5.473-11.459     c-1.673-21.758,0.502-38.565,6.464-49.958c2.854-5.681,12.077-15.33,26.464-11.251l9.478,0.691     c-1.652-10.53-4.642-32.145-4.532-50.041c-20.446,20.537-69.949,66.722-115.566,81.929c-0.091,0.03-0.184,0.059-0.277,0.084     c-0.811,0.219-19.999,5.152-33.014-13.067c-10.931-15.303-54.456-69.077-54.895-69.618c-1.738-2.146-1.407-5.295,0.739-7.032     c2.145-1.739,5.294-1.408,7.032,0.739c1.798,2.22,44.155,54.551,55.26,70.099c8.542,11.959,20.739,9.578,22.18,9.246     c55.596-18.646,120.109-88.376,120.755-89.079c1.49-1.621,3.865-2.076,5.847-1.124c1.984,0.953,3.112,3.092,2.777,5.268     c-3.399,22.087,4.505,66.716,4.586,67.164c0.272,1.521-0.173,3.081-1.207,4.228c-1.034,1.147-2.541,1.767-4.079,1.641     l-16.347-1.191c-0.373-0.026-0.742-0.096-1.099-0.205c-10.412-3.182-15.017,5.705-15.207,6.085     c-5.045,9.643-6.896,25.049-5.391,44.628c0.163,2.113,0.781,3.623,1.836,4.488c1.464,1.198,3.652,1.213,4.238,1.191     c25.724-5.873,50.038-29.648,60.445-39.826c1.182-1.155,2.209-2.159,3.07-2.977c6.479-6.157,3.311-17.071,3.277-17.18     c-0.019-0.06-0.036-0.119-0.052-0.179c-10.313-37.991-0.251-85.086,2.386-96.117c-14.39-19.245-32.102-19.846-36.048-19.743     c-51.438,25.97-104.583,36.868-105.118,36.976c-2.708,0.547-5.343-1.206-5.889-3.912c-0.546-2.707,1.205-5.344,3.912-5.891     c0.524-0.105,53.023-10.888,103.488-36.556c0.539-0.273,1.123-0.448,1.724-0.514c1.123-0.122,27.701-2.674,47.448,25.743     c0.834,1.201,1.101,2.709,0.73,4.124c-0.139,0.529-13.771,53.412-3,93.204c0.476,1.604,4.721,17.134-5.97,27.293     c-0.832,0.791-1.824,1.762-2.966,2.878c-11.062,10.817-36.968,36.15-65.598,42.512c-0.157,0.035-0.316,0.062-0.476,0.082     C268.213,500.231,267.629,500.294,266.778,500.294z" fill="#3F456B"/></g></g><g><g><path d="M26.073,298.551c-2.711,0-4.938-2.168-4.997-4.892c-0.06-2.761,2.13-5.048,4.891-5.107     c30.286-0.656,52.91-9.726,67.246-26.956c11.938-14.351,24.418-42.22,16.074-93.496c-0.141-0.867-0.253-1.558-0.324-2.058     c-0.461-3.217-1.889-4.16-2.358-4.471c-2.474-1.635-6.642-1.111-8.06-0.802c-22.48,9.085-53.898,11.138-55.231,11.221     c-2.764,0.184-5.129-1.922-5.302-4.678c-0.173-2.756,1.921-5.13,4.677-5.303c0.312-0.02,31.457-2.062,52.42-10.638     c0.197-0.08,0.399-0.148,0.605-0.203c0.969-0.257,9.663-2.396,16.404,2.06c2.576,1.702,5.836,5.061,6.744,11.396     c0.065,0.453,0.168,1.082,0.296,1.869c4.939,30.354,5.782,72.604-18.256,101.498c-16.27,19.556-41.408,29.837-74.716,30.559     C26.146,298.551,26.109,298.551,26.073,298.551z" fill="#3F456B"/></g></g><g><g><path d="M65.997,169c-1.063,0-2.134-0.337-3.042-1.034c-2.19-1.682-2.602-4.821-0.92-7.011     c2.182-2.842,54.359-69.958,134.709-102.098C278.027,26.345,316.838,47.226,318.45,48.13c2.408,1.352,3.265,4.399,1.914,6.808     c-1.348,2.4-4.382,3.258-6.785,1.926c-0.557-0.299-37.027-19.158-113.122,11.279c-77.826,31.13-129.974,98.229-130.491,98.902     C68.981,168.327,67.497,169,65.997,169z" fill="#3F456B"/></g></g><g><g><path d="M150.593,452.558c-0.642,0-1.293-0.124-1.922-0.387c-38.337-15.987-70.979-42.663-94.396-77.142     C30.282,339.703,17.6,298.37,17.6,255.5c0-117.448,95.551-213,213-213c6.229,0,12.519,0.272,18.698,0.81     c2.751,0.239,4.787,2.664,4.548,5.415c-0.239,2.751-2.666,4.783-5.414,4.548C242.54,52.76,236.541,52.5,230.6,52.5     c-111.935,0-203,91.065-203,203c0,40.858,12.084,80.248,34.947,113.911c22.322,32.866,53.434,58.293,89.972,73.53     c2.548,1.063,3.753,3.991,2.69,6.54C154.409,451.4,152.55,452.558,150.593,452.558z" fill="#3F456B"/></g></g><g><g><path d="M230.6,468.5c-23.087,0-45.797-3.674-67.5-10.918c-2.619-0.875-4.034-3.707-3.159-6.326     c0.875-2.619,3.708-4.031,6.326-3.16C186.947,455,208.591,458.5,230.6,458.5c7.736,0,15.533-0.44,23.175-1.308     c2.748-0.317,5.221,1.66,5.533,4.403c0.312,2.744-1.66,5.221-4.404,5.532C246.889,468.038,238.712,468.5,230.6,468.5z" fill="#3F456B"/></g></g><g><g><path d="M340.274,437.273c-1.671,0-3.304-0.838-4.251-2.361c-1.458-2.345-0.739-5.428,1.606-6.886     c48.506-30.157,82.25-79.503,92.582-135.385c0.501-2.716,3.108-4.512,5.826-4.008c2.715,0.502,4.509,3.11,4.007,5.826     c-10.841,58.641-46.245,110.419-97.134,142.059C342.088,437.029,341.175,437.273,340.274,437.273z" fill="#3F456B"/></g></g><g><g><path d="M367.995,249.63c-1.491,0-2.966-0.664-3.952-1.933c-1.694-2.181-1.299-5.322,0.881-7.017     c41.937-32.573,69.893-46.341,71.062-46.91c2.48-1.21,5.475-0.18,6.686,2.304c1.209,2.481,0.179,5.474-2.302,6.684l0,0     c-0.278,0.136-28.283,13.953-69.311,45.821C370.146,249.287,369.066,249.63,367.995,249.63z" fill="#3F456B"/></g></g><g><g><path d="M382.135,261.895c-1.491,0-2.966-0.664-3.952-1.933c-1.694-2.181-1.299-5.322,0.881-7.016     c37.037-28.769,61.747-40.937,62.781-41.44c2.481-1.21,5.475-0.18,6.686,2.304c1.209,2.481,0.179,5.474-2.302,6.684l0,0     c-0.245,0.12-24.902,12.287-61.03,40.351C384.287,261.552,383.207,261.895,382.135,261.895z" fill="#3F456B"/></g></g><g><g><path d="M390.003,233c-1.472,0-2.929-0.646-3.916-1.887c-39.313-49.416-59.782-94.673-70.03-123.937     c-11.173-31.906-12.969-51.918-13.04-52.754c-0.234-2.752,1.808-5.172,4.559-5.405c2.748-0.222,5.17,1.808,5.405,4.558     c0.084,0.95,7.703,79.266,80.931,171.312c1.719,2.161,1.361,5.307-0.8,7.026C392.193,232.645,391.094,233,390.003,233z" fill="#3F456B"/></g></g><g><g><path d="M381.465,143.281c-17.098,0-25.664-13.901-27.861-21.67c-0.751-2.657,0.794-5.42,3.451-6.172     c2.651-0.743,5.408,0.787,6.167,3.432c0.21,0.711,4.84,15.736,20.354,14.311c2.749-0.239,5.184,1.772,5.436,4.522     s-1.772,5.184-4.522,5.437C383.454,143.235,382.444,143.281,381.465,143.281z" fill="#3F456B"/></g></g><g><g><path d="M286.664,492.293c-2.001,0.001-3.891-1.21-4.661-3.188c-12.966-33.326-0.405-60.703,0.136-61.853     c1.176-2.499,4.153-3.57,6.653-2.394c2.495,1.174,3.567,4.146,2.399,6.642l0,0c-0.114,0.244-11.224,24.795,0.13,53.978     c1.001,2.574-0.273,5.472-2.847,6.474C287.88,492.184,287.267,492.293,286.664,492.293z" fill="#3F456B"/></g></g><g><g><path d="M265.04,260.64c-0.05-2.76,2.14-5.05,4.9-5.1l0,0c2.76-0.061,5.04,2.13,5.1,4.89l0,0     c0.06,2.76-2.13,5.05-4.89,5.11l0,0c-0.04,0-0.07,0-0.11,0l0,0C267.33,265.54,265.1,263.37,265.04,260.64z M249.75,265.12     c-2.76-0.17-4.86-2.551-4.69-5.301l0,0c0.17-2.76,2.55-4.85,5.3-4.68l0,0c0,0,0,0,0-0.01l0,0c2.76,0.17,4.85,2.55,4.68,5.3l0,0     c-0.16,2.66-2.36,4.7-4.98,4.7l0,0C249.96,265.13,249.85,265.12,249.75,265.12z M285.02,259.81c-0.28-2.75,1.71-5.21,4.46-5.5     l0,0l0,0l0,0c2.74-0.279,5.2,1.71,5.49,4.46l0,0c0.29,2.74-1.71,5.2-4.45,5.49l0,0c-0.18,0.021-0.35,0.03-0.53,0.03l0,0     C287.46,264.29,285.29,262.38,285.02,259.81z M229.46,263.04L229.46,263.04c-2.74-0.391-4.64-2.92-4.25-5.66l0,0     c0.4-2.73,2.93-4.63,5.66-4.24l0,0l0,0l0,0c2.74,0.391,4.64,2.92,4.24,5.66l0,0c-0.35,2.49-2.49,4.29-4.94,4.29l0,0     C229.93,263.09,229.7,263.069,229.46,263.04z M304.86,257.31c-0.51-2.72,1.27-5.33,3.98-5.85l0,0c2.72-0.51,5.33,1.27,5.85,3.979     l0,0c0.51,2.71-1.27,5.33-3.98,5.851l0,0c-0.31,0.06-0.63,0.09-0.94,0.09l0,0C307.42,261.38,305.32,259.71,304.86,257.31z      M209.41,259.37c-2.7-0.601-4.4-3.271-3.8-5.971l0,0c0.6-2.689,3.28-4.39,5.97-3.79l0,0c2.7,0.601,4.39,3.271,3.79,5.971l0,0     c-0.52,2.33-2.58,3.91-4.87,3.91l0,0C210.14,259.49,209.77,259.45,209.41,259.37z M324.43,253.17c-0.74-2.66,0.83-5.42,3.49-6.15     l0,0c2.66-0.739,5.41,0.82,6.15,3.49l0,0c0.73,2.66-0.83,5.41-3.49,6.15l0,0c-0.45,0.12-0.89,0.18-1.33,0.18l0,0     C327.05,256.84,325.04,255.39,324.43,253.17z M189.71,254.21c-2.65-0.8-4.14-3.59-3.34-6.24l0,0c0.79-2.64,3.58-4.14,6.23-3.34     l0,0l0,0l0,0c2.64,0.8,4.14,3.59,3.34,6.24l0,0c-0.66,2.16-2.64,3.55-4.79,3.55l0,0C190.68,254.42,190.19,254.35,189.71,254.21z      M343.6,247.46c-0.95-2.601,0.39-5.46,2.99-6.41l0,0c2.59-0.94,5.46,0.4,6.4,2.99l0,0c0.95,2.6-0.39,5.47-2.99,6.41l0,0     c-0.56,0.21-1.14,0.3-1.7,0.3l0,0C346.25,250.75,344.33,249.49,343.6,247.46z M170.44,247.63c-2.58-0.98-3.87-3.87-2.89-6.45l0,0     c0.98-2.58,3.87-3.87,6.45-2.89l0,0l0,0l0,0c2.58,0.979,3.88,3.87,2.9,6.45l0,0c-0.76,1.989-2.66,3.22-4.68,3.22l0,0     C171.63,247.96,171.03,247.859,170.44,247.63z M151.7,239.75h-0.01c-2.5-1.16-3.6-4.13-2.45-6.63l0,0     c1.16-2.511,4.13-3.61,6.64-2.45l0,0c2.51,1.149,3.6,4.12,2.45,6.63l0,0c-0.85,1.83-2.66,2.91-4.55,2.91l0,0     C153.08,240.21,152.37,240.06,151.7,239.75z M133.52,230.64c-2.43-1.32-3.33-4.359-2.01-6.79l0,0c1.32-2.42,4.36-3.319,6.78-2     l0,0c0,0,0,0,0.01,0l0,0c2.42,1.32,3.32,4.351,2,6.78l0,0c-0.91,1.67-2.63,2.61-4.4,2.61l0,0     C135.1,231.24,134.28,231.05,133.52,230.64z M115.98,220.33c-2.33-1.471-3.03-4.561-1.55-6.891l0,0     c1.48-2.34,4.57-3.029,6.9-1.55l0,0l0,0l0,0c2.34,1.48,3.03,4.57,1.55,6.9l0,0c-0.95,1.5-2.57,2.319-4.23,2.319l0,0     C117.74,221.109,116.81,220.859,115.98,220.33z" fill="#3D4368"/></g></g><g><g><path d="M22.7,268.13c-0.44-2.73,1.42-5.29,4.15-5.73l0,0c2.73-0.43,5.29,1.431,5.72,4.16l0,0     c0.44,2.721-1.42,5.29-4.15,5.721l0,0c-0.26,0.039-0.53,0.06-0.79,0.06l0,0C25.22,272.34,23.09,270.59,22.7,268.13z M42.29,264.2     c-0.92-2.601,0.45-5.46,3.05-6.381l0,0c2.6-0.92,5.46,0.45,6.38,3.051l0,0c0.92,2.609-0.45,5.46-3.05,6.39l0,0     c-0.55,0.19-1.11,0.28-1.66,0.28l0,0C44.95,267.54,43.02,266.26,42.29,264.2z M60.7,256.47c-1.56-2.28-0.98-5.39,1.3-6.95l0,0     c2.28-1.569,5.39-0.989,6.95,1.29l0,0c1.56,2.28,0.98,5.391-1.29,6.95l0,0c-0.87,0.59-1.85,0.88-2.83,0.88l0,0     C63.24,258.64,61.67,257.88,60.7,256.47z M76.21,243.899c-2.22-1.64-2.69-4.77-1.05-6.989l0,0c1.64-2.221,4.77-2.69,6.99-1.051     l0,0c2.22,1.641,2.7,4.771,1.06,6.99l0,0c0,0,0,0-0.01,0l0,0c-0.98,1.33-2.49,2.03-4.02,2.03l0,0     C78.15,244.88,77.11,244.56,76.21,243.899z M86.65,226.88c-2.63-0.84-4.08-3.65-3.23-6.28l0,0c0.84-2.63,3.66-4.08,6.29-3.24l0,0     c2.63,0.851,4.07,3.66,3.23,6.29l0,0l0,0l0,0c-0.68,2.12-2.65,3.471-4.76,3.471l0,0C87.67,227.12,87.16,227.05,86.65,226.88z      M91.41,207.479c-2.75-0.16-4.86-2.52-4.7-5.279l0,0c0.16-2.761,2.52-4.86,5.28-4.7l0,0c2.76,0.149,4.86,2.52,4.7,5.27l0,0     c-0.15,2.66-2.35,4.721-4.98,4.721l0,0C91.61,207.49,91.51,207.479,91.41,207.479z M85.94,183.18c-0.36-2.74,1.56-5.25,4.3-5.61     l0,0c2.74-0.359,5.25,1.561,5.61,4.301l0,0c0.36,2.739-1.57,5.25-4.31,5.609l0,0c-0.22,0.03-0.44,0.04-0.65,0.04l0,0     C88.42,187.52,86.27,185.689,85.94,183.18z M81.88,164.64c-0.91-2.6,0.47-5.45,3.08-6.359l0,0c2.6-0.91,5.45,0.47,6.36,3.069l0,0     c0.91,2.61-0.47,5.46-3.08,6.37l0,0c-0.54,0.19-1.09,0.28-1.64,0.28l0,0C84.53,168,82.6,166.71,81.88,164.64z" fill="#3D4368"/></g></g><g><g><path d="M172.558,357.024c-5.002,0-10.027-0.767-14.935-2.313c-12.61-3.974-22.919-12.621-29.026-24.348     c-6.107-11.728-7.282-25.131-3.308-37.741c3.974-12.61,12.621-22.919,24.348-29.025c11.727-6.107,25.129-7.283,37.741-3.308     c12.61,3.974,22.919,12.621,29.026,24.348c6.107,11.728,7.282,25.131,3.308,37.741c-3.974,12.61-12.621,22.919-24.348,29.025     C188.2,355.134,180.409,357.024,172.558,357.024z M172.454,267.98c-6.266,0-12.482,1.509-18.199,4.485     c-9.358,4.873-16.258,13.099-19.429,23.162c-3.171,10.062-2.234,20.759,2.639,30.116c4.874,9.358,13.1,16.258,23.163,19.43     c10.065,3.17,20.759,2.233,30.116-2.64c9.358-4.873,16.258-13.099,19.429-23.162c3.171-10.062,2.234-20.759-2.639-30.116     c-4.874-9.358-13.1-16.258-23.163-19.43C180.456,268.593,176.445,267.98,172.454,267.98z" fill="#3F456B"/></g></g><g><g><path d="M150.092,322.061c-0.498,0-1.004-0.074-1.504-0.232c-2.634-0.83-4.096-3.638-3.266-6.271l10.926-34.672     c0.83-2.634,3.639-4.096,6.272-3.266c2.634,0.83,4.096,3.638,3.266,6.271l-10.926,34.672     C154.188,320.696,152.217,322.061,150.092,322.061z" fill="#3F456B"/></g></g><g><g><path d="M187.289,333.782c-0.498,0-1.004-0.074-1.504-0.232l-22.979-7.241c-1.951-0.614-3.331-2.356-3.483-4.396     c-0.152-2.04,0.954-3.967,2.792-4.864c0.799-0.391,19.621-9.583,24.311-11.704c2.507-1.133,3.401-2.984,3.56-3.355     c0.059-0.231,0.024-0.124,0.149-0.388c-0.003-0.003,0.56-1.622-0.139-3.054c-0.817-1.673-3.12-2.696-4.909-3.26     c-2.492-0.786-4.456-0.791-5.832-0.015c-1.789,1.007-2.451,3.208-2.456,3.229c-0.655,2.684-3.364,4.322-6.043,3.671     c-2.683-0.655-4.326-3.361-3.67-6.044c0.159-0.65,1.712-6.443,7.262-9.569c2.67-1.504,7.222-2.867,13.745-0.81     c5.443,1.715,9.148,4.633,11.013,8.671c2.306,4.996,0.761,9.726,0.322,10.868c-0.457,1.273-2.613,6.333-8.882,9.167     c-2.153,0.973-7.594,3.59-12.757,6.089l11.002,3.468c2.634,0.83,4.096,3.638,3.266,6.271     C191.384,332.418,189.414,333.782,187.289,333.782z" fill="#3F456B"/></g></g><g><g><path d="M320.933,110.956c-1.463,0-2.914-0.639-3.901-1.869c-1.729-2.152-1.386-5.3,0.768-7.029     c1.149-0.923,28.573-22.682,65.4-28.906c2.724-0.461,5.303,1.373,5.764,4.097c0.46,2.723-1.374,5.303-4.097,5.763     c-34.288,5.797-60.544,26.634-60.806,26.844C323.138,110.596,322.031,110.956,320.933,110.956z" fill="#3F456B"/></g></g><g opacity="0.3"><g><path d="M185.67,106.334c-1.88,0-3.682-1.065-4.532-2.881c-7.044-15.049-13.612-24.059-13.677-24.147     c-1.634-2.227-1.154-5.355,1.072-6.989c2.226-1.634,5.355-1.154,6.99,1.071c0.291,0.396,7.217,9.898,14.672,25.825     c1.171,2.501,0.092,5.478-2.409,6.648C187.101,106.183,186.38,106.334,185.67,106.334z" fill="#3F456B"/></g></g><g opacity="0.3"><g><path d="M218,88.001c-2.043,0-3.961-1.261-4.699-3.292c-3.875-10.654-9.629-22.97-9.687-23.093     c-1.171-2.501-0.094-5.478,2.407-6.648c2.5-1.172,5.478-0.094,6.648,2.406c0.243,0.519,5.999,12.835,10.029,23.917     c0.944,2.596-0.395,5.464-2.99,6.408C219.145,87.904,218.567,88.001,218,88.001z" fill="#3F456B"/></g></g><g opacity="0.3"><g><path d="M249.994,75.001c-2.485,0-4.639-1.852-4.955-4.381c-0.743-5.947-4.651-15.535-6.095-18.728     c-1.137-2.517-0.02-5.479,2.497-6.615c2.517-1.141,5.478-0.02,6.616,2.496c0.237,0.525,5.824,12.955,6.905,21.606     c0.342,2.74-1.601,5.239-4.341,5.581C250.41,74.987,250.2,75.001,249.994,75.001z" fill="#3F456B"/></g></g><g opacity="0.3"><g><path d="M156.754,127c-1.591,0-3.155-0.757-4.125-2.167c-7.868-11.445-19.286-22.701-19.4-22.813     c-1.97-1.936-1.999-5.101-0.064-7.071c1.935-1.969,5.099-1.999,7.07-0.065c0.494,0.485,12.209,12.027,20.635,24.284     c1.564,2.276,0.988,5.389-1.288,6.953C158.717,126.715,157.731,127,156.754,127z" fill="#3F456B"/></g></g><g opacity="0.3"><g><path d="M127.6,152.349c-1.552,0-3.082-0.72-4.06-2.075c-7.918-10.976-21.584-22.303-21.721-22.416     c-2.13-1.757-2.433-4.908-0.676-7.038c1.757-2.131,4.907-2.433,7.037-0.678c0.6,0.494,14.788,12.246,23.47,24.282     c1.615,2.239,1.109,5.364-1.13,6.979C129.636,152.042,128.613,152.349,127.6,152.349z" fill="#3F456B"/></g></g><g><g><path d="M457.965,485.021c-1.07,0-2.167-0.232-3.238-0.719c-1.858-0.845-3.129-2.219-3.812-2.957     c-2.944-3.18-5.549-6.525-8.068-9.76l-1.398-1.791c-0.351-0.449-0.71-0.94-1.068-1.434c-0.287-0.394-0.572-0.789-0.852-1.146     c-0.046-0.06-0.096-0.125-0.147-0.196c-1.086,0.092-2.182,0.203-3.312,0.318c-2.289,0.233-4.655,0.475-7.122,0.557     c-0.328,0.011-0.771,0.047-1.29,0.087c-4.792,0.368-13.71,1.051-15.858-5.682c-0.78-2.448,0.105-4.612,0.439-5.427     c1.854-4.527,4.41-8.499,6.882-12.34l0.925-1.44c1.109-1.737,2.01-3.118,2.733-4.206c-3.285-5.983-7.645-15.388-7.547-20.948     c0.067-3.84,1.821-5.907,3.28-6.966c2.562-1.858,5.455-1.537,6.765-1.251c4.915,0.611,14.791,4.178,20.198,6.231     c5.701-6.069,11.978-11.115,13.962-12.563c1.777-1.298,3.61-1.988,5.452-2.055c2.206-0.071,4.551,0.771,6.268,2.277     c0.546,0.478,1.034,1.043,1.449,1.678c0.877,1.339,1.403,2.96,1.561,4.813c0.208,2.444,0.517,10.487-0.327,18.781     c5.097,2.734,14.266,7.851,17.951,11.16c1.075,0.802,3.215,2.774,3.492,5.926c0.158,1.796-0.252,4.477-3.106,7.046     c-4.086,3.678-13.859,6.529-20.527,7.99c-1.421,6.674-3.586,12.997-6.581,19.234     C463.605,483.289,460.884,485.021,457.965,485.021z M441.628,456.857c0.701,0,1.394,0.147,2.036,0.434l0.081,0.036     c1.805,0.822,2.779,2.343,3.49,3.454c0.081,0.126,0.154,0.244,0.22,0.338c0.299,0.379,0.658,0.87,1.016,1.363     c0.287,0.394,0.572,0.789,0.852,1.146l1.415,1.812c2.167,2.782,4.229,5.432,6.47,7.956c2.468-5.638,4.188-11.383,5.242-17.488     c0.359-2.078,1.982-3.707,4.06-4.073c6.577-1.159,14.012-3.448,17.468-5.271c-3.777-2.813-12.545-7.692-17.822-10.432     c-1.889-0.98-2.95-3.049-2.645-5.154c1.072-7.395,0.943-15.306,0.775-18.712c-2.683,2.109-8.744,7.205-13.616,12.856     c-1.39,1.612-3.648,2.168-5.626,1.385c-5.527-2.187-14.96-5.605-19.562-6.612c0.89,3.806,4.039,10.918,7.477,16.644     c1.018,1.696,0.941,3.833-0.197,5.451c-0.712,1.012-2.034,2.959-4.286,6.484l-0.944,1.47c-1.801,2.799-3.525,5.478-4.911,8.247     c1.594,0.029,3.449-0.118,4.274-0.182c0.692-0.053,1.284-0.096,1.72-0.11c2.126-0.071,4.223-0.285,6.442-0.511     c2.04-0.208,4.148-0.423,6.335-0.525C441.471,456.859,441.549,456.857,441.628,456.857z M422.938,419.434     c0.005,0.002,0.012,0.004,0.018,0.006C422.95,419.438,422.944,419.436,422.938,419.434z M425.246,417.909L425.246,417.909     L425.246,417.909z M464.146,410.592L464.146,410.592L464.146,410.592z" fill="#384169"/></g></g><g><g><path d="M467.466,364.837c-1.28,0-2.559-0.488-3.536-1.465c-1.953-1.952-1.953-5.118,0-7.07l8.017-8.017     c1.954-1.953,5.119-1.952,7.071,0c1.953,1.952,1.953,5.118,0,7.07l-8.017,8.017C470.025,364.349,468.745,364.837,467.466,364.837     z" fill="#3F456B"/></g></g><g><g><path d="M440.103,392.18c-1.28,0-2.559-0.488-3.536-1.465c-1.953-1.952-1.953-5.118,0-7.07l8.017-8.017     c1.954-1.953,5.119-1.952,7.071,0c1.953,1.952,1.953,5.118,0,7.07l-8.017,8.017C442.662,391.691,441.382,392.18,440.103,392.18z" fill="#3F456B"/></g></g><g><g><path d="M475.473,392.19c-1.28,0-2.559-0.488-3.536-1.465l-8.018-8.018c-1.953-1.952-1.953-5.118,0-7.07     c1.953-1.953,5.118-1.953,7.071,0l8.018,8.018c1.953,1.952,1.953,5.118,0,7.07C478.032,391.702,476.753,392.19,475.473,392.19z" fill="#3F456B"/></g></g><g><g><path d="M448.13,364.827c-1.28,0-2.559-0.488-3.536-1.465l-8.017-8.018c-1.953-1.952-1.953-5.118,0-7.07     c1.954-1.953,5.119-1.952,7.071,0l8.017,8.018c1.953,1.952,1.953,5.118,0,7.07C450.689,364.339,449.41,364.827,448.13,364.827z" fill="#3F456B"/></g></g><g><g><path d="M459.004,88.949c-1.862,0-3.649-1.044-4.51-2.834c-1.196-2.489-0.149-5.477,2.34-6.673l12.203-5.867     c2.487-1.196,5.476-0.15,6.673,2.339c1.196,2.489,0.149,5.477-2.34,6.673l-12.203,5.867     C460.469,88.79,459.731,88.949,459.004,88.949z" fill="#3F456B"/></g></g><g><g><path d="M445.821,155.482c-1.859,0-3.645-1.041-4.506-2.828l-5.649-11.708c-1.2-2.487-0.157-5.476,2.33-6.676     c2.486-1.198,5.476-0.157,6.676,2.33l5.649,11.708c1.2,2.487,0.157,5.476-2.33,6.676     C447.29,155.322,446.55,155.482,445.821,155.482z" fill="#3F456B"/></g></g><g><g><path d="M467.223,137.351c-0.971,0-1.952-0.282-2.815-0.871l-11.039-7.537c-2.281-1.557-2.867-4.668-1.31-6.948     c1.557-2.281,4.667-2.866,6.949-1.31l11.039,7.537c2.281,1.557,2.867,4.668,1.31,6.948     C470.388,136.588,468.819,137.351,467.223,137.351z" fill="#3F456B"/></g></g><g><g><path d="M476.488,110.956c-0.126,0-0.254-0.005-0.382-0.015l-13.432-1.015c-2.754-0.208-4.817-2.608-4.609-5.362     c0.208-2.753,2.615-4.817,5.362-4.608l13.432,1.015c2.754,0.208,4.817,2.608,4.609,5.362     C481.271,108.958,479.079,110.956,476.488,110.956z" fill="#3F456B"/></g></g><g><g><path d="M460.235,88.458c-1.858,0-3.643-1.041-4.506-2.826c-1.201-2.486-0.159-5.476,2.328-6.677l11.002-5.314     c2.488-1.202,5.476-0.158,6.677,2.327c1.201,2.486,0.159,5.476-2.328,6.677l-11.002,5.314     C461.705,88.298,460.964,88.458,460.235,88.458z" fill="#3F456B"/></g></g><g><g><path d="M446.155,71.699c-0.971,0-1.952-0.281-2.815-0.871c-2.281-1.557-2.867-4.668-1.31-6.948l7.027-10.292     c1.557-2.281,4.667-2.869,6.949-1.31c2.281,1.557,2.867,4.668,1.31,6.948l-7.027,10.292     C449.321,70.937,447.751,71.699,446.155,71.699z" fill="#3F456B"/></g></g><g><g><path d="M425.823,65.058c-0.127,0-0.254-0.005-0.382-0.015c-2.753-0.208-4.817-2.608-4.609-5.362l0.976-12.905     c0.209-2.754,2.619-4.812,5.363-4.608c2.753,0.208,4.817,2.608,4.609,5.362l-0.976,12.905     C430.605,63.06,428.413,65.058,425.823,65.058z" fill="#3F456B"/></g></g><g><g><path d="M405.157,69.145c-1.859,0-3.645-1.041-4.506-2.828l-5.65-11.709c-1.2-2.487-0.157-5.476,2.33-6.676     c2.487-1.198,5.477-0.157,6.676,2.33l5.65,11.709c1.2,2.487,0.157,5.476-2.33,6.676     C406.626,68.984,405.886,69.145,405.157,69.145z" fill="#3F456B"/></g></g><g><g><path d="M345.998,471c-1.161,0-2.327-0.401-3.273-1.222c-2.086-1.809-2.312-4.966-0.503-7.053     c27.345-31.552,65.568-28.843,67.183-28.709c2.752,0.223,4.803,2.635,4.579,5.388c-0.223,2.749-2.626,4.795-5.378,4.58     c-0.437-0.033-34.914-2.301-58.827,25.29C348.79,470.415,347.397,471,345.998,471z" fill="#3F456B"/></g></g><g><g><path d="M459.648,298.008c0,3.226,2.615,5.839,5.84,5.839c3.227,0,5.84-2.613,5.84-5.839     c0-3.225-2.613-5.84-5.84-5.84C462.264,292.168,459.648,294.783,459.648,298.008z" fill="#3F456B"/></g></g><g><g><path d="M104.648,453.008c0,3.226,2.615,5.839,5.84,5.839c3.227,0,5.84-2.613,5.84-5.839     c0-3.225-2.613-5.84-5.84-5.84C107.264,447.168,104.648,449.783,104.648,453.008z" fill="#3F456B"/></g></g><g><g><path d="M224.89,490.244c-57.308,0-97.607-22.884-99.391-23.915c-2.391-1.381-3.209-4.439-1.828-6.83     c1.381-2.392,4.439-3.21,6.831-1.828c0.634,0.363,44.721,25.223,104.257,22.335c2.768-0.147,5.103,1.994,5.236,4.753     c0.133,2.758-1.994,5.102-4.752,5.235C231.737,490.164,228.279,490.244,224.89,490.244z" fill="#3F456B"/></g></g><g><g><path d="M475.004,288c-1.507,0-2.997-0.679-3.981-1.97c-1.674-2.196-1.25-5.334,0.947-7.008     c17.44-13.287,1.717-45.468,1.556-45.791c-1.229-2.471-0.225-5.473,2.245-6.703c2.469-1.235,5.468-0.231,6.702,2.235     c0.197,0.395,4.854,9.798,6.832,21.396c2.786,16.344-1.112,29.075-11.273,36.817C477.125,287.667,476.06,288,475.004,288z" fill="#3F456B"/></g></g><g><g><path d="M354.51,295.355c-2.458,0-4.602-1.814-4.947-4.318c-0.088-0.494-1.17-5.587-8.045-6.784     c-7.868-1.364-12.744,3.796-12.948,4.018c-1.233,1.392-3.12,1.968-4.926,1.519c-1.805-0.446-3.197-1.877-3.639-3.684     c-0.34-1.27-2.506-7.791-10.629-6.598c-8.311,1.214-7.992,7.927-7.928,8.688c0.23,2.752-1.814,5.169-4.565,5.399     c-2.768,0.228-5.17-1.813-5.399-4.565c-0.486-5.813,2.325-17.354,16.447-19.416c9.486-1.393,15.471,2.934,18.784,7.66     c3.817-2.172,9.458-4.102,16.519-2.872c14.315,2.492,16.165,14.75,16.237,15.271c0.377,2.735-1.535,5.259-4.271,5.636     C354.967,295.34,354.737,295.355,354.51,295.355z" fill="#3F456B"/></g></g><g><g><path d="M409.999,362.001c-2.101,0-4.056-1.334-4.749-3.438c-2.494-6.911-11.149-7.787-12.128-7.864     c-8.463-0.653-10.941,5.544-11.351,6.796c-0.795,2.645-3.575,4.118-6.219,3.321c-2.645-0.795-4.136-3.61-3.341-6.255     c1.578-5.249,8.146-14.91,21.695-13.831c16.243,1.277,20.663,14.16,20.843,14.708c0.863,2.623-0.564,5.449-3.187,6.312     C411.044,361.92,410.517,362.001,409.999,362.001z" fill="#3F456B"/></g></g><g><g><path d="M51.466,53.837c-1.28,0-2.559-0.488-3.536-1.465c-1.953-1.952-1.953-5.118,0-7.07l8.017-8.017     c1.954-1.953,5.119-1.952,7.071,0c1.953,1.952,1.953,5.118,0,7.07l-8.017,8.017C54.025,53.349,52.745,53.837,51.466,53.837z" fill="#3F456B"/></g></g><g><g><path d="M24.103,81.18c-1.28,0-2.559-0.488-3.536-1.465c-1.953-1.952-1.953-5.118,0-7.07l8.017-8.017     c1.954-1.953,5.119-1.952,7.071,0s1.953,5.118,0,7.07l-8.017,8.017C26.662,80.691,25.382,81.18,24.103,81.18z" fill="#3F456B"/></g></g><g><g><path d="M59.473,81.19c-1.28,0-2.559-0.488-3.536-1.465l-8.018-8.018c-1.953-1.952-1.953-5.118,0-7.07     c1.953-1.953,5.118-1.953,7.071,0l8.018,8.018c1.953,1.952,1.953,5.118,0,7.07C62.032,80.702,60.753,81.19,59.473,81.19z" fill="#3F456B"/></g></g><g><g><path d="M32.13,53.827c-1.28,0-2.559-0.488-3.536-1.465l-8.017-8.018c-1.953-1.952-1.953-5.118,0-7.07     c1.954-1.953,5.119-1.952,7.071,0l8.017,8.018c1.953,1.952,1.953,5.118,0,7.07C34.689,53.339,33.41,53.827,32.13,53.827z" fill="#3F456B"/></g></g></g></svg>