<?xml version="1.0" ?><svg viewBox="0 0 512 512" xmlns="http://www.w3.org/2000/svg"><defs><style>.cls-1{fill:#3f456b;}</style></defs><title/><g id="Lines"><path class="cls-1" d="M260,351.31a69.58,69.58,0,1,1,69.58-69.58A69.65,69.65,0,0,1,260,351.31Zm0-129.15a59.58,59.58,0,1,0,59.58,59.57A59.64,59.64,0,0,0,260,222.16Z"/><path class="cls-1" d="M426,438.31a30.58,30.58,0,1,1,30.58-30.58A30.61,30.61,0,0,1,426,438.31Zm0-51.15a20.58,20.58,0,1,0,20.58,20.57A20.6,20.6,0,0,0,426,387.16Z"/><path class="cls-1" d="M43,438.31a30.58,30.58,0,1,1,30.58-30.58A30.61,30.61,0,0,1,43,438.31Zm0-51.15a20.58,20.58,0,1,0,20.58,20.57A20.6,20.6,0,0,0,43,387.16Z"/><path class="cls-1" d="M477,184.31a30.58,30.58,0,1,1,30.58-30.58A30.61,30.61,0,0,1,477,184.31Zm0-51.15a20.58,20.58,0,1,0,20.58,20.57A20.6,20.6,0,0,0,477,133.16Z"/><path class="cls-1" d="M95,184.31a30.58,30.58,0,1,1,30.58-30.58A30.61,30.61,0,0,1,95,184.31Zm0-51.15a20.58,20.58,0,1,0,20.58,20.57A20.6,20.6,0,0,0,95,133.16Z"/></g><g id="Outline"><path class="cls-1" d="M221.83,398.91h0c-1,0-2,0-3.08,0a5,5,0,0,1,.22-10c1,0,2,0,2.93,0a5,5,0,0,1,0,10Zm20-.76a5,5,0,0,1-.41-10l2.91-.27a5,5,0,0,1,1,10l-3.06.28Zm-42.89-.72a5.16,5.16,0,0,1-.67-.05l-3.07-.44a5,5,0,1,1,1.54-9.88l2.86.41a5,5,0,0,1-.66,10Zm65.66-2.5a5,5,0,0,1-1-9.91l2.88-.59a5,5,0,0,1,2.09,9.78l-3,.62A4.66,4.66,0,0,1,264.56,394.93Zm-88-2.7a4.84,4.84,0,0,1-1.66-.29c-1-.35-2-.72-3-1.1a5,5,0,0,1,3.65-9.31c.86.34,1.75.67,2.65,1a5,5,0,0,1-1.67,9.71Zm110.28-3a5,5,0,0,1-1.5-9.77l2.79-.91a5,5,0,1,1,3.15,9.49l-2.92,1A5.07,5.07,0,0,1,286.84,389.21Zm-130.47-7.72a5,5,0,0,1-3.06-1.05c-.86-.67-1.71-1.36-2.52-2.07a5,5,0,1,1,6.53-7.56c.69.59,1.4,1.17,2.12,1.73a5,5,0,0,1-3.07,8.95Zm152-.39a5,5,0,0,1-2-9.58l2.68-1.19a5,5,0,0,1,4.14,9.1c-.93.43-1.87.84-2.81,1.25A4.89,4.89,0,0,1,308.37,381.1ZM329,370.84a5,5,0,0,1-2.45-9.36l2.56-1.46a5,5,0,0,1,5,8.67c-.88.51-1.77,1-2.66,1.51A4.89,4.89,0,0,1,329,370.84ZM141.72,364a5,5,0,0,1-4.45-2.71c-.5-1-1-2-1.42-3a5,5,0,1,1,9.16-4c.36.82.75,1.63,1.16,2.43a5,5,0,0,1-2.17,6.73A4.91,4.91,0,0,1,141.72,364Zm206.73-5.36a5,5,0,0,1-2.87-9.1c.79-.56,1.59-1.12,2.39-1.7a5,5,0,1,1,5.85,8.11c-.84.6-1.67,1.2-2.5,1.78A5,5,0,0,1,348.45,358.66Zm18.14-14.16a5,5,0,0,1-3.27-8.79l2.22-1.93a5,5,0,1,1,6.62,7.5c-.77.68-1.54,1.35-2.32,2A5,5,0,0,1,366.59,344.5Zm-230-2.66h-.33a5,5,0,0,1-4.67-5.32c.07-1.06.16-2.11.27-3.16a5,5,0,1,1,10,1c-.1.93-.17,1.87-.24,2.81A5,5,0,0,1,136.62,341.84Zm246.74-13.09a4.94,4.94,0,0,1-3.5-1.43,5,5,0,0,1-.08-7.07c.69-.7,1.37-1.4,2.05-2.11a5,5,0,1,1,7.23,6.91l-2.13,2.2A5,5,0,0,1,383.36,328.75ZM141.1,319.37a5,5,0,0,1-4.73-6.59q.49-1.5,1-3a5,5,0,1,1,9.37,3.48c-.33.89-.64,1.78-.95,2.68A5,5,0,0,1,141.1,319.37Zm257.62-7.73a5,5,0,0,1-3.86-8.18c.63-.75,1.24-1.51,1.86-2.28a5,5,0,1,1,7.79,6.27l-1.93,2.37A5,5,0,0,1,398.72,311.64Zm-247.91-13a5,5,0,0,1-4.28-7.57c.54-.9,1.09-1.78,1.64-2.66a5,5,0,1,1,8.44,5.36c-.51.81-1,1.63-1.51,2.45A5,5,0,0,1,150.81,298.6Zm261.68-5.38a5,5,0,0,1-4.14-7.8c.55-.81,1.09-1.63,1.63-2.45a5,5,0,1,1,8.37,5.48c-.57.85-1.13,1.71-1.71,2.56A5,5,0,0,1,412.49,293.22ZM164.33,280a5,5,0,0,1-3.79-8.25c.67-.78,1.35-1.56,2-2.32A5,5,0,0,1,170,276.1c-.64.72-1.28,1.44-1.91,2.18A5,5,0,0,1,164.33,280Zm260-6.55a4.86,4.86,0,0,1-2.3-.57,5,5,0,0,1-2.13-6.74l1.33-2.6a5,5,0,1,1,8.94,4.47c-.46.92-.92,1.83-1.4,2.75A5,5,0,0,1,424.29,273.47ZM180.44,263.6a5,5,0,0,1-3.36-8.71c.77-.69,1.53-1.37,2.3-2a5,5,0,1,1,6.59,7.52l-2.18,1.94A5,5,0,0,1,180.44,263.6Zm253-11.2a5,5,0,0,1-4.72-6.65c.32-.91.63-1.83.92-2.74a5,5,0,0,1,9.52,3.08c-.32,1-.65,2-1,2.95A5,5,0,0,1,433.47,252.4Zm-235.16-3.31a5,5,0,0,1-3-9c.83-.61,1.65-1.21,2.48-1.8a5,5,0,0,1,5.82,8.13c-.79.57-1.59,1.14-2.38,1.73A5,5,0,0,1,198.31,249.09Zm19.15-12.8a5,5,0,0,1-2.61-9.27l2.63-1.58a5,5,0,1,1,5.1,8.6c-.82.49-1.67,1-2.52,1.52A5,5,0,0,1,217.46,236.29Zm221.59-6.17a6,6,0,0,1-.73-.05,5,5,0,0,1-4.23-5.67c.14-1,.26-1.89.37-2.83a5,5,0,0,1,9.94,1.15c-.12,1-.26,2.08-.41,3.12A5,5,0,0,1,439.05,230.12ZM88.37,226.45a5,5,0,0,1-3.6-8.47c.7-.74,1.42-1.47,2.13-2.2a5,5,0,0,1,7.13,7c-.69.7-1.38,1.41-2.06,2.12A5,5,0,0,1,88.37,226.45Zm149.29-1.29a5,5,0,0,1-2.19-9.49c1.86-.91,2.89-1.37,2.89-1.37a5,5,0,0,1,4.09,9.13s-1,.43-2.6,1.23A5,5,0,0,1,237.66,225.16ZM105,210.54a5,5,0,0,1-3.31-8.74c.77-.68,1.53-1.35,2.31-2a5,5,0,0,1,6.54,7.57c-.75.64-1.49,1.29-2.23,1.94A5,5,0,0,1,105,210.54Zm334.64-3.35a5,5,0,0,1-5-4.49c-.1-.93-.21-1.87-.34-2.8a5,5,0,0,1,9.91-1.37c.14,1.05.27,2.1.38,3.15a5,5,0,0,1-4.47,5.49ZM122.82,196a5,5,0,0,1-3-9l2.43-1.83a5,5,0,1,1,6,8L125.83,195A5,5,0,0,1,122.82,196Zm311.42-11a5,5,0,0,1-4.65-3.17q-.52-1.31-1.08-2.58a5,5,0,0,1,9.15-4c.43,1,.84,1.95,1.23,2.95a5,5,0,0,1-2.82,6.48A4.91,4.91,0,0,1,434.24,184.93Zm-292.63-2.22a5,5,0,0,1-2.75-9.18l2.55-1.66a5,5,0,1,1,5.41,8.41l-2.47,1.61A5,5,0,0,1,141.61,182.71Zm19.63-12a5,5,0,0,1-2.47-9.36l2.65-1.48a5,5,0,1,1,4.85,8.74l-2.57,1.44A4.91,4.91,0,0,1,161.24,170.74Zm261.46-5.56a5,5,0,0,1-3.88-1.84c-.59-.72-1.19-1.43-1.81-2.13a5,5,0,1,1,7.47-6.64c.71.8,1.41,1.61,2.09,2.44a5,5,0,0,1-3.87,8.17Zm-241.1-5.11a5,5,0,0,1-2.18-9.5c.91-.45,1.83-.88,2.74-1.32a5,5,0,0,1,4.28,9l-2.67,1.28A5,5,0,0,1,181.6,160.07Zm21-9.31a5,5,0,0,1-1.86-9.64l2.82-1.13a5,5,0,1,1,3.66,9.31l-2.75,1.09A4.91,4.91,0,0,1,202.62,150.76Zm203.09-1a5,5,0,0,1-2.8-.86c-.78-.53-1.57-1.05-2.37-1.55a5,5,0,0,1,5.33-8.46c.9.56,1.78,1.14,2.65,1.73a5,5,0,0,1-2.81,9.14Zm-181.46-6.88a5,5,0,0,1-1.53-9.76l2.91-.92a5,5,0,0,1,3,9.55l-2.81.89A5.14,5.14,0,0,1,224.25,142.92Zm161.09-3.69a4.9,4.9,0,0,1-1.82-.35c-.89-.35-1.79-.69-2.69-1a5,5,0,1,1,3.42-9.39c1,.36,2,.72,2.92,1.1a5,5,0,0,1-1.83,9.66Zm-139-2.59a5,5,0,0,1-1.22-9.85l2.95-.73a5,5,0,0,1,2.37,9.72l-2.88.71A5.15,5.15,0,0,1,246.37,136.64Zm117-4a4.94,4.94,0,0,1-1.07-.12l-2.85-.59a5,5,0,0,1,2-9.81c1,.2,2,.41,3,.63a5,5,0,0,1-1.06,9.89Zm-94.49-.89a5,5,0,0,1-.86-9.93c1-.17,2-.35,3-.51a5,5,0,1,1,1.64,9.86l-2.91.5A5.24,5.24,0,0,1,268.84,131.78Zm71.77-2.63-.5,0c-1-.1-1.95-.19-2.92-.27a5,5,0,1,1,.85-10c1,.09,2,.18,3.06.29a5,5,0,0,1-.49,10Zm-49-.34a5,5,0,0,1-.38-10l2.78-.2.29,0a5,5,0,0,1,.62,10l-.26,0-2.65.19Zm26-.86h-3a5,5,0,0,1,0-10h3a5,5,0,0,1,0,10Z"/><path class="cls-1" d="M209,446.87h-.07l-3.06-.05a5,5,0,0,1,.25-10l2.94.06a5,5,0,0,1-.06,10Zm20-.46a5,5,0,0,1-.29-10l1.3-.08,1.62-.11a5,5,0,1,1,.73,10l-1.71.12-1.35.08ZM186,445.55a4.53,4.53,0,0,1-.52,0c-1-.1-2-.22-3.06-.34a5,5,0,1,1,1.17-9.93c1,.12,1.95.23,2.93.33a5,5,0,0,1-.52,10Zm65.79-1.71a5,5,0,0,1-.79-9.94l2.91-.48a5,5,0,0,1,1.7,9.85l-3,.5A4.43,4.43,0,0,1,251.81,443.84Zm-88.51-1.9a4.88,4.88,0,0,1-1.07-.12c-1-.22-2-.44-3-.68a5,5,0,0,1,2.3-9.73c.94.22,1.89.44,2.84.64a5,5,0,0,1-1.06,9.89Zm111.05-2.68a5,5,0,0,1-1.16-9.86l2.87-.7a5,5,0,1,1,2.42,9.7c-1,.25-2,.49-3,.72A4.68,4.68,0,0,1,274.35,439.26ZM141.23,435.5a4.91,4.91,0,0,1-1.75-.32c-1-.36-1.94-.74-2.91-1.12a5,5,0,0,1,3.73-9.28l2.69,1a5,5,0,0,1-1.76,9.68Zm155.32-2.28a5,5,0,0,1-1.48-9.77l2.81-.89a5,5,0,0,1,3.06,9.52L298,433A5,5,0,0,1,296.55,433.22Zm21.66-7.71a5,5,0,0,1-1.86-9.64l2.73-1.11A5,5,0,0,1,322.9,424l-2.82,1.15A4.9,4.9,0,0,1,318.21,425.51Zm-197.63-.05a5,5,0,0,1-2.63-.75c-.9-.55-1.78-1.12-2.66-1.7a5,5,0,1,1,5.53-8.33q1.19.78,2.4,1.53a5,5,0,0,1-2.64,9.25Zm218.63-9.33a5,5,0,0,1-2.21-9.49l2.63-1.31a5,5,0,1,1,4.5,8.93c-.9.46-1.81.91-2.72,1.35A5,5,0,0,1,339.21,416.13ZM102.77,411a5,5,0,0,1-3.64-1.57c-.73-.78-1.45-1.57-2.15-2.37a5,5,0,0,1,7.54-6.57c.62.71,1.25,1.4,1.89,2.08a5,5,0,0,1-.22,7.07A5,5,0,0,1,102.77,411Zm256.7-5.79a5,5,0,0,1-2.53-9.32l2.54-1.49A5,5,0,1,1,364.6,403L362,404.57A4.89,4.89,0,0,1,359.47,405.25ZM378.92,393a5,5,0,0,1-2.81-9.14l2.44-1.67a5,5,0,0,1,5.69,8.22l-2.52,1.72A4.92,4.92,0,0,1,378.92,393Zm-289.17-.79a5,5,0,0,1-4.5-2.82c-.46-.95-.91-1.91-1.34-2.89a5,5,0,0,1,9.16-4c.38.86.77,1.71,1.18,2.55a5,5,0,0,1-4.5,7.19ZM397.5,379.45a5,5,0,0,1-3.09-8.93c.77-.61,1.55-1.22,2.31-1.84a5,5,0,1,1,6.25,7.81c-.8.64-1.59,1.27-2.39,1.89A5,5,0,0,1,397.5,379.45Zm-314.72-9a5,5,0,0,1-4.92-4.14c-.18-1-.35-2.08-.49-3.12a5,5,0,1,1,9.9-1.41c.13.93.28,1.87.44,2.8a5,5,0,0,1-4.06,5.79A5.12,5.12,0,0,1,82.78,370.41Zm332.3-5.79a5,5,0,0,1-3.37-8.7l2.18-2a5,5,0,1,1,6.8,7.34c-.75.69-1.5,1.38-2.26,2.06A5,5,0,0,1,415.08,364.62ZM281.26,348.08a5,5,0,0,1-2-9.59s1-.42,2.61-1.2a5,5,0,1,1,4.29,9c-1.88.89-2.91,1.34-2.91,1.34A5,5,0,0,1,281.26,348.08Zm-199.63-.59h-.35a5,5,0,0,1-4.64-5.33c.07-1,.16-2.09.26-3.13a5,5,0,1,1,9.95,1c-.09.94-.17,1.89-.24,2.84A5,5,0,0,1,81.63,347.49Zm220.08-10.12a5,5,0,0,1-2.53-9.32c.83-.48,1.67-1,2.53-1.5a5,5,0,1,1,5.17,8.56c-.9.54-1.78,1.07-2.64,1.57A5,5,0,0,1,301.71,337.37ZM85.65,324.9a5,5,0,0,1-4.82-6.36c.29-1,.59-2,.9-3a5,5,0,0,1,9.55,3c-.29.92-.56,1.84-.82,2.77A5,5,0,0,1,85.65,324.9Zm235.4,0a5,5,0,0,1-2.9-9.07c.79-.56,1.58-1.13,2.38-1.72a5,5,0,1,1,5.91,8.07c-.83.61-1.66,1.21-2.48,1.79A5,5,0,0,1,321.05,324.85Zm18.05-14.29a5,5,0,0,1-3.31-8.75c.72-.64,1.45-1.29,2.17-1.95a5,5,0,1,1,6.74,7.39c-.76.7-1.53,1.38-2.29,2.06A5,5,0,0,1,339.1,310.56ZM93.8,303.41a4.94,4.94,0,0,1-2.14-.48,5,5,0,0,1-2.37-6.66q.66-1.39,1.35-2.79a5,5,0,0,1,9,4.46c-.43.87-.85,1.74-1.27,2.62A5,5,0,0,1,93.8,303.41Zm261.55-9.13a4.93,4.93,0,0,1-3.28-1.23,5,5,0,0,1-.49-7.05c.63-.73,1.26-1.46,1.88-2.2a5,5,0,0,1,7.67,6.42c-.66.79-1.33,1.57-2,2.35A5,5,0,0,1,355.35,294.28ZM105.08,283.37a5,5,0,0,1-4.19-7.73c.56-.86,1.13-1.72,1.7-2.57a5,5,0,1,1,8.3,5.58c-.55.81-1.09,1.63-1.62,2.45A5,5,0,0,1,105.08,283.37ZM369,275.8a4.93,4.93,0,0,1-2.6-.73,5,5,0,0,1-1.67-6.87c.5-.81,1-1.63,1.46-2.46a5,5,0,0,1,8.67,5c-.52.91-1,1.8-1.59,2.69A5,5,0,0,1,369,275.8Zm-250.27-11a4.94,4.94,0,0,1-3.17-1.14,5,5,0,0,1-.69-7c.65-.79,1.3-1.57,2-2.35a5,5,0,0,1,7.64,6.45L122.57,263A5,5,0,0,1,118.71,264.84Zm260.07-9.77a5,5,0,0,1-4.74-6.62c.31-.89.6-1.79.88-2.7a5,5,0,0,1,9.56,2.92c-.31,1-.63,2-1,3A5,5,0,0,1,378.78,255.07Zm-244.59-7.24a5,5,0,0,1-3.53-8.54l2.18-2.15a5,5,0,0,1,7,7.17l-2.09,2.06A5,5,0,0,1,134.19,247.83Zm249.17-15.21-.36,0a5,5,0,0,1-4.63-5.33c.05-.83.1-1.66.13-2.49a.86.86,0,0,0,0-.16v-.21a5,5,0,0,1,10,.42,3.52,3.52,0,0,1,0,.41q0,1.37-.15,2.73A5,5,0,0,1,383.36,232.62Zm-232.13-.24a5,5,0,0,1-3.19-8.86l2.38-1.94a5,5,0,0,1,6.26,7.8l-2.28,1.85A5,5,0,0,1,151.23,232.38Zm18.46-13.73a5,5,0,0,1-2.78-9.16l1.8-1.18.78-.51a5,5,0,1,1,5.41,8.41l-.75.48-1.7,1.12A4.94,4.94,0,0,1,169.69,218.65ZM379.91,210a5,5,0,0,1-4.66-3.18c-.32-.84-.68-1.67-1.05-2.49a5,5,0,1,1,9.08-4.18c.46,1,.89,2,1.29,3a5,5,0,0,1-4.66,6.82ZM189.49,207a5,5,0,0,1-2.34-9.43l2.71-1.41a5,5,0,0,1,4.57,8.9l-2.62,1.36A5,5,0,0,1,189.49,207Zm20.77-9.88a5,5,0,0,1-2-9.6l2.81-1.18a5,5,0,1,1,3.84,9.23l-2.72,1.15A5,5,0,0,1,210.26,197.08ZM367,191.26a5,5,0,0,1-3.36-1.3c-.66-.6-1.35-1.19-2.06-1.76a5,5,0,1,1,6.29-7.77c.85.68,1.69,1.4,2.49,2.13a5,5,0,0,1-3.36,8.7Zm-135.28-2.45a5,5,0,0,1-1.62-9.73l2.89-1a5,5,0,0,1,3.16,9.49l-2.8.95A4.89,4.89,0,0,1,231.72,188.81Zm22-6.67a5,5,0,0,1-1.27-9.84l2.95-.76a5,5,0,0,1,2.44,9.7L255,182A5.1,5.1,0,0,1,253.74,182.14Zm93.6-2.47a5,5,0,0,1-1.72-.31c-.86-.31-1.74-.62-2.64-.91a5,5,0,1,1,3.07-9.51c1,.33,2,.68,3,1a5,5,0,0,1-1.73,9.69Zm-71.15-2.46a5,5,0,0,1-.85-9.93l3-.5a5,5,0,0,1,1.6,9.87c-1,.15-1.93.32-2.9.49A5.1,5.1,0,0,1,276.19,177.21Zm48.79-2.5a4.53,4.53,0,0,1-.52,0c-.94-.1-1.9-.18-2.87-.26a5,5,0,0,1,.8-10c1.06.09,2.09.18,3.11.29a5,5,0,0,1-.52,10Zm-26-.31a5,5,0,0,1-.34-10l3.08-.18a5,5,0,1,1,.51,10q-1.45.07-2.91.18Z"/><path class="cls-1" d="M195.77,495.4h-.08l-3.06-.07a5,5,0,1,1,.28-10l2.94.06a5,5,0,0,1-.08,10Zm20-.44a5,5,0,0,1-.29-10l2.95-.18a5,5,0,0,1,.69,10l-3,.2Zm-42.91-1-.58,0-3-.37a5,5,0,1,1,1.27-9.92c1,.13,1.93.24,2.91.35a5,5,0,0,1-.56,10Zm65.8-1.22a5,5,0,0,1-.67-10l2.72-.37a3.29,3.29,0,0,1,.44-.05h.16a5,5,0,1,1,.65,10h0l-2.6.36A3.85,3.85,0,0,1,238.64,492.72Zm-88.46-2.61a5.4,5.4,0,0,1-1.12-.12l-3-.71a5,5,0,1,1,2.37-9.71l2.84.67a5,5,0,0,1-1.1,9.87Zm-22.06-6.46a5,5,0,0,1-1.71-.31c-1-.35-1.93-.71-2.89-1.08a5,5,0,0,1,3.59-9.33l2.73,1a5,5,0,0,1-1.72,9.7Zm-21-9.33a5,5,0,0,1-2.35-.59c-.92-.49-1.83-1-2.72-1.48a5,5,0,1,1,4.88-8.73l2.55,1.39a5,5,0,0,1-2.36,9.41ZM87.74,462a5,5,0,0,1-3-1c-.85-.64-1.67-1.28-2.46-1.91a5,5,0,1,1,6.23-7.82q1.1.87,2.28,1.77a5,5,0,0,1-3,9ZM70.88,446.36a5,5,0,0,1-3.81-1.77C65.7,443,65,442,64.93,441.9a5,5,0,0,1,8.14-5.81h0s.54.75,1.63,2a5,5,0,0,1-3.82,8.24Z"/><path class="cls-1" d="M450,126.62a5,5,0,0,1-3.89-1.86h0s-.58-.71-1.73-1.91a5,5,0,1,1,7.2-6.93c1.48,1.53,2.24,2.47,2.32,2.57a5,5,0,0,1-3.9,8.13Zm-17.39-15a5,5,0,0,1-2.84-.88c-.77-.53-1.56-1.07-2.39-1.62a5,5,0,1,1,5.5-8.35q1.33.89,2.58,1.74a5,5,0,0,1-2.85,9.11ZM412.7,100.15a5,5,0,0,1-2.15-.49l-2.64-1.23a5,5,0,0,1,4.14-9.1c.95.43,1.88.86,2.8,1.3a5,5,0,0,1-2.15,9.52ZM391.33,91.7a4.79,4.79,0,0,1-1.53-.24L387,90.59A5,5,0,0,1,389.92,81l2.93.92a5,5,0,0,1-1.52,9.76ZM369.07,86a4.63,4.63,0,0,1-1-.1c-1-.18-1.91-.37-2.88-.54a5,5,0,1,1,1.8-9.84c1,.18,2,.37,3,.57a5,5,0,0,1-1,9.91ZM277,85.06a5,5,0,0,1-.7-10l.53-.08a5,5,0,1,1,1.4,9.9l-.51.07A4.37,4.37,0,0,1,277,85.06Zm69.33-2.31a3.55,3.55,0,0,1-.46,0l-2.93-.25a5,5,0,1,1,.8-10c1,.09,2,.17,3,.27a5,5,0,0,1-.46,10Zm-48.94,0a5,5,0,0,1-.41-10l3-.24a5,5,0,0,1,.74,10l-2.95.23Zm23-1.06a5,5,0,0,1,0-10h3.05a5,5,0,1,1,0,10h-3Z"/><path class="cls-1" d="M324.52,473.2a5,5,0,0,1-1.68-9.71c27.91-10,47.74-21.11,59.46-28.7,12.7-8.21,18.87-14.15,18.93-14.21a5,5,0,0,1,7,7.17c-1,1-26.34,25.26-82,45.16A5,5,0,0,1,324.52,473.2Z"/><path class="cls-1" d="M118,144.6a5,5,0,0,1-3.42-8.65c1.07-1,26.84-24.71,82.9-43.47a5,5,0,0,1,3.18,9.48c-28.11,9.41-48.16,20.14-60,27.48-12.86,8-19.15,13.76-19.22,13.82A5,5,0,0,1,118,144.6Z"/><path class="cls-1" d="M34.08,387.16A5,5,0,0,1,29.17,383c-.4-2.23-9.57-55.23,9-93.72a5,5,0,0,1,9,4.34C30,329.27,38.92,380.76,39,381.28a5,5,0,0,1-4,5.8A5.35,5.35,0,0,1,34.08,387.16Z"/><path class="cls-1" d="M470.15,295.44A5,5,0,0,1,465.8,288c28.49-50.54,17-107.06,16.84-107.62a5,5,0,0,1,9.78-2.09c.52,2.45,12.49,60.7-17.91,114.62A5,5,0,0,1,470.15,295.44Z"/><path class="cls-1" d="M277.44,486.69a5,5,0,0,1-1.08-9.88l2.9-.66a5,5,0,0,1,2.23,9.75l-3,.67A5.06,5.06,0,0,1,277.44,486.69Zm22.31-5.61a5,5,0,0,1-1.35-9.81l2.85-.81a5,5,0,1,1,2.78,9.6l-2.92.84A5.35,5.35,0,0,1,299.75,481.08Zm21.94-6.88a5,5,0,0,1-1.64-9.72l2.79-1a5,5,0,0,1,3.37,9.42l-2.87,1A5,5,0,0,1,321.69,474.2Z"/><path class="cls-1" d="M199.1,102.22a5,5,0,0,1-1.59-9.74l2.89-1a5,5,0,0,1,3.1,9.51c-.95.3-1.88.61-2.81.92A4.9,4.9,0,0,1,199.1,102.22Zm22-6.61a5,5,0,0,1-1.29-9.83l2.94-.78a5,5,0,1,1,2.51,9.68l-2.86.76A5.34,5.34,0,0,1,221.12,95.61ZM243.5,90.3a5,5,0,0,1-1-9.9l3-.6a5,5,0,0,1,2,9.8l-2.91.59A4.49,4.49,0,0,1,243.5,90.3Z"/><path class="cls-1" d="M50,279.38a4.93,4.93,0,0,1-1.87-.36,5,5,0,0,1-2.77-6.51s.44-1.09,1.29-2.95a5,5,0,0,1,9.11,4.12c-.72,1.58-1.1,2.53-1.12,2.58A5,5,0,0,1,50,279.38ZM60.77,259a5,5,0,0,1-4.2-7.71q.84-1.31,1.74-2.61a5,5,0,1,1,8.25,5.64c-.54.8-1.07,1.6-1.59,2.39A5,5,0,0,1,60.77,259Z"/><path class="cls-1" d="M446,332.26a5,5,0,0,1-3.91-8.11c.62-.78,1.22-1.55,1.81-2.31A5,5,0,1,1,451.8,328c-.61.8-1.25,1.61-1.89,2.42A5,5,0,0,1,446,332.26Zm13.44-18.69a5,5,0,0,1-4.19-7.72c1-1.51,1.52-2.39,1.54-2.43a5,5,0,1,1,8.53,5.22s-.59,1-1.68,2.65A5,5,0,0,1,459.43,313.57Z"/></g></svg>