<?xml version="1.0" ?><svg viewBox="0 0 512 512" xmlns="http://www.w3.org/2000/svg"><defs><style>.cls-1{fill:#3f456b;}</style></defs><title/><g id="Lines"><path class="cls-1" d="M143.37,499.83H16.19a5,5,0,0,1-5-5v-478a5,5,0,0,1,5-5h384a5,5,0,0,1,5,5v46a5,5,0,0,1-10,0v-41h-374v468H143.37a5,5,0,1,1,0,10Z"/><path class="cls-1" d="M142.5,135.83H114.39c-28.76,0-43.46-25.36-45-28.25L12,19.56a5,5,0,1,1,8.38-5.46l57.46,88.19c.09.14.16.27.24.41s12.58,23.13,36.31,23.13H142.5a5,5,0,0,1,0,10Z"/><path class="cls-1" d="M370.93,66.71a5,5,0,0,1-4.2-7.71L395,15.13a5,5,0,1,1,8.41,5.41L375.14,64.42A5,5,0,0,1,370.93,66.71Z"/><path class="cls-1" d="M181,67.83a5.15,5.15,0,0,1-1.91-.37,5,5,0,0,1-2.71-6.53,37.72,37.72,0,0,1,69.61-.31,5,5,0,1,1-9.21,3.89,27.72,27.72,0,0,0-51.16.23A5,5,0,0,1,181,67.83Z"/><path class="cls-1" d="M15.89,500.17a5,5,0,0,1-4.18-7.74L69.42,404c1.24-2,17.84-28.16,47-28.16h26.39a5,5,0,1,1,0,10H116.39c-24.07,0-38.32,23.17-38.46,23.4l-.09.16L20.09,497.9A5,5,0,0,1,15.89,500.17Z"/><path class="cls-1" d="M416.37,324.83H381.55L259.78,324l-35.44-.19a5,5,0,0,1-5-5v-33c0-38.07,36.8-61.28,38.37-62.25a5,5,0,0,1,5.27,8.5c-.43.27-33.64,21.35-33.64,53.75v28l30.47.16,121.75.81h29.78v-29c0-32.44-33.3-53.54-33.63-53.75a5,5,0,0,1,5.26-8.5c1.57,1,38.37,24.18,38.37,62.25v34A5,5,0,0,1,416.37,324.83Z"/><path class="cls-1" d="M385.37,323.83a5,5,0,0,1-5-5v-32a5,5,0,0,1,10,0v32A5,5,0,0,1,385.37,323.83Z"/><path class="cls-1" d="M257.37,323.83a5,5,0,0,1-5-5v-32a5,5,0,0,1,10,0v32A5,5,0,0,1,257.37,323.83Z"/><path class="cls-1" d="M304.65,322.93a5.35,5.35,0,0,1-1.18-.14,5,5,0,0,1-3.69-6l7.46-31-5.73-25.11a5,5,0,1,1,9.75-2.23l6,26.26a5,5,0,0,1,0,2.28l-7.73,32.1A5,5,0,0,1,304.65,322.93Z"/><path class="cls-1" d="M338.64,322.93a5,5,0,0,1-4.85-3.81L325.87,287a4.88,4.88,0,0,1,0-2.31l6-26.26a5,5,0,0,1,9.75,2.23l-5.73,25.1,7.64,30.94a5,5,0,0,1-3.66,6A4.93,4.93,0,0,1,338.64,322.93Z"/><path class="cls-1" d="M329.37,290.83h-17a5,5,0,0,1,0-10h17a5,5,0,0,1,0,10Z"/><path class="cls-1" d="M320.38,265.94a76.08,76.08,0,0,1-75.95-76V167.84l-.06-1.84c0-.06,0-.11,0-.17a76,76,0,1,1,151.94,0l0,2.11.05,22A76.1,76.1,0,0,1,320.38,265.94Zm-66-100.2.07,1.84v22.33a66,66,0,1,0,131.94,0l-.07-24a66,66,0,1,0-131.94-.14Z"/><path class="cls-1" d="M247.37,199.83a20.54,20.54,0,0,1-9.48-2.66c-4.34-2.48-9.52-7.67-9.52-18.34S233.5,163,237.8,160.5a20.37,20.37,0,0,1,9.42-2.67,5,5,0,0,1,.05,10c-2.1,0-8.9,1-8.9,11,0,4.78,1.47,7.94,4.48,9.66a10.87,10.87,0,0,0,4.52,1.34,5,5,0,0,1,0,10Z"/><path class="cls-1" d="M392.37,199.83a5,5,0,0,1,0-10c9.52-.17,10-9.19,10-11,0-4.72-1.57-7.86-4.79-9.6a12.87,12.87,0,0,0-5.05-1.4,5,5,0,0,1,0-10c8,0,19.84,5.6,19.84,21S400.41,199.83,392.37,199.83Z"/><path class="cls-1" d="M288.37,183.83h-1a5,5,0,0,1,0-10h1a5,5,0,0,1,0,10Z"/><path class="cls-1" d="M352.37,183.83h-1a5,5,0,0,1,0-10h1a5,5,0,0,1,0,10Z"/><path class="cls-1" d="M279,168.65a116.63,116.63,0,0,1-30.86-4.07,5,5,0,1,1,2.88-9.57h0a110.32,110.32,0,0,0,32.27,3.55c23-1,40.52-9.61,52-25.63a5,5,0,0,1,8.78,1.21c.48,1.31,12.25,32.21,45.35,21a5,5,0,1,1,3.22,9.47,53.66,53.66,0,0,1-17.25,3.07c-20,0-31.59-13.75-37-22.67-13.18,14.56-32,22.67-55,23.58C282,168.62,280.48,168.65,279,168.65Z"/><path class="cls-1" d="M116.37,226a34.67,34.67,0,0,1-7.57-68.48L142.27,150a5,5,0,1,1,2.2,9.75L111,167.25a24.66,24.66,0,1,0,10.87,48.11L183,201.56a16.24,16.24,0,0,0-7.16-31.68l-59.3,13.4a6.72,6.72,0,0,0,3,13.1l60-13.55a5,5,0,0,1,2.21,9.75l-60,13.56a16.72,16.72,0,1,1-7.37-32.62l59.29-13.4a26.25,26.25,0,0,1,11.57,51.2l-61.08,13.8A34.91,34.91,0,0,1,116.37,226Z"/><path class="cls-1" d="M496.37,499.83h-353a5,5,0,0,1-5-5v-432a5,5,0,0,1,5-5h353a5,5,0,0,1,5,5v432A5,5,0,0,1,496.37,499.83Zm-348-10h343v-422h-343Z"/></g><g id="Outline"><path class="cls-1" d="M280,356.8a5,5,0,0,1,0-10h88.38a5,5,0,0,1,0,10Z"/><path class="cls-1" d="M368,383.48H238.37a5,5,0,0,1,0-10H368a5,5,0,0,1,0,10Z"/><path class="cls-1" d="M368,410.16H238.37a5,5,0,1,1,0-10H368a5,5,0,0,1,0,10Z"/><path class="cls-1" d="M368,436.83H238.37a5,5,0,0,1,0-10H368a5,5,0,0,1,0,10Z"/><path class="cls-1" d="M405.37,468.83h-1a5,5,0,0,1,0-10h1a5,5,0,0,1,0,10Zm-21,0h-1a5,5,0,0,1,0-10h1a5,5,0,0,1,0,10Zm-21,0h-1a5,5,0,0,1,0-10h1a5,5,0,0,1,0,10Zm-21,0h-1a5,5,0,0,1,0-10h1a5,5,0,0,1,0,10Zm-21,0h-1a5,5,0,0,1,0-10h1a5,5,0,0,1,0,10Zm-21,0h-1a5,5,0,0,1,0-10h1a5,5,0,0,1,0,10Zm-21,0h-1a5,5,0,0,1,0-10h1a5,5,0,0,1,0,10Zm-21,0h-1a5,5,0,0,1,0-10h1a5,5,0,0,1,0,10Zm-21,0h-1a5,5,0,0,1,0-10h1a5,5,0,1,1,0,10Z"/><path class="cls-1" d="M240.37,100.83h-1a5,5,0,0,1,0-10h1a5,5,0,0,1,0,10Zm-21,0h-1a5,5,0,0,1,0-10h1a5,5,0,0,1,0,10Zm-21,0h-1a5,5,0,0,1,0-10h1a5,5,0,0,1,0,10Zm-21,0h-1a5,5,0,0,1,0-10h1a5,5,0,0,1,0,10Z"/><path class="cls-1" d="M399.37,383.48h-9a5,5,0,0,1,0-10h9a5,5,0,0,1,0,10Z"/><path class="cls-1" d="M399.37,410.16h-9a5,5,0,0,1,0-10h9a5,5,0,0,1,0,10Z"/><path class="cls-1" d="M399.37,436.83h-9a5,5,0,0,1,0-10h9a5,5,0,0,1,0,10Z"/></g></svg>