<?xml version="1.0" ?><svg id="Lines" viewBox="0 0 512 512" xmlns="http://www.w3.org/2000/svg"><defs><style>.cls-1{fill:#3f456b;}</style></defs><title/><path class="cls-1" d="M365.82,83.46h-3.17a5,5,0,0,1,0-10h3.17a5,5,0,0,1,0,10Z"/><path class="cls-1" d="M76.14,445.06a31.36,31.36,0,0,1-12.39-2.31,23.57,23.57,0,0,1-12.9-13.5c-4.57-11.4-1.69-24.2,0-31.85,13.58-60.25,36.55-116.29,68.28-166.55,21.36-33.83,43.18-60.79,66.71-82.43,15.29-14.06,32.31-26.27,48.76-38.07,6-4.34,12.29-8.83,18.34-13.32,8.54-6.34,16.86-13.44,24.92-20.31,12-10.26,24.48-20.87,38.18-29.5,15.94-10,37.86-17.69,57.21-20,25.25-3,45.43,2.67,58.34,16.3,5.67,6,11.55,16.06,11,26.33A21.56,21.56,0,0,1,435,85.47a5,5,0,0,1-6.53-7.58,11.47,11.47,0,0,0,4.18-8.5c.33-6.68-3.93-14.33-8.31-19-13.46-14.21-34.58-15-49.91-13.25-18,2.11-38.29,9.19-53,18.49-13.1,8.25-25.26,18.62-37,28.65-8.18,7-16.64,14.18-25.44,20.72-6.12,4.55-12.4,9.06-18.48,13.42-16.21,11.64-33,23.66-47.82,37.31-22.87,21-44.14,47.33-65,80.4C96.51,285.48,74,340.46,60.64,399.6c-2,8.81-3.66,18.07-.51,25.92a13.75,13.75,0,0,0,7.53,8c7,3,18,1.56,31.85-4.06,49.94-20.24,95.83-49.4,132.71-84.33,35.77-33.89,58.16-72.38,68.44-117.68,2-9.83,5.1-37.59-5.5-46.86a5,5,0,1,1,6.59-7.53c16.86,14.76,9.56,52.29,8.68,56.52C299.68,277,276.35,317.13,239.1,352.42c-37.78,35.78-84.75,65.64-135.83,86.33C92.9,443,83.83,445.06,76.14,445.06Z"/><path class="cls-1" d="M267,357.59c-9.94,0-19-4.59-26.85-13.65a5,5,0,0,1,7.55-6.56c5.89,6.78,12.38,10.21,19.3,10.21h0c14.18,0,26.21-13.74,26.33-13.88l.23-.24c23.74-24,31.15-58.1,33.18-82.49,2.42-29-1.49-61-10.46-85.48-6.39-17.47-18.09-27.65-34.76-30.24a59.23,59.23,0,0,0-23.67,1.3A5,5,0,1,1,255,127a69,69,0,0,1,28.14-1.62c14.12,2.2,33,10.34,42.61,36.68,9.44,25.81,13.57,59.36,11,89.75-2.17,26-10.16,62.48-35.94,88.59-1.56,1.76-15.75,17.17-33.76,17.19Z"/><path class="cls-1" d="M438.62,150.92a5,5,0,0,1-3.75-1.7c-.3-.34-30.06-33.84-54.84-37.16a5,5,0,0,1-4.33-4.8,78.45,78.45,0,0,1,5.81-30c7.37-17.18,27-14.83,36.47-11.17,1.56.55,11.79,4.46,19.85,15.94,7.62,10.87,14.79,31,5.62,65.18a5,5,0,0,1-3.69,3.58A4.92,4.92,0,0,1,438.62,150.92ZM385.81,103c19.74,4.74,40,22.73,50.05,32.78C445.56,86.55,416,76,414.7,75.54l-.25-.09h0c-.75-.29-18.32-6.9-23.75,5.75A67.67,67.67,0,0,0,385.81,103Z"/><path class="cls-1" d="M322,303a5,5,0,0,1-2.58-9.28,194.51,194.51,0,0,0,84.63-105.24,209.65,209.65,0,0,0,9.9-44.77,29.89,29.89,0,0,1-14,5.25c-8.52.83-15.38-3.18-18.35-10.71a82.36,82.36,0,0,1-5.86-31.4,5,5,0,0,1,10,.5h0a73.53,73.53,0,0,0,5.18,27.24c.49,1.24,2,5,8.08,4.42,7.06-.69,15-6.63,16-12a5,5,0,0,1,9.91.76c0,1.15.68,28.58-11.3,63.92a204.41,204.41,0,0,1-88.94,110.59A4.94,4.94,0,0,1,322,303Z"/><path class="cls-1" d="M105,338.52a5,5,0,0,1-3.75-1.69c-11.76-13.27-14.81-31.71-8.82-53.34a112.82,112.82,0,0,1,12.28-28.16,5,5,0,1,1,8.41,5.41c-.34.54-27.39,43.5-4.38,69.46a5,5,0,0,1-3.74,8.32Z"/><path class="cls-1" d="M108.08,383.69a23.22,23.22,0,0,1-2.79-.17c-9.35-1.15-15-8.24-14.67-18.49,1-33.11,33.8-68.9,35.2-70.41a5,5,0,1,1,7.33,6.8c-.39.42-31.68,34.6-32.53,63.9-.2,6.74,3.27,7.95,5.89,8.28,7,.86,20-4.43,33.19-18.2,10.63-11.11,24.8-31.23,32-64a5,5,0,1,1,9.77,2.15c-7.69,35-23,56.7-34.53,68.74C134.1,375.73,119.52,383.69,108.08,383.69Z"/><path class="cls-1" d="M162,376.3c-14.41,0-25.27-9.44-25.81-9.91a5,5,0,0,1,6.62-7.5c.13.12,11.76,10.07,24.79,6.7C179,362.64,189,350,196.59,329a5,5,0,1,1,9.41,3.4c-8.9,24.61-21,39-36,42.86A32.45,32.45,0,0,1,162,376.3Z"/><path class="cls-1" d="M207.75,365.57a42.24,42.24,0,0,1-21.78-6,5,5,0,0,1,5.63-8.27c1,.65,22.32,14.37,45.26-10.62a5,5,0,1,1,7.36,6.76C231.2,361.64,218.17,365.57,207.75,365.57Z"/><path class="cls-1" d="M59.37,438.7a5,5,0,0,1-.66-10c45.27-6,90.61-61.24,91.06-61.79a5,5,0,1,1,7.76,6.3A259.17,259.17,0,0,1,127.7,403.3C103.6,424,80.84,435.88,60,438.66A4.87,4.87,0,0,1,59.37,438.7Z"/><path class="cls-1" d="M55.11,432.77a5,5,0,0,1-4.53-7.11c13.6-29.15,44-53.21,45.28-54.22a5,5,0,1,1,6.17,7.87c-.29.23-29.81,23.62-42.39,50.58A5,5,0,0,1,55.11,432.77Z"/><path class="cls-1" d="M244.48,403.42c-14.59,0-26.78-11.22-35.27-32.44a5,5,0,1,1,9.29-3.71c3.9,9.77,12.47,26.15,26,26.15,24.09,0,29.49-23.68,29.77-43.55a5,5,0,1,1,10,.15C283.77,384,269.27,403.42,244.48,403.42Z"/><path class="cls-1" d="M251,424a5,5,0,0,1-5-4.54c-.95-10.28-1.87-20.14-1.87-20.14a5,5,0,0,1,10-.93s.92,9.87,1.86,20.15a5,5,0,0,1-4.52,5.44Z"/><path class="cls-1" d="M149.8,500a5,5,0,0,1-3.45-1.38c-26.91-25.57-14.54-45.29-14-46.12a5,5,0,0,1,1.84-1.68c3-1.61,75.07-39.41,167.1-39.41,91.17,0,150.12,22.75,153.29,24,2,.74,33.24,12.43,45.62,22.75A5,5,0,0,1,502,462v33a5,5,0,0,1-5,5H470a5,5,0,0,1-2.39-.61c-10.39-5.67-28.75-14.33-30.12-15-1-.43-14.49-6.05-37.27-11.61a425.09,425.09,0,0,0-99.48-11.62c-81.85,0-147.77,37.76-148.43,38.14A4.94,4.94,0,0,1,149.8,500Zm321.47-10H492V464.44c-12.42-9.06-40.64-19.56-40.94-19.67l-.11,0c-.15-.06-15-5.9-40.83-11.67a505.53,505.53,0,0,0-108.83-11.65c-82.82,0-150.73,32.37-161,37.54-1.38,3.3-4.29,14.44,10.42,29.86,14.79-7.93,75.24-37.63,150.08-37.63a434.62,434.62,0,0,1,102.14,12c24.31,5.95,38.07,11.85,38.64,12.1l.14.07C442.44,475.69,460.15,484,471.27,490Z"/><path class="cls-1" d="M162.81,246.31c-7.54,0-13.88-2.31-18.35-6.77-19.93-19.94,7.84-55.16,9-56.65a5,5,0,0,1,7.81,6.24h0a87.66,87.66,0,0,0-10.46,17.64c-5,11.62-4.74,20.26.7,25.69,5,5,13.66,4,18.38,3,19-4.08,44.18-22.88,53.4-47.26a5,5,0,0,1,9.36,3.54c-10.83,28.6-39.33,48.91-60.66,53.5A44.15,44.15,0,0,1,162.81,246.31Z"/><path class="cls-1" d="M227.05,243.16c-17.24,0-32.18-10.54-33-11.1a5,5,0,0,1,5.82-8.13c.24.17,20,14,37.06,7.48,11.4-4.37,19.53-17,24.15-37.51a5,5,0,1,1,9.76,2.2c-5.42,24-15.64,39.05-30.4,44.67A37.52,37.52,0,0,1,227.05,243.16Z"/><path class="cls-1" d="M278,253c-29.42,0-31-24.5-31-24.75a5,5,0,0,1,10-.54c.11,1.6,1.63,15.29,21,15.29a21.23,21.23,0,0,0,15.83-6.58c6.42-6.61,8.6-16.15,8.46-20.61a5,5,0,0,1,4.85-5.14h.15a5,5,0,0,1,5,4.85c.23,7.59-3.21,19.55-11.28,27.87A31.33,31.33,0,0,1,278,253Z"/><path class="cls-1" d="M305.88,293c-6.51,0-10.49-2.76-12.71-5.17-6.8-7.37-5.33-19.53-5.14-20.89a5,5,0,0,1,9.9,1.37c-.3,2.26-.47,9.45,2.6,12.75.5.53,2,2.15,6.18,1.92,13.29-.78,18.52-18.74,18.57-18.92a5,5,0,0,1,9.62,2.72c-.28,1-7.29,25-27.61,26.18C306.81,293,306.34,293,305.88,293Z"/><path class="cls-1" d="M392,148a4.92,4.92,0,0,1-1-.1c-45.58-9.32-61.58-34.2-62.24-35.25A5,5,0,0,1,328,110c0-22.28,11.66-47.7,33.26-50.94,24.34-3.65,29.57,18.63,29.62,18.86a5,5,0,0,1-9.75,2.2,17.73,17.73,0,0,0-3.66-6.76c-3.44-3.88-8.39-5.37-14.73-4.42-16.5,2.48-24.22,24-24.71,39.49,3.51,4.57,19.17,22.35,55,29.67a5,5,0,0,1-1,9.9Z"/><path class="cls-1" d="M365.81,214.22a19.54,19.54,0,0,1-9.23-2.27c-5.55-2.95-8.79-8.22-9.12-14.83-.36-7.1,2.81-15.64,6.77-18.28a5,5,0,0,1,5.82,8.12,17.08,17.08,0,0,0-2.47,11,6.77,6.77,0,0,0,3.69,5.2c3,1.6,6.67,1.47,10.28-.36,7.74-3.9,13.53-14.18,15.5-27.49a5,5,0,0,1,9.9,1.46c-3.53,23.81-15.78,32.38-20.89,35A22.71,22.71,0,0,1,365.81,214.22Zm-6-27.06h0Z"/><path class="cls-1" d="M330.09,421.41H330a5,5,0,0,1-4.92-5.08c0-1.79,1.12-44.27,36.76-74.95,30.29-26.08,75.64-35.27,134.82-27.34a5,5,0,0,1-1.34,9.92c-56.21-7.54-98.92.87-126.95,25-32.28,27.79-33.28,67.15-33.29,67.54A5,5,0,0,1,330.09,421.41Z"/><path class="cls-1" d="M371.86,386.86a5.12,5.12,0,0,1-.78-.06,5,5,0,0,1-4.17-5.72c1.58-10,11.18-30,36.22-33.89s39.71,12.46,43.89,21.65a5,5,0,0,1-9.09,4.16c-.38-.81-9.48-19.62-33.27-15.93-24.16,3.74-27.83,25.35-27.87,25.56A5,5,0,0,1,371.86,386.86Z"/><path class="cls-1" d="M404.65,406c-20.59,0-33.21-13.81-37.27-21.94a5,5,0,1,1,8.95-4.47c.4.79,10.34,19.64,34.3,15.93s26.85-25,26.87-25.23a5,5,0,0,1,9.93,1.19c-1.2,10-10.12,30-35.27,33.92A48.41,48.41,0,0,1,404.65,406Z"/><path class="cls-1" d="M440.79,320.94h-.32a5,5,0,0,1,.07-10h.06c1.09,0,21.8-.32,28.57-23.31,6.85-23.25-10.53-35.6-11.28-36.12a5,5,0,0,1,5.64-8.26c8.4,5.7,22.39,22.9,15.23,47.21S451,320.94,440.79,320.94Z"/><path class="cls-1" d="M440.53,320.94a4.93,4.93,0,0,1-2.64-.77c-8.57-5.36-22.86-21.94-15.67-46.36s28.24-31.18,38.38-31.42h.12a5,5,0,0,1,.12,10c-.88,0-22.18,1-29,24.24s11.2,34.95,11.38,35.07a5,5,0,0,1-2.66,9.24Z"/><path class="cls-1" d="M139.87,99a5,5,0,0,1-4.6-3c-4-9.32-6.58-31.34,12.52-48,12.48-10.88,25-11.73,33.34-10.53a40.61,40.61,0,0,1,15.33,5.4A5,5,0,0,1,191,51.24c-.79-.5-18.5-11.51-36.63,4.3-18.43,16.07-10,36.3-9.9,36.5a5,5,0,0,1-4.59,7Z"/><path class="cls-1" d="M157.79,103.58a41.26,41.26,0,0,1-20.51-5.28,5,5,0,0,1,5.17-8.56c.76.45,19.24,11.08,37.51-4.85s9.61-34.91,9.23-35.71a5,5,0,0,1,9-4.28c4.34,9.12,7.49,30.8-11.7,47.53C176.91,100.82,166.68,103.58,157.79,103.58Z"/><path class="cls-1" d="M84.06,143.48a5,5,0,0,1-4.89-4c-.2-.92-4.72-21.28-28.7-23.17-24.37-1.93-32.93,18.24-33,18.45A5,5,0,0,1,8.2,131c3.85-9.4,17.8-26.63,43.06-24.63S87,127.6,89,137.51A5,5,0,0,1,85,143.38,5.32,5.32,0,0,1,84.06,143.48Z"/><path class="cls-1" d="M50.6,165.24c-1.3,0-2.62-.05-4-.16C21.35,163.08,10.29,143.87,8,134a5,5,0,0,1,9.74-2.29c.21.85,5.54,21.5,29.7,23.41s31.9-18.16,32-18.36a5,5,0,0,1,9.39,3.45C85.47,149.17,73.39,165.24,50.6,165.24Z"/><path class="cls-1" d="M334.63,397.19a5,5,0,0,1-3.08-8.94C345.34,377.54,370.84,377,371.92,377H372a5,5,0,0,1,.08,10h0c-.23,0-23.25.49-34.39,9.14A5,5,0,0,1,334.63,397.19Z"/><path class="cls-1" d="M366.4,349.07a5,5,0,0,1-2.81-.87,5,5,0,0,1-1.31-6.95c16.55-24.21,5.61-50.16,5.14-51.25a5,5,0,0,1,9.16-4c.57,1.29,13.7,32-6,60.9A5,5,0,0,1,366.4,349.07Z"/><path class="cls-1" d="M145,170a5,5,0,0,1-4.89-4C124.74,89.21,66.27,57.74,65.68,57.43a5,5,0,0,1,4.64-8.86c.66.34,16.18,8.59,33.79,27A177.71,177.71,0,0,1,149.9,164,5,5,0,0,1,146,169.9,4.75,4.75,0,0,1,145,170Z"/><path class="cls-1" d="M124.91,116.46a5,5,0,0,1-2.56-.71,5,5,0,0,1-1.73-6.86C124.75,102,133.94,92,134.33,91.6a5,5,0,0,1,7.34,6.8c-.09.09-8.87,9.6-12.47,15.62A5,5,0,0,1,124.91,116.46Z"/><path class="cls-1" d="M143.4,162.75a5,5,0,0,1-3.65-1.59c-.29-.29-16.07-16.24-55.87-17.16a5,5,0,1,1,.24-10c44.6,1,62.22,19.56,62.95,20.35a5,5,0,0,1-3.67,8.4Z"/></svg>