<?xml version="1.0" ?><svg viewBox="0 0 512 512" xmlns="http://www.w3.org/2000/svg"><defs><style>.cls-1{fill:#3f456b;}</style></defs><title/><g id="Lines"><path class="cls-1" d="M56.51,208.94A27.57,27.57,0,0,1,36,199.47a35.89,35.89,0,0,1-.93-46,27.7,27.7,0,0,1,20.77-10.38l39-.39,197.08-1h0a5,5,0,0,1,0,10l-197.06,1L56,153.08a17.82,17.82,0,0,0-13.25,6.78,25.9,25.9,0,0,0,.67,32.9,17.64,17.64,0,0,0,13.53,6.18l39.12-.4,152.41-1.06h0a5,5,0,0,1,0,10L96.14,208.54l-39,.4Z"/><path class="cls-1" d="M146.35,266.89a27.54,27.54,0,0,1-20.55-9.47A35.05,35.05,0,0,1,117,234.6c-.34-15.56,9.89-34.41,39.87-36.32a5,5,0,1,1,.63,10c-15,1-30.89,8.32-30.5,26.12a25,25,0,0,0,6.22,16.33,17.6,17.6,0,0,0,13.54,6.18l21.45-.31,89-2a17.83,17.83,0,0,0,13.31-6.78,24.92,24.92,0,0,0,5.56-16.58c-.14-6.57-2.07-12.56-5.44-16.86a15,15,0,0,0-12.3-6.18,3.2,3.2,0,0,1-.44,0l-10.12-.67a5,5,0,1,1,.67-10l9.91.66h.32a24.87,24.87,0,0,1,19.83,10c4.69,6,7.38,14.1,7.57,22.82a34.88,34.88,0,0,1-7.88,23.19,27.7,27.7,0,0,1-20.77,10.38l-89,2-21.46.31Z"/><path class="cls-1" d="M146.62,322.32a27.6,27.6,0,0,1-20.56-9.47A35,35,0,0,1,117.25,290a32.78,32.78,0,0,1,31.1-33,5,5,0,0,1,.22,10,21.85,21.85,0,0,0-14.81,6.79,22.08,22.08,0,0,0-6.51,16,25,25,0,0,0,6.22,16.33A17.67,17.67,0,0,0,147,312.32l22.7-.4,75.6-1.25a17.82,17.82,0,0,0,13.28-6.78,25.9,25.9,0,0,0-.67-32.9,17.69,17.69,0,0,0-13.53-6.18h-.11a5,5,0,0,1-.11-10,27.59,27.59,0,0,1,21.17,9.47,35.89,35.89,0,0,1,.93,46,27.7,27.7,0,0,1-20.77,10.38l-75.62,1.25-22.68.39Z"/><path class="cls-1" d="M158,378.57a27.58,27.58,0,0,1-20.55-9.47,35.92,35.92,0,0,1-.94-46,27.69,27.69,0,0,1,20.77-10.37h.11a5,5,0,0,1,.11,10,17.81,17.81,0,0,0-13.31,6.78,25.9,25.9,0,0,0,.67,32.9,17.63,17.63,0,0,0,13.54,6.18l18.9-.32,61.65-1a17.83,17.83,0,0,0,13.27-6.78,25.92,25.92,0,0,0-.66-32.9A17.63,17.63,0,0,0,238,321.41a5,5,0,1,1-.22-10A27.66,27.66,0,0,1,259,320.88a35.9,35.9,0,0,1,.93,46,27.72,27.72,0,0,1-20.76,10.37l-61.68,1-18.87.31Z"/><path class="cls-1" d="M409.63,166a5,5,0,0,1-4.71-3.33c-9.22-26-35.39-61.7-107.67-84.52A59.55,59.55,0,0,0,275,76c-3.52.7-54,10.79-71.58,17.3a4.36,4.36,0,0,1-.59.17c-.06,0-8.3,2.12-11.7,8.49-2,3.76-2,8.54,0,14.2,5.35,14.84,29.49,16,80.73,3.86a5,5,0,0,1,4.76,1.39L304,149.82a5,5,0,0,1-7.21,6.93l-25.37-26.36c-25,5.81-42.26,8.25-55.61,7.87-18.3-.5-29.76-6.8-34.06-18.71-3.06-8.49-2.86-16,.6-22.41,5.13-9.48,15.73-12.76,17.82-13.32,19.05-7,70.87-17.24,73.08-17.68l.32,0a68.75,68.75,0,0,1,26.72,2.53c25.9,8.17,48.29,18.84,66.55,31.71,22.36,15.74,37.91,34.46,46.28,55.67H448a5,5,0,0,1,0,10Z"/><path class="cls-1" d="M338.39,378.14c-2,0-3.43-.09-4-.13l-95.86-.77a5,5,0,0,1,0-10h0l96.05.77.43,0c1.92.18,47.62,3.76,57.27-41.2a5,5,0,0,1,4.89-3.95h0l50,.18a5,5,0,0,1,0,10h0l-46-.17c-6.83,25.27-24,36.25-37.61,41A77.58,77.58,0,0,1,338.39,378.14Z"/><path class="cls-1" d="M382.29,269.93l-.42,0c-26.12-2.15-46.9-12.14-61.74-29.7-28.9-34.21-24.93-84.61-24.75-86.73a5,5,0,1,1,10,.85c0,.69-3.7,48.54,22.47,79.47,13.06,15.43,31.52,24.23,54.88,26.14a5,5,0,0,1-.4,10Z"/><path class="cls-1" d="M494.49,351.65h0L448,351.54a5,5,0,0,1-3.53-1.47,5,5,0,0,1-1.46-3.55L443.64,143a5,5,0,0,1,5-5h0l46.53.11a5,5,0,0,1,5,5l-.68,203.58A5,5,0,0,1,494.49,351.65ZM453,341.55l36.53.09.64-193.57L453.62,148Z"/><path class="cls-1" d="M53.43,484.2h-.19l-1.86-.07a46.65,46.65,0,0,1-26.34-8A37,37,0,0,1,9.52,452.54c-4-20.35,7.61-36.19,17.85-50.15a150.52,150.52,0,0,0,10.51-15.61,102.09,102.09,0,0,0,9.07-22A5,5,0,0,1,51.79,361h1.46a5,5,0,0,1,4.84,3.75,102.6,102.6,0,0,0,9.07,22,152.49,152.49,0,0,0,10.48,15.58c10.26,14,21.89,29.95,17.89,50.32C91.87,471.24,74.56,484.2,53.43,484.2Zm-.91-104.9a118.27,118.27,0,0,1-5.89,12.32A159.71,159.71,0,0,1,35.44,408.3c-9.91,13.5-19.26,26.26-16.11,42.31,2.31,11.7,13.14,23.52,32.15,23.52h.18l1.86.07c19.06,0,29.9-11.79,32.19-23.45,3.17-16.07-6.21-28.9-16.15-42.49a161.47,161.47,0,0,1-11.15-16.64A122.47,122.47,0,0,1,52.52,379.3Z"/><path class="cls-1" d="M53.43,345.2h-.19l-1.86-.07a46.65,46.65,0,0,1-26.34-8A37,37,0,0,1,9.52,313.54c-4-20.35,7.61-36.19,17.85-50.15a150.52,150.52,0,0,0,10.51-15.61,102.09,102.09,0,0,0,9.07-22A5,5,0,0,1,51.79,222h1.46a5,5,0,0,1,4.84,3.75,102.6,102.6,0,0,0,9.07,22,152.49,152.49,0,0,0,10.48,15.58c10.26,14,21.89,29.95,17.89,50.32C91.87,332.24,74.56,345.2,53.43,345.2Zm-.91-104.9a118.27,118.27,0,0,1-5.89,12.32A159.71,159.71,0,0,1,35.44,269.3c-9.91,13.5-19.26,26.26-16.11,42.31,2.31,11.7,13.14,23.52,32.15,23.52h.18l1.86.07c19.06,0,29.9-11.79,32.19-23.45,3.17-16.07-6.21-28.9-16.15-42.49a161.47,161.47,0,0,1-11.15-16.64A122.47,122.47,0,0,1,52.52,240.3Z"/><path class="cls-1" d="M70.59,207.1a5,5,0,0,1-5-5V148.27a5,5,0,0,1,10,0V202.1A5,5,0,0,1,70.59,207.1Z"/><path class="cls-1" d="M144.3,207.1a5,5,0,0,1-5-5V148.27a5,5,0,0,1,10,0V202.1A5,5,0,0,1,144.3,207.1Z"/><path class="cls-1" d="M100.43,208.49a5.15,5.15,0,0,1-1.22-.15,5,5,0,0,1-3.63-6.07l14-55.91a5,5,0,1,1,9.69,2.43l-14,55.92A5,5,0,0,1,100.43,208.49Z"/></g><g id="Outline"><path class="cls-1" d="M97.12,52.88a5,5,0,0,1-5-5V31a5,5,0,0,1,10,0V47.88A5,5,0,0,1,97.12,52.88Z"/><path class="cls-1" d="M33.75,116.25H16.87a5,5,0,0,1,0-10H33.75a5,5,0,0,1,0,10Z"/><path class="cls-1" d="M65.44,61.37a5,5,0,0,1-4.34-2.5L52.67,44.25a5,5,0,1,1,8.66-5l8.43,14.62a5,5,0,0,1-4.32,7.5Z"/><path class="cls-1" d="M152,84.56a5,5,0,0,1-2.51-9.33l14.62-8.44a5,5,0,0,1,5,8.67L154.5,83.89A4.88,4.88,0,0,1,152,84.56Z"/><path class="cls-1" d="M42.23,84.56a4.88,4.88,0,0,1-2.49-.67L25.12,75.46a5,5,0,0,1,5-8.67l14.62,8.44a5,5,0,0,1-2.51,9.33Z"/><path class="cls-1" d="M128.8,61.37a5,5,0,0,1-4.32-7.5l8.44-14.62a5,5,0,1,1,8.66,5l-8.44,14.62A5,5,0,0,1,128.8,61.37Z"/></g></svg>