<?xml version="1.0" ?><svg id="Lines" viewBox="0 0 512 512" xmlns="http://www.w3.org/2000/svg"><defs><style>.cls-1{fill:#3f456b;}</style></defs><title/><path class="cls-1" d="M465,500H48a5,5,0,0,1-5-5V171a5,5,0,0,1,5-5H192a5,5,0,0,1,0,10H53V490H460V176H320a5,5,0,0,1,0-10H465a5,5,0,0,1,5,5V495A5,5,0,0,1,465,500Z"/><path class="cls-1" d="M256,325a5,5,0,0,1-5-5V15a5,5,0,0,1,10,0V320A5,5,0,0,1,256,325Z"/><path class="cls-1" d="M256.5,325a5,5,0,0,1-3.54-1.46l-79.9-79.91a5,5,0,0,1,7.07-7.07l76.37,76.37,76.37-76.37a5,5,0,0,1,7.07,7.07L260,323.53A5,5,0,0,1,256.5,325Z"/></svg>