<?xml version="1.0" ?><svg viewBox="0 0 512 512" xmlns="http://www.w3.org/2000/svg"><defs><style>.cls-1{fill:#3f456b;}</style></defs><title/><g id="Lines"><path class="cls-1" d="M399.5,358.5a5,5,0,0,1-5-5v-1a5,5,0,0,1,10,0v1A5,5,0,0,1,399.5,358.5Z"/><path class="cls-1" d="M468,501H48c-18.65,0-35-17.76-35-38V237a35,35,0,0,1,35-35H468a35,35,0,0,1,35,35V466A35,35,0,0,1,468,501ZM48,212a25,25,0,0,0-25,25V463c0,13.22,10.69,28,25,28H468a25,25,0,0,0,25-25V237a25,25,0,0,0-25-25Z"/><path class="cls-1" d="M399,441.79a55.59,55.59,0,1,1,55.59-55.59A55.65,55.65,0,0,1,399,441.79Zm0-101.18a45.59,45.59,0,1,0,45.59,45.59A45.64,45.64,0,0,0,399,340.61Z"/><path class="cls-1" d="M160,212a5,5,0,0,1-5-5V186.59a2.39,2.39,0,0,0-2.15-2.59h-47.7a2.39,2.39,0,0,0-2.15,2.59V207a5,5,0,0,1-10,0V186.59A12.39,12.39,0,0,1,105.15,174h47.7A12.39,12.39,0,0,1,165,186.59V207A5,5,0,0,1,160,212Z"/><path class="cls-1" d="M130.4,183.91a5,5,0,0,1-3.46-8.61L297.17,12.88a5,5,0,0,1,6.91,7.24L133.85,182.53A5,5,0,0,1,130.4,183.91Z"/><path class="cls-1" d="M456,293H60a15,15,0,0,1-15-15V250a15,15,0,0,1,15-15H456a15,15,0,0,1,15,15v28A15,15,0,0,1,456,293ZM60,245a5,5,0,0,0-5,5v28a5,5,0,0,0,5,5H456a5,5,0,0,0,5-5V250a5,5,0,0,0-5-5Z"/><path class="cls-1" d="M292,364a5,5,0,0,1-5-5v-1a5,5,0,0,1,10,0v1A5,5,0,0,1,292,364Z"/><path class="cls-1" d="M292,394a5,5,0,0,1-5-5v-1a5,5,0,0,1,10,0v1A5,5,0,0,1,292,394Z"/><path class="cls-1" d="M292,423a5,5,0,0,1-5-5v-1a5,5,0,0,1,10,0v1A5,5,0,0,1,292,423Z"/></g><g id="Outline"><path class="cls-1" d="M298.6,75.4h-1a58.94,58.94,0,0,1-57.92-59.81,5,5,0,1,1,10,.16,48.87,48.87,0,1,0,97.73,1.56,5,5,0,1,1,10,.16A59,59,0,0,1,298.6,75.4Z"/><path class="cls-1" d="M297.65,108.76l-1.5,0A90.77,90.77,0,0,1,232,81a90.76,90.76,0,0,1-25.71-65,5,5,0,1,1,10,.16A80.77,80.77,0,0,0,239.19,74a81.33,81.33,0,0,0,115,1.83,80.78,80.78,0,0,0,24.74-57.12,5,5,0,1,1,10,.16A90.78,90.78,0,0,1,361.15,83,90.72,90.72,0,0,1,297.65,108.76Z"/><path class="cls-1" d="M297.64,141.26l-2,0a123,123,0,0,1-87-37.66,123,123,0,0,1-34.87-88.13,5,5,0,0,1,10,.15,113.08,113.08,0,0,0,32.05,81,113.08,113.08,0,0,0,80,34.62,114,114,0,0,0,115.64-112,5,5,0,1,1,10,.16A124,124,0,0,1,297.64,141.26Z"/><path class="cls-1" d="M337,293a5,5,0,0,1-5-5V240a5,5,0,0,1,10,0v48A5,5,0,0,1,337,293Z"/><path class="cls-1" d="M133,293a5,5,0,0,1-5-5V274a5,5,0,0,1,10,0v14A5,5,0,0,1,133,293Z"/><path class="cls-1" d="M218,293a5,5,0,0,1-5-5V274a5,5,0,0,1,10,0v14A5,5,0,0,1,218,293Z"/><path class="cls-1" d="M300,293a5,5,0,0,1-5-5V274a5,5,0,0,1,10,0v14A5,5,0,0,1,300,293Z"/><path class="cls-1" d="M384,293a5,5,0,0,1-5-5V274a5,5,0,0,1,10,0v14A5,5,0,0,1,384,293Z"/><path class="cls-1" d="M399,466.54a78.34,78.34,0,1,1,78.33-78.34,5,5,0,0,1-10,0A68.33,68.33,0,1,0,399,456.54a5,5,0,0,1,0,10Z"/><path class="cls-1" d="M251,361.37h-.78a5,5,0,0,1,0-10H251a5,5,0,0,1,0,10Z"/><path class="cls-1" d="M251,391h-.78a5,5,0,0,1,0-10H251a5,5,0,0,1,0,10Z"/><path class="cls-1" d="M251,420.63h-.78a5,5,0,0,1,0-10H251a5,5,0,0,1,0,10Z"/><path class="cls-1" d="M251,450.25h-.78a5,5,0,0,1,0-10H251a5,5,0,0,1,0,10Z"/><path class="cls-1" d="M251,331.75h-.78a5,5,0,0,1,0-10H251a5,5,0,0,1,0,10Z"/><path class="cls-1" d="M226.82,361.37H226a5,5,0,1,1,0-10h.78a5,5,0,1,1,0,10Z"/><path class="cls-1" d="M226.82,391H226a5,5,0,1,1,0-10h.78a5,5,0,0,1,0,10Z"/><path class="cls-1" d="M226.82,420.63H226a5,5,0,1,1,0-10h.78a5,5,0,1,1,0,10Z"/><path class="cls-1" d="M226.82,450.25H226a5,5,0,1,1,0-10h.78a5,5,0,0,1,0,10Z"/><path class="cls-1" d="M226.82,331.75H226a5,5,0,1,1,0-10h.78a5,5,0,0,1,0,10Z"/><path class="cls-1" d="M202.64,361.37h-.78a5,5,0,0,1,0-10h.78a5,5,0,0,1,0,10Z"/><path class="cls-1" d="M202.64,391h-.78a5,5,0,0,1,0-10h.78a5,5,0,0,1,0,10Z"/><path class="cls-1" d="M202.64,420.63h-.78a5,5,0,0,1,0-10h.78a5,5,0,0,1,0,10Z"/><path class="cls-1" d="M202.64,450.25h-.78a5,5,0,0,1,0-10h.78a5,5,0,0,1,0,10Z"/><path class="cls-1" d="M202.64,331.75h-.78a5,5,0,0,1,0-10h.78a5,5,0,0,1,0,10Z"/><path class="cls-1" d="M178.46,361.37h-.78a5,5,0,1,1,0-10h.78a5,5,0,1,1,0,10Z"/><path class="cls-1" d="M178.46,391h-.78a5,5,0,0,1,0-10h.78a5,5,0,1,1,0,10Z"/><path class="cls-1" d="M178.46,420.63h-.78a5,5,0,1,1,0-10h.78a5,5,0,1,1,0,10Z"/><path class="cls-1" d="M178.46,450.25h-.78a5,5,0,0,1,0-10h.78a5,5,0,1,1,0,10Z"/><path class="cls-1" d="M178.46,331.75h-.78a5,5,0,0,1,0-10h.78a5,5,0,1,1,0,10Z"/><path class="cls-1" d="M154.28,361.37h-.78a5,5,0,0,1,0-10h.78a5,5,0,0,1,0,10Z"/><path class="cls-1" d="M154.28,391h-.78a5,5,0,0,1,0-10h.78a5,5,0,0,1,0,10Z"/><path class="cls-1" d="M154.28,420.63h-.78a5,5,0,0,1,0-10h.78a5,5,0,0,1,0,10Z"/><path class="cls-1" d="M154.28,450.25h-.78a5,5,0,0,1,0-10h.78a5,5,0,0,1,0,10Z"/><path class="cls-1" d="M154.28,331.75h-.78a5,5,0,0,1,0-10h.78a5,5,0,0,1,0,10Z"/><path class="cls-1" d="M130.1,361.37h-.78a5,5,0,0,1,0-10h.78a5,5,0,1,1,0,10Z"/><path class="cls-1" d="M130.1,391h-.78a5,5,0,1,1,0-10h.78a5,5,0,1,1,0,10Z"/><path class="cls-1" d="M130.1,420.63h-.78a5,5,0,0,1,0-10h.78a5,5,0,1,1,0,10Z"/><path class="cls-1" d="M130.1,450.25h-.78a5,5,0,1,1,0-10h.78a5,5,0,1,1,0,10Z"/><path class="cls-1" d="M130.1,331.75h-.78a5,5,0,0,1,0-10h.78a5,5,0,1,1,0,10Z"/><path class="cls-1" d="M105.92,361.37h-.78a5,5,0,1,1,0-10h.78a5,5,0,1,1,0,10Z"/><path class="cls-1" d="M105.92,391h-.78a5,5,0,1,1,0-10h.78a5,5,0,1,1,0,10Z"/><path class="cls-1" d="M105.92,420.63h-.78a5,5,0,1,1,0-10h.78a5,5,0,0,1,0,10Z"/><path class="cls-1" d="M105.92,450.25h-.78a5,5,0,1,1,0-10h.78a5,5,0,0,1,0,10Z"/><path class="cls-1" d="M105.92,331.75h-.78a5,5,0,1,1,0-10h.78a5,5,0,1,1,0,10Z"/><path class="cls-1" d="M81.74,361.37H81a5,5,0,1,1,0-10h.78a5,5,0,1,1,0,10Z"/><path class="cls-1" d="M81.74,391H81a5,5,0,1,1,0-10h.78a5,5,0,1,1,0,10Z"/><path class="cls-1" d="M81.74,420.63H81a5,5,0,1,1,0-10h.78a5,5,0,1,1,0,10Z"/><path class="cls-1" d="M81.74,450.25H81a5,5,0,0,1,0-10h.78a5,5,0,1,1,0,10Z"/><path class="cls-1" d="M81.74,331.75H81a5,5,0,1,1,0-10h.78a5,5,0,1,1,0,10Z"/><path class="cls-1" d="M57.56,361.37h-.78a5,5,0,1,1,0-10h.78a5,5,0,0,1,0,10Z"/><path class="cls-1" d="M57.56,391h-.78a5,5,0,1,1,0-10h.78a5,5,0,0,1,0,10Z"/><path class="cls-1" d="M57.56,420.63h-.78a5,5,0,1,1,0-10h.78a5,5,0,0,1,0,10Z"/><path class="cls-1" d="M57.56,450.25h-.78a5,5,0,1,1,0-10h.78a5,5,0,0,1,0,10Z"/><path class="cls-1" d="M57.56,331.75h-.78a5,5,0,1,1,0-10h.78a5,5,0,0,1,0,10Z"/></g></svg>