<?xml version="1.0" ?><svg id="Lines" viewBox="0 0 512 512" xmlns="http://www.w3.org/2000/svg"><defs><style>.cls-1{fill:#3f456b;}</style></defs><title/><path class="cls-1" d="M74,193.77a5,5,0,0,1-3.44-1.38L13.29,138A5,5,0,0,1,13.1,131l54.37-57.3a5,5,0,0,1,7.25,6.88L23.79,134.21l53.68,50.93A5,5,0,0,1,74,193.77Z"/><path class="cls-1" d="M344.11,438H173a5,5,0,0,1,0-10H344.11c79.4,0,144-64.82,144-144.5S423.51,139,344.11,139H24a5,5,0,0,1,0-10H344.11c84.92,0,154,69.31,154,154.5S429,438,344.11,438Z"/></svg>