<?xml version="1.0" ?><svg viewBox="0 0 512 512" xmlns="http://www.w3.org/2000/svg"><defs><style>.cls-1{fill:#3f456b;}</style></defs><title/><g id="Lines"><path class="cls-1" d="M466.5,500.87H46.5a35,35,0,0,1-35-35v-340a35,35,0,0,1,35-35h97.33a5,5,0,0,1,0,10H46.5a25,25,0,0,0-25,25v340a25,25,0,0,0,25,25h420a25,25,0,0,0,25-25v-340a25,25,0,0,0-25-25H369.38a5,5,0,0,1,0-10H466.5a35,35,0,0,1,35,35v340A35,35,0,0,1,466.5,500.87Z"/><path class="cls-1" d="M353.62,133H159.83a18.92,18.92,0,0,1-14.21-5.74c-6.54-6.93-6.36-17.42-6.28-19.25V91.78c0-21.8,17.6-38.88,40.06-38.88h29.14a47.65,47.65,0,0,1,94.77,0h30.31c22.46,0,40.05,17.08,40.05,38.88v16.36c0,8.49-2.33,15-6.92,19.47A19.55,19.55,0,0,1,353.62,133ZM179.4,62.9c-16.86,0-30.06,12.68-30.06,28.88v16.65c-.11,2.16.31,8.56,3.58,12,1.64,1.73,3.9,2.57,6.91,2.57H353.68a9.56,9.56,0,0,0,6.23-2.69c2.5-2.48,3.76-6.57,3.76-12.17V91.78c0-16.2-13.2-28.88-30.05-28.88H298.57a5,5,0,0,1-5-5,37.65,37.65,0,1,0-75.29,0,5,5,0,0,1-5,5Zm124.17-5h0Z"/><path class="cls-1" d="M255.74,80.55A23.68,23.68,0,0,1,233,63.23h0a23.65,23.65,0,1,1,29.12,16.45A24,24,0,0,1,255.74,80.55Zm0-37.32a13.66,13.66,0,0,0-13.15,17.31h0a13.65,13.65,0,0,0,26.3-7.32A13.68,13.68,0,0,0,255.78,43.23Z"/><path class="cls-1" d="M185.24,96.78h-1.17a5,5,0,0,1,0-10h1.17a5,5,0,0,1,0,10Z"/><path class="cls-1" d="M326.61,96.78h-1.17a5,5,0,0,1,0-10h1.17a5,5,0,0,1,0,10Z"/><path class="cls-1" d="M159.18,392.51a5.18,5.18,0,0,1-2-.39c-49.62-21-93.76-57.61-127.65-105.88a5,5,0,0,1,.57-6.43l139-137.36a5,5,0,0,1,7.6.68c19.9,28.35,49,44.6,79.83,44.6s60.14-16.37,80.05-44.91a5,5,0,0,1,7.61-.7l139,136.82a5,5,0,0,1,.6,6.43C460.34,319,432.25,346.74,400.27,368a5,5,0,0,1-5.53-8.33c29.83-19.81,56.19-45.55,78.39-76.56L341.32,153.31c-21.67,28.31-52.27,44.42-84.77,44.42s-62.86-16-84.52-44.1L40.21,283.94c32.47,45,74.2,79.2,120.92,99a5,5,0,0,1-1.95,9.6Z"/><path class="cls-1" d="M258.52,482a162,162,0,0,1-30.72-2.94,5,5,0,0,1,1.9-9.82c41.69,8.06,84.72-1.77,109.62-25,15.92-14.88,22.92-34.07,20.26-55.5a5.3,5.3,0,0,1,0-.8c0-.27.59-29.13-25-50.79a5,5,0,0,1,6.46-7.64c28,23.66,28.6,54.19,28.55,58.36,2.95,24.59-5.14,46.6-23.4,63.67C325.2,471.1,292.78,482,258.52,482Z"/><path class="cls-1" d="M228.76,479.16a5.2,5.2,0,0,1-1-.09c-30-5.81-52.19-24.06-64.06-52.77a119.31,119.31,0,0,1-8.84-41.39c-.63-6-4.06-11-6.84-14.11-1.61-1.82-3.28-3.62-4.89-5.36-5.92-6.38-12-13-16.44-21.63a76.37,76.37,0,0,1-8.51-35,79.24,79.24,0,1,1,140.06,50.77,5,5,0,1,1-7.67-6.41,69.24,69.24,0,1,0-122.39-44.36,66.57,66.57,0,0,0,7.42,30.48c3.77,7.41,9.16,13.22,14.86,19.38,1.65,1.77,3.36,3.62,5.05,5.52,3.8,4.28,8.5,11.24,9.33,20,0,.16,0,.32,0,.49a110.5,110.5,0,0,0,8.21,38.1c10.7,25.64,29.74,41.28,56.59,46.47a5,5,0,0,1-.94,9.91Z"/><path class="cls-1" d="M377.41,403.44a53.74,53.74,0,0,1-13.53-1.71,5,5,0,0,1,2.52-9.68c20,5.21,39.85-5.15,47.55-14.18,3.16-3.69,4-6.7,3.39-8a5.28,5.28,0,0,0-3.08-3c-4.57-1.78-12.27.75-14.61,1.77a5,5,0,0,1-6.53-2.41c-4.37-9.13-34.83-60.68-64.62-69.33-7.6-2.2-14.33-1.37-20.59,2.55-33.83,21.21,1.27,80.46,1.63,81.06A5,5,0,0,1,301,385.6a149.37,149.37,0,0,1-15-36.25c-6.87-27.11-1.13-47.32,16.61-58.44,8.69-5.44,18.33-6.68,28.68-3.68,30.7,8.9,59.52,53.49,68.79,70.58,4.54-1.36,11.69-2.71,17.79-.34a15.33,15.33,0,0,1,8.64,8.35c2.38,5.44.62,12-4.94,18.54C412.76,394.67,395.61,403.44,377.41,403.44Z"/><path class="cls-1" d="M233.58,369.57a5,5,0,0,1-2.67-9.22c1-.62,24.68-15.18,62.9-9.52a5,5,0,0,1-1.47,9.89c-34.36-5.08-55.91,8-56.12,8.1A5,5,0,0,1,233.58,369.57Z"/><path class="cls-1" d="M274.64,394.6a5,5,0,0,1-3.46-8.62c7.85-7.51,27.33-13.06,29.52-13.67a5,5,0,1,1,2.68,9.63c-5.3,1.48-20.16,6.37-25.29,11.27A5,5,0,0,1,274.64,394.6Z"/><path class="cls-1" d="M314.86,296.23a5,5,0,0,1-4.23-7.66c13.52-21.5,1.65-35.78-13.19-48-22.8-18.79-19.78-50.77-19.64-52.12a5,5,0,0,1,9.95,1h0c0,.28-2.56,28,16.05,43.38,24.13,19.87,29,39.27,15.29,61A5,5,0,0,1,314.86,296.23Z"/></g><g id="Outline"><path class="cls-1" d="M129.33,420H49a5,5,0,0,1,0-10h80.33a5,5,0,1,1,0,10Z"/><path class="cls-1" d="M129.33,444.25H49a5,5,0,0,1,0-10h80.33a5,5,0,1,1,0,10Z"/><path class="cls-1" d="M89.17,468.5H49a5,5,0,0,1,0-10H89.17a5,5,0,0,1,0,10Z"/></g></svg>