<?xml version="1.0" ?><svg enable-background="new 0 0 512 512" version="1.1" viewBox="0 0 512 512" xml:space="preserve" xmlns="http://www.w3.org/2000/svg" xmlns:xlink="http://www.w3.org/1999/xlink"><g id="Colors"><g><g><g><path d="M331.043,152.39c-2.359,0-4.459-1.678-4.909-4.082c-0.508-2.714,1.281-5.326,3.995-5.834      c16.778-3.139,30.271-9.527,39.019-18.473c11.286-11.541,9.185-28.266,1.276-38.823c-10.508-14.026-31.486-9.452-43.026-1.724      c-12.002,8.037-21.1,21.238-27.042,39.238c-0.532,1.815-4.148,18.093-3.972,23.653c0.088,2.76-2.078,5.069-4.838,5.157      c-2.8,0.094-5.068-2.079-5.156-4.838c-0.237-7.438,4.06-25.86,4.469-27.104c6.658-20.167,17.079-35.109,30.975-44.414      c8.312-5.566,18.598-8.855,28.22-9.022c11.999-0.189,21.817,4.307,28.375,13.06c6.364,8.496,9.299,18.24,8.486,28.178      c-0.735,8.99-4.506,17.383-10.616,23.632c-10.193,10.423-25.521,17.792-44.329,21.311      C331.658,152.362,331.349,152.39,331.043,152.39z" fill="#3F456B"/></g><g><path d="M295.997,153.001c-0.678,0-1.367-0.139-2.027-0.432c-2.523-1.121-3.66-4.076-2.539-6.599      c5.94-13.373,29.235-36.539,46.947-43.508c19.096-7.512,25.529-0.007,26.623,1.574c1.573,2.27,1.008,5.385-1.262,6.958      c-2.156,1.493-5.075,1.058-6.709-0.934c-1.01-0.828-5.482-2.034-14.99,1.708c-14.995,5.9-36.422,26.896-41.471,38.262      C299.741,151.894,297.913,153.001,295.997,153.001z M356.788,109.74c0.001,0.001,0.002,0.003,0.004,0.005      C356.79,109.744,356.789,109.742,356.788,109.74z M356.782,109.731c0.001,0.002,0.003,0.005,0.005,0.007      C356.785,109.736,356.783,109.733,356.782,109.731z" fill="#3F456B"/></g></g><g><g><path d="M226.696,152.126c-0.323,0-0.652-0.032-0.981-0.097c-18.148-3.616-32.985-10.89-42.907-21.036      c-6.111-6.25-9.881-14.642-10.616-23.632c-0.812-9.938,2.122-19.683,8.486-28.178c6.558-8.752,16.399-13.254,28.375-13.06      c9.622,0.167,19.907,3.456,28.22,9.023c13.896,9.305,24.316,24.247,30.974,44.412c0.546,1.656,4.418,18.527,4.479,26.236      c0.021,2.761-2.199,5.018-4.96,5.04c-0.014,0-0.027,0-0.041,0c-2.743,0-4.977-2.212-4.999-4.96      c-0.048-6.028-3.491-21.526-3.997-23.25c-5.921-17.931-15.019-31.132-27.021-39.168c-11.539-7.729-32.518-12.304-43.026,1.724      c-7.909,10.556-10.01,27.282,1.276,38.823c8.507,8.7,21.547,15,37.71,18.22c2.709,0.54,4.467,3.172,3.927,5.881      C231.121,150.481,229.033,152.126,226.696,152.126z" fill="#3F456B"/></g><g><path d="M263.003,153.001c-1.916,0-3.744-1.108-4.572-2.972c-5.059-11.387-26.435-32.388-41.365-38.262      c-7.633-3.003-11.726-2.744-13.488-2.322c-0.881,0.211-1.332,0.494-1.485,0.605c-0.231,0.222,0.231-0.32,0.231-0.32      l-8.219-5.695c1.096-1.581,7.527-9.086,26.623-1.574c17.644,6.942,40.892,30.113,46.842,43.508      c1.121,2.523-0.016,5.478-2.539,6.599C264.37,152.862,263.681,153.001,263.003,153.001z" fill="#3F456B"/></g></g><g><g><g><g><path d="M388.737,342.75c4.4,5.793-2.129,12.336-7.934,7.943C376.363,344.89,382.937,338.315,388.737,342.75        C388.737,342.75,388.737,342.75,388.737,342.75z" fill="#3F456B"/></g><g><path d="M341.91,342.754c4.391,5.789-2.127,12.325-7.932,7.944C329.53,344.893,336.109,338.309,341.91,342.754        z" fill="#3F456B"/></g></g><g><g><path d="M388.737,287.75c4.4,5.793-2.129,12.336-7.934,7.943C376.363,289.89,382.937,283.315,388.737,287.75        C388.737,287.75,388.737,287.75,388.737,287.75z" fill="#3F456B"/></g><g><path d="M341.91,287.754c4.391,5.789-2.127,12.325-7.932,7.944C329.53,289.893,336.109,283.309,341.91,287.754        z" fill="#3F456B"/></g><g><path d="M226.692,291.713c0,2.992-2.424,5.418-5.418,5.418c-2.991,0-5.417-2.426-5.417-5.418        s2.426-5.419,5.417-5.419C224.268,286.294,226.692,288.721,226.692,291.713z" fill="#3F456B"/></g><g><path d="M179.862,291.713c0,2.992-2.424,5.418-5.418,5.418c-2.991,0-5.417-2.426-5.417-5.418        s2.426-5.419,5.417-5.419C177.438,286.294,179.862,288.721,179.862,291.713z" fill="#3F456B"/></g></g><g><g><path d="M388.737,232.75c4.4,5.793-2.129,12.336-7.934,7.943C376.363,234.89,382.937,228.315,388.737,232.75        C388.737,232.75,388.737,232.75,388.737,232.75z" fill="#3F456B"/></g><g><path d="M341.91,232.754c4.391,5.789-2.127,12.325-7.932,7.944C329.53,234.893,336.109,228.309,341.91,232.754        z" fill="#3F456B"/></g><g><path d="M226.692,236.713c0,2.992-2.424,5.418-5.418,5.418c-2.991,0-5.417-2.426-5.417-5.418        c0-2.992,2.426-5.419,5.417-5.419C224.268,231.294,226.692,233.721,226.692,236.713z" fill="#3F456B"/></g><g><path d="M179.862,236.713c0,2.992-2.424,5.418-5.418,5.418c-2.991,0-5.417-2.426-5.417-5.418        c0-2.992,2.426-5.419,5.417-5.419C177.438,231.294,179.862,233.721,179.862,236.713z" fill="#3F456B"/></g></g><g><g><path d="M364.91,315.254c4.391,5.789-2.127,12.325-7.932,7.944C352.53,317.393,359.109,310.809,364.91,315.254        z" fill="#3F456B"/></g><g><path d="M202.862,319.213c0,2.992-2.424,5.418-5.418,5.418c-2.991,0-5.417-2.426-5.417-5.418        s2.426-5.419,5.417-5.419C200.438,313.794,202.862,316.221,202.862,319.213z" fill="#3F456B"/></g></g><g><g><path d="M364.91,260.254c4.391,5.789-2.127,12.325-7.932,7.944C352.53,262.393,359.109,255.809,364.91,260.254        z" fill="#3F456B"/></g><g><path d="M202.862,264.213c0,2.992-2.424,5.418-5.418,5.418c-2.991,0-5.417-2.426-5.417-5.418        s2.426-5.419,5.417-5.419C200.438,258.794,202.862,261.221,202.862,264.213z" fill="#3F456B"/></g></g><g><g><path d="M364.91,192.254c4.391,5.789-2.127,12.325-7.932,7.944C352.53,194.393,359.109,187.809,364.91,192.254        z" fill="#3F456B"/></g><g><path d="M202.862,196.213c0,2.992-2.424,5.418-5.418,5.418c-2.991,0-5.417-2.426-5.417-5.418        c0-2.992,2.426-5.419,5.417-5.419C200.438,190.794,202.862,193.221,202.862,196.213z" fill="#3F456B"/></g></g><g><g><path d="M388.737,164.75c4.4,5.793-2.129,12.336-7.934,7.943C376.363,166.89,382.937,160.315,388.737,164.75        C388.737,164.75,388.737,164.75,388.737,164.75z" fill="#3F456B"/></g><g><path d="M341.91,164.754c4.391,5.789-2.127,12.325-7.932,7.944C329.53,166.893,336.109,160.309,341.91,164.754        z" fill="#3F456B"/></g><g><path d="M226.692,168.713c0,2.992-2.424,5.418-5.418,5.418c-2.991,0-5.417-2.426-5.417-5.418        c0-2.992,2.426-5.419,5.417-5.419C224.268,163.294,226.692,165.721,226.692,168.713z" fill="#3F456B"/></g><g><path d="M179.862,168.713c0,2.992-2.424,5.418-5.418,5.418c-2.991,0-5.417-2.426-5.417-5.418        c0-2.992,2.426-5.419,5.417-5.419C177.438,163.294,179.862,165.721,179.862,168.713z" fill="#3F456B"/></g></g></g><g><path d="M156.262,341.335c-0.005,0-0.01,0-0.015,0c-2.762-0.008-4.993-2.253-4.985-5.015l0.36-120.451      c0.008-2.761,2.267-5.001,5.015-4.985c2.762,0.008,4.993,2.253,4.985,5.015l-0.36,120.451      C161.254,339.106,159.017,341.335,156.262,341.335z" fill="#3F456B"/></g><g><path d="M404.693,354.332c-0.005,0-0.01,0-0.015,0c-2.762-0.008-4.993-2.253-4.985-5.015l0.397-132.775      c0.008-2.756,2.245-4.985,5-4.985c0.005,0,0.01,0,0.015,0c2.762,0.008,4.993,2.253,4.985,5.015l-0.397,132.775      C409.686,352.103,407.448,354.332,404.693,354.332z" fill="#3F456B"/></g><g><path d="M409.076,221.568c-0.019,0-0.037,0-0.057,0l-256.354-0.696c-10.007-0.03-18.123-8.194-18.094-18.2      l0.126-42.069c0.015-4.832,1.92-9.379,5.364-12.804c3.432-3.411,7.97-5.288,12.781-5.288c0.019,0,0.036,0,0.055,0l256.355,0.696      c10.007,0.03,18.123,8.194,18.094,18.2l-0.126,42.069c-0.015,4.833-1.92,9.379-5.364,12.804      C418.425,219.691,413.888,221.568,409.076,221.568z M152.845,152.51c-2.153,0-4.188,0.845-5.733,2.38      c-1.55,1.542-2.407,3.581-2.414,5.742l-0.126,42.069c-0.007,2.161,0.839,4.206,2.38,5.756c1.542,1.551,3.581,2.408,5.742,2.415      l256.355,0.696c0-0.002,0.018,0,0.026,0c2.152,0,4.187-0.845,5.731-2.38c1.55-1.542,2.407-3.581,2.414-5.742l0.126-42.069      c0.007-2.161-0.839-4.206-2.38-5.756c-1.542-1.551-3.581-2.408-5.742-2.415l-256.355-0.696      C152.861,152.51,152.853,152.51,152.845,152.51z" fill="#3F456B"/></g><g><path d="M314.694,358.751c-0.002,0-0.003,0-0.005,0c-2.762-0.003-4.998-2.244-4.995-5.005l0.203-200.085      l-59.001-0.12L250.7,346.783c-0.003,2.76-2.241,4.995-5,4.995c-0.002,0-0.003,0-0.005,0c-2.762-0.003-4.998-2.244-4.995-5.005      l0.201-198.248c0.001-1.327,0.53-2.599,1.47-3.536c0.938-0.935,2.207-1.459,3.53-1.459c0.004,0,0.007,0,0.01,0l69.001,0.141      c2.76,0.006,4.993,2.246,4.99,5.005l-0.208,205.08C319.691,356.516,317.453,358.751,314.694,358.751z" fill="#3F456B"/></g></g></g><g><path d="M116.994,165c-2.58,0-4.769-1.985-4.979-4.602c-1.852-23.147,16.732-33.84,26.817-36.261    c2.693-0.646,5.385,1.01,6.029,3.695c0.643,2.68-1.003,5.373-3.679,6.025c-0.878,0.219-20.825,5.428-19.199,25.743    c0.22,2.753-1.833,5.163-4.586,5.383C117.263,164.995,117.128,165,116.994,165z" fill="#3F456B"/></g></g><g id="Lines"><g><path d="M459.021,311.012c-2.762,0-5-2.239-5-5v-55.35c0-2.761,2.238-5,5-5s5,2.239,5,5v55.35    C464.021,308.773,461.783,311.012,459.021,311.012z" fill="#3F456B"/></g><g><path d="M482.995,297.175c-0.848,0-1.707-0.216-2.494-0.67l-47.957-27.675c-2.392-1.38-3.212-4.438-1.832-6.83    c1.381-2.392,4.437-3.213,6.83-1.832l47.957,27.675c2.392,1.38,3.212,4.438,1.832,6.83    C486.404,296.278,484.724,297.175,482.995,297.175z" fill="#3F456B"/></g><g><path d="M435.048,297.175c-1.729,0-3.409-0.897-4.336-2.502c-1.38-2.392-0.56-5.449,1.832-6.83l47.957-27.675    c2.392-1.38,5.448-0.561,6.83,1.832c1.38,2.392,0.56,5.449-1.832,6.83l-47.957,27.675    C436.755,296.959,435.896,297.175,435.048,297.175z" fill="#3F456B"/></g><g><g><path d="M59.893,301.73c-1.497,0-2.987-0.393-4.424-1.329c-2.351-1.53-3.099-3.981-3.418-5.027     c-1.83-5.999-2.521-12.081-3.188-17.962l-0.259-2.259c-0.338-2.883-0.606-5.379-0.804-7.463     c-7.451-2.969-20.732-9.095-25.297-14.89c-2.721-3.453-2.679-6.495-2.165-8.438c0.924-3.498,3.791-5.28,5.107-5.931     c5.555-3.519,19.756-8.429,26.414-10.634c0.673-11.166,2.955-21.946,3.784-25.124c0.646-2.481,1.774-4.445,3.353-5.832     c1.889-1.659,4.558-2.594,7.176-2.503c0.818,0.03,1.642,0.175,2.451,0.432c1.758,0.555,3.418,1.631,4.934,3.195     c2.286,2.361,9.576,10.628,15.649,20.013c6.883-1.355,21.646-4.069,28.23-3.732c1.468-0.082,4.839,0.062,7.363,2.651     c1.403,1.44,2.936,4.068,2.266,8.413c-1.112,7.216-9.5,18.913-14.546,25.212c4.276,8.135,7.433,16.533,9.619,25.571     c1.237,5.117-1.239,9.574-6.021,10.837c-2.099,0.557-4.045,0.356-5.708,0.123c-5.576-0.78-10.973-2.012-16.192-3.203     l-2.897-0.658c-0.713-0.16-1.472-0.359-2.231-0.559c-0.633-0.167-1.266-0.334-1.86-0.469c-0.366-0.083-0.722-0.189-1.086-0.307     c-1.26,1.2-2.492,2.434-3.773,3.718c-2.116,2.12-4.305,4.312-6.706,6.411c-0.336,0.294-0.772,0.713-1.286,1.203     C71.03,296.378,65.415,301.73,59.893,301.73z M61.766,292.898L61.766,292.898L61.766,292.898z M30.663,246.966     c2.986,3.232,13.695,8.925,23.545,12.466c1.862,0.669,3.154,2.374,3.296,4.347c0.117,1.633,0.392,4.73,1.032,10.211l0.264,2.293     c0.59,5.201,1.15,10.138,2.438,14.862c1.401-0.837,3.489-2.576,6.239-5.197c0.64-0.609,1.187-1.127,1.604-1.494     c2.146-1.875,4.12-3.853,6.21-5.946c1.884-1.888,3.832-3.839,5.935-5.73l0.003,0.002c0.574-0.514,1.305-0.922,2.201-1.154     c2.004-0.525,3.918,0.103,5.457,0.606c0.219,0.072,0.419,0.141,0.58,0.184c0.666,0.149,1.418,0.346,2.169,0.544     c0.639,0.168,1.277,0.338,1.878,0.473l2.928,0.665c5.246,1.197,10.2,2.328,15.354,3.049c0.081,0.011,0.189,0.026,0.312,0.042     c-2.234-8.775-5.496-16.898-9.952-24.792c-1.036-1.836-0.81-4.125,0.567-5.723c6.834-7.928,13.358-18.152,14.369-22.435     c-4.881-0.357-20.544,2.394-29.268,4.217c-2.082,0.438-4.214-0.495-5.31-2.32c-5.974-9.946-14.252-19.267-16.142-21.218     c-0.333-0.344-0.562-0.503-0.679-0.572c-0.026,0.006-0.053,0.013-0.077,0.021c-0.065,0.123-0.181,0.377-0.297,0.827     c-0.687,2.628-3.311,14.808-3.62,26.415c-0.057,2.127-1.454,3.986-3.481,4.631C49.728,238.946,34.744,244.245,30.663,246.966z      M89.569,276.523c-0.007,1.41-0.608,2.751-1.657,3.694c-0.097,0.086-0.191,0.172-0.287,0.259     C88.804,279.566,89.562,278.115,89.569,276.523z M89.569,276.516c0,0.002,0,0.005,0,0.007     C89.569,276.521,89.569,276.519,89.569,276.516z M89.569,276.508c0,0.002,0,0.004,0,0.006     C89.569,276.512,89.569,276.51,89.569,276.508z M89.569,276.499c0,0.002,0,0.005,0,0.008     C89.569,276.503,89.569,276.501,89.569,276.499z M84.569,276.499h0.01H84.569z M29.761,247.446L29.761,247.446L29.761,247.446z      M118.114,224.216L118.114,224.216L118.114,224.216z M65.675,204.276L65.675,204.276L65.675,204.276z" fill="#3F456B"/></g></g><g><g><path d="M465.977,124.585c-0.565,0-1.146-0.054-1.736-0.166c-2.141-0.404-3.811-1.423-5.207-2.348     c-4.694-3.102-9.035-6.535-13.233-9.856l-2.336-1.843c-0.573-0.451-1.171-0.956-1.768-1.461c-0.502-0.424-1.002-0.85-1.483-1.229     c-0.295-0.232-0.569-0.481-0.848-0.744c-1.654,0.541-3.298,1.125-5.008,1.732c-2.821,1.003-5.74,2.04-8.811,2.901     c-0.429,0.12-1.003,0.311-1.677,0.531c-5.585,1.831-15.98,5.234-20.174-1.625c-1.463-2.393-1.084-4.927-0.922-6.01     c0.932-6.207,2.928-11.999,4.857-17.6l0.747-2.174c0.933-2.735,1.76-5.091,2.474-7.044c-5.448-5.887-14.8-17.132-16.427-24.327     c-0.97-4.288,0.377-7.016,1.678-8.549c2.34-2.76,5.695-3.135,7.163-3.156c6.525-0.785,21.459,0.895,28.42,1.769     c5.412-9.788,12.11-18.538,14.228-21.05c1.65-1.961,3.514-3.248,5.536-3.821c2.418-0.686,5.241-0.375,7.554,0.828     c0.725,0.378,1.405,0.863,2.026,1.444c1.347,1.256,2.384,2.942,3.079,5.008c1.048,3.113,4.069,13.711,5.514,24.8     c6.795,1.739,21.303,5.654,27.088,8.78c1.357,0.558,4.342,2.137,5.506,5.563c0.647,1.903,0.899,4.935-1.575,8.568     c-4.109,6.034-16.715,12.983-23.98,16.497c0.359,9.185-0.405,18.124-2.322,27.222     C473.386,121.753,470.065,124.585,465.977,124.585z M440.251,96.427c0.307,0,0.613,0.028,0.916,0.084l0.115,0.021     c2.068,0.393,3.529,1.785,4.703,2.904c0.167,0.159,0.317,0.307,0.444,0.415c0.537,0.422,1.133,0.925,1.728,1.428     c0.503,0.426,1.005,0.853,1.488,1.232l2.357,1.861c4.22,3.337,8.204,6.489,12.545,9.357c0.064,0.042,0.156,0.103,0.264,0.173     c1.76-8.881,2.312-17.617,1.686-26.661c-0.146-2.104,1.045-4.072,2.975-4.921c9.581-4.216,19.87-10.637,22.626-14.067     c-4.259-2.432-19.574-6.681-28.233-8.789c-2.067-0.503-3.591-2.261-3.794-4.379c-1.112-11.552-4.573-23.525-5.439-26.099     c-0.153-0.456-0.29-0.698-0.366-0.809c-0.025-0.006-0.053-0.011-0.079-0.014c-0.111,0.083-0.324,0.263-0.623,0.618     c-1.751,2.078-9.361,11.944-14.636,22.287c-0.966,1.896-3.034,2.974-5.136,2.682c-8.829-1.215-24.634-2.88-29.489-2.18     c1.306,4.203,8.521,13.951,15.888,21.386c1.393,1.406,1.825,3.5,1.104,5.342c-0.86,2.197-2.021,5.436-3.45,9.626l-0.757,2.204     c-1.708,4.954-3.328,9.656-4.2,14.48c1.626-0.153,4.26-0.824,7.87-2.006c0.839-0.275,1.555-0.507,2.09-0.657     c2.743-0.769,5.376-1.705,8.163-2.695c2.513-0.893,5.112-1.817,7.825-2.618C439.296,96.495,439.773,96.427,440.251,96.427z      M454.276,28.103L454.276,28.103L454.276,28.103z" fill="#3F456B"/></g></g><g><path d="M235.434,473.4c-28.678,0-67.621-4.194-125.261-14.465c-2.719-0.484-4.53-3.081-4.046-5.799    s3.08-4.526,5.8-4.045c110.717,19.728,150.493,16.793,181.614,5.018l53.362-24.647l50.401-23.923l69.582-32.273    c7.365-3.546,10.28-14.899,6.3-24.76c-2.202-5.467-8.209-14.032-23.709-10.266l-95.054,34.859    c-2.594,0.953-5.466-0.379-6.416-2.971c-0.952-2.592,0.378-5.465,2.971-6.417l95.314-34.955c0.166-0.061,0.336-0.113,0.508-0.156    c16.336-4.083,29.998,2.111,35.66,16.165c5.981,14.819,0.912,31.662-11.302,37.542l-69.607,32.285l-50.408,23.926l-53.569,24.743    c-0.105,0.049-0.213,0.094-0.321,0.135C281.167,469.503,263.065,473.399,235.434,473.4z" fill="#3F456B"/></g><g><path d="M222.649,414.26c-1.066,0-2.152-0.03-3.263-0.094c-2.757-0.159-4.863-2.522-4.705-5.279    s2.517-4.874,5.279-4.705c16.826,0.973,27.74-7.627,27.849-7.714c0.95-0.764,2.181-1.169,3.383-1.113l67.594,3.137    c0.034,0.001,0.067,0.003,0.102,0.006l15.204,1.015c3.94,0.285,6.991-1.596,8.851-3.226c3.979-3.486,6.475-9.044,6.846-15.25    c0.646-10.653-5.537-20.136-13.503-20.712l-15.079-1.004l-81.769-6.931c-0.396-0.033-0.787-0.114-1.163-0.24    c-1.015-0.339-101.693-33.282-122.601,17.572c-1.05,2.554-3.975,3.773-6.525,2.723c-2.554-1.05-3.773-3.972-2.723-6.526    c10.275-24.994,37.223-36.834,77.954-34.227c27.595,1.763,52.308,9.433,56.482,10.783l81.098,6.875l15.018,1    c13.568,0.981,23.78,15.017,22.793,31.29c-0.53,8.852-4.262,16.935-10.239,22.17c-4.656,4.079-10.372,6.096-16.134,5.68    l-15.126-1.009l-65.792-3.053C248.543,408.106,237.849,414.259,222.649,414.26z" fill="#3F456B"/></g><g><path d="M109.649,487.058H80.973c-2.762,0-5-2.239-5-5v-135.28c0-2.761,2.238-5,5-5h28.677c2.762,0,5,2.239,5,5    v135.28C114.649,484.819,112.411,487.058,109.649,487.058z M85.973,477.058h18.677v-125.28H85.973V477.058z" fill="#3F456B"/></g><g><path d="M79.869,498H17c-2.762,0-5-2.239-5-5V330.863c0-2.761,2.238-5,5-5h62.869c2.762,0,5,2.239,5,5V493    C84.869,495.761,82.631,498,79.869,498z M22,488h52.869V335.863H22V488z" fill="#3F456B"/></g><g><g><path d="M225.406,495.635c-3.575,0-6.473-2.897-6.473-6.473c0-3.574,2.898-6.472,6.473-6.472     c3.574,0,6.473,2.898,6.473,6.472C231.879,492.738,228.98,495.635,225.406,495.635z" fill="#3F456B"/></g></g><g><g><path d="M157.406,130.635c-3.575,0-6.473-2.896-6.473-6.473c0-3.574,2.898-6.472,6.473-6.472     c3.574,0,6.473,2.898,6.473,6.472C163.879,127.738,160.98,130.635,157.406,130.635z" fill="#3F456B"/></g></g><g><path d="M255.954,495.655c-6.461,0-10.354-0.648-10.823-0.731c-2.719-0.48-4.534-3.073-4.055-5.793    c0.479-2.715,3.06-4.529,5.78-4.057l0,0c0.08,0.014,8.263,1.37,21.119-0.217c11.838-1.461,30.194-5.792,50.421-18.125    c2.361-1.438,5.436-0.692,6.872,1.666c1.438,2.358,0.692,5.435-1.665,6.872C294.964,492.732,269.673,495.655,255.954,495.655z" fill="#3F456B"/></g></g></svg>