<?xml version="1.0" ?><svg viewBox="0 0 512 512" xmlns="http://www.w3.org/2000/svg"><defs><style>.cls-1{fill:#3f456b;}</style></defs><title/><g id="Lines"><path class="cls-1" d="M45.5,194.85a5,5,0,0,1-5-5V126a5,5,0,0,1,5-5H321a5,5,0,0,1,0,10H50.5v58.85A5,5,0,0,1,45.5,194.85Z"/><path class="cls-1" d="M105,99H57a5,5,0,0,1-5-5V62a5,5,0,0,1,5-5h48a5,5,0,0,1,5,5V94A5,5,0,0,1,105,99ZM62,89h38V67H62Z"/><path class="cls-1" d="M81,131a5,5,0,0,1-5-5V94a5,5,0,0,1,10,0v32A5,5,0,0,1,81,131Z"/><path class="cls-1" d="M281,99H233a5,5,0,0,1-5-5V62a5,5,0,0,1,5-5h48a5,5,0,0,1,5,5V94A5,5,0,0,1,281,99ZM238,89h38V67H238Z"/><path class="cls-1" d="M257,131a5,5,0,0,1-5-5V94a5,5,0,0,1,10,0v32A5,5,0,0,1,257,131Z"/><path class="cls-1" d="M193,99H145a5,5,0,0,1-5-5V62a5,5,0,0,1,5-5h48a5,5,0,0,1,5,5V94A5,5,0,0,1,193,99ZM150,89h38V67H150Z"/><path class="cls-1" d="M169,131a5,5,0,0,1-5-5V94a5,5,0,0,1,10,0v32A5,5,0,0,1,169,131Z"/><path class="cls-1" d="M480,500H126a5,5,0,0,1,0-10H475V334.52a5,5,0,0,1,10,0V495A5,5,0,0,1,480,500Z"/><path class="cls-1" d="M31.5,441.17a5,5,0,0,1-5-5V334a5,5,0,0,1,10,0V436.17A5,5,0,0,1,31.5,441.17Z"/><path class="cls-1" d="M474.2,339a26.8,26.8,0,0,1-26.8-26.74,5,5,0,0,1,10,0,16.8,16.8,0,1,0,33.6-.17V222c0-.16,0-.31,0-.47s.89-11.45-6.13-19.1C480.37,197.5,473.33,195,464,195H452.33a5,5,0,1,1,0-10H464c12.3,0,21.84,3.62,28.34,10.76,9.38,10.3,8.81,24.24,8.66,26.43v89.9A26.88,26.88,0,0,1,474.2,339Z"/><path class="cls-1" d="M37.84,339A26.8,26.8,0,0,1,11,312.26L11,302V222.19c-.15-2.19-.72-16.13,8.66-26.43C26.16,188.62,35.7,185,48,185H363.5a5,5,0,0,1,0,10H48c-9.33,0-16.36,2.5-20.89,7.43-7,7.65-6.14,19-6.13,19.12s0,.31,0,.45v80l0,10.25a16.81,16.81,0,1,0,33.61-.16,5,5,0,0,1,10,0A26.88,26.88,0,0,1,37.84,339Z"/><path class="cls-1" d="M81.47,339a26.8,26.8,0,0,1-26.8-26.74,5,5,0,0,1,10,0,16.81,16.81,0,1,0,33.61-.17,5,5,0,0,1,10,0A26.89,26.89,0,0,1,81.47,339Z"/><path class="cls-1" d="M125.11,339a26.8,26.8,0,0,1-26.8-26.74,5,5,0,0,1,10,0,16.8,16.8,0,1,0,33.6-.17,5,5,0,0,1,10,0A26.88,26.88,0,0,1,125.11,339Z"/><path class="cls-1" d="M168.75,339a26.8,26.8,0,0,1-26.81-26.74,5,5,0,0,1,10,0,16.81,16.81,0,1,0,33.61-.17,5,5,0,0,1,10,0A26.89,26.89,0,0,1,168.75,339Z"/><path class="cls-1" d="M212.38,339a26.8,26.8,0,0,1-26.8-26.74,5,5,0,0,1,10,0,16.8,16.8,0,1,0,33.6-.17,5,5,0,0,1,10,0A26.88,26.88,0,0,1,212.38,339Z"/><path class="cls-1" d="M256,339a26.8,26.8,0,0,1-26.81-26.74,5,5,0,0,1,10,0,16.81,16.81,0,1,0,33.61-.17,5,5,0,0,1,10,0A26.88,26.88,0,0,1,256,339Z"/><path class="cls-1" d="M299.65,339a26.8,26.8,0,0,1-26.8-26.74,5,5,0,0,1,10,0,16.81,16.81,0,1,0,33.61-.17,5,5,0,0,1,10,0A26.89,26.89,0,0,1,299.65,339Z"/><path class="cls-1" d="M343.29,339a26.8,26.8,0,0,1-26.8-26.74,5,5,0,0,1,10,0,16.8,16.8,0,1,0,33.6-.17,5,5,0,0,1,10,0A26.88,26.88,0,0,1,343.29,339Z"/><path class="cls-1" d="M386.93,339a26.8,26.8,0,0,1-26.81-26.74,5,5,0,0,1,10,0,16.81,16.81,0,1,0,33.61-.17,5,5,0,1,1,10,0A26.89,26.89,0,0,1,386.93,339Z"/><path class="cls-1" d="M430.56,339a26.8,26.8,0,0,1-26.8-26.74,5,5,0,0,1,10,0,16.8,16.8,0,1,0,33.6-.17,5,5,0,0,1,10,0A26.88,26.88,0,0,1,430.56,339Z"/><path class="cls-1" d="M63,418a5,5,0,0,1-5-5V325a5,5,0,0,1,10,0v88A5,5,0,0,1,63,418Z"/><path class="cls-1" d="M448,500a5,5,0,0,1-5-5V325a5,5,0,0,1,10,0V495A5,5,0,0,1,448,500Z"/><path class="cls-1" d="M208,435H98a5,5,0,0,1,0-10H208a5,5,0,0,1,0,10Z"/><path class="cls-1" d="M335,435H304a5,5,0,0,1,0-10h31a5,5,0,0,1,0,10Z"/><path class="cls-1" d="M448,435H400a5,5,0,0,1,0-10h48a5,5,0,0,1,0,10Z"/><path class="cls-1" d="M304,500H208a5,5,0,0,1-5-5V334a5,5,0,0,1,10,0V490h86V334a5,5,0,0,1,10,0V495A5,5,0,0,1,304,500Z"/><path class="cls-1" d="M282,414a5,5,0,0,1-5-5V387a5,5,0,0,1,10,0v22A5,5,0,0,1,282,414Z"/><path class="cls-1" d="M15,468a5,5,0,0,1-4.92-4.14c-.09-.54-2.19-13.17,4.74-22.25A21.7,21.7,0,0,1,28,433.56c3.63-11.13,15.75-27,42.45-24.54,22.85,2.08,32.76,17.4,35.68,27.89a37.3,37.3,0,0,1,9.91,2.77c9.65,4.31,15,12.59,15,23.32a5,5,0,0,1-10,0c0-6.83-3-11.48-9-14.19a28,28,0,0,0-10-2.25,5,5,0,0,1-5-4.38c-.11-.83-3.14-21-27.49-23.2-11.79-1.07-20.82,1.89-26.84,8.81a27,27,0,0,0-5.8,11.15,5,5,0,0,1-4.44,4c-4.44.42-7.62,2-9.71,4.7-4.24,5.55-2.85,14.38-2.83,14.46a5,5,0,0,1-4.07,5.79A5.1,5.1,0,0,1,15,468Z"/><path class="cls-1" d="M126,500H15a5,5,0,0,1-5-5V463a5,5,0,0,1,5-5H126a5,5,0,0,1,5,5v32A5,5,0,0,1,126,500ZM20,490H121V468H20Z"/><path class="cls-1" d="M399,467H335a5,5,0,0,1-5-5V398a5,5,0,0,1,5-5h64a5,5,0,0,1,5,5v64A5,5,0,0,1,399,467Zm-59-10h54V403H340Z"/><path class="cls-1" d="M335,500a5,5,0,0,1-5-5V457a5,5,0,0,1,10,0v38A5,5,0,0,1,335,500Z"/><path class="cls-1" d="M399,500a5,5,0,0,1-5-5V457a5,5,0,0,1,10,0v38A5,5,0,0,1,399,500Z"/><path class="cls-1" d="M408.26,248.93a5.41,5.41,0,0,1-4.26-2.14l-63.95-80.46-.09-.12L333.85,158a92.4,92.4,0,1,1,149.29-.23l-.07.09-6.47,8.47-.06.09L412.63,246.6a5.33,5.33,0,0,1-3.7,2.29A5,5,0,0,1,408.26,248.93Zm3.56-8.37,0,0Zm-63.89-80.39,60.31,75.89,60.45-75.84,6.4-8.38a82.41,82.41,0,1,0-133.2.22Z"/><path class="cls-1" d="M408.41,146.48a43.43,43.43,0,1,1,43.42-43.43A43.48,43.48,0,0,1,408.41,146.48Zm0-76.86a33.43,33.43,0,1,0,33.42,33.43A33.47,33.47,0,0,0,408.41,69.62Z"/><path class="cls-1" d="M64,147H63a5,5,0,0,1,0-10h1a5,5,0,0,1,0,10Z"/><path class="cls-1" d="M64,179H63a5,5,0,0,1,0-10h1a5,5,0,0,1,0,10Z"/></g><g id="Outline"><path class="cls-1" d="M337,163H97a5,5,0,0,1,0-10H337a5,5,0,0,1,0,10Z"/><path class="cls-1" d="M457,294h-1a5,5,0,0,1,0-10h1a5,5,0,0,1,0,10Zm-21,0h-1a5,5,0,0,1,0-10h1a5,5,0,0,1,0,10Zm-21,0h-1a5,5,0,0,1,0-10h1a5,5,0,0,1,0,10Zm-21,0h-1a5,5,0,0,1,0-10h1a5,5,0,0,1,0,10Zm-21,0h-1a5,5,0,0,1,0-10h1a5,5,0,0,1,0,10Zm-21,0h-1a5,5,0,0,1,0-10h1a5,5,0,0,1,0,10Zm-21,0h-1a5,5,0,0,1,0-10h1a5,5,0,0,1,0,10Zm-21,0h-1a5,5,0,0,1,0-10h1a5,5,0,0,1,0,10Zm-21,0h-1a5,5,0,0,1,0-10h1a5,5,0,0,1,0,10Zm-21,0h-1a5,5,0,0,1,0-10h1a5,5,0,0,1,0,10Zm-21,0h-1a5,5,0,0,1,0-10h1a5,5,0,0,1,0,10Zm-21,0h-1a5,5,0,0,1,0-10h1a5,5,0,0,1,0,10Zm-21,0h-1a5,5,0,0,1,0-10h1a5,5,0,0,1,0,10Zm-21,0h-1a5,5,0,0,1,0-10h1a5,5,0,0,1,0,10Zm-21,0h-1a5,5,0,0,1,0-10h1a5,5,0,0,1,0,10Zm-21,0h-1a5,5,0,0,1,0-10h1a5,5,0,0,1,0,10Zm-21,0h-1a5,5,0,0,1,0-10h1a5,5,0,0,1,0,10Zm-21,0H99a5,5,0,0,1,0-10h1a5,5,0,0,1,0,10Zm-21,0H78a5,5,0,0,1,0-10h1a5,5,0,0,1,0,10Zm-21,0H57a5,5,0,0,1,0-10h1a5,5,0,0,1,0,10Zm-21,0H36a5,5,0,0,1,0-10h1a5,5,0,0,1,0,10Z"/><path class="cls-1" d="M378,425H356a5,5,0,0,1,0-10h22a5,5,0,0,1,0,10Z"/><path class="cls-1" d="M378,446H356a5,5,0,0,1,0-10h22a5,5,0,0,1,0,10Z"/><path class="cls-1" d="M131.12,263a5.09,5.09,0,0,1-2.14-.48,5,5,0,0,1-2.37-6.67c5.94-12.52,15.26-20,26.23-21,10.73-1,18.51,4.65,25.37,9.63,4.54,3.3,8.82,6.41,13.65,7.59a21.26,21.26,0,0,0,12.35-.59,32.07,32.07,0,0,1-3.35-3c-6.32-6.54-8.57-14.86-6.17-22.82,2.77-9.18,9.09-15.38,16.9-16.59A17.67,17.67,0,0,1,229,216.56c4.87,7.13,4.39,16.9-1.34,26.79a44,44,0,0,1-4.26,6.12c7.28,1.71,16.48,1.84,27.24-1,6.13-1.62,11.66-4.65,16.27-7.39,2.29-1.37,4.48-3,6.8-4.69a79.41,79.41,0,0,1,9.52-6.32c14.14-7.57,26.5-6.16,34.8,4l1.18,1.45c4,4.89,7.4,9.12,12.73,11.19,7.92,3.07,17.77,1.73,31-4.22a5,5,0,1,1,4.1,9.12c-10,4.48-24.82,9.82-38.72,4.42-7.8-3-12.42-8.72-16.88-14.21l-1.15-1.42c-1.89-2.31-7.66-9.35-22.34-1.48a69.47,69.47,0,0,0-8.31,5.55c-2.41,1.77-4.9,3.61-7.61,5.23a74.31,74.31,0,0,1-18.82,8.47c-13.85,3.68-27.6,3.21-38.49-.88a32,32,0,0,1-25.24,4.49c-6.75-1.64-12-5.49-17.16-9.21-6.21-4.51-11.58-8.42-18.56-7.76-9.87.92-15.6,10-18.13,15.34A5,5,0,0,1,131.12,263Zm83.22-44.16a8.35,8.35,0,0,0-1.22.09c-4,.62-7.2,4.11-8.86,9.6-1.72,5.71,1.11,10.21,3.79,13a24.43,24.43,0,0,0,5.34,4.1,33,33,0,0,0,5.62-7.23c3.73-6.43,4.36-12.31,1.74-16.14A7.72,7.72,0,0,0,214.34,218.8Z"/></g></svg>