<?xml version="1.0" ?><svg viewBox="0 0 512 512" xmlns="http://www.w3.org/2000/svg"><defs><style>.cls-1{fill:#3f456b;}</style></defs><title/><g id="Lines"><path class="cls-1" d="M495,258H39a5,5,0,0,1,0-10H495a5,5,0,0,1,0,10Z"/><path class="cls-1" d="M39,485a5,5,0,0,1-5-5V26a5,5,0,0,1,10,0V480A5,5,0,0,1,39,485Z"/><path class="cls-1" d="M347,498H273a5,5,0,0,1-5-5V253a5,5,0,0,1,5-5h74a5,5,0,0,1,5,5V493A5,5,0,0,1,347,498Zm-69-10h64V258H278Z"/><path class="cls-1" d="M451,434H377a5,5,0,0,1-5-5V253a5,5,0,0,1,5-5h74a5,5,0,0,1,5,5V429A5,5,0,0,1,451,434Zm-69-10h64V258H382Z"/><path class="cls-1" d="M140,257H66a5,5,0,0,1-5-5V77a5,5,0,0,1,5-5h74a5,5,0,0,1,5,5V252A5,5,0,0,1,140,257ZM71,247h64V82H71Z"/><path class="cls-1" d="M244,258H170a5,5,0,0,1-5-5V29a5,5,0,0,1,5-5h74a5,5,0,0,1,5,5V253A5,5,0,0,1,244,258Zm-69-10h64V34H175Z"/><path class="cls-1" d="M66.17,55.7a5,5,0,0,1-3.58-1.51l-23-23.62L16.33,53.47a5,5,0,0,1-7-7.13L36.18,19.92a4.91,4.91,0,0,1,3.56-1.44A5,5,0,0,1,43.27,20L69.76,47.22a5,5,0,0,1-3.59,8.48Z"/><path class="cls-1" d="M471.91,284.47a5,5,0,0,1-3.49-8.58l23.62-23-22.9-23.29a5,5,0,0,1,7.13-7l26.43,26.87a5,5,0,0,1-.08,7.09L475.4,283.06A5,5,0,0,1,471.91,284.47Z"/></g><g id="Outline"><path class="cls-1" d="M456.34,48.45H328.19a5,5,0,0,1,0-10H456.34a5,5,0,0,1,0,10Z"/><path class="cls-1" d="M456.34,75.75H328.19a5,5,0,0,1,0-10H456.34a5,5,0,0,1,0,10Z"/><path class="cls-1" d="M392.34,103.05H328.27a5,5,0,0,1,0-10h64.07a5,5,0,0,1,0,10Z"/></g></svg>