<?xml version="1.0" ?><svg viewBox="0 0 512 512" xmlns="http://www.w3.org/2000/svg"><defs><style>.cls-1{fill:#3f456b;}</style></defs><title/><g id="Lines"><path class="cls-1" d="M165.86,96.18h0a5,5,0,0,1-5-5L161,59.77c0-.15.35-13.6,8.39-21.2,4.12-3.88,9.74-5.68,16.72-5.35,28.69,1.39,49.79,4.29,50.68,4.42a4.69,4.69,0,1,0,1.32-9.29c-.89-.12-22-3.07-51.54-4.5-9.49-.45-17.65,2.28-23.62,7.9-10.85,10.25-11.31,26.17-11.32,28l-.16,31.51a5,5,0,0,1-5,5h0a5,5,0,0,1-5-5l.16-31.53c0-2.24.59-22.06,14.46-35.15,8-7.54,18.69-11.21,31-10.61,30,1.45,51.55,4.45,52.45,4.58a14.69,14.69,0,0,1-4.09,29.09c-.86-.12-21.53-3-49.78-4.33-5.62-.27-8,1.37-9.37,2.63-4,3.78-5.15,11.38-5.26,14.06l-.15,31.31A5,5,0,0,1,165.86,96.18Z"/><path class="cls-1" d="M412.54,214.11h-.19a5,5,0,0,1-4.81-5.19l2-53.79a5,5,0,0,1,5.19-4.81l40,1.49a5,5,0,0,1,4.81,5.19l-.9,24.14a5,5,0,1,1-10-.37l.71-19.15-30-1.12-1.82,48.8A5,5,0,0,1,412.54,214.11Z"/><path class="cls-1" d="M40.28,288.94c-11.68,0-15.92-9.61-15.92-16.06,0-47.15,27.52-81.95,79.59-100.64,38.52-13.83,76.37-14,78-14H193.2c1.71,0,39.51.17,78,14,52.07,18.69,79.6,53.49,79.6,100.64,0,6.42-4.24,16-15.92,16ZM181.93,168.26c-.38,0-37.92.17-74.82,13.47-48.27,17.4-72.75,48.07-72.75,91.15,0,2.23.88,6.06,5.92,6.06l294.55-.07h0c5,0,5.87-3.79,5.92-6.05,0-43.09-24.55-73.78-73-91.17-36.89-13.25-74.22-13.39-74.59-13.39Z"/><path class="cls-1" d="M314.68,501.63H60.83C50,501.63,41.3,498.2,35,491.45c-11-11.82-10.33-29.65-10.2-31.89V441.83a5,5,0,0,1,5-5H345.69a5,5,0,0,1,5,5v17.73c.13,2.24.78,20.07-10.2,31.89C334.21,498.2,325.53,501.63,314.68,501.63ZM34.82,446.83v12.88c0,.13,0,.25,0,.37s-1,15.48,7.57,24.6c4.31,4.61,10.52,6.95,18.45,6.95H314.68c7.94,0,14.15-2.34,18.45-6.95,8.52-9.12,7.58-24.46,7.57-24.61s0-.24,0-.36V446.83Zm-5,12.88h0Z"/><path class="cls-1" d="M342.64,368.43H32.11c-11.15,0-20.23-10.21-20.23-22.76v-7.1c0-12.55,9.08-22.76,20.23-22.76H174.23c1.28.08,31.52,2.08,42.38,17.86,7.94,11.54,24.28,17.25,39.72,13.89,12.33-2.72,17.1-8.58,22.15-14.77,6.6-8.1,14.08-17.32,36.81-17l27.36.05c11.14,0,20.21,10.21,20.21,22.76v7.1C362.86,358.22,353.79,368.43,342.64,368.43Zm-92.37-10h92.37c5.64,0,10.22-5.72,10.22-12.76v-7.1c0-7-4.58-12.76-10.22-12.76l-27.41-.05c-18-.2-22.83,5.78-29,13.35-5.63,6.92-12,14.75-27.76,18.23A51.07,51.07,0,0,1,250.27,358.43ZM32.11,325.81c-5.64,0-10.23,5.73-10.23,12.76v7.1c0,7,4.59,12.76,10.23,12.76H244.8c-14.75-.77-28.64-7.76-36.43-19.08-6.67-9.7-27.09-13.05-34.6-13.54Z"/><path class="cls-1" d="M37.43,324.67a5,5,0,0,1-4.75-3.45c-7.71-23.7,8.26-40.15,8.94-40.84a5,5,0,0,1,7.12,7c-.53.55-12.33,13-6.55,30.72a5,5,0,0,1-3.21,6.3A4.88,4.88,0,0,1,37.43,324.67Z"/><path class="cls-1" d="M335.61,324.67a4.87,4.87,0,0,1-1.54-.25,5,5,0,0,1-3.21-6.3c5.78-17.77-6.05-30.2-6.55-30.72a5,5,0,0,1,7.11-7c.69.69,16.65,17.14,8.95,40.84A5,5,0,0,1,335.61,324.67Z"/><path class="cls-1" d="M29.82,413.48a5,5,0,0,1-4.65-3.17C18,392.19,27,363.17,27.33,361.94a5,5,0,1,1,9.55,3c-.13.39-8.26,26.91-2.41,41.71a5,5,0,0,1-4.65,6.84Z"/><path class="cls-1" d="M346.77,402.43a5.08,5.08,0,0,1-1.77-.33,5,5,0,0,1-2.9-6.45c3.89-10.25,0-25.44-1.87-30.43a5,5,0,0,1,9.39-3.46c.32.88,7.83,21.62,1.83,37.44A5,5,0,0,1,346.77,402.43Z"/><path class="cls-1" d="M464.5,501.63H314.68a5,5,0,1,1,0-10H460.13L490.78,263H460.14c-8.45,28-30.58,47.72-64.24,57.22a167.85,167.85,0,0,1-50.44,6,5,5,0,1,1,.6-10h0a160.29,160.29,0,0,0,47.37-5.67c31.82-9.06,51.35-27.14,58.05-53.75a5,5,0,0,1,4.85-3.78H496.5a5,5,0,0,1,5,5.66l-32,238.6A5,5,0,0,1,464.5,501.63Z"/><path class="cls-1" d="M422.55,307.83h-.19a5,5,0,0,1-4.81-5.18l3.28-87.88-30-1.11-1.67,44.71a5,5,0,0,1-10-.37L381,208.29a5,5,0,0,1,5.19-4.81l40,1.49a5,5,0,0,1,4.81,5.18L427.55,303A5,5,0,0,1,422.55,307.83Z"/><path class="cls-1" d="M365.71,325.29a5,5,0,0,1-5-4.91L359,227.46l-26.67.49h-.1a5,5,0,0,1-.09-10l31.67-.58a5,5,0,0,1,5.09,4.91l1.8,97.92a5,5,0,0,1-4.91,5.09Z"/><path class="cls-1" d="M336.22,227.37a5,5,0,0,1-5-4.91l-1.36-74.57-30.09.55v39.19a5,5,0,0,1-10,0v-44.1a5,5,0,0,1,4.91-5l40-.73a5,5,0,0,1,3.57,1.4,5,5,0,0,1,1.53,3.5l1.45,79.58a5,5,0,0,1-4.91,5.09Z"/><path class="cls-1" d="M322.78,147.6a5,5,0,0,1-5-4.91l-.39-21.34a5,5,0,0,1,4.91-5.1l32-.58a5,5,0,1,1,.18,10l-27,.49.3,16.35a5,5,0,0,1-4.91,5.09Z"/><path class="cls-1" d="M426.57,160.77h-.19a5,5,0,0,1-4.81-5.18l.85-22.69-28-1a5,5,0,1,1,.37-10l33,1.23a5,5,0,0,1,4.81,5.18l-1,27.68A5,5,0,0,1,426.57,160.77Z"/><path class="cls-1" d="M354.63,227.37a5,5,0,0,1-5-5l-.22-117.81a5,5,0,0,1,5-5l40-.07a5,5,0,0,1,5,5l.2,104a5,5,0,0,1-5,5h0a5,5,0,0,1-5-5l-.19-99-30,.06.21,112.8a5,5,0,0,1-5,5Z"/><path class="cls-1" d="M442.49,291h-.2a5,5,0,0,1-4.8-5.19l4.05-105a5,5,0,0,1,5.19-4.8l40,1.49a5,5,0,0,1,4.81,5.18l-2.81,75.24a5,5,0,0,1-10-.37l2.62-70.24-30-1.12-3.86,100A5,5,0,0,1,442.49,291Z"/><path class="cls-1" d="M266.32,180.84a5,5,0,0,1-5-5V159.68a5,5,0,0,1,5-5h28.45a5,5,0,0,1,0,10H271.32v11.16A5,5,0,0,1,266.32,180.84Z"/><path class="cls-1" d="M404,317.38a5,5,0,0,1-5-5v-48.7H365.72a5,5,0,0,1,0-10H404a5,5,0,0,1,5,5v53.7A5,5,0,0,1,404,317.38Z"/><path class="cls-1" d="M29.82,446.83a5,5,0,0,1-1.42-.21c-.5-.15-12.09-3.75-16.26-17.93-2.07-7,.95-15.06,7.69-20.45,3.51-2.81,15.88-10.73,35-2.17,4.23-6.19,14.11-16.26,33.72-16.67,14.59-.32,22.73,4.89,27,9.3a25.08,25.08,0,0,1,3.86,5.23c9.4-3.15,30.77-8.5,48.47.46,4.21-6.16,14-15.25,35.14-15,19.58.19,30.15,12.33,34.82,22.79,7.17-5.82,20.65-13.05,41.71-10.57a40.48,40.48,0,0,1,32.38-12.21c11.18.91,18.25,4.88,22.36,9,4.85-4.16,12.84-6.88,24.1-2,10.44,4.51,16.68,16.34,14.85,28.11a25.54,25.54,0,0,1-5.65,12.3H428V359.55H357.86a5,5,0,0,1,0-10H433a5,5,0,0,1,5,5v87.28a5,5,0,0,1-5,5H345.69a5,5,0,0,1-.5-10c10.3-1,16.91-6.07,18.12-13.85,1.13-7.23-2.72-14.71-8.94-17.4-11.31-4.89-15.23,2-15.9,3.38a5,5,0,0,1-5,3.08,4.85,4.85,0,0,1-4.35-3.71c-.31-.8-3.43-7.79-18.05-9A30.36,30.36,0,0,0,285.44,410a5,5,0,0,1-4.73,1.9c-28.93-4.43-40.94,12.35-41.06,12.52a5,5,0,0,1-9-2c-.17-.92-4.45-22.79-27.74-23-23.52-.24-28.14,12.93-28.33,13.49a4.92,4.92,0,0,1-3.13,3.24,5,5,0,0,1-4.49-.65c-18.81-13.07-48.1-.68-48.39-.56a5,5,0,0,1-6.9-3.65c-.1-.43-3-12.28-22.9-11.85-20.94.44-27.06,14.55-27.31,15.15a5.08,5.08,0,0,1-3,2.82,5,5,0,0,1-4.08-.34c-10.91-6.06-21.49-6.42-28.29-1-3.51,2.8-5.25,6.75-4.35,9.81,2.61,8.89,9.45,11.16,9.52,11.18a5,5,0,0,1-1.43,9.79Z"/><path class="cls-1" d="M296,135.86H16.93a5,5,0,0,1-4.52-7.13L22,108.4a5,5,0,0,1,4.53-2.87H289a5,5,0,0,1,4.73,3.36l7,20.34a5,5,0,0,1-4.72,6.63Zm-271.2-10H289l-3.58-10.33H29.68Z"/><path class="cls-1" d="M277.85,115.53a5,5,0,0,1-5-5V97H42.34v13.5a5,5,0,0,1-10,0V92a5,5,0,0,1,5-5H277.85a5,5,0,0,1,5,5v18.5A5,5,0,0,1,277.85,115.53Z"/><path class="cls-1" d="M40.38,232.17a5,5,0,0,1-5-4.59L27.52,132a5,5,0,1,1,10-.82l7.89,95.54a5,5,0,0,1-4.57,5.39Z"/><path class="cls-1" d="M277.61,164.68h-.41a5,5,0,0,1-4.57-5.4l2.31-28.05a5,5,0,0,1,10,.82l-2.32,28.05A5,5,0,0,1,277.61,164.68Z"/></g><g id="Outline"><path class="cls-1" d="M285.67,232.17H284.6a5,5,0,0,1,0-10h1.07a5,5,0,0,1,0,10Z"/><path class="cls-1" d="M252.38,232.17H251.3a5,5,0,0,1,0-10h1.08a5,5,0,0,1,0,10Z"/><path class="cls-1" d="M235.15,197.83h-1.08a5,5,0,0,1,0-10h1.08a5,5,0,0,1,0,10Z"/><path class="cls-1" d="M219.08,232.17H218a5,5,0,0,1,0-10h1.08a5,5,0,0,1,0,10Z"/><path class="cls-1" d="M201.85,197.83h-1.08a5,5,0,0,1,0-10h1.08a5,5,0,0,1,0,10Z"/><path class="cls-1" d="M185.79,232.17h-1.08a5,5,0,0,1,0-10h1.08a5,5,0,0,1,0,10Z"/><path class="cls-1" d="M168.56,197.83h-1.08a5,5,0,0,1,0-10h1.08a5,5,0,0,1,0,10Z"/><path class="cls-1" d="M152.49,232.17h-1.08a5,5,0,0,1,0-10h1.08a5,5,0,0,1,0,10Z"/><path class="cls-1" d="M135.26,197.83h-1.08a5,5,0,0,1,0-10h1.08a5,5,0,0,1,0,10Z"/><path class="cls-1" d="M119.2,232.17h-1.08a5,5,0,1,1,0-10h1.08a5,5,0,1,1,0,10Z"/><path class="cls-1" d="M85.9,232.17H84.82a5,5,0,0,1,0-10H85.9a5,5,0,0,1,0,10Z"/><path class="cls-1" d="M404,388.68H349.08a5,5,0,0,1,0-10H404a5,5,0,0,1,0,10Z"/><path class="cls-1" d="M404,415.6H366.18a5,5,0,1,1,0-10H404a5,5,0,0,1,0,10Z"/><path class="cls-1" d="M178.76,42.5A5,5,0,0,1,174,39l-5.2-16.31a5,5,0,1,1,9.53-3L183.52,36a5,5,0,0,1-3.24,6.28A5.07,5.07,0,0,1,178.76,42.5Z"/><path class="cls-1" d="M169.79,48.85a5,5,0,0,1-3-1l-14.49-11a5,5,0,0,1,6-8l14.49,11a5,5,0,0,1-3,9Z"/><path class="cls-1" d="M166.45,61a5.07,5.07,0,0,1-.55,0l-19.31-2.11a5,5,0,1,1,1.09-9.94L167,51a5,5,0,0,1-.54,10Z"/><path class="cls-1" d="M165.94,77.83h-.05l-19.37-.18a5,5,0,0,1,0-10h.05l19.37.18a5,5,0,0,1,0,10Z"/></g></svg>