<?xml version="1.0" ?><svg viewBox="0 0 512 512" xmlns="http://www.w3.org/2000/svg"><defs><style>.cls-1{fill:#3f456b;}</style></defs><title/><g id="Lines"><path class="cls-1" d="M32,475.39a5,5,0,0,1-5-5v-123a5,5,0,0,1,3.86-4.86l56.25-13.21,21.23-84.78a5,5,0,0,1,4.85-3.79H232.6a5,5,0,0,1,0,10H117.1l-21,84a5,5,0,0,1-3.7,3.65L37,351.32V470.39A5,5,0,0,1,32,475.39Z"/><path class="cls-1" d="M367.28,285a5,5,0,0,1-4.77-3.52l-40.84-132L169.6,162.67l-23.89,84.41a5,5,0,0,1-9.63-2.73l24.84-87.73A5,5,0,0,1,165.3,153l159.52-13.91A5,5,0,0,1,330,142.6l42,135.87a5,5,0,0,1-3.3,6.26A5.06,5.06,0,0,1,367.28,285Z"/><path class="cls-1" d="M423.64,352.36a5,5,0,0,1-4.79-3.56L392.1,259.94,357.77,256a5,5,0,1,1,1.14-9.93l37.6,4.3a5,5,0,0,1,4.22,3.52l27.7,92a5,5,0,0,1-3.35,6.23A4.8,4.8,0,0,1,423.64,352.36Z"/><path class="cls-1" d="M479,470a5,5,0,0,1-4.9-4L452,355.41l-78.22-3.06a5,5,0,1,1,.4-10l82.14,3.21a5,5,0,0,1,4.71,4L483.9,464.06A5,5,0,0,1,480,470,5.5,5.5,0,0,1,479,470Z"/><path class="cls-1" d="M199.58,160a5.1,5.1,0,0,1-1.82-.34,5,5,0,0,1-2.83-6.48L212.66,108a5,5,0,0,1,3.76-3.09l70.69-12.84a5,5,0,0,1,5.28,2.53l26.19,48a5,5,0,1,1-8.78,4.78l-24.46-44.86L221,114.26l-16.71,42.6A5,5,0,0,1,199.58,160Z"/><path class="cls-1" d="M199,467.9a5,5,0,0,1-4.94-4.26l-6.89-46.39-56.26-5a5,5,0,1,1,.89-10L192,407.64a5,5,0,0,1,4.51,4.24L204,462.17a5,5,0,0,1-4.21,5.68A4.73,4.73,0,0,1,199,467.9Z"/><path class="cls-1" d="M359,466.83a5,5,0,0,1-5-4.42l-9.56-82.94-33-17a5,5,0,0,1-2.42-2.76l-16.08-45-70.29-3.89L205.8,359.69a5.05,5.05,0,0,1-2.34,2.76l-27.55,14.93-6.71,33.79a5,5,0,0,1-9.81-1.95l7.17-36.09a5,5,0,0,1,2.52-3.42L197,354.58,214.5,304a5,5,0,0,1,5-3.35l77.37,4.28a5,5,0,0,1,4.44,3.31l16.52,46.28,33.59,17.29a5,5,0,0,1,2.68,3.87L364,461.26a5,5,0,0,1-4.4,5.54A5.63,5.63,0,0,1,359,466.83Z"/><path class="cls-1" d="M226,500H21.32c-4.38,0-9.38-4.11-10-13.12a17,17,0,0,1,7.3-15.73,18.5,18.5,0,0,1,3.69-2c37.86-15.14,80.26-21.65,126.05-19.37,17.52.87,30.86,2.83,43.25,6.34l1.21.34c12.14,3.44,27.24,7.71,37.14,21.31,3.17,4.35,4.58,9.26,3.88,13.48a11.72,11.72,0,0,1-5,7.83A5,5,0,0,1,226,500ZM22.6,490.41h0Zm-.29-.41H223.86c0-.12.07-.25.1-.38.25-1.5-.6-3.89-2.1-6-7.86-10.8-20.57-14.39-31.78-17.56l-1.22-.35c-11.64-3.3-24.28-5.14-41-6-44.34-2.21-85.34,4.08-121.84,18.67a8.46,8.46,0,0,0-1.7.92h0a7,7,0,0,0-3,6.81A9.53,9.53,0,0,0,22.31,490Zm-.85-14.75h0Z"/><path class="cls-1" d="M494.49,500H324.22c-5.8,0-8.79-6.62-9.18-13.18-.51-8.55,3.6-13.32,6.09-15.4h0a16.17,16.17,0,0,1,3.28-2.13c31.71-15.23,67.23-21.79,105.58-19.5,14.71.88,25.93,2.86,36.36,6.42l1,.34c9.71,3.3,23,7.82,31.34,21.58,4,6.54,5.19,15.48-1,20.69A5,5,0,0,1,494.49,500Zm-168.3-9.25h0Zm-.38-.75h166.1c.37-1.71-.44-4.51-1.76-6.69-6.45-10.64-16.84-14.17-26-17.29l-1-.35c-9.54-3.25-19.95-5.08-33.72-5.9-36.63-2.19-70.5,4.05-100.65,18.54a5.24,5.24,0,0,0-1.2.78h0c-1.28,1.07-2.75,3.17-2.51,7.14A12.71,12.71,0,0,0,325.81,490Zm-1.47-14.75h0Z"/><path class="cls-1" d="M327.33,500H278a5,5,0,0,1-4.91-6l10-51.35a5,5,0,0,1,3.71-3.9l67-16.58a5,5,0,1,1,2.4,9.71L292.3,447.73,284.07,490h43.26a5,5,0,0,1,0,10Z"/><path class="cls-1" d="M278,500H224a5,5,0,0,1,0-10h54a5,5,0,0,1,0,10Z"/><path class="cls-1" d="M495,260.34h-.14A5,5,0,0,1,490,255.2c.23-8-1.76-13.62-5.9-16.78-7.19-5.48-20.22-3.18-24.63-1.83a5,5,0,0,1-6.44-4.27c-1.5-14.42-13.95-15.75-15.36-15.85a5,5,0,0,1-4.64-5.55c0-.15,1.62-15.71-5.91-23.8-3.27-3.51-7.82-5.12-13.94-4.88-24.2.89-27.1,23.48-27.21,24.45a5,5,0,0,1-6.94,4c-20.81-8.91-29.43,1-29.79,1.45a5,5,0,0,1-7,.82,5,5,0,0,1-.83-7c.5-.64,11.63-14.37,35.91-6.55,3.42-11.39,13.48-26.35,35.5-27.16,9.09-.32,16.36,2.38,21.65,8.09,7.58,8.18,8.72,20.35,8.72,27a26.29,26.29,0,0,1,18.74,18.45c7-1.23,19.34-2.07,28.19,4.66,6.88,5.22,10.2,13.64,9.88,25.05A5,5,0,0,1,495,260.34Z"/><path class="cls-1" d="M16,328.85a5.31,5.31,0,0,1-.68-.05A5,5,0,0,1,11,323.16a19,19,0,0,1,7.7-12.36A20.84,20.84,0,0,1,32,307.38c.49-9.6,3.53-27.72,19.07-34.18,14.2-5.92,26.63,1.4,33.48,8.3,4.44-3.06,12-6.28,21.08-2.4a5,5,0,0,1-3.91,9.2c-7.88-3.35-13.9,3.42-14,3.49a4.92,4.92,0,0,1-4,1.71,5,5,0,0,1-3.83-2.08c-.43-.6-11-14.84-25-9-14.51,6-13,30.09-12.93,30.33A5,5,0,0,1,35.9,318c-5-1.12-8.78-.8-11.36.94a9.17,9.17,0,0,0-3.59,5.6A5,5,0,0,1,16,328.85Z"/><path class="cls-1" d="M307.35,443.85a5,5,0,0,1-5-4.58l-3.13-37.53L275.5,388.06a5,5,0,0,1-2.21-2.66l-27-76.35a5,5,0,1,1,9.42-3.33l26.39,74.6,24.4,14.06a5,5,0,0,1,2.48,3.91l3.35,40.15a5,5,0,0,1-4.56,5.4Z"/><path class="cls-1" d="M332.79,437.56a5,5,0,0,1-4.94-4.32l-4.8-34.92A5,5,0,0,1,333,397l4.8,34.92a5,5,0,0,1-4.27,5.63A5.34,5.34,0,0,1,332.79,437.56Z"/><path class="cls-1" d="M66.09,466h-.16a5,5,0,0,1-4.84-5.15L63,398.56a5,5,0,0,1,.76-2.49l18-28.89a5,5,0,1,1,8.48,5.29L73,400.21l-1.88,61A5,5,0,0,1,66.09,466Z"/><path class="cls-1" d="M251,250.71h-2a5,5,0,0,1,0-10h2a5,5,0,0,1,0,10Z"/><path class="cls-1" d="M141.14,131H55.58a34.38,34.38,0,0,1-9.31-67.15q0-.69,0-1.38A27.1,27.1,0,0,1,88.79,40.23a46.3,46.3,0,0,1,86.54,22.9,46,46,0,0,1-.49,6.74A31.46,31.46,0,0,1,164.63,131Zm23.42-5h0ZM55.82,121H164.55a21.31,21.31,0,0,0,21.27-21.38A21.54,21.54,0,0,0,168.13,78.4a5,5,0,0,1-3.95-6.17,36.31,36.31,0,0,0-69.1-22,5,5,0,0,1-8.54,1.4,17.08,17.08,0,0,0-30.3,10.81,16.28,16.28,0,0,0,.48,4A5.07,5.07,0,0,1,56,70.4a5,5,0,0,1-3.36,2.17A24.38,24.38,0,0,0,55.82,121Z"/></g><g id="Outline"><path class="cls-1" d="M448.34,78.75a5,5,0,0,1-4.91-4c-3.18-16-20.71-17.26-21.46-17.31a5,5,0,0,1,.56-10c6.8.36,18.76,3.86,25.8,13.76,4.61-6.4,12.74-12.13,26-11.85a5,5,0,1,1-.18,10h-.64c-17.94,0-20.13,14.47-20.22,15.09a5,5,0,0,1-4.8,4.32Z"/><path class="cls-1" d="M101.81,216.78a5,5,0,0,1-4.42-2.66c-7.61-14.42-24.78-10.65-25.51-10.48a5,5,0,0,1-2.31-9.73c6.62-1.58,19.08-1.65,28.65,5.84,2.59-7.45,8.77-15.23,21.55-18.77a5,5,0,0,1,2.67,9.64c-17.85,4.94-15.79,19.77-15.69,20.4a5,5,0,0,1-3.37,5.51A5,5,0,0,1,101.81,216.78Z"/></g></svg>