<?xml version="1.0" ?><svg viewBox="0 0 512 512" xmlns="http://www.w3.org/2000/svg"><defs><style>.cls-1{fill:#3f456b;}</style></defs><title/><g id="Lines"><path class="cls-1" d="M495,501H16a5,5,0,0,1-5-5V96a5,5,0,0,1,5-5H495a5,5,0,0,1,5,5V496A5,5,0,0,1,495,501ZM21,491H490V101H21Z"/><path class="cls-1" d="M495,113a5,5,0,0,1-5-5V36a15,15,0,0,0-15-15H36A15,15,0,0,0,21,36v72a5,5,0,0,1-10,0V36A25,25,0,0,1,36,11H475a25,25,0,0,1,25,25v72A5,5,0,0,1,495,113Z"/><path class="cls-1" d="M197,501H165a5,5,0,0,1-5-5V336a5,5,0,0,1,5-5h32a5,5,0,0,1,5,5V496A5,5,0,0,1,197,501Zm-27-10h22V341H170Z"/><path class="cls-1" d="M348,501H316a5,5,0,0,1-5-5V336a5,5,0,0,1,5-5h32a5,5,0,0,1,5,5V496A5,5,0,0,1,348,501Zm-27-10h22V341H321Z"/><path class="cls-1" d="M48,501H16a5,5,0,0,1-5-5V336a5,5,0,0,1,5-5H48a5,5,0,0,1,5,5V496A5,5,0,0,1,48,501ZM21,491H43V341H21Z"/><path class="cls-1" d="M495,501H463a5,5,0,0,1-5-5V336a5,5,0,0,1,5-5h32a5,5,0,0,1,5,5V496A5,5,0,0,1,495,501Zm-27-10h22V341H468Z"/><path class="cls-1" d="M165,356H48a5,5,0,0,1,0-10H165a5,5,0,0,1,0,10Z"/><path class="cls-1" d="M165,380H48a5,5,0,0,1,0-10H165a5,5,0,0,1,0,10Z"/><path class="cls-1" d="M165,404H48a5,5,0,0,1,0-10H165a5,5,0,0,1,0,10Z"/><path class="cls-1" d="M165,428H48a5,5,0,0,1,0-10H165a5,5,0,0,1,0,10Z"/><path class="cls-1" d="M165,452H48a5,5,0,0,1,0-10H165a5,5,0,0,1,0,10Z"/><path class="cls-1" d="M165,476H48a5,5,0,0,1,0-10H165a5,5,0,0,1,0,10Z"/><path class="cls-1" d="M463,356H348a5,5,0,0,1,0-10H463a5,5,0,0,1,0,10Z"/><path class="cls-1" d="M463,380H348a5,5,0,0,1,0-10H463a5,5,0,0,1,0,10Z"/><path class="cls-1" d="M463,404H348a5,5,0,0,1,0-10H463a5,5,0,0,1,0,10Z"/><path class="cls-1" d="M463,428H348a5,5,0,0,1,0-10H463a5,5,0,0,1,0,10Z"/><path class="cls-1" d="M463,452H348a5,5,0,0,1,0-10H463a5,5,0,0,1,0,10Z"/><path class="cls-1" d="M463,476H348a5,5,0,0,1,0-10H463a5,5,0,0,1,0,10Z"/><path class="cls-1" d="M316,356H197a5,5,0,0,1,0-10H316a5,5,0,0,1,0,10Z"/><path class="cls-1" d="M316,380H197a5,5,0,0,1,0-10H316a5,5,0,0,1,0,10Z"/><path class="cls-1" d="M316,404H197a5,5,0,0,1,0-10H316a5,5,0,0,1,0,10Z"/><path class="cls-1" d="M316,428H197a5,5,0,0,1,0-10H316a5,5,0,0,1,0,10Z"/><path class="cls-1" d="M316,452H197a5,5,0,0,1,0-10H316a5,5,0,0,1,0,10Z"/><path class="cls-1" d="M316,476H197a5,5,0,0,1,0-10H316a5,5,0,0,1,0,10Z"/></g><g id="Outline"><path class="cls-1" d="M378,63a5,5,0,0,1-1.6-.26,5,5,0,0,1-3.15-6.36c.16-.49,4.12-11.89,18.92-14.35a20.91,20.91,0,0,1,19.4,6.6,34.58,34.58,0,0,1,18.24-1.6c5.8,1,15.93,4.84,17.13,13.22l-9.9,1.42a1,1,0,0,0,0,.24c0-.15-1.06-3.71-8.91-5-9.59-1.6-15.1,2-15.33,2.18a5,5,0,0,1-7.32-1.87,10.92,10.92,0,0,0-11.71-5.31c-8.68,1.45-11,7.47-11.1,7.72A5,5,0,0,1,378,63Z"/><path class="cls-1" d="M281,64a5,5,0,0,1-4.71-6.74A22.92,22.92,0,0,1,298,43c15.91,0,21.25,10.32,21.47,10.76l-8.94,4.48.05.09c-.12-.21-3.1-5.33-12.58-5.33a12.82,12.82,0,0,0-12.32,7.76A5,5,0,0,1,281,64Z"/><path class="cls-1" d="M142,65a5,5,0,0,1-3.67-1.61C129,53.24,114.62,59.31,114,59.58a4.82,4.82,0,0,1-6.46-2.3C107.2,56.71,104.09,52,95,52a12.91,12.91,0,0,0-12.3,7.71,5,5,0,0,1-9.4-3.42A22.92,22.92,0,0,1,95,42c9.89,0,15.69,4,18.73,7.11,6.74-2,21.15-4.2,31.94,7.5A5,5,0,0,1,142,65Z"/><path class="cls-1" d="M457.17,229.4h-1.3a5,5,0,0,1,0-10h1.3a5,5,0,0,1,0,10Z"/><path class="cls-1" d="M457.17,317.8h-1.3a5,5,0,0,1,0-10h1.3a5,5,0,0,1,0,10Z"/><path class="cls-1" d="M457.17,141h-1.3a5,5,0,0,1,0-10h1.3a5,5,0,1,1,0,10Z"/><path class="cls-1" d="M437.78,185.2h-1.31a5,5,0,0,1,0-10h1.31a5,5,0,0,1,0,10Z"/><path class="cls-1" d="M417,229.4h-1.3a5,5,0,0,1,0-10H417a5,5,0,0,1,0,10Z"/><path class="cls-1" d="M437.78,273.6h-1.31a5,5,0,0,1,0-10h1.31a5,5,0,0,1,0,10Z"/><path class="cls-1" d="M417,317.8h-1.3a5,5,0,0,1,0-10H417a5,5,0,0,1,0,10Z"/><path class="cls-1" d="M417,141h-1.3a5,5,0,0,1,0-10H417a5,5,0,0,1,0,10Z"/><path class="cls-1" d="M397.58,185.2h-1.3a5,5,0,0,1,0-10h1.3a5,5,0,0,1,0,10Z"/><path class="cls-1" d="M376.78,229.4h-1.3a5,5,0,0,1,0-10h1.3a5,5,0,0,1,0,10Z"/><path class="cls-1" d="M397.58,273.6h-1.3a5,5,0,0,1,0-10h1.3a5,5,0,1,1,0,10Z"/><path class="cls-1" d="M376.78,317.8h-1.3a5,5,0,0,1,0-10h1.3a5,5,0,0,1,0,10Z"/><path class="cls-1" d="M376.78,141h-1.3a5,5,0,0,1,0-10h1.3a5,5,0,0,1,0,10Z"/><path class="cls-1" d="M357.39,185.2h-1.3a5,5,0,0,1,0-10h1.3a5,5,0,0,1,0,10Z"/><path class="cls-1" d="M336.59,229.4h-1.3a5,5,0,0,1,0-10h1.3a5,5,0,0,1,0,10Z"/><path class="cls-1" d="M357.39,273.6h-1.3a5,5,0,0,1,0-10h1.3a5,5,0,0,1,0,10Z"/><path class="cls-1" d="M336.59,317.8h-1.3a5,5,0,0,1,0-10h1.3a5,5,0,0,1,0,10Z"/><path class="cls-1" d="M336.59,141h-1.3a5,5,0,0,1,0-10h1.3a5,5,0,0,1,0,10Z"/><path class="cls-1" d="M317.2,185.2h-1.3a5,5,0,0,1,0-10h1.3a5,5,0,0,1,0,10Z"/><path class="cls-1" d="M296.4,229.4h-1.3a5,5,0,0,1,0-10h1.3a5,5,0,0,1,0,10Z"/><path class="cls-1" d="M317.2,273.6h-1.3a5,5,0,0,1,0-10h1.3a5,5,0,0,1,0,10Z"/><path class="cls-1" d="M296.4,317.8h-1.3a5,5,0,0,1,0-10h1.3a5,5,0,0,1,0,10Z"/><path class="cls-1" d="M296.4,141h-1.3a5,5,0,0,1,0-10h1.3a5,5,0,0,1,0,10Z"/><path class="cls-1" d="M277,185.2h-1.3a5,5,0,0,1,0-10H277a5,5,0,0,1,0,10Z"/><path class="cls-1" d="M256.21,229.4h-1.3a5,5,0,0,1,0-10h1.3a5,5,0,0,1,0,10Z"/><path class="cls-1" d="M277,273.6h-1.3a5,5,0,1,1,0-10H277a5,5,0,0,1,0,10Z"/><path class="cls-1" d="M256.21,317.8h-1.3a5,5,0,0,1,0-10h1.3a5,5,0,0,1,0,10Z"/><path class="cls-1" d="M256.21,141h-1.3a5,5,0,1,1,0-10h1.3a5,5,0,0,1,0,10Z"/><path class="cls-1" d="M236.82,185.2h-1.3a5,5,0,0,1,0-10h1.3a5,5,0,0,1,0,10Z"/><path class="cls-1" d="M216,229.4h-1.3a5,5,0,0,1,0-10H216a5,5,0,0,1,0,10Z"/><path class="cls-1" d="M236.82,273.6h-1.3a5,5,0,1,1,0-10h1.3a5,5,0,0,1,0,10Z"/><path class="cls-1" d="M216,317.8h-1.3a5,5,0,1,1,0-10H216a5,5,0,1,1,0,10Z"/><path class="cls-1" d="M216,141h-1.3a5,5,0,0,1,0-10H216a5,5,0,0,1,0,10Z"/><path class="cls-1" d="M196.62,185.2h-1.29a5,5,0,1,1,0-10h1.29a5,5,0,0,1,0,10Z"/><path class="cls-1" d="M175.83,229.4h-1.3a5,5,0,0,1,0-10h1.3a5,5,0,0,1,0,10Z"/><path class="cls-1" d="M196.62,273.6h-1.29a5,5,0,0,1,0-10h1.29a5,5,0,0,1,0,10Z"/><path class="cls-1" d="M175.83,317.8h-1.3a5,5,0,0,1,0-10h1.3a5,5,0,0,1,0,10Z"/><path class="cls-1" d="M175.83,141h-1.3a5,5,0,1,1,0-10h1.3a5,5,0,1,1,0,10Z"/><path class="cls-1" d="M156.43,185.2h-1.3a5,5,0,0,1,0-10h1.3a5,5,0,0,1,0,10Z"/><path class="cls-1" d="M135.63,229.4h-1.3a5,5,0,0,1,0-10h1.3a5,5,0,0,1,0,10Z"/><path class="cls-1" d="M156.43,273.6h-1.3a5,5,0,0,1,0-10h1.3a5,5,0,0,1,0,10Z"/><path class="cls-1" d="M135.63,317.8h-1.3a5,5,0,1,1,0-10h1.3a5,5,0,0,1,0,10Z"/><path class="cls-1" d="M135.63,141h-1.3a5,5,0,0,1,0-10h1.3a5,5,0,0,1,0,10Z"/><path class="cls-1" d="M116.24,185.2h-1.3a5,5,0,0,1,0-10h1.3a5,5,0,1,1,0,10Z"/><path class="cls-1" d="M95.44,229.4h-1.3a5,5,0,0,1,0-10h1.3a5,5,0,1,1,0,10Z"/><path class="cls-1" d="M116.24,273.6h-1.3a5,5,0,0,1,0-10h1.3a5,5,0,1,1,0,10Z"/><path class="cls-1" d="M95.44,317.8h-1.3a5,5,0,1,1,0-10h1.3a5,5,0,0,1,0,10Z"/><path class="cls-1" d="M95.44,141h-1.3a5,5,0,1,1,0-10h1.3a5,5,0,0,1,0,10Z"/><path class="cls-1" d="M76.05,185.2h-1.3a5,5,0,0,1,0-10h1.3a5,5,0,1,1,0,10Z"/><path class="cls-1" d="M55.25,229.4H54a5,5,0,0,1,0-10h1.3a5,5,0,0,1,0,10Z"/><path class="cls-1" d="M76.05,273.6h-1.3a5,5,0,0,1,0-10h1.3a5,5,0,1,1,0,10Z"/><path class="cls-1" d="M55.25,317.8H54a5,5,0,1,1,0-10h1.3a5,5,0,0,1,0,10Z"/><path class="cls-1" d="M55.25,141H54a5,5,0,1,1,0-10h1.3a5,5,0,0,1,0,10Z"/></g></svg>