<?xml version="1.0" ?><svg enable-background="new 0 0 512 512" version="1.1" viewBox="0 0 512 512" xml:space="preserve" xmlns="http://www.w3.org/2000/svg" xmlns:xlink="http://www.w3.org/1999/xlink"><g id="Lines"><g><g><path d="M257.224,415.831c-88.812,0-161.066-72.255-161.066-161.067S168.412,93.696,257.224,93.696     c88.812,0,161.067,72.255,161.067,161.067S346.036,415.831,257.224,415.831z M257.224,103.696     c-83.298,0-151.066,67.769-151.066,151.067s67.768,151.067,151.066,151.067c83.299,0,151.067-67.769,151.067-151.067     S340.522,103.696,257.224,103.696z" fill="#3F456B"/></g></g><g><g><path d="M133.224,502c-24.621,0-44.651-20.03-44.651-44.651s20.031-44.652,44.651-44.652     c24.621,0,44.652,20.031,44.652,44.652S157.845,502,133.224,502z M133.224,422.696c-19.107,0-34.651,15.545-34.651,34.652     c0,19.106,15.544,34.651,34.651,34.651s34.652-15.545,34.652-34.651C167.876,438.241,152.331,422.696,133.224,422.696z" fill="#3F456B"/></g></g><g><g><g><path d="M40.368,290.632c-1.28,0-2.559-0.488-3.536-1.465L7.9,260.234c-1.953-1.952-1.953-5.118,0-7.07      l33.587-33.588c1.953-1.953,5.118-1.953,7.071,0c1.953,1.952,1.953,5.118,0,7.07l-30.052,30.053l25.397,25.397      c1.953,1.952,1.953,5.118,0,7.07C42.927,290.144,41.648,290.632,40.368,290.632z" fill="#3F456B"/></g></g><g><g><path d="M256.802,507.065c-1.279,0-2.56-0.488-3.535-1.465L74.895,327.229c-1.953-1.952-1.953-5.118,0-7.07      c1.953-1.953,5.118-1.953,7.071,0l174.835,174.835l193.409-193.408c1.951-1.953,5.119-1.953,7.07,0      c1.953,1.952,1.953,5.118,0,7.07L260.337,505.601C259.361,506.577,258.081,507.065,256.802,507.065z" fill="#3F456B"/></g></g><g><g><path d="M484.309,279.559c-1.279,0-2.56-0.488-3.535-1.465c-1.953-1.952-1.953-5.118,0-7.07l14.323-14.324      l-15.292-15.293c-1.953-1.952-1.953-5.118,0-7.07c1.951-1.953,5.119-1.953,7.07,0l18.828,18.828c1.953,1.952,1.953,5.118,0,7.07      l-17.859,17.859C486.868,279.07,485.588,279.559,484.309,279.559z" fill="#3F456B"/></g></g><g><g><path d="M427.865,187.396c-1.279,0-2.56-0.488-3.535-1.465L256.802,18.404L102.668,172.537      c-1.953,1.953-5.118,1.953-7.071,0c-1.953-1.952-1.953-5.118,0-7.07L253.267,7.798c1.951-1.953,5.119-1.953,7.07,0      L431.4,178.861c1.953,1.952,1.953,5.118,0,7.07C430.425,186.908,429.145,187.396,427.865,187.396z" fill="#3F456B"/></g></g></g><g><g><path d="M468.41,451h-0.599c-9.767,0-17.462-3.042-22.873-9.04c-9.386-10.407-7.915-25.798-7.848-26.448     c0.007-0.063,0.015-0.127,0.023-0.19c0.147-1.035,14.739-104.106,14.739-157.874c0-0.023,0-0.047,0.001-0.07     c0.062-4.466-6.944-7.129-14.757-9.683c-1.438-0.471-2.799-0.915-4.006-1.368c-8.243-3.093-9.996-10.846-9.781-14.771     c-0.088-6.104-1.19-94.88,8.59-128.228c9.588-32.691,19.752-45.429,36.251-45.429c6.41,0,10.144,2.621,12.146,4.819     c4.175,4.581,4.139,10.641,4.046,12.256l3.165,163.631c0.001,57.699,11.492,175.799,11.608,176.984     c0.064,0.618,1.542,15.976-7.827,26.369C485.882,447.958,478.185,451,468.41,451z M447.033,416.603     c-0.074,0.927-0.797,11.91,5.367,18.699c3.433,3.781,8.618,5.698,15.411,5.698h0.599c6.822,0,12.021-1.931,15.452-5.737     c6.32-7.013,5.317-18.555,5.305-18.669c-0.119-1.222-11.657-119.803-11.657-177.893l-3.168-163.755     c-0.004-0.188,0.003-0.374,0.021-0.561c0.06-0.834-0.083-3.459-1.484-4.964c-0.941-1.011-2.531-1.523-4.727-1.523     c-7.47,0-16.306,2.955-26.655,38.243c-9.493,32.368-8.197,124.538-8.184,125.466c0.003,0.164-0.003,0.328-0.017,0.491     c-0.033,0.771,0.087,3.656,3.308,4.864c1.006,0.378,2.267,0.79,3.603,1.227c8.15,2.665,21.787,7.124,21.647,19.286     C461.849,311.086,447.631,412.372,447.033,416.603z" fill="#3F456B"/></g></g><g><g><path d="M58.533,451h-0.595c-9.865,0-17.601-3.042-22.992-9.043c-8.891-9.895-7.717-24.181-7.592-25.461     c0.282-3.336,13.977-165.78,14.703-223.66c-7.985-1.313-14.548-4.919-19.554-10.756c-9.883-11.523-13.269-30.924-10.349-59.311     l3.342-58.402c0.158-2.757,2.533-4.826,5.277-4.707c2.757,0.158,4.864,2.521,4.706,5.278l-3.349,58.516     c-0.004,0.077-0.01,0.153-0.018,0.229c-2.607,25.216,0.078,42.673,7.98,51.886c4.173,4.866,9.813,7.411,17.243,7.782     c2.661,0.133,4.75,2.33,4.75,4.994c-0.001,54.096-14.624,227.29-14.772,229.033c-0.003,0.037-0.006,0.074-0.01,0.111     c-0.009,0.092-1.024,11.04,5.117,17.825c3.414,3.772,8.634,5.685,15.516,5.685h0.595c6.907,0,12.139-1.926,15.55-5.725     c6.063-6.753,5.076-17.662,5.064-17.771c-0.004-0.034-0.007-0.069-0.01-0.104c-0.148-1.704-14.784-171.06-14.784-228.868     c0-2.676,2.107-4.878,4.781-4.995c9.154-0.402,15.313-2.788,19.386-7.509c7.131-8.268,9.242-25.35,6.452-52.222     c-0.006-0.062-0.012-0.124-0.016-0.186L91.072,65.12c-0.183-2.755,1.903-5.137,4.658-5.32c2.749-0.168,5.138,1.903,5.32,4.658     l3.877,58.41c3.16,30.531,0.434,48.945-8.836,59.692c-5.088,5.898-12.22,9.378-21.711,10.568     c0.702,60.965,14.435,220.126,14.715,223.37c0.124,1.246,1.322,15.551-7.573,25.457C76.135,447.957,68.4,451,58.533,451z" fill="#3F456B"/></g></g><g><g><path d="M43.533,142.714c-2.751,0-4.988-2.225-5-4.979c-0.105-24.999,1.867-72.774,1.887-73.254     c0.115-2.758,2.427-4.884,5.203-4.788c2.759,0.115,4.903,2.444,4.788,5.204c-0.02,0.478-1.983,48.025-1.878,72.795     c0.012,2.762-2.217,5.01-4.979,5.021C43.547,142.714,43.54,142.714,43.533,142.714z" fill="#3F456B"/></g></g><g><g><path d="M73.252,142.714c-0.007,0-0.014,0-0.021,0c-2.761-0.012-4.991-2.26-4.979-5.021     c0.104-24.772-1.859-72.318-1.879-72.795c-0.115-2.76,2.029-5.089,4.788-5.204c2.753-0.1,5.088,2.029,5.203,4.788     c0.02,0.479,1.993,48.255,1.888,73.254C78.24,140.489,76.004,142.714,73.252,142.714z" fill="#3F456B"/></g></g><g><g><path d="M169.701,315.028c-3.696,0-7.518-0.832-11.26-2.519c-12.687-5.719-14.945-17.187-14.064-25.519     c-9.115-2.383-20.368-10.43-20.368-30.147c0-20.273,11.599-27.751,19.317-30.482c-1.311-3.942-2.443-9.615-1.798-16.641     c1.617-17.628,13.367-28.063,31.817-28.691c-0.024-2.662,0.138-6.019,0.778-9.608c2.038-11.413,7.889-19.75,16.919-24.108     c14.382-6.942,27.611-1.84,34.969,2.455c4.324-10.636,14.156-23.766,31.512-23.766c18.363,0,29.098,12.941,33.967,23.491     c7.573-4.795,19.525-8.471,32.557-2.181c9.03,4.358,14.881,12.695,16.918,24.108c0.642,3.59,0.803,6.945,0.778,9.608     c18.453,0.626,30.2,11.062,31.818,28.691c0.645,7.025-0.487,12.698-1.799,16.641c7.719,2.731,19.318,10.209,19.318,30.482     c0,19.718-11.253,27.765-20.368,30.147c0.881,8.332-1.378,19.8-14.064,25.519c-9.271,4.179-19.041,3.109-26.136-2.858     c-6.418-5.4-9.43-13.847-8.507-23.292c-7.731-1.381-17.401-5.83-21.088-16.41c-0.924-0.114-1.789-0.281-2.584-0.476     c-4.312,8.306-14.344,18.74-32.173,18.74c-0.216,0-0.432-0.001-0.649-0.004c-15.763-0.222-24.922-6.36-29.896-11.631     c-3.756,5.344-8.636,9.225-14.577,11.581c-9.97,3.954-20.704,2.62-27.798,0.875c0.16,8.354-2.858,15.73-8.664,20.615     C180.346,313.211,175.162,315.027,169.701,315.028z M174.963,190.992c-17.81,0-22.639,10.517-23.477,19.643     c-0.935,10.179,2.855,16.167,3.017,16.417c1.008,1.491,1.124,3.389,0.324,5.002c-0.8,1.612-2.418,2.65-4.216,2.75     c-1.665,0.119-16.603,1.77-16.603,22.04c0,20.038,14.714,20.933,16.392,20.969c1.589,0.033,3.088,0.821,4.002,2.121     c0.915,1.3,1.178,2.958,0.673,4.465c-0.443,1.374-4.072,13.79,7.474,18.994c5.681,2.561,11.508,2.039,15.589-1.394     c4.681-3.938,6.265-11.001,4.237-18.89c-0.475-1.85,0.145-3.809,1.598-5.049c1.452-1.239,3.484-1.545,5.237-0.782     c0.071,0.03,8.172,3.463,17.43,3.463c0.002,0,0.003,0,0.005,0c11.579-0.002,19.388-5.075,23.872-15.51     c0.79-1.837,2.598-3.025,4.594-3.025c0.02,0,0.039,0,0.06,0c2.02,0.024,3.826,1.261,4.58,3.136     c0.199,0.462,5.643,12.584,25.902,12.868c0.169,0.003,0.341,0.004,0.509,0.004c19.685,0,24.53-16.291,24.577-16.457     c0.421-1.486,1.505-2.693,2.937-3.272c1.432-0.577,3.051-0.464,4.386,0.312l0,0c0.002,0,2.87,1.563,6.341,1.285     c2.554-0.198,4.863,1.569,5.317,4.101c0.964,5.363,4.089,8.982,9.553,11.062c4.351,1.656,8.45,1.609,8.496,1.62     c1.562-0.025,3.051,0.67,4.022,1.895c0.971,1.226,1.312,2.835,0.923,4.35c-2.028,7.89-0.444,14.951,4.237,18.89     c4.079,3.433,9.906,3.954,15.589,1.394c11.882-5.355,7.66-18.439,7.475-18.994c-0.509-1.521-0.258-3.192,0.675-4.497     c0.934-1.304,2.436-2.081,4.039-2.09c1.639-0.035,16.354-0.93,16.354-20.968c0-20.878-15.925-22.002-16.604-22.04     c-1.797-0.1-3.402-1.158-4.202-2.771s-0.671-3.53,0.337-5.022c0.135-0.209,3.925-6.197,2.99-16.376     c-0.888-9.678-6.279-20.921-26.855-19.524c-1.519,0.101-2.992-0.487-4.019-1.604c-1.027-1.116-1.491-2.638-1.264-4.138     c0.007-0.046,0.836-5.845-0.39-12.441c-1.506-8.104-5.333-13.693-11.375-16.609c-14.999-7.237-26.434,4.366-26.913,4.863     c-1.26,1.308-3.137,1.838-4.896,1.371c-1.756-0.468-3.128-1.842-3.571-3.604c-0.237-0.923-6.151-22.946-26.796-22.946     c-18.821,0-23.854,22.545-23.902,22.772c-0.371,1.737-1.636,3.147-3.323,3.704c-1.687,0.557-3.544,0.177-4.875-0.999     c-0.581-0.506-14.709-12.562-30.034-5.161c-6.043,2.916-9.87,8.505-11.376,16.609c-1.226,6.597-0.397,12.396-0.388,12.453     c0.22,1.497-0.248,3.019-1.274,4.129s-2.505,1.696-4.009,1.601C177.167,191.031,176.041,190.992,174.963,190.992z" fill="#3F456B"/></g></g><g><g><path d="M257.272,368.997c-17.898,0-26.001-5.521-26.866-6.15c-1.293-0.941-2.058-2.444-2.058-4.043     c0-63.698-19.386-68.143-19.582-68.158c-2.752-0.225-4.801-2.639-4.576-5.391c0.225-2.751,2.641-4.813,5.391-4.576     c2.903,0.237,28.06,4.357,28.753,75.114c2.915,1.254,9.039,3.204,18.938,3.204c10.142,0,16.309-1.882,19.301-3.143     c-2.388-72.212,37.761-80.715,39.495-81.045c2.713-0.522,5.33,1.262,5.848,3.975s-1.262,5.331-3.975,5.848     c-1.368,0.288-34.491,8-31.248,73.926c0.082,1.664-0.67,3.26-2.006,4.255C283.838,363.445,275.854,368.997,257.272,368.997z" fill="#3F456B"/></g></g><g><g><path d="M176.631,261.474c-1.77,0-3.484-0.941-4.393-2.604c-0.398-0.729-9.604-18.057,3.65-34.725     c4.959-6.236,11.931-9.638,20.162-9.834c10.48-0.245,20.677,4.784,24.942,9.65c1.82,2.077,1.612,5.236-0.464,7.056     c-2.077,1.821-5.235,1.613-7.056-0.464c-2.336-2.665-9.804-6.436-17.183-6.245c-5.245,0.125-9.475,2.165-12.574,6.062     c-9.171,11.532-2.767,23.587-2.701,23.707c1.324,2.424,0.432,5.461-1.992,6.785C178.262,261.276,177.441,261.474,176.631,261.474     z" fill="#3F456B"/></g></g><g><g><path d="M344.274,244.242c-1.009,0-2.027-0.304-2.91-0.937c-2.244-1.609-2.759-4.733-1.149-6.978     c9.716-13.549,25.513-11.462,26.178-11.362c2.733,0.391,4.633,2.924,4.241,5.657c-0.39,2.725-2.898,4.63-5.63,4.245     c-0.51-0.063-10.565-1.214-16.662,7.288C347.365,243.518,345.831,244.242,344.274,244.242z" fill="#3F456B"/></g></g><g><g><path d="M200.487,200.508c-1.394,0-2.781-0.58-3.77-1.713c-6.987-8.011-20.522-7.788-20.653-7.786     c-2.777,0.076-5.05-2.111-5.123-4.867c-0.072-2.755,2.091-5.049,4.845-5.129c0.75-0.02,18.342-0.399,28.467,11.208     c1.815,2.081,1.6,5.24-0.481,7.055C202.824,200.103,201.653,200.508,200.487,200.508z" fill="#3F456B"/></g></g><g><g><path d="M321.742,246.923c-1.383,0-2.759-0.57-3.747-1.688c-1.829-2.067-1.636-5.228,0.433-7.058     c0.323-0.301,8.816-8.42,1.813-23.23c-6.91-14.617-26.634-9.769-27.47-9.556c-1.374,0.352-2.839,0.104-4.019-0.683     s-1.977-2.036-2.181-3.439c-0.122-0.8-3.233-19.979-19.982-19.979c-17.412,0-22.987,15.604-23.216,16.268     c-0.896,2.602-3.725,4.003-6.336,3.12c-2.606-0.883-4.014-3.692-3.145-6.303c2.658-7.984,12.913-23.085,32.696-23.085     c17.235,0,25.677,13.387,28.73,23.483c10.715-1.295,26.839,0.834,33.962,15.899c10.301,21.786-3.631,34.466-4.229,34.995     C324.102,246.509,322.92,246.923,321.742,246.923z" fill="#3F456B"/></g></g><g><g><path d="M322.325,373c-16.362,0-29.674-13.055-29.674-29.102s13.312-29.103,29.674-29.103     S352,327.852,352,343.898S338.688,373,322.325,373z M322.325,324.796c-10.849,0-19.674,8.569-19.674,19.103     c0,10.532,8.825,19.102,19.674,19.102S342,354.431,342,343.898C342,333.365,333.174,324.796,322.325,324.796z" fill="#3F456B"/></g></g></g><g id="Outline"><g><g><g><g><g><g><path d="M389.411,45.447c-1.255,0-2.51-0.469-3.481-1.411c-1.982-1.923-2.03-5.088-0.107-7.07l9.428-9.719         c1.925-1.982,5.089-2.028,7.07-0.107c1.982,1.923,2.03,5.088,0.107,7.07L393,43.929         C392.02,44.939,390.716,45.447,389.411,45.447z" fill="#3F456B"/></g></g></g><g><g><g><path d="M400,112.442c-1.252,0-2.505-0.467-3.476-1.406l-9.344-9.039c-1.984-1.92-2.037-5.086-0.117-7.07         c1.92-1.983,5.086-2.038,7.07-0.117l9.344,9.039c1.984,1.92,2.037,5.086,0.117,7.07         C402.614,111.933,401.308,112.442,400,112.442z" fill="#3F456B"/></g></g></g><g><g><g><path d="M413.842,88.038c-0.404,0-0.815-0.049-1.225-0.152l-12.963-3.265         c-2.678-0.675-4.303-3.392-3.628-6.069c0.674-2.678,3.398-4.302,6.069-3.628l12.963,3.265         c2.678,0.675,4.303,3.392,3.628,6.069C418.115,86.526,416.078,88.038,413.842,88.038z" fill="#3F456B"/></g></g></g><g><g><g><path d="M400.455,63.754c-2.179,0-4.182-1.435-4.807-3.634c-0.755-2.656,0.786-5.422,3.442-6.177         l12.957-3.683c2.656-0.755,5.422,0.786,6.177,3.442s-0.786,5.422-3.442,6.177l-12.957,3.683         C401.368,63.692,400.908,63.754,400.455,63.754z" fill="#3F456B"/></g></g></g></g><g><g><g><g><path d="M390.396,44.562c-1.251,0-2.504-0.467-3.474-1.405c-1.986-1.919-2.04-5.084-0.12-7.069l8.492-8.785         c1.917-1.987,5.085-2.041,7.069-0.12c1.986,1.919,2.04,5.084,0.12,7.069l-8.492,8.785         C393.011,44.053,391.704,44.562,390.396,44.562z" fill="#3F456B"/></g></g></g><g><g><g><path d="M371.409,33.691c-0.404,0-0.815-0.049-1.225-0.152c-2.678-0.675-4.303-3.392-3.628-6.069         l3.043-12.084c0.675-2.679,3.396-4.307,6.069-3.628c2.678,0.675,4.303,3.392,3.628,6.069l-3.043,12.084         C375.683,32.18,373.646,33.691,371.409,33.691z" fill="#3F456B"/></g></g></g><g><g><g><path d="M350.019,34.479c-2.179,0-4.182-1.435-4.807-3.634l-3.538-12.449         c-0.755-2.656,0.786-5.422,3.442-6.177c2.654-0.753,5.422,0.785,6.177,3.442l3.538,12.449         c0.755,2.656-0.786,5.422-3.442,6.177C350.932,34.418,350.472,34.479,350.019,34.479z" fill="#3F456B"/></g></g></g><g><g><g><path d="M332.036,45.444c-1.252,0-2.505-0.467-3.476-1.406l-9.344-9.039c-1.984-1.92-2.037-5.086-0.117-7.07         c1.919-1.983,5.086-2.038,7.07-0.117l9.344,9.039c1.984,1.92,2.037,5.086,0.117,7.07         C334.65,44.935,333.344,45.444,332.036,45.444z" fill="#3F456B"/></g></g></g></g></g><g><g><g><g><path d="M157.466,48.837c-1.28,0-2.559-0.488-3.536-1.465c-1.953-1.952-1.953-5.118,0-7.07l8.017-8.017        c1.954-1.953,5.119-1.952,7.071,0s1.953,5.118,0,7.07l-8.017,8.017C160.025,48.349,158.745,48.837,157.466,48.837z" fill="#3F456B"/></g></g><g><g><path d="M130.103,76.18c-1.28,0-2.559-0.488-3.536-1.465c-1.953-1.952-1.953-5.118,0-7.07l8.017-8.017        c1.954-1.953,5.119-1.952,7.071,0c1.953,1.952,1.953,5.118,0,7.07l-8.017,8.017C132.662,75.691,131.382,76.18,130.103,76.18z" fill="#3F456B"/></g></g></g><g><g><g><path d="M165.473,76.19c-1.28,0-2.559-0.488-3.536-1.465l-8.018-8.018c-1.953-1.952-1.953-5.118,0-7.07        c1.953-1.953,5.118-1.953,7.071,0l8.018,8.018c1.953,1.952,1.953,5.118,0,7.07C168.032,75.702,166.753,76.19,165.473,76.19z" fill="#3F456B"/></g></g><g><g><path d="M138.13,48.827c-1.28,0-2.559-0.488-3.536-1.465l-8.017-8.018c-1.953-1.952-1.953-5.118,0-7.07        c1.954-1.953,5.119-1.952,7.071,0l8.017,8.018c1.953,1.952,1.953,5.118,0,7.07C140.689,48.339,139.41,48.827,138.13,48.827z" fill="#3F456B"/></g></g></g></g><g><g><g><g><path d="M397.466,441.837c-1.279,0-2.56-0.488-3.536-1.465c-1.952-1.952-1.952-5.118,0.001-7.071l8.018-8.017        c1.953-1.951,5.118-1.952,7.071,0.001c1.952,1.952,1.952,5.118-0.001,7.071l-8.018,8.017        C400.024,441.349,398.745,441.837,397.466,441.837z" fill="#3F456B"/></g></g><g><g><path d="M370.104,469.18c-1.279,0-2.56-0.488-3.535-1.465c-1.953-1.952-1.953-5.118,0-7.07l8.017-8.017        c1.951-1.953,5.119-1.953,7.07,0c1.953,1.952,1.953,5.118,0,7.07l-8.017,8.017C372.663,468.691,371.383,469.18,370.104,469.18        z" fill="#3F456B"/></g></g></g><g><g><g><path d="M405.473,469.19c-1.279,0-2.56-0.488-3.536-1.465l-8.017-8.018c-1.952-1.952-1.952-5.118,0.001-7.071        c1.953-1.951,5.118-1.952,7.071,0.001l8.017,8.018c1.952,1.952,1.952,5.118-0.001,7.071        C408.031,468.702,406.752,469.19,405.473,469.19z" fill="#3F456B"/></g></g><g><g><path d="M378.13,441.827c-1.279,0-2.56-0.488-3.536-1.465l-8.017-8.018c-1.952-1.952-1.952-5.118,0.001-7.071        c1.953-1.951,5.118-1.952,7.071,0.001l8.017,8.018c1.952,1.952,1.952,5.118-0.001,7.071        C380.688,441.339,379.409,441.827,378.13,441.827z" fill="#3F456B"/></g></g></g></g><g><g><g><path d="M250.096,333.808c-1.381,0-2.5-1.119-2.5-2.5c0-40.992-15.536-59.531-15.693-59.714       c-0.9-1.047-0.781-2.625,0.266-3.525c1.046-0.9,2.625-0.782,3.525,0.266c0.69,0.802,16.902,20.146,16.902,62.974       C252.596,332.688,251.477,333.808,250.096,333.808z" fill="#3F456B"/></g></g><g><g><path d="M265.586,333.808c-0.067,0-0.136-0.003-0.205-0.008c-1.376-0.111-2.401-1.317-2.29-2.694       c2.793-34.513,14.713-51.578,15.219-52.287c0.802-1.126,2.365-1.386,3.486-0.584c1.123,0.801,1.386,2.359,0.587,3.483       c-0.143,0.202-11.64,16.822-14.308,49.791C267.969,332.816,266.875,333.808,265.586,333.808z" fill="#3F456B"/></g></g><g><g><path d="M320.245,179.625c0,3.469-2.811,6.282-6.282,6.282c-3.469,0-6.282-2.813-6.282-6.282       s2.813-6.283,6.282-6.283C317.434,173.342,320.245,176.155,320.245,179.625z" fill="#3F456B"/></g></g><g><g><path d="M265.145,158.625c0,3.469-2.811,6.282-6.282,6.282c-3.469,0-6.282-2.813-6.282-6.282       s2.813-6.283,6.282-6.283C262.333,152.342,265.145,155.155,265.145,158.625z" fill="#3F456B"/></g></g><g><g><path d="M207.042,173.625c0,3.469-2.811,6.282-6.282,6.282c-3.469,0-6.283-2.813-6.283-6.282       s2.813-6.283,6.283-6.283C204.231,167.342,207.042,170.155,207.042,173.625z" fill="#3F456B"/></g></g><g><g><path d="M283.305,213.697c0,3.469-2.811,6.282-6.282,6.282c-3.469,0-6.282-2.813-6.282-6.282       c0-3.47,2.813-6.283,6.282-6.283C280.494,207.414,283.305,210.227,283.305,213.697z" fill="#3F456B"/></g></g><g><g><path d="M230.204,205.697c0,3.469-2.812,6.282-6.282,6.282c-3.469,0-6.283-2.813-6.283-6.282       c0-3.47,2.813-6.283,6.283-6.283C227.392,199.414,230.204,202.227,230.204,205.697z" fill="#3F456B"/></g></g><g><g><path d="M175.102,211.697c0,3.469-2.811,6.282-6.282,6.282c-3.469,0-6.282-2.813-6.282-6.282       c0-3.47,2.813-6.283,6.282-6.283C172.291,205.414,175.102,208.227,175.102,211.697z" fill="#3F456B"/></g></g><g><g><path d="M364.245,266.77c0,3.469-2.811,6.282-6.282,6.282c-3.469,0-6.282-2.813-6.282-6.282       c0-3.47,2.813-6.283,6.282-6.283C361.434,260.487,364.245,263.3,364.245,266.77z" fill="#3F456B"/></g></g><g><g><path d="M263.145,253.77c0,3.469-2.811,6.282-6.282,6.282c-3.469,0-6.282-2.813-6.282-6.282       c0-3.47,2.813-6.283,6.282-6.283C260.333,247.487,263.145,250.3,263.145,253.77z" fill="#3F456B"/></g></g><g><g><path d="M203.042,250.77c0,3.469-2.811,6.282-6.282,6.282c-3.469,0-6.283-2.813-6.283-6.282       c0-3.47,2.813-6.283,6.283-6.283C200.231,244.487,203.042,247.3,203.042,250.77z" fill="#3F456B"/></g></g><g><g><path d="M151.941,263.77c0,3.469-2.811,6.282-6.282,6.282c-3.469,0-6.282-2.813-6.282-6.282       c0-3.47,2.813-6.283,6.282-6.283C149.13,257.487,151.941,260.3,151.941,263.77z" fill="#3F456B"/></g></g><g><g><path d="M350.407,213.327c0,3.469-2.811,6.282-6.282,6.282c-3.469,0-6.282-2.813-6.282-6.282       c0-3.47,2.813-6.283,6.282-6.283C347.595,207.044,350.407,209.857,350.407,213.327z" fill="#3F456B"/></g></g></g></g></g></svg>