<?xml version="1.0" ?><svg id="Lines" viewBox="0 0 512 512" xmlns="http://www.w3.org/2000/svg"><defs><style>.cls-1{fill:#3f456b;}</style></defs><title/><path class="cls-1" d="M55,403.62a5,5,0,0,1-1.58-9.74c.61-.21,14-5,14-21.5,0-17-13.55-22.69-13.69-22.75A5,5,0,0,1,55.62,340H216.38c8.52.49,24.62,7.88,24.62,32.37,0,30.88-25.27,31.24-25.53,31.24a5,5,0,0,1,0-10c1.55,0,15.53-.87,15.53-21.24,0-20.54-13.58-22.25-15.08-22.38H69.86a34.62,34.62,0,0,1,7.56,22.38c0,19.11-13.65,28.63-20.86,31A5,5,0,0,1,55,403.62Z"/><path class="cls-1" d="M496,229H16a5,5,0,0,1-5-5V191a5,5,0,0,1,5-5H496a5,5,0,0,1,5,5v33A5,5,0,0,1,496,229ZM21,219H491V196H21Z"/><path class="cls-1" d="M496,437H16a5,5,0,0,1-5-5V399a5,5,0,0,1,5-5H496a5,5,0,0,1,5,5v33A5,5,0,0,1,496,437ZM21,427H491V404H21Z"/><path class="cls-1" d="M451.92,196a5,5,0,0,1-5-5V20H241V150.27a5,5,0,0,1-10,0V15a5,5,0,0,1,5-5H451.92a5,5,0,0,1,5,5V191A5,5,0,0,1,451.92,196Z"/><path class="cls-1" d="M429,172.27H287.5a5,5,0,0,1,0-10H424v-118H263.22V150.12a5,5,0,1,1-10,0V39.27a5,5,0,0,1,5-5H429a5,5,0,0,1,5,5v128A5,5,0,0,1,429,172.27Z"/><path class="cls-1" d="M275,404a5,5,0,0,1-5-5V287.1a5,5,0,0,1,5-5H426a5,5,0,0,1,5,5V397.65a5,5,0,0,1-10,0V292.1H280V399A5,5,0,0,1,275,404Z"/><path class="cls-1" d="M388,379.29H314.35a5,5,0,0,1-5-5V339a5,5,0,0,1,5-5H388a5,5,0,0,1,5,5v35.29A5,5,0,0,1,388,379.29Zm-68.65-10H383V344H319.35Z"/><path class="cls-1" d="M426,324.46H275a5,5,0,0,1,0-10H426a5,5,0,0,1,0,10Z"/><path class="cls-1" d="M64,292H48.5a5,5,0,0,1-5-5V224a5,5,0,0,1,10,0v58h6.64l15.52-59.27a5,5,0,0,1,9.68,2.54l-16.5,63A5,5,0,0,1,64,292Z"/><path class="cls-1" d="M464,292H448.5a5,5,0,0,1-4.84-3.73l-16.5-63a5,5,0,1,1,9.68-2.54L452.36,282H459V224a5,5,0,0,1,10,0v63A5,5,0,0,1,464,292Z"/><path class="cls-1" d="M64,500H48.5a5,5,0,0,1-5-5V432a5,5,0,0,1,10,0v58h6.64l15.52-59.27a5,5,0,0,1,9.68,2.54l-16.5,63A5,5,0,0,1,64,500Z"/><path class="cls-1" d="M464,500H448.5a5,5,0,0,1-4.84-3.73l-16.5-63a5,5,0,0,1,9.68-2.54L452.36,490H459V432a5,5,0,0,1,10,0v63A5,5,0,0,1,464,500Z"/><path class="cls-1" d="M65,421H64a5,5,0,0,1,0-10h1a5,5,0,0,1,0,10Z"/><path class="cls-1" d="M449,421h-1a5,5,0,0,1,0-10h1a5,5,0,0,1,0,10Z"/><path class="cls-1" d="M65,213H64a5,5,0,0,1,0-10h1a5,5,0,0,1,0,10Z"/><path class="cls-1" d="M449,213h-1a5,5,0,0,1,0-10h1a5,5,0,0,1,0,10Z"/><path class="cls-1" d="M276.75,196H163.18a15,15,0,0,1-15-15V161a15,15,0,0,1,15-15H276.75a15,15,0,0,1,15,15V181A15,15,0,0,1,276.75,196ZM163.18,156a5,5,0,0,0-5,5V181a5,5,0,0,0,5,5H276.75a5,5,0,0,0,5-5V161a5,5,0,0,0-5-5Z"/><path class="cls-1" d="M238.68,350H87.28a15,15,0,0,1-15-15V315a15,15,0,0,1,15-15h151.4a15,15,0,0,1,15,15V335A15,15,0,0,1,238.68,350ZM87.28,310a5,5,0,0,0-5,5V335a5,5,0,0,0,5,5h151.4a5,5,0,0,0,5-5V315a5,5,0,0,0-5-5Z"/><path class="cls-1" d="M131.25,196H51.82a5,5,0,0,1-5-5V118.79a5,5,0,0,1,5-5h79.43a5,5,0,0,1,5,5V191A5,5,0,0,1,131.25,196ZM56.82,186h69.43V123.79H56.82Z"/><path class="cls-1" d="M122.23,123.8a5,5,0,0,1-4.8-6.42c5.37-18.19,16.08-69.7,1.38-89.38-4-5.38-9.7-8-17.35-8-16.55,0-25,12.78-26,39.05a5,5,0,1,1-10-.35c1.42-40.25,20.35-48.7,36-48.7,10.87,0,19.4,4,25.36,12,20.7,27.71,1,95.33.2,98.19A5,5,0,0,1,122.23,123.8Z"/><path class="cls-1" d="M98.76,123.8a5,5,0,0,1-4.71-6.69,104.89,104.89,0,0,0,4.34-18.25c1.24-8.7,1.61-20.64-3.62-28.07-3.55-5-9.33-7.47-17.68-7.47S63,65.75,59.56,70.73c-8.51,12.19-2,37.58,1.17,46.34a5,5,0,0,1-9.39,3.45C50.8,119,38.12,84,51.35,65c5.41-7.76,14.07-11.7,25.74-11.7S97.48,57.27,103,65c13.35,19,1,54,.51,55.44A5,5,0,0,1,98.76,123.8Z"/><path class="cls-1" d="M341.24,127.14A37.66,37.66,0,1,1,378.9,89.48,37.7,37.7,0,0,1,341.24,127.14Zm0-65.31A27.66,27.66,0,1,0,368.9,89.48,27.69,27.69,0,0,0,341.24,61.83Z"/><path class="cls-1" d="M402,155.27H341.24a5,5,0,0,1-5-5V89.48a5,5,0,0,1,5-5H402a5,5,0,0,1,5,5v60.79A5,5,0,0,1,402,155.27Zm-55.78-10H397V94.48H346.24Z"/><path class="cls-1" d="M323.09,147.1a5,5,0,0,1-1.41-.2c-18-5.31-30.58-17.69-36.46-35.8a72.33,72.33,0,0,1-3.4-25.65,5,5,0,0,1,10,.8h0c-.13,1.65-2.73,40.58,32.72,51.06a5,5,0,0,1-1.42,9.79Z"/></svg>