<?xml version="1.0" ?><svg viewBox="0 0 512 512" xmlns="http://www.w3.org/2000/svg"><defs><style>.cls-1{fill:#3f456b;}</style></defs><title/><g id="Lines"><path class="cls-1" d="M431.17,483.49H75.83A19.35,19.35,0,0,1,56.5,464.16V444.29A19.35,19.35,0,0,1,75.83,425H431.17a19.35,19.35,0,0,1,19.33,19.33v19.87A19.35,19.35,0,0,1,431.17,483.49ZM75.83,435a9.34,9.34,0,0,0-9.33,9.33v19.87a9.34,9.34,0,0,0,9.33,9.33H431.17a9.34,9.34,0,0,0,9.33-9.33V444.29a9.34,9.34,0,0,0-9.33-9.33Z"/><path class="cls-1" d="M256.5,99.49a37,37,0,1,1,37-37A37,37,0,0,1,256.5,99.49Zm0-64a27,27,0,1,0,27,27A27,27,0,0,0,256.5,35.49Z"/><path class="cls-1" d="M256.5,146a5,5,0,0,1-5-5V30.49a5,5,0,0,1,10,0V141A5,5,0,0,1,256.5,146Z"/><g data-name="&lt;编组&gt;" id="_编组_"><path class="cls-1" d="M431.51,432.45a5,5,0,0,1-4.89-6.08l14.85-67.5a5,5,0,1,1,9.77,2.15l-14.86,67.5A5,5,0,0,1,431.51,432.45Z"/><path class="cls-1" d="M454,330.35a5.1,5.1,0,0,1-1.08-.12,5,5,0,0,1-3.8-6l19.27-87.59a5,5,0,0,1,3.1-3.6A29.51,29.51,0,1,0,446.17,231a5,5,0,0,1,2.21,5.95C442.79,253.13,419.76,306,358,306c-44.28,0-66.85-24-78-44.14a116,116,0,0,1-13.43-43,5,5,0,0,1,2.86-5.79,35,35,0,1,0-27.49.16A5,5,0,0,1,245,218.2a115,115,0,0,1-13.49,43.65C220.36,282,197.78,306,153.5,306,92,306,68.85,253.36,63.22,237.23a5,5,0,0,1,2.41-6.08A29.49,29.49,0,1,0,40,232a5,5,0,0,1,2.86,3.49l19.28,87.68a5,5,0,1,1-9.77,2.15L33.65,240a39.49,39.49,0,1,1,40.43-2.22c7,17.62,28.63,58.25,79.42,58.25,31.64,0,54.94-13.12,69.25-39a107.68,107.68,0,0,0,11.89-36.14,45,45,0,1,1,42.2-.25,108,108,0,0,0,12.07,36.68C303.25,283,326.49,296,358,296c51.2,0,72.74-41.11,79.59-58.69a39.49,39.49,0,1,1,40,4l-18.72,85.07A5,5,0,0,1,454,330.35Z"/><path class="cls-1" d="M80,432.45a5,5,0,0,1-4.88-3.93L60.44,361.79a5,5,0,0,1,9.77-2.15l14.67,66.73a5,5,0,0,1-3.8,6A5.1,5.1,0,0,1,80,432.45Z"/></g><path class="cls-1" d="M416.4,283.33a5,5,0,0,1-4-2c-16.87-22.45-55.68-61.44-126.15-70.43a5,5,0,1,1,1.27-9.92c74.11,9.46,115.06,50.64,132.87,74.34a5,5,0,0,1-4,8Z"/><path class="cls-1" d="M95.16,283.38a4.92,4.92,0,0,1-3-1,5,5,0,0,1-1-7c17.77-23.53,58.44-64.45,131.18-74.23a5,5,0,0,1,1.33,9.91C154.54,220.34,116,259.11,99.16,281.4A5,5,0,0,1,95.16,283.38Z"/><path class="cls-1" d="M288.5,67.49h-64a5,5,0,0,1,0-10h64a5,5,0,1,1,0,10Z"/><path class="cls-1" d="M439.15,389H71.21a5,5,0,1,1,0-10H439.15a5,5,0,0,1,0,10Z"/><path class="cls-1" d="M256.5,369.65a10,10,0,0,1-7.07-2.92l-30.15-30.16a10,10,0,0,1,0-14.14l30.15-30.15a10,10,0,0,1,14.14,0l30.16,30.15a10,10,0,0,1,0,14.14l-30.15,30.16A10,10,0,0,1,256.5,369.65Zm0-10L253,363.19l3.53-3.53Zm0-60.31L226.35,329.5l30.14,30.15,30.17-30.15Z"/><path class="cls-1" d="M159.09,364.94a23.61,23.61,0,1,1,23.61-23.6A23.63,23.63,0,0,1,159.09,364.94Zm0-37.21a13.61,13.61,0,1,0,13.61,13.61A13.62,13.62,0,0,0,159.09,327.73Z"/><path class="cls-1" d="M354.64,364.94a23.61,23.61,0,1,1,23.61-23.6A23.63,23.63,0,0,1,354.64,364.94Zm0-37.21a13.61,13.61,0,1,0,13.61,13.61A13.63,13.63,0,0,0,354.64,327.73Z"/><path class="cls-1" d="M443.67,364.94a23.61,23.61,0,1,1,23.6-23.6A23.63,23.63,0,0,1,443.67,364.94Zm0-37.21a13.61,13.61,0,1,0,13.6,13.61A13.63,13.63,0,0,0,443.67,327.73Z"/><path class="cls-1" d="M65.5,364.94a23.61,23.61,0,1,1,23.61-23.6A23.63,23.63,0,0,1,65.5,364.94Zm0-37.21a13.61,13.61,0,1,0,13.61,13.61A13.62,13.62,0,0,0,65.5,327.73Z"/></g><g id="Outline"><path class="cls-1" d="M404.34,412.49h-1a5,5,0,1,1,0-10h1a5,5,0,0,1,0,10Zm-21,0h-1a5,5,0,1,1,0-10h1a5,5,0,0,1,0,10Zm-21,0h-1a5,5,0,1,1,0-10h1a5,5,0,0,1,0,10Zm-21,0h-1a5,5,0,1,1,0-10h1a5,5,0,0,1,0,10Zm-21,0h-1a5,5,0,1,1,0-10h1a5,5,0,0,1,0,10Zm-21,0h-1a5,5,0,1,1,0-10h1a5,5,0,0,1,0,10Zm-21,0h-1a5,5,0,1,1,0-10h1a5,5,0,0,1,0,10Zm-21,0h-1a5,5,0,1,1,0-10h1a5,5,0,0,1,0,10Zm-21,0h-1a5,5,0,0,1,0-10h1a5,5,0,1,1,0,10Zm-21,0h-1a5,5,0,0,1,0-10h1a5,5,0,1,1,0,10Zm-21,0h-1a5,5,0,0,1,0-10h1a5,5,0,1,1,0,10Zm-21,0h-1a5,5,0,0,1,0-10h1a5,5,0,1,1,0,10Zm-21,0h-1a5,5,0,0,1,0-10h1a5,5,0,1,1,0,10Zm-21,0h-1a5,5,0,0,1,0-10h1a5,5,0,1,1,0,10Zm-21,0h-1a5,5,0,0,1,0-10h1a5,5,0,1,1,0,10Z"/></g></svg>