<?xml version="1.0" ?><svg viewBox="0 0 512 512" xmlns="http://www.w3.org/2000/svg"><defs><style>.cls-1{fill:#3f456b;}</style></defs><title/><g id="Lines"><path class="cls-1" d="M177.89,487.28a68.51,68.51,0,0,1-21.82-3.57c-37.52-12.58-57.29-54.89-44.08-94.32a81.5,81.5,0,0,1,3.1-7.85c.37-.82,9.79-21.88,28.43-32.87C161,338.38,180,335,197.39,338.85l24.41-37.09a5,5,0,0,1,8.35,5.49l-28.38,43.13-3.53-1c-15.75-4.5-33.38-1.69-49.64,7.9-15.81,9.33-24.3,28.17-24.38,28.36a69.78,69.78,0,0,0-2.75,6.93C110,426.77,127,463.4,159.25,474.23A59.63,59.63,0,0,0,206.6,470a66.91,66.91,0,0,0,32-38.14c8.69-25.93,1.07-54.54-19-71.18l-3.39-2.81,2.36-3.71c1.37-2.16,6-9.45,8.23-12.9,4-6.2,9.62-6.06,12.54-4.41l15.17,7.87c1.75,1,3.21,1.26,4.34.9a5,5,0,0,1,3,9.53c-2.63.84-6.86,1.23-12.12-1.63l-14.17-7.36c-.11.14-.25.32-.4.55-1.3,2-3.63,5.66-5.9,9.21,20.7,19.56,28.25,50.77,18.75,79.12a76.9,76.9,0,0,1-36.76,43.79A71,71,0,0,1,177.89,487.28ZM236,345.72ZM177.93,456.44a37.91,37.91,0,0,1-12.07-2c-21.39-7.18-32.44-32-24.62-55.27a46.42,46.42,0,0,1,21.17-26,39,39,0,0,1,31.79-3.31c21.38,7.16,32.43,32,24.62,55.27a46.43,46.43,0,0,1-21.17,25.95A40.27,40.27,0,0,1,177.93,456.44ZM182.15,378a30.38,30.38,0,0,0-14.86,4,36.45,36.45,0,0,0-16.57,20.41c-6.06,18.07,2.16,37.18,18.32,42.61a29.18,29.18,0,0,0,23.72-2.56A36.46,36.46,0,0,0,209.34,422c6-18.08-2.16-37.2-18.32-42.61h0A27.8,27.8,0,0,0,182.15,378Zm110.37-67.17a5,5,0,0,1-4.15-7.78c4.43-6.63,9.91-14.52,15.71-22.88,6.18-8.91,12.57-18.11,17.76-25.9a5,5,0,0,1,8.32,5.54c-5.24,7.87-11.66,17.12-17.86,26.06-5.78,8.32-11.23,16.18-15.62,22.74A5,5,0,0,1,292.52,310.79Z"/><path class="cls-1" d="M96.78,260.5c-2.88,0-29.11-.4-43.48-14.63A31,31,0,0,1,44,223V111a5,5,0,0,1,10,0V223a21.06,21.06,0,0,0,6.33,15.76c12,11.86,36.34,11.74,36.62,11.74H196a5,5,0,0,1,0,10H96.78Z"/><path class="cls-1" d="M130,148H97c-12.81,0-33.59-3.78-45-16a5,5,0,0,1-3,1H17a5,5,0,0,1-5-5V16a5,5,0,0,1,5-5H96.91c2.24-.08,28.7-.69,43.43,13.43C146.75,30.58,150,38.51,150,48a29.55,29.55,0,0,1-9,21.91C126.17,84.44,98.09,84,96.9,84c-.24,0-24.7-.32-36.61,11.35A20.85,20.85,0,0,0,54,111c0,26.61,42.58,27,43,27h33a5,5,0,0,1,0,10ZM22,123H46.26A31.45,31.45,0,0,1,44,111a30.73,30.73,0,0,1,9.32-22.81C68.25,73.57,95.93,74,97.1,74c.25,0,25.12.34,36.92-11.25A19.65,19.65,0,0,0,140,48c0-6.75-2.15-12.1-6.58-16.35C121.4,20.13,97.45,21,97.21,21H22Z"/><path class="cls-1" d="M416.18,260.5H263a5,5,0,0,1,0-10H416c.26,0,24.76.07,36.69-11.75A21.13,21.13,0,0,0,459,223V111a5,5,0,0,1,10,0V223a31,31,0,0,1-9.3,22.87C445.33,260.09,419.11,260.5,416.18,260.5Z"/><path class="cls-1" d="M416,148H196a5,5,0,0,1,0-10H416a81.31,81.31,0,0,0,22.61-3.81C452.14,129.63,459,121.83,459,111a20.85,20.85,0,0,0-6.29-15.65C440.8,83.67,416.35,84,416.1,84c-1.18,0-29.27.44-44.1-14.09A29.55,29.55,0,0,1,363,48c0-9.49,3.25-17.42,9.66-23.57,14.72-14.12,41.2-13.51,43.43-13.43H496a5,5,0,0,1,5,5V128a5,5,0,0,1-5,5H465a5,5,0,0,1-3.6-1.53C450.15,144.12,429,148,416,148Zm50.74-25H491V21H415.79c-.24,0-24.27-.82-36.22,10.67C375.15,35.91,373,41.26,373,48a19.62,19.62,0,0,0,6,14.77c9.84,9.64,30,11.38,36.9,11.23,1.18,0,28.85-.43,43.78,14.19A30.73,30.73,0,0,1,469,111,31.45,31.45,0,0,1,466.74,123Z"/><path class="cls-1" d="M145,88.5a5,5,0,0,1-5-5V47a5,5,0,0,1,10,0V83.5A5,5,0,0,1,145,88.5Z"/><path class="cls-1" d="M368,85a5,5,0,0,1-5-5V48a5,5,0,0,1,10,0V80A5,5,0,0,1,368,85Z"/><path class="cls-1" d="M336.17,490.34a70.71,70.71,0,0,1-35.69-9.83,76.89,76.89,0,0,1-35.05-45.18c-8.4-28.69.35-59.59,21.78-78.33-1.81-3.11-4.17-7.14-5.53-9.44v0s-.26-.39-.31-.48l-.09-.1-14.44,6.8c-5.45,2.7-9.72,2.09-12.35,1.1a15.56,15.56,0,0,1-8.19-7.83c-2.56-4.14-33.42-54.24-62.66-102h0l-25.44-41.68c-11.46-18.85-19.75-32.6-24.63-40.87-13.14-22.28-10.92-43-6.75-56.49,4.68-15.08,13.27-26.17,17.88-29.22a11.68,11.68,0,0,1,9.15-1.86c5.65,1.27,9,6.53,9.35,7.12L319.76,341.2c36.24-6.83,72.39,16.2,83.4,53.81,11.68,39.91-9.71,81.42-47.68,92.55A68.62,68.62,0,0,1,336.17,490.34ZM281.48,336.73c2.85,0,6.23,1.42,8.79,5.72,2.09,3.51,6.44,11,7.73,13.2l2.21,3.8-3.49,2.68C276.06,378,267.35,406.28,275,432.52a67,67,0,0,0,30.48,39.35A59.65,59.65,0,0,0,352.67,478c32.68-9.57,51-45.52,40.89-80.14-9.87-33.72-42.83-54-75-46.13l-3.57.87L154.66,87.23a6.36,6.36,0,0,0-3-2.54c-.17,0-.58-.13-1.42.43-1.8,1.19-9.5,9.81-13.85,23.85a58.83,58.83,0,0,0,5.81,48.45c4.86,8.23,13.12,22,24.55,40.75l25.43,41.67c30.37,49.63,62.49,101.75,62.81,102.27l.21.35.16.38h0a5.81,5.81,0,0,0,2.71,2.73c1.12.4,2.59.15,4.38-.73l.09,0,15.37-7.24A7.87,7.87,0,0,1,281.48,336.73Zm54.67,122.76a40.07,40.07,0,0,1-21-6.07A46.42,46.42,0,0,1,295,426.66c-6.9-23.59,5.09-47.94,26.74-54.27a39,39,0,0,1,31.63,4.54,46.37,46.37,0,0,1,20.15,26.75c6.91,23.58-5.08,47.93-26.73,54.28A38.18,38.18,0,0,1,336.15,459.49Zm-3.74-78.63a27.63,27.63,0,0,0-7.84,1.13c-16.35,4.78-25.3,23.57-19.94,41.87a36.44,36.44,0,0,0,15.77,21A29.15,29.15,0,0,0,344,448.36c16.36-4.8,25.31-23.58,19.95-41.87h0a36.43,36.43,0,0,0-15.78-21A30.19,30.19,0,0,0,332.41,380.86Z"/><path class="cls-1" d="M385.25,148a4.77,4.77,0,0,1-1.29-.17,5,5,0,0,1-3.54-6.12c7.86-29.43-10.24-53.62-14.71-56.59-.85-.56-1.26-.47-1.44-.43a6.48,6.48,0,0,0-3,2.56l-35,57.36a5,5,0,1,1-8.54-5.22l35-57.35c.36-.58,3.7-5.84,9.35-7.11a11.66,11.66,0,0,1,9.14,1.86c4.23,2.79,10.92,11.5,15.54,22.73,4.23,10.26,8.23,26.36,3.31,44.77A5,5,0,0,1,385.25,148Z"/><path class="cls-1" d="M368,504a5,5,0,0,1-1.4-9.8c37.95-11.11,49.5-48.26,49.61-48.64a5,5,0,1,1,9.58,2.88c-.52,1.74-13.28,42.74-56.39,55.36A4.84,4.84,0,0,1,368,504Z"/><path class="cls-1" d="M90,441a5,5,0,0,1-4.91-4.11c-10.37-57,25.94-92.06,27.49-93.53a5,5,0,0,1,6.87,7.27c-.45.43-33.87,33-24.52,84.48a5,5,0,0,1-4,5.81A5.47,5.47,0,0,1,90,441Z"/><path class="cls-1" d="M259.25,314a5,5,0,0,1-4.33-2.5l-3.5-6.06a5,5,0,1,1,8.66-5l3.5,6.06a5,5,0,0,1-1.83,6.83A4.94,4.94,0,0,1,259.25,314Z"/></g><g id="Outline"><path class="cls-1" d="M207.13,91.91a4.94,4.94,0,0,1-3.51-1.45l-20.14-19.9a5,5,0,1,1,7-7.12l20.13,19.91a5,5,0,0,1-3.52,8.56Z"/><path class="cls-1" d="M305.49,92a5,5,0,0,1-3.58-8.49l19.51-20a5,5,0,1,1,7.16,7l-19.52,20A5,5,0,0,1,305.49,92Z"/><path class="cls-1" d="M256.32,71.56a5,5,0,0,1-5-5L251.26,38a5,5,0,0,1,5-5h0a5,5,0,0,1,5,5l.06,28.56a5,5,0,0,1-5,5Z"/><path class="cls-1" d="M282.93,76.87a4.87,4.87,0,0,1-1.89-.38A5,5,0,0,1,278.31,70L285,53.72a5,5,0,0,1,9.25,3.79l-6.66,16.25A5,5,0,0,1,282.93,76.87Z"/><path class="cls-1" d="M229.71,76.84a5,5,0,0,1-4.62-3.07l-6.78-16.2a5,5,0,0,1,9.23-3.86l6.78,16.2a5,5,0,0,1-2.69,6.54A4.85,4.85,0,0,1,229.71,76.84Z"/></g></svg>