<?xml version="1.0" ?><svg enable-background="new 0 0 512 512" id="Lines" version="1.1" viewBox="0 0 512 512" xml:space="preserve" xmlns="http://www.w3.org/2000/svg" xmlns:xlink="http://www.w3.org/1999/xlink"><title/><g><path d="M401,476c-2.727,0-4.951-2.184-5-4.91l-5.14-287.36c0-30.61,14.51-46.92,26.69-55.22   c8.016-5.47,17.133-9.119,26.71-10.69c2.742-0.34,5.24,1.608,5.58,4.35c0.34,2.742-1.608,5.24-4.35,5.58l0,0   c-1.82,0.23-44.63,6.27-44.63,55.89L406,470.91c0.05,2.761-2.147,5.04-4.908,5.09c-0.001,0-0.001,0-0.002,0H401z" fill="#3F456B"/><path d="M287.89,461h-62.78c-2.761,0-5-2.239-5-5s2.239-5,5-5h62.78c2.761,0,5,2.239,5,5S290.651,461,287.89,461z" fill="#3F456B"/><path d="M286,425h-59c-2.761,0-5-2.239-5-5s2.239-5,5-5h59c2.761,0,5,2.239,5,5S288.761,425,286,425z" fill="#3F456B"/><path d="M112,476L112,476c-2.761,0-5-2.239-5-5l2.22-287.29c0-2.54-1.57-49.06-43.69-55.95   c-2.726-0.445-4.575-3.014-4.13-5.74c0.445-2.726,3.014-4.575,5.74-4.13c21.06,3.45,36.77,16,45.42,36.3   c3.942,9.336,6.196,19.297,6.66,29.42v0.11L117,471C117,473.761,114.761,476,112,476z" fill="#3F456B"/><path d="M84.51,455.5c-0.264,0-0.529-0.02-0.79-0.06l-63-10c-2.728-0.431-4.591-2.992-4.16-5.72   c0.431-2.728,2.992-4.591,5.72-4.16l63,10c2.728,0.427,4.594,2.984,4.168,5.712C89.067,453.705,86.972,455.499,84.51,455.5z" fill="#3F456B"/><path d="M426.49,455.5c-2.761-0.001-4.999-2.241-4.998-5.002c0.001-2.462,1.795-4.557,4.228-4.938l63-10   c2.728-0.431,5.289,1.432,5.72,4.16s-1.432,5.289-4.16,5.72l-63,10C427.019,455.48,426.754,455.5,426.49,455.5z" fill="#3F456B"/><path d="M289,485c-2.674,0.003-4.877-2.099-5-4.77l-17-368c-0.127-2.758,2.006-5.098,4.765-5.225   c0.078-0.004,0.157-0.005,0.235-0.005c19.57,0,34.68-5.5,44.92-16.35c14.47-15.34,15.16-37.19,15.08-42.27l-12.35-21.92   c-0.08-0.14-0.15-0.28-0.22-0.43c-0.89-2-3.65-6-6.43-6H200c-3.08,0-5.9,4.83-6.43,6c-0.07,0.15-0.14,0.29-0.22,0.43L181,48.38   c0,5.06,0.64,26.93,15.12,42.27C206.32,101.5,221.43,107,241,107c2.761-0.003,5.002,2.233,5.005,4.995   c0,0.078-0.002,0.157-0.005,0.235l-17,368c-0.124,2.755-2.455,4.889-5.21,4.77c-0.47,0-47.91-2.09-112.33-9   c-2.74-0.346-4.68-2.847-4.335-5.587c0.337-2.673,2.732-4.598,5.415-4.353c52.07,5.61,93,8,106.7,8.73l16.53-357.88   c-20-1-35.79-7.49-47-19.44C169.39,76.86,170.93,47.92,171,46.69c0.048-0.756,0.267-1.491,0.64-2.15l12.89-22.82   c0.94-2,6-11.72,15.46-11.72H313c9.47,0,14.52,9.72,15.46,11.72l12.89,22.82c0.373,0.659,0.592,1.394,0.64,2.15   c0.08,1.23,1.62,30.17-17.73,50.75c-11.24,12-27,18.48-47,19.44l16.53,357.88c13.74-0.72,54.63-3.12,106.7-8.73   c2.75-0.251,5.183,1.775,5.433,4.525c0.245,2.683-1.68,5.077-4.353,5.415c-64.42,6.94-111.86,9-112.33,9L289,485z" fill="#3F456B"/><path d="M72,497c-0.285,0.002-0.569-0.022-0.85-0.07l-52-9c-2.425-0.418-4.186-2.539-4.15-5l0.83-42.6   c-0.01-0.177-0.01-0.353,0-0.53L52.8,147.71c1.91-17.91,11.56-35.24,27.92-50.12c7.307-6.674,15.412-12.418,24.13-17.1l66.24-36.37   c2.396-1.373,5.451-0.544,6.824,1.852c1.373,2.396,0.544,5.451-1.852,6.824c-0.05,0.029-0.101,0.057-0.152,0.083l-66.32,36.41   l-0.17,0.09c-0.42,0.21-42.72,21.88-46.68,59.43v0.11L25.82,440.76l-0.74,38.05l43.5,7.52l11.94-36.82l28.53-202.21   c0.434-2.727,2.996-4.586,5.724-4.152c2.661,0.423,4.507,2.879,4.176,5.552L90.36,451.34c-0.042,0.285-0.109,0.566-0.2,0.84   l-13.4,41.36C76.092,495.604,74.169,497.001,72,497z" fill="#3F456B"/><path d="M438,498c-2.246,0.001-4.218-1.496-4.82-3.66l-11.81-42.45c-0.058-0.207-0.101-0.417-0.13-0.63L392,247.92   c-0.395-2.734,1.501-5.27,4.235-5.665c2.734-0.395,5.27,1.501,5.665,4.235l29.15,203l10.52,37.81l45.2-7.53l-1.71-39l-36.58-291.86   c-4-37.76-46.27-59.31-46.69-59.53c-0.076-0.031-0.15-0.067-0.22-0.11l-66.52-37.41c-2.408-1.353-3.263-4.402-1.91-6.81   s4.402-3.263,6.81-1.91l0,0l66.43,37.36c8.708,4.68,16.803,10.42,24.1,17.09c16.39,14.9,26,32.25,27.93,50.18l36.64,292   c0.01,0.136,0.01,0.274,0,0.41l1.95,43.6c0.11,2.527-1.685,4.738-4.18,5.15l-54,9C438.549,497.978,438.275,498.001,438,498z" fill="#3F456B"/><path d="M241,117c-0.359-0.002-0.718-0.039-1.07-0.11c-2.698-0.588-4.409-3.251-3.821-5.95   c0.004-0.017,0.007-0.034,0.011-0.05c1-4.46,0.41-9.89-1.57-15.28c-1.662-4.05-3.733-7.92-6.18-11.55c-0.91-1.46-1.85-3-2.75-4.52   l-35.27-60.2c-1.554-2.283-0.962-5.393,1.321-6.947c2.283-1.554,5.393-0.962,6.947,1.321c0.136,0.2,0.257,0.409,0.363,0.626   l35.27,60.2c0.83,1.43,1.74,2.88,2.61,4.28c2.813,4.204,5.182,8.688,7.07,13.38c1.86,5.06,3.72,12.79,1.95,20.88   C245.374,115.369,243.345,116.999,241,117z" fill="#3F456B"/><path d="M272.25,117c-2.348-0.002-4.378-1.637-4.88-3.93c-1.76-8.09,0.09-15.82,1.95-20.88   c1.892-4.691,4.261-9.174,7.07-13.38c0.88-1.4,1.78-2.85,2.62-4.28l35.26-60.2c1.208-2.483,4.2-3.517,6.683-2.309   c2.483,1.208,3.517,4.2,2.309,6.683c-0.106,0.217-0.227,0.426-0.363,0.626l-35.27,60.2c-0.9,1.55-1.84,3.06-2.75,4.52   c-2.448,3.628-4.516,7.498-6.17,11.55c-2,5.39-2.55,10.82-1.57,15.28c0.614,2.692-1.07,5.373-3.762,5.987   c-0.019,0.004-0.039,0.009-0.058,0.013C272.968,116.954,272.61,116.994,272.25,117z" fill="#3F456B"/><path d="M298,56h-83c-2.761,0-5-2.239-5-5s2.239-5,5-5h83c2.761,0,5,2.239,5,5S300.761,56,298,56z" fill="#3F456B"/><path d="M287.88,452.5c-2.761,0.108-5.087-2.044-5.195-4.805s2.044-5.087,4.805-5.195l0,0l112.51-9   c2.761-0.221,5.179,1.839,5.4,4.6s-1.839,5.179-4.6,5.4l-112.51,9C288.154,452.51,288.016,452.51,287.88,452.5z" fill="#3F456B"/><path d="M225.41,452.5c-0.136,0.01-0.274,0.01-0.41,0l-112.51-9c-2.761-0.221-4.821-2.639-4.6-5.4   c0.221-2.761,2.639-4.821,5.4-4.6l112.51,9c2.761,0.108,4.913,2.434,4.805,5.195C230.497,450.456,228.171,452.608,225.41,452.5z" fill="#3F456B"/><path d="M325,482c-2.645,0.005-4.836-2.05-5-4.69l-2-32c-0.171-2.761,1.929-5.139,4.69-5.31s5.139,1.929,5.31,4.69   l2,32c0.171,2.756-1.924,5.129-4.68,5.3L325,482z" fill="#3F456B"/><path d="M187,482h-0.31c-2.756-0.171-4.851-2.544-4.68-5.3l2-32c0.171-2.761,2.549-4.861,5.31-4.69   s4.861,2.549,4.69,5.31l-2,32C191.841,479.96,189.645,482.011,187,482z" fill="#3F456B"/><path d="M136.48,420.7c-0.291,0.002-0.583-0.022-0.87-0.07c-2.72-0.477-4.538-3.069-4.06-5.789c0,0,0-0.001,0-0.001   c9-51.56,22-76.31,22.59-77.34c1.214-2.48,4.209-3.506,6.689-2.292c2.48,1.214,3.506,4.209,2.292,6.689   c-0.05,0.103-0.104,0.204-0.161,0.303c-0.19,0.38-12.85,24.72-21.56,74.37C140.978,418.957,138.904,420.698,136.48,420.7z" fill="#3F456B"/><path d="M376.55,420.7c-2.424-0.002-4.498-1.743-4.92-4.13c-8.78-50-21.44-74.13-21.57-74.37   c-1.381-2.391-0.563-5.449,1.828-6.831c2.391-1.381,5.449-0.563,6.831,1.828c0.057,0.099,0.111,0.2,0.161,0.302   c0.55,1,13.54,25.78,22.6,77.34c0.478,2.72-1.339,5.312-4.059,5.79c0,0-0.001,0-0.001,0   C377.132,420.677,376.841,420.701,376.55,420.7z" fill="#3F456B"/><path d="M298.08,145c-2.681,0.002-4.887-2.111-5-4.79v-1.08c-0.113-2.761,2.034-5.092,4.795-5.205   c2.761-0.113,5.092,2.034,5.205,4.795v1.08c0.113,2.758-2.032,5.086-4.79,5.2H298.08z" fill="#3F456B"/><path d="M301,214c-2.681,0.002-4.887-2.111-5-4.79l-0.05-1.07c-0.116-2.761,2.029-5.094,4.79-5.21   c2.761-0.116,5.094,2.029,5.21,4.79v1.08c0.113,2.758-2.032,5.086-4.79,5.2H301z" fill="#3F456B"/><path d="M303.84,283c-2.685,0.002-4.893-2.117-5-4.8v-1.07c-0.113-2.761,2.034-5.092,4.795-5.205   c2.761-0.113,5.092,2.034,5.205,4.795v1.07c0.117,2.759-2.024,5.091-4.783,5.208c-0.019,0.001-0.038,0.002-0.057,0.002H303.84z" fill="#3F456B"/><path d="M306.71,352.05c-2.681,0.002-4.887-2.111-5-4.79v-1.08c-0.116-2.761,2.029-5.094,4.79-5.21   c2.761-0.116,5.094,2.029,5.21,4.79l0,0v1.08c0.113,2.755-2.025,5.081-4.78,5.2L306.71,352.05z" fill="#3F456B"/><path d="M309.59,421.07c-2.685,0.002-4.893-2.117-5-4.8v-1.07c-0.113-2.761,2.034-5.092,4.795-5.205   c2.761-0.113,5.092,2.034,5.205,4.795l0,0v1.07c0.113,2.759-2.032,5.086-4.79,5.2L309.59,421.07z" fill="#3F456B"/><path d="M348,213c-20.158,0-36.5-16.342-36.5-36.5S327.842,140,348,140s36.5,16.342,36.5,36.5   C384.478,196.649,368.149,212.978,348,213z M348,150c-14.636,0-26.5,11.864-26.5,26.5S333.364,203,348,203s26.5-11.864,26.5-26.5   C374.483,161.871,362.629,150.017,348,150z" fill="#3F456B"/><path d="M348,193.17c-9.207,0-16.67-7.463-16.67-16.67s7.463-16.67,16.67-16.67c9.207,0,16.67,7.463,16.67,16.67   C364.659,185.702,357.202,193.159,348,193.17z M348,169.83c-3.684,0-6.67,2.986-6.67,6.67s2.986,6.67,6.67,6.67   c3.684,0,6.67-2.986,6.67-6.67C354.67,172.816,351.684,169.83,348,169.83L348,169.83z" fill="#3F456B"/><path d="M206,181h-62c-2.761,0-5-2.239-5-5s2.239-5,5-5h62c2.761,0,5,2.239,5,5S208.761,181,206,181z" fill="#3F456B"/><path d="M206,196c-2.761,0-5-2.239-5-5v-15c0-2.761,2.239-5,5-5s5,2.239,5,5v15C211,193.761,208.761,196,206,196z" fill="#3F456B"/></g></svg>