<?xml version="1.0" ?><svg id="Lines" viewBox="0 0 512 512" xmlns="http://www.w3.org/2000/svg"><defs><style>.cls-1{fill:#3f456b;}</style></defs><title/><path class="cls-1" d="M257.26,500.78c-34.62,0-67.45-6.49-97.57-19.29a242.65,242.65,0,0,1-66.61-42.44c-34.22-30.51-49.71-60.67-50.35-61.94A5,5,0,0,1,44,371l88.91-74.23a5,5,0,0,1,6.41,7.68L53.57,376c5,8.67,20.1,32.38,46.47,55.81a232.79,232.79,0,0,0,63.8,40.54c28.81,12.2,60.24,18.39,93.42,18.39a5,5,0,0,1,0,10Z"/><path class="cls-1" d="M410.37,339.81a5,5,0,0,1-3.23-1.18l-37.52-31.81a5,5,0,1,1,6.47-7.63L413.61,331a5,5,0,0,1-3.24,8.81Z"/><path class="cls-1" d="M257.26,500.78a5,5,0,0,1,0-10c45.8,0,87.8-12,124.83-35.64a5,5,0,1,1,5.38,8.42C348.81,488.26,305,500.78,257.26,500.78Z"/><path class="cls-1" d="M254.54,370.94a145.06,145.06,0,0,1-145-145.22V182.47a5,5,0,0,1,10,0v43.25a135.08,135.08,0,1,0,270.16,0l-.09-43.24a5,5,0,0,1,5-5h0a5,5,0,0,1,5,5l.09,43.25A145.1,145.1,0,0,1,254.54,370.94Z"/><path class="cls-1" d="M116.54,264.59h-.32c-18.48-1.16-33-16.29-33-34.45a34.62,34.62,0,0,1,29.26-34,5,5,0,1,1,1.65,9.86,24.65,24.65,0,0,0-20.91,24.16c0,12.89,10.36,23.64,23.59,24.47a5,5,0,0,1-.31,10Z"/><path class="cls-1" d="M393.25,264.59a5,5,0,0,1-.31-10c13.23-.83,23.6-11.58,23.6-24.47A24.66,24.66,0,0,0,395.62,206a5,5,0,0,1,1.65-9.86,34.63,34.63,0,0,1,29.27,34c0,18.16-14.48,33.29-33,34.45Z"/><path class="cls-1" d="M394.26,196.71H371.67a5,5,0,0,1,0-10h22.59a5,5,0,0,1,0,10Z"/><path class="cls-1" d="M271.17,196.71H115.54a5,5,0,1,1,0-10H271.17a5,5,0,0,1,0,10Z"/><path class="cls-1" d="M254.58,302.78A32.68,32.68,0,1,1,287.7,270.1,32.94,32.94,0,0,1,254.58,302.78Zm0-55.36A22.68,22.68,0,1,0,277.7,270.1,22.93,22.93,0,0,0,254.58,247.42Z"/><path class="cls-1" d="M52.58,212.68A32.68,32.68,0,1,1,85.7,180,32.94,32.94,0,0,1,52.58,212.68Zm0-55.36A22.68,22.68,0,1,0,75.7,180,22.93,22.93,0,0,0,52.58,157.32Z"/><path class="cls-1" d="M453.5,199.66A33,33,0,0,1,420.38,167c0-18,14.86-32.67,33.12-32.67S486.62,149,486.62,167A33,33,0,0,1,453.5,199.66Zm0-55.36A22.68,22.68,0,1,0,476.62,167,22.92,22.92,0,0,0,453.5,144.3Z"/><path class="cls-1" d="M317.75,491.14a18.82,18.82,0,1,1,19-18.82A18.95,18.95,0,0,1,317.75,491.14Zm0-27.64a8.82,8.82,0,1,0,9,8.82A8.95,8.95,0,0,0,317.75,463.5Z"/><path class="cls-1" d="M58.5,366.78a18.82,18.82,0,1,1,19-18.82A18.95,18.95,0,0,1,58.5,366.78Zm0-27.64a8.82,8.82,0,1,0,9,8.82A8.95,8.95,0,0,0,58.5,339.14Z"/><path class="cls-1" d="M196.15,490.67a18.83,18.83,0,1,1,19-18.83A19,19,0,0,1,196.15,490.67Zm0-27.65a8.83,8.83,0,1,0,9,8.82A8.94,8.94,0,0,0,196.15,463Z"/><path class="cls-1" d="M110.54,430.84a18.82,18.82,0,1,1,19-18.82A18.95,18.95,0,0,1,110.54,430.84Zm0-27.64a8.82,8.82,0,1,0,9,8.82A8.94,8.94,0,0,0,110.54,403.2Z"/><path class="cls-1" d="M200.43,165a32.68,32.68,0,1,1,33.12-32.68A32.93,32.93,0,0,1,200.43,165Zm0-55.36a22.68,22.68,0,1,0,23.12,22.68A22.92,22.92,0,0,0,200.43,109.65Z"/><path class="cls-1" d="M114.5,187.47a5,5,0,0,1-5-5V157c0-1-.28-25-16.67-25-5.69,0-10,1.64-13.23,5-6.76,7.09-6.37,19.64-6.37,19.76a5,5,0,1,1-10,.47c0-.68-.68-16.87,9.11-27.13,5.14-5.38,12-8.11,20.47-8.11,21.1,0,26.67,22.9,26.67,35v25.46A5,5,0,0,1,114.5,187.47Z"/><path class="cls-1" d="M312.28,116.49a5,5,0,0,1-5-5V87.76c0-.32,1.29-32.74-17.21-52.12C280.79,25.93,267.91,21,251.78,21c-17.72,0-31.72,5.29-41.61,15.73-18.49,19.51-17,50.69-17,51a2.44,2.44,0,0,1,0,.27v18.77a5,5,0,1,1-10,0V88.12C183,85.28,182,52,202.92,29.85,214.77,17.34,231.21,11,251.78,11c19,0,34.33,6,45.57,17.78,21,22.07,20,56.54,19.93,59.33v23.38A5,5,0,0,1,312.28,116.49Z"/><path class="cls-1" d="M43.39,158.84h-.3a5,5,0,0,1-4.7-5.28,173,173,0,0,1,13.52-53.29c15.93-36.55,42.86-59.2,77.87-65.51,38.35-6.91,57.2,14.57,65,28a5,5,0,1,1-8.64,5c-7.95-13.64-23.88-28.73-54.62-23.19-32,5.77-55.73,25.85-70.47,59.67a164.49,164.49,0,0,0-12.7,49.88A5,5,0,0,1,43.39,158.84Z"/><path class="cls-1" d="M394.5,187.47a5,5,0,0,1-5-5V157c0-11.37,5.55-33.29,26.25-35,20.19-1.66,25.75,14.54,27.58,19.86a5,5,0,0,1-9.46,3.24c-3.54-10.32-8.24-13.88-17.3-13.14-16.71,1.38-17.07,24.09-17.07,25.05v25.44A5,5,0,0,1,394.5,187.47Z"/><path class="cls-1" d="M464.5,146a5,5,0,0,1-5-4.78h0a145.51,145.51,0,0,0-12.06-47.64c-14.27-31.43-37.81-49-69.95-52.28-30.16-3.07-56.25,12.52-63.49,25a5,5,0,0,1-8.65-5c9.87-16.94,40.65-33.18,73.16-29.87C414,35,441.07,55.16,456.67,89.75a153.54,153.54,0,0,1,12.83,51,5,5,0,0,1-4.78,5.21Z"/><path class="cls-1" d="M179.44,228.5a5,5,0,0,1-4.72-6.65c1.94-5.52,8-14.87,18.25-14.87,5.62,0,10.46,2.75,14,8a26,26,0,0,1,3.43,7.28,5,5,0,1,1-9.66,2.58S198.48,217,193,217c-5.79,0-8.78,8.09-8.81,8.17A5,5,0,0,1,179.44,228.5Z"/><path class="cls-1" d="M307.44,228.5a5,5,0,0,1-4.72-6.65c1.94-5.52,8-14.87,18.25-14.87,5.62,0,10.46,2.75,14,8a26,26,0,0,1,3.43,7.28,5,5,0,1,1-9.66,2.58S326.48,217,321,217c-5.79,0-8.78,8.09-8.81,8.17A5,5,0,0,1,307.44,228.5Z"/><path class="cls-1" d="M314.75,463.5a5,5,0,0,1-3.41-1.34L256.6,411.22l-53.18,50.89a5,5,0,0,1-8.4-2.85l-10.17-66.51-64.3,13.65a5,5,0,0,1-5.93-5.93l13.57-63.89-32.42,3.09a5,5,0,0,1-1-10L134,326a5,5,0,0,1,5.36,6L126,395,188,381.87a5,5,0,0,1,6,4.13l9.52,62.24,49.65-47.51a5,5,0,0,1,6.86-.05l51.09,47.55,7.88-60a5,5,0,0,1,5.85-4.27l61.87,11.22-16-57.51a5,5,0,0,1,5.43-6.3l35.36,4.36a5,5,0,1,1-1.23,9.93l-27.92-3.45,16.09,58a5,5,0,0,1-5.71,6.26l-64.54-11.7-8.46,64.42a5,5,0,0,1-4.95,4.35Z"/><path class="cls-1" d="M220.14,117.6a5,5,0,0,1-5-4.7c-.14-2.36-1.1-23.39,9.17-34.3a20,20,0,0,1,14.93-6.35,5,5,0,0,1,0,10,9.84,9.84,0,0,0-7.65,3.21c-6.24,6.62-6.78,21.62-6.46,26.83a5,5,0,0,1-4.69,5.3Z"/><path class="cls-1" d="M471.4,389.69a5,5,0,0,1-.5-10,5,5,0,0,0,4.49-4.46L484,291.6a5,5,0,0,0-4.46-5.48L427.1,280.7a5,5,0,0,0-5.49,4.46L413,368.81a5,5,0,0,0,1.47,4.07,5,5,0,0,1-7,7.1,14.94,14.94,0,0,1-4.38-12.2l8.64-83.65a15,15,0,0,1,16.46-13.38l52.46,5.42A15,15,0,0,1,494,292.63l-8.64,83.65a15.05,15.05,0,0,1-13.42,13.38Z"/><path class="cls-1" d="M256,196.71a5,5,0,0,1-5-5V128c0-10.55-2.67-17.91-7.94-21.86-8.12-6.09-20.56-2.71-20.68-2.67a5,5,0,0,1-2.8-9.6c.7-.21,17.27-4.89,29.48,4.27C257,104.08,261,114.13,261,128v63.71A5,5,0,0,1,256,196.71Z"/><path class="cls-1" d="M256.55,500.78a5,5,0,0,1-5-5V404.34a5,5,0,0,1,10,0v91.44A5,5,0,0,1,256.55,500.78Z"/><path class="cls-1" d="M440.7,500.06A65,65,0,0,1,402.89,488a63.71,63.71,0,0,1-9-96.36,5,5,0,1,1,7.21,6.92,53.71,53.71,0,0,0,7.55,81.29,55.28,55.28,0,0,0,41.07,9.51c30-4.85,50.58-32.83,45.82-62.38a53.79,53.79,0,0,0-26.89-38.38,5,5,0,0,1,4.92-8.7,63.7,63.7,0,0,1,31.84,45.49c5.65,35-18.62,68.12-54.1,73.84A67.37,67.37,0,0,1,440.7,500.06Z"/><path class="cls-1" d="M440.7,500.06A65,65,0,0,1,402.89,488a63.72,63.72,0,0,1-8.71-96.63,5,5,0,1,1,7.18,7,53.71,53.71,0,0,0,7.33,81.52,55.28,55.28,0,0,0,41.07,9.51c30-4.85,50.58-32.83,45.82-62.38a53.71,53.71,0,0,0-27.83-38.9,5,5,0,0,1,4.74-8.8,63.59,63.59,0,0,1,33,46.11c5.65,35-18.62,68.12-54.1,73.84A67.37,67.37,0,0,1,440.7,500.06Z"/><path class="cls-1" d="M436.28,452.82c-22,0-41.41-15.65-45-37.63h0c-3.94-24.44,13.17-47.61,38.15-51.64a46.13,46.13,0,0,1,34.08,7.78,44.24,44.24,0,0,1,10.12,62.78,46.8,46.8,0,0,1-37.39,18.71ZM401.2,413.6c3.06,19,21.45,31.89,41,28.74a36.16,36.16,0,0,0,23.46-14.18,34.23,34.23,0,0,0-7.85-48.65,36.19,36.19,0,0,0-26.73-6.09c-19.53,3.16-32.93,21.18-29.86,40.18Z"/><path class="cls-1" d="M436.28,452.82c-22,0-41.41-15.65-45-37.63h0c-3.94-24.44,13.17-47.61,38.15-51.64a46.13,46.13,0,0,1,34.08,7.78,44.24,44.24,0,0,1,10.12,62.78,46.8,46.8,0,0,1-37.39,18.71ZM401.2,413.6c3.06,19,21.45,31.89,41,28.74a36.16,36.16,0,0,0,23.46-14.18,34.23,34.23,0,0,0-7.85-48.65,36.19,36.19,0,0,0-26.73-6.09c-19.53,3.16-32.93,21.18-29.86,40.18Z"/><path class="cls-1" d="M354.88,269.72h-.06a16.12,16.12,0,0,1-6.23-1.56c-6.12-2.61-11.92-5.7-17.53-8.68l-3.13-1.65c-.76-.4-1.56-.86-2.36-1.32s-1.37-.79-2-1.14a16.72,16.72,0,0,1-1.45-.89l-.09-.06c-2,1.07-4,2.2-6,3.38-3.08,1.77-6.26,3.6-9.64,5.25-.48.24-1.13.59-1.88,1-6.33,3.44-16.93,9.19-22.81,2.61a9.53,9.53,0,0,1-2.12-6.23c-.23-7.37.86-14.53,1.91-21.45l.41-2.68c.61-4.14,1.11-7.17,1.49-9.37-7.47-5.55-21.16-16.86-24.59-24.92-1.9-4.45-1-7.63.08-9.52a10.48,10.48,0,0,1,7.12-4.78c7.54-2.35,26.1-3.58,34.11-4a178.37,178.37,0,0,1,12.27-28.12,12.6,12.6,0,0,1,5.26-5.28,11.52,11.52,0,0,1,8.32-.59,9.89,9.89,0,0,1,2.45,1.14,13.42,13.42,0,0,1,4.36,4.87A179.39,179.39,0,0,1,344.62,184c8,.55,26.54,2,34,4.5a10.42,10.42,0,0,1,7,4.88c1.06,1.9,1.91,5.09,0,9.52-3.51,7.93-17.14,18.92-24.73,24.42a130,130,0,0,1,3.22,32.73C364,265.75,360.19,269.71,354.88,269.72Zm-65.28-8.91Zm-21.83-63.25c0,.14.11.32.19.53,2.14,5,14.23,15.9,23.74,22.54a5,5,0,0,1,2.05,5.05c-.37,1.92-1,5.58-2,12.1l-.41,2.7c-1,6.61-2,12.86-1.81,19.16,1.84-.24,5.25-1.71,10.17-4.38.9-.49,1.68-.91,2.26-1.2,3.08-1.5,6-3.16,9-4.93,2.74-1.57,5.57-3.2,8.55-4.71a5,5,0,0,1,2.29-.54H322c2.21,0,4.08,1.25,5.59,2.24.25.17.48.32.66.42.74.39,1.52.84,2.31,1.3s1.39.79,2.05,1.14l3.15,1.67c5.67,3,11,5.87,16.77,8.31a14.52,14.52,0,0,0,1.64.62,120.17,120.17,0,0,0-3.74-33.15,5,5,0,0,1,2-5.37c9.61-6.51,21.85-17.23,24.06-22.21a5.17,5.17,0,0,0,.21-.53h0a4.52,4.52,0,0,1-1-.23c-6.3-2.22-27.55-3.86-35.2-4.31a5,5,0,0,1-4.52-3.62,168.32,168.32,0,0,0-12-29.59,3.56,3.56,0,0,0-1-1.29,1.71,1.71,0,0,0-1,0h0a3.6,3.6,0,0,0-1,1.27A166.89,166.89,0,0,0,308.59,190a5,5,0,0,1-4.57,3.56c-7.67.34-28.94,1.68-35.26,3.81a3.15,3.15,0,0,1-.93.22Z"/><path class="cls-1" d="M464,353.7a5,5,0,0,1-4.82-3.7l-9-33.37L433.6,347.26a5,5,0,0,1-8.8-4.76l22.51-41.65a5,5,0,0,1,9.23,1.07l12.28,45.47A5,5,0,0,1,464,353.7Z"/><path class="cls-1" d="M461,344.36a5.07,5.07,0,0,1-.55,0l-26.84-2.94a5,5,0,1,1,1.09-9.94l26.84,2.94a5,5,0,0,1-.54,10Z"/><path class="cls-1" d="M412.65,214.24a5,5,0,0,1-.75-9.94,77,77,0,0,0,33.88-14.09,5,5,0,0,1,5.88,8.09,87,87,0,0,1-38.25,15.88A5,5,0,0,1,412.65,214.24Z"/><path class="cls-1" d="M480,159.68a5,5,0,0,1-4.59-7,100.42,100.42,0,0,0,8.18-40.1c0-51-37.26-92.57-83.07-92.57-20.12,0-39.53,8.12-54.67,22.88a5,5,0,0,1-7-7.16C355.86,19.16,377.76,10,400.5,10c51.32,0,93.07,46,93.07,102.57a110.46,110.46,0,0,1-9,44.07A5,5,0,0,1,480,159.68Z"/><path class="cls-1" d="M414.83,297.83a5,5,0,0,1-2.35-.58c-19.36-10.32-15.61-32.52-10.93-42.82a5,5,0,0,1,9.11,4.13c-.39.87-9.37,21.39,6.52,29.86a5,5,0,0,1-2.35,9.41Z"/><path class="cls-1" d="M256.89,341.33c-27.1,0-64.4-6.75-88.23-38.86-14.29-19.25-16.81-38.39-16.91-39.19a5,5,0,0,1,9.93-1.25h0A82.45,82.45,0,0,0,177,296.88c17.16,22.85,44,34.45,79.93,34.45s63-11.61,80.57-34.5A83.8,83.8,0,0,0,353.33,262a5,5,0,0,1,9.91,1.41c-.12.8-2.95,19.92-17.54,39.15C332.27,320.22,306,341.33,256.89,341.33Z"/><path class="cls-1" d="M39.11,328.39a7.37,7.37,0,0,1-3.7-1,7.88,7.88,0,0,1-3.32-4.31,75.22,75.22,0,0,1-3.21-13.75l-.29-1.73c-.32-1.85-.59-3.5-.81-4.92-6.45-2.22-16-6.24-19.67-10.42a8.27,8.27,0,0,1-2.26-7.36A8.49,8.49,0,0,1,10,279.4c4.05-2.85,13.75-6.86,19.14-9A117.52,117.52,0,0,1,31,251.73a9.84,9.84,0,0,1,2.65-5.18A9.24,9.24,0,0,1,39.84,244a8.39,8.39,0,0,1,2.2.27,10.25,10.25,0,0,1,4.4,2.51,118.26,118.26,0,0,1,12.39,14.12c5.61-1.41,15.84-3.79,20.79-3.82a8.51,8.51,0,0,1,6.57,2,8.28,8.28,0,0,1,2.44,7.3c-.55,5.47-5.86,14.16-9.81,19.72a84.84,84.84,0,0,1,8.07,18.66c1.33,4.43-.74,8.62-4.91,10a12,12,0,0,1-4.81.37c-4.32-.37-8.5-1.09-12.53-1.79L62.39,313c-.56-.09-1.16-.21-1.76-.34s-1-.2-1.39-.27L59,312.3c-.75.8-1.48,1.62-2.24,2.46-1.54,1.72-3.13,3.49-4.9,5.21-.23.23-.53.55-.89.93C48.34,323.69,43.91,328.39,39.11,328.39ZM17,286.79c3.21,2.22,10.33,5.36,16.72,7.29a5,5,0,0,1,3.53,4.16c.15,1.22.48,3.54,1.18,7.66l.3,1.76a91.62,91.62,0,0,0,1.91,9.39c1.2-1.05,2.48-2.41,3.05-3s.88-.94,1.19-1.24c1.53-1.48,2.94-3.05,4.43-4.72,1.37-1.52,2.78-3.1,4.33-4.64l0,0a5.13,5.13,0,0,1,2.08-1.28,8.4,8.4,0,0,1,4.86.22l.39.11c.47.08,1.07.2,1.66.32l1.41.28,2.27.39c3.47.6,6.78,1.17,10.13,1.53a75.07,75.07,0,0,0-7.88-16.47,5,5,0,0,1,.26-5.74c4.08-5.28,8-12,9.37-15.65-4.68.46-14.45,2.75-20.2,4.27a5,5,0,0,1-5.42-2,106.29,106.29,0,0,0-12-14.37,106.71,106.71,0,0,0-1.42,18.67,5,5,0,0,1-3.23,4.81C30.37,280.62,21.09,284.44,17,286.79ZM57.18,307h0ZM14.83,288.15h0Zm.67-2.67ZM80.8,267h0ZM39.35,253.9Z"/></svg>