<?xml version="1.0" ?><svg viewBox="0 0 512 512" xmlns="http://www.w3.org/2000/svg"><defs><style>.cls-1{fill:#3f456b;}</style></defs><title/><g id="Lines"><path class="cls-1" d="M202.36,297.22a101,101,0,1,1,71.4-172.32h0a100.92,100.92,0,0,1-71.4,172.32Zm0-191.85A90.93,90.93,0,1,0,266.69,132,90.69,90.69,0,0,0,202.36,105.37Z"/><path class="cls-1" d="M237.94,423.78h-.36c-1.55-.11-38.44-2.83-82.34-17.06-58.55-19-101.05-49.59-122.89-88.54C8.59,275.78,4.93,229.31,21.47,180,38.35,129.73,71,93.46,84.27,80.21S133.8,34.28,184.1,17.4C233.37.86,279.85,4.52,322.23,28.29c39,21.84,69.58,64.33,88.55,122.88,14.22,43.9,17,80.8,17.06,82.35a5,5,0,0,1-3.71,5.18c-.68.18-69.41,18.84-116,65.39s-65.21,115.29-65.39,116A5,5,0,0,1,237.94,423.78ZM243.1,17.27q-27.14,0-55.82,9.61C139,43.09,104.1,74.52,91.34,87.28S47.16,134.93,31,183.21c-15.6,46.49-12.2,90.25,10.13,130.07,26,46.39,78.11,71.24,117.24,83.92a388.23,388.23,0,0,0,76,16.23c4.79-15.92,24.42-74,66.82-116.41h0c42.4-42.39,100.49-62,116.4-66.82A388.59,388.59,0,0,0,401.2,154C388.52,115,363.68,63,317.34,37,293.88,23.86,269.05,17.27,243.1,17.27Z"/><path class="cls-1" d="M266.86,415.76a170.91,170.91,0,0,1-26.1-1.8,5,5,0,0,1,1.67-9.86h0c.73.13,73.69,11.8,115.32-29.83a5,5,0,0,1,7.07,7.07c-18.83,18.83-46.29,30.44-79.41,33.56C278.72,415.53,272.46,415.76,266.86,415.76Z"/><path class="cls-1" d="M249.61,391a5,5,0,0,1-1.06-9.89l99.54-21.65a5,5,0,0,1,2.12,9.78L250.68,390.9A5.63,5.63,0,0,1,249.61,391Z"/><path class="cls-1" d="M384,362.16a5,5,0,0,1-3.54-8.53c40.94-40.94,28.51-114.17,28.38-114.9a5,5,0,1,1,9.85-1.75,190.51,190.51,0,0,1,1.39,44.73c-2.76,33.14-14,60.46-32.55,79A4.94,4.94,0,0,1,384,362.16Z"/><path class="cls-1" d="M370.19,348.33a4.84,4.84,0,0,1-1.13-.13,5,5,0,0,1-3.75-6L388,243.72a5,5,0,0,1,9.75,2.24l-22.7,98.49A5,5,0,0,1,370.19,348.33Z"/><path class="cls-1" d="M475.83,496a5,5,0,0,1-3.54-1.46L345.61,367.9a5.11,5.11,0,0,1-1.18-1.89c-.16-.46-3.81-11.33,6.26-21.39s20.86-6.13,21.31-5.95a5,5,0,0,1,1.72,1.12L500.4,466.47a5,5,0,0,1,0,7.07l-21,21A5,5,0,0,1,475.83,496ZM353.69,361.83,475.83,484l14-14L367.6,347.81c-1.72-.29-5.64-.32-9.84,3.88S353.46,360.08,353.69,361.83ZM368.46,348h0Z"/></g><g id="Outline"><path class="cls-1" d="M354.22,353.16a5,5,0,0,1-3.53-1.47l-47-47a5,5,0,0,1,7.07-7.07l47,47a5,5,0,0,1-3.54,8.54Z"/><path class="cls-1" d="M349.68,360a5.69,5.69,0,0,1-.91-.08l-75-13.69a5,5,0,0,1,1.79-9.84l75,13.69a5,5,0,0,1-.89,9.92Z"/><path class="cls-1" d="M361.38,348.31a5,5,0,0,1-4.91-4.1l-13.69-75a5,5,0,0,1,9.84-1.79l13.69,75a5,5,0,0,1-4,5.82A4.73,4.73,0,0,1,361.38,348.31Z"/></g></svg>