<?xml version="1.0" ?><svg viewBox="0 0 512 512" xmlns="http://www.w3.org/2000/svg"><defs><style>.cls-1{fill:#3f456b;}</style></defs><title/><g id="Lines"><path class="cls-1" d="M252.18,500.55c-37.43,0-73.73-10.9-102.2-30.68-31.2-21.69-51.53-52.62-58.77-89.44C75.65,301.36,120.58,239.65,164,180c16.7-22.94,32.47-44.6,45-67.17,16.2-29.27,34.56-62.45,42.13-97.85a5,5,0,0,1,9.78,0c6.91,32.33,23.6,62.36,39.73,91.39l3.58,6.46c12.5,22.59,28.29,44.26,45,67.2,43.42,59.61,88.32,121.25,72.77,200.29-7.24,36.81-27.67,67.75-59.09,89.48-28.62,19.8-65,30.71-102.49,30.71l-8.17.07ZM256,35.42c-9.29,29.78-24.56,57.38-38.31,82.22-12.79,23.11-29.48,46-45.62,68.21-42.18,58-85.8,117.87-71.09,192.65,6.73,34.22,25.64,63,54.67,83.15,26.81,18.63,61.07,28.89,96.48,28.9l8.18-.07c35.5,0,69.88-10.28,96.85-28.93,29.22-20.23,48.23-49,55-83.19,14.71-74.75-28.89-134.6-71.05-192.48-16.15-22.17-32.86-45.11-45.66-68.24-1.18-2.14-2.37-4.28-3.57-6.44C278.43,87,264.6,62.11,256,35.42Z"/></g><g id="Outline"><path class="cls-1" d="M265,459a5,5,0,0,1-.46-10c40-3.8,69.34-18,87.09-42.32,28.66-39.19,17.61-92.11,17.49-92.64a5,5,0,0,1,9.77-2.13c.52,2.34,12.16,57.72-19.13,100.61-19.51,26.73-51.23,42.35-94.28,46.44Z"/></g></svg>