<?xml version="1.0" ?><svg id="Lines" viewBox="0 0 512 512" xmlns="http://www.w3.org/2000/svg"><defs><style>.cls-1{fill:#3f456b;}</style></defs><title/><g data-name="&lt;编组&gt;" id="_编组_"><path class="cls-1" d="M491.41,156.12H20.66a5,5,0,0,1-5-5V95a5,5,0,0,1,5-5H491.41a5,5,0,0,1,5,5v56.12A5,5,0,0,1,491.41,156.12Zm-465.75-10H486.41V100H25.66Z"/><path class="cls-1" d="M292.11,413.84a5,5,0,0,1-3.53-8.54L489.72,204.16l-3.3-52.72a5,5,0,1,1,10-.63l3.44,55a5,5,0,0,1-1.45,3.84l-.29.29L295.65,412.37A5,5,0,0,1,292.11,413.84Z"/><path class="cls-1" d="M220,413.84a5,5,0,0,1-3.53-1.47l-.57-.57L13.68,209.64a5,5,0,0,1-1.45-3.85l3.44-55a5,5,0,1,1,10,.63l-3.3,52.72L223.49,405.3a5,5,0,0,1-3.54,8.54Z"/><path class="cls-1" d="M255.46,423c-24.28,0-38.46-10.28-39.05-10.71a5,5,0,0,1-2-4c0-45.1-10.34-83.49-30.75-114.1-16.28-24.42-39-44-67.57-58.32C67.15,211.39,17.71,211.1,17.22,211.1a5,5,0,0,1,0-10c2.11,0,52.31.3,103.32,25.8C150.67,242,174.7,262.73,192,288.62c21.1,31.64,32,70.95,32.42,116.87,4.27,2.42,15.16,7.51,31.09,7.51s27.22-5.12,31.67-7.57c.43-45.9,11.33-85.19,32.41-116.81C336.8,262.73,360.83,242,391,226.9c51-25.5,101.2-25.8,103.31-25.8a5,5,0,0,1,0,10c-.49,0-50.23.34-99.15,24.9-28.48,14.3-51.14,33.92-67.37,58.33-20.33,30.58-30.64,68.91-30.64,113.93a5,5,0,0,1-2.11,4.08C294.39,412.78,279.68,423,255.46,423Z"/></g></svg>