<?xml version="1.0" ?><svg viewBox="0 0 512 512" xmlns="http://www.w3.org/2000/svg"><defs><style>.cls-1{fill:#3f456b;}</style></defs><title/><g id="Lines"><path class="cls-1" d="M319.07,445H194a15,15,0,0,1-15-15v-4.5a15,15,0,0,1,15-15h125a15,15,0,0,1,15,15V430A15,15,0,0,1,319.07,445ZM194,420.5a5,5,0,0,0-5,5V430a5,5,0,0,0,5,5h125a5,5,0,0,0,5-5v-4.5a5,5,0,0,0-5-5Z"/><path class="cls-1" d="M302.15,501.5H210.93c-12.13,0-22-9-22-20V440a5,5,0,0,1,10,0v41.5c0,5.42,5.49,10,12,10h91.22c6.5,0,12-4.58,12-10V440a5,5,0,0,1,10,0v41.5C324.15,492.53,314.28,501.5,302.15,501.5Z"/><path class="cls-1" d="M317.66,372.5H195.42a5,5,0,1,1,0-10H317.66a5,5,0,1,1,0,10Z"/><path class="cls-1" d="M274,395H238.13a5,5,0,0,1-5-5V367.75a5,5,0,0,1,10,0V385H269V368.57a5,5,0,0,1,10,0V390A5,5,0,0,1,274,395Z"/><path class="cls-1" d="M200.17,420.25a4.26,4.26,0,0,1-.61,0,5,5,0,0,1-4.36-5.56L212.68,270.9a5,5,0,0,1,9.93,1.2L205.13,415.85A5,5,0,0,1,200.17,420.25Z"/><path class="cls-1" d="M313.83,420.25a5,5,0,0,1-4.94-4.26l-21-140.67a5,5,0,0,1,9.89-1.48l21,140.67a5,5,0,0,1-4.21,5.68A4.71,4.71,0,0,1,313.83,420.25Z"/><path class="cls-1" d="M249.56,372a5,5,0,0,1-4.48-2.76c-.47-.94-11.6-23.35-23-62.53a613.51,613.51,0,0,1-24-163.15c0-46.35,9.43-82.64,28-107.9C240.3,16.27,254.84,11,255.45,10.78a5,5,0,0,1,3.34,9.43h0c-.12,0-12.75,4.8-25.22,22.09C212.44,71.58,208,113.49,208,143.5c1.46,130.62,45.58,220.37,46,221.26a5,5,0,0,1-4.47,7.24Z"/><path class="cls-1" d="M262.74,372a4.91,4.91,0,0,1-2.19-.51,5,5,0,0,1-2.3-6.68c.43-.89,43.46-90.66,44.91-221.37,0-54.31-13.1-85-24.1-101.18-11.74-17.29-23.61-22-23.73-22.09a5,5,0,0,1,3.52-9.36c2.22.83,54.31,21.49,54.31,132.69A628.12,628.12,0,0,1,289.7,306.68c-11.16,39.17-22,61.58-22.46,62.51A5,5,0,0,1,262.74,372Z"/><path class="cls-1" d="M306.62,372a5,5,0,0,1-2.84-9.12C347.9,332.47,385.57,289.13,407.14,244c17.43-36.5,32.6-91.66,5.85-147.11-12.39-25.67-33.85-45.4-63.81-58.65C323,26.62,291,20.5,256.67,20.5H256c-32.85.08-63.42,5.47-88.41,15.59-28.87,11.7-50.2,29.4-63.37,52.61-25.78,45.41-25.8,95.52-.07,148.94,25.92,53.81,71.44,97.94,105.06,125.49a5,5,0,1,1-6.34,7.74c-34.4-28.19-81-73.43-107.73-128.89C67.89,185.43,68,132.2,95.51,83.77c14.32-25.22,37.3-44.38,68.31-56.95C190,16.23,221.85,10.58,256,10.5h.71c35.72,0,69.09,6.41,96.55,18.56C385.41,43.3,408.55,64.65,422,92.51c22.54,46.72,20.52,100.59-5.83,155.77C393.86,295,355,339.74,309.46,371.12A5.05,5.05,0,0,1,306.62,372Z"/><path class="cls-1" d="M232.18,372a5,5,0,0,1-3.57-1.49c-1-1-25.2-25.79-49.73-66.46-22.68-37.62-49.73-96.36-49.73-162.55,0-67.6,35.87-99.68,65.95-114.69A161.68,161.68,0,0,1,260.5,10.5h0a5,5,0,0,1,0,10h0c-.31,0-31.07.25-61.26,15.41-39.88,20-60.11,55.56-60.11,105.59,0,63.9,26.27,120.85,48.3,157.39,23.92,39.67,48.05,64.36,48.29,64.6a5,5,0,0,1-3.56,8.51Z"/><path class="cls-1" d="M280.12,372a5,5,0,0,1-3.57-8.51c.25-.24,24.51-25.1,48.44-64.83,22-36.48,48.15-93.36,48.15-157.16,0-50-20.22-85.56-60.1-105.59-30.19-15.16-61-15.41-61.26-15.41a5,5,0,0,1,0-10h0A161.67,161.67,0,0,1,317.2,26.81c30.08,15,65.94,47.09,65.94,114.69,0,66.19-27,124.93-49.73,162.55-24.53,40.67-48.71,65.42-49.73,66.46A5,5,0,0,1,280.12,372Z"/><path class="cls-1" d="M256,282.67a131.31,131.31,0,0,1-40.73-6.47,5,5,0,0,1,3.38-9.41h0A123.77,123.77,0,0,0,256,272.67c20.5,0,34.25-5.71,34.39-5.77a5,5,0,0,1,3.92,9.2C293.65,276.37,278.65,282.67,256,282.67Z"/><path class="cls-1" d="M192.69,282.67a68.64,68.64,0,0,1-29.13-6.74,5,5,0,0,1,4.64-8.86,59.35,59.35,0,0,0,24.49,5.6c13.46,0,22.23-5.36,22.31-5.42a5,5,0,0,1,5.29,8.5C219.83,276,209,282.67,192.69,282.67Z"/><path class="cls-1" d="M142.6,282.67a61.27,61.27,0,0,1-27.47-6.81,5,5,0,0,1,4.89-8.73h0a51.72,51.72,0,0,0,22.58,5.54,40.93,40.93,0,0,0,20.51-5.33,5,5,0,0,1,5.55,8.32A50.09,50.09,0,0,1,142.6,282.67Z"/><path class="cls-1" d="M318,282.67c-16.66,0-27.76-6.61-28.23-6.89a5,5,0,0,1,5.18-8.56A49.13,49.13,0,0,0,318,272.67a61.94,61.94,0,0,0,25.28-5.62,5,5,0,1,1,4.54,8.9A71.55,71.55,0,0,1,318,282.67Z"/><path class="cls-1" d="M371.69,282.67c-16,0-26.72-6.66-27.17-6.95a5,5,0,0,1,5.36-8.44,45,45,0,0,0,21.81,5.39,56.46,56.46,0,0,0,24-5.58,5,5,0,0,1,4.71,8.82A66.38,66.38,0,0,1,371.69,282.67Z"/><path class="cls-1" d="M317.73,420.5a5,5,0,0,1-4.36-7.43l80.27-144a5,5,0,1,1,8.73,4.86l-80.27,144A5,5,0,0,1,317.73,420.5Z"/><path class="cls-1" d="M197.86,420.5a5,5,0,0,1-4.38-2.57l-80.27-144a5,5,0,1,1,8.74-4.86l80.27,144a5,5,0,0,1-4.36,7.43Z"/><path class="cls-1" d="M98.48,414.73a5,5,0,0,1-5-4.36c-.43-3.31-2.93-7.31-3.86-8.57a5,5,0,0,1,8-6c.49.67,4.9,6.74,5.75,13.24a5,5,0,0,1-4.31,5.61C98.91,414.71,98.69,414.73,98.48,414.73Z"/><path class="cls-1" d="M177.54,499.88h-125A40.76,40.76,0,0,1,42.38,420c-.07-.82-.1-1.64-.1-2.47a31.86,31.86,0,0,1,51-25.45A55.22,55.22,0,0,1,197,415.22a5,5,0,0,1-10,.56A45.23,45.23,0,0,0,99.58,402.3,5,5,0,0,1,91,403.7a21.85,21.85,0,0,0-38.76,13.84,21.56,21.56,0,0,0,.61,5.13,5,5,0,0,1-4,6.11,30.75,30.75,0,0,0,4,61.08H185.09a27.18,27.18,0,0,0,10.75-2.34,5,5,0,1,1,4,9.14,37.28,37.28,0,0,1-14.75,3.2Z"/><path class="cls-1" d="M74.59,430a5.05,5.05,0,0,1-1.56-.26c-11.37-3.73-26.63-.54-26.78-.5a5,5,0,0,1-2.11-9.78c.73-.16,18-3.81,32,.78A5,5,0,0,1,74.59,430Z"/><path class="cls-1" d="M431.36,295.77a5,5,0,0,1-2.58-9.29c13.22-7.94,32.05-4.35,32.85-4.2a5,5,0,0,1-1.92,9.82h0c-.16,0-15.89-3-25.79,2.95A4.89,4.89,0,0,1,431.36,295.77Z"/><path class="cls-1" d="M445.74,355.88H328.61a5,5,0,0,1,0-10H453.29a27.23,27.23,0,0,0,4.52-54,5,5,0,0,1-3.32-2.22,5.08,5.08,0,0,1-.63-3.95,45.25,45.25,0,0,0-34-55.49,5,5,0,0,1,2.16-9.77,55.28,55.28,0,0,1,42.53,62.85,37.23,37.23,0,0,1-11.23,72.61Z"/></g><g id="Outline"><path class="cls-1" d="M229.89,420.25a5,5,0,0,1-4.84-3.76L212.8,368.74a5,5,0,0,1,9.69-2.48L234.74,414a5,5,0,0,1-3.6,6.08A4.93,4.93,0,0,1,229.89,420.25Z"/><path class="cls-1" d="M281.92,420.25a4.93,4.93,0,0,1-1.25-.16,5,5,0,0,1-3.6-6.08l12.25-47.75a5,5,0,0,1,9.69,2.48l-12.25,47.75A5,5,0,0,1,281.92,420.25Z"/><path class="cls-1" d="M317.66,470H195.42a5,5,0,1,1,0-10H317.66a5,5,0,1,1,0,10Z"/><path class="cls-1" d="M474.57,219.42h-.38a5,5,0,0,1-4.62-4.86c-.29-12.89-16.68-14.59-17.37-14.65a5,5,0,0,1,.89-10c6.32.55,16.64,3.74,22.35,11.65,4.13-4.91,11-9.19,22.42-8a5,5,0,0,1-1,10c-14.23-1.48-16.94,9.53-17.33,11.76A5,5,0,0,1,474.57,219.42Z"/><path class="cls-1" d="M66.34,344.39a5,5,0,0,1-5-4.34c-1.66-12.79-18.11-12.73-18.84-12.71h-.06a5,5,0,0,1-.12-10c6.32-.12,17,1.94,23.47,9.2,3.58-5.33,10-10.33,21.44-10.38h0a5,5,0,0,1,0,10c-14.32.06-15.82,11.3-16,13.55a5,5,0,0,1-4.83,4.67Z"/></g></svg>