<?xml version="1.0" ?><svg viewBox="0 0 512 512" xmlns="http://www.w3.org/2000/svg"><defs><style>.cls-1{fill:#3f456b;}</style></defs><title/><g id="Lines"><path class="cls-1" d="M465,346a5,5,0,0,1-5-5V245c0-27.37-5.38-53.1-16-76.47A172.58,172.58,0,0,0,400.48,110C363.18,77.1,311.87,59,256,59S148.82,77.1,111.52,110A172.58,172.58,0,0,0,68,168.53C57.38,191.9,52,217.63,52,245v96a5,5,0,0,1-10,0V245c0-28.8,5.68-55.92,16.87-80.6a182.71,182.71,0,0,1,46-61.94C144,68,197.7,49,256,49s112,19,151.09,53.46a182.71,182.71,0,0,1,46,61.94C464.32,189.08,470,216.2,470,245v96A5,5,0,0,1,465,346Z"/><path class="cls-1" d="M465,346a5.05,5.05,0,0,1-1.62-.27C462.42,345.4,366.8,313,256,313S49.56,344.91,48.6,345.24a5,5,0,0,1-3.2-9.48c1-.32,98.08-32.76,210.6-32.76s209.66,32.94,210.62,33.27A5,5,0,0,1,465,346Z"/><path class="cls-1" d="M68.3,462a28,28,0,0,1-14.56-3.7C47.85,454.83,40.68,447,40,429.58a792.7,792.7,0,0,1,2-94.05,5,5,0,1,1,10,.94,780.76,780.76,0,0,0-2,92.72c.4,10.38,3.38,17.29,8.84,20.53,7.28,4.32,19.36,2.52,34.94-5.21,28.35-14.06,94.64-37.87,163.22-37.87a5,5,0,0,1,0,10c-66.73,0-131.2,23.15-158.78,36.83C86.74,459.17,76.73,462,68.3,462Z"/><path class="cls-1" d="M446,462c-8.6,0-18.79-2.85-30.21-8.52-27.58-13.68-92-36.83-158.78-36.83a5,5,0,0,1,0-10c68.58,0,134.87,23.81,163.22,37.87,15.69,7.79,28.37,9.57,35.7,5,6.68-4.15,8.08-13.25,8.08-20.16,0-43.17-3.94-92.48-4-93a5,5,0,0,1,10-.8c0,.49,4,50.2,4,93.78,0,17.11-7,25-12.81,28.65A28.38,28.38,0,0,1,446,462Z"/><path class="cls-1" d="M61.32,441.08a25.1,25.1,0,0,1-9.79-1.81c-5.46-2.31-9.29-6.65-11.39-12.89a5,5,0,0,1,9.48-3.18c1.16,3.45,3.06,5.69,5.81,6.86,4.19,1.77,12.76,2.18,29.8-6,48-22.92,107-35.41,170.72-36.1a5,5,0,0,1,.1,10c-62.25.68-119.83,12.82-166.51,35.12C78.46,438.42,69,441.08,61.32,441.08Z"/><path class="cls-1" d="M451.7,441.08c-7.69,0-17.14-2.66-28.23-8C376.79,410.82,319.22,398.68,257,398a5,5,0,0,1,.06-10h.05c63.7.69,122.73,13.18,170.71,36.1,17,8.14,25.62,7.73,29.81,6,2.74-1.17,4.65-3.41,5.81-6.86a5,5,0,0,1,9.48,3.18c-2.1,6.24-5.93,10.58-11.39,12.89A25.13,25.13,0,0,1,451.7,441.08Z"/><path class="cls-1" d="M256,313a5,5,0,0,1-5-5V279a5,5,0,0,1,10,0v29A5,5,0,0,1,256,313Z"/><path class="cls-1" d="M256,211a5,5,0,0,1-5-5V54a5,5,0,0,1,10,0V206A5,5,0,0,1,256,211Z"/><path class="cls-1" d="M128,325a5,5,0,0,1-5-5V219c0-38.44,6.92-71.31,20.56-97.69,11-21.31,26.41-38.43,45.73-50.89C222.15,49.24,254.63,49,256,49a5,5,0,0,1,0,10h0c-.31,0-31.28.31-61.69,20.08-17.74,11.53-31.88,27.38-42,47.11C139.49,151.09,133,182.31,133,219V320A5,5,0,0,1,128,325Z"/><path class="cls-1" d="M384,325a5,5,0,0,1-5-5V219c0-36.83-6.54-68.15-19.44-93.09-10.21-19.75-24.43-35.59-42.27-47.08C286.88,59.23,256.31,59,256,59a5,5,0,0,1,0-10c1.37,0,33.85.24,66.71,21.42C342,82.88,357.42,100,368.44,121.31,382.08,147.69,389,180.56,389,219V320A5,5,0,0,1,384,325Z"/><path class="cls-1" d="M312,139a5,5,0,0,1-5-5v-1a5,5,0,0,1,10,0v1A5,5,0,0,1,312,139Z"/><path class="cls-1" d="M394,132a5,5,0,0,1-5-5v-1a5,5,0,0,1,10,0v1A5,5,0,0,1,394,132Z"/><path class="cls-1" d="M119,132a5,5,0,0,1-5-5v-1a5,5,0,0,1,10,0v1A5,5,0,0,1,119,132Z"/><path class="cls-1" d="M201,139a5,5,0,0,1-5-5v-1a5,5,0,0,1,10,0v1A5,5,0,0,1,201,139Z"/><path class="cls-1" d="M312,283H201a5,5,0,0,1-5-5V206a5,5,0,0,1,5-5H312a5,5,0,0,1,5,5v72A5,5,0,0,1,312,283ZM206,273H307V211H206Z"/></g><g id="Outline"><path class="cls-1" d="M287,235H227a5,5,0,0,1,0-10h60a5,5,0,0,1,0,10Z"/><path class="cls-1" d="M287,259H227a5,5,0,0,1,0-10h60a5,5,0,0,1,0,10Z"/><path class="cls-1" d="M431.8,402.38a44.48,44.48,0,0,1-7.48-.71,5,5,0,1,1,1.66-9.86,35.38,35.38,0,0,0,5.82.57h0a15.82,15.82,0,0,0,2.51-.18,5,5,0,0,1,1.57,9.88,26,26,0,0,1-4.07.3Zm-350.64,0h0c-5.51,0-9.67-1.48-12.73-4.46a5,5,0,0,1,7-7.16c.41.4,1.65,1.61,5.77,1.62a5,5,0,0,1,0,10Zm19.58-3.76a5,5,0,0,1-1.41-9.8c2.16-.63,4.51-1.36,7.18-2.22l2.29-.72a5,5,0,0,1,3,9.55l-2.21.69c-2.75.89-5.18,1.64-7.42,2.3A5,5,0,0,1,100.74,398.62Zm305.09-2a5.14,5.14,0,0,1-1.53-.24l-.83-.27c-2.64-.85-5.53-1.72-8.6-2.61a5,5,0,0,1,2.78-9.61c3.16.92,6.15,1.82,8.88,2.7l.82.27a5,5,0,0,1-1.52,9.76Zm-276.28-6.39a5,5,0,0,1-1.24-9.85c3.18-.81,6.48-1.62,9.81-2.41a5,5,0,1,1,2.3,9.74c-3.27.77-6.51,1.56-9.63,2.36A4.8,4.8,0,0,1,129.55,390.24Zm247.37-1.64a4.76,4.76,0,0,1-1.18-.14c-3.16-.76-6.41-1.52-9.66-2.25a5,5,0,0,1,2.18-9.76c3.31.74,6.62,1.51,9.83,2.29a5,5,0,0,1-1.17,9.86ZM445,387h-.11a5,5,0,0,1-4.89-5.1c0-.29,0-.58,0-.88,0-2.61-.07-5.57-.22-8.8a5,5,0,1,1,10-.45c.15,3.38.23,6.49.23,9.25,0,.37,0,.73,0,1.09A5,5,0,0,1,445,387Zm-286.17-3.45a5,5,0,0,1-1-9.9c3.3-.66,6.64-1.3,9.91-1.9a5,5,0,0,1,1.8,9.84c-3.22.59-6.5,1.22-9.75,1.87A5.5,5.5,0,0,1,158.82,383.59Zm188.76-1.29a6.07,6.07,0,0,1-.94-.08c-3.25-.62-6.53-1.21-9.76-1.76a5,5,0,1,1,1.69-9.86c3.28.56,6.62,1.17,9.93,1.79a5,5,0,0,1-.92,9.91Zm-279.44-2H68a5,5,0,0,1-4.84-5.16c.1-3.11.27-6.53.51-10.17a5,5,0,1,1,10,.67c-.23,3.52-.4,6.82-.5,9.82A5,5,0,0,1,68.14,380.26Zm120.24-1.82a5,5,0,0,1-.73-9.95c3.35-.5,6.71-1,10-1.4a5,5,0,0,1,1.29,9.92c-3.23.42-6.53.88-9.82,1.37A4.62,4.62,0,0,1,188.38,378.44Zm129.57-1a5.31,5.31,0,0,1-.68-.05c-3.28-.45-6.59-.87-9.83-1.25a5,5,0,0,1,1.17-9.93c3.3.39,6.67.82,10,1.27a5,5,0,0,1-.67,10Zm-99.78-2.65a5,5,0,0,1-.45-10c3.37-.31,6.76-.58,10.07-.81a5,5,0,1,1,.71,10c-3.25.23-6.57.5-9.87.8A3.54,3.54,0,0,1,218.17,374.83Zm69.94-.57h-.39c-3.31-.26-6.63-.48-9.87-.66a5,5,0,1,1,.55-10c3.31.18,6.71.4,10.09.67a5,5,0,0,1-.38,10Zm-40-1.17a5,5,0,0,1-.11-10c2.67-.06,5.34-.09,7.92-.09h2.21a5,5,0,0,1,0,10h-2.19c-2.51,0-5.1,0-7.7.09Zm195.17-16a5,5,0,0,1-5-4.52c-.31-3.22-.66-6.54-1-9.87a5,5,0,1,1,9.93-1.13c.39,3.39.74,6.77,1.06,10a5,5,0,0,1-4.5,5.46ZM70.42,350.32l-.54,0a5,5,0,0,1-4.43-5.51c.64-5.95,1.16-9.9,1.18-10.07A5,5,0,0,1,76.54,336s-.52,4-1.15,9.84A5,5,0,0,1,70.42,350.32Z"/></g></svg>