<?xml version="1.0" ?><svg id="Lines" viewBox="0 0 512 512" xmlns="http://www.w3.org/2000/svg"><defs><style>.cls-1{fill:#3f456b;}</style></defs><title/><path class="cls-1" d="M118.05,344a5,5,0,0,1-3.53-1.46L74.15,302.19c-5-5-5.81-9.74-5.64-12.88a16.62,16.62,0,0,1,5.61-11.14l16.67-16.66c6.47-6.47,20.58-3.7,23.34-3.08l31.2,6.71a5,5,0,0,1-2.1,9.78L112,268.2c-5.33-1.19-12.48-1.27-14.12.38l-16.81,16.8-.38.35h0a6.85,6.85,0,0,0-2.18,4.16c-.06,1.59.86,3.35,2.74,5.22l40.36,40.37a5,5,0,0,1-3.54,8.53Z"/><path class="cls-1" d="M217.89,443.58c-3.12,0-7.56-1.07-12.16-5.67l-40.37-40.37a5,5,0,1,1,7.07-7.07l40.37,40.37c1.88,1.87,3.59,2.79,5.23,2.73a6.81,6.81,0,0,0,4.19-2.22c.11-.13.19-.22.31-.34l16.81-16.8c1.63-1.64,1.55-8.91.39-14.08l-7-31.64a5,5,0,0,1,9.77-2.17l7,31.63c.61,2.75,3.39,16.86-3.08,23.33l-16.67,16.66a16.63,16.63,0,0,1-11.14,5.62Z"/><path class="cls-1" d="M158.08,401.67a5,5,0,0,1-3.54-1.47l-13.91-13.91a5,5,0,1,1,7.07-7.07l10.38,10.38,19-19a5,5,0,0,1,5.82-.91c21.34,11,53.22-5.85,76.21-21.87a362.63,362.63,0,0,0,46.44-39.16l60-60,4.87-4.85c17.78-17.63,19.64-19.48,16-34.8-5.11-21.42,10.65-36.38,12.52-38.06,69.52-69.59,76-140.2,76.06-140.9a5,5,0,1,1,10,.81c-.06.77-1.65,19.14-12.23,46.56-9.7,25.15-29.16,63-66.83,100.7a2,2,0,0,1-.26.24c-.53.47-13.39,12-9.5,28.33,5,20.78-.51,26.22-18.65,44.22-1.52,1.5-3.13,3.1-4.85,4.82l-60,60c-3.36,3.46-82.28,83.91-131,64.44L161.61,400.2A5,5,0,0,1,158.08,401.67Z"/><path class="cls-1" d="M128.09,371.68a5,5,0,0,1-3.54-1.47l-14.36-14.35a5,5,0,0,1,0-7.08l20.33-20.32c-16.59-54.82,60-126.8,64.26-130.78l59.9-59.9c1.72-1.72,3.32-3.33,4.82-4.85,18-18.14,23.43-23.62,44.22-18.65,16.44,3.93,28.21-9.37,28.33-9.5a2,2,0,0,1,.24-.26C370,66.85,407.84,47.38,433,37.69c27.42-10.58,45.79-12.17,46.56-12.23a5,5,0,0,1,.82,10h0c-.71.06-71.51,6.73-140.91,76.07-1.68,1.86-16.64,17.63-38.06,12.51-15.32-3.66-17.17-1.8-34.8,16l-4.85,4.87-60,60-.14.13a311.21,311.21,0,0,0-37.8,43.72c-15.65,22.25-32.33,54.08-22.9,79.38a5,5,0,0,1-1.15,5.28l-19,19,10.82,10.82a5,5,0,0,1,0,7.07A5,5,0,0,1,128.09,371.68Z"/><path class="cls-1" d="M161.73,248a5,5,0,0,1-3.54-1.47L60.67,149A5,5,0,0,1,67.74,142l97.52,97.52a5,5,0,0,1-3.53,8.54Z"/><path class="cls-1" d="M160.75,91.17a5.52,5.52,0,0,1-1.13-.13l-30.2-7a5,5,0,0,1,2.27-9.74l30.19,7a5,5,0,0,1-1.13,9.87Z"/><path class="cls-1" d="M218.93,104.69a4.92,4.92,0,0,1-1.14-.13l-30.94-7.19a5,5,0,1,1,2.26-9.74l30.94,7.19a5,5,0,0,1-1.12,9.87Z"/><path class="cls-1" d="M302.56,124.14a4.9,4.9,0,0,1-1.13-.13L244,110.66a5,5,0,1,1,2.27-9.74l57.4,13.35a5,5,0,0,1-1.13,9.87Z"/><path class="cls-1" d="M324.88,200.51c-4.44,0-8.19-1.27-11-4.06-13.18-13.18,7.68-47.82,35.09-75.23S411.05,73,424.22,86.13s-7.68,47.83-35.09,75.24h0C367.53,183,341.42,200.51,324.88,200.51ZM413.21,92.06c-3.66,0-9.44,1.56-17,5.48-12.43,6.4-26.67,17.32-40.1,30.75s-24.35,27.68-30.75,40.1c-5.95,11.55-6.46,18.87-4.34,21s9.44,1.61,21-4.33c12.43-6.4,26.67-17.32,40.1-30.76s24.36-27.67,30.75-40.1c5.95-11.55,6.47-18.86,4.34-21A5.56,5.56,0,0,0,413.21,92.06ZM385.6,157.83h0Z"/><path class="cls-1" d="M166.3,185.09a14.94,14.94,0,0,1-10.61-4.39l-1.56-1.56a15,15,0,0,1,0-21.21l77.22-77.22c2.59-2.59,8.25-6.35,13.47-9,8.62-4.29,14.48-4.69,17.94-1.24l1.56,1.56c3.46,3.46,3.05,9.33-1.24,17.94-2.61,5.22-6.37,10.89-8.95,13.47L176.9,180.7A14.91,14.91,0,0,1,166.3,185.09Zm90-106.92c-3.56.16-14.43,6.2-17.85,9.61L161.2,165a5,5,0,0,0,0,7.07l1.56,1.56a5,5,0,0,0,7.07,0l77.22-77.22c3.42-3.41,9.45-14.28,9.61-17.85Z"/><path class="cls-1" d="M117,163.78a14.94,14.94,0,0,1-10.61-4.39l-1.56-1.56a15,15,0,0,1,0-21.21L176.25,65.2c2-2,23.25-18.35,31.41-10.19l1.55,1.56C217.37,64.73,201.05,86,199,88L127.6,159.39A14.91,14.91,0,0,1,117,163.78ZM201.17,62.67c-3.57.16-14.44,6.19-17.85,9.6L111.9,143.69a5,5,0,0,0,0,7.07l1.56,1.56a5,5,0,0,0,7.07,0L192,80.9c3.41-3.41,9.45-14.28,9.61-17.85Z"/><path class="cls-1" d="M35.26,174.91a15,15,0,0,1-10.61-4.39L23.09,169a15,15,0,0,1,0-21.21L147,23.89c2.59-2.59,8.25-6.35,13.48-9,8.61-4.29,14.47-4.69,17.93-1.24l1.56,1.56c8.16,8.16-8.17,29.39-10.19,31.41L45.87,170.52A15,15,0,0,1,35.26,174.91ZM171.88,21.35c-3.57.16-14.44,6.2-17.86,9.61L30.16,154.82a5,5,0,0,0,0,7.07l1.56,1.56a5,5,0,0,0,7.07,0L162.66,39.59c3.41-3.41,9.44-14.28,9.6-17.85Z"/><path class="cls-1" d="M220.91,306.1a14.9,14.9,0,0,1-10.61-4.38l-1.56-1.56a15,15,0,0,1,0-21.21l69.41-69.41a15,15,0,0,1,21.22,0l1.56,1.56a15,15,0,0,1,0,21.21l-69.41,69.41A14.9,14.9,0,0,1,220.91,306.1Zm67.85-90.94a5,5,0,0,0-3.54,1.45L215.81,286a5,5,0,0,0,0,7.07l1.56,1.56a5,5,0,0,0,7.07,0l69.42-69.41a5,5,0,0,0,0-7.07l-1.57-1.56A4.93,4.93,0,0,0,288.76,215.16Z"/><path class="cls-1" d="M110.13,416.89a15,15,0,0,1-10.61-4.39L98,410.94a15,15,0,0,1,0-21.21l69.42-69.41a15,15,0,0,1,21.21,0l1.56,1.56a15,15,0,0,1,0,21.21L120.74,412.5A15,15,0,0,1,110.13,416.89Zm67.85-91a4.94,4.94,0,0,0-3.53,1.46L105,396.8a5,5,0,0,0,0,7.07l1.56,1.56a5,5,0,0,0,7.07,0L183.08,336a5,5,0,0,0,0-7.07l-1.56-1.56A5,5,0,0,0,178,325.93Z"/><path class="cls-1" d="M127.55,213.84a5,5,0,0,1-3.53-8.53l31.67-31.68a5,5,0,0,1,7.07,7.07l-31.67,31.68A5,5,0,0,1,127.55,213.84Z"/><path class="cls-1" d="M364.64,450.93a5,5,0,0,1-3.53-1.46l-97.62-97.62a5,5,0,1,1,7.07-7.08l97.62,97.63a5,5,0,0,1-3.54,8.53Z"/><path class="cls-1" d="M431,384.58a5,5,0,0,1-4.87-3.87l-7-30.19a5,5,0,0,1,9.74-2.26l7,30.19a5,5,0,0,1-3.74,6A4.9,4.9,0,0,1,431,384.58Z"/><path class="cls-1" d="M417.64,327.16a5,5,0,0,1-4.87-3.87l-7.19-30.94a5,5,0,0,1,9.74-2.27L422.51,321a5,5,0,0,1-3.74,6A4.9,4.9,0,0,1,417.64,327.16Z"/><path class="cls-1" d="M404.34,270a5,5,0,0,1-4.86-3.87l-13.35-57.41a5,5,0,1,1,9.74-2.26l13.35,57.4a5,5,0,0,1-3.74,6A5.54,5.54,0,0,1,404.34,270Z"/><path class="cls-1" d="M341.6,360.39A14.94,14.94,0,0,1,331,356l-1.57-1.56h0a15,15,0,0,1,0-21.21L406.66,256c2.58-2.58,8.25-6.35,13.47-8.95,8.61-4.29,14.48-4.7,17.93-1.24l1.56,1.56c3.46,3.46,3.06,9.32-1.24,17.93-2.6,5.23-6.37,10.89-8.95,13.48L352.21,356A15,15,0,0,1,341.6,360.39Zm-5.1-13,1.57,1.56a5,5,0,0,0,7.07,0l77.22-77.22c3.41-3.42,9.44-14.29,9.61-17.86l-.39-.38c-3.57.16-14.44,6.19-17.85,9.6L336.5,340.31a5,5,0,0,0,0,7.07Z"/><path class="cls-1" d="M362.91,409.69a14.94,14.94,0,0,1-10.61-4.38l-1.56-1.56a15,15,0,0,1,0-21.22l71.41-71.41c2-2,23.25-18.35,31.41-10.2l1.56,1.56c8.16,8.16-8.17,29.38-10.19,31.41l-71.42,71.42A14.92,14.92,0,0,1,362.91,409.69Zm84.17-101.11c-3.56.16-14.43,6.19-17.85,9.61l-71.41,71.42a5,5,0,0,0,0,7.07h0l1.56,1.56a5,5,0,0,0,7.07,0l71.42-71.42c3.41-3.41,9.44-14.28,9.6-17.85Z"/><path class="cls-1" d="M351.78,491.43a14.9,14.9,0,0,1-10.6-4.38l-1.56-1.56h0a15,15,0,0,1,0-21.22L463.48,340.41c2.58-2.58,8.25-6.35,13.47-9,8.61-4.29,14.48-4.7,17.93-1.24l1.56,1.56c3.46,3.45,3.06,9.32-1.24,17.93-2.6,5.22-6.37,10.89-8.95,13.47L362.39,487.05A14.92,14.92,0,0,1,351.78,491.43Zm-5.09-13,1.56,1.56a4.94,4.94,0,0,0,3.53,1.46,5,5,0,0,0,3.54-1.45L479.18,356.11c3.41-3.41,9.45-14.28,9.61-17.85l-.39-.39c-3.57.17-14.44,6.2-17.85,9.61L346.69,471.34a5,5,0,0,0,0,7.07Z"/><path class="cls-1" d="M301.3,387.59a5,5,0,0,1-3.54-8.54l31.67-31.67a5,5,0,1,1,7.07,7.07l-31.67,31.67A5,5,0,0,1,301.3,387.59Z"/><path class="cls-1" d="M220.42,228.45a5,5,0,0,1-3.54-8.53l115.41-115.4a5,5,0,1,1,7.07,7.07L224,227A5,5,0,0,1,220.42,228.45Z"/><path class="cls-1" d="M286.83,294.86a5,5,0,0,1-3.54-8.53l115.4-115.41a5,5,0,1,1,7.07,7.08L290.36,293.4A5,5,0,0,1,286.83,294.86Z"/><path class="cls-1" d="M106.37,386.4a5,5,0,0,1-3.54-1.46L92,374.08A5,5,0,0,1,92,367l18.22-18.23a5,5,0,0,1,7.08,7.08l-14.69,14.68,7.32,7.33a5,5,0,0,1-3.53,8.53Z"/><path class="cls-1" d="M139.86,419.89a5,5,0,0,1-3.54-1.46l-10.86-10.86a5,5,0,1,1,7.07-7.08l7.33,7.33,14.68-14.69a5,5,0,1,1,7.07,7.07l-18.22,18.23A5,5,0,0,1,139.86,419.89Z"/><path class="cls-1" d="M18.38,499.53A5.43,5.43,0,0,1,13,493.28c4.15-33.09,15.68-78,47.06-103.93,19.26-15.92,36.82-17.11,37.56-17.15a5,5,0,1,1,.58,10c-.13,0-15.53,1.2-32.34,15.35-21.53,18.14-36.05,49.61-42.16,91.24,101.93-14.76,106.54-73.9,106.58-74.51a5,5,0,0,1,10,.58c0,.74-1.23,18.34-17.16,37.62-14.3,17.33-43.91,39.52-103.72,47A5.75,5.75,0,0,1,18.38,499.53Z"/></svg>