<?xml version="1.0" ?><svg viewBox="0 0 512 512" xmlns="http://www.w3.org/2000/svg"><defs><style>.cls-1{fill:#3f456b;}</style></defs><title/><g id="Lines"><path class="cls-1" d="M192.45,198.42a5,5,0,0,1-3.72-1.67L45,36a5,5,0,0,1,3.73-8.33H336.2A5,5,0,0,1,339.93,36L196.18,196.75A5,5,0,0,1,192.45,198.42ZM59.89,37.67,192.45,185.92,325,37.67Z"/><path class="cls-1" d="M336.2,481.71H48.71A5,5,0,0,1,45,473.38L188.73,312.62a5,5,0,0,1,7.45,0L339.93,473.38a5,5,0,0,1-3.73,8.33Zm-276.31-10H325L192.45,323.46Z"/><path class="cls-1" d="M394.43,418.73a4.93,4.93,0,0,1-3-1L356,391.2a5,5,0,0,1-1-7l26.53-35.44a5,5,0,1,1,8,6L366,386.19l31.44,23.54a5,5,0,0,1-3,9Z"/><path class="cls-1" d="M364.53,392.07l-2.1,0a5,5,0,0,1,.15-10c1.57,0,3.17,0,4.73,0,71.51-1.5,128.47-60.88,127-132.39a129.68,129.68,0,0,0-132.38-127,5,5,0,0,1-.21-10A139.71,139.71,0,0,1,504.28,249.45c1.61,77-59.74,141-136.76,142.59C366.53,392.06,365.53,392.07,364.53,392.07Z"/></g><g id="Outline"><path class="cls-1" d="M369.69,257.69h-1a5,5,0,0,1,0-10h1a5,5,0,0,1,0,10Zm-21,0h-1a5,5,0,0,1,0-10h1a5,5,0,0,1,0,10Zm-21,0h-1a5,5,0,0,1,0-10h1a5,5,0,0,1,0,10Zm-21,0h-1a5,5,0,0,1,0-10h1a5,5,0,0,1,0,10Zm-21,0h-1a5,5,0,0,1,0-10h1a5,5,0,0,1,0,10Zm-21,0h-1a5,5,0,0,1,0-10h1a5,5,0,0,1,0,10Zm-21,0h-1a5,5,0,0,1,0-10h1a5,5,0,0,1,0,10Zm-21,0h-1a5,5,0,0,1,0-10h1a5,5,0,0,1,0,10Zm-21,0h-1a5,5,0,0,1,0-10h1a5,5,0,0,1,0,10Zm-21,0h-1a5,5,0,0,1,0-10h1a5,5,0,0,1,0,10Zm-21,0h-1a5,5,0,0,1,0-10h1a5,5,0,0,1,0,10Zm-21,0h-1a5,5,0,0,1,0-10h1a5,5,0,0,1,0,10Zm-21,0h-1a5,5,0,0,1,0-10h1a5,5,0,0,1,0,10Zm-21,0h-1a5,5,0,0,1,0-10h1a5,5,0,0,1,0,10Zm-21,0h-1a5,5,0,0,1,0-10h1a5,5,0,0,1,0,10Zm-21,0h-1a5,5,0,0,1,0-10h1a5,5,0,0,1,0,10Zm-21,0h-1a5,5,0,1,1,0-10h1a5,5,0,0,1,0,10Z"/></g></svg>