<?xml version="1.0" ?><svg viewBox="0 0 512 512" xmlns="http://www.w3.org/2000/svg"><defs><style>.cls-1{fill:#3f456b;}</style></defs><title/><g id="Lines"><path class="cls-1" d="M328.73,144h-145a29,29,0,0,1,0-58h145a29,29,0,0,1,0,58Zm-145-48a19,19,0,0,0,0,38h145a19,19,0,0,0,0-38Z"/><path class="cls-1" d="M232.73,144a5,5,0,0,1-5-5V91a5,5,0,0,1,10,0v48A5,5,0,0,1,232.73,144Z"/><path class="cls-1" d="M279.73,144a5,5,0,0,1-5-5V91a5,5,0,0,1,10,0v48A5,5,0,0,1,279.73,144Z"/><path class="cls-1" d="M94.82,500.5H70.06c-14.13,0-25.63-11.77-25.63-26.23V440.63a5,5,0,0,1,10,0v33.64c0,9,7,16.23,15.63,16.23H94.82c8.62,0,15.64-7.28,15.64-16.23V440.63a5,5,0,0,1,10,0v33.64C120.46,488.73,109,500.5,94.82,500.5Z"/><path class="cls-1" d="M439.34,500.5H414.58c-14.13,0-25.63-11.77-25.63-26.23v-32a5,5,0,0,1,10,0v32c0,9,7,16.23,15.63,16.23h24.76c8.62,0,15.64-7.28,15.64-16.23v-32a5,5,0,0,1,10,0v32C465,488.73,453.48,500.5,439.34,500.5Z"/><path class="cls-1" d="M463.82,445.62H327.54a5,5,0,0,1,0-10H463.82c4.6,0,8.08-1.31,10.64-4,5.73-6.05,5.2-17,5.2-17.14a2.62,2.62,0,0,1,0-.28v-64c0-.34,1-35.15-20.43-51.14-1.11-.87-25.56-20.09-30.71-41.81l-11.22-47.92c-.36-1.47-9.35-36.67-48-36.67H141.73c-38.86,0-47.92,36.32-48,36.69L82.5,257.22c-5,21.19-28.36,40-30.51,41.67-21.61,19-20.65,51-20.63,51.29v64c0,.1,0,.2,0,.3s-.53,11.07,5.2,17.12c2.56,2.71,6,4,10.64,4H181.91a5,5,0,0,1,0,10H47.19c-7.42,0-13.46-2.42-17.95-7.2-8.29-8.8-8-22.56-7.88-24.37V350.46c-.08-2.6-.69-37.43,24.14-59.18l.22-.19c.23-.17,22.71-17.88,27.05-36.16L84,207a64.33,64.33,0,0,1,11.12-22.17c7.81-10.14,22.24-22.22,46.62-22.22H369.28c24.38,0,38.81,12.08,46.62,22.22A64.42,64.42,0,0,1,427,207l11.22,47.91c4.33,18.27,26.82,36,27.05,36.16,25.16,18.8,24.45,56.64,24.36,59.36v63.59c.08,1.81.41,15.57-7.88,24.37C477.27,443.2,471.23,445.62,463.82,445.62Z"/><path class="cls-1" d="M491.23,262.77H459a14.05,14.05,0,0,1-14-14V229.06a14,14,0,0,1,14-14h32.27a14,14,0,0,1,14,14v19.68A14,14,0,0,1,491.23,262.77ZM459,225a4,4,0,0,0-4,4v19.68a4,4,0,0,0,4,4h32.27a4,4,0,0,0,4-4V229.06a4,4,0,0,0-4-4Z"/><path class="cls-1" d="M54.2,262.77H21.93a14,14,0,0,1-14-14V229.06a14,14,0,0,1,14-14H54.2a14,14,0,0,1,14,14v19.68A14.05,14.05,0,0,1,54.2,262.77ZM21.93,225a4,4,0,0,0-4,4v19.68a4,4,0,0,0,4,4H54.2a4,4,0,0,0,4-4V229.06a4,4,0,0,0-4-4Z"/><path class="cls-1" d="M443,277.37a5,5,0,0,1-2.87-9.1L458,255.71a5,5,0,1,1,5.75,8.18l-17.91,12.57A5,5,0,0,1,443,277.37Z"/><path class="cls-1" d="M422.26,213.19a5,5,0,0,1-4.77-3.51,118.4,118.4,0,0,0-16.75-31.4c-15.21-20.19-34-30.43-55.78-30.43H166.16c-21.81,0-40.58,10.24-55.78,30.43a118.08,118.08,0,0,0-16.76,31.41,5,5,0,0,1-9.54-3,126.25,126.25,0,0,1,18.12-34.17c17-22.68,39.09-34.67,64-34.67H345c24.86,0,47,12,64,34.67A126.25,126.25,0,0,1,427,206.69a5,5,0,0,1-4.77,6.5Z"/><path class="cls-1" d="M316.75,388.73H195a20,20,0,0,1-20-19.68l-3.27-27.75a5.85,5.85,0,0,1,0-.59,20,20,0,0,1,20-20H319.33a20,20,0,0,1,20,20,3.46,3.46,0,0,1,0,.46L336.75,369A20,20,0,0,1,316.75,388.73Zm-135-48.28,3.27,27.7a5.63,5.63,0,0,1,0,.58,10,10,0,0,0,10,10H316.75a10,10,0,0,0,10-10c0-.15,0-.3,0-.46l2.56-27.76a10,10,0,0,0-10-9.8H191.69A10,10,0,0,0,181.7,340.45Z"/><path class="cls-1" d="M459.82,416.4H49.16c-10,0-17.5-2.59-22.4-7.7a19.15,19.15,0,0,1-5.4-13.32,5,5,0,0,1,10,.37,9.33,9.33,0,0,0,2.75,6.16c2.92,2.94,8.12,4.49,15,4.49H459.82c.18,0,18.82-.2,19.53-11.12a5,5,0,0,1,10,.64c-.55,8.54-6.26,15-16.07,18.26A47.82,47.82,0,0,1,459.82,416.4Z"/><path class="cls-1" d="M327,468.79H183a5,5,0,0,1-5-5V411.3a5,5,0,0,1,5-5H327a5,5,0,0,1,5,5v52.49A5,5,0,0,1,327,468.79Zm-139-10H322V416.3H188Z"/><path class="cls-1" d="M436.58,271.13l-.43,0c-176.69-15.09-359.48-.15-361.3,0a5,5,0,0,1-.84-10c1.84-.16,185.47-15.17,363,0a5,5,0,0,1-.42,10Z"/><path class="cls-1" d="M132.11,386.88H26.6a5,5,0,0,1,0-10H132.11c8.29,0,15-7,15-15.61v-4.95c0-8.61-6.74-15.61-15-15.61H27.6a5,5,0,0,1,0-10H132.11c13.81,0,25,11.49,25,25.61v4.95C157.14,375.39,145.92,386.88,132.11,386.88Z"/><path class="cls-1" d="M62,386.72a5,5,0,0,1-5-5v-46a5,5,0,0,1,10,0v46A5,5,0,0,1,62,386.72Z"/><path class="cls-1" d="M484.12,386.88H378.61c-13.8,0-25-11.49-25-25.61v-4.95c0-14.12,11.23-25.61,25-25.61H483.12a5,5,0,0,1,0,10H378.61c-8.29,0-15,7-15,15.61v4.95c0,8.61,6.74,15.61,15,15.61H484.12a5,5,0,0,1,0,10Z"/><path class="cls-1" d="M448.76,386.72a5,5,0,0,1-5-5v-46a5,5,0,0,1,10,0v46A5,5,0,0,1,448.76,386.72Z"/><path class="cls-1" d="M480.5,328.33a5,5,0,0,1-5-5V258.12a5,5,0,0,1,10,0v65.21A5,5,0,0,1,480.5,328.33Z"/><path class="cls-1" d="M480.5,224.5a5,5,0,0,1-5-5V25.5a5,5,0,0,0-5-5H42.5a5,5,0,0,0-5,5V219.38a5,5,0,0,1-10,0V25.5a15,15,0,0,1,15-15h428a15,15,0,0,1,15,15v194A5,5,0,0,1,480.5,224.5Z"/><path class="cls-1" d="M32.5,322.25a5,5,0,0,1-5-5v-59a5,5,0,0,1,10,0v59A5,5,0,0,1,32.5,322.25Z"/><path class="cls-1" d="M149.73,84.5H66.33a15,15,0,0,1-15-15V50a15,15,0,0,1,15-15h83.4a15,15,0,0,1,15,15V69.5A15,15,0,0,1,149.73,84.5ZM66.33,45a5,5,0,0,0-5,5V69.5a5,5,0,0,0,5,5h83.4a5,5,0,0,0,5-5V50a5,5,0,0,0-5-5Z"/><path class="cls-1" d="M447.92,84.5H364.53a15,15,0,0,1-15-15V50a15,15,0,0,1,15-15h83.39a15,15,0,0,1,15,15V69.5A15,15,0,0,1,447.92,84.5ZM364.53,45a5,5,0,0,0-5,5V69.5a5,5,0,0,0,5,5h83.39a5,5,0,0,0,5-5V50a5,5,0,0,0-5-5Z"/><path class="cls-1" d="M94.33,196.67H32.5a5,5,0,0,1,0-10H94.33a5,5,0,1,1,0,10Z"/><path class="cls-1" d="M80.25,244.5h-17a5,5,0,0,1,0-10h17a5,5,0,0,1,0,10Z"/><path class="cls-1" d="M479.88,196.67H418a5,5,0,0,1,0-10h61.84a5,5,0,0,1,0,10Z"/><path class="cls-1" d="M449.15,244.5h-17a5,5,0,0,1,0-10h17a5,5,0,0,1,0,10Z"/></g><g id="Outline"><path class="cls-1" d="M220.57,388.85a5,5,0,0,1-5-5V325.71a5,5,0,0,1,10,0v58.14A5,5,0,0,1,220.57,388.85Z"/><path class="cls-1" d="M266.53,388.85a5,5,0,0,1-5-5V325.71a5,5,0,0,1,10,0v58.14A5,5,0,0,1,266.53,388.85Z"/><path class="cls-1" d="M243.55,388.85a5,5,0,0,1-5-5V325.71a5,5,0,0,1,10,0v58.14A5,5,0,0,1,243.55,388.85Z"/><path class="cls-1" d="M312.49,388.85a5,5,0,0,1-5-5V325.71a5,5,0,0,1,10,0v58.14A5,5,0,0,1,312.49,388.85Z"/><path class="cls-1" d="M289.51,388.85a5,5,0,0,1-5-5V325.71a5,5,0,0,1,10,0v58.14A5,5,0,0,1,289.51,388.85Z"/><path class="cls-1" d="M197.59,388.85a5,5,0,0,1-5-5V325.71a5,5,0,0,1,10,0v58.14A5,5,0,0,1,197.59,388.85Z"/><path class="cls-1" d="M300.66,437.43a5,5,0,0,1,5-5h0a5,5,0,0,1,5,5h0a5,5,0,0,1-5,5h0A5,5,0,0,1,300.66,437.43Zm-20,0a5,5,0,0,1,5-5h0a5,5,0,0,1,5,5h0a5,5,0,0,1-5,5h0A5,5,0,0,1,280.66,437.43Zm-20,0a5,5,0,0,1,5-5h0a5,5,0,0,1,5,5h0a5,5,0,0,1-5,5h0A5,5,0,0,1,260.66,437.43Zm-20,0a5,5,0,0,1,5-5h0a5,5,0,0,1,5,5h0a5,5,0,0,1-5,5h0A5,5,0,0,1,240.66,437.43Zm-20,0a5,5,0,0,1,5-5h0a5,5,0,0,1,5,5h0a5,5,0,0,1-5,5h0A5,5,0,0,1,220.66,437.43Zm-20,0a5,5,0,0,1,5-5h0a5,5,0,0,1,5,5h0a5,5,0,0,1-5,5h0A5,5,0,0,1,200.66,437.43Z"/><path class="cls-1" d="M300.66,57.5a5,5,0,0,1,5-5h0a5,5,0,0,1,5,5h0a5,5,0,0,1-5,5h0A5,5,0,0,1,300.66,57.5Zm-20,0a5,5,0,0,1,5-5h0a5,5,0,0,1,5,5h0a5,5,0,0,1-5,5h0A5,5,0,0,1,280.66,57.5Zm-20,0a5,5,0,0,1,5-5h0a5,5,0,0,1,5,5h0a5,5,0,0,1-5,5h0A5,5,0,0,1,260.66,57.5Zm-20,0a5,5,0,0,1,5-5h0a5,5,0,0,1,5,5h0a5,5,0,0,1-5,5h0A5,5,0,0,1,240.66,57.5Zm-20,0a5,5,0,0,1,5-5h0a5,5,0,0,1,5,5h0a5,5,0,0,1-5,5h0A5,5,0,0,1,220.66,57.5Zm-20,0a5,5,0,0,1,5-5h0a5,5,0,0,1,5,5h0a5,5,0,0,1-5,5h0A5,5,0,0,1,200.66,57.5Z"/><path class="cls-1" d="M50.22,461.36a5,5,0,1,1,0-10H67.57a5,5,0,0,1,0,10Z"/><path class="cls-1" d="M50,480a5,5,0,0,1,0-10H67.81a5,5,0,0,1,0,10Z"/><path class="cls-1" d="M97.22,461.36a5,5,0,1,1,0-10h17.35a5,5,0,0,1,0,10Z"/><path class="cls-1" d="M97,480a5,5,0,0,1,0-10h17.82a5,5,0,0,1,0,10Z"/><path class="cls-1" d="M394.22,461.36a5,5,0,1,1,0-10h17.35a5,5,0,0,1,0,10Z"/><path class="cls-1" d="M394,480a5,5,0,0,1,0-10h17.82a5,5,0,0,1,0,10Z"/><path class="cls-1" d="M442.22,461.36a5,5,0,1,1,0-10h17.35a5,5,0,0,1,0,10Z"/><path class="cls-1" d="M442,480a5,5,0,0,1,0-10h17.82a5,5,0,0,1,0,10Z"/></g></svg>