<?xml version="1.0" ?><svg viewBox="0 0 512 512" xmlns="http://www.w3.org/2000/svg"><defs><style>.cls-1{fill:#3f456b;}</style></defs><title/><g id="Lines"><path class="cls-1" d="M352.12,475.37a99.78,99.78,0,1,1,99.78-99.78A99.89,99.89,0,0,1,352.12,475.37Zm0-189.56a89.78,89.78,0,1,0,89.78,89.78A89.88,89.88,0,0,0,352.12,285.81Z"/><path class="cls-1" d="M352.38,420.83a45,45,0,1,1,45-45A45.08,45.08,0,0,1,352.38,420.83Zm0-80.07a35,35,0,1,0,35,35A35.08,35.08,0,0,0,352.38,340.76Z"/><path class="cls-1" d="M80.27,475.61a67.81,67.81,0,1,1,67.8-67.81A67.89,67.89,0,0,1,80.27,475.61Zm0-125.61a57.81,57.81,0,1,0,57.8,57.8A57.87,57.87,0,0,0,80.27,350Z"/><path class="cls-1" d="M80.44,439.47A31.53,31.53,0,1,1,112,407.94,31.57,31.57,0,0,1,80.44,439.47Zm0-53.06A21.53,21.53,0,1,0,102,407.94,21.56,21.56,0,0,0,80.44,386.41Z"/><path class="cls-1" d="M279,444H135a5,5,0,0,1,0-10H279a5,5,0,0,1,0,10Z"/><path class="cls-1" d="M352,286a5.45,5.45,0,0,1-1.06-.11,5,5,0,0,1-3.83-5.95l49-224.85c.31-2,2.7-14.61,13.55-22.32,7.91-5.62,18.13-7.19,30.38-4.67l.23.06,47,12a5,5,0,1,1-2.48,9.68l-46.88-12c-9.33-1.9-16.86-.89-22.39,3-8,5.62-9.52,15.71-9.54,15.81s0,.27-.06.38l-49,225A5,5,0,0,1,352,286Z"/><path class="cls-1" d="M80,350a5,5,0,0,1-5-4.61,57.48,57.48,0,0,1,3.3-22c3.93-10.6,13.06-23.6,34.27-25.37h.14L307,287.09a5,5,0,0,1,.56,10L113.35,308C82.88,310.58,84.89,343.24,85,344.63A5,5,0,0,1,80.37,350Z"/><path class="cls-1" d="M259,405.67H143.07a5,5,0,0,1,0-10H259a5,5,0,0,1,0,10Z"/><path class="cls-1" d="M132.43,307.16a5,5,0,0,1-4.14-2.19A24.82,24.82,0,0,1,124,291V188a25,25,0,0,1,25-25H301a25,25,0,0,1,25,25v97a5,5,0,0,1-10,0V188a15,15,0,0,0-15-15H149a15,15,0,0,0-15,15V291a14.85,14.85,0,0,0,2.57,8.36,5,5,0,0,1-4.14,7.8Z"/><path class="cls-1" d="M476,396H446.9a5,5,0,0,1,0-10H476a15,15,0,0,0,15-15V203a15,15,0,0,0-15-15H373.34a5,5,0,1,1,0-10H476a25,25,0,0,1,25,25V371A25,25,0,0,1,476,396Z"/><path class="cls-1" d="M320,237H129a5,5,0,0,1,0-10H320a5,5,0,0,1,0,10Z"/><path class="cls-1" d="M80,350a5,5,0,0,1-5-4.61,57.48,57.48,0,0,1,3.3-22c3.93-10.6,13.06-23.6,34.27-25.37h.14L307,287.09a5,5,0,0,1,.56,10L113.35,308C82.88,310.58,84.89,343.24,85,344.63A5,5,0,0,1,80.37,350Z"/><path class="cls-1" d="M320,237H129a5,5,0,0,1,0-10H320a5,5,0,0,1,0,10Z"/><path class="cls-1" d="M487,501H27a15,15,0,0,1-15-15v-5a15,15,0,0,1,15-15H487a15,15,0,0,1,15,15v5A15,15,0,0,1,487,501ZM27,476a5,5,0,0,0-5,5v5a5,5,0,0,0,5,5H487a5,5,0,0,0,5-5v-5a5,5,0,0,0-5-5Z"/></g><g id="Outline"><path class="cls-1" d="M282,193h0a5,5,0,0,1-5-5V168a5,5,0,0,1,5-5h0a5,5,0,0,1,5,5v20A5,5,0,0,1,282,193Z"/><path class="cls-1" d="M252.36,193a5,5,0,0,1-5-5V168a5,5,0,0,1,10,0v20A5,5,0,0,1,252.36,193Z"/><path class="cls-1" d="M223.91,193a5,5,0,0,1-5-5V168a5,5,0,0,1,10,0v20A5,5,0,0,1,223.91,193Z"/><path class="cls-1" d="M195.45,193a5,5,0,0,1-5-5V168a5,5,0,0,1,10,0v20A5,5,0,0,1,195.45,193Z"/><path class="cls-1" d="M167,193a5,5,0,0,1-5-5V168a5,5,0,0,1,10,0v20A5,5,0,0,1,167,193Z"/><path class="cls-1" d="M461,275.78H418a5,5,0,0,1,0-10h43a5,5,0,0,1,0,10Z"/><path class="cls-1" d="M461,253.39H418a5,5,0,0,1,0-10h43a5,5,0,0,1,0,10Z"/><path class="cls-1" d="M461,231H418a5,5,0,0,1,0-10h43a5,5,0,0,1,0,10Z"/><path class="cls-1" d="M321,261H129a5,5,0,0,1,0-10H321a5,5,0,0,1,0,10Z"/><path class="cls-1" d="M321,283H129a5,5,0,0,1,0-10H321a5,5,0,0,1,0,10Z"/></g></svg>