<?xml version="1.0" ?><svg viewBox="0 0 512 512" xmlns="http://www.w3.org/2000/svg"><defs><style>.cls-1{fill:#3f456b;}</style></defs><title/><g id="Lines"><path class="cls-1" d="M88.05,350.8c-1.45,0-2.92-.05-4.4-.16C48,348,38.51,321.07,36.18,310.91,24.79,308.29,8.43,299,10,277.4c1.17-16,12.58-24.66,22.88-28.63-13.8-14.18-13.35-35.38-10.63-46.12,3.5-18.44,11.93-27.61,18.39-32.05a34,34,0,0,1,5.08-2.88,51.06,51.06,0,0,1-6.64-10.28c-4.72-9.82-8-25.54,3-44.75C51,97.32,66,89.3,85.75,89.44A84.64,84.64,0,0,1,108,92.76c7-12.62,16.89-17.86,22.65-19.94-.56-14,5.42-36.23,32.32-42.47,19-4.41,30.91.15,37.54,4.74a32,32,0,0,1,7.68,7.45c11.54-5,44.48-16.31,81.3-3.06a67.86,67.86,0,0,1,17-15.66c12-7.71,32.24-15.22,60.78-7.16,29.18,8.23,38.85,27.36,41.83,42a70.21,70.21,0,0,1,.23,25.53c8.57,4.95,28.8,19.68,27,47.56a49,49,0,0,1,14.38,5.93c8.95,5.56,19.74,16.73,20.28,38.33.48,19.45-6.27,30.24-13.68,36.22a71.71,71.71,0,0,1,12.94,4.74c14.64,7,32.2,22.28,32.76,54.86.3,17.76-5,31.36-15.68,40.43-16.24,13.76-40,12.59-48.79,11.57a55.46,55.46,0,0,1-12.27,12.86c-8.82,6.66-23.86,13.6-45.35,8.82-22.51-5-32-19.9-34.9-30.49-10,1.92-31.63,3.7-51.39-10.76-7.05,6.41-24.42,17.95-50.55,7.58-5.63,9.05-21.87,28.72-56.57,28.72l-2.15,0c-28.45-.66-41.82-12.11-48-21.17a72.94,72.94,0,0,1-7.82,11.5C118.6,344,104.32,350.8,88.05,350.8ZM85.21,99.34c-12.1,0-26,3.75-34.44,18.34-16.92,29.39,6.48,47.78,7.48,48.55a5,5,0,0,1-2.84,9c-.68,0-18.1,1.44-23.37,29.46A3,3,0,0,1,32,205c-.3,1.18-7.09,29.14,14.5,41.82a5,5,0,0,1-2,9.28c-.93.11-23.1,2.86-24.5,22-.64,8.74,2.52,15.09,9.64,19.4A32.65,32.65,0,0,0,41,301.63a5,5,0,0,1,4.41,4.49c.13,1.28,3.69,31.94,38.94,34.54,35.65,2.64,47.66-33.29,48.16-34.82a5,5,0,0,1,9.67.59c.19.9,5.34,23.2,43.36,24.07,16.35.37,30-4,40.55-13.13a45,45,0,0,0,11.18-14,5,5,0,0,1,6.72-2.51c29.83,14.13,45.52-5.57,46.17-6.41a5,5,0,0,1,7.21-.78c22.65,19.25,49.9,10.8,51,10.43a5,5,0,0,1,6.53,4.47c.06.84,1.79,21.26,28.1,27.12,33.85,7.53,48.33-19.36,48.48-19.64a5,5,0,0,1,5.34-2.6c.27,0,27.77,4.86,44-8.91,8.29-7,12.36-18,12.11-32.6-.38-22.07-9.5-37.55-27.09-46A67.61,67.61,0,0,0,439,219.59a5,5,0,0,1-.25-10,23.39,23.39,0,0,0,11.51-4.51c7.47-5.57,11.09-15.28,10.75-28.86-.81-32.41-29.34-35.32-30.55-35.42a5.09,5.09,0,0,1-3.5-1.89,5,5,0,0,1-1-3.83c4.61-30.88-23.05-43.16-24.23-43.67a5,5,0,0,1-2.85-5.93c.5-1.87,12-46.14-34.28-59.2C317,12.86,295.82,47.73,295.61,48.08a5,5,0,0,1-6.18,2.1c-42-16.92-80.53,3-80.91,3.22a5,5,0,0,1-7-2.53c-.29-.67-7.89-17.38-36.37-10.77-28.3,6.56-24.45,34.45-24.27,35.63a5,5,0,0,1-4.18,5.7c-.54.1-14.17,2.6-21.64,19.44a5,5,0,0,1-6.37,2.64A72.44,72.44,0,0,0,85.21,99.34Z"/><path class="cls-1" d="M64,258.9a5,5,0,0,1-2-.42c-10.11-4.46-20.6-1.88-20.7-1.86A5,5,0,1,1,38.72,247a45.85,45.85,0,0,1,21.76.41c3.6-10.89,13.47-25.89,33.75-29.06,29.85-4.68,42.44,14.1,43,14.9a5,5,0,1,1-8.38,5.45c-.37-.54-9.82-14.11-33-10.47-22.92,3.59-26.68,25.55-26.83,26.48a5,5,0,0,1-5,4.23Z"/><path class="cls-1" d="M355,172.22a5,5,0,0,1-4-8c11.47-14.94,29.18-14.35,37.17-13.17,10.76-19.5,32.8-22,43.51-20.45a5,5,0,0,1-1.43,9.9c-1.1-.16-25.41-3.25-34.7,18.18a5,5,0,0,1-5.92,2.83c-.79-.21-20-5.17-30.71,8.8A5,5,0,0,1,355,172.22Z"/><path class="cls-1" d="M147,137.37a5,5,0,0,1-4-8,26.82,26.82,0,0,1,21-9.75h.29C168,108.75,178.78,93.51,201,93.51c16.37,0,25.78,7,30.8,12.85a33.37,33.37,0,0,1,7.08,13.25,5,5,0,0,1-9.76,2.2c-.17-.72-4.66-18.3-28.12-18.3S173.09,125,172.91,125.89a5,5,0,0,1-5.66,4c-10.66-1.61-16,5.17-16.25,5.46A5,5,0,0,1,147,137.37Z"/><path class="cls-1" d="M344,238a5,5,0,0,1-3.74-1.68c-13.16-14.81-31-4.92-31.79-4.49a5,5,0,0,1-7.47-4.35c0-1.68-.68-16.67-17.48-18.28C266,207.52,261,223,260.78,223.65a5,5,0,0,1-9.57-2.89c2.48-8.31,12.63-23.5,33.27-21.52,16.17,1.56,23.17,12.21,25.53,21.08,10.26-3.36,25.87-4,37.73,9.36A5,5,0,0,1,344,238Z"/><path class="cls-1" d="M395.61,499.36a165,165,0,0,1-25.37-2C350,494.25,331,487,312.61,480c-9-3.43-18.29-7-27.52-9.94-27.59-8.89-57.35-9.77-82.81-9.47-5.77.07-12.71.37-20.74.72-28.9,1.25-68.49,3-102-4C38.18,448.64,16.14,428.48,14,397.34c-1.22-17.86,5.67-34.88,19.92-49.21a91.14,91.14,0,0,1,21.86-16.26,5,5,0,0,1,4.43,9h0c-.39.19-38.7,19.65-36.23,55.82,1.81,26.49,20.64,43.11,57.58,50.82,32.3,6.74,71.16,5.06,99.54,3.83,8.12-.35,15.13-.65,21-.73,26.28-.31,57,.62,86,9.95,9.47,3.05,18.89,6.64,28,10.11,17.92,6.83,36.45,13.89,55.61,16.88C420,495,478,480.38,491.46,430.44a41.72,41.72,0,0,0-7.29-36.27c-8-10.32-17.66-13.36-32.67-15.36l-2-.24c-7-.8-20.18-2.3-21.5-13.7-1.45-12.55,12.86-17,18.25-18.66,2.46-.77,5-1.37,7.41-1.95,6.52-1.55,12.67-3,17.12-7.34a19.24,19.24,0,0,0,3.91-22.83,5,5,0,1,1,9-4.38,29.36,29.36,0,0,1-5.93,34.39c-6.42,6.23-14.58,8.17-21.77,9.89-2.38.57-4.63,1.1-6.77,1.77-8,2.49-11.62,5-11.28,8,.41,3.52,8.41,4.43,12.7,4.92.78.09,1.51.17,2.16.26,13.77,1.83,28.14,4.82,39.25,19.14a51.79,51.79,0,0,1,9.05,45C488.4,480.13,441.45,499.36,395.61,499.36Z"/></g><g id="Outline"><path class="cls-1" d="M425,264.19a5,5,0,0,1-4.94-4.28c-.16-.94-2-9.76-14.36-10.53C393,248.6,389,257,388.63,257.91a5,5,0,0,1-6.47,2.79,5,5,0,0,1-2.81-6.51c.26-.66,6.55-16.05,27-14.79,16.65,1,22.74,12.93,23.64,19.07a5,5,0,0,1-4.23,5.67A6,6,0,0,1,425,264.19Z"/><path class="cls-1" d="M348,94a5,5,0,0,1-5-4.71c-.1-1.23-1.41-12.48-16.27-13.27-16.16-.86-21,11.45-21.06,11.58a5,5,0,0,1-9.36-3.54c2.53-6.67,12.25-19,30.94-18,19.35,1,25.29,15.28,25.73,22.67a5,5,0,0,1-4.7,5.29Z"/><path class="cls-1" d="M98,196.57a5,5,0,0,1-4.61-7A26.63,26.63,0,0,1,113.13,175a24.55,24.55,0,0,1,21.14,6.4c5.72-2,17.18-4.24,27,4.26a5,5,0,1,1-6.54,7.56c-8.21-7.1-19-1.69-19.42-1.46a5,5,0,0,1-6.34-1.47c-.19-.25-5.42-7-14.1-5.44a16.63,16.63,0,0,0-12.28,8.69A5,5,0,0,1,98,196.57Z"/><path class="cls-1" d="M180,270.56a5,5,0,0,1-1.52-.23,5,5,0,0,1-3.26-6.3c.2-.64,5.2-15.78,25.15-18.26,10.58-1.31,17.11,2,20.72,5.11a19.2,19.2,0,0,1,5.63,7.74l-9.46,3.25c-.28-.71-3.36-7.71-15.65-6.17-13.39,1.66-16.73,11-16.87,11.39A5,5,0,0,1,180,270.56Z"/><path class="cls-1" d="M156.93,399.27q-6.12,0-10.77-8.39a4.72,4.72,0,0,0-.91-1.25c-1.3.28-4.25,3.22-6,6a5,5,0,0,1-8.48-5.31c1.14-1.83,7.21-10.91,14.87-10.74,2.66.07,6.42,1.24,9.29,6.43a11.54,11.54,0,0,0,2.19,3.14,2.92,2.92,0,0,0,.37-.16c.56-.3,1.63-2.1,2.26-3.17,1.26-2.13,2.68-4.53,5-6.07a10.08,10.08,0,0,1,8.12-1.48c3.38.85,6.24,3.39,8.52,7.55,1.29,2.38,2.23,3,2.5,3.21.31-.12,1.21-.65,2.83-2.95l.12-.16c2.38-3.35,7.31-6.69,12.5-6.11,3.34.38,8,2.46,11.25,10.24a5,5,0,1,1-9.24,3.84c-1.14-2.75-2.39-4.06-3.13-4.14-1-.11-2.63,1.11-3.23,2l-.1.14c-1.31,1.86-5.33,7.56-11.59,7.19-4.17-.24-7.77-3.08-10.69-8.43a6.38,6.38,0,0,0-2.13-2.62,1.77,1.77,0,0,0-.27.14,14.85,14.85,0,0,0-1.89,2.78c-1.44,2.43-3.23,5.46-6.42,7A11.3,11.3,0,0,1,156.93,399.27Z"/><path class="cls-1" d="M370.93,433.27q-6.12,0-10.77-8.39a4.72,4.72,0,0,0-.91-1.25c-1.3.28-4.25,3.22-6,6a5,5,0,0,1-8.48-5.31c1.13-1.81,7.09-10.74,14.62-10.74h.25c2.66.07,6.42,1.24,9.29,6.43a11.54,11.54,0,0,0,2.19,3.14,2.92,2.92,0,0,0,.37-.16c.56-.3,1.63-2.1,2.26-3.17,1.26-2.13,2.68-4.53,5-6.07a10.08,10.08,0,0,1,8.12-1.48c3.38.85,6.24,3.39,8.52,7.55,1.29,2.38,2.23,3,2.5,3.21.31-.12,1.21-.65,2.83-2.95l.12-.16c2.38-3.35,7.31-6.69,12.5-6.11,3.34.38,8,2.46,11.25,10.24a5,5,0,1,1-9.24,3.84c-1.14-2.75-2.39-4.06-3.13-4.14-1-.11-2.63,1.11-3.23,2l-.1.14c-1.31,1.87-5.34,7.55-11.59,7.19-4.17-.24-7.77-3.08-10.69-8.43a6.38,6.38,0,0,0-2.13-2.62,1.77,1.77,0,0,0-.27.14,14.85,14.85,0,0,0-1.89,2.78c-1.44,2.43-3.23,5.46-6.42,7A11.3,11.3,0,0,1,370.93,433.27Z"/></g></svg>