<?xml version="1.0" ?><svg viewBox="0 0 512 512" xmlns="http://www.w3.org/2000/svg"><defs><style>.cls-1{fill:#3f456b;}</style></defs><title/><g id="Lines"><g data-name="&lt;编组&gt;" id="_编组_"><path class="cls-1" d="M270.6,501.15H78.1c-11.61,0-20.77-3.49-27.23-10.38-10-10.6-9.63-25.47-9.55-27.4V297.2c0-36.93,35.91-52.13,37.44-52.76l.11-.05c13.72-5.24,27.71-10.45,41.24-15.49,21.83-8.12,44.4-16.53,66.37-25.28l.27-.09c.3-.1,30.49-10.48,30.49-32.2a5,5,0,0,1,10,0c0,12.19-6.59,23.31-19.06,32.17A77.34,77.34,0,0,1,190.06,213c-22,8.77-44.62,17.18-66.46,25.32-13.49,5-27.43,10.21-41.08,15.42-1.82.77-31.2,13.65-31.2,43.5V463.5c0,.1,0,.21,0,.31s-.59,12.26,6.9,20.17c4.49,4.76,11.19,7.17,19.89,7.17H270.53a34.57,34.57,0,0,0,13.75-3.9c8.49-4.61,12.79-12.6,12.79-23.75,0-9-.07-164.59-.12-255.33V171.33a5,5,0,1,1,10,0v36.84c.05,90.74.12,246.33.12,255.33,0,36.48-36,37.64-36.36,37.64Z"/><path class="cls-1" d="M78.12,180.17c-29.11,0-36.8-23.79-36.8-36.37C41.32,70.57,100.9,11,174.12,11A132.73,132.73,0,0,1,288.5,76.28a5,5,0,0,1-8.61,5.09A122.81,122.81,0,0,0,51.32,143.8a33.7,33.7,0,0,0,3.5,13.7c4.35,8.4,12.19,12.67,23.3,12.67,25.65,0,26.48-23.53,26.49-26.22v-.24a5,5,0,0,1,10-.44s0,.25,0,.7a42.39,42.39,0,0,1-5.28,19.54C105,171.11,96.08,180.17,78.12,180.17Z"/></g><path class="cls-1" d="M446.24,176.33H151.7a50.92,50.92,0,1,1,0-101.83H446.24c8.44,0,21,5.59,21,21v59.1c.09,1.66.21,9.67-5.34,15.65C458.15,174.29,452.89,176.33,446.24,176.33Zm0-91.83H151.7a40.92,40.92,0,1,0,0,81.83H446.24c3.72,0,6.51-1,8.28-2.84,3-3.19,2.74-8.35,2.73-8.4s0-.24,0-.34V95.5C457.24,85.18,448.05,84.53,446.21,84.5Z"/><path class="cls-1" d="M272.5,468.5H80.5a5,5,0,0,1-5-5v-176a5,5,0,0,1,5-5h192a5,5,0,0,1,5,5v176A5,5,0,0,1,272.5,468.5Zm-187-10h182v-166H85.5Z"/><path class="cls-1" d="M159.9,218.17A91.9,91.9,0,0,1,83.11,177.4a5,5,0,0,1,8.33-5.54c15.36,23.07,40.32,36.31,68.46,36.31a82.41,82.41,0,0,0,29.42-5.39,5,5,0,0,1,3.56,9.35A92.52,92.52,0,0,1,159.9,218.17Z"/></g><g id="Outline"><path class="cls-1" d="M234,333.5H114.37a5,5,0,0,1,0-10H234a5,5,0,0,1,0,10Z"/><path class="cls-1" d="M234,365.33H114.37a5,5,0,0,1,0-10H234a5,5,0,0,1,0,10Z"/><path class="cls-1" d="M234,397.17H114.37a5,5,0,0,1,0-10H234a5,5,0,1,1,0,10Z"/><path class="cls-1" d="M213.32,429H135.05a5,5,0,1,1,0-10h78.27a5,5,0,0,1,0,10Z"/></g></svg>