<?xml version="1.0" ?><svg viewBox="0 0 512 512" xmlns="http://www.w3.org/2000/svg"><defs><style>.cls-1{fill:#3f456b;}</style></defs><title/><g id="Lines"><path class="cls-1" d="M256.32,500.78c-34.63,0-67.46-6.49-97.57-19.29a242.65,242.65,0,0,1-66.61-42.44c-34.23-30.51-49.71-60.67-50.35-61.94A5,5,0,0,1,43,371L132,296.78a5,5,0,0,1,6.41,7.68L52.62,376c5,8.67,20.11,32.38,46.48,55.81a232.4,232.4,0,0,0,63.8,40.54c28.8,12.2,60.24,18.39,93.42,18.39a5,5,0,0,1,0,10Z"/><path class="cls-1" d="M396.57,328.91a5,5,0,0,1-3.23-1.18l-24.67-20.91a5,5,0,1,1,6.47-7.63l24.67,20.91a5,5,0,0,1-3.24,8.81Z"/><path class="cls-1" d="M256.32,500.78a5,5,0,1,1,0-10c39,0,75.46-8.76,108.31-26a5,5,0,1,1,4.65,8.85C335,491.63,297,500.78,256.32,500.78Z"/><path class="cls-1" d="M253.6,370.94a145,145,0,0,1-145-145.22V182.47c0-3.95.16-7.95.47-11.87a5,5,0,0,1,10,.8c-.29,3.66-.44,7.38-.44,11.07v43.25a135.08,135.08,0,1,0,270.16,0l-.09-43.24c0-3.69-.15-7.4-.45-11a5,5,0,0,1,10-.81c.32,3.91.48,7.89.48,11.83l.09,43.24A145.1,145.1,0,0,1,253.6,370.94Z"/><path class="cls-1" d="M415.26,176H97a11.23,11.23,0,0,1-8.78-3.64c-3.12-3.5-3-8.18-2.93-9.59.13-15.53,13.09-22,22.33-23.76,14.92-57.29,60.12-101.59,116-113.33a5,5,0,1,1,2,9.79c-53.21,11.17-96.07,54-109.19,109.19a5,5,0,0,1-4.51,3.83,27.3,27.3,0,0,0-9,2.61c-5.15,2.61-7.66,6.5-7.66,11.9a5.68,5.68,0,0,1,0,.59,3.74,3.74,0,0,0,.44,2.14A2.15,2.15,0,0,0,97,166H415.26a2.11,2.11,0,0,0,1.3-.28,4,4,0,0,0,.44-2.13,3.81,3.81,0,0,1,0-.59c0-13.19-16-14.46-16.7-14.51a5,5,0,0,1-4.52-3.83c-13.11-55.16-56-98-109.19-109.19a5,5,0,0,1,2.06-9.79c55.9,11.74,101.11,56,116,113.33,9.24,1.79,22.19,8.23,22.32,23.76.11,1.41.19,6.09-2.92,9.59A11.23,11.23,0,0,1,415.26,176Z"/><path class="cls-1" d="M287.14,117a5,5,0,0,1-5-5V23.8a146.44,146.44,0,0,0-51.31-1V112a5,5,0,1,1-10,0V18.59a5,5,0,0,1,4.07-4.91,156.65,156.65,0,0,1,63.35,1.2,5,5,0,0,1,3.89,4.87V112A5,5,0,0,1,287.14,117Z"/><path class="cls-1" d="M114.6,248.3h-.32c-18.49-1.16-33-16.29-33-34.45a34.63,34.63,0,0,1,29.27-34,5,5,0,0,1,1.65,9.86,24.66,24.66,0,0,0-20.92,24.16c0,12.89,10.37,23.64,23.59,24.47a5,5,0,0,1-.3,10Z"/><path class="cls-1" d="M393.31,248.3a5,5,0,0,1-.31-10c13.23-.83,23.59-11.58,23.59-24.47a24.65,24.65,0,0,0-20.91-24.16,5,5,0,1,1,1.65-9.86,34.62,34.62,0,0,1,29.26,34c0,18.16-14.48,33.29-33,34.45Z"/><path class="cls-1" d="M179.36,148h-68a5,5,0,0,1,0-10h68a5,5,0,0,1,0,10Z"/><path class="cls-1" d="M400.67,148h-68a5,5,0,0,1,0-10h68a5,5,0,1,1,0,10Z"/><path class="cls-1" d="M348.47,252H294c-7,0-20.74-3.82-22.79-18.3C268.93,218,267.07,212,256.29,212H256c-10.79,0-12.65,5.95-14.88,21.7-2.05,14.48-15.8,18.3-22.79,18.3H163.82c-13.65,0-18.34-11.3-19-17.49-5-29.09-6.56-62.95-6.57-63.29a5,5,0,1,1,10-.44c0,.34,1.51,33.73,6.47,62.21l.06.44c.14,1.4,1.26,8.57,9,8.57h54.51c1.16,0,11.58-.4,12.89-9.7,1.91-13.5,4.29-30.3,24.78-30.3h.29c20.48,0,22.86,16.8,24.77,30.3,1.36,9.59,12.42,9.7,12.89,9.7h54.52c7.74,0,8.87-7.17,9-8.61,0-.12,0-.28,0-.4,5-28.48,6.46-61.87,6.47-62.21a5,5,0,0,1,10,.44c0,.34-1.54,34.2-6.58,63.29C366.8,240.7,362.12,252,348.47,252Z"/><path class="cls-1" d="M175.15,346.92a5,5,0,0,1-5-5V306a37.82,37.82,0,0,1,11-24.88C190.51,271.75,204.58,267,223,267l65.16.08c18.42,0,32.49,4.75,41.81,14.12a37.76,37.76,0,0,1,11,24.9V339a5,5,0,0,1-10,0V306.08c0-1.18-.73-29-42.85-29L223,277c-15.65,0-27.34,3.76-34.72,11.17A28.11,28.11,0,0,0,180.15,306v35.94A5,5,0,0,1,175.15,346.92Z"/><path class="cls-1" d="M290,336H222a22,22,0,0,1,0-44h68a22,22,0,0,1,0,44Zm-68-34a12,12,0,0,0,0,24h68a12,12,0,0,0,0-24Z"/><path class="cls-1" d="M283,319H229a5,5,0,0,1,0-10h54a5,5,0,0,1,0,10Z"/><path class="cls-1" d="M254,412a93.43,93.43,0,0,1-80.29-46,5,5,0,0,1,8.63-5A83.39,83.39,0,0,0,254,402a82.48,82.48,0,0,0,70.93-39.88,5,5,0,1,1,8.54,5.2A92.4,92.4,0,0,1,254,412Z"/><path class="cls-1" d="M177.39,412.1h0l-44-.1a5,5,0,0,1-5-5l.22-105.55a5,5,0,0,1,5-5h0a5,5,0,0,1,5,5L138.4,402l34,.08V344a5,5,0,0,1,10,0v63.1a5,5,0,0,1-5,5Z"/><path class="cls-1" d="M120.66,460a4.91,4.91,0,0,1-2.28-.55,5,5,0,0,1-2.16-6.73l12.3-24A5,5,0,0,1,133,426H361.17a5,5,0,1,1,0,10H136l-10.91,21.28A5,5,0,0,1,120.66,460Z"/><path class="cls-1" d="M145,436a5,5,0,0,1-5-5V407a5,5,0,0,1,10,0v24A5,5,0,0,1,145,436Z"/><path class="cls-1" d="M167,436a5,5,0,0,1-5-5V407a5,5,0,0,1,10,0v24A5,5,0,0,1,167,436Z"/><path class="cls-1" d="M329.61,412.1a5,5,0,0,1-5-5V344a5,5,0,0,1,10,0v58.09L362,402h0a5,5,0,0,1,0,10l-32.39.1Z"/><path class="cls-1" d="M373.56,387a5,5,0,0,1-5-5l-.17-80.55a5,5,0,0,1,5-5h0a5,5,0,0,1,5,5l.17,80.55a5,5,0,0,1-5,5Z"/><path class="cls-1" d="M362,436a5,5,0,0,1-5-5V407a5,5,0,0,1,10,0v24A5,5,0,0,1,362,436Z"/><path class="cls-1" d="M340,436a5,5,0,0,1-5-5V407a5,5,0,0,1,10,0v24A5,5,0,0,1,340,436Z"/><path class="cls-1" d="M157,453h-3a5,5,0,0,1,0-10h3a5,5,0,0,1,0,10Z"/><path class="cls-1" d="M352,453h-3a5,5,0,0,1,0-10h3a5,5,0,0,1,0,10Z"/><path class="cls-1" d="M425.5,484.5a5,5,0,0,1-.32-10,61.45,61.45,0,0,0,13.57-2.72l.1,0A54,54,0,0,0,446,371a5,5,0,1,1,4.24-9.05,64,64,0,0,1-8.4,119.37,71.78,71.78,0,0,1-16,3.2Z"/><path class="cls-1" d="M373,459.36a5,5,0,0,1-4.06-2.09,63.67,63.67,0,0,1-11.36-28.85A64.52,64.52,0,0,1,387.13,366a5,5,0,1,1,5.36,8.44,54.5,54.5,0,0,0-25,52.71,53.72,53.72,0,0,0,9.56,24.31,5,5,0,0,1-1.15,7A4.92,4.92,0,0,1,373,459.36Z"/><path class="cls-1" d="M428.85,464.17a5,5,0,0,1-.81-9.93c19-3.17,32.13-20.26,29.78-38.91a34.35,34.35,0,0,0-17.28-25.65,5,5,0,1,1,5-8.68,44.28,44.28,0,0,1,22.23,33.08c3,24-13.69,46-38.06,50A4.73,4.73,0,0,1,428.85,464.17Z"/><path class="cls-1" d="M445.2,303.66a80,80,0,0,1-13.41-1.18C423,301,415,298.2,409.06,294.66c-9.82-5.88-10.4-12-9.87-15s3.1-8.61,14.33-10.87c6.74-1.37,15.28-1.29,24,.22s16.83,4.28,22.73,7.81c9.83,5.88,10.4,12,9.87,15h0c-.53,3.09-3.1,8.61-14.32,10.88A54.75,54.75,0,0,1,445.2,303.66Zm-20.93-25.87c-9.08,0-14.62,2.12-15.23,3.57.14,2.07,8.61,8.54,24.45,11.26s25.84-.5,26.8-2.5c-.24-2.2-8.71-8.6-24.43-11.3A68.68,68.68,0,0,0,424.27,277.79Zm41,13.18h0Z"/><path class="cls-1" d="M404.56,505.36A83.64,83.64,0,0,1,390.45,504c-8.75-1.5-16.82-4.28-22.73-7.82-9.82-5.88-10.4-11.94-9.87-15a5,5,0,0,1,9.86,1.69c.13,2.12,8.61,8.58,24.44,11.3,14.76,2.54,25.85.78,27-4.26a5,5,0,1,1,9.76,2.16C427,500.77,418.31,505.36,404.56,505.36Z"/><path class="cls-1" d="M438.89,408.45a5.17,5.17,0,0,1-.95-.09,5,5,0,0,1-4-5.86c9.5-49.43,18.58-87.69,27-113.73a5,5,0,1,1,9.51,3.08c-8.3,25.65-17.28,63.51-26.7,112.54A5,5,0,0,1,438.89,408.45Z"/><path class="cls-1" d="M423.41,497.89a4.93,4.93,0,0,1-.75-.06,5,5,0,0,1-4.2-5.69c0-.21,3.27-21.64,8.47-51.24a5,5,0,1,1,9.85,1.73c-5.18,29.47-8.4,50.79-8.43,51A5,5,0,0,1,423.41,497.89Z"/><path class="cls-1" d="M363.25,486.68a5,5,0,0,1-2.05-.44,5,5,0,0,1-2.5-6.62c20.82-46.05,39.76-197.58,39.95-199.1a5,5,0,1,1,9.92,1.23c-.78,6.28-19.32,154.56-40.76,202A5,5,0,0,1,363.25,486.68Z"/><path class="cls-1" d="M429.46,446.37c-8.47,0-16.65-3.64-21.44-9.71-3.56-4.5-6.92-12.37-2.74-24.31,2.4-6.86,6.55-11.63,12.33-14.16,10.65-4.67,22.75.44,23.26.66a5,5,0,0,1-3.95,9.19c-.18-.07-8.74-3.59-15.33-.68-3.16,1.4-5.41,4.12-6.87,8.29-2.15,6.14-1.77,11.13,1.14,14.81,3.72,4.71,10.68,6.32,15.57,5.81a5,5,0,0,1,1,10C431.46,446.32,430.45,446.37,429.46,446.37Z"/><path class="cls-1" d="M65,324H33a5,5,0,0,1-5-5V15a5,5,0,0,1,5-5H65a5,5,0,0,1,5,5V319A5,5,0,0,1,65,324ZM38,314H60V20H38Z"/><path class="cls-1" d="M73.62,356H17a5,5,0,0,1-5-5V319a5,5,0,0,1,5-5h93a5,5,0,0,1,0,10H22v22H73.62a5,5,0,0,1,0,10Z"/><path class="cls-1" d="M112,324a5,5,0,0,1-5-5V245a5,5,0,0,1,10,0v74A5,5,0,0,1,112,324Z"/><path class="cls-1" d="M112,146.93a5,5,0,0,1-5-5V15a5,5,0,0,1,5-5h32a5,5,0,0,1,5,5V77.63a5,5,0,0,1-10,0V20H117V141.93A5,5,0,0,1,112,146.93Z"/><path class="cls-1" d="M497.7,372H448a5,5,0,0,1,0-10h44.7V333H456a5,5,0,0,1,0-10h41.7a5,5,0,0,1,5,5v39A5,5,0,0,1,497.7,372Z"/><path class="cls-1" d="M415.7,277.25a5,5,0,0,1-5-5V255H391.33a5,5,0,1,1,0-10H415.7a5,5,0,0,1,5,5v22.25A5,5,0,0,1,415.7,277.25Z"/><path class="cls-1" d="M401.5,294h-22a5,5,0,0,1,0-10h22a5,5,0,0,1,0,10Z"/><path class="cls-1" d="M497.7,294h-32a5,5,0,0,1,0-10h27V255H421v17.25a5,5,0,0,1-10,0V250a5,5,0,0,1,5-5h81.7a5,5,0,0,1,5,5v39A5,5,0,0,1,497.7,294Z"/><path class="cls-1" d="M497.7,333a5,5,0,0,1-5-5V294H467.33a5,5,0,1,1,0-10H497.7a5,5,0,0,1,5,5v39A5,5,0,0,1,497.7,333Z"/><path class="cls-1" d="M456.7,255H393.31a5,5,0,1,1,0-10H451.7V216H422.5a5,5,0,0,1,0-10h34.2a5,5,0,0,1,5,5v39A5,5,0,0,1,456.7,255Z"/></g><g id="Outline"><path class="cls-1" d="M205.56,212h-20a5,5,0,0,1,0-10h20a5,5,0,0,1,0,10Z"/><path class="cls-1" d="M327,212H307a5,5,0,0,1,0-10h20a5,5,0,0,1,0,10Z"/><path class="cls-1" d="M372,387H332a5,5,0,0,1,0-10h40a5,5,0,0,1,0,10Z"/><path class="cls-1" d="M177,387H135a5,5,0,0,1,0-10h42a5,5,0,0,1,0,10Z"/><path class="cls-1" d="M184.5,472H184a5,5,0,0,1,0-10h.5a5,5,0,0,1,0,10Z"/><path class="cls-1" d="M307.05,472h-1a5,5,0,1,1,0-10h1a5,5,0,0,1,0,10Zm-20.43,0h-1a5,5,0,0,1,0-10h1a5,5,0,0,1,0,10Zm-20.42,0h-1a5,5,0,0,1,0-10h1a5,5,0,1,1,0,10Zm-20.43,0h-1a5,5,0,1,1,0-10h1a5,5,0,0,1,0,10Zm-20.42,0h-1a5,5,0,0,1,0-10h1a5,5,0,1,1,0,10Zm-20.43,0h-1a5,5,0,0,1,0-10h1a5,5,0,0,1,0,10Z"/><path class="cls-1" d="M327,472h-.5a5,5,0,0,1,0-10h.5a5,5,0,0,1,0,10Z"/><path class="cls-1" d="M486,80H365a5,5,0,0,1,0-10H475.7L457.57,47H325a5,5,0,0,1,0-10H460a5,5,0,0,1,3.93,1.91l26,33A5,5,0,0,1,486,80Z"/><path class="cls-1" d="M442,78a5,5,0,0,1-5-5V42a5,5,0,0,1,10,0V73A5,5,0,0,1,442,78Z"/><path class="cls-1" d="M460,111a5,5,0,0,1-5-5V75a5,5,0,0,1,10,0v31A5,5,0,0,1,460,111Z"/><path class="cls-1" d="M460,167a5,5,0,0,1-5-5V131a5,5,0,0,1,10,0v31A5,5,0,0,1,460,167Z"/><path class="cls-1" d="M410,78a5,5,0,0,1-5-5V42a5,5,0,0,1,10,0V73A5,5,0,0,1,410,78Z"/><path class="cls-1" d="M376,78a5,5,0,0,1-5-5V42a5,5,0,0,1,10,0V73A5,5,0,0,1,376,78Z"/><path class="cls-1" d="M460,139a5,5,0,0,1-4.33-2.5L440,109.31a5,5,0,0,1,4.33-7.5h31.4a5,5,0,0,1,4.33,7.5l-15.7,27.19A5,5,0,0,1,460,139Zm-7-27.19L460,124l7-12.19Z"/><path class="cls-1" d="M460,195a19,19,0,0,1-19-19,5,5,0,0,1,10,0,9,9,0,1,0,9-9,5,5,0,0,1,0-10,19,19,0,0,1,0,38Z"/><path class="cls-1" d="M33,46H17a5,5,0,0,1,0-10H33a5,5,0,0,1,0,10Z"/><path class="cls-1" d="M161,46H145a5,5,0,0,1,0-10h16a5,5,0,0,1,0,10Z"/><path class="cls-1" d="M33,111H17a5,5,0,0,1,0-10H33a5,5,0,0,1,0,10Z"/><path class="cls-1" d="M33,197H17a5,5,0,0,1,0-10H33a5,5,0,0,1,0,10Z"/><path class="cls-1" d="M33,261H17a5,5,0,0,1,0-10H33a5,5,0,0,1,0,10Z"/><path class="cls-1" d="M111,46H66a5,5,0,0,1,0-10h45a5,5,0,0,1,0,10Z"/><path class="cls-1" d="M111,111H66a5,5,0,0,1,0-10h45a5,5,0,0,1,0,10Z"/><path class="cls-1" d="M95,197H66a5,5,0,0,1,0-10H95a5,5,0,0,1,0,10Z"/><path class="cls-1" d="M112,261H66a5,5,0,0,1,0-10h46a5,5,0,0,1,0,10Z"/></g></svg>