<?xml version="1.0" ?><svg viewBox="0 0 512 512" xmlns="http://www.w3.org/2000/svg"><defs><style>.cls-1{fill:#3f456b;}</style></defs><title/><g id="Lines"><path class="cls-1" d="M412.19,490.57A21.81,21.81,0,1,1,434,468.76,21.83,21.83,0,0,1,412.19,490.57Zm0-33.62A11.81,11.81,0,1,0,424,468.76,11.83,11.83,0,0,0,412.19,457Z"/><path class="cls-1" d="M35.64,274.53A31.27,31.27,0,1,1,66.9,243.26,31.3,31.3,0,0,1,35.64,274.53Zm0-52.53A21.27,21.27,0,1,0,56.9,243.26,21.29,21.29,0,0,0,35.64,222Z"/><path class="cls-1" d="M401,209.65a57.55,57.55,0,0,1-10.79-1c-17-3.27-34.45-14.07-53.41-33s-29.76-36.43-33-53.41c-4-20.74,3.46-40.73,22.16-59.43,15.53-15.53,33.47-20.82,53.34-15.7,16.36,4.2,33.93,15.6,52.2,33.87,51.12,51.12,38.09,85.61,18.17,105.54h0C434.2,201.88,417.88,209.65,401,209.65ZM365,55.15c-11.62,0-22.15,4.85-32,14.66-16.43,16.44-22.78,32.94-19.41,50.47,2.88,14.95,12.78,30.72,30.28,48.23s33.28,27.4,48.23,30.28c17.52,3.37,34-3,50.47-19.41,24.29-24.3,18.17-55-18.18-91.4-17-17-33-27.5-47.61-31.26A47.12,47.12,0,0,0,365,55.15Zm81.14,127.76h0Z"/><path class="cls-1" d="M391,234.22c-27.17,0-53.76-12.27-77.15-35.66-25.82-25.82-38.08-53.46-36.45-82.15,1.45-25.31,14.05-50.52,36.45-72.91a108.92,108.92,0,0,1,77.53-32.12h0a109.64,109.64,0,0,1,77.53,187.18C446.78,220.65,421.25,233,395,234.13,393.67,234.19,392.31,234.22,391,234.22Zm.38-212.84a99,99,0,0,0-70.46,29.19C300.24,71.2,288.65,94.16,287.35,117c-1.47,25.73,9.81,50.8,33.53,74.52,22.52,22.52,48,33.8,73.7,32.65,23.68-1.07,46.92-12.36,67.22-32.65A99.65,99.65,0,0,0,391.34,21.38Z"/><path class="cls-1" d="M166,264a5,5,0,0,1-3.54-8.54l.71-.7a5,5,0,1,1,7.07,7.07l-.7.71A5,5,0,0,1,166,264Z"/><path class="cls-1" d="M235,348a5,5,0,0,1-3.54-8.54l.71-.7a5,5,0,1,1,7.07,7.07l-.7.71A5,5,0,0,1,235,348Z"/><path class="cls-1" d="M151,279a5,5,0,0,1-3.54-8.54l.71-.7a5,5,0,1,1,7.07,7.07l-.7.71A5,5,0,0,1,151,279Z"/><path class="cls-1" d="M52,151.85a31,31,0,0,1-4-.26c-7.86-1-14.54-5.07-19.84-12s-7.14-14.67-5.5-22.59c2-9.55,9.25-18.65,19.44-24.32,5.57-3.11,8.84-7,10-11.74a39,39,0,0,1,1.27-4.21h0a25.32,25.32,0,0,1,12-14c7.46-4.21,16.6-4.62,25.73-1.15A46.92,46.92,0,0,1,111,76.48c12.43,16.16,3.86,39.41-21.82,59.25C75.33,146.44,62.85,151.85,52,151.85ZM62.8,80.17a27.49,27.49,0,0,0-.94,3.14C60,90.85,55,96.94,47,101.41c-7.69,4.28-13.11,10.87-14.51,17.63-1.06,5.06.17,9.93,3.65,14.48,3.67,4.81,8,7.47,13.19,8.16,8.84,1.15,20.51-3.64,33.76-13.87,20.89-16.13,28.75-33.88,20-45.24-11-14.26-25.79-15.09-32.81-11.13a15.42,15.42,0,0,0-7.49,8.73Z"/><path class="cls-1" d="M235.25,368.12a25.08,25.08,0,0,1-13-46.55h0a25.09,25.09,0,1,1,13,46.55Zm-.07-40.18a15,15,0,0,0-7.78,2.18h0a15.09,15.09,0,1,0,7.79-2.18Zm-10.37-2.09h0Z"/><path class="cls-1" d="M416.48,298.91a5,5,0,0,1-3.53-1.47,5,5,0,0,1,0-7.07l72.51-72.51c8.65-8.65,8.57-21.77-.18-30.52L478,180.06a5,5,0,1,1,7.07-7.07l7.28,7.28a31.25,31.25,0,0,1,.18,44.66L420,297.44A5,5,0,0,1,416.48,298.91Z"/><path class="cls-1" d="M217.79,100.21a5,5,0,0,1-3.54-8.53l72.51-72.51C299,6.9,319.32,7.23,332,19.91l6.71,6.71a5,5,0,0,1-7.07,7.07L324.92,27a23,23,0,0,0-15.68-6.85,20.73,20.73,0,0,0-15.41,6.11L221.32,98.75A5,5,0,0,1,217.79,100.21Z"/><path class="cls-1" d="M124.46,242.25c-8.46,0-17.07-3.65-24-10.62a35.15,35.15,0,0,1-10.61-22.16,29.13,29.13,0,0,1,8.7-22.88L129,155.71,159.68,125c29.7-29.7,62.85-37.94,85.43-39.62,24.47-1.83,41.83,3.35,42.56,3.57a5,5,0,0,1-2.92,9.57c-.15,0-16.59-4.9-39.3-3.14-30.23,2.35-56.7,14.69-78.7,36.69L136.1,162.75l-30.49,30.89a19,19,0,0,0-5.81,15.12,25.17,25.17,0,0,0,7.7,15.8c7.6,7.6,17.7,9.76,25.74,5.51a5,5,0,1,1,4.67,8.85A28.64,28.64,0,0,1,124.46,242.25Z"/><path class="cls-1" d="M306.06,420.77c-.59,0-1.18,0-1.78-.06a34.44,34.44,0,0,1-22.07-10.47,34.81,34.81,0,0,1-10.54-22.12,29.18,29.18,0,0,1,8.77-22.78,5,5,0,1,1,7.07,7.07,19.06,19.06,0,0,0-5.86,15,26.56,26.56,0,0,0,23.24,23.27,19.17,19.17,0,0,0,15-5.93l29-29.2L379.59,345c22-22,34.39-48.44,36.83-78.58,1.83-22.64-3-39-3-39.17a5,5,0,0,1,9.58-2.88c.22.73,5.33,18,3.43,42.42-1.75,22.51-10.07,55.59-39.76,85.28L356,382.67l-29,29.19A29.44,29.44,0,0,1,306.06,420.77Z"/><path class="cls-1" d="M141.29,501A41.49,41.49,0,0,1,112,430.15l56.68-56.68.17-.16c.11-.1,11.12-10.32,11.38-21.86.11-5.21-2-9.87-6.37-14.28s-8.95-6.42-14-6.22c-11.31.42-21.2,11.73-21.3,11.84l-.26.28L81.54,399.75a41.5,41.5,0,0,1-58.69-58.69l207-207a5,5,0,0,1,7.07,7.07l-207,207a31.5,31.5,0,0,0,44.55,44.55L131,336.12c1.5-1.7,13.34-14.58,28.32-15.16,7.93-.3,15.16,2.77,21.53,9.14s9.49,13.64,9.3,21.63c-.38,15.32-13.17,27.6-14.56,28.89L119,437.22a31.5,31.5,0,0,0,44.55,44.55l207-206.95a5,5,0,0,1,7.07,7.07l-206.95,207A41.38,41.38,0,0,1,141.29,501Z"/><path class="cls-1" d="M78.49,400.73A5,5,0,0,1,75,399.27L23.33,347.65a5,5,0,0,1,7.07-7.07L82,392.2a5,5,0,0,1-3.53,8.53Z"/><path class="cls-1" d="M167.58,489.83a5,5,0,0,1-3.53-1.47l-51.62-51.62a5,5,0,0,1,7.07-7.07l51.62,51.62a5,5,0,0,1-3.54,8.54Z"/><path class="cls-1" d="M275.77,326.79A34.77,34.77,0,0,1,251,316.54l-55.86-55.87a35,35,0,0,1,0-49.49l27.58-27.58a35,35,0,0,1,49.49,0l55.86,55.86a35,35,0,0,1,0,49.5l-27.57,27.58h0A34.77,34.77,0,0,1,275.77,326.79ZM247.49,183.35a24.84,24.84,0,0,0-17.68,7.32l-27.58,27.58a25,25,0,0,0,0,35.35l55.86,55.86a25,25,0,0,0,35.36,0h0L321,281.89a25,25,0,0,0,0-35.36l-55.86-55.86A24.83,24.83,0,0,0,247.49,183.35Z"/><path class="cls-1" d="M151.32,224.66a5,5,0,0,1-3.54-1.46l-39.59-39.6a5,5,0,1,1,7.07-7.07l39.59,39.6a5,5,0,0,1-3.53,8.53Z"/><path class="cls-1" d="M331.63,405a4.94,4.94,0,0,1-3.53-1.46l-39.6-39.6a5,5,0,1,1,7.07-7.07l39.6,39.6a5,5,0,0,1-3.54,8.53Z"/><path class="cls-1" d="M381,254c-9.22,0-19.61-2.44-31.07-7.3a5,5,0,0,1,3.91-9.21c17.08,7.26,30.93,8.46,41.17,3.58a27.28,27.28,0,0,0,14-15.78,5,5,0,0,1,9.63,2.67A37.51,37.51,0,0,1,399.52,250,42,42,0,0,1,381,254Z"/><path class="cls-1" d="M493.87,453.77a5,5,0,0,1-2.78-.85c-45.71-30.59-120.39-8.44-121.14-8.21l-.23.06c-40.91,10.3-74.19,6.7-98.92-10.72-35.07-24.7-39.63-67.83-39.8-69.65a5,5,0,0,1,9.95-1h0c0,.41,4.38,40.51,35.69,62.51,22.21,15.6,52.66,18.69,90.53,9.18,4.66-1.41,80.38-23.37,129.49,9.5a5,5,0,0,1-2.79,9.16Z"/><path class="cls-1" d="M137,128a5,5,0,0,1-3.82-8.23c33.82-40,65.41-45.18,66.74-45.38a5,5,0,0,1,1.52,9.88c-.15,0-7.45,1.27-18.45,7-10.23,5.31-25.86,15.7-42.17,35A5,5,0,0,1,137,128Z"/><path class="cls-1" d="M443,304a5,5,0,0,1-3.54-8.54l53.84-53.83a5,5,0,1,1,7.07,7.07l-53.83,53.84A5,5,0,0,1,443,304Z"/><path class="cls-1" d="M322.15,473.27c-41,0-61.47-21-62.45-22.07a5,5,0,0,1,7.25-6.88c1,1.06,24.9,25.18,74.15,17.41a5,5,0,1,1,1.56,9.88A132.35,132.35,0,0,1,322.15,473.27Z"/></g><g id="Outline"><path class="cls-1" d="M425.58,368.08H414.75a5,5,0,0,1,0-10h10.83a5,5,0,0,1,0,10Z"/><path class="cls-1" d="M468.25,368.08h-12.1a5,5,0,0,1,0-10h12.1a5,5,0,0,1,0,10Z"/><path class="cls-1" d="M441.08,395.25a5,5,0,0,1-5-5v-12a5,5,0,0,1,10,0v12A5,5,0,0,1,441.08,395.25Z"/><path class="cls-1" d="M441.08,354.17a5,5,0,0,1-5-5V336.75a5,5,0,0,1,10,0v12.42A5,5,0,0,1,441.08,354.17Z"/><path class="cls-1" d="M441.22,382.63a19,19,0,1,1,19-19A19,19,0,0,1,441.22,382.63Zm0-28a9,9,0,1,0,9,9A9,9,0,0,0,441.22,354.59Z"/><path class="cls-1" d="M59,133.05a15.12,15.12,0,0,1-10.42-3.93c-5.68-5.36-3.91-12.74-2.18-15.9a5,5,0,0,1,8.8,4.75c-.22.44-1.17,2.55.25,3.88A5.38,5.38,0,0,0,59.62,123a6.56,6.56,0,0,0,4.61-2.2,5,5,0,1,1,7.93,6.08A16.55,16.55,0,0,1,60.42,133C60,133,59.49,133.05,59,133.05Z"/><path class="cls-1" d="M290,265a5,5,0,0,1-3.54-1.46l-38-38a5,5,0,0,1,7.08-7.08l38,38A5,5,0,0,1,290,265Z"/><path class="cls-1" d="M272,283a5,5,0,0,1-3.54-1.46l-38-38a5,5,0,0,1,7.08-7.08l38,38A5,5,0,0,1,272,283Z"/><path class="cls-1" d="M95.5,383.5A5,5,0,0,1,92,382l-51.5-51.5a5,5,0,0,1,7.08-7.08L99,375a5,5,0,0,1-3.54,8.54Z"/><path class="cls-1" d="M184,472a5,5,0,0,1-3.54-1.46L130,420A5,5,0,0,1,137,413l50.5,50.5A5,5,0,0,1,184,472Z"/><path class="cls-1" d="M350,386a5,5,0,0,1-3.54-1.46L309,347A5,5,0,0,1,316,340l37.5,37.5A5,5,0,0,1,350,386Z"/><path class="cls-1" d="M168,204a5,5,0,0,1-3.54-1.46L127,165A5,5,0,0,1,134,158l37.5,37.5A5,5,0,0,1,168,204Z"/></g></svg>