<?xml version="1.0" ?><svg id="Lines" viewBox="0 0 512 512" xmlns="http://www.w3.org/2000/svg"><defs><style>.cls-1{fill:#3f456b;}</style></defs><title/><path class="cls-1" d="M398.21,345.89a5,5,0,0,1-4.9-4L353.53,138.37a5.2,5.2,0,0,1-.09-1V76a5,5,0,0,1,10,0v60.88l39.69,203a5,5,0,0,1-3.95,5.87A5.39,5.39,0,0,1,398.21,345.89Z"/><path class="cls-1" d="M112.22,343.81a5.08,5.08,0,0,1-2.19-.51,5,5,0,0,1-2.29-6.69l68.11-139.08a5,5,0,0,1,9,4.4L116.72,341A5,5,0,0,1,112.22,343.81Z"/><path class="cls-1" d="M397.77,443.19A103.28,103.28,0,1,1,501.05,339.91,103.4,103.4,0,0,1,397.77,443.19Zm0-196.56a93.28,93.28,0,1,0,93.28,93.28A93.38,93.38,0,0,0,397.77,246.63Z"/><path class="cls-1" d="M397.77,416.3a76.39,76.39,0,1,1,76.39-76.39A76.48,76.48,0,0,1,397.77,416.3Zm0-142.78a66.39,66.39,0,1,0,66.39,66.39A66.46,66.46,0,0,0,397.77,273.52Z"/><path class="cls-1" d="M112.23,416.3a76.39,76.39,0,1,1,76.39-76.39A76.48,76.48,0,0,1,112.23,416.3Zm0-142.78a66.39,66.39,0,1,0,66.39,66.39A66.46,66.46,0,0,0,112.23,273.52Z"/><path class="cls-1" d="M111.8,443.19A103.28,103.28,0,1,1,215.08,339.91,103.4,103.4,0,0,1,111.8,443.19Zm0-196.56a93.28,93.28,0,1,0,93.28,93.28A93.39,93.39,0,0,0,111.8,246.63Z"/><path class="cls-1" d="M237.12,372.16a32.26,32.26,0,1,1,32.25-32.25A32.29,32.29,0,0,1,237.12,372.16Zm0-54.51a22.26,22.26,0,1,0,22.25,22.26A22.28,22.28,0,0,0,237.12,317.65Z"/><path class="cls-1" d="M237.12,345.07H111.8a5,5,0,0,1,0-10H237.12a5,5,0,1,1,0,10Z"/><path class="cls-1" d="M257,324a5,5,0,0,1-3.44-1.37,5,5,0,0,1-.18-7.07L358.86,204.73H180.35a5,5,0,0,1,0-10H370.52a5,5,0,0,1,3.62,8.44L260.6,322.49A5,5,0,0,1,257,324Z"/><path class="cls-1" d="M226.36,318.33a5,5,0,0,1-4.63-3.13L156.2,153.27a5,5,0,0,1,9.27-3.75L231,311.45a5,5,0,0,1-4.64,6.88Z"/><path class="cls-1" d="M192.1,156.39H119.32c-7.49,0-13.41-3.24-16.67-9.12a20.74,20.74,0,0,1-2.51-8.85.49.49,0,0,1,0-.12v-9.07c0-6.35,2.59-10.22,4.76-12.35,5-4.85,11.78-5,12.85-5H234.52a5,5,0,0,1,5,4.62c0,.61,1,15-9.62,26.4C221.61,151.87,208.89,156.39,192.1,156.39Zm-82-18.18c.1,1.93,1.05,8.18,9.19,8.18H192.1c13.83,0,24.05-3.41,30.37-10.15a26.89,26.89,0,0,0,6.74-14.32H117.7a.34.34,0,0,1-.1,0,9.13,9.13,0,0,0-5.74,2.14,7,7,0,0,0-1.73,5.17Z"/><path class="cls-1" d="M301,93.57h-31A14.39,14.39,0,0,1,255.57,79.2V72.88A14.39,14.39,0,0,1,269.94,58.5h31a14.4,14.4,0,0,1,14.38,14.38V79.2A14.39,14.39,0,0,1,301,93.57Zm-31-25.07a4.38,4.38,0,0,0-4.37,4.38V79.2a4.37,4.37,0,0,0,4.37,4.37h31a4.38,4.38,0,0,0,4.38-4.37V72.88A4.39,4.39,0,0,0,301,68.5Z"/><path class="cls-1" d="M446.93,93.57h-31A14.39,14.39,0,0,1,401.55,79.2V72.88A14.39,14.39,0,0,1,415.92,58.5h31a14.4,14.4,0,0,1,14.38,14.38V79.2A14.39,14.39,0,0,1,446.93,93.57Zm-31-25.07a4.38,4.38,0,0,0-4.37,4.38V79.2a4.37,4.37,0,0,0,4.37,4.37h31a4.38,4.38,0,0,0,4.38-4.37V72.88a4.39,4.39,0,0,0-4.38-4.38Z"/><path class="cls-1" d="M406.33,81h-96a5,5,0,0,1,0-10h96a5,5,0,0,1,0,10Z"/></svg>