<?xml version="1.0" ?><svg id="Lines" viewBox="0 0 512 512" xmlns="http://www.w3.org/2000/svg"><defs><style>.cls-1{fill:#3f456b;}</style></defs><title/><path class="cls-1" d="M258,453a5,5,0,0,1-5-5V16a5,5,0,0,1,10,0V448A5,5,0,0,1,258,453Z"/><path class="cls-1" d="M415.74,178.74a5,5,0,0,1-3.53-1.46L258,23.07,103.79,177.28a5,5,0,1,1-7.07-7.07L254.46,12.46a5,5,0,0,1,7.07,0L419.28,170.21a5,5,0,0,1-3.54,8.53Z"/><path class="cls-1" d="M498,500H18a5,5,0,0,1-5-5V390a5,5,0,0,1,10,0V490H493V390a5,5,0,0,1,10,0V495A5,5,0,0,1,498,500Z"/></svg>