<?xml version="1.0" ?><svg viewBox="0 0 512 512" xmlns="http://www.w3.org/2000/svg"><defs><style>.cls-1{fill:#3f456b;}</style></defs><title/><g id="Lines"><path class="cls-1" d="M449,261a5,5,0,0,1-5-5V35c0-8.27-7.16-15-16-15H86c-8.81,0-16,6.73-16,15V256a5,5,0,0,1-10,0V35c0-13.79,11.65-25,26-25H428c14.32,0,26,11.21,26,25V256A5,5,0,0,1,449,261Z"/><path class="cls-1" d="M445,500H69a25,25,0,0,1-25-25V256a5,5,0,0,1,5-5H465a5,5,0,0,1,5,5V475A25,25,0,0,1,445,500ZM54,261V475a15,15,0,0,0,15,15H445a15,15,0,0,0,15-15V261Z"/><rect class="cls-1" height="242.85" transform="translate(-83.68 486.92) rotate(-62.8)" width="10" x="352" y="190.57"/><path class="cls-1" d="M259.55,400.64a44.77,44.77,0,0,1-10.4-1.24c-8.84-2.12-15.84-7-22.61-11.82-8.71-6.13-16.22-11.43-26.63-10.61-14.6,1.15-23.19,13.38-27,20.57a5,5,0,1,1-8.83-4.69c11.15-21,26.75-25.19,35.06-25.85,14-1.1,23.74,5.76,33.17,12.41,6.28,4.42,12.2,8.59,19.18,10.26a33.1,33.1,0,0,0,20.89-1.62,42,42,0,0,1-7.47-6.46c-7.31-8.07-9.54-17.7-6.28-27.13,4-11.47,12.48-19,22.74-20.14a22.76,22.76,0,0,1,21.87,10.32c5.44,8.78,4.23,20.55-3.34,32.3a58,58,0,0,1-7.31,9.21c10.93,3,24.9,3.46,40.83-.35a5,5,0,0,1,2.32,9.73c-19.26,4.61-38,3.76-52.47-1.83A44.51,44.51,0,0,1,259.55,400.64ZM284,344.17a13,13,0,0,0-1.52.09c-6.42.71-11.67,5.63-14.39,13.48-2.58,7.45.88,13.43,4.24,17.13a34.62,34.62,0,0,0,9.77,7.27,46.52,46.52,0,0,0,9.41-10.61c5.39-8.38,6.57-16.26,3.24-21.62A12.56,12.56,0,0,0,284,344.17Z"/></g><g id="Outline"><path class="cls-1" d="M256,261a5,5,0,0,1-5-5V15a5,5,0,0,1,10,0V256A5,5,0,0,1,256,261Z"/><path class="cls-1" d="M305,261a5,5,0,0,1-5-5V15a5,5,0,0,1,10,0V256A5,5,0,0,1,305,261Z"/><path class="cls-1" d="M353,261a5,5,0,0,1-5-5V15a5,5,0,0,1,10,0V256A5,5,0,0,1,353,261Z"/><path class="cls-1" d="M401,261a5,5,0,0,1-5-5V15a5,5,0,0,1,10,0V256A5,5,0,0,1,401,261Z"/><path class="cls-1" d="M112,261a5,5,0,0,1-5-5V15a5,5,0,0,1,10,0V256A5,5,0,0,1,112,261Z"/><path class="cls-1" d="M160,261a5,5,0,0,1-5-5V15a5,5,0,0,1,10,0V256A5,5,0,0,1,160,261Z"/><path class="cls-1" d="M208,261a5,5,0,0,1-5-5V15a5,5,0,0,1,10,0V256A5,5,0,0,1,208,261Z"/><path class="cls-1" d="M448,213H65a5,5,0,0,1,0-10H448a5,5,0,0,1,0,10Z"/><path class="cls-1" d="M448,164H65a5,5,0,0,1,0-10H448a5,5,0,0,1,0,10Z"/><path class="cls-1" d="M448,116H65a5,5,0,0,1,0-10H448a5,5,0,0,1,0,10Z"/><path class="cls-1" d="M448,68H65a5,5,0,0,1,0-10H448a5,5,0,0,1,0,10Z"/><path class="cls-1" d="M351,432h-1a5,5,0,0,1,0-10h1a5,5,0,0,1,0,10Zm-21,0h-1a5,5,0,0,1,0-10h1a5,5,0,0,1,0,10Zm-21,0h-1a5,5,0,0,1,0-10h1a5,5,0,0,1,0,10Zm-21,0h-1a5,5,0,0,1,0-10h1a5,5,0,0,1,0,10Zm-21,0h-1a5,5,0,0,1,0-10h1a5,5,0,0,1,0,10Zm-21,0h-1a5,5,0,0,1,0-10h1a5,5,0,0,1,0,10Zm-21,0h-1a5,5,0,0,1,0-10h1a5,5,0,0,1,0,10Zm-21,0h-1a5,5,0,0,1,0-10h1a5,5,0,0,1,0,10Zm-21,0h-1a5,5,0,0,1,0-10h1a5,5,0,0,1,0,10Zm-21,0h-1a5,5,0,0,1,0-10h1a5,5,0,0,1,0,10Z"/></g></svg>