<?xml version="1.0" ?><svg viewBox="0 0 512 512" xmlns="http://www.w3.org/2000/svg"><defs><style>.cls-1{fill:#3f456b;}</style></defs><title/><g id="Lines"><path class="cls-1" d="M162.38,439.77a5,5,0,0,1-2.57-9.29c13.22-7.94,32.05-4.35,32.84-4.2a5,5,0,1,1-1.92,9.82h0c-.16,0-15.88-3-25.78,2.95A4.9,4.9,0,0,1,162.38,439.77Z"/><path class="cls-1" d="M97.71,414.73a5,5,0,0,1-5-4.35c-.43-3.32-2.93-7.32-3.86-8.58a5,5,0,0,1,8-6c.5.67,4.9,6.74,5.75,13.24a5,5,0,0,1-4.31,5.61C98.14,414.71,97.92,414.73,97.71,414.73Z"/><path class="cls-1" d="M176.77,499.88H51.8A40.76,40.76,0,0,1,41.61,420c-.07-.82-.1-1.64-.1-2.47a31.86,31.86,0,0,1,51-25.45,55.72,55.72,0,0,1,19.39-20.63,5,5,0,1,1,5.3,8.48,45.6,45.6,0,0,0-18.4,22.36,5,5,0,0,1-8.54,1.4,21.85,21.85,0,0,0-38.76,13.84,22.08,22.08,0,0,0,.61,5.13,5,5,0,0,1-4,6.11,30.75,30.75,0,0,0,4,61.08H184.32a27.23,27.23,0,0,0,4.52-54,5,5,0,0,1-4-6.17,45.28,45.28,0,0,0-40-56.4,5,5,0,0,1,.82-10,55.27,55.27,0,0,1,49.88,64,37.23,37.23,0,0,1-11.22,72.61Z"/><path class="cls-1" d="M73.82,430a5.05,5.05,0,0,1-1.56-.26c-11.37-3.73-26.63-.54-26.78-.5a5,5,0,0,1-2.11-9.78c.73-.16,18-3.81,32,.78A5,5,0,0,1,73.82,430Z"/><path class="cls-1" d="M163.46,224.28a5,5,0,0,1-3.33-1.27C128.41,194.64,47.06,192.2,43,192.1a15.28,15.28,0,0,1-10.56-4c-4-3.67-6-9.35-6-16.87,0-12.44,8-22.17,18.58-22.62,4.84-.21,25.08-.08,38.47,0l10.15.05h15.76l17.18-.57c8.34-5.06,57.09-32.6,129-32.6a5,5,0,0,1,0,10c-74.36,0-124.26,31.44-124.76,31.76a5,5,0,0,1-2.54.79l-18.59.62h-16l-10.22-.05c-12.48-.08-33.38-.22-38,0s-9,4.59-9,12.63c0,4.46.94,7.71,2.7,9.41a5.19,5.19,0,0,0,3.46,1.44,3.57,3.57,0,0,1,.47,0c3.61.07,88.69,2.06,123.8,33.47a5,5,0,0,1-3.33,8.72Z"/><path class="cls-1" d="M295.15,267.75H216.59c-12.74,0-18.7-12.29-20.12-18.92l-4.18-15.59c0-.06,0-.11,0-.17-2.16-9.34-9.5-8.92-10.95-8.75a3.78,3.78,0,0,1-.67.05H163.46a5,5,0,0,1,0-10h16.85c6.24-.74,18.24,1.74,21.66,16.36l4.2,15.64c0,.1.05.19.07.29.09.43,2.47,11.09,10.35,11.09h78.56c7.88,0,10.26-10.66,10.35-11.11l.07-.27,4.19-15.64c3.43-14.62,15.43-17.1,21.67-16.36h16.85a5,5,0,0,1,0,10H331.11a4.4,4.4,0,0,1-.73-.06c-1.39-.16-8.74-.58-10.89,8.76l-.05.17-4.18,15.59C313.85,255.46,307.88,267.75,295.15,267.75Z"/><path class="cls-1" d="M348.28,224.28a5,5,0,0,1-3.14-8.89c39.4-31.75,121.11-33.25,124.57-33.3a3.12,3.12,0,0,1,.44,0,5.21,5.21,0,0,0,3.47-1.44c1.76-1.7,2.69-4.95,2.69-9.41,0-8-4.53-12.44-9-12.63s-26-.06-38.85,0l-10.29.05h-16l-18.6-.62a5,5,0,0,1-2.54-.79c-.49-.32-50.39-31.76-124.75-31.76a5,5,0,1,1,0-10c71.87,0,120.62,27.54,129,32.6l17.18.57h15.75l10.23-.05c13.73-.09,34.48-.22,39.34,0,10.59.45,18.57,10.18,18.57,22.62,0,7.52-2,13.2-6,16.87a15.27,15.27,0,0,1-10.57,4c-3.9.08-82.32,2.09-118.29,31.08A5,5,0,0,1,348.28,224.28Z"/><path class="cls-1" d="M104.9,158.25a5,5,0,0,1-5-5V121.5c0-2.66-1.68-5-3.6-5H72.21c-1.92,0-3.61,2.34-3.61,5v31.75a5,5,0,1,1-10,0V121.5c0-8.27,6.11-15,13.61-15H96.3c7.5,0,13.6,6.73,13.6,15v31.75A5,5,0,0,1,104.9,158.25Z"/><path class="cls-1" d="M449.07,158.25a5,5,0,0,1-5-5V121.5c0-2.66-1.68-5-3.6-5h-24.1c-1.92,0-3.6,2.34-3.6,5v31.75a5,5,0,0,1-10,0V121.5c0-8.27,6.1-15,13.6-15h24.1c7.5,0,13.6,6.73,13.6,15v31.75A5,5,0,0,1,449.07,158.25Z"/><path class="cls-1" d="M153.2,75.51H85a5,5,0,0,1-3.78-8.28l20-23a5,5,0,0,1,5-1.56L156,55.53l.36.11c3.21,1.1,8.65,4.61,8.65,10.86a8.08,8.08,0,0,1-2.52,5.92C159.59,75.15,155.26,75.51,153.2,75.51Zm-57.26-10h57l.92,0a5.55,5.55,0,0,0-.62-.33l-46.52-12Z"/><path class="cls-1" d="M64.2,98.76A5.42,5.42,0,0,1,63,98.6L13.2,85.72l-.36-.11C9.63,84.52,4.19,81,4.19,74.76a8.08,8.08,0,0,1,2.52-5.92c3.19-3,8.2-3.14,9.86-3.08H84.19A5,5,0,0,1,88,74L68,97A5,5,0,0,1,64.2,98.76ZM15.94,76.1l46.52,12L73.22,75.76h-57a7.3,7.3,0,0,0-.92,0A5.31,5.31,0,0,0,15.94,76.1Z"/><path class="cls-1" d="M84.25,116.5a5,5,0,0,1-5-5V70.76a5,5,0,1,1,10,0V111.5A5,5,0,0,1,84.25,116.5Z"/><path class="cls-1" d="M497,75.51H428.81A5,5,0,0,1,425,67.22l20-23a5,5,0,0,1,5-1.56L499.8,55.53l.36.11c3.21,1.1,8.65,4.61,8.65,10.86a8.08,8.08,0,0,1-2.52,5.92C503.43,75.15,499.1,75.51,497,75.51Zm-57.26-10h57l.91,0a4.22,4.22,0,0,0-.62-.33l-46.51-12Z"/><path class="cls-1" d="M408,98.76a5.42,5.42,0,0,1-1.25-.16L357,85.72l-.36-.11C353.47,84.52,348,81,348,74.76a8.08,8.08,0,0,1,2.52-5.92c3.19-3,8.21-3.14,9.86-3.08H428A5,5,0,0,1,431.81,74l-20,23A5,5,0,0,1,408,98.76ZM359.79,76.1l46.51,12,10.76-12.38h-57a7.09,7.09,0,0,0-.91,0A4.1,4.1,0,0,0,359.79,76.1Z"/><path class="cls-1" d="M428.09,116.5a5,5,0,0,1-5-5V70.76a5,5,0,1,1,10,0V111.5A5,5,0,0,1,428.09,116.5Z"/><path class="cls-1" d="M98.56,215.75H67.31a5,5,0,0,1-4.93-4.16l-3.7-21.75a5,5,0,1,1,9.85-1.68l3,17.59h23l3-12.92a5,5,0,1,1,9.75,2.24l-3.87,16.8A5,5,0,0,1,98.56,215.75Z"/><path class="cls-1" d="M445.51,215.75H414.26a5,5,0,0,1-4.87-3.88l-3.86-16.8a5,5,0,1,1,9.74-2.24l3,12.92h23.05l3-17.59a5,5,0,1,1,9.86,1.68l-3.71,21.75A5,5,0,0,1,445.51,215.75Z"/><path class="cls-1" d="M131.46,411.75c-7,0-12.49-2-16.23-6.07a18.65,18.65,0,0,1-4.77-13.06c0-129.23,19.33-188.5,20.15-191a5,5,0,0,1,9.49,3.17h0c-.2.59-19.64,60.5-19.64,187.93,0,.12,0,.24,0,.36h0a8.84,8.84,0,0,0,2.15,5.82c1.79,1.87,4.77,2.82,8.86,2.82,7.68,0,8-8.13,8-9.05,0-129.5,18.62-173.87,19.41-175.69a5,5,0,1,1,9.17,4c-.18.42-18.58,44.87-18.58,171.76C149.38,400.42,144.52,411.75,131.46,411.75Z"/><path class="cls-1" d="M141,251.79a5,5,0,0,1-4.86-6.21l.72-2.91a5,5,0,1,1,9.71,2.41l-.72,2.91A5,5,0,0,1,141,251.79Z"/><path class="cls-1" d="M169.31,204.38a5,5,0,0,1-5-5v-1.26a5,5,0,0,1,10,0v1.26A5,5,0,0,1,169.31,204.38Z"/><path class="cls-1" d="M346.14,204.38a5,5,0,0,1-5-5v-1.26a5,5,0,0,1,10,0v1.26A5,5,0,0,1,346.14,204.38Z"/><path class="cls-1" d="M381.28,411.75c-13.06,0-17.92-11.33-18-18.95,0-127.54-18.4-171.38-18.59-171.81a5,5,0,1,1,9.17-4c.8,1.82,19.42,46.19,19.42,175.74.05,2,.78,9,8,9,4.13,0,7.13-1,8.91-2.88a8.9,8.9,0,0,0,2.1-5.76c0-.12,0-.24,0-.36,0-127.43-19.44-187.34-19.64-187.93a5,5,0,0,1,9.49-3.17c.82,2.47,20.13,61.74,20.15,191a18.7,18.7,0,0,1-4.77,13.06C393.76,409.71,388.3,411.75,381.28,411.75Z"/><path class="cls-1" d="M371.77,251.79a5,5,0,0,1-4.85-3.8l-.72-2.91a5,5,0,1,1,9.71-2.41l.72,2.91a5,5,0,0,1-3.65,6.06A5.07,5.07,0,0,1,371.77,251.79Z"/><path class="cls-1" d="M307,379.75h-99.4a15,15,0,0,1-15-15v-60a15,15,0,0,1,15-15H307a15,15,0,0,1,15,15v60A15,15,0,0,1,307,379.75Zm-99.4-80a5,5,0,0,0-5,5v60a5,5,0,0,0,5,5H307a5,5,0,0,0,5-5v-60a5,5,0,0,0-5-5Z"/><path class="cls-1" d="M240.64,299.75a5,5,0,0,1-5-5v-32a5,5,0,0,1,10,0v32A5,5,0,0,1,240.64,299.75Z"/><path class="cls-1" d="M274,299.75a5,5,0,0,1-5-5v-32a5,5,0,0,1,10,0v32A5,5,0,0,1,274,299.75Z"/><path class="cls-1" d="M295,210.28H218.53c-8.15,0-14.74-2.49-19.6-7.4-8-8.07-7.94-19.69-7.93-20.19V151.06c0-5.27-1.29-9.06-3.84-11.26-3.62-3.12-9.07-2.49-9.12-2.48a5,5,0,1,1-1.46-9.89c1-.15,10.08-1.28,17.11,4.8,4.85,4.18,7.31,10.52,7.31,18.83v31.69a22.69,22.69,0,0,0,2.34,9.31c2.84,5.53,7.81,8.22,15.19,8.22H295c5.41,0,9.63-1.49,12.54-4.44,4.94-5,5-12.77,5-12.84V151.52c0-8.22,2.44-14.5,7.25-18.67,7-6.08,16.14-5,17.16-4.81a5,5,0,0,1-1.41,9.9c-.17,0-5.64-.65-9.26,2.52-2.48,2.19-3.74,5.91-3.74,11.06v31.42c0,.43,0,11.92-7.88,19.94C309.74,207.79,303.13,210.28,295,210.28Z"/><path class="cls-1" d="M257.31,365.92a31.17,31.17,0,1,1,31.17-31.17A31.2,31.2,0,0,1,257.31,365.92Zm0-52.34a21.17,21.17,0,1,0,21.17,21.17A21.2,21.2,0,0,0,257.31,313.58Z"/><path class="cls-1" d="M197.61,364.25h-20.3a5,5,0,0,1-5-5v-48.5a5,5,0,0,1,5-5h20.3a5,5,0,0,1,0,10h-15.3v38.5h15.3a5,5,0,0,1,0,10Z"/><path class="cls-1" d="M346.14,354.58H317a5,5,0,0,1,0-10h24.13V325.42H317a5,5,0,0,1,0-10h29.13a5,5,0,0,1,5,5v29.16A5,5,0,0,1,346.14,354.58Z"/><path class="cls-1" d="M144.91,364.25h-29a5,5,0,0,1,0-10h29a5,5,0,0,1,0,10Z"/><path class="cls-1" d="M396.43,364.25H368.32a5,5,0,1,1,0-10h28.11a5,5,0,1,1,0,10Z"/><path class="cls-1" d="M334.15,283.2H334a41.07,41.07,0,0,1-34.3-20.74,5,5,0,0,1,8.72-4.91,31,31,0,0,0,25.89,15.66l.33,0c.38,0,.75-.05,1-.05l25.75,0h0a5,5,0,0,1,0,10l-25.76,0-.35,0C334.89,283.18,334.47,283.2,334.15,283.2Z"/><path class="cls-1" d="M466.42,283.21A4.72,4.72,0,0,1,465,283l-73.13.08h0a5,5,0,0,1,0-10l74.29-.08a4.82,4.82,0,0,1,1.41.2,27,27,0,0,0,25.9-27A27.27,27.27,0,0,0,471,219.27a5,5,0,0,1-3.31-2.22,5,5,0,0,1-.64-4,45.49,45.49,0,0,0-.37-24.06,5,5,0,1,1,9.59-2.81,55.54,55.54,0,0,1,1.5,24.46,37.18,37.18,0,0,1-11.23,72.52Zm.05-10h0Z"/></g><g id="Outline"><path class="cls-1" d="M104.9,137.39H63.6a5,5,0,0,1,0-10h41.3a5,5,0,1,1,0,10Z"/><path class="cls-1" d="M448.68,137.39H408.29a5,5,0,0,1,0-10h40.39a5,5,0,1,1,0,10Z"/><path class="cls-1" d="M480.62,176.38H317.48a5,5,0,0,1,0-10H480.62a5,5,0,0,1,0,10Z"/><path class="cls-1" d="M195.31,176.38H31.36a5,5,0,0,1,0-10h164a5,5,0,0,1,0,10Z"/><path class="cls-1" d="M225.31,267.75a5,5,0,0,1-5-5v-24.5a5,5,0,0,1,10,0v24.5A5,5,0,0,1,225.31,267.75Z"/><path class="cls-1" d="M246.64,267.75a5,5,0,0,1-5-5v-24.5a5,5,0,0,1,10,0v24.5A5,5,0,0,1,246.64,267.75Z"/><path class="cls-1" d="M289.31,267.75a5,5,0,0,1-5-5v-24.5a5,5,0,1,1,10,0v24.5A5,5,0,0,1,289.31,267.75Z"/><path class="cls-1" d="M268,267.75a5,5,0,0,1-5-5v-24.5a5,5,0,0,1,10,0v24.5A5,5,0,0,1,268,267.75Z"/><path class="cls-1" d="M433.58,451.19h-.38a5,5,0,0,1-4.62-4.86c-.29-12.89-16.67-14.59-17.37-14.65a5,5,0,0,1,.89-10c6.32.55,16.64,3.74,22.35,11.65,4.13-4.91,11-9.19,22.42-8a5,5,0,0,1-1,10c-14.23-1.48-16.94,9.54-17.33,11.76A5,5,0,0,1,433.58,451.19Z"/><path class="cls-1" d="M220.05,62.05a5,5,0,0,1-5-4.38C213.5,44.87,197,44.86,196.32,44.85h0a5,5,0,0,1-.08-10c6.34-.1,16.93,2,23.42,9.33,3.6-5.3,10-10.26,21.43-10.26h.06a5,5,0,0,1,0,10h0c-6.49,0-11,2.18-13.7,6.66A17.12,17.12,0,0,0,225,57.35a5,5,0,0,1-4.83,4.7Z"/></g></svg>