<?xml version="1.0" ?><svg id="Lines" style="enable-background:new 0 0 512 512;" version="1.1" viewBox="0 0 512 512" xml:space="preserve" xmlns="http://www.w3.org/2000/svg" xmlns:xlink="http://www.w3.org/1999/xlink"><style type="text/css">
	.st0{fill:#3F456B;}
</style><title/><path class="st0" d="M36,470c0-2.8,2.2-5,5-5l0,0c2.8,0,5,2.2,5,5l0,0c0,2.8-2.2,5-5,5l0,0C38.2,475,36,472.8,36,470z"/><path class="st0" d="M463,470c0-2.8,2.2-5,5-5l0,0c2.8,0,5,2.2,5,5l0,0c0,2.8-2.2,5-5,5l0,0C465.2,475,463,472.8,463,470z"/><path class="st0" d="M36,41c0-2.8,2.2-5,5-5l0,0c2.8,0,5,2.2,5,5l0,0c0,2.8-2.2,5-5,5l0,0C38.2,46,36,43.8,36,41z"/><path class="st0" d="M463,41c0-2.8,2.2-5,5-5l0,0c2.8,0,5,2.2,5,5l0,0c0,2.8-2.2,5-5,5l0,0C465.2,46,463,43.8,463,41z"/><path class="st0" d="M257.8,311.8c-32.4,0-58.7-26.3-58.7-58.7c0-32.4,26.3-58.7,58.7-58.7c32.4,0,58.7,26.3,58.7,58.7c0,0,0,0,0,0  C316.5,285.5,290.2,311.8,257.8,311.8z M257.8,204.3c-26.9,0-48.7,21.8-48.7,48.7s21.8,48.7,48.7,48.7s48.7-21.8,48.7-48.7  C306.5,226.2,284.7,204.4,257.8,204.3L257.8,204.3z"/><path class="st0" d="M257.8,276.4c-12.9,0-23.3-10.4-23.3-23.3c0-12.9,10.4-23.3,23.3-23.3c12.9,0,23.3,10.4,23.3,23.3c0,0,0,0,0,0  C281.1,265.9,270.7,276.4,257.8,276.4z M257.8,239.8c-7.4,0-13.3,6-13.3,13.3c0,7.4,6,13.3,13.3,13.3c7.4,0,13.3-6,13.3-13.3  C271.1,245.7,265.1,239.8,257.8,239.8z"/><path class="st0" d="M209.2,234.1c-1.1,0-2.1-0.4-3-1c-3.5-2.4-7.4-4.1-11.6-4.9l-70.4-14.5c-2.1-0.3-17.6-3-26.5-16.3  c-6.6-9.9-7.8-22.8-3.6-38.3c7.3-27.2,31-53.5,58.8-65.4c21.2-9.1,42.6-8.9,60.2,0.6c18.7,10.1,32.4,26.8,40.9,49.9  c8,21.8,9,43.4,8.8,54.3c0,2.8-2.3,5-5.1,4.9c-2.8,0-5-2.3-4.9-5.1c0.1-10.2-0.8-30.4-8.2-50.8c-7.6-20.7-19.8-35.7-36.2-44.5  c-19.1-10.3-38.6-5.8-51.5-0.3c-25.2,10.8-46.5,34.5-53.1,58.9c-3.4,12.6-2.7,22.7,2.2,30.1c6.8,10.2,19.6,12,19.7,12.1l0.3,0.1  l70.6,14.5h0.1c5.6,1.1,10.8,3.4,15.4,6.8c2.2,1.7,2.7,4.8,1,7C212.3,233.4,210.8,234.1,209.2,234.1L209.2,234.1z"/><path class="st0" d="M332,419.2c-10.3,0.1-20.4-2.4-29.5-7.3c-18.9-10.2-32.7-27.2-41.1-50.5c-7.9-22.1-8.8-43.7-8.6-54.7  c0.1-2.8,2.3-5,5.1-4.9c2.8,0.1,5,2.3,4.9,5.1c-0.2,10.2,0.6,30.5,8,51.1c7.5,21,19.8,36.2,36.4,45.1c19.1,10.3,38.6,5.8,51.5,0.3  c25.2-10.8,46.5-34.5,53.1-58.9c3.4-12.6,2.7-22.8-2.3-30.1c-6.9-10.2-19.5-12-19.7-12s-0.2,0-0.4-0.1L319,287.8h-0.1  c-6.4-1.5-11.6-3.8-15.6-6.9c-2.2-1.7-2.5-4.9-0.8-7c1.7-2.1,4.8-2.5,6.9-0.9c3.5,2.5,7.4,4.2,11.6,5l70.5,14.5  c2.1,0.3,17.6,3,26.5,16.3c6.6,9.9,7.8,22.8,3.6,38.3c-7.4,27.2-31,53.5-58.8,65.4C353,416.8,342.6,419.1,332,419.2z"/><path class="st0" d="M180.6,419.3c-5.7-0.1-11.4-0.9-16.9-2.5c-27.2-7.3-53.4-31-65.4-58.8c-9.1-21.2-8.9-42.6,0.6-60.2  c10.1-18.7,27-32.5,50.2-40.9c21.9-8,43.6-8.9,54.5-8.7c2.8,0,5,2.3,5,5s-2.3,5-5,5h-0.1c-10.2-0.2-30.5,0.7-50.9,8.1  c-20.8,7.6-35.9,19.8-44.8,36.3c-10.3,19.1-5.8,38.6-0.3,51.5c10.8,25.2,34.5,46.5,58.9,53.1c12.6,3.4,22.7,2.7,30.1-2.2  c10.2-6.8,12-19.6,12.1-19.7s0-0.2,0.1-0.4l14.5-70.7c0,0,0-0.1,0-0.1c1.1-5.7,3.5-11,6.9-15.6c1.7-2.1,4.9-2.5,7-0.7  c2.1,1.7,2.5,4.7,0.9,6.9c-2.5,3.5-4.2,7.5-5,11.7l-14.5,70.4c-0.3,2.1-3,17.6-16.3,26.5C196,417.2,188.9,419.3,180.6,419.3z"/><path class="st0" d="M314.3,258.1h-2.4c-2.8,0-5-2.3-5-5c0-2.8,2.3-5,5-5h0.1c10.2,0.2,30.5-0.7,51-8.1c20.9-7.6,36-19.8,44.9-36.3  c10.3-19.1,5.8-38.6,0.2-51.6c-10.8-25.2-34.5-46.5-58.9-53.1c-12.6-3.4-22.8-2.7-30.1,2.3c-10.2,6.8-12,19.5-12,19.7l-0.1,0.4  L292.5,192v0.1c-1.1,5.4-3.3,10.6-6.5,15.1c-1.5,2.3-4.6,3-6.9,1.6c-2.3-1.5-3-4.6-1.6-6.9c0.1-0.2,0.3-0.4,0.5-0.6  c2.3-3.4,3.9-7.3,4.8-11.3l14.5-70.5c0.3-2.1,3-17.6,16.3-26.5c9.9-6.6,22.8-7.8,38.3-3.6c27.1,7.3,53.5,31,65.4,58.8  c9.1,21.2,8.9,42.6-0.6,60.2c-10.1,18.8-27,32.6-50.3,41C345.9,256.8,325.8,258.1,314.3,258.1z"/><path class="st0" d="M462.7,501H47.3C26.7,501,10,484.3,10,463.7V47.3C10,26.7,26.7,10,47.3,10h415.4c20.6,0,37.3,16.7,37.3,37.3  v416.4C500,484.3,483.3,501,462.7,501z M47.3,20C32.2,20,20,32.2,20,47.3v416.4c0,15.1,12.2,27.3,27.3,27.3h415.4  c15.1,0,27.3-12.2,27.3-27.3V47.3c0-15.1-12.2-27.3-27.3-27.3H47.3z"/><g><path class="st0" d="M256,476c-58.6,0-113.8-22.8-155.2-64.3s-64.3-96.6-64.3-155.2s22.8-113.8,64.3-155.2   C142.3,59.8,197.4,37,256,37c58.6,0,113.8,22.8,155.2,64.3c41.5,41.5,64.3,96.6,64.3,155.2s-22.8,113.8-64.3,155.2   C369.8,453.2,314.7,476,256,476z M256,47C140.5,47,46.5,141,46.5,256.5S140.5,466,256,466c115.5,0,209.5-94,209.5-209.5   S371.5,47,256,47z"/></g></svg>