<?xml version="1.0" ?><svg id="Lines" viewBox="0 0 512 512" xmlns="http://www.w3.org/2000/svg"><defs><style>.cls-1{fill:#3f456b;}</style></defs><title/><path class="cls-1" d="M251,173.86a5,5,0,0,1-5-5v-1.07a5,5,0,1,1,10,0v1.07A5,5,0,0,1,251,173.86Z"/><path class="cls-1" d="M251,242.94a5,5,0,0,1-5-5v-1.07a5,5,0,1,1,10,0v1.07A5,5,0,0,1,251,242.94Z"/><path class="cls-1" d="M251,312a5,5,0,0,1-5-5V306a5,5,0,1,1,10,0V307A5,5,0,0,1,251,312Z"/><path class="cls-1" d="M251,381.11a5,5,0,0,1-5-5V375a5,5,0,1,1,10,0v1.08A5,5,0,0,1,251,381.11Z"/><path class="cls-1" d="M251,450.19a5,5,0,0,1-5-5v-1.08a5,5,0,1,1,10,0v1.08A5,5,0,0,1,251,450.19Z"/><path class="cls-1" d="M87.37,443a8,8,0,0,1-1-.06l-.12,0-46.34-8c-.13,0-.27-.05-.4-.09-9.31-2.41-11-13.23-10.49-19.24l0-.3c18.06-128,35-254.4,38.6-287.83,5-46.66,34.6-60.13,36.77-61l57.87-26a5,5,0,1,1,4.1,9.12l-57.93,26-.13.06s-6.64,2.9-13.68,10.79C85.15,97,79.42,111.19,77.55,128.53,74,162,57,288.52,38.94,416.52c-.09,1.69.14,7.69,2.9,8.6L87.6,433c.54,0,3.24-.61,5.37-6.68,2.82-8,21.22-100,28.08-134.78a5,5,0,1,1,9.81,1.94c-2.54,12.86-24.89,126-28.46,136.16C98.12,441.85,90.21,443,87.37,443Zm.41-10,.14,0-.16,0Zm0,0Zm-.09,0h0Z"/><path class="cls-1" d="M313.67,139.38a5,5,0,0,1-3.59-1.52L266.89,93.13a5,5,0,0,1,1.4-8c15.44-7.55,25.59-22.31,31.39-33.36a116.39,116.39,0,0,0,9.14-23c0-.06,0-.11,0-.17.76-2.65.66-4.6-.27-5.79-1.81-2.29-6.91-2.85-9.08-2.76H214.42c-2.18-.09-7.25.47-9.06,2.76-.94,1.19-1,3.14-.28,5.79a1.09,1.09,0,0,1,0,.17c.1.41,10.67,41.74,40.53,56.34a5,5,0,0,1,1.39,8l-43.18,44.73a5,5,0,0,1-7.51-.37c-1.4-1.76-34.3-43.73-37.06-92.28a5,5,0,0,1,2.15-4.4l37.78-26.09c.18-.12.37-.23.55-.33,5.53-4.42,13.49-4.34,15-4.28h84.39c1.51-.06,9.46-.14,15,4.28a6,6,0,0,1,.54.33L352.5,40.81a5,5,0,0,1,2.15,4.4c-2.76,48.55-35.66,90.52-37.06,92.28a5,5,0,0,1-3.67,1.89ZM278.6,90.85l34.54,35.79c8.15-11.68,28.39-43.86,31.33-79.22L318.89,29.76c-.11.5-.23,1-.38,1.54C317.83,34,307.72,72.52,278.6,90.85ZM169.48,47.42c2.94,35.35,23.18,67.54,31.33,79.22l34.54-35.79C206.23,72.52,196.12,34,195.44,31.3c-.15-.53-.27-1-.38-1.54Z"/><path class="cls-1" d="M265.68,500.05c-20.23,0-88.89-1.34-150-18.23a5,5,0,0,1-3.66-5.06l15.45-318a5,5,0,0,1,10,.48l-15.25,314c59.87,15.81,126.08,16.85,144.28,16.83V128c0-25.07-24.28-33.16-24.52-33.24A5,5,0,0,1,245,85.24c10.88,3.5,31.46,16.94,31.46,42.76V495a5,5,0,0,1-4.87,5C271.46,500,269.38,500.05,265.68,500.05Zm5.78-5.05h0Z"/><path class="cls-1" d="M271.32,499.53a5,5,0,0,1-.05-10c29.48-.29,76-4.74,119.55-16.3l-15.25-314a5,5,0,0,1,10-.48l15.45,318a5,5,0,0,1-3.66,5.06c-45.62,12.6-95,17.41-126,17.71Z"/><path class="cls-1" d="M81.28,481a4.54,4.54,0,0,1-.82-.07l-48.28-8A5,5,0,0,1,28,467.5l4-40.24a5,5,0,0,1,10,1l-3.58,35.56,38.88,6.45L84.1,437a5,5,0,0,1,9.8,2l-7.73,38A5,5,0,0,1,81.28,481Z"/><path class="cls-1" d="M425.63,443c-2.84,0-10.75-1.16-15-13.35-3.57-10.17-25.92-123.3-28.46-136.16a5,5,0,1,1,9.81-1.94c6.86,34.77,25.26,126.76,28.08,134.78,2.13,6.07,4.83,6.63,5.37,6.68l45.76-7.9c2.75-.91,3-6.88,2.9-8.61-18.06-128-35-254.47-38.61-288C431,87,405,75.73,404.71,75.62l-.13-.06-57.93-26a5,5,0,1,1,4.1-9.12l57.87,26c2.17.92,31.76,14.39,36.77,61.05C449,160.9,465.93,287.33,484,415.3l0,.3c.48,6-1.18,16.83-10.49,19.24-.13,0-.27.06-.4.09l-46.34,8-.12,0A8,8,0,0,1,425.63,443Zm-.39-10-.16,0,.14,0Zm0,0Zm.09,0h0Z"/><path class="cls-1" d="M431.72,481a5,5,0,0,1-4.89-4l-7.73-38a5,5,0,0,1,9.8-2l6.77,33.28,38.88-6.45L471,428.27a5,5,0,0,1,9.95-1L485,467.5a5,5,0,0,1-4.15,5.43l-48.28,8A4.54,4.54,0,0,1,431.72,481Z"/><path class="cls-1" d="M259.34,104.8a4.93,4.93,0,0,1-1.55-.25,5,5,0,0,1-3.2-6.31c3.14-9.58,14-12.9,14.49-13a5,5,0,0,1,2.86,9.59c-1.77.54-6.61,2.78-7.85,6.57A5,5,0,0,1,259.34,104.8Z"/><path class="cls-1" d="M306.22,52.5h-99.6a5,5,0,0,1,0-10h99.6a5,5,0,0,1,0,10Z"/></svg>