<?xml version="1.0" ?><svg viewBox="0 0 512 512" xmlns="http://www.w3.org/2000/svg"><defs><style>.cls-1{fill:#384169;}.cls-2{fill:#3f456b;}</style></defs><title/><g id="Lines"><path class="cls-1" d="M363.23,222.05a5,5,0,0,1-.68-10c20.33-2.79,38.33-11.9,53.52-27.09A96.22,96.22,0,0,0,280,48.94a95.34,95.34,0,0,0-27.28,54.83,5,5,0,0,1-9.91-1.36,106.23,106.23,0,1,1,180.34,89.67c-16.77,16.77-36.69,26.83-59.23,29.93A5.27,5.27,0,0,1,363.23,222.05Z"/><path class="cls-1" d="M113.22,414c-4.57,0-9.72-1.72-14.72-6.71L58.63,367.46c-10-10-6.05-21.26-.9-26.58l66.93-81.74a5,5,0,0,1,7.74,6.33L65.32,347.39a3.7,3.7,0,0,1-.33.36c-1.34,1.4-5.36,6.56.71,12.63l39.87,39.88c7.1,7.09,13.17,2.09,13.84,1.49l.15-.13,81.69-66.89a5,5,0,1,1,6.33,7.73L126,409.3A20,20,0,0,1,113.22,414Z"/><path class="cls-1" d="M324.66,224.92a5,5,0,0,1-3.53-1.47l-77.52-77.51a5,5,0,0,1,7.07-7.07l77.52,77.51a5,5,0,0,1-3.54,8.54Z"/><path class="cls-1" d="M353.68,237.85a5,5,0,0,1-3.53-8.53l5.11-5.11a7.42,7.42,0,0,0,2.2-4.13,2.8,2.8,0,0,0-.69-2.42L249.15,110a3.49,3.49,0,0,0-2.76-.83,6.78,6.78,0,0,0-4.1,2l-4.59,4.58a5,5,0,1,1-7.07-7.07l4.59-4.58a16.66,16.66,0,0,1,10.34-4.92A13.4,13.4,0,0,1,256.22,103L363.84,210.59a12.64,12.64,0,0,1,3.55,10.68,17.24,17.24,0,0,1-5.06,10l-5.11,5.11A5,5,0,0,1,353.68,237.85Z"/><path class="cls-1" d="M254.15,250.81a5,5,0,0,1-1.73-.31c-.86-.32-21.31-8.1-35.28-35a5,5,0,0,1,.9-5.84l26.47-26.46a5,5,0,0,1,5.36-1.12c1,.4,25.55,10.25,35.4,35.4a5,5,0,0,1-1.12,5.36l-26.46,26.46A5,5,0,0,1,254.15,250.81Zm-26.38-36.69a71.23,71.23,0,0,0,17.74,20.7,53.87,53.87,0,0,0,7.59,5l21.58-21.58c-6.86-14.46-19.82-22.44-25.58-25.42Z"/><path class="cls-1" d="M141.17,292.54a4.84,4.84,0,0,1-1.35-.19,5,5,0,0,1-3.3-3L128,267.69l-19.72-10.33a5,5,0,0,1-1.08-8.09c28.76-26.71,62-42,63.42-42.62a5,5,0,1,1,4.14,9.1,264,264,0,0,0-55.45,36.1l15,7.85a5,5,0,0,1,2.34,2.61l6.77,17.29c15.49-11.42,60.84-43.79,87.8-51.69a5,5,0,1,1,2.81,9.59c-30.42,8.92-89.26,53.56-89.85,54A4.93,4.93,0,0,1,141.17,292.54Z"/><path class="cls-1" d="M215.47,364.8a4.87,4.87,0,0,1-.66,0,5,5,0,0,1-3.77-2.64L200.72,342.4l-21.67-8.48a5,5,0,0,1-2.14-7.7c.47-.62,47.24-61.58,56.16-92a5,5,0,1,1,9.59,2.82c-7.93,27.07-42,74.13-53.82,90l17.26,6.75a5,5,0,0,1,2.61,2.34l7.85,15a263.25,263.25,0,0,0,36.09-55.44,5,5,0,1,1,9.1,4.13c-.63,1.41-15.9,34.66-42.61,63.42A5,5,0,0,1,215.47,364.8Z"/><path class="cls-1" d="M296.9,267.09a5,5,0,0,1-4.57-3c-7.33-16.49-26-26-26.16-26.06a5,5,0,1,1,4.47-8.94c.9.45,22.06,11.21,30.83,30.94a5,5,0,0,1-4.57,7Z"/><path class="cls-1" d="M233.8,204a5,5,0,0,1-4.47-2.75c-.15-.29-9.71-18.9-26.07-26.17a5,5,0,0,1,4.07-9.14c19.73,8.77,30.49,29.93,30.94,30.83a5,5,0,0,1-2.23,6.71A5.13,5.13,0,0,1,233.8,204Z"/><path class="cls-1" d="M202.39,220.06c-15.34,0-37-3.1-56.86-17.11-.38-.27-8.54-6.25-9.88-16.57-.94-7.17,1.56-14.43,7.42-21.57a421.8,421.8,0,0,1,56.4-56.43c6.27-6.12,12.94-8.94,19.87-8.4,11,.87,18.07,10.27,18.36,10.67,24.67,34.91,15.61,75.54,15.21,77.25a5,5,0,1,1-9.74-2.25h0c.09-.38,8.37-38-13.53-69.08-.36-.47-4.93-6.17-11.14-6.62-3.93-.29-8.05,1.64-12.19,5.74l-.41.35a417.49,417.49,0,0,0-55.1,55.12c-4,4.88-5.78,9.54-5.25,13.83.74,6,5.77,9.8,5.82,9.84,31.14,22,68.7,13.62,69.08,13.54a5,5,0,0,1,2.26,9.74A97.1,97.1,0,0,1,202.39,220.06Z"/><path class="cls-1" d="M283.76,331.74a22.22,22.22,0,0,1-2.94-.19c-10.32-1.35-16.3-9.51-16.55-9.85-24.64-34.87-15.58-75.5-15.18-77.21a5,5,0,1,1,9.74,2.26c-.08.37-8.38,38.06,13.58,69.14h0s3.8,5,9.79,5.76c4.29.52,8.95-1.24,13.84-5.25a416.74,416.74,0,0,0,55.11-55.11,4.48,4.48,0,0,1,.36-.4c4.12-4.17,6-8.29,5.73-12.25-.5-6.42-6.56-11-6.62-11.09-31-21.91-68.7-13.61-69.08-13.52a5,5,0,0,1-2.25-9.75c1.71-.39,42.35-9.45,77.18,15.16.48.35,9.87,7.38,10.74,18.41.55,6.92-2.28,13.61-8.4,19.87a419.55,419.55,0,0,1-56.43,56.41C296.22,329.19,290,331.74,283.76,331.74Z"/><path class="cls-1" d="M130.47,343.27a5,5,0,0,1-3.53-8.54l.7-.7a5,5,0,1,1,7.08,7.07l-.71.71A5,5,0,0,1,130.47,343.27Z"/><path class="cls-1" d="M69.17,421.8a5,5,0,0,1-3.53-1.47l-17-17a5,5,0,0,1-.76-6.1l17-28.29a5,5,0,0,1,8.58,5.15l-15,24.93L70,410.5l24.93-15a5,5,0,0,1,5.15,8.58l-28.29,17A4.93,4.93,0,0,1,69.17,421.8Z"/><path class="cls-1" d="M366.23,501a33,33,0,0,1-32.92-32.92V378.92a22.93,22.93,0,0,0-45.85,0v89.16a32.92,32.92,0,0,1-65.84.06l-.77-33.1v-.12a22.93,22.93,0,0,0-45.85,0v28.74c.33,2.63,1.47,15.65-6.92,25.51C162,496.36,152.51,500,140,500H49c-8.47,0-15.84-1.95-21.89-5.79-14.2-9-19.28-28.71-11.31-43.92a46.18,46.18,0,0,1,8.32-11.17l33.69-33.68a5,5,0,0,1,7.07,7.07L31.2,446.2a36.08,36.08,0,0,0-6.55,8.73c-5.51,10.53-1.93,24.66,7.82,30.84,4.42,2.81,10,4.23,16.53,4.23h91c9.41,0,16.28-2.44,20.42-7.26,6.2-7.21,4.66-17.86,4.64-18A5.12,5.12,0,0,1,165,464V434.92a32.93,32.93,0,0,1,65.85-.06l.76,33.1a.49.49,0,0,1,0,.12,22.92,22.92,0,0,0,45.84,0V378.92a32.93,32.93,0,0,1,65.85,0v89.16a22.92,22.92,0,1,0,45.84,0V402.92a32.93,32.93,0,0,1,65.85,0V447a5,5,0,0,1-10,0V402.92a22.93,22.93,0,0,0-45.85,0v65.16A33,33,0,0,1,366.23,501Z"/><path class="cls-2" d="M125.5,125a5,5,0,0,1-4.88-3.91c-.09-.39-9.36-39.63-44.21-47.44a5,5,0,0,1,.15-9.79c1.6-.31,39.24-8.06,44-47.46a5,5,0,0,1,9.89-.22,74.68,74.68,0,0,0,8.38,22.06c8.41,14.56,20.35,23.17,35.48,25.59a5,5,0,0,1,.23,9.84c-1.55.32-38.2,8.55-44.08,47.08a5,5,0,0,1-4.77,4.25ZM92.6,68.82c17.1,8.46,26.94,23.37,32.27,34.74a64.52,64.52,0,0,1,24.29-29.31,75.28,75.28,0,0,1,8.66-5C146.44,64.08,137,55.17,130,42.94A83.53,83.53,0,0,1,126,35a62.36,62.36,0,0,1-23.72,28.41A73.94,73.94,0,0,1,92.6,68.82Z"/><path class="cls-2" d="M448.5,346a5,5,0,0,1-4.88-3.91c-.09-.39-9.36-39.63-44.21-47.44a5,5,0,0,1,.15-9.79c1.6-.31,39.24-8.06,44-47.46a5,5,0,0,1,4.85-4.4h.11a5,5,0,0,1,4.93,4.18,74.68,74.68,0,0,0,8.38,22.06c8.41,14.56,20.35,23.17,35.48,25.59a5,5,0,0,1,.23,9.84c-1.55.32-38.2,8.55-44.08,47.08a5,5,0,0,1-4.77,4.25Zm-32.9-56.18c17.1,8.46,26.94,23.37,32.27,34.74a64.52,64.52,0,0,1,24.29-29.31,75.28,75.28,0,0,1,8.66-5C469.44,285.08,460,276.17,453,263.94a83.53,83.53,0,0,1-4-7.91,62.36,62.36,0,0,1-23.72,28.41A73.94,73.94,0,0,1,415.6,289.82Z"/></g><g id="Outline"><path class="cls-2" d="M427,153.29a5,5,0,0,1-3.54-1.46l-.71-.71a5,5,0,1,1,7.07-7.07l.71.71a5,5,0,0,1,0,7.07A4.94,4.94,0,0,1,427,153.29Z"/><path class="cls-2" d="M403,177.34a5,5,0,0,1-3.54-1.47l-.71-.71a5,5,0,0,1,7.07-7.07l.71.71a5,5,0,0,1-3.53,8.54Z"/><path class="cls-2" d="M378.9,201.38a5,5,0,0,1-3.53-1.47l-.71-.7a5,5,0,0,1,7.07-7.08l.71.71a5,5,0,0,1-3.54,8.54Z"/><path class="cls-2" d="M429.17,107.39a5,5,0,0,1-3.54-1.46l-.71-.71A5,5,0,0,1,432,98.15l.7.7a5,5,0,0,1-3.53,8.54Z"/><path class="cls-2" d="M405.12,131.43a5,5,0,0,1-3.53-1.46l-.71-.71a5,5,0,1,1,7.07-7.07l.71.71a5,5,0,0,1-3.54,8.53Z"/><path class="cls-2" d="M381.08,155.47a4.94,4.94,0,0,1-3.53-1.46l-.71-.71a5,5,0,1,1,7.07-7.07l.71.71a5,5,0,0,1-3.54,8.53Z"/><path class="cls-2" d="M357,179.52a5,5,0,0,1-3.53-1.47l-.71-.71a5,5,0,0,1,7.07-7.07l.71.71a5,5,0,0,1-3.54,8.54Z"/><path class="cls-2" d="M407.31,85.53a5,5,0,0,1-3.54-1.47l-.71-.7a5,5,0,0,1,7.07-7.07l.71.7a5,5,0,0,1-3.53,8.54Z"/><path class="cls-2" d="M383.26,109.57a5,5,0,0,1-3.53-1.46l-.71-.71a5,5,0,1,1,7.07-7.07l.71.71a5,5,0,0,1-3.54,8.53Z"/><path class="cls-2" d="M359.22,133.61a5,5,0,0,1-3.53-1.46l-.71-.71a5,5,0,1,1,7.07-7.07l.71.71a5,5,0,0,1-3.54,8.53Z"/><path class="cls-2" d="M335.18,157.65a4.94,4.94,0,0,1-3.53-1.46l-.71-.71a5,5,0,0,1,7.07-7.07l.71.71a5,5,0,0,1-3.54,8.53Z"/><path class="cls-2" d="M385.44,63.67a5,5,0,0,1-3.53-1.47l-.71-.7a5,5,0,0,1,7.07-7.07l.71.7a5,5,0,0,1-3.54,8.54Z"/><path class="cls-2" d="M361.4,87.71a5,5,0,0,1-3.53-1.46l-.71-.71a5,5,0,0,1,7.07-7.07l.71.7a5,5,0,0,1-3.54,8.54Z"/><path class="cls-2" d="M337.36,111.75a5,5,0,0,1-3.53-1.46l-.71-.71a5,5,0,1,1,7.07-7.07l.71.71a5,5,0,0,1-3.54,8.53Z"/><path class="cls-2" d="M313.32,135.79a5,5,0,0,1-3.54-1.46l-.7-.71a5,5,0,0,1,7.07-7.07l.71.71a5,5,0,0,1,0,7.07A4.94,4.94,0,0,1,313.32,135.79Z"/><path class="cls-2" d="M363.58,41.81a5,5,0,0,1-3.53-1.47l-.71-.7a5,5,0,0,1,7.07-7.08l.71.71a5,5,0,0,1-3.54,8.54Z"/><path class="cls-2" d="M339.54,65.85A5,5,0,0,1,336,64.38l-.71-.7a5,5,0,0,1,7.07-7.07l.71.7a5,5,0,0,1-3.54,8.54Z"/><path class="cls-2" d="M315.5,89.89A5,5,0,0,1,312,88.43l-.71-.71a5,5,0,1,1,7.07-7.08l.7.71a5,5,0,0,1-3.53,8.54Z"/><path class="cls-2" d="M291.46,113.93a5,5,0,0,1-3.54-1.46l-.71-.71a5,5,0,0,1,7.08-7.07l.71.71a5,5,0,0,1-3.54,8.53Z"/><path class="cls-2" d="M317.68,44a5,5,0,0,1-3.54-1.47l-.7-.7a5,5,0,0,1,7.07-7.08l.7.71A5,5,0,0,1,317.68,44Z"/><path class="cls-2" d="M293.64,68a5,5,0,0,1-3.53-1.46l-.71-.71a5,5,0,1,1,7.06-7.08l.71.71A5,5,0,0,1,293.64,68Z"/><path class="cls-2" d="M269.6,92.07a5,5,0,0,1-3.54-1.46l-.71-.71a5,5,0,1,1,7.07-7.07l.71.7a5,5,0,0,1-3.53,8.54Z"/></g></svg>