<svg xmlns="http://www.w3.org/2000/svg" version="1.1" xmlns:xlink="http://www.w3.org/1999/xlink" xmlns:svgjs="http://svgjs.dev/svgjs" viewBox="0 0 800 800" width="800" height="800"><g stroke-width="3.5" stroke="hsl(261, 60%, 38%)" fill="none"><line x1="0" y1="0" x2="66.66666666666667" y2="66.66666666666667"></line><line x1="66.66666666666667" y1="0" x2="0" y2="66.66666666666667"></line><rect width="66.66666666666667" height="66.66666666666667" x="0" y="0" opacity="0.15"></rect><line x1="66.66666666666667" y1="0" x2="133.33333333333334" y2="66.66666666666667"></line><line x1="133.33333333333334" y1="0" x2="66.66666666666667" y2="66.66666666666667"></line><rect width="66.66666666666667" height="66.66666666666667" x="66.66666666666667" y="0" opacity="0.15"></rect><line x1="133.33333333333334" y1="0" x2="200" y2="66.66666666666667"></line><line x1="200" y1="0" x2="133.33333333333334" y2="66.66666666666667"></line><rect width="66.66666666666667" height="66.66666666666667" x="133.33333333333334" y="0" opacity="0.15"></rect><line x1="200" y1="0" x2="266.6666666666667" y2="66.66666666666667"></line><line x1="266.6666666666667" y1="0" x2="200" y2="66.66666666666667"></line><rect width="66.66666666666667" height="66.66666666666667" x="200" y="0" opacity="0.15"></rect><line x1="266.6666666666667" y1="0" x2="333.33333333333337" y2="66.66666666666667"></line><line x1="333.33333333333337" y1="0" x2="266.6666666666667" y2="66.66666666666667"></line><rect width="66.66666666666667" height="66.66666666666667" x="266.6666666666667" y="0" opacity="0.15"></rect><line x1="333.33333333333337" y1="0" x2="400.00000000000006" y2="66.66666666666667"></line><line x1="400.00000000000006" y1="0" x2="333.33333333333337" y2="66.66666666666667"></line><rect width="66.66666666666667" height="66.66666666666667" x="333.33333333333337" y="0" opacity="0.15"></rect><line x1="400.00000000000006" y1="0" x2="466.66666666666674" y2="66.66666666666667"></line><line x1="466.66666666666674" y1="0" x2="400.00000000000006" y2="66.66666666666667"></line><rect width="66.66666666666667" height="66.66666666666667" x="400.00000000000006" y="0" opacity="0.15"></rect><line x1="466.66666666666674" y1="0" x2="533.3333333333334" y2="66.66666666666667"></line><line x1="533.3333333333334" y1="0" x2="466.66666666666674" y2="66.66666666666667"></line><rect width="66.66666666666667" height="66.66666666666667" x="466.66666666666674" y="0" opacity="0.15"></rect><line x1="533.3333333333334" y1="0" x2="600" y2="66.66666666666667"></line><line x1="600" y1="0" x2="533.3333333333334" y2="66.66666666666667"></line><rect width="66.66666666666667" height="66.66666666666667" x="533.3333333333334" y="0" opacity="0.15"></rect><line x1="600" y1="0" x2="666.6666666666666" y2="66.66666666666667"></line><line x1="666.6666666666666" y1="0" x2="600" y2="66.66666666666667"></line><rect width="66.66666666666667" height="66.66666666666667" x="600" y="0" opacity="0.15"></rect><line x1="666.6666666666666" y1="0" x2="733.3333333333333" y2="66.66666666666667"></line><line x1="733.3333333333333" y1="0" x2="666.6666666666666" y2="66.66666666666667"></line><rect width="66.66666666666667" height="66.66666666666667" x="666.6666666666666" y="0" opacity="0.15"></rect><line x1="733.3333333333333" y1="0" x2="799.9999999999999" y2="66.66666666666667"></line><line x1="799.9999999999999" y1="0" x2="733.3333333333333" y2="66.66666666666667"></line><rect width="66.66666666666667" height="66.66666666666667" x="733.3333333333333" y="0" opacity="0.15"></rect><line x1="799.9999999999999" y1="0" x2="866.6666666666665" y2="66.66666666666667"></line><line x1="866.6666666666665" y1="0" x2="799.9999999999999" y2="66.66666666666667"></line><rect width="66.66666666666667" height="66.66666666666667" x="799.9999999999999" y="0" opacity="0.15"></rect><line x1="0" y1="66.66666666666667" x2="66.66666666666667" y2="133.33333333333334"></line><line x1="66.66666666666667" y1="66.66666666666667" x2="0" y2="133.33333333333334"></line><rect width="66.66666666666667" height="66.66666666666667" x="0" y="66.66666666666667" opacity="0.15"></rect><line x1="66.66666666666667" y1="66.66666666666667" x2="133.33333333333334" y2="133.33333333333334"></line><line x1="133.33333333333334" y1="66.66666666666667" x2="66.66666666666667" y2="133.33333333333334"></line><rect width="66.66666666666667" height="66.66666666666667" x="66.66666666666667" y="66.66666666666667" opacity="0.15"></rect><line x1="133.33333333333334" y1="66.66666666666667" x2="200" y2="133.33333333333334"></line><line x1="200" y1="66.66666666666667" x2="133.33333333333334" y2="133.33333333333334"></line><rect width="66.66666666666667" height="66.66666666666667" x="133.33333333333334" y="66.66666666666667" opacity="0.15"></rect><line x1="200" y1="66.66666666666667" x2="266.6666666666667" y2="133.33333333333334"></line><line x1="266.6666666666667" y1="66.66666666666667" x2="200" y2="133.33333333333334"></line><rect width="66.66666666666667" height="66.66666666666667" x="200" y="66.66666666666667" opacity="0.15"></rect><line x1="266.6666666666667" y1="66.66666666666667" x2="333.33333333333337" y2="133.33333333333334"></line><line x1="333.33333333333337" y1="66.66666666666667" x2="266.6666666666667" y2="133.33333333333334"></line><rect width="66.66666666666667" height="66.66666666666667" x="266.6666666666667" y="66.66666666666667" opacity="0.15"></rect><line x1="333.33333333333337" y1="66.66666666666667" x2="400.00000000000006" y2="133.33333333333334"></line><line x1="400.00000000000006" y1="66.66666666666667" x2="333.33333333333337" y2="133.33333333333334"></line><rect width="66.66666666666667" height="66.66666666666667" x="333.33333333333337" y="66.66666666666667" opacity="0.15"></rect><line x1="400.00000000000006" y1="66.66666666666667" x2="466.66666666666674" y2="133.33333333333334"></line><line x1="466.66666666666674" y1="66.66666666666667" x2="400.00000000000006" y2="133.33333333333334"></line><rect width="66.66666666666667" height="66.66666666666667" x="400.00000000000006" y="66.66666666666667" opacity="0.15"></rect><line x1="466.66666666666674" y1="66.66666666666667" x2="533.3333333333334" y2="133.33333333333334"></line><line x1="533.3333333333334" y1="66.66666666666667" x2="466.66666666666674" y2="133.33333333333334"></line><rect width="66.66666666666667" height="66.66666666666667" x="466.66666666666674" y="66.66666666666667" opacity="0.15"></rect><line x1="533.3333333333334" y1="66.66666666666667" x2="600" y2="133.33333333333334"></line><line x1="600" y1="66.66666666666667" x2="533.3333333333334" y2="133.33333333333334"></line><rect width="66.66666666666667" height="66.66666666666667" x="533.3333333333334" y="66.66666666666667" opacity="0.15"></rect><line x1="600" y1="66.66666666666667" x2="666.6666666666666" y2="133.33333333333334"></line><line x1="666.6666666666666" y1="66.66666666666667" x2="600" y2="133.33333333333334"></line><rect width="66.66666666666667" height="66.66666666666667" x="600" y="66.66666666666667" opacity="0.15"></rect><line x1="666.6666666666666" y1="66.66666666666667" x2="733.3333333333333" y2="133.33333333333334"></line><line x1="733.3333333333333" y1="66.66666666666667" x2="666.6666666666666" y2="133.33333333333334"></line><rect width="66.66666666666667" height="66.66666666666667" x="666.6666666666666" y="66.66666666666667" opacity="0.15"></rect><line x1="733.3333333333333" y1="66.66666666666667" x2="799.9999999999999" y2="133.33333333333334"></line><line x1="799.9999999999999" y1="66.66666666666667" x2="733.3333333333333" y2="133.33333333333334"></line><rect width="66.66666666666667" height="66.66666666666667" x="733.3333333333333" y="66.66666666666667" opacity="0.15"></rect><line x1="799.9999999999999" y1="66.66666666666667" x2="866.6666666666665" y2="133.33333333333334"></line><line x1="866.6666666666665" y1="66.66666666666667" x2="799.9999999999999" y2="133.33333333333334"></line><rect width="66.66666666666667" height="66.66666666666667" x="799.9999999999999" y="66.66666666666667" opacity="0.15"></rect><line x1="0" y1="133.33333333333334" x2="66.66666666666667" y2="200"></line><line x1="66.66666666666667" y1="133.33333333333334" x2="0" y2="200"></line><rect width="66.66666666666667" height="66.66666666666667" x="0" y="133.33333333333334" opacity="0.15"></rect><line x1="66.66666666666667" y1="133.33333333333334" x2="133.33333333333334" y2="200"></line><line x1="133.33333333333334" y1="133.33333333333334" x2="66.66666666666667" y2="200"></line><rect width="66.66666666666667" height="66.66666666666667" x="66.66666666666667" y="133.33333333333334" opacity="0.15"></rect><line x1="133.33333333333334" y1="133.33333333333334" x2="200" y2="200"></line><line x1="200" y1="133.33333333333334" x2="133.33333333333334" y2="200"></line><rect width="66.66666666666667" height="66.66666666666667" x="133.33333333333334" y="133.33333333333334" opacity="0.15"></rect><line x1="200" y1="133.33333333333334" x2="266.6666666666667" y2="200"></line><line x1="266.6666666666667" y1="133.33333333333334" x2="200" y2="200"></line><rect width="66.66666666666667" height="66.66666666666667" x="200" y="133.33333333333334" opacity="0.15"></rect><line x1="266.6666666666667" y1="133.33333333333334" x2="333.33333333333337" y2="200"></line><line x1="333.33333333333337" y1="133.33333333333334" x2="266.6666666666667" y2="200"></line><rect width="66.66666666666667" height="66.66666666666667" x="266.6666666666667" y="133.33333333333334" opacity="0.15"></rect><line x1="333.33333333333337" y1="133.33333333333334" x2="400.00000000000006" y2="200"></line><line x1="400.00000000000006" y1="133.33333333333334" x2="333.33333333333337" y2="200"></line><rect width="66.66666666666667" height="66.66666666666667" x="333.33333333333337" y="133.33333333333334" opacity="0.15"></rect><line x1="400.00000000000006" y1="133.33333333333334" x2="466.66666666666674" y2="200"></line><line x1="466.66666666666674" y1="133.33333333333334" x2="400.00000000000006" y2="200"></line><rect width="66.66666666666667" height="66.66666666666667" x="400.00000000000006" y="133.33333333333334" opacity="0.15"></rect><line x1="466.66666666666674" y1="133.33333333333334" x2="533.3333333333334" y2="200"></line><line x1="533.3333333333334" y1="133.33333333333334" x2="466.66666666666674" y2="200"></line><rect width="66.66666666666667" height="66.66666666666667" x="466.66666666666674" y="133.33333333333334" opacity="0.15"></rect><line x1="533.3333333333334" y1="133.33333333333334" x2="600" y2="200"></line><line x1="600" y1="133.33333333333334" x2="533.3333333333334" y2="200"></line><rect width="66.66666666666667" height="66.66666666666667" x="533.3333333333334" y="133.33333333333334" opacity="0.15"></rect><line x1="600" y1="133.33333333333334" x2="666.6666666666666" y2="200"></line><line x1="666.6666666666666" y1="133.33333333333334" x2="600" y2="200"></line><rect width="66.66666666666667" height="66.66666666666667" x="600" y="133.33333333333334" opacity="0.15"></rect><line x1="666.6666666666666" y1="133.33333333333334" x2="733.3333333333333" y2="200"></line><line x1="733.3333333333333" y1="133.33333333333334" x2="666.6666666666666" y2="200"></line><rect width="66.66666666666667" height="66.66666666666667" x="666.6666666666666" y="133.33333333333334" opacity="0.15"></rect><line x1="733.3333333333333" y1="133.33333333333334" x2="799.9999999999999" y2="200"></line><line x1="799.9999999999999" y1="133.33333333333334" x2="733.3333333333333" y2="200"></line><rect width="66.66666666666667" height="66.66666666666667" x="733.3333333333333" y="133.33333333333334" opacity="0.15"></rect><line x1="799.9999999999999" y1="133.33333333333334" x2="866.6666666666665" y2="200"></line><line x1="866.6666666666665" y1="133.33333333333334" x2="799.9999999999999" y2="200"></line><rect width="66.66666666666667" height="66.66666666666667" x="799.9999999999999" y="133.33333333333334" opacity="0.15"></rect><line x1="0" y1="200" x2="66.66666666666667" y2="266.6666666666667"></line><line x1="66.66666666666667" y1="200" x2="0" y2="266.6666666666667"></line><rect width="66.66666666666667" height="66.66666666666667" x="0" y="200" opacity="0.15"></rect><line x1="66.66666666666667" y1="200" x2="133.33333333333334" y2="266.6666666666667"></line><line x1="133.33333333333334" y1="200" x2="66.66666666666667" y2="266.6666666666667"></line><rect width="66.66666666666667" height="66.66666666666667" x="66.66666666666667" y="200" opacity="0.15"></rect><line x1="133.33333333333334" y1="200" x2="200" y2="266.6666666666667"></line><line x1="200" y1="200" x2="133.33333333333334" y2="266.6666666666667"></line><rect width="66.66666666666667" height="66.66666666666667" x="133.33333333333334" y="200" opacity="0.15"></rect><line x1="200" y1="200" x2="266.6666666666667" y2="266.6666666666667"></line><line x1="266.6666666666667" y1="200" x2="200" y2="266.6666666666667"></line><rect width="66.66666666666667" height="66.66666666666667" x="200" y="200" opacity="0.15"></rect><line x1="266.6666666666667" y1="200" x2="333.33333333333337" y2="266.6666666666667"></line><line x1="333.33333333333337" y1="200" x2="266.6666666666667" y2="266.6666666666667"></line><rect width="66.66666666666667" height="66.66666666666667" x="266.6666666666667" y="200" opacity="0.15"></rect><line x1="333.33333333333337" y1="200" x2="400.00000000000006" y2="266.6666666666667"></line><line x1="400.00000000000006" y1="200" x2="333.33333333333337" y2="266.6666666666667"></line><rect width="66.66666666666667" height="66.66666666666667" x="333.33333333333337" y="200" opacity="0.15"></rect><line x1="400.00000000000006" y1="200" x2="466.66666666666674" y2="266.6666666666667"></line><line x1="466.66666666666674" y1="200" x2="400.00000000000006" y2="266.6666666666667"></line><rect width="66.66666666666667" height="66.66666666666667" x="400.00000000000006" y="200" opacity="0.15"></rect><line x1="466.66666666666674" y1="200" x2="533.3333333333334" y2="266.6666666666667"></line><line x1="533.3333333333334" y1="200" x2="466.66666666666674" y2="266.6666666666667"></line><rect width="66.66666666666667" height="66.66666666666667" x="466.66666666666674" y="200" opacity="0.15"></rect><line x1="533.3333333333334" y1="200" x2="600" y2="266.6666666666667"></line><line x1="600" y1="200" x2="533.3333333333334" y2="266.6666666666667"></line><rect width="66.66666666666667" height="66.66666666666667" x="533.3333333333334" y="200" opacity="0.15"></rect><line x1="600" y1="200" x2="666.6666666666666" y2="266.6666666666667"></line><line x1="666.6666666666666" y1="200" x2="600" y2="266.6666666666667"></line><rect width="66.66666666666667" height="66.66666666666667" x="600" y="200" opacity="0.15"></rect><line x1="666.6666666666666" y1="200" x2="733.3333333333333" y2="266.6666666666667"></line><line x1="733.3333333333333" y1="200" x2="666.6666666666666" y2="266.6666666666667"></line><rect width="66.66666666666667" height="66.66666666666667" x="666.6666666666666" y="200" opacity="0.15"></rect><line x1="733.3333333333333" y1="200" x2="799.9999999999999" y2="266.6666666666667"></line><line x1="799.9999999999999" y1="200" x2="733.3333333333333" y2="266.6666666666667"></line><rect width="66.66666666666667" height="66.66666666666667" x="733.3333333333333" y="200" opacity="0.15"></rect><line x1="799.9999999999999" y1="200" x2="866.6666666666665" y2="266.6666666666667"></line><line x1="866.6666666666665" y1="200" x2="799.9999999999999" y2="266.6666666666667"></line><rect width="66.66666666666667" height="66.66666666666667" x="799.9999999999999" y="200" opacity="0.15"></rect><line x1="0" y1="266.6666666666667" x2="66.66666666666667" y2="333.33333333333337"></line><line x1="66.66666666666667" y1="266.6666666666667" x2="0" y2="333.33333333333337"></line><rect width="66.66666666666667" height="66.66666666666667" x="0" y="266.6666666666667" opacity="0.15"></rect><line x1="66.66666666666667" y1="266.6666666666667" x2="133.33333333333334" y2="333.33333333333337"></line><line x1="133.33333333333334" y1="266.6666666666667" x2="66.66666666666667" y2="333.33333333333337"></line><rect width="66.66666666666667" height="66.66666666666667" x="66.66666666666667" y="266.6666666666667" opacity="0.15"></rect><line x1="133.33333333333334" y1="266.6666666666667" x2="200" y2="333.33333333333337"></line><line x1="200" y1="266.6666666666667" x2="133.33333333333334" y2="333.33333333333337"></line><rect width="66.66666666666667" height="66.66666666666667" x="133.33333333333334" y="266.6666666666667" opacity="0.15"></rect><line x1="200" y1="266.6666666666667" x2="266.6666666666667" y2="333.33333333333337"></line><line x1="266.6666666666667" y1="266.6666666666667" x2="200" y2="333.33333333333337"></line><rect width="66.66666666666667" height="66.66666666666667" x="200" y="266.6666666666667" opacity="0.15"></rect><line x1="266.6666666666667" y1="266.6666666666667" x2="333.33333333333337" y2="333.33333333333337"></line><line x1="333.33333333333337" y1="266.6666666666667" x2="266.6666666666667" y2="333.33333333333337"></line><rect width="66.66666666666667" height="66.66666666666667" x="266.6666666666667" y="266.6666666666667" opacity="0.15"></rect><line x1="333.33333333333337" y1="266.6666666666667" x2="400.00000000000006" y2="333.33333333333337"></line><line x1="400.00000000000006" y1="266.6666666666667" x2="333.33333333333337" y2="333.33333333333337"></line><rect width="66.66666666666667" height="66.66666666666667" x="333.33333333333337" y="266.6666666666667" opacity="0.15"></rect><line x1="400.00000000000006" y1="266.6666666666667" x2="466.66666666666674" y2="333.33333333333337"></line><line x1="466.66666666666674" y1="266.6666666666667" x2="400.00000000000006" y2="333.33333333333337"></line><rect width="66.66666666666667" height="66.66666666666667" x="400.00000000000006" y="266.6666666666667" opacity="0.15"></rect><line x1="466.66666666666674" y1="266.6666666666667" x2="533.3333333333334" y2="333.33333333333337"></line><line x1="533.3333333333334" y1="266.6666666666667" x2="466.66666666666674" y2="333.33333333333337"></line><rect width="66.66666666666667" height="66.66666666666667" x="466.66666666666674" y="266.6666666666667" opacity="0.15"></rect><line x1="533.3333333333334" y1="266.6666666666667" x2="600" y2="333.33333333333337"></line><line x1="600" y1="266.6666666666667" x2="533.3333333333334" y2="333.33333333333337"></line><rect width="66.66666666666667" height="66.66666666666667" x="533.3333333333334" y="266.6666666666667" opacity="0.15"></rect><line x1="600" y1="266.6666666666667" x2="666.6666666666666" y2="333.33333333333337"></line><line x1="666.6666666666666" y1="266.6666666666667" x2="600" y2="333.33333333333337"></line><rect width="66.66666666666667" height="66.66666666666667" x="600" y="266.6666666666667" opacity="0.15"></rect><line x1="666.6666666666666" y1="266.6666666666667" x2="733.3333333333333" y2="333.33333333333337"></line><line x1="733.3333333333333" y1="266.6666666666667" x2="666.6666666666666" y2="333.33333333333337"></line><rect width="66.66666666666667" height="66.66666666666667" x="666.6666666666666" y="266.6666666666667" opacity="0.15"></rect><line x1="733.3333333333333" y1="266.6666666666667" x2="799.9999999999999" y2="333.33333333333337"></line><line x1="799.9999999999999" y1="266.6666666666667" x2="733.3333333333333" y2="333.33333333333337"></line><rect width="66.66666666666667" height="66.66666666666667" x="733.3333333333333" y="266.6666666666667" opacity="0.15"></rect><line x1="799.9999999999999" y1="266.6666666666667" x2="866.6666666666665" y2="333.33333333333337"></line><line x1="866.6666666666665" y1="266.6666666666667" x2="799.9999999999999" y2="333.33333333333337"></line><rect width="66.66666666666667" height="66.66666666666667" x="799.9999999999999" y="266.6666666666667" opacity="0.15"></rect><line x1="0" y1="333.33333333333337" x2="66.66666666666667" y2="400.00000000000006"></line><line x1="66.66666666666667" y1="333.33333333333337" x2="0" y2="400.00000000000006"></line><rect width="66.66666666666667" height="66.66666666666667" x="0" y="333.33333333333337" opacity="0.15"></rect><line x1="66.66666666666667" y1="333.33333333333337" x2="133.33333333333334" y2="400.00000000000006"></line><line x1="133.33333333333334" y1="333.33333333333337" x2="66.66666666666667" y2="400.00000000000006"></line><rect width="66.66666666666667" height="66.66666666666667" x="66.66666666666667" y="333.33333333333337" opacity="0.15"></rect><line x1="133.33333333333334" y1="333.33333333333337" x2="200" y2="400.00000000000006"></line><line x1="200" y1="333.33333333333337" x2="133.33333333333334" y2="400.00000000000006"></line><rect width="66.66666666666667" height="66.66666666666667" x="133.33333333333334" y="333.33333333333337" opacity="0.15"></rect><line x1="200" y1="333.33333333333337" x2="266.6666666666667" y2="400.00000000000006"></line><line x1="266.6666666666667" y1="333.33333333333337" x2="200" y2="400.00000000000006"></line><rect width="66.66666666666667" height="66.66666666666667" x="200" y="333.33333333333337" opacity="0.15"></rect><line x1="266.6666666666667" y1="333.33333333333337" x2="333.33333333333337" y2="400.00000000000006"></line><line x1="333.33333333333337" y1="333.33333333333337" x2="266.6666666666667" y2="400.00000000000006"></line><rect width="66.66666666666667" height="66.66666666666667" x="266.6666666666667" y="333.33333333333337" opacity="0.15"></rect><line x1="333.33333333333337" y1="333.33333333333337" x2="400.00000000000006" y2="400.00000000000006"></line><line x1="400.00000000000006" y1="333.33333333333337" x2="333.33333333333337" y2="400.00000000000006"></line><rect width="66.66666666666667" height="66.66666666666667" x="333.33333333333337" y="333.33333333333337" opacity="0.15"></rect><line x1="400.00000000000006" y1="333.33333333333337" x2="466.66666666666674" y2="400.00000000000006"></line><line x1="466.66666666666674" y1="333.33333333333337" x2="400.00000000000006" y2="400.00000000000006"></line><rect width="66.66666666666667" height="66.66666666666667" x="400.00000000000006" y="333.33333333333337" opacity="0.15"></rect><line x1="466.66666666666674" y1="333.33333333333337" x2="533.3333333333334" y2="400.00000000000006"></line><line x1="533.3333333333334" y1="333.33333333333337" x2="466.66666666666674" y2="400.00000000000006"></line><rect width="66.66666666666667" height="66.66666666666667" x="466.66666666666674" y="333.33333333333337" opacity="0.15"></rect><line x1="533.3333333333334" y1="333.33333333333337" x2="600" y2="400.00000000000006"></line><line x1="600" y1="333.33333333333337" x2="533.3333333333334" y2="400.00000000000006"></line><rect width="66.66666666666667" height="66.66666666666667" x="533.3333333333334" y="333.33333333333337" opacity="0.15"></rect><line x1="600" y1="333.33333333333337" x2="666.6666666666666" y2="400.00000000000006"></line><line x1="666.6666666666666" y1="333.33333333333337" x2="600" y2="400.00000000000006"></line><rect width="66.66666666666667" height="66.66666666666667" x="600" y="333.33333333333337" opacity="0.15"></rect><line x1="666.6666666666666" y1="333.33333333333337" x2="733.3333333333333" y2="400.00000000000006"></line><line x1="733.3333333333333" y1="333.33333333333337" x2="666.6666666666666" y2="400.00000000000006"></line><rect width="66.66666666666667" height="66.66666666666667" x="666.6666666666666" y="333.33333333333337" opacity="0.15"></rect><line x1="733.3333333333333" y1="333.33333333333337" x2="799.9999999999999" y2="400.00000000000006"></line><line x1="799.9999999999999" y1="333.33333333333337" x2="733.3333333333333" y2="400.00000000000006"></line><rect width="66.66666666666667" height="66.66666666666667" x="733.3333333333333" y="333.33333333333337" opacity="0.15"></rect><line x1="799.9999999999999" y1="333.33333333333337" x2="866.6666666666665" y2="400.00000000000006"></line><line x1="866.6666666666665" y1="333.33333333333337" x2="799.9999999999999" y2="400.00000000000006"></line><rect width="66.66666666666667" height="66.66666666666667" x="799.9999999999999" y="333.33333333333337" opacity="0.15"></rect><line x1="0" y1="400.00000000000006" x2="66.66666666666667" y2="466.66666666666674"></line><line x1="66.66666666666667" y1="400.00000000000006" x2="0" y2="466.66666666666674"></line><rect width="66.66666666666667" height="66.66666666666667" x="0" y="400.00000000000006" opacity="0.15"></rect><line x1="66.66666666666667" y1="400.00000000000006" x2="133.33333333333334" y2="466.66666666666674"></line><line x1="133.33333333333334" y1="400.00000000000006" x2="66.66666666666667" y2="466.66666666666674"></line><rect width="66.66666666666667" height="66.66666666666667" x="66.66666666666667" y="400.00000000000006" opacity="0.15"></rect><line x1="133.33333333333334" y1="400.00000000000006" x2="200" y2="466.66666666666674"></line><line x1="200" y1="400.00000000000006" x2="133.33333333333334" y2="466.66666666666674"></line><rect width="66.66666666666667" height="66.66666666666667" x="133.33333333333334" y="400.00000000000006" opacity="0.15"></rect><line x1="200" y1="400.00000000000006" x2="266.6666666666667" y2="466.66666666666674"></line><line x1="266.6666666666667" y1="400.00000000000006" x2="200" y2="466.66666666666674"></line><rect width="66.66666666666667" height="66.66666666666667" x="200" y="400.00000000000006" opacity="0.15"></rect><line x1="266.6666666666667" y1="400.00000000000006" x2="333.33333333333337" y2="466.66666666666674"></line><line x1="333.33333333333337" y1="400.00000000000006" x2="266.6666666666667" y2="466.66666666666674"></line><rect width="66.66666666666667" height="66.66666666666667" x="266.6666666666667" y="400.00000000000006" opacity="0.15"></rect><line x1="333.33333333333337" y1="400.00000000000006" x2="400.00000000000006" y2="466.66666666666674"></line><line x1="400.00000000000006" y1="400.00000000000006" x2="333.33333333333337" y2="466.66666666666674"></line><rect width="66.66666666666667" height="66.66666666666667" x="333.33333333333337" y="400.00000000000006" opacity="0.15"></rect><line x1="400.00000000000006" y1="400.00000000000006" x2="466.66666666666674" y2="466.66666666666674"></line><line x1="466.66666666666674" y1="400.00000000000006" x2="400.00000000000006" y2="466.66666666666674"></line><rect width="66.66666666666667" height="66.66666666666667" x="400.00000000000006" y="400.00000000000006" opacity="0.15"></rect><line x1="466.66666666666674" y1="400.00000000000006" x2="533.3333333333334" y2="466.66666666666674"></line><line x1="533.3333333333334" y1="400.00000000000006" x2="466.66666666666674" y2="466.66666666666674"></line><rect width="66.66666666666667" height="66.66666666666667" x="466.66666666666674" y="400.00000000000006" opacity="0.15"></rect><line x1="533.3333333333334" y1="400.00000000000006" x2="600" y2="466.66666666666674"></line><line x1="600" y1="400.00000000000006" x2="533.3333333333334" y2="466.66666666666674"></line><rect width="66.66666666666667" height="66.66666666666667" x="533.3333333333334" y="400.00000000000006" opacity="0.15"></rect><line x1="600" y1="400.00000000000006" x2="666.6666666666666" y2="466.66666666666674"></line><line x1="666.6666666666666" y1="400.00000000000006" x2="600" y2="466.66666666666674"></line><rect width="66.66666666666667" height="66.66666666666667" x="600" y="400.00000000000006" opacity="0.15"></rect><line x1="666.6666666666666" y1="400.00000000000006" x2="733.3333333333333" y2="466.66666666666674"></line><line x1="733.3333333333333" y1="400.00000000000006" x2="666.6666666666666" y2="466.66666666666674"></line><rect width="66.66666666666667" height="66.66666666666667" x="666.6666666666666" y="400.00000000000006" opacity="0.15"></rect><line x1="733.3333333333333" y1="400.00000000000006" x2="799.9999999999999" y2="466.66666666666674"></line><line x1="799.9999999999999" y1="400.00000000000006" x2="733.3333333333333" y2="466.66666666666674"></line><rect width="66.66666666666667" height="66.66666666666667" x="733.3333333333333" y="400.00000000000006" opacity="0.15"></rect><line x1="799.9999999999999" y1="400.00000000000006" x2="866.6666666666665" y2="466.66666666666674"></line><line x1="866.6666666666665" y1="400.00000000000006" x2="799.9999999999999" y2="466.66666666666674"></line><rect width="66.66666666666667" height="66.66666666666667" x="799.9999999999999" y="400.00000000000006" opacity="0.15"></rect><line x1="0" y1="466.66666666666674" x2="66.66666666666667" y2="533.3333333333334"></line><line x1="66.66666666666667" y1="466.66666666666674" x2="0" y2="533.3333333333334"></line><rect width="66.66666666666667" height="66.66666666666667" x="0" y="466.66666666666674" opacity="0.15"></rect><line x1="66.66666666666667" y1="466.66666666666674" x2="133.33333333333334" y2="533.3333333333334"></line><line x1="133.33333333333334" y1="466.66666666666674" x2="66.66666666666667" y2="533.3333333333334"></line><rect width="66.66666666666667" height="66.66666666666667" x="66.66666666666667" y="466.66666666666674" opacity="0.15"></rect><line x1="133.33333333333334" y1="466.66666666666674" x2="200" y2="533.3333333333334"></line><line x1="200" y1="466.66666666666674" x2="133.33333333333334" y2="533.3333333333334"></line><rect width="66.66666666666667" height="66.66666666666667" x="133.33333333333334" y="466.66666666666674" opacity="0.15"></rect><line x1="200" y1="466.66666666666674" x2="266.6666666666667" y2="533.3333333333334"></line><line x1="266.6666666666667" y1="466.66666666666674" x2="200" y2="533.3333333333334"></line><rect width="66.66666666666667" height="66.66666666666667" x="200" y="466.66666666666674" opacity="0.15"></rect><line x1="266.6666666666667" y1="466.66666666666674" x2="333.33333333333337" y2="533.3333333333334"></line><line x1="333.33333333333337" y1="466.66666666666674" x2="266.6666666666667" y2="533.3333333333334"></line><rect width="66.66666666666667" height="66.66666666666667" x="266.6666666666667" y="466.66666666666674" opacity="0.15"></rect><line x1="333.33333333333337" y1="466.66666666666674" x2="400.00000000000006" y2="533.3333333333334"></line><line x1="400.00000000000006" y1="466.66666666666674" x2="333.33333333333337" y2="533.3333333333334"></line><rect width="66.66666666666667" height="66.66666666666667" x="333.33333333333337" y="466.66666666666674" opacity="0.15"></rect><line x1="400.00000000000006" y1="466.66666666666674" x2="466.66666666666674" y2="533.3333333333334"></line><line x1="466.66666666666674" y1="466.66666666666674" x2="400.00000000000006" y2="533.3333333333334"></line><rect width="66.66666666666667" height="66.66666666666667" x="400.00000000000006" y="466.66666666666674" opacity="0.15"></rect><line x1="466.66666666666674" y1="466.66666666666674" x2="533.3333333333334" y2="533.3333333333334"></line><line x1="533.3333333333334" y1="466.66666666666674" x2="466.66666666666674" y2="533.3333333333334"></line><rect width="66.66666666666667" height="66.66666666666667" x="466.66666666666674" y="466.66666666666674" opacity="0.15"></rect><line x1="533.3333333333334" y1="466.66666666666674" x2="600" y2="533.3333333333334"></line><line x1="600" y1="466.66666666666674" x2="533.3333333333334" y2="533.3333333333334"></line><rect width="66.66666666666667" height="66.66666666666667" x="533.3333333333334" y="466.66666666666674" opacity="0.15"></rect><line x1="600" y1="466.66666666666674" x2="666.6666666666666" y2="533.3333333333334"></line><line x1="666.6666666666666" y1="466.66666666666674" x2="600" y2="533.3333333333334"></line><rect width="66.66666666666667" height="66.66666666666667" x="600" y="466.66666666666674" opacity="0.15"></rect><line x1="666.6666666666666" y1="466.66666666666674" x2="733.3333333333333" y2="533.3333333333334"></line><line x1="733.3333333333333" y1="466.66666666666674" x2="666.6666666666666" y2="533.3333333333334"></line><rect width="66.66666666666667" height="66.66666666666667" x="666.6666666666666" y="466.66666666666674" opacity="0.15"></rect><line x1="733.3333333333333" y1="466.66666666666674" x2="799.9999999999999" y2="533.3333333333334"></line><line x1="799.9999999999999" y1="466.66666666666674" x2="733.3333333333333" y2="533.3333333333334"></line><rect width="66.66666666666667" height="66.66666666666667" x="733.3333333333333" y="466.66666666666674" opacity="0.15"></rect><line x1="799.9999999999999" y1="466.66666666666674" x2="866.6666666666665" y2="533.3333333333334"></line><line x1="866.6666666666665" y1="466.66666666666674" x2="799.9999999999999" y2="533.3333333333334"></line><rect width="66.66666666666667" height="66.66666666666667" x="799.9999999999999" y="466.66666666666674" opacity="0.15"></rect><line x1="0" y1="533.3333333333334" x2="66.66666666666667" y2="600"></line><line x1="66.66666666666667" y1="533.3333333333334" x2="0" y2="600"></line><rect width="66.66666666666667" height="66.66666666666667" x="0" y="533.3333333333334" opacity="0.15"></rect><line x1="66.66666666666667" y1="533.3333333333334" x2="133.33333333333334" y2="600"></line><line x1="133.33333333333334" y1="533.3333333333334" x2="66.66666666666667" y2="600"></line><rect width="66.66666666666667" height="66.66666666666667" x="66.66666666666667" y="533.3333333333334" opacity="0.15"></rect><line x1="133.33333333333334" y1="533.3333333333334" x2="200" y2="600"></line><line x1="200" y1="533.3333333333334" x2="133.33333333333334" y2="600"></line><rect width="66.66666666666667" height="66.66666666666667" x="133.33333333333334" y="533.3333333333334" opacity="0.15"></rect><line x1="200" y1="533.3333333333334" x2="266.6666666666667" y2="600"></line><line x1="266.6666666666667" y1="533.3333333333334" x2="200" y2="600"></line><rect width="66.66666666666667" height="66.66666666666667" x="200" y="533.3333333333334" opacity="0.15"></rect><line x1="266.6666666666667" y1="533.3333333333334" x2="333.33333333333337" y2="600"></line><line x1="333.33333333333337" y1="533.3333333333334" x2="266.6666666666667" y2="600"></line><rect width="66.66666666666667" height="66.66666666666667" x="266.6666666666667" y="533.3333333333334" opacity="0.15"></rect><line x1="333.33333333333337" y1="533.3333333333334" x2="400.00000000000006" y2="600"></line><line x1="400.00000000000006" y1="533.3333333333334" x2="333.33333333333337" y2="600"></line><rect width="66.66666666666667" height="66.66666666666667" x="333.33333333333337" y="533.3333333333334" opacity="0.15"></rect><line x1="400.00000000000006" y1="533.3333333333334" x2="466.66666666666674" y2="600"></line><line x1="466.66666666666674" y1="533.3333333333334" x2="400.00000000000006" y2="600"></line><rect width="66.66666666666667" height="66.66666666666667" x="400.00000000000006" y="533.3333333333334" opacity="0.15"></rect><line x1="466.66666666666674" y1="533.3333333333334" x2="533.3333333333334" y2="600"></line><line x1="533.3333333333334" y1="533.3333333333334" x2="466.66666666666674" y2="600"></line><rect width="66.66666666666667" height="66.66666666666667" x="466.66666666666674" y="533.3333333333334" opacity="0.15"></rect><line x1="533.3333333333334" y1="533.3333333333334" x2="600" y2="600"></line><line x1="600" y1="533.3333333333334" x2="533.3333333333334" y2="600"></line><rect width="66.66666666666667" height="66.66666666666667" x="533.3333333333334" y="533.3333333333334" opacity="0.15"></rect><line x1="600" y1="533.3333333333334" x2="666.6666666666666" y2="600"></line><line x1="666.6666666666666" y1="533.3333333333334" x2="600" y2="600"></line><rect width="66.66666666666667" height="66.66666666666667" x="600" y="533.3333333333334" opacity="0.15"></rect><line x1="666.6666666666666" y1="533.3333333333334" x2="733.3333333333333" y2="600"></line><line x1="733.3333333333333" y1="533.3333333333334" x2="666.6666666666666" y2="600"></line><rect width="66.66666666666667" height="66.66666666666667" x="666.6666666666666" y="533.3333333333334" opacity="0.15"></rect><line x1="733.3333333333333" y1="533.3333333333334" x2="799.9999999999999" y2="600"></line><line x1="799.9999999999999" y1="533.3333333333334" x2="733.3333333333333" y2="600"></line><rect width="66.66666666666667" height="66.66666666666667" x="733.3333333333333" y="533.3333333333334" opacity="0.15"></rect><line x1="799.9999999999999" y1="533.3333333333334" x2="866.6666666666665" y2="600"></line><line x1="866.6666666666665" y1="533.3333333333334" x2="799.9999999999999" y2="600"></line><rect width="66.66666666666667" height="66.66666666666667" x="799.9999999999999" y="533.3333333333334" opacity="0.15"></rect><line x1="0" y1="600" x2="66.66666666666667" y2="666.6666666666666"></line><line x1="66.66666666666667" y1="600" x2="0" y2="666.6666666666666"></line><rect width="66.66666666666667" height="66.66666666666667" x="0" y="600" opacity="0.15"></rect><line x1="66.66666666666667" y1="600" x2="133.33333333333334" y2="666.6666666666666"></line><line x1="133.33333333333334" y1="600" x2="66.66666666666667" y2="666.6666666666666"></line><rect width="66.66666666666667" height="66.66666666666667" x="66.66666666666667" y="600" opacity="0.15"></rect><line x1="133.33333333333334" y1="600" x2="200" y2="666.6666666666666"></line><line x1="200" y1="600" x2="133.33333333333334" y2="666.6666666666666"></line><rect width="66.66666666666667" height="66.66666666666667" x="133.33333333333334" y="600" opacity="0.15"></rect><line x1="200" y1="600" x2="266.6666666666667" y2="666.6666666666666"></line><line x1="266.6666666666667" y1="600" x2="200" y2="666.6666666666666"></line><rect width="66.66666666666667" height="66.66666666666667" x="200" y="600" opacity="0.15"></rect><line x1="266.6666666666667" y1="600" x2="333.33333333333337" y2="666.6666666666666"></line><line x1="333.33333333333337" y1="600" x2="266.6666666666667" y2="666.6666666666666"></line><rect width="66.66666666666667" height="66.66666666666667" x="266.6666666666667" y="600" opacity="0.15"></rect><line x1="333.33333333333337" y1="600" x2="400.00000000000006" y2="666.6666666666666"></line><line x1="400.00000000000006" y1="600" x2="333.33333333333337" y2="666.6666666666666"></line><rect width="66.66666666666667" height="66.66666666666667" x="333.33333333333337" y="600" opacity="0.15"></rect><line x1="400.00000000000006" y1="600" x2="466.66666666666674" y2="666.6666666666666"></line><line x1="466.66666666666674" y1="600" x2="400.00000000000006" y2="666.6666666666666"></line><rect width="66.66666666666667" height="66.66666666666667" x="400.00000000000006" y="600" opacity="0.15"></rect><line x1="466.66666666666674" y1="600" x2="533.3333333333334" y2="666.6666666666666"></line><line x1="533.3333333333334" y1="600" x2="466.66666666666674" y2="666.6666666666666"></line><rect width="66.66666666666667" height="66.66666666666667" x="466.66666666666674" y="600" opacity="0.15"></rect><line x1="533.3333333333334" y1="600" x2="600" y2="666.6666666666666"></line><line x1="600" y1="600" x2="533.3333333333334" y2="666.6666666666666"></line><rect width="66.66666666666667" height="66.66666666666667" x="533.3333333333334" y="600" opacity="0.15"></rect><line x1="600" y1="600" x2="666.6666666666666" y2="666.6666666666666"></line><line x1="666.6666666666666" y1="600" x2="600" y2="666.6666666666666"></line><rect width="66.66666666666667" height="66.66666666666667" x="600" y="600" opacity="0.15"></rect><line x1="666.6666666666666" y1="600" x2="733.3333333333333" y2="666.6666666666666"></line><line x1="733.3333333333333" y1="600" x2="666.6666666666666" y2="666.6666666666666"></line><rect width="66.66666666666667" height="66.66666666666667" x="666.6666666666666" y="600" opacity="0.15"></rect><line x1="733.3333333333333" y1="600" x2="799.9999999999999" y2="666.6666666666666"></line><line x1="799.9999999999999" y1="600" x2="733.3333333333333" y2="666.6666666666666"></line><rect width="66.66666666666667" height="66.66666666666667" x="733.3333333333333" y="600" opacity="0.15"></rect><line x1="799.9999999999999" y1="600" x2="866.6666666666665" y2="666.6666666666666"></line><line x1="866.6666666666665" y1="600" x2="799.9999999999999" y2="666.6666666666666"></line><rect width="66.66666666666667" height="66.66666666666667" x="799.9999999999999" y="600" opacity="0.15"></rect><line x1="0" y1="666.6666666666666" x2="66.66666666666667" y2="733.3333333333333"></line><line x1="66.66666666666667" y1="666.6666666666666" x2="0" y2="733.3333333333333"></line><rect width="66.66666666666667" height="66.66666666666667" x="0" y="666.6666666666666" opacity="0.15"></rect><line x1="66.66666666666667" y1="666.6666666666666" x2="133.33333333333334" y2="733.3333333333333"></line><line x1="133.33333333333334" y1="666.6666666666666" x2="66.66666666666667" y2="733.3333333333333"></line><rect width="66.66666666666667" height="66.66666666666667" x="66.66666666666667" y="666.6666666666666" opacity="0.15"></rect><line x1="133.33333333333334" y1="666.6666666666666" x2="200" y2="733.3333333333333"></line><line x1="200" y1="666.6666666666666" x2="133.33333333333334" y2="733.3333333333333"></line><rect width="66.66666666666667" height="66.66666666666667" x="133.33333333333334" y="666.6666666666666" opacity="0.15"></rect><line x1="200" y1="666.6666666666666" x2="266.6666666666667" y2="733.3333333333333"></line><line x1="266.6666666666667" y1="666.6666666666666" x2="200" y2="733.3333333333333"></line><rect width="66.66666666666667" height="66.66666666666667" x="200" y="666.6666666666666" opacity="0.15"></rect><line x1="266.6666666666667" y1="666.6666666666666" x2="333.33333333333337" y2="733.3333333333333"></line><line x1="333.33333333333337" y1="666.6666666666666" x2="266.6666666666667" y2="733.3333333333333"></line><rect width="66.66666666666667" height="66.66666666666667" x="266.6666666666667" y="666.6666666666666" opacity="0.15"></rect><line x1="333.33333333333337" y1="666.6666666666666" x2="400.00000000000006" y2="733.3333333333333"></line><line x1="400.00000000000006" y1="666.6666666666666" x2="333.33333333333337" y2="733.3333333333333"></line><rect width="66.66666666666667" height="66.66666666666667" x="333.33333333333337" y="666.6666666666666" opacity="0.15"></rect><line x1="400.00000000000006" y1="666.6666666666666" x2="466.66666666666674" y2="733.3333333333333"></line><line x1="466.66666666666674" y1="666.6666666666666" x2="400.00000000000006" y2="733.3333333333333"></line><rect width="66.66666666666667" height="66.66666666666667" x="400.00000000000006" y="666.6666666666666" opacity="0.15"></rect><line x1="466.66666666666674" y1="666.6666666666666" x2="533.3333333333334" y2="733.3333333333333"></line><line x1="533.3333333333334" y1="666.6666666666666" x2="466.66666666666674" y2="733.3333333333333"></line><rect width="66.66666666666667" height="66.66666666666667" x="466.66666666666674" y="666.6666666666666" opacity="0.15"></rect><line x1="533.3333333333334" y1="666.6666666666666" x2="600" y2="733.3333333333333"></line><line x1="600" y1="666.6666666666666" x2="533.3333333333334" y2="733.3333333333333"></line><rect width="66.66666666666667" height="66.66666666666667" x="533.3333333333334" y="666.6666666666666" opacity="0.15"></rect><line x1="600" y1="666.6666666666666" x2="666.6666666666666" y2="733.3333333333333"></line><line x1="666.6666666666666" y1="666.6666666666666" x2="600" y2="733.3333333333333"></line><rect width="66.66666666666667" height="66.66666666666667" x="600" y="666.6666666666666" opacity="0.15"></rect><line x1="666.6666666666666" y1="666.6666666666666" x2="733.3333333333333" y2="733.3333333333333"></line><line x1="733.3333333333333" y1="666.6666666666666" x2="666.6666666666666" y2="733.3333333333333"></line><rect width="66.66666666666667" height="66.66666666666667" x="666.6666666666666" y="666.6666666666666" opacity="0.15"></rect><line x1="733.3333333333333" y1="666.6666666666666" x2="799.9999999999999" y2="733.3333333333333"></line><line x1="799.9999999999999" y1="666.6666666666666" x2="733.3333333333333" y2="733.3333333333333"></line><rect width="66.66666666666667" height="66.66666666666667" x="733.3333333333333" y="666.6666666666666" opacity="0.15"></rect><line x1="799.9999999999999" y1="666.6666666666666" x2="866.6666666666665" y2="733.3333333333333"></line><line x1="866.6666666666665" y1="666.6666666666666" x2="799.9999999999999" y2="733.3333333333333"></line><rect width="66.66666666666667" height="66.66666666666667" x="799.9999999999999" y="666.6666666666666" opacity="0.15"></rect><line x1="0" y1="733.3333333333333" x2="66.66666666666667" y2="799.9999999999999"></line><line x1="66.66666666666667" y1="733.3333333333333" x2="0" y2="799.9999999999999"></line><rect width="66.66666666666667" height="66.66666666666667" x="0" y="733.3333333333333" opacity="0.15"></rect><line x1="66.66666666666667" y1="733.3333333333333" x2="133.33333333333334" y2="799.9999999999999"></line><line x1="133.33333333333334" y1="733.3333333333333" x2="66.66666666666667" y2="799.9999999999999"></line><rect width="66.66666666666667" height="66.66666666666667" x="66.66666666666667" y="733.3333333333333" opacity="0.15"></rect><line x1="133.33333333333334" y1="733.3333333333333" x2="200" y2="799.9999999999999"></line><line x1="200" y1="733.3333333333333" x2="133.33333333333334" y2="799.9999999999999"></line><rect width="66.66666666666667" height="66.66666666666667" x="133.33333333333334" y="733.3333333333333" opacity="0.15"></rect><line x1="200" y1="733.3333333333333" x2="266.6666666666667" y2="799.9999999999999"></line><line x1="266.6666666666667" y1="733.3333333333333" x2="200" y2="799.9999999999999"></line><rect width="66.66666666666667" height="66.66666666666667" x="200" y="733.3333333333333" opacity="0.15"></rect><line x1="266.6666666666667" y1="733.3333333333333" x2="333.33333333333337" y2="799.9999999999999"></line><line x1="333.33333333333337" y1="733.3333333333333" x2="266.6666666666667" y2="799.9999999999999"></line><rect width="66.66666666666667" height="66.66666666666667" x="266.6666666666667" y="733.3333333333333" opacity="0.15"></rect><line x1="333.33333333333337" y1="733.3333333333333" x2="400.00000000000006" y2="799.9999999999999"></line><line x1="400.00000000000006" y1="733.3333333333333" x2="333.33333333333337" y2="799.9999999999999"></line><rect width="66.66666666666667" height="66.66666666666667" x="333.33333333333337" y="733.3333333333333" opacity="0.15"></rect><line x1="400.00000000000006" y1="733.3333333333333" x2="466.66666666666674" y2="799.9999999999999"></line><line x1="466.66666666666674" y1="733.3333333333333" x2="400.00000000000006" y2="799.9999999999999"></line><rect width="66.66666666666667" height="66.66666666666667" x="400.00000000000006" y="733.3333333333333" opacity="0.15"></rect><line x1="466.66666666666674" y1="733.3333333333333" x2="533.3333333333334" y2="799.9999999999999"></line><line x1="533.3333333333334" y1="733.3333333333333" x2="466.66666666666674" y2="799.9999999999999"></line><rect width="66.66666666666667" height="66.66666666666667" x="466.66666666666674" y="733.3333333333333" opacity="0.15"></rect><line x1="533.3333333333334" y1="733.3333333333333" x2="600" y2="799.9999999999999"></line><line x1="600" y1="733.3333333333333" x2="533.3333333333334" y2="799.9999999999999"></line><rect width="66.66666666666667" height="66.66666666666667" x="533.3333333333334" y="733.3333333333333" opacity="0.15"></rect><line x1="600" y1="733.3333333333333" x2="666.6666666666666" y2="799.9999999999999"></line><line x1="666.6666666666666" y1="733.3333333333333" x2="600" y2="799.9999999999999"></line><rect width="66.66666666666667" height="66.66666666666667" x="600" y="733.3333333333333" opacity="0.15"></rect><line x1="666.6666666666666" y1="733.3333333333333" x2="733.3333333333333" y2="799.9999999999999"></line><line x1="733.3333333333333" y1="733.3333333333333" x2="666.6666666666666" y2="799.9999999999999"></line><rect width="66.66666666666667" height="66.66666666666667" x="666.6666666666666" y="733.3333333333333" opacity="0.15"></rect><line x1="733.3333333333333" y1="733.3333333333333" x2="799.9999999999999" y2="799.9999999999999"></line><line x1="799.9999999999999" y1="733.3333333333333" x2="733.3333333333333" y2="799.9999999999999"></line><rect width="66.66666666666667" height="66.66666666666667" x="733.3333333333333" y="733.3333333333333" opacity="0.15"></rect><line x1="799.9999999999999" y1="733.3333333333333" x2="866.6666666666665" y2="799.9999999999999"></line><line x1="866.6666666666665" y1="733.3333333333333" x2="799.9999999999999" y2="799.9999999999999"></line><rect width="66.66666666666667" height="66.66666666666667" x="799.9999999999999" y="733.3333333333333" opacity="0.15"></rect><line x1="0" y1="799.9999999999999" x2="66.66666666666667" y2="866.6666666666665"></line><line x1="66.66666666666667" y1="799.9999999999999" x2="0" y2="866.6666666666665"></line><rect width="66.66666666666667" height="66.66666666666667" x="0" y="799.9999999999999" opacity="0.15"></rect><line x1="66.66666666666667" y1="799.9999999999999" x2="133.33333333333334" y2="866.6666666666665"></line><line x1="133.33333333333334" y1="799.9999999999999" x2="66.66666666666667" y2="866.6666666666665"></line><rect width="66.66666666666667" height="66.66666666666667" x="66.66666666666667" y="799.9999999999999" opacity="0.15"></rect><line x1="133.33333333333334" y1="799.9999999999999" x2="200" y2="866.6666666666665"></line><line x1="200" y1="799.9999999999999" x2="133.33333333333334" y2="866.6666666666665"></line><rect width="66.66666666666667" height="66.66666666666667" x="133.33333333333334" y="799.9999999999999" opacity="0.15"></rect><line x1="200" y1="799.9999999999999" x2="266.6666666666667" y2="866.6666666666665"></line><line x1="266.6666666666667" y1="799.9999999999999" x2="200" y2="866.6666666666665"></line><rect width="66.66666666666667" height="66.66666666666667" x="200" y="799.9999999999999" opacity="0.15"></rect><line x1="266.6666666666667" y1="799.9999999999999" x2="333.33333333333337" y2="866.6666666666665"></line><line x1="333.33333333333337" y1="799.9999999999999" x2="266.6666666666667" y2="866.6666666666665"></line><rect width="66.66666666666667" height="66.66666666666667" x="266.6666666666667" y="799.9999999999999" opacity="0.15"></rect><line x1="333.33333333333337" y1="799.9999999999999" x2="400.00000000000006" y2="866.6666666666665"></line><line x1="400.00000000000006" y1="799.9999999999999" x2="333.33333333333337" y2="866.6666666666665"></line><rect width="66.66666666666667" height="66.66666666666667" x="333.33333333333337" y="799.9999999999999" opacity="0.15"></rect><line x1="400.00000000000006" y1="799.9999999999999" x2="466.66666666666674" y2="866.6666666666665"></line><line x1="466.66666666666674" y1="799.9999999999999" x2="400.00000000000006" y2="866.6666666666665"></line><rect width="66.66666666666667" height="66.66666666666667" x="400.00000000000006" y="799.9999999999999" opacity="0.15"></rect><line x1="466.66666666666674" y1="799.9999999999999" x2="533.3333333333334" y2="866.6666666666665"></line><line x1="533.3333333333334" y1="799.9999999999999" x2="466.66666666666674" y2="866.6666666666665"></line><rect width="66.66666666666667" height="66.66666666666667" x="466.66666666666674" y="799.9999999999999" opacity="0.15"></rect><line x1="533.3333333333334" y1="799.9999999999999" x2="600" y2="866.6666666666665"></line><line x1="600" y1="799.9999999999999" x2="533.3333333333334" y2="866.6666666666665"></line><rect width="66.66666666666667" height="66.66666666666667" x="533.3333333333334" y="799.9999999999999" opacity="0.15"></rect><line x1="600" y1="799.9999999999999" x2="666.6666666666666" y2="866.6666666666665"></line><line x1="666.6666666666666" y1="799.9999999999999" x2="600" y2="866.6666666666665"></line><rect width="66.66666666666667" height="66.66666666666667" x="600" y="799.9999999999999" opacity="0.15"></rect><line x1="666.6666666666666" y1="799.9999999999999" x2="733.3333333333333" y2="866.6666666666665"></line><line x1="733.3333333333333" y1="799.9999999999999" x2="666.6666666666666" y2="866.6666666666665"></line><rect width="66.66666666666667" height="66.66666666666667" x="666.6666666666666" y="799.9999999999999" opacity="0.15"></rect><line x1="733.3333333333333" y1="799.9999999999999" x2="799.9999999999999" y2="866.6666666666665"></line><line x1="799.9999999999999" y1="799.9999999999999" x2="733.3333333333333" y2="866.6666666666665"></line><rect width="66.66666666666667" height="66.66666666666667" x="733.3333333333333" y="799.9999999999999" opacity="0.15"></rect><line x1="799.9999999999999" y1="799.9999999999999" x2="866.6666666666665" y2="866.6666666666665"></line><line x1="866.6666666666665" y1="799.9999999999999" x2="799.9999999999999" y2="866.6666666666665"></line><rect width="66.66666666666667" height="66.66666666666667" x="799.9999999999999" y="799.9999999999999" opacity="0.15"></rect></g></svg>