<?xml version="1.0" ?><svg viewBox="0 0 512 512" xmlns="http://www.w3.org/2000/svg"><defs><style>.cls-1{fill:#3f456b;}</style></defs><title/><g id="Lines"><path class="cls-1" d="M450,500H62a35,35,0,0,1-35-35V303a35,35,0,0,1,35-35H450a35,35,0,0,1,35,35V465A35,35,0,0,1,450,500ZM62,278a25,25,0,0,0-25,25V465a25,25,0,0,0,25,25H450a25,25,0,0,0,25-25V303a25,25,0,0,0-25-25Z"/><path class="cls-1" d="M256.5,68.33a28.92,28.92,0,1,1,28.92-28.91A28.95,28.95,0,0,1,256.5,68.33Zm0-47.83a18.92,18.92,0,1,0,18.92,18.92A18.94,18.94,0,0,0,256.5,20.5Z"/><path class="cls-1" d="M158.5,277.65a4.82,4.82,0,0,1-1.49-.23,5,5,0,0,1-3.28-6.26L229.16,30a5,5,0,1,1,9.54,3L163.27,274.14A5,5,0,0,1,158.5,277.65Z"/><path class="cls-1" d="M354.93,277.65a5,5,0,0,1-4.77-3.51L274.73,33a5,5,0,0,1,9.54-3L359.7,271.16a5,5,0,0,1-3.28,6.26A4.82,4.82,0,0,1,354.93,277.65Z"/><path class="cls-1" d="M399.88,429a5,5,0,0,1-4.16-2.23l-44.84-67.26V424a5,5,0,0,1-10,0V343a5,5,0,0,1,9.16-2.77l44.84,67.26V343a5,5,0,0,1,10,0v81a5,5,0,0,1-3.55,4.79A5.19,5.19,0,0,1,399.88,429Z"/><path class="cls-1" d="M320.88,429h-51.5a5,5,0,0,1-5-5V343a5,5,0,0,1,5-5h50.68a5,5,0,0,1,0,10H274.38v71h46.5a5,5,0,0,1,0,10Z"/><path class="cls-1" d="M321.7,388.5H269.38a5,5,0,0,1,0-10H321.7a5,5,0,1,1,0,10Z"/><path class="cls-1" d="M197.69,429a5,5,0,0,1-5-5V343a5,5,0,0,1,5-5h24c.31,0,30.51.35,30.51,30.56,0,9.25-2.77,16.54-8.25,21.66-8.06,7.55-19.13,7.39-20.84,7.31H202.69V424A5,5,0,0,1,197.69,429Zm5-41.47h20.89s8.25.4,13.61-4.67c3.33-3.15,5-8,5-14.31,0-8.67-3.27-14.52-10-17.89A26.84,26.84,0,0,0,221.7,348h-19Z"/><path class="cls-1" d="M144.16,429.48c-16.58,0-24.51-8.89-28.24-16.34A39,39,0,0,1,112,397.32V370.16C112,359,118.72,338,144.16,338s32.16,21,32.16,32.16v27.16a39.17,39.17,0,0,1-3.92,15.82C168.67,420.59,160.74,429.48,144.16,429.48Zm0-81.48C122.25,348,122,369.25,122,370.16v27.16c0,2.25.8,22.16,22.16,22.16s22.14-19.86,22.16-22.17V370.16C166.3,367.91,165.52,348,144.16,348Zm27.16,49.32h0Z"/><path class="cls-1" d="M77.44,277.65a5,5,0,0,1-4.84-3.79A111.73,111.73,0,0,1,180.92,135a110.84,110.84,0,0,1,65.41,21.15,5,5,0,1,1-5.86,8.1A101.71,101.71,0,0,0,82.3,271.43a5,5,0,0,1-3.64,6.07A5.15,5.15,0,0,1,77.44,277.65Z"/><path class="cls-1" d="M406.59,250a5.41,5.41,0,0,1-1-.1c-.28-.05-15.9-3-31.93-.35a5,5,0,1,1-1.63-9.87,111,111,0,0,1,35.49.41,5,5,0,0,1-1,9.91Z"/><path class="cls-1" d="M234.27,210.68a5,5,0,0,1-5-4.35c-.92-7.05-6-15.13-7.86-17.65a5,5,0,1,1,8-6c.34.45,8.32,11.27,9.76,22.33a5,5,0,0,1-4.31,5.6A4.82,4.82,0,0,1,234.27,210.68Z"/><path class="cls-1" d="M443.51,278a5,5,0,0,1-4.31-2.48,54.19,54.19,0,0,0-37.1-26,5,5,0,0,1-3.94-6.17A87.1,87.1,0,0,0,232.4,190.59a5,5,0,0,1-8.54,1.39,44.24,44.24,0,0,0-77.23,38.42,5,5,0,0,1-4,6.11,60.93,60.93,0,0,0-46.39,37.23A5,5,0,0,1,86.91,270a71,71,0,0,1,49-42.36,54.25,54.25,0,0,1,90.17-47.8A97.1,97.1,0,0,1,409,240.78a64.15,64.15,0,0,1,38.83,29.64,5,5,0,0,1-1.78,6.84A5.07,5.07,0,0,1,443.51,278Z"/><path class="cls-1" d="M190.47,238.66a5,5,0,0,1-1.56-.25c-22-7.24-51-1.11-51.29-1a5,5,0,1,1-2.11-9.77c1.29-.28,32-6.76,56.52,1.32a5,5,0,0,1-1.56,9.75Z"/></g><g id="Outline"><path class="cls-1" d="M181,121.7a5,5,0,0,1-5-5V82a5,5,0,0,1,10,0v34.7A5,5,0,0,1,181,121.7Z"/><path class="cls-1" d="M50.7,252H16a5,5,0,0,1,0-10H50.7a5,5,0,0,1,0,10Z"/><path class="cls-1" d="M88.86,159.86a4.94,4.94,0,0,1-3.53-1.46L60.79,133.86a5,5,0,0,1,7.07-7.07L92.4,151.33a5,5,0,0,1-3.54,8.53Z"/><path class="cls-1" d="M131.75,132a5,5,0,0,1-4.63-3.12l-7.64-18.76a5,5,0,0,1,9.26-3.77l7.64,18.76a5,5,0,0,1-2.74,6.51A4.87,4.87,0,0,1,131.75,132Z"/><path class="cls-1" d="M60.52,201.79a4.91,4.91,0,0,1-1.94-.39l-18.67-7.86a5,5,0,0,1,3.88-9.22l18.67,7.86a5,5,0,0,1-1.94,9.61Z"/><path class="cls-1" d="M230.93,131.38A4.91,4.91,0,0,1,229,131a5,5,0,0,1-2.67-6.55l7.86-18.67a5,5,0,0,1,9.22,3.88l-7.86,18.67A5,5,0,0,1,230.93,131.38Z"/><path class="cls-1" d="M444,468h-1a5,5,0,0,1,0-10h1a5,5,0,0,1,0,10Zm-21,0h-1a5,5,0,0,1,0-10h1a5,5,0,0,1,0,10Zm-21,0h-1a5,5,0,0,1,0-10h1a5,5,0,0,1,0,10Zm-21,0h-1a5,5,0,0,1,0-10h1a5,5,0,0,1,0,10Zm-21,0h-1a5,5,0,0,1,0-10h1a5,5,0,0,1,0,10Zm-21,0h-1a5,5,0,0,1,0-10h1a5,5,0,0,1,0,10Zm-21,0h-1a5,5,0,0,1,0-10h1a5,5,0,0,1,0,10Zm-21,0h-1a5,5,0,0,1,0-10h1a5,5,0,0,1,0,10Zm-21,0h-1a5,5,0,0,1,0-10h1a5,5,0,0,1,0,10Zm-21,0h-1a5,5,0,0,1,0-10h1a5,5,0,0,1,0,10Zm-21,0h-1a5,5,0,0,1,0-10h1a5,5,0,0,1,0,10Zm-21,0h-1a5,5,0,0,1,0-10h1a5,5,0,0,1,0,10Zm-21,0h-1a5,5,0,0,1,0-10h1a5,5,0,0,1,0,10Zm-21,0h-1a5,5,0,0,1,0-10h1a5,5,0,0,1,0,10Zm-21,0h-1a5,5,0,0,1,0-10h1a5,5,0,0,1,0,10Zm-21,0h-1a5,5,0,0,1,0-10h1a5,5,0,0,1,0,10Zm-21,0h-1a5,5,0,0,1,0-10h1a5,5,0,0,1,0,10Zm-21,0H86a5,5,0,0,1,0-10h1a5,5,0,0,1,0,10Zm-21-.2a4.85,4.85,0,0,1-1-.1c-.49-.1-1-.23-1.46-.37a5,5,0,1,1,3-9.55,4.21,4.21,0,0,0,.48.12,5,5,0,0,1-1,9.9Zm388-12.91a5,5,0,0,1-5-5v-1a5,5,0,0,1,10,0v1A5,5,0,0,1,454,454.89ZM58,450.7a5,5,0,0,1-5-5v-1a5,5,0,0,1,10,0v1A5,5,0,0,1,58,450.7Zm396-16.81a5,5,0,0,1-5-5v-1a5,5,0,0,1,10,0v1A5,5,0,0,1,454,433.89ZM58,429.7a5,5,0,0,1-5-5v-1a5,5,0,0,1,10,0v1A5,5,0,0,1,58,429.7Zm396-16.81a5,5,0,0,1-5-5v-1a5,5,0,0,1,10,0v1A5,5,0,0,1,454,412.89ZM58,408.7a5,5,0,0,1-5-5v-1a5,5,0,0,1,10,0v1A5,5,0,0,1,58,408.7Zm396-16.81a5,5,0,0,1-5-5v-1a5,5,0,0,1,10,0v1A5,5,0,0,1,454,391.89ZM58,387.7a5,5,0,0,1-5-5v-1a5,5,0,0,1,10,0v1A5,5,0,0,1,58,387.7Zm396-16.81a5,5,0,0,1-5-5v-1a5,5,0,0,1,10,0v1A5,5,0,0,1,454,370.89ZM58,366.7a5,5,0,0,1-5-5v-1a5,5,0,0,1,10,0v1A5,5,0,0,1,58,366.7Zm396-16.81a5,5,0,0,1-5-5v-1a5,5,0,0,1,10,0v1A5,5,0,0,1,454,349.89ZM58,345.7a5,5,0,0,1-5-5v-1a5,5,0,0,1,10,0v1A5,5,0,0,1,58,345.7Zm396-16.81a5,5,0,0,1-5-5v-1a5,5,0,0,1,10,0v1A5,5,0,0,1,454,328.89ZM58,324.7a5,5,0,0,1-5-5v-1a5,5,0,0,1,10,0v1A5,5,0,0,1,58,324.7Zm389.51-14.06a5,5,0,0,1-1.77-.32,3.68,3.68,0,0,0-.47-.15,5,5,0,0,1,2.58-9.67c.48.13,1,.29,1.44.46a5,5,0,0,1-1.78,9.68ZM426.59,310h-1a5,5,0,1,1,0-10h1a5,5,0,0,1,0,10Zm-21,0h-1a5,5,0,1,1,0-10h1a5,5,0,0,1,0,10Zm-21,0h-1a5,5,0,1,1,0-10h1a5,5,0,0,1,0,10Zm-21,0h-1a5,5,0,1,1,0-10h1a5,5,0,0,1,0,10Zm-21,0h-1a5,5,0,1,1,0-10h1a5,5,0,0,1,0,10Zm-21,0h-1a5,5,0,1,1,0-10h1a5,5,0,0,1,0,10Zm-21,0h-1a5,5,0,1,1,0-10h1a5,5,0,0,1,0,10Zm-21,0h-1a5,5,0,1,1,0-10h1a5,5,0,0,1,0,10Zm-21,0h-1a5,5,0,1,1,0-10h1a5,5,0,0,1,0,10Zm-21,0h-1a5,5,0,0,1,0-10h1a5,5,0,1,1,0,10Zm-21,0h-1a5,5,0,0,1,0-10h1a5,5,0,1,1,0,10Zm-21,0h-1a5,5,0,0,1,0-10h1a5,5,0,1,1,0,10Zm-21,0h-1a5,5,0,0,1,0-10h1a5,5,0,1,1,0,10Zm-21,0h-1a5,5,0,0,1,0-10h1a5,5,0,1,1,0,10Zm-21,0h-1a5,5,0,0,1,0-10h1a5,5,0,1,1,0,10Zm-21,0h-1a5,5,0,0,1,0-10h1a5,5,0,1,1,0,10Zm-21,0h-1a5,5,0,0,1,0-10h1a5,5,0,1,1,0,10Zm-21,0h-1a5,5,0,0,1,0-10h1a5,5,0,1,1,0,10Z"/></g></svg>