<?xml version="1.0" ?><svg viewBox="0 0 512 512" xmlns="http://www.w3.org/2000/svg"><defs><style>.cls-1{fill:#3f456b;}</style></defs><title/><g id="Lines"><path class="cls-1" d="M461,162a5,5,0,0,1-3.54-1.46L351.4,54.47a5,5,0,0,1,0-7.07l36.5-36.5a5,5,0,0,1,7.07,0L501,117a5,5,0,0,1,0,7.08l-36.5,36.5A5,5,0,0,1,461,162ZM362,50.94l99,99,29.43-29.43-99-99Z"/><path class="cls-1" d="M123,500a5,5,0,0,1-3.54-1.46L13.4,392.47a5,5,0,0,1,0-7.07l36.5-36.5a5,5,0,0,1,7.07,0L163,455a5,5,0,0,1,0,7.08l-36.5,36.5A5,5,0,0,1,123,500ZM24,388.94l99,99,29.43-29.43-99-99Z"/><path class="cls-1" d="M315,500.81c-43.15,0-85.48-15.84-117.45-47.81l-139-139.07-.06-.06C-7.86,247.51-4.74,136.41,65.46,66.21S246.75-7.1,313.11,59.27L452.2,198.35c32.14,32.14,49.09,75.67,47.72,122.56s-20.79,91.23-54.72,125.16C408.82,482.45,361.44,500.81,315,500.81ZM65.53,306.75l0,.06L204.63,445.93c30,30,69.8,44.89,110.38,44.89,43.88,0,88.68-17.38,123.12-51.82,66.32-66.33,69.47-171.11,7-233.58L306,66.34C243.58,3.87,138.82,7,72.53,73.28S3.12,244.28,65.53,306.75Z"/><path class="cls-1" d="M315.62,429.17c-26.45,0-50.75-9.82-68.84-27.91L110.14,264.75c-19.1-19.1-29-45.15-27.78-73.35S95.54,136.56,116.14,116C158.78,73.32,225.5,70.66,264.86,110L401.44,246.61c39.37,39.36,36.7,106.08-5.95,148.73-20.59,20.59-47.37,32.57-75.4,33.74C318.6,429.14,317.1,429.17,315.62,429.17ZM196,92.15c-25.71,0-52.25,10.39-72.75,30.88-18.82,18.83-29.78,43.26-30.86,68.79-1.07,25.37,7.76,48.76,24.86,65.86L253.85,394.19c17.1,17.11,40.48,26,65.83,24.89,25.51-1.05,49.93-12,68.74-30.81,38.75-38.75,41.42-99.13,5.95-134.59L257.79,117.1C241.08,100.39,218.85,92.15,196,92.15Z"/></g><g id="Outline"><path class="cls-1" d="M321.46,461.12c-2.88,0-5.79-.09-8.67-.26a5,5,0,1,1,.59-10c3.18.19,6.39.27,9.58.23H323a5,5,0,0,1,.06,10Zm21.33-1.64a5,5,0,0,1-.77-9.94c3.15-.49,6.31-1.1,9.39-1.81a5,5,0,0,1,2.26,9.74c-3.32.77-6.72,1.43-10.11,1.95A5.09,5.09,0,0,1,342.79,459.48Zm-49.39-1.09a5.2,5.2,0,0,1-1-.09c-3.34-.65-6.7-1.42-10-2.29a5,5,0,0,1,2.55-9.67c3.09.81,6.23,1.53,9.36,2.14a5,5,0,0,1-1,9.91Zm78.08-6.73a5,5,0,0,1-1.86-9.64c2.94-1.18,5.88-2.48,8.72-3.88a5,5,0,1,1,4.41,9c-3.07,1.51-6.24,2.92-9.42,4.19A5.07,5.07,0,0,1,371.48,451.66Zm-106.59-1.78a5.06,5.06,0,0,1-1.9-.37c-3.16-1.3-6.31-2.71-9.35-4.2a5,5,0,1,1,4.39-9c2.85,1.39,5.79,2.71,8.75,3.92a5,5,0,0,1-1.89,9.63Zm132.76-12.33a5,5,0,0,1-2.86-9.1c2.6-1.81,5.18-3.75,7.65-5.75a5,5,0,0,1,6.29,7.77c-2.66,2.16-5.43,4.24-8.23,6.19A5,5,0,0,1,397.65,437.55Zm-159-1.66a5,5,0,0,1-2.8-.86c-2.87-1.94-5.67-4-8.32-6.1a5,5,0,1,1,6.22-7.83c2.45,1.95,5,3.85,7.71,5.65a5,5,0,0,1-2.81,9.14ZM420.09,418a5,5,0,0,1-3.66-8.4c2.16-2.33,4.25-4.76,6.22-7.24a5,5,0,1,1,7.83,6.22c-2.13,2.67-4.39,5.31-6.72,7.82A5,5,0,0,1,420.09,418ZM216,416.56a5,5,0,0,1-3.53-1.46l-7-7a5,5,0,0,1,7.07-7.08l7,7a5,5,0,0,1-3.54,8.54ZM195,395.5a5,5,0,0,1-3.54-1.46l-7-7a5,5,0,0,1,7.07-7.07l7,7A5,5,0,0,1,195,395.5Zm242.7-1.44a5,5,0,0,1-4.35-7.47c1.57-2.76,3-5.61,4.38-8.48a5,5,0,0,1,9.06,4.23c-1.45,3.11-3,6.2-4.74,9.18A5,5,0,0,1,437.65,394.06ZM173.86,374.45a5,5,0,0,1-3.53-1.47l-7-7a5,5,0,1,1,7.06-7.07l7,7a5,5,0,0,1-3.53,8.54Zm275.37-7.79a4.9,4.9,0,0,1-1.41-.2,5,5,0,0,1-3.39-6.21c.9-3,1.69-6.15,2.37-9.27a5,5,0,1,1,9.77,2.12c-.73,3.35-1.58,6.71-2.54,10A5,5,0,0,1,449.23,366.66ZM152.77,353.39a5,5,0,0,1-3.53-1.46l-7-7a5,5,0,0,1,7.07-7.08l7,7a5,5,0,0,1-3.54,8.54Zm301.76-16-.38,0a5,5,0,0,1-4.61-5.35c.23-3.16.36-6.39.39-9.6a5,5,0,0,1,5-5h0a5,5,0,0,1,5,5c0,3.43-.17,6.88-.42,10.26A5,5,0,0,1,454.53,337.39Zm-322.84-5.06a5,5,0,0,1-3.54-1.46l-7-7a5,5,0,0,1,7.07-7.08l7,7a5,5,0,0,1,0,7.07A5,5,0,0,1,131.69,332.33ZM110.6,311.27a5,5,0,0,1-3.54-1.46l-7-7a5,5,0,0,1,7.06-7.08l7,7a5,5,0,0,1-3.53,8.54Zm343.18-3.63a5,5,0,0,1-4.95-4.39c-.39-3.17-.88-6.37-1.47-9.51a5,5,0,1,1,9.83-1.84c.62,3.35,1.15,6.75,1.56,10.13a5,5,0,0,1-4.35,5.57A4.3,4.3,0,0,1,453.78,307.64ZM89.72,290A5,5,0,0,1,86,288.33c-2.25-2.55-4.45-5.21-6.54-7.93a5,5,0,0,1,7.93-6.09c2,2.53,4,5,6.1,7.4A5,5,0,0,1,89.72,290ZM447.4,278.56a5,5,0,0,1-4.76-3.46c-1-3.06-2.08-6.1-3.24-9.05a5,5,0,0,1,9.3-3.68c1.24,3.15,2.41,6.4,3.46,9.66a5,5,0,0,1-3.23,6.29A4.83,4.83,0,0,1,447.4,278.56Zm-375-12.71A5,5,0,0,1,68,263.34c-1.71-3-3.33-6-4.83-9.07a5,5,0,1,1,9-4.39c1.4,2.85,2.92,5.7,4.52,8.47a5,5,0,0,1-4.33,7.5Zm363.14-14.56a5,5,0,0,1-4.36-2.54c-1.57-2.79-3.26-5.53-5-8.14a5,5,0,1,1,8.31-5.56c1.88,2.82,3.7,5.77,5.4,8.78a5,5,0,0,1-4.35,7.46ZM60.2,238.69a5,5,0,0,1-4.75-3.45c-1.07-3.26-2-6.58-2.85-9.89a5,5,0,0,1,9.7-2.42c.77,3.07,1.66,6.16,2.66,9.2a5,5,0,0,1-3.2,6.31A4.94,4.94,0,0,1,60.2,238.69ZM418,227.29a5,5,0,0,1-3.63-1.56c-.63-.66-1.26-1.31-1.9-1.95l-5-5a5,5,0,0,1,7.07-7.07l5,5c.7.71,1.39,1.42,2.08,2.14a5,5,0,0,1-3.63,8.44ZM54.08,209.58a5,5,0,0,1-5-4.54c-.32-3.43-.51-6.9-.56-10.31a5,5,0,0,1,4.92-5.07h.08a5,5,0,0,1,5,4.93c.05,3.15.22,6.36.52,9.53a5,5,0,0,1-4.51,5.44Zm342.84-3.39a5,5,0,0,1-3.54-1.46l-7-7a5,5,0,1,1,7.07-7.07l7,7a5,5,0,0,1-3.53,8.53Zm-21.08-21.07a5,5,0,0,1-3.53-1.47l-7-7a5,5,0,0,1,7.07-7.07l7,7a5,5,0,0,1-3.54,8.54Zm-321-5.27a4.59,4.59,0,0,1-.73-.06,5,5,0,0,1-4.22-5.67c.5-3.39,1.14-6.81,1.92-10.16a5,5,0,1,1,9.74,2.26c-.71,3.08-1.31,6.23-1.77,9.36A5,5,0,0,1,54.85,179.85Zm299.92-15.8a5,5,0,0,1-3.54-1.47l-7-7a5,5,0,0,1,7.07-7.07l7,7a5,5,0,0,1-3.53,8.54ZM62.68,151.17a4.93,4.93,0,0,1-1.87-.36,5,5,0,0,1-2.76-6.52c1.28-3.14,2.7-6.3,4.24-9.39a5,5,0,1,1,8.95,4.44c-1.42,2.87-2.74,5.8-3.92,8.71A5,5,0,0,1,62.68,151.17Zm271-8.2a5,5,0,0,1-3.54-1.46l-7-7a5,5,0,1,1,7.07-7.07l7,7A5,5,0,0,1,333.7,143ZM76.83,125a4.92,4.92,0,0,1-2.82-.88,5,5,0,0,1-1.3-7c1.91-2.78,4-5.56,6.07-8.26a5,5,0,1,1,7.87,6.17c-2,2.54-3.91,5.15-5.69,7.75A5,5,0,0,1,76.83,125Zm235.79-3.12a5,5,0,0,1-3.53-1.46l-7-7a5,5,0,0,1,7.07-7.07l7,7a5,5,0,0,1-3.54,8.53ZM95.86,102.14a5,5,0,0,1-3.55-8.52l.71-.71c2.17-2.18,4.42-4.31,6.68-6.34A5,5,0,0,1,106.39,94c-2.13,1.92-4.25,3.93-6.3,6l-.68.68A5,5,0,0,1,95.86,102.14Zm195.69-1.31A5,5,0,0,1,288,99.36l-.1-.09c-2.23-2.23-4.59-4.42-7-6.5a5,5,0,1,1,6.52-7.58c2.62,2.25,5.16,4.6,7.56,7l.1.09a5,5,0,0,1-3.54,8.54ZM118.62,83a5,5,0,0,1-2.85-9.12c2.83-1.95,5.75-3.81,8.66-5.54a5,5,0,0,1,5.09,8.61c-2.71,1.6-5.43,3.34-8.07,5.16A5,5,0,0,1,118.62,83Zm149.62-.84a4.93,4.93,0,0,1-2.69-.8c-2.68-1.71-5.45-3.36-8.24-4.89a5,5,0,1,1,4.81-8.77c3,1.65,6,3.41,8.82,5.25a5,5,0,0,1-2.7,9.21ZM144.76,68.79a5,5,0,0,1-1.89-9.63c3.19-1.29,6.45-2.47,9.71-3.51a5,5,0,1,1,3,9.53c-3,1-6,2-9,3.25A4.93,4.93,0,0,1,144.76,68.79Zm96.94-.08a5.14,5.14,0,0,1-1.79-.33c-3-1.15-6-2.2-9.06-3.12a5,5,0,1,1,2.93-9.57c3.25,1,6.52,2.12,9.71,3.35a5,5,0,0,1-1.79,9.67ZM213,61a5,5,0,0,1-.77-.06c-3.15-.49-6.34-.86-9.5-1.11a5,5,0,0,1,.81-10c3.4.27,6.83.68,10.22,1.2A5,5,0,0,1,213,61Zm-39.57-.13a5,5,0,0,1-.75-9.94c3.38-.52,6.83-.91,10.25-1.16a5,5,0,0,1,.73,10c-3.16.23-6.35.59-9.47,1.06A5,5,0,0,1,173.41,60.9Z"/><path class="cls-1" d="M291.53,388.21a5,5,0,0,1-3.54-1.46L124.72,223.48a5,5,0,0,1,0-7.07l92.47-92.48a5,5,0,0,1,7.07,0L387.54,287.2a5,5,0,0,1,0,7.07l-92.48,92.48A5,5,0,0,1,291.53,388.21ZM135.33,219.94l156.2,156.2,85.4-85.4-156.2-156.2Z"/><path class="cls-1" d="M209.89,306.58a5,5,0,0,1-3.53-8.54l92.47-92.47a5,5,0,1,1,7.07,7.07l-92.47,92.47A5,5,0,0,1,209.89,306.58Z"/><path class="cls-1" d="M425.83,126.83a5,5,0,0,1-3.54-8.54l36.5-36.5a5,5,0,1,1,7.07,7.07l-36.5,36.5A5,5,0,0,1,425.83,126.83Z"/><path class="cls-1" d="M443.51,144.51A5,5,0,0,1,440,136l36.5-36.5a5,5,0,0,1,7.07,7.07L447,143A5,5,0,0,1,443.51,144.51Z"/><path class="cls-1" d="M390.47,91.47a5,5,0,0,1-3.53-8.53l36.5-36.5a5,5,0,1,1,7.07,7.07L394,90A5,5,0,0,1,390.47,91.47Z"/><path class="cls-1" d="M408.15,109.15a5,5,0,0,1-3.53-8.53l36.5-36.5a5,5,0,0,1,7.07,7.07l-36.5,36.5A5,5,0,0,1,408.15,109.15Z"/><path class="cls-1" d="M372.8,73.8a5,5,0,0,1-3.54-8.54l36.5-36.5a5,5,0,0,1,7.07,7.07l-36.5,36.5A5,5,0,0,1,372.8,73.8Z"/><path class="cls-1" d="M87.83,464.83a5,5,0,0,1-3.54-8.54l36.5-36.5a5,5,0,0,1,7.07,7.07l-36.5,36.5A5,5,0,0,1,87.83,464.83Z"/><path class="cls-1" d="M105.51,482.51A5,5,0,0,1,102,474l36.5-36.5a5,5,0,1,1,7.07,7.07L109,481A5,5,0,0,1,105.51,482.51Z"/><path class="cls-1" d="M52.47,429.47a5,5,0,0,1-3.53-8.53l36.5-36.5a5,5,0,0,1,7.07,7.07L56,428A5,5,0,0,1,52.47,429.47Z"/><path class="cls-1" d="M70.15,447.15a5,5,0,0,1-3.53-8.53l36.5-36.5a5,5,0,1,1,7.07,7.07l-36.5,36.5A5,5,0,0,1,70.15,447.15Z"/><path class="cls-1" d="M34.8,411.8a5,5,0,0,1-3.54-8.54l36.5-36.5a5,5,0,1,1,7.07,7.07l-36.5,36.5A5,5,0,0,1,34.8,411.8Z"/></g></svg>