<?xml version="1.0" ?><svg enable-background="new 0 0 512 512" version="1.1" viewBox="0 0 512 512" xml:space="preserve" xmlns="http://www.w3.org/2000/svg" xmlns:xlink="http://www.w3.org/1999/xlink"><g id="Colors"><g><g><g><path d="M146.32,160.72c-9.756,0-19.953-0.331-30.604-1.052c-2.755-0.187-4.837-2.57-4.65-5.326      c0.187-2.754,2.562-4.826,5.326-4.65c139.241,9.416,201.031-48.459,201.64-49.045c1.988-1.917,5.153-1.855,7.069,0.132      c1.916,1.988,1.857,5.153-0.132,7.069c-0.664,0.641-16.672,15.848-50.64,29.867C247.706,148.703,205.133,160.72,146.32,160.72z" fill="#384169"/></g></g><g><g><path d="M128.092,233.871c-19.617,0-39.65-0.97-60.013-2.911c-2.749-0.262-4.765-2.703-4.503-5.452      c0.263-2.749,2.716-4.769,5.452-4.503c112.838,10.76,193.593-11.095,241.47-31.323c51.582-21.792,76.75-46.175,76.999-46.419      c1.968-1.936,5.134-1.907,7.07,0.064c1.935,1.97,1.906,5.136-0.064,7.07c-1.068,1.05-26.792,25.969-80.113,48.496      c-31.177,13.172-65.383,22.77-101.67,28.526C185.628,231.718,157.321,233.871,128.092,233.871z" fill="#384169"/></g></g><g><g><path d="M160.21,454.629c-10.157,0-20.614-0.203-31.409-0.633c-2.759-0.11-4.906-2.436-4.797-5.195      s2.427-4.921,5.195-4.797c115.397,4.604,193.356-17.014,238.432-35.951c48.766-20.487,70.584-42.335,70.799-42.554      c1.935-1.966,5.098-1.997,7.068-0.066c1.97,1.932,2.006,5.09,0.077,7.062c-0.916,0.938-23.031,23.214-73.379,44.485      C330.335,434.667,260.78,454.629,160.21,454.629z" fill="#384169"/></g></g><g><g><path d="M129.31,310.403c-23.636,0-47.919-1.141-72.768-3.424c-2.749-0.253-4.773-2.688-4.521-5.438      c0.253-2.749,2.674-4.775,5.437-4.521c61.624,5.662,119.734,4.208,172.716-4.324c42.29-6.812,81.418-18.121,116.296-33.615      c59.078-26.244,85.532-55.557,85.792-55.85c1.834-2.064,4.994-2.251,7.059-0.418c2.064,1.834,2.252,4.994,0.418,7.059      c-1.122,1.263-28.171,31.233-89.208,58.348c-35.666,15.844-75.625,27.4-118.767,34.349      C199.361,307.788,165.085,310.403,129.31,310.403z" fill="#384169"/></g></g><g><g><path d="M124.258,386.069c-16.207,0-32.689-0.471-49.416-1.414c-2.758-0.155-4.866-2.517-4.711-5.273      c0.156-2.758,2.548-4.845,5.273-4.711c61.434,3.467,119.49,0.483,172.556-8.86c42.414-7.47,81.753-18.998,116.925-34.266      c59.853-25.981,87.229-54.176,87.498-54.457c1.907-1.993,5.071-2.066,7.067-0.163c1.996,1.905,2.073,5.065,0.171,7.063      c-1.142,1.198-28.653,29.654-90.107,56.448c-35.914,15.658-76.056,27.479-119.31,35.133      C210.707,382.559,168.51,386.069,124.258,386.069z" fill="#384169"/></g></g></g><g><g><g><path d="M135.479,198.34L135.479,198.34L135.479,198.34c-2.76,0-5-2.25-4.989-5l0,0c0-2.771,2.25-5,5.01-5l0,0      c2.76,0.01,4.99,2.26,4.99,5.02l0,0c-0.011,2.75-2.25,4.98-5,4.98l0,0C135.479,198.34,135.479,198.34,135.479,198.34z       M150.479,193.18c-0.109-2.76,2.04-5.09,4.801-5.2l0,0c2.76-0.109,5.079,2.04,5.189,4.8l0,0c0.11,2.761-2.04,5.08-4.8,5.19l0,0      c0,0,0,0,0.01,0l0,0c-0.07,0.01-0.14,0.01-0.2,0.01l0,0C152.81,197.979,150.59,195.87,150.479,193.18z M115.29,197.899      c-2.76-0.12-4.91-2.449-4.79-5.21l0,0c0.109-2.76,2.439-4.899,5.2-4.79l0.01,0.011c2.75,0.109,4.899,2.439,4.78,5.199l0,0      c-0.11,2.69-2.33,4.79-4.99,4.79l0,0C115.43,197.899,115.359,197.899,115.29,197.899z M170.45,192.17      c-0.23-2.75,1.819-5.17,4.569-5.4l0,0c2.75-0.229,5.17,1.82,5.4,4.57l0,0c0.229,2.76-1.82,5.17-4.57,5.4l0,0      c-0.14,0.01-0.28,0.02-0.42,0.02l0,0C172.859,196.76,170.67,194.779,170.45,192.17z M95.14,196.67L95.14,196.67L95.14,196.67      c-2.75-0.22-4.81-2.63-4.59-5.38l0,0c0.22-2.75,2.63-4.811,5.38-4.59l0,0c2.76,0.22,4.811,2.63,4.59,5.38l0,0      c-0.21,2.62-2.399,4.609-4.979,4.609l0,0C95.41,196.689,95.27,196.68,95.14,196.67z M190.359,190.29      c-0.359-2.74,1.58-5.25,4.311-5.61l0,0c2.74-0.35,5.25,1.58,5.61,4.32l0,0c0.35,2.74-1.58,5.25-4.32,5.6l0,0      c-0.22,0.03-0.44,0.04-0.65,0.04l0,0C192.83,194.64,190.689,192.81,190.359,190.29z M210.16,187.479      c-0.49-2.72,1.319-5.319,4.04-5.8l0,0c2.71-0.49,5.31,1.32,5.8,4.04l0,0c0.49,2.72-1.32,5.31-4.04,5.8l0,0      c-0.3,0.05-0.59,0.08-0.891,0.08l0,0C212.7,191.6,210.59,189.899,210.16,187.479z M229.79,183.71c-0.62-2.69,1.06-5.37,3.75-6      l0,0c2.689-0.62,5.38,1.06,6,3.75l0,0c0.62,2.689-1.05,5.37-3.74,6l0,0c0,0,0,0-0.01,0l0,0c-0.38,0.08-0.75,0.13-1.13,0.13l0,0      C232.39,187.59,230.33,186.02,229.79,183.71z M249.22,178.95c-0.77-2.65,0.771-5.431,3.42-6.19l0,0      c2.65-0.76,5.42,0.77,6.19,3.43l0,0c0.76,2.65-0.771,5.42-3.42,6.181l0,0c0,0,0,0-0.011,0l0,0c-0.46,0.14-0.92,0.199-1.38,0.199      l0,0C251.85,182.569,249.85,181.14,249.22,178.95z M268.359,173.16c-0.909-2.61,0.471-5.46,3.08-6.36l0,0      c2.601-0.91,5.46,0.46,6.36,3.07l0,0c0.91,2.609-0.47,5.46-3.07,6.37l0,0c-0.55,0.189-1.1,0.279-1.649,0.279l0,0      C271.01,176.52,269.08,175.229,268.359,173.16z M287.149,166.31c-1.06-2.55,0.16-5.47,2.71-6.53h-0.01      c2.561-1.06,5.48,0.16,6.54,2.7l0,0c1.061,2.561-0.149,5.48-2.7,6.54l0,0c0,0,0,0-0.01,0l0,0c-0.62,0.26-1.27,0.38-1.91,0.38      l0,0C289.81,169.399,287.95,168.24,287.149,166.31z M305.51,158.38c-1.21-2.48-0.18-5.47,2.3-6.68h0.01      c2.48-1.221,5.471-0.181,6.681,2.3l0,0c1.21,2.479,0.18,5.47-2.3,6.689l0,0c-0.71,0.34-1.45,0.5-2.19,0.5l0,0      C308.16,161.189,306.38,160.16,305.51,158.38z M323.35,149.33c-1.37-2.4-0.54-5.45,1.86-6.82l0,0      c2.399-1.37,5.46-0.54,6.819,1.86l0,0c1.37,2.399,0.54,5.46-1.859,6.819l0,0c-0.78,0.45-1.63,0.66-2.47,0.66l0,0      C325.96,151.85,324.27,150.95,323.35,149.33z M340.55,139.12c-1.53-2.301-0.92-5.4,1.38-6.931l0,0c2.29-1.54,5.4-0.92,6.93,1.37      l0,0c1.54,2.3,0.92,5.4-1.369,6.94l0,0c-0.86,0.569-1.82,0.84-2.78,0.84l0,0C343.1,141.34,341.52,140.56,340.55,139.12z       M356.97,127.68c-1.72-2.16-1.37-5.3,0.8-7.02l0,0c2.15-1.721,5.3-1.37,7.021,0.79l0,0c1.72,2.159,1.359,5.31-0.8,7.029l0,0l0,0      l0,0c-0.921,0.73-2.021,1.09-3.11,1.09l0,0C359.41,129.569,357.95,128.92,356.97,127.68z" fill="#384169"/></g></g><g><g><path d="M117.26,273.5c-2.76-0.04-4.97-2.311-4.93-5.07l0,0c0.04-2.77,2.31-4.97,5.08-4.93l0,0      c2.76,0.04,4.96,2.31,4.92,5.069l0,0c-0.04,2.74-2.271,4.931-5,4.931l0,0C117.31,273.5,117.28,273.5,117.26,273.5z       M132.33,268.569c-0.05-2.77,2.149-5.04,4.91-5.079l0,0c2.77-0.051,5.04,2.159,5.079,4.92l0,0      c0.051,2.76-2.149,5.029-4.909,5.069l0,0c-0.03,0.011-0.061,0.011-0.091,0.011l0,0C134.6,273.49,132.37,271.3,132.33,268.569z       M97.12,272.899c-2.761-0.12-4.9-2.449-4.771-5.21l0,0c0.12-2.76,2.45-4.899,5.21-4.779l0,0c2.76,0.119,4.9,2.46,4.78,5.22l0,0      c-0.12,2.68-2.33,4.78-4.99,4.78l0,0C97.27,272.91,97.2,272.91,97.12,272.899z M152.31,268.09c-0.13-2.76,2-5.1,4.76-5.24l0,0      c2.761-0.13,5.101,2,5.24,4.76l0,0c0.13,2.75-2,5.101-4.76,5.23l0,0c-0.08,0-0.16,0.01-0.25,0.01l0,0      C154.649,272.85,152.439,270.76,152.31,268.09z M77.02,271.74c-2.75-0.2-4.819-2.591-4.63-5.351l0,0      c0.2-2.75,2.59-4.82,5.351-4.62l0,0c2.75,0.19,4.819,2.58,4.63,5.34l0,0c-0.19,2.631-2.391,4.641-4.98,4.641l0,0      C77.27,271.75,77.14,271.75,77.02,271.74z M172.28,266.96c-0.23-2.76,1.819-5.17,4.569-5.391v-0.01      c2.75-0.22,5.17,1.82,5.391,4.58l0,0c0.229,2.75-1.82,5.16-4.57,5.39l0,0c-0.14,0.011-0.28,0.021-0.41,0.021l0,0      C174.68,271.55,172.49,269.569,172.28,266.96z M192.189,265.149c-0.33-2.75,1.641-5.229,4.38-5.55l0,0      c2.74-0.33,5.221,1.63,5.551,4.38l0,0c0.319,2.74-1.641,5.221-4.38,5.55l0,0c-0.2,0.021-0.4,0.03-0.591,0.03l0,0      C194.649,269.56,192.49,267.689,192.189,265.149z M212.02,262.63c-0.42-2.73,1.45-5.29,4.17-5.72h0.011      c2.72-0.42,5.279,1.449,5.71,4.18l0,0c0.42,2.72-1.45,5.28-4.181,5.71l0,0c-0.26,0.04-0.51,0.06-0.77,0.06l0,0      C214.54,266.859,212.41,265.09,212.02,262.63z M231.75,259.359c-0.53-2.71,1.24-5.34,3.95-5.869l0,0      c2.71-0.53,5.329,1.239,5.859,3.949l0,0c0.54,2.71-1.229,5.33-3.939,5.87l0,0c-0.33,0.061-0.65,0.09-0.971,0.09l0,0      C234.31,263.399,232.22,261.75,231.75,259.359z M251.33,255.319c-0.641-2.68,1.02-5.38,3.71-6.02l0,0      c2.68-0.64,5.38,1.02,6.02,3.7l0,0c0.641,2.689-1.02,5.39-3.7,6.029l0,0c-0.39,0.091-0.779,0.131-1.17,0.131l0,0      C253.93,259.16,251.88,257.62,251.33,255.319z M270.729,250.479c-0.75-2.66,0.79-5.42,3.45-6.17l0,0      c2.65-0.76,5.42,0.78,6.17,3.44l0,0c0.76,2.66-0.78,5.42-3.439,6.18l0,0l0,0l0,0c-0.46,0.13-0.92,0.19-1.37,0.19l0,0      C273.359,254.12,271.359,252.68,270.729,250.479z M289.91,244.81c-0.87-2.62,0.55-5.45,3.159-6.33l0,0      c2.62-0.87,5.45,0.55,6.33,3.17l0,0c0.87,2.62-0.55,5.45-3.17,6.32l0,0c-0.52,0.18-1.05,0.26-1.58,0.26l0,0      C292.56,248.229,290.609,246.899,289.91,244.81z M308.81,238.27c-1-2.569,0.29-5.47,2.87-6.46l0,0c2.57-1,5.47,0.29,6.46,2.87      l0,0c0.99,2.57-0.29,5.47-2.87,6.46l0,0l0,0l0,0c-0.59,0.23-1.2,0.34-1.79,0.34l0,0C311.47,241.479,309.58,240.26,308.81,238.27      z M327.38,230.85c-1.12-2.53,0.02-5.479,2.54-6.6l0,0c2.52-1.12,5.479,0.02,6.6,2.54l0,0c1.12,2.529-0.02,5.479-2.54,6.6l0,0      c-0.66,0.29-1.35,0.43-2.029,0.43l0,0C330.029,233.819,328.21,232.71,327.38,230.85z M345.55,222.5      c-1.25-2.46-0.26-5.471,2.2-6.721l0,0c2.46-1.25,5.47-0.26,6.72,2.2l0,0c1.25,2.46,0.271,5.471-2.19,6.721l0,0l0,0l0,0      c-0.729,0.369-1.5,0.54-2.26,0.54l0,0C348.189,225.24,346.439,224.24,345.55,222.5z M363.27,213.21      c-1.39-2.391-0.569-5.45,1.82-6.83h-0.01c2.39-1.39,5.449-0.57,6.84,1.82l0,0c1.38,2.39,0.57,5.439-1.82,6.829l0,0      c-0.79,0.461-1.649,0.671-2.5,0.671l0,0C365.87,215.7,364.189,214.81,363.27,213.21z M380.43,202.93c-1.53-2.3-0.9-5.4,1.4-6.93      l0,0c2.31-1.521,5.41-0.891,6.93,1.41l0,0c1.53,2.3,0.9,5.409-1.4,6.93l0,0l0,0l0,0c-0.85,0.56-1.81,0.83-2.76,0.83l0,0      C382.979,205.17,381.39,204.39,380.43,202.93z M396.93,191.62c-1.68-2.19-1.26-5.33,0.94-7.011l0,0      c2.189-1.67,5.33-1.25,7.01,0.95l0,0c1.67,2.19,1.25,5.33-0.95,7l0,0l0,0l0,0c-0.9,0.69-1.97,1.03-3.03,1.03l0,0      C399.399,193.59,397.91,192.91,396.93,191.62z M412.609,179.189c-1.85-2.05-1.68-5.21,0.37-7.06l0,0      c2.05-1.851,5.21-1.68,7.061,0.37l0,0c1.85,2.06,1.68,5.22-0.37,7.06l0,0c-0.96,0.86-2.15,1.29-3.34,1.29l0,0      C414.96,180.85,413.6,180.29,412.609,179.189z" fill="#384169"/></g></g><g><g><path d="M124.39,342.83c-0.03-2.761,2.18-5.021,4.94-5.051l0,0c2.77-0.029,5.029,2.181,5.06,4.94l0,0      c0.03,2.76-2.18,5.021-4.939,5.06l0,0c-0.021,0-0.04,0-0.061,0l0,0C126.649,347.779,124.42,345.569,124.39,342.83z       M109.319,347.74c-2.76-0.04-4.97-2.311-4.93-5.07l0,0c0.04-2.771,2.32-4.97,5.08-4.93l0,0c2.76,0.039,4.96,2.31,4.92,5.079l0,0      c-0.04,2.73-2.27,4.921-5,4.921l0,0C109.37,347.74,109.34,347.74,109.319,347.74z M144.38,342.47c-0.11-2.76,2.04-5.08,4.8-5.19      l0,0c2.76-0.109,5.09,2.04,5.2,4.801l0,0c0.1,2.76-2.05,5.08-4.811,5.189l0,0c-0.06,0-0.13,0-0.189,0l0,0      C146.7,347.27,144.49,345.16,144.38,342.47z M89.2,347.18c-2.761-0.11-4.9-2.439-4.79-5.2l0,0      c0.109-2.76,2.439-4.899,5.199-4.79l0,0c2.75,0.11,4.9,2.44,4.79,5.2l0,0c-0.109,2.69-2.33,4.8-4.989,4.8l0,0      C89.34,347.189,89.27,347.189,89.2,347.18z M164.359,341.55c-0.189-2.76,1.891-5.14,4.65-5.33l0,0      c2.75-0.19,5.14,1.89,5.33,4.65l0,0c0.18,2.75-1.9,5.14-4.65,5.33l0,0c-0.12,0-0.229,0.01-0.35,0.01l0,0      C166.729,346.21,164.54,344.189,164.359,341.55z M69.109,346.12L69.109,346.12L69.109,346.12      c-2.75-0.181-4.84-2.561-4.659-5.311l0,0c0.17-2.75,2.55-4.85,5.31-4.67l0,0c2.75,0.18,4.84,2.561,4.66,5.32l0,0      c-0.17,2.64-2.37,4.67-4.98,4.67l0,0C69.33,346.13,69.22,346.13,69.109,346.12z M184.3,340.05c-0.27-2.75,1.74-5.2,4.49-5.47      l0,0c2.75-0.271,5.189,1.75,5.46,4.489l0,0c0.27,2.75-1.74,5.2-4.49,5.471l0,0c-0.16,0.01-0.33,0.02-0.49,0.02l0,0      C186.729,344.56,184.55,342.63,184.3,340.05z M204.18,337.95c-0.35-2.74,1.58-5.24,4.32-5.601l0,0c2.74-0.35,5.25,1.59,5.6,4.32      l0,0c0.36,2.74-1.58,5.25-4.32,5.6l0,0c-0.22,0.03-0.43,0.04-0.64,0.04l0,0C206.66,342.31,204.51,340.47,204.18,337.95z       M223.99,335.24c-0.44-2.73,1.42-5.29,4.14-5.73l0,0c2.729-0.44,5.29,1.41,5.74,4.14l0,0c0.439,2.721-1.42,5.29-4.141,5.73l0,0      c-0.27,0.04-0.54,0.06-0.8,0.06l0,0C226.51,339.439,224.39,337.7,223.99,335.24z M243.71,331.89      c-0.53-2.71,1.229-5.34,3.939-5.87l0,0c2.71-0.529,5.341,1.24,5.87,3.95l0,0c0.53,2.71-1.229,5.33-3.939,5.87l0,0      c0,0,0,0-0.011-0.01l0,0c-0.319,0.069-0.64,0.1-0.96,0.1l0,0C246.27,335.93,244.18,334.27,243.71,331.89z M263.3,327.88      c-0.62-2.69,1.05-5.37,3.74-5.99l0,0c2.689-0.63,5.38,1.05,6,3.74l0,0c0.62,2.689-1.05,5.37-3.74,6l0,0l0,0l0,0      c-0.38,0.09-0.76,0.13-1.13,0.13l0,0C265.89,331.76,263.83,330.189,263.3,327.88z M282.74,323.2      c-0.721-2.66,0.859-5.41,3.529-6.12l0,0c2.67-0.721,5.41,0.859,6.13,3.529l0,0c0.71,2.66-0.859,5.4-3.529,6.12l0,0l0,0l0,0      c-0.44,0.12-0.88,0.181-1.311,0.181l0,0C285.359,326.91,283.34,325.43,282.74,323.2z M302,317.83      c-0.811-2.641,0.67-5.44,3.31-6.25l0,0c2.63-0.82,5.431,0.66,6.25,3.3l0,0c0.811,2.64-0.67,5.439-3.3,6.25l0,0      c-0.49,0.149-0.99,0.229-1.48,0.229l0,0C304.64,321.359,302.67,319.979,302,317.83z M321.05,311.75      c-0.91-2.61,0.46-5.46,3.07-6.37l0,0c2.6-0.92,5.46,0.46,6.37,3.06l0,0c0.909,2.61-0.461,5.46-3.061,6.37l0,0      c-0.55,0.2-1.11,0.29-1.66,0.29l0,0C323.71,315.1,321.779,313.81,321.05,311.75z M339.859,304.95      c-1.02-2.57,0.24-5.48,2.811-6.49l0,0c2.57-1.021,5.47,0.24,6.49,2.81l0,0c1.01,2.57-0.25,5.471-2.811,6.49l0,0      c-0.609,0.24-1.229,0.35-1.84,0.35l0,0C342.52,308.109,340.63,306.91,339.859,304.95z M358.38,297.399      c-1.12-2.52,0.02-5.47,2.55-6.59l0,0c2.521-1.12,5.47,0.021,6.59,2.54l0,0c1.12,2.53-0.02,5.48-2.54,6.601l0,0      c-0.66,0.29-1.35,0.43-2.02,0.43l0,0C361.04,300.38,359.21,299.27,358.38,297.399z M376.58,289.109      c-1.221-2.47-0.21-5.47,2.27-6.689l0,0c2.47-1.23,5.47-0.21,6.7,2.26l0,0c1.22,2.48,0.2,5.47-2.271,6.7l0,0      c-0.71,0.35-1.47,0.52-2.21,0.52l0,0C379.22,291.899,377.45,290.88,376.58,289.109z M394.42,280.06      c-1.34-2.42-0.45-5.46,1.97-6.79l0,0c2.42-1.33,5.46-0.45,6.79,1.971l0,0c1.33,2.42,0.44,5.46-1.979,6.789l0,0      c-0.761,0.421-1.591,0.62-2.4,0.62l0,0C397.04,282.649,395.33,281.72,394.42,280.06z M411.83,270.229      c-1.431-2.359-0.69-5.43,1.67-6.87l0,0c2.359-1.439,5.43-0.689,6.87,1.66l0,0c1.439,2.36,0.689,5.44-1.66,6.88l0,0      c-0.82,0.49-1.72,0.73-2.601,0.73l0,0C414.42,272.63,412.779,271.779,411.83,270.229z M428.79,259.62      c-1.55-2.29-0.95-5.4,1.34-6.95h-0.01c2.29-1.54,5.399-0.95,6.949,1.34l0,0c1.551,2.29,0.95,5.4-1.34,6.95l0,0      c-0.859,0.58-1.83,0.85-2.8,0.85l0,0C431.33,261.81,429.75,261.04,428.79,259.62z M445.21,248.2c-1.66-2.2-1.22-5.341,0.99-7      l0,0c2.199-1.66,5.34-1.221,7,0.989l0,0c1.659,2.2,1.22,5.33-0.98,7l0,0c-0.91,0.681-1.96,1-3.01,1l0,0      C447.689,250.189,446.189,249.51,445.21,248.2z" fill="#384169"/></g></g><g><g><path d="M132.16,416.319c-0.021-2.76,2.21-5.01,4.97-5.029l0,0c2.76-0.011,5.01,2.22,5.03,4.979l0,0      c0.01,2.76-2.21,5.01-4.971,5.021l0,0c-0.01,0-0.02,0-0.04,0l0,0C134.41,421.29,132.17,419.069,132.16,416.319z M117.05,421.149      c-2.76-0.06-4.95-2.34-4.89-5.1l0,0c0.05-2.76,2.34-4.95,5.1-4.9l0,0c2.76,0.061,4.95,2.341,4.89,5.101l0,0      c-0.05,2.729-2.279,4.899-4.989,4.899l0,0C117.12,421.149,117.09,421.149,117.05,421.149z M152.16,416.08      c-0.08-2.761,2.08-5.07,4.84-5.16l0,0l0,0l0,0c2.77-0.09,5.069,2.08,5.16,4.84l0,0c0.09,2.76-2.08,5.07-4.841,5.16l0,0      c-0.05,0-0.1,0-0.159,0l0,0C154.47,420.92,152.25,418.779,152.16,416.08z M96.93,420.46c-2.76-0.13-4.89-2.48-4.76-5.23l0,0      c0.14-2.76,2.479-4.89,5.24-4.76l0,0c2.76,0.14,4.89,2.48,4.75,5.24l0,0c-0.13,2.68-2.341,4.76-4.99,4.76l0,0      C97.09,420.47,97.01,420.47,96.93,420.46z M172.16,415.31c-0.16-2.75,1.949-5.12,4.71-5.28l0,0c0,0,0,0,0,0.011l0,0      c2.75-0.16,5.109,1.939,5.279,4.7l0,0c0.15,2.75-1.949,5.119-4.71,5.279l0,0c-0.1,0-0.189,0.01-0.29,0.01l0,0      C174.52,420.029,172.31,417.97,172.16,415.31z M192.13,414.029c-0.23-2.75,1.81-5.17,4.56-5.399l0,0l0,0l0,0      c2.75-0.23,5.17,1.81,5.41,4.56l0,0c0.23,2.75-1.819,5.17-4.569,5.4l0,0c-0.141,0.02-0.28,0.02-0.421,0.02l0,0      C194.54,418.609,192.35,416.64,192.13,414.029z M212.06,412.21c-0.31-2.74,1.66-5.21,4.41-5.521l0,0      c2.74-0.31,5.22,1.67,5.521,4.41l0,0c0.31,2.75-1.66,5.22-4.41,5.53l0,0c-0.19,0.02-0.38,0.03-0.561,0.03l0,0      C214.51,416.66,212.34,414.77,212.06,412.21z M231.92,409.85c-0.38-2.74,1.52-5.27,4.26-5.649l0,0      c2.73-0.391,5.26,1.52,5.64,4.25l0,0c0.391,2.739-1.51,5.26-4.25,5.649l0,0c-0.229,0.03-0.47,0.05-0.699,0.05l0,0      C234.41,414.149,232.27,412.34,231.92,409.85z M251.71,406.91c-0.46-2.721,1.37-5.311,4.09-5.771l0,0      c2.72-0.47,5.3,1.36,5.77,4.08l0,0c0.471,2.72-1.359,5.3-4.079,5.771l0,0c-0.29,0.05-0.57,0.069-0.851,0.069l0,0      C254.25,411.06,252.13,409.35,251.71,406.91z M271.41,403.38c-0.551-2.71,1.189-5.351,3.899-5.9l0,0l0,0l0,0      c2.7-0.55,5.34,1.2,5.9,3.9l0,0c0.55,2.71-1.2,5.35-3.91,5.899l0,0c-0.33,0.07-0.67,0.101-1,0.101l0,0      C273.97,407.38,271.89,405.75,271.41,403.38z M290.979,399.229c-0.64-2.689,1.021-5.39,3.7-6.029l0,0      c2.69-0.641,5.38,1.02,6.021,3.71l0,0c0.64,2.68-1.021,5.38-3.7,6.02l0,0c-0.391,0.09-0.78,0.14-1.16,0.14l0,0      C293.569,403.069,291.52,401.52,290.979,399.229z M310.399,394.42c-0.739-2.66,0.83-5.41,3.49-6.15l0,0      c2.66-0.729,5.41,0.83,6.15,3.49l0,0c0.729,2.67-0.83,5.42-3.49,6.15l0,0c-0.45,0.13-0.9,0.189-1.34,0.189l0,0      C313.02,398.1,311.01,396.64,310.399,394.42z M329.63,388.93c-0.83-2.63,0.63-5.439,3.27-6.27l0,0l0,0l0,0      c2.63-0.83,5.44,0.63,6.271,3.26l0,0c0.83,2.63-0.63,5.439-3.26,6.27l0,0c-0.5,0.16-1.011,0.24-1.511,0.24l0,0      C332.279,392.43,330.31,391.06,329.63,388.93z M348.649,382.729c-0.93-2.6,0.41-5.47,3.011-6.399l0,0      c2.6-0.931,5.47,0.42,6.399,3.01l0,0c0.931,2.6-0.42,5.47-3.01,6.4l0,0c-0.56,0.199-1.13,0.3-1.69,0.3l0,0      C351.31,386.04,349.38,384.77,348.649,382.729z M367.399,375.77c-1.04-2.56,0.19-5.479,2.75-6.52l0,0      c2.561-1.04,5.471,0.189,6.511,2.75l0,0c1.05,2.55-0.181,5.47-2.74,6.51l0,0c-0.62,0.25-1.26,0.37-1.88,0.37l0,0      C370.06,378.88,368.189,377.71,367.399,375.77z M385.83,368.029c-1.15-2.51-0.051-5.479,2.46-6.63l0,0      c2.51-1.159,5.479-0.06,6.63,2.45l0,0c1.149,2.51,0.05,5.48-2.46,6.63h0.01c-0.68,0.32-1.39,0.46-2.09,0.46l0,0      C388.49,370.939,386.68,369.859,385.83,368.029z M403.899,359.47c-1.27-2.45-0.31-5.47,2.141-6.74l0,0l0,0l0,0      c2.45-1.27,5.47-0.31,6.739,2.141l0,0c1.271,2.449,0.311,5.47-2.14,6.739l0,0c-0.74,0.381-1.53,0.561-2.3,0.561l0,0      C406.529,362.17,404.79,361.189,403.899,359.47z M421.529,350.06c-1.39-2.38-0.579-5.439,1.811-6.83l0,0      c2.38-1.39,5.439-0.58,6.83,1.8l0,0c1.39,2.391,0.58,5.45-1.8,6.841l0,0c-0.79,0.46-1.66,0.68-2.511,0.68l0,0      C424.14,352.55,422.46,351.66,421.529,350.06z M438.67,339.79c-1.51-2.311-0.87-5.41,1.439-6.931l0,0      c2.311-1.51,5.41-0.859,6.931,1.45l0,0c1.51,2.311,0.859,5.41-1.45,6.92l0,0c-0.84,0.55-1.79,0.82-2.73,0.82l0,0      C441.229,342.05,439.63,341.25,438.67,339.79z" fill="#384169"/></g></g><g><g><path d="M213.93,484.68c-2.76,0-5.01-2.229-5.01-4.99l0,0c-0.01-2.76,2.229-5.01,4.99-5.01l0,0      c2.76-0.01,5,2.23,5.01,4.99l0,0C218.92,482.43,216.689,484.67,213.93,484.68L213.93,484.68z M193.67,484.2      c-2.76-0.141-4.88-2.48-4.74-5.24l0,0c0.14-2.76,2.49-4.88,5.25-4.74l0,0c2.75,0.13,4.88,2.48,4.74,5.24l0,0      c-0.14,2.67-2.351,4.75-4.99,4.75l0,0C193.84,484.21,193.76,484.21,193.67,484.2z M228.92,479.399      c-0.141-2.76,1.99-5.1,4.75-5.239l0,0l0,0l0,0c2.76-0.141,5.1,1.989,5.24,4.75l0,0c0.14,2.75-1.99,5.1-4.74,5.239l0,0      c-0.09,0-0.17,0-0.25,0l0,0C231.27,484.149,229.06,482.08,228.92,479.399z M248.89,478.17c-0.26-2.75,1.75-5.19,4.5-5.45l0,0      c2.75-0.27,5.19,1.74,5.46,4.49l0,0c0.26,2.75-1.75,5.189-4.5,5.46l0,0c-0.17,0.02-0.33,0.02-0.49,0.02l0,0      C251.319,482.689,249.14,480.76,248.89,478.17z M173.27,482.46L173.27,482.46c-2.729-0.4-4.62-2.94-4.22-5.67l0,0      c0.39-2.73,2.93-4.62,5.67-4.23l0,0c2.73,0.4,4.62,2.94,4.22,5.67l0,0c-0.359,2.49-2.5,4.28-4.939,4.28l0,0      C173.76,482.51,173.52,482.49,173.27,482.46z M268.779,476.02c-0.39-2.729,1.5-5.27,4.24-5.66l0,0l0,0l0,0      c2.73-0.39,5.271,1.5,5.66,4.24l0,0c0.39,2.73-1.51,5.271-4.24,5.66l0,0c-0.239,0.03-0.479,0.05-0.71,0.05l0,0      C271.279,480.31,269.14,478.51,268.779,476.02z M288.55,472.939c-0.53-2.71,1.25-5.33,3.96-5.85l0,0      c2.71-0.521,5.33,1.25,5.86,3.96l0,0c0.52,2.71-1.261,5.34-3.971,5.86l0,0c-0.319,0.06-0.64,0.09-0.949,0.09l0,0      C291.1,477,289.01,475.33,288.55,472.939z M213.91,474.68L213.91,474.68L213.91,474.68L213.91,474.68L213.91,474.68      L213.91,474.68z M308.14,468.92c-0.649-2.68,0.99-5.391,3.67-6.04l0,0c2.69-0.65,5.391,0.99,6.05,3.68l0,0      c0.65,2.681-1,5.38-3.68,6.04l0,0c-0.4,0.09-0.79,0.141-1.189,0.141l0,0C310.74,472.74,308.7,471.21,308.14,468.92z       M327.51,463.95c-0.79-2.65,0.72-5.431,3.37-6.221l0,0c2.649-0.79,5.43,0.71,6.22,3.36l0,0c0.78,2.65-0.72,5.43-3.37,6.22l0,0      c-0.47,0.15-0.95,0.21-1.43,0.21l0,0C330.149,467.52,328.16,466.12,327.51,463.95z M346.609,458      c-0.93-2.61,0.431-5.471,3.04-6.391l0,0c2.601-0.92,5.45,0.431,6.38,3.04l0,0c0.921,2.601-0.43,5.46-3.039,6.38l0,0      c-0.551,0.2-1.11,0.29-1.671,0.29l0,0C349.26,461.319,347.34,460.04,346.609,458z M365.359,451.05      c-1.06-2.55,0.141-5.48,2.69-6.54l0,0c2.55-1.07,5.479,0.14,6.54,2.69l0,0c1.06,2.55-0.14,5.479-2.69,6.54l0,0      c-0.63,0.26-1.279,0.38-1.92,0.38l0,0C368.02,454.12,366.16,452.97,365.359,451.05z M383.71,443.1      c-1.2-2.49-0.16-5.479,2.33-6.68l0,0c2.479-1.2,5.47-0.17,6.68,2.32l0,0c1.2,2.489,0.16,5.479-2.33,6.68l0,0      c-0.7,0.34-1.439,0.5-2.17,0.5l0,0C386.359,445.92,384.58,444.88,383.71,443.1z" fill="#384169"/></g></g><g><g><path d="M150.33,121.38c-0.021-2.76,2.2-5.021,4.96-5.04l0,0l0,0l0,0c2.77-0.021,5.02,2.2,5.04,4.96l0,0      c0.02,2.76-2.2,5.02-4.96,5.04l0,0c-0.011,0-0.021,0-0.03,0l0,0C152.59,126.34,150.35,124.13,150.33,121.38z M170.33,121.029      c-0.15-2.76,1.96-5.119,4.72-5.27l0,0c2.76-0.15,5.11,1.97,5.26,4.72l0,0c0.15,2.761-1.96,5.12-4.72,5.271l0,0      c-0.09,0-0.18,0.01-0.271,0.01l0,0C172.68,125.76,170.47,123.689,170.33,121.029z M190.28,119.64      c-0.33-2.74,1.619-5.229,4.359-5.56l0,0c0,0,0,0,0-0.011l0,0c2.74-0.329,5.23,1.62,5.57,4.36l0,0c0.33,2.74-1.62,5.24-4.36,5.57      l0,0c-0.2,0.029-0.41,0.04-0.609,0.04l0,0C192.75,124.04,190.59,122.18,190.28,119.64z M210.08,116.81      c-0.58-2.7,1.149-5.35,3.85-5.93l0,0l0,0l0,0c2.7-0.57,5.35,1.149,5.93,3.85l0,0c0.58,2.7-1.149,5.36-3.84,5.931h-0.01      c-0.35,0.08-0.7,0.109-1.05,0.109l0,0C212.66,120.77,210.58,119.16,210.08,116.81z M229.52,112.13      c-0.859-2.63,0.561-5.45,3.19-6.311l0,0c2.62-0.869,5.45,0.561,6.31,3.181l0,0c0.86,2.62-0.56,5.45-3.18,6.319l0,0      c-0.521,0.171-1.05,0.25-1.57,0.25l0,0C232.17,115.569,230.21,114.229,229.52,112.13z M248.34,105.34      c-1.18-2.49-0.12-5.48,2.38-6.65l0,0c2.49-1.189,5.48-0.12,6.66,2.37l0,0c1.18,2.5,0.11,5.48-2.38,6.66l0,0      c-0.69,0.33-1.42,0.48-2.141,0.48l0,0C250.99,108.2,249.189,107.149,248.34,105.34z M266.08,96.109      c-1.59-2.26-1.051-5.38,1.21-6.97l0,0c2.25-1.6,5.37-1.06,6.96,1.2l0,0c1.59,2.26,1.06,5.38-1.2,6.97l0,0      c-0.88,0.62-1.88,0.91-2.88,0.91l0,0C268.6,98.22,267.06,97.479,266.08,96.109z M281.76,83.689c-2.1-1.79-2.36-4.939-0.57-7.04      l0,0c0,0,0,0,0.011,0l0,0c1.779-2.109,4.939-2.359,7.04-0.569l0,0c2.109,1.79,2.359,4.949,0.569,7.05l0,0      c-0.99,1.16-2.399,1.76-3.81,1.76l0,0C283.85,84.89,282.7,84.49,281.76,83.689z" fill="#384169"/></g></g></g></g><g id="Lines"><g><g><path d="M256.007,500.014c-113.247,0-205.381-92.134-205.381-205.382c0-82.801,49.297-157.107,125.589-189.304     c0.101-0.043,0.202-0.082,0.306-0.117c0.19-0.066,19.467-6.865,32.702-18.835c4.894-4.427,5.062-9.401,4.948-18.541     c-0.013-1.049-0.026-2.115-0.028-3.198c-0.17-1.907-0.513-9.854,4.719-15.737c2.389-2.687,6.885-5.89,14.731-5.89H276.3     c1.481-0.062,8.772-0.067,14.412,5.231c4.062,3.815,6.122,9.248,6.122,16.146c0,10.044,1.107,16.499,6.949,21.839     c12.977,11.862,31.633,18.954,31.82,19.024c0.062,0.023,0.126,0.049,0.187,0.075c76.298,32.194,125.598,106.502,125.598,189.307     C461.388,407.88,369.254,500.014,256.007,500.014z M179.963,114.601C107.467,145.264,60.626,215.914,60.626,294.632     c0,107.734,87.647,195.382,195.381,195.382s195.381-87.647,195.381-195.382c0-78.741-46.866-149.407-119.397-180.057     c-1.753-0.666-20.894-8.116-34.953-20.969c-9.415-8.604-10.203-19.153-10.203-29.22c0-3.99-0.98-6.953-2.914-8.806     c-2.854-2.734-7.19-2.585-7.233-2.578c-0.071,0.003-0.194,0.007-0.266,0.007h-42.828c-3.347,0-5.711,0.818-7.229,2.502     c-2.291,2.541-2.402,6.87-2.251,8.323c0.018,0.172,0.03,0.38,0.03,0.552c0,1.127,0.014,2.235,0.027,3.324     c0.113,9.056,0.23,18.421-8.24,26.081C201.68,106.68,182.109,113.84,179.963,114.601z" fill="#384169"/></g></g><g><g><path d="M256,52c-11.579,0-21-9.421-21-21s9.421-21,21-21s21,9.421,21,21S267.579,52,256,52z M256,20     c-6.065,0-11,4.935-11,11s4.935,11,11,11s11-4.935,11-11S262.065,20,256,20z" fill="#384169"/></g></g><g><g><g><path d="M425.737,102.49c-0.582,0-1.18-0.062-1.789-0.19c-1.916-0.401-3.367-1.327-4.577-2.163      c-3.863-2.67-7.41-5.598-10.841-8.429l-1.892-1.559c-0.476-0.391-0.97-0.825-1.464-1.261c-0.399-0.353-0.798-0.706-1.181-1.021      c-0.108-0.089-0.232-0.197-0.366-0.321c-1.208,0.375-2.418,0.776-3.671,1.192c-2.364,0.785-4.81,1.598-7.392,2.265      c-0.349,0.09-0.814,0.233-1.361,0.4c-4.878,1.486-13.958,4.254-17.653-2.083c-1.326-2.276-0.932-4.582-0.764-5.566      c0.89-5.196,2.655-9.99,4.361-14.627l0.643-1.752c0.74-2.031,1.405-3.812,1.99-5.328c-4.871-5.51-11.808-14.51-13.015-20.413      c-0.8-3.912,0.501-6.394,1.733-7.787c2.179-2.464,5.202-2.776,6.578-2.777c5.355-0.514,17.099,1.011,23.068,1.876      c4.624-7.857,10.159-14.78,11.93-16.795c1.52-1.727,3.226-2.847,5.073-3.33c2.223-0.578,4.788-0.245,6.866,0.892      c0.657,0.358,1.277,0.819,1.841,1.368c1.195,1.162,2.098,2.694,2.681,4.552c0.804,2.562,3.06,11.134,4.104,20.19      c5.808,1.628,17.163,4.99,21.85,7.631c1.258,0.56,3.896,2.069,4.89,5.206c0.562,1.772,0.745,4.568-1.57,7.82      c-3.457,4.854-13.264,10.207-19.946,13.288c0.091,7.47-0.706,14.736-2.42,22.109C432.494,99.963,429.448,102.49,425.737,102.49z       M404.684,77.027c0.342,0,0.684,0.035,1.02,0.105l0.094,0.02c1.955,0.413,3.294,1.743,4.271,2.714      c0.121,0.12,0.231,0.233,0.327,0.32c0.418,0.342,0.908,0.772,1.397,1.204c0.402,0.355,0.804,0.712,1.19,1.029l1.912,1.575      c3.141,2.592,6.121,5.052,9.308,7.317c1.393-6.826,1.902-13.555,1.566-20.522c-0.102-2.106,1.129-4.05,3.076-4.858      c7.066-2.936,14.859-7.44,17.868-10.22c-4.376-2.104-15.484-5.413-22.003-7.146c-2.057-0.546-3.543-2.334-3.703-4.456      c-0.661-8.783-2.963-17.885-3.83-20.88c-2.004,2.383-7.797,9.773-11.962,17.537c-1.005,1.875-3.09,2.906-5.19,2.575      c-6.662-1.059-18.158-2.55-23.012-2.383c1.625,3.76,6.925,11.036,12.195,16.582c1.363,1.434,1.752,3.537,0.993,5.363      c-0.516,1.241-1.458,3.618-3.015,7.892l-0.654,1.785c-1.336,3.628-2.61,7.089-3.429,10.594c1.846-0.321,4.2-1.038,5.185-1.338      c0.714-0.218,1.322-0.4,1.776-0.518c2.253-0.582,4.433-1.306,6.74-2.072c2.104-0.699,4.281-1.422,6.562-2.044      C403.798,77.086,404.24,77.027,404.684,77.027z M448.606,56.66L448.606,56.66L448.606,56.66z M374.898,41.06L374.898,41.06      L374.898,41.06z" fill="#384169"/></g></g></g><g><g><path d="M80.22,62.303c-1.279,0-2.56-0.488-3.535-1.465c-1.953-1.952-1.953-5.118,0-7.07l9.291-9.291     c1.951-1.953,5.119-1.953,7.07,0c1.953,1.952,1.953,5.118,0,7.07l-9.291,9.291C82.779,61.814,81.499,62.303,80.22,62.303z" fill="#384169"/></g></g><g><g><path d="M48.511,93.988c-1.279,0-2.56-0.488-3.535-1.465c-1.953-1.952-1.953-5.118,0-7.07l9.291-9.291     c1.951-1.953,5.119-1.953,7.07,0c1.953,1.952,1.953,5.118,0,7.07l-9.291,9.291C51.07,93.5,49.79,93.988,48.511,93.988z" fill="#384169"/></g></g><g><g><path d="M89.499,94c-1.279,0-2.56-0.488-3.535-1.465l-9.291-9.291c-1.953-1.952-1.953-5.118,0-7.07     c1.951-1.953,5.119-1.953,7.07,0l9.291,9.291c1.953,1.952,1.953,5.118,0,7.07C92.059,93.512,90.778,94,89.499,94z" fill="#384169"/></g></g><g><g><path d="M57.813,62.291c-1.279,0-2.56-0.488-3.535-1.465l-9.291-9.291c-1.953-1.952-1.953-5.118,0-7.07     c1.951-1.953,5.119-1.953,7.07,0l9.291,9.291c1.953,1.952,1.953,5.118,0,7.07C60.373,61.803,59.093,62.291,57.813,62.291z" fill="#384169"/></g></g><g><g><path d="M62.616,68.526c0-3.575,2.896-6.473,6.473-6.473c3.574,0,6.473,2.898,6.473,6.473S72.663,75,69.089,75     C65.513,75,62.616,72.101,62.616,68.526z" fill="#384169"/></g></g><g><g><path d="M464.22,446.303c-1.279,0-2.56-0.488-3.535-1.465c-1.953-1.952-1.953-5.118,0-7.07l9.291-9.291     c1.951-1.953,5.119-1.953,7.07,0c1.953,1.952,1.953,5.118,0,7.07l-9.291,9.291C466.779,445.814,465.499,446.303,464.22,446.303z" fill="#384169"/></g></g><g><g><path d="M432.511,477.988c-1.279,0-2.56-0.488-3.535-1.465c-1.953-1.952-1.953-5.118,0-7.07l9.291-9.291     c1.951-1.953,5.119-1.953,7.07,0c1.953,1.952,1.953,5.118,0,7.07l-9.291,9.291C435.07,477.5,433.79,477.988,432.511,477.988z" fill="#384169"/></g></g><g><g><path d="M473.499,478c-1.279,0-2.56-0.488-3.535-1.465l-9.291-9.291c-1.953-1.952-1.953-5.118,0-7.07     c1.951-1.953,5.119-1.953,7.07,0l9.291,9.291c1.953,1.952,1.953,5.118,0,7.07C476.059,477.512,474.778,478,473.499,478z" fill="#384169"/></g></g><g><g><path d="M441.813,446.291c-1.279,0-2.56-0.488-3.535-1.465l-9.291-9.291c-1.953-1.952-1.953-5.118,0-7.07     c1.951-1.953,5.119-1.953,7.07,0l9.291,9.291c1.953,1.952,1.953,5.118,0,7.07C444.373,445.803,443.093,446.291,441.813,446.291z" fill="#384169"/></g></g><g><g><path d="M446.616,452.526c0-3.575,2.896-6.473,6.473-6.473c3.574,0,6.473,2.898,6.473,6.473     S456.663,459,453.089,459C449.513,459,446.616,456.101,446.616,452.526z" fill="#384169"/></g></g><g><g><path d="M486.22,143.303c-1.279,0-2.56-0.488-3.535-1.465c-1.953-1.952-1.953-5.118,0-7.07l9.291-9.291     c1.951-1.953,5.119-1.953,7.07,0c1.953,1.952,1.953,5.118,0,7.07l-9.291,9.291C488.779,142.814,487.499,143.303,486.22,143.303z" fill="#384169"/></g></g><g><g><path d="M454.511,174.988c-1.279,0-2.56-0.488-3.535-1.465c-1.953-1.952-1.953-5.118,0-7.07l9.291-9.291     c1.951-1.953,5.119-1.953,7.07,0c1.953,1.952,1.953,5.118,0,7.07l-9.291,9.291C457.07,174.5,455.79,174.988,454.511,174.988z" fill="#384169"/></g></g><g><g><path d="M495.499,175c-1.279,0-2.56-0.488-3.535-1.465l-9.291-9.291c-1.953-1.952-1.953-5.118,0-7.07     c1.951-1.953,5.119-1.953,7.07,0l9.291,9.291c1.953,1.952,1.953,5.118,0,7.07C498.059,174.512,496.778,175,495.499,175z" fill="#384169"/></g></g><g><g><path d="M463.813,143.291c-1.279,0-2.56-0.488-3.535-1.465l-9.291-9.291c-1.953-1.952-1.953-5.118,0-7.07     c1.951-1.953,5.119-1.953,7.07,0l9.291,9.291c1.953,1.952,1.953,5.118,0,7.07C466.373,142.803,465.093,143.291,463.813,143.291z" fill="#384169"/></g></g><g><g><path d="M468.616,149.526c0-3.575,2.896-6.473,6.473-6.473c3.574,0,6.473,2.898,6.473,6.473     c0,3.575-2.898,6.474-6.473,6.474C471.513,156,468.616,153.101,468.616,149.526z" fill="#384169"/></g></g><g><g><g><path d="M53.043,505.001c-2.479,0-4.63-1.842-4.953-4.364c-0.066-0.511-6.41-46.725-36.46-49.542      c-2.509-0.235-4.451-2.302-4.53-4.82c-0.08-2.52,1.728-4.704,4.218-5.097c1.481-0.246,36.731-6.612,36.731-52.178      c0-2.762,2.238-5,5-5s5,2.238,5,5c0,28.188-12.187,43.565-22.41,51.502c-2.738,2.126-5.48,3.841-8.063,5.218      c9.176,5.03,16.807,13.972,22.483,26.485c6.167,13.596,7.88,26.614,7.95,27.162c0.35,2.739-1.588,5.243-4.327,5.593      C53.467,504.987,53.254,505.001,53.043,505.001z" fill="#384169"/></g></g><g><g><path d="M53.055,505.001c-0.211,0-0.424-0.014-0.639-0.041c-2.739-0.35-4.677-2.854-4.327-5.593      c0.07-0.548,1.783-13.566,7.95-27.162c5.676-12.514,13.307-21.455,22.483-26.485c-2.584-1.377-5.325-3.092-8.064-5.218      C60.235,432.565,48.049,417.188,48.049,389c0-2.762,2.238-5,5-5s5,2.238,5,5c0,45.565,35.249,51.932,36.75,52.181      c2.479,0.411,4.277,2.6,4.188,5.111c-0.089,2.511-2.019,4.567-4.521,4.803c-30.15,2.826-36.398,49.071-36.458,49.538      C57.687,503.157,55.534,505.001,53.055,505.001z" fill="#384169"/></g></g></g></g></svg>