<?xml version="1.0" ?><svg viewBox="0 0 512 512" xmlns="http://www.w3.org/2000/svg"><defs><style>.cls-1{fill:#3f456b;}.cls-2{fill:#384169;}</style></defs><title/><g id="Lines"><path class="cls-1" d="M281,145a5,5,0,0,1-5-5V117a5,5,0,0,0-5-5H163a5,5,0,0,0-5,5v23a5,5,0,0,1-10,0V117a15,15,0,0,1,15-15H271a15,15,0,0,1,15,15v23A5,5,0,0,1,281,145Z"/><path class="cls-1" d="M249,112a5,5,0,0,1-5-5V54a5,5,0,0,0-5-5H195a5,5,0,0,0-5,5v53a5,5,0,0,1-10,0V54a15,15,0,0,1,15-15h44a15,15,0,0,1,15,15v53A5,5,0,0,1,249,112Z"/><path class="cls-1" d="M204.45,80.83h-2.9a5,5,0,0,1,0-10h2.9a5,5,0,0,1,0,10Z"/><path class="cls-1" d="M471.88,501H182.4a5,5,0,0,1-5-5V307.68a5,5,0,0,1,10,0V491H466.88V307.68a5,5,0,1,1,10,0V496A5,5,0,0,1,471.88,501Z"/><path class="cls-1" d="M496,312.68H432.68a5,5,0,0,1,0-10H491V240.31H394.48a5,5,0,0,1,0-10H496a5,5,0,0,1,5,5v72.37A5,5,0,0,1,496,312.68Z"/><path class="cls-1" d="M291,312.68H158.28a5,5,0,0,1-5-5V235.31a5,5,0,0,1,5-5H353a5,5,0,0,1,0,10H163.28v62.37H291a5,5,0,0,1,0,10Z"/><path class="cls-1" d="M363.32,501H291a5,5,0,0,1-5-5V235.31a5,5,0,0,1,10,0V491h62.36V360.72a5,5,0,0,1,10,0V496A5,5,0,0,1,363.32,501Z"/><path class="cls-1" d="M265.11,240.29c-12.08-.89-34.94-9.61-34.94-36.25,0-17.61,9.79-26,18-29.92A44.29,44.29,0,0,1,265.48,170c24.21,0,43.44,11.3,55.62,32.68a93.6,93.6,0,0,1,11,32l-9.93,1.17a84.83,84.83,0,0,0-9.89-28.53C301.81,189.21,286.07,180,265.48,180a34.36,34.36,0,0,0-13.26,3.27c-8.11,4-12.05,10.78-12.05,20.77,0,24.11,24.63,26.2,25.68,26.28Z"/><path class="cls-1" d="M326.56,240.31a4,4,0,0,1-.59,0,5,5,0,0,1-4.38-5.54,93.6,93.6,0,0,1,11-32C344.74,181.3,364,170,388.18,170a44.32,44.32,0,0,1,17.32,4.12c8.21,3.93,18,12.31,18,29.92,0,26.66-22,35.2-33.65,36a5,5,0,1,1-.67-10,33.11,33.11,0,0,0,12.63-4.12c7.76-4.53,11.69-11.89,11.69-21.88s-3.94-16.78-12.05-20.77A34.36,34.36,0,0,0,388.17,180c-20.68,0-36.47,9.3-46.92,27.63a84.18,84.18,0,0,0-9.73,28.26A5,5,0,0,1,326.56,240.31Z"/><path class="cls-1" d="M365.19,365.72a17.12,17.12,0,0,1-16.61-13.06l-19.14-78.75a17,17,0,0,1,1.88-12.68,1.4,1.4,0,0,1,.1-.16L355,224.18c2.4-3.87,8.84-8.22,16.93-4.44a3.29,3.29,0,0,1,.49.26c8.55,5.21,38.4,21.28,38.7,21.45l.23.13a17,17,0,0,1,7.73,10.55l19.14,78.75a17.13,17.13,0,0,1-12.58,20.65l-56.41,13.71A17.55,17.55,0,0,1,365.19,365.72ZM339.9,266.37a7,7,0,0,0-.74,5.18l19.13,78.75a7.11,7.11,0,0,0,8.57,5.22l56.42-13.71a7.11,7.11,0,0,0,5.22-8.57l-19.14-78.75a7,7,0,0,0-3.11-4.31c-2.43-1.31-29.88-16.11-38.76-21.48-2.16-.92-3.36-.11-4,.78h0l0,0h0Z"/><path class="cls-2" d="M373.07,263.8a5,5,0,0,1-4.88-3.95l-.28-1.27a5,5,0,1,1,9.78-2.1l.27,1.26a5,5,0,0,1-3.83,5.95A5.53,5.53,0,0,1,373.07,263.8Z"/><path class="cls-1" d="M198,501.22H128a5,5,0,0,1-2.21-.51,203.56,203.56,0,0,1,0-365.42,5,5,0,0,1,2.21-.51h0l176.5.74a5.06,5.06,0,0,1,2.23.54,203.52,203.52,0,0,1,56.19,41.68,5,5,0,0,1-7.24,6.89,193.55,193.55,0,0,0-52.4-39.11l-174.14-.74a193.56,193.56,0,0,0,0,346.44H198a5,5,0,0,1,0,10Z"/><path class="cls-1" d="M272,112a5,5,0,0,1-5-5V45a25,25,0,0,0-25-25H190a25,25,0,0,0-25,25v62a5,5,0,0,1-10,0V45a35,35,0,0,1,35-35h52a35,35,0,0,1,35,35v62A5,5,0,0,1,272,112Z"/><path class="cls-1" d="M237,198H64a5,5,0,0,1,0-10H237a5,5,0,0,1,0,10Z"/><path class="cls-1" d="M345,198H309a5,5,0,0,1,0-10h36a5,5,0,0,1,0,10Z"/></g><g id="Outline"><path class="cls-2" d="M366.68,304.88a5,5,0,0,1-1.13-9.87l31.12-7.21a5,5,0,0,1,2.25,9.75l-31.11,7.2A4.9,4.9,0,0,1,366.68,304.88Z"/><path class="cls-2" d="M372.65,328.64a5,5,0,0,1-1.12-9.87l31.11-7.2a5,5,0,0,1,2.26,9.74l-31.11,7.2A4.92,4.92,0,0,1,372.65,328.64Z"/></g></svg>