<?xml version="1.0" ?><svg viewBox="0 0 512 512" xmlns="http://www.w3.org/2000/svg"><defs><style>.cls-1{fill:#3f456b;}</style></defs><title/><g id="Lines"><path class="cls-1" d="M476.42,500.5H364.17a5,5,0,0,1-5-5v-39a5,5,0,0,1,5-5H476.42c8.27,0,15,5.81,15,13v23.08C491.42,494.69,484.69,500.5,476.42,500.5Zm-107.25-10H476.42c2.81,0,5-1.59,5-3V464.46c0-1.37-2.19-3-5-3H369.17Z"/><path class="cls-1" d="M213.72,500.5a5,5,0,0,1-1.72-.31l-53.22-19.5a5,5,0,0,1,0-9.38L212,451.81a5,5,0,1,1,3.44,9.38L175,476l40.41,14.81a5,5,0,0,1-1.72,9.69Z"/><rect class="cls-1" height="39" width="10" x="459.42" y="456.5"/><path class="cls-1" d="M213.72,500.5a5,5,0,0,1-5-5v-39a5,5,0,0,1,10,0v39A5,5,0,0,1,213.72,500.5Z"/><path class="cls-1" d="M449.13,461.5a5,5,0,0,1-5-5V445.33H352.24a5,5,0,0,1,0-10h96.89a5,5,0,0,1,5,5V456.5A5,5,0,0,1,449.13,461.5Z"/><path class="cls-1" d="M464.38,421.46H15.5a5,5,0,0,1-5-5V80.38a5,5,0,0,1,5-5l411.76-.66V47.59c0-20.82,16-37.13,36.46-37.13,20.84,0,37.79,16.66,37.79,37.13V384.34A37.16,37.16,0,0,1,464.38,421.46Zm-443.88-10H464.38a27.13,27.13,0,1,0-27.13-27.12,5,5,0,0,1-10,0V84.72L20.5,85.38Zm443.88-64.25A37,37,0,0,1,491.5,359V47.59c0-14.7-12.73-27.13-27.79-27.13-14.84,0-26.46,11.92-26.46,27.13V79.71h0V359A37,37,0,0,1,464.38,347.21Z"/><path class="cls-1" d="M118,500.5H26.5a15,15,0,0,1-15-15V450.33a15,15,0,0,1,15-15H118a15,15,0,0,1,15,15V485.5A15,15,0,0,1,118,500.5ZM26.5,445.33a5,5,0,0,0-5,5V485.5a5,5,0,0,0,5,5H118a5,5,0,0,0,5-5V450.33a5,5,0,0,0-5-5Z"/><path class="cls-1" d="M302.5,500.5H213.72v-10H297.5v-29H213.72v-10H302.5a5,5,0,0,1,5,5v39A5,5,0,0,1,302.5,500.5Z"/><path class="cls-1" d="M332.62,467.5a4.66,4.66,0,0,1-1-.1l-30.12-6a5,5,0,0,1,2-9.8l29.15,5.8,30.09-5.81a5,5,0,1,1,1.9,9.82l-31.05,6A5,5,0,0,1,332.62,467.5Z"/><path class="cls-1" d="M302.49,500.34a5,5,0,0,1-1-9.91l30.12-6a5.22,5.22,0,0,1,1.93,0l31.05,6a5,5,0,1,1-1.9,9.82l-30.09-5.82-29.15,5.81A4.75,4.75,0,0,1,302.49,500.34Z"/><path class="cls-1" d="M244,500.34a5,5,0,0,1-5-5V456.5a5,5,0,0,1,10,0v38.84A5,5,0,0,1,244,500.34Z"/><path class="cls-1" d="M273.25,500.34a5,5,0,0,1-5-5V456.5a5,5,0,0,1,10,0v38.84A5,5,0,0,1,273.25,500.34Z"/><path class="cls-1" d="M496.5,481H486.42a5,5,0,0,1,0-10H496.5a5,5,0,0,1,0,10Z"/></g><g id="Outline"><path class="cls-1" d="M409,397h-5a5,5,0,0,1,0-10h5a5,5,0,0,1,0,10Zm-25,0h-5a5,5,0,0,1,0-10h5a5,5,0,0,1,0,10Zm-25,0h-5a5,5,0,0,1,0-10h5a5,5,0,0,1,0,10Zm-25,0h-5a5,5,0,0,1,0-10h5a5,5,0,0,1,0,10Zm-25,0h-5a5,5,0,0,1,0-10h5a5,5,0,0,1,0,10Zm-25,0h-5a5,5,0,0,1,0-10h5a5,5,0,0,1,0,10Zm-25,0h-5a5,5,0,0,1,0-10h5a5,5,0,0,1,0,10Zm-25,0h-5a5,5,0,0,1,0-10h5a5,5,0,0,1,0,10Zm-25,0h-5a5,5,0,0,1,0-10h5a5,5,0,0,1,0,10Zm-25,0h-5a5,5,0,0,1,0-10h5a5,5,0,0,1,0,10Zm-25,0h-5a5,5,0,0,1,0-10h5a5,5,0,0,1,0,10Zm-25,0h-5a5,5,0,0,1,0-10h5a5,5,0,0,1,0,10Zm-25,0h-5a5,5,0,0,1,0-10h5a5,5,0,0,1,0,10Zm-25,0H79a5,5,0,0,1,0-10h5a5,5,0,0,1,0,10Zm-25,0H54a5,5,0,0,1,0-10h5a5,5,0,0,1,0,10Zm-19-6a5,5,0,0,1-5-5v-5a5,5,0,0,1,10,0v5A5,5,0,0,1,40,391Zm369-5a5,5,0,0,1-5-5v-5a5,5,0,0,1,10,0v5A5,5,0,0,1,409,386ZM40,366a5,5,0,0,1-5-5v-5a5,5,0,0,1,10,0v5A5,5,0,0,1,40,366Zm369-5a5,5,0,0,1-5-5v-5a5,5,0,0,1,10,0v5A5,5,0,0,1,409,361ZM40,341a5,5,0,0,1-5-5v-5a5,5,0,0,1,10,0v5A5,5,0,0,1,40,341Zm369-5a5,5,0,0,1-5-5v-5a5,5,0,0,1,10,0v5A5,5,0,0,1,409,336ZM40,316a5,5,0,0,1-5-5v-5a5,5,0,0,1,10,0v5A5,5,0,0,1,40,316Zm369-5a5,5,0,0,1-5-5v-5a5,5,0,0,1,10,0v5A5,5,0,0,1,409,311ZM40,291a5,5,0,0,1-5-5v-5a5,5,0,0,1,10,0v5A5,5,0,0,1,40,291Zm369-5a5,5,0,0,1-5-5v-5a5,5,0,0,1,10,0v5A5,5,0,0,1,409,286ZM40,266a5,5,0,0,1-5-5v-5a5,5,0,0,1,10,0v5A5,5,0,0,1,40,266Zm369-5a5,5,0,0,1-5-5v-5a5,5,0,0,1,10,0v5A5,5,0,0,1,409,261ZM40,241a5,5,0,0,1-5-5v-5a5,5,0,0,1,10,0v5A5,5,0,0,1,40,241Zm369-5a5,5,0,0,1-5-5v-5a5,5,0,0,1,10,0v5A5,5,0,0,1,409,236ZM40,216a5,5,0,0,1-5-5v-5a5,5,0,0,1,10,0v5A5,5,0,0,1,40,216Zm369-5a5,5,0,0,1-5-5v-5a5,5,0,0,1,10,0v5A5,5,0,0,1,409,211ZM40,191a5,5,0,0,1-5-5v-5a5,5,0,0,1,10,0v5A5,5,0,0,1,40,191Zm369-5a5,5,0,0,1-5-5v-5a5,5,0,0,1,10,0v5A5,5,0,0,1,409,186ZM40,166a5,5,0,0,1-5-5v-5a5,5,0,0,1,10,0v5A5,5,0,0,1,40,166Zm369-5a5,5,0,0,1-5-5v-5a5,5,0,0,1,10,0v5A5,5,0,0,1,409,161ZM40,141a5,5,0,0,1-5-5v-5a5,5,0,0,1,10,0v5A5,5,0,0,1,40,141Zm369-5a5,5,0,0,1-5-5v-5a5,5,0,0,1,10,0v5A5,5,0,0,1,409,136ZM40,116a5,5,0,0,1-5-5v-5a5,5,0,0,1,10,0v5A5,5,0,0,1,40,116Zm369-5a5,5,0,0,1-4.88-3.91A5,5,0,0,1,407,98h2a5,5,0,0,1,5,5v3A5,5,0,0,1,409,111Zm-22-3h-5a5,5,0,0,1,0-10h5a5,5,0,0,1,0,10Zm-25,0h-5a5,5,0,0,1,0-10h5a5,5,0,0,1,0,10Zm-25,0h-5a5,5,0,0,1,0-10h5a5,5,0,0,1,0,10Zm-25,0h-5a5,5,0,0,1,0-10h5a5,5,0,0,1,0,10Zm-25,0h-5a5,5,0,0,1,0-10h5a5,5,0,0,1,0,10Zm-25,0h-5a5,5,0,0,1,0-10h5a5,5,0,0,1,0,10Zm-25,0h-5a5,5,0,0,1,0-10h5a5,5,0,0,1,0,10Zm-25,0h-5a5,5,0,0,1,0-10h5a5,5,0,0,1,0,10Zm-25,0h-5a5,5,0,0,1,0-10h5a5,5,0,0,1,0,10Zm-25,0h-5a5,5,0,0,1,0-10h5a5,5,0,0,1,0,10Zm-25,0h-5a5,5,0,0,1,0-10h5a5,5,0,0,1,0,10Zm-25,0h-5a5,5,0,0,1,0-10h5a5,5,0,0,1,0,10Zm-25,0H82a5,5,0,0,1,0-10h5a5,5,0,0,1,0,10Zm-25,0H57a5,5,0,0,1,0-10h5a5,5,0,0,1,0,10Z"/><path class="cls-1" d="M280.41,375.93a5,5,0,0,1-2.5-.67L189.82,324.4a5,5,0,0,1-2.5-4.33V218.36a5,5,0,0,1,2.5-4.33l88.09-50.86a5,5,0,0,1,5,0L371,214a5,5,0,0,1,2.5,4.33V320.07a5,5,0,0,1-2.5,4.33l-88.09,50.86A5,5,0,0,1,280.41,375.93Zm-83.09-58.74,83.09,48,83.09-48V221.25l-83.09-48-83.09,48Z"/><path class="cls-1" d="M280.41,375.93a5,5,0,0,1-5-5V268.46a5,5,0,0,1,10,0V370.93A5,5,0,0,1,280.41,375.93Z"/><path class="cls-1" d="M280.41,273.46a5.07,5.07,0,0,1-2.47-.65L189.85,222.7a5,5,0,0,1,4.94-8.69l85.62,48.7L366,214A5,5,0,1,1,371,222.7l-88.09,50.11A5,5,0,0,1,280.41,273.46Z"/><path class="cls-1" d="M160.44,142.67H72.5a5,5,0,0,1,0-10h87.94a5,5,0,0,1,0,10Z"/><path class="cls-1" d="M160.44,168.5H72.5a5,5,0,0,1,0-10h87.94a5,5,0,0,1,0,10Z"/><path class="cls-1" d="M116.47,194.33h-44a5,5,0,0,1,0-10h44a5,5,0,0,1,0,10Z"/><path class="cls-1" d="M174,324.7h-5a5,5,0,0,1,0-10h5a5,5,0,0,1,0,10Zm-25,0h-5a5,5,0,0,1,0-10h5a5,5,0,0,1,0,10Zm-25,0h-5a5,5,0,0,1,0-10h5a5,5,0,0,1,0,10Zm-25,0H94a5,5,0,0,1,0-10h5a5,5,0,0,1,0,10Zm-25,0H69a5,5,0,0,1,0-10h5a5,5,0,0,1,0,10Z"/><path class="cls-1" d="M280.41,256.19a5,5,0,0,1-5-5v-5a5,5,0,0,1,10,0v5A5,5,0,0,1,280.41,256.19Zm0-25a5,5,0,0,1-5-5v-5a5,5,0,0,1,10,0v5A5,5,0,0,1,280.41,231.19Zm0-25a5,5,0,0,1-5-5v-5a5,5,0,0,1,10,0v5A5,5,0,0,1,280.41,206.19Zm0-25a5,5,0,0,1-5-5v-5a5,5,0,0,1,10,0v5A5,5,0,0,1,280.41,181.19Zm0-25a5,5,0,0,1-5-5v-5a5,5,0,0,1,10,0v5A5,5,0,0,1,280.41,156.19Zm0-25a5,5,0,0,1-5-5v-2.44a5,5,0,0,1,10,0v2.44A5,5,0,0,1,280.41,131.19Z"/><path class="cls-1" d="M105.19,290.09a37.7,37.7,0,1,1,37.7-37.7A37.74,37.74,0,0,1,105.19,290.09Zm0-65.39a27.7,27.7,0,1,0,27.7,27.69A27.72,27.72,0,0,0,105.19,224.7Z"/></g></svg>