<?xml version="1.0" ?><svg viewBox="0 0 512 512" xmlns="http://www.w3.org/2000/svg"><defs><style>.cls-1{fill:#3f456b;}</style></defs><title/><g id="Lines"><path class="cls-1" d="M497.48,329.11H467a5,5,0,1,1,0-10h30.52a5,5,0,0,1,0,10Z"/><path class="cls-1" d="M497.48,351.34H467a5,5,0,0,1,0-10h30.52a5,5,0,0,1,0,10Z"/><path class="cls-1" d="M102.63,443.08A45.11,45.11,0,1,1,147.74,398,45.16,45.16,0,0,1,102.63,443.08Zm0-80.22A35.11,35.11,0,1,0,137.74,398,35.15,35.15,0,0,0,102.63,362.86Z"/><path class="cls-1" d="M102.63,415.56A17.59,17.59,0,1,1,120.22,398,17.61,17.61,0,0,1,102.63,415.56Zm0-25.18a7.59,7.59,0,1,0,7.59,7.59A7.6,7.6,0,0,0,102.63,390.38Z"/><path class="cls-1" d="M182.85,443.08A45.11,45.11,0,1,1,228,398,45.17,45.17,0,0,1,182.85,443.08Zm0-80.22A35.11,35.11,0,1,0,218,398,35.15,35.15,0,0,0,182.85,362.86Z"/><path class="cls-1" d="M182.85,415.56A17.59,17.59,0,1,1,200.44,398,17.61,17.61,0,0,1,182.85,415.56Zm0-25.18a7.59,7.59,0,1,0,7.59,7.59A7.61,7.61,0,0,0,182.85,390.38Z"/><path class="cls-1" d="M419.22,443.08A45.11,45.11,0,1,1,464.33,398,45.17,45.17,0,0,1,419.22,443.08Zm0-80.22A35.11,35.11,0,1,0,454.33,398,35.15,35.15,0,0,0,419.22,362.86Z"/><path class="cls-1" d="M419.22,415.56A17.59,17.59,0,1,1,436.81,398,17.61,17.61,0,0,1,419.22,415.56Zm0-25.18a7.59,7.59,0,1,0,7.59,7.59A7.61,7.61,0,0,0,419.22,390.38Z"/><path class="cls-1" d="M62.52,402.72H24a15,15,0,0,1-15-15V372.38C9,366,11,360.86,14.8,357.27c5.37-5,12.34-5,13.79-5H242.34a5,5,0,0,1,0,10H28.14s-4-.13-6.55,2.32c-1.69,1.62-2.55,4.23-2.55,7.76v15.34a5,5,0,0,0,5,5H62.52a5,5,0,0,1,0,10Z"/><path class="cls-1" d="M479.8,403.54H459.33a5,5,0,0,1,0-10H479.8c5.07,0,8.72-1.24,10.84-3.68,3-3.48,2.4-8.73,2.39-8.78a5.81,5.81,0,0,1,0-.72V263.56c0-.15,0-.29,0-.43s1.86-24.79-13.6-41.59c-9.92-10.78-25-16.24-44.68-16.24H355a14.6,14.6,0,0,0-5.81,1.54c-3.29,1.75-4.82,4.63-4.82,9.09V357.31a5,5,0,0,1-5,5H314.84a5,5,0,0,1,0-10h19.49V215.93c0-15.14,12.34-20.63,20.63-20.63h79.76c22.68,0,40.22,6.58,52.11,19.55,17.74,19.35,16.37,45.92,16.15,48.9V380.06c.23,2.06.68,10-4.78,16.34C494.1,401.14,487.91,403.54,479.8,403.54Z"/><path class="cls-1" d="M379.11,403H223a5,5,0,0,1,0-10H379.11a5,5,0,0,1,0,10Z"/><path class="cls-1" d="M339.33,402.72a5,5,0,0,1-5-5V355.06a5,5,0,0,1,10,0v42.66A5,5,0,0,1,339.33,402.72Z"/><path class="cls-1" d="M498,284.56H371a5,5,0,0,1-5-5v-48a5,5,0,0,1,5-5H492a5,5,0,0,1,0,10H376v38H498a5,5,0,0,1,0,10Z"/><path class="cls-1" d="M498,372.06H467a5,5,0,0,1-5-5V303.39a5,5,0,0,1,5-5h31a5,5,0,0,1,0,10H472v53.67h26a5,5,0,0,1,0,10Z"/><path class="cls-1" d="M371.83,316.56a5,5,0,0,1-5-5v-8.17a5,5,0,0,1,10,0v8.17A5,5,0,0,1,371.83,316.56Z"/><path class="cls-1" d="M314.13,383.25H243a5,5,0,0,1-5-5V343.56a5,5,0,0,1,5-5h71.17a5,5,0,0,1,5,5v34.69A5,5,0,0,1,314.13,383.25Zm-66.17-10h61.17V348.56H248Z"/><path class="cls-1" d="M339.29,361.86a5,5,0,0,1-5-5V78H47V356.86a5,5,0,0,1-10,0V73a5,5,0,0,1,5-5H339.29a5,5,0,0,1,5,5V356.86A5,5,0,0,1,339.29,361.86Z"/><path class="cls-1" d="M42,334H26.54a15,15,0,0,1-15-15V115a15,15,0,0,1,15-15H42a5,5,0,0,1,0,10H26.54a5,5,0,0,0-5,5V319a5,5,0,0,0,5,5H42a5,5,0,0,1,0,10Z"/><path class="cls-1" d="M168.85,99.65a5,5,0,0,1-5-5V73a5,5,0,0,1,10,0V94.65A5,5,0,0,1,168.85,99.65Z"/><path class="cls-1" d="M213,99.57a5,5,0,0,1-5-5V73a5,5,0,0,1,10,0v21.6A5,5,0,0,1,213,99.57Z"/><path class="cls-1" d="M257.13,98.56a5,5,0,0,1-5-5V73a5,5,0,0,1,10,0V93.56A5,5,0,0,1,257.13,98.56Z"/><path class="cls-1" d="M301,98.56a5,5,0,0,1-5-5V73a5,5,0,1,1,10,0V93.56A5,5,0,0,1,301,98.56Z"/><path class="cls-1" d="M80.3,98.56a5,5,0,0,1-5-5V73a5,5,0,0,1,10,0V93.56A5,5,0,0,1,80.3,98.56Z"/><path class="cls-1" d="M124.71,99.65a5,5,0,0,1-5-5V73a5,5,0,0,1,10,0V94.65A5,5,0,0,1,124.71,99.65Z"/><path class="cls-1" d="M339.29,121.33H42a5,5,0,1,1,0-10H339.29a5,5,0,0,1,0,10Z"/></g><g id="Outline"><path class="cls-1" d="M232.25,215.36a5,5,0,0,1-4.34-2.5l-26.1-45.21a12.89,12.89,0,0,0-22.33,0l-25.36,44.24a5,5,0,1,1-8.68-5l25.37-44.26a22.89,22.89,0,0,1,39.66,0l26.1,45.21a5,5,0,0,1-4.32,7.5Z"/><path class="cls-1" d="M255.34,309.05H202.9a5,5,0,0,1,0-10h52.44a12.9,12.9,0,0,0,11.17-19.34L240.24,234a5,5,0,0,1,8.68-5l26.25,45.74a22.89,22.89,0,0,1-19.83,34.33Z"/><path class="cls-1" d="M174.3,309.05H125.94a22.9,22.9,0,0,1-19.82-34.34l26.51-45.92a5,5,0,0,1,8.66,5l-26.51,45.92a12.9,12.9,0,0,0,11.16,19.34H174.3a5,5,0,0,1,0,10Z"/><path class="cls-1" d="M215.16,323.92a5,5,0,0,1-3.54-1.47l-14.71-14.71a5,5,0,0,1,7.07-7.07l14.72,14.71a5,5,0,0,1-3.54,8.54Z"/><path class="cls-1" d="M200.45,309.21a5,5,0,0,1-3.54-8.54L211.62,286A5,5,0,0,1,218.7,293L204,307.74A5,5,0,0,1,200.45,309.21Z"/><path class="cls-1" d="M233.55,217.51a5.34,5.34,0,0,1-1.3-.17,5,5,0,0,1-3.53-6.13l5.38-20.09a5,5,0,1,1,9.66,2.59l-5.38,20.09A5,5,0,0,1,233.55,217.51Z"/><path class="cls-1" d="M233.55,217.51a5.34,5.34,0,0,1-1.3-.17L212.16,212a5,5,0,1,1,2.59-9.66l20.09,5.39a5,5,0,0,1-1.29,9.83Z"/><path class="cls-1" d="M117.14,240.68a5,5,0,0,1-1.29-9.83l20.09-5.39a5,5,0,0,1,2.59,9.66l-20.1,5.39A5.26,5.26,0,0,1,117.14,240.68Z"/><path class="cls-1" d="M142.62,255.39a5,5,0,0,1-4.83-3.71l-5.39-20.09a5,5,0,1,1,9.66-2.59l5.39,20.09a5,5,0,0,1-3.54,6.13A5.26,5.26,0,0,1,142.62,255.39Z"/><path class="cls-1" d="M443,340.22a5,5,0,0,1-5-5V305.56a5,5,0,0,1,10,0v29.66A5,5,0,0,1,443,340.22Z"/></g></svg>