<?xml version="1.0" ?><svg viewBox="0 0 512 512" xmlns="http://www.w3.org/2000/svg"><defs><style>.cls-1{fill:#3f456b;}</style></defs><title/><g id="Lines"><path class="cls-1" d="M154.42,456.24a5,5,0,0,1-4.95-4.32L105.92,131.21a5,5,0,0,1,9.91-1.34l43.55,320.7a5,5,0,0,1-4.28,5.63A5.27,5.27,0,0,1,154.42,456.24Z"/><path class="cls-1" d="M121.54,456.23a5,5,0,0,1-5-4.33L75.14,146.68a5,5,0,1,1,9.91-1.34L126.5,450.55a5,5,0,0,1-4.28,5.63A5.31,5.31,0,0,1,121.54,456.23Z"/><path class="cls-1" d="M268,500H119.53A11.35,11.35,0,0,1,108,488.86V457.73c0-6,5.06-10.73,11.53-10.73H268c6.64,0,12,4.81,12,10.73v31.13C280,494.79,274.37,500,268,500ZM119.53,457c-1,0-1.53.47-1.53.73v31.13a1.47,1.47,0,0,0,1.53,1.14H268a2.36,2.36,0,0,0,2-1.19v-31a2.62,2.62,0,0,0-2-.83Z"/><path class="cls-1" d="M440.57,197H410.26a5,5,0,0,1-4.83-6.29c2-7.44,2.9-19.13-.5-21.71-1.53-1.17-5.94-.79-13.7,3.77-19.1,11.21-41.08,17-61.89,16.19-35-1.31-59.42-22.39-83-42.79-4.35-3.75-8.84-7.64-13.28-11.29L232,134c-8.1-6.67-15.76-13-24.87-17.35a88.09,88.09,0,0,0-49.78-8.27c-13.28,1.77-23.09,6.72-29.14,14.71-11.49,15.17-8.15,38.6-6.15,52.6l.12.82a5,5,0,0,1-9.9,1.41l-.12-.82c-2.22-15.54-5.93-41.56,8.08-60,7.72-10.2,19.76-16.45,35.78-18.58a98,98,0,0,1,55.43,9.17c10.21,4.9,18.69,11.88,26.9,18.63l1.11.91c4.54,3.73,9.08,7.66,13.47,11.46,23.28,20.15,45.26,39.18,76.81,40.35,18.93.72,39-4.55,56.45-14.81,4-2.37,16.31-9.58,24.82-3.11,7.35,5.59,6.73,18.07,5.44,26h20.86c3-8.32,2.77-21,2.39-25.63,0-.12,0-.23,0-.35-.09-8.17-3.32-14.93-9.33-19.53-7.18-5.5-17.67-7.18-28.06-4.51-6.23,1.6-12.22,5-18.56,8.66-6.63,3.79-13.49,7.72-21.18,9.82-14.13,3.86-27.44,3.29-39.57-1.7-23.54-9.67-38.55-31.43-51.8-50.62L270,101.42c-15.78-22.84-30.18-37.94-46.69-49C210.56,43.94,193.93,36,176.44,30c-30.38-10.31-64.52-13-93.67-7.35A58.12,58.12,0,0,0,42.94,50.85a5,5,0,1,1-8.7-4.93A68.1,68.1,0,0,1,80.87,12.87c30.81-6,66.81-3.16,98.78,7.71,12.94,4.39,32,12.05,49.19,23.55,17.6,11.77,32.82,27.68,49.35,51.6l1.2,1.73C291.85,115.51,306,136,326.76,144.51c10,4.13,21.19,4.57,33.14,1.3,6.45-1.76,12.47-5.21,18.85-8.85,6.63-3.8,13.5-7.73,21-9.66,13.53-3.49,26.89-1.21,36.63,6.25,8.37,6.41,13.07,16.06,13.25,27.18.17,2.23,1.43,21.89-4.66,33.58A5,5,0,0,1,440.57,197Z"/><path class="cls-1" d="M62.91,119.17a4.87,4.87,0,0,1-2.16-.49c-19.81-9.51-32.11-28.53-32.11-49.63a50.32,50.32,0,0,1,6.3-24.46A5,5,0,0,1,43.7,49.4a40.45,40.45,0,0,0-5.06,19.65c0,17.22,10.13,32.78,26.44,40.62a5,5,0,0,1-2.17,9.5Z"/><path class="cls-1" d="M85.88,150.5a28.6,28.6,0,1,1,28.6-28.59A28.63,28.63,0,0,1,85.88,150.5Zm0-47.19a18.6,18.6,0,1,0,18.6,18.6A18.61,18.61,0,0,0,85.88,103.31Z"/><path class="cls-1" d="M271.29,457.62a5,5,0,0,1-4.19-7.72L431.36,197H412.48L178.58,455.21a5,5,0,0,1-7.41-6.71L406.56,188.64a5,5,0,0,1,3.7-1.64h30.31a5,5,0,0,1,4.19,7.72L275.49,455.35A5,5,0,0,1,271.29,457.62Z"/><path class="cls-1" d="M100.5,108.39a5,5,0,0,1-.88-9.92c10.77-1.92,20.32-13.92,19.67-24.68-.78-12.81-12-21-22.22-22.24a25.13,25.13,0,0,0-9.15.53C83.08,53.43,79.4,55.55,77,58.39,72.19,64,71.62,69.5,75.44,73.12c3.4,3.22,9.71,4.08,14.69-.67A5,5,0,0,1,97,79.69c-7.15,6.81-19.75,8.94-28.47.69-6.47-6.12-8.73-17.3.81-28.48,3.74-4.39,9.08-7.57,15.89-9.45a35,35,0,0,1,13-.83c14.21,1.71,29.91,13.35,31,31.56,1,15.89-12.07,32.31-27.89,35.13A4.37,4.37,0,0,1,100.5,108.39Z"/><path class="cls-1" d="M86,127a5,5,0,0,1-5-5v-1a5,5,0,0,1,10,0v1A5,5,0,0,1,86,127Z"/><path class="cls-1" d="M143,87a5,5,0,0,1-5-5V81a5,5,0,0,1,10,0v1A5,5,0,0,1,143,87Z"/><path class="cls-1" d="M183,87a5,5,0,0,1-5-5V81a5,5,0,0,1,10,0v1A5,5,0,0,1,183,87Z"/><path class="cls-1" d="M221,101a5,5,0,0,1-5-5V95a5,5,0,0,1,10,0v1A5,5,0,0,1,221,101Z"/><path class="cls-1" d="M260,134a5,5,0,0,1-5-5v-1a5,5,0,0,1,10,0v1A5,5,0,0,1,260,134Z"/><path class="cls-1" d="M299,164a5,5,0,0,1-5-5v-1a5,5,0,0,1,10,0v1A5,5,0,0,1,299,164Z"/><path class="cls-1" d="M337,174a5,5,0,0,1-5-5v-1a5,5,0,0,1,10,0v1A5,5,0,0,1,337,174Z"/><path class="cls-1" d="M375,166a5,5,0,0,1-5-5v-1a5,5,0,0,1,10,0v1A5,5,0,0,1,375,166Z"/></g><g id="Outline"><rect class="cls-1" height="261" width="10" x="138" y="107"/><rect class="cls-1" height="341" width="10" x="178" y="103"/><rect class="cls-1" height="284" width="10" x="216" y="118"/><rect class="cls-1" height="207" width="10" x="255" y="152"/><rect class="cls-1" height="139" width="10" x="294" y="176"/><rect class="cls-1" height="88" width="10" x="332" y="184"/><rect class="cls-1" height="56" width="10" x="370" y="175"/></g></svg>