<?xml version="1.0" ?><svg viewBox="0 0 512 512" xmlns="http://www.w3.org/2000/svg"><defs><style>.cls-1{fill:#3f456b;}</style></defs><title/><g id="Lines"><path class="cls-1" d="M320.51,500.8a20,20,0,0,1-20-20c0-13.87-4-24.89-12.48-34.67-15.19-17.44-43.4-30.9-81.1-45.73-12.55-4.94-26.2-9.86-38.25-14.2-21-7.59-42.81-15.44-62.68-24.39-43.79-19.75-95.45-54-93.24-104.89,0-.48-.06-1-.06-1.52,0-23.75,7.3-43.68,22.31-60.93,22.8-26.19,61.83-43,96.62-56.68a5,5,0,1,1,3.66,9.3C101.6,160.35,63.87,176.55,42.55,201,29.19,216.39,22.7,234.17,22.7,255.4a7.42,7.42,0,0,0,0,.86,4.07,4.07,0,0,1,0,.78c-2.19,45.51,46.29,77.14,87.34,95.65,19.53,8.8,41.11,16.58,62,24.11,12.1,4.36,25.82,9.31,38.51,14.3,39.06,15.36,68.46,29.49,85,48.47,10.19,11.7,14.94,24.81,14.94,41.23a10,10,0,0,0,20,0c0-21.23-6.5-39-19.86-54.37C301.17,415.54,288,405.59,270.39,396c-16.9-9.18-36-17.05-52.48-23.53-12.5-4.91-25.61-9.64-38.28-14.22l-.77-.28c-20.49-7.38-41.69-15-60.54-23.52C88.5,321,67.15,306.28,54.87,290.67c-11.2-14.25-12.72-26.55-12-34.37a9.86,9.86,0,0,0-.07-2.37,4.74,4.74,0,0,1-.06-.92c.46-15.33,5.19-27.67,14.91-38.84,16.52-19,45.92-33.1,85-48.47,9.89-3.9,20.25-7.69,29.07-10.89a5,5,0,1,1,3.41,9.4c-8.76,3.18-19,6.94-28.82,10.79-37.7,14.83-65.91,28.29-81.1,45.73-8,9.23-12,19.46-12.44,32.16a20,20,0,0,1,.08,4.31c-1.19,13.19,6.27,39.58,69.62,68.14,18.49,8.34,39.5,15.91,59.82,23.24l.77.28c12.74,4.6,25.91,9.35,38.54,14.32,16.75,6.59,36.22,14.6,53.6,24.05,18.67,10.15,32.74,20.83,43,32.64,15,17.25,22.32,37.18,22.32,60.93A20,20,0,0,1,320.51,500.8Z"/><path class="cls-1" d="M221.13,146.9a5,5,0,0,1-1.83-9.66c8.91-3.49,16.69-6.75,23.79-10C319.38,92.9,332.6,54.91,330.26,29.1a10,10,0,0,0-19.92,1.8c.71,7.81-.8,20.12-12,34.37-12.28,15.61-33.63,30.34-63.45,43.79-17.09,7.7-36.44,14.82-54.79,21.46a5,5,0,0,1-3.4-9.41c18.17-6.57,37.31-13.61,54.07-21.17C294.13,71.37,301.58,45,300.38,31.8a20,20,0,0,1,39.84-3.6c2.64,29-11.36,71.39-93,108.21C240,139.68,232,143,223,146.55A4.9,4.9,0,0,1,221.13,146.9Z"/><path class="cls-1" d="M32.7,500.8a20,20,0,0,1-20-20c0-23.75,7.3-43.68,22.31-60.93,22.8-26.19,61.83-43,96.62-56.69a5,5,0,1,1,3.66,9.3C101.6,385.75,63.87,402,42.55,426.43,29.19,441.79,22.7,459.57,22.7,480.8a10,10,0,0,0,20,0c0-16.42,4.75-29.53,14.94-41.23,16.52-19,45.92-33.11,85-48.47,10.55-4.15,21.8-8.27,32.39-12.1a5,5,0,0,1,3.4,9.41c-10.52,3.8-21.7,7.88-32.13,12-37.7,14.83-65.91,28.29-81.1,45.73-8.51,9.78-12.48,20.8-12.48,34.67A20,20,0,0,1,32.7,500.8Z"/><path class="cls-1" d="M219.74,372.83a5,5,0,0,1-1.81-9.66c9.48-3.69,17.71-7.12,25.18-10.48a293.75,293.75,0,0,0,29.33-15.14,5,5,0,1,1,5.11,8.59,304.17,304.17,0,0,1-30.33,15.67c-7.63,3.43-16,6.93-25.66,10.68A5.06,5.06,0,0,1,219.74,372.83Z"/><path class="cls-1" d="M255.9,196.23a5,5,0,0,1-2.32-.58C241.71,189.39,227.32,183,206.93,175c-12.63-5-26.23-9.86-38.24-14.19-21-7.58-42.8-15.43-62.7-24.4C24.36,99.6,10.35,57.25,13,28.2a20,20,0,1,1,39.84,3.6C51.63,45,59.09,71.38,122.44,99.94c18.46,8.32,39.49,15.91,59.82,23.25l.36.13c12.87,4.64,26.18,9.44,38.95,14.47,16.72,6.56,36.16,14.56,53.6,24.05l3.12,1.72a5,5,0,0,1-4.91,8.72c-1-.56-2-1.11-3-1.66-17-9.23-36-17.07-52.48-23.53-12.64-5-25.88-9.75-38.68-14.37l-.36-.13c-20.51-7.4-41.73-15-60.54-23.53C88.5,95.61,67.15,80.88,54.87,65.27,43.67,51,42.15,38.72,42.86,30.9a10,10,0,1,0-19.92-1.8c-2.33,25.81,10.89,63.8,87.16,98.19,19.55,8.82,41.12,16.59,62,24.12,12.06,4.35,25.73,9.27,38.5,14.29,20.75,8.16,35.45,14.67,47.65,21.1a5,5,0,0,1-2.34,9.43Z"/><path class="cls-1" d="M176.71,356.81a5,5,0,0,1-1.7-9.7c19.69-7.1,38.78-14.11,55.75-21.77,7.54-3.39,14.59-6.91,21-10.45a5,5,0,0,1,4.86,8.74c-6.61,3.67-13.91,7.32-21.69,10.83-17.31,7.8-36.59,14.88-56.47,22.06A5.06,5.06,0,0,1,176.71,356.81Z"/><path class="cls-1" d="M348,372.76a117.13,117.13,0,1,1,58.4-15.68A117.24,117.24,0,0,1,348,372.76Zm-93-63.57a107.17,107.17,0,1,0-10.71-81.34A107.31,107.31,0,0,0,255,309.19Z"/><path class="cls-1" d="M473.65,499.82a28.36,28.36,0,0,1-7.34-1,28,28,0,0,1-17.14-13.15l-52.89-91.61a5,5,0,0,1,1.84-6.83l40.24-23.16a5,5,0,0,1,6.82,1.84L498,457.49a28.23,28.23,0,0,1-24.39,42.33ZM407.44,393.43l50.39,87.27a18.21,18.21,0,1,0,31.55-18.21L439,375.26Z"/><path class="cls-1" d="M420.72,385a5,5,0,0,1-4.34-2.5l-15-26a5,5,0,0,1,8.66-5l15,26a5,5,0,0,1-1.83,6.83A4.88,4.88,0,0,1,420.72,385Z"/><path class="cls-1" d="M323.35,370.09a5,5,0,0,1-3.16-8.88,196.72,196.72,0,0,0,27.08-26.37c19.05-22.77,29.19-52.3,28.56-83.13a129.93,129.93,0,0,0-31.49-82.62,170.16,170.16,0,0,0-20.68-19.87,5,5,0,0,1,6.33-7.74,180.58,180.58,0,0,1,21.9,21.05,139.94,139.94,0,0,1,33.93,89c.69,33.25-10.28,65.13-30.88,89.76A206.81,206.81,0,0,1,326.5,369,5,5,0,0,1,323.35,370.09Z"/><path class="cls-1" d="M276.51,346.64a5,5,0,0,1-2.79-9.16c27-18.1,44.53-38.39,52.12-60.31,8.75-25.27,2.17-55.63-16.77-77.36-8.39-9.65-19.44-18.75-33.77-27.83a5,5,0,1,1,5.35-8.45c15.16,9.61,26.93,19.33,36,29.71,21.25,24.38,28.58,58.61,18.68,87.2-8.32,24-27.16,46-56,65.35A5,5,0,0,1,276.51,346.64Z"/></g><g id="Outline"><path class="cls-1" d="M240,228H57a5,5,0,0,1,0-10H240a5,5,0,0,1,0,10Z"/><path class="cls-1" d="M253,196H100a5,5,0,0,1,0-10H253a5,5,0,0,1,0,10Z"/><path class="cls-1" d="M236,292H61a5,5,0,0,1,0-10H236a5,5,0,0,1,0,10Z"/><path class="cls-1" d="M254,324H99a5,5,0,0,1,0-10H254a5,5,0,0,1,0,10Z"/><path class="cls-1" d="M254,421H99a5,5,0,0,1,0-10H254a5,5,0,0,1,0,10Z"/><path class="cls-1" d="M292,453H61a5,5,0,0,1,0-10H292a5,5,0,0,1,0,10Z"/><path class="cls-1" d="M304,485H49a5,5,0,0,1,0-10H304a5,5,0,0,1,0,10Z"/><path class="cls-1" d="M292,69H61a5,5,0,0,1,0-10H292a5,5,0,0,1,0,10Z"/><path class="cls-1" d="M249,101H104a5,5,0,0,1,0-10H249a5,5,0,0,1,0,10Z"/><path class="cls-1" d="M305,36.54H48a5,5,0,0,1,0-10H305a5,5,0,0,1,0,10Z"/><path class="cls-1" d="M304,261H49a5,5,0,0,1,0-10H304a5,5,0,0,1,0,10Z"/><path class="cls-1" d="M334,261H236a5,5,0,0,1,0-10h98a5,5,0,0,1,0,10Z"/><path class="cls-1" d="M320,212H248a5,5,0,0,1,0-10h72a5,5,0,0,1,0,10Z"/><path class="cls-1" d="M319,306H248a5,5,0,0,1,0-10h71a5,5,0,0,1,0,10Z"/></g></svg>