<?xml version="1.0" ?><svg id="Lines" viewBox="0 0 512 512" xmlns="http://www.w3.org/2000/svg"><defs><style>.cls-1{fill:#344069;}.cls-2{fill:#3f4468;}.cls-3{fill:#3d446b;}</style></defs><title/><path class="cls-1" d="M168.25,196.5H16.5a5,5,0,0,1-5-5V15.5a5,5,0,0,1,5-5h256a5,5,0,0,1,5,5v82a5,5,0,1,1-10,0v-77H21.5v166H168.25a5,5,0,0,1,0,10Z"/><path class="cls-1" d="M496.5,148.5H379.17a5,5,0,0,1,0-10H491.5V20.5h-182V98.58a5,5,0,0,1-10,0V15.5a5,5,0,0,1,5-5h192a5,5,0,0,1,5,5v128A5,5,0,0,1,496.5,148.5Z"/><path class="cls-1" d="M272.5,500.5H16.5a5,5,0,0,1-5-5v-272a5,5,0,0,1,5-5H175.58a5,5,0,1,1,0,10H21.5v262h246V284.27a5,5,0,0,1,10,0V495.5A5,5,0,0,1,272.5,500.5Z"/><path class="cls-1" d="M496.5,356.5h-192a5,5,0,0,1-5-5V283.19a5,5,0,0,1,10,0V346.5h182v-166H392.61a5,5,0,0,1,0-10H496.5a5,5,0,0,1,5,5v176A5,5,0,0,1,496.5,356.5Z"/><path class="cls-1" d="M496.5,500.5h-192a5,5,0,0,1-5-5V384a5,5,0,0,1,5-5h192a5,5,0,0,1,5,5V495.5A5,5,0,0,1,496.5,500.5Zm-187-10h182V389h-182Z"/><path class="cls-2" d="M197,304.82a5,5,0,0,1-5-5.1l.89-44.15C174.22,237.63,164,214.71,164,190.81c0-54.38,52.71-98.63,117.5-98.63S399,136.43,399,190.81s-52.71,98.64-117.5,98.64a136.44,136.44,0,0,1-44.75-7.4L199.5,304.12A5,5,0,0,1,197,304.82ZM281.5,102.18c-59.28,0-107.5,39.76-107.5,88.63,0,21.78,9.69,42.72,27.28,59a5,5,0,0,1,1.61,3.77l-.76,37.38,31.54-18.69a5,5,0,0,1,4.27-.39,126.31,126.31,0,0,0,43.56,7.59c59.28,0,107.5-39.76,107.5-88.64S340.78,102.18,281.5,102.18Z"/><path class="cls-3" d="M233.48,217a5,5,0,0,1-4.37-2.58l-10.5-19L197,215.2a5,5,0,0,1-8.17-5.07l13.66-47.49a5,5,0,1,1,9.61,2.76l-8.77,30.48,13.22-12.06a5,5,0,0,1,7.74,1.27L232,199l10.47-36.4a5,5,0,1,1,9.61,2.76l-13.81,48a5,5,0,0,1-4.24,3.59Z"/><path class="cls-3" d="M338.15,217a5,5,0,0,1-4.38-2.58l-10.5-19-21.6,19.73a5,5,0,0,1-8.18-5.07l13.66-47.49a5,5,0,1,1,9.61,2.76L308,195.88l13.22-12.06a5,5,0,0,1,4.18-1.25,5,5,0,0,1,3.57,2.52L336.68,199l10.47-36.4a5,5,0,1,1,9.61,2.76L343,213.4a5,5,0,0,1-4.24,3.59Z"/><path class="cls-3" d="M265.39,218.52c-8.17,0-12.42-3.37-14.55-6.2-5.14-6.83-2.67-16.14-2.37-17.18l4.89-17c2-7.14,10.27-20.62,26.7-20.62,8.16,0,12.41,3.37,14.54,6.2,5.14,6.83,2.67,16.14,2.37,17.18l-4.89,17C290,205,281.81,218.52,265.39,218.52Zm14.67-51c-12.93,0-16.93,12.86-17.1,13.41l-4.88,17c-.38,1.39-1.08,6,.76,8.42,1.11,1.46,3.32,2.2,6.55,2.2,12.87,0,16.89-12.75,17.09-13.4l4.88-17c.39-1.4,1.09-6-.76-8.42C285.49,168.26,283.29,167.52,280.06,167.52Zm7.22,29h0Z"/><path class="cls-3" d="M360.17,203.5a4.68,4.68,0,0,1-1.17-.14,5,5,0,0,1-3.69-6l8.66-36a5,5,0,1,1,9.72,2.34l-8.66,36A5,5,0,0,1,360.17,203.5Z"/><path class="cls-3" d="M356,218.27a4.93,4.93,0,0,1-1.71-.3,5,5,0,0,1-3-6.41l.91-2.51a5,5,0,0,1,9.4,3.43l-.92,2.51A5,5,0,0,1,356,218.27Z"/></svg>