<?xml version="1.0" ?><svg viewBox="0 0 512 512" xmlns="http://www.w3.org/2000/svg"><defs><style>.cls-1{fill:#3f456b;}</style></defs><title/><g id="Lines"><path class="cls-1" d="M59.21,155.33a4.94,4.94,0,0,1-2.26-.54c-30.27-15.37-46.27-33.92-46.27-53.67C10.68,76,36.79,52.8,84.21,35.87,130,19.51,190.82,10.5,255.41,10.5s125.39,9,171.2,25.37C474,52.8,500.14,76,500.14,101.12c0,19.71-15.94,38.24-46.12,53.59a5,5,0,0,1-4.53-8.91c33.6-17.09,40.65-33.73,40.65-44.68,0-20.3-24.38-40.65-66.89-55.83C378.49,29.3,318.89,20.5,255.41,20.5S132.33,29.3,87.58,45.29c-42.52,15.18-66.9,35.53-66.9,55.83,0,11,7.08,27.64,40.79,44.75a5,5,0,0,1-2.26,9.46Z"/><path class="cls-1" d="M380.08,264.31a5,5,0,0,1-2.22-9.48c16.93-8.37,26.26-18.19,26.26-27.64,0-12.22-15.2-24.65-41.7-34.11-28.51-10.18-66.51-15.79-107-15.79s-78.5,5.61-107,15.79c-26.5,9.46-41.7,21.89-41.7,34.11,0,9.31,9.09,19,25.58,27.29a5,5,0,0,1-4.49,8.94C107.45,253.2,96.7,240.67,96.7,227.19c0-16.94,17.17-32.4,48.34-43.53,29.56-10.56,68.76-16.37,110.37-16.37s80.82,5.81,110.37,16.37c31.18,11.13,48.34,26.59,48.34,43.53,0,13.65-11,26.31-31.83,36.6A5,5,0,0,1,380.08,264.31Z"/><path class="cls-1" d="M341.05,302.5a5,5,0,0,1-1.62-9.73c21.65-7.43,34.58-17.56,34.58-27.1,0-18.51-48.7-39.14-118.6-39.14-32.45,0-62.9,4.48-85.72,12.63-20.59,7.36-32.88,17.27-32.88,26.51s12.35,19.2,33,26.56a5,5,0,1,1-3.36,9.42c-25.58-9.11-39.67-21.89-39.67-36s14-26.82,39.52-35.92c23.87-8.53,55.51-13.22,89.08-13.22s65.21,4.69,89.08,13.22C370,238.85,384,251.61,384,265.67c0,14.43-14.68,27.41-41.34,36.56A4.79,4.79,0,0,1,341.05,302.5Z"/><path class="cls-1" d="M255.41,340.5c-44.91,0-92.65-12.72-92.65-36.3s47.74-36.31,92.65-36.31,92.65,12.73,92.65,36.31S300.33,340.5,255.41,340.5Zm0-62.61c-22.85,0-44.27,3.15-60.3,8.88-14,5-22.35,11.51-22.35,17.43s8.36,12.42,22.35,17.42c16,5.73,37.45,8.88,60.3,8.88s44.27-3.15,60.3-8.88c14-5,22.35-11.51,22.35-17.42s-8.35-12.43-22.35-17.43C299.68,281,278.27,277.89,255.41,277.89Z"/><path class="cls-1" d="M449.69,208.86h0a5,5,0,0,1-5-5c0-16-19.54-32.19-53.61-44.36-36.18-12.92-84.38-20-135.72-20s-99.55,7.11-135.74,20C85.54,171.67,66,187.83,66,203.86a5,5,0,0,1-10,0V134.3c0-20.81,21.4-39.91,60.26-53.78C153.5,67.22,202.9,59.9,255.36,59.9s101.86,7.32,139.1,20.62c38.85,13.87,60.25,33,60.25,53.78h0l0,69.56A5,5,0,0,1,449.69,208.86ZM255.36,129.47c52.46,0,101.85,7.32,139.08,20.61,23.33,8.33,40.37,18.55,50.26,29.89V134.29c0-16-19.54-32.19-53.61-44.35-36.19-12.92-84.4-20-135.74-20s-99.55,7.12-135.74,20C85.54,102.1,66,118.27,66,134.3V180c9.89-11.34,26.93-21.55,50.26-29.88C153.5,136.79,202.9,129.47,255.36,129.47Zm194.35,4.83h0Z"/><path class="cls-1" d="M108.22,248a4.26,4.26,0,0,1-.61,0c-15.67-1.92-36.43-7.7-46.36-24.34a34.74,34.74,0,0,1-5-20.4,5,5,0,0,1,9.93,1.17c-.13,1.24-2.35,28.12,42.7,33.65a5,5,0,0,1-.61,10Z"/><path class="cls-1" d="M402.49,248a5,5,0,0,1-.6-10c45.13-5.54,42.81-32.51,42.69-33.65a5,5,0,0,1,9.93-1.17,34.78,34.78,0,0,1-5,20.4c-5.49,9.18-18,20.86-46.37,24.34A4.17,4.17,0,0,1,402.49,248Z"/><path class="cls-1" d="M281.55,227.52a4.68,4.68,0,0,1-1.05-.11,5,5,0,0,1-3.84-5.93c0-.07,1.83-9.39-3.28-15.64-3.44-4.21-9.48-6.34-18-6.34s-14.54,2.13-18,6.34c-5.12,6.26-3.32,15.58-3.3,15.67a5,5,0,0,1-9.79,2c-.12-.56-2.83-14,5.28-24,5.44-6.7,14.12-10.1,25.8-10.1s20.36,3.4,25.79,10.1c8.09,10,5.36,23.4,5.23,24A5,5,0,0,1,281.55,227.52Z"/><path class="cls-1" d="M141.58,251.26a5,5,0,0,1-4.71-3.33c-.22-.63-5.34-15.48,1.33-28.28,3.82-7.35,10.58-12.42,20.07-15.06,8.67-2.41,16-1.78,21.88,1.88,7.61,4.77,10.6,13.39,11.76,19.78a5,5,0,1,1-9.83,1.8c-.81-4.42-2.72-10.27-7.23-13.1-3.38-2.11-8-2.36-13.9-.73-6.69,1.87-11.36,5.23-13.85,10-4.68,8.91-.83,20.29-.8,20.41a5,5,0,0,1-4.72,6.64Z"/><path class="cls-1" d="M368.84,251.27a5.15,5.15,0,0,1-1.67-.29,5,5,0,0,1-3.05-6.37c.08-.23,3.86-11.54-.79-20.4-2.5-4.76-7.16-8.12-13.86-10-5.85-1.63-10.52-1.38-13.89.73-4.52,2.83-6.43,8.68-7.23,13.1a5,5,0,0,1-9.84-1.8c1.17-6.39,4.15-15,11.76-19.78,5.85-3.66,13.22-4.29,21.88-1.88,9.5,2.64,16.25,7.71,20.07,15.06,6.67,12.8,1.55,27.65,1.33,28.28A5,5,0,0,1,368.84,251.27Z"/></g><g id="Outline"><path class="cls-1" d="M169.17,301.5a5,5,0,0,1-2.51-.68c-13-7.59-15.77-15.64-15.77-21.05,0-25,53.85-38.5,104.52-38.5s104.52,13.49,104.52,38.5c0,5.28-2.6,13.14-15,20.61a5,5,0,1,1-5.15-8.56c6.57-4,10.18-8.24,10.18-12.05,0-6.35-9.86-13.61-25.74-18.95-18.3-6.16-42.72-9.55-68.78-9.55s-50.48,3.39-68.78,9.55c-15.88,5.34-25.74,12.6-25.74,18.95,0,3.94,3.84,8.35,10.8,12.41a5,5,0,0,1-2.52,9.32Z"/><path class="cls-1" d="M251.46,498.52h0a5,5,0,0,1,0-7.08h0a5,5,0,0,1,7.07,0h0a5,5,0,0,1,0,7.07h0A5,5,0,0,1,255,500h0A5,5,0,0,1,251.46,498.52Zm-12.27-17.94h0A5,5,0,0,1,241.7,474h0a5,5,0,0,1,6.61,2.51h0a5,5,0,0,1-2.52,6.61h0a4.93,4.93,0,0,1-2,.44h0A5,5,0,0,1,239.19,480.58Zm.28-16.44a5,5,0,0,1-5-5h0a5,5,0,0,1,5-5h0a5,5,0,0,1,5,5h0a5,5,0,0,1-5,5h0Zm2.43-19.78a5,5,0,0,1-2.42-6.65h0a5,5,0,0,1,6.64-2.42h0a5,5,0,0,1,2.43,6.64h0a5,5,0,0,1-4.54,2.89h0A5.12,5.12,0,0,1,241.9,444.36Zm10-17.3a5,5,0,0,1-.44-7.06h0a5,5,0,0,1,7.06-.44h0a5,5,0,0,1,.43,7.06h0a5,5,0,0,1-3.74,1.69h0A5,5,0,0,1,251.86,427.06Zm12.29-15.77a5,5,0,0,1-2.45-6.64h0a5,5,0,0,1,6.64-2.45h0a5,5,0,0,1,2.44,6.64h0a5,5,0,0,1-4.54,2.91h0A5,5,0,0,1,264.15,411.29Zm6.55-18.87a5,5,0,0,1-4.95-5.05h0a5,5,0,0,1,5.06-4.95h0a5,5,0,0,1,4.94,5.05h0a5,5,0,0,1-5,4.95h-.05ZM262.06,370a5,5,0,0,1,2.57-6.59h0a5,5,0,0,1,6.59,2.57h0a5,5,0,0,1-2.57,6.59h0a4.93,4.93,0,0,1-2,.42h0A5,5,0,0,1,262.06,370Zm-10-14.86a5,5,0,0,1-.23-7.06h0a5,5,0,0,1,7.06-.24h0a5,5,0,0,1,.23,7.07h0a5,5,0,0,1-3.65,1.58h0A5,5,0,0,1,252.06,355.15Z"/><path class="cls-1" d="M331.47,498.52h0a5,5,0,0,1,0-7.08h0a5,5,0,0,1,7.07,0h0a5,5,0,0,1,0,7.07h0A5,5,0,0,1,335,500h0A5,5,0,0,1,331.47,498.52Zm-12.29-17.94A5,5,0,0,1,321.7,474h0a5,5,0,0,1,6.61,2.51h0a5,5,0,0,1-2.52,6.61h0a4.93,4.93,0,0,1-2,.44h0A5,5,0,0,1,319.18,480.58Zm.29-16.44a5,5,0,0,1-5-5h0a5,5,0,0,1,5-5h0a5,5,0,0,1,5,5h0a5,5,0,0,1-5,5h0Zm2.44-19.78a5,5,0,0,1-2.43-6.65h0a5,5,0,0,1,6.64-2.42h0a5,5,0,0,1,2.43,6.64h0a5,5,0,0,1-4.54,2.89h0A5.07,5.07,0,0,1,321.91,444.36Zm9.95-17.3a5,5,0,0,1-.44-7.06h0a5,5,0,0,1,7.06-.44h0a5,5,0,0,1,.44,7.06h0a5,5,0,0,1-3.75,1.69h0A5,5,0,0,1,331.86,427.06Zm12.29-15.77a5,5,0,0,1-2.45-6.64h0a5,5,0,0,1,6.63-2.45h0a5,5,0,0,1,2.45,6.64h0a5,5,0,0,1-4.54,2.91h0A5,5,0,0,1,344.15,411.29Zm6.55-18.87a5,5,0,0,1-4.95-5.05h0a5,5,0,0,1,5.05-4.95h0a5,5,0,0,1,4.95,5.05h0a5,5,0,0,1-5,4.95h-.05ZM342.06,370h0a5,5,0,0,1,2.57-6.59h0a5,5,0,0,1,6.59,2.57h0a5,5,0,0,1-2.57,6.59h0a4.93,4.93,0,0,1-2,.42h0A5,5,0,0,1,342.06,370Zm-10-14.86h0a5,5,0,0,1-.24-7.06h0a5,5,0,0,1,7.07-.24h0a5,5,0,0,1,.23,7.07h0a5,5,0,0,1-3.65,1.58h0A5,5,0,0,1,332.06,355.15Z"/><path class="cls-1" d="M411.46,498.52h0a5,5,0,0,1,0-7.08h0a5,5,0,0,1,7.07,0h0a5,5,0,0,1,0,7.07h0A5,5,0,0,1,415,500h0A5,5,0,0,1,411.46,498.52Zm-12.27-17.94h0A5,5,0,0,1,401.7,474h0a5,5,0,0,1,6.61,2.51h0a5,5,0,0,1-2.52,6.61h0a4.93,4.93,0,0,1-2,.44h0A5,5,0,0,1,399.19,480.58Zm.28-16.44a5,5,0,0,1-5-5h0a5,5,0,0,1,5-5h0a5,5,0,0,1,5,5h0a5,5,0,0,1-5,5h0Zm2.44-19.78a5,5,0,0,1-2.43-6.65h0a5,5,0,0,1,6.64-2.42h0a5,5,0,0,1,2.43,6.64h0a5,5,0,0,1-4.54,2.89h0A5.07,5.07,0,0,1,401.91,444.36Zm9.95-17.3a5,5,0,0,1-.44-7.06h0a5,5,0,0,1,7.06-.44h0a5,5,0,0,1,.44,7.06h0a5,5,0,0,1-3.75,1.69h0A5,5,0,0,1,411.86,427.06Zm12.29-15.77a5,5,0,0,1-2.45-6.64h0a5,5,0,0,1,6.64-2.45h0a5,5,0,0,1,2.44,6.64h0a5,5,0,0,1-4.54,2.91h0A5,5,0,0,1,424.15,411.29Zm6.55-18.87a5,5,0,0,1-4.95-5.05h0a5,5,0,0,1,5.06-4.95h0a5,5,0,0,1,4.94,5.05h0a5,5,0,0,1-5,4.95h-.05ZM422.06,370a5,5,0,0,1,2.57-6.59h0a5,5,0,0,1,6.59,2.57h0a5,5,0,0,1-2.57,6.59h0a4.9,4.9,0,0,1-2,.42h0A5,5,0,0,1,422.06,370Zm-10-14.86a5,5,0,0,1-.23-7.06h0a5,5,0,0,1,7.06-.24h0a5,5,0,0,1,.23,7.07h0a5,5,0,0,1-3.65,1.58h0A5,5,0,0,1,412.06,355.15Z"/><path class="cls-1" d="M92.46,498.52h0a5,5,0,0,1,0-7.08h0a5,5,0,0,1,7.07,0h0a5,5,0,0,1,0,7.07h0A5,5,0,0,1,96,500h0A5,5,0,0,1,92.46,498.52ZM80.19,480.58A5,5,0,0,1,82.7,474h0a5,5,0,0,1,6.61,2.51h0a5,5,0,0,1-2.52,6.61h0a4.93,4.93,0,0,1-2,.44h0A5,5,0,0,1,80.19,480.58Zm.28-16.44a5,5,0,0,1-5-5h0a5,5,0,0,1,5-5h0a5,5,0,0,1,5,5h0a5,5,0,0,1-5,5h0Zm2.44-19.78a5,5,0,0,1-2.43-6.65h0a5,5,0,0,1,6.64-2.42h0a5,5,0,0,1,2.43,6.64h0A5,5,0,0,1,85,444.82h0A5.07,5.07,0,0,1,82.91,444.36Zm10-17.3a5,5,0,0,1-.44-7.06h0a5,5,0,0,1,7.06-.44h0a5,5,0,0,1,.44,7.06h0a5,5,0,0,1-3.75,1.69h0A5,5,0,0,1,92.86,427.06Zm12.29-15.77a5,5,0,0,1-2.45-6.64h0a5,5,0,0,1,6.63-2.45h0a5,5,0,0,1,2.45,6.64h0a5,5,0,0,1-4.54,2.91h0A5,5,0,0,1,105.15,411.29Zm6.55-18.87a5,5,0,0,1-5-5.05h0a5,5,0,0,1,5-4.95h0a5,5,0,0,1,5,5.05h0a5,5,0,0,1-5,4.95h0ZM103.06,370h0a5,5,0,0,1,2.57-6.59h0a5,5,0,0,1,6.59,2.57h0a5,5,0,0,1-2.57,6.59h0a4.93,4.93,0,0,1-2,.42h0A5,5,0,0,1,103.06,370Zm-10-14.86h0a5,5,0,0,1-.24-7.06h0a5,5,0,0,1,7.07-.24h0a5,5,0,0,1,.23,7.07h0a5,5,0,0,1-3.65,1.58h0A5,5,0,0,1,93.06,355.15Z"/><path class="cls-1" d="M172.22,498.52h0a5,5,0,0,1,0-7.08h0a5,5,0,0,1,7.07,0h0a5,5,0,0,1,0,7.07h0a5,5,0,0,1-3.54,1.48h0A5,5,0,0,1,172.22,498.52Zm-12.29-17.94a5,5,0,0,1,2.52-6.61h0a5,5,0,0,1,6.61,2.51h0a5,5,0,0,1-2.52,6.61h0a4.93,4.93,0,0,1-2,.44h0A5,5,0,0,1,159.93,480.58Zm.3-16.44a5,5,0,0,1-5-5h0a5,5,0,0,1,5-5h0a5,5,0,0,1,5,5h0a5,5,0,0,1-5,5h0Zm2.43-19.78a5,5,0,0,1-2.43-6.65h0a5,5,0,0,1,6.64-2.42h0a5,5,0,0,1,2.43,6.64h0a5,5,0,0,1-4.54,2.89h0A5,5,0,0,1,162.66,444.36Zm10-17.3a5,5,0,0,1-.44-7.06h0a5,5,0,0,1,7.06-.44h0a5,5,0,0,1,.44,7.06h0a5,5,0,0,1-3.75,1.69h0A5,5,0,0,1,172.61,427.06Zm12.29-15.77a5,5,0,0,1-2.45-6.64h0a5,5,0,0,1,6.64-2.45h0a5,5,0,0,1,2.44,6.64h0a5,5,0,0,1-4.54,2.91h0A5,5,0,0,1,184.9,411.29Zm6.55-18.87a5,5,0,0,1-4.95-5.05h0a5,5,0,0,1,5.06-4.95h0a5,5,0,0,1,4.94,5.05h0a5,5,0,0,1-5,4.95h-.05ZM182.81,370a5,5,0,0,1,2.57-6.59h0A5,5,0,0,1,192,366h0a5,5,0,0,1-2.57,6.59h0a4.93,4.93,0,0,1-2,.42h0A5,5,0,0,1,182.81,370Zm-10-14.86a5,5,0,0,1-.23-7.06h0a5,5,0,0,1,7.07-.24h0a5,5,0,0,1,.23,7.07h0a5,5,0,0,1-3.65,1.58h0A5,5,0,0,1,172.81,355.15Z"/></g></svg>