<?xml version="1.0" ?><svg viewBox="0 0 512 512" xmlns="http://www.w3.org/2000/svg"><defs><style>.cls-1{fill:#3f456b;}</style></defs><title/><g id="Lines"><path class="cls-1" d="M400,52a5,5,0,0,1-5-5V22H118V47a5,5,0,0,1-10,0V17a5,5,0,0,1,5-5H400a5,5,0,0,1,5,5V47A5,5,0,0,1,400,52Z"/><path class="cls-1" d="M432,501H272a5,5,0,0,1-5-4.78l-16-360.1a5,5,0,0,1,10-.44L276.78,491H427.21c1.28-31.11,7.91-206.46-.2-311.13-6.1-78.8-31.23-130.13-31.49-130.64a5,5,0,0,1,9-4.46c1.07,2.15,26.25,53.61,32.51,134.33,8.92,115.2.09,315.12,0,317.12A5,5,0,0,1,432,501Z"/><path class="cls-1" d="M241,501H81a5,5,0,0,1-5-4.78c-.08-2-8.91-201.92,0-317.12,6.26-80.72,31.44-132.18,32.51-134.33a5,5,0,1,1,9,4.46c-.26.5-25.4,52-31.49,130.64-8.11,104.67-1.48,280-.2,311.13H236.2L251,135.69a5,5,0,0,1,10,.42l-15,360.1A5,5,0,0,1,241,501Z"/><path class="cls-1" d="M85.73,147.5a5,5,0,0,1,0-10c14.15,0,26.07-4.8,35.43-14.26C146.24,97.9,146,47.56,146,47.05A5,5,0,0,1,151,42H151a5,5,0,0,1,5,5,166.92,166.92,0,0,1-3.17,30.71c-4.46,23-12.72,40.65-24.56,52.61C117,141.7,102.65,147.5,85.73,147.5Z"/><path class="cls-1" d="M427,147.5c-16.91,0-31.23-5.8-42.54-17.23-11.83-12-20.1-29.66-24.56-52.61A169,169,0,0,1,356.73,47a5,5,0,0,1,5-5h.06a5,5,0,0,1,4.94,5c0,.62-.16,51,24.86,76.21C401,132.71,412.86,137.5,427,137.5a5,5,0,0,1,0,10Z"/><path class="cls-1" d="M176,52H113a5,5,0,0,1,0-10h63a5,5,0,0,1,0,10Z"/><path class="cls-1" d="M400,52H336a5,5,0,0,1,0-10h64a5,5,0,0,1,0,10Z"/><path class="cls-1" d="M256,148a5,5,0,0,1-5-5V17a5,5,0,0,1,10,0V143A5,5,0,0,1,256,148Z"/><path class="cls-1" d="M280.16,79a5,5,0,0,1-5-5v-.48a5,5,0,1,1,10,0V74A5,5,0,0,1,280.16,79Z"/><path class="cls-1" d="M280.16,45a5,5,0,0,1-5-5V39.5a5,5,0,0,1,10,0V40A5,5,0,0,1,280.16,45Z"/><path class="cls-1" d="M280.16,109.51a5,5,0,0,1-5-5V104a5,5,0,0,1,10,0v.48A5,5,0,0,1,280.16,109.51Z"/><path class="cls-1" d="M280.16,140a5,5,0,0,1-5-5v-.48a5,5,0,0,1,10,0V135A5,5,0,0,1,280.16,140Z"/></g><g id="Outline"><path class="cls-1" d="M367.73,500.28a5,5,0,0,1-5-5c0-171.06-9.61-274.78-9.71-275.81a5,5,0,1,1,10-.94c.1,1,9.75,105.22,9.75,276.75A5,5,0,0,1,367.73,500.28Z"/><path class="cls-1" d="M145,500.28a5,5,0,0,1-5-5c0-171.53,9.66-275.72,9.75-276.75a5,5,0,1,1,10,.94c-.1,1-9.71,104.8-9.71,275.81A5,5,0,0,1,145,500.28Z"/></g></svg>