<?xml version="1.0" ?><svg viewBox="0 0 512 512" xmlns="http://www.w3.org/2000/svg"><defs><style>.cls-1{fill:#3f456b;}</style></defs><title/><g id="Lines"><path class="cls-1" d="M256,300a44,44,0,1,1,44-44A44.05,44.05,0,0,1,256,300Zm0-78a34,34,0,1,0,34,34A34,34,0,0,0,256,222Z"/><path class="cls-1" d="M392,178a44,44,0,1,1,44-44A44.05,44.05,0,0,1,392,178Zm0-78a34,34,0,1,0,34,34A34,34,0,0,0,392,100Z"/><path class="cls-1" d="M87,227a44,44,0,1,1,44-44A44.05,44.05,0,0,1,87,227Zm0-78a34,34,0,1,0,34,34A34,34,0,0,0,87,149Z"/><path class="cls-1" d="M305,501a44,44,0,1,1,44-44A44.05,44.05,0,0,1,305,501Zm0-78a34,34,0,1,0,34,34A34,34,0,0,0,305,423Z"/><path class="cls-1" d="M448,260a36.5,36.5,0,1,1,36.5-36.5A36.54,36.54,0,0,1,448,260Zm0-63a26.5,26.5,0,1,0,26.5,26.5A26.53,26.53,0,0,0,448,197Z"/><path class="cls-1" d="M353,371a36.5,36.5,0,1,1,36.5-36.5A36.54,36.54,0,0,1,353,371Zm0-63a26.5,26.5,0,1,0,26.5,26.5A26.53,26.53,0,0,0,353,308Z"/><path class="cls-1" d="M192,420a36.5,36.5,0,1,1,36.5-36.5A36.54,36.54,0,0,1,192,420Zm0-63a26.5,26.5,0,1,0,26.5,26.5A26.53,26.53,0,0,0,192,357Z"/><path class="cls-1" d="M200,192a36.5,36.5,0,1,1,36.5-36.5A36.54,36.54,0,0,1,200,192Zm0-63a26.5,26.5,0,1,0,26.5,26.5A26.53,26.53,0,0,0,200,129Z"/><path class="cls-1" d="M48,332a36.5,36.5,0,1,1,36.5-36.5A36.54,36.54,0,0,1,48,332Zm0-63a26.5,26.5,0,1,0,26.5,26.5A26.53,26.53,0,0,0,48,269Z"/><path class="cls-1" d="M48,100A36.5,36.5,0,1,1,84.5,63.5,36.54,36.54,0,0,1,48,100Zm0-63A26.5,26.5,0,1,0,74.5,63.5,26.53,26.53,0,0,0,48,37Z"/><path class="cls-1" d="M464,84a36.5,36.5,0,1,1,36.5-36.5A36.54,36.54,0,0,1,464,84Zm0-63a26.5,26.5,0,1,0,26.5,26.5A26.53,26.53,0,0,0,464,21Z"/><path class="cls-1" d="M288,132a36.5,36.5,0,1,1,36.5-36.5A36.54,36.54,0,0,1,288,132Zm0-63a26.5,26.5,0,1,0,26.5,26.5A26.53,26.53,0,0,0,288,69Z"/><path class="cls-1" d="M286,236a5,5,0,0,1-3.29-8.77l79-69a5,5,0,0,1,6.58,7.54l-79,69A5,5,0,0,1,286,236Z"/><path class="cls-1" d="M295,423a5,5,0,0,1-4.87-3.86l-29-124a5,5,0,0,1,9.74-2.28l29,124A5,5,0,0,1,295,423Z"/><path class="cls-1" d="M219,248a5,5,0,0,1-2-.43l-97-43a5,5,0,0,1,4.06-9.14l97,43a5,5,0,0,1-2,9.57Z"/><path class="cls-1" d="M418,110a5,5,0,0,1-3.71-8.35l28-31a5,5,0,0,1,7.42,6.7l-28,31A5,5,0,0,1,418,110Z"/><path class="cls-1" d="M431,202a5,5,0,0,1-4.25-2.37l-18.46-29.84a5,5,0,1,1,8.51-5.26l18.45,29.84A5,5,0,0,1,431,202Z"/><path class="cls-1" d="M355,126.57a4.93,4.93,0,0,1-1.76-.32l-38-14.23a5,5,0,0,1,3.5-9.37l38,14.23a5,5,0,0,1-1.75,9.69Z"/><path class="cls-1" d="M74,151a5,5,0,0,1-4.75-3.45l-17-52a5,5,0,1,1,9.5-3.1l17,52a5,5,0,0,1-3.2,6.3A4.93,4.93,0,0,1,74,151Z"/><path class="cls-1" d="M57,270a5.09,5.09,0,0,1-1.94-.39,5,5,0,0,1-2.67-6.55l19-45a5,5,0,0,1,9.22,3.88l-19,45A5,5,0,0,1,57,270Z"/><path class="cls-1" d="M323.72,427.78a5,5,0,0,1-4.64-6.88l23.21-57.37a5,5,0,0,1,9.27,3.75l-23.21,57.37A5,5,0,0,1,323.72,427.78Z"/><path class="cls-1" d="M269.83,445.11a5,5,0,0,1-2.88-.92l-52.84-37.33a5,5,0,0,1,5.77-8.16L272.72,436a5,5,0,0,1-2.89,9.09Z"/><path class="cls-1" d="M124.67,177.91a5,5,0,0,1-1.2-9.85l43.84-10.88a5,5,0,0,1,2.41,9.7l-43.84,10.88A5,5,0,0,1,124.67,177.91Z"/></g><g id="Outline"><path class="cls-1" d="M255,281a5,5,0,0,1,0-10,18.52,18.52,0,0,0,18.5-18.5,5,5,0,0,1,10,0A28.54,28.54,0,0,1,255,281Z"/><path class="cls-1" d="M388,158a5,5,0,0,1,0-10,18.52,18.52,0,0,0,18.5-18.5,5,5,0,0,1,10,0A28.54,28.54,0,0,1,388,158Z"/><path class="cls-1" d="M83,208a5,5,0,0,1,0-10,18.52,18.52,0,0,0,18.5-18.5,5,5,0,0,1,10,0A28.54,28.54,0,0,1,83,208Z"/><path class="cls-1" d="M302,481a5,5,0,0,1,0-10,18.52,18.52,0,0,0,18.5-18.5,5,5,0,0,1,10,0A28.54,28.54,0,0,1,302,481Z"/></g></svg>