<?xml version="1.0" ?><svg viewBox="0 0 512 512" xmlns="http://www.w3.org/2000/svg"><defs><style>.cls-1{fill:#3f456b;}</style></defs><title/><g id="Lines"><path class="cls-1" d="M496,138H401.26c-8.46,0-15.26-2.62-20.23-7.79-8.11-8.43-8.07-20.65-8-22.09V16h10v92.39c0,.07-.22,9.27,5.28,14.93,3,3.11,7.38,4.68,13,4.68H496Z"/><path class="cls-1" d="M129.75,378.88a5,5,0,0,1-5-5V331a5,5,0,0,1,10,0v42.88A5,5,0,0,1,129.75,378.88Z"/><path class="cls-1" d="M175.72,468c-3.59,0-16.12-.52-27.9-7.24a5,5,0,0,1,5-8.69c11.07,6.32,23.41,5.93,23.53,5.92H309a5,5,0,0,1,0,10H175.72Z"/><path class="cls-1" d="M469.68,468H414.62a5,5,0,0,1,0-10h55.06c11.75,0,21.32-10.6,21.32-23.62V135.62c0-11.37-10.55-24.31-14.62-28.33-.67-.68-62.23-63.27-75-76.09A38.75,38.75,0,0,0,375.68,20H156.05A23.34,23.34,0,0,0,133,43V220a5,5,0,0,1-10,0V43c0-17.89,15.13-33,33.05-33H375.59a48.72,48.72,0,0,1,32.82,14.13c12.84,12.85,74.43,75.47,75,76.1S501,117.8,501,135.62V434.38C501,452.92,487,468,469.68,468Z"/><path class="cls-1" d="M371.86,496.09a68.71,68.71,0,0,1-37.7-11.39C308.57,468.24,234.76,419,193,391.05l5.56-8.31c41.69,27.89,115.44,77.13,141,93.55A58.81,58.81,0,0,0,387.75,484c14.2-3.8,23.12-11.17,24.37-12.92.59-.82.52-1.23.49-1.41a6.41,6.41,0,0,0-2.48-3.12L247.68,359.61l5.5-8.35,162.5,106.93c.59.39,5.72,3.93,6.76,9.63a11.65,11.65,0,0,1-2.2,9.06c-3.23,4.49-14.64,12.65-29.9,16.74A71.51,71.51,0,0,1,371.86,496.09ZM146.5,356.27c-.84-2.63-1.23-6.86,1.63-12.12L155.49,330a5.33,5.33,0,0,0-.55-.4c-2-1.32-5.67-3.64-9.21-5.9-19.56,20.7-50.77,28.25-79.12,18.75a76.9,76.9,0,0,1-43.79-36.76,69.53,69.53,0,0,1-4.92-55.23c12.58-37.52,54.89-57.29,94.32-44.08a81.5,81.5,0,0,1,7.85,3.1c.83.37,21.88,9.79,32.88,28.43,10.28,17.44,13.71,36.42,9.81,53.87l37.09,24.41-5.49,8.35-43.13-28.38,1-3.53c4.5-15.75,1.69-33.38-7.9-49.64-9.38-15.9-28.16-24.3-28.35-24.38a70.93,70.93,0,0,0-6.94-2.75c-34.2-11.46-70.83,5.49-81.66,37.78A59.63,59.63,0,0,0,31.65,301a66.91,66.91,0,0,0,38.14,32c25.93,8.69,54.54,1.07,71.18-19l2.81-3.38,3.71,2.36c4.42,2.8,10.12,6.43,12.9,8.23,6.2,4,6.06,9.61,4.42,12.54l-7.88,15.17c-1,1.75-1.26,3.21-.9,4.34ZM91.66,315.7a47.94,47.94,0,0,1-15.24-2.51,46.42,46.42,0,0,1-26-21.17,39,39,0,0,1-3.32-31.79c7.18-21.39,32-32.44,55.27-24.62a46.42,46.42,0,0,1,26,21.17,39,39,0,0,1,3.31,31.79C126.08,305.29,109.69,315.7,91.66,315.7Zm-4.53-72.61c-13.82,0-26.29,7.77-30.51,20.32a29.18,29.18,0,0,0,2.56,23.72,36.46,36.46,0,0,0,20.41,16.58c18.08,6.05,37.2-2.16,42.61-18.32h0a29.16,29.16,0,0,0-2.56-23.73,36.45,36.45,0,0,0-20.41-16.57A38.11,38.11,0,0,0,87.13,243.09Z"/><path class="cls-1" d="M84.47,500.72c-32.11,0-61.35-19.93-70.41-50.87a69.52,69.52,0,0,1,7-55A76.89,76.89,0,0,1,66.28,359.8c28.69-8.4,59.59.35,78.33,21.78,3.11-1.81,7.15-4.17,9.44-5.53l.45-.3.1-.09-6.8-14.44c-2.7-5.45-2.09-9.72-1.1-12.35a15.63,15.63,0,0,1,7.83-8.2c4.14-2.55,54.24-33.41,102-62.65h0l41.68-25.44c18.83-11.45,32.58-19.74,40.88-24.63a68.6,68.6,0,0,1,56.48-6.75c15.08,4.68,26.17,13.27,29.23,17.88a11.72,11.72,0,0,1,1.85,9.15c-1.27,5.65-6.53,9-7.12,9.35L160.41,414.13c6.83,36.24-16.2,72.39-53.81,83.4A78.85,78.85,0,0,1,84.47,500.72Zm3.85-134.08a68.46,68.46,0,0,0-19.23,2.76,67,67,0,0,0-39.35,30.48A59.65,59.65,0,0,0,23.65,447c9.57,32.68,45.52,51,80.14,40.89,33.72-9.87,54-42.84,46.13-75.05l-.87-3.56L414.38,249a6.29,6.29,0,0,0,2.54-3c0-.17.13-.58-.43-1.43-1.19-1.79-9.81-9.49-23.85-13.84a58.77,58.77,0,0,0-48.44,5.81c-8.26,4.86-22,13.13-40.76,24.55l-41.67,25.43C212.14,316.92,160,349,159.5,349.36l-.35.21-.38.16h0a5.81,5.81,0,0,0-2.73,2.71c-.4,1.12-.15,2.59.73,4.38l0,.09,7.24,15.37c1.53,3,1.46,8.57-4.89,12.36-3.49,2.07-11,6.44-13.21,7.73l-3.8,2.21-2.68-3.49C127.47,375.44,108.31,366.64,88.32,366.64ZM84.41,469.88c-18.74,0-35.63-11.19-40.76-28.69a39,39,0,0,1,4.54-31.64A46.42,46.42,0,0,1,75,389.4c23.59-6.9,47.94,5.09,54.27,26.73a39,39,0,0,1-4.54,31.64,46.37,46.37,0,0,1-26.75,20.15A47.86,47.86,0,0,1,84.41,469.88Zm4.08-72.44A38,38,0,0,0,77.75,399a36.44,36.44,0,0,0-21,15.77,29.15,29.15,0,0,0-3.47,23.61c4.8,16.36,23.58,25.3,41.87,19.95h0a36.43,36.43,0,0,0,21-15.78,29.1,29.1,0,0,0,3.47-23.61C115.78,405.8,102.89,397.44,88.49,397.44Z"/><path class="cls-1" d="M195.71,359.25a5,5,0,0,1-2.51-9.33l2.6-1.5a5,5,0,1,1,5,8.66l-2.6,1.5A5,5,0,0,1,195.71,359.25Z"/><path class="cls-1" d="M479,360h-7a5,5,0,0,1,0-10h7a5,5,0,0,1,0,10Zm-27,0h-7a5,5,0,0,1,0-10h7a5,5,0,0,1,0,10Zm-27,0h-7a5,5,0,0,1,0-10h7a5,5,0,0,1,0,10Zm-27,0h-7a5,5,0,0,1,0-10h7a5,5,0,0,1,0,10Zm-27,0h-7a5,5,0,0,1,0-10h7a5,5,0,0,1,0,10Zm-27,0h-7a5,5,0,0,1,0-10h7a5,5,0,0,1,0,10Zm-27,0h-7a5,5,0,0,1,0-10h7a5,5,0,0,1,0,10Zm-27,0h-7a5,5,0,0,1,0-10h7a5,5,0,0,1,0,10Z"/></g><g id="Outline"><path class="cls-1" d="M330.33,106H192a5,5,0,0,1,0-10H330.33a5,5,0,0,1,0,10Z"/><path class="cls-1" d="M330.33,154H192a5,5,0,0,1,0-10H330.33a5,5,0,0,1,0,10Z"/><path class="cls-1" d="M432,199H193a5,5,0,0,1,0-10H432a5,5,0,0,1,0,10Z"/><path class="cls-1" d="M271,247H193a5,5,0,0,1,0-10h78a5,5,0,0,1,0,10Z"/><path class="cls-1" d="M209,292H192a5,5,0,0,1,0-10h17a5,5,0,0,1,0,10Z"/><path class="cls-1" d="M432,292H415a5,5,0,0,1,0-10h17a5,5,0,0,1,0,10Z"/></g></svg>