<?xml version="1.0" ?><svg viewBox="0 0 512 512" xmlns="http://www.w3.org/2000/svg"><defs><style>.cls-1{fill:#3f456b;}</style></defs><title/><g id="Lines"><path class="cls-1" d="M295.52,437a5,5,0,0,1-4.93-4.18,82,82,0,0,1-1.09-13.28c0-44.39,37-80.5,82.5-80.5a5,5,0,0,1,0,10c-40,0-72.5,31.63-72.5,70.5a70.77,70.77,0,0,0,1,11.64,5,5,0,0,1-4.12,5.75A4.54,4.54,0,0,1,295.52,437Z"/><path class="cls-1" d="M369.5,500.5a5,5,0,0,1,0-10,69,69,0,0,0,49.47-21,71,71,0,0,0,20.53-50,5,5,0,0,1,10,0,81,81,0,0,1-23.4,57A78.84,78.84,0,0,1,369.5,500.5Z"/><path class="cls-1" d="M336,424H320a5,5,0,0,1,0-10h16a5,5,0,0,1,0,10Z"/><path class="cls-1" d="M419,424H405a5,5,0,0,1,0-10h14a5,5,0,0,1,0,10Z"/><path class="cls-1" d="M273,436a5,5,0,0,1-5-5V345a5,5,0,0,1,10,0v86A5,5,0,0,1,273,436Z"/><path class="cls-1" d="M465,389.62a5,5,0,0,1-5-5V344.78a5,5,0,0,1,10,0v39.84A5,5,0,0,1,465,389.62Z"/><path class="cls-1" d="M465,501a5,5,0,0,1-5-5V438a5,5,0,0,1,10,0v58A5,5,0,0,1,465,501Z"/><path class="cls-1" d="M497,501H368a5,5,0,0,1,0-10H492V349H422.5a5,5,0,0,1,0-10H497a5,5,0,0,1,5,5V496A5,5,0,0,1,497,501Z"/><path class="cls-1" d="M241,437a5,5,0,0,1-5-5V344a5,5,0,0,1,5-5H374.12a5,5,0,0,1,0,10H246v83A5,5,0,0,1,241,437Z"/><path class="cls-1" d="M336,448a5,5,0,0,1-5-5V344a5,5,0,0,1,10,0v99A5,5,0,0,1,336,448Z"/><path class="cls-1" d="M404,501a5,5,0,0,1-5-5V375a5,5,0,0,1,10,0V496A5,5,0,0,1,404,501Z"/><path class="cls-1" d="M226.88,295.32a5,5,0,0,1-3.53-1.47L110.21,180.72a5,5,0,0,1,0-7.07L224.06,59.8a5,5,0,0,1,7.07,0L344.26,172.94a5,5,0,0,1,0,7.07L230.42,293.85A5,5,0,0,1,226.88,295.32ZM120.82,177.18,226.88,283.25,333.66,176.47,227.59,70.41Z"/><path class="cls-1" d="M372.41,161.55a20.15,20.15,0,0,1-14.36-5.94L248.45,46a20.15,20.15,0,0,1-5.94-14.62,21.49,21.49,0,0,1,21-21,20.13,20.13,0,0,1,14.63,5.94l109.6,109.6a20.15,20.15,0,0,1,5.94,14.62,21.14,21.14,0,0,1-6.29,14.72h0a21.13,21.13,0,0,1-14.72,6.29ZM263.79,20.38h-.14a11.51,11.51,0,0,0-11.14,11.14,10.22,10.22,0,0,0,3,7.42l109.6,109.6a10.24,10.24,0,0,0,7.43,3,11.19,11.19,0,0,0,7.78-3.36h0a11.19,11.19,0,0,0,3.36-7.77,10.19,10.19,0,0,0-3-7.43L271.08,23.39A10.22,10.22,0,0,0,263.79,20.38Z"/><path class="cls-1" d="M191.38,342.53a20.18,20.18,0,0,1-14.35-5.9L67.43,227a20.15,20.15,0,0,1-5.94-14.62,21.49,21.49,0,0,1,21-21,20.15,20.15,0,0,1,14.63,5.93l109.6,109.61a20.77,20.77,0,0,1-.35,29.34A21.19,21.19,0,0,1,191.38,342.53ZM82.77,201.4h-.14a11.51,11.51,0,0,0-11.14,11.14,10.26,10.26,0,0,0,3,7.42l109.6,109.6c4.17,4.17,10.84,4,15.21-.35s4.51-11,.35-15.2L90.06,204.41A10.22,10.22,0,0,0,82.77,201.4Z"/><path class="cls-1" d="M228.46,68.7h-.59a5,5,0,1,1,.15-10C244.61,59,245.53,42.81,245.57,41a5,5,0,0,1,10,.18,34,34,0,0,1-3.49,13.62C248.86,61.15,242.16,68.7,228.46,68.7Z"/><path class="cls-1" d="M340.45,181.2a5,5,0,0,1-5-4.92c-.22-14.1,7.46-20.95,13.93-24.21a33.91,33.91,0,0,1,13.62-3.5h.08a5,5,0,0,1,.1,10c-1.87.05-18,.94-17.73,17.55a5,5,0,0,1-4.92,5.08Z"/><path class="cls-1" d="M92.7,204.46h-.6a5,5,0,1,1,.16-10c7.27.12,12.2-2.65,15.12-8.44a24.48,24.48,0,0,0,2.43-9.27,5,5,0,0,1,5-4.92h.07a5,5,0,0,1,4.93,5.08,33.85,33.85,0,0,1-3.5,13.61C113.09,196.91,106.39,204.46,92.7,204.46Z"/><path class="cls-1" d="M205.91,319.15a5,5,0,0,1-5-4.92c-.42-26.69,25.35-28.88,25.61-28.9a5,5,0,0,1,.75,10c-1.71.15-16.63,1.91-16.36,18.77a5,5,0,0,1-4.92,5.08Z"/><path class="cls-1" d="M477.2,447.24a24,24,0,0,1-17-7l-.08-.08L291.28,264A5,5,0,1,1,298.5,257L467.33,433.19a14,14,0,0,0,19.81-19.8L310.58,244.49a5,5,0,0,1,6.92-7.23l176.59,169,.08.07a24,24,0,0,1-17,41Z"/><path class="cls-1" d="M276.38,277a15,15,0,0,1-10.61-4.39L255.17,262a5,5,0,0,1,7.07-7.07l10.61,10.61a5,5,0,0,0,7.07,0l39.6-39.6a5,5,0,0,0,0-7.07l-10.6-10.61a5,5,0,0,1,7.07-7.07l10.61,10.61a15,15,0,0,1,0,21.21L287,272.64A15,15,0,0,1,276.38,277Z"/><path class="cls-1" d="M368,501H17a5,5,0,0,1-5-5V480a1.69,1.69,0,0,1,0-.23A21.14,21.14,0,0,1,33,459H352a21,21,0,0,1,20.75,21.21l.25,15.71a5,5,0,0,1-5,5.08ZM22,491H362.92l-.17-10.67v-.08A11,11,0,0,0,352,469H33a11.28,11.28,0,0,0-11,11.25Zm350.75-10.75h0Z"/><path class="cls-1" d="M337,469H50a5,5,0,0,1-5-5V448a1.69,1.69,0,0,1,0-.23A21.14,21.14,0,0,1,66,427H321a21,21,0,0,1,20.75,21.21l.25,15.71a5,5,0,0,1-5,5.08ZM55,459H331.92l-.17-10.67v-.08A11,11,0,0,0,321,437H66a11.28,11.28,0,0,0-11,11.25Zm286.75-10.75h0Z"/></g><g id="Outline"><path class="cls-1" d="M175.71,411.06a5,5,0,0,1-2.52-9.32l14.4-8.38a5,5,0,1,1,5,8.64l-14.4,8.38A5,5,0,0,1,175.71,411.06Z"/><path class="cls-1" d="M155,391.34a5,5,0,0,1-4.34-7.48l8.6-15a5,5,0,0,1,8.68,5l-8.6,15A5,5,0,0,1,155,391.34Z"/><path class="cls-1" d="M127.68,384.38a5,5,0,0,1-5-5L122.59,362a5,5,0,0,1,5-5h0a5,5,0,0,1,5,5l.09,17.38a5,5,0,0,1-5,5Z"/><path class="cls-1" d="M100.31,392A5,5,0,0,1,96,389.53l-9-15.45a5,5,0,0,1,8.64-5l9,15.45a5,5,0,0,1-4.32,7.52Z"/><path class="cls-1" d="M80.58,412.06a5.09,5.09,0,0,1-2.48-.66l-15.63-9a5,5,0,0,1,5-8.68l15.63,9a5,5,0,0,1-2.49,9.34Z"/><path class="cls-1" d="M229.68,222a5,5,0,0,1-5-5V135.78a5,5,0,0,1,10,0V217A5,5,0,0,1,229.68,222Z"/><path class="cls-1" d="M270.29,181.39H189.08a5,5,0,0,1,0-10h81.21a5,5,0,0,1,0,10Z"/><path class="cls-1" d="M193,469a5,5,0,0,1-5-5V450a5,5,0,0,1,10,0v14A5,5,0,0,1,193,469Z"/><path class="cls-1" d="M230,469a5,5,0,0,1-5-5V450a5,5,0,0,1,10,0v14A5,5,0,0,1,230,469Z"/><path class="cls-1" d="M157,469a5,5,0,0,1-5-5V450a5,5,0,0,1,10,0v14A5,5,0,0,1,157,469Z"/><path class="cls-1" d="M83,469a5,5,0,0,1-5-5V450a5,5,0,0,1,10,0v14A5,5,0,0,1,83,469Z"/><path class="cls-1" d="M304,469a5,5,0,0,1-5-5V450a5,5,0,0,1,10,0v14A5,5,0,0,1,304,469Z"/><path class="cls-1" d="M267,469a5,5,0,0,1-5-5V450a5,5,0,0,1,10,0v14A5,5,0,0,1,267,469Z"/><path class="cls-1" d="M120,469a5,5,0,0,1-5-5V450a5,5,0,0,1,10,0v14A5,5,0,0,1,120,469Z"/></g></svg>