<?xml version="1.0" ?><svg viewBox="0 0 512 512" xmlns="http://www.w3.org/2000/svg"><defs><style>.cls-1{fill:#3f456b;}</style></defs><title/><g id="Lines"><path class="cls-1" d="M297.48,345.68c-29.78,0-50.45-13.86-63.31-26.89a114.21,114.21,0,0,1-24.26-36.92c-12.65-31.86-10.49-68,6.26-104.58a200.21,200.21,0,0,1,27.23-43.52l-7.7-19.36a15.68,15.68,0,0,1-.79-11.78c1-2.77,3.49-6.58,9.58-9l89.76-35.7c1-.4,6.64-2.54,12.34-.16a14.79,14.79,0,0,1,8,8.7c2.27,5.76,6.26,15.6,8.2,20.39a197.76,197.76,0,0,1,49.51,12.78c37.17,15,63.52,39.69,76.21,71.55a113.46,113.46,0,0,1,7.8,43.38c-.44,22.45-8.61,53.92-45,76.28a5,5,0,0,1-.77.38L320.23,343.07a4.84,4.84,0,0,1-.82.25A107,107,0,0,1,297.48,345.68Zm43.4-279a9.08,9.08,0,0,0-2.77.49l-.12,0-89.8,35.72c-2.11.84-3.41,1.88-3.87,3.1a5.92,5.92,0,0,0,.38,4,3.82,3.82,0,0,1,.21.46l8.9,22.38a5,5,0,0,1-.95,5.22,187.35,187.35,0,0,0-27.72,43.59c-15.7,34.43-17.69,66.91-5.91,96.53,0,0,0,.09.05.13A105.59,105.59,0,0,0,241.53,312c20.32,20.44,45.68,27.71,75.41,21.61L446.46,282.1c25.79-16,39.21-38.64,39.89-67.38a105,105,0,0,0-7-39.63l-.06-.14c-11.78-29.62-35.46-51.8-70.4-65.93A185.65,185.65,0,0,0,359,96.53a5,5,0,0,1-4.27-3.1c-.07-.16-6.29-15.45-9.38-23.29-1-2.47-2.19-3-2.6-3.15A4.92,4.92,0,0,0,340.88,66.66ZM448.71,286.58h0Z"/><path class="cls-1" d="M249.24,139.92a5,5,0,0,1-1.85-9.65l109-43.34A5,5,0,0,1,360,96.22l-109,43.34A5,5,0,0,1,249.24,139.92Z"/><path class="cls-1" d="M253.53,99.82h-.07c-1.21,0-29.82-.56-47.73-15.09l-.23-.2c-.54-.5-5.25-5-4.09-11,.82-4.2,4.16-7.44,9.94-9.61,12.51-4.69,111-31.35,115.21-32.48,5-1.36,11.43-.08,13.82,5.93l.35.86c1.91,4.7,5.47,13.46,1,25.14a5,5,0,0,1-9.33-3.6c3.08-8,.78-13.64-.9-17.77l-.37-.93a4.55,4.55,0,0,0-1.91,0c-1,.28-102.25,27.66-114.31,32.19-3.15,1.19-3.65,2.19-3.66,2.2a4.52,4.52,0,0,0,1,1.57c15.21,12.2,41.15,12.72,41.41,12.73a5,5,0,0,1-.07,10Z"/><path class="cls-1" d="M489.15,144.07c-5.53,0-9.76-4.38-11.6-8.14L434.08,61.17c-1-1.57-4.93-6.56-12.72-1.81-15.72,9.59-59.2,35.74-59.64,36a5,5,0,1,1-5.15-8.57c.44-.27,43.89-26.4,59.58-36,5.27-3.22,10.45-4.22,15.39-3a19.11,19.11,0,0,1,11.17,8.28l43.59,75a3,3,0,0,1,.21.4h0s1.55,3.12,3.22,2.44a4.08,4.08,0,0,0,2.24-1.63,2.45,2.45,0,0,0-.19-1.56,2.74,2.74,0,0,1-.27-.57L452.31,31.6c-1.81-4.55-4.46-7.43-8.1-8.8-8.09-3-18.61,2.17-18.71,2.22l-.09.05-82.57,40.3a5,5,0,0,1-4.38-9L421,16.1c1.13-.57,14.69-7.18,26.74-2.66,6.34,2.38,11,7.25,13.88,14.47l39.12,98.34a12.47,12.47,0,0,1,.71,9.3c-.81,2.33-2.84,5.55-7.92,7.62A11.31,11.31,0,0,1,489.15,144.07Z"/><path class="cls-1" d="M392.68,103.14a5,5,0,0,1-4.24-7.64c4.25-6.85.46-18-1.35-21.75a5,5,0,0,1,9-4.42c.37.75,8.93,18.45.88,31.44A5,5,0,0,1,392.68,103.14Z"/><path class="cls-1" d="M423.24,207a257.69,257.69,0,0,1-72.49-10.68c-64.51-18.88-133-.18-133.7,0a5,5,0,1,1-2.69-9.63c2.9-.82,71.87-19.69,139.2,0,72.23,21.14,123.71,3.82,133.3.13a5,5,0,0,1,3.59,9.34C484,198.65,459.6,207,423.24,207Z"/><path class="cls-1" d="M208.63,500.5h-176c-6.16,0-11.35-2.17-15-6.28-7.48-8.41-6.14-21.83-6-23.34a5,5,0,0,1,5-4.41h48a5,5,0,0,1,0,10H21.54c.2,3.64,1.06,8.28,3.6,11.13,1.75,1.95,4.2,2.9,7.51,2.9h176c3.31,0,5.77-.95,7.51-2.9,2.55-2.85,3.41-7.49,3.6-11.13H176.65a5,5,0,1,1,0-10h48a5,5,0,0,1,5,4.41c.17,1.51,1.51,14.93-6,23.34C220,498.33,214.79,500.5,208.63,500.5Z"/><path class="cls-1" d="M480.5,500.5H274.27c-6.16,0-11.35-2.17-15-6.28-7.48-8.41-6.14-21.83-6-23.34a5,5,0,0,1,5-4.41h48a5,5,0,0,1,0,10H263.16c.2,3.64,1.06,8.28,3.6,11.12,1.75,2,4.21,2.91,7.51,2.91H480.5c3.32,0,5.78-1,7.53-2.92,2.52-2.84,3.38-7.5,3.58-11.11H445.52a5,5,0,0,1,0-10h51a5,5,0,0,1,5,4.41c.17,1.51,1.51,14.93-6,23.34C491.85,498.33,486.66,500.5,480.5,500.5Z"/><path class="cls-1" d="M176.54,476.47H64.63A5,5,0,0,1,60.29,474c-26.22-45.83-25.95-107.12-25.9-111.36-.06-1.86-.23-15.36,8.26-24.31,4.89-5.16,11.53-7.78,19.74-7.78h115c10.18,0,29.43,6.69,29.43,32,0,2.56.69,65-25.9,111.43A5,5,0,0,1,176.54,476.47Zm-109-10h106c23.78-43.86,23.19-103.26,23.18-103.87,0-9.33-3.24-15.81-9.63-19.35a23,23,0,0,0-9.8-2.75h-115c-5.41,0-9.48,1.51-12.45,4.62-6,6.27-5.56,17.05-5.55,17.16v.32C44.38,363.21,43.79,422.61,67.57,466.47Z"/><path class="cls-1" d="M205.73,445.52l-1.1,0H190.76a5,5,0,0,1,0-10h14.31c.1,0,11.74.55,19.46-6.75,4.8-4.54,7.23-11.36,7.23-20.26,0-9.59-2.6-16.69-7.73-21.11-8.51-7.33-21.65-5.47-21.78-5.45a5,5,0,0,1-1.53-9.88c.72-.11,17.71-2.62,29.77,7.7,7.48,6.4,11.27,16.07,11.27,28.74,0,11.81-3.51,21.09-10.44,27.6C222.09,444.77,209.73,445.52,205.73,445.52Z"/><path class="cls-1" d="M460.65,476.5h-164a35,35,0,0,1-35-35v-4a35,35,0,0,1,35-35h164a35,35,0,0,1,35,35v4A35,35,0,0,1,460.65,476.5Zm-164-64a25,25,0,0,0-25,25v4a25,25,0,0,0,25,25h164a25,25,0,0,0,25-25v-4a25,25,0,0,0-25-25Z"/></g><g id="Outline"><path class="cls-1" d="M159.26,319.17a5,5,0,0,1-2.74-9.19,10.63,10.63,0,0,0,3.49-6.6c.52-3.88-1.13-8-4.88-12.33-12.06-13.79-4.8-27.11.73-32.22a5,5,0,0,1,6.81,7.32c-1.47,1.41-8.3,8.84,0,18.32,7.18,8.21,7.91,15.58,7.26,20.32-.87,6.33-4.71,11.46-7.92,13.56A5,5,0,0,1,159.26,319.17Z"/><path class="cls-1" d="M114.32,319.17a5,5,0,0,1-2.74-9.19,10.67,10.67,0,0,0,3.5-6.6c.51-3.88-1.13-8-4.89-12.33-12.06-13.79-4.79-27.11.73-32.22a5,5,0,0,1,6.82,7.32c-1.47,1.4-8.31,8.84,0,18.32,7.18,8.21,7.91,15.58,7.26,20.32-.87,6.33-4.72,11.47-7.92,13.56A5,5,0,0,1,114.32,319.17Z"/><path class="cls-1" d="M69.39,319.17A5,5,0,0,1,66.65,310a10.63,10.63,0,0,0,3.49-6.6c.52-3.88-1.13-8-4.89-12.33-12-13.79-4.79-27.11.74-32.22a5,5,0,0,1,6.81,7.32c-1.47,1.41-8.3,8.84,0,18.32,7.18,8.21,7.91,15.58,7.26,20.32-.87,6.33-4.71,11.46-7.92,13.56A5,5,0,0,1,69.39,319.17Z"/></g></svg>