<?xml version="1.0" ?><svg viewBox="0 0 512 512" xmlns="http://www.w3.org/2000/svg"><defs><style>.cls-1{fill:#3f456b;}</style></defs><title/><g id="Lines"><path class="cls-1" d="M96,500.5a5,5,0,0,1-5-5c0-33-4.13-54.36-7.58-66.48-3.74-13.09-7.52-18.47-7.55-18.52a5,5,0,0,1,8.06-5.91c.7.94,17.07,23.87,17.07,90.91A5,5,0,0,1,96,500.5Z"/><path class="cls-1" d="M127.71,500.5a5,5,0,0,1-5-5c0-67,16.36-90,17.06-90.91a5,5,0,0,1,8.07,5.91c-.11.14-3.85,5.55-7.55,18.52-3.46,12.12-7.58,33.49-7.58,66.48A5,5,0,0,1,127.71,500.5Z"/><path class="cls-1" d="M371.29,500.5H16.5a5,5,0,0,1,0-10H371.29a5,5,0,0,1,0,10Z"/><path class="cls-1" d="M111.59,418.51a92.43,92.43,0,0,1-22.74-2.85,92,92,0,1,1,111.74-66.58h0a92.08,92.08,0,0,1-89,69.43Zm-.3-174A82.09,82.09,0,1,0,131.56,247,82.6,82.6,0,0,0,111.29,244.49Zm84.45,103.36h0Z"/><path class="cls-1" d="M258.67,302.21a66.86,66.86,0,0,1-13.62-1.4c-30.56-6.4-48.73-32.57-58.59-53.44-.9-1.77-12.22-24.79-12.8-56.62-.25-13.66,3.89-24.91,12.3-33.42,12.62-12.77,34.83-19.12,66-19,29.45.18,156.11-2.33,157.39-2.36h.27c2.07.06,20.52-.16,22.23-22.84,0-.13,0-.25.05-.37l2.91-19.46v0c2-13.19,7.79-19.61,12.25-22.67A19.46,19.46,0,0,1,457.52,67a4.14,4.14,0,0,1,.7.06l29.91,4.45A14.11,14.11,0,0,1,498,77.66c5.62,8.24,3,21.77,2.47,24.22l-8.18,60.61-.5,3.32c-4.92,51.69-58.6,71.78-62.08,73L278.4,299.09A59.17,59.17,0,0,1,258.67,302.21ZM250.6,148.37c-27.68,0-47,5.38-57.53,16-6.53,6.61-9.61,15.19-9.41,26.21.55,30.14,11.62,52.1,11.74,52.32a1,1,0,0,0,.07.15c30.38,64.33,77.31,47.48,79.29,46.73l151.3-60.26.18-.07c.51-.18,51.27-18.74,55.57-64.7l0-.27.51-3.39,8.2-60.75a3.4,3.4,0,0,1,.09-.46c1-4.41,1.63-12.83-.94-16.59a4.06,4.06,0,0,0-3.05-1.83l-29.41-4.39c-1.49.17-10,1.82-12.51,17.77l-2.89,19.28C439.4,145,412.56,146,409.57,146c-1.75,0-128.13,2.54-157.64,2.36Z"/><path class="cls-1" d="M487,81.45a5.49,5.49,0,0,1-.7,0,5,5,0,0,1-4.26-5.64l7.17-51.46-19.66-2.74-7.13,51.17a5,5,0,1,1-9.9-1.38l7.81-56.12A5,5,0,0,1,466,11l29.56,4.12a5,5,0,0,1,4.26,5.64L492,77.14A5,5,0,0,1,487,81.45Z"/></g><g id="Outline"><path class="cls-1" d="M161,312.4h-1a5,5,0,0,1,0-10h1a5,5,0,0,1,0,10Z"/><path class="cls-1" d="M177.71,347.88h-1.05a5,5,0,1,1,0-10h1.05a5,5,0,1,1,0,10Z"/><path class="cls-1" d="M161,383.35h-1a5,5,0,0,1,0-10h1a5,5,0,0,1,0,10Z"/><path class="cls-1" d="M145.44,276.92h-1a5,5,0,0,1,0-10h1a5,5,0,0,1,0,10Z"/><path class="cls-1" d="M128.75,312.4h-1a5,5,0,1,1,0-10h1a5,5,0,0,1,0,10Z"/><path class="cls-1" d="M145.44,347.88h-1a5,5,0,1,1,0-10h1a5,5,0,0,1,0,10Z"/><path class="cls-1" d="M128.75,383.35h-1a5,5,0,1,1,0-10h1a5,5,0,0,1,0,10Z"/><path class="cls-1" d="M113.18,276.92h-1a5,5,0,1,1,0-10h1a5,5,0,0,1,0,10Z"/><path class="cls-1" d="M96.49,312.4h-1a5,5,0,1,1,0-10h1a5,5,0,1,1,0,10Z"/><path class="cls-1" d="M113.18,347.88h-1a5,5,0,1,1,0-10h1a5,5,0,0,1,0,10Z"/><path class="cls-1" d="M96.49,383.35h-1a5,5,0,1,1,0-10h1a5,5,0,1,1,0,10Z"/><path class="cls-1" d="M80.92,276.92h-1a5,5,0,0,1,0-10h1a5,5,0,1,1,0,10Z"/><path class="cls-1" d="M64.23,312.4h-1a5,5,0,0,1,0-10h1a5,5,0,1,1,0,10Z"/><path class="cls-1" d="M80.92,347.88h-1a5,5,0,0,1,0-10h1a5,5,0,1,1,0,10Z"/><path class="cls-1" d="M64.23,383.35h-1a5,5,0,0,1,0-10h1a5,5,0,1,1,0,10Z"/><path class="cls-1" d="M48.66,347.88h-1a5,5,0,0,1,0-10h1a5,5,0,0,1,0,10Z"/><path class="cls-1" d="M184.64,216.49a5,5,0,0,1-1.8-9.66l91.5-35.23a5,5,0,0,1,3.59,9.34l-91.49,35.22A4.94,4.94,0,0,1,184.64,216.49Z"/><path class="cls-1" d="M192.92,255.72a5,5,0,0,1-1.9-9.63L354.6,179a5,5,0,0,1,3.8,9.25L194.81,255.34A4.87,4.87,0,0,1,192.92,255.72Z"/><path class="cls-1" d="M218.29,286.1a5,5,0,0,1-1.88-9.64L398,203a5,5,0,0,1,3.75,9.27L220.16,285.73A5,5,0,0,1,218.29,286.1Z"/><path class="cls-1" d="M187.12,143a5,5,0,0,1-5-4.73L180.33,105a5,5,0,0,1,10-.54l1.81,33.31a5,5,0,0,1-4.73,5.26Z"/><path class="cls-1" d="M202.46,426.43a5,5,0,0,1-5-4.73l-1.81-33.3a5,5,0,1,1,10-.55l1.8,33.31a5,5,0,0,1-4.72,5.26Z"/><path class="cls-1" d="M100.67,184.41a5,5,0,0,1-3.34-1.28L72.5,160.85a5,5,0,1,1,6.68-7.44L104,175.69a5,5,0,0,1-3.34,8.72Z"/><path class="cls-1" d="M311.94,374a5,5,0,0,1-3.34-1.28l-24.82-22.27a5,5,0,0,1,6.68-7.45l24.82,22.28a5,5,0,0,1-3.34,8.72Z"/><path class="cls-1" d="M140.39,155.41a5,5,0,0,1-4.53-2.87l-8.31-17.6a5,5,0,1,1,9-4.27l8.31,17.6a5,5,0,0,1-2.39,6.66A4.93,4.93,0,0,1,140.39,155.41Z"/><path class="cls-1" d="M255.84,400a5,5,0,0,1-4.52-2.87l-9.1-19.25a5,5,0,1,1,9.05-4.27l9.09,19.25A5,5,0,0,1,258,399.5,4.9,4.9,0,0,1,255.84,400Z"/><path class="cls-1" d="M75.64,226.13a5,5,0,0,1-1.69-.3l-18.33-6.57A5,5,0,0,1,59,209.85l18.33,6.57a5,5,0,0,1-1.69,9.71Z"/><path class="cls-1" d="M330.21,317.43a5,5,0,0,1-1.69-.3l-20-7.19a5,5,0,1,1,3.38-9.41l20,7.19a5,5,0,0,1-1.69,9.71Z"/></g></svg>