<?xml version="1.0" ?><svg viewBox="0 0 512 512" xmlns="http://www.w3.org/2000/svg"><defs><style>.cls-1{fill:#3f456b;}</style></defs><title/><g id="Lines"><path class="cls-1" d="M318,340a5.12,5.12,0,0,1-1.44-.21c-28.46-8.54-46.59-27.84-53.87-57.36-5.67-23-3-46.66-.95-58.72.8-4.66.18-8.1-1.86-10.23-3.55-3.72-11.2-3.71-13.59-3.41a5.57,5.57,0,0,1-1,0c-80.65-6-139.19-30.34-174-72.25-38-45.79-33-95.31-32.82-97.4a5,5,0,0,1,5-4.45h.09c46.19.82,96.22,17.68,130.06,31.69a578.29,578.29,0,0,1,62.93,30.43l.1.07c43.53,26.84,65.64,20.56,65.86,20.49a4.4,4.4,0,0,1,1-.21c17.62-1.76,30.52-12.23,43-22.35,8.32-6.76,16.19-13.14,25.15-16.75,23.49-9.48,43.9-7.37,59,6.1l1.16,1c3.32,3,6.19,5.55,9.84,7.33a57.48,57.48,0,0,0,9.43,3.56c9.77,2.78,21.11,3.66,33.7,2.62q1.13-.09,2.25-.21a5,5,0,0,1,1.48,9.88,210.77,210.77,0,0,0-24.1,6.38c-16.49,5.4-27.48,16.59-40.14,30.66A251.7,251.7,0,0,0,374.34,229c-8.54,23.42-20.23,55.5-50.15,63.66-1.57.43-3.18.78-4.82,1.07-3,11.61,1.33,32.41,3.41,40A5,5,0,0,1,318,340ZM248.69,200c4.76,0,12.95.93,18.39,6.63,4.34,4.54,5.84,10.88,4.47,18.83-4.22,24.5-8.26,81.43,39.45,101.77-1.77-8.76-3.7-22-2-32.65a72.16,72.16,0,0,1-7.93-.45,5,5,0,0,1,1.09-9.94,58.24,58.24,0,0,0,12.21.13,4.51,4.51,0,0,1,1.37-.16,42.36,42.36,0,0,0,5.81-1.15c24.93-6.8,35.6-36.07,43.39-57.44,11.3-31,28.76-59.78,51.87-85.49,6.25-6.94,12.44-13.65,19.58-19.51a78.76,78.76,0,0,1,19.16-11.81q-3.72-.7-7.23-1.71a67.12,67.12,0,0,1-11.08-4.18c-4.9-2.39-8.57-5.69-12.12-8.87l-1.14-1c-8.44-7.51-23.72-14.35-48.64-4.29-7.57,3-14.87,9-22.59,15.25-12.89,10.46-27.49,22.3-47.86,24.48-4.3,1.13-29.06,5.76-73.51-21.64-2.66-1.53-99.48-57.06-183.23-60.59a133.59,133.59,0,0,0,30.92,85.48c33,39.57,89,62.61,166.47,68.47C246.2,200,247.3,200,248.69,200Z"/><path class="cls-1" d="M202.69,204.77a5,5,0,0,1-3.73-8.33c.56-.62,13.82-15.26,34.43-21a5,5,0,0,1,2.7,9.63c-17.84,5-29.56,17.93-29.67,18.06A5,5,0,0,1,202.69,204.77Z"/><path class="cls-1" d="M353.8,410a111.69,111.69,0,0,1-37-6.28,104.35,104.35,0,0,1-56.07-46c-24.4-42.3-1-89.59,0-91.59a5,5,0,0,1,8.92,4.51c-.24.48-21.88,44.55-.23,82.08a94.44,94.44,0,0,0,50.72,41.56,101.79,101.79,0,0,0,65.91.46,142,142,0,0,0,18.81-7.57c15.66-7.87,28.87-22.44,35.51-38.85a194.4,194.4,0,0,1-38.5-11.45c-31.55-13.15-53.76-33.23-64.21-58.07a5,5,0,0,1,9.22-3.88c22.9,54.44,100,64.36,100.81,64.45a5,5,0,0,1,4.18,6.43,85.44,85.44,0,0,1-42.52,50.3,156.12,156.12,0,0,1-20.1,8.12A111.06,111.06,0,0,1,353.8,410Z"/><path class="cls-1" d="M213.9,258.43c-39.21,0-69.83-8.81-90.72-17.68-31.92-13.56-48.41-29.86-49.09-30.55a5,5,0,0,1,.58-7.57c32.75-24,65.2-25.48,66.56-25.54a5,5,0,0,1,.4,10c-.39,0-27.55,1.41-55.9,20,6.73,5.51,20.84,15.76,41.84,24.61,27.93,11.78,74.16,23.42,135.78,12a5,5,0,0,1,1.82,9.83A281.34,281.34,0,0,1,213.9,258.43Z"/><path class="cls-1" d="M405,111.54h-.22l-2.35-.1a5,5,0,0,1,.44-10l2.35.11a5,5,0,0,1-.22,10Z"/><path class="cls-1" d="M265.07,193h-.15c-32.43-1-60.78-22.66-82-62.6a254.83,254.83,0,0,1-22.19-59.49,5,5,0,0,1,9.78-2.1c.24,1.13,24.83,112,94.7,114.19a5,5,0,0,1-.16,10Z"/><path class="cls-1" d="M287,259.39a26.84,26.84,0,0,1-17.53-6.06c-5.39-4.56-8.54-11.14-9.1-19a5,5,0,0,1,10-.7c.36,5.12,2.29,9.3,5.58,12.08s8,4.1,13.3,3.59c18.34-1.78,27.31-18.64,36-34.95l1-1.91c1.85-3.46,3.69-7,5.47-10.5,7.48-14.53,15.22-29.55,26.35-42.35,24.82-28.54,56.4-44.76,88.93-45.68h.15a5,5,0,0,1,.13,10c-29.27.83-59,16.23-81.66,42.25-10.35,11.89-17.8,26.37-25,40.37-1.8,3.49-3.66,7.1-5.54,10.63L334,219c-9,16.89-20.16,37.92-43.84,40.21A31.6,31.6,0,0,1,287,259.39Z"/><path class="cls-1" d="M148,499a5,5,0,0,1-3.78-1.74C142.68,495.48,107,452,117,303.66a5,5,0,0,1,10,.68c-2.79,41.34-3.54,100.52,8.77,147.65,7.34,28.11,16,38.68,16.06,38.78A5,5,0,0,1,148,499Z"/><path class="cls-1" d="M120.77,309a13.92,13.92,0,0,1-9.26-3.71c-4.32-3.95-6.51-10.44-6.51-19.3,0-18.69,11.52-24.52,17.62-25A17,17,0,0,1,135,265.78c4.38,4.29,6.38,10.84,6,19.47-1.05,21-9.85,23.83-19.21,23.75h-1Zm0-10h1.09c2.7,0,4.4,0,5.59-1.07s3.1-4,3.56-13.18c.27-5.49-.72-9.55-2.88-11.74a7.14,7.14,0,0,0-4.79-2c-1,.14-8.34,1.63-8.34,15,0,5.61,1.1,9.79,3.1,11.77a4,4,0,0,0,2.53,1.24Zm2.52-28h0Zm.1,0h0Z"/><path class="cls-1" d="M149.51,339.39c-4.87,0-8.65-2.66-12-5.95L137,333a13.79,13.79,0,0,1-4.34-9.31c-.38-5.84,2.54-12,8.68-18.42,12.95-13.48,25.3-9.69,30-5.8a17,17,0,0,1,5.65,12c.18,6.13-2.91,12.24-9.21,18.16C160.2,336.79,154.32,339.39,149.51,339.39Zm-5.92-13.95a1.43,1.43,0,0,1,.27.25l.62.59c1.92,1.88,3.18,3,4.78,3.11s5-.76,11.69-7c4-3.77,6.1-7.38,6.06-10.45a7,7,0,0,0-2-4.78c-.81-.59-7.13-4.61-16.41,5-3.89,4-6,7.82-5.92,10.63A4,4,0,0,0,143.59,325.44Zm-.07-.05ZM165,307.14h0Zm-.09-.07h0Z"/><path class="cls-1" d="M90.16,342c-7.14,0-14.94-4.27-23.2-12.7a77.66,77.66,0,0,1-10.79-13.14c-3.24-5.26-4-10.95-2.17-15.61a17.41,17.41,0,0,1,5-7.22h0c7.5-6.11,19.4-2.73,31.84,9,8.59,8.13,13.2,16.12,13.7,23.75.41,6.32-2.18,10.05-2.71,10.73A14.8,14.8,0,0,1,91.16,342C90.83,342,90.49,342,90.16,342Zm-22.31-41.7a3.84,3.84,0,0,0-2.51.78h0a7.69,7.69,0,0,0-2.05,3.17c-.67,1.67-.15,4.16,1.4,6.67a68.52,68.52,0,0,0,9.41,11.38c8.38,8.55,13.73,9.73,16.23,9.7a5.46,5.46,0,0,0,3.6-1.28c1.56-2.73,1.4-10.36-9.94-21.09C78.59,304.55,72,300.33,67.85,300.33Zm-5.67-3.09h0Z"/><path class="cls-1" d="M144.74,395.6a14.68,14.68,0,0,1-9.12-3.53l3-4-3,4a15.81,15.81,0,0,1-5.52-10.31c-.92-6.83,1.86-14.48,8.26-22.74,16.69-21.52,31.13-12.7,31.74-12.32a15.57,15.57,0,0,1,6.4,10.58c1,6.9-2,14.64-9.07,23C157.54,392,150.29,395.6,144.74,395.6Zm17.09-41c-3.19,0-8.7,1.68-15.58,10.55-5.86,7.55-6.64,12.47-6.26,15.27a6.46,6.46,0,0,0,1.62,3.65l.06.05.08.06c1.44,1.12,2.21,1.64,3.79,1.33,2-.4,6.44-2.44,14.22-11.67,6.26-7.42,7.18-12.18,6.86-14.87a6,6,0,0,0-1.92-3.83A7.11,7.11,0,0,0,161.83,354.59Z"/><path class="cls-1" d="M98.83,412.23A16.51,16.51,0,0,1,92.58,411c-7-2.88-12.92-10.23-17.65-21.86-4.64-11.4-5.69-20.9-3.12-28.23,2.15-6.16,6.08-8.53,6.85-8.94a14.47,14.47,0,0,1,11.6-.25c7.13,2.74,13,10.39,17.55,22.72,7.87,21.51,6.59,32.57-4.28,37l-2-4.59,2,4.59A12.25,12.25,0,0,1,98.83,412.23Zm-15.4-51.51c-2.54,1.86-5.5,9.21.76,24.61,6.17,15.17,12.86,17.61,15.56,16.79h0c1.58-.65,2.3-.94,2.76-2.71.59-2.26.84-8.06-4.11-21.58-4.56-12.47-9.31-15.89-11.74-16.83A5.42,5.42,0,0,0,83.43,360.72Zm16.16,41.47Zm0,0Zm.06,0,0,0Zm.09,0-.12,0a.1.1,0,0,0,.06,0Z"/><path class="cls-1" d="M124,416a5,5,0,0,1-4.74-6.6c5.44-16,15.21-24,15.62-24.31a5,5,0,0,1,6.26,7.8c-.16.13-8,6.67-12.4,19.71A5,5,0,0,1,124,416Z"/><path class="cls-1" d="M126,440a5,5,0,0,1-4.74-3.42c-2.94-8.81-16.58-22.37-21.59-26.85a5,5,0,1,1,6.66-7.46c2,1.83,20.12,18.26,24.41,31.15a5,5,0,0,1-3.16,6.32A4.84,4.84,0,0,1,126,440Z"/><path class="cls-1" d="M149,454.55a13.73,13.73,0,0,1-4.68-.85,12.57,12.57,0,0,1-8-7.7c-2.64-7.46,2.14-16.43,3.23-18.31C145.2,415.51,162,395,177.23,384.84c10.07-6.71,26.43-11.89,38.56-7.4,7.05,2.61,12,8.13,14.15,16a16.84,16.84,0,0,1-1.73,13.74c-2.75,4.26-8.74,8.51-21.65,4.64C194,408,183.86,413,176.37,426.43l-1.07,1.94C170.12,437.84,161,454.55,149,454.55Zm-.68-22c-1.54,2.61-3.42,7.63-2.53,10.1.12.35.38,1.07,2,1.64,6.23,2.26,15.38-14.45,18.82-20.74l1.1-2c9.8-17.63,24.64-24.51,41.81-19.36,3.84,1.15,8.76,2,10.38-.49a7.06,7.06,0,0,0,.49-5.6c-1.34-4.77-3.95-7.81-8-9.31-8.37-3.09-21.47,1-29.55,6.35-14.7,9.8-29.84,29.27-34.22,38.91A3.29,3.29,0,0,1,148.29,432.56ZM144,430h0Z"/><path class="cls-1" d="M59.13,469.69a61.27,61.27,0,0,1-21.91-4c-15.82-6-20.94-16.79-22.59-22.66-2.15-7.68-.87-15.56,3.42-21.08,3.75-4.81,8.92-7.06,14.54-6.34A19.88,19.88,0,0,1,47.6,427c1.7,4,10.51,12.52,30.51,4.34,10.59-4.33,21.76-3.78,30.65,1.5a43.12,43.12,0,0,1,9.26,7.44h0c6.4,7,6.22,12.79,5,16.45A11.34,11.34,0,0,1,115.6,464a11.8,11.8,0,0,1-10.6-2c-5-3.74-10.45-3.69-16.23.16C84.87,464.76,73.54,469.69,59.13,469.69ZM30.59,425.46A5.79,5.79,0,0,0,26,428.07c-2.32,3-3,7.67-1.69,12.24,1.14,4.07,4.8,11.55,16.52,16a53,53,0,0,0,26.61,2.72c8.15-1.21,13.79-3.85,15.84-5.21,9.27-6.18,19.39-6.12,27.77.16a2,2,0,0,0,1.68.46,1.39,1.39,0,0,0,.84-1c.75-2.15-1.75-5.2-2.86-6.41h0a32.56,32.56,0,0,0-7-5.6c-6.26-3.72-14-4-21.76-.84-13.61,5.57-23.32,4.5-29.07,2.62-6.66-2.17-12-6.77-14.42-12.28a9.84,9.84,0,0,0-7.08-5.46A6.11,6.11,0,0,0,30.59,425.46Z"/><path class="cls-1" d="M172.94,490.17a18.76,18.76,0,0,1-12.67-4.8,16.89,16.89,0,0,1-3.74-20.61c3.18-6.35,8.31-11.3,15.71-15.12h0c18.22-9.43,38.47-11.43,52.34-11.43h.3a105.74,105.74,0,0,1,15.32,1.53c7.79,1.16,15.14,2.26,21.79.61,4.63-1.15,9.13-4.5,14.17-10.55,6.58-7.9,19.33-9.66,28.43-3.93,7.25,4.58,12.63,14.65,6,29.21-13.05,28.49-41.9,23.4-71.12,13.66-21.63-7.2-33.54,2.11-45.07,11.11-2.95,2.31-5.73,4.48-8.65,6.36A23.72,23.72,0,0,1,172.94,490.17Zm51.64-42c-12.76,0-31.3,1.8-47.75,10.31-5.44,2.81-9.16,6.32-11.36,10.72a7,7,0,0,0,1.48,8.69c2.53,2.27,7.55,3.59,13.35-.14,2.52-1.62,5.13-3.66,7.89-5.82,12.33-9.63,27.67-21.62,54.39-12.71,34.81,11.6,50.77,9.34,58.88-8.34,3.48-7.61,2.7-13.5-2.2-16.59-4.39-2.76-11.64-2.67-15.42,1.87-4.07,4.89-10.51,11.64-19.45,13.85-8.56,2.13-17.26.83-25.66-.42a98.6,98.6,0,0,0-13.87-1.42Zm-50.05,5.87h0Z"/><path class="cls-1" d="M42.11,499.61a18.38,18.38,0,0,1-11.72-3.86c-5.19-4.2-6.72-11.09-4.1-18.43,6.09-17.06,27.71-17.64,28.62-17.65H55a5,5,0,0,1,.1,10h0c-.15,0-15.63.49-19.39,11-1.2,3.35-.87,5.81,1,7.3,2.66,2.15,8.71,2.45,14.7-1.24,7.23-4.45,44.44-25.93,67.23-12,6,3.66,8.39,3.16,9.29,2.54,1.94-1.34,3-6.64,1.93-9.28-1.6-3.79-8.84-6.77-12.73-8.37a5,5,0,0,1,3.8-9.24c5.59,2.29,14.95,6.14,18.14,13.73,2.71,6.44,1,16.95-5.45,21.38-7.76,5.38-17.12-.34-20.2-2.22-14.77-9-42.63,3.29-56.77,12A28.08,28.08,0,0,1,42.11,499.61Z"/><path class="cls-1" d="M143.68,491.74a5,5,0,0,1-3.84-8.19c8.87-10.68,19.35-12,19.79-12a5,5,0,0,1,1.16,9.94c-.39.05-7.13,1.1-13.26,8.48A5,5,0,0,1,143.68,491.74Z"/><path class="cls-1" d="M138.19,479.79a5,5,0,0,1-4.91-4.09c-3.14-17,5.46-30.38,5.82-30.94a5,5,0,0,1,8.38,5.46c-.12.2-6.75,10.78-4.37,23.66a5,5,0,0,1-4,5.83A4.73,4.73,0,0,1,138.19,479.79Z"/><path class="cls-1" d="M120.25,367a5.17,5.17,0,0,1-1-.09,5,5,0,0,1-4-5.86c4.63-24,22.51-34,23.27-34.44a5,5,0,0,1,4.8,8.77c-.62.35-14.54,8.33-18.26,27.57A5,5,0,0,1,120.25,367Z"/><path class="cls-1" d="M120.25,360.6a5,5,0,0,1-4.4-2.64C109,345.25,96.17,339.65,96,339.6a5,5,0,0,1,3.92-9.2c.66.28,16.21,7.06,24.69,22.83a5,5,0,0,1-2,6.77A5.08,5.08,0,0,1,120.25,360.6Z"/></g><g id="Outline"><path class="cls-1" d="M173.84,105.11a4.94,4.94,0,0,1-2.42-.63C125.5,78.89,44.44,73.79,43.63,73.74a5,5,0,0,1,.6-10c.85.06,21.19,1.3,47.71,5.83,35.79,6.12,64.17,14.92,84.34,26.16a5,5,0,0,1-2.44,9.37Z"/><path class="cls-1" d="M180.85,123a4.82,4.82,0,0,1-1.49-.23c-48.45-15.14-123.93-14.14-124.69-14.13h-.08a5,5,0,0,1-.07-10c.19,0,19.61-.29,44.86,1.35,34,2.21,61.94,6.66,83,13.23a5,5,0,0,1-1.49,9.77Z"/><path class="cls-1" d="M76.67,142.66a5,5,0,0,1-.93-9.91c2.25-.43,55.9-10.39,115.93-1.81a5,5,0,1,1-1.42,9.9c-58.38-8.34-112.11,1.63-112.65,1.74A4.87,4.87,0,0,1,76.67,142.66Z"/><path class="cls-1" d="M155.8,193a5,5,0,0,1-3.91-8.13c.63-.8,16.06-19.66,62.84-22.89a5,5,0,0,1,.69,10c-41.85,2.88-55.58,19-55.72,19.15A5,5,0,0,1,155.8,193Z"/><path class="cls-1" d="M115.62,174.56a5,5,0,0,1-3-9c1-.75,25.3-18.35,87.68-18.35a5,5,0,0,1,0,10c-58.56,0-81.5,16.22-81.72,16.38A5,5,0,0,1,115.62,174.56Z"/><path class="cls-1" d="M111.35,235.17a5,5,0,0,1-3.68-8.39c1.16-1.25,28.72-30.92,57.26-40.1A5,5,0,1,1,168,196.2c-26,8.37-52.7,37.07-53,37.36A5,5,0,0,1,111.35,235.17Z"/><path class="cls-1" d="M149,249.78a4.93,4.93,0,0,1-2.31-.57,5,5,0,0,1-2.13-6.74c.64-1.22,15.85-30.17,37.67-49.65a5,5,0,0,1,6.65,7.47c-20.42,18.22-35.3,46.51-35.45,46.8A5,5,0,0,1,149,249.78Z"/><path class="cls-1" d="M180.85,256a5,5,0,0,1-4.71-6.69c.46-1.26,11.24-31.12,24.64-51.6a5,5,0,1,1,8.36,5.47c-12.75,19.5-23.48,49.21-23.58,49.51A5,5,0,0,1,180.85,256Z"/><path class="cls-1" d="M216.63,258.33a3.31,3.31,0,0,1-.44,0,5,5,0,0,1-4.54-5.42c0-.26,2.41-27,7.07-50.31a5,5,0,1,1,9.81,2c-4.56,22.8-6.9,49-6.92,49.23A5,5,0,0,1,216.63,258.33Z"/><path class="cls-1" d="M244.62,256.53a5,5,0,0,1-5-4.49c-2.35-23-.1-46.44,0-47.42a5,5,0,0,1,9.95,1c0,.23-2.25,23.41,0,45.42a5,5,0,0,1-4.46,5.48Z"/><path class="cls-1" d="M424.41,383.69a4.75,4.75,0,0,1-1.28-.17c-45.2-12-70.6-37.3-83.94-56.44-14.53-20.84-18.27-38.77-18.42-39.53a5,5,0,0,1,9.8-2c.05.24,3.64,17,17.09,36.17,18,25.64,44.27,43.18,78,52.12a5,5,0,0,1-1.28,9.83Z"/><path class="cls-1" d="M371.4,407.67a5,5,0,0,1-2.64-.76c-47.36-29.53-57.06-69.1-57.45-70.77a5,5,0,0,1,9.74-2.29h0c.09.37,9.34,37.35,53,64.57a5,5,0,0,1-2.65,9.25Z"/><path class="cls-1" d="M308.24,400.25a5,5,0,0,1-4.33-2.49c-20.34-35.13-12.76-71.7-12.43-73.24a5,5,0,1,1,9.77,2.11c-.08.4-7,34.46,11.31,66.12a5,5,0,0,1-1.82,6.83A4.91,4.91,0,0,1,308.24,400.25Z"/><path class="cls-1" d="M270,369.35a5,5,0,0,1-5-4.34c-5.06-37.88,6.48-61,7-61.94a5,5,0,0,1,8.91,4.55,68.57,68.57,0,0,0-4.74,14.93A120.86,120.86,0,0,0,275,363.68a5,5,0,0,1-5,5.67Z"/></g></svg>