<?xml version="1.0" ?><svg viewBox="0 0 512 512" xmlns="http://www.w3.org/2000/svg"><defs><style>.cls-1{fill:#3f456b;}</style></defs><title/><g id="Lines"><path class="cls-1" d="M450.06,60h-4.12a5,5,0,0,1,0-10h4.12a5,5,0,0,1,0,10Z"/><path class="cls-1" d="M450.06,93h-4.12a5,5,0,0,1,0-10h4.12a5,5,0,0,1,0,10Z"/><path class="cls-1" d="M158,256a5,5,0,0,1-4.85-3.79,82.37,82.37,0,0,1-1.64-8.11c-1.79-7.45-1.19-13.26,1.76-17.25a11.59,11.59,0,0,1,7.57-4.59l182.69-44.81a11.6,11.6,0,0,1,8.83.57c4.47,2.18,7.68,7,9.55,14.47,1.32,3.7,12.83,38-4.24,61.38a5,5,0,0,1-8.08-5.9c14.55-19.91,3-52,2.84-52.29a5.6,5.6,0,0,1-.17-.54c-1.56-6.37-3.67-7.83-4.27-8.13a2.65,2.65,0,0,0-.88-.22h0a5.22,5.22,0,0,1-.87.29l-183.34,45a1.84,1.84,0,0,1-.78.14,1.66,1.66,0,0,0-.89.72c-.47.73-1.42,3.08.05,9.06a3.66,3.66,0,0,1,.1.56s.39,2.93,1.47,7.26A5,5,0,0,1,158,256Z"/><path class="cls-1" d="M316.35,336.21a5,5,0,0,1,0-10c13,0,23.15-4,30.24-12,15.53-17.41,12.25-48,12.21-48.29a5.44,5.44,0,0,1,0-.57c0-6.76-1.72-8.67-2.25-9.09a2.19,2.19,0,0,0-.88-.4h0a5,5,0,0,1-1.09.12h-195a2.36,2.36,0,0,1-1-.09h0a1.59,1.59,0,0,0-1.07.45c-.51.45-2.16,2.45-2.16,9a5.44,5.44,0,0,1,0,.57c0,.3-3.26,30.84,12.2,48.14C174.64,322,184.82,326,197.8,326a5,5,0,0,1,0,10c-16,0-28.67-5.15-37.74-15.32-17.75-19.9-15.05-52-14.68-55.61,0-7.88,2.06-13.47,6-16.63A11.63,11.63,0,0,1,160,246H354.13a11.63,11.63,0,0,1,8.64,2.47c3.94,3.16,6,8.75,6,16.63.37,3.65,3.08,35.84-14.72,55.79C345,331.05,332.29,336.21,316.35,336.21ZM158.51,255.88Z"/><path class="cls-1" d="M348.28,394H167.43c-19.6,0-33.93-2.86-42.6-8.5-8.49-5.52-9.75-12.37-9.75-16,0-11.4,7.2-14.49,11-14.54H389.47a10.27,10.27,0,0,1,6.11,2.24c2.26,1.77,5,5.32,5,12.23C400.54,375.22,396.77,394,348.28,394ZM126.46,365c-.58.21-1.38,1.54-1.38,4.54,0,6.67,11.09,14.46,42.35,14.46H348.28c21.23,0,31.62-3.78,36.59-6.95,5.26-3.35,5.67-6.65,5.67-7.58,0-2.57-.58-3.93-1.11-4.34,0,0,.08-.13,0-.13Zm-.31,0h0Z"/><path class="cls-1" d="M348.28,365H167.43c-19.6,0-33.93-2.86-42.6-8.5-8.49-5.52-9.75-12.37-9.75-16,0-11.4,7.2-14.49,11-14.54H389.47a10.27,10.27,0,0,1,6.11,2.24c2.26,1.77,5,5.32,5,12.23C400.54,346.22,396.77,365,348.28,365ZM126.46,336c-.58.21-1.38,1.54-1.38,4.54,0,6.67,11.09,14.46,42.35,14.46H348.28c21.23,0,31.62-3.78,36.59-6.95,5.26-3.35,5.67-6.65,5.67-7.58,0-2.57-.58-3.93-1.11-4.34,0,0,.08-.13,0-.13Zm-.31,0h0Z"/><path class="cls-1" d="M367.34,452H147.06c-19.6,0-33.93-2.86-42.61-8.5-8.48-5.52-9.74-12.37-9.74-16,0-11.4,7.2-14.49,11-14.54H408.53a10.25,10.25,0,0,1,6.1,2.24c2.27,1.77,5,5.32,5,12.23C419.59,433.22,415.83,452,367.34,452ZM106.08,423c-.58.21-1.37,1.54-1.37,4.54,0,10.67,22.81,14.46,42.35,14.46H367.34c21.23,0,31.62-3.78,36.59-6.95,5.26-3.35,5.66-6.65,5.66-7.58,0-2.57-.57-3.93-1.11-4.34,0,0,.09-.13,0-.13Zm-.3,0h0Z"/><path class="cls-1" d="M367.34,423H147.06c-19.6,0-33.93-2.86-42.61-8.5-8.48-5.52-9.74-12.37-9.74-16,0-11.4,7.2-14.49,11-14.54H408.53a10.25,10.25,0,0,1,6.1,2.24c2.27,1.77,5,5.32,5,12.23C419.59,404.22,415.83,423,367.34,423ZM106.08,394c-.58.21-1.37,1.54-1.37,4.54,0,10.67,22.81,14.46,42.35,14.46H367.34c21.23,0,31.62-3.78,36.59-6.95,5.26-3.35,5.66-6.65,5.66-7.58,0-2.57-.57-3.93-1.11-4.34,0,0,.09-.13,0-.13Zm-.3,0h0Z"/><path class="cls-1" d="M463.69,501H49.31A37.36,37.36,0,0,1,12,463.69V48.31A37.36,37.36,0,0,1,49.31,11H463.69A37.36,37.36,0,0,1,501,48.31V463.69A37.36,37.36,0,0,1,463.69,501ZM49.31,21A27.34,27.34,0,0,0,22,48.31V463.69A27.34,27.34,0,0,0,49.31,491H463.69A27.34,27.34,0,0,0,491,463.69V48.31A27.34,27.34,0,0,0,463.69,21Z"/><path class="cls-1" d="M438,452H75a15,15,0,0,1-15-15V139a15,15,0,0,1,15-15H438a15,15,0,0,1,15,15v41.88a5,5,0,0,1-10,0V139a5,5,0,0,0-5-5H75a5,5,0,0,0-5,5V437a5,5,0,0,0,5,5H438a5,5,0,0,0,5-5V391a5,5,0,0,1,10,0v46A15,15,0,0,1,438,452Z"/><path class="cls-1" d="M461,396H434a15,15,0,0,1-15-15V191a15,15,0,0,1,15-15h27a15,15,0,0,1,15,15V381A15,15,0,0,1,461,396ZM434,186a5,5,0,0,0-5,5V381a5,5,0,0,0,5,5h27a5,5,0,0,0,5-5V191a5,5,0,0,0-5-5Z"/><path class="cls-1" d="M341.25,106.28a32.62,32.62,0,1,1,32.61-32.61A32.64,32.64,0,0,1,341.25,106.28Zm0-55.23a22.62,22.62,0,1,0,22.61,22.62A22.64,22.64,0,0,0,341.25,51.05Z"/><path class="cls-1" d="M256.51,106.28a32.62,32.62,0,1,1,32.62-32.61A32.65,32.65,0,0,1,256.51,106.28Zm0-55.23a22.62,22.62,0,1,0,22.62,22.62A22.65,22.65,0,0,0,256.51,51.05Z"/><path class="cls-1" d="M171.78,106.28a32.62,32.62,0,1,1,32.61-32.61A32.65,32.65,0,0,1,171.78,106.28Zm0-55.23a22.62,22.62,0,1,0,22.61,22.62A22.64,22.64,0,0,0,171.78,51.05Z"/></g><g id="Outline"><path class="cls-1" d="M66,292.14a5.5,5.5,0,0,1-1-.09,6.25,6.25,0,0,1-.93-.29,5.46,5.46,0,0,1-.86-.46,4.65,4.65,0,0,1-.77-.62,5,5,0,0,1-.62-.76,5.46,5.46,0,0,1-.46-.86,5.32,5.32,0,0,1-.28-.94,4.8,4.8,0,0,1,0-1.95,5.08,5.08,0,0,1,.28-.94,5.46,5.46,0,0,1,.46-.86,4.57,4.57,0,0,1,.62-.76,5.28,5.28,0,0,1,.77-.63,5.46,5.46,0,0,1,.86-.46,5.22,5.22,0,0,1,.93-.28,5,5,0,0,1,4.52,1.37,4.57,4.57,0,0,1,.62.76,5.46,5.46,0,0,1,.46.86,5.08,5.08,0,0,1,.28.94,4.8,4.8,0,0,1,0,1.95,5.32,5.32,0,0,1-.28.94,5.46,5.46,0,0,1-.46.86,4.86,4.86,0,0,1-1.38,1.38,5.14,5.14,0,0,1-.87.46,5.9,5.9,0,0,1-.93.29A5.33,5.33,0,0,1,66,292.14Z"/><path class="cls-1" d="M399.11,287.14a5,5,0,0,1,5-5h0a5,5,0,0,1,5,5h0a5,5,0,0,1-5,5h0A5,5,0,0,1,399.11,287.14Zm-19.89,0a5,5,0,0,1,5-5h0a5,5,0,0,1,5,5h0a5,5,0,0,1-5,5h0A5,5,0,0,1,379.22,287.14Zm-19.89,0a5,5,0,0,1,5-5h0a5,5,0,0,1,5,5h0a5,5,0,0,1-5,5h0A5,5,0,0,1,359.33,287.14Zm-19.89,0a5,5,0,0,1,5-5h0a5,5,0,0,1,5,5h0a5,5,0,0,1-5,5h0A5,5,0,0,1,339.44,287.14Zm-19.89,0a5,5,0,0,1,5-5h0a5,5,0,0,1,5,5h0a5,5,0,0,1-5,5h0A5,5,0,0,1,319.55,287.14Zm-19.88,0a5,5,0,0,1,5-5h0a5,5,0,0,1,5,5h0a5,5,0,0,1-5,5h0A5,5,0,0,1,299.67,287.14Zm-19.89,0a5,5,0,0,1,5-5h0a5,5,0,0,1,5,5h0a5,5,0,0,1-5,5h0A5,5,0,0,1,279.78,287.14Zm-19.89,0a5,5,0,0,1,5-5h0a5,5,0,0,1,5,5h0a5,5,0,0,1-5,5h0A5,5,0,0,1,259.89,287.14Zm-19.89,0a5,5,0,0,1,5-5h0a5,5,0,0,1,5,5h0a5,5,0,0,1-5,5h0A5,5,0,0,1,240,287.14Zm-19.89,0a5,5,0,0,1,5-5h0a5,5,0,0,1,5,5h0a5,5,0,0,1-5,5h0A5,5,0,0,1,220.11,287.14Zm-19.89,0a5,5,0,0,1,5-5h0a5,5,0,0,1,5,5h0a5,5,0,0,1-5,5h0A5,5,0,0,1,200.22,287.14Zm-19.89,0a5,5,0,0,1,5-5h0a5,5,0,0,1,5,5h0a5,5,0,0,1-5,5h0A5,5,0,0,1,180.33,287.14Zm-19.89,0a5,5,0,0,1,5-5h0a5,5,0,0,1,5,5h0a5,5,0,0,1-5,5h0A5,5,0,0,1,160.44,287.14Zm-19.88,0a5,5,0,0,1,5-5h0a5,5,0,0,1,5,5h0a5,5,0,0,1-5,5h0A5,5,0,0,1,140.56,287.14Zm-19.89,0a5,5,0,0,1,5-5h0a5,5,0,0,1,5,5h0a5,5,0,0,1-5,5h0A5,5,0,0,1,120.67,287.14Zm-19.89,0a5,5,0,0,1,5-5h0a5,5,0,0,1,5,5h0a5,5,0,0,1-5,5h0A5,5,0,0,1,100.78,287.14Zm-19.89,0a5,5,0,0,1,5-5h0a5,5,0,0,1,5,5h0a5,5,0,0,1-5,5h0A5,5,0,0,1,80.89,287.14Z"/><path class="cls-1" d="M424,292.14a5.41,5.41,0,0,1-1-.09,5,5,0,0,1-.93-.29,4.74,4.74,0,0,1-.86-.46,4.57,4.57,0,0,1-.76-.62,5,5,0,0,1,0-7.07,4.57,4.57,0,0,1,.76-.62,4.74,4.74,0,0,1,.86-.46,4.36,4.36,0,0,1,.93-.29,5,5,0,0,1,2,0,4.36,4.36,0,0,1,.93.29,5.19,5.19,0,0,1,.87.46,5,5,0,0,1,0,8.31,5.19,5.19,0,0,1-.87.46,5,5,0,0,1-.93.29A5.41,5.41,0,0,1,424,292.14Z"/><path class="cls-1" d="M172,67a5,5,0,0,1-5-5V59a5,5,0,0,1,10,0v3A5,5,0,0,1,172,67Z"/><path class="cls-1" d="M342,67a5,5,0,0,1-5-5V59a5,5,0,0,1,10,0v3A5,5,0,0,1,342,67Z"/><path class="cls-1" d="M257,67a5,5,0,0,1-5-5V59a5,5,0,0,1,10,0v3A5,5,0,0,1,257,67Z"/></g></svg>