<?xml version="1.0" ?><svg enable-background="new 0 0 512 512" version="1.1" viewBox="0 0 512 512" xml:space="preserve" xmlns="http://www.w3.org/2000/svg" xmlns:xlink="http://www.w3.org/1999/xlink"><g id="Colors"/><g id="Lines"><g><path d="M116.647,443.115c-0.286,0-0.573-0.008-0.862-0.025l-20.42-1.238c-2.756-0.168-4.855-2.537-4.688-5.294    c0.167-2.757,2.542-4.841,5.293-4.688l20.421,1.238c0.933,0.064,1.794-0.205,2.422-0.738c0.404-0.343,0.897-0.96,0.958-1.954    l1.972-32.519c0.099-1.636-1.177-2.904-3.034-3.017l-20.42-1.238c-2.756-0.168-4.855-2.537-4.688-5.294    c0.167-2.757,2.539-4.839,5.293-4.688l20.421,1.238c7.394,0.449,12.845,6.425,12.41,13.604l-1.972,32.519    c-0.213,3.521-1.8,6.706-4.467,8.971C122.895,442.021,119.855,443.115,116.647,443.115z" fill="#3F456B"/></g><g><path d="M172.921,454.787c-1.447,0-2.909-0.043-4.396-0.133c-30.433-1.846-46.765-18.524-47.446-19.233    c-1.912-1.993-1.846-5.158,0.146-7.069c1.989-1.909,5.144-1.848,7.057,0.133c0.156,0.159,14.516,14.592,40.849,16.188    c30.696,1.865,52.381-19.906,52.597-20.127c0.023-0.024,0.047-0.048,0.071-0.071c0.811-0.849,3.383-4.126,0.306-8.549    c-0.156-0.22-17.478-24.201-49.645-26.151c-26.341-1.598-42.347,11.006-42.505,11.134c-2.147,1.724-5.292,1.396-7.025-0.743    s-1.419-5.271,0.714-7.014c0.761-0.622,18.989-15.196,49.422-13.359c37.12,2.251,56.436,29.263,57.24,30.411    c6.498,9.34,1.9,18.039-1.467,21.373C227.46,432.974,205.396,454.787,172.921,454.787z" fill="#3F456B"/></g><g><path d="M190.372,365.921c-0.096,0-0.193-0.003-0.29-0.008c-2.757-0.158-4.864-2.521-4.706-5.277l1.091-19.074    c0.158-2.757,2.523-4.825,5.277-4.707c2.757,0.158,4.864,2.521,4.706,5.277l-1.091,19.074    C195.207,363.866,193.002,365.921,190.372,365.921z" fill="#3F456B"/></g><g><path d="M182.772,498.645c-0.093,0-0.187-0.002-0.281-0.008c-2.757-0.153-4.869-2.512-4.715-5.27l0.955-17.214    c0.152-2.756,2.502-4.894,5.269-4.715c2.757,0.153,4.869,2.512,4.715,5.27l-0.955,17.214    C187.613,496.584,185.407,498.645,182.772,498.645z" fill="#3F456B"/></g><g><path d="M221.935,491.211c-1.829,0-3.592-1.008-4.47-2.753l-7.906-15.706c-1.242-2.467-0.249-5.473,2.218-6.714    c2.466-1.242,5.474-0.248,6.714,2.218l7.906,15.706c1.242,2.467,0.249,5.473-2.218,6.714    C223.458,491.039,222.69,491.211,221.935,491.211z" fill="#3F456B"/></g><g><path d="M251.382,464.947c-0.941,0-1.893-0.266-2.738-0.821l-15.268-10.021c-2.309-1.515-2.952-4.614-1.437-6.923    c1.515-2.31,4.614-2.954,6.923-1.437l15.268,10.021c2.309,1.515,2.952,4.614,1.437,6.923    C254.606,464.152,253.01,464.947,251.382,464.947z" fill="#3F456B"/></g><g><path d="M263.511,427.646c-0.095,0-0.188-0.003-0.283-0.008l-18.315-1.022c-2.758-0.154-4.868-2.514-4.714-5.271    c0.154-2.758,2.547-4.858,5.271-4.714l18.315,1.022c2.758,0.154,4.868,2.514,4.714,5.271    C268.35,425.586,266.145,427.646,263.511,427.646z" fill="#3F456B"/></g><g><path d="M238.903,397.31c-1.829,0-3.591-1.007-4.47-2.753c-1.242-2.466-0.249-5.473,2.218-6.714l16.846-8.48    c2.465-1.243,5.473-0.25,6.714,2.218c1.242,2.466,0.249,5.473-2.218,6.714l-16.846,8.48    C240.427,397.138,239.659,397.31,238.903,397.31z" fill="#3F456B"/></g><g><path d="M219.048,375.262c-0.941,0-1.893-0.266-2.738-0.82c-2.309-1.516-2.952-4.615-1.438-6.924l10.428-15.89    c1.517-2.308,4.615-2.951,6.924-1.438c2.309,1.516,2.952,4.615,1.438,6.924l-10.428,15.89    C222.272,374.467,220.676,375.262,219.048,375.262z" fill="#3F456B"/></g><g><path d="M182.87,498.65c-0.096,0-0.193-0.003-0.29-0.008c-2.757-0.158-4.864-2.521-4.706-5.277l1.091-19.074    c0.158-2.757,2.536-4.829,5.277-4.707c2.757,0.158,4.864,2.521,4.706,5.277l-1.091,19.074    C187.706,496.596,185.501,498.65,182.87,498.65z" fill="#3F456B"/></g><g><path d="M190.605,364.066c-0.093,0-0.187-0.002-0.281-0.008c-2.757-0.152-4.868-2.512-4.715-5.269l0.955-17.214    c0.153-2.757,2.509-4.894,5.269-4.716c2.757,0.152,4.868,2.512,4.715,5.269l-0.955,17.214    C195.446,362.006,193.24,364.066,190.605,364.066z" fill="#3F456B"/></g><g><path d="M160.303,369.994c-1.829,0-3.591-1.007-4.47-2.753l-7.907-15.706c-1.242-2.466-0.249-5.473,2.218-6.714    c2.464-1.242,5.473-0.249,6.714,2.218l7.907,15.706c1.242,2.466,0.249,5.473-2.218,6.714    C161.827,369.822,161.059,369.994,160.303,369.994z" fill="#3F456B"/></g><g><path d="M144.838,486.127c-0.941,0-1.893-0.266-2.738-0.821c-2.309-1.515-2.952-4.614-1.437-6.923l10.428-15.89    c1.515-2.308,4.615-2.953,6.923-1.437c2.309,1.515,2.952,4.614,1.437,6.923l-10.428,15.89    C148.063,485.332,146.467,486.127,144.838,486.127z" fill="#3F456B"/></g><g><path d="M154.005,421c-0.12,0-0.24-0.004-0.362-0.013l-28-2c-2.754-0.196-4.828-2.589-4.631-5.344    c0.197-2.754,2.598-4.829,5.344-4.631l28,2c2.754,0.196,4.828,2.589,4.631,5.344C158.799,418.989,156.604,421,154.005,421z" fill="#3F456B"/></g><g><path d="M147.325,310.641c-2.259,0-4.308-1.541-4.858-3.834l-4.775-19.894c-0.822-3.425-0.342-6.927,1.352-9.862    c1.748-3.03,4.603-5.152,8.038-5.978l31.679-7.604c3.429-0.821,6.939-0.235,9.884,1.654c2.875,1.846,4.912,4.752,5.735,8.183    l4.775,19.894c0.645,2.686-1.01,5.385-3.695,6.029c-2.685,0.642-5.384-1.011-6.029-3.695l-4.775-19.894    c-0.218-0.909-0.72-1.655-1.414-2.101c-0.445-0.287-1.183-0.576-2.148-0.347l-31.679,7.604c-0.949,0.228-1.454,0.806-1.711,1.251    c-0.408,0.708-0.511,1.606-0.29,2.53l4.775,19.894c0.645,2.686-1.01,5.385-3.695,6.029    C148.104,310.596,147.711,310.641,147.325,310.641z" fill="#3F456B"/></g><g><path d="M147.091,281.209c-0.953,0-1.916-0.273-2.769-0.844c-0.816-0.546-20.084-13.725-27.2-43.372    c-8.68-36.162,11.519-62.519,12.383-63.623c7.035-8.939,16.697-7.083,20.869-4.835c1.801,0.942,31.521,16.973,39.677,50.954    c7.116,29.646-4.07,50.136-4.55,50.993c-1.348,2.41-4.395,3.271-6.804,1.924c-2.405-1.346-3.268-4.382-1.932-6.789    c0.121-0.222,9.715-18.161,3.563-43.794c-7.143-29.762-34.334-44.295-34.608-44.438c-1.13-0.573-5.015-2.076-8.346,2.157    c-0.166,0.214-18.048,23.78-10.526,55.116c6.16,25.665,22.885,37.291,23.053,37.406c2.277,1.549,2.881,4.652,1.34,6.936    C150.273,280.434,148.697,281.209,147.091,281.209z" fill="#3F456B"/></g><g><path d="M75.458,235.475c-2.252,0-4.297-1.532-4.854-3.817c-0.654-2.683,0.991-5.388,3.674-6.041l18.562-4.522    c2.684-0.66,5.388,0.991,6.042,3.674s-0.991,5.388-3.674,6.041l-18.562,4.522C76.248,235.429,75.849,235.475,75.458,235.475z" fill="#3F456B"/></g><g><path d="M206.44,203.599c-2.249,0-4.292-1.527-4.852-3.809c-0.658-2.682,0.982-5.39,3.664-6.048l16.743-4.11    c2.683-0.659,5.39,0.981,6.048,3.663c0.659,2.682-0.981,5.39-3.663,6.048l-16.744,4.11    C207.236,203.552,206.835,203.599,206.44,203.599z" fill="#3F456B"/></g><g><path d="M191.934,176.345c-1.318,0-2.634-0.518-3.616-1.546c-1.907-1.997-1.835-5.162,0.162-7.069l12.715-12.146    c1.996-1.908,5.162-1.836,7.069,0.161c1.907,1.997,1.835,5.162-0.162,7.069l-12.715,12.146    C194.418,175.886,193.175,176.345,191.934,176.345z" fill="#3F456B"/></g><g><path d="M165.805,161.218c-0.465,0-0.938-0.065-1.407-0.202c-2.65-0.775-4.17-3.553-3.395-6.203l5.129-17.527    c0.775-2.651,3.554-4.167,6.203-3.395c2.65,0.775,4.17,3.553,3.395,6.203l-5.129,17.527    C169.963,159.803,167.969,161.218,165.805,161.218z" fill="#3F456B"/></g><g><path d="M136.081,160.801c-2.25,0-4.293-1.528-4.853-3.811l-4.367-17.816c-0.657-2.683,0.984-5.39,3.666-6.047    c2.684-0.657,5.389,0.983,6.047,3.666l4.367,17.816c0.657,2.683-0.984,5.39-3.666,6.047    C136.875,160.754,136.475,160.801,136.081,160.801z" fill="#3F456B"/></g><g><path d="M109.882,175.372c-1.318,0-2.634-0.518-3.616-1.546l-13.027-13.638c-1.907-1.997-1.835-5.162,0.162-7.069    c1.996-1.908,5.161-1.836,7.069,0.161l13.027,13.638c1.907,1.997,1.835,5.162-0.162,7.069    C112.367,174.913,111.124,175.372,109.882,175.372z" fill="#3F456B"/></g><g><path d="M94.588,200.79c-0.465,0-0.938-0.065-1.406-0.202l-18.242-5.337c-2.65-0.775-4.17-3.553-3.395-6.203    c0.775-2.651,3.553-4.169,6.203-3.395l18.242,5.337c2.65,0.775,4.17,3.553,3.395,6.203    C98.747,199.375,96.752,200.79,94.588,200.79z" fill="#3F456B"/></g><g><path d="M204.599,203.916c-2.252,0-4.297-1.532-4.854-3.817c-0.654-2.683,0.991-5.388,3.674-6.041l18.562-4.522    c2.682-0.661,5.388,0.991,6.041,3.674c0.654,2.683-0.991,5.388-3.674,6.041l-18.562,4.522    C205.389,203.87,204.99,203.916,204.599,203.916z" fill="#3F456B"/></g><g><path d="M75.435,235.38c-2.249,0-4.292-1.527-4.852-3.809c-0.658-2.682,0.982-5.39,3.664-6.048l16.743-4.11    c2.684-0.661,5.39,0.981,6.048,3.663s-0.982,5.39-3.664,6.048l-16.743,4.11C76.23,235.333,75.83,235.38,75.435,235.38z" fill="#3F456B"/></g><g><path d="M93.979,270.668c-1.318,0-2.634-0.518-3.616-1.546c-1.907-1.997-1.835-5.162,0.162-7.069l12.715-12.146    c1.996-1.908,5.161-1.836,7.069,0.161c1.907,1.997,1.835,5.162-0.162,7.069l-12.715,12.146    C96.464,270.209,95.221,270.668,93.979,270.668z" fill="#3F456B"/></g><g><path d="M222.283,239.416c-0.465,0-0.938-0.065-1.406-0.202l-18.241-5.337c-2.65-0.775-4.17-3.553-3.395-6.203    c0.775-2.651,3.553-4.169,6.203-3.395l18.242,5.337c2.65,0.775,4.17,3.553,3.395,6.203    C226.441,238.001,224.447,239.416,222.283,239.416z" fill="#3F456B"/></g><g><path d="M163.572,277.027c-2.28,0-4.34-1.569-4.87-3.887l-6.258-27.364c-0.616-2.691,1.067-5.373,3.759-5.988    c2.69-0.619,5.373,1.066,5.989,3.76l6.258,27.364c0.616,2.691-1.067,5.373-3.759,5.988    C164.316,276.986,163.941,277.027,163.572,277.027z" fill="#3F456B"/></g><g><path d="M283.194,296.891c-3.312,0-6.51-1.266-9.036-3.582l-15.08-13.825c-2.035-1.866-2.173-5.029-0.307-7.064    c1.867-2.036,5.03-2.172,7.064-0.307l15.08,13.825c0.689,0.633,1.521,0.952,2.347,0.952c0.529-0.012,1.302-0.181,1.975-0.914    l22.017-24.014c1.107-1.208,0.915-2.997-0.456-4.255l-15.08-13.825c-2.035-1.866-2.173-5.029-0.307-7.064    c1.868-2.035,5.029-2.172,7.064-0.307l15.08,13.825c5.46,5.007,5.93,13.081,1.069,18.384l-22.017,24.014    c-2.383,2.6-5.622,4.074-9.12,4.153C283.391,296.889,283.292,296.891,283.194,296.891z" fill="#3F456B"/></g><g><path d="M362.949,355.862c-11.287,0-35.479-2.349-55.115-20.351c-22.474-20.604-24.652-43.846-24.733-44.825    c-0.229-2.752,1.814-5.169,4.566-5.398c2.742-0.233,5.161,1.807,5.397,4.552c0.037,0.382,2.16,20.545,21.527,38.301    c22.56,20.683,53.232,17.531,53.537,17.499c1.256-0.158,5.317-1.083,5.714-6.456c0.018-0.27,1.671-29.807-22.083-51.584    c-19.455-17.837-39.822-18.127-40.026-18.128c-2.754-0.012-4.989-2.248-4.988-5.002s2.219-4.988,4.973-4.998    c0.007,0,0.016,0,0.025,0c1.297,0,24.464,0.303,46.774,20.757c27.412,25.132,25.398,58.277,25.299,59.676    c-0.836,11.348-9.887,15.208-14.602,15.676C368.73,355.634,366.465,355.862,362.949,355.862z" fill="#3F456B"/></g><g><path d="M383.841,281.472c-1.202,0-2.407-0.431-3.365-1.303c-2.042-1.859-2.19-5.021-0.331-7.063l12.863-14.127    c1.859-2.045,5.023-2.188,7.063-0.331c2.042,1.859,2.19,5.021,0.331,7.063l-12.863,14.127    C386.553,280.922,385.198,281.472,383.841,281.472z" fill="#3F456B"/></g><g><path d="M294.333,379.766c-1.198,0-2.4-0.429-3.358-1.297c-2.045-1.855-2.198-5.018-0.343-7.063l11.585-12.768    c1.856-2.044,5.017-2.198,7.063-0.343c2.045,1.855,2.198,5.018,0.343,7.063l-11.585,12.768    C297.051,379.213,295.694,379.766,294.333,379.766z" fill="#3F456B"/></g><g><path d="M329.439,398.662c-0.354,0-0.713-0.038-1.072-0.116c-2.697-0.589-4.407-3.254-3.817-5.952l3.753-17.179    c0.59-2.697,3.257-4.4,5.952-3.817c2.697,0.589,4.407,3.254,3.817,5.952l-3.753,17.179    C333.809,397.066,331.738,398.662,329.439,398.662z" fill="#3F456B"/></g><g><path d="M368.854,396.818c-2.118,0-4.085-1.356-4.763-3.482l-5.545-17.398c-0.839-2.631,0.614-5.444,3.245-6.282    c2.631-0.84,5.443,0.614,6.282,3.245l5.545,17.398c0.839,2.631-0.614,5.444-3.245,6.282    C369.869,396.742,369.357,396.818,368.854,396.818z" fill="#3F456B"/></g><g><path d="M401.763,375.481c-1.198,0-2.401-0.429-3.359-1.298l-13.58-12.332c-2.044-1.855-2.196-5.018-0.341-7.062    c1.855-2.044,5.017-2.198,7.063-0.341l13.58,12.331c2.044,1.856,2.196,5.019,0.341,7.063    C404.479,374.93,403.124,375.481,401.763,375.481z" fill="#3F456B"/></g><g><path d="M420.194,340.446c-0.354,0-0.713-0.038-1.072-0.116l-18.426-4.025c-2.697-0.589-4.407-3.254-3.817-5.952    c0.59-2.696,3.257-4.402,5.952-3.817l18.426,4.025c2.697,0.589,4.407,3.254,3.817,5.952    C424.563,338.851,422.493,340.446,420.194,340.446z" fill="#3F456B"/></g><g><path d="M400.236,306.796c-2.118,0-4.085-1.356-4.763-3.482c-0.839-2.631,0.614-5.443,3.245-6.282l18.108-5.772    c2.631-0.84,5.443,0.614,6.282,3.245s-0.614,5.443-3.245,6.282l-18.108,5.772C401.251,306.72,400.739,306.796,400.236,306.796z" fill="#3F456B"/></g><g><path d="M294.406,379.831c-1.202,0-2.407-0.431-3.365-1.303c-2.042-1.859-2.19-5.021-0.331-7.063l12.862-14.126    c1.859-2.044,5.022-2.188,7.063-0.331c2.042,1.859,2.19,5.021,0.331,7.063l-12.862,14.126    C297.118,379.281,295.764,379.831,294.406,379.831z" fill="#3F456B"/></g><g><path d="M385.189,280.179c-1.198,0-2.4-0.429-3.358-1.297c-2.045-1.855-2.198-5.018-0.343-7.063l11.585-12.768    c1.855-2.044,5.017-2.197,7.063-0.343c2.045,1.855,2.198,5.018,0.343,7.063l-11.585,12.768    C387.907,279.626,386.551,280.179,385.189,280.179z" fill="#3F456B"/></g><g><path d="M357.93,265.694c-0.354,0-0.713-0.038-1.072-0.116c-2.697-0.59-4.407-3.254-3.817-5.952l3.753-17.178    c0.59-2.697,3.257-4.402,5.952-3.817c2.697,0.59,4.407,3.254,3.817,5.952l-3.753,17.178    C362.299,264.099,360.229,265.694,357.93,265.694z" fill="#3F456B"/></g><g><path d="M272.765,346.154c-2.118,0-4.085-1.356-4.763-3.482c-0.839-2.631,0.614-5.443,3.245-6.282l18.108-5.772    c2.631-0.841,5.443,0.614,6.282,3.245s-0.614,5.443-3.245,6.282l-18.108,5.772C273.779,346.078,273.268,346.154,272.765,346.154z" fill="#3F456B"/></g><g><path d="M320.9,301.341c-1.226,0-2.453-0.447-3.417-1.351l-20.486-19.191c-2.016-1.889-2.119-5.053-0.231-7.067    c1.889-2.017,5.054-2.117,7.067-0.231l20.486,19.191c2.016,1.889,2.119,5.053,0.231,7.067    C323.566,300.81,322.234,301.341,320.9,301.341z" fill="#3F456B"/></g><g><path d="M393.795,194.011c-2.261,0-4.311-1.543-4.859-3.838l-4.759-19.898c-1.722-7.206,2.409-14.16,9.405-15.832    l31.684-7.577c7.009-1.677,13.854,2.624,15.599,9.796l4.974,19.077c0.697,2.673-0.904,5.403-3.576,6.1    c-2.674,0.699-5.403-0.904-6.1-3.576l-4.985-19.122c-0.009-0.033-0.017-0.065-0.025-0.099c-0.433-1.809-1.925-2.844-3.56-2.449    l-31.685,7.577c-1.594,0.381-2.437,1.971-2.004,3.78l4.759,19.897c0.642,2.686-1.015,5.384-3.7,6.026    C394.571,193.966,394.18,194.011,393.795,194.011z" fill="#3F456B"/></g><g><path d="M393.586,164.579c-0.955,0-1.919-0.273-2.772-0.846c-0.816-0.548-20.072-13.743-27.164-43.396    C355,84.169,375.221,57.829,376.085,56.726c7.045-8.934,16.704-7.068,20.874-4.817c1.81,0.949,31.507,17.005,39.634,50.985    c7.092,29.652-4.113,50.133-4.594,50.99c-1.349,2.408-4.396,3.269-6.806,1.917c-2.403-1.347-3.264-4.384-1.926-6.79    c0.135-0.247,9.727-18.172,3.599-43.791c-7.118-29.767-34.297-44.322-34.57-44.466c-1.13-0.574-5.013-2.081-8.349,2.151    c-0.166,0.213-18.067,23.764-10.571,55.106c6.139,25.67,22.854,37.312,23.021,37.426c2.275,1.551,2.877,4.655,1.335,6.938    C396.765,163.806,395.189,164.579,393.586,164.579z" fill="#3F456B"/></g><g><path d="M321.99,118.784c-2.254,0-4.3-1.534-4.855-3.821c-0.651-2.684,0.996-5.387,3.68-6.039l18.566-4.507    c2.687-0.646,5.388,0.996,6.039,3.68s-0.996,5.387-3.68,6.039l-18.566,4.507C322.777,118.738,322.381,118.784,321.99,118.784z" fill="#3F456B"/></g><g><path d="M452.999,87.018c-2.25,0-4.294-1.529-4.853-3.812c-0.656-2.683,0.986-5.389,3.668-6.045l16.747-4.097    c2.681-0.656,5.389,0.985,6.045,3.668s-0.986,5.389-3.668,6.045l-16.747,4.097C453.792,86.971,453.393,87.018,452.999,87.018z" fill="#3F456B"/></g><g><path d="M438.516,59.751c-1.32,0-2.637-0.519-3.619-1.55c-1.906-1.998-1.831-5.163,0.168-7.068l12.726-12.135    c1.999-1.908,5.163-1.832,7.068,0.168c1.906,1.998,1.831,5.163-0.168,7.068l-12.726,12.135    C440.997,59.293,439.755,59.751,438.516,59.751z" fill="#3F456B"/></g><g><path d="M412.399,44.603c-0.466,0-0.94-0.065-1.41-0.203c-2.649-0.778-4.167-3.557-3.39-6.206l5.144-17.522    c0.777-2.649,3.555-4.166,6.206-3.39c2.649,0.778,4.167,3.557,3.39,6.206l-5.144,17.522    C416.556,43.189,414.562,44.603,412.399,44.603z" fill="#3F456B"/></g><g><path d="M382.675,44.161c-2.251,0-4.296-1.53-4.854-3.814l-4.352-17.82c-0.655-2.683,0.988-5.389,3.671-6.044    c2.686-0.649,5.389,0.988,6.044,3.671l4.352,17.82c0.655,2.683-0.988,5.389-3.671,6.044    C383.467,44.114,383.067,44.161,382.675,44.161z" fill="#3F456B"/></g><g><path d="M356.466,58.71c-1.319,0-2.637-0.519-3.619-1.549L339.83,43.513c-1.906-1.999-1.831-5.164,0.167-7.069    c2.001-1.907,5.165-1.83,7.069,0.167l13.017,13.648c1.906,1.999,1.831,5.164-0.167,7.069    C358.947,58.252,357.705,58.71,356.466,58.71z" fill="#3F456B"/></g><g><path d="M341.149,84.115c-0.466,0-0.939-0.065-1.41-0.203l-18.237-5.352c-2.649-0.777-4.167-3.556-3.39-6.206    c0.777-2.649,3.55-4.167,6.206-3.39l18.237,5.352c2.649,0.777,4.167,3.556,3.39,6.206    C345.306,82.702,343.312,84.115,341.149,84.115z" fill="#3F456B"/></g><g><path d="M451.157,87.333c-2.254,0-4.3-1.534-4.855-3.821c-0.651-2.684,0.996-5.387,3.68-6.039l18.566-4.507    c2.685-0.646,5.387,0.996,6.039,3.68c0.651,2.684-0.996,5.387-3.68,6.039l-18.566,4.507    C451.944,87.287,451.548,87.333,451.157,87.333z" fill="#3F456B"/></g><g><path d="M321.968,118.689c-2.25,0-4.295-1.529-4.853-3.813c-0.656-2.682,0.986-5.389,3.669-6.044l16.747-4.096    c2.675-0.655,5.389,0.984,6.044,3.669c0.656,2.682-0.986,5.389-3.669,6.044l-16.747,4.096    C322.761,118.643,322.361,118.689,321.968,118.689z" fill="#3F456B"/></g><g><path d="M340.482,153.993c-1.319,0-2.637-0.519-3.619-1.55c-1.906-1.998-1.831-5.163,0.168-7.068l12.726-12.136    c1.999-1.906,5.163-1.832,7.068,0.168c1.906,1.998,1.831,5.163-0.168,7.068l-12.726,12.136    C342.964,153.535,341.722,153.993,340.482,153.993z" fill="#3F456B"/></g><g><path d="M468.813,122.848c-0.466,0-0.939-0.065-1.41-0.203l-18.237-5.353c-2.649-0.778-4.167-3.557-3.39-6.206    s3.55-4.166,6.206-3.39l18.237,5.353c2.649,0.778,4.167,3.557,3.39,6.206C472.97,121.435,470.976,122.848,468.813,122.848z" fill="#3F456B"/></g><g><path d="M410.069,160.411c-2.281,0-4.342-1.571-4.87-3.891l-6.235-27.37c-0.613-2.692,1.072-5.372,3.765-5.985    c2.683-0.612,5.372,1.07,5.985,3.765l6.235,27.37c0.613,2.692-1.072,5.372-3.765,5.985    C410.812,160.37,410.438,160.411,410.069,160.411z" fill="#3F456B"/></g><g><path d="M21.235,500.18c-3.274,0-5.334-0.169-5.677-0.199c-2.75-0.244-4.783-2.671-4.539-5.422    s2.664-4.794,5.422-4.539c0.617,0.05,34.108,2.593,55.763-17.02C84.406,461.949,90.729,445.777,91,424.936    c0.436-33.533,3.013-67.964,18.787-92.63c15.125-23.649,41.073-36.766,81.66-41.275c38.022-4.225,66.086-16.132,85.794-36.4    c14.234-14.64,25.184-36.114,29.848-58.257c-16.138-1.56-32.486-4.698-47.224-10.663c-13.843-5.604-24.332-14.822-29.535-25.961    c-6.773-14.501-4.362-32.242,6-44.146c7.882-9.055,18.958-13.933,31.081-13.743c13.065,0.207,25.835,6.42,34.158,16.618    c14.372,17.61,20.383,41.853,17.157,68.754c11.588,0.654,22.87,0.605,33.066,0.359c42.708-1.021,75.61-7.74,97.793-19.97    c25.511-14.063,40.576-43.135,42.42-81.859c0.131-2.758,2.436-4.884,5.232-4.756c2.758,0.131,4.888,2.474,4.756,5.232    c-2.016,42.324-18.913,74.337-47.58,90.141c-23.604,13.013-58.051,20.148-102.382,21.21c-10.725,0.255-22.637,0.301-34.896-0.435    c-4.894,24.388-16.948,48.221-32.726,64.446c-21.392,22-51.438,34.877-91.859,39.369c-76.593,8.51-90.548,46.796-91.552,124.095    c-0.309,23.768-7.758,42.406-22.141,55.401C59.356,498.085,32.77,500.18,21.235,500.18z M266.729,111.854    c-8.956,0-17.056,3.65-22.855,10.313c-7.809,8.971-9.609,22.372-4.482,33.349c4.13,8.841,12.733,16.272,24.227,20.924    c13.933,5.639,29.597,8.592,45.126,10.048c3.017-24.355-2.214-46.118-14.922-61.688c-6.481-7.942-16.414-12.78-26.568-12.941    C267.077,111.855,266.902,111.854,266.729,111.854z" fill="#3F456B"/></g><g><path d="M490.909,67.525c-1.788-3.096-0.728-7.054,2.369-8.842c3.095-1.787,7.054-0.727,8.841,2.369    c1.787,3.095,0.727,7.054-2.369,8.842C496.654,71.682,492.697,70.62,490.909,67.525z" fill="#3F456B"/></g></g></svg>