<?xml version="1.0" ?><svg id="Lines" viewBox="0 0 512 512" xmlns="http://www.w3.org/2000/svg"><defs><style>.cls-1{fill:#3f456b;}</style></defs><title/><path class="cls-1" d="M256.93,462.85a41.84,41.84,0,0,1-24.66-8.19C228.05,451.69,123,377,46.74,273c-18.45-25.17-29.56-51.18-33-77.32a125.31,125.31,0,0,1,10-68.57,130.83,130.83,0,0,1,45.7-53.58,142.26,142.26,0,0,1,68.39-24c50.4-4.11,81,15.45,97.81,32.58a112.41,112.41,0,0,1,20.89,29.7,112.73,112.73,0,0,1,20.9-29.7c16.8-17.13,47.4-36.69,97.81-32.58a142.43,142.43,0,0,1,68.4,24,130.8,130.8,0,0,1,45.69,53.58,125.26,125.26,0,0,1,10,68.56c-3.45,26.13-14.55,52.14-33,77.3C389.68,377.48,284,452.36,280.71,454.67A39.15,39.15,0,0,1,256.93,462.85ZM151.48,59q-6.28,0-12.86.53A132.36,132.36,0,0,0,75,81.82a120.84,120.84,0,0,0-42.22,49.47c-11.12,24.36-23.06,74.4,22,135.83,76.46,104.29,182.24,178.68,183.3,179.42l.24.18c.71.55,18,13.67,36.43-.1l.14-.1c1.06-.74,106.88-75.21,183.3-179.44,45-61.42,33.11-111.45,22-135.8A120.91,120.91,0,0,0,438,81.82a132.32,132.32,0,0,0-63.58-22.33c-37.36-3.05-67.6,6.91-89.86,29.61C268,106,262.35,123.74,262.3,123.92a5,5,0,0,1-4.78,3.52h-2a5,5,0,0,1-4.78-3.52c0-.17-5.87-18.27-22.56-35.14C208.55,69,182.79,59,151.48,59Z"/></svg>