<?xml version="1.0" ?><svg viewBox="0 0 512 512" xmlns="http://www.w3.org/2000/svg"><defs><style>.cls-1{fill:#3f456b;}.cls-2{fill:none;}</style></defs><title/><g id="Lines"><path class="cls-1" d="M80.14,464.24c-14.39,0-23.88-7.31-24.22-18.74a5,5,0,0,1,10-.29c.25,8.32,10.35,9.09,14.65,9s8.33-1.68,10.46-4.15a6.71,6.71,0,0,0,1.58-5.56c-.3-2.27-1.31-4.8-9.6-6.15-.78-.13-1.55-.25-2.33-.36C73.6,437,65.58,435.74,60,427.88A14.14,14.14,0,0,1,57.6,417,19.73,19.73,0,0,1,66,404.63c6.18-4.19,15.62-4.84,23.49-1.61a22.79,22.79,0,0,1,12.62,12.6,5,5,0,1,1-9.31,3.64,12.92,12.92,0,0,0-7.11-7c-4.74-1.94-10.66-1.68-14.07.64a9.88,9.88,0,0,0-4.21,5.84,4.2,4.2,0,0,0,.74,3.36c2.95,4.16,7.24,5,14,6,.82.12,1.63.24,2.44.38,4,.66,16.33,2.66,17.91,14.72a16.64,16.64,0,0,1-3.93,13.41c-4,4.66-10.73,7.51-17.89,7.6Z"/><path class="cls-1" d="M80.06,411a5,5,0,0,1-5-5V393.59a5,5,0,0,1,10,0V406A5,5,0,0,1,80.06,411Z"/><path class="cls-1" d="M80.06,476.85a5,5,0,0,1-5-5V459.49a5,5,0,0,1,10,0v12.36A5,5,0,0,1,80.06,476.85Z"/><path class="cls-1" d="M80.13,500a68.34,68.34,0,1,1,68.34-68.34h0A68.43,68.43,0,0,1,80.13,500Zm0-126.67a58.34,58.34,0,1,0,58.34,58.33A58.4,58.4,0,0,0,80.13,373.33Z"/><path class="cls-1" d="M261.76,500.78c-46.81,0-89.88-11.74-128-34.92a5,5,0,1,1,5.19-8.54c36.55,22.2,77.87,33.46,122.82,33.46a5,5,0,0,1,0,10Z"/><path class="cls-1" d="M51.69,379.85a5,5,0,0,1-3.2-8.84l88-73.49a5,5,0,1,1,6.41,7.67l-88,73.5A5,5,0,0,1,51.69,379.85Z"/><path class="cls-1" d="M462,382a5,5,0,0,1-3.29-1.23l-86.58-75.52a5,5,0,1,1,6.57-7.53l86.59,75.51A5,5,0,0,1,462,382Z"/><path class="cls-1" d="M261.76,500.78a5,5,0,0,1,0-10c44.1,0,83.82-10.64,118.07-31.63a5,5,0,1,1,5.23,8.52C349.21,489.64,307.73,500.78,261.76,500.78Z"/><path class="cls-1" d="M393.11,263.32a5,5,0,0,1-.26-10c13.38-.71,23.86-11.46,23.86-24.49a24,24,0,0,0-7.7-17.63,5,5,0,1,1,6.84-7.29,33.85,33.85,0,0,1,10.86,24.92c0,18.35-14.64,33.49-33.34,34.47Z"/><path class="cls-1" d="M121,263.3h-.32c-18.48-1.16-33-16.29-33-34.45a34,34,0,0,1,10-24.08,5,5,0,0,1,7.1,7.05,24,24,0,0,0-7.08,17c0,12.89,10.36,23.64,23.59,24.47a5,5,0,0,1-.31,10Z"/><path class="cls-1" d="M321.61,303H194.12c-7.19,0-10.65-3-12.29-5.48-3.82-5.84-.75-13.33-.38-14.16C198.18,244.91,253.1,245,255.87,245h4.2c2.27,0,57.5-.25,74.31,38.36.36.86,3.38,8.33-.46,14.16C332.27,300,328.79,303,321.61,303Zm-65.89-48c-2.21,0-51.21.42-65.1,32.35-.57,1.34-1,3.81-.42,4.69.29.44,1.5,1,3.92,1H321.61c2.44,0,3.66-.53,4-1,.64-1,.09-3.61-.38-4.69C311,254.76,260.64,255,260.13,255h-4.41Z"/><path class="cls-1" d="M117,228.33a5,5,0,0,1-3.2-1.15,134.39,134.39,0,0,1-32.72-41c-10.08-19.86-13.3-40.45-9.31-59.55,2.89-13.83,10-32.09,27.38-40.55A40.31,40.31,0,0,1,119.24,82H153a5,5,0,0,1,0,10H119a4,4,0,0,1-.6,0c-1.14-.12-28.61-2.64-36.84,36.73-3.57,17.09-.73,34.91,8.44,53a123.8,123.8,0,0,0,30.2,37.83,5,5,0,0,1-3.2,8.84Z"/><path class="cls-1" d="M397.84,227.33a5,5,0,0,1-3.2-8.84C417.34,199.63,432,164,432,127.67c0-10.6-3.07-19-9.13-25C412,91.94,395,92,394.73,92H361a5,5,0,0,1,0-10h33.67c.79,0,21.29-.17,35.16,13.48,8.08,8,12.17,18.78,12.17,32.19,0,39.16-16.08,77.83-41,98.51A5,5,0,0,1,397.84,227.33Z"/><path class="cls-1" d="M257,369.94c-80,0-145-65.14-145-145.22V181.47c0-80.07,65.06-145.22,145-145.22s145,65.14,145,145.21l.09,43.25C402.16,304.8,337.06,369.94,257,369.94Zm0-323.69c-74.46,0-135,60.66-135,135.22v43.25c0,74.56,60.58,135.22,135,135.22s135.12-60.66,135.12-135.22l-.09-43.24h0C392.07,106.91,331.49,46.25,257,46.25Zm145,135.22h0Z"/><path class="cls-2" d="M392,407.06c3.51,21.76,24.43,36.48,46.72,32.89s37.52-24.15,34-45.91S448.27,357.56,426,361.16,388.46,385.31,392,407.06Z"/><path class="cls-2" d="M377.43,438c5.22,32.32,36,54.24,68.84,48.94s55.17-35.78,50-68.1-36-54.24-68.84-48.95S372.22,405.67,377.43,438Z"/><path class="cls-1" d="M433.16,495.33a63.66,63.66,0,0,1-63.26-57.09,5,5,0,0,1,10-1.09A53.63,53.63,0,0,0,405.8,477.8c25.72,15.32,59.3,6.52,74.87-19.61S488,398.33,462.27,383a53.75,53.75,0,0,0-46.68-4,5,5,0,0,1-3.52-9.36,63.67,63.67,0,0,1,55.32,4.8c30.45,18.14,40.26,58,21.87,88.88A65.38,65.38,0,0,1,433.16,495.33Z"/><path class="cls-1" d="M433.16,495.33a63.67,63.67,0,0,1-63.3-57.46,5,5,0,1,1,9.95-1,53.65,53.65,0,0,0,26,41c25.72,15.31,59.3,6.52,74.87-19.61S488,398.33,462.27,383a53.68,53.68,0,0,0-47.69-3.64,5,5,0,0,1-3.7-9.29,63.59,63.59,0,0,1,56.51,4.34c30.45,18.14,40.26,58,21.87,88.88A65.4,65.4,0,0,1,433.16,495.33Z"/><path class="cls-1" d="M208,421h-.26a5,5,0,0,1-3.68-1.91c-25.36-32.46-32.14-58.76-32.41-59.87a5,5,0,0,1,9.7-2.43h0c.06.24,6,23,27.09,51.54l44.95-46.78a5,5,0,1,1,7.22,6.92l-49,51A5,5,0,0,1,208,421Z"/><path class="cls-1" d="M176.5,485a5,5,0,0,1-5-5V339.47a5,5,0,0,1,10,0V480A5,5,0,0,1,176.5,485Z"/><path class="cls-1" d="M295.46,410.55a5,5,0,0,1-3.6-1.53l-39-40.56a5,5,0,0,1,7.22-6.92l39,40.55a5,5,0,0,1-3.61,8.46Z"/><path class="cls-1" d="M337,379.62a5,5,0,0,1-5-5V340.47a5,5,0,0,1,10,0v34.15A5,5,0,0,1,337,379.62Z"/><path class="cls-1" d="M337,487a5,5,0,0,1-5-5V447.83a5,5,0,1,1,10,0V482A5,5,0,0,1,337,487Z"/><path class="cls-1" d="M272,421H240a5,5,0,0,1-4.1-2.13c-7.71-11-8.84-26.87-8.89-27.54a5,5,0,0,1,10-.67h0c0,.13.86,11.71,5.76,20.34H269.3A54.15,54.15,0,0,0,276,390.38a5,5,0,1,1,9.92,1.24c-2.14,17.17-9.69,27-10,27.45A5,5,0,0,1,272,421Z"/><path class="cls-1" d="M224.75,498a5.31,5.31,0,0,1-1-.09,5,5,0,0,1-3.94-5.88l15.26-77a5,5,0,0,1,9.8,1.94l-15.25,77A5,5,0,0,1,224.75,498Z"/><path class="cls-1" d="M288.5,498.6a5,5,0,0,1-4.89-4L267.11,417a5,5,0,1,1,9.78-2.08l16.5,77.6a5,5,0,0,1-3.85,5.93A5.33,5.33,0,0,1,288.5,498.6Z"/><path class="cls-1" d="M419.93,459.49a45.92,45.92,0,0,1-26.52-8.39,44.24,44.24,0,0,1-10.13-62.78,46.61,46.61,0,0,1,64-10.32,44.22,44.22,0,0,1,10.13,62.78,46.13,46.13,0,0,1-29.9,18.1A47.18,47.18,0,0,1,419.93,459.49Zm.8-79.88a37.39,37.39,0,0,0-6,.48,36.14,36.14,0,0,0-23.46,14.19,34.19,34.19,0,0,0-6.41,26h0a34.17,34.17,0,0,0,14.26,22.65,36.59,36.59,0,0,0,50.18-8.09,34.23,34.23,0,0,0-7.85-48.65A35.94,35.94,0,0,0,420.73,379.61Z"/><path class="cls-1" d="M419.93,459.49a45.92,45.92,0,0,1-26.52-8.39,44.24,44.24,0,0,1-10.13-62.78,46.61,46.61,0,0,1,64-10.32,44.22,44.22,0,0,1,10.13,62.78,46.13,46.13,0,0,1-29.9,18.1A47.18,47.18,0,0,1,419.93,459.49Zm.8-79.88a37.39,37.39,0,0,0-6,.48,36.14,36.14,0,0,0-23.46,14.19,34.19,34.19,0,0,0-6.41,26h0a34.17,34.17,0,0,0,14.26,22.65,36.59,36.59,0,0,0,50.18-8.09,34.23,34.23,0,0,0-7.85-48.65A35.94,35.94,0,0,0,420.73,379.61Z"/><path class="cls-1" d="M367.63,452H308.37a5,5,0,0,1-4.34-2.52c-14.06-24.58-14-57.27-14-60.1-.06-1.54-.05-9.19,5-14.53A16.26,16.26,0,0,1,307.18,370h60.88c7.21,0,17.94,5.14,17.94,19.31,0,1.34.37,35-14,60.17A5,5,0,0,1,367.63,452Zm-56.28-10h53.31C376.29,419.47,376,389.69,376,389.38c0-8.93-6.61-9.38-7.94-9.38H307.18a6.42,6.42,0,0,0-4.9,1.73C300.18,384,300,388.06,300,389c0,.12,0,.23,0,.35C300,389.69,299.72,419.47,311.35,442Z"/><path class="cls-1" d="M480,392.43a5,5,0,0,1-5-5V212.56H412.43a5,5,0,0,1,0-10H480a5,5,0,0,1,5,5V387.43A5,5,0,0,1,480,392.43Z"/><path class="cls-1" d="M28.15,355.4a5,5,0,0,1-5-5V324.14a5,5,0,0,1,5-5h83.68a5,5,0,0,1,0,10H33.15v16.25L80,345.33h0a5,5,0,0,1,0,10l-51.86.07Z"/><path class="cls-1" d="M105.3,329.14a5,5,0,0,1-5-5V305.33H50.38v18.81a5,5,0,0,1-10,0V300.33a5,5,0,0,1,5-5H105.3a5,5,0,0,1,5,5v23.81A5,5,0,0,1,105.3,329.14Z"/><path class="cls-1" d="M17.48,159.35a5,5,0,0,1-5-5V125.73a5,5,0,0,1,2.43-4.29L198.15,11.85a5,5,0,0,1,5.11,0L245.71,37a5,5,0,0,1-5.09,8.61L200.73,22,22.48,128.57v20.78l52.52,0h0a5,5,0,0,1,0,10l-57.52,0Z"/><path class="cls-1" d="M81.32,183H45.38a5,5,0,0,1-5-5v-23.8a5,5,0,0,1,10,0V173H81.32a5,5,0,1,1,0,10Z"/><path class="cls-1" d="M98.73,305.33a5,5,0,0,1-5-5V247a5,5,0,0,1,10,0v53.33A5,5,0,0,1,98.73,305.33Z"/><path class="cls-1" d="M51.08,305.33a5,5,0,0,1-5-5V178a5,5,0,0,1,10,0V300.33A5,5,0,0,1,51.08,305.33Z"/><path class="cls-1" d="M424,68.2H368a5,5,0,0,1-5-5V15a5,5,0,0,1,5-5h56a5,5,0,0,1,5,5V63.2A5,5,0,0,1,424,68.2Zm-51-10h46V20H373Z"/><path class="cls-1" d="M480,84.76H424a5,5,0,0,1-5-5V31.56a5,5,0,0,1,5-5h56a5,5,0,0,1,4.55,7.07l-10.05,22,10.05,22A5,5,0,0,1,480,84.76Zm-51-10h43.22l-7.77-17a5,5,0,0,1,0-4.15l7.77-17H429Z"/><path class="cls-1" d="M368,92a5,5,0,0,1-5-5V38a5,5,0,0,1,10,0V87A5,5,0,0,1,368,92Z"/><path class="cls-1" d="M213,196H193a5,5,0,0,1,0-10h20a5,5,0,0,1,0,10Z"/><path class="cls-1" d="M320,196H300a5,5,0,0,1,0-10h20a5,5,0,0,1,0,10Z"/></g><g id="Outline"><path class="cls-1" d="M74.76,305a5,5,0,0,1-5-5V178.36a5,5,0,0,1,10,0V300A5,5,0,0,1,74.76,305Z"/><path class="cls-1" d="M224,497a5,5,0,0,1-1.58-9.74l60-20a5,5,0,0,1,3.16,9.48l-60,20A4.84,4.84,0,0,1,224,497Z"/><path class="cls-1" d="M232,470a5,5,0,0,1-1.55-9.75l46-15a5,5,0,1,1,3.1,9.5l-46,15A4.93,4.93,0,0,1,232,470Z"/><path class="cls-1" d="M235,446a5,5,0,0,1-1.51-9.77l38-12a5,5,0,0,1,3,9.54l-38,12A5,5,0,0,1,235,446Z"/><path class="cls-1" d="M235,406a5,5,0,0,1-1.51-9.77l41-13a5,5,0,0,1,3,9.54l-41,13A5,5,0,0,1,235,406Z"/><path class="cls-1" d="M449,244H422a5,5,0,0,1,0-10h27a5,5,0,0,1,0,10Z"/><path class="cls-1" d="M449,277H389a5,5,0,0,1,0-10h60a5,5,0,0,1,0,10Z"/><path class="cls-1" d="M449,309H379a5,5,0,0,1,0-10h70a5,5,0,0,1,0,10Z"/><path class="cls-1" d="M449,341H416a5,5,0,0,1,0-10h33a5,5,0,0,1,0,10Z"/></g></svg>