<?xml version="1.0" ?><svg id="Lines" viewBox="0 0 512 512" xmlns="http://www.w3.org/2000/svg"><defs><style>.cls-1{fill:#3f456b;}</style></defs><title/><path class="cls-1" d="M96,167a5,5,0,0,1-5-5v-1a5,5,0,0,1,10,0v1A5,5,0,0,1,96,167Z"/><path class="cls-1" d="M96,138a5,5,0,0,1-5-5v-1a5,5,0,0,1,10,0v1A5,5,0,0,1,96,138Z"/><path class="cls-1" d="M352,468a5,5,0,0,1-5-5V446.06A10.09,10.09,0,0,0,336.67,436H207.33A10.09,10.09,0,0,0,197,446.06V463a5,5,0,0,1-10,0V446.06A20,20,0,0,1,207.33,426H336.67A20,20,0,0,1,357,446.06V463A5,5,0,0,1,352,468Z"/><path class="cls-1" d="M486,501H57a15,15,0,0,1-15-15V106a5,5,0,0,1,10,0V486a5,5,0,0,0,5,5H486a4.89,4.89,0,0,0,5-4.88c0-2.17.25-217.54.25-231.62,0-2.65-.69-4.59-2.1-5.93-2.83-2.7-7.86-2.58-7.9-2.58H151.5a12.21,12.21,0,0,1-9.05-3.73c-4.49-4.68-4.49-12-4.45-13.35V98a5,5,0,0,1,10,0V229.21c-.05,1.38.31,4.74,1.67,6.15a2.27,2.27,0,0,0,1.83.64H480.9c1.46-.05,9.49-.06,15.15,5.33,3.4,3.23,5.2,7.79,5.2,13.17,0,14.09-.25,229.46-.25,231.63A15,15,0,0,1,486,501Z"/><path class="cls-1" d="M496,404H47a5,5,0,0,1,0-10H496a5,5,0,0,1,0,10Z"/><path class="cls-1" d="M352,372a5,5,0,0,1-5-5V350.06A10.09,10.09,0,0,0,336.67,340H207.33A10.09,10.09,0,0,0,197,350.06V367a5,5,0,0,1-10,0V350.06A20,20,0,0,1,207.33,330H336.67A20,20,0,0,1,357,350.06V367A5,5,0,0,1,352,372Z"/><path class="cls-1" d="M496,308H47a5,5,0,0,1,0-10H496a5,5,0,0,1,0,10Z"/><path class="cls-1" d="M47.38,108.67c-.21,0-.42,0-.63,0a5,5,0,0,1-4.34-5.58L52,25.74A15,15,0,0,1,67,11H255a15.13,15.13,0,0,1,15,14.83l4.72,30.26,210.49.24c1.74-.09,8.55-.16,12.7,3.74a9.71,9.71,0,0,1,3.1,7.26V91a8.36,8.36,0,0,1-2.44,5.73C495.87,99.56,491.3,101,485,101H52.74l-.41,3.28A5,5,0,0,1,47.38,108.67ZM491,91.23v0Zm0,0h0Zm0,0h0ZM54,91H485c3.7,0,5.37-.63,6-1V67.31c-.64-.56-3.14-1.11-5.37-1h-.3l-214.91-.24a5,5,0,0,1-4.94-4.23L260.06,27a5,5,0,0,1-.06-.77A5.2,5.2,0,0,0,255,21H67a5,5,0,0,0-5,5.08,4.21,4.21,0,0,1,0,.62Z"/><path class="cls-1" d="M270.42,66.09a5,5,0,0,1-1.05-9.89L478.61,11.11a5,5,0,0,1,2.11,9.78L271.48,66A5.53,5.53,0,0,1,270.42,66.09Z"/><path class="cls-1" d="M47,453H25a15,15,0,0,1-15-15V202a15,15,0,0,1,15-15H47a5,5,0,0,1,0,10H25a5,5,0,0,0-5,5V438a5,5,0,0,0,5,5H47a5,5,0,0,1,0,10Z"/><path class="cls-1" d="M496,260a5,5,0,0,1-5-5V189c0-4.18-1.09-7.08-3.33-8.89-4.13-3.33-11.77-2.61-14.13-2.1a4,4,0,0,1-.48.08L208.56,209c-6,.7-10.9-.58-14.45-3.83-5-4.55-5.12-11.09-5.11-12.18V154.67a12.82,12.82,0,0,1,3.85-9.41c5-4.9,13.1-5,14.36-4.93L486,140a5,5,0,0,0,5-5V106a5,5,0,0,0-5-5H143a5,5,0,0,1,0-10H486a15,15,0,0,1,15,15v29a15,15,0,0,1-15,15l-278.83.33H207c-1.61,0-5.55.46-7.22,2.1a2.8,2.8,0,0,0-.82,2.24v38.46h0s.06,3,1.89,4.67c1.32,1.17,3.51,1.58,6.51,1.23l264.28-30.85c2.29-.46,14.12-2.42,22.27,4.15,3.21,2.59,7.05,7.59,7.05,16.67v66A5,5,0,0,1,496,260Z"/><path class="cls-1" d="M447,180a5,5,0,0,1-5-5V145a5,5,0,0,1,10,0v30A5,5,0,0,1,447,180Z"/><path class="cls-1" d="M234,101a5,5,0,0,1-5-5V51H94V96a5,5,0,0,1-10,0V46a5,5,0,0,1,5-5H234a5,5,0,0,1,5,5V96A5,5,0,0,1,234,101Z"/></svg>