<?xml version="1.0" ?><svg id="Lines" viewBox="0 0 512 512" xmlns="http://www.w3.org/2000/svg"><defs><style>.cls-1{fill:#3f456b;}</style></defs><title/><path class="cls-1" d="M112.5,222.84a5,5,0,0,1-2-.4,91.66,91.66,0,0,1-26.66-17.39c-17.58-16.41-28.52-40.87-30.8-68.88-3.22-39.72,11-78.77,33.82-92.86,11.57-7.14,20.25-8.53,26.54-4.25,4.58,3.11,6.46,8.56,7.11,13.74,11.14-9.91,31.52-25.53,54.67-31.25,11.22-2.77,19.29-1.39,24,4.11,3.26,3.83,4.1,8.92,3.88,13.77,13.52-9.57,37.32-21.25,64.95-12,15.28,5.14,24,18.29,24,36.08,0,13.17-4.94,28-13.45,40.77A73.75,73.75,0,0,1,254,127.76a23.85,23.85,0,0,1,9,19.35c-.09,17.76-15.78,37.39-49.81,41a5,5,0,0,1-9.68,1.89,21.76,21.76,0,0,0-1.76-3.67,5,5,0,0,1,4-7.71c32.35-1.23,47.16-17.22,47.24-31.56.07-12-11.08-14.61-11.56-14.72a5,5,0,0,1-.5-9.63c24.55-8.11,41.09-37.15,41.15-59.17,0-9.48-2.93-21.79-17.17-26.58-36-12.11-66,19-66.35,19.34a5,5,0,0,1-8.24-5.39c1.87-4.43,4.67-14.86,1.33-18.77-2-2.3-6.92-2.61-13.95-.87C146.33,39,119.23,67.91,119,68.2a5,5,0,0,1-8.6-4.27c.94-5.36.77-14.36-2.54-16.6-2.5-1.69-8.36,0-15.66,4.49-19.49,12-32,47.94-29.11,83.54C65.12,160.88,74.94,183,90.7,197.74a81.72,81.72,0,0,0,23.76,15.5,5,5,0,0,1-2,9.6Z"/><path class="cls-1" d="M17,237a5,5,0,0,1-4-8C35.52,199.24,82.39,152.38,177.76,98A1068.83,1068.83,0,0,1,283.07,45.38a5,5,0,0,1,3.84,9.24A1055.26,1055.26,0,0,0,182.6,106.78C69.08,171.49,69.08,171.49,21,235A5,5,0,0,1,17,237Z"/><path class="cls-1" d="M100,159a5,5,0,0,1-3.61-1.54c-21.18-22.09-9.62-53.62-.55-67.21a5,5,0,0,1,8.32,5.55h0a69.76,69.76,0,0,0-8.37,19.79c-3.45,14.19-.82,25.95,7.82,34.95A5,5,0,0,1,100,159Z"/><path class="cls-1" d="M175.22,157.9c-21,0-36.5-8.85-45-25.62a5,5,0,0,1,8.93-4.51c16.49,32.62,61.57,15.74,62,15.56a5,5,0,0,1,3.59,9.34,91.06,91.06,0,0,1-28.87,5.23Z"/><path class="cls-1" d="M170.49,113a5,5,0,0,1-3.15-1.12C150,97.81,158.06,74,164.75,63.34a5,5,0,0,1,8.47,5.31h0a50.4,50.4,0,0,0-5.59,14c-2,9.33,0,16.53,6,21.42a5,5,0,0,1-3.15,8.88Z"/><path class="cls-1" d="M175.89,405.26A111.66,111.66,0,0,1,153.48,403c-47.1-9.65-78.42-45-79.8-90a138.06,138.06,0,0,1,11.89-59.65c9-20.08,22.45-36.29,38.83-46.88,32.41-21,70-26,108.81-14.43,34.71,10.32,67,33,91,63.77,3.08,4,6.06,7.93,8.95,11.78,11.17,14.9,21.71,29,34.53,37.25a5,5,0,0,1,1.63,6.66c-.37.65-9.25,16.09-29.73,31.42C321.19,356.67,289.45,373,242.39,373,228,395.78,202,405.26,175.89,405.26ZM193,196a114.46,114.46,0,0,0-63.15,18.84c-33.29,21.53-47.16,64.65-46.15,97.83.62,20.33,7.91,38.65,21.1,53,12.73,13.83,30.27,23.36,50.71,27.55,32.55,6.66,71.06-2,83.74-36.31,8.36-22.64,5.2-48.12-8-64.9-8.39-10.63-22-17.61-36.43-18.68-13.41-1-25.74,3.12-34.72,11.58a34.69,34.69,0,0,0-9.69,32.65c2.51,11.38,9.95,19.9,20.41,23.39,8.82,2.94,15.88,2.78,21-.47,7.64-4.85,9.08-15.41,9.1-15.52a5,5,0,0,1,9.93,1.17c-.08.62-1.93,15.34-13.67,22.79-7.77,4.94-17.7,5.45-29.51,1.52-13.68-4.57-23.78-16-27-30.73a44.73,44.73,0,0,1,12.59-42.09c11.05-10.39,26.06-15.46,42.31-14.26,17.17,1.27,33.45,9.66,43.55,22.46,15.36,19.45,19.12,48.72,9.58,74.56-.33.88-.67,1.74-1,2.6,68.67-1.92,101.7-40.31,110.55-52.64-12.36-9.28-22.39-22.66-32.95-36.75-2.86-3.81-5.82-7.76-8.84-11.63-22.39-28.76-53.73-50.75-86-60.33A131.64,131.64,0,0,0,193,196Z"/><path class="cls-1" d="M349,300a5,5,0,0,1-2.05-.44,5,5,0,0,1-2.51-6.61c11.92-26.48,28.58-44.46,50.94-55,14-6.57,31.19-10.13,46-9.51a5,5,0,1,1-.42,10A92.68,92.68,0,0,0,399.64,247c-20.11,9.46-35.19,25.82-46.08,50A5,5,0,0,1,349,300Z"/><path class="cls-1" d="M310.26,468.17c-4.06,0-6.74-.22-7.63-.3H41c-10.89,0-20.32-3.82-25.23-10.23-2.69-3.52-5.39-9.58-3-18.5,6.68-24.69,42-26.23,61-27.05,39.63-1.72,62.17-21.7,62.4-21.9a5,5,0,0,1,6.73,7.4c-1,.92-25.25,22.6-68.69,24.49-15.25.66-47,2-51.74,19.67-1.1,4.06-.68,7.26,1.26,9.81,3,3.89,9.61,6.31,17.29,6.31H302.87a4.71,4.71,0,0,1,.53,0,125.33,125.33,0,0,0,53.41-8.75c37-14.89,60.92-45.67,71.16-91.5.54-4.71,6.73-54,31.63-69.37,9.45-5.82,15.68-16.2,15.49-25.83-.16-7.72-4.27-14.06-11.9-18.35-.66-.37-1.35-.73-2-1.07a5,5,0,1,1,4.34-9c.88.43,1.76.89,2.6,1.36,10.74,6,16.77,15.58,17,26.87.27,13.26-7.68,26.82-20.24,34.55-8.64,5.32-16,17.58-21.36,35.48A167.71,167.71,0,0,0,437.89,359a5.3,5.3,0,0,1-.1.55c-13.71,61.74-49.8,87.93-77.66,99A137.61,137.61,0,0,1,310.26,468.17Z"/><path class="cls-1" d="M461,253a4.44,4.44,0,0,1-.63,0,5,5,0,0,1-4.34-5.58c7-56.3,23.86-87.48,24.58-88.78a5,5,0,0,1,2.59-2.27,10.76,10.76,0,0,0,7.23-9.17c.32-3.38-.92-6.56-3.09-7.92a7.52,7.52,0,0,0-6.45-.9,10.54,10.54,0,0,0-5.1,16.41,5,5,0,0,1,.67,5.49A573.69,573.69,0,0,0,443.8,245.4a5,5,0,1,1-9.6-2.8,594.09,594.09,0,0,1,32.07-84.25,20.28,20.28,0,0,1-.84-18.38A20.55,20.55,0,0,1,478,128.77a17.64,17.64,0,0,1,14.68,2c5.39,3.37,8.43,10.18,7.74,17.35a20.6,20.6,0,0,1-11.75,16.76c-3.31,6.7-16.73,36.15-22.68,83.75A5,5,0,0,1,461,253Z"/><path class="cls-1" d="M401.43,245.26a5,5,0,0,1-4.94-4.27c-6.36-43.24-18.51-69.8-21.64-76.12a20.58,20.58,0,0,1-11.75-16.76c-.69-7.17,2.35-14,7.74-17.35a17.63,17.63,0,0,1,14.67-2A20.55,20.55,0,0,1,398.06,140a20.28,20.28,0,0,1-.85,18.38,594.08,594.08,0,0,1,29.15,74.57,5,5,0,1,1-9.54,3A572.38,572.38,0,0,0,387,160.24a5,5,0,0,1,.67-5.49,10.54,10.54,0,0,0-5.1-16.41,7.52,7.52,0,0,0-6.45.9c-2.17,1.36-3.41,4.54-3.09,7.92a10.76,10.76,0,0,0,7.23,9.17,5,5,0,0,1,2.59,2.27c.65,1.18,16,29.52,23.51,80.93a5,5,0,0,1-4.22,5.68A6,6,0,0,1,401.43,245.26Z"/><path class="cls-1" d="M302,312a5,5,0,0,1-1.56-9.75c24.85-8.16,32.77-22.74,32.84-22.89a5,5,0,0,1,8.85,4.66c-.39.75-9.92,18.32-38.57,27.73A5,5,0,0,1,302,312Z"/><path class="cls-1" d="M284.82,278a5,5,0,0,1-2-9.57c18.75-8.29,24.18-20.76,24.23-20.89a5,5,0,1,1,9.28,3.72c-.26.66-6.73,16.27-29.47,26.32A5,5,0,0,1,284.82,278Z"/><path class="cls-1" d="M261,250a5,5,0,0,1-2.34-9.42c14.87-7.86,18.56-18.8,18.71-19.26a5,5,0,0,1,9.55,3c-.19.62-4.85,15.23-23.58,25.13A5.06,5.06,0,0,1,261,250Z"/><path class="cls-1" d="M231,235a5,5,0,0,1-3.67-8.39c10.5-11.38,11.09-25.84,11.1-26a5,5,0,0,1,5-4.84h.16a5,5,0,0,1,4.85,5.12,54.1,54.1,0,0,1-13.76,32.48A5,5,0,0,1,231,235Z"/><path class="cls-1" d="M193,228a5,5,0,0,1-1.41-.2,5,5,0,0,1-3.39-6.21,51.9,51.9,0,0,0-.24-28.92,5,5,0,0,1,9.42-3.35,61.79,61.79,0,0,1,.42,35.09A5,5,0,0,1,193,228Z"/><path class="cls-1" d="M151,239a5,5,0,0,1-5-5,33.5,33.5,0,0,0-11.68-25.34,5,5,0,1,1,6-8A43.51,43.51,0,0,1,156,234,5,5,0,0,1,151,239Z"/><path class="cls-1" d="M121,267a5,5,0,0,1-4.21-2.3C109.24,253,94.2,251.8,94.05,251.79a5,5,0,0,1,.68-10c.82.06,20.23,1.56,30.48,17.49A5,5,0,0,1,121,267Z"/><path class="cls-1" d="M112,305a4.88,4.88,0,0,1-1.86-.36c-13.23-5.3-29.56-.57-29.72-.52a5,5,0,0,1-2.84-9.59c.81-.24,19.85-5.74,36.28.83A5,5,0,0,1,112,305Z"/><path class="cls-1" d="M89.67,358.3a5,5,0,0,1-3.39-8.68c.59-.55,14.8-13.5,30.36-14.61a5,5,0,1,1,.72,10c-10.06.72-21,8.89-24.31,12A5,5,0,0,1,89.67,358.3Z"/><path class="cls-1" d="M131,395.47a5,5,0,0,1-4.68-6.74c.22-.6,5.53-14.74,15.35-23.47a5,5,0,0,1,6.64,7.48c-8,7.09-12.57,19.34-12.61,19.46A5,5,0,0,1,131,395.47Z"/><path class="cls-1" d="M189.25,404a5,5,0,0,1-4.77-3.51c-4-12.68-3.5-26.12-3.48-26.68a5,5,0,0,1,10,.38c0,.25-.39,12.39,3,23.32a5,5,0,0,1-3.28,6.26A4.82,4.82,0,0,1,189.25,404Z"/><path class="cls-1" d="M240,364.23c-11.39,0-18.53-4.9-18.86-5.14a5,5,0,0,1,5.71-8.21c.33.23,6.57,4.28,16.6,3.15a5,5,0,1,1,1.12,9.94A40.54,40.54,0,0,1,240,364.23Z"/><path class="cls-1" d="M227,320a5,5,0,0,1-.64-10c.16,0,9.6-1.33,16.13-5.85a5,5,0,1,1,5.69,8.23c-8.58,5.93-20,7.48-20.52,7.54A4.87,4.87,0,0,1,227,320Z"/><path class="cls-1" d="M204,292a5,5,0,0,1-4.05-7.93c.13-.2,2.56-3.94,4.66-13.63a5,5,0,1,1,9.78,2.12c-2.6,12-5.78,16.63-6.39,17.44A5,5,0,0,1,204,292Z"/><path class="cls-1" d="M170,298a5,5,0,0,1-4.24-2.35,31.65,31.65,0,0,0-11-10.19,5,5,0,0,1,4.49-8.93,41.49,41.49,0,0,1,15,13.82A5,5,0,0,1,170,298Z"/><path class="cls-1" d="M154,340.61a5,5,0,0,1-4-8,37.7,37.7,0,0,1,15.25-11.28,5,5,0,1,1,3.52,9.36,27.71,27.71,0,0,0-10.81,8A5,5,0,0,1,154,340.61Z"/></svg>