<?xml version="1.0" ?><svg viewBox="0 0 512 512" xmlns="http://www.w3.org/2000/svg"><defs><style>.cls-1{fill:#3f456b;}</style></defs><title/><g id="Lines"><path class="cls-1" d="M496,138H401.26c-8.46,0-15.26-2.62-20.23-7.79-8.11-8.43-8.07-20.64-8-22.09V16h10v92.39c0,.07-.22,9.27,5.28,14.93,3,3.11,7.38,4.68,13,4.68H496Z"/><path class="cls-1" d="M469.68,468H430a5,5,0,0,1,0-10h39.68c11.75,0,21.32-10.6,21.32-23.62V135.62c0-11.37-10.55-24.31-14.62-28.33-.67-.68-62.23-63.27-75-76.09A39.34,39.34,0,0,0,375.67,20H156.05A23.34,23.34,0,0,0,133,43V167a5,5,0,0,1-10,0V43c0-17.89,15.13-33,33.05-33H375.59a48.69,48.69,0,0,1,32.82,14.13c12.84,12.85,74.43,75.47,75,76.1S501,117.8,501,135.62V434.38C501,452.92,487,468,469.68,468Z"/><g data-name="&lt;编组&gt;" id="_编组_"><path class="cls-1" d="M263.11,383l-6.84-7.29a122.23,122.23,0,0,0-83.64-211.36,122.33,122.33,0,0,0-120.45,143L42.32,309a133.94,133.94,0,0,1-1.89-22.4c0-72.91,59.31-132.23,132.2-132.23A132.25,132.25,0,0,1,304.86,286.59,132.74,132.74,0,0,1,263.11,383Z"/><path class="cls-1" d="M216,313.18l-8.51-5.24A40.81,40.81,0,1,0,134,299.71l-9.47,3.21A50.82,50.82,0,1,1,216,313.18Z"/></g><path class="cls-1" d="M422.49,501H29.57A18.5,18.5,0,0,1,11,482.17v-6.92A18.22,18.22,0,0,1,29.57,457H422.49C433,457,441,464.84,441,475.25v6.92A18.47,18.47,0,0,1,422.49,501ZM29.57,467c-5,0-8.57,3.47-8.57,8.25v6.92A8.61,8.61,0,0,0,29.57,491H422.49a8.58,8.58,0,0,0,8.51-8.83v-6.92c0-4.78-3.58-8.25-8.51-8.25Z"/><path class="cls-1" d="M400,311a5,5,0,0,1-3.12-1.1L246.15,189.23a5,5,0,1,1,6.25-7.8L403.12,302.1A5,5,0,0,1,400,311Z"/><path class="cls-1" d="M428,462H418V341.9c0-32-32.6-34.74-35.22-34.9H348.65l-19.76,74.29a5,5,0,0,1-4.83,3.71H247.34a5,5,0,0,1-4.44-2.72L204.24,307H71.72c-10.85,0-19.34,3-25.25,8.92-9.39,9.41-9.47,23.4-9.47,23.54V462H27V339.49c0-.69,0-18.11,12.3-30.54C47.16,301,58.07,297,71.72,297H207.3a5,5,0,0,1,4.45,2.72L250.4,375h69.82L340,300.71a5,5,0,0,1,4.83-3.71h38.38a59.19,59.19,0,0,1,22.09,6.34C415.65,308.78,428,319.88,428,341.9Z"/></g><g id="Outline"><path class="cls-1" d="M330.33,106H190a5,5,0,0,1,0-10H330.33a5,5,0,0,1,0,10Z"/><path class="cls-1" d="M330.33,154H256a5,5,0,0,1,0-10h74.33a5,5,0,0,1,0,10Z"/><path class="cls-1" d="M437,199H321a5,5,0,0,1,0-10H437a5,5,0,0,1,0,10Z"/><path class="cls-1" d="M437,247H369a5,5,0,0,1,0-10h68a5,5,0,0,1,0,10Z"/><path class="cls-1" d="M437,292H417a5,5,0,0,1,0-10h20a5,5,0,0,1,0,10Z"/></g></svg>