<?xml version="1.0" ?><svg viewBox="0 0 512 512" xmlns="http://www.w3.org/2000/svg"><defs><style>.cls-1{fill:#3f456b;}</style></defs><title/><g id="Lines"><path class="cls-1" d="M497,501H16a5,5,0,0,1-5-5V15a5,5,0,0,1,5-5H497a5,5,0,0,1,5,5V496A5,5,0,0,1,497,501ZM21,491H492V20H21Z"/><path class="cls-1" d="M464,307H311a5,5,0,0,1-3-1L182.31,210H47a5,5,0,0,1-5-5V182a5,5,0,0,1,5-5H192a5,5,0,0,1,3,1l125.65,96H464a5,5,0,0,1,5,5v23A5,5,0,0,1,464,307ZM312.69,297H459V284H319a5,5,0,0,1-3-1L190.31,187H52v13H184a5,5,0,0,1,3,1Z"/><path class="cls-1" d="M464,501H311a5,5,0,0,1-3-1L181,403A5,5,0,0,1,187,395l125.65,96H459V478H319a5,5,0,0,1-3-1L208,394.53a5,5,0,0,1,6.07-7.95L320.69,468H464a5,5,0,0,1,5,5v23A5,5,0,0,1,464,501Z"/><path class="cls-1" d="M200,404H47a5,5,0,0,1-5-5V376a5,5,0,0,1,5-5H190.3L296,290A5,5,0,1,1,302,298L195,380a5,5,0,0,1-3,1H52v13H198.31L324,298A5,5,0,0,1,330,306L203,403A5,5,0,0,1,200,404Z"/><path class="cls-1" d="M464,284a5,5,0,0,1-5-5V247H319a5,5,0,0,1-3-1L190.31,150H52v32a5,5,0,0,1-10,0V145a5,5,0,0,1,5-5H192a5,5,0,0,1,3,1l125.65,96H464a5,5,0,0,1,5,5v37A5,5,0,0,1,464,284Z"/><path class="cls-1" d="M464,477a5,5,0,0,1-5-5V440H319a5,5,0,0,1-3-1L232.9,375.53a5,5,0,0,1,6.07-7.95L320.69,430H464a5,5,0,0,1,5,5v37A5,5,0,0,1,464,477Z"/><path class="cls-1" d="M47,381a5,5,0,0,1-5-5V339a5,5,0,0,1,5-5H190.28l81.39-63.44a5,5,0,1,1,6.15,7.88l-82.75,64.5A5,5,0,0,1,192,344H52v32A5,5,0,0,1,47,381Z"/><path class="cls-1" d="M168,187a5,5,0,0,1-5-5V44H78.5V182a5,5,0,0,1-10,0V39a5,5,0,0,1,5-5H168a5,5,0,0,1,5,5V182A5,5,0,0,1,168,187Z"/><path class="cls-1" d="M146,125H96a5,5,0,0,1-5-5V59a5,5,0,0,1,5-5h50a5,5,0,0,1,5,5v61A5,5,0,0,1,146,125Zm-45-10h40V64H101Z"/><path class="cls-1" d="M168,380a5,5,0,0,1-5-5V237H78.5V375a5,5,0,0,1-10,0V232a5,5,0,0,1,5-5H168a5,5,0,0,1,5,5V375A5,5,0,0,1,168,380Z"/><path class="cls-1" d="M146,318H96a5,5,0,0,1-5-5V252a5,5,0,0,1,5-5h50a5,5,0,0,1,5,5v61A5,5,0,0,1,146,318Zm-45-10h40V257H101Z"/><path class="cls-1" d="M352,396a5,5,0,0,1-5-5V302a5,5,0,0,1,10,0v89A5,5,0,0,1,352,396Z"/><path class="cls-1" d="M432,396a5,5,0,0,1-5-5V302a5,5,0,0,1,10,0v89A5,5,0,0,1,432,396Z"/><path class="cls-1" d="M82,236a5,5,0,0,1-5-5V208a5,5,0,0,1,10,0v23A5,5,0,0,1,82,236Z"/><path class="cls-1" d="M161,236a5,5,0,0,1-5-5V208a5,5,0,0,1,10,0v23A5,5,0,0,1,161,236Z"/><path class="cls-1" d="M168,501a5,5,0,0,1-5-5V428H78.5v68a5,5,0,0,1-10,0V423a5,5,0,0,1,5-5H168a5,5,0,0,1,5,5v73A5,5,0,0,1,168,501Z"/><path class="cls-1" d="M146,501a5,5,0,0,1-5-5V448H101v48a5,5,0,0,1-10,0V443a5,5,0,0,1,5-5h50a5,5,0,0,1,5,5v53A5,5,0,0,1,146,501Z"/><path class="cls-1" d="M82,427a5,5,0,0,1-5-5V399a5,5,0,0,1,10,0v23A5,5,0,0,1,82,427Z"/><path class="cls-1" d="M161,427a5,5,0,0,1-5-5V399a5,5,0,0,1,10,0v23A5,5,0,0,1,161,427Z"/><path class="cls-1" d="M451,330H334a5,5,0,0,1,0-10H451a5,5,0,0,1,0,10Z"/><path class="cls-1" d="M319,284a5,5,0,0,1-5-5V242a5,5,0,0,1,10,0v37A5,5,0,0,1,319,284Z"/><path class="cls-1" d="M191,183.42a5,5,0,0,1-5-5V146a5,5,0,0,1,10,0v32.42A5,5,0,0,1,191,183.42Z"/><path class="cls-1" d="M191,378a5,5,0,0,1-5-5V340.58a5,5,0,1,1,10,0V373A5,5,0,0,1,191,378Z"/><path class="cls-1" d="M319,477a5,5,0,0,1-5-5V435a5,5,0,0,1,10,0v37A5,5,0,0,1,319,477Z"/><path class="cls-1" d="M464,187H288a5,5,0,0,1-5-5V39a5,5,0,0,1,5-5H464a5,5,0,0,1,5,5V182A5,5,0,0,1,464,187ZM293,177H459V44H293Z"/></g><g id="Outline"><path class="cls-1" d="M462,69H288a5,5,0,0,1,0-10H462a5,5,0,0,1,0,10Z"/><path class="cls-1" d="M462,92.75H288a5,5,0,0,1,0-10H462a5,5,0,0,1,0,10Z"/><path class="cls-1" d="M462,140.25H288a5,5,0,0,1,0-10H462a5,5,0,0,1,0,10Z"/><path class="cls-1" d="M462,164H288a5,5,0,0,1,0-10H462a5,5,0,0,1,0,10Z"/><path class="cls-1" d="M462,116.5H288a5,5,0,0,1,0-10H462a5,5,0,0,1,0,10Z"/><path class="cls-1" d="M146,187a5,5,0,0,1-5-5V145a5,5,0,0,1,10,0v37A5,5,0,0,1,146,187Z"/><path class="cls-1" d="M121,187a5,5,0,0,1-5-5V145a5,5,0,0,1,10,0v37A5,5,0,0,1,121,187Z"/><path class="cls-1" d="M95,187a5,5,0,0,1-5-5V145a5,5,0,0,1,10,0v37A5,5,0,0,1,95,187Z"/><path class="cls-1" d="M436,284a5,5,0,0,1-5-5V242a5,5,0,0,1,10,0v37A5,5,0,0,1,436,284Z"/><path class="cls-1" d="M407.32,284a5,5,0,0,1-5-5V242a5,5,0,1,1,10,0v37A5,5,0,0,1,407.32,284Z"/><path class="cls-1" d="M377.5,284a5,5,0,0,1-5-5V242a5,5,0,0,1,10,0v37A5,5,0,0,1,377.5,284Z"/><path class="cls-1" d="M348.82,284a5,5,0,0,1-5-5V242a5,5,0,1,1,10,0v37A5,5,0,0,1,348.82,284Z"/><path class="cls-1" d="M293,263a5,5,0,0,1-5-5V221.65a5,5,0,1,1,10,0V258A5,5,0,0,1,293,263Z"/><path class="cls-1" d="M268,242.37a5,5,0,0,1-5-5V203a5,5,0,0,1,10,0v34.39A5,5,0,0,1,268,242.37Z"/><path class="cls-1" d="M242,222.72a5,5,0,0,1-5-5v-33.4a5,5,0,0,1,10,0v33.4A5,5,0,0,1,242,222.72Z"/><path class="cls-1" d="M217,204.05a5,5,0,0,1-5-5v-33.4a5,5,0,1,1,10,0v33.4A5,5,0,0,1,217,204.05Z"/><path class="cls-1" d="M268,321a5,5,0,0,1-5-5V281.63a5,5,0,0,1,10,0V316A5,5,0,0,1,268,321Z"/><path class="cls-1" d="M242,339.68a5,5,0,0,1-5-5v-33.4a5,5,0,0,1,10,0v33.4A5,5,0,0,1,242,339.68Z"/><path class="cls-1" d="M217,358.35a5,5,0,0,1-5-5V320a5,5,0,0,1,10,0v33.4A5,5,0,0,1,217,358.35Z"/><path class="cls-1" d="M436,477a5,5,0,0,1-5-5V435a5,5,0,0,1,10,0v37A5,5,0,0,1,436,477Z"/><path class="cls-1" d="M407.32,477a5,5,0,0,1-5-5V435a5,5,0,0,1,10,0v37A5,5,0,0,1,407.32,477Z"/><path class="cls-1" d="M377.5,477a5,5,0,0,1-5-5V435a5,5,0,0,1,10,0v37A5,5,0,0,1,377.5,477Z"/><path class="cls-1" d="M348.82,477a5,5,0,0,1-5-5V435a5,5,0,0,1,10,0v37A5,5,0,0,1,348.82,477Z"/><path class="cls-1" d="M293,456a5,5,0,0,1-5-5V414.65a5,5,0,0,1,10,0V451A5,5,0,0,1,293,456Z"/><path class="cls-1" d="M268,435.37a5,5,0,0,1-5-5V396a5,5,0,0,1,10,0v34.39A5,5,0,0,1,268,435.37Z"/><path class="cls-1" d="M242,415.72a5,5,0,0,1-5-5v-33.4a5,5,0,1,1,10,0v33.4A5,5,0,0,1,242,415.72Z"/><path class="cls-1" d="M146,381a5,5,0,0,1-5-5V339a5,5,0,0,1,10,0v37A5,5,0,0,1,146,381Z"/><path class="cls-1" d="M121,381a5,5,0,0,1-5-5V339a5,5,0,0,1,10,0v37A5,5,0,0,1,121,381Z"/><path class="cls-1" d="M95,381a5,5,0,0,1-5-5V339a5,5,0,0,1,10,0v37A5,5,0,0,1,95,381Z"/></g></svg>