<?xml version="1.0" ?><svg viewBox="0 0 512 512" xmlns="http://www.w3.org/2000/svg"><defs><style>.cls-1{fill:#384169;}</style></defs><title/><g id="Lines"><path class="cls-1" d="M63.5,488a5,5,0,0,1-4.88-3.91c-.09-.39-9.36-39.63-44.21-47.44a5,5,0,0,1,.15-9.79c1.6-.31,39.24-8.06,44-47.46a5,5,0,0,1,9.89-.22,74.68,74.68,0,0,0,8.38,22.06c8.41,14.56,20.35,23.17,35.48,25.59a5,5,0,0,1,.23,9.84c-1.55.32-38.2,8.55-44.08,47.08A5,5,0,0,1,63.67,488ZM30.6,431.82c17.1,8.46,26.94,23.37,32.27,34.74a64.52,64.52,0,0,1,24.29-29.31,75.28,75.28,0,0,1,8.66-5C84.44,427.08,75,418.17,68,405.94A83.53,83.53,0,0,1,64,398a62.36,62.36,0,0,1-23.72,28.41A73.94,73.94,0,0,1,30.6,431.82Z"/><path class="cls-1" d="M450.5,123a5,5,0,0,1-4.88-3.91c-.09-.39-9.36-39.63-44.21-47.44a5,5,0,0,1,.15-9.79c1.6-.31,39.24-8.06,44-47.46a5,5,0,0,1,9.89-.22,74.68,74.68,0,0,0,8.38,22.06c8.41,14.56,20.35,23.17,35.48,25.59a5,5,0,0,1,.23,9.84c-1.55.32-38.2,8.55-44.08,47.08a5,5,0,0,1-4.77,4.25ZM417.6,66.82c17.1,8.46,26.94,23.37,32.27,34.74a64.52,64.52,0,0,1,24.29-29.31,75.28,75.28,0,0,1,8.66-5C471.44,62.08,462,53.17,455,40.94A83.53,83.53,0,0,1,451,33a62.36,62.36,0,0,1-23.72,28.41A73.94,73.94,0,0,1,417.6,66.82Z"/><path class="cls-1" d="M255.18,81.33c-57.38,0-115.47-11.91-115.47-34.66S197.8,12,255.18,12,370.65,23.91,370.65,46.67,312.56,81.33,255.18,81.33Zm0-59.33c-29.08,0-56.36,3-76.82,8.52-22.62,6.07-28.65,13-28.65,16.15,0,4.2,8.86,10.83,28.65,16.14,20.46,5.5,47.74,8.52,76.82,8.52s56.37-3,76.82-8.52c19.79-5.31,28.65-11.94,28.65-16.14,0-3.14-6-10.08-28.65-16.15C311.55,25,284.26,22,255.18,22Z"/><path class="cls-1" d="M255.18,454c-48.6,0-89.9-12.41-122.75-36.9-26.72-19.91-47.95-47.84-63.1-83C52.37,294.71,43,245.42,43,195.3V195c0-22.47,18.86-34.64,29.09-38,35.8-16.18,58.08-39.37,66.22-68.93,6.1-22.16,1.57-39.9,1.53-40.07a5,5,0,0,1,9.66-2.58c.22.81,5.23,20.12-1.41,44.78-6.08,22.61-23.54,54.15-72.14,76l-.52.2C74.57,166.67,53,174,53,195v.31c0,48.79,9,96.68,25.48,134.83,14.44,33.54,34.59,60.1,59.88,78.95C169.49,432.25,208.78,444,255.18,444a5,5,0,1,1,0,10ZM73.94,161.62h0Z"/><path class="cls-1" d="M256,454a5,5,0,0,1,0-10c46.41,0,85.7-11.75,116.78-34.92,25.3-18.85,45.45-45.41,59.89-78.95,16.43-38.15,25.48-86,25.47-134.83V195c0-21-21.52-28.32-22.44-28.62a4.45,4.45,0,0,1-.51-.19c-47.2-21.32-65-52.38-71.56-74.68-7.19-24.3-3.07-43.42-2.9-44.22a5,5,0,0,1,9.77,2.17c-.07.33-3.72,17.87,2.86,39.69,8.81,29.23,30.92,52,65.7,67.81,10.23,3.4,29.08,15.57,29.08,38v.31c0,50.12-9.33,99.41-26.28,138.78-15.15,35.18-36.38,63.11-63.1,83C346,441.59,304.65,454,256,454Z"/><path class="cls-1" d="M383,502H127a5,5,0,0,1-5-5V481a5,5,0,0,1,.76-2.65c21.8-35,119.15-34.39,123.29-34.35a5,5,0,0,1-.05,10H246c-26.17-.24-96.86,4.4-113.95,28.51V492H378v-9.49c-17.1-24.13-87.74-28.76-113.95-28.51a5,5,0,1,1-.1-10c4.13-.05,101.49-.63,123.29,34.35A5,5,0,0,1,388,481v16A5,5,0,0,1,383,502Z"/><path class="cls-1" d="M282.75,382h-52.5a5,5,0,0,1-4.33-2.5L199.67,334a5,5,0,0,1,0-5l26.25-45.47a5,5,0,0,1,4.33-2.5h52.5a5,5,0,0,1,4.33,2.5L313.33,329a5,5,0,0,1,0,5l-26.25,45.47A5,5,0,0,1,282.75,382Zm-49.61-10h46.72l23.37-40.47L279.86,291H233.14L209.77,331.5Z"/><path class="cls-1" d="M171.09,344.1a26.55,26.55,0,1,1,26.55-26.55A26.58,26.58,0,0,1,171.09,344.1Zm0-43.1a16.55,16.55,0,1,0,16.55,16.55A16.57,16.57,0,0,0,171.09,301Z"/><path class="cls-1" d="M342.09,344.1a26.55,26.55,0,1,1,26.55-26.55A26.58,26.58,0,0,1,342.09,344.1Zm0-43.1a16.55,16.55,0,1,0,16.55,16.55A16.57,16.57,0,0,0,342.09,301Z"/><path class="cls-1" d="M381.09,299.1a21.55,21.55,0,1,1,21.55-21.55A21.58,21.58,0,0,1,381.09,299.1Zm0-33.1a11.55,11.55,0,1,0,11.55,11.55A11.56,11.56,0,0,0,381.09,266Z"/><path class="cls-1" d="M131.09,299.1a21.55,21.55,0,1,1,21.55-21.55A21.58,21.58,0,0,1,131.09,299.1Zm0-33.1a11.55,11.55,0,1,0,11.55,11.55A11.56,11.56,0,0,0,131.09,266Z"/></g><g id="Outline"><path class="cls-1" d="M197.75,205.12a5,5,0,0,1-4.51-7.15c5.71-12,14.67-19.2,25.23-20.19,10.34-1,17.8,4.45,24.38,9.24,4.31,3.13,8.39,6.09,13,7.2a20,20,0,0,0,11.27-.42,30.17,30.17,0,0,1-2.89-2.63c-6.1-6.31-8.27-14.33-5.95-22,2.67-8.85,8.77-14.83,16.32-16a17.08,17.08,0,0,1,16.85,7.31c4.71,6.88,4.25,16.3-1.27,25.82a43.77,43.77,0,0,1-3.85,5.59c6.86,1.55,15.48,1.62,25.54-1.05a5,5,0,1,1,2.57,9.67c-13.22,3.51-26.35,3.08-36.78-.81a30.74,30.74,0,0,1-24.18,4.26c-6.49-1.58-11.56-5.27-16.47-8.83-5.89-4.29-11-8-17.57-7.37-9.32.87-14.73,9.47-17.13,14.52A5,5,0,0,1,197.75,205.12ZM277.21,163a7,7,0,0,0-1.12.09c-3.71.57-6.72,3.85-8.28,9-1.61,5.35,1.05,9.58,3.57,12.18a23.09,23.09,0,0,0,4.9,3.79,32.15,32.15,0,0,0,5.21-6.74c3.51-6.06,4.11-11.59,1.67-15.17A7.18,7.18,0,0,0,277.21,163Z"/><path class="cls-1" d="M109.89,253a5,5,0,0,1-4.77-3.51l-.3-1a5,5,0,1,1,9.56-2.94l.28.93a5,5,0,0,1-3.27,6.27A5.2,5.2,0,0,1,109.89,253Zm-5.4-20.3a5,5,0,0,1-4.88-3.91l-.22-1a5,5,0,0,1,9.77-2.15l.21,1a5,5,0,0,1-3.78,6A4.65,4.65,0,0,1,104.49,232.74Zm-3.95-20.64a5,5,0,0,1-4.93-4.21l-.16-1a5,5,0,1,1,9.88-1.56l.15,1a5,5,0,0,1-4.15,5.73A5.25,5.25,0,0,1,100.54,212.1Zm-2.77-20.83a5,5,0,0,1-5-4.47l-.11-1a5,5,0,0,1,10-1l.1,1a5,5,0,0,1-4.44,5.5Zm-1.68-21a5,5,0,0,1-5-4.76l0-1a5,5,0,0,1,10-.44l0,1a5,5,0,0,1-4.75,5.24Z"/><path class="cls-1" d="M403.17,252.83a5.17,5.17,0,0,1-1.49-.22,5,5,0,0,1-3.28-6.26l.29-.94a5,5,0,1,1,9.55,2.94l-.3,1A5,5,0,0,1,403.17,252.83Zm5.39-20.3a5.22,5.22,0,0,1-1.1-.12,5,5,0,0,1-3.78-6l.21-1a5,5,0,0,1,9.76,2.16l-.22,1A5,5,0,0,1,408.56,232.53Zm3.93-20.64a4.29,4.29,0,0,1-.79-.07,5,5,0,0,1-4.15-5.72l.15-1a5,5,0,1,1,9.88,1.54l-.15,1A5,5,0,0,1,412.49,211.89Zm2.77-20.84-.54,0a5,5,0,0,1-4.44-5.51l.1-1a5,5,0,0,1,9.95,1.05l-.11,1A5,5,0,0,1,415.26,191.05Zm1.66-21h-.25a5,5,0,0,1-4.75-5.24l0-1a5,5,0,1,1,10,.42l0,1A5,5,0,0,1,416.92,170.09Z"/><path class="cls-1" d="M309,336H206a5,5,0,0,1,0-10H309a5,5,0,0,1,0,10Z"/><path class="cls-1" d="M232.48,381.47a4.91,4.91,0,0,1-2.46-.66,5,5,0,0,1-1.88-6.81l50.76-89.47a5,5,0,0,1,8.7,4.94l-50.77,89.46A5,5,0,0,1,232.48,381.47Z"/><path class="cls-1" d="M283.25,381.47a5,5,0,0,1-4.35-2.54l-50.76-89.46a5,5,0,1,1,8.69-4.94L287.6,374a5,5,0,0,1-1.88,6.81A4.92,4.92,0,0,1,283.25,381.47Z"/><path class="cls-1" d="M256.27,266h-1a5,5,0,0,1,0-10h1a5,5,0,0,1,0,10Zm19.92-1.06a5,5,0,0,1-.53-10l1-.11a5,5,0,1,1,1.13,9.93l-1,.12A5.07,5.07,0,0,1,276.19,264.94Zm-40.84-.05a3.52,3.52,0,0,1-.56,0l-1-.11a5,5,0,1,1,1.18-9.93l1,.11a5,5,0,0,1-.55,10Zm61.48-3.56a5,5,0,0,1-1.19-9.86l.93-.23a5,5,0,0,1,2.47,9.69l-1,.25A5.07,5.07,0,0,1,296.83,261.33Zm-82.11-.14a5.15,5.15,0,0,1-1.22-.15l-1-.26A5,5,0,0,1,215,251.1l.93.24a5,5,0,0,1-1.22,9.85Zm102-6.42a5,5,0,0,1-1.94-9.61l.88-.37a5,5,0,1,1,3.95,9.18l-1,.41A4.9,4.9,0,0,1,316.74,254.77Zm-121.88-.25a4.89,4.89,0,0,1-2-.41l-1-.42a5,5,0,0,1,4-9.15l.87.38a5,5,0,0,1-2,9.6Zm140.44-9.47a5,5,0,0,1-2.7-9.21l.8-.52a5,5,0,1,1,5.46,8.38l-.87.56A4.92,4.92,0,0,1,335.3,245.05Zm-158.9-.44a5,5,0,0,1-2.74-.82l-.87-.58a5,5,0,0,1,5.57-8.31l.79.53a5,5,0,0,1-2.75,9.18Zm175.47-12.38a5,5,0,0,1-3.39-8.67l.7-.65a5,5,0,1,1,6.85,7.28l-.76.71A5,5,0,0,1,351.87,232.23ZM160,231.54a5,5,0,0,1-3.46-1.39l-.74-.72a5,5,0,1,1,7-7.16l.7.67a5,5,0,0,1-3.47,8.6Zm206-14.83a5,5,0,0,1-4-8l.58-.77a5,5,0,0,1,8,6l-.63.82A5,5,0,0,1,366,216.71Zm-219.74-1a5,5,0,0,1-4-2.05l-.61-.84A5,5,0,0,1,149.7,207l.56.78a5,5,0,0,1-4,7.95Zm231.11-16.69a5,5,0,0,1-4.4-7.37l.46-.85a5,5,0,1,1,8.83,4.68l-.48.91A5,5,0,0,1,377.34,199.06Zm-242.07-1.21a5,5,0,0,1-4.47-2.74l-.46-.92a5,5,0,0,1,8.95-4.47l.43.87a5,5,0,0,1-2.2,6.72A4.9,4.9,0,0,1,135.27,197.85Zm250.65-18a5.08,5.08,0,0,1-1.7-.3,5,5,0,0,1-3-6.41l.32-.91a5,5,0,0,1,9.42,3.35l-.35,1A5,5,0,0,1,385.92,179.88Zm-258.75-1.42a5,5,0,0,1-4.74-3.42l-.33-1a5,5,0,0,1,9.52-3.09l.3.92a5,5,0,0,1-3.17,6.32A4.8,4.8,0,0,1,127.17,178.46Zm264.41-18.85a4.78,4.78,0,0,1-.92-.09,5,5,0,0,1-4-5.82c.07-.35.12-.66.17-.94a5,5,0,1,1,9.85,1.71q-.07.47-.18,1.05A5,5,0,0,1,391.58,159.61ZM122.13,158a5,5,0,0,1-4.94-4.29c-.12-.77-.16-1.18-.16-1.18a5,5,0,0,1,9.94-1.1h0s0,.33.11.85a5,5,0,0,1-4.23,5.66A4.37,4.37,0,0,1,122.13,158Z"/></g></svg>