<?xml version="1.0" ?><svg id="Lines" viewBox="0 0 512 512" xmlns="http://www.w3.org/2000/svg"><defs><style>.cls-1{fill:#3f456b;}</style></defs><title/><path class="cls-1" d="M465.23,143.34a52.28,52.28,0,0,1-13.29-1.85,106.46,106.46,0,0,1-44.62-24.3c-13.86-12.9-22.14-28.51-23.94-45.16-1.92-17.64,2.57-32.52,13-43,13.49-13.6,36.21-19.56,64-16.77,19.32,1.94,33.73,15.11,38.53,35.24a106.62,106.62,0,0,1,2.62,23h0c.12,6.75-.18,13.34-.49,18.9-.62,10.84-2.33,26.82-10.11,40.34C485.72,138.64,476.69,143.34,465.23,143.34ZM447.6,21.61c-19.1,0-34.83,5.07-44.15,14.46C395.13,44.46,391.72,56.2,393.32,71c3.43,31.62,34.12,53.71,61.18,60.86,7.65,2,21.43,3.78,27.7-7.11,6.72-11.67,8.24-26.09,8.79-35.92.3-5.37.6-11.73.48-18.14h0a97,97,0,0,0-2.34-20.82c-3.83-16-14.7-26.11-29.81-27.62A115.62,115.62,0,0,0,447.6,21.61Z"/><path class="cls-1" d="M447.33,289.68c-21.85,0-39.66-6-51-17.44-10.4-10.49-14.89-25.36-13-43,1.8-16.65,10.08-32.26,23.94-45.16a106.46,106.46,0,0,1,44.62-24.3c17.73-4.68,31.92-.38,38.93,11.79,7.78,13.51,9.49,29.5,10.11,40.34.31,5.56.61,12.15.49,18.9a106.62,106.62,0,0,1-2.62,23c-4.8,20.13-19.21,33.3-38.53,35.24A129.85,129.85,0,0,1,447.33,289.68Zm17.91-121.74a43.21,43.21,0,0,0-10.74,1.51c-27.06,7.15-57.75,29.24-61.18,60.86-1.6,14.76,1.81,26.5,10.13,34.89,11.16,11.25,31.53,16.3,55.87,13.86,15.11-1.52,26-11.58,29.81-27.62a97,97,0,0,0,2.34-20.82h0c.12-6.41-.18-12.77-.48-18.14-.55-9.83-2.07-24.25-8.79-35.92C478.34,169.85,471.62,167.94,465.24,167.94Z"/><path class="cls-1" d="M468.52,166.18a5,5,0,0,1-5-5V138.91a5,5,0,1,1,10,0v22.27A5,5,0,0,1,468.52,166.18Z"/><path class="cls-1" d="M496.47,235.71a5,5,0,0,1-5-5V70.55a5,5,0,1,1,10,0V230.71A5,5,0,0,1,496.47,235.71Z"/><path class="cls-1" d="M395.33,43.07a5,5,0,0,1-2.95-1L377.18,31a5,5,0,1,1,5.9-8.07L398.28,34a5,5,0,0,1-2.95,9Z"/><path class="cls-1" d="M380.13,281.74a5,5,0,0,1-2.95-9l15.2-11.12a5,5,0,0,1,5.9,8.08l-15.2,11.11A5,5,0,0,1,380.13,281.74Z"/><path class="cls-1" d="M112.31,228.5h-6.57a58,58,0,0,1-58-58V68.46a58,58,0,0,1,58-58h6.57a58,58,0,0,1,58,58V170.54A58,58,0,0,1,112.31,228.5Zm-6.57-208a48,48,0,0,0-48,48V170.54a48,48,0,0,0,48,48h6.57a48,48,0,0,0,48-48V68.46a48,48,0,0,0-48-48Z"/><path class="cls-1" d="M109,228.5a5,5,0,0,1-5-5v-56C104,153.3,95.74,143,79.4,137a90.67,90.67,0,0,0-26.68-5,5,5,0,0,1,.05-10h0a99.52,99.52,0,0,1,29.79,5.55C103.16,135,114,148.86,114,167.5v56A5,5,0,0,1,109,228.5Z"/><path class="cls-1" d="M109,172.5a5,5,0,0,1-5-5c0-18.64,10.86-32.46,31.42-39.95A99.52,99.52,0,0,1,165.23,122a5,5,0,0,1,.09,10h0a90.68,90.68,0,0,0-26.67,5C122.31,143,114,153.3,114,167.5A5,5,0,0,1,109,172.5Z"/><path class="cls-1" d="M256.31,228.5h-6.57a58,58,0,0,1-58-58V68.46a58,58,0,0,1,58-58h6.57a58,58,0,0,1,58,58V170.54A58,58,0,0,1,256.31,228.5Zm-6.57-208a48,48,0,0,0-48,48V170.54a48,48,0,0,0,48,48h6.57a48,48,0,0,0,48-48V68.46a48,48,0,0,0-48-48Z"/><path class="cls-1" d="M253,228.5a5,5,0,0,1-5-5v-56c0-14.2-8.28-24.46-24.62-30.48a90.67,90.67,0,0,0-26.68-5,5,5,0,0,1,.05-10h0a99.52,99.52,0,0,1,29.79,5.55C247.16,135,258,148.86,258,167.5v56A5,5,0,0,1,253,228.5Z"/><path class="cls-1" d="M253,172.5a5,5,0,0,1-5-5c0-18.64,10.86-32.46,31.42-39.95A99.52,99.52,0,0,1,309.23,122a5,5,0,0,1,.09,10h0a90.68,90.68,0,0,0-26.67,5C266.31,143,258,153.3,258,167.5A5,5,0,0,1,253,172.5Z"/><path class="cls-1" d="M208.41,357.42a5,5,0,0,1-3.21-1.17c-7.17-6-10.31-23.69-2.87-41.72,5.57-13.5.81-20.17.76-20.23a5,5,0,0,1,7.72-6.36,20.1,20.1,0,0,1,3.65,8.5c1.36,6.59.39,14-2.89,21.9-6.4,15.54-2.5,28.1.06,30.25a5,5,0,0,1-3.22,8.83Z"/><path class="cls-1" d="M156.76,357.42a5,5,0,0,1-3.22-1.17c-7.17-6-10.31-23.68-2.87-41.72,5.57-13.5.82-20.17.77-20.23a5,5,0,1,1,7.71-6.36,20.1,20.1,0,0,1,3.65,8.5c1.36,6.59.39,14-2.88,21.9-6.41,15.54-2.51,28.1.05,30.25a5,5,0,0,1-3.21,8.83Z"/><g data-name="&lt;编组&gt;" id="_编组_"><path class="cls-1" d="M338.2,295.51H22.7a5,5,0,0,1-5-5V251.86a5,5,0,0,1,5-5H338.2a5,5,0,0,1,5,5v38.65A5,5,0,0,1,338.2,295.51Zm-310.5-10H333.2V256.86H27.7Z"/></g><path class="cls-1" d="M159.76,500H16.5a5,5,0,0,1-5-5.15l6.2-204.56a5,5,0,0,1,10,.3L21.65,490h134l20.57-106.83a5,5,0,1,1,9.82,1.89L164.67,495.94A5,5,0,0,1,159.76,500Z"/><path class="cls-1" d="M344.35,500H201.09a5,5,0,0,1-4.92-4.11L176.2,385a5,5,0,0,1,9.84-1.78L205.27,490H339.2l-6-199.41a5,5,0,0,1,4.84-5.15,5,5,0,0,1,5.15,4.85l6.2,204.56a5,5,0,0,1-5,5.15Z"/><path class="cls-1" d="M340.48,372.5H20.36a5,5,0,0,1,0-10H340.48a5,5,0,0,1,0,10Z"/><path class="cls-1" d="M171.21,436.5H20.36a5,5,0,0,1,0-10H171.21a5,5,0,1,1,0,10Z"/><path class="cls-1" d="M342.7,436.5H191.85a5,5,0,0,1,0-10H342.7a5,5,0,1,1,0,10Z"/><path class="cls-1" d="M432.5,468.5a69,69,0,1,1,69-69A69.07,69.07,0,0,1,432.5,468.5Zm0-128a59,59,0,1,0,59,59A59.07,59.07,0,0,0,432.5,340.5Z"/><path class="cls-1" d="M431.75,413.5c-39,0-64.08-9.94-65.12-10.36a5,5,0,1,1,3.74-9.28h0c.24.1,24.44,9.64,61.38,9.64s62.72-9.58,63-9.67a5,5,0,1,1,3.56,9.34C497.17,403.59,470.72,413.5,431.75,413.5Z"/><path class="cls-1" d="M431.75,378.52a207.15,207.15,0,0,1-55.39-7.2,5,5,0,1,1,2.7-9.63,197,197,0,0,0,52.69,6.83,210.2,210.2,0,0,0,53.14-6.67,5,5,0,1,1,2.55,9.67A220.32,220.32,0,0,1,431.75,378.52Z"/><path class="cls-1" d="M431.75,445.5a199.22,199.22,0,0,1-53.72-7,5,5,0,0,1,2.66-9.64,189.65,189.65,0,0,0,51.06,6.66,211.33,211.33,0,0,0,52-6.38,5,5,0,0,1,2.49,9.68A221,221,0,0,1,431.75,445.5Z"/></svg>