<?xml version="1.0" ?><svg id="Lines" viewBox="0 0 512 512" xmlns="http://www.w3.org/2000/svg"><defs><style>.cls-1{fill:#3f456b;}</style></defs><title/><path class="cls-1" d="M29.4,195a5,5,0,0,1-4.46-2.74,124.11,124.11,0,0,1-13.51-56.7A125.46,125.46,0,0,1,229.34,50.73,5,5,0,0,1,222,57.49a115.46,115.46,0,0,0-200.55,78,114.2,114.2,0,0,0,12.43,52.17,5,5,0,0,1-2.2,6.73A5.07,5.07,0,0,1,29.4,195Z"/><path class="cls-1" d="M364.89,181.18a5,5,0,0,1-2.58-9.29c29.52-17.71,72.26-9.58,74.06-9.22a5,5,0,1,1-1.93,9.81c-.57-.11-40.85-7.7-67,8A5,5,0,0,1,364.89,181.18Z"/><path class="cls-1" d="M209.29,120.94a5,5,0,0,1-4.95-4.35c-1.51-11.55-10.53-23.78-10.62-23.9a5,5,0,1,1,8-6c.44.58,10.68,14.47,12.51,28.57a5,5,0,0,1-4.31,5.61A4.73,4.73,0,0,1,209.29,120.94Z"/><path class="cls-1" d="M399.5,325.82h0l-288,0H99.06A91,91,0,0,1,82,146a69.61,69.61,0,0,1,68.72-80.83,69.34,69.34,0,0,1,48.35,19.54,125.86,125.86,0,0,1,237.65,78.45,82.65,82.65,0,0,1,62.74,80.31,82.44,82.44,0,0,1-81.74,82.38Zm0-10h18.17a72.55,72.55,0,0,0,50.8-21.42,71.79,71.79,0,0,0,21-51,72.65,72.65,0,0,0-59.66-71.57,5,5,0,0,1-3.95-6.17A115.93,115.93,0,0,0,313.7,20.83,115.85,115.85,0,0,0,205.37,95.57a5,5,0,0,1-8.54,1.4A59.6,59.6,0,0,0,92.77,148.73a5,5,0,0,1-.69,3.94,5,5,0,0,1-3.36,2.18A81,81,0,0,0,99.38,315.78H111.5l288,0Z"/><path class="cls-1" d="M151.82,157.65a5,5,0,0,1-1.56-.26C121,147.76,82.53,155.9,82.14,156A5,5,0,0,1,80,146.21c1.68-.37,41.5-8.78,73.35,1.68a5,5,0,0,1-1.56,9.76Z"/><path class="cls-1" d="M148.65,241l-.45,0a5,5,0,0,1-4.53-5.41c.17-2,4.84-49.15,58.07-67.48,27.83-9.59,60.36-7.4,87,5.87,17.87,8.88,30.64,21.68,35,35.1a5,5,0,1,1-9.5,3.11c-3.56-10.89-14.49-21.56-30-29.26-24.31-12.09-54-14.1-79.31-5.37-46.93,16.16-51.21,57.17-51.37,58.91A5,5,0,0,1,148.65,241Z"/><path class="cls-1" d="M187.61,452.27a5.31,5.31,0,0,1-.68,0,5,5,0,0,1-4.28-5.63l14.12-103.48a5,5,0,1,1,9.91,1.35L192.56,447.94A5,5,0,0,1,187.61,452.27Z"/><path class="cls-1" d="M182.61,486.27a5,5,0,0,1-4.86-6.21l1.12-4.49a5,5,0,0,1,9.71,2.43l-1.12,4.48A5,5,0,0,1,182.61,486.27Z"/><path class="cls-1" d="M231,452.27a5.31,5.31,0,0,1-.68,0,5,5,0,0,1-4.28-5.63L240.2,343.11a5,5,0,0,1,9.91,1.35L236,447.94A5,5,0,0,1,231,452.27Z"/><path class="cls-1" d="M226,486.27a5,5,0,0,1-4.86-6.21l1.12-4.49A5,5,0,1,1,232,478l-1.11,4.49A5,5,0,0,1,226,486.27Z"/><path class="cls-1" d="M144.18,452.27a5.31,5.31,0,0,1-.68,0,5,5,0,0,1-4.28-5.63l14.12-103.48a5,5,0,1,1,9.91,1.35L149.13,447.94A5,5,0,0,1,144.18,452.27Z"/><path class="cls-1" d="M139.18,486.27a5,5,0,0,1-4.85-6.21l1.12-4.49a5,5,0,1,1,9.7,2.43L144,482.48A5,5,0,0,1,139.18,486.27Z"/><path class="cls-1" d="M100.76,452.27a5.34,5.34,0,0,1-.69,0,5,5,0,0,1-4.28-5.63l14.12-103.48a5,5,0,1,1,9.91,1.35L105.7,447.94A5,5,0,0,1,100.76,452.27Z"/><path class="cls-1" d="M95.75,486.27a5,5,0,0,1-4.85-6.21L92,475.57a5,5,0,1,1,9.7,2.43l-1.12,4.48A5,5,0,0,1,95.75,486.27Z"/><path class="cls-1" d="M320.81,502a5.06,5.06,0,0,1-2-.42,5,5,0,0,1-2.93-5.37l15.74-98.87-42.87,7.43a5,5,0,0,1-5.75-6l16.46-77.59a5,5,0,0,1,9.79,2.08l-14.93,70.36,42.49-7.36A5,5,0,0,1,342.6,392l-13.82,86.79L420.67,362l-35.76,4.4a5,5,0,0,1-5.54-5.83l7.05-40.19a5,5,0,1,1,9.85,1.73l-5.88,33.54,41.1-5.06a5,5,0,0,1,4.54,8.06L324.74,500.06A5,5,0,0,1,320.81,502Z"/></svg>