<?xml version="1.0" encoding="iso-8859-1"?>
<!-- Generator: Adobe Illustrator 19.0.0, SVG Export Plug-In . SVG Version: 6.00 Build 0)  -->
<svg version="1.1" id="Capa_1" xmlns="http://www.w3.org/2000/svg" xmlns:xlink="http://www.w3.org/1999/xlink" x="0px" y="0px"
	 viewBox="0 0 512 512" style="enable-background:new 0 0 512 512;" xml:space="preserve">
<g>
	<g>
		<path d="M362.667,277.333c-64.683,0-117.333,52.629-117.333,117.333S297.984,512,362.667,512S480,459.371,480,394.667
			S427.349,277.333,362.667,277.333z M362.667,490.667c-52.928,0-96-43.072-96-96s43.072-96,96-96c52.928,0,96,43.072,96,96
			S415.595,490.667,362.667,490.667z"/>
	</g>
</g>
<g>
	<g>
		<path d="M370.133,451.2c-3.84-4.053-10.88-4.267-15.147,0c-1.92,1.92-2.987,4.693-2.987,7.467s1.067,5.547,3.179,7.467
			c1.941,2.133,4.715,3.2,7.488,3.2s5.547-1.067,7.467-3.2c2.133-1.92,3.2-4.693,3.2-7.467S372.267,453.12,370.133,451.2z"/>
	</g>
</g>
<g>
	<g>
		<path d="M362.624,320c-28.437,0-51.328,17.067-53.248,39.723c-0.491,5.867,3.861,11.029,9.728,11.52
			c5.397,0.619,11.051-3.84,11.52-9.728c0.939-11.115,15.296-20.181,32-20.181c17.365,0,32.043,9.771,32.043,21.333
			c0,10.389-10.112,17.109-31.808,21.099l-2.325,0.448c-4.928,1.045-8.491,5.376-8.491,10.432L352,415.979
			c-0.021,5.888,4.757,10.688,10.667,10.688c5.867,0,10.645-4.757,10.667-10.645l0.021-12.651
			C401.664,396.715,416,383.04,416,362.667C416,339.136,392.064,320,362.624,320z"/>
	</g>
</g>
<g>
	<g>
		<path d="M384,42.667h-55.296c-4.416-12.395-16.149-21.333-30.037-21.333h-37.845C253.269,8.32,239.296,0,224,0
			s-29.269,8.32-36.821,21.333h-37.845c-13.888,0-25.621,8.939-30.037,21.333H64c-17.643,0-32,14.357-32,32V480
			c0,17.643,14.357,32,32,32h202.667c5.888,0,10.667-4.779,10.667-10.667c0-5.888-4.779-10.667-10.667-10.667H64
			c-5.867,0-10.667-4.779-10.667-10.667V74.667C53.333,68.779,58.133,64,64,64h53.333v10.667c0,5.888,4.779,10.667,10.667,10.667
			h192c5.888,0,10.667-4.779,10.667-10.667V64H384c5.867,0,10.667,4.779,10.667,10.667v170.667c0,5.888,4.779,10.667,10.667,10.667
			c5.888,0,10.667-4.779,10.667-10.667V74.667C416,57.024,401.643,42.667,384,42.667z M309.333,64H138.667V53.333
			c0-5.888,4.8-10.667,10.667-10.667h44.629c4.523,0,8.533-2.837,10.027-7.083c3.051-8.512,11.093-14.251,20.011-14.251
			s16.96,5.739,19.989,14.251c1.515,4.245,5.525,7.083,10.048,7.083h44.629c5.867,0,10.667,4.779,10.667,10.667V64z"/>
	</g>
</g>
<g>
</g>
<g>
</g>
<g>
</g>
<g>
</g>
<g>
</g>
<g>
</g>
<g>
</g>
<g>
</g>
<g>
</g>
<g>
</g>
<g>
</g>
<g>
</g>
<g>
</g>
<g>
</g>
<g>
</g>
</svg>
