<?xml version="1.0" ?><svg id="Lines" viewBox="0 0 512 512" xmlns="http://www.w3.org/2000/svg"><defs><style>.cls-1{fill:#3f456b;}</style></defs><title/><path class="cls-1" d="M136.09,246.36a5,5,0,0,1-4.54-2.9c-1.52-3.28-3-6.73-4.28-10.24a205.45,205.45,0,0,1-12.35-60.79,5,5,0,0,1,10-.56,195.83,195.83,0,0,0,11.73,57.84c1.23,3.28,2.58,6.49,4,9.55a5,5,0,0,1-4.53,7.1Z"/><path class="cls-1" d="M320.88,131a5,5,0,0,1-4.95-4.34,187,187,0,0,0-4.41-23.33A169.4,169.4,0,0,0,294.1,65.68a5,5,0,1,1,8.49-5.29,175.39,175.39,0,0,1,18.54,40.23,190.61,190.61,0,0,1,4.71,24.75,5,5,0,0,1-4.3,5.62A4.87,4.87,0,0,1,320.88,131Z"/><path class="cls-1" d="M263.77,31.54a5,5,0,0,1-2.66-.77A69.18,69.18,0,0,0,228.55,20H214.06a68.68,68.68,0,0,0-29.83,9.13,5,5,0,1,1-5-8.68A78.65,78.65,0,0,1,213.57,10H229a79.1,79.1,0,0,1,37.41,12.3,5,5,0,0,1-2.68,9.23Z"/><path class="cls-1" d="M121.73,131a4.87,4.87,0,0,1-.66,0,5,5,0,0,1-4.3-5.62,192.13,192.13,0,0,1,4.7-24.73A176.57,176.57,0,0,1,140.8,59.16a5,5,0,0,1,8.44,5.37,169,169,0,0,0-18.15,38.85,185.78,185.78,0,0,0-4.41,23.31A5,5,0,0,1,121.73,131Z"/><path class="cls-1" d="M306.52,246.36a5,5,0,0,1-4.53-7.1c1.41-3,2.76-6.26,4-9.55a195.83,195.83,0,0,0,11.73-57.84,5,5,0,0,1,10,.56,205.45,205.45,0,0,1-12.35,60.79c-1.32,3.52-2.76,7-4.27,10.24A5,5,0,0,1,306.52,246.36Z"/><path class="cls-1" d="M109.3,134.59c-13.18,0-23.67-6.05-30.25-17.71a5,5,0,0,1,2.58-7.12c.5-.22,14.2-6.32,14.2-35.11a4.35,4.35,0,0,0-1-2.77c-.82-.73-2.37-.75-3.53-.63-1.36.14-1.9.46-3.21,5.83-.9,3.65-1.91,7.79-5.22,10.74a16.39,16.39,0,0,1-14.64,3.6,12.48,12.48,0,0,1-8.78-8.1c-1.38-4-1.31-8.12-1.25-11.72,0-1.74.06-3.38-.07-4.91-.37-4.5-2.22-8-4.93-9.33s-5.17-.26-6.88.83c-1.43.9-5.91,4.26-3.94,9.41A29.5,29.5,0,0,0,45.41,73a44.07,44.07,0,0,1,3.5,6c1.27,2.78,4.65,10.14,1.06,16.42-2.49,4.36-5.74,5.76-8,6.18-5.14.92-9.31-2.39-9.76-2.77l-.35-.32c-3.91-3.94-7.64-4.15-9.46-2.68-2.13,1.72-2.34,3.74-.63,6,17.62,22.82,32.19,19.28,32.8,19.12a5,5,0,0,1,6.19,3.35,5,5,0,0,1-3.38,6.25c-.87.26-21.4,6-43.5-22.59C10.34,103.6,8,94.61,16.09,88.05c6.27-5.08,15.52-3.76,22.59,3.17a3,3,0,0,0,1.49.54c.11,0,.55-.31,1.12-1.3.47-.83.6-2.77-1.47-7.29a35.6,35.6,0,0,0-2.76-4.65A37.58,37.58,0,0,1,33,71.18c-3.07-8,0-16.42,7.91-21.43,5.4-3.44,11.49-3.93,16.69-1.35,6,3,9.78,9.32,10.46,17.46a58.86,58.86,0,0,1,.1,5.91c-.05,3-.1,5.93.71,8.31a2.43,2.43,0,0,0,1.86,1.67,6.42,6.42,0,0,0,5.46-1.41c1-.87,1.6-3.4,2.14-5.63C79.47,70,81.38,62.19,90.25,61.3c5.82-.58,9.38,1.45,11.33,3.25a14.35,14.35,0,0,1,4.25,10.19c0,24.74-9.31,36.26-15.43,41.16,6.62,8.3,16.69,10.68,30,7.09a5,5,0,1,1,2.6,9.65A52.45,52.45,0,0,1,109.3,134.59Z"/><path class="cls-1" d="M333.62,134.59a52.45,52.45,0,0,1-13.71-2,5,5,0,0,1,2.61-9.65c13.31,3.59,23.39,1.21,30-7.09C346.41,111,337.1,99.45,337.1,74.65a14.23,14.23,0,0,1,4.24-10.1c2-1.8,5.51-3.83,11.33-3.25,8.87.89,10.79,8.72,11.93,13.4.55,2.24,1.16,4.77,2.14,5.64a6.42,6.42,0,0,0,5.46,1.41,2.41,2.41,0,0,0,1.86-1.67c.82-2.38.77-5.26.71-8.31a58.92,58.92,0,0,1,.11-5.91c.68-8.14,4.49-14.5,10.45-17.46,5.21-2.58,11.29-2.09,16.7,1.35,7.87,5,11,13.42,7.9,21.43a37.56,37.56,0,0,1-4.06,7.34,36.88,36.88,0,0,0-2.77,4.65c-2.07,4.52-1.94,6.46-1.47,7.29.57,1,1,1.27,1.13,1.3a2.88,2.88,0,0,0,1.51-.56c7.06-6.92,16.29-8.22,22.57-3.15,8.11,6.56,5.74,15.55,2.18,20-22,28.56-42.58,22.77-43.44,22.51a5,5,0,0,1,2.82-9.6c.75.2,15.26,3.58,32.76-19.1,1.73-2.28,1.52-4.3-.61-6-1.81-1.47-5.55-1.26-9.45,2.68l-.35.32c-.46.38-4.62,3.69-9.77,2.77-2.29-.42-5.54-1.82-8-6.18-3.58-6.28-.21-13.64,1.06-16.42a45.16,45.16,0,0,1,3.51-6,29.42,29.42,0,0,0,3.07-5.41c2-5.15-2.51-8.51-3.93-9.41-1.71-1.09-4.29-2.12-6.89-.84s-4.55,4.84-4.93,9.34c-.13,1.53-.1,3.17-.07,4.91.06,3.6.13,7.68-1.25,11.72a12.47,12.47,0,0,1-8.77,8.1,16.41,16.41,0,0,1-14.65-3.6c-3.31-2.95-4.32-7.09-5.21-10.74-1.32-5.37-1.85-5.69-3.22-5.83-1.16-.12-2.71-.1-3.52.63a4.3,4.3,0,0,0-1.06,2.75c0,28.81,13.7,34.91,14.29,35.16a4.91,4.91,0,0,1,2.88,2.95,5,5,0,0,1-.39,4.14C357.3,128.54,346.8,134.59,333.62,134.59Z"/><path class="cls-1" d="M119.91,175.65h0c-27.87,0-45-13.15-54.45-24.17a73,73,0,0,1-13.95-24.23,5,5,0,0,1,9.58-2.86c.53,1.74,13,41.24,58.82,41.26a5,5,0,0,1,0,10Z"/><path class="cls-1" d="M115.12,481.6a10.34,10.34,0,0,1-3.92-.78,11.79,11.79,0,0,1-7.13-7.71c-.82-2.74-3.31-11.08,12.9-34.63,6.85-9.94,15.61-19.79,24.08-29.32,6.48-7.3,12.61-14.18,16.91-20.1,6.65-9.16-.59-15.45-2.11-16.62l-.24-.19c-.43-.37-43.23-37.05-60.05-51.57-15.87-13.69-11-34-6.13-42.88l.1-.17c10-16.68,25.89-30.33,46.05-39.46a5,5,0,1,1,4.12,9.11c-12.73,5.77-30.26,16.58-41.52,35.38-.74,1.41-9.49,18.88,3.91,30.45,16.37,14.13,57.37,49.27,59.91,51.44,6.82,5.19,13.45,17.45,4,30.39-4.58,6.31-10.87,13.38-17.52,20.86-8.26,9.3-16.81,18.92-23.31,28.36-12.53,18.18-12,24.57-11.56,26.09.14.46.34.91,1.32,1.31,1.7.69,9.16-5.43,15.78-17.11a5,5,0,0,1,8.7,4.94C136.27,465,125.93,481.59,115.12,481.6Z"/><path class="cls-1" d="M125,503a16.55,16.55,0,0,1-9.89-3.51,13.35,13.35,0,0,1-5.66-9.75c-.83-9.2,7.62-18.42,8.59-19.44a5,5,0,0,1,7.27,6.86c-2.07,2.21-6.24,8-5.9,11.69a3.38,3.38,0,0,0,1.62,2.58c2.45,1.8,4.06,1.68,5,1.43,3.06-.76,6.7-4.82,9.5-10.59a5,5,0,1,1,9,4.36c-2.46,5.07-7.81,13.88-16.09,15.94A14.41,14.41,0,0,1,125,503Z"/><path class="cls-1" d="M317.16,503a14.35,14.35,0,0,1-3.49-.43c-8.28-2.06-13.63-10.87-16.09-15.94a5,5,0,1,1,9-4.36c2.8,5.77,6.44,9.83,9.5,10.59,1,.25,2.6.37,5.05-1.43a3.38,3.38,0,0,0,1.62-2.58c.34-3.71-3.83-9.48-5.9-11.69a5,5,0,0,1,7.27-6.86c1,1,9.42,10.24,8.59,19.44a13.35,13.35,0,0,1-5.66,9.75A16.55,16.55,0,0,1,317.16,503Z"/><path class="cls-1" d="M148.73,499.7a16.09,16.09,0,0,1-6.71-1.53,11.53,11.53,0,0,1-6.66-7.95c-2.53-10.44,8.57-25.26,10.82-28.13a5,5,0,1,1,7.86,6.18c-5,6.43-9.89,15.76-9,19.6.11.43.26.82,1.11,1.21a5,5,0,0,0,4.6.13c4.55-2.16,9.33-11.15,12.49-23.44,3.46-13.5,11.57-45.11,18.93-64.4.5-1.31,1-2.57,1.46-3.79,6.31-16.37,8.06-21.95,2.94-30.37a136.34,136.34,0,0,0-10-14c-4.76-6-8.86-11.27-11.5-19.12C161.53,323.34,157,310,132.85,310a5,5,0,0,1,0-10c31.38,0,38.13,20.13,41.76,30.94,2.09,6.21,5.53,10.58,9.88,16.12a144.18,144.18,0,0,1,10.67,15c7.91,13,4.12,22.86-2.16,39.16-.47,1.2-.95,2.46-1.45,3.76-7.16,18.76-15.17,50-18.59,63.32-2.86,11.15-8.28,25.41-17.87,30A14.6,14.6,0,0,1,148.73,499.7Z"/><path class="cls-1" d="M171.11,317.12a58.45,58.45,0,0,1-21.2-3.91,5,5,0,0,1,3.91-9.2c1,.41,22.39,9.09,41.27-4.37a5,5,0,1,1,5.81,8.14A50.58,50.58,0,0,1,171.11,317.12Z"/><path class="cls-1" d="M323.37,175.64a5,5,0,0,1-.05-10c45.43-.43,58-40.84,58.09-41.24a5,5,0,1,1,9.58,2.85,72.91,72.91,0,0,1-13.78,24.05c-9.35,11-26.27,24.08-53.79,24.34Z"/><path class="cls-1" d="M327.38,481.6c-10.81,0-21.15-16.61-24.33-22.21a5,5,0,0,1,8.7-4.94c6.64,11.67,14.1,17.8,15.78,17.11,1-.4,1.18-.85,1.32-1.31.46-1.52,1-7.91-11.55-26.09-8.94-13-20.86-28.34-30.45-40.69-3.24-4.18-6.24-8.05-8.82-11.44-9-11.84-2.48-23,2.26-27.3l.09-.08c.43-.36,43.22-37,60-51.54,13.38-11.55,4.55-29.23,3.91-30.46-8.82-14.72-22.36-26.42-40.24-34.78a5,5,0,1,1,4.23-9.06c19.49,9.11,34.94,22.54,44.66,38.82l.1.17c4.82,8.84,9.74,29.19-6.13,42.88-16.51,14.26-58.05,49.86-60,51.51-1.15,1.08-6.41,6.68-1,13.78,2.57,3.36,5.56,7.21,8.79,11.37,9.66,12.45,21.68,27.94,30.77,41.14,16.22,23.55,13.72,31.89,12.9,34.63a11.77,11.77,0,0,1-7.12,7.71A10.58,10.58,0,0,1,327.38,481.6Z"/><path class="cls-1" d="M293.77,499.7a14.64,14.64,0,0,1-6.36-1.46c-9.58-4.57-15-18.83-17.87-30-3.42-13.34-11.43-44.56-18.59-63.32q-1-2.52-1.86-4.81c-6-15.48-10-25.71-1.64-38.28,3-4.47,5.89-8.23,8.72-11.86,5-6.46,9.36-12,11.72-19.08C271.52,320.1,278.27,300,309.65,300a5,5,0,0,1,0,10c-24.19,0-28.67,13.37-32.28,24.12-2.9,8.65-8,15.16-13.31,22-2.71,3.49-5.51,7.09-8.28,11.25-5.23,7.87-3.53,13.27,2.64,29.13.6,1.55,1.22,3.16,1.87,4.86,7.36,19.29,15.47,50.9,18.94,64.4,3.15,12.29,7.94,21.28,12.49,23.44a5,5,0,0,0,4.59-.13c.85-.39,1-.78,1.11-1.21.94-3.84-3.92-13.17-9-19.61a5,5,0,0,1,7.87-6.17c2.25,2.87,13.34,17.69,10.81,28.13a11.5,11.5,0,0,1-6.66,7.95A16.09,16.09,0,0,1,293.77,499.7Z"/><path class="cls-1" d="M269.46,317.71a48.86,48.86,0,0,1-30.22-9.94,5,5,0,1,1,6.07-7.94c19.14,14.62,43.06,4.32,43.3,4.21a5,5,0,0,1,4,9.15A62.35,62.35,0,0,1,269.46,317.71Z"/><path class="cls-1" d="M219.84,312.64a60.81,60.81,0,0,1-17.25-2.47,59,59,0,0,1-24.18-13.69,5,5,0,0,1,7.17-7c1.23,1.25,29.86,29.43,73.59-.63a5,5,0,0,1,5.66,8.24C247.61,309,232.26,312.64,219.84,312.64Z"/><path class="cls-1" d="M161,71a30,30,0,1,1,30-30,5,5,0,0,1-10,0,20,20,0,1,0-20,20,5,5,0,0,1,0,10Z"/><path class="cls-1" d="M285,71a5,5,0,0,1,0-10,20,20,0,1,0-20-20,5,5,0,0,1-10,0,30,30,0,1,1,30,30Z"/><path class="cls-1" d="M221,277a5,5,0,0,1-3.76-1.71C215.92,273.79,185,237.62,185,167.5S215.92,61.21,217.24,59.71A5,5,0,0,1,220.89,58a5.08,5.08,0,0,1,3.73,1.55C226,61,258,95.39,259,167.43c0,79-33.41,107.27-34.83,108.44A5,5,0,0,1,221,277Zm.15-205.8C213.21,82.93,195,115.53,195,167.5c0,52.94,18.73,85.58,26.47,96.81C229.7,254.65,249,225.77,249,167.5,248.25,114.3,229.38,82.55,221.15,71.2Z"/><path class="cls-1" d="M450.76,502H414.94a13.26,13.26,0,0,1-13.24-13.24V345.92a13.26,13.26,0,0,1,13.24-13.24h35.82A13.26,13.26,0,0,1,464,345.92V488.76A13.26,13.26,0,0,1,450.76,502ZM414.94,342.68a3.25,3.25,0,0,0-3.24,3.24V488.76a3.24,3.24,0,0,0,3.24,3.24h35.82a3.24,3.24,0,0,0,3.24-3.24V345.92a3.25,3.25,0,0,0-3.24-3.24Z"/><path class="cls-1" d="M449.34,342.68a5,5,0,0,1-5-5V155.08c0-2.58-.41-6-2.4-7.67a7,7,0,0,0-4.89-1.21l-.34.05c-1.7.2-41.91,5.62-41.91,60.74v81.33c.17,1.62,1.28,8.16,8.09,8.16H413c2.13.08,8.49.73,13.17,5.35A17.34,17.34,0,0,1,431,314.5v23.18a5,5,0,1,1-10,0V314.5A7.41,7.41,0,0,0,419.1,309c-2.06-2-5.57-2.47-6.59-2.48h-9.62a16.9,16.9,0,0,1-15.5-9.09,23,23,0,0,1-2.58-8.48c0-.12,0-.24,0-.36V207c0-18.4,4.36-43.66,25.14-59.54a57.05,57.05,0,0,1,25.5-11.12c1.34-.21,7.71-.93,12.9,3.4,4,3.32,6,8.49,6,15.35v182.6A5,5,0,0,1,449.34,342.68Z"/><path class="cls-1" d="M496,468H460.62a5,5,0,0,1,0-10H491V37H310a5,5,0,0,1,0-10H496a5,5,0,0,1,5,5V463A5,5,0,0,1,496,468Z"/><path class="cls-1" d="M404.67,468H333a5,5,0,0,1,0-10h71.64a5,5,0,1,1,0,10Z"/><path class="cls-1" d="M273.25,468H169.15a5,5,0,1,1,0-10h104.1a5,5,0,0,1,0,10Z"/><path class="cls-1" d="M107.75,468H16a5,5,0,0,1-5-5V32a5,5,0,0,1,5-5H137.68a5,5,0,0,1,0,10H21V458h86.75a5,5,0,0,1,0,10Z"/></svg>