<?xml version="1.0" ?><svg viewBox="0 0 512 512" xmlns="http://www.w3.org/2000/svg"><defs><style>.cls-1{fill:#3f456b;}</style></defs><title/><g id="Lines"><path class="cls-1" d="M212,180a5,5,0,1,1,0-10c6.49,0,12-4.58,12-10s-5.48-10-12-10H131c-6.49,0-12,4.58-12,10s5.48,10,12,10a5,5,0,1,1,0,10c-12.11,0-22-9-22-20s9.86-20,22-20H212c12.11,0,22,9,22,20S224.14,180,212,180Z"/><path class="cls-1" d="M219,228.47H126a5,5,0,0,1,0-10h93a5,5,0,0,1,0,10Z"/><path class="cls-1" d="M305.17,500H41c-12.35,0-21-3.76-25.72-11.18-8.84-13.9.84-34.93,1.26-35.82l.07-.15L120.74,248.49V176a5,5,0,0,1,10,0v73.69a5,5,0,0,1-.55,2.27L25.56,457.31c-2.19,4.75-6.71,18.51-1.83,26.16C26.49,487.8,32.3,490,41,490H305.17c7.83,0,13.19-2.08,16-6.19,5.17-7.68,1.41-21.61-.57-26.6L214.75,252a5,5,0,0,1-.56-2.29V176a5,5,0,0,1,10,0v72.47L329.56,452.83c.06.14.13.27.19.41.36.91,8.93,22.41-.33,36.16C324.69,496.43,316.53,500,305.17,500Z"/><path class="cls-1" d="M289.09,390a5,5,0,0,1-5-5V220a5,5,0,0,1,10,0V385A5,5,0,0,1,289.09,390Z"/><path class="cls-1" d="M289.09,186.67a5,5,0,0,1-5-5V53.74a5,5,0,0,1,1.94-4,15.37,15.37,0,1,0-18.16.48A5,5,0,0,1,270,54.37v127.3a5,5,0,0,1-10,0V56.8A25.37,25.37,0,1,1,294.09,56V181.67A5,5,0,0,1,289.09,186.67Z"/><path class="cls-1" d="M265,343a5,5,0,0,1-5-5V220a5,5,0,0,1,10,0V338A5,5,0,0,1,265,343Z"/><path class="cls-1" d="M486.67,193.21a5,5,0,0,1-5-5V104.86a5,5,0,1,1,10,0v83.35A5,5,0,0,1,486.67,193.21Z"/><path class="cls-1" d="M448.1,404c-24,0-43.57-19.78-43.57-44.08V216.57a5,5,0,1,1,10,0v143.3C414.53,379,429.27,394,448.1,394s33.57-15,33.57-34.08V216.56a5,5,0,0,1,10,0V359.87C491.67,384.17,472.12,404,448.1,404Z"/><path class="cls-1" d="M409.53,192.63a5,5,0,0,1-5-5V104.86a5,5,0,0,1,10,0v82.77A5,5,0,0,1,409.53,192.63Z"/><path class="cls-1" d="M482.65,109.86H468.72a5,5,0,0,1,0-10h13.93a9.47,9.47,0,1,0,0-18.93H413.54a9.47,9.47,0,0,0,0,18.93h17.15a5,5,0,0,1,0,10H413.54a19.47,19.47,0,0,1,0-38.93h69.11a19.47,19.47,0,1,1,0,38.93Z"/><path class="cls-1" d="M482.65,221.56H413.54a19.47,19.47,0,0,1,0-38.93h69.11a19.47,19.47,0,1,1,0,38.93Zm-69.11-28.93a9.47,9.47,0,0,0,0,18.93h69.11a9.47,9.47,0,1,0,0-18.93Z"/><path class="cls-1" d="M399,207H349a5,5,0,0,1,0-10h50a5,5,0,0,1,0,10Z"/><path class="cls-1" d="M409,260.94H292a5,5,0,0,1,0-10H409a5,5,0,0,1,0,10Z"/><path class="cls-1" d="M340.16,225H218.74a5,5,0,0,1,0-10H340.16c1.13,0,2.84-2,2.84-5V192c0-3-1.71-5-2.84-5H219.74a5,5,0,0,1,0-10H340.16c7.08,0,12.84,6.73,12.84,15v18C353,218.27,347.24,225,340.16,225Z"/><path class="cls-1" d="M416,500H290a5,5,0,0,1,0-10H416c13.64,0,24.26-3.84,31.57-11.42,12-12.44,11.45-31.2,11.44-31.38V395.52a5,5,0,0,1,10,0v51.39c.06,2,.37,23.37-14.17,38.53C445.57,495.1,432.5,500,416,500Z"/><path class="cls-1" d="M240,292.5a5,5,0,0,1-5-5V256a5,5,0,0,1,5-5h25a5,5,0,0,1,0,10H245v26.5A5,5,0,0,1,240,292.5Z"/><path class="cls-1" d="M126.75,150a5,5,0,0,1-4.69-3.27,22.54,22.54,0,0,1-1.33-11c.93-6.63,6.59-22.57,39-27.24,17.7-2.55,34.85.11,47.07,7.29C213.29,119.58,220.17,127,221,135c.36,3.6-.32,8.9-5.64,13.68a5,5,0,1,1-6.68-7.44c2.38-2.14,2.49-4,2.37-5.23-.43-4.28-5.1-9.2-9.26-11.65-10.14-6-25.31-8.21-40.57-6-26.47,3.81-30.09,15.3-30.57,18.73a12.8,12.8,0,0,0,.81,6.15,5,5,0,0,1-4.69,6.73Z"/><path class="cls-1" d="M240,261a5,5,0,0,1-5-4.39c-.07-.52-1.43-12.78,6.67-21,5.42-5.49,13.44-7.7,23.82-6.59a5,5,0,0,1-1.06,9.94c-7.18-.77-12.43.45-15.6,3.63-4.73,4.73-3.91,12.75-3.9,12.83a5,5,0,0,1-4.4,5.52A3.86,3.86,0,0,1,240,261Z"/><path class="cls-1" d="M402,198.4a5.47,5.47,0,0,1-.9-.08,5,5,0,0,1-4-5.79c.22-1.3,1.8-12.59-8.94-16.89-11.6-4.64-19.31,2.62-19.64,2.93a5.06,5.06,0,0,1-5.32,1.07,5,5,0,0,1-3.17-4.38,11.72,11.72,0,0,0-3.45-6.53c-4.43-4.45-12.47-6.44-23.24-5.74a5,5,0,0,1-3.87-1.47,5,5,0,0,1-1.44-3.89c.15-2.24.92-22.1-18.41-23.65a3.07,3.07,0,0,1-.53-.07c-.08,0-9.69-1.65-16.77,4.3a5,5,0,0,1-6.43-7.67c10-8.4,22.57-6.85,24.75-6.51,15.38,1.32,22.05,10.76,24.94,18.46a40.39,40.39,0,0,1,2.3,10.36c10.66.07,18.95,2.69,24.71,7.81a23,23,0,0,1,5.12,6.5,28.42,28.42,0,0,1,24.17-.8c14.86,5.94,16.35,20.87,15.06,27.94A5,5,0,0,1,402,198.4Z"/><path class="cls-1" d="M265,145a4.93,4.93,0,0,1-2.72-.81c-.4-.24-7.3-4.31-18.31.41a5,5,0,0,1-6.53-6.65c.71-1.62,6.57-16.22-7.94-24.62-6.33-3.66-13.05-3.74-20-.22a33.43,33.43,0,0,0-9,6.73,5,5,0,0,1-7.52-6.59c6.55-7.49,23.66-18.91,41.5-8.58,12.92,7.48,15.45,19,14.49,28.09,11.25-1.81,18.41,2.83,18.78,3.08A5,5,0,0,1,265,145Z"/><path class="cls-1" d="M87.24,201.42a46.29,46.29,0,0,1-7.06-.49c-9.24-1.37-16.13-5.34-20.4-11.79-4.63-7-4.89-15.16-4.43-20.31a23.09,23.09,0,0,1-11.6-8.08c-.25-.33-.48-.66-.7-1A26.13,26.13,0,0,1,27.25,162c-4.9-.94-13.5-4.4-16.14-17-3.24-15.36,3.7-23.75,9.82-27.25a35.08,35.08,0,0,1,6.46-19.71C25.24,94.92,23,89.76,22.9,82,15.75,77.81,6.38,68.28,8,53.45c1-9.33,5.31-17,12.37-22.29,8.47-6.31,20.37-8.46,33.49-6.08C64.59,27,72.46,32.76,76.06,41.24a27.72,27.72,0,0,1,1.29,17.15,40.64,40.64,0,0,1,18.54,7C103.78,59,118,52.62,132.43,60.63c14.58,8.1,14.75,22.71,12,32.4,13.37,6.27,15.68,19.9,15.78,20.54a5,5,0,1,1-9.87,1.56,18.88,18.88,0,0,0-13.62-14.3,5,5,0,0,1-3.22-7c.79-1.71,7.47-17-5.92-24.48-14.31-8-27.39,5.49-27.94,6.07A5,5,0,0,1,96.06,77a4.93,4.93,0,0,1-3.6-1.45C84.23,67.3,70.44,68,70.3,68a5,5,0,0,1-4.46-7.76c2.25-3.38,3.32-9.64,1-15.08s-7.37-8.89-14.74-10.23C41.74,33,32.6,34.55,26.38,39.18A21.49,21.49,0,0,0,18,54.55C16.4,68.65,29.77,74.32,29.9,74.38a5,5,0,0,1,3.09,5c-.73,10.19,3.42,14.13,4,14.6a4.78,4.78,0,0,1,2.14,3.71,5,5,0,0,1-1.78,4.07c-.26.24-7.14,6.74-6.33,18.93a5,5,0,0,1-3.62,5.14h0A10.81,10.81,0,0,0,23,129c-2.66,3.23-3.36,7.93-2.09,14,1.13,5.34,3.82,8.36,8.25,9.21,5.36,1,10.76-1.54,11.7-3a5,5,0,0,1,9.08,1.88c.15.7,1.89,7.53,11.79,8.94a5,5,0,0,1,4.13,6.2c0,.09-2.49,10.23,2.3,17.42,2.65,4,7.22,6.44,13.59,7.38.24,0,15.88,2.46,24.91-5.75a4.87,4.87,0,0,1,3.67-1.39,4.71,4.71,0,0,1,3.38,1.71c.47.43,3.94,3.38,12,3.38a5,5,0,1,1,0,10c-7.47,0-12.55-1.94-15.65-3.74C102.51,200.38,93.41,201.42,87.24,201.42Z"/><path class="cls-1" d="M361.82,345.44a44.18,44.18,0,0,1-10-1.21c-7.79-1.81-14.93-5.11-21.84-8.29-4.61-2.14-9.63-3-16.25-2.8a71.16,71.16,0,0,0-22.84,4.54,5,5,0,0,1-3.53-9.36,81.67,81.67,0,0,1,26.07-5.18c8.16-.23,14.74.94,20.74,3.72,6.75,3.11,13.12,6.05,19.91,7.63,8,1.85,14.79,1,23.48-2.93L380,330.4c8.64-4,20.48-9.52,31.37-3.53a5,5,0,1,1-4.82,8.76c-6.45-3.55-14.53.21-22.34,3.84l-2.61,1.2C374.54,343.88,368.23,345.44,361.82,345.44Z"/><path class="cls-1" d="M73.83,356.56H32.54a19.47,19.47,0,0,1,0-38.93H87.17a5,5,0,1,1,0,10H32.54a9.47,9.47,0,0,0,0,18.93H73.83a5,5,0,0,1,0,10Z"/><path class="cls-1" d="M485.87,246.47H411.13a5,5,0,0,1,0-10h74.74a5,5,0,0,1,0,10Z"/></g><g id="Outline"><path class="cls-1" d="M474.62,140.4H448.9a5,5,0,0,1,0-10h25.72a5,5,0,0,1,0,10Z"/><path class="cls-1" d="M474.62,168.52H461a5,5,0,0,1,0-10h13.66a5,5,0,0,1,0,10Z"/><path class="cls-1" d="M474.62,272.19H461a5,5,0,0,1,0-10h13.66a5,5,0,0,1,0,10Z"/><path class="cls-1" d="M474.62,298.71H448.9a5,5,0,0,1,0-10h25.72a5,5,0,0,1,0,10Z"/><path class="cls-1" d="M187,263H155a5,5,0,0,1,0-10h32a5,5,0,0,1,0,10Z"/><path class="cls-1" d="M187,298H170a5,5,0,0,1,0-10h17a5,5,0,0,1,0,10Z"/><path class="cls-1" d="M187,395H155a5,5,0,0,1,0-10h32a5,5,0,0,1,0,10Z"/><path class="cls-1" d="M187,427H170a5,5,0,0,1,0-10h17a5,5,0,0,1,0,10Z"/><path class="cls-1" d="M187,460H155a5,5,0,0,1,0-10h32a5,5,0,0,1,0,10Z"/><path class="cls-1" d="M187,330H155a5,5,0,0,1,0-10h32a5,5,0,0,1,0,10Z"/><path class="cls-1" d="M187,362H170a5,5,0,0,1,0-10h17a5,5,0,0,1,0,10Z"/><path class="cls-1" d="M377,466a17,17,0,1,1,17-17A17,17,0,0,1,377,466Zm0-24a7,7,0,1,0,7,7A7,7,0,0,0,377,442Z"/><path class="cls-1" d="M353.5,409A22.5,22.5,0,1,1,376,386.5,22.52,22.52,0,0,1,353.5,409Zm0-35A12.5,12.5,0,1,0,366,386.5,12.52,12.52,0,0,0,353.5,374Z"/><path class="cls-1" d="M359.47,63.84a5,5,0,0,1-3.54-8.54l8-8A5,5,0,1,1,371,54.36l-8,8A5,5,0,0,1,359.47,63.84Z"/><path class="cls-1" d="M332.1,91.18a5,5,0,0,1-3.53-8.54l8-8a5,5,0,1,1,7.08,7.07l-8,8A5,5,0,0,1,332.1,91.18Z"/><path class="cls-1" d="M367.47,91.19a5,5,0,0,1-3.53-1.46l-8-8A5,5,0,0,1,363,74.64l8,8a5,5,0,0,1-3.54,8.54Z"/><path class="cls-1" d="M340.13,63.83a5,5,0,0,1-3.54-1.47l-8-8a5,5,0,0,1,7.07-7.08l8,8a5,5,0,0,1-3.54,8.54Z"/><path class="cls-1" d="M70.47,254.84a5,5,0,0,1-3.54-8.54l8-8A5,5,0,1,1,82,245.36l-8,8A5,5,0,0,1,70.47,254.84Z"/><path class="cls-1" d="M43.1,282.18a5,5,0,0,1-3.53-8.54l8-8a5,5,0,1,1,7.08,7.07l-8,8A5,5,0,0,1,43.1,282.18Z"/><path class="cls-1" d="M78.47,282.19a5,5,0,0,1-3.53-1.46l-8-8A5,5,0,1,1,74,265.64l8,8a5,5,0,0,1-3.54,8.54Z"/><path class="cls-1" d="M51.13,254.83a5,5,0,0,1-3.54-1.47l-8-8a5,5,0,1,1,7.07-7.08l8,8a5,5,0,0,1-3.54,8.54Z"/></g></svg>