<?xml version="1.0" ?><svg viewBox="0 0 512 512" xmlns="http://www.w3.org/2000/svg"><defs><style>.cls-1{fill:#3f456b;}</style></defs><title/><g id="Lines"><path class="cls-1" d="M431.69,501H79.31A37.36,37.36,0,0,1,42,463.69V47.31A37.36,37.36,0,0,1,79.31,10H431.69A37.36,37.36,0,0,1,469,47.31V463.69A37.36,37.36,0,0,1,431.69,501ZM79.31,20A27.34,27.34,0,0,0,52,47.31V463.69A27.34,27.34,0,0,0,79.31,491H431.69A27.34,27.34,0,0,0,459,463.69V47.31A27.34,27.34,0,0,0,431.69,20Z"/><path class="cls-1" d="M464,115H47a5,5,0,0,1,0-10H464a5,5,0,0,1,0,10Z"/><path class="cls-1" d="M407,145H109c-12,0-21.79-8.78-22-19.65V110a5,5,0,0,1,10,0v15c0,5.51,5.38,10,12,10H407c6.62,0,12-4.49,12-10V110a5,5,0,0,1,10,0v15.35C428.79,136.22,419,145,407,145Z"/></g><g id="Outline"><path class="cls-1" d="M491.22,116.5a5,5,0,0,1-3.28-8.78c.91-.81,2.82-3.13,2.72-4.92-.06-1-.89-2.1-2.47-3.22-5.35-3.78-6.59-8-6.69-11-.24-7,5.61-11.94,6.27-12.49a5,5,0,0,1,6.36,7.72c-.86.73-2.7,2.84-2.64,4.44.05,1.18,1.38,2.35,2.47,3.13,5.26,3.72,6.54,8,6.68,10.9.35,7.1-5.48,12.38-6.15,13A5,5,0,0,1,491.22,116.5Z"/><path class="cls-1" d="M491.5,148.5a5,5,0,0,1-3.28-8.77c.91-.82,2.82-3.14,2.72-4.93-.06-1-.89-2.1-2.47-3.22-5.35-3.78-6.59-8.05-6.69-11-.24-7,5.61-11.94,6.27-12.49a5,5,0,0,1,6.36,7.72c-.86.73-2.7,2.84-2.63,4.44.05,1.18,1.37,2.35,2.47,3.13,5.25,3.72,6.53,8,6.68,10.9.35,7.1-5.49,12.38-6.16,13A5,5,0,0,1,491.5,148.5Z"/><path class="cls-1" d="M491.78,180.5a5,5,0,0,1-3.28-8.78c.92-.81,2.82-3.13,2.72-4.92-.06-1-.89-2.1-2.47-3.22-5.34-3.78-6.59-8.05-6.69-11-.24-7,5.61-12,6.28-12.49a5,5,0,0,1,6.35,7.72c-.86.73-2.7,2.84-2.63,4.43.05,1.19,1.37,2.36,2.47,3.14,5.26,3.72,6.53,8,6.68,10.9.35,7.1-5.49,12.38-6.15,13A5,5,0,0,1,491.78,180.5Z"/><path class="cls-1" d="M492.06,212.5a5,5,0,0,1-3.28-8.78c.92-.82,2.82-3.13,2.72-4.92-.06-1-.89-2.1-2.47-3.22-5.34-3.78-6.58-8.05-6.69-11-.24-7,5.61-12,6.28-12.49a5,5,0,0,1,6.36,7.72c-.86.72-2.71,2.84-2.64,4.43.05,1.18,1.37,2.36,2.47,3.14,5.26,3.72,6.54,8,6.68,10.9.35,7.1-5.49,12.38-6.15,13A5,5,0,0,1,492.06,212.5Z"/><path class="cls-1" d="M21.22,378.5a5,5,0,0,1-3.28-8.78c.91-.81,2.82-3.13,2.72-4.92-.06-1-.89-2.1-2.47-3.22-5.35-3.78-6.59-8.05-6.69-11-.24-6.95,5.61-11.94,6.27-12.49a5,5,0,0,1,6.36,7.72c-.86.73-2.7,2.84-2.64,4.44.05,1.18,1.38,2.35,2.47,3.13,5.26,3.72,6.54,8,6.68,10.9.35,7.1-5.48,12.38-6.15,13A5,5,0,0,1,21.22,378.5Z"/><path class="cls-1" d="M21.5,410.5a5,5,0,0,1-3.28-8.77c.91-.82,2.82-3.14,2.72-4.93-.06-1-.89-2.1-2.47-3.22-5.35-3.78-6.59-8.05-6.69-11-.24-6.95,5.61-11.94,6.27-12.49a5,5,0,0,1,6.36,7.72c-.86.73-2.7,2.84-2.63,4.44,0,1.18,1.37,2.35,2.47,3.13,5.25,3.72,6.53,8,6.68,10.9.35,7.1-5.49,12.38-6.16,13A5,5,0,0,1,21.5,410.5Z"/><path class="cls-1" d="M21.78,442.5a5,5,0,0,1-3.28-8.78c.92-.81,2.82-3.13,2.72-4.92-.06-1-.89-2.1-2.47-3.22-5.34-3.78-6.59-8.05-6.69-11-.24-7,5.61-11.95,6.28-12.49a5,5,0,0,1,6.35,7.72c-.86.73-2.7,2.84-2.63,4.43.05,1.19,1.37,2.36,2.47,3.14,5.26,3.72,6.53,8,6.68,10.9.35,7.1-5.49,12.38-6.15,12.95A5,5,0,0,1,21.78,442.5Z"/><path class="cls-1" d="M22.06,474.5a5,5,0,0,1-3.28-8.78c.92-.82,2.82-3.13,2.72-4.92-.06-1-.89-2.1-2.47-3.22-5.34-3.78-6.58-8.05-6.69-11-.24-7,5.61-11.95,6.28-12.49A5,5,0,0,1,25,441.85c-.86.72-2.71,2.84-2.64,4.43.05,1.18,1.37,2.36,2.47,3.14,5.26,3.72,6.54,8,6.68,10.9.35,7.1-5.49,12.38-6.15,12.95A5,5,0,0,1,22.06,474.5Z"/><path class="cls-1" d="M323,295H192a5,5,0,0,1,0-10H323a5,5,0,0,1,0,10Z"/><path class="cls-1" d="M224.81,351.61a5,5,0,0,1-4.32-7.5l65.36-113.22a5,5,0,0,1,8.66,5L229.15,349.11A5,5,0,0,1,224.81,351.61Z"/><path class="cls-1" d="M290.19,351.61a5,5,0,0,1-4.34-2.5L220.49,235.89a5,5,0,0,1,8.66-5l65.36,113.22a5,5,0,0,1-4.32,7.5Z"/></g></svg>