<?xml version="1.0" ?><svg viewBox="0 0 512 512" xmlns="http://www.w3.org/2000/svg"><defs><style>.cls-1{fill:#3f456b;}</style></defs><title/><g id="Lines"><path class="cls-1" d="M273,500c-27.91,0-35.57-16.25-35.89-16.94a5.05,5.05,0,0,1-.44-2.06V88a5,5,0,0,1,5-5H303a5,5,0,0,1,5,5V481a5.07,5.07,0,0,1-.29,1.68C307.46,483.39,301.2,500,273,500Zm-26.33-20.32C248.33,482.18,255,490,273,490s23.68-7.76,25-10.12V93H246.67ZM303,481h0Z"/><path class="cls-1" d="M345,93H201a5,5,0,0,1-5-5,77,77,0,0,1,154,0A5,5,0,0,1,345,93ZM206.18,83H339.82a67,67,0,0,0-133.64,0Z"/><path class="cls-1" d="M273,52.5a5,5,0,0,1-5-5V16a5,5,0,0,1,10,0V47.5A5,5,0,0,1,273,52.5Z"/><path class="cls-1" d="M158.72,181H123.14a5,5,0,1,1,0-10h35.58a11.51,11.51,0,1,0,0-23H32.93a11.51,11.51,0,1,0,0,23H69.57a5,5,0,0,1,0,10H32.93c-12.13,0-22-9.65-22-21.5s9.87-21.5,22-21.5H158.72c12.13,0,22,9.65,22,21.5S170.85,181,158.72,181Z"/><path class="cls-1" d="M39.4,324.27a5,5,0,0,1-3.49-8.59l15-14.58-14.47-14A5,5,0,0,1,35,283.47V176a5,5,0,0,1,10,0V281.36L61.6,297.51a5,5,0,0,1,0,7.18L42.88,322.86A5,5,0,0,1,39.4,324.27Z"/><path class="cls-1" d="M40,361.15a5,5,0,0,1-3.49-8.59l15-14.58-39-37.9a5,5,0,1,1,7-7.18l42.74,41.49a5,5,0,0,1,0,7.18L43.44,359.74A5,5,0,0,1,40,361.15Z"/><path class="cls-1" d="M40,398a5,5,0,0,1-3.49-8.59l15-14.58L35.91,359.74a5,5,0,0,1,7-7.18l19.27,18.71a5,5,0,0,1,0,7.18L43.44,396.62A5,5,0,0,1,40,398Z"/><path class="cls-1" d="M151.7,324.27a5,5,0,0,1-3.49-1.41L129.5,304.69a5,5,0,0,1,0-7.18l16.64-16.15V176a5,5,0,0,1,10,0V283.47a5,5,0,0,1-1.52,3.59l-14.46,14,15,14.58a5,5,0,0,1-3.48,8.59Z"/><path class="cls-1" d="M151.14,361.15a5,5,0,0,1-3.49-1.41l-18.71-18.17a5,5,0,0,1,0-7.18l43.58-42.3a5,5,0,1,1,7,7.17L139.6,338l15,14.58a5,5,0,0,1-3.48,8.59Z"/><path class="cls-1" d="M151.14,398a5,5,0,0,1-3.49-1.41l-18.71-18.17a5,5,0,0,1,0-7.18l19.27-18.71a5,5,0,0,1,7,7.18L139.6,374.86l15,14.58a5,5,0,0,1-3.48,8.59Z"/><path class="cls-1" d="M81.63,500.06a5.27,5.27,0,0,1-.79-.07c-23-3.71-34.26-16.28-39.67-26.18a50.93,50.93,0,0,1-6.21-21V431a5,5,0,0,1,1.51-3.59l15-14.58L35.91,397.7a5,5,0,0,1,7-7.17l19.28,18.71a5,5,0,0,1,1.51,3.59,5,5,0,0,1-1.52,3.58L45,433.11V452.6c.08,1.85,1.89,30.54,35.25,37.12V278.21c-.1-1.63-.25-9.28,4.62-14.56A15.15,15.15,0,0,1,96.38,259c11.91,0,15.06,12.49,15.06,19.1V489.33L114,489c29.89-7.66,32-34.39,32.1-36.45V433.11l-17.2-16.7a5,5,0,0,1,0-7.17l19.27-18.71a5,5,0,1,1,7,7.17L139.6,412.83l15,14.58a5,5,0,0,1,1.52,3.59v21.69a1.15,1.15,0,0,1,0,.19c0,.37-1.84,36.35-39.95,45.9a4,4,0,0,1-.6.11L107.06,500a5,5,0,0,1-5.62-5V278.05c0-.07-.13-9.1-5.06-9.1-2.53,0-3.61.85-4.2,1.49-2,2.11-2.06,6.23-2,7.21a2.75,2.75,0,0,1,0,.4V495a5,5,0,0,1-4.92,5l-3.57.07Z"/><path class="cls-1" d="M166.09,84H26A15,15,0,0,1,11,69V25A15,15,0,0,1,26,10H166.09a15,15,0,0,1,15,15V69A15,15,0,0,1,166.09,84ZM26,20a5,5,0,0,0-5,5V69a5,5,0,0,0,5,5H166.09a5,5,0,0,0,5-5V25a5,5,0,0,0-5-5Z"/><path class="cls-1" d="M58.75,84a5,5,0,0,1-5-5V15a5,5,0,0,1,10,0V79A5,5,0,0,1,58.75,84Z"/><path class="cls-1" d="M132.43,84a5,5,0,0,1-5-5V15a5,5,0,0,1,10,0V79A5,5,0,0,1,132.43,84Z"/><path class="cls-1" d="M454,452H362a15,15,0,0,1-15-15V138a15,15,0,0,1,15-15h92a15,15,0,0,1,15,15V437A15,15,0,0,1,454,452ZM362,133a5,5,0,0,0-5,5V437a5,5,0,0,0,5,5h92a5,5,0,0,0,5-5V138a5,5,0,0,0-5-5Z"/><path class="cls-1" d="M410,221a30,30,0,1,1,30-30A30,30,0,0,1,410,221Zm0-50a20,20,0,1,0,20,20A20,20,0,0,0,410,171Z"/><path class="cls-1" d="M449.74,501H365.26c-7.24,0-13.31-3.26-16.66-8.95a18.43,18.43,0,0,1-.09-18.27L361.44,445a5,5,0,1,1,9.12,4.1l-13,29-.19.38a8.53,8.53,0,0,0-.14,8.54c1.53,2.6,4.38,4,8,4h84.48c3.73,0,6.59-1.31,8.06-3.68s1.41-5.74-.26-9.08l-.06-.13-13-28a5,5,0,1,1,9.06-4.22l13,27.95c3.22,6.49,3.14,13.32-.22,18.74S457,501,449.74,501Z"/></g><g id="Outline"><path class="cls-1" d="M241.67,247.68a5,5,0,0,1-1-9.89l61.33-13a5,5,0,0,1,2.08,9.78l-61.33,13A4.66,4.66,0,0,1,241.67,247.68Z"/><path class="cls-1" d="M241.67,283.82a5,5,0,0,1-1-9.89l61.33-13a5,5,0,0,1,2.08,9.78l-61.33,13A5.33,5.33,0,0,1,241.67,283.82Z"/><path class="cls-1" d="M241.67,320a5,5,0,0,1-1-9.9l61.33-13a5,5,0,0,1,2.08,9.79l-61.33,13A5.33,5.33,0,0,1,241.67,320Z"/><path class="cls-1" d="M241.67,175.5a5,5,0,0,1-1-9.89l61.33-13a5,5,0,0,1,2.08,9.78l-61.33,13A4.66,4.66,0,0,1,241.67,175.5Z"/><path class="cls-1" d="M241.67,211.64a5,5,0,0,1-1-9.89l61.33-13a5,5,0,0,1,2.08,9.78l-61.33,13A5.33,5.33,0,0,1,241.67,211.64Z"/><path class="cls-1" d="M241.67,356.09a5,5,0,0,1-1-9.89l61.33-13A5,5,0,0,1,304,343l-61.33,13A4.66,4.66,0,0,1,241.67,356.09Z"/><path class="cls-1" d="M241.67,392.23a5,5,0,0,1-1-9.89l61.33-13a5,5,0,0,1,2.08,9.78l-61.33,13A5.33,5.33,0,0,1,241.67,392.23Z"/><path class="cls-1" d="M241.67,428.36a5,5,0,0,1-1-9.89l61.33-13a5,5,0,0,1,2.08,9.78l-61.33,13A4.66,4.66,0,0,1,241.67,428.36Z"/><path class="cls-1" d="M241.67,464.5a5,5,0,0,1-1-9.89l61.33-13a5,5,0,0,1,2.08,9.78l-61.33,13A4.66,4.66,0,0,1,241.67,464.5Z"/><path class="cls-1" d="M464,340H352a5,5,0,0,1,0-10H464a5,5,0,0,1,0,10Z"/><path class="cls-1" d="M464,373H352a5,5,0,0,1,0-10H464a5,5,0,0,1,0,10Z"/><path class="cls-1" d="M464,405H352a5,5,0,0,1,0-10H464a5,5,0,0,1,0,10Z"/></g></svg>