<?xml version="1.0" ?><svg enable-background="new 0 0 512 512" version="1.1" viewBox="0 0 512 512" xml:space="preserve" xmlns="http://www.w3.org/2000/svg" xmlns:xlink="http://www.w3.org/1999/xlink"><g id="Lines"><g><g><g id="XMLID_39_"><g><g><g><path d="M116.613,313.889c-1.495,0-2.974-0.667-3.959-1.941c-32.141-41.56-57.148-87.687-74.329-137.099         C20.551,123.733,11.539,70.12,11.539,15.5c0-2.761,2.238-5,5-5h128c2.762,0,5,2.239,5,5         c0,40.571,6.937,80.306,20.615,118.102c13.22,36.524,32.405,70.394,57.024,100.668c1.742,2.143,1.418,5.292-0.725,7.034         c-2.142,1.742-5.291,1.417-7.033-0.725c-25.328-31.146-45.067-65.994-58.669-103.574         C147.238,99.669,140.121,60.499,139.573,20.5H21.564c0.533,51.77,9.343,102.568,26.206,151.064         c16.825,48.39,41.316,93.563,72.794,134.266c1.689,2.184,1.288,5.325-0.896,7.014         C118.758,313.548,117.681,313.889,116.613,313.889z" fill="#3F456B"/></g></g></g><g><g><g><path d="M496.539,500.5c-43.203,0-86.051-5.684-127.352-16.894c-2.665-0.723-4.239-3.47-3.516-6.135         s3.469-4.24,6.135-3.516c38.855,10.546,79.108,16.098,119.732,16.519V372.465c-55.924-0.788-111.329-14.782-160.55-40.591         c-2.445-1.282-3.389-4.305-2.105-6.75c1.282-2.447,4.306-3.389,6.75-2.106c49.26,25.83,104.9,39.482,160.905,39.482         c2.762,0,5,2.239,5,5v128C501.539,498.261,499.301,500.5,496.539,500.5z" fill="#3F456B"/></g></g></g><g><g><g><path d="M301.318,313.45c-0.954,0-1.918-0.272-2.771-0.842c-18.374-12.269-35.713-26.331-51.533-41.796         c-1.975-1.931-2.011-5.096-0.08-7.071c1.931-1.976,5.096-2.01,7.07-0.081c15.38,15.034,32.234,28.705,50.096,40.631         c2.297,1.533,2.915,4.638,1.382,6.935C304.518,312.669,302.933,313.45,301.318,313.45z" fill="#3F456B"/></g></g></g><g><g><g><path d="M496.539,239.09c-59.726,0-115.875-23.256-158.104-65.486         c-42.229-42.229-65.486-98.378-65.486-158.104c0-2.761,2.238-5,5-5h122.59c2.762,0,5,2.239,5,5c0,50.178,40.822,91,91,91         c2.762,0,5,2.239,5,5v122.59C501.539,236.851,499.301,239.09,496.539,239.09z M283.006,20.5         c1.258,55.185,23.339,106.872,62.5,146.033c39.161,39.161,90.849,61.242,146.033,62.5V116.378         c-51.723-2.533-93.345-44.155-95.878-95.878H283.006z" fill="#3F456B"/></g></g></g></g></g><g><g><g><path d="M317.869,500.392c-0.491,0-0.83-0.006-1.003-0.011h-212.44c-0.011,0-0.022,0-0.035,0       c-2.076,0-36.15-0.35-58.14-22.266c-11.872-11.833-17.892-27.612-17.892-46.901v-32.543c0-35.362,20.923-52.233,38.476-60.159       c18.52-8.363,36.791-8.573,37.56-8.578h212.54c1.358-0.026,36.02-0.441,58.479,21.589       c12.146,11.915,18.306,28.002,18.306,47.815v32.543c0,19.765-6.151,35.755-18.282,47.526       C354.896,499.339,324.126,500.392,317.869,500.392z M104.409,490.381l212.676,0.002c0.323,0.01,32.041,0.665,51.433-18.196       c10.087-9.812,15.202-23.373,15.202-40.307v-32.543c0-17.027-5.15-30.712-15.309-40.676       c-19.493-19.121-51.069-18.738-51.38-18.729l-212.605,0.001c-0.133,0.001-17.136,0.235-33.74,7.812       c-21.45,9.789-32.326,26.922-32.326,50.925v32.543c0,16.534,5.03,29.931,14.95,39.818       c19.229,19.165,50.564,19.349,51.095,19.349C104.406,490.381,104.408,490.381,104.409,490.381z" fill="#3F456B"/></g></g></g><g><g><g><path d="M334.524,341.662c-2.762,0-5-2.239-5-5c0-13.837-13.446-19.26-21.462-21.26       c-22.691-5.664-47.323-5.554-71.148-5.446c-3.254,0.015-6.493,0.029-9.711,0.029h-23.368c-8.783,0-15.423-2.367-19.735-7.034       c-4.79-5.185-4.835-11.251-4.769-12.708v-11.838c0-12.35,9.762-16.833,16.323-16.833h77.232c5.209,0,8.989-1.074,10.931-3.105       c1.411-1.475,2.03-3.649,1.896-6.645c-0.352-7.827-12.112-7.453-12.609-7.432l-0.217,0.005h-97.245       c-7.554,0-13.243,2.03-16.91,6.034c-5.768,6.296-5.109,15.796-5.102,15.891l0.02,0.438v18.95       c0,18.607-15.851,25.395-24.463,26.437l-13.92,2.911c-1.022,0.198-23.009,4.642-23.009,21.607c0,2.761-2.238,5-5,5       s-5-2.239-5-5c0-20.22,20.316-29.39,31.06-31.415l14.524-3.015c1.597-0.191,15.808-2.298,15.808-16.525v-18.774       c-0.126-2-0.527-14.268,7.708-23.258c5.64-6.157,13.811-9.279,24.284-9.279h97.143c1.641-0.059,11.416-0.162,17.759,5.622       c3.172,2.893,4.956,6.82,5.16,11.355c0.261,5.788-1.307,10.5-4.657,14.005c-3.929,4.111-10.039,6.195-18.159,6.195h-77.232       c-2.326,0.057-6.323,1.021-6.323,6.833l-0.016,12.369c0,0.047-0.106,3.054,2.223,5.491c2.328,2.434,6.58,3.72,12.297,3.72       h23.368c3.203,0,6.427-0.015,9.666-0.029c24.438-0.113,49.708-0.224,73.615,5.744c18.455,4.606,29.04,15.892,29.04,30.962       C339.524,339.423,337.286,341.662,334.524,341.662z" fill="#3F456B"/></g></g></g><g><g><g><path d="M22.799,367.868c-0.258,3.215-3.073,5.611-6.288,5.354c-3.216-0.258-5.612-3.072-5.355-6.287       c0.258-3.214,3.072-5.612,6.288-5.354C20.659,361.838,23.057,364.653,22.799,367.868z" fill="#3F456B"/></g></g></g><g><g><g><path d="M25.745,356.848c-0.738,0-1.488-0.164-2.196-0.511c-2.479-1.215-3.505-4.211-2.289-6.69       c14.161-28.894,43.902-34.142,45.162-34.351c2.724-0.453,5.299,1.388,5.752,4.112c0.452,2.721-1.384,5.293-4.103,5.75       c-0.409,0.072-26.022,4.792-37.833,28.889C29.37,355.819,27.594,356.848,25.745,356.848z" fill="#3F456B"/></g></g></g><g><g><g><g><path d="M213.108,114.132c-1.279,0-2.56-0.488-3.535-1.464c-1.953-1.953-1.953-5.119,0-7.071l35.216-35.216        c1.951-1.952,5.119-1.952,7.07,0c1.953,1.953,1.953,5.119,0,7.071l-35.216,35.216        C215.668,113.644,214.388,114.132,213.108,114.132z" fill="#3F456B"/></g></g></g><g><g><g><path d="M248.324,114.132c-1.279,0-2.56-0.488-3.535-1.464l-35.216-35.216c-1.953-1.953-1.953-5.119,0-7.071        c1.951-1.952,5.119-1.952,7.07,0l35.216,35.216c1.953,1.953,1.953,5.119,0,7.071        C250.884,113.644,249.604,114.132,248.324,114.132z" fill="#3F456B"/></g></g></g></g><g><g><g><g><path d="M457.952,54.608c-1.279,0-2.56-0.488-3.535-1.464c-1.953-1.953-1.953-5.119,0-7.071l35.216-35.216        c1.951-1.952,5.119-1.952,7.07,0c1.953,1.953,1.953,5.119,0,7.071l-35.216,35.216        C460.512,54.12,459.231,54.608,457.952,54.608z" fill="#3F456B"/></g></g></g><g><g><g><path d="M493.168,54.608c-1.279,0-2.56-0.488-3.535-1.464l-35.216-35.216c-1.953-1.953-1.953-5.119,0-7.071        c1.951-1.952,5.119-1.952,7.07,0l35.216,35.216c1.953,1.953,1.953,5.119,0,7.071C495.728,54.12,494.447,54.608,493.168,54.608        z" fill="#3F456B"/></g></g></g></g></g></g><g id="Outline"><g><g><g><g><path d="M442.67,391.92c0-2.76,2.24-5,5-5l0,0c2.76,0,5,2.24,5,5l0,0c0,2.76-2.24,5-5,5l0,0       C444.91,396.92,442.67,394.68,442.67,391.92z M422.67,391.92c0-2.76,2.24-5,5-5l0,0c2.76,0,5,2.24,5,5l0,0c0,2.76-2.24,5-5,5       l0,0C424.91,396.92,422.67,394.68,422.67,391.92z M402.67,391.92c0-2.76,2.24-5,5-5l0,0c2.76,0,5,2.24,5,5l0,0       c0,2.76-2.24,5-5,5l0,0C404.91,396.92,402.67,394.68,402.67,391.92z M382.67,391.92c0-2.76,2.24-5,5-5l0,0c2.76,0,5,2.24,5,5       l0,0c0,2.76-2.24,5-5,5l0,0C384.91,396.92,382.67,394.68,382.67,391.92z" fill="#384169"/></g></g></g><g><g><g><path d="M462.67,439.2c0-2.76,2.24-5,5-5l0,0c2.76,0,5,2.24,5,5l0,0c0,2.76-2.24,5-5,5l0,0       C464.91,444.2,462.67,441.96,462.67,439.2z M442.67,439.2c0-2.76,2.24-5,5-5l0,0c2.76,0,5,2.24,5,5l0,0c0,2.76-2.24,5-5,5l0,0       C444.91,444.2,442.67,441.96,442.67,439.2z M422.67,439.2c0-2.76,2.24-5,5-5l0,0c2.76,0,5,2.24,5,5l0,0c0,2.76-2.24,5-5,5l0,0       C424.91,444.2,422.67,441.96,422.67,439.2z M402.67,439.2c0-2.76,2.24-5,5-5l0,0c2.76,0,5,2.24,5,5l0,0c0,2.76-2.24,5-5,5l0,0       C404.91,444.2,402.67,441.96,402.67,439.2z M382.67,439.2c0-2.76,2.24-5,5-5l0,0c2.76,0,5,2.24,5,5l0,0c0,2.76-2.24,5-5,5l0,0       C384.91,444.2,382.67,441.96,382.67,439.2z" fill="#384169"/></g></g></g><g><g><g><path d="M487.473,300.572c-1.279,0-2.56-0.488-3.535-1.464c-1.953-1.953-1.953-5.119,0-7.071l8.018-8.017       c1.951-1.952,5.119-1.952,7.07,0c1.953,1.953,1.953,5.119,0,7.071l-8.018,8.017       C490.032,300.083,488.752,300.572,487.473,300.572z" fill="#3F456B"/></g></g></g><g><g><g><path d="M460.11,327.915c-1.279,0-2.56-0.488-3.535-1.464c-1.953-1.953-1.953-5.118,0-7.071l8.017-8.017       c1.951-1.952,5.119-1.952,7.07,0c1.953,1.953,1.953,5.118,0,7.071l-8.017,8.017C462.67,327.426,461.39,327.915,460.11,327.915z       " fill="#3F456B"/></g></g></g><g><g><g><path d="M495.479,327.925c-1.279,0-2.56-0.488-3.535-1.464l-8.017-8.017c-1.953-1.953-1.953-5.119,0-7.071       c1.951-1.952,5.119-1.952,7.07,0l8.017,8.017c1.953,1.953,1.953,5.119,0,7.071       C498.039,327.437,496.759,327.925,495.479,327.925z" fill="#3F456B"/></g></g></g><g><g><g><path d="M468.137,300.562c-1.279,0-2.56-0.488-3.535-1.464l-8.017-8.017c-1.953-1.953-1.953-5.119,0-7.071       c1.951-1.952,5.119-1.952,7.07,0l8.017,8.017c1.953,1.953,1.953,5.119,0,7.071       C470.696,300.074,469.416,300.562,468.137,300.562z" fill="#3F456B"/></g></g></g><g><g><g><path d="M383.87,248.759c-1.279,0-2.56-0.488-3.535-1.464c-1.953-1.953-1.953-5.118,0-7.071l8.017-8.017       c1.951-1.952,5.119-1.952,7.07,0c1.953,1.953,1.953,5.118,0,7.071l-8.017,8.017C386.43,248.271,385.149,248.759,383.87,248.759       z" fill="#3F456B"/></g></g></g><g><g><g><path d="M356.507,276.102c-1.279,0-2.56-0.488-3.535-1.464c-1.953-1.953-1.953-5.119,0-7.071l8.018-8.017       c1.951-1.952,5.119-1.952,7.07,0c1.953,1.953,1.953,5.119,0,7.071l-8.018,8.017       C359.066,275.614,357.786,276.102,356.507,276.102z" fill="#3F456B"/></g></g></g><g><g><g><path d="M391.877,276.112c-1.279,0-2.56-0.488-3.535-1.464l-8.018-8.017c-1.953-1.953-1.953-5.118,0-7.071       c1.951-1.952,5.119-1.952,7.07,0l8.018,8.017c1.953,1.953,1.953,5.118,0,7.071       C394.437,275.624,393.156,276.112,391.877,276.112z" fill="#3F456B"/></g></g></g><g><g><g><path d="M364.534,248.749c-1.279,0-2.56-0.488-3.535-1.464l-8.017-8.017c-1.953-1.953-1.953-5.119,0-7.071       c1.951-1.952,5.119-1.952,7.07,0l8.017,8.017c1.953,1.953,1.953,5.119,0,7.071       C367.094,248.261,365.813,248.749,364.534,248.749z" fill="#3F456B"/></g></g></g><g><g><g><path d="M76.425,396.918H35.31c-2.762,0-5-2.239-5-5s2.238-5,5-5h41.115c2.762,0,5,2.239,5,5       S79.187,396.918,76.425,396.918z" fill="#3F456B"/></g></g></g><g><g><g><path d="M105.99,444.204H35.31c-2.762,0-5-2.239-5-5s2.238-5,5-5h70.681c2.762,0,5,2.239,5,5       S108.752,444.204,105.99,444.204z" fill="#3F456B"/></g></g></g><g><g><g><path d="M387.67,396.918H257.49c-2.762,0-5-2.239-5-5s2.238-5,5-5h130.18c2.762,0,5,2.239,5,5       S390.432,396.918,387.67,396.918z" fill="#3F456B"/></g></g></g><g><g><g><path d="M387.67,421.14H221.887c-2.762,0-5-2.239-5-5s2.238-5,5-5H387.67c2.762,0,5,2.239,5,5       S390.432,421.14,387.67,421.14z" fill="#3F456B"/></g></g></g><g><g><g><path d="M133.621,421.14H35.31c-2.762,0-5-2.239-5-5s2.238-5,5-5h98.312c2.762,0,5,2.239,5,5       S136.383,421.14,133.621,421.14z" fill="#3F456B"/></g></g></g><g><g><g><path d="M387.67,444.204H183.643c-2.762,0-5-2.239-5-5s2.238-5,5-5H387.67c2.762,0,5,2.239,5,5       S390.432,444.204,387.67,444.204z" fill="#3F456B"/></g></g></g><g><g><g><g><path d="M92.035,397.396c3.026,1.904,7.021,0.997,8.926-2.03c1.904-3.025,0.995-7.021-2.03-8.925        c-3.025-1.904-7.022-0.995-8.925,2.03C88.1,391.497,89.01,395.492,92.035,397.396z" fill="#384169"/></g></g></g></g><g><g><g><g><path d="M161.654,444.682c3.026,1.904,7.021,0.996,8.926-2.03c1.904-3.025,0.995-7.021-2.03-8.925        c-3.025-1.904-7.022-0.995-8.925,2.03C157.719,438.783,158.629,442.778,161.654,444.682z" fill="#384169"/></g></g></g></g><g><g><g><path d="M339.17,253.42c0-2.76,2.24-5,5.01-5l0,0c2.76,0,5,2.24,5,5l0,0c0,2.76-2.24,5-5,5l0,0       C341.41,258.42,339.17,256.18,339.17,253.42z M319.18,253.42c0-2.76,2.23-5,4.99-5l0,0c2.77,0,5.01,2.24,5.01,5l0,0       c0,2.76-2.24,5-5.01,5l0,0C321.41,258.42,319.18,256.18,319.18,253.42z M299.18,253.42c0-2.76,2.23-5,5-5l0,0       c2.76,0,5,2.24,5,5l0,0c0,2.76-2.24,5-5,5l0,0C301.41,258.42,299.18,256.18,299.18,253.42z" fill="#384169"/></g></g></g><g><g><g><path d="M430.729,305.24c0-2.77,2.24-5,5-5l0,0c2.761,0,5,2.23,5,5l0,0c0,2.76-2.239,4.99-5,4.99l0,0       C432.97,310.23,430.729,308,430.729,305.24z M410.729,305.24c0-2.77,2.24-5,5-5l0,0c2.761,0,5,2.23,5,5l0,0       c0,2.76-2.239,4.99-5,4.99l0,0C412.97,310.23,410.729,308,410.729,305.24z M390.729,305.24c0-2.77,2.24-5,5-5l0,0       c2.761,0,5,2.23,5,5l0,0c0,2.76-2.239,4.99-5,4.99l0,0C392.97,310.23,390.729,308,390.729,305.24z M370.729,305.24       c0-2.77,2.24-5,5-5l0,0c2.761,0,5,2.23,5,5l0,0c0,2.76-2.239,4.99-5,4.99l0,0C372.97,310.23,370.729,308,370.729,305.24z        M350.729,305.24c0-2.77,2.24-5,5-5l0,0c2.761,0,5,2.23,5,5l0,0c0,2.76-2.239,4.99-5,4.99l0,0       C352.97,310.23,350.729,308,350.729,305.24z M330.729,305.24c0-2.77,2.24-5,5-5l0,0c2.761,0,5,2.23,5,5l0,0       c0,2.76-2.239,4.99-5,4.99l0,0C332.97,310.23,330.729,308,330.729,305.24z" fill="#384169"/></g></g></g><g><g><g><g><g><g><path d="M210.204,183.353c-2.746,0-4.981-2.218-4.999-4.969l-0.085-13.54          c-0.018-2.761,2.207-5.014,4.969-5.031c2.77-0.007,5.014,2.207,5.031,4.969l0.085,13.54          c0.018,2.761-2.207,5.014-4.969,5.031C210.226,183.353,210.215,183.353,210.204,183.353z" fill="#3F456B"/></g></g></g></g><g><g><g><g><path d="M251.71,223.822c-2.743,0-4.978-2.213-4.999-4.961c-0.021-2.761,2.2-5.017,4.962-5.039l13-0.1          c2.785-0.044,5.017,2.201,5.038,4.961c0.021,2.761-2.2,5.017-4.962,5.039l-13,0.1          C251.736,223.822,251.723,223.822,251.71,223.822z" fill="#3F456B"/></g></g></g></g><g><g><g><g><path d="M245.948,203.373c-1.717,0-3.389-0.885-4.319-2.474c-1.396-2.383-0.596-5.446,1.787-6.842          l11.533-6.756c2.382-1.395,5.445-0.595,6.842,1.787c1.396,2.383,0.596,5.446-1.787,6.842l-11.533,6.756          C247.677,203.151,246.807,203.373,245.948,203.373z" fill="#3F456B"/></g></g></g></g><g><g><g><g><path d="M230.909,188.67c-0.838,0-1.688-0.211-2.468-0.655c-2.4-1.365-3.238-4.418-1.873-6.818l6.661-11.708          c1.364-2.4,4.417-3.241,6.818-1.873c2.4,1.365,3.238,4.418,1.873,6.818l-6.661,11.708          C234.339,187.762,232.648,188.67,230.909,188.67z" fill="#3F456B"/></g></g></g></g></g><g><g><g><g><g><path d="M210.286,182.031c-2.742,0-4.977-2.212-4.999-4.959l-0.099-12.218          c-0.022-2.762,2.198-5.018,4.96-5.041c2.737-0.019,5.018,2.198,5.04,4.959l0.099,12.218c0.022,2.762-2.198,5.018-4.96,5.041          C210.313,182.031,210.3,182.031,210.286,182.031z" fill="#3F456B"/></g></g></g></g><g><g><g><g><path d="M174.414,203.134c-0.838,0-1.688-0.211-2.468-0.655l-11.248-6.401          c-2.4-1.366-3.238-4.418-1.873-6.819c1.365-2.4,4.417-3.24,6.818-1.873l11.248,6.401c2.4,1.366,3.238,4.418,1.873,6.819          C177.843,202.225,176.153,203.134,174.414,203.134z" fill="#3F456B"/></g></g></g></g><g><g><g><g><path d="M156.274,223.659c-2.743,0-4.978-2.213-4.999-4.961c-0.021-2.761,2.2-5.017,4.962-5.039l13-0.1          c0.013,0,0.026,0,0.039,0c2.743,0,4.978,2.213,4.999,4.961c0.021,2.761-2.2,5.017-4.962,5.039l-13,0.1          C156.301,223.659,156.287,223.659,156.274,223.659z" fill="#3F456B"/></g></g></g></g></g></g></g></g></svg>