<?xml version="1.0" ?><svg enable-background="new 0 0 512 512" version="1.1" viewBox="0 0 512 512" xml:space="preserve" xmlns="http://www.w3.org/2000/svg" xmlns:xlink="http://www.w3.org/1999/xlink"><g id="Colors"><g><path d="M21.56,317.241c-2.271,0-4.326-1.557-4.865-3.863c-4.289-18.357-6.464-37.312-6.464-56.338    c0-2.761,2.238-5,5-5s5,2.239,5,5c0,18.261,2.087,36.451,6.202,54.062c0.628,2.689-1.043,5.378-3.731,6.006    C22.318,317.199,21.936,317.241,21.56,317.241z" fill="#3F456B"/></g><g><path d="M471.106,373.891c-0.781,0-1.574-0.184-2.313-0.571c-2.447-1.28-3.393-4.301-2.113-6.748    c17.546-33.54,26.82-71.416,26.82-109.532c0-2.761,2.238-5,5-5s5,2.239,5,5c0,39.724-9.668,79.202-27.959,114.167    C474.647,372.914,472.907,373.891,471.106,373.891z" fill="#3F456B"/></g><g><path d="M464,369c-2.762,0-5-2.239-5-5v-72h-74.333c-2.762,0-5-2.239-5-5s2.238-5,5-5H464c2.762,0,5,2.239,5,5v77    C469,366.761,466.762,369,464,369z" fill="#3F456B"/></g><g><path d="M49,323c-2.762,0-5-2.239-5-5v-31c0-2.761,2.238-5,5-5h80.167c2.762,0,5,2.239,5,5s-2.238,5-5,5H54v26    C54,320.761,51.762,323,49,323z" fill="#3F456B"/></g><g><path d="M498,261h-50.5c-2.762,0-5-2.239-5-5s2.238-5,5-5H498c2.762,0,5,2.239,5,5S500.762,261,498,261z" fill="#3F456B"/></g><g><path d="M66.667,261H15c-2.762,0-5-2.239-5-5s2.238-5,5-5h51.667c2.762,0,5,2.239,5,5S69.429,261,66.667,261z" fill="#3F456B"/></g><g><path d="M257.29,500.784c-23.893,0-47.488-3.5-70.13-10.402c-2.642-0.805-4.13-3.599-3.324-6.241    c0.805-2.642,3.602-4.127,6.24-3.325c21.696,6.614,44.31,9.968,67.214,9.968c2.762,0,5,2.239,5,5S260.052,500.784,257.29,500.784z    " fill="#3F456B"/></g><g><path d="M122.003,325c-1.419,0-2.827-0.6-3.816-1.766c-1.786-2.106-1.526-5.261,0.579-7.047l17.663-14.98    c2.109-1.786,5.263-1.526,7.048,0.58c1.786,2.106,1.526,5.261-0.579,7.047l-17.663,14.98C124.294,324.61,123.146,325,122.003,325z    " fill="#3F456B"/></g><g><path d="M257.29,500.784c-2.762,0-5-2.239-5-5s2.238-5,5-5c47.501,0,89.579-12.668,128.641-38.727    c2.299-1.532,5.401-0.912,6.934,1.384c1.532,2.297,0.913,5.402-1.385,6.934C350.723,487.566,306.829,500.784,257.29,500.784z" fill="#3F456B"/></g><g><path d="M433.63,356.389c-1.138,0-2.282-0.386-3.221-1.178l-57.373-48.386c-2.11-1.78-2.379-4.935-0.599-7.046    c1.78-2.109,4.934-2.38,7.046-0.599l57.373,48.386c2.11,1.78,2.379,4.935,0.599,7.046    C436.466,355.785,435.053,356.389,433.63,356.389z" fill="#3F456B"/></g><g><path d="M326.003,490c-0.05,0-0.1,0-0.15-0.002c-2.76-0.082-4.932-2.385-4.851-5.145    c1.972-67.043,0.337-117.187,0.32-117.685c-0.093-2.76,2.069-5.072,4.829-5.165c2.791-0.091,5.072,2.07,5.165,4.829    c0.017,0.501,1.663,50.937-0.318,118.315C330.918,487.857,328.696,490,326.003,490z" fill="#3F456B"/></g><g><path d="M188,490c-2.762,0-5-2.239-5-5c0-78.101,0.086-135.358,0.087-135.928c0.004-2.759,2.242-4.992,5-4.992    c0.003,0,0.005,0,0.008,0c2.762,0.004,4.996,2.246,4.992,5.008C193.086,349.657,193,406.908,193,485    C193,487.761,190.762,490,188,490z" fill="#3F456B"/></g><g><path d="M18.375,364.01c-0.418,0-0.843-0.053-1.267-0.163c-2.672-0.698-4.271-3.429-3.574-6.101    c9.858-37.754,40.428-46.86,41.725-47.229c2.647-0.755,5.421,0.783,6.178,3.439c0.755,2.65-0.777,5.411-3.424,6.174    c-1.125,0.331-26.442,8.126-34.803,40.143C22.623,362.521,20.596,364.01,18.375,364.01z" fill="#3F456B"/></g><g><g><path d="M10.909,381.525c-1.788-3.096-0.728-7.054,2.369-8.842c3.095-1.787,7.054-0.727,8.841,2.369     c1.787,3.095,0.727,7.054-2.369,8.842C16.654,385.682,12.697,384.62,10.909,381.525z" fill="#3F456B"/></g></g><g id="XMLID_9_"><g opacity="0.1"><path d="M286.023,42.758c-0.226-0.06-0.357-0.091-0.357-0.091C285.786,42.697,285.904,42.728,286.023,42.758z" fill="#3F456B"/></g></g><g><g><g><path d="M156.229,391.99c-5.215,32.324-36.035,54.235-68.84,48.942c-32.804-5.293-55.171-35.784-49.957-68.107      c5.214-32.322,36.036-54.234,68.84-48.942C139.077,329.176,161.443,359.669,156.229,391.99z" fill="none"/></g></g><g><g><path d="M141.687,361.064c-3.51,21.757-24.427,36.478-46.719,32.881c-22.291-3.596-37.518-24.148-34.007-45.905      c3.51-21.758,24.427-36.48,46.719-32.883C129.971,318.754,145.197,339.307,141.687,361.064z" fill="none"/></g></g><g><g><path d="M46.343,419.399c-1.63,0-3.229-0.796-4.188-2.261c-8.763-13.381-12.193-29.401-9.66-45.109      c3.104-19.242,14.71-35.824,31.843-45.495c2.407-1.357,5.455-0.508,6.812,1.897s0.508,5.455-1.896,6.812      c-14.47,8.167-24.27,22.156-26.886,38.379c-2.136,13.24,0.76,26.749,8.152,38.038c1.513,2.31,0.867,5.409-1.443,6.922      C48.232,419.135,47.282,419.399,46.343,419.399z" fill="#3F456B"/></g><g><path d="M147.88,419.019c-0.916,0-1.843-0.251-2.674-0.779c-2.332-1.479-3.022-4.569-1.543-6.901      c3.896-6.14,6.463-12.917,7.629-20.146c2.712-16.803-2.569-33.568-14.488-45.997c-1.912-1.993-1.846-5.158,0.147-7.07      c1.995-1.912,5.16-1.845,7.069,0.148c14.111,14.714,20.359,34.583,17.145,54.511c-1.384,8.575-4.432,16.619-9.059,23.911      C151.154,418.198,149.535,419.019,147.88,419.019z" fill="#3F456B"/></g></g><g><g><path d="M101.732,399.49c-2.508,0-5.034-0.201-7.561-0.609c-12.076-1.948-22.695-8.376-29.9-18.102      c-7.231-9.762-10.16-21.672-8.247-33.536c1.914-11.864,8.439-22.249,18.375-29.242c9.897-6.966,21.997-9.731,34.077-7.781      c12.076,1.948,22.695,8.377,29.899,18.103c7.232,9.763,10.161,21.672,8.247,33.536l0,0      c-1.914,11.864-8.439,22.249-18.374,29.241C120.422,396.61,111.215,399.49,101.732,399.49z M100.933,319.614      c-7.438,0-14.651,2.254-20.777,6.566c-7.714,5.429-12.777,13.475-14.258,22.657c-1.481,9.181,0.795,18.411,6.409,25.99      c5.643,7.615,13.974,12.652,23.458,14.182c9.485,1.53,18.978-0.631,26.729-6.086c7.713-5.428,12.776-13.474,14.257-22.656l0,0      c1.481-9.181-0.794-18.412-6.409-25.991c-5.642-7.616-13.973-12.653-23.457-14.183      C104.896,319.773,102.905,319.614,100.933,319.614z" fill="#3F456B"/></g><g><path d="M101.732,399.49c-2.508,0-5.034-0.201-7.561-0.609c-12.076-1.948-22.695-8.376-29.9-18.102      c-7.231-9.762-10.16-21.672-8.247-33.536c1.914-11.864,8.439-22.249,18.375-29.242c9.897-6.966,21.997-9.731,34.077-7.781      c12.076,1.948,22.695,8.377,29.899,18.103c7.232,9.763,10.161,21.672,8.247,33.536l0,0      c-1.914,11.864-8.439,22.249-18.374,29.241C120.422,396.61,111.215,399.49,101.732,399.49z M100.933,319.614      c-7.438,0-14.651,2.254-20.777,6.566c-7.714,5.429-12.777,13.475-14.258,22.657c-1.481,9.181,0.795,18.411,6.409,25.99      c5.643,7.615,13.974,12.652,23.458,14.182c9.485,1.53,18.978-0.631,26.729-6.086c7.713-5.428,12.776-13.474,14.257-22.656l0,0      c1.481-9.181-0.794-18.412-6.409-25.991c-5.642-7.616-13.973-12.653-23.457-14.183      C104.896,319.773,102.905,319.614,100.933,319.614z" fill="#3F456B"/></g></g></g><g><path d="M424.68,255.533c-2.963,2-6.985,1.221-8.986-1.743c-2-2.962-1.22-6.986,1.743-8.986    s6.987-1.22,8.987,1.742C428.425,249.51,427.643,253.533,424.68,255.533z" fill="#3F456B"/></g><g><g><path d="M51.842,71.249c-0.688,0-1.389-0.144-2.058-0.446l-12.338-5.579c-2.516-1.138-3.633-4.1-2.495-6.616     c1.137-2.516,4.097-3.634,6.616-2.496l12.338,5.579c2.516,1.138,3.633,4.1,2.495,6.616     C55.565,70.155,53.746,71.249,51.842,71.249z" fill="#3F456B"/></g></g><g><g><path d="M105.95,50.448c-0.687,0-1.385-0.143-2.051-0.443c-2.518-1.134-3.64-4.095-2.505-6.613l5.341-11.853     c1.134-2.518,4.096-3.639,6.612-2.504c2.518,1.134,3.64,4.095,2.505,6.613L110.512,47.5     C109.678,49.351,107.856,50.448,105.95,50.448z" fill="#3F456B"/></g></g><g><g><path d="M84.957,47.143c-2.54,0-4.714-1.927-4.97-4.507l-1.318-13.302c-0.272-2.748,1.734-5.197,4.482-5.469     c2.753-0.271,5.196,1.734,5.469,4.482l1.318,13.302c0.272,2.748-1.734,5.196-4.482,5.469     C85.288,47.134,85.122,47.143,84.957,47.143z" fill="#3F456B"/></g></g><g><g><path d="M65.331,54.654c-1.556,0-3.089-0.724-4.066-2.085L53.41,41.626c-1.609-2.244-1.097-5.367,1.147-6.978     c2.24-1.609,5.366-1.098,6.978,1.146l7.854,10.943c1.609,2.244,1.097,5.367-1.147,6.978     C67.36,54.349,66.341,54.654,65.331,54.654z" fill="#3F456B"/></g></g><g><g><path d="M50.675,70.622c-0.687,0-1.383-0.142-2.05-0.442l-11.142-5.015c-2.518-1.134-3.64-4.094-2.507-6.612     c1.134-2.519,4.092-3.64,6.612-2.507l11.142,5.015c2.518,1.134,3.64,4.094,2.507,6.612     C54.403,69.525,52.582,70.622,50.675,70.622z" fill="#3F456B"/></g></g><g><g><path d="M34.474,93.401c-2.54,0-4.714-1.927-4.97-4.507c-0.272-2.748,1.734-5.196,4.482-5.469l12.401-1.229     c2.734-0.27,5.196,1.734,5.469,4.482c0.272,2.748-1.734,5.196-4.482,5.469l-12.401,1.229     C34.806,93.393,34.639,93.401,34.474,93.401z" fill="#3F456B"/></g></g><g><g><path d="M44.353,119.571c-1.556,0-3.09-0.725-4.066-2.085c-1.609-2.244-1.096-5.367,1.147-6.978l10.516-7.546     c2.242-1.609,5.367-1.097,6.978,1.147c1.609,2.244,1.096,5.367-1.147,6.978l-10.516,7.546     C46.381,119.266,45.362,119.571,44.353,119.571z" fill="#3F456B"/></g></g><g><g><path d="M65.93,137.086c-0.687,0-1.385-0.143-2.051-0.443c-2.518-1.134-3.64-4.095-2.505-6.613l5.341-11.853     c1.134-2.517,4.096-3.639,6.612-2.504c2.518,1.134,3.64,4.095,2.505,6.613l-5.341,11.853     C69.657,135.989,67.836,137.086,65.93,137.086z" fill="#3F456B"/></g></g></g><g id="Lines"><g><path d="M341.192,343.863c-1.518,0-3.017-0.688-3.999-1.994c-1.66-2.207-1.218-5.341,0.988-7.001    c34.303-25.813,53.977-65.229,53.977-108.144l-0.09-43.245l-0.043-4.235c0-16.834-3.026-33.208-8.996-48.715    c-0.992-2.577,0.293-5.471,2.87-6.462c2.573-0.993,5.47,0.292,6.462,2.87c6.413,16.658,9.664,34.24,9.664,52.257l0.043,4.225    l0.09,43.295c0,23.229-5.31,45.415-15.781,65.95c-9.988,19.588-24.575,36.944-42.182,50.194    C343.294,343.535,342.238,343.863,341.192,343.863z" fill="#3F456B"/></g><g><path d="M257.035,371.938C177.062,371.938,112,306.795,112,226.724v-43.637l-0.13-3.719    c-0.002-0.058-0.003-0.116-0.003-0.174c0-80.072,65.102-145.215,145.123-145.215c22.815,0,44.646,5.143,64.883,15.285    c2.469,1.237,3.467,4.242,2.229,6.71s-4.243,3.466-6.71,2.23c-18.834-9.439-39.156-14.225-60.402-14.225    c-74.479,0-135.079,60.609-135.123,135.129l0.13,3.718c0.002,0.058,0.003,0.116,0.003,0.174v43.724    c0,74.558,60.576,135.215,135.035,135.215c7.513,0,15.047-0.621,22.393-1.845c2.729-0.457,5.3,1.387,5.754,4.11    s-1.386,5.3-4.109,5.754C273.185,371.272,265.098,371.938,257.035,371.938z" fill="#3F456B"/></g><g><g><path d="M219.311,222.591c0,6.695-5.514,12.123-12.312,12.123c-6.801,0-12.313-5.427-12.313-12.123     c0-6.694,5.512-12.122,12.313-12.122C213.797,210.469,219.311,215.896,219.311,222.591z" fill="#3F456B"/></g><g><path d="M313.204,222.591c0,6.695-5.512,12.123-12.314,12.123c-6.799,0-12.312-5.427-12.312-12.123     c0-6.694,5.514-12.122,12.312-12.122C307.692,210.469,313.204,215.896,313.204,222.591z" fill="#3F456B"/></g></g><g><path d="M430.683,278.666H412.31c-11.2,0-20.312-9.111-20.312-20.311v-75.534c0-11.2,9.111-20.311,20.312-20.311    h18.373c11.199,0,20.311,9.111,20.311,20.311v75.534C450.993,269.555,441.882,278.666,430.683,278.666z M412.31,172.51    c-5.686,0-10.312,4.625-10.312,10.311v75.534c0,5.685,4.626,10.311,10.312,10.311h18.373c5.686,0,10.311-4.625,10.311-10.311    v-75.534c0-5.686-4.625-10.311-10.311-10.311H412.31z" fill="#3F456B"/></g><g><path d="M101.683,278.666H83.31c-11.2,0-20.312-9.111-20.312-20.311v-75.534c0-11.2,9.111-20.311,20.312-20.311    h18.373c11.199,0,20.311,9.111,20.311,20.311v75.534C121.993,269.555,112.882,278.666,101.683,278.666z M83.31,172.51    c-5.686,0-10.312,4.625-10.312,10.311v75.534c0,5.685,4.626,10.311,10.312,10.311h18.373c5.686,0,10.311-4.625,10.311-10.311    v-75.534c0-5.686-4.625-10.311-10.311-10.311H83.31z" fill="#3F456B"/></g><g><path d="M420.997,172.5c-2.686,0-4.905-2.131-4.994-4.835c-0.006-0.15-0.6-15.625-6.457-36.209    c-0.755-2.656,0.785-5.421,3.441-6.177c2.653-0.756,5.422,0.785,6.178,3.441c6.215,21.844,6.81,37.941,6.832,38.615    c0.092,2.76-2.072,5.071-4.832,5.162C421.109,172.499,421.053,172.5,420.997,172.5z" fill="#3F456B"/></g><g><path d="M91.833,172c-0.058,0-0.116-0.001-0.174-0.003c-2.76-0.095-4.921-2.408-4.826-5.168    c0.055-1.591,1.583-39.413,23.227-77.786c12.784-22.664,29.946-40.733,51.011-53.707C187.289,19.188,219.565,11,257,11    c25.947,0,49.55,4.016,70.151,11.936c2.578,0.991,3.864,3.884,2.873,6.461c-0.991,2.578-3.886,3.864-6.461,2.873    C304.11,24.792,281.716,21,257,21c-35.556,0-66.066,7.688-90.686,22.851c-19.606,12.075-35.603,28.933-47.544,50.105    c-20.456,36.266-21.931,72.849-21.943,73.214C96.734,169.873,94.516,172,91.833,172z" fill="#3F456B"/></g><g><g><path d="M369.123,355H344c-2.762,0-5-2.239-5-5s2.238-5,5-5h25.123c12.946,0,23.397-4.203,31.062-12.491     c18.623-20.136,15.915-57.742,15.886-58.12c-0.216-2.753,1.842-5.159,4.595-5.375c2.748-0.21,5.159,1.842,5.374,4.595     c0.135,1.719,3.046,42.377-18.513,65.689C397.892,349.717,384.971,355,369.123,355z" fill="#3F456B"/></g><g><path d="M327.943,372h-38.887c-11.61,0-21.057-9.446-21.057-21.057v-0.887c0-11.611,9.446-21.057,21.057-21.057     h38.887c11.61,0,21.057,9.446,21.057,21.057v0.887C349,362.554,339.554,372,327.943,372z M289.057,339     C282.96,339,278,343.96,278,350.057v0.887c0,6.097,4.96,11.057,11.057,11.057h38.887c6.097,0,11.057-4.96,11.057-11.057v-0.887     c0-6.097-4.96-11.057-11.057-11.057H289.057z" fill="#3F456B"/></g></g><g><path d="M156.457,199.107c-12.756,0-26.095-0.71-39.967-2.133c-2.747-0.282-4.746-2.737-4.464-5.484    c0.281-2.747,2.75-4.743,5.483-4.464c43.675,4.481,104.922,3.743,148.734-25.198c25.623-16.926,33.021-35.45,33.094-35.635    c0.809-2.087,2.904-3.381,5.136-3.171c2.229,0.212,4.045,1.88,4.445,4.083c0.027,0.145,3.052,15.771,15.377,30.849    c16.396,20.059,40.811,29.835,72.581,29.047c2.777-0.087,5.054,2.115,5.121,4.875c0.068,2.761-2.114,5.054-4.875,5.122    c-43.879,1.067-68.207-17.406-80.888-33.107c-6.79-8.407-11.023-16.857-13.586-23.351c-5.4,7.932-14.986,19.123-30.894,29.631    c-16.348,10.798-36.094,18.695-58.69,23.47C195.835,197.283,176.896,199.107,156.457,199.107z" fill="#3F456B"/></g><g><g><path d="M188,500.5H16.5c-2.762,0-5-2.239-5-5v-80c0-2.761,2.238-5,5-5H188c2.762,0,5,2.239,5,5v80     C193,498.261,190.762,500.5,188,500.5z M21.5,490.5H183v-70H21.5V490.5z" fill="#3F456B"/></g><g><g><path d="M68.739,475.969H46.68c-1.381,0-2.5-1.119-2.5-2.5V438c0-1.381,1.119-2.5,2.5-2.5s2.5,1.119,2.5,2.5      v32.969h19.56c1.381,0,2.5,1.119,2.5,2.5S70.12,475.969,68.739,475.969z" fill="#3F456B"/></g><g><path d="M81.587,475.969c-1.381,0-2.5-1.119-2.5-2.5v-35.248c0-1.381,1.119-2.5,2.5-2.5s2.5,1.119,2.5,2.5      v35.248C84.087,474.85,82.968,475.969,81.587,475.969z" fill="#3F456B"/></g><g><path d="M111.918,476.191c-0.993,0-1.893-0.588-2.29-1.498L94.11,439.224c-0.554-1.265,0.023-2.739,1.288-3.292      c1.263-0.553,2.739,0.023,3.292,1.289l13.199,30.168l12.863-30.147c0.542-1.271,2.01-1.861,3.281-1.318      c1.27,0.542,1.859,2.011,1.318,3.28l-15.135,35.469c-0.392,0.917-1.291,1.515-2.288,1.519      C111.926,476.191,111.922,476.191,111.918,476.191z" fill="#3F456B"/></g><g><g><path d="M159.762,476.191h-21.874c-1.381,0-2.5-1.119-2.5-2.5v-35.443c0-1.381,1.119-2.5,2.5-2.5h22.147       c1.381,0,2.5,1.119,2.5,2.5s-1.119,2.5-2.5,2.5h-19.647v30.443h19.374c1.381,0,2.5,1.119,2.5,2.5       S161.143,476.191,159.762,476.191z" fill="#3F456B"/></g><g><path d="M159.762,458.345h-21.737c-1.381,0-2.5-1.119-2.5-2.5s1.119-2.5,2.5-2.5h21.737       c1.381,0,2.5,1.119,2.5,2.5S161.143,458.345,159.762,458.345z" fill="#3F456B"/></g></g></g></g><g><path d="M188.003,404.5c-1.446,0-2.881-0.624-3.869-1.83c-1.751-2.135-1.439-5.286,0.696-7.037    c25.531-20.936,69.016-32.956,70.854-33.458c2.662-0.727,5.41,0.844,6.139,3.507c0.727,2.664-0.843,5.413-3.507,6.14    c-0.43,0.117-43.28,11.972-67.146,31.542C190.24,404.129,189.118,404.5,188.003,404.5z" fill="#3F456B"/></g><g><path d="M325.997,404.5c-1.115,0-2.237-0.371-3.167-1.134c-23.866-19.57-66.717-31.425-67.146-31.542    c-2.664-0.728-4.233-3.477-3.507-6.14s3.474-4.234,6.139-3.507c1.839,0.501,45.323,12.521,70.854,33.458    c2.136,1.751,2.447,4.901,0.696,7.037C328.878,403.876,327.443,404.5,325.997,404.5z" fill="#3F456B"/></g><g><path d="M273.023,413h-33.047c-2.367,0-4.409-1.66-4.895-3.977c-3.508-16.773-6.007-34.142-6.031-34.315    c-0.392-2.733,1.507-5.267,4.24-5.658c2.734-0.396,5.267,1.507,5.658,4.241c0.022,0.156,2.102,14.596,5.11,29.708h24.893    c1.433-7.038,4.313-21.706,5.071-29.485c0.269-2.748,2.718-4.761,5.461-4.492c2.749,0.268,4.76,2.713,4.492,5.461    c-1.069,10.981-5.859,33.597-6.062,34.554C277.424,411.349,275.385,413,273.023,413z" fill="#3F456B"/></g><g><path d="M224.506,498.515c-0.213,0-0.428-0.014-0.645-0.042c-2.738-0.353-4.673-2.859-4.32-5.598    c6.465-50.211,15.525-85.767,15.616-86.12c0.688-2.675,3.408-4.284,6.087-3.599c2.674,0.687,4.285,3.412,3.599,6.086    c-0.089,0.348-9.004,35.354-15.384,84.91C229.135,496.675,226.983,498.515,224.506,498.515z" fill="#3F456B"/></g><g><path d="M287.994,498.515c-2.478,0-4.629-1.84-4.953-4.362c-6.38-49.556-15.295-84.562-15.384-84.91    c-0.687-2.674,0.925-5.399,3.599-6.086c2.675-0.686,5.399,0.923,6.087,3.599c0.091,0.353,9.151,35.909,15.616,86.12    c0.353,2.739-1.582,5.245-4.32,5.598C288.422,498.501,288.206,498.515,287.994,498.515z" fill="#3F456B"/></g><g><g><g><path d="M377.432,429.99c5.215,32.324,36.035,54.235,68.84,48.942c32.804-5.293,55.171-35.784,49.957-68.107      c-5.214-32.322-36.036-54.234-68.84-48.942C394.584,367.176,372.217,397.669,377.432,429.99z" fill="none"/></g></g><g><g><path d="M391.973,399.064c3.51,21.757,24.427,36.478,46.719,32.881c22.291-3.596,37.518-24.148,34.007-45.905      c-3.51-21.758-24.427-36.48-46.719-32.883C403.69,356.754,388.463,377.307,391.973,399.064z" fill="none"/></g></g><g><g><path d="M436.515,484.718c-31.332,0.001-58.938-22.437-64.02-53.931c-3.215-19.929,3.033-39.797,17.145-54.511      c1.911-1.991,5.074-2.059,7.069-0.148c1.993,1.912,2.06,5.077,0.147,7.07c-11.919,12.429-17.2,29.194-14.488,45.997      c4.289,26.585,27.641,45.521,54.151,45.523c2.955,0,5.945-0.235,8.957-0.721c30.03-4.845,50.583-32.826,45.815-62.375      c-2.616-16.223-12.416-30.211-26.886-38.379c-2.404-1.357-3.254-4.407-1.896-6.812s4.404-3.254,6.812-1.897      c17.133,9.671,28.738,26.253,31.843,45.495c5.646,34.992-18.622,68.117-54.097,73.84      C443.522,484.441,439.995,484.718,436.515,484.718z" fill="#3F456B"/></g><g><path d="M436.515,484.718c-31.332,0.001-58.938-22.437-64.02-53.931c-3.238-20.073,3.105-40.04,17.404-54.781      c1.924-1.982,5.089-2.029,7.07-0.107c1.982,1.923,2.03,5.088,0.107,7.07c-12.079,12.452-17.44,29.3-14.709,46.225      c4.289,26.586,27.641,45.521,54.151,45.523c2.955,0,5.945-0.235,8.957-0.721c30.03-4.845,50.583-32.827,45.815-62.375      c-2.684-16.635-12.827-30.814-27.83-38.901c-2.431-1.311-3.34-4.343-2.029-6.774c1.311-2.43,4.344-3.34,6.773-2.029      c17.763,9.575,29.775,26.381,32.959,46.111c5.646,34.992-18.622,68.117-54.096,73.84      C443.522,484.441,439.995,484.718,436.515,484.718z" fill="#3F456B"/></g></g><g><g><path d="M431.929,437.49c-9.483,0-18.688-2.88-26.517-8.389c-9.936-6.993-16.461-17.377-18.375-29.241      s1.015-23.773,8.247-33.536c7.204-9.725,17.823-16.154,29.9-18.103c12.077-1.951,24.18,0.814,34.076,7.781      c9.936,6.993,16.461,17.377,18.375,29.242c1.914,11.863-1.015,23.773-8.247,33.536c-7.205,9.725-17.823,16.154-29.9,18.102      C436.963,437.289,434.436,437.49,431.929,437.49z M432.728,357.614c-1.974,0-3.962,0.159-5.95,0.479      c-9.485,1.53-17.816,6.567-23.458,14.183c-5.615,7.579-7.891,16.81-6.409,25.991l0,0c1.48,9.181,6.544,17.227,14.257,22.656      c7.75,5.455,17.244,7.616,26.729,6.086c9.485-1.53,17.816-6.567,23.458-14.182c5.614-7.579,7.891-16.809,6.409-25.99      c-1.48-9.182-6.544-17.228-14.258-22.657C447.38,359.869,440.166,357.614,432.728,357.614z" fill="#3F456B"/></g><g><path d="M431.929,437.49c-9.483,0-18.688-2.88-26.517-8.389c-9.936-6.993-16.461-17.377-18.375-29.241      s1.015-23.773,8.247-33.536c7.204-9.725,17.823-16.154,29.9-18.103c12.077-1.951,24.18,0.814,34.076,7.781      c9.936,6.993,16.461,17.377,18.375,29.242c1.914,11.863-1.015,23.773-8.247,33.536c-7.205,9.725-17.823,16.154-29.9,18.102      C436.963,437.289,434.436,437.49,431.929,437.49z M432.728,357.614c-1.974,0-3.962,0.159-5.95,0.479      c-9.485,1.53-17.816,6.567-23.458,14.183c-5.615,7.579-7.891,16.81-6.409,25.991l0,0c1.48,9.181,6.544,17.227,14.257,22.656      c7.75,5.455,17.244,7.616,26.729,6.086c9.485-1.53,17.816-6.567,23.458-14.182c5.614-7.579,7.891-16.809,6.409-25.99      c-1.48-9.182-6.544-17.228-14.258-22.657C447.38,359.869,440.166,357.614,432.728,357.614z" fill="#3F456B"/></g></g></g><g><path d="M416.379,72.662c0,3.575-2.897,6.473-6.473,6.473c-3.574,0-6.473-2.898-6.473-6.473    s2.898-6.474,6.473-6.474C413.482,66.188,416.379,69.087,416.379,72.662z" fill="#3F456B"/></g><g><path d="M387.379,72.662c0,3.575-2.897,6.473-6.473,6.473c-3.574,0-6.473-2.898-6.473-6.473    s2.898-6.474,6.473-6.474C384.482,66.188,387.379,69.087,387.379,72.662z" fill="#3F456B"/></g><g><path d="M445.379,72.662c0,3.575-2.897,6.473-6.473,6.473c-3.574,0-6.473-2.898-6.473-6.473    s2.898-6.474,6.473-6.474C442.482,66.188,445.379,69.087,445.379,72.662z" fill="#3F456B"/></g><g opacity="0.1"><path d="M377.24,129h-1.96l1.67-0.06C377.05,128.96,377.15,128.98,377.24,129z" fill="#3F456B"/></g><g><path d="M364,170c-0.455,0-0.914-0.062-1.368-0.191C360.482,169.198,359,167.234,359,165    c0-10.421-0.246-23.896-0.393-31H351c-19.299,0-35-15.701-35-35V46c0-19.299,15.701-35,35-35h116c19.299,0,35,15.701,35,35v53    c0,19.299-15.701,35-35,35h-77.317c-9.607,14.544-21.309,33.433-21.432,33.632C367.323,169.131,365.699,170,364,170z M351,21    c-13.785,0-25,11.215-25,25v53c0,13.785,11.215,25,25,25h12.5c2.715,0,4.934,2.167,4.999,4.881    c0.003,0.135,0.208,8.827,0.354,18.972c4.298-6.784,9.463-14.841,13.986-21.626c0.927-1.391,2.488-2.227,4.16-2.227h80    c13.785,0,25-11.215,25-25V46c0-13.785-11.215-25-25-25H351z" fill="#3F456B"/></g></g></svg>