<?xml version="1.0" ?><svg viewBox="0 0 512 512" xmlns="http://www.w3.org/2000/svg"><defs><style>.cls-1{fill:#3f456b;}</style></defs><title/><g id="Lines"><path class="cls-1" d="M354,468H159.38a5,5,0,0,1,0-10H354a5,5,0,0,1,0,10Z"/><path class="cls-1" d="M393.5,457.79a5,5,0,0,1-3.75-8.31A24.93,24.93,0,0,0,396,433V142a25,25,0,0,0-25-25H142a25,25,0,0,0-25,25V433a24.93,24.93,0,0,0,6.25,16.48,5,5,0,0,1-7.51,6.61A34.91,34.91,0,0,1,107,433V142a35,35,0,0,1,35-35H371a35,35,0,0,1,35,35V433a34.92,34.92,0,0,1-8.75,23.09A5,5,0,0,1,393.5,457.79Z"/><path class="cls-1" d="M136,500a29,29,0,1,1,29-29A29,29,0,0,1,136,500Zm0-48a19,19,0,1,0,19,19A19,19,0,0,0,136,452Z"/><path class="cls-1" d="M184,468a5,5,0,0,1-5-5V443.31c0-13.63-15-14.36-16.7-14.4H112a5,5,0,0,1,0-10h50.39a34.9,34.9,0,0,1,12.88,3c8.85,4,13.73,11.64,13.73,21.41V463A5,5,0,0,1,184,468Z"/><path class="cls-1" d="M377,500a29,29,0,1,1,29-29A29,29,0,0,1,377,500Zm0-48a19,19,0,1,0,19,19A19,19,0,0,0,377,452Z"/><path class="cls-1" d="M329,468a5,5,0,0,1-5-5V443.31c0-9.77,4.88-17.37,13.73-21.41a34.93,34.93,0,0,1,12.81-3H401a5,5,0,0,1,0,10H350.61c-1.62,0-16.61.77-16.61,14.4V463A5,5,0,0,1,329,468Z"/><path class="cls-1" d="M286,151H226a15,15,0,0,1-15-15V112a5,5,0,0,1,10,0v24a5,5,0,0,0,5,5h60a5,5,0,0,0,5-5V112a5,5,0,0,1,10,0v24A15,15,0,0,1,286,151Z"/><path class="cls-1" d="M136,477a5,5,0,0,1-5-5v-3a5,5,0,0,1,10,0v3A5,5,0,0,1,136,477Z"/><path class="cls-1" d="M377,477a5,5,0,0,1-5-5v-3a5,5,0,0,1,10,0v3A5,5,0,0,1,377,477Z"/><path class="cls-1" d="M208,97a5,5,0,0,1-5-5V41a5,5,0,0,1,10,0V92A5,5,0,0,1,208,97Z"/><path class="cls-1" d="M305,97a5,5,0,0,1-5-5V41a5,5,0,0,1,10,0V92A5,5,0,0,1,305,97Z"/><path class="cls-1" d="M320,117a5,5,0,0,1-5-5V102a5,5,0,0,0-5-5H202a5,5,0,0,0-5,5v10a5,5,0,0,1-10,0V102a15,15,0,0,1,15-15H310a15,15,0,0,1,15,15v10A5,5,0,0,1,320,117Z"/><path class="cls-1" d="M310,46H202a15,15,0,0,1-15-15V25a15,15,0,0,1,15-15H310a15,15,0,0,1,15,15v6A15,15,0,0,1,310,46ZM202,20a5,5,0,0,0-5,5v6a5,5,0,0,0,5,5H310a5,5,0,0,0,5-5V25a5,5,0,0,0-5-5Z"/><path class="cls-1" d="M410.82,229H401a5,5,0,0,1,0-10h9.82c1.5,0,3.18-2.14,3.18-5V186c0-2.86-1.68-5-3.18-5H401a5,5,0,0,1,0-10h9.82c7.27,0,13.18,6.73,13.18,15v28C424,222.27,418.09,229,410.82,229Z"/><path class="cls-1" d="M410.82,420H401a5,5,0,0,1,0-10h9.82c1.5,0,3.18-2.14,3.18-5V377c0-2.86-1.68-5-3.18-5H401a5,5,0,0,1,0-10h9.82c7.27,0,13.18,6.73,13.18,15v28C424,413.27,418.09,420,410.82,420Z"/><path class="cls-1" d="M354,468H159.38a5,5,0,0,1,0-10H354a5,5,0,0,1,0,10Z"/><path class="cls-1" d="M393.5,457.79a5,5,0,0,1-3.75-8.31A24.93,24.93,0,0,0,396,433V142a25,25,0,0,0-25-25H142a25,25,0,0,0-25,25V433a24.93,24.93,0,0,0,6.25,16.48,5,5,0,0,1-7.51,6.61A34.91,34.91,0,0,1,107,433V142a35,35,0,0,1,35-35H371a35,35,0,0,1,35,35V433a34.92,34.92,0,0,1-8.75,23.09A5,5,0,0,1,393.5,457.79Z"/><path class="cls-1" d="M136,500a29,29,0,1,1,29-29A29,29,0,0,1,136,500Zm0-48a19,19,0,1,0,19,19A19,19,0,0,0,136,452Z"/><path class="cls-1" d="M377,500a29,29,0,1,1,29-29A29,29,0,0,1,377,500Zm0-48a19,19,0,1,0,19,19A19,19,0,0,0,377,452Z"/><path class="cls-1" d="M320,117a5,5,0,0,1-5-5V102a5,5,0,0,0-5-5H202a5,5,0,0,0-5,5v10a5,5,0,0,1-10,0V102a15,15,0,0,1,15-15H310a15,15,0,0,1,15,15v10A5,5,0,0,1,320,117Z"/><path class="cls-1" d="M310,46H202a15,15,0,0,1-15-15V25a15,15,0,0,1,15-15H310a15,15,0,0,1,15,15v6A15,15,0,0,1,310,46ZM202,20a5,5,0,0,0-5,5v6a5,5,0,0,0,5,5H310a5,5,0,0,0,5-5V25a5,5,0,0,0-5-5Z"/><path class="cls-1" d="M410.82,229H401a5,5,0,0,1,0-10h9.82c1.5,0,3.18-2.14,3.18-5V186c0-2.86-1.68-5-3.18-5H401a5,5,0,0,1,0-10h9.82c7.27,0,13.18,6.73,13.18,15v28C424,222.27,418.09,229,410.82,229Z"/><path class="cls-1" d="M410.82,420H401a5,5,0,0,1,0-10h9.82c1.5,0,3.18-2.14,3.18-5V377c0-2.86-1.68-5-3.18-5H401a5,5,0,0,1,0-10h9.82c7.27,0,13.18,6.73,13.18,15v28C424,413.27,418.09,420,410.82,420Z"/><path class="cls-1" d="M111,348h-9.82C93.91,348,88,341.27,88,333V256c0-8.27,5.91-15,13.18-15H111a5,5,0,0,1,0,10h-9.82c-1.5,0-3.18,2.14-3.18,5v77c0,2.86,1.68,5,3.18,5H111a5,5,0,0,1,0,10Z"/></g><g id="Outline"><path class="cls-1" d="M256.5,468a5,5,0,0,1-5-5V146a5,5,0,0,1,10,0V463A5,5,0,0,1,256.5,468Z"/><path class="cls-1" d="M220.38,468a5,5,0,0,1-5-5V146a5,5,0,0,1,10,0V463A5,5,0,0,1,220.38,468Z"/><path class="cls-1" d="M184.25,468a5,5,0,0,1-5-5V112a5,5,0,0,1,10,0V463A5,5,0,0,1,184.25,468Z"/><path class="cls-1" d="M148.12,429a5,5,0,0,1-5-5V112a5,5,0,0,1,10,0V424A5,5,0,0,1,148.12,429Z"/><path class="cls-1" d="M364.88,429a5,5,0,0,1-5-5V112a5,5,0,0,1,10,0V424A5,5,0,0,1,364.88,429Z"/><path class="cls-1" d="M328.75,468a5,5,0,0,1-5-5V112a5,5,0,0,1,10,0V463A5,5,0,0,1,328.75,468Z"/><path class="cls-1" d="M292.62,468a5,5,0,0,1-5-5V146a5,5,0,0,1,10,0V463A5,5,0,0,1,292.62,468Z"/></g></svg>