<?xml version="1.0" encoding="iso-8859-1"?>
<!-- Generator: Adobe Illustrator 19.0.0, SVG Export Plug-In . SVG Version: 6.00 Build 0)  -->
<svg version="1.1" id="Capa_1" xmlns="http://www.w3.org/2000/svg" xmlns:xlink="http://www.w3.org/1999/xlink" x="0px" y="0px"
	 viewBox="0 0 512.811 512.811" style="enable-background:new 0 0 512.811 512.811;" xml:space="preserve">
<g>
	<g>
		<path d="M438.069,278.144h-74.667v-10.667c0-5.888-4.779-10.667-10.667-10.667s-10.667,4.779-10.667,10.667v10.667h-74.667
			c-17.643,0-32,14.357-32,32v21.333c0,5.888,4.779,10.667,10.667,10.667h12.501l30.379,161.963
			c0.939,5.056,5.333,8.704,10.475,8.704h106.667c5.141,0,9.536-3.648,10.475-8.704l30.379-161.963h12.48
			c5.909,0,10.667-4.779,10.667-10.667v-21.333C470.069,292.501,455.712,278.144,438.069,278.144z M397.216,491.477h-88.96
			l-28.011-149.333h144.981L397.216,491.477z M448.736,320.811h-192v-10.667c0-5.888,4.779-10.667,10.667-10.667h170.667
			c5.888,0,10.667,4.779,10.667,10.667V320.811z"/>
	</g>
</g>
<g>
	<g>
		<path d="M341.984,458.155l-10.667-85.333c-0.747-5.845-6.08-9.963-11.904-9.259c-5.845,0.725-9.984,6.059-9.259,11.904
			l10.667,85.333c0.683,5.397,5.269,9.344,10.581,9.344c0.427,0,0.875-0.021,1.323-0.085
			C338.571,469.333,342.709,464,341.984,458.155z"/>
	</g>
</g>
<g>
	<g>
		<path d="M386.059,363.563c-5.888-0.704-11.179,3.413-11.904,9.259l-10.667,85.333c-0.725,5.845,3.413,11.179,9.259,11.904
			c0.448,0.064,0.896,0.085,1.344,0.085c5.291,0,9.899-3.947,10.56-9.344l10.667-85.333
			C396.043,369.621,391.904,364.288,386.059,363.563z"/>
	</g>
</g>
<g>
	<g>
		<path d="M394.72,42.667h-55.296c-4.416-12.395-16.149-21.333-30.037-21.333h-37.845C264.011,8.32,250.037,0,234.72,0
			s-29.291,8.32-36.821,21.333h-37.845c-13.888,0-25.621,8.939-30.037,21.333H74.72c-17.643,0-32,14.357-32,32V480
			c0,17.643,14.357,32,32,32h181.333c5.888,0,10.667-4.779,10.667-10.667s-4.779-10.667-10.667-10.667H74.72
			c-5.888,0-10.667-4.779-10.667-10.667V74.667C64.053,68.779,68.832,64,74.72,64h53.333v10.667c0,5.888,4.779,10.667,10.667,10.667
			h192c5.888,0,10.667-4.779,10.667-10.667V64h53.333c5.888,0,10.667,4.779,10.667,10.667v170.667
			c0,5.888,4.779,10.667,10.667,10.667c5.888,0,10.667-4.779,10.667-10.667V74.667C426.72,57.024,412.363,42.667,394.72,42.667z
			 M320.053,64H149.387V53.333c0-5.888,4.779-10.667,10.667-10.667h44.629c4.501,0,8.533-2.859,10.048-7.104
			c3.029-8.512,11.072-14.229,19.989-14.229c8.917,0,16.96,5.717,19.989,14.229c1.515,4.267,5.547,7.104,10.048,7.104h44.629
			c5.888,0,10.667,4.779,10.667,10.667V64z"/>
	</g>
</g>
<g>
</g>
<g>
</g>
<g>
</g>
<g>
</g>
<g>
</g>
<g>
</g>
<g>
</g>
<g>
</g>
<g>
</g>
<g>
</g>
<g>
</g>
<g>
</g>
<g>
</g>
<g>
</g>
<g>
</g>
</svg>
