<?xml version="1.0" ?><svg viewBox="0 0 512 512" xmlns="http://www.w3.org/2000/svg"><defs><style>.cls-1{fill:#3f456b;}</style></defs><title/><g id="Lines"><path class="cls-1" d="M66.24,143.45a11.24,11.24,0,0,1-6.63-2.2,13,13,0,0,1-5.11-12.09C57.94,101,74.89,34.35,157.73,25.3c34.82-3.81,64.3,4.41,87.6,24.42,19.23,16.51,30,37.53,35.62,52.25a13.44,13.44,0,0,1-2.42,13.85,11.55,11.55,0,0,1-11.7,3.56,62.21,62.21,0,0,0-52.14,9,14.26,14.26,0,0,1-13.27,1.45c-27.41-10.8-60.47,6-64.15,7.91a15.4,15.4,0,0,1-12.52.88c-16.87-6.25-35-5-53.83,3.82h0A11,11,0,0,1,66.24,143.45Zm107.55-109a138,138,0,0,0-15,.84c-32.7,3.57-57.64,17.14-74.13,40.31-13.53,19-18.49,40.31-20.26,54.83a3,3,0,0,0,1.07,2.78,1.08,1.08,0,0,0,1.21.18h0c21.35-10,42.05-11.35,61.52-4.14a5.32,5.32,0,0,0,4.37-.33c4.1-2.17,40.93-20.82,72.49-8.39a4.19,4.19,0,0,0,4-.4c18.21-12.39,39.06-16,60.32-10.37a1.57,1.57,0,0,0,1.71-.58,3.46,3.46,0,0,0,.52-3.58c-5.22-13.65-15.15-33.09-32.8-48.25S199.26,34.4,173.79,34.4Z"/><path class="cls-1" d="M130.12,139.51a5,5,0,0,1-5-4.46c-8.59-78.6,28.51-107.58,30.1-108.77a5,5,0,0,1,6,8c-.14.1-8.64,6.79-16.07,22.22C132.7,82.52,132.81,113,135.1,134a5,5,0,0,1-4.43,5.51A5.07,5.07,0,0,1,130.12,139.51Z"/><path class="cls-1" d="M208.44,131a5,5,0,0,1-5-4.46c-8-73-46.71-91.52-47.1-91.69a5,5,0,0,1-2.84-3.65l-2.7-14.75a5,5,0,1,1,9.84-1.8L162.93,27c9.42,5.47,43,29.57,50.49,98.43a5,5,0,0,1-4.43,5.51Z"/><path class="cls-1" d="M185.19,262.57a5,5,0,0,1-5-4.42L164.31,122.69a5,5,0,1,1,9.94-1.16L190.16,257a5,5,0,0,1-4.38,5.54A4,4,0,0,1,185.19,262.57Z"/><path class="cls-1" d="M255.63,500.56A223,223,0,0,1,50.56,364.24a217.36,217.36,0,0,1-17-88.88,226.29,226.29,0,0,1,18.51-85.5,5,5,0,0,1,9.19,3.95,216.49,216.49,0,0,0-17.71,81.73,207.57,207.57,0,0,0,16.24,84.82C93.92,441.52,172.91,490.44,255.9,490.44A211,211,0,0,0,338,473.83c90.41-38,143.34-131.3,128.72-226.84a5,5,0,1,1,9.88-1.51c15.31,100.07-40.08,197.77-134.72,237.57A222.17,222.17,0,0,1,255.63,500.56Z"/><path class="cls-1" d="M328.56,310.69a570.92,570.92,0,0,1-75.83-5.27c-56.26-7.57-108.18-22.46-146.19-41.91C67,243.26,46.83,220.05,49.78,198.13s28.54-39,72-48c41.8-8.7,95.81-9.32,152.07-1.74,12.67,1.71,25.32,3.82,37.6,6.28a5,5,0,1,1-2,9.8c-12.06-2.41-24.5-4.49-37-6.17-55.16-7.43-108-6.86-148.7,1.62-38.46,8-61.85,22.43-64.16,39.57S76.12,236.7,111.1,254.6c37,19,87.8,33.48,143,40.91s108,6.86,148.7-1.62c38.47-8,61.85-22.42,64.16-39.56,1.86-13.82-10-29.76-33.52-44.91-24.28-15.65-60-29.79-100.7-39.8a5,5,0,1,1,2.39-9.71c42.31,10.42,78.18,24.63,103.73,41.11,27.31,17.61,40.45,36.51,38,54.64-2.95,21.92-28.53,39-72,48C382.38,308.35,356.46,310.69,328.56,310.69Z"/><path class="cls-1" d="M337.76,282.91a616.36,616.36,0,0,1-81.38-5.77c-48-6.47-92.53-17.57-125.36-31.27-24.56-10.25-53.29-26.54-50.67-46C85,165.7,181.78,160,270.55,171.93c11.53,1.55,23,3.4,34.2,5.5a5,5,0,0,1-1.84,9.83c-11-2.07-22.34-3.89-33.7-5.42-47.16-6.35-92.11-7.42-126.55-3-24.3,3.12-50.82,10.63-52.4,22.37s22,26,44.61,35.44c32,13.37,75.67,24.24,122.84,30.59s92.11,7.42,126.56,3c24.29-3.11,50.81-10.62,52.4-22.37,1-7.69-9.1-17.75-27.8-27.6-20.18-10.62-49.86-20.7-83.58-28.37a5,5,0,0,1,2.22-9.75c35.05,8,64.79,18.09,86,29.27,23.63,12.45,34.75,25.16,33.05,37.79-2.62,19.45-34.64,27.57-61,31A380.26,380.26,0,0,1,337.76,282.91Z"/><path class="cls-1" d="M389.25,277.7a4.92,4.92,0,0,1-2.8-.87c-.29-.19-29.19-19.49-78.95-32.5a5,5,0,0,1,2.53-9.68c51.56,13.48,80.81,33.08,82,33.91a5,5,0,0,1-2.81,9.14Z"/><path class="cls-1" d="M126.46,240.85a5,5,0,0,1-1.21-9.85c2.58-.64,64.09-15.69,141.63-4.93,6.82.94,13.67,2.09,20.36,3.39a5,5,0,1,1-1.92,9.81c-6.51-1.26-13.18-2.37-19.82-3.3-75.63-10.49-137.21,4.58-137.83,4.73A5,5,0,0,1,126.46,240.85Z"/><path class="cls-1" d="M295.74,281.26a4.84,4.84,0,0,1-1.58-.26,5,5,0,0,1-3.16-6.33l47.9-143.08c.05-.15,4.89-13.79,15.7-18.86,5.48-2.58,11.82-2.52,18.82.17,29.3,11.24,50.16,21.45,51,21.87a5.58,5.58,0,1,0,5-10c-.88-.43-21.92-10.75-52-22.29-9.81-3.76-19.34-3.71-27.56.14-14.94,7-20.91,23.54-21.54,25.4L278.83,275.85a5,5,0,0,1-9.48-3.17l49.49-147.86c.78-2.29,8.09-22.5,26.77-31.26,10.75-5,23-5.19,35.39-.43,30.49,11.7,51.93,22.22,52.83,22.66a15.59,15.59,0,0,1-13.78,28c-.86-.42-21.33-10.43-50.21-21.51-4.49-1.72-8-1.87-11-.46-5.6,2.62-9.45,10.26-10.49,13.05l-47.88,143A5,5,0,0,1,295.74,281.26Z"/></g><g id="Outline"><path class="cls-1" d="M364.48,119.39h-.05a5,5,0,0,1-4.95-5l.18-18.7a5,5,0,0,1,5-5h0a5,5,0,0,1,5,5l-.18,18.7A5,5,0,0,1,364.48,119.39Z"/><path class="cls-1" d="M353,122.92a5,5,0,0,1-4.12-2.15l-11.29-16.31a5,5,0,0,1,8.22-5.7l11.29,16.31a5,5,0,0,1-4.1,7.85Z"/><path class="cls-1" d="M345.38,134.37a4.88,4.88,0,0,1-2.06-.45L324,125.14a5,5,0,0,1,4.14-9.1l19.32,8.78a5,5,0,0,1-2.08,9.55Z"/><path class="cls-1" d="M339.11,151.67a5.07,5.07,0,0,1-1.61-.26l-20-6.8a5,5,0,0,1,3.21-9.48l20.05,6.8a5,5,0,0,1-1.61,9.74Z"/><path class="cls-1" d="M225.82,474a5,5,0,0,1-4.94-5.84l.49-2.87a5,5,0,0,1,9.86,1.67l-.49,2.88A5,5,0,0,1,225.82,474Zm3.85-22.59a5,5,0,0,1-4.94-5.84l1.34-7.89a5,5,0,0,1,9.86,1.68l-1.34,7.89A5,5,0,0,1,229.67,451.41Zm4.7-27.6a4.88,4.88,0,0,1-.85-.07,5,5,0,0,1-4.09-5.77l1.35-7.89a5,5,0,1,1,9.85,1.68l-1.34,7.89A5,5,0,0,1,234.37,423.81Zm4.7-27.6a5,5,0,0,1-4.94-5.84l1.35-7.89a5,5,0,1,1,9.85,1.68L244,392A5,5,0,0,1,239.07,396.21Zm4.7-27.61a5,5,0,0,1-4.94-5.84l1.35-7.88a5,5,0,1,1,9.85,1.67l-1.34,7.89A5,5,0,0,1,243.77,368.6Zm4.7-27.6a5,5,0,0,1-4.93-5.84l1.34-7.89a5,5,0,1,1,9.86,1.68l-1.35,7.89A5,5,0,0,1,248.47,341Z"/><path class="cls-1" d="M189.17,453a5,5,0,0,1-4.76-3.48q-.78-2.43-1.5-4.88a5,5,0,1,1,9.58-2.84c.46,1.56.95,3.11,1.44,4.68a5,5,0,0,1-3.23,6.28A5.14,5.14,0,0,1,189.17,453Zm-6.38-24.17a5,5,0,0,1-4.88-4c-.36-1.67-.69-3.34-1-5a5,5,0,0,1,9.82-1.88c.31,1.6.63,3.2,1,4.81a5,5,0,0,1-3.86,5.93A5.24,5.24,0,0,1,182.79,428.85Zm-4-24.66a5,5,0,0,1-5-4.41c-.2-1.7-.38-3.39-.55-5.06a5,5,0,0,1,9.95-1c.16,1.62.34,3.25.53,4.89a5,5,0,0,1-4.37,5.55A4,4,0,0,1,178.75,404.19Zm-1.92-24.93a5,5,0,0,1-5-4.81q-.09-2.58-.15-5.07a5,5,0,1,1,10-.22c0,1.61.08,3.25.14,4.92a5,5,0,0,1-4.8,5.18Zm0-25h-.21a5,5,0,0,1-4.79-5.19q.1-2.64.24-5.07a5,5,0,1,1,10,.54c-.09,1.58-.16,3.22-.23,4.92A5,5,0,0,1,176.86,354.26Zm2-24.91c-.22,0-.43,0-.65,0a5,5,0,0,1-4.32-5.6c.43-3.28.74-5.1.75-5.18a5,5,0,0,1,9.86,1.72s-.3,1.7-.69,4.74A5,5,0,0,1,178.88,329.35Z"/><path class="cls-1" d="M146.41,430.67a5,5,0,0,1-4.09-2.12c-1-1.42-2-2.88-2.92-4.35a5,5,0,1,1,8.44-5.36c.85,1.33,1.74,2.66,2.65,4a5,5,0,0,1-1.21,7A4.93,4.93,0,0,1,146.41,430.67Zm-11.92-21.91a5,5,0,0,1-4.63-3.1c-.65-1.59-1.28-3.21-1.88-4.84a5,5,0,0,1,9.4-3.43c.55,1.5,1.13,3,1.73,4.48a5,5,0,0,1-2.73,6.52A5,5,0,0,1,134.49,408.76Zm-7.32-23.87a5,5,0,0,1-4.88-3.94c-.36-1.67-.7-3.37-1-5.06a5,5,0,0,1,9.83-1.81c.29,1.59.61,3.19.95,4.76a5,5,0,0,1-3.83,5.94A4.83,4.83,0,0,1,127.17,384.89Zm-3.5-24.74a5,5,0,0,1-5-4.62c-.13-1.73-.24-3.44-.32-5.12a5,5,0,0,1,10-.5c.08,1.6.18,3.23.3,4.87a5,5,0,0,1-4.62,5.36Zm-.4-25h-.2a5,5,0,0,1-4.8-5.2c.07-1.75.16-3.46.26-5.1a5,5,0,1,1,10,.61c-.09,1.57-.18,3.2-.24,4.89A5,5,0,0,1,123.27,335.16Zm2.34-24.89a5,5,0,0,1-4.94-5.76c.5-3.26.88-5.1.89-5.18a5,5,0,0,1,9.8,2c0,.07-.36,1.76-.81,4.68A5,5,0,0,1,125.61,310.27Z"/><path class="cls-1" d="M259.1,459.37a5,5,0,0,1-3.41-8.66c1.17-1.09,2.34-2.22,3.48-3.35a5,5,0,1,1,7.05,7.08c-1.21,1.21-2.46,2.41-3.71,3.58A5,5,0,0,1,259.1,459.37Zm16.8-18.46a5,5,0,0,1-4-8.05c1-1.28,1.95-2.58,2.89-3.89a5,5,0,0,1,8.11,5.85c-1,1.39-2,2.78-3.08,4.14A5,5,0,0,1,275.9,440.91Zm13.58-21a5.08,5.08,0,0,1-2.37-.6,5,5,0,0,1-2-6.78c.77-1.42,1.52-2.87,2.23-4.3a5,5,0,0,1,8.95,4.47c-.77,1.53-1.56,3.07-2.38,4.58A5,5,0,0,1,289.48,420Zm10.14-22.84a4.85,4.85,0,0,1-1.67-.29,5,5,0,0,1-3-6.38c.54-1.53,1.06-3.07,1.56-4.6a5,5,0,1,1,9.51,3.07c-.52,1.62-1.07,3.26-1.65,4.88A5,5,0,0,1,299.62,397.12Zm6.63-24.1a5.5,5.5,0,0,1-1-.09,5,5,0,0,1-3.93-5.88c.31-1.58.61-3.18.88-4.78a5,5,0,0,1,9.86,1.66c-.29,1.69-.6,3.39-.93,5.07A5,5,0,0,1,306.25,373Zm3-24.83h-.17a5,5,0,0,1-4.83-5.17c0-1.28.06-2.32.06-3.1,0-.95,0-1.47,0-1.53a5,5,0,0,1,10-.42s0,.68,0,1.95c0,.87,0,2-.06,3.44A5,5,0,0,1,309.22,348.19Z"/><path class="cls-1" d="M300.27,463.61a5,5,0,0,1-2.45-9.36c1.41-.8,2.82-1.62,4.18-2.44a5,5,0,0,1,5.16,8.57c-1.45.87-3,1.74-4.45,2.59A5.06,5.06,0,0,1,300.27,463.61ZM321,449.71a5,5,0,0,1-3.11-8.91c1.26-1,2.51-2,3.73-3.07a5,5,0,0,1,6.48,7.62c-1.3,1.11-2.64,2.21-4,3.28A5,5,0,0,1,321,449.71Zm18.2-17.08a5,5,0,0,1-3.7-8.35c1.07-1.19,2.14-2.41,3.18-3.64a5,5,0,1,1,7.63,6.47c-1.11,1.31-2.25,2.61-3.4,3.88A5,5,0,0,1,339.19,432.63Zm15.23-19.79a5,5,0,0,1-4.18-7.73c.88-1.35,1.75-2.72,2.59-4.1a5,5,0,0,1,8.53,5.21c-.89,1.46-1.81,2.93-2.75,4.36A5,5,0,0,1,354.42,412.84ZM366.49,391a4.88,4.88,0,0,1-2.09-.46,5,5,0,0,1-2.44-6.63c.67-1.47,1.34-3,2-4.44a5,5,0,0,1,9.2,3.92c-.67,1.57-1.38,3.15-2.09,4.71A5,5,0,0,1,366.49,391Zm8.89-23.37a5,5,0,0,1-4.79-6.46c.47-1.55.93-3.12,1.35-4.67a5,5,0,1,1,9.65,2.64c-.45,1.64-.93,3.3-1.43,4.94A5,5,0,0,1,375.38,367.59Zm5.55-24.41a5.81,5.81,0,0,1-.72-.05,5,5,0,0,1-4.24-5.67c.43-2.95.56-4.63.56-4.65a5,5,0,0,1,10,.73c0,.09-.15,2-.63,5.36A5,5,0,0,1,380.93,343.18Z"/><path class="cls-1" d="M87.75,381.83a5,5,0,0,1-4.43-2.67c-.79-1.5-1.57-3.05-2.33-4.62a5,5,0,0,1,9-4.35c.7,1.46,1.43,2.91,2.17,4.31a5,5,0,0,1-2.09,6.75A4.9,4.9,0,0,1,87.75,381.83Zm-9.77-23a5,5,0,0,1-4.74-3.41c-.54-1.6-1.06-3.25-1.57-4.89a5,5,0,0,1,9.57-2.92c.47,1.55,1,3.11,1.48,4.63A5,5,0,0,1,78,358.84Zm-6.39-24.16a5,5,0,0,1-4.9-4c-.33-1.69-.65-3.37-.94-5a5,5,0,0,1,9.85-1.73c.28,1.59.58,3.19.9,4.81a5,5,0,0,1-3.93,5.88A4.66,4.66,0,0,1,71.59,334.68Zm-3.52-24.76a5,5,0,0,1-5-4.56c-.16-1.75-.29-3.45-.4-5.09a5,5,0,0,1,10-.68q.17,2.37.39,4.89a5,5,0,0,1-4.54,5.42A3.39,3.39,0,0,1,68.07,309.92Zm-.88-25h-.12a5,5,0,0,1-4.88-5.11c.07-3.29.2-5.17.21-5.24a5,5,0,0,1,10,.71c0,.08-.12,1.79-.19,4.75A5,5,0,0,1,67.19,284.93Z"/><path class="cls-1" d="M386.71,427.83a5,5,0,0,1-3.42-8.65c1.19-1.11,2.36-2.24,3.5-3.36a5,5,0,0,1,7,7.1c-1.21,1.2-2.46,2.4-3.71,3.57A5,5,0,0,1,386.71,427.83Zm16.89-18.38a5,5,0,0,1-3.08-1.07,5,5,0,0,1-.85-7c1-1.27,2-2.57,2.93-3.85a5,5,0,0,1,8.06,5.92c-1,1.37-2.06,2.75-3.12,4.11A5,5,0,0,1,403.6,409.45Zm13.85-20.79a5,5,0,0,1-4.37-7.44c.79-1.4,1.56-2.84,2.3-4.26a5,5,0,1,1,8.88,4.6c-.79,1.52-1.61,3.05-2.44,4.54A5,5,0,0,1,417.45,388.66ZM427.9,366a5,5,0,0,1-4.69-6.73c.55-1.51,1.09-3,1.6-4.57a5,5,0,1,1,9.49,3.15c-.54,1.63-1.12,3.27-1.71,4.88A5,5,0,0,1,427.9,366Zm6.63-24.1a5.12,5.12,0,0,1-.87-.08,5,5,0,0,1-4.07-5.78c.5-2.89.65-4.54.66-4.55a5,5,0,0,1,10,.86c0,.09-.18,2.05-.76,5.4A5,5,0,0,1,434.53,341.87Z"/></g></svg>