<?xml version="1.0" ?><svg viewBox="0 0 512 512" xmlns="http://www.w3.org/2000/svg"><defs><style>.cls-1{fill:#3f456b;}</style></defs><title/><g id="Lines"><path class="cls-1" d="M415,501H95a85.1,85.1,0,0,1-85-85V192a85.1,85.1,0,0,1,85-85H415a85.1,85.1,0,0,1,85,85V416A85.1,85.1,0,0,1,415,501ZM95,117a75.09,75.09,0,0,0-75,75V416a75.09,75.09,0,0,0,75,75H415a75.09,75.09,0,0,0,75-75V192a75.09,75.09,0,0,0-75-75Z"/><path class="cls-1" d="M416.62,293H93.38C74.42,293,59,277.3,59,258V189c0-19.3,15.42-35,34.38-35H416.62c19,0,34.38,15.7,34.38,35v69C451,277.3,435.58,293,416.62,293ZM93.38,164C79.94,164,69,175.21,69,189v69c0,13.79,10.94,25,24.38,25H416.62c13.44,0,24.38-11.21,24.38-25V189c0-13.79-10.94-25-24.38-25Z"/><path class="cls-1" d="M284.29,406H224.94C212.29,406,202,394.79,202,381v-8c0-13.79,10.29-25,22.94-25h59.35c12.52,0,22.71,11.21,22.71,25v8C307,394.79,296.81,406,284.29,406Zm-59.35-48c-7,0-12.94,6.87-12.94,15v8c0,8.13,5.93,15,12.94,15h59.35c7,0,12.71-6.73,12.71-15v-8c0-8.27-5.7-15-12.71-15Z"/><path class="cls-1" d="M417.15,406H357.81C345.23,406,335,394.79,335,381v-8c0-13.79,10.23-25,22.81-25h59.34c12.6,0,22.85,11.21,22.85,25v8C440,394.79,429.75,406,417.15,406Zm-59.34-48c-7.06,0-12.81,6.73-12.81,15v8c0,8.27,5.75,15,12.81,15h59.34c7.09,0,12.85-6.73,12.85-15v-8c0-8.27-5.76-15-12.85-15Z"/><path class="cls-1" d="M154.08,406H94.73C82.2,406,72,394.79,72,381v-8c0-13.79,10.2-25,22.73-25h59.35c12.64,0,22.92,11.21,22.92,25v8C177,394.79,166.72,406,154.08,406ZM94.73,358c-7,0-12.73,6.73-12.73,15v8c0,8.27,5.71,15,12.73,15h59.35c7,0,12.92-6.87,12.92-15v-8c0-8.13-5.92-15-12.92-15Z"/></g><g id="Outline"><path class="cls-1" d="M276,449H256a5,5,0,0,1-5-5V401a5,5,0,0,1,10,0v38h15a5,5,0,0,1,0,10Z"/><path class="cls-1" d="M387,449H367a5,5,0,0,1,0-10h15V401a5,5,0,0,1,10,0v43A5,5,0,0,1,387,449Z"/><path class="cls-1" d="M401.64,267H382.36A20.38,20.38,0,0,1,362,246.64V201.36A20.38,20.38,0,0,1,382.36,181h19.28A20.38,20.38,0,0,1,422,201.36v45.28A20.38,20.38,0,0,1,401.64,267Zm-19.28-76A10.37,10.37,0,0,0,372,201.36v45.28A10.37,10.37,0,0,0,382.36,257h19.28A10.37,10.37,0,0,0,412,246.64V201.36A10.37,10.37,0,0,0,401.64,191Z"/><path class="cls-1" d="M320.28,267H300.59C289.43,267,280,257.36,280,246v-44.9C280,190,289.24,181,300.59,181h19.69c11.24,0,19.72,8.62,19.72,20.05V246C340,257.56,331.15,267,320.28,267Zm-19.69-76A10.34,10.34,0,0,0,290,201.05V246C290,251.84,295,257,300.59,257h19.69c6,0,9.72-5.74,9.72-11.05v-44.9c0-5.82-4.09-10.05-9.72-10.05Z"/><path class="cls-1" d="M213.64,267H194.36A20.38,20.38,0,0,1,174,246.64V201.36A20.38,20.38,0,0,1,194.36,181h19.28A20.38,20.38,0,0,1,234,201.36v45.28A20.38,20.38,0,0,1,213.64,267Zm-19.28-76A10.37,10.37,0,0,0,184,201.36v45.28A10.37,10.37,0,0,0,194.36,257h19.28A10.37,10.37,0,0,0,224,246.64V201.36A10.37,10.37,0,0,0,213.64,191Z"/><path class="cls-1" d="M131.88,267H112.2C100.9,267,91,257.16,91,246v-44.9c0-10.87,9.71-20.05,21.2-20.05h19.68A19.87,19.87,0,0,1,152,201.05V246C152,257.56,143,267,131.88,267ZM112.2,191c-6.07,0-11.2,4.6-11.2,10.05V246c0,5.68,5.44,11.05,11.2,11.05h19.68C137.37,257,142,251.94,142,246v-44.9A9.86,9.86,0,0,0,131.88,191Z"/><path class="cls-1" d="M260.06,212h-4.12a5,5,0,0,1,0-10h4.12a5,5,0,0,1,0,10Z"/><path class="cls-1" d="M260.06,245h-4.12a5,5,0,0,1,0-10h4.12a5,5,0,0,1,0,10Z"/><path class="cls-1" d="M347,444a5,5,0,0,1,5-5h0a5,5,0,0,1,5,5h0a5,5,0,0,1-5,5h0A5,5,0,0,1,347,444Zm-20,0a5,5,0,0,1,5-5h0a5,5,0,0,1,5,5h0a5,5,0,0,1-5,5h0A5,5,0,0,1,327,444Zm-20,0a5,5,0,0,1,5-5h0a5,5,0,0,1,5,5h0a5,5,0,0,1-5,5h0A5,5,0,0,1,307,444Zm-20,0a5,5,0,0,1,5-5h0a5,5,0,0,1,5,5h0a5,5,0,0,1-5,5h0A5,5,0,0,1,287,444Z"/><path class="cls-1" d="M279,322a5,5,0,0,1,5-5h0a5,5,0,0,1,5,5h0a5,5,0,0,1-5,5h0A5,5,0,0,1,279,322Zm-20,0a5,5,0,0,1,5-5h0a5,5,0,0,1,5,5h0a5,5,0,0,1-5,5h0A5,5,0,0,1,259,322Zm-20,0a5,5,0,0,1,5-5h0a5,5,0,0,1,5,5h0a5,5,0,0,1-5,5h0A5,5,0,0,1,239,322Zm-20,0a5,5,0,0,1,5-5h0a5,5,0,0,1,5,5h0a5,5,0,0,1-5,5h0A5,5,0,0,1,219,322Z"/><path class="cls-1" d="M151,322a5,5,0,0,1,5-5h0a5,5,0,0,1,5,5h0a5,5,0,0,1-5,5h0A5,5,0,0,1,151,322Zm-20,0a5,5,0,0,1,5-5h0a5,5,0,0,1,5,5h0a5,5,0,0,1-5,5h0A5,5,0,0,1,131,322Zm-20,0a5,5,0,0,1,5-5h0a5,5,0,0,1,5,5h0a5,5,0,0,1-5,5h0A5,5,0,0,1,111,322Zm-20,0a5,5,0,0,1,5-5h0a5,5,0,0,1,5,5h0a5,5,0,0,1-5,5h0A5,5,0,0,1,91,322Z"/><path class="cls-1" d="M415,322a5,5,0,0,1,5-5h0a5,5,0,0,1,5,5h0a5,5,0,0,1-5,5h0A5,5,0,0,1,415,322Zm-20,0a5,5,0,0,1,5-5h0a5,5,0,0,1,5,5h0a5,5,0,0,1-5,5h0A5,5,0,0,1,395,322Zm-20,0a5,5,0,0,1,5-5h0a5,5,0,0,1,5,5h0a5,5,0,0,1-5,5h0A5,5,0,0,1,375,322Zm-20,0a5,5,0,0,1,5-5h0a5,5,0,0,1,5,5h0a5,5,0,0,1-5,5h0A5,5,0,0,1,355,322Z"/><path class="cls-1" d="M336,42.6a5,5,0,0,1-5-5V16a5,5,0,0,1,10,0V37.6A5,5,0,0,1,336,42.6Z"/><path class="cls-1" d="M278.67,66.35a5,5,0,0,1-3.53-1.47L259.87,49.61a5,5,0,1,1,7.07-7.07l15.27,15.27a5,5,0,0,1-3.54,8.54Z"/><path class="cls-1" d="M393.36,66.35a5,5,0,0,1-3.54-8.54l15.27-15.27a5,5,0,0,1,7.07,7.07L396.89,64.88A5,5,0,0,1,393.36,66.35Z"/><path class="cls-1" d="M305.37,49a5,5,0,0,1-4.64-3.11L296,34.2a5,5,0,0,1,9.26-3.77L310,42.1A5,5,0,0,1,305.37,49Z"/><path class="cls-1" d="M411.35,93a5,5,0,0,1-1.89-9.63l11.67-4.76a5,5,0,0,1,3.78,9.26l-11.68,4.76A5,5,0,0,1,411.35,93Z"/><path class="cls-1" d="M261,92.44a4.91,4.91,0,0,1-1.94-.39l-11.62-4.89a5,5,0,1,1,3.88-9.22L263,82.83A5,5,0,0,1,261,92.44Z"/><path class="cls-1" d="M367.09,48.62a4.91,4.91,0,0,1-1.94-.39,5,5,0,0,1-2.67-6.55l4.89-11.62a5,5,0,0,1,9.22,3.88L371.7,45.56A5,5,0,0,1,367.09,48.62Z"/></g></svg>