<?xml version="1.0" ?><svg viewBox="0 0 512 512" xmlns="http://www.w3.org/2000/svg"><defs><style>.cls-1{fill:#3f456b;}</style></defs><title/><g id="Lines"><path class="cls-1" d="M433.38,359.24a5,5,0,0,1-3.23-1.19l-61-51.73a5,5,0,1,1,6.47-7.63l61,51.74a5,5,0,0,1-3.23,8.81Z"/><path class="cls-1" d="M256.76,500.28c-34.62,0-67.45-6.49-97.57-19.29a242.65,242.65,0,0,1-66.61-42.44C58.36,408,42.87,377.88,42.23,376.61a5,5,0,0,1,1.26-6.1l88.91-74.23a5,5,0,0,1,6.41,7.68L53.07,375.54c5,8.67,20.1,32.38,46.47,55.81a232.79,232.79,0,0,0,63.8,40.54c28.81,12.2,60.24,18.39,93.42,18.39,45.35,0,87-11.76,123.77-35a5,5,0,0,1,5.33,8.46C347.47,488,304,500.28,256.76,500.28Z"/><path class="cls-1" d="M254,370.44A145.06,145.06,0,0,1,109,225.22V184a5,5,0,0,1,10,0v41.25a135.08,135.08,0,1,0,270.16,0L389.07,184a5,5,0,0,1,5-5h0a5,5,0,0,1,5,5l.09,41.25A145.1,145.1,0,0,1,254,370.44Z"/><path class="cls-1" d="M115,247.8h-.32c-18.48-1.16-33-16.29-33-34.45a34.62,34.62,0,0,1,29.26-34,5,5,0,1,1,1.65,9.86,24.65,24.65,0,0,0-20.91,24.16c0,12.89,10.36,23.64,23.59,24.47a5,5,0,0,1-.31,10Z"/><path class="cls-1" d="M393.75,247.8a5,5,0,0,1-.31-10c13.23-.83,23.6-11.58,23.6-24.47a24.66,24.66,0,0,0-20.92-24.16,5,5,0,0,1,1.65-9.86,34.63,34.63,0,0,1,29.27,34c0,18.16-14.48,33.29-33,34.45Z"/><path class="cls-1" d="M211,211.5H191a5,5,0,0,1,0-10h20a5,5,0,0,1,0,10Z"/><path class="cls-1" d="M318,211.5H298a5,5,0,0,1,0-10h20a5,5,0,0,1,0,10Z"/><path class="cls-1" d="M412.75,196.5a5,5,0,0,1-1.21-9.85c12.68-3.18,47.3-14.81,55.12-30.24a12.62,12.62,0,0,0,.45-11,3,3,0,0,1-.23-.7c-.35-1.13-5.22-14.33-36.51-5.91-4.13,1.41-77.18,25.72-161.46,25.72H240.5c-84.28,0-157.33-24.31-161.46-25.72-31.29-8.42-36.16,4.78-36.52,5.91a2.3,2.3,0,0,1-.23.7,12.59,12.59,0,0,0,.46,11c7.81,15.43,42.44,27.06,55.12,30.24a5,5,0,0,1-2.43,9.7c-2-.51-50.13-12.76-61.61-35.42a22.32,22.32,0,0,1-.9-19.05,20.8,20.8,0,0,1,9.55-11.46c9.1-5.43,22.33-5.85,39.33-1.25l.33.11c.73.25,73.77,25.22,158.36,25.22h28.41c84.59,0,157.63-25,158.36-25.22l.33-.11c17-4.6,30.23-4.18,39.32,1.25a20.84,20.84,0,0,1,9.56,11.46,22.36,22.36,0,0,1-.9,19.05C464.1,183.59,416,195.84,414,196.35A5,5,0,0,1,412.75,196.5Z"/><path class="cls-1" d="M119,149.7a4.85,4.85,0,0,1-1.3-.18,5,5,0,0,1-3.53-6.13,343.23,343.23,0,0,1,14.09-39.86C140.74,73.89,154.94,51,170.46,35.46c16.21-16.2,32.42-22,46.89-16.79,11.83,4.26,16.53,13.66,21.07,22.74.58,1.16,1.17,2.33,1.77,3.5,5,9.65,9.73,13.59,16.31,13.59,7.38,0,9.73-4.66,13.34-15.3.62-1.84,1.27-3.74,2-5.58,4.76-12.19,15.56-20.15,28.17-20.76,12.33-.61,24.67,5.48,37.79,18.6C353.32,51,367.51,73.89,380,103.53a343.53,343.53,0,0,1,14.1,39.87,5,5,0,0,1-9.66,2.59c-.18-.68-18.76-68.51-53.7-103.45-11-11-20.92-16.15-30.24-15.7-8.74.43-16,5.82-19.34,14.43-.64,1.62-1.22,3.33-1.83,5.14-3.16,9.32-7.49,22.09-22.81,22.09-13.76,0-21-10.84-25.19-19-.63-1.21-1.23-2.43-1.84-3.63C225.31,37.56,222,31,214,28.08c-13.35-4.81-27.17,5.21-36.42,14.46-35,35-53.52,102.77-53.71,103.45A5,5,0,0,1,119,149.7Z"/><path class="cls-1" d="M114,189.25a5,5,0,0,1-.75-9.94c.49-.08,50.34-7.59,141.46-7.59s139.37,7.52,139.84,7.59a5,5,0,0,1-1.57,9.88c-.47-.08-48-7.47-138.27-7.47s-139.45,7.4-139.94,7.47A5,5,0,0,1,114,189.25Z"/><path class="cls-1" d="M383,133a4.88,4.88,0,0,1-.85-.07c-.46-.08-46.78-7.93-125.52-7.93s-130,7.86-130.54,7.94a5,5,0,1,1-1.55-9.88C125,123,176.94,115,256.6,115s126.76,8,127.22,8.07A5,5,0,0,1,383,133Z"/><path class="cls-1" d="M306.42,452.83c-51.55,0-92.14-13.73-120.79-40.9-41.69-39.53-42.51-92.68-42.52-94.92a5,5,0,0,1,5-5h0a5,5,0,0,1,5,5h0c0,.51.89,51.3,39.5,87.83,28.72,27.17,70.73,39.91,124.91,37.85,5.91-10.78,30-58.36,30-117.61a5,5,0,0,1,10,0c0,70.09-31.38,122.86-32.72,125.07a5,5,0,0,1-4,2.41Q313.44,452.84,306.42,452.83Z"/><path class="cls-1" d="M176.5,484.5a5,5,0,0,1-5-5V394.42a5,5,0,0,1,10,0V479.5A5,5,0,0,1,176.5,484.5Z"/><path class="cls-1" d="M336.67,486.57a5,5,0,0,1-5-5V412.32a5,5,0,0,1,10,0v69.25A5,5,0,0,1,336.67,486.57Z"/><path class="cls-1" d="M256.59,500.28a5,5,0,0,1-5-5V442.57a5,5,0,0,1,10,0v52.71A5,5,0,0,1,256.59,500.28Z"/><path class="cls-1" d="M280.33,477a5,5,0,0,1-5-5v-1a5,5,0,0,1,10,0v1A5,5,0,0,1,280.33,477Z"/><path class="cls-1" d="M77.77,421.91a5,5,0,0,1-3.56-8.51C83,404.53,88.74,388,90.93,365.6a207.9,207.9,0,0,0,.58-32.45,5,5,0,0,1,10-.77c.19,2.56,4.59,62.95-20.16,88A5,5,0,0,1,77.77,421.91Z"/><path class="cls-1" d="M415.39,386.49a5,5,0,0,1-4.9-4A205.68,205.68,0,0,1,407,335.82a5,5,0,0,1,10,.54c0,.22-1.13,22.24,3.33,44.13a5,5,0,0,1-3.9,5.9A4.92,4.92,0,0,1,415.39,386.49Z"/><path class="cls-1" d="M88.52,404.5a5,5,0,0,1,0-10l88.14-.5a5,5,0,1,1,.06,10l-88.15.5Z"/><path class="cls-1" d="M340.5,404.5a5,5,0,0,1,0-10l49.83-.32a5,5,0,1,1,.06,10l-49.83.32Z"/><path class="cls-1" d="M217.45,309.27a54.16,54.16,0,0,1-10.69-1.12c-16.37-3.31-27.45-10.53-32.94-21.46-8.76-17.46.51-37.48.91-38.33a5,5,0,0,1,9.13.2s3.29,7.4,9.81,9.26c4.37,1.24,9.58-.21,15.48-4.3,22.79-15.82,40.17-7.81,47.1-3.15,6.93-4.66,24.31-12.68,47.1,3.15,5.6,3.88,10.86,5.27,15.64,4.11,8.18-2,13.05-10.78,13.09-10.86a5,5,0,0,1,9.19.83c3.69,11.63,3.73,24.76.11,35.12-3.35,9.6-10.35,17.11-20.23,21.71-12.57,5.85-28.7,6.32-42.1,1.23a42,42,0,0,1-15.72-10.56,46.84,46.84,0,0,1-3.53-4.72c-.78-1.12-2-2.87-3.15-4.42C248.94,296,237.82,309.27,217.45,309.27ZM181,261.5c-1.24,5.89-1.73,13.79,1.78,20.75,4.05,8,12.78,13.44,26,16.1,22.42,4.53,32.36-8.49,41.12-20,.75-1,1.48-1.94,2.2-2.86A5,5,0,0,1,256,273.6h.5c3.58,0,5.74,2.83,11.49,11,.93,1.32,2.19,3.13,2.57,3.55a31.73,31.73,0,0,0,12,8.12c10.8,4.11,24.27,3.73,34.33-.95a27.81,27.81,0,0,0,15-15.94,44.14,44.14,0,0,0,1.85-19,28.46,28.46,0,0,1-12.45,6.93c-7.67,1.86-15.64,0-23.69-5.62-9.77-6.78-19.14-9.06-27.85-6.77A23.79,23.79,0,0,0,260,260a5,5,0,0,1-3.52,1.45H256a5,5,0,0,1-3.52-1.45c-.58-.56-15-14-37.63,1.71-8.52,5.92-16.6,7.83-24,5.67A23.2,23.2,0,0,1,181,261.5Z"/><path class="cls-1" d="M240.5,405a4.82,4.82,0,0,1-1.12-.13c-39.34-9-52.61-50.13-53.15-51.88a5,5,0,0,1,9.54-3c.13.42,12.19,37.4,45.85,45.13A5,5,0,0,1,240.5,405Z"/><path class="cls-1" d="M402.05,318a74.1,74.1,0,0,1-23.74-4.3,5,5,0,1,1,3.21-9.47c14.92,5.06,27.62,5,37.76-.14,9.24-4.7,14.37-12.72,16.75-17.53-30-12.54-53.16,5.89-54.17,6.71a5,5,0,0,1-6.35-7.72c1.25-1,31.27-25.22,69.25-6a5,5,0,0,1,2.52,5.92c-.23.75-5.78,18.43-23.32,27.42A47.35,47.35,0,0,1,402.05,318Z"/><path class="cls-1" d="M422.31,219.34a5,5,0,0,1-1.33-9.82,96.26,96.26,0,0,0-25.73-189A95.28,95.28,0,0,0,335.84,41a5,5,0,0,1-6.18-7.87A105.2,105.2,0,0,1,395.25,10.5a106.26,106.26,0,0,1,28.4,208.66A5.09,5.09,0,0,1,422.31,219.34Z"/><path class="cls-1" d="M46.7,379.35a5,5,0,0,1-4.3-2.43c-.85-1.43-21-35.42-27.2-76a5,5,0,0,1,2.44-5.09c.34-.19,33.71-19.45,51.79-29.12,22.34-12,41.24-9.85,57.78,6.41a5,5,0,0,1-7,7.14c-13.38-13.16-27.58-14.62-46-4.73-14.77,7.9-39.9,22.29-48.51,27.24,6.49,37.18,25.15,68.73,25.34,69a5,5,0,0,1-4.28,7.57Z"/><path class="cls-1" d="M425,283.06a5,5,0,0,1-3.31-1.25l-32.7-29a5,5,0,1,1,6.63-7.48l32.7,28.95a5,5,0,0,1-3.32,8.74Z"/><path class="cls-1" d="M483,338.51a4.81,4.81,0,0,1-1.53-.25,5,5,0,0,1-3.23-6.29A312.73,312.73,0,0,0,488,292.74a9.87,9.87,0,0,0-8.82-2.34c-4,.8-8.64,3.61-13.84,8.35a17.22,17.22,0,0,1-12.83,4.79c-9.25-.57-16.23-8.41-17-9.3a5,5,0,0,1,7.58-6.53h0c1.34,1.55,5.77,5.6,10.05,5.85a7.22,7.22,0,0,0,5.46-2.19c6.65-6.07,12.73-9.59,18.6-10.78,7.44-1.5,14.31.93,19.86,7a5,5,0,0,1,1.25,4.12A310,310,0,0,1,487.78,335,5,5,0,0,1,483,338.51Z"/><path class="cls-1" d="M440.25,500.87a65.4,65.4,0,0,1-54.73-29.72c-19.65-30.09-11.5-70.33,18.18-89.72a58.9,58.9,0,0,1,6.78-3.86,66.43,66.43,0,0,1,30.38-6.45,65.75,65.75,0,0,1,61.74,78.55,63.54,63.54,0,0,1-62.35,51.2Zm-1.35-119.8a58.09,58.09,0,0,0-24.1,5.52h0a48.11,48.11,0,0,0-5.63,3.21c-25.06,16.37-31.91,50.41-15.28,75.88s50.56,32.86,75.62,16.49a53.49,53.49,0,0,0,23.29-34.48,55.75,55.75,0,0,0-52.37-66.58h-.18S439.75,381.07,438.9,381.07Zm-26.26,1h0Z"/><path class="cls-1" d="M440.59,462A46.09,46.09,0,0,1,402,441c-13.54-20.72-8.45-48.62,11.34-62.18h0a44.38,44.38,0,0,1,31.57-7.54,46.58,46.58,0,0,1,39,54.9A44.24,44.24,0,0,1,440.59,462ZM419,387c-15.34,10.52-19.21,32.27-8.62,48.48a36.15,36.15,0,0,0,22.49,15.66,34.23,34.23,0,0,0,41.26-26.95,36.58,36.58,0,0,0-30.7-43.08l-.33-.05A34.06,34.06,0,0,0,419,387Z"/><path class="cls-1" d="M470.78,396.5a5,5,0,0,1-3-9c10.6-7.78,20-27.89,16.16-42.16-2.28-8.52-9-13.45-19.86-14.66-7.75-.86-13.54.83-17.7,5.17-9.49,9.92-8.5,31.88-7.32,39.5a5,5,0,1,1-9.88,1.54c-.2-1.32-4.84-32.48,10-48,6.37-6.66,15.13-9.41,26-8.2,15,1.66,25.07,9.48,28.42,22,5,18.82-6.46,42.94-19.91,52.81A5,5,0,0,1,470.78,396.5Z"/><path class="cls-1" d="M460.11,387a4.93,4.93,0,0,1-2.72-.81,5,5,0,0,1-1.47-6.92c5.45-8.4,12.45-23.28,10.18-28.53-.18-.41-.51-1.18-2.49-1.54-2.31-.42-3.42.26-4.21,1-5,4.53-5.35,20-4.76,26.77a5,5,0,1,1-10,.87,90.09,90.09,0,0,1,0-13.42c.83-10.28,3.5-17.55,8-21.61a14.41,14.41,0,0,1,12.73-3.43c6,1.08,8.69,4.63,9.89,7.42,5.2,12-8.23,33.71-11,37.94A5,5,0,0,1,460.11,387Z"/><path class="cls-1" d="M427.3,499.46a5,5,0,0,1-4.81-3.65c-5.74-20.63-.25-41.46,0-42.33a5,5,0,1,1,9.66,2.6c-.08.3-5,19.18,0,37a5,5,0,0,1-3.47,6.16A5.22,5.22,0,0,1,427.3,499.46Z"/><path class="cls-1" d="M446.38,499.46a5,5,0,0,1-4.8-3.58c-5.78-19.61-.25-39.42,0-40.25a5,5,0,1,1,9.62,2.74h0c-.05.18-5,17.92,0,34.68a5,5,0,0,1-3.39,6.21A4.9,4.9,0,0,1,446.38,499.46Z"/></g><g id="Outline"><path class="cls-1" d="M130.19,434a5,5,0,0,1-5-5V400a5,5,0,0,1,10,0v29A5,5,0,0,1,130.19,434Z"/><path class="cls-1" d="M115,429a5,5,0,0,1-5-5V400a5,5,0,0,1,10,0v24A5,5,0,0,1,115,429Z"/><path class="cls-1" d="M99.88,421.91a5,5,0,0,1-5-5V400a5,5,0,0,1,10,0v16.91A5,5,0,0,1,99.88,421.91Z"/><path class="cls-1" d="M145.34,429a5,5,0,0,1-5-5V400a5,5,0,0,1,10,0v24A5,5,0,0,1,145.34,429Z"/><path class="cls-1" d="M160.5,421.91a5,5,0,0,1-5-5V400a5,5,0,0,1,10,0v16.91A5,5,0,0,1,160.5,421.91Z"/><path class="cls-1" d="M364.76,429a5,5,0,0,1-5-5V400a5,5,0,0,1,10,0v24A5,5,0,0,1,364.76,429Z"/><path class="cls-1" d="M349.6,421.91a5,5,0,0,1-5-5V400a5,5,0,0,1,10,0v16.91A5,5,0,0,1,349.6,421.91Z"/><path class="cls-1" d="M130.36,116.61a5,5,0,0,1-.59-10s1.77-.21,5-.56a5,5,0,1,1,1.06,9.94c-3.19.34-4.91.55-4.93.55Zm24.91-2.5a5,5,0,0,1-.43-10l5-.44a5,5,0,0,1,.85,10l-5,.43A3.39,3.39,0,0,1,155.27,114.11ZM360,113.77a5,5,0,0,1-.67,0c-1.63-.22-3.26-.43-4.91-.63a5,5,0,0,1,1.22-9.93c1.69.21,3.36.42,5,.65a5,5,0,0,1-.66,10Zm-179.78-1.66a5,5,0,0,1-.36-10l5-.35a5,5,0,1,1,.68,10l-5,.34Zm154.92-1h-.42l-5-.4a5,5,0,0,1,.75-10l5,.4a5,5,0,0,1-.41,10Zm-130-.56a5,5,0,0,1-.26-10l5-.26a5,5,0,1,1,.51,10l-5,.26Zm105-1H310l-5-.21a5,5,0,0,1,.19-10h.19l5,.21a5,5,0,0,1-.22,10Zm-80-.1a5,5,0,0,1-.17-10l5-.16h.16a5,5,0,0,1,.15,10l-5,.17Zm25-.63a5,5,0,0,1-.07-10c1.67,0,3.34,0,5-.06h.05a5,5,0,0,1,.05,10c-1.66,0-3.32,0-5,.06Zm30,0h-.08l-5-.06a5,5,0,0,1,0-10h.05c1.68,0,3.35,0,5,.06a5,5,0,0,1-.07,10Z"/><path class="cls-1" d="M149.42,382.41h-5a5,5,0,0,1,0-10h5a5,5,0,1,1,0,10Zm-25,0h-5a5,5,0,0,1,0-10h5a5,5,0,0,1,0,10Zm-25,0h-5a5,5,0,0,1,0-10h5a5,5,0,1,1,0,10Z"/><path class="cls-1" d="M403.82,384.08h-5a5,5,0,0,1,0-10h5a5,5,0,0,1,0,10Zm-25,0h-5a5,5,0,0,1,0-10h5a5,5,0,0,1,0,10Zm-25,0h-5a5,5,0,0,1,0-10h5a5,5,0,0,1,0,10Z"/></g></svg>