<?xml version="1.0" ?><svg viewBox="0 0 512 512" xmlns="http://www.w3.org/2000/svg"><defs><style>.cls-1{fill:#3f456b;}</style></defs><title/><g id="Lines"><path class="cls-1" d="M393.19,106.08a30.34,30.34,0,1,1,30.34-30.34A30.37,30.37,0,0,1,393.19,106.08Zm0-50.68a20.34,20.34,0,1,0,20.34,20.34A20.37,20.37,0,0,0,393.19,55.4Z"/><path class="cls-1" d="M53.19,411.08a30.34,30.34,0,1,1,30.34-30.34A30.37,30.37,0,0,1,53.19,411.08Zm0-50.68a20.34,20.34,0,1,0,20.34,20.34A20.37,20.37,0,0,0,53.19,360.4Z"/><path class="cls-1" d="M449.75,435.79a44.9,44.9,0,1,1,44.89-44.89A44.95,44.95,0,0,1,449.75,435.79Zm0-79.79a34.9,34.9,0,1,0,34.89,34.9A34.94,34.94,0,0,0,449.75,356Z"/><path class="cls-1" d="M282.63,500a5,5,0,0,1-5-5V338a5,5,0,0,1,10,0V495A5,5,0,0,1,282.63,500Z"/><path class="cls-1" d="M418,499.54a5,5,0,0,1-4.18-2.24l-113-170.54a5,5,0,0,1,8.34-5.52l113,170.54a5,5,0,0,1-4.16,7.76Z"/><path class="cls-1" d="M146.35,499.54a5,5,0,0,1-4.15-7.79L255.85,322.22a5,5,0,0,1,8.3,5.56L150.5,497.32A5,5,0,0,1,146.35,499.54Z"/><path class="cls-1" d="M83.7,219.08a22.56,22.56,0,0,1-6-.79C67.1,215.4,59.46,205,56.24,189c-3-14.77-1.9-32.92,3-51.12,10.67-39.36,35.5-65.73,56.54-60s29.15,41,18.48,80.37c-4.94,18.19-13.18,34.4-23.2,45.65C102.23,213.85,92.7,219.08,83.7,219.08ZM110,87.13c-13.39,0-32,20-41,53.41-4.54,16.73-5.56,33.25-2.89,46.52,2.4,11.9,7.62,19.76,14.33,21.58s15.19-2.33,23.26-11.38c9-10.11,16.48-24.88,21-41.61,9.82-36.21,2-64.45-11.44-68.1A12.39,12.39,0,0,0,110,87.13Z"/><path class="cls-1" d="M106.63,204.08a17.55,17.55,0,0,1-4.51-.59c-15.48-4.2-21.6-29.62-13.94-57.88S114,98.52,129.45,102.7a17.4,17.4,0,0,1,6.07,3,5,5,0,0,1-6.07,7.94,7.51,7.51,0,0,0-2.62-1.31c-8.48-2.31-22.49,11.86-29,35.87-3.1,11.43-3.81,22.7-2,31.73,1.55,7.71,4.8,12.76,8.9,13.87A7.49,7.49,0,0,0,108,194a5,5,0,1,1,1.62,9.86A18.07,18.07,0,0,1,106.63,204.08Z"/><path class="cls-1" d="M392.65,289a18.64,18.64,0,0,1-4.93-.65l-155.8-42.25a5,5,0,0,1,2.61-9.65l155.8,42.25c7.37,2,17.61-6.05,25.47-20a5,5,0,0,1,8.72,4.9C415.44,279.68,403.62,289,392.65,289Z"/><path class="cls-1" d="M433,217.5a5,5,0,0,1-5-5c0-15.53-4.67-26.83-11.88-28.78l-155.8-42.25a5,5,0,1,1,2.61-9.65L418.7,174.07C430.75,177.34,438,191.7,438,212.49a5,5,0,0,1-5,5Z"/><path class="cls-1" d="M298.09,263.33a19,19,0,0,1-4.9-.65,5,5,0,0,1,2.62-9.65c5,1.35,11.41-1.86,17.6-8.81,7.11-8,13-19.65,16.6-32.88s4.4-26.29,2.29-36.76c-1.84-9.13-5.76-15.14-10.74-16.49a5,5,0,1,1,2.61-9.65c8.91,2.41,15.28,11,17.93,24.16,2.41,12,1.54,26.65-2.44,41.36C331.78,243,314.25,263.33,298.09,263.33Z"/><path class="cls-1" d="M466.46,295.06a15.48,15.48,0,0,1-4.11-.55L408.81,280a5,5,0,0,1,2.62-9.66L465,284.86c3.27.89,7.62-1.38,11.94-6.23,5.21-5.83,9.53-14.41,12.17-24.15s3.25-19.33,1.7-27c-1.28-6.36-3.89-10.52-7.16-11.41l-53.53-14.52a5,5,0,0,1,2.61-9.65l53.54,14.52c7.16,1.94,12.26,8.72,14.35,19.08,1.84,9.16,1.18,20.38-1.86,31.59s-8.14,21.23-14.36,28.2C478.66,291.7,472.43,295.06,466.46,295.06Z"/><path class="cls-1" d="M214.34,254.52a21.93,21.93,0,0,1-5.85-.78L77.75,218.29a5,5,0,0,1,2.62-9.65l130.74,35.45c13.46,3.66,34.45-16.77,44.27-53,4.54-16.72,5.57-33.24,2.89-46.52-2.4-11.89-7.62-19.76-14.33-21.57L113.21,87.55a5,5,0,1,1,2.61-9.65l130.74,35.45c10.65,2.89,18.29,13.28,21.51,29.26,3,14.76,1.9,32.92-3,51.11C255.34,229.48,234,254.52,214.34,254.52Z"/><path class="cls-1" d="M476.77,214a5,5,0,0,1-4.83-6.31l10-36.91a4.23,4.23,0,0,0-.43-3.22,4.18,4.18,0,0,0-2.56-2L473.1,164a4.24,4.24,0,0,0-5.2,3l-10,36.91a5,5,0,1,1-9.65-2.62l10-36.91a14.26,14.26,0,0,1,17.47-10l5.86,1.6a14.25,14.25,0,0,1,10,17.46l-10,36.91A5,5,0,0,1,476.77,214Z"/><path class="cls-1" d="M415.71,316.16a5,5,0,0,1-1.31-.17L286,281.17a5,5,0,1,1,2.61-9.65L417,306.34a5,5,0,0,1-1.31,9.82Z"/><path class="cls-1" d="M198,311a5,5,0,0,1-4.81-6.36l15.91-56.45a5,5,0,0,1,9.63,2.72l-15.92,56.45A5,5,0,0,1,198,311Z"/><path class="cls-1" d="M428,334.45a15.14,15.14,0,0,1-3.92-.52h0l-3.89-1.05a15,15,0,0,1-10.55-18.4l2.51-9.23a15,15,0,0,1,18.4-10.55l3.88,1.05A15,15,0,0,1,445,314.14l-2.5,9.23A15,15,0,0,1,428,334.45Zm-1.31-10.18a5,5,0,0,0,6.14-3.51l2.5-9.24a4.92,4.92,0,0,0-.5-3.78,5,5,0,0,0-3-2.35l-3.88-1.05a5,5,0,0,0-6.13,3.51l-2.51,9.24a5,5,0,0,0,.5,3.79,5,5,0,0,0,3,2.34Z"/><path class="cls-1" d="M284,294a4.82,4.82,0,0,1-1.29-.17,5,5,0,0,1-3.54-6.12l8.38-31.38a5,5,0,1,1,9.66,2.58l-8.38,31.38A5,5,0,0,1,284,294Z"/><path class="cls-1" d="M429,267a29,29,0,1,1,29-29A29,29,0,0,1,429,267Zm0-48a19,19,0,1,0,19,19A19,19,0,0,0,429,219Z"/><path class="cls-1" d="M283,343a29,29,0,1,1,29-29A29,29,0,0,1,283,343Zm0-48a19,19,0,1,0,19,19A19,19,0,0,0,283,295Z"/><path class="cls-1" d="M400,436H166a5,5,0,0,1,0-10H400a5,5,0,0,1,0,10Z"/><path class="cls-1" d="M194,347a23,23,0,1,1,23-23A23,23,0,0,1,194,347Zm0-36a13,13,0,1,0,13,13A13,13,0,0,0,194,311Z"/><path class="cls-1" d="M403,205a4.89,4.89,0,0,1-1.3-.17l-41-11a5,5,0,1,1,2.6-9.66l41,11A5,5,0,0,1,403,205Z"/><path class="cls-1" d="M283,319a5,5,0,0,1-5-5v-1a5,5,0,0,1,10,0v1A5,5,0,0,1,283,319Z"/><path class="cls-1" d="M429.48,243.65a5,5,0,0,1-1.46-.22l-.95-.29a5,5,0,1,1,2.91-9.57l.95.29a5,5,0,0,1-1.45,9.79Z"/><path class="cls-1" d="M382.48,230.65a5,5,0,0,1-1.46-.22l-.95-.29a5,5,0,1,1,2.91-9.57l.95.29a5,5,0,0,1-1.45,9.79Z"/><path class="cls-1" d="M242.07,118a5.08,5.08,0,0,1-1.7-.3,5,5,0,0,1-3-6.4A42.41,42.41,0,1,0,155.3,92.53a5,5,0,1,1-10-1,52.4,52.4,0,1,1,101.42,23.15A5,5,0,0,1,242.07,118Z"/><path class="cls-1" d="M122.61,299.32A32.23,32.23,0,1,1,153,278a5,5,0,1,1-9.41-3.4,22.26,22.26,0,1,0-20.94,14.7,5,5,0,1,1,0,10Z"/><path class="cls-1" d="M277.94,146.08a5,5,0,0,1-5-4.5,26,26,0,0,1,50.68-10.31,5,5,0,1,1-9.55,3,16,16,0,0,0-31.18,6.33,5,5,0,0,1-4.47,5.48Z"/><path class="cls-1" d="M296.92,299a4.94,4.94,0,0,1-3.51-1.45,5,5,0,0,1,0-7.07,158.86,158.86,0,0,0,22.07-28,5,5,0,0,1,8.51,5.26,169.24,169.24,0,0,1-23.47,29.81A5,5,0,0,1,296.92,299Z"/><path class="cls-1" d="M180.91,347.47c-92.68,0-168.08-75.41-168.08-168.09S88.23,11.29,180.91,11.29A168.14,168.14,0,0,1,347.57,157.34a5,5,0,0,1-9.92,1.3C327.39,80.34,260,21.29,180.91,21.29c-87.17,0-158.08,70.92-158.08,158.09S93.74,337.47,180.91,337.47a158.29,158.29,0,0,0,75.35-19.08,5,5,0,0,1,4.78,8.79A168.39,168.39,0,0,1,180.91,347.47Z"/></g><g id="Outline"><path class="cls-1" d="M483,189a5,5,0,0,1-1.46-.22l-23-7a5,5,0,0,1,2.92-9.56l23,7A5,5,0,0,1,483,189Z"/><path class="cls-1" d="M155,169a4.88,4.88,0,0,1-1.4-.2l-24-7a5,5,0,0,1,2.8-9.6l24,7A5,5,0,0,1,155,169Z"/><path class="cls-1" d="M159,143a4.88,4.88,0,0,1-1.4-.2l-24-7a5,5,0,1,1,2.8-9.6l24,7A5,5,0,0,1,159,143Z"/><path class="cls-1" d="M158,119a4.88,4.88,0,0,1-1.4-.2l-24-7a5,5,0,1,1,2.8-9.6l24,7A5,5,0,0,1,158,119Z"/><path class="cls-1" d="M132,213a4.88,4.88,0,0,1-1.4-.2l-24-7a5,5,0,1,1,2.8-9.6l24,7A5,5,0,0,1,132,213Z"/><path class="cls-1" d="M147,193a4.88,4.88,0,0,1-1.4-.2l-24-7a5,5,0,0,1,2.8-9.6l24,7A5,5,0,0,1,147,193Z"/><path class="cls-1" d="M162,213a4.93,4.93,0,0,1-3.21-1.17,5,5,0,0,1-.62-7c24.38-29.07,20.89-70.92,20.85-71.34a5,5,0,0,1,10-.9c.17,1.88,3.88,46.44-23.15,78.66A5,5,0,0,1,162,213Z"/></g></svg>