<?xml version="1.0" ?><svg viewBox="0 0 512 512" xmlns="http://www.w3.org/2000/svg"><defs><style>.cls-1{fill:#3f456b;}</style></defs><title/><g id="Lines"><path class="cls-1" d="M49,55a5,5,0,0,1-5-5V47a5,5,0,0,1,10,0v3A5,5,0,0,1,49,55Z"/><path class="cls-1" d="M465,55a5,5,0,0,1-5-5V47a5,5,0,0,1,10,0v3A5,5,0,0,1,465,55Z"/><path class="cls-1" d="M49,469a5,5,0,0,1-5-5v-3a5,5,0,0,1,10,0v3A5,5,0,0,1,49,469Z"/><path class="cls-1" d="M465,469a5,5,0,0,1-5-5v-3a5,5,0,0,1,10,0v3A5,5,0,0,1,465,469Z"/><path class="cls-1" d="M208.25,469.28a32.62,32.62,0,1,1,32.61-32.61A32.64,32.64,0,0,1,208.25,469.28Zm0-55.23a22.62,22.62,0,1,0,22.61,22.62A22.64,22.64,0,0,0,208.25,414.05Z"/><path class="cls-1" d="M304.25,469.28a32.62,32.62,0,1,1,32.61-32.61A32.64,32.64,0,0,1,304.25,469.28Zm0-55.23a22.62,22.62,0,1,0,22.61,22.62A22.64,22.64,0,0,0,304.25,414.05Z"/><path class="cls-1" d="M168.88,283.62a5,5,0,0,1-3.54-8.54L195,245.39a5,5,0,0,1,7.07,7.07l-29.69,29.7A5,5,0,0,1,168.88,283.62Z"/><path class="cls-1" d="M73.42,379.08a5,5,0,0,1-3.53-8.54l29.69-29.7a5,5,0,1,1,7.08,7.08L77,377.61A5,5,0,0,1,73.42,379.08Z"/><path class="cls-1" d="M198.58,379.08a5,5,0,0,1-3.54-1.47l-29.7-29.69a5,5,0,0,1,7.08-7.08l29.69,29.7a5,5,0,0,1-3.53,8.54Z"/><path class="cls-1" d="M103.12,283.62a5,5,0,0,1-3.54-1.46l-29.69-29.7A5,5,0,0,1,77,245.39l29.7,29.69a5,5,0,0,1-3.54,8.54Z"/><path class="cls-1" d="M136,363.2a51.69,51.69,0,1,1,51.68-51.69A51.75,51.75,0,0,1,136,363.2Zm0-93.37a41.69,41.69,0,1,0,41.68,41.68A41.73,41.73,0,0,0,136,269.83Z"/><path class="cls-1" d="M408.88,283.62a5,5,0,0,1-3.54-8.54L435,245.39a5,5,0,1,1,7.07,7.07l-29.69,29.7A5,5,0,0,1,408.88,283.62Z"/><path class="cls-1" d="M313.42,379.08a5,5,0,0,1-3.53-8.54l29.69-29.7a5,5,0,0,1,7.08,7.08L317,377.61A5,5,0,0,1,313.42,379.08Z"/><path class="cls-1" d="M438.58,379.08a5,5,0,0,1-3.54-1.47l-29.7-29.69a5,5,0,0,1,7.08-7.08l29.69,29.7a5,5,0,0,1-3.53,8.54Z"/><path class="cls-1" d="M343.12,283.62a5,5,0,0,1-3.54-1.46l-29.69-29.7a5,5,0,1,1,7.07-7.07l29.7,29.69a5,5,0,0,1-3.54,8.54Z"/><path class="cls-1" d="M376,363.2a51.69,51.69,0,1,1,51.68-51.69A51.75,51.75,0,0,1,376,363.2Zm0-93.37a41.69,41.69,0,1,0,41.68,41.68A41.73,41.73,0,0,0,376,269.83Z"/><path class="cls-1" d="M168.88,102.62a5,5,0,0,1-3.54-8.54L195,64.39a5,5,0,0,1,7.07,7.07l-29.69,29.7A5,5,0,0,1,168.88,102.62Z"/><path class="cls-1" d="M73.42,198.08a5,5,0,0,1-3.53-8.54l29.69-29.7a5,5,0,1,1,7.08,7.08L77,196.61A5,5,0,0,1,73.42,198.08Z"/><path class="cls-1" d="M198.58,198.08a5,5,0,0,1-3.54-1.47l-29.7-29.69a5,5,0,0,1,7.08-7.08l29.69,29.7a5,5,0,0,1-3.53,8.54Z"/><path class="cls-1" d="M103.12,102.62a5,5,0,0,1-3.54-1.46L69.89,71.46A5,5,0,0,1,77,64.39l29.7,29.69a5,5,0,0,1-3.54,8.54Z"/><path class="cls-1" d="M136,182.2a51.69,51.69,0,1,1,51.68-51.69A51.75,51.75,0,0,1,136,182.2Zm0-93.37a41.69,41.69,0,1,0,41.68,41.68A41.73,41.73,0,0,0,136,88.83Z"/><path class="cls-1" d="M408.88,102.62a5,5,0,0,1-3.54-8.54L435,64.39a5,5,0,1,1,7.07,7.07l-29.69,29.7A5,5,0,0,1,408.88,102.62Z"/><path class="cls-1" d="M313.42,198.08a5,5,0,0,1-3.53-8.54l29.69-29.7a5,5,0,0,1,7.08,7.08L317,196.61A5,5,0,0,1,313.42,198.08Z"/><path class="cls-1" d="M438.58,198.08a5,5,0,0,1-3.54-1.47l-29.7-29.69a5,5,0,0,1,7.08-7.08l29.69,29.7a5,5,0,0,1-3.53,8.54Z"/><path class="cls-1" d="M343.12,102.62a5,5,0,0,1-3.54-1.46l-29.69-29.7A5,5,0,1,1,317,64.39l29.7,29.69a5,5,0,0,1-3.54,8.54Z"/><path class="cls-1" d="M376,182.2a51.69,51.69,0,1,1,51.68-51.69A51.75,51.75,0,0,1,376,182.2Zm0-93.37a41.69,41.69,0,1,0,41.68,41.68A41.73,41.73,0,0,0,376,88.83Z"/><path class="cls-1" d="M376,387.43a75.92,75.92,0,1,1,75.92-75.92A76,76,0,0,1,376,387.43Zm0-141.84a65.92,65.92,0,1,0,65.92,65.92A66,66,0,0,0,376,245.59Z"/><path class="cls-1" d="M376,206.43a75.92,75.92,0,1,1,75.92-75.92A76,76,0,0,1,376,206.43Zm0-141.84a65.92,65.92,0,1,0,65.92,65.92A66,66,0,0,0,376,64.59Z"/><path class="cls-1" d="M136,387.43a75.92,75.92,0,1,1,75.92-75.92A76,76,0,0,1,136,387.43Zm0-141.84a65.92,65.92,0,1,0,65.92,65.92A66,66,0,0,0,136,245.59Z"/><path class="cls-1" d="M136,206.43a75.92,75.92,0,1,1,75.92-75.92A76,76,0,0,1,136,206.43Zm0-141.84a65.92,65.92,0,1,0,65.92,65.92A66,66,0,0,0,136,64.59Z"/><path class="cls-1" d="M465.51,501h-420C27.1,501,11,484.78,11,466.28v-420C11,28.22,26.78,13,45.46,13H465.51A33.4,33.4,0,0,1,499,46.24v420C499,485.1,483.66,501,465.51,501ZM45.46,23C32.2,23,21,33.64,21,46.24v420C21,479.22,32.66,491,45.46,491H465.51C478,491,489,479.45,489,466.28v-420A23.39,23.39,0,0,0,465.51,23Z"/><path class="cls-1" d="M136,335.77a24.26,24.26,0,1,1,24.26-24.26A24.29,24.29,0,0,1,136,335.77Zm0-38.52a14.26,14.26,0,1,0,14.26,14.26A14.28,14.28,0,0,0,136,297.25Z"/><path class="cls-1" d="M376,335.77a24.26,24.26,0,1,1,24.26-24.26A24.29,24.29,0,0,1,376,335.77Zm0-38.52a14.26,14.26,0,1,0,14.26,14.26A14.28,14.28,0,0,0,376,297.25Z"/><path class="cls-1" d="M136,154.77a24.26,24.26,0,1,1,24.26-24.26A24.29,24.29,0,0,1,136,154.77Zm0-38.52a14.26,14.26,0,1,0,14.26,14.26A14.28,14.28,0,0,0,136,116.25Z"/><path class="cls-1" d="M376,154.77a24.26,24.26,0,1,1,24.26-24.26A24.29,24.29,0,0,1,376,154.77Zm0-38.52a14.26,14.26,0,1,0,14.26,14.26A14.28,14.28,0,0,0,376,116.25Z"/></g><g id="Outline"><path class="cls-1" d="M250,365a5,5,0,0,1,5-5h0a5,5,0,0,1,5,5h0a5,5,0,0,1-5,5h0A5,5,0,0,1,250,365Zm0-20a5,5,0,0,1,5-5h0a5,5,0,0,1,5,5h0a5,5,0,0,1-5,5h0A5,5,0,0,1,250,345Zm0-20a5,5,0,0,1,5-5h0a5,5,0,0,1,5,5h0a5,5,0,0,1-5,5h0A5,5,0,0,1,250,325Zm0-20a5,5,0,0,1,5-5h0a5,5,0,0,1,5,5h0a5,5,0,0,1-5,5h0A5,5,0,0,1,250,305Zm0-20a5,5,0,0,1,5-5h0a5,5,0,0,1,5,5h0a5,5,0,0,1-5,5h0A5,5,0,0,1,250,285Zm0-20a5,5,0,0,1,5-5h0a5,5,0,0,1,5,5h0a5,5,0,0,1-5,5h0A5,5,0,0,1,250,265Zm0-20a5,5,0,0,1,5-5h0a5,5,0,0,1,5,5h0a5,5,0,0,1-5,5h0A5,5,0,0,1,250,245Zm0-20a5,5,0,0,1,5-5h0a5,5,0,0,1,5,5h0a5,5,0,0,1-5,5h0A5,5,0,0,1,250,225Zm0-20a5,5,0,0,1,5-5h0a5,5,0,0,1,5,5h0a5,5,0,0,1-5,5h0A5,5,0,0,1,250,205Zm0-20a5,5,0,0,1,5-5h0a5,5,0,0,1,5,5h0a5,5,0,0,1-5,5h0A5,5,0,0,1,250,185Zm0-20a5,5,0,0,1,5-5h0a5,5,0,0,1,5,5h0a5,5,0,0,1-5,5h0A5,5,0,0,1,250,165Zm0-20a5,5,0,0,1,5-5h0a5,5,0,0,1,5,5h0a5,5,0,0,1-5,5h0A5,5,0,0,1,250,145Zm0-20a5,5,0,0,1,5-5h0a5,5,0,0,1,5,5h0a5,5,0,0,1-5,5h0A5,5,0,0,1,250,125Zm0-20a5,5,0,0,1,5-5h0a5,5,0,0,1,5,5h0a5,5,0,0,1-5,5h0A5,5,0,0,1,250,105Zm0-20a5,5,0,0,1,5-5h0a5,5,0,0,1,5,5h0a5,5,0,0,1-5,5h0A5,5,0,0,1,250,85Zm0-20a5,5,0,0,1,5-5h0a5,5,0,0,1,5,5h0a5,5,0,0,1-5,5h0A5,5,0,0,1,250,65Z"/><path class="cls-1" d="M209,430a5,5,0,0,1-5-5v-3a5,5,0,0,1,10,0v3A5,5,0,0,1,209,430Z"/><path class="cls-1" d="M305,430a5,5,0,0,1-5-5v-3a5,5,0,0,1,10,0v3A5,5,0,0,1,305,430Z"/></g></svg>