<?xml version="1.0" ?><svg viewBox="0 0 512 512" xmlns="http://www.w3.org/2000/svg"><defs><style>.cls-1{fill:#3f456b;}</style></defs><title/><g id="Lines"><path class="cls-1" d="M434.09,88.81a5,5,0,0,1-2.58-9.28c13.22-7.94,32.06-4.35,32.85-4.2a5,5,0,0,1-1.92,9.82h0c-.16,0-15.89-3-25.78,2.95A5,5,0,0,1,434.09,88.81Z"/><path class="cls-1" d="M369.41,63.78a5,5,0,0,1-5-4.36c-.43-3.31-2.94-7.31-3.86-8.57a5,5,0,0,1,8-6c.5.67,4.91,6.74,5.76,13.24a5,5,0,0,1-4.31,5.61C369.85,63.76,369.63,63.78,369.41,63.78Z"/><path class="cls-1" d="M448.47,148.93h-125a40.76,40.76,0,0,1-10.2-79.85c-.06-.82-.09-1.64-.09-2.47a31.86,31.86,0,0,1,51-25.45A55.23,55.23,0,0,1,467.31,76.32a37.23,37.23,0,0,1-11.23,72.61Zm-124.7-10H456a27.23,27.23,0,0,0,4.53-54,5,5,0,0,1-3.95-6.17,45.23,45.23,0,0,0-86.08-27.38,5,5,0,0,1-8.54,1.4,21.85,21.85,0,0,0-38.76,13.84,21.56,21.56,0,0,0,.61,5.13,5,5,0,0,1-4.05,6.11,30.75,30.75,0,0,0,4,61.08Z"/><path class="cls-1" d="M345.53,79a5,5,0,0,1-1.56-.25c-11.43-3.75-26.63-.54-26.78-.51a5,5,0,1,1-2.12-9.77c.73-.16,18-3.81,32,.78A5,5,0,0,1,345.53,79Z"/><path class="cls-1" d="M465.38,265a23,23,0,1,1,23-23A23,23,0,0,1,465.38,265Zm0-36a13,13,0,1,0,13,13A13,13,0,0,0,465.38,229Z"/><path class="cls-1" d="M105.72,142.5a23,23,0,1,1,23-23A23,23,0,0,1,105.72,142.5Zm0-36a13,13,0,1,0,13,13A13,13,0,0,0,105.72,106.5Z"/><path class="cls-1" d="M110,396.49A57.74,57.74,0,0,1,91,393.09c-10.43-3.76-24.44-12.43-31.9-32.39a5,5,0,1,1,9.36-3.51c11.63,31.09,41.65,29.36,42.91,29.27a5,5,0,0,1,.75,10C112,396.44,111.25,396.49,110,396.49Z"/><path class="cls-1" d="M17.44,396.49c-1.21,0-1.93-.05-2-.06a5,5,0,0,1,.77-10c1.25.09,31.26,1.82,42.89-29.27a5,5,0,1,1,9.36,3.51C61,380.66,47,389.33,36.53,393.09A57.82,57.82,0,0,1,17.44,396.49Z"/><path class="cls-1" d="M206,396.49a57.77,57.77,0,0,1-19.08-3.4c-10.43-3.76-24.43-12.43-31.9-32.39a5,5,0,0,1,9.37-3.51c11.7,31.29,42.58,29.3,42.89,29.27a5,5,0,1,1,.76,10C207.89,396.44,207.16,396.49,206,396.49Z"/><path class="cls-1" d="M113.36,396.49c-1.22,0-1.94-.05-2-.06a5,5,0,1,1,.75-10c1.3.09,31.28,1.8,42.9-29.27a5,5,0,1,1,9.37,3.51c-7.47,20-21.47,28.63-31.9,32.39A57.77,57.77,0,0,1,113.36,396.49Z"/><path class="cls-1" d="M302.3,396.49a57.77,57.77,0,0,1-19.08-3.4c-10.43-3.76-24.44-12.43-31.9-32.39a5,5,0,1,1,9.36-3.51c11.63,31.09,41.64,29.36,42.91,29.27a5,5,0,0,1,.75,10C304.24,396.44,303.51,396.49,302.3,396.49Z"/><path class="cls-1" d="M209.71,396.49c-1.22,0-1.94-.05-2.05-.06a5,5,0,1,1,.77-10c1.25.09,31.26,1.82,42.89-29.27a5,5,0,1,1,9.36,3.51c-7.46,20-21.46,28.63-31.89,32.39A57.81,57.81,0,0,1,209.71,396.49Z"/><path class="cls-1" d="M398.21,396.49a57.81,57.81,0,0,1-19.08-3.4c-10.43-3.76-24.43-12.43-31.9-32.39a5,5,0,0,1,9.37-3.51c11.63,31.09,41.63,29.36,42.91,29.27a5,5,0,0,1,.74,10C400.15,396.44,399.43,396.49,398.21,396.49Z"/><path class="cls-1" d="M305.62,396.49c-1.21,0-1.94-.05-2-.06a5,5,0,1,1,.75-10c1.29.09,31.28,1.81,42.9-29.27a5,5,0,1,1,9.37,3.51c-7.47,20-21.47,28.63-31.9,32.39A57.77,57.77,0,0,1,305.62,396.49Z"/><path class="cls-1" d="M494.12,396.49a57.81,57.81,0,0,1-19.08-3.4c-10.43-3.76-24.43-12.43-31.89-32.39a5,5,0,1,1,9.36-3.51c11.63,31.09,41.64,29.36,42.91,29.27a5,5,0,0,1,.75,10C496.06,396.44,495.34,396.49,494.12,396.49Z"/><path class="cls-1" d="M401.53,396.49c-1.21,0-1.94-.05-2-.06a5,5,0,0,1,.76-10c1.26.09,31.27,1.82,42.9-29.27a5,5,0,1,1,9.36,3.51c-7.46,20-21.47,28.63-31.9,32.39A57.74,57.74,0,0,1,401.53,396.49Z"/><path class="cls-1" d="M206.17,451.27a57.74,57.74,0,0,1-19.08-3.4c-10.43-3.76-24.44-12.43-31.9-32.39a5,5,0,1,1,9.36-3.5c11.63,31.08,41.64,29.35,42.91,29.26a5,5,0,0,1,.75,10C208.11,451.22,207.38,451.27,206.17,451.27Z"/><path class="cls-1" d="M113.57,451.27c-1.21,0-1.93,0-2-.06a5,5,0,0,1,.77-10c1.25.09,31.26,1.82,42.89-29.26a5,5,0,1,1,9.36,3.5c-7.46,20-21.46,28.63-31.89,32.39A57.82,57.82,0,0,1,113.57,451.27Z"/><path class="cls-1" d="M302.08,451.27a57.77,57.77,0,0,1-19.08-3.4c-10.43-3.76-24.43-12.43-31.9-32.39a5,5,0,1,1,9.37-3.5c11.62,31.08,41.63,29.35,42.91,29.26a5,5,0,0,1,.74,10C304,451.22,303.29,451.27,302.08,451.27Z"/><path class="cls-1" d="M209.49,451.27c-1.22,0-1.94,0-2-.06a5,5,0,0,1,.75-10c1.3.09,31.28,1.8,42.9-29.26a5,5,0,1,1,9.37,3.5c-7.47,20-21.47,28.63-31.9,32.39A57.77,57.77,0,0,1,209.49,451.27Z"/><path class="cls-1" d="M398.43,451.27a57.77,57.77,0,0,1-19.08-3.4c-10.43-3.76-24.43-12.43-31.9-32.39a5,5,0,1,1,9.37-3.5c11.7,31.28,42.57,29.29,42.89,29.26a5,5,0,0,1,.76,10C400.37,451.22,399.64,451.27,398.43,451.27Z"/><path class="cls-1" d="M305.84,451.27c-1.22,0-1.94,0-2-.06a5,5,0,0,1,.77-10c1.26.09,31.26,1.82,42.89-29.26a5,5,0,1,1,9.37,3.5c-7.47,20-21.47,28.63-31.9,32.39A57.81,57.81,0,0,1,305.84,451.27Z"/><path class="cls-1" d="M371,388.36a5,5,0,0,1-1.42-9.8,181.38,181.38,0,0,0,38.06-16.17A222.43,222.43,0,0,0,432.33,346c15.26-11.67,30.09-25.8,45.29-43.15-238.34,1.44-411.49,20.43-440,23.75-1,25.53,6,43,12.28,53.26a5,5,0,1,1-8.54,5.2c-7.37-12.08-15.7-32.87-13.48-63.29a5,5,0,0,1,4.37-4.6c1.87-.23,189.94-23.38,456.25-24.37h0a5,5,0,0,1,4,7.94c-1.45,2-4.24,5.13-5.75,6.82-.28.32-.5.56-.62.71-16,18.39-31.63,33.33-47.77,45.67a229,229,0,0,1-25.78,17.18,191.63,191.63,0,0,1-40.16,17.08A5.1,5.1,0,0,1,371,388.36Z"/><path class="cls-1" d="M168.25,313.1a5.07,5.07,0,0,1-.94-.09,5,5,0,0,1-4-5.84,530.66,530.66,0,0,1,17-65.55,5,5,0,0,1,4.39-3.35c.78-.06,78.49-5.28,148.72-6,30.12-.35,60.64,10.39,88.35,30.95,20.83,15.47,32.65,30.88,33.14,31.52a5,5,0,1,1-8,6.06h0c-.45-.59-45.42-58.54-112.2-58.54H333.6c-61.67.65-129.17,4.77-144.8,5.78a525.35,525.35,0,0,0-15.64,61A5,5,0,0,1,168.25,313.1Z"/><path class="cls-1" d="M49.46,324.15a5,5,0,0,1-5-4.46l-1.94-17.77a5,5,0,1,1,9.94-1.09l1.94,17.77A5,5,0,0,1,50,324.12Z"/><path class="cls-1" d="M73.67,322.08a5,5,0,0,1-5-4.46l-1.93-17.77a5,5,0,0,1,9.94-1.08l1.94,17.77a5,5,0,0,1-4.43,5.52A5.15,5.15,0,0,1,73.67,322.08Z"/><path class="cls-1" d="M26.27,308.11a15,15,0,0,1-14.93-13.63L7.28,250.19a15,15,0,0,1,13.56-16.31l59.75-5.48A15,15,0,0,1,96.9,242L101,286.25A15.05,15.05,0,0,1,87.4,302.56L27.65,308A12.75,12.75,0,0,1,26.27,308.11ZM82,238.33l-.46,0-59.74,5.49a5,5,0,0,0-4.53,5.44l4.07,44.28a5,5,0,0,0,5.44,4.53l59.75-5.49h0A5,5,0,0,0,91,287.16l-4.07-44.28a5,5,0,0,0-5-4.55Z"/><path class="cls-1" d="M218.33,284.33a5,5,0,0,1-5-5v-38a5,5,0,0,1,10,0V274c22-1.58,108.09-7.15,202.76-5.35a5,5,0,1,1-.18,10c-108.8-2.06-206.2,5.65-207.18,5.73Z"/><path class="cls-1" d="M185.22,221.57a5,5,0,0,1-5-4.45c-.06-.51-1.28-12.49,6.16-21.05,4.47-5.14,10.91-7.88,19.13-8.12l116.82-3.51c8.23-.24,14.8,2.1,19.58,7,7.93,8.09,7.43,20.12,7.41,20.63a5,5,0,0,1-4.85,4.75l-159.13,4.78Zm159.13-9.78h0Zm0,0h0ZM323.5,194.42l-.84,0-116.82,3.5c-5.29.16-9.28,1.72-11.85,4.65a16.81,16.81,0,0,0-3.64,8.82L338.92,207a16.71,16.71,0,0,0-4.16-8.58C332.17,195.75,328.38,194.42,323.5,194.42Z"/><path class="cls-1" d="M206.51,246.28h-.41a5,5,0,0,1-4.58-5.39l2-24.71a5,5,0,1,1,10,.8l-2,24.72A5,5,0,0,1,206.51,246.28Z"/><path class="cls-1" d="M326.49,242.24a5,5,0,0,1-4.91-4.14l-4.34-24.78a5,5,0,1,1,9.85-1.72l4.33,24.78a5,5,0,0,1-4.06,5.79A5.1,5.1,0,0,1,326.49,242.24Z"/><path class="cls-1" d="M246.58,244.5a5,5,0,0,1-5-5V214.65a5,5,0,0,1,10,0V239.5A5,5,0,0,1,246.58,244.5Z"/><path class="cls-1" d="M286.17,243.31a5,5,0,0,1-5-4.69l-1.53-24.73a5,5,0,1,1,10-.61L291.17,238a5,5,0,0,1-4.69,5.3Z"/><path class="cls-1" d="M267,281.33h0a5,5,0,0,1-5-5c0-16.56-1.24-36.77-1.25-37a5,5,0,1,1,10-.62c0,.21,1.28,20.71,1.27,37.59A5,5,0,0,1,267,281.33Z"/><path class="cls-1" d="M312.25,278.6h-.18a5,5,0,0,1-4.82-5.17c.48-13.28-2.72-34.8-2.75-35a5,5,0,0,1,9.89-1.48c.14.92,3.37,22.65,2.86,36.85A5,5,0,0,1,312.25,278.6Z"/><path class="cls-1" d="M366.5,278.3a5,5,0,0,1-5-4.65C360,252.13,342.72,242.46,342,242.06a5,5,0,0,1,4.75-8.81c.93.5,22.84,12.55,24.76,39.69a5,5,0,0,1-4.64,5.34Z"/><path class="cls-1" d="M33.77,348.91a5,5,0,0,1-.58-10C35.6,338.66,275.83,311,460.82,323a5,5,0,1,1-.64,10c-184.1-12-423.43,15.58-425.83,15.86A5.63,5.63,0,0,1,33.77,348.91Z"/><path class="cls-1" d="M59.83,480.82a23,23,0,1,1,23-23A23,23,0,0,1,59.83,480.82Zm0-36a13,13,0,1,0,13,13A13,13,0,0,0,59.83,444.82Z"/><path class="cls-1" d="M110.22,319.28a5,5,0,0,1-5-4.37A188.17,188.17,0,0,1,104,294c0-11.22,8.65-15.55,14.53-15.75l55.75-3.33a5,5,0,1,1,.59,10l-55.82,3.34h-.17c-1.78.1-4.88,1-4.88,5.75a181,181,0,0,0,1.19,19.66,5,5,0,0,1-4.34,5.58A4.44,4.44,0,0,1,110.22,319.28Z"/><path class="cls-1" d="M143,316a5,5,0,0,1-5-4.79l-1.21-29a5,5,0,0,1,10-.42l1.22,29a5,5,0,0,1-4.79,5.21Z"/></g><g id="Outline"><path class="cls-1" d="M240.88,76.52a5,5,0,0,1-4.9-4c-3.47-17.68-23.23-14.07-24.07-13.91A5,5,0,0,1,210,48.77a40.66,40.66,0,0,1,15.37.43,26.07,26.07,0,0,1,15.6,10c4.94-6.74,13.84-13,28.47-13a5,5,0,0,1,0,10c-20.3,0-23.36,14.47-23.64,16.12A5,5,0,0,1,241,76.52Z"/><path class="cls-1" d="M119.77,210.81a5,5,0,0,1-4.7-3.3c-6-16.52-23.9-10.78-25.92-10.07A5,5,0,0,1,85.79,188a40.54,40.54,0,0,1,15.26-1.92A26.05,26.05,0,0,1,118,193.58c3.86-7.42,11.7-14.92,26.16-17.15a5,5,0,1,1,1.53,9.88c-20.68,3.19-20.91,18.83-20.91,19.5a5,5,0,0,1-4.14,4.93A5.07,5.07,0,0,1,119.77,210.81Z"/><path class="cls-1" d="M79.17,301.28a5,5,0,0,1-5-4.51L71,264a5,5,0,1,1,10-1l3.21,32.75a5,5,0,0,1-4.49,5.46Z"/><path class="cls-1" d="M37.41,305.37a5,5,0,0,1-5-4.52l-3.2-32.75a5,5,0,1,1,10-1l3.2,32.75a5,5,0,0,1-4.49,5.46A4,4,0,0,1,37.41,305.37Z"/><path class="cls-1" d="M57.86,303.37a5,5,0,0,1-5-4.52l-3.2-32.75a5,5,0,1,1,10-1l3.2,32.75a5,5,0,0,1-4.49,5.46A4,4,0,0,1,57.86,303.37Z"/></g></svg>