<?xml version="1.0" ?><svg id="Lines" viewBox="0 0 512 512" xmlns="http://www.w3.org/2000/svg"><defs><style>.cls-1{fill:#3f456b;}</style></defs><title/><path class="cls-1" d="M448.22,454.74H162.28a4.77,4.77,0,0,1-.76-.06,92.1,92.1,0,0,1-32.15-12.84c-15.09-9.58-33.87-28-37.58-61.41-2.47-22.23,4.65-56.12,32-84.56,23-23.93,67.75-51.2,150-45.24,1.81.12,45.89,3.18,95.59,26.7a5,5,0,0,1-4.27,9c-48-22.71-91.56-25.73-92-25.76C194.7,254.92,152.57,280.41,131,302.8c-25,26-31.51,56.55-29.29,76.52,2.63,23.65,13.73,41.85,33,54.08a83.83,83.83,0,0,0,28,11.34H448.22c12.15,0,20.63-5.31,24.54-15.36,11.16-28.74-16.13-74.09-48.86-104-1.79-1.63-3.62-3.26-5.46-4.82a5,5,0,0,1,6.5-7.61c1.92,1.64,3.84,3.34,5.71,5.05,21.46,19.63,37.58,41.33,46.63,62.76,8.43,20,10.13,38.53,4.8,52.26C476.63,447,464.61,454.74,448.22,454.74Z"/><path class="cls-1" d="M270.51,453.84a5,5,0,0,1-5-5v-8.06a11.11,11.11,0,0,0-3.68-8.45c-9.14-8.65-32.19-9.39-40.3-8.95a5,5,0,1,1-.56-10c22.84-1.32,30.93-16.12,33.72-24.82,5.48-17.07-.11-37.17-13.29-47.8-25.16-20.29-54.65-8.36-55-8.24a5,5,0,0,1-3.84-9.23c1.43-.59,35.33-14.3,65.07,9.68,16.27,13.13,23.23,37.79,16.53,58.65a44.18,44.18,0,0,1-17.34,23.67c8.1,1.63,16.34,4.56,21.83,9.76a20.91,20.91,0,0,1,6.81,15.71v8.06A5,5,0,0,1,270.51,453.84Z"/><path class="cls-1" d="M393.22,453.84a5,5,0,0,1-5-5v-8.06a13.61,13.61,0,0,0-4.75-10.8c-10.86-9.6-37.58-8.69-47-7.52a5,5,0,0,1-1.23-9.93c1.55-.19,38.32-4.6,54.8,10a23.41,23.41,0,0,1,8.14,18.3v8.06A5,5,0,0,1,393.22,453.84Z"/><path class="cls-1" d="M406.65,324a44.06,44.06,0,0,1-5.51-.34,5,5,0,1,1,1.25-9.92,35.69,35.69,0,0,0,4.26.26c19,0,34.41-15.84,34.41-35.3s-15.44-35.31-34.41-35.31-34.41,15.84-34.41,35.31a36.08,36.08,0,0,0,4.18,16.87,5,5,0,1,1-8.83,4.7,46.08,46.08,0,0,1-5.35-21.57c0-25,19.93-45.31,44.41-45.31s44.41,20.33,44.41,45.31S431.14,324,406.65,324Z"/><path class="cls-1" d="M426.3,386.88a5,5,0,0,1-2.33-.58l-.79-.42a5,5,0,1,1,4.67-8.84l.79.42a5,5,0,0,1-2.34,9.42Z"/><path class="cls-1" d="M125.48,484C92.74,484,68.34,479.36,51,469.8c-14.7-8.1-23.55-21.48-24.27-36.69C26,416.43,34.64,400.22,50,389.74c12.36-8.45,28.67-13.88,45.92-15.3a5,5,0,0,1,.82,10c-15.55,1.28-30.15,6.1-41.1,13.59-12.27,8.38-19.51,21.65-18.89,34.63.56,11.84,7.35,21.93,19.11,28.42,16.47,9.09,40.55,13.34,73.6,12.95H296.5a5,5,0,0,1,0,10h-167Z"/><path class="cls-1" d="M480,103.46H32a5,5,0,0,1-5-5V31a5,5,0,0,1,5-5H480a5,5,0,0,1,5,5V98.46A5,5,0,0,1,480,103.46Zm-443-10H475V36H37Z"/><path class="cls-1" d="M480,196.73H32a5,5,0,0,1-5-5V124.27a5,5,0,0,1,5-5H480a5,5,0,0,1,5,5v67.46A5,5,0,0,1,480,196.73Zm-443-10H475V129.27H37Z"/><path class="cls-1" d="M480,290H446.06a5,5,0,1,1,0-10H475V222.54H37V280H142a5,5,0,0,1,0,10H32a5,5,0,0,1-5-5V217.54a5,5,0,0,1,5-5H480a5,5,0,0,1,5,5V285A5,5,0,0,1,480,290Z"/><path class="cls-1" d="M54,71a5,5,0,0,1-5-5V64a5,5,0,0,1,10,0v2A5,5,0,0,1,54,71Z"/><path class="cls-1" d="M457,71a5,5,0,0,1-5-5V64a5,5,0,0,1,10,0v2A5,5,0,0,1,457,71Z"/><path class="cls-1" d="M54,165a5,5,0,0,1-5-5v-2a5,5,0,0,1,10,0v2A5,5,0,0,1,54,165Z"/><path class="cls-1" d="M457,165a5,5,0,0,1-5-5v-2a5,5,0,0,1,10,0v2A5,5,0,0,1,457,165Z"/><path class="cls-1" d="M54,258a5,5,0,0,1-5-5v-2a5,5,0,0,1,10,0v2A5,5,0,0,1,54,258Z"/><path class="cls-1" d="M457,258a5,5,0,0,1-5-5v-2a5,5,0,0,1,10,0v2A5,5,0,0,1,457,258Z"/></svg>