<?xml version="1.0" ?><svg viewBox="0 0 512 512" xmlns="http://www.w3.org/2000/svg"><defs><style>.cls-1{fill:#3f456b;}</style></defs><title/><g id="Lines"><path class="cls-1" d="M294,500H26a15,15,0,0,1-15-15V340.43a15,15,0,0,1,15-15H294a15,15,0,0,1,15,15V485A15,15,0,0,1,294,500ZM26,335.43a5,5,0,0,0-5,5V485a5,5,0,0,0,5,5H294a5,5,0,0,0,5-5V340.43a5,5,0,0,0-5-5Z"/><path class="cls-1" d="M290.29,335.43a5,5,0,0,1-5-5V311.57a3.58,3.58,0,0,0-3.58-3.57H38.29a3.58,3.58,0,0,0-3.58,3.57v18.86a5,5,0,0,1-10,0V311.57A13.59,13.59,0,0,1,38.29,298H281.71a13.59,13.59,0,0,1,13.58,13.57v18.86A5,5,0,0,1,290.29,335.43Z"/><path class="cls-1" d="M271.86,308a4.75,4.75,0,0,1-1.28-.17,5,5,0,0,1-3.56-6.1c4.19-15.91,2.62-29.15-4.68-39.33-10.46-14.6-30.21-20.06-40.76-22a22.46,22.46,0,0,1-4.17,16.15c-7.59,10.45-22.71,14.31-34.35,13.49-7.72-.54-15.11-2.46-22.24-4.32-3.85-1-7.82-2-11.7-2.81a192,192,0,0,0-34.61-3.78c-21.65-.28-37.88,4.89-48.2,15.35a42.67,42.67,0,0,0-11.88,28.36,5,5,0,0,1-10,.32,52.12,52.12,0,0,1,14.62-35.56c12.3-12.57,31-18.79,55.58-18.47a201.3,201.3,0,0,1,36.44,4c4.16.82,8.28,1.89,12.27,2.93,7,1.83,13.62,3.55,20.42,4,10.34.72,21.08-3.23,25.55-9.39,2.87-4,3.18-8.8.91-14.38a5,5,0,0,1,5-6.87c1.53.11,37.9,2.91,55.26,27.13,9.12,12.73,11.21,28.78,6.22,47.7A5,5,0,0,1,271.86,308Z"/><path class="cls-1" d="M274,472H48a5,5,0,0,1-5-5V361a5,5,0,0,1,5-5H274a5,5,0,0,1,5,5V467A5,5,0,0,1,274,472ZM53,462H269V366H53Z"/><path class="cls-1" d="M166.34,438.75a31.12,31.12,0,0,1-8.23-1.11c-6.85-1.85-12.18-6-17.34-10-6.28-4.86-11.71-9.06-18.84-8.51-10.09.77-16.07,10.19-18.74,15.74a5,5,0,0,1-9-4.33c6.22-12.94,15.81-20.53,27-21.38,11-.83,18.8,5.22,25.71,10.57,4.59,3.54,8.92,6.89,13.84,8.22a21.06,21.06,0,0,0,12.95-.49,35.82,35.82,0,0,1-3.32-3.06c-6.6-7-8.91-15.76-6.32-24.12,2.95-9.55,9.24-15.7,17.23-16.88a17.86,17.86,0,0,1,17.53,7.8c5.06,7.48,4.5,17.68-1.53,28a45.47,45.47,0,0,1-4.68,6.61c7.47,2,17,2.41,28.12-.39a5,5,0,1,1,2.45,9.69c-14.12,3.56-28.16,2.79-39.22-1.7A32.54,32.54,0,0,1,166.34,438.75Zm17.54-45.51a7.52,7.52,0,0,0-1.15.09c-4,.6-7.38,4.22-9.15,9.94-1.51,4.88-.08,10,4,14.29a26,26,0,0,0,5.16,4.12,34.86,34.86,0,0,0,5.86-7.49c4-6.86,4.69-13.18,1.88-17.35A8,8,0,0,0,183.88,393.24Z"/><g data-name="&lt;编组&gt;" id="_编组_"><path class="cls-1" d="M464.59,284.47a3.77,3.77,0,0,1-.58,0l-.78-.09a5,5,0,0,1-3.35-1.88,5,5,0,0,1-1-3.71,155,155,0,0,0,1.21-19.43L460,212.4a5,5,0,0,1,5-5h3.29a4.8,4.8,0,0,1,.85.07c19.07,3.2,32.92,19.29,32.92,38.26,0,20.42-16.29,37.45-37.09,38.75ZM470,217.85l.09,41.46c0,4.81-.2,9.63-.62,14.4,13-3.11,22.56-14.57,22.56-28A28.9,28.9,0,0,0,470,217.85Z"/><path class="cls-1" d="M304.5,425a5,5,0,0,1,0-10,155.2,155.2,0,0,0,130.25-70.49h0a.61.61,0,0,0,.07-.1,153.57,153.57,0,0,0,24-65.65,155.27,155.27,0,0,0,1.21-19.44l-.1-49.56c0-3.65.05-7.65.11-11.87.5-38.76,1.25-97.34-33.33-104.49a5,5,0,0,1,2-9.8c18.91,3.92,31.43,19.63,37.2,46.71,4.68,22,4.36,47.32,4.1,67.71-.06,4.19-.11,8.15-.11,11.74v2.63l.1,46.92a165.6,165.6,0,0,1-26.89,90.6h0l-.06.09A165.2,165.2,0,0,1,304.5,425Z"/><path class="cls-1" d="M144,261.49a5,5,0,0,1-5-5V209.76c0-23.62.79-46.06.84-47.68,0-47.77,22.7-89.76,63.83-118.27A190.92,190.92,0,0,1,283,12.58c28.56-4.42,55.79-2.2,78.76,6.41,32.45,12.17,54.36,30.47,65.1,54.38,14.53,32.32,3.13,62.79,2.63,64.07a5,5,0,0,1-9.33-3.58h0c.1-.28,10.39-28.05-2.47-56.52C408,56,388,39.53,358.22,28.35c-43.8-16.42-105-6.69-148.82,23.68-38.39,26.6-59.53,65.72-59.53,110.14v.18c0,.23-.84,23.2-.84,47.41v46.73A5,5,0,0,1,144,261.49Z"/><path class="cls-1" d="M144,260.33a5,5,0,0,1-5-5V218.06a28.87,28.87,0,0,0-21.22,27.65,28.22,28.22,0,0,0,.77,6.56,5,5,0,1,1-9.73,2.33,38.45,38.45,0,0,1-1-8.89c0-19,13.84-35.06,32.92-38.26a4.57,4.57,0,0,1,.83-.07H144a5,5,0,0,1,5,5v43A5,5,0,0,1,144,260.33Z"/></g><path class="cls-1" d="M465.06,240.1H424.81a5,5,0,0,1-5-5V169.49c-107.67,16.51-206.47,3.76-231.15,0V235.1a5,5,0,0,1-5,5H144.4a5,5,0,0,1,0-10h34.26V163.64a5,5,0,0,1,5.88-4.92c1.14.2,115.12,20.23,239.46,0a5,5,0,0,1,5.81,4.93V230.1h35.25a5,5,0,0,1,0,10Z"/></g><g id="Outline"><path class="cls-1" d="M366.44,175.54a5.06,5.06,0,0,1-1.82-.34,5,5,0,0,1-2.83-6.48c18.36-46.86,19.41-87,3-116.14-12.29-21.87-30.29-30.15-30.47-30.23a5,5,0,0,1,4.06-9.14c.84.37,20.82,9.42,34.8,33.89,8.15,14.27,12.58,30.84,13.17,49.26.72,22.69-4.43,48.26-15.3,76A5,5,0,0,1,366.44,175.54Z"/><path class="cls-1" d="M309.88,177.8a5,5,0,0,1-4.64-6.86c18.88-47.31,21.14-84.89,6.72-111.68-14.84-27.57-42.58-33.58-42.86-33.64a5,5,0,1,1,2-9.79c1.32.27,32.62,7,49.64,38.69,15.89,29.52,13.8,69.94-6.23,120.13A5,5,0,0,1,309.88,177.8Z"/><path class="cls-1" d="M255.37,176a5,5,0,0,1-4.69-6.74c13.55-36.63,14.43-66.26,2.61-88.09C240,56.71,214.75,50.71,214.5,50.65a5,5,0,0,1,2.18-9.76c1.21.27,29.81,6.92,45.32,35.37,13.34,24.48,12.69,56.94-1.94,96.48A5,5,0,0,1,255.37,176Z"/><path class="cls-1" d="M203.81,171.59a5.15,5.15,0,0,1-1.5-.23,5,5,0,0,1-3.27-6.27c8.41-26.72,8-47-1.28-60.3-10.19-14.66-27.91-15.71-28.09-15.72a5,5,0,0,1,.5-10c.93,0,22.83,1.34,35.8,20,11.12,16,12,39.19,2.61,69A5,5,0,0,1,203.81,171.59Z"/><path class="cls-1" d="M114.92,130H88a5,5,0,0,1,0-10h26.92a5,5,0,1,1,0,10Z"/><path class="cls-1" d="M144.52,58.52A5,5,0,0,1,141,57.06L122,38A5,5,0,0,1,129,31l19,19a5,5,0,0,1-3.54,8.53Z"/><path class="cls-1" d="M177.8,36.89a5,5,0,0,1-4.63-3.11l-5.94-14.56a5,5,0,0,1,9.27-3.77L182.43,30a5,5,0,0,1-4.63,6.89Z"/><path class="cls-1" d="M106.64,174.58a5,5,0,0,1-1.89-9.63l15.92-6.48a5,5,0,0,1,3.77,9.26l-15.92,6.48A5,5,0,0,1,106.64,174.58Z"/><path class="cls-1" d="M122.53,91.05a5.17,5.17,0,0,1-1.94-.39l-14.48-6.1A5,5,0,1,1,110,75.34l14.48,6.1a5,5,0,0,1-1.94,9.61Z"/></g></svg>