<?xml version="1.0" ?><svg enable-background="new 0 0 512 512" version="1.1" viewBox="0 0 512 512" xml:space="preserve" xmlns="http://www.w3.org/2000/svg" xmlns:xlink="http://www.w3.org/1999/xlink"><g id="Lines"><g><g><g><g><g><path d="M459.994,140.001c-2.479,0-4.63-1.842-4.953-4.364c-0.066-0.502-5.924-43.072-33.508-45.658        c-2.509-0.235-4.451-2.302-4.53-4.82c-0.08-2.52,1.728-4.704,4.217-5.097C422.58,79.835,455,73.958,455,32        c0-2.762,2.238-5,5-5s5,2.238,5,5c0,26.302-11.384,40.661-20.934,48.074c-2.355,1.828-4.712,3.33-6.955,4.562        c8.325,4.759,15.26,12.999,20.442,24.424c5.745,12.665,7.341,24.797,7.406,25.308c0.35,2.739-1.588,5.243-4.327,5.593        C460.418,139.987,460.205,140.001,459.994,140.001z" fill="#3F456B"/></g></g><g><g><path d="M460.006,140.001c-0.211,0-0.424-0.014-0.639-0.041c-2.739-0.35-4.677-2.854-4.327-5.593        c0.065-0.511,1.661-12.643,7.406-25.308c5.183-11.425,12.117-19.665,20.442-24.424c-2.243-1.231-4.6-2.733-6.955-4.562        C466.384,72.661,455,58.302,455,32c0-2.762,2.238-5,5-5s5,2.238,5,5c0,17.867,5.742,31.384,17.066,40.176        c8.253,6.407,16.631,7.872,16.714,7.886c2.489,0.393,4.297,2.577,4.217,5.097c-0.079,2.519-2.021,4.585-4.53,4.82        c-27.693,2.596-33.452,45.225-33.507,45.654C464.638,138.157,462.485,140.001,460.006,140.001z" fill="#3F456B"/></g></g></g></g><g><g><g><g><path d="M52.994,499.001c-2.479,0-4.63-1.842-4.953-4.364c-0.066-0.502-5.924-43.072-33.508-45.658        c-2.509-0.235-4.451-2.302-4.53-4.82c-0.08-2.52,1.728-4.704,4.217-5.097C15.58,438.835,48,432.958,48,391        c0-2.762,2.238-5,5-5s5,2.238,5,5c0,26.302-11.384,40.661-20.934,48.074c-2.355,1.828-4.712,3.33-6.955,4.562        c8.325,4.759,15.26,12.999,20.442,24.424c5.745,12.665,7.341,24.797,7.406,25.308c0.35,2.739-1.588,5.243-4.327,5.593        C53.418,498.987,53.205,499.001,52.994,499.001z" fill="#3F456B"/></g></g><g><g><path d="M53.006,499.001c-0.211,0-0.424-0.014-0.639-0.041c-2.739-0.35-4.677-2.854-4.327-5.593        c0.065-0.511,1.661-12.643,7.406-25.308c5.183-11.425,12.117-19.665,20.442-24.424c-2.243-1.231-4.6-2.733-6.955-4.562        C59.384,431.661,48,417.302,48,391c0-2.762,2.238-5,5-5s5,2.238,5,5c0,17.867,5.742,31.384,17.066,40.176        c8.253,6.407,16.631,7.872,16.714,7.886c2.489,0.393,4.297,2.577,4.217,5.097c-0.079,2.519-2.021,4.585-4.53,4.82        c-27.693,2.596-33.452,45.225-33.507,45.654C57.638,497.157,55.485,499.001,53.006,499.001z" fill="#3F456B"/></g></g></g></g><g><g><path d="M153,135h-51c-2.762,0-5-2.238-5-5s2.238-5,5-5h51c2.762,0,5,2.238,5,5S155.762,135,153,135z" fill="#3F456B"/></g></g><g><g><path d="M42.757,264.826c-1.499,0-2.981-0.671-3.966-1.95c-1.685-2.188-1.276-5.328,0.912-7.012l45.247-34.826      c2.189-1.687,5.328-1.276,7.012,0.912c1.685,2.188,1.276,5.328-0.912,7.012l-45.247,34.826      C44.894,264.488,43.821,264.826,42.757,264.826z" fill="#3F456B"/></g></g><g><g><path d="M207,117h-51c-2.762,0-5-2.238-5-5s2.238-5,5-5h51c2.762,0,5,2.238,5,5S209.762,117,207,117z" fill="#3F456B"/></g></g><g><g><path d="M262,141h-51c-2.762,0-5-2.238-5-5s2.238-5,5-5h51c2.762,0,5,2.238,5,5S264.762,141,262,141z" fill="#3F456B"/></g></g><g id="XMLID_8_"><g><g><path d="M102.585,246.581c-2.762,0-5-2.238-5-5v-0.067L95.993,59.516c0-15.738,14.361-28.507,32.014-28.507       c17.637,0,31.985,12.813,31.985,28.563c0,2.762-2.238,5-5,5s-5-2.238-5-5c0-10.236-9.862-18.563-21.985-18.563       c-12.139,0-22.014,8.282-22.014,18.463l1.592,181.998c0,0.015,0,0.097,0,0.111       C107.585,244.343,105.347,246.581,102.585,246.581z" fill="#3F456B"/></g><g><path d="M154.992,198.349c-2.762,0-5-2.238-5-5V40.998c0-15.69,14.356-28.455,32.004-28.455       S214,25.36,214,41.115v24.012c0,2.762-2.238,5-5,5s-5-2.238-5-5V41.115c0-10.241-9.871-18.572-22.004-18.572       s-22.004,8.279-22.004,18.455v152.351C159.992,196.11,157.754,198.349,154.992,198.349z" fill="#3F456B"/></g><g><path d="M209,198.349c-2.762,0-5-2.238-5-5V65.127c0-15.695,14.356-28.464,32.004-28.464       c17.652,0,32.014,12.822,32.014,28.582v52.252c0,2.762-2.238,5-5,5s-5-2.238-5-5V65.245c0-10.246-9.875-18.582-22.014-18.582       c-12.133,0-22.004,8.283-22.004,18.464v128.222C214,196.11,211.762,198.349,209,198.349z" fill="#3F456B"/></g><g><path d="M262.999,438.003h-125c-6.385,0-11.474-1.974-15.124-5.865c-5.48-5.841-5.426-13.706-5.355-15.268       v-43.576c-25.4-33.167-54.547-74.229-54.842-74.646c-0.029-0.041-0.058-0.083-0.086-0.125l-46.91-70.567       c-0.145-0.218-0.272-0.447-0.382-0.686c-7.546-16.475-2.847-32.393,11.972-40.553c16.766-9.209,36.549-3.201,48.203,14.596       l28.713,35.041c8.417-0.592,32.372-0.691,49.351,14.892c12.059,11.066,17.932,27.508,17.457,48.868       c-0.061,2.723-2.287,4.889-4.997,4.889c-0.037,0-0.075,0-0.113-0.001c-2.761-0.062-4.949-2.35-4.888-5.11       c0.408-18.355-4.376-32.244-14.22-41.278c-15.971-14.656-40.87-12.432-43.653-12.129l-0.499,0.059       c-1.711,0.21-3.398-0.465-4.486-1.793l-30.572-37.311c-0.119-0.145-0.229-0.296-0.331-0.453       c-7.319-11.315-21.025-19.264-35.145-11.506c-10.074,5.548-12.998,15.728-7.856,27.278l46.643,70.165       c1.307,1.84,30.539,42.976,55.608,75.629c0.671,0.873,1.034,1.943,1.034,3.045v45.401c0,0.106-0.003,0.213-0.01,0.318       c-0.001,0.013-0.205,4.974,2.697,8.021c1.709,1.793,4.258,2.665,7.792,2.665h125c5.428,0,9.02-1.404,10.677-4.175       c1.419-2.368,4.486-3.139,6.858-1.724c2.369,1.418,3.141,4.488,1.724,6.858C279.79,433.087,274.445,438.003,262.999,438.003z" fill="#3F456B"/></g></g></g><g><g><path d="M240,377H123c-2.762,0-5-2.238-5-5s2.238-5,5-5h117c2.762,0,5,2.238,5,5S242.762,377,240,377z" fill="#3F456B"/></g></g><g><g><path d="M253,398h-10c-2.762,0-5-2.238-5-5s2.238-5,5-5h10c2.762,0,5,2.238,5,5S255.762,398,253,398z M223,398      h-10c-2.762,0-5-2.238-5-5s2.238-5,5-5h10c2.762,0,5,2.238,5,5S225.762,398,223,398z M193,398h-10c-2.762,0-5-2.238-5-5      s2.238-5,5-5h10c2.762,0,5,2.238,5,5S195.762,398,193,398z M163,398h-10c-2.762,0-5-2.238-5-5s2.238-5,5-5h10      c2.762,0,5,2.238,5,5S165.762,398,163,398z M133,398h-10c-2.762,0-5-2.238-5-5s2.238-5,5-5h10c2.762,0,5,2.238,5,5      S135.762,398,133,398z" fill="#3F456B"/></g></g><g><g><path d="M213.048,358.113c-1.735,0-3.493-0.039-5.271-0.118C204.267,357.881,161,355.289,161,300      c0-2.762,2.238-5,5-5s5,2.238,5,5c0,20.15,6.281,34.331,18.668,42.146C198.693,347.841,207.909,348,208,348      c0.074,0,0.148,0.002,0.223,0.005c5.513,0.243,10.802,0.075,15.716-0.506c2.748-0.322,5.229,1.637,5.553,4.379      c0.323,2.742-1.637,5.229-4.379,5.553C221.263,357.885,217.222,358.113,213.048,358.113z" fill="#3F456B"/></g></g><g><g><path d="M127,248.16c-2.762,0-5-2.238-5-5v-7.924c-0.168-1.969-0.529-10.586,5.155-16.937      c3.741-4.181,9.072-6.3,15.845-6.3h119c2.762,0,5,2.238,5,5s-2.238,5-5,5H143c-3.86,0-6.605,0.971-8.394,2.969      c-3.142,3.51-2.644,9.421-2.637,9.479c0.021,0.183,0.03,0.367,0.03,0.552v8.16C132,245.922,129.762,248.16,127,248.16z" fill="#3F456B"/></g></g><g><g><path d="M154.988,166.5H102c-2.762,0-5-2.238-5-5s2.238-5,5-5h52.988c2.762,0,5,2.238,5,5      S157.75,166.5,154.988,166.5z" fill="#3F456B"/></g></g><g><g><path d="M207.988,148.5H155c-2.762,0-5-2.238-5-5s2.238-5,5-5h52.988c2.762,0,5,2.238,5,5      S210.75,148.5,207.988,148.5z" fill="#3F456B"/></g></g><g><g><path d="M262.988,172.5H210c-2.762,0-5-2.238-5-5s2.238-5,5-5h52.988c2.762,0,5,2.238,5,5      S265.75,172.5,262.988,172.5z" fill="#3F456B"/></g></g><g><g><path d="M100.022,346.654c-1.733,0-3.418-0.902-4.343-2.514c-1.373-2.396-0.545-5.451,1.851-6.825      c3.895-2.232,6.202-5.307,7.056-9.397c2.622-12.577-8.926-31.646-13.598-37.934l-31.055-43.408      c-1.606-2.246-1.089-5.369,1.157-6.976c2.248-1.606,5.37-1.087,6.976,1.157l31,43.333c0.738,0.989,19.377,26.29,15.312,45.851      c-1.446,6.961-5.441,12.36-11.874,16.05C101.721,346.44,100.865,346.654,100.022,346.654z" fill="#3F456B"/></g></g><g><g><path d="M143.838,203.001c-1.759,0-3.464-0.929-4.377-2.575c-1.34-2.415-0.468-5.458,1.946-6.798      c0.601-0.334,14.873-8.073,28.208,0.11c2.354,1.444,3.091,4.523,1.646,6.877s-4.521,3.092-6.877,1.646      c-8.415-5.166-18.03,0.058-18.126,0.11C145.49,202.799,144.658,203.001,143.838,203.001z" fill="#3F456B"/></g></g><g><g><path d="M197.838,203.001c-1.759,0-3.464-0.929-4.377-2.575c-1.34-2.415-0.468-5.458,1.946-6.798      c0.602-0.334,14.873-8.073,28.208,0.11c2.354,1.444,3.091,4.523,1.646,6.877c-1.443,2.354-4.521,3.092-6.877,1.646      c-8.414-5.166-18.029,0.058-18.126,0.11C199.49,202.799,198.658,203.001,197.838,203.001z" fill="#3F456B"/></g></g><g><g><path d="M251.828,203.001c-0.915,0-1.841-0.251-2.671-0.777c-2.332-1.478-3.025-4.566-1.548-6.899      C248.084,194.575,252.578,188,264,188c2.762,0,5,2.238,5,5s-2.238,5-5,5c-5.783,0-7.926,2.648-7.943,2.676      C255.105,202.178,253.484,203.001,251.828,203.001z" fill="#3F456B"/></g></g><g><g><g><path d="M355.406,480.635c-3.575,0-6.473-2.896-6.473-6.473c0-3.574,2.898-6.472,6.473-6.472       c3.574,0,6.473,2.898,6.473,6.472C361.879,477.738,358.98,480.635,355.406,480.635z" fill="#3F456B"/></g></g></g><g><g><path d="M315,195h-51c-2.762,0-5-2.238-5-5s2.238-5,5-5h51c2.762,0,5,2.238,5,5S317.762,195,315,195z" fill="#3F456B"/></g></g><g><g><path d="M204.757,324.826c-1.499,0-2.981-0.671-3.966-1.95c-1.685-2.188-1.276-5.328,0.912-7.012l45.247-34.826      c2.189-1.687,5.328-1.275,7.012,0.912c1.685,2.188,1.276,5.328-0.912,7.012l-45.247,34.826      C206.894,324.488,205.821,324.826,204.757,324.826z" fill="#3F456B"/></g></g><g><g><path d="M369,177h-51c-2.762,0-5-2.238-5-5s2.238-5,5-5h51c2.762,0,5,2.238,5,5S371.762,177,369,177z" fill="#3F456B"/></g></g><g><g><path d="M424,201h-51c-2.762,0-5-2.238-5-5s2.238-5,5-5h51c2.762,0,5,2.238,5,5S426.762,201,424,201z" fill="#3F456B"/></g></g><g><g><path d="M477,227h-51c-2.762,0-5-2.238-5-5s2.238-5,5-5h51c2.762,0,5,2.238,5,5S479.762,227,477,227z" fill="#3F456B"/></g></g><g id="XMLID_7_"><g><g><path d="M264.584,332c-2.743,0-4.978-2.214-4.999-4.962l-1.592-207.528c0-15.732,14.361-28.501,32.014-28.501       c17.637,0,31.985,12.813,31.985,28.563c0,2.762-2.238,5-5,5s-5-2.238-5-5c0-10.236-9.862-18.563-21.985-18.563       c-12.139,0-22.014,8.282-22.014,18.463l1.592,207.49c0.021,2.762-2.2,5.017-4.962,5.038C264.61,332,264.597,332,264.584,332z" fill="#3F456B"/></g><g><path d="M316.992,258.349c-2.762,0-5-2.238-5-5V100.998c0-15.69,14.356-28.455,32.004-28.455       S376,85.36,376,101.115v24.012c0,2.762-2.238,5-5,5s-5-2.238-5-5v-24.012c0-10.241-9.871-18.572-22.004-18.572       s-22.004,8.279-22.004,18.455v152.351C321.992,256.11,319.754,258.349,316.992,258.349z" fill="#3F456B"/></g><g><path d="M371,258.349c-2.762,0-5-2.238-5-5V125.127c0-15.695,14.356-28.464,32.004-28.464       c17.652,0,32.014,12.822,32.014,28.582v53.424c0,2.762-2.238,5-5,5s-5-2.238-5-5v-53.424c0-10.246-9.875-18.582-22.014-18.582       c-12.133,0-22.004,8.283-22.004,18.464v128.222C376,256.11,373.762,258.349,371,258.349z" fill="#3F456B"/></g><g><path d="M424.999,498.003h-125c-6.385,0-11.474-1.974-15.124-5.865c-5.48-5.841-5.426-13.706-5.355-15.268       v-43.576c-25.4-33.167-54.547-74.229-54.842-74.646c-0.029-0.041-0.058-0.083-0.086-0.125l-46.91-70.567       c-0.145-0.218-0.272-0.447-0.382-0.686c-7.546-16.475-2.847-32.393,11.972-40.553c16.77-9.211,36.549-3.202,48.203,14.596       l30.398,37.099c1.75,2.136,1.438,5.286-0.698,7.036c-2.138,1.751-5.287,1.437-7.036-0.698l-30.572-37.311       c-0.119-0.145-0.229-0.296-0.331-0.453c-7.32-11.316-21.026-19.266-35.145-11.506c-10.074,5.548-12.998,15.728-7.856,27.278       l46.643,70.165c1.307,1.84,30.539,42.976,55.608,75.629c0.671,0.873,1.034,1.943,1.034,3.045v45.401       c0,0.106-0.003,0.213-0.01,0.318c-0.001,0.013-0.205,4.974,2.697,8.021c1.709,1.793,4.258,2.665,7.792,2.665h125       c4.789,0,8.155-1.089,10.005-3.237c2.406-2.794,1.817-6.928,1.812-6.97c-0.049-0.279-0.064-0.514-0.064-0.797v-45.62       c0-1.122,0.377-2.211,1.07-3.092c2.111-2.683,7.454-13.322,10.326-19.398c15.013-31.694,23.417-62.279,24.979-90.91       c1.165-21.545,1.057-43.575,0.951-64.879c-0.031-6.508-0.063-13.014-0.062-19.517v-54.805c0-10.246-9.862-18.581-21.985-18.581       c-12.139,0-22.014,8.286-22.014,18.472V253.5c0,2.762-2.238,5-5,5s-5-2.238-5-5v-74.831c0-15.699,14.361-28.472,32.014-28.472       c17.637,0,31.985,12.821,31.985,28.581v54.807c-0.002,6.486,0.029,12.975,0.062,19.465c0.105,21.449,0.215,43.629-0.966,65.472       c-1.634,29.934-10.356,61.776-25.926,94.645c-0.731,1.549-6.717,14.142-10.436,19.796v43.687       c0.251,2.009,0.686,8.885-4.056,14.51C438.866,495.7,432.913,498.003,424.999,498.003z" fill="#3F456B"/></g></g></g><g><g><path d="M439,437H285c-2.762,0-5-2.238-5-5s2.238-5,5-5h154c2.762,0,5,2.238,5,5S441.762,437,439,437z" fill="#3F456B"/></g></g><g><g><path d="M479,227h-51c-2.762,0-5-2.238-5-5s2.238-5,5-5h51c2.762,0,5,2.238,5,5S481.762,227,479,227z" fill="#3F456B"/></g></g><g><g><path d="M262.022,406.654c-1.733,0-3.418-0.902-4.343-2.514c-1.373-2.396-0.545-5.451,1.851-6.825      c3.895-2.232,6.202-5.307,7.056-9.397c2.622-12.577-8.926-31.646-13.598-37.934l-31.055-43.408      c-1.606-2.246-1.089-5.369,1.157-6.976c2.248-1.606,5.37-1.088,6.976,1.157l31,43.333c0.738,0.989,19.377,26.29,15.312,45.851      c-1.446,6.961-5.441,12.36-11.874,16.05C263.721,406.44,262.865,406.654,262.022,406.654z" fill="#3F456B"/></g></g><g><g><path d="M459.526,398H424c-22.283,0-38.831-5.658-49.185-16.817c-11.202-12.073-10.919-26.292-10.815-28.33      C364.074,327.517,382.944,302,425,302c19.689,0,34.04,5.845,42.652,17.372c14.831,19.85,6.504,48.821,6.143,50.045      c-0.782,2.649-3.567,4.158-6.212,3.378c-2.648-0.783-4.161-3.564-3.378-6.212c0.072-0.246,7.254-25.458-4.589-41.259      C452.99,316.483,441.344,312,425,312c-37.644,0-51,22.087-51,41c0,0.125-0.005,0.25-0.014,0.374      c-0.028,0.444-0.629,11.645,8.282,21.139C390.669,383.462,404.709,388,424,388h35.526c2.762,0,5,2.238,5,5      S462.288,398,459.526,398z" fill="#3F456B"/></g></g><g><g><path d="M451.376,419h-10c-2.762,0-5-2.238-5-5s2.238-5,5-5h10c2.762,0,5,2.238,5,5S454.138,419,451.376,419z       M421.384,418.932c-0.048,0-0.095-0.001-0.142-0.002c-3.521-0.098-6.982-0.303-10.289-0.608      c-2.75-0.254-4.773-2.689-4.519-5.438c0.254-2.751,2.701-4.78,5.438-4.519c3.094,0.286,6.34,0.478,9.646,0.569      c2.761,0.077,4.937,2.377,4.859,5.137C426.304,416.783,424.08,418.932,421.384,418.932z M391.765,414.927      c-0.431,0-0.868-0.056-1.304-0.173c-3.493-0.941-6.864-2.054-10.021-3.306c-2.566-1.018-3.822-3.924-2.804-6.491      s3.927-3.821,6.491-2.804c2.803,1.111,5.809,2.103,8.935,2.944c2.666,0.719,4.245,3.463,3.527,6.129      C395.988,413.457,393.97,414.927,391.765,414.927z M365.015,401.921c-1.102,0-2.21-0.361-3.134-1.106      c-2.856-2.302-5.49-4.847-7.827-7.563c-1.802-2.094-1.564-5.25,0.529-7.051c2.094-1.804,5.25-1.564,7.051,0.529      c1.942,2.258,4.137,4.377,6.521,6.298c2.15,1.732,2.489,4.881,0.757,7.03C367.923,401.284,366.476,401.921,365.015,401.921z       M347.959,377.742c-2.073,0-4.011-1.299-4.726-3.368c-1.188-3.438-2.065-7.004-2.608-10.595      c-0.413-2.73,1.466-5.279,4.195-5.691c2.742-0.42,5.278,1.467,5.691,4.195c0.453,2.992,1.184,5.961,2.173,8.825      c0.902,2.61-0.483,5.457-3.093,6.358C349.051,377.654,348.5,377.742,347.959,377.742z M346.003,348.097      c-0.278,0-0.561-0.023-0.845-0.072c-2.723-0.463-4.554-3.046-4.09-5.768c0.603-3.541,1.475-7.05,2.593-10.427      c0.868-2.623,3.7-4.039,6.318-3.176c2.622,0.868,4.043,3.697,3.176,6.318c-0.961,2.9-1.711,5.916-2.229,8.962      C350.511,346.373,348.396,348.097,346.003,348.097z M357.521,320.701c-1.028,0-2.065-0.315-2.957-0.971      c-2.226-1.636-2.703-4.765-1.068-6.99c2.117-2.88,4.487-5.622,7.046-8.148c1.966-1.938,5.13-1.92,7.071,0.044      c1.94,1.966,1.921,5.131-0.044,7.071c-2.186,2.158-4.209,4.498-6.015,6.955C360.574,319.995,359.059,320.701,357.521,320.701z       M475.728,304.442c-1.074,0-2.157-0.345-3.07-1.057c-2.32-1.809-4.889-3.441-7.634-4.852c-2.457-1.262-3.425-4.275-2.163-6.731      c1.261-2.458,4.277-3.427,6.731-2.163c3.301,1.695,6.4,3.666,9.214,5.859c2.178,1.697,2.567,4.84,0.869,7.018      C478.689,303.781,477.216,304.442,475.728,304.442z M380.161,301.432c-1.793,0-3.526-0.968-4.424-2.663      c-1.291-2.44-0.359-5.467,2.082-6.758c3.062-1.62,6.322-3.083,9.688-4.35c2.586-0.972,5.469,0.334,6.44,2.919      c0.973,2.585-0.335,5.469-2.919,6.44c-2.973,1.118-5.844,2.407-8.534,3.83C381.75,301.245,380.95,301.432,380.161,301.432z       M448.405,292.796c-0.311,0-0.626-0.029-0.942-0.09c-2.973-0.566-6.134-0.997-9.396-1.28c-2.752-0.239-4.788-2.662-4.55-5.413      c0.238-2.752,2.687-4.789,5.413-4.55c3.601,0.312,7.102,0.79,10.406,1.421c2.713,0.517,4.492,3.135,3.975,5.848      C452.854,291.128,450.758,292.796,448.405,292.796z M408.587,292.392c-2.429,0-4.559-1.772-4.937-4.246      c-0.417-2.729,1.458-5.28,4.188-5.697c3.344-0.511,6.826-0.891,10.35-1.128c2.773-0.19,5.14,1.896,5.325,4.651      c0.187,2.756-1.896,5.14-4.651,5.325c-3.245,0.22-6.446,0.568-9.514,1.036C409.092,292.372,408.838,292.392,408.587,292.392z" fill="#3F456B"/></g></g><g><g><path d="M371.995,498.001c-0.889,0-1.788-0.237-2.603-0.734c-2.356-1.44-3.099-4.518-1.659-6.874      c7.184-11.754,3.261-24.918,1.055-30.393H297c-6.165,0-7.357,5.79-7.534,6.95c-0.412,2.711-2.925,4.602-5.649,4.225      c-2.715-0.386-4.616-2.86-4.258-5.579C280.271,460.201,284.832,450,297,450h75c1.823,0,3.502,0.992,4.381,2.591      c0.507,0.92,12.256,22.774-0.114,43.017C375.324,497.149,373.68,498.001,371.995,498.001z" fill="#3F456B"/></g></g><g><g><path d="M469,358H369c-2.762,0-5-2.238-5-5s2.238-5,5-5h100c2.762,0,5,2.238,5,5S471.762,358,469,358z" fill="#3F456B"/></g></g><g><g><g><path d="M104.758,406.961c-1.244,3.352-4.968,5.06-8.321,3.815c-3.351-1.244-5.059-4.969-3.815-8.321       c1.244-3.351,4.97-5.059,8.32-3.815C104.295,399.885,106.002,403.61,104.758,406.961z" fill="#3F456B"/></g></g></g><g><g><g><path d="M291.758,70.961c-1.244,3.352-4.968,5.06-8.321,3.815c-3.351-1.244-5.059-4.969-3.815-8.321       c1.244-3.351,4.97-5.059,8.32-3.815C291.295,63.885,293.002,67.61,291.758,70.961z" fill="#3F456B"/></g></g></g><g><g><path d="M143,461c-32.759,0-44.389-23.797-45.961-36.38c-0.343-2.74,1.601-5.239,4.341-5.581      c2.732-0.352,5.226,1.592,5.579,4.319C107.111,424.496,111.036,451,143,451c2.762,0,5,2.238,5,5S145.762,461,143,461z" fill="#3F456B"/></g></g><g><g><path d="M281.995,56.001c-2.302,0-4.372-1.599-4.881-3.938c-4.24-19.504-21.561-24.021-22.296-24.204      c-2.671-0.664-4.314-3.364-3.664-6.037c0.65-2.675,3.329-4.323,6.004-3.686c0.982,0.234,24.124,6.025,29.728,31.802      c0.587,2.699-1.125,5.361-3.823,5.948C282.704,55.964,282.347,56.001,281.995,56.001z" fill="#3F456B"/></g></g></g></g><g id="Outline"><g><g><g><g><g><g><path d="M362.461,30.628c-0.236,0-0.477-0.018-0.718-0.052c-2.733-0.394-4.631-2.928-4.237-5.661         l1.929-13.402c0.394-2.732,2.924-4.627,5.661-4.237c2.733,0.394,4.631,2.928,4.237,5.661l-1.929,13.402         C367.046,28.831,364.907,30.628,362.461,30.628z" fill="#3F456B"/></g></g></g><g><g><g><path d="M410.357,78.653c-0.234,0-0.472-0.017-0.711-0.051l-12.87-1.834c-2.734-0.39-4.635-2.922-4.245-5.655         c0.39-2.734,2.918-4.637,5.655-4.245l12.87,1.834c2.734,0.39,4.635,2.922,4.245,5.655         C414.946,76.853,412.807,78.653,410.357,78.653z" fill="#3F456B"/></g></g></g><g><g><g><path d="M394.82,55.738c-1.984,0-3.862-1.188-4.645-3.144c-1.025-2.563,0.222-5.474,2.785-6.5l12.411-4.966         c2.565-1.024,5.474,0.221,6.5,2.785c1.025,2.563-0.222,5.474-2.785,6.5l-12.411,4.966         C396.066,55.623,395.438,55.738,394.82,55.738z" fill="#3F456B"/></g></g></g><g><g><g><path d="M382.141,38.964c-1.082,0-2.172-0.35-3.089-1.07c-2.17-1.707-2.545-4.851-0.838-7.021l8.328-10.587         c1.708-2.171,4.851-2.545,7.021-0.838c2.17,1.707,2.545,4.851,0.838,7.021l-8.328,10.587         C385.087,38.31,383.621,38.964,382.141,38.964z" fill="#3F456B"/></g></g></g></g><g><g><g><g><path d="M340.979,31.678c-1.984,0-3.862-1.188-4.645-3.144l-4.629-11.57c-1.025-2.564,0.222-5.474,2.785-6.5         c2.568-1.026,5.475,0.222,6.5,2.785l4.629,11.57c1.025,2.564-0.222,5.474-2.785,6.5         C342.225,31.562,341.596,31.678,340.979,31.678z" fill="#3F456B"/></g></g></g><g><g><g><path d="M324.123,44.865c-1.082,0-2.172-0.35-3.089-1.07l-10.172-8.002c-2.17-1.707-2.545-4.851-0.838-7.021         s4.851-2.545,7.021-0.838l10.172,8.002c2.17,1.707,2.545,4.851,0.838,7.021C327.069,44.211,325.604,44.865,324.123,44.865z" fill="#3F456B"/></g></g></g><g><g><g><path d="M316.008,64.301c-0.234,0-0.472-0.017-0.711-0.051l-12.87-1.834c-2.734-0.39-4.635-2.922-4.245-5.655         s2.917-4.642,5.655-4.245l12.87,1.834c2.734,0.39,4.635,2.922,4.245,5.655C320.597,62.5,318.457,64.301,316.008,64.301z" fill="#3F456B"/></g></g></g></g></g><g><g><g><g><path d="M184.889,236.608c0,3.53-2.86,6.392-6.392,6.392c-3.53,0-6.392-2.862-6.392-6.392        s2.862-6.393,6.392-6.393C182.03,230.215,184.889,233.078,184.889,236.608z" fill="#3F456B"/></g></g><g><g><path d="M242.942,236.608c0,3.53-2.86,6.392-6.392,6.392c-3.53,0-6.392-2.862-6.392-6.392        s2.862-6.393,6.392-6.393C240.082,230.215,242.942,233.078,242.942,236.608z" fill="#3F456B"/></g></g><g><g><path d="M213.915,236.608c0,3.53-2.86,6.392-6.392,6.392c-3.529,0-6.391-2.862-6.391-6.392        s2.862-6.393,6.391-6.393C211.055,230.215,213.915,233.078,213.915,236.608z" fill="#3F456B"/></g></g><g><g><path d="M155.863,236.608c0,3.53-2.859,6.392-6.392,6.392c-3.529,0-6.391-2.862-6.391-6.392        s2.862-6.393,6.391-6.393C153.003,230.215,155.863,233.078,155.863,236.608z" fill="#3F456B"/></g></g></g><g><g><g><path d="M256.942,265.608c0,3.53-2.86,6.392-6.392,6.392c-3.53,0-6.392-2.862-6.392-6.392        s2.862-6.393,6.392-6.393C254.082,259.215,256.942,262.078,256.942,265.608z" fill="#3F456B"/></g></g><g><g><path d="M169.863,265.608c0,3.53-2.859,6.392-6.392,6.392c-3.529,0-6.391-2.862-6.391-6.392        s2.862-6.393,6.391-6.393C167.003,259.215,169.863,262.078,169.863,265.608z" fill="#3F456B"/></g></g></g><g><g><g><path d="M184.889,294.608c0,3.53-2.86,6.392-6.392,6.392c-3.53,0-6.392-2.862-6.392-6.392        s2.862-6.393,6.392-6.393C182.03,288.215,184.889,291.078,184.889,294.608z" fill="#3F456B"/></g></g></g><g><g><g><path d="M198.889,323.608c0,3.53-2.86,6.392-6.392,6.392c-3.53,0-6.392-2.862-6.392-6.392        s2.862-6.393,6.392-6.393C196.03,317.215,198.889,320.078,198.889,323.608z" fill="#3F456B"/></g></g></g></g><g><g><g><path d="M299.076,314.999c-1.279,0-2.56-0.488-3.535-1.465c-1.953-1.952-1.953-5.118,0-7.07l35.216-35.216       c1.951-1.953,5.119-1.953,7.07,0c1.953,1.952,1.953,5.118,0,7.07l-35.216,35.216       C301.636,314.511,300.355,314.999,299.076,314.999z" fill="#3F456B"/></g></g><g><g><path d="M334.292,314.999c-1.279,0-2.56-0.488-3.535-1.465l-35.216-35.216c-1.953-1.952-1.953-5.118,0-7.07       c1.951-1.953,5.119-1.953,7.07,0l35.216,35.216c1.953,1.952,1.953,5.118,0,7.07       C336.852,314.511,335.571,314.999,334.292,314.999z" fill="#3F456B"/></g></g></g><g><g><g><path d="M316.988,216.5H264c-2.762,0-5-2.238-5-5s2.238-5,5-5h52.988c2.762,0,5,2.238,5,5       S319.75,216.5,316.988,216.5z" fill="#3F456B"/></g></g><g><g><path d="M369.988,198.5H317c-2.762,0-5-2.238-5-5s2.238-5,5-5h52.988c2.762,0,5,2.238,5,5       S372.75,198.5,369.988,198.5z" fill="#3F456B"/></g></g><g><g><path d="M424.988,222.5H372c-2.762,0-5-2.238-5-5s2.238-5,5-5h52.988c2.762,0,5,2.238,5,5       S427.75,222.5,424.988,222.5z" fill="#3F456B"/></g></g><g><g><path d="M477.988,248.5H425c-2.762,0-5-2.238-5-5s2.238-5,5-5h52.988c2.762,0,5,2.238,5,5       S480.75,248.5,477.988,248.5z" fill="#3F456B"/></g></g></g></g><g><g><g><g><path d="M64.466,130.837c-1.279,0-2.56-0.488-3.536-1.465c-1.952-1.952-1.952-5.118,0.001-7.071l8.018-8.017       c1.953-1.951,5.118-1.952,7.071,0.001c1.952,1.952,1.952,5.118-0.001,7.071l-8.018,8.017       C67.024,130.349,65.745,130.837,64.466,130.837z" fill="#3F456B"/></g></g><g><g><path d="M37.104,158.18c-1.279,0-2.56-0.488-3.535-1.465c-1.953-1.952-1.953-5.118,0-7.07l8.017-8.017       c1.951-1.953,5.119-1.953,7.07,0c1.953,1.952,1.953,5.118,0,7.07l-8.017,8.017C39.663,157.691,38.383,158.18,37.104,158.18z" fill="#3F456B"/></g></g></g><g><g><g><path d="M72.473,158.19c-1.279,0-2.56-0.488-3.536-1.465l-8.017-8.018c-1.952-1.952-1.952-5.118,0.001-7.071       c1.953-1.951,5.118-1.952,7.071,0.001l8.017,8.018c1.952,1.952,1.952,5.118-0.001,7.071       C75.031,157.702,73.752,158.19,72.473,158.19z" fill="#3F456B"/></g></g><g><g><path d="M45.13,130.827c-1.279,0-2.56-0.488-3.536-1.465l-8.017-8.018c-1.952-1.952-1.952-5.118,0.001-7.071       c1.953-1.951,5.118-1.952,7.071,0.001l8.017,8.018c1.952,1.952,1.952,5.118-0.001,7.071       C47.688,130.339,46.409,130.827,45.13,130.827z" fill="#3F456B"/></g></g></g></g></g></svg>