<?xml version="1.0" ?><svg viewBox="0 0 512 512" xmlns="http://www.w3.org/2000/svg"><defs><style>.cls-1{fill:#3f456b;}</style></defs><title/><g id="Lines"><path class="cls-1" d="M258,503.31a250,250,0,0,1-36.2-2.64A246.79,246.79,0,0,1,110,58.58c2.42-1.8,4.88-3.56,7.31-5.24A5,5,0,1,1,123,61.56c-2.34,1.62-4.7,3.31-7,5A236.78,236.78,0,1,0,398.9,446.36,236.76,236.76,0,0,0,447.32,115a5,5,0,1,1,8-6A246.84,246.84,0,0,1,258,503.31Z"/><path class="cls-1" d="M117.78,139h-.44a5,5,0,0,1-4.55-5.42l6.47-74.62L44.63,52.47a5,5,0,1,1,.86-10L125.1,49.4a5,5,0,0,1,4.55,5.42l-6.89,79.61A5,5,0,0,1,117.78,139Z"/><path class="cls-1" d="M257.88,341.11a85.56,85.56,0,1,1,85.55-85.55A85.65,85.65,0,0,1,257.88,341.11Zm0-161.11a75.56,75.56,0,1,0,75.55,75.56A75.64,75.64,0,0,0,257.88,180Z"/></g><g id="Outline"><path class="cls-1" d="M430.78,92.93a5,5,0,0,1-3.58-1.51l-.69-.7a5,5,0,0,1,7.14-7l.71.72a5,5,0,0,1-3.58,8.49ZM415.5,78.56a4.94,4.94,0,0,1-3.26-1.22l-.74-.63A5,5,0,0,1,418,69.1l.78.67a5,5,0,0,1-3.27,8.79ZM399,65.57a4.94,4.94,0,0,1-2.92-.95l-.79-.56a5,5,0,1,1,5.8-8.14l.83.59A5,5,0,0,1,399,65.57Zm-17.55-11.5a5,5,0,0,1-2.56-.71l-.84-.5a5,5,0,0,1,5.08-8.61l.88.52a5,5,0,0,1-2.56,9.3ZM363,44.13a5.07,5.07,0,0,1-2.16-.49l-.89-.43a5,5,0,1,1,4.31-9l.92.44a5,5,0,0,1-2.18,9.5ZM158.65,41.21a5,5,0,0,1-2.06-9.56l.94-.42a5,5,0,1,1,4.06,9.14l-.89.39A5,5,0,0,1,158.65,41.21Zm185.07-5.37a5.09,5.09,0,0,1-1.78-.33l-.92-.35a5,5,0,0,1,3.52-9.36l.95.36a5,5,0,0,1-1.77,9.68ZM178.15,33.43a5,5,0,0,1-1.65-9.73l1-.33a5,5,0,0,1,3.27,9.45l-.94.33A5,5,0,0,1,178.15,33.43Zm145.64-4.19a4.91,4.91,0,0,1-1.36-.19l-.95-.27a5,5,0,1,1,2.7-9.63l1,.28a5,5,0,0,1-1.37,9.81ZM198.25,27.38A5,5,0,0,1,197,17.53l1-.25A5,5,0,1,1,200.43,27l-1,.24A5.17,5.17,0,0,1,198.25,27.38Zm105.13-3a4.38,4.38,0,0,1-.95-.1l-1-.18a5,5,0,1,1,1.85-9.83l1,.19a5,5,0,0,1-.93,9.92ZM218.8,23.11a5,5,0,0,1-.79-9.93l1-.16a5,5,0,1,1,1.56,9.87l-1,.16A5.52,5.52,0,0,1,218.8,23.11Zm63.81-1.8-.53,0-1-.1a5,5,0,1,1,1-9.95l1,.11a5,5,0,0,1-.51,10Zm-43-.65a5,5,0,0,1-.37-10l1-.07a5,5,0,1,1,.7,10l-1,.07Zm22-.62h-.09l-1,0a5,5,0,0,1,.13-10l1,0a5,5,0,0,1-.09,10Z"/></g></svg>