<?xml version="1.0" ?><svg viewBox="0 0 512 512" xmlns="http://www.w3.org/2000/svg"><defs><style>.cls-1{fill:#3f456b;}</style></defs><title/><g id="Lines"><path class="cls-1" d="M291,501H95a35,35,0,0,1-35-35V46A35,35,0,0,1,95,11H291a35,35,0,0,1,35,35V466A35,35,0,0,1,291,501ZM95,21A25,25,0,0,0,70,46V466a25,25,0,0,0,25,25H291a25,25,0,0,0,25-25V46a25,25,0,0,0-25-25Z"/><path class="cls-1" d="M193,317.65a93.49,93.49,0,1,1,93.49-93.49A93.6,93.6,0,0,1,193,317.65Zm0-177a83.49,83.49,0,1,0,83.49,83.49A83.58,83.58,0,0,0,193,140.67Z"/><path class="cls-1" d="M257,109.05a30.16,30.16,0,1,1,30.15-30.16A30.19,30.19,0,0,1,257,109.05Zm0-50.31a20.16,20.16,0,1,0,20.15,20.15A20.17,20.17,0,0,0,257,58.74Z"/><path class="cls-1" d="M130,109.05a30.16,30.16,0,1,1,30.15-30.16A30.19,30.19,0,0,1,130,109.05Zm0-50.31a20.16,20.16,0,1,0,20.15,20.15A20.17,20.17,0,0,0,130,58.74Z"/></g><g id="Outline"><path class="cls-1" d="M379.3,117.24a5,5,0,0,1-5-5A21.29,21.29,0,0,0,353,91a5,5,0,0,1,0-10h0a31.3,31.3,0,0,1,31.27,31.26A5,5,0,0,1,379.3,117.24Z"/><path class="cls-1" d="M413.09,117.24h0a5,5,0,0,1-5-5,55.05,55.05,0,0,0-55.06-55,5,5,0,0,1,0-10,65,65,0,0,1,65.06,65.05A5,5,0,0,1,413.09,117.24Z"/><path class="cls-1" d="M448.11,117.24h0a5,5,0,0,1-5-5A90.07,90.07,0,0,0,353,22.17a5,5,0,1,1,0-10A100.07,100.07,0,0,1,453.11,112.24,5,5,0,0,1,448.11,117.24Z"/><path class="cls-1" d="M211.08,185.45A5,5,0,0,1,207.6,184l-13.87-13.43L179.4,183.86a5,5,0,1,1-6.79-7.35l17.81-16.46a5,5,0,0,1,6.87.08l17.27,16.73a5,5,0,0,1-3.48,8.59Z"/><path class="cls-1" d="M193.81,290.13a5,5,0,0,1-3.39-1.32l-17.81-16.46A5,5,0,1,1,179.4,265l14.33,13.25,13.87-13.43a5,5,0,0,1,7,7.18l-17.27,16.73A5,5,0,0,1,193.81,290.13Z"/><path class="cls-1" d="M237.52,247a5,5,0,0,1-3.59-8.48l13.43-13.87-13.25-14.33a5,5,0,1,1,7.35-6.79l16.46,17.81a5,5,0,0,1-.08,6.87l-16.73,17.27A5,5,0,0,1,237.52,247Z"/><path class="cls-1" d="M149.56,247a5,5,0,0,1-3.59-1.52l-16.73-17.27a5,5,0,0,1-.08-6.87l16.46-17.81a5,5,0,1,1,7.34,6.79l-13.24,14.33,13.43,13.87a5,5,0,0,1-3.59,8.48Z"/><path class="cls-1" d="M137.43,356h-1.31a5,5,0,0,1,0-10h1.31a5,5,0,0,1,0,10Z"/><path class="cls-1" d="M176.87,356h-1.31a5,5,0,1,1,0-10h1.31a5,5,0,0,1,0,10Z"/><path class="cls-1" d="M215,356h-1.31a5,5,0,0,1,0-10H215a5,5,0,0,1,0,10Z"/><path class="cls-1" d="M137.43,451h-1.31a5,5,0,0,1,0-10h1.31a5,5,0,1,1,0,10Z"/><path class="cls-1" d="M176.87,451h-1.31a5,5,0,1,1,0-10h1.31a5,5,0,0,1,0,10Z"/><path class="cls-1" d="M215,451h-1.31a5,5,0,0,1,0-10H215a5,5,0,0,1,0,10Z"/><path class="cls-1" d="M137.43,403.5h-1.31a5,5,0,0,1,0-10h1.31a5,5,0,1,1,0,10Z"/><path class="cls-1" d="M176.87,403.5h-1.31a5,5,0,1,1,0-10h1.31a5,5,0,0,1,0,10Z"/><path class="cls-1" d="M215,403.5h-1.31a5,5,0,0,1,0-10H215a5,5,0,0,1,0,10Z"/><path class="cls-1" d="M255,356h-1.31a5,5,0,0,1,0-10H255a5,5,0,0,1,0,10Z"/><path class="cls-1" d="M255,451h-1.31a5,5,0,0,1,0-10H255a5,5,0,0,1,0,10Z"/><path class="cls-1" d="M255,403.5h-1.31a5,5,0,0,1,0-10H255a5,5,0,0,1,0,10Z"/></g></svg>