<?xml version="1.0" ?><svg id="Lines" viewBox="0 0 512 512" xmlns="http://www.w3.org/2000/svg"><defs><style>.cls-1{fill:#3f456b;}</style></defs><title/><path class="cls-1" d="M306,178H173c-7.74,0-14-6.73-14-15V143a5,5,0,0,1,10,0v20c0,2.71,1.85,5,4,5H306c2.19,0,4-2.29,4-5V143a5,5,0,0,1,10,0v20C320,171.27,313.7,178,306,178Z"/><path class="cls-1" d="M368.3,501h-319A37.36,37.36,0,0,1,12,463.69V80.31A37.36,37.36,0,0,1,49.31,43H431.69A37.36,37.36,0,0,1,469,80.31V296.46a5,5,0,1,1-10,0V80.31A27.34,27.34,0,0,0,431.69,53H49.31A27.34,27.34,0,0,0,22,80.31V463.69A27.34,27.34,0,0,0,49.31,491h319a5,5,0,0,1,0,10Z"/><path class="cls-1" d="M129.4,456.41a5,5,0,0,1-3.71-1.63A37.24,37.24,0,0,1,116,429.69V174.31A37.36,37.36,0,0,1,153.31,137H328.69A37.36,37.36,0,0,1,366,174.31V296a5,5,0,0,1-10,0V174.31A27.34,27.34,0,0,0,328.69,147H153.31A27.34,27.34,0,0,0,126,174.31V429.69a27.25,27.25,0,0,0,7.09,18.36,5,5,0,0,1-3.69,8.36Z"/><path class="cls-1" d="M432,53a5,5,0,0,1-5-5V36a15,15,0,0,0-15-15H68A15,15,0,0,0,53,36V48a5,5,0,0,1-10,0V36A25,25,0,0,1,68,11H412a25,25,0,0,1,25,25V48A5,5,0,0,1,432,53Z"/><path class="cls-1" d="M411.78,135.28a32.62,32.62,0,1,1,32.61-32.61A32.65,32.65,0,0,1,411.78,135.28Zm0-55.23a22.62,22.62,0,1,0,22.61,22.62A22.64,22.64,0,0,0,411.78,80.05Z"/><path class="cls-1" d="M371.5,501H102a15,15,0,0,1-15-15V462a15,15,0,0,1,15-15H337.5a5,5,0,0,1,0,10H102a5,5,0,0,0-5,5v24a5,5,0,0,0,5,5H371.5a5,5,0,0,1,0,10Z"/><path class="cls-1" d="M456,501h-99.2c-13,0-18-11.05-18.86-16.9L312.39,311.39c-.49-1.91-2.11-9.64,1.87-14.9,1.55-2.05,4.52-4.49,9.89-4.49H487.62a12.48,12.48,0,0,1,9.49,3.69c3.27,3.42,4.43,8.58,3.43,15.34L475.05,484s0,.07,0,.1C474.05,490,468.8,501,456,501ZM324.15,302c-.7,0-1.59.09-1.92.52-.87,1.16-.66,4.62-.12,6.5.05.21.1.42.13.63l25.56,173c.22,1.37,1.73,8.36,9,8.36H456c7.29,0,9-7.46,9.2-8.54l25.48-172.89c.73-5-.4-6.58-.76-7a2.54,2.54,0,0,0-1.6-.64l-.51,0Z"/><path class="cls-1" d="M437.52,391.86a30.15,30.15,0,0,1-17.8-5.84c-12.19-8.65-25.3,0-25.43.07-.65.46-17.88,12.21-36.63.05-13.27-8.61-26.75-.09-26.88,0a5,5,0,1,1-5.44-8.39c.77-.5,19.12-12.09,37.76,0,13.16,8.54,25.41.18,25.53.1.84-.57,19.11-12.6,36.88,0,12.3,8.73,24.84.33,25.37,0l.17-.11c.81-.51,19.93-12.39,36.79.22a5,5,0,0,1-6,8c-11.06-8.27-24.47-.38-25.4.18A36.13,36.13,0,0,1,437.52,391.86Z"/><path class="cls-1" d="M239.9,305.17h-.13l-1.78-.05c-20,0-36.38-12.39-39.87-30.08-3.81-19.37,7.22-34.44,16.95-47.73A142.65,142.65,0,0,0,225,212.6a89.25,89.25,0,0,0,8.53-20.78,5,5,0,0,1,4.86-3.82h1.38a5,5,0,0,1,4.85,3.82,90.13,90.13,0,0,0,8.53,20.78A144.9,144.9,0,0,0,263,227.29c9.74,13.34,20.78,28.46,17,47.84C276.49,292.82,260,305.17,239.9,305.17Zm-.85-98.7a116.3,116.3,0,0,1-5.33,11,153.48,153.48,0,0,1-10.58,15.78C213.8,246,205,258,207.94,273.11s17.28,22,30.12,22h.12l1.78,0c17.88,0,28-11.05,30.2-22,3-15.09-5.88-27.19-15.24-40a155.55,155.55,0,0,1-10.55-15.75A113.79,113.79,0,0,1,239.05,206.47Z"/><path class="cls-1" d="M239.9,435.17h-.13l-1.78-.05c-20,0-36.38-12.39-39.87-30.08-3.81-19.37,7.22-34.44,16.95-47.73A142.65,142.65,0,0,0,225,342.6a89.25,89.25,0,0,0,8.53-20.78,5,5,0,0,1,4.86-3.82h1.38a5,5,0,0,1,4.85,3.82,90.13,90.13,0,0,0,8.53,20.78A144.9,144.9,0,0,0,263,357.29c9.74,13.34,20.78,28.46,17,47.84C276.49,422.82,260,435.17,239.9,435.17Zm-.85-98.7a116.3,116.3,0,0,1-5.33,11,153.48,153.48,0,0,1-10.58,15.78C213.8,376,205,388,207.94,403.11s17.28,22,30.12,22h.12l1.78,0c17.88,0,28-11.05,30.2-22,3-15.09-5.88-27.19-15.24-40a155.55,155.55,0,0,1-10.55-15.75A113.79,113.79,0,0,1,239.05,336.47Z"/></svg>