<?xml version="1.0" ?><svg viewBox="0 0 512 512" xmlns="http://www.w3.org/2000/svg"><defs><style>.cls-1{fill:#3f456b;}</style></defs><title/><g id="Lines"><path class="cls-1" d="M276.19,110.08a30.34,30.34,0,1,1,30.34-30.34A30.37,30.37,0,0,1,276.19,110.08Zm0-50.68a20.34,20.34,0,1,0,20.34,20.34A20.37,20.37,0,0,0,276.19,59.4Z"/><path class="cls-1" d="M158.19,221.08a30.34,30.34,0,1,1,30.34-30.34A30.37,30.37,0,0,1,158.19,221.08Zm0-50.68a20.34,20.34,0,1,0,20.34,20.34A20.37,20.37,0,0,0,158.19,170.4Z"/><path class="cls-1" d="M471.19,499.08a30.34,30.34,0,1,1,30.34-30.34A30.37,30.37,0,0,1,471.19,499.08Zm0-50.68a20.34,20.34,0,1,0,20.34,20.34A20.37,20.37,0,0,0,471.19,448.4Z"/><path class="cls-1" d="M77.6,457.84a39.53,39.53,0,1,1,39.52-39.53A39.58,39.58,0,0,1,77.6,457.84Zm0-69.06a29.53,29.53,0,1,0,29.52,29.53A29.57,29.57,0,0,0,77.6,388.78Z"/><path class="cls-1" d="M113,99.31a38.58,38.58,0,1,1,38.58-38.58A38.62,38.62,0,0,1,113,99.31Zm0-67.15a28.58,28.58,0,1,0,28.58,28.57A28.61,28.61,0,0,0,113,32.16Z"/><path class="cls-1" d="M460,176.31a38.58,38.58,0,1,1,38.58-38.58A38.62,38.62,0,0,1,460,176.31Zm0-67.15a28.58,28.58,0,1,0,28.58,28.57A28.61,28.61,0,0,0,460,109.16Z"/><path class="cls-1" d="M327,448.44a34.7,34.7,0,1,1,34.7-34.7A34.74,34.74,0,0,1,327,448.44Zm0-59.4a24.7,24.7,0,1,0,24.7,24.7A24.73,24.73,0,0,0,327,389Z"/><path class="cls-1" d="M257,325.31a69.58,69.58,0,1,1,69.58-69.58A69.65,69.65,0,0,1,257,325.31Zm0-129.15a59.58,59.58,0,1,0,59.58,59.57A59.64,59.64,0,0,0,257,196.16Z"/></g><g id="Outline"><path class="cls-1" d="M248.38,434.42h-.26c-1-.05-2.05-.11-3.08-.18a5,5,0,0,1,.68-10l2.91.18a5,5,0,0,1-.25,10Zm20-.12a5,5,0,0,1-.31-10c1-.06,1.93-.13,2.9-.21a5,5,0,1,1,.81,10l-3.08.22Zm-42.8-2.57a4.78,4.78,0,0,1-.92-.09c-1-.19-2-.38-3-.59a5,5,0,1,1,2-9.8c1,.2,1.91.38,2.86.56a5,5,0,0,1-.9,9.92Zm-22.29-5.65a4.87,4.87,0,0,1-1.54-.25c-1-.31-1.95-.64-2.92-1A5,5,0,1,1,202,415.4l2.77.92a5,5,0,0,1-1.54,9.76Zm-21.36-8.49a4.81,4.81,0,0,1-2.14-.49L177,415.76a5,5,0,0,1,4.45-9c.87.43,1.75.86,2.62,1.27a5,5,0,0,1-2.15,9.52Zm-20-11.22a4.93,4.93,0,0,1-2.72-.81l-2.57-1.7a5,5,0,0,1,5.59-8.29c.8.54,1.61,1.08,2.43,1.61a5,5,0,0,1-2.73,9.19Zm-18.38-13.76a4.94,4.94,0,0,1-3.25-1.2l-2.33-2a5,5,0,0,1,6.64-7.48c.73.65,1.46,1.28,2.19,1.91a5,5,0,0,1-3.25,8.8Zm-16.41-16.06a5,5,0,0,1-3.73-1.66l-2-2.31a5,5,0,1,1,7.56-6.55c.63.73,1.27,1.46,1.92,2.18a5,5,0,0,1-.39,7.06A4.94,4.94,0,0,1,127.07,376.55ZM112.9,358.48a5,5,0,0,1-4.14-2.18c-.58-.85-1.15-1.71-1.71-2.56a5,5,0,1,1,8.35-5.51c.53.81,1.07,1.62,1.62,2.42a5,5,0,0,1-4.12,7.83ZM101.2,338.7A5,5,0,0,1,96.73,336c-.46-.91-.92-1.83-1.37-2.76a5,5,0,0,1,9-4.36c.43.87.86,1.74,1.3,2.61a5,5,0,0,1-4.46,7.26Zm-9-21.14a5,5,0,0,1-4.71-3.35c-.34-1-.68-1.94-1-2.92A5,5,0,1,1,96,308.14c.3.92.62,1.84.94,2.76a5,5,0,0,1-3.06,6.37A4.84,4.84,0,0,1,92.17,317.56ZM86,295.42a5,5,0,0,1-4.89-4c-.21-1-.41-2-.61-3a5,5,0,0,1,9.83-1.88c.18,1,.37,1.91.57,2.86A5,5,0,0,1,87,295.31,5.23,5.23,0,0,1,86,295.42Zm-3.21-22.77a5,5,0,0,1-5-4.63q-.12-1.54-.21-3.09a5,5,0,0,1,10-.57c0,1,.12,1.95.19,2.92a5,5,0,0,1-4.62,5.35Zm-.17-23h-.29a5,5,0,0,1-4.7-5.29c.06-1,.12-2,.2-3.08a5,5,0,0,1,10,.76c-.07,1-.14,1.94-.19,2.9A5,5,0,0,1,82.61,249.64Zm2.86-22.8a5.2,5.2,0,0,1-1-.09,5,5,0,0,1-4-5.86c.2-1,.4-2,.61-3A5,5,0,1,1,91,219.93c-.2.95-.39,1.9-.58,2.86A5,5,0,0,1,85.47,226.84Zm5.8-22.24a5,5,0,0,1-1.57-.25A5,5,0,0,1,86.52,198c.32-1,.65-1.95,1-2.92a5,5,0,1,1,9.44,3.3c-.32.92-.63,1.84-.94,2.76A5,5,0,0,1,91.27,204.6Zm8.63-21.29a5,5,0,0,1-2.17-.5,5,5,0,0,1-2.33-6.68c.45-.93.91-1.85,1.37-2.77a5,5,0,0,1,8.93,4.51c-.44.87-.87,1.74-1.3,2.61A5,5,0,0,1,99.9,183.31Zm11.36-20a5,5,0,0,1-4.17-7.76l1.72-2.55a5,5,0,0,1,8.25,5.65c-.55.8-1.09,1.61-1.62,2.42A5,5,0,0,1,111.26,163.33Zm13.89-18.28a5,5,0,0,1-3.77-8.28q1-1.17,2-2.31a5,5,0,1,1,7.43,6.69c-.64.72-1.29,1.45-1.92,2.18A5,5,0,0,1,125.15,145.05Zm16.18-16.31A5,5,0,0,1,138,120c.77-.69,1.55-1.36,2.33-2a5,5,0,0,1,6.49,7.61c-.74.63-1.47,1.27-2.2,1.91A5,5,0,0,1,141.33,128.74Zm18.19-14a5,5,0,0,1-2.8-9.15c.85-.58,1.71-1.14,2.57-1.7a5,5,0,0,1,5.45,8.39l-2.44,1.6A4.92,4.92,0,0,1,159.52,114.7Zm19.86-11.56a5,5,0,0,1-2.23-9.48c.92-.46,1.84-.91,2.77-1.35a5,5,0,0,1,4.3,9l-2.62,1.27A5,5,0,0,1,179.38,103.14Zm21.2-8.87A5,5,0,0,1,199,84.54c1-.34,2-.66,2.93-1A5,5,0,0,1,205,93.07c-.93.3-1.85.61-2.77.93A5.14,5.14,0,0,1,200.58,94.27Zm22.18-6a5,5,0,0,1-1-9.91c1-.2,2-.4,3-.58a5,5,0,0,1,1.81,9.83c-1,.18-1.91.36-2.87.56A5.63,5.63,0,0,1,222.76,88.25Z"/><path class="cls-1" d="M379.14,385.15a5,5,0,0,1-3.48-8.59l2.07-2a5,5,0,1,1,7.08,7.05c-.72.73-1.45,1.45-2.19,2.17A5,5,0,0,1,379.14,385.15Zm15.4-17a5,5,0,0,1-3.92-8.1c.6-.76,1.19-1.53,1.78-2.3a5,5,0,1,1,8,6.06c-.63.82-1.26,1.63-1.9,2.44A5,5,0,0,1,394.54,368.1Zm13-18.93a5,5,0,0,1-4.29-7.56c.5-.83,1-1.67,1.46-2.51a5,5,0,1,1,8.69,4.95c-.51.9-1,1.79-1.55,2.67A5,5,0,0,1,407.55,349.17ZM418,328.68a5,5,0,0,1-4.59-7c.38-.89.75-1.78,1.12-2.68a5,5,0,0,1,9.26,3.77c-.39.95-.79,1.9-1.19,2.85A5,5,0,0,1,418,328.68ZM425.6,307a5,5,0,0,1-4.81-6.38l0-.08c.26-.91.5-1.81.74-2.71a5,5,0,0,1,9.67,2.54c-.25,1-.51,1.91-.78,2.86l0,.14A5,5,0,0,1,425.6,307Zm4.77-22.49a4.36,4.36,0,0,1-.72,0,5,5,0,0,1-4.24-5.66c.14-1,.27-1.93.4-2.89a5,5,0,0,1,9.92,1.26q-.19,1.53-.42,3.06A5,5,0,0,1,430.37,284.52Zm1.77-22.91h-.05a5,5,0,0,1-4.95-5.06c0-.64,0-1.27,0-1.91v-1a5,5,0,0,1,5-5h0a5,5,0,0,1,5,5v1.06c0,.67,0,1.35,0,2A5,5,0,0,1,432.14,261.61Zm-1.27-23a5,5,0,0,1-4.95-4.4c-.12-1-.25-1.93-.38-2.89a5,5,0,1,1,9.9-1.38c.14,1,.28,2,.4,3.06a5,5,0,0,1-4.36,5.57A4.17,4.17,0,0,1,430.87,238.65Zm-4.28-22.59a5,5,0,0,1-4.83-3.75c-.25-.94-.5-1.88-.76-2.82a5,5,0,0,1,9.64-2.67c.27,1,.54,2,.8,3a5,5,0,0,1-3.59,6.1A5,5,0,0,1,426.59,216.06Zm-7.2-21.83a5,5,0,0,1-4.64-3.13c-.36-.9-.73-1.79-1.11-2.69a5,5,0,1,1,9.2-3.91c.4.95.8,1.9,1.18,2.85a5,5,0,0,1-4.63,6.88Zm-10-20.7A5,5,0,0,1,405,171c-.48-.85-1-1.69-1.46-2.52a5,5,0,0,1,8.62-5.08c.52.88,1,1.77,1.54,2.67a5,5,0,0,1-4.35,7.46Zm-12.6-19.21a5,5,0,0,1-4-2c-.58-.77-1.18-1.54-1.77-2.31a5,5,0,1,1,7.88-6.15c.63.81,1.26,1.62,1.87,2.44a5,5,0,0,1-4,8Zm-15-17.39a5,5,0,0,1-3.57-1.49c-.68-.7-1.36-1.38-2-2.06a5,5,0,1,1,7-7.14c.74.72,1.46,1.45,2.18,2.18a5,5,0,0,1-3.56,8.51Zm-17.16-15.27a5,5,0,0,1-3.06-1.06l-2.31-1.76a5,5,0,0,1,6-8c.82.62,1.64,1.24,2.45,1.87a5,5,0,0,1-3.08,9Zm-19-12.87a4.91,4.91,0,0,1-2.52-.69l-2.53-1.45a5,5,0,1,1,4.9-8.71q1.35.75,2.67,1.53a5,5,0,0,1-2.52,9.32ZM325.06,98.52a4.86,4.86,0,0,1-1.93-.39l-2.7-1.1a5,5,0,0,1,3.71-9.29L327,88.91a5,5,0,0,1-1.93,9.61Z"/><path class="cls-1" d="M421.47,85.18a5,5,0,0,1-3.42-1.36c-.71-.67-1.43-1.33-2.15-2a5,5,0,0,1,6.75-7.38c.75.69,1.5,1.38,2.24,2.08a5,5,0,0,1-3.42,8.65ZM404,70.27a5,5,0,0,1-3.05-1c-.77-.59-1.55-1.19-2.34-1.78a5,5,0,0,1,6-8L407,61.31a5,5,0,0,1-3.06,9ZM385.12,57.11a5,5,0,0,1-2.65-.77c-.83-.52-1.66-1-2.5-1.55a5,5,0,0,1,5.22-8.53l2.6,1.61a5,5,0,0,1-2.67,9.24Zm-20-11.29a5,5,0,0,1-2.24-.53L360.24,44a5,5,0,1,1,4.37-9l2.74,1.35a5,5,0,0,1-2.25,9.47Zm-21-9.31a5,5,0,0,1-1.81-.34l-2.74-1A5,5,0,0,1,343,25.76c1,.35,1.91.72,2.86,1.08a5,5,0,0,1-1.8,9.67ZM183.33,31.7a5,5,0,0,1-1.54-9.76c1-.32,2-.62,2.93-.92a5,5,0,1,1,2.94,9.55l-2.8.88A4.81,4.81,0,0,1,183.33,31.7Zm139-2.47a5,5,0,0,1-1.37-.19l-.44-.12-2.39-.66a5,5,0,1,1,2.6-9.66l2.47.68.49.14a5,5,0,0,1-1.36,9.81ZM205.52,25.7a5,5,0,0,1-1.07-9.89l3-.64a5,5,0,0,1,2,9.8c-1,.19-1.92.4-2.87.61A5.1,5.1,0,0,1,205.52,25.7ZM299.9,24A4.56,4.56,0,0,1,299,24c-1-.18-1.93-.35-2.9-.51a5,5,0,0,1,1.68-9.86l3,.53a5,5,0,0,1-.9,9.92Zm-71.71-2.19a5,5,0,0,1-.6-10l3-.35a5,5,0,1,1,1.07,9.94l-2.92.34Q228.49,21.84,228.19,21.84ZM277.11,21l-.43,0c-1-.09-1.95-.16-2.93-.23a5,5,0,0,1,.73-10l3,.24a5,5,0,0,1-.42,10Zm-26-.8a5,5,0,0,1-.11-10l3.06,0h.06a5,5,0,0,1,.05,10l-2.93.05Z"/><path class="cls-1" d="M249.83,501.24h-.15l-3.06-.12a5,5,0,1,1,.43-10l2.93.11a5,5,0,0,1-.15,10Zm20-.23a5,5,0,0,1-.27-10l2.95-.17a5,5,0,1,1,.66,10l-3.07.19Zm-42.92-1.57c-.21,0-.43,0-.64,0l-3-.41a5,5,0,1,1,1.39-9.9l2.91.39a5,5,0,0,1-.62,10Zm65.8-.77a5,5,0,0,1-.74-9.94l2.9-.46a5,5,0,1,1,1.62,9.87l-3,.48A6.59,6.59,0,0,1,292.72,498.67Zm-88.45-3.22a5.22,5.22,0,0,1-1.1-.12c-1-.22-2-.45-3-.69a5,5,0,0,1,2.32-9.73c.95.23,1.91.45,2.86.66a5,5,0,0,1-1.09,9.88Zm111-1.3a5,5,0,0,1-1.22-9.85l2.85-.73a5,5,0,0,1,2.56,9.67l-3,.76A5.15,5.15,0,0,1,315.27,494.15Zm-133.17-4.8a5,5,0,0,1-1.56-.25l-2.9-1a5,5,0,1,1,3.22-9.46l2.79.93a5,5,0,0,1-1.55,9.75Zm155.18-1.85a5,5,0,0,1-1.67-9.71l2.76-1a5,5,0,0,1,3.47,9.37c-1,.36-1.92.71-2.89,1A4.9,4.9,0,0,1,337.28,487.5ZM160.6,481.18a5,5,0,0,1-2-.41l-2.8-1.24a5,5,0,1,1,4.11-9.12l2.68,1.19a5,5,0,0,1-2,9.58Zm198-2.4a5,5,0,0,1-2.12-9.53L359.1,468a5,5,0,1,1,4.33,9l-2.76,1.31A5,5,0,0,1,358.56,478.78ZM140,471a5,5,0,0,1-2.42-.62c-.9-.5-1.79-1-2.67-1.51a5,5,0,0,1,5-8.68c.85.49,1.7,1,2.56,1.44A5,5,0,0,1,140,471Zm238.92-2.92a5,5,0,0,1-2.54-9.31l2.52-1.5a5,5,0,1,1,5.18,8.55l-2.63,1.57A5,5,0,0,1,378.91,468.08Zm19.24-12.58a5,5,0,0,1-2.94-9.05l2.37-1.73a5,5,0,0,1,6,8l-2.46,1.81A5,5,0,0,1,398.15,455.5Zm18-14.35a5,5,0,0,1-3.31-8.75l2.19-1.95a5,5,0,1,1,6.7,7.42c-.75.68-1.51,1.36-2.28,2A5,5,0,0,1,416.1,441.15Zm16.5-16a5,5,0,0,1-3.65-8.42c.67-.71,1.34-1.43,2-2.15a5,5,0,1,1,7.38,6.75c-.69.75-1.38,1.5-2.08,2.24A5,5,0,0,1,432.6,425.16Zm14.89-17.5a5,5,0,0,1-3.95-8.05c.59-.77,1.19-1.55,1.77-2.33a5,5,0,0,1,8,6l-1.85,2.43A5,5,0,0,1,447.49,407.66Zm13.15-18.84a5,5,0,0,1-4.23-7.66l1.55-2.5a5,5,0,1,1,8.53,5.22l-1.61,2.6A5,5,0,0,1,460.64,388.82Zm11.27-20a5,5,0,0,1-4.46-7.24c.44-.88.87-1.76,1.3-2.64a5,5,0,1,1,9,4.37c-.44.92-.89,1.84-1.35,2.75A5,5,0,0,1,471.91,368.79Zm9.31-21a5,5,0,0,1-4.66-6.81c.35-.91.7-1.82,1-2.74a5,5,0,1,1,9.37,3.49c-.35,1-.72,1.91-1.08,2.86A5,5,0,0,1,481.22,347.77ZM488.49,326a5.15,5.15,0,0,1-1.34-.18,5,5,0,0,1-3.48-6.16l.11-.38c.23-.81.45-1.64.68-2.47a5,5,0,1,1,9.65,2.6c-.23.86-.47,1.72-.71,2.59l-.09.35A5,5,0,0,1,488.49,326Zm5.19-22.4a5.47,5.47,0,0,1-.9-.08,5,5,0,0,1-4-5.82c.17-1,.34-1.93.5-2.89a5,5,0,1,1,9.86,1.67c-.16,1-.34,2-.53,3A5,5,0,0,1,493.68,303.56Zm3-22.79-.43,0a5,5,0,0,1-4.56-5.4c.08-1,.16-2,.23-2.93a5,5,0,1,1,10,.72c-.07,1-.15,2-.24,3.05A5,5,0,0,1,496.72,280.77Zm.82-23a5,5,0,0,1-5-4.94c0-1,0-2-.06-2.93a5,5,0,1,1,10-.25c0,1,0,2,.06,3.06a5,5,0,0,1-4.95,5.06Zm-1.38-23a5,5,0,0,1-5-4.46c-.11-1-.22-1.95-.34-2.92a5,5,0,0,1,9.93-1.2c.12,1,.24,2,.35,3a5,5,0,0,1-4.43,5.51Zm-3.57-22.71a5,5,0,0,1-4.9-4c-.19-1-.4-1.91-.61-2.87a5,5,0,0,1,9.77-2.15c.22,1,.43,2,.64,3a5,5,0,0,1-3.88,5.91A4.55,4.55,0,0,1,492.59,212.13Z"/><path class="cls-1" d="M39.6,363.81A5,5,0,0,1,35.08,361c-.44-.93-.87-1.85-1.3-2.78A5,5,0,1,1,42.87,354c.41.89.82,1.77,1.24,2.66a5,5,0,0,1-2.37,6.66A4.94,4.94,0,0,1,39.6,363.81ZM30.73,342.6a5,5,0,0,1-4.7-3.3q-.53-1.44-1-2.88a5,5,0,1,1,9.44-3.3c.32.93.65,1.85,1,2.77a5,5,0,0,1-3,6.41A5.14,5.14,0,0,1,30.73,342.6Zm-6.8-22a5,5,0,0,1-4.84-3.75q-.39-1.49-.75-3a5,5,0,0,1,9.72-2.38c.23,1,.47,1.91.71,2.85a5,5,0,0,1-3.59,6.1A5.4,5.4,0,0,1,23.93,320.63Zm-4.68-22.51a5,5,0,0,1-4.93-4.22c-.16-1-.31-2-.46-3a5,5,0,1,1,9.9-1.43c.14,1,.28,1.93.44,2.9A5,5,0,0,1,20,298.06,5.25,5.25,0,0,1,19.25,298.12Zm-2.49-22.86a5,5,0,0,1-5-4.7c-.06-1-.12-2-.17-3.06a5,5,0,0,1,10-.48c0,1,.1,2,.16,2.94a5,5,0,0,1-4.69,5.29Zm-.27-23h-.18a5,5,0,0,1-4.82-5.17c0-1,.08-2.05.13-3.07a5,5,0,0,1,10,.49c-.05,1-.09,2-.12,2.93A5,5,0,0,1,16.49,252.26Zm1.94-22.91a5.12,5.12,0,0,1-.67,0,5,5,0,0,1-4.3-5.62c.14-1,.28-2,.43-3a5,5,0,1,1,9.89,1.44c-.14,1-.27,1.94-.4,2.91A5,5,0,0,1,18.43,229.35Zm4.11-22.62a4.84,4.84,0,0,1-1.13-.13,5,5,0,0,1-3.75-6c.23-1,.47-2,.71-3A5,5,0,1,1,28.08,200c-.23.95-.46,1.9-.68,2.86A5,5,0,0,1,22.54,206.73Zm6.22-22.13a4.8,4.8,0,0,1-1.58-.26A5,5,0,0,1,24,178c.33-1,.65-1.94,1-2.9a5,5,0,1,1,9.45,3.28c-.32.92-.64,1.85-1,2.78A5,5,0,0,1,28.76,184.6ZM37,163.16a5,5,0,0,1-4.57-7c.41-.93.83-1.86,1.25-2.79a5,5,0,1,1,9.1,4.16c-.41.89-.81,1.78-1.21,2.68A5,5,0,0,1,37,163.16ZM47.33,142.6a4.89,4.89,0,0,1-2.44-.64A5,5,0,0,1,43,135.15c.5-.89,1-1.77,1.52-2.66a5,5,0,1,1,8.65,5c-.49.85-1,1.7-1.46,2.55A5,5,0,0,1,47.33,142.6Zm12.22-19.47a5,5,0,0,1-4.09-7.86l1.76-2.5a5,5,0,1,1,8.13,5.83c-.57.79-1.13,1.59-1.69,2.39A5,5,0,0,1,59.55,123.13Z"/><path class="cls-1" d="M259.82,381a5,5,0,0,1,0-10c1,0,1.92,0,2.87-.06a5,5,0,0,1,.32,10q-1.56,0-3.12.06Zm-19.9-1.52a4.43,4.43,0,0,1-.81-.07c-1-.16-2.05-.34-3.07-.53a5,5,0,1,1,1.84-9.83c.94.17,1.88.34,2.83.49a5,5,0,0,1-.79,9.94Zm42.73-.83a5,5,0,0,1-1-9.9c.94-.19,1.87-.39,2.81-.61a5,5,0,0,1,2.22,9.75c-1,.23-2,.45-3.05.66A4.92,4.92,0,0,1,282.65,378.65Zm-64.94-5a5.07,5.07,0,0,1-1.74-.31c-1-.36-1.95-.74-2.92-1.13a5,5,0,1,1,3.7-9.28c.9.35,1.79.7,2.69,1a5,5,0,0,1-1.73,9.69Zm86.9-1.69a5,5,0,0,1-1.92-9.62c.89-.37,1.76-.75,2.63-1.13a5,5,0,1,1,4.07,9.13c-.95.42-1.9.83-2.86,1.23A5,5,0,0,1,304.61,372ZM197,363.62a4.94,4.94,0,0,1-2.6-.74c-.89-.54-1.77-1.1-2.65-1.66a5,5,0,0,1,5.43-8.4c.8.52,1.62,1,2.44,1.53a5,5,0,0,1-2.62,9.27Zm127.82-2.48a5,5,0,0,1-2.77-9.16l2.37-1.63a5,5,0,0,1,5.75,8.19c-.86.59-1.71,1.18-2.58,1.76A5,5,0,0,1,324.85,361.14ZM178.68,349.81a5,5,0,0,1-3.37-1.31c-.77-.71-1.53-1.42-2.28-2.14a5,5,0,0,1,6.93-7.21c.69.67,1.39,1.32,2.1,2a5,5,0,0,1-3.38,8.69Zm164-3.17a5,5,0,0,1-3.52-8.55c.68-.68,1.36-1.36,2-2a5,5,0,1,1,7.2,6.94c-.72.74-1.45,1.49-2.19,2.22A5,5,0,0,1,342.65,346.64ZM163.32,332.76a5,5,0,0,1-4-2c-.62-.83-1.22-1.68-1.82-2.53a5,5,0,0,1,8.18-5.75c.55.79,1.11,1.56,1.68,2.33a5,5,0,0,1-4,8Zm194-3.75a5,5,0,0,1-4.12-7.82c.54-.79,1.06-1.59,1.59-2.39a5,5,0,1,1,8.39,5.42c-.56.88-1.14,1.75-1.73,2.61A5,5,0,0,1,357.35,329ZM151.5,313.09a5,5,0,0,1-4.52-2.85c-.45-.94-.88-1.88-1.31-2.83a5,5,0,1,1,9.14-4.07c.39.87.79,1.74,1.2,2.6a5,5,0,0,1-4.51,7.15Zm216.91-4.21a4.9,4.9,0,0,1-2-.41,5,5,0,0,1-2.62-6.56c.37-.89.74-1.77,1.1-2.66a5,5,0,1,1,9.28,3.7c-.38,1-.78,1.94-1.2,2.9A5,5,0,0,1,368.41,308.88ZM143.68,291.51a5,5,0,0,1-4.84-3.77c-.26-1-.5-2-.73-3a5,5,0,0,1,9.75-2.22c.21.93.44,1.86.67,2.79a5,5,0,0,1-3.61,6.08A4.8,4.8,0,0,1,143.68,291.51ZM375.38,287a4.68,4.68,0,0,1-1.05-.11,5,5,0,0,1-3.85-5.93q.3-1.41.57-2.82a5,5,0,0,1,9.83,1.84c-.19,1-.4,2.05-.62,3.07A5,5,0,0,1,375.38,287ZM140.19,268.82a5,5,0,0,1-5-4.72c-.06-1-.1-2.08-.14-3.12a5,5,0,1,1,10-.32q0,1.44.12,2.88a5,5,0,0,1-4.71,5.27ZM378,264.17h-.09a5,5,0,0,1-4.91-5.09c0-.69,0-1.38,0-2.08v-.79a5,5,0,0,1,5-5h0a5,5,0,0,1,5,5V257c0,.76,0,1.51,0,2.27A5,5,0,0,1,378,264.17Zm-236.89-18.3a5.27,5.27,0,0,1-.68,0,5,5,0,0,1-4.28-5.63c.14-1,.29-2.07.46-3.09a5,5,0,1,1,9.87,1.59c-.15.94-.29,1.89-.42,2.84A5,5,0,0,1,141.09,245.87Zm235.11-4.58a5,5,0,0,1-4.92-4.14c-.17-1-.34-1.89-.53-2.82a5,5,0,0,1,9.8-2c.2,1,.4,2,.58,3.07a5,5,0,0,1-4.06,5.79A5.31,5.31,0,0,1,376.2,241.29Zm-6.14-22.12a5,5,0,0,1-4.67-3.2c-.34-.89-.69-1.78-1.06-2.66a5,5,0,0,1,9.23-3.84c.4,1,.79,1.93,1.16,2.9a5,5,0,0,1-4.66,6.8Zm-10.29-20.5a5,5,0,0,1-4.24-2.34c-.51-.81-1-1.61-1.56-2.41a5,5,0,0,1,8.33-5.54c.58.87,1.14,1.74,1.69,2.62a5,5,0,0,1-4.22,7.67Zm-14-18.16a5,5,0,0,1-3.64-1.57c-.66-.7-1.32-1.39-2-2.07a5,5,0,0,1,7.12-7c.73.74,1.45,1.49,2.17,2.25a5,5,0,0,1-3.65,8.42Zm-17.26-15.14a5,5,0,0,1-2.92-.94c-.78-.56-1.56-1.12-2.35-1.66a5,5,0,0,1,5.63-8.26c.87.59,1.72,1.19,2.56,1.8a5,5,0,0,1-2.92,9.06Zm-132.81-4.12A5,5,0,0,1,193,152c.88-.56,1.77-1.1,2.66-1.63a5,5,0,1,1,5.12,8.59c-.83.49-1.64,1-2.45,1.5A5,5,0,0,1,195.65,161.25Zm113-7.44a5,5,0,0,1-2.09-.46c-.87-.4-1.75-.79-2.63-1.17a5,5,0,1,1,3.94-9.19c1,.41,1.92.84,2.87,1.27a5,5,0,0,1-2.09,9.55ZM216.16,151a5,5,0,0,1-1.8-9.67c1-.38,1.95-.74,2.93-1.09a5,5,0,0,1,3.37,9.42c-.91.32-1.81.65-2.7,1A5,5,0,0,1,216.16,151Zm70.75-4.66a4.68,4.68,0,0,1-1.17-.14c-.93-.22-1.86-.43-2.8-.63a5,5,0,1,1,2.09-9.78c1,.22,2,.45,3.05.69a5,5,0,0,1-1.17,9.86Zm-48.63-1.49a5,5,0,0,1-.86-9.93c1-.18,2.05-.34,3.08-.5a5,5,0,1,1,1.48,9.89c-.95.14-1.89.3-2.83.46A5.21,5.21,0,0,1,238.28,144.8Zm25.9-1.69H264c-1-.05-1.91-.07-2.88-.09a5,5,0,0,1,.19-10q1.56,0,3.12.09a5,5,0,0,1-.21,10Z"/></g></svg>