<?xml version="1.0" ?><svg viewBox="0 0 512 512" xmlns="http://www.w3.org/2000/svg"><defs><style>.cls-1{fill:#3f456b;}</style></defs><title/><g id="Lines"><path class="cls-1" d="M280.29,122H279a5,5,0,0,1,0-10h1.29a5,5,0,0,1,0,10Z"/><path class="cls-1" d="M319.11,122h-1.29a5,5,0,0,1,0-10h1.29a5,5,0,0,1,0,10Z"/><path class="cls-1" d="M356.63,122h-1.29a5,5,0,0,1,0-10h1.29a5,5,0,0,1,0,10Z"/><path class="cls-1" d="M280.29,83H279a5,5,0,0,1,0-10h1.29a5,5,0,0,1,0,10Z"/><path class="cls-1" d="M319.11,83h-1.29a5,5,0,0,1,0-10h1.29a5,5,0,0,1,0,10Z"/><path class="cls-1" d="M356.63,83h-1.29a5,5,0,0,1,0-10h1.29a5,5,0,0,1,0,10Z"/><path class="cls-1" d="M499,461a5,5,0,0,1-5-5V97c0-.36-.13-33.91-21.94-55.79C459.36,28.46,441.68,22,419.5,22H99.5c-24.11,0-43,6.85-56.08,20.36C22.26,64.18,23,96.52,23,96.84V456a5,5,0,0,1-10,0V97.07c-.07-2.47-.57-37.06,23.17-61.6C51.23,19.9,72.54,12,99.5,12h320c25,0,45.06,7.47,59.71,22.22C504,59.11,504,95.49,504,97V456A5,5,0,0,1,499,461Z"/><path class="cls-1" d="M496,177H18a5,5,0,0,1,0-10H496a5,5,0,0,1,0,10Z"/><path class="cls-1" d="M339,215H177a5,5,0,0,1,0-10H339a5,5,0,0,1,0,10Z"/><path class="cls-1" d="M451,461H68a5,5,0,0,1,0-10H451a5,5,0,0,1,0,10Z"/><path class="cls-1" d="M451,502a5,5,0,0,1-5-5V286a25,25,0,0,0-25-25H96a25,25,0,0,0-25,25V497a5,5,0,0,1-10,0V286a35,35,0,0,1,35-35H421a35,35,0,0,1,35,35V497A5,5,0,0,1,451,502Z"/><path class="cls-1" d="M342,303H174a25,25,0,0,1-25-25V256a5,5,0,0,1,10,0v22a15,15,0,0,0,15,15H342a15,15,0,0,0,15-15V256a5,5,0,0,1,10,0v22A25,25,0,0,1,342,303Z"/><path class="cls-1" d="M228,134H67a5,5,0,0,1-5-5V67a5,5,0,0,1,5-5H228a5,5,0,0,1,5,5v62A5,5,0,0,1,228,134ZM72,124H223V72H72Z"/><path class="cls-1" d="M477.51,502H39c-14.6,0-26-11-26-25V453a5,5,0,0,1,10,0v24c0,8.41,7,15,16,15H477.51c9.09,0,16.49-6.73,16.49-15V450a5,5,0,0,1,10,0v27C504,490.79,492.11,502,477.51,502Z"/><path class="cls-1" d="M406,177a5,5,0,0,1-5-5V18a5,5,0,0,1,10,0V172A5,5,0,0,1,406,177Z"/></g><g id="Outline"><path class="cls-1" d="M331.43,421a5,5,0,0,1,5-5h0a5,5,0,0,1,5,5h0a5,5,0,0,1-5,5h0A5,5,0,0,1,331.43,421Zm-20,0a5,5,0,0,1,5-5h0a5,5,0,0,1,5,5h0a5,5,0,0,1-5,5h0A5,5,0,0,1,311.43,421Zm-20,0a5,5,0,0,1,5-5h0a5,5,0,0,1,5,5h0a5,5,0,0,1-5,5h0A5,5,0,0,1,291.43,421Zm-20,0a5,5,0,0,1,5-5h0a5,5,0,0,1,5,5h0a5,5,0,0,1-5,5h0A5,5,0,0,1,271.43,421Zm-20,0a5,5,0,0,1,5-5h0a5,5,0,0,1,5,5h0a5,5,0,0,1-5,5h0A5,5,0,0,1,251.43,421Zm-20,0a5,5,0,0,1,5-5h0a5,5,0,0,1,5,5h0a5,5,0,0,1-5,5h0A5,5,0,0,1,231.43,421Zm-20,0a5,5,0,0,1,5-5h0a5,5,0,0,1,5,5h0a5,5,0,0,1-5,5h0A5,5,0,0,1,211.43,421Zm-20,0a5,5,0,0,1,5-5h0a5,5,0,0,1,5,5h0a5,5,0,0,1-5,5h0A5,5,0,0,1,191.43,421Zm-20,0a5,5,0,0,1,5-5h0a5,5,0,0,1,5,5h0a5,5,0,0,1-5,5h0A5,5,0,0,1,171.43,421Z"/><path class="cls-1" d="M331.43,421a5,5,0,0,1,5-5h0a5,5,0,0,1,5,5h0a5,5,0,0,1-5,5h0A5,5,0,0,1,331.43,421Zm-20,0a5,5,0,0,1,5-5h0a5,5,0,0,1,5,5h0a5,5,0,0,1-5,5h0A5,5,0,0,1,311.43,421Zm-20,0a5,5,0,0,1,5-5h0a5,5,0,0,1,5,5h0a5,5,0,0,1-5,5h0A5,5,0,0,1,291.43,421Zm-20,0a5,5,0,0,1,5-5h0a5,5,0,0,1,5,5h0a5,5,0,0,1-5,5h0A5,5,0,0,1,271.43,421Zm-20,0a5,5,0,0,1,5-5h0a5,5,0,0,1,5,5h0a5,5,0,0,1-5,5h0A5,5,0,0,1,251.43,421Zm-20,0a5,5,0,0,1,5-5h0a5,5,0,0,1,5,5h0a5,5,0,0,1-5,5h0A5,5,0,0,1,231.43,421Zm-20,0a5,5,0,0,1,5-5h0a5,5,0,0,1,5,5h0a5,5,0,0,1-5,5h0A5,5,0,0,1,211.43,421Zm-20,0a5,5,0,0,1,5-5h0a5,5,0,0,1,5,5h0a5,5,0,0,1-5,5h0A5,5,0,0,1,191.43,421Zm-20,0a5,5,0,0,1,5-5h0a5,5,0,0,1,5,5h0a5,5,0,0,1-5,5h0A5,5,0,0,1,171.43,421Z"/></g></svg>