<?xml version="1.0" ?><svg viewBox="0 0 512 512" xmlns="http://www.w3.org/2000/svg"><defs><style>.cls-1{fill:#3f456b;}</style></defs><title/><g id="Lines"><path class="cls-1" d="M194.78,167.32a5,5,0,0,1-4.19-2.25L128.54,70.63a5,5,0,1,1,8.35-5.49L199,159.57a5,5,0,0,1-4.17,7.75Z"/><path class="cls-1" d="M62.41,372A5,5,0,0,1,58,369.27l-3.45-6.78a229,229,0,1,1,403.94.08.56.56,0,0,0-.05.08L455,368.83a5.07,5.07,0,0,1-3,2.38,5,5,0,0,1-3.82-.49l-97.17-56a5,5,0,0,1-1.87-6.77l2.06-3.69a106,106,0,1,0-186.86.81l1.36,2.42a5,5,0,0,1-1.86,6.78l-98.84,57A5,5,0,0,1,62.41,372ZM454,360.2h0ZM256.5,35.5A219.07,219.07,0,0,0,63.35,357.81a.93.93,0,0,1,0,.1L64.48,360l90-51.94a116,116,0,1,1,205.66.46l88.52,51,1-1.73A219,219,0,0,0,256.5,35.5Z"/></g><g id="Outline"><path class="cls-1" d="M282,401H127a5,5,0,0,1,0-10H282a5,5,0,0,1,0,10Z"/><path class="cls-1" d="M282,429H127a5,5,0,0,1,0-10H282a5,5,0,0,1,0,10Z"/><path class="cls-1" d="M282,457H127a5,5,0,0,1,0-10H282a5,5,0,0,1,0,10Z"/><path class="cls-1" d="M204,485H127a5,5,0,0,1,0-10h77a5,5,0,0,1,0,10Z"/><path class="cls-1" d="M202.05,314.87a5,5,0,0,1-3.54-8.53l108.9-108.9a5,5,0,1,1,7.07,7.08L205.58,313.41A4.94,4.94,0,0,1,202.05,314.87Z"/><path class="cls-1" d="M291.94,325a33.69,33.69,0,0,1,0-67.38h0a33.72,33.72,0,0,1,33.69,33.69h0A33.72,33.72,0,0,1,291.94,325Zm0-57.38a23.69,23.69,0,1,0,23.69,23.69A23.5,23.5,0,0,0,291.94,267.62Z"/><path class="cls-1" d="M221.94,255a33.69,33.69,0,1,1,33.69-33.69A33.72,33.72,0,0,1,221.94,255Zm0-57.38a23.69,23.69,0,1,0,23.69,23.69A23.72,23.72,0,0,0,221.94,197.62Z"/></g></svg>