<?xml version="1.0" encoding="iso-8859-1"?>
<!-- Generator: Adobe Illustrator 19.0.0, SVG Export Plug-In . SVG Version: 6.00 Build 0)  -->
<svg version="1.1" id="Capa_1" xmlns="http://www.w3.org/2000/svg" xmlns:xlink="http://www.w3.org/1999/xlink" x="0px" y="0px"
	 viewBox="0 0 512 512" style="enable-background:new 0 0 512 512;" xml:space="preserve">
<g>
	<g>
		<path d="M426.667,426.667c-14.549,0-27.413,7.339-35.115,18.517l-95.296-47.637c1.451-4.288,2.411-8.789,2.411-13.547
			s-0.96-9.237-2.411-13.525l95.296-47.659c7.723,11.179,20.565,18.517,35.115,18.517c23.531,0,42.667-19.136,42.667-42.667
			c0-23.531-19.136-42.667-42.667-42.667S384,275.136,384,298.667c0,1.323,0.277,2.581,0.384,3.883l-99.883,49.941
			c-7.552-6.869-17.493-11.157-28.501-11.157c-23.531,0-42.667,19.136-42.667,42.667c0,23.531,19.136,42.667,42.667,42.667
			c11.008,0,20.949-4.288,28.523-11.157l99.883,49.941c-0.128,1.301-0.405,2.56-0.405,3.883C384,492.864,403.136,512,426.667,512
			s42.667-19.136,42.667-42.667C469.333,445.803,450.197,426.667,426.667,426.667z M426.667,277.333
			c11.776,0,21.333,9.579,21.333,21.333c0,11.755-9.557,21.333-21.333,21.333s-21.333-9.579-21.333-21.333
			C405.333,286.912,414.891,277.333,426.667,277.333z M256,405.333c-11.776,0-21.333-9.579-21.333-21.333
			c0-11.755,9.557-21.333,21.333-21.333c11.776,0,21.333,9.579,21.333,21.333C277.333,395.755,267.776,405.333,256,405.333z
			 M426.667,490.667c-11.776,0-21.333-9.579-21.333-21.333c0-11.755,9.557-21.333,21.333-21.333S448,457.579,448,469.333
			C448,481.088,438.443,490.667,426.667,490.667z"/>
	</g>
</g>
<g>
	<g>
		<path d="M394.667,42.667h-55.296c-4.416-12.395-16.149-21.333-30.037-21.333h-37.845C263.936,8.32,249.963,0,234.667,0
			c-15.296,0-29.269,8.32-36.821,21.333H160c-13.888,0-25.621,8.939-30.037,21.333H74.667c-17.643,0-32,14.357-32,32V480
			c0,17.643,14.357,32,32,32H352c5.888,0,10.667-4.779,10.667-10.667c0-5.888-4.779-10.667-10.667-10.667H74.667
			C68.8,490.667,64,485.888,64,480V74.667C64,68.779,68.8,64,74.667,64H128v10.667c0,5.888,4.779,10.667,10.667,10.667h192
			c5.888,0,10.667-4.779,10.667-10.667V64h53.333c5.867,0,10.667,4.779,10.667,10.667V224c0,5.888,4.779,10.667,10.667,10.667
			c5.888,0,10.667-4.779,10.667-10.667V74.667C426.667,57.024,412.309,42.667,394.667,42.667z M320,64H149.333V53.333
			c0-5.888,4.8-10.667,10.667-10.667h44.629c4.523,0,8.533-2.837,10.027-7.083c3.051-8.512,11.093-14.251,20.011-14.251
			c8.917,0,16.96,5.739,19.989,14.251c1.515,4.245,5.525,7.083,10.048,7.083h44.629c5.867,0,10.667,4.779,10.667,10.667V64z"/>
	</g>
</g>
<g>
</g>
<g>
</g>
<g>
</g>
<g>
</g>
<g>
</g>
<g>
</g>
<g>
</g>
<g>
</g>
<g>
</g>
<g>
</g>
<g>
</g>
<g>
</g>
<g>
</g>
<g>
</g>
<g>
</g>
</svg>
