<?xml version="1.0" ?><svg viewBox="0 0 512 512" xmlns="http://www.w3.org/2000/svg"><defs><style>.cls-1{fill:#3f456b;}</style></defs><title/><g id="Lines"><path class="cls-1" d="M305,341H273.88a5,5,0,0,1,0-10h27.77c23-56.52,34.79-102.19,37-143.5,1.76-33-3.89-66.52-15.92-94.43C308,58.93,285,34.67,254.15,21a5,5,0,0,1,4.07-9.14c32.7,14.56,58.19,41.29,73.71,77.29,12.62,29.3,18.56,64.43,16.71,98.92-2.31,43.22-14.71,90.85-39,149.87A5,5,0,0,1,305,341Z"/><path class="cls-1" d="M239.75,341H209a5,5,0,0,1-4.59-3C177.49,276,165,231.08,162.78,187.92c-1.8-34.5,4.17-69.65,16.84-99,15.56-36,41.08-62.75,73.79-77.27a5,5,0,0,1,4.06,9.14c-30.81,13.68-53.92,37.93-68.67,72.1-12.07,27.93-17.76,61.48-16,94.48,2.16,41.2,14,84.28,39.52,143.6h27.46a5,5,0,0,1,0,10Z"/><path class="cls-1" d="M255.36,228A60.68,60.68,0,1,1,316,167.33h0A60.75,60.75,0,0,1,255.36,228Zm0-111.35A50.68,50.68,0,1,0,306,167.33,50.73,50.73,0,0,0,255.36,116.65Z"/><path class="cls-1" d="M321,85h0l-130.69-.5a5,5,0,1,1,0-10L321,75a5,5,0,0,1,0,10Z"/><path class="cls-1" d="M257,373a21,21,0,0,1-21-21V272a21,21,0,0,1,42,0v80A21,21,0,0,1,257,373Zm0-112a11,11,0,0,0-11,11v80a11,11,0,0,0,22,0V272A11,11,0,0,0,257,261Z"/><path class="cls-1" d="M145,373a5,5,0,0,1-5-5V303c0-25.26,10.29-38.59,18.93-45.32A42.86,42.86,0,0,1,178.42,249a5,5,0,0,1,1.19,9.93c-1.28.17-29.61,4.33-29.61,44v56.91l56.76-28.38a5,5,0,1,1,4.48,8.94l-64,32A5.08,5.08,0,0,1,145,373Z"/><path class="cls-1" d="M368,373a5,5,0,0,1-2.24-.53l-64-32a5,5,0,0,1,4.48-8.94L363,359.91V303c0-17.07-4.92-29.68-14.63-37.48a31.61,31.61,0,0,0-14-6.56,5,5,0,0,1,1.2-9.92,41,41,0,0,1,19,8.69C363,264.46,373,277.77,373,303v65a5,5,0,0,1-5,5Z"/><path class="cls-1" d="M239,308.33H197.67a5,5,0,0,1,0-10H239a5,5,0,0,1,0,10Z"/><path class="cls-1" d="M317,308.33H273.67a5,5,0,0,1,0-10H317a5,5,0,0,1,0,10Z"/><path class="cls-1" d="M209,459a5,5,0,0,1-5-5V335a5,5,0,0,1,10,0V454A5,5,0,0,1,209,459Z"/><path class="cls-1" d="M304,417a5,5,0,0,1-5-5V335a5,5,0,0,1,10,0v77A5,5,0,0,1,304,417Z"/><path class="cls-1" d="M476,501H53c-7.72,0-19.19-5.06-26.12-19.33-8-16.39-6.67-36.16,3.33-50.37a50.27,50.27,0,0,1,43.63-21.07,51.57,51.57,0,0,1,39,20c8.1-6.67,18.68-9.45,31-8.06a66.76,66.76,0,0,1,14.06,3.22c13.06-35,51.32-30.89,51.72-30.85a5,5,0,0,1-1.16,9.94h0c-1.39-.16-33.88-3.44-42.6,28.83a5,5,0,0,1-7,3.2c-1.12-.54-27.78-13-43,4.75a5,5,0,0,1-8.13-.74A41.3,41.3,0,0,0,73.4,420.22c-14.28-.62-27,5.51-35,16.84s-8.92,27.07-2.52,40.24C39.08,483.9,45.81,491,53,491H475.05c18.36-7.6,11.48-30.53,11.17-31.52-7.55-23.51-35.16-18.77-36.33-18.56A5,5,0,0,1,444,436c0-1.56-.57-38.53-35.5-42-14.87-1.49-27.05,3.15-36.21,13.78a50.19,50.19,0,0,0-9.49,16.63,5,5,0,0,1-8,2.45c-11.83-9.86-25.61-13.53-41-10.91-34,5.81-35.77,28.32-35.84,31.58V448a5,5,0,0,1-10,.17V393a5,5,0,0,1,10,0v30.13c6.19-7,16.63-14.07,34.16-17.06,16.06-2.74,30.71.29,43.62,9a61.38,61.38,0,0,1,8.93-13.84c7.85-9.11,22-19.5,44.79-17.22,23.05,2.31,34,16.47,39.07,28a65.93,65.93,0,0,1,5,18.48c13.85-.76,35,3.79,42.17,26,3.61,11.64,4.47,35.78-18,44.21A5.07,5.07,0,0,1,476,501Z"/><path class="cls-1" d="M187,473a5,5,0,0,1-3.28-1.23,5,5,0,0,1-.49-7c21.68-24.93,56.34-17.92,57.81-17.61a5,5,0,0,1-2.07,9.78c-.43-.09-30.47-6-48.2,14.39A5,5,0,0,1,187,473Z"/><path class="cls-1" d="M241,404a5,5,0,0,1-5-5V341a5,5,0,0,1,10,0v58A5,5,0,0,1,241,404Z"/><path class="cls-1" d="M257,246c-30.2,0-41.36-10.29-42.54-11.46a5,5,0,0,1,7-7.13c.3.27,9.75,8.59,35.52,8.59,21.9,0,34.62-10.69,34.75-10.8a5,5,0,0,1,6.5,7.6C297.62,233.34,282.56,246,257,246Z"/><path class="cls-1" d="M160,457a5,5,0,0,1-4.82-3.68c-3.41-12.49,2-26,2.21-26.55a5,5,0,0,1,9.26,3.76c-.08.22-4.32,11-1.83,20.15a5,5,0,0,1-3.5,6.14A5.05,5.05,0,0,1,160,457Z"/><path class="cls-1" d="M372,446a5,5,0,0,1-4.39-2.61,67.47,67.47,0,0,0-12.9-16.63,5,5,0,0,1,6.58-7.52,76.72,76.72,0,0,1,15.1,19.37A5,5,0,0,1,372,446Z"/><path class="cls-1" d="M360,212H342a5,5,0,0,1,0-10h18a5,5,0,0,1,0,10Z"/><path class="cls-1" d="M407.46,306H368a5,5,0,0,1,0-10h34.46V138c0-22.76-12.71-33.58-18-37.09a42.59,42.59,0,0,0-19,37.32,4.15,4.15,0,0,1,0,.49V271a5,5,0,0,1-10,0V138.89c-.27-3.35-1.6-31.28,26.25-48.17a5,5,0,0,1,4.72-.25c1.06.5,26,12.61,26,47.48V301A5,5,0,0,1,407.46,306Z"/><path class="cls-1" d="M418.69,340H368.83a5,5,0,1,1,0-10h43l-8.77-27.5a5,5,0,1,1,9.52-3l10.86,34a5,5,0,0,1-4.76,6.52Z"/><path class="cls-1" d="M406.29,166.92H360.5a5,5,0,0,1,0-10h45.79a5,5,0,0,1,0,10Z"/><path class="cls-1" d="M168.69,212h-17a5,5,0,0,1,0-10h17a5,5,0,0,1,0,10Z"/><path class="cls-1" d="M143.69,306H104.23a5,5,0,0,1-5-5V138c0-34.87,24.93-47,26-47.48a5,5,0,0,1,4.72.25c27.85,16.89,26.52,44.82,26.25,48.17V274a5,5,0,0,1-10,0V138.67a4.36,4.36,0,0,1,0-.51,42.56,42.56,0,0,0-19-37.3c-5.31,3.49-18,14.23-18,37.09V296h34.46a5,5,0,0,1,0,10Z"/><path class="cls-1" d="M142.86,340H93a5,5,0,0,1-4.76-6.52l10.86-34a5,5,0,1,1,9.52,3L99.84,330h43a5,5,0,0,1,0,10Z"/><path class="cls-1" d="M151.19,166.92H105.4a5,5,0,0,1,0-10h45.79a5,5,0,0,1,0,10Z"/><path class="cls-1" d="M372.5,404.81a5,5,0,0,1-3.89-1.85c-11.63-14.32-17.92-28.2-18.68-41.25a5,5,0,1,1,10-.58c.64,10.91,6.18,22.86,16.46,35.52a5,5,0,0,1-3.87,8.16Z"/><path class="cls-1" d="M401.35,393.18a5,5,0,0,1-4.26-7.61c18.72-30.65,1-46.79.8-46.95a5,5,0,0,1,6.61-7.51,36.37,36.37,0,0,1,9.49,16c5,16.65-1.81,32.94-8.37,43.67A5,5,0,0,1,401.35,393.18Z"/><path class="cls-1" d="M128.77,416a5.43,5.43,0,0,1-3.86-1.64c-19.87-20-29.64-39.13-29-56.82.57-17,10.71-26.05,11.15-26.43a5,5,0,0,1,6.6,7.51c-.28.25-7.44,6.89-7.77,19.53-.35,13.62,7.55,29.39,22.91,45.8,14.23-15.12,21.91-29.33,22.84-42.27a5,5,0,1,1,10,.72c-1.17,16.31-10.88,33.75-28.85,51.84a5.29,5.29,0,0,1-3.51,1.74Zm-3.8-8Zm7-.65h0Z"/><path class="cls-1" d="M474,443.42a5,5,0,0,1-2.52-9.32,42,42,0,1,0-62.26-44.91,5,5,0,1,1-9.79-2,52,52,0,1,1,77.08,55.57A5,5,0,0,1,474,443.42Z"/><path class="cls-1" d="M84.41,270.77a52,52,0,1,1,20.25-100,5,5,0,1,1-3.89,9.21,42,42,0,1,0,.72,77.14,5,5,0,0,1,4.07,9.13A51.68,51.68,0,0,1,84.41,270.77Z"/><path class="cls-1" d="M450.41,116.77a52,52,0,1,1,52-52A52.09,52.09,0,0,1,450.41,116.77Zm0-94a42,42,0,1,0,42,42A42.08,42.08,0,0,0,450.41,22.72Z"/><path class="cls-1" d="M241,424a5,5,0,0,1-5-5v-4a5,5,0,0,1,10,0v4A5,5,0,0,1,241,424Z"/></g><g id="Outline"><path class="cls-1" d="M450.41,423.11a25.81,25.81,0,0,1-4.48-.39,5,5,0,0,1,1.76-9.85,15.37,15.37,0,1,0-12.57-16.64,5,5,0,1,1-9.95-1,25.36,25.36,0,1,1,25.24,27.85Z"/><path class="cls-1" d="M84.41,244.11a25.37,25.37,0,1,1,23-36,5,5,0,1,1-9.07,4.22,15.36,15.36,0,1,0,.48,11.76,5,5,0,0,1,9.39,3.45A25.46,25.46,0,0,1,84.41,244.11Z"/><path class="cls-1" d="M434,292a5,5,0,0,1-5-5v-1a5,5,0,0,1,10,0v1A5,5,0,0,1,434,292Zm0-21a5,5,0,0,1-5-5v-1a5,5,0,0,1,10,0v1A5,5,0,0,1,434,271Zm0-21a5,5,0,0,1-5-5v-1a5,5,0,0,1,10,0v1A5,5,0,0,1,434,250Zm0-21a5,5,0,0,1-5-5v-1a5,5,0,0,1,10,0v1A5,5,0,0,1,434,229Zm0-21a5,5,0,0,1-5-5v-1a5,5,0,0,1,10,0v1A5,5,0,0,1,434,208Zm0-21a5,5,0,0,1-5-5v-1a5,5,0,0,1,10,0v1A5,5,0,0,1,434,187Zm0-21a5,5,0,0,1-5-5v-1a5,5,0,0,1,10,0v1A5,5,0,0,1,434,166Zm0-21a5,5,0,0,1-5-5v-1a5,5,0,0,1,10,0v1A5,5,0,0,1,434,145Z"/><path class="cls-1" d="M480,224a5,5,0,0,1-5-5v-1a5,5,0,0,1,10,0v1A5,5,0,0,1,480,224Zm0-21a5,5,0,0,1-5-5v-1a5,5,0,0,1,10,0v1A5,5,0,0,1,480,203Zm0-21a5,5,0,0,1-5-5v-1a5,5,0,0,1,10,0v1A5,5,0,0,1,480,182Z"/><path class="cls-1" d="M254.84,195.57c-13.33,0-22.11-6.81-22.43-17.45a5,5,0,1,1,10-.3c.21,7.14,9,7.79,12.82,7.74s7.3-1.46,9.15-3.6a5.64,5.64,0,0,0,1.32-4.68c-.25-1.89-1.12-4-8.33-5.19l-2.1-.32c-6.2-.94-13.9-2.1-19.06-9.39a13.27,13.27,0,0,1-2.27-10.25,18.33,18.33,0,0,1,7.85-11.49c5.72-3.89,14.46-4.5,21.74-1.51a21.1,21.1,0,0,1,11.71,11.69,5,5,0,0,1-9.32,3.64,11.21,11.21,0,0,0-6.18-6.08c-4.18-1.71-9.37-1.49-12.34.53a8.47,8.47,0,0,0-3.62,5,3.37,3.37,0,0,0,.6,2.69c2.56,3.62,6.37,4.36,12.38,5.27l2.22.34c3.75.61,15.16,2.47,16.63,13.76a15.53,15.53,0,0,1-3.67,12.53c-3.75,4.33-9.95,7-16.58,7.05Z"/><path class="cls-1" d="M254.77,147.21a5,5,0,0,1-5-5V131a5,5,0,1,1,10,0v11.21A5,5,0,0,1,254.77,147.21Z"/><path class="cls-1" d="M254.77,207a5,5,0,0,1-5-5V190.79a5,5,0,1,1,10,0V202A5,5,0,0,1,254.77,207Z"/><path class="cls-1" d="M450.41,90.11a25.37,25.37,0,1,1,25.36-25.36A25.4,25.4,0,0,1,450.41,90.11Zm0-40.73a15.37,15.37,0,1,0,15.36,15.37A15.39,15.39,0,0,0,450.41,49.38Z"/><path class="cls-1" d="M16,327a5,5,0,0,1-5-5v-1a5,5,0,0,1,10,0v1A5,5,0,0,1,16,327Zm0-21a5,5,0,0,1-5-5v-1a5,5,0,0,1,10,0v1A5,5,0,0,1,16,306Zm0-21a5,5,0,0,1-5-5v-1a5,5,0,0,1,10,0v1A5,5,0,0,1,16,285Zm0-21a5,5,0,0,1-5-5v-1a5,5,0,0,1,10,0v1A5,5,0,0,1,16,264Zm0-21a5,5,0,0,1-5-5v-1a5,5,0,0,1,10,0v1A5,5,0,0,1,16,243Zm0-21a5,5,0,0,1-5-5v-1a5,5,0,0,1,10,0v1A5,5,0,0,1,16,222Zm0-21a5,5,0,0,1-5-5v-1a5,5,0,0,1,10,0v1A5,5,0,0,1,16,201Zm0-21a5,5,0,0,1-5-5v-1a5,5,0,0,1,10,0v1A5,5,0,0,1,16,180Z"/><path class="cls-1" d="M57,381a5,5,0,0,1-5-5v-1a5,5,0,0,1,10,0v1A5,5,0,0,1,57,381Zm0-21a5,5,0,0,1-5-5v-1a5,5,0,0,1,10,0v1A5,5,0,0,1,57,360Zm0-21a5,5,0,0,1-5-5v-1a5,5,0,0,1,10,0v1A5,5,0,0,1,57,339Zm0-21a5,5,0,0,1-5-5v-1a5,5,0,0,1,10,0v1A5,5,0,0,1,57,318Zm0-21a5,5,0,0,1-5-5v-1a5,5,0,0,1,10,0v1A5,5,0,0,1,57,297Z"/><path class="cls-1" d="M385,202a5,5,0,0,1-5-5v-7a5,5,0,0,1,10,0v7A5,5,0,0,1,385,202Z"/><path class="cls-1" d="M127,202a5,5,0,0,1-5-5v-7a5,5,0,0,1,10,0v7A5,5,0,0,1,127,202Z"/></g></svg>