<?xml version="1.0" ?><svg viewBox="0 0 512 512" xmlns="http://www.w3.org/2000/svg"><defs><style>.cls-1{fill:#3f456b;}</style></defs><title/><g id="Lines"><path class="cls-1" d="M431.44,83.06a5,5,0,0,1-3.54-8.53L430,72.4a5,5,0,0,1,7.08,7.07L435,81.6A5,5,0,0,1,431.44,83.06Z"/><path class="cls-1" d="M221.54,503.28a47.61,47.61,0,0,1-33.8-13.94l-163-163a48.78,48.78,0,0,1,.05-68.54L255.92,26.61c18.56-18.56,49-18.29,67.89.6l46.7,46.55a3.61,3.61,0,0,0,2.84,1.35c2.39-.1,5.35-2.75,6.41-4,.1-.11.21-.24.32-.35l23.33-23.33a42.87,42.87,0,0,1,30.42-12.62h.05a43,43,0,0,1,30.43,73.34l-24.13,24.13c-.91.94-5.4,5.91-1.77,9.55l48.44,48.43c18.71,18.72,18.85,49,.3,67.59L256,489A48.6,48.6,0,0,1,221.54,503.28ZM289.31,22.86A37,37,0,0,0,263,33.68L31.83,264.84c-14.76,14.76-14.78,39.67,0,54.4l163,163c14.82,14.82,39.09,14.67,54.1-.35L480.07,250.76c14.66-14.65,14.52-38.63-.3-53.45l-48.43-48.43c-4.53-4.53-5.58-10.42-3-16.58a24.56,24.56,0,0,1,4.73-7.11l24.13-24.13a33,33,0,0,0-23.36-56.27h0a32.89,32.89,0,0,0-23.37,9.69L387.3,77.66c-1.16,1.36-6.48,7.09-13.44,7.44a13.59,13.59,0,0,1-10.41-4.27l-46.7-46.55A38.79,38.79,0,0,0,289.31,22.86Z"/></g><g id="Outline"><path class="cls-1" d="M214.45,454.79a5,5,0,0,1-3.53-6.13h0a5,5,0,0,1,6.13-3.52h0a5,5,0,0,1,3.53,6.13h0a5,5,0,0,1-4.83,3.7h0A4.91,4.91,0,0,1,214.45,454.79Zm17.14-6.45a5,5,0,0,1,0-7.07h0l.25-.24h0a2.73,2.73,0,0,1,.23-.25h0a5,5,0,0,1,7.07,0h0a5,5,0,0,1,0,7.07h0a2.73,2.73,0,0,1-.25.23h0a2.85,2.85,0,0,1-.23.26h0a5,5,0,0,1-3.54,1.46h0A5,5,0,0,1,231.59,448.34Zm-35.77-7.48a5,5,0,0,1,0-7.07h0a5,5,0,0,1,7.07,0h0a5,5,0,0,1,0,7.07h0a5,5,0,0,1-3.53,1.46h0A5,5,0,0,1,195.82,440.86Zm51.1-7.86a5,5,0,0,1,0-7.07h0a5,5,0,0,1,7.07,0h0a5,5,0,0,1,0,7.07h0a4.94,4.94,0,0,1-3.53,1.46h0A5,5,0,0,1,246.92,433ZM181,426a5,5,0,0,1,0-7.07h0a5,5,0,0,1,7.07,0h0a5,5,0,0,1,0,7.07h0a5,5,0,0,1-3.53,1.46h0A5,5,0,0,1,181,426Zm80.8-7.86a5,5,0,0,1,0-7.07h0a5,5,0,0,1,7.07,0h0a5,5,0,0,1,0,7.07h0a4.94,4.94,0,0,1-3.53,1.46h0A5,5,0,0,1,261.77,418.15Zm-95.65-7a5,5,0,0,1,0-7.07h0a5,5,0,0,1,7.07,0h0a5,5,0,0,1,0,7.07h0a5,5,0,0,1-3.53,1.46h0A5,5,0,0,1,166.12,411.16Zm110.5-7.86a5,5,0,0,1,0-7.07h0a5,5,0,0,1,7.07,0h0a5,5,0,0,1,0,7.07h0a5,5,0,0,1-3.53,1.47h0A5,5,0,0,1,276.62,403.3Zm-125.35-7a5,5,0,0,1,0-7.07h0a5,5,0,0,1,7.08,0h0a5,5,0,0,1,0,7.07h0a5,5,0,0,1-3.54,1.46h0A5,5,0,0,1,151.27,396.31Zm140.2-7.86a5,5,0,0,1,0-7.07h0a5,5,0,0,1,7.07,0h0a5,5,0,0,1,0,7.07h0a5,5,0,0,1-3.53,1.47h0A5,5,0,0,1,291.47,388.45Zm-155.05-7a5,5,0,0,1,0-7.07h0a5,5,0,0,1,7.08,0h0a5,5,0,0,1,0,7.07h0a5,5,0,0,1-3.54,1.47h0A5,5,0,0,1,136.42,381.46Zm169.9-7.86a5,5,0,0,1,0-7.07h0a5,5,0,0,1,7.07,0h0a5,5,0,0,1,0,7.07h0a5,5,0,0,1-3.54,1.47h0A5,5,0,0,1,306.32,373.6Zm-184.75-7a5,5,0,0,1,0-7.07h0a5,5,0,0,1,7.08,0h0a5,5,0,0,1,0,7.07h0a5,5,0,0,1-3.54,1.47h0A5,5,0,0,1,121.57,366.61Zm199.6-7.86a5,5,0,0,1,0-7.07h0a5,5,0,0,1,7.07,0h0a5,5,0,0,1,0,7.07h0a5,5,0,0,1-3.54,1.47h0A5,5,0,0,1,321.17,358.75Zm-214.44-7a5,5,0,0,1,0-7.07h0a5,5,0,0,1,7.07,0h0a5,5,0,0,1,0,7.07h0a5,5,0,0,1-3.54,1.47h0A5,5,0,0,1,106.73,351.76ZM336,343.9a5,5,0,0,1,0-7.07h0a5,5,0,0,1,7.07,0h0a5,5,0,0,1,0,7.07h0a5,5,0,0,1-3.54,1.47h0A5,5,0,0,1,336,343.9Zm-244.14-7a5,5,0,0,1,0-7.07h0a5,5,0,0,1,7.07,0h0a5,5,0,0,1,0,7.07h0a5,5,0,0,1-3.54,1.47h0A5,5,0,0,1,91.88,336.91Zm259-7.85a5,5,0,0,1,0-7.08h0a5,5,0,0,1,7.07,0h0a5,5,0,0,1,0,7.08h0a5,5,0,0,1-3.54,1.46h0A5,5,0,0,1,350.87,329.06ZM77,322.06A5,5,0,0,1,77,315h0a5,5,0,0,1,7.07,0h0a5,5,0,0,1,0,7.07h0a5,5,0,0,1-3.54,1.47h0A5,5,0,0,1,77,322.06Zm288.69-7.85a5,5,0,0,1,0-7.08h0a5,5,0,0,1,7.07,0h0a5,5,0,0,1,0,7.08h0a5,5,0,0,1-3.54,1.46h0A5,5,0,0,1,365.72,314.21ZM62,306.89a5,5,0,0,1,.55-7.05h0a5,5,0,0,1,7.05.55h0a5,5,0,0,1-.55,7.05h0a5,5,0,0,1-3.25,1.2h0A5,5,0,0,1,62,306.89Zm318.61-7.53a5,5,0,0,1,0-7.07h0a5,5,0,0,1,7.07,0h0a5,5,0,0,1,0,7.07h0a5,5,0,0,1-3.54,1.46h0A5,5,0,0,1,380.57,299.36ZM60.46,288.63a5,5,0,0,1-3-6.39h0a5,5,0,0,1,6.38-3h0a5,5,0,0,1,3,6.39h0a5,5,0,0,1-4.71,3.32h0A4.91,4.91,0,0,1,60.46,288.63Zm335-4.12a5,5,0,0,1,0-7.07h0a5,5,0,0,1,7.07,0h0a5,5,0,0,1,0,7.07h0A5,5,0,0,1,399,286h0A5,5,0,0,1,395.42,284.51ZM71.89,271.45a5,5,0,0,1,0-7.07h0a5,5,0,0,1,7.07,0h0a5,5,0,0,1,0,7.07h0a5,5,0,0,1-3.54,1.46h0A5,5,0,0,1,71.89,271.45Zm338.37-1.79a5,5,0,0,1,0-7.07h0a5,5,0,0,1,7.07,0h0a5,5,0,0,1,0,7.07h0a5,5,0,0,1-3.53,1.46h0A5,5,0,0,1,410.26,269.66ZM86.74,256.6a5,5,0,0,1,0-7.07h0a5,5,0,0,1,7.07,0h0a5,5,0,0,1,0,7.07h0a5,5,0,0,1-3.54,1.47h0A5,5,0,0,1,86.74,256.6Zm338.37-1.79a5,5,0,0,1,0-7.07h0a5,5,0,0,1,7.07,0h0a5,5,0,0,1,0,7.07h0a4.94,4.94,0,0,1-3.53,1.46h0A5,5,0,0,1,425.11,254.81ZM101.59,241.75a5,5,0,0,1,0-7.07h0a5,5,0,0,1,7.07,0h0a5,5,0,0,1,0,7.07h0a5,5,0,0,1-3.54,1.47h0A5,5,0,0,1,101.59,241.75ZM440,240a5,5,0,0,1,0-7.07h0a5,5,0,0,1,7.07,0h0a5,5,0,0,1,0,7.07h0a4.94,4.94,0,0,1-3.53,1.46h0A5,5,0,0,1,440,240ZM116.44,226.9a5,5,0,0,1,0-7.07h0a5,5,0,0,1,7.07,0h0a5,5,0,0,1,0,7.07h0a5,5,0,0,1-3.54,1.47h0A5,5,0,0,1,116.44,226.9ZM445,218.39a5,5,0,0,1,3.92-5.89h0a5,5,0,0,1,5.88,3.92h0a5,5,0,0,1-3.92,5.89h0a5.5,5.5,0,0,1-1,.09h0A5,5,0,0,1,445,218.39Zm-313.7-6.34a5,5,0,0,1,0-7.07h0a5,5,0,0,1,7.07,0h0a5,5,0,0,1,0,7.07h0a5,5,0,0,1-3.54,1.47h0A5,5,0,0,1,131.29,212.05Zm303-7.85a5,5,0,0,1,0-7.07h0a5,5,0,0,1,7.07,0h0a5,5,0,0,1,0,7.07h0a5,5,0,0,1-3.54,1.46h0A5,5,0,0,1,434.34,204.2Zm-288.2-7a5,5,0,0,1,0-7.07h0a5,5,0,0,1,7.07,0h0a5,5,0,0,1,0,7.07h0a5,5,0,0,1-3.54,1.47h0A5,5,0,0,1,146.14,197.2Zm273.35-7.85a5,5,0,0,1,0-7.07h0a5,5,0,0,1,7.07,0h0a5,5,0,0,1,0,7.07h0a5,5,0,0,1-3.54,1.46h0A5,5,0,0,1,419.49,189.35Zm-258.5-7a5,5,0,0,1,0-7.07h0a5,5,0,0,1,7.07,0h0a5,5,0,0,1,0,7.07h0a5,5,0,0,1-3.54,1.47h0A5,5,0,0,1,161,182.35Zm243.65-7.85a5,5,0,0,1,0-7.07h0a5,5,0,0,1,7.07,0h0a5,5,0,0,1,0,7.07h0a5,5,0,0,1-3.54,1.46h0A5,5,0,0,1,404.64,174.5Zm-228.81-7a5,5,0,0,1,0-7.08h0a5,5,0,0,1,7.07,0h0a5,5,0,0,1,0,7.08h0a5,5,0,0,1-3.53,1.46h0A5,5,0,0,1,175.83,167.51Zm214-7.86a5,5,0,0,1,0-7.07h0a5,5,0,0,1,7.07,0h0a5,5,0,0,1,0,7.07h0a5,5,0,0,1-3.54,1.46h0A5,5,0,0,1,389.79,159.65Zm-199.11-7a5,5,0,0,1,0-7.08h0a5,5,0,0,1,7.07,0h0a5,5,0,0,1,0,7.08h0a5,5,0,0,1-3.53,1.46h0A5,5,0,0,1,190.68,152.66Zm184.26-7.86a5,5,0,0,1,0-7.07h0a5,5,0,0,1,7.07,0h0a5,5,0,0,1,0,7.07h0a5,5,0,0,1-3.54,1.46h0A5,5,0,0,1,374.94,144.8Zm-169.41-7a5,5,0,0,1,0-7.07h0a5,5,0,0,1,7.07,0h0a5,5,0,0,1,0,7.07h0a5,5,0,0,1-3.53,1.46h0A5,5,0,0,1,205.53,137.81ZM360.09,130a5,5,0,0,1,0-7.07h0a5,5,0,0,1,7.07,0h0a5,5,0,0,1,0,7.07h0a5,5,0,0,1-3.53,1.46h0A5,5,0,0,1,360.09,130Zm-139.71-7a5,5,0,0,1,0-7.07h0a5,5,0,0,1,7.07,0h0a5,5,0,0,1,0,7.07h0a5,5,0,0,1-3.53,1.46h0A5,5,0,0,1,220.38,123Zm124.86-7.86a5,5,0,0,1,0-7.07h0a5,5,0,0,1,7.07,0h0a5,5,0,0,1,0,7.07h0a5,5,0,0,1-3.53,1.46h0A5,5,0,0,1,345.24,115.1Zm-110-7a5,5,0,0,1,0-7.07h0a5,5,0,0,1,7.07,0h0a5,5,0,0,1,0,7.07h0a5,5,0,0,1-3.53,1.46h0A5,5,0,0,1,235.23,108.11Zm95.16-7.86a5,5,0,0,1,0-7.07h0a5,5,0,0,1,7.07,0h0a5,5,0,0,1,0,7.07h0a5,5,0,0,1-3.53,1.47h0A5,5,0,0,1,330.39,100.25Zm-80.31-7a5,5,0,0,1,0-7.07h0a5,5,0,0,1,7.07,0h0a5,5,0,0,1,0,7.07h0a5,5,0,0,1-3.54,1.46h0A5,5,0,0,1,250.08,93.26Zm65.46-7.86a5,5,0,0,1,0-7.07h0a5,5,0,0,1,7.07,0h0a5,5,0,0,1,0,7.07h0a5,5,0,0,1-3.53,1.47h0A5,5,0,0,1,315.54,85.4Zm-50.61-7a5,5,0,0,1,0-7.07h0a5,5,0,0,1,7.07,0h0a5,5,0,0,1,0,7.07h0a5,5,0,0,1-3.54,1.46h0A5,5,0,0,1,264.93,78.41Zm35.81-7.81h0a5,5,0,0,1-.09-7.07h0a5,5,0,0,1,7.07-.09h0a5,5,0,0,1,.09,7.07h0A5,5,0,0,1,304.23,72h0A5,5,0,0,1,300.74,70.6ZM280,63.48a5,5,0,0,1,3.44-6.18h0a5,5,0,0,1,6.18,3.44h0a5,5,0,0,1-3.44,6.18h0a5,5,0,0,1-1.37.19h0A5,5,0,0,1,280,63.48Z"/></g></svg>