<?xml version="1.0" ?><svg viewBox="0 0 512 512" xmlns="http://www.w3.org/2000/svg"><defs><style>.cls-1{fill:#3f456b;}</style></defs><title/><g id="Lines"><path class="cls-1" d="M364.9,453.44c-39.92,0-82.83-1.4-126.21-11.61-9.17-2.15-18-4.83-26.58-7.43-5.15-1.56-10.1-3.07-15-4.43l-.08,1.21c-.05,8.29-3.65,14.77-10.15,18.23A22.55,22.55,0,0,1,177,452H33c-6.73,0-12-2-15.8-6-5.29-5.64-5.27-13-5.2-14.51V395.2a1.34,1.34,0,0,1,0-.2,5,5,0,0,1,5-5H128.28a329.52,329.52,0,0,1,62.3,7.43c10.46,2.26,20.49,5.31,30.2,8.25,8.17,2.48,16.55,5,24.77,6.95,40.41,9.5,81.24,10.81,119.35,10.81h1.89A578.77,578.77,0,0,0,492.71,409.5c3.16-.71,5.74-.39,7.9,1,3.42,2.17,4.27,5.95,5.16,9.95l.22,1c1,4.33,2.08,9.24-.42,13.19a9.63,9.63,0,0,1-6.28,4.19,608.29,608.29,0,0,1-132.46,14.67ZM192.5,418.57a5.11,5.11,0,0,1,1.23.15c7.1,1.81,14,3.9,21.29,6.11,8.4,2.55,17.1,5.19,25.95,7.27,42.4,10,84.62,11.34,123.93,11.34h1.92A598.92,598.92,0,0,0,497.1,429h0a27.15,27.15,0,0,0-.88-5.43l-.22-1c-.25-1.11-.57-2.54-.86-3.4l-.24.05a589,589,0,0,1-128.1,14.18H364.9c-38.71,0-80.24-1.34-121.64-11.07-8.53-2-17.06-4.6-25.32-7.1-9.58-2.91-19.42-5.89-29.47-8.06A319.44,319.44,0,0,0,128.11,400H22v31.59c0,.11,0,.21,0,.32s-.17,4.42,2.56,7.27C26.33,441.05,29.18,442,33,442H177c2.31,0,10-1,10-11,0-.11,0-.22,0-.34l.5-7.43a5,5,0,0,1,5-4.66Z"/><path class="cls-1" d="M495,417a4.27,4.27,0,0,1-.87-.08,5,5,0,0,1-4.07-5.78h0c.05-.28,4.75-29-11.9-49.54-10.84-13.39-28.46-20.66-52.37-21.6-36.26-1.44-69.77-10.92-102.41-29-26.25-14.54-52.58-35-82.86-64.37-15.3-14.84-24.37-17.72-27.76-15.47-11.9,7.94-19.85,15.8-29.06,24.91l-3.29,3.25c-13.09,12.88-28.7,27-48.27,31.95-32.05,8-64.67,4.44-97-10.7-5.95,11.9-21.9,51-13.16,113.74a5,5,0,0,1-9.9,1.38c-3.2-23-5.11-57.61,4-92.09,5.51-20.9,12.46-31.85,12.75-32.3a5,5,0,0,1,6.45-1.77c31.59,15.8,63.38,19.85,94.47,12,17.14-4.31,31.54-17.42,43.7-29.38l3.27-3.23c9.17-9.08,17.84-17.65,30.55-26.12,9.1-6.07,22.65-.48,40.26,16.62,29.63,28.74,55.28,48.7,80.74,62.79,31.25,17.31,63.3,26.39,98,27.75,26.95,1.07,47.07,9.61,59.8,25.39,19.5,24.15,14.16,56.12,13.92,57.47A5,5,0,0,1,495,417Z"/><path class="cls-1" d="M144.5,400a5,5,0,0,1-5-4.87,63.9,63.9,0,0,1,.38-8.28c2.24-21.12,12.81-38.77,29-48.43,31.62-18.85,77.92-8.65,108.56-1.89,1.34.3,11.83,3.35,21.71,6.41,8,2.49,13.18,4.18,16.52,5.42,6.26-13.82,6.8-25.84,1.6-35.76a31.47,31.47,0,0,0-11.23-12.08,5,5,0,0,1,4.74-8.8c.36.19,35.66,19.74,11.64,65.6h0a5,5,0,0,1-6.75,2.11,5.42,5.42,0,0,1-1.06-.74c-5.41-2.49-36.5-11.73-39.35-12.4-29.07-6.41-73-16.1-101.26.72-13.46,8-22.28,22.94-24.19,40.9a52.37,52.37,0,0,0-.32,7,5,5,0,0,1-4.87,5.13Zm169-47.26a4.7,4.7,0,0,0-.25.57C313.36,353.12,313.45,352.93,313.54,352.74Zm0,0h0Zm0,0h0Z"/><path class="cls-1" d="M473,353a5,5,0,0,1-4.14-7.8c18-26.61,14.68-57-9.11-83.3-14.74-16.33-34.1-28-52.82-39.33-5-3-10.18-6.15-15.21-9.33-6.43-4.06-13.06-8.08-19.48-12-22.36-13.55-45.49-27.56-64.9-46.38l-1.65-1.6c-25-24.25-48.6-47.15-80.33-62.11-45.1-21.25-108.13-33.66-149.79-4.74C59.37,97.69,50,113.66,49.82,130.26c-.13,12.62,3.64,26.12,10.9,39.05,11.44,20.38,30.69,38.91,58.83,56.65.13.08.25.17.37.26a188.18,188.18,0,0,0,55,26.47,5,5,0,0,1-2.82,9.6c-33.14-9.74-55.62-26.16-58-28C84.55,215.69,64.25,196,52,174.2c-8.11-14.45-12.33-29.68-12.18-44C40,110.28,51,91.35,69.87,78.23,115,46.88,182,59.69,229.62,82.14c33.24,15.67,57.43,39.13,83,64l1.65,1.6c18.59,18,41.23,31.75,63.11,45,6.46,3.91,13.13,7.95,19.64,12.07,4.94,3.12,10.08,6.22,15,9.22,19.35,11.69,39.35,23.77,55.08,41.18,12.81,14.19,20.65,30.13,22.68,46.11,2.17,17.16-2.11,33.81-12.72,49.5A5,5,0,0,1,473,353Z"/><path class="cls-1" d="M337,317a5,5,0,0,1-3-9c48-36.49,62.45-95.47,62.59-96.06a5,5,0,1,1,9.73,2.3c-.61,2.56-15.42,63.08-66.26,101.72A5,5,0,0,1,337,317Z"/><path class="cls-1" d="M391,211a5,5,0,0,1-4.83-3.69c-17.92-66-104-78.24-104.83-78.35a5,5,0,0,1,1.32-9.92,182.86,182.86,0,0,1,48.85,15.19c33.91,16,56.15,40.38,64.32,70.46a5,5,0,0,1-3.52,6.14A5.42,5.42,0,0,1,391,211Z"/></g><g id="Outline"><path class="cls-1" d="M276.23,341a5,5,0,0,1-3.31-1.26l-.75-.66a5,5,0,1,1,6.62-7.49l.75.66a5,5,0,0,1-3.31,8.75Zm-15.75-13.9a5,5,0,0,1-3.3-1.25l-.75-.66a5,5,0,1,1,6.61-7.5l.75.66a5,5,0,0,1-3.31,8.75Zm-15.75-13.89a5,5,0,0,1-3.3-1.25l-.75-.67a5,5,0,1,1,6.62-7.49l.75.66a5,5,0,0,1-3.32,8.75ZM229,299.34a5,5,0,0,1-3.31-1.25l-.75-.66a5,5,0,0,1,6.62-7.5l.75.66a5,5,0,0,1-3.31,8.75Zm-15.75-13.89a5,5,0,0,1-3.31-1.25l-.75-.66a5,5,0,0,1,6.62-7.5l.75.66a5,5,0,0,1-3.31,8.75Zm-15.75-13.89a5,5,0,0,1-3.3-1.25l-.75-.66a5,5,0,0,1,6.61-7.51l.75.66a5,5,0,0,1-3.31,8.76Zm-15.74-13.9a5,5,0,0,1-3.31-1.25l-.75-.66a5,5,0,0,1,6.62-7.5l.75.66a5,5,0,0,1-3.31,8.75Z"/><path class="cls-1" d="M273,297.1A5,5,0,0,1,269,289L279.19,276a5,5,0,1,1,7.89,6.14L276.9,295.17A5,5,0,0,1,273,297.1Z"/><path class="cls-1" d="M297.06,315.69a5,5,0,0,1-4-8.05l11-14.22a5,5,0,0,1,7.92,6.11l-11,14.22A5,5,0,0,1,297.06,315.69Z"/><path class="cls-1" d="M249.58,279.06a5,5,0,0,1-4-8.05l11-14.22a5,5,0,0,1,7.92,6.11l-11,14.22A5,5,0,0,1,249.58,279.06Z"/><path class="cls-1" d="M226.93,261.59a5,5,0,0,1-4-8l11-14.22a5,5,0,1,1,7.91,6.11l-11,14.22A5,5,0,0,1,226.93,261.59Z"/><path class="cls-1" d="M186.23,244.87a5.06,5.06,0,0,1-1.47-.23c-1-.29-1.94-.6-2.91-.91a5,5,0,1,1,3-9.53l2.81.89a5,5,0,0,1-1.47,9.78ZM391,244a5,5,0,0,1-3.41-1.35c-.71-.66-1.43-1.32-2.15-2a5,5,0,1,1,6.7-7.43c.76.68,1.52,1.38,2.27,2.09A5,5,0,0,1,391,244Zm-226.46-6.78a5.08,5.08,0,0,1-1.86-.36l-2.83-1.15a5,5,0,0,1,3.81-9.25l2.74,1.12a5,5,0,0,1-1.86,9.64Zm208.7-7.8a5,5,0,0,1-2.95-1c-.79-.58-1.59-1.16-2.38-1.72a5,5,0,0,1,5.8-8.15l2.48,1.79a5,5,0,0,1-2.95,9Zm-229.67-1.67a4.9,4.9,0,0,1-2.27-.55l-2.72-1.4a5,5,0,0,1,4.65-8.86l2.62,1.36a5,5,0,0,1-2.28,9.45Zm210.6-11.19a5,5,0,0,1-2.68-.78l-2.52-1.6a5,5,0,1,1,5.35-8.45l2.54,1.61a5,5,0,0,1-2.69,9.22Zm-230.51-.31a4.94,4.94,0,0,1-2.74-.83c-.86-.56-1.71-1.13-2.56-1.71a5,5,0,1,1,5.63-8.26l2.42,1.62a5,5,0,0,1-2.75,9.18Zm211.05-11.93a5,5,0,0,1-2.68-.77l-2.55-1.63a5,5,0,0,1,5.39-8.42l2.52,1.6a5,5,0,0,1-2.68,9.22Zm-229.37-1.94a4.94,4.94,0,0,1-3.29-1.25c-.78-.68-1.55-1.37-2.31-2.06a5,5,0,0,1,6.76-7.38c.71.65,1.42,1.3,2.15,1.93a5,5,0,0,1-3.31,8.76Zm210.12-10.64a5,5,0,0,1-2.79-.86l-2.51-1.7a5,5,0,1,1,5.64-8.26c.81.56,1.64,1.12,2.46,1.67a5,5,0,0,1-2.8,9.15Zm-226-6a5,5,0,0,1-3.93-1.91c-.64-.82-1.28-1.64-1.9-2.48a5,5,0,1,1,8-6c.56.76,1.14,1.51,1.73,2.26a5,5,0,0,1-.83,7A4.93,4.93,0,0,1,89.49,185.79Zm207.16-7.29a5,5,0,0,1-3-1l-2.43-1.81a5,5,0,0,1,6-8l2.39,1.77a5,5,0,0,1-3,9ZM77.44,166.29a5,5,0,0,1-4.57-3c-.44-1-.85-2-1.24-3a5,5,0,0,1,9.3-3.67q.51,1.31,1.08,2.58a5,5,0,0,1-4.57,7Zm201.09-1.94a5,5,0,0,1-3.2-1.16L273,161.24a5,5,0,0,1,6.46-7.64l2.27,1.9a5,5,0,0,1-3.2,8.85Zm-17.18-15.29a5,5,0,0,1-3.4-1.34l-2.2-2a5,5,0,0,1,6.81-7.33l2.2,2.05a5,5,0,0,1-3.41,8.66ZM72,144.08a5,5,0,0,1-5-4.79c0-.77,0-1.55,0-2.32v-1a5,5,0,0,1,10,.22V137c0,.63,0,1.27,0,1.9a5,5,0,0,1-4.78,5.21ZM244.32,133.6a4.94,4.94,0,0,1-3.26-1.22l-2.24-1.91a5,5,0,1,1,6.45-7.64l2.32,2a5,5,0,0,1-3.27,8.78ZM77.42,122.08a5,5,0,0,1-4.33-7.51c.55-.95,1.15-1.9,1.77-2.83a5,5,0,0,1,8.3,5.58c-.5.75-1,1.51-1.41,2.26A5,5,0,0,1,77.42,122.08Zm148.79-2.63a5,5,0,0,1-2.83-.88q-1.2-.82-2.4-1.62a5,5,0,1,1,5.49-8.36c.86.57,1.72,1.15,2.57,1.74a5,5,0,0,1-2.83,9.12Zm-20-11.36a4.93,4.93,0,0,1-2.07-.45c-.88-.4-1.77-.8-2.67-1.19a5,5,0,0,1,4-9.16c1,.41,1.89.83,2.82,1.25a5,5,0,0,1-2.09,9.55ZM93.12,105.52a5,5,0,0,1-2.83-9.13c.88-.6,1.79-1.2,2.7-1.76a5,5,0,0,1,5.27,8.5c-.78.48-1.56,1-2.32,1.51A5,5,0,0,1,93.12,105.52Zm91.67-5.67a4.88,4.88,0,0,1-1.5-.23l-2.79-.86a5,5,0,1,1,2.85-9.58q1.49.43,2.94.9a5,5,0,0,1-1.5,9.77Zm-70.91-4a5,5,0,0,1-1.37-9.81c1-.29,2-.56,3.08-.82A5,5,0,0,1,118,95c-.92.23-1.82.47-2.73.73A5,5,0,0,1,113.88,95.88Zm48.59-1.47a5,5,0,0,1-.85-.07c-1-.16-1.91-.32-2.86-.46A5,5,0,1,1,160.24,84l3.06.49a5,5,0,0,1-.83,9.93Zm-25.9-1.92a5,5,0,0,1-.15-10c1,0,2.08,0,3.13-.06h0a5,5,0,0,1,0,10q-1.44,0-2.88.06Z"/></g></svg>