<?xml version="1.0" ?><svg viewBox="0 0 512 512" xmlns="http://www.w3.org/2000/svg"><defs><style>.cls-1{fill:#3f456b;}</style></defs><title/><g id="Lines"><path class="cls-1" d="M431.69,501H79.31A37.36,37.36,0,0,1,42,463.69V47.31A37.36,37.36,0,0,1,79.31,10H431.69A37.36,37.36,0,0,1,469,47.31V463.69A37.36,37.36,0,0,1,431.69,501ZM79.31,20A27.34,27.34,0,0,0,52,47.31V463.69A27.34,27.34,0,0,0,79.31,491H431.69A27.34,27.34,0,0,0,459,463.69V47.31A27.34,27.34,0,0,0,431.69,20Z"/><path class="cls-1" d="M257,501a5,5,0,0,1-5-5V16a5,5,0,0,1,10,0V496A5,5,0,0,1,257,501Z"/><path class="cls-1" d="M464,234H258a5,5,0,0,1,0-10H464a5,5,0,0,1,0,10Z"/><path class="cls-1" d="M414.88,261h-106c-10.85,0-19.7-8.24-19.88-18.43V229a5,5,0,0,1,10,0v13.25c0,4.74,4.53,8.75,9.88,8.75h106c5.39,0,10.12-4.09,10.12-8.75V229a5,5,0,0,1,10,0v13.58a18.32,18.32,0,0,1-6.07,13A20.73,20.73,0,0,1,414.88,261Z"/><path class="cls-1" d="M191,197H87a5,5,0,0,1-5-5V129a5,5,0,0,1,5-5H191a5,5,0,0,1,5,5v63A5,5,0,0,1,191,197ZM92,187h94V134H92Z"/><path class="cls-1" d="M228,360a5,5,0,0,1-5-5V158a5,5,0,0,1,10,0V355A5,5,0,0,1,228,360Z"/></g><g id="Outline"><path class="cls-1" d="M17.22,110.5a5,5,0,0,1-3.28-8.78c.91-.81,2.82-3.13,2.72-4.92-.06-1-.89-2.1-2.47-3.22-5.35-3.78-6.59-8-6.69-11-.24-7,5.61-11.94,6.27-12.49a5,5,0,0,1,6.36,7.72c-.86.73-2.7,2.84-2.64,4.44.05,1.18,1.38,2.35,2.47,3.13,5.26,3.72,6.54,8,6.68,10.9.36,7.1-5.48,12.38-6.15,13A5,5,0,0,1,17.22,110.5Z"/><path class="cls-1" d="M17.5,142.5a5,5,0,0,1-3.28-8.77c.91-.82,2.82-3.14,2.72-4.93-.06-1-.89-2.1-2.47-3.22-5.35-3.78-6.59-8-6.69-11-.24-7,5.61-11.94,6.27-12.49a5,5,0,0,1,6.36,7.72c-.86.73-2.7,2.84-2.63,4.44,0,1.18,1.37,2.35,2.47,3.13,5.25,3.72,6.53,8,6.68,10.9.35,7.1-5.49,12.38-6.15,13A5,5,0,0,1,17.5,142.5Z"/><path class="cls-1" d="M17.78,174.5a5,5,0,0,1-3.28-8.78c.92-.81,2.82-3.13,2.72-4.92-.06-1-.89-2.1-2.47-3.22-5.34-3.78-6.58-8.05-6.69-11-.24-7,5.61-12,6.28-12.49a5,5,0,0,1,6.35,7.72c-.86.73-2.7,2.84-2.63,4.43.05,1.18,1.37,2.36,2.47,3.14,5.26,3.72,6.53,8,6.68,10.9.35,7.1-5.49,12.38-6.15,13A5,5,0,0,1,17.78,174.5Z"/><path class="cls-1" d="M18.06,206.5a5,5,0,0,1-3.28-8.78c.92-.82,2.82-3.13,2.72-4.92-.06-1-.89-2.1-2.47-3.22-5.34-3.78-6.58-8.05-6.69-11-.24-7,5.61-12,6.28-12.49A5,5,0,0,1,21,173.85c-.85.72-2.7,2.84-2.63,4.43.05,1.18,1.37,2.36,2.47,3.14,5.26,3.72,6.53,8,6.68,10.9.35,7.1-5.49,12.38-6.15,13A5,5,0,0,1,18.06,206.5Z"/><path class="cls-1" d="M495.22,291.5a5,5,0,0,1-3.28-8.78c.91-.81,2.82-3.13,2.72-4.92-.06-1-.89-2.1-2.47-3.22-5.35-3.78-6.59-8.05-6.69-11-.24-6.95,5.61-11.94,6.27-12.49a5,5,0,0,1,6.36,7.72c-.86.73-2.7,2.84-2.64,4.44.05,1.18,1.38,2.35,2.47,3.13,5.26,3.72,6.54,8,6.68,10.9.36,7.1-5.48,12.38-6.15,13A5,5,0,0,1,495.22,291.5Z"/><path class="cls-1" d="M495.5,323.5a5,5,0,0,1-3.28-8.77c.91-.82,2.82-3.14,2.72-4.93-.06-1-.89-2.1-2.47-3.22-5.35-3.78-6.59-8.05-6.69-11-.24-6.95,5.61-11.94,6.27-12.49a5,5,0,0,1,6.36,7.72c-.86.73-2.7,2.84-2.63,4.44.05,1.18,1.37,2.35,2.47,3.13,5.25,3.72,6.53,8,6.68,10.9.35,7.1-5.49,12.38-6.15,13A5,5,0,0,1,495.5,323.5Z"/><path class="cls-1" d="M495.78,355.5a5,5,0,0,1-3.28-8.78c.92-.81,2.82-3.13,2.72-4.92-.06-1-.89-2.1-2.47-3.22-5.34-3.78-6.59-8.05-6.69-11-.24-7,5.61-11.95,6.28-12.49a5,5,0,0,1,6.35,7.72c-.86.73-2.7,2.84-2.63,4.43.05,1.19,1.37,2.36,2.47,3.14,5.26,3.72,6.53,8,6.68,10.9.35,7.1-5.49,12.38-6.15,12.95A5,5,0,0,1,495.78,355.5Z"/><path class="cls-1" d="M496.06,387.5a5,5,0,0,1-3.28-8.78c.92-.82,2.82-3.13,2.72-4.92-.06-1-.89-2.1-2.47-3.22-5.34-3.78-6.58-8.05-6.69-11-.24-7,5.61-11.95,6.28-12.49a5,5,0,0,1,6.35,7.72c-.85.72-2.7,2.84-2.63,4.43.05,1.18,1.37,2.36,2.47,3.14,5.26,3.72,6.53,8,6.68,10.9.35,7.1-5.49,12.38-6.15,12.95A5,5,0,0,1,496.06,387.5Z"/><path class="cls-1" d="M426,376H295a5,5,0,0,1,0-10H426a5,5,0,0,1,0,10Z"/><path class="cls-1" d="M327.81,432.61a5,5,0,0,1-4.32-7.5l65.36-113.22a5,5,0,0,1,8.66,5L332.15,430.11A5,5,0,0,1,327.81,432.61Z"/><path class="cls-1" d="M393.19,432.61a5,5,0,0,1-4.34-2.5L323.49,316.89a5,5,0,1,1,8.66-5l65.36,113.22a5,5,0,0,1-4.32,7.5Z"/></g></svg>