<?xml version="1.0" ?><svg id="Lines" viewBox="0 0 512 512" xmlns="http://www.w3.org/2000/svg"><defs><style>.cls-1{fill:#3f456b;}</style></defs><title/><path class="cls-1" d="M231.75,145.82a28.91,28.91,0,1,1,28.91-28.91A28.94,28.94,0,0,1,231.75,145.82Zm0-47.82a18.91,18.91,0,1,0,18.91,18.91A18.93,18.93,0,0,0,231.75,98Z"/><path class="cls-1" d="M279.57,145.82a28.91,28.91,0,1,1,28.9-28.91A28.94,28.94,0,0,1,279.57,145.82Zm0-47.82a18.91,18.91,0,1,0,18.9,18.91A18.93,18.93,0,0,0,279.57,98Z"/><path class="cls-1" d="M188.52,163a5,5,0,1,1,0-10c21.84,0,25.75-16.66,25.79-16.83a5,5,0,1,1,9.77,2.15C222.2,146.87,212.36,163,188.52,163Z"/><path class="cls-1" d="M323.68,163c-15.4,0-24.24-6.6-28.94-12.14a31.28,31.28,0,0,1-6.62-12.54,5,5,0,0,1,9.76-2.18c.18.78,4.28,16.86,25.8,16.86a5,5,0,0,1,0,10Z"/><path class="cls-1" d="M445,467.28H68a53.54,53.54,0,0,1-38.45-16.62,61.23,61.23,0,0,1-17.07-36.48c-4.27-45.95,6-92.6,17.73-136.16v0h0l13.58-49.8a78.54,78.54,0,0,1,12.42-23.48C68.15,189.22,84.32,181,103,181H410c18.64,0,34.81,8.19,46.75,23.68a78.42,78.42,0,0,1,12.39,23.39c0,.09,13.48,49.42,13.61,49.89v0c11.73,43.56,22,90.21,17.73,136.16a61.23,61.23,0,0,1-17.07,36.48A53.54,53.54,0,0,1,445,467.28ZM39.84,280.61h0c-11.48,42.66-21.54,88.26-17.43,132.64,2,21.17,20,44,45.57,44H445c25.62,0,43.6-22.85,45.57-44,4.11-44.38-5.95-90-17.43-132.64h0c-.6-2.09-3-10.77-13.6-49.79C459.1,229.28,447.36,191,410,191H103c-15.54,0-28.54,6.57-38.64,19.54a69.3,69.3,0,0,0-10.9,20.34C42.8,269.86,40.43,278.52,39.84,280.61Z"/><path class="cls-1" d="M482,297a5,5,0,0,1-5-5V215c0-51.28-50.34-52-52.48-52h-336c-2.13,0-52.47.77-52.47,52v77a5,5,0,0,1-10,0V215c0-32,17.14-47.27,31.51-54.4a76.69,76.69,0,0,1,31-7.65H424.53a76.69,76.69,0,0,1,31,7.65C469.86,167.74,487,183,487,215v77A5,5,0,0,1,482,297Z"/></svg>