<?xml version="1.0" ?><svg viewBox="0 0 512 512" xmlns="http://www.w3.org/2000/svg"><defs><style>.cls-1{fill:#3f456b;}</style></defs><title/><g id="Lines"><path class="cls-1" d="M45.29,304.78a5.12,5.12,0,0,1-1.09-.12c-4.52-1-7.93-1.6-10.43-2-1.85-.33-3.19-.57-4.21-.83-7.5-1.92-11-8.49-11.84-12.07l-1.07-4.42c-1.55-6.39.08-10.72,1.72-13.23a16.32,16.32,0,0,1,10-6.65L360.56,184.7a240.93,240.93,0,0,1,44.08-6.91c30.14-1.69,50.62,4.31,61,17.82,6-1.16,18.23-2.54,27.69,2.94,5.82,3.36,9.64,8.65,11.35,15.71,2,8.27.91,15.55-3.28,21.64-7.81,11.33-23.77,14.09-26.28,14.46L366.52,276.74a5,5,0,1,1-2.36-9.71L473,240.58a5.48,5.48,0,0,1,.56-.1c.12,0,13.89-1.91,19.62-10.28,2.53-3.69,3.11-8.13,1.79-13.58-1.06-4.35-3.23-7.43-6.62-9.4-9-5.24-23.37-1.21-23.51-1.17a5,5,0,0,1-5.66-2.2c-15.22-24.94-74.5-15.29-96.07-9.47l-.12,0L30.65,275.16l-.32.07h0a6.52,6.52,0,0,0-3.63,2.36c-.78,1.24-.89,3-.33,5.35l1.07,4.42c0,.1,1.09,3.84,4.6,4.74.66.17,1.9.39,3.47.67,2.59.46,6.12,1.08,10.85,2.13a5,5,0,0,1-1.07,9.88Z"/><path class="cls-1" d="M152.25,325.06a158,158,0,0,1-24.5-1.86l-.2,0s-25.31-5.42-50.3-10.82a5,5,0,0,1,2.12-9.78c24,5.2,48.32,10.4,50.16,10.8,1.67.27,26.7,4.19,48.06-1l39.95-9.7a5,5,0,1,1,2.36,9.71l-40,9.71A119.46,119.46,0,0,1,152.25,325.06Z"/><path class="cls-1" d="M34.81,274A5,5,0,0,1,30,270.16L5.64,170.11a5,5,0,0,1,3.68-6l30.49-7.41C42,156,54.45,153.22,63.9,167.6,71.48,179.12,110.52,221.43,112,223c4.85,5,19.69,17.29,30.48,14.67a5,5,0,1,1,2.36,9.71c-18.61,4.53-39.21-16.57-40.07-17.47l-.08-.08c-1.67-1.8-41-44.38-49.13-56.75-5.71-8.69-12.18-7.06-12.9-6.84a2.3,2.3,0,0,1-.35.1L16.54,172.6l23.13,95.2a5,5,0,0,1-3.68,6A4.81,4.81,0,0,1,34.81,274Z"/><path class="cls-1" d="M328.57,309.73a82.28,82.28,0,0,1-24.9-4,5,5,0,0,1-3.36-3.59l-2.19-9a5,5,0,1,1,9.72-2.36l1.51,6.24c27.8,7.7,47.77-3.34,54.38-7.83l-7.85-32.31a63,63,0,0,0-25.2,2.39,5,5,0,1,1-2.91-9.56c18.35-5.58,32.75-2.24,33.35-2.09a5,5,0,0,1,3.69,3.68l9.42,38.74a5,5,0,0,1-1.59,5C371.76,295.77,355.21,309.73,328.57,309.73Z"/><path class="cls-1" d="M247.13,370.61a4.94,4.94,0,0,1-3-1,5,5,0,0,1-1-7l75.33-100.42-88.19,21.43-11.1,42.1a5,5,0,1,1-9.67-2.55l11.86-45A5,5,0,0,1,225,274.6l104.62-25.42a5,5,0,0,1,5.18,7.86L251.13,368.61A5,5,0,0,1,247.13,370.61Z"/><path class="cls-1" d="M288.21,212.41a4.88,4.88,0,0,1-1.55-.25l-86.33-28a5,5,0,0,1,3.09-9.51l86.33,28a5,5,0,0,1-1.54,9.76Z"/><path class="cls-1" d="M199.85,233.88a5,5,0,0,1-3.22-1.18l-44.47-37.53a5,5,0,0,1,6.45-7.64l44.47,37.53a5,5,0,0,1-3.23,8.82Z"/><path class="cls-1" d="M200.48,382a5,5,0,0,1-4.85-3.82L184.3,331.48a5,5,0,0,1,3.67-6l24.73-6a5,5,0,0,1,5.08,1.72L251,362.48a5,5,0,0,1-2.72,8L201.67,381.8A4.91,4.91,0,0,1,200.48,382Zm20.09-9.88h0ZM195.19,334l9,36.93,34.13-8.3L212,329.9Z"/><path class="cls-1" d="M155.38,196.35a5,5,0,0,1-4.85-3.82L139.2,145.89a5,5,0,0,1,3.67-6l24.73-6a5,5,0,0,1,5.08,1.72l33.25,41.32a5,5,0,0,1-2.72,8l-46.64,11.34A5.44,5.44,0,0,1,155.38,196.35Zm-5.29-48,9,36.93L193.2,177,166.88,144.3Z"/><path class="cls-1" d="M32.72,335.24a5,5,0,0,1-4.56-7.06l21.41-47.39A5,5,0,0,1,53,278l46.64-11.34a5,5,0,0,1,5.24,7.79l-37,51.17A4.93,4.93,0,0,1,65,327.54L33.9,335.1A5.35,5.35,0,0,1,32.72,335.24Zm25-48.11L41.49,323l19.35-4.7,27.94-38.69Z"/><path class="cls-1" d="M408.09,219a14,14,0,0,1-8-2.48c-7.32-5-8.91-15.9-9.07-17.13a5,5,0,0,1,3.78-5.49l48.34-11.75a5,5,0,0,1,2.36,9.72L402,202.43c.78,2.25,2,4.67,3.74,5.86a4.54,4.54,0,0,0,4,.5l51.5-12.51a5,5,0,1,1,2.36,9.71l-51.5,12.52A16.71,16.71,0,0,1,408.09,219Z"/><path class="cls-1" d="M431.41,213.66a5,5,0,0,1-4.32-2.48L417.62,195a5,5,0,1,1,8.63-5l9.47,16.22a5,5,0,0,1-4.31,7.52Z"/><path class="cls-1" d="M272.4,247.15a5,5,0,0,1-4.85-3.82l-.24-1A5,5,0,1,1,277,240l.24,1a5,5,0,0,1-3.68,6A4.89,4.89,0,0,1,272.4,247.15Z"/><path class="cls-1" d="M248,253.09a5,5,0,0,1-4.85-3.82l-.24-1a5,5,0,1,1,9.72-2.36l.23,1a5,5,0,0,1-3.67,6A5.44,5.44,0,0,1,248,253.09Z"/><path class="cls-1" d="M223.54,259a5,5,0,0,1-4.85-3.82l-.24-1a5,5,0,0,1,9.72-2.35l.23,1a5,5,0,0,1-3.68,6A5.28,5.28,0,0,1,223.54,259Z"/><path class="cls-1" d="M199.11,265a5,5,0,0,1-4.86-3.82l-.23-1a5,5,0,1,1,9.71-2.36l.24,1a5,5,0,0,1-3.68,6A4.76,4.76,0,0,1,199.11,265Z"/><path class="cls-1" d="M174.68,270.9a5,5,0,0,1-4.86-3.82l-.23-1a5,5,0,1,1,9.71-2.36l.24,1a5,5,0,0,1-3.68,6A5.35,5.35,0,0,1,174.68,270.9Z"/><path class="cls-1" d="M150.24,276.84a5,5,0,0,1-4.85-3.82l-.24-1a5,5,0,0,1,9.72-2.37l.24,1a5,5,0,0,1-3.68,6A5.37,5.37,0,0,1,150.24,276.84Z"/><path class="cls-1" d="M296.84,241.22A5,5,0,0,1,292,237.4l-.23-1a5,5,0,1,1,9.71-2.37l.24,1a5,5,0,0,1-3.68,6A4.83,4.83,0,0,1,296.84,241.22Z"/><path class="cls-1" d="M321.27,235.28a5,5,0,0,1-4.86-3.82l-.23-1a5,5,0,1,1,9.71-2.36l.24,1a5,5,0,0,1-3.68,6A5.28,5.28,0,0,1,321.27,235.28Z"/><path class="cls-1" d="M344,244.16a5,5,0,0,1-4.86-3.82l-6.84-28.18a5,5,0,0,1,.58-3.78,5,5,0,0,1,3.09-2.26l22.35-5.43a5,5,0,0,1,6,3.68l6.85,28.18a5,5,0,0,1-3.68,6L345.19,244A5.21,5.21,0,0,1,344,244.16Zm-.81-29.5,4.49,18.46,12.63-3.07-4.48-18.46Z"/><path class="cls-1" d="M442.42,89a5,5,0,0,1-2.57-9.28c13.22-7.94,32-4.35,32.85-4.2a5,5,0,0,1-1.93,9.82h0c-.15,0-15.88-3-25.78,3A5,5,0,0,1,442.42,89Z"/><path class="cls-1" d="M377.75,64a5,5,0,0,1-4.95-4.36c-.44-3.34-3-7.4-3.86-8.56a5,5,0,1,1,8-6c.5.67,4.91,6.74,5.75,13.24a5,5,0,0,1-4.31,5.61C378.18,64,378,64,377.75,64Z"/><path class="cls-1" d="M456.81,149.13h-125a40.76,40.76,0,0,1-10.19-79.85c-.07-.82-.1-1.64-.1-2.47a31.86,31.86,0,0,1,51-25.45A55.23,55.23,0,0,1,476.37,67.59a56.62,56.62,0,0,1-.72,8.93,37.23,37.23,0,0,1-11.23,72.61Zm-124.71-10H464.36a27.23,27.23,0,0,0,4.52-54,5,5,0,0,1-3.95-6.17,45.23,45.23,0,0,0-86.07-27.38,5,5,0,0,1-8.54,1.4,21.86,21.86,0,0,0-38.77,13.84,22.08,22.08,0,0,0,.61,5.13,5,5,0,0,1-4,6.11,30.75,30.75,0,0,0,4,61.08Z"/><path class="cls-1" d="M353.87,79.23A5,5,0,0,1,352.3,79c-11.42-3.75-26.62-.54-26.78-.5a5,5,0,0,1-2.11-9.78c.73-.16,18-3.81,32,.78a5,5,0,0,1-1.56,9.75Z"/><path class="cls-1" d="M91,439.67a5,5,0,0,1-3.07-1.06c-8.18-6.36-23.36-3.83-28.52-2.31A5,5,0,0,1,53,431.5c0-8.45-2.53-15-7.52-19.49C35,402.64,17.22,404.45,17,404.47A5,5,0,0,1,16,394.53c.91-.1,22.47-2.28,36.19,10,5.86,5.26,9.37,12.24,10.47,20.82,7.89-1.31,21.8-2.18,31.45,5.33A5,5,0,0,1,91,439.67Z"/><path class="cls-1" d="M323,468.49a5.06,5.06,0,0,1-1.75-.32,5,5,0,0,1-3.24-4.35c-.11-1.36-3.31-34.24-57.67-38.33-35.72-2.69-52.45,11-63,23.25a5,5,0,0,1-3.74,1.73h0a5,5,0,0,1-3.73-1.67c-10.74-12-26.11-6.5-26.26-6.44a5.07,5.07,0,0,1-3.88-.17,5,5,0,0,1-2.59-2.9c-.3-.86-8.06-21.63-36-17.35S91.68,449.23,91.63,450.2a5,5,0,0,1-10-.38c.4-11.12,8.83-33.32,37.91-37.77,25.36-3.88,39.53,9.45,45.08,19.72,6.37-1.24,18.27-1.93,28.65,6.55,11.66-12.14,31.16-25.57,67.81-22.81,18,1.36,42.59,6.81,57.1,25.07a48.16,48.16,0,0,1,8,14.47c7.4-4,18.53-6.25,30.45,1a5,5,0,1,1-5.2,8.54c-13.78-8.39-24.4,2-24.84,2.41A5,5,0,0,1,323,468.49Z"/><path class="cls-1" d="M302.74,438.18l-.42,0a5,5,0,0,1-4.57-5.4,47.85,47.85,0,0,1,9.09-22.39c6.92-9.38,20.45-20.45,46.08-21.74a74.61,74.61,0,0,1,2.91-18.79c5.06-17.16,16.14-29.11,32.05-34.57,17.67-6.06,33.85-5.84,46.79.62a44.83,44.83,0,0,1,22.59,26.56,5,5,0,0,1-9.52,3.1,34.79,34.79,0,0,0-17.54-20.71c-10.49-5.24-24-5.28-39.08-.11-12.8,4.39-21.42,13.69-25.61,27.64A63.49,63.49,0,0,0,363,393.09a5,5,0,0,1-5,5.41c-19.89,0-34.4,6-43.11,17.81a38.49,38.49,0,0,0-7.18,17.28A5,5,0,0,1,302.74,438.18Z"/><path class="cls-1" d="M496.5,420.5a5,5,0,0,1-5-5c0-14.24-12.93-17-13.48-17.1a5,5,0,0,1-3.5-7.11c0-.06,3.63-7.65,1.07-13.79-1.36-3.28-4.3-5.66-9-7.27-16.49-5.7-23.28,8.94-23.56,9.57a5,5,0,0,1-9.12-4.1c3.67-8.18,15.91-21.84,35.94-14.93,7.46,2.58,12.5,6.94,15,13s1.68,12.34.53,16.64c7.35,3.34,16.11,11,16.11,25.11A5,5,0,0,1,496.5,420.5Z"/><path class="cls-1" d="M362.17,500.5a5.39,5.39,0,0,1-1-.09,5,5,0,0,1-3.94-5.87,60.15,60.15,0,0,1,39.18-44.91,67.93,67.93,0,0,1,29.95-2.8c8.05,1,19.47,3.92,28.17,11.95a28.93,28.93,0,0,1,4.83,5.74c6.6-.78,20.46-1.32,30.63,5.91,6.47,4.61,10.32,11.43,11.44,20.28a5,5,0,0,1-9.92,1.25c-.76-6-3.16-10.42-7.32-13.38-8.27-5.88-22-4.66-26.52-3.69a5,5,0,0,1-5.61-2.87,18,18,0,0,0-4.31-5.9c-11.58-10.68-33.95-12-48-7.05-16.52,5.78-29.34,20.45-32.67,37.39A5,5,0,0,1,362.17,500.5Z"/></g><g id="Outline"><path class="cls-1" d="M349.83,305.72A5,5,0,0,1,345,301.9l-11.56-47.56a5,5,0,1,1,9.72-2.36l11.56,47.56a5,5,0,0,1-3.68,6A5.44,5.44,0,0,1,349.83,305.72Z"/><path class="cls-1" d="M54.73,269.17a5,5,0,0,1-4.85-3.82L25.79,166.24a5,5,0,0,1,9.72-2.36L59.6,263a5,5,0,0,1-3.68,6A4.89,4.89,0,0,1,54.73,269.17Z"/><path class="cls-1" d="M195.83,87.48A5,5,0,0,1,191,83.71c-3.17-12.5-19.52-10.48-20.22-10.39a5,5,0,0,1-1.36-9.9c6.27-.88,17.05-.09,24.39,6.34,2.92-5.72,8.69-11.45,20-12.85a5,5,0,1,1,1.23,9.92c-6.46.8-10.65,3.52-12.8,8.32a16.83,16.83,0,0,0-1.45,7,5,5,0,0,1-4.21,5.26A4.29,4.29,0,0,1,195.83,87.48Z"/><path class="cls-1" d="M468.43,316.84h-.29a5,5,0,0,1-4.71-4.77c-.51-12.88-16.92-14.29-17.62-14.35a5,5,0,0,1,.71-10c6.33.44,16.71,3.45,22.56,11.26,4-5,10.87-9.39,22.27-8.42a5,5,0,1,1-.85,10c-14.27-1.24-16.77,9.83-17.13,12.06A5,5,0,0,1,468.43,316.84Z"/></g></svg>