<?xml version="1.0" ?><svg id="Lines" viewBox="0 0 512 512" xmlns="http://www.w3.org/2000/svg"><defs><style>.cls-1{fill:#3f456b;}</style></defs><title/><path class="cls-1" d="M256.66,307.63a136,136,0,0,1-86-30.39,127.25,127.25,0,0,1-43.82-70.33,27.12,27.12,0,0,1,0-54.1C140,94.2,193.87,52.09,256.66,52.09c64.75,0,117.78,41.2,130.43,100.72a27.13,27.13,0,0,1-.68,54.14A126.88,126.88,0,0,1,344.05,276,135.64,135.64,0,0,1,256.66,307.63ZM130.75,195.71a5,5,0,0,1,4.92,4.12,116.8,116.8,0,0,0,41.38,69.67,126.68,126.68,0,0,0,160.56-1.12,116.39,116.39,0,0,0,40.61-72.06,5,5,0,0,1,9.93.38,17.13,17.13,0,0,0-3.13-34c-.53,0-1.06,0-1.59.08a5,5,0,0,1-5.38-4.1,113.29,113.29,0,0,0-41.31-69.65c-22.12-17.64-49.81-27-80.08-27-59.44,0-110.24,40.66-120.79,96.68a5,5,0,0,1-5.38,4l-.37,0c-.4,0-.81-.05-1.22-.05a17.12,17.12,0,0,0-1.42,34.19,4.92,4.92,0,0,1,2.84-1.19A3.1,3.1,0,0,1,130.75,195.71Z"/><path class="cls-1" d="M256.43,265.42c-20.37,0-49-3.88-69.39-22.4-12.54-11.37-16-22.92-16.18-23.41a5,5,0,0,1,9.59-2.83c.07.2,3.14,9.81,13.79,19.26,14.29,12.68,35.8,19.38,62.19,19.38,63.89,0,75.3-37.09,75.41-37.47a5,5,0,1,1,9.61,2.77C340.92,222.54,327.77,265.42,256.43,265.42Z"/><path class="cls-1" d="M300.8,179.53c-12.62,0-18.43-10-19.74-15.29a5,5,0,1,1,9.7-2.41c.2.75,2.29,7.7,10,7.7,8.56,0,10.49-6.32,10.8-7.59a5,5,0,0,1,5.92-3.83,5,5,0,0,1,3.85,6C320.24,169.42,314.48,179.53,300.8,179.53Z"/><path class="cls-1" d="M210.52,179.53c-12.19,0-18.22-9.9-19.7-15.13a5,5,0,1,1,9.62-2.73c.23.77,2.59,7.86,10.08,7.86,8.24,0,10.88-7.94,10.91-8a5,5,0,1,1,9.52,3.05C229.29,169.74,222.88,179.53,210.52,179.53Z"/><path class="cls-1" d="M257,500.5c-100.9,0-183-82.08-183-183V194.35c0-100.89,82.08-183,183-183s183,82.09,183,183V317.52C440,418.42,357.88,500.5,257,500.5Zm0-479.13c-95.38,0-173,77.6-173,173V317.52c0,95.38,77.6,173,173,173s173-77.6,173-173V194.35C430,99,352.37,21.37,257,21.37Z"/><path class="cls-1" d="M344.08,398.42A370.63,370.63,0,0,1,235.92,382c-41.4-12.7-79.75-35-108-62.69-32.61-32-51.24-70.58-53.9-111.53a5,5,0,0,1,10-.64c3.59,55.43,46.3,132,154.85,165.3,60.79,18.66,125.45,21,182,6.67a5,5,0,0,1,2.46,9.7A323.59,323.59,0,0,1,344.08,398.42Z"/><path class="cls-1" d="M240.55,377.28q-9.65,0-19.6-.54a5,5,0,0,1,.54-10c40.06,2.18,75.95-2.4,106.68-13.61,24.46-8.93,45.75-22.07,63.27-39.06,29.9-29,38.62-59.6,38.71-59.91a5,5,0,0,1,9.64,2.65c-.37,1.34-9.34,33.16-41,64-18.53,18.08-41,32.05-66.85,41.53C305,372.29,274.33,377.28,240.55,377.28Z"/><path class="cls-1" d="M108.5,422.31h-72a25,25,0,0,1-25-25V115.5a25,25,0,0,1,25-25H109a5,5,0,0,1,0,10H36.5a15,15,0,0,0-15,15V397.31a15,15,0,0,0,15,15h72a5,5,0,0,1,0,10Z"/><path class="cls-1" d="M476.5,422.31H404.38a5,5,0,0,1,0-10H476.5a15,15,0,0,0,15-15V115.5a15,15,0,0,0-15-15H405a5,5,0,0,1,0-10H476.5a25,25,0,0,1,25,25V397.31A25,25,0,0,1,476.5,422.31Z"/><path class="cls-1" d="M269.89,119.52h-1a32.53,32.53,0,0,1-19.83-7.25,26.45,26.45,0,0,1-9.6-20.17,5,5,0,0,1,10-.18c.2,11.17,10.08,17.31,19.73,17.6,8.71.26,19.22-4.27,20.29-17.9.54-6.94-1.14-12.58-5.13-17.24-9.22-10.77-27.59-12.28-27.77-12.3a5,5,0,0,1,.73-10c.92.07,22.63,1.8,34.6,15.72,5.75,6.7,8.29,15,7.53,24.57C298,111.16,283.31,119.52,269.89,119.52Z"/></svg>