<?xml version="1.0" ?><svg viewBox="0 0 512 512" xmlns="http://www.w3.org/2000/svg"><defs><style>.cls-1{fill:#3f456b;}</style></defs><title/><g id="Lines"><path class="cls-1" d="M222,412.87a5,5,0,0,1-3.53-8.54L243,379.84,204.11,341a5,5,0,1,1,7.07-7.07l42.41,42.42a5,5,0,0,1,0,7.07l-28,28A5,5,0,0,1,222,412.87Z"/><path class="cls-1" d="M61.52,440.49a5,5,0,0,1-4.21-2.31C46,420.55,34.58,393.5,44,364.71a67.44,67.44,0,0,1,16.63-27.32l73.49-73.49a5,5,0,0,1,7.07,0l41.41,41.41a5,5,0,1,1-7.07,7.07l-37.88-37.87-70,70-.2.19c-1.49,1.35-36.3,33.92-1.69,88.06a5,5,0,0,1-4.21,7.7Z"/><path class="cls-1" d="M163.9,379.28c-.56,0-1.13,0-1.69-.06a27.17,27.17,0,0,1-24.64-24.64,21.15,21.15,0,0,1,6-16.72l44.27-44.27a5,5,0,0,1,7.08,0l28.28,28.28a5,5,0,0,1,0,7.07l-44.27,44.27A20.92,20.92,0,0,1,163.9,379.28Zm27.48-75.09-40.74,40.74a11.33,11.33,0,0,0-3.1,8.95,17.18,17.18,0,0,0,15.36,15.36,11.27,11.27,0,0,0,9-3.1h0l40.73-40.73Z"/><path class="cls-1" d="M396.64,153.44A5,5,0,0,1,393.1,152l-28.28-28.28a5,5,0,0,1,0-7.07l28-28a5,5,0,1,1,7.07,7.07l-24.47,24.47,21.22,21.21,24.47-24.47a5,5,0,0,1,7.07,7.07l-28,28A5,5,0,0,1,396.64,153.44Z"/><path class="cls-1" d="M194.92,305.66a5,5,0,0,1-3.54-8.54l177-177a5,5,0,0,1,7.07,7.07l-177,177A5,5,0,0,1,194.92,305.66Z"/><path class="cls-1" d="M216.13,326.87a5,5,0,0,1-3.54-8.53l177-177a5,5,0,1,1,7.08,7.07l-177,177A5,5,0,0,1,216.13,326.87Z"/><path class="cls-1" d="M480.78,108.89a5,5,0,0,1-3.53-1.47L409.36,39.54a5,5,0,0,1,0-7.07L427,14.79a5,5,0,0,1,7.07,0L502,82.67a5,5,0,0,1,0,7.08l-17.67,17.67A5,5,0,0,1,480.78,108.89ZM420,36l60.81,60.82,10.61-10.61L430.58,25.4Z"/><path class="cls-1" d="M439.76,131.49a25.34,25.34,0,0,1-18.52-7.67L393,95.54a25.32,25.32,0,0,1-7.66-18.81c.2-21.07,23.16-43.39,24.13-44.33a5,5,0,0,1,6.94,7.21,102.35,102.35,0,0,0-10.75,12.64c-6.69,9.31-10.26,17.81-10.32,24.59A15.45,15.45,0,0,0,400,88.47l28.28,28.28A15.51,15.51,0,0,0,440,121.49c14.05-.14,31.63-15.26,37.22-21.07a5,5,0,0,1,7.21,6.93c-.94,1-23.25,23.93-44.33,24.14Z"/><path class="cls-1" d="M496,500H16a5,5,0,0,1-4.75-6.55c.44-1.38,11.39-34.05,46.73-60.81,20.68-15.66,45.45-26,73.63-30.74,34.9-5.87,75.15-3.1,119.63,8.26a5,5,0,0,1-2.48,9.68c-43.11-11-82-13.72-115.49-8.08C106.7,416.23,83.4,425.93,64,440.61A135,135,0,0,0,23.47,490H490.28A209,209,0,0,0,466,421.64a172.93,172.93,0,0,0-48.21-54.37C393.5,349.61,364.09,338.4,330.35,334c-39.79-5.24-76.38.84-108.74,18.06a5,5,0,1,1-4.69-8.83C251.15,325,289.75,318.53,331.65,324c35.51,4.67,66.53,16.55,92.2,35.3a182.72,182.72,0,0,1,51,57.68c22.53,39.5,26,76,26.14,77.54a5,5,0,0,1-5,5.44Z"/></g><g id="Outline"><path class="cls-1" d="M428,402.4h-1a5,5,0,0,1,0-10h1a5,5,0,0,1,0,10Z"/><path class="cls-1" d="M444,437.6h-1a5,5,0,0,1,0-10h1a5,5,0,0,1,0,10Z"/><path class="cls-1" d="M428,472.8h-1a5,5,0,0,1,0-10h1a5,5,0,0,1,0,10Z"/><path class="cls-1" d="M461,473h-1a5,5,0,0,1,0-10h1a5,5,0,0,1,0,10Z"/><path class="cls-1" d="M397.08,402.4h-1a5,5,0,0,1,0-10h1a5,5,0,1,1,0,10Z"/><path class="cls-1" d="M413.08,437.6h-1a5,5,0,0,1,0-10h1a5,5,0,1,1,0,10Z"/><path class="cls-1" d="M397.08,472.8h-1a5,5,0,0,1,0-10h1a5,5,0,0,1,0,10Z"/><path class="cls-1" d="M382.17,367.2h-1a5,5,0,0,1,0-10h1a5,5,0,0,1,0,10Z"/><path class="cls-1" d="M366.17,402.4h-1a5,5,0,1,1,0-10h1a5,5,0,0,1,0,10Z"/><path class="cls-1" d="M382.17,437.6h-1a5,5,0,1,1,0-10h1a5,5,0,0,1,0,10Z"/><path class="cls-1" d="M366.17,472.8h-1a5,5,0,0,1,0-10h1a5,5,0,0,1,0,10Z"/><path class="cls-1" d="M351.25,367.2h-1a5,5,0,0,1,0-10h1a5,5,0,0,1,0,10Z"/><path class="cls-1" d="M335.25,402.4h-1a5,5,0,0,1,0-10h1a5,5,0,0,1,0,10Z"/><path class="cls-1" d="M351.25,437.6h-1a5,5,0,0,1,0-10h1a5,5,0,0,1,0,10Z"/><path class="cls-1" d="M335.25,472.8h-1a5,5,0,0,1,0-10h1a5,5,0,0,1,0,10Z"/><path class="cls-1" d="M320.33,367.2h-1a5,5,0,0,1,0-10h1a5,5,0,0,1,0,10Z"/><path class="cls-1" d="M304.33,402.4h-1a5,5,0,0,1,0-10h1a5,5,0,1,1,0,10Z"/><path class="cls-1" d="M320.33,437.6h-1a5,5,0,0,1,0-10h1a5,5,0,1,1,0,10Z"/><path class="cls-1" d="M304.33,472.8h-1a5,5,0,0,1,0-10h1a5,5,0,0,1,0,10Z"/><path class="cls-1" d="M289.42,367.2h-1a5,5,0,0,1,0-10h1a5,5,0,0,1,0,10Z"/><path class="cls-1" d="M273.42,402.4h-1a5,5,0,1,1,0-10h1a5,5,0,0,1,0,10Z"/><path class="cls-1" d="M289.42,437.6h-1a5,5,0,1,1,0-10h1a5,5,0,0,1,0,10Z"/><path class="cls-1" d="M273.42,472.8h-1a5,5,0,0,1,0-10h1a5,5,0,0,1,0,10Z"/><path class="cls-1" d="M258.5,367.2h-1a5,5,0,0,1,0-10h1a5,5,0,0,1,0,10Z"/><path class="cls-1" d="M258.5,437.6h-1a5,5,0,0,1,0-10h1a5,5,0,0,1,0,10Z"/><path class="cls-1" d="M242.5,472.8h-1a5,5,0,1,1,0-10h1a5,5,0,0,1,0,10Z"/><path class="cls-1" d="M227.58,437.6h-1a5,5,0,0,1,0-10h1a5,5,0,1,1,0,10Z"/><path class="cls-1" d="M211.58,472.8h-1a5,5,0,1,1,0-10h1a5,5,0,0,1,0,10Z"/><path class="cls-1" d="M196.67,437.6h-1a5,5,0,1,1,0-10h1a5,5,0,0,1,0,10Z"/><path class="cls-1" d="M180.67,472.8h-1a5,5,0,0,1,0-10h1a5,5,0,1,1,0,10Z"/><path class="cls-1" d="M165.75,437.6h-1a5,5,0,0,1,0-10h1a5,5,0,0,1,0,10Z"/><path class="cls-1" d="M149.75,472.8h-1a5,5,0,1,1,0-10h1a5,5,0,0,1,0,10Z"/><path class="cls-1" d="M134.83,437.6h-1a5,5,0,0,1,0-10h1a5,5,0,1,1,0,10Z"/><path class="cls-1" d="M118.83,472.8h-1a5,5,0,1,1,0-10h1a5,5,0,0,1,0,10Z"/><path class="cls-1" d="M103.92,437.6h-1a5,5,0,1,1,0-10h1a5,5,0,0,1,0,10Z"/><path class="cls-1" d="M87.92,472.8h-1a5,5,0,0,1,0-10h1a5,5,0,1,1,0,10Z"/><path class="cls-1" d="M57,472.8H56a5,5,0,1,1,0-10h1a5,5,0,0,1,0,10Z"/></g></svg>