<?xml version="1.0" encoding="iso-8859-1"?>
<!-- Generator: Adobe Illustrator 19.0.0, SVG Export Plug-In . SVG Version: 6.00 Build 0)  -->
<svg version="1.1" id="Capa_1" xmlns="http://www.w3.org/2000/svg" xmlns:xlink="http://www.w3.org/1999/xlink" x="0px" y="0px"
	 viewBox="0 0 512.043 512.043" style="enable-background:new 0 0 512.043 512.043;" xml:space="preserve">
<g>
	<g>
		<path d="M508.891,493.845l-57.749-57.749c11.264-14.443,18.219-32.363,18.219-52.053c0-47.061-38.272-85.333-85.333-85.333
			s-85.333,38.272-85.333,85.333c0,47.061,38.272,85.333,85.333,85.333c19.669,0,37.589-6.955,52.032-18.197l57.749,57.749
			c2.091,2.069,4.821,3.115,7.552,3.115c2.731,0,5.461-1.045,7.531-3.115C513.051,504.768,513.051,498.005,508.891,493.845z
			 M384.027,448.043c-35.285,0-64-28.715-64-64s28.715-64,64-64c35.285,0,64,28.715,64,64
			C448.027,419.328,419.313,448.043,384.027,448.043z"/>
	</g>
</g>
<g>
	<g>
		<path d="M501.211,328.96l-53.333-320c-0.981-5.803-6.613-9.771-12.267-8.768l-133.76,22.293L32.923,0.064
			c-3.008-0.341-5.717,0.704-7.893,2.581c-2.176,1.899-3.499,4.587-3.648,7.467l-21.333,384c-0.32,5.653,3.819,10.581,9.451,11.2
			l93.205,10.368l4.16,23.552c0.896,5.163,5.397,8.811,10.475,8.811c0.491,0,1.024-0.021,1.493-0.128l149.333-21.333
			c5.845-0.832,9.899-6.251,9.067-12.075c-0.853-5.824-6.379-9.856-12.053-9.045l-139.115,19.883L65.734,83.456l362.859-60.48
			l51.584,309.483c0.981,5.824,6.571,9.813,12.267,8.768C498.246,340.267,502.193,334.763,501.211,328.96z M51.611,64.192
			c-2.816,0.469-5.312,2.069-6.955,4.373s-2.283,5.205-1.792,8l55.979,317.205l-76.928-8.555l20.16-362.965l174.123,14.507
			L51.611,64.192z"/>
	</g>
</g>
<g>
</g>
<g>
</g>
<g>
</g>
<g>
</g>
<g>
</g>
<g>
</g>
<g>
</g>
<g>
</g>
<g>
</g>
<g>
</g>
<g>
</g>
<g>
</g>
<g>
</g>
<g>
</g>
<g>
</g>
</svg>
