<?xml version="1.0" ?><svg id="Lines" viewBox="0 0 512 512" xmlns="http://www.w3.org/2000/svg"><defs><style>.cls-1{fill:#3f456b;}</style></defs><title/><path class="cls-1" d="M448,196h-1a5,5,0,0,1,0-10h1a5,5,0,0,1,0,10Z"/><path class="cls-1" d="M419,196h-1a5,5,0,0,1,0-10h1a5,5,0,0,1,0,10Z"/><path class="cls-1" d="M466,500H46c-18.64,0-35-17.76-35-38V174a35,35,0,0,1,35-35H466a35,35,0,0,1,35,35V465A35,35,0,0,1,466,500ZM46,149a25,25,0,0,0-25,25V462c0,13.22,10.69,28,25,28H466a25,25,0,0,0,25-25V174a25,25,0,0,0-25-25Z"/><path class="cls-1" d="M384,149H128a5,5,0,0,1-5-5V63.33a5,5,0,0,1,5-5h0l43.7.15L171.5,15a5,5,0,0,1,5-5H384a5,5,0,0,1,5,5V144A5,5,0,0,1,384,149ZM133,139H379V20H181.53l.22,43.47a5,5,0,0,1-5,5h0L133,68.35Z"/><path class="cls-1" d="M128,68.33a5,5,0,0,1-3.53-8.54L173,11.46A5,5,0,0,1,180,18.54l-48.5,48.34A5,5,0,0,1,128,68.33Z"/><path class="cls-1" d="M409.61,451H103.39C96,451,90,444.27,90,436V248c0-8.27,6-15,13.39-15H409.61C417,233,423,239.73,423,248V436C423,444.27,417,451,409.61,451ZM103.39,243c-1.6,0-3.39,2.05-3.39,5V436c0,2.95,1.79,5,3.39,5H409.61c1.6,0,3.39-2.05,3.39-5V248c0-2.95-1.79-5-3.39-5Z"/><path class="cls-1" d="M336,243a5,5,0,0,1-5-5V221.06A10.09,10.09,0,0,0,320.67,211H191.33A10.09,10.09,0,0,0,181,221.06V238a5,5,0,0,1-10,0V221.06A20,20,0,0,1,191.33,201H320.67A20,20,0,0,1,341,221.06V238A5,5,0,0,1,336,243Z"/><path class="cls-1" d="M164,372H128a5,5,0,0,1-5-5V238a5,5,0,0,1,5-5h36a5,5,0,0,1,5,5V367A5,5,0,0,1,164,372Zm-31-10h26V243H133Z"/><path class="cls-1" d="M220,330H184a5,5,0,0,1-5-5V238a5,5,0,0,1,5-5h36a5,5,0,0,1,5,5v87A5,5,0,0,1,220,330Zm-31-10h26V243H189Z"/><path class="cls-1" d="M275,410H238a5,5,0,0,1-5-5V238a5,5,0,0,1,5-5h37a5,5,0,0,1,5,5V405A5,5,0,0,1,275,410Zm-32-10h27V243H243Z"/><path class="cls-1" d="M329,372H293a5,5,0,0,1-5-5V238a5,5,0,0,1,5-5h36a5,5,0,0,1,5,5V367A5,5,0,0,1,329,372Zm-31-10h26V243H298Z"/><path class="cls-1" d="M384,410H347a5,5,0,0,1-5-5V238a5,5,0,0,1,5-5h37a5,5,0,0,1,5,5V405A5,5,0,0,1,384,410Zm-32-10h27V243H352Z"/></svg>