<?xml version="1.0" ?><svg viewBox="0 0 512 512" xmlns="http://www.w3.org/2000/svg"><defs><style>.cls-1{fill:#3f456b;}</style></defs><title/><g id="Lines"><path class="cls-1" d="M432.68,103.77h-40.6a5,5,0,0,1,0-10h35.6V58.33h-35.6a5,5,0,0,1,0-10h40.6a5,5,0,0,1,5,5V98.77A5,5,0,0,1,432.68,103.77Z"/><path class="cls-1" d="M17,440a5,5,0,0,1-5-5V55a5,5,0,0,1,10,0V435A5,5,0,0,1,17,440Z"/><path class="cls-1" d="M391.11,485H111a5,5,0,0,1,0-10H386.11V392a5,5,0,0,1,10,0v88A5,5,0,0,1,391.11,485Z"/><path class="cls-1" d="M63,485H57.87C32.57,485,12,462.62,12,435.11v-.39c0-27.37,20.58-49.63,45.88-49.63H386.11V360.38a5,5,0,0,1,10,0v29.71a5,5,0,0,1-5,5H57.87C38.08,395.09,22,412.87,22,434.72v.39c0,22,16.09,39.89,35.88,39.89H63a5,5,0,0,1,0,10Z"/><path class="cls-1" d="M391.11,155.75a5,5,0,0,1-5-5V20H57.87C38.08,20,22,37.5,22,59v.47a5,5,0,0,1-10,0V59c0-27,20.58-49,45.88-49H391.11a5,5,0,0,1,5,5V150.75A5,5,0,0,1,391.11,155.75Z"/><path class="cls-1" d="M204.74,194.45A5,5,0,0,1,200,191.1L159.59,75.66l-42,115.5a5,5,0,1,1-9.39-3.42L155,59.09a5,5,0,0,1,4.7-3.29h0a5,5,0,0,1,4.69,3.34L209.46,187.8a5,5,0,0,1-4.72,6.65Z"/><path class="cls-1" d="M194.24,168.19H123.35a5,5,0,1,1,0-10h70.89a5,5,0,0,1,0,10Z"/><path class="cls-1" d="M244,222.2H219.08a5,5,0,0,1-4.18-7.73l69.86-107H219.08a5,5,0,0,1,0-10H294a5,5,0,0,1,4.19,7.74l-69.87,107H244a5,5,0,0,1,0,10Z"/><path class="cls-1" d="M350,372.76a117.15,117.15,0,1,1,58.4-15.68A117.24,117.24,0,0,1,350,372.76Zm-93-63.57a107.17,107.17,0,1,0-10.71-81.34A107.31,107.31,0,0,0,257,309.19Z"/><path class="cls-1" d="M475.65,499.82a28.36,28.36,0,0,1-7.34-1,28,28,0,0,1-17.14-13.15l-52.89-91.61a5,5,0,0,1,1.84-6.83l40.24-23.16a5,5,0,0,1,6.82,1.84L500,457.49a28.23,28.23,0,0,1-24.39,42.33ZM409.44,393.43l50.39,87.27a18.21,18.21,0,1,0,31.55-18.21L441,375.26Z"/><path class="cls-1" d="M422.72,385a5,5,0,0,1-4.34-2.5l-15-26a5,5,0,0,1,8.66-5l15,26a5,5,0,0,1-1.83,6.83A4.88,4.88,0,0,1,422.72,385Z"/><path class="cls-1" d="M329,251H238a5,5,0,0,1,0-10h91a5,5,0,0,1,0,10Z"/><path class="cls-1" d="M342,372.33a5,5,0,0,1-5-5v-41H259.33a5,5,0,1,1,0-10H342a5,5,0,0,1,5,5v46A5,5,0,0,1,342,372.33Z"/><path class="cls-1" d="M122,441H52a5,5,0,0,1,0-10h70a5,5,0,0,1,0,10Z"/><path class="cls-1" d="M111,505a5,5,0,0,1-2.24-.53L87,493.59,65.24,504.47A5,5,0,0,1,58,500V436a5,5,0,0,1,10,0v55.91l16.76-8.38a5,5,0,0,1,4.48,0L106,491.91V436.75a5,5,0,0,1,10,0V500a5,5,0,0,1-5,5Z"/><path class="cls-1" d="M271,341H113a5,5,0,0,1-5-5V303a5,5,0,0,1,5-5H248a5,5,0,0,1,0,10H118v23H271a5,5,0,0,1,0,10Z"/></g><g id="Outline"><path class="cls-1" d="M391.11,417.1H24a5,5,0,0,1,0-10H391.11a5,5,0,0,1,0,10Z"/><path class="cls-1" d="M391.11,464.1H111a5,5,0,0,1,0-10H391.11a5,5,0,0,1,0,10Z"/><path class="cls-1" d="M389.18,441H20.85a5,5,0,0,1,0-10H389.18a5,5,0,1,1,0,10Z"/><path class="cls-1" d="M63,464H24a5,5,0,0,1,0-10H63a5,5,0,0,1,0,10Z"/><path class="cls-1" d="M48,348a5,5,0,0,1-5-5v-1a5,5,0,0,1,10,0v1A5,5,0,0,1,48,348Zm0-21a5,5,0,0,1-5-5v-1a5,5,0,0,1,10,0v1A5,5,0,0,1,48,327Zm0-21a5,5,0,0,1-5-5v-1a5,5,0,0,1,10,0v1A5,5,0,0,1,48,306Zm0-21a5,5,0,0,1-5-5v-1a5,5,0,0,1,10,0v1A5,5,0,0,1,48,285Zm0-21a5,5,0,0,1-5-5v-1a5,5,0,0,1,10,0v1A5,5,0,0,1,48,264Zm0-21a5,5,0,0,1-5-5v-1a5,5,0,0,1,10,0v1A5,5,0,0,1,48,243Zm0-21a5,5,0,0,1-5-5v-1a5,5,0,0,1,10,0v1A5,5,0,0,1,48,222Zm0-21a5,5,0,0,1-5-5v-1a5,5,0,0,1,10,0v1A5,5,0,0,1,48,201Zm0-21a5,5,0,0,1-5-5v-1a5,5,0,0,1,10,0v1A5,5,0,0,1,48,180Zm0-21a5,5,0,0,1-5-5v-1a5,5,0,0,1,10,0v1A5,5,0,0,1,48,159Zm0-21a5,5,0,0,1-5-5v-1a5,5,0,0,1,10,0v1A5,5,0,0,1,48,138Zm0-21a5,5,0,0,1-5-5v-1a5,5,0,0,1,10,0v1A5,5,0,0,1,48,117Zm0-21a5,5,0,0,1-5-5V90a5,5,0,0,1,10,0v1A5,5,0,0,1,48,96Zm0-21a5,5,0,0,1-5-5V69a5,5,0,0,1,10,0v1A5,5,0,0,1,48,75Zm0-21a5,5,0,0,1-5-5V48a5,5,0,0,1,10,0v1A5,5,0,0,1,48,54Z"/></g></svg>