<?xml version="1.0" ?><svg viewBox="0 0 512 512" xmlns="http://www.w3.org/2000/svg"><defs><style>.cls-1{fill:#3f456b;}</style></defs><title/><g id="Lines"><path class="cls-1" d="M353,277H318.18l-121.77-.81L161,276a5,5,0,0,1-5-5V238c0-38.08,36.8-61.28,38.37-62.25a5,5,0,1,1,5.26,8.5C199.21,184.51,166,205.6,166,238v28l30.47.16,121.75.81H348V238c0-32.45-33.3-53.54-33.64-53.75a5,5,0,0,1,5.27-8.5c1.57,1,38.37,24.17,38.37,62.25v34A5,5,0,0,1,353,277Z"/><path class="cls-1" d="M322,276a5,5,0,0,1-5-5V239a5,5,0,0,1,10,0v32A5,5,0,0,1,322,276Z"/><path class="cls-1" d="M194,276a5,5,0,0,1-5-5V239a5,5,0,0,1,10,0v32A5,5,0,0,1,194,276Z"/><path class="cls-1" d="M241.28,275.09a5.33,5.33,0,0,1-1.18-.13,5,5,0,0,1-3.69-6l7.45-31-5.72-25.12a5,5,0,0,1,9.75-2.22l6,26.26a5,5,0,0,1,0,2.28l-7.73,32.09A5,5,0,0,1,241.28,275.09Z"/><path class="cls-1" d="M275.27,275.09a5,5,0,0,1-4.85-3.8L262.5,239.2a4.88,4.88,0,0,1,0-2.31l6-26.26a5,5,0,0,1,9.75,2.22L272.49,238l7.64,30.95a5,5,0,0,1-3.66,6.05A4.92,4.92,0,0,1,275.27,275.09Z"/><path class="cls-1" d="M266,243H249a5,5,0,0,1,0-10h17a5,5,0,0,1,0,10Z"/><path class="cls-1" d="M257,218.11a76.08,76.08,0,0,1-75.95-76V120l-.06-1.84a1.09,1.09,0,0,1,0-.18,76,76,0,1,1,151.94,0l0,2.12.05,22A76.1,76.1,0,0,1,257,218.11Zm-66-100.2.07,1.84v22.32a66,66,0,1,0,131.94,0l-.07-24A66,66,0,1,0,191,117.91Z"/><path class="cls-1" d="M184,152a20.54,20.54,0,0,1-9.48-2.66c-4.34-2.48-9.52-7.68-9.52-18.34s5.13-15.85,9.42-18.33a20.42,20.42,0,0,1,9.43-2.67,5,5,0,0,1,.05,10c-2.1,0-8.9,1-8.9,11,0,4.78,1.47,7.94,4.48,9.66A10.87,10.87,0,0,0,184,142a5,5,0,0,1,0,10Z"/><path class="cls-1" d="M329,152a5,5,0,0,1,0-10c9.52-.17,10-9.19,10-11,0-4.72-1.57-7.86-4.79-9.6a12.67,12.67,0,0,0-5-1.4,5,5,0,0,1,0-10c8,0,19.84,5.59,19.84,21S337,152,329,152Z"/><path class="cls-1" d="M225,136h-1a5,5,0,0,1,0-10h1a5,5,0,0,1,0,10Z"/><path class="cls-1" d="M289,136h-1a5,5,0,0,1,0-10h1a5,5,0,0,1,0,10Z"/><path class="cls-1" d="M215.67,120.81a117,117,0,0,1-30.87-4.06,5,5,0,0,1,2.89-9.58h0A109.79,109.79,0,0,0,220,110.72c23-1,40.52-9.6,52-25.63a5,5,0,0,1,8.77,1.21c.48,1.31,12.25,32.21,45.36,21a5,5,0,1,1,3.22,9.46A53.4,53.4,0,0,1,312,119.81c-20,0-31.58-13.74-37-22.66-13.19,14.55-32,22.67-55,23.58C218.58,120.79,217.11,120.81,215.67,120.81Z"/><path class="cls-1" d="M80,352a5,5,0,0,1-5-5V15a5,5,0,0,1,5-5H433a5,5,0,0,1,5,5V343.73a5,5,0,0,1-10,0V20H85V347A5,5,0,0,1,80,352Z"/><path class="cls-1" d="M417,475a5,5,0,0,1-.95-.09c-10.76-2.07-26.27-7.12-39-19.45-12.31-11.87-19-27.42-19.82-46.24-1.78-39.39,8.89-61.31,12-66.84V275.09c0-12.87,11.63-23.34,25.92-23.34s25.92,10.51,25.92,23.43v63.88c12.35,1.68,30.43,10.51,34.29,36.2a5,5,0,0,1-9.89,1.48c-1.77-11.81-7.14-20.08-16-24.58a31.53,31.53,0,0,0-13.33-3.4,5.13,5.13,0,0,1-3.6-1.44,5,5,0,0,1-1.51-3.56V275.18c0-7.4-7.14-13.43-15.92-13.43s-15.92,6-15.92,13.34v68.67a5,5,0,0,1-.82,2.75s-3.3,5.16-6.3,15.34c-2.78,9.41-5.89,25.2-4.91,46.93.73,16.16,6.37,29.45,16.77,39.49,11,10.62,24.56,15,34,16.82A5,5,0,0,1,417,475Z"/><path class="cls-1" d="M496,500H401a5,5,0,0,1-5-5V465a5,5,0,0,1,10,0v25h85V344.88a40.25,40.25,0,0,0-18.52-32.68c-11.55-7.44-29.25-18.23-42.07-26a5,5,0,0,1,5.18-8.56c12.87,7.78,30.65,18.62,42.3,26.13C501,318.65,501,343.2,501,345.05V495A5,5,0,0,1,496,500Z"/><path class="cls-1" d="M430.18,352a5,5,0,0,1-3.67-8.4c.35-.38,8.79-9.37,21.46-10.53a5,5,0,0,1,.91,10c-8.74.8-15,7.29-15,7.36A5,5,0,0,1,430.18,352Z"/><path class="cls-1" d="M96.11,475a5,5,0,0,1-.93-9.91c9.42-1.81,23-6.2,34-16.82,10.4-10,16-23.33,16.77-39.49,1-21.73-2.13-37.52-4.91-46.93-3-10.18-6.28-15.31-6.31-15.36a5.1,5.1,0,0,1-.81-2.73V275.09c0-7.35-7.14-13.34-15.92-13.34s-15.92,6-15.92,13.43v68.58a5,5,0,0,1-1.52,3.58,5.05,5.05,0,0,1-3.61,1.42,31.56,31.56,0,0,0-13.32,3.4c-8.81,4.5-14.18,12.77-16,24.58a5,5,0,0,1-9.89-1.48c3.86-25.68,21.94-34.52,34.29-36.2V275.18c0-12.92,11.63-23.43,25.92-23.43s25.92,10.47,25.92,23.34v67.29c3.13,5.53,13.8,27.45,12,66.84-.84,18.82-7.51,34.37-19.82,46.24-12.77,12.33-28.28,17.38-39,19.45A5,5,0,0,1,96.11,475Z"/><path class="cls-1" d="M112.12,500h-95a5,5,0,0,1-5-5V345.1c-.08-2.38-.38-27.65,23.3-41.42,13.52-7.87,30.39-17.31,42.15-23.84a5,5,0,0,1,4.86,8.74c-11.73,6.51-28.53,15.92-42,23.74-19.14,11.13-18.35,32.23-18.34,32.44a1.93,1.93,0,0,1,0,.24V490h85V465a5,5,0,0,1,10,0v30A5,5,0,0,1,112.12,500Z"/><path class="cls-1" d="M82.94,352a5,5,0,0,1-3.67-1.6c-.11-.11-6.31-6.57-15-7.37a5,5,0,0,1,.91-10c12.67,1.16,21.11,10.15,21.46,10.53a5,5,0,0,1-3.67,8.4Z"/><path class="cls-1" d="M376,452H137a5,5,0,0,1,0-10H376a5,5,0,0,1,0,10Z"/><path class="cls-1" d="M53.06,178.14a34.67,34.67,0,0,1-7.63-68.48l33.47-7.54a5,5,0,0,1,2.2,9.76l-33.47,7.54A24.66,24.66,0,1,0,58.5,167.53l61.09-13.8A16.24,16.24,0,0,0,112.43,122l-59.3,13.4a6.72,6.72,0,0,0,3,13.11l60-13.56a5,5,0,0,1,2.21,9.76l-60,13.56a16.72,16.72,0,0,1-7.36-32.62l59.29-13.4a26.24,26.24,0,1,1,11.57,51.19l-61.08,13.8A34.64,34.64,0,0,1,53.06,178.14Z"/><path class="cls-1" d="M55.28,303.06a5.53,5.53,0,0,1-1.2-.14,5,5,0,0,1-3.65-6.06L75.15,196.8a5,5,0,1,1,9.7,2.4L60.13,299.26A5,5,0,0,1,55.28,303.06Z"/><path class="cls-1" d="M373.52,487.34a5.46,5.46,0,0,1-1.2-.14l-143.9-35.34a5,5,0,0,1,2.38-9.72l139.05,34.15,6.14-25a5,5,0,1,1,9.71,2.39l-7.33,29.84A5,5,0,0,1,373.52,487.34Z"/><path class="cls-1" d="M433.26,244.06a4.89,4.89,0,0,1-1.19-.14,5,5,0,0,1-3.67-6l32.35-131.72L431.81,99a5,5,0,1,1,2.38-9.71l33.8,8.3a5,5,0,0,1,3.66,6.05L438.11,240.26A5,5,0,0,1,433.26,244.06Z"/></g><g id="Outline"><path class="cls-1" d="M305,309H216.62a5,5,0,0,1,0-10H305a5,5,0,0,1,0,10Z"/><path class="cls-1" d="M304.62,335.64H175a5,5,0,0,1,0-10H304.62a5,5,0,0,1,0,10Z"/><path class="cls-1" d="M304.62,362.32H175a5,5,0,1,1,0-10H304.62a5,5,0,0,1,0,10Z"/><path class="cls-1" d="M304.62,389H175a5,5,0,0,1,0-10H304.62a5,5,0,0,1,0,10Z"/><path class="cls-1" d="M342,421h-1a5,5,0,0,1,0-10h1a5,5,0,0,1,0,10Zm-21,0h-1a5,5,0,0,1,0-10h1a5,5,0,0,1,0,10Zm-21,0h-1a5,5,0,0,1,0-10h1a5,5,0,0,1,0,10Zm-21,0h-1a5,5,0,0,1,0-10h1a5,5,0,0,1,0,10Zm-21,0h-1a5,5,0,0,1,0-10h1a5,5,0,0,1,0,10Zm-21,0h-1a5,5,0,0,1,0-10h1a5,5,0,0,1,0,10Zm-21,0h-1a5,5,0,0,1,0-10h1a5,5,0,0,1,0,10Zm-21,0h-1a5,5,0,0,1,0-10h1a5,5,0,0,1,0,10Zm-21,0h-1a5,5,0,0,1,0-10h1a5,5,0,0,1,0,10Z"/><path class="cls-1" d="M177,53h-1a5,5,0,0,1,0-10h1a5,5,0,0,1,0,10Zm-21,0h-1a5,5,0,0,1,0-10h1a5,5,0,0,1,0,10Zm-21,0h-1a5,5,0,0,1,0-10h1a5,5,0,0,1,0,10Zm-21,0h-1a5,5,0,0,1,0-10h1a5,5,0,0,1,0,10Z"/><path class="cls-1" d="M336,335.64h-9a5,5,0,0,1,0-10h9a5,5,0,0,1,0,10Z"/><path class="cls-1" d="M336,362.32h-9a5,5,0,0,1,0-10h9a5,5,0,0,1,0,10Z"/><path class="cls-1" d="M336,389h-9a5,5,0,0,1,0-10h9a5,5,0,0,1,0,10Z"/></g></svg>