<?xml version="1.0" ?><svg viewBox="0 0 512 512" xmlns="http://www.w3.org/2000/svg"><defs><style>.cls-1{fill:#3f456b;}</style></defs><title/><g id="Lines"><path class="cls-1" d="M81,381a5.78,5.78,0,0,1-.71-.05l-64.4-9.2a5,5,0,0,1-4.24-5.62l32.12-239a.77.77,0,0,1,0-.15c9.64-58.74,55.43-75.81,57.37-76.51l43-16.4a5,5,0,0,1,3.56,9.34L104.64,59.77c-.18.07-10.82,4-22.36,14.46-15.34,13.9-25,32.14-28.6,54.22L22.23,362.5l54.36,7.77L96.75,183a5,5,0,0,1,10,1.07L86,376.49A5,5,0,0,1,81,381Z"/><path class="cls-1" d="M356.83,381a5,5,0,0,1-5-4.46L331.15,184.07a5,5,0,1,1,9.94-1.07l20.16,187.27,54.37-7.77-31.45-234c-3.67-22.25-13.41-40.59-28.94-54.51-11.51-10.32-21.83-14.1-21.94-14.13l-.12-.05-41.23-16.1a5,5,0,1,1,3.64-9.32l41.17,16.08c2.8,1,47.75,18.35,57.3,76.48,0,0,0,.1,0,.15l32.12,239a5,5,0,0,1-4.25,5.62l-64.4,9.2A5.52,5.52,0,0,1,356.83,381Z"/><path class="cls-1" d="M335.56,389H101.73a5,5,0,0,1-5-5V135.55a5,5,0,0,1,10,0V379H330.56V135.55a5,5,0,0,1,10,0V384A5,5,0,0,1,335.56,389Z"/><path class="cls-1" d="M198.31,111.85h-32.2c-8.54,0-15.13-2.48-19.58-7.37-5.83-6.4-5.66-14.43-5.54-16.22V38.66a5,5,0,0,1,1.86-3.89L171,12.1a5,5,0,0,1,6.27,7.8L151,41.06V88.45a3.71,3.71,0,0,1,0,.47s-.35,5.26,3,8.89c2.48,2.68,6.56,4,12.13,4h32.2a5,5,0,0,1,0,10Z"/><path class="cls-1" d="M273.6,111.85H240.86a5,5,0,0,1,0-10H273.6c5.62,0,9.72-1.38,12.2-4.1,3.28-3.6,3-8.78,2.95-8.83s0-.31,0-.47V41L263,19.86a5,5,0,1,1,6.35-7.72L296.9,34.8a5,5,0,0,1,1.83,3.86v49.6c.12,1.79.29,9.82-5.54,16.22C288.74,109.37,282.15,111.85,273.6,111.85Z"/><path class="cls-1" d="M201.19,389a5,5,0,0,1-5-5V173.6c0-1.72-.07-24.12,16.55-42.53C191.88,110.46,168.59,74.37,168.59,16a5,5,0,0,1,5-5h92.57a5,5,0,0,1,5,5c0,48.24-16.28,88.31-48.41,119.1-16.77,16.08-16.57,38.12-16.56,38.34V384A5,5,0,0,1,201.19,389ZM178.65,21c1.27,52,22.27,84.33,41.12,103,26.41-27.2,40.3-61.8,41.33-103Z"/><path class="cls-1" d="M229.55,235.12a5,5,0,0,1-5-5v-.91a5,5,0,1,1,10,0v.91A5,5,0,0,1,229.55,235.12Z"/><path class="cls-1" d="M229.55,174.29a5,5,0,0,1-5-5v-.91a5,5,0,0,1,10,0v.91A5,5,0,0,1,229.55,174.29Z"/><path class="cls-1" d="M229.55,296a5,5,0,0,1-5-5v-.91a5,5,0,0,1,10,0V291A5,5,0,0,1,229.55,296Z"/><path class="cls-1" d="M229.55,356.8a5,5,0,0,1-5-5v-.91a5,5,0,0,1,10,0v.91A5,5,0,0,1,229.55,356.8Z"/><path class="cls-1" d="M311,172.8h-50.6a5,5,0,0,1,0-10H311a5,5,0,0,1,0,10Z"/><path class="cls-1" d="M335.16,351.05H299.51c-8.87,0-16-2.72-21.11-8.1-8.17-8.54-8.08-20.75-8-22.28V292a5,5,0,0,1,5-5h59.8a5,5,0,1,1,0,10h-54.8v24c0,.07-.28,9.31,5.31,15.11,3.18,3.29,7.83,5,13.84,5h35.65a5,5,0,0,1,0,10Z"/><path class="cls-1" d="M137.35,351.05H101.7a5,5,0,1,1,0-10h35.65c6,0,10.67-1.67,13.84-5,5.59-5.8,5.32-15,5.32-15.13s0-.15,0-.21V297H101.7a5,5,0,1,1,0-10h59.8a5,5,0,0,1,5,5v28.67c.05,1.53.13,13.74-8,22.28C153.33,348.33,146.23,351.05,137.35,351.05Z"/><path class="cls-1" d="M326.44,500.44A5,5,0,0,1,322.9,499L214.81,390.16a5,5,0,0,1,7.1-7l104,104.72L489.12,273l-75-75L404,208A5,5,0,0,1,397,201l13.62-13.62a5,5,0,0,1,7.07,0L499.28,269a5,5,0,0,1,.44,6.56L330.43,498.47a5,5,0,0,1-3.66,2Z"/><path class="cls-1" d="M327.17,499.72a5,5,0,0,1-3-9l65-49.37,88.68-88.68-24.54-24.55a5,5,0,0,1,7.07-7.07l28.08,28.08a5,5,0,0,1,0,7.07L396,448.68a5.47,5.47,0,0,1-.51.45L330.19,498.7A5,5,0,0,1,327.17,499.72Z"/><path class="cls-1" d="M460.35,380.8a5,5,0,0,1-3.54-1.46l-24.52-24.52a5,5,0,0,1,7.07-7.07l24.52,24.52a5,5,0,0,1-3.53,8.53Z"/></g><g id="Outline"><path class="cls-1" d="M84,349a5.81,5.81,0,0,1-.72-.05l-63-9a5,5,0,0,1,1.42-9.9l63,9A5,5,0,0,1,84,349Z"/><path class="cls-1" d="M354,349a5,5,0,0,1-.7-9.95l63-9a5,5,0,1,1,1.42,9.9l-63,9A5.81,5.81,0,0,1,354,349Z"/><path class="cls-1" d="M476.1,303.38a5,5,0,0,1-3.54-1.48l-74.1-74.37a5,5,0,0,1,7.08-7.06l74.1,74.38a5,5,0,0,1-3.54,8.53Z"/></g></svg>