<?xml version="1.0" ?><svg viewBox="0 0 512 512" xmlns="http://www.w3.org/2000/svg"><defs><style>.cls-1{fill:#3f456b;}</style></defs><title/><g id="Lines"><path class="cls-1" d="M144,187.11c-39.87,0-69.95-30.54-69.95-71V98a5,5,0,0,1,10,0v18.07c0,17.33,6.23,33,17.52,44.18,11,10.87,26.08,16.86,42.43,16.86s31.44-6,42.46-16.86C197.77,149.08,204,133.4,204,116.07L204,99a5,5,0,0,1,5-5h0a5,5,0,0,1,5,5l.05,17.07C214,156.57,183.91,187.11,144,187.11Z"/><path class="cls-1" d="M229.92,184a5,5,0,0,1-5-5V112c0-23.47-7.47-46.33-20.5-62.73C189.7,30.75,168.81,21,144,21S98.27,30.75,83.54,49.27C70.49,65.68,63,88.54,63,112v66a5,5,0,0,1-10,0V112C53,61.79,84.26,11,144,11s90.93,50.83,90.93,101v67A5,5,0,0,1,229.92,184Z"/><path class="cls-1" d="M169.84,313.12l-1,0c-7.76-.35-13.92-4.78-17.36-12.49a21,21,0,0,1-1.92-8.28,5,5,0,0,1,10-.12,10.92,10.92,0,0,0,1.06,4.33c1.92,4.3,4.67,6.39,8.66,6.57a15.36,15.36,0,0,0,5.86-1L219,282.56c7.38-3.47,12.54-8.15,14.81-13.49a13.81,13.81,0,0,0,1.24-6.05,5.34,5.34,0,0,1-.05-.69V207c0-31.64-39.19-45.12-39.58-45.26a5,5,0,0,1,3.16-9.49,89.81,89.81,0,0,1,22.91,12.35C236.87,176.09,245,190.75,245,207v55.1c.24,3,.43,19.1-21.84,29.55l-43.93,19.59A24.84,24.84,0,0,1,169.84,313.12Z"/><path class="cls-1" d="M48,325a5,5,0,0,1-5-5V207c0-16.33,8.36-30.69,24.17-41.52a88.21,88.21,0,0,1,23.49-11.3,5,5,0,0,1,2.69,9.63h0a79,79,0,0,0-20.74,10.07C59.6,182.86,53,194,53,207V320A5,5,0,0,1,48,325Z"/><path class="cls-1" d="M186.44,105.07c-35.36,0-56.38-15.67-65.36-24.43-6.51,10.28-19.29,22.57-38,22.57a44.55,44.55,0,0,1-4.56-.24A5,5,0,0,1,74,98a87.92,87.92,0,0,1,8.64-35.21C90.68,46.46,107.85,27,144,27s53.32,19.46,61.36,35.79A87.92,87.92,0,0,1,214,98a5,5,0,0,1-4.13,4.92A133.34,133.34,0,0,1,186.44,105.07ZM209,98h0Zm0,0h0ZM120,67a5,5,0,0,1,4,2c0,.07,6.54,8.71,20.07,15.94,17,9.1,37.1,12.05,59.66,8.79C202.53,79.86,194.6,37,144,37,94.08,37,85.69,78.7,84.28,93.2c21.45-.75,30.7-22.15,31.1-23.12a5,5,0,0,1,4-3A5.63,5.63,0,0,1,120,67Z"/><path class="cls-1" d="M112,117h-1a5,5,0,0,1,0-10h1a5,5,0,0,1,0,10Z"/><path class="cls-1" d="M176,117h-1a5,5,0,0,1,0-10h1a5,5,0,0,1,0,10Z"/><path class="cls-1" d="M81,244.33a5,5,0,0,1-2.75-9.18c.64-.42,15.93-10.26,38.27-8.94a5,5,0,1,1-.58,10,58.37,58.37,0,0,0-32.23,7.34A5,5,0,0,1,81,244.33Z"/><path class="cls-1" d="M208,238a5,5,0,0,1-5-5V208a5,5,0,0,1,10,0v25A5,5,0,0,1,208,238Z"/><path class="cls-1" d="M257,500H32a5,5,0,0,1-4.44-7.29C75.45,399.86,76,272.77,76,271.5V208a5,5,0,0,1,10,0v63.5c0,.32-.07,33-6.17,76.81C74.46,386.88,63.24,441.94,40.08,490H248.92c-33.23-68.82-42.52-151.53-45.09-195.62a5,5,0,0,1,10-.58c2.61,44.87,12.28,130.38,47.62,198.91A5,5,0,0,1,257,500Z"/><path class="cls-1" d="M64,340c-6.82,0-12.17-2-15.92-6A20.22,20.22,0,0,1,43,319.67a5,5,0,0,1,10,.62c0,.17-.12,4.21,2.44,6.89C57.22,329.05,60.1,330,64,330c7.78,0,8.46-3.54,8.46-3.58a5,5,0,0,1,10,.55C82.2,331.48,78,340,64,340Z"/><path class="cls-1" d="M145.22,263.09c-.84,0-1.7,0-2.6-.1-11-.85-15.65-9.27-17.08-16.1a14.62,14.62,0,0,1-8.09-4.1c-3.51-3.51-5.12-8.76-4.41-14.41a16.39,16.39,0,0,1,7.41-11.81,14.63,14.63,0,0,1,2.71-13.77,13.64,13.64,0,0,1,13.27-4.88,20.67,20.67,0,0,1,16.12-9.9c9.08-.82,14.61,4.77,17.41,10a20.11,20.11,0,0,1,11.33,1,17.35,17.35,0,0,1,9.38,10.21c3.9,10.14.25,17.25-4.06,21.25,2,4.88,2.66,12-2.51,19.41-6.06,8.64-16.26,8.73-23.12,7C158.37,259.78,153.56,263.09,145.22,263.09ZM130,237a5,5,0,0,1,5,5c0,1,.35,10.4,8.38,11,8.86.69,10.92-3.72,10.94-3.77A5,5,0,0,1,161,246.4c.4.17,10.38,4.24,14.93-2.27s.74-11.35.29-11.89a5,5,0,0,1,1.74-7.79c1.51-.74,6.41-3.85,3.4-11.66a7.44,7.44,0,0,0-3.93-4.58c-3.63-1.54-8.38.37-8.43.39a5,5,0,0,1-6.82-3.39c-2-7.61-8-7.29-8.7-7.23a11.29,11.29,0,0,0-9.66,7.46,5,5,0,0,1-7.22,2.93,4.41,4.41,0,0,0-5.73.83c-2.5,3,.2,6.86.23,6.89a5,5,0,0,1-2.86,7.76c-.43.12-4.71,1.43-5.25,5.77-.32,2.57.25,4.79,1.56,6.1a5.73,5.73,0,0,0,4.86,1.32A4.3,4.3,0,0,1,130,237Z"/><path class="cls-1" d="M201,273a5,5,0,0,1-.44-10c2.08-.19,2.66-1,2.88-1.27,1.25-1.71,1-5.22.69-6.65a5.09,5.09,0,0,1,1.34-4.64,11.9,11.9,0,0,0,2.7-4.71c0-.13.09-.3.13-.43,1.31-3.65.39-5.17.09-5.66-1.48-2.44-5.68-3.52-7-3.7a5.09,5.09,0,0,1-3.82-2.72c-1.06-2.11-2.34-3.37-3.94-3.85-2.8-.84-6.37.66-7.5,1.32a5,5,0,0,1-5.08-8.62c.78-.46,7.89-4.5,15.36-2.31a15.84,15.84,0,0,1,8.83,6.78c3.25.84,8.66,2.92,11.68,7.84,1.7,2.75,3.22,7.42.9,14.09a22.43,22.43,0,0,1-3.51,7c.28,3,.17,8.07-2.73,12.08A13.4,13.4,0,0,1,201.45,273Z"/><path class="cls-1" d="M119,290.88a18,18,0,0,1-7.53-1.52,15.43,15.43,0,0,1-8.27-9.89C100,269,103.68,261.79,107.5,258a17.41,17.41,0,0,1,2-10.72c4.28-7.58,13.15-10.18,14.14-10.46a5,5,0,0,1,2.66,9.65c-1.62.46-6.23,2.39-8.1,5.76a8.06,8.06,0,0,0-.43,6.41,4.79,4.79,0,0,1-2.38,5.74c-.83.51-5.25,3.72-2.65,12.16.77,2.52,2,3.34,2.88,3.74,3.4,1.56,9-.27,10.34-.85a5,5,0,1,1,4,9.16A29.76,29.76,0,0,1,119,290.88Z"/><path class="cls-1" d="M148.85,297.26c-5,0-11.27-1-16.24-5.14-4.61-3.83-7.17-9.49-7.6-16.83-.39-6.54,1.32-11.86,5.08-15.83,5.41-5.71,13-6.31,15-6.37,8.82-1.16,17.33,1.25,22.83,6.49a19.14,19.14,0,0,1,6,15.87c-1.09,12-8.7,20.05-20.36,21.51A37.82,37.82,0,0,1,148.85,297.26Zm-3.34-34.17c-.15,0-5.23.12-8.2,3.29-1.75,1.88-2.53,4.68-2.32,8.33.27,4.52,1.58,7.7,4,9.73,3.89,3.23,10.05,3,13.38,2.6,7.05-.88,11-5.09,11.64-12.49a9.24,9.24,0,0,0-3-7.73c-3.38-3.21-8.93-4.62-14.86-3.78A5.34,5.34,0,0,1,145.51,263.09Z"/><path class="cls-1" d="M193.62,289.89a35.59,35.59,0,0,1-28.88-15.37,5,5,0,0,1,8.4-5.43c.38.58,8.47,12.52,23.64,10.6a26.12,26.12,0,0,0-.38-9.05c-1.91-8.38-8.07-14.78-18.31-19a5,5,0,0,1,3.82-9.24c26.3,10.88,27.1,33,23.85,43.14a5,5,0,0,1-3.6,3.34A36.89,36.89,0,0,1,193.62,289.89Z"/><path class="cls-1" d="M153,232a5,5,0,0,1-5-5v-1a5,5,0,0,1,10,0v1A5,5,0,0,1,153,232Z"/><path class="cls-1" d="M230,345H213.1a5,5,0,0,1,0-10H225V282a5,5,0,0,1,10,0v58A5,5,0,0,1,230,345Z"/><path class="cls-1" d="M369,187.11c-39.87,0-69.95-30.54-69.95-71V98a5,5,0,0,1,10,0v18.07c0,17.33,6.23,33,17.52,44.18,11,10.87,26.08,16.86,42.43,16.86s31.44-6,42.46-16.86C422.77,149.08,429,133.4,429,116.07L429,99a5,5,0,0,1,5-5h0a5,5,0,0,1,5,5l.05,17.07C439,156.57,408.91,187.11,369,187.11Z"/><path class="cls-1" d="M285.92,182a5,5,0,0,1-5-5V112c0-50.21,30.25-101,88.07-101s88,50.83,88,101v63a5,5,0,0,1-10,0V112c0-23.5-7.22-46.38-19.82-62.8C413,30.73,392.88,21,369,21s-44,9.77-58.21,28.25c-12.62,16.42-19.86,39.3-19.86,62.79v65A5,5,0,0,1,285.92,182Z"/><path class="cls-1" d="M394.84,313.12l-1,0c-7.76-.35-13.92-4.78-17.36-12.49a21,21,0,0,1-1.92-8.28,5,5,0,0,1,10-.12,10.92,10.92,0,0,0,1.06,4.33c1.92,4.3,4.67,6.39,8.66,6.57a15.3,15.3,0,0,0,5.86-1L444,282.56c7.38-3.47,12.54-8.15,14.81-13.49a13.81,13.81,0,0,0,1.24-6.05,5.34,5.34,0,0,1-.05-.69V207c0-31.64-39.19-45.12-39.58-45.26a5,5,0,0,1,3.16-9.49,89.81,89.81,0,0,1,22.91,12.35C461.87,176.09,470,190.75,470,207v55.1c.24,3,.43,19.1-21.84,29.55l-43.93,19.59A24.84,24.84,0,0,1,394.84,313.12Z"/><path class="cls-1" d="M273,325a5,5,0,0,1-5-5V207c0-16.33,8.36-30.69,24.17-41.52a88.21,88.21,0,0,1,23.49-11.3,5,5,0,0,1,2.69,9.63h0a79,79,0,0,0-20.74,10.07C284.6,182.86,278,194,278,207V320A5,5,0,0,1,273,325Z"/><path class="cls-1" d="M411.44,105.07c-35.36,0-56.38-15.67-65.36-24.43-6.51,10.28-19.29,22.57-38,22.57a44.55,44.55,0,0,1-4.56-.24,5,5,0,0,1,1-9.94c24.87,2.58,35.44-21.91,35.87-23a5,5,0,0,1,8.66-1c0,.07,6.54,8.71,20.07,15.94,18.13,9.68,39.67,12.4,64,8.09a5,5,0,0,1,1.74,9.84A133.34,133.34,0,0,1,411.44,105.07Z"/><path class="cls-1" d="M337,117h-1a5,5,0,0,1,0-10h1a5,5,0,0,1,0,10Z"/><path class="cls-1" d="M401,117h-1a5,5,0,0,1,0-10h1a5,5,0,0,1,0,10Z"/><path class="cls-1" d="M306,244.33a5,5,0,0,1-2.75-9.18c.64-.42,15.94-10.26,38.27-8.94a5,5,0,1,1-.58,10,58.37,58.37,0,0,0-32.23,7.34A5,5,0,0,1,306,244.33Z"/><path class="cls-1" d="M433,238a5,5,0,0,1-5-5V208a5,5,0,0,1,10,0v25A5,5,0,0,1,433,238Z"/><path class="cls-1" d="M482,500H257a5,5,0,0,1-4.44-7.29C300.45,399.86,301,272.77,301,271.5V208a5,5,0,0,1,10,0v63.5c0,.32-.07,33-6.17,76.81-5.37,38.57-16.59,93.63-39.75,141.69H473.92c-33.23-68.82-42.52-151.53-45.09-195.62a5,5,0,0,1,10-.58c2.61,44.87,12.28,130.38,47.62,198.91A5,5,0,0,1,482,500Z"/><path class="cls-1" d="M289,340c-6.82,0-12.17-2-15.92-6A20.22,20.22,0,0,1,268,319.67a5,5,0,0,1,10,.62c0,.17-.12,4.21,2.44,6.89,1.79,1.87,4.67,2.82,8.57,2.82,7.78,0,8.46-3.54,8.46-3.58a5,5,0,0,1,10,.55C307.2,331.48,303,340,289,340Z"/><path class="cls-1" d="M370.22,263.09c-.84,0-1.7,0-2.6-.1-11-.85-15.65-9.27-17.08-16.1a14.62,14.62,0,0,1-8.09-4.1c-3.51-3.51-5.12-8.76-4.41-14.41a16.39,16.39,0,0,1,7.41-11.81,14.63,14.63,0,0,1,2.71-13.77,13.64,13.64,0,0,1,13.27-4.88,20.67,20.67,0,0,1,16.12-9.9c9.09-.82,14.61,4.77,17.41,10a20.11,20.11,0,0,1,11.33,1,17.35,17.35,0,0,1,9.38,10.21c3.9,10.14.25,17.25-4.06,21.25,2,4.88,2.66,12-2.51,19.41-6.06,8.64-16.26,8.73-23.12,7C383.37,259.78,378.56,263.09,370.22,263.09ZM355,237a5,5,0,0,1,5,5c0,1,.35,10.4,8.38,11,8.87.69,10.92-3.72,10.94-3.77A5,5,0,0,1,386,246.4c.4.17,10.38,4.24,14.93-2.27s.74-11.35.29-11.89a5,5,0,0,1,1.74-7.79c1.51-.74,6.41-3.85,3.4-11.66a7.44,7.44,0,0,0-3.93-4.58c-3.63-1.54-8.38.37-8.43.39a5,5,0,0,1-6.82-3.39c-2-7.61-8-7.29-8.7-7.23a11.29,11.29,0,0,0-9.66,7.46,5,5,0,0,1-7.22,2.93,4.41,4.41,0,0,0-5.73.83c-2.5,3,.2,6.86.23,6.89a5,5,0,0,1-2.86,7.76c-.43.12-4.71,1.43-5.25,5.77-.32,2.57.25,4.79,1.56,6.1a5.73,5.73,0,0,0,4.86,1.32A4.3,4.3,0,0,1,355,237Z"/><path class="cls-1" d="M426,273a5,5,0,0,1-.44-10c2.08-.19,2.66-1,2.88-1.27,1.25-1.71,1-5.22.69-6.65a5.09,5.09,0,0,1,1.34-4.64,11.9,11.9,0,0,0,2.7-4.71c0-.13.09-.3.13-.43,1.31-3.65.39-5.17.09-5.66-1.48-2.44-5.68-3.52-7-3.7a5.09,5.09,0,0,1-3.82-2.72c-1.06-2.11-2.34-3.37-3.94-3.85-2.81-.84-6.37.66-7.5,1.32a5,5,0,0,1-5.08-8.62c.78-.46,7.89-4.5,15.36-2.31a15.84,15.84,0,0,1,8.83,6.78c3.25.84,8.66,2.92,11.68,7.84,1.7,2.75,3.22,7.42.9,14.09a22.43,22.43,0,0,1-3.51,7c.28,3,.17,8.07-2.73,12.08A13.4,13.4,0,0,1,426.45,273Z"/><path class="cls-1" d="M344,290.88a18,18,0,0,1-7.53-1.52,15.43,15.43,0,0,1-8.27-9.89C325,269,328.68,261.79,332.5,258a17.41,17.41,0,0,1,2-10.72c4.28-7.58,13.15-10.18,14.14-10.46a5,5,0,0,1,2.66,9.65c-1.62.46-6.23,2.39-8.1,5.76a8.06,8.06,0,0,0-.43,6.41,4.79,4.79,0,0,1-2.38,5.74c-.83.51-5.25,3.72-2.65,12.16.77,2.52,2,3.34,2.88,3.74,3.4,1.56,9-.27,10.34-.85a5,5,0,0,1,4,9.16A29.76,29.76,0,0,1,344,290.88Z"/><path class="cls-1" d="M373.85,297.26c-5,0-11.27-1-16.24-5.14-4.61-3.83-7.17-9.49-7.6-16.83-.39-6.54,1.32-11.86,5.08-15.83,5.41-5.71,13-6.31,15-6.37,8.82-1.16,17.33,1.25,22.83,6.49a19.14,19.14,0,0,1,6,15.87c-1.09,12-8.7,20.05-20.36,21.51A37.82,37.82,0,0,1,373.85,297.26Zm-3.34-34.17c-.15,0-5.23.12-8.2,3.29-1.75,1.88-2.53,4.68-2.32,8.33.27,4.52,1.58,7.7,4,9.73,3.89,3.23,10.05,3,13.38,2.6,7.05-.88,11-5.09,11.64-12.49a9.24,9.24,0,0,0-3-7.73c-3.38-3.21-8.93-4.62-14.86-3.78A5.34,5.34,0,0,1,370.51,263.09Z"/><path class="cls-1" d="M418.62,289.89a35.59,35.59,0,0,1-28.88-15.37,5,5,0,0,1,8.4-5.43c.38.58,8.48,12.52,23.64,10.6a26.12,26.12,0,0,0-.38-9.05c-1.91-8.38-8.07-14.78-18.31-19a5,5,0,0,1,3.82-9.24c26.3,10.88,27.1,33,23.85,43.14a5,5,0,0,1-3.6,3.34A36.89,36.89,0,0,1,418.62,289.89Z"/><path class="cls-1" d="M378,232a5,5,0,0,1-5-5v-1a5,5,0,0,1,10,0v1A5,5,0,0,1,378,232Z"/><path class="cls-1" d="M81,228H48a5,5,0,0,1,0-10H81a5,5,0,0,1,0,10Z"/><path class="cls-1" d="M81,261H48a5,5,0,0,1,0-10H81a5,5,0,0,1,0,10Z"/><path class="cls-1" d="M240,228H208a5,5,0,0,1,0-10h32a5,5,0,0,1,0,10Z"/><path class="cls-1" d="M240,261H211a5,5,0,0,1,0-10h29a5,5,0,0,1,0,10Z"/><path class="cls-1" d="M306,274H273a5,5,0,0,1,0-10h33a5,5,0,0,1,0,10Z"/><path class="cls-1" d="M460,282a5,5,0,0,1-3.74-1.68L432.84,254a5,5,0,0,1,7.48-6.64l23.42,26.37A5,5,0,0,1,460,282Z"/></g><g id="Outline"><path class="cls-1" d="M369,495a5,5,0,0,1-5-5v-1a5,5,0,0,1,10,0v1A5,5,0,0,1,369,495Zm0-21a5,5,0,0,1-5-5v-1a5,5,0,0,1,10,0v1A5,5,0,0,1,369,474Zm0-21a5,5,0,0,1-5-5v-1a5,5,0,0,1,10,0v1A5,5,0,0,1,369,453Zm0-21a5,5,0,0,1-5-5v-1a5,5,0,0,1,10,0v1A5,5,0,0,1,369,432Zm0-21a5,5,0,0,1-5-5v-1a5,5,0,0,1,10,0v1A5,5,0,0,1,369,411Zm0-21a5,5,0,0,1-5-5v-1a5,5,0,0,1,10,0v1A5,5,0,0,1,369,390Z"/><path class="cls-1" d="M313.47,493.57a5.08,5.08,0,0,1-1.66-.28,5,5,0,0,1-3.05-6.38l.32-.92a5,5,0,1,1,9.45,3.27l-.34,1A5,5,0,0,1,313.47,493.57Zm5.77-20.21a5.07,5.07,0,0,1-1.15-.13,5,5,0,0,1-3.72-6l.22-.94a5,5,0,1,1,9.75,2.22l-.24,1A5,5,0,0,1,319.24,473.36Zm4.07-20.62a4.54,4.54,0,0,1-.82-.07,5,5,0,0,1-4.12-5.75l.17-1a5,5,0,1,1,9.86,1.61l-.16,1A5,5,0,0,1,323.31,452.74Zm3-20.81-.62,0a5,5,0,0,1-4.35-5.58l.12-1a5,5,0,0,1,9.93,1.2l-.12,1A5,5,0,0,1,326.3,431.93ZM328.49,411l-.44,0a5,5,0,0,1-4.55-5.42l.09-1a5,5,0,1,1,10,.86l-.08,1A5,5,0,0,1,328.49,411ZM330,390h-.24a5,5,0,0,1-4.76-5.23l0-1a5,5,0,1,1,10,.42l-.05,1A5,5,0,0,1,330,390Z"/><path class="cls-1" d="M426.53,493.57a5,5,0,0,1-4.72-3.34l-.34-1a5,5,0,1,1,9.45-3.27l.32.92a5,5,0,0,1-3.05,6.38A5.08,5.08,0,0,1,426.53,493.57Zm-5.77-20.21a5,5,0,0,1-4.86-3.85l-.24-1a5,5,0,1,1,9.75-2.22l.22.94a5,5,0,0,1-3.72,6A5.07,5.07,0,0,1,420.76,473.36Zm-4.07-20.62a5,5,0,0,1-4.93-4.18l-.16-1a5,5,0,1,1,9.86-1.61l.17,1a5,5,0,0,1-4.12,5.75A4.54,4.54,0,0,1,416.69,452.74Zm-3-20.81a5,5,0,0,1-5-4.38l-.12-1a5,5,0,0,1,9.93-1.2l.12,1a5,5,0,0,1-4.35,5.58ZM411.51,411a5,5,0,0,1-5-4.57l-.08-1a5,5,0,0,1,10-.86l.09,1A5,5,0,0,1,412,411ZM410,390a5,5,0,0,1-5-4.76l-.05-1a5,5,0,0,1,10-.42l0,1a5,5,0,0,1-4.76,5.23Z"/><path class="cls-1" d="M144,500a5,5,0,0,1-5-5V384a5,5,0,0,1,10,0V495A5,5,0,0,1,144,500Z"/><path class="cls-1" d="M86,500a4.91,4.91,0,0,1-1.94-.39,5,5,0,0,1-2.67-6.55C96.85,456.34,100,384.52,100,383.79a5,5,0,0,1,10,.42c0,.18-.79,18.71-3.54,41.63-3.7,31-9,54.91-15.85,71.1A5,5,0,0,1,86,500Z"/><path class="cls-1" d="M204,500a5,5,0,0,1-4.61-3.06c-6.81-16.19-12.15-40.11-15.85-71.1-2.75-22.92-3.53-41.45-3.54-41.63a5,5,0,0,1,10-.42c0,.73,3.15,72.55,18.61,109.27a5,5,0,0,1-2.67,6.55A4.91,4.91,0,0,1,204,500Z"/></g></svg>