<?xml version="1.0" ?><svg viewBox="0 0 512 512" xmlns="http://www.w3.org/2000/svg"><defs><style>.cls-1{fill:#3f456b;}</style></defs><title/><g id="Lines"><path class="cls-1" d="M129.6,427.61a105.19,105.19,0,0,1-38-7.16,99.4,99.4,0,0,1-50.5-42.93,5,5,0,1,1,8.64-5,89.54,89.54,0,0,0,45.49,38.65,92.63,92.63,0,0,0,55.38,3.95c22.78-5.65,42.32-20.77,55-42.56a5,5,0,0,1,8.64,5c-14.1,24.15-35.85,40.92-61.27,47.23A97.62,97.62,0,0,1,129.6,427.61Z"/><path class="cls-1" d="M381.85,427.61a97.62,97.62,0,0,1-23.45-2.82c-25.42-6.31-47.17-23.08-61.27-47.23a5,5,0,1,1,8.64-5c12.72,21.79,32.27,36.91,55,42.56a92.63,92.63,0,0,0,55.38-3.95,89.54,89.54,0,0,0,45.49-38.65,5,5,0,0,1,8.64,5,99.4,99.4,0,0,1-50.5,42.93A105.19,105.19,0,0,1,381.85,427.61Z"/><path class="cls-1" d="M256.93,278a5,5,0,0,1-5-5.1l1-47.43C233,206.3,222,181.81,222,156.27,222,98.22,278.29,51,347.47,51S473,98.22,473,156.27,416.66,261.54,347.47,261.54a145.8,145.8,0,0,1-48-8l-40,23.72A5,5,0,0,1,256.93,278ZM347.47,61C283.8,61,232,103.74,232,156.27c0,23.42,10.42,45.94,29.33,63.41a5,5,0,0,1,1.6,3.78l-.82,40.66,34.32-20.34a5,5,0,0,1,4.27-.39,135.46,135.46,0,0,0,46.77,8.15c63.67,0,115.48-42.74,115.48-95.27S411.14,61,347.47,61Z"/><path class="cls-1" d="M295.43,186.63h-.06l-25.43-.32a5,5,0,0,1-4.09-7.79l20.78-30.94-16.2-.21a5,5,0,0,1,.13-10l25.43.32a5,5,0,0,1,4.09,7.79l-20.78,31,16.19.2a5,5,0,0,1-.06,10Z"/><path class="cls-1" d="M358.18,186.71h-.06l-31.19-.4a5,5,0,0,1-4.08-7.79l26.64-39.68-21.94-.28a5,5,0,0,1,.06-10h.06l31.19.4a5,5,0,0,1,4.08,7.79L336.3,176.43l21.95.28a5,5,0,0,1-.07,10Z"/><path class="cls-1" d="M426.14,186.78h-.06l-37.15-.47a5,5,0,0,1-4.08-7.79l32.72-48.73-27.91-.36a5,5,0,0,1,.07-10h.06l37.14.48A5,5,0,0,1,431,127.7L398.3,176.43l27.91.35a5,5,0,0,1-.07,10Z"/><path class="cls-1" d="M496,500H16a5,5,0,0,1-5-5V287a5,5,0,0,1,5-5H496a5,5,0,0,1,5,5V495A5,5,0,0,1,496,500ZM21,490H491V292H21Z"/><path class="cls-1" d="M496,230H435.19a5,5,0,0,1,0-10H491V22H21V220H257.9a5,5,0,0,1,0,10H16a5,5,0,0,1-5-5V17a5,5,0,0,1,5-5H496a5,5,0,0,1,5,5V225A5,5,0,0,1,496,230Z"/><path class="cls-1" d="M85.93,230a5,5,0,0,1-4.23-2.32,125.59,125.59,0,0,1,168-176.52,5,5,0,0,1-3.23,9.29,92.75,92.75,0,0,0-76.9,159.94,5,5,0,0,1-6.77,7.37A102.74,102.74,0,0,1,213.57,51.12c2.72-.51,5.44-.9,8.17-1.19A115.63,115.63,0,0,0,90.14,222.32,5,5,0,0,1,85.93,230Z"/></g><g id="Outline"><path class="cls-1" d="M456,71a17,17,0,1,1,17-17A17,17,0,0,1,456,71Zm0-24a7,7,0,1,0,7,7A7,7,0,0,0,456,47Z"/><path class="cls-1" d="M193,163a17,17,0,1,1,17-17A17,17,0,0,1,193,163Zm0-24a7,7,0,1,0,7,7A7,7,0,0,0,193,139Z"/><path class="cls-1" d="M57,83A17,17,0,1,1,74,66,17,17,0,0,1,57,83Zm0-24a7,7,0,1,0,7,7A7,7,0,0,0,57,59Z"/><path class="cls-1" d="M128,447a5,5,0,0,1-5-5V423.94a5,5,0,0,1,10,0V442A5,5,0,0,1,128,447Z"/><path class="cls-1" d="M98,442.36a5.3,5.3,0,0,1-1.36-.18A5,5,0,0,1,93.22,436l4.89-17.39a5,5,0,1,1,9.63,2.71l-4.89,17.39A5,5,0,0,1,98,442.36Z"/><path class="cls-1" d="M71.46,431.77A5,5,0,0,1,67.27,424l9.89-15.11a5,5,0,1,1,8.37,5.47L75.65,429.5A5,5,0,0,1,71.46,431.77Z"/><path class="cls-1" d="M50,415.71A5,5,0,0,1,46.6,407L59,395.64A5,5,0,0,1,65.78,403L53.36,414.4A5,5,0,0,1,50,415.71Z"/><path class="cls-1" d="M37.71,395.4a5,5,0,0,1-2.54-9.31l12.29-7.22a5,5,0,0,1,5.06,8.62l-12.29,7.22A4.91,4.91,0,0,1,37.71,395.4Z"/><path class="cls-1" d="M159.55,442.36a5,5,0,0,1-4.81-3.64l-4.89-17.39a5,5,0,1,1,9.62-2.71L164.36,436a5,5,0,0,1-3.46,6.17A5.28,5.28,0,0,1,159.55,442.36Z"/><path class="cls-1" d="M186.13,431.77a5,5,0,0,1-4.19-2.27l-9.88-15.11a5,5,0,0,1,8.37-5.47L190.31,424a5,5,0,0,1-1.45,6.92A4.9,4.9,0,0,1,186.13,431.77Z"/><path class="cls-1" d="M207.61,415.71a5,5,0,0,1-3.38-1.31L191.81,403a5,5,0,0,1,6.75-7.38L211,407a5,5,0,0,1-3.37,8.69Z"/><path class="cls-1" d="M219.88,395.4a5,5,0,0,1-2.53-.69l-12.29-7.22a5,5,0,1,1,5.07-8.62l12.29,7.22a5,5,0,0,1-2.54,9.31Z"/><path class="cls-1" d="M384,447a5,5,0,0,1-5-5V423.94a5,5,0,0,1,10,0V442A5,5,0,0,1,384,447Z"/><path class="cls-1" d="M354,442.36a5.3,5.3,0,0,1-1.36-.18,5,5,0,0,1-3.46-6.17l4.89-17.39a5,5,0,1,1,9.63,2.71l-4.89,17.39A5,5,0,0,1,354,442.36Z"/><path class="cls-1" d="M327.46,431.77a5,5,0,0,1-4.19-7.74l9.89-15.11a5,5,0,1,1,8.37,5.47l-9.88,15.11A5,5,0,0,1,327.46,431.77Z"/><path class="cls-1" d="M306,415.71A5,5,0,0,1,302.6,407L315,395.64a5,5,0,0,1,6.75,7.38L309.36,414.4A5,5,0,0,1,306,415.71Z"/><path class="cls-1" d="M293.71,395.4a5,5,0,0,1-2.54-9.31l12.29-7.22a5,5,0,0,1,5.06,8.62l-12.29,7.22A4.91,4.91,0,0,1,293.71,395.4Z"/><path class="cls-1" d="M415.55,442.36a5,5,0,0,1-4.81-3.64l-4.89-17.39a5,5,0,1,1,9.62-2.71L420.36,436a5,5,0,0,1-3.46,6.17A5.28,5.28,0,0,1,415.55,442.36Z"/><path class="cls-1" d="M442.13,431.77a5,5,0,0,1-4.19-2.27l-9.88-15.11a5,5,0,0,1,8.37-5.47L446.31,424a5,5,0,0,1-1.45,6.92A4.9,4.9,0,0,1,442.13,431.77Z"/><path class="cls-1" d="M463.61,415.71a5,5,0,0,1-3.38-1.31L447.81,403a5,5,0,0,1,6.75-7.38L467,407a5,5,0,0,1-3.37,8.69Z"/><path class="cls-1" d="M475.88,395.4a5,5,0,0,1-2.53-.69l-12.29-7.22a5,5,0,1,1,5.07-8.62l12.29,7.22a5,5,0,0,1-2.54,9.31Z"/></g></svg>