<?xml version="1.0" ?><svg viewBox="0 0 512 512" xmlns="http://www.w3.org/2000/svg"><defs><style>.cls-1{fill:#3f456b;}</style></defs><title/><g id="Lines"><path class="cls-1" d="M91,328H79a15,15,0,0,1-15-15V265a15,15,0,0,1,15-15H91a15,15,0,0,1,15,15v48A15,15,0,0,1,91,328ZM79,260a5,5,0,0,0-5,5v48a5,5,0,0,0,5,5H91a5,5,0,0,0,5-5V265a5,5,0,0,0-5-5Z"/><path class="cls-1" d="M85,311a5,5,0,0,1-5-5v-1a5,5,0,0,1,10,0v1A5,5,0,0,1,85,311Z"/><path class="cls-1" d="M479,484H368c-55.67,0-89.93-20.17-123.07-39.68-10.21-6-19.86-11.7-30.17-16.85C178,409.07,132,405.74,117,405.13V479a5,5,0,0,1-5,5H42a5,5,0,0,1-5-4.38l-14-112A5,5,0,0,1,33,366.38L46.41,474H107V400a5,5,0,0,1,5-5c2.46,0,60.71.27,107.24,23.53,10.61,5.3,20.85,11.34,30.76,17.17,32,18.83,65.05,38.3,118,38.3H479c2,0,12-.67,12-11V447a5,5,0,0,1,10,0v16c0,8.5-4,15.07-11.37,18.52A27,27,0,0,1,479,484Z"/><path class="cls-1" d="M496,462.07a5,5,0,0,1-4.62-3.07H369c-55.87,0-112.39-37.25-114.77-38.84C173.53,367.66,29.61,372,28.17,372a5,5,0,0,1-4.89-3.34c-.81-2.31-19.7-57.09.08-106.52C50.62,194,43.09,48.73,43,47.27A5,5,0,0,1,48,42H240a5,5,0,0,1,5,5V93.83a5,5,0,0,1-10,0V52H53.24c1.17,27.34,4.81,150.33-20.6,213.86-15.7,39.25-4.67,83.6-1,96.06A648.92,648.92,0,0,1,112,366.28c63,7.39,112.69,22.71,147.77,45.53.6.4,56.47,37.19,109.27,37.19H491V429c0-24.61-12.28-44.3-37.55-60.2-22.71-14.29-52.4-23.48-78.59-31.58-8.3-2.57-16.13-5-23.47-7.49-54.2-18.39-88.74-54.14-105.6-109.27a5,5,0,1,1,9.56-2.92c15.85,51.83,48.32,85.44,99.26,102.73,7.2,2.44,15,4.85,23.21,7.4,26.78,8.28,57.13,17.68,81,32.67C487.19,378.22,501,400.68,501,429v28.07A5,5,0,0,1,496,462.07Z"/><path class="cls-1" d="M242,185a5,5,0,0,1-4.95-4.4A307.85,307.85,0,0,1,235,144v-9.5a5,5,0,0,1,10,0V144a298.32,298.32,0,0,0,2,35.4,5,5,0,0,1-4.36,5.56A4.17,4.17,0,0,1,242,185Z"/><path class="cls-1" d="M252,139H138a15,15,0,0,1-15-15V105a15,15,0,0,1,15-15H252a15,15,0,0,1,15,15v19A15,15,0,0,1,252,139ZM138,100a5,5,0,0,0-5,5v19a5,5,0,0,0,5,5H252a5,5,0,0,0,5-5V105a5,5,0,0,0-5-5Z"/><path class="cls-1" d="M198,154H170a15,15,0,0,1-15-15V89a15,15,0,0,1,15-15h28a15,15,0,0,1,15,15v50A15,15,0,0,1,198,154ZM170,84a5,5,0,0,0-5,5v50a5,5,0,0,0,5,5h28a5,5,0,0,0,5-5V89a5,5,0,0,0-5-5Z"/><path class="cls-1" d="M252,224H138a15,15,0,0,1-15-15V190a15,15,0,0,1,15-15H252a15,15,0,0,1,15,15v19A15,15,0,0,1,252,224ZM138,185a5,5,0,0,0-5,5v19a5,5,0,0,0,5,5H252a5,5,0,0,0,5-5V190a5,5,0,0,0-5-5Z"/><path class="cls-1" d="M198,239H170a15,15,0,0,1-15-15V174a15,15,0,0,1,15-15h28a15,15,0,0,1,15,15v50A15,15,0,0,1,198,239Zm-28-70a5,5,0,0,0-5,5v50a5,5,0,0,0,5,5h28a5,5,0,0,0,5-5V174a5,5,0,0,0-5-5Z"/><path class="cls-1" d="M287.5,436.5a5,5,0,0,1-3.87-8.17c8.15-9.93,21.73-30.08,21.12-53.44-.42-15.82-9.12-29.42-27.4-42.79-10.47-7.66-20.56-19-30-33.79a224.52,224.52,0,0,1-20.29-40.85C222,244,219.46,231,219.5,219a5,5,0,0,1,5-5h0a5,5,0,0,1,5,5c0,10.81,2.31,22.57,6.95,34.92,17.27,45.9,40.19,65.25,46.8,70.09,20.7,15.14,31,31.69,31.49,50.6.7,26.6-14.34,49-23.37,60A5,5,0,0,1,287.5,436.5Z"/><path class="cls-1" d="M85,242a15.81,15.81,0,0,1-11.66-4.58c-4.94-5.07-5-12.32-5-13.47V47.67a5,5,0,0,1,10,0V224.13c0,1.11.36,4.48,2.2,6.34A6,6,0,0,0,85,232c2.94,0,4-1.14,4.37-1.51,1.8-1.9,2-5.4,2-6.23a2.35,2.35,0,0,1,0-.26V47.67a5,5,0,0,1,10,0V223.9c0,1.37,0,8.47-4.71,13.48A15.43,15.43,0,0,1,85,242Z"/><path class="cls-1" d="M85,260a5,5,0,0,1-5-5V237a5,5,0,0,1,10,0v18A5,5,0,0,1,85,260Z"/></g><g id="Outline"><path class="cls-1" d="M111,406H33a5,5,0,0,1,0-10h78a5,5,0,0,1,0,10Z"/><path class="cls-1" d="M111,425H36a5,5,0,0,1,0-10h75a5,5,0,0,1,0,10Z"/><path class="cls-1" d="M111,444H38a5,5,0,0,1,0-10h73a5,5,0,0,1,0,10Z"/><path class="cls-1" d="M111,463H41a5,5,0,0,1,0-10h70a5,5,0,0,1,0,10Z"/><path class="cls-1" d="M96,77H74a5,5,0,0,1,0-10H96a5,5,0,0,1,0,10Z"/><path class="cls-1" d="M96,100.83H74a5,5,0,0,1,0-10H96a5,5,0,0,1,0,10Z"/><path class="cls-1" d="M96,124.67H74a5,5,0,0,1,0-10H96a5,5,0,0,1,0,10Z"/><path class="cls-1" d="M96,148.5H74a5,5,0,0,1,0-10H96a5,5,0,0,1,0,10Z"/><path class="cls-1" d="M96,172.33H74a5,5,0,0,1,0-10H96a5,5,0,1,1,0,10Z"/><path class="cls-1" d="M96,196.17H74a5,5,0,1,1,0-10H96a5,5,0,0,1,0,10Z"/><path class="cls-1" d="M96,220H74a5,5,0,0,1,0-10H96a5,5,0,0,1,0,10Z"/></g></svg>