<?xml version="1.0" ?><svg viewBox="0 0 512 512" xmlns="http://www.w3.org/2000/svg"><defs><style>.cls-1{fill:#3f456b;}</style></defs><title/><g id="Lines"><path class="cls-1" d="M162,87.77a5,5,0,0,1-2.58-9.29c13.23-7.94,32.06-4.35,32.85-4.2a5,5,0,0,1-1.92,9.82h0c-.16,0-15.89-3-25.78,3A4.93,4.93,0,0,1,162,87.77Z"/><path class="cls-1" d="M97.28,62.73a5,5,0,0,1-5-4.36c-.43-3.31-2.93-7.31-3.86-8.57a5,5,0,0,1,8-6c.49.67,4.9,6.74,5.75,13.24a5,5,0,0,1-4.31,5.61C97.71,62.71,97.49,62.73,97.28,62.73Z"/><path class="cls-1" d="M125,147.88H51.37A40.76,40.76,0,0,1,41.17,68c-.06-.82-.09-1.64-.09-2.47a31.86,31.86,0,0,1,51-25.45A55.23,55.23,0,0,1,195.17,75.27,37.28,37.28,0,0,1,215,130.69a5,5,0,0,1-8.43-5.38,27.28,27.28,0,0,0-18.15-41.46,5,5,0,0,1-3.95-6.17A45.23,45.23,0,0,0,98.38,50.3a5,5,0,0,1-8.54,1.4A21.85,21.85,0,0,0,51.08,65.54a21.56,21.56,0,0,0,.61,5.13,5,5,0,0,1-4,6.11,30.75,30.75,0,0,0,4,61.08H125a5,5,0,0,1,0,10Z"/><path class="cls-1" d="M73.39,78a5.05,5.05,0,0,1-1.56-.26C60.46,74,45.2,77.19,45,77.23a5,5,0,0,1-2.1-9.78c.73-.16,18-3.81,32,.78A5,5,0,0,1,73.39,78Z"/><path class="cls-1" d="M224.5,405.88c-63.94,0-117.92-14.09-156.11-40.73C32.2,339.89,12.26,304.28,12.26,264.88s19.94-75,56.13-100.27c38.19-26.65,92.17-40.73,156.11-40.73,130.76,0,277,60.3,277,141S355.26,405.88,224.5,405.88Zm0-272c-61.88,0-113.88,13.46-150.38,38.93-33.44,23.34-51.86,56-51.86,92.07s18.42,68.73,51.86,92.06c36.5,25.48,88.5,38.94,150.38,38.94,64.32,0,131.19-14.34,183.47-39.35,25.64-12.26,46.73-26.83,61-42.12,15-16.06,22.55-32.72,22.55-49.53s-7.59-33.47-22.55-49.53c-14.25-15.3-35.34-29.86-61-42.13C355.69,148.22,288.82,133.88,224.5,133.88Z"/><path class="cls-1" d="M454.5,281.38h-140a15,15,0,0,1-15-15v-3a15,15,0,0,1,15-15h140a15,15,0,0,1,15,15v3A15,15,0,0,1,454.5,281.38Zm-140-23a5,5,0,0,0-5,5v3a5,5,0,0,0,5,5h140a5,5,0,0,0,5-5v-3a5,5,0,0,0-5-5Z"/><path class="cls-1" d="M448.5,196.07a5,5,0,0,1-3.43-8.64L460.38,173V115c0-5.18-1.37-9-4.06-11.47-4.41-4-11.25-3.39-11.32-3.39a4.36,4.36,0,0,1-.51,0H364c-10.3,0-20.5,10.16-23.56,14.08l-.07.08L318.55,141a5,5,0,0,1-7.75-6.32L332.6,108c1-1.24,14.44-17.87,31.4-17.87h80.29c1.9-.14,11.62-.48,18.73,5.94,4.88,4.4,7.36,10.76,7.36,18.89v60.17a5,5,0,0,1-1.57,3.63L451.93,194.7A4.94,4.94,0,0,1,448.5,196.07Z"/><path class="cls-1" d="M445.91,439.68c-.74,0-1.29,0-1.62-.05H364c-17,0-30.43-16.65-31.4-17.88L310.8,395a5,5,0,1,1,7.75-6.32l21.82,26.75.07.08c.11.13,11.22,14.08,23.56,14.08h80.49l.51,0s7,.59,11.37-3.43c2.66-2.43,4-6.27,4-11.43v-58l-15.31-14.46a5,5,0,0,1,6.86-7.27L468.81,351a5,5,0,0,1,1.57,3.64v60.16c0,8.14-2.48,14.5-7.36,18.9C457.13,439,449.46,439.68,445.91,439.68Z"/><path class="cls-1" d="M258,468.13H158.5c-9.11,0-16.69-4.14-21.91-12a35.2,35.2,0,0,1-5-11.52c0-.09,0-.17,0-.26L123.43,390a5,5,0,1,1,9.89-1.47l8.1,54.24c.33,1.44,3.89,15.41,17.08,15.41H258c1.27,0,12.83-.63,15.06-14.78,3-18.76,7.12-47,7.16-47.3a5,5,0,1,1,9.89,1.45c0,.29-4.2,28.6-7.17,47.41C280,463.28,265.36,468.13,258,468.13Z"/><path class="cls-1" d="M240.5,447h-104a5,5,0,0,1,0-10h99V420.63H132.32a5,5,0,0,1,0-10H240.5a5,5,0,0,1,5,5V442A5,5,0,0,1,240.5,447Z"/><path class="cls-1" d="M423,180.13a5,5,0,0,1-5-5V95.07a5,5,0,1,1,10,0v80.06A5,5,0,0,1,423,180.13Z"/><path class="cls-1" d="M423.4,439.59a5,5,0,0,1-5-5V354.53a5,5,0,0,1,10,0v80.06A5,5,0,0,1,423.4,439.59Z"/><path class="cls-1" d="M423.3,280a5,5,0,0,1-5-5V253.38a5,5,0,0,1,10,0V275A5,5,0,0,1,423.3,280Z"/><path class="cls-1" d="M205.41,447a5,5,0,0,1-5-5V415.63a5,5,0,0,1,10,0V442A5,5,0,0,1,205.41,447Z"/><path class="cls-1" d="M169.41,447a5,5,0,0,1-5-5V415.63a5,5,0,0,1,10,0V442A5,5,0,0,1,169.41,447Z"/></g><g id="Outline"><path class="cls-1" d="M254,269.88a5,5,0,0,1-5-5v-3a5,5,0,0,1,10,0v3A5,5,0,0,1,254,269.88Z"/><path class="cls-1" d="M221.47,269.88a5,5,0,0,1-5-5v-3a5,5,0,0,1,10,0v3A5,5,0,0,1,221.47,269.88Z"/><path class="cls-1" d="M188.93,269.88a5,5,0,0,1-5-5v-3a5,5,0,0,1,10,0v3A5,5,0,0,1,188.93,269.88Z"/><path class="cls-1" d="M156.4,269.88a5,5,0,0,1-5-5v-3a5,5,0,0,1,10,0v3A5,5,0,0,1,156.4,269.88Z"/><path class="cls-1" d="M123.87,269.88a5,5,0,0,1-5-5v-3a5,5,0,0,1,10,0v3A5,5,0,0,1,123.87,269.88Z"/><path class="cls-1" d="M91.33,269.88a5,5,0,0,1-5-5v-3a5,5,0,0,1,10,0v3A5,5,0,0,1,91.33,269.88Z"/><path class="cls-1" d="M496.5,268.38h-32a5,5,0,0,1,0-10h32a5,5,0,0,1,0,10Z"/><path class="cls-1" d="M288.28,70.42l-.53,0a5,5,0,0,1-4.46-4.64c-1.2-17.53-20-16.93-22.15-16.81a5,5,0,0,1-.64-10,40.73,40.73,0,0,1,15.2,2.35,26.09,26.09,0,0,1,14.23,11.86c5.75-6.08,15.35-11.13,29.87-9.3a5,5,0,0,1-1.25,9.92c-20.76-2.62-25.28,12.36-25.47,13A5,5,0,0,1,288.28,70.42Z"/></g></svg>