<?xml version="1.0" ?><svg viewBox="0 0 512 512" xmlns="http://www.w3.org/2000/svg"><defs><style>.cls-1{fill:#3f456b;}</style></defs><title/><g id="Lines"><path class="cls-1" d="M228.75,202.75A59.75,59.75,0,1,1,280,112.3H471.24a31.26,31.26,0,0,1,0,62.52H279.34A59.89,59.89,0,0,1,228.75,202.75Zm0-109.5a49.75,49.75,0,1,0,43.4,74.12,5,5,0,0,1,4.35-2.55H471.24a21.26,21.26,0,0,0,0-42.52H277.12a5,5,0,0,1-4.42-2.65A49.69,49.69,0,0,0,228.75,93.25Z"/><path class="cls-1" d="M327,500H132a35,35,0,0,1-35-35V298a35.09,35.09,0,0,1,18.07-30.61,5.11,5.11,0,0,1,.67-.31l144-53.95a2.06,2.06,0,0,1,.35-.12c.12,0,12.9-4.06,12.9-12V171a5,5,0,0,1,10,0v30c0,14.9-17.65,20.85-19.89,21.55L119.62,276.31A25.08,25.08,0,0,0,107,298V465a25,25,0,0,0,25,25H327a25,25,0,0,0,25-25V171a5,5,0,0,1,10,0V465A35,35,0,0,1,327,500Z"/><path class="cls-1" d="M174,148H101a5,5,0,0,1-5-5C96,69.66,155.66,10,229,10A133,133,0,0,1,359.13,115.37a5,5,0,1,1-9.79,2.07A123,123,0,0,0,106.1,138H174a5,5,0,0,1,0,10Z"/><path class="cls-1" d="M197,247a5.09,5.09,0,0,1-1.53-.24A108.69,108.69,0,0,1,120,143a5,5,0,0,1,10,0,98.72,98.72,0,0,0,68.53,94.22A5,5,0,0,1,197,247Z"/><path class="cls-1" d="M232.37,421a17.06,17.06,0,0,1-10-3.27c-2.51-1.76-35.35-25.15-60-58.71-12-16.31-14.76-34.53-7.7-50,6.89-15.09,21.93-25.34,39.24-26.76,19.81-1.62,32,7.6,38.17,16.43,6.22-8.83,18.37-18.05,38.18-16.43,17.31,1.42,32.35,11.67,39.23,26.76,7.07,15.46,4.26,33.68-7.7,50-24.74,33.74-57.82,57.22-60,58.74A15.75,15.75,0,0,1,232.37,421ZM198.53,292.06c-1.19,0-2.43.05-3.71.15-13.71,1.12-25.57,9.14-31,20.94-5.6,12.26-3.23,26.44,6.67,39.94,24,32.78,57.38,56.26,57.72,56.49l.23.18a6.18,6.18,0,0,0,7.48-.08l.14-.1c.33-.24,33.68-23.72,57.72-56.51,9.89-13.49,12.26-27.67,6.67-39.92-5.39-11.8-17.25-19.82-31-20.94-25.41-2.07-32,17.38-32.27,18.21a5,5,0,0,1-4.77,3.49h-.64a5,5,0,0,1-4.77-3.51C226.83,309.63,220.87,292.06,198.53,292.06Z"/><path class="cls-1" d="M45,389H16a5,5,0,0,1,0-10H45a15,15,0,0,0,15-15V148a15,15,0,0,0-15-15H16a5,5,0,0,1,0-10H45a25,25,0,0,1,25,25V364A25,25,0,0,1,45,389Z"/><path class="cls-1" d="M40,164a5,5,0,0,1-5-5v-1a5,5,0,0,1,10,0v1A5,5,0,0,1,40,164Z"/><path class="cls-1" d="M40,357a5,5,0,0,1-5-5v-1a5,5,0,0,1,10,0v1A5,5,0,0,1,40,357Z"/><path class="cls-1" d="M101.17,468H16a5,5,0,0,1-5-5V47a5,5,0,0,1,5-5H142.35a5,5,0,0,1,0,10H21V458h80.17a5,5,0,0,1,0,10Z"/><path class="cls-1" d="M480,468H357.75a5,5,0,0,1,0-10H475V168.31a5,5,0,1,1,10,0V463A5,5,0,0,1,480,468Z"/><path class="cls-1" d="M480,123.13a5,5,0,0,1-5-5V52H314.5a5,5,0,0,1,0-10H480a5,5,0,0,1,5,5v71.13A5,5,0,0,1,480,123.13Z"/></g><g id="Outline"><path class="cls-1" d="M305,450h-1a5,5,0,0,1,0-10h1a5,5,0,0,1,0,10Zm-21,0h-1a5,5,0,0,1,0-10h1a5,5,0,0,1,0,10Zm-21,0h-1a5,5,0,0,1,0-10h1a5,5,0,0,1,0,10Zm-21,0h-1a5,5,0,0,1,0-10h1a5,5,0,0,1,0,10Zm-21,0h-1a5,5,0,0,1,0-10h1a5,5,0,0,1,0,10Zm-21,0h-1a5,5,0,0,1,0-10h1a5,5,0,0,1,0,10Zm-21,0h-1a5,5,0,0,1,0-10h1a5,5,0,0,1,0,10Zm-21,0h-1a5,5,0,0,1,0-10h1a5,5,0,0,1,0,10Z"/><path class="cls-1" d="M228,170a27,27,0,1,1,27-27A27,27,0,0,1,228,170Zm0-44a17,17,0,1,0,17,17A17,17,0,0,0,228,126Z"/></g></svg>