<?xml version="1.0" ?><svg viewBox="0 0 512 512" xmlns="http://www.w3.org/2000/svg"><defs><style>.cls-1{fill:#3f456b;}</style></defs><title/><g id="Lines"><path class="cls-1" d="M384.3,168.6a5,5,0,0,1-3.54-8.54L484.59,56.24c8.09-8.1,8.38-20.5.65-28.23a19,19,0,0,0-13.92-5.56A20.8,20.8,0,0,0,457,28.66L353.19,132.49a5,5,0,1,1-7.07-7.07L449.94,21.59a30.75,30.75,0,0,1,21.17-9.14,28.76,28.76,0,0,1,21.2,8.49c11.5,11.5,11.21,30.51-.65,42.37L387.83,167.13A5,5,0,0,1,384.3,168.6Z"/><path class="cls-1" d="M52.67,498.82a5,5,0,0,1-3.54-1.47L15.19,463.41a5,5,0,0,1,0-7.07L79.54,392a5,5,0,0,1,7.07,0l33.94,33.94a5,5,0,0,1,0,7.07L56.2,497.35A5,5,0,0,1,52.67,498.82ZM25.8,459.88l26.87,26.87,57.27-57.28L83.07,402.6Z"/><path class="cls-1" d="M256.69,393.55a14,14,0,0,1-10-4.12L125.35,268.1a17.41,17.41,0,0,1-4.81-11.33,15.39,15.39,0,0,1,4.1-11.71l145-144.95c6.21-6.21,16.21-3.89,21.92,1.82L412.84,223.26c6,6,6.12,14.57.3,20.39l-144.95,145h0A16.33,16.33,0,0,1,256.69,393.55Zm4.43-12,3.53,3.54-3.53-3.54,145-144.95a4.08,4.08,0,0,0,1.39-3,5,5,0,0,0-1.69-3.3L284.45,109c-2.47-2.46-6.25-3.35-7.78-1.82l-145,145a5.62,5.62,0,0,0-1.18,4.13,7.54,7.54,0,0,0,1.89,4.77L253.74,382.36C255.77,384.38,259.15,383.5,261.12,381.53Z"/><path class="cls-1" d="M139.37,450.27a19.38,19.38,0,0,1-14.23-5.6L69.28,388.81c-4.37-4.37-8.43-12.6-3-27a67.2,67.2,0,0,1,7.49-14l54.27-81.26a5,5,0,1,1,8.31,5.55L82.09,353.4l-.12.17c-.14.19-14,19.81-5.62,28.17l55.86,55.86c3.33,3.32,8.84,3.55,16.4.68A57.44,57.44,0,0,0,160.39,432a.66.66,0,0,1,.17-.12l81.27-54.25a5,5,0,0,1,5.55,8.32l-81.19,54.19a67.32,67.32,0,0,1-14,7.5A36.07,36.07,0,0,1,139.37,450.27Z"/><path class="cls-1" d="M402.68,225.17a5,5,0,0,1-3.53-1.47,5,5,0,0,1,0-7.07L410,205.75a4.27,4.27,0,0,0,.08-6.44l-95.46-95.46c-1.88-1.88-5.2-2.58-7.15-.63L296.62,114.1a5,5,0,0,1-7.07-7.07l10.88-10.88c5.69-5.7,15.25-5.42,21.29.63l95.46,95.46a14.24,14.24,0,0,1-.08,20.58L406.22,223.7A5,5,0,0,1,402.68,225.17Z"/></g><g id="Outline"><path class="cls-1" d="M225.2,397a5,5,0,0,1-3.54-1.46L118.43,292.29a5,5,0,1,1,7.07-7.07L228.73,388.46A5,5,0,0,1,225.2,397Z"/><path class="cls-1" d="M193.38,420.33a5,5,0,0,1-3.53-1.47L95.09,324.11a5,5,0,0,1,7.07-7.07l94.76,94.75a5,5,0,0,1-3.54,8.54Z"/><path class="cls-1" d="M208.94,409a5,5,0,0,1-3.54-1.46l-99-99a5,5,0,1,1,7.07-7.07l99,99a5,5,0,0,1-3.53,8.53Z"/><path class="cls-1" d="M176.41,430.23a5,5,0,0,1-3.53-1.47L84.49,340.38a5,5,0,0,1,7.07-7.08L180,421.69a5,5,0,0,1-3.54,8.54Z"/><path class="cls-1" d="M160.85,441.54a5,5,0,0,1-3.53-1.46L73.88,356.64A5,5,0,0,1,81,349.57L164.39,433a5,5,0,0,1-3.54,8.53Z"/><path class="cls-1" d="M467,85.87a5,5,0,0,1-3.53-1.47L428.85,49.75a5,5,0,1,1,7.07-7.07l34.65,34.65A5,5,0,0,1,467,85.87Z"/><path class="cls-1" d="M323.49,310.68a5,5,0,0,1,0-7.07h0a5,5,0,0,1,7.07,0h0a5,5,0,0,1,0,7.07h0a5,5,0,0,1-3.54,1.46h0A5,5,0,0,1,323.49,310.68Zm-14.14-14.15a5,5,0,0,1,0-7.07h0a5,5,0,0,1,7.07,0h0a5,5,0,0,1,0,7.07h0a5,5,0,0,1-3.54,1.47h0A5,5,0,0,1,309.35,296.53ZM295.2,282.39a5,5,0,0,1,0-7.07h0a5,5,0,0,1,7.07,0h0a5,5,0,0,1,0,7.07h0a5,5,0,0,1-3.53,1.47h0A5,5,0,0,1,295.2,282.39Zm-14.14-14.14a5,5,0,0,1,0-7.07h0a5,5,0,0,1,7.07,0h0a5,5,0,0,1,0,7.07h0a5,5,0,0,1-3.53,1.46h0A5,5,0,0,1,281.06,268.25Zm-14.14-14.14a5,5,0,0,1,0-7.07h0a5,5,0,0,1,7.07,0h0a5,5,0,0,1,0,7.07h0a5,5,0,0,1-3.54,1.46h0A5,5,0,0,1,266.92,254.11ZM252.78,240a5,5,0,0,1,0-7.08h0a5,5,0,0,1,7.07,0h0a5,5,0,0,1,0,7.08h0a5,5,0,0,1-3.54,1.46h0A5,5,0,0,1,252.78,240Zm-14.15-14.15a5,5,0,0,1,0-7.07h0a5,5,0,0,1,7.07,0h0a5,5,0,0,1,0,7.07h0a5,5,0,0,1-3.53,1.47h0A5,5,0,0,1,238.63,225.82Zm-14.14-14.14a5,5,0,0,1,0-7.07h0a5,5,0,0,1,7.07,0h0a5,5,0,0,1,0,7.07h0a5,5,0,0,1-3.53,1.47h0A5,5,0,0,1,224.49,211.68Zm-14.14-14.14a5,5,0,0,1,0-7.07h0a5,5,0,0,1,7.07,0h0a5,5,0,0,1,0,7.07h0a5,5,0,0,1-3.53,1.46h0A5,5,0,0,1,210.35,197.54ZM196.21,183.4a5,5,0,0,1,0-7.07h0a5,5,0,0,1,7.07,0h0a5,5,0,0,1,0,7.07h0a5,5,0,0,1-3.54,1.46h0A5,5,0,0,1,196.21,183.4Z"/></g></svg>