<?xml version="1.0" ?><svg viewBox="0 0 512 512" xmlns="http://www.w3.org/2000/svg"><defs><style>.cls-1{fill:#3f456b;}</style></defs><title/><g id="Lines"><path class="cls-1" d="M428.52,87.65a29,29,0,1,1,29-29A29,29,0,0,1,428.52,87.65Zm0-48a19,19,0,1,0,19,19A19,19,0,0,0,428.52,39.65Z"/><path class="cls-1" d="M57.52,486.65a29,29,0,1,1,29-29A29,29,0,0,1,57.52,486.65Zm0-48a19,19,0,1,0,19,19A19,19,0,0,0,57.52,438.65Z"/><path class="cls-1" d="M385.37,150.93a23,23,0,1,1,23-23A23,23,0,0,1,385.37,150.93Zm0-36a13,13,0,1,0,13,13A13,13,0,0,0,385.37,114.93Z"/><path class="cls-1" d="M121.92,349.74h-3c-13.1-.16-32.51-1.24-49.79-8.82a16.39,16.39,0,0,1-10-14.29c-.73-8.92,4.39-19.34,11.91-24.24,6.88-4.48,6.23-15.86,6.23-16a3.38,3.38,0,0,1,0-.45c0-1.05.77-26,17.68-55,15.5-26.6,48.12-61.75,115.52-78.15,37.45-9.12,91.51-13.61,136.34,16.78,16.49,11.19,29.71,25.56,38.24,41.55a46.54,46.54,0,0,1,1.65,41.19h0a46.38,46.38,0,0,1-3.93,7c-14.1,20.83-38.47,34.82-58.12,44.68-24.18,12.12-51.45,21.33-83.37,28.13l-8,1.71C196.89,341.69,159.35,349.74,121.92,349.74ZM87.2,286c.11,2.42.35,17.51-10.76,24.75-4.45,2.9-7.84,9.78-7.4,15a6.52,6.52,0,0,0,4.06,5.95c15.6,6.85,33.66,7.83,45.89,8,37.32.41,75.36-7.72,112.14-15.61l8-1.71c31.07-6.62,57.56-15.55,81-27.29,18.57-9.31,41.52-22.43,54.33-41.34a36.8,36.8,0,0,0,3.09-5.55h0a36.6,36.6,0,0,0-1.36-32.39c-7.76-14.56-19.87-27.69-35-38-41.79-28.34-92.87-24-128.36-15.35-50.64,12.33-88.42,37.74-109.24,73.47C88.59,261.61,87.29,283.89,87.2,286Zm294.87-35.73h0Z"/><path class="cls-1" d="M439.17,249.51a5.4,5.4,0,0,1-1.12-.12,5,5,0,0,1-3.76-6c.15-.66,4-16.15,31.46-13.6,15.91,1.49,26.56-3.65,30.88-6.3-3.12-20.58-11.12-33.52-23.8-38.49-19.4-7.6-46,5.08-53.77,11.65-14.37,12.09-27.05,13.44-35.15,12.45A31.93,31.93,0,0,1,369,203.55a5,5,0,0,1,6.1-7.93c.73.54,16,11.45,37.52-6.61,8.3-7,38.85-23.11,63.86-13.31,16.95,6.65,27.21,23.31,30.48,49.53a5,5,0,0,1-1.76,4.46c-.61.5-15.21,12.41-40.38,10.07-17.92-1.67-20.76,5.79-20.78,5.87A5,5,0,0,1,439.17,249.51Z"/><path class="cls-1" d="M179,365.81q-3,0-6-.09a5,5,0,1,1,.31-10c30.15.93,61.91-5.85,89-12.62A360.55,360.55,0,0,0,347.89,310l1.6-.89a5,5,0,0,1,4.91,8.71c-.57.32-1.14.64-1.72.95a371,371,0,0,1-87.95,34C238.72,359.3,208.46,365.81,179,365.81Z"/><path class="cls-1" d="M382.15,298a5,5,0,0,1-3-9l2.15-1.62c5.19-3.9,10.57-7.93,16.05-11.78,9-6.27,18.63-9.08,30.4-8.85,42.41.85,57.91-8.88,63.44-17.19,6.06-9.09,1.85-18.89,1.8-19a5,5,0,0,1,9.15-4.05c.27.61,6.44,15-2.62,28.58-10.07,15.11-34.28,22.39-72,21.64-9.69-.2-17.23,2-24.46,7-5.35,3.75-10.66,7.74-15.79,11.59l-2.15,1.61A5,5,0,0,1,382.15,298Z"/><path class="cls-1" d="M103,420c-14.64,0-29.24-5.76-33.67-19.78a15.5,15.5,0,0,1,1.36-13c5.12-8.47,17.57-11.31,20.22-11.83,15.27-5,27.35-11.09,35.9-18.21a5,5,0,1,1,6.4,7.68c-9.59,8-22.89,14.77-39.52,20.14a5.28,5.28,0,0,1-.66.16c-2.74.51-11.19,2.92-13.8,7.25a5.52,5.52,0,0,0-.36,4.84c4,12.54,21.1,13.66,30.59,12.34a73.87,73.87,0,0,0,44.4-23c8.21-9,13.14-18.34,13.88-26.38a5,5,0,1,1,10,.92c-1,10.35-6.65,21.49-16.46,32.21a83.91,83.91,0,0,1-50.4,26.15A56.74,56.74,0,0,1,103,420Z"/><path class="cls-1" d="M328.22,419.9a12.29,12.29,0,0,1-7.39-2.32,15.07,15.07,0,0,1-4.83-6.86,48.31,48.31,0,0,1,1.92-38c4.24-8.27,10.79-13,17.13-17.57,5.1-3.67,9.9-7.13,13.12-12.26,3.71-5.95,4.9-13.87,3.25-21.76-1.07-5.12-8.08-8.89-10.45-9.81a5,5,0,1,1,3.61-9.32c1.45.56,14.27,5.82,16.63,17.09,2.17,10.38.51,21-4.57,29.1-4.25,6.79-10.09,11-15.74,15.08s-10.94,7.88-14.08,14a38.39,38.39,0,0,0-1.51,29.8,5.54,5.54,0,0,0,1.41,2.44c1.66,1.21,5.7-.21,10.3-3.62,33.2-24.61,45-49.67,49-66.35,7.54-31.31-13.49-49.48-13.7-49.66a5,5,0,1,1,6.45-7.64c1.06.89,25.94,22.4,17,59.64-4.41,18.29-17.13,45.64-52.74,72.05C336.84,418.46,332,419.9,328.22,419.9Z"/><path class="cls-1" d="M117,372.69A61.22,61.22,0,0,1,99,370C88,366.53,73.33,358.12,66.25,337.6a5,5,0,1,1,9.45-3.26c4.59,13.3,13.44,22.08,26.32,26.09a48.82,48.82,0,0,0,18.19,2.12,5,5,0,1,1,1.16,9.94A40.49,40.49,0,0,1,117,372.69Z"/><path class="cls-1" d="M65.59,357.36c-36.27,0-49.2-18.14-52.52-24.28-3.72-6.87-4.07-13.49-.91-17.28,6.36-7.63,15.76-3.86,19.84-.8a3.09,3.09,0,0,1,.39.33c10.37,9.57,29.36,1.2,29.55,1.11a5,5,0,0,1,4.13,9.11c-1,.46-24.94,11.1-40.21-2.65-.74-.5-4-2.58-5.82-.92-.19,1.21.47,5.34,4.43,10.19,14,17.1,42.77,15.74,54.52,14.36a5,5,0,0,1,1.16,9.94A125.86,125.86,0,0,1,65.59,357.36Z"/><path class="cls-1" d="M399.12,352.58A40.65,40.65,0,0,1,388,351a5,5,0,1,1,2.72-9.62c8.62,2.44,17.31,1.11,23.25-3.57,5.63-4.43,8.42-11.57,8.05-20.62-.86-21.61-22.95-32.59-23.17-32.7a5,5,0,0,1,4.33-9c1.14.55,27.73,13.62,28.84,41.31.48,12.21-3.73,22.47-11.86,28.88A33.86,33.86,0,0,1,399.12,352.58Z"/><path class="cls-1" d="M167.34,395.67a74.06,74.06,0,0,1-10-.72,5,5,0,1,1,1.36-9.9c12.94,1.76,22.72-.21,29.07-5.85,8.38-7.45,8.26-19.27,8.25-19.39a5,5,0,0,1,10-.25c0,.66.31,16.41-11.5,27C187.76,392.63,178.65,395.67,167.34,395.67Z"/><path class="cls-1" d="M146.19,315.71c-27,0-49.79-4.58-67.93-13.68a5,5,0,1,1,4.48-8.94c56,28.09,147.25,1.17,165-4.51,17.18-5.51,49.83-17.31,75.49-34.54,28.86-19.37,41.18-40.06,36.64-61.5a5,5,0,1,1,9.78-2.08c12.46,58.77-79,94.86-118.86,107.64a392.66,392.66,0,0,1-78.06,16.27Q158.85,315.71,146.19,315.71Z"/><path class="cls-1" d="M175.13,295.07c-7.3,0-19.21-1.55-24.17-16-2.64-7.7-.07-17.42,2.55-24.22a62,62,0,0,1,10.83-18.35c10.21-11.83,24.39-17.66,38.89-16,22.17,2.53,38.64-1.05,48.94-10.66a35.6,35.6,0,0,1,4.89-3.81,37.74,37.74,0,0,1,42.41,1.33c8.86,6.64,13.89,15,14.14,23.55.23,7.74-3.36,15-10.38,20.91-32.73,27.69-87.76,41.79-125,43.18C177.31,295,176.28,295.07,175.13,295.07Zm23.29-64.85c-9.88,0-19.37,4.55-26.51,12.82a52.2,52.2,0,0,0-9.07,15.4c-2.82,7.32-3.7,13.65-2.42,17.38,2.79,8.12,8.48,9.51,17.39,9.18,35.63-1.32,88.05-14.66,119-40.82,4.61-3.9,7-8.39,6.84-13-.16-5.43-3.76-11.06-10.14-15.84a27.57,27.57,0,0,0-31-.93h0a25.26,25.26,0,0,0-3.5,2.73c-12.54,11.69-31.69,16.15-56.9,13.27A32.38,32.38,0,0,0,198.42,230.22Zm61.36-20h0Z"/><path class="cls-1" d="M328.76,218.52a12.64,12.64,0,0,1-5.9-1.49c-6.88-3.58-14.34-11.23-19.39-17-11.6-13.27-5.27-22.29-2-25.55,4-4,1.59-13.75.74-16.16a5,5,0,1,1,9.42-3.34,41.89,41.89,0,0,1,1.94,9.28c.66,7.37-1.08,13.34-5,17.29-1.16,1.16-4.24,4.24,2.46,11.9,6.34,7.26,12.19,12.48,16.48,14.72,1.33.69,3.24.71,8.12-3.82a35.72,35.72,0,0,0,11.73-23.58c.49-4.86,3.31-5.4,4.23-5.58a5,5,0,0,1,5.85,4,4.89,4.89,0,0,1-.11,2.32c0,.09,0,.18,0,.28a46,46,0,0,1-14.88,29.9C340.15,213.76,335,218.52,328.76,218.52ZM353.44,185h0Zm0,0Zm0,0h0Z"/><path class="cls-1" d="M123.89,293.28a49,49,0,0,1-14.38-2.51c-17.33-5.41-24.32-11-28.86-15.83a5,5,0,1,1,7.25-6.88c3.66,3.85,9.45,8.43,24.59,13.17,8.23,2.57,14.85,2.75,17.7.47.54-.43,2.18-1.73,1.82-6.32-1-13.74,3-27,12-39.32,1.8-2.49,2.55-4.56,2.23-6.16-.65-3.16-5.55-6.49-10.76-9.61-12.65-7.59-10.87-23-10.79-23.65a5,5,0,0,1,9.93,1.22c0,.48-1,9.66,6,13.85s13.93,8.9,15.42,16.19c.91,4.47-.42,9.19-4,14-7.54,10.37-10.92,21.37-10,32.68.62,8.16-2.68,12.61-5.57,14.9C133.28,292,129.05,293.28,123.89,293.28Z"/><path class="cls-1" d="M185.49,215.26c-10.49,0-20.76-1.74-28.76-6.12a29.41,29.41,0,0,1-15.8-23.54,5,5,0,1,1,9.94-1c.76,7.13,4.25,12.31,10.67,15.82,7.37,4,18.52,5.67,31.41,4.61,11-.91,22.44-3.76,29.81-7.45C248.61,184.6,263.37,184,264.89,184c.26,0,7.72-.45,12.2-6.29,4-5.25,4.8-13.47,2.29-24.42a5,5,0,0,1,9.75-2.23c3.22,14.09,1.8,25.15-4.22,32.88C277.4,193.6,265.62,194,265.12,194H265c-.1,0-13.44.31-37.76,12.47C217.56,211.31,201.28,215.26,185.49,215.26Z"/><path class="cls-1" d="M458.35,209h-2.58a5,5,0,0,1,0-10h2.58a5,5,0,0,1,0,10Z"/><path class="cls-1" d="M50.91,178.43a27.16,27.16,0,0,1-11.14-2.2c-5.33-2.4-12.09-8-14-21-2.25-15.44,3-29.63,13.6-37,10-7,22.93-7,35.52-.14,7.45,4,14.67,2.83,20.34-3.46a64.1,64.1,0,0,0,7.09-10.42h0c14.15-24,36.76-35.12,57.61-28.43,15.54,5,29.5,18.43,34.73,33.46,4,11.4,1.53,23-6.51,31.06-9.62,9.63-25.23,12-41.76,6.25-23-8-37.84,2.74-53.55,14.07-3,2.16-6.09,4.4-9.18,6.43C74.34,173.12,62,178.43,50.91,178.43Zm5.42-55.49a19.42,19.42,0,0,0-11.24,3.42c-7.51,5.23-11.12,15.73-9.42,27.39,1,7,3.7,11.33,8.2,13.35,6.34,2.85,19.4,1.33,34.3-8.48,2.91-1.92,5.79-4,8.83-6.19,16.3-11.75,34.76-25.06,62.67-15.41,12.82,4.44,24.56,3,31.41-3.87,5.27-5.27,6.82-13,4.14-20.7-4.18-12-15.83-23.22-28.33-27.23-12.92-4.15-31.77,0-45.94,24a72.53,72.53,0,0,1-8.28,12c-8.82,9.78-21,11.85-32.55,5.55A29,29,0,0,0,56.33,122.94Z"/><path class="cls-1" d="M78.9,91.74A21.22,21.22,0,0,1,63.55,85.8c-5.83-5.9-7-14.87-3.21-24.61,4.44-11.41,13.77-19.62,26.28-23.12h0c.68-.19,1.36-.37,2-.53,14.45-3.37,25.89,2.18,29.15,14.14,3.69,13.51-9.17,30.91-28.06,38A31.11,31.11,0,0,1,78.9,91.74Zm10.41-44C82.66,49.56,73.85,54,69.66,64.81c-2.33,6-2,11,1,14,3.28,3.33,9.25,3.92,15.57,1.55,14.83-5.56,24-18.55,21.94-26-2.63-9.65-13.85-7.83-17.23-7-.55.13-1.1.27-1.64.42Z"/></g><g id="Outline"><path class="cls-1" d="M426,415a29.76,29.76,0,0,1-27.82-19.77,5,5,0,0,1,9.37-3.5c5.29,14.14,19.13,13.25,19.27,13.24a5,5,0,0,1,.76,10C427.06,415,426.53,415,426,415Z"/><path class="cls-1" d="M379.7,415c-.56,0-1.09,0-1.58-.06a5,5,0,1,1,.76-10,19.76,19.76,0,0,0,19.27-13.24,5,5,0,0,1,9.37,3.5A29.76,29.76,0,0,1,379.7,415Z"/><path class="cls-1" d="M474.64,415a29.75,29.75,0,0,1-27.82-19.77,5,5,0,0,1,9.37-3.5c5.29,14.14,19.13,13.25,19.27,13.24a5,5,0,0,1,.76,10C475.73,415,475.2,415,474.64,415Z"/><path class="cls-1" d="M428.37,415c-.56,0-1.09,0-1.58-.06a5,5,0,0,1,.73-10,19.75,19.75,0,0,0,19.3-13.24,5,5,0,0,1,9.37,3.5A29.76,29.76,0,0,1,428.37,415Z"/><path class="cls-1" d="M452.31,457a29.75,29.75,0,0,1-27.82-19.77,5,5,0,0,1,9.37-3.5C439.15,447.89,453,447,453.13,447a5,5,0,0,1,.76,10C453.4,457,452.87,457,452.31,457Z"/><path class="cls-1" d="M406,457c-.55,0-1.08,0-1.57-.06a5,5,0,0,1,.73-10,19.76,19.76,0,0,0,19.3-13.24,5,5,0,0,1,9.37,3.5A29.76,29.76,0,0,1,406,457Z"/><path class="cls-1" d="M251,96a29.76,29.76,0,0,1-27.82-19.77,5,5,0,0,1,9.37-3.5C237.81,86.89,251.65,86,251.79,86a5,5,0,0,1,.76,10C252.06,96,251.53,96,251,96Z"/><path class="cls-1" d="M204.7,96c-.56,0-1.09,0-1.58-.06a5,5,0,1,1,.76-10,19.76,19.76,0,0,0,19.27-13.24,5,5,0,0,1,9.37,3.5A29.76,29.76,0,0,1,204.7,96Z"/><path class="cls-1" d="M299.64,96a29.75,29.75,0,0,1-27.82-19.77,5,5,0,0,1,9.37-3.5C286.48,86.89,300.32,86,300.46,86a5,5,0,0,1,.76,10C300.73,96,300.2,96,299.64,96Z"/><path class="cls-1" d="M253.37,96c-.56,0-1.09,0-1.58-.06a5,5,0,0,1,.73-10,19.75,19.75,0,0,0,19.3-13.24,5,5,0,0,1,9.37,3.5A29.76,29.76,0,0,1,253.37,96Z"/></g></svg>