<?xml version="1.0" ?><svg viewBox="0 0 512 512" xmlns="http://www.w3.org/2000/svg"><defs><style>.cls-1{fill:#3f456b;}</style></defs><title/><g id="Lines"><path class="cls-1" d="M411.76,347.87a5,5,0,0,1-4.7-3.29l-10.35-28.39a38.49,38.49,0,0,1-6.92.21,39.65,39.65,0,0,1-27.36-10.93,5,5,0,1,1,6.88-7.25A29.59,29.59,0,0,0,390,306.4l.38,0a24.33,24.33,0,0,0,7.95-.76,5,5,0,0,1,6.34,3l11.84,32.48a5,5,0,0,1-3,6.4A4.91,4.91,0,0,1,411.76,347.87Z"/><path class="cls-1" d="M364.67,305.64a5,5,0,0,1-3.92-1.89L334,270.08a5,5,0,0,1-1.05-3.65c8.36-76.29,14-119.94,14.06-120.37a5,5,0,0,1,4.88-4.36,46.54,46.54,0,0,1,34.53,17.1c13.43,16.5,16.75,42.54,9.89,77.47a34,34,0,0,1,20.88,8.91c8.23,7.51,12.93,18.85,12.9,31.11l-.2,11.09a5,5,0,0,1-5,4.91h-.09a5,5,0,0,1-4.91-5.09l.2-11c0-9.37-3.49-18-9.64-23.62-5.28-4.82-12.15-7-19.84-6.26a5,5,0,0,1-5.35-6.07c7.69-34.4,5.41-60.38-6.59-75.12a36.78,36.78,0,0,0-22.36-13c-1.65,13.12-6.54,52.71-13.2,113.34l25.47,32.06a5,5,0,0,1-3.91,8.11Z"/><path class="cls-1" d="M337.75,337.07a5,5,0,0,1-4.69-6.73l16.45-44.6a5,5,0,1,1,9.38,3.46l-16.45,44.6A5,5,0,0,1,337.75,337.07Z"/><path class="cls-1" d="M440.78,336.81a5,5,0,0,1-4.7-3.29L419.86,289a5,5,0,1,1,9.39-3.43l16.23,44.52a5,5,0,0,1-3,6.41A5.09,5.09,0,0,1,440.78,336.81Z"/><path class="cls-1" d="M390.3,299.84a24.09,24.09,0,0,1-24.11-24.18,24.35,24.35,0,0,1,24.25-24.24h.06a24.09,24.09,0,0,1,24.11,24.17,24.36,24.36,0,0,1-24.25,24.25Zm.2-38.42h0a14.33,14.33,0,0,0-14.27,14.27,14.1,14.1,0,0,0,14.11,14.15h0a14.34,14.34,0,0,0,14.27-14.27h0a14.08,14.08,0,0,0-14.11-14.15Z"/><path class="cls-1" d="M366.57,347.94a5,5,0,0,1-4.7-6.72l12.2-33.38a5,5,0,1,1,9.39,3.43l-12.2,33.38A5,5,0,0,1,366.57,347.94Z"/><path class="cls-1" d="M424.89,292.29a5,5,0,0,1-3.66-8.4c37.56-40.32,26.46-114.46,23.14-132.19h-11c3.71,89.55-37,94.3-38.82,94.46a5,5,0,0,1-1-10c.47-.06,8.48-1.23,16.16-12,7.55-10.62,16-32.63,13.37-77.15a5,5,0,0,1,5-5.3h20.31a5,5,0,0,1,4.87,3.88A249.19,249.19,0,0,1,458.53,199c-.37,39.37-10.74,71.1-30,91.75A5,5,0,0,1,424.89,292.29Z"/><path class="cls-1" d="M356.86,490.16a25.48,25.48,0,0,1-15.95-6c-4.39-3.76-15.29-14.56-21.6-33.49-7.4-22.19-6.25-47.93,3.4-76.5a4.22,4.22,0,0,1,.18-.45c.06-.14,6.56-15.66-.44-19.79-10.33-6.1-16-11.92-17.4-13.48-5-4.12-8.33-10.49-4.64-15.78,2.75-4,5-7.21,5-7.21a5,5,0,0,1,.59-.7c2.11-2.12,7.74-5,13.94-.57l.21.15h0c.23.19,23.81,18.5,59.12,24.08a5,5,0,0,1,3.83,6.86c-.28.68-28,68.1-8,109.9a23.46,23.46,0,0,1,3,6.58,16.78,16.78,0,0,1-2.95,15.53c-2.49,3.11-5.31,6.63-9.68,8.86A18.73,18.73,0,0,1,356.86,490.16ZM332.11,377.58c-8.87,26.37-10,49.9-3.31,69.92,5.51,16.55,14.86,25.83,18.62,29.05,3.45,3,9.44,4.76,13.51,2.68,2.46-1.25,4.38-3.65,6.42-6.2,3.55-4.44-.45-10.16-.62-10.4a5.73,5.73,0,0,1-.45-.75c-9.43-19.4-11-45.3-4.65-77a252.25,252.25,0,0,1,10-35.71c-33.58-6.76-55.45-23.27-57.57-24.91a3.56,3.56,0,0,0-.92-.46c-.76,1.11-2.33,3.39-4.17,6a11.33,11.33,0,0,0,2.62,3,5.87,5.87,0,0,1,.72.69s5,5.7,15.22,11.74C339.33,352.27,336,368.75,332.11,377.58Z"/><path class="cls-1" d="M420.83,490a18.69,18.69,0,0,1-8.52-2c-4.37-2.22-7.17-5.73-9.65-8.83a16.72,16.72,0,0,1-2.89-15.54,24.25,24.25,0,0,1,3-6.58c20.23-41.91-7.12-109.19-7.4-109.87a5,5,0,0,1,3.81-6.84c35.36-5.76,59-24.2,59.26-24.38l.21-.16c6.22-4.41,11.85-1.58,13.95.53a4.45,4.45,0,0,1,.59.71s2.22,3.25,5,7.18c3.66,5.27.33,11.66-4.69,15.79-1.42,1.56-7.1,7.41-17.46,13.56-7.11,4.22-.64,19.68-.57,19.83s.12.3.18.45c9.51,28.53,10.53,54.26,3,76.49-6.4,18.94-17.34,29.78-21.75,33.56A25.62,25.62,0,0,1,420.83,490Zm-14-140.88a251.47,251.47,0,0,1,9.84,35.7c6.19,31.64,4.49,57.54-5,77a4.66,4.66,0,0,1-.47.77c-.15.22-4.19,6-.67,10.38,2,2.53,3.93,4.92,6.36,6.15,4.06,2.06,10.08.21,13.55-2.77,3.78-3.24,13.18-12.58,18.79-29.17,6.77-20.06,5.77-43.58-3-69.91-3.85-8.8-7.09-25.26,4.71-32.26,10.29-6.11,15.26-11.79,15.31-11.85a5.54,5.54,0,0,1,.7-.67,11.54,11.54,0,0,0,2.66-3.05c-1.77-2.56-3.29-4.77-4.07-5.91a1.79,1.79,0,0,0-1,.41C462.45,325.55,440.48,342.2,406.81,349.12Zm.31,110.48h0Z"/><path class="cls-1" d="M460.39,180.5h-6.85a5,5,0,1,1,0-10h6.85c.12,0,13.1-.15,20.12-7.32,3.1-3.16,4.56-7.22,4.48-12.4-.21-12.88-9.95-21.23-25.42-21.8-14.3-.56-19.95,8.35-20,8.44a5,5,0,0,1-8.71-.37c-4-7.92-19.1-8.51-24.07-8.08a5,5,0,0,1-4.6-7.73,52.18,52.18,0,0,0,5.92-14.13c2.62-10.32,1.31-19.29-3.9-26.67-12.54-17.8-35.35-10.91-35.58-10.83a5,5,0,0,1-6.16-3c-4.86-12.49-23.13-9-23.32-9a5,5,0,0,1-4-.94,5,5,0,0,1-1.94-3.63C333,49.86,330,21.5,295.07,21.5c-12.88,0-22.54,3.65-28.72,10.86a24.88,24.88,0,0,0-5.57,11,5,5,0,0,1-6,4.13c-19.45-4-22.31,7.21-22.42,7.69a5,5,0,0,1-7.62,3c-.68-.44-17.21-10.83-37.3.21-19,10.41-10.34,33.53-10,34.51a5,5,0,0,1-.69,4.84,5,5,0,0,1-4.49,1.94c-8.76-.91-12.49,4.5-12.64,4.73a4.86,4.86,0,0,1-3.34,2.3,4.8,4.8,0,0,1-3.89-1c-.56-.39-6.12-4.09-13.76.35-6.87,4-4,12-3.66,12.91a5,5,0,0,1-5.32,6.8c-12.59-1.73-24.56,1.11-32,7.61a20.16,20.16,0,0,0-7.28,15.77c0,8.85,3.32,15.1,9.85,18.57a25.42,25.42,0,0,0,10.21,2.79H348.4a5,5,0,0,1,0,10H110.46c-.35,0-30-.61-30-31.36a30.18,30.18,0,0,1,10.7-23.31c8.16-7.11,20.16-10.88,33.06-10.54-.3-6,1.63-13.33,9.47-17.89,8.75-5.08,16.29-3.66,20.7-1.89a22.89,22.89,0,0,1,11.88-5.61c-2.57-12.26-1.32-30.52,16.42-40.26,18.51-10.16,34.76-5.78,42.62-2.38,3.49-5.33,11.15-12.26,27-10.33,3.26-8.59,13.39-25.43,42.76-25.43,32,0,44.4,20.55,47.4,35.77a43.37,43.37,0,0,1,8.5.38c8.58,1.27,15,5.18,18.83,11.38,11.49-2.19,30.8-1.06,42.58,15.64,11.47,16.28,6.53,34.43,2.16,44.43,6.48.56,15.21,2.4,21.1,7.94,4.45-3.89,12.3-8.49,24.3-8.05,20.66.75,34.75,13.46,35.05,31.62.12,7.91-2.36,14.51-7.38,19.61C477.62,180.38,461.09,180.5,460.39,180.5Z"/><path class="cls-1" d="M428.29,180.5H391.17a5,5,0,0,1,0-10h37.12a5,5,0,0,1,0,10Z"/><path class="cls-1" d="M203.32,290.5H36.79l-.41,0c-11.49-.94-20.52-7-24.15-16.22a23.78,23.78,0,0,1,4.83-24.83c9.58-10.52,22.93-9.92,29.22-8.9a30,30,0,0,1,11.11-8.17c-.77-5.23-1-13.77,3.4-21.34,4-6.9,10.88-11.42,20.38-13.44,23.53-5,33.92,8.34,37.77,15.76a51.14,51.14,0,0,1,9.5-1.09c8.61-.14,15.81,2.25,21.08,6.93a33.59,33.59,0,0,1,33.58-2.82c6.46,2.9,10.69,7.31,12.58,13.11a26,26,0,0,1-.05,14.6c10.13.57,22.61,5.21,25.93,20.22,1.77,8,.73,14.47-3.09,19.22C213,290.3,204.3,290.5,203.32,290.5ZM37,280.5H203.32s4.89-.12,7.39-3.29c1.79-2.28,2.16-5.9,1.08-10.76C208.5,251.55,191,254,189,254.37a5,5,0,0,1-5.17-7.43c0-.06,4.43-7.95,2.3-14.42-1-3-3.33-5.33-7.14-7a24.23,24.23,0,0,0-26.47,4,5,5,0,0,1-3.89,1.46,5,5,0,0,1-3.66-2c-8.35-11.14-27.16-5-27.35-5a5,5,0,0,1-6.41-3.41c-.53-1.82-5.88-17.91-28-13.21-6.6,1.41-11.24,4.31-13.79,8.65-4.6,7.8-1.51,18.14-1.48,18.25a5,5,0,0,1-3.69,6.36,19.48,19.48,0,0,0-11.61,8,5,5,0,0,1-5.74,2.27c-.55-.17-14.1-3.94-22.48,5.28a13.66,13.66,0,0,0-2.93,14.43C23.75,276.22,29.38,279.82,37,280.5Z"/><path class="cls-1" d="M471.42,340.24a5,5,0,0,1-.55-10c6.17-.69,20.52-3.44,20.52-14,0-4.75-1.34-8.25-4.09-10.69-6.22-5.53-17.65-4.24-17.76-4.22A5,5,0,0,1,464,296a12.21,12.21,0,0,0-3.34-8.55c-3.23-3.17-8.75-4.49-16.4-3.89a5,5,0,0,1-5.35-4.4,21.79,21.79,0,0,0-3.94-9.05,5,5,0,1,1,8-6,31.83,31.83,0,0,1,4.78,9.28c8.67,0,15.4,2.39,20,7.05a21.26,21.26,0,0,1,5.68,10.76c5.47.12,14.16,1.28,20.45,6.83,5,4.39,7.49,10.52,7.49,18.21,0,12.9-11,21.83-29.4,23.9A5.44,5.44,0,0,1,471.42,340.24Z"/><path class="cls-1" d="M409.1,340.5H369.75a5,5,0,0,1,0-10H409.1a5,5,0,0,1,0,10Z"/><path class="cls-1" d="M321.8,327a5,5,0,0,1-4.85-3.8c-2.09-8.45,1.77-16.95,10.33-22.73a36.43,36.43,0,0,1,22.83-6.35,5,5,0,1,1-.55,10,26.68,26.68,0,0,0-16.69,4.66c-5.08,3.43-7.29,7.71-6.21,12a5,5,0,0,1-3.66,6.05A4.93,4.93,0,0,1,321.8,327Z"/><path class="cls-1" d="M147.39,452.5a5,5,0,0,1-3.24-8.81c20.64-17.58,19.38-45.79,18.36-68.46-.21-4.68-.41-9.11-.4-13.16A49.31,49.31,0,0,1,170,335.22a5,5,0,0,1,8.42,5.39,39.4,39.4,0,0,0-6.28,21.48c0,3.82.19,8.13.39,12.69,1.06,23.54,2.5,55.77-21.87,76.53A5,5,0,0,1,147.39,452.5Z"/><path class="cls-1" d="M212,314.66a5,5,0,0,1-1.95-9.6c4.55-1.93,9.52-3.76,14.76-5.45,2.56-.83,5.18-1.65,7.84-2.47,16.89-5.26,34.36-10.69,46.32-22.2,6.39-6.15,8.58-13.85,6.33-22.26-2-7.58-6.9-14.37-12.13-21.24-11-14.45-20.82-29.62-19.75-56.14a5,5,0,1,1,10,.4c-.93,23.23,7.47,36.24,17.71,49.68,5.87,7.69,11.34,15.37,13.84,24.72a31.93,31.93,0,0,1-9.06,32c-13.66,13.15-33.12,19.2-50.28,24.54-2.62.81-5.21,1.62-7.74,2.43-5,1.61-9.65,3.34-13.94,5.15A5,5,0,0,1,212,314.66Z"/><path class="cls-1" d="M326.87,378.35c-9.24,0-18.31-1.74-27.08-3.43-14.84-2.86-28.86-5.56-42.81,0a5,5,0,0,1-3.69-9.3c16.66-6.61,32.79-3.5,48.39-.5,9.11,1.75,17.71,3.4,26.39,3.24a5,5,0,0,1,.19,10Z"/><path class="cls-1" d="M290.39,452.5a5,5,0,0,1-1.88-.37,82.46,82.46,0,0,1-20.09-12.56c-13.51-11.37-21.12-25.47-22-40.78-2.53-43,22.87-49,24-49.18a5,5,0,0,1,2.14,9.77c-.88.22-18.1,5-16.11,38.83,1.8,30.49,35.55,44.52,35.89,44.66a5,5,0,0,1-1.88,9.63Z"/><path class="cls-1" d="M197.4,373.5a5,5,0,0,1-4.94-5.81c.16-1.1,3.06-24.39-39-32.28C137.91,332.5,117,325.21,105.72,307c-6.93-11.17-6.84-21.21-6.83-21.63a5,5,0,1,1,10,.18c0,1.24.39,31.37,46.42,40,21.42,4,35.87,12.36,42.93,24.82,5.47,9.65,4.24,18,4.08,18.94A5,5,0,0,1,197.4,373.5Z"/><path class="cls-1" d="M232.39,338.5a5,5,0,0,1-4.82-3.67c-6.69-24.27-35.07-25.3-60.1-26.21l-3.27-.12c-11-.43-19-3.59-23.65-9.4a18.9,18.9,0,0,1-4-14.5,5,5,0,0,1,9.85,1.73,9.09,9.09,0,0,0,2,6.63c2.76,3.33,8.34,5.24,16.14,5.54l3.26.12c25.63.94,60.73,2.22,69.37,33.55a5,5,0,0,1-3.49,6.15A5.07,5.07,0,0,1,232.39,338.5Z"/><path class="cls-1" d="M400.39,375.5A106.11,106.11,0,0,1,369.1,371a5,5,0,0,1,2.95-9.56,96,96,0,0,0,28.34,4,41.16,41.16,0,0,0,6.86-.56,5,5,0,0,1,1.68,9.86A51.53,51.53,0,0,1,400.39,375.5Z"/><path class="cls-1" d="M326.93,219.52c-12.12,0-22-3.64-29.38-10.84-13-12.68-13.16-31.71-13.16-32.51a5,5,0,0,1,10,0c0,.31.25,15.77,10.19,25.41,5.7,5.52,13.66,8.18,23.68,7.93a36.18,36.18,0,0,0,13.19-2.69,5,5,0,1,1,3.88,9.22,46.37,46.37,0,0,1-16.81,3.47Zm-32.54-43.35h0Z"/><path class="cls-1" d="M115,377.59c-1.29,0-2.25-.06-2.74-.09H52.39c-5.49,0-12.8-2-16.89-7.5-2.19-3-4.3-8.14-1.89-16,3.68-12,14.31-15.27,20-16.18C57.16,329,67,316.5,86.39,316.5c24.11,0,32.77,12.74,35.63,19.26,8.55,1.18,20.37,6.64,20.37,21.74a17.56,17.56,0,0,1-5.6,13.27C130.29,376.77,120.06,377.59,115,377.59ZM57.42,347.5c-.52,0-11.42.26-14.25,9.47-1,3.08-.82,5.47.38,7.09,1.75,2.38,5.7,3.44,8.84,3.44h60a2.68,2.68,0,0,1,.4,0c3.28.25,12.8,0,17.23-4.11a7.5,7.5,0,0,0,2.37-5.91c0-11.66-12.57-12-14-12a5,5,0,0,1-4.89-4c-.13-.56-3.81-15-27.11-15-19.82,0-24,16.46-24.13,17.16A5,5,0,0,1,57.42,347.5Z"/><path class="cls-1" d="M128,401.53l-1.79,0c-9.66-.38-17-3.5-21.78-9.3-7.17-8.68-5.54-20-5.47-20.45a5,5,0,0,1,9.89,1.48c0,.15-1,7.51,3.34,12.65,2.91,3.48,7.75,5.37,14.4,5.62,22.71.86,36.65-20.61,36.79-20.82a5,5,0,0,1,8.45,5.33C171.15,377.08,155.44,401.53,128,401.53Z"/><path class="cls-1" d="M130.47,428.86c-19.94,0-35.13-5-45.35-14.94C67.79,397.06,71.79,372.67,72,371.64a5,5,0,0,1,9.86,1.7c0,.32-3.19,20.4,10.34,33.48,12.82,12.4,36.25,15.27,69.63,8.52a5,5,0,1,1,2,9.8A170.35,170.35,0,0,1,130.47,428.86Z"/><path class="cls-1" d="M391.39,500.5h-272a5,5,0,0,1-4.93-4.18l-4.67-28a5,5,0,0,1,9.87-1.64l4,23.82H387.16l4-23.82a5,5,0,0,1,9.86,1.64l-4.67,28A5,5,0,0,1,391.39,500.5Z"/><path class="cls-1" d="M330.83,472.5H107.06a10.69,10.69,0,0,1-10.67-10.67v-8.66a10.69,10.69,0,0,1,10.67-10.67H322.83a5,5,0,0,1,0,10H107.06a.68.68,0,0,0-.67.67v8.66a.68.68,0,0,0,.67.67H330.83a5,5,0,0,1,0,10Z"/><path class="cls-1" d="M409.28,456a5,5,0,0,1-4.61-3.05.68.68,0,0,0-.62-.42H366.39a5,5,0,0,1,0-10h37.66a10.67,10.67,0,0,1,9.83,6.51,5,5,0,0,1-4.6,7Z"/><path class="cls-1" d="M401.5,472.5H374.39a5,5,0,0,1,0-10H401.5a5,5,0,0,1,0,10Z"/><path class="cls-1" d="M450.44,80.13a5,5,0,0,1-1.91-.38,5,5,0,0,1-2.93-3.38l-8.28-32.29a5,5,0,0,1,4-6.18c1-.16,24-3.68,41.58,17a5,5,0,0,1-1.27,7.54L453,79.43A5,5,0,0,1,450.44,80.13Zm-1.88-32.48,5.07,19.78,17.48-10.35A37.56,37.56,0,0,0,448.56,47.65Z"/><path class="cls-1" d="M483.15,281.84l-.5,0a5,5,0,0,1-3.63-2.16l-18.79-27.53a5,5,0,0,1,2.58-7.57l31.69-10.34a5,5,0,0,1,6.42,3.63c.22,1,5.22,23.76-14.29,42.59A5,5,0,0,1,483.15,281.84ZM472.25,252l11.45,16.78a37.64,37.64,0,0,0,8-23.11Z"/><path class="cls-1" d="M233.71,247.87a4.94,4.94,0,0,1-2.19-.5c-.89-.43-21.76-10.88-24.13-37.89a5,5,0,0,1,5.39-5.43l33.22,2.7a5,5,0,0,1,4.27,6.77l-11.89,31.14a5,5,0,0,1-2.84,2.86A4.84,4.84,0,0,1,233.71,247.87ZM218.3,214.54a37.38,37.38,0,0,0,13,20.73l7.29-19.09Z"/></g><g id="Outline"><path class="cls-1" d="M332.39,91.5a4.94,4.94,0,0,1-3.65-1.59c-11-11.76-25.16-3.49-25.76-3.13a5.08,5.08,0,0,1-4.1.48,5,5,0,0,1-3.07-2.76c-.22-.49-5.74-12.5-16.76-11-11.2,1.49-12.71,9.78-12.73,9.86a5,5,0,0,1-9.86-1.64c.11-.64,2.82-15.68,21.27-18.14,7.77-1,15,1.64,20.88,7.73a35.35,35.35,0,0,1,3.8,4.71c8.68-3.38,22.63-4.68,33.64,7.11a5,5,0,0,1-3.66,8.41Z"/><path class="cls-1" d="M217,142.82a5,5,0,0,1-4.22-2.3c-.06-.09-7.39-11.16-18.36-10.4-10.48.73-12.6,8-12.62,8.13a5,5,0,1,1-9.65-2.63c.16-.58,4.09-14.26,21.58-15.47,16.92-1.18,27.05,14.31,27.47,15a5,5,0,0,1-1.51,6.91A5,5,0,0,1,217,142.82Z"/><path class="cls-1" d="M119,259.46a5,5,0,0,1-4.37-2.58c0-.09-6.16-10.71-15.09-9.91a11.75,11.75,0,0,0-10.65,8.16,5,5,0,1,1-9.71-2.4A21.76,21.76,0,0,1,98.61,237c15.44-1.39,24.35,14.35,24.72,15a5,5,0,0,1-2,6.8A4.91,4.91,0,0,1,119,259.46Z"/><path class="cls-1" d="M377.4,132.5a5,5,0,0,1-4.4-2.61c-.16-.29-4.53-7.83-12.79-6.46s-9.94,6.21-10,6.41l0-.13-9.7-2.42c1-4.16,6-11.72,18-13.72,15.33-2.56,22.9,11,23.21,11.54a5,5,0,0,1-2,6.78A5.09,5.09,0,0,1,377.4,132.5Z"/><path class="cls-1" d="M408.64,373.5a5,5,0,0,1-1.2-9.85l12.82-3.16a5,5,0,1,1,2.39,9.71l-12.82,3.15A4.91,4.91,0,0,1,408.64,373.5Z"/><path class="cls-1" d="M412.76,395.62a5,5,0,0,1-1.09-9.88l13.67-3.06a5,5,0,0,1,2.18,9.76l-13.66,3.06A5.22,5.22,0,0,1,412.76,395.62Z"/><path class="cls-1" d="M417.74,417.84a5,5,0,0,1-1.09-9.88l13.67-3.06a5,5,0,1,1,2.18,9.75l-13.67,3.07A5.06,5.06,0,0,1,417.74,417.84Z"/><path class="cls-1" d="M370.4,372.14a5.33,5.33,0,0,1-1-.11l-12.91-2.71a5,5,0,1,1,2.05-9.79l12.92,2.71a5,5,0,0,1-1,9.9Z"/><path class="cls-1" d="M365.24,394.31a4.9,4.9,0,0,1-1.13-.13L350.46,391a5,5,0,0,1,2.27-9.74l13.64,3.17a5,5,0,0,1-1.13,9.87Z"/><path class="cls-1" d="M360.09,416.49a4.92,4.92,0,0,1-1.14-.13l-13.64-3.17a5,5,0,0,1,2.26-9.74l13.65,3.17a5,5,0,0,1-1.13,9.87Z"/></g></svg>