<?xml version="1.0" ?><svg viewBox="0 0 512 512" xmlns="http://www.w3.org/2000/svg"><defs><style>.cls-1{fill:#3f456b;}</style></defs><title/><g id="Lines"><path class="cls-1" d="M300.73,393.72a5,5,0,0,1,0-10c20,0,34.19-5.6,44.75-17.62,9.88-11.25,16.91-28.11,22.8-54.65,10.46-47.21,42.09-47.28,43.43-47.27a5,5,0,0,1-.07,10h0c-1.1,0-25,.6-33.56,39.43C367.38,361.7,350.15,393.72,300.73,393.72Z"/><path class="cls-1" d="M411.63,271.18a5,5,0,0,1-5-4.51c-.07-.66-6.5-65.77-17.93-99.73,0-.1-.06-.19-.09-.29-.32-1.13-8.39-28.2-46.87-31.24-.44,0-45.45-3.41-86.77-3.41s-84.77,3.38-85.2,3.41c-38,3-46,30.1-46.28,31.25,0,.08-.06.18-.08.26-11.32,34-17.67,98.35-17.73,99a5,5,0,1,1-9.95-1c.26-2.68,6.51-66,18.15-101.07.84-2.94,11-34.91,55.1-38.43.44,0,44.28-3.45,86-3.45s87.09,3.41,87.54,3.44c44.59,3.53,54.85,35.47,55.7,38.42C410,198.94,416.35,263,416.61,265.7a5,5,0,0,1-4.49,5.46A4.1,4.1,0,0,1,411.63,271.18Z"/><path class="cls-1" d="M211.13,393.72c-23.12,0-40.36-6.88-52.69-21C147.6,360.23,140,342,133.88,313.59c-8.44-39-32.26-40.25-33.27-40.28a5,5,0,0,1,.12-10h.08c1.33,0,32.65,1,42.84,48.17,11.55,53.34,29.2,72.24,67.48,72.24a5,5,0,0,1,0,10Z"/><path class="cls-1" d="M469,427H336a5,5,0,0,1,0-10H469a5,5,0,0,0,5-5V398.72a5,5,0,0,0-5-5H41a5,5,0,0,0-5,5V412a5,5,0,0,0,5,5H175.5a5,5,0,0,1,0,10H41a15,15,0,0,1-15-15V398.72a15,15,0,0,1,15-15H469a15,15,0,0,1,15,15V412A15,15,0,0,1,469,427Z"/><path class="cls-1" d="M31.23,402.48a5,5,0,0,1-4.95-4.35C26,396.27,26,354.94,26,330.46c0-19.93,6.14-35.87,18.26-47.39,18.87-17.93,46.18-19.33,54.23-19.33h.22c5.61-4.46,25.54-17.51,73.72-25.07.93-.14,90.93-13.43,178.6,2.47,39.11,7.1,56.72,18.57,61.91,22.6,7.5,0,34.13,1.22,52.73,18.87C477.83,294.16,484,310.26,484,330.46c0,24.47,0,65.8-.27,67.66a5,5,0,0,1-10-1c0-.66.22-7.32.22-66.67,0-17.32-5.1-31-15.17-40.55-18.23-17.36-47.1-16.15-47.39-16.14a5,5,0,0,1-3.72-1.38c-5-4.62-23.63-15.09-58.48-21.41-86-15.59-174.4-2.56-175.28-2.43-42.86,6.73-64.49,18.5-69.94,23.78a4.9,4.9,0,0,1-3.77,1.44c-.3,0-30.43-1.24-49.14,16.59-10,9.56-15.11,23.05-15.11,40.1,0,59.35.2,66,.23,66.67a5,5,0,0,1-4.34,5.31A4.87,4.87,0,0,1,31.23,402.48Z"/><path class="cls-1" d="M88,373a38,38,0,1,1,38-38A38,38,0,0,1,88,373Zm0-66a28,28,0,1,0,28,28A28,28,0,0,0,88,307Z"/><path class="cls-1" d="M426,373a38,38,0,1,1,38-38A38,38,0,0,1,426,373Zm0-66a28,28,0,1,0,28,28A28,28,0,0,0,426,307Z"/><path class="cls-1" d="M91,500H67a25,25,0,0,1-25-25V422a5,5,0,0,1,10,0v53a15,15,0,0,0,15,15H91a15,15,0,0,0,15-15V422a5,5,0,0,1,10,0v53A25,25,0,0,1,91,500Z"/><path class="cls-1" d="M444,500H420a25,25,0,0,1-25-25V422a5,5,0,0,1,10,0v53a15,15,0,0,0,15,15h24a15,15,0,0,0,15-15V422a5,5,0,0,1,10,0v53A25,25,0,0,1,444,500Z"/><path class="cls-1" d="M190,463H111a5,5,0,0,1,0-10h79a5,5,0,0,1,0,10Z"/><path class="cls-1" d="M398,463H322a5,5,0,0,1,0-10h76a5,5,0,0,1,0,10Z"/><path class="cls-1" d="M378,257a5,5,0,0,1-5-4.55l-2.58-28.36c-2-18.14-4.32-32.51-6.66-41.56-5-19.27-27.37-20.29-28.32-20.32l-.28,0c-79.23-7.1-158.93-.07-159.73,0l-.3,0c-.94,0-23.34,1-28.31,20.32C141,205.23,135,252,135,252.51a5,5,0,0,1-9.92-1.26c.25-1.94,6.11-47.91,12.12-71.22,5.46-21.18,26.85-27.44,37.54-27.81,4-.35,82.78-7,161.23,0,10.69.37,32.08,6.63,37.54,27.81,2.49,9.65,4.81,24.11,6.92,43a.31.31,0,0,0,0,.1L383,251.55a5,5,0,0,1-4.53,5.43Z"/><path class="cls-1" d="M472,268H452a25,25,0,0,1,0-50h20a25,25,0,0,1,0,50Zm-20-40a15,15,0,0,0,0,30h20a15,15,0,0,0,0-30Z"/><path class="cls-1" d="M411.28,270.94h-.07a5,5,0,0,1-4.93-5.06c.1-8.19,2.65-14.64,7.57-19.17,7.66-7.06,18.2-6.4,18.64-6.37a5,5,0,0,1-.67,10c-.2,0-6.85-.31-11.25,3.8-2.78,2.59-4.23,6.59-4.29,11.88A5,5,0,0,1,411.28,270.94Z"/><path class="cls-1" d="M59,268H39a25,25,0,0,1,0-50H59a25,25,0,0,1,0,50ZM39,228a15,15,0,0,0,0,30H59a15,15,0,0,0,0-30Z"/><path class="cls-1" d="M99.72,270.94a5,5,0,0,1-5-4.94c-.06-5.33-1.53-9.34-4.34-11.93-4.46-4.1-11.1-3.76-11.17-3.75a5,5,0,1,1-.7-10c.44,0,11-.69,18.64,6.37,4.92,4.53,7.47,11,7.57,19.17a5,5,0,0,1-4.93,5.06Z"/><path class="cls-1" d="M132,374a5,5,0,0,1-5-5v-2a5,5,0,0,1,10,0v2A5,5,0,0,1,132,374Z"/><path class="cls-1" d="M378,374a5,5,0,0,1-5-5v-2a5,5,0,0,1,10,0v2A5,5,0,0,1,378,374Z"/><path class="cls-1" d="M316,464H196a25,25,0,0,1-25-25V409a25,25,0,0,1,25-25H316a25,25,0,0,1,25,25v30A25,25,0,0,1,316,464ZM196,394a15,15,0,0,0-15,15v30a15,15,0,0,0,15,15H316a15,15,0,0,0,15-15V409a15,15,0,0,0-15-15Z"/><path class="cls-1" d="M373,118.11H137a15,15,0,0,1-15-15V94.5a15,15,0,0,1,15-15H373a15,15,0,0,1,15,15v8.61A15,15,0,0,1,373,118.11ZM137,89.5a5,5,0,0,0-5,5v8.61a5,5,0,0,0,5,5H373a5,5,0,0,0,5-5V94.5a5,5,0,0,0-5-5Z"/><path class="cls-1" d="M175.5,132.8a5,5,0,0,1-5-5V84.5a5,5,0,0,1,10,0v43.3A5,5,0,0,1,175.5,132.8Z"/><path class="cls-1" d="M335.5,132.8a5,5,0,0,1-5-5V84.5a5,5,0,0,1,10,0v43.3A5,5,0,0,1,335.5,132.8Z"/><path class="cls-1" d="M214.5,132.8a5,5,0,0,1-5-5V20a5,5,0,0,1,10,0V127.8A5,5,0,0,1,214.5,132.8Z"/><path class="cls-1" d="M296.5,132.8a5,5,0,0,1-5-5V20a5,5,0,0,1,10,0V127.8A5,5,0,0,1,296.5,132.8Z"/><path class="cls-1" d="M349.67,118.11H161a15,15,0,0,1-15-15V39.05a15,15,0,0,1,15-15H349.67a15,15,0,0,1,15,15v64.06A15,15,0,0,1,349.67,118.11ZM161,34.05a5,5,0,0,0-5,5v64.06a5,5,0,0,0,5,5H349.67a5,5,0,0,0,5-5V39.05a5,5,0,0,0-5-5Z"/><path class="cls-1" d="M272,69.65H238.67a5,5,0,1,1,0-10H272a5,5,0,0,1,0,10Z"/></g><g id="Outline"><path class="cls-1" d="M255,393.72a5,5,0,0,1-5-5V238a5,5,0,0,1,10,0V388.72A5,5,0,0,1,255,393.72Z"/><path class="cls-1" d="M255.5,437a5,5,0,0,1-5-5V416a5,5,0,0,1,10,0v16A5,5,0,0,1,255.5,437Z"/><path class="cls-1" d="M231.25,437a5,5,0,0,1-5-5V416a5,5,0,0,1,10,0v16A5,5,0,0,1,231.25,437Z"/><path class="cls-1" d="M207,437a5,5,0,0,1-5-5V416a5,5,0,0,1,10,0v16A5,5,0,0,1,207,437Z"/><path class="cls-1" d="M304,437a5,5,0,0,1-5-5V416a5,5,0,0,1,10,0v16A5,5,0,0,1,304,437Z"/><path class="cls-1" d="M279.75,437a5,5,0,0,1-5-5V416a5,5,0,0,1,10,0v16A5,5,0,0,1,279.75,437Z"/><path class="cls-1" d="M65,443H48a5,5,0,0,1,0-10H65a5,5,0,0,1,0,10Z"/><path class="cls-1" d="M65,478H48a5,5,0,0,1,0-10H65a5,5,0,0,1,0,10Z"/><path class="cls-1" d="M65,459.94H48a5,5,0,0,1,0-10H65a5,5,0,1,1,0,10Z"/><path class="cls-1" d="M110,443H93a5,5,0,0,1,0-10h17a5,5,0,0,1,0,10Z"/><path class="cls-1" d="M110,478H93a5,5,0,0,1,0-10h17a5,5,0,0,1,0,10Z"/><path class="cls-1" d="M110,459.94H93a5,5,0,0,1,0-10h17a5,5,0,1,1,0,10Z"/><path class="cls-1" d="M418,443H401a5,5,0,0,1,0-10h17a5,5,0,0,1,0,10Z"/><path class="cls-1" d="M418,478H401a5,5,0,0,1,0-10h17a5,5,0,0,1,0,10Z"/><path class="cls-1" d="M418,459.94H401a5,5,0,0,1,0-10h17a5,5,0,0,1,0,10Z"/><path class="cls-1" d="M463,443H446a5,5,0,0,1,0-10h17a5,5,0,0,1,0,10Z"/><path class="cls-1" d="M463,478H446a5,5,0,0,1,0-10h17a5,5,0,0,1,0,10Z"/><path class="cls-1" d="M463,459.94H446a5,5,0,0,1,0-10h17a5,5,0,0,1,0,10Z"/></g></svg>