<?xml version="1.0" ?><svg enable-background="new 0 0 512 512" version="1.1" viewBox="0 0 512 512" xml:space="preserve" xmlns="http://www.w3.org/2000/svg" xmlns:xlink="http://www.w3.org/1999/xlink"><g id="Colors"><g><g><path d="M201,500.728c-2.762,0-5-2.238-5-5v-78.311c0-2.762,2.238-5,5-5s5,2.238,5,5v78.311     C206,498.489,203.762,500.728,201,500.728z" fill="#3F456B"/></g><g><path d="M471,500.728c-2.762,0-5-2.238-5-5V286.999c0-2.762,2.238-5,5-5s5,2.238,5,5v208.729     C476,498.489,473.762,500.728,471,500.728z" fill="#3F456B"/></g><g><path d="M353.777,501c-2.496,0-4.609-1.84-4.952-4.312l-11.046-79.534c-0.38-2.734,1.529-5.26,4.265-5.64     c2.736-0.376,5.261,1.53,5.64,4.265L358.131,491L491,490.999v-199H370c-2.762,0-5-2.238-5-5s2.238-5,5-5h126c2.762,0,5,2.238,5,5     v209c0,2.762-2.238,5-5,5L353.777,501z" fill="#3F456B"/></g><g><path d="M318.222,500.728H176c-2.762,0-5-2.238-5-5v-78.895c0-2.762,2.238-5,5-5s5,2.238,5,5v73.895h132.869     l10.433-74.951c0.38-2.734,2.903-4.645,5.642-4.263c2.735,0.381,4.644,2.906,4.263,5.642l-11.032,79.262     C322.83,498.888,320.717,500.728,318.222,500.728z" fill="#3F456B"/></g></g><g id="XMLID_27_"><g><g><path d="M273,16c-75,28-160,0-160,0s-1,80,80,80C276,96,273,16,273,16z" fill="none"/></g><g><path d="M273,16l63,16c0,0-8,106,32,143l1,240H16l1-240C57,138,49,32,49,32l63-16" fill="none"/></g></g></g><g><g><g><path d="M251.631,293.661c-0.431,0-0.861-0.007-1.295-0.02c-2.76-0.084-4.93-2.39-4.846-5.15      s2.353-4.896,5.15-4.846c6.927,0.218,13.512-1.794,18.476-5.646c4.682-3.633,7.346-8.489,7.503-13.672      c0.158-5.186-2.205-10.194-6.654-14.104c-4.719-4.147-11.146-6.549-18.099-6.761c-10.169-0.332-27.522,1.85-29.827,19.799      c-0.351,2.738-2.851,4.687-5.596,4.322c-2.739-0.352-4.674-2.856-4.322-5.596c2.382-18.554,17.397-29.204,40.05-28.521      c9.271,0.283,17.935,3.566,24.396,9.245c6.73,5.916,10.299,13.7,10.049,21.92c-0.25,8.219-4.287,15.772-11.367,21.268      C268.77,290.927,260.426,293.661,251.631,293.661z" fill="#3F456B"/></g><g><path d="M248.592,356.367c-0.008,0-0.013,0-0.021,0c-13.983-0.004-25.263-4.017-32.62-11.604      c-6.451-6.653-9.693-15.667-9.376-26.064c0.085-2.76,2.411-4.887,5.15-4.846c2.761,0.085,4.93,2.391,4.846,5.15      c-0.163,5.322,0.843,12.903,6.56,18.799c5.43,5.601,14.229,8.562,25.443,8.565c0.005,0,0.013,0,0.018,0      c19.814,0.001,33.435-10.188,33.897-25.357c0.21-6.859-2.895-13.467-8.742-18.607c-6.118-5.377-14.432-8.488-23.41-8.761      c-2.761-0.084-4.93-2.39-4.847-5.149c0.085-2.761,2.377-4.889,5.149-4.847c11.298,0.344,21.849,4.337,29.709,11.246      c8.129,7.146,12.439,16.529,12.137,26.424C291.854,341.954,273.804,356.366,248.592,356.367z" fill="#3F456B"/></g></g><g><path d="M172,356H97.258c-2.046,0-3.885-1.246-4.644-3.146c-0.759-1.899-0.283-4.07,1.2-5.479     c1.995-1.896,49.003-46.538,60.791-57.085c10.617-9.5,10.914-20.785,10.914-20.896c0-0.159,0.008-0.317,0.022-0.477     c0.006-0.068,0.733-9.707-5.873-16.893c-5.236-5.696-13.786-8.585-25.41-8.585c-11.085,0-19.453,2.908-24.872,8.645     c-7.708,8.16-7.145,19.701-7.139,19.816c0.157,2.748-1.937,5.117-4.685,5.286c-2.734,0.171-5.114-1.904-5.295-4.651     c-0.042-0.641-0.91-15.829,9.749-27.212c7.384-7.886,18.231-11.884,32.241-11.884c14.62,0,25.686,4.02,32.891,11.946     c9,9.901,8.501,22.354,8.366,24.255c-0.06,2.103-0.96,16.217-14.242,28.102c-8.546,7.646-36.767,34.321-51.477,48.258H172     c2.762,0,5,2.238,5,5S174.762,356,172,356z" fill="#3F456B"/></g></g><g><g><g><path d="M439.12,450.901c-2.762,0-5-2.238-5-5s2.238-5,5-5c4.765,0,5.697-1.817,5.697-4.957      c0-4.123-4.044-4.862-6.454-4.936c-7.563-0.253-8.066,3.604-8.229,4.864c-0.351,2.738-2.841,4.683-5.596,4.322      c-2.738-0.351-4.674-2.856-4.322-5.596c1.115-8.694,8.204-13.903,18.451-13.587c9.509,0.29,16.149,6.431,16.149,14.932      C454.817,445.17,448.803,450.901,439.12,450.901z" fill="#3F456B"/></g><g><path d="M437.208,474.121c-0.004,0-0.006,0-0.01,0c-7.825-0.002-12.298-2.921-14.672-5.369      c-3.016-3.109-4.597-7.442-4.452-12.199c0.085-2.76,2.423-4.907,5.15-4.846c2.76,0.084,4.93,2.39,4.846,5.15      c-0.044,1.436,0.204,3.457,1.635,4.933c1.478,1.524,4.07,2.33,7.496,2.331c0.002,0,0.005,0,0.007,0      c5.772,0,9.731-2.687,9.854-6.686c0.055-1.79-0.54-3.267-1.768-4.388c-1.428-1.306-3.674-2.068-6.325-2.148      c-2.761-0.084-4.931-2.39-4.847-5.149c0.085-2.761,2.414-4.918,5.149-4.847c5.114,0.155,9.529,1.802,12.769,4.762      c3.379,3.088,5.161,7.376,5.018,12.075C456.767,467.233,448.419,474.121,437.208,474.121z" fill="#3F456B"/></g></g><g><path d="M407.962,473.981h-28.539c-2.046,0-3.885-1.246-4.644-3.146c-0.759-1.899-0.283-4.07,1.2-5.479     c0.763-0.726,18.745-17.803,23.28-21.86c2.786-2.492,3.103-5.288,3.136-5.724c-0.006-0.186,0.004-0.215,0.024-0.427v0.001     c-0.002,0,0.106-2.421-1.479-4.106c-1.741-1.85-4.979-2.238-7.39-2.238c-3.323,0-5.751,0.772-7.216,2.297     c-2.023,2.105-1.921,5.297-1.919,5.329c0.181,2.756-1.908,5.105-4.663,5.287c-2.741,0.16-5.139-1.935-5.319-4.691     c-0.049-0.751-0.341-7.482,4.551-12.706c3.428-3.66,8.328-5.516,14.566-5.516c6.49,0,11.485,1.875,14.847,5.573     c4.162,4.579,4.08,10.172,3.995,11.494c-0.052,1.457-0.623,7.653-6.465,12.88c-2.332,2.086-8.557,7.937-13.952,13.032h15.986     c2.762,0,5,2.238,5,5S410.724,473.981,407.962,473.981z" fill="#3F456B"/></g></g><g><path d="M17.952,205.908l-1.904-9.816c17.479-3.392,40.061-21.341,48.366-87.589    c5.127-40.898,2.132-80.719,2.101-81.116l9.971-0.773C77.01,33.368,88.519,192.217,17.952,205.908z" fill="#3F456B"/></g><g><path d="M367.471,205.908c-70.566-13.691-59.058-172.54-58.533-179.295l9.971,0.773    c-0.031,0.398-3.027,40.35,2.118,81.251c4.592,36.508,16.708,81.314,48.349,87.454L367.471,205.908z" fill="#3F456B"/></g><g><path d="M216,61h-46.75c-2.762,0-5-2.238-5-5V28c0-2.762,2.238-5,5-5s5,2.238,5,5v23H211V29c0-2.762,2.238-5,5-5    s5,2.238,5,5v27C221,58.762,218.762,61,216,61z" fill="#3F456B"/></g></g><g id="Lines"><g><path d="M193,101c-25.446,0-45.832-7.577-60.59-22.521C107.816,53.576,107.981,17.463,108,15.938    c0.021-1.593,0.799-3.08,2.094-4.006c1.297-0.926,2.958-1.177,4.469-0.682c0.835,0.273,84.27,27.102,156.688,0.065    c1.505-0.561,3.187-0.367,4.522,0.524c1.336,0.891,2.163,2.368,2.223,3.973c0.057,1.504,1.105,37.111-22.915,62.049    C240.292,93.215,219.405,101,193,101z M118.427,22.803c1.153,10.909,5.416,32.813,21.157,48.709C152.39,84.443,170.361,91,193,91    c23.547,0,41.991-6.733,54.819-20.014c15.16-15.694,18.959-37,19.894-47.844c-37.57,12.253-76.6,11.39-103.405,8.325    C143.576,29.099,127.188,25.19,118.427,22.803z" fill="#3F456B"/></g><g><path d="M369,420H16c-1.33,0-2.604-0.529-3.543-1.472s-1.463-2.22-1.457-3.549l1-240    c0.006-1.387,0.587-2.709,1.604-3.65C51.365,136.401,44.092,33.412,44.014,32.376c-0.182-2.422,1.402-4.624,3.756-5.222l63-16    c2.677-0.685,5.397,0.939,6.076,3.615c0.68,2.676-0.938,5.396-3.615,6.076L54.244,35.827    c1.051,20.263,3.232,105.943-32.253,141.311L21.021,410h342.959l-0.971-232.862c-35.485-35.367-33.304-121.048-32.253-141.311    L271.77,20.846c-2.677-0.68-4.295-3.4-3.615-6.076c0.68-2.678,3.405-4.299,6.076-3.615l63,16c2.354,0.598,3.938,2.8,3.756,5.222    c-0.078,1.036-7.352,104.025,30.409,138.953c1.018,0.941,1.599,2.264,1.604,3.65l1,240c0.006,1.329-0.519,2.606-1.457,3.549    S370.33,420,369,420z" fill="#3F456B"/></g><g><path d="M192,220c-24.813,0-45-20.187-45-45s20.187-45,45-45s45,20.187,45,45S216.813,220,192,220z M192,140    c-19.299,0-35,15.701-35,35s15.701,35,35,35s35-15.701,35-35S211.299,140,192,140z" fill="#3F456B"/></g><g><path d="M190,191c-1.259,0-2.485-0.476-3.422-1.354c-1.188-1.115-1.759-2.739-1.528-4.353l2.028-14.195    c-37.738,6.758-65.254,15.567-65.543,15.661c-2.627,0.845-5.445-0.596-6.294-3.224c-0.848-2.628,0.596-5.446,3.224-6.294    c0.313-0.101,31.835-10.193,73.713-17.173c1.575-0.264,3.177,0.241,4.316,1.355c1.141,1.114,1.681,2.705,1.456,4.283l-2,13.994    c14.571-2.878,48.929-9.368,73.583-11.68c2.745-0.257,5.187,1.762,5.445,4.512c0.258,2.749-1.763,5.188-4.512,5.445    c-31.349,2.938-78.97,12.817-79.447,12.916C190.681,190.966,190.339,191,190,191z" fill="#3F456B"/></g></g></svg>