<?xml version="1.0" ?><svg id="Lines" viewBox="0 0 512 512" xmlns="http://www.w3.org/2000/svg"><defs><style>.cls-1{fill:#3f456b;}</style></defs><title/><path class="cls-1" d="M391.93,189.45a5.09,5.09,0,0,1-.77-.06L272.66,171a5,5,0,0,1-1.88-9.18L299.32,144,257.88,74.37l-53.71,90.17a5,5,0,0,1-6.86,1.73l-96-57.2a5,5,0,0,1-1.76-6.82l28.56-49c1.4-2.59,21-37.29,65.66-37.29,1.1,0,2.19,0,3.26.07a4.57,4.57,0,0,1,.83-.07H342.89C367,16,376.73,30.9,377.8,32.67l30.33,47.4L441,65.47a5,5,0,0,1,6.6,6.6L396.5,186.49A5,5,0,0,1,391.93,189.45ZM287.47,163.18l101.45,15.75,44.21-99L408.26,91A5,5,0,0,1,402,89.08L369.33,38c0-.07-.09-.14-.13-.22-.26-.44-7.26-11.78-26.31-11.78H230.17a81.43,81.43,0,0,1,29.27,31.45l51,85.63a5,5,0,0,1-1.64,6.79ZM110.66,103l87.48,52.11L252.06,64.6l-1.32-2.22c-.08-.14-.15-.28-.22-.42-.7-1.46-17.66-36-56.78-36s-56.18,30.77-56.88,32.08l-.09.17Z"/><path class="cls-1" d="M217,451.76h0l-56.68-.26c-2.95.1-42.8.45-65.12-38.21L29.22,299.11a97,97,0,0,1-8.74-15c-.09-.18-.16-.37-.23-.55-11.6-20.61-3.69-36.23-2.7-38l25.88-50L14.36,174.44a5,5,0,0,1,2.42-9l124.63-13a5,5,0,0,1,5.18,3.17l43.33,111.82a5,5,0,0,1-7,6.22l-29.7-15.78-38.82,70.27L218.58,330a5,5,0,0,1,4.92,5.07L222,446.83A5,5,0,0,1,217,451.76ZM160.2,441.5h0l51.81.23,1.4-101.83L106,338a97.27,97.27,0,0,1-32.84-5.92,95,95,0,0,1-18.59-9l49.2,85.22c19.72,34.15,55.85,33.23,56.21,33.22ZM37.79,294c9.53,13.2,22.39,22.78,38.41,28.59A92.66,92.66,0,0,0,103.07,328l43.77-79.23a5,5,0,0,1,6.72-2l22.18,11.78-37.09-95.73L30.78,174l22,16a5,5,0,0,1,1.5,6.34L26.4,250.22a1.59,1.59,0,0,1-.13.22c-.25.45-6.57,12.18,2.95,28.68Z"/><path class="cls-1" d="M319.76,497a5,5,0,0,1-4.05-2.07L242.16,393.49a5,5,0,0,1,.15-6.07L317.49,294a5,5,0,0,1,8.89,3l1.18,33.63,81-1.07-51.23-91.6a5,5,0,0,1,1.92-6.81l97.56-54.56a5,5,0,0,1,6.78,1.89l28.12,49.21c1.55,2.51,21.79,36.84-.53,75.51-.55,1-1.11,1.88-1.69,2.78a4.71,4.71,0,0,1-.35.76L416.61,432.32c-12.05,20.88-29.82,21.84-31.89,21.88l-56.21,2.58-3.78,35.75a5,5,0,0,1-3.68,4.3A4.77,4.77,0,0,1,319.76,497ZM252.5,390.71l63.66,87.8L319,451.45a5,5,0,0,1,4.74-4.47l60.58-2.77h.26c.51,0,13.83-.4,23.35-16.89l56.37-97.63a81.49,81.49,0,0,1-41.88,9.63l-99.64,1.33h-.06a5,5,0,0,1-5-4.83l-.88-25.1Zm170.09-61.39.41,0c1.61.12,40,2.68,59.53-31.19,19.72-34.16.85-65,.66-65.3l-.1-.17-25.71-45-88.87,49.7,51.43,92,2.59,0Z"/></svg>