<?xml version="1.0" ?><svg id="Lines" viewBox="0 0 512 512" xmlns="http://www.w3.org/2000/svg"><defs><style>.cls-1{fill:#3f456b;}</style></defs><title/><path class="cls-1" d="M350,103H162a15,15,0,0,1-15-15V25a15,15,0,0,1,15-15H350a15,15,0,0,1,15,15V88A15,15,0,0,1,350,103ZM162,20a5,5,0,0,0-5,5V88a5,5,0,0,0,5,5H350a5,5,0,0,0,5-5V25a5,5,0,0,0-5-5Z"/><path class="cls-1" d="M72,195a21.9,21.9,0,1,1,21.9-21.89A21.92,21.92,0,0,1,72,195Zm0-33.79a11.9,11.9,0,1,0,11.9,11.9A11.91,11.91,0,0,0,72,161.23Z"/><path class="cls-1" d="M72,218.5a45.32,45.32,0,1,1,45.32-45.32A45.37,45.37,0,0,1,72,218.5Zm0-80.63a35.32,35.32,0,1,0,35.32,35.31A35.36,35.36,0,0,0,72,137.87Z"/><path class="cls-1" d="M72,121.5A29.5,29.5,0,1,1,101.5,92,29.53,29.53,0,0,1,72,121.5Zm0-49A19.5,19.5,0,1,0,91.5,92,19.53,19.53,0,0,0,72,72.5Z"/><path class="cls-1" d="M72,291a21.9,21.9,0,1,1,21.9-21.89A21.92,21.92,0,0,1,72,291Zm0-33.79a11.9,11.9,0,1,0,11.9,11.9A11.91,11.91,0,0,0,72,257.23Z"/><path class="cls-1" d="M72,314.5a45.32,45.32,0,1,1,45.32-45.32A45.37,45.37,0,0,1,72,314.5Zm0-80.63a35.32,35.32,0,1,0,35.32,35.31A35.36,35.36,0,0,0,72,233.87Z"/><path class="cls-1" d="M72,388a21.9,21.9,0,1,1,21.9-21.89A21.92,21.92,0,0,1,72,388Zm0-33.79a11.9,11.9,0,1,0,11.9,11.9A11.91,11.91,0,0,0,72,354.23Z"/><path class="cls-1" d="M72,411.5a45.32,45.32,0,1,1,45.32-45.32A45.37,45.37,0,0,1,72,411.5Zm0-80.63a35.32,35.32,0,1,0,35.32,35.31A35.36,35.36,0,0,0,72,330.87Z"/><path class="cls-1" d="M118,502H26a15,15,0,0,1-15-15V25A15,15,0,0,1,26,10h92a15,15,0,0,1,15,15V487A15,15,0,0,1,118,502ZM26,20a5,5,0,0,0-5,5V487a5,5,0,0,0,5,5h92a5,5,0,0,0,5-5V25a5,5,0,0,0-5-5Z"/><path class="cls-1" d="M203,85.5A29.5,29.5,0,1,1,232.5,56,29.53,29.53,0,0,1,203,85.5Zm0-49A19.5,19.5,0,1,0,222.5,56,19.53,19.53,0,0,0,203,36.5Z"/><path class="cls-1" d="M308,85.5A29.5,29.5,0,1,1,337.5,56,29.53,29.53,0,0,1,308,85.5Zm0-49A19.5,19.5,0,1,0,327.5,56,19.53,19.53,0,0,0,308,36.5Z"/><path class="cls-1" d="M440,195a21.9,21.9,0,1,1,21.9-21.89A21.92,21.92,0,0,1,440,195Zm0-33.79a11.9,11.9,0,1,0,11.9,11.9A11.91,11.91,0,0,0,440,161.23Z"/><path class="cls-1" d="M440,218.5a45.32,45.32,0,1,1,45.32-45.32A45.37,45.37,0,0,1,440,218.5Zm0-80.63a35.32,35.32,0,1,0,35.32,35.31A35.36,35.36,0,0,0,440,137.87Z"/><path class="cls-1" d="M440,121.5A29.5,29.5,0,1,1,469.5,92,29.53,29.53,0,0,1,440,121.5Zm0-49A19.5,19.5,0,1,0,459.5,92,19.53,19.53,0,0,0,440,72.5Z"/><path class="cls-1" d="M440,291a21.9,21.9,0,1,1,21.9-21.89A21.92,21.92,0,0,1,440,291Zm0-33.79a11.9,11.9,0,1,0,11.9,11.9A11.91,11.91,0,0,0,440,257.23Z"/><path class="cls-1" d="M440,314.5a45.32,45.32,0,1,1,45.32-45.32A45.37,45.37,0,0,1,440,314.5Zm0-80.63a35.32,35.32,0,1,0,35.32,35.31A35.36,35.36,0,0,0,440,233.87Z"/><path class="cls-1" d="M440,388a21.9,21.9,0,1,1,21.9-21.89A21.92,21.92,0,0,1,440,388Zm0-33.79a11.9,11.9,0,1,0,11.9,11.9A11.91,11.91,0,0,0,440,354.23Z"/><path class="cls-1" d="M440,411.5a45.32,45.32,0,1,1,45.32-45.32A45.37,45.37,0,0,1,440,411.5Zm0-80.63a35.32,35.32,0,1,0,35.32,35.31A35.36,35.36,0,0,0,440,330.87Z"/><path class="cls-1" d="M486,502H394a15,15,0,0,1-15-15V25a15,15,0,0,1,15-15h92a15,15,0,0,1,15,15V487A15,15,0,0,1,486,502ZM394,20a5,5,0,0,0-5,5V487a5,5,0,0,0,5,5h92a5,5,0,0,0,5-5V25a5,5,0,0,0-5-5Z"/><path class="cls-1" d="M350,333H162a15,15,0,0,1-15-15V130a15,15,0,0,1,15-15H350a15,15,0,0,1,15,15V318A15,15,0,0,1,350,333ZM162,125a5,5,0,0,0-5,5V318a5,5,0,0,0,5,5H350a5,5,0,0,0,5-5V130a5,5,0,0,0-5-5Z"/><path class="cls-1" d="M256,261a37.37,37.37,0,1,1,37.37-37.37A37.41,37.41,0,0,1,256,261Zm0-64.74a27.37,27.37,0,1,0,27.37,27.37A27.4,27.4,0,0,0,256,196.21Z"/><path class="cls-1" d="M256,305.25a81.4,81.4,0,1,1,81.4-81.4A81.49,81.49,0,0,1,256,305.25Zm0-152.8a71.4,71.4,0,1,0,71.4,71.4A71.48,71.48,0,0,0,256,152.45Z"/><path class="cls-1" d="M231,501H162a15,15,0,0,1-15-15V363a15,15,0,0,1,15-15h69a15,15,0,0,1,15,15V486A15,15,0,0,1,231,501ZM162,358a5,5,0,0,0-5,5V486a5,5,0,0,0,5,5h69a5,5,0,0,0,5-5V363a5,5,0,0,0-5-5Z"/><path class="cls-1" d="M197,472.5A29.5,29.5,0,1,1,226.5,443,29.53,29.53,0,0,1,197,472.5Zm0-49A19.5,19.5,0,1,0,216.5,443,19.53,19.53,0,0,0,197,423.5Z"/><path class="cls-1" d="M348,501H279a15,15,0,0,1-15-15V363a15,15,0,0,1,15-15h69a15,15,0,0,1,15,15V486A15,15,0,0,1,348,501ZM279,358a5,5,0,0,0-5,5V486a5,5,0,0,0,5,5h69a5,5,0,0,0,5-5V363a5,5,0,0,0-5-5Z"/><path class="cls-1" d="M314,472.5A29.5,29.5,0,1,1,343.5,443,29.53,29.53,0,0,1,314,472.5Zm0-49A19.5,19.5,0,1,0,333.5,443,19.53,19.53,0,0,0,314,423.5Z"/><path class="cls-1" d="M72,47H71a5,5,0,0,1,0-10h1a5,5,0,0,1,0,10Z"/><path class="cls-1" d="M72,478H71a5,5,0,0,1,0-10h1a5,5,0,0,1,0,10Z"/><path class="cls-1" d="M440,47h-1a5,5,0,0,1,0-10h1a5,5,0,0,1,0,10Z"/><path class="cls-1" d="M72,97H71a5,5,0,0,1,0-10h1a5,5,0,0,1,0,10Z"/><path class="cls-1" d="M440,97h-1a5,5,0,0,1,0-10h1a5,5,0,0,1,0,10Z"/><path class="cls-1" d="M256,62h-1a5,5,0,0,1,0-10h1a5,5,0,0,1,0,10Z"/><path class="cls-1" d="M309,62h-1a5,5,0,0,1,0-10h1a5,5,0,0,1,0,10Z"/><path class="cls-1" d="M203,62h-1a5,5,0,0,1,0-10h1a5,5,0,0,1,0,10Z"/><path class="cls-1" d="M314,448h-1.09a5,5,0,0,1,0-10H314a5,5,0,0,1,0,10Z"/><path class="cls-1" d="M198.09,448H197a5,5,0,0,1,0-10h1.09a5,5,0,1,1,0,10Z"/><path class="cls-1" d="M198,395h-1a5,5,0,0,1,0-10h1a5,5,0,0,1,0,10Z"/><path class="cls-1" d="M314,395h-1a5,5,0,0,1,0-10h1a5,5,0,0,1,0,10Z"/><path class="cls-1" d="M440,478h-1a5,5,0,0,1,0-10h1a5,5,0,0,1,0,10Z"/></svg>