<?xml version="1.0" ?><svg viewBox="0 0 512 512" xmlns="http://www.w3.org/2000/svg"><defs><style>.cls-1{fill:#3f456b;}</style></defs><title/><g id="Lines"><path class="cls-1" d="M95.28,141.24A4.91,4.91,0,0,1,93.6,141a5,5,0,0,1-3-6.39c5.7-15.92,15.89-24.14,16.32-24.48a5,5,0,0,1,6.23,7.83,48.66,48.66,0,0,0-13.13,20A5,5,0,0,1,95.28,141.24Z"/><path class="cls-1" d="M238.34,468.35c-1.7,0-2.91-.07-3.32-.1-48.18-4-73.83-26-86.87-43.8-13.68-18.62-16.65-36.29-17-38.28-5.38-27.46-5.73-56.78-1.06-89.63.21-1.51.42-3,.62-4.58,1.54-11.54,3.29-24.61,10.41-35.82,7.62-12,20.17-19.47,33.58-20.07a5,5,0,0,1,.44,10c-15,.67-23.38,12-25.58,15.45-5.94,9.35-7.46,20.75-8.94,31.77-.2,1.57-.41,3.13-.63,4.66-4.51,31.78-4.19,60.05,1,86.42,0,.1,0,.19.05.28s2.53,16.94,15.41,34.28c17.2,23.17,43.89,36.41,79.31,39.36,5,.35,13.5-.36,16.41-3.07a2.33,2.33,0,0,0,.83-1.9,5,5,0,1,1,10,0,12.3,12.3,0,0,1-4,9.23C253.54,467.62,243.59,468.35,238.34,468.35Z"/><path class="cls-1" d="M339,246.06H175c-10.36,0-18.13-3.25-23.1-9.67-8.43-10.9-5.08-26.94-4.48-29.48,3.83-27.58,20.79-49.68,49.06-63.91a140.37,140.37,0,0,1,41.45-13.18c1.75-.28,3.46-.44,5.12-.59,1.3-.13,2.52-.24,3.71-.4a2.58,2.58,0,0,1,.4,0,141.31,141.31,0,0,1,18.85.05c5.61.37,9.45.9,10,1A139.82,139.82,0,0,1,317.47,143c28.27,14.23,45.23,36.33,49.06,63.91.6,2.54,4,18.58-4.48,29.48C357.09,242.81,349.32,246.06,339,246.06Zm-91-107.3c-1.35.18-2.68.3-4,.42-1.59.15-3.09.29-4.52.53l-.2,0a132.4,132.4,0,0,0-38.53,12.33C175.21,165,160.6,184,157.26,208.52a4.08,4.08,0,0,1-.11.59c0,.12-3.34,13.48,2.65,21.19,3,3.82,8.08,5.76,15.17,5.76H339c7.1,0,12.21-1.94,15.18-5.78,5.92-7.66,2.67-21,2.63-21.17a4.08,4.08,0,0,1-.11-.59c-3.33-24.55-18-43.55-43.44-56.46a132.4,132.4,0,0,0-38.53-12.33h-.11s-3.78-.55-9.3-.9h-.13A130.28,130.28,0,0,0,247.91,138.76Zm-9.29-4h0Z"/><path class="cls-1" d="M275.88,468.35c-4.72,0-13.52-.7-18.69-5.47a12.7,12.7,0,0,1-4.15-9.57L252,241.09a5,5,0,0,1,5-5h0a5,5,0,0,1,5,5L263,453.29a2.74,2.74,0,0,0,.93,2.24c2.9,2.68,10.94,3,14.17,2.75,35.41-2.95,62.09-16.19,79.29-39.36,12.88-17.34,15.39-34.12,15.41-34.29s0-.18.05-.27c5.18-26.37,5.51-54.64,1-86.42-.21-1.53-.42-3.09-.63-4.66-1.47-11-3-22.42-8.94-31.77-2.2-3.46-10.54-14.78-25.58-15.45a5,5,0,0,1,.45-10c13.4.6,25.95,8.1,33.57,20.07,7.13,11.21,8.87,24.28,10.41,35.82.21,1.54.41,3.07.62,4.58,4.67,32.85,4.32,62.17-1.06,89.63-.29,2-3.27,19.66-16.94,38.28-13,17.77-38.69,39.78-86.83,43.79C278.58,468.27,277.45,468.35,275.88,468.35Z"/><path class="cls-1" d="M408.56,459.92a17.76,17.76,0,0,1-13.06-5.24c-5.28-5.43-7-14.33-5.05-26.43l.79-4.94c2.33-14.5,3.9-24.24,2.44-30.19a24.42,24.42,0,0,1-3,.31c-6.15.23-11.23-1.94-14.71-6.31a5,5,0,0,1,7.83-6.22c3.55,4.46,10.68,1.79,11,1.67a5,5,0,0,1,6,2c5.43,8.54,3.62,19.84.31,40.36l-.79,4.92c-1.36,8.57-.52,14.93,2.36,17.9,2.3,2.37,5.74,2.33,7.59,2.09,2.46-.32,7.57-1,7.57-13.27,0-9.9-3.26-33.8-3.51-35.65-6.45-34.42-32.35-37.61-32.61-37.64a5,5,0,1,1,1.07-9.94,43.89,43.89,0,0,1,18.08,7.26c8.42,5.67,19.29,17,23.31,38.61,0,.07,0,.15,0,.22.14,1.07,3.62,26.2,3.62,37.14,0,17.43-8.86,22.23-16.3,23.19A23.39,23.39,0,0,1,408.56,459.92Z"/><path class="cls-1" d="M468.21,493a5.33,5.33,0,0,1-1-.11C420,482.86,407,458.08,406.45,457a5,5,0,0,1,8.9-4.54c.1.18,3,5.52,10.91,11.86,7.44,6,20.94,14.08,43,18.77a5,5,0,0,1-1,9.89Z"/><path class="cls-1" d="M426.71,475.93a5,5,0,0,1-3.71-8.36l6.88-7.59a5,5,0,0,1,7.41,6.72l-6.88,7.59A5,5,0,0,1,426.71,475.93Z"/><path class="cls-1" d="M445.89,486.28a5,5,0,0,1-4.29-7.57l5.61-9.36a5,5,0,1,1,8.58,5.14l-5.61,9.35A5,5,0,0,1,445.89,486.28Z"/><path class="cls-1" d="M434.78,326.48l-.71,0c-4.39-.19-10.65-2.33-15.6-11.4-1.89-3.46-8.8-15.51-18.39-25.1-6-6-14.92-12.78-23-10.63a5,5,0,0,1-2.58-9.66c10.18-2.72,21.17,1.73,32.65,13.22,10.54,10.54,18.05,23.62,20.1,27.38,1.5,2.75,4,6.06,7.26,6.2,2.8.14,6.17-2,8.36-5.3.67-1,.56-1.52.5-1.79-.72-3.18-7.72-7.38-10.36-9-7.11-4.27-21.6-18.78-28.38-29.63-4.61-7.36-15.56-6.58-15.67-6.58a5,5,0,0,1-5.12-3.18c-1.18-3.09-2.94-5.07-5.37-6-4.74-1.91-11.35.25-13.29,1.15a5,5,0,1,1-4.23-9.06c1.17-.55,11.7-5.22,21.26-1.36a18.84,18.84,0,0,1,9.46,8.52c5.45.27,15.7,2.08,21.44,11.26,6.14,9.82,19.75,23.17,25.05,26.35,6.44,3.87,13.44,8.56,15,15.34a12.05,12.05,0,0,1-1.93,9.53C448,321.49,442.07,326.48,434.78,326.48Z"/><path class="cls-1" d="M359.19,202.42a5,5,0,0,1,0-10c7.56,0,10-2.46,10.26-4-.19-2.32,1.3-4,3.55-4.67,25.61-7.8,34.25-34.17,37.08-42.83l.35-1c2.49-7.47,3.54-16.33,0-18.11-1.53-.77-2.11-.52-2.32-.42-1.45.63-4.48,3.78-8.45,17.67-2,6.88-9.33,29.74-21.53,35.11a12.51,12.51,0,0,1-11-.2c-7-3.5-13.35,1.67-13.62,1.89a5,5,0,0,1-6.48-7.62c.47-.4,11.57-9.72,24.57-3.22a2.58,2.58,0,0,0,2.46,0c5.22-2.29,11.77-14.1,15.95-28.71s8.22-21.52,14-24.08c2.32-1,6.09-1.74,10.82.63,8.24,4.12,10.08,15.14,5.05,30.23l-.32,1c-3.14,9.58-12.49,38.14-40.91,48.36C376.86,197.05,371.51,202.42,359.19,202.42Z"/><path class="cls-1" d="M453.16,129.1c-24.76,0-42.68-8.09-43.7-8.56a5,5,0,1,1,4.18-9.08c.43.19,32,14.28,67.72,3.57a5,5,0,1,1,2.88,9.58A108.21,108.21,0,0,1,453.16,129.1Z"/><path class="cls-1" d="M496.66,341.84a5.21,5.21,0,0,1-1-.1c-31.53-6.57-50-23.42-50.73-24.13a5,5,0,0,1,6.8-7.34h0c.17.16,17.3,15.7,46,21.68a5,5,0,0,1-1,9.89Z"/><path class="cls-1" d="M458.25,338.54a5,5,0,0,1-4.5-7.17l4.59-9.56a5,5,0,0,1,9,4.33l-4.6,9.57A5,5,0,0,1,458.25,338.54Z"/><path class="cls-1" d="M478.69,349.9a5,5,0,0,1-4.78-6.46l3.46-11.28a5,5,0,1,1,9.56,2.93l-3.46,11.28A5,5,0,0,1,478.69,349.9Z"/><path class="cls-1" d="M448.92,140.3a5.15,5.15,0,0,1-1.22-.15,5,5,0,0,1-3.64-6.07c.63-2.5.21-7.3-.09-9.24a5,5,0,1,1,9.88-1.53c.13.81,1.19,8.08-.09,13.2A5,5,0,0,1,448.92,140.3Z"/><path class="cls-1" d="M473.57,138.15a5,5,0,0,1-5-5,43,43,0,0,0-1.28-9.48,5,5,0,0,1,9.67-2.58,53.61,53.61,0,0,1,1.61,12.06A5,5,0,0,1,473.57,138.15Z"/><path class="cls-1" d="M105,459.92a23.39,23.39,0,0,1-3-.19c-7.44-1-16.3-5.76-16.3-23.19,0-10.94,3.48-36.07,3.62-37.14a1.7,1.7,0,0,0,0-.22c4-21.64,14.9-32.94,23.31-38.61a43.89,43.89,0,0,1,18.08-7.26,5,5,0,0,1,1.09,9.94c-1.14.14-26.25,3.58-32.63,37.64-.25,1.85-3.51,25.75-3.51,35.65,0,12.29,5.11,12.95,7.57,13.27,1.85.23,5.29.28,7.59-2.09,2.88-3,3.72-9.33,2.36-17.9l-.79-4.92c-3.3-20.52-5.12-31.82.31-40.36a5,5,0,0,1,6.07-2c.27.11,7.4,2.78,11-1.68a5,5,0,0,1,7.83,6.22c-3.48,4.37-8.58,6.54-14.71,6.31a24.42,24.42,0,0,1-3-.31c-1.46,5.95.11,15.69,2.44,30.19l.79,4.94c1.93,12.1.23,21-5,26.43A17.75,17.75,0,0,1,105,459.92Z"/><path class="cls-1" d="M45.32,493a5,5,0,0,1-1-9.89c22-4.69,35.55-12.8,43-18.77,8-6.42,10.88-11.81,10.91-11.87a5,5,0,0,1,8.9,4.55c-.53,1.06-13.56,25.84-60.72,35.87A5.33,5.33,0,0,1,45.32,493Z"/><path class="cls-1" d="M86.82,475.93a5,5,0,0,1-3.7-1.64l-6.88-7.59a5,5,0,0,1,7.4-6.72l6.89,7.59a5,5,0,0,1-3.71,8.36Z"/><path class="cls-1" d="M67.64,486.28a5,5,0,0,1-4.29-2.44l-5.61-9.35a5,5,0,1,1,8.58-5.14l5.61,9.36a5,5,0,0,1-1.72,6.85A4.93,4.93,0,0,1,67.64,486.28Z"/><path class="cls-1" d="M78.75,326.48c-7.29,0-13.23-5-16.41-9.77a12.05,12.05,0,0,1-1.93-9.53c1.52-6.78,8.52-11.47,15-15.34,5.3-3.18,18.91-16.53,25-26.35,5.74-9.18,16-11,21.44-11.26a18.88,18.88,0,0,1,9.46-8.52c9.56-3.86,20.09.81,21.26,1.36a5,5,0,0,1-4.22,9.07c-2.11-1-8.63-3.06-13.33-1.15-2.41,1-4.16,3-5.34,6a5,5,0,0,1-5.12,3.18c-.09,0-11-.81-15.67,6.58-6.78,10.85-21.27,25.36-28.38,29.63-2.64,1.58-9.64,5.78-10.36,9-.06.27-.17.78.5,1.79,2.19,3.29,5.58,5.43,8.36,5.3,3.29-.14,5.76-3.45,7.26-6.2,2-3.76,9.56-16.84,20.1-27.38C117.86,271.41,128.86,267,139,269.67a5,5,0,1,1-2.58,9.66c-8.07-2.15-17,4.6-23,10.63-9.59,9.59-16.5,21.64-18.39,25.1-5,9.07-11.21,11.21-15.6,11.4Z"/><path class="cls-1" d="M154.34,202.42c-12.32,0-17.67-5.37-19.49-10C106.43,182.16,97.08,153.6,93.94,144l-.32-1c-5-15.09-3.19-26.11,5-30.23,4.74-2.37,8.5-1.65,10.82-.63,5.81,2.56,9.88,9.54,14,24.08s10.73,26.42,16,28.71a2.56,2.56,0,0,0,2.45,0c13-6.5,24.11,2.82,24.58,3.22A5,5,0,0,1,160,175.8c-.33-.27-6.66-5.38-13.62-1.89a12.51,12.51,0,0,1-11,.2c-12.2-5.37-19.56-28.23-21.53-35.11-4-13.89-7-17-8.45-17.67-.22-.1-.79-.35-2.32.41-3.58,1.79-2.53,10.65,0,18.12l.35,1c2.84,8.66,11.47,35,37.08,42.83,2.25.68,3.74,2.35,3.55,4.67.28,1.55,2.7,4,10.26,4a5,5,0,0,1,0,10Z"/><path class="cls-1" d="M60.37,129.1a108.21,108.21,0,0,1-31.08-4.49A5,5,0,0,1,32.17,115c35.78,10.73,67.4-3.43,67.72-3.57a5,5,0,0,1,4.18,9.08C103.05,121,85.13,129.1,60.37,129.1Z"/><path class="cls-1" d="M16.87,341.84a5,5,0,0,1-1-9.89c28.67-6,45.8-21.52,46-21.68a5,5,0,0,1,6.8,7.34c-.77.71-19.2,17.56-50.73,24.13A5.21,5.21,0,0,1,16.87,341.84Z"/><path class="cls-1" d="M55.28,338.54a5,5,0,0,1-4.51-2.83l-4.6-9.57a5,5,0,0,1,9-4.33l4.59,9.56a5,5,0,0,1-4.5,7.17Z"/><path class="cls-1" d="M34.84,349.9a5,5,0,0,1-4.78-3.53L26.6,335.09a5,5,0,1,1,9.56-2.93l3.46,11.28a5,5,0,0,1-4.78,6.46Z"/><path class="cls-1" d="M64.61,140.3a5,5,0,0,1-4.84-3.79c-1.28-5.12-.22-12.39-.09-13.2a5,5,0,1,1,9.88,1.53c-.35,2.31-.69,6.86-.09,9.24a5,5,0,0,1-3.64,6.07A5.15,5.15,0,0,1,64.61,140.3Z"/><path class="cls-1" d="M40,138.15a5,5,0,0,1-5-5,53.61,53.61,0,0,1,1.61-12.06,5,5,0,0,1,9.67,2.58A42.65,42.65,0,0,0,45,133.15,5,5,0,0,1,40,138.15Z"/><path class="cls-1" d="M182,162a4.94,4.94,0,0,1-2.14-.48c-1.65-.78-40.52-19.63-45.82-59.87-3.35-25.5,1.81-46.77,15.35-63.21C165.28,19.14,189.59,11.1,207,10a5,5,0,0,1,3.34,9c-.07.05-8.28,6.48-8.37,14.15,0,4.08,2.35,8.11,7.14,12A5,5,0,0,1,205.43,54c-.14,0-15.28-1.58-24.43,6.09-4.27,3.58-6.56,8.57-7,15.27,0,.11-.47,8.08,4.5,12.43,3.6,3.16,9.5,3.94,17.53,2.34a5,5,0,0,1,5.28,7.44c-.06.11-6.9,12.08-1.55,20.72,3.76,6.07,15,12.86,46.92,10.75a5,5,0,0,1,.66,10c-29.7,1.95-48.58-3.27-56.12-15.53-4.77-7.76-3.84-16.38-2-22.56q-10.77.13-17.37-5.69c-8.68-7.7-7.84-20.07-7.8-20.59.63-9.41,4.2-16.92,10.62-22.27S188.75,45,195.1,44.24A21.26,21.26,0,0,1,192,32.94a23.84,23.84,0,0,1,3.07-11c-13.09,3.19-27.62,10.29-38,22.86C145.4,59,141,77.71,144,100.35c4.59,34.89,39.83,52,40.18,52.13A5,5,0,0,1,182,162Z"/><path class="cls-1" d="M333.07,162a5,5,0,0,1-2.15-9.52h0c.35-.17,35.61-17.37,40.19-52.13,3-22.64-1.45-41.33-13.16-55.55-10.35-12.57-24.87-19.67-38-22.86a23.83,23.83,0,0,1,3.06,11A21.09,21.09,0,0,1,320,44.24c6.35.78,14.2,2.87,20.47,8.11,6.42,5.35,10,12.86,10.62,22.32,0,.47.88,12.84-7.8,20.54-4.39,3.88-10.19,5.74-17.37,5.69,1.81,6.18,2.75,14.8-2,22.56-7.54,12.26-26.43,17.48-56.12,15.53a5,5,0,0,1,.66-10c32,2.11,43.2-4.7,46.94-10.79,5.28-8.58-1.5-20.56-1.57-20.68A5,5,0,0,1,319,90.1c8.07,1.61,14,.81,17.58-2.38,4.92-4.36,4.46-12.26,4.46-12.34-.45-6.75-2.75-11.74-7-15.32C324.91,52.39,309.77,54,309.62,54a5,5,0,0,1-3.7-8.86c4.8-3.88,7.2-7.93,7.14-12-.12-7.62-8.3-14.05-8.38-14.11A5,5,0,0,1,308,10c17.45,1.09,41.76,9.13,57.65,28.43,13.54,16.44,18.71,37.71,15.35,63.21-5.29,40.24-44.16,59.09-45.82,59.87A4.93,4.93,0,0,1,333.07,162Z"/></g><g id="Outline"><path class="cls-1" d="M287.6,436.07c-1.25,0-2.51,0-3.79-.07a5,5,0,0,1,.19-10h.19c19.49.71,35.24-4.82,46.78-16.51,25.08-25.39,23.06-71.77,23-72.24a5,5,0,0,1,10-.51,140.33,140.33,0,0,1-2.18,28.86c-3.76,21.39-12,39-23.69,50.88C325.3,429.49,308.31,436.07,287.6,436.07Z"/><path class="cls-1" d="M341,220a5,5,0,0,1-5-4.81c-.88-22.94-26.34-38.76-26.6-38.92a5,5,0,0,1,5.19-8.54c1.24.75,30.32,18.72,31.41,47.08a5,5,0,0,1-4.81,5.19Z"/></g></svg>