<?xml version="1.0" ?><svg viewBox="0 0 512 512" xmlns="http://www.w3.org/2000/svg"><defs><style>.cls-1{fill:#3f456b;}.cls-2{fill:#384169;}</style></defs><title/><g id="Lines"><path class="cls-1" d="M486.58,398.47H273.71A14.7,14.7,0,0,1,259,383.79V371.21a14.69,14.69,0,0,1,14.68-14.67H486.58a14.69,14.69,0,0,1,14.68,14.67v12.58A14.7,14.7,0,0,1,486.58,398.47ZM273.71,366.54a4.68,4.68,0,0,0-4.68,4.67v12.58a4.69,4.69,0,0,0,4.68,4.68H486.58a4.69,4.69,0,0,0,4.68-4.68V371.21a4.68,4.68,0,0,0-4.68-4.67Z"/><path class="cls-1" d="M472.07,502H289.19a14.7,14.7,0,0,1-14.68-14.68V393.47a5,5,0,0,1,10,0v93.85a4.69,4.69,0,0,0,4.68,4.68H472.07a4.68,4.68,0,0,0,4.67-4.68V393.47a5,5,0,0,1,10,0v93.85A14.69,14.69,0,0,1,472.07,502Z"/><path class="cls-1" d="M447.88,477.81a5,5,0,0,1-5-5V415.72a5,5,0,0,1,10,0v57.09A5,5,0,0,1,447.88,477.81Z"/><path class="cls-1" d="M312.41,477.81a5,5,0,0,1-5-5V415.72a5,5,0,0,1,10,0v57.09A5,5,0,0,1,312.41,477.81Z"/><path class="cls-1" d="M357.89,477.81a5,5,0,0,1-5-5V415.72a5,5,0,0,1,10,0v57.09A5,5,0,0,1,357.89,477.81Z"/><path class="cls-1" d="M402.4,477.81a5,5,0,0,1-5-5V415.72a5,5,0,0,1,10,0v57.09A5,5,0,0,1,402.4,477.81Z"/><path class="cls-1" d="M295.48,366.05a5,5,0,0,1-3-9l61.93-46.44a5,5,0,0,1,6,8l-61.93,46.44A4.94,4.94,0,0,1,295.48,366.05Z"/><path class="cls-1" d="M465.77,366.05a4.93,4.93,0,0,1-3-1l-61.93-46.44a5,5,0,1,1,6-8l61.93,46.44a5,5,0,0,1-3,9Z"/><path class="cls-1" d="M383.91,196a19.82,19.82,0,0,1-11.61-3.83c-2.92-2.05-43.63-31-74.12-72.57-14.78-20.16-18.13-41.76-9.43-60.82,8.37-18.32,26.64-30.77,47.68-32.49,27.15-2.22,41,11.91,47.26,21.66,6.25-9.75,20.1-23.88,47.26-21.66,21,1.72,39.31,14.17,47.68,32.49,8.7,19.05,5.35,40.65-9.43,60.8-30.65,41.79-71.63,70.84-74.16,72.61A18.33,18.33,0,0,1,383.91,196ZM342,36c-1.52,0-3.09.06-4.73.2-17.44,1.42-32.54,11.64-39.4,26.67-7.13,15.62-4.15,33.65,8.4,50.76,30,40.89,71.46,70.07,71.88,70.36l.24.17a8.92,8.92,0,0,0,10.74-.08l.14-.1c.41-.29,41.93-29.53,71.88-70.37,12.55-17.11,15.53-35.13,8.4-50.74-6.86-15-22-25.25-39.4-26.67-32.52-2.66-40.93,22.35-41.27,23.42a5,5,0,0,1-4.77,3.5h-.8a5,5,0,0,1-4.77-3.52C378.2,58.65,370.59,36,342,36Z"/><path class="cls-1" d="M463.06,336h0a5,5,0,0,1-5-5l.11-168.25-.14-43a5,5,0,0,1,5-5h0a5,5,0,0,1,5,5l.14,43.06L468.06,331A5,5,0,0,1,463.06,336Z"/><path class="cls-1" d="M289.08,76.48h0L152.71,76a5,5,0,0,1,0-10h0l136.34.5a5,5,0,0,1,0,10Z"/><path class="cls-2" d="M279,435.86h0l-97.78-.1a5,5,0,0,1-5-5l.23-288.41C176.46,76,159.22,76,152.73,76,139.87,76,129,86.64,129,99.26V331.78C129,350.41,114.65,365,96.32,365a33.12,33.12,0,0,1-32.94-33.22V255H16a5,5,0,0,1-5-5V43.72C11,23.85,22.53,10.5,39.69,10.5c25.85,0,33.73,17.86,33.73,76.43l0,244.85A23.11,23.11,0,0,0,96.32,355C109,355,119,344.8,119,331.78V99.26C119,80.91,134.13,66,152.73,66c23.33,0,33.73,23.55,33.73,76.37l-.23,283.41,92.77.1a5,5,0,0,1,0,10ZM21,245H63.39l0-158.07c0-62-9-66.43-23.73-66.43C25.91,20.5,21,32.49,21,43.72Z"/><path class="cls-1" d="M341.85,35a5,5,0,0,1-4.23-2.32A25.61,25.61,0,0,0,316.5,21l-276-.57a5,5,0,0,1,0-10h0l276,.57a35.35,35.35,0,0,1,29.55,16.31,5,5,0,0,1-1.54,6.91A5,5,0,0,1,341.85,35Z"/><path class="cls-2" d="M181,365H97a5,5,0,0,1,0-10h84a5,5,0,0,1,0,10Z"/></g><g id="Outline"><path class="cls-2" d="M286,367H241a5,5,0,0,1,0-10h45a5,5,0,0,1,0,10Z"/><path class="cls-2" d="M303,337H241a5,5,0,0,1,0-10h62a5,5,0,0,1,0,10Z"/><path class="cls-2" d="M340,307H241a5,5,0,0,1,0-10h99a5,5,0,0,1,0,10Z"/><path class="cls-2" d="M417,277H241a5,5,0,0,1,0-10H417a5,5,0,0,1,0,10Z"/><path class="cls-2" d="M294,247H241a5,5,0,0,1,0-10h53a5,5,0,0,1,0,10Z"/><path class="cls-2" d="M417,217H241a5,5,0,0,1,0-10H417a5,5,0,0,1,0,10Z"/><path class="cls-2" d="M323,187H241a5,5,0,0,1,0-10h82a5,5,0,0,1,0,10Z"/><path class="cls-2" d="M333,157H241a5,5,0,0,1,0-10h92a5,5,0,0,1,0,10Z"/><path class="cls-2" d="M306,127H241a5,5,0,0,1,0-10h65a5,5,0,0,1,0,10Z"/><path class="cls-2" d="M331,247H315a5,5,0,0,1,0-10h16a5,5,0,0,1,0,10Z"/><path class="cls-2" d="M216,366h-1a5,5,0,0,1,0-10h1a5,5,0,0,1,0,10Z"/><path class="cls-2" d="M216,276.38h-1a5,5,0,0,1,0-10h1a5,5,0,0,1,0,10Z"/><path class="cls-2" d="M216,186.75h-1a5,5,0,0,1,0-10h1a5,5,0,0,1,0,10Z"/><path class="cls-2" d="M216,306.25h-1a5,5,0,0,1,0-10h1a5,5,0,0,1,0,10Z"/><path class="cls-2" d="M216,216.62h-1a5,5,0,0,1,0-10h1a5,5,0,0,1,0,10Z"/><path class="cls-2" d="M216,336.12h-1a5,5,0,0,1,0-10h1a5,5,0,0,1,0,10Z"/><path class="cls-2" d="M216,246.5h-1a5,5,0,0,1,0-10h1a5,5,0,0,1,0,10Z"/><path class="cls-2" d="M216,156.88h-1a5,5,0,0,1,0-10h1a5,5,0,0,1,0,10Z"/><path class="cls-2" d="M216,127h-1a5,5,0,0,1,0-10h1a5,5,0,0,1,0,10Z"/></g></svg>