<?xml version="1.0" ?><svg viewBox="0 0 512 512" xmlns="http://www.w3.org/2000/svg"><defs><style>.cls-1{fill:#3f456b;}</style></defs><title/><g id="Lines"><path class="cls-1" d="M127.85,244A116.75,116.75,0,1,1,244.6,127.25,116.88,116.88,0,0,1,127.85,244Zm0-223.5A106.75,106.75,0,1,0,234.6,127.25,106.87,106.87,0,0,0,127.85,20.5Z"/><path class="cls-1" d="M127.85,168.42A41.17,41.17,0,1,1,169,127.25,41.22,41.22,0,0,1,127.85,168.42Zm0-72.34A31.17,31.17,0,1,0,159,127.25,31.2,31.2,0,0,0,127.85,96.08Z"/><path class="cls-1" d="M383.85,244A116.75,116.75,0,1,1,500.6,127.25,116.88,116.88,0,0,1,383.85,244Zm0-223.5A106.75,106.75,0,1,0,490.6,127.25,106.87,106.87,0,0,0,383.85,20.5Z"/><path class="cls-1" d="M383.85,168.42A41.17,41.17,0,1,1,425,127.25,41.22,41.22,0,0,1,383.85,168.42Zm0-72.34A31.17,31.17,0,1,0,415,127.25,31.2,31.2,0,0,0,383.85,96.08Z"/><path class="cls-1" d="M127.85,501A116.75,116.75,0,1,1,244.6,384.25,116.88,116.88,0,0,1,127.85,501Zm0-223.5A106.75,106.75,0,1,0,234.6,384.25,106.87,106.87,0,0,0,127.85,277.5Z"/><path class="cls-1" d="M127.85,425.42A41.17,41.17,0,1,1,169,384.25,41.22,41.22,0,0,1,127.85,425.42Zm0-72.34A31.17,31.17,0,1,0,159,384.25,31.2,31.2,0,0,0,127.85,353.08Z"/><path class="cls-1" d="M383.85,501A116.75,116.75,0,1,1,500.6,384.25,116.88,116.88,0,0,1,383.85,501Zm0-223.5A106.75,106.75,0,1,0,490.6,384.25,106.87,106.87,0,0,0,383.85,277.5Z"/><path class="cls-1" d="M383.85,425.42A41.17,41.17,0,1,1,425,384.25,41.22,41.22,0,0,1,383.85,425.42Zm0-72.34A31.17,31.17,0,1,0,415,384.25,31.2,31.2,0,0,0,383.85,353.08Z"/><path class="cls-1" d="M384,470a86,86,0,1,1,86-86A86.1,86.1,0,0,1,384,470Zm0-162a76,76,0,1,0,76,76A76.08,76.08,0,0,0,384,308Z"/><path class="cls-1" d="M138.41,476.73a15.23,15.23,0,0,1-5-.85,14.91,14.91,0,0,1-8.57-7.64h0l-2.17-4.5a15,15,0,0,1,7-20l14.41-6.95a15,15,0,0,1,20,7l2.17,4.5a15,15,0,0,1-7,20l-14.41,6.95A15,15,0,0,1,138.41,476.73Zm-4.53-12.83a5,5,0,0,0,6.67,2.33l14.41-7a5,5,0,0,0,2.34-6.67l-2.18-4.51a5,5,0,0,0-6.67-2.33l-14.41,7a5,5,0,0,0-2.34,6.67Z"/><path class="cls-1" d="M72.84,457.53a14.92,14.92,0,0,1-10.27-4.06h0L58.92,450a15,15,0,0,1-.65-21.2l11-11.66a15,15,0,0,1,21.2-.65L94.08,420a15,15,0,0,1,.65,21.2l-11,11.66A15,15,0,0,1,72.84,457.53Zm-3.42-11.35a5,5,0,0,0,7.06-.21l11-11.66a5,5,0,0,0-.21-7.07l-3.65-3.42a5,5,0,0,0-7.06.21l-11,11.66a5,5,0,0,0,.21,7.07Z"/><path class="cls-1" d="M68.84,358.53a14.92,14.92,0,0,1-10.27-4.06h0L54.92,351a15,15,0,0,1-.65-21.2l11-11.66a15,15,0,0,1,21.2-.65L90.08,321a15,15,0,0,1,.65,21.2l-11,11.66A15,15,0,0,1,68.84,358.53Zm-3.42-11.35a5,5,0,0,0,7.06-.21l11-11.66a5,5,0,0,0-.21-7.07l-3.65-3.42a5,5,0,0,0-7.06.21l-11,11.66a5,5,0,0,0,.21,7.07Z"/><path class="cls-1" d="M126.69,334.38a15.08,15.08,0,0,1-6.67-1.57,14.93,14.93,0,0,1-7.55-8.64L107.36,309a15,15,0,0,1,9.43-19l4.74-1.6a15,15,0,0,1,19,9.43L145.64,313a15,15,0,0,1-9.43,19h0l-4.74,1.6A15.1,15.1,0,0,1,126.69,334.38Zm7.92-7.12h0Zm-8.31-29.64a5.08,5.08,0,0,0-1.58.26l-4.74,1.6a5,5,0,0,0-3.14,6.33L122,321a5,5,0,0,0,6.33,3.14l4.74-1.6a5,5,0,0,0,3.14-6.33L131.05,301a5,5,0,0,0-2.52-2.87A5,5,0,0,0,126.3,297.62Z"/><path class="cls-1" d="M198,436.32a14.8,14.8,0,0,1-7.83-2.23l-13.62-8.4a15,15,0,0,1-4.89-20.64l2.63-4.26a15,15,0,0,1,20.64-4.88l13.62,8.4A15,15,0,0,1,213.39,425h0l-2.63,4.26A15.08,15.08,0,0,1,198,436.32ZM187,403.68a5.35,5.35,0,0,0-1.18.14,5,5,0,0,0-3.1,2.23l-2.63,4.25a5,5,0,0,0-.59,3.78,4.93,4.93,0,0,0,2.22,3.1l13.62,8.4a5,5,0,0,0,6.88-1.63l2.63-4.25h0a5,5,0,0,0,.59-3.78,4.93,4.93,0,0,0-2.22-3.1l-13.62-8.4A4.9,4.9,0,0,0,187,403.68Z"/><path class="cls-1" d="M183.61,359.11A15,15,0,0,1,170.84,352l-8.43-13.6a15,15,0,0,1,4.85-20.65l4.25-2.64A15,15,0,0,1,192.16,320l8.43,13.6a15,15,0,0,1-4.85,20.65h0l-4.25,2.64A14.9,14.9,0,0,1,183.61,359.11Zm9.5-9.13h0Zm-13.71-27.1a5,5,0,0,0-2.62.75l-4.25,2.64a5,5,0,0,0-1.62,6.88l8.43,13.6a5,5,0,0,0,6.88,1.62l4.25-2.64a5,5,0,0,0,1.62-6.88l-8.43-13.6A5,5,0,0,0,179.4,322.88Z"/><path class="cls-1" d="M58.79,410.14a15.09,15.09,0,0,1-3.18-.34L40,406.41a15,15,0,0,1-11.48-17.84l1.06-4.89A15,15,0,0,1,47.39,372.2L63,375.59a15,15,0,0,1,11.48,17.84l-1.06,4.89A15,15,0,0,1,58.79,410.14ZM44.21,381.86a5,5,0,0,0-4.88,3.94l-1.06,4.89a5,5,0,0,0,3.82,5.94L57.73,400a5,5,0,0,0,5.94-3.83l1.06-4.89h0a5,5,0,0,0-3.82-5.94L45.27,382A5.45,5.45,0,0,0,44.21,381.86Z"/></g><g id="Outline"><path class="cls-1" d="M409.38,106.62a5,5,0,0,1-3.54-8.53L459,45A5,5,0,0,1,466,52l-53.13,53.12A5,5,0,0,1,409.38,106.62Z"/><path class="cls-1" d="M305.5,210.5A5,5,0,0,1,302,202l51.71-51.7a5,5,0,1,1,7.07,7.07L309,209A5,5,0,0,1,305.5,210.5Z"/><path class="cls-1" d="M334.48,232.52a5,5,0,0,1-3.54-8.54L480.59,74.34a5,5,0,0,1,7.07,7.07L338,231.06A5,5,0,0,1,334.48,232.52Z"/><path class="cls-1" d="M376.26,243.74a5,5,0,0,1-3.53-8.54l118.7-118.7a5,5,0,1,1,7.07,7.07L379.8,242.27A5,5,0,0,1,376.26,243.74Z"/><path class="cls-1" d="M272.5,139.5A5,5,0,0,1,269,131L387.71,12.21a5,5,0,0,1,7.08,7.08L276,138A5,5,0,0,1,272.5,139.5Z"/><path class="cls-1" d="M283.52,181.48A5,5,0,0,1,280,173L429.55,23.37a5,5,0,1,1,7.08,7.08L287.05,180A5,5,0,0,1,283.52,181.48Z"/><path class="cls-1" d="M221.17,114h-1a5,5,0,1,1,0-10h1a5,5,0,0,1,0,10Z"/><path class="cls-1" d="M221.17,148h-1a5,5,0,1,1,0-10h1a5,5,0,0,1,0,10Z"/><path class="cls-1" d="M190.25,80h-1a5,5,0,0,1,0-10h1a5,5,0,0,1,0,10Z"/><path class="cls-1" d="M190.25,114h-1a5,5,0,0,1,0-10h1a5,5,0,0,1,0,10Z"/><path class="cls-1" d="M190.25,148h-1a5,5,0,0,1,0-10h1a5,5,0,0,1,0,10Z"/><path class="cls-1" d="M190.25,182h-1a5,5,0,0,1,0-10h1a5,5,0,0,1,0,10Z"/><path class="cls-1" d="M159.33,46h-1a5,5,0,0,1,0-10h1a5,5,0,0,1,0,10Z"/><path class="cls-1" d="M159.33,80h-1a5,5,0,0,1,0-10h1a5,5,0,0,1,0,10Z"/><path class="cls-1" d="M159.33,182h-1a5,5,0,0,1,0-10h1a5,5,0,1,1,0,10Z"/><path class="cls-1" d="M159.33,216h-1a5,5,0,0,1,0-10h1a5,5,0,1,1,0,10Z"/><path class="cls-1" d="M128.42,46h-1a5,5,0,0,1,0-10h1a5,5,0,0,1,0,10Z"/><path class="cls-1" d="M128.42,80h-1a5,5,0,0,1,0-10h1a5,5,0,0,1,0,10Z"/><path class="cls-1" d="M128.42,182h-1a5,5,0,0,1,0-10h1a5,5,0,0,1,0,10Z"/><path class="cls-1" d="M128.42,216h-1a5,5,0,0,1,0-10h1a5,5,0,0,1,0,10Z"/><path class="cls-1" d="M97.5,46h-1a5,5,0,0,1,0-10h1a5,5,0,0,1,0,10Z"/><path class="cls-1" d="M97.5,80h-1a5,5,0,0,1,0-10h1a5,5,0,0,1,0,10Z"/><path class="cls-1" d="M97.5,182h-1a5,5,0,0,1,0-10h1a5,5,0,0,1,0,10Z"/><path class="cls-1" d="M97.5,216h-1a5,5,0,0,1,0-10h1a5,5,0,0,1,0,10Z"/><path class="cls-1" d="M66.58,80h-1a5,5,0,1,1,0-10h1a5,5,0,0,1,0,10Z"/><path class="cls-1" d="M66.58,114h-1a5,5,0,1,1,0-10h1a5,5,0,0,1,0,10Z"/><path class="cls-1" d="M66.58,148h-1a5,5,0,1,1,0-10h1a5,5,0,0,1,0,10Z"/><path class="cls-1" d="M66.58,182h-1a5,5,0,1,1,0-10h1a5,5,0,0,1,0,10Z"/><path class="cls-1" d="M35.67,114h-1a5,5,0,0,1,0-10h1a5,5,0,1,1,0,10Z"/><path class="cls-1" d="M35.67,148h-1a5,5,0,0,1,0-10h1a5,5,0,1,1,0,10Z"/></g></svg>