<?xml version="1.0" ?><svg viewBox="0 0 512 512" xmlns="http://www.w3.org/2000/svg"><defs><style>.cls-1{fill:#3f456b;}</style></defs><title/><g id="Lines"><path class="cls-1" d="M128,292H16a5,5,0,0,1-5-5V15a5,5,0,0,1,5-5H353a5,5,0,0,1,5,5V82.68a5,5,0,0,1-10,0V20H21V282H128a5,5,0,0,1,0,10Z"/><path class="cls-1" d="M227,499.05l-.59,0a240.21,240.21,0,0,1-79.67-23.52,5,5,0,1,1,4.46-8.95,230.21,230.21,0,0,0,76.37,22.53,5,5,0,0,1-.57,10Z"/><path class="cls-1" d="M49,378.39a5,5,0,0,1-3.2-8.84L133,296.78a5,5,0,0,1,6.41,7.68L52.2,377.22A4.92,4.92,0,0,1,49,378.39Z"/><path class="cls-1" d="M419.42,347.72a5,5,0,0,1-3.25-1.2l-46.51-39.71a5,5,0,0,1,6.49-7.61l46.52,39.72a5,5,0,0,1-3.25,8.8Z"/><path class="cls-1" d="M254.6,370.94a145,145,0,0,1-145-145.22V182.47c0-80.07,65.06-145.22,145-145.22s145,65.15,145,145.22l.09,43.24h0A145.1,145.1,0,0,1,254.6,370.94Zm0-323.69c-74.47,0-135,60.66-135,135.22v43.25a135.08,135.08,0,1,0,270.16,0l-.09-43.25C389.63,107.91,329.05,47.25,254.6,47.25Z"/><path class="cls-1" d="M115.6,248.3h-.32c-18.49-1.16-33-16.29-33-34.45a34.63,34.63,0,0,1,29.27-34,5,5,0,0,1,1.65,9.86,24.66,24.66,0,0,0-20.92,24.16c0,12.89,10.37,23.64,23.59,24.47a5,5,0,0,1-.3,10Z"/><path class="cls-1" d="M394.31,248.3a5,5,0,0,1-.31-10c13.23-.83,23.59-11.58,23.59-24.47a24.65,24.65,0,0,0-20.91-24.16,5,5,0,1,1,1.65-9.86,34.62,34.62,0,0,1,29.26,34c0,18.16-14.48,33.29-33,34.45Z"/><path class="cls-1" d="M224,421a4.88,4.88,0,0,1-1.4-.2c-31.7-9.24-56.13-30.89-70.65-62.6a143,143,0,0,1-12.44-45.44,5,5,0,0,1,10-.67,135.35,135.35,0,0,0,11.69,42.25c12.76,27.67,32.79,46.28,59.59,55.4l14.47-44.61a5,5,0,1,1,9.52,3.08l-16,49.33A5,5,0,0,1,224,421Z"/><path class="cls-1" d="M286.5,421a5,5,0,0,1-4.76-3.46l-16-49.33a5,5,0,1,1,9.52-3.08l14.47,44.61c26.8-9.12,46.83-27.73,59.59-55.4A135.42,135.42,0,0,0,361,312.09a5,5,0,0,1,10,.67,143,143,0,0,1-12.44,45.44C344,389.91,319.6,411.56,287.9,420.8A4.88,4.88,0,0,1,286.5,421Z"/><path class="cls-1" d="M255,474a5,5,0,0,1-5-5V366a5,5,0,0,1,10,0V469A5,5,0,0,1,255,474Z"/><path class="cls-1" d="M277,442a5,5,0,0,1-5-5v-1a5,5,0,0,1,10,0v1A5,5,0,0,1,277,442Z"/><path class="cls-1" d="M388,473.54a5,5,0,0,1-2.31-.56,64.15,64.15,0,0,1-34.13-48.56,63.4,63.4,0,0,1,13.11-47.55A65.2,65.2,0,0,1,408,352.3c2-.26,4-.43,6-.5a5,5,0,1,1,.39,10c-1.69.06-3.41.21-5.11.43A55.22,55.22,0,0,0,372.58,383a53.44,53.44,0,0,0-11.06,40.11,54.17,54.17,0,0,0,28.83,41,5,5,0,0,1-2.31,9.43Z"/><path class="cls-1" d="M444.52,473.29a5,5,0,0,1-2.34-9.42A54.62,54.62,0,0,0,470.93,409,53.92,53.92,0,0,0,440.19,367a5,5,0,1,1,4.27-9,63.89,63.89,0,0,1,36.39,49.67,64.68,64.68,0,0,1-34,65A5.06,5.06,0,0,1,444.52,473.29Z"/><path class="cls-1" d="M383.4,444.81a5,5,0,0,1-4-2,44.26,44.26,0,0,1-8.73-21.28c-2.85-22.59,12-43.78,34.57-49.31a5,5,0,0,1,2.38,9.71c-17.62,4.32-29.24,20.8-27,38.35a34.13,34.13,0,0,0,6.76,16.45,5,5,0,0,1-.94,7A4.91,4.91,0,0,1,383.4,444.81Z"/><path class="cls-1" d="M415.92,460.74a46.08,46.08,0,0,1-8.54-.79,5,5,0,0,1,1.83-9.83,36.77,36.77,0,0,0,11.38.33,36.13,36.13,0,0,0,23.93-13.37,34.23,34.23,0,0,0,7.3-25.75A34.69,34.69,0,0,0,433,384.85a5,5,0,0,1,4.54-8.91,44.67,44.67,0,0,1,24.2,34.14,44.08,44.08,0,0,1-9.4,33.23,46.07,46.07,0,0,1-30.5,17.06A47,47,0,0,1,415.92,460.74Z"/><path class="cls-1" d="M487,501H234a15,15,0,0,1-15-15v-7a15,15,0,0,1,15-15H487a15,15,0,0,1,15,15v7A15,15,0,0,1,487,501ZM234,474a5,5,0,0,0-5,5v7a5,5,0,0,0,5,5H487a5,5,0,0,0,5-5v-7a5,5,0,0,0-5-5Z"/><path class="cls-1" d="M386.56,472.75a5,5,0,0,1-4.88-3.91L377,448a5,5,0,0,1,.19-2.82l46.93-128.07a15,15,0,0,1,19.27-8.88l6.57,2.43a15,15,0,0,1,8.87,19.27l-25,67.63a5,5,0,1,1-9.38-3.46l25-67.64a5,5,0,0,0-3-6.42l-6.56-2.43a5,5,0,0,0-6.43,3L387.07,447.19l2.9,12.92,13.13-7.33,6.47-18.51a5,5,0,0,1,9.44,3.3l-7.09,20.29a5,5,0,0,1-2.28,2.72L389,472.11A4.89,4.89,0,0,1,386.56,472.75Z"/><path class="cls-1" d="M422,445a4.94,4.94,0,0,1-2.14-.48c-7.84-3.71-21.62-15.11-17.73-31.67,0-.12.07-.25.11-.37,2.89-9,7.87-15.37,14.82-18.84,10.76-5.37,22.1-1.53,22.58-1.36a5,5,0,0,1-3.26,9.45c-.14-.05-8-2.6-14.93.9-4.36,2.2-7.6,6.48-9.63,12.7-1.18,5.28.38,10.05,4.77,14.56a30.11,30.11,0,0,0,7.55,5.59A5,5,0,0,1,422,445Z"/><path class="cls-1" d="M477,355H447.17a5,5,0,0,1,0-10H477a15,15,0,0,0,15-15V116a15,15,0,0,0-15-15H366a5,5,0,0,1,0-10H477a25,25,0,0,1,25,25V330A25,25,0,0,1,477,355Z"/><path class="cls-1" d="M497,292H382a5,5,0,0,1,0-10H497a5,5,0,0,1,0,10Z"/><g data-name="&lt;编组&gt;" id="_编组_"><path class="cls-1" d="M149,501H16a5,5,0,0,1-5-5V431a5,5,0,0,1,5-5H149a5,5,0,0,1,5,5v65A5,5,0,0,1,149,501ZM21,491H144V436H21Z"/><path class="cls-1" d="M16,435.5a5,5,0,0,1-5-5v-51c0-11,8-17.5,21.5-17.5,5.88,0,10.73,1.23,14.41,3.67,4.65,3.12,7.09,7.89,7.09,13.83v.5a5,5,0,0,1-10,0v-.5c0-3.32-1.4-4.69-2.63-5.51-2-1.29-5-2-8.87-2C21,372,21,377.64,21,379.5v51A5,5,0,0,1,16,435.5Z"/><path class="cls-1" d="M49,436a5,5,0,0,1-5-5V380c0-11,8-17.5,21.5-17.5,5.88,0,10.73,1.23,14.41,3.67C84.56,369.29,87,374.06,87,380a5,5,0,0,1-10,0c0-3.32-1.4-4.69-2.63-5.51-2-1.29-5-2-8.87-2C54,372.5,54,378.14,54,380v51A5,5,0,0,1,49,436Z"/><path class="cls-1" d="M82,436a5,5,0,0,1-5-5V380c0-11,8-17.5,21.5-17.5,5.88,0,10.73,1.23,14.41,3.67,4.65,3.12,7.09,7.89,7.09,13.83a5,5,0,0,1-10,0c0-3.32-1.4-4.69-2.63-5.51-2-1.29-5-2-8.87-2C87,372.5,87,378.14,87,380v51A5,5,0,0,1,82,436Z"/><path class="cls-1" d="M148,436a5,5,0,0,1-5-5V380c0-3.32-1.4-4.69-2.63-5.51-2-1.29-5-2-8.87-2-11.5,0-11.5,5.64-11.5,7.5v51a5,5,0,0,1-10,0V380c0-11,8-17.5,21.5-17.5,5.88,0,10.73,1.23,14.41,3.67,4.65,3.12,7.09,7.89,7.09,13.83v51A5,5,0,0,1,148,436Z"/></g><path class="cls-1" d="M148,397H16a5,5,0,0,1,0-10H148a5,5,0,0,1,0,10Z"/><path class="cls-1" d="M465,263H394a5,5,0,0,1,0-10h66V131H383.68a5,5,0,0,1,0-10H465a5,5,0,0,1,5,5V258A5,5,0,0,1,465,263Z"/><path class="cls-1" d="M205,244a37,37,0,1,1,37-37A37,37,0,0,1,205,244Zm0-64a27,27,0,1,0,27,27A27,27,0,0,0,205,180Z"/><path class="cls-1" d="M302,244a37,37,0,1,1,37-37A37,37,0,0,1,302,244Zm0-64a27,27,0,1,0,27,27A27,27,0,0,0,302,180Z"/><path class="cls-1" d="M236,203.88a5,5,0,0,1-2.49-9.34c.83-.48,20.42-11.44,39.89,0a5,5,0,1,1-5.08,8.61c-14.51-8.55-29.69-.05-29.84,0A5,5,0,0,1,236,203.88Z"/></g><g id="Outline"><path class="cls-1" d="M249,47H158.33a5,5,0,0,1,0-10H249a5,5,0,1,1,0,10Z"/><path class="cls-1" d="M119.53,267.91H41a5,5,0,0,1-5-5V42a5,5,0,0,1,5-5h64.74a5,5,0,1,1,0,10H46V257.91h73.53a5,5,0,1,1,0,10Z"/><path class="cls-1" d="M112.85,186.43a4.94,4.94,0,0,1-3.11-1.09c-29.35-23.38-68-23.6-68.71-23.6h0a5,5,0,0,1,0-10c1.75,0,42.8.14,75,25.78a5,5,0,0,1-3.12,8.91Z"/><path class="cls-1" d="M80,124.68H41.4a5,5,0,0,1,0-10H75V42.4a5,5,0,1,1,10,0v77.28A5,5,0,0,1,80,124.68Z"/><path class="cls-1" d="M128.39,99.6h-26.7a5,5,0,0,1-5-5V67.89a5,5,0,0,1,5-5h26.7a5,5,0,0,1,5,5V94.6A5,5,0,0,1,128.39,99.6Zm-21.7-10h16.7V72.89h-16.7Z"/><path class="cls-1" d="M90.49,232H66.89a5,5,0,0,1-5-5V200.31a5,5,0,0,1,5-5H90.67a5,5,0,1,1,0,10H71.89V222h18.6a5,5,0,0,1,0,10Z"/><path class="cls-1" d="M215,212H195a5,5,0,0,1,0-10h20a5,5,0,0,1,0,10Z"/><path class="cls-1" d="M312,212H292a5,5,0,0,1,0-10h20a5,5,0,0,1,0,10Z"/><path class="cls-1" d="M123,468H41a5,5,0,0,1,0-10h82a5,5,0,0,1,0,10Z"/><path class="cls-1" d="M440,163H393a5,5,0,0,1,0-10h47a5,5,0,0,1,0,10Z"/><path class="cls-1" d="M440,196H414a5,5,0,0,1,0-10h26a5,5,0,0,1,0,10Z"/><path class="cls-1" d="M440,228H423a5,5,0,0,1,0-10h17a5,5,0,0,1,0,10Z"/></g></svg>