<?xml version="1.0" ?><svg viewBox="0 0 512 512" xmlns="http://www.w3.org/2000/svg"><defs><style>.cls-1{fill:#3f456b;}</style></defs><title/><g id="Lines"><path class="cls-1" d="M236,501.16a5.26,5.26,0,0,1-1.4-.2,5,5,0,0,1-3.57-5.28L249.7,300.85H132.76a5,5,0,0,1-4.45-7.27L270.9,13.73a5,5,0,0,1,9.43,2.77l-19.6,195.89H378.62a5,5,0,0,1,4.45,7.27L240.48,498.43A5,5,0,0,1,236,501.16Zm-95.1-210.31H255.2a5,5,0,0,1,5,5.48L243.5,470.57l127-248.18H255.2a5,5,0,0,1-5-5.5L267.73,42Z"/></g><g id="Outline"><path class="cls-1" d="M496,261H445.63a5,5,0,0,1,0-10H496a5,5,0,0,1,0,10Z"/><path class="cls-1" d="M67.37,261H17a5,5,0,0,1,0-10H67.37a5,5,0,0,1,0,10Z"/><path class="cls-1" d="M122.76,127.26a5,5,0,0,1-3.53-1.46L83.61,90.18a5,5,0,0,1,7.07-7.07l35.62,35.62a5,5,0,0,1-3.54,8.53Z"/><path class="cls-1" d="M425.85,430.35a5,5,0,0,1-3.53-1.46L386.7,393.27a5,5,0,0,1,7.07-7.07l35.62,35.62a5,5,0,0,1-3.54,8.53Z"/><path class="cls-1" d="M390.24,127.26a5,5,0,0,1-3.54-8.53l35.62-35.62a5,5,0,1,1,7.07,7.07L393.77,125.8A5,5,0,0,1,390.24,127.26Z"/><path class="cls-1" d="M87.15,430.35a5,5,0,0,1-3.54-8.53l35.62-35.62a5,5,0,0,1,7.07,7.07L90.68,428.89A5,5,0,0,1,87.15,430.35Z"/><path class="cls-1" d="M432.19,189.42a5,5,0,0,1-1.89-9.63l27.23-11.1A5,5,0,0,1,461.3,178l-27.22,11.09A5,5,0,0,1,432.19,189.42Z"/><path class="cls-1" d="M51.87,344.42A5,5,0,0,1,50,334.79l29.78-12.14a5,5,0,0,1,3.78,9.26L53.76,344.05A5,5,0,0,1,51.87,344.42Z"/><path class="cls-1" d="M81.62,188.12a5.09,5.09,0,0,1-1.94-.39l-27.1-11.41a5,5,0,0,1,3.88-9.22l27.1,11.41a5,5,0,0,1-1.94,9.61Z"/><path class="cls-1" d="M458,346.57a4.91,4.91,0,0,1-1.93-.4L426.44,333.7a5,5,0,1,1,3.88-9.22L460,337a5,5,0,0,1-1.94,9.61Z"/></g></svg>