<?xml version="1.0" ?><svg enable-background="new 0 0 512 512" version="1.1" viewBox="0 0 512 512" xml:space="preserve" xmlns="http://www.w3.org/2000/svg" xmlns:xlink="http://www.w3.org/1999/xlink"><g id="Lines"><g><g><g><g><path d="M46.685,93.745c-1.938,0-3.839-0.76-5.361-2.286c-1.436-1.439-2.142-3.174-2.522-4.105       c-1.637-4.023-2.896-8.077-4.114-11.997l-0.672-2.155c-0.171-0.544-0.335-1.136-0.497-1.728       c-0.128-0.467-0.255-0.934-0.39-1.364c-0.022-0.071-0.045-0.149-0.068-0.234c-1.048-0.298-2.113-0.579-3.211-0.87       c-2.224-0.589-4.523-1.198-6.86-1.99c-0.312-0.106-0.739-0.229-1.239-0.374c-4.613-1.347-13.199-3.853-12.834-10.909       c0.132-2.566,1.725-4.279,2.325-4.924c3.329-3.581,7.121-6.395,10.787-9.115l1.373-1.021c1.653-1.235,2.984-2.212,4.046-2.977       c-0.963-6.757-1.727-17.096,0.326-22.265c1.417-3.568,3.788-4.885,5.526-5.361c3.054-0.834,5.646,0.486,6.771,1.216       c4.384,2.305,12.368,9.126,16.703,12.955c7.474-3.669,15.127-6.177,17.495-6.834c2.121-0.586,4.078-0.587,5.822-0.001       c2.098,0.704,3.991,2.327,5.066,4.341c0.346,0.649,0.602,1.35,0.766,2.087c0.348,1.562,0.268,3.264-0.238,5.052       c-0.668,2.361-3.217,9.998-6.93,17.458c3.805,4.355,10.581,12.377,12.861,16.773c0.724,1.13,2.03,3.73,1.178,6.777       c-0.486,1.736-1.815,4.1-5.392,5.497c-5.122,2-15.271,1.223-22.025,0.238c-3.685,5.745-7.941,10.898-12.942,15.678       C50.735,92.93,48.691,93.745,46.685,93.745z M48.479,84.481h0.01H48.479z M20.488,55.703c1.477,0.583,3.269,1.105,4.063,1.338       c0.667,0.194,1.236,0.363,1.65,0.504c2.013,0.683,4.05,1.222,6.207,1.793c1.982,0.524,4.032,1.067,6.115,1.742       c0.765,0.248,1.458,0.676,2.022,1.249l0.062,0.063c1.352,1.358,1.727,3.125,2,4.414c0.031,0.147,0.058,0.283,0.086,0.395       c0.145,0.458,0.306,1.041,0.467,1.624c0.129,0.473,0.258,0.945,0.395,1.381l0.681,2.184c1.048,3.373,2.045,6.583,3.253,9.74       c4.297-4.403,7.932-9.173,11.073-14.516c1.069-1.817,3.165-2.764,5.235-2.381c6.563,1.236,14.327,1.718,18.205,1.228       c-2.544-3.967-9.027-11.624-12.998-16.045c-1.422-1.584-1.686-3.894-0.657-5.757c3.609-6.538,6.279-13.988,7.324-17.236       c-3.253,1.027-10.724,3.66-17.276,7.229c-1.869,1.019-4.177,0.742-5.753-0.688c-4.401-3.996-12.022-10.522-15.974-13.087       c-0.509,3.874-0.071,11.641,1.126,18.212c0.354,1.946-0.471,3.918-2.107,5.031c-1.025,0.697-2.951,2.055-6.302,4.56       l-1.402,1.043C25.316,51.705,22.76,53.602,20.488,55.703z M34.454,19.548c0.005,0.003,0.009,0.007,0.015,0.011       C34.464,19.555,34.459,19.552,34.454,19.548z" fill="#3F456B"/></g></g></g><g><g><path d="M241.291,499H90.042c-27.333,0-45.899-6.422-58.427-20.211c-13.155-14.479-19.282-36.625-19.282-69.695      c0-98.855,35.845-198.941,37.936-204.687c1.832-7.086,4.966-18.645,18.388-18.645h197.129c13.462,0,16.575,11.629,18.405,18.709      C285.87,209.487,319,309.917,319,409.094c0,33.07-6.127,55.216-19.282,69.695C287.19,492.578,268.625,499,241.291,499z       M68.657,195.763c-4.372,0-6.252,1.646-8.767,11.383c-0.043,0.166-0.094,0.329-0.154,0.489      c-0.374,1.009-37.403,101.987-37.403,201.459c0,30.017,5.457,50.614,16.684,62.971C49.515,483.618,65.728,489,90.042,489      h151.249c24.314,0,40.528-5.382,51.025-16.936C303.543,459.708,309,439.11,309,409.094c0-99.545-33.994-200.578-34.338-201.587      c-0.04-0.119-0.076-0.239-0.108-0.36c-2.516-9.738-4.396-11.384-8.768-11.384H68.657z" fill="#3F456B"/></g></g><g><g><path d="M303,309H30c-2.761,0-5-2.238-5-5s2.239-5,5-5h273c2.761,0,5,2.238,5,5S305.761,309,303,309z" fill="#3F456B"/></g></g><g><g><path d="M419.396,499H203.526c-2.761,0-5-2.238-5-5s2.239-5,5-5h215.869c21.824,0,38.879-6.079,50.692-18.069      c21.623-21.948,21.086-57.845,20.857-73.174c-0.02-1.32-0.037-2.475-0.037-3.44V179.563c0-33.672-11.996-59.884-35.653-77.905      c-17.845-13.594-36.039-17.258-36.22-17.293c-2.348-0.458-4.051-2.517-4.051-4.909V62.842c0-2.762,2.239-5,5-5s5,2.238,5,5      v12.693c6.858,1.898,21.375,6.874,35.975,17.897c18.225,13.761,39.949,39.873,39.949,86.131v214.753      c0,0.924,0.017,2.028,0.036,3.291c0.226,15.155,0.827,55.411-23.733,80.341C463.449,491.917,443.998,499,419.396,499z" fill="#3F456B"/></g></g><g><g><path d="M127.014,195c-2.761,0-5-2.238-5-5v-10.437c0-46.258,21.725-72.37,39.949-86.13      c14.601-11.024,29.117-16,35.975-17.898V62.842c0-2.762,2.239-5,5-5s5,2.238,5,5v16.614c0,2.398-1.704,4.459-4.059,4.911      c-0.174,0.033-18.368,3.697-36.212,17.291c-23.657,18.021-35.653,44.233-35.653,77.905V190      C132.014,192.762,129.775,195,127.014,195z" fill="#3F456B"/></g></g><g><g><path d="M432,67H193c-2.761,0-5-2.238-5-5V15c0-2.762,2.239-5,5-5h239c2.761,0,5,2.238,5,5v47      C437,64.762,434.761,67,432,67z M198,57h229V20H198V57z" fill="#3F456B"/></g></g><g><g><g><path d="M403.262,280.617c-13.28,0-24.084-10.805-24.084-24.085s10.804-24.084,24.084-24.084       s24.084,10.804,24.084,24.084S416.542,280.617,403.262,280.617z M403.262,242.448c-7.766,0-14.084,6.318-14.084,14.084       c0,7.767,6.318,14.085,14.084,14.085s14.084-6.318,14.084-14.085C417.347,248.767,411.028,242.448,403.262,242.448z" fill="#3F456B"/></g></g><g><g><path d="M455.916,333.271c-13.28,0-24.084-10.804-24.084-24.084s10.804-24.085,24.084-24.085       c13.28,0,24.084,10.805,24.084,24.085S469.196,333.271,455.916,333.271z M455.916,295.102c-7.766,0-14.084,6.318-14.084,14.085       c0,7.766,6.318,14.084,14.084,14.084S470,316.952,470,309.187C470,301.42,463.682,295.102,455.916,295.102z" fill="#3F456B"/></g></g><g><g><path d="M385.552,331.896c-1.28,0-2.559-0.488-3.536-1.465c-1.953-1.952-1.953-5.118,0-7.07l89.448-89.448       c1.953-1.953,5.118-1.953,7.071,0c1.953,1.952,1.953,5.118,0,7.07l-89.448,89.448       C388.111,331.408,386.832,331.896,385.552,331.896z" fill="#3F456B"/></g></g></g><g><g><path d="M473,360h-97c-2.761,0-5-2.238-5-5s2.239-5,5-5h97c2.761,0,5,2.238,5,5S475.761,360,473,360z" fill="#3F456B"/></g></g><g><g><path d="M495.908,388H353c-2.761,0-5-2.238-5-5V207.823c0-2.762,2.239-5,5-5h143c2.761,0,5,2.238,5,5      s-2.239,5-5,5H358V378h137.908c2.761,0,5,2.238,5,5S498.669,388,495.908,388z" fill="#3F456B"/></g></g></g></g><g id="Outline"><g><g><g><g><g><g><path d="M294.536,155.077c-0.805,0-1.621-0.194-2.377-0.604c-2.428-1.315-3.33-4.351-2.014-6.778         l6.451-11.905c1.315-2.428,4.351-3.329,6.778-2.015c2.428,1.315,3.33,4.351,2.014,6.778l-6.451,11.905         C298.031,154.129,296.311,155.077,294.536,155.077z" fill="#3F456B"/></g></g></g><g><g><g><path d="M322.839,216.717c-0.802,0-1.616-0.193-2.372-0.602l-11.439-6.178         c-2.43-1.312-3.335-4.346-2.023-6.775c1.312-2.429,4.346-3.338,6.775-2.023l11.439,6.178c2.43,1.312,3.335,4.346,2.023,6.775         C326.338,215.766,324.617,216.717,322.839,216.717z" fill="#3F456B"/></g></g></g><g><g><g><path d="M316.204,189.84c-2.699,0-4.922-2.15-4.996-4.865c-0.075-2.76,2.103-5.059,4.863-5.133l13.362-0.361         c2.757-0.082,5.059,2.103,5.133,4.863c0.075,2.76-2.103,5.059-4.863,5.133l-13.362,0.361         C316.296,189.839,316.25,189.84,316.204,189.84z" fill="#3F456B"/></g></g></g><g><g><g><path d="M310.128,169.716c-1.681,0-3.322-0.848-4.266-2.385c-1.445-2.354-0.708-5.433,1.645-6.877         l11.479-7.048c2.354-1.445,5.432-0.708,6.877,1.645c1.445,2.354,0.708,5.433-1.645,6.877l-11.479,7.048         C311.924,169.477,311.021,169.716,310.128,169.716z" fill="#3F456B"/></g></g></g></g><g><g><g><g><path d="M295.245,153.959c-0.802,0-1.615-0.193-2.37-0.601c-2.431-1.312-3.337-4.345-2.026-6.774         l5.802-10.754c1.312-2.432,4.346-3.335,6.774-2.026c2.431,1.312,3.337,4.345,2.026,6.774l-5.802,10.754         C298.746,153.008,297.023,153.959,295.245,153.959z" fill="#3F456B"/></g></g></g><g><g><g><path d="M274.024,148.624c-2.699,0-4.922-2.15-4.996-4.865l-0.336-12.458         c-0.075-2.761,2.103-5.059,4.863-5.133c2.793-0.07,5.059,2.103,5.133,4.863l0.336,12.458         c0.075,2.761-2.103,5.059-4.863,5.133C274.116,148.623,274.07,148.624,274.024,148.624z" fill="#3F456B"/></g></g></g><g><g><g><path d="M253.657,155.162c-1.681,0-3.322-0.848-4.266-2.385l-6.772-11.029         c-1.445-2.354-0.708-5.433,1.645-6.877c2.354-1.444,5.432-0.708,6.877,1.645l6.772,11.029         c1.445,2.354,0.708,5.433-1.645,6.877C255.452,154.923,254.549,155.162,253.657,155.162z" fill="#3F456B"/></g></g></g><g><g><g><path d="M239.296,170.581c-0.802,0-1.616-0.193-2.372-0.602l-11.438-6.177         c-2.43-1.312-3.335-4.346-2.023-6.775c1.312-2.429,4.344-3.337,6.775-2.023l11.438,6.177c2.43,1.312,3.335,4.346,2.023,6.775         C242.796,169.63,241.074,170.581,239.296,170.581z" fill="#3F456B"/></g></g></g></g></g><g><g><g><g><path d="M484.466,44.837c-1.28,0-2.559-0.488-3.536-1.465c-1.953-1.952-1.953-5.118,0-7.07l8.017-8.017        c1.954-1.953,5.119-1.952,7.071,0s1.953,5.118,0,7.07l-8.017,8.017C487.025,44.349,485.745,44.837,484.466,44.837z" fill="#3F456B"/></g></g><g><g><path d="M457.103,72.18c-1.28,0-2.559-0.488-3.536-1.465c-1.953-1.952-1.953-5.118,0-7.07l8.017-8.017        c1.954-1.952,5.119-1.952,7.071,0c1.953,1.952,1.953,5.118,0,7.07l-8.017,8.017C459.662,71.691,458.382,72.18,457.103,72.18z" fill="#3F456B"/></g></g></g><g><g><g><path d="M492.473,72.19c-1.28,0-2.559-0.488-3.536-1.465l-8.018-8.018c-1.953-1.952-1.953-5.118,0-7.07        c1.953-1.953,5.118-1.953,7.071,0l8.018,8.018c1.953,1.952,1.953,5.118,0,7.07C495.032,71.702,493.753,72.19,492.473,72.19z" fill="#3F456B"/></g></g><g><g><path d="M465.13,44.827c-1.28,0-2.559-0.488-3.536-1.465l-8.017-8.018c-1.953-1.952-1.953-5.118,0-7.07        c1.954-1.953,5.119-1.952,7.071,0l8.017,8.018c1.953,1.952,1.953,5.118,0,7.07C467.689,44.339,466.41,44.827,465.13,44.827z" fill="#3F456B"/></g></g></g></g><g><g><g><g><path d="M44.466,152.837c-1.28,0-2.559-0.488-3.536-1.465c-1.953-1.952-1.953-5.118,0-7.07l8.017-8.017        c1.954-1.953,5.119-1.952,7.071,0s1.953,5.118,0,7.07l-8.017,8.017C47.025,152.349,45.745,152.837,44.466,152.837z" fill="#3F456B"/></g></g><g><g><path d="M17.103,180.18c-1.28,0-2.559-0.488-3.536-1.465c-1.953-1.952-1.953-5.118,0-7.07l8.017-8.017        c1.954-1.952,5.119-1.952,7.071,0c1.953,1.952,1.953,5.118,0,7.07l-8.017,8.017C19.662,179.691,18.382,180.18,17.103,180.18z" fill="#3F456B"/></g></g></g><g><g><g><path d="M52.473,180.19c-1.28,0-2.559-0.488-3.536-1.465l-8.018-8.018c-1.953-1.952-1.953-5.118,0-7.07        c1.953-1.953,5.118-1.953,7.071,0l8.018,8.018c1.953,1.952,1.953,5.118,0,7.07C55.032,179.702,53.753,180.19,52.473,180.19z" fill="#3F456B"/></g></g><g><g><path d="M25.13,152.827c-1.28,0-2.559-0.488-3.536-1.465l-8.017-8.018c-1.953-1.952-1.953-5.118,0-7.07        c1.954-1.953,5.119-1.952,7.071,0l8.017,8.018c1.953,1.952,1.953,5.118,0,7.07C27.689,152.339,26.41,152.827,25.13,152.827z" fill="#3F456B"/></g></g></g></g><g><g><path d="M140,87c-12.682,0-23-10.317-23-23s10.318-23,23-23s23,10.317,23,23S152.682,87,140,87z M140,51      c-7.168,0-13,5.832-13,13s5.832,13,13,13s13-5.832,13-13S147.168,51,140,51z" fill="#3F456B"/></g></g><g><g><g><path d="M208,438h-42c-2.761,0-5-2.238-5-5s2.239-5,5-5h42c2.761,0,5,2.238,5,5S210.761,438,208,438z" fill="#3F456B"/></g></g><g><g><path d="M208,342h-42c-2.761,0-5-2.238-5-5s2.239-5,5-5h42c2.761,0,5,2.238,5,5S210.761,342,208,342z" fill="#3F456B"/></g></g><g><g><path d="M193,405h-27c-2.761,0-5-2.238-5-5s2.239-5,5-5h27c2.761,0,5,2.238,5,5S195.761,405,193,405z" fill="#3F456B"/></g></g><g><g><path d="M193,374h-27c-2.761,0-5-2.238-5-5s2.239-5,5-5h27c2.761,0,5,2.238,5,5S195.761,374,193,374z" fill="#3F456B"/></g></g><g><g><path d="M208,247h-42c-2.761,0-5-2.238-5-5s2.239-5,5-5h42c2.761,0,5,2.238,5,5S210.761,247,208,247z" fill="#3F456B"/></g></g><g><g><path d="M193,279h-27c-2.761,0-5-2.238-5-5s2.239-5,5-5h27c2.761,0,5,2.238,5,5S195.761,279,193,279z" fill="#3F456B"/></g></g></g><g><g><path d="M101,168.45c-0.55-2.7,1.2-5.341,3.91-5.891l0,0c2.71-0.54,5.34,1.21,5.89,3.91l0,0l0,0l0,0      c0.55,2.71-1.2,5.34-3.91,5.89l0,0c-0.33,0.07-0.67,0.101-1,0.101l0,0C103.56,172.46,101.48,170.819,101,168.45z M96.08,149.64      L96.08,149.64c-0.84-2.63,0.61-5.45,3.24-6.29l0,0c2.63-0.84,5.45,0.62,6.29,3.25l0,0l0,0l0,0c0.84,2.63-0.61,5.44-3.24,6.28      l0,0c-0.51,0.16-1.02,0.24-1.53,0.24l0,0C98.73,153.12,96.76,151.76,96.08,149.64z M89.23,131.359L89.23,131.359      c-1.09-2.54,0.09-5.479,2.62-6.569l0,0c2.54-1.09,5.48,0.08,6.57,2.62l0,0c1.09,2.529-0.08,5.479-2.62,6.569l0,0      c-0.64,0.271-1.31,0.41-1.97,0.41l0,0C91.89,134.38,90.05,133.25,89.23,131.359z M80.7,113.77L80.7,113.77      c-1.32-2.43-0.41-5.47,2.01-6.779l0,0c2.43-1.32,5.46-0.421,6.78,2.01l0,0c1.32,2.42,0.42,5.46-2.01,6.779l0,0      c-0.76,0.41-1.57,0.601-2.38,0.601l0,0C83.33,116.38,81.61,115.439,80.7,113.77z M70.61,97.24v0.01      c-1.63-2.23-1.14-5.36,1.09-6.99l0,0c2.23-1.63,5.36-1.14,6.99,1.09l0,0l0,0l0,0c1.62,2.23,1.14,5.36-1.1,6.99l0,0      c-0.88,0.65-1.92,0.96-2.94,0.96l0,0C73.11,99.3,71.59,98.59,70.61,97.24z" fill="#3F456B"/></g></g><g><g><g><path d="M312.499,66c-2.761,0-5-2.238-5-5V15c0-2.762,2.239-5,5-5s5,2.238,5,5v46       C317.499,63.762,315.26,66,312.499,66z" fill="#3F456B"/></g></g><g><g><path d="M282.999,66c-2.761,0-5-2.238-5-5V15c0-2.762,2.239-5,5-5s5,2.238,5,5v46       C287.999,63.762,285.76,66,282.999,66z" fill="#3F456B"/></g></g><g><g><path d="M223.999,66c-2.761,0-5-2.238-5-5V15c0-2.762,2.239-5,5-5s5,2.238,5,5v46       C228.999,63.762,226.76,66,223.999,66z" fill="#3F456B"/></g></g><g><g><path d="M401,66c-2.761,0-5-2.238-5-5V15c0-2.762,2.239-5,5-5s5,2.238,5,5v46C406,63.762,403.761,66,401,66z" fill="#3F456B"/></g></g><g><g><path d="M342,66c-2.761,0-5-2.238-5-5V15c0-2.762,2.239-5,5-5s5,2.238,5,5v46C347,63.762,344.761,66,342,66z" fill="#3F456B"/></g></g><g><g><path d="M371.5,66c-2.761,0-5-2.238-5-5V15c0-2.762,2.239-5,5-5s5,2.238,5,5v46       C376.5,63.762,374.261,66,371.5,66z" fill="#3F456B"/></g></g><g><g><path d="M253.499,66c-2.761,0-5-2.238-5-5V15c0-2.762,2.239-5,5-5s5,2.238,5,5v46       C258.499,63.762,256.26,66,253.499,66z" fill="#3F456B"/></g></g></g><g><g><path d="M127.014,283.977c-2.761,0-5-2.238-5-5V213c0-2.762,2.239-5,5-5s5,2.238,5,5v65.977      C132.014,281.738,129.775,283.977,127.014,283.977z" fill="#3F456B"/></g></g></g></g></svg>