<?xml version="1.0" ?><svg viewBox="0 0 512 512" xmlns="http://www.w3.org/2000/svg"><defs><style>.cls-1{fill:#3f456b;}</style></defs><title/><g id="Lines"><path class="cls-1" d="M98.79,497.82H74c-14.13,0-25.63-11.77-25.63-26.24V437.94a5,5,0,0,1,10,0v33.64c0,9,7,16.24,15.63,16.24H98.79c8.62,0,15.63-7.28,15.63-16.24V437.94a5,5,0,0,1,10,0v33.64C124.42,486.05,112.92,497.82,98.79,497.82Z"/><path class="cls-1" d="M443.3,497.82H418.54c-14.13,0-25.63-11.77-25.63-26.24v-32a5,5,0,0,1,10,0v32c0,9,7,16.24,15.63,16.24H443.3c8.63,0,15.64-7.28,15.64-16.24v-32a5,5,0,0,1,10,0v32C468.94,486.05,457.44,497.82,443.3,497.82Z"/><path class="cls-1" d="M467.78,442.94H331.5a5,5,0,0,1,0-10H467.78c4.61,0,8.1-1.32,10.67-4.05,5.67-6,5.18-17,5.17-17.09s0-.2,0-.31V346.34c0-.34,1-35.15-20.43-51.14-1.11-.87-25.56-20.08-30.71-41.81l-11.22-47.91c-.36-1.48-9.35-36.67-48-36.67H145.69C107,168.81,98,204,97.68,205.5L86.47,253.37c-5,21.19-28.38,40-30.52,41.67C34.44,314,35.31,346,35.32,346.34v65.15c0,.11,0,.21,0,.31s-.53,11.07,5.2,17.12c2.56,2.71,6,4,10.64,4H185.88a5,5,0,0,1,0,10H51.15c-7.41,0-13.45-2.42-17.95-7.2-8.28-8.8-8-22.56-7.88-24.37V346.61c-.08-2.6-.69-37.43,24.14-59.18l.23-.18c.22-.18,22.71-17.89,27-36.17L88,203.2A64.33,64.33,0,0,1,99.07,181c7.81-10.14,22.24-22.21,46.62-22.21H373.24c24.38,0,38.81,12.07,46.62,22.21A64.51,64.51,0,0,1,431,203.18l11.22,47.91c4.35,18.33,26.82,36,27.05,36.16,25.16,18.8,24.45,56.64,24.36,59.36v64.76c.08,1.81.41,15.57-7.88,24.37C481.24,440.52,475.2,442.94,467.78,442.94Z"/><path class="cls-1" d="M444.06,381.16H393.57c-14.75,0-26.75-11.49-26.75-25.61V350.6c0-12.83,10.17-22.85,25.91-25.54l.34,0,50.1-5,.5,0c9.41,0,16.2,2.21,20.75,6.77,6.41,6.42,6.4,15.57,6.39,22.91v5.87C470.81,369.67,458.81,381.16,444.06,381.16ZM394.24,335c-8.07,1.42-17.42,6.35-17.42,15.65v4.95c0,8.61,7.51,15.61,16.75,15.61h50.49c9.23,0,16.75-7,16.75-15.61v-5.88c0-6.07,0-12.35-3.47-15.84-2.51-2.51-7-3.8-13.43-3.83Z"/><path class="cls-1" d="M126.25,381.16H75.76C61,381.16,49,369.67,49,355.55v-5.87c0-7.34,0-16.49,6.39-22.91C60,322.21,66.74,320,76.16,320l.49,0,50.1,5,.35,0c15.73,2.69,25.9,12.71,25.9,25.54v4.95C153,369.67,141,381.16,126.25,381.16ZM75.91,330c-6.4,0-10.92,1.32-13.43,3.83C59,337.32,59,343.6,59,349.67v5.88c0,8.61,7.51,15.61,16.74,15.61h50.49c9.24,0,16.75-7,16.75-15.61V350.6c0-9.3-9.35-14.23-17.42-15.65Z"/><path class="cls-1" d="M495.19,258.92H462.92a14.05,14.05,0,0,1-14-14V225.21a14.05,14.05,0,0,1,14-14h32.27a14,14,0,0,1,14,14v19.68A14,14,0,0,1,495.19,258.92Zm-32.27-37.74a4,4,0,0,0-4,4v19.68a4,4,0,0,0,4,4h32.27a4,4,0,0,0,4-4V225.21a4,4,0,0,0-4-4Z"/><path class="cls-1" d="M58.16,258.92H25.89a14,14,0,0,1-14-14V225.21a14,14,0,0,1,14-14H58.16a14,14,0,0,1,14,14v19.68A14,14,0,0,1,58.16,258.92ZM25.89,221.18a4,4,0,0,0-4,4v19.68a4,4,0,0,0,4,4H58.16a4,4,0,0,0,4-4V225.21a4,4,0,0,0-4-4Z"/><path class="cls-1" d="M447,273.52a5,5,0,0,1-2.87-9.09L462,251.86a5,5,0,1,1,5.75,8.18l-17.91,12.57A5,5,0,0,1,447,273.52Z"/><path class="cls-1" d="M426.22,209.34a5,5,0,0,1-4.77-3.51,118.43,118.43,0,0,0-16.75-31.39c-15.21-20.2-34-30.44-55.78-30.44H170.12c-21.81,0-40.58,10.24-55.78,30.44a118.46,118.46,0,0,0-16.76,31.4,5,5,0,0,1-9.54-3,126.4,126.4,0,0,1,18.12-34.17c17-22.68,39.1-34.67,64-34.67h178.8c24.86,0,47,12,63.95,34.67A126.06,126.06,0,0,1,431,202.84a5,5,0,0,1-3.27,6.27A5.2,5.2,0,0,1,426.22,209.34Z"/><path class="cls-1" d="M463.78,413.72H53.12c-10,0-17.5-2.59-22.39-7.71a19,19,0,0,1-5.4-13.31,5,5,0,0,1,10,.37,9.33,9.33,0,0,0,2.75,6.16c2.92,2.94,8.12,4.49,15,4.49H463.78c.18,0,18.82-.2,19.53-11.12a5,5,0,0,1,10,.64c-.55,8.54-6.26,15-16.07,18.26A47.73,47.73,0,0,1,463.78,413.72Z"/><path class="cls-1" d="M331,466.1H187a5,5,0,0,1-5-5V408.62a5,5,0,0,1,5-5H331a5,5,0,0,1,5,5V461.1A5,5,0,0,1,331,466.1Zm-139-10H326V413.62H192Z"/><path class="cls-1" d="M328,384H186a15,15,0,0,1-15-15V332a15,15,0,0,1,15-15H328a15,15,0,0,1,15,15v37A15,15,0,0,1,328,384ZM186,327a5,5,0,0,0-5,5v37a5,5,0,0,0,5,5H328a5,5,0,0,0,5-5V332a5,5,0,0,0-5-5Z"/><path class="cls-1" d="M335.56,143a5,5,0,0,1-5-5V97c0-16.26-12.56-29-28.58-29s-28.59,12.73-28.59,29v41a5,5,0,0,1-10,0V97a38.59,38.59,0,1,1,77.17,0v41A5,5,0,0,1,335.56,143Z"/><path class="cls-1" d="M440.54,267.28a3.17,3.17,0,0,1-.43,0c-176.66-15.09-359.47-.15-361.3,0a5,5,0,1,1-.83-10c1.83-.15,185.46-15.17,363,0a5,5,0,0,1-.42,10Z"/></g><g id="Outline"><path class="cls-1" d="M304.62,434.74a5,5,0,0,1,5-5h0a5,5,0,0,1,5,5h0a5,5,0,0,1-5,5h0A5,5,0,0,1,304.62,434.74Zm-20,0a5,5,0,0,1,5-5h0a5,5,0,0,1,5,5h0a5,5,0,0,1-5,5h0A5,5,0,0,1,284.62,434.74Zm-20,0a5,5,0,0,1,5-5h0a5,5,0,0,1,5,5h0a5,5,0,0,1-5,5h0A5,5,0,0,1,264.62,434.74Zm-20,0a5,5,0,0,1,5-5h0a5,5,0,0,1,5,5h0a5,5,0,0,1-5,5h0A5,5,0,0,1,244.62,434.74Zm-20,0a5,5,0,0,1,5-5h0a5,5,0,0,1,5,5h0a5,5,0,0,1-5,5h0A5,5,0,0,1,224.62,434.74Zm-20,0a5,5,0,0,1,5-5h0a5,5,0,0,1,5,5h0a5,5,0,0,1-5,5h0A5,5,0,0,1,204.62,434.74Z"/><path class="cls-1" d="M338,345H179a5,5,0,0,1,0-10H338a5,5,0,0,1,0,10Z"/><path class="cls-1" d="M338,364.5H179a5,5,0,0,1,0-10H338a5,5,0,0,1,0,10Z"/><path class="cls-1" d="M271.4,40.08A5,5,0,0,1,266.77,37L262,25.33a5,5,0,1,1,9.26-3.77L276,33.19a5,5,0,0,1-4.63,6.89Z"/><path class="cls-1" d="M377.06,84a5,5,0,0,1-1.89-9.63l11.64-4.75a5,5,0,0,1,3.78,9.27L379,83.59A5,5,0,0,1,377.06,84Z"/><path class="cls-1" d="M227.2,83.4a4.94,4.94,0,0,1-1.94-.39l-11.58-4.88a5,5,0,1,1,3.88-9.21l11.58,4.87a5,5,0,0,1-1.94,9.61Z"/><path class="cls-1" d="M332.94,39.72a4.92,4.92,0,0,1-1.94-.4,5,5,0,0,1-2.67-6.55l4.88-11.58a5,5,0,1,1,9.21,3.88l-4.87,11.58A5,5,0,0,1,332.94,39.72Z"/><path class="cls-1" d="M245,57.4a5,5,0,0,1-3.55-1.48L232.58,47a5,5,0,0,1,7.11-7l8.84,8.92A5,5,0,0,1,245,57.4Z"/><path class="cls-1" d="M359.39,57.37a5,5,0,0,1-3.52-8.56L364.8,40a5,5,0,1,1,7,7.1l-8.93,8.85A5,5,0,0,1,359.39,57.37Z"/><path class="cls-1" d="M220.8,114.37h0l-12.56-.06a5,5,0,0,1,0-10h0l12.57.06a5,5,0,0,1,0,10Z"/><path class="cls-1" d="M395.37,115.16h0l-13.74-.06a5,5,0,0,1,0-10h0l13.75.06a5,5,0,0,1,0,10Z"/><path class="cls-1" d="M301.67,33.44h0a5,5,0,0,1-5-5l.05-12.57a5,5,0,0,1,10,.05l-.05,12.57A5,5,0,0,1,301.67,33.44Z"/><path class="cls-1" d="M54.18,458.68a5,5,0,0,1,0-10H71.53a5,5,0,0,1,0,10Z"/><path class="cls-1" d="M54,477.27a5,5,0,0,1,0-10H71.78a5,5,0,1,1,0,10Z"/><path class="cls-1" d="M101.18,458.68a5,5,0,0,1,0-10h17.35a5,5,0,0,1,0,10Z"/><path class="cls-1" d="M101,477.27a5,5,0,0,1,0-10h17.82a5,5,0,1,1,0,10Z"/><path class="cls-1" d="M398.18,458.68a5,5,0,0,1,0-10h17.35a5,5,0,0,1,0,10Z"/><path class="cls-1" d="M398,477.27a5,5,0,0,1,0-10h17.82a5,5,0,1,1,0,10Z"/><path class="cls-1" d="M446.18,458.68a5,5,0,0,1,0-10h17.35a5,5,0,0,1,0,10Z"/><path class="cls-1" d="M446,477.27a5,5,0,0,1,0-10h17.82a5,5,0,1,1,0,10Z"/></g></svg>