<?xml version="1.0" ?><svg viewBox="0 0 512 512" xmlns="http://www.w3.org/2000/svg"><defs><style>.cls-1{fill:#3f456b;}</style></defs><title/><g id="Lines"><path class="cls-1" d="M495,139H400.26c-8.46,0-15.26-2.62-20.23-7.79-8.11-8.43-8.07-20.64-8-22.09V17h10v92.39c0,.07-.22,9.27,5.28,14.93,3,3.11,7.38,4.68,13,4.68H495Z"/><path class="cls-1" d="M468.68,469H228a5,5,0,0,1,0-10H468.68c11.75,0,21.32-10.6,21.32-23.62V136.62c0-11.37-10.55-24.31-14.62-28.33-.67-.68-62.23-63.27-75-76.09A39.22,39.22,0,0,0,374.66,21H155.05A23.34,23.34,0,0,0,132,44V239a5,5,0,0,1-10,0V44c0-17.89,15.13-33,33.05-33H374.59a48.75,48.75,0,0,1,32.82,14.13c12.84,12.85,74.43,75.47,75,76.1S500,118.8,500,136.62V435.38C500,453.92,486,469,468.68,469Z"/><path class="cls-1" d="M143.24,500C70,500,10.47,440.44,10.47,367.24S70,234.47,143.24,234.47,276,294,276,367.24,216.44,500,143.24,500Zm0-255.53A122.77,122.77,0,1,0,266,367.24,122.9,122.9,0,0,0,143.24,244.47Z"/><path class="cls-1" d="M143,452a5,5,0,0,1-5-5V287a5,5,0,0,1,10,0V447A5,5,0,0,1,143,452Z"/><path class="cls-1" d="M218.85,368.29a5,5,0,0,1-3.54-1.47L143,294.47,70.62,366.82a5,5,0,0,1-7.07-7.07l75.88-75.88a5,5,0,0,1,7.07,0l75.88,75.88a5,5,0,0,1-3.53,8.54Z"/></g><g id="Outline"><path class="cls-1" d="M329.33,107H191a5,5,0,0,1,0-10H329.33a5,5,0,0,1,0,10Z"/><path class="cls-1" d="M329.33,155H191a5,5,0,0,1,0-10H329.33a5,5,0,0,1,0,10Z"/><path class="cls-1" d="M436,200H191a5,5,0,0,1,0-10H436a5,5,0,0,1,0,10Z"/><path class="cls-1" d="M436,248H255a5,5,0,0,1,0-10H436a5,5,0,0,1,0,10Z"/><path class="cls-1" d="M436,293H304a5,5,0,0,1,0-10H436a5,5,0,0,1,0,10Z"/><path class="cls-1" d="M436,341H304a5,5,0,0,1,0-10H436a5,5,0,0,1,0,10Z"/><path class="cls-1" d="M436,387H304a5,5,0,0,1,0-10H436a5,5,0,0,1,0,10Z"/></g></svg>