<?xml version="1.0" encoding="iso-8859-1"?>
<!-- Generator: Adobe Illustrator 19.0.0, SVG Export Plug-In . SVG Version: 6.00 Build 0)  -->
<svg version="1.1" id="Capa_1" xmlns="http://www.w3.org/2000/svg" xmlns:xlink="http://www.w3.org/1999/xlink" x="0px" y="0px"
	 viewBox="0 0 512 512" style="enable-background:new 0 0 512 512;" xml:space="preserve">
<g>
	<g>
		<path d="M362.667,277.333c-64.683,0-117.333,52.629-117.333,117.333S297.984,512,362.667,512S480,459.371,480,394.667
			S427.349,277.333,362.667,277.333z M362.667,490.667c-52.928,0-96-43.072-96-96s43.072-96,96-96c52.928,0,96,43.072,96,96
			S415.595,490.667,362.667,490.667z"/>
	</g>
</g>
<g>
	<g>
		<path d="M412.843,408.469c-4.16-4.16-10.923-4.16-15.083,0l-24.427,24.427V330.667c0-5.888-4.779-10.667-10.667-10.667
			S352,324.779,352,330.667v102.272l-24.469-24.469c-4.16-4.16-10.923-4.16-15.083,0c-4.16,4.16-4.16,10.923,0,15.083l42.667,42.667
			c0.363,0.341,0.811,0.491,1.195,0.789c0.725,0.555,1.429,1.152,2.283,1.493c1.301,0.555,2.688,0.832,4.075,0.832
			s2.773-0.277,4.075-0.832c1.323-0.555,2.517-1.365,3.52-2.368l42.581-42.581C417.003,419.392,417.003,412.629,412.843,408.469z"/>
	</g>
</g>
<g>
	<g>
		<path d="M384,42.667h-55.296c-4.416-12.395-16.149-21.333-30.037-21.333h-37.845C253.269,8.32,239.296,0,224,0
			s-29.269,8.32-36.821,21.333h-37.845c-13.888,0-25.621,8.939-30.037,21.333H64c-17.643,0-32,14.357-32,32V480
			c0,17.643,14.357,32,32,32h202.667c5.888,0,10.667-4.779,10.667-10.667c0-5.888-4.779-10.667-10.667-10.667H64
			c-5.867,0-10.667-4.779-10.667-10.667V74.667C53.333,68.779,58.133,64,64,64h53.333v10.667c0,5.888,4.779,10.667,10.667,10.667
			h192c5.888,0,10.667-4.779,10.667-10.667V64H384c5.867,0,10.667,4.779,10.667,10.667v170.667c0,5.888,4.779,10.667,10.667,10.667
			c5.888,0,10.667-4.779,10.667-10.667V74.667C416,57.024,401.643,42.667,384,42.667z M309.333,64H138.667V53.333
			c0-5.888,4.8-10.667,10.667-10.667h44.608c4.523,0,8.555-2.837,10.048-7.083c3.051-8.512,11.093-14.251,20.011-14.251
			s16.96,5.739,19.989,14.251c1.515,4.245,5.525,7.083,10.048,7.083h44.629c5.867,0,10.667,4.779,10.667,10.667V64z"/>
	</g>
</g>
<g>
</g>
<g>
</g>
<g>
</g>
<g>
</g>
<g>
</g>
<g>
</g>
<g>
</g>
<g>
</g>
<g>
</g>
<g>
</g>
<g>
</g>
<g>
</g>
<g>
</g>
<g>
</g>
<g>
</g>
</svg>
