<?xml version="1.0" ?><svg viewBox="0 0 512 512" xmlns="http://www.w3.org/2000/svg"><defs><style>.cls-1{fill:#3f456b;}</style></defs><title/><g id="Lines"><path class="cls-1" d="M352,148.5a5,5,0,0,1-3.3-8.76c16.45-14.39,22.66-28.12,22.72-28.26a5,5,0,0,1,9.14,4.06c-.28.64-7.19,15.9-25.27,31.72A5,5,0,0,1,352,148.5Z"/><path class="cls-1" d="M376,406.1a5,5,0,0,1-4.56-3h0c-.07-.15-7.06-15.38-25.21-30.37-16.74-13.83-46.75-30.32-94.6-30.32l-168.78.14c-11.75,0-29.53-4.47-44.21-17-22.49-19.2-27.21-47.79-27.21-68.4s4.72-49.2,27.21-68.4c14.68-12.54,32.46-17,44.21-17l129.16.31a5,5,0,0,1,0,10h0l-129.16-.31c-10,0-25.08,3.84-37.7,14.61-15.72,13.43-23.7,33.89-23.7,60.8s8,47.37,23.7,60.8c12.62,10.77,27.75,14.61,37.72,14.61l168.78-.14c51.14,0,83.38,17.94,101.43,33,19.74,16.47,27.2,32.94,27.51,33.64a5,5,0,0,1-2.54,6.59A4.89,4.89,0,0,1,376,406.1Z"/><path class="cls-1" d="M398,422H386a15,15,0,0,1-15-15V306a5,5,0,0,1,10,0V407a5,5,0,0,0,5,5h12a5,5,0,0,0,5-5V107a5,5,0,0,0-5-5H386a5,5,0,0,0-5,5v71a5,5,0,0,1-10,0V107a15,15,0,0,1,15-15h12a15,15,0,0,1,15,15V407A15,15,0,0,1,398,422Z"/><path class="cls-1" d="M423,294H408a5,5,0,0,1,0-10h15a5,5,0,0,0,5-5V235a5,5,0,0,0-5-5H408a5,5,0,0,1,0-10h15a15,15,0,0,1,15,15v44A15,15,0,0,1,423,294Z"/><path class="cls-1" d="M128,342a5,5,0,0,1-5-5V177a5,5,0,0,1,10,0V337A5,5,0,0,1,128,342Z"/><path class="cls-1" d="M240,422H161c-10.27,0-13.41-9.4-14.74-13.42a1.72,1.72,0,0,1-.07-.21l-6-20.95c-2.77-9-.69-14.53,1.55-17.56A15.13,15.13,0,0,1,154,364h92a15.24,15.24,0,0,1,12.45,6c2.11,2.92,4,8.11,1.37,16.33l-4.94,21.77c0,.16-.09.32-.14.47C253.41,412.6,250.27,422,240,422Zm-84.22-16.48C158,412,159.57,412,161,412h79c1.42,0,3,0,5.18-6.35l4.94-21.76c0-.16.09-.32.14-.47,1.12-3.39,1.16-6.07.08-7.56A5.52,5.52,0,0,0,246,374H154a5.29,5.29,0,0,0-4.2,1.8c-1.23,1.67-1.24,4.77,0,8.73l0,.1Z"/><path class="cls-1" d="M144,390c-9.47,0-16.87-2.82-22-8.39-7.38-8-7.12-18.9-7-20.76,0-6.21-1.74-10.89-5.08-13.91-5.7-5.15-14.66-4.4-14.75-4.39a5,5,0,1,1-1-9.95c.54-.06,13.42-1.26,22.47,6.92,5.55,5,8.37,12.25,8.37,21.48,0,.14,0,.28,0,.42s-.52,8.14,4.44,13.47c3.15,3.39,8.06,5.11,14.58,5.11a5,5,0,0,1,0,10Z"/><path class="cls-1" d="M255.67,390a5,5,0,1,1,0-10c6.55,0,11.48-1.74,14.63-5.17,4.91-5.33,4.39-13.34,4.38-13.41s0-.28,0-.42c0-13.65,6.28-20.54,11.55-23.91a5,5,0,1,1,5.39,8.43c-4.64,3-6.91,8-6.94,15.33.1,1.86.37,12.74-7,20.76C272.53,387.18,265.13,390,255.67,390Z"/><path class="cls-1" d="M256,294H160a5,5,0,0,1-5-5V225a5,5,0,0,1,5-5h96a5,5,0,0,1,5,5v64A5,5,0,0,1,256,294Zm-91-10h86V230H165Z"/><path class="cls-1" d="M353.9,478.3a5.05,5.05,0,0,1-1.62-.27,5,5,0,0,1-3.11-6.35l10.68-31.18-31-10.41a5,5,0,0,1,3.19-9.48l35.72,12a5,5,0,0,1,3.13,6.36l-12.31,35.93A5,5,0,0,1,353.9,478.3Z"/><path class="cls-1" d="M185.53,89.07a5.25,5.25,0,0,1-1.6-.26l-35.71-12a5,5,0,0,1-3.14-6.36L157.4,34.49a5,5,0,0,1,9.46,3.25L156.17,68.91l31,10.42a5,5,0,0,1-1.59,9.74Z"/><path class="cls-1" d="M258.49,471.21h-1.13a218.19,218.19,0,0,1-106-28.23,5,5,0,1,1,4.93-8.7,208.13,208.13,0,0,0,101.17,26.93h1.07a206.7,206.7,0,0,0,103.18-27.72,5,5,0,1,1,5,8.66A216.69,216.69,0,0,1,258.49,471.21Z"/><path class="cls-1" d="M152.44,75.85a5,5,0,0,1-2.51-9.33A216.85,216.85,0,0,1,258.11,37.46h.53A218.26,218.26,0,0,1,364.23,65.09a5,5,0,0,1-4.88,8.73A208.29,208.29,0,0,0,258.61,47.46h-.5A206.76,206.76,0,0,0,154.93,75.18,4.91,4.91,0,0,1,152.44,75.85Z"/><path class="cls-1" d="M465.43,96.36a7.8,7.8,0,0,1-2.69-.48,12,12,0,0,1-4-2.64c-3.19-2.94-6-6.06-8.82-9.09l-1.54-1.68c-.39-.42-.78-.88-1.18-1.34s-.63-.74-.94-1.08l-.16-.18-3.27.58c-2.27.42-4.61.84-7.06,1.12l-1.28.19c-4.75.75-13.59,2.14-16.26-4.4a7.83,7.83,0,0,1,0-5.44,75.72,75.72,0,0,1,5.87-12.85l.81-1.51c.89-1.67,1.69-3.15,2.39-4.41-3.75-5.71-8.84-14.73-9.19-20.29a8.31,8.31,0,0,1,2.72-7.2,8.51,8.51,0,0,1,6.64-1.78c4.95.21,15.08,3,20.63,4.6A117.58,117.58,0,0,1,461,14.85a9.77,9.77,0,0,1,5.27-2.48,9.24,9.24,0,0,1,6.43,1.77,7.94,7.94,0,0,1,1.57,1.55,10.31,10.31,0,0,1,2,4.68,116.78,116.78,0,0,1,1.16,18.75c5.3,2.32,14.85,6.69,18.79,9.69a8.57,8.57,0,0,1,3.95,5.64,8.31,8.31,0,0,1-2.54,7.27c-3.78,4-13.29,7.61-19.82,9.59a85,85,0,0,1-5,19.7A7.85,7.85,0,0,1,465.43,96.36ZM447.9,69.55a5,5,0,0,1,1.71.3l.08,0A8.37,8.37,0,0,1,453.4,73l.24.32c.34.35.73.82,1.13,1.28s.63.74.94,1.07l1.56,1.7c2.38,2.6,4.64,5.08,7.07,7.41A74.69,74.69,0,0,0,468.18,67a5,5,0,0,1,3.72-4.38c6.47-1.68,13.7-4.55,17-6.64-4-2.51-13.12-6.67-18.6-9A5,5,0,0,1,467.25,42a106.39,106.39,0,0,0-.71-18.72A106,106,0,0,0,454,37.21a5,5,0,0,1-5.5,1.83c-5.68-1.74-15.36-4.4-20-5,1.19,3.73,4.9,10.57,8.78,16a5,5,0,0,1,.24,5.45c-.63,1.06-1.79,3.11-3.76,6.8l-.83,1.55a89.85,89.85,0,0,0-4.23,8.61c1.58-.11,3.43-.4,4.25-.53s1.27-.19,1.7-.24c2.12-.24,4.19-.62,6.39-1,2-.37,4.09-.75,6.26-1A4.58,4.58,0,0,1,447.9,69.55Zm-22-35.8h0Zm40.38-12.1Z"/><path class="cls-1" d="M52.4,494.67a7.27,7.27,0,0,1-3.29-.8,7.79,7.79,0,0,1-3.6-4.08,75.64,75.64,0,0,1-4.1-13.52l-.4-1.64c-.48-2-.85-3.63-1.13-4.91-6.59-1.79-16.39-5.18-20.32-9.11a8.29,8.29,0,0,1-2.74-7.2,8.51,8.51,0,0,1,3.8-5.74c3.85-3.11,13.27-7.74,18.5-10.21a118,118,0,0,1,.65-18.77,9.83,9.83,0,0,1,2.31-5.35,9.2,9.2,0,0,1,6-2.93,8.3,8.3,0,0,1,2.21.12,10.33,10.33,0,0,1,4.55,2.22A117,117,0,0,1,68.12,426c5.51-1.77,15.55-4.82,20.49-5.17a8.48,8.48,0,0,1,6.69,1.6,8.26,8.26,0,0,1,2.92,7.12c-.19,5.49-4.92,14.51-8.5,20.32A84.9,84.9,0,0,1,99,468c1.61,4.33-.18,8.65-4.25,10.27a12.06,12.06,0,0,1-4.77.69c-4.33-.09-8.55-.54-12.62-1l-2.27-.24c-.57-.06-1.18-.14-1.79-.22s-1-.14-1.4-.18l-.25,0-2.06,2.6c-1.42,1.82-2.89,3.69-4.55,5.52-.22.25-.5.59-.83,1C61.69,489.45,57.38,494.67,52.4,494.67ZM28.08,454.59c3.36,2,10.67,4.67,17.17,6.17A5,5,0,0,1,49,464.69c.24,1.22.72,3.54,1.7,7.61l.4,1.68a85.87,85.87,0,0,0,2.53,9.25c1.11-1.12,2.3-2.56,2.83-3.2s.82-1,1.12-1.31c1.42-1.59,2.72-3.24,4.1-5s2.58-3.28,4-4.92a5,5,0,0,1,2-1.37l.08,0a8.35,8.35,0,0,1,4.84-.09l.4.08c.48.05,1.08.13,1.67.21l1.43.19,2.3.24c3.51.37,6.84.72,10.21.86a75.08,75.08,0,0,0-9-15.91,5,5,0,0,1-.12-5.75c3.73-5.54,7.25-12.48,8.33-16.23-4.64.76-14.24,3.69-19.88,5.58a5,5,0,0,1-5.54-1.67,107.08,107.08,0,0,0-12.93-13.55,105.36,105.36,0,0,0-.2,18.73,5,5,0,0,1-2.91,5C41,447.56,32,452,28.08,454.59ZM26,456.09h0ZM48.23,420.3Z"/><path class="cls-1" d="M273,137a5,5,0,0,1-5-5v-1a5,5,0,0,1,10,0v1A5,5,0,0,1,273,137Z"/><path class="cls-1" d="M240,137a5,5,0,0,1-5-5v-1a5,5,0,0,1,10,0v1A5,5,0,0,1,240,137Z"/><path class="cls-1" d="M304,137a5,5,0,0,1-5-5v-1a5,5,0,0,1,10,0v1A5,5,0,0,1,304,137Z"/><path class="cls-1" d="M212,214a5,5,0,0,1-5-5.1l.63-31C194.31,164.88,187,148.3,187,131c0-39.7,38.36-72,85.5-72S358,91.3,358,131s-38.36,72-85.5,72a99,99,0,0,1-31.86-5.16L214.55,213.3A5,5,0,0,1,212,214ZM272.5,69C230.87,69,197,96.81,197,131c0,15.18,6.77,29.8,19.06,41.16a5,5,0,0,1,1.61,3.77l-.49,24.19,20.37-12.07a5,5,0,0,1,4.27-.39A89,89,0,0,0,272.5,193c41.63,0,75.5-27.81,75.5-62S314.13,69,272.5,69Z"/></g><g id="Outline"><path class="cls-1" d="M457.46,318.69a5,5,0,0,1-4.24-7.64c18.3-29.42,18.3-77.28,0-106.69a5,5,0,1,1,8.49-5.28c20.11,32.32,20.11,84.92,0,117.25A5,5,0,0,1,457.46,318.69Z"/><path class="cls-1" d="M477.77,351.34a5,5,0,0,1-4.24-7.64c29.49-47.42,29.49-124.57,0-172a5,5,0,1,1,8.49-5.28c15.21,24.45,23.59,56.87,23.59,91.28S497.23,324.53,482,349A5,5,0,0,1,477.77,351.34Z"/><path class="cls-1" d="M95,230.5a5,5,0,0,1-5-5V225a5,5,0,0,1,10,0v.5A5,5,0,0,1,95,230.5Z"/><path class="cls-1" d="M95,273.18a5,5,0,0,1-5-5v-1a5,5,0,0,1,10,0v1A5,5,0,0,1,95,273.18Zm0-21.34a5,5,0,0,1-5-5v-1a5,5,0,0,1,10,0v1A5,5,0,0,1,95,251.84Z"/><path class="cls-1" d="M95,294a5,5,0,0,1-5-5v-.5a5,5,0,0,1,10,0v.5A5,5,0,0,1,95,294Z"/><path class="cls-1" d="M235,252H181a5,5,0,0,1,0-10h54a5,5,0,0,1,0,10Z"/><path class="cls-1" d="M235,272H181a5,5,0,0,1,0-10h54a5,5,0,0,1,0,10Z"/><path class="cls-1" d="M68,168.51a4.91,4.91,0,0,1-2.19-.51,5,5,0,0,1-2.3-6.68l.45-.92a5,5,0,0,1,9,4.43l-.43.88A5,5,0,0,1,68,168.51Zm10.14-18.38a5,5,0,0,1-4.24-7.63l.53-.87a5,5,0,0,1,8.48,5.3l-.52.84A5,5,0,0,1,78.17,150.13ZM90.1,132.86a5,5,0,0,1-4-8l.62-.81a5,5,0,0,1,7.91,6.12l-.6.78A5,5,0,0,1,90.1,132.86Zm13.6-16a5,5,0,0,1-3.42-1.36,5,5,0,0,1-.22-7.07l.71-.74a5,5,0,1,1,7.24,6.89l-.66.7A5,5,0,0,1,103.7,116.87Zm15.13-14.56a5,5,0,0,1-3.29-8.77l.78-.67a5,5,0,1,1,6.52,7.58l-.73.63A5,5,0,0,1,118.83,102.31Zm16.5-13a5,5,0,0,1-2.9-9.08l.4-.28a5,5,0,1,1,5.76,8.17l-.37.27A5,5,0,0,1,135.33,89.34Z"/><path class="cls-1" d="M139,434.44a5,5,0,0,1-2.78-.84l-.86-.58a5,5,0,0,1,5.62-8.28l.8.55a5,5,0,0,1-2.78,9.15Zm-16.82-12.56a5,5,0,0,1-3.19-1.15l-.79-.66a5,5,0,1,1,6.43-7.66l.74.62a5,5,0,0,1-3.19,8.85Zm-15.49-14.17a5,5,0,0,1-3.56-1.48l-.72-.74a5,5,0,1,1,7.16-7l.68.69a5,5,0,0,1-3.56,8.51Zm-14-15.63a5,5,0,0,1-3.89-1.85l-.64-.81a5,5,0,0,1,7.8-6.25l.61.76a5,5,0,0,1-3.88,8.15ZM80.35,375.13a5,5,0,0,1-4.19-2.26l-.55-.84A5,5,0,0,1,84,366.56l.54.83a5,5,0,0,1-4.18,7.74ZM69.72,357a5,5,0,0,1-4.44-2.68l-.47-.92a5,5,0,1,1,8.89-4.57l.44.85A5,5,0,0,1,72,356.46,4.93,4.93,0,0,1,69.72,357Z"/><path class="cls-1" d="M52,237H19.5a5,5,0,0,1,0-10H52a5,5,0,0,1,0,10Z"/><path class="cls-1" d="M52,264.78H17a5,5,0,0,1,0-10H52a5,5,0,1,1,0,10Z"/><path class="cls-1" d="M52,292.56H21.17a5,5,0,0,1,0-10H52a5,5,0,0,1,0,10Z"/></g></svg>