<?xml version="1.0" ?><svg viewBox="0 0 512 512" xmlns="http://www.w3.org/2000/svg"><defs><style>.cls-1{fill:#3f456b;}</style></defs><title/><g id="Lines"><path class="cls-1" d="M425,260h-1a5,5,0,0,1,0-10h1a5,5,0,0,1,0,10Z"/><path class="cls-1" d="M65,203H64a5,5,0,1,1,0-10h1a5,5,0,0,1,0,10Z"/><path class="cls-1" d="M65,316H64a5,5,0,1,1,0-10h1a5,5,0,0,1,0,10Z"/><path class="cls-1" d="M449,203h-1a5,5,0,0,1,0-10h1a5,5,0,0,1,0,10Z"/><path class="cls-1" d="M449,316h-1a5,5,0,0,1,0-10h1a5,5,0,0,1,0,10Z"/><path class="cls-1" d="M394,260h-1a5,5,0,0,1,0-10h1a5,5,0,0,1,0,10Z"/><path class="cls-1" d="M364,260h-1a5,5,0,0,1,0-10h1a5,5,0,0,1,0,10Z"/><path class="cls-1" d="M425,100h-1a5,5,0,0,1,0-10h1a5,5,0,0,1,0,10Z"/><path class="cls-1" d="M65,43H64a5,5,0,0,1,0-10h1a5,5,0,0,1,0,10Z"/><path class="cls-1" d="M65,156H64a5,5,0,0,1,0-10h1a5,5,0,0,1,0,10Z"/><path class="cls-1" d="M449,43h-1a5,5,0,0,1,0-10h1a5,5,0,0,1,0,10Z"/><path class="cls-1" d="M449,156h-1a5,5,0,0,1,0-10h1a5,5,0,0,1,0,10Z"/><path class="cls-1" d="M394,100h-1a5,5,0,0,1,0-10h1a5,5,0,0,1,0,10Z"/><path class="cls-1" d="M364,100h-1a5,5,0,0,1,0-10h1a5,5,0,0,1,0,10Z"/><path class="cls-1" d="M425,420h-1a5,5,0,0,1,0-10h1a5,5,0,0,1,0,10Z"/><path class="cls-1" d="M65,363H64a5,5,0,1,1,0-10h1a5,5,0,0,1,0,10Z"/><path class="cls-1" d="M65,476H64a5,5,0,0,1,0-10h1a5,5,0,0,1,0,10Z"/><path class="cls-1" d="M449,363h-1a5,5,0,0,1,0-10h1a5,5,0,0,1,0,10Z"/><path class="cls-1" d="M449,476h-1a5,5,0,0,1,0-10h1a5,5,0,0,1,0,10Z"/><path class="cls-1" d="M394,420h-1a5,5,0,0,1,0-10h1a5,5,0,0,1,0,10Z"/><path class="cls-1" d="M364,420h-1a5,5,0,0,1,0-10h1a5,5,0,0,1,0,10Z"/><path class="cls-1" d="M348,341a5,5,0,0,1-5-5V323.71c0-9.6-6.87-17.71-15-17.71H183c-8.13,0-15,8.11-15,17.71V336a5,5,0,0,1-10,0V323.71c0-15.28,11.21-27.71,25-27.71H328c13.79,0,25,12.43,25,27.71V336A5,5,0,0,1,348,341Z"/><path class="cls-1" d="M451,181H60a25,25,0,0,1-25-25V36A25,25,0,0,1,60,11H451a25,25,0,0,1,25,25V156A25,25,0,0,1,451,181ZM60,21A15,15,0,0,0,45,36V156a15,15,0,0,0,15,15H451a15,15,0,0,0,15-15V36a15,15,0,0,0-15-15Z"/><path class="cls-1" d="M348,181a5,5,0,0,1-5-5V163.71c0-9.6-6.87-17.71-15-17.71H183c-8.13,0-15,8.11-15,17.71V176a5,5,0,0,1-10,0V163.71c0-15.28,11.21-27.71,25-27.71H328c13.79,0,25,12.43,25,27.71V176A5,5,0,0,1,348,181Z"/><path class="cls-1" d="M451,501H60a25,25,0,0,1-25-25V356a25,25,0,0,1,25-25H451a25,25,0,0,1,25,25V476A25,25,0,0,1,451,501ZM60,341a15,15,0,0,0-15,15V476a15,15,0,0,0,15,15H451a15,15,0,0,0,15-15V356a15,15,0,0,0-15-15Z"/><path class="cls-1" d="M348,501a5,5,0,0,1-5-5V483.71c0-9.6-6.87-17.71-15-17.71H183c-8.13,0-15,8.11-15,17.71V496a5,5,0,0,1-10,0V483.71c0-15.28,11.21-27.71,25-27.71H328c13.79,0,25,12.43,25,27.71V496A5,5,0,0,1,348,501Z"/><path class="cls-1" d="M451,341H60a25,25,0,0,1-25-25V196a25,25,0,0,1,25-25H451a25,25,0,0,1,25,25V316A25,25,0,0,1,451,341ZM60,181a15,15,0,0,0-15,15V316a15,15,0,0,0,15,15H451a15,15,0,0,0,15-15V196a15,15,0,0,0-15-15Z"/></g><g id="Outline"><path class="cls-1" d="M101,276a5,5,0,0,1-5-5V239a5,5,0,0,1,10,0v32A5,5,0,0,1,101,276Z"/><path class="cls-1" d="M226,276a5,5,0,0,1-5-5V239a5,5,0,0,1,10,0v32A5,5,0,0,1,226,276Z"/><path class="cls-1" d="M201,276a5,5,0,0,1-5-5V239a5,5,0,0,1,10,0v32A5,5,0,0,1,201,276Z"/><path class="cls-1" d="M151,276a5,5,0,0,1-5-5V239a5,5,0,0,1,10,0v32A5,5,0,0,1,151,276Z"/><path class="cls-1" d="M126,276a5,5,0,0,1-5-5V239a5,5,0,0,1,10,0v32A5,5,0,0,1,126,276Z"/><path class="cls-1" d="M176,276a5,5,0,0,1-5-5V239a5,5,0,0,1,10,0v32A5,5,0,0,1,176,276Z"/><path class="cls-1" d="M311,306a5,5,0,0,1-5-5V176a5,5,0,0,1,10,0V301A5,5,0,0,1,311,306Z"/><path class="cls-1" d="M101,116a5,5,0,0,1-5-5V79a5,5,0,0,1,10,0v32A5,5,0,0,1,101,116Z"/><path class="cls-1" d="M226,116a5,5,0,0,1-5-5V79a5,5,0,0,1,10,0v32A5,5,0,0,1,226,116Z"/><path class="cls-1" d="M201,116a5,5,0,0,1-5-5V79a5,5,0,0,1,10,0v32A5,5,0,0,1,201,116Z"/><path class="cls-1" d="M151,116a5,5,0,0,1-5-5V79a5,5,0,0,1,10,0v32A5,5,0,0,1,151,116Z"/><path class="cls-1" d="M126,116a5,5,0,0,1-5-5V79a5,5,0,0,1,10,0v32A5,5,0,0,1,126,116Z"/><path class="cls-1" d="M176,116a5,5,0,0,1-5-5V79a5,5,0,0,1,10,0v32A5,5,0,0,1,176,116Z"/><path class="cls-1" d="M311,146a5,5,0,0,1-5-5V16a5,5,0,0,1,10,0V141A5,5,0,0,1,311,146Z"/><path class="cls-1" d="M101,436a5,5,0,0,1-5-5V399a5,5,0,0,1,10,0v32A5,5,0,0,1,101,436Z"/><path class="cls-1" d="M226,436a5,5,0,0,1-5-5V399a5,5,0,0,1,10,0v32A5,5,0,0,1,226,436Z"/><path class="cls-1" d="M201,436a5,5,0,0,1-5-5V399a5,5,0,0,1,10,0v32A5,5,0,0,1,201,436Z"/><path class="cls-1" d="M151,436a5,5,0,0,1-5-5V399a5,5,0,0,1,10,0v32A5,5,0,0,1,151,436Z"/><path class="cls-1" d="M126,436a5,5,0,0,1-5-5V399a5,5,0,0,1,10,0v32A5,5,0,0,1,126,436Z"/><path class="cls-1" d="M176,436a5,5,0,0,1-5-5V399a5,5,0,0,1,10,0v32A5,5,0,0,1,176,436Z"/><path class="cls-1" d="M311,466a5,5,0,0,1-5-5V336a5,5,0,0,1,10,0V461A5,5,0,0,1,311,466Z"/></g></svg>