<?xml version="1.0" ?><svg viewBox="0 0 512 512" xmlns="http://www.w3.org/2000/svg"><defs><style>.cls-1{fill:#3f456b;}</style></defs><title/><g id="Lines"><path class="cls-1" d="M203,152a44.16,44.16,0,0,1-41.53-29.47,44,44,0,0,1,0-83.06A44.16,44.16,0,0,1,203,10a5,5,0,0,1,0,10,34.1,34.1,0,0,0-32.73,24.8,5,5,0,0,1-3.47,3.47,34,34,0,0,0,0,65.46,5,5,0,0,1,3.47,3.47A34.1,34.1,0,0,0,203,142a5,5,0,0,1,0,10Z"/><path class="cls-1" d="M471,500H299a15,15,0,0,1-15-15V154a15,15,0,0,1,15-15H471a15,15,0,0,1,15,15V485A15,15,0,0,1,471,500ZM299,149a5,5,0,0,0-5,5V485a5,5,0,0,0,5,5H471a5,5,0,0,0,5-5V154a5,5,0,0,0-5-5Z"/><path class="cls-1" d="M224,500H32a5,5,0,0,1-5-5V330a15,15,0,0,1,15-15H214a15,15,0,0,1,15,15V495A5,5,0,0,1,224,500ZM37,490H219V330a5,5,0,0,0-5-5H42a5,5,0,0,0-5,5Z"/><path class="cls-1" d="M449,149a5,5,0,0,1-5-5V121a5,5,0,0,0-5-5H331a5,5,0,0,0-5,5v23a5,5,0,0,1-10,0V121a15,15,0,0,1,15-15H439a15,15,0,0,1,15,15v23A5,5,0,0,1,449,149Z"/><path class="cls-1" d="M417,116a5,5,0,0,1-5-5V58a5,5,0,0,0-5-5H363a5,5,0,0,0-5,5v53a5,5,0,0,1-10,0V58a15,15,0,0,1,15-15h44a15,15,0,0,1,15,15v53A5,5,0,0,1,417,116Z"/><path class="cls-1" d="M372.45,84.83h-2.9a5,5,0,0,1,0-10h2.9a5,5,0,0,1,0,10Z"/><path class="cls-1" d="M431.06,271.12a120.58,120.58,0,0,1-48.82-10c-46.12-20.29-90.7-.25-91.14,0a5,5,0,1,1-4.2-9.08c2-.91,49-22.19,99.36,0,46.29,20.37,91.72.23,92.17,0a5,5,0,0,1,4.14,9.1C481.24,261.66,459.89,271.12,431.06,271.12Z"/></g><g id="Outline"><path class="cls-1" d="M292.85,65.36a4.9,4.9,0,0,1-2.25-.54l-.9-.45a5,5,0,0,1,4.51-8.92l.9.45a5,5,0,0,1-2.26,9.46Zm-18.74-9.48a5,5,0,0,1-2.25-.53l-.9-.46A5,5,0,0,1,275.47,46l.9.45a5,5,0,0,1-2.26,9.46Zm-18.74-9.47a5,5,0,0,1-2.25-.54l-.9-.45a5,5,0,0,1,4.52-8.93l.89.45a5,5,0,0,1-2.26,9.47Zm-18.74-9.48a4.9,4.9,0,0,1-2.25-.54l-.9-.45A5,5,0,0,1,238,27l.89.45a5,5,0,0,1-2.26,9.46Zm-18.74-9.48a4.9,4.9,0,0,1-2.25-.54l-.9-.45a5,5,0,0,1,4.52-8.92l.89.45a5,5,0,0,1-2.26,9.46Z"/><path class="cls-1" d="M217,143a5,5,0,0,1-2.09-9.54l.91-.42a5,5,0,0,1,4.18,9.08l-.91.42A5,5,0,0,1,217,143Zm19.08-8.77a5,5,0,0,1-2.09-9.54l.91-.42a5,5,0,0,1,4.18,9.08l-.91.42A5,5,0,0,1,236.08,134.23Zm19.08-8.77a5,5,0,0,1-2.09-9.55l.91-.41a5,5,0,0,1,4.18,9.08l-.91.42A5,5,0,0,1,255.16,125.46Zm19.08-8.78a5,5,0,0,1-2.09-9.54l.91-.42a5,5,0,0,1,4.18,9.09l-.91.41A4.88,4.88,0,0,1,274.24,116.68Zm19.08-8.77a5,5,0,0,1-2.09-9.54l.91-.42a5,5,0,0,1,4.17,9.09l-.9.41A5,5,0,0,1,293.32,107.91Z"/><path class="cls-1" d="M315,86h-1a5,5,0,0,1,0-10h1a5,5,0,0,1,0,10Zm-21,0h-1a5,5,0,0,1,0-10h1a5,5,0,0,1,0,10Zm-21,0h-1a5,5,0,0,1,0-10h1a5,5,0,0,1,0,10Zm-21,0h-1a5,5,0,0,1,0-10h1a5,5,0,0,1,0,10Zm-21,0h-1a5,5,0,0,1,0-10h1a5,5,0,0,1,0,10Zm-21,0h-1a5,5,0,0,1,0-10h1a5,5,0,0,1,0,10Zm-21,0h-1a5,5,0,0,1,0-10h1a5,5,0,0,1,0,10Z"/></g></svg>