<?xml version="1.0" ?><svg enable-background="new 0 0 512 512" version="1.1" viewBox="0 0 512 512" xml:space="preserve" xmlns="http://www.w3.org/2000/svg" xmlns:xlink="http://www.w3.org/1999/xlink"><g id="Colors"><g><g><g><g><g><path d="M257,188.125c-2.761,0-5-2.239-5-5V166c0-2.761,2.239-5,5-5s5,2.239,5,5v17.125        C262,185.886,259.761,188.125,257,188.125z" fill="#384169"/></g></g><g><g><path d="M257,445c-2.761,0-5-2.239-5-5v-17.125c0-2.761,2.239-5,5-5s5,2.239,5,5V440        C262,442.761,259.761,445,257,445z" fill="#384169"/></g></g></g><g><g><g><path d="M137.125,308H120c-2.761,0-5-2.239-5-5s2.239-5,5-5h17.125c2.761,0,5,2.239,5,5        S139.886,308,137.125,308z" fill="#384169"/></g></g><g><g><path d="M394,308h-17.125c-2.761,0-5-2.239-5-5s2.239-5,5-5H394c2.761,0,5,2.239,5,5S396.761,308,394,308z" fill="#384169"/></g></g></g></g><g><g><g><g><path d="M172.235,223.235c-1.28,0-2.559-0.488-3.536-1.464l-12.109-12.109c-1.953-1.953-1.953-5.119,0-7.071        c1.953-1.952,5.118-1.952,7.071,0l12.109,12.109c1.953,1.953,1.953,5.119,0,7.071        C174.794,222.747,173.515,223.235,172.235,223.235z" fill="#384169"/></g></g><g><g><path d="M353.874,404.874c-1.28,0-2.559-0.488-3.536-1.464L338.229,391.3c-1.953-1.953-1.953-5.119,0-7.071        c1.953-1.952,5.118-1.952,7.071,0l12.109,12.109c1.953,1.953,1.953,5.119,0,7.071        C356.433,404.385,355.153,404.874,353.874,404.874z" fill="#384169"/></g></g></g><g><g><g><path d="M160.126,404.874c-1.28,0-2.559-0.488-3.536-1.464c-1.953-1.953-1.953-5.119,0-7.071l12.109-12.109        c1.953-1.952,5.118-1.952,7.071,0c1.953,1.953,1.953,5.119,0,7.071l-12.109,12.109        C162.686,404.385,161.406,404.874,160.126,404.874z" fill="#384169"/></g></g><g><g><path d="M341.765,223.235c-1.28,0-2.559-0.488-3.536-1.464c-1.953-1.953-1.953-5.119,0-7.071l12.109-12.109        c1.953-1.952,5.118-1.952,7.071,0c1.953,1.953,1.953,5.119,0,7.071L345.3,221.771        C344.324,222.747,343.044,223.235,341.765,223.235z" fill="#384169"/></g></g></g></g></g><g><g><g><g><g><path d="M211.128,197.251c-1.962,0-3.824-1.163-4.621-3.088l-6.554-15.821        c-1.057-2.551,0.154-5.476,2.706-6.533c2.55-1.057,5.476,0.155,6.533,2.706l6.554,15.821c1.057,2.551-0.154,5.476-2.706,6.533        C212.414,197.128,211.766,197.251,211.128,197.251z" fill="#384169"/></g></g><g><g><path d="M309.43,434.573c-1.962,0-3.824-1.163-4.621-3.088l-6.554-15.821        c-1.057-2.551,0.154-5.476,2.706-6.533c2.55-1.057,5.476,0.154,6.533,2.706l6.554,15.821c1.057,2.551-0.154,5.476-2.706,6.533        C310.716,434.45,310.067,434.573,309.43,434.573z" fill="#384169"/></g></g></g><g><g><g><path d="M130.431,360.429c-1.962,0-3.824-1.163-4.621-3.088c-1.057-2.551,0.154-5.476,2.706-6.533        l15.821-6.554c2.55-1.057,5.476,0.154,6.533,2.706c1.057,2.551-0.154,5.476-2.706,6.533l-15.821,6.554        C131.717,360.306,131.068,360.429,130.431,360.429z" fill="#384169"/></g></g><g><g><path d="M367.752,262.127c-1.962,0-3.824-1.163-4.621-3.088c-1.057-2.551,0.154-5.476,2.706-6.533        l15.821-6.554c2.55-1.057,5.476,0.154,6.533,2.706c1.057,2.551-0.154,5.476-2.706,6.533l-15.821,6.554        C369.038,262.004,368.39,262.127,367.752,262.127z" fill="#384169"/></g></g></g></g><g><g><g><g><path d="M146.248,262.127c-0.638,0-1.286-0.123-1.912-0.382l-15.821-6.554        c-2.551-1.057-3.763-3.981-2.706-6.533c1.057-2.551,3.982-3.762,6.533-2.706l15.821,6.554        c2.551,1.057,3.763,3.981,2.706,6.533C150.072,260.965,148.21,262.127,146.248,262.127z" fill="#384169"/></g></g><g><g><path d="M383.569,360.429c-0.638,0-1.286-0.123-1.912-0.382l-15.821-6.554        c-2.551-1.057-3.763-3.981-2.706-6.533c1.057-2.551,3.981-3.762,6.533-2.706l15.821,6.554        c2.551,1.057,3.763,3.981,2.706,6.533C387.393,359.267,385.531,360.429,383.569,360.429z" fill="#384169"/></g></g></g><g><g><g><path d="M204.57,434.573c-0.638,0-1.286-0.123-1.912-0.382c-2.551-1.057-3.763-3.981-2.706-6.533l6.554-15.821        c1.057-2.551,3.982-3.762,6.533-2.706c2.551,1.057,3.763,3.981,2.706,6.533l-6.554,15.821        C208.394,433.41,206.532,434.573,204.57,434.573z" fill="#384169"/></g></g><g><g><path d="M302.872,197.251c-0.638,0-1.286-0.123-1.912-0.382c-2.551-1.057-3.763-3.981-2.706-6.533        l6.554-15.821c1.057-2.551,3.981-3.762,6.533-2.706s3.763,3.981,2.706,6.533l-6.554,15.821        C306.696,196.089,304.834,197.251,302.872,197.251z" fill="#384169"/></g></g></g></g></g><g><g><g><path d="M381.905,131.078c-1.274,0-2.548-0.484-3.523-1.453l-14.728-14.627c-1.959-1.946-1.97-5.111-0.024-7.071      c1.946-1.959,5.112-1.97,7.071-0.024l14.728,14.627c1.959,1.946,1.97,5.111,0.024,7.071      C384.476,130.585,383.19,131.078,381.905,131.078z" fill="#384169"/></g></g><g><g><path d="M449.313,198.032c-1.274,0-2.548-0.484-3.523-1.453l-14.162-14.065c-1.959-1.946-1.97-5.111-0.024-7.071      c1.946-1.959,5.112-1.97,7.071-0.024l14.162,14.065c1.959,1.946,1.97,5.111,0.024,7.071      C451.884,197.539,450.599,198.032,449.313,198.032z" fill="#384169"/></g></g></g><g><g><g><path d="M464.849,171.958c-0.423,0-0.853-0.054-1.281-0.167l-19.743-5.219c-2.67-0.706-4.262-3.442-3.556-6.112      c0.706-2.67,3.442-4.263,6.112-3.556l19.743,5.219c2.67,0.706,4.262,3.442,3.556,6.112      C469.087,170.476,467.063,171.958,464.849,171.958z" fill="#384169"/></g></g></g><g><g><g><path d="M445.034,147.263c-2.201,0-4.218-1.465-4.822-3.691c-0.724-2.665,0.85-5.412,3.515-6.136l19.708-5.352      c2.667-0.723,5.412,0.85,6.136,3.515c0.724,2.665-0.85,5.412-3.515,6.136l-19.708,5.352      C445.909,147.206,445.468,147.263,445.034,147.263z" fill="#384169"/></g></g></g><g><g><g><path d="M435.535,130.334c-1.274,0-2.548-0.484-3.523-1.453c-1.959-1.946-1.97-5.112-0.024-7.071l14.067-14.162      c1.945-1.959,5.112-1.97,7.071-0.024c1.959,1.946,1.97,5.112,0.024,7.071l-14.067,14.162      C438.105,129.841,436.82,130.334,435.535,130.334z" fill="#384169"/></g></g></g><g><g><g><path d="M418.343,120.745c-0.423,0-0.853-0.054-1.281-0.167c-2.67-0.706-4.262-3.442-3.556-6.112l5.219-19.743      c0.706-2.67,3.445-4.263,6.112-3.556c2.67,0.706,4.262,3.442,3.556,6.112l-5.219,19.743      C422.581,119.263,420.557,120.745,418.343,120.745z" fill="#384169"/></g></g></g><g><g><g><path d="M398.86,120.812c-2.201,0-4.218-1.465-4.822-3.691l-5.354-19.709c-0.724-2.665,0.85-5.412,3.515-6.136      c2.664-0.724,5.412,0.85,6.136,3.515l5.354,19.709c0.724,2.665-0.85,5.412-3.515,6.136      C399.735,120.754,399.294,120.812,398.86,120.812z" fill="#384169"/></g></g></g><g><g><path d="M462.379,220.662c0,3.575-2.897,6.473-6.473,6.473c-3.574,0-6.473-2.898-6.473-6.473     c0-3.575,2.898-6.474,6.473-6.474C459.482,214.189,462.379,217.087,462.379,220.662z" fill="#384169"/></g></g><g><g><path d="M46.616,379.526c0-3.575,2.896-6.473,6.473-6.473c3.574,0,6.473,2.898,6.473,6.473S56.663,386,53.089,386     C49.513,386,46.616,383.101,46.616,379.526z" fill="#384169"/></g></g><g><g><path d="M324.059,368.001c0.099,3.573-2.716,6.55-6.291,6.65c-3.573,0.099-6.551-2.718-6.65-6.291     c-0.099-3.573,2.718-6.551,6.291-6.65C320.984,361.61,323.96,364.428,324.059,368.001z" fill="#384169"/></g></g><g><g><g><path d="M195.565,384.655c-0.798,0-1.607-0.191-2.359-0.595c-2.434-1.306-3.348-4.336-2.043-6.77      c5.597-10.434,14.811-16.634,25.279-17.012c8.196-0.29,14.251,3.194,20.103,6.569c0.717,0.414,1.44,0.831,2.174,1.245      c5.488,3.094,11.305,4.044,16.659,3.033c-0.751-0.62-1.453-1.276-2.102-1.967c-4.441-4.729-5.857-10.748-3.885-16.514      c2.626-7.679,8.616-12.757,16.022-13.585c6.364-0.708,12.448,2.042,15.509,7.011c2.002,3.249,4.396,10.179-2.064,20.091      c-0.583,0.894-1.197,1.751-1.839,2.571c5.926,0.549,13.024,0.02,20.932-2.143c2.665-0.727,5.414,0.84,6.142,3.503      s-0.84,5.414-3.503,6.142c-11.92,3.262-23.713,3.435-33.104,0.86c-9.954,5.806-22.486,6.019-33.678-0.292      c-0.763-0.43-1.514-0.863-2.259-1.293c-5.261-3.034-9.415-5.434-14.746-5.238c-6.822,0.246-12.956,4.527-16.827,11.745      C199.074,383.698,197.349,384.655,195.565,384.655z M267.399,348.949c-0.289,0-0.581,0.016-0.875,0.049      c-1.662,0.186-5.737,1.229-7.671,6.883c-0.778,2.273-0.218,4.377,1.712,6.431c1.283,1.366,3.091,2.62,5.36,3.661      c1.694-1.476,3.229-3.237,4.555-5.271c2.52-3.866,3.223-7.286,1.929-9.385C271.504,349.847,269.557,348.949,267.399,348.949z" fill="#384169"/></g></g></g></g><g id="Lines"><g><g><path d="M256.5,500C148.149,500,60,411.851,60,303.5S148.149,107,256.5,107S453,195.149,453,303.5     S364.851,500,256.5,500z M256.5,117C153.664,117,70,200.664,70,303.5S153.664,490,256.5,490S443,406.336,443,303.5     S359.336,117,256.5,117z" fill="#384169"/></g></g><g><g><path d="M256.5,469C165.243,469,91,394.757,91,303.5S165.243,138,256.5,138S422,212.243,422,303.5     S347.757,469,256.5,469z M256.5,148C170.757,148,101,217.757,101,303.5S170.757,459,256.5,459S412,389.243,412,303.5     S342.243,148,256.5,148z" fill="#384169"/></g></g><g><g><g><path d="M37.059,499.001c-1.969,0-3.863-0.608-5.492-2.199c-1.884-1.843-2.116-4.17-2.215-5.165      c-0.524-5.244-0.097-10.333,0.316-15.255l0.155-1.868c0.173-2.154,0.341-4.046,0.501-5.661      c-6.161-4.018-15.241-10.851-17.972-16.22c-1.81-3.558-1.216-6.296-0.398-7.967c1.446-2.955,4.277-4.059,5.603-4.426      c5.025-1.92,16.752-3.57,22.737-4.323c2.369-8.801,5.865-16.947,7.037-19.361c1.005-2.07,2.354-3.604,4.007-4.561      c1.985-1.148,4.548-1.509,6.856-0.964c0.737,0.174,1.456,0.454,2.14,0.832c1.459,0.802,2.736,2.04,3.792,3.674      c1.455,2.255,5.908,9.919,9.322,18.373c6.031,0.025,17.871,0.249,23.092,1.549c1.361,0.204,4.305,0.958,6.096,3.718      c1.013,1.56,1.934,4.206,0.565,7.957c-2.041,5.596-10.073,13.364-15.697,18.112c2.074,7.177,3.236,14.393,3.544,21.957      c0.197,4.849-2.864,8.433-7.446,8.716c-1.951,0.124-3.599-0.384-4.988-0.869c-4.431-1.546-8.627-3.424-12.684-5.241      l-2.245-1.003c-0.561-0.249-1.154-0.537-1.747-0.827c-0.478-0.233-0.955-0.467-1.408-0.669c-0.129-0.057-0.277-0.13-0.44-0.214      c-1.065,0.682-2.125,1.391-3.221,2.125c-2.071,1.386-4.213,2.819-6.525,4.148c-0.313,0.18-0.724,0.443-1.208,0.75      C46.167,496.001,41.432,499.001,37.059,499.001z M22.052,449.26c2.565,3.192,9.608,8.798,16.164,12.745      c1.695,1.02,2.629,2.943,2.382,4.906c-0.167,1.332-0.443,3.871-0.808,8.405l-0.157,1.902c-0.323,3.851-0.631,7.526-0.489,11.12      c1.694-0.799,3.772-2.116,4.642-2.667c0.631-0.399,1.169-0.738,1.577-0.972c2.017-1.159,3.925-2.436,5.946-3.789      c1.843-1.233,3.75-2.509,5.781-3.714c0.684-0.406,1.454-0.643,2.248-0.691l0.096-0.006c1.991-0.123,3.625,0.807,4.824,1.482      c0.149,0.084,0.286,0.164,0.4,0.221c0.493,0.218,1.081,0.503,1.667,0.79c0.481,0.235,0.963,0.471,1.419,0.674l2.272,1.015      c3.714,1.663,7.239,3.241,10.91,4.576c-0.472-6.951-1.769-13.572-3.945-20.2c-0.658-2.003,0.012-4.204,1.674-5.501      c6.032-4.708,12.348-11.124,14.509-14.602c-4.781-0.867-16.371-1.105-23.11-1.039c-0.016,0-0.032,0-0.048,0      c-2.109,0-3.993-1.324-4.706-3.312c-2.972-8.291-7.61-16.453-9.243-19.11c-1.299,2.833-4.919,11.499-6.87,20.085      c-0.472,2.075-2.205,3.625-4.32,3.861C38.165,446.191,26.69,447.825,22.052,449.26z M20.039,449.919L20.039,449.919      L20.039,449.919z M55.414,420.561L55.414,420.561L55.414,420.561z M56.598,420.463L56.598,420.463L56.598,420.463z" fill="#384169"/></g></g></g><g><g><g><path d="M462.22,101.472c-1.036,0-2.104-0.212-3.167-0.652c-1.811-0.75-3.066-1.926-4.101-2.97      c-3.302-3.331-6.247-6.857-9.094-10.267l-1.583-1.892c-0.396-0.471-0.802-0.99-1.208-1.51c-0.327-0.419-0.653-0.839-0.972-1.219      c-0.091-0.108-0.193-0.239-0.302-0.385c-1.257,0.146-2.521,0.318-3.83,0.497c-2.468,0.337-5.02,0.685-7.68,0.865      c-0.36,0.024-0.844,0.08-1.413,0.144c-5.07,0.563-14.502,1.611-16.967-5.296c-0.885-2.479-0.073-4.674,0.273-5.611      c1.83-4.941,4.444-9.325,6.972-13.564l0.964-1.622c1.101-1.859,2.08-3.484,2.932-4.864c-3.774-6.313-8.937-16.438-9.036-22.46      c-0.066-3.992,1.669-6.192,3.137-7.334c2.595-2.022,5.623-1.772,6.977-1.52c5.358,0.479,16.621,4.14,22.329,6.088      c5.988-6.869,12.705-12.657,14.816-14.312c1.811-1.418,3.695-2.206,5.603-2.341c2.29-0.163,4.75,0.64,6.585,2.143      c0.579,0.473,1.103,1.039,1.555,1.681c0.962,1.365,1.567,3.038,1.798,4.971c0.318,2.664,0.958,11.505,0.318,20.598      c5.409,2.669,15.951,8.063,20.072,11.521c1.133,0.781,3.448,2.75,3.848,6.015c0.226,1.846-0.107,4.628-2.982,7.399      c-4.291,4.135-14.916,7.592-22.051,9.391c-1.285,7.361-3.405,14.356-6.446,21.287      C468.106,99.582,465.312,101.471,462.22,101.472z M443.846,72.348c0.652,0,1.3,0.127,1.905,0.377l0.089,0.037      c1.844,0.767,2.915,2.32,3.697,3.455c0.097,0.14,0.185,0.272,0.263,0.374c0.347,0.411,0.749,0.925,1.151,1.44      c0.33,0.422,0.658,0.846,0.979,1.228l1.602,1.915c2.607,3.122,5.08,6.083,7.792,8.892c2.625-6.453,4.363-12.972,5.315-19.884      c0.288-2.089,1.855-3.773,3.917-4.209c7.486-1.584,15.976-4.579,19.443-6.757c-3.914-2.874-14.224-8.17-20.312-11.072      c-1.921-0.915-3.052-2.946-2.819-5.062c0.965-8.753,0.378-18.124,0.076-21.228c-2.412,1.977-9.467,8.176-14.984,15.036      c-1.334,1.659-3.573,2.291-5.576,1.576c-6.353-2.266-17.381-5.831-22.179-6.575c0.904,3.993,4.775,12.121,8.936,18.543      c1.076,1.661,1.071,3.799-0.011,5.455c-0.734,1.123-2.095,3.282-4.411,7.196l-0.981,1.649c-1.978,3.316-3.865,6.481-5.313,9.772      c1.88,0.021,4.318-0.247,5.341-0.361c0.742-0.083,1.375-0.15,1.843-0.182c2.319-0.157,4.594-0.467,7.002-0.796      c2.199-0.3,4.473-0.61,6.829-0.802C443.575,72.354,443.711,72.348,443.846,72.348z M491.681,60.493      c0.002,0.001,0.004,0.002,0.006,0.003C491.686,60.495,491.684,60.494,491.681,60.493z M491.676,60.49      c0.001,0,0.002,0.001,0.003,0.002C491.679,60.491,491.678,60.49,491.676,60.49z M422.107,31.599L422.107,31.599L422.107,31.599      L422.107,31.599z" fill="#384169"/></g></g></g><g><g><g><path d="M256,288c-2.761,0-5-2.239-5-5v-75.67c0-2.761,2.239-5,5-5s5,2.239,5,5V283      C261,285.761,258.761,288,256,288z" fill="#384169"/></g></g></g><g><g><g><path d="M245.005,291.001c-1.689,0-3.338-0.856-4.279-2.406l-59.535-98.06c-1.433-2.36-0.681-5.436,1.679-6.869      c2.36-1.433,5.436-0.681,6.869,1.679l59.535,98.06c1.433,2.36,0.681,5.436-1.679,6.869      C246.784,290.766,245.889,291.001,245.005,291.001z" fill="#384169"/></g></g></g><g><g><path d="M153.021,107.012c-2.761,0-5-2.239-5-5v-55.35c0-2.761,2.239-5,5-5s5,2.239,5,5v55.35     C158.021,104.773,155.783,107.012,153.021,107.012z" fill="#384169"/></g></g><g><g><path d="M176.995,93.175c-0.848,0-1.707-0.216-2.494-0.67L126.543,64.83c-2.392-1.38-3.212-4.438-1.832-6.83     c1.379-2.392,4.437-3.214,6.83-1.832l47.958,27.675c2.392,1.38,3.212,4.438,1.832,6.83     C180.405,92.278,178.724,93.175,176.995,93.175z" fill="#384169"/></g></g><g><g><path d="M129.047,93.175c-1.729,0-3.41-0.897-4.335-2.502c-1.38-2.392-0.56-5.449,1.832-6.83l47.958-27.675     c2.392-1.381,5.45-0.56,6.83,1.832c1.38,2.392,0.56,5.449-1.832,6.83l-47.958,27.675     C130.754,92.959,129.895,93.175,129.047,93.175z" fill="#384169"/></g></g><g><g><g><path d="M256,324c-12.682,0-23-10.318-23-23s10.318-23,23-23s23,10.318,23,23S268.682,324,256,324z M256,288      c-7.168,0-13,5.832-13,13s5.832,13,13,13s13-5.832,13-13S263.168,288,256,288z" fill="#384169"/></g></g></g><g><g><path d="M294,120c-2.761,0-5-2.239-5-5V88c0-2.757-2.243-5-5-5h-54c-2.757,0-5,2.243-5,5v27c0,2.761-2.239,5-5,5     s-5-2.239-5-5V88c0-8.271,6.729-15,15-15h54c8.271,0,15,6.729,15,15v27C299,117.761,296.761,120,294,120z" fill="#384169"/></g></g><g><g><path d="M279.908,81.092c-1.28,0-2.559-0.488-3.536-1.464c-1.953-1.953-1.953-5.119,0-7.071     c5.442-5.442,8.439-12.677,8.439-20.373s-2.997-14.931-8.439-20.373c-11.233-11.233-29.512-11.233-40.745,0     c-5.442,5.442-8.439,12.677-8.439,20.373s2.997,14.931,8.439,20.373c1.953,1.953,1.953,5.119,0,7.071     c-1.953,1.952-5.118,1.952-7.071,0c-7.331-7.331-11.368-17.077-11.368-27.444c0-10.367,4.037-20.113,11.368-27.444     c15.133-15.133,39.755-15.132,54.888,0c7.331,7.331,11.368,17.077,11.368,27.444c0,10.367-4.037,20.113-11.368,27.444     C282.467,80.604,281.188,81.092,279.908,81.092z" fill="#384169"/></g></g><g><g><path d="M270,83c-2.761,0-5-2.239-5-5V54.486c-1.01-0.788-4.111-1.986-8.5-1.986s-7.49,1.198-8.5,1.986V78     c0,2.761-2.239,5-5,5s-5-2.239-5-5V53.78c0-6.536,7.78-11.28,18.5-11.28S275,47.244,275,53.78V78C275,80.761,272.761,83,270,83z" fill="#384169"/></g></g><g><g><path d="M58.005,215.001c-0.31,0-0.625-0.029-0.941-0.089c-15.5-2.953-28.402-13.673-34.512-28.677     c-5.86-14.393-4.276-29.736,4.348-42.096c2.341-3.356,4.869-6.502,7.564-9.424c-3.793-5.557-6.296-11.92-7.403-18.937     c-2.162-13.691,1.303-27.163,9.415-37.946c-4.195-6.217-6.224-13.603-5.451-21.33c2.664-26.641,25.364-38.079,36.995-40.405     c2.705-0.541,5.342,1.214,5.883,3.922c0.541,2.703-1.208,5.332-3.907,5.88l0,0c-1.078,0.223-26.436,5.752-29.021,31.598     c-0.412,4.122,0.371,8.581,2.534,12.707c0.777-0.692,1.579-1.367,2.405-2.021c12.403-9.825,31.308-17.663,47.171-10.192     c6.471,3.048,10.198,8.73,9.971,15.199c-0.227,6.474-3.098,11.93-8.3,15.778c-10.292,7.611-26.681,6.979-35.187,4.697     c-6.265-1.681-11.754-4.544-16.209-8.255c-5.689,8.37-8.047,18.519-6.422,28.81c0.837,5.305,2.62,9.738,4.888,13.423     c8.312-7.06,17.837-12.302,28.228-15.47c12.069-3.68,34.337-7.818,47.877,5.813c4.61,4.641,6.378,10.462,4.977,16.39     c-2.204,9.321-11.678,16.997-19.897,19.762c-17.697,5.952-38.182,3.897-53.462-5.364c-3.141-1.904-5.983-4.049-8.514-6.417     c-2.1,2.346-4.082,4.85-5.933,7.504c-6.647,9.527-7.845,21.41-3.287,32.603c4.826,11.852,14.965,20.31,27.122,22.625     c2.713,0.517,4.493,3.135,3.976,5.847C62.455,213.332,60.358,215.001,58.005,215.001z M48.211,135.346     c2.184,2.007,4.434,3.611,6.52,4.876c12.832,7.777,30.11,9.477,45.091,4.438c5.423-1.824,12.07-7.154,13.354-12.584     c0.611-2.583-0.133-4.821-2.339-7.043c-9.844-9.911-27.95-6.319-37.865-3.295C63.871,124.512,55.516,129.124,48.211,135.346z      M49.873,77.931c3.174,2.595,7.242,4.721,12.289,6.075c8.111,2.176,20.297,1.619,26.649-3.079     c2.742-2.028,4.133-4.674,4.252-8.089c0.109-3.093-2.245-4.862-4.238-5.801c-7.687-3.621-21.367-3.162-36.701,8.984     C51.347,76.637,50.596,77.274,49.873,77.931z" fill="#384169"/></g></g><g><g><path d="M471.215,500.001c-0.362,0-0.73-0.04-1.099-0.122c-20.413-4.581-34.354-18.432-37.294-37.051     c-1.757-11.134,1.222-23.242,7.921-33.453c-3.42-6.284-5.034-13.53-4.295-20.917c2.463-24.633,23.45-35.209,34.203-37.36     c2.705-0.543,5.342,1.214,5.883,3.922c0.541,2.703-1.208,5.333-3.909,5.881c-1.019,0.211-23.896,5.238-26.228,28.552     c-0.383,3.833,0.154,7.66,1.444,11.229c10.737-10.655,24.598-15.545,38.061-13.42c6.462,1.021,11.851,4.502,14.785,9.55     c2.649,4.558,3.007,9.984,1.007,15.28c-5.63,14.907-24.923,19.887-39.411,15.184c-5.837-1.895-10.962-5.126-15.085-9.258     c-4.019,7.395-5.7,15.646-4.499,23.252c2.276,14.417,13.343,25.204,29.605,28.853c2.694,0.605,4.389,3.279,3.784,5.974     C475.568,498.42,473.503,500.001,471.215,500.001z M453.132,429.623c3.223,3.687,7.42,6.575,12.24,8.14     c4.952,1.608,10.977,1.616,16.115,0.025c3.806-1.179,8.778-3.738,10.853-9.23c0.943-2.498,0.844-4.759-0.297-6.721     c-1.395-2.4-4.273-4.156-7.7-4.697c-10.322-1.631-21.105,2.291-29.575,10.759C454.205,428.46,453.66,429.035,453.132,429.623z" fill="#384169"/></g></g><g><g><path d="M32.021,261.673c-2.761,0-5-2.239-5-5V228c0-2.761,2.239-5,5-5s5,2.239,5,5v28.673     C37.021,259.435,34.783,261.673,32.021,261.673z" fill="#384169"/></g></g><g><g><path d="M44.438,254.506c-0.848,0-1.707-0.216-2.494-0.67l-24.844-14.336c-2.392-1.38-3.212-4.438-1.832-6.83     c1.379-2.391,4.437-3.213,6.83-1.832l24.844,14.336c2.392,1.38,3.212,4.438,1.832,6.83     C47.848,253.608,46.167,254.506,44.438,254.506z" fill="#384169"/></g></g><g><g><path d="M19.604,254.506c-1.729,0-3.41-0.897-4.335-2.502c-1.38-2.392-0.56-5.45,1.832-6.83l24.844-14.336     c2.391-1.38,5.45-0.56,6.83,1.832c1.38,2.392,0.56,5.45-1.832,6.83l-24.844,14.336C21.312,254.29,20.452,254.506,19.604,254.506z     " fill="#384169"/></g></g><g><g><path d="M480.021,354.673c-2.761,0-5-2.239-5-5V321c0-2.761,2.239-5,5-5s5,2.239,5,5v28.673     C485.021,352.435,482.783,354.673,480.021,354.673z" fill="#384169"/></g></g><g><g><path d="M492.438,347.506c-0.848,0-1.707-0.216-2.494-0.67l-24.844-14.336c-2.392-1.38-3.212-4.438-1.832-6.83     c1.379-2.392,4.437-3.213,6.83-1.832l24.844,14.336c2.392,1.38,3.212,4.438,1.832,6.83     C495.848,346.608,494.167,347.506,492.438,347.506z" fill="#384169"/></g></g><g><g><path d="M467.604,347.506c-1.729,0-3.41-0.897-4.335-2.502c-1.38-2.392-0.56-5.45,1.832-6.83l24.844-14.336     c2.391-1.38,5.449-0.56,6.83,1.832s0.56,5.45-1.832,6.83l-24.844,14.336C469.312,347.29,468.452,347.506,467.604,347.506z" fill="#384169"/></g></g><g><g><path d="M336.021,82.673c-2.761,0-5-2.239-5-5V49c0-2.761,2.239-5,5-5s5,2.239,5,5v28.673     C341.021,80.435,338.783,82.673,336.021,82.673z" fill="#384169"/></g></g><g><g><path d="M348.438,75.506c-0.848,0-1.707-0.216-2.494-0.67l-24.844-14.336c-2.392-1.38-3.212-4.438-1.832-6.83     c1.379-2.392,4.437-3.213,6.83-1.832l24.844,14.336c2.392,1.38,3.212,4.438,1.832,6.83     C351.848,74.608,350.167,75.506,348.438,75.506z" fill="#384169"/></g></g><g><g><path d="M323.604,75.506c-1.729,0-3.41-0.897-4.335-2.502c-1.38-2.392-0.56-5.45,1.832-6.83l24.844-14.336     c2.391-1.38,5.449-0.56,6.83,1.832s0.56,5.45-1.832,6.83l-24.844,14.336C325.312,75.29,324.452,75.506,323.604,75.506z" fill="#384169"/></g></g><g><g><path d="M471.006,303c-0.172,0-0.346-0.009-0.521-0.027c-2.747-0.284-4.743-2.741-4.459-5.488     c2.842-27.47-6.64-54.537-6.736-54.807c-0.925-2.601,0.432-5.46,3.032-6.387c2.598-0.927,5.458,0.427,6.387,3.027     c0.424,1.187,10.346,29.411,7.265,59.196C475.708,301.086,473.536,303,471.006,303z" fill="#384169"/></g></g><g><g><path d="M44.994,364.188c-2.053,0-3.977-1.274-4.707-3.318c-0.424-1.187-10.346-29.411-7.265-59.196     c0.284-2.746,2.74-4.739,5.488-4.459c2.747,0.284,4.743,2.741,4.459,5.488c-2.842,27.47,6.64,54.537,6.736,54.807     c0.925,2.601-0.432,5.46-3.032,6.387C46.118,364.095,45.551,364.188,44.994,364.188z" fill="#384169"/></g></g></g></svg>