<?xml version="1.0" ?><svg viewBox="0 0 512 512" xmlns="http://www.w3.org/2000/svg"><defs><style>.cls-1{fill:#3f456b;}.cls-2{opacity:0.7;}</style></defs><title/><g id="Lines"><path class="cls-1" d="M231.5,409.5a101,101,0,1,1,101-101A101.12,101.12,0,0,1,231.5,409.5Zm0-192a91,91,0,1,0,91,91A91.1,91.1,0,0,0,231.5,217.5Z"/><path class="cls-1" d="M133.13,233.78a5,5,0,0,1-3.88-8.14,132,132,0,0,1,79.43-47.09,5,5,0,0,1,1.75,9.85A121.9,121.9,0,0,0,137,231.92,5,5,0,0,1,133.13,233.78Z"/><path class="cls-1" d="M330.17,232.92a5,5,0,0,1-3.87-1.83,121.94,121.94,0,0,0-73.51-42.83,5,5,0,1,1,1.69-9.85A132,132,0,0,1,334,224.74a5,5,0,0,1-3.86,8.18Z"/><path class="cls-1" d="M251,187a5,5,0,0,1-5-4.38l-4-32a4.3,4.3,0,0,1,0-.62,5,5,0,0,0-5-5H226a5,5,0,0,0-5,5,4.3,4.3,0,0,1,0,.62l-4,32a5,5,0,1,1-9.92-1.24l4-31.72A15,15,0,0,1,226,135h11a15,15,0,0,1,15,14.66l4,31.72a5,5,0,0,1-4.34,5.58A4.44,4.44,0,0,1,251,187Z"/><path class="cls-1" d="M237,482H226a15,15,0,0,1-15-14.66l-4-31.72a5,5,0,1,1,9.92-1.24l4,32a4.3,4.3,0,0,1,0,.62,5,5,0,0,0,5,5h11a5,5,0,0,0,5-5,4.3,4.3,0,0,1,0-.62l4-32a5,5,0,1,1,9.92,1.24l-4,31.72A15,15,0,0,1,237,482Z"/><path class="cls-1" d="M112.19,267.14a4.93,4.93,0,0,1-3-1L83.69,246.83a15,15,0,0,1-5.2-20.32L84,217a15,15,0,0,1,20.2-5.66l29.45,12.43a5,5,0,1,1-3.89,9.21L100,220.43a5.77,5.77,0,0,1-.56-.27A5,5,0,0,0,92.65,222l-5.5,9.52a5,5,0,0,0-.5,3.8,5,5,0,0,0,2.33,3,4.72,4.72,0,0,1,.52.35l25.71,19.46a5,5,0,0,1-3,9Z"/><path class="cls-1" d="M366,407.52a14.83,14.83,0,0,1-7.18-1.85l-29.45-12.43a5,5,0,1,1,3.89-9.21L363,396.57a5.6,5.6,0,0,1,.55.27,5,5,0,0,0,3.8.5,4.9,4.9,0,0,0,3-2.33l5.5-9.52a5,5,0,0,0-1.83-6.83,4.59,4.59,0,0,1-.51-.35l-25.72-19.46a5,5,0,1,1,6-8l25.49,19.29a15,15,0,0,1,5.2,20.32L379,400a14.85,14.85,0,0,1-9.1,7A15,15,0,0,1,366,407.52Z"/><path class="cls-1" d="M97,407.52A15.07,15.07,0,0,1,84,400l-5.5-9.52a15,15,0,0,1,5.2-20.32l25.49-19.29a5,5,0,1,1,6,8L89.5,378.31a4.72,4.72,0,0,1-.52.35,5,5,0,0,0-1.83,6.83l5.5,9.52a5,5,0,0,0,6.83,1.83,5.77,5.77,0,0,1,.56-.27L129.75,384a5,5,0,1,1,3.89,9.21l-29.45,12.43A14.85,14.85,0,0,1,97,407.52Z"/><path class="cls-1" d="M350.81,267.14a5,5,0,0,1-3-9l25.72-19.46a4.72,4.72,0,0,1,.52-.35,5,5,0,0,0,1.83-6.83L370.34,222a4.9,4.9,0,0,0-3-2.33,5,5,0,0,0-3.8.5,5.6,5.6,0,0,1-.55.27L333.25,233a5,5,0,1,1-3.89-9.21l29.45-12.43A15,15,0,0,1,379,217l5.5,9.52a15,15,0,0,1-5.2,20.32l-25.49,19.29A4.93,4.93,0,0,1,350.81,267.14Z"/><path class="cls-1" d="M113.56,359.44a5,5,0,0,1-4.66-3.19,132.5,132.5,0,0,1-.53-94.09,5,5,0,1,1,9.36,3.51,122.54,122.54,0,0,0,.49,87,5,5,0,0,1-4.66,6.81Z"/><path class="cls-1" d="M211.48,438.85a5.49,5.49,0,0,1-.8-.06,131.67,131.67,0,0,1-82.07-48.22,5,5,0,1,1,7.83-6.22,121.71,121.71,0,0,0,75.84,44.57,5,5,0,0,1-.8,9.93Z"/><path class="cls-1" d="M251.15,439.07a5,5,0,0,1-.75-9.95,121.66,121.66,0,0,0,76.35-43.76,5,5,0,0,1,7.77,6.3A131.64,131.64,0,0,1,251.9,439,4.84,4.84,0,0,1,251.15,439.07Z"/><path class="cls-1" d="M350.25,359.92a5.11,5.11,0,0,1-1.83-.34,5,5,0,0,1-2.83-6.49,122.46,122.46,0,0,0,.65-87.5,5,5,0,0,1,9.36-3.52,132.49,132.49,0,0,1-.7,94.68A5,5,0,0,1,350.25,359.92Z"/><path class="cls-1" d="M415.11,502H47.88c-9.73,0-17.74-3.25-23.8-9.65C11.47,479,12.17,456.53,12.27,454.25c0-134.16,45.87-240.84,46.33-241.9S69.8,188,95.22,188H177a5,5,0,0,1,0,10H95.22c-19,0-27.39,18.21-27.48,18.39-.43,1-45.47,105.94-45.47,238v.28c0,.2-1,20.24,9.1,30.85,4.15,4.37,9.55,6.5,16.51,6.5H415.11c7,0,12.41-2.14,16.57-6.53,10.08-10.65,9.11-30.5,9.1-30.7v-.27c0-132.16-45-237-45.44-238a.69.69,0,0,1,0-.13C395,215.64,387.8,199,364.46,199H289a5,5,0,0,1,0-10h75.46c29.72,0,39.35,21.78,40.07,23.52,1.28,3,46.22,108.92,46.25,241.85.1,2.25.78,24.65-11.83,38C432.88,498.75,424.86,502,415.11,502Z"/><path class="cls-1" d="M391.5,102H55.5c-19,0-28.29-10.17-32.69-18.71A45.48,45.48,0,0,1,18,65.08V17a5,5,0,0,1,5-5H424a5,5,0,0,1,5,5V65a45.43,45.43,0,0,1-4.81,18.29C419.79,91.83,410.55,102,391.5,102ZM28,65a35.68,35.68,0,0,0,3.84,14c4.57,8.63,12.53,13,23.66,13h336c11.13,0,19.09-4.38,23.66-13A35.53,35.53,0,0,0,419,64.9V22H28V65Z"/><path class="cls-1" d="M184,195a5,5,0,0,1-5-5V145h-5.33a13.64,13.64,0,0,1-10-4c-4.7-4.79-4.7-12-4.69-12.78V97a5,5,0,0,1,10,0v31.33c0,1,.33,4.18,1.85,5.7a3.61,3.61,0,0,0,2.82,1H184a5,5,0,0,1,5,5v50A5,5,0,0,1,184,195Z"/><path class="cls-1" d="M279,195a5,5,0,0,1-5-5V140a5,5,0,0,1,5-5h10.33a3.61,3.61,0,0,0,2.82-1c1.52-1.52,1.85-4.67,1.85-5.65V97a5,5,0,0,1,10,0v31.33c0,.71,0,7.9-4.69,12.69a13.64,13.64,0,0,1-10,4H284v45A5,5,0,0,1,279,195Z"/><path class="cls-1" d="M485,327H457a15,15,0,0,1-15-15V236a15,15,0,0,1,15-15h28a15,15,0,0,1,15,15v76A15,15,0,0,1,485,327Zm-28-96a5,5,0,0,0-5,5v76a5,5,0,0,0,5,5h28a5,5,0,0,0,5-5V236a5,5,0,0,0-5-5Z"/><path class="cls-1" d="M447,258H414a5,5,0,0,1,0-10h33a5,5,0,0,1,0,10Z"/><path class="cls-1" d="M447,296H425a5,5,0,0,1,0-10h22a5,5,0,0,1,0,10Z"/><g class="cls-2"><rect class="cls-1" height="10" width="49" x="447" y="269"/><rect class="cls-1" height="10" width="49" x="447" y="244"/><rect class="cls-1" height="10" width="49" x="447" y="294"/></g></g><g id="Outline"><path class="cls-1" d="M303,313h-.91a5,5,0,1,1,0-10H303a5,5,0,0,1,0,10Z"/><path class="cls-1" d="M275,279h-.9a5,5,0,1,1,0-10h.9a5,5,0,1,1,0,10Z"/><path class="cls-1" d="M275,313h-.9a5,5,0,1,1,0-10h.9a5,5,0,1,1,0,10Z"/><path class="cls-1" d="M275,347h-.9a5,5,0,1,1,0-10h.9a5,5,0,1,1,0,10Z"/><path class="cls-1" d="M246.93,245H246a5,5,0,1,1,0-10h.91a5,5,0,0,1,0,10Z"/><path class="cls-1" d="M246.93,279H246a5,5,0,1,1,0-10h.91a5,5,0,1,1,0,10Z"/><path class="cls-1" d="M246.93,313H246a5,5,0,1,1,0-10h.91a5,5,0,1,1,0,10Z"/><path class="cls-1" d="M246.93,347H246a5,5,0,1,1,0-10h.91a5,5,0,1,1,0,10Z"/><path class="cls-1" d="M246.93,381H246a5,5,0,1,1,0-10h.91a5,5,0,1,1,0,10Z"/><path class="cls-1" d="M218.89,245H218a5,5,0,0,1,0-10h.9a5,5,0,0,1,0,10Z"/><path class="cls-1" d="M218.89,279H218a5,5,0,0,1,0-10h.9a5,5,0,0,1,0,10Z"/><path class="cls-1" d="M218.89,313H218a5,5,0,0,1,0-10h.9a5,5,0,0,1,0,10Z"/><path class="cls-1" d="M218.89,347H218a5,5,0,0,1,0-10h.9a5,5,0,0,1,0,10Z"/><path class="cls-1" d="M218.89,381H218a5,5,0,0,1,0-10h.9a5,5,0,0,1,0,10Z"/><path class="cls-1" d="M190.86,279H190a5,5,0,0,1,0-10h.91a5,5,0,0,1,0,10Z"/><path class="cls-1" d="M190.86,313H190a5,5,0,0,1,0-10h.91a5,5,0,0,1,0,10Z"/><path class="cls-1" d="M190.86,347H190a5,5,0,0,1,0-10h.91a5,5,0,0,1,0,10Z"/><path class="cls-1" d="M162.82,313h-.9a5,5,0,1,1,0-10h.9a5,5,0,0,1,0,10Z"/></g></svg>