<?xml version="1.0" ?><svg viewBox="0 0 512 512" xmlns="http://www.w3.org/2000/svg"><defs><style>.cls-1{fill:#3f456b;}</style></defs><title/><g id="Lines"><path class="cls-1" d="M463.65,469.07c-.86,0-1.5,0-1.87-.07H56c-13.31,0-23.92-4.21-31.56-12.51-13.78-15-12.63-38-12.44-40.68V95.5A5,5,0,0,1,13.48,92a4.9,4.9,0,0,1,3.57-1.45l43,.45.45-43a5,5,0,0,1,5-5H426a5,5,0,0,1,5,5V416c0,.1,0,.21,0,.31s-1.19,22.38,10.33,34.61c5.12,5.44,11.89,8.08,20.68,8.08h0a5.07,5.07,0,0,1,.55,0,24.57,24.57,0,0,0,17.64-6.33C488,445.63,492,433.28,492,416V133H473.14a5,5,0,0,1,0-10H497a5,5,0,0,1,5,5V416c0,20.35-5.13,35.25-15.25,44.28A35,35,0,0,1,463.65,469.07ZM22,100.55V416c0,.14,0,.28,0,.42s-1.53,21,9.85,33.34C37.49,455.89,45.63,459,56,459H435.25c-.42-.41-.84-.83-1.24-1.26-14-14.94-13.14-39.39-13-41.88V53H70.45L70,96.05a5,5,0,0,1-5,5h0Z"/><path class="cls-1" d="M460,443a11.87,11.87,0,0,1-8.73-3.78c-6.59-6.88-6.4-21.22-6.27-24.32V68.5H426a5,5,0,0,1,0-10h24a5,5,0,0,1,5,5V90h18a5,5,0,0,1,5,5V414.8c.18,2.39.83,15.59-6.07,23.11A15.73,15.73,0,0,1,460,443Zm-5-343V415.22c-.23,5.35.71,14.19,3.5,17.09a1.87,1.87,0,0,0,1.5.69,5.74,5.74,0,0,0,4.55-1.84c3.57-3.88,3.7-12.89,3.47-15.74,0-.13,0-.28,0-.42V100Z"/><path class="cls-1" d="M460,443H428.73a5,5,0,0,1,0-10H460a5,5,0,0,1,0,10Z"/><path class="cls-1" d="M17,100a5,5,0,0,1-3.5-8.57l48-47a5,5,0,1,1,7,7.14l-48,47A5,5,0,0,1,17,100Z"/><path class="cls-1" d="M225,315.38a99.44,99.44,0,1,1,99.44-99.44A99.55,99.55,0,0,1,225,315.38Zm0-188.88a89.44,89.44,0,1,0,89.44,89.44A89.54,89.54,0,0,0,225,126.5Z"/><path class="cls-1" d="M225,287.88a71.94,71.94,0,1,1,71.94-71.94A72,72,0,0,1,225,287.88ZM225,154a61.94,61.94,0,1,0,61.94,61.94A62,62,0,0,0,225,154Z"/><path class="cls-1" d="M224.75,252.11c-16.37,0-27.15-8.25-27.53-21.13a5,5,0,1,1,10-.3c.31,10.53,12.75,11.5,18,11.43s10.26-2.1,12.92-5.16a8.71,8.71,0,0,0,2-7.2c-.48-3.68-2.7-6.44-12-7.95l-2.74-.43c-8.13-1.22-17.35-2.61-23.65-11.53a15.73,15.73,0,0,1-2.69-12.14,22.28,22.28,0,0,1,9.52-13.9c7-4.76,17.76-5.49,26.73-1.81a25.8,25.8,0,0,1,14.32,14.29,5,5,0,0,1-9.31,3.64,16,16,0,0,0-8.8-8.68c-5.91-2.42-13-2.08-17.32.83a12.47,12.47,0,0,0-5.3,7.41,5.78,5.78,0,0,0,1,4.59c3.65,5.17,8.83,6.19,17,7.41.95.15,1.91.29,2.86.45,4.58.74,18.51,3,20.28,16.53a18.61,18.61,0,0,1-4.41,15c-4.57,5.29-12.18,8.51-20.34,8.62Z"/><path class="cls-1" d="M224.74,189.15a5,5,0,0,1-5-5V170a5,5,0,0,1,10,0v14.15A5,5,0,0,1,224.74,189.15Z"/><path class="cls-1" d="M224.74,267a5,5,0,0,1-5-5V247.06a5,5,0,0,1,10,0V262A5,5,0,0,1,224.74,267Z"/></g><g id="Outline"><path class="cls-1" d="M187,409.94H50a5,5,0,0,1,0-10H187a5,5,0,1,1,0,10Z"/><path class="cls-1" d="M393,385.47H293a5,5,0,0,1,0-10H393a5,5,0,0,1,0,10Z"/><path class="cls-1" d="M187,434.42H50a5,5,0,0,1,0-10H187a5,5,0,1,1,0,10Z"/><path class="cls-1" d="M393,410H221a5,5,0,0,1,0-10H393a5,5,0,0,1,0,10Z"/><path class="cls-1" d="M393,360.47H335a5,5,0,0,1,0-10h58a5,5,0,0,1,0,10Z"/><path class="cls-1" d="M310,434.42H221a5,5,0,0,1,0-10h89a5,5,0,0,1,0,10Z"/><path class="cls-1" d="M392.93,434.75H335a5,5,0,0,1,0-10h57.93a5,5,0,1,1,0,10Z"/><path class="cls-1" d="M123,385H50a5,5,0,0,1-5-5V347a5,5,0,0,1,5-5h73a5,5,0,0,1,5,5v33A5,5,0,0,1,123,385ZM55,375h63V352H55Z"/><path class="cls-1" d="M404,104a5,5,0,0,1-3.54-1.46L373,75A5,5,0,0,1,380,68l27.5,27.5A5,5,0,0,1,404,104Z"/><path class="cls-1" d="M376.5,104A5,5,0,0,1,373,95.46L400.46,68A5,5,0,0,1,407.54,75L380,102.54A5,5,0,0,1,376.5,104Z"/><path class="cls-1" d="M48,322a5,5,0,0,1-5-5v-1a5,5,0,0,1,10,0v1A5,5,0,0,1,48,322Zm0-21a5,5,0,0,1-5-5v-1a5,5,0,0,1,10,0v1A5,5,0,0,1,48,301Zm0-21a5,5,0,0,1-5-5v-1a5,5,0,0,1,10,0v1A5,5,0,0,1,48,280Zm0-21a5,5,0,0,1-5-5v-1a5,5,0,0,1,10,0v1A5,5,0,0,1,48,259Zm0-21a5,5,0,0,1-5-5v-1a5,5,0,0,1,10,0v1A5,5,0,0,1,48,238Zm0-21a5,5,0,0,1-5-5v-1a5,5,0,0,1,10,0v1A5,5,0,0,1,48,217Zm0-21a5,5,0,0,1-5-5v-1a5,5,0,0,1,10,0v1A5,5,0,0,1,48,196Zm0-21a5,5,0,0,1-5-5v-1a5,5,0,0,1,10,0v1A5,5,0,0,1,48,175Zm0-21a5,5,0,0,1-5-5v-1a5,5,0,0,1,10,0v1A5,5,0,0,1,48,154Zm0-21a5,5,0,0,1-5-5v-1a5,5,0,0,1,10,0v1A5,5,0,0,1,48,133Z"/><path class="cls-1" d="M393,322a5,5,0,0,1-5-5v-1a5,5,0,0,1,10,0v1A5,5,0,0,1,393,322Zm0-21a5,5,0,0,1-5-5v-1a5,5,0,0,1,10,0v1A5,5,0,0,1,393,301Zm0-21a5,5,0,0,1-5-5v-1a5,5,0,0,1,10,0v1A5,5,0,0,1,393,280Zm0-21a5,5,0,0,1-5-5v-1a5,5,0,0,1,10,0v1A5,5,0,0,1,393,259Zm0-21a5,5,0,0,1-5-5v-1a5,5,0,0,1,10,0v1A5,5,0,0,1,393,238Zm0-21a5,5,0,0,1-5-5v-1a5,5,0,0,1,10,0v1A5,5,0,0,1,393,217Zm0-21a5,5,0,0,1-5-5v-1a5,5,0,0,1,10,0v1A5,5,0,0,1,393,196Zm0-21a5,5,0,0,1-5-5v-1a5,5,0,0,1,10,0v1A5,5,0,0,1,393,175Zm0-21a5,5,0,0,1-5-5v-1a5,5,0,0,1,10,0v1A5,5,0,0,1,393,154Zm0-21a5,5,0,0,1-5-5v-1a5,5,0,0,1,10,0v1A5,5,0,0,1,393,133Z"/><path class="cls-1" d="M225,106.49a5,5,0,0,1-5-5V71a5,5,0,0,1,10,0v30.49A5,5,0,0,1,225,106.49Z"/><path class="cls-1" d="M225,366a5,5,0,0,1-5-5V330.51a5,5,0,0,1,10,0V361A5,5,0,0,1,225,366Z"/><path class="cls-1" d="M370,221H339.51a5,5,0,0,1,0-10H370a5,5,0,0,1,0,10Z"/><path class="cls-1" d="M110.49,221H80a5,5,0,0,1,0-10h30.49a5,5,0,1,1,0,10Z"/><path class="cls-1" d="M144,140a5,5,0,0,1-3.53-1.46L118.93,117a5,5,0,1,1,7.08-7.08l21.56,21.57A5,5,0,0,1,144,140Z"/><path class="cls-1" d="M327.53,323.53a5,5,0,0,1-3.53-1.46L302.43,300.5a5,5,0,0,1,7.07-7.07L331.07,315a5,5,0,0,1-3.54,8.54Z"/><path class="cls-1" d="M306,140a5,5,0,0,1-3.54-8.53L324,109.93a5,5,0,0,1,7.07,7.08L309.5,138.57A5,5,0,0,1,306,140Z"/><path class="cls-1" d="M122.47,323.53a5,5,0,0,1-3.54-8.54l21.57-21.56a5,5,0,0,1,7.07,7.07L126,322.07A5,5,0,0,1,122.47,323.53Z"/><path class="cls-1" d="M181.72,115.52a5,5,0,0,1-4.63-3.11l-6.72-16.48a5,5,0,0,1,9.26-3.78l6.72,16.48a5,5,0,0,1-4.63,6.89Z"/><path class="cls-1" d="M275,344.49a5,5,0,0,1-4.63-3.11l-7.35-18a5,5,0,1,1,9.26-3.78l7.35,18a5,5,0,0,1-4.63,6.89Z"/><path class="cls-1" d="M331.37,177.67a5,5,0,0,1-1.89-9.64L346,161.32a5,5,0,0,1,3.78,9.26l-16.49,6.71A4.79,4.79,0,0,1,331.37,177.67Z"/><path class="cls-1" d="M101.11,271.5a5,5,0,0,1-1.88-9.63l18-7.34a5,5,0,0,1,3.78,9.26l-18,7.34A4.86,4.86,0,0,1,101.11,271.5Z"/><path class="cls-1" d="M119.12,176.88a4.92,4.92,0,0,1-1.94-.4l-16.4-6.9a5,5,0,0,1,3.87-9.22l16.41,6.91a5,5,0,0,1-1.94,9.61Z"/><path class="cls-1" d="M347,272.81a5,5,0,0,1-1.94-.4l-17.94-7.55a5,5,0,1,1,3.88-9.22l17.94,7.56a5,5,0,0,1-1.94,9.61Z"/><path class="cls-1" d="M268.88,115a4.91,4.91,0,0,1-1.94-.39,5,5,0,0,1-2.67-6.55l6.91-16.41a5,5,0,0,1,9.21,3.88l-6.9,16.41A5,5,0,0,1,268.88,115Z"/><path class="cls-1" d="M172.42,344.17a4.91,4.91,0,0,1-1.94-.39,5,5,0,0,1-2.67-6.55l7.55-17.94a5,5,0,1,1,9.22,3.88L177,341.11A5,5,0,0,1,172.42,344.17Z"/><path class="cls-1" d="M444,27h-1a5,5,0,0,1,0-10h1a5,5,0,0,1,0,10Zm-21,0h-1a5,5,0,0,1,0-10h1a5,5,0,0,1,0,10Zm-21,0h-1a5,5,0,0,1,0-10h1a5,5,0,0,1,0,10Zm-21,0h-1a5,5,0,0,1,0-10h1a5,5,0,0,1,0,10Zm-21,0h-1a5,5,0,0,1,0-10h1a5,5,0,0,1,0,10Zm-21,0h-1a5,5,0,0,1,0-10h1a5,5,0,0,1,0,10Zm-21,0h-1a5,5,0,0,1,0-10h1a5,5,0,0,1,0,10Zm-21,0h-1a5,5,0,0,1,0-10h1a5,5,0,0,1,0,10Zm-21,0h-1a5,5,0,0,1,0-10h1a5,5,0,0,1,0,10Zm-21,0h-1a5,5,0,0,1,0-10h1a5,5,0,0,1,0,10Zm-21,0h-1a5,5,0,0,1,0-10h1a5,5,0,0,1,0,10Zm-21,0h-1a5,5,0,0,1,0-10h1a5,5,0,0,1,0,10Zm-21,0h-1a5,5,0,0,1,0-10h1a5,5,0,0,1,0,10Zm-21,0h-1a5,5,0,0,1,0-10h1a5,5,0,0,1,0,10Zm-21,0h-1a5,5,0,0,1,0-10h1a5,5,0,0,1,0,10Zm-21,0h-1a5,5,0,0,1,0-10h1a5,5,0,0,1,0,10Zm-21,0h-1a5,5,0,0,1,0-10h1a5,5,0,0,1,0,10ZM87,27H86a5,5,0,0,1,0-10h1a5,5,0,0,1,0,10ZM66,27H65a5,5,0,0,1,0-10h1a5,5,0,0,1,0,10Z"/><path class="cls-1" d="M444,493h-1a5,5,0,0,1,0-10h1a5,5,0,0,1,0,10Zm-21,0h-1a5,5,0,0,1,0-10h1a5,5,0,0,1,0,10Zm-21,0h-1a5,5,0,0,1,0-10h1a5,5,0,0,1,0,10Zm-21,0h-1a5,5,0,0,1,0-10h1a5,5,0,0,1,0,10Zm-21,0h-1a5,5,0,0,1,0-10h1a5,5,0,0,1,0,10Zm-21,0h-1a5,5,0,0,1,0-10h1a5,5,0,0,1,0,10Zm-21,0h-1a5,5,0,0,1,0-10h1a5,5,0,0,1,0,10Zm-21,0h-1a5,5,0,0,1,0-10h1a5,5,0,0,1,0,10Zm-21,0h-1a5,5,0,0,1,0-10h1a5,5,0,0,1,0,10Zm-21,0h-1a5,5,0,0,1,0-10h1a5,5,0,0,1,0,10Zm-21,0h-1a5,5,0,0,1,0-10h1a5,5,0,0,1,0,10Zm-21,0h-1a5,5,0,0,1,0-10h1a5,5,0,0,1,0,10Zm-21,0h-1a5,5,0,0,1,0-10h1a5,5,0,0,1,0,10Zm-21,0h-1a5,5,0,0,1,0-10h1a5,5,0,0,1,0,10Zm-21,0h-1a5,5,0,0,1,0-10h1a5,5,0,0,1,0,10Zm-21,0h-1a5,5,0,0,1,0-10h1a5,5,0,0,1,0,10Zm-21,0h-1a5,5,0,0,1,0-10h1a5,5,0,0,1,0,10Zm-21,0H86a5,5,0,0,1,0-10h1a5,5,0,0,1,0,10Zm-21,0H65a5,5,0,0,1,0-10h1a5,5,0,0,1,0,10Z"/></g></svg>