<?xml version="1.0" ?><svg viewBox="0 0 512 512" xmlns="http://www.w3.org/2000/svg"><defs><style>.cls-1{fill:#3f456b;}</style></defs><title/><g id="Lines"><path class="cls-1" d="M457,500H424a5,5,0,0,1-5-5V463H387a5,5,0,0,1-5-5V425a5,5,0,0,1,5-5h32V388a5,5,0,0,1,5-5h33a5,5,0,0,1,5,5v32h32a5,5,0,0,1,5,5v33a5,5,0,0,1-5,5H462v32A5,5,0,0,1,457,500Zm-28-10h23V458a5,5,0,0,1,5-5h32V430H457a5,5,0,0,1-5-5V393H429v32a5,5,0,0,1-5,5H392v23h32a5,5,0,0,1,5,5Z"/><path class="cls-1" d="M489,76H359a5,5,0,0,1,0-10H489a5,5,0,0,1,0,10Z"/><path class="cls-1" d="M428.5,108a5,5,0,0,1-5-5V71a5,5,0,0,1,10,0v32A5,5,0,0,1,428.5,108Z"/><path class="cls-1" d="M395,108a5,5,0,0,1-5-5V71a5,5,0,0,1,10,0v32A5,5,0,0,1,395,108Z"/><path class="cls-1" d="M462,108a5,5,0,0,1-5-5V71a5,5,0,0,1,10,0v32A5,5,0,0,1,462,108Z"/><path class="cls-1" d="M78.23,492.1a65.23,65.23,0,0,1-20-3.14A63.71,63.71,0,0,1,20.7,399.5c.38-.75,9.18-18,24-25.94a5,5,0,0,1,4.71,8.82c-12.08,6.46-19.72,21.45-19.8,21.6a53.72,53.72,0,0,0,31.68,75.46A55.81,55.81,0,0,0,131,444.25a53.52,53.52,0,0,0-2.89-41.51A49.82,49.82,0,0,0,103.38,379a5,5,0,1,1,4.06-9.13,59.56,59.56,0,0,1,29.61,28.33,63.45,63.45,0,0,1,3.43,49.22A66,66,0,0,1,78.23,492.1Z"/><path class="cls-1" d="M76.51,452a46.62,46.62,0,0,1-18.43-3.83c-23.25-10-34.2-36.63-24.43-59.37a43.9,43.9,0,0,1,10-14.4,5,5,0,1,1,6.93,7.21,33.8,33.8,0,0,0-7.71,11.14c-7.6,17.68,1,38.42,19.18,46.23a36.16,36.16,0,0,0,27.41.61,34.26,34.26,0,0,0,19.35-18.5,35.05,35.05,0,0,0-9-39.7,5,5,0,1,1,6.72-7.4A45,45,0,0,1,118,425,44.09,44.09,0,0,1,93,448.88,45.75,45.75,0,0,1,76.51,452Z"/><path class="cls-1" d="M214,202H194a5,5,0,0,1,0-10h20a5,5,0,0,1,0,10Z"/><path class="cls-1" d="M321,202H301a5,5,0,0,1,0-10h20a5,5,0,0,1,0,10Z"/><path class="cls-1" d="M394.11,257.32a5,5,0,0,1-.26-10c13.38-.71,23.86-11.46,23.86-24.49a24,24,0,0,0-7.7-17.63l-.12-.11a29.46,29.46,0,0,0-11-5.95,5,5,0,1,1,3-9.55,38.47,38.47,0,0,1,15,8.36,33.89,33.89,0,0,1,10.81,24.88c0,18.35-14.64,33.49-33.34,34.47Z"/><path class="cls-1" d="M118,257.17a3.64,3.64,0,0,1-.57,0,34.74,34.74,0,0,1-31.17-34.29A33.89,33.89,0,0,1,97,198a38.47,38.47,0,0,1,15-8.36,5,5,0,1,1,3,9.55,29.42,29.42,0,0,0-11,6l-.1.09a24,24,0,0,0-7.7,17.63,24.77,24.77,0,0,0,22.3,24.36,5,5,0,0,1-.56,10Z"/><path class="cls-1" d="M396.08,190H369a5,5,0,0,1-5-4.88c-.61-25-7.07-41.76-19.19-49.69-15.7-10.28-36.69-2.66-38.75-1.87C276,148.92,247.42,143.89,223.51,119c-3.38-3.52-6.88-7.16-10.89-9.38-6-3.34-14.22-1.83-20.07,0-14.63,4.64-39.61,20.6-42.56,75.37a5,5,0,0,1-5,4.73H116a5,5,0,0,1,0-10h24.33c1-12.86,3.93-29.8,11.31-45,8.59-17.73,21.34-29.38,37.89-34.62,11.07-3.51,20.74-3.25,27.95.76,5.32,3,9.53,7.33,13.24,11.19,20.89,21.75,44.78,26,71,12.48l.37-.17c1.11-.46,27.23-11,48.13,2.64,14.21,9.25,22.13,27.06,23.58,53h22.28a5,5,0,0,1,0,10Z"/><path class="cls-1" d="M256,369.94c-80,0-145-65.15-145-145.22V181.47c0-2.28,1.34-53.53,28.94-87.16,1.22-4.36,6.16-19.18,20.47-34C175.56,44.68,204.62,26,257,26c46.92,0,85,16.34,110.16,47.25,22.18,27.27,33.91,64.68,33.91,108.21l.09,43.25C401.16,304.79,336.06,369.94,256,369.94ZM257,36c-38.68,0-69.6,10.82-89.41,31.3-14.72,15.22-18.17,30.27-18.21,30.42a5,5,0,0,1-1.06,2.15c-26,30.93-27.31,81.19-27.32,81.69v43.16c0,74.56,60.58,135.22,135,135.22s135.12-60.66,135.12-135.22l-.09-43.24h0c0-41.21-10.95-76.44-31.66-101.9C335.89,50.66,301.43,36,257,36ZM401.07,181.47h0Z"/><path class="cls-1" d="M225,250H183a15,15,0,0,1-15-15V225a15,15,0,0,1,15-15h42a15,15,0,0,1,15,15v10A15,15,0,0,1,225,250Zm-42-30a5,5,0,0,0-5,5v10a5,5,0,0,0,5,5h42a5,5,0,0,0,5-5V225a5,5,0,0,0-5-5Z"/><path class="cls-1" d="M332,250H290a15,15,0,0,1-15-15V225a15,15,0,0,1,15-15h42a15,15,0,0,1,15,15v10A15,15,0,0,1,332,250Zm-42-30a5,5,0,0,0-5,5v10a5,5,0,0,0,5,5h42a5,5,0,0,0,5-5V225a5,5,0,0,0-5-5Z"/><path class="cls-1" d="M280,235a5.07,5.07,0,0,1-1.52-.24c-20.28-6.45-41.81,0-42,0a5,5,0,1,1-2.92-9.56c1-.31,24.76-7.37,48,0A5,5,0,0,1,280,235Z"/><path class="cls-1" d="M260.76,500.78c-49.14,0-94.06-12.91-133.53-38.37a5,5,0,1,1,5.43-8.4c37.82,24.4,80.92,36.77,128.1,36.77a5,5,0,0,1,0,10Z"/><path class="cls-1" d="M102,337a5,5,0,0,1-3.2-8.84l36.72-30.64a5,5,0,1,1,6.4,7.68L105.2,335.84A5,5,0,0,1,102,337Z"/><path class="cls-1" d="M454.85,392.74a5,5,0,0,1-4.32-7.52c2.05-3.52,3.57-6.4,4.58-8.43l-84.57-72a5,5,0,0,1,6.49-7.62l87.48,74.53a5,5,0,0,1,1.36,5.78,134.48,134.48,0,0,1-6.69,12.8A5,5,0,0,1,454.85,392.74Z"/><path class="cls-1" d="M260.76,500.78a5,5,0,0,1,0-10c45.39,0,86.13-11.41,121.1-33.91l3.62-2.39a5,5,0,1,1,5.5,8.35l-3.67,2.42C350.67,488.84,308.1,500.78,260.76,500.78Z"/><path class="cls-1" d="M177,484a5,5,0,0,1-5-5V341a5,5,0,0,1,10,0V479A5,5,0,0,1,177,484Z"/><path class="cls-1" d="M337,488a5,5,0,0,1-5-5V341a5,5,0,0,1,10,0V483A5,5,0,0,1,337,488Z"/><path class="cls-1" d="M224,420a4.77,4.77,0,0,1-1.29-.17c-1.32-.35-32.55-9.1-50.3-50.35a5,5,0,0,1,9.18-4C194.23,394.9,214,405.69,221.93,409l29.86-46.66a5,5,0,1,1,8.42,5.4l-32,50A5,5,0,0,1,224,420Z"/><path class="cls-1" d="M289,420a5,5,0,0,1-4.21-2.3l-32-50a5,5,0,0,1,8.42-5.4L291.07,409c7.88-3.26,27.69-14,40.34-43.44a5,5,0,1,1,9.18,4c-17.75,41.25-49,50-50.3,50.35A4.77,4.77,0,0,1,289,420Z"/><path class="cls-1" d="M268,431H245a5,5,0,0,1-4.61-3.07l-11.08-26.5a5,5,0,0,1,9.22-3.86l9.8,23.43h16.34l9.8-23.43a5,5,0,0,1,9.22,3.86l-11.08,26.5A5,5,0,0,1,268,431Z"/><path class="cls-1" d="M233.93,499.43a5.52,5.52,0,0,1-.81-.06,5,5,0,0,1-4.14-5.74l11.08-68.43a5,5,0,0,1,9.88,1.6l-11.08,68.43A5,5,0,0,1,233.93,499.43Z"/><path class="cls-1" d="M279.07,499.43a5,5,0,0,1-4.93-4.2L263.06,426.8a5,5,0,0,1,9.88-1.6L284,493.63a5,5,0,0,1-4.14,5.74A5.52,5.52,0,0,1,279.07,499.43Z"/><path class="cls-1" d="M126,395h-.28a5,5,0,0,1-4.71-5.27c.08-1.53,2.39-38,29.06-71.81a5,5,0,1,1,7.86,6.18C133.29,355.37,131,389.94,131,390.28A5,5,0,0,1,126,395Z"/><path class="cls-1" d="M75.06,396.2a40.78,40.78,0,1,1,35.17-20h0a40.53,40.53,0,0,1-25,18.74A41.41,41.41,0,0,1,75.06,396.2Zm.12-71.55a30.77,30.77,0,1,0,26.44,46.43h0a30.76,30.76,0,0,0-26.44-46.43Z"/><path class="cls-1" d="M74.94,360a5,5,0,0,1-5-5v-1.28a5,5,0,0,1,10,0V355A5,5,0,0,1,74.94,360Z"/><path class="cls-1" d="M110.63,498.53a41.55,41.55,0,0,1-33.41-17c-11.41-16-12.76-37.21-12.79-51.75,0-11.51.51-26.49,4.8-40.22a5,5,0,0,1,9.54,3c-3.88,12.43-4.36,26.43-4.34,37.23,0,13.16,1.19,32.25,10.94,46a31.85,31.85,0,0,0,25.26,12.85h0c6.81,0,12.35-2.35,16-6.77,4-4.81,5.41-11.59,4-19.1a5,5,0,0,1,9.83-1.83c1.93,10.33-.31,20.28-6.14,27.31-5.55,6.69-14,10.38-23.71,10.39Z"/><path class="cls-1" d="M387,443H362a5,5,0,0,1-5-5V403a5,5,0,0,1,5-5h62a5,5,0,0,1,0,10H367v25h20a5,5,0,0,1,0,10Z"/><path class="cls-1" d="M48.5,336.52a5,5,0,0,1-5-5V64a5,5,0,0,1,5-5H163.32a5,5,0,0,1,0,10H53.5V331.52A5,5,0,0,1,48.5,336.52Z"/><path class="cls-1" d="M91,228H81a5,5,0,0,1-5-5V95.8a5,5,0,0,1,5-5h64a5,5,0,0,1,0,10H86V218h5a5,5,0,0,1,0,10Z"/><path class="cls-1" d="M496.45,340H415a5,5,0,0,1,0-10h76.45V306.17H374a5,5,0,0,1,0-10H496.45a5,5,0,0,1,5,5V335A5,5,0,0,1,496.45,340Z"/><path class="cls-1" d="M452,370a5,5,0,0,1-5-5V335a5,5,0,0,1,10,0v30A5,5,0,0,1,452,370Z"/><path class="cls-1" d="M496,306a4.65,4.65,0,0,1-.83-.07,5,5,0,0,1-4.11-5.75c0-.07,1.41-9.56-4.44-16.39-4.43-5.17-12-7.79-22.63-7.79H389.71a5,5,0,0,1,0-10H464c13.71,0,23.91,3.83,30.32,11.4,8.82,10.42,6.71,23.85,6.61,24.42A5,5,0,0,1,496,306Z"/><path class="cls-1" d="M480,276a5,5,0,0,1-5-5V108H382.25a5,5,0,0,1,0-10H480a5,5,0,0,1,5,5V271A5,5,0,0,1,480,276Z"/></g><g id="Outline"><path class="cls-1" d="M460.5,127a5,5,0,0,1-5-5v-2a5,5,0,0,1,10,0v2A5,5,0,0,1,460.5,127Z"/><path class="cls-1" d="M427,127a5,5,0,0,1-5-5v-2a5,5,0,0,1,10,0v2A5,5,0,0,1,427,127Z"/></g></svg>