<?xml version="1.0" ?><svg viewBox="0 0 512 512" xmlns="http://www.w3.org/2000/svg"><defs><style>.cls-1{fill:#3f456b;}</style></defs><title/><g id="Lines"><path class="cls-1" d="M496,138H401.26c-8.46,0-15.26-2.62-20.23-7.79-8.11-8.43-8.07-20.65-8-22.09V16h10v92.39c0,.07-.22,9.27,5.28,14.93,3,3.11,7.38,4.68,13,4.68H496Z"/><path class="cls-1" d="M469.68,468H369.33a5,5,0,1,1,0-10H469.68c11.75,0,21.32-10.6,21.32-23.62V135.62c0-11.37-10.55-24.31-14.62-28.33-.67-.68-62.23-63.27-75-76.09A38.63,38.63,0,0,0,375.68,20H156.05A23.34,23.34,0,0,0,133,43V194a5,5,0,0,1-10,0V43c0-17.89,15.13-33,33.05-33H375.59a48.67,48.67,0,0,1,32.82,14.13c12.84,12.85,74.43,75.47,75,76.1S501,117.8,501,135.62V434.38C501,452.92,487,468,469.68,468Z"/><path class="cls-1" d="M340.3,473.72H43.7a5,5,0,0,1-5-5V221.94a5,5,0,0,1,5-5H340.3a5,5,0,0,1,5,5V468.72A5,5,0,0,1,340.3,473.72Zm-291.6-10H335.3V226.94H48.7Z"/><path class="cls-1" d="M368,501H16a5,5,0,0,1-5-5V194a5,5,0,0,1,5-5H368a5,5,0,0,1,5,5V496A5,5,0,0,1,368,501ZM21,491H363V199H21Z"/><path class="cls-1" d="M43.7,420.5A5,5,0,0,1,40.17,412l112.4-112.39a5,5,0,0,1,7.07,0L233,372.93l51-51a5,5,0,0,1,7.08,0l50.81,50.82a5,5,0,0,1-7.07,7.07L287.5,332.57l-51,51a5,5,0,0,1-7.08,0L156.1,310.17,47.24,419A5,5,0,0,1,43.7,420.5Z"/><path class="cls-1" d="M133.77,330.44a5,5,0,0,1-4.67-3.21c-8.42-21.86-36.47-13.8-37.66-13.44a5,5,0,0,1-6.31-3.64c-2.34-9.9-7-17-13.83-21.17-11.66-7.07-26.21-3.51-26.36-3.47a5,5,0,0,1-2.49-9.68c.75-.2,18.64-4.68,33.94,4.54,8,4.84,13.78,12.45,17.12,22.64,14.13-2.67,36.58-1.05,44.92,20.63a5,5,0,0,1-4.66,6.8Z"/><path class="cls-1" d="M266.25,351.75a5,5,0,0,1-3-1C248.52,339.63,234,336.21,220,340.56a42.83,42.83,0,0,0-16.57,9.63,5,5,0,0,1-7.26-6.88A52,52,0,0,1,217,331c11.86-3.68,30.56-4.64,52.27,11.75a5,5,0,0,1-3,9Z"/><path class="cls-1" d="M272,310a37,37,0,1,1,37-37A37,37,0,0,1,272,310Zm0-64a27,27,0,1,0,27,27A27,27,0,0,0,272,246Z"/><path class="cls-1" d="M208,410a5,5,0,0,1-3.54-8.54l29-29a5,5,0,0,1,7.08,7.08l-29,29A5,5,0,0,1,208,410Z"/><path class="cls-1" d="M93.74,459a4.92,4.92,0,0,1-1-.1,5,5,0,0,1-3.9-5.9c3-15,13.59-40,50.16-40,35.8,0,46.39,24.19,49.52,38.61a5,5,0,1,1-9.78,2.12C174.32,433.34,161,423,139,423c-28,0-37.4,17.42-40.36,32A5,5,0,0,1,93.74,459Z"/><path class="cls-1" d="M293.07,473.72l-.4,0a5,5,0,0,1-4.59-5.37c0-.14,1-15.48-8-25.14-5.05-5.44-12.51-8.19-22.18-8.19s-17.17,2.76-22.29,8.21c-9.09,9.69-8.23,25-8.22,25.18a5,5,0,0,1-10,.67c-.06-.8-1.21-19.71,10.84-32.62,7.08-7.59,17-11.44,29.64-11.44s22.54,3.85,29.56,11.45c11.95,12.93,10.61,31.86,10.54,32.66A5,5,0,0,1,293.07,473.72Z"/><path class="cls-1" d="M225.89,454.36a5,5,0,0,1-4.14-2.18c-11.88-17.37-41.66-9-42-8.9a5,5,0,1,1-2.8-9.6c1.5-.44,37-10.51,53,12.86a5,5,0,0,1-1.31,6.95A5,5,0,0,1,225.89,454.36Z"/><path class="cls-1" d="M97.81,446.55a4.94,4.94,0,0,1-2.6-.74c-1.09-.66-26.07-15.49-48.7-.13a5,5,0,0,1-5.62-8.27c28.06-19.05,58.27-.91,59.55-.12a5,5,0,0,1-2.63,9.26Z"/><path class="cls-1" d="M190.16,264a26.25,26.25,0,0,1-26-23.23L157,178.56a34.66,34.66,0,0,1,68.85-8.05l3.13,20.74a5,5,0,0,1-9.88,1.5l-3.15-20.83c0-.06,0-.11,0-.17a24.66,24.66,0,0,0-49,5.66l7.19,62.21a16.24,16.24,0,0,0,18,14.27,16.26,16.26,0,0,0,14.27-18l-7-60.39a6.72,6.72,0,0,0-7.45-5.9A6.72,6.72,0,0,0,186,177l7.06,61.12a5,5,0,0,1-9.94,1.15l-7.06-61.12a16.72,16.72,0,0,1,33.22-3.84l7,60.39A26.3,26.3,0,0,1,190.16,264Z"/></g><g id="Outline"><path class="cls-1" d="M330.33,106H193a5,5,0,0,1,0-10H330.33a5,5,0,0,1,0,10Z"/><path class="cls-1" d="M330.33,154H241a5,5,0,0,1,0-10h89.33a5,5,0,0,1,0,10Z"/><path class="cls-1" d="M437,199H403a5,5,0,0,1,0-10h34a5,5,0,0,1,0,10Z"/><path class="cls-1" d="M437,247H403a5,5,0,0,1,0-10h34a5,5,0,0,1,0,10Z"/><path class="cls-1" d="M437,292H403a5,5,0,0,1,0-10h34a5,5,0,0,1,0,10Z"/><path class="cls-1" d="M437,340H403a5,5,0,0,1,0-10h34a5,5,0,0,1,0,10Z"/><path class="cls-1" d="M437,386H403a5,5,0,0,1,0-10h34a5,5,0,0,1,0,10Z"/></g></svg>