<?xml version="1.0" ?><svg viewBox="0 0 512 512" xmlns="http://www.w3.org/2000/svg"><defs><style>.cls-1{fill:#3f456b;}</style></defs><title/><g id="Lines"><path class="cls-1" d="M120.21,294.5H65.5a5,5,0,0,1-5-5V234.79a5,5,0,0,1,5-5h54.71a5,5,0,0,1,5,5V289.5A5,5,0,0,1,120.21,294.5Zm-49.71-10h44.71V239.79H70.5Z"/><path class="cls-1" d="M120.21,349.21H65.5a5,5,0,0,1-5-5V289.5a5,5,0,0,1,5-5h54.71a5,5,0,0,1,5,5v54.71A5,5,0,0,1,120.21,349.21Zm-49.71-10h44.71V294.5H70.5Z"/><path class="cls-1" d="M120.21,403.93H65.5a5,5,0,0,1-5-5V344.21a5,5,0,0,1,5-5h54.71a5,5,0,0,1,5,5v54.72A5,5,0,0,1,120.21,403.93Zm-49.71-10h44.71V349.21H70.5Z"/><path class="cls-1" d="M120.21,458.64H65.5a5,5,0,0,1-5-5V398.93a5,5,0,0,1,5-5h54.71a5,5,0,0,1,5,5v54.71A5,5,0,0,1,120.21,458.64Zm-49.71-10h44.71V403.93H70.5Z"/><path class="cls-1" d="M174.93,294.5H120.21a5,5,0,0,1-5-5V234.79a5,5,0,0,1,5-5h54.72a5,5,0,0,1,5,5V289.5A5,5,0,0,1,174.93,294.5Zm-49.72-10h44.72V239.79H125.21Z"/><path class="cls-1" d="M174.93,349.21H120.21a5,5,0,0,1-5-5V289.5a5,5,0,0,1,5-5h54.72a5,5,0,0,1,5,5v54.71A5,5,0,0,1,174.93,349.21Zm-49.72-10h44.72V294.5H125.21Z"/><path class="cls-1" d="M174.93,403.93H120.21a5,5,0,0,1-5-5V344.21a5,5,0,0,1,5-5h54.72a5,5,0,0,1,5,5v54.72A5,5,0,0,1,174.93,403.93Zm-49.72-10h44.72V349.21H125.21Z"/><path class="cls-1" d="M174.93,458.64H120.21a5,5,0,0,1-5-5V398.93a5,5,0,0,1,5-5h54.72a5,5,0,0,1,5,5v54.71A5,5,0,0,1,174.93,458.64Zm-49.72-10h44.72V403.93H125.21Z"/><path class="cls-1" d="M229.64,294.5H174.93a5,5,0,0,1-5-5V234.79a5,5,0,0,1,5-5h54.71a5,5,0,0,1,5,5V289.5A5,5,0,0,1,229.64,294.5Zm-49.71-10h44.71V239.79H179.93Z"/><path class="cls-1" d="M229.64,349.21H174.93a5,5,0,0,1-5-5V289.5a5,5,0,0,1,5-5h54.71a5,5,0,0,1,5,5v54.71A5,5,0,0,1,229.64,349.21Zm-49.71-10h44.71V294.5H179.93Z"/><path class="cls-1" d="M229.64,403.93H174.93a5,5,0,0,1-5-5V344.21a5,5,0,0,1,5-5H448.5a5,5,0,0,1,0,10H179.93v44.72h49.71a5,5,0,0,1,0,10Z"/><path class="cls-1" d="M229.64,458.64H174.93a5,5,0,0,1-5-5V398.93a5,5,0,0,1,5-5h54.71a5,5,0,0,1,5,5v54.71A5,5,0,0,1,229.64,458.64Zm-49.71-10h44.71V403.93H179.93Z"/><path class="cls-1" d="M339.07,239.79H284.36a5,5,0,0,1-5-5V180.07a5,5,0,0,1,5-5h54.71a5,5,0,0,1,5,5v54.72A5,5,0,0,1,339.07,239.79Zm-49.71-10h44.71V185.07H289.36Z"/><path class="cls-1" d="M284.36,294.5a5,5,0,0,1-5-5V234.79a5,5,0,0,1,5-5h54.71a5,5,0,0,1,0,10H289.36V289.5A5,5,0,0,1,284.36,294.5Z"/><path class="cls-1" d="M393.79,239.79H339.07a5,5,0,0,1-5-5V180.07a5,5,0,0,1,5-5h54.72a5,5,0,0,1,5,5v54.72A5,5,0,0,1,393.79,239.79Zm-49.72-10h44.72V185.07H344.07Z"/><path class="cls-1" d="M393.79,403.5a5,5,0,0,1-5-5V239.79H344.07V398.5a5,5,0,0,1-10,0V234.79a5,5,0,0,1,5-5h54.72a5,5,0,0,1,5,5V398.5A5,5,0,0,1,393.79,403.5Z"/><path class="cls-1" d="M448.5,239.79H393.79a5,5,0,0,1-5-5V180.07a5,5,0,0,1,5-5H448.5a5,5,0,0,1,5,5v54.72A5,5,0,0,1,448.5,239.79Zm-49.71-10H443.5V185.07H398.79Z"/><path class="cls-1" d="M448.5,294.5a5,5,0,0,1-5-5V239.79H393.79a5,5,0,0,1,0-10H448.5a5,5,0,0,1,5,5V289.5A5,5,0,0,1,448.5,294.5Z"/><path class="cls-1" d="M284.36,239.79H229.64a5,5,0,0,1-5-5V180.07a5,5,0,0,1,5-5h54.72a5,5,0,0,1,5,5v54.72A5,5,0,0,1,284.36,239.79Zm-49.72-10h44.72V185.07H234.64Z"/><path class="cls-1" d="M229.64,406.5a5,5,0,0,1-5-5v-112a5,5,0,0,1,5-5H326.5a5,5,0,0,1,0,10H234.64v107A5,5,0,0,1,229.64,406.5Z"/><path class="cls-1" d="M448.5,403.5a5,5,0,0,1-5-5v-104h-117a5,5,0,0,1,0-10h122a5,5,0,0,1,5,5v109A5,5,0,0,1,448.5,403.5Z"/><path class="cls-1" d="M448.5,403.5h-219a5,5,0,0,1,0-10h219a5,5,0,0,1,0,10Z"/><rect class="cls-1" height="10" width="94.38" x="272.5" y="40.5"/><rect class="cls-1" height="10" width="93.38" x="146.5" y="40.5"/><rect class="cls-1" height="10" width="454" x="29.5" y="136.5"/><path class="cls-1" d="M134.5,97.5h-12a15,15,0,0,1-15-15v-59a15,15,0,0,1,15-15h12a15,15,0,0,1,15,15v59A15,15,0,0,1,134.5,97.5Zm-12-79a5,5,0,0,0-5,5v59a5,5,0,0,0,5,5h12a5,5,0,0,0,5-5v-59a5,5,0,0,0-5-5Z"/><path class="cls-1" d="M262.5,97.5h-12a15,15,0,0,1-15-15v-59a15,15,0,0,1,15-15h12a15,15,0,0,1,15,15v59A15,15,0,0,1,262.5,97.5Zm-12-79a5,5,0,0,0-5,5v59a5,5,0,0,0,5,5h12a5,5,0,0,0,5-5v-59a5,5,0,0,0-5-5Z"/><path class="cls-1" d="M390.5,97.5h-12a15,15,0,0,1-15-15v-59a15,15,0,0,1,15-15h12a15,15,0,0,1,15,15v59A15,15,0,0,1,390.5,97.5Zm-12-79a5,5,0,0,0-5,5v59a5,5,0,0,0,5,5h12a5,5,0,0,0,5-5v-59a5,5,0,0,0-5-5Z"/><path class="cls-1" d="M451.53,498.5H59.5a35,35,0,0,1-35-35V75.5a35,35,0,0,1,35-35h49.88a5,5,0,0,1,0,10H59.5a25,25,0,0,0-25,25v388a25,25,0,0,0,25,25h392a25,25,0,0,0,25-25V75.5a25,25,0,0,0-25-25H401.65a5,5,0,0,1,0-10h49.88a35,35,0,0,1,35,35v388A35,35,0,0,1,451.53,498.5Z"/><path class="cls-1" d="M284.36,403.5a5,5,0,0,1-5-5V239.79H234.64V289.5a5,5,0,0,1-10,0V234.79a5,5,0,0,1,5-5h54.72a5,5,0,0,1,5,5V398.5A5,5,0,0,1,284.36,403.5Z"/></g><g id="Outline"><path class="cls-1" d="M257,281a19,19,0,1,1,19-19A19,19,0,0,1,257,281Zm0-28a9,9,0,1,0,9,9A9,9,0,0,0,257,253Z"/><path class="cls-1" d="M93,336a19,19,0,1,1,19-19A19,19,0,0,1,93,336Zm0-28a9,9,0,1,0,9,9A9,9,0,0,0,93,308Z"/><path class="cls-1" d="M148,391a19,19,0,1,1,19-19A19,19,0,0,1,148,391Zm0-28a9,9,0,1,0,9,9A9,9,0,0,0,148,363Z"/><path class="cls-1" d="M366,336a19,19,0,1,1,19-19A19,19,0,0,1,366,336Zm0-28a9,9,0,1,0,9,9A9,9,0,0,0,366,308Z"/><path class="cls-1" d="M421,226a19,19,0,1,1,19-19A19,19,0,0,1,421,226Zm0-28a9,9,0,1,0,9,9A9,9,0,0,0,421,198Z"/></g></svg>