<?xml version="1.0" ?><svg viewBox="0 0 512 512" xmlns="http://www.w3.org/2000/svg"><defs><style>.cls-1{fill:#3f456b;}</style></defs><title/><g id="Lines"><path class="cls-1" d="M383.39,394.16a5,5,0,0,1-2.2-9.5A115.37,115.37,0,0,0,397.42,375c16.47-11.72,29.54-28.25,42.18-44.24,2-2.57,4-5.13,6.09-7.67,3.87-4.82,7.76-9.71,11.62-14.58H23.66c-6.32,0-10-2.53-11.91-4.65a15.64,15.64,0,0,1-3.75-11V278c0-6.56,2.63-10.35,4.84-12.37a16.46,16.46,0,0,1,11.66-4H497a5,5,0,0,1,3.89,8.14C491.84,281,482.75,292.47,474,303.57c-6.69,8.46-13.61,17.2-20.48,25.77q-3,3.78-6.05,7.62c-13.07,16.53-26.59,33.63-44.23,46.18a125.74,125.74,0,0,1-17.63,10.51A5.08,5.08,0,0,1,383.39,394.16ZM18,293.48a5.76,5.76,0,0,0,1.18,3.65c.86.91,2.37,1.37,4.5,1.37H465.23l.9-1.14c6.68-8.44,13.53-17.1,20.42-25.69H24.33l-.44,0A6.58,6.58,0,0,0,19.56,273c-1,1-1.56,2.65-1.56,5v15c0,.15,0,.3,0,.44Z"/><path class="cls-1" d="M33.26,393.25a5,5,0,0,1-4.81-3.67,27.93,27.93,0,0,1-.95-7.45V303.5a5,5,0,0,1,10,0v78.63a18.05,18.05,0,0,0,.59,4.79,5,5,0,0,1-3.49,6.15A5.2,5.2,0,0,1,33.26,393.25Z"/><path class="cls-1" d="M497,271.67a5,5,0,0,1-4-2c-.15-.19-9.39-12.35-29.31-24.33C445.23,234.23,413.58,221,367.5,221H63.93a46,46,0,0,0-14.56,2.84c-6.63,2.58-10.62,6.48-12.08,11.83H255c1.38,0,19.51-.08,30.44,10.62,5.38,5.27,8.11,12.12,8.11,20.36a5,5,0,0,1-10,0c0-5.53-1.67-9.85-5.1-13.21-8-7.87-23.16-7.78-23.3-7.77H31.67a5,5,0,0,1-5-5C26.67,217.2,51,211,63.93,211H367.5c48.68,0,82.25,14.17,101.84,26.06,21.47,13,31.27,26.08,31.68,26.63a5,5,0,0,1-4,8Z"/><path class="cls-1" d="M353,192.42H96a5,5,0,0,1-4.93-5.86C92.82,176.48,103,157.42,129,157.42H320c16.88,0,26.31,7.89,31.26,14.51a37.79,37.79,0,0,1,6.67,14.63,5,5,0,0,1-4.93,5.86Zm-250-10H346c-3-6.18-10.11-15-26-15H129C113.11,167.42,106,176.23,103,182.42Z"/><path class="cls-1" d="M433.49,271.67a5,5,0,0,1-4.93-4.22c-.15-.91-4.14-22.95-28.06-22.95H353c-24.12,0-27.91,22-28.06,22.95a5,5,0,0,1-9.88-1.57C316.79,255,327,234.5,353,234.5h47.5c26.05,0,36.21,20.53,37.94,31.38a5,5,0,0,1-4.15,5.72A4.33,4.33,0,0,1,433.49,271.67Z"/><path class="cls-1" d="M367.5,221a5,5,0,0,1-4.46-2.74l-14.5-28.58a5,5,0,0,1,8.92-4.53L372,213.74a5,5,0,0,1-2.2,6.72A4.94,4.94,0,0,1,367.5,221Z"/><path class="cls-1" d="M128.88,221a4.91,4.91,0,0,1-2.26-.54,5,5,0,0,1-2.2-6.72l14.5-28.59a5,5,0,0,1,8.92,4.53l-14.5,28.58A5,5,0,0,1,128.88,221Z"/><path class="cls-1" d="M64.5,271.67A5,5,0,0,1,59.8,265L69,239.63a5,5,0,1,1,9.4,3.41L69.2,268.37A5,5,0,0,1,64.5,271.67Z"/><path class="cls-1" d="M279.1,166.67a5,5,0,0,1-5-5V149.33a5,5,0,0,0-5-5H162.73a5,5,0,0,0-5,5v12.34a5,5,0,0,1-10,0V149.33a15,15,0,0,1,15-15H269.1a15,15,0,0,1,15,15v12.34A5,5,0,0,1,279.1,166.67Z"/><path class="cls-1" d="M193.61,166.67a5,5,0,0,1-5-5V125.73a5,5,0,0,1,10,0v35.94A5,5,0,0,1,193.61,166.67Z"/><path class="cls-1" d="M193.61,102.52a5,5,0,0,1-5-5V78.46a5,5,0,1,1,10,0V97.52A5,5,0,0,1,193.61,102.52Z"/><path class="cls-1" d="M152.42,292.5a5,5,0,0,1-5-5v-3a5,5,0,0,1,10,0v3A5,5,0,0,1,152.42,292.5Z"/><path class="cls-1" d="M187.11,292.5a5,5,0,0,1-5-5v-3a5,5,0,0,1,10,0v3A5,5,0,0,1,187.11,292.5Z"/><path class="cls-1" d="M221.81,292.5a5,5,0,0,1-5-5v-3a5,5,0,0,1,10,0v3A5,5,0,0,1,221.81,292.5Z"/><path class="cls-1" d="M256.5,292.5a5,5,0,0,1-5-5v-3a5,5,0,0,1,10,0v3A5,5,0,0,1,256.5,292.5Z"/><path class="cls-1" d="M291.19,292.5a5,5,0,0,1-5-5v-3a5,5,0,0,1,10,0v3A5,5,0,0,1,291.19,292.5Z"/><path class="cls-1" d="M325.89,292.5a5,5,0,0,1-5-5v-3a5,5,0,0,1,10,0v3A5,5,0,0,1,325.89,292.5Z"/><path class="cls-1" d="M360.58,292.5a5,5,0,0,1-5-5v-3a5,5,0,0,1,10,0v3A5,5,0,0,1,360.58,292.5Z"/><path class="cls-1" d="M244.17,221a5,5,0,0,1-5-5V187.42a5,5,0,0,1,10,0V216A5,5,0,0,1,244.17,221Z"/><path class="cls-1" d="M187.67,221a5.2,5.2,0,0,1-1-.09,5,5,0,0,1-4-5.87l5.59-28.58a5,5,0,0,1,9.82,1.92L192.57,217A5,5,0,0,1,187.67,221Z"/><path class="cls-1" d="M300.66,221a5,5,0,0,1-4.9-4l-5.59-28.58a5,5,0,1,1,9.81-1.92L305.57,215a5,5,0,0,1-3.94,5.87A5.39,5.39,0,0,1,300.66,221Z"/><path class="cls-1" d="M104.4,271.65a5,5,0,0,1-5-5v-26a5,5,0,0,1,10,0v26A5,5,0,0,1,104.4,271.65Z"/><path class="cls-1" d="M139.72,271.65a5,5,0,0,1-5-5v-26a5,5,0,0,1,10,0v26A5,5,0,0,1,139.72,271.65Z"/><path class="cls-1" d="M175,271.65a5,5,0,0,1-5-5v-26a5,5,0,0,1,10,0v26A5,5,0,0,1,175,271.65Z"/><path class="cls-1" d="M210.35,271.65a5,5,0,0,1-5-5v-26a5,5,0,0,1,10,0v26A5,5,0,0,1,210.35,271.65Z"/><path class="cls-1" d="M358.58,271.65a5,5,0,0,1-5-5v-26a5,5,0,0,1,10,0v26A5,5,0,0,1,358.58,271.65Z"/><path class="cls-1" d="M393.9,271.65a5,5,0,0,1-5-5v-26a5,5,0,1,1,10,0v26A5,5,0,0,1,393.9,271.65Z"/><path class="cls-1" d="M245.67,271.65a5,5,0,0,1-5-5v-26a5,5,0,0,1,10,0v26A5,5,0,0,1,245.67,271.65Z"/><path class="cls-1" d="M442.94,85.77a5,5,0,0,1-2.58-9.29c13.22-7.94,32.06-4.35,32.85-4.2a5,5,0,0,1-1.92,9.82h0c-.16,0-15.89-3-25.78,3A5,5,0,0,1,442.94,85.77Z"/><path class="cls-1" d="M378.26,60.73a5,5,0,0,1-4.95-4.35c-.43-3.32-2.94-7.32-3.87-8.58a5,5,0,0,1,8-6c.5.67,4.91,6.74,5.76,13.24a5,5,0,0,1-4.31,5.61C378.7,60.71,378.48,60.73,378.26,60.73Z"/><path class="cls-1" d="M457.32,145.88h-125A40.76,40.76,0,0,1,322.16,66c-.06-.82-.09-1.64-.09-2.47a31.86,31.86,0,0,1,51-25.45A55.23,55.23,0,0,1,476.16,73.27a37.23,37.23,0,0,1-11.23,72.61Zm-124.71-10H464.87a27.23,27.23,0,0,0,4.53-54,5,5,0,0,1-3.95-6.17A45.23,45.23,0,0,0,379.37,48.3a5,5,0,0,1-8.54,1.4,21.85,21.85,0,0,0-38.76,13.84,21.56,21.56,0,0,0,.61,5.13,5.07,5.07,0,0,1-.69,3.94,5,5,0,0,1-3.36,2.17,30.75,30.75,0,0,0,4,61.08Z"/><path class="cls-1" d="M354.38,76a5,5,0,0,1-1.56-.26c-11.37-3.73-26.63-.54-26.79-.5a5,5,0,0,1-2.11-9.78c.73-.16,18-3.81,32,.78A5,5,0,0,1,354.38,76Z"/><path class="cls-1" d="M110.27,396.49a57.81,57.81,0,0,1-19.08-3.4c-10.43-3.76-24.43-12.43-31.9-32.39a5,5,0,0,1,9.37-3.51c11.63,31.09,41.64,29.36,42.91,29.27a5,5,0,0,1,.75,10C112.21,396.44,111.49,396.49,110.27,396.49Z"/><path class="cls-1" d="M17.68,396.49c-1.21,0-1.94-.05-2-.06a5,5,0,0,1,.76-10c1.26.09,31.27,1.82,42.89-29.27a5,5,0,1,1,9.37,3.51c-7.47,20-21.47,28.63-31.9,32.39A57.77,57.77,0,0,1,17.68,396.49Z"/><path class="cls-1" d="M206.19,396.49a57.74,57.74,0,0,1-19.08-3.4c-10.44-3.76-24.44-12.43-31.9-32.39a5,5,0,1,1,9.36-3.51c11.71,31.29,42.58,29.3,42.89,29.27a5,5,0,1,1,.77,10C208.12,396.44,207.4,396.49,206.19,396.49Z"/><path class="cls-1" d="M113.59,396.49c-1.21,0-1.93-.05-2-.06a5,5,0,0,1,.75-10c1.31.09,31.28,1.8,42.91-29.27a5,5,0,1,1,9.36,3.51c-7.46,20-21.46,28.63-31.9,32.39A57.74,57.74,0,0,1,113.59,396.49Z"/><path class="cls-1" d="M302.53,396.49a57.81,57.81,0,0,1-19.08-3.4C273,389.33,259,380.66,251.55,360.7a5,5,0,0,1,9.37-3.51c11.63,31.09,41.64,29.36,42.91,29.27a5,5,0,0,1,.75,10C304.47,396.44,303.75,396.49,302.53,396.49Z"/><path class="cls-1" d="M209.94,396.49c-1.21,0-1.94-.05-2-.06a5,5,0,0,1,.76-10c1.26.09,31.27,1.82,42.89-29.27a5,5,0,1,1,9.37,3.51c-7.46,20-21.47,28.63-31.9,32.39A57.74,57.74,0,0,1,209.94,396.49Z"/><path class="cls-1" d="M398.45,396.49a57.74,57.74,0,0,1-19.08-3.4c-10.43-3.76-24.44-12.43-31.9-32.39a5,5,0,1,1,9.36-3.51c11.63,31.09,41.64,29.36,42.91,29.27a5,5,0,0,1,.75,10C400.39,396.44,399.66,396.49,398.45,396.49Z"/><path class="cls-1" d="M305.85,396.49c-1.21,0-1.93-.05-2-.06a5,5,0,0,1,.77-10c1.25.09,31.26,1.82,42.89-29.27a5,5,0,1,1,9.36,3.51c-7.46,20-21.46,28.63-31.89,32.39A57.82,57.82,0,0,1,305.85,396.49Z"/><path class="cls-1" d="M494.36,396.49a57.77,57.77,0,0,1-19.08-3.4c-10.43-3.76-24.43-12.43-31.9-32.39a5,5,0,0,1,9.37-3.51c11.63,31.09,41.64,29.36,42.9,29.27a5,5,0,0,1,.75,10C496.3,396.44,495.57,396.49,494.36,396.49Z"/><path class="cls-1" d="M401.77,396.49c-1.22,0-1.94-.05-2-.06a5,5,0,1,1,.76-10c1.26.09,31.26,1.82,42.89-29.27a5,5,0,1,1,9.37,3.51c-7.47,20-21.47,28.63-31.9,32.39A57.81,57.81,0,0,1,401.77,396.49Z"/><path class="cls-1" d="M206.4,451.27a57.81,57.81,0,0,1-19.08-3.4c-10.43-3.76-24.43-12.43-31.9-32.39a5,5,0,1,1,9.37-3.5c11.63,31.08,41.64,29.35,42.91,29.26a5,5,0,0,1,.75,10C208.34,451.22,207.62,451.27,206.4,451.27Z"/><path class="cls-1" d="M113.81,451.27c-1.21,0-1.94,0-2-.06a5,5,0,0,1,.76-10c1.26.09,31.27,1.82,42.89-29.26a5,5,0,1,1,9.37,3.5c-7.46,20-21.47,28.63-31.9,32.39A57.74,57.74,0,0,1,113.81,451.27Z"/><path class="cls-1" d="M302.32,451.27a57.74,57.74,0,0,1-19.08-3.4c-10.43-3.76-24.44-12.43-31.9-32.39a5,5,0,1,1,9.36-3.5c11.63,31.08,41.64,29.35,42.91,29.26a5,5,0,0,1,.75,10C304.25,451.22,303.53,451.27,302.32,451.27Z"/><path class="cls-1" d="M209.72,451.27c-1.21,0-1.93,0-2-.06a5,5,0,0,1,.75-10c1.31.09,31.28,1.8,42.91-29.26a5,5,0,1,1,9.36,3.5c-7.46,20-21.46,28.63-31.9,32.39A57.74,57.74,0,0,1,209.72,451.27Z"/><path class="cls-1" d="M398.67,451.27a57.82,57.82,0,0,1-19.09-3.4c-10.43-3.76-24.43-12.43-31.89-32.39a5,5,0,1,1,9.36-3.5c11.63,31.08,41.64,29.35,42.91,29.26a5,5,0,0,1,.75,10C400.6,451.22,399.88,451.27,398.67,451.27Z"/><path class="cls-1" d="M306.07,451.27c-1.21,0-1.94,0-2-.06a5,5,0,0,1,.76-10c1.26.09,31.27,1.82,42.9-29.26a5,5,0,1,1,9.36,3.5c-7.46,20-21.47,28.63-31.9,32.39A57.74,57.74,0,0,1,306.07,451.27Z"/><path class="cls-1" d="M339.67,350.88H32.5a5,5,0,0,1,0-10H339.67c47.42,0,75.81-7.31,91.27-13.43,15.76-6.25,21.06-12.27,21.11-12.33a5,5,0,0,1,7.69,6.39C458.75,322.71,434.26,350.88,339.67,350.88Z"/><path class="cls-1" d="M236,166.67a5,5,0,0,1-5-5V139.33a5,5,0,0,1,10,0v22.34A5,5,0,0,1,236,166.67Z"/><path class="cls-1" d="M198.35,130.25h-9.48a15,15,0,0,1-15-15V108a15,15,0,0,1,15-15h9.48a15,15,0,0,1,15,15v7.25A15,15,0,0,1,198.35,130.25ZM188.87,103a5,5,0,0,0-5,5v7.25a5,5,0,0,0,5,5h9.48a5,5,0,0,0,5-5V108a5,5,0,0,0-5-5Z"/></g><g id="Outline"><path class="cls-1" d="M105.64,86.49a5,5,0,0,1-4.91-4C97.26,64.78,77.51,68.38,76.67,68.54a5,5,0,1,1-1.9-9.82,40.67,40.67,0,0,1,15.37.43,26.08,26.08,0,0,1,15.6,10c5-6.75,13.84-13,28.48-13a5,5,0,0,1,0,10c-20.92,0-23.54,15.42-23.64,16.07a5,5,0,0,1-4.84,4.24Z"/></g></svg>