<?xml version="1.0" ?><svg id="Lines" viewBox="0 0 512 512" xmlns="http://www.w3.org/2000/svg"><defs><style>.cls-1{fill:#3f456b;}</style></defs><title/><path class="cls-1" d="M96,243.72H37.17a5,5,0,0,1-5-5V159.33C24.37,157.46,14.7,151,14.7,135c0-19.74,14.58-25,22.28-25a5,5,0,0,1,0,10c-2.07,0-12.32,1-12.32,15s10.42,14.93,12.51,15a5,5,0,0,1,5,5v78.77H96a5,5,0,1,1,0,10Z"/><path class="cls-1" d="M127,228A93.69,93.69,0,0,1,33.5,134.36V106.81l-.08-2.32a1.09,1.09,0,0,1,0-.18,93.56,93.56,0,1,1,187.11,0l0,2.66.06,27.38A93.72,93.72,0,0,1,127,228ZM43.41,104.23l.08,2.32a.91.91,0,0,1,0,.17v27.64a83.55,83.55,0,1,0,167.1,0l-.08-30a83.56,83.56,0,1,0-167.11-.13Z"/><path class="cls-1" d="M44.51,107.34c-3.83,0-6.19-.16-6.45-.17a5,5,0,1,1,.7-10c.85.06,67.54,4.09,82.27-37.85a5,5,0,0,1,9.54.35c0,.05,2.82,9.35,14.42,18.54,19.77,15.66,49.31,19,70.6,19a5,5,0,0,1,0,10c-57.62,0-80.83-21.51-89.67-34.76-9.09,15.34-25.75,26.09-48.81,31.36A150.78,150.78,0,0,1,44.51,107.34Z"/><path class="cls-1" d="M161,243.72a5,5,0,0,1,0-10l51.07-.38V155a5,5,0,0,1,5-5c2,0,12.29-.94,12.29-15s-10.43-14.92-12.51-15a5,5,0,0,1,0-10c7.77,0,22.47,5.22,22.47,25,0,16-9.56,22.45-17.29,24.34v79a5,5,0,0,1-5,5l-56,.42Z"/><path class="cls-1" d="M160,244H96.33a5,5,0,0,1-5-5V219.26a5,5,0,0,1,10,0V234H155V218a5,5,0,0,1,10,0v21A5,5,0,0,1,160,244Z"/><path class="cls-1" d="M91.09,140.45c-12.14,0-16.76-6.4-17.25-7.13l8.32-5.55a1,1,0,0,0-.11-.16c.09.12,2.35,2.84,9,2.84,7.17,0,10.35-2.6,10.37-2.62a5,5,0,0,1,7.08,7.07C108,135.47,102.65,140.45,91.09,140.45Z"/><path class="cls-1" d="M165.09,140.45c-12.14,0-16.76-6.4-17.25-7.13l8.32-5.55a1,1,0,0,0-.11-.16c.09.12,2.35,2.84,9,2.84,7.17,0,10.35-2.6,10.37-2.62a5,5,0,0,1,7.08,7.07C182,135.47,176.65,140.45,165.09,140.45Z"/><path class="cls-1" d="M294.17,160c-.22,0-22.47-.29-22.47-25s22.06-25,22.28-25a5,5,0,0,1,0,10c-2.07,0-12.32,1-12.32,15,0,14.55,11.19,15,12.47,15a5,5,0,0,1,0,10Z"/><path class="cls-1" d="M384,228a93.69,93.69,0,0,1-93.52-93.64V106.81l-.08-2.32a1.09,1.09,0,0,1,0-.18,93.56,93.56,0,1,1,187.11,0l0,2.66.06,27.38A93.72,93.72,0,0,1,384,228ZM300.41,104.23l.08,2.32a.91.91,0,0,1,0,.17v27.64a83.55,83.55,0,1,0,167.1,0l-.08-30a83.56,83.56,0,1,0-167.11-.13Z"/><path class="cls-1" d="M474,160a5,5,0,0,1,0-10c2.07,0,12.32-.95,12.32-15,0-14.54-11.2-15-12.47-15a5,5,0,0,1,0-10c.22,0,22.47.28,22.47,25S474.26,160,474,160Z"/><path class="cls-1" d="M417,244H353.33a5,5,0,0,1-5-5V219.26a5,5,0,1,1,10,0V234H412V218a5,5,0,0,1,10,0v21A5,5,0,0,1,417,244Z"/><path class="cls-1" d="M348.09,140.45c-12.14,0-16.76-6.4-17.25-7.13l8.32-5.55a1,1,0,0,0-.11-.16c.09.12,2.35,2.84,9,2.84,7.17,0,10.35-2.6,10.37-2.62a5,5,0,0,1,7.08,7.07C365,135.47,359.65,140.45,348.09,140.45Z"/><path class="cls-1" d="M422.09,140.45c-12.14,0-16.76-6.4-17.25-7.13l8.32-5.55a1,1,0,0,0-.11-.16c.09.12,2.35,2.84,9,2.84,7.17,0,10.35-2.6,10.37-2.62a5,5,0,0,1,7.08,7.07C439,135.47,433.65,140.45,422.09,140.45Z"/><path class="cls-1" d="M473.09,123c-25.63,0-40.83-11.55-49.07-21.24a63.18,63.18,0,0,1-8.41-12.79c-12.27,13.31-46.25,38.87-122.12,31a5,5,0,1,1,1-9.94C387.19,119.58,412.4,77,412.65,76.54a5,5,0,0,1,9.19,1.2c.38,1.42,9.92,35.22,51.25,35.22a5,5,0,0,1,0,10Z"/><path class="cls-1" d="M37.17,417c-.22,0-22.47-.29-22.47-25S36.76,367,37,367a5,5,0,0,1,0,10c-2.07,0-12.32,1-12.32,15,0,14.55,11.19,15,12.47,15a5,5,0,1,1,0,10Z"/><path class="cls-1" d="M127,485A93.69,93.69,0,0,1,33.5,391.36V363.81l-.08-2.32a1.09,1.09,0,0,1,0-.18v-16C29.78,341.76,23,333,23,317c0-6,2.13-21.28,21.91-34.07,18-11.65,45.18-17.68,80.81-17.92.43,0,.87,0,1.3,0s.84,0,1.25,0c37.22.23,64.93,6.27,82.39,18,17.7,11.85,20.34,26.41,20.34,34,0,17.33-6.48,25.35-10.42,28.62l-.06,15.71,0,2.64.06,27.38A93.72,93.72,0,0,1,127,485ZM43.41,361.23l.08,2.32a.91.91,0,0,1,0,.17v27.64a83.55,83.55,0,1,0,167.1,0l-.08-30,.07-18.38a4.62,4.62,0,0,1,2.78-4.46c.78-.47,7.63-5,7.63-21.52,0-9.81-6.79-41.75-94-42-33.84.11-60.35,5.74-76.7,16.32C34.69,301.45,33,312.65,33,317c0,15.8,7.92,21.65,8.26,21.89A4.87,4.87,0,0,1,43.41,343Z"/><path class="cls-1" d="M217,417a5,5,0,0,1,0-10c2.07,0,12.32-.95,12.32-15,0-14.54-11.2-15-12.47-15a5,5,0,0,1,0-10c.22,0,22.47.28,22.47,25S217.26,417,217,417Z"/><path class="cls-1" d="M160,501H96.33a5,5,0,0,1-5-5V476.26a5,5,0,0,1,10,0V491H155V475a5,5,0,0,1,10,0v21A5,5,0,0,1,160,501Z"/><path class="cls-1" d="M91.09,397.45c-12.14,0-16.76-6.4-17.25-7.13l8.32-5.55a1,1,0,0,0-.11-.16c.09.12,2.35,2.84,9,2.84,7.17,0,10.35-2.6,10.37-2.62a5,5,0,0,1,7.08,7.07C108,392.47,102.65,397.45,91.09,397.45Z"/><path class="cls-1" d="M165.09,397.45c-12.14,0-16.76-6.4-17.25-7.13l8.32-5.55a1,1,0,0,0-.11-.16c.09.12,2.35,2.84,9,2.84,7.17,0,10.35-2.6,10.37-2.62a5,5,0,0,1,7.08,7.07C182,392.47,176.65,397.45,165.09,397.45Z"/><path class="cls-1" d="M294.17,417c-.22,0-22.47-.29-22.47-25s22.06-25,22.28-25a5,5,0,0,1,0,10c-2.07,0-12.32,1-12.32,15,0,14.55,11.19,15,12.47,15a5,5,0,0,1,0,10Z"/><path class="cls-1" d="M384,485a93.69,93.69,0,0,1-93.52-93.64V363.81l-.08-2.32a1.09,1.09,0,0,1,0-.18V348.1a75.59,75.59,0,0,1,10.49-38.26C311.23,292.25,334,270.71,383.73,268c25.25-1.28,69.53,1.66,82.67,35.71a34.28,34.28,0,0,1,1.77,18.68c8.19,13.73,9.3,37.68,9.34,38.7a.81.81,0,0,0,0,.16l0,2.71.06,27.38A93.72,93.72,0,0,1,384,485ZM300.41,361.23l.08,2.32a.91.91,0,0,1,0,.17v27.64a83.55,83.55,0,1,0,167.1,0l-.08-29.9c-.06-1.11-.81-14.87-4.5-26.09a42.19,42.19,0,0,1-24,17.71c-21.08,5.86-43.73-.84-59-7.5-.43-.18-45.36-19-79.5-1.33a34.37,34.37,0,0,0-.09,3.52v13.46Zm34.49-34.55a122.43,122.43,0,0,1,18.74,1.5A138.79,138.79,0,0,1,384,336.4c19.53,8.51,38.11,11,52.36,7.05A31.71,31.71,0,0,0,456,327.53a24.4,24.4,0,0,0,1.09-20.21c-10.87-28.17-50.28-30.47-72.82-29.33-36.13,2-61.2,14.25-74.49,36.51a66.83,66.83,0,0,0-7.37,17.93A88.58,88.58,0,0,1,334.9,326.68Z"/><path class="cls-1" d="M474,417a5,5,0,0,1,0-10c2.07,0,12.32-.95,12.32-15,0-14.54-11.2-15-12.47-15a5,5,0,0,1,0-10c.22,0,22.47.28,22.47,25S474.26,417,474,417Z"/><path class="cls-1" d="M417,501H353.33a5,5,0,0,1-5-5V476.26a5,5,0,0,1,10,0V491H412V475a5,5,0,0,1,10,0v21A5,5,0,0,1,417,501Z"/><path class="cls-1" d="M348.09,397.45c-12.14,0-16.76-6.4-17.25-7.13l8.32-5.55a1,1,0,0,0-.11-.16c.09.12,2.35,2.84,9,2.84,7.17,0,10.35-2.6,10.37-2.62a5,5,0,0,1,7.08,7.07C365,392.47,359.65,397.45,348.09,397.45Z"/><path class="cls-1" d="M422.09,397.45c-12.14,0-16.76-6.4-17.25-7.13l8.32-5.55a1,1,0,0,0-.11-.16c.09.12,2.35,2.84,9,2.84,7.17,0,10.35-2.6,10.37-2.62a5,5,0,0,1,7.08,7.07C439,392.47,433.65,397.45,422.09,397.45Z"/><path class="cls-1" d="M215.6,372H194a5,5,0,0,1-5-5.31c0-.15.09-5.72-5.73-11.71-6.64-6.83-21.8-15-56.28-15s-49.29,8.11-55.7,14.91c-5.59,5.94-5.33,11.47-5.32,11.7a4.87,4.87,0,0,1-1.28,3.8A5,5,0,0,1,61,372H39a5,5,0,0,1,0-10H56.46a28.86,28.86,0,0,1,7.16-13.52C74.79,336.22,96.11,330,127,330s52.37,6.21,63.88,18.46A29.65,29.65,0,0,1,198.42,362H215.6a5,5,0,1,1,0,10Z"/></svg>