<?xml version="1.0" ?><svg enable-background="new 0 0 512 512" version="1.1" viewBox="0 0 512 512" xml:space="preserve" xmlns="http://www.w3.org/2000/svg" xmlns:xlink="http://www.w3.org/1999/xlink"><g id="Colors"><g><path d="M498,124.126h-34c-2.762,0-5-2.238-5-5V84.938c0-2.762,2.238-5,5-5h34c2.762,0,5,2.238,5,5v34.188    C503,121.888,500.762,124.126,498,124.126z M469,114.126h24V89.938h-24V114.126z" fill="#3F456B"/></g><g><path d="M498,71.188h-34c-2.762,0-5-2.238-5-5V32c0-2.762,2.238-5,5-5h34c2.762,0,5,2.238,5,5v34.188    C503,68.95,500.762,71.188,498,71.188z M469,61.188h24V37h-24V61.188z" fill="#3F456B"/></g><g><path d="M498,177.062h-34c-2.762,0-5-2.238-5-5v-34.188c0-2.762,2.238-5,5-5h34c2.762,0,5,2.238,5,5v34.188    C503,174.824,500.762,177.062,498,177.062z M469,167.062h24v-24.188h-24V167.062z" fill="#3F456B"/></g><g><path d="M498,230h-34c-2.762,0-5-2.238-5-5v-34.188c0-2.762,2.238-5,5-5h34c2.762,0,5,2.238,5,5V225    C503,227.762,500.762,230,498,230z M469,220h24v-24.188h-24V220z" fill="#3F456B"/></g><g><path d="M49,380.126H15c-2.762,0-5-2.238-5-5v-34.188c0-2.762,2.238-5,5-5h34c2.762,0,5,2.238,5,5v34.188    C54,377.888,51.762,380.126,49,380.126z M20,370.126h24v-24.188H20V370.126z" fill="#3F456B"/></g><g><path d="M49,327.188H15c-2.762,0-5-2.238-5-5V288c0-2.762,2.238-5,5-5h34c2.762,0,5,2.238,5,5v34.188    C54,324.95,51.762,327.188,49,327.188z M20,317.188h24V293H20V317.188z" fill="#3F456B"/></g><g><path d="M49,433.062H15c-2.762,0-5-2.238-5-5v-34.188c0-2.762,2.238-5,5-5h34c2.762,0,5,2.238,5,5v34.188    C54,430.824,51.762,433.062,49,433.062z M20,423.062h24v-24.188H20V423.062z" fill="#3F456B"/></g><g><path d="M49,486H15c-2.762,0-5-2.238-5-5v-34.188c0-2.762,2.238-5,5-5h34c2.762,0,5,2.238,5,5V481    C54,483.762,51.762,486,49,486z M20,476h24v-24.188H20V476z" fill="#3F456B"/></g><g><g><path d="M81,164H65c-2.762,0-5-2.238-5-5s2.238-5,5-5h16c2.762,0,5,2.238,5,5S83.762,164,81,164z" fill="#3F456B"/></g><g><path d="M81,357H65c-2.762,0-5-2.238-5-5s2.238-5,5-5h16c2.762,0,5,2.238,5,5S83.762,357,81,357z" fill="#3F456B"/></g></g><g><g><path d="M449,164h-16c-2.762,0-5-2.238-5-5s2.238-5,5-5h16c2.762,0,5,2.238,5,5S451.762,164,449,164z" fill="#3F456B"/></g><g><path d="M449,357h-16c-2.762,0-5-2.238-5-5s2.238-5,5-5h16c2.762,0,5,2.238,5,5S451.762,357,449,357z" fill="#3F456B"/></g></g></g><g id="Lines"><g><path d="M449,501H65c-2.762,0-5-2.238-5-5V16c0-2.762,2.238-5,5-5h384c2.762,0,5,2.238,5,5v480    C454,498.762,451.762,501,449,501z M70,491h374V21H70V491z" fill="#3F456B"/></g><g><path d="M449,261H65c-2.762,0-5-2.238-5-5s2.238-5,5-5h384c2.762,0,5,2.238,5,5S451.762,261,449,261z" fill="#3F456B"/></g><g><path d="M257.5,300.5c-24.537,0-44.5-19.963-44.5-44.5s19.963-44.5,44.5-44.5S302,231.463,302,256    S282.037,300.5,257.5,300.5z M257.5,221.5c-19.023,0-34.5,15.477-34.5,34.5s15.477,34.5,34.5,34.5S292,275.023,292,256    S276.523,221.5,257.5,221.5z" fill="#3F456B"/></g><g><path d="M400,501c-2.762,0-5-2.238-5-5v-32.8c0-75.284-61.458-136.533-137-136.533S121,387.916,121,463.2V496    c0,2.762-2.238,5-5,5s-5-2.238-5-5v-32.8c0-80.799,65.944-146.533,147-146.533S405,382.401,405,463.2V496    C405,498.762,402.762,501,400,501z" fill="#3F456B"/></g><g><path d="M258,195c-81.056,0-147-65.734-147-146.533V16c0-2.762,2.238-5,5-5s5,2.238,5,5v32.467    C121,123.751,182.458,185,258,185s137-61.249,137-136.533V16c0-2.762,2.238-5,5-5s5,2.238,5,5v32.467    C405,129.266,339.056,195,258,195z" fill="#3F456B"/></g><g><path d="M321,132H197c-2.762,0-5-2.238-5-5V16c0-2.762,2.238-5,5-5s5,2.238,5,5v106h114V16c0-2.762,2.238-5,5-5    s5,2.238,5,5v111C326,129.762,323.762,132,321,132z" fill="#3F456B"/></g><g><path d="M319,501c-2.762,0-5-2.238-5-5V390H200v106c0,2.762-2.238,5-5,5s-5-2.238-5-5V385c0-2.762,2.238-5,5-5h124    c2.762,0,5,2.238,5,5v111C324,498.762,321.762,501,319,501z" fill="#3F456B"/></g><g><path d="M257.5,171.5c-24.537,0-44.5-19.963-44.5-44.5c0-2.762,2.238-5,5-5s5,2.238,5,5    c0,19.023,15.477,34.5,34.5,34.5S292,146.023,292,127c0-2.762,2.238-5,5-5s5,2.238,5,5C302,151.537,282.037,171.5,257.5,171.5z" fill="#3F456B"/></g><g><path d="M257.5,429.5c-24.537,0-44.5-19.963-44.5-44.5c0-2.762,2.238-5,5-5s5,2.238,5,5    c0,19.023,15.477,34.5,34.5,34.5S292,404.023,292,385c0-2.762,2.238-5,5-5s5,2.238,5,5C302,409.537,282.037,429.5,257.5,429.5z" fill="#3F456B"/></g><g><path d="M297,390c-2.762,0-5-2.238-5-5c0-19.023-15.477-34.5-34.5-34.5S223,365.977,223,385c0,2.762-2.238,5-5,5    s-5-2.238-5-5c0-24.537,19.963-44.5,44.5-44.5S302,360.463,302,385C302,387.762,299.762,390,297,390z" fill="#3F456B"/></g><g><path d="M297,133c-2.762,0-5-2.238-5-5c0-19.023-15.477-34.5-34.5-34.5S223,108.977,223,128c0,2.762-2.238,5-5,5    s-5-2.238-5-5c0-24.537,19.963-44.5,44.5-44.5S302,103.463,302,128C302,130.762,299.762,133,297,133z" fill="#3F456B"/></g><g><g><path d="M336,45h-15c-2.762,0-5-2.238-5-5s2.238-5,5-5h15c2.762,0,5,2.238,5,5S338.762,45,336,45z" fill="#3F456B"/></g><g><path d="M336,100h-15c-2.762,0-5-2.238-5-5s2.238-5,5-5h15c2.762,0,5,2.238,5,5S338.762,100,336,100z" fill="#3F456B"/></g><g><path d="M336,73h-15c-2.762,0-5-2.238-5-5s2.238-5,5-5h15c2.762,0,5,2.238,5,5S338.762,73,336,73z" fill="#3F456B"/></g><g><path d="M197,45h-15c-2.762,0-5-2.238-5-5s2.238-5,5-5h15c2.762,0,5,2.238,5,5S199.762,45,197,45z" fill="#3F456B"/></g><g><path d="M197,100h-15c-2.762,0-5-2.238-5-5s2.238-5,5-5h15c2.762,0,5,2.238,5,5S199.762,100,197,100z" fill="#3F456B"/></g><g><path d="M197,73h-15c-2.762,0-5-2.238-5-5s2.238-5,5-5h15c2.762,0,5,2.238,5,5S199.762,73,197,73z" fill="#3F456B"/></g></g><g><g><path d="M334,420h-15c-2.762,0-5-2.238-5-5s2.238-5,5-5h15c2.762,0,5,2.238,5,5S336.762,420,334,420z" fill="#3F456B"/></g><g><path d="M334,475h-15c-2.762,0-5-2.238-5-5s2.238-5,5-5h15c2.762,0,5,2.238,5,5S336.762,475,334,475z" fill="#3F456B"/></g><g><path d="M334,448h-15c-2.762,0-5-2.238-5-5s2.238-5,5-5h15c2.762,0,5,2.238,5,5S336.762,448,334,448z" fill="#3F456B"/></g><g><path d="M195,420h-15c-2.762,0-5-2.238-5-5s2.238-5,5-5h15c2.762,0,5,2.238,5,5S197.762,420,195,420z" fill="#3F456B"/></g><g><path d="M195,475h-15c-2.762,0-5-2.238-5-5s2.238-5,5-5h15c2.762,0,5,2.238,5,5S197.762,475,195,475z" fill="#3F456B"/></g><g><path d="M195,448h-15c-2.762,0-5-2.238-5-5s2.238-5,5-5h15c2.762,0,5,2.238,5,5S197.762,448,195,448z" fill="#3F456B"/></g></g></g></svg>