<?xml version="1.0" ?><svg viewBox="0 0 512 512" xmlns="http://www.w3.org/2000/svg"><defs><style>.cls-1{fill:#3f456b;}</style></defs><title/><g id="Lines"><path class="cls-1" d="M148,51a5,5,0,0,1,5-5h0a5,5,0,0,1,5,5h0a5,5,0,0,1-5,5h0A5,5,0,0,1,148,51Z"/><path class="cls-1" d="M148,73a5,5,0,0,1,5-5h0a5,5,0,0,1,5,5h0a5,5,0,0,1-5,5h0A5,5,0,0,1,148,73Z"/><path class="cls-1" d="M430.69,500H80.31A37.36,37.36,0,0,1,43,462.69V48.31A37.36,37.36,0,0,1,80.31,11H430.69A37.36,37.36,0,0,1,468,48.31V462.69A37.36,37.36,0,0,1,430.69,500ZM80.31,21A27.34,27.34,0,0,0,53,48.31V462.69A27.34,27.34,0,0,0,80.31,490H430.69A27.34,27.34,0,0,0,458,462.69V48.31A27.34,27.34,0,0,0,430.69,21Z"/><path class="cls-1" d="M255.25,431.5c-73.27,0-132.88-59.61-132.88-132.88S182,165.75,255.25,165.75s132.87,59.61,132.87,132.87S328.52,431.5,255.25,431.5Zm0-255.75A122.88,122.88,0,1,0,378.12,298.62,123,123,0,0,0,255.25,175.75Z"/><path class="cls-1" d="M255.25,456c-86.78,0-157.38-70.6-157.38-157.38s70.6-157.37,157.38-157.37,157.37,70.6,157.37,157.37S342,456,255.25,456Zm0-304.75c-81.27,0-147.38,66.11-147.38,147.37S174,446,255.25,446s147.37-66.11,147.37-147.38S336.51,151.25,255.25,151.25Z"/><path class="cls-1" d="M463,116H48a5,5,0,0,1,0-10H463a5,5,0,0,1,0,10Z"/><path class="cls-1" d="M100.5,91.47a29.09,29.09,0,1,1,29.09-29.08A29.12,29.12,0,0,1,100.5,91.47Zm0-48.17a19.09,19.09,0,1,0,19.09,19.09A19.11,19.11,0,0,0,100.5,43.3Z"/><path class="cls-1" d="M431,86H347a5,5,0,0,1-5-5V42a5,5,0,0,1,5-5h84a5,5,0,0,1,5,5V81A5,5,0,0,1,431,86ZM352,76h74V47H352Z"/></g><g id="Outline"><path class="cls-1" d="M254.12,390.14a5,5,0,0,1,4.78-5.21h0a5,5,0,0,1,5.21,4.78h0a5,5,0,0,1-4.77,5.21h-.22A5,5,0,0,1,254.12,390.14Zm-15.77,3.42a5,5,0,0,1-4.07-5.78h0a5,5,0,0,1,5.79-4.07h0a5,5,0,0,1,4.06,5.79h0a5,5,0,0,1-4.92,4.14h0A5.1,5.1,0,0,1,238.35,393.56ZM274,388.2a5,5,0,0,1,3.54-6.13h0a5,5,0,0,1,6.12,3.54h0a5,5,0,0,1-3.54,6.12h0a4.89,4.89,0,0,1-1.3.17h0A5,5,0,0,1,274,388.2Zm-55.88-.51a5,5,0,0,1-2.71-6.54h0a5,5,0,0,1,6.53-2.7h0a5,5,0,0,1,2.71,6.53h0a5,5,0,0,1-4.62,3.09h0A5.12,5.12,0,0,1,218.13,387.69ZM293,382a5,5,0,0,1,2.11-6.75h0a5,5,0,0,1,6.75,2.12h0a5,5,0,0,1-2.12,6.75h0a5,5,0,0,1-2.31.56h0A5,5,0,0,1,293,382Zm-93.33-4.43a5,5,0,0,1-1.23-7h0a5,5,0,0,1,7-1.23h0a5,5,0,0,1,1.22,7h0a5,5,0,0,1-4.1,2.13h0A5,5,0,0,1,199.68,377.55Zm110.51-5.77a5,5,0,0,1,.61-7h0a5,5,0,0,1,7,.61h0a5,5,0,0,1-.61,7h0a5,5,0,0,1-3.21,1.17h0A5,5,0,0,1,310.19,371.78Zm-126.33-8.1h0a5,5,0,0,1,.3-7.07h0a5,5,0,0,1,7.07.31h0a5,5,0,0,1-.31,7.06h0a5,5,0,0,1-3.38,1.32h0A5,5,0,0,1,183.86,363.68Zm140.91-5.57a5,5,0,0,1-.92-7h0a5,5,0,0,1,7-.92h0a5,5,0,0,1,.92,7h0a5,5,0,0,1-4,2h0A5,5,0,0,1,324.77,358.11ZM171.4,346.73a5,5,0,0,1,1.82-6.84h0a5,5,0,0,1,6.83,1.83h0a5,5,0,0,1-1.82,6.83h0a4.94,4.94,0,0,1-2.5.67h0A5,5,0,0,1,171.4,346.73Zm164.67-5.11a5,5,0,0,1-2.42-6.64h0a5,5,0,0,1,6.65-2.42h0a5,5,0,0,1,2.41,6.65h0a5,5,0,0,1-4.53,2.88h0A4.94,4.94,0,0,1,336.07,341.62ZM162.9,327.47a5,5,0,0,1,3.27-6.27h0a5,5,0,0,1,6.27,3.26h0a5,5,0,0,1-3.26,6.27h0a5,5,0,0,1-1.51.24h0A5,5,0,0,1,162.9,327.47Zm180.62-4.4a5,5,0,0,1-3.8-5.95h0a5,5,0,0,1,6-3.81h0a5,5,0,0,1,3.8,6h0a5,5,0,0,1-4.88,3.92h0A5,5,0,0,1,343.52,323.07ZM158.81,306.82h0a5,5,0,0,1,4.54-5.41h0a5,5,0,0,1,5.42,4.55h0a5,5,0,0,1-4.55,5.41h0a3.24,3.24,0,0,1-.44,0h0A5,5,0,0,1,158.81,306.82Zm182.94-8.46a5,5,0,0,1,5-5h0a5,5,0,0,1,5,5h0a5,5,0,0,1-5,5h0A5,5,0,0,1,341.75,298.36Zm-178.19-7a5,5,0,0,1-4.31-5.6h0a5,5,0,0,1,5.6-4.32h0a5,5,0,0,1,4.32,5.61h0a5,5,0,0,1-5,4.35h0A4.82,4.82,0,0,1,163.56,291.4Zm176.87-8.2a5,5,0,0,1,4.06-5.79h0a5,5,0,0,1,5.79,4.06h0a5,5,0,0,1-4.06,5.79h0a5.12,5.12,0,0,1-.87.08h0A5,5,0,0,1,340.43,283.2ZM167.22,271.75a5,5,0,0,1-3-6.41h0a5,5,0,0,1,6.4-3h0a5,5,0,0,1,3,6.41h0a5,5,0,0,1-4.7,3.3h0A5.09,5.09,0,0,1,167.22,271.75Zm167.92-6.65a5,5,0,0,1,2.7-6.53h0a5,5,0,0,1,6.54,2.69h0a5,5,0,0,1-2.7,6.54h0a5,5,0,0,1-1.92.38h0A5,5,0,0,1,335.14,265.1ZM175.07,253.37a5,5,0,0,1-1.53-6.91h0a5,5,0,0,1,6.9-1.53h0a5,5,0,0,1,1.53,6.91h0a5,5,0,0,1-4.22,2.31h0A5,5,0,0,1,175.07,253.37Zm151-4.78a5,5,0,0,1,1.22-7h0a5,5,0,0,1,7,1.21h0a5,5,0,0,1-1.21,7h0a5,5,0,0,1-2.87.91h0A5,5,0,0,1,326,248.59ZM186.71,237.12a5,5,0,0,1,0-7.07h0a5,5,0,0,1,7.07,0h0a5,5,0,0,1,0,7.07h0a5,5,0,0,1-3.54,1.46h0A5,5,0,0,1,186.71,237.12Zm126.87-2.71a5,5,0,0,1-.31-7.06h0a5,5,0,0,1,7.06-.31h0a5,5,0,0,1,.31,7.06h0a5,5,0,0,1-3.69,1.62h0A5,5,0,0,1,313.58,234.41Zm-112-10.64a5,5,0,0,1,1.52-6.91h0a5,5,0,0,1,6.91,1.52h0a5,5,0,0,1-1.52,6.91h0a5,5,0,0,1-2.69.79h0A5,5,0,0,1,201.58,223.77Zm96.78-.52h0a5,5,0,0,1-1.83-6.83h0a5,5,0,0,1,6.83-1.84h0a5,5,0,0,1,1.83,6.83h0a5,5,0,0,1-4.33,2.5h0A5,5,0,0,1,298.36,223.25ZM219,213.94a5,5,0,0,1,3-6.41h0a5,5,0,0,1,6.41,3h0a5,5,0,0,1-3,6.41h0a4.87,4.87,0,0,1-1.71.31h0A5,5,0,0,1,219,213.94Zm62.11,1.72h0a5,5,0,0,1-3.27-6.27h0a5,5,0,0,1,6.27-3.28h0a5,5,0,0,1,3.27,6.27h0a5,5,0,0,1-4.77,3.5h0A4.88,4.88,0,0,1,281.09,215.66Zm-43-7.53a5,5,0,0,1,4.31-5.61h0a5,5,0,0,1,5.61,4.31h0a5,5,0,0,1-4.31,5.61h0a4.82,4.82,0,0,1-.65,0h0A5,5,0,0,1,238.1,208.13ZM262.58,212a5,5,0,0,1-4.55-5.41h0a5,5,0,0,1,5.41-4.56h0a5,5,0,0,1,4.55,5.41h0a5,5,0,0,1-5,4.58h0Z"/><path class="cls-1" d="M254.42,352.23a5,5,0,0,1,4.58-5.37h0a5,5,0,0,1,5.38,4.58h0a5,5,0,0,1-4.59,5.38h0a2.75,2.75,0,0,1-.4,0h0A5,5,0,0,1,254.42,352.23Zm-16.23,2.31a5,5,0,0,1-3.35-6.23h0a5,5,0,0,1,6.23-3.35h0a5,5,0,0,1,3.35,6.23h0a5,5,0,0,1-4.79,3.56h0A5.17,5.17,0,0,1,238.19,354.54Zm35.89-5.74a5,5,0,0,1,2.31-6.68h0a5,5,0,0,1,6.68,2.3h0a5,5,0,0,1-2.3,6.69h0a5.07,5.07,0,0,1-2.19.5h0A5,5,0,0,1,274.08,348.8Zm-55.18-4.28h0a5,5,0,0,1-.84-7h0a5,5,0,0,1,7-.85h0a5,5,0,0,1,.84,7h0a5,5,0,0,1-3.93,1.91h0A5,5,0,0,1,218.9,344.52Zm72.23-6.1a5,5,0,0,1-.28-7.07h0a5,5,0,0,1,7.07-.28h0a5,5,0,0,1,.28,7.07h0a5,5,0,0,1-3.68,1.61h0A5,5,0,0,1,291.13,338.42Zm-86.55-10.24a5,5,0,0,1,1.76-6.85h0a5,5,0,0,1,6.85,1.76h0a5,5,0,0,1-1.76,6.85h0a5,5,0,0,1-2.54.69h0A5,5,0,0,1,204.58,328.18Zm98.68-5.63a5,5,0,0,1-2.84-6.48h0a5,5,0,0,1,6.48-2.83h0a5,5,0,0,1,2.84,6.48h0a5,5,0,0,1-4.66,3.18h0A4.86,4.86,0,0,1,303.26,322.55ZM197.19,307.73h0a5,5,0,0,1,4.14-5.73h0a5,5,0,0,1,5.73,4.15h0a5,5,0,0,1-4.14,5.73h0a5.49,5.49,0,0,1-.8.06h0A5,5,0,0,1,197.19,307.73Zm106.56-9.37a5,5,0,0,1,5-5h0a5,5,0,0,1,5,5h0a5,5,0,0,1-5,5h0A5,5,0,0,1,303.75,298.36ZM201.58,292a5,5,0,0,1-3.84-5.94h0a5,5,0,0,1,5.94-3.84h0a5,5,0,0,1,3.84,5.93h0a5,5,0,0,1-4.88,4h0A5.53,5.53,0,0,1,201.58,292Zm99.69-9a5,5,0,0,1,3.17-6.32h0a5,5,0,0,1,6.32,3.16h0a5,5,0,0,1-3.16,6.33h0a5.16,5.16,0,0,1-1.58.25h0A5,5,0,0,1,301.27,283Zm-93.69-10.07a5,5,0,0,1-1.4-6.93h0a5,5,0,0,1,6.93-1.4h0a5,5,0,0,1,1.4,6.93h0a5,5,0,0,1-4.17,2.23h0A4.92,4.92,0,0,1,207.58,272.91Zm84.92-5.67a5,5,0,0,1,.64-7h0a5,5,0,0,1,7,.64h0a5,5,0,0,1-.64,7h0a5,5,0,0,1-3.2,1.16h0A5,5,0,0,1,292.5,267.24Zm-72.39-9.87a5,5,0,0,1,1.21-7h0a5,5,0,0,1,7,1.2h0a5,5,0,0,1-1.2,7h0a4.94,4.94,0,0,1-2.88.91h0A5,5,0,0,1,220.11,257.37Zm58.49-1.63a5,5,0,0,1-2-6.79h0a5,5,0,0,1,6.79-2h0a5,5,0,0,1,2,6.8h0a5,5,0,0,1-4.38,2.58h0A4.94,4.94,0,0,1,278.6,255.74Zm-41.17-8.31a5,5,0,0,1,3.67-6.05h0a5,5,0,0,1,6,3.67h0a5,5,0,0,1-3.66,6h0a5.46,5.46,0,0,1-1.2.14h0A5,5,0,0,1,237.43,247.43Zm24.06,2.69a5,5,0,0,1-4.31-5.61h0a5,5,0,0,1,5.61-4.31h0a5,5,0,0,1,4.3,5.61h0a5,5,0,0,1-4.95,4.35h0C261.92,250.16,261.71,250.14,261.49,250.12Z"/></g></svg>