<?xml version="1.0" ?><svg viewBox="0 0 512 512" xmlns="http://www.w3.org/2000/svg"><defs><style>.cls-1{fill:#3f456b;}</style></defs><title/><g id="Lines"><path class="cls-1" d="M464,85H400a5,5,0,0,1-5-5V47a5,5,0,0,1,5-5h64a5,5,0,0,1,5,5V80A5,5,0,0,1,464,85ZM405,75h54V52H405Z"/><path class="cls-1" d="M64.24,330.16c-.58,0-1.17,0-1.75-.06A22.53,22.53,0,0,1,47,322.26l-.64-.74a22.66,22.66,0,0,1,2.44-32L64.57,276a22.7,22.7,0,0,1,32,2.43l.63.75a22.67,22.67,0,0,1-2.43,32L79,324.69A22.5,22.5,0,0,1,64.24,330.16Zm15.09-49.6a12.59,12.59,0,0,0-8.24,3.05L55.32,297.14A12.66,12.66,0,0,0,54,315h0l.64.75a12.67,12.67,0,0,0,17.86,1.35l15.76-13.53a12.66,12.66,0,0,0,1.36-17.86L89,285A12.62,12.62,0,0,0,79.33,280.56Z"/><path class="cls-1" d="M407.34,338a5,5,0,0,1-3.23-1.19l-35.44-30a5,5,0,1,1,6.47-7.63l35.43,30a5,5,0,0,1-3.23,8.81Z"/><path class="cls-1" d="M321.16,492.51a5,5,0,0,1-1.31-9.83A222.1,222.1,0,0,0,388.06,451a5,5,0,1,1,5.68,8.23,232.13,232.13,0,0,1-71.27,33.11A5,5,0,0,1,321.16,492.51Z"/><path class="cls-1" d="M109.06,451.6a5,5,0,0,1-3-1c-43.84-33.79-63.41-71.85-64.22-73.45A5,5,0,0,1,43,371L132,296.78a5,5,0,0,1,6.41,7.68L52.63,376c5.81,10,25,40,59.48,66.59a5,5,0,0,1-3,9Z"/><path class="cls-1" d="M256.6,370.94a145.06,145.06,0,0,1-145-145.22V182.47c0-80.07,65.06-145.22,145-145.22s145,65.15,145,145.22l.09,43.24h0A145.1,145.1,0,0,1,256.6,370.94Zm0-323.69c-74.47,0-135,60.66-135,135.22v43.25a135.08,135.08,0,1,0,270.16,0l-.09-43.24C391.63,107.91,331.05,47.25,256.6,47.25Z"/><path class="cls-1" d="M117.6,248.3h-.32c-18.49-1.16-33-16.29-33-34.45a34.63,34.63,0,0,1,29.27-34,5,5,0,0,1,1.65,9.86,24.66,24.66,0,0,0-20.92,24.16c0,12.89,10.37,23.64,23.59,24.47a5,5,0,0,1-.3,10Z"/><path class="cls-1" d="M396.31,248.3a5,5,0,0,1-.31-10c13.23-.83,23.59-11.58,23.59-24.47a24.65,24.65,0,0,0-20.91-24.16,5,5,0,1,1,1.65-9.86,34.62,34.62,0,0,1,29.26,34c0,18.16-14.48,33.29-33,34.45Z"/><path class="cls-1" d="M318.36,324a5,5,0,0,1-5-5c0-1.74-1-43-56.65-43H256c-23.76,0-40.49,7.3-49.74,21.7a43.83,43.83,0,0,0-6.91,21.3,5,5,0,0,1-5.87,4.92c-24.43-4.3-45.75-17.21-61.65-37.32-12-15.14-16.67-28.93-16.86-29.51a5,5,0,0,1,9.48-3.18c.16.49,16.57,47.47,65.5,59.08a55.45,55.45,0,0,1,7.9-20.69c14-21.74,39.32-26.3,58.15-26.3h.7c18.82,0,44.19,4.56,58.15,26.3a55.45,55.45,0,0,1,7.9,20.69c49.09-11.63,65.33-58.59,65.5-59.08a5,5,0,1,1,9.48,3.18c-.19.58-4.89,14.37-16.86,29.51-15.9,20.11-37.22,33-61.66,37.32A4.11,4.11,0,0,1,318.36,324Z"/><path class="cls-1" d="M207,228a37,37,0,1,1,37-37A37,37,0,0,1,207,228Zm0-64a27,27,0,1,0,27,27A27,27,0,0,0,207,164Z"/><path class="cls-1" d="M304,228a37,37,0,1,1,37-37A37,37,0,0,1,304,228Zm0-64a27,27,0,1,0,27,27A27,27,0,0,0,304,164Z"/><path class="cls-1" d="M238,187.88a5,5,0,0,1-2.49-9.34c.83-.48,20.43-11.44,39.89,0a5,5,0,1,1-5.08,8.61c-14.51-8.55-29.69-.05-29.84,0A5,5,0,0,1,238,187.88Z"/><path class="cls-1" d="M496,420a5,5,0,0,1-5-5V20H22V410H73.83a5,5,0,0,1,0,10H17a5,5,0,0,1-5-5V15a5,5,0,0,1,5-5H496a5,5,0,0,1,5,5V415A5,5,0,0,1,496,420Z"/><path class="cls-1" d="M204.16,423a5,5,0,0,1-2.18-.5c-1.8-.88-44-22.18-43-90.58a5,5,0,1,1,10,.16c-.39,25.59,5.95,47.78,18.32,64.17a68.18,68.18,0,0,0,15.36,15l32.17-48a5,5,0,0,1,8.3,5.56l-34.84,52A5,5,0,0,1,204.16,423Z"/><path class="cls-1" d="M309.82,423a5,5,0,0,1-4.15-2.22l-34.84-52a5,5,0,0,1,8.31-5.56l32.17,48a68.4,68.4,0,0,0,15.35-15C339,379.86,345.37,357.67,345,332.08a5,5,0,0,1,10-.16c1,68.4-41.18,89.7-43,90.58A5,5,0,0,1,309.82,423Z"/><path class="cls-1" d="M437.16,480a65.75,65.75,0,0,1-64.2-78.6,63.45,63.45,0,0,1,27.63-40.88,64.86,64.86,0,0,1,6.73-3.84,5,5,0,0,1,4.42,9,53.77,53.77,0,0,0-29,37.73,55.81,55.81,0,0,0,42.7,65.36,53.49,53.49,0,0,0,40.94-7.48c25.05-16.37,31.91-50.4,15.27-75.87a55.53,55.53,0,0,0-44.35-25.19,5,5,0,1,1,.36-10A65.52,65.52,0,0,1,490,379.89c19.65,30.09,11.5,70.33-18.17,89.72A63.3,63.3,0,0,1,437.16,480Z"/><path class="cls-1" d="M437.47,456.08A46,46,0,0,1,398.9,435c-13.64-20.87-8.67-48.17,11.29-62.16a5,5,0,1,1,5.74,8.19c-15.52,10.87-19.33,32.18-8.66,48.5a36.11,36.11,0,0,0,22.49,15.66,34.24,34.24,0,0,0,41.26-27,36.57,36.57,0,0,0-30.7-43.07,5,5,0,0,1,1.36-9.91,46.57,46.57,0,0,1,39.15,54.92,44.21,44.21,0,0,1-43.36,35.87Z"/><path class="cls-1" d="M176.33,459a5,5,0,0,1-5-5V391.33a5,5,0,0,1,10,0V454A5,5,0,0,1,176.33,459Z"/><path class="cls-1" d="M336.33,487a5,5,0,0,1-5-5V391.33a5,5,0,0,1,10,0V482A5,5,0,0,1,336.33,487Z"/><path class="cls-1" d="M257,453a5,5,0,0,1-5-5V366a5,5,0,0,1,10,0v82A5,5,0,0,1,257,453Z"/><path class="cls-1" d="M419,402a5,5,0,0,1-4.87-3.85L401.24,343.6a15,15,0,0,1,11.45-17.93l7.28-1.58a15,15,0,0,1,17.84,11.47L448.89,387a5,5,0,1,1-9.78,2.1L428,337.68a5,5,0,0,0-6-3.82l-7.28,1.58a5,5,0,0,0-3.82,5.95l12.88,54.46a5,5,0,0,1-3.72,6A5.07,5.07,0,0,1,419,402Z"/><path class="cls-1" d="M414,408a5,5,0,0,1-4.1-7.87c12.75-18.2,35.44-16.83,45.66-13.56a5,5,0,0,1-3,9.53h0c-.93-.29-22.76-6.9-34.43,9.77A5,5,0,0,1,414,408Z"/><path class="cls-1" d="M29,485a5,5,0,0,1-5-5V448a5,5,0,0,1,5-5H134.26c.33,0,33.42.41,36,36.14a5,5,0,1,1-10,.72c-.81-11.08-5.32-18.93-13.41-23.33A30.28,30.28,0,0,0,134.23,453H34v27A5,5,0,0,1,29,485Z"/><path class="cls-1" d="M302,485a5,5,0,0,1-5-5V453H195.94a30.35,30.35,0,0,0-13.07,3.19c-8.17,4.21-12.47,12.1-12.8,23.45a5,5,0,1,1-10-.28C160.4,468,164,459,170.82,452.54,181,443,194.72,443,196.17,443H302a5,5,0,0,1,5,5v32A5,5,0,0,1,302,485Z"/><path class="cls-1" d="M311.5,502H21.5a13.5,13.5,0,0,1,0-27h290a13.5,13.5,0,0,1,0,27Zm-290-17a3.5,3.5,0,0,0,0,7h290a3.5,3.5,0,0,0,0-7Z"/><path class="cls-1" d="M46,379H17a5,5,0,0,1,0-10H46a5,5,0,0,1,0,10Z"/><path class="cls-1" d="M275,411a5,5,0,0,1-5-5v-1a5,5,0,0,1,10,0v1A5,5,0,0,1,275,411Z"/><path class="cls-1" d="M275,435a5,5,0,0,1-5-5v-1a5,5,0,0,1,10,0v1A5,5,0,0,1,275,435Z"/><path class="cls-1" d="M35,451.6a5,5,0,0,1-5-5V348c0-20.4,17.43-32.61,18.17-33.12a5,5,0,0,1,5.68,8.23h0C53.71,323.21,40,332.94,40,348v98.6A5,5,0,0,1,35,451.6Z"/></g><g id="Outline"><path class="cls-1" d="M215,53H49a5,5,0,0,1,0-10H215a5,5,0,0,1,0,10Z"/><path class="cls-1" d="M160,85H49a5,5,0,0,1,0-10H160a5,5,0,0,1,0,10Z"/><path class="cls-1" d="M135,117H49a5,5,0,0,1,0-10h86a5,5,0,0,1,0,10Z"/><path class="cls-1" d="M122,148H49a5,5,0,0,1,0-10h73a5,5,0,0,1,0,10Z"/><path class="cls-1" d="M416.93,309.21a33.37,33.37,0,0,1-8.75-1.17c-7.29-2-13-6.39-18.52-10.66a86.72,86.72,0,0,0-8.18-5.84,5,5,0,0,1,5.14-8.58,95.42,95.42,0,0,1,9.16,6.51c5,3.84,9.65,7.46,15,8.92a23.08,23.08,0,0,0,14.79-.78,35.65,35.65,0,0,1-4.06-3.68c-7-7.39-9.46-16.71-6.71-25.57,4.44-14.37,14.23-17.3,18.22-17.89a18.84,18.84,0,0,1,18.49,8.23c5.36,7.92,4.75,18.75-1.66,29.71a47.6,47.6,0,0,1-5.38,7.5c8.18,2.33,18.67,2.86,31-.25a5,5,0,0,1,2.44,9.7c-15.19,3.82-30.28,3-42.13-1.89A34.68,34.68,0,0,1,416.93,309.21Zm18.88-48.95a8.22,8.22,0,0,0-1.3.1c-4.5.66-8.19,4.66-10.14,11-1.67,5.38-.1,11,4.41,15.74a28.24,28.24,0,0,0,5.88,4.64,37.77,37.77,0,0,0,6.58-8.33c4.39-7.51,5.12-14.46,2-19.07A9,9,0,0,0,435.81,260.26Z"/><path class="cls-1" d="M159,469H29a5,5,0,0,1,0-10H159a5,5,0,0,1,0,10Z"/><path class="cls-1" d="M302,469H172a5,5,0,0,1,0-10H302a5,5,0,0,1,0,10Z"/></g></svg>