<?xml version="1.0" ?><svg viewBox="0 0 512 512" xmlns="http://www.w3.org/2000/svg"><defs><style>.cls-1{fill:#3f456b;}</style></defs><title/><g id="Lines"><path class="cls-1" d="M149.43,497c-30,0-56.62-12.94-74.87-36.44-19.29-24.84-27.18-55.82-34.81-85.77l-1.39-5.47c-14.87-58-20.73-117-24.49-167.12-3.1-41.13,1.27-99,39.61-141.38C67.84,45,89.19,31.2,112.05,23l1.68,4.71L112.05,23c38-13.54,74.25-10.6,99.57,8.08,16.95,12.5,27.86,31.68,32.45,57,3.45,19,3.31,41-.41,65.36-13.26,87-6.79,161.74-2.51,211.19,1.43,16.57,2.57,29.66,2.57,39.17,0,16.69-1.6,41.14-15.42,60.77C213.17,486.1,186.63,497,149.43,497Zm8.32-472.36a126.67,126.67,0,0,0-42.34,7.82C94.05,40.08,74.18,52.87,60.89,67.53,41,89.45,18.5,130.47,23.84,201.45c3.73,49.65,9.53,108.13,24.21,165.38l1.4,5.49c7.37,29,15,58.91,33,82.1,16.31,21,40.1,32.58,67,32.58,33.76,0,57.54-9.47,70.69-28.15,12.19-17.31,13.6-39.69,13.6-55,0-9.08-1.12-22-2.53-38.31-4.32-49.92-10.86-125.35,2.59-213.56,3.54-23.29,3.7-44.17.45-62.06-4.12-22.73-13.72-39.79-28.54-50.73C192.61,29.53,176.09,24.64,157.75,24.64Z"/><path class="cls-1" d="M77.25,343.91c-8.39,0-15.55-4.45-15.92-4.68-34.62-21-40.08-65.77-40.3-67.67-3.51-33.91,0-64.78,10.38-91.81a157.52,157.52,0,0,1,38-57.22c28.67-27.65,58.89-36.94,60.16-37.32a5,5,0,1,1,2.88,9.58C132.06,94.9,102.92,104,76,130a147.59,147.59,0,0,0-35.39,53.58,165,165,0,0,0-9.59,39.69l0-.12a5,5,0,1,1,9.86,1.64c-10,60.22,30.4,69.91,32.13,70.29a5.33,5.33,0,0,1,.71.22c1.91.72,18.75,7.42,23.65,19.94a19.27,19.27,0,0,1-1,16c-3.14,6.28-7.68,10.29-13.49,11.91A21.21,21.21,0,0,1,77.25,343.91ZM29.76,251.46q.21,9.33,1.21,19c.05.36,5.18,41.78,35.62,60.23.14.09,7.46,4.56,13.74,2.79,3-.85,5.35-3.06,7.2-6.75a9.15,9.15,0,0,0,.57-7.85c-2.74-7-13.35-12.45-17.59-14.12a53.66,53.66,0,0,1-24.23-14.57C35.54,279.1,31,265.12,29.76,251.46Z"/><path class="cls-1" d="M26,276a5,5,0,0,1-5-4.78c0-1-.9-24.51,12.06-53.63,11.9-26.74,38.23-63.41,96.11-86.24a5,5,0,1,1,3.66,9.3C89.09,157.91,58.66,185,42.4,221.2,30.24,248.25,31,270.57,31,270.79a5,5,0,0,1-4.79,5.2Z"/><path class="cls-1" d="M178.32,343.91a21.21,21.21,0,0,1-5.73-.76c-5.81-1.62-10.35-5.63-13.49-11.91a19.27,19.27,0,0,1-.95-16c2.16-5.51,6.85-10.56,14-15a59.74,59.74,0,0,1,9.68-4.92l.11-.05c1.9-.67,46.39-17.19,36.08-69.8-.52-1.48-1.07-3-1.67-4.5-14.17-36.08-43.49-63.1-87.15-80.33A5,5,0,0,1,126,136V90a5,5,0,0,1,6.51-4.77c1.21.39,29.9,9.7,57,37.4a157.37,157.37,0,0,1,35.71,57.23c9.68,26.92,12.83,57.67,9.37,91.4a2.85,2.85,0,0,0,0,.3s0,.06,0,.08c-.39,3.28-6.24,46.95-40.37,67.64A33.06,33.06,0,0,1,178.32,343.91Zm7-39.22c-4.06,1.56-15.08,7.12-17.85,14.23a9.17,9.17,0,0,0,.58,7.84c1.85,3.71,4.22,5.92,7.24,6.76,6.26,1.75,13.55-2.7,13.62-2.75,30.63-18.56,35.65-59.92,35.7-60.33v0c0-.23.16-1.71.2-4.22a65.06,65.06,0,0,1-13.52,20.95A73.84,73.84,0,0,1,185.31,304.69ZM136,132.62c51.34,21.15,75.64,53.3,87.15,78.81a167.06,167.06,0,0,0-7.25-27.9A147.45,147.45,0,0,0,182.66,130,151.42,151.42,0,0,0,136,97.34Z"/><path class="cls-1" d="M131,95a5,5,0,0,1-5-5V65a5,5,0,0,1,10,0V90A5,5,0,0,1,131,95Z"/><path class="cls-1" d="M364.57,497c-37.2,0-63.74-10.9-78.87-32.4-13.82-19.63-15.42-44.08-15.42-60.77,0-9.51,1.14-22.6,2.57-39.17,4.28-49.45,10.75-124.16-2.51-211.19-3.72-24.39-3.86-46.38-.41-65.36,4.59-25.31,15.5-44.49,32.45-57C327.7,12.45,364,9.5,402,23,424.81,31.2,446.16,45,460.52,60.82c38.34,42.34,42.71,100.25,39.61,141.38-3.76,50.08-9.62,109.09-24.48,167.1l-1,4.08c-7.53,29.5-16.07,62.95-35.62,87.77C420.77,484.27,394.34,497,364.57,497ZM356.25,24.64c-18.34,0-34.86,4.89-47.94,14.53-14.82,10.94-24.42,28-28.54,50.73-3.25,17.89-3.09,38.77.45,62.06,13.45,88.21,6.91,163.64,2.59,213.56-1.41,16.33-2.53,29.23-2.53,38.31,0,15.33,1.41,37.71,13.6,55C307,477.53,330.81,487,364.57,487c26.64,0,50.28-11.38,66.55-32,18.24-23.16,26.5-55.51,33.79-84.06l1-4.08c14.67-57.26,20.47-115.73,24.2-165.37,5.34-71-17.2-112-37.05-133.92C439.82,52.87,420,40.08,398.59,32.46A126.67,126.67,0,0,0,356.25,24.64Z"/><path class="cls-1" d="M436.75,343.91a21.21,21.21,0,0,1-5.73-.76c-5.81-1.62-10.35-5.63-13.49-11.91a19.27,19.27,0,0,1-.95-16c2.16-5.51,6.85-10.56,14-15a59.74,59.74,0,0,1,9.68-4.92,3.62,3.62,0,0,1,.73-.22c1.71-.38,42.14-10.07,32.11-70.29a5,5,0,0,1,9.86-1.64l0,.14a165.25,165.25,0,0,0-9.6-39.71A147.59,147.59,0,0,0,438,130C411,103.91,381.85,94.88,381.56,94.79a5,5,0,0,1,2.88-9.58c1.27.38,31.49,9.67,60.16,37.32a157.52,157.52,0,0,1,38,57.22c10.39,27,13.89,57.9,10.38,91.76-.22,1.95-5.68,46.74-40.38,67.77A33.06,33.06,0,0,1,436.75,343.91Zm6.74-39.13c-4.24,1.69-14.88,7.17-17.6,14.14a9.17,9.17,0,0,0,.58,7.84c1.85,3.71,4.22,5.92,7.24,6.76,6.26,1.75,13.55-2.7,13.62-2.75C478,312.21,483,270.85,483,270.44q1-9.69,1.21-19c-1.26,13.67-5.77,27.66-16.52,38.79A53.45,53.45,0,0,1,443.49,304.78Z"/><path class="cls-1" d="M488,276h-.22a5,5,0,0,1-4.78-5.21c0-.46.69-22.68-11.4-49.59-16.26-36.19-46.69-63.29-90.43-80.55a5,5,0,0,1,3.66-9.3c57.88,22.83,84.21,59.5,96.11,86.24,13,29.12,12.1,52.64,12.06,53.63A5,5,0,0,1,488,276Z"/><path class="cls-1" d="M335.68,343.91c-8.39,0-15.56-4.45-15.92-4.68-34.62-21-40.08-65.77-40.3-67.67h0c0-.05,0-.17,0-.36-3.44-33.73-.29-64.45,9.38-91.34a157.37,157.37,0,0,1,35.71-57.23c27.08-27.7,55.77-37,57-37.4A5,5,0,0,1,388,90v46a5,5,0,0,1-3.17,4.65C341,158,311.6,185.13,297.5,221.43c-.53,1.36-1,2.71-1.49,4-10.32,52.61,34.18,69.13,36.09,69.81l.1,0c1.91.72,18.75,7.42,23.65,19.94a19.27,19.27,0,0,1-1,16c-3.14,6.28-7.68,10.29-13.49,11.91A21.21,21.21,0,0,1,335.68,343.91Zm-46.3-73.61a1.23,1.23,0,0,1,0,.19c.05.36,5.18,41.78,35.62,60.23.14.09,7.46,4.56,13.74,2.79,3-.85,5.35-3.06,7.2-6.75a9.15,9.15,0,0,0,.57-7.85c-2.79-7.15-13.77-12.67-17.83-14.22a73.65,73.65,0,0,1-26-17.55,65.12,65.12,0,0,1-13.53-21C289.22,268.44,289.34,269.88,289.38,270.3ZM378,97.34A151.36,151.36,0,0,0,331.34,130a147.45,147.45,0,0,0-33.24,53.57,166.08,166.08,0,0,0-7.24,27.9c11.5-25.51,35.8-57.66,87.14-78.81Z"/><path class="cls-1" d="M383,95a5,5,0,0,1-5-5V65a5,5,0,0,1,10,0V90A5,5,0,0,1,383,95Z"/><path class="cls-1" d="M109.85,452.15a5,5,0,0,1-5-4.38l-7-56.57a5,5,0,0,1,4.35-5.58l86.33-10.73a5,5,0,0,1,5.58,4.34l7,56.57a5,5,0,0,1-4.35,5.58l-86.33,10.73A4.4,4.4,0,0,1,109.85,452.15Zm-1.45-57.22,5.79,46.64,76.41-9.5-5.79-46.64Z"/><path class="cls-1" d="M403.15,452.15a4.4,4.4,0,0,1-.62,0L316.2,441.38a5,5,0,0,1-4.35-5.58l7-56.57a5,5,0,0,1,5.58-4.34l86.33,10.73a5,5,0,0,1,4.35,5.58l-7,56.57a5,5,0,0,1-5,4.38ZM322.4,432.07l76.41,9.5,5.79-46.64-76.41-9.5Z"/></g><g id="Outline"><path class="cls-1" d="M128.06,420.6a5,5,0,0,1-.61-10l41.87-5.2a5,5,0,1,1,1.23,9.92l-41.87,5.2A4.3,4.3,0,0,1,128.06,420.6Z"/><path class="cls-1" d="M384.94,420.6a4.3,4.3,0,0,1-.62,0l-41.87-5.2a5,5,0,1,1,1.23-9.92l41.87,5.2a5,5,0,0,1-.61,10Z"/></g></svg>