<?xml version="1.0" ?><svg viewBox="0 0 512 512" xmlns="http://www.w3.org/2000/svg"><defs><style>.cls-1{fill:#3f456b;}</style></defs><title/><g id="Lines"><path class="cls-1" d="M36,470a5,5,0,0,1,5-5h0a5,5,0,0,1,5,5h0a5,5,0,0,1-5,5h0A5,5,0,0,1,36,470Z"/><path class="cls-1" d="M463,470a5,5,0,0,1,5-5h0a5,5,0,0,1,5,5h0a5,5,0,0,1-5,5h0A5,5,0,0,1,463,470Z"/><path class="cls-1" d="M36,41a5,5,0,0,1,5-5h0a5,5,0,0,1,5,5h0a5,5,0,0,1-5,5h0A5,5,0,0,1,36,41Z"/><path class="cls-1" d="M463,41a5,5,0,0,1,5-5h0a5,5,0,0,1,5,5h0a5,5,0,0,1-5,5h0A5,5,0,0,1,463,41Z"/><path class="cls-1" d="M462.69,501H47.31A37.36,37.36,0,0,1,10,463.69V47.31A37.36,37.36,0,0,1,47.31,10H462.69A37.36,37.36,0,0,1,500,47.31V463.69A37.36,37.36,0,0,1,462.69,501ZM47.31,20A27.34,27.34,0,0,0,20,47.31V463.69A27.34,27.34,0,0,0,47.31,491H462.69A27.34,27.34,0,0,0,490,463.69V47.31A27.34,27.34,0,0,0,462.69,20Z"/><path class="cls-1" d="M255,452.5c-108.63,0-197-88.37-197-197s88.37-197,197-197,197,88.37,197,197S363.63,452.5,255,452.5Zm0-384c-103.11,0-187,83.89-187,187s83.89,187,187,187,187-83.89,187-187S358.11,68.5,255,68.5Z"/><path class="cls-1" d="M255,293.17a37.67,37.67,0,1,1,37.67-37.67A37.71,37.71,0,0,1,255,293.17Zm0-65.34a27.67,27.67,0,1,0,27.67,27.67A27.7,27.7,0,0,0,255,227.83Z"/></g><g id="Outline"><path class="cls-1" d="M255,419.5c-90.43,0-164-73.57-164-164s73.57-164,164-164,164,73.57,164,164S345.43,419.5,255,419.5Zm0-318c-84.92,0-154,69.08-154,154s69.08,154,154,154,154-69.08,154-154S339.92,101.5,255,101.5Z"/><path class="cls-1" d="M255,388.83c-73.52,0-133.33-59.81-133.33-133.33S181.48,122.17,255,122.17,388.33,182,388.33,255.5,328.52,388.83,255,388.83Zm0-256.66A123.33,123.33,0,1,0,378.33,255.5,123.46,123.46,0,0,0,255,132.17Z"/><path class="cls-1" d="M255,356.83A101.33,101.33,0,1,1,356.33,255.5,101.44,101.44,0,0,1,255,356.83Zm0-192.66a91.33,91.33,0,1,0,91.33,91.33A91.43,91.43,0,0,0,255,164.17Z"/><path class="cls-1" d="M255,324.83a69.33,69.33,0,1,1,69.33-69.33A69.41,69.41,0,0,1,255,324.83Zm0-128.66a59.33,59.33,0,1,0,59.33,59.33A59.39,59.39,0,0,0,255,196.17Z"/><path class="cls-1" d="M447,261H289a5,5,0,0,1,0-10H447a5,5,0,0,1,0,10Z"/><path class="cls-1" d="M221,261H63a5,5,0,0,1,0-10H221a5,5,0,0,1,0,10Z"/><path class="cls-1" d="M255,453a5,5,0,0,1-5-5V289a5,5,0,0,1,10,0V448A5,5,0,0,1,255,453Z"/><path class="cls-1" d="M255,227a5,5,0,0,1-5-5V64a5,5,0,0,1,10,0V222A5,5,0,0,1,255,227Z"/></g></svg>