<?xml version="1.0" ?><svg id="Lines" viewBox="0 0 512 512" xmlns="http://www.w3.org/2000/svg"><defs><style>.cls-1{fill:none;}.cls-2{fill:#3f456b;}</style></defs><title/><path class="cls-1" d="M235.26,55.47V35.89A20.94,20.94,0,0,1,256.14,15h0A21,21,0,0,1,277,35.89V55.47"/><path class="cls-2" d="M366.82,500H349c-8.13,0-12.89-3.37-15.44-6.2-6-6.67-5.66-16.05-5.5-18.06V341a71.89,71.89,0,0,0-143.78,0V475.74c.16,2,.54,11.39-5.5,18.06-2.55,2.83-7.31,6.2-15.43,6.2H147.84c-8.4,0-14.85-4.49-18.17-12.64a33.17,33.17,0,0,1-2.3-11.4V229.58a5,5,0,0,1,10,0V476c0,1.42.4,14,10.47,14h15.48c3.63,0,6.25-.95,8-2.91,3.45-3.81,2.94-10.56,2.94-10.63a4.19,4.19,0,0,1,0-.5V341A81.89,81.89,0,0,1,338,341V476c0,.17,0,.33,0,.5-.17,1.86,0,7.46,3,10.66,1.77,1.94,4.39,2.88,8,2.88h17.85a7.79,7.79,0,0,0,6-2.24c3.05-3.22,3.41-9.4,3.3-11.51a2.81,2.81,0,0,1,0-.29V229.58a5,5,0,0,1,10,0V475.82c.09,1.84.3,12.09-6,18.76A17.69,17.69,0,0,1,366.82,500Z"/><path class="cls-2" d="M332,339.91H180.28a5,5,0,0,1,0-10H332a5,5,0,0,1,0,10Z"/><path class="cls-2" d="M313.45,296.25H198.83a5,5,0,0,1,0-10H313.45a5,5,0,1,1,0,10Z"/><path class="cls-2" d="M333,373H179.28a5,5,0,1,1,0-10H333a5,5,0,0,1,0,10Z"/><path class="cls-2" d="M304,404.59H208.28a5,5,0,0,1,0-10H304a5,5,0,0,1,0,10Z"/><path class="cls-2" d="M208.14,500a5,5,0,0,1-5-5V368a5,5,0,0,1,10,0V495A5,5,0,0,1,208.14,500Z"/><path class="cls-2" d="M304,500a5,5,0,0,1-5-5V368a5,5,0,0,1,10,0V495A5,5,0,0,1,304,500Z"/><path class="cls-2" d="M304,468.25H208.28a5,5,0,1,1,0-10H304a5,5,0,0,1,0,10Z"/><path class="cls-2" d="M304,436.25H208.28a5,5,0,1,1,0-10H304a5,5,0,0,1,0,10Z"/><path class="cls-2" d="M257.05,339.91a5,5,0,0,1-5-5V291.25a5,5,0,0,1,10,0v43.66A5,5,0,0,1,257.05,339.91Z"/><path class="cls-2" d="M217,339.91a5,5,0,0,1-5-5V291.25a5,5,0,0,1,10,0v43.66A5,5,0,0,1,217,339.91Z"/><path class="cls-2" d="M297.16,339.91a5,5,0,0,1-5-5V291.25a5,5,0,0,1,10,0v43.66A5,5,0,0,1,297.16,339.91Z"/><path class="cls-2" d="M37.88,500c-3.5,0-12.12-.67-18.74-6.75-5.4-5-8.14-12.11-8.14-21.29,0-28.67,28.09-29,28.37-29H69.58l58.48-75.07a5,5,0,1,1,7.88,6.14l-60,77A5,5,0,0,1,72,453H39.37c-1.86,0-18.37.71-18.37,19,0,6.26,1.65,10.94,4.9,13.92,5,4.62,12.59,4.11,12.67,4.1H76.3a3.39,3.39,0,0,1,.45,0c.26,0,7.73.44,14-6.55s37-46.17,37.28-46.56a5,5,0,0,1,7.88,6.16c-1.27,1.62-31.11,39.73-37.73,47.08A28.7,28.7,0,0,1,76.15,500h-37C38.9,500,38.46,500,37.88,500Z"/><path class="cls-2" d="M475.12,500c-.58,0-1,0-1.29,0h-37a28.66,28.66,0,0,1-22.06-9.85c-6.62-7.35-36.46-45.46-37.73-47.08a5,5,0,1,1,7.88-6.16c.31.39,30.89,39.45,37.28,46.56S436,490,436.3,490h38.13c.05,0,7.69.52,12.73-4.15,3.21-3,4.84-7.65,4.84-13.87,0-8-2.93-13.45-9-16.55a23.63,23.63,0,0,0-9.4-2.45H441a5,5,0,0,1-4-1.93l-60-77a5,5,0,0,1,7.88-6.14L443.42,443h30.21c.28,0,28.37.33,28.37,29,0,9.18-2.74,16.34-8.14,21.29C487.24,499.37,478.62,500,475.12,500Z"/><path class="cls-2" d="M400,500H112a5,5,0,0,1,0-10H400a5,5,0,0,1,0,10Z"/><path class="cls-2" d="M378,233H134a26,26,0,0,1,0-52H378a26,26,0,0,1,0,52ZM134,191a16,16,0,0,0,0,32H378a16,16,0,0,0,0-32Z"/><path class="cls-2" d="M350,191H162a26,26,0,0,1,0-52H350a26,26,0,0,1,0,52ZM162,149a16,16,0,0,0,0,32H350a16,16,0,0,0,0-32Z"/><path class="cls-2" d="M317,149H195a26,26,0,0,1,0-52H317a26,26,0,0,1,0,52ZM195,107a16,16,0,0,0,0,32H317a16,16,0,0,0,0-32Z"/><path class="cls-2" d="M286,107H226a26,26,0,0,1,0-52h60a26,26,0,0,1,0,52ZM226,65a16,16,0,0,0,0,32h60a16,16,0,0,0,0-32Z"/><path class="cls-2" d="M113,212.58H51.34a40.76,40.76,0,0,1-10.19-79.85c-.07-.82-.1-1.64-.1-2.47a31.86,31.86,0,0,1,51-25.45,55.23,55.23,0,0,1,96-2.12,5,5,0,1,1-8.57,5.14,44.9,44.9,0,0,0-38.81-22A45.46,45.46,0,0,0,98.36,115a5,5,0,0,1-8.54,1.4,21.86,21.86,0,0,0-38.77,13.84,22.08,22.08,0,0,0,.61,5.13,5,5,0,0,1-4,6.11,30.75,30.75,0,0,0,4,61.08H113a5,5,0,1,1,0,10Z"/><path class="cls-2" d="M297.86,337.85a5,5,0,0,1-5-5,40.56,40.56,0,0,1,25.8-37.93,5,5,0,1,1,3.67,9.3,30.62,30.62,0,0,0-19.47,28.63A5,5,0,0,1,297.86,337.85Z"/><path class="cls-2" d="M457.31,373.59H381.12a5,5,0,0,1,0-10h83.74a27.23,27.23,0,0,0,4.52-54,5,5,0,0,1-3.95-6.17,45.23,45.23,0,0,0-80.28-38.05,5,5,0,1,1-8.06-5.91,55.22,55.22,0,0,1,99.78,32.62,56.71,56.71,0,0,1-.72,8.93,37.23,37.23,0,0,1-11.23,72.61Z"/><path class="cls-2" d="M277,60.47a5,5,0,0,1-5-5V35.89a15.89,15.89,0,1,0-31.77,0V55.47a5,5,0,1,1-10,0V35.89A25.91,25.91,0,0,1,256.14,10,26,26,0,0,1,282,35.89V55.47A5,5,0,0,1,277,60.47Z"/></svg>