<?xml version="1.0" ?><svg viewBox="0 0 512 512" xmlns="http://www.w3.org/2000/svg"><defs><style>.cls-1{fill:#3f456b;}</style></defs><title/><g id="Lines"><path class="cls-1" d="M294.48,307.18a5,5,0,0,1-5-5c0-13.6,4-24.23,12-31.59,12.63-11.68,30.38-10.43,31.14-10.36a5,5,0,0,1-.77,10c-.23,0-14.3-.9-23.64,7.79-5.8,5.39-8.73,13.53-8.73,24.19A5,5,0,0,1,294.48,307.18Z"/><path class="cls-1" d="M332.13,270.07c-12.63,0-27.91-4.24-42.49-19.21a5,5,0,1,1,7.17-7c31.16,32,65.34,7,66.78,5.9a5,5,0,0,1,5.17-.52c12.73,6.1,24.1,7.3,33.78,3.57,14.39-5.53,20.5-20,20.56-20.19a5,5,0,0,1,5.64-3c.22.05,23.47,4.55,41.34-8.75,12.13-9,19.25-24.28,21.17-45.33,6.24-68.54-47.88-76.76-50.19-77.07a5.05,5.05,0,0,1-3.77-2.64c-10.6-20.28-27-30.88-48.78-31.51a80.31,80.31,0,0,0-30.17,5.2,5,5,0,0,1-3.9-9.21,89.65,89.65,0,0,1,34.36-6c17.19.5,40.69,7,56.18,34.71A74.37,74.37,0,0,1,474.6,103c25.69,20.1,28.65,51.08,26.61,73.53C499,200.54,490.52,218.2,476,229c-16.95,12.57-37.06,12-45.38,11-3.19,5.76-10.86,16.92-24.45,22.15-11.64,4.47-24.77,3.57-39.05-2.68a70.89,70.89,0,0,1-23.14,9.36A59.31,59.31,0,0,1,332.13,270.07Z"/><path class="cls-1" d="M137.23,270.16A94.75,94.75,0,0,1,78.91,250c-14.21,3.08-25.71,1.15-34.22-5.77-12.45-10.11-14.19-27.7-14.39-34.36-6.05-5.19-22.5-22.27-19-52.28,2.77-24.06,17-36.49,28.42-42.68a69.17,69.17,0,0,1,21-7.19C68,89.42,79.73,76.88,95.41,70.48c31.41-12.82,67.15,3.79,68.65,4.5a5,5,0,0,1-4.27,9c-.33-.16-33.36-15.43-60.65-4.26C85.4,85.39,75.23,96.92,68.92,114.05a5,5,0,0,1-4.3,3.25c-1.58.13-39.08,3.74-43.43,41.47-3.45,30,16.76,44.49,17,44.63a5,5,0,0,1,2.13,4.31c0,.19-.62,19.64,10.74,28.83,6.42,5.2,15.84,6.27,28,3.2a5,5,0,0,1,4.64,1.2c.2.18,21.12,19.22,53.59,19.22,41.08,0,50.36-18.57,50.44-18.76a5,5,0,0,1,6.58-2.54,5,5,0,0,1,2.56,6.62C196.36,246.49,185.44,270.16,137.23,270.16Z"/><path class="cls-1" d="M217.23,307.18a5,5,0,0,1-5-5c0-21.6-11.56-31.5-20.84-39.46-2.18-1.87-4.25-3.64-6-5.44a5,5,0,0,1,7.13-7c1.47,1.5,3.37,3.13,5.39,4.86,9.68,8.3,24.33,20.85,24.33,47.05A5,5,0,0,1,217.23,307.18Z"/><path class="cls-1" d="M230.78,364.49c-16.46,0-30.56-4.52-39.49-12.84A32,32,0,0,1,180.88,327c.18-9.45,3.23-16.86,9.07-22,8.88-7.84,21.88-8.32,31.23-7.34,10.44,1.1,15-.2,15-.21a5,5,0,0,1,6.3,3.14,5,5,0,0,1-3.18,6.36c-.61.2-6.4,2-19.16.66-10.4-1.09-18.77.64-23.57,4.88-3.7,3.27-5.57,8.08-5.69,14.71a22,22,0,0,0,7.23,17.16c8.36,7.79,23,11.37,40.31,9.81a5,5,0,1,1,.9,10Q235,364.49,230.78,364.49Z"/><path class="cls-1" d="M281.85,364.87q-4.16,0-8.53-.39a5,5,0,0,1,.9-10c16.65,1.5,30.86-2,39-9.53a22.78,22.78,0,0,0,7.41-17.82c-.13-6.63-2-11.44-5.7-14.71-4.8-4.24-13.17-6-23.56-4.88-12.77,1.34-18.55-.46-19.17-.66a5,5,0,0,1,3.13-9.5c.23.07,4.77,1.29,15,.21,9.35-1,22.36-.5,31.23,7.34,5.84,5.15,8.89,12.56,9.08,22A32.82,32.82,0,0,1,320,352.3C311.19,360.52,297.84,364.87,281.85,364.87Z"/><path class="cls-1" d="M171,452.5a5,5,0,0,1-2.6-9.27c19.9-12.12,33.33-29.73,39.92-52.36a96.36,96.36,0,0,0,4-30.93,5,5,0,0,1,10-.81c0,.62,1.18,15.37-4.21,34.14a99.58,99.58,0,0,1-44.43,58.5A5,5,0,0,1,171,452.5Z"/><path class="cls-1" d="M484,500.5H32.23a5,5,0,0,1-3.46-1.39c-.21-.2-20.89-20.51-.38-45.07A47.59,47.59,0,0,1,67.5,436.93a44,44,0,0,1,31.09,14.41,87.58,87.58,0,0,1,26.22-12.81c16.69-4.78,41.54-5.49,65.13,18.28a5,5,0,1,1-7.1,7c-16.17-16.3-34.77-21.58-55.28-15.71A76.63,76.63,0,0,0,101,462.09a5,5,0,0,1-7.42-.93c-5.84-8.53-15.53-13.72-26.58-14.24a37.72,37.72,0,0,0-31,13.54c-12.06,14.43-4.94,26-1.63,30H482.57c5.72-4,2.43-11.11,2-11.94-7.36-14.6-34-2.64-34.27-2.52a5,5,0,0,1-7-5.45c0-.07,1.58-9.46-3.62-16.34-3.32-4.39-8.86-7-16.47-7.78-25.6-2.62-35.35,18.83-35.45,19a5,5,0,0,1-6.29,2.68c-44.67-16.34-66.88-45.13-77.65-66.41-11.7-23.12-12.76-42.26-12.8-43.06a5,5,0,0,1,10-.5h0c0,.18,1.07,18.16,11.95,39.45,13.91,27.24,36.75,47.27,67.92,59.59a45,45,0,0,1,43.35-20.74c10.54,1.07,18.45,5,23.51,11.78a30.4,30.4,0,0,1,5.68,15.92c11.05-3.46,31.57-7.07,40.1,9.85a24.8,24.8,0,0,1,2.31,9.29,17.24,17.24,0,0,1-9.47,16.52A5,5,0,0,1,484,500.5Z"/><path class="cls-1" d="M363.52,84.5A5,5,0,0,1,358.76,81c-.06-.19-5.09-15.41-20-30.36-19.95-20-47.29-30.16-81.24-30.16s-59.6,10.15-76.1,30.18c-12.17,14.77-14.54,29.44-14.56,29.58A5,5,0,0,1,157,78.74c.11-.71,2.84-17.55,16.74-34.42,23-27.95,58.28-33.82,83.81-33.82,46,0,73.63,18.21,88.71,33.49,16.43,16.66,21.83,33.3,22.05,34A5,5,0,0,1,365,84.27,5.06,5.06,0,0,1,363.52,84.5Z"/><path class="cls-1" d="M80.22,249.59A5,5,0,0,1,77,248.44,48.89,48.89,0,0,1,65,231.64c-4.36-9.81-7.59-25.71,1.72-45.75a5,5,0,0,1,9.07,4.22c-14.7,31.63,7.43,50.44,7.65,50.63a5,5,0,0,1-3.19,8.85Z"/><path class="cls-1" d="M427.72,239.56a5,5,0,0,1-4.38-7.41c10-18.25-.93-39.61-1-39.82a5,5,0,0,1,8.84-4.67c.57,1.06,13.62,26.26,1,49.3A5,5,0,0,1,427.72,239.56Z"/><path class="cls-1" d="M141.48,225.52c-1,0-2.06,0-3.11-.08-29.64-1.55-38.7-22.68-39.35-33.64a5,5,0,0,1,10-.62c.07,1,2,22.82,29.89,24.27,29,1.52,38.8-23.15,38.9-23.4a5,5,0,0,1,8.19-1.77c.79.77,19.84,18.93,42.94,1.25a5,5,0,1,1,6.08,7.94c-20.37,15.59-40,9.61-51,2.08C178.64,210.27,165.75,225.52,141.48,225.52Z"/><path class="cls-1" d="M352.36,207.19l-2.38,0c-17.79-.57-28.06-8-33.54-14.23a35.14,35.14,0,0,1-7.82-14,5,5,0,0,1,9.71-2.38c.22.85,5.42,19.72,32,20.56,27.44.86,36.1-16.06,36.19-16.23a5,5,0,1,1,9,4.41C395,186.26,384.34,207.19,352.36,207.19Z"/><path class="cls-1" d="M224.23,468.48a5.22,5.22,0,0,1-1.1-.12,5,5,0,0,1-3.79-5.92c.23-1.05,5.95-25.78,37.27-32s45.66,17.6,49.28,25.05a5,5,0,1,1-9,4.37c-3.62-7.47-14.62-24.33-38.32-19.61-24.7,4.91-29.28,23.56-29.47,24.35A5,5,0,0,1,224.23,468.48Z"/><path class="cls-1" d="M424.66,368.34h-.23a23.4,23.4,0,0,1,.21-46.79h.23A23.39,23.39,0,0,1,448,345.16h0a23.39,23.39,0,0,1-23.38,23.18Zm0-36.79a13.4,13.4,0,0,0-.12,26.79h.12A13.4,13.4,0,0,0,438,345.07h0a13.38,13.38,0,0,0-13.26-13.52Z"/><path class="cls-1" d="M424.67,422.5h-.74a77.56,77.56,0,0,1,.71-155.11h.74a77.56,77.56,0,0,1-.71,155.11Zm0-145.11A67.56,67.56,0,0,0,424,412.5h.65a67.56,67.56,0,0,0,.61-135.11Z"/><g data-name="&lt;编组&gt;" id="_编组_"><path class="cls-1" d="M406,349.51H406l-36.56-.35a5,5,0,0,1-4.92-5.07,60.42,60.42,0,0,1,30.76-51.67,5,5,0,0,1,6.81,1.92l18,32.11a5,5,0,0,1-8.73,4.88l-15.41-27.52a50.49,50.49,0,0,0-21.09,35.4l31.25.3a5,5,0,0,1,0,10Z"/><path class="cls-1" d="M479.83,350.19h-.26l-36.37-.34a5,5,0,0,1,.05-10h0l31.31.3a50.42,50.42,0,0,0-20.25-35.66l-15.88,26.95a5,5,0,1,1-8.62-5.08L447.75,296a5,5,0,0,1,7.35-3,60.4,60.4,0,0,1,29.73,52.2A5,5,0,0,1,479.83,350.19Z"/><path class="cls-1" d="M424.65,405.13h-.56a60.25,60.25,0,0,1-29.89-8.26,5,5,0,0,1-2-6.39l.28-.61a5.06,5.06,0,0,1,.24-.46l18.26-31a5,5,0,1,1,8.61,5.08l-15.93,27a50.43,50.43,0,0,0,20.53,4.59h.47a50.13,50.13,0,0,0,20.34-4.3l-15.48-27.22a5,5,0,0,1,8.7-4.94L456,390a5,5,0,0,1,.66,2.45v.61a5,5,0,0,1-2.55,4.38A60.14,60.14,0,0,1,424.65,405.13Z"/></g></g><g id="Outline"><path class="cls-1" d="M161.08,307.9h-1a5,5,0,0,1,0-10h1a5,5,0,1,1,0,10Z"/><path class="cls-1" d="M161.08,393.34h-1a5,5,0,1,1,0-10h1a5,5,0,0,1,0,10Z"/><path class="cls-1" d="M130.17,307.9h-1a5,5,0,1,1,0-10h1a5,5,0,0,1,0,10Z"/><path class="cls-1" d="M146.17,350.62h-1a5,5,0,1,1,0-10h1a5,5,0,0,1,0,10Z"/><path class="cls-1" d="M130.17,393.34h-1a5,5,0,1,1,0-10h1a5,5,0,1,1,0,10Z"/><path class="cls-1" d="M99.25,307.9h-1a5,5,0,0,1,0-10h1a5,5,0,0,1,0,10Z"/><path class="cls-1" d="M115.25,350.62h-1a5,5,0,0,1,0-10h1a5,5,0,0,1,0,10Z"/><path class="cls-1" d="M99.25,393.34h-1a5,5,0,0,1,0-10h1a5,5,0,0,1,0,10Z"/><path class="cls-1" d="M68.33,307.9h-1a5,5,0,1,1,0-10h1a5,5,0,0,1,0,10Z"/><path class="cls-1" d="M84.33,350.62h-1a5,5,0,1,1,0-10h1a5,5,0,0,1,0,10Z"/><path class="cls-1" d="M68.33,393.34h-1a5,5,0,1,1,0-10h1a5,5,0,0,1,0,10Z"/><path class="cls-1" d="M37.42,307.9h-1a5,5,0,0,1,0-10h1a5,5,0,1,1,0,10Z"/><path class="cls-1" d="M53.42,350.62h-1a5,5,0,0,1,0-10h1a5,5,0,1,1,0,10Z"/><path class="cls-1" d="M37.42,393.34h-1a5,5,0,0,1,0-10h1a5,5,0,1,1,0,10Z"/></g></svg>