<?xml version="1.0" ?><svg viewBox="0 0 512 512" xmlns="http://www.w3.org/2000/svg"><defs><style>.cls-1{fill:#3f456b;}</style></defs><title/><g id="Lines"><path class="cls-1" d="M481.28,261.81H406.4a5,5,0,0,1,0-10h69.88V150.34c0-29.74-11.82-53.66-35.14-71.09a109.67,109.67,0,0,0-35.89-17.64l-.47-.14L336,37.81a59.81,59.81,0,0,1-16.23,32.78c-14,14.31-35.24,21.57-63.08,21.57s-49.06-7.26-63.08-21.57a59.81,59.81,0,0,1-16.23-32.78L108.5,61.47l-.48.14A109.77,109.77,0,0,0,72.14,79.25C48.82,96.68,37,120.6,37,150.34V251.81h69.88a5,5,0,0,1,0,10H32a5,5,0,0,1-5-5V150.34C27,109,48.46,84.37,66.46,71a118.64,118.64,0,0,1,39-19.07l74.66-25.67a5,5,0,0,1,6.63,4.83,50,50,0,0,0,14.07,32.62C212.9,76,231.68,82.16,256.64,82.16s43.87-6.25,55.93-18.56a49.49,49.49,0,0,0,13.95-32.5,5,5,0,0,1,6.62-4.83l74.67,25.67a118.64,118.64,0,0,1,39,19.07c18,13.36,39.46,38,39.46,79.33V256.81A5,5,0,0,1,481.28,261.81Z"/><path class="cls-1" d="M260.84,44.38c-43.71,0-77-8-79.11-8.53a5,5,0,0,1,2.39-9.71c.75.19,75.76,18.19,147.34,0a5,5,0,1,1,2.46,9.7C308.71,42.25,283.39,44.38,260.84,44.38Z"/><path class="cls-1" d="M406.4,485.28H106.88a5,5,0,0,1-5-5V162a5,5,0,1,1,10,0V475.28H401.4V162a5,5,0,1,1,10,0V480.28A5,5,0,0,1,406.4,485.28Z"/><path class="cls-1" d="M257,369A101.5,101.5,0,1,1,358.5,267.5,101.61,101.61,0,0,1,257,369Zm0-193a91.5,91.5,0,1,0,91.5,91.5A91.61,91.61,0,0,0,257,176Z"/><path class="cls-1" d="M228.82,241.76a5,5,0,0,1-5-5V217.12a5,5,0,0,1,10,0v19.64A5,5,0,0,1,228.82,241.76Z"/><path class="cls-1" d="M284.33,241.76a5,5,0,0,1-5-5V217.12a5,5,0,0,1,10,0v19.64A5,5,0,0,1,284.33,241.76Z"/><path class="cls-1" d="M256.15,338.26c-34.08,0-52.25-18-61.49-33.14a87.71,87.71,0,0,1-11.8-32.8,5,5,0,0,1,9.94-1.11,79.06,79.06,0,0,0,10.58,29c11.5,18.62,29.25,28.06,52.77,28.06,57.72,0,63.13-54.59,63.33-56.91a5,5,0,0,1,10,.84,84.4,84.4,0,0,1-11.15,32.89C309.26,320.21,291.14,338.26,256.15,338.26Z"/><path class="cls-1" d="M334.82,279.83a5.16,5.16,0,0,1-1.83-.35l-19.86-7.82a5,5,0,0,1,3.66-9.31l19.87,7.82a5,5,0,0,1-1.84,9.66Z"/><path class="cls-1" d="M177.47,279.83a5,5,0,0,1-1.83-9.66l19.86-7.82a5,5,0,0,1,3.67,9.31l-19.87,7.82A5.12,5.12,0,0,1,177.47,279.83Z"/></g><g id="Outline"><path class="cls-1" d="M256.69,119.07c-38.76,0-68.07-10.76-87.12-32a84.73,84.73,0,0,1-20.51-44.69A5,5,0,0,1,159,41.15c2,15.93,15.05,67.92,97.71,67.92,82.9,0,96.54-52,98.75-67.9a5,5,0,1,1,9.91,1.37,85.38,85.38,0,0,1-21,44.5C325.05,108.29,295.55,119.07,256.69,119.07Z"/></g></svg>