<?xml version="1.0" ?><svg viewBox="0 0 512 512" xmlns="http://www.w3.org/2000/svg"><defs><style>.cls-1{fill:#3f456b;}</style></defs><title/><g id="Lines"><path class="cls-1" d="M334.86,138.39a64.1,64.1,0,1,1,58.58-38,5,5,0,1,1-9.13-4.08,54.15,54.15,0,1,0-49.45,32.07,54.73,54.73,0,0,0,7.9-.57,5,5,0,1,1,1.45,9.9A64.83,64.83,0,0,1,334.86,138.39Z"/><path class="cls-1" d="M189.33,163.4H105.25l-51.55,0A45.2,45.2,0,0,1,42.87,74.67c-.1-1.07-.15-2.15-.15-3.23a35.23,35.23,0,0,1,57-27.69A61.54,61.54,0,0,1,214.82,82.84a41.22,41.22,0,0,1-11.94,80.56Zm-84.08-10H202.8a31,31,0,0,0,30.95-31.1A31.32,31.32,0,0,0,208,91.44a5,5,0,0,1-3.95-6.17A51.54,51.54,0,0,0,106,54.07a5,5,0,0,1-8.54,1.4,25.22,25.22,0,0,0-44,21.88,5,5,0,0,1-4,6.11A35.2,35.2,0,0,0,54,153.38l51.3,0Z"/><path class="cls-1" d="M16,452a5,5,0,0,1-5-5V351a5,5,0,0,1,1.26-3.32l113-127A5,5,0,0,1,128.9,219l48-1a5.06,5.06,0,0,1,3.83,1.67l20.21,22.59,71.22-85.46a5,5,0,0,1,4.73-1.72l40.77,7.41,46.18-69.26a5,5,0,0,1,5-2.16l48,8a5,5,0,0,1,3.42,2.29l81,130A5,5,0,0,1,502,234l-1,150a5,5,0,0,1-4.86,5c-12.94.37-23,5.05-29.8,13.93A36.19,36.19,0,0,0,459.9,416a5,5,0,0,1-7.67,3.18c-24.81-16.54-66.6-6.41-67-6.31a5,5,0,0,1-5.9-3.11c0-.08-3.92-10.07-15.06-19.88C349.3,376.69,329,370,304,370h0c-55.86,0-71.15,39.35-71.29,39.74a5,5,0,0,1-6.79,2.8c-23.29-10.75-47,3.57-47.28,3.72a5,5,0,0,1-7.55-3.4c-.26-1.43-6.93-35.31-48.54-30.89-17.66,1.88-30.16,10.15-37.16,24.59A55,55,0,0,0,80,428a5,5,0,0,1-6.24,4.84C35,422.93,20.55,449.09,20.41,449.35A5,5,0,0,1,16,452Zm5-99.1v80.56a50.6,50.6,0,0,1,5.64-4.27c8.63-5.64,23-11.18,43.86-7.3a66.29,66.29,0,0,1,5.88-19.7C82.29,390,94.91,374.85,121.47,372c39.08-4.16,53.12,20.7,57.59,32.79,8.94-4,27.21-10,46.45-3.23a73.49,73.49,0,0,1,14.58-18.74c9.86-9.23,26.77-20,53.15-22.38L198.05,254l-.25-.2a4.89,4.89,0,0,1-1.14-1.36l-21.85-24.43-43.52.9Zm392.72,46.74c12.32,0,26.41,1.8,38.53,8,3.94-9.3,14.29-25.7,38.78-28.29l1-143.9L413,108.56l-42.58-7.1-46.21,69.31a5,5,0,0,1-5.05,2.15L278,165.44,207.68,249.8,306.25,360c33.31.52,53.74,12.59,65.09,22.76a71.6,71.6,0,0,1,15.49,19.49A144.31,144.31,0,0,1,413.72,399.64Z"/><path class="cls-1" d="M316.51,253.8a32.41,32.41,0,0,1-13.74-3c-15.9-7.34-22.87-26.06-25.61-36.56a11.79,11.79,0,0,0-6-7.91c-8.59-4.56-23.84-.85-29,1a5,5,0,1,1-3.34-9.42c.92-.33,22.75-7.93,37-.38a21.58,21.58,0,0,1,11,14.23c2.29,8.79,8,24.38,20.12,30,7.21,3.33,15.91,2.57,25.86-2.24,9.59-4.64,14.87-12.33,20-19.78,10.13-14.76,20.61-30,60.34-11.24,18.76,8.87,33.75,10.8,44.53,5.74a26,26,0,0,0,13.49-15.46,5,5,0,0,1,9.68,2.48,36.1,36.1,0,0,1-18.92,22c-13.61,6.39-31.46,4.46-53.06-5.75-15-7.08-25.77-9.32-33-6.83-6.23,2.15-10.22,8-14.84,14.69-5.57,8.12-11.89,17.33-23.86,23.12C329.88,252,323,253.8,316.51,253.8Z"/><path class="cls-1" d="M74.78,322.73c-1.22,0-2.4,0-3.53-.12a55.79,55.79,0,0,1-22.88-6.56,5,5,0,0,1,5.1-8.6c1.29.75,30.94,17.54,56.73-12.69,9.83-11.53,25.7-25.37,45.44-25.78a42.51,42.51,0,0,1,32,13.62c5.08,5.47,13.48,8.18,22.48,7.24,7.69-.8,14.17-4.12,16.91-8.67a5,5,0,0,1,8.57,5.16c-4.39,7.29-13.53,12.33-24.45,13.46-12.1,1.26-23.63-2.63-30.83-10.39A32.6,32.6,0,0,0,155.85,279c-12.69.26-25.85,8-38,22.26C103,318.62,86.79,322.73,74.78,322.73Z"/></g><g id="Outline"><path class="cls-1" d="M68,237a5,5,0,0,1-4.63-3.12c-6.43-16.07-25-14-25.73-13.9A5,5,0,0,1,36.35,210c7.1-.92,20.2.4,29.3,9.43,3.45-7.53,10.71-15.1,24.53-17.4a5,5,0,0,1,1.64,9.86C73,215.07,72.94,230.09,73,231.8a5,5,0,0,1-4,5.08A5.31,5.31,0,0,1,68,237Z"/><path class="cls-1" d="M443.07,83.66l-.49,0a5,5,0,0,1-4.5-4.57C437,65,422,62,421.31,61.88A5,5,0,0,1,423.06,52c6,1.05,16.07,5.33,21.45,14.6,4.91-5,12.75-9,24.31-7.37a5,5,0,0,1-1.38,9.9C452,67,448.27,78.65,447.89,80A5,5,0,0,1,443.07,83.66Z"/><path class="cls-1" d="M333.07,473.66l-.49,0a5,5,0,0,1-4.5-4.57C327,455,312,452,311.31,451.88a5,5,0,0,1,1.75-9.84c6,1,16.07,5.33,21.45,14.6,4.91-5,12.76-9,24.31-7.37a5,5,0,1,1-1.38,9.9C342,457,338.27,468.65,337.89,470A5,5,0,0,1,333.07,473.66Z"/></g></svg>