<?xml version="1.0" ?><svg enable-background="new 0 0 512 512" version="1.1" viewBox="0 0 512 512" xml:space="preserve" xmlns="http://www.w3.org/2000/svg" xmlns:xlink="http://www.w3.org/1999/xlink"><g id="Lines"><g><g><g><g><g><path d="M128,147.7c-15.991,0-29-13.01-29-29s13.009-29,29-29s29,13.01,29,29S143.991,147.7,128,147.7z         M128,99.7c-10.477,0-19,8.523-19,19s8.523,19,19,19s19-8.523,19-19S138.477,99.7,128,99.7z" fill="#384169"/></g></g></g></g><g><g><g><g><path d="M491.998,374.396c-12.683,0-23-10.317-23-23s10.317-23,23-23s23,10.317,23,23        S504.681,374.396,491.998,374.396z M491.998,338.396c-7.168,0-13,5.832-13,13s5.832,13,13,13s13-5.832,13-13        S499.166,338.396,491.998,338.396z" fill="#384169"/></g></g></g></g><g><g><g><g><path d="M418.805,102.408c-12.683,0-23-10.317-23-23s10.317-23,23-23s23,10.317,23,23        S431.487,102.408,418.805,102.408z M418.805,66.408c-7.168,0-13,5.832-13,13s5.832,13,13,13s13-5.832,13-13        S425.973,66.408,418.805,66.408z" fill="#384169"/></g></g></g></g><g><g><g><g><path d="M41.424,57.636c-12.682,0-23-10.317-23-23s10.318-23,23-23s23,10.317,23,23        S54.106,57.636,41.424,57.636z M41.424,21.636c-7.168,0-13,5.832-13,13s5.832,13,13,13s13-5.832,13-13        S48.593,21.636,41.424,21.636z" fill="#384169"/></g></g></g></g><g><g><g><g><path d="M32.5,367.976c-12.682,0-23-10.317-23-23s10.318-23,23-23s23,10.317,23,23        S45.182,367.976,32.5,367.976z M32.5,331.976c-7.168,0-13,5.832-13,13s5.832,13,13,13s13-5.832,13-13        S39.668,331.976,32.5,331.976z" fill="#384169"/></g></g></g></g><g><g><g><g><path d="M468.587,465.999c-12.683,0-23-10.317-23-23s10.317-23,23-23s23,10.317,23,23        S481.27,465.999,468.587,465.999z M468.587,429.999c-7.168,0-13,5.832-13,13s5.832,13,13,13s13-5.832,13-13        S475.755,429.999,468.587,429.999z" fill="#384169"/></g></g></g></g><g><g><g><path d="M72.99,251.396c-0.021,0-0.042,0-0.064,0c-2.761-0.035-4.972-2.302-4.937-5.062       c0.162-12.954,4.236-22.785,12.11-29.222c9.159-7.488,21.056-8.222,27.923-7.887c1.624-15.182,7.525-27.404,17.582-36.386       c15.187-13.562,35.65-15.9,45.51-16.181c-0.726-19.704,6.882-31.882,13.732-38.786c2.608-2.629,5.288-4.689,7.741-6.28       c-12.158-8.688-16.206-22.865-16.407-23.595c-0.102-0.348-2.888-10.142-1.256-21.677c1.558-11.011,7.472-25.673,26.805-32.996       c15.575-5.899,30.987-4.65,43.397,3.518c12.153,7.998,20.126,21.837,20.856,36.169c0.395,2.753,2.704,21.805-6.459,35.556       c7.505,1.49,15.25,5.509,18.524,14.301c5.896-0.421,15.993-0.156,22.784,5.363c4.163,3.383,6.452,8.277,6.62,14.154       c0.079,2.761-2.095,5.062-4.855,5.141c-2.737,0.071-5.062-2.094-5.141-4.855c-0.085-2.996-1.013-5.115-2.919-6.67       c-5.081-4.144-15.676-3.385-19.33-2.744c-1.314,0.232-2.675-0.072-3.764-0.847c-1.09-0.773-1.829-1.95-2.045-3.269       c-0.892-5.448-4.268-8.849-10.323-10.396c-5.234-1.337-10.384-0.709-10.435-0.704c-2.321,0.289-4.537-1.059-5.333-3.255       c-0.797-2.195,0.025-4.649,1.991-5.912c14.506-9.312,10.801-34.346,10.762-34.598c-0.028-0.18-0.048-0.37-0.056-0.553       c-0.496-11.109-6.924-22.307-16.376-28.527c-6.835-4.498-18.344-8.587-34.358-2.52c-28.356,10.741-19.845,41.302-19.469,42.597       c0.062,0.218,4.93,16.905,19.418,21.643c2.083,0.681,3.48,2.64,3.446,4.831s-1.493,4.105-3.597,4.72       c-1.104,0.336-27.562,8.784-23.6,44.698c0.163,1.475-0.338,2.946-1.368,4.016s-2.484,1.625-3.961,1.52       c-0.26-0.022-26.84-1.662-43.922,13.641c-9.076,8.13-13.986,19.768-14.593,34.589c-0.059,1.453-0.748,2.808-1.886,3.712       c-1.139,0.903-2.614,1.266-4.042,0.996c-0.143-0.027-15.563-2.76-25.31,5.249c-5.451,4.479-8.277,11.737-8.4,21.572       C77.954,249.198,75.722,251.396,72.99,251.396z" fill="#384169"/></g></g></g><g><g><g><path d="M88.496,340.916c-0.798,0-1.607-0.191-2.359-0.595c-18.414-9.88-18.689-27.773-18.692-28.531       c-0.01-2.761,2.221-5.008,4.982-5.018c0.006,0,0.012,0,0.019,0c2.742,0,4.972,2.21,5,4.95       c0.012,0.594,0.433,12.818,13.42,19.786c2.434,1.306,3.348,4.337,2.042,6.771C92.004,339.96,90.278,340.916,88.496,340.916z" fill="#384169"/></g></g></g><g><g><g><path d="M311.477,227.889c-25.022,0.003-45.478-20.249-45.682-45.315c-0.1-12.203,4.56-23.716,13.118-32.415       s19.993-13.545,32.196-13.645c0.128-0.001,0.257-0.001,0.384-0.001c12.062,0,23.422,4.649,32.031,13.119       c8.699,8.559,13.545,19.993,13.645,32.196l0.331,40.687c0.022,2.762-2.198,5.019-4.959,5.041l-40.687,0.332l0,0       C311.729,227.889,311.602,227.889,311.477,227.889z M311.813,222.888h0.01H311.813z M311.491,146.513c-0.101,0-0.2,0-0.3,0.001       c-9.532,0.077-18.464,3.862-25.149,10.658c-6.687,6.795-10.325,15.787-10.247,25.319c0.159,19.579,16.139,35.397,35.684,35.397       c0.098,0,0.196,0,0.294-0.001l35.688-0.291l-0.291-35.687c-0.078-9.532-3.863-18.464-10.658-25.15       C329.787,150.145,320.912,146.513,311.491,146.513z" fill="#3F456B"/></g></g></g><g><g><g><path d="M313.388,207.444c-2.222,0-7.184-0.441-11.099-3.996c-2.177-1.977-4.782-5.662-4.834-12       c-0.051-6.265,2.434-10.083,4.526-12.184c4.657-4.673,11.018-4.836,11.873-4.836c0.011,0,0.021,0,0.03,0l38.123-0.312       c0.014,0,0.028,0,0.042,0c2.742,0,4.977,2.212,4.999,4.959c0.022,2.762-2.198,5.019-4.959,5.041l-38.188,0.312       c-2.435,0.046-6.495,1.008-6.446,6.938c0.018,2.161,0.53,3.726,1.523,4.648c1.425,1.324,3.863,1.478,4.683,1.422       c0.133-0.012,0.212-0.014,0.346-0.015l38.188-0.312c0.014,0,0.028,0,0.042,0c2.742,0,4.977,2.212,4.999,4.959       c0.022,2.762-2.198,5.019-4.959,5.041l-38.038,0.311C314.039,207.433,313.749,207.444,313.388,207.444z" fill="#3F456B"/></g></g></g><g><g><g><g><path d="M480.5,276.752c-2.762,0-5-2.238-5-5v-79.75c0-2.762,2.238-5,5-5s5,2.238,5,5v79.75        C485.5,274.514,483.262,276.752,480.5,276.752z" fill="#384169"/></g></g></g><g><g><g><path d="M480.497,245.003c-0.666,0-1.344-0.134-1.993-0.417l-54.816-23.875        c-1.824-0.794-3.004-2.595-3.004-4.584s1.18-3.79,3.004-4.584l54.816-23.875c2.53-1.104,5.478,0.057,6.58,2.588        s-0.056,5.478-2.588,6.58l-44.291,19.291l44.291,19.291c2.532,1.103,3.69,4.049,2.588,6.58        C484.265,243.88,482.427,245.003,480.497,245.003z" fill="#384169"/></g></g></g></g><g><g><g><path d="M424.566,441.3c3.575,0,6.473,2.896,6.473,6.473c0,3.574-2.898,6.473-6.473,6.473       s-6.474-2.898-6.474-6.473C418.092,444.197,420.991,441.3,424.566,441.3z" fill="#3F456B"/></g></g></g><g><g><g><path d="M92.908,441.3c3.575,0,6.473,2.896,6.473,6.473c0,3.574-2.898,6.473-6.473,6.473       s-6.474-2.898-6.474-6.473C86.435,444.197,89.334,441.3,92.908,441.3z" fill="#3F456B"/></g></g></g><g><g><g><g><g><g><path d="M110.754,397.992c-3.434,0-10.787-0.414-19.082-3.404c-10.432-3.76-24.433-12.432-31.899-32.389          c-0.967-2.587,0.345-5.468,2.931-6.435c2.586-0.973,5.468,0.345,6.435,2.931c11.628,31.085,41.642,29.35,42.908,29.266          c2.757-0.19,5.143,1.873,5.344,4.622c0.202,2.747-1.849,5.14-4.596,5.35C112.691,397.94,111.967,397.992,110.754,397.992z" fill="#3F456B"/></g></g></g><g><g><g><path d="M18.159,397.992c-1.213,0-1.937-0.052-2.041-0.06c-2.753-0.211-4.814-2.614-4.604-5.367          c0.21-2.754,2.622-4.808,5.367-4.604c1.256,0.084,31.263,1.818,42.892-29.267c0.968-2.587,3.852-3.901,6.435-2.931          c2.586,0.967,3.898,3.848,2.931,6.435c-7.466,19.957-21.467,28.629-31.899,32.389          C28.946,397.578,21.594,397.992,18.159,397.992z" fill="#3F456B"/></g></g></g></g><g><g><g><g><path d="M206.667,397.992c-3.434,0-10.787-0.414-19.082-3.404c-10.432-3.76-24.434-12.432-31.899-32.389          c-0.967-2.587,0.345-5.468,2.931-6.435c2.585-0.973,5.467,0.345,6.435,2.931c11.628,31.085,41.639,29.35,42.908,29.266          c2.744-0.204,5.142,1.874,5.344,4.622c0.201,2.747-1.85,5.14-4.597,5.35C208.604,397.94,207.88,397.992,206.667,397.992z" fill="#3F456B"/></g></g></g><g><g><g><path d="M114.072,397.992c-1.213,0-1.937-0.052-2.041-0.06c-2.753-0.211-4.814-2.614-4.604-5.367          c0.21-2.748,2.604-4.806,5.353-4.604c1.304,0.094,31.284,1.802,42.906-29.266c0.968-2.587,3.852-3.901,6.435-2.931          c2.586,0.967,3.898,3.848,2.931,6.435c-7.466,19.957-21.467,28.629-31.899,32.389          C124.859,397.578,117.507,397.992,114.072,397.992z" fill="#3F456B"/></g></g></g></g></g><g><g><g><g><g><path d="M303.015,397.992c-3.435,0-10.787-0.414-19.082-3.404c-10.431-3.76-24.433-12.432-31.897-32.389          c-0.968-2.587,0.345-5.468,2.931-6.435c2.586-0.973,5.468,0.345,6.435,2.931c11.629,31.087,41.636,29.348,42.908,29.266          c2.738-0.204,5.142,1.874,5.344,4.622c0.201,2.747-1.85,5.14-4.597,5.35C304.951,397.94,304.228,397.992,303.015,397.992z" fill="#3F456B"/></g></g></g><g><g><g><path d="M210.42,397.992c-1.213,0-1.937-0.052-2.041-0.06c-2.753-0.211-4.814-2.614-4.604-5.367          c0.211-2.754,2.62-4.808,5.367-4.604c1.26,0.084,31.264,1.819,42.893-29.267c0.967-2.586,3.848-3.903,6.435-2.931          c2.586,0.967,3.898,3.848,2.931,6.435c-7.465,19.957-21.467,28.629-31.898,32.389          C221.207,397.578,213.854,397.992,210.42,397.992z" fill="#3F456B"/></g></g></g></g><g><g><g><g><path d="M398.928,397.992c-3.435,0-10.787-0.414-19.082-3.404c-10.431-3.76-24.433-12.432-31.897-32.389          c-0.968-2.587,0.345-5.468,2.931-6.435c2.586-0.973,5.468,0.345,6.435,2.931c11.63,31.087,41.638,29.348,42.908,29.266          c2.738-0.204,5.142,1.874,5.344,4.622c0.201,2.747-1.85,5.14-4.597,5.35C400.864,397.94,400.141,397.992,398.928,397.992z" fill="#3F456B"/></g></g></g><g><g><g><path d="M306.333,397.992c-1.213,0-1.937-0.052-2.041-0.06c-2.754-0.211-4.814-2.614-4.604-5.367          c0.211-2.749,2.601-4.823,5.354-4.604c1.298,0.092,31.283,1.805,42.906-29.266c0.966-2.586,3.848-3.903,6.435-2.931          c2.586,0.967,3.898,3.848,2.931,6.435c-7.465,19.957-21.467,28.629-31.898,32.389          C317.12,397.578,309.768,397.992,306.333,397.992z" fill="#3F456B"/></g></g></g></g></g><g><g><g><g><g><path d="M494.841,397.992c-3.435,0-10.787-0.414-19.082-3.404c-10.431-3.76-24.433-12.432-31.897-32.389          c-0.968-2.587,0.345-5.468,2.931-6.435c2.584-0.973,5.468,0.345,6.435,2.931c11.629,31.087,41.636,29.348,42.908,29.266          c2.738-0.204,5.142,1.874,5.344,4.622c0.201,2.747-1.85,5.14-4.597,5.35C496.777,397.94,496.054,397.992,494.841,397.992z" fill="#3F456B"/></g></g></g><g><g><g><path d="M402.246,397.992c-1.213,0-1.937-0.052-2.041-0.06c-2.754-0.211-4.814-2.614-4.604-5.367          c0.211-2.754,2.628-4.818,5.367-4.604c1.263,0.084,31.264,1.819,42.893-29.267c0.967-2.586,3.849-3.903,6.435-2.931          c2.586,0.967,3.898,3.848,2.931,6.435c-7.465,19.957-21.467,28.629-31.898,32.389          C413.033,397.578,405.681,397.992,402.246,397.992z" fill="#3F456B"/></g></g></g></g></g></g><g><g><g><g><g><g><path d="M206.883,452.771c-3.435,0-10.786-0.414-19.081-3.403c-10.431-3.761-24.433-12.433-31.899-32.39          c-0.967-2.587,0.345-5.468,2.931-6.435c2.585-0.973,5.467,0.345,6.435,2.931c11.703,31.285,42.579,29.291,42.892,29.267          c2.758-0.204,5.157,1.85,5.368,4.604c0.211,2.753-1.851,5.156-4.604,5.367C208.821,452.72,208.097,452.771,206.883,452.771z          " fill="#3F456B"/></g></g></g><g><g><g><path d="M114.291,452.771c-1.214,0-1.938-0.052-2.042-0.06c-2.753-0.211-4.814-2.614-4.604-5.367          c0.211-2.754,2.616-4.806,5.367-4.604c1.262,0.086,31.265,1.818,42.892-29.267c0.968-2.587,3.851-3.899,6.435-2.931          c2.586,0.967,3.898,3.848,2.931,6.435c-7.465,19.957-21.467,28.629-31.899,32.39          C125.078,452.357,117.726,452.771,114.291,452.771z" fill="#3F456B"/></g></g></g></g><g><g><g><g><path d="M302.796,452.771c-3.435,0-10.786-0.414-19.08-3.403c-10.432-3.761-24.434-12.433-31.898-32.39          c-0.968-2.587,0.345-5.468,2.931-6.435c2.585-0.974,5.468,0.345,6.435,2.931c11.704,31.286,42.575,29.292,42.892,29.267          c2.765-0.199,5.156,1.85,5.367,4.604c0.211,2.753-1.85,5.156-4.604,5.367C304.734,452.72,304.009,452.771,302.796,452.771z" fill="#3F456B"/></g></g></g><g><g><g><path d="M210.204,452.771c-1.214,0-1.938-0.052-2.042-0.06c-2.753-0.211-4.814-2.614-4.604-5.367          c0.211-2.748,2.617-4.821,5.353-4.604c1.297,0.092,31.283,1.806,42.906-29.266c0.967-2.586,3.847-3.903,6.435-2.931          c2.586,0.967,3.898,3.848,2.931,6.435c-7.465,19.957-21.467,28.629-31.898,32.39          C220.99,452.357,213.639,452.771,210.204,452.771z" fill="#3F456B"/></g></g></g></g></g><g><g><g><g><g><path d="M399.145,452.771c-3.435,0-10.786-0.414-19.081-3.403c-10.432-3.761-24.434-12.433-31.898-32.39          c-0.968-2.587,0.345-5.468,2.931-6.435c2.586-0.974,5.468,0.345,6.435,2.931c11.631,31.088,41.637,29.352,42.909,29.266          c2.735-0.212,5.142,1.873,5.344,4.621c0.201,2.748-1.85,5.14-4.597,5.351C401.083,452.72,400.357,452.771,399.145,452.771z" fill="#3F456B"/></g></g></g><g><g><g><path d="M306.552,452.771c-1.214,0-1.938-0.052-2.042-0.06c-2.754-0.211-4.814-2.614-4.604-5.367          c0.212-2.753,2.617-4.806,5.367-4.604c1.258,0.083,31.262,1.82,42.892-29.267c0.966-2.586,3.848-3.903,6.435-2.931          c2.586,0.967,3.898,3.848,2.931,6.435c-7.465,19.957-21.467,28.629-31.898,32.39          C317.339,452.357,309.986,452.771,306.552,452.771z" fill="#3F456B"/></g></g></g></g></g></g><g><g><g><path d="M264.784,379.999c-2.396,0-4.511-1.727-4.924-4.166c-0.461-2.723,1.372-5.304,4.095-5.765       l92.992-15.741c57.982-11.395,92.515-30.565,111.276-44.644c13.918-10.444,21.43-19.692,24.784-24.488       c-2.393-1.181-5.689-2.518-7.252-3.151c-1.46-0.591-2.612-1.059-3.375-1.43c-5.774-2.811-11.792-5.5-17.887-7.996       c-11.194-4.583-23.08-8.672-35.326-12.151c-26.946-7.657-53.764-11.092-74.115-13.228       c-63.757-6.692-126.726-5.237-190.938-2.87c-2.903,8.975-11.046,37.569-14.629,85.338c-0.206,2.754-2.598,4.811-5.36,4.612       c-2.753-0.207-4.818-2.606-4.612-5.36c4.503-60.046,15.84-90.011,16.32-91.258c0.719-1.865,2.481-3.123,4.479-3.197       c65.776-2.455,130.243-4.087,195.782,2.79c20.753,2.178,48.123,5.687,75.806,13.554c12.604,3.581,24.844,7.792,36.382,12.517       c6.292,2.576,12.508,5.354,18.473,8.258c0.458,0.223,1.627,0.696,2.757,1.155c9.488,3.847,13.652,6.029,14.881,9.594       c0.44,1.279,0.344,2.682-0.268,3.889c-1.134,2.238-29.105,55.073-145.315,77.893c-0.043,0.009-0.086,0.017-0.129,0.023       l-93.058,15.752C265.342,379.976,265.062,379.999,264.784,379.999z M495.564,286.722L495.564,286.722L495.564,286.722z" fill="#3F456B"/></g></g></g><g><g><g><path d="M88.494,392.831c-2.476,0-4.626-1.838-4.952-4.359c-3.104-23.989-7.26-50.802-7.301-51.07       c-0.209-1.346,0.141-2.72,0.968-3.803c0.827-1.082,2.061-1.78,3.415-1.933c185.612-20.845,416.061-52.305,418.366-52.62       c2.744-0.371,5.258,1.541,5.632,4.276c0.374,2.736-1.541,5.258-4.276,5.632c-2.286,0.312-228.627,31.211-413.435,52.067       c1.365,9.009,4.245,28.358,6.549,46.167c0.354,2.738-1.578,5.246-4.317,5.601C88.924,392.816,88.708,392.831,88.494,392.831z" fill="#3F456B"/></g></g></g><g><g><g><path d="M61.004,317.446c-7.567,0-14.089-5.729-14.906-13.418l-4.694-44.226       c-0.422-3.973,0.736-7.88,3.259-11.003c2.523-3.122,6.102-5.074,10.075-5.495l59.665-6.333       c8.222-0.885,15.626,5.108,16.5,13.332l4.694,44.227c0.873,8.224-5.108,15.626-13.333,16.499c0,0,0,0,0,0l-59.665,6.332       C62.062,317.419,61.531,317.446,61.004,317.446z M115.989,246.888c-0.176,0-0.353,0.009-0.531,0.027l-59.665,6.333       c-1.317,0.14-2.508,0.792-3.352,1.837s-1.232,2.346-1.092,3.663l4.694,44.226c0.291,2.741,2.752,4.726,5.5,4.444l59.665-6.332       c2.742-0.292,4.735-2.759,4.444-5.501l-4.694-44.226C120.686,248.797,118.511,246.888,115.989,246.888z M121.735,306.058h0.01       H121.735z" fill="#3F456B"/></g></g></g><g><g><g><path d="M104.102,338.247c-2.491,0-4.646-1.859-4.957-4.395l-2.944-24.079c-0.335-2.74,1.615-5.234,4.356-5.569       c2.739-0.337,5.234,1.615,5.57,4.356l2.944,24.079c0.335,2.74-1.615,5.234-4.356,5.569       C104.509,338.234,104.304,338.247,104.102,338.247z" fill="#3F456B"/></g></g></g><g><g><g><path d="M210.588,242.891c-0.024,0-0.048,0-0.073-0.001c-2.761-0.039-4.967-2.31-4.927-5.071       c0.262-18.254,10.546-31.629,11.934-33.352c7.68-10.737,19.734-17.221,34.875-18.754c11.17-1.134,20.117,0.823,20.492,0.907       c2.695,0.601,4.394,3.272,3.792,5.968c-0.6,2.692-3.267,4.396-5.959,3.794l0,0c-0.307-0.066-30.639-6.441-45.144,14.011       c-0.075,0.106-0.155,0.21-0.238,0.31c-0.086,0.105-9.53,11.739-9.754,27.261C215.547,240.699,213.316,242.891,210.588,242.891z       " fill="#3F456B"/></g></g></g><g><g><g><path d="M335.5,245.422c-2.473,0-4.622-1.834-4.952-4.352c-0.962-7.343-2.771-16.69-2.789-16.784       c-0.526-2.711,1.244-5.335,3.955-5.861c2.714-0.524,5.335,1.244,5.861,3.955c0.077,0.395,1.887,9.747,2.889,17.392       c0.358,2.738-1.57,5.248-4.309,5.607C335.935,245.407,335.716,245.422,335.5,245.422z" fill="#3F456B"/></g></g></g><g><g><g><path d="M186.841,311.211c-4.786,0-8.529-0.591-9.391-0.739c-2.721-0.468-4.548-3.054-4.081-5.774       c0.467-2.722,3.05-4.548,5.771-4.082c4.276,0.724,16.548,1.595,21.972-2.979c1.785-1.505,2.62-3.505,2.626-6.294       c0.006-2.804-0.828-4.829-2.625-6.374c-5.422-4.658-17.706-3.965-21.981-3.305c-1.444,0.224-2.917-0.196-4.026-1.148       c-1.108-0.953-1.748-2.342-1.745-3.803l0.043-19.416c0.003-1.326,0.533-2.597,1.472-3.532c0.938-0.934,2.206-1.457,3.528-1.457       c0.004,0,0.007,0,0.011,0l30.41,0.068c2.762,0.006,4.995,2.25,4.988,5.012c-0.006,2.757-2.243,4.988-5,4.988       c-0.003,0-0.007,0-0.011,0l-25.41-0.058l-0.02,8.918c6.669-0.298,17.417,0.287,24.238,6.132       c4.021,3.446,6.14,8.286,6.127,13.997c-0.013,5.716-2.156,10.533-6.199,13.933       C201.814,310.112,193.361,311.211,186.841,311.211z" fill="#3F456B"/></g></g></g><g><g><g><path d="M368.919,306.361c-0.039,0-0.078,0-0.117-0.001c-2.761-0.063-4.947-2.354-4.884-5.114       c0.589-25.532,7.736-56.281,8.04-57.578c0.63-2.688,3.323-4.354,6.009-3.727c2.688,0.631,4.357,3.32,3.728,6.009       c-0.072,0.308-7.215,31.05-7.778,55.526C373.853,304.198,371.627,306.361,368.919,306.361z" fill="#3F456B"/></g></g></g><g><g><g><path d="M333.013,309.667c-0.038,0-0.076,0-0.115-0.001c-2.761-0.062-4.948-2.352-4.886-5.112       c0.642-28.259,8.437-62.307,8.768-63.742c0.622-2.691,3.309-4.364,5.997-3.747c2.69,0.621,4.368,3.307,3.747,5.997       c-0.079,0.342-7.896,34.501-8.514,61.719C337.947,307.502,335.722,309.667,333.013,309.667z" fill="#3F456B"/></g></g></g><g><g><g><path d="M299.279,315.443c-0.038,0-0.077,0-0.115-0.001c-2.761-0.063-4.948-2.352-4.886-5.112       c0.731-32.165,9.607-70.938,9.984-72.573c0.622-2.69,3.31-4.364,5.997-3.747c2.69,0.621,4.368,3.306,3.747,5.997       c-0.091,0.391-9.023,39.426-9.73,70.55C304.214,313.279,301.988,315.443,299.279,315.443z" fill="#3F456B"/></g></g></g></g></g><g id="Outline"><g><g><g><g><g><g><path d="M481.969,139.479c-1.279,0-2.559-0.488-3.535-1.464c-1.953-1.953-1.953-5.119-0.001-7.071         l8.017-8.018c1.953-1.953,5.118-1.952,7.071-0.001c1.953,1.953,1.953,5.119,0.001,7.071l-8.017,8.018         C484.528,138.99,483.248,139.479,481.969,139.479z" fill="#3F456B"/></g></g></g><g><g><g><path d="M454.605,166.821c-1.279,0-2.56-0.488-3.535-1.465c-1.953-1.952-1.953-5.118,0-7.07l8.018-8.018         c1.951-1.953,5.119-1.953,7.07,0c1.953,1.952,1.953,5.118,0,7.07l-8.018,8.018         C457.165,166.333,455.885,166.821,454.605,166.821z" fill="#3F456B"/></g></g></g></g><g><g><g><g><path d="M489.976,166.831c-1.279,0-2.559-0.488-3.535-1.464l-8.018-8.017         c-1.953-1.953-1.953-5.119-0.001-7.071c1.953-1.953,5.118-1.952,7.071-0.001l8.018,8.017         c1.953,1.953,1.953,5.119,0.001,7.071C492.535,166.343,491.255,166.831,489.976,166.831z" fill="#3F456B"/></g></g></g><g><g><g><path d="M462.633,139.469c-1.279,0-2.56-0.488-3.536-1.465l-8.017-8.018         c-1.952-1.952-1.952-5.118,0.001-7.071c1.953-1.951,5.118-1.952,7.071,0.001l8.017,8.018         c1.952,1.952,1.952,5.118-0.001,7.071C465.191,138.98,463.912,139.469,462.633,139.469z" fill="#3F456B"/></g></g></g></g></g><g><g><g><g><g><path d="M314.67,30.093c-1.279,0-2.56-0.488-3.536-1.465c-1.952-1.952-1.952-5.118,0.001-7.071l8.018-8.017         c1.953-1.951,5.118-1.952,7.071,0.001c1.952,1.952,1.952,5.118-0.001,7.071l-8.018,8.017         C317.229,29.604,315.949,30.093,314.67,30.093z" fill="#3F456B"/></g></g></g><g><g><g><path d="M287.307,57.436c-1.279,0-2.56-0.488-3.536-1.465c-1.952-1.952-1.952-5.118,0.001-7.071l8.018-8.017         c1.953-1.951,5.118-1.952,7.071,0.001c1.952,1.952,1.952,5.118-0.001,7.071l-8.018,8.017         C289.865,56.947,288.586,57.436,287.307,57.436z" fill="#3F456B"/></g></g></g></g><g><g><g><g><path d="M322.677,57.446c-1.279,0-2.56-0.488-3.536-1.465l-8.017-8.018c-1.952-1.952-1.952-5.118,0.001-7.071         c1.953-1.951,5.118-1.952,7.071,0.001l8.017,8.018c1.952,1.952,1.952,5.118-0.001,7.071         C325.235,56.958,323.956,57.446,322.677,57.446z" fill="#3F456B"/></g></g></g><g><g><g><path d="M295.334,30.083c-1.279,0-2.56-0.488-3.536-1.465l-8.017-8.018c-1.952-1.952-1.952-5.118,0.001-7.071         c1.953-1.951,5.118-1.952,7.071,0.001l8.017,8.018c1.952,1.952,1.952,5.118-0.001,7.071         C297.893,29.595,296.613,30.083,295.334,30.083z" fill="#3F456B"/></g></g></g></g></g><g><g><g><g><path d="M114.045,309.991c-2.512,0-4.676-1.888-4.962-4.442l-3.667-32.701        c-0.308-2.745,1.667-5.219,4.412-5.526c2.75-0.309,5.218,1.668,5.526,4.411l3.667,32.701c0.308,2.745-1.667,5.219-4.412,5.526        C114.419,309.981,114.231,309.991,114.045,309.991z" fill="#3F456B"/></g></g></g><g><g><g><path d="M72.351,314.667c-2.512,0-4.676-1.888-4.962-4.442l-3.667-32.702        c-0.308-2.745,1.667-5.219,4.412-5.526c2.752-0.31,5.218,1.667,5.526,4.411l3.667,32.702c0.308,2.745-1.667,5.219-4.412,5.526        C72.725,314.657,72.537,314.667,72.351,314.667z" fill="#3F456B"/></g></g></g><g><g><g><path d="M92.77,312.377c-2.512,0-4.676-1.888-4.962-4.442l-3.667-32.701c-0.308-2.745,1.667-5.219,4.412-5.526        c2.747-0.308,5.218,1.667,5.526,4.411l3.667,32.701c0.308,2.745-1.667,5.219-4.412,5.526        C93.144,312.367,92.956,312.377,92.77,312.377z" fill="#3F456B"/></g></g></g></g><g><g><g><g><g><g><path d="M381.852,135.655c-1.47,0-2.925-0.645-3.913-1.883c-1.721-2.16-1.366-5.306,0.793-7.027l10.588-8.44          c2.16-1.72,5.305-1.366,7.027,0.793c1.721,2.16,1.366,5.306-0.793,7.027l-10.588,8.44          C384.045,135.299,382.944,135.655,381.852,135.655z" fill="#3F456B"/></g></g></g></g><g><g><g><g><path d="M383.834,203.453c-1.467,0-2.921-0.643-3.908-1.878l-8.117-10.154          c-1.725-2.157-1.374-5.304,0.783-7.027c2.156-1.726,5.304-1.374,7.027,0.783l8.117,10.154          c1.725,2.157,1.374,5.304-0.783,7.027C386.031,203.096,384.929,203.453,383.834,203.453z" fill="#3F456B"/></g></g></g></g><g><g><g><g><path d="M400.658,181.007c-0.608,0-1.227-0.111-1.827-0.347l-12.441-4.887          c-2.57-1.01-3.835-3.912-2.826-6.482c1.011-2.57,3.913-3.832,6.482-2.826l12.441,4.887c2.57,1.01,3.835,3.912,2.826,6.482          C404.539,179.804,402.653,181.007,400.658,181.007z" fill="#3F456B"/></g></g></g></g><g><g><g><g><path d="M390.472,155.218c-2.433,0-4.565-1.778-4.938-4.257c-0.411-2.73,1.47-5.277,4.2-5.688l13.32-2.005          c2.734-0.411,5.277,1.47,5.688,4.2s-1.47,5.277-4.2,5.688l-13.32,2.005C390.97,155.199,390.719,155.218,390.472,155.218z" fill="#3F456B"/></g></g></g></g></g><g><g><g><g><g><path d="M365.483,121.705c-0.608,0-1.227-0.111-1.827-0.347c-2.57-1.01-3.835-3.912-2.826-6.482l4.556-11.6          c1.011-2.57,3.912-3.833,6.482-2.826c2.57,1.01,3.835,3.912,2.826,6.482l-4.556,11.6          C369.364,120.502,367.479,121.705,365.483,121.705z" fill="#3F456B"/></g></g></g></g><g><g><g><g><path d="M344.168,119.766c-2.434,0-4.565-1.778-4.938-4.257l-1.926-12.798c-0.411-2.73,1.47-5.277,4.2-5.688          c2.729-0.414,5.277,1.47,5.688,4.2l1.926,12.798c0.411,2.73-1.47,5.277-4.2,5.688          C344.666,119.747,344.415,119.766,344.168,119.766z" fill="#3F456B"/></g></g></g></g><g><g><g><g><path d="M324.944,128.354c-1.467,0-2.921-0.643-3.908-1.878l-8.118-10.154          c-1.725-2.156-1.374-5.303,0.783-7.027s5.304-1.374,7.027,0.783l8.118,10.154c1.725,2.156,1.374,5.303-0.783,7.027          C327.142,127.997,326.039,128.354,324.944,128.354z" fill="#3F456B"/></g></g></g></g></g></g><g><g><g><path d="M413.334,363.101c3.575,0,6.473,2.897,6.473,6.473c0,3.574-2.898,6.473-6.473,6.473       c-3.575,0-6.474-2.898-6.474-6.473C406.86,365.997,409.759,363.101,413.334,363.101z" fill="#3F456B"/></g></g></g><g><g><g><path d="M143.188,219.686c3.575,0,6.473,2.896,6.473,6.473c0,3.574-2.898,6.473-6.473,6.473       c-3.575,0-6.474-2.898-6.474-6.473C136.714,222.583,139.613,219.686,143.188,219.686z" fill="#3F456B"/></g></g></g><g><g><g><path d="M48.606,202.563c3.575,0,6.473,2.896,6.473,6.473c0,3.574-2.898,6.473-6.473,6.473       s-6.474-2.898-6.474-6.473C42.133,205.459,45.031,202.563,48.606,202.563z" fill="#3F456B"/></g></g></g><g><g><g><g><path d="M200.136,338.623c3.575,0,6.473,2.896,6.473,6.473c0,3.574-2.898,6.473-6.473,6.473        c-3.575,0-6.474-2.898-6.474-6.473C193.662,341.519,196.561,338.623,200.136,338.623z" fill="#3F456B"/></g></g></g><g><g><g><path d="M232.628,334.736c3.575,0,6.473,2.896,6.473,6.473c0,3.574-2.898,6.473-6.473,6.473        c-3.575,0-6.474-2.898-6.474-6.473C226.154,337.633,229.053,334.736,232.628,334.736z" fill="#3F456B"/></g></g></g><g><g><g><path d="M263.579,330.562c3.575,0,6.473,2.897,6.473,6.473c0,3.574-2.898,6.473-6.473,6.473        s-6.474-2.898-6.474-6.473C257.106,333.459,260.005,330.562,263.579,330.562z" fill="#3F456B"/></g></g></g></g><g><g><g><g><path d="M236.544,299.394c-1.279,0-2.56-0.488-3.535-1.465c-1.953-1.952-1.953-5.118,0-7.07l35.216-35.216        c1.951-1.953,5.119-1.953,7.07,0c1.953,1.952,1.953,5.118,0,7.07l-35.216,35.216        C239.104,298.905,237.823,299.394,236.544,299.394z" fill="#3F456B"/></g></g></g><g><g><g><path d="M271.76,299.394c-1.279,0-2.56-0.488-3.535-1.465l-35.216-35.216c-1.953-1.952-1.953-5.118,0-7.07        c1.951-1.953,5.119-1.953,7.07,0l35.216,35.216c1.953,1.952,1.953,5.118,0,7.07        C274.319,298.905,273.039,299.394,271.76,299.394z" fill="#3F456B"/></g></g></g></g></g></g></svg>