<?xml version="1.0" ?><svg viewBox="0 0 512 512" xmlns="http://www.w3.org/2000/svg"><defs><style>.cls-1{fill:#3f456b;}</style></defs><title/><g id="Lines"><path class="cls-1" d="M400.51,500.8a20,20,0,0,1-20-20c0-13.87-4-24.89-12.48-34.67-15.19-17.44-43.4-30.9-81.1-45.73-12.51-4.92-26.18-9.85-38.25-14.2-21.05-7.59-42.82-15.44-62.68-24.39-43.79-19.75-95.45-54-93.24-104.89,0-.48-.06-1-.06-1.52,0-23.75,7.3-43.68,22.31-60.93,22.8-26.19,61.83-43,96.62-56.68a5,5,0,0,1,3.66,9.3c-33.69,13.26-71.42,29.46-92.74,53.94-13.36,15.36-19.85,33.14-19.85,54.37a7.42,7.42,0,0,0,0,.86,4.07,4.07,0,0,1,0,.78c-2.19,45.51,46.29,77.14,87.35,95.65,19.51,8.79,41.09,16.58,62,24.11,12.12,4.37,25.87,9.32,38.51,14.3,39.06,15.37,68.46,29.49,85,48.47,10.19,11.7,14.94,24.81,14.94,41.23a10,10,0,0,0,20,0c0-21.23-6.5-39-19.86-54.37C381.17,415.54,368,405.59,350.39,396c-16.91-9.19-36-17.05-52.48-23.53-12.5-4.91-25.61-9.64-38.28-14.22l-.77-.28c-20.49-7.38-41.69-15-60.54-23.52-29.82-13.45-51.17-28.18-63.45-43.79-11.2-14.25-12.72-26.55-12-34.37a9.86,9.86,0,0,0-.07-2.37,4.74,4.74,0,0,1-.06-.92c.46-15.33,5.19-27.67,14.91-38.84,16.52-19,45.92-33.1,85-48.47,9.87-3.89,20.24-7.69,29.07-10.89a5,5,0,1,1,3.41,9.4c-8.77,3.18-19.06,6.95-28.82,10.79-37.7,14.83-65.91,28.29-81.1,45.73-8,9.23-12,19.46-12.44,32.16a20,20,0,0,1,.08,4.31c-1.19,13.19,6.27,39.58,69.62,68.14,18.49,8.34,39.5,15.91,59.82,23.24l.77.28c12.74,4.59,25.91,9.35,38.54,14.32,16.75,6.59,36.21,14.6,53.6,24.05,18.67,10.15,32.74,20.83,43,32.64,15,17.25,22.32,37.18,22.32,60.93A20,20,0,0,1,400.51,500.8Z"/><path class="cls-1" d="M301.13,146.9a5,5,0,0,1-1.83-9.66c8.91-3.49,16.7-6.75,23.79-10C399.38,92.9,412.6,54.91,410.26,29.1A10,10,0,0,0,399.4,20a10,10,0,0,0-9.06,10.86c.71,7.81-.8,20.12-12,34.37-12.28,15.61-33.63,30.34-63.45,43.79-17.09,7.7-36.44,14.82-54.79,21.46a5,5,0,0,1-3.4-9.41c18.17-6.57,37.31-13.61,54.07-21.17C374.13,71.37,381.58,45,380.38,31.8a20,20,0,0,1,39.84-3.6c2.64,29-11.36,71.39-93,108.21C320,139.68,312,143,303,146.55A4.9,4.9,0,0,1,301.13,146.9Z"/><path class="cls-1" d="M112.7,500.8a20,20,0,0,1-20-20c0-23.75,7.3-43.68,22.31-60.93,22.8-26.19,61.82-43,96.62-56.69a5,5,0,1,1,3.66,9.3c-33.69,13.27-71.42,29.47-92.74,53.95-13.36,15.36-19.85,33.14-19.85,54.37a10,10,0,0,0,20,0c0-16.42,4.75-29.53,14.94-41.23,16.52-19,45.92-33.1,85-48.47,10.56-4.16,21.81-8.27,32.39-12.1a5,5,0,0,1,3.4,9.41c-10.51,3.8-21.68,7.88-32.13,12-37.7,14.83-65.91,28.29-81.1,45.73-8.51,9.78-12.48,20.8-12.48,34.67A20,20,0,0,1,112.7,500.8Z"/><path class="cls-1" d="M299.74,372.83a5,5,0,0,1-1.81-9.66c9.48-3.69,17.72-7.12,25.18-10.48,41-18.5,89.49-50.11,87.33-95.58a4.1,4.1,0,0,1,0-.86,6.61,6.61,0,0,0,0-.85c0-21.23-6.5-39-19.86-54.37-9.47-10.88-22.64-20.83-40.26-30.41-17-9.22-36-17.07-52.48-23.53-12.69-5-26-9.79-38.85-14.43l-.19-.07c-20.51-7.4-41.72-15-60.54-23.53-29.83-13.45-51.18-28.18-63.46-43.79-11.2-14.25-12.72-26.55-12-34.37a10,10,0,1,0-19.92-1.8c-2.33,25.81,10.89,63.8,87.16,98.19,19.56,8.82,41.13,16.6,62,24.12,12.07,4.35,25.75,9.28,38.5,14.29,39.07,15.37,68.46,29.49,85,48.47,9.72,11.15,14.46,23.48,14.92,38.8a5,5,0,0,1-.06.95,9.46,9.46,0,0,0-.08,2.39c.71,7.8-.8,20.11-12,34.36-12.28,15.61-33.63,30.34-63.45,43.79-17.32,7.8-36.6,14.89-56.47,22.06a5,5,0,0,1-3.4-9.41c19.69-7.1,38.77-14.11,55.75-21.77,63.37-28.57,70.82-54.95,69.62-68.14a19.78,19.78,0,0,1,.09-4.36c-.46-12.68-4.42-22.9-12.45-32.1-15.18-17.45-43.39-30.91-81.09-45.74-12.61-4.95-26.23-9.86-38.24-14.19-21-7.58-42.78-15.42-62.7-24.4C104.36,99.6,90.35,57.25,93,28.2a20,20,0,1,1,39.84,3.6c-1.19,13.19,6.27,39.58,69.62,68.14,18.47,8.33,39.49,15.91,59.83,23.25l.18.06c12.93,4.66,26.29,9.48,39.12,14.54,16.72,6.56,36.16,14.56,53.6,24.05,18.68,10.16,32.75,20.83,43,32.63,15,17.25,22.32,37.18,22.32,60.93,0,.59,0,1.12-.07,1.62,2.15,50.88-49.47,85.06-93.22,104.79-7.62,3.43-16,6.92-25.66,10.68A5.06,5.06,0,0,1,299.74,372.83Z"/></g><g id="Outline"><path class="cls-1" d="M376,228H137a5,5,0,0,1,0-10H376a5,5,0,0,1,0,10Z"/><path class="cls-1" d="M333,196H180a5,5,0,0,1,0-10H333a5,5,0,0,1,0,10Z"/><path class="cls-1" d="M372,292H141a5,5,0,0,1,0-10H372a5,5,0,0,1,0,10Z"/><path class="cls-1" d="M334,324H179a5,5,0,0,1,0-10H334a5,5,0,0,1,0,10Z"/><path class="cls-1" d="M334,421H179a5,5,0,0,1,0-10H334a5,5,0,0,1,0,10Z"/><path class="cls-1" d="M372,453H141a5,5,0,0,1,0-10H372a5,5,0,0,1,0,10Z"/><path class="cls-1" d="M384,485H129a5,5,0,0,1,0-10H384a5,5,0,0,1,0,10Z"/><path class="cls-1" d="M372,69H141a5,5,0,0,1,0-10H372a5,5,0,0,1,0,10Z"/><path class="cls-1" d="M329,101H184a5,5,0,0,1,0-10H329a5,5,0,0,1,0,10Z"/><path class="cls-1" d="M385,36.54H128a5,5,0,0,1,0-10H385a5,5,0,0,1,0,10Z"/><path class="cls-1" d="M384,261H129a5,5,0,0,1,0-10H384a5,5,0,0,1,0,10Z"/></g></svg>