<?xml version="1.0" ?><svg viewBox="0 0 512 512" xmlns="http://www.w3.org/2000/svg"><defs><style>.cls-1{fill:#3f456b;}</style></defs><title/><g id="Lines"><path class="cls-1" d="M325,502.56h-.13L49.24,501.47c-8.62,0-17.71-3.65-24.94-9.92-7.65-6.62-12-15.31-12-23.85l-.64-344.34A33.4,33.4,0,0,1,44.73,90.45h.13l45.19.46-.1,10-45.16-.46a23.4,23.4,0,0,0-23.11,22.92l.64,344.34c-.05,12.75,14.78,23.71,27,23.76l275.62,1.09H325a20.11,20.11,0,0,0,15.08-6.88A25.35,25.35,0,0,0,346.32,469l.21-12.1,10,.16-.2,12a34.93,34.93,0,0,1-8.82,23.24A30,30,0,0,1,325,502.56Z"/><path class="cls-1" d="M399,461.56h-.13l-275.62-1.09c-8.62,0-17.71-3.65-24.94-9.92-7.65-6.62-12-15.31-12-23.85L85.68,82.36a33.4,33.4,0,0,1,33.05-32.91h.13l42.19.46a5,5,0,1,1-.1,10l-42.16-.46h-.09a23.4,23.4,0,0,0-23,22.92l.64,344.34c0,12.75,14.78,23.71,27,23.76l275.62,1.09H399a20.11,20.11,0,0,0,15.08-6.88A25.35,25.35,0,0,0,420.32,428l.21-10.12a5,5,0,0,1,5-4.9h.11a5,5,0,0,1,4.89,5.1l-.2,10a34.92,34.92,0,0,1-8.82,23.22A30,30,0,0,1,399,461.56Z"/><path class="cls-1" d="M470,422.56h-.13l-275.62-1.09c-8.62,0-17.71-3.65-24.94-9.92-7.65-6.62-12-15.31-12-23.85l-.64-344.34a33.4,33.4,0,0,1,33-32.91h.13l173.25.68c1.34,0,33,.32,47.18,14.65,1.61,1.63,4.44,4.42,8.14,8.08,18.39,18.17,56.64,56,75.78,78.54,8.66,10.21,8.18,19.22,7.79,21.89.05,2.75.26,17.26.2,31.56l-.88,223.21a35,35,0,0,1-8.82,23.3A30,30,0,0,1,470,422.56ZM189.73,20.45a23.4,23.4,0,0,0-23,22.92l.64,344.34c0,12.75,14.78,23.71,27,23.76l275.62,1.09H470a20.11,20.11,0,0,0,15.08-6.88A25.35,25.35,0,0,0,491.32,389l.88-223.21c.06-15.7-.2-31.65-.2-31.81v-.69l.12-.47c0-.16,1-6.26-5.52-14C467.73,96.64,429.69,59,411.4,41c-3.73-3.68-6.59-6.51-8.21-8.14-9.41-9.49-32.15-11.66-40.12-11.7l-173.25-.68Z"/><path class="cls-1" d="M496,139H402.26c-8.46,0-15.26-2.62-20.23-7.79-8.11-8.43-8.07-20.64-8-22.09V19.06a5,5,0,0,1,10,0v90.33c0,.07-.22,9.27,5.28,14.93,3,3.11,7.38,4.68,13,4.68H496a5,5,0,0,1,0,10Z"/></g><g id="Outline"><path class="cls-1" d="M90.33,187H71a5,5,0,0,1,0-10H90.33a5,5,0,0,1,0,10Z"/><path class="cls-1" d="M90.33,235H71a5,5,0,0,1,0-10H90.33a5,5,0,0,1,0,10Z"/><path class="cls-1" d="M90,280H71a5,5,0,0,1,0-10H90a5,5,0,0,1,0,10Z"/><path class="cls-1" d="M90,328H71a5,5,0,0,1,0-10H90a5,5,0,0,1,0,10Z"/><path class="cls-1" d="M90,373H71a5,5,0,0,1,0-10H90a5,5,0,0,1,0,10Z"/><path class="cls-1" d="M90,421H71a5,5,0,0,1,0-10H90a5,5,0,0,1,0,10Z"/><path class="cls-1" d="M331.33,107H223a5,5,0,0,1,0-10H331.33a5,5,0,0,1,0,10Z"/><path class="cls-1" d="M331.33,155H223a5,5,0,0,1,0-10H331.33a5,5,0,0,1,0,10Z"/><path class="cls-1" d="M438,200H223a5,5,0,0,1,0-10H438a5,5,0,0,1,0,10Z"/><path class="cls-1" d="M438,248H223a5,5,0,0,1,0-10H438a5,5,0,0,1,0,10Z"/><path class="cls-1" d="M438,293H223a5,5,0,0,1,0-10H438a5,5,0,0,1,0,10Z"/><path class="cls-1" d="M438,341H223a5,5,0,0,1,0-10H438a5,5,0,0,1,0,10Z"/><path class="cls-1" d="M161.33,145H142a5,5,0,0,1,0-10h19.33a5,5,0,1,1,0,10Z"/><path class="cls-1" d="M161.33,193H142a5,5,0,0,1,0-10h19.33a5,5,0,1,1,0,10Z"/><path class="cls-1" d="M161,238H142a5,5,0,0,1,0-10h19a5,5,0,0,1,0,10Z"/><path class="cls-1" d="M161,286H142a5,5,0,0,1,0-10h19a5,5,0,0,1,0,10Z"/><path class="cls-1" d="M161,331H142a5,5,0,0,1,0-10h19a5,5,0,0,1,0,10Z"/><path class="cls-1" d="M161,379H142a5,5,0,0,1,0-10h19a5,5,0,0,1,0,10Z"/></g></svg>