<?xml version="1.0" ?><svg viewBox="0 0 512 512" xmlns="http://www.w3.org/2000/svg"><defs><style>.cls-1{fill:#3f456b;}</style></defs><title/><g id="Lines"><path class="cls-1" d="M140.33,246H58a15,15,0,0,1-15-15V123a15,15,0,0,1,15-15h81.5a5,5,0,0,1,0,10H58a5,5,0,0,0-5,5V231a5,5,0,0,0,5,5h82.33a5,5,0,1,1,0,10Z"/><path class="cls-1" d="M274,501H46a35,35,0,0,1-35-35V45A35,35,0,0,1,46,10H274a5,5,0,0,1,0,10H46A25,25,0,0,0,21,45V466a25,25,0,0,0,25,25H274a25,25,0,0,0,25-25V451a5,5,0,0,1,10,0v15A35,35,0,0,1,274,501Z"/><path class="cls-1" d="M141,85H16a5,5,0,0,1,0-10H141a5,5,0,0,1,0,10Z"/><path class="cls-1" d="M51,81H41V57c0-8.27,7.78-15,17.33-15h29V52h-29C54.56,52,51,54.43,51,57Z"/><path class="cls-1" d="M130.5,313.5a24.84,24.84,0,1,1,13.64-45.59,5,5,0,1,1-5.5,8.35,14.83,14.83,0,1,0-.2,24.94,5,5,0,0,1,5.37,8.44A24.84,24.84,0,0,1,130.5,313.5Z"/><path class="cls-1" d="M71.5,313.5a24.84,24.84,0,1,1,24.83-24.83A24.86,24.86,0,0,1,71.5,313.5Zm0-39.67a14.84,14.84,0,1,0,14.83,14.84A14.85,14.85,0,0,0,71.5,273.83Z"/><path class="cls-1" d="M130.5,372.5a24.84,24.84,0,1,1,13-46,5,5,0,0,1-5.23,8.52,14.84,14.84,0,1,0,4.92,20.38,5,5,0,1,1,8.53,5.22A24.7,24.7,0,0,1,130.5,372.5Z"/><path class="cls-1" d="M71.5,372.5a24.84,24.84,0,1,1,24.83-24.83A24.86,24.86,0,0,1,71.5,372.5Zm0-39.67a14.84,14.84,0,1,0,14.83,14.84A14.85,14.85,0,0,0,71.5,332.83Z"/><path class="cls-1" d="M130.5,431.5a24.84,24.84,0,1,1,24.83-24.83A24.86,24.86,0,0,1,130.5,431.5Zm0-39.67a14.84,14.84,0,1,0,14.83,14.84A14.85,14.85,0,0,0,130.5,391.83Z"/><path class="cls-1" d="M189.5,431.5a24.84,24.84,0,1,1,24.83-24.83A24.86,24.86,0,0,1,189.5,431.5Zm0-39.67a14.84,14.84,0,1,0,14.83,14.84A14.85,14.85,0,0,0,189.5,391.83Z"/><path class="cls-1" d="M248.5,431.5a24.84,24.84,0,1,1,5-49.16,5,5,0,1,1-2,9.79,15,15,0,0,0-3-.3,14.84,14.84,0,0,0,0,29.67,15,15,0,0,0,3-.3,5,5,0,1,1,2,9.8A25.39,25.39,0,0,1,248.5,431.5Z"/><path class="cls-1" d="M71.5,431.5a24.84,24.84,0,1,1,24.83-24.83A24.86,24.86,0,0,1,71.5,431.5Zm0-39.67a14.84,14.84,0,1,0,14.83,14.84A14.85,14.85,0,0,0,71.5,391.83Z"/><path class="cls-1" d="M254.23,469.76h0a5,5,0,0,1-5-5L249.46,115c0-15.48-7.76-23-23.73-23C212.42,92,202,101.78,202,114.26V338.78c0,18.63-14.35,33.22-32.68,33.22a33.12,33.12,0,0,1-32.94-33.22l0-253.78H89a5,5,0,0,1-5-5V43.72C84,22,95,10,115,10c28.85,0,31.42,18.15,31.42,70l0,258.78A23.11,23.11,0,0,0,169.32,362C182,362,192,351.8,192,338.78V114.26C192,96.17,206.82,82,225.73,82c21.44,0,33.73,12,33.73,33l-.23,349.76A5,5,0,0,1,254.23,469.76ZM94,75h42.41c-.11-21.85-1-38.1-4.56-46.58C129.16,22,125.22,20,115,20c-9,0-21,2.46-21,23.72Z"/><path class="cls-1" d="M479.93,470.34h0a5,5,0,0,1-5-5l.29-350.5c0-12.59-10.49-22.84-23.38-22.84H226a5,5,0,0,1,0-10H451.84c18.41,0,33.38,14.74,33.38,32.85l-.29,350.5A5,5,0,0,1,479.93,470.34Z"/><path class="cls-1" d="M362.74,91.91h0a5,5,0,0,1-5-5l.35-42.58c0-16.33-8-24.29-24.59-24.29H113a5,5,0,0,1,0-10H333.5c22,0,34.59,12.51,34.59,34.33L367.74,87A5,5,0,0,1,362.74,91.91Z"/><path class="cls-1" d="M254.35,470a5,5,0,0,1-3.62-8.45l15.91-16.66a5,5,0,0,1,3.55-1.55,4.86,4.86,0,0,1,3.6,1.46l12.62,12.62L299,444.8a5,5,0,0,1,7.07,0l12.62,12.62,12.62-12.62a5,5,0,0,1,7.07,0L351,457.39l12.34-12.56a5,5,0,0,1,7-.15l13,12.11,12.74-12.08a5,5,0,0,1,7,.09l12.62,12.62,12.62-12.62a5,5,0,0,1,7.07,0l12.57,12.57L460,444.86a5,5,0,0,1,3.58-1.52h0a5,5,0,0,1,3.57,1.49l16.37,16.67a5,5,0,1,1-7.13,7l-12.78-13L451.56,468A5,5,0,0,1,448,469.5h0a5,5,0,0,1-3.53-1.47l-12.62-12.62L419.2,468a5,5,0,0,1-7.08,0l-12.71-12.71-12.62,12a5,5,0,0,1-6.85,0l-12.88-12L354.6,468a5,5,0,0,1-3.54,1.5h0A5,5,0,0,1,347.5,468l-12.62-12.62L322.26,468a5,5,0,0,1-7.07,0l-12.62-12.62L290,468a5,5,0,0,1-7.07,0l-12.54-12.54-12.37,13A5,5,0,0,1,254.35,470Z"/><path class="cls-1" d="M254,372H170a5,5,0,0,1,0-10h84a5,5,0,0,1,0,10Z"/><path class="cls-1" d="M501,115.67a5,5,0,0,1-5-4.82C494.54,72,457.88,71.34,456.32,71.33a5,5,0,0,1,0-10c.48,0,47.84.57,49.67,49.15a5,5,0,0,1-4.81,5.18Z"/></g><g id="Outline"><path class="cls-1" d="M229,465h-1a5,5,0,0,1,0-10h1a5,5,0,0,1,0,10Zm-21,0h-1a5,5,0,0,1,0-10h1a5,5,0,0,1,0,10Zm-21,0h-1a5,5,0,0,1,0-10h1a5,5,0,0,1,0,10Zm-21,0h-1a5,5,0,0,1,0-10h1a5,5,0,0,1,0,10Zm-21,0h-1a5,5,0,0,1,0-10h1a5,5,0,0,1,0,10Zm-21,0h-1a5,5,0,0,1,0-10h1a5,5,0,0,1,0,10Zm-21,0h-1a5,5,0,0,1,0-10h1a5,5,0,0,1,0,10Zm-21,0H81a5,5,0,0,1,0-10h1a5,5,0,0,1,0,10Zm-21,0H60a5,5,0,0,1,0-10h1a5,5,0,0,1,0,10Z"/><path class="cls-1" d="M321.8,280.31c-5.76,0-15.88-.78-24.5-5.5-9.31-5.1-14.4-13.4-14.71-24a5,5,0,0,1,10-.29c.14,4.73,2.71,20.12,29.91,19.79,8.56-.12,17-3.53,21.46-8.7a15.8,15.8,0,0,0,3.71-12.91c-1-7.94-6.91-12.07-20.26-14.24-1.4-.23-2.79-.44-4.18-.65-11.8-1.78-25.17-3.8-34.08-16.4A21.29,21.29,0,0,1,285.5,201c1.34-7.38,6.32-14.62,13.32-19.37,9.94-6.74,25.23-7.74,38-2.48a36.52,36.52,0,0,1,20.27,20.18,5,5,0,1,1-9.32,3.64c-3.58-9.16-11.5-13.24-14.74-14.57-9.7-4-21.47-3.36-28.64,1.5-4.75,3.23-8.24,8.17-9.09,12.89a11.3,11.3,0,0,0,2,8.88c6.44,9.12,16.16,10.59,27.4,12.28,1.43.22,2.86.43,4.29.67,7.15,1.16,26.14,4.25,28.57,22.81a25.72,25.72,0,0,1-6.06,20.75c-6.36,7.35-17.43,12-28.89,12.15Z"/><path class="cls-1" d="M321,185a5,5,0,0,1-5-5V158a5,5,0,0,1,10,0v22A5,5,0,0,1,321,185Z"/><path class="cls-1" d="M321,304a5,5,0,0,1-5-5V276a5,5,0,0,1,10,0v23A5,5,0,0,1,321,304Z"/><path class="cls-1" d="M453,133.33h-1a5,5,0,1,1,0-10h1a5,5,0,0,1,0,10Zm-21,0h-1a5,5,0,1,1,0-10h1a5,5,0,0,1,0,10Zm-21,0h-1a5,5,0,1,1,0-10h1a5,5,0,0,1,0,10Zm-21,0h-1a5,5,0,1,1,0-10h1a5,5,0,0,1,0,10Zm-21,0h-1a5,5,0,1,1,0-10h1a5,5,0,0,1,0,10Zm-21,0h-1a5,5,0,1,1,0-10h1a5,5,0,0,1,0,10Zm-21,0h-1a5,5,0,1,1,0-10h1a5,5,0,0,1,0,10Zm-21,0h-1a5,5,0,1,1,0-10h1a5,5,0,0,1,0,10Zm-21,0h-1a5,5,0,1,1,0-10h1a5,5,0,0,1,0,10Z"/><path class="cls-1" d="M453,404h-1a5,5,0,0,1,0-10h1a5,5,0,0,1,0,10Zm-21,0h-1a5,5,0,0,1,0-10h1a5,5,0,0,1,0,10Zm-21,0h-1a5,5,0,0,1,0-10h1a5,5,0,0,1,0,10Zm-21,0h-1a5,5,0,0,1,0-10h1a5,5,0,0,1,0,10Zm-21,0h-1a5,5,0,0,1,0-10h1a5,5,0,0,1,0,10Zm-21,0h-1a5,5,0,0,1,0-10h1a5,5,0,0,1,0,10Zm-21,0h-1a5,5,0,0,1,0-10h1a5,5,0,0,1,0,10Zm-21,0h-1a5,5,0,0,1,0-10h1a5,5,0,0,1,0,10Zm-21,0h-1a5,5,0,0,1,0-10h1a5,5,0,0,1,0,10Z"/><path class="cls-1" d="M449,179H437a5,5,0,0,1,0-10h12a5,5,0,0,1,0,10Z"/><path class="cls-1" d="M417.5,179H393a5,5,0,0,1,0-10h24.5a5,5,0,0,1,0,10Z"/><path class="cls-1" d="M449,206H393a5,5,0,0,1,0-10h56a5,5,0,0,1,0,10Z"/><path class="cls-1" d="M449,233H393a5,5,0,0,1,0-10h56a5,5,0,0,1,0,10Z"/><path class="cls-1" d="M449,260H393a5,5,0,0,1,0-10h56a5,5,0,0,1,0,10Z"/><path class="cls-1" d="M418,287H393a5,5,0,0,1,0-10h25a5,5,0,0,1,0,10Z"/><path class="cls-1" d="M449,368H288a5,5,0,0,1-5-5V332a5,5,0,0,1,5-5H449a5,5,0,0,1,5,5v31A5,5,0,0,1,449,368ZM293,358H444V337H293Z"/><path class="cls-1" d="M333,61H179a5,5,0,0,1,0-10H333a5,5,0,0,1,0,10Z"/></g></svg>