<?xml version="1.0" ?><svg viewBox="0 0 512 512" xmlns="http://www.w3.org/2000/svg"><defs><style>.cls-1{fill:#3f456b;}</style></defs><title/><g id="Lines"><path class="cls-1" d="M48.38,500.5A5,5,0,0,1,46.15,491l96.5-48a5,5,0,0,1,4.45,9L50.6,500A5,5,0,0,1,48.38,500.5Z"/><path class="cls-1" d="M464.62,500.5a5,5,0,0,1-2.22-.52l-96.5-48a5,5,0,0,1,4.45-9l96.5,48a5,5,0,0,1-2.23,9.48Z"/><path class="cls-1" d="M416.5,451.58H96c-21.24,0-37.55-6.45-48.47-19.18-18.79-21.9-14.56-54.29-14.16-57,.55-5.41,18.16-179.64,26.15-270.59C64,54.36,91.28,31.37,113.44,21a112.22,112.22,0,0,1,47.14-10.45H352.42A112.22,112.22,0,0,1,399.56,21c22.16,10.41,49.49,33.4,53.92,83.83,8,90.7,25.51,264.23,26.14,270.54.51,3.06,5.16,34.71-13.16,56.51C455.45,444.94,438.64,451.58,416.5,451.58ZM159.5,20.5a104.51,104.51,0,0,0-42.14,9.67c-28.57,13.56-44.67,39-47.88,75.49-8.08,92-26,269.07-26.17,270.84l0,.26c-.05.29-4.35,30.31,11.87,49.17,8.94,10.39,22.69,15.65,40.85,15.65H416.5c19,0,33.25-5.43,42.27-16.13,15.86-18.83,11-48.3,11-48.6,0-.11,0-.23-.05-.35-.18-1.77-18.09-178.84-26.17-270.84C440.3,69,424.08,43.53,395.31,30a102.82,102.82,0,0,0-42.62-9.5H159.5Z"/><path class="cls-1" d="M443.64,84.5H69.94a5,5,0,0,1,0-10h373.7a5,5,0,0,1,0,10Z"/><path class="cls-1" d="M459.56,228.5H54a5,5,0,1,1,0-10H459.56a5,5,0,0,1,0,10Z"/><path class="cls-1" d="M256.34,228.5a5,5,0,0,1-5-5V80.21a5,5,0,0,1,10,0V223.5A5,5,0,0,1,256.34,228.5Z"/><path class="cls-1" d="M400.5,450.33a5,5,0,0,1-5-5V373.17a45,45,0,0,0-45-45H162.33a45,45,0,0,0-45,45v72.16a5,5,0,0,1-10,0V373.17a55.06,55.06,0,0,1,55-55H350.5a55.06,55.06,0,0,1,55,55v72.16A5,5,0,0,1,400.5,450.33Z"/><path class="cls-1" d="M169.5,292.72h-83a15,15,0,0,1-15-15v-13a15,15,0,0,1,15-15h83a15,15,0,0,1,15,15v13A15,15,0,0,1,169.5,292.72Zm-83-33a5,5,0,0,0-5,5v13a5,5,0,0,0,5,5h83a5,5,0,0,0,5-5v-13a5,5,0,0,0-5-5Z"/><path class="cls-1" d="M425.5,292.72h-83a15,15,0,0,1-15-15v-13a15,15,0,0,1,15-15h83a15,15,0,0,1,15,15v13A15,15,0,0,1,425.5,292.72Zm-83-33a5,5,0,0,0-5,5v13a5,5,0,0,0,5,5h83a5,5,0,0,0,5-5v-13a5,5,0,0,0-5-5Z"/></g><g id="Outline"><path class="cls-1" d="M327.79,409.5H184.21a5,5,0,0,1,0-10H327.79a5,5,0,0,1,0,10Z"/></g></svg>