<?xml version="1.0" ?><svg id="Lines" viewBox="0 0 512 512" xmlns="http://www.w3.org/2000/svg"><defs><style>.cls-1{fill:#3f456b;}</style></defs><title/><path class="cls-1" d="M482.17,353.27a24.4,24.4,0,0,1-7-1.1c-5.52-1.74-9.28-5.25-10.89-10.17a5,5,0,0,1,9.51-3.11c1.44,4.43,8.35,4.39,8.41,4.38h.11c3.32,0,5.74-.8,7.21-2.36a8.69,8.69,0,0,0,2-5.59c0-.11,0-.22,0-.33V186.46c0-28.51-29.2-46.9-29.49-47.09a5,5,0,0,1,5.26-8.5c1.4.86,34.23,21.57,34.23,55.59V334.87a18.47,18.47,0,0,1-4.65,12.87c-3.42,3.66-8.29,5.52-14.46,5.53Z"/><path class="cls-1" d="M326.84,180.92a5.4,5.4,0,0,1-1.12-.12,5,5,0,0,1-3.76-6c6.18-27.13,31.83-43.27,32.92-43.94a5,5,0,1,1,5.26,8.5c-.29.19-23.2,14.71-28.43,37.66A5,5,0,0,1,326.84,180.92Z"/><path class="cls-1" d="M468.15,482.23a5,5,0,0,1-5-5V211.82a5,5,0,0,1,10,0V477.23A5,5,0,0,1,468.15,482.23Z"/><path class="cls-1" d="M410.61,487.94a5,5,0,0,1-5-5v-282a5,5,0,1,1,10,0v282A5,5,0,0,1,410.61,487.94Z"/><path class="cls-1" d="M425.66,260.5a5,5,0,0,1-5-5v-.89a5,5,0,1,1,10,0v.89A5,5,0,0,1,425.66,260.5Z"/><path class="cls-1" d="M425.66,229.52a5,5,0,0,1-5-5v-.88a5,5,0,1,1,10,0v.88A5,5,0,0,1,425.66,229.52Z"/><path class="cls-1" d="M496.47,324.5H469a5,5,0,0,1,0-10h27.45a5,5,0,0,1,0,10Z"/><path class="cls-1" d="M410.62,169.43a67.92,67.92,0,0,1-67.8-67.88V82l-.05-1.62s0-.11,0-.17a67.82,67.82,0,1,1,135.64,0v1.87l0,19.43A67.93,67.93,0,0,1,410.62,169.43ZM352.76,80.15l.06,1.62v19.78a57.82,57.82,0,1,0,115.63,0l-.05-21.26a57.82,57.82,0,1,0-115.64-.14Z"/><path class="cls-1" d="M474.34,110.91a5,5,0,0,1,0-10c1.91,0,8.28-.82,8.28-9.16,0-8.72-6.78-9.16-8.14-9.16a5,5,0,0,1,0-10c7.29,0,18.14,5.1,18.14,19.16S481.69,110.91,474.34,110.91Z"/><path class="cls-1" d="M455.94,82.55c-12.06,0-25.13-2.63-36.07-11.07a46.69,46.69,0,0,1-9.66-10.06c-8.42,10.36-21,17-36.85,19.32a90.44,90.44,0,0,1-26.31,0,5,5,0,0,1,1.75-9.85c.61.1,41.75,6.89,57.44-21.36a5,5,0,0,1,9.09.76c.43,1.17,11.43,29.41,57,20.66a5,5,0,1,1,1.89,9.82A97.86,97.86,0,0,1,455.94,82.55Z"/><path class="cls-1" d="M346,110.91c-7,0-17.39-5.1-17.39-19.16s10.32-19.16,17.26-19.16a5,5,0,0,1,.05,10c-2.2.06-7.31,1.08-7.31,9.16s5.21,9.1,7.45,9.16a5,5,0,0,1,5,5A5,5,0,0,1,346,110.91Z"/><path class="cls-1" d="M382.29,96.75h-.88a5,5,0,0,1,0-10h.88a5,5,0,0,1,0,10Z"/><path class="cls-1" d="M438.94,96.75h-.89a5,5,0,1,1,0-10h.89a5,5,0,1,1,0,10Z"/><path class="cls-1" d="M410.61,205.62a4.36,4.36,0,0,1-.51,0c-19.28-2-33.62-12.64-41.47-30.75a74.72,74.72,0,0,1-5.94-26.39,5,5,0,0,1,4.95-5h.05a5,5,0,0,1,5,4.95,65.81,65.81,0,0,0,5.23,22.78c6.35,14.42,17.28,22.64,32.49,24.44,4.95-1.06,35.72-9.16,37.43-47.67a5,5,0,1,1,10,.45c-1.14,25.63-13.65,39.84-23.95,47.24a58.89,58.89,0,0,1-22.44,10A4.57,4.57,0,0,1,410.61,205.62Z"/><path class="cls-1" d="M456.13,347.29c-24.57,0-39-7.51-45.23-11.83-5.2,4-11.85,6.94-19.82,8.71a5,5,0,1,1-2.17-9.77c7.93-1.76,14.09-4.77,18.3-9a5,5,0,0,1,7.05,0c.13.12,15.91,14.87,53.41,11.28a5,5,0,1,1,.95,10C464.2,347.1,460,347.29,456.13,347.29Z"/><path class="cls-1" d="M410.61,498.92H371.08a5,5,0,0,1,0-10h34.54c-.32-3.53-1.43-8.53-4.93-12.46-4-4.54-10.56-6.84-19.38-6.84a34.67,34.67,0,0,0-11.95,1.87,5,5,0,0,1-3.46-9.39,44.8,44.8,0,0,1,15.41-2.48c11.85,0,20.91,3.46,26.93,10.28,9,10.22,7.41,24.06,7.33,24.64A5,5,0,0,1,410.61,498.92Z"/><path class="cls-1" d="M470.13,498.92H410.61a5,5,0,0,1-5-4.53c-.06-.58-1.23-14.36,8-24.52,6.19-6.8,15.33-10.25,27.17-10.25s20.9,3.46,26.92,10.28c9,10.22,7.41,24.06,7.34,24.64A5,5,0,0,1,470.13,498.92Zm-54.35-10h49.35c-.31-3.53-1.42-8.53-4.93-12.46-4-4.54-10.56-6.84-19.37-6.84s-15.56,2.35-19.78,7A22.55,22.55,0,0,0,415.78,488.92Z"/><path class="cls-1" d="M443.39,138.59H377.83a5,5,0,0,1-5-5A23.3,23.3,0,0,1,380,116.1c10.32-9.93,28.34-9.65,30.09-9.59h1.08c1.74-.05,19.77-.34,30.09,9.59a23.3,23.3,0,0,1,7.15,17.49A5,5,0,0,1,443.39,138.59Zm-59.83-10h54.09a12.69,12.69,0,0,0-3.34-5.28c-6.3-6.07-18.66-7-22.88-6.8H409.8c-.16,0-15.38-.46-22.91,6.82A12.7,12.7,0,0,0,383.56,128.59Z"/><path class="cls-1" d="M170.32,182.13c-6.31,0-14-2.19-23.09-8.77a5,5,0,1,1,5.88-8.09c9.3,6.77,17.76,8.55,24.46,5.14s9.92-11.06,9.92-15.32c0-14.76-10-19.58-10.05-19.63a5,5,0,0,1-2.89-4.53V114.62c-.1-3.21-3-62.35-67.45-62.35-27.4,0-47.19,10.46-58.83,31.09a77.54,77.54,0,0,0-9.49,31.38,5,5,0,0,1-3.22,4.48c-.57.23-14.75,6.1-14,25.33.34,9.17,4.71,16.74,12,20.77,7.89,4.36,17.74,3.79,27-1.58a5,5,0,0,1,5,8.66c-12.4,7.16-25.84,7.77-36.87,1.67C18.41,168.39,12,157.5,11.53,144.92c-.77-20.76,11.63-30.27,17.5-33.6A88.78,88.78,0,0,1,39.56,78.45c9.31-16.51,28.59-36.18,67.54-36.18s58,19.7,67.13,36.22a86.41,86.41,0,0,1,10.32,35.93v13.73c4.58,3.24,12.94,11.31,12.94,26.94,0,8.14-5.28,19.08-15.39,24.23A25.8,25.8,0,0,1,170.32,182.13Z"/><path class="cls-1" d="M79.5,133.35h-.87a5,5,0,0,1,0-10h.87a5,5,0,0,1,0,10Z"/><path class="cls-1" d="M134.7,133.35h-.86a5,5,0,0,1,0-10h.86a5,5,0,0,1,0,10Z"/><path class="cls-1" d="M143.71,123.05c-30,0-48.1-13-56.26-20.68-6.31,9.58-18.73,20.76-36.93,18.87a5,5,0,1,1,1-9.94c20.89,2.16,29.86-18.5,30.23-19.38a5,5,0,0,1,8.66-1c.87,1.18,22.35,29.23,71.85,20.45a5,5,0,1,1,1.75,9.84A115.8,115.8,0,0,1,143.71,123.05Z"/><path class="cls-1" d="M257.37,149.93A14.37,14.37,0,0,1,249,147.2c-2.09-1.47-27.31-19.48-46.22-45.27-9.42-12.85-11.62-27.25-6-39.51,5.46-12,17.35-20.07,31.05-21.19C242.59,40,252,46.43,257.2,53c5.19-6.61,14.61-13,29.36-11.81,13.7,1.12,25.6,9.24,31.05,21.19,5.6,12.25,3.4,26.65-6,39.5-19,26-44.46,44-46.26,45.3A13.21,13.21,0,0,1,257.37,149.93Zm-26-98.85c-.87,0-1.77,0-2.72.12-9.93.81-18.87,6.85-22.76,15.38-4.11,9-2.34,19.45,5,29.44,18.31,25,43.72,42.87,44,43.05a1.24,1.24,0,0,1,.23.17,3.51,3.51,0,0,0,4.32-.08l.13-.1c.26-.18,25.67-18.08,44-43,7.33-10,9.1-20.45,5-29.44C304.62,58,295.68,52,285.75,51.2c-18.52-1.51-23.34,12.56-23.54,13.16a5,5,0,0,1-4.76,3.48H257a5,5,0,0,1-4.77-3.52C252,63.79,247.64,51.08,231.37,51.08Z"/><path class="cls-1" d="M168.32,187.82a5,5,0,0,1-3.63-1.56A76.65,76.65,0,0,0,151.37,175a5,5,0,0,1,5.27-8.5,86.06,86.06,0,0,1,15.3,12.85,5,5,0,0,1-3.62,8.45Z"/><path class="cls-1" d="M45.14,345.68c-6.19,0-11.08-1.86-14.51-5.53A18.51,18.51,0,0,1,26,327.28V222.11c0-34,32.84-54.73,34.23-55.59a5,5,0,1,1,5.27,8.5h0a77.93,77.93,0,0,0-15,13.1c-9.6,10.79-14.47,22.22-14.47,34V327.4c0,.11,0,.22,0,.33h0a8.67,8.67,0,0,0,2,5.64c1.47,1.53,3.88,2.31,7.16,2.31a19,19,0,0,0,3-.39c.61-.12,1.18-.22,1.68-.29a5,5,0,1,1,1.36,9.91c-.37,0-.79.13-1.23.21A26.15,26.15,0,0,1,45.14,345.68Z"/><path class="cls-1" d="M144.62,420.67H48.5a5,5,0,0,1-5-5c-.55-76.42,3.54-89.16,11-112.29,1.41-4.38,3-9.28,4.66-15.08-18.41-32.7-11.8-66.23-11.51-67.67a5,5,0,0,1,9.8,2c-.1.51-6.27,32.68,11.4,62.44a5,5,0,0,1,.51,3.92c-1.94,6.86-3.75,12.48-5.33,17.43-7.17,22.36-10.85,33.82-10.51,104.21h91.15a5,5,0,0,1,0,10Z"/><path class="cls-1" d="M133.75,207.05a4.91,4.91,0,0,1-2.49-.67,5,5,0,0,1-1.84-6.82c5.45-9.48,5.42-20.62,5.42-20.73a5,5,0,0,1,10-.11c0,.56.1,13.91-6.75,25.82A5,5,0,0,1,133.75,207.05Z"/><path class="cls-1" d="M104.5,223c-11.18,0-20.27-3.57-27-10.6C64.59,199,65.3,177.79,65.34,176.9a5,5,0,0,1,10,.4c0,.33-.5,17.94,9.4,28.21,4.79,5,11.44,7.49,19.77,7.49a38.67,38.67,0,0,0,5.6-.39,5,5,0,1,1,1.46,9.89A48.89,48.89,0,0,1,104.5,223Z"/><path class="cls-1" d="M108.73,498.94H60.8a5,5,0,0,1-5-4.6c0-.6-1.09-14.91,7.84-24.58,5.16-5.59,12.38-8.42,21.47-8.42s16.28,2.84,21.32,8.45c8.74,9.72,7.31,24.08,7.25,24.69A5,5,0,0,1,108.73,498.94ZM66,488.94h37.74c-.3-3.64-1.37-8.78-4.73-12.5-3.07-3.39-7.72-5.1-13.85-5.1S74.2,473.09,71,476.54C67.6,480.23,66.38,485.3,66,488.94Z"/><path class="cls-1" d="M140.42,498.94H108.73a5,5,0,0,1-5-4.6c0-.6-1.08-14.91,7.85-24.58,5.16-5.59,12.38-8.42,21.47-8.42,8,0,14.54,2.21,19.44,6.58a5,5,0,1,1-6.65,7.47c-3-2.69-7.32-4.05-12.79-4.05-6.18,0-10.93,1.75-14.12,5.2-3.41,3.69-4.63,8.76-5,12.4h26.53a5,5,0,1,1,0,10Z"/><path class="cls-1" d="M107.1,193.82c-34.79,0-61-26.64-61-62V116.27a5,5,0,0,1,10,0v15.59c0,14.76,5.29,28.12,14.91,37.61,9.36,9.26,22.19,14.35,36.11,14.35s26.76-5.1,36.14-14.35c9.62-9.5,14.92-22.85,14.92-37.61l0-14.71a5,5,0,0,1,5-5h0a5,5,0,0,1,5,5l0,14.73C168.16,167.18,141.91,193.82,107.1,193.82Z"/><path class="cls-1" d="M108.83,485.14a5,5,0,0,1-5-5V415.67a5,5,0,0,1,10,0v64.47A5,5,0,0,1,108.83,485.14Z"/><path class="cls-1" d="M73.68,473.57a5,5,0,0,1-5-4.7L65.51,416a5,5,0,1,1,10-.6l3.19,52.9a5,5,0,0,1-4.7,5.29Z"/><path class="cls-1" d="M144.63,473.57h-.31a5,5,0,0,1-4.69-5.3l1.55-25.72a5,5,0,1,1,10,.6l-1.55,25.72A5,5,0,0,1,144.63,473.57Z"/><path class="cls-1" d="M56.59,316.67H31a5,5,0,0,1,0-10H56.59a5,5,0,0,1,0,10Z"/><path class="cls-1" d="M78.56,276.5h-.29c-20.86,0-29.29-14.9-30.82-22.78a5,5,0,0,1,9.81-1.94c.33,1.53,3.63,14.72,21.07,14.72,4.09,0,11-1,13-3.5A5,5,0,0,1,99,269.33C93.46,276.15,81,276.5,78.56,276.5Z"/><path class="cls-1" d="M269,410.35c-6.74,0-10.63-2.65-12.71-4.87a16.28,16.28,0,0,1-4.1-11.32V331.25c0-21.48,15.24-36.64,24.33-43.77a5,5,0,1,1,6.17,7.87c-6.16,4.84-20.5,18-20.5,35.9v63c0,.11,0,.22,0,.33h0a6.29,6.29,0,0,0,1.45,4.08c1.06,1.1,2.87,1.66,5.37,1.66a31.75,31.75,0,0,0,10.35-1.57,5,5,0,0,1,3.28,9.44A41.33,41.33,0,0,1,269,410.35Z"/><path class="cls-1" d="M324.11,313.64a67.91,67.91,0,0,1-67.77-66.19,3.39,3.39,0,0,1,0-.45v-5.75l-.06-1.62v-.18a67.82,67.82,0,1,1,135.63,0l.06,6.27A67.94,67.94,0,0,1,324.11,313.64Zm-57.79-67.87a57.82,57.82,0,1,0,115.63,0l-.06-6.27a57.82,57.82,0,1,0-115.63-.13l.05,1.62a1,1,0,0,1,0,.17Z"/><path class="cls-1" d="M295.78,256h-.88a5,5,0,0,1,0-10h.88a5,5,0,0,1,0,10Z"/><path class="cls-1" d="M352.43,256h-.88a5,5,0,0,1,0-10h.88a5,5,0,0,1,0,10Z"/><path class="cls-1" d="M375.17,245.07c-36.91,0-58.62-18.3-68.13-28.94-10.34,19.58-33.67,23.51-45.9,22.59a5,5,0,0,1,.74-10h0c1.3.09,31.93,2,38.89-23.91a5,5,0,0,1,9.09-1.32c.92,1.48,23.41,36.47,76.51,31a5,5,0,0,1,1,10A118.74,118.74,0,0,1,375.17,245.07Z"/><path class="cls-1" d="M376.41,411.81a30.43,30.43,0,0,1-11-2,5,5,0,1,1,3.71-9.29,21.81,21.81,0,0,0,9,1.19,4.75,4.75,0,0,1,.54,0c2.53,0,4.35-.57,5.4-1.71a6.41,6.41,0,0,0,1.42-4c0-.11,0-.22,0-.33V331.25c0-17.88-14.34-31.06-20.51-35.9a5,5,0,0,1,6.17-7.87c9.09,7.13,24.34,22.29,24.34,43.77v64.27a16.3,16.3,0,0,1-4.1,11.31c-2.06,2.2-5.88,4.81-12.45,4.88C378.44,411.75,377.57,411.81,376.41,411.81Z"/><path class="cls-1" d="M324.14,498.94H276.21a5,5,0,0,1-5-4.6c-.05-.6-1.09-14.91,7.84-24.58,5.16-5.59,12.39-8.42,21.47-8.42s16.28,2.84,21.32,8.45c8.74,9.72,7.32,24.08,7.25,24.69A5,5,0,0,1,324.14,498.94Zm-42.76-10h37.75c-.31-3.64-1.37-8.78-4.74-12.5-3.06-3.39-7.72-5.1-13.85-5.1s-10.93,1.75-14.12,5.2C283,480.23,281.8,485.3,281.38,488.94Z"/><path class="cls-1" d="M372.07,498.94H324.14a5,5,0,0,1-5-4.6c-.05-.6-1.09-14.91,7.84-24.58,5.16-5.59,12.39-8.42,21.47-8.42s16.28,2.84,21.32,8.45c8.74,9.72,7.32,24.08,7.25,24.69A5,5,0,0,1,372.07,498.94Zm-42.76-10h37.75c-.31-3.64-1.37-8.78-4.74-12.5-3.07-3.39-7.72-5.1-13.85-5.1s-10.93,1.75-14.12,5.2C330.94,480.23,329.73,485.3,329.31,488.94Z"/><path class="cls-1" d="M281,479.75a5,5,0,0,1-5-5V335.63a5,5,0,0,1,10,0V474.75A5,5,0,0,1,281,479.75Z"/><path class="cls-1" d="M367.1,478.58a5,5,0,0,1-5-5V335.63a5,5,0,0,1,10,0v138A5,5,0,0,1,367.1,478.58Z"/><path class="cls-1" d="M281,387.33H257.2a5,5,0,0,1,0-10H281a5,5,0,0,1,0,10Z"/><path class="cls-1" d="M390.46,387.33H367.1a5,5,0,0,1,0-10h23.36a5,5,0,0,1,0,10Z"/><path class="cls-1" d="M367.28,408.5H281a5,5,0,0,1,0-10h86.28a5,5,0,0,1,0,10Z"/><path class="cls-1" d="M323.16,488.6a5,5,0,0,1-5-5V422a5,5,0,0,1,10,0v61.6A5,5,0,0,1,323.16,488.6Z"/><path class="cls-1" d="M135,410.35c-6.74,0-10.63-2.65-12.71-4.87a16.28,16.28,0,0,1-4.1-11.32V331.25c0-21.48,15.25-36.64,24.34-43.77a5,5,0,0,1,6.17,7.87c-6.17,4.84-20.51,18-20.51,35.9v63c0,.11,0,.22,0,.33h0a6.36,6.36,0,0,0,1.45,4.08c1.07,1.1,2.87,1.66,5.37,1.66a31.75,31.75,0,0,0,10.35-1.57,5,5,0,1,1,3.28,9.44A41.33,41.33,0,0,1,135,410.35Z"/><path class="cls-1" d="M242.44,411.81a30.48,30.48,0,0,1-11-2,5,5,0,0,1,3.71-9.29,21.81,21.81,0,0,0,9,1.19,4.75,4.75,0,0,1,.54,0c2.5,0,4.3-.56,5.36-1.66a6.39,6.39,0,0,0,1.46-4.15,2.26,2.26,0,0,1,0-.26V331.25c0-12.59-6.89-24.64-19.93-34.87a5,5,0,0,1,6.17-7.87c15.54,12.19,23.76,27,23.76,42.74v64.27a16.33,16.33,0,0,1-4.1,11.32c-2.06,2.19-5.88,4.8-12.45,4.87C244.46,411.75,243.59,411.81,242.44,411.81Z"/><path class="cls-1" d="M190.16,498.94H142.23a5,5,0,0,1-5-4.6c-.05-.6-1.08-14.91,7.84-24.58,5.16-5.59,12.39-8.42,21.48-8.42s16.27,2.84,21.31,8.45c8.74,9.72,7.32,24.08,7.25,24.69A5,5,0,0,1,190.16,498.94Zm-42.76-10h37.75c-.31-3.64-1.37-8.78-4.74-12.5-3.06-3.39-7.72-5.1-13.84-5.1s-10.94,1.75-14.13,5.2C149,480.23,147.82,485.3,147.4,488.94Z"/><path class="cls-1" d="M238.09,498.94H190.16a5,5,0,0,1-5-4.6c-.05-.6-1.09-14.91,7.84-24.58,5.16-5.59,12.39-8.42,21.47-8.42s16.28,2.84,21.32,8.45c8.74,9.72,7.32,24.08,7.25,24.69A5,5,0,0,1,238.09,498.94Zm-42.76-10h37.75c-.31-3.64-1.37-8.78-4.74-12.5-3.06-3.39-7.72-5.1-13.85-5.1s-10.93,1.75-14.12,5.2C197,480.23,195.75,485.3,195.33,488.94Z"/><path class="cls-1" d="M147,408.5a5,5,0,0,1-5-5V335.63a5,5,0,0,1,10,0V403.5A5,5,0,0,1,147,408.5Z"/><path class="cls-1" d="M233.12,408.5a5,5,0,0,1-5-5V335.63a5,5,0,0,1,10,0V403.5A5,5,0,0,1,233.12,408.5Z"/><path class="cls-1" d="M147,387.33h-23.8a5,5,0,1,1,0-10H147a5,5,0,1,1,0,10Z"/><path class="cls-1" d="M256.48,387.33H233.12a5,5,0,0,1,0-10h23.36a5,5,0,0,1,0,10Z"/><path class="cls-1" d="M236,447.12H144.62a5,5,0,0,1-5-5.31l2.4-38.62a5,5,0,0,1,5-4.69H233.3a5,5,0,0,1,5,4.65l2.7,38.62a5,5,0,0,1-5,5.35Zm-86.06-10h80.7l-2-28.62H151.72Z"/><path class="cls-1" d="M117.56,303.44a34,34,0,0,1-3.63-.19C95.6,301.3,84,285.09,83.53,284.4a5,5,0,0,1,5.18-7.75c5.27,1.18,9.1.82,11.4-1.07,5.42-4.46,5-18.45,4.72-30.79-.24-9.14-.49-18.59,1.36-25.94,5.34-21.13,26.48-22.93,36.92-20.93a5,5,0,0,1-1.87,9.82,33.1,33.1,0,0,0-11.74.35c-7.34,1.68-11.79,6-13.61,13.21-1.52,6-1.29,14.76-1.06,23.23.4,15.34.83,31.21-8.37,38.77a17.15,17.15,0,0,1-6.76,3.37,30.62,30.62,0,0,0,15.35,6.64c8.21.85,16.59-2.62,24.91-10.31a5,5,0,0,1,6.79,7.35C137.33,299.05,127.53,303.44,117.56,303.44Z"/><path class="cls-1" d="M191.33,316.18c-34.91,0-63.31-27.74-63.31-61.84V236.71l-.05-1.46v-.17c0-34.1,28.41-61.84,63.34-61.84s63.31,27.74,63.31,61.84l0,1.68,0,17.57C254.67,288.44,226.26,316.18,191.33,316.18ZM138,235l.05,1.45v17.9c0,28.59,23.92,51.84,53.31,51.84s53.34-23.25,53.34-51.84l0-19.21c0-28.64-23.91-51.89-53.31-51.89S138,206.44,138,235Z"/><path class="cls-1" d="M233.42,237.65c-11.25,0-23.45-2.4-33.67-10.07a43.06,43.06,0,0,1-8.81-8.87c-7.88,9.27-19.53,15.2-34.17,17.3a86.31,86.31,0,0,1-24.5,0,5,5,0,0,1,1.7-9.86h0c.38.07,38.54,6.25,53-19.11a5,5,0,0,1,9,.76c.4,1.05,10.54,26.26,52.53,18.4a5,5,0,1,1,1.84,9.83A92.71,92.71,0,0,1,233.42,237.65Z"/><path class="cls-1" d="M165,256h-.82a5,5,0,0,1,0-10H165a5,5,0,0,1,0,10Z"/><path class="cls-1" d="M217.62,256h-.82a5,5,0,0,1,0-10h.82a5,5,0,0,1,0,10Z"/><path class="cls-1" d="M189.18,338.44c-9.3,0-16.88-2.92-22.52-8.68-10.14-10.36-9.93-26.1-9.92-26.77a5,5,0,0,1,10,.2h0c0,.12-.1,12.3,7.1,19.61,3.74,3.8,8.76,5.64,15.34,5.64,6.91,0,12.33-1.95,16.11-5.79,6.5-6.6,6.52-17,6.51-17.07a5,5,0,0,1,10-.16c0,.59.12,14.58-9.38,24.25C206.69,335.49,198.87,338.44,189.18,338.44Z"/><path class="cls-1" d="M158,472.3a5,5,0,0,1-5-5V442.12a5,5,0,0,1,10,0V467.3A5,5,0,0,1,158,472.3Z"/><path class="cls-1" d="M225.52,472.3a5,5,0,0,1-5-5V442.12a5,5,0,0,1,10,0V467.3A5,5,0,0,1,225.52,472.3Z"/><path class="cls-1" d="M190.31,482.23a5,5,0,0,1-5-5V442.12a5,5,0,0,1,10,0v35.11A5,5,0,0,1,190.31,482.23Z"/></svg>