<?xml version="1.0" ?><svg viewBox="0 0 512 512" xmlns="http://www.w3.org/2000/svg"><defs><style>.cls-1{fill:#3f456b;}</style></defs><title/><g id="Lines"><path class="cls-1" d="M192,499a5,5,0,0,1-4.87-3.85L149.59,336.83a5,5,0,0,1,9.73-2.31l37.55,158.33A5,5,0,0,1,192,499Z"/><path class="cls-1" d="M141,284a5,5,0,0,1-4.86-3.84l-18-76a5,5,0,0,1,9.74-2.3l18,76a5,5,0,0,1-3.71,6A5.16,5.16,0,0,1,141,284Z"/><path class="cls-1" d="M341.49,500a5,5,0,0,1-4.87-6.15l101.25-430c2.84-12,.78-23.24-5.79-31.54C425.79,24.37,416,20,404.52,20h-188c-25.39,0-50.92,20.7-56.91,46.15L109.4,277.87a5,5,0,1,1-9.73-2.31L149.88,63.85c7-29.69,36.88-53.85,66.64-53.85h188c14.6,0,27.17,5.72,35.4,16.1,8.51,10.75,11.24,25,7.69,40.05l-101.26,430A5,5,0,0,1,341.49,500Z"/><path class="cls-1" d="M53,499a5,5,0,0,1-4.87-6.15l37.31-157.3a5,5,0,1,1,9.73,2.3l-37.3,157.3A5,5,0,0,1,53,499Z"/><path class="cls-1" d="M430.15,123.5a5.39,5.39,0,0,1-1-.09c-.38-.08-39.2-7.41-140.27-7.41-101.22,0-145.13,7.19-145.56,7.26a5,5,0,0,1-1.67-9.86c1.79-.3,45-7.4,147.23-7.4s140.61,7.28,142.2,7.59a5,5,0,0,1-1,9.91Z"/><path class="cls-1" d="M357,435H68a5,5,0,0,1,0-10H357a5,5,0,0,1,0,10Z"/><path class="cls-1" d="M423,340H43a15,15,0,0,1-15-15V307c0-21,13.49-33,37-33H397.09c8.64-.07,23.1-.2,32.44,9.05,5.62,5.58,8.47,13.64,8.47,24v18A15,15,0,0,1,423,340ZM65,284c-17.92,0-27,7.74-27,23v18a5,5,0,0,0,5,5H423a5,5,0,0,0,5-5V307c0-7.56-1.85-13.23-5.51-16.85-6.38-6.33-17.78-6.23-25.31-6.16H65Z"/><path class="cls-1" d="M480,499a5,5,0,0,1-4.87-3.85l-69-291a5,5,0,1,1,9.74-2.3l69,291A5,5,0,0,1,480,499Z"/><path class="cls-1" d="M411,312a5,5,0,0,1-5-5v-1a5,5,0,0,1,10,0v1A5,5,0,0,1,411,312Z"/></g><g id="Outline"><path class="cls-1" d="M464,435H357a5,5,0,0,1,0-10H464a5,5,0,0,1,0,10Z"/><path class="cls-1" d="M299,340a5,5,0,0,1-5-5V279a5,5,0,0,1,10,0v56A5,5,0,0,1,299,340Z"/></g></svg>