<?xml version="1.0" ?><svg viewBox="0 0 512 512" xmlns="http://www.w3.org/2000/svg"><defs><style>.cls-1{fill:#3f456b;}</style></defs><title/><g id="Lines"><path class="cls-1" d="M257.08,435.73c-55,0-101.28-13.71-137.62-40.75-28.7-21.36-51.12-50.91-66.63-87.83a5,5,0,0,1,9.22-3.88c14.8,35.25,36.13,63.41,63.38,83.69,34.57,25.72,78.87,38.77,131.65,38.77a5,5,0,0,1,0,10Z"/><path class="cls-1" d="M478.68,163.07a5,5,0,0,1-5-5V112.42c0-10.23-4-17.47-11.91-21.54a32.52,32.52,0,0,0-13-3.35H64.91a32.52,32.52,0,0,0-13,3.35C44,95,40,102.19,40,112.42v44.8a5,5,0,0,1-10,0v-44.8c0-18,9.63-26.59,17.71-30.62a42.31,42.31,0,0,1,17.18-4.27H448.79A42.31,42.31,0,0,1,466,81.8c8.08,4,17.71,12.63,17.71,30.62v45.65A5,5,0,0,1,478.68,163.07Z"/><path class="cls-1" d="M256.62,435.73a5,5,0,0,1,0-10c52.93,0,97.33-13.12,131.94-39,27.26-20.38,48.57-48.65,63.33-84a5,5,0,0,1,9.23,3.84c-15.46,37.07-37.86,66.74-66.57,88.2C358.17,421.94,311.76,435.73,256.62,435.73Z"/><path class="cls-1" d="M53.73,356.59a5,5,0,0,1-4.22-2.31c-15.25-24-34.24-68.23-38.16-143a511.25,511.25,0,0,1,1.9-79.74,5,5,0,0,1,10,.86c0,.07-.3,9.51,6.21,16.29,4.77,5,12.15,7.48,21.94,7.48h62.32c1.15,0,30.09-.24,50.11,19.47C175.85,187.53,182,204,182,224.48c0,18.09-5.88,33.08-17.48,44.53-24.33,24-65,23.8-66.71,23.78-.29,0-24.25-.31-35.94,14.89-7.49,9.73-8.6,24-3.3,42.53a5,5,0,0,1-2.76,5.94A5,5,0,0,1,53.73,356.59ZM21.45,154.81c-1.93,36.64-1.93,111.79,23.94,170.43C46,316,48.9,308.08,54,301.53c14.83-19.2,42.81-18.77,44-18.74.33,0,38.22.16,59.54-20.92,9.6-9.51,14.47-22.09,14.47-37.39,0-17.74-5.11-31.78-15.21-41.71-17.06-16.8-42.75-16.61-43-16.6H51.35c-12.69,0-22.53-3.59-29.26-10.67Z"/><path class="cls-1" d="M212.49,432.39a5.52,5.52,0,0,1-.81-.06,5,5,0,0,1-4.13-5.75c.1-.61,9.62-62.36-28.44-99.57-37.71-36.85-112.94-10-113.69-9.74A5,5,0,1,1,62,307.88a197.12,197.12,0,0,1,45.54-9.68c33.78-3.05,60.95,4.44,78.57,21.66,41.83,40.89,31.77,105.61,31.32,108.34A5,5,0,0,1,212.49,432.39Z"/><path class="cls-1" d="M300.61,432.39a5,5,0,0,1-4.92-4.19c-.45-2.73-10.52-67.45,31.32-108.34,17.62-17.22,44.79-24.71,78.57-21.66a197.27,197.27,0,0,1,45.54,9.68,5,5,0,0,1-3.43,9.39c-.89-.32-76-27.07-113.69,9.75-38.07,37.2-28.54,99-28.44,99.57a5,5,0,0,1-4.13,5.73A4.62,4.62,0,0,1,300.61,432.39Z"/><path class="cls-1" d="M18.21,137.14h-.27a5,5,0,0,1-4.72-5.23c.42-8.47,5.52-24.48,21.8-24.48a5,5,0,0,1,0,10c-10.83,0-11.78,14.38-11.82,15A5,5,0,0,1,18.21,137.14Z"/><path class="cls-1" d="M74.71,370.54a26.51,26.51,0,0,1-8.36-1.34c-11.82-3.91-17-15.08-17.18-15.55a5,5,0,0,1,9.11-4.13c.08.17,3.72,7.76,11.3,10.22,5.32,1.72,11.6.6,18.65-3.33a5,5,0,0,1,4.87,8.73C86.66,368.73,80.51,370.54,74.71,370.54Z"/><path class="cls-1" d="M461.14,356.59a5,5,0,0,1-2.05-.44,5,5,0,0,1-2.76-5.94c5.31-18.51,4.19-32.84-3.33-42.57-11.77-15.24-35.62-14.85-35.85-14.85-1.79,0-42.45.25-66.77-23.78-11.6-11.45-17.48-26.44-17.48-44.53,0-20.52,6.12-36.95,18.19-48.84,20-19.71,49-19.48,50.19-19.47h62.24c9.84,0,17.25-2.54,22-7.55,6.43-6.77,6.14-16.13,6.14-16.22a5,5,0,0,1,9.95-.86,511.25,511.25,0,0,1,1.9,79.74c-3.92,74.77-22.91,119-38.16,143A5,5,0,0,1,461.14,356.59Zm-43.66-73.81c4.06,0,29.53.74,43.43,18.75,5.07,6.55,7.92,14.48,8.57,23.71,25.89-58.66,25.88-133.8,23.94-170.43l-.64.69c-6.73,7.08-16.57,10.67-29.26,10.67H401.2c-.36,0-26.18-.12-43.15,16.66-10.06,9.93-15.15,23.94-15.15,41.65,0,15.32,4.88,27.91,14.5,37.42C378.79,283,416.59,282.79,417,282.79Z"/><path class="cls-1" d="M496.66,137.15a5,5,0,0,1-5-4.74c0-.64-1-15-11.82-15a5,5,0,0,1,0-10c16.28,0,21.38,16,21.8,24.48a5,5,0,0,1-4.74,5.24Z"/><path class="cls-1" d="M440.16,370.54c-5.8,0-12-1.8-18.39-5.4a5,5,0,1,1,4.87-8.73c7.09,4,13.4,5.07,18.74,3.3,7.57-2.5,11.17-10.1,11.2-10.17a5,5,0,1,1,9.12,4.11c-.22.47-5.36,11.64-17.18,15.55A26.46,26.46,0,0,1,440.16,370.54Z"/><path class="cls-1" d="M387.24,243.13a23,23,0,1,1,23-23A23,23,0,0,1,387.24,243.13Zm0-36a13,13,0,1,0,13,13A13,13,0,0,0,387.24,207.13Z"/><path class="cls-1" d="M130.74,243.13a23,23,0,1,1,23-23A23,23,0,0,1,130.74,243.13Zm0-36a13,13,0,1,0,13,13A13,13,0,0,0,130.74,207.13Z"/></g><g id="Outline"><path class="cls-1" d="M64.91,122.13a5,5,0,0,1-5-5V82.53a5,5,0,0,1,10,0v34.6A5,5,0,0,1,64.91,122.13Z"/><path class="cls-1" d="M447.88,122.13a5,5,0,0,1-5-5V82.53a5,5,0,1,1,10,0v34.6A5,5,0,0,1,447.88,122.13Z"/><path class="cls-1" d="M393.17,122.13a5,5,0,0,1-5-5V82.53a5,5,0,0,1,10,0v34.6A5,5,0,0,1,393.17,122.13Z"/><path class="cls-1" d="M420.52,122.13a5,5,0,0,1-5-5V82.53a5,5,0,1,1,10,0v34.6A5,5,0,0,1,420.52,122.13Z"/><path class="cls-1" d="M365.81,122.13a5,5,0,0,1-5-5V82.53a5,5,0,0,1,10,0v34.6A5,5,0,0,1,365.81,122.13Z"/><path class="cls-1" d="M338.46,122.13a5,5,0,0,1-5-5V82.53a5,5,0,0,1,10,0v34.6A5,5,0,0,1,338.46,122.13Z"/><path class="cls-1" d="M311.1,122.13a5,5,0,0,1-5-5V82.53a5,5,0,1,1,10,0v34.6A5,5,0,0,1,311.1,122.13Z"/><path class="cls-1" d="M283.75,122.13a5,5,0,0,1-5-5V82.53a5,5,0,1,1,10,0v34.6A5,5,0,0,1,283.75,122.13Z"/><path class="cls-1" d="M256.39,122.13a5,5,0,0,1-5-5V82.53a5,5,0,1,1,10,0v34.6A5,5,0,0,1,256.39,122.13Z"/><path class="cls-1" d="M229,122.13a5,5,0,0,1-5-5V82.53a5,5,0,0,1,10,0v34.6A5,5,0,0,1,229,122.13Z"/><path class="cls-1" d="M201.68,122.13a5,5,0,0,1-5-5V82.53a5,5,0,0,1,10,0v34.6A5,5,0,0,1,201.68,122.13Z"/><path class="cls-1" d="M174.33,122.13a5,5,0,0,1-5-5V82.53a5,5,0,0,1,10,0v34.6A5,5,0,0,1,174.33,122.13Z"/><path class="cls-1" d="M147,122.13a5,5,0,0,1-5-5V82.53a5,5,0,0,1,10,0v34.6A5,5,0,0,1,147,122.13Z"/><path class="cls-1" d="M119.62,122.13a5,5,0,0,1-5-5V82.53a5,5,0,0,1,10,0v34.6A5,5,0,0,1,119.62,122.13Z"/><path class="cls-1" d="M92.26,122.13a5,5,0,0,1-5-5V82.53a5,5,0,0,1,10,0v34.6A5,5,0,0,1,92.26,122.13Z"/></g></svg>