<?xml version="1.0" ?><svg viewBox="0 0 512 512" xmlns="http://www.w3.org/2000/svg"><defs><style>.cls-1{fill:#3f456b;}</style></defs><title/><g id="Lines"><path class="cls-1" d="M122,501.63H101.41A22.45,22.45,0,0,1,79.23,479V451a5,5,0,1,1,10,0v28a12.45,12.45,0,0,0,12.18,12.67H122A12.45,12.45,0,0,0,134.19,479V451a5,5,0,0,1,10,0v28C144.19,491.46,134.24,501.63,122,501.63Z"/><path class="cls-1" d="M408.77,501.63H388.16C375.93,501.63,366,491.46,366,479V452.33a5,5,0,1,1,10,0V479a12.45,12.45,0,0,0,12.17,12.67h20.61A12.45,12.45,0,0,0,420.94,479V452.33a5,5,0,0,1,10,0V479C430.94,491.46,421,501.63,408.77,501.63Z"/><path class="cls-1" d="M429.14,456H315.71a5,5,0,0,1,0-10H429.14c3.58,0,6.28-1,8.25-3.09,3.75-3.95,4.23-11.19,4.1-13.64a2.81,2.81,0,0,1,0-.29V374.68c0-.28.78-28.82-16.67-41.86-.95-.74-21.52-16.91-25.88-35.28a1.55,1.55,0,0,0-.05-.23l-9.31-49.65c-.54-2.14-8.2-29.8-39.12-29.8H161.06c-13.3,0-23.92,5-31.55,14.92a45.81,45.81,0,0,0-7.58,14.89l-9.3,49.64a1.55,1.55,0,0,0,0,.23c-4.23,17.83-23.74,33.59-25.68,35.12C69.23,348.24,70,374.41,70,374.67v54.27c0,.1,0,.2,0,.3-.13,2.44.35,9.68,4.1,13.63,2,2.08,4.67,3.09,8.25,3.09H194.5a5,5,0,1,1,0,10H82.37c-6.41,0-11.64-2.11-15.55-6.26C59.73,442.17,60,430.48,60,428.82V375c-.07-2.33-.52-31.59,20.38-49.9l.23-.19c.18-.14,18.58-14.63,22.18-29.52l9.31-49.66c0-.08,0-.16.05-.24.09-.37,9.37-37.58,48.88-37.58H350.45c39.51,0,48.79,37.21,48.88,37.58,0,.08,0,.16.05.24l9.31,49.66c3,12.4,17,25.51,22.19,29.52,21.22,15.87,20.67,47.67,20.6,50.09v53.87c.07,1.66.3,13.35-6.79,20.88C440.79,453.85,435.55,456,429.14,456Z"/><path class="cls-1" d="M450.44,302.79H426.61a14.05,14.05,0,0,1-14-14V275.41a14,14,0,0,1,14-14h23.83a14,14,0,0,1,14,14v13.35A14,14,0,0,1,450.44,302.79Zm-23.83-31.41a4,4,0,0,0-4,4v13.35a4,4,0,0,0,4,4h23.83a4,4,0,0,0,4-4V275.41a4,4,0,0,0-4-4Z"/><path class="cls-1" d="M86.69,302.79H62.86a14,14,0,0,1-14-14V275.41a14,14,0,0,1,14-14H86.69a14,14,0,0,1,14,14v13.35A14.05,14.05,0,0,1,86.69,302.79ZM62.86,271.38a4,4,0,0,0-4,4v13.35a4,4,0,0,0,4,4H86.69a4,4,0,0,0,4-4V275.41a4,4,0,0,0-4-4Z"/><path class="cls-1" d="M411.81,314.94a5,5,0,0,1-2.88-9.09l14.9-10.47a5,5,0,0,1,5.75,8.19L414.67,314A5,5,0,0,1,411.81,314.94Z"/><path class="cls-1" d="M394.55,251.6a5,5,0,0,1-4.77-3.5c-.16-.51-16.59-50.88-59.57-50.88H181.39c-43.11,0-59.41,50.37-59.57,50.88a5,5,0,1,1-9.54-3,105.72,105.72,0,0,1,15.21-28.69c14.29-19.1,32.93-29.19,53.9-29.19H330.21c21,0,39.61,10.09,53.9,29.19a105.72,105.72,0,0,1,15.21,28.69,5,5,0,0,1-3.27,6.27A4.93,4.93,0,0,1,394.55,251.6Z"/><path class="cls-1" d="M425.81,431.63H84c-8.53,0-15-2.24-19.25-6.67A16.78,16.78,0,0,1,60,413.26l10,.44v-.1c0,1.34.68,8,14,8h341.8c.14,0,14.88-.17,15.42-8.47a5,5,0,0,1,10,.64c-.48,7.48-5.44,13.14-13.95,15.94A40.85,40.85,0,0,1,425.81,431.63Z"/><path class="cls-1" d="M315.29,475.23H195.44a5,5,0,0,1-5-5V426.55a5,5,0,0,1,5-5H315.29a5,5,0,0,1,5,5v43.68A5,5,0,0,1,315.29,475.23Zm-114.85-10H310.29V431.55H200.44Z"/><path class="cls-1" d="M406.47,309.75l-.43,0c-147-12.56-299.06-.13-300.58,0a5,5,0,1,1-.83-10c1.52-.13,154.43-12.64,302.26,0a5,5,0,0,1-.42,10Z"/><path class="cls-1" d="M321.17,413.55h-127c-12.55,0-16.84-9.09-17.43-14.21-.54-2.56-4.19-20.39-3.37-32.74.43-6.48,3.27-10.23,5.57-12.24a17.91,17.91,0,0,1,11.86-4.08c4.69-.28,69.44-4,133.73,0a17.88,17.88,0,0,1,11.85,4.08c2.3,2,5.14,5.76,5.57,12.24.82,12.35-2.83,30.18-3.37,32.74C338,404.46,333.72,413.55,321.17,413.55Zm-131-53.29c-2.13,0-6.34.81-6.75,7-.78,11.65,3.18,30.05,3.22,30.23a4.87,4.87,0,0,1,.1.65c.19,1.57,1.31,5.4,7.5,5.4h127c6.19,0,7.31-3.83,7.51-5.48a2.82,2.82,0,0,1,.09-.57c0-.18,4-18.61,3.22-30.23-.16-2.49-.87-4.24-2.16-5.37a8.12,8.12,0,0,0-5-1.63,4.85,4.85,0,0,1-.66,0c-65.86-4.1-132.35,0-133,0a4.85,4.85,0,0,1-.66,0Z"/><path class="cls-1" d="M411.14,392.23h-42c-12.74,0-23.1-9.94-23.1-22.16V366c0-11.11,8.74-19.78,22.26-22.08l.34-.05,41.7-4.15a4.19,4.19,0,0,1,.5,0c8.07,0,13.92,1.93,17.86,5.88,5.59,5.59,5.58,13.4,5.57,19.67v4.88C434.24,382.29,423.87,392.23,411.14,392.23Zm-41.35-38.48c-6.4,1.14-13.78,5-13.78,12.2v4.12c0,6.7,5.88,12.16,13.1,12.16h42c7.22,0,13.1-5.46,13.1-12.16v-4.9c0-4.88,0-9.92-2.64-12.58-1.92-1.93-5.47-2.92-10.55-2.95Z"/><path class="cls-1" d="M146.62,392.23h-42c-12.74,0-23.1-9.94-23.1-22.16v-4.88c0-6.27,0-14.08,5.57-19.67,3.94-3.95,9.79-5.88,17.86-5.88a4.19,4.19,0,0,1,.5,0l41.7,4.15.34.05c13.52,2.3,22.26,11,22.26,22.08v4.12C169.72,382.29,159.36,392.23,146.62,392.23Zm-41.94-42.59c-5.08,0-8.63,1-10.55,2.95-2.65,2.66-2.65,7.7-2.64,12.58v4.9c0,6.7,5.88,12.16,13.1,12.16h42c7.22,0,13.1-5.46,13.1-12.16V366c0-7.2-7.38-11.06-13.78-12.2Z"/><g data-name="&lt;编组&gt;" id="_编组_"><path class="cls-1" d="M83.08,160.67a75.32,75.32,0,0,1-70.58-48.2,5,5,0,0,1,4.66-6.82H71.64V63.4H17.48a5,5,0,0,1-4.63-6.88A75.41,75.41,0,0,1,83.06,9.18h0a76.1,76.1,0,0,1,67.13,40.66H360.47A76,76,0,0,1,427.74,8.91h0A75.29,75.29,0,0,1,498.33,57.1a5,5,0,0,1-4.65,6.82h-54.5v42.25h54.17a5,5,0,0,1,4.64,6.87,75.76,75.76,0,0,1-137.64,6.16H150.63A76,76,0,0,1,83.08,160.67Zm-58.15-45a65.77,65.77,0,0,0,118-3.52,5,5,0,0,1,4.55-2.92h216a5,5,0,0,1,4.54,2.9,65.77,65.77,0,0,0,117.46,4.06H434.18a5,5,0,0,1-5-5V58.92a5,5,0,0,1,5-5h51.73a65.31,65.31,0,0,0-58.15-35h0a66,66,0,0,0-59.63,38,5,5,0,0,1-4.53,2.89H147.11A5,5,0,0,1,142.59,57,66.06,66.06,0,0,0,83.08,19.18h0A65.44,65.44,0,0,0,25.36,53.4H76.64a5,5,0,0,1,5,5v52.25a5,5,0,0,1-5,5Z"/></g></g><g id="Outline"><path class="cls-1" d="M289.27,448.29a5,5,0,0,1,5-5h0a5,5,0,0,1,5,5h0a5,5,0,0,1-5,5h0A5,5,0,0,1,289.27,448.29Zm-20,0a5,5,0,0,1,5-5h0a5,5,0,0,1,5,5h0a5,5,0,0,1-5,5h0A5,5,0,0,1,269.27,448.29Zm-20,0a5,5,0,0,1,5-5h0a5,5,0,0,1,5,5h0a5,5,0,0,1-5,5h0A5,5,0,0,1,249.27,448.29Zm-20,0a5,5,0,0,1,5-5h0a5,5,0,0,1,5,5h0a5,5,0,0,1-5,5h0A5,5,0,0,1,229.27,448.29Zm-20,0a5,5,0,0,1,5-5h0a5,5,0,0,1,5,5h0a5,5,0,0,1-5,5h0A5,5,0,0,1,209.27,448.29Z"/><path class="cls-1" d="M84.89,469.05a5,5,0,1,1,0-10H99.34a5,5,0,1,1,0,10Z"/><path class="cls-1" d="M84.71,484.52a5,5,0,0,1,0-10H99.54a5,5,0,0,1,0,10Z"/><path class="cls-1" d="M124,469.05a5,5,0,1,1,0-10h14.45a5,5,0,1,1,0,10Z"/><path class="cls-1" d="M123.83,484.52a5,5,0,0,1,0-10h14.83a5,5,0,0,1,0,10Z"/><path class="cls-1" d="M371.21,469.05a5,5,0,1,1,0-10h14.44a5,5,0,0,1,0,10Z"/><path class="cls-1" d="M371,484.52a5,5,0,0,1,0-10h14.83a5,5,0,0,1,0,10Z"/><path class="cls-1" d="M411.16,469.05a5,5,0,1,1,0-10h14.45a5,5,0,1,1,0,10H411.16Z"/><path class="cls-1" d="M411,484.52a5,5,0,0,1,0-10h14.83a5,5,0,0,1,0,10Z"/><path class="cls-1" d="M257.86,412.72a5,5,0,0,1-5-5v-54.1a5,5,0,0,1,10,0v54.1A5,5,0,0,1,257.86,412.72Z"/><path class="cls-1" d="M238.72,413.55a5,5,0,0,1-5-4.84l-1.66-54.94a5,5,0,1,1,10-.3l1.67,54.93a5,5,0,0,1-4.85,5.15Z"/><path class="cls-1" d="M220.4,413.55a5,5,0,0,1-5-4.69l-3.33-54.1a5,5,0,1,1,10-.61l3.33,54.1a5,5,0,0,1-4.68,5.29Z"/><path class="cls-1" d="M201.26,413.55a5,5,0,0,1-5-4.61l-4.16-53.27a5,5,0,0,1,10-.77l4.16,53.26a5,5,0,0,1-4.59,5.38Z"/><path class="cls-1" d="M277.84,413.55h-.15a5,5,0,0,1-4.85-5.15l1.67-54.93a5,5,0,1,1,10,.3l-1.66,54.94A5,5,0,0,1,277.84,413.55Z"/><path class="cls-1" d="M296.16,413.55h-.32a5,5,0,0,1-4.68-5.29l3.33-54.1a5,5,0,1,1,10,.61l-3.33,54.1A5,5,0,0,1,296.16,413.55Z"/><path class="cls-1" d="M315.3,413.55h-.4a5,5,0,0,1-4.59-5.38l4.16-53.26a5,5,0,1,1,10,.77l-4.16,53.27A5,5,0,0,1,315.3,413.55Z"/><path class="cls-1" d="M407.09,63.31H393.42a5,5,0,0,1,0-10h13.67a5,5,0,0,1,0,10Z"/><path class="cls-1" d="M407.09,115.57H393.42a5,5,0,0,1,0-10h13.67a5,5,0,0,1,0,10Z"/><path class="cls-1" d="M407.09,89.44H393.42a5,5,0,0,1,0-10h13.67a5,5,0,0,1,0,10Z"/><path class="cls-1" d="M112.62,63.31H98.4a5,5,0,0,1,0-10h14.22a5,5,0,0,1,0,10Z"/><path class="cls-1" d="M112.62,115.57H98.4a5,5,0,0,1,0-10h14.22a5,5,0,0,1,0,10Z"/><path class="cls-1" d="M112.62,89.44H98.4a5,5,0,0,1,0-10h14.22a5,5,0,0,1,0,10Z"/><path class="cls-1" d="M251.64,171.74a5,5,0,0,1,5-5h0a5,5,0,0,1,5,5h0a5,5,0,0,1-5,5h0A5,5,0,0,1,251.64,171.74Zm0-20a5,5,0,0,1,5-5h0a5,5,0,0,1,5,5h0a5,5,0,0,1-5,5h0A5,5,0,0,1,251.64,151.74Zm0-20a5,5,0,0,1,5-5h0a5,5,0,0,1,5,5h0a5,5,0,0,1-5,5h0A5,5,0,0,1,251.64,131.74Z"/></g></svg>