<?xml version="1.0" ?><svg viewBox="0 0 512 512" xmlns="http://www.w3.org/2000/svg"><defs><style>.cls-1{fill:#3f456b;}</style></defs><title/><g id="Lines"><path class="cls-1" d="M475,151a4.66,4.66,0,0,1-1.16-.14,5,5,0,0,1-3.7-6l15.66-65.5c-27.51-24.84-30.17-54.2-30.38-57.41a3.86,3.86,0,0,0-.45-1.17,4,4,0,0,0-.43,1.17c-.18,3.16-2.53,32.59-30.13,57.6l15.46,65.32a5,5,0,0,1-9.74,2.3L414,78.91a5,5,0,0,1,1.62-5c27.33-23.34,28.93-52.37,28.95-52.66a2.83,2.83,0,0,1,0-.29c.5-5.1,4.22-10.27,10.35-10.28h0c6.37,0,9.86,5.26,10.4,10.16,0,.1,0,.2,0,.3,0,.28,1.91,29.35,29.21,52.57a5,5,0,0,1,1.63,5l-16.37,68.42A5,5,0,0,1,475,151Z"/><path class="cls-1" d="M455.25,85.32a5,5,0,0,1-5-5l-.16-64.77a5,5,0,0,1,5-5h0a5,5,0,0,1,5,5l.16,64.76a5,5,0,0,1-5,5Z"/><path class="cls-1" d="M455.31,107.54a16.1,16.1,0,1,1,11.39-4.71A16,16,0,0,1,455.31,107.54Zm0-22.2a6.11,6.11,0,1,0,4.32,1.79A6.08,6.08,0,0,0,455.31,85.34Z"/><path class="cls-1" d="M455,501.37c-21.18,0-27.68-19.48-28.16-29.77L411.39,155.9a2,2,0,0,1,0-.25A14.67,14.67,0,0,1,426,141H485.9a14.66,14.66,0,0,1,14.65,14.65,2.53,2.53,0,0,1,0,.28L483.17,471.62C482.67,481.92,476.16,501.37,455,501.37ZM421.38,155.55l15.44,315.57c.11,2.07,1.57,20.25,18.18,20.25,17,0,18.14-19.41,18.18-20.24v0l17.37-315.55A4.66,4.66,0,0,0,485.9,151H426A4.66,4.66,0,0,0,421.38,155.55Z"/><path class="cls-1" d="M206,484H17a5,5,0,0,1-5-5V15a5,5,0,0,1,5-5H384a5,5,0,0,1,5,5V374.5a5,5,0,0,1-10,0V20H22V474H206a5,5,0,0,1,0,10Z"/><path class="cls-1" d="M223,501c-6.94,0-12.43-2.11-16.35-6.26-5.78-6.13-5.74-14.3-5.68-15.86V433.27c0-21.81,6.41-39.16,19.05-51.54,15.36-15.06,35.58-18.47,44.93-19.23V351a5,5,0,0,1,10,0v16.29a5,5,0,0,1-5.1,5c-.26,0-25.75-.22-42.9,16.64-10.6,10.44-16,25.35-16,44.34V479a2.71,2.71,0,0,1,0,.29s-.19,5.29,3,8.64c1.95,2,5,3.07,9,3.07l176-1c3.48,0,6-.87,7.64-2.58,2.55-2.73,2.38-7,2.38-7.08s0-.23,0-.34V433.27c0-19-5.4-34-16.05-44.4-17.25-16.9-42.57-16.58-42.83-16.58a5,5,0,0,1-5.1-5V351a5,5,0,0,1,10,0v11.5c9.34.76,29.56,4.17,44.93,19.23C412.57,394.11,419,411.46,419,433.27v46.6c.07,1.52.11,8.84-5.06,14.37-3.57,3.82-8.59,5.76-14.92,5.76Z"/><path class="cls-1" d="M357,356H264a15,15,0,0,1-15-15V328a15,15,0,0,1,15-15h93a15,15,0,0,1,15,15v13A15,15,0,0,1,357,356Zm-93-33a5,5,0,0,0-5,5v13a5,5,0,0,0,5,5h93a5,5,0,0,0,5-5V328a5,5,0,0,0-5-5Z"/><path class="cls-1" d="M353.3,323a5,5,0,0,1-5-5V298a5,5,0,0,0-5-5H277.7a5,5,0,0,0-5,5v20a5,5,0,0,1-10,0V298a15,15,0,0,1,15-15h65.6a15,15,0,0,1,15,15v20A5,5,0,0,1,353.3,323Z"/><path class="cls-1" d="M366,470H254a5,5,0,0,1-5-5V402a5,5,0,0,1,5-5H366a5,5,0,0,1,5,5v63A5,5,0,0,1,366,470ZM259,460H361V407H259Z"/></g><g id="Outline"><path class="cls-1" d="M343,438H277a5,5,0,0,1,0-10h66a5,5,0,0,1,0,10Z"/><path class="cls-1" d="M336,196H64a5,5,0,0,1,0-10H336a5,5,0,0,1,0,10Z"/><path class="cls-1" d="M336,165H64a5,5,0,0,1,0-10H336a5,5,0,0,1,0,10Z"/><path class="cls-1" d="M336,228H64a5,5,0,0,1,0-10H336a5,5,0,0,1,0,10Z"/><path class="cls-1" d="M240,292H64a5,5,0,0,1,0-10H240a5,5,0,0,1,0,10Z"/><path class="cls-1" d="M336,261H64a5,5,0,0,1,0-10H336a5,5,0,0,1,0,10Z"/><path class="cls-1" d="M161,324H64a5,5,0,0,1,0-10h97a5,5,0,0,1,0,10Z"/><path class="cls-1" d="M161,389H64a5,5,0,0,1,0-10h97a5,5,0,0,1,0,10Z"/><path class="cls-1" d="M161,421H64a5,5,0,0,1,0-10h97a5,5,0,0,1,0,10Z"/><path class="cls-1" d="M336,100H144a5,5,0,0,1,0-10H336a5,5,0,0,1,0,10Z"/><path class="cls-1" d="M336,69H277a5,5,0,0,1,0-10h59a5,5,0,0,1,0,10Z"/><path class="cls-1" d="M336,132H144a5,5,0,0,1,0-10H336a5,5,0,0,1,0,10Z"/><path class="cls-1" d="M122,69H64a5,5,0,0,1,0-10h58a5,5,0,0,1,0,10Z"/><path class="cls-1" d="M92.12,132a5,5,0,0,1-5-5V64.66a5,5,0,0,1,10,0V127A5,5,0,0,1,92.12,132Z"/></g></svg>