<?xml version="1.0" ?><svg viewBox="0 0 512 512" xmlns="http://www.w3.org/2000/svg"><defs><style>.cls-1{fill:#3f456b;}</style></defs><title/><g id="Lines"><path class="cls-1" d="M39.74,476.85a5,5,0,0,1-3.53-8.53L175.51,329a5,5,0,1,1,7.07,7.07L43.28,475.39A5,5,0,0,1,39.74,476.85Z"/><path class="cls-1" d="M96.45,502.24c-1.13,0-2.26,0-3.4-.07a87.17,87.17,0,0,1-58-25.93C2.25,443.43.27,392,30.65,361.65,44.94,347.36,65.81,338.77,91,336.81a157.72,157.72,0,0,1,69.69,11,5,5,0,0,1,2.9,3.12c13.48,42.48,16.89,98.85-14,129.71h0C135.64,494.64,116.86,502.24,96.45,502.24Zm5.29-155.8c-24.56,0-48.3,6.56-64,22.28-26.48,26.48-24.5,71.54,4.4,100.45,14.06,14.05,32.29,22.23,51.34,23,18.89.77,36.34-5.84,49.11-18.61h0c12.16-12.17,19.32-30.74,20.68-53.72,1.16-19.41-1.85-41.91-8.47-63.63A151.76,151.76,0,0,0,101.74,346.44Z"/><path class="cls-1" d="M60.73,485.9c-10.45,0-19.29-3.28-25.68-9.66-9.36-9.36-12-24-7.51-41.22,4.26-16.28,14.54-33.16,28.93-47.55,32-32,75.79-43.14,103-40a5,5,0,0,1,4.42,4.87c.58,29.62-9.64,72.09-40,102.47h0c-14.39,14.39-31.27,24.67-47.55,28.93A61.26,61.26,0,0,1,60.73,485.9ZM150.13,357c-25.56,0-61.12,12.1-86.59,37.58-26,26-35.84,60.21-21.42,74.63,6.75,6.74,18,8.49,31.61,4.91,14.59-3.82,29.87-13.17,43-26.33h0c26.66-26.66,36.56-63.46,37.09-90.7C152.63,357,151.39,357,150.13,357Z"/><path class="cls-1" d="M250.17,375.16c-23.62,0-46.65-11.05-68.48-32.89L168.36,329h0c-22.65-22.66-33.68-46.58-32.77-71.09,1.33-35.72,27.56-59.62,30.06-61.82l42.17-42.17c.87-.86,21.13-20.58,42.54-12.54,15.22,5.72,21.19-.26,28.74-7.83l6.73-6.73c7.57-7.55,13.54-13.52,7.83-28.74-8-21.41,11.68-41.67,12.52-42.52l17.38-17.38c2.17-2.48,25.42-28,60.49-29.3,24.54-.94,48.56,10.19,71.42,33.05l13.3,13.31c22.86,22.86,34,46.91,33.13,71.48-1.26,35.16-26.71,58.5-29.13,60.65L455.4,204.69c-.72.71-14.85,14.46-31.89,14.46a30.07,30.07,0,0,1-10.66-1.92c-15.21-5.71-21.18.26-28.73,7.83l-6.73,6.73c-7.57,7.55-13.55,13.52-7.83,28.73,8,21.42-11.68,41.68-12.53,42.53l-42.19,42.2c-2.16,2.44-26.18,28.6-62,29.86C252,375.15,251.06,375.16,250.17,375.16Zm-74.73-53.28,13.32,13.32c20.58,20.58,42,30.64,63.63,29.92,32.39-1.09,54.81-26.33,55-26.58l.24-.25L349.94,296c.14-.14,16-16.57,10.26-32-8-21.25,2.05-31.28,10.12-39.33l4-4h0L377,218c8-8.06,18.07-18.1,39.33-10.12,15.49,5.82,31.81-10.11,32-10.27l17.46-17.47.27-.24c.24-.21,24.74-21.93,25.83-53.68.74-21.65-9.42-43.17-30.21-63.95L448.4,49c-20.81-20.81-42.33-30.94-64-30.13C352.67,20,331.22,44.55,331,44.8l-.25.27L313.27,62.56c-.13.14-16,16.57-10.25,32,8,21.25-2.06,31.28-10.13,39.33l-6.71,6.72c-8.06,8.06-18.08,18.1-39.33,10.12-15.49-5.82-31.82,10.11-32,10.27L172.6,203.23l-.27.25c-.25.22-25.59,22.54-26.75,54.85-.77,21.59,9.28,43,29.86,63.55Z"/><path class="cls-1" d="M398,154.07A41.28,41.28,0,1,1,427.18,142,41.2,41.2,0,0,1,398,154.07Zm0-72.58a31.29,31.29,0,1,0,22.14,9.15A31.21,31.21,0,0,0,398,81.49Z"/><path class="cls-1" d="M467.55,224.74a11,11,0,0,1-7.94-3.17l-13.92-13.92a5,5,0,0,1,7.07-7.07l13.93,13.92a1.8,1.8,0,0,0,1.41.17,7.22,7.22,0,0,0,3.74-2.08l4.25-4.25c2.2-2.2,2.41-4.66,1.91-5.15l-13.92-13.93a5,5,0,0,1,7.07-7.07l13.92,13.92c4.87,4.88,4,13.36-1.91,19.3l-4.25,4.25A16.37,16.37,0,0,1,467.55,224.74Z"/><path class="cls-1" d="M341.61,445.29c-7.26,0-14-3.07-20.06-9.12s-9.05-12.78-8.94-20c.18-11.88,8.9-20.62,9.86-21.55L474.29,242.78c4.36-4.37,6.48-8.81,6.31-13.2-.27-6.91-6-12-6.08-12.06a5,5,0,1,1,6.49-7.6c.37.32,9.14,7.92,9.58,19.26.29,7.3-2.82,14.25-9.23,20.67L329.5,401.7l-.1.11c-.06,0-6.71,6.51-6.79,14.54-.05,4.42,2,8.71,6,12.75s8.48,6.19,13,6.19h0c8,0,14.32-6.28,14.38-6.35l70.61-70.6c7.27-7.28,25.35-16.72,41.72-.36.22.23,21.07,21.69-.13,42.89l-41,41a5,5,0,1,1-7.07-7.07l41-41c14.23-14.23.7-28.17.12-28.76-13.11-13.1-26.14-1-27.59.38L363.09,436c-.33.34-9.18,9.23-21.34,9.29ZM326,398.17h0Z"/><path class="cls-1" d="M261.28,210.89a5,5,0,0,1-3.53-8.53l.78-.78a5,5,0,0,1,7.07,7.07l-.78.78A5,5,0,0,1,261.28,210.89Z"/><path class="cls-1" d="M281.56,231.17a5,5,0,0,1-3.54-8.54l.78-.78a5,5,0,1,1,7.07,7.07l-.78.78A5,5,0,0,1,281.56,231.17Z"/><path class="cls-1" d="M301.83,251.44a5,5,0,0,1-3.53-8.53l.78-.78a5,5,0,1,1,7.07,7.07l-.78.78A5,5,0,0,1,301.83,251.44Z"/></g><g id="Outline"><path class="cls-1" d="M316.93,341.09a5,5,0,0,1-3.54-1.47L171.26,197.5a5,5,0,0,1,7.07-7.08L320.46,332.55a5,5,0,0,1-3.53,8.54Z"/></g></svg>