<?xml version="1.0" ?><svg id="Lines" viewBox="0 0 512 512" xmlns="http://www.w3.org/2000/svg"><defs><style>.cls-1{fill:#3f456b;}</style></defs><title/><path class="cls-1" d="M257.32,500.78c-32.37,0-60.68-4.67-86.55-14.3a5,5,0,0,1,3.49-9.37c24.73,9.2,51.9,13.67,83.06,13.67a5,5,0,0,1,0,10Z"/><path class="cls-1" d="M257.32,500.78a5,5,0,1,1,0-10c32.23,0,62.84-6,91-17.85a230,230,0,0,0,62.43-39.3,234.2,234.2,0,0,0,45.43-53.5l-86.49-73.31a5,5,0,1,1,6.47-7.63l89.65,76a5,5,0,0,1,1.2,6.12c-.64,1.23-16.07,30.37-49.67,59.84C386.31,468.35,333.38,500.78,257.32,500.78Z"/><path class="cls-1" d="M115.6,253.3h-.32c-18.49-1.16-33-16.29-33-34.45a34.63,34.63,0,0,1,29.27-34,5,5,0,0,1,1.65,9.86,24.66,24.66,0,0,0-20.92,24.16c0,12.89,10.37,23.64,23.59,24.47a5,5,0,0,1-.3,10Z"/><path class="cls-1" d="M394.31,253.3a5,5,0,0,1-.31-10c13.23-.83,23.59-11.58,23.59-24.47a24.65,24.65,0,0,0-20.91-24.16,5,5,0,1,1,1.65-9.86,34.62,34.62,0,0,1,29.26,34c0,18.16-14.48,33.29-33,34.45Z"/><path class="cls-1" d="M196.63,209.89l.05-.13-9.36-3.52c.17-.45,4.4-11.24,20.68-11.24,12.78,0,19.23,6.53,21,10.39L220,209.61l.06.14c-.1-.2-2.7-4.75-12-4.75C198.93,205,196.72,209.69,196.63,209.89Z"/><path class="cls-1" d="M292.63,209.89l.05-.13-9.36-3.52c.17-.45,4.4-11.24,20.68-11.24,12.78,0,19.23,6.53,21,10.39L316,209.61l.06.14c-.1-.2-2.7-4.75-12-4.75C294.93,205,292.72,209.69,292.63,209.89Z"/><path class="cls-1" d="M394.31,213H368a5,5,0,0,1-5-5V163.52c-24.53-17.16-68.76-14-128.18,9.14C191,189.75,162.29,178.94,149,170.9v36.6a5,5,0,0,1-5,5H115.59a5,5,0,0,1,0-10H139V161a5,5,0,0,1,8.54-3.54c1.13,1.11,28.7,27.3,83.64,5.88,45-17.53,105.74-32.85,139.89-6.29A5,5,0,0,1,373,161v42h21.31a5,5,0,0,1,0,10Z"/><path class="cls-1" d="M122.83,278.35a5,5,0,0,1-4.71-3.31,145.23,145.23,0,0,1-8.56-49.32V182.47a145.54,145.54,0,0,1,6.49-43.12,5,5,0,1,1,9.55,3,135.61,135.61,0,0,0-6,40.16v43.25a135.19,135.19,0,0,0,8,45.93,5,5,0,0,1-4.7,6.7Z"/><path class="cls-1" d="M254.6,370.94a143.84,143.84,0,0,1-60-13,5,5,0,1,1,4.15-9.1,135.14,135.14,0,0,0,191-123.16l-.09-43.24A129.9,129.9,0,0,0,350.09,88.8c-25-24.38-59-39.14-95.82-41.56C222.74,45.17,191.93,49.7,167.52,60c-31.91,13.48-43,32.09-46.7,45.33-7.33,26.26,11.9,40.46,12.1,40.6a5,5,0,1,1-5.84,8.12c-8.71-6.27-23.24-25.08-15.9-51.4,6.15-22,24.29-40,52.45-51.86,25.81-10.91,58.24-15.72,91.29-13.54,39.19,2.58,75.47,18.34,102.16,44.39a139.85,139.85,0,0,1,42.55,100.82l.09,43.24A145.1,145.1,0,0,1,254.6,370.94Z"/><path class="cls-1" d="M76.94,489A65,65,0,0,1,22.41,459.2C3.62,430.44,10.16,392,37.29,371.79a5,5,0,0,1,6,8c-22.91,17.1-28.4,49.57-12.49,73.93a55,55,0,0,0,52.08,24.91,5,5,0,0,1,1.06,9.94A65.44,65.44,0,0,1,76.94,489Z"/><path class="cls-1" d="M86,502.52a5,5,0,0,1-4.91-4.09l-7-37.52a5,5,0,1,1,9.84-1.82l6,32.58,122.79-23.36L180.3,297.66,57.51,321l11.4,59a5,5,0,1,1-9.82,1.9L46.74,318a5,5,0,0,1,4-5.86l132.63-25.22a5,5,0,0,1,5.85,4l34.32,180.48a5,5,0,0,1-4,5.84L86.91,502.43A4.91,4.91,0,0,1,86,502.52Z"/><path class="cls-1" d="M81.47,465.08A46,46,0,0,1,42.9,444c-13.84-21.18-8.24-49.43,12.49-63h0a44.09,44.09,0,0,1,34-6.1,46.59,46.59,0,0,1,35.45,54.25,44.21,44.21,0,0,1-43.36,35.87ZM60.86,389.43C44.75,400,40.45,422,51.27,438.56a36.11,36.11,0,0,0,22.49,15.66,34.24,34.24,0,0,0,41.26-27,36.59,36.59,0,0,0-27.81-42.55,34.19,34.19,0,0,0-26.35,4.71Z"/><path class="cls-1" d="M309,424a4.43,4.43,0,0,1-.81-.07,5,5,0,0,1-3.31-2.1l-37-54a5,5,0,0,1,8.24-5.66l34,49.66C331.31,395.34,347,377,347,328a5,5,0,0,1,10,0c0,56.64-20.38,76.53-45,95A5,5,0,0,1,309,424Z"/><path class="cls-1" d="M207.82,418a4.92,4.92,0,0,1-2.82-.88,5,5,0,0,1-1.3-6.95l32.18-47a5,5,0,1,1,8.24,5.66l-32.17,47A5,5,0,0,1,207.82,418Z"/><path class="cls-1" d="M256,444a5,5,0,0,1-1.75-.32c-1-.36-23.67-9-48.47-29.85a5,5,0,0,1,6.44-7.66,182.26,182.26,0,0,0,44,27.52c23.66-7.9,42.76-27.15,42.95-27.35a5,5,0,1,1,7.14,7c-.88.9-21.91,22.16-48.82,30.44A4.9,4.9,0,0,1,256,444Z"/><path class="cls-1" d="M233.8,432.75a5.39,5.39,0,0,1-1-.09,5,5,0,0,1-3.94-5.87l5.8-29.69c-5.63-8.86-6.63-20.17-6.67-20.68a5,5,0,1,1,10-.84h0c0,.1,1,10.71,6,17.42a5,5,0,0,1,.91,4l-6.21,31.75A5,5,0,0,1,233.8,432.75Z"/><path class="cls-1" d="M278.69,432.75a5,5,0,0,1-4.9-4L267.58,397a5,5,0,0,1,1.26-4.38c6-6.39,6.16-15.51,6.16-15.6a5,5,0,0,1,5-5h0a5,5,0,0,1,5,5c0,.49-.09,11.38-7.14,20.41l5.74,29.38a5,5,0,0,1-4,5.87A5.28,5.28,0,0,1,278.69,432.75Z"/><path class="cls-1" d="M272,401H240a5,5,0,0,1,0-10h32a5,5,0,0,1,0,10Z"/><path class="cls-1" d="M344.21,484.47a4.86,4.86,0,0,1-1.79-.34,5,5,0,0,1-2.88-6.46l57.79-150.46a5,5,0,1,1,9.34,3.58L348.88,481.26A5,5,0,0,1,344.21,484.47Z"/><path class="cls-1" d="M289.5,498.8a5,5,0,0,1-4.66-6.81L318,406.69a5,5,0,0,1,9.32,3.62l-33.17,85.3A5,5,0,0,1,289.5,498.8Z"/><path class="cls-1" d="M46,400a5,5,0,0,1-4.79-3.56l-27-89.75a5,5,0,0,1,3.34-6.23l129.24-39a5,5,0,0,1,6.24,3.34l9.26,30.69a5,5,0,0,1-9.57,2.89l-7.82-25.9L25.18,308.59l25.61,85a5,5,0,0,1-3.35,6.23A5.12,5.12,0,0,1,46,400Z"/><path class="cls-1" d="M83.58,367.55a5,5,0,0,1-4.92-4.07l-5-26.1a5,5,0,0,1,4-5.85l72.84-13.85a5,5,0,0,1,5.84,4l5,26.11a5,5,0,0,1-4,5.85L84.51,367.46A4.88,4.88,0,0,1,83.58,367.55Zm.88-27.13,3.09,16.28,63-12-3.1-16.28Z"/><path class="cls-1" d="M33,304.75a5,5,0,0,1-5-5V44a5,5,0,0,1,5-5H206.5a5,5,0,0,1,0,10H38V299.75A5,5,0,0,1,33,304.75Z"/><path class="cls-1" d="M479,397H454.72a5,5,0,0,1,0-10H474V49H270a5,5,0,0,1,0-10H479a5,5,0,0,1,5,5V392A5,5,0,0,1,479,397Z"/><path class="cls-1" d="M477,165.25H393a5,5,0,0,1,0-10h84a5,5,0,0,1,0,10Z"/><path class="cls-1" d="M116.34,165.25H33a5,5,0,0,1,0-10h83.34a5,5,0,1,1,0,10Z"/><path class="cls-1" d="M478,281.5H385.26a5,5,0,0,1,0-10H478a5,5,0,0,1,0,10Z"/><path class="cls-1" d="M110,281.5H33a5,5,0,0,1,0-10h77a5,5,0,0,1,0,10Z"/><path class="cls-1" d="M67.29,165a5,5,0,0,1-5-5V76a5,5,0,0,1,10,0v84A5,5,0,0,1,67.29,165Z"/><path class="cls-1" d="M101.57,165a5,5,0,0,1-5-5V76a5,5,0,0,1,10,0v84A5,5,0,0,1,101.57,165Z"/><path class="cls-1" d="M133.24,81H33a5,5,0,0,1,0-10H133.24a5,5,0,0,1,0,10Z"/><path class="cls-1" d="M444.71,165a5,5,0,0,1-5-5V76a5,5,0,0,1,10,0v84A5,5,0,0,1,444.71,165Z"/><path class="cls-1" d="M410.43,165a5,5,0,0,1-5-5V76a5,5,0,0,1,5-5H477a5,5,0,0,1,0,10H415.43v79A5,5,0,0,1,410.43,165Z"/><path class="cls-1" d="M67.29,281a5,5,0,0,1-5-5V190a5,5,0,1,1,10,0v86A5,5,0,0,1,67.29,281Z"/><path class="cls-1" d="M478,195H394.72a5,5,0,0,1,0-10H478a5,5,0,0,1,0,10Z"/><path class="cls-1" d="M114.28,195H33a5,5,0,0,1,0-10h81.28a5,5,0,0,1,0,10Z"/><path class="cls-1" d="M101.57,281a5,5,0,0,1-5-5V243.9a5,5,0,0,1,10,0V276A5,5,0,0,1,101.57,281Z"/><path class="cls-1" d="M478.71,281a5,5,0,0,1-5-5V190a5,5,0,0,1,10,0v86A5,5,0,0,1,478.71,281Z"/><path class="cls-1" d="M444.43,281a5,5,0,0,1-5-5V190a5,5,0,0,1,10,0v86A5,5,0,0,1,444.43,281Z"/><path class="cls-1" d="M410.14,281a5,5,0,0,1-5-5V244a5,5,0,0,1,10,0v32A5,5,0,0,1,410.14,281Z"/><path class="cls-1" d="M478,311H369.51a5,5,0,0,1,0-10H478a5,5,0,0,1,0,10Z"/><path class="cls-1" d="M478.71,397a5,5,0,0,1-5-5V306a5,5,0,0,1,10,0v86A5,5,0,0,1,478.71,397Z"/><path class="cls-1" d="M444.43,367.33a5,5,0,0,1-5-5V306a5,5,0,0,1,10,0v56.33A5,5,0,0,1,444.43,367.33Z"/><path class="cls-1" d="M410.14,338a5,5,0,0,1-5-5V306a5,5,0,0,1,10,0v27A5,5,0,0,1,410.14,338Z"/><path class="cls-1" d="M479,49a5,5,0,0,1-5-5V20H38V44a5,5,0,0,1-10,0V15a5,5,0,0,1,5-5H479a5,5,0,0,1,5,5V44A5,5,0,0,1,479,49Z"/></svg>