<?xml version="1.0" ?><svg viewBox="0 0 512 512" xmlns="http://www.w3.org/2000/svg"><defs><style>.cls-1{fill:#3f456b;}</style></defs><title/><g id="Lines"><path class="cls-1" d="M256,500A245,245,0,0,1,82.76,81.76,245,245,0,1,1,429.24,428.24,243.37,243.37,0,0,1,256,500Zm0-480A235,235,0,0,0,89.83,421.17,235,235,0,1,0,422.17,88.83,233.44,233.44,0,0,0,256,20Z"/><path class="cls-1" d="M256,326.05a69,69,0,1,1,69-69A69.07,69.07,0,0,1,256,326.05Zm0-128a59,59,0,1,0,59,59A59.07,59.07,0,0,0,256,198.05Z"/><path class="cls-1" d="M256,287.05a30,30,0,1,1,30-30A30,30,0,0,1,256,287.05Zm0-50a20,20,0,1,0,20,20A20,20,0,0,0,256,237.05Z"/><g data-name="&lt;编组&gt;" id="_编组_"><path class="cls-1" d="M152.18,440a5,5,0,0,1-2.52-.68A210.91,210.91,0,0,1,45,257.05c0-.38,0-.77,0-1.15a5,5,0,0,1,5-4.85H192a5,5,0,0,1,5,5.15c0,.28,0,.57,0,.85a59.33,59.33,0,0,0,28.76,50.67,5,5,0,0,1,1.76,6.79l-71,123a5,5,0,0,1-3.05,2.32A4.57,4.57,0,0,1,152.18,440ZM55,261.05a200.83,200.83,0,0,0,95.36,167l66.09-114.47a69.46,69.46,0,0,1-29.37-52.57Z"/><path class="cls-1" d="M224.05,206.58a5.13,5.13,0,0,1-1.29-.17,5,5,0,0,1-3-2.33l-71-123a5,5,0,0,1,1.83-6.83,211.24,211.24,0,0,1,210.16-.44,5,5,0,0,1,1.84,6.84l-71,123a5,5,0,0,1-6.77,1.86,59.12,59.12,0,0,0-58.2.4A5,5,0,0,1,224.05,206.58ZM159.9,80.47,226,194.91a69.18,69.18,0,0,1,59.27-.38l66.1-114.47a201.3,201.3,0,0,0-191.44.41Z"/><path class="cls-1" d="M360.68,439.5a5.31,5.31,0,0,1-1-.09l-2.43-.49a5,5,0,0,1-3.36-2.4L283.73,315a5,5,0,0,1,1.82-6.83A59.19,59.19,0,0,0,315,257.05c0-.28,0-.57,0-.85a5,5,0,0,1,5-5.15h142A5,5,0,0,1,467,255.9c0,.38,0,.76,0,1.15A210.88,210.88,0,0,1,363.22,438.8,5,5,0,0,1,360.68,439.5ZM294.79,314.12l66.08,114.43A200.9,200.9,0,0,0,457,261.05H324.88A69.29,69.29,0,0,1,294.79,314.12Z"/></g></g><g id="Outline"><path class="cls-1" d="M256.23,365.47a99.6,99.6,0,0,1-36.35-6.81,5,5,0,1,1,3.64-9.32,90.39,90.39,0,0,0,64.84.23,5,5,0,1,1,3.57,9.34A99.68,99.68,0,0,1,256.23,365.47Z"/><path class="cls-1" d="M256.23,398.47a132.36,132.36,0,0,1-48.56-9.15,5,5,0,0,1,3.65-9.31,123.46,123.46,0,0,0,92.79-1.2A5,5,0,0,1,308,388,132.13,132.13,0,0,1,256.23,398.47Z"/><path class="cls-1" d="M256.23,430.47a164.09,164.09,0,0,1-61.11-11.69,5,5,0,1,1,3.7-9.29,155.56,155.56,0,0,0,119.41-1.91,5,5,0,1,1,4,9.16A163.9,163.9,0,0,1,256.23,430.47Z"/><path class="cls-1" d="M256.23,462.47A195.83,195.83,0,0,1,179.55,447a5,5,0,1,1,3.9-9.21,187.59,187.59,0,0,0,150.21-2,5,5,0,1,1,4.15,9.1A195.45,195.45,0,0,1,256.23,462.47Z"/><path class="cls-1" d="M356.69,245.85a5,5,0,0,1-4.94-4.25,90.47,90.47,0,0,0-32.22-56.27,5,5,0,1,1,6.3-7.76,100.46,100.46,0,0,1,35.81,62.53,5,5,0,0,1-4.95,5.75Z"/><path class="cls-1" d="M389.35,241.09a5,5,0,0,1-4.93-4.26A123.5,123.5,0,0,0,337,157.08a5,5,0,0,1,6-8,133.46,133.46,0,0,1,51.3,86.24,5,5,0,0,1-4.2,5.69A4.74,4.74,0,0,1,389.35,241.09Z"/><path class="cls-1" d="M421.13,237.2a5,5,0,0,1-4.94-4.28,155.61,155.61,0,0,0-61.36-102.46,5,5,0,1,1,5.93-8.05,165.63,165.63,0,0,1,65.33,109.07,5,5,0,0,1-4.23,5.67A6.11,6.11,0,0,1,421.13,237.2Z"/><path class="cls-1" d="M453.33,236.47a5,5,0,0,1-4.95-4.38A187.57,187.57,0,0,0,371.5,103a5,5,0,0,1,5.81-8.14,197.55,197.55,0,0,1,81,136,5,5,0,0,1-4.35,5.57A4.21,4.21,0,0,1,453.33,236.47Z"/><path class="cls-1" d="M154.33,245.85a5,5,0,0,1-5-5.75,100.46,100.46,0,0,1,35.81-62.53,5,5,0,1,1,6.3,7.76,90.47,90.47,0,0,0-32.22,56.27A5,5,0,0,1,154.33,245.85Z"/><path class="cls-1" d="M121.67,241.09a5,5,0,0,1-5-5.75A133.57,133.57,0,0,1,168,149.1a5,5,0,1,1,6,8,123.54,123.54,0,0,0-47.44,79.75A5,5,0,0,1,121.67,241.09Z"/><path class="cls-1" d="M89.88,237.2a5.94,5.94,0,0,1-.72,0,5,5,0,0,1-4.23-5.67,165.52,165.52,0,0,1,65.33-109.07,5,5,0,1,1,5.93,8.05A155.5,155.5,0,0,0,94.83,232.92,5,5,0,0,1,89.88,237.2Z"/><path class="cls-1" d="M57.69,236.47a4.21,4.21,0,0,1-.62,0,5,5,0,0,1-4.35-5.57,197.55,197.55,0,0,1,81-136,5,5,0,1,1,5.8,8.14A187.6,187.6,0,0,0,62.64,232.09,5,5,0,0,1,57.69,236.47Z"/></g></svg>