<?xml version="1.0" ?><svg viewBox="0 0 512 512" xmlns="http://www.w3.org/2000/svg"><defs><style>.cls-1{fill:#3f456b;}</style></defs><title/><g id="Lines"><path class="cls-1" d="M184.34,362.7c-13.28,0-31.65-4.7-46.76-26l-28.93,18.14c-5.82,3.65-10.52,2.15-12.8.93a12.9,12.9,0,0,1-4.59-4.19l-26-41.51c-4.68-7.46.21-14.3,4.63-17.07l28.92-18.14c-13.32-24-9.55-43.17-3.77-55.29a61.2,61.2,0,0,1,17.41-21.71C201.9,130.06,334,40,335.36,39.13A5,5,0,1,1,341,47.4c-1.32.9-133.29,90.81-222.56,158.47l-.11.07c-1.42,1-34.81,26-8.52,67.92a5,5,0,0,1-1.58,6.9l-33,20.72c-1.12.74-2.33,1.94-1.48,3.29l26,41.43c1.08,1.49,2.39,1,3.65.18l33-20.72a5,5,0,0,1,6.89,1.57c10.6,16.9,24.41,25.47,41,25.47h.44a52.73,52.73,0,0,0,22.31-5.27l.11-.06C307,296.45,445.35,216.79,446.73,216a5,5,0,1,1,5,8.66c-1.38.8-140,80.57-239.95,131.61a62.82,62.82,0,0,1-26.92,6.44Zm-84.6-16.42h0Z"/><path class="cls-1" d="M455.07,234.64a4.71,4.71,0,0,1-.74-.06,5,5,0,0,1-3.49-2.28L328.63,37.45a5,5,0,0,1,2.25-7.24l43.63-18.89a5,5,0,0,1,6.22,1.93L495.29,195.9a5,5,0,0,1-1,6.44l-36,31.08A5,5,0,0,1,455.07,234.64ZM340.19,37.07l116,185,28.33-24.47L374.54,22.2Z"/><path class="cls-1" d="M139,334.89a5,5,0,0,1-4.24-2.34l-33.48-53.37a5,5,0,0,1,8.48-5.32l33.47,53.37a5,5,0,0,1-1.58,6.9A4.93,4.93,0,0,1,139,334.89Z"/><path class="cls-1" d="M496,500H16a5,5,0,0,1-5-5V431a5,5,0,0,1,4.42-5c2.41-.28,243.33-27.74,481.16,0a5,5,0,0,1,4.42,5v64A5,5,0,0,1,496,500ZM21,490H491V435.46c-217.54-24.75-436.41-3.53-470,0Z"/><path class="cls-1" d="M69.66,431.15h0c-6.15,0-21.7-1.39-33.28-13.53-8.95-9.4-13.11-22.81-12.36-39.84,2.12-47.52,45.51-67.76,47.35-68.6a5,5,0,0,1,4.15,9.1h0c-.4.19-39.67,18.65-41.5,59.94-.64,14.21,2.6,25.15,9.6,32.5,9.17,9.62,22.28,10.42,26.07,10.43a5,5,0,0,1,0,10Z"/><path class="cls-1" d="M439.15,430.29a30.72,30.72,0,0,1-4.1-.25,5,5,0,0,1,1.39-9.91c2.34.32,9.34.42,13.28-2.86,2-1.69,3.11-4.15,3.29-7.53.69-13.17-11-14.6-13.3-14.75l-.39,0c-13.56-1.85-27.46-3.4-42.49-4.72-86.25-7.59-179.45-6.62-284.95,2.94l-.22,0C99,394.34,69.17,397.05,67,374.48c-1-10.28,3-19.54,11.38-26.8A45.4,45.4,0,0,1,91.12,340a5,5,0,0,1,3.44,9.39h0c-.78.29-19.18,7.32-17.58,24.15.59,6.26,5.07,12.3,33.78,9.7l.22,0c106.09-9.62,199.88-10.58,286.73-2.94,15.13,1.33,29.13,2.88,42.8,4.75a28.81,28.81,0,0,1,11.33,3.51c7.7,4.37,11.66,12.09,11.15,21.73-.32,6.18-2.72,11.28-6.93,14.75C450.64,429.47,443.58,430.29,439.15,430.29Z"/><path class="cls-1" d="M220.65,351a5,5,0,0,1-4.24-2.34L121.24,197a5,5,0,1,1,8.48-5.32l95.16,151.73a5,5,0,0,1-1.58,6.89A4.93,4.93,0,0,1,220.65,351Z"/><path class="cls-1" d="M401.15,252.54a5,5,0,0,1-4.24-2.35L288.71,77.69a5,5,0,1,1,8.47-5.31l108.2,172.5a5,5,0,0,1-1.58,6.89A4.94,4.94,0,0,1,401.15,252.54Z"/><path class="cls-1" d="M192,231.63h-.1a5,5,0,0,1-4.9-5.09c.27-14.31,5.94-25.52,16-31.57,9.79-5.9,19.71-4.36,28.47-3,5.89.91,11.45,1.77,16.75.55a24.66,24.66,0,0,0,12.25-6.77,33.73,33.73,0,0,1-5.71-1.62c-8.37-3.22-13.81-9.75-14.92-17.91-1.35-9.91,2.1-18.61,9.22-23.27a19,19,0,0,1,20.14-.53c7.39,4.5,10.95,13.66,9.78,25.13a47.71,47.71,0,0,1-1.42,7.65c8.17-1.94,17.36-6.35,26.41-14a5,5,0,1,1,6.45,7.64c-11.86,10-25.32,16.05-37.59,17.33a35.3,35.3,0,0,1-22.37,16.09c-7.18,1.65-14,.6-20.52-.42-8.1-1.26-15.1-2.34-21.78,1.69-9.4,5.67-11,17-11.13,23.19A5,5,0,0,1,192,231.63Zm67.6-81.86a9.42,9.42,0,0,0-5.11,1.54c-3.86,2.53-5.61,7.48-4.78,13.56.78,5.77,5.11,8.59,8.6,9.93a25.84,25.84,0,0,0,8.22,1.57,35.78,35.78,0,0,0,2.46-9.84c.76-7.48-1.07-13.15-5-15.56A8.35,8.35,0,0,0,259.58,149.77Z"/><path class="cls-1" d="M249,334.35a5,5,0,0,1-4.29-2.42l-31-51.34a5,5,0,0,1,1.76-6.91l120-70a5,5,0,0,1,6.7,1.58l35,53.5a5,5,0,0,1-8.36,5.48l-32.4-49.53-111.51,65,28.4,47a5,5,0,0,1-1.69,6.87A5.06,5.06,0,0,1,249,334.35Z"/><path class="cls-1" d="M16.33,469A5,5,0,0,1,16,459c1-.07,100.47-7,241-7s238.36,6.45,239.33,6.51a5,5,0,1,1-.66,10c-1-.07-98.49-6.49-238.67-6.49s-239.33,6.92-240.31,7Z"/><path class="cls-1" d="M449,356.69a5,5,0,0,1-5-5V296a5,5,0,0,1,10,0v55.66A5,5,0,0,1,449,356.69Z"/><path class="cls-1" d="M449,356.56a5,5,0,0,1-3.53-1.47L419,328.69a5,5,0,1,1,7.07-7.07L449,344.49l22.87-22.87a5,5,0,1,1,7.07,7.07l-26.4,26.4A5,5,0,0,1,449,356.56Z"/><path class="cls-1" d="M51.08,154.87a5,5,0,0,1-4.19-2.26L20,111.65c-6.21-9.45-8.32-18.87-6.28-28,3.2-14.34,15.69-22.5,17-23.29L97.49,16.5c9.46-6.2,18.87-8.32,28-6.28,14.33,3.21,22.5,15.7,23.28,17l26.86,40.91A5,5,0,0,1,174.19,75L53.82,154A5,5,0,0,1,51.08,154.87ZM36,68.85c-.15.09-10.2,6.48-12.53,17.07-1.4,6.35.25,13.16,4.9,20.24l24.15,36.78,112-73.55L140.37,32.61l-.08-.13c-.06-.09-6.45-10.18-17.07-12.52-6.35-1.39-13.16.26-20.24,4.9L36.11,68.77Zm-2.62-4.26h0Z"/></g><g id="Outline"><path class="cls-1" d="M341.72,284.79a5,5,0,0,1-4.28-2.41l-21.13-34.83a5,5,0,1,1,8.55-5.18L346,277.2a5,5,0,0,1-1.68,6.86A4.89,4.89,0,0,1,341.72,284.79Z"/><path class="cls-1" d="M311,301a5,5,0,0,1-4.3-2.45L287,265.29a5,5,0,0,1,8.61-5.1l19.72,33.26a5,5,0,0,1-1.75,6.85A4.93,4.93,0,0,1,311,301Z"/><path class="cls-1" d="M281,317a5,5,0,0,1-4.28-2.41l-19-31.48a5,5,0,0,1,8.56-5.17l19,31.47A5,5,0,0,1,281,317Z"/><path class="cls-1" d="M117.93,347.9a5,5,0,0,1-4.24-2.35L80.22,292.18a5,5,0,1,1,8.47-5.31l33.47,53.37a5,5,0,0,1-1.58,6.89A4.94,4.94,0,0,1,117.93,347.9Z"/></g></svg>