<?xml version="1.0" ?><svg enable-background="new 0 0 512 512" id="图层_1" version="1.1" viewBox="0 0 512 512" xml:space="preserve" xmlns="http://www.w3.org/2000/svg" xmlns:xlink="http://www.w3.org/1999/xlink"><title/><g><g><path d="M445.718,101c-1.423,0-2.836-0.604-3.825-1.776c-4.383-5.197-10.457-8.722-17.102-9.926    c-1.367-0.248-2.57-1.054-3.319-2.224c-0.749-1.171-0.978-2.6-0.63-3.946c1.014-3.928,1.528-7.996,1.528-12.091    c0-26.583-21.626-48.209-48.208-48.209c-19.911,0-38.03,12.5-45.088,31.106c-0.633,1.668-2.106,2.873-3.867,3.161    c-1.762,0.289-3.541-0.384-4.673-1.763c-4.481-5.461-11.093-8.594-18.14-8.594c-12.936,0-23.46,10.517-23.46,23.444    c0,1.874,0.214,3.67,0.655,5.489c0.327,1.352,0.077,2.779-0.69,3.938c-0.769,1.16-1.984,1.947-3.357,2.173    c-9.879,1.625-18.663,7.841-23.497,16.625c-1.332,2.419-4.37,3.302-6.792,1.97c-2.419-1.332-3.301-4.372-1.97-6.791    c5.496-9.986,14.91-17.425,25.772-20.57c-0.081-0.942-0.121-1.888-0.121-2.834c0-18.441,15.01-33.444,33.46-33.444    c7.472,0,14.598,2.466,20.388,6.928c10.009-18.704,29.824-30.839,51.38-30.839c32.096,0,58.208,26.112,58.208,58.209    c0,3.25-0.27,6.487-0.803,9.674c6.951,2.243,13.207,6.419,17.97,12.066c1.78,2.111,1.513,5.265-0.599,7.046    C448,100.613,446.855,101,445.718,101z" fill="#3F456B"/></g></g><g><g><path d="M496,501H16c-2.762,0-5-2.239-5-5s2.238-5,5-5h480c2.762,0,5,2.239,5,5S498.762,501,496,501z" fill="#3F456B"/></g></g><g><g><path d="M257,501H49c-2.762,0-5-2.239-5-5V129c0-2.761,2.238-5,5-5h208c2.762,0,5,2.239,5,5v367    C262,498.761,259.762,501,257,501z M54,491h198V134H54V491z" fill="#3F456B"/></g></g><g><g><path d="M257.001,485.501c-2.007,0-3.9-1.217-4.666-3.202c-0.994-2.577,0.289-5.471,2.866-6.464    c13.943-5.378,22.843-15.948,28.008-33.264c7.318-24.54,3.129-49.678-12.116-72.696c-13.204-19.937-34.059-37.566-58.721-49.641    c-17.761-8.696-37.638-15.28-56.86-21.648c-37.83-12.531-76.947-25.49-105.367-55.502C16.956,208.034,12,160.273,12,134.923V96    c0-2.761,2.238-5,5-5h49c2.762,0,5,2.239,5,5s-2.238,5-5,5H22v33.923c0,23.862,4.6,68.751,35.406,101.285    c26.69,28.187,64.594,40.743,101.25,52.885c19.539,6.473,39.743,13.166,58.112,22.159c50.4,24.676,93.453,75.734,76.022,134.177    c-6.038,20.245-17.156,33.243-33.992,39.736C258.208,485.393,257.6,485.501,257.001,485.501z" fill="#3F456B"/></g></g><g><g><g><path d="M152.556,207.922c-0.209,0-0.419-0.003-0.629-0.01c-2.76-0.084-4.93-2.389-4.846-5.149     c0.085-2.761,2.357-4.943,5.15-4.846c2.221,0.068,4.373-0.585,5.91-1.79c0.747-0.586,2.01-1.839,2.064-3.65     c0.056-1.814-1.128-3.142-1.838-3.772c-1.461-1.295-3.571-2.078-5.79-2.146c-5.849-0.177-9.095,1.813-9.618,5.919     c-0.35,2.738-2.835,4.682-5.592,4.328c-2.739-0.349-4.677-2.853-4.328-5.592c1.194-9.373,8.8-14.99,19.843-14.65     c4.587,0.14,8.893,1.795,12.122,4.66c3.435,3.047,5.328,7.259,5.197,11.557c-0.131,4.295-2.278,8.385-5.893,11.217     C161.066,206.54,156.914,207.922,152.556,207.922z" fill="#3F456B"/></g></g><g><g><path d="M151.265,234.605c-8.426,0-13.236-3.136-15.788-5.767c-3.255-3.356-4.961-8.05-4.803-13.218     c0.085-2.76,2.363-4.917,5.151-4.845c2.76,0.084,4.929,2.391,4.845,5.15c-0.054,1.726,0.248,4.159,1.985,5.95     c1.731,1.785,4.709,2.729,8.609,2.729c6.679,0,11.264-3.219,11.409-8.01c0.063-2.056-0.902-4.076-2.718-5.687     c-2.071-1.837-4.923-2.901-8.029-2.996c-2.76-0.084-4.93-2.389-4.846-5.149c0.085-2.761,2.357-4.917,5.15-4.846     c5.441,0.165,10.541,2.123,14.36,5.511c4.075,3.615,6.233,8.399,6.078,13.473C172.352,227.324,163.55,234.605,151.265,234.605z" fill="#3F456B"/></g></g></g><g><g><path d="M49,134H17c-2.762,0-5-2.239-5-5s2.238-5,5-5h32c2.762,0,5,2.239,5,5S51.762,134,49,134z" fill="#3F456B"/></g></g><g><g><path d="M48,166H19c-2.762,0-5-2.239-5-5s2.238-5,5-5h29c2.762,0,5,2.239,5,5S50.762,166,48,166z" fill="#3F456B"/></g></g><g><g><path d="M48,197H26c-2.762,0-5-2.239-5-5s2.238-5,5-5h22c2.762,0,5,2.239,5,5S50.762,197,48,197z" fill="#3F456B"/></g></g><g><g><path d="M284,396h-26c-2.762,0-5-2.239-5-5s2.238-5,5-5h26c2.762,0,5,2.239,5,5S286.762,396,284,396z" fill="#3F456B"/></g></g><g><g><path d="M284,459h-26c-2.762,0-5-2.239-5-5s2.238-5,5-5h26c2.762,0,5,2.239,5,5S286.762,459,284,459z" fill="#3F456B"/></g></g><g><g><path d="M291,428h-33c-2.762,0-5-2.239-5-5s2.238-5,5-5h33c2.762,0,5,2.239,5,5S293.762,428,291,428z" fill="#3F456B"/></g></g><g><g><path d="M41,134c-2.762,0-5-2.239-5-5V96c0-2.761,2.238-5,5-5s5,2.239,5,5v33C46,131.761,43.762,134,41,134z" fill="#3F456B"/></g></g><g><g><path d="M496,501H377c-2.762,0-5-2.239-5-5s2.238-5,5-5h114V134H377c-2.762,0-5-2.239-5-5s2.238-5,5-5h119    c2.762,0,5,2.239,5,5v367C501,498.761,498.762,501,496,501z" fill="#3F456B"/></g></g><g><g><path d="M424.072,234.001c-0.581,0-1.172-0.102-1.748-0.317c-2.587-0.966-3.901-3.847-2.935-6.434L434.795,186H411    c-2.762,0-5-2.239-5-5s2.238-5,5-5h31c1.639,0,3.174,0.803,4.107,2.149c0.935,1.346,1.15,3.065,0.576,4.6l-17.927,48    C428.007,232.76,426.1,234.001,424.072,234.001z" fill="#3F456B"/></g></g><g><g><path d="M300.016,235.028c-4.724,0-8.408-0.574-9.262-0.719c-2.723-0.462-4.556-3.043-4.094-5.766    c0.461-2.72,3.04-4.557,5.759-4.095l0,0c4.275,0.713,16.554,1.56,21.97-3.028c1.781-1.509,2.611-3.511,2.611-6.3    c0-2.804-0.839-4.827-2.64-6.367c-5.434-4.647-17.715-3.926-21.989-3.256c-1.441,0.227-2.917-0.189-4.028-1.14    c-1.11-0.95-1.753-2.337-1.753-3.799v-19.416c0-2.761,2.238-5,5-5H322c2.762,0,5,2.239,5,5s-2.238,5-5,5h-25.41v8.918    c6.67-0.315,17.419,0.248,24.252,6.077c4.028,3.437,6.158,8.272,6.158,13.983c0,5.716-2.133,10.539-6.168,13.947    C315.079,233.928,306.553,235.028,300.016,235.028z" fill="#3F456B"/></g></g><g><g><path d="M377,501H256.5c-2.762,0-5-2.239-5-5s2.238-5,5-5H372V134H258c-2.762,0-5-2.239-5-5s2.238-5,5-5h119    c2.762,0,5,2.239,5,5v367C382,498.761,379.762,501,377,501z" fill="#3F456B"/></g></g><g><g><g><path d="M242.75,133.667c-2.762,0-5-2.239-5-5V96c0-2.761,2.238-5,5-5s5,2.239,5,5v32.667     C247.75,131.428,245.512,133.667,242.75,133.667z" fill="#3F456B"/></g></g><g><g><path d="M65,133.667c-2.762,0-5-2.239-5-5V96c0-2.761,2.238-5,5-5s5,2.239,5,5v32.667     C70,131.428,67.762,133.667,65,133.667z" fill="#3F456B"/></g></g><g><g><path d="M94,134c-2.762,0-5-2.239-5-5V96c0-2.761,2.238-5,5-5s5,2.239,5,5v33C99,131.761,96.762,134,94,134z" fill="#3F456B"/></g></g><g><g><path d="M123.75,134c-2.762,0-5-2.239-5-5V96c0-2.761,2.238-5,5-5s5,2.239,5,5v33     C128.75,131.761,126.512,134,123.75,134z" fill="#3F456B"/></g></g><g><g><path d="M153.5,134c-2.762,0-5-2.239-5-5V96c0-2.761,2.238-5,5-5s5,2.239,5,5v33     C158.5,131.761,156.262,134,153.5,134z" fill="#3F456B"/></g></g><g><g><path d="M183.25,134c-2.762,0-5-2.239-5-5V96c0-2.761,2.238-5,5-5s5,2.239,5,5v33     C188.25,131.761,186.012,134,183.25,134z" fill="#3F456B"/></g></g><g><g><path d="M213,134c-2.762,0-5-2.239-5-5V96c0-2.761,2.238-5,5-5s5,2.239,5,5v33C218,131.761,215.762,134,213,134z" fill="#3F456B"/></g></g><g><g><path d="M361.75,133.667c-2.762,0-5-2.239-5-5V96c0-2.761,2.238-5,5-5s5,2.239,5,5v32.667     C366.75,131.428,364.512,133.667,361.75,133.667z" fill="#3F456B"/></g></g><g><g><path d="M272.5,134c-2.762,0-5-2.239-5-5V96c0-2.761,2.238-5,5-5s5,2.239,5,5v33     C277.5,131.761,275.262,134,272.5,134z" fill="#3F456B"/></g></g><g><g><path d="M302.25,134c-2.762,0-5-2.239-5-5V96c0-2.761,2.238-5,5-5s5,2.239,5,5v33     C307.25,131.761,305.012,134,302.25,134z" fill="#3F456B"/></g></g><g><g><path d="M332,134c-2.762,0-5-2.239-5-5V96c0-2.761,2.238-5,5-5s5,2.239,5,5v33C337,131.761,334.762,134,332,134z" fill="#3F456B"/></g></g><g><g><path d="M480,133.667c-2.762,0-5-2.239-5-5V101H65c-2.762,0-5-2.239-5-5s2.238-5,5-5h415c2.762,0,5,2.239,5,5     v32.667C485,131.428,482.762,133.667,480,133.667z" fill="#3F456B"/></g></g><g><g><path d="M391.5,134c-2.762,0-5-2.239-5-5V96c0-2.761,2.238-5,5-5s5,2.239,5,5v33     C396.5,131.761,394.262,134,391.5,134z" fill="#3F456B"/></g></g><g><g><path d="M421.25,134c-2.762,0-5-2.239-5-5V96c0-2.761,2.238-5,5-5s5,2.239,5,5v33     C426.25,131.761,424.012,134,421.25,134z" fill="#3F456B"/></g></g><g><g><path d="M451,134c-2.762,0-5-2.239-5-5V96c0-2.761,2.238-5,5-5s5,2.239,5,5v33C456,131.761,453.762,134,451,134z" fill="#3F456B"/></g></g></g><g><g><path d="M257,207.4h-56.667c-2.762,0-5-2.239-5-5s2.238-5,5-5H257c2.762,0,5,2.239,5,5S259.762,207.4,257,207.4z" fill="#3F456B"/></g><g><path d="M104.667,207.4H49c-2.762,0-5-2.239-5-5s2.238-5,5-5h55.667c2.762,0,5,2.239,5,5    S107.429,207.4,104.667,207.4z" fill="#3F456B"/></g><g><path d="M257,354.2H49c-2.762,0-5-2.239-5-5s2.238-5,5-5h208c2.762,0,5,2.239,5,5S259.762,354.2,257,354.2z" fill="#3F456B"/></g><g><path d="M257,280.8H49c-2.762,0-5-2.239-5-5s2.238-5,5-5h208c2.762,0,5,2.239,5,5S259.762,280.8,257,280.8z" fill="#3F456B"/></g><g><path d="M257,427.6H49c-2.762,0-5-2.239-5-5s2.238-5,5-5h208c2.762,0,5,2.239,5,5S259.762,427.6,257,427.6z" fill="#3F456B"/></g></g><g><g><path d="M377,207.4h-28c-2.762,0-5-2.239-5-5s2.238-5,5-5h28c2.762,0,5,2.239,5,5S379.762,207.4,377,207.4z" fill="#3F456B"/></g><g><path d="M377,354.2H256c-2.762,0-5-2.239-5-5s2.238-5,5-5h121c2.762,0,5,2.239,5,5S379.762,354.2,377,354.2z" fill="#3F456B"/></g><g><path d="M377,280.8H256.5c-2.762,0-5-2.239-5-5s2.238-5,5-5H377c2.762,0,5,2.239,5,5S379.762,280.8,377,280.8z" fill="#3F456B"/></g><g><path d="M377,427.6H257.59c-2.762,0-5-2.239-5-5s2.238-5,5-5H377c2.762,0,5,2.239,5,5S379.762,427.6,377,427.6z" fill="#3F456B"/></g></g><g><g><path d="M496,207.4h-28c-2.762,0-5-2.239-5-5s2.238-5,5-5h28c2.762,0,5,2.239,5,5S498.762,207.4,496,207.4z" fill="#3F456B"/></g><g><path d="M496,354.2H377c-2.762,0-5-2.239-5-5s2.238-5,5-5h119c2.762,0,5,2.239,5,5S498.762,354.2,496,354.2z" fill="#3F456B"/></g><g><path d="M496,280.8H377c-2.762,0-5-2.239-5-5s2.238-5,5-5h119c2.762,0,5,2.239,5,5S498.762,280.8,496,280.8z" fill="#3F456B"/></g><g><path d="M496,427.6H377c-2.762,0-5-2.239-5-5s2.238-5,5-5h119c2.762,0,5,2.239,5,5S498.762,427.6,496,427.6z" fill="#3F456B"/></g></g></svg>