<?xml version="1.0" ?><svg viewBox="0 0 512 512" xmlns="http://www.w3.org/2000/svg"><defs><style>.cls-1{fill:#3f456b;}</style></defs><title/><g id="Lines"><path class="cls-1" d="M496,139H401.26c-8.46,0-15.26-2.62-20.23-7.79-8.11-8.43-8.07-20.64-8-22.09V17h10v92.39c0,.07-.22,9.27,5.28,14.93,3,3.11,7.38,4.68,13,4.68H496Z"/><path class="cls-1" d="M469.68,469H203.31a5,5,0,1,1,0-10H469.68c11.75,0,21.32-10.6,21.32-23.62V136.62c0-11.37-10.55-24.31-14.62-28.33-.67-.68-62.23-63.27-75-76.09A39.35,39.35,0,0,0,375.66,21H156.05A23.34,23.34,0,0,0,133,44V206a5,5,0,0,1-10,0V44c0-17.89,15.13-33,33.05-33H375.59a48.77,48.77,0,0,1,32.82,14.13c12.84,12.85,74.43,75.47,75,76.1S501,118.8,501,136.62V435.38C501,453.92,487,469,469.68,469Z"/><path class="cls-1" d="M218.22,389.71a5,5,0,0,1-3.22-8.82A97.64,97.64,0,1,0,54.46,306.2,99.73,99.73,0,0,0,87.58,380a5,5,0,0,1-6.7,7.42A109.71,109.71,0,0,1,44.46,306.2a107.64,107.64,0,1,1,177,82.33A5,5,0,0,1,218.22,389.71Z"/><path class="cls-1" d="M201.09,456.21H100.73A20,20,0,0,1,80.57,436v-50.3a5,5,0,0,1,5-5H216.13a5,5,0,0,1,5,5V436A19.92,19.92,0,0,1,201.09,456.21ZM90.57,390.67V436a10,10,0,0,0,10.16,10.24H201.09a9.92,9.92,0,0,0,10-10.24v-45.3Z"/><path class="cls-1" d="M151.06,500.5a65,65,0,0,1-41.92-14.77C98.27,476.59,92,464.61,92,452.86a5,5,0,0,1,10,0c0,21.54,25.88,37.64,49,37.64,29.74,0,48.15-19.54,48.15-37.64a5,5,0,0,1,10,0C209.21,475.77,187,500.5,151.06,500.5Z"/></g><g id="Outline"><path class="cls-1" d="M65.28,415.34a5,5,0,0,1-3.18-1.15l-.79-.66a5,5,0,1,1,6.42-7.67l.74.62a5,5,0,0,1-3.19,8.86ZM50.19,400.77a5,5,0,0,1-3.74-1.68l-.69-.78a5,5,0,0,1,7.53-6.58l.64.72a5,5,0,0,1-3.74,8.32ZM37.53,384.05a5,5,0,0,1-4.22-2.3l-.55-.86a5,5,0,0,1,8.45-5.36l.52.82a5,5,0,0,1-1.51,6.91A5,5,0,0,1,37.53,384.05ZM27.6,365.58a5,5,0,0,1-4.58-3l-.41-.95a5,5,0,0,1,9.18-4l.39.88a5,5,0,0,1-2.57,6.59A4.91,4.91,0,0,1,27.6,365.58Zm-6.92-19.8a5,5,0,0,1-4.83-3.73l-.26-1a5,5,0,0,1,9.69-2.49l.24.94a5,5,0,0,1-3.56,6.1A4.75,4.75,0,0,1,20.68,345.78Zm-3.74-20.64a5,5,0,0,1-5-4.49l-.1-1a5,5,0,0,1,10-.95l.09,1a5,5,0,0,1-4.47,5.48Zm-.5-21h-.26a5,5,0,0,1-4.73-5.26l.05-1a5,5,0,0,1,10,.6l-.06,1A5,5,0,0,1,16.44,304.17Zm2.73-20.79a5.35,5.35,0,0,1-1.05-.11,5,5,0,0,1-3.85-5.93l.22-1a5,5,0,0,1,9.77,2.13l-.21,1A5,5,0,0,1,19.17,283.38Zm5.92-20.13a5.14,5.14,0,0,1-1.79-.33,5,5,0,0,1-2.88-6.46l.38-1a5,5,0,0,1,9.31,3.63l-.35.91A5,5,0,0,1,25.09,263.25Zm9-18.95a4.91,4.91,0,0,1-2.49-.67,5,5,0,0,1-1.84-6.82l.52-.89a5,5,0,1,1,8.64,5l-.49.84A5,5,0,0,1,34.09,244.3ZM45.93,227A5,5,0,0,1,42,218.85l.65-.81a5,5,0,1,1,7.75,6.33l-.61.74A5,5,0,0,1,45.93,227ZM60.31,211.7a5,5,0,0,1-3.37-8.7l.77-.7a5,5,0,1,1,6.67,7.45l-.71.65A5,5,0,0,1,60.31,211.7Zm16.56-12.88a5,5,0,0,1-2.76-9.18l.86-.56a5,5,0,0,1,5.45,8.38l-.81.53A5,5,0,0,1,76.87,198.82Zm18.34-10.16a5,5,0,0,1-2.07-9.55l1-.43a5,5,0,0,1,4.06,9.14l-.87.39A4.89,4.89,0,0,1,95.21,188.66Z"/><path class="cls-1" d="M330.33,107H190a5,5,0,0,1,0-10H330.33a5,5,0,0,1,0,10Z"/><path class="cls-1" d="M330.33,155H190a5,5,0,0,1,0-10H330.33a5,5,0,0,1,0,10Z"/><path class="cls-1" d="M437,200H288a5,5,0,0,1,0-10H437a5,5,0,0,1,0,10Z"/><path class="cls-1" d="M437,248H289a5,5,0,0,1,0-10H437a5,5,0,0,1,0,10Z"/><path class="cls-1" d="M437,293H289a5,5,0,0,1,0-10H437a5,5,0,0,1,0,10Z"/><path class="cls-1" d="M437,341H289a5,5,0,0,1,0-10H437a5,5,0,0,1,0,10Z"/><path class="cls-1" d="M437,387H289a5,5,0,0,1,0-10H437a5,5,0,0,1,0,10Z"/><path class="cls-1" d="M162.49,390a5,5,0,0,1-5-5V329H146.15v56a5,5,0,0,1-10,0V329h-14a24.63,24.63,0,0,1-24.27-24.35,24.31,24.31,0,0,1,24.21-24.35,24,24,0,0,1,24.06,24V319h11.34V304.23a23.63,23.63,0,0,1,24-23.76,24.25,24.25,0,0,1-.13,48.5H167.49v56A5,5,0,0,1,162.49,390Zm5-71h13.87a14.45,14.45,0,0,0,14.18-14.35,14.12,14.12,0,0,0-14-14.15,13.73,13.73,0,0,0-14,13.76Zm-45.4-28.7a14.35,14.35,0,0,0,.06,28.7h14V304.22A14,14,0,0,0,122.09,290.27Z"/><path class="cls-1" d="M213.18,412.44H85.57a5,5,0,0,1,0-10H213.18a5,5,0,0,1,0,10Z"/><path class="cls-1" d="M213.18,433.79H85.57a5,5,0,0,1,0-10H213.18a5,5,0,0,1,0,10Z"/></g></svg>