<?xml version="1.0" ?><svg viewBox="0 0 512 512" xmlns="http://www.w3.org/2000/svg"><defs><style>.cls-1{fill:#3f456b;}</style></defs><title/><g id="Lines"><path class="cls-1" d="M445.88,224.09h0C431.54,224,418.11,221.21,407,216a63.36,63.36,0,0,1-7.34-4,43.2,43.2,0,0,1-31.53-2.2c-7.46-3.55-12.71-9-17.79-14.35-6.45-6.75-12-12.57-21.37-14-13.08-2-23.05,6.21-27.82,11.27a5,5,0,1,1-7.28-6.86c6.12-6.49,19-17,36.61-14.3,12.7,1.93,20.35,9.92,27.09,17,4.65,4.87,9,9.47,14.86,12.23a32.41,32.41,0,0,0,17.35,3.06,34.3,34.3,0,0,1-5.11-7.15c-4.2-8-3.93-16.19.76-23.12,6.15-9.08,15.63-13.61,25.36-12.11,8.29,1.29,15.07,6.89,17.26,14.28,1.47,5,2.11,14.88-10.08,25.78a52.21,52.21,0,0,1-7,5.3c8.93,4.27,20.74,7.23,34.94,7.31a5,5,0,0,1,0,10Zm-38.65-52.94c-3.42,0-8.92,1.24-13.49,8-2.6,3.84-2.66,8.16-.19,12.85a28.73,28.73,0,0,0,7.57,8.7A40.78,40.78,0,0,0,411.33,194c6-5.35,8.53-10.85,7.16-15.47-1.09-3.71-4.71-6.55-9.2-7.24A12.67,12.67,0,0,0,407.23,171.15Z"/><path class="cls-1" d="M412.92,415.85a37.21,37.21,0,0,1-9.61-1.27L33.47,315.31a38,38,0,0,1-26.59-46.7L64.26,54.88a37.79,37.79,0,0,1,46.3-26.7L480.4,127.45a37.69,37.69,0,0,1,26.41,46.22L449.43,387.4h0A38.39,38.39,0,0,1,432,410.54,37,37,0,0,1,412.92,415.85Zm-312.21-379a27.82,27.82,0,0,0-26.79,20.6L16.53,271.2a28,28,0,0,0,19.53,34.45l369.85,99.27a26.93,26.93,0,0,0,20.93-3,28.45,28.45,0,0,0,12.93-17.15h0l57.38-213.73a27.67,27.67,0,0,0-19.34-34L108,37.84A27.76,27.76,0,0,0,100.71,36.87ZM444.6,386.11h0Z"/><path class="cls-1" d="M236.42,369.81h0l-171-.08A38,38,0,0,1,27.6,331.51V310.59a5,5,0,0,1,5-5h0a5,5,0,0,1,5,5v20.92a28,28,0,0,0,27.78,28.21l171,.08a5,5,0,1,1,0,10Z"/><path class="cls-1" d="M450.28,369.84a5,5,0,0,1-.29-10c14.47-.88,25.82-13.24,25.83-28.14l0-80.8a5,5,0,0,1,5-5h0a5,5,0,0,1,5,5l0,80.8c0,20.17-15.49,36.92-35.23,38.11Z"/><path class="cls-1" d="M480.92,137.69h0a5,5,0,0,1-5-5V110.41A27.68,27.68,0,0,0,448.45,82.6l-173.32-.07a5,5,0,0,1,0-10h0l173.33.07a37.69,37.69,0,0,1,37.47,37.82V132.7A5,5,0,0,1,480.92,137.69Z"/><path class="cls-1" d="M32.67,195.25h0a5,5,0,0,1-5-5l0-80a37.87,37.87,0,0,1,35.35-37.7,5,5,0,0,1,.64,10,27.84,27.84,0,0,0-26,27.72l0,80A5,5,0,0,1,32.67,195.25Z"/><path class="cls-1" d="M448.33,468.9h0l-382.93-.17A38,38,0,0,1,27.6,430.51L27.71,328a5,5,0,0,1,5-5h0a5,5,0,0,1,5,5L37.6,430.52a28,28,0,0,0,27.78,28.21l382.94.17h0a26.92,26.92,0,0,0,19.44-8.28,28.4,28.4,0,0,0,8.05-19.91L475.93,325a5,5,0,0,1,5-5h0a5,5,0,0,1,5,5l-.11,105.72a38.37,38.37,0,0,1-10.88,26.87A36.86,36.86,0,0,1,448.33,468.9Z"/><path class="cls-1" d="M203.93,288.78a5,5,0,0,1-4.94-4.29,112.22,112.22,0,0,0-19.33-49.27,5,5,0,0,1,2.89-7.74,48.87,48.87,0,1,0-36.3-89.75A48.79,48.79,0,0,0,135,213.36a5,5,0,0,1-1.66,8,111.93,111.93,0,0,0-42.78,33,5,5,0,1,1-7.79-6.26A122.25,122.25,0,0,1,123.34,215a59,59,0,1,1,68.26,20.12,123,123,0,0,1,17.28,47.94,5,5,0,0,1-4.23,5.67A5.81,5.81,0,0,1,203.93,288.78Z"/><path class="cls-1" d="M164.14,298.49a102.11,102.11,0,1,1,98.63-75.68h0A102.26,102.26,0,0,1,164.14,298.49ZM164,104.26a92.11,92.11,0,1,0,89.1,116h0A92.08,92.08,0,0,0,188,107.44,92.87,92.87,0,0,0,164,104.26Zm93.93,117.26h0Z"/></g><g id="Outline"><path class="cls-1" d="M448.33,437h0l-382.93-.17a37.26,37.26,0,0,1-26.75-11.31,38.2,38.2,0,0,1-11-26.91,5,5,0,0,1,5-5h0a5,5,0,0,1,5,5,28.27,28.27,0,0,0,8.16,19.89,27.37,27.37,0,0,0,19.62,8.32l382.94.17h0c15.15,0,27.48-12.64,27.49-28.19a5,5,0,0,1,5-5h0a5,5,0,0,1,5,5C485.81,419.87,469,437,448.33,437Z"/><path class="cls-1" d="M364.43,404h0l-299-.13a37.26,37.26,0,0,1-26.75-11.31,38.2,38.2,0,0,1-11-26.91,5,5,0,0,1,5-5h0a5,5,0,0,1,5,5,28.27,28.27,0,0,0,8.16,19.89,27.37,27.37,0,0,0,19.62,8.32l299.05.13a5,5,0,1,1,0,10Z"/><path class="cls-1" d="M448.33,404h-9a5,5,0,0,1,0-10h9c15.15,0,27.48-12.64,27.49-28.19a5,5,0,0,1,5-5h0a5,5,0,0,1,5,5C485.81,386.87,469,404,448.33,404Z"/><path class="cls-1" d="M442.25,276.66a4.89,4.89,0,0,1-1.3-.17L286.09,235a5,5,0,1,1,2.59-9.66l154.86,41.49a5,5,0,0,1-1.29,9.83Z"/><path class="cls-1" d="M433.84,308.05a5.34,5.34,0,0,1-1.3-.17L277,266.21a5,5,0,1,1,2.59-9.66l155.51,41.67a5,5,0,0,1-1.29,9.83Z"/><path class="cls-1" d="M364.83,322.18a5.34,5.34,0,0,1-1.3-.17l-94-25.19a5,5,0,0,1,2.59-9.66l94,25.19a5,5,0,0,1-1.29,9.83Z"/></g></svg>