<?xml version="1.0" ?><svg viewBox="0 0 512 512" xmlns="http://www.w3.org/2000/svg"><defs><style>.cls-1{fill:#3f456b;}</style></defs><title/><g id="Lines"><path class="cls-1" d="M115,375a5,5,0,0,1-5-5v-1a5,5,0,0,1,10,0v1A5,5,0,0,1,115,375Z"/><path class="cls-1" d="M273,375a5,5,0,0,1-5-5v-1a5,5,0,0,1,10,0v1A5,5,0,0,1,273,375Z"/><path class="cls-1" d="M365.19,500H27a5,5,0,0,1-4.61-3.06c-15-35.5-.64-71.56,0-73.07a5,5,0,0,1,1.74-2.2C42,409,41.06,388.17,41,387.29a2.81,2.81,0,0,1,0-.29V307c0-9.42,4.33-22.28,25-30a82.5,82.5,0,0,1,13.22-3.65A136.18,136.18,0,0,1,47.4,205.94c-3.54-21.43-.94-36.67-.82-37.31a5,5,0,0,1,3-3.75c30.66-12.67,60.64-23.8,70.41-27.38V34A24.9,24.9,0,0,1,144.75,9h93.69C252.21,9,263,20,263,34V137.6c9.8,3.89,40.85,16.13,70.44,27.22a5,5,0,0,1,3.18,3.82c.11.64,2.68,15.88-.88,37.3a136.46,136.46,0,0,1-31.59,67.14C320.62,275.52,351,283.24,351,307v80a2.44,2.44,0,0,1,0,.27c0,.87-.81,21.74,17.09,34.4a5,5,0,0,1,1.74,2.2c.62,1.51,14.94,37.57,0,73.07A5,5,0,0,1,365.19,500ZM30.4,490H361.79c10-27.27,1.42-54.93-.76-61.1-20.56-15.51-20.13-39.63-20-42V307c0-22.11-47.08-25-47.56-25a5,5,0,0,1-3.3-8.53c40-40,38.14-88.39,37-100.34-34.8-13.09-70.58-27.33-71-27.47A5,5,0,0,1,253,141V34a14.63,14.63,0,0,0-14.56-15H144.75A14.72,14.72,0,0,0,130,34V141a5,5,0,0,1-3.3,4.7c-.35.13-34.61,12.52-70.61,27.31-1.19,11.75-3.3,60.3,36.86,100.45A5,5,0,0,1,89.7,282c-.38,0-38.7,2.57-38.7,25v79.87c.12,2.51.67,26.55-19.83,42C29,435.07,20.4,462.82,30.4,490Z"/><path class="cls-1" d="M259,147H124a5,5,0,0,1,0-10H259a5,5,0,0,1,0,10Z"/><path class="cls-1" d="M366,433H26a5,5,0,0,1,0-10H366a5,5,0,0,1,0,10Z"/><path class="cls-1" d="M294,282H89a5,5,0,0,1,0-10H294a5,5,0,0,1,0,10Z"/><path class="cls-1" d="M370,468H22a5,5,0,0,1,0-10H370a5,5,0,0,1,0,10Z"/><path class="cls-1" d="M121.1,224.48c-36.9,0-64.72-9.16-70.43-12.18a5,5,0,1,1,4.66-8.84c7.14,3.76,69.23,23.19,134-.91,65.44-24.36,139.12-1.08,142.23-.08a5,5,0,0,1-3.08,9.52c-.84-.27-73.59-23.18-135.66-.07A205.56,205.56,0,0,1,121.1,224.48Z"/><path class="cls-1" d="M191.41,409.1a41.31,41.31,0,1,1,41.3-41.31A41.35,41.35,0,0,1,191.41,409.1Zm0-72.62a31.31,31.31,0,1,0,31.3,31.31A31.34,31.34,0,0,0,191.41,336.48Z"/><path class="cls-1" d="M45,372H23A15,15,0,0,1,8,357V325a15,15,0,0,1,15-15H45a5,5,0,0,1,0,10H23a5,5,0,0,0-5,5v32a5,5,0,0,0,5,5H45a5,5,0,0,1,0,10Z"/><path class="cls-1" d="M369,372H347a5,5,0,0,1,0-10h22a5,5,0,0,0,5-5V325a5,5,0,0,0-5-5H347a5,5,0,0,1,0-10h22a15,15,0,0,1,15,15v32A15,15,0,0,1,369,372Z"/><path class="cls-1" d="M366,320a5,5,0,0,1-5-5V175a4.36,4.36,0,0,1,0-.51s.62-7.54-3.88-12.83c-2.83-3.33-7.26-5.24-13.17-5.67l-3.17-.23c-21.05-1.5-31.61-2.25-31.61-25.67a4.24,4.24,0,0,1,.05-.71c0-.22.7-7.33-6.81-15.7C291.52,101.51,263.83,87,193.92,87h-.83c-69.91,0-97.59,14.51-108.51,26.68-7.5,8.37-6.82,15.48-6.79,15.78a3.28,3.28,0,0,1,0,.63c0,23.52-10.69,24.29-32,25.82l-2.79.2c-5.94.44-10.38,2.35-13.21,5.68C25.36,167,26,174.45,26,174.52s0,.33,0,.48V315a5,5,0,0,1-10,0V175.2c-.13-1.92-.48-11.92,6.11-19.78,4.64-5.52,11.43-8.64,20.19-9.28l2.81-.2c9.51-.69,16.39-1.18,19.45-3.15,1.57-1,3.25-2.89,3.27-12.48-.18-2.28-.36-12.17,8.82-22.75C88.75,93.62,118.77,77,193.09,77h.83c41,0,94.52,5.3,116.45,30.56,9.19,10.58,9,20.47,8.83,22.75,0,9.53,1.66,11.39,3.2,12.39,3,1.94,9.77,2.42,19.13,3.08l3.18.23c8.75.64,15.52,3.76,20.15,9.28,6.63,7.9,6.28,18,6.14,19.91V315A5,5,0,0,1,366,320Z"/><path class="cls-1" d="M388.36,281.76a5.13,5.13,0,0,1-1.69-.29L316.1,256.05a5,5,0,1,1,3.39-9.41l65.86,23.72,7.45-20.7L327,225.94a5,5,0,0,1,3.38-9.41L400.9,242a5,5,0,0,1,3,6.4l-10.85,30.11a5,5,0,0,1-2.57,2.83A5.08,5.08,0,0,1,388.36,281.76Z"/><path class="cls-1" d="M489.5,500H409a5,5,0,0,1-5-4.74l-10-193a5,5,0,0,1,5-5.26H499a5,5,0,0,1,5,5.25l-9.5,193A5,5,0,0,1,489.5,500Zm-75.75-10h71l9-183H404.27Z"/><path class="cls-1" d="M459,307h-.15a5,5,0,0,1-4.85-5.14c.06-2.24,2-55.16,42.31-79.75a5,5,0,1,1,5.2,8.54c-35.61,21.72-37.5,71-37.51,71.5A5,5,0,0,1,459,307Z"/><path class="cls-1" d="M472.31,253.23a5.52,5.52,0,0,1-.71,0c-38.85-5.58-64.91-20-77.48-42.83-17.72-32.19-1.7-68.68-1-70.22a5,5,0,0,1,6-2.73c47.43,14.52,76,35.28,84.9,61.72,9.38,27.87-7,51.06-7.67,52A5,5,0,0,1,472.31,253.23ZM400.68,148.36c-3.34,9.8-9.91,35.24,2.24,57.24,10.65,19.29,33.14,31.8,66.87,37.19,3.44-6.09,10.91-22.41,4.73-40.6C466.93,179.83,442.09,161.74,400.68,148.36Z"/><path class="cls-1" d="M495,380H403a5,5,0,0,1,0-10h92a5,5,0,0,1,0,10Z"/><path class="cls-1" d="M470.16,252.91a5,5,0,0,1-4.82-3.69c-18.07-66.26-69.61-99.08-70.12-99.41a5,5,0,0,1,5.28-8.49c2.25,1.4,55.35,35.09,74.49,105.27a5,5,0,0,1-4.83,6.32Z"/></g><g id="Outline"><path class="cls-1" d="M469,471H445a5,5,0,0,1,0-10h24a5,5,0,0,1,0,10Z"/><path class="cls-1" d="M469,403H445a5,5,0,0,1,0-10h24a5,5,0,0,1,0,10Z"/><path class="cls-1" d="M461,447H445a5,5,0,0,1,0-10h16a5,5,0,0,1,0,10Z"/><path class="cls-1" d="M461,426H445a5,5,0,0,1,0-10h16a5,5,0,0,1,0,10Z"/><path class="cls-1" d="M469,336H445a5,5,0,0,1,0-10h24a5,5,0,0,1,0,10Z"/><path class="cls-1" d="M461,380H445a5,5,0,0,1,0-10h16a5,5,0,0,1,0,10Z"/><path class="cls-1" d="M461,359H445a5,5,0,0,1,0-10h16a5,5,0,0,1,0,10Z"/><path class="cls-1" d="M138,370.53h-.14a5,5,0,0,1-4.87-5.14,58.93,58.93,0,0,1,116-12.87,5,5,0,0,1-9.7,2.45,48.93,48.93,0,0,0-81.07-23.5A48.58,48.58,0,0,0,143,365.66,5,5,0,0,1,138,370.53Z"/></g></svg>