<?xml version="1.0" ?><svg viewBox="0 0 512 512" xmlns="http://www.w3.org/2000/svg"><defs><style>.cls-1{fill:#3f456b;}</style></defs><title/><g id="Lines"><path class="cls-1" d="M210.31,207.2c-7.17,0-30.87-1.86-44.37-25.3a5,5,0,1,1,8.66-5c12.5,21.7,36,20.32,37,20.26a5,5,0,0,1,.74,10C212.21,207.15,211.48,207.2,210.31,207.2Z"/><path class="cls-1" d="M301.8,207.18c-7.18,0-37-2-49-34.08a5,5,0,0,1,9.36-3.51c11,29.28,39.26,27.66,40.46,27.58a5,5,0,0,1,.74,10S302.78,207.18,301.8,207.18Z"/><path class="cls-1" d="M213.2,207.18c-1,0-1.54,0-1.58,0a5,5,0,0,1,.74-10h0c1.21.08,29.49,1.7,40.46-27.58a5,5,0,0,1,9.36,3.51C250.17,205.18,220.39,207.18,213.2,207.18Z"/><path class="cls-1" d="M304.68,207.2c-1.17,0-1.89,0-2.06-.06a5,5,0,1,1,.75-10c1,.07,23.05,1.34,35.79-18.25a5,5,0,0,1,8.38,5.46C333.82,205.48,311.56,207.2,304.68,207.2Z"/><path class="cls-1" d="M252.18,500.07c-37.43,0-73.73-10.9-102.2-30.68C118.78,447.7,98.45,416.77,91.21,380,75.65,300.88,120.58,239.17,164,179.49c16.7-22.94,32.47-44.6,45-67.17,16.2-29.27,34.56-62.45,42.13-97.84a5,5,0,0,1,9.78,0c6.91,32.32,23.6,62.35,39.73,91.39l3.58,6.45c12.5,22.59,28.29,44.26,45,67.2,43.42,59.61,88.32,121.25,72.77,200.29-7.24,36.81-27.67,67.75-59.09,89.48-28.62,19.8-65,30.71-102.49,30.71l-8.17.07ZM256,34.94c-9.29,29.78-24.56,57.38-38.31,82.22-12.79,23.12-29.48,46-45.62,68.22C129.93,243.32,86.31,303.24,101,378c6.73,34.22,25.64,63,54.67,83.15,26.81,18.63,61.07,28.89,96.48,28.9l8.18-.07c35.5,0,69.88-10.27,96.85-28.93,29.22-20.22,48.23-49,55-83.19,14.71-74.75-28.89-134.6-71.05-192.47-16.15-22.18-32.86-45.11-45.66-68.25-1.18-2.14-2.37-4.28-3.57-6.44C278.43,86.51,264.6,61.63,256,34.94Z"/></g><g id="Outline"><path class="cls-1" d="M180.57,423.09a5,5,0,0,1-3.54-8.53L329.3,262.28a5,5,0,1,1,7.08,7.07L184.1,421.63A5,5,0,0,1,180.57,423.09Z"/><path class="cls-1" d="M306.88,437.37A45.12,45.12,0,1,1,352,392.25h0a45.1,45.1,0,0,1-45.12,45.12Zm0-80.24A35.11,35.11,0,1,0,342,392.25h0A35.16,35.16,0,0,0,306.88,357.13Z"/><path class="cls-1" d="M209,339.49a45.12,45.12,0,1,1,45.12-45.12h0A45.14,45.14,0,0,1,209,339.49Zm0-80.24a35.11,35.11,0,1,0,35.12,35.12h0A35.13,35.13,0,0,0,209,259.25Z"/></g></svg>