<?xml version="1.0" ?><svg viewBox="0 0 512 512" xmlns="http://www.w3.org/2000/svg"><defs><style>.cls-1{fill:#3f456b;}</style></defs><title/><g id="Lines"><path class="cls-1" d="M192.83,357.07h-.3a32,32,0,0,1,.29-64h.3a32,32,0,0,1-.29,64Zm0-54a22,22,0,0,0-.2,44h.21a22,22,0,0,0,.2-44Z"/><g data-name="&lt;编组&gt;" id="_编组_"><path class="cls-1" d="M165.46,329.43h-.05l-53.65-.51a5,5,0,0,1-4.93-5.07,86.34,86.34,0,0,1,44-73.83,5,5,0,0,1,6.81,1.91l.31.56L184,299.07a5,5,0,0,1-8.73,4.88l-23.86-42.62A76.35,76.35,0,0,0,117.07,319l48.43.46a5,5,0,0,1,0,10Z"/><path class="cls-1" d="M273.83,330.44h-.39l-53.37-.5a5,5,0,0,1,.1-10l48.51.45a76.38,76.38,0,0,0-33-58.09l-24.6,41.76a5,5,0,1,1-8.61-5.08l26.44-44.89a5,5,0,0,1,7.41-3.22,86.32,86.32,0,0,1,42.5,74.59A5,5,0,0,1,273.83,330.44Z"/><path class="cls-1" d="M192.82,411.08H192a85.9,85.9,0,0,1-42.7-11.8,5,5,0,0,1-2-6.38l.41-.9a5.06,5.06,0,0,1,.24-.46L174.75,346a5,5,0,0,1,8.62,5.08L158.69,393a76.21,76.21,0,0,0,67.28.49l-24-42.17a5,5,0,1,1,8.69-4.95l26.14,46a5.05,5.05,0,0,1,.65,2.46v.89a5,5,0,0,1-2.55,4.38A86,86,0,0,1,192.82,411.08Z"/></g><path class="cls-1" d="M32.66,467.15A5,5,0,0,1,28.77,459c.26-.32,15.4-19.58,30.35-64.3C84.25,319.54,89.53,231.57,89.53,171a5,5,0,0,1,5-5H291.05a5,5,0,0,1,5,5c0,60.56,5.28,148.53,30.41,223.7,15,44.89,30.2,64.12,30.35,64.31A5,5,0,0,1,349,465.3c-.66-.81-16.22-20.34-31.79-66.6-25.1-74.55-30.89-161.32-31.19-222.69H99.52c-.3,61.37-6.09,148.14-31.19,222.69C52.76,445,37.2,464.49,36.54,465.3A5,5,0,0,1,32.66,467.15Z"/><path class="cls-1" d="M496.49,501H16.58a5,5,0,0,1-5-5V463.09a5,5,0,0,1,10,0V491h469.9l-.06-27.9a5,5,0,0,1,5-5h0a5,5,0,0,1,5,5l.07,32.91a5,5,0,0,1-1.46,3.54A5,5,0,0,1,496.49,501Z"/><path class="cls-1" d="M480.29,467.15a5,5,0,0,1-3.88-1.85c-.51-.63-12.59-15.8-24.63-51.56-19.19-57-23.74-123.21-24-170.41H293.67a5,5,0,0,1,0-10H432.74a5,5,0,0,1,5,5c0,46.41,4,113.82,23.25,171.42,11.47,34.39,23.09,49.12,23.2,49.27a5,5,0,0,1-3.9,8.13Z"/><path class="cls-1" d="M290.59,214.33H95a5,5,0,1,1,0-10h195.6a5,5,0,0,1,0,10Z"/><path class="cls-1" d="M433.26,281.42H298a5,5,0,0,1,0-10H433.26a5,5,0,0,1,0,10Z"/><path class="cls-1" d="M277,176a5,5,0,0,1-4.74-6.59c.38-1.14,8.77-27.54-17.27-38.59a5,5,0,0,1,1.73-9.6c1.61-.09,16-1.34,16.69-16.69a5,5,0,0,1,9.36-2.21c.47.8,12.58,20.61,55.14,18.9,41.74-1.67,47.28-33.59,47.5-34.95a5,5,0,0,1,6.43-4,70.33,70.33,0,0,0,15.52,2.59c7.13.34,16.75-.54,22.14-6.7a5,5,0,0,1,3.72-1.71A5,5,0,0,1,437,78.09c1,1.13,25.83,27.64,58,13.34a5,5,0,0,1,4.06,9.14c-16.12,7.16-33.28,6.69-49.61-1.36a75,75,0,0,1-16.22-10.9C421.14,97.46,402.8,95,394,93.12A53.93,53.93,0,0,1,385.71,109c-7.25,9.59-21.35,21.23-47.4,22.27-31.38,1.26-48.62-8.43-57.17-15.88a25.21,25.21,0,0,1-11.68,12.43c16.89,13.25,15.88,34.2,12.28,44.84A5,5,0,0,1,277,176Z"/><path class="cls-1" d="M109.55,176a5,5,0,0,1-4.58-3c-6-13.77-3.88-24-1-30.14a29,29,0,0,1,1.64-3A23.38,23.38,0,0,1,93.11,131c-3.94-5.59-4.57-12.13-4.33-17-13.89.38-34.14-4.26-40.88-24.49-5.38-16.14-1.9-28.17,2-35.42A37.14,37.14,0,0,1,60,41.93a5,5,0,0,1,5.83,8.12c-.71.53-16.41,12.43-8.44,36.35,3,8.9,9.77,14.5,20.22,16.65a50.63,50.63,0,0,0,16.21.52,5,5,0,0,1,5.61,6.31c0,.07-2.49,9.26,1.89,15.42,2.59,3.66,7.36,5.75,14.16,6.2a5,5,0,0,1,2.55,9.08c-.47.34-12.3,9.34-3.9,28.41a5,5,0,0,1-2.57,6.59A4.91,4.91,0,0,1,109.55,176Z"/><path class="cls-1" d="M413.67,243.34a4.85,4.85,0,0,1-1.44-.22,5,5,0,0,1-3.35-6.21c.07-.25,3.29-11.69-2.09-20.59-3.23-5.34-9.09-8.89-17.42-10.56a5,5,0,0,1-3.34-7.42c.44-.76,10.68-19-2.61-30a5,5,0,0,1,3.2-8.84c1.18,0,29.21-.44,32.35-25.47h0a5,5,0,0,1,9.92,1.25h0c-.5,4,4.43,11.73,9.16,16.18,14.61,13.74,39,10.95,56.71,2.1a5,5,0,1,1,4.48,8.94c-20.81,10.41-49.92,13.28-68-3.75A50.42,50.42,0,0,1,424,150c-6.5,11-17.88,16.28-27.58,18.37,5.64,9.76,4,21.14,1,29.17,8.12,2.71,14.16,7.3,18,13.69,7.67,12.79,3.25,27.9,3.06,28.54A5,5,0,0,1,413.67,243.34Z"/><path class="cls-1" d="M383.5,169.6c-6.58,0-20.72-1.23-31.06-10.78a5,5,0,0,1,6.78-7.35c10.28,9.49,26.75,8.05,26.91,8a5,5,0,0,1,1,9.95C386.91,169.47,385.58,169.6,383.5,169.6Z"/><path class="cls-1" d="M94.62,113.5a5,5,0,0,1-.83-9.93c.22,0,14.3-2.58,18.68-12.09a5,5,0,0,1,9.08,4.19c-6.63,14.37-25.31,17.63-26.1,17.76A4.73,4.73,0,0,1,94.62,113.5Z"/><path class="cls-1" d="M251.35,57.34C215.62,57.34,211,30,211,29.75a5,5,0,0,1,9.88-1.55c.15.85,3.65,19.14,30.53,19.14l1.71,0c29.13-.81,32.49-19,32.52-19.15a5,5,0,0,1,9.31-1.59c.39.68,10.2,17.33,36.25,15.16,18.61-1.56,22.58-16.61,22.62-16.76a5,5,0,1,1,9.7,2.43c-.22.9-5.83,22.15-31.49,24.29-20.78,1.74-33.45-6.54-40.06-13.05-4.66,7.8-15.21,18-38.58,18.66Z"/><path class="cls-1" d="M43.18,114.68c-19.86,0-30.25-15.77-30.39-16a5,5,0,0,1,8.41-5.42A28.46,28.46,0,0,0,31.59,102c8.91,4.36,19.22,3.35,30.65-3a5,5,0,1,1,4.86,8.74C58,112.8,50,114.68,43.18,114.68Z"/><path class="cls-1" d="M496,468H17a5,5,0,0,1,0-10H496a5,5,0,0,1,0,10Z"/></g><g id="Outline"><path class="cls-1" d="M142,58.66h-.15c-14.61-.06-23.13-8.5-25.09-16.84a5,5,0,0,1,9.74-2.29c1.46,6.24,9,9.11,15.39,9.13H142c5.77,0,13-2.24,14.56-8.59a5,5,0,0,1,9.72,2.37C163.87,52.3,154.36,58.66,142,58.66Z"/><path class="cls-1" d="M220,132.66h-.15c-14.61-.06-23.13-8.5-25.09-16.84a5,5,0,0,1,9.74-2.29c1.46,6.24,9,9.11,15.39,9.13H220c5.77,0,13-2.24,14.56-8.59a5,5,0,0,1,9.72,2.37C241.87,126.3,232.36,132.66,220,132.66Z"/><path class="cls-1" d="M434,58.66h-.15c-14.61-.06-23.13-8.5-25.09-16.84a5,5,0,0,1,9.74-2.29c1.46,6.24,9,9.11,15.39,9.13H434c5.77,0,13-2.24,14.56-8.59a5,5,0,0,1,9.72,2.37C455.87,52.3,446.36,58.66,434,58.66Z"/><path class="cls-1" d="M371,400.92a5,5,0,0,1-4.66-6.81l14-36.11h-26a5,5,0,0,1-4.64-6.87l17.15-42.58a5,5,0,0,1,9.28,3.73L361.77,348h25.86a5,5,0,0,1,4.67,6.81l-16.64,42.91A5,5,0,0,1,371,400.92Z"/><path class="cls-1" d="M28.49,337.11a5,5,0,0,1-4.72-3.36l-.33-1a5,5,0,0,1,9.45-3.26l.32.94a5,5,0,0,1-4.72,6.64Zm-6-20.11a5,5,0,0,1-4.85-3.77l-.25-1a5,5,0,0,1,9.71-2.41l.24.94a5,5,0,0,1-3.62,6.08A5.24,5.24,0,0,1,22.45,317Zm-4.24-20.56a5,5,0,0,1-4.94-4.21l-.15-1A5,5,0,1,1,23,289.69l.15,1A5,5,0,0,1,19,296.38,5.25,5.25,0,0,1,18.21,296.44Zm-2.38-20.86a5,5,0,0,1-5-4.66l-.06-.95a5,5,0,0,1,4.66-5.34,5,5,0,0,1,5.31,4.63v.06l.06.93a5,5,0,0,1-4.65,5.32Zm-.47-21h-.12a5,5,0,0,1-4.88-5.11l0-1a5,5,0,0,1,10,.27l0,1A5,5,0,0,1,15.36,254.6Zm1.41-20.95-.56,0a5,5,0,0,1-4.41-5.53l.12-1a5,5,0,0,1,9.93,1.17l-.11,1A5,5,0,0,1,16.77,233.65Zm3.29-20.74a5,5,0,0,1-4.9-6l.21-1A5,5,0,0,1,25.16,208l-.2.95A5,5,0,0,1,20.06,212.91Zm5.2-20.35a4.78,4.78,0,0,1-1.49-.23,5,5,0,0,1-3.29-6.26l.3-1a5,5,0,0,1,9.55,3l-.3,1A5,5,0,0,1,25.26,192.56Zm7.36-19.67a5,5,0,0,1-4.53-7.12l.49-1a5,5,0,0,1,8.94,4.49l-.37.78A5,5,0,0,1,32.62,172.89Z"/><path class="cls-1" d="M482.87,337.11a4.92,4.92,0,0,1-1.64-.28,5,5,0,0,1-3.09-6.36l.33-.94a5,5,0,0,1,9.45,3.26l-.33,1A5,5,0,0,1,482.87,337.11Zm6-20.11a5.17,5.17,0,0,1-1.23-.15,5,5,0,0,1-3.62-6.08l.24-.94a5,5,0,1,1,9.7,2.41l-.25,1A5,5,0,0,1,488.91,317Zm4.24-20.56a5.49,5.49,0,0,1-.8-.06,5,5,0,0,1-4.14-5.73l.15-1a5,5,0,1,1,9.88,1.53l-.16,1A5,5,0,0,1,493.15,296.44Zm2.37-20.86h-.34a5,5,0,0,1-4.65-5.32l.06-.93,5,.27,5,.38-.07.95A5,5,0,0,1,495.52,275.58Zm.48-21a5,5,0,0,1-5-4.89l0-1a5,5,0,0,1,10-.27l0,1a5,5,0,0,1-4.89,5.11Zm-1.42-20.95a5,5,0,0,1-5-4.45l-.11-1a5,5,0,0,1,9.93-1.17l.12,1a5,5,0,0,1-4.42,5.53A5.12,5.12,0,0,1,494.58,233.65Zm-3.29-20.74a5,5,0,0,1-4.89-4l-.2-.95A5,5,0,0,1,496,205.9l.2,1a5,5,0,0,1-4.9,6Zm-5.19-20.35a5,5,0,0,1-4.77-3.51l-.3-1a5,5,0,0,1,9.54-3l.3,1a5,5,0,0,1-3.28,6.26A4.87,4.87,0,0,1,486.1,192.56Zm-7.36-19.67a5,5,0,0,1-4.53-2.88c-.23-.49-.36-.76-.38-.79a5,5,0,0,1,8.94-4.48s.18.35.49,1a5,5,0,0,1-2.41,6.65A4.94,4.94,0,0,1,478.74,172.89Z"/></g></svg>