<?xml version="1.0" ?><svg viewBox="0 0 512 512" xmlns="http://www.w3.org/2000/svg"><defs><style>.cls-1{fill:#3f456b;}</style></defs><title/><g id="Lines"><path class="cls-1" d="M496,139H401.26c-8.46,0-15.26-2.62-20.23-7.79-8.11-8.43-8.07-20.65-8-22.09V17h10v92.39c0,.07-.22,9.27,5.28,14.93,3,3.11,7.38,4.68,13,4.68H496Z"/><path class="cls-1" d="M469.68,469H229a5,5,0,0,1,0-10H469.68c11.75,0,21.32-10.6,21.32-23.62V136.62c0-11.37-10.55-24.31-14.62-28.33-.67-.68-62.23-63.27-75-76.09A38.81,38.81,0,0,0,375.68,21H156.05A23.34,23.34,0,0,0,133,44V239a5,5,0,0,1-10,0V44c0-17.89,15.13-33,33.05-33H375.59a48.72,48.72,0,0,1,32.82,14.13c12.84,12.85,74.43,75.47,75,76.1S501,118.8,501,136.62V435.38C501,453.92,487,469,469.68,469Z"/><path class="cls-1" d="M144.24,500C71,500,11.47,440.44,11.47,367.24S71,234.47,144.24,234.47,277,294,277,367.24,217.44,500,144.24,500Zm0-255.53A122.77,122.77,0,1,0,267,367.24,122.9,122.9,0,0,0,144.24,244.47Z"/><path class="cls-1" d="M226.19,371.55H62.71a5,5,0,1,1,0-10H226.19a5,5,0,0,1,0,10Z"/></g><g id="Outline"><path class="cls-1" d="M330.33,107H192a5,5,0,0,1,0-10H330.33a5,5,0,0,1,0,10Z"/><path class="cls-1" d="M330.33,155H192a5,5,0,0,1,0-10H330.33a5,5,0,0,1,0,10Z"/><path class="cls-1" d="M437,200H192a5,5,0,0,1,0-10H437a5,5,0,0,1,0,10Z"/><path class="cls-1" d="M437,248H256a5,5,0,0,1,0-10H437a5,5,0,0,1,0,10Z"/><path class="cls-1" d="M437,293H305a5,5,0,0,1,0-10H437a5,5,0,0,1,0,10Z"/><path class="cls-1" d="M437,341H305a5,5,0,0,1,0-10H437a5,5,0,0,1,0,10Z"/><path class="cls-1" d="M437,387H305a5,5,0,0,1,0-10H437a5,5,0,0,1,0,10Z"/></g></svg>