<?xml version="1.0" ?><svg viewBox="0 0 512 512" xmlns="http://www.w3.org/2000/svg"><defs><style>.cls-1{fill:#3f456b;}</style></defs><title/><g id="Lines"><path class="cls-1" d="M462.75,138.05H140.26a5,5,0,0,1-4.73-3.38c-.21-.6-4.92-14.71,2.94-24.77,4.85-6.21,13.05-9.22,24.4-9a55.14,55.14,0,0,1,7.92-16.48c6.32-8.88,18.12-19.19,38.89-19.73A69.4,69.4,0,0,1,217.18,45c6.55-11.41,19.5-25.54,44.05-28s40,8.12,48.8,17.47A66.29,66.29,0,0,1,321.4,51.2c11.44-2.5,43.08-7.49,67.83,6.74,13.11,7.54,22.21,19.27,27.12,34.9,9-.62,29.82-.55,42.16,11.29,7.4,7.09,10.49,17,9.21,29.43A5,5,0,0,1,462.75,138.05Zm-318.53-10H458c0-7.12-2.14-12.61-6.41-16.71-10.19-9.77-31-9.21-38.19-8.17a5,5,0,0,1-5.57-3.71c-3.83-15-11.77-26.06-23.58-32.85-26.51-15.24-64.07-4.84-64.45-4.73a5,5,0,0,1-6.11-3.22c-.49-1.45-12.64-35.72-51.44-31.76S219,68.64,218.86,70.25a5,5,0,0,1-5.17,4.48c-36.17-1.37-41.77,30.82-42,32.19a5,5,0,0,1-5.37,4.2c-6.87-.59-15.92-.22-20,4.9C143.54,119.62,143.7,124.71,144.22,128.05Z"/><path class="cls-1" d="M179.34,238.87H17a5,5,0,0,1-5-5.16c0-.86.85-21.17,15.57-33.36,8.22-6.81,18.93-9.65,31.9-8.48,2.78-9.19,12-28,41.34-30.35,19.24-1.54,35.52,3.61,45.86,14.51A37.15,37.15,0,0,1,157,201.21c6.3.84,16.73,3.38,23,11.12,4.78,5.93,6.2,13.53,4.24,22.6A5,5,0,0,1,179.34,238.87Zm-156.65-10H175c.29-4.17-.64-7.54-2.81-10.23-6.17-7.69-20.35-7.84-20.49-7.84a5,5,0,0,1-4.95-5.66,26.69,26.69,0,0,0-7.36-22.23c-8.22-8.66-21.65-12.71-37.81-11.42-30.29,2.42-33.21,25.44-33.32,26.42a5,5,0,0,1-5.75,4.41c-12.07-1.89-21.67,0-28.54,5.68C26.68,214,23.81,223.18,22.69,228.87Z"/><path class="cls-1" d="M284.9,253.23a5,5,0,0,1-5-4.38c-8.3-66.12,5-114.44,5.62-116.46a5,5,0,0,1,9.62,2.71h0c-.13.48-13.35,48.52-5.32,112.5a5,5,0,0,1-4.33,5.59C285.31,253.21,285.1,253.23,284.9,253.23Z"/><path class="cls-1" d="M282.25,196h-.08c-19.62-.33-34.31-6.36-43.68-17.93-15.19-18.75-10.32-44.87-10.11-46a5,5,0,0,1,9.82,1.9h0c0,.23-4.16,22.75,8.1,37.83,7.42,9.12,19.55,13.89,36,14.17a5,5,0,0,1-.09,10Z"/><path class="cls-1" d="M301,229.16q-8,0-16.45-.6a5,5,0,0,1,.71-10c41.81,3,73.31-5.54,93.64-25.34,25.64-25,24.38-59.62,24.37-60a5,5,0,1,1,10-.45c.07,1.6,1.44,39.5-27.38,67.58C366.26,219.52,337.75,229.16,301,229.16Z"/><path class="cls-1" d="M387.8,196l-.5,0c-16.9-1.67-29.68-8.1-38-19.11-14.11-18.72-9.78-43.65-9.59-44.7a5,5,0,0,1,9.84,1.78c-.07.39-3.67,21.84,7.78,36.95,6.55,8.66,17,13.75,31,15.13a5,5,0,0,1-.49,10Z"/><path class="cls-1" d="M127.4,307a5,5,0,0,1-2.65-.77,70.33,70.33,0,0,1-32.06-46.07,77.91,77.91,0,0,1-1.09-26.67,5,5,0,0,1,9.86,1.68h0c-.27,1.65-6.35,40.62,28.61,62.6A5,5,0,0,1,127.4,307Z"/><path class="cls-1" d="M92.22,282.68c-17.43,0-30.65-4.62-39.4-13.8C39.06,254.44,42,234.42,42.12,233.57A5,5,0,0,1,52,235.09c0,.27-2.23,16.18,8.11,27,8.45,8.8,23,12.17,43.31,10A5,5,0,1,1,104.5,282,115.58,115.58,0,0,1,92.22,282.68Z"/><path class="cls-1" d="M496.77,352H201.5a5,5,0,0,1-4.95-5.69c1.14-8.16,4.33-14.19,9.49-17.92a20.29,20.29,0,0,1,9.43-3.68c.54-6.5,2.66-17.76,10.58-26.33,5.62-6.08,13.08-9.72,22.21-10.85.88-14.62,8.73-37.6,34.72-44.44,18.85-5,31.89.35,39.52,5.67a43.83,43.83,0,0,1,9.58,9.16c8.88-3.81,30.63-11,52.77-2.13,21.44,8.62,23,26.27,22,36,5.67.27,13.75,1.88,19.78,8l1-.81c15.48-12.28,37.35-8.16,51.12.86a51.37,51.37,0,0,1,23,47.65A5,5,0,0,1,496.77,352ZM207.88,342H492a41.47,41.47,0,0,0-18.69-33.77c-10.87-7.12-27.84-10.59-39.42-1.4-.76.61-2.3,1.94-3,2.7a5,5,0,0,1-9,.47c-5.75-10.29-20.08-8.1-20.23-8.08a5,5,0,0,1-5.55-6.49,29.82,29.82,0,0,0,.7-12.34c-1.36-8.32-6.64-14.39-15.68-18-23.73-9.54-48.15,3.47-48.4,3.6a5,5,0,0,1-6.81-2.06c-.47-.85-11.91-21.34-40.38-13.85s-27.37,37.87-27.31,39.16a5,5,0,0,1-4.86,5.25c-8.56.24-15.28,2.93-20,8-8.74,9.46-8.09,24.11-8.09,24.26a5,5,0,0,1-5.88,5.18h0a11.25,11.25,0,0,0-7.61,1.95A12.2,12.2,0,0,0,207.88,342Zm222.74-36.85Zm0,0Z"/><path class="cls-1" d="M211,336H104.71a5,5,0,0,1-4.9-4c-1.93-9.7-.42-17.76,4.48-23.94,5.7-7.19,14.52-9.7,19.61-10.57,5.9-22.87,27-29.25,40.92-29.58a42,42,0,0,1,5.64-13.82c5.44-8.52,16.72-18.91,39.5-20.05,22.59-1.14,35.85,7.91,43,15.7a45.78,45.78,0,0,1,10.25,17.73,5,5,0,0,1-9.67,2.52c-.32-1.18-7.89-27.72-43.08-26-34.7,1.74-36.29,28.09-36.35,29.21A5,5,0,0,1,168.7,278c-1.26-.1-31-2.15-35.74,24.87A5,5,0,0,1,128.2,307c-.09,0-10.79.53-16.11,7.29-2.34,3-3.35,6.9-3,11.71H211a5,5,0,0,1,0,10Z"/><path class="cls-1" d="M269.35,501h-52.7a5,5,0,0,1-4.77-6.52c6.76-21.2,8.24-43.75,9.36-68.91,1.2-27.06,2-53.86,2.41-79.65a5,5,0,1,1,10,.16c-.39,25.88-1.2,52.77-2.41,79.93-1,23.38-2.39,44.62-7.9,65h39.88c-1.94-10.56-4.11-26.49-4.28-28.31-2.47-26.06-1.67-53-.9-79.14.36-12.37.74-25.16.75-37.56a5,5,0,0,1,5-5h0a5,5,0,0,1,5,5c0,12.53-.39,25.39-.76,37.84-.76,25.79-1.55,52.46.86,77.9.2,2.08,3.35,25,5.33,33.06a5,5,0,0,1-4.86,6.19Z"/><path class="cls-1" d="M224,397.41c-21.94,0-39-6.23-50.9-18.54-18.83-19.55-17.12-47.06-17-48.22a5,5,0,0,1,10,.69c0,.32-1.41,24.4,14.32,40.66,10.51,10.87,26.41,16,47.27,15.35a5,5,0,0,1,.33,10C226.57,397.39,225.25,397.41,224,397.41Z"/><path class="cls-1" d="M273.47,427.79q-5.75,0-11.86-.47a5,5,0,0,1,.78-10c28.27,2.2,49.8-3.79,64-17.8,20.77-20.51,19-51.9,18.95-52.22a5,5,0,0,1,10-.67c.1,1.46,2.19,36.14-21.83,59.93C319.27,420.68,299.11,427.79,273.47,427.79Z"/><path class="cls-1" d="M340,395a5,5,0,0,1,0-10c24.1,0,41.77-6.73,51.09-19.45A35.5,35.5,0,0,0,398,347a5,5,0,0,1,10,0,44.94,44.94,0,0,1-8.84,24.45C384.9,390.9,359.12,395,340,395Z"/></g><g id="Outline"><path class="cls-1" d="M246.86,83.31a5,5,0,0,1-3.23-8.82c7.47-6.32,25.81-14.43,41.7.13A5,5,0,0,1,278.57,82c-13.45-12.32-27.87-.38-28.48.14A5,5,0,0,1,246.86,83.31Z"/><path class="cls-1" d="M161.86,305.31a5,5,0,0,1-3.23-8.82c7.47-6.32,25.81-14.43,41.7.13a5,5,0,0,1-6.76,7.37c-13.45-12.32-27.87-.38-28.48.14A5,5,0,0,1,161.86,305.31Z"/><path class="cls-1" d="M366.15,107.17a5,5,0,0,1-2.64-.76c-18.95-11.84-32.89-.85-33.47-.38a5,5,0,0,1-6.38-7.7c6.79-5.66,25-13,45.15-.4a5,5,0,0,1-2.66,9.24Z"/><path class="cls-1" d="M366.15,309.17a5,5,0,0,1-2.64-.76c-18.95-11.84-32.89-.85-33.47-.38a5,5,0,0,1-6.38-7.7c6.79-5.66,25-13,45.15-.4a5,5,0,0,1-2.66,9.24Z"/></g></svg>