<?xml version="1.0" ?><svg id="Lines" viewBox="0 0 512 512" xmlns="http://www.w3.org/2000/svg"><defs><style>.cls-1{fill:#3f456b;}</style></defs><title/><path class="cls-1" d="M81,469h-.38l-65-5A5,5,0,0,1,11,458.63l23-307c3.78-39.92,22.86-64.83,38.2-78.72,16.65-15.07,32.36-20.66,33-20.89l74.9-25.75a5,5,0,0,1,6.63,4.83,50,50,0,0,0,14.07,32.62C212.9,76,231.68,82.16,256.64,82.16s43.87-6.25,55.93-18.56a49.49,49.49,0,0,0,13.95-32.5,5,5,0,0,1,4.9-5.1h.1a5,5,0,0,1,5,4.9,59.31,59.31,0,0,1-16.8,39.69c-14,14.31-35.24,21.57-63.08,21.57s-49.06-7.26-63.08-21.57a59.81,59.81,0,0,1-16.23-32.78L108.5,61.47c-.11,0-14.72,5.3-29.9,19.15C58.39,99.05,46.74,123.23,44,152.47L21.36,454.4l55.19,4.24L101.91,223a5,5,0,1,1,9.94,1.08L86,464.54A5,5,0,0,1,81,469Z"/><path class="cls-1" d="M432.52,469a5,5,0,0,1-5-4.46L401.67,224a5,5,0,0,1,9.94-1.08L437,458.64l55.19-4.24-22.62-302c-6.62-69.9-64-90.71-64.55-90.91L330.14,35.73a5,5,0,1,1,3.25-9.46L408.27,52c.68.24,16.39,5.83,33,20.9,15.34,13.89,34.42,38.8,38.19,78.62l23,307.1a5,5,0,0,1-4.6,5.36l-65,5Z"/><path class="cls-1" d="M260.84,44.38c-43.71,0-77-8-79.11-8.53a5,5,0,0,1,2.39-9.71c.75.19,75.76,18.19,147.34,0a5,5,0,1,1,2.46,9.7C308.71,42.25,283.39,44.38,260.84,44.38Z"/><path class="cls-1" d="M406.4,485.28H106.88a5,5,0,0,1-5-5V161.86c0-.55,1.66-55.6-26.43-84a5,5,0,1,1,7.1-7C113.39,102,112,158.58,111.88,162.13V475.28H401.4V161.88c.08-2.59,2.27-63.73,26.39-93.37a5,5,0,1,1,7.75,6.31c-21.66,26.62-24.05,84.91-24.14,87.3V480.28A5,5,0,0,1,406.4,485.28Z"/><path class="cls-1" d="M256.69,119.07c-38.76,0-68.07-10.76-87.12-32a84.73,84.73,0,0,1-20.51-44.69A5,5,0,0,1,159,41.15c2,15.93,15.05,67.92,97.71,67.92,82.9,0,96.54-52,98.75-67.9a5,5,0,1,1,9.91,1.37,85.38,85.38,0,0,1-21,44.5C325.05,108.29,295.55,119.07,256.69,119.07Z"/><path class="cls-1" d="M407,149H106a5,5,0,0,1,0-10H407a5,5,0,0,1,0,10Z"/><path class="cls-1" d="M185.17,100H94a5,5,0,0,1,0-10h91.17a5,5,0,0,1,0,10Z"/><path class="cls-1" d="M419,100H328.83a5,5,0,0,1,0-10H419a5,5,0,0,1,0,10Z"/><path class="cls-1" d="M428.6,430.31a5,5,0,0,1-.4-10l65.4-5.3a5,5,0,1,1,.8,10L429,430.29Z"/><path class="cls-1" d="M424.6,384.31a5,5,0,0,1-.39-10L490.6,369a5,5,0,1,1,.8,10L425,384.29Z"/><path class="cls-1" d="M419,337a5,5,0,0,1-.43-10l68-6a5,5,0,0,1,.88,10l-68,6Z"/><path class="cls-1" d="M412,286a5,5,0,0,1-.41-10l71-6a5,5,0,0,1,.84,10l-71,6Z"/><path class="cls-1" d="M409,237a5,5,0,0,1-.41-10l71-6a5,5,0,0,1,.84,10l-71,6Z"/><path class="cls-1" d="M407,184a5,5,0,0,1-.42-10l69-6a5,5,0,1,1,.86,10l-69,6Z"/><path class="cls-1" d="M411,133a5,5,0,0,1-.43-10l57-5a5,5,0,0,1,.88,10l-57,5Z"/><path class="cls-1" d="M85.4,430.31l-.41,0L19.6,425a5,5,0,1,1,.8-10l65.4,5.3a5,5,0,0,1-.4,10Z"/><path class="cls-1" d="M89.4,384.31l-.4,0L22.6,379a5,5,0,1,1,.8-10l66.39,5.3a5,5,0,0,1-.39,10Z"/><path class="cls-1" d="M95,337l-.45,0-68-6a5,5,0,1,1,.88-10l68,6A5,5,0,0,1,95,337Z"/><path class="cls-1" d="M102,286l-.43,0-71-6a5,5,0,0,1,.84-10l71,6a5,5,0,0,1-.41,10Z"/><path class="cls-1" d="M105,237l-.43,0-71-6a5,5,0,0,1,.84-10l71,6a5,5,0,0,1-.41,10Z"/><path class="cls-1" d="M107,184l-.44,0-69-6a5,5,0,0,1,.86-10l69,6a5,5,0,0,1-.42,10Z"/><path class="cls-1" d="M103,133l-.45,0-57-5a5,5,0,0,1,.88-10l57,5a5,5,0,0,1-.43,10Z"/><path class="cls-1" d="M405,197H108a5,5,0,0,1,0-10H405a5,5,0,0,1,0,10Z"/><path class="cls-1" d="M405,245H108a5,5,0,0,1,0-10H405a5,5,0,0,1,0,10Z"/><path class="cls-1" d="M407,293H106a5,5,0,0,1,0-10H407a5,5,0,0,1,0,10Z"/><path class="cls-1" d="M405,341H108a5,5,0,0,1,0-10H405a5,5,0,0,1,0,10Z"/><path class="cls-1" d="M405,389H108a5,5,0,0,1,0-10H405a5,5,0,0,1,0,10Z"/><path class="cls-1" d="M405,437H108a5,5,0,0,1,0-10H405a5,5,0,0,1,0,10Z"/></svg>