<?xml version="1.0" ?><svg id="Lines" viewBox="0 0 512 512" xmlns="http://www.w3.org/2000/svg"><defs><style>.cls-1{fill:#3f456b;}</style></defs><title/><path class="cls-1" d="M218.58,499.68a5,5,0,1,1,0-10A99,99,0,0,0,285.3,317.46a5,5,0,1,1,6.74-7.39,109,109,0,0,1-73.46,189.61Z"/><path class="cls-1" d="M218.58,499.68a109,109,0,0,1-80.06-183.06,5,5,0,0,1,7.34,6.79,99,99,0,0,0,72.72,166.27,5,5,0,0,1,0,10Z"/><path class="cls-1" d="M218.58,461A70.39,70.39,0,1,1,289,390.64,70.46,70.46,0,0,1,218.58,461Zm0-130.78A60.39,60.39,0,1,0,279,390.64,60.46,60.46,0,0,0,218.58,330.25Z"/><path class="cls-1" d="M219.26,396.47a5,5,0,0,1-5-5v-2.61a5,5,0,0,1,10,0v2.61A5,5,0,0,1,219.26,396.47Z"/><path class="cls-1" d="M218.62,499.76C168,499.76,120.46,487.38,77.4,463a291.77,291.77,0,0,1-64.71-49.87l-1.34-1.35a5,5,0,0,1-.64-6.32c.68-1,17-25.2,50.92-50.14,31.21-23,83.84-50.8,157.27-53,64-2.2,116.79,17.91,149.81,35.16,35.79,18.71,56.23,37.72,57.08,38.52a5,5,0,0,1,.78,6.36c-.78,1.2-19.45,29.76-54.43,58.7C339.77,467.83,286.86,499.76,218.62,499.76ZM21.43,407.71a280.75,280.75,0,0,0,60.9,46.57c41.54,23.54,87.39,35.48,136.29,35.48,65.14,0,115.84-30.57,146.9-56.21a295.13,295.13,0,0,0,50.2-53.1,289.6,289.6,0,0,0-52-34.27c-31.89-16.62-82.87-36-144.55-33.88-70.68,2.11-121.29,28.78-151.32,50.79C42.42,381.77,27,400.35,21.43,407.71Z"/><path class="cls-1" d="M29,367.81a5,5,0,0,1-4.32-7.52c.61-1,15.2-25.81,47.39-51.42,29.63-23.58,80.39-52.24,154-54.88a262.06,262.06,0,0,1,76.14,9.72,5,5,0,1,1-2.73,9.62A251.65,251.65,0,0,0,226.31,264c-70.77,2.54-119.56,30.06-148,52.7-30.74,24.46-44.84,48.39-45,48.63A5,5,0,0,1,29,367.81Z"/><path class="cls-1" d="M264.27,313.65a53.32,53.32,0,0,1-7.73-.48,5,5,0,0,1,1.5-9.88h0c.24,0,24.17,3.36,43.5-12.05,14.7-11.73,23.21-31.21,25.29-57.91a5,5,0,0,1,10,.77c-2.31,29.65-12.11,51.54-29.14,65C292,311.61,274.19,313.65,264.27,313.65Z"/><path class="cls-1" d="M308.38,321.4a68,68,0,0,1-10.38-.69,5,5,0,1,1,1.59-9.87h0c.29.05,28.79,4.34,50.44-12.74,14.61-11.52,23-30.19,25-55.49a5,5,0,0,1,10,.78c-2.19,28.24-11.9,49.31-28.84,62.63C339.51,319.09,320.06,321.4,308.38,321.4Z"/><path class="cls-1" d="M359.27,337.39a72.61,72.61,0,0,1-15.42-1.52,5,5,0,0,1,2.29-9.74h0c.27.06,26.77,6,47.25-9C407.73,306.62,416,288.27,418,262.61a5,5,0,0,1,10,.78c-2.23,28.75-11.91,49.57-28.77,61.87C385.65,335.15,370.35,337.39,359.27,337.39Z"/><path class="cls-1" d="M401.29,357.81a82.51,82.51,0,0,1-19.85-2.3,5,5,0,0,1,2.61-9.66h0c.29.08,29.19,7.56,50.75-7.69,14.13-10,22.28-27.69,24.22-52.55a5,5,0,0,1,10,.78c-2.17,28-11.76,48.18-28.48,60C427.54,355.52,412.8,357.81,401.29,357.81Z"/><path class="cls-1" d="M427.45,385.33a53.84,53.84,0,0,1-7.72-.47,5,5,0,1,1,1.5-9.88h0c.23,0,24.17,3.36,43.49-12.05C479.43,351.2,487.94,331.72,490,305a5,5,0,0,1,10,.78c-2.3,29.65-12.11,51.53-29.14,65C455.14,383.3,437.37,385.33,427.45,385.33Z"/><path class="cls-1" d="M240.44,217.88a4.85,4.85,0,0,1-1.67-.29L39,146.84a35.08,35.08,0,0,1-21.52-44.56L34.26,54.12A35,35,0,0,1,78.83,32.58l199.79,70.76a5,5,0,0,1,3.05,6.36l-36.5,104.83a5,5,0,0,1-2.56,2.86A5,5,0,0,1,240.44,217.88ZM67.34,40.63A25,25,0,0,0,43.71,57.41L26.93,105.57A25.09,25.09,0,0,0,42.32,137.4l195.05,69.09,33.22-95.38L75.51,42A24.82,24.82,0,0,0,67.34,40.63Z"/><path class="cls-1" d="M350.81,212.26a5.1,5.1,0,0,1-1.62-.27l-95.93-32.77a5,5,0,1,1,3.23-9.46l91.23,31.16L354,183l-91.18-31.14a5,5,0,0,1,3.24-9.47L362,175.14a5,5,0,0,1,2.88,2.54,5.07,5.07,0,0,1,.23,3.84l-9.54,27.38A5,5,0,0,1,350.81,212.26Z"/><path class="cls-1" d="M477.36,241a5,5,0,0,1-1.65-.28L353.93,198.29a5,5,0,1,1,3.29-9.45L479,231.26a5,5,0,0,1-1.64,9.72Z"/><path class="cls-1" d="M413.27,232.33a5,5,0,0,1-4.73-6.62l8.41-24.6a5,5,0,1,1,9.46,3.23L418,229A5,5,0,0,1,413.27,232.33Z"/><path class="cls-1" d="M392.25,225.16a5,5,0,0,1-4.74-6.62l8.41-24.6a5,5,0,1,1,9.46,3.23l-8.4,24.6A5,5,0,0,1,392.25,225.16Z"/><path class="cls-1" d="M371.22,218a5,5,0,0,1-4.73-6.62l8.41-24.6a5,5,0,1,1,9.46,3.23l-8.4,24.6A5,5,0,0,1,371.22,218Z"/><path class="cls-1" d="M455.37,246.57a5,5,0,0,1-4.74-6.62L459,215.34a5,5,0,0,1,9.46,3.24l-8.4,24.6A5,5,0,0,1,455.37,246.57Z"/><path class="cls-1" d="M434.34,239.38a5,5,0,0,1-4.73-6.62l8.41-24.6a5,5,0,1,1,9.46,3.23l-8.4,24.6A5,5,0,0,1,434.34,239.38Z"/><path class="cls-1" d="M416.5,168a5,5,0,0,1-4.88-3.91c-.09-.39-9.36-39.63-44.21-47.44a5,5,0,0,1,.15-9.79c1.6-.31,39.24-8.06,44-47.46a5,5,0,0,1,9.89-.22,74.68,74.68,0,0,0,8.38,22.06c8.41,14.56,20.35,23.17,35.48,25.59a5,5,0,0,1,.23,9.84c-1.55.32-38.2,8.55-44.08,47.08a5,5,0,0,1-4.77,4.25Zm-32.9-56.18c17.1,8.46,26.94,23.37,32.27,34.74a64.52,64.52,0,0,1,24.29-29.31,75.28,75.28,0,0,1,8.66-5C437.44,107.08,428,98.17,421,85.94A83.53,83.53,0,0,1,417,78a62.36,62.36,0,0,1-23.72,28.41A73.94,73.94,0,0,1,383.6,111.82Z"/><path class="cls-1" d="M69.5,290a5,5,0,0,1-4.88-3.91c-.09-.39-9.36-39.63-44.21-47.44a5,5,0,0,1,.15-9.79c1.6-.31,39.24-8.06,44-47.46a5,5,0,0,1,9.89-.22,74.68,74.68,0,0,0,8.38,22.06c8.41,14.56,20.35,23.17,35.48,25.59a5,5,0,0,1,.23,9.84c-1.55.32-38.2,8.55-44.08,47.08A5,5,0,0,1,69.67,290ZM36.6,233.82c17.1,8.46,26.94,23.37,32.27,34.74a64.52,64.52,0,0,1,24.29-29.31,75.28,75.28,0,0,1,8.66-5C90.44,229.08,81,220.17,74,207.94A83.53,83.53,0,0,1,70,200a62.36,62.36,0,0,1-23.72,28.41A73.94,73.94,0,0,1,36.6,233.82Z"/></svg>