<?xml version="1.0" ?><svg id="图层_1" style="enable-background:new 0 0 512 512;" version="1.1" viewBox="0 0 512 512" xml:space="preserve" xmlns="http://www.w3.org/2000/svg" xmlns:xlink="http://www.w3.org/1999/xlink"><style type="text/css">
	.st0{fill:#3F456B;}
	.st1{fill:none;stroke:#3F456B;stroke-width:10;stroke-linecap:round;stroke-linejoin:round;stroke-miterlimit:10;}
</style><title/><g><g><path class="st0" d="M417.1,304.4c-0.1,0-0.2,0-0.4,0l-2.4-0.2c-2.8-0.2-4.8-2.6-4.6-5.3c0.2-2.8,2.6-4.8,5.3-4.6l2.4,0.2    c2.8,0.2,4.8,2.6,4.6,5.3C421.9,302.4,419.7,304.4,417.1,304.4z"/></g><g><path class="st0" d="M464.6,305.2c-2.7,0-5-2.2-5-5c0-2.8,2.2-5,5-5l2.2,0c0,0,0,0,0,0c2.7,0,5,2.2,5,5c0,2.8-2.2,5-5,5    L464.6,305.2C464.6,305.2,464.6,305.2,464.6,305.2z"/></g></g><g><path class="st0" d="M442.2,364.5c-2.5,0-5.1-0.1-7.7-0.4c-21.2-2.1-37.9-10-48.2-22.8c-10.5-13.1-14.6-31-12-53.4c0,0,0,0,0,0   c0.1-0.6,2-14.9,11.9-25.2c0.1-5.6,0.4-21,2.4-34.3c0.2-1.6,1.2-3,2.7-3.7c1.4-0.7,3.1-0.7,4.6,0c4.4,2.2,25,13.1,33,22.9   c1.7-0.2,3.6-0.4,5.6-0.5c5.5-0.3,10.7-0.2,15.5,0.3c4.4-5.4,16.2-17.8,35.3-22.2c1.5-0.3,3,0,4.2,0.9c1.2,0.9,1.9,2.3,1.9,3.8   c0,1.1,0.7,26.1-2.3,39.3c6.2,10.3,9.3,21.2,9.3,32.6c0,20.3-7,38.3-19.3,49.4C469.5,360,456.9,364.5,442.2,364.5z M384.3,289   c-2.2,19.6,1.1,35,9.9,45.9c8.7,10.8,22.6,17.3,41.4,19.2c15.3,1.5,27.7-1.9,36.8-10.2c10.2-9.2,16-24.5,16-42   c0-10.3-2.9-19.8-8.9-29.1c-0.8-1.2-1-2.7-0.6-4.1c2.1-7.2,2.6-22.2,2.6-32c-16.4,6-25,18.6-25.1,18.7c-1.1,1.6-2.9,2.4-4.8,2.2   c-5-0.6-10.6-0.8-16.7-0.5c-2.9,0.1-5.8,0.5-7.8,0.8c-2.1,0.3-4.1-0.8-5.1-2.6c-2.5-4.7-14.2-12.5-24.3-18.3   c-1.4,13.7-1.4,27.6-1.4,27.8c0,1.4-0.6,2.8-1.7,3.7C386,276.2,384.3,288.6,384.3,289z"/></g><g><path class="st0" d="M166,493h-33.7c-1.4,0-2.7-0.6-3.6-1.5c-25.1-26.1-36.5-63.8-36.9-65.4c-0.3-1-0.3-2.1,0.1-3.2   c5.7-15.4,20-32.7,26.9-40.4c-10.1-8.6-15.4-21.2-15.4-36.7c0-3.2,0.2-6.2,0.6-9c-15.3,9.5-37.1,13.3-57.5,3.6   c-39.7-19-31.4-72.2-20.2-100.7c9.8-24.9,29-43.4,55.5-53.6c22.4-8.6,50.1-11.1,78-7.1c13.3,1.9,53.7,7.8,52.1,29.5   c-0.4,5.2-2.7,9.4-6.7,12.2c-9.6,6.7-24.9,2.8-27.9,1.9c-60.3-17.3-91.2-1.4-106.4,15c-8.7,9.4-14.3,24.6-15.5,41.7   c-0.4,6.2-0.3,21.2,10.5,25.8c3.3,1.4,7.2,1.5,11.2,0.4c7.6-2.2,13.4-8,19.5-14.1c4.2-4.2,8.5-8.5,13.5-11.8   c53.6-35.3,124.8-20.8,173.7-6.8c28.8,8.2,52.9,9.7,68,9.5c16.4-0.2,26.2-2.4,26.3-2.4c2.7-0.6,5.4,1.1,6,3.8   c0.6,2.7-1.1,5.4-3.7,6c-1.7,0.4-41.6,9.3-99.3-7.2c-47-13.4-115.3-27.5-165.4,5.5c-4.2,2.8-8,6.6-12,10.5   c-6.8,6.8-13.8,13.8-23.8,16.7c-6.2,1.8-12.5,1.5-17.9-0.8c-11.7-5-17.8-18-16.5-35.7c1.3-19.4,8-36.8,18.2-47.8   c13.8-14.8,32.6-23.3,55.9-25.2c18.1-1.5,38.4,1,60.6,7.4c6.6,1.9,15.3,2.3,19.4-0.5c1.5-1.1,2.3-2.5,2.4-4.7   c0.2-2.9-2.3-12.9-43.6-18.9c-26.2-3.8-52.1-1.5-73,6.5c-24.2,9.3-40.9,25.4-49.8,47.9C29,260,26,278.2,27.2,293.1   c1.6,18.6,9.5,31.5,23.5,38.2c22,10.5,46,2.2,57.4-11c1.6-1.8,4.2-2.3,6.3-1c2.1,1.2,3,3.7,2.2,6c0,0.1-3.3,9.5-3.3,20.8   c0.1,14.3,5.3,24.9,15.6,31.5c1.3,0.8,2.1,2.1,2.3,3.6s-0.3,3-1.4,4c-0.2,0.2-20.6,21.7-27.9,39.6c2.4,7.1,13,36.8,32.6,58.2h28.3   c0.3-1.1,0.5-2.6,0.2-4c-0.5-1.9-2-3.6-4.5-5.1c-0.2-0.1-0.5-0.3-0.7-0.5c-0.1-0.1-4.4-3.4-9.9-2.1c-1.8,0.4-3.6-0.1-4.9-1.4   c-0.7-0.7-16.3-17.6-20.6-37.1c-0.6-2.5,0.9-5.1,3.4-5.9c0.2-0.1,19.1-6.2,38.5-20.4c25.6-18.8,40-42.1,42.8-69.3   c0.3-2.7,2.7-4.7,5.5-4.5c2.7,0.3,4.7,2.7,4.5,5.5c-3.1,29.8-19.4,56.3-47.1,76.5c-15,11-29.5,17.3-36.6,20   c3.8,11.7,11.8,22,15.3,26.2c7.8-0.7,13.6,3.1,15.2,4.3c6,3.6,8.1,8.1,8.9,11.3c1.7,7.2-2,13.3-2.4,14   C169.3,492.1,167.7,493,166,493z"/></g><g><path class="st0" d="M321.1,394.4c-10.3,0-28.1-1.3-50.3-7.8c-33.1-9.7-73.2-0.4-73.6-0.3c-2.7,0.6-5.4-1-6-3.7s1-5.4,3.7-6   c1.7-0.4,43.2-10,78.8,0.5c33.1,9.7,55.9,7,56.2,7c2.7-0.4,5.2,1.6,5.6,4.3c0.4,2.7-1.6,5.2-4.3,5.6   C330.7,393.9,327.2,394.4,321.1,394.4z"/></g><g><path class="st0" d="M218.6,483.4c-6.2,0-12.1-3.3-16.9-6c-1.5-0.8-2.9-1.6-4.2-2.3c-8.1-4-41.5-24-57.1-47.7   c-1.5-2.3-0.9-5.4,1.4-6.9c2.3-1.5,5.4-0.9,6.9,1.4c14.2,21.6,46.1,40.7,53.2,44.2c1.6,0.8,3.1,1.7,4.7,2.5   c8.4,4.8,12.6,6.4,17.1,2.6c1.2-1,2.7-2.6,2.6-4c-0.2-3.7-8.3-9-12.2-11.5c-0.6-0.4-1.2-0.8-1.8-1.2c-7.2-4.7-13.7-8.8-20.1-12.3   c-3.7-2.1-6.2-5.1-7.2-8.8c-1.8-6.6,1.8-12.8,2.2-13.5c0.2-0.4,0.5-0.8,0.9-1.1c15.8-14.8,17.8-40.3,17.8-40.5   c0.2-2.8,2.6-4.8,5.4-4.6c2.8,0.2,4.8,2.6,4.6,5.4c-0.1,1.2-2.3,29-20.3,46.5c-0.5,1.2-1.4,3.5-0.9,5.3c0.2,0.7,0.6,1.6,2.3,2.6   c6.6,3.6,13.3,7.8,20.7,12.7c0.5,0.3,1.1,0.7,1.7,1.1c6.8,4.4,16.2,10.5,16.8,19.3c0.3,4.5-1.7,8.6-6.1,12.3   C226.3,482.2,222.4,483.4,218.6,483.4z"/></g><g><path class="st0" d="M399.8,493c-0.2,0-0.4,0-0.7,0c-2.4-0.3-5.7-0.7-22.9-29c-0.2-0.3-16.4-27.5-36.2-49.3   c-21.8-24-16.8-58.8-16.6-60.3c0.4-2.7,3-4.6,5.7-4.2c2.7,0.4,4.6,3,4.2,5.7c0,0.3-4.5,31.7,14.1,52.1   c20.5,22.6,36.7,49.7,37.4,50.9c10.4,17.2,14.9,22.5,16.4,24.1h31.1c0.7-1.3,1-4-2-8.7c-2-3.2-5.1-4.8-9.3-5   c-3.4-0.1-6.2,0.8-6.2,0.9c-2.2,0.8-4.6,0-5.9-2c-0.5-0.8-13.5-20.9-19.8-34.3c-6.3-13.6-12.2-29.9-2-50.3   c9.3-18.6,20-32.5,20.5-33.1c1.7-2.2,4.8-2.6,7-0.9c2.2,1.7,2.6,4.8,0.9,7c-0.1,0.1-10.6,13.7-19.4,31.4   c-8.2,16.4-3.7,29.1,2.1,41.6c4.5,9.8,13.3,24,17.1,30.1c7-1.2,17.3-0.3,23.4,9.2c7.7,12,2.5,20.4-1.3,23.1   c-0.8,0.6-1.9,0.9-2.9,0.9h-34.3C400.2,493,400,493,399.8,493z M398.1,483.3c-0.6,0.2-1.2,0.6-1.7,1.1   C396.9,483.9,397.4,483.6,398.1,483.3z"/></g><g><path class="st0" d="M319.8,493H283c-0.7,0-1.5-0.2-2.1-0.5c-0.5-0.3-13.3-6.5-10-26.6c1-6.5,3.7-14.5,6.7-23.8   c5.1-15.5,11.4-34.7,12.3-53.5c0.1-2.8,2.5-4.9,5.2-4.7c2.8,0.1,4.9,2.5,4.7,5.2c-1,20.1-7.6,40.1-12.8,56.1   c-2.9,8.9-5.4,16.6-6.4,22.3c-1.6,10.1,2.1,14.2,3.7,15.5h32.3c0.4-1.5,0.7-4.1,0-8c-0.7-3.9-10.3-4.7-15.2-4.2   c-1.7,0.2-3.4-0.6-4.5-2c-1-1.4-1.3-3.2-0.7-4.8c14.6-36.7,37.9-60.4,38.9-61.3c1.9-2,5.1-2,7.1,0c2,1.9,2,5.1,0,7.1l0,0   c-0.2,0.2-19.9,20.3-33.8,51.2c7.1,0.6,16.4,3.2,18,12.5c2.1,12.1-2.2,17.3-3.1,18.2C322.4,492.5,321.1,493,319.8,493z"/></g><g><path class="st0" d="M445.1,326.1H437c-2.8,0-5-2.2-5-5s2.2-5,5-5h8.2c2.8,0,5,2.2,5,5S447.9,326.1,445.1,326.1z"/></g><g><path class="st0" d="M428.6,343.4c-0.1,0-0.1,0-0.2,0c-13.3-0.1-16.6-10.8-16.7-11.3l9.6-2.9l0-0.1c0.2,0.7,1.7,4.2,7.3,4.3   c0,0,0.1,0,0.1,0c1.6,0,2.9-0.5,3.9-1.5c2.9-2.8,3.5-8.9,3.5-10.8c0-2.8,2.2-5,5-5s5,2.2,5,5c0,1.2-0.2,11.6-6.5,17.9   C436.7,341.8,432.9,343.4,428.6,343.4z"/></g><g><path class="st0" d="M454.2,344.1c-1.2,0-2.4-0.1-3.6-0.2c-6.6-0.8-11.3-5.4-13.3-13.1c-1.3-4.9-1.1-9.5-1.1-10   c0.1-2.8,2.5-4.9,5.3-4.7c2.8,0.1,4.9,2.5,4.7,5.2c0,0.2-0.3,11.9,5.6,12.6c3.6,0.4,6.3,0,7.9-1.3c1.3-1.1,1.5-2.8,1.5-2.8   c0.1-2.8,2.4-4.9,5.2-4.8c2.8,0.1,4.9,2.4,4.8,5.2c0,0.6-0.3,6-5,10C463.1,342.8,459.1,344.1,454.2,344.1z"/></g><g><path class="st0" d="M398.4,378.6c-0.5,0-1-0.1-1.5-0.2c-26.1-8.2-43.1-26.8-49-53.8c-4.4-20-1.3-37.4-1.1-38.1   c0.5-2.7,3.1-4.5,5.8-4c2.7,0.5,4.5,3.1,4,5.8l0,0c0,0.2-2.9,16.4,1.1,34.5c5.3,23.5,19.5,39,42.2,46.1c2.6,0.8,4.1,3.6,3.3,6.3   C402.5,377.2,400.5,378.6,398.4,378.6z"/></g><g><g><path class="st0" d="M419.9,399.4c-0.1,0-0.2,0-0.3,0c-13-0.1-23.4-10.8-23.3-23.8c0.1-12.9,10.7-23.3,23.5-23.3    c0.1,0,0.2,0,0.3,0c13,0.1,23.4,10.8,23.3,23.8C443.2,389.1,432.7,399.4,419.9,399.4z M419.9,362.4c-3.6,0-6.9,1.4-9.4,3.9    c-2.6,2.5-4,5.9-4.1,9.5c-0.1,7.5,5.9,13.6,13.4,13.7c0.1,0,0.1,0,0.2,0c7.4,0,13.4-6,13.5-13.4c0-3.6-1.3-7-3.9-9.6    c-2.5-2.6-5.9-4-9.5-4.1C420,362.4,419.9,362.4,419.9,362.4z"/></g></g><g><path d="M293.2,99.4H35.3c-0.1,0-0.2-0.1-0.2-0.2s0.1-0.2,0.2-0.2h257.8c0.1,0,0.2,0.1,0.2,0.2S293.3,99.4,293.2,99.4z"/></g><g><path class="st0" d="M181.4,193.3c0,0-0.1,0-0.1,0c-2.8-0.1-5-2.3-4.9-5.1l1.1-51.8c0.1-2.8,2.3-4.9,5.1-4.9c2.8,0.1,5,2.3,4.9,5.1   l-1.1,51.8C186.3,191.2,184.1,193.3,181.4,193.3z"/></g><g><path class="st0" d="M179.8,267.5c0,0-0.1,0-0.1,0c-2.8-0.1-5-2.3-4.9-5.1l0.9-44.1c0.1-2.8,2.3-4.9,5.1-4.9c2.8,0.1,5,2.3,4.9,5.1   l-0.9,44.1C184.7,265.4,182.5,267.5,179.8,267.5z"/></g><g><path class="st0" d="M175,493.1h-13c-2.8,0-5-2.2-5-5s2.2-5,5-5h8.1l0.6-27.5c0.1-2.8,2.3-5,5.1-4.9c2.8,0.1,5,2.3,4.9,5.1   l-0.7,32.4C179.9,490.9,177.7,493.1,175,493.1z"/></g><g><path class="st0" d="M157.6,472.2c-2.7,0-4.9-2.2-5-4.9l-0.6-27.4c-0.1-2.8,2.1-5,4.9-5.1c2.8-0.1,5,2.1,5.1,4.9l0.6,27.4   c0.1,2.8-2.1,5-4.9,5.1C157.6,472.2,157.6,472.2,157.6,472.2z"/></g><g><path class="st0" d="M153.3,270.9c-2.7,0-4.9-2.2-5-4.9l-1.1-53.7c-0.1-2.8,2.1-5,4.9-5.1c2.8,0,5,2.1,5.1,4.9l1.1,53.7   c0.1,2.8-2.1,5-4.9,5.1C153.3,270.9,153.3,270.9,153.3,270.9z"/></g><g><path class="st0" d="M151.5,187.1c-2.7,0-4.9-2.2-5-4.9l-1-45.6c-0.1-2.8,2.1-5,4.9-5.1c2.7,0,5,2.1,5.1,4.9l1,45.6   c0.1,2.8-2.1,5-4.9,5.1C151.5,187.1,151.5,187.1,151.5,187.1z"/></g><g><g><path class="st0" d="M235,171.5H97c-2.8,0-5-2.2-5-5s2.2-5,5-5h138c2.8,0,5,2.2,5,5S237.8,171.5,235,171.5z"/></g></g><g><path class="st0" d="M276.7,141.5H55.3c-13.8,0-25-11.2-25-25v-72c0-13.8,11.2-25,25-25h221.3c13.8,0,25,11.2,25,25v72   C301.7,130.3,290.5,141.5,276.7,141.5z M55.3,29.5c-8.3,0-15,6.7-15,15v72c0,8.3,6.7,15,15,15h221.3c8.3,0,15-6.7,15-15v-72   c0-8.3-6.7-15-15-15H55.3z"/></g><g><path class="st0" d="M293.2,104.2H35.3c-2.8,0-5-2.2-5-5s2.2-5,5-5h257.8c2.8,0,5,2.2,5,5S295.9,104.2,293.2,104.2z"/></g><g><path class="st0" d="M61.5,206.9c-0.2,0-0.5,0-0.7,0c-2.7-0.4-4.6-2.9-4.3-5.6l9-65.4c0.4-2.7,2.9-4.6,5.6-4.3   c2.7,0.4,4.6,2.9,4.3,5.6l-9,65.4C66.1,205,63.9,206.9,61.5,206.9z"/></g><g><path class="st0" d="M38,492.5H22c-1.4,0-2.8-0.6-3.8-1.7c-0.9-1.1-1.4-2.5-1.2-4l21.4-154.6c0.4-2.7,2.9-4.6,5.6-4.3   c2.7,0.4,4.6,2.9,4.3,5.6L27.7,482.5h6.1l26.2-142.8c0.5-2.7,3.1-4.5,5.8-4c2.7,0.5,4.5,3.1,4,5.8l-27,146.9   C42.5,490.8,40.4,492.5,38,492.5z"/></g><g><path class="st0" d="M70.4,316c-0.3,0-0.6,0-0.9-0.1c-2.7-0.5-4.5-3.1-4-5.8l16.9-91.8c0.5-2.7,3.1-4.5,5.8-4   c2.7,0.5,4.5,3.1,4,5.8l-16.9,91.8C74.9,314.3,72.8,316,70.4,316z"/></g><g><path class="st0" d="M93.1,192.5c-0.3,0-0.6,0-0.9-0.1c-2.7-0.5-4.5-3.1-4-5.8l9.4-51c0.5-2.7,3.1-4.5,5.8-4c2.7,0.5,4.5,3.1,4,5.8   l-9.4,51C97.6,190.9,95.5,192.5,93.1,192.5z"/></g><g><path class="st0" d="M281.3,281.6c-2.5,0-4.6-1.8-4.9-4.3L257,137.2c-0.4-2.7,1.5-5.3,4.3-5.6c2.7-0.4,5.3,1.5,5.6,4.3l19.4,140.1   c0.4,2.7-1.5,5.3-4.3,5.6C281.8,281.6,281.6,281.6,281.3,281.6z"/></g><g><path class="st0" d="M284.9,440.5c-2.4,0-4.5-1.7-4.9-4.1l-9.7-52.9c-0.5-2.7,1.3-5.3,4-5.8c2.7-0.5,5.3,1.3,5.8,4l9.7,52.9   c0.5,2.7-1.3,5.3-4,5.8C285.5,440.5,285.2,440.5,284.9,440.5z"/></g><g><path class="st0" d="M254.6,275.4c-2.4,0-4.5-1.7-4.9-4.1l-24.6-133.9c-0.5-2.7,1.3-5.3,4-5.8c2.7-0.5,5.3,1.3,5.8,4l24.6,133.9   c0.5,2.7-1.3,5.3-4,5.8C255.2,275.4,254.9,275.4,254.6,275.4z"/></g><g><path class="st1" d="M306.3,122.6"/></g><g><path class="st1" d="M306.3,122.6"/></g></svg>