<?xml version="1.0" ?><svg viewBox="0 0 512 512" xmlns="http://www.w3.org/2000/svg"><defs><style>.cls-1{fill:#3f456b;}</style></defs><title/><g id="Lines"><path class="cls-1" d="M294,409H122a15,15,0,0,1-15-15V384a15,15,0,0,1,15-15H326a5,5,0,0,1,0,10H122a5,5,0,0,0-5,5v10a5,5,0,0,0,5,5H294a5,5,0,0,1,0,10Z"/><path class="cls-1" d="M374.41,428a5,5,0,0,1-.79-9.94C425.08,409.73,456,389.37,477.13,350c17-31.76,19.17-66.2,6.25-99.6-11.61-30-34.67-57.43-64.94-77.15a188.94,188.94,0,0,0-39.1-19.06l-.92-.35c-9-3.48-12.11-4.44-13.16-4.7a4.91,4.91,0,0,1-3-.86,5,5,0,0,1-1.35-6.91l.05-.08h0l0-.06,14.83-21.36-70.64-49L201.36,220.32l70.65,49,24.75-35.66a5,5,0,0,1,8.22,5.7l-27.6,39.77a5,5,0,0,1-7,1.25l-78.87-54.74a5,5,0,0,1-1.25-7L299.78,61a5,5,0,0,1,7-1.26l78.86,54.74a5,5,0,0,1,1.26,7l-13.68,19.7c2.4.86,5.3,2,8.85,3.35l.74.28a199.18,199.18,0,0,1,41.12,20.08c32,20.86,56.46,50,68.82,81.93,14,36.2,11.66,73.52-6.76,107.92-11.85,22.12-26.81,38.68-45.73,50.64-17.28,10.92-38.55,18.31-65,22.6A5.62,5.62,0,0,1,374.41,428Zm-5.3-281Zm0,0Zm0,0Zm0,0Z"/><path class="cls-1" d="M344.41,379.26c-5.65,0-9.18-.34-9.54-.38a5,5,0,1,1,1-9.94h0a133.47,133.47,0,0,0,43.88-4.39c29.82-8.36,48.81-26.51,56.44-53.94,5.07-18.18,2.14-36.31-8.45-52.45-13.41-20.42-37.92-35.8-62.44-39.19a5,5,0,1,1,1.37-9.91c27.25,3.77,54.5,20.89,69.43,43.61,12.22,18.62,15.59,39.58,9.73,60.63-8.55,30.69-30.57,51.77-63.69,61A143.79,143.79,0,0,1,344.41,379.26Z"/><path class="cls-1" d="M265.63,312.8a14.88,14.88,0,0,1-8.53-2.67l-88.73-61.58a15,15,0,0,1-3.76-20.88l6.84-9.86A15,15,0,0,1,192.32,214l88.73,61.59a15,15,0,0,1,3.76,20.87L278,306.36h0A15,15,0,0,1,265.63,312.8Zm8.23-9.29h0Zm-90.08-82.14a5,5,0,0,0-4.12,2.14l-6.84,9.86a5,5,0,0,0,1.26,7l88.72,61.59a5,5,0,0,0,7-1.26l6.84-9.86a5,5,0,0,0-1.26-7l-88.72-61.58A5,5,0,0,0,183.78,221.37Z"/><path class="cls-1" d="M398.42,94.27a10.58,10.58,0,0,1-6.09-1.89L325.1,45.7c-5.82-4-6.83-13.1-2.19-19.78l6.84-9.85a16.11,16.11,0,0,1,8.82-6.37,12.43,12.43,0,0,1,10.48,1.5l67.23,46.67A11.2,11.2,0,0,1,421,67.32a17.56,17.56,0,0,1-3.31,9.76l-6.84,9.86h0C407.53,91.67,402.85,94.27,398.42,94.27Zm-56.07-75.1a4.22,4.22,0,0,0-1.08.16,6.18,6.18,0,0,0-3.3,2.44l-6.85,9.86c-1.74,2.5-1.19,5.26-.32,5.86L398,84.16c.58.4,2.72-.26,4.56-2.92l6.85-9.86a7.77,7.77,0,0,0,1.52-4.1,1.52,1.52,0,0,0-.38-1.19L343.35,19.42A1.83,1.83,0,0,0,342.35,19.17ZM406.7,84.09h0Z"/><path class="cls-1" d="M369.61,114.47a4.94,4.94,0,0,1-2.85-.9L314.18,77.08a5,5,0,0,1-1.26-7l18.25-26.29a5,5,0,0,1,7-1.25L390.7,79.07A5,5,0,0,1,392,86l-18.25,26.29a5,5,0,0,1-3.22,2.07A5.24,5.24,0,0,1,369.61,114.47ZM324,71.72l44.36,30.79L380.9,84.44l-44.36-30.8Z"/><path class="cls-1" d="M217.17,325.3a54.73,54.73,0,0,1-31.39-10.17c-23.56-16.35-29-44-13.57-68.89a5,5,0,0,1,8.5,5.28c-12.64,20.34-8.41,42.08,10.77,55.4s42.3,10.71,60-7a5,5,0,0,1,7.07,7.07C246.45,319.1,231.82,325.3,217.17,325.3Z"/><path class="cls-1" d="M468.11,500H70.63C62.43,500,56,493.3,56,484.74V472.42C56,464.07,62.15,458,70.63,458H253l16.59-.37c2-.24,19.46-2.87,19.46-19.25V406c0-1.34,0-16.42,10.36-27,6.44-6.59,15.3-10,26.35-10,10.05-1.05,31.49,3.57,42.85,28.69,10.87,24,19.63,44.18,19.72,44.38l.12.3c.23.62,6,15.63,22.6,15.63h57.11c8.49,0,14.89,6.2,14.89,14.42v12.32A14.92,14.92,0,0,1,468.11,500ZM70.63,468c-2.94,0-4.63,1.61-4.63,4.42v12.32c0,2.61,1.59,5.26,4.63,5.26H468.11a5,5,0,0,0,4.89-5.26V472.42c0-3.26-2.52-4.42-4.89-4.42H411c-22.85,0-31.07-19.77-31.94-22.06-.74-1.69-9.21-21.11-19.62-44.13-11.24-24.86-32-22.93-32.88-22.84a5.12,5.12,0,0,1-.56,0c-8.36,0-14.9,2.34-19.44,6.95-7.67,7.8-7.56,19.83-7.56,19.95v32.48c0,20.88-18.73,28.25-28.64,29.22l-.37,0-16.88.38H70.63Z"/><path class="cls-1" d="M330,379H122a5,5,0,0,1-5-5V351a5,5,0,0,1,5-5H330a5,5,0,0,1,5,5v23A5,5,0,0,1,330,379ZM127,369H325V356H127Z"/><path class="cls-1" d="M260,467a5,5,0,0,1-5-5V438.62c0-3.1-2.24-5.62-5-5.62H159c-2.76,0-5,2.52-5,5.62V462a5,5,0,0,1-10,0V438.62C144,430,150.73,423,159,423h91c8.27,0,15,7,15,15.62V462A5,5,0,0,1,260,467Z"/><path class="cls-1" d="M43.68,233.77a5,5,0,0,1-4-1.93,134.71,134.71,0,0,1-28.62-83.49C11.11,73.41,72,12.44,146.82,12.44a135.76,135.76,0,0,1,129.35,94.69,5,5,0,0,1-9.53,3A125.78,125.78,0,0,0,146.82,22.44c-69.31,0-125.71,56.48-125.71,125.91A124.82,124.82,0,0,0,47.62,225.7a5,5,0,0,1-3.94,8.07Z"/><path class="cls-1" d="M146.82,284.26a135.74,135.74,0,0,1-35.1-4.59A5,5,0,0,1,114.3,270a126.74,126.74,0,0,0,51.53,2.82,5,5,0,0,1,1.5,9.89A137.51,137.51,0,0,1,146.82,284.26Z"/><path class="cls-1" d="M329.67,429a18,18,0,1,1,18-18A18,18,0,0,1,329.67,429Zm0-26a8,8,0,1,0,8,8A8,8,0,0,0,329.67,403Z"/><path class="cls-1" d="M325.67,248a46,46,0,1,1,46-46A46.05,46.05,0,0,1,325.67,248Zm0-82a36,36,0,1,0,36,36A36,36,0,0,0,325.67,166Z"/><path class="cls-1" d="M319,333H297a15,15,0,0,1-15-15v-3a15,15,0,0,1,15-15h22a15,15,0,0,1,15,15v3A15,15,0,0,1,319,333Zm-22-23a5,5,0,0,0-5,5v3a5,5,0,0,0,5,5h22a5,5,0,0,0,5-5v-3a5,5,0,0,0-5-5Z"/><path class="cls-1" d="M155,333H133a15,15,0,0,1-15-15v-3a15,15,0,0,1,15-15h22a15,15,0,0,1,15,15v3A15,15,0,0,1,155,333Zm-22-23a5,5,0,0,0-5,5v3a5,5,0,0,0,5,5h22a5,5,0,0,0,5-5v-3a5,5,0,0,0-5-5Z"/><path class="cls-1" d="M144,356a5,5,0,0,1-5-5V328a5,5,0,0,1,10,0v23A5,5,0,0,1,144,356Z"/><path class="cls-1" d="M308,356a5,5,0,0,1-5-5V328a5,5,0,0,1,10,0v23A5,5,0,0,1,308,356Z"/><path class="cls-1" d="M337,294H315a15,15,0,0,1-15-15v-3a15,15,0,0,1,15-15h22a15,15,0,0,1,15,15v3A15,15,0,0,1,337,294Zm-22-23a5,5,0,0,0-5,5v3a5,5,0,0,0,5,5h22a5,5,0,0,0,5-5v-3a5,5,0,0,0-5-5Z"/><path class="cls-1" d="M326,271a5,5,0,0,1-5-5V243a5,5,0,0,1,10,0v23A5,5,0,0,1,326,271Z"/><path class="cls-1" d="M326,208a5,5,0,0,1-5-5v-1a5,5,0,0,1,10,0v1A5,5,0,0,1,326,208Z"/><path class="cls-1" d="M292,446H260a5,5,0,0,1,0-10h32a5,5,0,0,1,0,10Z"/><path class="cls-1" d="M421,468H353a5,5,0,0,1,0-10h68a5,5,0,0,1,0,10Z"/><path class="cls-1" d="M311,468H243a5,5,0,0,1,0-10h68a5,5,0,0,1,0,10Z"/><path class="cls-1" d="M112,309H16a5,5,0,0,1-5-5V230a5,5,0,0,1,5-5h96a5,5,0,0,1,5,5v74A5,5,0,0,1,112,309ZM21,299h86V235H21Z"/></g><g id="Outline"><path class="cls-1" d="M84.1,102.9a5,5,0,0,1-3.53-8.53L103.23,71.7a5,5,0,0,1,7.07,7.07L87.64,101.44A5,5,0,0,1,84.1,102.9Z"/><path class="cls-1" d="M196.75,95.48a5,5,0,0,1-4.81-3.62l-8.86-30.8a5,5,0,0,1,9.61-2.77l8.86,30.81a5,5,0,0,1-3.42,6.18A4.75,4.75,0,0,1,196.75,95.48Z"/><path class="cls-1" d="M176.66,165.53a5,5,0,0,1-1.07-9.89l31.3-6.89a5,5,0,1,1,2.15,9.76l-31.3,6.9A5,5,0,0,1,176.66,165.53Z"/><path class="cls-1" d="M139.56,87a5,5,0,0,1-1.8-.34,5,5,0,0,1-2.87-6.46L146.4,50.33a5,5,0,0,1,9.34,3.59L144.23,83.83A5,5,0,0,1,139.56,87Z"/><path class="cls-1" d="M159.71,205.49a5,5,0,0,1-4.8-3.63L146.1,171a5,5,0,0,1,9.62-2.74l8.8,30.81a5,5,0,0,1-3.43,6.18A4.7,4.7,0,0,1,159.71,205.49Z"/><path class="cls-1" d="M74.86,208.76a5,5,0,0,1-3-9l25.72-19.13a5,5,0,1,1,6,8L77.84,207.77A5,5,0,0,1,74.86,208.76Z"/><path class="cls-1" d="M146.79,229.51a4.9,4.9,0,0,1-2-.43l-29.36-12.86a5,5,0,0,1,4-9.16l29.35,12.86a5,5,0,0,1-2,9.59Z"/><path class="cls-1" d="M54.29,190.58a5,5,0,0,1-3.9-8.12l20-25a5,5,0,1,1,7.8,6.25l-20,25A5,5,0,0,1,54.29,190.58Z"/><path class="cls-1" d="M172.53,119.6a5.07,5.07,0,0,1-.94-.09l-31.48-6a5,5,0,1,1,1.87-9.82l31.48,6a5,5,0,0,1-.93,9.91Z"/><path class="cls-1" d="M88.15,140.8a5,5,0,0,1-1.72-.31l-30.1-11a5,5,0,0,1,3.44-9.4l30.1,11a5,5,0,0,1-1.72,9.7Z"/><path class="cls-1" d="M118.16,167.46a5,5,0,0,1-4-8.06l19.62-25.34a5,5,0,1,1,7.91,6.12l-19.62,25.34A5,5,0,0,1,118.16,167.46Z"/><path class="cls-1" d="M216.16,129.46a5,5,0,0,1-3.95-8.06l19.62-25.34a5,5,0,1,1,7.91,6.12l-19.62,25.34A5,5,0,0,1,216.16,129.46Z"/><path class="cls-1" d="M91,258.9H35.5a5,5,0,0,1,0-10H91a5,5,0,1,1,0,10Z"/><path class="cls-1" d="M91,284.33H35.5a5,5,0,0,1,0-10H91a5,5,0,0,1,0,10Z"/></g></svg>