<?xml version="1.0" ?><svg viewBox="0 0 512 512" xmlns="http://www.w3.org/2000/svg"><defs><style>.cls-1{fill:#3f456b;}</style></defs><title/><g id="Lines"><path class="cls-1" d="M452.57,500.08c-3.5,0-7.88-.48-11.32-3.82-3.23-3.13-4.83-8-4.9-14.84-.78-4.86-6.83-45.92,5.25-83,13.85-42.49-20.33-75.28-20.67-75.6a5,5,0,0,1,6.85-7.29c1.6,1.51,39.13,37.53,23.33,86-11.82,36.22-4.9,78.19-4.83,78.61a4.76,4.76,0,0,1,.07.84c0,5.47,1.16,7.41,1.86,8.08,1.14,1.12,3.7,1,6.16,1,.69,0,1.35,0,2,0,1.94,0,2.41-.59,2.57-.79,1.06-1.34.88-4.68.56-6.09,0-.07,0-.15-.05-.23-.38-2.12-9.06-52.37,15.69-91.56,21.85-34.58-3.74-67.21-4-67.54a5,5,0,0,1,7.8-6.25A77.15,77.15,0,0,1,491,341.64c5.78,19.2,3.22,38.23-7.39,55-22.2,35.15-14.7,82.1-14.32,84.37.31,1.45,1.69,9.11-2.52,14.4-1.66,2.08-4.8,4.56-10.39,4.56-.53,0-1.09,0-1.67,0S453.32,500.08,452.57,500.08Z"/><path class="cls-1" d="M496,324H16a5,5,0,0,1-5-5V223a5,5,0,0,1,5-5H496a5,5,0,0,1,5,5v96A5,5,0,0,1,496,324ZM21,314H491V228H21Z"/><path class="cls-1" d="M176,324a5,5,0,0,1-5-5V223a5,5,0,0,1,10,0v96A5,5,0,0,1,176,324Z"/><path class="cls-1" d="M337,324a5,5,0,0,1-5-5V223a5,5,0,0,1,10,0v96A5,5,0,0,1,337,324Z"/><path class="cls-1" d="M145,212a93,93,0,1,1,93-93A93.11,93.11,0,0,1,145,212Zm0-176a83,83,0,1,0,83,83A83.09,83.09,0,0,0,145,36Z"/><path class="cls-1" d="M496,227.67a5,5,0,0,1-5-5V20H293.33V142a5,5,0,0,1-10,0V15a5,5,0,0,1,5-5H496a5,5,0,0,1,5,5V222.67A5,5,0,0,1,496,227.67Z"/><path class="cls-1" d="M268,253H245a5,5,0,0,1,0-10h23a5,5,0,0,1,0,10Z"/><path class="cls-1" d="M108,253H85a5,5,0,0,1,0-10h23a5,5,0,0,1,0,10Z"/><path class="cls-1" d="M428,253H405a5,5,0,0,1,0-10h23a5,5,0,0,1,0,10Z"/><path class="cls-1" d="M91,228a5.52,5.52,0,0,1-.81-.06,5,5,0,0,1-4.14-5.74l5-31a5,5,0,0,1,9.88,1.6l-5,31A5,5,0,0,1,91,228Z"/><path class="cls-1" d="M199,228a5,5,0,0,1-4.93-4.2l-5-31a5,5,0,1,1,9.88-1.6l5,31a5,5,0,0,1-4.14,5.74A5.52,5.52,0,0,1,199,228Z"/><path class="cls-1" d="M496,124H289a5,5,0,0,1,0-10H496a5,5,0,0,1,0,10Z"/><path class="cls-1" d="M462.17,124H397a15,15,0,0,1-15-15V87a15,15,0,0,1,15-15h65.17a15,15,0,0,1,15,15v22A15,15,0,0,1,462.17,124ZM397,82a5,5,0,0,0-5,5v22a5,5,0,0,0,5,5h65.17a5,5,0,0,0,5-5V87a5,5,0,0,0-5-5Z"/><path class="cls-1" d="M441.83,82a5,5,0,0,1-5-5V62.42a.86.86,0,0,0-.83-.84H423.17a.86.86,0,0,0-.84.84V77a5,5,0,0,1-10,0V62.42a10.85,10.85,0,0,1,10.84-10.84H436a10.85,10.85,0,0,1,10.83,10.84V77A5,5,0,0,1,441.83,82Z"/><path class="cls-1" d="M323,227a5,5,0,0,1-5-5V191c0-25.21-18.52-32.23-18.71-32.3A5,5,0,0,1,296,154v-7H280v7a5,5,0,0,1-3.29,4.7C276,159,258,166.06,258,191v31a5,5,0,0,1-10,0V191c0-25.38,15.13-36.44,22-40.16V142a5,5,0,0,1,5-5h26a5,5,0,0,1,5,5v8.84c6.87,3.72,22,14.78,22,40.16v31A5,5,0,0,1,323,227Z"/><path class="cls-1" d="M453,228H425a15,15,0,0,1-15-15V159a15,15,0,0,1,15-15h28a15,15,0,0,1,15,15v54A15,15,0,0,1,453,228Zm-28-74a5,5,0,0,0-5,5v54a5,5,0,0,0,5,5h28a5,5,0,0,0,5-5V159a5,5,0,0,0-5-5Z"/><path class="cls-1" d="M463,184H415a5,5,0,0,1,0-10h48a5,5,0,0,1,0,10Z"/><path class="cls-1" d="M394,228H345a5,5,0,0,1-5-5V179a5,5,0,0,1,5-5h49a5,5,0,0,1,5,5v44A5,5,0,0,1,394,228Zm-44-10h39V184H350Z"/><path class="cls-1" d="M363,124H314a5,5,0,0,1-5-5V75a5,5,0,0,1,5-5h49a5,5,0,0,1,5,5v44A5,5,0,0,1,363,124Zm-44-10h39V80H319Z"/><path class="cls-1" d="M192,500H160a5,5,0,0,1-5-5V367a5,5,0,0,1,5-5h32a5,5,0,0,1,5,5V495A5,5,0,0,1,192,500Zm-27-10h22V372H165Z"/><path class="cls-1" d="M321,452H192a5,5,0,0,1-5-5V367a5,5,0,0,1,5-5H321a5,5,0,0,1,5,5v80A5,5,0,0,1,321,452ZM197,442H316V372H197Z"/><path class="cls-1" d="M353,500H321a5,5,0,0,1-5-5V367a5,5,0,0,1,5-5h32a5,5,0,0,1,5,5V495A5,5,0,0,1,353,500Zm-27-10h22V372H326Z"/><path class="cls-1" d="M353,372a5,5,0,0,1-5-5c0-8.47-3-14.18-9.31-17.44A24,24,0,0,0,329,347H184c-5.93,0-10.53,1.65-13.68,4.89-5.54,5.72-5.33,14.84-5.32,14.93a5,5,0,0,1-10,.38c0-.54-.43-13.35,8.07-22.19,5.1-5.31,12.15-8,20.93-8H329c.29,0,29,.34,29,30A5,5,0,0,1,353,372Z"/><path class="cls-1" d="M54.78,500.08c-.75,0-1.46,0-2.11,0s-1.14,0-1.67,0c-5.59,0-8.73-2.48-10.39-4.56-4.21-5.29-2.83-12.95-2.52-14.4.38-2.24,7.89-49.2-14.32-84.37-10.61-16.8-13.16-35.83-7.39-55a77.15,77.15,0,0,1,12.05-24.1,5,5,0,0,1,7.81,6.25h0c-1.06,1.33-25.76,33.11-4,67.54C57,430.52,48.3,480.77,47.92,482.89a1.55,1.55,0,0,1-.05.23c-.38,1.76-.4,4.89.57,6.1.16.19.63.78,2.56.78.63,0,1.3,0,2,0,2.46.08,5,.16,6.16-1,.7-.67,1.86-2.61,1.86-8.08a4.76,4.76,0,0,1,.07-.84c.07-.42,7-42.39-4.82-78.61-15.81-48.46,21.72-84.48,23.32-86a5,5,0,0,1,6.86,7.29,87.4,87.4,0,0,0-15.75,22.07c-9,17.86-10.69,35.87-4.93,53.53,12.09,37.05,6,78.11,5.25,83-.06,6.86-1.67,11.71-4.9,14.84C62.66,499.6,58.28,500.08,54.78,500.08Z"/></g><g id="Outline"><path class="cls-1" d="M104,153a5,5,0,0,1-3.54-8.54l70-70a5,5,0,1,1,7.08,7.08l-70,70A5,5,0,0,1,104,153Z"/><path class="cls-1" d="M145,152a5,5,0,0,1-3.54-8.54l28-28a5,5,0,1,1,7.08,7.08l-28,28A5,5,0,0,1,145,152Z"/></g></svg>