<?xml version="1.0" ?><svg viewBox="0 0 512 512" xmlns="http://www.w3.org/2000/svg"><defs><style>.cls-1{fill:#3f456b;}</style></defs><title/><g id="Lines"><path class="cls-1" d="M462.5,434H46a35,35,0,0,1-35-35V109A35,35,0,0,1,46,74H80a5,5,0,0,1,0,10H46a25,25,0,0,0-25,25V399a25,25,0,0,0,25,25H462.5a74.35,74.35,0,0,0,12.34-1.61A25.07,25.07,0,0,0,491,399V109a25,25,0,0,0-25-25H242.38a5,5,0,0,1,0-10H466a35,35,0,0,1,35,35V399a35.11,35.11,0,0,1-23.06,32.91,4.84,4.84,0,0,1-.65.19C476.94,432.17,468.47,434,462.5,434Zm13.73-6.79h0Z"/><path class="cls-1" d="M296,475a5,5,0,0,1-5-5V429a5,5,0,0,1,10,0v41A5,5,0,0,1,296,475Z"/><path class="cls-1" d="M216,475a5,5,0,0,1-5-5V429a5,5,0,0,1,10,0v41A5,5,0,0,1,216,475Z"/><path class="cls-1" d="M368.08,500.28a5,5,0,0,1-5-5V482.43a5.73,5.73,0,0,0-5.72-5.72H155.68a5.72,5.72,0,0,0-5.71,5.72v12.85a5,5,0,0,1-10,0V482.43a15.73,15.73,0,0,1,15.71-15.72H357.36a15.74,15.74,0,0,1,15.72,15.72v12.85A5,5,0,0,1,368.08,500.28Z"/><path class="cls-1" d="M496,357H16a5,5,0,0,1,0-10H496a5,5,0,0,1,0,10Z"/><path class="cls-1" d="M256,411.55a22,22,0,1,1,22-22A22,22,0,0,1,256,411.55Zm0-33.93a12,12,0,1,0,12,12A12,12,0,0,0,256,377.62Z"/><path class="cls-1" d="M396,501H117a5,5,0,0,1,0-10H396a5,5,0,0,1,0,10Z"/><path class="cls-1" d="M30.11,501a5,5,0,0,1-4.95-4.25,26.57,26.57,0,0,1,6.58-20.13c9-10.57,25.83-15.93,49.9-15.93,13.36,0,30.65-2.39,37.24-13.75,2.58-4.45,2.43-8.17,2.23-13.33,0-1.47-.11-3-.11-4.64a5,5,0,0,1,10,0c0,1.46.05,2.88.11,4.26.22,5.79.45,11.77-3.58,18.72-7.1,12.26-23,18.74-45.89,18.74-25.95,0-37.23,6.65-42.13,12.23-5.23,6-4.5,12.08-4.46,12.33A5,5,0,0,1,30.88,501,5.09,5.09,0,0,1,30.11,501Z"/><path class="cls-1" d="M339,298.11a76.08,76.08,0,0,1-75.95-76V200l-.06-1.84a1.09,1.09,0,0,1,0-.18,76,76,0,1,1,151.94,0l0,2.12.05,21.95A76.1,76.1,0,0,1,339,298.11Zm-66-100.2.07,1.84v22.32a66,66,0,1,0,131.94,0l-.07-24A66,66,0,1,0,273,197.91Z"/><path class="cls-1" d="M263.07,235.42a19.5,19.5,0,0,1-12-3.81C245.72,227.48,243,220.54,243,211c0-9.08,2.62-15.81,7.79-20,7.15-5.8,16.06-4.11,17-3.9a5,5,0,0,1-2,9.79c-.16,0-5.28-1-8.76,1.92-2.68,2.2-4,6.3-4,12.18,0,4.29.72,10,4.13,12.65s8.58,1.52,8.64,1.5a5,5,0,0,1,2.5,9.69A22.52,22.52,0,0,1,263.07,235.42Z"/><path class="cls-1" d="M414.35,235.44a21.73,21.73,0,0,1-4.19-.38,5,5,0,0,1,2-9.79c.16,0,5.28.95,8.76-1.93,2.68-2.2,4-6.29,4-12.17,0-4.3-.72-10-4.13-12.65s-8.58-1.52-8.64-1.51a5,5,0,0,1-2.5-9.68c.39-.1,9.78-2.49,17.2,3.23,5.35,4.13,8.07,11.06,8.07,20.61,0,9.08-2.62,15.81-7.79,20A20.29,20.29,0,0,1,414.35,235.44Z"/><path class="cls-1" d="M434,357a5,5,0,0,1-5-5V318c0-32.54-32.27-52.53-32.6-52.73a5,5,0,1,1,5.2-8.54c1.52.93,37.4,23.17,37.4,61.27v34A5,5,0,0,1,434,357Z"/><path class="cls-1" d="M304,330a5,5,0,0,1-3.17-1.13c-1-.81-24-20.16-17.16-57.7a5,5,0,1,1,9.84,1.8c-4.18,22.91,4.64,37.72,10,44.27l20.31-27.7a5,5,0,0,1,8.07,5.92L308,328a5,5,0,0,1-3.4,2A4.44,4.44,0,0,1,304,330Z"/><path class="cls-1" d="M377.25,330a4.44,4.44,0,0,1-.63,0,5,5,0,0,1-3.4-2l-23.84-32.5a5,5,0,0,1,8.07-5.92l20.33,27.72c5.35-6.52,14.17-21.25,10-44.29a5,5,0,1,1,9.83-1.8c6.86,37.54-16.17,56.89-17.15,57.7A5,5,0,0,1,377.25,330Z"/><path class="cls-1" d="M307.67,356a5,5,0,0,1-5-5V320a5,5,0,0,1,10,0v31A5,5,0,0,1,307.67,356Z"/><path class="cls-1" d="M372,356a5,5,0,0,1-5-5V320a5,5,0,0,1,10,0v31A5,5,0,0,1,372,356Z"/><path class="cls-1" d="M289,191.28c-12.39,0-20.29-2.26-21.06-2.49a5,5,0,0,1,2.85-9.58c.62.17,42,11.59,86.11-23.14a5,5,0,0,1,7.4,1.4c15.1,25.76,43.09,21.64,43.37,21.59a5,5,0,1,1,1.57,9.88c-1.34.21-31.59,4.66-50.51-21.71C331.64,187,306.07,191.28,289,191.28Z"/><path class="cls-1" d="M306,207a5,5,0,0,1-5-5v-1a5,5,0,0,1,10,0v1A5,5,0,0,1,306,207Z"/><path class="cls-1" d="M371,207a5,5,0,0,1-5-5v-1a5,5,0,0,1,10,0v1A5,5,0,0,1,371,207Z"/><path class="cls-1" d="M250,352a5,5,0,0,1-5-5V318.5c-24.71-6.2-45.29-20.07-58.26-39.35-9.63-14.33-19.75-38.24-16.57-58.46a24.09,24.09,0,0,1,14.32-18.21,23.33,23.33,0,0,1,22.38,1.66c5.38,3.56,9.49,9.62,11.88,17.53,12.74,42.19,62.52,38.12,63,38.07a5,5,0,0,1,.92,10,89.32,89.32,0,0,1-30.75-3.52c-21.72-6.49-36.51-20.89-42.77-41.62-1.19-3.94-3.51-9.23-7.82-12.08a13.19,13.19,0,0,0-12.82-.85,14.1,14.1,0,0,0-8.48,10.61c-1.71,10.85,1.19,30.81,15,51.33,12.2,18.14,32.09,30.95,56,36.07a5,5,0,0,1,3.95,4.89V347A5,5,0,0,1,250,352Z"/><path class="cls-1" d="M177.29,252a5,5,0,0,1-1.74-9.69l40.17-14.89a5,5,0,1,1,3.47,9.37L179,251.69A5,5,0,0,1,177.29,252Z"/><path class="cls-1" d="M339,327a5,5,0,0,1-5-5V293a5,5,0,0,1,10,0v29A5,5,0,0,1,339,327Z"/><path class="cls-1" d="M250,204h-.11a5,5,0,0,1-4.89-5.11,115.64,115.64,0,0,1,12.57-46.21C268.7,131.39,292,106,340,106c47.5,0,70,25.16,80.6,46.26A112.72,112.72,0,0,1,432,198a5,5,0,0,1-10,0,104.22,104.22,0,0,0-10.5-41.56C398,129.6,373.9,116,340,116c-34.49,0-59.24,13.9-73.57,41.32A106.49,106.49,0,0,0,255,199.11,5,5,0,0,1,250,204Z"/><path class="cls-1" d="M385.22,270.3a83,83,0,0,1-15.13-1.5,5,5,0,1,1,1.82-9.83c15.22,2.83,26.89,1.16,34.71-5,9-7,10.11-18,10.21-19.17v-6.1a5,5,0,1,1,10,0V235a1.93,1.93,0,0,1,0,.24c0,.66-.92,16.26-13.89,26.52C405.74,267.45,396.46,270.3,385.22,270.3Z"/><path class="cls-1" d="M160,88a5,5,0,0,1-5-5V82a5,5,0,0,1,10,0v1A5,5,0,0,1,160,88Z"/><path class="cls-1" d="M193,88a5,5,0,0,1-5-5V82a5,5,0,0,1,10,0v1A5,5,0,0,1,193,88Z"/><path class="cls-1" d="M129,88a5,5,0,0,1-5-5V82a5,5,0,0,1,10,0v1A5,5,0,0,1,129,88Z"/><path class="cls-1" d="M221,165a5,5,0,0,1-2.55-.7l-26.09-15.46A99,99,0,0,1,160.5,154C113.36,154,75,121.7,75,82s38.36-72,85.5-72S246,42.3,246,82c0,17.3-7.31,33.88-20.63,46.93l.63,31a5,5,0,0,1-5,5.1Zm-28.1-26.65a5,5,0,0,1,2.55.7l20.37,12.07-.49-24.19a5,5,0,0,1,1.61-3.78C229.23,111.8,236,97.18,236,82c0-34.19-33.87-62-75.5-62S85,47.81,85,82s33.87,62,75.5,62a89,89,0,0,0,30.68-5.34A4.88,4.88,0,0,1,192.9,138.35Z"/></g><g id="Outline"><path class="cls-1" d="M141,261.67H49a5,5,0,1,1,0-10h92a5,5,0,0,1,0,10Z"/><path class="cls-1" d="M141,238H49a5,5,0,0,1,0-10h92a5,5,0,0,1,0,10Z"/><path class="cls-1" d="M141,285.33H49a5,5,0,0,1,0-10h92a5,5,0,0,1,0,10Z"/><path class="cls-1" d="M102.21,309H49a5,5,0,0,1,0-10h53.21a5,5,0,0,1,0,10Z"/><path class="cls-1" d="M141,213H49a5,5,0,0,1-5-5V174a5,5,0,0,1,5-5h92a5,5,0,0,1,5,5v34A5,5,0,0,1,141,213ZM54,203h82V179H54Z"/></g></svg>