<?xml version="1.0" ?><svg viewBox="0 0 512 512" xmlns="http://www.w3.org/2000/svg"><defs><style>.cls-1{fill:#3f456b;}</style></defs><title/><g id="Lines"><path class="cls-1" d="M194,62.5a5,5,0,0,1,5-5h0a5,5,0,0,1,5,5h0a5,5,0,0,1-5,5h0A5,5,0,0,1,194,62.5Z"/><path class="cls-1" d="M161.73,62.5a5,5,0,0,1,5-5h0a5,5,0,0,1,5,5h0a5,5,0,0,1-5,5h0A5,5,0,0,1,161.73,62.5Z"/><path class="cls-1" d="M129.47,62.5a5,5,0,0,1,5-5h0a5,5,0,0,1,5,5h0a5,5,0,0,1-5,5h0A5,5,0,0,1,129.47,62.5Z"/><path class="cls-1" d="M431.69,500H81.31A37.36,37.36,0,0,1,44,462.69V142.31A37.36,37.36,0,0,1,81.31,105H431.69A37.36,37.36,0,0,1,469,142.31V462.69A37.36,37.36,0,0,1,431.69,500ZM81.31,115A27.34,27.34,0,0,0,54,142.31V462.69A27.34,27.34,0,0,0,81.31,490H431.69A27.34,27.34,0,0,0,459,462.69V142.31A27.34,27.34,0,0,0,431.69,115Z"/><path class="cls-1" d="M464,157a5,5,0,0,1-5-5V47.31A27.34,27.34,0,0,0,431.69,20H81.31A27.34,27.34,0,0,0,54,47.31V151a5,5,0,0,1-10,0V47.31A37.36,37.36,0,0,1,81.31,10H431.69A37.36,37.36,0,0,1,469,47.31V152A5,5,0,0,1,464,157Z"/><path class="cls-1" d="M462,189H49a5,5,0,0,1,0-10H462a5,5,0,0,1,0,10Z"/><path class="cls-1" d="M377.5,91.47a29.09,29.09,0,1,1,29.09-29.08A29.12,29.12,0,0,1,377.5,91.47Zm0-48.17a19.09,19.09,0,1,0,19.09,19.09A19.11,19.11,0,0,0,377.5,43.3Z"/><path class="cls-1" d="M303.5,91.47a29.09,29.09,0,1,1,29.09-29.08A29.12,29.12,0,0,1,303.5,91.47Zm0-48.17a19.09,19.09,0,1,0,19.09,19.09A19.11,19.11,0,0,0,303.5,43.3Z"/></g><g id="Outline"><path class="cls-1" d="M306.87,304.83c-17.74,0-38.26-4.52-59.58-18.3-19.06-12.31-40.11-16.1-62.57-11.26a93.07,93.07,0,0,0-28.63,11.23,5,5,0,0,1-5.52-8.33,100.76,100.76,0,0,1,31.65-12.59c17.39-3.82,43.74-4.74,70.49,12.55,53,34.28,100.36,5.71,105.58,2.34a5,5,0,1,1,5.42,8.4C360.05,291.23,337.65,304.83,306.87,304.83Z"/><path class="cls-1" d="M306.87,345.83c-17.74,0-38.26-4.52-59.58-18.3-19.06-12.31-40.11-16.1-62.57-11.26a93.07,93.07,0,0,0-28.63,11.23,5,5,0,0,1-5.52-8.33,100.76,100.76,0,0,1,31.65-12.59c17.39-3.82,43.74-4.74,70.49,12.55,53,34.28,100.36,5.71,105.58,2.34a5,5,0,1,1,5.42,8.4C360.05,332.23,337.65,345.83,306.87,345.83Z"/><path class="cls-1" d="M306.87,386.83c-17.74,0-38.26-4.52-59.58-18.3-19.06-12.31-40.11-16.1-62.57-11.26a93.07,93.07,0,0,0-28.63,11.23,5,5,0,0,1-5.52-8.33,100.76,100.76,0,0,1,31.65-12.59c17.39-3.82,43.74-4.74,70.49,12.55,53,34.28,100.36,5.71,105.58,2.34a5,5,0,1,1,5.42,8.4C360.05,373.23,337.65,386.83,306.87,386.83Z"/><path class="cls-1" d="M76,450a5,5,0,0,1,5-5h0a5,5,0,0,1,5,5h0a5,5,0,0,1-5,5h0A5,5,0,0,1,76,450Zm0-20a5,5,0,0,1,5-5h0a5,5,0,0,1,5,5h0a5,5,0,0,1-5,5h0A5,5,0,0,1,76,430Zm0-20a5,5,0,0,1,5-5h0a5,5,0,0,1,5,5h0a5,5,0,0,1-5,5h0A5,5,0,0,1,76,410Zm0-20a5,5,0,0,1,5-5h0a5,5,0,0,1,5,5h0a5,5,0,0,1-5,5h0A5,5,0,0,1,76,390Zm0-20a5,5,0,0,1,5-5h0a5,5,0,0,1,5,5h0a5,5,0,0,1-5,5h0A5,5,0,0,1,76,370Zm0-20a5,5,0,0,1,5-5h0a5,5,0,0,1,5,5h0a5,5,0,0,1-5,5h0A5,5,0,0,1,76,350Zm0-20a5,5,0,0,1,5-5h0a5,5,0,0,1,5,5h0a5,5,0,0,1-5,5h0A5,5,0,0,1,76,330Zm0-20a5,5,0,0,1,5-5h0a5,5,0,0,1,5,5h0a5,5,0,0,1-5,5h0A5,5,0,0,1,76,310Zm0-20a5,5,0,0,1,5-5h0a5,5,0,0,1,5,5h0a5,5,0,0,1-5,5h0A5,5,0,0,1,76,290Zm0-20a5,5,0,0,1,5-5h0a5,5,0,0,1,5,5h0a5,5,0,0,1-5,5h0A5,5,0,0,1,76,270Zm0-20a5,5,0,0,1,5-5h0a5,5,0,0,1,5,5h0a5,5,0,0,1-5,5h0A5,5,0,0,1,76,250Zm0-20a5,5,0,0,1,5-5h0a5,5,0,0,1,5,5h0a5,5,0,0,1-5,5h0A5,5,0,0,1,76,230Z"/><path class="cls-1" d="M429,450a5,5,0,0,1,5-5h0a5,5,0,0,1,5,5h0a5,5,0,0,1-5,5h0A5,5,0,0,1,429,450Zm0-20a5,5,0,0,1,5-5h0a5,5,0,0,1,5,5h0a5,5,0,0,1-5,5h0A5,5,0,0,1,429,430Zm0-20a5,5,0,0,1,5-5h0a5,5,0,0,1,5,5h0a5,5,0,0,1-5,5h0A5,5,0,0,1,429,410Zm0-20a5,5,0,0,1,5-5h0a5,5,0,0,1,5,5h0a5,5,0,0,1-5,5h0A5,5,0,0,1,429,390Zm0-20a5,5,0,0,1,5-5h0a5,5,0,0,1,5,5h0a5,5,0,0,1-5,5h0A5,5,0,0,1,429,370Zm0-20a5,5,0,0,1,5-5h0a5,5,0,0,1,5,5h0a5,5,0,0,1-5,5h0A5,5,0,0,1,429,350Zm0-20a5,5,0,0,1,5-5h0a5,5,0,0,1,5,5h0a5,5,0,0,1-5,5h0A5,5,0,0,1,429,330Zm0-20a5,5,0,0,1,5-5h0a5,5,0,0,1,5,5h0a5,5,0,0,1-5,5h0A5,5,0,0,1,429,310Zm0-20a5,5,0,0,1,5-5h0a5,5,0,0,1,5,5h0a5,5,0,0,1-5,5h0A5,5,0,0,1,429,290Zm0-20a5,5,0,0,1,5-5h0a5,5,0,0,1,5,5h0a5,5,0,0,1-5,5h0A5,5,0,0,1,429,270Zm0-20a5,5,0,0,1,5-5h0a5,5,0,0,1,5,5h0a5,5,0,0,1-5,5h0A5,5,0,0,1,429,250Zm0-20a5,5,0,0,1,5-5h0a5,5,0,0,1,5,5h0a5,5,0,0,1-5,5h0A5,5,0,0,1,429,230Z"/></g></svg>