<?xml version="1.0" ?><svg id="Lines" viewBox="0 0 512 512" xmlns="http://www.w3.org/2000/svg"><defs><style>.cls-1{fill:#3f456b;}</style></defs><title/><path class="cls-1" d="M435.7,350H318.6c-13.59,0-40.12-9-43.3-42.87-1.49-15.86-4-44.67-7.51-85.66A20.06,20.06,0,0,0,256,218c-5.86,0-9.25,2-10.73,3.25-3.51,41.08-6,70-7.52,85.87C234.56,341,208,350,194.45,350H77.34c-15.06,0-28-7.7-36.4-21.67A64,64,0,0,1,33.33,309a.36.36,0,0,0,0-.11c-.07-.4-.13-.8-.17-1.2L24.73,224A15,15,0,0,1,11,209V191a15,15,0,0,1,15-15H486a15,15,0,0,1,15,15v18a15,15,0,0,1-12.68,14.82l-8.42,83.86c0,.48-.11.91-.19,1.33a63,63,0,0,1-7.61,19.33C463.69,342.3,450.76,350,435.7,350ZM256,208c13,0,20,7.28,20.26,7.59a5,5,0,0,1,1.32,3c3.59,42,6.17,71.52,7.68,87.61,2.5,26.74,22.9,33.81,33.34,33.81H435.7c11.41,0,21.3-6,27.84-16.83a52.69,52.69,0,0,0,6.34-16,.36.36,0,0,0,0-.1c0-.13,0-.25.06-.37l8.84-88.17a5,5,0,0,1,5-4.5H486a5,5,0,0,0,5-5V191a5,5,0,0,0-5-5H26a5,5,0,0,0-5,5v18a5,5,0,0,0,5,5h3.26a5,5,0,0,1,5,4.5l8.85,88.18c0,.14.05.3.08.46a54.24,54.24,0,0,0,6.34,16C56,334,65.93,340,77.34,340H194.45c10.43,0,30.83-7.07,33.34-33.81,1.51-16.11,4.09-45.59,7.67-87.61a5.05,5.05,0,0,1,1-2.61C237.08,215.16,242.9,208,256,208ZM432.21,326.27H322.14A25,25,0,0,1,311.42,323c-6.63-3.9-10.45-10.7-11.34-20.22-1.92-20.49-6.42-76.87-6.71-80.4-.93-6.49,1.39-10.68,3.51-13.05,6-6.7,16.78-6.63,18.45-6.59H440c9.47,0,16.31,2.48,20.32,7.38a16,16,0,0,1,3.4,12.37l-8.39,80.21a5.81,5.81,0,0,1-.09.58c0,.15-.07.36-.12.62C451.76,322.38,440.81,326.27,432.21,326.27Zm-109.64-10H432.21c7.27,0,11.31-4.38,13.11-14.19.05-.26.09-.49.13-.68l8.38-80.12a2.57,2.57,0,0,1,.07-.46,6,6,0,0,0-1.35-4.46c-2-2.37-6.35-3.63-12.51-3.63h-125c-2,0-8.19.4-10.72,3.26-.67.75-1.5,2.09-1,5.06,0,.12,0,.24,0,.36.05.59,4.74,59.44,6.71,80.42.78,8.3,4,11.13,6.44,12.54A15.07,15.07,0,0,0,322.57,316.27Zm-131.9,10H80.87c-8.59,0-19.55-3.89-22.94-22.38l-.12-.62a5.86,5.86,0,0,1-.1-.58l-8.39-80.21a16.07,16.07,0,0,1,3.4-12.37c4-4.9,10.86-7.38,20.33-7.38h124.7c1.68,0,12.48-.1,18.45,6.59,2.13,2.37,4.44,6.56,3.51,13.05-.28,3.53-4.78,59.91-6.71,80.4-.89,9.52-4.7,16.32-11.33,20.22A25,25,0,0,1,191,326.26Zm-123-24.87.13.68c1.8,9.81,5.85,14.19,13.11,14.19H190.51a15.14,15.14,0,0,0,6.1-1.91c2.39-1.4,5.66-4.23,6.43-12.52h0c2-21,6.67-79.83,6.71-80.42,0-.12,0-.24.05-.36.45-3-.39-4.32-1.06-5.07-2.62-2.94-9.11-3.32-10.71-3.25h-125c-6.16,0-10.49,1.26-12.52,3.63a6,6,0,0,0-1.33,4.55,1.64,1.64,0,0,1,0,.37Z"/><path class="cls-1" d="M448,501H65a5,5,0,0,1-5-5V342.84a5,5,0,0,1,10,0V491H443V343.5a5,5,0,0,1,10,0V496A5,5,0,0,1,448,501Z"/><path class="cls-1" d="M448,186a5,5,0,0,1-5-5V21H70V181a5,5,0,0,1-10,0V16a5,5,0,0,1,5-5H448a5,5,0,0,1,5,5V181A5,5,0,0,1,448,186Z"/><path class="cls-1" d="M281.84,133h-51.5a5,5,0,0,1-5-5V47a5,5,0,0,1,5-5H281a5,5,0,0,1,0,10H235.34v71h46.5a5,5,0,0,1,0,10Z"/><path class="cls-1" d="M282.66,92.5H230.34a5,5,0,0,1,0-10h52.32a5,5,0,0,1,0,10Z"/><path class="cls-1" d="M164,235H103a5,5,0,0,1,0-10h61a5,5,0,0,1,0,10Z"/><path class="cls-1" d="M132.58,304a5,5,0,0,1-5-5V230.72a5,5,0,1,1,10,0V299A5,5,0,0,1,132.58,304Z"/><path class="cls-1" d="M401.57,468H360.43a5,5,0,0,1-4.19-7.73L392.33,405h-31.9a5,5,0,0,1,0-10h41.14a5,5,0,0,1,4.19,7.73L369.67,458h31.9a5,5,0,0,1,0,10Z"/><path class="cls-1" d="M257,468c-20.57,0-26-17-26-26V421c0-9,5.43-26,26-26s26,17,26,26v21C283,451,277.57,468,257,468Zm0-63c-6.64,0-11.15,2.45-13.77,7.48A21.24,21.24,0,0,0,241,421v21a21.26,21.26,0,0,0,2.23,8.52c2.62,5,7.13,7.48,13.77,7.48s11.15-2.45,13.77-7.48A21.25,21.25,0,0,0,273,442V421a21.26,21.26,0,0,0-2.23-8.52C268.15,407.45,263.64,405,257,405Zm21,37h0Z"/><path class="cls-1" d="M132.58,469C106,469,106,443.25,106,434.79c0-12.83,0-39.53,27.23-39.53,5.9,0,20,1.54,23.85,15.82a5,5,0,0,1-9.66,2.59c-1.5-5.58-6.27-8.41-14.19-8.41-14.48,0-17.23,10.38-17.23,29.53,0,20.09,6.63,24.21,16.58,24.21,14.61,0,16.58-6.87,16.58-13.59v-6.49H135.85a5,5,0,1,1,0-10h18.31a5,5,0,0,1,5,5v11.49C159.16,460.62,149.72,469,132.58,469Z"/><path class="cls-1" d="M356,298.5a5,5,0,0,1-5-5v-64a5,5,0,0,1,10,0v64A5,5,0,0,1,356,298.5Z"/><path class="cls-1" d="M406,298.5a5,5,0,0,1-5-5v-64a5,5,0,0,1,10,0v64A5,5,0,0,1,406,298.5Z"/><path class="cls-1" d="M406,265.85H356a5,5,0,1,1,0-10h50a5,5,0,0,1,0,10Z"/></svg>