<?xml version="1.0" ?><svg viewBox="0 0 512 512" xmlns="http://www.w3.org/2000/svg"><defs><style>.cls-1{fill:#3f456b;}</style></defs><title/><g id="Lines"><path class="cls-1" d="M85,381a5,5,0,0,1-5-5V260a5,5,0,0,1,5-5H428a5,5,0,0,1,5,5V375a5,5,0,0,1-10,0V265H90V376A5,5,0,0,1,85,381Z"/><path class="cls-1" d="M256,380a5,5,0,0,1-5-5V155a5,5,0,0,1,10,0V375A5,5,0,0,1,256,380Z"/><path class="cls-1" d="M153,501H16a5,5,0,0,1-5-5V376a5,5,0,0,1,5-5H153a5,5,0,0,1,5,5V496A5,5,0,0,1,153,501ZM21,491H148V381H21Z"/><path class="cls-1" d="M324,501H188a5,5,0,0,1-5-5V376a5,5,0,0,1,5-5H324a5,5,0,0,1,5,5V496A5,5,0,0,1,324,501ZM193,491H319V381H193Z"/><path class="cls-1" d="M496,501H360a5,5,0,0,1-5-5V376a5,5,0,0,1,5-5H496a5,5,0,0,1,5,5V496A5,5,0,0,1,496,501ZM365,491H491V381H365Z"/><path class="cls-1" d="M384,158H128a5,5,0,0,1-5-5V15a5,5,0,0,1,5-5H384a5,5,0,0,1,5,5V153A5,5,0,0,1,384,158ZM133,148H379V20H133Z"/></g><g id="Outline"><path class="cls-1" d="M120,426H51a5,5,0,0,1,0-10h69a5,5,0,0,1,0,10Z"/><path class="cls-1" d="M120,455H51a5,5,0,0,1,0-10h69a5,5,0,0,1,0,10Z"/><path class="cls-1" d="M291,426H222a5,5,0,0,1,0-10h69a5,5,0,0,1,0,10Z"/><path class="cls-1" d="M291,455H222a5,5,0,0,1,0-10h69a5,5,0,0,1,0,10Z"/><path class="cls-1" d="M463,426H394a5,5,0,0,1,0-10h69a5,5,0,0,1,0,10Z"/><path class="cls-1" d="M463,455H394a5,5,0,0,1,0-10h69a5,5,0,0,1,0,10Z"/><path class="cls-1" d="M335.74,59.64H180.1a5,5,0,0,1,0-10H335.74a5,5,0,0,1,0,10Z"/><path class="cls-1" d="M335.74,88.82H180.1a5,5,0,1,1,0-10H335.74a5,5,0,0,1,0,10Z"/><path class="cls-1" d="M279.86,118H180.22a5,5,0,0,1,0-10h99.64a5,5,0,0,1,0,10Z"/></g></svg>