<?xml version="1.0" ?><svg id="Lines" viewBox="0 0 512 512" xmlns="http://www.w3.org/2000/svg"><defs><style>.cls-1{fill:#3f456b;}</style></defs><title/><path class="cls-1" d="M315.21,484H198.79C190,484,182,476,182,467.21V328H42.79C34,328,26,320,26,311.21V194.79C26,187.52,32.28,180,42.79,180H182V39.79C182,32.52,188.28,25,198.79,25H315.21C323.92,25,330,31.08,330,39.79V180H470.21c8.71,0,14.79,6.08,14.79,14.79V311.21c0,10.51-7.52,16.79-14.79,16.79H330V467.21C330,477.72,322.48,484,315.21,484ZM42.79,190c-3.27,0-6.79,1.83-6.79,4.79V311.21c0,3.17,3.62,6.79,6.79,6.79H187a5,5,0,0,1,5,5V467.21c0,3.17,3.62,6.79,6.79,6.79H315.21c3,0,4.79-3.52,4.79-6.79V323a5,5,0,0,1,5-5H470.21c3,0,4.79-3.52,4.79-6.79V194.79c0-3.18-1.61-4.79-4.79-4.79H325a5,5,0,0,1-5-5V39.79c0-3.18-1.61-4.79-4.79-4.79H198.79c-3.27,0-6.79,1.83-6.79,4.79V185a5,5,0,0,1-5,5Z"/></svg>