<?xml version="1.0" ?><svg viewBox="0 0 512 512" xmlns="http://www.w3.org/2000/svg"><defs><style>.cls-1{fill:#3f456b;}</style></defs><title/><g id="Lines"><path class="cls-1" d="M391.45,232a4.88,4.88,0,0,1-1.6-.26,5,5,0,0,1-3.3-3.72c-.15-.72-.31-1.57-.5-2.54-10.91-56.89-43.88-70-56.33-74.35-36.79,5.81-66.11,59.69-66.4,60.24A5,5,0,0,1,257,213.6c-.8-.32-7.82-3.52-10.68-14.61a54.88,54.88,0,0,1,10.25-48.65c12.31-16.56,29.56-23.23,49.89-19.3a78.79,78.79,0,0,1,23.73,9c7.52-4.33,28.59-13.46,55.71-.19a43.49,43.49,0,0,1,16.16,12.83c6.61,8.44,13.26,23.44,7.42,47-5.65,22.63-13.83,30.27-14.75,31.07A5,5,0,0,1,391.45,232Zm-49.21-86.46c35.55,17,47.15,49.72,51.66,68.66a88.45,88.45,0,0,0,5.87-16.9c9.13-36.81-16.68-47.75-17.78-48.2l-.36-.15C364.71,140.6,350.76,142.57,342.24,145.52Zm-46.52-5.6c-10.52,0-21.91,3.9-31.24,16.54l-.31.39A44.69,44.69,0,0,0,256,196.49a17.72,17.72,0,0,0,1.78,4.48c8-13.21,30-45.49,58.73-56.56A55.22,55.22,0,0,0,295.72,139.92Z"/><path class="cls-1" d="M460.43,160.74a5.05,5.05,0,0,1-2.75-.82c-.47-.31-47.9-30.83-100.16-17.28A5,5,0,1,1,355,133c43.86-11.37,83.41,5.2,100,13.89a35.75,35.75,0,0,0-9.63-20.43c-14.43-14.93-39.72-15.18-40-15.18h-.13c-17-.48-31.93,1.8-44.33,6.78a59.32,59.32,0,0,0-17.8,10.71,67.12,67.12,0,0,0-13,17,5,5,0,0,1-8.74-4.86,76,76,0,0,1,15-19.6,69.09,69.09,0,0,1,20.78-12.57c13.66-5.49,29.9-8,48.27-7.5,2,0,29.89.49,47,18.18,9,9.32,13.38,21.6,12.92,36.47a5,5,0,0,1-5,4.85Z"/><path class="cls-1" d="M173.29,236.54a5,5,0,0,1-4.73-6.62,76.27,76.27,0,0,1,10.15-20.53,55.13,55.13,0,0,1,15.57-14.18c10.51-6.52,23.34-10.21,38.12-10.94a54.94,54.94,0,0,1,17.85,2.1A5,5,0,0,1,247.5,196a45,45,0,0,0-14.37-1.75H233c-13.09.64-24.34,3.83-33.41,9.46a45.2,45.2,0,0,0-12.78,11.6A67.83,67.83,0,0,0,178,233.15,5,5,0,0,1,173.29,236.54Z"/><path class="cls-1" d="M280.15,239.9a5,5,0,0,1-2.89-.92c-.09-.06-10.26-7.09-27.87-10.75-16.22-3.36-42.29-4.47-74.41,9.36a5,5,0,0,1-4-9.18c49.87-21.48,86.69-10.27,102.92-2.66-1.92-9.22-5.83-16.53-11.68-21.8a5,5,0,1,1,6.69-7.43c9.75,8.78,15.2,21.6,16.19,38.08a5,5,0,0,1-2.56,4.67A4.9,4.9,0,0,1,280.15,239.9Z"/><path class="cls-1" d="M315.92,143.82a5,5,0,0,1-2.46-.65c-44.13-24.94-88.78-2.68-89.23-2.45a5,5,0,0,1-7.24-3.89c-.08-.69-1.76-17,10.09-30.28,9.57-10.71,24.86-16.14,45.43-16.14,16.24,0,38.89,3.32,54.56,19.1,9.63,9.71,12,19.59,12.11,20a5,5,0,0,1-9.74,2.28c-.34-1.36-8.33-31.39-56.93-31.39-17.6,0-30.38,4.31-38,12.8a30.47,30.47,0,0,0-7.22,15.36c15.69-5.85,53.12-15.55,91.06,5.9a5,5,0,0,1-2.46,9.35Z"/><path class="cls-1" d="M331.63,127.54a4.88,4.88,0,0,1-.85-.07,5,5,0,0,1-4.08-5.78c.09-.52,2.28-12.68,11.79-25.88,8.73-12.11,25.55-27.5,56.1-32,1.66-.22,38.64-4.71,50.16,18.46a5,5,0,0,1-3.5,7.14c-.42.08-41.59,8.33-64.68,23.67a5,5,0,1,1-5.53-8.33c18.68-12.42,47.06-20.22,60.61-23.45C420.06,70.81,396.23,73.67,396,73.7c-51.54,7.62-59.33,49.27-59.4,49.69A5,5,0,0,1,331.63,127.54Z"/><path class="cls-1" d="M322.42,116.9a5,5,0,0,1-4.8-3.62c-10.09-35.07-51-53.27-51.4-53.45a5,5,0,0,1-2.07-7.51c6.17-8.58,16.32-12.44,29.36-11.15a62.91,62.91,0,0,1,17,4.23l.17.07c20.61,9.77,28.27,26,31.06,37.94a63.56,63.56,0,0,1,1.07,23.66,5,5,0,0,1-9.84-1.78c.26-1.48,5.8-35.37-26.47-50.73-1.21-.5-18.78-7.49-29.71-.63,13,7.09,41.57,25.69,50.46,56.58a5,5,0,0,1-3.42,6.19A5.13,5.13,0,0,1,322.42,116.9Z"/><path class="cls-1" d="M101,269.15l-.41,0A5,5,0,0,1,96.89,267c-5.93-8.75-6-19.61-.35-31.4a63.63,63.63,0,0,1,9.82-14.49l.13-.12c12.91-12.69,29.85-18,49-15.23a79,79,0,0,1,24.94,7.92,5,5,0,0,1-4.84,8.75,70.32,70.32,0,0,0-21.81-6.82c-16-2.19-29.52,2-40.19,12.43-.88,1-13.51,15-10.83,27.67,11.15-9.8,38.47-30.17,70.5-27.87a5,5,0,1,1-.71,10C136,235.15,105,267.27,104.65,267.6A5,5,0,0,1,101,269.15Z"/><path class="cls-1" d="M104,389a5,5,0,0,1-4.54-7.09,162.76,162.76,0,0,1,47.05-59.68c29.14-22.84,65.9-35.37,109.28-37.23,46.59-2,88.26,7.54,123.84,28.34A201.82,201.82,0,0,1,441,369.05,5,5,0,0,1,433,375a191.82,191.82,0,0,0-58.38-53c-33.89-19.81-73.72-28.89-118.37-27-93.79,4-132.78,58.8-147.67,91.09A5,5,0,0,1,104,389Z"/><path class="cls-1" d="M291.72,296.06a5,5,0,0,1-5-4.89c-2.29-98.39,26.72-143.21,28-145.07a5,5,0,0,1,8.33,5.53h0c-.07.11-7.2,11.08-14,33.63-6.26,20.83-13.48,56.08-12.33,105.68a5,5,0,0,1-4.88,5.11Z"/><path class="cls-1" d="M330,303a5,5,0,0,1-4.94-4.32c-12.95-94.36,6.42-149.1,7.25-151.39a5,5,0,0,1,9.4,3.42c-.29.8-19.29,55.15-6.75,146.61a5,5,0,0,1-4.27,5.63A4,4,0,0,1,330,303Z"/><path class="cls-1" d="M172.5,220.47h-.28a5,5,0,0,1-4.71-5.27c1.07-18.77,7.49-44.13,32.05-58.35A66.53,66.53,0,0,1,228.91,148H229a5,5,0,0,1,3.54,8.54c-11.7,11.69-16.07,36.89-16.11,37.14a5,5,0,1,1-9.86-1.66c.15-.91,3.1-18,11.14-32.12-14.53,4-38,16.64-40.22,55.86A5,5,0,0,1,172.5,220.47Z"/><path class="cls-1" d="M150,215a5,5,0,0,1-4.73-3.37C136.33,185.69,96.37,177,96,176.89a5,5,0,0,1-.57-9.63c23.27-7.87,42.85-7.51,58.2,1.08,20.07,11.22,25.08,32.32,25.28,33.22a5,5,0,0,1-9.75,2.23c-.07-.31-4.4-17.84-20.52-26.79-9.14-5.08-20.36-6.56-33.5-4.46,14.19,5.78,33.05,16.78,39.62,35.83a5,5,0,0,1-3.1,6.36A5.16,5.16,0,0,1,150,215Z"/><path class="cls-1" d="M179.26,312.17h-.09a5,5,0,0,1-4.91-5.09,309.41,309.41,0,0,0-7.11-71.87,5,5,0,0,1,9.7-2.42c.33,1.33,8.15,33.11,7.4,74.47A5,5,0,0,1,179.26,312.17Z"/><path class="cls-1" d="M211.08,301.19a5,5,0,0,1-5-4.39c-4.7-38.05-23.08-65.73-23.27-66a5,5,0,0,1,8.29-5.6c.81,1.2,19.9,29.84,24.91,70.37a5,5,0,0,1-4.35,5.58A4.4,4.4,0,0,1,211.08,301.19Z"/><path class="cls-1" d="M75.86,140.39A64.14,64.14,0,1,1,140,76.25,64.22,64.22,0,0,1,75.86,140.39Zm0-118.28A54.14,54.14,0,1,0,130,76.25,54.21,54.21,0,0,0,75.86,22.11Z"/><path class="cls-1" d="M110.84,390a57.87,57.87,0,0,1-19.1-3.4c-10.44-3.76-24.45-12.43-31.92-32.39a5,5,0,0,1,9.36-3.5c11.64,31.08,41.68,29.36,42.95,29.26a5,5,0,0,1,.75,10C112.78,390,112.05,390,110.84,390Z"/><path class="cls-1" d="M18.16,390c-1.21,0-1.94-.05-2-.05a5,5,0,0,1,.76-10c1.26.09,31.3,1.83,42.94-29.26a5,5,0,1,1,9.36,3.5c-7.47,20-21.48,28.63-31.92,32.39A57.87,57.87,0,0,1,18.16,390Z"/><path class="cls-1" d="M206.84,390a57.87,57.87,0,0,1-19.1-3.4c-10.44-3.76-24.45-12.43-31.92-32.39a5,5,0,0,1,9.36-3.5c11.64,31.08,41.68,29.36,42.95,29.26a5,5,0,0,1,.75,10C208.78,390,208.05,390,206.84,390Z"/><path class="cls-1" d="M114.16,390c-1.21,0-1.94-.05-2-.05a5,5,0,0,1,.75-10c1.28.09,31.31,1.82,42.95-29.26a5,5,0,1,1,9.36,3.5c-7.47,20-21.48,28.63-31.92,32.39A57.87,57.87,0,0,1,114.16,390Z"/><path class="cls-1" d="M302.84,390a57.87,57.87,0,0,1-19.1-3.4c-10.44-3.76-24.45-12.43-31.92-32.39a5,5,0,0,1,9.36-3.5c11.64,31.08,41.68,29.36,42.95,29.26a5,5,0,0,1,.75,10C304.78,390,304.05,390,302.84,390Z"/><path class="cls-1" d="M210.16,390c-1.21,0-1.94-.05-2-.05a5,5,0,0,1,.75-10c1.28.09,31.31,1.82,42.95-29.26a5,5,0,1,1,9.36,3.5c-7.47,20-21.48,28.63-31.92,32.39A57.87,57.87,0,0,1,210.16,390Z"/><path class="cls-1" d="M399.84,390a57.87,57.87,0,0,1-19.1-3.4c-10.44-3.76-24.45-12.43-31.92-32.39a5,5,0,1,1,9.36-3.5c11.64,31.08,41.68,29.36,42.95,29.26a5,5,0,0,1,.75,10C401.78,390,401.05,390,399.84,390Z"/><path class="cls-1" d="M307.16,390c-1.21,0-1.94-.05-2-.05a5,5,0,0,1,.75-10c1.28.09,31.31,1.82,42.95-29.26a5,5,0,1,1,9.36,3.5c-7.47,20-21.48,28.63-31.92,32.39A57.87,57.87,0,0,1,307.16,390Z"/><path class="cls-1" d="M495.84,390a57.87,57.87,0,0,1-19.1-3.4c-10.44-3.76-24.45-12.43-31.92-32.39a5,5,0,1,1,9.36-3.5c11.64,31.08,41.68,29.36,42.95,29.26a5,5,0,0,1,.75,10C497.78,390,497.05,390,495.84,390Z"/><path class="cls-1" d="M403.16,390c-1.21,0-1.94-.05-2-.05a5,5,0,0,1,.75-10c1.28.09,31.31,1.82,42.95-29.26a5,5,0,1,1,9.36,3.5c-7.47,20-21.48,28.63-31.92,32.39A57.87,57.87,0,0,1,403.16,390Z"/><path class="cls-1" d="M208.84,449a57.87,57.87,0,0,1-19.1-3.4c-10.44-3.76-24.45-12.43-31.92-32.39a5,5,0,0,1,9.36-3.5c11.64,31.08,41.68,29.36,42.95,29.26a5,5,0,0,1,.75,10C210.78,449,210.05,449,208.84,449Z"/><path class="cls-1" d="M116.16,449c-1.21,0-1.94-.05-2-.05a5,5,0,0,1,.75-10c1.28.09,31.31,1.82,42.95-29.26a5,5,0,1,1,9.36,3.5c-7.47,20-21.48,28.63-31.92,32.39A57.87,57.87,0,0,1,116.16,449Z"/><path class="cls-1" d="M304.84,449a57.87,57.87,0,0,1-19.1-3.4c-10.44-3.76-24.45-12.43-31.92-32.39a5,5,0,0,1,9.36-3.5c11.64,31.08,41.68,29.36,42.95,29.26a5,5,0,0,1,.75,10C306.78,449,306.05,449,304.84,449Z"/><path class="cls-1" d="M212.16,449c-1.21,0-1.94-.05-2-.05a5,5,0,0,1,.75-10c1.28.09,31.31,1.82,42.95-29.26a5,5,0,1,1,9.36,3.5c-7.47,20-21.48,28.63-31.92,32.39A57.87,57.87,0,0,1,212.16,449Z"/><path class="cls-1" d="M400.84,449a57.87,57.87,0,0,1-19.1-3.4c-10.44-3.76-24.45-12.43-31.92-32.39a5,5,0,1,1,9.36-3.5c11.64,31.08,41.68,29.36,42.95,29.26a5,5,0,0,1,.75,10C402.78,449,402.05,449,400.84,449Z"/><path class="cls-1" d="M308.16,449c-1.21,0-1.94-.05-2-.05a5,5,0,0,1,.75-10c1.28.09,31.31,1.82,42.95-29.26a5,5,0,1,1,9.36,3.5c-7.47,20-21.48,28.63-31.92,32.39A57.87,57.87,0,0,1,308.16,449Z"/></g><g id="Outline"><path class="cls-1" d="M57,226.41A5,5,0,0,1,52.22,223c-5.3-15.57-23.35-14.35-23.53-14.33a5,5,0,0,1-.78-10c6.8-.53,19.1,1.35,27.38,10.24C59,202,66.34,195.31,79.51,193.81a5,5,0,1,1,1.13,9.94C62.78,205.78,62,219.89,62,221.49a5,5,0,0,1-4.23,4.86A5.32,5.32,0,0,1,57,226.41Z"/><path class="cls-1" d="M432.19,287.83a5.65,5.65,0,0,1-.71-.05,5,5,0,0,1-4.29-4.83c-.4-16.3-17.45-20.56-18.18-20.74a5,5,0,0,1,2.27-9.74c6.63,1.53,17.82,7,23.05,18,5.64-5.52,14.64-9.74,27.65-7.22a5,5,0,1,1-1.9,9.82c-18.18-3.52-22.94,10.68-23.13,11.29A5,5,0,0,1,432.19,287.83Z"/></g></svg>