<?xml version="1.0" ?><svg viewBox="0 0 512 512" xmlns="http://www.w3.org/2000/svg"><defs><style>.cls-1{fill:#3f456b;}</style></defs><title/><g id="Lines"><path class="cls-1" d="M82.29,375.73a5,5,0,0,1-4-1.94A225.55,225.55,0,0,1,257,10.53,225.58,225.58,0,0,1,448,356a5,5,0,0,1-8.46-5.32A215.56,215.56,0,1,0,41.41,236.07,213.5,213.5,0,0,0,86.24,367.68a5,5,0,0,1-3.95,8.05Z"/><path class="cls-1" d="M410.81,200.92a5,5,0,0,1-4.11-7.84c20.2-29.31,3.72-75.09,3.56-75.55a4.84,4.84,0,0,1-.17-.54c-2.3-9.37-5.52-12.17-7.24-13a4.37,4.37,0,0,0-3.07-.34,6.38,6.38,0,0,1-.87.3L137.23,168.11a2.89,2.89,0,0,1-.84.14,4.28,4.28,0,0,0-2.73,1.87c-1.08,1.57-2.55,5.56-.3,14.74a5,5,0,0,1,.1.56s.46,3.49,1.71,8.8a5,5,0,0,1-9.74,2.29c-1.17-5-1.7-8.52-1.85-9.53-2.42-10-1.7-17.76,2.14-22.95a14.25,14.25,0,0,1,9.43-5.7l261.08-64a14.25,14.25,0,0,1,11,.69c5.81,2.83,10,9.34,12.52,19.35,1.6,4.47,17.72,51.73-4.81,84.42A5,5,0,0,1,410.81,200.92Z"/><path class="cls-1" d="M356.76,316.46a5,5,0,0,1,0-10c19.1,0,34.13-6,44.67-17.76,22.84-25.55,18.09-70.44,18-70.89a5.4,5.4,0,0,1,0-.56c0-10-2.58-13.68-4.12-15a4.82,4.82,0,0,0-3.13-1.14,4.6,4.6,0,0,1-.91.09H133a2.86,2.86,0,0,1-.84-.07,4.59,4.59,0,0,0-3.33,1.24c-1.49,1.32-4,5-4,14.84a5.25,5.25,0,0,1,0,.56c0,.45-4.8,45.34,18,70.89,10.53,11.79,25.56,17.76,44.66,17.76a5,5,0,0,1,0,10c-22.08,0-39.63-7.11-52.15-21.13-10.76-12.06-17.71-29.52-20.1-50.49a138.85,138.85,0,0,1-.43-27.86c0-10.62,2.65-18.15,7.73-22.38a14.61,14.61,0,0,1,10.75-3.36H411a14.6,14.6,0,0,1,10.75,3.36c5.09,4.23,7.69,11.76,7.73,22.37.47,4.49,4.54,50.27-20.53,78.36C396.39,309.35,378.85,316.46,356.76,316.46Z"/><path class="cls-1" d="M90.63,345.79a5,5,0,0,1-2.41-.62c-12.75-7-14.66-16.29-14.66-21.18,0-13.81,8.49-17.5,13-17.53H433.72a12.24,12.24,0,0,1,8.26,3.63c3.14,3.13,4.74,7.77,4.74,13.8,0,3.64-1.35,12.91-13.84,20.37a5,5,0,0,1-5.13-8.59c8.32-5,9-10.27,9-11.78,0-3.18-.64-5.56-1.79-6.7a3.12,3.12,0,0,0-1.18-.73h-347c-1.48.21-3.18,2.3-3.18,7.53,0,2.69,1.23,7.88,9.48,12.42a5,5,0,0,1-2.41,9.38Zm-4.07-29.33a.61.61,0,0,0,.14,0Z"/><path class="cls-1" d="M428.62,375.38a5,5,0,0,1-2.35-9.42c9.69-5.16,10.45-11,10.45-12.61,0-3.18-.64-5.56-1.79-6.7a3.12,3.12,0,0,0-1.18-.73h-347c-1.48.21-3.18,2.29-3.18,7.53,0,2.62,1.18,7.69,9.06,12.18a5,5,0,1,1-5,8.69c-12.27-7-14.11-16.08-14.11-20.87,0-13.82,8.49-17.51,13-17.53H433.72a12,12,0,0,1,8.26,3.63c3.14,3.12,4.74,7.77,4.74,13.8,0,3.92-1.54,13.86-15.75,21.44A5,5,0,0,1,428.62,375.38ZM86.56,345.92h0Z"/><path class="cls-1" d="M88.79,403.63a5,5,0,0,1-2.66-.77C75.2,396,73.56,387.4,73.56,382.9c0-13.81,8.49-17.5,13-17.52H433.72A12,12,0,0,1,442,369c3.14,3.12,4.74,7.76,4.74,13.79,0,3.49-1.25,12.39-12.84,19.75a5,5,0,1,1-5.36-8.44c7.6-4.83,8.2-9.88,8.2-11.31,0-3.17-.64-5.55-1.79-6.7a3.17,3.17,0,0,0-1.18-.72h-347c-1.48.21-3.18,2.29-3.18,7.52,0,3,1.37,7.38,7.9,11.49a5,5,0,0,1-2.67,9.24Zm-2.23-28.25h0Z"/><path class="cls-1" d="M63.35,433.06a5,5,0,0,1-2.47-.65c-12.33-7-14.17-16.11-14.17-20.92,0-13.81,8.48-17.5,13-17.52H458.84a12.15,12.15,0,0,1,8.26,3.63c3.15,3.12,4.74,7.76,4.74,13.79,0,3.79-1.44,13.39-14.77,20.91a5,5,0,0,1-4.92-8.71c9-5.07,9.69-10.62,9.69-12.2,0-3.17-.63-5.55-1.78-6.7a3.25,3.25,0,0,0-1.18-.72h-399c-1.48.21-3.17,2.29-3.17,7.52,0,2.63,1.18,7.72,9.11,12.22a5,5,0,0,1-2.47,9.35ZM59.71,404h0Z"/><path class="cls-1" d="M62.75,462.17a5,5,0,0,1-2.54-.7c-11.75-7-13.5-15.84-13.5-20.52,0-13.81,8.48-17.5,13-17.53H458.84a12.15,12.15,0,0,1,8.26,3.63c3.15,3.13,4.74,7.77,4.74,13.8,0,3.49-1.25,12.38-12.83,19.75a5,5,0,1,1-5.37-8.44c7.61-4.84,8.2-9.88,8.2-11.31,0-3.18-.63-5.56-1.78-6.7a3.2,3.2,0,0,0-1.18-.73h-399c-1.48.21-3.17,2.3-3.17,7.53,0,3.11,1.49,7.71,8.59,11.92a5,5,0,0,1-2.55,9.3Zm-3-28.75h0Z"/><path class="cls-1" d="M433.55,501H78.13c-25.52,0-44.12-3.67-55.29-10.92-10.56-6.85-12.13-15.27-12.13-19.68,0-13.81,8.48-17.5,13-17.52h464.2a12.16,12.16,0,0,1,8.22,3.63c3.15,3.12,4.74,7.77,4.74,13.8C500.84,477.51,496,501,433.55,501ZM23.88,462.88c-1.48.21-3.17,2.29-3.17,7.52,0,2.91,1.31,7.23,7.57,11.29,6.55,4.25,20.51,9.31,49.85,9.31H433.55c28.37,0,42.36-5.1,49.09-9.38,7.61-4.84,8.2-9.88,8.2-11.31,0-3.18-.63-5.56-1.78-6.7a3.2,3.2,0,0,0-1.18-.73Zm0,0h0Z"/></g><g id="Outline"><path class="cls-1" d="M110.82,315.09a5,5,0,0,1-4.47-2.75l-.23-.45a5,5,0,0,1,8.94-4.49l.22.44a5,5,0,0,1-2.21,6.71A4.93,4.93,0,0,1,110.82,315.09Z"/><path class="cls-1" d="M102.7,296.19A5,5,0,0,1,98,292.87l-.34-1a5,5,0,0,1,9.44-3.28l.32.91a5,5,0,0,1-3,6.39A5.16,5.16,0,0,1,102.7,296.19Zm-5.77-20.27A5,5,0,0,1,92.05,272l-.21-1a5,5,0,0,1,9.78-2.06l.21,1A5,5,0,0,1,98,275.81,5.45,5.45,0,0,1,96.93,275.92Zm-3.1-20.84a5,5,0,0,1-5-4.58l-.08-1a5,5,0,0,1,10-.78l.08,1a5,5,0,0,1-4.57,5.4A3,3,0,0,1,93.83,255.08ZM93.42,234h-.23a5,5,0,0,1-4.77-5.21l0-1a5,5,0,0,1,10,.49l0,1A5,5,0,0,1,93.42,234Zm2.25-21a5.07,5.07,0,0,1-.86-.07,5,5,0,0,1-4.07-5.78l.18-1a5,5,0,1,1,9.84,1.77l-.17,1A5,5,0,0,1,95.67,213.07Zm4.92-20.48a5,5,0,0,1-4.78-6.48l.32-1a5,5,0,1,1,9.53,3l-.29.93A5,5,0,0,1,100.59,192.59Zm7.54-19.68a5,5,0,0,1-4.54-7.09l.43-.95a5,5,0,1,1,9.06,4.24l-.41.88A5,5,0,0,1,108.13,172.91Zm10-18.55a5,5,0,0,1-4.23-7.65l.55-.88a5,5,0,0,1,8.44,5.36l-.52.82A5,5,0,0,1,118.14,154.36Zm12.31-17.11a5,5,0,0,1-3.86-8.17l.66-.8a5,5,0,1,1,7.69,6.4l-.62.75A5,5,0,0,1,130.45,137.25Zm14.39-15.39a5,5,0,0,1-3.42-8.64l.75-.71a5,5,0,0,1,6.81,7.33l-.71.67A5,5,0,0,1,144.84,121.86Zm16.24-13.42a5,5,0,0,1-2.94-9l.84-.61a5,5,0,0,1,5.81,8.14l-.79.57A5,5,0,0,1,161.08,108.44Zm180-8a5,5,0,0,1-2.56-.71l-.83-.5a5,5,0,1,1,5.07-8.62l.9.54a5,5,0,0,1-2.58,9.29ZM178.88,97.2a5,5,0,0,1-2.39-9.39l.91-.49a5,5,0,1,1,4.72,8.81l-.85.46A4.91,4.91,0,0,1,178.88,97.2Zm143.41-6.37a5,5,0,0,1-2-.42l-.88-.38a5,5,0,1,1,3.91-9.2l1,.41a5,5,0,0,1-2,9.59ZM198,88.35a5,5,0,0,1-1.8-9.66l1-.37a5,5,0,0,1,3.55,9.35l-.91.34A5,5,0,0,1,198,88.35Zm104.48-4.64a4.8,4.8,0,0,1-1.38-.2l-.94-.26a5,5,0,0,1,2.71-9.63l1,.28a5,5,0,0,1-1.38,9.81ZM218.07,82a5,5,0,0,1-1.18-9.85l1-.25a5,5,0,1,1,2.31,9.73l-1,.23A4.89,4.89,0,0,1,218.07,82Zm63.81-2.82a4.74,4.74,0,0,1-.75-.06l-1-.14a5,5,0,0,1,1.44-9.9l1,.15a5,5,0,0,1-.73,9.95Zm-43.07-.85a5,5,0,0,1-.55-10l1-.11a5,5,0,0,1,1,10l-1,.1A5.12,5.12,0,0,1,238.81,78.36Zm22.07-1h-.12l-1,0a5,5,0,1,1,.16-10l1,0a5,5,0,0,1-.11,10Z"/><path class="cls-1" d="M358.08,112.14a5,5,0,0,1-3.09-1.07l-.3-.24,3-4,3.08-3.94-3.08,3.94,3.14-3.88.35.26a5,5,0,0,1-3.1,8.93Z"/></g></svg>