<?xml version="1.0" ?><svg viewBox="0 0 512 512" xmlns="http://www.w3.org/2000/svg"><defs><style>.cls-1{fill:#3f456b;}</style></defs><title/><g id="Lines"><path class="cls-1" d="M256.49,501a185,185,0,0,1-185-185.21V260.21a5,5,0,0,1,10,0v55.58a175,175,0,1,0,350.05,0l-.11-55.57a5,5,0,0,1,5-5h0a5,5,0,0,1,5,5l.11,55.58A185,185,0,0,1,256.49,501Z"/><path class="cls-1" d="M256.5,501.34A154.16,154.16,0,0,1,102.38,347V270A154.15,154.15,0,0,1,256.5,115.66c85,0,154.11,69.23,154.11,154.31l.1,77h0A154.19,154.19,0,0,1,256.5,501.34Zm0-375.68C177,125.66,112.38,190.4,112.38,270V347a144.17,144.17,0,1,0,288.33,0l-.1-77C400.61,190.4,336,125.66,256.5,125.66Z"/><path class="cls-1" d="M77.85,343.38h-.31c-23-1.45-41-20.27-41-42.85,0-21,15.31-38.79,36.41-42.32a5,5,0,1,1,1.66,9.86c-16.27,2.72-28.07,16.38-28.07,32.46,0,17.31,13.9,31.75,31.65,32.86a5,5,0,0,1-.31,10Z"/><path class="cls-1" d="M436.05,343.38a5,5,0,0,1-.31-10c17.75-1.11,31.66-15.55,31.66-32.86,0-16.08-11.81-29.74-28.07-32.46a5,5,0,1,1,1.65-9.86c21.1,3.53,36.42,21.33,36.42,42.32,0,22.58-18,41.4-41,42.85Z"/><path class="cls-1" d="M436,265h-.09a5,5,0,0,1-4.91-5v-1.62c-.12-6.62-1.76-35-20.17-67.44-12.29-21.65-29.55-40.87-51.32-57.13-27.31-20.4-61.83-36.19-102.6-46.93a363.69,363.69,0,0,0-48.79,16.48c-37.63,15.92-67.7,37.31-89.38,63.56C83.12,210.06,82.05,252.6,82,255.75V256a5,5,0,0,1-5,5h0a5,5,0,0,1-5-4.92v-47c0-1.74-.5-23.44,5.67-52.22,5.84-27.22,19-66,48.42-96.41C157.91,27.63,202,11,257,11c55.39,0,99.54,16.66,131.21,49.52,16,16.6,37.23,46.59,47.44,95.16,5.94,28.27,5.4,49.58,5.34,51.41V257.7c0,1.43,0,2.28,0,2.48A5,5,0,0,1,436,265ZM276.66,82.15c34.79,10.83,64.73,25.57,89.19,43.91,22.9,17.18,41.06,37.53,54,60.49A175,175,0,0,1,431,210.38v-3.56c0-.83,2.34-82.88-48-137.25C344.23,71,308.67,75.22,276.66,82.15ZM257,21c-52.22,0-93.83,15.59-123.67,46.35C80.05,122.26,82,208,82,208.85v.74a178.33,178.33,0,0,1,28.54-48.46c22.65-27.64,54-50.1,93.14-66.75,46-19.56,103-31.12,169.54-34.4C344.18,34.1,305.14,21,257,21Z"/><path class="cls-1" d="M188,326c-20.95,0-38-15.25-38-34s17.05-34,38-34,38,15.25,38,34S209,326,188,326Zm0-58c-15.44,0-28,10.77-28,24s12.56,24,28,24,28-10.77,28-24S203.44,268,188,268Z"/><path class="cls-1" d="M326,326c-20.95,0-38-15.25-38-34s17.05-34,38-34,38,15.25,38,34S347,326,326,326Zm0-58c-15.44,0-28,10.77-28,24s12.56,24,28,24,28-10.77,28-24S341.44,268,326,268Z"/><path class="cls-1" d="M187,300.11a34.82,34.82,0,0,1-16.48-3.79,5,5,0,0,1,5-8.66c.49.28,10.36,5.58,24.61-.28a5,5,0,1,1,3.8,9.24A44.17,44.17,0,0,1,187,300.11Z"/><path class="cls-1" d="M326,300.11a34.82,34.82,0,0,1-16.48-3.79,5,5,0,0,1,5-8.66c.49.28,10.36,5.58,24.61-.28a5,5,0,1,1,3.8,9.24A44.17,44.17,0,0,1,326,300.11Z"/></g><g id="Outline"><path class="cls-1" d="M272.91,397H243c-7.36,0-11.55-3-13.77-5.56-4.79-5.47-4.42-12.81-4.23-14.72V365a5,5,0,0,1,10,0v12a4.87,4.87,0,0,1,0,.66c-.15,1.24-.12,5,1.83,7.23,1.26,1.42,3.29,2.11,6.21,2.11h29.91c2.94,0,5-.7,6.24-2.14,2-2.28,1.93-6.26,1.81-7.2a4.89,4.89,0,0,1,0-.66V365a5,5,0,0,1,10,0v11.72c.19,1.91.56,9.25-4.23,14.72C284.46,394,280.27,397,272.91,397Z"/><path class="cls-1" d="M147,209a4.94,4.94,0,0,1-2.77-.84l-18-12a5,5,0,1,1,5.54-8.32l18,12A5,5,0,0,1,147,209Z"/><path class="cls-1" d="M366,209a5,5,0,0,1-2.77-9.16l18-12a5,5,0,1,1,5.54,8.32l-18,12A4.94,4.94,0,0,1,366,209Z"/><path class="cls-1" d="M383.5,428.5a4.94,4.94,0,0,1-2.77-.84l-18-12a5,5,0,0,1,5.54-8.32l18,12a5,5,0,0,1-2.77,9.16Z"/><path class="cls-1" d="M128.5,428.5a5,5,0,0,1-2.77-9.16l18-12a5,5,0,1,1,5.54,8.32l-18,12A4.94,4.94,0,0,1,128.5,428.5Z"/></g></svg>