<?xml version="1.0" ?><svg enable-background="new 0 0 512 512" version="1.1" viewBox="0 0 512 512" xml:space="preserve" xmlns="http://www.w3.org/2000/svg" xmlns:xlink="http://www.w3.org/1999/xlink"><g id="Colors"><g><g><path d="M441.213,183.005c-0.428,0-0.861-0.055-1.294-0.171c-0.77-0.205-1.559-0.382-2.346-0.524     c-1.368-0.247-2.571-1.053-3.321-2.224c-0.749-1.171-0.978-2.601-0.63-3.946c1.033-4.003,1.558-8.15,1.558-12.326     c0-27.102-22.049-49.15-49.15-49.15c-20.301,0-38.774,12.745-45.97,31.716c-0.633,1.668-2.106,2.873-3.867,3.161     c-1.757,0.287-3.541-0.383-4.673-1.763c-4.575-5.577-11.329-8.775-18.529-8.775c-1.658,0-3.312,0.169-4.914,0.503     c-2.714,0.562-5.352-1.174-5.914-3.877c-0.562-2.704,1.174-5.352,3.877-5.914c2.271-0.473,4.61-0.712,6.951-0.712     c7.62,0,14.886,2.526,20.777,7.094c10.154-19.061,30.321-31.433,52.262-31.433c32.615,0,59.15,26.535,59.15,59.15     c0,3.447-0.298,6.879-0.887,10.252c1.528,1.198,2.28,3.234,1.747,5.229C445.443,181.53,443.422,183.005,441.213,183.005z" fill="#3F456B"/></g></g><g><g><path d="M250.848,501.354c-41.88,0-111.641-0.012-112.096-0.025c-23.672-0.758-42.208-19.873-42.208-43.518     c0-19.75,13.026-36.652,31.611-41.907c-0.085-0.979-0.128-1.963-0.128-2.947c0-18.723,15.236-33.954,33.964-33.954     c7.619,0,14.883,2.524,20.773,7.091c9.529-17.942,27.827-29.978,48.4-31.306c2.74-0.211,5.133,1.91,5.312,4.667     c0.179,2.756-1.911,5.134-4.667,5.312c-19.152,1.236-35.932,13.646-42.748,31.613c-0.633,1.668-2.106,2.873-3.867,3.161     c-1.762,0.285-3.542-0.384-4.673-1.764c-4.575-5.576-11.328-8.774-18.529-8.774c-13.214,0-23.964,10.746-23.964,23.954     c0,1.896,0.225,3.786,0.669,5.619c0.328,1.353,0.077,2.779-0.691,3.938c-0.768,1.16-1.984,1.947-3.357,2.173     c-16.285,2.679-28.104,16.609-28.104,33.124c0,18.193,14.252,32.906,32.458,33.521c3.496,0.013,141.627,0.021,142.597,0.016l0,0     c16.284-0.255,29.445-13.543,29.445-29.679c0-2.137-0.227-4.269-0.674-6.338c-0.583-2.699,1.133-5.36,3.832-5.943     c2.698-0.58,5.359,1.133,5.943,3.832c0.596,2.762,0.898,5.604,0.898,8.449c0,21.625-17.658,39.425-39.363,39.679     C281.501,501.352,268.707,501.354,250.848,501.354z M281.615,496.347h0.01H281.615z" fill="#3F456B"/></g></g></g><g id="Lines"><g><g><g><path d="M400.994,126.001c-2.479,0-4.63-1.842-4.953-4.364c-0.066-0.502-5.924-43.072-33.508-45.658      c-2.509-0.235-4.451-2.302-4.53-4.82c-0.08-2.52,1.728-4.704,4.217-5.097C363.58,65.835,396,59.958,396,18c0-2.762,2.238-5,5-5      s5,2.238,5,5c0,26.302-11.384,40.661-20.934,48.074c-2.355,1.828-4.712,3.33-6.955,4.562      c8.325,4.759,15.26,12.999,20.442,24.424c5.745,12.665,7.341,24.797,7.406,25.308c0.35,2.739-1.588,5.243-4.327,5.593      C401.418,125.987,401.205,126.001,400.994,126.001z" fill="#3F456B"/></g><g><path d="M401.006,126.001c-0.211,0-0.424-0.014-0.639-0.041c-2.739-0.35-4.677-2.854-4.327-5.593      c0.065-0.511,1.661-12.643,7.406-25.308c5.183-11.425,12.117-19.665,20.442-24.424c-2.243-1.231-4.6-2.733-6.955-4.562      C407.384,58.661,396,44.302,396,18c0-2.762,2.238-5,5-5s5,2.238,5,5c0,17.867,5.742,31.384,17.066,40.176      c8.253,6.407,16.631,7.872,16.714,7.886c2.489,0.393,4.297,2.577,4.217,5.097c-0.079,2.519-2.021,4.585-4.53,4.82      c-27.693,2.596-33.452,45.225-33.507,45.654C405.638,124.157,403.485,126.001,401.006,126.001z" fill="#3F456B"/></g></g></g><g><g><g><path d="M63.994,379.001c-2.478,0-4.629-1.842-4.953-4.364c-0.065-0.502-5.923-43.072-33.507-45.658      c-2.509-0.235-4.451-2.302-4.531-4.82c-0.08-2.52,1.729-4.704,4.218-5.097C26.58,318.835,59,312.958,59,271c0-2.762,2.239-5,5-5      s5,2.238,5,5c0,26.302-11.384,40.661-20.934,48.074c-2.354,1.828-4.711,3.33-6.955,4.562      c8.326,4.759,15.26,12.999,20.442,24.424c5.745,12.665,7.341,24.797,7.407,25.308c0.35,2.739-1.587,5.243-4.327,5.593      C64.418,378.987,64.205,379.001,63.994,379.001z" fill="#3F456B"/></g><g><path d="M64.006,379.001c-0.211,0-0.424-0.014-0.64-0.041c-2.739-0.35-4.676-2.854-4.327-5.593      c0.065-0.511,1.662-12.643,7.407-25.308c5.182-11.425,12.116-19.665,20.442-24.424c-2.244-1.231-4.601-2.733-6.955-4.562      C70.384,311.661,59,297.302,59,271c0-2.762,2.239-5,5-5s5,2.238,5,5c0,17.867,5.742,31.384,17.066,40.176      c8.253,6.407,16.632,7.872,16.714,7.886c2.489,0.393,4.297,2.577,4.218,5.097c-0.08,2.519-2.021,4.585-4.531,4.82      c-27.694,2.596-33.452,45.225-33.507,45.654C68.638,377.157,66.485,379.001,64.006,379.001z" fill="#3F456B"/></g></g></g><g><g><path d="M107.021,106.674c-2.761,0-5-2.238-5-5V73c0-2.762,2.239-5,5-5s5,2.238,5,5v28.674     C112.021,104.436,109.783,106.674,107.021,106.674z" fill="#3F456B"/></g><g><path d="M119.438,99.506c-0.848,0-1.707-0.216-2.494-0.67L92.101,84.499c-2.392-1.381-3.212-4.438-1.832-6.83     c1.379-2.392,4.437-3.213,6.83-1.832l24.844,14.337c2.392,1.381,3.212,4.438,1.832,6.83     C122.848,98.608,121.167,99.506,119.438,99.506z" fill="#3F456B"/></g><g><path d="M94.604,99.506c-1.729,0-3.41-0.897-4.335-2.502c-1.38-2.392-0.561-5.449,1.832-6.83l24.844-14.337     c2.392-1.381,5.449-0.56,6.83,1.832s0.561,5.449-1.832,6.83L97.099,98.836C96.312,99.29,95.452,99.506,94.604,99.506z" fill="#3F456B"/></g><g><path d="M467.021,325.674c-2.762,0-5-2.238-5-5V292c0-2.762,2.238-5,5-5s5,2.238,5,5v28.674     C472.021,323.436,469.783,325.674,467.021,325.674z" fill="#3F456B"/></g><g><path d="M479.438,318.506c-0.848,0-1.707-0.216-2.494-0.67l-24.844-14.337c-2.392-1.381-3.212-4.438-1.832-6.83     c1.382-2.392,4.438-3.213,6.83-1.832l24.844,14.337c2.392,1.381,3.212,4.438,1.832,6.83     C482.848,317.608,481.167,318.506,479.438,318.506z" fill="#3F456B"/></g><g><path d="M454.604,318.506c-1.729,0-3.409-0.897-4.336-2.502c-1.38-2.392-0.56-5.449,1.832-6.83l24.844-14.337     c2.392-1.381,5.448-0.56,6.83,1.832c1.38,2.392,0.56,5.449-1.832,6.83l-24.844,14.337     C456.312,318.29,455.452,318.506,454.604,318.506z" fill="#3F456B"/></g><g><path d="M53.021,443.674c-2.761,0-5-2.238-5-5V410c0-2.762,2.239-5,5-5s5,2.238,5,5v28.674     C58.021,441.436,55.783,443.674,53.021,443.674z" fill="#3F456B"/></g><g><path d="M65.438,436.506c-0.848,0-1.707-0.216-2.494-0.67l-24.844-14.337c-2.392-1.381-3.212-4.438-1.832-6.83     c1.38-2.392,4.436-3.212,6.83-1.832l24.844,14.337c2.392,1.381,3.212,4.438,1.832,6.83     C68.848,435.608,67.167,436.506,65.438,436.506z" fill="#3F456B"/></g><g><path d="M40.604,436.506c-1.729,0-3.41-0.897-4.335-2.502c-1.38-2.392-0.561-5.449,1.832-6.83l24.844-14.337     c2.392-1.38,5.45-0.56,6.83,1.832c1.38,2.392,0.561,5.449-1.832,6.83l-24.844,14.337     C42.312,436.29,41.452,436.506,40.604,436.506z" fill="#3F456B"/></g></g><g><path d="M289.272,195.44c-12.911,0-27.133-3.868-42.515-11.587c-17.52-8.79-26.961-27.106-26.942-51.945    c-12.412,1.645-40.34,3.386-56.679-10.921c-9.07-7.941-13.155-19.392-12.146-34.037c-0.086-2.028-0.222-11.26,3.723-21.869    c4.072-10.951,13.392-25.533,34.667-32.812c21.408-7.325,37.304-2.271,46.871,3.257c5.803,3.354,10.018,7.275,12.646,10.141    c8.829-5.653,30.534-15.827,55.718-0.374c10.705,6.569,17.314,15.479,19.644,26.481c4.572,21.601-9.163,43.902-11.751,47.854    c-2.209,6.458-5.929,23.233,0.725,31.709c3.806,4.848,10.953,6.749,21.232,5.636c1.755-0.181,3.487,0.565,4.545,1.984    c1.057,1.418,1.285,3.29,0.601,4.922c-0.342,0.814-8.621,20.045-30.408,28.103C302.968,194.288,296.314,195.439,289.272,195.44z     M224.997,121.001c1.191,0,2.356,0.425,3.273,1.219c1.178,1.02,1.814,2.528,1.721,4.083c-1.021,16.801,1.839,38.873,21.251,48.613    l0,0c21.125,10.599,39.407,13.205,54.347,7.741c9.964-3.645,16.547-10.312,20.411-15.475c-9.135-0.585-16.059-3.828-20.65-9.692    c-11.662-14.893-2.445-40.733-2.048-41.825c0.146-0.398,0.34-0.776,0.581-1.126c0.144-0.209,14.646-21.661,10.585-40.73    c-1.771-8.312-6.704-14.851-15.083-19.992c-26.528-16.279-47.852,2.194-48.064,2.383c-1.08,0.96-2.523,1.407-3.958,1.221    c-1.435-0.185-2.718-0.98-3.521-2.183c-0.688-1.013-17.5-25.042-51.223-13.507c-33.574,11.486-31.654,44.587-31.631,44.92    c0.017,0.239,0.016,0.479-0.001,0.717c-0.859,11.652,1.995,20.185,8.724,26.085c17.246,15.121,53.901,7.729,54.271,7.653    C224.318,121.035,224.658,121.001,224.997,121.001z" fill="#3F456B"/></g><g><path d="M194.216,272.231c-2.771,0-5.603-0.076-8.497-0.239c-38.858-2.189-58.225-21.283-67.628-36.915    c-10.157-16.884-11.051-33.151-11.084-33.836c-0.004-0.08-0.006-0.16-0.006-0.241c0-1.646,0.302-16.241,10.764-21.472    c11.467-5.735,20.354,1.929,23.451,6.782c0.102,0.158,0.193,0.322,0.276,0.491c7.714,15.765,17.831,25.021,30.068,27.512    c16.121,3.286,32.203-6.057,39.166-12.092c25.106-21.759,47.085-23.165,48.008-23.215c2.776-0.145,5.112,1.97,5.26,4.727    c0.146,2.758-1.97,5.112-4.727,5.26c-0.026,0.002-4.928,0.333-12.518,3.05c-7.003,2.507-17.801,7.619-29.475,17.735    c-10.365,8.982-29.08,18.125-47.709,14.335c-15.352-3.125-27.766-14.093-36.902-32.602c-0.943-1.339-4.707-5.9-10.427-3.039    c-4.146,2.073-5.183,9.685-5.234,12.401c0.1,1.41,1.296,15.343,9.869,29.397c11.9,19.508,31.888,30.186,59.41,31.736    c41.974,2.372,70.808-15.088,71.095-15.264c2.351-1.45,5.431-0.72,6.88,1.632c1.449,2.35,0.719,5.431-1.632,6.88    C261.429,255.993,234.6,272.231,194.216,272.231z" fill="#3F456B"/></g><g><path d="M309.005,209.001c-1.776,0-3.496-0.948-4.401-2.619c-0.938-1.731-1.768-3.064-2.569-4.354    c-1.583-2.546-3.078-4.95-4.71-9.256c-0.979-2.582,0.321-5.469,2.904-6.447c2.583-0.977,5.469,0.322,6.447,2.904    c1.286,3.395,2.361,5.124,3.851,7.518c0.839,1.349,1.789,2.877,2.87,4.872c1.315,2.428,0.413,5.463-2.015,6.778    C310.625,208.807,309.809,209.001,309.005,209.001z" fill="#3F456B"/></g><g><path d="M298,465c-1.293,0-2.553-0.502-3.497-1.427c-49.478-48.425-67.91-99.934-74.661-134.618    c-7.342-37.723-2.957-63.728-2.768-64.815c0.476-2.721,3.069-4.54,5.786-4.065c2.72,0.476,4.539,3.065,4.065,5.785    c-0.071,0.422-4.242,25.743,2.821,61.642c6.43,32.679,23.748,81.007,69.671,126.87c6.176-2.024,22.948-8.585,43.371-25.341    c23.379-19.18,56.355-55.937,81.948-122.603c-5.165-2.626-14.286-7.276-21.045-10.792c-2.449-1.273-3.402-4.293-2.128-6.743    c1.274-2.449,4.293-3.403,6.743-2.128c9.861,5.129,24.802,12.699,24.952,12.775c2.27,1.149,3.313,3.82,2.426,6.204    c-14.758,39.644-41.857,94.64-87.154,131.509c-27.458,22.35-48.52,27.413-49.402,27.618C298.754,464.958,298.376,465,298,465z" fill="#3F456B"/></g><g><path d="M226.611,197.347c-16.005,0.001-28.774-4.881-38.039-14.558c-20.413-21.325-15.737-57.911-15.528-59.459    c0.37-2.736,2.887-4.652,5.625-4.285c2.735,0.37,4.653,2.885,4.286,5.619l0,0c-0.044,0.332-4.219,33.426,12.867,51.237    c8.518,8.879,21.21,12.627,37.724,11.119c2.764-0.232,5.183,1.777,5.433,4.526c0.25,2.751-1.776,5.183-4.526,5.433    C231.76,197.225,229.144,197.347,226.611,197.347z" fill="#3F456B"/></g><g><path d="M387.496,297.159c-15.411,0-30.653-2.487-45.112-7.428c-24.398-8.337-41.298-25.316-46.367-46.585    c-0.211-0.887-5.05-21.959,7.95-38.43c9.802-12.42,26.721-18.717,50.286-18.717c85.046,0,104.3-17.441,118.358-30.176    c2.235-2.025,4.347-3.938,6.622-5.742c1.723-1.364,4.132-1.444,5.939-0.202c8.07,5.549,20.449,21.17,9.529,40.572    c-13.724,24.386-36.396,33.512-80.962,32.547c-2.761-0.06-4.95-2.347-4.891-5.107c0.061-2.761,2.31-4.943,5.107-4.891    c46.548,1.024,62.071-9.758,72.03-27.453c6.787-12.06,0.515-20.926-3.645-25.021c-0.989,0.87-1.989,1.776-3.019,2.708    C464.061,177.062,443.155,196,354.253,196c-20.34,0-34.614,5.013-42.426,14.898c-10.028,12.691-6.124,29.757-6.083,29.928    c2.502,10.498,11.008,29.58,39.872,39.442c22.271,7.609,46.57,8.944,70.275,3.865c17.799-3.813,32.868-13.99,42.434-28.655    c4.661-7.146,7.889-14.581,9.335-21.501c0.565-2.703,3.215-4.439,5.917-3.872c2.703,0.565,4.437,3.214,3.872,5.917    c-1.698,8.126-5.415,16.742-10.749,24.919c-11.016,16.891-28.316,28.6-48.713,32.97    C407.87,296.079,397.646,297.159,387.496,297.159z" fill="#3F456B"/></g><g><path d="M421.331,255.015c-0.732,0-1.468-0.005-2.212-0.015c-2.761-0.037-4.97-2.305-4.934-5.066    c0.037-2.738,2.269-4.934,4.999-4.934c0.022,0,0.045,0,0.067,0c25.448,0.359,43.246-5.363,52.916-16.943    c10.466-12.533,7.637-27.817,7.607-27.971c-0.528-2.71,1.24-5.336,3.951-5.863c2.701-0.531,5.336,1.24,5.863,3.951    c0.159,0.814,3.736,20.147-9.746,36.293C468.454,248.105,448.772,255.014,421.331,255.015z" fill="#3F456B"/></g><g><path d="M428.083,457.769c-12.309,0-25.686-3.186-35.732-6.262c-15.784-4.833-28.053-12.58-36.465-23.025    c-1.731-2.15-1.393-5.298,0.759-7.03c2.15-1.731,5.297-1.392,7.03,0.759c7.134,8.858,17.767,15.498,31.604,19.734    c16.825,5.152,31.508,6.967,41.345,5.102c2.495-0.472,4.348-1.664,5.358-3.447c1.045-1.844,1.107-4.257,0.175-6.794    c-1.711-4.655-5.93-5.994-12.671-7.792c-1.809-0.482-3.679-0.981-5.513-1.604c-4.107-1.396-8.365-3.257-13.806-6.035    c-12.791-6.528-22.576-13.746-29.916-22.065c-1.827-2.07-1.63-5.229,0.441-7.057c2.07-1.827,5.23-1.628,7.057,0.441    c6.493,7.358,15.313,13.827,26.965,19.774c4.995,2.551,8.843,4.238,12.476,5.473c1.518,0.516,3.147,0.95,4.873,1.411    c7.08,1.889,15.891,4.239,19.48,14.005c1.963,5.342,1.657,10.73-0.862,15.175c-2.47,4.357-6.802,7.32-12.197,8.342    C435.182,457.497,431.678,457.769,428.083,457.769z" fill="#3F456B"/></g><g><path d="M454.38,385.9c-4.531,0-8.921-0.213-13-0.41c-16.489-0.8-30.287-5.287-41.011-13.34    c-2.209-1.658-2.654-4.792-0.996-7c1.657-2.209,4.792-2.655,7-0.996c9.095,6.829,21.036,10.646,35.491,11.348    c12.467,0.604,26.598,1.288,38.024-4.034c3.351-1.561,5.962-4.299,6.814-7.146c0.576-1.923,0.314-3.736-0.8-5.543    c-2.479-4.018-6.858-4.235-13.799-4.259c-1.965-0.006-3.996-0.013-6.008-0.172c-5.537-0.438-10.854-1.539-14.866-2.45    c-14.004-3.179-25.266-7.766-34.428-14.022c-2.28-1.557-2.867-4.668-1.31-6.948c1.557-2.279,4.668-2.866,6.948-1.31    c8.105,5.534,18.246,9.633,31.002,12.528c5.474,1.242,9.619,1.931,13.441,2.233c1.634,0.129,3.392,0.135,5.253,0.141    c7.464,0.025,16.752,0.056,22.275,9.007c2.626,4.256,3.272,8.981,1.87,13.665c-1.673,5.582-6.223,10.569-12.172,13.34    C474.749,384.894,464.235,385.9,454.38,385.9z" fill="#3F456B"/></g><g><path d="M35.015,210c-6.061,0-11.342-2.306-15.275-6.669c-10.682-11.851-8.765-35.372-8.433-38.702    c0.076-1.533,0.737-13.141,3.932-24.936C21.438,116.805,32.243,112,40.215,112c6.283,0,11.563,2.225,15.692,6.611    c7.387,7.847,8.875,20.854,9.108,27.872l117.205,11.902c2.557,0.26,4.501,2.417,4.495,4.987s-1.961,4.718-4.52,4.964    L65.347,179.604C62.888,191.949,54.395,210,35.015,210z M40.215,122c-13.887,0-18.428,32.007-18.924,43.219    c-0.004,0.099-0.012,0.2-0.022,0.299c-0.628,6.139-0.792,23.708,5.906,31.126c2.068,2.29,4.559,3.356,7.84,3.356    c18.16,0,20.985-25.26,21.011-25.515c0.245-2.367,2.125-4.233,4.494-4.462l70.436-6.792l-71.461-7.257    c-2.668-0.271-4.647-2.599-4.485-5.276c0.279-4.836-0.323-18.812-6.394-25.245C46.422,123.13,43.674,122,40.215,122z" fill="#3F456B"/></g><g><path d="M113,199c-5.751,0-10.607-2.019-14.042-5.839c-6.863-7.633-5.808-19.623-5.665-20.965    c0.292-2.746,2.755-4.739,5.501-4.442c2.742,0.292,4.729,2.747,4.444,5.488c-0.244,2.445-0.147,9.582,3.173,13.252    c1.526,1.687,3.681,2.506,6.588,2.506c2.761,0,5,2.238,5,5S115.761,199,113,199z" fill="#3F456B"/></g><g><path d="M137.952,193.908l-1.904-9.816c0,0-0.057,0.007-0.158,0.034c0.272-0.073,6.643-1.963,4.756-16.049    c-0.367-2.737,1.555-5.253,4.292-5.62c2.741-0.364,5.253,1.556,5.62,4.292C153.747,190.563,138.599,193.783,137.952,193.908z" fill="#3F456B"/></g><g><path d="M23.673,197.058c-3.467,0-6.812-1.665-9.498-4.811c-1.793-2.101-1.544-5.256,0.555-7.05    c2.101-1.791,5.257-1.544,7.049,0.556c0.485,0.567,1.418,1.476,2.235,1.249c0.289-0.084,7.129-2.371,11.035-29.709    c2.133-14.934-0.878-19.954-2.863-21.618c-2.625-2.199-6.489-1.066-6.526-1.054c-2.623,0.859-5.449-0.566-6.312-3.188    c-0.862-2.623,0.565-5.449,3.188-6.312c3.369-1.107,10.543-1.743,16.072,2.89c6.355,5.326,8.488,15.654,6.339,30.696    c-3.227,22.59-9.333,35.34-18.147,37.898C25.758,196.908,24.709,197.058,23.673,197.058z" fill="#3F456B"/></g><g><path d="M459.103,385.805c-2.447,0-4.586-1.799-4.943-4.292c-1.955-13.637-0.106-32.794-0.026-33.603    c0.271-2.747,2.71-4.766,5.465-4.485c2.748,0.271,4.757,2.717,4.486,5.465c-0.018,0.187-1.809,18.773-0.026,31.205    c0.392,2.733-1.506,5.267-4.24,5.658C459.577,385.787,459.338,385.805,459.103,385.805z" fill="#3F456B"/></g><g><path d="M405.695,454.899c-0.213,0-0.429-0.014-0.646-0.042c-2.739-0.354-4.673-2.86-4.319-5.599    c1.805-13.985,11.895-30.804,12.323-31.513c1.43-2.362,4.501-3.119,6.866-1.692c2.363,1.429,3.12,4.503,1.692,6.866    c-0.149,0.247-9.436,15.773-10.964,27.618C410.323,453.06,408.172,454.898,405.695,454.899z" fill="#3F456B"/></g><g><path d="M115.531,222.572c-1.435,0-2.859-0.614-3.848-1.804c-1.764-2.122-1.477-5.271,0.645-7.037    c0.658-0.548,16.293-13.443,32.133-16.149c2.722-0.465,5.305,1.365,5.771,4.087c0.465,2.722-1.365,5.306-4.087,5.771    c-13.164,2.249-27.281,13.863-27.422,13.979C117.79,222.194,116.657,222.572,115.531,222.572z" fill="#3F456B"/></g><g><g><path d="M183.406,297.635c-3.575,0-6.473-2.896-6.473-6.473c0-3.574,2.898-6.472,6.473-6.472     c3.574,0,6.473,2.898,6.473,6.472C189.879,294.738,186.98,297.635,183.406,297.635z" fill="#3F456B"/></g></g><g><g><path d="M113.406,262.635c-3.575,0-6.473-2.896-6.473-6.473c0-3.574,2.897-6.472,6.473-6.472     c3.574,0,6.473,2.898,6.473,6.472C119.879,259.738,116.98,262.635,113.406,262.635z" fill="#3F456B"/></g></g><g><path d="M165.006,292.001c-0.207,0-0.416-0.014-0.626-0.04c-25.316-3.164-41.131-17.688-41.792-18.306    c-2.019-1.884-2.128-5.048-0.244-7.066c1.882-2.018,5.04-2.128,7.059-0.252c0.201,0.185,14.287,12.961,36.216,15.702    c2.74,0.342,4.684,2.841,4.341,5.581C169.645,290.149,167.491,292.001,165.006,292.001z" fill="#3F456B"/></g></g></svg>