<?xml version="1.0" ?><svg enable-background="new 0 0 512 512" version="1.1" viewBox="0 0 512 512" xml:space="preserve" xmlns="http://www.w3.org/2000/svg" xmlns:xlink="http://www.w3.org/1999/xlink"><g id="Lines"><g><g><path d="M176,501c-90.981,0-165-74.019-165-165s74.019-165,165-165s165,74.019,165,165S266.981,501,176,501z      M176,181c-85.468,0-155,69.532-155,155s69.532,155,155,155s155-69.532,155-155S261.468,181,176,181z" fill="#3F456B"/></g></g><g><g><path d="M495,501h-41.791c-34.551,0-61.43-10.219-79.89-30.372c-29.936-32.684-26.919-79.536-26.602-83.518     c0.332-33.267,0.979-120.812,0.028-129.364c-0.734-6.614-4.275-11.031-5.842-12.692c-42.884-9.695-70.654-31.814-95.188-51.354     c-13.653-10.875-26.55-21.146-40.655-28.198c-10.906-5.455-19.757-6.201-27.854-2.347c-7.559,3.598-14.209,4.021-15.024,4.061     c-7.028,0.404-12.843-1.521-17.303-5.728c-7.64-7.203-8.209-18.648-8.251-20.515c-3.301-39.718-35.634-61.193-38.07-62.756     c-5.613-2.896-14.728-10.751-10.484-20.651c3.966-9.251,13.639-9.595,19.302-7.556c23.304,6.907,51.361,26.992,70.816,42.645     c15.76,12.679,35.771,21.947,35.971,22.039l151.227,68.541c4.663,1.387,42.384,13.938,53.251,59.544l39.208,134.287     c7.213-1.151,21.68-2.24,38.657,3.121c2.08,0.656,3.494,2.586,3.494,4.768V496C500,498.762,497.762,501,495,501z      M187.772,150.738c6.786,0,13.998,1.937,21.762,5.819c15.042,7.521,28.337,18.109,42.412,29.32     c25.112,20,51.079,40.683,92.477,49.714c0.786,0.171,1.519,0.529,2.136,1.044c0.355,0.296,8.727,7.404,10.127,20.005     c1.214,10.921,0.079,125.864,0.03,130.752c-0.002,0.13-0.008,0.259-0.02,0.388c-0.038,0.452-3.603,46.021,24.049,76.148     C397.231,481.892,421.611,491,453.209,491H490V388.71c-12.59-3.328-23.353-2.746-29.317-1.938l5.685,19.468     c0.773,2.65-0.748,5.427-3.398,6.201c-2.65,0.775-5.427-0.748-6.201-3.398L409.006,245.46c-0.023-0.082-0.046-0.165-0.065-0.249     c-9.946-41.997-46.234-52.348-46.6-52.447c-0.257-0.07-0.507-0.16-0.749-0.271L210.01,123.791     c-0.886-0.406-21.336-9.868-38.086-23.345c-26.566-21.373-50.55-35.896-67.53-40.89c-0.116-0.034-0.231-0.072-0.345-0.115     c-1.169-0.413-5.243-1.529-6.783,2.064c-1.625,3.792,5.938,7.855,6.016,7.895c0.116,0.06,0.248,0.133,0.359,0.201     c1.601,0.98,39.225,24.545,42.969,70.725c0.011,0.135,0.017,0.27,0.017,0.404c0.001,0.068,0.127,8.817,5.146,13.512     c2.416,2.26,5.644,3.238,9.859,2.989c0.037-0.002,0.074-0.004,0.11-0.006c0.029-0.001,5.224-0.271,11.169-3.1     C177.652,151.869,182.589,150.738,187.772,150.738z" fill="#3F456B"/></g></g><g><g><path d="M379.895,394.079c-8.653,0-18.165-0.639-28.602-2.129c-2.733-0.391-4.633-2.924-4.243-5.657     c0.39-2.734,2.91-4.636,5.657-4.243c66.616,9.521,92.353-17.65,92.604-17.926c1.865-2.037,5.026-2.176,7.064-0.312     c2.037,1.864,2.177,5.027,0.312,7.064C451.684,371.974,430.763,394.079,379.895,394.079z" fill="#3F456B"/></g></g><g><g><g><path d="M87.836,99.518c-3.209-1.577-4.532-5.454-2.955-8.664c1.576-3.208,5.455-4.531,8.664-2.954      c3.208,1.576,4.531,5.455,2.955,8.663C94.922,99.772,91.044,101.094,87.836,99.518z" fill="#3F456B"/></g></g></g><g><g><path d="M79.002,84c-1.409,0-2.81-0.592-3.798-1.746c-7.472-8.717-12.584-22.955-4.523-36.773     c8.45-14.485,27.792-13.523,28.613-13.472c2.756,0.162,4.859,2.528,4.697,5.285c-0.162,2.751-2.545,4.87-5.268,4.698l0,0     c-0.143-0.011-14.068-0.622-19.404,8.527c-6.818,11.688,0.938,22.264,3.477,25.227c1.798,2.097,1.555,5.253-0.542,7.05     C81.312,83.604,80.154,84,79.002,84z" fill="#3F456B"/></g></g><g><g><g><path d="M370.462,498.398c-0.98,0-1.971-0.287-2.839-0.888c-23.834-16.479-30.647-41.579-30.926-42.64      c-0.701-2.671,0.896-5.404,3.566-6.105c2.672-0.705,5.397,0.892,6.103,3.556l0,0c0.061,0.226,6.249,22.655,26.944,36.965      c2.271,1.57,2.84,4.685,1.269,6.956C373.609,497.646,372.049,498.398,370.462,498.398z" fill="#3F456B"/></g></g><g><g><g><path d="M341.758,436.961c-1.244,3.352-4.968,5.06-8.321,3.815c-3.351-1.244-5.059-4.969-3.815-8.321       c1.244-3.351,4.97-5.059,8.32-3.815C341.295,429.885,343.002,433.61,341.758,436.961z" fill="#3F456B"/></g></g></g></g><g><g><path d="M457.284,93.856c-1.84,0-3.658-0.688-5.16-2.083c-1.373-1.274-2.103-2.734-2.678-4.004     c-1.785-3.944-3.195-7.931-4.559-11.786l-0.771-2.171c-0.191-0.539-0.377-1.121-0.562-1.703     c-0.146-0.464-0.292-0.928-0.443-1.354c-0.025-0.069-0.051-0.146-0.077-0.23c-1.059-0.257-2.133-0.497-3.241-0.745     c-2.246-0.503-4.567-1.023-6.935-1.725c-0.313-0.094-0.744-0.199-1.249-0.325c-4.662-1.167-13.341-3.34-13.249-10.407     c0.033-2.569,1.56-4.343,2.134-5.011c3.192-3.709,6.877-6.67,10.439-9.534l1.305-1.05c1.609-1.305,2.907-2.335,3.943-3.144     c-1.223-6.715-2.385-17.016-0.533-22.26c1.278-3.621,3.597-5.028,5.315-5.571c3.016-0.95,5.658,0.267,6.812,0.954     c4.471,2.134,12.711,8.641,17.19,12.3c7.329-3.955,14.879-6.756,17.219-7.503c2.093-0.668,4.05-0.743,5.815-0.227     c2.126,0.624,4.08,2.174,5.231,4.146c0.363,0.617,0.65,1.312,0.844,2.049c0.409,1.555,0.395,3.258-0.042,5.062     c-0.575,2.383-2.825,10.11-6.25,17.712c3.97,4.206,11.05,11.96,13.498,16.266c0.767,1.102,2.173,3.649,1.439,6.727     c-0.418,1.754-1.655,4.166-5.176,5.7c-5.038,2.197-15.214,1.812-22,1.088c-3.461,5.884-7.515,11.197-12.327,16.166     C461.507,92.96,459.381,93.856,457.284,93.856z M459.005,84.525h0.01H459.005z M429.925,56.849     c1.498,0.525,3.311,0.979,4.114,1.181c0.673,0.168,1.246,0.313,1.664,0.438c2.04,0.605,4.098,1.066,6.276,1.554     c1.999,0.448,4.067,0.911,6.174,1.505c0.761,0.214,1.46,0.605,2.04,1.143l0.065,0.061c1.431,1.333,1.874,3.08,2.197,4.356     c0.036,0.146,0.068,0.281,0.102,0.392c0.165,0.459,0.35,1.038,0.533,1.617c0.146,0.465,0.293,0.931,0.445,1.358l0.779,2.197     c1.172,3.314,2.288,6.47,3.611,9.564c4.123-4.566,7.572-9.473,10.504-14.933c0.998-1.858,3.058-2.884,5.139-2.581     c6.608,0.979,14.383,1.161,18.239,0.524c-2.694-3.864-9.468-11.266-13.606-15.532c-1.481-1.527-1.834-3.826-0.879-5.727     c3.356-6.678,5.736-14.222,6.654-17.506c-3.214,1.153-10.574,4.069-16.984,7.89c-1.829,1.09-4.146,0.9-5.775-0.466     c-4.552-3.823-12.42-10.051-16.466-12.46c-0.359,3.892,0.378,11.635,1.828,18.154c0.43,1.932-0.32,3.935-1.912,5.109     c-1.004,0.741-2.884,2.177-6.135,4.811l-1.334,1.074C434.603,52.659,432.117,54.657,429.925,56.849z M442.484,20.181     c0.005,0.004,0.01,0.007,0.015,0.011C442.494,20.188,442.489,20.185,442.484,20.181z" fill="#3F456B"/></g></g><g><g><path d="M261.011,104.596c-1.158,0-2.343-0.274-3.486-0.847c-1.819-0.91-3.039-2.33-3.693-3.094     c-2.828-3.293-5.307-6.737-7.705-10.067l-1.323-1.835c-0.335-0.463-0.677-0.97-1.017-1.477c-0.271-0.404-0.541-0.809-0.807-1.177     c-0.044-0.06-0.09-0.126-0.138-0.198c-1.089,0.051-2.188,0.121-3.322,0.193c-2.295,0.147-4.638,0.298-7.137,0.289     c-0.312,0.005-0.77,0.019-1.29,0.038c-4.804,0.186-13.743,0.534-15.637-6.274c-0.688-2.477,0.28-4.606,0.645-5.408     c2.021-4.452,4.726-8.324,7.34-12.069l0.995-1.429c1.073-1.547,2.033-2.909,2.873-4.078c-3.057-6.103-7.061-15.666-6.753-21.217     c0.212-3.834,2.043-5.835,3.541-6.838c2.628-1.76,5.508-1.33,6.806-0.995c4.89,0.796,14.624,4.731,19.949,6.987     c5.933-5.859,12.392-10.66,14.427-12.03c1.814-1.226,3.67-1.848,5.512-1.848c0.003,0,0.005,0,0.008,0     c2.211,0.002,4.521,0.94,6.181,2.511c0.527,0.498,0.995,1.083,1.387,1.733c0.826,1.375,1.29,3.013,1.377,4.867     c0.115,2.454,0.121,10.506-1.034,18.756c4.991,2.924,13.962,8.382,17.52,11.827c1.044,0.842,3.108,2.895,3.267,6.055     c0.09,1.801-0.422,4.463-3.371,6.923c-4.219,3.52-14.093,6.003-20.812,7.212c-1.671,6.613-4.072,12.851-7.3,18.973     C266.484,102.977,263.825,104.596,261.011,104.596z M245.28,75.828c0.768,0,1.525,0.177,2.214,0.517l0.079,0.039     c1.767,0.889,2.682,2.443,3.35,3.578c0.076,0.13,0.145,0.25,0.207,0.347c0.284,0.391,0.623,0.893,0.96,1.396     c0.272,0.407,0.545,0.814,0.812,1.184l1.34,1.857c2.062,2.865,4.025,5.592,6.172,8.201c2.678-5.542,4.613-11.219,5.896-17.278     c0.437-2.062,2.12-3.63,4.209-3.918c6.617-0.912,14.133-2.919,17.655-4.611c-3.671-2.955-12.249-8.159-17.417-11.093     c-1.851-1.051-2.833-3.158-2.449-5.252c1.349-7.342,1.518-15.256,1.479-18.669c-2.761,2.007-9.001,6.864-14.09,12.336     c-1.449,1.556-3.728,2.028-5.674,1.172c-5.442-2.394-14.74-6.166-19.301-7.344c0.747,3.835,3.625,11.062,6.846,16.914     c0.953,1.732,0.796,3.864-0.402,5.438c-0.743,0.977-2.129,2.862-4.513,6.298l-1.013,1.455c-1.905,2.729-3.729,5.341-5.217,8.056     c1.587,0.085,3.454,0.012,4.281-0.021c0.691-0.027,1.238-0.053,1.721-0.046c2.134,0.006,4.23-0.126,6.457-0.269     c2.046-0.131,4.161-0.266,6.351-0.287C245.248,75.828,245.265,75.828,245.28,75.828z M289.868,66.076L289.868,66.076     L289.868,66.076z M289.868,66.076L289.868,66.076L289.868,66.076z M228.198,37.731c0.007,0.003,0.015,0.005,0.022,0.008     C228.213,37.736,228.206,37.734,228.198,37.731z M230.562,36.295L230.562,36.295L230.562,36.295z M230.562,36.295L230.562,36.295     L230.562,36.295z M271.205,31.167L271.205,31.167L271.205,31.167z" fill="#3F456B"/></g></g></g><g id="Outline"><g><g><g><g><g><g><path d="M439.783,176.56c-1.379,0-2.752-0.567-3.74-1.68c-1.834-2.064-1.646-5.225,0.418-7.059l10.123-8.993         c2.064-1.833,5.225-1.646,7.059,0.418s1.646,5.225-0.418,7.059l-10.123,8.993C442.149,176.144,440.964,176.56,439.783,176.56         z" fill="#3F456B"/></g></g></g><g><g><g><path d="M445.378,244.155c-1.377,0-2.747-0.565-3.735-1.674l-8.647-9.706         c-1.837-2.062-1.654-5.223,0.407-7.06c2.062-1.837,5.222-1.653,7.06,0.407l8.647,9.706c1.837,2.062,1.654,5.223-0.407,7.06         C447.749,243.737,446.561,244.155,445.378,244.155z" fill="#3F456B"/></g></g></g><g><g><g><path d="M460.984,220.844c-0.523,0-1.055-0.082-1.578-0.256l-12.685-4.216         c-2.62-0.871-4.039-3.701-3.168-6.322c0.872-2.62,3.706-4.035,6.322-3.168l12.685,4.216c2.62,0.871,4.039,3.701,3.168,6.322         C465.031,219.517,463.079,220.844,460.984,220.844z" fill="#3F456B"/></g></g></g><g><g><g><path d="M449.437,195.635c-2.324,0-4.406-1.629-4.893-3.994c-0.557-2.705,1.186-5.349,3.891-5.904         l13.193-2.713c2.715-0.56,5.349,1.187,5.904,3.891c0.557,2.705-1.186,5.349-3.891,5.904l-13.193,2.713         C450.108,195.602,449.77,195.635,449.437,195.635z" fill="#3F456B"/></g></g></g></g><g><g><g><g><path d="M422.698,163.502c-0.523,0-1.055-0.082-1.578-0.256c-2.62-0.871-4.039-3.702-3.168-6.322         l3.931-11.826c0.871-2.62,3.706-4.036,6.322-3.168c2.62,0.871,4.039,3.702,3.168,6.322l-3.931,11.826         C426.745,162.175,424.793,163.502,422.698,163.502z" fill="#3F456B"/></g></g></g><g><g><g><path d="M401.309,162.701c-2.324,0-4.406-1.629-4.893-3.994l-2.606-12.677         c-0.557-2.705,1.186-5.349,3.891-5.904c2.713-0.56,5.348,1.187,5.904,3.891l2.606,12.677         c0.557,2.705-1.186,5.349-3.891,5.904C401.98,162.668,401.642,162.701,401.309,162.701z" fill="#3F456B"/></g></g></g><g><g><g><path d="M382.567,172.304c-1.377,0-2.747-0.565-3.735-1.674l-8.647-9.707         c-1.837-2.062-1.654-5.223,0.407-7.06c2.063-1.837,5.223-1.652,7.06,0.407l8.647,9.707c1.837,2.062,1.654,5.223-0.407,7.06         C384.938,171.886,383.75,172.304,382.567,172.304z" fill="#3F456B"/></g></g></g></g></g><g><g><g><g><path d="M488.466,294.837c-1.279,0-2.56-0.488-3.536-1.465c-1.952-1.952-1.952-5.118,0.001-7.071l8.018-8.017        c1.953-1.951,5.118-1.952,7.071,0.001c1.952,1.952,1.952,5.118-0.001,7.071l-8.018,8.017        C491.024,294.349,489.745,294.837,488.466,294.837z" fill="#3F456B"/></g></g><g><g><path d="M461.104,322.18c-1.279,0-2.56-0.488-3.535-1.465c-1.953-1.952-1.953-5.118,0-7.07l8.017-8.017        c1.951-1.953,5.119-1.953,7.07,0c1.953,1.952,1.953,5.118,0,7.07l-8.017,8.017C463.663,321.691,462.383,322.18,461.104,322.18        z" fill="#3F456B"/></g></g></g><g><g><g><path d="M496.473,322.19c-1.279,0-2.56-0.488-3.536-1.465l-8.017-8.018c-1.952-1.952-1.952-5.118,0.001-7.071        c1.953-1.951,5.118-1.952,7.071,0.001l8.017,8.018c1.952,1.952,1.952,5.118-0.001,7.071        C499.031,321.702,497.752,322.19,496.473,322.19z" fill="#3F456B"/></g></g><g><g><path d="M469.13,294.827c-1.279,0-2.56-0.488-3.536-1.465l-8.017-8.018c-1.952-1.952-1.952-5.118,0.001-7.071        c1.953-1.951,5.118-1.952,7.071,0.001l8.017,8.018c1.952,1.952,1.952,5.118-0.001,7.071        C471.688,294.339,470.409,294.827,469.13,294.827z" fill="#3F456B"/></g></g></g></g><g><g><g><g><path d="M59.466,153.837c-1.279,0-2.56-0.488-3.536-1.465c-1.952-1.952-1.952-5.118,0.001-7.071l8.018-8.017        c1.953-1.951,5.118-1.952,7.071,0.001c1.952,1.952,1.952,5.118-0.001,7.071l-8.018,8.017        C62.024,153.349,60.745,153.837,59.466,153.837z" fill="#3F456B"/></g></g><g><g><path d="M32.104,181.18c-1.279,0-2.56-0.488-3.535-1.465c-1.953-1.952-1.953-5.118,0-7.07l8.017-8.017        c1.951-1.953,5.119-1.953,7.07,0c1.953,1.952,1.953,5.118,0,7.07l-8.017,8.017C34.663,180.691,33.383,181.18,32.104,181.18z" fill="#3F456B"/></g></g></g><g><g><g><path d="M67.473,181.19c-1.279,0-2.56-0.488-3.536-1.465l-8.017-8.018c-1.952-1.952-1.952-5.118,0.001-7.071        c1.953-1.951,5.118-1.952,7.071,0.001l8.017,8.018c1.952,1.952,1.952,5.118-0.001,7.071        C70.031,180.702,68.752,181.19,67.473,181.19z" fill="#3F456B"/></g></g><g><g><path d="M40.13,153.827c-1.279,0-2.56-0.488-3.536-1.465l-8.017-8.018c-1.952-1.952-1.952-5.118,0.001-7.071        c1.953-1.951,5.118-1.952,7.071,0.001l8.017,8.018c1.952,1.952,1.952,5.118-0.001,7.071        C42.688,153.339,41.409,153.827,40.13,153.827z" fill="#3F456B"/></g></g></g></g><g><g><path d="M413.41,124.46c-2.66-0.74-4.221-3.49-3.48-6.15l0,0c0.73-2.67,3.49-4.229,6.15-3.49l0,0      c2.66,0.74,4.22,3.49,3.489,6.15l0,0c-0.619,2.22-2.63,3.67-4.819,3.67l0,0C414.31,124.64,413.859,124.58,413.41,124.46z       M419.819,105.52c-2.43-1.319-3.329-4.35-2.01-6.779l0,0c1.311-2.431,4.351-3.33,6.78-2.011l0,0c2.42,1.32,3.32,4.351,2.01,6.78      l0,0c-0.91,1.67-2.63,2.61-4.399,2.61l0,0C421.39,106.12,420.569,105.93,419.819,105.52z M430.25,88.37      c-1.891-2.021-1.79-5.181,0.229-7.07l0,0c2.011-1.88,5.181-1.78,7.061,0.24l0,0c1.89,2.01,1.79,5.17-0.23,7.06l0,0      c-0.96,0.91-2.189,1.351-3.41,1.351l0,0C432.56,89.95,431.229,89.42,430.25,88.37z" fill="#3F456B"/></g></g><g><g><path d="M354.72,146.54c-1.91-1.99-1.85-5.16,0.14-7.07l0,0c1.99-1.92,5.15-1.85,7.07,0.14l0,0      c1.91,1.99,1.85,5.15-0.14,7.07l0,0c-0.971,0.93-2.221,1.39-3.46,1.39l0,0C357.02,148.069,355.7,147.56,354.72,146.54z       M340.52,133.13c-2.09-1.8-2.33-4.96-0.529-7.05l0,0c1.8-2.09,4.96-2.33,7.05-0.521l0,0c2.09,1.8,2.33,4.95,0.529,7.04l0,0      c-0.989,1.15-2.39,1.74-3.79,1.74l0,0C342.62,134.34,341.46,133.939,340.52,133.13z M325.149,120.979v-0.01      c-2.229-1.62-2.729-4.75-1.1-6.979l0,0c1.62-2.23,4.75-2.73,6.979-1.101l0,0c2.24,1.62,2.73,4.75,1.101,6.99l0,0      c-0.98,1.34-2.5,2.05-4.04,2.05l0,0C327.06,121.93,326.029,121.62,325.149,120.979z M308.85,110.04      c-2.35-1.46-3.08-4.54-1.63-6.891l0,0c1.46-2.35,4.54-3.08,6.89-1.619l0,0c2.341,1.449,3.07,4.529,1.62,6.88l0,0      c-0.95,1.529-2.58,2.37-4.26,2.37l0,0C310.569,110.78,309.67,110.54,308.85,110.04z M291.859,100.52      c-2.5-1.18-3.56-4.16-2.38-6.66l0,0c1.181-2.5,4.16-3.56,6.66-2.38l0,0l0,0l0,0c2.5,1.181,3.561,4.17,2.38,6.66l0,0      c-0.859,1.8-2.649,2.86-4.52,2.86l0,0C293.279,101,292.55,100.85,291.859,100.52z" fill="#3F456B"/></g></g><g><g><path d="M66.147,225.275c-2.428,0-4.559-1.771-4.937-4.246c-0.417-2.729,1.457-5.28,4.188-5.697l179.222-27.389      c2.727-0.419,5.28,1.457,5.697,4.188c0.417,2.729-1.457,5.28-4.188,5.697L66.908,225.217      C66.652,225.256,66.398,225.275,66.147,225.275z" fill="#3F456B"/></g></g><g><g><path d="M30.603,274.725c-2.428,0-4.559-1.771-4.937-4.246c-0.417-2.729,1.457-5.28,4.188-5.697l263.457-40.26      c2.732-0.418,5.28,1.457,5.697,4.188c0.417,2.729-1.457,5.28-4.188,5.697l-263.457,40.26      C31.107,274.705,30.854,274.725,30.603,274.725z" fill="#3F456B"/></g></g><g><g><path d="M17.599,321.646c-2.429,0-4.559-1.771-4.937-4.246c-0.417-2.729,1.457-5.28,4.188-5.697l303.782-46.422      c2.729-0.418,5.279,1.457,5.697,4.188c0.417,2.729-1.457,5.28-4.188,5.697L18.359,321.588      C18.104,321.627,17.85,321.646,17.599,321.646z" fill="#3F456B"/></g></g><g><g><path d="M106.619,484.115c-2.428,0-4.559-1.771-4.937-4.246c-0.417-2.729,1.457-5.28,4.188-5.697l179.222-27.389      c2.728-0.419,5.28,1.457,5.697,4.188c0.417,2.729-1.457,5.28-4.188,5.697L107.38,484.057      C107.124,484.096,106.87,484.115,106.619,484.115z" fill="#3F456B"/></g></g><g><g><path d="M57.929,447.537c-2.428,0-4.559-1.771-4.937-4.246c-0.417-2.729,1.457-5.28,4.188-5.697l263.457-40.26      c2.725-0.417,5.28,1.457,5.697,4.188c0.417,2.729-1.457,5.28-4.188,5.697l-263.457,40.26      C58.434,447.518,58.18,447.537,57.929,447.537z" fill="#3F456B"/></g></g><g><g><path d="M30.607,406.777c-2.428,0-4.559-1.771-4.937-4.246c-0.417-2.729,1.457-5.28,4.188-5.697l303.782-46.422      c2.727-0.422,5.28,1.457,5.697,4.188c0.417,2.729-1.457,5.28-4.188,5.697L31.368,406.719      C31.112,406.758,30.858,406.777,30.607,406.777z" fill="#3F456B"/></g></g><g><g><path d="M18.795,365.482c-2.429,0-4.559-1.771-4.937-4.246c-0.417-2.729,1.457-5.28,4.188-5.697l314.535-48.066      c2.733-0.42,5.28,1.457,5.697,4.188c0.417,2.729-1.457,5.28-4.188,5.697L19.556,365.424      C19.3,365.463,19.046,365.482,18.795,365.482z" fill="#3F456B"/></g></g></g></g></svg>