<?xml version="1.0" ?><svg viewBox="0 0 512 512" xmlns="http://www.w3.org/2000/svg"><defs><style>.cls-1{fill:#3f456b;}</style></defs><title/><g id="Lines"><path class="cls-1" d="M255.65,247.18c-18.87,0-36.84-10-50.61-28a101.9,101.9,0,0,1-20.34-60.66c0-42.82,29.84-73.91,71-73.91s70.94,31.09,70.94,73.91a101.9,101.9,0,0,1-20.34,60.66C292.48,237.23,274.51,247.18,255.65,247.18Zm0-152.58c-16.73,0-32,6.11-43.09,17.19-11.68,11.71-17.86,27.86-17.86,46.72A91.75,91.75,0,0,0,213,213.11c11.84,15.52,27,24.07,42.66,24.07s30.82-8.55,42.65-24.07a91.75,91.75,0,0,0,18.29-54.6c0-18.86-6.17-35-17.85-46.72C287.68,100.71,272.38,94.6,255.65,94.6Z"/><path class="cls-1" d="M256,351.33c-31.22,0-56.61-28.21-56.61-62.9,0-25.75,10.41-46.23,28.57-56.2a5,5,0,1,1,4.81,8.77c-14.86,8.16-23.38,25.44-23.38,47.43,0,29.17,20.91,52.9,46.61,52.9s46.6-23.73,46.6-52.9c0-22.54-8.67-40-23.78-47.83a5,5,0,1,1,4.62-8.87c18.53,9.64,29.16,30.3,29.16,56.7C312.64,323.12,287.25,351.33,256,351.33Z"/><path class="cls-1" d="M146.65,358.21a14.11,14.11,0,0,1-5.15-1c-.4-.14-44.33-16.1-114.33-4.87a14.39,14.39,0,0,1-10.87-2.65,15.24,15.24,0,0,1,6.31-27.23c56.93-9.14,98.34-1.95,116.62,2.63,10.43-18.49,23.65-32.58,39.34-41.91,12.87-7.66,22.85-9.21,24-9.36a5,5,0,1,1,1.37,9.9c-1.39.19-34.26,5.22-57.73,49.54a5,5,0,0,1-5.76,2.48c-15.14-4.2-56.78-12.94-116.21-3.41a5.08,5.08,0,0,0-4,5.88,5.17,5.17,0,0,0,2,3.42,4.5,4.5,0,0,0,3.39.83c37.79-6.06,68-4.34,86.73-1.83,20.88,2.81,32.63,7.2,32.74,7.25a4.64,4.64,0,0,0,5.91-2.55c18.34-40,44.64-49.2,52.27-51.06a5,5,0,0,1,2.37,9.72c-26.46,6.46-42.58,39-45.55,45.51A14.82,14.82,0,0,1,146.65,358.21Z"/><path class="cls-1" d="M152.19,288.57a14.54,14.54,0,0,1-8.89-3c-.51-.39-52.7-40.1-96.81-48.22a15.13,15.13,0,0,1-11.93-17.5A14.83,14.83,0,0,1,49.09,207.3a14.43,14.43,0,0,1,2.62.24c42.17,7.76,87.5,38.05,103.23,49.32,22.35-6.23,46.73-8.89,51.54-9.37a5,5,0,0,1,1,9.95c-4.82.48-30,3.22-52.09,9.69a5,5,0,0,1-4.35-.76c-13.1-9.54-59.1-41.26-101.14-49a4.82,4.82,0,0,0-5.48,4.13,5.09,5.09,0,0,0,3.88,6c19.48,3.59,42.36,13.07,68,28.2A370,370,0,0,1,149.4,277.6a4.45,4.45,0,0,0,4.15.75c18.93-6.13,42.21-9.26,51.34-10.32A5,5,0,0,1,206,278c-8.83,1-31.33,4-49.41,9.91A14.4,14.4,0,0,1,152.19,288.57Z"/><path class="cls-1" d="M210.52,260.52a5,5,0,0,1-3.36-1.3c-.29-.26-28.76-26-60.89-36.11a14.84,14.84,0,0,1-7.55-5.5C137,215.15,95.55,156.42,88.27,63.28A15,15,0,0,1,101.77,47c.4,0,.81-.06,1.22-.06a15,15,0,0,1,14.7,13.92C123.33,133,152.17,183.36,160,195.91c36.31,13,65.56,39.62,66.81,40.76a5,5,0,0,1-6.76,7.37c-1.21-1.11-29.84-27.17-65-39.26a4.94,4.94,0,0,1-2.57-2c-9-14-38.9-65.41-44.81-141.12a4.92,4.92,0,0,0-5.1-4.68,5,5,0,0,0-4.39,5.54c7.06,90.39,46.91,146.92,48.6,149.28a4.76,4.76,0,0,0,2.44,1.79c34.26,10.82,64.32,38,64.62,38.26a5,5,0,0,1-3.38,8.69Z"/><path class="cls-1" d="M111.56,504a14.43,14.43,0,0,1-6.14-1.38,15.32,15.32,0,0,1-7.32-19.93c19.81-45.34,62-85,76.94-98.2,1.85-47.75,21.62-77.84,22.47-79.11a14.76,14.76,0,0,1,7.18-5.69,5,5,0,0,1,3.46,9.39,4.68,4.68,0,0,0-2.32,1.86c-.8,1.19-19.63,29.85-20.87,76a5,5,0,0,1-1.72,3.65c-12.83,11.11-56.22,50.87-76,96.09a5.25,5.25,0,0,0,2.41,6.87,4.41,4.41,0,0,0,3.47.14,4.87,4.87,0,0,0,2.74-2.66c21.86-50,76.11-94.84,76.66-95.28a5.3,5.3,0,0,0,1.88-4.08,159,159,0,0,1,9.42-54.21,127.15,127.15,0,0,1,7-15.89,5,5,0,0,1,8.83,4.7,118.3,118.3,0,0,0-6.46,14.63,148.91,148.91,0,0,0-8.81,50.77,15.2,15.2,0,0,1-5.55,11.82c-.52.43-53,43.85-73.83,91.54a14.77,14.77,0,0,1-8.38,8A14.55,14.55,0,0,1,111.56,504Z"/><path class="cls-1" d="M223.21,423.82a14.38,14.38,0,0,1-8.23-2.59,15.41,15.41,0,0,1-4.1-20.81c2.54-4.16,6.75-14.27,3.3-18.56-14.52-18.07-6.85-42.22,0-53.65a5,5,0,1,1,8.58,5.13,51.32,51.32,0,0,0-6.61,19.83c-.93,8.88,1,16.43,5.86,22.43,9,11.18-2.16,29.38-2.64,30.15a5.35,5.35,0,0,0,1.33,7.26,4.48,4.48,0,0,0,3.44.72,4.72,4.72,0,0,0,3-2.12,52.06,52.06,0,0,0,7.48-20.13c1.23-9-.61-16.55-5.45-22.58-3.87-4.81-4.75-11.65-2.56-19.78a47.29,47.29,0,0,1,4.09-10.2,5,5,0,0,1,8.68,5c-1.87,3.33-6.31,13.89-2.41,18.74,14.71,18.3,6,42.79-1.41,54.37a14.59,14.59,0,0,1-12.36,6.81Z"/><path class="cls-1" d="M365.39,358.22A14.84,14.84,0,0,1,352,349.53c-3-6.47-19.09-39-45.55-45.51a5,5,0,0,1,2.37-9.72c7.63,1.86,33.93,11.05,52.27,51.06a4.63,4.63,0,0,0,5.88,2.56c.48-.19,46.36-17.16,119.51-5.42a4.57,4.57,0,0,0,3.38-.84,5.17,5.17,0,0,0,2-3.42,5.08,5.08,0,0,0-4-5.88c-59.43-9.53-101.07-.79-116.21,3.41a5,5,0,0,1-5.76-2.48c-23.47-44.32-56.34-49.35-57.73-49.54a5,5,0,1,1,1.37-9.9c1.56.21,37.54,5.69,63.29,51.27,18.28-4.58,59.68-11.77,116.62-2.63a15.24,15.24,0,0,1,6.31,27.23,14.43,14.43,0,0,1-10.87,2.65c-70-11.23-113.93,4.73-114.37,4.89A14.06,14.06,0,0,1,365.39,358.22Z"/><path class="cls-1" d="M359.85,288.57a14.45,14.45,0,0,1-4.44-.7C337.33,282,314.83,279,306,278a5,5,0,1,1,1.15-9.93c9.13,1.06,32.41,4.19,51.35,10.32a4.43,4.43,0,0,0,4.13-.74c.55-.42,54.53-41.56,101.11-50.14a5.08,5.08,0,0,0,3.88-6,4.85,4.85,0,0,0-4.67-4.2,4.43,4.43,0,0,0-.81.07c-42,7.74-88,39.46-101.14,49a5,5,0,0,1-4.35.76c-22.11-6.47-47.26-9.21-52.08-9.69a5,5,0,0,1,1-9.95c4.81.48,29.2,3.14,51.54,9.37,15.73-11.27,61.06-41.56,103.23-49.32a14.43,14.43,0,0,1,2.62-.24,14.83,14.83,0,0,1,14.53,12.51,15.13,15.13,0,0,1-11.93,17.5c-44.18,8.13-96.3,47.83-96.82,48.23A14.54,14.54,0,0,1,359.85,288.57Z"/><path class="cls-1" d="M301.52,260.52a5,5,0,0,1-3.37-8.69c.3-.28,30.35-27.44,64.61-38.26a4.72,4.72,0,0,0,2.44-1.79c1.69-2.36,41.54-58.89,48.61-149.28A5,5,0,0,0,409.43,57l-.38,0a4.94,4.94,0,0,0-4.73,4.7c-5.92,75.71-35.8,127.16-44.82,141.12a4.9,4.9,0,0,1-2.57,2c-35.13,12.09-63.76,38.15-65,39.26a5,5,0,0,1-6.77-7.37c1.25-1.14,30.5-27.77,66.81-40.76,7.86-12.55,36.7-63,42.34-135a14.76,14.76,0,1,1,29.42,2.42c-7.28,93.14-48.69,151.87-50.44,154.32a14.87,14.87,0,0,1-7.56,5.51c-32.12,10.14-60.6,35.85-60.89,36.11A5,5,0,0,1,301.52,260.52Z"/><path class="cls-1" d="M400.48,504a14.55,14.55,0,0,1-5.1-.93,14.8,14.8,0,0,1-8.38-8c-20.82-47.64-73.31-91.11-73.83-91.55a15.16,15.16,0,0,1-5.55-11.81,148.91,148.91,0,0,0-8.81-50.77,116.65,116.65,0,0,0-6.46-14.63,5,5,0,0,1,8.83-4.7,128.53,128.53,0,0,1,7,15.89,159,159,0,0,1,9.42,54.21,5.3,5.3,0,0,0,1.88,4.08c.55.45,54.86,45.38,76.66,95.28a4.9,4.9,0,0,0,2.74,2.66,4.41,4.41,0,0,0,3.47-.14,5.25,5.25,0,0,0,2.41-6.87c-19.76-45.22-63.15-85-76-96.09a5,5,0,0,1-1.72-3.65c-1.24-46.14-20.06-74.83-20.87-76a4.7,4.7,0,0,0-2.31-1.86,5,5,0,0,1,3.45-9.39,14.67,14.67,0,0,1,7.18,5.69c.85,1.28,20.63,31.39,22.47,79.11,15,13.17,57.13,52.86,76.94,98.2a15.32,15.32,0,0,1-7.31,19.93A14.47,14.47,0,0,1,400.48,504Z"/><path class="cls-1" d="M288.84,423.82a14.61,14.61,0,0,1-12.36-6.8c-7.45-11.59-16.13-36.07-1.42-54.38,3.9-4.86-.54-15.42-2.41-18.74a5,5,0,0,1,8.66-5c.11.19,10.74,18.57,1.55,30-4.84,6-6.68,13.62-5.45,22.58a52.22,52.22,0,0,0,7.48,20.13,4.71,4.71,0,0,0,3.05,2.12,4.47,4.47,0,0,0,3.43-.72,5.34,5.34,0,0,0,1.36-7.21c-.51-.82-11.65-19-2.67-30.2,4.82-6,6.8-13.55,5.86-22.43a51.32,51.32,0,0,0-6.61-19.83,5,5,0,1,1,8.59-5.13c6.81,11.43,14.48,35.58,0,53.65-3.45,4.29.76,14.4,3.34,18.63a15.39,15.39,0,0,1-4.14,20.74A14.37,14.37,0,0,1,288.84,423.82Z"/><path class="cls-1" d="M267,365.35a13.46,13.46,0,0,1-8.08-2.62c-6.63-4.89-7.76-14.8-7.87-15.92a5,5,0,0,1,9.95-.95c.18,1.67,1.26,6.92,3.87,8.82a3.9,3.9,0,0,0,3.41.53,5.05,5.05,0,0,0,3.62-2.27c1.84-3,1-8.18.7-9.41a5,5,0,0,1,9.68-2.51c.26,1,2.46,10.2-1.89,17.2A15.1,15.1,0,0,1,270.33,365,16.66,16.66,0,0,1,267,365.35Z"/><path class="cls-1" d="M243.83,365.23a19,19,0,0,1-2.47-.17,14,14,0,0,1-9.87-5.86c-4.78-6.89-2.72-16.9-2.47-18a5,5,0,0,1,9.77,2.18c-.38,1.75-1,7.36.92,10.15a3.93,3.93,0,0,0,3,1.64,5,5,0,0,0,4.12-.89c2.49-2,3.37-6.77,3.49-8.28a5,5,0,0,1,10,.69c-.07,1-.86,10.21-7.14,15.33A14.52,14.52,0,0,1,243.83,365.23Z"/><path class="cls-1" d="M313.13,399.92a5,5,0,0,1-3.31-8.75,31.62,31.62,0,0,1,22.76-8.2,5,5,0,0,1-1,9.95,21.64,21.64,0,0,0-15.1,5.74A5,5,0,0,1,313.13,399.92Z"/><path class="cls-1" d="M364.23,454.17a5,5,0,0,1-4.39-7.44c.51-.93,5.35-9.21,19.28-13.62a5,5,0,1,1,3,9.53c-10.08,3.19-13.42,8.71-13.56,8.94A4.93,4.93,0,0,1,364.23,454.17Z"/><path class="cls-1" d="M304.36,345a7.45,7.45,0,0,1-.86,0l1.08-9.94-.24,0h0c.1,0,4.82-.06,13-7a5,5,0,0,1,6.46,7.64C313.83,344,306.91,345,304.36,345Z"/><path class="cls-1" d="M332,318a5,5,0,0,1-3.53-8.54A39.5,39.5,0,0,0,337,293.82a5,5,0,1,1,9.62,2.73,48.83,48.83,0,0,1-11.09,20A5,5,0,0,1,332,318Z"/><path class="cls-1" d="M370,355.94a5.06,5.06,0,0,1-2-.4,5,5,0,0,1-2.65-6.5c.09-.24,2.24-6.19-.25-17a5,5,0,1,1,9.74-2.25c3.27,14.18.1,22.22-.27,23.09A5,5,0,0,1,370,355.94Z"/><path class="cls-1" d="M444.29,348.47a4.83,4.83,0,0,1-1.62-.27,5,5,0,0,1-3.12-6.32,31,31,0,0,0,0-17,5,5,0,0,1,9.56-2.95,40.65,40.65,0,0,1-.05,23.11A5,5,0,0,1,444.29,348.47Z"/><path class="cls-1" d="M353.7,286.19a4.92,4.92,0,0,1-2.91-.94,5,5,0,0,1-1.18-6.93c.23-.34,4.14-6.34,1-15.07a5,5,0,1,1,9.39-3.42c5.07,13.92-1.9,23.86-2.2,24.28A5,5,0,0,1,353.7,286.19Z"/><path class="cls-1" d="M407.2,258.44l-9.88-1.55V257c0-.28.7-6.83-6.9-14.06a5,5,0,0,1,6.9-7.25,32.23,32.23,0,0,1,9.28,15.08A20.07,20.07,0,0,1,407.2,258.44Z"/><path class="cls-1" d="M364,222.94a5,5,0,0,1-5-5c0-.2-.19-10.18-6.43-13.65a5,5,0,0,1,4.86-8.74c11.44,6.36,11.57,21.72,11.57,22.37A5,5,0,0,1,364,222.94Z"/><path class="cls-1" d="M325.42,242.46a5,5,0,0,1-4.92-4.11c-.5-2.76-3-11.08-7.91-13.16a5,5,0,0,1,3.94-9.2c10.69,4.58,13.53,19,13.81,20.6a5,5,0,0,1-4,5.8A5.1,5.1,0,0,1,325.42,242.46Z"/><path class="cls-1" d="M397.4,149.54c-.12-.19-3.2-4.64-14.16-5.06a5,5,0,0,1,.18-10h.19c16.71.64,21.89,9,22.43,10l-8.73,4.88Z"/><path class="cls-1" d="M198.64,399.92a5,5,0,0,1-3.31-1.26,21.7,21.7,0,0,0-15.06-5.74A5,5,0,1,1,179.2,383a31.65,31.65,0,0,1,22.75,8.2,5,5,0,0,1-3.31,8.75Z"/><path class="cls-1" d="M147.55,454.13a5,5,0,0,1-4.37-2.55c-.2-.35-3.57-5.78-13.55-8.94a5,5,0,0,1,3-9.53c13.93,4.41,18.77,12.69,19.28,13.62a5,5,0,0,1-4.38,7.4Z"/><path class="cls-1" d="M208.49,345.94c-.9-.05-9.12-.7-20.53-10.35a5,5,0,1,1,6.45-7.64c8.74,7.39,14.61,8,14.67,8H209Z"/><path class="cls-1" d="M179.73,318a5,5,0,0,1-3.52-1.45,49,49,0,0,1-11.09-20,5,5,0,1,1,9.62-2.73,39.65,39.65,0,0,0,8.51,15.6,5,5,0,0,1-3.52,8.55Z"/><path class="cls-1" d="M141.77,356a5,5,0,0,1-4.63-3.06c-.38-.87-3.55-8.91-.28-23.09a5,5,0,1,1,9.75,2.25c-2.53,10.95-.27,16.92-.25,17a5,5,0,0,1-2.64,6.53A4.83,4.83,0,0,1,141.77,356Z"/><path class="cls-1" d="M67.48,348.47a5,5,0,0,1-4.73-3.39,40.7,40.7,0,0,1,0-23.11,5,5,0,1,1,9.55,2.95,30.94,30.94,0,0,0,0,16.94,5,5,0,0,1-3.12,6.34A4.83,4.83,0,0,1,67.48,348.47Z"/><path class="cls-1" d="M158.07,286.19a5,5,0,0,1-4.06-2.08c-.3-.42-7.27-10.36-2.2-24.28a5,5,0,0,1,9.4,3.42c-3.23,8.87.88,15,.92,15a5,5,0,0,1-4.06,7.91Z"/><path class="cls-1" d="M104.57,258.44a20.3,20.3,0,0,1,.61-7.69,32.17,32.17,0,0,1,9.29-15.08,5,5,0,0,1,6.89,7.25c-7.6,7.23-6.93,13.78-6.9,14.06l-4.95.68Z"/><path class="cls-1" d="M147.73,222.94a5,5,0,0,1-5-5c0-.65.14-16,11.58-22.37a5,5,0,0,1,4.85,8.74c-6.25,3.48-6.43,13.53-6.43,13.63A5,5,0,0,1,147.73,222.94Z"/><path class="cls-1" d="M186.36,242.46a5.26,5.26,0,0,1-.89-.08,5,5,0,0,1-4-5.79c.29-1.63,3.12-16,13.82-20.6a5,5,0,0,1,3.93,9.2c-4.87,2.08-7.41,10.41-7.91,13.16A5,5,0,0,1,186.36,242.46Z"/><path class="cls-1" d="M110.09,151.94a5,5,0,0,1-4.35-7.44c.53-1,5.71-9.37,22.42-10a5,5,0,0,1,.38,10c-10.9.42-14,4.86-14.08,4.9A5,5,0,0,1,110.09,151.94Z"/><path class="cls-1" d="M292,378c-5.53,0-12.1-2.1-17-9.22a5,5,0,1,1,8.22-5.69,10.46,10.46,0,0,0,13.05,4.11,5,5,0,0,1,6.59,2.54,5,5,0,0,1-2.56,6.61A20.94,20.94,0,0,1,292,378Z"/><path class="cls-1" d="M220.24,378a20.81,20.81,0,0,1-8.25-1.66,5,5,0,0,1,4.06-9.14c1.32.56,8,2.94,12.87-4.09a5,5,0,1,1,8.24,5.65C232.28,375.9,225.74,378,220.24,378Z"/><path class="cls-1" d="M256,95a5,5,0,0,1-5-5V12a5,5,0,0,1,10,0V90A5,5,0,0,1,256,95Z"/></g><g id="Outline"><path class="cls-1" d="M287,199a5,5,0,0,1-4.2-7.71c27.85-43.12-5.17-66.18-6.59-67.14a5,5,0,0,1,5.56-8.31,55.21,55.21,0,0,1,17.38,21c10.69,22.74,1.58,45.09-7.95,59.84A5,5,0,0,1,287,199Z"/><path class="cls-1" d="M260,330a5,5,0,0,1-1.37-9.81c30-8.56,23.81-33.87,23.53-34.94a5,5,0,0,1,9.68-2.5c.09.36,8.77,35.85-30.47,47.06A5,5,0,0,1,260,330Z"/></g></svg>