<?xml version="1.0" ?><svg viewBox="0 0 512 512" xmlns="http://www.w3.org/2000/svg"><defs><style>.cls-1{fill:#3f456b;}</style></defs><title/><g id="Lines"><path class="cls-1" d="M486,500H122a15,15,0,0,1-15-15V201a15,15,0,0,1,15-15H486a15,15,0,0,1,15,15V485A15,15,0,0,1,486,500ZM122,196a5,5,0,0,0-5,5V485a5,5,0,0,0,5,5H486a5,5,0,0,0,5-5V201a5,5,0,0,0-5-5Z"/><path class="cls-1" d="M486,419H122a15,15,0,0,1-15-15,5,5,0,0,1,10,0,5,5,0,0,0,5,5H486a5,5,0,0,0,5-5,5,5,0,0,1,10,0A15,15,0,0,1,486,419Z"/><path class="cls-1" d="M416,500a5,5,0,0,1-5-5V457a5,5,0,0,0-5-5H202a5,5,0,0,0-5,5v38a5,5,0,0,1-10,0V457a15,15,0,0,1,15-15H406a15,15,0,0,1,15,15v38A5,5,0,0,1,416,500Z"/><path class="cls-1" d="M456,477a5,5,0,0,1-5-5v-1a5,5,0,0,1,10,0v1A5,5,0,0,1,456,477Z"/><path class="cls-1" d="M153,477a5,5,0,0,1-5-5v-1a5,5,0,0,1,10,0v1A5,5,0,0,1,153,477Z"/><path class="cls-1" d="M416,307a5,5,0,0,1-5-5V109a5,5,0,0,1,10,0V302A5,5,0,0,1,416,307Z"/><path class="cls-1" d="M416,331a29,29,0,1,1,29-29A29,29,0,0,1,416,331Zm0-48a19,19,0,1,0,19,19A19,19,0,0,0,416,283Z"/><path class="cls-1" d="M107.08,393.63c-13.35,0-48.88-2.27-73-24.8C18.77,354.51,11,334.71,11,310c0-24.86,7.78-44.92,23.13-59.64,29.24-28,75.14-26.44,77.08-26.36a5,5,0,1,1-.42,10h0c-.44,0-43.67-1.46-69.78,23.61C27.73,270.37,21,288,21,310c0,21.81,6.69,39.13,19.89,51.49,26.33,24.65,70.34,22.06,70.78,22a5,5,0,0,1,.67,10C112,393.51,110.09,393.63,107.08,393.63Z"/></g><g id="Outline"><path class="cls-1" d="M391,477H365a5,5,0,0,1,0-10h26a5,5,0,0,1,0,10Z"/><path class="cls-1" d="M241,166c-19.86,0-22.6-31.24-22.6-65V93.5a3.71,3.71,0,0,1,0-.47c.23-2.58,0-8.74-2.33-11.24a3.38,3.38,0,0,0-2.82-1.1,3.9,3.9,0,0,0-3,1.2c-2.63,2.74-3,9.15-2.92,11.31.15,1.92.84,14.1-5.24,20.72a13.06,13.06,0,0,1-9.87,4.27,12.7,12.7,0,0,1-9.39-4c-3.84-4-5.14-10.29-5.56-14.76H155.12a5,5,0,0,1-5-5.24l.41-8.32c0-25.58-1.45-54.88-12.6-54.88-8.36,0-12.6,18.5-12.6,55v15c0,33.76-2.73,65-22.59,65s-22.6-31.24-22.6-65V93.5c0-.16,0-.31,0-.47.23-2.58,0-8.74-2.32-11.24A3.39,3.39,0,0,0,75,80.69a3.87,3.87,0,0,0-3,1.2C69.35,84.63,69,91,69.05,93.2c.15,1.91.84,14.1-5.24,20.72a13,13,0,0,1-9.87,4.27,12.66,12.66,0,0,1-9.38-4c-3.85-4-5.15-10.29-5.57-14.76H16a5,5,0,0,1,0-10H43.82a5,5,0,0,1,5,5.22c-.12,3,.44,10,3,12.64a2.71,2.71,0,0,0,2.15.89,3.11,3.11,0,0,0,2.5-1C59,104.37,59.33,97,59.08,93.92c0-.06,0-.13,0-.18C59,92.49,58.66,81.36,64.73,75A13.9,13.9,0,0,1,75,70.69a13.4,13.4,0,0,1,10.22,4.38c5.58,6.12,5.06,16.55,4.9,18.64V101c0,36.5,4.24,55,12.6,55s12.59-18.5,12.59-55V86c0-33.76,2.74-65,22.6-65,20.85,0,22.6,32.11,22.6,65,0,.08,0,.16,0,.24l-.15,3.2H182.1a5,5,0,0,1,5,5.22c-.12,3,.45,10,3,12.64a2.69,2.69,0,0,0,2.15.89,3,3,0,0,0,2.49-1c2.58-2.8,2.89-10.14,2.64-13.25,0-.06,0-.13,0-.18-.06-1.25-.4-12.38,5.67-18.75a13.88,13.88,0,0,1,10.28-4.3,13.42,13.42,0,0,1,10.23,4.38c5.57,6.12,5.06,16.55,4.89,18.64V101c0,36.5,4.24,55,12.6,55s12.6-18.5,12.6-55V86c0-33.76,2.73-65,22.59-65,20.86,0,22.6,32.11,22.6,65v2.5H317a5,5,0,0,1,0,10H293.8a5,5,0,0,1-5-5V86c0-25.61-1.43-55-12.6-55-8.35,0-12.59,18.5-12.59,55v15C263.61,134.76,260.87,166,241,166Z"/><path class="cls-1" d="M431.06,129.06a5,5,0,0,1-3.54-8.54,17.71,17.71,0,1,0-25,0,5,5,0,1,1-7.07,7.07,27.71,27.71,0,1,1,39.18,0A5,5,0,0,1,431.06,129.06Z"/><path class="cls-1" d="M451.28,149.28a5,5,0,0,1-3.54-8.54,46.3,46.3,0,1,0-65.48,0,5,5,0,1,1-7.07,7.07,56.3,56.3,0,1,1,79.62,0A5,5,0,0,1,451.28,149.28Z"/><path class="cls-1" d="M471.5,169.5A5,5,0,0,1,468,161,74.9,74.9,0,1,0,362,161,5,5,0,0,1,355,168,84.91,84.91,0,1,1,475,168,5,5,0,0,1,471.5,169.5Z"/><path class="cls-1" d="M320,477a5,5,0,0,1-5-5v-1a5,5,0,0,1,10,0v1A5,5,0,0,1,320,477Z"/><path class="cls-1" d="M288,477a5,5,0,0,1-5-5v-1a5,5,0,0,1,10,0v1A5,5,0,0,1,288,477Z"/><path class="cls-1" d="M256,477a5,5,0,0,1-5-5v-1a5,5,0,0,1,10,0v1A5,5,0,0,1,256,477Z"/><path class="cls-1" d="M224,477a5,5,0,0,1-5-5v-1a5,5,0,0,1,10,0v1A5,5,0,0,1,224,477Z"/></g></svg>