<?xml version="1.0" ?><svg id="Lines" viewBox="0 0 512 512" xmlns="http://www.w3.org/2000/svg"><defs><style>.cls-1{fill:#3f456b;}</style></defs><title/><path class="cls-1" d="M256,477.5A221.53,221.53,0,0,1,99.36,99.33,221.53,221.53,0,0,1,412.64,412.62,220.07,220.07,0,0,1,256,477.5Zm0-433C139.37,44.45,44.48,139.34,44.48,256S139.37,467.5,256,467.5,467.52,372.61,467.52,256,372.63,44.45,256,44.45Z"/><path class="cls-1" d="M256,502A246,246,0,0,1,82.07,82,246,246,0,1,1,429.93,429.91,244.36,244.36,0,0,1,256,502ZM256,20A236,236,0,0,0,89.14,422.83,236,236,0,1,0,422.86,89.12,234.44,234.44,0,0,0,256,20Z"/><path class="cls-1" d="M256,290.75A34.78,34.78,0,1,1,290.77,256,34.81,34.81,0,0,1,256,290.75Zm0-59.55A24.78,24.78,0,1,0,280.77,256,24.8,24.8,0,0,0,256,231.2Z"/><g data-name="&lt;编组&gt;" id="_编组_"><path class="cls-1" d="M226.25,260.07H67.43a5,5,0,0,1-5-5A193.47,193.47,0,0,1,159.85,88a5,5,0,0,1,6.82,1.85l.74,1.29h0l78.13,136.54a5,5,0,0,1-1.85,6.83,24.62,24.62,0,0,0-12.46,20.75A5,5,0,0,1,226.25,260.07ZM160.52,99.18a183.42,183.42,0,0,0-88,150.89H221.73a34.39,34.39,0,0,1,12.84-21.49Z"/><path class="cls-1" d="M443.65,260.07H285.75a5,5,0,0,1-5-4.85,24.64,24.64,0,0,0-12.26-20.64,5,5,0,0,1-1.81-6.81L344.86,92.19a5,5,0,0,1,7.49-4.12,193.45,193.45,0,0,1,97.2,167,5,5,0,0,1-4.95,5h-1Zm-153.38-10H439.46A183.46,183.46,0,0,0,352.14,99.58L277.66,228.76A34.44,34.44,0,0,1,290.27,250.07Z"/><path class="cls-1" d="M256,449.53a193.47,193.47,0,0,1-96.35-25.65,5,5,0,0,1-2.07-6.37l.93-2.08c.07-.16.15-.31.23-.46l78.2-135.61a5,5,0,0,1,6.8-1.85,24.79,24.79,0,0,0,24.7-.11,5,5,0,0,1,6.84,1.81L354.15,415a5,5,0,0,1,.68,2.44l0,2.09a5,5,0,0,1-2.5,4.39A193.47,193.47,0,0,1,256,449.53Zm-87.2-32a183.86,183.86,0,0,0,175.07-.37L269,288.25a35.31,35.31,0,0,1-25.67.1Z"/></g></svg>