<?xml version="1.0" ?><svg viewBox="0 0 512 512" xmlns="http://www.w3.org/2000/svg"><defs><style>.cls-1{fill:#3f456b;}</style></defs><title/><g id="Lines"><path class="cls-1" d="M447.09,367.07a5.08,5.08,0,0,1-2.13-.48,5,5,0,0,1-2.4-6.65c13.74-29.24,14.15-64.16,13.86-75.68H408.19C405,315.6,372.32,316.5,372,316.51H154.28c-27.07,0-46.64-9.24-58.16-27.46-9-14.3-10.39-30.19-10.39-38.38,0-12.7-8.5-14.16-14.9-14.16H22.28a4.89,4.89,0,0,0-4.78,5v12a4.9,4.9,0,0,0,4.78,5h18.3a5,5,0,0,1,1.82.34c6,.34,10.93,2.44,14.57,6.25,6.13,6.42,6.13,15.15,6.08,16.67v45.74A87.37,87.37,0,0,0,68,357.72a5,5,0,0,1-9.39,3.46,97.29,97.29,0,0,1-5.53-33.67V281.68a1.69,1.69,0,0,1,0-.23s.15-5.87-3.37-9.49c-2.06-2.13-5-3.16-9.11-3.16a5.26,5.26,0,0,1-1.69-.29H22.28a14.91,14.91,0,0,1-14.78-15v-12a14.91,14.91,0,0,1,14.78-15H70.83c15.6,0,24.9,9,24.9,24.16,0,5.73.87,20.41,8.85,33,9.56,15.12,26.28,22.8,49.7,22.8H371.89a35,35,0,0,0,13.74-3.81c8.49-4.52,12.8-12.41,12.8-23.44a5,5,0,0,1,5-5h57.82a5,5,0,0,1,5,5v.57c.25,3.68,2.73,47.38-14.63,84.36A5,5,0,0,1,447.09,367.07Z"/><path class="cls-1" d="M492.5,284.26H412.25a5,5,0,0,1,0-10H492.5a5,5,0,0,1,0,10Z"/><path class="cls-1" d="M245,284.92a4.93,4.93,0,0,1-3-1,5,5,0,0,1-2-4v-256a5,5,0,0,1,6.1-4.88c.86.2,21.28,5,41.77,23.94C321.84,74.42,329,119.76,329,152.26c0,56.58-22.31,89.55-41,107.25-20.41,19.29-40.73,25-41.58,25.23A5,5,0,0,1,245,284.92Zm5-254.15v242a106.65,106.65,0,0,0,31.4-20.86C306.34,228.13,319,194.61,319,152.26c0-43.75-13.09-79-37.87-101.94A97.34,97.34,0,0,0,250,30.77Z"/><path class="cls-1" d="M245,315.92a5,5,0,0,1-5-5V275.07a5,5,0,0,1,10,0v35.85A5,5,0,0,1,245,315.92Z"/><path class="cls-1" d="M349.56,284.92a5,5,0,0,1-5-5v-256a5,5,0,0,1,6.1-4.88c.86.2,21.28,5,41.77,23.94,33.94,31.44,41.07,76.78,41.07,109.28,0,56.58-22.32,89.55-41,107.25-20.41,19.29-40.73,25-41.58,25.23A5,5,0,0,1,349.56,284.92Zm5-254.15v242A106.65,106.65,0,0,0,386,251.89c24.91-23.76,37.54-57.28,37.54-99.63,0-43.75-13.09-79-37.87-101.94A97.34,97.34,0,0,0,354.56,30.77Z"/><path class="cls-1" d="M349.56,314.09a5,5,0,0,1-5-5V279.92a5,5,0,0,1,10,0v29.17A5,5,0,0,1,349.56,314.09Z"/><path class="cls-1" d="M140.5,284.92a5,5,0,0,1-5-5v-256A5,5,0,0,1,141.6,19c.86.2,21.28,5,41.77,23.94,33.95,31.44,41.07,76.78,41.07,109.28,0,56.58-22.31,89.55-41,107.25-20.41,19.29-40.74,25-41.59,25.23A5,5,0,0,1,140.5,284.92Zm5-254.15v242a106.65,106.65,0,0,0,31.4-20.86c24.91-23.76,37.54-57.28,37.54-99.63,0-43.75-13.09-79-37.87-101.94A97.34,97.34,0,0,0,145.5,30.77Z"/><path class="cls-1" d="M140.5,314.09a5,5,0,0,1-5-5v-32a5,5,0,0,1,10,0v32A5,5,0,0,1,140.5,314.09Z"/><path class="cls-1" d="M50.5,236.51a5,5,0,0,1-5-5V169.42a5,5,0,0,1,10,0v62.09A5,5,0,0,1,50.5,236.51Z"/><path class="cls-1" d="M98.5,206.21h-48a5,5,0,0,1-5-5V169.42a5,5,0,0,1,5-5h48a5,5,0,0,1,5,5v31.79A5,5,0,0,1,98.5,206.21Zm-43-10h38V174.42h-38Z"/><path class="cls-1" d="M151.76,343.21a5,5,0,0,1-5-5v-3a5,5,0,0,1,10,0v3A5,5,0,0,1,151.76,343.21Z"/><path class="cls-1" d="M186.46,343.21a5,5,0,0,1-5-5v-3a5,5,0,0,1,10,0v3A5,5,0,0,1,186.46,343.21Z"/><path class="cls-1" d="M221.15,343.21a5,5,0,0,1-5-5v-3a5,5,0,0,1,10,0v3A5,5,0,0,1,221.15,343.21Z"/><path class="cls-1" d="M255.85,343.21a5,5,0,0,1-5-5v-3a5,5,0,0,1,10,0v3A5,5,0,0,1,255.85,343.21Z"/><path class="cls-1" d="M290.54,343.21a5,5,0,0,1-5-5v-3a5,5,0,0,1,10,0v3A5,5,0,0,1,290.54,343.21Z"/><path class="cls-1" d="M325.24,343.21a5,5,0,0,1-5-5v-3a5,5,0,0,1,10,0v3A5,5,0,0,1,325.24,343.21Z"/><path class="cls-1" d="M359.93,343.21a5,5,0,0,1-5-5v-3a5,5,0,0,1,10,0v3A5,5,0,0,1,359.93,343.21Z"/><path class="cls-1" d="M110.27,397.17a57.9,57.9,0,0,1-19.08-3.41c-10.43-3.76-24.43-12.43-31.9-32.38a5,5,0,0,1,9.37-3.51c11.63,31.09,41.64,29.36,42.91,29.27a5,5,0,0,1,.75,10C112.21,397.12,111.49,397.17,110.27,397.17Z"/><path class="cls-1" d="M17.68,397.17c-1.21,0-1.94-.05-2-.06a5,5,0,0,1,.76-10c1.26.09,31.27,1.82,42.89-29.27a5,5,0,1,1,9.37,3.51c-7.47,19.95-21.47,28.62-31.9,32.38A57.86,57.86,0,0,1,17.68,397.17Z"/><path class="cls-1" d="M206.19,397.17a57.82,57.82,0,0,1-19.08-3.41c-10.44-3.76-24.44-12.43-31.9-32.38a5,5,0,1,1,9.36-3.51c11.71,31.29,42.58,29.29,42.89,29.27a5,5,0,1,1,.77,10C208.12,397.12,207.4,397.17,206.19,397.17Z"/><path class="cls-1" d="M113.59,397.17c-1.21,0-1.93-.05-2-.06a5,5,0,0,1,.75-10c1.31.09,31.28,1.8,42.91-29.27a5,5,0,1,1,9.36,3.51c-7.46,19.95-21.46,28.62-31.9,32.38A57.82,57.82,0,0,1,113.59,397.17Z"/><path class="cls-1" d="M302.53,397.17a57.9,57.9,0,0,1-19.08-3.41C273,390,259,381.33,251.55,361.38a5,5,0,0,1,9.37-3.51c11.63,31.09,41.64,29.36,42.91,29.27a5,5,0,0,1,.75,10C304.47,397.12,303.75,397.17,302.53,397.17Z"/><path class="cls-1" d="M209.94,397.17c-1.21,0-1.94-.05-2-.06a5,5,0,0,1,.76-10c1.26.09,31.27,1.82,42.89-29.27a5,5,0,1,1,9.37,3.51c-7.46,19.95-21.47,28.62-31.9,32.38A57.82,57.82,0,0,1,209.94,397.17Z"/><path class="cls-1" d="M398.45,397.17a57.82,57.82,0,0,1-19.08-3.41c-10.43-3.76-24.44-12.43-31.9-32.38a5,5,0,1,1,9.36-3.51c11.63,31.09,41.64,29.36,42.91,29.27a5,5,0,0,1,.75,10C400.39,397.12,399.66,397.17,398.45,397.17Z"/><path class="cls-1" d="M305.85,397.17c-1.21,0-1.93-.05-2-.06a5,5,0,0,1,.75-10c1.31.09,31.29,1.8,42.91-29.27a5,5,0,1,1,9.36,3.51c-7.46,19.95-21.46,28.62-31.89,32.38A57.91,57.91,0,0,1,305.85,397.17Z"/><path class="cls-1" d="M494.36,397.17a57.86,57.86,0,0,1-19.08-3.41c-10.43-3.76-24.43-12.43-31.9-32.38a5,5,0,0,1,9.37-3.51c11.63,31.09,41.64,29.36,42.9,29.27a5,5,0,0,1,.75,10C496.3,397.12,495.57,397.17,494.36,397.17Z"/><path class="cls-1" d="M401.77,397.17c-1.22,0-1.94-.05-2-.06a5,5,0,1,1,.76-10c1.26.09,31.26,1.82,42.89-29.27a5,5,0,1,1,9.37,3.51c-7.47,19.95-21.47,28.62-31.9,32.38A57.9,57.9,0,0,1,401.77,397.17Z"/><path class="cls-1" d="M206.4,452a57.9,57.9,0,0,1-19.08-3.41c-10.43-3.76-24.43-12.43-31.9-32.39a5,5,0,0,1,9.37-3.5c11.63,31.09,41.64,29.36,42.91,29.27a5,5,0,0,1,.75,10C208.34,451.9,207.62,452,206.4,452Z"/><path class="cls-1" d="M113.81,452c-1.21,0-1.94-.05-2-.06a5,5,0,0,1,.76-10c1.26.09,31.27,1.82,42.89-29.27a5,5,0,0,1,9.37,3.5c-7.46,20-21.47,28.63-31.9,32.39A57.82,57.82,0,0,1,113.81,452Z"/><path class="cls-1" d="M302.32,452a57.82,57.82,0,0,1-19.08-3.41c-10.43-3.76-24.44-12.43-31.9-32.39a5,5,0,0,1,9.36-3.5c11.63,31.09,41.64,29.36,42.91,29.27a5,5,0,0,1,.75,10C304.25,451.9,303.53,452,302.32,452Z"/><path class="cls-1" d="M209.72,452c-1.21,0-1.93-.05-2-.06a5,5,0,0,1,.75-10c1.31.08,31.28,1.8,42.91-29.27a5,5,0,1,1,9.36,3.5c-7.46,20-21.46,28.63-31.9,32.39A57.82,57.82,0,0,1,209.72,452Z"/><path class="cls-1" d="M398.67,452a57.91,57.91,0,0,1-19.09-3.41c-10.43-3.76-24.43-12.43-31.89-32.39a5,5,0,1,1,9.36-3.5C368.68,443.74,398.69,442,400,441.92a5,5,0,0,1,.75,10C400.6,451.9,399.88,452,398.67,452Z"/><path class="cls-1" d="M306.07,452c-1.21,0-1.94-.05-2-.06a5,5,0,0,1,.76-10c1.26.09,31.27,1.82,42.9-29.27a5,5,0,1,1,9.36,3.5c-7.46,20-21.47,28.63-31.9,32.39A57.82,57.82,0,0,1,306.07,452Z"/><path class="cls-1" d="M289.33,298.08h-88.6a5,5,0,1,1,0-10h88.6a5,5,0,0,1,0,10Z"/></g><g id="Outline"><path class="cls-1" d="M459.6,87.3l-.56,0a5,5,0,0,1-4.43-4.61c-1.21-17.53-20-16.93-22.16-16.8a5,5,0,0,1-.64-10A40.79,40.79,0,0,1,447,58.22a26,26,0,0,1,14.24,11.85C467,64,476.59,58.93,491.11,60.75a5,5,0,0,1-1.24,9.93c-20.15-2.53-25,11.44-25.47,13A5,5,0,0,1,459.6,87.3Z"/><path class="cls-1" d="M50.86,133a5,5,0,0,1-4.79-3.58c-5-17.3-24.39-12-25.21-11.71a5,5,0,0,1-2.77-9.62,40.91,40.91,0,0,1,15.35-.94,26.08,26.08,0,0,1,16.43,8.55c4.33-7.16,12.63-14.14,27.21-15.45a5,5,0,0,1,.89,10c-20.22,1.81-22,16.5-22.11,18.17A5,5,0,0,1,51.38,133,4.53,4.53,0,0,1,50.86,133Z"/></g></svg>