<svg xmlns="http://www.w3.org/2000/svg" version="1.1" xmlns:xlink="http://www.w3.org/1999/xlink" xmlns:svgjs="http://svgjs.dev/svgjs" viewBox="0 0 800 800"><defs><linearGradient x1="50%" y1="0%" x2="50%" y2="100%" id="wwwhirl-grad"><stop stop-color="hsl(206, 75%, 49%)" stop-opacity="1" offset="45%"></stop><stop stop-color="hsl(331, 90%, 56%)" stop-opacity="1" offset="100%"></stop></linearGradient></defs><g stroke-width="2" stroke="hsl(32, 100%, 51%)" fill="none" stroke-linecap="round"><path d="M-1662.5002450942989 691.2547316033655C-1584.3752429268573 606.8797292625285 -1443.7502390254622 295.62972062744075 -1287.5002346905787 286.2547203673478C-1131.2502303556953 276.8797201072548 -1068.750228621742 682.5828563627796 -912.5002242868587 646.254730354919C-756.2502199519754 609.9266043470586 -693.7502182180219 152.8953416675248 -537.5002138831385 111.87971552961793C-381.25020954825527 70.86408939171105 -318.7502078143016 445.8640997954312 -162.50020347941813 449.37972489296607C-6.250199144534918 452.8953499905009 56.24980258941832 124.06721586773882 212.49980692430154 128.75471599778535C368.74981125918475 133.44221612783184 431.2498129931382 436.7234745418405 587.4998173280219 471.8797255171893C743.7498216629051 507.03597649253805 806.2498233968586 265.8640948016455 962.4998277317422 297.5047206794594C1118.749832066625 329.14534655727323 1181.2498338005785 646.0203553484168 1337.4998381354617 623.7547297306959C1493.7498424703454 601.4891041129749 1556.2498442042993 184.77034255184103 1712.4998485391825 190.62971771439916C1868.7498528740662 196.48909287695727 1931.2498546080192 663.5984808360912 2087.499858942902 651.8797305109749C2243.749863277785 640.1609801858586 2384.37486717918 242.1922191449107 2462.4998693466223 134.37971615384114 " transform="rotate(99, 400, 400)"></path><path d="M-1600.0000013871622 682.4288261374093C-1524.242423527825 600.6106420493248 -1387.8787833810175 298.7924518577246 -1236.3636276623427 289.70154251460417C-1084.8484719436678 280.61063317148364 -1024.242409656198 674.0197349950229 -872.7272539375233 638.7924612904309C-721.2120982188485 603.5651875858389 -660.6060359313785 160.38335710871516 -509.0908802127037 120.61062873256304C-357.5757244940289 80.83790035641093 -296.96966220655895 444.4742740812304 -145.45450648788415 447.88336508490056C6.060649230790659 451.2924560885708 66.66671151826063 132.42881087861966 218.1818672369352 136.97426555017992C369.6970229556098 141.5197202217402 430.3030852430802 435.610637471688 581.8182409617548 469.7015475083898C733.3333966804294 503.7924575450917 793.9394589678996 269.92881469331707 945.4546146865746 300.61063372634874C1096.9697704052487 331.29245275938035 1157.575832692719 638.565188556853 1309.0909884113935 616.9742788669416C1460.606144130069 595.3833691770305 1521.2122064175383 191.29244887532485 1672.7273621362137 196.97426721477513C1824.2425178548888 202.65608555422546 1884.848580142358 655.6106435752039 2036.363735861033 644.2470068963031C2187.8788915797077 632.8833702174026 2324.2425317265147 246.97426860193784 2400.000109585852 142.42881115605223 " transform="rotate(96, 400, 400)"></path><path d="M-1537.5000018206506 673.602951189031C-1464.1098482694174 594.3415853536993 -1332.0075718771977 301.95521360558655 -1185.2272647747316 293.1483951794386C-1038.4469576722654 284.3415767532906 -979.734834831279 665.4566441448443 -832.9545277288129 631.3302227435208C-686.1742206263466 597.2038013421973 -627.46209778536 167.87140306748364 -480.68179068289396 129.3415724530863C-333.9014835804278 90.8117418386889 -275.1893607394409 443.08447888460785 -128.4090536369747 446.3870357944133C18.371253465491463 449.68959270421885 77.0833763064777 140.79043640707863 223.86368340894387 145.19384562015264C370.6439905114098 149.59725483322663 429.3561133523965 434.49783091911354 576.1364204548631 467.5234000171685C722.9167275573291 500.5489691152233 781.6288503983155 273.9935651025668 928.4091575007819 303.7165772908162C1075.1894646032479 333.4395894790656 1133.9015874442343 631.1100522828672 1280.6818945467003 610.1938585207656C1427.4622016491667 589.2776647586642 1486.1743244901531 197.81458571638677 1632.9546315926195 203.31884723272927C1779.734938695086 208.82310874907176 1838.4470615360724 647.6228368318946 1985.2273686385388 636.6143137992096C2132.0076757410043 625.6057907665245 2264.109952133224 251.75634857654313 2337.500105684457 150.47793667584142 " transform="rotate(93, 400, 400)"></path><path d="M-1475.000002254139 664.7770457230747C-1403.97727301101 588.0724981404956 -1276.1363603733782 305.11794483587033 -1134.0909018871207 296.59521732669486C-992.045443400863 288.07248981751945 -935.22726000636 656.8935227770874 -793.1818015201023 623.8679536790324C-651.1363430338448 590.8423845809775 -594.3181596393416 175.359418508674 -452.272701153084 138.0724856560314C-310.22724266682644 100.78555280338878 -253.40905927232325 441.69465317040704 -111.36360078606572 444.89067598634784C30.681857700191813 448.08669880228865 87.50004109469478 149.15203141795948 229.54549958095254 153.4133951725472C371.59095806721007 157.67475892713497 428.40914146171326 433.38499384896096 570.4545999479706 465.345222008369C712.5000584342283 497.3054501677769 769.3182418287315 278.0582849942383 911.3637003149893 306.82249033770546C1053.4091588012466 335.5866956811726 1110.2273421957498 623.654885491303 1252.272800682007 603.4134076570112C1394.3182591682653 583.1719298227196 1451.136442562768 204.33669203987057 1593.1819010490262 209.66339673310523C1735.2273595352835 214.9901014263399 1792.0455429297863 639.6349995710071 1934.091001416044 628.9815901845377C2076.1364599023013 618.3281807980684 2203.977372539933 256.5383980335703 2275.0001017830623 158.52703167805248 " transform="rotate(90, 400, 400)"></path><path d="M-1412.5000026876273 655.9511402571184C-1343.8446977526028 581.8034109272919 -1220.2651488695585 308.2806760661541 -1082.9545389995096 300.04203947395126C-945.6439291294605 291.8034028817483 -890.7196851814409 648.3304014093308 -753.4090753113919 616.4056846145443C-616.098465441343 584.4809678197578 -561.1742214933231 182.84743394986435 -423.8636116232742 146.8033988589765C-286.5530017532253 110.75936376808865 -231.6287578052054 440.30482745620634 -94.3181479351565 443.39431617828245C42.99246193489262 446.48380490035856 97.91670588291186 157.51362642884033 235.22731575296098 161.6329447249418C372.5379256230101 165.7522630210433 427.4621695710298 432.27215677880844 564.7727794410789 463.16704399956944C702.083389311128 494.0619312203305 757.0076332591475 282.12300488590984 894.3182431291966 309.9284033845948C1031.6288529992453 337.73380188327974 1086.5530969472647 616.1997186997392 1223.8637068173139 596.6329567932571C1361.1743166873634 577.0661948867751 1416.098560635383 210.85879836335437 1553.409170505432 216.00794623348122C1690.7197803754812 221.15709410360807 1745.644024323501 631.6471623101197 1882.9546341935497 621.348866569866C2020.265244063598 611.0505708296123 2143.8447929466424 261.3204474905974 2212.500097881667 166.57612668026357 " transform="rotate(87, 400, 400)"></path><path d="M-1350.0000031211157 647.125234791162C-1283.7121224941955 575.5343237140883 -1164.393937365739 311.44340729643795 -1031.8181761118985 303.48886162120755C-899.242414858058 295.53431594597714 -846.2121103565219 639.7672800415739 -713.6363491026815 608.943415550056C-581.060587848841 578.119551058538 -528.0302833473047 190.33544939105474 -395.45452209346433 155.5343120619216C-262.87876083962396 120.73317473278851 -209.84845633808754 438.9150017420056 -77.27269508424729 441.897956370217C55.303066169593194 444.8809109984284 108.33337067112916 165.87522143972117 240.90913192496964 169.85249427733638C373.4848931788101 173.8297671149516 426.51519768034655 431.15931970865597 559.090958934187 460.98886599077C691.6667201880273 490.81841227288413 744.6970246895635 286.18772477758137 877.272785943404 313.03431643148406C1009.848547197244 339.88090808538675 1062.8788516987802 608.7445519081753 1195.4546129526207 589.852505929503C1328.0303742064616 570.9604599508307 1381.0606787079978 217.38090468683816 1513.6364399618383 222.3524957338572C1646.2122012156788 227.32408678087626 1699.2425057172154 623.6593250492324 1831.8182669710554 613.7161429551943C1964.3940282248955 603.7729608611562 2083.712213353352 266.10249694762456 2150.000093980272 174.62522168247466 " transform="rotate(84, 400, 400)"></path><path d="M-1287.5000035546038 638.2993293252057C-1223.579547235788 569.2652365008844 -1108.5227258619193 314.6061385267218 -980.6818132242875 306.9356837684639C-852.8409005866556 299.265229010206 -801.7045355316029 631.2041586738171 -673.8636228939711 601.4811464855677C-546.0227102563392 571.7581342973183 -494.8863452012863 197.8234648322451 -367.04543256365446 164.26522526486673C-239.20451992602284 130.7069856974884 -188.06815487096992 437.5251760278049 -60.227242233338075 440.40159656215155C67.61367040429377 443.2780170964983 118.75003545934646 174.23681645060202 246.5909480969783 178.07204382973097C374.43186073461015 181.90727120885992 425.56822578966285 430.0464826385034 553.4091384272947 458.81068798197055C681.2500510649265 487.5748933254377 732.3864161199799 290.2524446692529 860.2273287576113 316.1402294783734C988.0682413952431 342.0280142874939 1039.2046064502956 601.2893851166114 1167.0455190879275 583.0720550657487C1294.8864317255598 564.8547250148862 1346.0227967806122 223.903011010322 1473.8637094182445 228.6970452342332C1601.7046220558764 233.49107945814438 1652.8409871109293 615.6714877883448 1780.6818997485607 606.0834193405225C1908.5228123861925 596.4953508927 2023.579633760061 270.8845464046517 2087.500090078877 182.67431668468572 " transform="rotate(81, 400, 400)"></path><path d="M-1224.9999963586977 629.4734391180384C-1163.446964347986 562.9961645464698 -1052.651506728705 317.7688850157947 -929.5454427072818 310.3825211745093C-806.4393786858586 302.9961573332239 -757.1969530772893 622.6410525648495 -634.0908890558661 594.0188926798685C-510.9848250344428 565.3967327948876 -461.7423994258734 205.3114955322245 -338.63633540445016 172.9961537266009C-215.53027138302696 140.6808119209773 -166.2878457744573 436.13536557239314 -43.1817817530341 438.90525201287517C79.9242822683891 441.6751384533572 129.1667078769583 182.5984267202719 252.2727718983815 186.29160864091463C375.3788359198047 189.98479056155733 424.62126152837413 428.93366082713993 547.7273255497973 456.63252523196013C670.8333895712206 484.33138963678033 720.0758151797902 294.31717981971354 843.1818792012132 319.2461577840518C966.2879432226364 344.17513574838995 1015.5303688312056 593.8342335838364 1138.6364328526288 576.2916194607835C1261.7424968740524 558.7490053377308 1310.9849224826216 230.42513259259488 1434.0909865040453 235.04160999339825C1557.197050525469 239.65808739420163 1606.4394761340382 607.6836657862466 1729.545540155461 598.4507109846397C1852.6516041768837 589.2177561830329 1963.4470617961647 275.6666111204679 2025.0000938068765 190.72342694568584 " transform="rotate(78, 400, 400)"></path><path d="M-1162.499996792186 620.6475336520821C-1103.3143890895788 556.7270773332662 -996.7802952248854 320.93161624607853 -878.4090798196708 313.82934332176563C-760.0378644144562 306.72707039745274 -712.6893782523703 614.0779311970928 -594.3181628471556 586.5566236153803C-475.9469474419409 559.0353160336679 -428.598461279855 212.79951097341487 -310.2272458746403 181.72706692954603C-191.8560304694256 150.65462288567716 -144.50754430733969 434.74553985819244 -26.136328902125115 437.4088922048098C92.23488650308968 440.0722445514271 139.58337266517538 190.96002173115275 257.9545880703902 194.5111581933092C376.32580347560474 198.06229465546565 423.67428963769066 427.82082375698735 542.0455050429055 454.4543472231607C660.41672044812 481.08787068933395 707.765206610206 298.38189971138513 826.1364220154205 322.3520708309411C944.5076374206351 346.3222419504971 991.856123582721 586.3790667922725 1110.2273389879356 569.5111685970294C1228.5985543931506 552.6432704017863 1275.947040555236 236.94723891607867 1394.318255960451 241.38615949377422C1512.6894713656661 245.82508007146978 1560.037957527752 599.6958285253592 1678.4091729329662 590.817987369968C1796.7803883381807 581.9401462145769 1903.314482202874 280.4486605774951 1962.5000899054812 198.77252194789693 " transform="rotate(75, 400, 400)"></path><path d="M-1099.9999972256744 611.8216281861257C-1043.1818138311714 550.4579901200625 -940.9090837210658 324.09434747636226 -827.2727169320598 317.276165469022C-713.6363501430537 310.4579834616816 -668.1818034274513 605.514809829336 -554.5454366384452 579.0943545508919C-440.9090698494391 552.673899272448 -395.4545231338366 220.28752641460522 -281.8181563448305 190.45798013249112C-168.18178955582437 160.62843385037704 -122.72724284022206 433.3557141439917 -9.090876051215673 435.9125323967443C104.54549073779026 438.46935064949696 150.00003745339245 199.3216167420336 263.6364042423986 202.7307077457038C377.2727710314048 206.139798749374 422.7273177470074 426.70798668683483 536.3636845360134 452.27616921436123C650.0000513250193 477.8443517418876 695.4545980406219 302.44661960305666 809.0909648296279 325.4579838778304C922.7273316186338 348.46934815260414 968.1818783342364 578.9239000007085 1081.8182451232424 562.730717733275C1195.4546119122488 546.5375354658418 1240.909158627851 243.46934523956247 1354.5455254168573 247.7307089941502C1468.1818922058637 251.99207274873794 1513.636438921466 591.7079912644717 1627.2728057104719 583.1852637552963C1740.9091724994778 574.6625362461207 1843.1819026095836 285.2307100345222 1900.0000860040864 206.82161695010802 " transform="rotate(72, 400, 400)"></path><path d="M-1037.4999976591628 602.9957227201694C-983.049238572764 544.1889029068587 -885.0378722172462 327.2570787066461 -776.1363540444487 320.72298761627826C-667.2348358716513 314.1888965259104 -623.6742286025321 596.9516884615791 -514.7727104297347 571.6320854864036C-405.8711922569373 546.3124825112283 -362.3105849878182 227.77554185579558 -253.40906681502065 199.18889333543623C-144.50754864222313 170.60224481507692 -100.94694137310398 431.96588842979094 7.954576799693541 434.4161725886788C116.85609497249084 436.86645674756676 160.41670224160976 207.68321175291445 269.3182204144073 210.95025729809836C378.2197385872048 214.2173028432823 421.78034585632395 425.59514961668225 530.6818640291215 450.0979912055617C639.5833822019188 474.60083279444115 683.1439894710379 306.5113394947282 792.0455076438354 328.56389692471964C900.9470258166325 350.6164543547112 944.5076330857519 571.4687332091446 1053.4091512585492 555.9502668695209C1162.310669431347 540.4318005298971 1205.8712767004663 249.99145156304627 1314.7727948732636 254.0752584945262C1423.6743130460613 258.1590654260061 1467.2349203151803 583.7201540035843 1576.1364384879776 575.5525401406244C1685.0379566607744 567.3849262776646 1783.0493230162924 290.0127594915494 1837.5000821026915 214.87071195231908 " transform="rotate(69, 400, 400)"></path><path d="M-974.9999980926511 594.1698286983049C-922.9166633143566 537.9198271377469 -829.1666607134266 330.41982138102173 -724.9999911568377 324.1698212076264C-620.8333216002488 317.91982103423106 -579.1666537776132 588.3885785379142 -474.9999842210243 564.1698278660073C-370.8333146644354 539.9510771941003 -329.1666468417998 235.26356874107773 -224.9999772852109 207.91981798247315C-120.83330772862189 180.57606722386856 -79.16663990598624 430.576074159682 25.000029650602755 432.9198242247052C129.1666992071914 435.26357428972847 170.83336702982706 216.0448182078871 275.00003658641594 219.16981829458476C379.16670614300483 222.29481838128243 420.8333739656405 424.4823239906215 525.0000435222296 447.919824640854C629.1667130788182 471.35732529108657 670.8333809014541 310.5760708304915 775.0000504580428 331.66982141570077C879.1667200146317 352.76357200091 920.8333878372671 564.0135778616725 1025.000057393856 549.1698274498585C1129.166726950445 534.3260770380446 1170.8333947730807 256.51356933062186 1275.0000643296698 260.41981943899395C1379.166733886259 264.32606954736605 1420.8334017088941 575.7323281867887 1525.0000712654833 567.9198279700445C1629.166740822072 560.1073277533003 1722.9167434230017 294.7948203926683 1775.0000782012962 222.91981839862197 " transform="rotate(66, 400, 400)"></path><path d="M-912.4999985261394 585.3439270470458C-862.7840880559493 531.6507437392404 -773.2954492096069 333.5825564260028 -673.8636282692266 327.61664716958C-574.4318073288463 321.6507379131572 -534.6590789526941 579.8254609848548 -435.22725801231377 556.7075626162163C-335.7954370719335 533.5896642475777 -296.0227086957814 242.75158799696536 -196.590887755401 216.65073500011553C-97.15906681502065 190.5498820032657 -57.38633843886839 429.18625226017855 42.045482501511856 431.4234682313371C141.47730344189222 433.66068420249564 181.25003181804436 224.40641703346517 280.6818527584246 227.3893716616766C380.11367369880486 230.37232628988804 419.886402074957 423.3694907351662 519.3182230153373 445.7416504467518C618.7500439557177 468.1138101583374 658.5227723318701 314.64079453686037 757.9545932722501 334.77573827728736C857.3864142126301 354.9106820177144 897.1591425887825 556.5584148848058 996.590963529163 542.3893804008015C1096.0227844695432 528.2203459167972 1135.7955128456956 263.035679468803 1235.227333786076 266.7643727540672C1334.6591547264566 270.4930660393315 1374.4318831026085 567.7444947405986 1473.8637040429885 560.28710817007C1573.2955249833685 552.8297215995415 1662.784163829711 299.57687366439274 1712.5000742999014 230.9689172155303 " transform="rotate(63, 400, 400)"></path><path d="M-849.9999989596278 576.5180215810894C-802.651512797542 525.3816565260367 -717.4242377057873 336.7452876562866 -622.7272653816156 331.0634693168363C-528.0302930574438 325.381650977386 -490.1515041277751 571.262339617098 -395.45453180360346 549.2452935517281C-300.7575594794316 527.2282474863581 -262.87877054976286 250.2396034381557 -168.18179822559125 225.38164820306065C-73.48482590141941 200.52369296796556 -35.606036971750655 427.7964265459778 59.090935352420956 429.92710842327165C153.7879076765928 432.0577903005655 191.66669660626144 232.76801204434602 286.36366893043305 235.6089212140712C381.0606412546049 238.44983038379635 418.93943018427353 422.25665366501374 513.6364025084454 443.5634724379524C608.3333748326172 464.870291210891 646.2121637622859 318.7055144285319 740.9091360864577 337.8816513241767C835.6061084106293 357.0577882198215 873.484897340298 549.1032480932417 968.1818696644698 535.6089295370473C1062.8788419886414 522.1146109808528 1100.7576309183103 269.5577857922868 1195.4546032424819 273.1089222544432C1290.1515755666542 276.6600587165997 1328.0303644963228 559.7566574797112 1422.7273368204942 552.6543845553983C1517.4243091446656 545.5521116310854 1602.6515842364201 304.3589231214199 1650.000070398506 239.0180122177414 " transform="rotate(60, 400, 400)"></path><path d="M-787.4999993931161 567.6921161151332C-742.5189375391345 519.1125693128331 -661.5530262019677 339.9080188865704 -571.5909024940045 334.51029146409263C-481.6287787860414 329.11256404161486 -445.6439293028561 562.6992182493412 -355.681805594893 541.7830244872398C-265.71968188692983 520.8668307251382 -229.73483240374446 257.7276188793461 -139.77270869578138 234.11256140600574C-49.810584987818174 210.49750393266544 -13.825735504632917 426.40660083177704 76.13638820333028 428.4307486152062C166.09851191129349 430.45489639863536 202.08336139447852 241.12960705522687 292.0454851024417 243.82847076646578C382.0076088104049 246.52733447770467 417.9924582935903 421.14381659486116 507.9545820015535 441.3852944291529C597.9167057095167 461.6267722634446 633.9015551927018 322.7702343202035 723.863678900665 340.987564371066C813.8258026086278 359.20489442192854 849.8106520918134 541.6480813016778 939.7727757997766 528.8284786732931C1029.7348995077398 516.0088760449083 1065.7197489909252 276.0798921157706 1155.6818726988884 279.4534717548192C1245.6439964068518 282.8270513938678 1281.6288458900367 551.7688202188237 1371.590969598 545.0216609407264C1461.5530933059626 538.2745016626292 1542.5190046431294 309.140972578447 1587.5000664971112 247.06710721995245 " transform="rotate(57, 400, 400)"></path><path d="M-724.9999998266044 558.8662259079658C-682.3863622807271 512.8434973584185 -605.681814698148 343.0707653756433 -520.4545396063934 337.95712887013804C-435.22726451463893 332.84349236463277 -401.1363544779371 554.1361121403736 -315.9090793861825 534.3207706815406C-230.68180429442793 514.5054292227076 -196.59089425772606 265.2156495793255 -111.3636191659715 242.84348986773995C-26.136344074216936 220.47133015615435 7.954565962485049 425.0167903763653 93.18184105423961 426.9344040659298C178.40911614599418 428.85201775549433 212.50002618269582 249.49121732489678 297.7273012744504 252.04803557764942C382.95457636620495 254.60485383040208 417.0454864029068 420.0309947834977 502.2727614946614 439.20713167914244C587.500036586416 458.3832685747873 621.5909466231178 326.8349694706641 706.8182217148724 344.09349267674435C792.0454968066269 361.3520158828247 826.1364068433288 534.192929768903 911.3636819350834 522.0480430683278C996.5909570268379 509.90315636775284 1030.6818670635396 282.60201369804344 1115.9091421552946 285.79803651398424C1201.1364172470492 288.99405932992505 1235.227327283751 543.7809982167253 1320.4546023755051 537.3889525848438C1405.6818774672597 530.9969069529621 1482.386425049839 313.9230372942633 1525.0000625957164 255.1162174809526 " transform="rotate(54, 400, 400)"></path><path d="M-662.5000002600927 550.0403204420096C-622.2537870223198 506.57441014521476 -549.8106031943283 346.23349660592714 -469.3181767187824 341.4039510173944C-388.8257502432364 336.5744054288616 -356.628779653018 545.5729907726168 -276.1363531774721 526.8585016170523C-195.64392670192615 508.1440124614879 -163.44695611170766 272.70366502051587 -82.95452963616174 251.57440307068504C-2.4621031606156976 230.44514112085423 29.734867429602787 423.6269646621646 110.22729390514871 425.43804425786436C190.71972038069464 427.2491238535642 222.916690970913 257.8528123357776 303.4091174464588 260.26758513004404C383.901543922005 262.6823579243104 416.0985145122236 418.9181577133452 496.5909409877695 437.028953670343C577.0833674633154 455.13974962734085 609.2803380535338 330.8996893623356 689.7727645290797 347.1994057236337C770.2651910046256 363.49912208493174 802.4621615948438 526.7377629773391 882.9545880703902 515.2675922045737C963.4470145459363 503.7974214318084 995.6439851361545 289.12412002152723 1076.1364116117006 292.14258601436023C1156.6288380872468 295.16105200719323 1188.8258086774651 535.793160955838 1269.318235153011 529.7562289701721C1349.8106616285568 523.7192969845061 1422.2538454565479 318.7050867512904 1462.500058694321 263.1653124831637 " transform="rotate(51, 400, 400)"></path><path d="M-600.0000617287374 541.2144264201451C-562.1212727990687 500.30533437610285 -493.939452725665 349.3962392803027 -418.1818748663276 344.8507846087425C-342.42429700699023 340.30532993718225 -312.12126586325525 537.0098808489519 -236.3636880039179 519.3962439966558C-160.6061101445805 501.7826071443599 -130.3030790008455 280.191691905798 -54.54550114150811 260.305327717722C21.21207671782929 240.4189635296459 51.515107861564275 422.23715039205564 127.27268572090168 423.9416958938907C203.03026358023908 425.64624139572584 233.33329472397406 266.21441879075024 309.09087258331135 268.4871461265304C384.84845044264875 270.7598734623105 415.15148158638385 417.80533208728446 490.90905944572114 434.85078710563533C566.6666373050584 451.89624212398627 596.9696684487935 334.96442069809893 672.727246308131 350.3053302146148C748.4848241674681 365.6462397311306 778.7878553112032 519.2826076298669 854.5454331705405 508.48715278491125C930.3030110298782 497.6916979399557 960.6060421736129 295.6462377891028 1036.3636200329506 298.487146958828C1112.1211978922881 301.32805612855316 1142.4242290360228 527.8053351390424 1218.1818068953603 522.1235167995919C1293.9393847546976 516.4416984601417 1362.121204828101 323.48714765240936 1399.9999937577695 271.21441892946655 " transform="rotate(48, 400, 400)"></path><path d="M-537.5000621622257 532.388524768886C-501.9886975406613 494.0362509775964 -438.06824122184537 352.55897432528377 -367.04551197871655 348.29761057069607C-296.0227827355877 344.03624681610836 -267.61369103833624 528.4467632958923 -196.59096179520742 511.93397874686485C-125.56823255207865 495.4211941978374 -97.15914085482706 287.67971116168565 -26.136411611698236 269.03624473536433C44.88631763143053 250.39277830904302 73.29540932868213 420.84732849255215 144.3181385718109 422.4453399005225C215.34086781493966 424.04335130849296 243.74995951219114 274.5760176163284 314.77268875532 276.70669949362224C385.7954179984488 278.8373813709161 414.2045096957004 416.6924988318291 485.22723893882903 432.6726129115331C556.2499681819579 448.65272699123705 584.6590598792095 339.0291444044678 655.6817891223384 353.41124707620133C726.704518365467 367.79334974793494 755.1136100627186 511.82744465300016 826.1363393058473 501.70670573585426C897.1590685489764 491.5859668187084 925.5681602462278 302.1683479272839 996.5908894893569 304.8317002739012C1067.6136187324855 307.4950526205186 1096.022710429737 519.8175016928521 1167.0454396728658 514.4907969996175C1238.0681689159944 509.1640923063828 1301.9886252348103 328.26920092413377 1337.499989856375 279.2635177463749 " transform="rotate(45, 400, 400)"></path><path d="M-475.00006259571404 523.5626231176269C-441.8561222822539 487.76716757909 -382.1970297180257 355.7217093702649 -315.9091490911055 351.7444365326497C-249.62126846418528 347.76716369503447 -223.10611621341718 519.8836457428329 -156.818235586497 504.4717134970739C-90.53035495957675 489.0597812513149 -64.0152027088086 295.16773041757324 2.27267791811164 277.7671617530067C68.56055854503177 260.36659308844014 95.07571079579998 419.4575065930487 161.3635914227201 420.9489839071544C227.65147204964035 422.4404612212601 254.16662430040833 282.93761644190647 320.45450492732857 284.9262528607141C386.7423855542488 286.91488927952173 413.257537805017 415.5796655763739 479.54541843193726 430.4944387174309C545.8332990588574 445.409211858488 572.3484513096255 343.0938681108366 638.6363319365457 356.5171639377879C704.9242125634657 369.9404597647393 731.4393648142338 504.3722816761335 797.7272454411541 494.9262586867974C864.0151260680746 485.48023569746124 890.5302783188426 308.690458065465 956.8181589457629 311.17625358897453C1023.1060395726831 313.662049112484 1049.6211918234515 511.8296682466621 1115.9090724503715 506.85807719964305C1182.1969530772915 501.886486152624 1241.8560456415198 333.0512541958582 1274.9999859549798 287.3126165632832 " transform="rotate(42, 400, 400)"></path><path d="M-412.50006302920235 514.7367138369733C-381.72354702384655 481.498076551189 -326.32581821420604 358.88443678585145 -264.77278620349443 355.19125486520875C-203.21975419278283 351.49807294456605 -178.59854138849818 511.32052056037884 -117.04550937778657 497.00944061788834C-55.49247736707491 482.6983606753979 -30.871264562790202 302.65574204406636 30.681767447921402 286.49807114125457C92.234799458633 270.3404002384427 116.85601226291783 418.06767706415064 178.40904427362943 419.4526202843917C239.96207628434104 420.8375635046327 264.58328908862563 291.2992076380901 326.13632109933724 293.14579859841143C387.68935311004884 294.9923895587328 412.31056591433355 414.46682469152404 473.86359792504516 428.31625689393417C535.4166299357568 442.1656890963443 560.0378427400415 347.1585841878109 621.5908747507531 359.62307316998C683.1439067614647 372.0875621521491 707.7651195657493 496.9171110698723 769.3181515764609 488.14580400834586C830.8711835871727 479.3744969468195 855.4923963914573 315.21256057425154 917.0454284021691 317.5207992746532C978.598460412881 319.8290379750549 1003.2196732171656 503.8418271710774 1064.772705227877 499.22534977027397C1126.3257372385883 494.60887236947053 1181.7234660482288 337.83329983818805 1212.4999820535847 295.36170775079705 " transform="rotate(39, 400, 400)"></path><path d="M-350.0000634626907 505.91081981510877C-321.59097176543924 475.22900078207715 -270.45460671038643 362.047179460227 -213.6364233158834 358.6380884565569C-156.81823992138038 355.2289974528867 -134.09096656357917 502.75741063671387 -77.27278316907609 489.54718299749186C-20.45459977457307 476.3369553582699 2.2726735832281975 310.14376892934854 59.09085697773122 295.22899578829146C115.90904037223436 280.31422264723443 138.63631373003545 416.67786279404174 195.45449712453865 417.9562719204181C252.27268051904161 419.2346810467944 274.9999538768427 299.6608140930627 331.8181372713458 301.36535959489777C388.63632066584887 303.0699050967329 411.3635940236502 413.3539990654633 468.18177741815316 426.13809032922654C524.9999608126561 438.92218159298966 547.7272341704575 351.22331552357423 604.5454175649604 362.7289976609611C661.3636009594634 374.234679798348 684.0908743172647 489.46195572240015 740.9090577117677 481.3653645886834C797.7272411062709 473.2687734549668 820.454514464072 321.73467834182713 877.2726978585752 323.865360219121C934.0908812530784 325.99604209641484 956.8181546108794 495.85400135428176 1013.6363380053824 491.59263759969406C1070.4545213998854 487.33127384510624 1121.5908864549383 342.615360739307 1149.9999781521897 303.4108141970999 " transform="rotate(36, 400, 400)"></path><path d="M-287.5000638961791 497.0849181638497C-261.4583965070318 468.9599173835707 -214.5833952065668 365.20991450520813 -162.50006042827235 362.0849144185105C-110.4167256499779 358.9599143318128 -89.58339173866011 494.1942930836544 -37.50005696036567 482.0849177477009C14.583277817928774 469.9755424117474 35.4166117292466 317.63178818523613 87.49994650754104 303.95991280593387C139.58328128583554 290.28803742663155 160.4166151971533 415.28804089453826 212.49994997544786 416.4599159270499C264.5832847537422 417.6317909595615 285.41661866506 308.0224129186408 337.49995344335446 309.58491296198963C389.5832882216489 311.1474130053385 410.4166221329667 412.24116581000806 462.4999569112613 423.9599161351243C514.5832916895556 435.67866646024055 535.4166256008735 355.288039229943 587.4999603791679 365.83491452254765C639.5832951574623 376.3817898151523 660.41662906878 482.0067927455335 712.4999638470745 474.58491753962653C764.583298625369 467.16304233371955 785.4166325366868 328.2567884800082 837.4999673149814 330.20991353419424C889.583302093276 332.1630385883803 910.4166360045936 487.8661679080916 962.4999707828881 483.9599177997195C1014.5833055611824 480.0536676913474 1061.4583068616473 347.3974140110314 1087.4999742507946 311.45991301400824 " transform="rotate(33, 400, 400)"></path><path d="M-225.0000643296674 488.2590165125906C-201.32582124862446 462.6908339850643 -158.71218370274715 368.37264955018924 -111.36369754066129 365.53174038046404C-64.01521137857543 362.6908312107389 -45.07581691374108 485.6311755305949 2.272669248344755 474.62265249790994C49.621155410430674 463.61412946522495 68.56054987526505 325.1198074411238 115.90903603735086 312.6908298235762C163.25752219943678 300.26185220602866 182.19691666427116 413.89821899503477 229.54540282635696 414.9635599336817C276.8938889884429 416.0289008723287 295.8332834532772 316.3840117442189 343.181769615363 317.8044663290815C390.53025577744893 319.22492091394406 409.46965024228325 411.1283325545528 456.81813640436917 421.7817419410221C504.1666225664551 432.43515132749144 523.1060170312894 359.3527629363119 570.4545031933753 368.94083138413424C617.8029893554611 378.52889983195666 636.7423838202955 474.55162976866677 684.0908699823814 467.80447049056954C731.4393561444672 461.0573112124723 750.3787506093017 334.77889861818926 797.7272367713874 336.5544668492675C845.0757229334736 338.33003508034574 864.0151173983079 479.8783344619015 911.3636035603936 476.32719799974507C958.7120897224793 472.7760615375886 1001.3257272683566 352.17946728275587 1024.9999703493995 319.50901183091656 " transform="rotate(30, 400, 400)"></path><path d="M-162.50006476315573 479.43311486133155C-141.1932459902171 456.4217505865579 -102.84097219892752 371.5353845951703 -60.227334653050235 368.97856634241765C-17.61369710717298 366.421748089665 -0.5682420888220747 477.06805797753543 42.045395457055236 467.1603872481189C84.65903300293252 457.2527165187024 101.70448802128345 332.6078266970114 144.31812556716073 321.4217468412186C186.93176311303802 310.23566698542584 203.977218131389 412.5083970955313 246.5908556772663 413.46720394031354C289.2044932231436 414.4260107850958 306.2499482414944 324.745610569797 348.8635857873717 326.02401969617335C391.47722333324896 327.30242882254964 408.5226783515999 410.0154992990975 451.1363158974772 419.60356774691985C493.74995344335446 429.1916361947423 510.7954084617054 363.4174866426807 553.4090460075827 372.04674824572083C596.02268355346 380.67600984876094 613.0681385718109 467.09646679180014 655.6817761176882 461.02402344151255C698.2954136635655 454.9515800912251 715.3408686819163 341.3010087563704 757.9545062277938 342.89902016434075C800.5681437736712 344.49703157231113 817.613598792022 471.89050101571127 860.2272363378991 468.6944781997705C902.8408738837763 465.4984553838297 941.193147675066 356.9615205544803 962.4999664480047 327.55811064782495 " transform="rotate(27, 400, 400)"></path><path d="M-100.00002704967142 470.60721321007253C-81.06063258483707 450.1526671880514 -46.96972254813522 374.6981196401514 -9.090933618466522 372.42539230437126C28.78785531120215 370.1526649685911 43.93937088306964 468.50494042447593 81.81815981273832 459.6981219983279C119.69694874240702 450.89130357217994 134.8484643142745 340.095845952899 172.7272532439432 330.152663858861C210.6060421736119 320.20948176482295 225.7575577454794 411.1185751960278 263.6363466751481 411.97084794694536C301.5151356048168 412.8231206978629 316.6666511766843 333.10720939537515 354.545440106353 334.2435730632652C392.42422903602164 335.3799367311553 407.5757446078892 408.9026660436422 445.45453353755784 417.4253935528177C483.3333224672265 425.9481210619931 498.48483803909403 367.48221034904947 536.3636269687628 375.15266510730737C574.2424158984313 382.82311986556533 589.3939314702989 459.64130381493345 627.2727203999675 454.2435763924556C665.1515093296364 448.84584896997785 680.3030249015037 347.82311889455144 718.1818138311726 349.243573479414C756.0606027608413 350.6640280642766 771.2121183327087 463.9026675695212 809.0909072623774 461.06175839979596C846.9696961920461 458.2208492300708 881.0606062287479 361.7435738262047 900.000000693582 335.6072094647333 " transform="rotate(24, 400, 400)"></path><path d="M-37.49999696558163 461.78131155881346C-20.92802680885157 443.883583789545 8.901519473262539 377.86085468513244 42.04545978672263 375.87221826632486C75.18940010018275 373.88358184751723 88.4469762255668 459.94182287141643 121.59091653902689 452.23585674853695C154.73485685248704 444.52989062565746 167.9924329778711 347.5838652087866 201.1363732913312 338.88358087650334C234.28031360479127 330.18329654422007 247.53788973017538 409.72875329652436 280.68183004363544 410.47449195357717C313.82577035709556 411.22023061063004 327.08334648247956 341.46880822095324 360.2272867959397 342.463126430357C393.3712271093998 343.45744463976087 406.6288032347839 407.7898327881869 439.7727435482441 415.2472193587155C472.9166838617041 422.704605929244 486.17425998708813 371.5469340554183 519.3182003005483 378.25858196889396C552.4621406140083 384.97022988236967 565.7197167393923 452.18614083806676 598.8636570528524 447.4631293433987C632.0075973663127 442.7401178487306 645.2651734916967 354.3452290327325 678.4091138051568 355.58812679448727C711.553054118617 356.831024556242 724.8106302440011 455.91483412333105 757.9545705574611 453.4290385998215C791.0985108709211 450.943243076312 820.9280571530353 366.5256270979291 837.5000273097653 343.6563082816416 " transform="rotate(21, 400, 400)"></path><path d="M25.00000260093003 452.9554099075544C39.20454844955579 437.6145003910386 64.77273097708218 381.02358973011354 93.18182267433369 379.3190442282784C121.5909143715852 377.61449872644334 132.9545510504858 451.37870531835694 161.36364274773734 444.77359149874593C189.77273444498886 438.168477679135 201.1363711238895 355.07188446467427 229.54546282114097 347.61449789414576C257.95455451839257 340.1571113236172 269.3181911972931 408.3389313970209 297.7272828945447 408.97813596020904C326.1363745917962 409.61734052339716 337.50001127069675 349.8304070465314 365.9091029679483 350.6826797974489C394.3181946651998 351.53495254836645 405.6818313441005 406.67699953273166 434.09092304135197 413.06904516461327C462.50001473860345 419.46109079649483 473.8636514175041 375.6116577617871 502.2727431147556 381.36449883048056C530.6818348120071 387.117339899174 542.0454714909077 444.7309778612001 570.4545631881592 440.6826822943417C598.8636548854108 436.6343867274834 610.2272915643114 360.86733917091357 638.636383261563 361.9326801095605C667.0454749588146 362.9980210482074 678.4091116377151 447.9270006771409 706.8182033349666 445.79631879984703C735.2272950322181 443.6656369225531 760.7954775597445 371.3076803696535 775.0000234083702 351.7054070985499 " transform="rotate(18, 400, 400)"></path><path d="M87.50000216744169 444.1295082562953C99.33712370796316 431.34541699253214 120.64394248090181 384.1863247750946 144.31818556194474 382.765870190232C167.99242864298768 381.34541560536945 177.46212587540487 442.81558776529744 201.13636895644777 437.31132624895497C224.81061203749073 431.8070647326125 234.28030926990792 362.55990372056186 257.95455235095085 356.3454149117881C281.6287954319938 350.13092610301436 291.09849266441097 406.9491094975174 314.7727357454539 407.48177996684086C338.44697882649683 408.01445043616434 347.916676058914 358.19200587210946 371.5909191399569 358.90223316454075C395.26516222099985 359.61246045697203 404.734859453417 405.5641662772764 428.40910253446 410.89087097051106C452.08334561550294 416.2175756637457 461.5530428479201 379.6763814681559 485.22728592896306 384.47041569206715C508.90152901000596 389.26444991597833 518.3712262424231 437.2758148843334 542.045469323466 433.90223524528477C565.719712404509 430.52865560623616 575.1894096369263 367.38944930909463 598.8636527179691 368.2772334246338C622.5378957990122 369.16501754017287 632.0075930314293 439.9391672309507 655.6818361124722 438.16359899987253C679.356079193515 436.3880307687943 700.6628979664537 376.0897336413779 712.5000195069751 359.7545059154583 " transform="rotate(15, 400, 400)"></path><path d="M149.9999864751643 435.3036066050363C159.46968370758145 425.0763335940257 176.5151387259324 387.3490598200757 195.45453319076674 386.21269615218563C214.3939276556011 385.07633248429556 221.9696854415348 434.252470212238 240.90907990636916 429.84906099916395C259.8484743712035 425.44565178608997 267.4242321571372 370.0479229764495 286.3636266219716 365.07633192943047C305.303021086806 360.1047408824115 312.8787788727397 405.5592875980139 331.8181733375741 405.9854239734727C350.7575678024084 406.41156034893146 358.3333255883422 366.55360469768755 377.2727200531765 367.1217865316326C396.2121145180108 367.6899683655776 403.7878723039446 404.4513330218211 422.7272667687789 408.71269677640885C441.66666123361324 412.97406053099655 449.242419019547 383.74110517452476 468.1818134843814 387.5763325536537C487.12120794921566 391.41155993278267 494.69696573514943 429.82065190746675 513.6363601999838 427.12178819622784C532.5757546648182 424.4229244849889 540.1515124507519 373.9115594472757 559.0909069155863 374.621786739707C578.0303013804207 375.3320140321383 585.6060591663543 431.9513337847606 604.5454536311887 430.530879199898C623.484848096023 429.1104246150354 640.530303114374 380.8717869131023 650.000000346791 367.80360473236664 " transform="rotate(12, 400, 400)"></path><path d="M212.49998604167595 426.4777049537772C219.60225896598882 418.80725019551926 232.38635022975203 390.51179486505674 246.5908960783778 389.65952211413924C260.79544192700354 388.8072493632217 266.47726026645387 425.68935265917844 280.6818061150796 422.386795749373C294.88635196370535 419.0842388395675 300.5681703031557 377.5359422323371 314.7727161517814 373.8072489470729C328.9772620004072 370.0785556618086 334.6590803398575 404.1694656985104 348.8636261884833 404.4890679801045C363.06817203710904 404.8086702616986 368.7499903765593 374.9152035232657 382.95453622518505 375.34133989872447C397.15908207381085 375.7674762741832 402.8409004132612 403.3384997663658 417.0454462618869 406.53452258230664C431.24999211051266 409.73054539824744 436.931810449963 387.80582888089356 451.13635629858874 390.6822494152403C465.3409021472145 393.558669949587 471.0227204866648 422.36548893060007 485.22726633529055 420.34134114717085C499.43181218391635 418.3171933637417 505.1136305233666 380.43366958545676 519.3181763719924 380.96634005478023C533.5227222206182 381.4990105241037 539.2045405600685 423.96350033857044 553.4090864086943 422.8981593999235C567.61363225732 421.8328184612766 580.3977235210832 385.6538401848268 587.499996445396 375.85270354927496 " transform="rotate(9, 400, 400)"></path><path d="M274.9999856081876 417.65180330251815C279.7348342243962 412.5381667970129 288.25756173357166 393.67452991003785 297.7272589659888 393.1063480760928C307.19695619840604 392.5381662421478 310.9848350913729 417.126235106119 320.45453232379003 414.924530499582C329.92422955620725 412.722825893045 333.7121084491741 385.02396148822476 343.1818056815913 382.53816596471523C352.65150291400846 380.05237044120577 356.43938180697535 402.779643799007 365.9090790393925 402.99271198673637C375.37877627180967 403.20578017446576 379.16665516477656 383.2768023488438 388.6363523971937 383.5608932658163C398.1060496296109 383.84498418278883 401.89392852257777 402.22566651091057 411.3636257549949 404.3563483882044C420.8333229874121 406.4870302654983 424.621201880379 391.87055258726235 434.09089911279614 393.78816627682687C443.5605963452133 395.70577996639133 447.3484752381802 414.9103259537334 456.81817247059735 413.5608940981139C466.28786970301456 412.21146224249446 470.0757485959814 386.9557797236379 479.5454458283986 387.3108933698535C489.01514306081583 387.66600701606916 492.8030219537826 415.9756668923803 502.2727191861998 415.265439599949C511.742416418617 414.5552123075177 520.2651439277925 390.4358934565512 524.999992544001 383.90180236618335 " transform="rotate(6, 400, 400)"></path><path d="M337.4999966187911 408.8259016512591C339.86742092689536 406.26908339850644 344.1287846814831 396.8372649550189 348.86363329769165 396.5531740380464C353.5984819139003 396.2690831210739 355.4924213603837 408.5631175530595 360.2272699765923 407.462265249791C364.9621185928009 406.3614129465225 366.85605803928433 392.5119807441124 371.5909066554929 391.26908298235765C376.3257552717015 390.0261852206029 378.21969471818494 401.3898218995035 382.9545433343935 401.4963559933682C387.6893919506021 401.6028900872329 389.58333139708554 391.6384011744219 394.3181800132941 391.78044663290814C399.0530286295027 391.9224920913944 400.94696807598615 401.11283325545526 405.68181669219473 402.1781741941022C410.4166653084033 403.24351513274917 412.31060475488675 395.9352762936312 417.04545337109533 396.8940831384134C421.7803019873039 397.85288998319567 423.67424143378736 407.4551629768667 428.40909004999594 406.78044704905693C433.1439386662046 406.10573112124723 435.03787811268796 393.47788986181894 439.7727267288966 393.65544668492674C444.5075753451052 393.83300350803455 446.40151479158857 407.98783344619017 451.13636340779715 407.6327197999745C455.8712120240058 407.2776061537589 460.1325757785935 395.2179467282756 462.50000008669775 391.9509011830917 " transform="rotate(3, 400, 400)"></path></g></svg>