<?xml version="1.0" ?><svg viewBox="0 0 512 512" xmlns="http://www.w3.org/2000/svg"><defs><style>.cls-1{fill:#3f456b;}</style></defs><title/><g id="Lines"><path class="cls-1" d="M96,467a5.49,5.49,0,0,1-.8-.06l-62-10a5,5,0,0,1-4.15-5.67l38-255.9c1.79-16.74,10.82-32.93,26.1-46.82a111.61,111.61,0,0,1,22.51-16l33.91-19a5,5,0,1,1,4.88,8.72l-34,19-.2.11c-.4.2-39.61,20.29-43.27,55.05,0,.07,0,.14,0,.21L39.67,447.85l52.08,8.4,27.84-201.43a5,5,0,0,1,9.91,1.36L101,462.68A5,5,0,0,1,96,467Z"/><path class="cls-1" d="M386.73,500.28H124.55a5,5,0,0,1-5-5V204.71a5,5,0,0,1,10,0V490.28H381.73V204.71a5,5,0,0,1,10,0V495.28A5,5,0,0,1,386.73,500.28Z"/><path class="cls-1" d="M193,171a4.8,4.8,0,0,1-1.7-.3c-20-7.22-34.43-20.86-40.73-38.41-5.12-14.26-5.25-31.78-.36-49.35,6.16-22.18,20.22-40.9,40.65-54.13C209.6,16.68,232.73,10,256,10a5,5,0,0,1,0,10c-21.36,0-42.57,6.11-59.7,17.21-18.35,11.88-31,28.62-36.46,48.41-4.34,15.59-4.29,31,.14,43.29,5.28,14.7,17.61,26.2,34.72,32.39A5,5,0,0,1,193,171Z"/><path class="cls-1" d="M318.65,171a5,5,0,0,1-1.7-9.7c17.11-6.19,29.44-17.69,34.72-32.39,4.42-12.33,4.47-27.7.14-43.29-5.51-19.79-18.11-36.53-36.46-48.41C298.21,26.11,277,20,255.64,20a5,5,0,0,1,0-10c23.28,0,46.41,6.68,65.14,18.81,20.43,13.23,34.49,32,40.66,54.13,4.89,17.57,4.76,35.09-.36,49.35-6.31,17.55-20.77,31.19-40.73,38.41A5.08,5.08,0,0,1,318.65,171Z"/><path class="cls-1" d="M257,181c-16.3,0-21.22-13-21.58-20-.18-1.34-2.84-16.8-27-20.71l-.14,0c-15.68-3-27.11-11.12-32.17-22.85-5.13-11.9-4.28-25.69,2.41-38.83C190.33,55.33,218.58,42,256,42h.77c37.43,0,65.68,13.33,77.51,36.58,6.69,13.14,7.54,26.93,2.41,38.83-5.06,11.73-16.49,19.85-32.17,22.85l-.14,0c-23.5,3.8-26.67,18.51-27,20.61,0,2-.41,9.08-5.52,14.4C268.24,179.08,263.23,181,257,181Zm-11.6-20.6a14.4,14.4,0,0,0,1.81,5.71c1.95,3.29,5.15,4.89,9.79,4.89,3.43,0,5.92-.85,7.62-2.59,2.84-2.91,2.77-7.61,2.77-7.65a4.56,4.56,0,0,1,0-.64c.09-1,2.68-24.38,35.31-29.69,8.71-1.68,20.06-6,24.8-17,3.93-9.12,3.17-19.89-2.14-30.33C320.15,72.85,311,64.91,298.24,59.51c-11.62-4.91-26-7.51-41.46-7.51H256c-15.5,0-29.84,2.6-41.46,7.51-12.78,5.4-21.91,13.34-27.14,23.61-5.31,10.44-6.07,21.21-2.14,30.33,4.74,11,16.09,15.3,24.8,17,32.63,5.31,35.22,28.7,35.31,29.69,0,.1,0,.19,0,.28Z"/><path class="cls-1" d="M384,468H125a5,5,0,0,1,0-10H384a5,5,0,0,1,0,10Z"/><path class="cls-1" d="M81,501a5.1,5.1,0,0,1-.87-.07l-46-8a5,5,0,0,1-4.1-5.6l4.73-35.07a5,5,0,0,1,9.91,1.33L40.6,483.9l36.45,6.34,6-30.22a5,5,0,0,1,9.8,2l-7,35A5,5,0,0,1,81,501Z"/><path class="cls-1" d="M418,467a4.92,4.92,0,0,1-2.95-1,5,5,0,0,1-2-3.3l-30.54-206.5a5,5,0,1,1,9.89-1.46l29.81,201.49,52.08-8.4L435.06,196.77l0-.1c-4.59-34-43-55.06-43.41-55.27l-34.07-19a5,5,0,1,1,4.88-8.72l34,19A117.29,117.29,0,0,1,418.53,149c15.07,14,24.2,30,26.42,46.31l40,256a5,5,0,0,1-4.14,5.71l-62,10A5.49,5.49,0,0,1,418,467Z"/><path class="cls-1" d="M432,500a5,5,0,0,1-4.91-4.13l-6-34a5,5,0,1,1,9.84-1.74l5.14,29.12,38.18-6.36-4.89-29.14a5,5,0,1,1,9.86-1.66l5.72,34.08a5,5,0,0,1-4.11,5.76l-48,8A4.65,4.65,0,0,1,432,500Z"/><path class="cls-1" d="M166,422a5,5,0,0,1-2.56-9.3c33.66-20,29.78-57.53,29.59-59.12a5,5,0,0,1,9.93-1.17c.22,1.85,4.94,45.5-34.4,68.89A5.09,5.09,0,0,1,166,422Z"/><path class="cls-1" d="M342,422a5,5,0,0,1-2.18-.5c-15.67-7.61-26.66-22-31.78-41.61a94.57,94.57,0,0,1-3-27.21,5,5,0,0,1,10,.63h0c0,.44-2.31,43.89,29.19,59.19A5,5,0,0,1,342,422Z"/><path class="cls-1" d="M221,314a5,5,0,0,1-2.85-.89C209.89,307.39,203.87,295,202,280c-1.49-12.19-.87-31.5,10.49-54.22,17-34,1.57-50.57.9-51.26a5,5,0,0,1,7.11-7c.88.88,21.31,22,.93,62.78-18.05,36.11-8.21,67.32,2.38,74.65A5,5,0,0,1,221,314Z"/><path class="cls-1" d="M231,327h-1a5,5,0,0,1,0-10h1a5,5,0,0,1,0,10Z"/><path class="cls-1" d="M293,314a5,5,0,0,1-2.85-.89C281.89,307.39,275.87,295,274,280c-1.49-12.19-.87-31.5,10.49-54.22,17-34,1.57-50.57.9-51.26a5,5,0,0,1,7.11-7c.88.88,21.31,22,.93,62.78-18.05,36.11-8.21,67.32,2.38,74.65A5,5,0,0,1,293,314Z"/><path class="cls-1" d="M303,327h-1a5,5,0,0,1,0-10h1a5,5,0,0,1,0,10Z"/></g><g id="Outline"><path class="cls-1" d="M166.47,422.15a5,5,0,0,1-1.52-.23l-.54-.18a5,5,0,0,1,3.17-9.48l.41.13a5,5,0,0,1-1.52,9.76Z"/><path class="cls-1" d="M263.53,435.29a5,5,0,0,1-.08-10l.93,0a5,5,0,1,1,.2,10h-1.05ZM244.64,435h-.22l-1-.05a5,5,0,1,1,.46-10l.92,0a5,5,0,0,1-.2,10Zm38.71-.78a5,5,0,0,1-.43-10l.93-.09a5,5,0,0,1,.89,10l-.95.09Zm-58.51-.68a4.52,4.52,0,0,1-.52,0l-.95-.1a5,5,0,1,1,1-9.95l.93.1a5,5,0,0,1-.51,10ZM303,431.8a5,5,0,0,1-.8-9.93l.91-.15a5,5,0,1,1,1.65,9.86l-.94.16A5.76,5.76,0,0,1,303,431.8ZM205.16,431a4.4,4.4,0,0,1-.8-.07l-1-.15a5,5,0,1,1,1.63-9.87l.92.15a5,5,0,0,1-.8,9.94Zm117.32-3.16a5,5,0,0,1-1.21-9.85l.9-.23a5,5,0,0,1,2.45,9.7l-.92.23A5.15,5.15,0,0,1,322.48,427.81Zm-136.81-.6a4.67,4.67,0,0,1-1.11-.13l-.93-.21a5,5,0,0,1,2.22-9.75l.92.21a5,5,0,0,1-1.1,9.88Z"/><path class="cls-1" d="M341.53,422.17a5,5,0,0,1-1.64-9.73l.47-.16a5,5,0,0,1,3.28,9.44l-.48.17A4.9,4.9,0,0,1,341.53,422.17Z"/><path class="cls-1" d="M198.49,359.2a4.43,4.43,0,0,1-.88-.08l-.52-.09a5,5,0,1,1,1.82-9.83l.45.08a5,5,0,0,1-.87,9.92Z"/><path class="cls-1" d="M264.73,363.79a5,5,0,0,1-.11-10l1.05,0a5,5,0,0,1,.27,10l-1.09,0Zm-21.44-.16h-.19l-1.08,0a5,5,0,1,1,.39-10l1.07,0a5,5,0,0,1-.19,10Zm43.91-1.2a5,5,0,0,1-.48-10l1-.11a5,5,0,0,1,1,9.95l-1.09.11Zm-66.38-.3a4,4,0,0,1-.49,0l-1.08-.11a5,5,0,0,1,1-9.95l1.06.11a5,5,0,0,1-.48,10Z"/><path class="cls-1" d="M309.5,359.21a5,5,0,0,1-.94-9.91l.49-.1A5,5,0,1,1,311,359l-.49.1A5.2,5.2,0,0,1,309.5,359.21Z"/></g></svg>