<?xml version="1.0" ?><svg viewBox="0 0 512 512" xmlns="http://www.w3.org/2000/svg"><defs><style>.cls-1{fill:#3f456b;}</style></defs><title/><g id="Lines"><path class="cls-1" d="M461,460H48.75A37.66,37.66,0,0,1,11,422.5V87a5,5,0,0,1,10,0V422.5A27.66,27.66,0,0,0,48.75,450H461a15,15,0,0,0,15-15V327a5,5,0,0,1,10,0V435A25,25,0,0,1,461,460Z"/><path class="cls-1" d="M481,251a5,5,0,0,1-5-5V139a15,15,0,0,0-15-15H48.75a37.5,37.5,0,0,1,0-75H441a25,25,0,0,1,25,25v40.5A25.05,25.05,0,0,1,486,139V246A5,5,0,0,1,481,251ZM48.75,59a27.5,27.5,0,0,0,0,55H456V74a15,15,0,0,0-15-15Z"/><path class="cls-1" d="M387.24,332.05c-5.62,0-21.09-1-32.5-11.66C346.29,312.51,342,301.28,342,287s4.29-25.51,12.74-33.39c13.3-12.38,32.12-11.74,34.41-11.61H477a25,25,0,0,1,25,25v40a25,25,0,0,1-25,25H389.15C388.83,332,388.17,332.05,387.24,332.05Zm.11-80.09c-4.09,0-17,.7-25.84,9-6.31,5.9-9.51,14.66-9.51,26s3.22,20.16,9.56,26.07c10.73,10,26.92,8.95,27.08,8.94H477a15,15,0,0,0,15-15V267a15,15,0,0,0-15-15H388.64S388.15,252,387.35,252Z"/><path class="cls-1" d="M415.33,311.75A24.75,24.75,0,1,1,440.08,287,24.78,24.78,0,0,1,415.33,311.75Zm0-39.5A14.75,14.75,0,1,0,430.08,287,14.77,14.77,0,0,0,415.33,272.25Z"/><path class="cls-1" d="M426,124a5,5,0,0,1-5-5V91H63v28a5,5,0,0,1-10,0V86a5,5,0,0,1,5-5H426a5,5,0,0,1,5,5v33A5,5,0,0,1,426,124Z"/></g><g id="Outline"><path class="cls-1" d="M431.69,422h-5a5,5,0,0,1,0-10h5a5,5,0,1,1,0,10Zm-25,0h-5a5,5,0,0,1,0-10h5a5,5,0,1,1,0,10Zm-25,0h-5a5,5,0,0,1,0-10h5a5,5,0,1,1,0,10Zm-25,0h-5a5,5,0,0,1,0-10h5a5,5,0,1,1,0,10Zm-25,0h-5a5,5,0,0,1,0-10h5a5,5,0,1,1,0,10Zm-25,0h-5a5,5,0,0,1,0-10h5a5,5,0,1,1,0,10Zm-25,0h-5a5,5,0,0,1,0-10h5a5,5,0,1,1,0,10Zm-25,0h-5a5,5,0,0,1,0-10h5a5,5,0,1,1,0,10Zm-25,0h-5a5,5,0,0,1,0-10h5a5,5,0,1,1,0,10Zm-25,0h-5a5,5,0,0,1,0-10h5a5,5,0,1,1,0,10Zm-25,0h-5a5,5,0,0,1,0-10h5a5,5,0,1,1,0,10Zm-25,0h-5a5,5,0,0,1,0-10h5a5,5,0,1,1,0,10Zm-25,0h-5a5,5,0,0,1,0-10h5a5,5,0,1,1,0,10Zm-25,0h-5a5,5,0,0,1,0-10h5a5,5,0,1,1,0,10Zm-25,0h-5a5,5,0,0,1,0-10h5a5,5,0,0,1,0,10ZM59,416.23a5,5,0,0,1-4.52-2.86A14.59,14.59,0,0,1,53,407v-.63a5,5,0,0,1,10,0V407a4.87,4.87,0,0,0,.47,2.09A5,5,0,0,1,59,416.23ZM446,412a5,5,0,0,1-5-5v-5a5,5,0,0,1,10,0v5A5,5,0,0,1,446,412ZM58,391.37a5,5,0,0,1-5-5v-5a5,5,0,0,1,10,0v5A5,5,0,0,1,58,391.37ZM446,387a5,5,0,0,1-5-5v-5a5,5,0,0,1,10,0v5A5,5,0,0,1,446,387ZM58,366.37a5,5,0,0,1-5-5v-5a5,5,0,0,1,10,0v5A5,5,0,0,1,58,366.37ZM446,362a5,5,0,0,1-5-5v-5a5,5,0,0,1,10,0v5A5,5,0,0,1,446,362ZM58,341.37a5,5,0,0,1-5-5v-5a5,5,0,0,1,10,0v5A5,5,0,0,1,58,341.37ZM446,337a5,5,0,0,1-5-5v-5a5,5,0,0,1,10,0v5A5,5,0,0,1,446,337ZM58,316.37a5,5,0,0,1-5-5v-5a5,5,0,0,1,10,0v5A5,5,0,0,1,58,316.37Zm0-25a5,5,0,0,1-5-5v-5a5,5,0,0,1,10,0v5A5,5,0,0,1,58,291.37Zm0-25a5,5,0,0,1-5-5v-5a5,5,0,0,1,10,0v5A5,5,0,0,1,58,266.37Zm0-25a5,5,0,0,1-5-5v-5a5,5,0,0,1,10,0v5A5,5,0,0,1,58,241.37Zm388-8.11a5,5,0,0,1-5-5v-5a5,5,0,0,1,10,0v5A5,5,0,0,1,446,233.26ZM58,216.37a5,5,0,0,1-5-5v-5a5,5,0,0,1,10,0v5A5,5,0,0,1,58,216.37Zm388-8.11a5,5,0,0,1-5-5v-5a5,5,0,0,1,10,0v5A5,5,0,0,1,446,208.26ZM58,191.37a5,5,0,0,1-5-5v-5a5,5,0,0,1,10,0v5A5,5,0,0,1,58,191.37Zm388-8.11a5,5,0,0,1-5-5v-5a5,5,0,0,1,10,0v5A5,5,0,0,1,446,183.26ZM59.56,166.67A5,5,0,0,1,55.35,159a15.14,15.14,0,0,1,5.37-5.06,5,5,0,1,1,4.88,8.73,5.11,5.11,0,0,0-1.83,1.72A5,5,0,0,1,59.56,166.67Zm378.37-4.47a4.92,4.92,0,0,1-1-.1,4.87,4.87,0,0,0-1-.1h-3a5,5,0,0,1,0-10h3a15.11,15.11,0,0,1,3,.3,5,5,0,0,1-1,9.9Zm-25-.2h-5a5,5,0,0,1,0-10h5a5,5,0,1,1,0,10Zm-25,0h-5a5,5,0,0,1,0-10h5a5,5,0,1,1,0,10Zm-25,0h-5a5,5,0,0,1,0-10h5a5,5,0,1,1,0,10Zm-25,0h-5a5,5,0,0,1,0-10h5a5,5,0,0,1,0,10Zm-25,0h-5a5,5,0,0,1,0-10h5a5,5,0,0,1,0,10Zm-25,0h-5a5,5,0,0,1,0-10h5a5,5,0,0,1,0,10Zm-25,0h-5a5,5,0,0,1,0-10h5a5,5,0,0,1,0,10Zm-25,0h-5a5,5,0,0,1,0-10h5a5,5,0,0,1,0,10Zm-25,0h-5a5,5,0,0,1,0-10h5a5,5,0,0,1,0,10Zm-25,0h-5a5,5,0,0,1,0-10h5a5,5,0,0,1,0,10Zm-25,0h-5a5,5,0,0,1,0-10h5a5,5,0,0,1,0,10Zm-25,0h-5a5,5,0,0,1,0-10h5a5,5,0,0,1,0,10Zm-25,0h-5a5,5,0,0,1,0-10h5a5,5,0,0,1,0,10Zm-25,0h-5a5,5,0,0,1,0-10h5a5,5,0,0,1,0,10Z"/></g></svg>