<?xml version="1.0" ?><svg enable-background="new 0 0 512 512" version="1.1" viewBox="0 0 512 512" xml:space="preserve" xmlns="http://www.w3.org/2000/svg" xmlns:xlink="http://www.w3.org/1999/xlink"><g id="Colors"><g><g><g><g><path d="M414.696,121.998c-1.163,0-2.331-0.403-3.278-1.226c-4.282-3.722-9.815-5.772-15.581-5.772       l-226.127-1.023c-2.762-0.013-4.99-2.261-4.978-5.022c0.013-2.754,2.249-4.978,5-4.978c0.007,0,0.015,0,0.022,0L395.859,105       c8.154,0,16.018,2.921,22.119,8.224c2.084,1.812,2.305,4.97,0.493,7.054C417.483,121.416,416.094,121.998,414.696,121.998z" fill="#384169"/></g></g><g><g><path d="M424.062,326.5c-0.001,0-0.003,0-0.004,0c-2.762-0.002-4.998-2.243-4.996-5.004l0.104-120.75       c0.002-2.76,2.24-4.996,5-4.996c0.001,0,0.003,0,0.004,0c2.762,0.002,4.998,2.243,4.996,5.004l-0.104,120.75       C429.061,324.264,426.822,326.5,424.062,326.5z" fill="#384169"/></g></g><g><g><path d="M423.934,474.345c-0.004,0-0.009,0-0.013,0l-151.184-0.393c-2.762-0.007-4.994-2.251-4.987-5.013       c0.007-2.757,2.244-4.987,5-4.987c0.004,0,0.009,0,0.013,0l146.175,0.38l0.065-74.503c0.002-2.76,2.24-4.996,5-4.996       c0.001,0,0.003,0,0.004,0c2.762,0.002,4.998,2.243,4.996,5.004l-0.069,79.512c-0.001,1.328-0.53,2.6-1.471,3.537       C426.525,473.82,425.257,474.345,423.934,474.345z" fill="#384169"/></g></g><g><g><path d="M237.047,473.859c-0.004,0-0.009,0-0.013,0l-38.82-0.101c-2.758-0.007-4.989-2.246-4.987-5.004       l0.238-288.412c0-66.365-17.241-66.365-23.732-66.365c-12.864,0-23.732,10.661-23.732,23.279v232.526       c0,18.627-14.354,33.219-32.677,33.219c-18.167,0-32.946-14.902-32.946-33.219L80.392,293H33c-2.762,0-5-2.239-5-5V81.719       C28,61.85,39.528,48.5,56.688,48.5c25.854,0,33.736,17.857,33.736,76.43l-0.047,244.854c0,12.802,10.294,23.218,22.946,23.218       c12.716,0,22.677-10.199,22.677-23.219V137.256c0-18.35,15.132-33.279,33.732-33.279c23.329,0,33.732,23.553,33.732,76.369       l-0.234,283.425l33.829,0.088c2.762,0.007,4.994,2.251,4.987,5.013C242.04,471.629,239.803,473.859,237.047,473.859z M38,283       h42.394l0.03-158.071c0-61.958-8.968-66.429-23.736-66.429C42.909,58.5,38,70.494,38,81.719V283z" fill="#384169"/></g></g><g><g><path d="M306.743,114c-0.021,0-0.044,0-0.066,0c-2.761-0.036-4.97-2.303-4.935-5.064l0.347-26.67       C302.089,69.902,290.599,59,277.5,59L57.487,58.426c-2.762-0.007-4.994-2.251-4.987-5.013c0.007-2.757,2.244-4.987,5-4.987       c0.004,0,0.009,0,0.013,0l220,0.574c18.736,0,34.576,15.263,34.576,33.33l-0.347,26.735       C311.706,111.804,309.475,114,306.743,114z" fill="#384169"/></g></g><g><g><path d="M198,403h-84c-2.762,0-5-2.239-5-5s2.238-5,5-5h84c2.762,0,5,2.239,5,5S200.762,403,198,403z" fill="#384169"/></g></g></g></g><g><g><path d="M329,404.5h-12.5c-2.762,0-5-2.239-5-5s2.238-5,5-5H329c2.762,0,5,2.239,5,5S331.762,404.5,329,404.5z" fill="#384169"/></g></g><g><g><path d="M260.875,404.5H244c-2.762,0-5-2.239-5-5s2.238-5,5-5h16.875c2.762,0,5,2.239,5,5     S263.637,404.5,260.875,404.5z" fill="#384169"/></g></g><g><g><path d="M382,434.5h-83c-2.762,0-5-2.239-5-5s2.238-5,5-5h83c2.762,0,5,2.239,5,5S384.762,434.5,382,434.5z" fill="#384169"/></g></g><g><g><path d="M382,374.5h-49.333c-2.762,0-5-2.239-5-5s2.238-5,5-5H382c2.762,0,5,2.239,5,5S384.762,374.5,382,374.5z" fill="#384169"/></g></g><g><g><path d="M277.167,374.5H244c-2.762,0-5-2.239-5-5s2.238-5,5-5h33.167c2.762,0,5,2.239,5,5     S279.929,374.5,277.167,374.5z" fill="#384169"/></g></g><g><g><path d="M382,344.5h-32.667c-2.762,0-5-2.239-5-5s2.238-5,5-5H382c2.762,0,5,2.239,5,5S384.762,344.5,382,344.5z" fill="#384169"/></g></g><g><g><path d="M293.5,344.5H244c-2.762,0-5-2.239-5-5s2.238-5,5-5h49.5c2.762,0,5,2.239,5,5S296.262,344.5,293.5,344.5z     " fill="#384169"/></g></g><g><g><path d="M311,314.5h-67c-2.762,0-5-2.239-5-5s2.238-5,5-5h67c2.762,0,5,2.239,5,5S313.762,314.5,311,314.5z" fill="#384169"/></g></g><g><g><path d="M297,284.5h-53c-2.762,0-5-2.239-5-5s2.238-5,5-5h53c2.762,0,5,2.239,5,5S299.762,284.5,297,284.5z" fill="#384169"/></g></g><g><g><path d="M344,254.5H244c-2.762,0-5-2.239-5-5s2.238-5,5-5h100c2.762,0,5,2.239,5,5S346.762,254.5,344,254.5z" fill="#384169"/></g></g><g><g><path d="M360,224.5H244c-2.762,0-5-2.239-5-5s2.238-5,5-5h116c2.762,0,5,2.239,5,5S362.762,224.5,360,224.5z" fill="#384169"/></g></g><g><g><path d="M377,194.5H244c-2.762,0-5-2.239-5-5s2.238-5,5-5h133c2.762,0,5,2.239,5,5S379.762,194.5,377,194.5z" fill="#384169"/></g></g><g><g><path d="M392,164.5H244c-2.762,0-5-2.239-5-5s2.238-5,5-5h148c2.762,0,5,2.239,5,5S394.762,164.5,392,164.5z" fill="#384169"/></g></g><g><g><g><path d="M356.586,403.039c-1.788,3.096-5.745,4.157-8.842,2.369c-3.095-1.787-4.156-5.745-2.369-8.842      c1.787-3.095,5.746-4.156,8.841-2.369C357.313,395.985,358.373,399.943,356.586,403.039z" fill="#384169"/></g></g></g><g><g><g><path d="M103.006,423.001c-0.166,0-0.334-0.008-0.503-0.025c-15.189-1.519-27.763-9.298-36.359-22.497      c-6.365-9.773-8.299-19.098-8.378-19.49c-0.546-2.707,1.205-5.344,3.912-5.89c2.712-0.551,5.337,1.201,5.889,3.902      c0.271,1.306,6.791,31.111,35.931,34.025c2.748,0.274,4.753,2.725,4.479,5.473C107.718,421.077,105.543,423.001,103.006,423.001      z" fill="#384169"/></g></g><g><g><path d="M64.345,364.448c-3.196,1.901-7.328,0.854-9.23-2.345c-1.901-3.195-0.852-7.33,2.345-9.23      c3.195-1.902,7.331-0.852,9.232,2.344C68.594,358.415,67.542,362.547,64.345,364.448z" fill="#384169"/></g></g></g><g><g><path d="M329,78c-2.762,0-5-2.239-5-5c0-11.784-5.056-20.72-15.027-26.561c-7.749-4.539-15.463-5.463-15.54-5.472     c-2.744-0.313-4.714-2.792-4.4-5.536c0.313-2.743,2.794-4.714,5.535-4.4C308.206,32.591,334,43.368,334,73     C334,75.761,331.762,78,329,78z" fill="#384169"/></g></g><g><g><path d="M332.345,97.448c-3.196,1.901-7.328,0.854-9.23-2.345c-1.901-3.195-0.852-7.33,2.345-9.23     c3.195-1.902,7.331-0.853,9.232,2.344C336.594,91.415,335.542,95.547,332.345,97.448z" fill="#384169"/></g></g></g><g id="Lines"><g><g><g><path d="M402.274,99.096c-0.623,0-1.264-0.072-1.917-0.22c-1.913-0.435-3.348-1.384-4.543-2.24      c-3.811-2.726-7.301-5.704-10.678-8.584l-1.888-1.608c-0.468-0.397-0.955-0.839-1.441-1.283      c-0.394-0.359-0.786-0.719-1.165-1.041c-0.108-0.092-0.23-0.203-0.363-0.33c-1.215,0.355-2.433,0.738-3.692,1.133      c-2.376,0.746-4.833,1.518-7.424,2.142c-0.352,0.084-0.819,0.221-1.369,0.379c-4.902,1.406-14.025,4.023-17.616-2.372      c-1.291-2.296-0.856-4.599-0.671-5.582c0.973-5.174,2.814-9.937,4.596-14.542l0.669-1.733c0.85-2.22,1.536-3.959,2.082-5.31      c-4.78-5.59-11.569-14.705-12.679-20.625c-0.735-3.924,0.606-6.384,1.86-7.757c2.218-2.427,5.222-2.707,6.623-2.67      c5.36-0.428,17.08,1.291,23.034,2.253c4.751-7.779,10.399-14.611,12.203-16.597c1.548-1.704,3.273-2.795,5.13-3.248      c2.225-0.544,4.786-0.167,6.849,1.005c0.657,0.375,1.268,0.844,1.817,1.398c1.177,1.184,2.055,2.731,2.606,4.597      c0.761,2.572,2.876,11.179,3.772,20.253c5.78,1.723,17.078,5.271,21.722,7.987c1.248,0.579,3.86,2.132,4.803,5.284      c0.533,1.782,0.671,4.58-1.697,7.794c-3.534,4.796-13.429,9.988-20.161,12.96c-0.031,7.469-0.947,14.721-2.78,22.066      C408.951,96.629,405.925,99.096,402.274,99.096z M381.426,73.291c0.375,0,0.749,0.042,1.117,0.126l0.094,0.021      c1.93,0.441,3.247,1.793,4.209,2.78c0.119,0.122,0.228,0.237,0.321,0.325c0.411,0.348,0.896,0.788,1.38,1.229      c0.396,0.36,0.79,0.722,1.17,1.044l1.911,1.627c3.09,2.636,6.021,5.138,9.163,7.449c1.504-6.804,2.124-13.522,1.902-20.494      c-0.067-2.107,1.194-4.03,3.154-4.807c7.114-2.82,14.98-7.197,18.033-9.926c-4.343-2.176-15.394-5.666-21.883-7.504      c-2.048-0.58-3.504-2.393-3.629-4.517c-0.519-8.793-2.671-17.93-3.489-20.939c-2.044,2.352-7.958,9.647-12.247,17.338      c-1.037,1.858-3.134,2.861-5.232,2.489c-6.644-1.167-18.162-2.815-22.968-2.758c1.562,3.785,6.741,11.146,11.922,16.78      c1.339,1.456,1.693,3.564,0.904,5.378c-0.538,1.238-1.522,3.607-3.148,7.856l-0.681,1.766      c-1.394,3.603-2.724,7.041-3.599,10.529c1.851-0.29,4.216-0.968,5.205-1.252c0.718-0.206,1.329-0.379,1.786-0.489      c2.26-0.544,4.449-1.232,6.768-1.96c2.118-0.665,4.308-1.353,6.599-1.938C380.595,73.342,381.01,73.291,381.426,73.291z       M425.759,53.646L425.759,53.646L425.759,53.646z M425.759,53.646L425.759,53.646L425.759,53.646z" fill="#384169"/></g></g></g><g><g><g><path d="M446.763,400c-0.288,0-0.577-0.003-0.866-0.008c-24.67-0.47-44.358-20.924-43.889-45.595l0,0      c0.471-24.671,20.959-44.335,45.596-43.889c24.67,0.47,44.358,20.924,43.889,45.595C491.027,380.485,471.044,400,446.763,400z       M412.006,354.587c-0.364,19.158,14.924,35.041,34.082,35.406c0.223,0.004,0.449,0.006,0.672,0.006      c18.857,0.002,34.373-15.153,34.734-34.087c0.364-19.158-14.924-35.041-34.082-35.406c-0.223-0.004-0.449-0.006-0.672-0.006      C427.883,320.5,412.367,335.653,412.006,354.587L412.006,354.587z" fill="#384169"/></g></g><g><g><path d="M446.863,354.362c-0.014,0-0.027,0-0.041,0c-2.761-0.022-4.981-2.278-4.96-5.04l0.264-33.302      c0.021-2.748,2.257-4.96,4.999-4.96c0.014,0,0.027,0,0.041,0c2.761,0.022,4.981,2.278,4.96,5.04l-0.264,33.302      C451.841,352.15,449.606,354.362,446.863,354.362z" fill="#384169"/></g></g><g><g><path d="M447.126,321.06c-0.004,0-0.008,0-0.012,0c-2.762-0.007-4.995-2.25-4.988-5.012l0.382-158.06      c0.007-2.757,2.244-4.988,5-4.988c0.004,0,0.008,0,0.012,0c2.762,0.007,4.995,2.25,4.988,5.012l-0.382,158.06      C452.119,318.829,449.882,321.06,447.126,321.06z" fill="#384169"/></g></g><g><g><path d="M436.386,351.555c0.109-5.722,4.908-10.272,10.722-10.162c5.811,0.111,10.435,4.84,10.326,10.563      c-0.109,5.722-4.91,10.271-10.721,10.16C440.899,362.005,436.277,357.276,436.386,351.555z" fill="#384169"/></g></g></g><g><g><g><path d="M237.046,500.126c-0.818,0-1.641-0.201-2.39-0.609c-1.723-0.938-2.738-2.796-2.597-4.752l4.018-55.479      c0.052-0.711,0.255-1.403,0.596-2.03L428.481,84.986c1.32-2.424,4.359-3.32,6.782-2l40.399,21.997      c2.426,1.32,3.321,4.357,2.001,6.782L285.856,464.036c-0.342,0.626-0.812,1.172-1.382,1.602l-44.418,33.481      C239.171,499.786,238.111,500.126,237.046,500.126z M245.974,441.088l-3.145,43.418l34.762-26.203L466.49,111.375      l-31.617-17.215L245.974,441.088z M281.465,461.645h0.01H281.465z" fill="#384169"/></g></g><g><g><path d="M280.23,464.719c-0.808,0-1.627-0.196-2.386-0.61l-37.764-20.562c-2.426-1.32-3.321-4.357-2.001-6.782      c1.32-2.424,4.359-3.321,6.782-2l37.764,20.562c2.426,1.32,3.321,4.357,2.001,6.782      C283.72,463.774,282.003,464.719,280.23,464.719z" fill="#384169"/></g></g><g><g><path d="M340.006,354.938c-0.808,0-1.627-0.196-2.386-0.61l-37.765-20.562c-2.426-1.32-3.321-4.357-2.001-6.782      c1.321-2.424,4.358-3.32,6.782-2l37.765,20.562c2.426,1.32,3.321,4.357,2.001,6.782      C343.495,353.993,341.778,354.938,340.006,354.938z" fill="#384169"/></g></g><g><g><path d="M444.731,162.601c-0.808,0-1.627-0.196-2.386-0.61l-37.765-20.562c-2.426-1.32-3.321-4.357-2.001-6.782      c1.321-2.424,4.358-3.32,6.782-2l37.765,20.562c2.426,1.32,3.321,4.357,2.001,6.782      C448.221,161.656,446.504,162.601,444.731,162.601z" fill="#384169"/></g></g><g><g><path d="M467.598,110.149c-0.808,0-1.627-0.196-2.386-0.61c-2.426-1.32-3.321-4.357-2.001-6.782l10.999-20.199      l-19.321-10.52L443.89,92.237c-1.32,2.425-4.355,3.322-6.783,2c-2.425-1.321-3.32-4.357-2-6.782l13.391-24.59      c1.321-2.424,4.358-3.321,6.782-2l28.104,15.302c1.165,0.634,2.03,1.705,2.405,2.977s0.229,2.641-0.404,3.806l-13.39,24.591      C471.087,109.205,469.37,110.149,467.598,110.149z" fill="#384169"/></g></g></g></g></svg>