<?xml version="1.0" ?><svg viewBox="0 0 512 512" xmlns="http://www.w3.org/2000/svg"><defs><style>.cls-1{fill:#3f456b;}</style></defs><title/><g id="Lines"><path class="cls-1" d="M439.8,140.07a5,5,0,0,1-3.53-1.46l-2.17-2.18a5,5,0,1,1,7.07-7.07l2.17,2.18a5,5,0,0,1-3.54,8.53Z"/><path class="cls-1" d="M299.82,100H70a5,5,0,0,1-4.73-3.38c-.39-1.14-3.64-11.35,2.33-19,3.58-4.58,9.41-6.91,17.38-7C88.23,60.22,97.87,46,118.28,44.92c2.88-12.67,13.24-31.56,37.82-34.07C180.46,8.37,194.47,23.77,200,35c9.17-1.85,30.93-4.71,48.18,5.21,9.36,5.38,16,13.65,19.62,24.62,7.14-.36,21.32.15,30,8.5,5.6,5.38,8,12.83,7,22.15A5,5,0,0,1,299.82,100ZM74.15,90H295a13.78,13.78,0,0,0-4.06-9.41c-6.8-6.54-21.1-6.15-26-5.45a5,5,0,0,1-5.56-3.71c-2.63-10.31-8.06-17.88-16.13-22.52-18.37-10.56-44.55-3.31-44.81-3.23a5,5,0,0,1-6.1-3.23c-.34-1-8.68-24.34-35.15-21.65s-29.52,28.5-29.63,29.59a5,5,0,0,1-5.17,4.49c-10.26-.38-18.1,3-23.33,10.17a30.35,30.35,0,0,0-5.11,11.57,5,5,0,0,1-5.37,4.19c-4.56-.39-10.51-.2-13,3C74.14,85.54,74,88,74.15,90Z"/><path class="cls-1" d="M130.67,164H15a5,5,0,0,1-5-5.16c0-.64.63-15.74,11.61-24.83,5.89-4.88,13.45-7,22.52-6.47,2.86-8.62,11.42-20,30.47-21.52,14.15-1.14,26.16,2.69,33.83,10.78a27.94,27.94,0,0,1,7.72,17.66c4.77.77,11.69,2.83,16.1,8.29,2.54,3.15,5.17,8.7,3.3,17.31A5,5,0,0,1,130.67,164ZM20.85,154H126.19a8.1,8.1,0,0,0-1.71-4.95C121.2,145,113.63,144,111,144a5,5,0,0,1-4.94-5.66,17.62,17.62,0,0,0-4.86-14.66c-5.55-5.85-14.7-8.58-25.78-7.7-8.8.71-15.24,3.94-19.16,9.61A19.56,19.56,0,0,0,53,133.5a5,5,0,0,1-5.75,4.44c-8.2-1.28-14.67,0-19.24,3.77C23.81,145.17,21.81,150.22,20.85,154Z"/><path class="cls-1" d="M174,187a5,5,0,0,1-5-4.38c-5.94-47.25,2.71-86.57,3.08-88.22a5,5,0,1,1,9.76,2.2A277.32,277.32,0,0,0,179,181.38a5,5,0,0,1-4.34,5.58A4.44,4.44,0,0,1,174,187Z"/><path class="cls-1" d="M171.22,141.28h-.09c-14.42-.24-25.25-4.72-32.21-13.3-11.24-13.87-7.65-33.12-7.5-33.94A5,5,0,0,1,141.24,96c-.05.29-2.79,15.63,5.49,25.78,5,6.15,13.27,9.36,24.57,9.55a5,5,0,0,1-.08,10Z"/><path class="cls-1" d="M184.57,164.92q-5.73,0-11.82-.43a5,5,0,0,1,.71-10C202.77,156.6,224.8,150.69,239,137c17.8-17.26,17-41.49,17-41.74a5,5,0,0,1,10-.44c.05,1.17,1,28.8-19.95,49.25C231.79,157.91,211.15,164.92,184.57,164.92Z"/><path class="cls-1" d="M246.42,141.28a4.26,4.26,0,0,1-.5,0c-12.45-1.23-21.9-6-28.07-14.19-10.43-13.83-7.24-32.19-7.1-33a5,5,0,0,1,9.84,1.77c0,.24-2.5,15,5.28,25.22,4.42,5.83,11.5,9.26,21,10.21a5,5,0,0,1-.49,10Z"/><path class="cls-1" d="M109,237a5,5,0,0,1-2.88-.91c-46-32.43-39.68-75.72-39.39-77.55a5,5,0,0,1,9.88,1.57c-.26,1.67-5.43,39.13,35.27,67.8A5,5,0,0,1,109,237Z"/><path class="cls-1" d="M68.58,201.49c-11.49,0-20.57-3.27-27.07-9.78-12.53-12.54-10.16-32.19-10-33A5,5,0,0,1,41.38,160c0,.3-1.78,15.74,7.25,24.72,5.81,5.79,15.12,7.9,27.69,6.28a5,5,0,0,1,1.28,9.92A70,70,0,0,1,68.58,201.49Z"/><path class="cls-1" d="M182.1,494.35c-8.94,0-15.88-7.07-18.75-11.77l-.09-.17c-1.32-2.35-32.28-57.78-36-65.69-4.09-8.65,1.19-17.36,5-21.23,8.39-9.29,10.24-16.84,6.42-26a5,5,0,1,1,9.23-3.85c5.35,12.85,2.71,24.5-8.32,36.67l-.19.19s-5.28,5.44-3.14,10c3.53,7.44,34,62.08,35.65,65a20.2,20.2,0,0,0,4.5,4.78c4.1,3,7.17,2.23,9.12,1.35,3.48-1.57,5.55-3.46,6.15-5.61.84-3-1.24-6.3-1.26-6.33a2.2,2.2,0,0,1-.18-.28L157.34,416a5,5,0,0,1,1.74-6.85c.25-.16,26.4-16.24,25.27-45A28.09,28.09,0,0,0,182.58,354a5,5,0,0,1,9.38-3.48,38,38,0,0,1,2.38,13.3c1.08,27.43-17.49,44.68-26,51.13l30.45,51.16c.83,1.27,4.53,7.43,2.55,14.52-1.43,5.15-5.36,9.2-11.68,12.05A18.26,18.26,0,0,1,182.1,494.35Zm-46.21-95.42h0Z"/><path class="cls-1" d="M234.5,361.57a231,231,0,0,1-32.89-2.34c-29.32-4.24-47.27-12.62-48-13a5,5,0,0,1,4.27-9c.23.11,17.68,8.2,45.58,12.18a227.22,227.22,0,0,0,111.13-12.34,5,5,0,0,1,3.49,9.37A239.07,239.07,0,0,1,234.5,361.57Z"/><path class="cls-1" d="M478.59,199c-6.14,0-13.57-2.25-21.85-8.71l-14.21-10.47c-5.08,1.78-16,4.16-30.46-.93-23.79-8.39-24.36-30-24.38-30.94a5,5,0,0,1,4.93-5.07h.07a5,5,0,0,1,5,4.93c0,.6.64,15.63,17.7,21.65,15.33,5.41,25.07.47,25.47.26a5.06,5.06,0,0,1,5.33.38l16.53,12.18.12.09c15.52,12.14,23.63,4.17,24.51,3.22a2.5,2.5,0,0,1,.32-.33c2.4-2.24,5.19-6.13,1.79-14.08a36.56,36.56,0,0,0-5.88-9.12l-.09-.11-49.24-55.87a5,5,0,0,1,7.51-6.61L491,155.31a46.21,46.21,0,0,1,7.7,11.94c4.2,9.79,2.78,18.72-4,25.16A21.8,21.8,0,0,1,478.59,199Z"/><path class="cls-1" d="M313.69,498.7h-.05c-7.45-.07-11.86-3.19-14.25-5.78-5.55-6-5.37-14.4-5.27-16,0-4.22,1.17-103.06,1.18-129.69a5,5,0,0,1,5-5h0a5,5,0,0,1,5,5c0,27.13-1.18,128.91-1.19,129.93,0,.11,0,.21,0,.32-.09,1.5.2,6,2.68,8.71,1.51,1.63,3.72,2.45,6.73,2.51,1.67-.16,8.23-1.27,8.3-8.24.11-12.2.6-77,.6-77.68a5,5,0,0,1,4.16-4.9c.38-.07,10.5-2.15,18.56-15.31a5,5,0,0,1,8.53,5.23c-7.21,11.77-16.15,16.71-21.28,18.7-.1,13.95-.47,63.54-.57,74.06a17.15,17.15,0,0,1-9.24,15.58,22.71,22.71,0,0,1-8.56,2.56Z"/><path class="cls-1" d="M394.7,498.38A17.66,17.66,0,0,1,381.55,493c-6.38-6.71-6.26-17.14-6.19-18.89V401.23C340,393,322.87,369.65,314.73,351.15a109.3,109.3,0,0,1-9.15-40,5,5,0,0,1,10,0h0a101.07,101.07,0,0,0,8.44,36.3c10.91,24.55,30.18,39.63,57.29,44.83a5,5,0,0,1,4.05,4.91v77.33c-.09,2.13.35,8.41,3.46,11.66a7.61,7.61,0,0,0,5.88,2.21c9.24,0,9.34-12.63,9.34-13.17v-78a4.36,4.36,0,0,1,0-.51c0-.52,1.08-13.62-10.76-19.94-12.95-6.9-22.64-20.51-28-39.36A113.74,113.74,0,0,1,361,311.25a5,5,0,0,1,4.89-5.1H366a5,5,0,0,1,5,4.9c0,.43,1.26,43.15,27,56.87,16.86,9,16.22,26.83,16,29.47v77.83a32.42,32.42,0,0,1-2.14,10.92C408.78,494,402.68,498.38,394.7,498.38ZM315.58,311.14h0Z"/><path class="cls-1" d="M88.25,500c-7.53,0-12-3.08-14.41-5.66-5.49-5.86-5.4-13.94-5.32-15.55V401c0-14,6.69-19.92,9-21.57,5.77-5.89,12.21-15.45,11-28-.62-6.39-3.92-12.31-7.43-18.58-2.89-5.19-5.89-10.55-7.59-16.59C66.81,292.39,70.89,268.53,85,249c15.29-21.12,40.64-34.42,67.82-35.57h70.57c19,0,38.65,0,55.39-7.9,9.45-4.48,16-11.6,21.75-18.62,10.34-12.72,18-22.67,24.82-32.26,5.29-7.44,10.31-14.93,14.91-22.26,2.32-3.69,4.49-7.67,6.79-11.87,8.82-16.13,18.82-34.41,39.8-38.92a40.88,40.88,0,0,1,22.8,1.84,5,5,0,0,1-3.47,9.38A31,31,0,0,0,389,91.36c-16.51,3.55-24.59,18.32-33.14,34-2.27,4.15-4.61,8.44-7.09,12.39-4.7,7.49-9.83,15.14-15.23,22.73-6.95,9.78-14.73,19.89-25.21,32.78-6.45,7.93-14,16-25.22,21.34-18.78,8.91-40.49,8.89-59.69,8.87H153.17c-24.11,1.06-46.55,12.8-60,31.44-12.3,17-15.85,37.81-10,58.59,1.39,4.91,4,9.54,6.71,14.44,3.85,6.89,7.82,14,8.64,22.48,1.27,13.05-3.78,26-14.21,36.43a5.14,5.14,0,0,1-1.06.81c-.12.08-4.71,3.15-4.71,13.34v78c0,.11,0,.22,0,.33-.08,1.42.25,5.74,2.66,8.28C82.71,489.16,85,490,88,490c1.66-.18,8.21-1.31,8.21-8V405.78a5,5,0,0,1,2.68-4.43c.55-.29,55.52-29.88,54.77-83.9a5,5,0,0,1,4.93-5.07h.07a5,5,0,0,1,5,4.93c.35,25-10,49-29.84,69.45a138.56,138.56,0,0,1-27.61,21.93V482a16.79,16.79,0,0,1-9.13,15.43A23.18,23.18,0,0,1,88.62,500Z"/><path class="cls-1" d="M431,114.75a5,5,0,0,1-3.81-8.24l20-23.58c-8.44-2.84-24.65-5.29-37.52,10.8a5,5,0,0,1-7.81-6.25c18.63-23.3,44.77-17.24,56-10.78a5,5,0,0,1,1.32,7.57L434.86,113A5,5,0,0,1,431,114.75Z"/><path class="cls-1" d="M266.48,220.21a4.88,4.88,0,0,1-.93-.09,5,5,0,0,1-4-5.83c5.65-30.18,26.55-73,43.57-100.06,13.41-21.31,28.17-35,46.46-43,41.46-18.2,69.61,3.35,70.78,4.28a5,5,0,0,1-6.17,7.87c-1.07-.82-24.87-18.67-60.59-3-16.37,7.18-29.72,19.63-42,39.17C290,157,275.18,195.87,271.38,216.13A5,5,0,0,1,266.48,220.21Z"/><path class="cls-1" d="M367.94,332.4a5,5,0,0,1-2-9.57c22.9-10.18,28.56-53,28.61-53.41,0,0,0-.08,0-.11l14.24-95.86a5,5,0,1,1,9.89,1.47l-14.23,95.8c-.35,2.73-6.65,48.88-34.47,61.24A4.89,4.89,0,0,1,367.94,332.4Z"/><path class="cls-1" d="M55.61,388.92H17.83a5,5,0,0,1-5-5v-.7c.18-20,2.93-39.83,5.58-59l.23-1.64c2.27-16.4,6.07-35.12,17-49.58,12-15.84,31.14-23.33,49-19.29a5.06,5.06,0,1,1-1.13,10c-11.34.51-20.39,11.35-24.4,22.09-6,16.12-5.19,35.31-4.46,52.24.16,3.74,3.83,33.22,5.81,45.09a5,5,0,0,1-4.93,5.83Zm-32.7-10H49.77c-2-13.79-4.86-36.52-5-40.48-.78-17.89-1.66-38.15,5.08-56.18a51.21,51.21,0,0,1,9.33-16A42.43,42.43,0,0,0,43.64,279c-9.57,12.63-13,29.79-15.09,44.91l-.23,1.64C25.9,343,23.41,361,22.91,378.92Z"/><path class="cls-1" d="M101.33,476.86H74a5,5,0,0,1,0-10h27.35a5,5,0,1,1,0,10Z"/><path class="cls-1" d="M165.23,479.49a5,5,0,0,1-2.51-9.33l23.69-13.68a5,5,0,0,1,5,8.67l-23.69,13.67A5,5,0,0,1,165.23,479.49Z"/><path class="cls-1" d="M326.43,476.86H299.08a5,5,0,0,1,0-10h27.35a5,5,0,0,1,0,10Z"/><path class="cls-1" d="M408.47,476.86H381.12a5,5,0,0,1,0-10h27.35a5,5,0,0,1,0,10Z"/><path class="cls-1" d="M135.74,225.91a5,5,0,0,1-4.88-4c-.1-.48-2.34-11.78,4.42-20.77,4.12-5.48,10.47-8.8,18.89-9.9,4.18-5.58,17.21-19.12,44.17-17.26,14.78,1,27.31,7.45,35.3,18.12,6.31,8.43,9.09,18.89,7.24,27.29a5,5,0,1,1-9.76-2.15c1.22-5.55-.94-13.07-5.49-19.15-6.21-8.3-16.15-13.32-28-14.13-26.87-1.86-36.2,14.28-36.29,14.45a5,5,0,0,1-4,2.55c-6.62.5-11.35,2.57-14.06,6.13-4.06,5.33-2.67,12.74-2.66,12.81a5,5,0,0,1-3.92,5.88A5.65,5.65,0,0,1,135.74,225.91Z"/></g><g id="Outline"><path class="cls-1" d="M171,61a5,5,0,0,1-3.38-1.31c-8.4-7.7-17.41-.68-18.41.15a5,5,0,0,1-6.44-7.66c5.66-4.79,19.55-10.92,31.61.13A5,5,0,0,1,171,61Z"/><path class="cls-1" d="M231,78a5,5,0,0,1-2.65-.76c-12.57-7.86-21.8-.68-22.19-.37a5,5,0,0,1-6.36-7.71c.6-.5,15-12.18,33.85-.4A5,5,0,0,1,231,78Z"/><path class="cls-1" d="M338,149a5,5,0,0,1-3.2-1.16c-11.59-9.66-30.91-21.67-31.1-21.79a5,5,0,0,1,5.27-8.5c.82.51,20.1,12.5,32.23,22.61A5,5,0,0,1,338,149Z"/><path class="cls-1" d="M375,156a5,5,0,0,1-3.41-1.34c-14.36-13.41-21.28-30.18-22.58-33.56-8.06-12.25-22.66-24.89-22.81-25a5,5,0,0,1,6.53-7.58c.66.57,16.18,14,25,27.62a4.94,4.94,0,0,1,.51,1c.06.16,6.33,17.24,20.2,30.19A5,5,0,0,1,375,156Z"/><path class="cls-1" d="M388,131a5,5,0,0,1-3.75-1.69c-15.43-17.49-17.1-35.06-17.23-36.89-.89-8.56-6.94-17.71-7-17.8A5,5,0,0,1,368.32,69c.3.46,7.54,11.34,8.66,22.46,0,.07,0,.14,0,.21s1.2,15.61,14.76,31A5,5,0,0,1,388,131Z"/><path class="cls-1" d="M390,234a4.82,4.82,0,0,1-1.39-.2c-49-14.13-68.1-54-71.68-62.52-9.92-6.51-28.71-14.6-28.9-14.69a5,5,0,1,1,3.94-9.18c.88.37,21.55,9.28,31.89,16.49a4.94,4.94,0,0,1,1.83,2.37c.16.43,16.88,43.84,65.7,57.93A5,5,0,0,1,390,234Z"/><path class="cls-1" d="M388,271a4.91,4.91,0,0,1-1.68-.29c-64.12-22.9-85-63.53-89.14-73-8.15-3.86-22.87-9.51-23-9.57a5,5,0,1,1,3.58-9.34c.71.27,17.57,6.74,25.61,10.79a5,5,0,0,1,2.46,2.77c.16.44,17.2,45.15,83.88,69A5,5,0,0,1,388,271Z"/><path class="cls-1" d="M236,338a5,5,0,0,1-4.82-3.67c-16.09-58.33-8.46-113.71-8.13-116a5,5,0,0,1,9.9,1.42c-.08.55-7.65,55.71,7.87,112a5,5,0,0,1-3.49,6.15A5.13,5.13,0,0,1,236,338Z"/><path class="cls-1" d="M259,316a5,5,0,0,1-4.93-4.25c-8-53.25-.3-94,0-95.71a5,5,0,0,1,9.82,1.92h0c-.08.4-7.73,40.86,0,92.29A5,5,0,0,1,259,316Z"/><path class="cls-1" d="M263,343a5,5,0,0,1-4.64-3.14A38.64,38.64,0,0,1,256,327a5,5,0,0,1,10,0,29.38,29.38,0,0,0,1.64,9.15,5,5,0,0,1-2.78,6.5A4.88,4.88,0,0,1,263,343Zm3-16h0Z"/><path class="cls-1" d="M290,329a5,5,0,0,1-4.81-3.63c-14.12-49.43-5.52-115.26-5.15-118a5,5,0,0,1,9.92,1.34c-.09.66-8.7,66.55,4.85,114A5,5,0,0,1,290,329Z"/><path class="cls-1" d="M391,200a5,5,0,0,1-1.65-.28c-41.89-14.66-53.64-50.69-54.12-52.22a5,5,0,0,1,9.54-3h0c.1.33,10.88,32.84,47.88,45.79A5,5,0,0,1,391,200Z"/><path class="cls-1" d="M311,323a5,5,0,0,1-1.9-9.62c.75-.31,18.61-7.5,42.76-3.31a5,5,0,0,1-1.72,9.86c-21.32-3.71-37.08,2.63-37.24,2.69A4.88,4.88,0,0,1,311,323Z"/><path class="cls-1" d="M319,352a5,5,0,0,1-2.08-9.55c.48-.22,12-5.36,31.55-7.42a5,5,0,1,1,1,9.94c-17.83,1.88-28.36,6.54-28.46,6.59A5,5,0,0,1,319,352Z"/><path class="cls-1" d="M332,375a5,5,0,0,1-2.95-9,67.28,67.28,0,0,1,27.23-10.91,5,5,0,1,1,1.42,9.9c-12.53,1.79-22.68,9-22.78,9.1A5,5,0,0,1,332,375Z"/><path class="cls-1" d="M357,395a5,5,0,0,1-3.9-8.12c.35-.45,8.87-11,18.87-15.45a5,5,0,1,1,4.06,9.14c-6.47,2.87-13.11,10-15.13,12.55A5,5,0,0,1,357,395Z"/><path class="cls-1" d="M381,402a5,5,0,0,1-1.37-9.81l14-4a5,5,0,1,1,2.74,9.62l-14,4A5,5,0,0,1,381,402Z"/><path class="cls-1" d="M409,425H395a5,5,0,0,1,0-10h14a5,5,0,0,1,0,10Z"/><path class="cls-1" d="M409,447H395a5,5,0,0,1,0-10h14a5,5,0,0,1,0,10Z"/><path class="cls-1" d="M408,119a5,5,0,0,1-3.25-1.2c-5.3-4.55-8.16-9.8-8.5-15.63-.54-9.12,5.4-15.83,6.08-16.56a5,5,0,0,1,7.36,6.76c-.11.13-3.78,4.34-3.46,9.28.2,3,1.89,5.87,5,8.55A5,5,0,0,1,408,119Z"/><path class="cls-1" d="M452,155a5,5,0,0,1-2.77-9.16,76.58,76.58,0,0,0,14-12.1,5,5,0,0,1,7.59,6.51,85.8,85.8,0,0,1-16,13.91A4.94,4.94,0,0,1,452,155Z"/><path class="cls-1" d="M464,170a5,5,0,0,1-2.39-9.39,41.36,41.36,0,0,0,14.16-12.28,5,5,0,0,1,8.47,5.32c-.23.37-5.83,9.19-17.85,15.74A5,5,0,0,1,464,170Z"/><path class="cls-1" d="M202,329a2.82,2.82,0,0,1-.41,0A5,5,0,0,1,197,323.6c3-37.37-3.33-62.89-9.15-77.71-6.28-16-13.35-23.3-13.42-23.37a5,5,0,0,1,7.09-7.06C182.83,216.76,213.1,248,207,324.4A5,5,0,0,1,202,329Z"/><path class="cls-1" d="M164,265a5,5,0,0,1-4.79-3.56c-10.54-35.12-39.85-28.85-41.1-28.57a5,5,0,1,1-2.22-9.74c.39-.09,39.71-8.54,52.9,35.43a5,5,0,0,1-3.35,6.23A5.17,5.17,0,0,1,164,265Z"/><path class="cls-1" d="M178,319a5,5,0,0,1-5-4.75c-.95-18.85-5.63-31.34-5.68-31.46a5,5,0,1,1,9.34-3.58c.21.56,5.3,14,6.32,34.54a5,5,0,0,1-4.74,5.24Z"/><path class="cls-1" d="M148,298a5,5,0,0,1-4.84-3.76c-4.07-15.88-14.44-26.3-30.85-31A71,71,0,0,0,87.59,261,5,5,0,0,1,86.4,251a80.38,80.38,0,0,1,28.32,2.52c20,5.58,33.16,18.79,38.12,38.2a5,5,0,0,1-3.6,6.08A4.85,4.85,0,0,1,148,298Z"/><path class="cls-1" d="M127,310a5,5,0,0,1-3.29-1.24,47.83,47.83,0,0,0-46-10.07,5,5,0,0,1-3.46-9.38,57.83,57.83,0,0,1,56,11.93A5,5,0,0,1,127,310Z"/><path class="cls-1" d="M154,351a5,5,0,0,1-4.27-2.39c-7.76-12.7-33.38-14.86-42.6-14.61H107a5,5,0,0,1-.14-10c1.59,0,39-.85,51.41,19.39a5,5,0,0,1-1.66,6.88A5.08,5.08,0,0,1,154,351Z"/><path class="cls-1" d="M143,372a5,5,0,0,1-3.36-1.3c-9.59-8.71-24.78-9.7-24.93-9.71a5,5,0,0,1,.58-10c.77,0,18.91,1.23,31.07,12.29A5,5,0,0,1,143,372Z"/><path class="cls-1" d="M122,396a5,5,0,0,1-4.34-2.52c-2.52-4.41-10-7.91-12.37-8.78a5,5,0,0,1,3.42-9.4c1.3.47,12.86,4.87,17.63,13.22a5,5,0,0,1-1.86,6.82A4.93,4.93,0,0,1,122,396Z"/><path class="cls-1" d="M101,411a5.05,5.05,0,0,1-1.32-.18l-11-3a5,5,0,0,1,2.64-9.64l11,3A5,5,0,0,1,101,411Z"/><path class="cls-1" d="M100,432H89a5,5,0,0,1,0-10h11a5,5,0,0,1,0,10Z"/><path class="cls-1" d="M100,453H90a5,5,0,0,1,0-10h10a5,5,0,0,1,0,10Z"/><path class="cls-1" d="M373,295a4.74,4.74,0,0,1-.75-.06c-1.73-.25-42.54-6.72-62.52-39.33a5,5,0,1,1,8.52-5.22c17.58,28.68,55.1,34.61,55.48,34.67A5,5,0,0,1,373,295Z"/><path class="cls-1" d="M311,293a5,5,0,0,1-1.05-9.89c11.2-2.4,16.19-13.49,16.24-13.6a5,5,0,0,1,9.18,4c-.28.64-7,15.92-23.32,19.42A5.51,5.51,0,0,1,311,293Z"/></g></svg>