<?xml version="1.0" ?><svg enable-background="new 0 0 512 512" version="1.1" viewBox="0 0 512 512" xml:space="preserve" xmlns="http://www.w3.org/2000/svg" xmlns:xlink="http://www.w3.org/1999/xlink"><g id="Colors"><g><g><path d="M386.007,244.32c-0.13,0-0.26-0.005-0.391-0.015c-2.753-0.213-4.812-2.617-4.601-5.37     c0.199-2.579,0.37-5.25,0.51-7.938c1.171-22.62-0.375-43.231-4.597-61.261c-0.63-2.688,1.04-5.379,3.729-6.008     c2.686-0.632,5.378,1.04,6.008,3.729c4.437,18.945,6.066,40.497,4.847,64.058c-0.144,2.771-0.32,5.526-0.525,8.189     C390.784,242.327,388.593,244.32,386.007,244.32z" fill="#3F456B"/></g></g><g><g><path d="M308.722,338.352c-1.068,0-2.148-0.013-3.242-0.037c-12.042-0.274-33.602-3.592-42.686-22.733     c-6.688-14.091-3.909-32.891,6.912-46.782c6.32-8.113,7.905-17.415,4.464-26.191c-3.845-9.805-13.328-17.052-24.75-18.914     c-17.419-2.839-58.818-19.54-75.596-53.043c-1.236-2.47-0.237-5.474,2.232-6.71c2.469-1.235,5.473-0.237,6.709,2.231     c14.902,29.758,53.118,45.184,68.264,47.652c14.889,2.427,27.323,12.058,32.45,25.133c4.713,12.02,2.568,25.137-5.885,35.987     c-8.556,10.982-10.873,25.59-5.767,36.349c5.102,10.749,16.816,16.636,33.879,17.023c28.172,0.65,46.086-7.319,58.103-25.812     c1.504-2.314,4.6-2.974,6.917-1.468c2.315,1.504,2.973,4.602,1.468,6.917C358.75,328.644,338.527,338.352,308.722,338.352z" fill="#3F456B"/></g></g><g><g><path d="M369.612,140c-1.81,0-3.556-0.985-4.444-2.703c-3.024-5.844-6.51-11.401-10.358-16.518     c-24.508-32.572-64.46-51.582-104.268-49.638c-16.834,0.826-32.012,5.625-43.894,13.876     c-13.207,9.172-22.364,22.397-27.218,39.31c-0.937,3.261-1.623,6.525-2.04,9.706c-0.359,2.738-2.871,4.651-5.608,4.308     c-2.738-0.359-4.667-2.87-4.307-5.608c0.481-3.672,1.27-7.428,2.343-11.164c10.447-36.403,39.691-58.424,80.233-60.415     c21.533-1.051,43.392,3.437,63.222,12.992c19.462,9.38,36.589,23.427,49.526,40.622c4.185,5.562,7.97,11.595,11.249,17.934     c1.27,2.452,0.31,5.47-2.143,6.738C371.172,139.819,370.386,140,369.612,140z" fill="#3F456B"/></g></g><g><g><path d="M440.1,136.89c-1.43-2.37-0.67-5.439,1.7-6.87l0,0c2.36-1.42,5.43-0.66,6.86,1.7l0,0     c1.43,2.36,0.67,5.44-1.7,6.86l0,0c-0.8,0.489-1.69,0.72-2.57,0.72l0,0C442.689,139.3,441.04,138.439,440.1,136.89z      M429.45,120.28c-1.551-2.28-0.96-5.391,1.319-6.95l0,0c2.29-1.55,5.391-0.96,6.95,1.319l0,0c1.55,2.29,0.96,5.4-1.32,6.95l0,0     c-0.859,0.59-1.84,0.87-2.81,0.87l0,0C431.99,122.47,430.42,121.7,429.45,120.28z M109.53,121.47c-2.53-1.11-3.67-4.07-2.56-6.59     l0,0c1.12-2.53,4.07-3.67,6.6-2.561l0,0c2.52,1.12,3.67,4.07,2.55,6.601l0,0c-0.82,1.87-2.65,2.979-4.58,2.979l0,0     C110.87,121.899,110.19,121.76,109.53,121.47z M417.899,104.3c0,0,0,0,0.011,0l0,0c-1.69-2.19-1.271-5.33,0.92-7.01l0,0     c2.189-1.681,5.319-1.271,7.01,0.92l0,0c1.68,2.189,1.27,5.33-0.92,7.01l0,0c-0.91,0.7-1.98,1.04-3.04,1.04l0,0     C420.37,106.26,418.89,105.58,417.899,104.3z M118.1,103.41c-2.38-1.391-3.19-4.45-1.79-6.841l0,0c1.39-2.38,4.45-3.189,6.84-1.8     l0,0c2.38,1.4,3.18,4.46,1.79,6.84l0,0c-0.93,1.601-2.6,2.48-4.32,2.48l0,0C119.77,104.09,118.9,103.87,118.1,103.41z      M405.45,89.04c-1.811-2.08-1.591-5.24,0.5-7.05l0,0c2.08-1.811,5.239-1.591,7.05,0.489l0,0c1.81,2.09,1.59,5.25-0.5,7.061l0,0     c-0.94,0.819-2.11,1.22-3.271,1.22l0,0C407.83,90.76,406.439,90.18,405.45,89.04z M128.68,86.45c-2.21-1.67-2.65-4.801-0.98-7     l0,0c1.66-2.21,4.79-2.65,7-0.99l0,0c2.2,1.66,2.65,4.8,0.98,7l0,0c-0.98,1.31-2.48,1.99-3.99,1.99l0,0     C130.64,87.45,129.58,87.13,128.68,86.45z M392.08,74.609c-1.95-1.96-1.931-5.119,0.029-7.069l0,0     c1.96-1.94,5.131-1.931,7.07,0.04l0,0c1.95,1.96,1.93,5.12-0.03,7.069l0,0c-0.979,0.96-2.25,1.44-3.52,1.44l0,0     C394.34,76.09,393.06,75.6,392.08,74.609z M141.19,70.85c-1.99-1.91-2.05-5.08-0.14-7.069h0.01c1.91-1.99,5.08-2.051,7.06-0.131     l0,0c1.99,1.91,2.05,5.08,0.14,7.07l0,0l0,0l0,0c-0.98,1.021-2.29,1.53-3.61,1.53l0,0C143.41,72.25,142.16,71.78,141.19,70.85z      M377.76,61.37L377.76,61.37L377.76,61.37c-2.13-1.771-2.42-4.92-0.65-7.04l0,0c1.761-2.13,4.921-2.42,7.04-0.65l0,0     c2.12,1.771,2.41,4.92,0.65,7.04l0,0c-0.99,1.19-2.42,1.8-3.85,1.8l0,0C379.819,62.52,378.689,62.149,377.76,61.37z      M155.49,56.88c-1.74-2.14-1.42-5.29,0.72-7.03l0,0c2.15-1.74,5.3-1.42,7.04,0.72l0,0c1.74,2.15,1.41,5.301-0.73,7.04l0,0     c-0.93,0.75-2.04,1.12-3.15,1.12l0,0C157.92,58.729,156.48,58.1,155.49,56.88z M362.149,49.77c-2.31-1.52-2.939-4.62-1.42-6.92     l0,0c1.521-2.31,4.62-2.95,6.931-1.42l0,0c2.3,1.521,2.93,4.62,1.409,6.93l0,0c-0.96,1.45-2.55,2.24-4.17,2.24l0,0     C363.95,50.6,362.99,50.33,362.149,49.77z M171.37,44.76c-1.47-2.34-0.77-5.43,1.57-6.9l0,0c2.34-1.47,5.43-0.76,6.9,1.57l0,0     c1.46,2.34,0.76,5.43-1.58,6.9l0,0c-0.82,0.52-1.74,0.76-2.65,0.76l0,0C173.94,47.09,172.32,46.27,171.37,44.76z M345.359,39.979     c-2.46-1.26-3.439-4.27-2.18-6.729l0,0c1.25-2.46,4.26-3.431,6.72-2.181l0,0c2.46,1.261,3.44,4.271,2.181,6.73l0,0     c-0.88,1.73-2.641,2.73-4.46,2.73l0,0C346.859,40.53,346.08,40.35,345.359,39.979z M188.6,34.63c-1.17-2.49-0.11-5.47,2.39-6.65     l0,0c2.5-1.18,5.48-0.109,6.66,2.38l0,0c1.17,2.5,0.11,5.48-2.39,6.66l0,0c-0.69,0.33-1.42,0.48-2.13,0.48l0,0     C191.25,37.5,189.46,36.439,188.6,34.63z M327.58,32.13L327.58,32.13L327.58,32.13c-2.58-0.98-3.891-3.86-2.92-6.44l0,0     c0.97-2.59,3.85-3.899,6.439-2.92l0,0c2.59,0.971,3.891,3.851,2.92,6.44l0,0c-0.75,2-2.66,3.24-4.68,3.24l0,0     C328.76,32.45,328.16,32.34,327.58,32.13z M206.93,26.64c-0.88-2.62,0.53-5.45,3.15-6.33l0,0c2.62-0.88,5.45,0.53,6.33,3.15l0,0     c0.87,2.62-0.54,5.45-3.15,6.33l0,0c-0.53,0.18-1.07,0.26-1.59,0.26l0,0C209.58,30.05,207.63,28.729,206.93,26.64z      M309.04,26.319c-2.681-0.67-4.3-3.39-3.63-6.069l0,0c0.68-2.67,3.39-4.3,6.069-3.62l0,0c2.681,0.67,4.301,3.39,3.63,6.07l0,0     c-0.569,2.27-2.609,3.779-4.84,3.779l0,0C309.859,26.479,309.45,26.43,309.04,26.319z M226.06,20.85     c-0.569-2.71,1.17-5.359,3.87-5.92l0,0c2.7-0.57,5.351,1.16,5.92,3.86l0,0c0.57,2.7-1.16,5.35-3.87,5.92l0,0l0,0l0,0     c-0.34,0.08-0.689,0.109-1.029,0.109l0,0C228.64,24.819,226.56,23.2,226.06,20.85z M289.96,22.64L289.96,22.64L289.96,22.64     c-2.73-0.37-4.65-2.88-4.28-5.62l0,0c0.37-2.739,2.88-4.66,5.62-4.29l0,0c2.74,0.37,4.65,2.891,4.29,5.63l0,0     c-0.34,2.511-2.49,4.33-4.95,4.33l0,0C290.41,22.689,290.189,22.67,289.96,22.64z M245.74,17.3c-0.25-2.75,1.77-5.18,4.52-5.44     l0,0c2.75-0.25,5.19,1.771,5.44,4.521l0,0c0.25,2.75-1.771,5.189-4.521,5.439l0,0c-0.149,0.021-0.31,0.021-0.46,0.021l0,0     C248.16,21.84,245.979,19.899,245.74,17.3z M270.6,21.14c-2.77-0.07-4.96-2.35-4.899-5.109l0,0c0.06-2.761,2.35-4.95,5.109-4.891     l0,0c2.76,0.061,4.95,2.34,4.891,5.101l0,0c-0.061,2.729-2.29,4.899-5,4.899l0,0C270.67,21.14,270.63,21.14,270.6,21.14z" fill="#3F456B"/></g></g><g><g><path d="M482.84,401.84c-2.521-1.13-3.65-4.09-2.521-6.61l0,0c1.141-2.51,4.091-3.64,6.61-2.51l0,0     c2.521,1.13,3.65,4.09,2.521,6.61l0,0c-0.841,1.85-2.66,2.95-4.57,2.95l0,0C484.2,402.28,483.5,402.14,482.84,401.84z      M490.02,383.2c-2.68-0.65-4.33-3.351-3.68-6.03l0,0c0.64-2.69,3.34-4.34,6.03-3.69l0,0c2.68,0.641,4.33,3.34,3.689,6.03l0,0     c-0.56,2.29-2.6,3.83-4.859,3.83l0,0C490.81,383.34,490.42,383.29,490.02,383.2z M494.29,363.66     c-2.73-0.42-4.601-2.971-4.181-5.7l0,0c0.421-2.73,2.971-4.61,5.7-4.18l0,0c2.73,0.42,4.61,2.97,4.19,5.699h-0.01     c-0.381,2.471-2.5,4.24-4.931,4.24l0,0C494.81,363.72,494.55,363.7,494.29,363.66z M496.939,343.84     c-2.76-0.21-4.819-2.61-4.609-5.36l0,0l0,0l0,0c0.2-2.75,2.6-4.819,5.359-4.609l0,0c2.75,0.199,4.82,2.6,4.61,5.359l0,0     c-0.2,2.62-2.39,4.62-4.98,4.62l0,0C497.189,343.85,497.069,343.85,496.939,343.84z M498.069,323.87     c-2.76-0.011-5-2.25-4.989-5.011l0,0c0.01-2.76,2.25-5,5.02-4.989l0,0c2.76,0.01,4.99,2.25,4.98,5.02l0,0     c-0.011,2.75-2.24,4.98-5,4.98l0,0H498.069z M492.47,299.21c-0.18-2.76,1.91-5.141,4.67-5.311l0,0     c2.76-0.18,5.13,1.91,5.311,4.66l0,0c0.18,2.76-1.91,5.141-4.67,5.311l0,0c-0.11,0.01-0.221,0.01-0.32,0.01l0,0     C494.84,303.88,492.64,301.85,492.47,299.21z M490.58,279.62c0,0,0,0,0.01-0.011l0,0c-0.36-2.729,1.58-5.239,4.32-5.59l0,0     c2.739-0.35,5.239,1.59,5.59,4.33l0,0c0.35,2.74-1.58,5.24-4.32,5.59l0,0c-0.22,0.03-0.43,0.04-0.64,0.04l0,0     C493.06,283.979,490.91,282.14,490.58,279.62z M487.5,260.16L487.5,260.16L487.5,260.16c-0.51-2.721,1.28-5.33,3.99-5.841l0,0     c2.71-0.51,5.329,1.271,5.84,3.99l0,0c0.51,2.71-1.271,5.32-3.99,5.84l0,0c-0.31,0.051-0.62,0.08-0.93,0.08l0,0     C490.06,264.229,487.96,262.56,487.5,260.16z M483.3,240.89c-0.66-2.68,0.98-5.39,3.66-6.05l0,0c2.67-0.67,5.39,0.97,6.05,3.65     l0,0c0.66,2.68-0.97,5.39-3.65,6.06l0,0c-0.399,0.1-0.81,0.14-1.199,0.14l0,0C485.91,244.689,483.87,243.17,483.3,240.89z      M478.04,221.88c-0.8-2.64,0.68-5.44,3.319-6.24l0,0c2.641-0.81,5.44,0.68,6.25,3.32l0,0c0.801,2.64-0.68,5.43-3.319,6.24l0,0     c-0.49,0.149-0.98,0.22-1.471,0.22l0,0C480.68,225.42,478.7,224.03,478.04,221.88z M471.77,203.17c0,0,0,0,0.011,0l0,0     c-0.95-2.601,0.39-5.47,2.979-6.41l0,0c2.6-0.95,5.46,0.39,6.41,2.98l0,0c0.95,2.6-0.39,5.47-2.99,6.409l0,0     c-0.56,0.21-1.14,0.311-1.71,0.311l0,0C474.43,206.46,472.52,205.2,471.77,203.17z M464.54,184.8L464.54,184.8L464.54,184.8     c-1.08-2.54,0.109-5.47,2.649-6.55l0,0c2.54-1.08,5.48,0.1,6.561,2.649l0,0c1.069,2.54-0.11,5.471-2.66,6.551l0,0     c-0.63,0.27-1.29,0.399-1.94,0.399l0,0C467.2,187.85,465.35,186.71,464.54,184.8z" fill="#3F456B"/></g></g><g><g><path d="M235.729,492.979c-2.76,0-5.01-2.229-5.01-5l0,0c-0.01-2.76,2.23-5,4.99-5l0,0     c2.76-0.01,5,2.23,5.01,4.99l0,0C240.72,490.729,238.49,492.97,235.729,492.979L235.729,492.979z M250.72,487.91     c-0.04-2.761,2.17-5.03,4.93-5.061l0,0l0,0l0,0c2.761-0.03,5.03,2.181,5.061,4.94l0,0c0.04,2.76-2.17,5.02-4.93,5.06l0,0     c-0.021,0-0.04,0-0.061,0l0,0C252.979,492.85,250.75,490.649,250.72,487.91z M215.59,492.8c-2.76-0.07-4.94-2.37-4.86-5.13l0,0     c0.07-2.76,2.36-4.94,5.12-4.87l0,0c0,0,0,0,0,0.01l0,0c2.771,0.07,4.95,2.36,4.87,5.12l0,0c-0.07,2.72-2.29,4.87-4.99,4.87l0,0     C215.68,492.8,215.64,492.8,215.59,492.8z M270.71,487.58c-0.09-2.761,2.08-5.061,4.84-5.15l0,0c2.76-0.09,5.07,2.08,5.16,4.84     l0,0c0.08,2.761-2.09,5.07-4.851,5.16l0,0c-0.05,0-0.1,0-0.149,0l0,0C273.02,492.43,270.8,490.29,270.71,487.58z M195.43,491.88     c-2.76-0.17-4.85-2.55-4.67-5.3l0,0c0.17-2.761,2.55-4.851,5.3-4.681l0,0c2.76,0.181,4.85,2.551,4.68,5.311l0,0     c-0.17,2.649-2.37,4.68-4.99,4.68l0,0C195.65,491.89,195.54,491.89,195.43,491.88z M290.7,486.84     c-0.16-2.76,1.939-5.12,4.699-5.28l0,0c2.75-0.16,5.12,1.95,5.28,4.7l0,0c0.16,2.76-1.95,5.12-4.7,5.28l0,0     c-0.1,0.01-0.199,0.01-0.29,0.01l0,0C293.06,491.55,290.85,489.5,290.7,486.84z M175.3,490.22L175.3,490.22     c-2.75-0.29-4.74-2.74-4.46-5.49l0,0c0.29-2.75,2.74-4.739,5.49-4.46l0,0c2.75,0.29,4.74,2.74,4.46,5.49l0,0     c-0.27,2.57-2.44,4.49-4.97,4.49l0,0C175.65,490.25,175.47,490.24,175.3,490.22z M310.649,485.52     c-0.25-2.75,1.771-5.18,4.521-5.439l0,0c2.75-0.25,5.189,1.77,5.439,4.52l0,0c0.261,2.75-1.76,5.181-4.51,5.44l0,0     c-0.16,0.01-0.319,0.02-0.47,0.02l0,0C313.069,490.06,310.89,488.109,310.649,485.52z M330.55,483.47     c-0.38-2.729,1.54-5.26,4.27-5.63l0,0c2.74-0.38,5.261,1.54,5.641,4.27l0,0c0.37,2.74-1.54,5.261-4.28,5.641l0,0     c-0.229,0.03-0.45,0.04-0.68,0.04l0,0C333.04,487.79,330.89,485.979,330.55,483.47z M155.21,487.64     c-2.73-0.42-4.59-2.97-4.17-5.7l0,0c0.42-2.729,2.97-4.6,5.7-4.18l0,0c2.73,0.42,4.6,2.98,4.18,5.71l0,0     c-0.38,2.47-2.51,4.23-4.94,4.23l0,0C155.73,487.7,155.47,487.68,155.21,487.64z M235.71,482.979L235.71,482.979L235.71,482.979     L235.71,482.979L235.71,482.979L235.71,482.979z" fill="#3F456B"/></g></g><g><g><path d="M20.72,403.58c-1.04-2.561,0.18-5.471,2.74-6.521l0,0c2.55-1.04,5.47,0.181,6.52,2.74l0,0     c1.04,2.56-0.18,5.47-2.74,6.52l0,0c-0.62,0.25-1.26,0.37-1.89,0.37l0,0C23.38,406.689,21.51,405.52,20.72,403.58z M14.59,383.64     L14.59,383.64c-0.58-2.7,1.15-5.359,3.85-5.93l0,0c2.7-0.57,5.35,1.149,5.93,3.85l0,0l0,0l0,0c0.57,2.7-1.15,5.36-3.85,5.931l0,0     c-0.35,0.069-0.7,0.109-1.05,0.109l0,0C17.16,387.6,15.09,385.99,14.59,383.64z M12.05,362.95c-0.1-2.761,2.06-5.08,4.82-5.17     l0,0c2.76-0.101,5.07,2.06,5.17,4.819l0,0c0.1,2.76-2.06,5.08-4.82,5.17l0,0c-0.06,0-0.12,0-0.18,0l0,0     C14.36,367.77,12.14,365.649,12.05,362.95z M17.38,347.78c-2.73-0.381-4.64-2.91-4.26-5.641l0,0c0.38-2.74,2.9-4.649,5.64-4.27     l0,0c2.73,0.38,4.64,2.91,4.26,5.64l0,0c-0.35,2.5-2.49,4.32-4.95,4.32l0,0C17.85,347.83,17.61,347.81,17.38,347.78z      M20.99,328.109c-2.63-0.84-4.08-3.659-3.23-6.29l0,0c0.84-2.63,3.66-4.069,6.29-3.229l0,0c2.63,0.85,4.07,3.66,3.23,6.29l0,0     c-0.69,2.12-2.65,3.47-4.76,3.47l0,0C22.01,328.35,21.49,328.27,20.99,328.109z M27.93,309.359c-2.44-1.29-3.38-4.31-2.09-6.75     l0,0c1.28-2.449,4.31-3.38,6.75-2.09l0,0c2.45,1.28,3.38,4.3,2.09,6.75l0,0c-0.89,1.7-2.63,2.67-4.43,2.67l0,0     C29.47,309.939,28.67,309.75,27.93,309.359z M38.22,292.229c-2.12-1.77-2.39-4.93-0.62-7.04l0,0c1.78-2.12,4.93-2.399,7.05-0.62     l0,0c2.11,1.78,2.39,4.931,0.61,7.04l0,0c-0.99,1.181-2.41,1.79-3.83,1.79l0,0C40.29,293.399,39.15,293.02,38.22,292.229z      M51.65,277.43c-1.9-2.01-1.82-5.17,0.19-7.07l0,0c2-1.899,5.17-1.819,7.07,0.19l0,0c1.9,2,1.81,5.17-0.19,7.07l0,0l0,0l0,0     c-0.97,0.91-2.21,1.37-3.44,1.37l0,0C53.96,278.99,52.63,278.46,51.65,277.43z M66.28,263.79c-1.92-1.99-1.85-5.16,0.14-7.07l0,0     c1.99-1.92,5.15-1.85,7.07,0.14l0,0c1.91,1.99,1.85,5.15-0.14,7.061l0,0c-0.97,0.939-2.22,1.399-3.47,1.399l0,0     C68.57,265.319,67.26,264.81,66.28,263.79z M80.27,249.5c-2.29-1.54-2.9-4.65-1.36-6.94l0,0c1.54-2.29,4.65-2.899,6.94-1.359l0,0     c2.29,1.54,2.9,4.649,1.36,6.939l0,0c-0.97,1.44-2.54,2.21-4.15,2.21l0,0C82.1,250.35,81.13,250.069,80.27,249.5z M90.18,232.17     c-2.62-0.86-4.05-3.69-3.19-6.311l0,0c0.86-2.63,3.68-4.06,6.31-3.189l0,0c2.62,0.85,4.05,3.68,3.19,6.31l0,0c0,0,0,0,0-0.01l0,0     c-0.69,2.11-2.65,3.45-4.75,3.45l0,0C91.22,232.42,90.7,232.34,90.18,232.17z M95.32,212.87c-2.74-0.36-4.67-2.87-4.32-5.601l0,0     c0.36-2.739,2.86-4.67,5.6-4.319l0,0c2.74,0.35,4.67,2.859,4.32,5.6l0,0c-0.32,2.52-2.47,4.36-4.95,4.36l0,0     C95.76,212.91,95.54,212.899,95.32,212.87z M97.32,192.97c-2.75-0.15-4.88-2.49-4.73-5.25l0,0c0.14-2.76,2.49-4.88,5.25-4.74l0,0     c2.75,0.141,4.88,2.49,4.73,5.25l0,0c-0.13,2.67-2.34,4.74-4.99,4.74l0,0C97.5,192.97,97.41,192.97,97.32,192.97z M98.31,172.99     c-2.76-0.21-4.82-2.61-4.62-5.36l0,0c0.21-2.76,2.61-4.82,5.36-4.61l0,0c2.76,0.2,4.82,2.601,4.61,5.351l0,0     c-0.19,2.63-2.39,4.63-4.98,4.63l0,0C98.56,173,98.43,173,98.31,172.99z" fill="#3F456B"/></g></g><g><g><path d="M291.725,88.475c0.873,3.948-2.559,7.387-6.509,6.521c-1.993-0.437-3.603-2.041-4.048-4.032     c-0.886-3.959,2.565-7.414,6.522-6.532C289.68,84.877,291.285,86.484,291.725,88.475z" fill="#3F456B"/></g></g><g><g><path d="M314.725,115.975c0.873,3.948-2.559,7.387-6.509,6.521c-1.993-0.437-3.603-2.041-4.048-4.032     c-0.886-3.959,2.565-7.414,6.522-6.532C312.68,112.377,314.285,113.984,314.725,115.975z" fill="#3F456B"/></g></g><g><g><path d="M244.555,88.475c0.873,3.947-2.559,7.387-6.509,6.521c-1.993-0.437-3.603-2.041-4.048-4.032     c-0.886-3.959,2.565-7.414,6.522-6.532C242.509,84.877,244.114,86.484,244.555,88.475z" fill="#3F456B"/></g></g><g><g><path d="M267.555,115.975c0.873,3.947-2.559,7.387-6.509,6.521c-1.993-0.437-3.603-2.041-4.048-4.032     c-0.886-3.959,2.565-7.414,6.522-6.532C265.509,112.377,267.114,113.984,267.555,115.975z" fill="#3F456B"/></g></g><g><g><path d="M220.725,115.975c0.873,3.948-2.559,7.387-6.51,6.521c-1.993-0.437-3.603-2.041-4.048-4.032     c-0.886-3.959,2.565-7.414,6.522-6.532C218.68,112.377,220.285,113.984,220.725,115.975z" fill="#3F456B"/></g></g><g><g><path d="M342.692,243.713c0,2.992-2.424,5.418-5.418,5.418c-2.991,0-5.417-2.426-5.417-5.418     c0-2.992,2.426-5.419,5.417-5.419C340.268,238.294,342.692,240.721,342.692,243.713z" fill="#3F456B"/></g></g><g><g><path d="M302.862,243.713c0,2.992-2.424,5.418-5.418,5.418c-2.991,0-5.417-2.426-5.417-5.418     c0-2.992,2.426-5.419,5.417-5.419C300.438,238.294,302.862,240.721,302.862,243.713z" fill="#3F456B"/></g></g><g><g><path d="M365.692,215.213c0,2.992-2.424,5.418-5.418,5.418c-2.991,0-5.417-2.426-5.417-5.418     c0-2.992,2.426-5.419,5.417-5.419C363.268,209.794,365.692,212.221,365.692,215.213z" fill="#3F456B"/></g></g><g><g><path d="M318.862,215.213c0,2.992-2.424,5.418-5.418,5.418c-2.991,0-5.417-2.426-5.417-5.418     c0-2.992,2.426-5.419,5.417-5.419C316.438,209.794,318.862,212.221,318.862,215.213z" fill="#3F456B"/></g></g><g><g><path d="M295.862,294.713c0,2.992-2.424,5.418-5.418,5.418c-2.991,0-5.417-2.426-5.417-5.418     c0-2.992,2.426-5.419,5.417-5.419C293.438,289.294,295.862,291.721,295.862,294.713z" fill="#3F456B"/></g></g><g><g><path d="M365.692,270.213c0,2.992-2.424,5.418-5.418,5.418c-2.991,0-5.417-2.426-5.417-5.418     c0-2.992,2.426-5.419,5.417-5.419C363.268,264.794,365.692,267.221,365.692,270.213z" fill="#3F456B"/></g></g><g><g><path d="M323.862,270.213c0,2.992-2.424,5.418-5.418,5.418c-2.991,0-5.417-2.426-5.417-5.418     c0-2.992,2.426-5.419,5.417-5.419C321.438,264.794,323.862,267.221,323.862,270.213z" fill="#3F456B"/></g></g><g><g><path d="M249.54,342.76c-1.53-2.3-0.9-5.41,1.399-6.94l0,0c2.301-1.52,5.4-0.899,6.931,1.4l0,0l0,0l0,0     c1.529,2.3,0.899,5.41-1.4,6.93l0,0c-0.85,0.57-1.81,0.841-2.76,0.841l0,0C252.09,344.99,250.5,344.21,249.54,342.76z      M237.83,327.34L237.83,327.34c-1.8-2.09-1.57-5.25,0.52-7.06l0,0c2.09-1.801,5.25-1.57,7.05,0.529l0,0l0,0l0,0     c1.811,2.09,1.57,5.24-0.52,7.05l0,0c-0.94,0.811-2.1,1.21-3.26,1.21l0,0C240.22,329.069,238.819,328.479,237.83,327.34z      M224.3,313.46L224.3,313.46c-2.04-1.851-2.19-5.021-0.34-7.061l0,0c1.859-2.04,5.02-2.199,7.06-0.34l0,0c0,0,0,0,0.011,0l0,0     c2.039,1.86,2.189,5.021,0.329,7.061l0,0c-0.979,1.09-2.34,1.64-3.699,1.64l0,0C226.46,314.76,225.26,314.33,224.3,313.46z      M209.189,301.319L209.189,301.319c-2.25-1.6-2.78-4.72-1.18-6.97l0,0c1.59-2.26,4.72-2.79,6.97-1.189l0,0l0,0l0,0     c2.25,1.6,2.78,4.72,1.181,6.97l0,0c-0.971,1.38-2.511,2.11-4.08,2.11l0,0C211.08,302.24,210.069,301.939,209.189,301.319z      M192.74,291.06L192.74,291.06c-2.43-1.319-3.33-4.35-2.01-6.779l0,0c1.32-2.431,4.35-3.32,6.78-2.011l0,0     c2.43,1.32,3.32,4.36,2.01,6.78l0,0c-0.91,1.67-2.63,2.62-4.4,2.62l0,0C194.31,291.67,193.5,291.47,192.74,291.06z      M175.17,282.819c-2.56-1.02-3.81-3.93-2.79-6.489l0,0c1.03-2.57,3.94-3.82,6.5-2.79l0,0l0,0l0,0c2.57,1.02,3.81,3.93,2.79,6.49     l0,0c-0.78,1.96-2.66,3.149-4.65,3.149l0,0C176.41,283.18,175.78,283.069,175.17,282.819z" fill="#3F456B"/></g></g><g><g><path d="M76.12,268.92c-0.64-2.69,1.03-5.38,3.71-6.021l0,0c2.69-0.64,5.38,1.03,6.02,3.71l0,0     c0.63,2.69-1.03,5.381-3.71,6.021l0,0c-0.39,0.1-0.78,0.14-1.16,0.14l0,0C78.72,272.77,76.66,271.22,76.12,268.92z      M120.35,270.189c-2.76-0.21-4.81-2.62-4.6-5.38l0,0c0.22-2.75,2.63-4.8,5.38-4.59l0,0c2.76,0.22,4.81,2.63,4.59,5.38l0,0     c-0.2,2.62-2.39,4.61-4.98,4.61l0,0C120.61,270.21,120.48,270.2,120.35,270.189z M95.77,265.24c-0.16-2.761,1.94-5.131,4.7-5.29     l0,0l0,0l0,0c2.76-0.16,5.12,1.949,5.28,4.699l0,0c0.16,2.761-1.95,5.131-4.7,5.29l0,0c-0.1,0-0.2,0-0.29,0l0,0     C98.13,269.939,95.92,267.89,95.77,265.24z" fill="#3F456B"/></g></g><g><g><path d="M432.538,60.693c-0.084,0-0.168-0.002-0.252-0.006c-2.409-0.122-4.394-1.925-4.71-4.315     c-0.937-7.084-4.632-11.501-11.297-13.504c-5.328-1.603-10.507-0.997-10.556-0.99c-2.75,0.361-5.245-1.58-5.6-4.318     c-0.354-2.739,1.58-5.246,4.318-5.6c0.293-0.038,7.282-0.903,14.715,1.331c6.222,1.87,11.053,5.396,14.235,10.274     c5.182-6.08,14.04-11.371,27.893-10.506c2.756,0.172,4.852,2.545,4.68,5.301s-2.547,4.864-5.301,4.68     c-19.145-1.197-22.893,12.247-23.255,13.784C436.872,59.089,434.844,60.693,432.538,60.693z" fill="#3F456B"/></g></g><g><g><path d="M48.64,232.648c-2.275,0-4.285-1.546-4.847-3.782c-4.03-16.056-21.412-12.373-23.382-11.9     c-2.676,0.648-5.381-0.998-6.034-3.675c-0.653-2.676,0.973-5.373,3.646-6.036c0.287-0.07,7.129-1.728,14.771-0.357     c6.393,1.147,11.596,4.1,15.315,8.582c4.453-6.633,12.646-12.896,26.511-13.622c2.751-0.153,5.11,1.975,5.254,4.732     c0.144,2.757-1.974,5.109-4.732,5.254c-19.759,1.033-21.462,15.684-21.525,16.307c-0.244,2.416-2.189,4.309-4.611,4.484     C48.884,232.645,48.761,232.648,48.64,232.648z" fill="#3F456B"/></g></g><g><g><path d="M113.005,326.001c-0.339,0-0.683-0.034-1.028-0.106c-2.703-0.565-4.436-3.215-3.871-5.918l32-153     c0.565-2.702,3.211-4.437,5.917-3.871c2.703,0.565,4.436,3.215,3.871,5.918l-32,153     C117.401,324.381,115.322,326.001,113.005,326.001z" fill="#3F456B"/></g></g><g><g><path d="M438,196H122c-8.271,0-15-6.729-15-15v-13c0-2.762,2.239-5,5-5s5,2.238,5,5v13c0,2.757,2.243,5,5,5h316     c2.757,0,5-2.243,5-5v-13c0-2.762,2.238-5,5-5s5,2.238,5,5v13C453,189.271,446.271,196,438,196z" fill="#3F456B"/></g></g></g><g id="Lines"><g><g><path d="M340,468.137H169.347c-2.761,0-5-2.238-5-5s2.239-5,5-5H340c2.762,0,5,2.238,5,5     S342.762,468.137,340,468.137z" fill="#3F456B"/></g></g><g><g><path d="M121.066,500.705c-30.962,0-56.151-25.189-56.151-56.151s25.189-56.151,56.151-56.151     s56.151,25.189,56.151,56.151S152.028,500.705,121.066,500.705z M121.066,398.402c-25.448,0-46.151,20.703-46.151,46.151     s20.704,46.151,46.151,46.151s46.151-20.703,46.151-46.151S146.514,398.402,121.066,398.402z" fill="#3F456B"/></g></g><g><g><path d="M388.28,500.705c-30.962,0-56.151-25.189-56.151-56.151s25.189-56.151,56.151-56.151     s56.151,25.189,56.151,56.151S419.242,500.705,388.28,500.705z M388.28,398.402c-25.448,0-46.151,20.703-46.151,46.151     s20.703,46.151,46.151,46.151s46.151-20.703,46.151-46.151S413.729,398.402,388.28,398.402z" fill="#3F456B"/></g></g><g><g><path d="M388.28,465.107c-11.333,0-20.554-9.221-20.554-20.554S376.947,424,388.28,424     s20.554,9.221,20.554,20.554S399.613,465.107,388.28,465.107z M388.28,434c-5.819,0-10.554,4.734-10.554,10.554     s4.734,10.554,10.554,10.554s10.554-4.734,10.554-10.554S394.1,434,388.28,434z" fill="#3F456B"/></g></g><g><g><path d="M121.28,465.107c-11.333,0-20.553-9.221-20.553-20.554S109.947,424,121.28,424     c11.333,0,20.554,9.221,20.554,20.554S132.614,465.107,121.28,465.107z M121.28,434c-5.819,0-10.553,4.734-10.553,10.554     s4.734,10.554,10.553,10.554c5.819,0,10.554-4.734,10.554-10.554S127.1,434,121.28,434z" fill="#3F456B"/></g></g><g><g><path d="M289,388c-2.762,0-5-2.238-5-5v-47.877c-0.083-1.878-0.354-16.01,9.403-26.396     C300.091,301.609,309.712,298,322,298h45.875c1.545-0.065,9.284-0.102,15.117,5.377C386.979,307.123,389,312.379,389,319v32     c0,2.762-2.238,5-5,5s-5-2.238-5-5v-32c0-3.75-0.961-6.555-2.855-8.334c-3.021-2.84-7.782-2.682-7.833-2.676     c-0.104,0.007-0.207,0.01-0.312,0.01h-46c-9.379,0-16.528,2.527-21.25,7.513c-7.293,7.7-6.765,19.081-6.759,19.195     c0.005,0.091,0.009,0.201,0.009,0.292v48C294,385.762,291.762,388,289,388z" fill="#3F456B"/></g></g><g><g><path d="M479,173H80c-2.586,0-4.745-1.972-4.979-4.547c-0.062-0.679-1.392-16.741,8.904-28.016     C90.25,133.512,99.359,130,111,130h337c11.641,0,20.751,3.512,27.075,10.438c10.296,11.274,8.966,27.337,8.904,28.016     C483.745,171.028,481.586,173,479,173z M85.074,163h388.853c-0.383-4.345-1.752-10.943-6.281-15.869     C463.294,142.399,456.685,140,448,140H111c-8.684,0-15.294,2.399-19.645,7.131C86.826,152.056,85.457,158.651,85.074,163z" fill="#3F456B"/></g></g><g><g><path d="M70,436.5H18.292c-2.761,0-5-2.238-5-5s2.239-5,5-5H70c2.761,0,5,2.238,5,5S72.761,436.5,70,436.5z" fill="#3F456B"/></g></g><g><g><path d="M338,436.5H172.292c-2.761,0-5-2.238-5-5s2.239-5,5-5H338c2.762,0,5,2.238,5,5S340.762,436.5,338,436.5z" fill="#3F456B"/></g></g><g><g><path d="M73.344,468H32c-6.861,0-12.146-2.063-15.708-6.132c-4.807-5.491-4.459-12.47-4.285-14.204     c1.199-49.663,25.711-81.272,46.081-99.056c24.471-21.364,53.091-31.965,70.164-34.552c24.214-3.669,35.1,11.701,37.534,20.486     l31.953,94.861c0.882,2.616-0.525,5.452-3.142,6.334c-2.617,0.886-5.453-0.525-6.334-3.143l-32-95     c-0.034-0.1-0.064-0.201-0.092-0.304c-0.476-1.671-5.347-16.539-26.421-13.349c-15.743,2.386-42.235,12.249-65.086,32.198     c-18.884,16.486-41.616,45.825-42.665,91.972c-0.004,0.184-0.018,0.366-0.042,0.548l0,0c0.001,0-0.427,4.061,1.899,6.665     C25.44,457.101,28.18,458,32,458h41.344c2.761,0,5,2.238,5,5S76.105,468,73.344,468z" fill="#3F456B"/></g></g><g><g><path d="M436.011,467.975c-2.762,0-5-2.238-5-5s2.238-5,5-5H480c1.814-0.023,11-0.666,11-10.975v-15.843     c-0.105-1.459-1.685-19.718-14.843-37.626c-17.796-24.222-47.617-36.83-88.664-37.503C383.383,365.51,368.322,389,320,389h-58v42     c0,2.762-2.238,5-5,5s-5-2.238-5-5v-47c0-2.762,2.238-5,5-5h63c51.472,0,59.07-28.886,59.141-29.178     c0.544-2.243,2.552-3.822,4.859-3.822c31.957,0,75.342,7.298,100.548,42.065c15.197,20.961,16.402,41.808,16.446,42.685     c0.004,0.083,0.006,0.167,0.006,0.25v16c0,6.095-1.89,11.07-5.615,14.791c-6.008,5.998-14.38,6.184-15.38,6.184     c-0.005,0-0.009,0-0.013,0H436.011z" fill="#3F456B"/></g></g><g><g><path d="M496,436.5h-58c-2.762,0-5-2.238-5-5s2.238-5,5-5h58c2.762,0,5,2.238,5,5S498.762,436.5,496,436.5z" fill="#3F456B"/></g></g><g><g><path d="M257,389c-2.762,0-5-2.238-5-5v-16.5c0-6.861,2.07-12.285,6.152-16.12     c5.819-5.469,13.441-5.453,14.971-5.38H384c2.762,0,5,2.238,5,5s-2.238,5-5,5H273c-0.104,0-0.208-0.003-0.312-0.01l0,0     c-0.021,0.003-4.707-0.174-7.74,2.726c-1.956,1.87-2.948,4.826-2.948,8.784V384C262,386.762,259.762,389,257,389z" fill="#3F456B"/></g></g><g><g><path d="M416.5,358c-0.005,0-0.009,0-0.014,0c-2.762-0.008-4.994-2.252-4.986-5.014l0.5-185     c0.008-2.757,2.245-4.986,5-4.986c0.005,0,0.009,0,0.014,0c2.762,0.008,4.994,2.252,4.986,5.014l-0.5,185     C421.492,355.771,419.255,358,416.5,358z" fill="#3F456B"/></g></g><g><g><path d="M400,340h-22c-8.271,0-15-6.729-15-15v-75c0-8.271,6.729-15,15-15h22c2.762,0,5,2.238,5,5v95     C405,337.762,402.762,340,400,340z M378,245c-2.757,0-5,2.243-5,5v75c0,2.757,2.243,5,5,5h17v-85H378z" fill="#3F456B"/></g></g><g><g><path d="M416,260h-16c-2.762,0-5-2.238-5-5s2.238-5,5-5h16c2.762,0,5,2.238,5,5S418.762,260,416,260z" fill="#3F456B"/></g></g><g><g><path d="M481,324h-81c-2.762,0-5-2.238-5-5s2.238-5,5-5h81c2.762,0,5,2.238,5,5S483.762,324,481,324z" fill="#3F456B"/></g></g><g><g><path d="M219.999,363.001c-2.094,0-4.044-1.324-4.742-3.42l-16-48c-0.873-2.62,0.543-5.451,3.163-6.324     c2.619-0.872,5.451,0.542,6.325,3.162l16,48c0.873,2.62-0.542,5.451-3.162,6.324     C221.057,362.918,220.523,363.001,219.999,363.001z" fill="#3F456B"/></g></g><g><g><path d="M166,356.001c-2.033,0-3.944-1.249-4.69-3.268c-0.958-2.591,0.367-5.466,2.957-6.424l46-17     c2.592-0.958,5.467,0.368,6.424,2.957c0.957,2.591-0.367,5.466-2.957,6.424l-46,17C167.162,355.901,166.576,356.001,166,356.001z     " fill="#3F456B"/></g></g><g><g><path d="M448,356h-59.934c-2.762,0-5-2.238-5-5s2.238-5,5-5H448c9.121,0,16.15-2.462,20.894-7.318     c7.284-7.46,7.111-18.432,7.108-18.541c-0.001-0.04-0.002-0.102-0.002-0.141v-17c0-3.592-0.904-6.165-2.765-7.868     c-3.265-2.99-8.742-2.656-8.796-2.651c-0.146,0.013-0.293,0.02-0.439,0.02h-64c-2.762,0-5-2.238-5-5s2.238-5,5-5h63.815     c1.787-0.118,10.078-0.325,16.173,5.256C483.978,291.408,486,296.537,486,303v16.942c0.028,1.452,0.033,15.413-9.859,25.63     C469.441,352.491,459.973,356,448,356z" fill="#3F456B"/></g></g><g><g><path d="M448.5,356c-2.762,0-5-2.238-5-5v-63.5c0-2.762,2.238-5,5-5s5,2.238,5,5V351     C453.5,353.762,451.262,356,448.5,356z" fill="#3F456B"/></g></g><g><g><path d="M162.974,304.941c-1.026,0-2.066-0.106-3.109-0.327h0l-11.74-2.485c-3.909-0.827-7.267-3.136-9.457-6.502     c-2.189-3.364-2.939-7.371-2.111-11.279l5.798-27.393c1.713-8.091,9.692-13.28,17.781-11.569l11.741,2.485     c3.909,0.827,7.267,3.136,9.457,6.502c2.189,3.364,2.939,7.371,2.111,11.279l-5.798,27.393     C176.153,300.094,169.907,304.941,162.974,304.941z M161.935,294.831c2.697,0.57,5.356-1.159,5.927-3.856l5.798-27.393     c0.274-1.296,0.022-2.63-0.71-3.757c-0.733-1.126-1.85-1.896-3.145-2.171l-11.741-2.485c-2.691-0.566-5.355,1.159-5.927,3.856     l-5.798,27.393c-0.274,1.296-0.022,2.63,0.71,3.757c0.733,1.126,1.85,1.896,3.145,2.171L161.935,294.831z" fill="#3F456B"/></g></g><g><g><path d="M143.004,276.001c-0.402,0-0.81-0.049-1.217-0.15l-16-4c-2.679-0.67-4.308-3.385-3.638-6.063     s3.386-4.306,6.063-3.638l16,4c2.679,0.67,4.308,3.385,3.638,6.063C147.283,274.484,145.244,276.001,143.004,276.001z" fill="#3F456B"/></g></g></g></svg>