<?xml version="1.0" ?><svg id="Lines" viewBox="0 0 512 512" xmlns="http://www.w3.org/2000/svg"><defs><style>.cls-1{fill:#3f456b;}</style></defs><title/><path class="cls-1" d="M386.1,456.7c-16.84,0-27.93-8.47-28.32-21.71a5,5,0,0,1,10-.3c.33,11.06,13.31,12.07,18.86,12s10.72-2.2,13.51-5.41a9.17,9.17,0,0,0,2.16-7.59c-.51-3.89-2.84-6.8-12.55-8.39l-2.83-.43c-8.39-1.27-17.89-2.7-24.37-11.87a16.12,16.12,0,0,1-2.76-12.44,22.87,22.87,0,0,1,9.79-14.28c7.21-4.89,18.27-5.64,27.5-1.85a26.56,26.56,0,0,1,14.73,14.69,5,5,0,1,1-9.31,3.64,16.72,16.72,0,0,0-9.21-9.08c-6.17-2.53-13.61-2.17-18.1.88a13.06,13.06,0,0,0-5.56,7.79,6.2,6.2,0,0,0,1.08,4.88c3.83,5.41,9.22,6.47,17.7,7.75,1,.15,2,.29,2.95.45,4.71.77,19,3.11,20.85,17a19.16,19.16,0,0,1-4.51,15.43c-4.71,5.44-12.54,8.75-20.94,8.86Z"/><path class="cls-1" d="M386,392a5,5,0,0,1-5-5V372a5,5,0,0,1,10,0v15A5,5,0,0,1,386,392Z"/><path class="cls-1" d="M386,472a5,5,0,0,1-5-5V452a5,5,0,0,1,10,0v15A5,5,0,0,1,386,472Z"/><path class="cls-1" d="M386.09,500.11A81.89,81.89,0,1,1,468,418.22h0A82,82,0,0,1,386.09,500.11Zm0-153.78A71.89,71.89,0,1,0,458,418.22,72,72,0,0,0,386.09,346.33Z"/><path class="cls-1" d="M47,308.08a5,5,0,0,1-5-5V153a5,5,0,0,1,10,0V303.08A5,5,0,0,1,47,308.08Z"/><path class="cls-1" d="M311.89,403H288.62a5,5,0,0,1,0-10h23.27a5,5,0,0,1,0,10Z"/><path class="cls-1" d="M460.75,403.62a5,5,0,0,1,0-10,30.36,30.36,0,0,0,11.08-2l.34-.14c10.67-3.83,17.83-14.39,17.83-26.26V153a5,5,0,0,1,10,0V365.22c0,16-9.75,30.32-24.29,35.62A40.6,40.6,0,0,1,460.75,403.62Z"/><path class="cls-1" d="M462.72,230H318a5,5,0,0,1,0-10H462.72A27.31,27.31,0,0,0,490,192.73V96.27A27.31,27.31,0,0,0,462.72,69H79.28A27.31,27.31,0,0,0,52,96.27v96.46A27.31,27.31,0,0,0,79.28,220H223a5,5,0,0,1,0,10H79.28A37.32,37.32,0,0,1,42,192.73V96.27A37.32,37.32,0,0,1,79.28,59H462.72A37.32,37.32,0,0,1,500,96.27v96.46A37.32,37.32,0,0,1,462.72,230Z"/><path class="cls-1" d="M342,64H332V39.77c0-9-4.78-19.77-27.58-19.77H236.64C226.32,20,209,22.57,209,39.77V64H199V39.77C199,21.13,213.07,10,236.64,10h67.78C328,10,342,21.13,342,39.77Z"/><path class="cls-1" d="M307.08,277H233.92A15.94,15.94,0,0,1,218,261.08V208.92A15.94,15.94,0,0,1,233.92,193h73.16A15.94,15.94,0,0,1,323,208.92v52.16A15.94,15.94,0,0,1,307.08,277Zm-73.16-74a5.93,5.93,0,0,0-5.92,5.92v52.16a5.93,5.93,0,0,0,5.92,5.92h73.16a5.93,5.93,0,0,0,5.92-5.92V208.92a5.93,5.93,0,0,0-5.92-5.92Z"/><path class="cls-1" d="M295.25,240.25h-49a5,5,0,0,1,0-10h49a5,5,0,0,1,0,10Z"/><path class="cls-1" d="M288,453H17a5,5,0,0,1-5-5V303.47a5,5,0,0,1,5-5H288a5,5,0,0,1,5,5V448A5,5,0,0,1,288,453Zm-95.5-10H283V308.47H22V443Z"/><path class="cls-1" d="M288,502H17a5,5,0,0,1-5-5V447.47a5,5,0,0,1,10,0V492H283V447.47a5,5,0,0,1,10,0V497A5,5,0,0,1,288,502Z"/><path class="cls-1" d="M242.27,380.73H194.84a5,5,0,0,1,0-10h47.43a5,5,0,0,1,0,10Z"/><path class="cls-1" d="M109.59,381.3H62.17a5,5,0,0,1,0-10h47.42a5,5,0,0,1,0,10Z"/><path class="cls-1" d="M112.56,434.93H62.17a5,5,0,0,1-5-5c0-12.28-10.12-22.66-22.1-22.66a5,5,0,0,1-5-5V348.63a5,5,0,0,1,5-5,22.4,22.4,0,0,0,22.1-22.1,5,5,0,0,1,5-5H112.5a5,5,0,0,1,0,10H66.76a32.78,32.78,0,0,1-26.69,26.7v44.43a32.48,32.48,0,0,1,26.72,27.27h45.77a5,5,0,0,1,0,10Z"/><path class="cls-1" d="M242.27,434.93H193.33a5,5,0,1,1,0-10h44.32a32.75,32.75,0,0,1,27.28-27.28V353.26a32.48,32.48,0,0,1-27.27-26.73H192.5a5,5,0,0,1,0-10h49.77a5,5,0,0,1,5,5c0,12,10.38,22.1,22.66,22.1a5,5,0,0,1,5,5v53.64a5,5,0,0,1-5,5,22.69,22.69,0,0,0-22.66,22.66A5,5,0,0,1,242.27,434.93Z"/><path class="cls-1" d="M288,477H192.81a5,5,0,1,1,0-10H288a5,5,0,0,1,0,10Z"/><path class="cls-1" d="M112.5,477H17a5,5,0,0,1,0-10h95.5a5,5,0,0,1,0,10Z"/><path class="cls-1" d="M232.56,405.56H192a5,5,0,1,1,0-10h40.56a5,5,0,0,1,0,10Z"/><path class="cls-1" d="M232.56,356.44H192a5,5,0,0,1,0-10h40.56a5,5,0,0,1,0,10Z"/><path class="cls-1" d="M112.56,405.56H72a5,5,0,0,1,0-10h40.56a5,5,0,0,1,0,10Z"/><path class="cls-1" d="M112.56,356.44H72a5,5,0,0,1,0-10h40.56a5,5,0,0,1,0,10Z"/><path class="cls-1" d="M114,502a5,5,0,0,1-5-5V304a5,5,0,0,1,10,0V497A5,5,0,0,1,114,502Z"/><path class="cls-1" d="M192,502a5,5,0,0,1-5-5V304a5,5,0,0,1,10,0V497A5,5,0,0,1,192,502Z"/><path class="cls-1" d="M270.75,250.5a5,5,0,0,1-5-5V225a5,5,0,0,1,10,0v20.5A5,5,0,0,1,270.75,250.5Z"/></svg>