<?xml version="1.0" ?><svg viewBox="0 0 512 512" xmlns="http://www.w3.org/2000/svg"><defs><style>.cls-1{fill:#3f456b;}</style></defs><title/><g id="Lines"><path class="cls-1" d="M397.33,349H115.21a5,5,0,0,1-5-5V167.84a5,5,0,0,1,5-5H397.33a5,5,0,0,1,5,5V344A5,5,0,0,1,397.33,349ZM120.21,339H392.33V172.84H120.21Z"/><path class="cls-1" d="M256.27,371a5,5,0,0,1-5-5V168a5,5,0,0,1,10,0V366A5,5,0,0,1,256.27,371Z"/><path class="cls-1" d="M356.05,260.23H301a5,5,0,0,1-5-5V167.84a5,5,0,0,1,10,0v82.39h45.05V167.84a5,5,0,1,1,10,0v87.39A5,5,0,0,1,356.05,260.23Z"/><path class="cls-1" d="M432.14,463.24c-14.39,0-23.88-7.31-24.21-18.74a5,5,0,1,1,10-.29c.25,8.32,10.31,9.08,14.65,9s8.33-1.68,10.46-4.15a6.71,6.71,0,0,0,1.58-5.56c-.3-2.27-1.31-4.8-9.6-6.15l-2.33-.36c-7.08-1.07-15.11-2.28-20.66-10.14A14.14,14.14,0,0,1,409.6,416,19.73,19.73,0,0,1,418,403.63c6.18-4.19,15.62-4.84,23.49-1.61a22.73,22.73,0,0,1,12.62,12.6,5,5,0,1,1-9.31,3.64,12.92,12.92,0,0,0-7.11-7c-4.74-1.94-10.66-1.68-14.07.64a9.88,9.88,0,0,0-4.21,5.84,4.2,4.2,0,0,0,.74,3.36c2.95,4.16,7.24,5,14,6,.81.12,1.63.24,2.44.38,4,.66,16.33,2.66,17.91,14.72a16.64,16.64,0,0,1-3.93,13.41c-4,4.66-10.73,7.51-17.89,7.6Z"/><path class="cls-1" d="M432.06,410a5,5,0,0,1-5-5V392.59a5,5,0,0,1,10,0V405A5,5,0,0,1,432.06,410Z"/><path class="cls-1" d="M432.06,475.85a5,5,0,0,1-5-5V458.49a5,5,0,0,1,10,0v12.36A5,5,0,0,1,432.06,475.85Z"/><path class="cls-1" d="M432.13,499a68.34,68.34,0,1,1,68.34-68.34h0A68.43,68.43,0,0,1,432.13,499Zm0-126.67a58.34,58.34,0,1,0,58.34,58.33A58.4,58.4,0,0,0,432.13,372.33Z"/><path class="cls-1" d="M328.2,499.58H185.8a5,5,0,0,1-5-5.49l9.5-94.94a5,5,0,0,1,5-4.5H319a5,5,0,0,1,5,4.51l2.08,21.06,3.26,34.43,3.86,39.45a5,5,0,0,1-5,5.48Zm-136.88-10H322.69l-3.32-34h0l-3.27-34.42-1.63-16.53H199.82Z"/><path class="cls-1" d="M224.07,428.38a5,5,0,0,1-5-5V399.05a38.08,38.08,0,0,1,76.16.05v24a5,5,0,0,1-10,0v-24a28.08,28.08,0,0,0-56.16-.05v24.33A5,5,0,0,1,224.07,428.38Z"/><g data-name="&lt;编组&gt;" id="_编组_"><g data-name="&lt;编组&gt;" id="_编组_2"><path class="cls-1" d="M88.7,498.53H72.5c-6.27,0-8.21-5.67-8.85-7.54a3.58,3.58,0,0,1-.16-.56L60.81,478l-10.66,6.92-.43.25c-5.89,3-9.6,1.19-11.68-.89L26.58,472.85c-4.44-4.44-1.79-9.83-.92-11.6a5,5,0,0,1,.29-.5l6.88-10.67-12.44-2.65-.47-.13c-6.31-2-7.64-5.94-7.64-8.88v-16.2c0-6.28,5.68-8.22,7.55-8.85a4.94,4.94,0,0,1,.55-.15l12.41-2.69-6.91-10.66c-.09-.14-.17-.28-.25-.43-3-5.88-1.2-9.59.87-11.67L38,376.3c4.45-4.43,9.83-1.79,11.6-.92.17.09.34.18.5.28l10.67,6.88,2.65-12.43c0-.15.08-.31.13-.47,2-6.31,5.94-7.64,8.88-7.64h16.2c6.27,0,8.21,5.67,8.85,7.54a3.58,3.58,0,0,1,.16.56l2.68,12.41,10.66-6.91.42-.25c5.89-3,9.61-1.2,11.69.88l11.46,11.46c4.44,4.43,1.79,9.81.92,11.59-.09.17-.18.34-.28.5l-6.88,10.67,12.43,2.65.48.13c6.31,2,7.63,5.95,7.63,8.88v16.2c0,6.27-5.68,8.21-7.54,8.85a3.58,3.58,0,0,1-.56.16L128.3,450l6.91,10.66c.09.14.17.28.25.42,3,5.9,1.2,9.61-.88,11.69l-11.45,11.46c-4.44,4.44-9.83,1.79-11.6.92-.17-.09-.34-.18-.5-.28L100.36,478l-2.65,12.43c0,.15-.08.31-.13.47C95.57,497.2,91.64,498.53,88.7,498.53Zm-15.3-10H87.81c0-.13.11-.28.17-.46l4.11-19.25a5,5,0,0,1,7.6-3.16l16.5,10.63.5.23,10.19-10.19a4.23,4.23,0,0,0-.21-.45L116,449.36a5,5,0,0,1,3.14-7.61l19.18-4.14c.21-.07.38-.14.52-.2V423l-.46-.17-19.25-4.11a5,5,0,0,1-3.16-7.6l10.63-16.5c.1-.2.17-.36.23-.5l-10.19-10.19-.45.2L99.64,394.84A5,5,0,0,1,92,391.7l-4.14-19.18c-.07-.21-.14-.38-.2-.52H73.28c0,.13-.11.28-.17.46L69,391.71a5,5,0,0,1-7.6,3.16L44.9,384.24l-.5-.23L34.21,394.2a4.23,4.23,0,0,0,.21.45l10.7,16.52A5,5,0,0,1,42,418.78l-19.19,4.15-.51.19v14.41l.46.17L42,441.82a5,5,0,0,1,3.16,7.6L34.52,465.91c-.1.2-.17.36-.23.5l10.19,10.2.45-.21,16.52-10.71a5,5,0,0,1,7.61,3.14L73.2,488C73.27,488.22,73.34,488.39,73.4,488.53Zm54-93.77h0Z"/></g></g><path class="cls-1" d="M80.33,454.64a24.46,24.46,0,1,1,24.45-24.45A24.48,24.48,0,0,1,80.33,454.64Zm0-38.91a14.46,14.46,0,1,0,14.45,14.46A14.47,14.47,0,0,0,80.33,415.73Z"/><path class="cls-1" d="M264,100.2H193a5,5,0,0,1-5-5V31a5,5,0,0,1,5-5h71a5,5,0,0,1,5,5V95.2A5,5,0,0,1,264,100.2Zm-66-10h61V36H198Z"/><path class="cls-1" d="M338,116.76H264a5,5,0,0,1-5-5V47.56a5,5,0,0,1,5-5h74a5,5,0,0,1,4.46,7.26L327.59,79.05l14.9,30.51a5,5,0,0,1-4.49,7.2Zm-69-10h61L317.51,81.19a5,5,0,0,1,0-4.46l12.31-24.17H269Z"/><path class="cls-1" d="M193,172a5,5,0,0,1-5-5V54a5,5,0,0,1,10,0V167A5,5,0,0,1,193,172Z"/><path class="cls-1" d="M441,212H398a5,5,0,0,1,0-10h38V149a5,5,0,0,1,10,0v58A5,5,0,0,1,441,212Z"/><path class="cls-1" d="M432,372a5,5,0,0,1-5-5V316H398a5,5,0,0,1,0-10h34a5,5,0,0,1,5,5v56A5,5,0,0,1,432,372Z"/><path class="cls-1" d="M115,212H81a5,5,0,0,1-5-5V133a5,5,0,0,1,10,0v69h29a5,5,0,0,1,0,10Z"/><path class="cls-1" d="M81,372a5,5,0,0,1-5-5V311a5,5,0,0,1,5-5h34a5,5,0,0,1,0,10H86v51A5,5,0,0,1,81,372Z"/><path class="cls-1" d="M97,149a5,5,0,0,1-2.83-.88L47.45,116H17a5,5,0,0,1-5-5V47a5,5,0,0,1,5-5H47.49L94.23,10.84A5,5,0,0,1,102,15V144a5,5,0,0,1-5,5ZM22,106H49a5,5,0,0,1,2.83.88L92,134.49V24.34L51.77,51.16A5,5,0,0,1,49,52H22Z"/><path class="cls-1" d="M48,116a5,5,0,0,1-5-5V47a5,5,0,0,1,10,0v64A5,5,0,0,1,48,116Z"/><path class="cls-1" d="M439,153A61.9,61.9,0,0,1,377.2,91.14V73.49L377.15,72a1.09,1.09,0,0,1,0-.18,61.81,61.81,0,1,1,123.62,0l0,1.69,0,17.58A61.91,61.91,0,0,1,439,153ZM387.14,71.78l.05,1.45a1.09,1.09,0,0,1,0,.18V91.14a51.81,51.81,0,1,0,103.61,0l-.05-19.23a51.81,51.81,0,1,0-103.62-.13Z"/><path class="cls-1" d="M402.57,73.88a110,110,0,0,1-21.27-2,5,5,0,1,1,2.1-9.77c.58.12,46,9.37,66.9-16.63a5,5,0,0,1,8.47,1.12c.41.92,10.7,23,35.35,15.64A5,5,0,1,1,497,71.86C475.17,78.4,460.45,67.2,453.25,57,442.84,66.72,428,72.44,409.89,73.64,407.36,73.81,404.9,73.88,402.57,73.88Z"/><path class="cls-1" d="M413.37,90.27h-.8a5,5,0,0,1,0-10h.8a5,5,0,0,1,0,10Z"/><path class="cls-1" d="M464.6,90.27h-.8a5,5,0,0,1,0-10h.8a5,5,0,0,1,0,10Z"/></g><g id="Outline"><path class="cls-1" d="M122.43,115a5,5,0,0,1-4.24-7.64c9.65-15.51,9.65-41.72,0-57.23a5,5,0,0,1,8.49-5.28c11.83,19,11.83,48.78,0,67.79A5,5,0,0,1,122.43,115Z"/><path class="cls-1" d="M143.77,133.19a5,5,0,0,1-4.24-7.65c16.06-25.82,16.06-67.85,0-93.67A5,5,0,0,1,148,26.58c17.88,28.74,17.88,75.51,0,104.25A5,5,0,0,1,143.77,133.19Z"/><path class="cls-1" d="M500,260h-1a5,5,0,0,1,0-10h1a5,5,0,0,1,0,10Zm-21,0h-1a5,5,0,0,1,0-10h1a5,5,0,0,1,0,10Zm-21,0h-1a5,5,0,0,1,0-10h1a5,5,0,0,1,0,10Zm-21,0h-1a5,5,0,0,1,0-10h1a5,5,0,0,1,0,10Zm-21,0h-1a5,5,0,0,1,0-10h1a5,5,0,0,1,0,10Z"/><path class="cls-1" d="M99,260H98a5,5,0,0,1,0-10h1a5,5,0,0,1,0,10Zm-21,0H77a5,5,0,0,1,0-10h1a5,5,0,0,1,0,10Zm-21,0H56a5,5,0,0,1,0-10h1a5,5,0,0,1,0,10Zm-21,0H35a5,5,0,0,1,0-10h1a5,5,0,0,1,0,10Zm-21,0H14a5,5,0,0,1,0-10h1a5,5,0,0,1,0,10Z"/><path class="cls-1" d="M215,293H154.48a5,5,0,0,1,0-10H215a5,5,0,0,1,0,10Z"/><path class="cls-1" d="M215,269H154.48a5,5,0,0,1,0-10H215a5,5,0,0,1,0,10Z"/><path class="cls-1" d="M215,317H154.48a5,5,0,0,1,0-10H215a5,5,0,0,1,0,10Z"/><path class="cls-1" d="M329,320.66a5,5,0,0,1-5-5V275a5,5,0,0,1,10,0v40.66A5,5,0,0,1,329,320.66Z"/><path class="cls-1" d="M348.25,299.38a4.94,4.94,0,0,1-3.53-1.46L329,282.17l-15.75,15.75a5,5,0,0,1-7.07-7.07l19.29-19.29a5,5,0,0,1,7.07,0l19.29,19.29a5,5,0,0,1-3.54,8.53Z"/></g></svg>