<?xml version="1.0" ?><svg viewBox="0 0 512 512" xmlns="http://www.w3.org/2000/svg"><defs><style>.cls-1{fill:#3f456b;}</style></defs><title/><g id="Lines"><path class="cls-1" d="M418,470H49c-11.06,0-20-3.34-26.45-9.94C11.87,449.22,12,433.58,12,432.92V225.5C12,201.43,18,169,46.33,151A71.89,71.89,0,0,1,81,140H386a71.88,71.88,0,0,1,34.67,11C449,169,455,201.43,455,225.5V433c0,.58.13,16.22-10.55,27.06C438,466.66,429.06,470,418,470ZM386,150H81c-2.36,0-59,1.62-59,75.5V433c0,.18,0,12.29,7.73,20.1,4.54,4.58,11,6.9,19.27,6.9H418c8.28,0,14.78-2.34,19.32-6.95,7.65-7.77,7.68-19.85,7.68-20V225.5C445,151.62,388.36,150,386,150Z"/><path class="cls-1" d="M82.61,500H61.25c-5.24,0-9.47-2.79-11.91-7.86a21.31,21.31,0,0,1-1.88-6.51l-3.39-19.79a5,5,0,0,1,9.86-1.69l3.42,20c0,.14,0,.28,0,.42S58,490,61.25,490H82.61c3.26,0,3.83-5.29,3.85-5.51s0-.27.05-.39l3.42-19.88a5,5,0,1,1,9.86,1.7L96.4,485.6C95.88,490.72,92.4,500,82.61,500Z"/><path class="cls-1" d="M402.9,500H381.54c-5.24,0-9.47-2.79-11.91-7.86a21.2,21.2,0,0,1-1.87-6.51l-3.4-19.79a5,5,0,0,1,9.86-1.69l3.42,20c0,.14,0,.28.05.42s.59,5.48,3.85,5.48H402.9c3.29,0,3.85-5.42,3.85-5.48s0-.28.05-.42l3.42-19.88a5,5,0,1,1,9.86,1.7l-3.39,19.68C416.18,490.72,412.69,500,402.9,500Z"/><path class="cls-1" d="M488.33,261H450a5,5,0,0,1,0-10h38.33c2,0,3.67-2.29,3.67-5V233c0-2.71-1.68-5-3.67-5H450a5,5,0,0,1,0-10h38.33c7.54,0,13.67,6.73,13.67,15v13C502,254.27,495.87,261,488.33,261Z"/><path class="cls-1" d="M369,148a5,5,0,0,1-5-5V116.65a5,5,0,0,1,4.83-5c16.85-.58,33.3-3.62,33.3-33.12C402.13,48,358,35,357.52,34.9c-.18,0-.37-.12-.55-.19C356.62,34.56,320.15,20,232.9,20c-99,0-134.69,16.08-135,16.24a4.59,4.59,0,0,1-.7.27c-.37.1-37.41,11.44-37.41,42,0,29.5,16.51,32.54,33.42,33.12a5,5,0,0,1,4.83,5V143a5,5,0,0,1-10,0V121.42c-14.35-.94-38.25-5.85-38.25-42.89C49.75,41.78,89.52,28.4,94,27c4.2-1.85,41.79-17,138.9-17,86.54,0,123.79,13.84,127.62,15.36,4.51,1.32,51.61,16.06,51.61,53.17s-23.82,42-38.13,42.89V143A5,5,0,0,1,369,148Z"/><path class="cls-1" d="M80.72,425.21h-.3c-19.31-.14-29-12.91-29.39-13.45a5,5,0,0,1,8-6c.33.43,7.34,9.33,21.46,9.43a32.2,32.2,0,0,0,12.88-2.6,42.4,42.4,0,0,1-6.8-8.92c-5.66-9.78-5.68-19.46,0-26.56,5.25-6.62,14.79-9.67,22.67-7.26,6.64,2,11,7.6,11.52,14.91A35.67,35.67,0,0,1,111.3,412a28.09,28.09,0,0,0,5.45,1c9.89.8,18.7-3.21,22-5,15.36-8.12,32.41-7.51,43.43,1.54a5,5,0,0,1-6.35,7.73c-7.77-6.39-20.8-6.56-32.4-.43-12.71,6.72-28.22,8.78-41,2.29A42.72,42.72,0,0,1,80.72,425.21ZM103.56,379a12.15,12.15,0,0,0-9.19,4.31c-3,3.81-2.73,9.11.87,15.33a31.65,31.65,0,0,0,6.86,8.41c.61-.55,1.2-1.13,1.76-1.73a25.45,25.45,0,0,0,6.9-19.8c-.26-3.28-1.72-5.29-4.47-6.13A9.48,9.48,0,0,0,103.56,379Z"/><path class="cls-1" d="M386.41,443.1a41.31,41.31,0,1,1,41.3-41.31A41.35,41.35,0,0,1,386.41,443.1Zm0-72.62a31.31,31.31,0,1,0,31.3,31.31A31.34,31.34,0,0,0,386.41,370.48Z"/></g><g id="Outline"><path class="cls-1" d="M331,406.79a5,5,0,0,1-5-5,60.45,60.45,0,0,1,60.38-60.38,5,5,0,0,1,0,10A50.44,50.44,0,0,0,336,401.79,5,5,0,0,1,331,406.79Z"/><path class="cls-1" d="M407,353.06a4,4,0,0,1-.6,0l-1-.12A5,5,0,1,1,406.6,343l1,.12a5,5,0,0,1-.59,10Z"/><path class="cls-1" d="M125.1,79A5,5,0,0,1,129,73.1h0A5,5,0,0,1,134.9,77h0A5,5,0,0,1,131,82.9h0a4.73,4.73,0,0,1-1,.1h0A5,5,0,0,1,125.1,79Zm203.19,3.45a5,5,0,0,1-4.09-5.78h0A5,5,0,0,1,330,72.57h0a5,5,0,0,1,4.08,5.77h0a5,5,0,0,1-4.92,4.16h0A4.88,4.88,0,0,1,328.29,82.43ZM144.82,75.54a5,5,0,0,1,4.29-5.61h0a5,5,0,0,1,5.62,4.29h0a5,5,0,0,1-4.29,5.62h0a5.12,5.12,0,0,1-.67,0h0A5,5,0,0,1,144.82,75.54ZM308.7,79.46h0a5,5,0,0,1-4.3-5.61h0a5,5,0,0,1,5.62-4.3h0a5,5,0,0,1,4.3,5.61h0a5,5,0,0,1-5,4.35h0A5.07,5.07,0,0,1,308.7,79.46Zm-144-6.38a5,5,0,0,1,4.49-5.47h0a5,5,0,0,1,5.47,4.49h0a5,5,0,0,1-4.49,5.47h0a4.19,4.19,0,0,1-.5,0h0A5,5,0,0,1,164.67,73.08ZM289,77.22h0a5,5,0,0,1-4.51-5.46h0a5,5,0,0,1,5.46-4.5h0a5,5,0,0,1,4.5,5.45h0a5,5,0,0,1-5,4.53h0ZM184.6,71.29A5,5,0,0,1,189.26,66h0a5,5,0,0,1,5.32,4.66h0A5,5,0,0,1,189.92,76h-.33A5,5,0,0,1,184.6,71.29Zm84.65,4.38a5,5,0,0,1-4.69-5.29h0a5,5,0,0,1,5.29-4.69h0a5,5,0,0,1,4.69,5.3h0a5,5,0,0,1-5,4.69h-.31Zm-64.68-5.54A5,5,0,0,1,209.4,65h0a5,5,0,0,1,5.17,4.83h0A5,5,0,0,1,209.75,75h-.18A5,5,0,0,1,204.57,70.13Zm44.86,4.67a5,5,0,0,1-4.86-5.14h0a5,5,0,0,1,5.14-4.86h0a5,5,0,0,1,4.86,5.14h0a5,5,0,0,1-5,4.86h-.14Zm-24.86-5.22a5,5,0,0,1,5-5h0a5,5,0,0,1,5,5h0a5,5,0,0,1-5,5h0A5,5,0,0,1,224.57,69.58Z"/></g></svg>