<?xml version="1.0" ?><svg viewBox="0 0 512 512" xmlns="http://www.w3.org/2000/svg"><defs><style>.cls-1{fill:#3f456b;}</style></defs><title/><g id="Lines"><path class="cls-1" d="M411,470.12a76.79,76.79,0,0,1-74.79-58.64,5,5,0,1,1,9.71-2.37A67,67,0,1,0,467,356.29a5,5,0,1,1,8.34-5.51A77,77,0,0,1,411,470.12Z"/><path class="cls-1" d="M411,438.12a45.05,45.05,0,0,1-45-45,57,57,0,0,1,1.23-12,5,5,0,1,1,9.71,2.37,47.57,47.57,0,0,0-.94,9.65,35,35,0,0,0,70,0c0-17.32-12.67-32.05-30.14-35a5,5,0,1,1,1.68-9.86C439.83,352,456,370.91,456,393.12A45,45,0,0,1,411,438.12Z"/><path class="cls-1" d="M106.94,470.12C65.2,470.12,31.4,438,30,396.93a5,5,0,1,1,10-.34c1.23,35.62,30.64,63.53,67,63.53s65.67-28,67-63.73a5,5,0,0,1,10,.36C182.41,437.89,148.61,470.12,106.94,470.12Z"/><path class="cls-1" d="M106.94,438.12a45.18,45.18,0,0,1-44.87-41.56,5,5,0,0,1,10-.75,35,35,0,0,0,69.8,0,5,5,0,1,1,10,.75A45.18,45.18,0,0,1,106.94,438.12Z"/><path class="cls-1" d="M311.11,420.8a5,5,0,0,1-5-5c0-36.7,9.08-86.25,52.31-113.92C384.31,285.31,410,284.66,411,284.64h.21c60.35,0,86.51,33.27,88.84,54.28.87,7.82-.62,13.44-4.41,16.7a11.91,11.91,0,0,1-9.72,2.52H427.44l-.54,0a66.21,66.21,0,0,0-20.14,1.66c-13.77,3.33-23.47,10.68-28.83,21.85C376.55,385,360.84,420.8,311.11,420.8ZM411.33,294.64h-.21a102.17,102.17,0,0,0-47.69,15.91c-30.3,19.59-46.19,53.25-47.26,100.11,40.25-2.36,52.39-32.53,52.51-32.85a2.63,2.63,0,0,1,.15-.35c15.47-32.5,54.75-29.71,58.86-29.32h58.75a3.38,3.38,0,0,1,1.24.15,2.06,2.06,0,0,0,1.5-.28c.77-.7,1.49-3.22,1-8C488.83,328.24,471.54,294.64,411.33,294.64Z"/><path class="cls-1" d="M268.09,342.67l-2,0H223.54c-2,.07-20.84.36-34.83-13-9.76-9.31-14.69-22.8-14.65-40.09V264.64a5,5,0,0,1,10,0v24.92c0,14.45,3.85,25.5,11.55,32.85C207,333.3,223,332.65,223.2,332.64h43.15c12.85.39,23.25-3.54,31.78-12.06,24-24,23.38-75.45,23.32-78.64-.17-1.89-.81-12.59,5.76-20,4-4.5,9.68-6.8,16.83-6.83,2.87-.18,9.28-1.46,11.4-4.38.49-.69,1.08-1.88.42-4.33-3.69-13.81-4.94-18.33-5-18.38a5,5,0,1,1,9.64-2.66s1.27,4.59,5,18.45c1.63,6.08-.19,10.32-2,12.82-5.53,7.59-17.7,8.4-19.07,8.47h-.25c-4.31,0-7.42,1.14-9.51,3.48-4.06,4.56-3.28,12.36-3.27,12.44a3,3,0,0,1,0,.42c.07,2.38,1.46,58.5-26.24,86.18C295.22,337.62,282.75,342.67,268.09,342.67Z"/><path class="cls-1" d="M61.43,272.29c-3.69,0-8-.57-11.3-3.68-2.78-2.64-4.19-6.51-4.19-11.52V236.64a15,15,0,0,1,15-15h140a15,15,0,0,1,15,15v20.45c0,4.64-1.36,8.31-4,10.93-4.48,4.36-11,4.2-15.35,4.1A14.53,14.53,0,0,1,194,272h0c-.25-.05-24.57-4.9-63.51-4.9S68.21,271.93,68,272a5.17,5.17,0,0,1-1,.11c-.65,0-1.38,0-2.16.09C63.77,272.23,62.63,272.29,61.43,272.29Zm-.49-40.65a5,5,0,0,0-5,5v20.45c0,2.09.38,3.6,1.07,4.25,1.24,1.18,4.7,1,7.22.85.76,0,1.48-.08,2.18-.09,3.73-.75,26.68-5,64-5s61.23,4.28,65,5l1.35,0c2.65.07,6.66.17,8.12-1.26.85-.83,1-2.51,1-3.77V236.64a5,5,0,0,0-5-5Z"/><path class="cls-1" d="M18.94,401.19a5,5,0,0,1-4.9-4,115.57,115.57,0,0,1,1.91-46c5.49-22.06,20.53-51,60.84-65.64V264.64a5,5,0,0,1,10,0v24.5a5,5,0,0,1-3.44,4.74C52.52,304.05,33.13,324,25.74,353.28a109.34,109.34,0,0,0-2.46,37.91c31.54,0,224.79,0,257.16-.05,28.24-.05,31.82-23.68,32-24.69a5,5,0,0,1,9.92,1.3,41.23,41.23,0,0,1-6.87,16.72c-5.32,7.59-15.7,16.63-35,16.67C245.35,401.19,21.2,401.19,18.94,401.19Z"/><path class="cls-1" d="M320.21,200a15.18,15.18,0,0,1-8-2.28,14.62,14.62,0,0,1-6.62-9.28h0c-1-4.31-2.66-7.13-5-8.38-3.41-1.81-7.69-.14-7.73-.13l-.12,0A172.55,172.55,0,0,0,274.82,188c-9.13,4.93-16.33.57-18.94-3.57a97.92,97.92,0,0,1-6.94-14.72c-3.82-10.06,5.61-17.06,11.36-19.47,19.87-10.67,46.42-19.73,78.9-26.92,22.89-5.06,40.35-7.3,42.79-7.6a15,15,0,0,1,17.79,11.13l8.87,36.78a15,15,0,0,1-11.07,18.1L323.7,199.58A14.68,14.68,0,0,1,320.21,200Zm-23.35-30.79a17.86,17.86,0,0,1,8.24,1.94c5.14,2.66,8.59,7.74,10.24,15.1h0a4.74,4.74,0,0,0,2.15,3,5,5,0,0,0,3.87.63l73.88-17.81a5,5,0,0,0,3.69-6l-8.87-36.78a5,5,0,0,0-6-3.69,5.4,5.4,0,0,1-.58.1c-.72.09-73,9-118.63,33.55q-.26.13-.51.24c-.05,0-7.37,3.22-6,6.75a92,92,0,0,0,6,12.89c.68.89,2.31,2,5.76.16a180.24,180.24,0,0,1,19-8.59A21.82,21.82,0,0,1,296.86,169.21Z"/><path class="cls-1" d="M418.94,294.56a5,5,0,0,1-5-4.84C412,230.78,382.49,182.43,382.19,182a5,5,0,0,1,8.5-5.27c1.28,2,31.23,51,33.25,112.72a5,5,0,0,1-4.83,5.16Z"/><path class="cls-1" d="M254.77,342.67a5,5,0,0,1-.73-9.95c16-2.37,28.44-14.29,37.13-35.44,8.29-20.16,10.35-42.46,10.79-48.82.55-8.16,3.43-14.54,8.56-19,7.92-6.81,18.24-6.06,18.67-6a5,5,0,0,1-.78,10,18.86,18.86,0,0,0-8.24,1.64c-5.06,2.37-7.75,7-8.24,14.06-1,14.36-8.3,86.33-56.42,93.47A4.62,4.62,0,0,1,254.77,342.67Z"/><path class="cls-1" d="M18.94,401.2a5.07,5.07,0,0,1-1.52-.24,5,5,0,0,1-3.24-6.28,144.76,144.76,0,0,1,23.57-42.14c22.25-27.74,51.76-42.4,85.36-42.4,26,0,45.77,7.69,58.85,22.88,21.81,25.29,16.66,61.81,16.43,63.35a5,5,0,0,1-9.89-1.47c.05-.33,4.67-33.63-14.15-55.4-11.11-12.85-28.35-19.36-51.24-19.36-30.89,0-57,13-77.56,38.65a136.32,136.32,0,0,0-21.84,38.92A5,5,0,0,1,18.94,401.2Z"/><path class="cls-1" d="M254.87,422.39H175.06a5,5,0,0,1,0-10h79.86c.27,0,6.68-.05,10.91-4.22,2.73-2.7,4.11-6.73,4.11-12a5,5,0,0,1,10,0c0,8.09-2.42,14.55-7.19,19.19C265.87,422.09,256.47,422.39,254.87,422.39Z"/><path class="cls-1" d="M81.79,294.14a5,5,0,0,1-1.92-9.62c.67-.28,16.94-6.88,48.57-6.88a5,5,0,0,1,0,10c-29.66,0-44.59,6.05-44.74,6.11A4.94,4.94,0,0,1,81.79,294.14Z"/><path class="cls-1" d="M30.19,332a5,5,0,0,1-3.86-1.82A28.87,28.87,0,0,1,69,291.42,5,5,0,1,1,62,298.49,18.88,18.88,0,0,0,34,323.84,5,5,0,0,1,30.19,332Z"/><path class="cls-1" d="M404.36,174a5,5,0,0,1-1.42-9.79,18.88,18.88,0,0,0-9-36.63,5,5,0,0,1-1.91-9.81,28.88,28.88,0,0,1,13.72,56A5,5,0,0,1,404.36,174Z"/><path class="cls-1" d="M333.11,108.8a5,5,0,0,1-2.4-.61,5,5,0,0,1-2.47-3.22l-13.3-55.64a5,5,0,0,1,3.67-6,31.75,31.75,0,0,1,38.31,22.26,35.45,35.45,0,0,1-22.17,43A4.88,4.88,0,0,1,333.11,108.8ZM326,52.36l10.58,44.26a25.24,25.24,0,0,0,8.87-9.8,24.94,24.94,0,0,0,1.91-18.46,21.91,21.91,0,0,0-11-13.59A21.23,21.23,0,0,0,326,52.36Z"/><path class="cls-1" d="M297.09,179.23a5,5,0,0,1-4.88-4c-2.21-10.41-10.59-28.93-10.67-29.12a5,5,0,1,1,9.1-4.13c.37.8,8.92,19.7,11.35,31.18a5,5,0,0,1-3.86,5.92A4.54,4.54,0,0,1,297.09,179.23Z"/><path class="cls-1" d="M383.77,182.64a5,5,0,0,1-4.86-3.87l-12.84-55.23a5,5,0,1,1,9.74-2.26l12.84,55.22a5,5,0,0,1-3.74,6A5.54,5.54,0,0,1,383.77,182.64Z"/><path class="cls-1" d="M394.32,129.61a5,5,0,0,1-4.87-3.92c-.07-.32-7.19-32.41-10.56-47.88-.75-3.43-2.1-5.73-4-6.81-2.81-1.59-6.47-.49-6.51-.47a5.62,5.62,0,0,1-.55.15l-14.13,3.08A5,5,0,0,1,351.53,64l13.9-3c1.66-.51,8.19-2.13,14.33,1.32,4.53,2.55,7.52,7.06,8.9,13.4,3.37,15.45,10.48,47.53,10.55,47.85a5,5,0,0,1-3.8,6A5.06,5.06,0,0,1,394.32,129.61Z"/><path class="cls-1" d="M411.12,417.4a23.76,23.76,0,1,1,23.76-23.76A23.79,23.79,0,0,1,411.12,417.4Zm0-37.52a13.76,13.76,0,1,0,13.76,13.76A13.77,13.77,0,0,0,411.12,379.88Z"/><path class="cls-1" d="M107.06,418.4c-13.77,0-23.76-9.16-23.76-21.77a5,5,0,0,1,10,0c0,8.13,6.91,11.77,13.76,11.77s13.76-3.64,13.76-11.77a5,5,0,0,1,10,0C130.82,409.24,120.83,418.4,107.06,418.4Z"/><path class="cls-1" d="M412,398.64h-1a5,5,0,0,1,0-10h1a5,5,0,0,1,0,10Z"/></g><g id="Outline"><path class="cls-1" d="M390.38,466.28a5.24,5.24,0,0,1-1.45-.21,5,5,0,0,1-3.34-6.23L388.86,449a5,5,0,0,1,9.57,2.89l-3.26,10.82A5,5,0,0,1,390.38,466.28Z"/><path class="cls-1" d="M480,418.39a5,5,0,0,1-1.42-.21l-10.09-3a5,5,0,1,1,2.84-9.58l10.08,3a5,5,0,0,1-1.41,9.8Z"/><path class="cls-1" d="M445.2,460.71a5,5,0,0,1-4.4-2.61l-5.29-9.71a5,5,0,1,1,8.78-4.78l5.29,9.71a5,5,0,0,1-4.38,7.39Z"/><path class="cls-1" d="M347.65,431.83a5,5,0,0,1-2.36-9.41l9.8-5.24a5,5,0,1,1,4.72,8.82L350,431.23A4.86,4.86,0,0,1,347.65,431.83Z"/><path class="cls-1" d="M465.64,368.76a5,5,0,0,1-2.36-9.41l8.72-4.66a5,5,0,1,1,4.72,8.82L468,368.17A5,5,0,0,1,465.64,368.76Z"/><path class="cls-1" d="M365.55,453.26a4.94,4.94,0,0,1-3.17-1.14,5,5,0,0,1-.69-7l7.14-8.68a5,5,0,1,1,7.73,6.35l-7.14,8.68A5,5,0,0,1,365.55,453.26Z"/><path class="cls-1" d="M466.83,443a5,5,0,0,1-3.13-1.1l-8.41-6.78a5,5,0,0,1,6.28-7.79l8.4,6.78a5,5,0,0,1-3.14,8.89Z"/><path class="cls-1" d="M418.34,468.9a5,5,0,0,1-5-4.49l-1.15-11.15a5,5,0,1,1,9.95-1l1.15,11.15a5,5,0,0,1-4.46,5.49A4.53,4.53,0,0,1,418.34,468.9Z"/><path class="cls-1" d="M472.49,391.71a5,5,0,0,1-.5-10l10.13-1a5,5,0,1,1,1,10l-10.13,1A4.35,4.35,0,0,1,472.49,391.71Z"/><path class="cls-1" d="M79.66,462.37a5,5,0,0,1-4.59-7L79.55,445a5,5,0,0,1,9.18,4l-4.48,10.37A5,5,0,0,1,79.66,462.37Z"/><path class="cls-1" d="M174.16,425.06a4.84,4.84,0,0,1-1.95-.41l-9.68-4.12a5,5,0,1,1,3.92-9.2l9.67,4.13a5,5,0,0,1-2,9.6Z"/><path class="cls-1" d="M134.76,463.11a5,5,0,0,1-4.64-3.12L126,449.74a5,5,0,0,1,9.27-3.75l4.14,10.25a5,5,0,0,1-2.76,6.51A4.93,4.93,0,0,1,134.76,463.11Z"/><path class="cls-1" d="M41.16,423.24a5,5,0,0,1-1.84-9.65l10.34-4.08a5,5,0,1,1,3.67,9.3L43,422.89A5,5,0,0,1,41.16,423.24Z"/><path class="cls-1" d="M56.49,446.59A5,5,0,0,1,53,438l8.09-7.81a5,5,0,1,1,6.94,7.19L60,445.18A5,5,0,0,1,56.49,446.59Z"/><path class="cls-1" d="M158.29,448a5,5,0,0,1-3.57-1.49l-7.57-7.7a5,5,0,1,1,7.12-7l7.58,7.7a5,5,0,0,1-3.56,8.5Z"/><path class="cls-1" d="M107.15,468.17h-.06a5,5,0,0,1-4.94-5.06l.13-11.2a5,5,0,1,1,10,.11l-.13,11.21A5,5,0,0,1,107.15,468.17Z"/><path class="cls-1" d="M146.06,372.14H87.3a5,5,0,0,1,0-10h58.76a5,5,0,1,1,0,10Z"/><path class="cls-1" d="M135.69,350.8h-38a5,5,0,0,1,0-10h38a5,5,0,0,1,0,10Z"/></g></svg>