<?xml version="1.0" encoding="iso-8859-1"?>
<!-- Generator: Adobe Illustrator 19.0.0, SVG Export Plug-In . SVG Version: 6.00 Build 0)  -->
<svg version="1.1" id="Capa_1" xmlns="http://www.w3.org/2000/svg" xmlns:xlink="http://www.w3.org/1999/xlink" x="0px" y="0px"
	 viewBox="0 0 512.039 512.039" style="enable-background:new 0 0 512.039 512.039;" xml:space="preserve">
<g>
	<g>
		<path d="M505.404,358.313c-0.96-2.795-3.029-5.077-5.739-6.293c-2.709-1.216-5.803-1.237-8.533-0.085
			c-5.013,2.155-10.667,0.427-13.312-4.139c-2.624-4.565-1.323-10.283,3.093-13.611c2.389-1.792,3.904-4.48,4.203-7.445
			c0.299-2.944-0.64-5.909-2.603-8.128c-17.408-19.776-39.829-32.875-64.832-37.845c-2.944-0.64-6.016,0.085-8.427,1.877
			c-2.432,1.771-3.968,4.501-4.288,7.488c-0.555,5.525-4.992,9.664-10.283,9.664c-5.291,0-9.728-4.16-10.283-9.664
			c-0.32-2.987-1.877-5.717-4.288-7.488c-2.411-1.792-5.504-2.496-8.427-1.877c-25.003,4.949-47.424,18.048-64.832,37.845
			c-1.963,2.24-2.901,5.184-2.603,8.128c0.299,2.965,1.835,5.675,4.203,7.445c4.437,3.328,5.739,9.045,3.093,13.611
			c-2.645,4.565-8.256,6.315-13.312,4.139c-2.752-1.173-5.845-1.152-8.533,0.085c-2.709,1.195-4.779,3.477-5.739,6.293
			c-4.459,13.141-6.635,25.408-6.635,37.461s2.176,24.32,6.635,37.461c0.96,2.795,3.029,5.077,5.739,6.293
			c2.709,1.216,5.803,1.237,8.533,0.085c5.077-2.133,10.688-0.405,13.312,4.139c2.624,4.565,1.323,10.283-3.093,13.611
			c-2.389,1.792-3.904,4.48-4.203,7.445c-0.299,2.944,0.64,5.909,2.603,8.128c17.408,19.776,39.829,32.875,64.832,37.845
			c2.923,0.597,5.995-0.107,8.427-1.877s3.968-4.501,4.288-7.488c0.555-5.525,4.992-9.664,10.283-9.664
			c5.291,0,9.728,4.16,10.283,9.664c0.32,2.987,1.877,5.717,4.288,7.488c1.856,1.365,4.075,2.091,6.336,2.091
			c0.704,0,1.387-0.064,2.091-0.213c25.003-4.949,47.424-18.048,64.832-37.845c1.963-2.24,2.901-5.184,2.603-8.128
			c-0.299-2.965-1.835-5.675-4.203-7.445c-4.437-3.328-5.739-9.045-3.093-13.611c2.645-4.544,8.277-6.293,13.312-4.139
			c2.731,1.152,5.845,1.131,8.533-0.085c2.709-1.195,4.779-3.477,5.739-6.293c4.459-13.141,6.635-25.408,6.635-37.461
			S509.863,371.433,505.404,358.313z M487.847,417.449c-11.861-0.597-22.549,5.397-28.501,15.68
			c-5.931,10.261-5.355,22.741,0.661,32.469c-10.816,10.24-23.488,17.685-37.291,21.952c-5.333-10.261-15.936-17.109-28.032-17.109
			c-12.096,0-22.699,6.848-28.032,17.109c-13.824-4.245-26.475-11.712-37.291-21.952c6.016-9.707,6.592-22.187,0.661-32.469
			c-5.952-10.304-16.96-16.256-28.501-15.68c-1.899-7.552-2.837-14.677-2.837-21.675c0-6.976,0.939-14.123,2.837-21.653
			c11.499,0.149,22.549-5.397,28.501-15.68c5.931-10.261,5.355-22.741-0.661-32.469c10.816-10.24,23.488-17.685,37.291-21.952
			c5.333,10.261,15.936,17.109,28.032,17.109c12.096,0,22.699-6.848,28.032-17.109c13.824,4.245,26.475,11.712,37.291,21.952
			c-6.016,9.707-6.592,22.187-0.661,32.469c5.931,10.304,16.64,15.851,28.501,15.68c1.899,7.552,2.837,14.699,2.837,21.653
			C490.684,402.771,489.745,409.897,487.847,417.449z"/>
	</g>
</g>
<g>
	<g>
		<path d="M394.684,342.441c-29.397,0-53.333,23.936-53.333,53.333s23.936,53.333,53.333,53.333s53.333-23.936,53.333-53.333
			S424.081,342.441,394.684,342.441z M394.684,427.774c-17.643,0-32-14.357-32-32s14.357-32,32-32s32,14.357,32,32
			C426.684,413.395,412.327,427.774,394.684,427.774z"/>
	</g>
</g>
<g>
	<g>
		<path d="M494.524,274.473L447.847,9.918c-1.003-5.76-6.464-9.685-12.245-8.661L301.841,23.55L32.892,1.107
			c-2.88-0.341-5.717,0.704-7.893,2.581c-2.176,1.92-3.499,4.587-3.648,7.467l-21.333,384c-0.32,5.653,3.84,10.581,9.472,11.2
			l93.205,10.368l4.16,23.552c0.917,5.163,5.419,8.811,10.496,8.811c0.576,0,1.152-0.043,1.707-0.149l129.664-21.611
			c5.803-0.96,9.728-6.464,8.768-12.267c-0.96-5.781-6.485-9.792-12.267-8.747l-119.232,19.861L65.703,84.521l362.965-60.48
			l44.864,254.144c1.003,5.803,6.507,9.728,12.352,8.64C491.687,285.801,495.548,280.275,494.524,274.473z M51.601,65.257
			c-2.816,0.469-5.312,2.069-6.955,4.352c-1.643,2.325-2.283,5.227-1.792,8l55.979,317.205l-76.928-8.533l20.16-362.987
			l174.123,14.507L51.601,65.257z"/>
	</g>
</g>
<g>
</g>
<g>
</g>
<g>
</g>
<g>
</g>
<g>
</g>
<g>
</g>
<g>
</g>
<g>
</g>
<g>
</g>
<g>
</g>
<g>
</g>
<g>
</g>
<g>
</g>
<g>
</g>
<g>
</g>
</svg>
