<?xml version="1.0" ?><svg enable-background="new 0 0 512 512" version="1.1" viewBox="0 0 512 512" xml:space="preserve" xmlns="http://www.w3.org/2000/svg" xmlns:xlink="http://www.w3.org/1999/xlink"><g id="Colors"><g><g><g><path d="M411.292,468.354c-0.579,0-1.167-0.101-1.742-0.315c-2.588-0.962-3.907-3.84-2.944-6.429l25.052-67.392      h-40.449c-2.761,0-5-2.239-5-5s2.239-5,5-5h47.642c1.637,0,3.171,0.802,4.105,2.146c0.935,1.345,1.152,3.062,0.581,4.596      l-27.559,74.134C415.23,467.108,413.321,468.353,411.292,468.354z" fill="#3F456B"/></g></g><g><g><g><g><path d="M256.99,471.961c-0.624,0-1.25-0.019-1.879-0.057c-7.527-0.456-14.459-3.605-19.518-8.869        c-5.166-5.375-7.771-12.294-7.334-19.484c0.434-7.188,3.854-13.743,9.632-18.456c5.657-4.614,12.913-6.909,20.447-6.449        c7.526,0.455,14.458,3.604,19.517,8.869c5.165,5.375,7.77,12.293,7.335,19.483l0,0c-0.435,7.191-3.855,13.746-9.631,18.458        C270.373,469.685,263.841,471.961,256.99,471.961z M256.462,428.589c-4.55,0-8.86,1.489-12.251,4.255        c-3.586,2.925-5.707,6.942-5.971,11.311c-0.265,4.37,1.355,8.614,4.563,11.951c3.313,3.448,7.899,5.514,12.913,5.817        c5.011,0.298,9.816-1.194,13.521-4.216c3.586-2.925,5.706-6.942,5.971-11.312c0.264-4.369-1.356-8.613-4.563-11.95        c-3.313-3.448-7.899-5.514-12.911-5.817C257.308,428.602,256.884,428.589,256.462,428.589z M280.198,446.696h0.01H280.198z" fill="#3F456B"/></g></g></g><g><g><g><path d="M232.85,449.871c-2.54,0-4.714-1.927-4.97-4.507c-0.838-8.453-0.948-13.924-1.055-19.215l-0.021-1.06        c-0.214-10.087-0.538-25.333,8.577-35.32c5.138-5.635,14.485-9.227,22.725-8.725c14.412,0.871,24.285,8.83,27.086,21.836        c0.582,2.699-1.135,5.359-3.835,5.94c-2.701,0.583-5.359-1.136-5.94-3.835c-1.839-8.536-8.034-13.363-17.915-13.96        c-5.165-0.312-11.645,2.096-14.733,5.483c-6.42,7.034-6.158,19.366-5.967,28.371l0.021,1.067        c0.103,5.098,0.209,10.369,1.008,18.431c0.272,2.748-1.734,5.196-4.482,5.469C233.182,449.863,233.015,449.871,232.85,449.871        z" fill="#3F456B"/></g></g></g></g><g><g><path d="M95.662,470.544c-7.815,0-16.381-2.8-25.013-8.401c-2.316-1.503-2.975-4.6-1.472-6.917      c1.503-2.315,4.599-2.975,6.917-1.472c18.1,11.748,28.461,5.848,33.027,1.287c6.852-6.846,8.803-18.552,4.262-25.563      c-8.981-13.863-36.817-6.013-37.096-5.929c-1.517,0.453-3.156,0.161-4.423-0.785c-1.267-0.947-2.012-2.438-2.007-4.019      l0.083-31.578c0.007-2.757,2.245-4.987,5-4.987c0.005,0,0.009,0,0.014,0l42.097,0.109c2.761,0.007,4.994,2.251,4.987,5.013      c-0.007,2.757-2.245,4.987-5,4.987c-0.005,0-0.009,0-0.014,0l-37.097-0.096l-0.054,20.286      c10.762-1.974,32.08-3.603,41.903,11.562c7.045,10.877,4.539,27.958-5.587,38.075      C110.564,467.734,103.489,470.544,95.662,470.544z" fill="#3F456B"/></g></g><g><g><path d="M176.497,502c-2.761,0-5-2.239-5-5V18c0-2.761,2.239-5,5-5s5,2.239,5,5v479      C181.497,499.761,179.258,502,176.497,502z" fill="#3F456B"/></g></g><g><g><path d="M335.197,502c-2.761,0-5-2.239-5-5V18c0-2.761,2.239-5,5-5s5,2.239,5,5v479      C340.197,499.761,337.958,502,335.197,502z" fill="#3F456B"/></g></g><g><g><path d="M495,213H20c-2.761,0-5-2.239-5-5s2.239-5,5-5h475c2.761,0,5,2.239,5,5S497.761,213,495,213z" fill="#3F456B"/></g></g><g><g><path d="M495,357H20c-2.761,0-5-2.239-5-5s2.239-5,5-5h475c2.761,0,5,2.239,5,5S497.761,357,495,357z" fill="#3F456B"/></g></g></g></g><g id="Lines"><g><g><path d="M496,502H17.106c-2.761,0-5-2.239-5-5V17c0-2.761,2.239-5,5-5H496c2.761,0,5,2.239,5,5v480     C501,499.761,498.761,502,496,502z M22.106,492H491V22H22.106V492z" fill="#3F456B"/></g></g><g><g><path d="M272,341h-32c-2.761,0-5-2.239-5-5V224c0-2.761,2.239-5,5-5h32c2.761,0,5,2.239,5,5v112     C277,338.761,274.761,341,272,341z M245,331h22V229h-22V331z" fill="#3F456B"/></g></g><g><g><path d="M304,285h-32c-2.761,0-5-2.239-5-5v-56c0-2.761,2.239-5,5-5h32c2.761,0,5,2.239,5,5v56     C309,282.761,306.761,285,304,285z M277,275h22v-46h-22V275z" fill="#3F456B"/></g></g><g><g><path d="M240,341h-32c-2.761,0-5-2.239-5-5v-56c0-2.761,2.239-5,5-5h32c2.761,0,5,2.239,5,5v56     C245,338.761,242.761,341,240,341z M213,331h22v-46h-22V331z" fill="#3F456B"/></g></g><g><g><path d="M433,341h-32c-2.761,0-5-2.239-5-5V224c0-2.761,2.239-5,5-5h32c2.761,0,5,2.239,5,5v112     C438,338.761,435.761,341,433,341z M406,331h22V229h-22V331z" fill="#3F456B"/></g></g><g><g><path d="M465,285h-32c-2.761,0-5-2.239-5-5v-56c0-2.761,2.239-5,5-5h32c2.761,0,5,2.239,5,5v56     C470,282.761,467.761,285,465,285z M438,275h22v-46h-22V275z" fill="#3F456B"/></g></g><g><g><path d="M401,341h-32c-2.761,0-5-2.239-5-5v-56c0-2.761,2.239-5,5-5h32c2.761,0,5,2.239,5,5v56     C406,338.761,403.761,341,401,341z M374,331h22v-46h-22V331z" fill="#3F456B"/></g></g><g><g><path d="M112,341H80c-2.761,0-5-2.239-5-5V224c0-2.761,2.239-5,5-5h32c2.761,0,5,2.239,5,5v112     C117,338.761,114.761,341,112,341z M85,331h22V229H85V331z" fill="#3F456B"/></g></g><g><g><path d="M144,285h-32c-2.761,0-5-2.239-5-5v-56c0-2.761,2.239-5,5-5h32c2.761,0,5,2.239,5,5v56     C149,282.761,146.761,285,144,285z M117,275h22v-46h-22V275z" fill="#3F456B"/></g></g><g><g><path d="M80,341H48c-2.761,0-5-2.239-5-5v-56c0-2.761,2.239-5,5-5h32c2.761,0,5,2.239,5,5v56     C85,338.761,82.761,341,80,341z M53,331h22v-46H53V331z" fill="#3F456B"/></g></g></g></svg>