<?xml version="1.0" ?><svg id="图层_1" style="enable-background:new 0 0 512 512;" version="1.1" viewBox="0 0 512 512" xml:space="preserve" xmlns="http://www.w3.org/2000/svg" xmlns:xlink="http://www.w3.org/1999/xlink"><style type="text/css">
	.st0{fill:#3F456B;}
	.st1{fill:none;}
</style><title/><g><g><path class="st0" d="M473.2,500.5H39.7c-15.3,0-27.7-12.4-27.7-27.7V193.3c0-15.3,12.4-27.7,27.7-27.7h433.5    c15.3,0,27.7,12.4,27.7,27.7v279.6C500.8,488.1,488.4,500.5,473.2,500.5z M39.7,175.6c-9.8,0-17.7,7.9-17.7,17.7v279.6    c0,9.8,7.9,17.7,17.7,17.7h433.5c9.8,0,17.7-7.9,17.7-17.7V193.3c0-9.8-7.9-17.7-17.7-17.7H39.7z"/></g></g><g><g><path class="st0" d="M223.3,169.3h-10v-13.5c0-4.1-3.1-7.7-6.7-7.7H109c-3.6,0-6.8,3.7-6.8,7.7v13.5h-10v-13.5    c0-9.6,7.7-17.7,16.8-17.7h97.5c9,0,16.7,8.1,16.7,17.7V169.3z"/></g></g><g><g><path class="st0" d="M337.4,431.8c-54.3,0-98.6-44.2-98.6-98.6c0-54.3,44.2-98.6,98.6-98.6c54.3,0,98.6,44.2,98.6,98.6    C436,387.6,391.8,431.8,337.4,431.8z M337.4,244.7c-48.8,0-88.6,39.7-88.6,88.6c0,48.8,39.7,88.6,88.6,88.6    c48.8,0,88.6-39.7,88.6-88.6C426,284.4,386.3,244.7,337.4,244.7z"/></g></g><g><g><path class="st0" d="M337.4,405.1c-39.6,0-71.8-32.2-71.8-71.8c0-39.6,32.2-71.8,71.8-71.8c39.6,0,71.8,32.2,71.8,71.8    C409.2,372.9,377,405.1,337.4,405.1z M337.4,271.5c-34.1,0-61.8,27.7-61.8,61.8c0,34.1,27.7,61.8,61.8,61.8    c34.1,0,61.8-27.7,61.8-61.8C399.2,299.2,371.5,271.5,337.4,271.5z"/></g></g><g><g><path class="st0" d="M337.4,474.1c-77.7,0-140.8-63.2-140.8-140.8c0-77.7,63.2-140.8,140.8-140.8c77.7,0,140.8,63.2,140.8,140.8    C478.3,410.9,415.1,474.1,337.4,474.1z M337.4,202.4c-72.1,0-130.8,58.7-130.8,130.8c0,72.1,58.7,130.8,130.8,130.8    c72.1,0,130.8-58.7,130.8-130.8C468.3,261.1,409.6,202.4,337.4,202.4z"/></g></g><g><g><line class="st1" x1="283.8" x2="283.8" y1="293.4" y2="293.4"/></g></g><g><g><path class="st0" d="M391.1,293.4"/></g></g><g><g><path class="st0" d="M189.3,253h-50.9c-12.3,0-22.3-11.4-22.3-25.5s10-25.5,22.3-25.5h50.9c12.3,0,22.3,11.4,22.3,25.5    S201.6,253,189.3,253z M138.4,212c-6.8,0-12.3,7-12.3,15.5s5.5,15.5,12.3,15.5h50.9c6.8,0,12.3-7,12.3-15.5s-5.5-15.5-12.3-15.5    H138.4z"/></g></g><g><g><path class="st0" d="M69,501H37v-10h32c8.3,0,15-6.7,15-15V191c0-8.3-6.7-15-15-15H37v-10h32c13.8,0,25,11.2,25,25v285    C94,489.8,82.8,501,69,501z"/></g></g><g><g><g><g><path class="st0" d="M76.8,101.8c-2.8,0-5-2.2-5-5c0-2.8,2.2-5,5-5l28.5-0.1c0,0,0,0,0,0c2.8,0,5,2.2,5,5c0,2.8-2.2,5-5,5      L76.8,101.8C76.8,101.8,76.8,101.8,76.8,101.8z"/></g></g><g><g><path class="st0" d="M208.4,101.4c-2.8,0-5-2.2-5-5c0-2.8,2.2-5,5-5l27.4-0.1c0,0,0,0,0,0c2.8,0,5,2.2,5,5c0,2.8-2.2,5-5,5      L208.4,101.4C208.5,101.4,208.4,101.4,208.4,101.4z"/></g></g></g><g><g><g><path class="st0" d="M201.4,75c-1.7,0-3.4-0.9-4.3-2.5c-1.4-2.4-0.6-5.4,1.8-6.8l24.2-14.1c2.4-1.4,5.4-0.6,6.8,1.8      c1.4,2.4,0.6,5.4-1.8,6.8l-24.2,14.1C203.1,74.8,202.2,75,201.4,75z"/></g></g></g><g><g><g><path class="st0" d="M182.4,56.1c-0.8,0-1.7-0.2-2.5-0.7c-2.4-1.4-3.2-4.4-1.9-6.8L192,24.3c1.4-2.4,4.4-3.2,6.8-1.9      c2.4,1.4,3.2,4.4,1.9,6.8l-13.9,24.3C185.8,55.2,184.1,56.1,182.4,56.1z"/></g></g></g><g><g><g><path class="st0" d="M156.7,48.9c-2.8,0-5-2.2-5-5l-0.1-27.4c0-2.8,2.2-5,5-5c0,0,0,0,0,0c2.8,0,5,2.2,5,5l0.1,27.4      C161.7,46.7,159.5,48.9,156.7,48.9C156.7,48.9,156.7,48.9,156.7,48.9z"/></g></g></g><g><g><g><path class="st0" d="M130.7,56.3c-1.7,0-3.4-0.9-4.3-2.5l-14.1-24.2c-1.4-2.4-0.6-5.4,1.8-6.8c2.4-1.4,5.4-0.6,6.8,1.8L135,48.8      c1.4,2.4,0.6,5.4-1.8,6.8C132.4,56.1,131.5,56.3,130.7,56.3z"/></g></g></g><g><g><g><path class="st0" d="M111.8,75.3c-0.8,0-1.7-0.2-2.5-0.7L85,60.7c-2.4-1.4-3.2-4.4-1.9-6.8c1.4-2.4,4.4-3.2,6.8-1.9L114.3,66      c2.4,1.4,3.2,4.4,1.9,6.8C115.2,74.4,113.6,75.3,111.8,75.3z"/></g></g></g></g><g><g><path class="st0" d="M256.9,257.7c-1.3,0-2.6-0.5-3.5-1.5c-2-2-2-5.1,0-7.1c46.4-46.4,121.8-46.4,168.2,0c2,2,2,5.1,0,7.1    c-2,2-5.1,2-7.1,0c-42.5-42.5-111.6-42.5-154.1,0C259.4,257.2,258.1,257.7,256.9,257.7z"/></g></g></svg>