<?xml version="1.0" ?><svg viewBox="0 0 512 512" xmlns="http://www.w3.org/2000/svg"><defs><style>.cls-1{fill:#3f456b;}</style></defs><title/><g id="Lines"><path class="cls-1" d="M495.8,244.15a5,5,0,0,1-4.89-4L466.1,119c0-.2-4.59-21.26-20.89-30.28-10-5.53-22.6-5.54-37.47,0s-27,10.4-27.12,10.45a5,5,0,1,1-3.74-9.28c.12,0,12.34-5,27.38-10.55,17.77-6.58,33.2-6.34,45.86.7,20.34,11.31,25.57,35.95,25.78,37l24.81,121.14a5,5,0,0,1-4.91,6Z"/><path class="cls-1" d="M16.75,244.15a4.86,4.86,0,0,1-1-.11,5,5,0,0,1-3.9-5.9L36.66,117c.21-1,5.44-25.68,25.77-37,12.67-7,28.1-7.28,45.87-.7,15,5.57,27.26,10.5,27.38,10.55a5,5,0,0,1-3.74,9.28c-.12,0-12.22-4.93-27.12-10.45s-27.53-5.5-37.53.06c-16.36,9.1-20.79,30-20.83,30.25L21.65,240.15A5,5,0,0,1,16.75,244.15Z"/><path class="cls-1" d="M136.41,414c-20.63,0-40.2-6.56-55.1-18.47-16.38-13.09-26-31.44-27.71-53.07-1.52-18.8,0-44.95,15.92-62.79,11.65-13,30-20.64,53.07-21.93,18.46-1,39.4,2.23,56,8.73h0c23.85,9.34,38.12,27.08,41.27,51.3,3.37,25.91-3.49,52.25-17.91,68.74C186.69,404,162.8,414,136.41,414Zm-6.92-146.44c-20.16,0-40.26,5-52.5,18.77C63.42,301.5,62.2,324.78,63.57,341.63,66,371.66,89.84,404,136.41,404c23.5,0,44.65-8.77,58-24.07,12.4-14.18,18.49-38.07,15.53-60.87-2.69-20.67-14.47-35.23-35-43.28h0A130.22,130.22,0,0,0,129.49,267.54Z"/><path class="cls-1" d="M375.75,437.51c-34.4,0-65.53-13-85.39-35.77-18.48-21.15-27.62-56.3-23.29-89.57a92.74,92.74,0,0,1,2.18-11.29c-10.14-6.5-22-2.1-26.49,0a93.87,93.87,0,0,1,2.17,11.26c4.33,33.27-4.81,68.42-23.29,89.57-19.86,22.73-51,35.77-85.39,35.77-26.89,0-52.39-8.55-71.81-24.06-21.27-17-33.72-40.86-36-69a156.71,156.71,0,0,1,1.29-38.64c0-.16.06-.32.1-.47.32-1.32.58-2.63.76-3.91,0-.11,0-.23,0-.33.71-5.58-.25-10-2.84-13-4.29-5.06-11.89-5.47-12-5.47a5,5,0,0,1-4.82-5V239.1a5,5,0,0,1,5-5H121.55c23.5-.81,49,3.4,69.85,11.58,13.76,5.39,25.1,12.91,33.77,22.37,8.76-4.61,35.46-16,61.66,0,8.67-9.47,20-17,33.76-22.38,20.91-8.18,46.34-12.39,69.86-11.58H496a5,5,0,0,1,5,5v38.52a5,5,0,0,1-4.82,5c-.05,0-7.73.42-12,5.52-2.56,3.06-3.51,7.42-2.8,13,0,.1,0,.22,0,.33.18,1.28.44,2.59.76,3.91a3.86,3.86,0,0,1,.1.49,156.57,156.57,0,0,1,1.29,38.62c-2.28,28.13-14.73,52-36,69C428.14,429,402.64,437.51,375.75,437.51Zm-118.51-150a31.58,31.58,0,0,1,18.47,5.72,7.19,7.19,0,0,0,1.34.75,5,5,0,0,1,2.84,6.09,79.79,79.79,0,0,0-2.9,13.44c-4,30.55,4.22,62.62,20.89,81.7,18,20.56,46.36,32.35,77.87,32.35,24.63,0,47.92-7.77,65.56-21.87,19.07-15.24,30.23-36.68,32.29-62a147.6,147.6,0,0,0-1.18-36.11,48.87,48.87,0,0,1-.94-4.89l0-.25c-1.08-8.49.64-15.48,5.13-20.77,4.34-5.13,10.29-7.34,14.42-8.29V244.1H390.18c-21.88-.78-46.53,3.3-65.94,10.89-13.76,5.4-24.74,13.08-32.63,22.84a5,5,0,0,1-3.39,1.82,4.88,4.88,0,0,1-3.68-1.12l-.28-.2c-26.77-18.74-55.43-.95-56.64-.18a4.65,4.65,0,0,0-.43.29,5,5,0,0,1-6.94-.79c-7.88-9.67-18.81-17.3-32.5-22.66-19.4-7.59-44.05-11.67-65.93-10.89H21v29.24c4.13,1,10.08,3.16,14.42,8.29,4.49,5.29,6.21,12.28,5.13,20.77l0,.25a48.87,48.87,0,0,1-.94,4.89,147.63,147.63,0,0,0-1.18,36.12c2.06,25.3,13.22,46.74,32.29,62,17.64,14.1,40.93,21.87,65.56,21.87,31.51,0,59.9-11.79,77.87-32.35C230.79,376.08,239,344,235,313.46a79.42,79.42,0,0,0-2.94-13.57,5,5,0,0,1,2.69-6.05,7.2,7.2,0,0,0,.85-.46A45.93,45.93,0,0,1,257.24,287.46ZM471.55,303h0Zm-431.1,0h0Zm431.09,0h0ZM40.46,303h0Zm.11-1h0Zm430.86,0h0Z"/><path class="cls-1" d="M375.59,414c-26.39,0-50.28-10-65.55-27.48-14.42-16.5-21.28-42.84-17.91-68.75,3.15-24.22,17.42-42,41.27-51.3h0c27.87-10.92,82.14-17,109.08,13.2,15.92,17.84,17.44,44,15.92,62.79-1.75,21.63-11.33,40-27.71,53.07C415.79,407.42,396.22,414,375.59,414ZM337,275.76c-20.53,8.05-32.31,22.61-35,43.28-3,22.8,3.13,46.69,15.53,60.87,13.37,15.3,34.52,24.07,58,24.07,32.65,0,69.37-19.51,72.84-62.35,1.37-16.85.15-40.13-13.42-55.32-22.31-25-70.72-21.22-98-10.55Z"/><path class="cls-1" d="M477,266a5,5,0,0,1-5-5v-3a5,5,0,0,1,10,0v3A5,5,0,0,1,477,266Z"/><path class="cls-1" d="M34,266a5,5,0,0,1-5-5v-3a5,5,0,0,1,10,0v3A5,5,0,0,1,34,266Z"/></g><g id="Outline"><path class="cls-1" d="M101.5,362.5A5,5,0,0,1,98,354l57-57A5,5,0,0,1,162,304l-57,57A5,5,0,0,1,101.5,362.5Z"/><path class="cls-1" d="M139.5,370.5A5,5,0,0,1,136,362l27-27A5,5,0,0,1,170,342l-27,27A5,5,0,0,1,139.5,370.5Z"/><path class="cls-1" d="M336.5,362.5A5,5,0,0,1,333,354l57-57A5,5,0,0,1,397,304l-57,57A5,5,0,0,1,336.5,362.5Z"/><path class="cls-1" d="M374.5,370.5A5,5,0,0,1,371,362l27-27A5,5,0,0,1,405,342l-27,27A5,5,0,0,1,374.5,370.5Z"/></g></svg>