<?xml version="1.0" ?><svg viewBox="0 0 512 512" xmlns="http://www.w3.org/2000/svg"><defs><style>.cls-1{fill:#3f456b;}</style></defs><title/><g id="Lines"><path class="cls-1" d="M93.11,419.3a44.66,44.66,0,1,1,44.66-44.66A44.72,44.72,0,0,1,93.11,419.3Zm0-79.32a34.66,34.66,0,1,0,34.66,34.66A34.7,34.7,0,0,0,93.11,340Z"/><path class="cls-1" d="M93.11,394.05a19.41,19.41,0,1,1,19.41-19.41A19.43,19.43,0,0,1,93.11,394.05Zm0-28.81a9.41,9.41,0,1,0,9.41,9.4A9.4,9.4,0,0,0,93.11,365.24Z"/><path class="cls-1" d="M189.52,419.3a44.66,44.66,0,1,1,44.66-44.66A44.71,44.71,0,0,1,189.52,419.3Zm0-79.32a34.66,34.66,0,1,0,34.66,34.66A34.7,34.7,0,0,0,189.52,340Z"/><path class="cls-1" d="M189.52,394.05a19.41,19.41,0,1,1,19.4-19.41A19.44,19.44,0,0,1,189.52,394.05Zm0-28.81a9.41,9.41,0,1,0,9.4,9.4A9.41,9.41,0,0,0,189.52,365.24Z"/><path class="cls-1" d="M290,419.3a44.66,44.66,0,1,1,44.66-44.66A44.72,44.72,0,0,1,290,419.3ZM290,340a34.66,34.66,0,1,0,34.66,34.66A34.7,34.7,0,0,0,290,340Z"/><path class="cls-1" d="M290,394.05a19.41,19.41,0,1,1,19.41-19.41A19.43,19.43,0,0,1,290,394.05Zm0-28.81a9.41,9.41,0,1,0,9.41,9.4A9.4,9.4,0,0,0,290,365.24Z"/><path class="cls-1" d="M386.39,419.3a44.66,44.66,0,1,1,44.66-44.66A44.71,44.71,0,0,1,386.39,419.3Zm0-79.32a34.66,34.66,0,1,0,34.66,34.66A34.7,34.7,0,0,0,386.39,340Z"/><path class="cls-1" d="M386.39,394.05a19.41,19.41,0,1,1,19.4-19.41A19.44,19.44,0,0,1,386.39,394.05Zm0-28.81a9.41,9.41,0,1,0,9.4,9.4A9.41,9.41,0,0,0,386.39,365.24Z"/><path class="cls-1" d="M148.94,379H132.77a5,5,0,0,1,0-10h16.17a5,5,0,0,1,0,10Z"/><path class="cls-1" d="M249.94,379H229.88a5,5,0,1,1,0-10h20.06a5,5,0,0,1,0,10Z"/><path class="cls-1" d="M346.06,379H330.19a5,5,0,0,1,0-10h15.87a5,5,0,0,1,0,10Z"/><path class="cls-1" d="M486.5,379H426.62a5,5,0,0,1,0-10H486.5a3.63,3.63,0,0,0,3-1.81c.87-1.75-.17-4.86-2.78-8.31l-.09-.12L409.76,250.5c-5.06-6.29-8.95-7-11.44-7H26.5a5,5,0,0,0-5,5V364a5,5,0,0,0,5,5H52.38a5,5,0,0,1,0,10H26.5a15,15,0,0,1-15-15V248.48a15,15,0,0,1,15-15H398.32c7.16,0,13.49,3.56,19.34,10.88.06.07.11.15.17.23l76.93,108.28c6.83,9.06,5.26,15.62,3.72,18.73A13.63,13.63,0,0,1,486.5,379Z"/><path class="cls-1" d="M447,379a5,5,0,0,1-4.61-3.07l-9.83-23.48c0-.09-.08-.19-.11-.28C432,351,421.78,323.48,386,323.48H94.5c-35.78,0-46,27.5-46.45,28.67,0,.08-.07.18-.11.26l-9.83,23.48A5,5,0,0,1,28.89,372l9.79-23.37A54.09,54.09,0,0,1,50.33,331c7.79-8,21.76-17.51,44.17-17.51H386c22.41,0,36.38,9.52,44.17,17.51a54.09,54.09,0,0,1,11.65,17.67L451.61,372A5,5,0,0,1,447,379Z"/><path class="cls-1" d="M468.08,329a5,5,0,0,1-3-9l26.43-20V275.48H430.09a5,5,0,1,1,0-10H496.5a5,5,0,0,1,5,5v32a5,5,0,0,1-2,4L471.1,328A5,5,0,0,1,468.08,329Z"/><path class="cls-1" d="M177.32,242.67a5,5,0,0,1-3.83-8.21l30.67-36.69c1.62-2,10.43-12.29,19.84-12.29h96.5c1.65,0,10.37.6,19.89,12.36l30.39,36.34a5,5,0,0,1-7.67,6.41l-30.45-36.4c-2.88-3.55-8.7-8.71-12.16-8.71H224c-3.49,0-9.29,5.16-12.11,8.65l-30.73,36.74A5,5,0,0,1,177.32,242.67Z"/><path class="cls-1" d="M463.29,218.11H346.64a5,5,0,0,1,0-10H463.29a5,5,0,1,1,0,10Z"/><path class="cls-1" d="M160.5,243.48a5,5,0,0,1-5-5V223.11a5,5,0,0,0-5-5h-92a5,5,0,0,0-5,5v15.37a5,5,0,1,1-10,0V223.11a15,15,0,0,1,15-15h92a15,15,0,0,1,15,15v15.37A5,5,0,0,1,160.5,243.48Z"/><path class="cls-1" d="M103.33,301.32h-45a15,15,0,0,1-15-15V271.65a15,15,0,0,1,15-15h45a15,15,0,0,1,15,15v14.67A15,15,0,0,1,103.33,301.32Zm-45-34.67a5,5,0,0,0-5,5v14.67a5,5,0,0,0,5,5h45a5,5,0,0,0,5-5V271.65a5,5,0,0,0-5-5Z"/><path class="cls-1" d="M196.37,301.32h-45a15,15,0,0,1-15-15V271.65a15,15,0,0,1,15-15h45a15,15,0,0,1,15,15v14.67A15,15,0,0,1,196.37,301.32Zm-45-34.67a5,5,0,0,0-5,5v14.67a5,5,0,0,0,5,5h45a5,5,0,0,0,5-5V271.65a5,5,0,0,0-5-5Z"/><path class="cls-1" d="M289.41,301.32h-45a15,15,0,0,1-15-15V271.65a15,15,0,0,1,15-15h45a15,15,0,0,1,15,15v14.67A15,15,0,0,1,289.41,301.32Zm-45-34.67a5,5,0,0,0-5,5v14.67a5,5,0,0,0,5,5h45a5,5,0,0,0,5-5V271.65a5,5,0,0,0-5-5Z"/><path class="cls-1" d="M382.44,301.32h-45a15,15,0,0,1-15-15V271.65a15,15,0,0,1,15-15h45a15,15,0,0,1,15,15v14.67A15,15,0,0,1,382.44,301.32Zm-45-34.67a5,5,0,0,0-5,5v14.67a5,5,0,0,0,5,5h45a5,5,0,0,0,5-5V271.65a5,5,0,0,0-5-5Z"/><path class="cls-1" d="M104.5,218.11a5,5,0,0,1-5-5V94.48a5,5,0,0,1,10,0V213.11A5,5,0,0,1,104.5,218.11Z"/><path class="cls-1" d="M288.39,195.49a5,5,0,0,1-5-5,11.26,11.26,0,1,0-22.51,0,5,5,0,0,1-10,0,21.26,21.26,0,1,1,42.51,0A5,5,0,0,1,288.39,195.49Z"/></g><g id="Outline"><path class="cls-1" d="M313.62,219.48h-1a5,5,0,0,1,0-10h1a5,5,0,0,1,0,10Zm-21,0h-1a5,5,0,0,1,0-10h1a5,5,0,0,1,0,10Zm-21,0h-1a5,5,0,0,1,0-10h1a5,5,0,0,1,0,10Zm-21,0h-1a5,5,0,0,1,0-10h1a5,5,0,0,1,0,10Zm-21,0h-1a5,5,0,0,1,0-10h1a5,5,0,0,1,0,10Z"/></g></svg>