<?xml version="1.0" ?><svg viewBox="0 0 512 512" xmlns="http://www.w3.org/2000/svg"><defs><style>.cls-1{fill:#3f456b;}</style></defs><title/><g id="Lines"><path class="cls-1" d="M496.5,318.39H456.34a15,15,0,0,1-15-15v-13a15,15,0,0,1,15-15H496.5a5,5,0,0,1,0,10H456.34a5,5,0,0,0-5,5v13a5,5,0,0,0,5,5H496.5a5,5,0,0,1,0,10Z"/><path class="cls-1" d="M120.13,429.61a45.11,45.11,0,1,1,45.12-45.11A45.17,45.17,0,0,1,120.13,429.61Zm0-80.22a35.11,35.11,0,1,0,35.12,35.11A35.15,35.15,0,0,0,120.13,349.39Z"/><path class="cls-1" d="M120.13,402.09a17.59,17.59,0,1,1,17.59-17.59A17.61,17.61,0,0,1,120.13,402.09Zm0-25.18a7.59,7.59,0,1,0,7.59,7.59A7.61,7.61,0,0,0,120.13,376.91Z"/><path class="cls-1" d="M393.87,429.61A45.11,45.11,0,1,1,439,384.5,45.17,45.17,0,0,1,393.87,429.61Zm0-80.22A35.11,35.11,0,1,0,429,384.5,35.15,35.15,0,0,0,393.87,349.39Z"/><path class="cls-1" d="M393.87,402.09a17.59,17.59,0,1,1,17.59-17.59A17.61,17.61,0,0,1,393.87,402.09Zm0-25.18a7.59,7.59,0,1,0,7.59,7.59A7.6,7.6,0,0,0,393.87,376.91Z"/><path class="cls-1" d="M310.5,389.25H161.38a5,5,0,0,1,0-10H310.5a5,5,0,0,0,5-5V98.39a5,5,0,0,0-5-5H42a5,5,0,0,0-5,5v262a5,5,0,0,1-10,0v-262a15,15,0,0,1,15-15H310.5a15,15,0,0,1,15,15V374.25A15,15,0,0,1,310.5,389.25Z"/><path class="cls-1" d="M80,389.25H26.5a15,15,0,0,1-15-15V360.39a5,5,0,0,1,10,0v13.86a5,5,0,0,0,5,5H80a5,5,0,0,1,0,10Z"/><path class="cls-1" d="M478.32,390.07H434a5,5,0,0,1,0-10h44.34c5,0,8.67-1.22,10.79-3.63,3.08-3.51,2.44-8.82,2.44-8.87a5.19,5.19,0,0,1-.05-.68V278.06c0-5.74-3-10.22-9.18-13.7a37.17,37.17,0,0,0-10.58-3.88l-42.26-7.16a5,5,0,1,1,1.68-9.86l42.26,7.17c9.7,1.62,28.08,9.44,28.08,27.43v88.53c.22,2.06.67,10-4.78,16.34C492.61,387.67,486.42,390.07,478.32,390.07Z"/><path class="cls-1" d="M430.32,253.39a5,5,0,0,1-4.77-3.49C413.88,213,407,191.49,405,186.07c-4.42-12.37-17.17-12.67-17.71-12.68H320.5a5,5,0,0,1,0-10h66.86c.82,0,20.28.22,27.1,19.32,3,8.34,16.26,50.36,20.63,64.17a5,5,0,0,1-3.26,6.28A5.27,5.27,0,0,1,430.32,253.39Z"/><path class="cls-1" d="M380.75,173.39a5,5,0,0,1-5-5V147.23c0-5.08-3.13-5.84-5-5.84H348.08c-1.17,0-5,.42-5,5.84v21.16a5,5,0,0,1-10,0V147.23c0-7.87,5.16-15.84,15-15.84h22.67c7.22,0,15,5,15,15.84v21.16A5,5,0,0,1,380.75,173.39Z"/><path class="cls-1" d="M430.32,253.39H344.25a5,5,0,0,1-5-5V193.56a5,5,0,0,1,5-5h67.08a5,5,0,0,1,0,10H349.25v44.83h81.07a5,5,0,1,1,0,10Z"/><path class="cls-1" d="M262.5,349.39h-76a15,15,0,0,1-15-15v-188a15,15,0,0,1,15-15h76a15,15,0,0,1,15,15v188A15,15,0,0,1,262.5,349.39Zm-76-208a5,5,0,0,0-5,5v188a5,5,0,0,0,5,5h76a5,5,0,0,0,5-5v-188a5,5,0,0,0-5-5Z"/><path class="cls-1" d="M320.5,123.89H32a5,5,0,1,1,0-10H320.5a5,5,0,0,1,0,10Z"/><path class="cls-1" d="M344.25,253.39H272.5a5,5,0,0,1,0-10h71.75a5,5,0,0,1,0,10Z"/><path class="cls-1" d="M272.5,253.39H32a5,5,0,0,1,0-10H272.5a5,5,0,0,1,0,10Z"/><path class="cls-1" d="M446.34,295.39H272.5a5,5,0,0,1,0-10H446.34a5,5,0,1,1,0,10Z"/><path class="cls-1" d="M272.5,295.39H32a5,5,0,0,1,0-10H272.5a5,5,0,0,1,0,10Z"/><path class="cls-1" d="M198,275.89a5,5,0,0,1-5-5v-3a5,5,0,0,1,10,0v3A5,5,0,0,1,198,275.89Z"/><path class="cls-1" d="M344.25,275.89a5,5,0,0,1-5-5v-3a5,5,0,0,1,10,0v3A5,5,0,0,1,344.25,275.89Z"/><path class="cls-1" d="M353.75,389.5h-51.5a5,5,0,0,1,0-10h51.5a5,5,0,0,1,0,10Z"/><path class="cls-1" d="M88.08,365.39H16.5a5,5,0,0,1,0-10H88.08a5,5,0,0,1,0,10Z"/><path class="cls-1" d="M361.81,365.39H152.19a5,5,0,1,1,0-10H361.81a5,5,0,1,1,0,10Z"/><path class="cls-1" d="M494.81,365.39H425.92a5,5,0,1,1,0-10h68.89a5,5,0,1,1,0,10Z"/><path class="cls-1" d="M31.5,349.39h-11a15,15,0,0,1-15-15v-188a15,15,0,0,1,15-15h11a5,5,0,0,1,0,10h-11a5,5,0,0,0-5,5v188a5,5,0,0,0,5,5h11a5,5,0,0,1,0,10Z"/><path class="cls-1" d="M80.67,170.52H66.91a15,15,0,0,1-15-15v-6.26a15,15,0,0,1,15-15H80.67a15,15,0,0,1,15,15v6.26A15,15,0,0,1,80.67,170.52ZM66.91,144.26a5,5,0,0,0-5,5v6.26a5,5,0,0,0,5,5H80.67a5,5,0,0,0,5-5v-6.26a5,5,0,0,0-5-5Z"/><path class="cls-1" d="M134.42,170.52H120.66a15,15,0,0,1-15-15v-6.26a15,15,0,0,1,15-15h13.76a15,15,0,0,1,15,15v6.26A15,15,0,0,1,134.42,170.52Zm-13.76-26.26a5,5,0,0,0-5,5v6.26a5,5,0,0,0,5,5h13.76a5,5,0,0,0,5-5v-6.26a5,5,0,0,0-5-5Z"/><path class="cls-1" d="M450.79,231.93h-3.62a15,15,0,0,1-15-15V203.56a15,15,0,0,1,15-15h3.62a15,15,0,0,1,15,15v13.37A15,15,0,0,1,450.79,231.93Zm-3.62-33.37a5,5,0,0,0-5,5v13.37a5,5,0,0,0,5,5h3.62a5,5,0,0,0,5-5V203.56a5,5,0,0,0-5-5Z"/><path class="cls-1" d="M447.7,198.56H410.36a5,5,0,0,1,0-10H447.7a5,5,0,0,1,0,10Z"/></g><g id="Outline"><path class="cls-1" d="M152.25,330.39a5,5,0,0,1-5-5v-125a5,5,0,0,1,10,0v125A5,5,0,0,1,152.25,330.39Z"/><path class="cls-1" d="M296.5,330.39a5,5,0,0,1-5-5v-125a5,5,0,0,1,10,0v125A5,5,0,0,1,296.5,330.39Z"/><path class="cls-1" d="M111.3,210.24H86a5,5,0,1,1,0-10H111.3a5,5,0,1,1,0,10Z"/><path class="cls-1" d="M98.67,222.87a5,5,0,0,1-5-5V192.6a5,5,0,0,1,10,0v25.27A5,5,0,0,1,98.67,222.87Z"/></g></svg>