<?xml version="1.0" ?><svg viewBox="0 0 512 512" xmlns="http://www.w3.org/2000/svg"><defs><style>.cls-1{fill:#3f456b;}</style></defs><title/><g id="Lines"><path class="cls-1" d="M327,400h-1a5,5,0,0,1,0-10h1a5,5,0,0,1,0,10Z"/><path class="cls-1" d="M355.75,400h-1a5,5,0,0,1,0-10h1a5,5,0,0,1,0,10Z"/><path class="cls-1" d="M384.5,400h-1a5,5,0,0,1,0-10h1a5,5,0,0,1,0,10Z"/><path class="cls-1" d="M413.25,400h-1a5,5,0,0,1,0-10h1a5,5,0,0,1,0,10Z"/><path class="cls-1" d="M442,400h-1a5,5,0,0,1,0-10h1a5,5,0,0,1,0,10Z"/><path class="cls-1" d="M77.61,502H56.25c-5.24,0-9.47-2.79-11.91-7.86a21.31,21.31,0,0,1-1.88-6.51l-3.39-19.79a5,5,0,0,1,9.86-1.69l3.42,20c0,.14,0,.28,0,.42S53,492,56.25,492H77.61c3.26,0,3.83-5.29,3.85-5.51s0-.27.05-.39l3.42-19.88a5,5,0,1,1,9.86,1.7L91.4,487.6C90.88,492.72,87.4,502,77.61,502Z"/><path class="cls-1" d="M454.9,502H433.54c-5.24,0-9.47-2.79-11.91-7.86a21.2,21.2,0,0,1-1.87-6.51l-3.39-19.79a5,5,0,0,1,9.85-1.69l3.42,20c0,.14,0,.28.05.42s.59,5.48,3.85,5.48H454.9c3.29,0,3.85-5.42,3.85-5.48s0-.28.05-.42l3.42-19.88a5,5,0,1,1,9.86,1.7l-3.39,19.68C468.18,492.72,464.69,502,454.9,502Z"/><path class="cls-1" d="M467,472H47a35,35,0,0,1-35-35V353a35,35,0,0,1,35-35H467a35,35,0,0,1,35,35v84A35,35,0,0,1,467,472ZM47,328a25,25,0,0,0-25,25v84a25,25,0,0,0,25,25H467a25,25,0,0,0,25-25V353a25,25,0,0,0-25-25Z"/><path class="cls-1" d="M152,328a5,5,0,0,1-5-5V130a11,11,0,0,0-22,0V323a5,5,0,0,1-10,0V130a21,21,0,0,1,42,0V323A5,5,0,0,1,152,328Z"/><path class="cls-1" d="M155,400H63a5,5,0,0,1,0-10h92a5,5,0,0,1,0,10Z"/></g><g id="Outline"><path class="cls-1" d="M97.35,182.32a5,5,0,0,1-3.54-1.46,59.67,59.67,0,1,1,84.38,0,5,5,0,0,1-7.07-7.07,49.67,49.67,0,1,0-70.24,0,5,5,0,0,1-3.53,8.53Z"/><path class="cls-1" d="M73.42,206.25a5,5,0,0,1-3.53-1.47,93.5,93.5,0,1,1,132.22,0,5,5,0,1,1-7.07-7.07,83.5,83.5,0,1,0-118.08,0,5,5,0,0,1-3.54,8.54Z"/><path class="cls-1" d="M221.56,229.23a5,5,0,0,1-3.53-8.54,116,116,0,1,0-164.06,0,5,5,0,1,1-7.07,7.07,126,126,0,1,1,178.2,0A5,5,0,0,1,221.56,229.23Z"/></g></svg>