<?xml version="1.0" ?><svg id="Lines" viewBox="0 0 512 512" xmlns="http://www.w3.org/2000/svg"><defs><style>.cls-1{fill:#3f456b;}</style></defs><title/><path class="cls-1" d="M426.27,130.07a39.15,39.15,0,0,1-21-72.21h0a39.16,39.16,0,1,1,21,72.21ZM410.59,66.3a29.16,29.16,0,1,0,40.24,9,29.2,29.2,0,0,0-40.24-9Z"/><path class="cls-1" d="M58.66,419.22a31.63,31.63,0,0,1-17-58.34h0a31.64,31.64,0,1,1,17,58.34ZM58.57,366A21.46,21.46,0,0,0,47,369.32h0a21.62,21.62,0,1,0,16.31-2.85A22,22,0,0,0,58.57,366Zm-14.23-.85h0Z"/><path class="cls-1" d="M123.66,164.22a31.63,31.63,0,0,1-17-58.34h0a31.64,31.64,0,1,1,17,58.34Zm-.09-53.28A21.47,21.47,0,0,0,112,114.32h0a21.62,21.62,0,1,0,16.31-2.85A22,22,0,0,0,123.57,110.94Zm-14.23-.84h0Z"/><path class="cls-1" d="M441.66,385.22a31.63,31.63,0,0,1-17-58.34h0a31.64,31.64,0,1,1,17,58.34ZM441.57,332A21.46,21.46,0,0,0,430,335.32h0a21.62,21.62,0,1,0,16.31-2.85A22,22,0,0,0,441.57,332Zm-14.23-.85h0Z"/><path class="cls-1" d="M377.27,296a5,5,0,0,1-4.74-6.57c11.37-34.36,56.3-48.38,77.89-55.12,3.28-1,6.11-1.9,8.16-2.64,25.66-9.28,34.5-21.86,28.68-40.81a28.45,28.45,0,0,0-22.16-19.61c-10.12-1.71-20.59,2.17-30.71,5.93-3.17,1.17-6.45,2.39-9.69,3.42-24.94,8-49.39,9.5-70.69,4.41-6.46-1.55-15.3-3.66-20.87-10a5,5,0,0,1,7.52-6.59c3.46,3.94,10.52,5.63,15.67,6.86,19.53,4.67,42.12,3.22,65.33-4.2,3-1,6-2.09,9.25-3.28,11.36-4.21,23.11-8.58,35.87-6.4a38.5,38.5,0,0,1,30,26.53c4.54,14.77,2,27.32-7.63,37.29-8,8.27-19.34,13-27.21,15.85-2.26.82-5.19,1.73-8.58,2.79-21.54,6.72-61.62,19.23-71.38,48.71A5,5,0,0,1,377.27,296Z"/><path class="cls-1" d="M160.58,182.06a5,5,0,0,1-3.3-8.76c3.94-3.46,5.63-10.52,6.86-15.68,4.67-19.52,3.22-42.11-4.2-65.32-1-3-2.09-6-3.28-9.25-4.21-11.36-8.57-23.11-6.4-35.87a38.5,38.5,0,0,1,26.53-30c14.77-4.54,27.32-2,37.29,7.63,8.27,8,13,19.34,15.85,27.21.82,2.26,1.73,5.19,2.79,8.58,6.72,21.54,19.23,61.62,48.71,71.38a5,5,0,1,1-3.14,9.49c-34.35-11.37-48.38-56.3-55.11-77.89-1-3.28-1.91-6.11-2.65-8.16-9.28-25.66-21.86-34.5-40.8-28.68a28.41,28.41,0,0,0-19.61,22.16C158.39,59,162.28,69.45,166,79.57c1.17,3.17,2.39,6.45,3.42,9.69,8,24.94,9.5,49.39,4.41,70.69-1.55,6.46-3.66,15.3-10,20.87A5,5,0,0,1,160.58,182.06Z"/><path class="cls-1" d="M153.06,497a38.52,38.52,0,0,1-18-4.44c-13.66-7.24-20.72-17.92-21-31.77-.21-11.48,4.48-22.87,8-30.44,1-2.18,2.44-4.9,4.09-8.05,10.48-20,30-57.17,16-84.91a5,5,0,1,1,8.93-4.5c16.26,32.34-5.6,74-16.1,94.06-1.59,3-3,5.66-3.9,7.64-11.58,24.7-8.94,39.86,8.57,49.13a28.45,28.45,0,0,0,29.54-1.8c8.37-5.94,13-16.09,17.53-25.91,1.41-3.07,2.87-6.25,4.42-9.27,12-23.28,28.21-41.64,46.88-53.1,5.66-3.47,13.42-8.23,21.82-7.69a5,5,0,0,1-.65,10c-5.25-.34-11.42,3.46-15.94,6.23-17.11,10.51-32.06,27.51-43.22,49.16-1.45,2.82-2.8,5.76-4.22,8.86-5.06,11-10.28,22.41-20.84,29.89A38,38,0,0,1,153.06,497Z"/><path class="cls-1" d="M391.21,187.46a5,5,0,0,1-4.48-2.79c-.18-.35-10.37-20.47-32.5-39.15-29.61-25-65.49-35.74-106.67-32a5,5,0,1,1-.91-10c54.93-5,92.51,16,114.37,34.57,23.67,20.09,34.23,41.19,34.67,42.08a5,5,0,0,1-4.48,7.21Z"/><path class="cls-1" d="M149.29,384.87a5,5,0,0,1-2.92-.94c-.65-.47-16.06-11.68-30.4-33.91-13.2-20.46-27.91-54.53-23-100.66s25.35-76.74,41.67-94.38c17.76-19.2,34.3-27.4,35-27.74a5,5,0,1,1,4.4,9h0c-.15.08-15.83,7.92-32.35,25.88-15.17,16.5-34.21,45.22-38.77,88.32-8.74,82.64,48.75,125,49.33,125.4a5,5,0,0,1-2.92,9.06Z"/><path class="cls-1" d="M262.35,426.54c-26,0-43.61-6.67-44.37-7a5,5,0,0,1,3.59-9.34h0c.18.07,17.88,6.73,43.25,6.28,33.85-.6,64.64-12.85,91.5-36.42,64.37-56.49,52.14-124.35,52-125a5,5,0,1,1,9.82-1.89c.14.76,3.54,18.93-1.59,44.65-4.71,23.62-17.84,58.37-53.65,89.79s-73.3,38.54-98.37,38.9Z"/><path class="cls-1" d="M399.47,449.63c-17.76,0-31.05-16.8-31.69-17.62-5-6.34-20.93-23.33-33.57-25.35a5,5,0,1,1,1.58-9.87c19.08,3,39,28,39.86,29,.16.2,14.05,17.64,29.19,13,8.29-2.55,14.55-8.68,16.35-16,1.72-7-.93-14.42-7.45-20.87-18.34-18.13-33-40.9-33.66-41.86a5,5,0,0,1,8.41-5.4c.15.22,14.74,22.81,32.28,40.15,9.13,9,12.72,19.81,10.13,30.37-2.63,10.71-11.49,19.59-23.12,23.16A28.07,28.07,0,0,1,399.47,449.63Z"/><path class="cls-1" d="M343.91,136.55a5,5,0,0,1-4-8c.11-.15,11.11-15.49,7.77-28.62-1.55-6.08-5.93-10.77-13.4-14.34-7-3.34-13-3.71-18.26-1.13-12.64,6.21-17.31,27.15-17.35,27.36a5,5,0,0,1-9.78-2.09c.23-1.06,5.71-25.86,22.69-34.23,8.09-4,17.17-3.62,27,1.07,10.2,4.86,16.53,11.91,18.81,20.95,4.46,17.71-8.84,36.16-9.41,36.94A5,5,0,0,1,343.91,136.55Z"/><path class="cls-1" d="M97.1,279a5,5,0,0,1-4.63-3.12c-5-12.15-33.89-18.31-44-19.58-10.9-.16-32.1-5.88-36.35-26.58-2.4-11.66.7-22.31,8.51-29.19,8.79-7.75,22.25-9.59,36-4.91,22.24,7.57,51.78,3,52.07,3a5,5,0,0,1,1.56,9.88c-1.3.21-32.24,5-56.85-3.41-10.33-3.51-20.12-2.41-26.18,2.94-5.12,4.51-7,11.5-5.34,19.68,3.75,18.26,26.68,18.59,26.91,18.6a5.17,5.17,0,0,1,.57,0c4.51.54,44.27,5.87,52.38,25.77A5,5,0,0,1,97.1,279Z"/><path class="cls-1" d="M293.83,217.39a5.06,5.06,0,0,1-2.53-.68,5,5,0,0,1-1.79-6.82c.09-.17,3-5.53,1.52-11-1-3.48-3.61-6.47-7.88-8.89-4-2.28-7.64-2.92-11-1.94-6.24,1.79-9.92,8.45-10,8.52a5,5,0,0,1-8.83-4.7c.22-.43,5.6-10.39,15.92-13.4,6.07-1.77,12.41-.83,18.84,2.82,6.72,3.81,11,8.88,12.63,15.08,2.58,9.61-2.35,18.18-2.56,18.54A5,5,0,0,1,293.83,217.39Z"/><path class="cls-1" d="M288.64,363.91a38.81,38.81,0,0,1-7.49-.74c-17.27-3.43-25.47-12.3-29.31-19.14a31.44,31.44,0,0,1-4.2-14.77,5,5,0,0,1,5-4.93h.07a5,5,0,0,1,4.93,5.07c0,.73.33,19,25.46,23.95,11.86,2.35,24.25-3.09,32.32-14.22,6.44-8.87,10.69-23,3.32-36.18-13.39-23.87-37.41-17.93-37.65-17.87a5,5,0,1,1-2.52-9.67c10.92-2.84,35.19-1.78,48.89,22.64,8.1,14.45,6.59,32.44-3.94,46.95C314.77,357.07,301.88,363.91,288.64,363.91Z"/><path class="cls-1" d="M170.51,304.21c-8.45,0-15.88-2-21.76-6a31,31,0,0,1-12.91-19.74C132.76,263,140.5,244.09,158.78,239c10.22-2.84,19.13-2,26.46,2.51,11.8,7.24,14.75,21.32,14.87,21.91a5,5,0,0,1-9.8,2c0-.1-2.29-10.5-10.36-15.42-4.86-3-11.09-3.41-18.5-1.35-12.67,3.51-18,16.9-15.8,27.8,1,4.86,6,20.45,30.74,17.37a5,5,0,0,1,1.24,9.92A58.48,58.48,0,0,1,170.51,304.21Z"/><path class="cls-1" d="M399.85,473.48a45.62,45.62,0,0,1-25.81-7.6,5,5,0,0,1,5.65-8.26c9.17,6.28,22.46,7.58,34.68,3.39,12.9-4.41,22.57-14,26.53-26.27a5,5,0,1,1,9.52,3.06c-4.94,15.32-16.9,27.23-32.81,32.67A54.85,54.85,0,0,1,399.85,473.48Z"/><path class="cls-1" d="M96.34,364.33a5,5,0,0,1-3.78-1.71c-23.26-26.74-24.2-64.28-24.23-65.86a5,5,0,0,1,4.91-5.09h.1a5,5,0,0,1,5,4.9h0c0,.35,1,35.55,21.78,59.48a5,5,0,0,1-3.77,8.28Z"/><path class="cls-1" d="M95,95a5,5,0,0,1-3.27-8.78c.6-.53,13.35-11.3,34-8.32a92.61,92.61,0,0,1-3.55-13.66c-3.07-17.54.48-32,10.26-41.78a5,5,0,0,1,7.08,7.08c-18.25,18.24-1.24,52.88-1.07,53.22a5,5,0,0,1-6.05,7c-21.06-7-34,3.93-34.15,4A5,5,0,0,1,95,95Z"/></svg>