<?xml version="1.0" ?><svg id="Lines" viewBox="0 0 512 512" xmlns="http://www.w3.org/2000/svg"><defs><style>.cls-1{fill:#3f456b;}</style></defs><title/><g data-name="&lt;编组&gt;" id="_编组_"><path class="cls-1" d="M414.81,342a5,5,0,0,1-4.93-5.84l-1.52-12.34c-137.52,14.33-276.17,2.58-303.69,0L103,337.38a5,5,0,0,1-9.92-1.23l2.28-18.48a5,5,0,0,1,5.49-4.36c1.57.16,158,16.67,311.34,0a5,5,0,0,1,5.5,4.36L420,336.15a5,5,0,0,1-1.42,4.15l-.2.19A5,5,0,0,1,414.81,342Z"/><path class="cls-1" d="M256.13,500.39c-16.65,0-26.5-7.14-26.91-7.44a5,5,0,0,1-2-4c0-29.66-6.81-55.83-20.23-77.76-10.72-17.53-25.71-32.47-44.53-44.4-32.24-20.45-64.74-25-65.07-25a5,5,0,0,1,1.33-9.91c1.42.19,35,4.89,69.1,26.5,31.24,19.81,68.39,58,69.38,127.77a41.46,41.46,0,0,0,19,4.31A43.34,43.34,0,0,0,275.48,486c1-69.73,38.15-107.91,69.38-127.72,34.08-21.61,67.68-26.31,69.1-26.5a5,5,0,0,1,1.33,9.91c-.33,0-33.13,4.68-65.37,25.22-18.75,11.95-33.67,26.89-44.34,44.4-13.35,21.9-20.12,48-20.12,77.58a5,5,0,0,1-2.11,4.08C282.92,493.31,272.74,500.39,256.13,500.39Z"/></g><path class="cls-1" d="M167.6,284a232.45,232.45,0,0,1-30.32-2c-27.22-3.58-44.45-10.66-45.17-11a5,5,0,0,1-3.06-5.1,171,171,0,0,1,41.49-96.84c17.87-20.41,34.58-29.86,35.28-30.25a5,5,0,0,1,4.4-.23c.77.33,19.16,8.29,37.74,28,17.11,18.2,37.59,50.26,38,99.72a5,5,0,0,1-3.31,4.74A221.94,221.94,0,0,1,167.6,284ZM99.42,263.08c14.41,5,71.75,21.79,136.47-.19-1-35.54-12.85-65.6-35.21-89.38a121.22,121.22,0,0,0-32.13-24.62A149.36,149.36,0,0,0,137.79,176,160.93,160.93,0,0,0,99.42,263.08Z"/><path class="cls-1" d="M344.12,284a221.85,221.85,0,0,1-75-12.85,5,5,0,0,1-3.31-4.74c.4-49.46,20.88-81.52,38-99.72,18.58-19.76,37-27.72,37.75-28a5,5,0,0,1,4.39.23c.71.39,17.42,9.84,35.29,30.25a171,171,0,0,1,41.48,96.84,5,5,0,0,1-3.05,5.1c-.72.3-17.95,7.38-45.18,11A232.45,232.45,0,0,1,344.12,284Zm-68.29-21.08c64.85,22,122.08,5.19,136.48.19-8.57-71.6-58.16-107.14-69.13-114.19a122,122,0,0,0-32.44,25C288.58,197.57,276.84,227.52,275.83,262.89Z"/><path class="cls-1" d="M271,271.44a4.87,4.87,0,0,1-1.29-.17c-12.74-3.39-27.5,0-27.65,0a5,5,0,1,1-2.29-9.73c.7-.17,17.38-4,32.52,0a5,5,0,0,1-1.29,9.83Z"/><path class="cls-1" d="M344.37,148.29a5,5,0,0,1-5-5V111.67a1.93,1.93,0,0,1,0-.24c0-.42,1.66-42.39-23.81-69.08C301.42,27.52,281.37,20,256,20s-45.42,7.52-59.57,22.35C171,69,172.61,111,172.62,111.43a1.93,1.93,0,0,1,0,.24v31.62a5,5,0,0,1-10,0V111.78c-.14-3.24-1.44-46.93,26.51-76.27C205.26,18.58,227.76,10,256,10s50.74,8.58,66.86,25.51c27.95,29.34,26.65,73,26.51,76.27v31.51A5,5,0,0,1,344.37,148.29Z"/><path class="cls-1" d="M94.3,271.44H64a5,5,0,0,1,0-10H94.3a5,5,0,1,1,0,10Z"/><path class="cls-1" d="M448,271.44H417.7a5,5,0,0,1,0-10H448a5,5,0,0,1,0,10Z"/><path class="cls-1" d="M414,404c-10.45,0-15.42-4.78-17.74-8.79-4.54-7.84-3.54-20.45,3-37.49a177.43,177.43,0,0,1,10.42-22.21,5,5,0,0,1,8.68,0,177.43,177.43,0,0,1,10.42,22.21c6.52,17,7.52,29.65,3,37.49C429.42,399.22,424.45,404,414,404Zm0-55.28c-7,14.41-13.65,33.6-9.09,41.48.55.94,2.21,3.8,9.09,3.8s8.54-2.86,9.09-3.8C427.65,382.32,421,363.13,414,348.72Z"/><path class="cls-1" d="M464,365a5,5,0,0,1-4.5-2.83c-11.28-23.42-44.27-20-44.61-20a5,5,0,0,1-1.13-9.93,73,73,0,0,1,21.58,1.35C451,337,462.5,345.35,468.5,357.83A5,5,0,0,1,464,365Z"/><path class="cls-1" d="M411,324a5,5,0,0,1-.67-9.95l22-3a5,5,0,1,1,1.36,9.9l-22,3A4,4,0,0,1,411,324Z"/><path class="cls-1" d="M101.44,404C91,404,86,399.22,83.7,395.21c-4.53-7.84-3.53-20.45,3-37.49a175.08,175.08,0,0,1,10.43-22.21,5,5,0,0,1,8.67,0,175.08,175.08,0,0,1,10.43,22.21c6.51,17,7.51,29.65,3,37.49C116.86,399.22,111.9,404,101.44,404Zm0-55.28c-7,14.41-13.65,33.6-9.08,41.48.54.94,2.2,3.8,9.08,3.8s8.55-2.86,9.09-3.8C115.1,382.32,108.47,363.13,101.44,348.72Z"/><path class="cls-1" d="M51.44,365a4.88,4.88,0,0,1-2.16-.5,5,5,0,0,1-2.34-6.67C53,345.35,64.42,337,80.1,333.59a73,73,0,0,1,21.58-1.35,5,5,0,0,1-1.13,9.93c-.48-.05-33.35-3.37-44.6,20A5,5,0,0,1,51.44,365Z"/><path class="cls-1" d="M104.45,324a4,4,0,0,1-.68-.05l-22-3a5,5,0,1,1,1.35-9.9l22,3a5,5,0,0,1-.67,9.95Z"/></svg>