<?xml version="1.0" ?><svg id="Lines" viewBox="0 0 512 512" xmlns="http://www.w3.org/2000/svg"><defs><style>.cls-1{fill:#3f456b;}</style></defs><title/><path class="cls-1" d="M79.35,468.05h0l-25.08-.27a5,5,0,0,1-4.95-5L48.8,317.17c0-.65.41-58.67-19-110.63A5,5,0,1,1,39.11,203C59.25,256.79,58.83,314.77,58.8,317.21l.45,140.63,15.4.16c1-16.45,4.49-73.12,9-132.12,2.41-31.45,11.76-53.28,27.77-64.88a46.36,46.36,0,0,1,35.89-7.93,5,5,0,0,1-2.36,9.72,36.16,36.16,0,0,0-27.8,6.41c-13.44,9.84-21.36,29.16-23.53,57.45-5.36,69.65-9.27,136-9.31,136.69A5,5,0,0,1,79.35,468.05Z"/><path class="cls-1" d="M475.88,467.93H302.34c-53.57,0-73.16-41.29-74-43.05l-41.25-93.34c0-.09-.08-.18-.11-.27C173.4,295,152.76,267,125.67,248.21,102.46,232.1,79.87,226.45,69,223.73l-1-.25C52,219.48,30,214,19.1,194c-8.84-16.31-8.21-38.51,1.93-67.85,21-60.93,77.19-88.5,79.57-89.65a5,5,0,0,1,5.77,1c.5.52,49.89,52.58,106,151.77,15,26.56,27.12,54.85,37.8,79.8,18,42,33.5,78.3,56,93.11,35.48,23.31,59.9,2.78,60.14,2.57a5,5,0,0,1,5.08-.89l13.82,5.33c74.28,28.61,115.19,44.37,115.19,77.43,0,15.75-15.86,20.8-24.24,21.26ZM196.33,327.62l41.16,93.16c.68,1.44,17.86,37.15,64.85,37.15H475.71c1.45-.11,14.69-1.39,14.69-11.27,0-26.19-38.64-41.08-108.79-68.1l-11.26-4.34A54,54,0,0,1,352.26,382c-11.59,2.65-29.94,2.82-51.59-11.41-25.05-16.46-41.12-54-59.74-97.52-11.09-25.93-22.57-52.74-37.31-78.82h0c-42.2-74.66-83.57-127.06-101.89-147-12,6.72-54.38,33.34-71.25,82.19-9,26.18-9.91,46.31-2.59,59.82,8.75,16.13,28.28,21,42.54,24.56l1,.25c11.44,2.86,35.23,8.81,59.94,26C160.13,260,182,289.44,196.33,327.62Z"/><path class="cls-1" d="M80.79,432.77H54.42a5,5,0,0,1,0-10H80.79a5,5,0,1,1,0,10Z"/></svg>