<?xml version="1.0" ?><svg viewBox="0 0 512 512" xmlns="http://www.w3.org/2000/svg"><defs><style>.cls-1{fill:#3f456b;}</style></defs><title/><g id="Lines"><path class="cls-1" d="M496,138H401.26c-8.46,0-15.26-2.62-20.23-7.79-8.11-8.43-8.07-20.64-8-22.09V16h10v92.39c0,.07-.22,9.27,5.28,14.93,3,3.11,7.38,4.68,13,4.68H496Z"/><path class="cls-1" d="M472.68,468H448a5,5,0,0,1,0-10h24.68c11.75,0,21.32-10.6,21.32-23.62V135.62c0-11.37-10.55-24.31-14.62-28.33-.67-.68-62.23-63.27-75-76.09A38.77,38.77,0,0,0,378.68,20H159.05A23.34,23.34,0,0,0,136,43V166a5,5,0,0,1-10,0V43c0-17.89,15.13-33,33.05-33H378.59a48.77,48.77,0,0,1,32.82,14.13c12.84,12.85,74.43,75.47,75,76.1S504,117.8,504,135.62V434.38C504,452.92,490,468,472.68,468Z"/><path class="cls-1" d="M308.79,478.6H155.11a14.74,14.74,0,0,1-14.73-14.72v-10.7a5,5,0,1,1,10,0v10.7a4.73,4.73,0,0,0,4.73,4.72H308.79a4.73,4.73,0,0,0,4.72-4.72v-10.7a5,5,0,0,1,10,0v10.7A14.73,14.73,0,0,1,308.79,478.6Z"/><path class="cls-1" d="M418.59,500h-372A34.59,34.59,0,0,1,12,465.45V453.18a5,5,0,0,1,5-5H447.87a5,5,0,0,1,5,5v12.27A34.45,34.45,0,0,1,418.59,500ZM22,458.18v7.27A24.57,24.57,0,0,0,46.54,490h372a24.44,24.44,0,0,0,24.28-24.55v-7.27Z"/><path class="cls-1" d="M401.79,458.18a5,5,0,0,1,0-10,24.57,24.57,0,0,0,24.55-24.55V204.55A24.57,24.57,0,0,0,401.79,180H66.73c-2,.12-28.2,2.3-28.2,31V423.63a24.57,24.57,0,0,0,24.54,24.55,5,5,0,0,1,0,10,34.59,34.59,0,0,1-34.54-34.55V211c0-38.87,37.47-41,37.85-41H401.79a34.59,34.59,0,0,1,34.55,34.55V423.63A34.59,34.59,0,0,1,401.79,458.18Z"/></g><g id="Outline"><path class="cls-1" d="M218.42,95.24a5,5,0,0,1-5-5V58.59a5,5,0,0,1,10,0V90.24A5,5,0,0,1,218.42,95.24Z"/><path class="cls-1" d="M259.62,148a5,5,0,0,1-5-5V111.35a5,5,0,0,1,10,0V143A5,5,0,0,1,259.62,148Z"/><path class="cls-1" d="M173.21,96.56c-11.89,0-16.21-9.69-16.21-16.21V69.14c0-6.52,4.32-16.21,16.21-16.21s16.21,9.69,16.21,16.21V80.35C189.42,86.87,185.1,96.56,173.21,96.56Zm0-33.63c-5.28,0-6.16,3.92-6.21,6.26V80.35c.05,2.29.93,6.21,6.21,6.21s6.16-3.9,6.21-6.25V69.14C179.37,66.85,178.5,62.93,173.21,62.93Z"/><path class="cls-1" d="M259.62,96.56c-11.89,0-16.21-9.69-16.21-16.21V69.14c0-6.52,4.32-16.21,16.21-16.21s16.21,9.69,16.21,16.21V80.35C275.83,86.87,271.52,96.56,259.62,96.56Zm0-33.63c-5.28,0-6.16,3.92-6.21,6.26V80.35c.05,2.29.93,6.21,6.21,6.21s6.16-3.9,6.21-6.25V69.14C265.78,66.85,264.91,62.93,259.62,62.93Z"/><path class="cls-1" d="M217.76,148c-11.9,0-16.21-9.69-16.21-16.21V120.58c0-6.52,4.31-16.21,16.21-16.21S234,114.06,234,120.58v11.21C234,138.31,229.65,148,217.76,148Zm0-33.63c-5.76,0-6.21,4.75-6.21,6.21v11.21c0,2.29.92,6.21,6.21,6.21s6.15-3.91,6.21-6.25V120.58C223.92,118.29,223,114.37,217.76,114.37Z"/><path class="cls-1" d="M173.46,148c-11.89,0-16.21-9.69-16.21-16.21V120.58c0-6.52,4.32-16.21,16.21-16.21s16.21,9.69,16.21,16.21v11.21C189.67,138.31,185.35,148,173.46,148Zm0-33.63c-5.76,0-6.21,4.75-6.21,6.21v11.21c.05,2.29.93,6.21,6.21,6.21s6.16-3.91,6.21-6.25V120.58C179.62,118.29,178.75,114.37,173.46,114.37Z"/><path class="cls-1" d="M300.81,95.24a5,5,0,0,1-5-5V58.59a5,5,0,1,1,10,0V90.24A5,5,0,0,1,300.81,95.24Z"/><path class="cls-1" d="M300.15,148c-11.9,0-16.21-9.69-16.21-16.21V120.58c0-6.52,4.31-16.21,16.21-16.21s16.21,9.69,16.21,16.21v11.21C316.36,138.31,312,148,300.15,148Zm0-33.63c-5.76,0-6.21,4.75-6.21,6.21v11.21c.05,2.29.92,6.21,6.21,6.21s6.15-3.91,6.21-6.25V120.58C306.31,118.29,305.43,114.37,300.15,114.37Z"/><path class="cls-1" d="M342,146.42a5,5,0,0,1-5-5V109.76a5,5,0,1,1,10,0v31.66A5,5,0,0,1,342,146.42Z"/><path class="cls-1" d="M341.34,95.93c-11.89,0-16.21-9.7-16.21-16.21V68.51c0-6.52,4.32-16.21,16.21-16.21S357.55,62,357.55,68.51V79.72C357.55,86.23,353.24,95.93,341.34,95.93Zm0-33.63c-5.28,0-6.16,3.92-6.21,6.26V79.72c.05,2.29.93,6.21,6.21,6.21s6.16-3.91,6.21-6.25V68.51C347.5,66.22,346.63,62.3,341.34,62.3Z"/><path class="cls-1" d="M81,293a5,5,0,0,1-3.54-8.54l29-29-29-29a5,5,0,0,1,7.08-7.08l36,36-36,36A5,5,0,0,1,81,293Z"/><path class="cls-1" d="M176,292.19H131.38a5,5,0,0,1,0-10H176a5,5,0,0,1,0,10Z"/></g></svg>