<?xml version="1.0" ?><svg viewBox="0 0 512 512" xmlns="http://www.w3.org/2000/svg"><defs><style>.cls-1{fill:#3f456b;}</style></defs><title/><g id="Lines"><path class="cls-1" d="M34.19,468.57A21.81,21.81,0,1,1,56,446.76,21.83,21.83,0,0,1,34.19,468.57Zm0-33.62A11.81,11.81,0,1,0,46,446.76,11.83,11.83,0,0,0,34.19,435Z"/><path class="cls-1" d="M451.64,91.53A31.27,31.27,0,1,1,482.9,60.26,31.3,31.3,0,0,1,451.64,91.53Zm0-52.53A21.27,21.27,0,1,0,472.9,60.26,21.29,21.29,0,0,0,451.64,39Z"/><path class="cls-1" d="M259.36,447.86h-5.55c-46.29,0-85.43-5.4-116.33-16-25.16-8.66-45-20.83-59.07-36.16-23.9-26.13-22.87-52.51-22.66-55.56V216.8c0-110.1,89.92-199.67,200.44-199.67H257A199.94,199.94,0,0,1,457.25,216.8V340.09c.22,3.08,1.28,29.45-22.58,55.57-14,15.33-33.86,27.5-59,36.16C344.77,442.46,305.64,447.86,259.36,447.86ZM256.19,27.13c-105,0-190.44,85.09-190.44,189.67V340.28a3.39,3.39,0,0,1,0,.45C65.72,341,64,365.3,86,389.17c37.11,40.24,111.71,48.69,167.77,48.69h5.55c56.05,0,130.63-8.45,167.68-48.68,22-23.87,20.25-48.22,20.23-48.46s0-.3,0-.44V216.8A189.93,189.93,0,0,0,257,27.13Z"/><path class="cls-1" d="M257,494.84h-1c-43.68,0-105.35-6.12-151.13-35.24-28-17.79-36.76-35.76-37.13-36.51a5,5,0,0,1-.48-2.16V379.17a5,5,0,0,1,10,0v40.5c2.1,3.64,11.29,17.89,33.76,32,43.71,27.42,103,33.18,145,33.18h1c136.62,0,174.21-57.25,178.75-65.16V379.17a5,5,0,0,1,10,0v41.76a5.05,5.05,0,0,1-.49,2.16c-.36.75-9.16,18.72-37.13,36.51C362.37,488.72,300.7,494.84,257,494.84Z"/><path class="cls-1" d="M318.08,490.52h-.37a5,5,0,0,1-4.62-5.36c2-26.86-1.82-44.15-1.86-44.32a5,5,0,0,1,9.75-2.22c.17.76,4.18,18.79,2.08,47.28A5,5,0,0,1,318.08,490.52Z"/><path class="cls-1" d="M115.11,464.91a5,5,0,0,1-5-4.81c-1-26.61,5.69-41.87,6-42.5a5,5,0,0,1,9.13,4.07c-.11.26-6,14.09-5.11,38.05a5,5,0,0,1-4.81,5.19Z"/><path class="cls-1" d="M463.73,311.09H452.25a5,5,0,0,1,0-10h11.48c2.95,0,5.44-3.13,5.44-6.85V204.15c0-3.71-2.49-6.85-5.44-6.85H452.25a5,5,0,0,1,0-10h11.48c8.52,0,15.44,7.56,15.44,16.85v90.09C479.17,303.53,472.25,311.09,463.73,311.09Z"/><path class="cls-1" d="M475.4,302a5,5,0,0,1-3-9c11.33-8.5,18.36-25.3,18.36-43.82s-7.41-35.95-18.87-44.2a5,5,0,0,1,5.84-8.12c14.21,10.22,23,30.27,23,52.32,0,21.61-8.56,41.46-22.35,51.81A5,5,0,0,1,475.4,302Z"/><path class="cls-1" d="M60.75,311.09H48.92c-8.46,0-15.09-7.4-15.09-16.85V204.15c0-9.45,6.63-16.85,15.09-16.85H60.75a5,5,0,0,1,0,10H48.92c-2.85,0-5.09,3-5.09,6.85v90.09c0,3.84,2.24,6.85,5.09,6.85H60.75a5,5,0,0,1,0,10Z"/><path class="cls-1" d="M37.85,302.45a5,5,0,0,1-2.92-.94c-14.2-10.22-23-30.26-23-52.31,0-21.61,8.56-41.47,22.35-51.82a5,5,0,1,1,6,8c-11.32,8.5-18.35,25.29-18.35,43.82s7.4,35.95,18.86,44.19a5,5,0,0,1-2.92,9.06Z"/><path class="cls-1" d="M256,410.79c-56.09,0-97.74-10.45-127.34-32a119.51,119.51,0,0,1-39.34-49.08C79.83,308.39,75,282.32,75,252.26c0-47.75,18.12-83.44,53.85-106.08,30.18-19.13,72.94-28.83,127.08-28.83s96.9,9.7,127.08,28.83c35.73,22.64,53.85,58.33,53.85,106.08,0,30.06-4.79,56.13-14.25,77.5a119.59,119.59,0,0,1-39.34,49.08C353.71,400.34,312.06,410.79,256,410.79Zm0-283.44c-52.22,0-93.17,9.18-121.73,27.27C101.59,175.31,85,208.17,85,252.26,85,353.6,139.35,400.79,256,400.79S426.9,353.6,426.9,252.26c0-44.09-16.55-76.95-49.2-97.64C349.14,136.53,308.18,127.35,256,127.35Z"/><path class="cls-1" d="M297,470a5,5,0,0,1-5-5v-1a5,5,0,0,1,10,0v1A5,5,0,0,1,297,470Z"/><path class="cls-1" d="M136,454a5,5,0,0,1-5-5v-1a5,5,0,0,1,10,0v1A5,5,0,0,1,136,454Z"/><path class="cls-1" d="M338,465a5,5,0,0,1-5-5v-1a5,5,0,0,1,10,0v1A5,5,0,0,1,338,465Z"/></g><g id="Outline"><path class="cls-1" d="M174.6,400.64a5,5,0,0,1-5-4.41,149.13,149.13,0,0,1-1-17.45c0-81.12,66-147.11,147.11-147.11a146.32,146.32,0,0,1,116,56.57,5,5,0,0,1-7.88,6.16,136.36,136.36,0,0,0-108.08-52.73c-75.61,0-137.11,61.51-137.11,137.11a139.73,139.73,0,0,0,.95,16.27,5,5,0,0,1-4.38,5.55A4,4,0,0,1,174.6,400.64Z"/><path class="cls-1" d="M330.17,353.18a46.25,46.25,0,1,1,42.39-27.64,5,5,0,1,1-9.15-4,36.31,36.31,0,1,0-33.24,21.68,5,5,0,0,1,0,10Z"/><path class="cls-1" d="M225.7,367.62a23.29,23.29,0,1,1,22.23-30.2,5,5,0,1,1-9.55,3A13.29,13.29,0,1,0,229.63,357a5,5,0,1,1,3,9.55A23.36,23.36,0,0,1,225.7,367.62Z"/><path class="cls-1" d="M260.85,409.23a5,5,0,0,1-4.89-4c-1.61-7.53-.23-24.17,16.57-33.29,12.15-6.59,27.5-6.51,38.18.21,8.91,5.59,13.5,15,13,26.41a5,5,0,0,1-10-.48c.38-7.79-2.48-13.82-8.28-17.46-7.6-4.78-19.15-4.74-28.09.11-14.49,7.87-11.59,22.25-11.56,22.4a5,5,0,0,1-3.84,5.94A5.35,5.35,0,0,1,260.85,409.23Z"/><path class="cls-1" d="M359,343a5,5,0,0,1-3.54-8.54l.71-.7a5,5,0,1,1,7.07,7.07l-.7.71A5,5,0,0,1,359,343Z"/><path class="cls-1" d="M255.42,180.94h-11.3a5,5,0,0,1,0-10h11.3a5,5,0,1,1,0,10Z"/><path class="cls-1" d="M300,180.94H287.33a5,5,0,0,1,0-10H300a5,5,0,0,1,0,10Z"/><path class="cls-1" d="M271.6,209.31a5,5,0,0,1-5-5V191.78a5,5,0,1,1,10,0v12.53A5,5,0,0,1,271.6,209.31Z"/><path class="cls-1" d="M271.6,166.42a5,5,0,0,1-5-5v-13a5,5,0,0,1,10,0v13A5,5,0,0,1,271.6,166.42Z"/><path class="cls-1" d="M271.75,196.13a19.64,19.64,0,1,1,19.63-19.64A19.66,19.66,0,0,1,271.75,196.13Zm0-29.27a9.64,9.64,0,1,0,9.63,9.63A9.64,9.64,0,0,0,271.75,166.86Z"/></g></svg>