<?xml version="1.0" ?><svg viewBox="0 0 512 512" xmlns="http://www.w3.org/2000/svg"><defs><style>.cls-1{fill:#3f456b;}</style></defs><title/><g id="Lines"><path class="cls-1" d="M459,484l-406.31-.25a42.67,42.67,0,0,1-15.88-3C21.35,475.17,11,460,11,443V210l.35-60.46A39.56,39.56,0,0,1,50.87,110H461.06a39.57,39.57,0,0,1,39.52,39.53v293.7c0,17-10.34,32.15-25.76,37.77A42.76,42.76,0,0,1,459,484ZM50.87,120a29.56,29.56,0,0,0-29.52,29.53L21,210V443c0,12.84,7.76,24.27,19.3,28.42l.37.15a32.86,32.86,0,0,0,12,2.16L459,474a32.52,32.52,0,0,0,12-2.16,3,3,0,0,1,.38-.15c11.54-4.16,19.29-15.58,19.29-28.42V149.57A29.56,29.56,0,0,0,461.06,120Z"/><path class="cls-1" d="M358,115H348V80.9c0-10.41-4.07-18-12.43-23.06l5.21-8.53C352.05,56.19,358,67.11,358,80.9Z"/><path class="cls-1" d="M162.86,115h-10V80.9c0-14.59,6.64-25.9,19.2-32.7L176.82,57c-9.39,5.09-14,12.91-14,23.91Z"/><path class="cls-1" d="M16,200a5,5,0,0,1,0-10,75.09,75.09,0,0,0,75-75,5,5,0,0,1,10,0A85.1,85.1,0,0,1,16,200Z"/><path class="cls-1" d="M95,484a5,5,0,0,1-5-5,74.09,74.09,0,0,0-74-74,5,5,0,0,1,0-10,84.09,84.09,0,0,1,84,84A5,5,0,0,1,95,484Z"/><path class="cls-1" d="M415,484a5,5,0,0,1-5-5,85.1,85.1,0,0,1,85-85,5,5,0,0,1,0,10,75.09,75.09,0,0,0-75,75A5,5,0,0,1,415,484Z"/><path class="cls-1" d="M495,199a84.09,84.09,0,0,1-84-84,5,5,0,0,1,10,0,74.09,74.09,0,0,0,74,74,5,5,0,0,1,0,10Z"/><path class="cls-1" d="M233,483a5,5,0,0,1-5-5V231a5,5,0,0,1,10,0V478A5,5,0,0,1,233,483Z"/><path class="cls-1" d="M281,483a5,5,0,0,1-5-5V231a5,5,0,0,1,10,0V478A5,5,0,0,1,281,483Z"/><path class="cls-1" d="M233,180a5,5,0,0,1-5-5V116a5,5,0,0,1,10,0v59A5,5,0,0,1,233,180Z"/><path class="cls-1" d="M281,180a5,5,0,0,1-5-5V116a5,5,0,0,1,10,0v59A5,5,0,0,1,281,180Z"/><path class="cls-1" d="M289,236H225a15,15,0,0,1-15-15V185a15,15,0,0,1,15-15h64a15,15,0,0,1,15,15v36A15,15,0,0,1,289,236Zm-64-56a5,5,0,0,0-5,5v36a5,5,0,0,0,5,5h64a5,5,0,0,0,5-5V185a5,5,0,0,0-5-5Z"/><path class="cls-1" d="M258,302h-1a5,5,0,0,1,0-10h1a5,5,0,0,1,0,10Z"/><path class="cls-1" d="M258,366.93h-1a5,5,0,0,1,0-10h1a5,5,0,0,1,0,10Z"/><path class="cls-1" d="M258,431.86h-1a5,5,0,0,1,0-10h1a5,5,0,0,1,0,10Z"/><path class="cls-1" d="M334,75H179.09a5,5,0,0,1-4.83-3.71l-8.54-32a5,5,0,0,1,2.53-5.73C169.56,32.88,200.93,17,254.93,17s87.31,15.82,88.7,16.5a5,5,0,0,1,2.69,5.64l-7.47,32A5,5,0,0,1,334,75Zm-151-10H330l5.63-24.1C322.1,35.35,292.3,27,254.93,27c-37.09,0-65.6,8.23-78.47,13.76Z"/><path class="cls-1" d="M257,254a5,5,0,0,1-5-5V214a5,5,0,0,1,10,0v35A5,5,0,0,1,257,254Z"/></g><g id="Outline"><path class="cls-1" d="M41,400.06a5,5,0,0,1-5-5v-1a5,5,0,0,1,10,0v1A5,5,0,0,1,41,400.06Zm0-21a5,5,0,0,1-5-5v-1a5,5,0,0,1,10,0v1A5,5,0,0,1,41,379.06Zm0-21a5,5,0,0,1-5-5v-1a5,5,0,0,1,10,0v1A5,5,0,0,1,41,358.06Zm0-21a5,5,0,0,1-5-5v-1a5,5,0,0,1,10,0v1A5,5,0,0,1,41,337.06Zm0-21a5,5,0,0,1-5-5v-1a5,5,0,0,1,10,0v1A5,5,0,0,1,41,316.06Zm0-21a5,5,0,0,1-5-5v-1a5,5,0,0,1,10,0v1A5,5,0,0,1,41,295.06Zm0-21a5,5,0,0,1-5-5v-1a5,5,0,0,1,10,0v1A5,5,0,0,1,41,274.06Zm0-21a5,5,0,0,1-5-5v-1a5,5,0,0,1,10,0v1A5,5,0,0,1,41,253.06Zm0-21a5,5,0,0,1-5-5v-1a5,5,0,0,1,10,0v1A5,5,0,0,1,41,232.06Zm0-21a5,5,0,0,1-5-5v-1a5,5,0,0,1,10,0v1A5,5,0,0,1,41,211.06Z"/><path class="cls-1" d="M233,451h-1a5,5,0,0,1,0-10h1a5,5,0,0,1,0,10Zm-21,0h-1a5,5,0,0,1,0-10h1a5,5,0,0,1,0,10Zm-21,0h-1a5,5,0,0,1,0-10h1a5,5,0,0,1,0,10Zm-21,0h-1a5,5,0,0,1,0-10h1a5,5,0,0,1,0,10Zm-21,0h-1a5,5,0,0,1,0-10h1a5,5,0,0,1,0,10Zm-21,0h-1a5,5,0,0,1,0-10h1a5,5,0,0,1,0,10Zm-21,0h-1a5,5,0,0,1,0-10h1a5,5,0,0,1,0,10Z"/><path class="cls-1" d="M419.4,451h-1a5,5,0,0,1,0-10h1a5,5,0,0,1,0,10Zm-21,0h-1a5,5,0,0,1,0-10h1a5,5,0,0,1,0,10Zm-21,0h-1a5,5,0,0,1,0-10h1a5,5,0,0,1,0,10Zm-21,0h-1a5,5,0,0,1,0-10h1a5,5,0,0,1,0,10Zm-21,0h-1a5,5,0,0,1,0-10h1a5,5,0,0,1,0,10Zm-21,0h-1a5,5,0,0,1,0-10h1a5,5,0,0,1,0,10Zm-21,0h-1a5,5,0,0,1,0-10h1a5,5,0,0,1,0,10Z"/><path class="cls-1" d="M472,393a5,5,0,0,1-5-5v-1a5,5,0,1,1,10,0v1A5,5,0,0,1,472,393Zm0-21a5,5,0,0,1-5-5v-1a5,5,0,1,1,10,0v1A5,5,0,0,1,472,372Zm0-21a5,5,0,0,1-5-5v-1a5,5,0,1,1,10,0v1A5,5,0,0,1,472,351Zm0-21a5,5,0,0,1-5-5v-1a5,5,0,1,1,10,0v1A5,5,0,0,1,472,330Zm0-21a5,5,0,0,1-5-5v-1a5,5,0,1,1,10,0v1A5,5,0,0,1,472,309Zm0-21a5,5,0,0,1-5-5v-1a5,5,0,1,1,10,0v1A5,5,0,0,1,472,288Zm0-21a5,5,0,0,1-5-5v-1a5,5,0,1,1,10,0v1A5,5,0,0,1,472,267Zm0-21a5,5,0,0,1-5-5v-1a5,5,0,1,1,10,0v1A5,5,0,0,1,472,246Zm0-21a5,5,0,0,1-5-5v-1a5,5,0,1,1,10,0v1A5,5,0,0,1,472,225Zm0-21a5,5,0,0,1-5-5v-1a5,5,0,1,1,10,0v1A5,5,0,0,1,472,204Z"/><path class="cls-1" d="M409.25,150h-1a5,5,0,0,1,0-10h1a5,5,0,0,1,0,10Zm-21,0h-1a5,5,0,0,1,0-10h1a5,5,0,0,1,0,10Zm-21,0h-1a5,5,0,0,1,0-10h1a5,5,0,0,1,0,10Zm-21,0h-1a5,5,0,0,1,0-10h1a5,5,0,0,1,0,10Zm-21,0h-1a5,5,0,0,1,0-10h1a5,5,0,0,1,0,10Zm-21,0h-1a5,5,0,0,1,0-10h1a5,5,0,0,1,0,10Zm-21,0h-1a5,5,0,0,1,0-10h1a5,5,0,0,1,0,10Z"/><path class="cls-1" d="M218.83,150h-1a5,5,0,0,1,0-10h1a5,5,0,1,1,0,10Zm-21,0h-1a5,5,0,0,1,0-10h1a5,5,0,1,1,0,10Zm-21,0h-1a5,5,0,0,1,0-10h1a5,5,0,1,1,0,10Zm-21,0h-1a5,5,0,0,1,0-10h1a5,5,0,1,1,0,10Zm-21,0h-1a5,5,0,0,1,0-10h1a5,5,0,1,1,0,10Zm-21,0h-1a5,5,0,1,1,0-10h1a5,5,0,0,1,0,10Zm-21,0h-1a5,5,0,1,1,0-10h1a5,5,0,0,1,0,10Z"/></g></svg>