<?xml version="1.0" ?><svg id="Lines" viewBox="0 0 512 512" xmlns="http://www.w3.org/2000/svg"><defs><style>.cls-1{fill:#3f456b;}</style></defs><title/><path class="cls-1" d="M447.11,259.89h-432a5,5,0,0,1,0-10h432a5,5,0,0,1,0,10Z"/><path class="cls-1" d="M285.7,421.3a5,5,0,0,1-3.53-8.54L440,254.89,282.17,97A5,5,0,0,1,289.24,90l161.4,161.4a5,5,0,0,1,0,7.07l-161.4,161.4A5,5,0,0,1,285.7,421.3Z"/><path class="cls-1" d="M495.11,453.89a5,5,0,0,1-5-5V61.11a5,5,0,0,1,10,0V448.89A5,5,0,0,1,495.11,453.89Z"/></svg>