<?xml version="1.0" ?><svg viewBox="0 0 512 512" xmlns="http://www.w3.org/2000/svg"><defs><style>.cls-1{fill:#3f456b;}</style></defs><title/><g id="Lines"><path class="cls-1" d="M443,81.39a5,5,0,0,1-2.58-9.28c13.22-7.94,32.05-4.35,32.85-4.2a5,5,0,1,1-1.93,9.81h0c-.15,0-15.88-3-25.78,3A5,5,0,0,1,443,81.39Z"/><path class="cls-1" d="M378.32,56.36A5,5,0,0,1,373.37,52c-.44-3.34-3-7.4-3.86-8.56a5,5,0,1,1,8-6c.5.67,4.91,6.74,5.75,13.24a5,5,0,0,1-4.31,5.6A4.87,4.87,0,0,1,378.32,56.36Z"/><path class="cls-1" d="M457.38,141.51H349a5,5,0,0,1,0-10H464.93a27.23,27.23,0,0,0,4.52-54,5,5,0,0,1-3.95-6.17,45.23,45.23,0,0,0-86.07-27.38,5,5,0,0,1-8.54,1.4,21.86,21.86,0,0,0-36.13,3.43A5,5,0,0,1,326,44a31.87,31.87,0,0,1,47.16-10.26A55.23,55.23,0,0,1,476.94,60a56.62,56.62,0,0,1-.72,8.93A37.23,37.23,0,0,1,465,141.51Z"/><path class="cls-1" d="M263.89,245.31a34.63,34.63,0,1,1,34.62-34.62A34.66,34.66,0,0,1,263.89,245.31Zm0-59.25a24.63,24.63,0,1,0,24.62,24.63A24.66,24.66,0,0,0,263.89,186.06Z"/><path class="cls-1" d="M344.72,245.31a34.63,34.63,0,1,1,34.63-34.62A34.66,34.66,0,0,1,344.72,245.31Zm0-59.25a24.63,24.63,0,1,0,24.63,24.63A24.66,24.66,0,0,0,344.72,186.06Z"/><path class="cls-1" d="M183.05,245.31a34.63,34.63,0,1,1,34.62-34.62A34.67,34.67,0,0,1,183.05,245.31Zm0-59.25a24.63,24.63,0,1,0,24.62,24.63A24.66,24.66,0,0,0,183.05,186.06Z"/><path class="cls-1" d="M110.46,396.49a57.82,57.82,0,0,1-19.09-3.4c-10.43-3.76-24.43-12.43-31.89-32.39a5,5,0,1,1,9.36-3.51c11.7,31.29,42.58,29.3,42.89,29.27a5,5,0,1,1,.77,10C112.39,396.44,111.67,396.49,110.46,396.49Z"/><path class="cls-1" d="M17.86,396.49c-1.21,0-1.94-.05-2-.06a5,5,0,0,1,.76-10c1.26.09,31.27,1.82,42.9-29.27a5,5,0,1,1,9.36,3.51c-7.46,20-21.47,28.63-31.9,32.39A57.74,57.74,0,0,1,17.86,396.49Z"/><path class="cls-1" d="M206.37,396.49a57.74,57.74,0,0,1-19.08-3.4c-10.43-3.76-24.44-12.43-31.9-32.39a5,5,0,1,1,9.36-3.51c11.63,31.09,41.65,29.36,42.91,29.27a5,5,0,0,1,.75,10C208.31,396.44,207.58,396.49,206.37,396.49Z"/><path class="cls-1" d="M113.77,396.49c-1.21,0-1.93-.05-2-.06a5,5,0,0,1,.75-10c1.31.09,31.29,1.8,42.91-29.27a5,5,0,1,1,9.36,3.51c-7.46,20-21.46,28.63-31.89,32.39A57.82,57.82,0,0,1,113.77,396.49Z"/><path class="cls-1" d="M302.72,396.49a57.74,57.74,0,0,1-19.08-3.4c-10.44-3.76-24.44-12.43-31.9-32.39a5,5,0,1,1,9.36-3.51c11.63,31.09,41.64,29.36,42.91,29.27a5,5,0,0,1,.75,10C304.65,396.44,303.93,396.49,302.72,396.49Z"/><path class="cls-1" d="M210.12,396.49c-1.21,0-1.93-.05-2-.06a5,5,0,0,1,.76-10c1.26.09,31.27,1.82,42.9-29.27a5,5,0,1,1,9.36,3.51c-7.46,20-21.46,28.63-31.9,32.39A57.74,57.74,0,0,1,210.12,396.49Z"/><path class="cls-1" d="M398.63,396.49a57.74,57.74,0,0,1-19.08-3.4c-10.43-3.76-24.44-12.43-31.9-32.39a5,5,0,0,1,9.37-3.51c11.7,31.29,42.57,29.3,42.89,29.27a5,5,0,0,1,.76,10C400.57,396.44,399.84,396.49,398.63,396.49Z"/><path class="cls-1" d="M306,396.49c-1.22,0-1.94-.05-2.05-.06a5,5,0,0,1,.75-10c1.31.09,31.29,1.8,42.91-29.27A5,5,0,0,1,357,360.7c-7.47,20-21.47,28.63-31.9,32.39A57.81,57.81,0,0,1,306,396.49Z"/><path class="cls-1" d="M494.54,396.49a57.81,57.81,0,0,1-19.08-3.4C465,389.33,451,380.66,443.56,360.7a5,5,0,0,1,9.37-3.51c11.7,31.29,42.58,29.3,42.89,29.27a5,5,0,1,1,.76,10C496.48,396.44,495.76,396.49,494.54,396.49Z"/><path class="cls-1" d="M402,396.49c-1.22,0-1.94-.05-2-.06a5,5,0,1,1,.76-10c1.26.09,31.26,1.82,42.89-29.27a5,5,0,1,1,9.37,3.51c-7.47,20-21.47,28.63-31.9,32.39A57.77,57.77,0,0,1,402,396.49Z"/><path class="cls-1" d="M206.59,451.27a57.82,57.82,0,0,1-19.09-3.4c-10.43-3.76-24.43-12.43-31.89-32.39A5,5,0,1,1,165,412c11.7,31.28,42.58,29.29,42.89,29.26a5,5,0,0,1,.77,10C208.52,451.22,207.8,451.27,206.59,451.27Z"/><path class="cls-1" d="M114,451.27c-1.21,0-1.94,0-2-.06a5,5,0,0,1,.76-10c1.26.09,31.27,1.82,42.9-29.26a5,5,0,1,1,9.36,3.5c-7.46,20-21.47,28.63-31.9,32.39A57.74,57.74,0,0,1,114,451.27Z"/><path class="cls-1" d="M302.5,451.27a57.74,57.74,0,0,1-19.08-3.4c-10.43-3.76-24.44-12.43-31.9-32.39a5,5,0,1,1,9.37-3.5c11.7,31.28,42.57,29.29,42.89,29.26a5,5,0,0,1,.76,10C304.44,451.22,303.71,451.27,302.5,451.27Z"/><path class="cls-1" d="M209.91,451.27c-1.22,0-1.94,0-2-.06a5,5,0,0,1,.75-10c1.31.09,31.29,1.8,42.91-29.26a5,5,0,1,1,9.37,3.5c-7.47,20-21.47,28.63-31.9,32.39A57.81,57.81,0,0,1,209.91,451.27Z"/><path class="cls-1" d="M398.85,451.27a57.74,57.74,0,0,1-19.08-3.4c-10.44-3.76-24.44-12.43-31.9-32.39a5,5,0,1,1,9.36-3.5c11.63,31.08,41.64,29.35,42.91,29.26a5,5,0,0,1,.75,10C400.78,451.22,400.06,451.27,398.85,451.27Z"/><path class="cls-1" d="M306.25,451.27c-1.21,0-1.93,0-2-.06a5,5,0,0,1,.77-10c1.25.09,31.26,1.82,42.89-29.26a5,5,0,1,1,9.36,3.5c-7.46,20-21.46,28.63-31.9,32.39A57.74,57.74,0,0,1,306.25,451.27Z"/><path class="cls-1" d="M384.89,354.7a20.82,20.82,0,0,1-20.79-20.79,5,5,0,1,1,10,0,10.79,10.79,0,1,0,21.58,0,5,5,0,0,1,10,0A20.81,20.81,0,0,1,384.89,354.7Z"/><path class="cls-1" d="M416.47,354.7a20.82,20.82,0,0,1-20.79-20.79,5,5,0,0,1,10,0,10.79,10.79,0,1,0,21.58,0,5,5,0,0,1,10,0A20.82,20.82,0,0,1,416.47,354.7Z"/><path class="cls-1" d="M400.68,338.91a5,5,0,0,1-5-5V287.42a5,5,0,0,1,10,0v46.49A5,5,0,0,1,400.68,338.91Z"/><path class="cls-1" d="M94.36,393.26a5,5,0,0,1-4.92-4.12C83,353,55,288.91,13,259.52a5,5,0,0,1,2.87-9.1h128a5,5,0,0,1,4.28,2.42l17.8,29.58H495.84a5,5,0,0,1,5,4.58c.24,2.82,5.48,69.5-27.11,101.21a5,5,0,1,1-7-7.16c24.62-24,24.9-73.38,24.36-88.63h-328a5,5,0,0,1-4.29-2.42L141,260.42H30.19c35.91,31.76,62,87,69.1,127a5,5,0,0,1-4.05,5.8A4.43,4.43,0,0,1,94.36,393.26Z"/><path class="cls-1" d="M96.51,308.07a17.17,17.17,0,1,1,17.17-17.16A17.18,17.18,0,0,1,96.51,308.07Zm0-24.33a7.17,7.17,0,1,0,7.17,7.17A7.17,7.17,0,0,0,96.51,283.74Z"/><path class="cls-1" d="M196.58,324a5,5,0,0,1-5-5v-1.94a5,5,0,0,1,10,0V319A5,5,0,0,1,196.58,324Z"/><path class="cls-1" d="M232,324a5,5,0,0,1-5-5v-1.94a5,5,0,0,1,10,0V319A5,5,0,0,1,232,324Z"/><path class="cls-1" d="M267.46,324a5,5,0,0,1-5-5v-1.94a5,5,0,0,1,10,0V319A5,5,0,0,1,267.46,324Z"/><path class="cls-1" d="M302.91,324a5,5,0,0,1-5-5v-1.94a5,5,0,0,1,10,0V319A5,5,0,0,1,302.91,324Z"/><path class="cls-1" d="M338.35,324a5,5,0,0,1-5-5v-1.94a5,5,0,0,1,10,0V319A5,5,0,0,1,338.35,324Z"/><path class="cls-1" d="M463.93,292.5a5,5,0,0,1-5-5v-59H400.59a5,5,0,0,1-5-5l.1-59H133v90.57a5,5,0,0,1-10,0V159.5a5,5,0,0,1,5-5H400.7a5,5,0,0,1,5,5l-.1,59h58.33a5,5,0,0,1,5,5v64A5,5,0,0,1,463.93,292.5Z"/><path class="cls-1" d="M47.51,259.75a4.68,4.68,0,0,1-.64,0,5,5,0,0,1-4.33-5.59l8-63.25a5,5,0,1,1,9.92,1.26l-8,63.25A5,5,0,0,1,47.51,259.75Z"/><path class="cls-1" d="M89.49,259.75a5,5,0,0,1-4.95-4.37l-8-63.25a5,5,0,0,1,9.92-1.26l8,63.25a5,5,0,0,1-4.33,5.59A4.68,4.68,0,0,1,89.49,259.75Z"/><path class="cls-1" d="M88.5,196.5h-41a5,5,0,0,1,0-10h41a5,5,0,0,1,0,10Z"/><path class="cls-1" d="M94.67,228.29H41.33a5,5,0,0,1,0-10H94.67a5,5,0,0,1,0,10Z"/><path class="cls-1" d="M68.75,260.42a5,5,0,0,1-5-5V175.5a5,5,0,0,1,10,0v79.92A5,5,0,0,1,68.75,260.42Z"/><path class="cls-1" d="M432.26,227.88a5,5,0,0,1-5-5V191.5a5,5,0,0,1,10,0v31.38A5,5,0,0,1,432.26,227.88Z"/><path class="cls-1" d="M384,164a5,5,0,0,1-5-5V141.5H149.67V159a5,5,0,0,1-10,0V136.5a5,5,0,0,1,5-5H384a5,5,0,0,1,5,5V159A5,5,0,0,1,384,164Z"/><path class="cls-1" d="M247.7,164a5,5,0,0,1-5-5V52.5H185.5V159a5,5,0,0,1-10,0V47.5a5,5,0,0,1,5-5h67.2a5,5,0,0,1,5,5V159A5,5,0,0,1,247.7,164Z"/><path class="cls-1" d="M314.9,164a5,5,0,0,1-5-5V136.5a5,5,0,0,1,10,0V159A5,5,0,0,1,314.9,164Z"/><path class="cls-1" d="M214.1,164a5,5,0,0,1-5-5V136.5a5,5,0,0,1,10,0V159A5,5,0,0,1,214.1,164Z"/><path class="cls-1" d="M247.7,84.5H180.5a5,5,0,0,1,0-10h67.2a5,5,0,0,1,0,10Z"/><path class="cls-1" d="M348.7,164a5,5,0,0,1-5-5V52.5H286.5V159a5,5,0,0,1-10,0V47.5a5,5,0,0,1,5-5h67.2a5,5,0,0,1,5,5V159A5,5,0,0,1,348.7,164Z"/><path class="cls-1" d="M348.7,84.5H281.5a5,5,0,0,1,0-10h67.2a5,5,0,0,1,0,10Z"/></g><g id="Outline"><path class="cls-1" d="M196.57,270.61a5,5,0,0,1-5-5v-3a5,5,0,0,1,10,0v3A5,5,0,0,1,196.57,270.61Z"/><path class="cls-1" d="M232.9,270.61a5,5,0,0,1-5-5v-3a5,5,0,0,1,10,0v3A5,5,0,0,1,232.9,270.61Z"/><path class="cls-1" d="M269.22,270.61a5,5,0,0,1-5-5v-3a5,5,0,0,1,10,0v3A5,5,0,0,1,269.22,270.61Z"/><path class="cls-1" d="M305.54,270.61a5,5,0,0,1-5-5v-3a5,5,0,0,1,10,0v3A5,5,0,0,1,305.54,270.61Z"/><path class="cls-1" d="M341.86,270.61a5,5,0,0,1-5-5v-3a5,5,0,0,1,10,0v3A5,5,0,0,1,341.86,270.61Z"/><path class="cls-1" d="M378.18,270.61a5,5,0,0,1-5-5v-3a5,5,0,0,1,10,0v3A5,5,0,0,1,378.18,270.61Z"/><path class="cls-1" d="M414.5,270.61a5,5,0,0,1-5-5v-3a5,5,0,0,1,10,0v3A5,5,0,0,1,414.5,270.61Z"/><path class="cls-1" d="M76.78,80.35A5,5,0,0,1,72,76.92C66.4,59.8,47.25,65.83,46.43,66.1a5,5,0,1,1-3.09-9.51,40.53,40.53,0,0,1,15.3-1.48,26,26,0,0,1,16.72,8C79.43,55.77,87.48,48.5,102,46.68a5,5,0,0,1,1.24,9.93C82.49,59.2,81.8,74.83,81.79,75.5a5,5,0,0,1-4.28,4.8A4.48,4.48,0,0,1,76.78,80.35Z"/></g></svg>