<?xml version="1.0" ?><svg viewBox="0 0 512 512" xmlns="http://www.w3.org/2000/svg"><defs><style>.cls-1{fill:#3f456b;}</style></defs><title/><g id="Lines"><path class="cls-1" d="M304,52.2H256a5,5,0,0,1-5-5V15a5,5,0,0,1,5-5h48a5,5,0,0,1,5,5V47.2A5,5,0,0,1,304,52.2Zm-43-10h38V20H261Z"/><path class="cls-1" d="M256,84a5,5,0,0,1-5-5V38a5,5,0,0,1,10,0V79A5,5,0,0,1,256,84Z"/><path class="cls-1" d="M404.94,196a5,5,0,0,1-3-1L255.84,84.41,111.09,195A5,5,0,1,1,105,187L252.8,74.15a5,5,0,0,1,6.05,0L408,187a5,5,0,0,1-3,9Z"/><path class="cls-1" d="M417,228H96a5,5,0,0,1-5-5V191.85a5,5,0,0,1,5-5H417a5,5,0,0,1,5,5V223A5,5,0,0,1,417,228ZM101,218H412V196.85H101Z"/><path class="cls-1" d="M400,259H113a5,5,0,0,1-5-5V222.85a5,5,0,0,1,5-5H400a5,5,0,0,1,5,5V254A5,5,0,0,1,400,259ZM118,249H395V227.85H118Z"/><path class="cls-1" d="M417,500H96a5,5,0,0,1-5-5V463.85a5,5,0,0,1,5-5H417a5,5,0,0,1,5,5V495A5,5,0,0,1,417,500ZM101,490H412V468.85H101Z"/><path class="cls-1" d="M399,468H114a5,5,0,0,1-5-5V431.85a5,5,0,0,1,5-5H399a5,5,0,0,1,5,5V463A5,5,0,0,1,399,468ZM119,458H394V436.85H119Z"/><path class="cls-1" d="M113,500H16a5,5,0,0,1-5-5V223a5,5,0,0,1,5-5H96a5,5,0,0,1,0,10H21V490h92a5,5,0,0,1,0,10Z"/><path class="cls-1" d="M496,500H399a5,5,0,0,1,0-10h92V228H416a5,5,0,0,1,0-10h80a5,5,0,0,1,5,5V495A5,5,0,0,1,496,500Z"/><path class="cls-1" d="M113,259H16a5,5,0,0,1,0-10h97a5,5,0,0,1,0,10Z"/><path class="cls-1" d="M496,259H399a5,5,0,0,1,0-10h97a5,5,0,0,1,0,10Z"/><path class="cls-1" d="M496,357H399a5,5,0,0,1,0-10h97a5,5,0,0,1,0,10Z"/><path class="cls-1" d="M113,357H16a5,5,0,0,1,0-10h97a5,5,0,0,1,0,10Z"/><path class="cls-1" d="M169,284H121a5,5,0,0,1-5-5V254a5,5,0,0,1,10,0v20h38V254a5,5,0,0,1,10,0v25A5,5,0,0,1,169,284Z"/><path class="cls-1" d="M169,436a5,5,0,0,1-5-5V411H126v20a5,5,0,0,1-10,0V406a5,5,0,0,1,5-5h48a5,5,0,0,1,5,5v25A5,5,0,0,1,169,436Z"/><path class="cls-1" d="M129,411a5,5,0,0,1-5-5V279a5,5,0,0,1,10,0V406A5,5,0,0,1,129,411Z"/><path class="cls-1" d="M162,411a5,5,0,0,1-5-5V279a5,5,0,0,1,10,0V406A5,5,0,0,1,162,411Z"/><path class="cls-1" d="M242,284H194a5,5,0,0,1-5-5V254a5,5,0,0,1,10,0v20h38V254a5,5,0,0,1,10,0v25A5,5,0,0,1,242,284Z"/><path class="cls-1" d="M242,436a5,5,0,0,1-5-5V411H199v20a5,5,0,0,1-10,0V406a5,5,0,0,1,5-5h48a5,5,0,0,1,5,5v25A5,5,0,0,1,242,436Z"/><path class="cls-1" d="M202,411a5,5,0,0,1-5-5V279a5,5,0,0,1,10,0V406A5,5,0,0,1,202,411Z"/><path class="cls-1" d="M235,411a5,5,0,0,1-5-5V279a5,5,0,0,1,10,0V406A5,5,0,0,1,235,411Z"/><path class="cls-1" d="M319,284H271a5,5,0,0,1-5-5V254a5,5,0,0,1,10,0v20h38V254a5,5,0,0,1,10,0v25A5,5,0,0,1,319,284Z"/><path class="cls-1" d="M319,436a5,5,0,0,1-5-5V411H276v20a5,5,0,0,1-10,0V406a5,5,0,0,1,5-5h48a5,5,0,0,1,5,5v25A5,5,0,0,1,319,436Z"/><path class="cls-1" d="M279,411a5,5,0,0,1-5-5V279a5,5,0,0,1,10,0V406A5,5,0,0,1,279,411Z"/><path class="cls-1" d="M312,411a5,5,0,0,1-5-5V279a5,5,0,0,1,10,0V406A5,5,0,0,1,312,411Z"/><path class="cls-1" d="M392,284H344a5,5,0,0,1-5-5V254a5,5,0,0,1,10,0v20h38V254a5,5,0,0,1,10,0v25A5,5,0,0,1,392,284Z"/><path class="cls-1" d="M392,436a5,5,0,0,1-5-5V411H349v20a5,5,0,0,1-10,0V406a5,5,0,0,1,5-5h48a5,5,0,0,1,5,5v25A5,5,0,0,1,392,436Z"/><path class="cls-1" d="M352,411a5,5,0,0,1-5-5V279a5,5,0,0,1,10,0V406A5,5,0,0,1,352,411Z"/><path class="cls-1" d="M385,411a5,5,0,0,1-5-5V279a5,5,0,0,1,10,0V406A5,5,0,0,1,385,411Z"/><path class="cls-1" d="M417,452a5,5,0,0,1-5-5V254a5,5,0,0,1,10,0V447A5,5,0,0,1,417,452Z"/><path class="cls-1" d="M97,452a5,5,0,0,1-5-5V254a5,5,0,0,1,10,0V447A5,5,0,0,1,97,452Z"/><path class="cls-1" d="M473,333H440a5,5,0,0,1-5-5V279a5,5,0,0,1,5-5h33a5,5,0,0,1,5,5v49A5,5,0,0,1,473,333Zm-28-10h23V284H445Z"/><path class="cls-1" d="M73,333H40a5,5,0,0,1-5-5V279a5,5,0,0,1,5-5H73a5,5,0,0,1,5,5v49A5,5,0,0,1,73,333ZM45,323H68V284H45Z"/><path class="cls-1" d="M473,429H440a5,5,0,0,1-5-5V375a5,5,0,0,1,5-5h33a5,5,0,0,1,5,5v49A5,5,0,0,1,473,429Zm-28-10h23V380H445Z"/><path class="cls-1" d="M73,429H40a5,5,0,0,1-5-5V375a5,5,0,0,1,5-5H73a5,5,0,0,1,5,5v49A5,5,0,0,1,73,429ZM45,419H68V380H45Z"/><path class="cls-1" d="M496,453H399a5,5,0,0,1,0-10h97a5,5,0,0,1,0,10Z"/><path class="cls-1" d="M113,453H16a5,5,0,0,1,0-10h97a5,5,0,0,1,0,10Z"/><path class="cls-1" d="M256,169a27,27,0,1,1,27-27A27,27,0,0,1,256,169Zm0-44a17,17,0,1,0,17,17A17,17,0,0,0,256,125Z"/><path class="cls-1" d="M233,147H222a5,5,0,0,1,0-10h11a5,5,0,0,1,0,10Z"/><path class="cls-1" d="M290,147H279a5,5,0,0,1,0-10h11a5,5,0,0,1,0,10Z"/><path class="cls-1" d="M256,124a5,5,0,0,1-5-5V108a5,5,0,0,1,10,0v11A5,5,0,0,1,256,124Z"/><path class="cls-1" d="M256,181a5,5,0,0,1-5-5V165a5,5,0,0,1,10,0v11A5,5,0,0,1,256,181Z"/><path class="cls-1" d="M151,196a5,5,0,0,1-3.05-9l52-40a5,5,0,1,1,6.1,7.92l-52,40A5,5,0,0,1,151,196Z"/><path class="cls-1" d="M361,196a5,5,0,0,1-3.05-1l-52-40a5,5,0,1,1,6.1-7.92l52,40a5,5,0,0,1-3.05,9Z"/><path class="cls-1" d="M32.49,228a5,5,0,0,1-4.93-4.23A41.75,41.75,0,0,1,31,199c-17.13-10.5-18.07-31.57-15.91-42,4.65-21.47,18.24-30.13,28.84-33.61a54.26,54.26,0,0,1,17.94-2.59,41.74,41.74,0,0,1,19.35-19.26c1.33-10.68,8.84-27.37,30.86-31.45,23.29-4.31,34.95,6.16,39.29,11.59,6.42-.57,20.61-.56,27.86,9.23A67.73,67.73,0,0,1,193.85,88c14.29-1.15,25.45,3.39,32.25,13.11a5,5,0,1,1-8.2,5.73c-11.49-16.44-38.69-5.33-39-5.22A5,5,0,0,1,172.4,99c-4.31-10.06-22.33-7.08-22.51-7a5,5,0,0,1-5.31-2.58c-.29-.51-7.91-13.64-30.67-9.42S91,104.15,91,105a5,5,0,0,1-3.63,4.81c-.44.13-11.83,3.72-17.75,18.09A5,5,0,0,1,64.33,131c-1.31-.18-32.54-3.83-39.44,28.1-.2,1-4.8,25.06,15,33.32a5,5,0,0,1,2.92,3.38,5,5,0,0,1-.94,4.36c-.24.32-6.56,8.66-4.46,22.11a5,5,0,0,1-4.17,5.71A5.12,5.12,0,0,1,32.49,228Z"/><path class="cls-1" d="M489,228a5,5,0,0,1-4.85-6.21c2.24-9,1.49-15.73-2.22-20.11-6.45-7.61-20.38-6.71-20.53-6.7a5,5,0,0,1-5.37-4.43C454.49,176.69,441,175,440.45,175a5,5,0,0,1-4.39-5.71c1.2-8-1.53-19.86-10.35-28.22-6.2-5.88-17.61-12.06-36.71-8.14-14.65,3-24.85,10.15-30.29,21.23a5,5,0,0,1-9-4.41c4.73-9.63,15-22.06,37.27-26.62,18.19-3.73,34.38.06,45.59,10.68a44.46,44.46,0,0,1,13.75,32.29c7,2.18,15.81,7.74,18.8,18.92,6.24.29,17.46,2,24.42,10.22,5.91,7,7.36,16.74,4.29,29A5,5,0,0,1,489,228Z"/><path class="cls-1" d="M459.8,153.5a5.15,5.15,0,0,1-1.48-.23H437.18a5,5,0,0,1,0-10h22.29a5.13,5.13,0,0,1,1.41.19,26.94,26.94,0,0,0,25.9-27,27.27,27.27,0,0,0-22.4-26.87,5,5,0,0,1-3.95-6.17A45.23,45.23,0,0,0,374.36,56a5,5,0,0,1-8.54,1.4,21.86,21.86,0,0,0-38.77,13.84,21.53,21.53,0,0,0,.61,5.12,5,5,0,0,1-.69,3.93,5,5,0,0,1-3.35,2.18,30.77,30.77,0,0,0-25.3,25,5,5,0,0,1-9.85-1.73,40.77,40.77,0,0,1,28.68-32c-.07-.82-.1-1.64-.1-2.46a31.86,31.86,0,0,1,51-25.45A55.23,55.23,0,0,1,471.87,72.05a56.71,56.71,0,0,1-.72,8.93,37.18,37.18,0,0,1-11.23,72.52Zm.05-10h0Z"/></g><g id="Outline"><path class="cls-1" d="M278,147H234a5,5,0,0,1,0-10h44a5,5,0,0,1,0,10Z"/><path class="cls-1" d="M256,169a5,5,0,0,1-5-5V120a5,5,0,0,1,10,0v44A5,5,0,0,1,256,169Z"/></g></svg>