<?xml version="1.0" ?><svg viewBox="0 0 512 512" xmlns="http://www.w3.org/2000/svg"><defs><style>.cls-1{fill:#3f456b;}</style></defs><title/><g id="Lines"><path class="cls-1" d="M352,500.5H317.18l-121.77-.81L160,499.5a5,5,0,0,1-5-5v-33c0-38.08,36.8-61.28,38.37-62.25a5,5,0,1,1,5.26,8.5C198.21,408,165,429.1,165,461.5v28l30.47.16,121.75.81H347v-29c0-32.45-33.3-53.54-33.64-53.75a5,5,0,0,1,5.27-8.5c1.57,1,38.37,24.17,38.37,62.25v34A5,5,0,0,1,352,500.5Z"/><path class="cls-1" d="M240.28,498.59a5.33,5.33,0,0,1-1.18-.13,5,5,0,0,1-3.69-6l7.45-30.95-5.72-25.12a5,5,0,0,1,9.75-2.22l6,26.26a5,5,0,0,1,0,2.28l-7.73,32.09A5,5,0,0,1,240.28,498.59Z"/><path class="cls-1" d="M274.27,498.59a5,5,0,0,1-4.85-3.8L261.5,462.7a4.88,4.88,0,0,1,0-2.31l6-26.26a5,5,0,0,1,9.75,2.22l-5.73,25.1,7.64,30.95a5,5,0,0,1-3.66,6.05A4.92,4.92,0,0,1,274.27,498.59Z"/><path class="cls-1" d="M256,441.61a76.08,76.08,0,0,1-75.95-76V343.51l-.06-1.84a1.09,1.09,0,0,1,0-.18,76,76,0,1,1,151.94,0l0,2.12.05,21.95A76.1,76.1,0,0,1,256,441.61Zm-66-100.2.07,1.84v22.32a66,66,0,1,0,131.94,0l-.07-24A66,66,0,1,0,190,341.41Z"/><path class="cls-1" d="M183,375.5a20.54,20.54,0,0,1-9.48-2.66c-4.34-2.48-9.52-7.68-9.52-18.34s5.13-15.85,9.42-18.33a20.42,20.42,0,0,1,9.43-2.67,5,5,0,0,1,.05,10c-2.1.05-8.9,1-8.9,11,0,4.78,1.47,7.94,4.48,9.66A10.87,10.87,0,0,0,183,365.5a5,5,0,0,1,0,10Z"/><path class="cls-1" d="M328,375.5a5,5,0,0,1,0-10c9.52-.17,10-9.19,10-11,0-4.72-1.57-7.86-4.79-9.6a12.67,12.67,0,0,0-5-1.4,5,5,0,0,1,0-10c8,0,19.84,5.59,19.84,21S336,375.5,328,375.5Z"/><path class="cls-1" d="M224,359.5h-1a5,5,0,0,1,0-10h1a5,5,0,0,1,0,10Z"/><path class="cls-1" d="M288,359.5h-1a5,5,0,0,1,0-10h1a5,5,0,0,1,0,10Z"/><path class="cls-1" d="M214.67,344.31a117,117,0,0,1-30.87-4.06,5,5,0,0,1,2.89-9.58h0A109.39,109.39,0,0,0,219,334.22c23-1,40.52-9.6,52-25.63a5,5,0,0,1,8.77,1.21c.48,1.31,12.25,32.21,45.36,21a5,5,0,1,1,3.22,9.46A53.4,53.4,0,0,1,311,343.31c-20,0-31.58-13.74-37-22.66-13.19,14.55-32,22.67-55,23.58C217.58,344.29,216.11,344.31,214.67,344.31Z"/><path class="cls-1" d="M266.35,466.5H248a5,5,0,0,1,0-10h18.35a5,5,0,0,1,0,10Z"/><path class="cls-1" d="M192.33,498.59a5,5,0,0,1-5-5V478.65a5,5,0,0,1,10,0v14.94A5,5,0,0,1,192.33,498.59Z"/><path class="cls-1" d="M320.5,498.59a5,5,0,0,1-5-5V478.65a5,5,0,0,1,10,0v14.94A5,5,0,0,1,320.5,498.59Z"/><path class="cls-1" d="M463.6,461.08a5,5,0,0,1-5-5V441.14a5,5,0,0,1,10,0v14.94A5,5,0,0,1,463.6,461.08Z"/><path class="cls-1" d="M112.61,393.16c-39.88,0-69.95-30.54-69.95-71V304a5,5,0,0,1,10,0v18.08c0,17.32,6.22,33,17.52,44.17,11,10.88,26.08,16.87,42.43,16.87,21.34,0,40.41-10.34,51-27.66a5,5,0,1,1,8.53,5.22C159.71,381,137.46,393.16,112.61,393.16Z"/><path class="cls-1" d="M175.4,345.19a5.32,5.32,0,0,1-1.24-.15,5,5,0,0,1-3.61-6.08,68.44,68.44,0,0,0,2-16.84l0-17.06a5,5,0,0,1,5-5h0a5,5,0,0,1,5,5l0,17.08a78.15,78.15,0,0,1-2.36,19.31A5,5,0,0,1,175.4,345.19Z"/><path class="cls-1" d="M80.61,323h-1a5,5,0,0,1,0-10h1a5,5,0,1,1,0,10Z"/><path class="cls-1" d="M144.61,323h-1a5,5,0,0,1,0-10h1a5,5,0,0,1,0,10Z"/><path class="cls-1" d="M48.29,461.08a5,5,0,0,1-5-5V441.14a5,5,0,0,1,10,0v14.94A5,5,0,0,1,48.29,461.08Z"/><path class="cls-1" d="M58.52,310.87a36,36,0,0,1-12.82-2.46,5,5,0,0,1,3.91-9.21c1.72.72,16.87,6.53,23.4-8.08a5,5,0,0,1,6-2.75c.21.06,22.17,6.33,29.27-6a5,5,0,0,1,8.67,5c-4.69,8.17-13.42,12.55-25.24,12.68a59.56,59.56,0,0,1-11.51-1.09,24.41,24.41,0,0,1-20.71,11.95Z"/><path class="cls-1" d="M167.14,310.87h-.95a24.41,24.41,0,0,1-20.72-11.95A57.94,57.94,0,0,1,134,300c-11.82-.13-20.55-4.51-25.24-12.68a5,5,0,0,1,8.67-5c7,12.23,29.05,6.1,29.27,6a5,5,0,0,1,6,2.75c6.54,14.62,21.7,8.79,23.4,8.08a5,5,0,0,1,3.92,9.21A36.17,36.17,0,0,1,167.14,310.87Z"/><path class="cls-1" d="M40.17,337.58c-8.38,0-17.63-3-23.07-9.67-5.31-6.47-7.4-16.22-5.45-25.44a26.35,26.35,0,0,1,8.23-14.61c-2.74-6.18-6-18,1.06-30.16C27.05,247.23,34.7,244,40.06,243.05c.13-7.12,3.22-16.82,14.2-23.65,12.79-8,24.14-4.8,29.94-2.09C88.5,213.17,97.45,207,112.6,207s23.8,6.12,28,10.29c5.82-2.7,17.13-5.8,29.87,2.12,9.52,5.92,12.72,13.63,13.72,19a27.12,27.12,0,0,1,.45,4.59c5.36.9,13,4.17,19.15,14.66,7.09,12.16,3.81,24,1.07,30.15a24,24,0,0,1,2,1.93,5,5,0,0,1-7.41,6.72,11.56,11.56,0,0,0-3.32-2.56,5,5,0,0,1-1.9-7.25c.31-.48,7.82-12.15.94-23.95-6.62-11.36-14.91-10-15-10a5,5,0,0,1-5.83-6.25h0a16.29,16.29,0,0,0-.05-6.64c-1-4.83-4.07-8.86-9.09-12-12.41-7.71-22.65-.3-22.75-.23a5,5,0,0,1-7.26-1.42c-.21-.33-6.12-9.25-22.59-9.25s-22.9,9-23.16,9.42a5,5,0,0,1-7.15,1.25c-.39-.28-10.52-7.37-22.75.23s-9.17,18.52-9.14,18.63a5,5,0,0,1-1.13,4.85,4.84,4.84,0,0,1-4.7,1.4c-.26,0-8.43-1.28-15,10-6.89,11.8.63,23.47,1,24a5,5,0,0,1-1.91,7.23c-3.51,1.77-6.13,5.63-7.18,10.6-1.32,6.22,0,12.91,3.39,17,4.56,5.55,14.55,7.2,21,5.26a5,5,0,1,1,2.87,9.57A29.9,29.9,0,0,1,40.17,337.58Z"/><path class="cls-1" d="M46.57,352.06a18.67,18.67,0,0,1-12.43-4.59c-3.86-3.52-5.82-8.63-5.82-15.17a5,5,0,0,1,10,0c0,3.62.86,6.24,2.56,7.79a9.21,9.21,0,0,0,6,2,5,5,0,0,1,.9,10C47.61,352,47.19,352.06,46.57,352.06Z"/><path class="cls-1" d="M159.08,461.87h0l-106.59-.71L17,461a5,5,0,0,1-5-5V423c0-38.08,36.8-61.28,38.37-62.25l6.35-3.84A5,5,0,0,1,62,365.44l-6.31,3.81c-.28.18-33.58,21.27-33.58,53.72v28l30.46.16,106.6.71a5,5,0,0,1,0,10Z"/><path class="cls-1" d="M112.37,414.07c-40.56,0-41.17-36.13-41.17-36.5a5,5,0,0,1,5-5h0a5,5,0,0,1,5,5,30.62,30.62,0,0,0,4.08,13.62c5.1,8.58,14.22,12.94,27.09,12.94,10.27,0,18.07-2.69,23.2-8,7-7.23,6.9-17.29,6.9-17.39a5,5,0,0,1,4.84-5.15h.16a5,5,0,0,1,5,4.84c0,.58.33,14.3-9.71,24.66C135.67,410.36,125.45,414.07,112.37,414.07Z"/><path class="cls-1" d="M422.61,412.93h-3a5,5,0,0,1,0-10h3a5,5,0,0,1,0,10Z"/><path class="cls-1" d="M422.61,436.48h-3a5,5,0,0,1,0-10h3a5,5,0,0,1,0,10Z"/><path class="cls-1" d="M477.06,276.32a4.74,4.74,0,0,1-.75-.06,5,5,0,0,1-4.2-5.69,220.87,220.87,0,0,0,2.48-33A218.13,218.13,0,0,0,102.22,83.37,216.69,216.69,0,0,0,38.33,237.61c0,4.31.13,8.67.38,13a5,5,0,0,1-10,.58c-.26-4.48-.39-9-.39-13.54A228.13,228.13,0,0,1,417.77,76.29a226.64,226.64,0,0,1,66.82,161.32A230.3,230.3,0,0,1,482,272.07,5,5,0,0,1,477.06,276.32Z"/><path class="cls-1" d="M400.61,393.16a71,71,0,0,1-39.15-11.42A66.37,66.37,0,0,1,343.25,364a69.94,69.94,0,0,1-4.18-6.85,5,5,0,0,1,8.84-4.69,56.9,56.9,0,0,0,19,20.91,62.94,62.94,0,0,0,65.91.91A56.37,56.37,0,0,0,450,358.06c7-10.13,10.65-22.55,10.65-35.94l0-13.51-119.91-.92v14.43a67.63,67.63,0,0,0,2.67,19.09,5,5,0,1,1-9.6,2.82,77.54,77.54,0,0,1-3.07-21.91V302.65a5,5,0,0,1,5-5h0l129.9,1a5,5,0,0,1,5,5l0,18.47c0,15.43-4.29,29.82-12.41,41.61a66.34,66.34,0,0,1-20.1,19.09A71.47,71.47,0,0,1,400.61,393.16Z"/><path class="cls-1" d="M368.61,323.05h-1a5,5,0,0,1,0-10h1a5,5,0,0,1,0,10Z"/><path class="cls-1" d="M432.61,323.05h-1a5,5,0,0,1,0-10h1a5,5,0,0,1,0,10Z"/><path class="cls-1" d="M497.06,462H352a5,5,0,0,1,0-10H492.06V423c0-12-4.43-23.69-13.17-34.84a90.39,90.39,0,0,0-20.41-18.88L452,365.49a5,5,0,0,1,5-8.66l6.59,3.81.13.08A98.29,98.29,0,0,1,486.76,382c10.15,13,15.3,26.75,15.3,41v34A5,5,0,0,1,497.06,462Z"/><path class="cls-1" d="M326.27,382.17a5,5,0,0,1-3.55-8.52,94.62,94.62,0,0,1,15.71-12.93l6.34-3.84a5,5,0,0,1,5.18,8.56l-6.3,3.81a85.66,85.66,0,0,0-13.82,11.44A5,5,0,0,1,326.27,382.17Z"/><path class="cls-1" d="M483.14,389.8a5,5,0,0,1-5-5V309.3A103.85,103.85,0,0,0,475,283.18a79.67,79.67,0,0,0-7-18.15,65.86,65.86,0,0,0-17.28-20.62c-17.8-13.95-42.74-20-65.08-15.79-23,4.34-40.89,16.94-51.86,36.43a81.38,81.38,0,0,0-7.55,18.41,78,78,0,0,0-3.41,23.16,5,5,0,0,1-10,0,87.87,87.87,0,0,1,3.77-25.83A91.37,91.37,0,0,1,325,260.14c12.28-21.83,33.13-36.51,58.71-41.34a92.34,92.34,0,0,1,73.11,17.74,76,76,0,0,1,19.91,23.73,90,90,0,0,1,7.91,20.41,113.75,113.75,0,0,1,3.5,28.62v75.5A5,5,0,0,1,483.14,389.8Z"/><path class="cls-1" d="M479,287.13H321.34a5,5,0,0,1,0-10H479a5,5,0,0,1,0,10Z"/><path class="cls-1" d="M470.56,268H331.28a5,5,0,0,1,0-10H470.56a5,5,0,0,1,0,10Z"/><path class="cls-1" d="M435.46,383.55a5,5,0,0,1-4.91-4.14c-.15-.78-4.1-19.91-30.37-19.91s-30.92,18.36-31.1,19.14a5,5,0,0,1-9.77-2.12c2-9.35,13.08-27,40.87-27s38.5,18.44,40.22,28.18a5,5,0,0,1-4.07,5.79A5.12,5.12,0,0,1,435.46,383.55Z"/><path class="cls-1" d="M400.61,461a5,5,0,0,1-5-5V388.16a5,5,0,1,1,10,0V456A5,5,0,0,1,400.61,461Z"/></g><g id="Outline"><path class="cls-1" d="M255.67,275.46a5,5,0,0,1-5-5V14.71a5,5,0,0,1,10,0V270.46A5,5,0,0,1,255.67,275.46Z"/><path class="cls-1" d="M348.49,240a5,5,0,0,1-5-5C343,97.83,307.32,24.61,307,23.89a5,5,0,1,1,9-4.46c1.51,3,37.06,76,37.58,215.55a5,5,0,0,1-5,5Z"/><path class="cls-1" d="M429.58,232.41a5,5,0,0,1-5-4.86c-1.69-60.61-18.08-106.23-31.54-133.83-14.6-29.94-29-45.74-29.14-45.9A5,5,0,0,1,371.26,41c.62.67,15.34,16.77,30.57,47.88,14,28.56,31,75.74,32.75,138.35a5,5,0,0,1-4.86,5.14Z"/><path class="cls-1" d="M167.45,227.84h-.1a5,5,0,0,1-4.9-5.1c2.49-131.64,36-200.44,37.44-203.31a5,5,0,1,1,9,4.46c-.43.87-34,70.07-36.39,199A5,5,0,0,1,167.45,227.84Z"/><path class="cls-1" d="M86.47,225.52h-.23a5,5,0,0,1-4.77-5.22C84.26,159.92,101.16,114,114.84,86.07c14.91-30.39,29.06-46.32,29.65-47a5,5,0,0,1,7.45,6.68h0c-.14.15-14,15.8-28.3,45.09-13.19,27-29.48,71.44-32.18,129.89A5,5,0,0,1,86.47,225.52Z"/><path class="cls-1" d="M256.06,165.93c-129.67,0-190.23-36.38-192.74-37.93a5,5,0,1,1,5.24-8.52h0c.59.36,61,36.45,187.5,36.45,127,0,188.53-34.27,189.14-34.62a5,5,0,0,1,4.95,8.69C447.58,131.47,385.64,165.93,256.06,165.93Z"/><path class="cls-1" d="M256.34,93.09c-81.87,0-120.26-37.06-121.85-38.64a5,5,0,0,1,7-7.11c.49.48,37.49,35.75,114.82,35.75,77.91,0,115.52-33.62,115.89-34A5,5,0,0,1,379,56.5C377.35,58,338.1,93.09,256.34,93.09Z"/><path class="cls-1" d="M450.25,242.59a5,5,0,0,1,0-10h29.42a5,5,0,0,1,0,10Z"/><path class="cls-1" d="M178.75,242.6a5,5,0,0,1,0-10H348.49a5,5,0,0,1,0,10Z"/></g></svg>