<?xml version="1.0" ?><svg id="Lines" viewBox="0 0 512 512" xmlns="http://www.w3.org/2000/svg"><defs><style>.cls-1{fill:#3f456b;}</style></defs><title/><path class="cls-1" d="M257,500a5,5,0,0,1-5-5V16a5,5,0,0,1,10,0V495A5,5,0,0,1,257,500Z"/><path class="cls-1" d="M105.61,115.33a5,5,0,0,1-2.48-.66C86.4,105.1,76,86.46,76,66c0-30.34,22.88-55,51-55s51,24.69,51,55c0,19.42-9.65,37.61-25.18,47.46a5,5,0,1,1-5.35-8.44c12.66-8,20.53-23,20.53-39,0-24.83-18.39-45-41-45S86,41.2,86,66c0,16.85,8.47,32.16,22.1,40a5,5,0,0,1-2.49,9.34Z"/><path class="cls-1" d="M68.76,302.18c-17.1,0-28.57-10.4-35.08-31.79-5.27-17.34-7.62-42.53-7.62-81.67,0-38.33,21.77-57.37,40-66.6a107.19,107.19,0,0,1,34.54-10.27v-1.19a5,5,0,0,1,10,0v5.76a5,5,0,0,1-4.8,5,96.94,96.94,0,0,0-35.5,9.77c-22.73,11.59-34.26,30.95-34.26,57.53,0,74.45,9.17,103.46,32.7,103.46a5,5,0,0,1,0,10Z"/><path class="cls-1" d="M187.3,301.91a5,5,0,0,1,0-10c23.53,0,32.7-29,32.7-103.45,0-26.59-11.53-45.94-34.26-57.53a97.31,97.31,0,0,0-35.5-9.78,5,5,0,0,1-4.8-5V110.4a5,5,0,0,1,10,0v1.19A107.19,107.19,0,0,1,190,121.86c18.25,9.22,40,28.26,40,66.6,0,39.14-2.35,64.33-7.62,81.66C215.88,291.51,204.4,301.91,187.3,301.91Z"/><path class="cls-1" d="M108.29,499c-14.37,0-26-10.27-30.46-26.8-5.62-20.92-6.8-43.84-8-66-.24-4.61-.49-9.38-.77-13.95-1.51-24.54-2.46-51.14-2.91-81.31-.65-44.65,0-83.73,2.06-119.48a5,5,0,1,1,10,.57c-2,35.51-2.69,74.35-2,118.76.44,30,1.39,56.46,2.89,80.84.28,4.62.53,9.42.77,14.06,1.13,21.64,2.29,44,7.62,63.93,3.26,12.14,11,19.39,20.78,19.39l39.51-.27c9.78,0,17.55-7.24,20.81-19.39,5.33-19.9,6.49-42.28,7.62-63.93.24-4.64.49-9.43.77-14.05,1.5-24.39,2.45-50.83,2.89-80.84.65-44.4,0-83.25-2-118.77a5,5,0,0,1,10-.56c2,35.75,2.71,74.83,2.06,119.47-.45,30.17-1.4,56.77-2.91,81.31-.28,4.57-.53,9.34-.77,14-1.15,22.16-2.33,45.08-8,66-4.43,16.54-16.09,26.8-30.43,26.8Z"/><path class="cls-1" d="M128,499a5,5,0,0,1-5-5V295.17a5,5,0,0,1,10,0V494A5,5,0,0,1,128,499Z"/><path class="cls-1" d="M299.75,320.57a53.57,53.57,0,0,1-7.66-.62c-6.78-1-12.08-4.05-15.76-9.08-9-12.25-5.61-33.28-3.38-47.2.28-1.76.55-3.4.76-4.9,10.24-70.46,30.65-99.38,45.11-115,8-8.61,15.08-14.49,22.37-18.47l1.28-.73c6.09-3.45,13.66-7.62,18.12-9.25a5,5,0,0,1,3.44,9.38c-4.26,1.57-13.25,6.66-16.63,8.57l-1.41.8c-6.31,3.45-12.61,8.69-19.83,16.49-28.3,30.58-37.84,77.23-42.55,109.66-.22,1.54-.5,3.23-.79,5-2,12.28-4.94,30.82,1.57,39.71,2.08,2.83,5.07,4.49,9.15,5.09,6.08.9,8.72.45,9.59.2A5,5,0,0,1,312,314.2C311.44,317.3,308.68,320.57,299.75,320.57Zm2.47-8.29v0Zm0,0h0Zm0,0h0Zm0,0Z"/><path class="cls-1" d="M367.64,499c-12.48,0-22.52-10.35-26.24-27-4.65-20.84-5.64-43.72-6.59-65.84-.21-4.71-.41-9.38-.64-14-.4-7.69-.75-15.76-1.06-24a5,5,0,1,1,10-.38c.31,8.2.66,16.23,1,23.86.24,4.61.44,9.31.65,14.05.93,21.69,1.9,44.12,6.36,64.09,2.68,12,8.83,19.19,16.44,19.19l32.88-.27c7.65,0,13.79-7.17,16.47-19.18,4.47-20,5.43-42.41,6.37-64.1.2-4.74.41-9.43.64-14,.39-7.61.74-15.54,1-23.6a5,5,0,0,1,10,.38c-.31,8.09-.66,16.08-1.05,23.73-.23,4.58-.44,9.25-.64,14-.95,22.13-1.94,45-6.6,65.85-3.72,16.66-13.75,27-26.19,27Z"/><path class="cls-1" d="M384.06,499a5,5,0,0,1-5-5V368.46a5,5,0,0,1,10,0V494A5,5,0,0,1,384.06,499Z"/><path class="cls-1" d="M450.55,373H319.4a18,18,0,0,1-13.6-5.64c-7.17-7.72-6.44-20.32-6.33-21.74,5.16-85.7,34.9-163.64,35.2-164.42a5,5,0,1,1,9.33,3.6c-.29.76-29.48,77.32-34.56,161.5-.19,2.71.12,10.43,3.71,14.28A8,8,0,0,0,319.4,363H450.55a8,8,0,0,0,6.27-2.44c3.59-3.87,3.87-11.74,3.69-14.18C454.85,258.7,426.25,185.57,426,184.84a5,5,0,0,1,9.3-3.68c.29.74,29.46,75.26,35.22,164.52.11,1.36.83,14-6.33,21.68A18,18,0,0,1,450.55,373Z"/><path class="cls-1" d="M408.12,125a5,5,0,0,1-5-5V109a5,5,0,0,1,5-5h18.43c2.63,0,2.77-3.33,2.77-4a319,319,0,0,0-3.55-46.67C425.25,51,417.63,20.5,384,20.5c-33.95,0-39.55,31.35-39.77,32.68A319.2,319.2,0,0,0,340.69,100c0,1.17.35,4,2.77,4h18.43a5,5,0,0,1,5,5v11a5,5,0,0,1-10,0v-6H343.46c-9.37,0-12.77-8.37-12.77-14a323.51,323.51,0,0,1,3.7-48.45c.06-.37,7.05-41,49.64-41,22.14,0,35,11.13,41.9,20.47a58,58,0,0,1,9.64,20.37c0,.07,0,.14.05.21a323.51,323.51,0,0,1,3.7,48.45c0,5.63-3.4,14-12.77,14H413.12v6A5,5,0,0,1,408.12,125Z"/><path class="cls-1" d="M470.26,320.57c-8.93,0-11.69-3.27-12.29-6.37a5,5,0,0,1,8.91-3.95c.87.25,3.5.7,9.59-.2,4.08-.6,7.07-2.26,9.15-5.09,6.51-8.89,3.53-27.43,1.57-39.71-.3-1.81-.57-3.5-.79-5-9.84-67.71-29-95-42.55-109.66-7.22-7.8-13.52-13-19.83-16.49l-1.41-.8c-3.39-1.91-12.37-7-16.63-8.57a5,5,0,0,1,3.44-9.38c4.46,1.63,12,5.8,18.12,9.25l1.28.73c7.29,4,14.39,9.85,22.37,18.47,30.19,32.63,40.2,81.26,45.11,115,.21,1.5.48,3.14.76,4.9,2.23,13.92,5.61,34.95-3.38,47.2-3.68,5-9,8.08-15.76,9.08A53.57,53.57,0,0,1,470.26,320.57Zm-2.47-8.29v0Zm0,0h0Zm0,0h0Zm0,0Z"/></svg>