<?xml version="1.0" ?><svg enable-background="new 0 0 512 512" version="1.1" viewBox="0 0 512 512" xml:space="preserve" xmlns="http://www.w3.org/2000/svg" xmlns:xlink="http://www.w3.org/1999/xlink"><g id="Colors"/><g id="Lines"><g><g><g><path d="M427.729,228.271c-1.279,0-2.56-0.488-3.535-1.465l-24.334-24.333c-1.953-1.952-1.953-5.118,0-7.07      c1.951-1.953,5.119-1.953,7.07,0l24.334,24.333c1.953,1.952,1.953,5.118,0,7.07      C430.288,227.783,429.008,228.271,427.729,228.271z" fill="#3F456B"/></g><g><path d="M314.431,114.975c-1.279,0-2.56-0.488-3.535-1.465l-76.721-76.722c-1.953-1.952-1.953-5.118,0-7.07      c1.951-1.953,5.119-1.953,7.07,0l76.721,76.722c1.953,1.952,1.953,5.118,0,7.07C316.99,114.486,315.71,114.975,314.431,114.975z      " fill="#3F456B"/></g><g><path d="M455.101,300.899c-1.279,0-2.56-0.488-3.535-1.465L429.94,277.81c-1.953-1.952-1.953-5.118,0-7.07      c1.951-1.953,5.119-1.953,7.07,0l21.625,21.625c1.953,1.952,1.953,5.118,0,7.07C457.66,300.411,456.38,300.899,455.101,300.899z      " fill="#3F456B"/></g><g><path d="M256.592,102.39c-1.279,0-2.56-0.488-3.535-1.465l-41.51-41.509c-1.953-1.952-1.953-5.118,0-7.07      c1.951-1.953,5.119-1.953,7.07,0l41.51,41.509c1.953,1.952,1.953,5.118,0,7.07C259.151,101.901,257.871,102.39,256.592,102.39z" fill="#3F456B"/></g><g><path d="M436.407,327.46c-1.279,0-2.56-0.488-3.535-1.465l-27.309-27.309c-1.953-1.952-1.953-5.118,0-7.07      c1.951-1.953,5.119-1.953,7.07,0l27.309,27.309c1.953,1.952,1.953,5.118,0,7.07C438.967,326.972,437.687,327.46,436.407,327.46z      " fill="#3F456B"/></g><g><path d="M216.807,107.86c-1.279,0-2.56-0.488-3.535-1.465L188.92,82.043c-1.953-1.952-1.953-5.118,0-7.07      c1.951-1.953,5.119-1.953,7.07,0l24.352,24.353c1.953,1.952,1.953,5.118,0,7.07C219.366,107.372,218.086,107.86,216.807,107.86z      " fill="#3F456B"/></g><g><path d="M413.779,350.088c-1.279,0-2.56-0.488-3.535-1.465l-17.184-17.184c-1.953-1.952-1.953-5.118,0-7.07      c1.951-1.953,5.119-1.953,7.07,0l17.184,17.184c1.953,1.952,1.953,5.118,0,7.07C416.339,349.6,415.059,350.088,413.779,350.088z      " fill="#3F456B"/></g><g><path d="M185.365,121.674c-1.279,0-2.56-0.488-3.535-1.465l-15.538-15.538c-1.953-1.952-1.953-5.118,0-7.07      c1.951-1.953,5.119-1.953,7.07,0l15.538,15.538c1.953,1.952,1.953,5.118,0,7.07      C187.925,121.186,186.645,121.674,185.365,121.674z" fill="#3F456B"/></g><g><path d="M391.152,372.715c-1.279,0-2.559-0.488-3.535-1.464l-12.768-12.767      c-1.953-1.953-1.953-5.119-0.001-7.071c1.953-1.953,5.118-1.952,7.071-0.001l12.768,12.767c1.953,1.953,1.953,5.119,0.001,7.071      C393.712,372.227,392.432,372.715,391.152,372.715z" fill="#3F456B"/></g><g><path d="M157.958,139.521c-1.279,0-2.56-0.488-3.535-1.465l-10.758-10.758c-1.953-1.952-1.953-5.118,0-7.07      c1.951-1.953,5.119-1.953,7.07,0l10.758,10.758c1.953,1.952,1.953,5.118,0,7.07      C160.518,139.032,159.237,139.521,157.958,139.521z" fill="#3F456B"/></g><g><path d="M368.524,395.343c-1.279,0-2.56-0.488-3.535-1.465l-12.684-12.684c-1.953-1.952-1.953-5.118,0-7.07      c1.951-1.953,5.119-1.953,7.07,0l12.684,12.684c1.953,1.952,1.953,5.118,0,7.07      C371.084,394.854,369.804,395.343,368.524,395.343z" fill="#3F456B"/></g><g><path d="M136.425,163.242c-1.279,0-2.559-0.488-3.535-1.464l-11.853-11.852      c-1.953-1.953-1.953-5.119-0.001-7.071c1.953-1.953,5.118-1.952,7.071-0.001l11.853,11.852c1.953,1.953,1.953,5.119,0.001,7.071      C138.984,162.754,137.704,163.242,136.425,163.242z" fill="#3F456B"/></g><g><path d="M345.897,417.97c-1.279,0-2.56-0.488-3.535-1.465l-17.794-17.794c-1.953-1.952-1.953-5.118,0-7.07      c1.951-1.953,5.119-1.953,7.07,0l17.794,17.794c1.953,1.952,1.953,5.118,0,7.07C348.457,417.481,347.177,417.97,345.897,417.97z      " fill="#3F456B"/></g><g><path d="M117.372,189.444c-1.279,0-2.56-0.488-3.535-1.465L98.41,172.553c-1.953-1.952-1.953-5.118,0-7.07      c1.951-1.953,5.119-1.953,7.07,0l15.427,15.427c1.953,1.952,1.953,5.118,0,7.07      C119.932,188.956,118.651,189.444,117.372,189.444z" fill="#3F456B"/></g><g><path d="M323.27,440.598c-1.279,0-2.56-0.488-3.535-1.465l-27.597-27.598c-1.953-1.952-1.953-5.118,0-7.07      c1.951-1.953,5.119-1.953,7.07,0l27.597,27.598c1.953,1.952,1.953,5.118,0,7.07C325.829,440.109,324.549,440.598,323.27,440.598      z" fill="#3F456B"/></g><g><path d="M106.003,223.33c-1.279,0-2.56-0.488-3.535-1.465l-26.686-26.685c-1.953-1.952-1.953-5.118,0-7.07      c1.951-1.953,5.119-1.953,7.07,0l26.686,26.685c1.953,1.952,1.953,5.118,0,7.07C108.562,222.842,107.282,223.33,106.003,223.33z      " fill="#3F456B"/></g><g><path d="M300.643,463.225c-1.279,0-2.56-0.488-3.535-1.465l-45.434-45.434c-1.953-1.952-1.953-5.118,0-7.07      c1.951-1.953,5.119-1.953,7.07,0l45.434,45.434c1.953,1.952,1.953,5.118,0,7.07      C303.202,462.736,301.922,463.225,300.643,463.225z" fill="#3F456B"/></g><g><path d="M99.132,261.715c-1.279,0-2.56-0.488-3.535-1.465l-27.923-27.924c-1.953-1.952-1.953-5.118,0-7.07      c1.951-1.953,5.119-1.953,7.07,0l27.923,27.924c1.953,1.952,1.953,5.118,0,7.07C101.691,261.227,100.411,261.715,99.132,261.715      z" fill="#3F456B"/></g><g><path d="M278.015,485.852c-1.279,0-2.56-0.488-3.535-1.465l-80.4-80.4c-1.953-1.952-1.953-5.118,0-7.07      c1.951-1.953,5.119-1.953,7.07,0l80.4,80.4c1.953,1.952,1.953,5.118,0,7.07C280.574,485.363,279.294,485.852,278.015,485.852z" fill="#3F456B"/></g><g><path d="M111.971,319.809c-1.279,0-2.56-0.488-3.535-1.465l-37.39-37.39c-1.953-1.952-1.953-5.118,0-7.07      c1.951-1.953,5.119-1.953,7.07,0l37.39,37.39c1.953,1.952,1.953,5.118,0,7.07C114.53,319.32,113.25,319.809,111.971,319.809z" fill="#3F456B"/></g></g><g><path d="M40.368,290.632c-1.279,0-2.56-0.488-3.535-1.465L7.9,260.234c-1.953-1.952-1.953-5.118,0-7.07     l33.588-33.588c1.951-1.953,5.119-1.953,7.07,0c1.953,1.952,1.953,5.118,0,7.07l-30.052,30.053l25.396,25.397     c1.953,1.952,1.953,5.118,0,7.07C42.928,290.144,41.647,290.632,40.368,290.632z" fill="#3F456B"/></g><g><path d="M256.802,507.065c-1.279,0-2.56-0.488-3.535-1.465L74.896,327.229c-1.953-1.952-1.953-5.118,0-7.07     c1.951-1.953,5.119-1.953,7.07,0l174.836,174.835l193.409-193.408c1.951-1.953,5.119-1.953,7.07,0     c1.953,1.952,1.953,5.118,0,7.07L260.337,505.601C259.361,506.577,258.081,507.065,256.802,507.065z" fill="#3F456B"/></g><g><path d="M484.309,279.559c-1.279,0-2.56-0.488-3.535-1.465c-1.953-1.952-1.953-5.118,0-7.07l14.323-14.324     l-15.292-15.293c-1.953-1.952-1.953-5.118,0-7.07c1.951-1.953,5.119-1.953,7.07,0l18.828,18.828c1.953,1.952,1.953,5.118,0,7.07     l-17.859,17.859C486.868,279.07,485.588,279.559,484.309,279.559z" fill="#3F456B"/></g><g><path d="M427.865,187.396c-1.279,0-2.56-0.488-3.535-1.465L256.802,18.404L102.667,172.537     c-1.951,1.953-5.119,1.953-7.07,0c-1.953-1.952-1.953-5.118,0-7.07L253.267,7.798c1.951-1.953,5.119-1.953,7.07,0L431.4,178.861     c1.953,1.952,1.953,5.118,0,7.07C430.425,186.908,429.145,187.396,427.865,187.396z" fill="#3F456B"/></g></g><g><g><path d="M184.5,319H136c-8.271,0-15-6.729-15-15v-98c0-8.271,6.729-15,15-15h88.667c2.762,0,5,2.238,5,5     s-2.238,5-5,5H136c-2.757,0-5,2.243-5,5v98c0,2.757,2.243,5,5,5h48.5c2.762,0,5,2.238,5,5S187.262,319,184.5,319z" fill="#3F456B"/></g><g><path d="M378,319h-52.667c-2.762,0-5-2.238-5-5s2.238-5,5-5H378c2.757,0,5-2.243,5-5v-98c0-2.757-2.243-5-5-5     h-3.083c-2.762,0-5-2.238-5-5s2.238-5,5-5H378c8.271,0,15,6.729,15,15v98C393,312.271,386.271,319,378,319z" fill="#3F456B"/></g><g><path d="M335.75,201H286c-2.762,0-5-2.238-5-5s2.238-5,5-5h49.75c2.762,0,5,2.238,5,5S338.512,201,335.75,201z" fill="#3F456B"/></g></g><g><path d="M256.224,416.831c-88.812,0-161.066-72.255-161.066-161.067S167.411,94.696,256.224,94.696    c42.189,0,82.074,16.199,112.308,45.613c30.172,29.355,47.464,68.658,48.69,110.671c0.08,2.76-2.092,5.062-4.853,5.144    c-0.049,0.001-0.099,0.002-0.148,0.002c-2.693,0-4.916-2.144-4.995-4.854c-1.149-39.399-17.368-76.262-45.668-103.794    c-28.355-27.588-65.764-42.781-105.334-42.781c-83.298,0-151.066,67.769-151.066,151.067s67.769,151.067,151.066,151.067    c34.834,0,67.559-11.519,94.639-33.311c26.302-21.166,44.958-50.825,52.532-83.516c0.623-2.689,3.303-4.367,6-3.742    c2.689,0.623,4.365,3.31,3.742,6c-8.077,34.86-27.967,66.485-56.005,89.049C328.668,404.217,292.832,416.831,256.224,416.831z" fill="#3F456B"/></g><g><path d="M468.41,451h-0.599c-9.767,0-17.462-3.042-22.873-9.04c-9.386-10.407-7.915-25.798-7.848-26.448    c0.007-0.063,0.015-0.127,0.023-0.19c0.147-1.035,14.739-104.106,14.739-157.874c0-0.023,0-0.047,0.001-0.07    c0.062-4.466-6.944-7.129-14.757-9.683c-1.438-0.471-2.799-0.915-4.006-1.368c-8.243-3.093-9.996-10.846-9.781-14.771    c-0.088-6.104-1.19-94.88,8.59-128.228c9.588-32.691,19.752-45.429,36.251-45.429c6.41,0,10.144,2.621,12.146,4.819    c4.175,4.581,4.139,10.641,4.046,12.256l3.165,163.631c0.001,57.699,11.492,175.799,11.608,176.984    c0.064,0.618,1.542,15.975-7.826,26.369C485.883,447.958,478.185,451,468.41,451z M447.033,416.603    c-0.074,0.927-0.797,11.91,5.367,18.699c3.433,3.781,8.618,5.698,15.411,5.698h0.599c6.822,0,12.021-1.931,15.453-5.737    c6.32-7.013,5.316-18.555,5.304-18.669c-0.119-1.222-11.657-119.803-11.657-177.893l-3.168-163.755    c-0.004-0.188,0.003-0.374,0.021-0.561c0.06-0.834-0.083-3.459-1.484-4.964c-0.941-1.011-2.531-1.523-4.727-1.523    c-7.47,0-16.306,2.955-26.655,38.243c-9.493,32.368-8.197,124.538-8.184,125.466c0.003,0.164-0.003,0.328-0.017,0.491    c-0.033,0.771,0.087,3.656,3.308,4.864c1.006,0.378,2.267,0.79,3.603,1.227c8.15,2.665,21.787,7.124,21.647,19.286    C461.849,311.086,447.631,412.372,447.033,416.603z" fill="#3F456B"/></g><g><path d="M58.533,451h-0.595c-9.865,0-17.601-3.042-22.992-9.043c-8.892-9.896-7.717-24.185-7.591-25.461    c0.282-3.336,13.976-165.78,14.702-223.66c-7.985-1.313-14.548-4.919-19.554-10.756c-9.883-11.523-13.269-30.924-10.349-59.311    l3.342-58.402c0.158-2.758,2.524-4.847,5.278-4.707c2.757,0.158,4.863,2.521,4.706,5.278l-3.349,58.516    c-0.005,0.077-0.011,0.153-0.019,0.229c-2.606,25.216,0.078,42.673,7.98,51.886c4.173,4.866,9.813,7.411,17.242,7.782    c2.661,0.133,4.751,2.33,4.751,4.994c-0.001,54.096-14.624,227.29-14.771,229.033c-0.004,0.037-0.007,0.074-0.011,0.111    c-0.01,0.092-1.024,11.04,5.117,17.825c3.413,3.772,8.634,5.685,15.516,5.685h0.595c6.907,0,12.139-1.926,15.55-5.725    c6.063-6.753,5.077-17.662,5.065-17.771c-0.004-0.034-0.008-0.069-0.011-0.104c-0.147-1.704-14.784-171.06-14.784-228.868    c0-2.676,2.107-4.878,4.78-4.995c9.154-0.402,15.314-2.788,19.386-7.509c7.132-8.268,9.242-25.35,6.452-52.222    c-0.006-0.062-0.012-0.124-0.016-0.186L91.072,65.12c-0.183-2.755,1.902-5.137,4.658-5.32c2.754-0.162,5.138,1.903,5.32,4.658    l3.878,58.41c3.159,30.531,0.434,48.945-8.837,59.692c-5.088,5.898-12.22,9.378-21.71,10.568    C75.084,254.1,88.818,413.274,89.098,416.5c0.123,1.249,1.32,15.552-7.574,25.456C76.136,447.957,68.4,451,58.533,451z" fill="#3F456B"/></g><g><path d="M43.533,142.714c-2.752,0-4.988-2.225-5-4.979c-0.105-24.999,1.867-72.774,1.887-73.254    c0.115-2.759,2.429-4.901,5.204-4.788c2.759,0.115,4.902,2.444,4.788,5.204c-0.021,0.478-1.983,48.025-1.879,72.795    c0.012,2.762-2.218,5.01-4.979,5.021C43.547,142.714,43.54,142.714,43.533,142.714z" fill="#3F456B"/></g><g><path d="M73.252,142.714c-0.007,0-0.014,0-0.021,0c-2.762-0.012-4.991-2.26-4.979-5.021    c0.104-24.771-1.858-72.319-1.879-72.796c-0.114-2.76,2.029-5.089,4.788-5.204c2.782-0.11,5.089,2.028,5.204,4.788    c0.02,0.48,1.991,48.255,1.887,73.253C78.24,140.489,76.004,142.714,73.252,142.714z" fill="#3F456B"/></g><g><g><g id="XMLID_31_"><g><path d="M189.146,367.565c-14.748,0.001-26.748-10.114-26.76-22.559c-0.008-9.482,6.241-16.749,7.432-18.048       c4.202-5.172,15.169-18.349,21.646-26.119c-5.577-2.663-9.101-7.842-10.164-15.163c-0.271-1.517-1.27-9.221,4.668-16.544       c4.332-5.34,17.337-20.973,24.11-29.099c-5.042-3.124-8.14-8.231-8.178-14.079c-0.039-1.316,0.049-8.031,5.407-14.637       c5.522-6.805,34.22-40.498,35.753-42.298c0.674-0.81,4.904-5.551,11.478-5.557c0.005,0,0.011,0,0.016,0       c7.663,0,11.567,4.315,12.578,5.63c2.25,2.632,30.289,35.441,35.746,42.141c5.359,6.582,5.444,13.261,5.401,14.614       c-0.034,5.847-3.233,11.038-8.329,14.182c6.768,8.096,19.733,23.626,24.094,28.981c5.666,6.963,5.613,14.287,5.522,15.905       c-0.064,7.045-4.347,12.903-10.965,15.848c5.897,6.982,15.303,18.146,19.479,23.261c1.711,1.66,8.442,8.945,8.453,20.821       c0.01,12.451-11.989,22.593-26.748,22.605c-0.01,0-0.021,0-0.029,0c-14.748,0-26.748-10.114-26.76-22.559       c-0.003-2.762,2.234-5.002,4.995-5.005c0.002,0,0.004,0,0.005,0c2.76,0,4.997,2.235,5,4.995       c0.006,6.934,7.522,12.568,16.76,12.568c0.007,0,0.014,0,0.02,0c9.246-0.008,16.764-5.659,16.758-12.598       c-0.008-8.642-5.226-13.48-5.447-13.683c-0.186-0.168-0.395-0.383-0.553-0.577c-5.922-7.271-24.476-29.177-24.662-29.397       c-0.7-0.826-1.112-1.858-1.176-2.939l-0.011-0.184c-0.078-1.33,0.378-2.637,1.268-3.629s2.139-1.589,3.47-1.656       c6.072-0.31,10.149-3.54,10.146-8.041c0-0.142,0.006-0.284,0.018-0.426c0.007-0.13,0.23-4.663-3.296-8.997       c-5.93-7.282-28.001-33.652-28.223-33.918c-0.552-0.658-0.924-1.447-1.081-2.292l-0.062-0.335       c-0.506-2.711,1.278-5.319,3.988-5.83c4.41-0.832,7.371-3.726,7.368-7.201c0-0.095,0.003-0.189,0.008-0.284       c0.001-0.089,0.059-3.959-3.164-7.916c-5.488-6.74-35.394-41.726-35.695-42.078c-0.18-0.211-0.183-0.181-0.293-0.367       c-0.312-0.349-1.667-1.64-4.581-1.64c-0.003,0-0.005,0-0.008,0c-2.05,0.002-3.759,1.903-3.774,1.923       c-0.024,0.03-0.05,0.061-0.075,0.091c-0.301,0.354-30.146,35.392-35.624,42.142c-3.226,3.977-3.179,7.885-3.176,8.049       c0.005,0.085,0.004,0.098,0.004,0.184c0.003,3.428,2.813,6.221,7.161,7.115c1.316,0.271,2.469,1.061,3.196,2.19       s0.97,2.505,0.672,3.815l-0.13,0.571c-0.176,0.773-0.533,1.494-1.043,2.102c-2.184,2.608-22.423,26.883-28.022,33.786       c-3.302,4.073-2.617,8.327-2.587,8.506c0.021,0.1,0.023,0.127,0.038,0.227c0.823,5.826,3.624,8.433,9.363,8.714       c1.327,0.065,2.573,0.655,3.464,1.642c0.891,0.985,1.354,2.284,1.284,3.611l-0.01,0.188c-0.056,1.081-0.461,2.115-1.155,2.946       c-0.207,0.247-20.739,24.836-26.656,32.127c-0.093,0.114-0.19,0.224-0.292,0.329c-0.03,0.032-4.803,5.137-4.798,11.276       c0.006,6.933,7.522,12.567,16.76,12.567c0.007,0,0.013,0,0.02,0c4.676-0.004,9.025-1.442,12.248-4.05       c2.911-2.355,4.513-5.391,4.51-8.546c-0.003-2.762,2.234-5.002,4.995-5.005c0.002,0,0.003,0,0.005,0       c2.76,0,4.997,2.235,5,4.995c0.006,6.237-2.913,12.036-8.22,16.329c-4.994,4.041-11.574,6.271-18.528,6.276       C189.165,367.565,189.154,367.565,189.146,367.565z M259.093,175.031L259.093,175.031       C259.093,175.032,259.093,175.032,259.093,175.031z" fill="#3F456B"/></g><g><path d="M276.221,367.49c-6.944,0-13.518-2.217-18.513-6.244c-5.313-4.284-8.243-10.079-8.248-16.315       c-0.002-2.762,2.234-5.002,4.996-5.004c0.001,0,0.003,0,0.004,0c2.76,0,4.998,2.236,5,4.996       c0.003,3.155,1.609,6.188,4.524,8.538c3.223,2.599,7.568,4.029,12.236,4.029c0.006,0,0.012,0,0.019,0       c4.675-0.004,9.024-1.442,12.247-4.05c2.911-2.355,4.513-5.392,4.51-8.547c-0.003-2.762,2.234-5.002,4.995-5.005       c0.002,0,0.004,0,0.005,0c2.76,0,4.997,2.235,5,4.995c0.006,6.237-2.913,12.037-8.22,16.33       c-4.994,4.041-11.574,6.271-18.528,6.276C276.239,367.49,276.229,367.49,276.221,367.49z" fill="#3F456B"/></g><g><path d="M232.682,367.527c-14.747,0-26.747-10.114-26.759-22.558c-0.003-2.762,2.234-5.002,4.995-5.005       c0.002,0,0.004,0,0.005,0c2.76,0,4.997,2.235,5,4.995c0.006,6.933,7.522,12.567,16.759,12.567c0.007,0,0.013,0,0.02,0       c9.247-0.008,16.765-5.658,16.759-12.597c-0.002-2.762,2.234-5.002,4.996-5.004c0.001,0,0.003,0,0.004,0       c2.76,0,4.998,2.236,5,4.996c0.01,12.452-11.99,22.593-26.75,22.604C232.701,367.527,232.69,367.527,232.682,367.527z" fill="#3F456B"/></g></g></g><g><g><path d="M255.8,171.084c-0.007,0-0.012,0-0.019,0c-6.688-0.005-12.976-2.614-17.702-7.347      c-4.727-4.733-7.327-11.024-7.322-17.713c0.005-6.689,2.614-12.976,7.348-17.702c4.729-4.722,11.013-7.322,17.694-7.322      c0.006,0,0.012,0,0.018,0c6.688,0.005,12.976,2.614,17.702,7.347c4.727,4.733,7.327,11.024,7.322,17.713      s-2.613,12.976-7.347,17.702C268.766,168.483,262.481,171.084,255.8,171.084z M255.799,131c-4.014,0-7.787,1.562-10.628,4.398      c-2.844,2.839-4.411,6.615-4.414,10.633s1.56,7.797,4.398,10.64c5.86,5.87,15.404,5.875,21.272,0.015      c2.843-2.839,4.41-6.615,4.413-10.633s-1.559-7.797-4.398-10.64c-2.839-2.843-6.615-4.41-10.633-4.413      C255.807,131,255.803,131,255.799,131z" fill="#3F456B"/></g></g></g><g><g><g><path d="M337.209,265.47c-1.324,0-2.657-0.109-3.989-0.332c-6.294-1.052-11.801-4.492-15.508-9.687      c-7.65-10.723-5.152-25.671,5.569-33.323c10.723-7.648,25.671-5.153,33.323,5.569l0,0c7.651,10.724,5.153,25.672-5.569,33.323      C346.94,263.942,342.141,265.47,337.209,265.47z M337.14,227.689c-2.792,0-5.609,0.837-8.05,2.579      c-6.233,4.448-7.686,13.14-3.237,19.374c2.154,3.021,5.356,5.021,9.016,5.632c3.66,0.609,7.337-0.238,10.358-2.395      c6.234-4.448,7.687-13.14,3.237-19.374l0,0C345.757,229.713,341.479,227.689,337.14,227.689z" fill="#3F456B"/></g></g><g><g><path d="M412.554,295.337c-7.464,0-14.821-3.479-19.479-10.004c-3.707-5.194-5.169-11.521-4.117-17.815      s4.492-11.801,9.687-15.508c5.194-3.706,11.521-5.17,17.815-4.117c6.294,1.052,11.801,4.492,15.508,9.687      c7.651,10.724,5.153,25.672-5.569,33.323C422.201,293.896,417.355,295.337,412.554,295.337z M412.492,257.562      c-2.867,0-5.657,0.888-8.039,2.588c-3.021,2.154-5.021,5.356-5.632,9.016s0.239,7.338,2.395,10.358      c4.449,6.233,13.141,7.688,19.374,3.237c6.234-4.448,7.687-13.14,3.237-19.374c-2.154-3.021-5.356-5.021-9.016-5.632      C414.037,257.627,413.262,257.562,412.492,257.562z" fill="#3F456B"/></g></g><g><g><path d="M355.764,214.201c-1.324,0-2.657-0.11-3.989-0.333c-6.294-1.052-11.801-4.491-15.508-9.686      s-5.169-11.521-4.117-17.815s4.492-11.801,9.687-15.508c10.724-7.651,25.671-5.152,33.323,5.569l0,0      c7.651,10.724,5.152,25.672-5.57,33.323C365.494,212.674,360.695,214.201,355.764,214.201z M355.693,176.421      c-2.791,0-5.608,0.837-8.049,2.579c-3.021,2.154-5.021,5.356-5.632,9.016s0.239,7.338,2.395,10.358      c2.154,3.02,5.356,5.02,9.016,5.631c3.659,0.614,7.338-0.238,10.357-2.394c6.234-4.448,7.688-13.14,3.238-19.374l0,0      C364.312,178.443,360.033,176.421,355.693,176.421z" fill="#3F456B"/></g></g><g><path d="M349.995,332.001c-0.915,0-1.842-0.252-2.672-0.777c-2.332-1.479-3.024-4.568-1.547-6.9     c42.674-67.329,10.607-112.224,10.279-112.67c-1.641-2.222-1.169-5.352,1.054-6.991c2.22-1.642,5.351-1.169,6.991,1.054     c0.387,0.523,9.506,13.077,12.758,34.76c2.96,19.731,1.436,51.224-22.635,89.201     C353.271,331.179,351.651,332.001,349.995,332.001z" fill="#3F456B"/></g><g><path d="M371.667,262.615c-1.658,0-3.279-0.824-4.231-2.329c-2.954-4.673-10.397-7.326-12.771-7.887     c-2.688-0.635-4.352-3.328-3.717-6.016c0.635-2.687,3.325-4.347,6.016-3.717c1.344,0.317,13.288,3.357,18.926,12.275     c1.476,2.334,0.779,5.423-1.555,6.898C373.505,262.364,372.58,262.615,371.667,262.615z" fill="#3F456B"/></g><g><path d="M367.991,296.134c-1.517,0-3.015-0.688-3.998-1.992c-1.661-2.205-1.22-5.341,0.986-7.002     c13.396-10.09,28.015-11.589,28.631-11.648c2.737-0.274,5.189,1.752,5.453,4.502c0.263,2.744-1.746,5.183-4.489,5.452     c-0.188,0.019-12.544,1.371-23.579,9.683C370.095,295.807,369.038,296.134,367.991,296.134z" fill="#3F456B"/></g></g><g><g><path d="M388.865,102.39c-22.13,0-40.134-18.004-40.134-40.134c0-22.131,18.004-40.135,40.134-40.135     c22.131,0,40.135,18.004,40.135,40.135C429,84.386,410.996,102.39,388.865,102.39z M388.865,32.121     c-16.616,0-30.134,13.519-30.134,30.135s13.518,30.134,30.134,30.134S419,78.872,419,62.256S405.481,32.121,388.865,32.121z" fill="#3F456B"/></g><g><path d="M388.406,67.635c-3.575,0-6.473-2.897-6.473-6.473c0-3.574,2.898-6.472,6.473-6.472     c3.574,0,6.473,2.898,6.473,6.472C394.879,64.738,391.98,67.635,388.406,67.635z" fill="#3F456B"/></g></g></g></svg>