<?xml version="1.0" ?><svg viewBox="0 0 512 512" xmlns="http://www.w3.org/2000/svg"><defs><style>.cls-1{fill:#3f456b;}</style></defs><title/><g id="Lines"><path class="cls-1" d="M248.49,299c-17.18,0-31.15-11.5-31.15-25.63a5,5,0,0,1,10,0c0,8.62,9.49,15.63,21.15,15.63s21.15-7,21.15-15.63a5,5,0,0,1,10,0C279.64,287.53,265.67,299,248.49,299Z"/><path class="cls-1" d="M220.39,400c-18.28,0-33.16-12.21-33.16-27.21a5,5,0,0,1,10,0c0,9.49,10.39,17.21,23.16,17.21s23.17-7.72,23.17-17.21a5,5,0,0,1,10,0C253.56,387.77,238.68,400,220.39,400Z"/><path class="cls-1" d="M276.59,400c-18.29,0-33.17-12.21-33.17-27.21a5,5,0,0,1,10,0c0,9.49,10.39,17.21,23.17,17.21s23.16-7.72,23.16-17.21a5,5,0,0,1,10,0C309.75,387.77,294.87,400,276.59,400Z"/><path class="cls-1" d="M300.79,299c-17.18,0-31.15-11.5-31.15-25.63a5,5,0,0,1,10,0c0,8.62,9.49,15.63,21.15,15.63,11,0,19.07-6.74,19.07-16v-.24a27.74,27.74,0,0,0-5.8-16C305.35,245.31,258,186,257.52,185.41l-.07-.09s-3.51-4.4-8.15-4.4c-6.65,0-9.46,4-9.58,4.13a1.83,1.83,0,0,1-.26.36c-.48.6-47.84,59.9-56.55,71.35a27.44,27.44,0,0,0-5.75,16,1.85,1.85,0,0,1,0,.23c0,9.31,8,16.07,19,16.07,11.66,0,21.15-7,21.15-15.63a5,5,0,0,1,10,0c0,14.13-14,25.63-31.15,25.63-16.51,0-29-11.16-29-26A37.14,37.14,0,0,1,175,250.71c8.63-11.34,53.15-67.1,56.55-71.36,2.21-3.26,8.23-8.43,17.8-8.43,9.26,0,15.35,7.38,16.05,8.27,2.15,2.69,47.91,60,56.67,71.52a37.46,37.46,0,0,1,7.84,22.38C329.81,287.88,317.33,299,300.79,299Z"/><path class="cls-1" d="M142.58,390.36a5,5,0,0,1-4-2,25.82,25.82,0,0,1-5-15.29,39.13,39.13,0,0,1,8-24.48c9.44-12.41,44.42-57.16,44.78-57.61a5,5,0,1,1,7.87,6.16c-.35.45-35.29,45.14-44.69,57.5a29.19,29.19,0,0,0-6,17.87c0,.13,0,.27,0,.4a15.93,15.93,0,0,0,3.07,9.51,5,5,0,0,1-4,8Z"/><path class="cls-1" d="M169.11,399.62a5,5,0,0,1-.7-9.95c10.9-1.55,18.82-8.67,18.82-16.9a5,5,0,0,1,10,0c0,13.26-11.53,24.53-27.41,26.8A4.24,4.24,0,0,1,169.11,399.62Z"/><path class="cls-1" d="M333.34,400c-18.28,0-33.16-12.21-33.16-27.21a5,5,0,0,1,10,0c0,9.49,10.39,17.21,23.16,17.21,11.63,0,17.79-5.64,19.38-17.75,0-.1,0-.19,0-.28A23.85,23.85,0,0,0,348,354.61c-9.4-12.36-44.35-57.05-44.7-57.5a5,5,0,1,1,7.88-6.16c.35.45,35.34,45.2,44.78,57.61a34.17,34.17,0,0,1,6.72,25.07C360.35,390.62,350,400,333.34,400Z"/><path class="cls-1" d="M352.33,421.9a5,5,0,0,1-3.94-1.92c-9.19-11.79-16.9-21.65-16.9-21.65a5,5,0,1,1,7.87-6.16s7.72,9.87,16.91,21.66a5,5,0,0,1-.87,7A4.91,4.91,0,0,1,352.33,421.9Z"/><path class="cls-1" d="M289.33,448a5,5,0,0,1-2.1-.47c-20.53-9.53-32.05-2.62-32.53-2.32a5,5,0,0,1-5.8-.25,5,5,0,0,1-1.62-5.61c.05-.15,5.42-16.19-4.76-22-11-6.29-26.45,4.61-26.6,4.72a5,5,0,0,1-6.28-.36c-8.75-7.95-24.25-4.18-24.4-4.14a5,5,0,0,1-5.58-2.31c-.77-1.31-19.41-32.1-49.12-22.49-12.48,4-20.57,11.57-24,22.39a37.23,37.23,0,0,0-1.57,15.08,5,5,0,0,1-8.9,3.83c-14.6-18.89-44-8.47-44.33-8.36a5,5,0,0,1-6.7-4.4c-1.69-27.91-28.27-27.81-29.39-27.8a5,5,0,0,1-.16-10c.36,0,33.12-.11,38.8,31.09,9.1-2.14,26.79-4.44,40.89,5.06,1.95-13,10.09-29.22,32.31-36.41,27.79-9,49.57,10.28,58.9,23.93,5.86-.88,17.57-1.55,26.93,4.73,6.44-3.74,21.32-10.59,34.19-3.24,7.37,4.21,11.27,11.59,11.27,21.34,0,1.16-.06,2.29-.15,3.37,6.41-1.32,15.95-1.55,28,3.06,3.55-7.16,12.23-19.77,31-25.23,21.5-6.27,45.91,4.06,54,8,6.45-4,23.77-12.91,44.87-8a73.48,73.48,0,0,1,17.4-19.6c12.32-9.61,33.51-19.21,64.45-10.37a5,5,0,0,1-2.74,9.62c-21.61-6.17-40.3-3.27-55.55,8.63a61,61,0,0,0-16.55,19.68,5,5,0,0,1-6,2.66c-23.11-7.12-42.32,7.06-42.51,7.21a5,5,0,0,1-5.44.39c-.26-.15-27.5-14.9-49.18-8.58-21.1,6.15-26.21,23.39-26.26,23.56a5,5,0,0,1-2.72,3.19A5.11,5.11,0,0,1,289.33,448Z"/><path class="cls-1" d="M17.49,219a5,5,0,1,1,0-10c11.3,0,20.15-6.86,20.15-15.63a5,5,0,0,1,10,0C47.64,207.77,34.4,219,17.49,219Z"/><path class="cls-1" d="M44.59,320C26.62,320,12,307.43,12,292a5,5,0,0,1,10,0c0,9.75,10.34,18,22.59,18a29.64,29.64,0,0,0,8.81-1.31,5,5,0,0,1,3,9.56A39.88,39.88,0,0,1,44.59,320Z"/><path class="cls-1" d="M68.79,219c-17.18,0-31.15-11.5-31.15-25.63a5,5,0,0,1,10,0C47.64,202,57.13,209,68.79,209c11,0,19.07-6.74,19.07-16v-.24a27.74,27.74,0,0,0-5.8-16C73.35,165.31,26,106,25.52,105.41l-.07-.09s-3.51-4.4-8.15-4.4a5,5,0,1,1,0-10c9.25,0,15.34,7.37,16.05,8.27,2.12,2.65,47.91,60,56.67,71.52a37.46,37.46,0,0,1,7.84,22.38C97.81,207.89,85.33,219,68.79,219Z"/><path class="cls-1" d="M82.24,228a5,5,0,0,1-3.95-1.92l-7-9A5,5,0,0,1,79.13,211l7,9A5,5,0,0,1,82.24,228Z"/><path class="cls-1" d="M154.49,266c-17.18,0-31.15-11.5-31.15-25.63a5,5,0,0,1,10,0c0,8.62,9.49,15.63,21.15,15.63s21.15-7,21.15-15.63a5,5,0,1,1,10,0C185.64,254.53,171.67,266,154.49,266Z"/><path class="cls-1" d="M126.39,367c-18.28,0-33.16-12.21-33.16-27.21a5,5,0,0,1,10,0c0,9.49,10.39,17.21,23.16,17.21a29.1,29.1,0,0,0,12.12-2.57,5,5,0,0,1,4.19,9.08A39.23,39.23,0,0,1,126.39,367Z"/><path class="cls-1" d="M182.28,252.61a5,5,0,0,1-4.52-2.86,21.69,21.69,0,0,1-2.12-9.35,5,5,0,1,1,10,0,11.82,11.82,0,0,0,1.16,5.08,5,5,0,0,1-2.38,6.65A4.94,4.94,0,0,1,182.28,252.61Z"/><path class="cls-1" d="M102.19,266c-16.51,0-29-11.16-29-26A37.14,37.14,0,0,1,81,217.71c8.63-11.34,53.15-67.1,56.55-71.36,2.21-3.26,8.23-8.43,17.8-8.43,9.26,0,15.35,7.38,16,8.27s30,37.55,46.56,58.57a5,5,0,1,1-7.85,6.2c-16.7-21.19-46.24-58.17-46.54-58.55l-.07-.09s-3.51-4.4-8.15-4.4c-6.65,0-9.46,4-9.58,4.13a1.83,1.83,0,0,1-.26.36c-.48.6-47.84,59.9-56.55,71.35a27.25,27.25,0,0,0-5.75,15.94,2.17,2.17,0,0,1,0,.26c0,9.31,8,16.07,19,16.07,11.66,0,21.15-7,21.15-15.63a5,5,0,0,1,10,0C133.34,254.53,119.36,266,102.19,266Z"/><path class="cls-1" d="M70.06,367C52.43,367,39.61,355.66,39.52,340a39.13,39.13,0,0,1,8-24.48C56.94,303.15,91.92,258.4,92.28,258a5,5,0,1,1,7.87,6.16c-.35.45-35.29,45.14-44.69,57.5a29.19,29.19,0,0,0-6,17.87c0,.13,0,.27,0,.4C49.52,350,58,357,70.06,357c12.78,0,23.17-7.72,23.17-17.21a5,5,0,0,1,10,0C103.23,354.77,88.35,367,70.06,367Z"/><path class="cls-1" d="M40.72,402.37a5,5,0,0,1-3.95-8.07c12.91-16.59,27.41-35.13,27.41-35.13a5,5,0,0,1,7.88,6.16s-14.49,18.52-27.39,35.11A5,5,0,0,1,40.72,402.37Z"/><path class="cls-1" d="M357.49,266c-17.18,0-31.15-11.5-31.15-25.63a5,5,0,0,1,10,0c0,8.62,9.49,15.63,21.15,15.63s21.15-7,21.15-15.63a5,5,0,1,1,10,0C388.64,254.53,374.67,266,357.49,266Z"/><path class="cls-1" d="M353,356.88a5,5,0,0,1-3.85-8.19,14,14,0,0,0,3.41-8.92,5,5,0,0,1,10,0,23.84,23.84,0,0,1-5.7,15.29A5,5,0,0,1,353,356.88Z"/><path class="cls-1" d="M385.59,367c-18.29,0-33.17-12.21-33.17-27.21a5,5,0,0,1,10,0c0,9.49,10.39,17.21,23.17,17.21s23.16-7.72,23.16-17.21a5,5,0,0,1,10,0C418.75,354.77,403.87,367,385.59,367Z"/><path class="cls-1" d="M409.79,266c-17.18,0-31.15-11.5-31.15-25.63a5,5,0,1,1,10,0c0,8.62,9.49,15.63,21.15,15.63,11,0,19.07-6.74,19.07-16v-.24a27.74,27.74,0,0,0-5.8-16C414.35,212.31,367,153,366.52,152.41l-.07-.09s-3.51-4.4-8.15-4.4c-6.65,0-9.46,4-9.58,4.13a1.83,1.83,0,0,1-.26.36c-.41.51-40.73,51-53.83,67.84a5,5,0,0,1-7.89-6.14c12.74-16.38,51.1-64.43,53.76-67.76,2.21-3.25,8.23-8.43,17.8-8.43,9.26,0,15.35,7.38,16.05,8.27,2.15,2.69,47.91,60,56.67,71.52a37.46,37.46,0,0,1,7.84,22.38C438.81,254.89,426.33,266,409.79,266Z"/><path class="cls-1" d="M321.54,261.51a5,5,0,0,1-2.68-9.23c4.75-3,7.48-7.33,7.48-11.88a5,5,0,0,1,10,0c0,8-4.42,15.46-12.13,20.33A5,5,0,0,1,321.54,261.51Z"/><path class="cls-1" d="M442.34,367c-18.28,0-33.16-12.21-33.16-27.21a5,5,0,0,1,10,0c0,9.49,10.39,17.21,23.16,17.21,11.63,0,17.79-5.64,19.38-17.75,0-.1,0-.19,0-.28A23.85,23.85,0,0,0,457,321.61c-9.4-12.36-44.35-57.05-44.7-57.5a5,5,0,0,1,7.88-6.16c.35.45,35.34,45.2,44.78,57.61a34.17,34.17,0,0,1,6.72,25.07C469.35,357.62,459,367,442.34,367Z"/><path class="cls-1" d="M460.91,388.35a5,5,0,0,1-4-1.92l-16.47-21.1a5,5,0,1,1,7.87-6.16s7.49,9.56,16.49,21.11a5,5,0,0,1-3.94,8.07Z"/><path class="cls-1" d="M495,244a5,5,0,0,1-5-4.48C488.49,225,472.44,224,471.76,224a5,5,0,0,1-4.76-5.13c.36-13.24-6-23.26-18.88-29.77A63.93,63.93,0,0,0,427.56,183a5,5,0,0,1-4.56-5.06c0-2.23.13-54.68-52.68-62-22.46-3.09-41.34,2.51-56.11,16.66a68.35,68.35,0,0,0-15.54,22.17,5,5,0,0,1-7.83,2.1c-24.48-19.95-63.67-5.36-64.06-5.21A5,5,0,0,1,220,147.2c-.08-1.89-2.61-46.4-52.18-48.2-21.15-.78-37.67,5.93-49.07,19.91A56,56,0,0,0,107.89,140a5,5,0,0,1-6.24,3.77c-21.55-6-33.2,5.79-33.68,6.29a5,5,0,0,1-7.3-6.84c.61-.65,14.29-14.94,38.89-10.21A68.61,68.61,0,0,1,111,112.59c9.27-11.37,26.72-24.7,57.18-23.59,30.72,1.12,45.94,16.81,53.29,29.78a69.36,69.36,0,0,1,7.74,21.62c12.2-3.46,40.52-9.06,62.85,5a81.75,81.75,0,0,1,15.23-20.06c11.75-11.26,32.45-23.75,64.39-19.34,32.24,4.44,47.24,23.89,54.14,39.42a86.69,86.69,0,0,1,7,28.18,74.67,74.67,0,0,1,19.8,6.51c14.94,7.56,23.27,19.41,24.28,34.46C486,216.53,498.34,223,500,238.48a5,5,0,0,1-4.45,5.49A4.58,4.58,0,0,1,495,244Z"/><path class="cls-1" d="M284,125a5,5,0,0,1-5-4.67C277.78,101.56,269.64,48,249,48s-29.68,49.78-31.18,67.22a5,5,0,0,1-10-.85,210.84,210.84,0,0,1,7-36.89C222.59,51.28,234.08,38,249,38s26.31,14.21,33.59,42.24a237.39,237.39,0,0,1,6.4,39.44,5,5,0,0,1-4.66,5.31Z"/><path class="cls-1" d="M381,100a5,5,0,0,1-5-4.75C375,75.63,367.34,20,345.56,20h-.4c-22.36.7-28.63,44.38-29.16,61.16A5,5,0,0,1,310.75,86c-17.58-.88-27.45,7.18-27.86,7.52a5,5,0,0,1-6.47-7.62c.48-.42,11.19-9.38,29.87-9.94,1.23-16,7.54-65,38.55-65.95,15.91-.51,27.73,14.11,35,43.42A242.09,242.09,0,0,1,386,94.75a5,5,0,0,1-4.74,5.24Z"/><path class="cls-1" d="M441,116a5,5,0,0,1-5-4.61C434.8,96,427.24,52,409,52c-9.19,0-15.79,4.69-20.19,14.32a50.28,50.28,0,0,0-4.05,15.5,5,5,0,0,1-10-.64C375.66,67.63,383.94,42,409,42c13.69,0,24.1,12,30.93,35.61a185.07,185.07,0,0,1,6.05,33,5,5,0,0,1-4.59,5.37Z"/><path class="cls-1" d="M487.87,230.14a5,5,0,0,1-5-4.75c-1.82-36-4.8-63-9.12-82.43-4.65-21-11.13-33-17.76-33s-12.05,3.8-15.93,11.3A45.11,45.11,0,0,0,436,133.71a5,5,0,1,1-9.9-1.42,54.82,54.82,0,0,1,5.13-15.59C436.84,105.77,445.42,100,456,100c12.42,0,21.43,13.34,27.52,40.79,4.44,20,7.5,47.51,9.35,84.1a5,5,0,0,1-4.74,5.24Z"/><path class="cls-1" d="M311,102a5,5,0,0,1-5-5V81a5,5,0,0,1,10,0V97A5,5,0,0,1,311,102Z"/><path class="cls-1" d="M130.93,107.13h0a5,5,0,0,1-5-5c0-2.05.4-50.12,28.07-50.12,8.18,0,19.28,3.89,25.68,22.41a81.2,81.2,0,0,1,4,20.47,5,5,0,0,1-10,.43,72,72,0,0,0-3.5-17.81C166.57,67.22,161.13,62,154,62c-6.93,0-12.07,6.28-15.28,18.65a99.41,99.41,0,0,0-2.79,21.49A5,5,0,0,1,130.93,107.13Z"/></g><g id="Outline"><path class="cls-1" d="M482,475a5,5,0,0,1-4.2-2.28c-8.43-13-29.28-2.39-29.49-2.28a5,5,0,0,1-7-2.79c-.23-.63-6-16.07-22.57-13.7-7.13,1-12.27,4.12-15.28,9.22a18.25,18.25,0,0,0-2.44,7.11,5,5,0,1,1-10-.56c.42-7.64,6.46-22.84,26.28-25.67,16.31-2.33,26.45,7.31,31.14,15.41,11.08-4.22,28.57-6.38,37.77,7.82A5,5,0,0,1,482,475Z"/><path class="cls-1" d="M40.78,479a4.8,4.8,0,0,1-1.58-.26A5,5,0,0,1,36,472.42,27,27,0,0,1,61.78,455c10.27,0,16.3,4.28,19.55,7.86a21.09,21.09,0,0,1,4.74,8.37,5,5,0,0,1-9.7,2.43c-.23-.83-2.77-8.66-14.59-8.66a16.9,16.9,0,0,0-16.26,10.58A5,5,0,0,1,40.78,479Z"/><path class="cls-1" d="M159,456a5,5,0,0,1-4.55-7.1c.25-.56,6.44-13.73,24.22-14.92,19.23-1.28,25.62,12.35,25.89,12.93a5,5,0,0,1-9.12,4.12c-.12-.26-4-7.88-16.11-7.07-11.64.78-15.64,8.79-15.8,9.13A5,5,0,0,1,159,456Z"/></g></svg>