<?xml version="1.0" ?><svg id="Lines" viewBox="0 0 512 512" xmlns="http://www.w3.org/2000/svg"><defs><style>.cls-1{fill:#3f456b;}</style></defs><title/><path class="cls-1" d="M260,242.47a5.09,5.09,0,0,1-2.25-.53L34.14,129.68a5,5,0,0,1,0-8.93L257.72,8.49a5,5,0,0,1,4.49,0L485.79,120.75a5,5,0,0,1,0,8.93L262.21,241.94A5.08,5.08,0,0,1,260,242.47ZM47.52,125.21,260,231.88,472.41,125.21,260,18.55Z"/><path class="cls-1" d="M263,321.75a308.81,308.81,0,0,1-47.56-3.7c-61.8-11.39-92-43-93.27-44.33a5,5,0,0,1-1.29-4.2c9.21-58.7,14.85-92.41,14.91-92.75a5,5,0,0,1,9.86,1.66c-.05.33-5.53,33-14.49,90.08,7,6.49,35.61,30.4,86,39.69.4.07,46.66,7.85,85.53,0,50.29-10.14,79.53-33.29,86.92-39.76-8.95-50.72-14.4-89.77-14.46-90.17a5,5,0,1,1,9.9-1.38c.06.4,5.69,40.67,14.88,92.51a5,5,0,0,1-1.38,4.41c-1.29,1.29-32.25,31.77-93.89,44.19A214.33,214.33,0,0,1,263,321.75Z"/><path class="cls-1" d="M52.38,228a5,5,0,0,1-5-5V132.68a5,5,0,0,1,10,0V223A5,5,0,0,1,52.38,228Z"/><path class="cls-1" d="M68,254H36a5,5,0,0,1-5-4.62c-.13-1.69-1-16.8,7-25.52A18.5,18.5,0,0,1,52,218a18.5,18.5,0,0,1,14,5.86c8.07,8.72,7.17,23.83,7,25.52A5,5,0,0,1,68,254ZM41,244H63c-.3-4.36-1.37-10.11-4.39-13.36A8.41,8.41,0,0,0,52,228a8.41,8.41,0,0,0-6.6,2.64C42.38,233.89,41.31,239.64,41,244Z"/><path class="cls-1" d="M77,322H29a5,5,0,0,1-5-5.51l7-68a5,5,0,1,1,9.94,1L34.54,312H71.29L63,249.66A5,5,0,0,1,73,248.34l9,68A5,5,0,0,1,77,322Z"/><path class="cls-1" d="M50.91,478.75h0a24.5,24.5,0,0,1,0-49h0a24.5,24.5,0,0,1,0,49Zm0-39a14.5,14.5,0,0,0,0,29h0a14.5,14.5,0,0,0,0-29Z"/><path class="cls-1" d="M455.91,478.75h0a24.5,24.5,0,0,1,0-49h0a24.5,24.5,0,0,1,0,49Zm0-39a14.5,14.5,0,0,0,0,29h0a14.5,14.5,0,0,0,0-29Z"/><path class="cls-1" d="M455.91,299.75h0a24.5,24.5,0,0,1,0-49h0a24.5,24.5,0,0,1,0,49Zm0-39a14.5,14.5,0,0,0,0,29h0a14.5,14.5,0,0,0,0-29Z"/><path class="cls-1" d="M494,497H14a5,5,0,0,1-5-5V236a5,5,0,0,1,5-5H36.81a5,5,0,0,1,0,10H19V487H489V241H390a5,5,0,0,1,0-10H494a5,5,0,0,1,5,5V492A5,5,0,0,1,494,497Z"/><path class="cls-1" d="M130.12,241H67.18a5,5,0,0,1,0-10h62.94a5,5,0,0,1,0,10Z"/><path class="cls-1" d="M253.5,443.5a80,80,0,0,1-56.57-136.57A5,5,0,0,1,204,314a70,70,0,1,0,100.6,1.66,5,5,0,1,1,7.3-6.84A80,80,0,0,1,253.5,443.5Z"/><path class="cls-1" d="M413,369H329a5,5,0,0,1,0-10h84a5,5,0,0,1,0,10Z"/><path class="cls-1" d="M396,402H323a5,5,0,0,1,0-10h73a5,5,0,0,1,0,10Z"/><path class="cls-1" d="M396,337H323a5,5,0,0,1,0-10h73a5,5,0,0,1,0,10Z"/><path class="cls-1" d="M178,370H94a5,5,0,0,1,0-10h84a5,5,0,0,1,0,10Z"/><path class="cls-1" d="M184,337H111a5,5,0,0,1,0-10h73a5,5,0,0,1,0,10Z"/><path class="cls-1" d="M184,402H111a5,5,0,0,1,0-10h73a5,5,0,0,1,0,10Z"/><path class="cls-1" d="M413,465H94a5,5,0,0,1-5-5c0-23.85-19.69-44-43-44a5,5,0,0,1-5-5V318.25a5,5,0,0,1,10,0v88a52.38,52.38,0,0,1,32.31,15.62A54.05,54.05,0,0,1,98.77,455H408.23A54.09,54.09,0,0,1,457,406.23V320.77a54.05,54.05,0,0,1-33.14-15.46A52.38,52.38,0,0,1,408.24,273H395a5,5,0,0,1,0-10h18a5,5,0,0,1,5,5c0,23.31,20.15,43,44,43a5,5,0,0,1,5,5v95a5,5,0,0,1-5,5,44.05,44.05,0,0,0-44,44A5,5,0,0,1,413,465Z"/><path class="cls-1" d="M76.21,310A5,5,0,0,1,73,301.11,43,43,0,0,0,89,268a5,5,0,0,1,5-5h31.81a5,5,0,0,1,0,10h-27a53.17,53.17,0,0,1-19.38,35.83A4.94,4.94,0,0,1,76.21,310Z"/><path class="cls-1" d="M253.65,401.86c-17.45,0-28.93-8.76-29.32-22.44a5,5,0,0,1,4.86-5.13h.14a5,5,0,0,1,5,4.86c.11,3.85,2.21,12.72,19.24,12.72h.57c5.7-.07,11.28-2.29,14.22-5.67a9.75,9.75,0,0,0,2.31-8.06c-.47-3.58-2.39-7.14-13.21-8.92l-3-.46c-8.68-1.32-18.52-2.82-25.2-12.31a16.59,16.59,0,0,1-2.82-12.79,23.56,23.56,0,0,1,10.12-14.71c7.46-5.05,18.89-5.8,28.44-1.87a27.41,27.41,0,0,1,15.19,15.2,5,5,0,0,1-9.32,3.63,17.63,17.63,0,0,0-9.68-9.58c-6.48-2.67-14.3-2.3-19,.9a13.82,13.82,0,0,0-5.88,8.23,6.63,6.63,0,0,0,1.15,5.24c4.23,6,10.54,6.95,18.54,8.17,1,.16,2.05.31,3.07.48,4.86.8,19.66,3.23,21.5,17.51a19.71,19.71,0,0,1-4.68,15.9c-4.79,5.52-13.09,9-21.64,9.11Z"/><path class="cls-1" d="M252.63,334.62h0a5,5,0,0,1-5-5l0-12.62a5,5,0,0,1,5-5h0a5,5,0,0,1,5,5l0,12.62A5,5,0,0,1,252.63,334.62Z"/><path class="cls-1" d="M252.51,418.63h0a5,5,0,0,1-5-5l0-16a5,5,0,0,1,5-5h0a5,5,0,0,1,5,5l0,16A5,5,0,0,1,252.51,418.63Z"/><path class="cls-1" d="M433,369h-1a5,5,0,0,1,0-10h1a5,5,0,0,1,0,10Z"/><path class="cls-1" d="M74,369H73a5,5,0,0,1,0-10h1a5,5,0,0,1,0,10Z"/></svg>