<?xml version="1.0" ?><svg enable-background="new 0 0 512 512" version="1.1" viewBox="0 0 512 512" xml:space="preserve" xmlns="http://www.w3.org/2000/svg" xmlns:xlink="http://www.w3.org/1999/xlink"><g id="Colors"><g><g><g><g><g><path d="M315.237,127.391c-0.532,2.945-3.348,4.901-6.294,4.369c-2.944-0.531-4.901-3.35-4.369-6.294        s3.351-4.902,6.295-4.37C313.815,121.627,315.769,124.446,315.237,127.391z" fill="#3F456B"/></g><g><path d="M361.321,135.71c-0.532,2.945-3.348,4.901-6.294,4.369c-2.945-0.532-4.901-3.35-4.369-6.294        c0.532-2.945,3.35-4.902,6.295-4.37C359.899,129.947,361.853,132.765,361.321,135.71z" fill="#3F456B"/></g></g><g><g><path d="M332.986,158.539c-0.532,2.945-3.348,4.901-6.294,4.369c-2.944-0.531-4.901-3.35-4.369-6.294        c0.532-2.945,3.351-4.902,6.295-4.37C331.563,152.776,333.517,155.595,332.986,158.539z" fill="#3F456B"/></g><g><path d="M372.776,171.228c2.946,0.532,5.763-1.425,6.294-4.369c0.532-2.945-1.423-5.763-4.369-6.295        c-2.945-0.532-5.763,1.426-6.295,4.37C367.875,167.878,369.831,170.696,372.776,171.228z" fill="#3F456B"/></g></g><g><g><path d="M342.757,104.414c-0.532,2.945-3.348,4.901-6.294,4.369c-2.944-0.531-4.901-3.35-4.369-6.294        c0.532-2.945,3.351-4.902,6.295-4.37C341.334,98.651,343.288,101.469,342.757,104.414z" fill="#3F456B"/></g><g><path d="M388.841,112.734c-0.532,2.945-3.348,4.901-6.294,4.369c-2.945-0.532-4.901-3.35-4.369-6.294        c0.532-2.945,3.35-4.902,6.295-4.37C387.419,106.97,389.373,109.789,388.841,112.734z" fill="#3F456B"/></g></g></g><g><path d="M390.502,178.203c-0.312,0-0.629-0.029-0.948-0.091c-2.712-0.521-4.488-3.141-3.967-5.853l12.827-66.812      c0.25-1.3-0.028-2.629-0.782-3.741s-1.886-1.862-3.187-2.112L294.364,80.38c-2.712-0.521-4.488-3.141-3.967-5.853      c0.521-2.711,3.136-4.491,5.853-3.967l100.081,19.213c3.924,0.753,7.325,2.998,9.578,6.321      c2.252,3.323,3.078,7.314,2.325,11.238l-12.827,66.812C394.948,176.538,392.853,178.203,390.502,178.203z" fill="#3F456B"/></g></g><g><g><path d="M113.775,142.652c-2.859,0-5.665-0.824-8.13-2.419c-3.371-2.181-5.688-5.533-6.525-9.44l-6.707-31.289      c-1.733-8.088,3.437-16.078,11.524-17.811l60.856-13.043c2.7-0.579,5.358,1.141,5.937,3.841c0.579,2.7-1.141,5.358-3.841,5.937      l-60.856,13.043c-1.295,0.277-2.41,1.051-3.14,2.179s-0.979,2.462-0.701,3.758l6.707,31.289c0.577,2.696,3.24,4.421,5.937,3.841      l173.069-37.094c1.295-0.277,2.41-1.051,3.14-2.179c0.729-1.128,0.979-2.462,0.701-3.757l-6.706-31.29      c-0.277-1.295-1.051-2.41-2.179-3.14c-1.127-0.729-2.46-0.979-3.757-0.701l-61.904,13.268c-2.699,0.579-5.358-1.141-5.937-3.841      c-0.579-2.7,1.141-5.358,3.841-5.937l61.904-13.268c3.905-0.837,7.914-0.098,11.285,2.083c3.37,2.181,5.688,5.533,6.525,9.44      l6.706,31.29c0.837,3.907,0.098,7.915-2.083,11.285c-2.181,3.371-5.534,5.688-9.441,6.525L116.93,142.316      C115.881,142.541,114.824,142.651,113.775,142.652z" fill="#3F456B"/></g><g><path d="M125.418,172.625c-2.307,0-4.381-1.606-4.884-3.953l-6.607-30.826c-0.579-2.7,1.141-5.358,3.841-5.937      c2.699-0.58,5.358,1.141,5.937,3.841l6.607,30.826c0.579,2.7-1.141,5.358-3.841,5.937      C126.118,172.588,125.765,172.625,125.418,172.625z" fill="#3F456B"/></g><g><path d="M302.843,184.482c-2.307,0-4.381-1.606-4.884-3.953l-16.829-78.52c-0.579-2.7,1.141-5.358,3.841-5.937      c2.698-0.578,5.357,1.141,5.937,3.841l16.829,78.52c0.579,2.7-1.141,5.358-3.841,5.937      C303.542,184.446,303.19,184.482,302.843,184.482z" fill="#3F456B"/></g><g><path d="M189.524,180.655c-2.307,0-4.381-1.606-4.884-3.953l-11.068-51.64c-0.579-2.7,1.141-5.358,3.841-5.937      c2.699-0.578,5.358,1.141,5.937,3.841l11.068,51.64c0.579,2.7-1.141,5.358-3.841,5.937      C190.224,180.619,189.872,180.655,189.524,180.655z" fill="#3F456B"/></g><g><path d="M239.143,183.12c-2.307,0-4.381-1.606-4.884-3.953l-13.752-64.165c-0.579-2.7,1.141-5.358,3.841-5.937      c2.698-0.58,5.357,1.141,5.937,3.841l13.752,64.165c0.579,2.7-1.141,5.358-3.841,5.937      C239.842,183.084,239.49,183.12,239.143,183.12z" fill="#3F456B"/></g><g><path d="M123.559,86.042c-4.958,0-9.82-0.668-14.426-2.41c-6.041-2.284-10.677-7.422-12.721-14.095      c-2.244-7.326-1.057-15.531,3.098-21.415c7.325-10.373,20.079-12.537,37.911-6.433c6.797,2.327,13.193,5.475,19.379,8.519      c3.23,1.59,6.571,3.234,9.868,4.707c2.521,1.126,3.653,4.083,2.527,6.604c-1.125,2.521-4.082,3.653-6.604,2.527      c-3.468-1.548-6.894-3.234-10.207-4.865c-6.176-3.04-12.009-5.911-18.203-8.031c-19.787-6.774-24.842,0.387-26.503,2.74      c-2.41,3.412-3.063,8.286-1.706,12.718c0.665,2.17,2.418,6.052,6.696,7.669c8.222,3.109,18.52,1.574,28.423-0.549      c2.699-0.577,5.358,1.141,5.937,3.841c0.579,2.7-1.141,5.358-3.841,5.937C136.723,84.893,130.059,86.042,123.559,86.042z" fill="#3F456B"/></g><g><path d="M240.009,62.642c-2.307,0-4.381-1.606-4.884-3.953c-0.579-2.7,1.141-5.358,3.841-5.937      c9.904-2.123,19.927-4.943,26.152-11.148c3.239-3.229,3.248-7.489,2.965-9.741c-0.578-4.6-3.171-8.777-6.768-10.902      c-2.48-1.465-10.028-5.925-25.298,8.363c-4.78,4.472-8.925,9.481-13.312,14.785c-2.354,2.845-4.788,5.787-7.316,8.621      c-1.837,2.06-4.999,2.241-7.06,0.401c-2.06-1.838-2.24-4.999-0.401-7.06c2.404-2.694,4.777-5.563,7.073-8.337      c4.395-5.312,8.939-10.805,14.185-15.713c13.763-12.876,26.285-16.128,37.217-9.669c6.201,3.664,10.647,10.662,11.603,18.264      c0.871,6.925-1.253,13.511-5.827,18.07c-8.057,8.032-19.716,11.4-31.116,13.844C240.708,62.605,240.356,62.642,240.009,62.642z" fill="#3F456B"/></g><g><path d="M178.456,129.015c-2.307,0-4.381-1.606-4.884-3.953l-13.599-63.448c-0.579-2.7,1.141-5.358,3.841-5.937      l46.934-10.06c1.297-0.277,2.651-0.029,3.764,0.691c1.113,0.72,1.895,1.853,2.173,3.15l13.599,63.448      c0.579,2.7-1.141,5.358-3.841,5.937c-2.697,0.58-5.358-1.141-5.937-3.841l-12.551-58.559l-37.156,7.964l12.551,58.559      c0.579,2.7-1.141,5.358-3.841,5.937C179.156,128.979,178.803,129.015,178.456,129.015z" fill="#3F456B"/></g></g><g><g><path d="M368.501,69.759c-1.642,0-3.25-0.808-4.207-2.29L350.2,45.622c-1.497-2.32-0.83-5.415,1.491-6.912      c2.319-1.497,5.415-0.83,6.912,1.491l14.095,21.847c1.497,2.32,0.83,5.415-1.491,6.912      C370.369,69.5,369.43,69.759,368.501,69.759z" fill="#3F456B"/></g><g><path d="M433.012,169.757c-1.642,0-3.25-0.808-4.207-2.29l-13.553-21.007c-1.497-2.32-0.83-5.415,1.491-6.912      c2.319-1.497,5.415-0.83,6.912,1.491l13.553,21.007c1.497,2.32,0.83,5.415-1.491,6.912      C434.879,169.499,433.94,169.757,433.012,169.757z" fill="#3F456B"/></g></g><g><g><path d="M459.001,142.022c-0.769,0-1.549-0.178-2.28-0.553l-22.755-11.682c-2.457-1.261-3.426-4.275-2.165-6.732      s4.276-3.425,6.732-2.165l22.755,11.682c2.457,1.261,3.426,4.275,2.165,6.732C462.567,141.031,460.816,142.022,459.001,142.022z      " fill="#3F456B"/></g></g><g><g><path d="M441.391,106.494c-2.648,0-4.858-2.079-4.99-4.753c-0.136-2.758,1.99-5.104,4.748-5.241l25.548-1.261      c2.767-0.131,5.104,1.989,5.241,4.748c0.136,2.758-1.99,5.104-4.748,5.241l-25.548,1.261      C441.557,106.492,441.474,106.494,441.391,106.494z" fill="#3F456B"/></g></g><g><g><path d="M434.314,83.235c-1.642,0-3.25-0.808-4.207-2.29c-1.497-2.321-0.829-5.415,1.491-6.912l21.01-13.553      c2.319-1.497,5.415-0.83,6.912,1.491s0.829,5.415-1.491,6.912l-21.01,13.553C436.182,82.977,435.243,83.235,434.314,83.235z" fill="#3F456B"/></g></g></g><g><g><path d="M415.841,66.889c-0.769,0-1.549-0.178-2.28-0.553c-2.457-1.261-3.426-4.275-2.165-6.732l11.682-22.755     c1.261-2.456,4.274-3.425,6.732-2.165c2.457,1.261,3.426,4.275,2.165,6.732l-11.682,22.755     C419.407,65.897,417.656,66.889,415.841,66.889z" fill="#3F456B"/></g></g><g><g><path d="M391.994,61.745c-2.648,0-4.858-2.079-4.99-4.753l-1.262-25.55c-0.136-2.758,1.989-5.104,4.748-5.241     c2.75-0.118,5.104,1.989,5.241,4.748l1.262,25.55c0.136,2.758-1.989,5.104-4.748,5.241     C392.161,61.743,392.077,61.745,391.994,61.745z" fill="#3F456B"/></g></g></g><g id="Lines"><g><path d="M102.797,251.674c-1.274,0-2.549-0.484-3.524-1.453c-1.959-1.946-1.969-5.112-0.023-7.071    c10.296-10.364,19.534-18.25,25.47-23.041c2.149-1.734,5.296-1.398,7.031,0.751c1.734,2.149,1.398,5.297-0.751,7.031    c-5.741,4.633-14.679,12.264-24.656,22.307C105.367,251.182,104.082,251.674,102.797,251.674z" fill="#3F456B"/></g><g><path d="M62.176,302.708c-0.892,0-1.794-0.238-2.609-0.738c-2.354-1.444-3.092-4.523-1.648-6.876    c4.969-8.101,10.617-16.223,16.785-24.143c1.697-2.179,4.841-2.568,7.017-0.873c2.179,1.697,2.569,4.839,0.873,7.017    c-5.941,7.628-11.375,15.443-16.15,23.227C65.499,301.86,63.857,302.708,62.176,302.708z" fill="#3F456B"/></g><g><path d="M287,501.749c-0.003,0-0.007,0-0.011,0L170.857,501.5c-53.565-0.113-92.743-12.876-116.445-37.936    c-18.751-19.825-27.336-47.099-25.516-81.067c1.004-18.749,5.446-37.773,13.202-56.545c1.054-2.552,3.978-3.766,6.53-2.712    c2.552,1.054,3.767,3.978,2.712,6.53c-7.323,17.725-11.515,35.645-12.458,53.262c-1.667,31.123,6.002,55.905,22.796,73.66    c21.744,22.989,58.485,34.7,109.201,34.807l116.133,0.248c2.761,0.006,4.995,2.25,4.989,5.011    C291.995,499.517,289.757,501.749,287,501.749z" fill="#3F456B"/></g><g><path d="M478.21,385.252c-2.618,0-4.818-2.036-4.985-4.685c-2.41-38.214-18.742-75.726-48.541-111.492    c-1.768-2.122-1.481-5.274,0.641-7.042c2.123-1.769,5.274-1.48,7.042,0.641c31.187,37.433,48.292,76.886,50.838,117.264    c0.174,2.756-1.919,5.131-4.675,5.305C478.423,385.249,478.316,385.252,478.21,385.252z" fill="#3F456B"/></g><g><path d="M404.129,245.003c-1.229,0-2.46-0.45-3.426-1.359c-3.96-3.727-8.022-7.343-12.074-10.75    c-2.114-1.777-2.386-4.931-0.609-7.045c1.777-2.113,4.931-2.386,7.045-0.609c4.193,3.526,8.396,7.268,12.492,11.122    c2.011,1.892,2.107,5.057,0.214,7.068C406.787,244.475,405.459,245.003,404.129,245.003z" fill="#3F456B"/></g><g><path d="M349.012,238.035c-2.631,0-4.836-2.056-4.987-4.716c-0.157-2.757,1.95-5.119,4.708-5.276    c18.803-1.071,30.15-2.691,30.263-2.708c0.108-0.016,0.218-0.028,0.327-0.036c11.934-0.931,19.83-4.637,23.469-11.016    c3.799-6.659,2.882-16.791-2.517-27.797c-4.29-8.747-14.058-6.859-15.156-6.613c-0.167,0.037-0.37,0.073-0.541,0.093    c-122.05,14.192-224.082-1.037-252.447-6.042c-12.481-2.201-14.943,5.443-14.966,5.521c-0.066,0.22-0.147,0.434-0.243,0.643    c-4.025,8.76-7.852,20.937-3.227,29.203c3.236,5.784,10.537,9.399,21.701,10.746c0.289,0.039,20.341,2.809,45.977,5.177    c2.75,0.254,4.773,2.689,4.519,5.439c-0.254,2.75-2.687,4.773-5.439,4.519c-25.878-2.391-46.142-5.191-46.343-5.219    c-14.424-1.738-24.259-7.051-29.142-15.78c-5.329-9.525-4.406-22.305,2.742-37.986c1.914-5.67,9.62-15.031,26.16-12.11    c28.006,4.942,128.705,19.972,249.289,5.988c6.49-1.412,19.873-0.668,26.095,12.019c6.982,14.236,7.772,27.432,2.224,37.156    c-6.669,11.689-20.621,15.167-31.216,16.017c-1.532,0.215-12.696,1.73-30.96,2.77    C349.204,238.032,349.107,238.035,349.012,238.035z" fill="#3F456B"/></g><g><g><path d="M246.018,266.728c-2.735,0-4.968-2.201-4.999-4.943c-0.032-2.761,2.182-5.025,4.943-5.056     c11.833-0.134,23.74-0.568,35.391-1.29c2.745-0.183,5.128,1.925,5.299,4.681c0.171,2.756-1.925,5.129-4.681,5.299     c-11.818,0.732-23.895,1.172-35.896,1.308C246.056,266.728,246.037,266.728,246.018,266.728z" fill="#3F456B"/></g><g><path d="M216.756,296.493c-0.048,0-0.096,0-0.145-0.002c-9.229-0.263-18.624-0.703-27.925-1.307     c-62.648-4.068-103.775-14.327-105.496-14.761c-5.249-1.327-9.653-4.608-12.4-9.24c-2.72-4.585-3.486-9.948-2.157-15.102     c2.752-10.665,13.739-17.133,24.494-14.422c0.386,0.097,40.096,9.898,98.934,13.66c4.256,0.272,7.409,0.38,11.401,0.517     c1.446,0.05,2.993,0.103,4.728,0.168c2.759,0.104,4.912,2.426,4.808,5.186c-0.104,2.759-2.419,4.913-5.186,4.808     c-1.723-0.065-3.258-0.118-4.693-0.167c-4.074-0.14-7.292-0.25-11.695-0.532c-59.858-3.826-100.332-13.84-100.734-13.941     c-5.44-1.373-10.991,1.868-12.373,7.222c-0.66,2.558-0.278,5.223,1.075,7.502c1.38,2.327,3.6,3.977,6.25,4.647     c1.684,0.426,41.948,10.468,103.693,14.478c9.181,0.596,18.454,1.03,27.562,1.29c2.76,0.079,4.934,2.38,4.855,5.14     C221.675,294.347,219.452,296.493,216.756,296.493z" fill="#3F456B"/></g><g><path d="M250.871,296.688c-2.721,0-4.95-2.182-4.997-4.914c-0.048-2.761,2.151-5.038,4.913-5.085     c12.595-0.218,25.275-0.77,37.688-1.639c2.747-0.193,5.144,1.883,5.337,4.638c0.193,2.755-1.884,5.145-4.639,5.337     c-12.586,0.882-25.444,1.441-38.214,1.662C250.93,296.688,250.9,296.688,250.871,296.688z" fill="#3F456B"/></g><g><path d="M360.021,286.317c-2.379,0-4.488-1.704-4.917-4.128c-0.482-2.719,1.332-5.314,4.051-5.796     c21.733-3.853,42.839-8.755,62.73-14.571c2.62-0.766,4.773-2.494,6.062-4.866c1.266-2.328,1.545-5.005,0.789-7.539     c-1.585-5.305-7.254-8.343-12.644-6.768c-19.737,5.771-40.485,10.58-61.667,14.293c-2.718,0.478-5.312-1.342-5.788-4.062     c-0.477-2.72,1.342-5.312,4.062-5.788c20.819-3.649,41.204-8.374,60.588-14.042c10.65-3.112,21.876,2.946,25.03,13.502     c1.525,5.104,0.962,10.495-1.584,15.179c-2.571,4.729-6.847,8.169-12.042,9.688c-20.239,5.918-41.702,10.904-63.792,14.82     C360.604,286.292,360.31,286.317,360.021,286.317z" fill="#3F456B"/></g></g><g><g><path d="M236.986,457.002c-3.844,0-7.588-1.105-10.829-3.196C206.146,440.896,196,419.218,196,389.375     c0-19.261,4.231-41.968,12.936-69.42c6.32-19.933,6.323-40.383,0.008-50.889c-2.723-4.53-4.796-5.359-7.853-6.139     c-4.688-0.523-8.409,0.647-10.652,1.351C189.152,264.681,188.137,265,187,265c-13.216,0-39.615-3.889-40.733-4.054     c-1.464-0.217-2.756-1.071-3.53-2.333s-0.948-2.801-0.478-4.204c2.574-7.669,9.766-13.818,11.403-15.143     c6.126-6.025,27.518-19.727,56.771-14.368c13.696,2.51,25.035,10.657,32.791,23.56c12.438,20.692,13.874,51.939,3.839,83.587     c-10.525,33.194-18.933,75.432,0.778,88.149c4.489,2.896,7.582,7.367,8.708,12.589c1.126,5.222,0.152,10.57-2.745,15.06     C250.106,453.577,243.818,457.001,236.986,457.002z M198.699,252.794c1.24,0,2.548,0.073,3.921,0.245     c0.2,0.025,0.397,0.062,0.593,0.111c4.662,1.166,9.607,2.957,14.301,10.765c7.948,13.221,8.313,35.853,0.954,59.063     C210.078,349.437,206,371.156,206,389.375c0,26.228,8.606,45.078,25.579,56.028c1.622,1.046,3.491,1.599,5.407,1.599     c3.42,0,6.567-1.713,8.417-4.581c1.448-2.245,1.936-4.918,1.373-7.53c-0.563-2.611-2.109-4.847-4.354-6.294     c-10.401-6.71-15.94-18.928-16.465-36.314c-0.489-16.208,3.406-37.492,11.576-63.261c9.18-28.953,8.104-57.144-2.877-75.412     c-6.235-10.372-15.233-16.898-26.023-18.876c-30.065-5.508-47.897,11.599-48.069,11.773c-0.15,0.152-0.31,0.295-0.478,0.427     c-1.046,0.827-3.181,2.761-5.085,5.126c8.697,1.151,23.138,2.884,31.601,2.938c0.233-0.065,0.515-0.159,0.844-0.262     C189.746,254.015,193.638,252.794,198.699,252.794z" fill="#3F456B"/></g></g><g><g><path d="M90.343,342.336c-15.14,0-31.042-4.701-47.266-13.972c-4.638-2.65-7.967-6.948-9.373-12.103     c-1.405-5.154-0.72-10.547,1.931-15.185s6.949-7.967,12.103-9.372c5.154-1.406,10.547-0.72,15.185,1.93     c14.28,8.16,26.826,10.561,37.289,7.135c16.108-5.273,21.968-18.229,22.209-18.778l9.149,4.035L127,284l4.575,2.019     c-0.791,1.796-8.292,17.721-28.252,24.256c-13.262,4.341-28.524,1.665-45.361-7.957c-2.319-1.326-5.015-1.668-7.592-0.965     c-2.577,0.703-4.726,2.367-6.051,4.686c-1.325,2.319-1.668,5.016-0.965,7.593c0.703,2.577,2.367,4.726,4.686,6.051     c14.694,8.397,28.927,12.654,42.304,12.654c5.843,0,12-0.988,19.377-3.108c30.357-8.728,44.176-37.429,46.639-43.094l0.074-0.169     c1.124-2.522,4.08-3.657,6.602-2.533s3.656,4.08,2.533,6.602c-2.813,6.472-18.416,38.837-53.084,48.804     C104.183,341.225,97.147,342.336,90.343,342.336z" fill="#3F456B"/></g></g><g><g><path d="M333.45,217.73c-0.33,0-0.66-0.03-0.98-0.09c-0.32-0.07-0.63-0.16-0.93-0.29     c-0.31-0.12-0.6-0.28-0.87-0.46c-0.27-0.18-0.53-0.39-0.76-0.62s-0.44-0.49-0.62-0.76c-0.18-0.27-0.33-0.56-0.46-0.86     c-0.12-0.31-0.22-0.62-0.28-0.94c-0.07-0.32-0.1-0.65-0.1-0.98c0-0.32,0.03-0.65,0.1-0.97c0.06-0.32,0.16-0.64,0.28-0.94     c0.13-0.3,0.28-0.59,0.46-0.86c0.18-0.28,0.39-0.53,0.62-0.76s0.49-0.44,0.76-0.62c0.27-0.18,0.56-0.34,0.87-0.46     c0.3-0.13,0.61-0.22,0.93-0.29c0.65-0.13,1.31-0.13,1.95,0c0.32,0.07,0.64,0.16,0.94,0.29c0.3,0.12,0.59,0.28,0.86,0.46     c0.28,0.18,0.53,0.39,0.76,0.62s0.44,0.48,0.62,0.76c0.19,0.27,0.34,0.56,0.46,0.86c0.13,0.3,0.23,0.62,0.29,0.94     c0.07,0.32,0.1,0.65,0.1,0.97c0,0.33-0.03,0.66-0.1,0.98c-0.06,0.32-0.16,0.63-0.29,0.94c-0.12,0.3-0.27,0.59-0.46,0.86     c-0.18,0.27-0.39,0.53-0.62,0.76s-0.48,0.44-0.76,0.62c-0.27,0.18-0.56,0.34-0.86,0.46c-0.3,0.13-0.62,0.22-0.94,0.29     C334.1,217.7,333.77,217.73,333.45,217.73z" fill="#3F456B"/></g><g><path d="M346.94,211.75c-0.25-2.74,1.78-5.18,4.53-5.43l0,0c2.75-0.24,5.18,1.78,5.43,4.54l0,0     c0.25,2.75-1.78,5.17-4.53,5.42v0.01c-0.15,0.01-0.31,0.02-0.46,0.02l0,0C349.35,216.31,347.17,214.35,346.94,211.75z      M365.38,209.97c-0.32-2.74,1.64-5.22,4.38-5.55l0,0c2.74-0.32,5.23,1.64,5.55,4.38l0,0c0.32,2.75-1.64,5.23-4.38,5.56l0,0     c-0.2,0.02-0.4,0.03-0.59,0.03l0,0C367.84,214.39,365.68,212.52,365.38,209.97z M383.76,207.69c-0.4-2.73,1.49-5.27,4.22-5.67     l0,0c2.74-0.4,5.28,1.48,5.68,4.22l0,0c0.4,2.73-1.49,5.27-4.22,5.67l0,0c-0.25,0.04-0.49,0.05-0.74,0.05l0,0     C386.26,211.96,384.13,210.18,383.76,207.69z" fill="#3F456B"/></g><g><path d="M407,209c-1.32,0-2.6-0.53-3.54-1.47c-0.23-0.23-0.43-0.48-0.62-0.75c-0.18-0.28-0.33-0.57-0.46-0.87     c-0.12-0.3-0.22-0.61-0.28-0.93c-0.07-0.33-0.1-0.65-0.1-0.98s0.03-0.66,0.1-0.98c0.06-0.32,0.16-0.63,0.28-0.93     c0.13-0.3,0.28-0.59,0.46-0.87c0.19-0.27,0.39-0.52,0.62-0.76c1.16-1.16,2.89-1.69,4.52-1.36c0.32,0.06,0.63,0.16,0.93,0.28     c0.3,0.13,0.59,0.28,0.87,0.46c0.27,0.18,0.52,0.39,0.76,0.62c0.23,0.24,0.44,0.49,0.62,0.76c0.18,0.28,0.33,0.57,0.46,0.87     c0.12,0.3,0.22,0.61,0.28,0.93c0.07,0.32,0.1,0.65,0.1,0.98c0,1.32-0.53,2.6-1.46,3.53c-0.24,0.24-0.49,0.44-0.76,0.63     c-0.28,0.18-0.57,0.33-0.87,0.46c-0.3,0.12-0.61,0.22-0.93,0.28C407.65,208.97,407.33,209,407,209z" fill="#3F456B"/></g></g><g><g><path d="M107.99,201.52c-1.31,0-2.6-0.53-3.53-1.46c-0.93-0.93-1.47-2.22-1.47-3.53c0-0.33,0.04-0.66,0.1-0.98     c0.07-0.32,0.16-0.64,0.29-0.94c0.12-0.3,0.28-0.59,0.46-0.86s0.39-0.53,0.62-0.76c0.93-0.93,2.22-1.47,3.53-1.47     c1.32,0,2.61,0.54,3.54,1.47c0.23,0.23,0.44,0.49,0.62,0.76s0.33,0.56,0.46,0.86c0.12,0.3,0.22,0.62,0.29,0.94     c0.06,0.32,0.09,0.65,0.09,0.98c0,1.31-0.53,2.6-1.46,3.53C110.6,200.99,109.31,201.52,107.99,201.52z" fill="#3F456B"/></g><g><path d="M270.7,219.24c-2.76-0.04-4.96-2.32-4.92-5.08l0,0c0.04-2.76,2.31-4.96,5.07-4.92l0,0     c2.76,0.04,4.97,2.31,4.93,5.07l0,0c-0.04,2.74-2.28,4.93-5,4.93l0,0C270.75,219.24,270.73,219.24,270.7,219.24z M250.09,218.69     L250.09,218.69c-2.76-0.11-4.91-2.43-4.8-5.19l0,0c0.1-2.76,2.43-4.91,5.19-4.8l0,0c2.76,0.1,4.91,2.43,4.8,5.18l0,0     c-0.1,2.7-2.32,4.81-4.99,4.81l0,0C250.22,218.69,250.16,218.69,250.09,218.69z M229.5,217.66c-2.75-0.17-4.85-2.54-4.68-5.3l0,0     c0.17-2.75,2.54-4.85,5.3-4.68l0,0c2.75,0.17,4.85,2.54,4.68,5.3l0,0c-0.16,2.65-2.36,4.69-4.99,4.69l0,0     C229.71,217.67,229.61,217.67,229.5,217.66z M208.95,216.16L208.95,216.16c-2.75-0.23-4.8-2.65-4.57-5.4l0,0     c0.24-2.75,2.65-4.8,5.41-4.56l0,0l0,0l0,0c2.75,0.23,4.79,2.65,4.56,5.4l0,0c-0.22,2.61-2.41,4.58-4.98,4.58l0,0     C209.23,216.18,209.09,216.17,208.95,216.16z M188.43,214.2c-2.75-0.29-4.74-2.76-4.44-5.5l0,0c0.29-2.75,2.76-4.74,5.5-4.44l0,0     c2.75,0.29,4.73,2.75,4.44,5.5l0,0c-0.27,2.57-2.44,4.47-4.97,4.47l0,0C188.79,214.23,188.61,214.22,188.43,214.2z      M167.96,211.78c-2.74-0.36-4.67-2.86-4.32-5.6l0,0c0.36-2.74,2.87-4.67,5.6-4.32l0,0c0,0,0,0,0.01,0l0,0     c2.73,0.36,4.67,2.87,4.31,5.6l0,0c-0.33,2.52-2.48,4.36-4.95,4.36l0,0C168.39,211.82,168.18,211.81,167.96,211.78z      M147.54,208.88c-2.73-0.42-4.6-2.97-4.18-5.7l0,0c0.42-2.73,2.98-4.6,5.7-4.18l0,0c2.73,0.42,4.61,2.97,4.19,5.7l0,0     c-0.39,2.47-2.51,4.24-4.94,4.24l0,0C148.06,208.94,147.8,208.92,147.54,208.88z M127.19,205.48c-2.72-0.5-4.52-3.1-4.03-5.82     l0,0c0.5-2.72,3.1-4.52,5.82-4.02l0,0l0,0l0,0c2.71,0.49,4.52,3.09,4.02,5.81l0,0c-0.44,2.42-2.54,4.11-4.91,4.11l0,0     C127.79,205.56,127.49,205.53,127.19,205.48z" fill="#3F456B"/></g><g><path d="M291.25,219.29c-0.32,0-0.65-0.04-0.98-0.1c-0.31-0.07-0.63-0.16-0.93-0.29     c-0.3-0.12-0.59-0.28-0.86-0.46c-0.28-0.18-0.53-0.39-0.77-0.62c-0.92-0.93-1.46-2.22-1.46-3.53c0-0.33,0.03-0.66,0.1-0.98     c0.06-0.32,0.16-0.63,0.28-0.94c0.13-0.3,0.28-0.59,0.46-0.86c0.19-0.27,0.39-0.53,0.62-0.76c0.24-0.23,0.49-0.44,0.77-0.62     c0.27-0.18,0.56-0.34,0.86-0.46c0.3-0.13,0.62-0.22,0.93-0.28c1.63-0.33,3.36,0.2,4.52,1.36c0.23,0.23,0.44,0.49,0.62,0.76     c0.18,0.27,0.33,0.56,0.46,0.86c0.12,0.31,0.22,0.62,0.28,0.94c0.07,0.32,0.1,0.65,0.1,0.98c0,1.31-0.53,2.6-1.46,3.53     C293.86,218.75,292.57,219.29,291.25,219.29z" fill="#3F456B"/></g></g><g><g><path d="M277.167,432.833c-1.28,0-2.559-0.488-3.536-1.464c-1.953-1.953-1.953-5.119,0-7.071l43.833-43.833     c1.953-1.952,5.118-1.952,7.071,0c1.953,1.953,1.953,5.119,0,7.071l-43.833,43.833     C279.726,432.345,278.446,432.833,277.167,432.833z" fill="#3F456B"/></g><g><path d="M278,480c-1.28,0-2.559-0.488-3.536-1.464c-1.953-1.953-1.953-5.119,0-7.071l91-91     c1.953-1.952,5.118-1.952,7.071,0c1.953,1.953,1.953,5.119,0,7.071l-91,91C280.559,479.512,279.28,480,278,480z" fill="#3F456B"/></g><g><path d="M304.5,500.5c-1.28,0-2.559-0.488-3.536-1.464c-1.953-1.953-1.953-5.119,0-7.071l111.5-111.5     c1.953-1.952,5.118-1.952,7.071,0c1.953,1.953,1.953,5.119,0,7.071l-111.5,111.5C307.059,500.012,305.78,500.5,304.5,500.5z" fill="#3F456B"/></g><g><path d="M352,501c-1.28,0-2.559-0.488-3.536-1.464c-1.953-1.953-1.953-5.119,0-7.071l112-112     c1.953-1.952,5.118-1.952,7.071,0c1.953,1.953,1.953,5.119,0,7.071l-112,112C354.559,500.512,353.28,501,352,501z" fill="#3F456B"/></g><g><path d="M445.5,501.5c-1.28,0-2.559-0.488-3.536-1.464c-1.953-1.953-1.953-5.119,0-7.071l51-51     c1.953-1.952,5.118-1.952,7.071,0c1.953,1.953,1.953,5.119,0,7.071l-51,51C448.059,501.012,446.78,501.5,445.5,501.5z" fill="#3F456B"/></g><g><path d="M487,502H287c-8.271,0-15-6.729-15-15v-94.231c0-8.271,6.729-15,15-15h200c8.271,0,15,6.729,15,15V487     C502,495.271,495.271,502,487,502z M287,387.769c-2.757,0-5,2.243-5,5V487c0,2.757,2.243,5,5,5h200c2.757,0,5-2.243,5-5v-94.231     c0-2.757-2.243-5-5-5H287z" fill="#3F456B"/></g><g><path d="M398.5,501.5c-1.28,0-2.559-0.488-3.536-1.464c-1.953-1.953-1.953-5.119,0-7.071l98-98     c1.953-1.952,5.118-1.952,7.071,0c1.953,1.953,1.953,5.119,0,7.071l-98,98C401.059,501.012,399.78,501.5,398.5,501.5z" fill="#3F456B"/></g></g><g><g><g><path d="M312.223,232.156c-3.475,0.841-6.973-1.292-7.814-4.768c-0.841-3.474,1.293-6.972,4.768-7.814      c3.474-0.841,6.973,1.293,7.814,4.767C317.832,227.818,315.697,231.315,312.223,232.156z" fill="#3F456B"/></g></g><g><path d="M304.348,318.376c-2.724,0-5.407-0.75-7.798-2.208c-3.427-2.091-5.833-5.381-6.772-9.265l-15.767-65.118     c-0.919-3.793-0.33-7.744,1.657-11.124c0.033-0.055,0.066-0.11,0.101-0.164l19.523-30.477c2.149-3.462,7.906-7.347,15.098-3.986     c0.167,0.078,0.33,0.166,0.488,0.262c7.048,4.3,31.692,17.602,31.94,17.736c0.078,0.042,0.155,0.086,0.231,0.132     c3.426,2.091,5.831,5.381,6.771,9.264l15.767,65.119c0.94,3.883,0.307,7.909-1.784,11.336c-2.091,3.427-5.381,5.832-9.264,6.772     l-46.652,11.296C306.712,318.236,305.526,318.376,304.348,318.376z M284.248,235.798c-0.633,1.115-0.817,2.402-0.519,3.634     l15.767,65.118c0.312,1.288,1.115,2.382,2.262,3.082s2.487,0.913,3.775,0.602l46.652-11.296c1.287-0.312,2.381-1.115,3.081-2.262     c0.7-1.146,0.914-2.487,0.602-3.774L340.1,225.782c-0.303-1.251-1.072-2.321-2.169-3.023     c-2.177-1.176-24.607-13.296-31.985-17.757c-1.369-0.568-1.935-0.075-2.154,0.285c-0.019,0.031-0.038,0.062-0.058,0.093     L284.248,235.798z" fill="#3F456B"/></g><g><g><path d="M302.479,266.643c-2.255,0-4.301-1.536-4.855-3.824c-0.65-2.684,0.999-5.386,3.683-6.036l31.101-7.531      c2.688-0.651,5.386,1,6.036,3.683c0.65,2.684-0.999,5.386-3.683,6.036l-31.101,7.531      C303.264,266.597,302.868,266.643,302.479,266.643z" fill="#3F456B"/></g><g><path d="M307.891,288.997c-2.255,0-4.301-1.536-4.855-3.824c-0.65-2.684,0.999-5.386,3.683-6.036l31.101-7.531      c2.689-0.648,5.387,1,6.036,3.683c0.65,2.684-0.999,5.386-3.683,6.036l-31.101,7.531      C308.676,288.951,308.28,288.997,307.891,288.997z" fill="#3F456B"/></g></g></g><g><path d="M303.983,203.738c-0.067,0-0.133-0.001-0.201-0.004c-2.758-0.109-4.905-2.431-4.799-5.188l0,0    c0.003-0.093,0.321-9.448-2.144-18.711c-2.917-10.963-8.271-16.773-15.915-17.269c-5.917-0.385-10.594,0.939-13.908,3.933    c-5.48,4.95-5.929,13.086-5.932,13.167c-0.102,2.76-2.435,4.918-5.181,4.812c-2.76-0.102-4.914-2.421-4.812-5.181    c0.019-0.502,0.553-12.39,9.222-20.22c5.394-4.872,12.547-7.055,21.258-6.491c8.569,0.556,19.859,5.326,24.989,24.894    c2.803,10.691,2.432,21.021,2.415,21.455C308.869,201.627,306.653,203.738,303.983,203.738z" fill="#3F456B"/></g></g></svg>