<?xml version="1.0" ?><svg enable-background="new 0 0 512 512" version="1.1" viewBox="0 0 512 512" xml:space="preserve" xmlns="http://www.w3.org/2000/svg" xmlns:xlink="http://www.w3.org/1999/xlink"><g id="Colors"><g><g><path d="M427.863,55.403c-2.747,0-4.982-2.219-4.999-4.971l-0.08-13.54c-0.017-2.761,2.209-5.013,4.971-5.029     c0.01,0,0.02,0,0.03,0c2.747,0,4.982,2.219,4.999,4.971l0.08,13.54c0.017,2.761-2.209,5.013-4.971,5.029     C427.884,55.403,427.874,55.403,427.863,55.403z" fill="#3F456B"/></g></g><g><g><path d="M469.351,95.891c-2.744,0-4.979-2.215-4.999-4.964c-0.02-2.761,2.202-5.016,4.964-5.036l13-0.095     c0.012,0,0.024,0,0.037,0c2.744,0,4.979,2.215,4.999,4.964c0.02,2.761-2.202,5.016-4.964,5.036l-13,0.095     C469.376,95.891,469.363,95.891,469.351,95.891z" fill="#3F456B"/></g></g><g><g><path d="M463.598,75.438c-1.718,0-3.391-0.886-4.32-2.476c-1.395-2.384-0.593-5.446,1.79-6.841l11.537-6.75     c2.385-1.396,5.447-0.594,6.841,1.79c1.395,2.384,0.593,5.446-1.79,6.841l-11.537,6.75     C465.324,75.217,464.455,75.438,463.598,75.438z" fill="#3F456B"/></g></g><g><g><path d="M448.565,60.729c-0.839,0-1.688-0.212-2.47-0.656c-2.399-1.367-3.236-4.42-1.87-6.819l6.667-11.705     c1.367-2.398,4.421-3.234,6.819-1.87c2.399,1.367,3.236,4.42,1.87,6.819l-6.667,11.705     C451.993,59.821,450.304,60.729,448.565,60.729z" fill="#3F456B"/></g></g><g><g><path d="M427.945,54.081c-2.744,0-4.978-2.214-4.999-4.962L422.854,36.9c-0.021-2.762,2.201-5.017,4.962-5.038     c0.013,0,0.026,0,0.039,0c2.744,0,4.978,2.214,4.999,4.962l0.093,12.219c0.021,2.762-2.201,5.017-4.962,5.038     C427.972,54.081,427.958,54.081,427.945,54.081z" fill="#3F456B"/></g></g><g><g><path d="M406.783,59.627c-1.718,0-3.391-0.886-4.32-2.476l-6.294-10.757c-1.395-2.384-0.593-5.446,1.79-6.841     c2.385-1.396,5.447-0.593,6.841,1.79l6.294,10.757c1.395,2.384,0.593,5.446-1.79,6.841     C408.51,59.406,407.641,59.627,406.783,59.627z" fill="#3F456B"/></g></g><g><g><path d="M392.064,75.168c-0.839,0-1.688-0.212-2.47-0.656l-11.246-6.406c-2.399-1.367-3.236-4.42-1.87-6.819     c1.367-2.399,4.42-3.234,6.819-1.87l11.246,6.406c2.399,1.367,3.236,4.42,1.87,6.819     C395.492,74.26,393.803,75.168,392.064,75.168z" fill="#3F456B"/></g></g><g><g><path d="M373.916,95.686c-2.744,0-4.979-2.215-4.999-4.964c-0.02-2.761,2.202-5.016,4.964-5.036l12.999-0.095     c0.012,0,0.024,0,0.037,0c2.744,0,4.979,2.215,4.999,4.964c0.02,2.761-2.202,5.016-4.964,5.036l-12.999,0.095     C373.941,95.686,373.929,95.686,373.916,95.686z" fill="#3F456B"/></g></g><g opacity="0.3"><g><path d="M71,145c0,0,3,12-6,17s-24,8-31,27C34,189,40,144,71,145" fill="#FFFFFF"/></g></g><g><g><path d="M227,424c-2.762,0-5-2.238-5-5V150c0-2.762,2.238-5,5-5s5,2.238,5,5v269C232,421.762,229.762,424,227,424     z" fill="#3F456B"/></g></g><g><g><path d="M227,345c-41.631,0-75.5-24.448-75.5-54.5S185.369,236,227,236c5.009,0,10.015,0.354,14.877,1.051     c2.733,0.392,4.631,2.926,4.239,5.659s-2.925,4.631-5.659,4.239C236.063,246.319,231.536,246,227,246     c-36.117,0-65.5,19.963-65.5,44.5S190.883,335,227,335s65.5-19.963,65.5-44.5c0-10.131-4.963-19.706-14.352-27.688     c-2.104-1.789-2.358-4.944-0.57-7.049c1.79-2.104,4.944-2.358,7.049-0.57c11.525,9.801,17.873,22.34,17.873,35.308     C302.5,320.552,268.631,345,227,345z" fill="#3F456B"/></g></g><g><g><path d="M307.581,335.013c1.453-3.267,5.276-4.74,8.544-3.288c3.266,1.452,4.738,5.279,3.286,8.545     c-1.451,3.267-5.277,4.737-8.542,3.286C307.601,342.105,306.13,338.28,307.581,335.013z" fill="#3F456B"/></g></g><g><g><path d="M281.581,383.013c1.453-3.267,5.276-4.74,8.544-3.288c3.266,1.452,4.738,5.279,3.286,8.545     c-1.451,3.267-5.277,4.737-8.542,3.286C281.601,390.105,280.13,386.28,281.581,383.013z" fill="#3F456B"/></g></g><g><g><path d="M327.999,392c-1.209,0-2.422-0.436-3.382-1.318C311.154,378.311,311,354.027,311,353c0-2.762,2.238-5,5-5     c2.76,0,4.997,2.235,5,4.994l0,0c0.001,0.208,0.171,20.94,10.383,30.324c2.033,1.868,2.167,5.031,0.299,7.064     C330.695,391.456,329.35,392,327.999,392z M321,353h0.01H321z" fill="#3F456B"/></g></g><g><g><path d="M307.006,393c-0.14,0-0.28-0.006-0.421-0.018c-2.752-0.229-4.797-2.646-4.567-5.397     c1.182-14.181,12.223-22.022,12.691-22.35c2.27-1.575,5.384-1.019,6.961,1.246c1.572,2.259,1.023,5.362-1.225,6.945     c-0.165,0.119-7.685,5.647-8.463,14.988C311.766,391.025,309.579,393,307.006,393z" fill="#3F456B"/></g></g><g><g><path d="M121.581,306.013c1.453-3.267,5.276-4.74,8.544-3.288c3.266,1.452,4.738,5.279,3.286,8.545     c-1.451,3.267-5.277,4.737-8.542,3.286C121.601,313.105,120.13,309.28,121.581,306.013z" fill="#3F456B"/></g></g><g><g><path d="M141.999,363c-1.209,0-2.422-0.436-3.382-1.318C125.154,349.311,125,325.027,125,324c0-2.762,2.238-5,5-5     c2.76,0,4.997,2.235,5,4.994l0,0c0.001,0.208,0.171,20.94,10.383,30.324c2.033,1.868,2.167,5.031,0.299,7.064     C144.695,362.456,143.35,363,141.999,363z M135,324h0.01H135z" fill="#3F456B"/></g></g><g><g><path d="M121.006,364c-0.14,0-0.28-0.006-0.421-0.018c-2.752-0.229-4.797-2.646-4.567-5.397     c1.182-14.181,12.223-22.022,12.691-22.35c2.269-1.577,5.384-1.019,6.961,1.246c1.572,2.259,1.023,5.362-1.225,6.945     c-0.165,0.119-7.685,5.647-8.463,14.988C125.766,362.025,123.579,364,121.006,364z" fill="#3F456B"/></g></g><g><g><path d="M382.581,284.013c1.453-3.267,5.276-4.74,8.544-3.288c3.266,1.452,4.738,5.279,3.286,8.545     c-1.451,3.267-5.277,4.737-8.542,3.286C382.601,291.105,381.13,287.28,382.581,284.013z" fill="#3F456B"/></g></g><g><g><path d="M402.999,341c-1.209,0-2.422-0.436-3.382-1.318C386.154,327.311,386,303.027,386,302c0-2.762,2.238-5,5-5     c2.76,0,4.997,2.235,5,4.994l0,0c0.001,0.208,0.171,20.94,10.383,30.324c2.033,1.868,2.167,5.031,0.299,7.064     C405.695,340.456,404.35,341,402.999,341z M396,302h0.01H396z" fill="#3F456B"/></g></g><g><g><path d="M382.006,342c-0.14,0-0.28-0.006-0.421-0.018c-2.752-0.229-4.797-2.646-4.567-5.397     c1.182-14.181,12.223-22.022,12.691-22.35c2.27-1.575,5.384-1.019,6.961,1.246c1.572,2.259,1.023,5.362-1.225,6.945     c-0.165,0.119-7.685,5.647-8.463,14.988C386.766,340.025,384.579,342,382.006,342z" fill="#3F456B"/></g></g><g><g><path d="M253.581,244.013c1.453-3.267,5.276-4.74,8.544-3.288c3.266,1.452,4.738,5.279,3.286,8.545     c-1.451,3.267-5.277,4.737-8.542,3.286C253.601,251.105,252.13,247.28,253.581,244.013z" fill="#3F456B"/></g></g><g><g><path d="M273.999,301c-1.209,0-2.422-0.436-3.382-1.318C257.154,287.311,257,263.027,257,262c0-2.762,2.238-5,5-5     c2.76,0,4.997,2.235,5,4.994l0,0c0.001,0.208,0.171,20.94,10.383,30.324c2.033,1.868,2.167,5.031,0.299,7.064     C276.695,300.456,275.35,301,273.999,301z M267,262h0.01H267z" fill="#3F456B"/></g></g><g><g><path d="M253.006,302c-0.14,0-0.28-0.006-0.421-0.018c-2.752-0.229-4.797-2.646-4.567-5.397     c1.182-14.181,12.223-22.022,12.691-22.35c2.27-1.576,5.385-1.019,6.961,1.246c1.572,2.259,1.023,5.362-1.225,6.945     c-0.165,0.119-7.685,5.647-8.463,14.988C257.766,300.025,255.579,302,253.006,302z" fill="#3F456B"/></g></g><g><g><path d="M144.581,189.013c1.453-3.267,5.276-4.74,8.544-3.288c3.266,1.452,4.738,5.279,3.286,8.545     c-1.451,3.267-5.277,4.737-8.542,3.286C144.601,196.105,143.13,192.28,144.581,189.013z" fill="#3F456B"/></g></g><g><g><path d="M164.999,246c-1.209,0-2.422-0.436-3.382-1.318C148.154,232.311,148,208.027,148,207     c0-2.357,1.647-4.395,3.952-4.889C152.338,202.023,162,199.756,162,192c0-2.762,2.238-5,5-5s5,2.238,5,5     c0,10.21-7.603,16.005-13.808,18.572c0.536,6.384,2.56,19.733,10.19,26.746c2.033,1.868,2.167,5.031,0.299,7.064     C167.695,245.456,166.35,246,164.999,246z" fill="#3F456B"/></g></g><g><g><path d="M144.006,247c-0.14,0-0.28-0.006-0.421-0.018c-2.752-0.229-4.797-2.646-4.567-5.397     c1.182-14.181,12.223-22.022,12.691-22.35c2.271-1.576,5.385-1.019,6.961,1.246c1.572,2.259,1.023,5.362-1.225,6.945     c-0.165,0.119-7.685,5.647-8.463,14.988C148.766,245.025,146.579,247,144.006,247z" fill="#3F456B"/></g></g><g><g><path d="M301.002,361.001c-1.939,0-3.785-1.136-4.598-3.031c-1.088-2.538,0.088-5.478,2.626-6.565     c0.63-0.271,15.617-6.572,31.95-3.308c2.708,0.542,4.464,3.176,3.923,5.884c-0.541,2.707-3.17,4.455-5.884,3.923     c-13.319-2.666-25.924,2.639-26.05,2.692C302.327,360.871,301.659,361.001,301.002,361.001z" fill="#3F456B"/></g></g><g><g><path d="M167,501c-2.762,0-5-2.238-5-5v-15c0-2.762,2.238-5,5-5s5,2.238,5,5v15C172,498.762,169.762,501,167,501z     " fill="#3F456B"/></g></g><g><g><path d="M187,501c-2.762,0-5-2.238-5-5v-15c0-2.762,2.238-5,5-5s5,2.238,5,5v15C192,498.762,189.762,501,187,501z     " fill="#3F456B"/></g></g><g><g><path d="M207,501c-2.762,0-5-2.238-5-5v-15c0-2.762,2.238-5,5-5s5,2.238,5,5v15C212,498.762,209.762,501,207,501z     " fill="#3F456B"/></g></g><g><g><path d="M227,501c-2.762,0-5-2.238-5-5v-15c0-2.762,2.238-5,5-5s5,2.238,5,5v15C232,498.762,229.762,501,227,501z     " fill="#3F456B"/></g></g><g><g><path d="M247,501c-2.762,0-5-2.238-5-5v-15c0-2.762,2.238-5,5-5s5,2.238,5,5v15C252,498.762,249.762,501,247,501z     " fill="#3F456B"/></g></g><g><g><path d="M266,501c-2.762,0-5-2.238-5-5v-15c0-2.762,2.238-5,5-5s5,2.238,5,5v15C271,498.762,268.762,501,266,501z     " fill="#3F456B"/></g></g><g><g><path d="M286,501c-2.762,0-5-2.238-5-5v-15c0-2.762,2.238-5,5-5s5,2.238,5,5v15C291,498.762,288.762,501,286,501z     " fill="#3F456B"/></g></g><g><g><path d="M306,501c-2.762,0-5-2.238-5-5v-15c0-2.762,2.238-5,5-5s5,2.238,5,5v15C311,498.762,308.762,501,306,501z     " fill="#3F456B"/></g></g><g><g><path d="M326,501c-2.762,0-5-2.238-5-5v-15c0-2.762,2.238-5,5-5s5,2.238,5,5v15C331,498.762,328.762,501,326,501z     " fill="#3F456B"/></g></g><g><g><path d="M346,501c-2.762,0-5-2.238-5-5v-15c0-2.762,2.238-5,5-5s5,2.238,5,5v15C351,498.762,348.762,501,346,501z     " fill="#3F456B"/></g></g></g><g id="Lines"><g><g><path d="M24.702,151.344c-1.577,3.209-5.453,4.535-8.664,2.959c-3.208-1.576-4.533-5.456-2.957-8.664     c1.575-3.209,5.454-4.532,8.662-2.957C24.953,144.257,26.276,148.135,24.702,151.344z" fill="#3F456B"/></g></g><g><g><path d="M21.005,135c-0.122,0-0.245-0.004-0.37-0.014c-2.754-0.201-4.823-2.597-4.621-5.352     c0.034-0.47,0.923-11.631,8.014-22.812C30.63,96.411,43.965,84,70,84c2.762,0,5,2.238,5,5s-2.238,5-5,5     c-17.252,0-29.879,6.116-37.527,18.178c-5.761,9.084-6.479,18.098-6.486,18.188C25.794,132.995,23.601,135,21.005,135z" fill="#3F456B"/></g></g><g><g><path d="M492.581,419.013c1.453-3.267,5.276-4.74,8.544-3.288c3.266,1.452,4.738,5.279,3.286,8.545     c-1.451,3.267-5.277,4.737-8.542,3.286C492.601,426.105,491.13,422.28,492.581,419.013z" fill="#3F456B"/></g></g><g><g><path d="M474.951,481.526c-1.746,0-3.44-0.915-4.359-2.544c-1.357-2.404-0.508-5.454,1.897-6.812     c18.646-10.522,19.602-31.93,19.609-32.145c0.096-2.759,2.37-4.932,5.171-4.823c2.76,0.096,4.919,2.411,4.823,5.171     c-0.039,1.106-1.213,27.258-24.689,40.506C476.627,481.318,475.783,481.526,474.951,481.526z" fill="#3F456B"/></g></g><g><g><g><path d="M302.413,224.388H282c-2.762,0-5-2.238-5-5v-32.822c0-2.762,2.238-5,5-5s5,2.238,5,5v27.822h15.413      c2.762,0,5,2.238,5,5S305.175,224.388,302.413,224.388z" fill="#3F456B"/></g></g><g><g><path d="M318.003,224.388c-2.762,0-5-2.238-5-5v-32.617c0-2.762,2.238-5,5-5s5,2.238,5,5v32.617      C323.003,222.149,320.765,224.388,318.003,224.388z" fill="#3F456B"/></g></g><g><g><path d="M349.772,224.593c-1.986,0-3.784-1.175-4.581-2.996l-14.36-32.822c-1.106-2.529,0.047-5.478,2.577-6.585      c2.529-1.106,5.477,0.047,6.585,2.577l9.722,22.221l9.465-22.179c1.085-2.542,4.025-3.719,6.561-2.637      c2.54,1.084,3.721,4.021,2.637,6.561l-14.006,32.822c-0.782,1.835-2.581,3.029-4.576,3.038      C349.788,224.593,349.78,224.593,349.772,224.593z" fill="#3F456B"/></g></g><g><g><g><path d="M397.747,224.593h-20.242c-2.762,0-5-2.238-5-5v-32.798c0-2.762,2.238-5,5-5H398c2.762,0,5,2.238,5,5       s-2.238,5-5,5h-15.495v22.798h15.242c2.762,0,5,2.238,5,5S400.509,224.593,397.747,224.593z" fill="#3F456B"/></g></g><g><g><path d="M397.747,208.079h-20.115c-2.762,0-5-2.238-5-5s2.238-5,5-5h20.115c2.762,0,5,2.238,5,5       S400.509,208.079,397.747,208.079z" fill="#3F456B"/></g></g></g></g><g><g><path d="M446.113,469H67.853C49.737,469,35,454.051,35,435.675V139.196C35,120.66,50.045,105,67.853,105h378.261     C463.939,105,479,120.66,479,139.196v296.479C479,454.051,464.247,469,446.113,469z M67.853,115C55.465,115,45,126.08,45,139.196     v296.479C45,448.536,55.252,459,67.853,459h378.261c12.62,0,22.887-10.464,22.887-23.325V139.196     C469,126.08,458.52,115,446.113,115H67.853z" fill="#3F456B"/></g></g><g><g><path d="M421.866,501H91.65c-21.217,0-26.712-14.748-26.936-15.375c-0.034-0.096-0.065-0.192-0.094-0.289     l-5.571-19.273c-0.767-2.653,0.763-5.425,3.415-6.192c2.655-0.768,5.426,0.763,6.192,3.415l5.509,19.059     C74.549,483.226,78.297,491,91.65,491h330.216c13.453,0,17.092-7.712,17.479-8.64l5.512-19.188     c0.762-2.653,3.525-4.194,6.187-3.425c2.653,0.763,4.188,3.532,3.425,6.187l-5.571,19.395c-0.028,0.1-0.061,0.198-0.096,0.297     C448.578,486.252,443.083,501,421.866,501z" fill="#3F456B"/></g></g><g><g><path d="M254.063,424.475c-47.478,0-85.218-2.968-117.616-6.363c-41.84-4.384-66.382-28.753-70.973-70.473     c-4.752-43.211-4.525-87.778,0.693-136.248c1.581-14.675,6.526-34.372,21.108-44.875c24.872-17.915,58.547-19.084,88.257-20.115     c6.207-0.216,12.07-0.419,17.781-0.762c35.479-2.126,73.326-2.345,115.707-0.665c26.924,1.066,53.313,2.93,78.437,5.536     c28.882,2.999,49.712,23.092,55.721,53.749c6.188,31.575,8.518,68.613,6.738,107.108c-1.127,24.353-3.86,44.433-8.356,61.389     c-2.287,8.627-6.912,16.883-13.377,23.875h0.001c-11.026,11.927-26.535,19.639-42.551,21.159     C334.409,422.653,291.248,424.475,254.063,424.475z M255.298,153.86c-21.45,0-41.786,0.586-61.386,1.761     c-5.836,0.35-11.76,0.556-18.031,0.773c-28.289,0.981-60.352,2.095-82.761,18.235c-6.396,4.608-14.54,14.911-17.009,37.831     c-5.141,47.742-5.368,91.602-0.697,134.084c4.072,36.999,24.957,57.731,62.076,61.621c57.28,6.003,131.443,10.656,247.198-0.331     c13.398-1.271,26.913-7.998,36.152-17.993h0.001c5.36-5.798,9.183-12.593,11.053-19.648c4.312-16.262,6.939-35.654,8.032-59.288     c1.744-37.708-0.524-73.921-6.561-104.723c-5.118-26.112-22.666-43.206-46.94-45.726c-24.912-2.586-51.088-4.433-77.801-5.491     C290.028,154.229,272.312,153.86,255.298,153.86z" fill="#3F456B"/></g></g><g><g><g><g><path d="M405.67,439.98c0,3.574-2.897,6.473-6.473,6.473c-3.574,0-6.473-2.898-6.473-6.473       s2.898-6.474,6.473-6.474C402.773,433.507,405.67,436.406,405.67,439.98z" fill="#3F456B"/></g></g></g><g><g><g><path d="M440.004,439.98c0,3.574-2.897,6.473-6.473,6.473c-3.574,0-6.473-2.898-6.473-6.473       s2.898-6.474,6.473-6.474C437.107,433.507,440.004,436.406,440.004,439.98z" fill="#3F456B"/></g></g></g></g><g><g><path d="M232.682,114.697c-0.037,0-0.075,0-0.113-0.001c-2.761-0.062-4.948-2.35-4.888-5.11     c0.007-0.277,0.963-27.771,30.931-27.771c24.066,0,30.425,18.238,30.425,27.883c0,2.762-2.238,5-5,5s-5-2.238-5-5     c0-0.018-0.089-4.778-2.714-9.303c-3.302-5.693-9.261-8.58-17.711-8.58c-8.629,0-14.742,3.009-18.17,8.942     c-2.592,4.486-2.762,9.007-2.763,9.052C237.618,112.531,235.392,114.697,232.682,114.697z" fill="#3F456B"/></g></g><g><g><path d="M282.402,99.693c-1.569,0-3.115-0.737-4.089-2.117c-1.593-2.256-1.054-5.376,1.202-6.968l111.771-78.875     c2.255-1.591,5.376-1.055,6.968,1.202c1.593,2.256,1.054,5.376-1.202,6.968L285.281,98.778     C284.405,99.396,283.399,99.693,282.402,99.693z" fill="#3F456B"/></g></g><g><g><path d="M234.131,99.693c-0.997,0-2.003-0.297-2.879-0.915L119.48,19.903c-2.256-1.592-2.795-4.712-1.202-6.968     c1.593-2.257,4.714-2.794,6.968-1.202l111.771,78.875c2.256,1.592,2.795,4.712,1.202,6.968     C237.246,98.956,235.7,99.693,234.131,99.693z" fill="#3F456B"/></g></g></g></svg>