<?xml version="1.0" ?><svg id="Lines" viewBox="0 0 512 512" xmlns="http://www.w3.org/2000/svg"><defs><style>.cls-1{fill:#3f456b;}</style></defs><title/><path class="cls-1" d="M215.87,482.38C112.29,482.38,28,398.11,28,294.54s84.26-187.85,187.84-187.85S403.72,191,403.72,294.54,319.45,482.38,215.87,482.38Zm0-365.69C117.81,116.69,38,196.47,38,294.54s79.78,177.84,177.84,177.84S393.72,392.6,393.72,294.54,313.94,116.69,215.87,116.69Z"/><path class="cls-1" d="M345.93,171.07a5,5,0,0,1-3.53-8.54L460.06,44.87a5,5,0,1,1,7.07,7.07L349.47,169.6A5,5,0,0,1,345.93,171.07Z"/><path class="cls-1" d="M464.62,148.12a5,5,0,0,1-5-5V52.62h-90.5a5,5,0,0,1,0-10h95.5a5,5,0,0,1,5,5v95.5A5,5,0,0,1,464.62,148.12Z"/></svg>