<?xml version="1.0" ?><svg enable-background="new 0 0 512 512" version="1.1" viewBox="0 0 512 512" xml:space="preserve" xmlns="http://www.w3.org/2000/svg" xmlns:xlink="http://www.w3.org/1999/xlink"><g id="Colors"><g><path d="M59.304,338.972c-1.803,0-3.589-0.663-5.081-2.008c-1.514-1.364-2.311-3.059-2.738-3.969    c-1.845-3.918-3.316-7.891-4.739-11.733l-0.794-2.14c-0.2-0.534-0.394-1.114-0.587-1.694c-0.154-0.46-0.306-0.922-0.464-1.346    c-0.026-0.07-0.053-0.147-0.081-0.23c-1.062-0.24-2.14-0.465-3.253-0.697c-2.252-0.47-4.581-0.955-6.957-1.621    c-0.315-0.089-0.748-0.188-1.254-0.307c-4.679-1.099-13.389-3.143-13.401-10.21c-0.003-2.57,1.495-4.364,2.059-5.04    c3.135-3.755,6.772-6.768,10.29-9.682l1.311-1.089c1.585-1.323,2.863-2.368,3.883-3.189c-1.323-6.695-2.637-16.978-0.864-22.25    c1.226-3.64,3.522-5.081,5.233-5.648c3.004-0.998,5.663,0.185,6.827,0.852c4.5,2.068,12.837,8.453,17.37,12.045    c7.274-4.066,14.78-6.977,17.107-7.757c2.086-0.699,4.043-0.803,5.817-0.311c2.124,0.588,4.102,2.106,5.284,4.06    c0.379,0.631,0.672,1.312,0.875,2.038c0.433,1.548,0.444,3.251,0.035,5.063c-0.539,2.382-2.654,10.068-5.931,17.672    c3.726,3.605,10.355,10.412,13.688,16.206c0.785,1.096,2.217,3.616,1.531,6.695c-0.392,1.759-1.594,4.189-5.091,5.776    c-5.004,2.271-15.183,2.036-21.981,1.413c-3.373,5.934-7.348,11.306-12.086,16.346C63.593,338.043,61.437,338.972,59.304,338.972z     M60.996,329.615h0.01H60.996z M31.509,302.372c1.506,0.503,3.325,0.93,4.131,1.119c0.675,0.158,1.25,0.296,1.671,0.413    c2.048,0.575,4.111,1.005,6.295,1.46c2.007,0.419,4.083,0.852,6.199,1.414c0.769,0.204,1.478,0.589,2.068,1.122l0.066,0.06    c1.44,1.301,1.909,3.045,2.251,4.318c0.039,0.145,0.073,0.279,0.107,0.389c0.169,0.45,0.362,1.026,0.554,1.602    c0.154,0.464,0.308,0.928,0.467,1.354l0.805,2.166c1.224,3.304,2.388,6.449,3.76,9.529c4.056-4.627,7.432-9.584,10.282-15.086    c0.969-1.872,3.008-2.931,5.1-2.656c6.649,0.887,14.467,0.948,18.295,0.245c-3.588-5.506-10.953-12.667-13.697-15.141    c-1.652-1.489-2.122-3.892-1.152-5.893c3.254-6.721,5.523-14.303,6.394-17.603c-3.191,1.198-10.506,4.222-16.866,8.141    c-1.813,1.116-4.132,0.963-5.781-0.381c-4.608-3.754-12.567-9.864-16.649-12.215c-0.301,3.896,0.55,11.629,2.097,18.126    c0.458,1.925-0.262,3.938-1.836,5.137c-0.987,0.751-2.837,2.209-6.049,4.89l-1.339,1.112    C36.119,298.118,33.666,300.15,31.509,302.372z M95.427,309.257L95.427,309.257L95.427,309.257z M85.479,269.548L85.479,269.548    L85.479,269.548z M43.525,265.521c0.006,0.004,0.012,0.009,0.019,0.014C43.538,265.53,43.531,265.526,43.525,265.521z" fill="#3F456B"/></g><g><path d="M458.041,344.001c-2.479,0-4.63-1.842-4.953-4.364c-0.066-0.502-5.924-43.072-33.508-45.658    c-2.509-0.235-4.451-2.302-4.53-4.82c-0.08-2.52,1.728-4.704,4.217-5.097c1.36-0.227,33.78-6.104,33.78-48.062    c0-2.762,2.238-5,5-5s5,2.238,5,5c0,26.302-11.384,40.661-20.934,48.074c-2.355,1.828-4.712,3.33-6.955,4.562    c8.325,4.759,15.26,12.999,20.442,24.424c5.745,12.665,7.341,24.797,7.406,25.308c0.35,2.739-1.588,5.243-4.327,5.593    C458.465,343.987,458.252,344.001,458.041,344.001z" fill="#3F456B"/></g><g><path d="M458.053,344.001c-0.211,0-0.424-0.014-0.639-0.041c-2.739-0.35-4.677-2.854-4.327-5.593    c0.065-0.511,1.661-12.643,7.406-25.308c5.183-11.425,12.117-19.665,20.442-24.424c-2.243-1.231-4.6-2.733-6.955-4.562    c-9.55-7.413-20.934-21.772-20.934-48.074c0-2.762,2.238-5,5-5s5,2.238,5,5c0,17.867,5.742,31.384,17.066,40.176    c8.253,6.407,16.631,7.872,16.714,7.886c2.489,0.393,4.297,2.577,4.217,5.097c-0.079,2.519-2.021,4.585-4.53,4.82    c-27.693,2.596-33.452,45.225-33.507,45.654C462.685,342.157,460.532,344.001,458.053,344.001z" fill="#3F456B"/></g><g><path d="M76.041,504.001c-2.478,0-4.629-1.842-4.953-4.364c-0.065-0.502-5.923-43.072-33.507-45.658    c-2.509-0.235-4.451-2.302-4.531-4.82c-0.08-2.52,1.729-4.704,4.218-5.097c1.36-0.227,33.78-6.104,33.78-48.062    c0-2.762,2.239-5,5-5s5,2.238,5,5c0,26.302-11.384,40.661-20.934,48.074c-2.354,1.828-4.711,3.33-6.955,4.562    c8.326,4.759,15.26,12.999,20.442,24.424c5.745,12.665,7.341,24.797,7.407,25.308c0.35,2.739-1.587,5.243-4.327,5.593    C76.466,503.987,76.252,504.001,76.041,504.001z" fill="#3F456B"/></g><g><path d="M76.054,504.001c-0.211,0-0.424-0.014-0.64-0.041c-2.739-0.35-4.676-2.854-4.327-5.593    c0.065-0.511,1.662-12.643,7.407-25.308c5.182-11.425,12.116-19.665,20.442-24.424c-2.244-1.231-4.601-2.733-6.955-4.562    c-9.55-7.413-20.934-21.772-20.934-48.074c0-2.762,2.239-5,5-5s5,2.238,5,5c0,17.867,5.742,31.384,17.066,40.176    c8.253,6.407,16.632,7.872,16.714,7.886c2.489,0.393,4.297,2.577,4.218,5.097c-0.08,2.519-2.021,4.585-4.531,4.82    c-27.694,2.596-33.452,45.225-33.507,45.654C80.685,502.157,78.533,504.001,76.054,504.001z" fill="#3F456B"/></g><g><path d="M45.466,364.837c-1.28,0-2.559-0.488-3.536-1.465c-1.953-1.952-1.953-5.118,0-7.07l8.017-8.017    c1.954-1.952,5.119-1.952,7.071,0c1.953,1.952,1.953,5.118,0,7.07l-8.017,8.017C48.025,364.349,46.745,364.837,45.466,364.837z" fill="#3F456B"/></g><g><path d="M18.103,392.18c-1.28,0-2.559-0.488-3.536-1.465c-1.953-1.952-1.953-5.118,0-7.07l8.017-8.017    c1.954-1.953,5.119-1.952,7.071,0c1.953,1.952,1.953,5.118,0,7.07l-8.017,8.017C20.662,391.691,19.382,392.18,18.103,392.18z" fill="#3F456B"/></g><g><path d="M53.473,392.19c-1.28,0-2.559-0.488-3.536-1.465l-8.018-8.018c-1.953-1.952-1.953-5.118,0-7.07    c1.953-1.953,5.118-1.953,7.071,0l8.018,8.018c1.953,1.952,1.953,5.118,0,7.07C56.032,391.702,54.753,392.19,53.473,392.19z" fill="#3F456B"/></g><g><path d="M26.13,364.827c-1.28,0-2.559-0.488-3.536-1.465l-8.017-8.018c-1.953-1.952-1.953-5.118,0-7.07    c1.954-1.952,5.119-1.952,7.071,0l8.017,8.018c1.953,1.952,1.953,5.118,0,7.07C28.689,364.339,27.41,364.827,26.13,364.827z" fill="#3F456B"/></g><g><path d="M418.466,364.837c-1.279,0-2.56-0.488-3.536-1.465c-1.952-1.952-1.952-5.118,0.001-7.071l8.018-8.017    c1.953-1.951,5.118-1.952,7.071,0.001c1.952,1.952,1.952,5.118-0.001,7.071l-8.018,8.017    C421.024,364.349,419.745,364.837,418.466,364.837z" fill="#3F456B"/></g><g><path d="M391.104,392.18c-1.279,0-2.56-0.488-3.535-1.465c-1.953-1.952-1.953-5.118,0-7.07l8.017-8.017    c1.951-1.953,5.119-1.953,7.07,0c1.953,1.952,1.953,5.118,0,7.07l-8.017,8.017C393.663,391.691,392.383,392.18,391.104,392.18z" fill="#3F456B"/></g><g><path d="M426.473,392.19c-1.279,0-2.56-0.488-3.536-1.465l-8.017-8.018c-1.952-1.952-1.952-5.118,0.001-7.071    c1.953-1.951,5.118-1.952,7.071,0.001l8.017,8.018c1.952,1.952,1.952,5.118-0.001,7.071    C429.031,391.702,427.752,392.19,426.473,392.19z" fill="#3F456B"/></g><g><path d="M399.13,364.827c-1.279,0-2.56-0.488-3.536-1.465l-8.017-8.018c-1.952-1.952-1.952-5.118,0.001-7.071    c1.953-1.951,5.118-1.952,7.071,0.001l8.017,8.018c1.952,1.952,1.952,5.118-0.001,7.071    C401.688,364.339,400.409,364.827,399.13,364.827z" fill="#3F456B"/></g><g><path d="M486.466,471.837c-1.279,0-2.56-0.488-3.536-1.465c-1.952-1.952-1.952-5.118,0.001-7.071l8.018-8.017    c1.953-1.951,5.118-1.952,7.071,0.001c1.952,1.952,1.952,5.118-0.001,7.071l-8.018,8.017    C489.024,471.349,487.745,471.837,486.466,471.837z" fill="#3F456B"/></g><g><path d="M459.104,499.18c-1.279,0-2.56-0.488-3.535-1.465c-1.953-1.952-1.953-5.118,0-7.07l8.017-8.017    c1.951-1.953,5.119-1.953,7.07,0c1.953,1.952,1.953,5.118,0,7.07l-8.017,8.017C461.663,498.691,460.383,499.18,459.104,499.18z" fill="#3F456B"/></g><g><path d="M494.473,499.19c-1.279,0-2.56-0.488-3.536-1.465l-8.017-8.018c-1.952-1.952-1.952-5.118,0.001-7.071    c1.953-1.951,5.118-1.952,7.071,0.001l8.017,8.018c1.952,1.952,1.952,5.118-0.001,7.071    C497.031,498.702,495.752,499.19,494.473,499.19z" fill="#3F456B"/></g><g><path d="M467.13,471.827c-1.279,0-2.56-0.488-3.536-1.465l-8.017-8.018c-1.952-1.952-1.952-5.118,0.001-7.071    c1.953-1.951,5.118-1.952,7.071,0.001l8.017,8.018c1.952,1.952,1.952,5.118-0.001,7.071    C469.688,471.339,468.409,471.827,467.13,471.827z" fill="#3F456B"/></g><g><path d="M138.24,484.81c-0.25-2.75,1.77-5.18,4.52-5.439l0,0c2.75-0.25,5.19,1.77,5.44,4.52l0,0    c0.25,2.75-1.77,5.19-4.52,5.44l0,0c-0.16,0.01-0.31,0.02-0.47,0.02l0,0C140.66,489.35,138.48,487.399,138.24,484.81z     M135.77,465.31c-0.44-2.729,1.42-5.3,4.14-5.74l0,0c2.73-0.439,5.29,1.421,5.74,4.15l0,0c0.43,2.72-1.42,5.29-4.15,5.73l0,0    c-0.27,0.04-0.53,0.06-0.8,0.06l0,0C138.29,469.51,136.17,467.76,135.77,465.31z M132.01,445.99c-0.61-2.69,1.08-5.37,3.77-5.99    l0,0c2.69-0.61,5.37,1.069,5.98,3.77l0,0c0.62,2.69-1.07,5.37-3.76,5.98l0,0c-0.37,0.09-0.75,0.13-1.11,0.13l0,0    C134.6,449.88,132.54,448.31,132.01,445.99z M127.05,426.93c-0.78-2.649,0.74-5.43,3.39-6.21l0,0c2.65-0.77,5.42,0.74,6.2,3.39    l0,0c0.78,2.65-0.74,5.431-3.39,6.21l0,0c-0.47,0.141-0.94,0.2-1.41,0.2l0,0C129.68,430.52,127.69,429.109,127.05,426.93z     M120.94,408.189c-0.93-2.6,0.42-5.46,3.02-6.399l0,0c2.6-0.931,5.46,0.42,6.39,3.02l0,0c0.93,2.601-0.42,5.46-3.02,6.4l0,0    c-0.56,0.2-1.12,0.29-1.68,0.29l0,0C123.59,411.5,121.67,410.229,120.94,408.189z M113.75,389.819    c-1.08-2.539,0.11-5.479,2.65-6.55l0,0c2.54-1.08,5.48,0.101,6.56,2.641l0,0c1.07,2.54-0.11,5.479-2.65,6.56l0,0    c-0.64,0.271-1.3,0.4-1.96,0.4l0,0C116.41,392.87,114.56,391.72,113.75,389.819z M105.53,371.89c-1.22-2.479-0.21-5.479,2.27-6.7    l0,0c2.47-1.22,5.47-0.199,6.69,2.271l0,0c1.23,2.479,0.21,5.479-2.27,6.7l0,0c-0.71,0.35-1.46,0.52-2.21,0.52l0,0    C108.17,374.68,106.4,373.649,105.53,371.89z M96.28,354.479c-1.37-2.399-0.54-5.449,1.86-6.819l0,0    c2.4-1.37,5.45-0.54,6.82,1.859l0,0c1.37,2.391,0.54,5.45-1.86,6.82l0,0c-0.78,0.45-1.63,0.66-2.48,0.66l0,0    C98.89,357,97.2,356.1,96.28,354.479z M85.94,337.92c-1.61-2.24-1.1-5.36,1.14-6.98l0,0c2.23-1.609,5.36-1.1,6.98,1.141l0,0    c1.61,2.239,1.1,5.359-1.14,6.979l0,0c-0.88,0.63-1.9,0.94-2.92,0.94l0,0C88.45,340,86.92,339.28,85.94,337.92z" fill="#384169"/></g></g><g id="Lines"><g><g><path d="M217.895,326.94c-1.86-3.221-0.757-7.338,2.465-9.198c3.22-1.859,7.338-0.756,9.198,2.465     c1.859,3.22,0.756,7.339-2.464,9.198C223.872,331.264,219.754,330.16,217.895,326.94z" fill="#3F456B"/></g></g><g><g><path d="M282.476,326.94c-1.86-3.221-0.757-7.338,2.465-9.198c3.22-1.859,7.338-0.756,9.198,2.465     c1.859,3.22,0.756,7.339-2.464,9.198C288.453,331.264,284.335,330.16,282.476,326.94z" fill="#3F456B"/></g></g><g><path d="M256.506,403.61c-41.876,0-75.945-34.109-75.945-76.036V305.51l-0.064-1.843    c-0.002-0.058-0.003-0.115-0.003-0.173c0-41.927,34.088-76.036,75.99-76.036c41.876,0,75.944,34.109,75.944,76.036l0.021,2.116    l0.046,21.953C332.495,369.501,298.406,403.61,256.506,403.61z M190.494,303.409l0.064,1.841c0.002,0.058,0.003,0.115,0.003,0.173    v22.151c0,36.412,29.583,66.036,65.945,66.036c36.387,0,65.989-29.624,65.989-66.036l-0.067-24.03    c0-36.462-29.582-66.086-65.944-66.086C220.125,237.458,190.541,267.036,190.494,303.409z" fill="#3F456B"/></g><g><path d="M418.858,75.943c-0.426,0-0.858-0.055-1.289-0.169c-2.668-0.711-4.256-3.449-3.546-6.118    c3.895-14.632,14.784-31.371,20.564-39.582l-13.367-6.111c-12.398,15.721-16.201,42.428-16.24,42.712    c-0.377,2.733-2.898,4.648-5.633,4.272c-2.735-0.375-4.648-2.894-4.275-5.629c0.186-1.355,4.725-33.413,21.171-50.891    c1.47-1.559,3.77-2.012,5.721-1.121l22.354,10.219c1.386,0.634,2.407,1.866,2.773,3.346c0.367,1.479,0.038,3.045-0.892,4.253    c-0.177,0.229-17.742,23.185-22.512,41.104C423.092,74.466,421.069,75.943,418.858,75.943z" fill="#3F456B"/></g><g><path d="M450.542,113.849c-1.701,0-3.36-0.869-4.297-2.436c-1.417-2.37-0.644-5.44,1.727-6.857    c12.995-7.769,32.474-12.17,42.344-14.022l-5.318-13.703c-19.895,2.616-41.199,19.104-41.425,19.28    c-2.178,1.701-5.318,1.314-7.019-0.862c-1.7-2.176-1.313-5.318,0.862-7.019c1.078-0.842,26.689-20.649,50.665-21.703    c2.164-0.089,4.105,1.188,4.881,3.187l8.893,22.913c0.552,1.421,0.424,3.016-0.345,4.331c-0.769,1.316-2.097,2.21-3.605,2.427    c-0.287,0.041-28.886,4.24-44.802,13.756C452.299,113.62,451.415,113.849,450.542,113.849z" fill="#3F456B"/></g><g><path d="M345.347,88.153c-1.784,0-3.511-0.958-4.412-2.641c-8.768-16.378-31.116-34.66-31.341-34.843    c-1.184-0.962-1.862-2.411-1.846-3.936c0.018-1.524,0.729-2.957,1.934-3.893l19.414-15.075c1.694-1.314,4.038-1.402,5.825-0.221    c20.016,13.238,31.789,43.399,32.281,44.677c0.991,2.577-0.295,5.47-2.872,6.462c-2.575,0.988-5.468-0.294-6.461-2.869l0,0    c-0.103-0.268-9.932-25.39-25.606-37.848l-11.609,9.016c7.511,6.666,21.951,20.461,29.098,33.809    c1.303,2.435,0.387,5.465-2.048,6.769C346.952,87.963,346.144,88.153,345.347,88.153z" fill="#3F456B"/></g><g><path d="M333.608,129.586c-0.4,0-0.807-0.048-1.212-0.149c-18.026-4.486-46.578-0.186-46.864-0.142    c-1.509,0.225-3.037-0.237-4.155-1.273c-1.119-1.035-1.704-2.525-1.589-4.045l1.85-24.51c0.161-2.138,1.667-3.936,3.744-4.468    c23.25-5.956,53.51,5.552,54.786,6.044c2.576,0.995,3.858,3.89,2.864,6.466c-0.995,2.574-3.888,3.857-6.463,2.865l0,0    c-0.268-0.103-25.49-9.671-45.243-6.411l-1.105,14.657c9.981-1.095,29.9-2.545,44.592,1.113c2.68,0.667,4.312,3.38,3.644,6.06    C337.891,128.066,335.851,129.586,333.608,129.586z" fill="#3F456B"/></g><g><path d="M309.272,199.455c-0.034,0-0.069,0-0.104-0.001c-1.487-0.031-2.884-0.723-3.81-1.888l-16.098-20.254    c-1.564-1.968-1.424-4.791,0.327-6.595c21.788-22.439,52.545-25.995,53.844-26.135c2.76-0.31,5.212,1.688,5.508,4.434    c0.297,2.743-1.685,5.207-4.427,5.508l0,0c-0.268,0.029-25.593,3.021-44.596,20.124l9.721,12.23    c6.688-6.474,20.942-18.472,39.281-23.72c2.654-0.761,5.423,0.775,6.183,3.431s-0.776,5.423-3.431,6.183    c-22.375,6.403-38.457,24.769-38.617,24.954C312.104,198.825,310.723,199.455,309.272,199.455z" fill="#3F456B"/></g><g><path d="M491.136,178.99c-0.824,0-1.646-0.204-2.389-0.607c-0.255-0.139-25.689-13.87-44.137-15.758    c-2.747-0.28-4.746-2.735-4.465-5.482c0.28-2.747,2.73-4.765,5.482-4.465c15.062,1.54,33.308,9.657,42.327,14.073l3.93-14.164    c-17.479-9.768-44.455-9.322-44.737-9.31c-2.729,0.089-5.046-2.13-5.106-4.89s2.125-5.046,4.885-5.108    c1.376-0.03,33.74-0.596,53.59,12.891c1.773,1.205,2.582,3.406,2.009,5.473l-6.57,23.685c-0.408,1.469-1.463,2.671-2.866,3.266    C492.462,178.858,491.798,178.99,491.136,178.99z" fill="#3F456B"/></g><g><path d="M437.936,228.881c-0.489,0-0.979-0.072-1.456-0.217c-1.304-0.396-2.39-1.309-3.006-2.524    c-0.131-0.259-13.271-26.006-27.383-38.033c-2.102-1.791-2.354-4.947-0.562-7.049c1.793-2.103,4.948-2.352,7.049-0.562    c11.937,10.174,22.679,28.097,27.358,36.531l13.326-7.474c-9.438-18.217-33.983-35.848-34.248-36.036    c-2.249-1.603-2.773-4.725-1.171-6.974s4.726-2.772,6.974-1.171c1.258,0.896,30.909,22.21,39.553,44.489    c0.901,2.321-0.044,4.952-2.216,6.17l-21.773,12.211C439.626,228.665,438.783,228.881,437.936,228.881z" fill="#3F456B"/></g><g><path d="M449.112,69.055c-1.104,0-2.214-0.363-3.139-1.11c-2.148-1.734-2.483-4.883-0.748-7.031    c11.73-14.525,27.296-18.903,27.953-19.082c2.666-0.727,5.413,0.843,6.14,3.507c0.726,2.659-0.838,5.403-3.493,6.136    c-0.202,0.058-13.218,3.832-22.82,15.723C452.018,68.419,450.571,69.055,449.112,69.055z" fill="#3F456B"/></g><g><path d="M462.14,126.94c-2.139,0.001-4.118-1.383-4.778-3.534c-0.81-2.641,0.674-5.438,3.313-6.247    c17.854-5.477,33.203-0.395,33.848-0.176c2.614,0.888,4.014,3.728,3.126,6.343c-0.887,2.608-3.718,4.008-6.328,3.131    c-0.198-0.064-13.099-4.223-27.712,0.263C463.12,126.869,462.625,126.94,462.14,126.94z" fill="#3F456B"/></g><g><path d="M381.819,72.958c-0.114,0-0.229-0.004-0.346-0.012c-2.755-0.188-4.836-2.574-4.647-5.329    c1.26-18.435-11.584-42.562-11.714-42.804c-1.308-2.432-0.397-5.463,2.033-6.771c2.43-1.31,5.461-0.402,6.771,2.029    c0.586,1.088,14.346,26.89,12.887,48.228C386.622,70.938,384.426,72.958,381.819,72.958z" fill="#3F456B"/></g><g><path d="M480.094,200.251c-1.685,0-3.329-0.852-4.271-2.394c-5.189-8.493-17.92-15.969-22.387-18.133    c-2.485-1.204-3.524-4.194-2.32-6.68c1.205-2.485,4.196-3.522,6.68-2.32c0.764,0.37,18.792,9.206,26.561,21.918    c1.439,2.356,0.697,5.434-1.659,6.874C481.882,200.014,480.982,200.251,480.094,200.251z" fill="#3F456B"/></g><g><path d="M291.517,149.975c-1.841,0-3.611-1.02-4.483-2.78c-1.227-2.475-0.215-5.475,2.259-6.7    c11.224-5.563,25.858-6.523,26.476-6.562c2.783-0.177,5.129,1.926,5.299,4.682c0.171,2.755-1.924,5.127-4.678,5.299l0,0    c-0.132,0.009-13.268,0.887-22.655,5.54C293.02,149.808,292.263,149.975,291.517,149.975z" fill="#3F456B"/></g><g><path d="M329.216,92.812c-1.316,0-2.63-0.517-3.611-1.541c-7.266-7.585-20.672-11.501-20.807-11.54    c-2.651-0.762-4.188-3.528-3.429-6.182c0.76-2.652,3.52-4.191,6.175-3.434c0.654,0.187,16.12,4.674,25.281,14.237    c1.91,1.994,1.843,5.159-0.151,7.069C331.704,92.351,330.459,92.812,329.216,92.812z" fill="#3F456B"/></g><g><path d="M330.557,213.309c-0.881,0-1.773-0.233-2.582-0.723c-2.363-1.429-3.12-4.503-1.691-6.865    c12.432-20.559,27.172-25.102,27.793-25.285c2.65-0.78,5.43,0.732,6.211,3.381c0.777,2.636-0.718,5.401-3.342,6.199    c-0.278,0.091-11.903,4.009-22.105,20.879C333.9,212.449,332.249,213.309,330.557,213.309z" fill="#3F456B"/></g><g><path d="M382.521,116.16c-1.629,0-3.225-0.795-4.185-2.258c-5.673-8.643-17.232-17.174-17.349-17.259    c-2.227-1.633-2.709-4.761-1.077-6.987c1.631-2.227,4.76-2.713,6.985-1.08c0.533,0.39,13.125,9.668,19.8,19.84    c1.516,2.309,0.872,5.408-1.437,6.923C384.413,115.895,383.461,116.16,382.521,116.16z" fill="#3F456B"/></g><g><path d="M351.764,136.762c-2.134,0-4.11-1.377-4.774-3.522c-0.816-2.638,0.659-5.438,3.298-6.255    c0.678-0.21,16.729-5.118,27.693-3.123c2.717,0.493,4.519,3.097,4.024,5.813c-0.493,2.717-3.095,4.524-5.813,4.024    c-7.125-1.292-18.979,1.609-22.947,2.838C352.752,136.689,352.254,136.762,351.764,136.762z" fill="#3F456B"/></g><g><path d="M369.296,168.269c-0.564,0-1.137-0.096-1.698-0.298c-2.597-0.938-3.942-3.804-3.005-6.401    c4.365-12.089,16.885-20.859,17.416-21.228c2.271-1.571,5.386-1.005,6.957,1.266c1.57,2.269,1.006,5.381-1.262,6.954    c-0.208,0.146-10.455,7.402-13.705,16.404C373.264,167.002,371.343,168.269,369.296,168.269z" fill="#3F456B"/></g><g><path d="M400.944,111.621c-0.135,0-0.271-0.005-0.406-0.016c-2.753-0.222-4.805-2.633-4.584-5.385    c0.908-11.285,3.787-22.195,3.909-22.654c0.711-2.668,3.451-4.258,6.116-3.545c2.668,0.709,4.257,3.447,3.548,6.115    c-0.027,0.104-2.771,10.524-3.604,20.885C405.712,109.638,403.523,111.621,400.944,111.621z" fill="#3F456B"/></g><g><path d="M414.531,129.769c-1.505,0-2.992-0.676-3.977-1.964c-1.677-2.194-1.258-5.332,0.937-7.009    c11.891-9.088,25.193-9.229,25.753-9.231c0.005,0,0.01,0,0.015,0c2.755,0,4.992,2.229,5,4.985s-2.214,4.996-4.967,5.015    c-0.162,0.002-10.623,0.218-19.729,7.177C416.657,129.434,415.59,129.769,414.531,129.769z" fill="#3F456B"/></g><g><path d="M427.916,162.949c-1.757,0-3.46-0.927-4.374-2.57c-3.722-6.688-13.313-12.779-16.695-14.562    c-2.443-1.287-3.38-4.312-2.092-6.754c1.287-2.443,4.313-3.38,6.754-2.092c0.604,0.318,14.858,7.918,20.771,18.547    c1.343,2.413,0.475,5.457-1.938,6.8C429.572,162.746,428.738,162.949,427.916,162.949z" fill="#3F456B"/></g><g><path d="M96.621,75.943c-2.211,0-4.233-1.478-4.829-3.715c-4.769-17.92-22.335-40.875-22.512-41.104    c-0.93-1.208-1.258-2.773-0.891-4.253c0.366-1.479,1.388-2.712,2.774-3.346l22.354-10.219c1.95-0.891,4.25-0.44,5.72,1.121    c16.446,17.478,20.986,49.535,21.171,50.891c0.374,2.736-1.542,5.257-4.277,5.631c-2.735,0.366-5.255-1.54-5.63-4.274l0,0    c-0.039-0.284-3.842-26.991-16.241-42.712l-13.368,6.111c5.781,8.211,16.671,24.95,20.565,39.582    c0.71,2.669-0.878,5.408-3.546,6.118C97.479,75.889,97.046,75.943,96.621,75.943z" fill="#3F456B"/></g><g><path d="M64.938,113.849c-0.873,0-1.757-0.229-2.561-0.709c-15.916-9.516-44.514-13.715-44.801-13.756    c-1.509-0.217-2.836-1.11-3.605-2.427c-0.769-1.315-0.896-2.91-0.345-4.331l8.892-22.913c0.775-1.999,2.736-3.272,4.881-3.187    c23.976,1.054,49.587,20.861,50.666,21.703c2.176,1.7,2.562,4.843,0.862,7.019c-1.699,2.176-4.839,2.562-7.016,0.863l0,0    c-0.226-0.176-21.578-16.662-41.428-19.281l-5.318,13.703c9.87,1.853,29.349,6.254,42.345,14.022    c2.37,1.417,3.143,4.487,1.726,6.857C68.298,112.979,66.639,113.849,64.938,113.849z" fill="#3F456B"/></g><g><path d="M170.133,88.153c-0.796,0-1.604-0.19-2.356-0.593c-2.434-1.304-3.351-4.334-2.047-6.769    c7.146-13.348,21.586-27.143,29.097-33.809l-11.61-9.017c-15.714,12.479-25.501,37.579-25.604,37.846    c-0.991,2.578-3.885,3.859-6.461,2.872c-2.578-0.991-3.863-3.885-2.872-6.462c0.491-1.277,12.264-31.438,32.281-44.677    c1.788-1.183,4.131-1.095,5.825,0.221l19.413,15.075c1.204,0.935,1.915,2.368,1.932,3.893c0.018,1.523-0.661,2.973-1.843,3.935    c-0.225,0.184-22.589,18.496-31.342,34.844C173.644,87.195,171.917,88.153,170.133,88.153z" fill="#3F456B"/></g><g><path d="M181.872,129.586c-2.242,0-4.282-1.519-4.848-3.793c-0.667-2.68,0.964-5.393,3.644-6.06    c14.693-3.658,34.61-2.207,44.592-1.113l-1.105-14.657c-19.762-3.262-44.977,6.309-45.244,6.411    c-2.576,0.99-5.47-0.293-6.462-2.869c-0.993-2.575,0.289-5.468,2.864-6.462c1.277-0.492,31.542-12.002,54.787-6.044    c2.077,0.532,3.583,2.33,3.744,4.468l1.85,24.51c0.114,1.52-0.472,3.009-1.59,4.044c-1.118,1.036-2.651,1.502-4.154,1.274    c-0.286-0.045-28.87-4.339-46.865,0.142C182.678,129.538,182.271,129.586,181.872,129.586z" fill="#3F456B"/></g><g><path d="M206.208,199.455c-1.45,0-2.831-0.63-3.781-1.729c-0.157-0.181-16.339-18.579-38.617-24.954    c-2.655-0.76-4.191-3.527-3.432-6.183c0.76-2.654,3.531-4.192,6.183-3.431c18.339,5.248,32.594,17.246,39.281,23.72l9.722-12.231    c-19.069-17.179-44.323-20.094-44.59-20.123c-2.746-0.297-4.73-2.763-4.434-5.508c0.297-2.747,2.754-4.751,5.509-4.434    c1.298,0.14,32.055,3.695,53.843,26.135c1.751,1.804,1.892,4.627,0.327,6.595l-16.097,20.254    c-0.926,1.165-2.323,1.856-3.811,1.888C206.277,199.455,206.242,199.455,206.208,199.455z" fill="#3F456B"/></g><g><path d="M24.344,178.99c-0.663,0-1.326-0.132-1.951-0.396c-1.404-0.595-2.459-1.798-2.867-3.267l-6.571-23.685    c-0.573-2.066,0.234-4.268,2.008-5.473c19.851-13.486,52.218-12.926,53.59-12.891c2.761,0.062,4.948,2.351,4.886,5.111    c-0.061,2.723-2.287,4.888-4.997,4.888c-0.037,0-0.075,0-0.112-0.001c-0.334-0.01-27.275-0.447-44.736,9.31l3.93,14.164    c9.02-4.416,27.265-12.533,42.328-14.073c2.752-0.286,5.202,1.718,5.483,4.465s-1.718,5.202-4.465,5.482    c-18.481,1.891-43.881,15.618-44.136,15.757C25.991,178.786,25.169,178.99,24.344,178.99z" fill="#3F456B"/></g><g><path d="M77.545,228.881c-0.849,0-1.691-0.216-2.445-0.639l-21.773-12.211c-2.172-1.218-3.116-3.849-2.216-6.17    c8.644-22.279,38.294-43.593,39.553-44.489c2.247-1.604,5.369-1.078,6.972,1.17c1.603,2.248,1.08,5.37-1.167,6.974    c-0.265,0.188-24.819,17.852-34.249,36.037l13.326,7.474c4.679-8.435,15.421-26.357,27.358-36.531    c2.101-1.792,5.257-1.539,7.048,0.562s1.54,5.258-0.562,7.049c-14.113,12.027-27.251,37.774-27.383,38.033    c-0.616,1.216-1.701,2.128-3.005,2.524C78.525,228.809,78.034,228.881,77.545,228.881z" fill="#3F456B"/></g><g><path d="M66.368,69.055c-1.459,0-2.905-0.635-3.893-1.858c-9.723-12.039-22.677-15.683-22.807-15.719    c-2.664-0.727-4.234-3.476-3.507-6.14c0.727-2.665,3.474-4.239,6.14-3.507c0.657,0.179,16.223,4.557,27.954,19.082    c1.735,2.148,1.4,5.297-0.748,7.031C68.581,68.691,67.471,69.055,66.368,69.055z" fill="#3F456B"/></g><g><path d="M53.339,126.94c-0.486,0-0.979-0.071-1.468-0.221c-14.796-4.541-27.57-0.311-27.697-0.268    c-2.613,0.889-5.454-0.512-6.342-3.126c-0.888-2.615,0.512-5.455,3.126-6.343c0.644-0.219,15.995-5.3,33.846,0.176    c2.64,0.811,4.124,3.606,3.314,6.247C57.458,125.558,55.478,126.94,53.339,126.94z" fill="#3F456B"/></g><g><path d="M133.66,72.958c-2.606,0-4.803-2.021-4.983-4.659c-1.458-21.338,12.301-47.14,12.888-48.228    c1.311-2.432,4.343-3.338,6.774-2.029c2.43,1.31,3.338,4.341,2.03,6.771l0,0c-0.13,0.241-12.974,24.369-11.715,42.804    c0.188,2.755-1.893,5.141-4.647,5.329C133.89,72.954,133.774,72.958,133.66,72.958z" fill="#3F456B"/></g><g><path d="M35.386,200.251c-0.889,0-1.789-0.237-2.603-0.734c-2.356-1.44-3.099-4.518-1.659-6.874    c7.769-12.712,25.796-21.548,26.56-21.918c2.485-1.202,5.476-0.165,6.68,2.32c1.203,2.483,0.166,5.473-2.316,6.678l0,0    c-0.161,0.078-16.163,7.944-22.391,18.135C38.714,199.399,37.07,200.251,35.386,200.251z" fill="#3F456B"/></g><g><path d="M223.964,149.975c-0.746,0-1.503-0.167-2.217-0.521c-9.389-4.653-22.524-5.531-22.656-5.54    c-2.754-0.175-4.849-2.548-4.676-5.303c0.172-2.755,2.542-4.847,5.296-4.678c0.618,0.038,15.252,0.998,26.477,6.562    c2.474,1.226,3.485,4.226,2.259,6.7C227.575,148.955,225.805,149.975,223.964,149.975z" fill="#3F456B"/></g><g><path d="M186.264,92.812c-1.244,0-2.489-0.461-3.458-1.39c-1.994-1.91-2.062-5.075-0.152-7.069    c9.162-9.563,24.627-14.051,25.282-14.237c2.652-0.758,5.423,0.782,6.179,3.438c0.757,2.654-0.781,5.419-3.435,6.178    c-0.208,0.061-13.559,3.976-20.804,11.539C188.894,92.295,187.58,92.812,186.264,92.812z" fill="#3F456B"/></g><g><path d="M184.923,213.309c-1.693,0-3.344-0.859-4.283-2.414c-10.275-16.99-21.993-20.844-22.11-20.881    c-2.616-0.824-4.102-3.61-3.301-6.234c0.8-2.625,3.541-4.121,6.175-3.344c0.621,0.184,15.362,4.727,27.793,25.285    c1.429,2.362,0.672,5.437-1.691,6.865C186.697,213.075,185.804,213.309,184.923,213.309z" fill="#3F456B"/></g><g><path d="M132.959,116.16c-0.941,0-1.893-0.266-2.739-0.821c-2.309-1.515-2.952-4.614-1.437-6.923    c6.676-10.172,19.267-19.45,19.8-19.84c2.229-1.633,5.357-1.147,6.988,1.081c1.631,2.228,1.147,5.355-1.08,6.987    c-0.167,0.123-11.688,8.635-17.348,17.258C136.184,115.365,134.588,116.16,132.959,116.16z" fill="#3F456B"/></g><g><path d="M163.716,136.762c-0.489,0-0.986-0.072-1.478-0.224l0,0c-3.978-1.227-15.855-4.124-22.95-2.839    c-2.714,0.501-5.32-1.308-5.814-4.024s1.308-5.32,4.025-5.813c10.965-1.996,27.016,2.913,27.694,3.123    c2.638,0.816,4.114,3.617,3.297,6.255C167.827,135.385,165.85,136.762,163.716,136.762z" fill="#3F456B"/></g><g><path d="M146.184,168.269c-2.047,0-3.968-1.267-4.703-3.303c-3.267-9.049-13.604-16.334-13.708-16.406    c-2.263-1.577-2.824-4.691-1.25-6.957s4.682-2.83,6.949-1.261c0.531,0.368,13.051,9.139,17.415,21.228    c0.938,2.598-0.407,5.463-3.005,6.401C147.321,168.173,146.748,168.269,146.184,168.269z" fill="#3F456B"/></g><g><path d="M114.536,111.621c-2.58,0-4.768-1.982-4.979-4.6c-0.833-10.36-3.578-20.78-3.605-20.885    c-0.708-2.668,0.879-5.406,3.548-6.115c2.667-0.715,5.406,0.878,6.116,3.545c0.122,0.459,3.001,11.369,3.909,22.654    c0.221,2.752-1.831,5.163-4.583,5.385C114.806,111.616,114.67,111.621,114.536,111.621z" fill="#3F456B"/></g><g><path d="M100.948,129.769c-1.059,0-2.126-0.335-3.032-1.027c-9.244-7.065-19.605-7.177-19.708-7.177    c-2.761-0.008-4.994-2.253-4.986-5.015c0.008-2.756,2.245-4.985,5-4.985c0.005,0,0.01,0,0.015,0    c0.561,0.002,13.862,0.144,25.752,9.231c2.194,1.677,2.613,4.815,0.937,7.009C103.94,129.093,102.453,129.769,100.948,129.769z" fill="#3F456B"/></g><g><path d="M87.564,162.949c-0.823,0-1.657-0.203-2.427-0.632c-2.413-1.343-3.281-4.387-1.938-6.8    c5.914-10.629,20.167-18.229,20.771-18.547c2.445-1.289,5.468-0.352,6.755,2.092c1.287,2.44,0.353,5.463-2.087,6.752l0,0    c-3.39,1.796-13,7.915-16.7,14.564C91.024,162.022,89.32,162.949,87.564,162.949z" fill="#3F456B"/></g><g><path d="M327.506,310.501c-0.225,0-0.452-0.016-0.682-0.047c-24.411-3.329-38.373-15.517-45.787-25.155    c-3.271-4.253-5.586-8.388-7.188-11.832c-10.987,11.859-38.15,34.092-88.16,35.369c-2.796,0.051-5.056-2.109-5.126-4.87    c-0.07-2.761,2.11-5.056,4.871-5.126c32.102-0.82,53.727-11.116,66.214-19.608c13.54-9.208,19.597-18.358,19.656-18.45    c1.099-1.685,3.104-2.553,5.085-2.194c1.98,0.359,3.556,1.864,3.992,3.828c0.303,1.315,7.969,32.7,47.795,38.131    c2.736,0.373,4.651,2.894,4.278,5.63C332.112,308.683,329.968,310.5,327.506,310.501z" fill="#3F456B"/></g><g><path d="M337.546,501H177c-2.336,0-4.36-1.617-4.876-3.896c-2.39-10.549-58.568-258.614-62.065-281.344    c-0.852-5.54-2.298-23.903,14.877-27.646c6.607-1.437,18.734-0.992,25.759,18.164c10.936,29.826,40.844,133.926,42.112,138.342    c0.762,2.654-0.772,5.424-3.427,6.186c-2.652,0.764-5.423-0.772-6.186-3.426c-0.309-1.079-31.076-108.17-41.888-137.658    c-5.073-13.835-11.973-12.331-14.241-11.836c-7.708,1.68-8.128,9.82-7.123,16.354c3.209,20.861,53.714,244.327,61.053,276.761    h152.556c7.339-32.434,57.844-255.899,61.054-276.761c1.005-6.533,0.585-14.675-7.123-16.354    c-2.269-0.497-9.169-2.001-14.241,11.836c-10.82,29.51-42.581,136.62-42.9,137.699c-0.784,2.647-3.564,4.161-6.215,3.373    c-2.647-0.784-4.157-3.566-3.373-6.215c1.309-4.416,32.171-108.494,43.1-138.301c3.016-8.224,10.377-21.511,25.759-18.164    c17.175,3.742,15.729,22.106,14.877,27.646c-3.497,22.729-59.675,270.795-62.065,281.344C341.906,499.383,339.882,501,337.546,501    z" fill="#3F456B"/></g><g><path d="M256,468c-19.094,0-33.594-6.147-43.098-18.272c-8.56-10.92-12.731-26.182-12.399-45.362    c0.242-13.967,2.863-24.773,2.975-25.227c0.66-2.681,3.375-4.319,6.049-3.661c2.681,0.659,4.319,3.365,3.662,6.046l0,0    c-0.098,0.399-9.562,40.195,7.6,62.057C228.301,453.148,240.147,458,256,458c15.88,0,27.766-4.869,35.327-14.472    c17.273-21.939,7.956-61.624,7.86-62.022c-0.648-2.685,1.003-5.386,3.688-6.033c2.681-0.649,5.386,1.003,6.033,3.688    c0.439,1.818,10.52,44.843-9.725,70.554C289.63,461.848,275.102,468,256,468z" fill="#3F456B"/></g><g><path d="M256,468c-2.762,0-5-2.238-5-5v-24c0-2.762,2.238-5,5-5s5,2.238,5,5v24C261,465.762,258.762,468,256,468z" fill="#3F456B"/></g><g><path d="M169.542,468c-2.761,0-5-2.238-5-5s2.239-5,5-5c12.224,0,21.143-9.086,26.509-27.005    c4.351-14.528,4.54-29.396,4.541-29.545c0.026-2.761,2.247-4.957,5.044-4.954c2.76,0.024,4.979,2.279,4.956,5.039    c-0.006,0.657-0.188,16.266-4.904,32.137C197.257,462.044,181.378,468,169.542,468z" fill="#3F456B"/></g><g><path d="M344.891,468.5c-11.565,0-21.162-3.775-28.523-11.222c-15.162-15.337-15.047-40.761-15.035-41.836    c0.032-2.741,2.265-4.942,4.999-4.942c0.02,0,0.039,0,0.059,0c2.759,0.032,4.971,2.293,4.942,5.052    c-0.002,0.312-0.022,22.423,12.177,34.727c5.485,5.532,12.479,8.222,21.382,8.222c2.762,0,5,2.238,5,5    S347.652,468.5,344.891,468.5z" fill="#3F456B"/></g><g><path d="M338,501c-2.762,0-5-2.238-5-5s2.238-5,5-5c32.773,0,57.045-10.101,72.14-30.02    c7.288-9.617,10.547-19.2,11.937-24.734c-17.62-2.731-39.53-9.755-53.579-27.218c-9.544-11.861-10.879-22.967-10.931-23.434    c-0.307-2.745,1.669-5.218,4.413-5.524c2.744-0.317,5.202,1.657,5.521,4.389c0.192,1.541,5.176,36.159,61.069,42.573    c2.732,0.314,4.699,2.776,4.4,5.512c-0.078,0.709-2.048,17.568-14.86,34.476C406.362,482.521,382.929,501,338,501z" fill="#3F456B"/></g></g></svg>