<?xml version="1.0" ?><svg viewBox="0 0 512 512" xmlns="http://www.w3.org/2000/svg"><defs><style>.cls-1{fill:#3f456b;}</style></defs><title/><g id="Lines"><path class="cls-1" d="M499,501.77H17a5,5,0,0,1-5-5V16.87a5,5,0,1,1,10,0v474.9H499a5,5,0,0,1,0,10Z"/><path class="cls-1" d="M346.45,207.38a5,5,0,0,1-2.61-.73l-34.16-20.92a5,5,0,1,1,5.22-8.52l29.19,17.87L389.25,87.53a5,5,0,0,1,7.51-2.14l52.75,37.52L492.35,15.15a5,5,0,0,1,9.3,3.7l-45.2,113.68a5,5,0,0,1-7.55,2.22L396.05,97.16l-45,107.16a5,5,0,0,1-4.61,3.06Z"/><path class="cls-1" d="M17,401.35a5,5,0,0,1-4.16-7.78L81,291.57a5,5,0,0,1,7.94-.49l38.08,44,24.74-75.62a5,5,0,0,1,4.75-3.45h37.91l62.44-70.74a5,5,0,1,1,7.5,6.62l-63.93,72.43a5,5,0,0,1-3.75,1.69H160.16L133.8,346.64a5,5,0,0,1-8.53,1.71L85.69,302.58,21.16,399.13A5,5,0,0,1,17,401.35Z"/><path class="cls-1" d="M283,169a5,5,0,0,1-5-5v-1a5,5,0,0,1,10,0v1A5,5,0,0,1,283,169Z"/><path class="cls-1" d="M283.8,201.91a37.2,37.2,0,1,1,2.11-.06C285.21,201.89,284.5,201.91,283.8,201.91Zm.08-64.13c-.51,0-1,0-1.53.05a26.68,26.68,0,1,0,1.53-.05Z"/></g><g id="Outline"><path class="cls-1" d="M283,126a5,5,0,0,1-5-5v-1a5,5,0,0,1,10,0v1A5,5,0,0,1,283,126Zm0-21a5,5,0,0,1-5-5V99a5,5,0,0,1,10,0v1A5,5,0,0,1,283,105Zm0-21a5,5,0,0,1-5-5V78a5,5,0,0,1,10,0v1A5,5,0,0,1,283,84Zm0-21a5,5,0,0,1-5-5V57a5,5,0,0,1,10,0v1A5,5,0,0,1,283,63Zm0-21a5,5,0,0,1-5-5V36a5,5,0,0,1,10,0v1A5,5,0,0,1,283,42Zm0-21a5,5,0,0,1-5-5V15a5,5,0,0,1,10,0v1A5,5,0,0,1,283,21Z"/><path class="cls-1" d="M283,498a5,5,0,0,1-5-5v-1a5,5,0,0,1,10,0v1A5,5,0,0,1,283,498Zm0-21a5,5,0,0,1-5-5v-1a5,5,0,0,1,10,0v1A5,5,0,0,1,283,477Zm0-21a5,5,0,0,1-5-5v-1a5,5,0,0,1,10,0v1A5,5,0,0,1,283,456Zm0-21a5,5,0,0,1-5-5v-1a5,5,0,0,1,10,0v1A5,5,0,0,1,283,435Zm0-21a5,5,0,0,1-5-5v-1a5,5,0,0,1,10,0v1A5,5,0,0,1,283,414Zm0-21a5,5,0,0,1-5-5v-1a5,5,0,0,1,10,0v1A5,5,0,0,1,283,393Zm0-21a5,5,0,0,1-5-5v-1a5,5,0,0,1,10,0v1A5,5,0,0,1,283,372Zm0-21a5,5,0,0,1-5-5v-1a5,5,0,0,1,10,0v1A5,5,0,0,1,283,351Zm0-21a5,5,0,0,1-5-5v-1a5,5,0,0,1,10,0v1A5,5,0,0,1,283,330Zm0-21a5,5,0,0,1-5-5v-1a5,5,0,0,1,10,0v1A5,5,0,0,1,283,309Zm0-21a5,5,0,0,1-5-5v-1a5,5,0,0,1,10,0v1A5,5,0,0,1,283,288Zm0-21a5,5,0,0,1-5-5v-1a5,5,0,0,1,10,0v1A5,5,0,0,1,283,267Zm0-21a5,5,0,0,1-5-5v-1a5,5,0,0,1,10,0v1A5,5,0,0,1,283,246Zm0-21a5,5,0,0,1-5-5v-1a5,5,0,0,1,10,0v1A5,5,0,0,1,283,225Zm0-21a5,5,0,0,1-5-5v-1a5,5,0,0,1,10,0v1A5,5,0,0,1,283,204Z"/></g></svg>