<?xml version="1.0" ?><svg id="Lines" viewBox="0 0 512 512" xmlns="http://www.w3.org/2000/svg"><defs><style>.cls-1{fill:#3f456b;}</style></defs><title/><path class="cls-1" d="M211.55,157.18a5,5,0,0,1-5-5v-.79a5,5,0,0,1,10,0v.79A5,5,0,0,1,211.55,157.18Z"/><path class="cls-1" d="M211.55,103.79a5,5,0,0,1-5-5V98a5,5,0,0,1,10,0v.79A5,5,0,0,1,211.55,103.79Z"/><path class="cls-1" d="M211.55,210.57a5,5,0,0,1-5-5v-.78a5,5,0,0,1,10,0v.78A5,5,0,0,1,211.55,210.57Z"/><path class="cls-1" d="M235.55,290.2a5,5,0,0,1-5-5v-.91a5,5,0,0,1,10,0v.91A5,5,0,0,1,235.55,290.2Z"/><path class="cls-1" d="M235.55,348.8a5,5,0,0,1-5-5v-.91a5,5,0,0,1,10,0v.91A5,5,0,0,1,235.55,348.8Z"/><path class="cls-1" d="M180,410.12c-2.4,0-4-.12-4.21-.14h-.17L81.42,399A5,5,0,0,1,77,393.44c9.32-82.26,23.87-142.54,25-147.35,8.46-68.74-24.3-143.31-24.64-144.06A5,5,0,1,1,86.57,98c1.4,3.15,34.31,78.09,25.39,149.65a3.84,3.84,0,0,1-.11.59c-.15.6-14.7,59.34-24.31,141.4L176.67,400c5.31.4,20.36,0,27.4-6.48A12.29,12.29,0,0,0,208,384a5,5,0,0,1,10,0,22,22,0,0,1-7.17,16.9C202,409,187.22,410.12,180,410.12ZM107,247h0Z"/><path class="cls-1" d="M365.61,379a5,5,0,0,1-4.91-4.08l-39.62-212a5,5,0,1,1,9.84-1.84l38.72,207.27,39.73-5.83L373.16,101.19c0-.06,0-.11,0-.16-2.5-23.37-20.59-31-22.51-31.75L271.78,49.51a4.84,4.84,0,0,1-2-1l-22-18.66a4.58,4.58,0,0,1-.72-.74c0-.06-5.76-7.18-13.32-8.07H186c-5.18,0-10.36,5.69-11.91,7.88-.09.13-.2.26-.3.38l-16,18.66a5,5,0,0,1-2.57,1.59L78.48,68.78c-2.06.79-20,8.33-22.51,31.75,0,.07,0,.14,0,.2L17.29,362.53,57,368.36,96.09,161.07a5,5,0,1,1,9.82,1.86l-40,212a5,5,0,0,1-5.64,4L10.89,371.7A5,5,0,0,1,6.67,366L46,99.37C49.38,68.65,74.3,59.65,75.36,59.28l.42-.13L151.23,40.2l14.83-17.29C167.48,21,175.22,11,186,11h48l.5,0c10.71,1.08,18.33,9.39,20.08,11.46L275.35,40.1l78,19.55.42.13c1.06.37,26,9.38,29.32,40.11L420,366.06a5,5,0,0,1-4.22,5.64L366.34,379A6.11,6.11,0,0,1,365.61,379Z"/><path class="cls-1" d="M213,241a5,5,0,0,1-3.4-1.33C189.34,220.88,163,184.3,152.68,116.76c-6.14-40.11-3.77-71.82-3.66-73.15a5,5,0,0,1,10,.78,348.15,348.15,0,0,0,3.62,71.07c5.48,35.64,19.27,84.84,53.8,116.87A5,5,0,0,1,213,241Z"/><path class="cls-1" d="M213,241a5.15,5.15,0,0,1-2-.42c-44.6-19.65-69.63-50.22-82.78-72.41-14.29-24.11-18-43.45-18.12-44.26a5,5,0,0,1,.81-3.76L126.2,98,106.92,82.94a5,5,0,0,1-1.29-6.37l15-27a5,5,0,0,1,8.74,4.86L116.44,77.69l19.64,15.37a5,5,0,0,1,1,6.79l-16.76,24.2A148.49,148.49,0,0,0,137,163.44c12.4,20.81,36,49.48,78,68a5,5,0,0,1-2,9.58Z"/><path class="cls-1" d="M213,241a5,5,0,0,1-3.4-8.67C276.06,170.69,267.11,45.65,267,44.39a5,5,0,0,1,10-.78c.11,1.33,2.48,33-3.66,73.15C263,184.3,236.66,220.88,216.4,239.67A5,5,0,0,1,213,241Z"/><path class="cls-1" d="M246.62,410.12c-7.22,0-22-1.08-30.84-9.22a22,22,0,0,1-7.17-16.9L208,236a5,5,0,0,1,3-4.6c42-18.5,65.6-47.17,78-68a148.36,148.36,0,0,0,16.67-39.39l-16.76-24.2a5,5,0,0,1,1-6.79l19.64-15.37L296.63,54.43a5,5,0,1,1,8.74-4.86l15,27a5,5,0,0,1-1.29,6.37L299.8,98l15.31,22.12a5,5,0,0,1,.81,3.76c-.15.81-3.83,20.15-18.12,44.26C285,189.86,260.75,219.55,218,239.23l.6,144.75a12.31,12.31,0,0,0,3.93,9.56c7,6.5,22.08,6.88,27.4,6.48l89.13-10.41a1276.11,1276.11,0,0,0-27.45-151.36,5.44,5.44,0,0,1-.16-1.22C311,168.81,338.81,100.94,340,98.08a5,5,0,0,1,9.24,3.83c-.28.68-28.05,68.48-27.77,134.45a1293.08,1293.08,0,0,1,28.12,157.08,5,5,0,0,1-4.39,5.53L251,410h-.17C250.59,410,249,410.12,246.62,410.12Z"/><path class="cls-1" d="M213,65a4.74,4.74,0,0,1-1.24-.16c-22-5.63-31.87-17.42-36.3-26.31a39.58,39.58,0,0,1-4.32-18.79,5,5,0,0,1,10,.69c-.07,1.12-1,25.29,31.74,34.36C218,53,237.47,44.31,239,18.79a5,5,0,1,1,10,.62c-2.22,36-34.37,45.32-34.69,45.41A5,5,0,0,1,213,65Z"/><path class="cls-1" d="M180,105a5,5,0,0,1-1.57-.25c-1-.35-25.28-9-30.48-59.24a5,5,0,0,1,10-1c3.42,33.11,15.38,45.24,20.87,49.14l30.37-36.81a5,5,0,0,1,7.72,6.36l-33,40A5,5,0,0,1,180,105Z"/><path class="cls-1" d="M243,105a5,5,0,0,1-4-2L208.93,63a5,5,0,1,1,8-6l27.66,36.78c6.16-3.62,19.94-15.37,23.45-49.29a5,5,0,1,1,9.94,1c-5.21,50.42-32.41,59-33.56,59.29A5.28,5.28,0,0,1,243,105Z"/><path class="cls-1" d="M142,312l-.44,0-46-4a5,5,0,1,1,.86-10l46,4a5,5,0,0,1-.42,10Z"/><path class="cls-1" d="M284,312a5,5,0,0,1-.42-10l46-4a5,5,0,1,1,.86,10l-46,4Z"/><path class="cls-1" d="M30.45,351.54l-.53,0A5,5,0,0,1,25.47,346l.11-1a5,5,0,1,1,9.94,1.05l-.1,1A5,5,0,0,1,30.45,351.54Z"/><path class="cls-1" d="M393.54,351.54a5,5,0,0,1-5-4.48l-.11-1a5,5,0,1,1,9.95-1.05l.1,1a5,5,0,0,1-4.45,5.49A4.58,4.58,0,0,1,393.54,351.54Z"/><path class="cls-1" d="M198,228a5,5,0,0,1-5-5V79a5,5,0,0,1,10,0V223A5,5,0,0,1,198,228Z"/><path class="cls-1" d="M225,228a5,5,0,0,1-5-5V79a5,5,0,0,1,10,0V223A5,5,0,0,1,225,228Z"/><g data-name="&lt;编组&gt;" id="_编组_"><path class="cls-1" d="M466.78,240.84H396.86a5,5,0,0,1,0-10h64.92V212h-69a5,5,0,1,1,0-10h74a5,5,0,0,1,5,5v28.84A5,5,0,0,1,466.78,240.84Z"/><path class="cls-1" d="M339.63,240.84H316.46a5,5,0,0,1,0-10h23.17a5,5,0,0,1,0,10Z"/><path class="cls-1" d="M334.31,212h-15.9a5,5,0,0,1,0-10h15.9a5,5,0,0,1,0,10Z"/></g><path class="cls-1" d="M466.69,501H313a5,5,0,0,1-4.71-3.32,602.93,602.93,0,0,1-23.59-96.47,5,5,0,0,1,9.88-1.58,607.18,607.18,0,0,0,22,91.37H463.11c4.76-14.33,23.12-73.08,27.43-138.92,5.71-87.32-26.45-111.94-26.77-112.18a5,5,0,0,1,5.8-8.14c1.52,1.07,37.07,27.32,30.95,121-5,76.89-28.88,144.28-29.13,145A5,5,0,0,1,466.69,501Z"/><path class="cls-1" d="M330.5,501a5,5,0,0,1-4.86-3.83c-6.46-26.83-11.51-55-11.56-55.29a5,5,0,0,1,9.84-1.76c.05.28,5.05,28.17,11.44,54.71a5,5,0,0,1-3.69,6A4.74,4.74,0,0,1,330.5,501Z"/></svg>