<?xml version="1.0" ?><svg viewBox="0 0 512 512" xmlns="http://www.w3.org/2000/svg"><defs><style>.cls-1{fill:#3f456b;}</style></defs><title/><g id="Lines"><path class="cls-1" d="M37.91,468a21.24,21.24,0,0,1-14-4.95c-4.49-4-6.76-9.83-6.76-17.44V412.08a5,5,0,0,1,10,0v33.54c0,4.62,1.13,8,3.38,9.94,3.27,2.89,8.26,2.42,8.31,2.41a4.21,4.21,0,0,1,.62,0H472.24c4.18,0,7.31-1.08,9.32-3.22,3.18-3.39,3-8.73,3-8.78s0-.21,0-.31v-26c.24-34.5-11-64.26-33.38-88.48-18.09-19.58-43.5-35.69-75.51-47.9-55-21-110.76-23-111.31-23.07a5,5,0,0,1-4.84-5V104.57c-15.91.85-66.47,6.1-99,38.41C141,162.42,131,188.53,131,220.58v50.85a5,5,0,0,1-10,0V220.58c0-34.84,10.93-63.35,32.48-84.74,41.82-41.49,108.25-41.42,111-41.43a5,5,0,0,1,5,5V250.46c15,1,62.05,5.29,109.71,23.47,33.47,12.76,60.15,29.73,79.3,50.45,24.16,26.15,36.29,58.21,36,95.31v25.8c.07,1.6.13,9.86-5.71,16.07-4,4.23-9.55,6.37-16.6,6.37H39.74C39.35,468,38.72,468,37.91,468Z"/><path class="cls-1" d="M486.27,416.54H22.17a5,5,0,0,1-3.56-1.48,5,5,0,0,1-1.44-3.57c0-4.28,1.27-104.79,18.39-157.09v-155a5,5,0,0,1,4.84-5c1.42,0,35.06-.94,69.7,11.16a5,5,0,0,1-3.3,9.44c-25.4-8.88-50.87-10.37-61.24-10.59V255.2a5,5,0,0,1-.26,1.58c-14.71,44.14-17.55,128.33-18,149.76h459a5,5,0,0,1,0,10Z"/><path class="cls-1" d="M100.57,236.43l-1.8,0c-9.06-.38-16.2-3.46-21.23-9.16-8.39-9.51-7.39-22.74-7.34-23.3a.37.37,0,0,1,0-.11c4.3-40.71,17.23-74.57,38.44-100.63,17-20.92,39.32-36.82,66.29-47.27C220.56,38.26,263.22,42.32,265,42.5h0c2.71.25,26.13,3.13,26.13,29.86,0,14.38-6.69,22.34-12.31,26.47a30.94,30.94,0,0,1-12.46,5.52,5,5,0,0,1-1.59-9.88c1.69-.29,16.36-3.37,16.36-22.11S265,52.5,264.26,52.47l-.25,0c-.41,0-42.36-4-85.79,12.93-25.25,9.84-46.09,24.75-61.95,44.3-19.87,24.49-32,56.49-36.11,95.12,0,.59-.49,9.79,4.92,15.87,3.16,3.55,7.91,5.48,14.11,5.73,20.31.89,22.24-17.9,22.39-20a5,5,0,0,1,10,.65C130.91,217.36,123.56,236.43,100.57,236.43Z"/><path class="cls-1" d="M40.52,104.41a5.12,5.12,0,0,1-.78-.06C31.17,103,15,94.57,15,72.36,15,49.88,32.06,43,41.22,42.49c3.88-.37,61.83-5.37,114.35,25.11a5,5,0,0,1-5,8.65C100.22,47,42.67,52.39,42.1,52.45l-.25,0C40.15,52.58,25,54.06,25,72.36c0,19.31,15.67,22,16.34,22.11a5,5,0,0,1-.78,9.94Z"/><path class="cls-1" d="M195.27,214.76a36.38,36.38,0,1,1,36.38-36.37A36.41,36.41,0,0,1,195.27,214.76Zm0-62.75a26.38,26.38,0,1,0,26.38,26.38A26.4,26.4,0,0,0,195.27,152Z"/><path class="cls-1" d="M163.9,183.39H133.6a5,5,0,0,1,0-10h30.3a5,5,0,0,1,0,10Z"/><path class="cls-1" d="M155.24,277.51c-40.7,0-70.14-4.77-87.66-8.78-19.24-4.4-28.75-8.82-29.15-9a5,5,0,0,1,4.25-9.05c.51.23,37.13,16.83,112.56,16.83s107.7-16.56,108-16.73a5,5,0,0,1,4.7,8.83C266.58,260.34,233.49,277.51,155.24,277.51Z"/><path class="cls-1" d="M161.73,416a5,5,0,0,1-5-5V272.51a5,5,0,0,1,10,0V411A5,5,0,0,1,161.73,416Z"/><path class="cls-1" d="M74.1,381.38H23.36a5,5,0,0,1,0-10H69.1V312.67H29.51a5,5,0,1,1,0-10H74.1a5,5,0,0,1,5,5v68.71A5,5,0,0,1,74.1,381.38Z"/><path class="cls-1" d="M185.6,193.12a5,5,0,0,1-5-5v-1.21a5,5,0,0,1,10,0v1.21A5,5,0,0,1,185.6,193.12Z"/><path class="cls-1" d="M203.86,193.12a5,5,0,0,1-5-5v-1.21a5,5,0,1,1,10,0v1.21A5,5,0,0,1,203.86,193.12Z"/><path class="cls-1" d="M185.6,174.87a5,5,0,0,1-5-5v-1.22a5,5,0,0,1,10,0v1.22A5,5,0,0,1,185.6,174.87Z"/><path class="cls-1" d="M203.86,174.87a5,5,0,0,1-5-5v-1.22a5,5,0,1,1,10,0v1.22A5,5,0,0,1,203.86,174.87Z"/></g><g id="Outline"><path class="cls-1" d="M53.54,334.85H28.66a5,5,0,0,1,0-10H53.54a5,5,0,1,1,0,10Z"/><path class="cls-1" d="M53.54,356.49H25.41a5,5,0,0,1,0-10H53.54a5,5,0,1,1,0,10Z"/></g></svg>