<?xml version="1.0" ?><svg viewBox="0 0 512 512" xmlns="http://www.w3.org/2000/svg"><defs><style>.cls-1{fill:#3f456b;}</style></defs><title/><g id="Lines"><path class="cls-1" d="M85.47,501.63H64.86c-12.23,0-22.17-10.17-22.17-22.67V451a5,5,0,0,1,10,0v28a12.45,12.45,0,0,0,12.17,12.67H85.47A12.45,12.45,0,0,0,97.64,479V451a5,5,0,0,1,10,0v28C107.64,491.46,97.69,501.63,85.47,501.63Z"/><path class="cls-1" d="M372.22,501.63H351.61c-12.23,0-22.17-10.17-22.17-22.67V452.33a5,5,0,0,1,10,0V479a12.45,12.45,0,0,0,12.17,12.67h20.61A12.45,12.45,0,0,0,384.39,479V452.33a5,5,0,0,1,10,0V479C394.39,491.46,384.45,501.63,372.22,501.63Z"/><path class="cls-1" d="M392.59,456H279.16a5,5,0,0,1,0-10H392.59c3.58,0,6.28-1,8.25-3.09,3.75-3.95,4.23-11.19,4.1-13.64a2.81,2.81,0,0,1,0-.29V374.68c0-.28.78-28.82-16.67-41.86-.95-.74-21.52-16.91-25.87-35.28,0-.08,0-.16-.05-.23L353,247.66c-.55-2.14-8.21-29.8-39.13-29.8H124.51c-30.87,0-38.55,27.56-39.12,29.8l-9.31,49.65c0,.07,0,.15,0,.23-4.23,17.83-23.74,33.59-25.68,35.12-17.67,15.58-16.88,41.75-16.87,42v54.27c0,.1,0,.2,0,.3-.13,2.44.36,9.68,4.1,13.63,2,2.08,4.67,3.09,8.25,3.09H158a5,5,0,0,1,0,10H45.82c-6.41,0-11.64-2.11-15.55-6.26-7.09-7.53-6.86-19.22-6.79-20.88V375c-.07-2.33-.52-31.59,20.38-49.9l.23-.19c.18-.14,18.58-14.63,22.18-29.52l9.31-49.66a2,2,0,0,0,0-.24c.09-.37,9.38-37.58,48.88-37.58H313.9c39.51,0,48.79,37.21,48.88,37.58,0,.08,0,.16.05.24l9.31,49.66c3,12.4,17,25.51,22.19,29.52,21.22,15.87,20.67,47.67,20.6,50.09v53.87c.07,1.66.3,13.35-6.79,20.88C404.24,453.85,399,456,392.59,456Z"/><path class="cls-1" d="M413.89,302.79H390.06a14.05,14.05,0,0,1-14-14V275.41a14,14,0,0,1,14-14h23.83a14,14,0,0,1,14,14v13.35A14,14,0,0,1,413.89,302.79Zm-23.83-31.41a4,4,0,0,0-4,4v13.35a4,4,0,0,0,4,4h23.83a4,4,0,0,0,4-4V275.41a4,4,0,0,0-4-4Z"/><path class="cls-1" d="M50.14,302.79H26.31a14,14,0,0,1-14-14V275.41a14,14,0,0,1,14-14H50.14a14,14,0,0,1,14,14v13.35A14,14,0,0,1,50.14,302.79ZM26.31,271.38a4,4,0,0,0-4,4v13.35a4,4,0,0,0,4,4H50.14a4,4,0,0,0,4-4V275.41a4,4,0,0,0-4-4Z"/><path class="cls-1" d="M375.26,314.94a5,5,0,0,1-2.88-9.09l14.9-10.47a5,5,0,0,1,5.75,8.19L378.12,314A5,5,0,0,1,375.26,314.94Z"/><path class="cls-1" d="M358,251.6a5,5,0,0,1-4.77-3.5c-.16-.51-16.59-50.88-59.57-50.88H144.84c-43.11,0-59.41,50.37-59.57,50.88a5,5,0,1,1-9.54-3,105.72,105.72,0,0,1,15.21-28.69c14.29-19.1,32.93-29.19,53.9-29.19H293.66c21,0,39.61,10.09,53.9,29.19a105.72,105.72,0,0,1,15.21,28.69,5,5,0,0,1-3.27,6.27A4.88,4.88,0,0,1,358,251.6Z"/><path class="cls-1" d="M389.26,431.63H47.46c-8.53,0-15-2.24-19.24-6.67a16.81,16.81,0,0,1-4.73-11.7l10,.44v-.1c0,1.34.68,8,14,8h341.8c.14,0,14.88-.17,15.42-8.47a5,5,0,0,1,10,.64c-.48,7.48-5.44,13.14-14,15.94A40.8,40.8,0,0,1,389.26,431.63Z"/><path class="cls-1" d="M278.75,475.23H158.89a5,5,0,0,1-5-5V426.55a5,5,0,0,1,5-5H278.75a5,5,0,0,1,5,5v43.68A5,5,0,0,1,278.75,475.23Zm-114.86-10H273.75V431.55H163.89Z"/><path class="cls-1" d="M369.92,309.75l-.43,0c-147-12.56-299.06-.13-300.58,0a5,5,0,1,1-.83-10c1.53-.13,154.43-12.64,302.26,0a5,5,0,0,1-.42,10Z"/><path class="cls-1" d="M284.62,413.55h-127c-12.55,0-16.84-9.09-17.43-14.21-.54-2.56-4.19-20.39-3.37-32.73.43-6.49,3.27-10.24,5.57-12.25a17.91,17.91,0,0,1,11.86-4.08c4.69-.28,69.44-4,133.73,0a17.86,17.86,0,0,1,11.85,4.08c2.3,2,5.14,5.76,5.57,12.24.82,12.35-2.83,30.18-3.37,32.74C301.46,404.46,297.17,413.55,284.62,413.55Zm-131-53.29c-2.13,0-6.34.81-6.75,7C146,378.89,150,397.32,150,397.5a4.87,4.87,0,0,1,.1.65c.19,1.57,1.31,5.4,7.5,5.4h127c6.19,0,7.31-3.83,7.51-5.48a3.75,3.75,0,0,1,.09-.57c0-.18,4-18.61,3.22-30.23-.16-2.49-.87-4.24-2.16-5.37a8.18,8.18,0,0,0-5-1.63,4.85,4.85,0,0,1-.66,0c-65.86-4.1-132.35,0-133,0a4.85,4.85,0,0,1-.66,0Z"/><path class="cls-1" d="M374.59,392.23h-42c-12.74,0-23.1-9.94-23.1-22.16V366c0-11.11,8.74-19.78,22.26-22.08l.34-.05,41.7-4.15a4.19,4.19,0,0,1,.5,0c8.07,0,13.92,1.93,17.86,5.88,5.59,5.59,5.58,13.4,5.57,19.67v4.88C397.69,382.29,387.32,392.23,374.59,392.23Zm-41.35-38.48c-6.4,1.14-13.78,5-13.78,12.2v4.12c0,6.7,5.88,12.16,13.1,12.16h42c7.22,0,13.1-5.46,13.1-12.16v-4.9c0-4.88,0-9.92-2.64-12.58-1.92-1.93-5.47-2.92-10.55-2.95Z"/><path class="cls-1" d="M110.07,392.23H68c-12.73,0-23.1-9.94-23.1-22.16v-4.88c0-6.27,0-14.08,5.57-19.67,4-3.95,9.79-5.88,17.86-5.88a4.19,4.19,0,0,1,.5,0l41.7,4.15.34.05c13.52,2.3,22.26,11,22.26,22.08v4.12C133.17,382.29,122.81,392.23,110.07,392.23ZM68.13,349.64c-5.08,0-8.63,1-10.55,2.95-2.65,2.66-2.64,7.7-2.64,12.58v4.9c0,6.7,5.88,12.16,13.1,12.16h42c7.22,0,13.1-5.46,13.1-12.16V366c0-7.2-7.38-11.06-13.78-12.2Z"/><path class="cls-1" d="M441.83,480.81a5,5,0,0,1-5-5V157.61a5,5,0,0,1,10,0v318.2A5,5,0,0,1,441.83,480.81Z"/><path class="cls-1" d="M485,162.61H398.7a20,20,0,0,1-20-20V30.5a20,20,0,0,1,20-20H485a20,20,0,0,1,20,20V142.61A20,20,0,0,1,485,162.61ZM398.7,20.5a10,10,0,0,0-10,10V142.61a10,10,0,0,0,10,10H485a10,10,0,0,0,10-10V30.5a10,10,0,0,0-10-10Z"/><path class="cls-1" d="M463.39,500.5a5,5,0,0,1-5-5v-7.22a7,7,0,0,0-7-7h-19.1a7,7,0,0,0-7,7v7.22a5,5,0,0,1-10,0v-7.22a17,17,0,0,1,17-17h19.1a17,17,0,0,1,17,17v7.22A5,5,0,0,1,463.39,500.5Z"/><path class="cls-1" d="M473,500.5H408.6a5,5,0,0,1,0-10H473a5,5,0,0,1,0,10Z"/><path class="cls-1" d="M161.57,87.77A5,5,0,0,1,159,78.48c13.22-7.94,32-4.36,32.85-4.2a5,5,0,0,1-1.92,9.82c-.29-.06-15.93-3-25.78,3A5,5,0,0,1,161.57,87.77Z"/><path class="cls-1" d="M96.89,62.73a5,5,0,0,1-5-4.35c-.43-3.32-2.94-7.32-3.87-8.58a5,5,0,0,1,8-6c.5.67,4.91,6.74,5.76,13.24a5,5,0,0,1-4.31,5.61C97.33,62.71,97.11,62.73,96.89,62.73Z"/><path class="cls-1" d="M176,147.88H51A40.76,40.76,0,0,1,40.79,68c-.06-.82-.09-1.64-.09-2.47a31.86,31.86,0,0,1,51-25.45A55.23,55.23,0,0,1,194.79,75.27a37.23,37.23,0,0,1-11.23,72.61Zm-124.71-10H183.5a27.23,27.23,0,0,0,4.53-54,5,5,0,0,1-3.95-6.17A45.23,45.23,0,0,0,98,50.3a5,5,0,0,1-8.54,1.4A21.85,21.85,0,0,0,50.7,65.54a21.56,21.56,0,0,0,.61,5.13,5.07,5.07,0,0,1-.69,3.94,5,5,0,0,1-3.36,2.17,30.75,30.75,0,0,0,4,61.08Z"/><path class="cls-1" d="M73,78a5,5,0,0,1-1.56-.25C60,74,44.82,77.19,44.67,77.23a5,5,0,1,1-2.12-9.78c.73-.16,18-3.81,32,.78A5,5,0,0,1,73,78Z"/></g><g id="Outline"><path class="cls-1" d="M252.72,448.29a5,5,0,0,1,5-5h0a5,5,0,0,1,5,5h0a5,5,0,0,1-5,5h0A5,5,0,0,1,252.72,448.29Zm-20,0a5,5,0,0,1,5-5h0a5,5,0,0,1,5,5h0a5,5,0,0,1-5,5h0A5,5,0,0,1,232.72,448.29Zm-20,0a5,5,0,0,1,5-5h0a5,5,0,0,1,5,5h0a5,5,0,0,1-5,5h0A5,5,0,0,1,212.72,448.29Zm-20,0a5,5,0,0,1,5-5h0a5,5,0,0,1,5,5h0a5,5,0,0,1-5,5h0A5,5,0,0,1,192.72,448.29Zm-20,0a5,5,0,0,1,5-5h0a5,5,0,0,1,5,5h0a5,5,0,0,1-5,5h0A5,5,0,0,1,172.72,448.29Z"/><path class="cls-1" d="M48.34,469.05a5,5,0,1,1,0-10H62.79a5,5,0,1,1,0,10H48.34Z"/><path class="cls-1" d="M48.16,484.52a5,5,0,1,1,0-10H63a5,5,0,0,1,0,10Z"/><path class="cls-1" d="M87.46,469.05a5,5,0,1,1,0-10h14.45a5,5,0,1,1,0,10Z"/><path class="cls-1" d="M87.28,484.52a5,5,0,0,1,0-10h14.84a5,5,0,1,1,0,10Z"/><path class="cls-1" d="M334.66,469.05a5,5,0,1,1,0-10h14.45a5,5,0,1,1,0,10Z"/><path class="cls-1" d="M334.48,484.52a5,5,0,0,1,0-10h14.84a5,5,0,0,1,0,10Z"/><path class="cls-1" d="M374.61,469.05a5,5,0,1,1,0-10h14.45a5,5,0,1,1,0,10H374.61Z"/><path class="cls-1" d="M374.43,484.52a5,5,0,0,1,0-10h14.83a5,5,0,0,1,0,10Z"/><path class="cls-1" d="M221.32,412.72a5,5,0,0,1-5-5v-54.1a5,5,0,0,1,10,0v54.1A5,5,0,0,1,221.32,412.72Z"/><path class="cls-1" d="M202.17,413.55a5,5,0,0,1-5-4.84l-1.66-54.94a5,5,0,1,1,10-.3l1.67,54.93a5,5,0,0,1-4.85,5.15Z"/><path class="cls-1" d="M183.86,413.55a5,5,0,0,1-5-4.69l-3.33-54.1a5,5,0,1,1,10-.61l3.33,54.1a5,5,0,0,1-4.68,5.29Z"/><path class="cls-1" d="M164.71,413.55a5,5,0,0,1-5-4.61l-4.16-53.27a5,5,0,0,1,10-.77l4.16,53.26a5,5,0,0,1-4.59,5.38Z"/><path class="cls-1" d="M241.29,413.55h-.15a5,5,0,0,1-4.85-5.15L238,353.47a5,5,0,1,1,10,.3l-1.66,54.94A5,5,0,0,1,241.29,413.55Z"/><path class="cls-1" d="M259.61,413.55h-.31a5,5,0,0,1-4.69-5.29l3.33-54.1a5,5,0,1,1,10,.61l-3.33,54.1A5,5,0,0,1,259.61,413.55Z"/><path class="cls-1" d="M278.75,413.55h-.39a5,5,0,0,1-4.6-5.38l4.16-53.26a5,5,0,1,1,10,.77l-4.16,53.27A5,5,0,0,1,278.75,413.55Z"/><path class="cls-1" d="M418,135.46a5,5,0,0,1-5-5V46.34a5,5,0,0,1,5-5h26.34c.33,0,33,.38,33,33,0,10-3,17.89-8.89,23.41-8.74,8.17-20.74,7.95-22.52,7.88H423v24.79A5,5,0,0,1,418,135.46Zm5-39.79h23.37c.07,0,9.25.45,15.28-5.25,3.77-3.55,5.67-9,5.67-16.05,0-22.77-22-23-23-23H423Z"/></g></svg>