<?xml version="1.0" ?><svg viewBox="0 0 512 512" xmlns="http://www.w3.org/2000/svg"><defs><style>.cls-1{fill:#344069;}.cls-2{fill:#3d446b;}</style></defs><title/><g id="Lines"><path class="cls-1" d="M159.43,219.48a5,5,0,0,1-5-4.95c-.33-32.76-5.08-53.13-9-64.45-4.22-12.19-8.41-16.73-8.45-16.77a3.81,3.81,0,0,1-.37-.43c-14.38-18.76-35.83-21.93-51.29-21.29-32.6,1.36-42.55,21.95-42.65,22.16a5,5,0,1,1-9.06-4.22c.5-1.08,12.68-26.32,51.29-27.93,17.78-.74,42.48,3,59.47,25,7.31,7.69,19.52,34.53,20.06,87.87a5,5,0,0,1-5,5Z"/><path class="cls-1" d="M205.49,132.05a5,5,0,0,1-4.21-7.69c15-23.54,39.43-29.43,57.26-30.22,38.61-1.7,52.91,22.4,53.5,23.43a5,5,0,0,1-8.66,5c-.51-.86-12.19-19.86-44.4-18.44-15.46.69-36.55,5.69-49.27,25.61A5,5,0,0,1,205.49,132.05Z"/><path class="cls-1" d="M178.22,336.71c-22.7,0-53.34-6.9-79.11-36.95A129.41,129.41,0,0,1,75.9,260.51a5,5,0,0,1,9.49-3.16h0a121.69,121.69,0,0,0,21.53,36.16c20.07,23.26,45.54,34.41,75.72,33.1,29-1.24,53.23-14.55,72.05-39.54a133.74,133.74,0,0,0,20-38.08,5,5,0,0,1,9.6,2.79,141.16,141.16,0,0,1-21.37,41c-20.44,27.29-48,42.44-79.82,43.8C181.5,336.67,179.88,336.71,178.22,336.71Z"/><path class="cls-1" d="M223.08,154.71a5,5,0,0,1-5-4.78c-.6-14,16.92-25.75,39.89-26.74,10.45-.44,20.44,1.43,28.14,5.29,8.65,4.33,13.59,10.7,13.9,17.93a5,5,0,0,1-10,.43c-.15-3.39-3.21-6.83-8.39-9.42-6.12-3.06-14.59-4.61-23.23-4.24-18.25.79-30.63,9.23-30.33,16.32a5,5,0,0,1-4.78,5.21Z"/><path class="cls-1" d="M52.45,162.05a5,5,0,0,1-5-4.79c-.31-7.23,4.06-14,12.31-19.06,7.35-4.5,17.14-7.23,27.58-7.68s20.44,1.43,28.14,5.29c8.65,4.33,13.59,10.7,13.9,17.93a5,5,0,0,1-10,.43c-.15-3.39-3.2-6.83-8.39-9.42-6.12-3.06-14.59-4.61-23.23-4.24s-17,2.64-22.78,6.22c-4.94,3-7.69,6.71-7.55,10.1A5,5,0,0,1,52.66,162Z"/><path class="cls-1" d="M152.74,395.92c-20.28,0-38.3-14-40.06-15.42C74.17,352.38,45.77,313,28.26,263.39c-14.49-41-21.21-89-19.44-138.89.84-23.55,3-42.21,6.52-57,4.85-20.31,12.34-33.91,22.89-41.58,10-7.23,22.33-8.8,36.79-4.66,47.21,13.52,86.62,12,87,12l13.65-.59c.39,0,39.78-1.92,85.66-19.44,14.05-5.36,26.51-4.86,37.05,1.5,11.18,6.73,19.8,19.64,26.38,39.46,4.8,14.47,8.53,32.88,11.38,56.27,6,49.52,3.47,97.95-7.45,140.06-13.19,50.9-38.11,92.59-74.07,123.91-1.68,1.6-19.41,18-40.43,18.92l-59.61,2.56-.21-5,.21,5C154,395.91,153.35,395.92,152.74,395.92Zm-92.63-367a26.43,26.43,0,0,0-16,5c-22.64,16.45-24.64,72.48-25.29,90.89-1.73,48.61,4.79,95.36,18.87,135.21,16.83,47.69,44.08,85.52,81,112.43l.21.17c.17.13,17.48,14,35.28,13.23l59.61-2.56c17.78-.76,33.85-16.06,34-16.22s.12-.12.19-.17c34.45-30,58.35-70,71-119,10.61-40.91,13.1-88,7.2-136.33-9-73.94-27.06-84.82-33-88.39-7.88-4.75-17.14-5-28.32-.71-47.48,18.12-87.14,20-88.8,20.08l-13.65.59c-1.66.07-41.34,1.59-90.19-12.4A44.47,44.47,0,0,0,60.11,28.94Z"/><path class="cls-1" d="M318.38,312.59a4,4,0,0,1-.48,0,5,5,0,0,1-4.5-5.45,219.85,219.85,0,0,0,.61-39.77,5,5,0,1,1,10-.7,230,230,0,0,1-.63,41.42A5,5,0,0,1,318.38,312.59Z"/><path class="cls-1" d="M475.74,234.25a5,5,0,0,1-4.56-2.95c-.42-.92-10-21-42.22-23-15.45-.94-36.95,1.82-51.69,20.3a5,5,0,1,1-7.82-6.24c17.42-21.83,42.31-25.12,60.12-24,38.57,2.35,50.26,27.83,50.74,28.91a5,5,0,0,1-4.57,7Z"/><path class="cls-1" d="M427.42,273.69c-1.44,0-2.91,0-4.39-.14-10.44-.65-20.18-3.56-27.43-8.2-8.15-5.22-12.39-12.07-11.94-19.3a5,5,0,1,1,10,.62c-.21,3.39,2.47,7.13,7.35,10.25,5.76,3.69,14,6.11,22.66,6.65,18.22,1.14,31.43-6,31.87-13a5,5,0,1,1,10,.62C464.69,264.24,448.31,273.69,427.42,273.69Z"/><path class="cls-1" d="M356.78,491.28c-.9,0-1.8,0-2.71-.09l-59.54-3.71c-21-1.3-38.42-18.05-40.07-19.69A228.84,228.84,0,0,1,200.07,393a5,5,0,0,1,9.09-4.18,218.85,218.85,0,0,0,52.1,71.61l.19.18c.15.15,15.93,15.76,33.7,16.86l59.54,3.71c17.77,1.12,35.36-12.42,35.54-12.55s.14-.11.2-.16c37.41-26.2,65.39-63.5,83.14-110.85,14.84-39.57,22.26-86.19,21.47-134.82-1.21-74.48-18-87.18-23.53-91.36-7.34-5.55-16.53-6.75-28.09-3.68-49.13,13-88.76,10.76-90.42,10.65l-13.64-.84-2.39-.2a5,5,0,1,1,.91-10c1.34.12,2.07.17,2.11.17l13.63.85c.39,0,39.76,2.27,87.23-10.34,14.53-3.85,26.87-2.05,36.69,5.38,10.4,7.86,17.63,21.61,22.09,42,3.26,14.9,5,33.6,5.41,57.16.81,49.87-6.83,97.76-22.1,138.49-18.47,49.24-47.63,88.08-86.67,115.46C394.51,478,376.71,491.28,356.78,491.28Z"/><path class="cls-1" d="M405.52,418.45a5,5,0,0,1-4.66-3.2c-.51-1.27-13.31-31.7-69.48-34.42-56.63-2.75-76.66,26.57-77.49,27.81a5,5,0,0,1-8.38-5.45c.93-1.44,23.62-35.38,86.35-32.35,63.1,3.06,77.74,39.28,78.33,40.82a5,5,0,0,1-2.87,6.46A4.94,4.94,0,0,1,405.52,418.45Z"/><path class="cls-2" d="M424.38,377h-1.71c-15.78-.13-28.64-10-31.28-24.06-2.87-15.26,5.78-26.95,13.42-37.26a108.3,108.3,0,0,0,7.47-10.94c2.66-4.71,5.67-10,6.87-15.46a5,5,0,0,1,4.88-3.91h0a5,5,0,0,1,4.86,4c1,4.91,3.65,9.77,6.21,14.46l.61,1.12A110.34,110.34,0,0,0,443,316c7.46,10.43,15.92,22.24,12.8,37.45C453,367.35,440.07,377,424.38,377Zm-1.65-10h1.38c9.33.06,19.7-4.71,21.93-15.56s-4.25-20-11.13-29.62a118,118,0,0,1-8-12.12l-.6-1.09c-.77-1.43-1.58-2.9-2.36-4.43-1,1.9-2,3.73-3,5.48a120.84,120.84,0,0,1-8.14,12c-7.05,9.5-13.7,18.48-11.63,29.45S413.5,366.92,422.73,367Z"/><path class="cls-2" d="M80.5,498a5,5,0,0,1-4.88-3.91c-.09-.39-9.36-39.63-44.21-47.44a5,5,0,0,1,.15-9.79c1.6-.31,39.24-8.06,44-47.46a5,5,0,0,1,9.89-.22,74.68,74.68,0,0,0,8.38,22.06c8.41,14.56,20.35,23.17,35.48,25.59a5,5,0,0,1,.23,9.84c-1.55.32-38.2,8.55-44.08,47.08A5,5,0,0,1,80.67,498ZM47.6,441.82c17.1,8.46,26.94,23.37,32.27,34.74a64.52,64.52,0,0,1,24.29-29.31,75.28,75.28,0,0,1,8.66-5C101.44,437.08,92,428.17,85,415.94A83.53,83.53,0,0,1,81,408a62.36,62.36,0,0,1-23.72,28.41A73.94,73.94,0,0,1,47.6,441.82Z"/></g><g id="Outline"><path class="cls-1" d="M445.4,125.2a5,5,0,0,1-2.09-6.76h0a5,5,0,0,1,6.75-2.09h0a5,5,0,0,1,2.1,6.76h0a5,5,0,0,1-4.43,2.67h0A5,5,0,0,1,445.4,125.2Zm7.13-18.66a5,5,0,0,1-4.74-5.25h0A5,5,0,0,1,453,96.55h0a5,5,0,0,1,4.75,5.24h0a5,5,0,0,1-5,4.75h-.25Zm-8.6-21.48a5,5,0,0,1,1.59-6.89h0a5,5,0,0,1,6.89,1.58h0a5,5,0,0,1-1.58,6.89h0a5,5,0,0,1-2.65.77h0A5,5,0,0,1,443.93,85.06Zm-70.87-.72a5,5,0,0,1,1.2-7h0a5,5,0,0,1,7,1.2h0a5,5,0,0,1-1.2,7h0a5,5,0,0,1-2.88.92h0A5,5,0,0,1,373.06,84.34Zm16.86-10.79A5,5,0,0,1,392.49,67h0a5,5,0,0,1,6.59,2.57h0a5,5,0,0,1-2.57,6.59h0a5.14,5.14,0,0,1-2,.42h0A5,5,0,0,1,389.92,73.55Zm41.16.5a5,5,0,0,1-2.38-6.65h0A5,5,0,0,1,435.35,65h0a5,5,0,0,1,2.39,6.65h0a5,5,0,0,1-4.53,2.87h0A4.93,4.93,0,0,1,431.08,74.05Zm-22.34-7.31a5,5,0,0,1,4.55-5.42h0a5,5,0,0,1,5.41,4.55h0a5,5,0,0,1-4.54,5.41h0a3.31,3.31,0,0,1-.44,0h0A5,5,0,0,1,408.74,66.74Z"/></g></svg>