<?xml version="1.0" ?><svg viewBox="0 0 512 512" xmlns="http://www.w3.org/2000/svg"><defs><style>.cls-1{fill:#3f456b;}</style></defs><title/><g id="Lines"><path class="cls-1" d="M494,84H114a5,5,0,0,1,0-10H494a5,5,0,0,1,0,10Z"/><path class="cls-1" d="M494,425H114a5,5,0,0,1,0-10H494a5,5,0,0,1,0,10Z"/><path class="cls-1" d="M456.4,502h-305C126.8,502,106,481.16,106,456.49V54.84a44.13,44.13,0,0,1,13.5-31.71A45.4,45.4,0,0,1,151.43,10h305A44.78,44.78,0,0,1,501,54.84V456.49C501,481.58,481,502,456.4,502Zm-305-482C132.23,20,116,36,116,54.84V456.49c0,19.25,16.23,35.51,35.43,35.51h305c18.76,0,34.6-16.26,34.6-35.51V54.84A34.76,34.76,0,0,0,456.4,20Z"/><path class="cls-1" d="M40.5,481.17c-8.14,0-11.91-6.64-12.83-10.35L11.22,417.47A5.18,5.18,0,0,1,11,416V58A25,25,0,0,1,36,33h8A25,25,0,0,1,69,58V416a5,5,0,0,1-.2,1.39L53.34,470.77C52.44,474.47,48.68,481.17,40.5,481.17Zm-3.14-12.83c.23.86,1,2.83,3.14,2.83s2.92-2,3.14-2.84a1.8,1.8,0,0,1,.06-.22L59,415.29V58A15,15,0,0,0,44,43H36A15,15,0,0,0,21,58V415.25L37.28,468A2.81,2.81,0,0,1,37.36,468.34Z"/><path class="cls-1" d="M306,57h-3a5,5,0,0,1,0-10h3a5,5,0,0,1,0,10Z"/></g><g id="Outline"><path class="cls-1" d="M304,480.55a22,22,0,1,1,22-22A22,22,0,0,1,304,480.55Zm0-33.93a12,12,0,1,0,12,12A12,12,0,0,0,304,446.62Z"/><path class="cls-1" d="M64,102H16a5,5,0,0,1,0-10H64a5,5,0,0,1,0,10Z"/></g></svg>