<?xml version="1.0" ?><svg viewBox="0 0 512 512" xmlns="http://www.w3.org/2000/svg"><defs><style>.cls-1{fill:#3f456b;}</style></defs><title/><g id="Lines"><path class="cls-1" d="M146,71a5,5,0,0,1-5-5V65a5,5,0,0,1,10,0v1A5,5,0,0,1,146,71Z"/><path class="cls-1" d="M172,71a5,5,0,0,1-5-5V65a5,5,0,0,1,10,0v1A5,5,0,0,1,172,71Z"/><path class="cls-1" d="M198,71a5,5,0,0,1-5-5V65a5,5,0,0,1,10,0v1A5,5,0,0,1,198,71Z"/><path class="cls-1" d="M431.17,83.54a5,5,0,0,1-5-5V77.46a5,5,0,1,1,10,0v1.08A5,5,0,0,1,431.17,83.54Z"/><path class="cls-1" d="M107.22,468h-23c-5.49,0-9.92-2.93-12.48-8.24a22.38,22.38,0,0,1-2-6.91l-3.66-21.33A5,5,0,1,1,76,429.84l3.68,21.49c0,.14,0,.28.05.42s.66,6.25,4.53,6.25h23c3.87,0,4.51-6,4.53-6.28s0-.28,0-.4l3.69-21.4a5,5,0,1,1,9.85,1.69l-3.65,21.22C121.16,458.21,117.5,468,107.22,468Z"/><path class="cls-1" d="M259.09,468h-23c-5.48,0-9.92-2.93-12.48-8.24a22.68,22.68,0,0,1-2-6.91L218,431.52a5,5,0,1,1,9.86-1.68l3.68,21.49c0,.14,0,.28.06.42s.66,6.25,4.52,6.25h23c4,0,4.53-6.19,4.53-6.25a3.18,3.18,0,0,1,.06-.43l3.68-21.4a5,5,0,1,1,9.85,1.69l-3.65,21.22C273,458.21,269.37,468,259.09,468Z"/><path class="cls-1" d="M296.69,435H48.31A37.36,37.36,0,0,1,11,397.69V48.31A37.36,37.36,0,0,1,48.31,11H296.69A37.36,37.36,0,0,1,334,48.31V397.69A37.36,37.36,0,0,1,296.69,435ZM48.31,21A27.34,27.34,0,0,0,21,48.31V397.69A27.34,27.34,0,0,0,48.31,425H296.69A27.34,27.34,0,0,0,324,397.69V48.31A27.34,27.34,0,0,0,296.69,21Z"/><path class="cls-1" d="M172,387.74a53.56,53.56,0,1,1,53.56-53.56A53.62,53.62,0,0,1,172,387.74Zm0-97.12a43.56,43.56,0,1,0,43.56,43.56A43.61,43.61,0,0,0,172,290.62Z"/><path class="cls-1" d="M151.14,314.78a5,5,0,0,1-4-2l-9.9-13.18a5,5,0,0,1,8-6l9.9,13.18a5,5,0,0,1-1,7A4.94,4.94,0,0,1,151.14,314.78Z"/><path class="cls-1" d="M447.4,217l-.61,0H415.5c-9.3,0-13.78-9.26-14-17.87V199c0-44.33-29.16-84.12-29.45-84.52a4,4,0,0,1-.32-.48A69,69,0,0,1,431.51,10.5h0A69,69,0,0,1,491.31,114a3.84,3.84,0,0,1-.35.54c-.31.4-30.88,41.08-30.88,84.46,0,7-1.78,12.12-5.31,15.19A11.16,11.16,0,0,1,447.4,217Zm.27-10Zm-.31-.06.17,0c1.07-.18,2.55-2.38,2.55-8,0-45.4,29.7-86.22,32.72-90.26a59,59,0,1,0-102.54,0c2.81,3.85,31.2,43.93,31.24,90.13,0,.49.65,8.1,4,8.1H447C447.24,207,447.29,207,447.36,207Z"/><path class="cls-1" d="M447,261H415a5,5,0,0,1-5-5V212a5,5,0,0,1,10,0v39h22V212a5,5,0,0,1,10,0v44A5,5,0,0,1,447,261Z"/><path class="cls-1" d="M278,501.06c-4.68,0-15.74-.91-24.37-8.77-7.33-6.68-11-16.53-11-29.29a5,5,0,0,1,10,0c0,9.83,2.61,17.19,7.77,21.89,7.65,7,18.81,6.14,18.93,6.13l.46,0H388.33c12.22,0,21.71-3.56,28.22-10.58,11.87-12.81,10.48-33,10.46-33.2s0-.25,0-.38V257a5,5,0,0,1,10,0V446.67c.16,2.59,1.13,25.17-13.11,40.54-8.48,9.15-20.44,13.79-35.56,13.79H279.94C279.58,501,278.91,501.06,278,501.06Z"/><path class="cls-1" d="M431.47,147.72a69.18,69.18,0,0,1-56.65-29.55,5,5,0,1,1,8.2-5.73,59.08,59.08,0,0,0,97-.13,5,5,0,0,1,8.21,5.71A69.14,69.14,0,0,1,431.47,147.72Z"/><path class="cls-1" d="M95,501a5,5,0,0,1-5-5V463a5,5,0,0,1,10,0v33A5,5,0,0,1,95,501Z"/></g><g id="Outline"><path class="cls-1" d="M100.8,337.21h-.14a5,5,0,0,1-4.87-5.14,77.28,77.28,0,0,1,79.33-75.14,77.52,77.52,0,0,1,72.81,58.26,5,5,0,1,1-9.69,2.45,67.27,67.27,0,0,0-132.45,14.7A5,5,0,0,1,100.8,337.21Z"/><path class="cls-1" d="M246.59,338.49a5,5,0,0,1-4.9-4l-.19-1a5,5,0,1,1,9.81-1.92l.19,1a5,5,0,0,1-3.95,5.87A5.2,5.2,0,0,1,246.59,338.49Z"/><path class="cls-1" d="M462,99.68a5,5,0,0,1-5-5V93.6a5,5,0,0,1,10,0v1.08A5,5,0,0,1,462,99.68Z"/><path class="cls-1" d="M431.17,117a5,5,0,0,1-5-5v-1.08a5,5,0,0,1,10,0V112A5,5,0,0,1,431.17,117Z"/><path class="cls-1" d="M400.33,99.68a5,5,0,0,1-5-5V93.6a5,5,0,1,1,10,0v1.08A5,5,0,0,1,400.33,99.68Z"/><path class="cls-1" d="M462,66.23a5,5,0,0,1-5-5V60.14a5,5,0,1,1,10,0v1.09A5,5,0,0,1,462,66.23Z"/><path class="cls-1" d="M400.33,66.23a5,5,0,0,1-5-5V60.14a5,5,0,1,1,10,0v1.09A5,5,0,0,1,400.33,66.23Z"/><path class="cls-1" d="M431.17,50.08a5,5,0,0,1-5-5V44a5,5,0,0,1,10,0v1.08A5,5,0,0,1,431.17,50.08Z"/></g></svg>