<?xml version="1.0" ?><svg enable-background="new 0 0 512 512" version="1.1" viewBox="0 0 512 512" xml:space="preserve" xmlns="http://www.w3.org/2000/svg" xmlns:xlink="http://www.w3.org/1999/xlink"><g id="Lines"><g><g><g><g><g><path d="M480.064,123.276c-3.841,0-7.682-1.462-10.605-4.387l-75.972-75.972        c-5.849-5.848-5.849-15.364,0-21.212l8.683-8.683c2.824-2.826,6.591-4.382,10.606-4.382c4.015,0,7.781,1.556,10.606,4.382        l75.971,75.972c2.826,2.824,4.382,6.591,4.382,10.606c0,4.015-1.556,7.781-4.382,10.606l-8.683,8.682        C487.747,121.814,483.906,123.276,480.064,123.276z M412.776,18.642c-1.344,0-2.599,0.516-3.535,1.452l-8.684,8.683        c-1.949,1.95-1.949,5.121,0,7.071l75.972,75.972c1.95,1.95,5.123,1.948,7.071,0l8.683-8.683        c0.937-0.938,1.452-2.192,1.452-3.535c0-1.344-0.516-2.599-1.452-3.535l-75.971-75.973        C415.375,19.157,414.119,18.642,412.776,18.642z" fill="#3F456B"/></g></g></g><g><g><g><path d="M369.561,101.855c-1.279,0-2.56-0.488-3.535-1.465c-1.953-1.952-1.953-5.118,0-7.07l42.467-42.468        c1.951-1.953,5.119-1.953,7.07,0c1.953,1.952,1.953,5.118,0,7.07l-42.467,42.468        C372.12,101.367,370.84,101.855,369.561,101.855z" fill="#3F456B"/></g></g></g><g><g><g><path d="M29.197,472.395c-3.146,0-6.035-1.127-8.125-3.218l-6.621-6.619        c-2.514-2.514-3.635-6.182-3.077-10.064c0.488-3.405,2.212-6.735,4.853-9.375l26.256-26.256c1.951-1.953,5.119-1.953,7.07,0        c1.953,1.952,1.953,5.118,0,7.07l-26.256,26.257c-1.105,1.106-1.844,2.464-2.024,3.725c-0.103,0.713-0.007,1.315,0.249,1.572        l6.621,6.619c0.257,0.258,0.864,0.351,1.572,0.251c1.262-0.182,2.619-0.919,3.724-2.024l19.198-19.196        c1.951-1.953,5.119-1.953,7.07,0c1.953,1.952,1.953,5.118,0,7.07L40.51,467.402c-2.639,2.641-5.969,4.364-9.375,4.853        C30.481,472.349,29.834,472.395,29.197,472.395z" fill="#3F456B"/></g></g></g><g><g><g><path d="M388.781,117.061c-1.279,0-2.56-0.488-3.535-1.465c-1.953-1.952-1.953-5.118,0-7.07l40.46-40.459        c1.951-1.953,5.119-1.953,7.07,0c1.953,1.952,1.953,5.118,0,7.07l-40.46,40.459        C391.341,116.572,390.061,117.061,388.781,117.061z" fill="#3F456B"/></g></g></g></g><g><g><g><path d="M443.261,180.642c-7.452,0-13.098-2.342-16.78-6.959c-6.097-7.646-3.92-18.175-3.652-19.351       l16.366-66.45c0.553-2.249,2.551-3.837,4.895-3.805c2.316,0.019,4.316,1.626,4.834,3.883l15.212,66.367       c0.008,0.035,0.016,0.071,0.022,0.106c0.242,1.171,2.181,11.657-4.016,19.263C456.387,178.305,450.707,180.642,443.261,180.642       z M432.574,156.574c-0.417,1.961-0.896,7.62,1.746,10.9c1.692,2.102,4.701,3.167,8.94,3.167c4.294,0,7.365-1.098,9.128-3.262       c3.13-3.841,2.062-10.432,1.979-10.899l-10.494-45.786L432.574,156.574z" fill="#3F456B"/></g></g></g><g><g><g><path d="M423.383,287.78h-22.691c-2.762,0-5-2.238-5-5s2.238-5,5-5h22.691c2.71,0,5-2.849,5-6.22v-49.366       c0-3.371-2.29-6.22-5-6.22h-22.691c-2.762,0-5-2.238-5-5s2.238-5,5-5h22.691c8.271,0,15,7.276,15,16.22v49.366       C438.383,280.504,431.654,287.78,423.383,287.78z" fill="#3F456B"/></g></g></g><g><g><g><path d="M112.715,232.878c-2.762,0-5-2.238-5-5v-82.236c0-22.489,14.14-43.101,35.184-51.289       c2.572-0.999,5.471,0.273,6.474,2.847c1.001,2.574-0.273,5.472-2.847,6.474c-17.232,6.705-28.811,23.57-28.811,41.969v82.236       C117.715,230.64,115.477,232.878,112.715,232.878z" fill="#3F456B"/></g></g></g><g><g><g><path d="M350.715,499.626h-188c-30.327,0-55-24.673-55-55V266.725c0-2.762,2.238-5,5-5s5,2.238,5,5v177.901       c0,24.813,20.187,45,45,45h188c24.813,0,45-20.187,45-45V266.642c0-2.762,2.238-5,5-5s5,2.238,5,5v177.984       C405.715,474.953,381.042,499.626,350.715,499.626z" fill="#3F456B"/></g></g></g><g><g><g><path d="M400.715,232.878c-2.762,0-5-2.238-5-5v-82.236c0-18.398-11.578-35.264-28.811-41.969       c-2.573-1.002-3.848-3.899-2.847-6.474c1.002-2.574,3.903-3.846,6.474-2.847c21.044,8.188,35.184,28.8,35.184,51.289v82.236       C405.715,230.64,403.477,232.878,400.715,232.878z" fill="#3F456B"/></g></g></g><g><g><g><path d="M224.715,68.892c-2.762,0-5-2.238-5-5v-38.25c0-2.757-2.243-5-5-5h-44c-2.757,0-5,2.243-5,5v38.25       c0,2.762-2.238,5-5,5s-5-2.238-5-5v-38.25c0-8.271,6.729-15,15-15h44c8.271,0,15,6.729,15,15v38.25       C229.715,66.653,227.477,68.892,224.715,68.892z" fill="#3F456B"/></g></g></g><g><g><g><path d="M352.715,68.892c-2.762,0-5-2.238-5-5v-38.25c0-2.757-2.243-5-5-5h-44c-2.757,0-5,2.243-5,5v38.25       c0,2.762-2.238,5-5,5s-5-2.238-5-5v-38.25c0-8.271,6.729-15,15-15h44c8.271,0,15,6.729,15,15v38.25       C357.715,66.653,355.477,68.892,352.715,68.892z" fill="#3F456B"/></g></g></g><g><g><g><path d="M320.715,196.642h-128c-15.773,0-28.458-4.735-37.7-14.074c-15.365-15.526-15.31-38.027-15.3-38.978       V79.896c-0.164-1.826-0.41-8.801,4.531-14.409c3.855-4.377,9.648-6.596,17.219-6.596h190.5c7.57,0,13.363,2.219,17.219,6.596       c4.941,5.608,4.695,12.583,4.531,14.409v63.745c0.01,0.898,0.065,23.399-15.3,38.926       C349.173,191.906,336.488,196.642,320.715,196.642z M161.465,68.892c-4.572,0-7.842,1.079-9.716,3.206       c-2.469,2.803-2.079,6.874-2.074,6.914c0.026,0.209,0.04,0.419,0.04,0.63v64c-0.001,0.233,0.031,19.443,12.464,31.948       c7.291,7.333,17.564,11.052,30.536,11.052h128c13.005,0,23.298-3.737,30.593-11.108c12.462-12.594,12.409-31.648,12.407-31.84       V79.642c0-0.211,0.014-0.421,0.04-0.63l0,0c-0.001,0,0.404-4.16-2.123-6.97c-1.882-2.09-5.134-3.15-9.667-3.15H161.465z" fill="#3F456B"/></g></g></g><g><g><g><path d="M237.702,468.142h-47.153c-19.299,0-35-15.701-35-35v-100c0-19.299,15.701-35,35-35h47.153       c2.762,0,5,2.238,5,5s-2.238,5-5,5h-47.153c-13.785,0-25,11.215-25,25v100c0,13.785,11.215,25,25,25h47.153       c2.762,0,5,2.238,5,5S240.464,468.142,237.702,468.142z" fill="#3F456B"/></g></g></g><g><g><g><path d="M322.549,468.142h-46.472c-2.762,0-5-2.238-5-5s2.238-5,5-5h46.472c13.785,0,25-11.215,25-25v-100       c0-13.785-11.215-25-25-25h-46.847c-2.762,0-5-2.238-5-5s2.238-5,5-5h46.847c19.299,0,35,15.701,35,35v100       C357.549,452.44,341.848,468.142,322.549,468.142z" fill="#3F456B"/></g></g></g><g><g><g><path d="M278.868,276.809h-44c-8.271,0-15-6.729-15-15v-28.667c0-8.271,6.729-15,15-15h44       c8.271,0,15,6.729,15,15v28.667C293.868,270.08,287.14,276.809,278.868,276.809z M234.868,228.142c-2.757,0-5,2.243-5,5v28.667       c0,2.757,2.243,5,5,5h44c2.757,0,5-2.243,5-5v-28.667c0-2.757-2.243-5-5-5H234.868z" fill="#3F456B"/></g></g></g><g><g><g><path d="M237.702,499.626c-2.762,0-5-2.238-5-5V272.642c0-2.762,2.238-5,5-5s5,2.238,5,5v221.984       C242.702,497.388,240.464,499.626,237.702,499.626z" fill="#3F456B"/></g></g></g><g><g><g><path d="M237.702,228.142c-2.762,0-5-2.238-5-5v-31.5c0-2.762,2.238-5,5-5s5,2.238,5,5v31.5       C242.702,225.903,240.464,228.142,237.702,228.142z" fill="#3F456B"/></g></g></g><g><g><g><path d="M275.702,499.626c-2.762,0-5-2.238-5-5V272.642c0-2.762,2.238-5,5-5s5,2.238,5,5v221.984       C280.702,497.388,278.464,499.626,275.702,499.626z" fill="#3F456B"/></g></g></g><g><g><g><path d="M275.702,228.142c-2.762,0-5-2.238-5-5v-31.5c0-2.762,2.238-5,5-5s5,2.238,5,5v31.5       C280.702,225.903,278.464,228.142,275.702,228.142z" fill="#3F456B"/></g></g></g><g><g><g><path d="M416.702,270.878h-47.925c-2.762,0-5-2.238-5-5s2.238-5,5-5h42.925v-28h-42.925c-2.762,0-5-2.238-5-5       s2.238-5,5-5h47.925c2.762,0,5,2.238,5,5v38C421.702,268.64,419.464,270.878,416.702,270.878z" fill="#3F456B"/></g></g></g><g><g><g><path d="M243.214,240.002c3.575,0,6.473,2.896,6.473,6.473c0,3.574-2.898,6.473-6.473,6.473       c-3.575,0-6.474-2.898-6.474-6.473C236.74,242.899,239.639,240.002,243.214,240.002z" fill="#3F456B"/></g></g></g><g><g><g><path d="M270.589,240.002c3.575,0,6.473,2.896,6.473,6.473c0,3.574-2.898,6.473-6.473,6.473       c-3.575,0-6.474-2.898-6.474-6.473C264.115,242.899,267.014,240.002,270.589,240.002z" fill="#3F456B"/></g></g></g><g><g><g><path d="M257.427,111.716c3.575,0,6.473,2.896,6.473,6.473c0,3.574-2.898,6.473-6.473,6.473       c-3.575,0-6.474-2.898-6.474-6.473C250.953,114.612,253.852,111.716,257.427,111.716z" fill="#3F456B"/></g></g></g><g><g><g><path d="M257.579,147.521c-16.174,0-29.333-13.159-29.333-29.333s13.159-29.333,29.333-29.333       c16.175,0,29.334,13.159,29.334,29.333S273.754,147.521,257.579,147.521z M257.579,98.855c-10.66,0-19.333,8.673-19.333,19.333       s8.673,19.333,19.333,19.333c10.661,0,19.334-8.673,19.334-19.333S268.24,98.855,257.579,98.855z" fill="#3F456B"/></g></g></g><g><g><g><path d="M368.715,283.684c-2.762,0-5-2.238-5-5v-64.417c0-2.762,2.238-5,5-5s5,2.238,5,5v64.417       C373.715,281.445,371.477,283.684,368.715,283.684z" fill="#3F456B"/></g></g></g><g><g><g><path d="M111.955,287.78H89.264c-8.271,0-15-7.276-15-16.22v-49.366c0-8.943,6.729-16.22,15-16.22h22.691       c2.762,0,5,2.238,5,5s-2.238,5-5,5H89.264c-2.71,0-5,2.849-5,6.22v49.366c0,3.371,2.29,6.22,5,6.22h22.691c2.762,0,5,2.238,5,5       S114.717,287.78,111.955,287.78z" fill="#3F456B"/></g></g></g><g><g><g><path d="M143.87,270.878H95.945c-2.762,0-5-2.238-5-5v-38c0-2.762,2.238-5,5-5h47.925c2.762,0,5,2.238,5,5       s-2.238,5-5,5h-42.925v28h42.925c2.762,0,5,2.238,5,5S146.632,270.878,143.87,270.878z" fill="#3F456B"/></g></g></g><g><g><g><path d="M143.932,283.684c-2.762,0-5-2.238-5-5v-64.417c0-2.762,2.238-5,5-5s5,2.238,5,5v64.417       C148.932,281.445,146.693,283.684,143.932,283.684z" fill="#3F456B"/></g></g></g><g><g><g><path d="M444.832,453.142h-43.811c-2.762,0-5-2.238-5-5s2.238-5,5-5h43.811c8.271,0,15-6.729,15-15v-104       c0-8.271-6.729-15-15-15h-43.811c-2.762,0-5-2.238-5-5s2.238-5,5-5h43.811c13.785,0,25,11.215,25,25v104       C469.832,441.927,458.617,453.142,444.832,453.142z" fill="#3F456B"/></g></g></g><g><g><g><path d="M111.208,453.142H67.397c-13.785,0-25-11.215-25-25v-104c0-13.785,11.215-25,25-25h43.811       c2.762,0,5,2.238,5,5s-2.238,5-5,5H67.397c-8.271,0-15,6.729-15,15v104c0,8.271,6.729,15,15,15h43.811c2.762,0,5,2.238,5,5       S113.97,453.142,111.208,453.142z" fill="#3F456B"/></g></g></g><g><g><g><g><path d="M464.832,392.568h-63.811c-2.762,0-5-2.238-5-5s2.238-5,5-5h63.811c2.762,0,5,2.238,5,5        S467.594,392.568,464.832,392.568z" fill="#3F456B"/></g></g></g><g><g><g><path d="M464.832,354.568h-63.811c-2.762,0-5-2.238-5-5s2.238-5,5-5h63.811c2.762,0,5,2.238,5,5        S467.594,354.568,464.832,354.568z" fill="#3F456B"/></g></g></g></g><g><g><g><g><path d="M111.169,392.568h-63.81c-2.762,0-5-2.238-5-5s2.238-5,5-5h63.81c2.762,0,5,2.238,5,5        S113.931,392.568,111.169,392.568z" fill="#3F456B"/></g></g></g><g><g><g><path d="M111.169,354.568h-63.81c-2.762,0-5-2.238-5-5s2.238-5,5-5h63.81c2.762,0,5,2.238,5,5        S113.931,354.568,111.169,354.568z" fill="#3F456B"/></g></g></g></g></g></g><g id="Outline"><g><g><g><g><g><path d="M144.509,283.07c-2.181,0-4.186-1.438-4.809-3.641c-0.751-2.657,0.794-5.421,3.451-6.172l78.87-22.296        c2.657-0.753,5.42,0.794,6.172,3.451c0.751,2.657-0.794,5.421-3.451,6.172l-78.87,22.296        C145.417,283.01,144.959,283.07,144.509,283.07z" fill="#3F456B"/></g></g></g><g><g><g><path d="M290.933,241.677c-2.181,0-4.186-1.438-4.809-3.641c-0.751-2.657,0.794-5.421,3.451-6.172        l78.099-22.078c2.658-0.755,5.42,0.794,6.172,3.451c0.751,2.657-0.794,5.421-3.451,6.172l-78.099,22.078        C291.841,241.616,291.383,241.677,290.933,241.677z" fill="#3F456B"/></g></g></g><g><g><g><path d="M369.037,283.07c-0.451,0-0.908-0.061-1.363-0.189l-79.357-22.435        c-2.657-0.751-4.202-3.515-3.451-6.172c0.752-2.658,3.515-4.204,6.172-3.451l79.357,22.435        c2.657,0.751,4.202,3.515,3.451,6.172C373.223,281.632,371.218,283.07,369.037,283.07z" fill="#3F456B"/></g></g></g><g><g><g><path d="M222.613,241.677c-0.451,0-0.908-0.061-1.363-0.189l-78.099-22.078        c-2.657-0.751-4.202-3.515-3.451-6.172c0.752-2.658,3.516-4.206,6.172-3.451l78.099,22.078        c2.657,0.751,4.202,3.515,3.451,6.172C226.799,240.238,224.794,241.677,222.613,241.677z" fill="#3F456B"/></g></g></g></g><g><g><g><path d="M230.453,347.992h-10c-2.762,0-5-2.238-5-5s2.238-5,5-5h10c2.762,0,5,2.238,5,5       S233.215,347.992,230.453,347.992z M200.453,347.992h-10c-2.762,0-5-2.238-5-5s2.238-5,5-5h10c2.762,0,5,2.238,5,5       S203.215,347.992,200.453,347.992z M170.453,347.992h-10c-2.762,0-5-2.238-5-5s2.238-5,5-5h10c2.762,0,5,2.238,5,5       S173.215,347.992,170.453,347.992z" fill="#3F456B"/></g></g></g><g><g><g><path d="M350.126,347.992h-10c-2.762,0-5-2.238-5-5s2.238-5,5-5h10c2.762,0,5,2.238,5,5       S352.888,347.992,350.126,347.992z M320.126,347.992h-10c-2.762,0-5-2.238-5-5s2.238-5,5-5h10c2.762,0,5,2.238,5,5       S322.888,347.992,320.126,347.992z M290.126,347.992h-10c-2.762,0-5-2.238-5-5s2.238-5,5-5h10c2.762,0,5,2.238,5,5       S292.888,347.992,290.126,347.992z" fill="#3F456B"/></g></g></g><g><g><g><path d="M307.271,168.998c-0.017,0-0.032,0-0.048,0c-0.496-0.005-0.861-0.02-1.073-0.031h-8.919       c-2.762,0-5-2.238-5-5s2.238-5,5-5h9.069c0.121,0,0.243,0.005,0.364,0.014c0.039,0.002,0.274,0.015,0.652,0.018       c2.762,0.026,4.979,2.286,4.953,5.047C312.244,166.79,310.011,168.998,307.271,168.998z M277.193,168.967h-10.015       c-2.762,0-5-2.238-5-5s2.238-5,5-5h10.015c2.762,0,5,2.238,5,5S279.955,168.967,277.193,168.967z M247.148,168.967h-10.018       c-2.762,0-5-2.238-5-5s2.238-5,5-5h10.018c2.762,0,5,2.238,5,5S249.91,168.967,247.148,168.967z M217.101,168.967h-10.018       c-2.762,0-5-2.238-5-5s2.238-5,5-5h10.018c2.762,0,5,2.238,5,5S219.862,168.967,217.101,168.967z M187.973,164.208       c-0.912,0-1.835-0.25-2.663-0.772c-3.331-2.102-6.229-4.802-8.615-8.026c-1.643-2.22-1.174-5.351,1.046-6.993       c2.22-1.644,5.352-1.175,6.993,1.046c1.645,2.223,3.634,4.079,5.912,5.517c2.335,1.474,3.034,4.561,1.561,6.896       C191.256,163.382,189.632,164.208,187.973,164.208z M326.312,163.723c-1.631,0-3.229-0.797-4.189-2.265       c-1.512-2.311-0.863-5.409,1.448-6.921c2.297-1.503,4.245-3.381,5.79-5.582c1.586-2.26,4.704-2.807,6.965-1.221       s2.807,4.704,1.221,6.965c-2.277,3.245-5.138,6.007-8.503,8.207C328.199,163.458,327.25,163.723,326.312,163.723z        M174.105,138.79c-2.572,0-4.758-1.973-4.977-4.582c-0.117-1.398-0.135-2.413-0.135-2.894c0-0.107,0.001-0.19,0.002-0.247       v-7.288c0-2.762,2.238-5,5-5s5,2.238,5,5v7.342c0,0.049-0.001,0.098-0.002,0.147c0,0.307,0.01,1.03,0.1,2.104       c0.23,2.752-1.813,5.17-4.564,5.4C174.387,138.784,174.245,138.79,174.105,138.79z M339.141,137.971       c-0.068,0-0.136-0.001-0.204-0.004c-2.76-0.11-4.906-2.438-4.796-5.196c0.026-0.665,0.041-1.346,0.041-2.042v-7.76       c0-2.762,2.238-5,5-5s5,2.238,5,5v7.76c0,0.833-0.017,1.646-0.049,2.442C344.024,135.862,341.81,137.971,339.141,137.971z        M173.996,108.779c-2.762,0-5-2.238-5-5v-10c0-2.762,2.238-5,5-5s5,2.238,5,5v10       C178.996,106.541,176.758,108.779,173.996,108.779z M339.182,107.958c-2.762,0-5-2.238-5-5V92.952c0-2.762,2.238-5,5-5       s5,2.238,5,5v10.006C344.182,105.72,341.943,107.958,339.182,107.958z M173.996,78.779c-2.762,0-5-2.238-5-5v-10       c0-2.762,2.238-5,5-5s5,2.238,5,5v10C178.996,76.541,176.758,78.779,173.996,78.779z M339.182,77.938c-2.762,0-5-2.238-5-5       v-8.604c0-2.762,2.238-5,5-5s5,2.238,5,5v8.604C344.182,75.699,341.943,77.938,339.182,77.938z" fill="#3F456B"/></g></g></g><g><g><g><path d="M431.847,412.667c-2.762,0-5-2.238-5-5v-20.24c0-2.762,2.238-5,5-5s5,2.238,5,5v20.24       C436.847,410.429,434.608,412.667,431.847,412.667z" fill="#3F456B"/></g></g></g><g><g><g><path d="M431.847,353.625c-2.762,0-5-2.238-5-5v-44.619c0-2.762,2.238-5,5-5s5,2.238,5,5v44.619       C436.847,351.387,434.608,353.625,431.847,353.625z" fill="#3F456B"/></g></g></g><g><g><g><path d="M80.192,412.667c-2.762,0-5-2.238-5-5v-20.24c0-2.762,2.238-5,5-5s5,2.238,5,5v20.24       C85.192,410.429,82.954,412.667,80.192,412.667z" fill="#3F456B"/></g></g></g><g><g><g><path d="M80.192,353.625c-2.762,0-5-2.238-5-5v-44.619c0-2.762,2.238-5,5-5s5,2.238,5,5v44.619       C85.192,351.387,82.954,353.625,80.192,353.625z" fill="#3F456B"/></g></g></g><g><g><g><g><g><g><path d="M486.1,213.745c-1.279,0-2.56-0.488-3.535-1.465c-1.953-1.952-1.953-5.118,0-7.07l8.017-8.017          c1.951-1.953,5.119-1.953,7.07,0c1.953,1.952,1.953,5.118,0,7.07l-8.017,8.017          C488.659,213.257,487.379,213.745,486.1,213.745z" fill="#3F456B"/></g></g></g><g><g><g><path d="M458.736,241.088c-1.279,0-2.56-0.488-3.536-1.465c-1.952-1.952-1.952-5.118,0.001-7.071          l8.018-8.017c1.953-1.951,5.118-1.952,7.071,0.001c1.952,1.952,1.952,5.118-0.001,7.071l-8.018,8.017          C461.295,240.6,460.016,241.088,458.736,241.088z" fill="#3F456B"/></g></g></g></g><g><g><g><g><path d="M494.106,241.099c-1.279,0-2.56-0.488-3.536-1.465l-8.017-8.018          c-1.952-1.952-1.952-5.118,0.001-7.071c1.953-1.951,5.118-1.952,7.071,0.001l8.017,8.018          c1.952,1.952,1.952,5.118-0.001,7.071C496.665,240.61,495.386,241.099,494.106,241.099z" fill="#3F456B"/></g></g></g><g><g><g><path d="M466.764,213.735c-1.279,0-2.56-0.488-3.536-1.465l-8.017-8.018          c-1.952-1.952-1.952-5.118,0.001-7.071c1.953-1.951,5.118-1.952,7.071,0.001l8.017,8.018          c1.952,1.952,1.952,5.118-0.001,7.071C469.322,213.247,468.043,213.735,466.764,213.735z" fill="#3F456B"/></g></g></g></g></g><g><g><g><g><g><path d="M42.173,269.542c-1.279,0-2.56-0.488-3.535-1.465c-1.953-1.952-1.953-5.118,0-7.07l8.018-8.018          c1.951-1.953,5.119-1.953,7.07,0c1.953,1.952,1.953,5.118,0,7.07l-8.018,8.018          C44.732,269.054,43.452,269.542,42.173,269.542z" fill="#3F456B"/></g></g></g><g><g><g><path d="M14.81,296.885c-1.279,0-2.56-0.488-3.535-1.465c-1.953-1.952-1.953-5.118,0-7.07l8.018-8.018          c1.951-1.953,5.119-1.953,7.07,0c1.953,1.952,1.953,5.118,0,7.07l-8.018,8.018C17.369,296.396,16.089,296.885,14.81,296.885          z" fill="#3F456B"/></g></g></g></g><g><g><g><g><path d="M50.18,296.895c-1.279,0-2.56-0.488-3.536-1.465l-8.017-8.018c-1.952-1.952-1.952-5.118,0.001-7.071          c1.953-1.951,5.118-1.952,7.071,0.001l8.017,8.018c1.952,1.952,1.952,5.118-0.001,7.071          C52.738,296.406,51.459,296.895,50.18,296.895z" fill="#3F456B"/></g></g></g><g><g><g><path d="M22.837,269.531c-1.279,0-2.56-0.488-3.535-1.465l-8.017-8.017c-1.953-1.952-1.953-5.118,0-7.07          c1.951-1.953,5.119-1.953,7.07,0l8.017,8.017c1.953,1.952,1.953,5.118,0,7.07C25.396,269.043,24.116,269.531,22.837,269.531          z" fill="#3F456B"/></g></g></g></g></g><g><g><g><g><g><path d="M60.476,100.126c-0.668,0-1.347-0.134-1.997-0.419L46.069,94.29          c-2.531-1.104-3.688-4.052-2.582-6.582c1.104-2.531,4.054-3.69,6.582-2.582l12.409,5.417          c2.531,1.104,3.688,4.052,2.582,6.582C64.24,99.005,62.403,100.126,60.476,100.126z" fill="#3F456B"/></g></g></g></g><g><g><g><g><path d="M114.308,78.617c-0.665,0-1.342-0.134-1.991-0.416c-2.532-1.101-3.692-4.047-2.591-6.579          L114.91,59.7c1.101-2.531,4.045-3.692,6.579-2.591c2.532,1.101,3.692,4.047,2.591,6.579l-5.185,11.922          C118.077,77.493,116.238,78.617,114.308,78.617z" fill="#3F456B"/></g></g></g></g><g><g><g><g><path d="M93.272,75.587c-2.512,0-4.676-1.887-4.963-4.441l-1.493-13.282          c-0.309-2.744,1.666-5.219,4.41-5.527c2.742-0.32,5.219,1.665,5.527,4.41l1.493,13.282c0.309,2.744-1.666,5.219-4.41,5.527          C93.647,75.577,93.459,75.587,93.272,75.587z" fill="#3F456B"/></g></g></g></g><g><g><g><g><path d="M73.746,83.355c-1.533,0-3.047-0.703-4.027-2.031l-7.996-10.839          c-1.64-2.223-1.167-5.353,1.055-6.992c2.223-1.64,5.352-1.167,6.992,1.055l7.996,10.839c1.64,2.223,1.167,5.353-1.055,6.992          C75.817,83.038,74.777,83.355,73.746,83.355z" fill="#3F456B"/></g></g></g></g><g><g><g><g><path d="M43.4,122.504c-2.512,0-4.676-1.887-4.963-4.441c-0.309-2.744,1.666-5.219,4.41-5.527l12.384-1.393          c2.742-0.316,5.219,1.665,5.527,4.41c0.309,2.744-1.666,5.219-4.41,5.527l-12.384,1.393          C43.775,122.494,43.587,122.504,43.4,122.504z" fill="#3F456B"/></g></g></g></g><g><g><g><g><path d="M53.621,148.542c-1.534,0-3.047-0.703-4.027-2.032c-1.64-2.222-1.167-5.353,1.056-6.991          l10.415-7.683c2.221-1.64,5.352-1.167,6.991,1.056c1.64,2.222,1.167,5.353-1.056,6.991l-10.415,7.683          C55.692,148.225,54.652,148.542,53.621,148.542z" fill="#3F456B"/></g></g></g></g><g><g><g><g><path d="M75.427,165.772c-0.665,0-1.342-0.134-1.991-0.416c-2.532-1.101-3.692-4.047-2.591-6.579          l5.185-11.922c1.101-2.531,4.046-3.691,6.579-2.591c2.532,1.101,3.692,4.047,2.591,6.579l-5.185,11.922          C79.196,164.648,77.357,165.772,75.427,165.772z" fill="#3F456B"/></g></g></g></g></g></g></g></g></svg>