<?xml version="1.0" ?><svg viewBox="0 0 512 512" xmlns="http://www.w3.org/2000/svg"><defs><style>.cls-1{fill:#3f456b;}.cls-2{fill:#384169;}</style></defs><title/><g id="Lines"><path class="cls-1" d="M408,120a5,5,0,0,1-2.17-9.51c.6-.28,1.57-.72,2.64-1.19,1.47-.65,3.68-1.64,4.45-2.07C436.2,94.14,440.65,66.69,433,46.34c-10.22-27.26-45.35-29.89-67-23-22.05,7-41.91,23.09-59,47.92-.45.69-3.2,5.52-6.42,11.68a5,5,0,1,1-8.86-4.64c3.09-5.91,6.27-11.58,7-12.71,18.4-26.71,40-44.14,64.24-51.79a81,81,0,0,1,44.55-1.13c17.14,4.68,29.19,15.13,34.84,30.2,5.57,14.83,5.7,30,.39,43.86A56.78,56.78,0,0,1,417.82,116c-1.09.61-2.88,1.41-5.29,2.49-1,.42-1.83.81-2.36,1.07A5.08,5.08,0,0,1,408,120Z"/><path class="cls-1" d="M297.89,108.8A5,5,0,0,1,294.6,100c19.07-16.59,56-35.85,80.61-38.09C405.56,59.18,410.92,72.5,411.43,74l-9.49,3.17a1.53,1.53,0,0,0,.09.25c0-.07-3.83-7.54-25.91-5.54-22.34,2-57.43,20.43-74.95,35.68A5,5,0,0,1,297.89,108.8Z"/><path class="cls-1" d="M107,121a5,5,0,0,1-1.21-.15,52.24,52.24,0,0,1-11.9-4.9C72.56,104,57.28,75,69.33,42.83,75,27.76,87,17.31,104.17,12.63a80.87,80.87,0,0,1,44.55,1.13C173,21.41,194.57,38.84,213,65.55c.74,1.07,3.24,5.57,5.22,9.26a5,5,0,0,1-8.81,4.73c-2.6-4.84-4.36-7.89-4.66-8.34-17.08-24.81-36.94-40.94-59-47.9-21.67-6.84-56.79-4.22-67,23-7.63,20.35-3.17,47.8,20.11,60.89a42.07,42.07,0,0,0,9.41,3.92A5,5,0,0,1,107,121Z"/><path class="cls-1" d="M213.83,108.8a5,5,0,0,1-3.28-1.22C193,92.33,157.94,73.93,135.6,71.9c-22.1-2-25.88,5.47-25.92,5.54a1.23,1.23,0,0,0,.1-.25L100.29,74c.51-1.52,5.85-14.83,36.21-12.08C161.1,64.18,198,83.44,217.11,100a5,5,0,0,1-3.28,8.77Z"/><path class="cls-1" d="M295,202a5,5,0,0,1-5-5V80.35c-14.08-5.44-30.66-7.11-49.36-5A80,80,0,0,0,220,80.28V197a5,5,0,0,1-10,0V77a5,5,0,0,1,2.88-4.53,85.85,85.85,0,0,1,26.62-7c21.82-2.49,41.16-.15,57.5,7A5,5,0,0,1,300,77V197A5,5,0,0,1,295,202Z"/><path class="cls-1" d="M464,375.88a5,5,0,0,1-5-5V276H408.88a5,5,0,0,1,0-10H464a5,5,0,0,1,5,5v99.88A5,5,0,0,1,464,375.88Z"/><path class="cls-1" d="M464,500H48a5,5,0,0,1-5-5V271a5,5,0,0,1,5-5H319a5,5,0,0,1,0,10H53V490H459V412a5,5,0,0,1,10,0v83A5,5,0,0,1,464,500Z"/><path class="cls-1" d="M313.73,202H144.5a5,5,0,0,1,0-10H313.73a5,5,0,0,1,0,10Z"/><path class="cls-1" d="M480,202H404.17a5,5,0,0,1,0-10H475V122H37v70H48a5,5,0,0,1,0,10H32a5,5,0,0,1-5-5V117a5,5,0,0,1,5-5H480a5,5,0,0,1,5,5v80A5,5,0,0,1,480,202Z"/><path class="cls-1" d="M215,500a5,5,0,0,1-5-5V271a5,5,0,0,1,10,0V495A5,5,0,0,1,215,500Z"/><path class="cls-1" d="M295,500a5,5,0,0,1-5-5V271a5,5,0,0,1,10,0V495A5,5,0,0,1,295,500Z"/><path class="cls-1" d="M96.5,253a5,5,0,0,1-4.88-3.91c-.09-.39-9.36-39.63-44.21-47.44a5,5,0,0,1,.15-9.79c1.6-.31,39.24-8.06,44-47.46a5,5,0,0,1,4.85-4.4h.11a5,5,0,0,1,4.93,4.18,74.68,74.68,0,0,0,8.38,22.06c8.41,14.56,20.35,23.18,35.48,25.59a5,5,0,0,1,.23,9.84c-1.55.32-38.2,8.55-44.08,47.08A5,5,0,0,1,96.67,253ZM63.6,196.82c17.1,8.46,26.94,23.37,32.27,34.74a64.52,64.52,0,0,1,24.29-29.31,75.28,75.28,0,0,1,8.66-5C117.44,192.08,108,183.17,101,170.94A83.53,83.53,0,0,1,97,163a62.36,62.36,0,0,1-23.72,28.41A73.94,73.94,0,0,1,63.6,196.82Z"/><path class="cls-1" d="M334,308.13a18.16,18.16,0,0,1-18.06-16.66l-7.15-87.69a18,18,0,0,1,4.07-13l.12-.15,31.57-35.57a14.07,14.07,0,0,1,5.18-3.58c4.26-1.71,8.93-1.07,13.15,1.78a4.71,4.71,0,0,1,.45.33c8.29,7,37.58,29.36,37.87,29.58l.21.17a18,18,0,0,1,6.34,12.34l7.16,87.69a18.16,18.16,0,0,1-16.6,19.54l-62.82,5.13C335,308.11,334.49,308.13,334,308.13ZM320.53,197.22a8.05,8.05,0,0,0-1.78,5.74l7.16,87.7a8.12,8.12,0,0,0,8.76,7.44L397.5,293a8.14,8.14,0,0,0,7.44-8.76l-7.15-87.69a8.1,8.1,0,0,0-2.77-5.45c-2.31-1.76-29.34-22.38-37.93-29.63-2.44-1.54-4-.76-5,.22h0l0,0v0Z"/><path class="cls-1" d="M355,159a5,5,0,0,1-5-4.95h0c-.14-12.36-4-45.29-20.17-49.19C305.69,99,300,116.7,299.78,117.46a5,5,0,1,1-9.56-2.92c.08-.27,8.75-27.41,41.95-19.4,27,6.51,27.81,56.68,27.83,58.81a5,5,0,0,1-4.95,5.05Z"/><path class="cls-1" d="M357.77,189.84a5,5,0,0,1-4.94-4.33l-.14-1a5,5,0,0,1,9.91-1.35l.13,1a5,5,0,0,1-4.28,5.63A5.19,5.19,0,0,1,357.77,189.84Z"/><path class="cls-1" d="M448.5,448a5,5,0,0,1-4.88-3.91c-.09-.39-9.36-39.63-44.21-47.44a5,5,0,0,1,.15-9.79c1.6-.31,39.24-8.06,44-47.46a5,5,0,0,1,4.85-4.4h.11a5,5,0,0,1,4.93,4.18,74.68,74.68,0,0,0,8.38,22.06c8.41,14.56,20.35,23.18,35.48,25.59a5,5,0,0,1,.23,9.84c-1.55.32-38.2,8.55-44.08,47.08a5,5,0,0,1-4.77,4.25Zm-32.9-56.18c17.1,8.46,26.94,23.37,32.27,34.74a64.52,64.52,0,0,1,24.29-29.31,75.28,75.28,0,0,1,8.66-5C469.44,387.08,460,378.17,453,365.94a83.53,83.53,0,0,1-4-7.91,62.36,62.36,0,0,1-23.72,28.41A73.94,73.94,0,0,1,415.6,391.82Z"/><path class="cls-1" d="M186.65,275.17a5,5,0,0,1-4.82-3.66,76.34,76.34,0,0,1-2.77-20.44V229l-.06-1.84a1.09,1.09,0,0,1,0-.18,75.59,75.59,0,0,1,6.85-31.59,5,5,0,0,1,9.1,4.15A65.44,65.44,0,0,0,189,226.91l.07,1.84v22.32a66.22,66.22,0,0,0,2.41,17.76A5,5,0,0,1,188,275,5.2,5.2,0,0,1,186.65,275.17Z"/><path class="cls-1" d="M306,229c-37,0-51-22.46-54.62-29.75a5,5,0,1,1,9-4.41c3.13,6.37,16.19,26.9,52.92,23.85a5,5,0,1,1,.83,10C311.33,228.89,308.62,229,306,229Z"/><path class="cls-1" d="M198.16,228a91,91,0,0,1-14.86-1.1,5,5,0,0,1,1.75-9.84h0c.45.08,45.64,7.63,64.39-22.44a5,5,0,1,1,8.49,5.29c-9.33,15-25.28,24.36-46.13,27.19A101.86,101.86,0,0,1,198.16,228Z"/><path class="cls-1" d="M182,261a20.54,20.54,0,0,1-9.48-2.66c-4.34-2.48-9.52-7.68-9.52-18.34s5.12-15.85,9.42-18.33a20.42,20.42,0,0,1,9.43-2.67,5,5,0,0,1,.05,10c-2.1.05-8.9,1-8.9,11,0,4.78,1.47,7.94,4.48,9.66A10.87,10.87,0,0,0,182,251a5,5,0,0,1,0,10Z"/><path class="cls-1" d="M223,245h-1a5,5,0,0,1,0-10h1a5,5,0,0,1,0,10Z"/><path class="cls-1" d="M287,245h-1a5,5,0,0,1,0-10h1a5,5,0,0,1,0,10Z"/></g><g id="Outline"><path class="cls-2" d="M344.46,228.64a5,5,0,0,1-.4-10L376,216.05a5,5,0,1,1,.81,10l-31.89,2.6Z"/><path class="cls-2" d="M346.33,251.56a5,5,0,0,1-.4-10l31.89-2.6a5,5,0,1,1,.81,10l-31.89,2.61Z"/><path class="cls-2" d="M347.84,274.07a5,5,0,0,1-.4-10l31.9-2.6a5,5,0,1,1,.81,10l-31.89,2.61Z"/></g></svg>