<?xml version="1.0" ?><svg viewBox="0 0 512 512" xmlns="http://www.w3.org/2000/svg"><defs><style>.cls-1{fill:#3f456b;}</style></defs><title/><g id="Lines"><g data-name="&lt;编组&gt;" id="_编组_"><path class="cls-1" d="M384,82.67a5,5,0,0,1-5-5V52.76c0-10.71-10.32-19.43-23-19.43S333,42,333,52.65V71.9a5,5,0,0,1-10,0V52.65c0-16.17,14.8-29.32,33-29.32s33,13.2,33,29.43V77.67A5,5,0,0,1,384,82.67Z"/><path class="cls-1" d="M328,215.62a5,5,0,0,1-5-5V156.88a5,5,0,0,1,10,0v53.74A5,5,0,0,1,328,215.62Z"/><path class="cls-1" d="M440,215.5a5,5,0,0,1-5-5V181.78a5,5,0,1,1,10,0V210.5A5,5,0,0,1,440,215.5Z"/><path class="cls-1" d="M384,215.62a5,5,0,0,1-5-5V77.67c0-16.18,14.8-29.34,33-29.34s33,13.22,33,29.46v26.4a5,5,0,1,1-10,0V77.79c0-10.73-10.32-19.46-23-19.46S389,67,389,77.67v133A5,5,0,0,1,384,215.62Z"/><path d="M500.08,484H267l1.69-197L267,71.84c0-16.21,14.81-29.36,33-29.36s33,13.2,33,29.42v85H323v-85c0-10.71-10.31-19.42-23-19.42s-23,8.67-23,19.32L278.65,287,277,474h213V248.66c1.2-22.35,1.09-45.2,1-67.3q0-10.11-.06-20.23V104.3c0-10.72-10.31-19.45-23-19.45s-23,8.67-23,19.34v77.59H435V104.19c0-16.18,14.81-29.34,33-29.34s33,13.21,33,29.45v56.83q0,10.1.06,20.18c.11,22.2.23,45.15-1,67.75Z"/></g><g data-name="&lt;编组&gt;" id="_编组_2"><path class="cls-1" d="M156.14,487c-18.2,0-33-13.21-33-29.44V432.65a5,5,0,0,1,10,0v24.91c0,10.72,10.32,19.44,23,19.44s23-8.67,23-19.33V438.42a5,5,0,1,1,10,0v19.25C189.14,473.84,174.34,487,156.14,487Z"/><path class="cls-1" d="M184.14,358.45a5,5,0,0,1-5-5V299.7a5,5,0,0,1,10,0v53.75A5,5,0,0,1,184.14,358.45Z"/><path class="cls-1" d="M72.12,333.54a5,5,0,0,1-5-5V308a5,5,0,0,1,10,0v20.54A5,5,0,0,1,72.12,333.54Z"/><path class="cls-1" d="M100.13,462c-18.2,0-33-13.21-33-29.45v-26.4a5,5,0,0,1,10,0v26.4c0,10.73,10.33,19.45,23,19.45s23-8.67,23-19.34V329.83a5,5,0,0,1,10,0V432.65C133.14,448.83,118.33,462,100.13,462Z"/><path d="M212.12,467.85c-18.18,0-33-13.2-33-29.43v-85h10v85c0,10.71,10.31,19.43,23,19.43s23-8.67,23-19.32l-1.65-215.16,1.61-187h-213V261.67c-1.21,22.34-1.1,45.18-1,67.27q.06,10.13.07,20.25V406c0,10.73,10.31,19.46,23,19.46s23-8.68,23-19.34v-77.6h10v77.6c0,16.18-14.81,29.34-33,29.34s-33-13.22-33-29.46V349.19q0-10.1-.07-20.2c-.11-22.19-.22-45.13,1-67.73V26.32H245.18l-1.7,197.05,1.65,215.12C245.13,454.69,230.33,467.85,212.12,467.85Z"/></g><path class="cls-1" d="M141.79,230.65a5,5,0,0,1-4.2-2.27c-9.32-14.36-14.45-32.73-14.45-51.73,0-22.08,5.14-41.23,14.88-55.39,10.77-15.66,26.37-23.93,45.12-23.93,19.13,0,35,8.52,45.94,24.64,9.62,14.2,14.92,34.09,14.92,56a5,5,0,0,1-10,0c0-52.17-27.4-70.67-50.86-70.67-23.07,0-50,18.15-50,69.32,0,17.09,4.56,33.53,12.84,46.28a5,5,0,0,1-4.19,7.72Z"/><path class="cls-1" d="M148.48,340.29a41.09,41.09,0,0,1-11.66-1.8c-8.83-2.63-15.3-7.66-19.24-15-7.7-14.27-2.52-32-2.3-32.72l0-.14,45.81-137.16a5,5,0,0,1,9.48,3.17L124.84,293.75c-.52,1.8-7.78,28.42,14.84,35.15,24.59,7.33,33.35-18.06,33.71-19.14a5.42,5.42,0,0,1,.22-.56L234,180.78a5,5,0,0,1,9,4.25L182.78,313.21a49.25,49.25,0,0,1-9.79,16C167.9,334.69,159.89,340.29,148.48,340.29Z"/><path class="cls-1" d="M495,453H272a5,5,0,0,1,0-10H495a5,5,0,0,1,0,10Z"/><path class="cls-1" d="M240,69H17a5,5,0,0,1,0-10H240a5,5,0,0,1,0,10Z"/></g><g id="Outline"><path class="cls-1" d="M328,387a5,5,0,0,1-5-5v-1a5,5,0,0,1,10,0v1A5,5,0,0,1,328,387Zm0-21a5,5,0,0,1-5-5v-1a5,5,0,0,1,10,0v1A5,5,0,0,1,328,366Zm0-21a5,5,0,0,1-5-5v-1a5,5,0,0,1,10,0v1A5,5,0,0,1,328,345Zm0-21a5,5,0,0,1-5-5v-1a5,5,0,0,1,10,0v1A5,5,0,0,1,328,324Zm0-21a5,5,0,0,1-5-5v-1a5,5,0,0,1,10,0v1A5,5,0,0,1,328,303Zm0-21a5,5,0,0,1-5-5v-1a5,5,0,0,1,10,0v1A5,5,0,0,1,328,282Zm0-21a5,5,0,0,1-5-5v-1a5,5,0,0,1,10,0v1A5,5,0,0,1,328,261Z"/><path class="cls-1" d="M384,387a5,5,0,0,1-5-5v-1a5,5,0,0,1,10,0v1A5,5,0,0,1,384,387Zm0-21a5,5,0,0,1-5-5v-1a5,5,0,0,1,10,0v1A5,5,0,0,1,384,366Zm0-21a5,5,0,0,1-5-5v-1a5,5,0,0,1,10,0v1A5,5,0,0,1,384,345Zm0-21a5,5,0,0,1-5-5v-1a5,5,0,0,1,10,0v1A5,5,0,0,1,384,324Zm0-21a5,5,0,0,1-5-5v-1a5,5,0,0,1,10,0v1A5,5,0,0,1,384,303Zm0-21a5,5,0,0,1-5-5v-1a5,5,0,0,1,10,0v1A5,5,0,0,1,384,282Zm0-21a5,5,0,0,1-5-5v-1a5,5,0,0,1,10,0v1A5,5,0,0,1,384,261Z"/><path class="cls-1" d="M440,387a5,5,0,0,1-5-5v-1a5,5,0,0,1,10,0v1A5,5,0,0,1,440,387Zm0-21a5,5,0,0,1-5-5v-1a5,5,0,0,1,10,0v1A5,5,0,0,1,440,366Zm0-21a5,5,0,0,1-5-5v-1a5,5,0,0,1,10,0v1A5,5,0,0,1,440,345Zm0-21a5,5,0,0,1-5-5v-1a5,5,0,0,1,10,0v1A5,5,0,0,1,440,324Zm0-21a5,5,0,0,1-5-5v-1a5,5,0,0,1,10,0v1A5,5,0,0,1,440,303Zm0-21a5,5,0,0,1-5-5v-1a5,5,0,0,1,10,0v1A5,5,0,0,1,440,282Zm0-21a5,5,0,0,1-5-5v-1a5,5,0,0,1,10,0v1A5,5,0,0,1,440,261Z"/></g></svg>