<?xml version="1.0" ?><svg viewBox="0 0 512 512" xmlns="http://www.w3.org/2000/svg"><defs><style>.cls-1{fill:#3f456b;}</style></defs><title/><g id="Lines"><path class="cls-1" d="M466,326a5,5,0,0,1-5-5V240.89c0-.17.16-18.5-11.83-30.68C441.86,202.77,431.37,199,418,199a5,5,0,0,1-5-5.41c0-.17,1.31-19.07-10.41-31.73C395.32,154,384.35,150,370,150a5,5,0,0,1-3.88-1.85C365.89,147.88,340,118,257,118c-83.59,0-107.82,29.78-108.06,30.08A5,5,0,0,1,145,150c-14.35,0-25.32,4-32.61,11.86C100.67,174.52,102,193.42,102,193.6a5,5,0,0,1-5,5.4c-13.37,0-23.86,3.77-31.17,11.21C53.84,222.39,54,240.72,54,240.91V321a5,5,0,0,1-10,0V241c0-1.57,0-22.78,14.62-37.77,8.29-8.47,19.5-13.2,33.36-14.11.32-7.76,2.44-22.56,13-34,8.86-9.61,21.56-14.69,37.78-15.11,7.06-7.21,37-32,114.24-32,77.43,0,108.05,24.93,115.19,32,16.24.41,29,5.49,37.83,15.11,10.56,11.46,12.68,26.26,13,34,13.86.91,25.07,5.64,33.36,14.11,14.67,15,14.64,36.2,14.62,37.77v80A5,5,0,0,1,466,326Z"/><path class="cls-1" d="M497.87,501a5,5,0,0,1-5-5V368a4.53,4.53,0,0,1,0-.52c0-.16,1.64-18.09-9.49-30.38-7.28-8-18.56-12.1-33.54-12.1H65c-15,0-26.31,4.09-33.59,12.17C20.25,349.55,22,367.3,22,367.48a4.53,4.53,0,0,1,0,.52V496a5,5,0,0,1-10,0V368.23c-.23-2.77-1.41-22.9,12-37.76C33.23,320.21,47,315,65,315H449.87c18,0,31.77,5.21,41,15.47,13.4,14.87,12.22,35,12,37.76V496A5,5,0,0,1,497.87,501Z"/><path class="cls-1" d="M498,421.5H16.87a5,5,0,0,1,0-10H498a5,5,0,0,1,0,10Z"/><path class="cls-1" d="M498,501c-25.06,0-34.41-18.83-36.52-32H53.77c-.6,5.58-2.65,14.52-9.36,21.61C37.88,497.5,28.62,501,16.87,501a5,5,0,0,1,0-10c8.89,0,15.71-2.45,20.28-7.27C44.43,476,44,464.39,44,464.27A5,5,0,0,1,49,459H466a5,5,0,0,1,5,4.84A37.06,37.06,0,0,0,475,478c4.57,8.64,12.32,13,23,13a5,5,0,0,1,0,10Z"/><path class="cls-1" d="M434,325a5,5,0,0,1-5-5V248c0-.1,0-.2,0-.3s.36-9.54-6.7-16.17c-6.32-5.93-16.71-8.14-30.9-6.56a5,5,0,0,1-5.49-5.78c0-.21,3.39-22.24-8.55-36.23C370.6,175,360,171,345.75,171a5,5,0,0,1-3-1s-7.07-5.3-20.66-10.48C309.51,154.7,288.64,149,260.45,149c-29.27,0-51.75,5.75-65.44,10.57-14.86,5.23-22.89,10.53-23,10.59a5.07,5.07,0,0,1-2.78.84c-14.24,0-24.89,4-31.66,12-12,14.07-8.55,36-8.51,36.18A5,5,0,0,1,123.6,225c-14.19-1.57-24.58.63-30.9,6.56-7.06,6.63-6.7,16.11-6.69,16.2V320a5,5,0,0,1-10,0V248.11c-.06-1.77-.15-14.37,9.71-23.74,7.52-7.15,18.59-10.43,32.94-9.81-.34-8.91.69-25.52,11.32-38,8.51-10,21.23-15.23,37.82-15.52a130.33,130.33,0,0,1,23.46-10.72c14.51-5.15,38.28-11.29,69.19-11.29,30,0,52.25,6.16,65.66,11.33A108.06,108.06,0,0,1,347.36,161c16.52.31,29.18,5.53,37.67,15.51,10.63,12.51,11.67,29.12,11.32,38,14.37-.63,25.42,2.66,32.94,9.81,9.87,9.37,9.78,22,9.71,23.73V320A5,5,0,0,1,434,325Z"/><path class="cls-1" d="M210.47,325a5,5,0,0,1-3.54-8.54l18.86-18.85a15,15,0,0,0,0-21.22l-38.18-38.18a15,15,0,0,0-21.22,0l-38.18,38.18a15,15,0,0,0,0,21.22L146,315.37a5,5,0,0,1-7.07,7.07l-17.76-17.76a25,25,0,0,1,0-35.36l38.18-38.18a25,25,0,0,1,35.36,0l38.18,38.18a25,25,0,0,1,0,35.36L214,323.54A5,5,0,0,1,210.47,325Z"/><path class="cls-1" d="M370.47,325a5,5,0,0,1-3.54-8.54l18.86-18.85a15,15,0,0,0,0-21.22l-38.18-38.18a15,15,0,0,0-21.22,0l-38.18,38.18a15,15,0,0,0,0,21.22L306,315.37a5,5,0,0,1-7.07,7.07l-17.76-17.76a25,25,0,0,1,0-35.36l38.18-38.18a25,25,0,0,1,35.36,0l38.18,38.18a25,25,0,0,1,0,35.36L374,323.54A5,5,0,0,1,370.47,325Z"/><path class="cls-1" d="M449,207.79a5,5,0,0,1-5-5v-134A53.12,53.12,0,0,1,396.23,21H117.77A53.12,53.12,0,0,1,70,68.77v134a5,5,0,0,1-10,0V64a5,5,0,0,1,5-5,43,43,0,0,0,43-43,5,5,0,0,1,5-5H401a5,5,0,0,1,5,5,43,43,0,0,0,43,43,5,5,0,0,1,5,5V202.79A5,5,0,0,1,449,207.79Z"/></g><g id="Outline"><path class="cls-1" d="M416.17,293h-1a5,5,0,0,1,0-10h1a5,5,0,1,1,0,10Z"/><path class="cls-1" d="M365.25,220h-1a5,5,0,0,1,0-10h1a5,5,0,0,1,0,10Z"/><path class="cls-1" d="M401.25,255h-1a5,5,0,0,1,0-10h1a5,5,0,0,1,0,10Z"/><path class="cls-1" d="M350.33,190h-1a5,5,0,1,1,0-10h1a5,5,0,0,1,0,10Z"/><path class="cls-1" d="M334.33,220h-1a5,5,0,1,1,0-10h1a5,5,0,0,1,0,10Z"/><path class="cls-1" d="M319.42,190h-1a5,5,0,0,1,0-10h1a5,5,0,0,1,0,10Z"/><path class="cls-1" d="M303.42,220h-1a5,5,0,0,1,0-10h1a5,5,0,1,1,0,10Z"/><path class="cls-1" d="M288.5,190h-1a5,5,0,0,1,0-10h1a5,5,0,0,1,0,10Z"/><path class="cls-1" d="M272.5,220h-1a5,5,0,0,1,0-10h1a5,5,0,0,1,0,10Z"/><path class="cls-1" d="M257.58,190h-1a5,5,0,1,1,0-10h1a5,5,0,0,1,0,10Z"/><path class="cls-1" d="M241.58,220h-1a5,5,0,0,1,0-10h1a5,5,0,1,1,0,10Z"/><path class="cls-1" d="M271.58,255h-1a5,5,0,1,1,0-10h1a5,5,0,0,1,0,10Z"/><path class="cls-1" d="M255.58,293h-1a5,5,0,0,1,0-10h1a5,5,0,0,1,0,10Z"/><path class="cls-1" d="M226.67,190h-1a5,5,0,1,1,0-10h1a5,5,0,0,1,0,10Z"/><path class="cls-1" d="M210.67,220h-1a5,5,0,1,1,0-10h1a5,5,0,0,1,0,10Z"/><path class="cls-1" d="M240.67,255h-1a5,5,0,1,1,0-10h1a5,5,0,0,1,0,10Z"/><path class="cls-1" d="M195.75,190h-1a5,5,0,0,1,0-10h1a5,5,0,0,1,0,10Z"/><path class="cls-1" d="M179.75,220h-1a5,5,0,0,1,0-10h1a5,5,0,0,1,0,10Z"/><path class="cls-1" d="M164.83,190h-1a5,5,0,0,1,0-10h1a5,5,0,1,1,0,10Z"/><path class="cls-1" d="M148.83,220h-1a5,5,0,0,1,0-10h1a5,5,0,1,1,0,10Z"/><path class="cls-1" d="M114,255h-1a5,5,0,0,1,0-10h1a5,5,0,0,1,0,10Z"/><path class="cls-1" d="M98,293H97a5,5,0,0,1,0-10h1a5,5,0,0,1,0,10Z"/><path class="cls-1" d="M258,116a5,5,0,0,1-5-5V16a5,5,0,0,1,10,0v95A5,5,0,0,1,258,116Z"/><path class="cls-1" d="M225,116a5,5,0,0,1-5-5V16a5,5,0,0,1,10,0v95A5,5,0,0,1,225,116Z"/><path class="cls-1" d="M193,125a5,5,0,0,1-5-5V16a5,5,0,0,1,10,0V120A5,5,0,0,1,193,125Z"/><path class="cls-1" d="M161,137a5,5,0,0,1-5-5V16a5,5,0,0,1,10,0V132A5,5,0,0,1,161,137Z"/><path class="cls-1" d="M129,152a5,5,0,0,1-5-5V16a5,5,0,0,1,10,0V147A5,5,0,0,1,129,152Z"/><path class="cls-1" d="M98,186a5,5,0,0,1-5-5V53a5,5,0,0,1,10,0V181A5,5,0,0,1,98,186Z"/><path class="cls-1" d="M290,116a5,5,0,0,1-5-5V16a5,5,0,0,1,10,0v95A5,5,0,0,1,290,116Z"/><path class="cls-1" d="M322,125a5,5,0,0,1-5-5V16a5,5,0,0,1,10,0V120A5,5,0,0,1,322,125Z"/><path class="cls-1" d="M354,137a5,5,0,0,1-5-5V16a5,5,0,0,1,10,0V132A5,5,0,0,1,354,137Z"/><path class="cls-1" d="M386,152a5,5,0,0,1-5-5V16a5,5,0,0,1,10,0V147A5,5,0,0,1,386,152Z"/><path class="cls-1" d="M417,186a5,5,0,0,1-5-5V53a5,5,0,0,1,10,0V181A5,5,0,0,1,417,186Z"/><path class="cls-1" d="M497,445H17a5,5,0,0,1,0-10H497a5,5,0,0,1,0,10Z"/></g></svg>