<?xml version="1.0" ?><svg viewBox="0 0 512 512" xmlns="http://www.w3.org/2000/svg"><defs><style>.cls-1{fill:#3f456b;}</style></defs><title/><g id="Lines"><path class="cls-1" d="M64,477c-16,0-28.83-4.79-38.08-14.24C10.93,447.46,11,425.54,11,424V88c0-51.3,52.37-53,52.9-53a5,5,0,0,1,.21,10C62.22,45.05,21,46.62,21,88V424.1c0,.18-.17,19.24,12.12,31.72C40.42,463.24,50.81,467,64,467a5,5,0,0,1,0,10Z"/><path class="cls-1" d="M449,477a5,5,0,0,1-.11-10c1.89-.05,43.11-1.62,43.11-43V87.9c0-.18.17-19.24-12.12-31.72C472.58,48.76,462.19,45,449,45a5,5,0,0,1,0-10c16,0,28.83,4.79,38.08,14.24C502.07,64.54,502,86.46,502,88V424c0,51.3-52.37,53-52.9,53Z"/><path class="cls-1" d="M145,126a5,5,0,0,1-5-5V73a5,5,0,0,1,10,0v48A5,5,0,0,1,145,126Z"/><path class="cls-1" d="M80,206a5,5,0,0,1-5-5V153a5,5,0,0,1,10,0v48A5,5,0,0,1,80,206Z"/><path class="cls-1" d="M209,206a5,5,0,0,1-5-5V153a5,5,0,0,1,10,0v48A5,5,0,0,1,209,206Z"/><path class="cls-1" d="M209,287a5,5,0,0,1-5-5V234a5,5,0,0,1,10,0v48A5,5,0,0,1,209,287Z"/><path class="cls-1" d="M144,445a5,5,0,0,1-5-5V392a5,5,0,0,1,10,0v48A5,5,0,0,1,144,445Z"/><path class="cls-1" d="M81,128c-16.14,0-22-13.16-22-22V89c0-8.84,5.86-22,22-22s22,13.16,22,22v17C103,114.84,97.14,128,81,128Zm0-51c-5,0-8.33,1.8-10.28,5.49A16.25,16.25,0,0,0,69,89v17a16.27,16.27,0,0,0,1.72,6.51C72.67,116.2,76,118,81,118s8.33-1.8,10.28-5.49A16.25,16.25,0,0,0,93,106V89a16.27,16.27,0,0,0-1.72-6.51C89.33,78.8,86,77,81,77Zm17,29h0Z"/><path class="cls-1" d="M209,128c-16.14,0-22-13.16-22-22V89c0-8.84,5.86-22,22-22s22,13.16,22,22v17C231,114.84,225.14,128,209,128Zm0-51c-5,0-8.33,1.8-10.28,5.49A16.25,16.25,0,0,0,197,89v17a16.27,16.27,0,0,0,1.72,6.51C200.67,116.2,204,118,209,118s8.33-1.8,10.28-5.49A16.25,16.25,0,0,0,221,106V89a16.27,16.27,0,0,0-1.72-6.51C217.33,78.8,214,77,209,77Zm17,29h0Z"/><path class="cls-1" d="M432,206a5,5,0,0,1-5-5V153a5,5,0,0,1,10,0v48A5,5,0,0,1,432,206Z"/><path class="cls-1" d="M432,445a5,5,0,0,1-5-5V392a5,5,0,0,1,10,0v48A5,5,0,0,1,432,445Z"/><path class="cls-1" d="M432,128c-16.14,0-22-13.16-22-22V89c0-8.84,5.86-22,22-22s22,13.16,22,22v17C454,114.84,448.14,128,432,128Zm0-51c-5,0-8.33,1.8-10.28,5.49A16.25,16.25,0,0,0,420,89v17a16.27,16.27,0,0,0,1.72,6.51C423.67,116.2,427,118,432,118s8.33-1.8,10.28-5.49A16.25,16.25,0,0,0,444,106V89a16.27,16.27,0,0,0-1.72-6.51C440.33,78.8,437,77,432,77Zm17,29h0Z"/><path class="cls-1" d="M432,286c-16.14,0-22-13.16-22-22V247c0-8.84,5.86-22,22-22s22,13.16,22,22v17C454,272.84,448.14,286,432,286Zm0-51c-5,0-8.33,1.8-10.28,5.49A16.25,16.25,0,0,0,420,247v17a16.27,16.27,0,0,0,1.72,6.51C423.67,274.2,427,276,432,276s8.33-1.8,10.28-5.49A16.25,16.25,0,0,0,444,264V247a16.27,16.27,0,0,0-1.72-6.51C440.33,236.8,437,235,432,235Zm17,29h0Z"/><path class="cls-1" d="M144,206c-16.14,0-22-13.16-22-22V167c0-8.84,5.86-22,22-22s22,13.16,22,22v17C166,192.84,160.14,206,144,206Zm0-51c-5,0-8.33,1.8-10.28,5.49A16.25,16.25,0,0,0,132,167v17a16.27,16.27,0,0,0,1.72,6.51C135.67,194.2,139,196,144,196s8.33-1.8,10.28-5.49A16.25,16.25,0,0,0,156,184V167a16.27,16.27,0,0,0-1.72-6.51C152.33,156.8,149,155,144,155Zm17,29h0Z"/><path class="cls-1" d="M144,287c-16.14,0-22-13.16-22-22V248c0-8.84,5.86-22,22-22s22,13.16,22,22v17C166,273.84,160.14,287,144,287Zm0-51c-5,0-8.33,1.8-10.28,5.49A16.25,16.25,0,0,0,132,248v17a16.27,16.27,0,0,0,1.72,6.51C135.67,275.2,139,277,144,277s8.33-1.8,10.28-5.49A16.25,16.25,0,0,0,156,265V248a16.27,16.27,0,0,0-1.72-6.51C152.33,237.8,149,236,144,236Zm17,29h0Z"/><path class="cls-1" d="M81,287c-16.14,0-22-13.16-22-22V248c0-8.84,5.86-22,22-22s22,13.16,22,22v17C103,273.84,97.14,287,81,287Zm0-51c-5,0-8.33,1.8-10.28,5.49A16.25,16.25,0,0,0,69,248v17a16.27,16.27,0,0,0,1.72,6.51C72.67,275.2,76,277,81,277s8.33-1.8,10.28-5.49A16.25,16.25,0,0,0,93,265V248a16.27,16.27,0,0,0-1.72-6.51C89.33,237.8,86,236,81,236Zm17,29h0Z"/><path class="cls-1" d="M209,446c-16.14,0-22-13.16-22-22V407c0-8.84,5.86-22,22-22s22,13.16,22,22v17C231,432.84,225.14,446,209,446Zm0-51c-5,0-8.33,1.8-10.28,5.49A16.25,16.25,0,0,0,197,407v17a16.27,16.27,0,0,0,1.72,6.51C200.67,434.2,204,436,209,436s8.33-1.8,10.28-5.49A16.25,16.25,0,0,0,221,424V407a16.27,16.27,0,0,0-1.72-6.51C217.33,396.8,214,395,209,395Zm17,29h0Z"/><path class="cls-1" d="M80,446c-16.14,0-22-13.16-22-22V407c0-8.84,5.86-22,22-22s22,13.16,22,22v17C102,432.84,96.14,446,80,446Zm0-51c-5,0-8.33,1.8-10.28,5.49A16.25,16.25,0,0,0,68,407v17a16.27,16.27,0,0,0,1.72,6.51C71.67,434.2,75,436,80,436s8.33-1.8,10.28-5.49A16.25,16.25,0,0,0,92,424V407a16.27,16.27,0,0,0-1.72-6.51C88.33,396.8,85,395,80,395Zm17,29h0Z"/></g><g id="Outline"><path class="cls-1" d="M363,101h-1a5,5,0,0,1,0-10h1a5,5,0,0,1,0,10Zm-21,0h-1a5,5,0,0,1,0-10h1a5,5,0,0,1,0,10Zm-21,0h-1a5,5,0,0,1,0-10h1a5,5,0,0,1,0,10Zm-21,0h-1a5,5,0,0,1,0-10h1a5,5,0,0,1,0,10Zm-21,0h-1a5,5,0,0,1,0-10h1a5,5,0,0,1,0,10Zm-21,0h-1a5,5,0,0,1,0-10h1a5,5,0,0,1,0,10Z"/><path class="cls-1" d="M363,181h-1a5,5,0,0,1,0-10h1a5,5,0,0,1,0,10Zm-21,0h-1a5,5,0,0,1,0-10h1a5,5,0,0,1,0,10Zm-21,0h-1a5,5,0,0,1,0-10h1a5,5,0,0,1,0,10Zm-21,0h-1a5,5,0,0,1,0-10h1a5,5,0,0,1,0,10Zm-21,0h-1a5,5,0,0,1,0-10h1a5,5,0,0,1,0,10Zm-21,0h-1a5,5,0,0,1,0-10h1a5,5,0,0,1,0,10Z"/><path class="cls-1" d="M363,261h-1a5,5,0,0,1,0-10h1a5,5,0,0,1,0,10Zm-21,0h-1a5,5,0,0,1,0-10h1a5,5,0,0,1,0,10Zm-21,0h-1a5,5,0,0,1,0-10h1a5,5,0,0,1,0,10Zm-21,0h-1a5,5,0,0,1,0-10h1a5,5,0,0,1,0,10Zm-21,0h-1a5,5,0,0,1,0-10h1a5,5,0,0,1,0,10Zm-21,0h-1a5,5,0,0,1,0-10h1a5,5,0,0,1,0,10Z"/><path class="cls-1" d="M363,421h-1a5,5,0,0,1,0-10h1a5,5,0,0,1,0,10Zm-21,0h-1a5,5,0,0,1,0-10h1a5,5,0,0,1,0,10Zm-21,0h-1a5,5,0,0,1,0-10h1a5,5,0,0,1,0,10Zm-21,0h-1a5,5,0,0,1,0-10h1a5,5,0,0,1,0,10Zm-21,0h-1a5,5,0,0,1,0-10h1a5,5,0,0,1,0,10Zm-21,0h-1a5,5,0,0,1,0-10h1a5,5,0,0,1,0,10Z"/><path class="cls-1" d="M432,342a5,5,0,0,1-5-5v-1a5,5,0,0,1,10,0v1A5,5,0,0,1,432,342Zm0-21a5,5,0,0,1-5-5v-1a5,5,0,0,1,10,0v1A5,5,0,0,1,432,321Z"/><path class="cls-1" d="M209,342a5,5,0,0,1-5-5v-1a5,5,0,0,1,10,0v1A5,5,0,0,1,209,342Zm0-21a5,5,0,0,1-5-5v-1a5,5,0,0,1,10,0v1A5,5,0,0,1,209,321Z"/><path class="cls-1" d="M144,342a5,5,0,0,1-5-5v-1a5,5,0,0,1,10,0v1A5,5,0,0,1,144,342Zm0-21a5,5,0,0,1-5-5v-1a5,5,0,0,1,10,0v1A5,5,0,0,1,144,321Z"/><path class="cls-1" d="M81,342a5,5,0,0,1-5-5v-1a5,5,0,0,1,10,0v1A5,5,0,0,1,81,342Zm0-21a5,5,0,0,1-5-5v-1a5,5,0,0,1,10,0v1A5,5,0,0,1,81,321Z"/></g></svg>