<?xml version="1.0" ?><svg id="Lines" viewBox="0 0 512 512" xmlns="http://www.w3.org/2000/svg"><defs><style>.cls-1{fill:#3f456b;}</style></defs><title/><path class="cls-1" d="M202.83,201.17a5,5,0,0,1-5-5v-8.52c0-28.51-29.2-46.9-29.49-47.08a5,5,0,0,1,5.26-8.51c1.4.87,34.23,21.57,34.23,55.59v8.52A5,5,0,0,1,202.83,201.17Z"/><path class="cls-1" d="M32,202.68a5,5,0,0,1-5-5v-10c0-34,32.84-54.72,34.24-55.59a5,5,0,1,1,5.26,8.5c-.4.26-29.5,18.76-29.5,47.09v10A5,5,0,0,1,32,202.68Z"/><path class="cls-1" d="M174.51,483a5,5,0,0,1-5-5V319.5a5,5,0,0,1,10,0V478A5,5,0,0,1,174.51,483Z"/><path class="cls-1" d="M61.21,483a5,5,0,0,1-5-5V319.5a5,5,0,0,1,10,0V478A5,5,0,0,1,61.21,483Z"/><path class="cls-1" d="M117,489.14a5,5,0,0,1-5-5V339.37a5,5,0,0,1,10,0V484.14A5,5,0,0,1,117,489.14Z"/><path class="cls-1" d="M117,170.62a67.92,67.92,0,0,1-67.8-67.87V83.23l0-1.62c0-.06,0-.12,0-.18a67.82,67.82,0,1,1,135.63,0l0,1.87,0,19.43A67.93,67.93,0,0,1,117,170.62ZM59.12,81.35,59.18,83v19.79a57.82,57.82,0,1,0,115.63,0l-.05-21.27a57.82,57.82,0,1,0-115.64-.13Z"/><path class="cls-1" d="M180.7,112.1a5,5,0,0,1,0-10c1.91,0,8.28-.82,8.28-9.16,0-8.72-6.78-9.16-8.13-9.16a5,5,0,0,1,0-10c7.29,0,18.13,5.1,18.13,19.16S188.05,112.1,180.7,112.1Z"/><path class="cls-1" d="M52.36,112.1c-7,0-17.39-5.1-17.39-19.16S45.29,73.78,52.23,73.78a5,5,0,0,1,.05,10c-2.2.06-7.31,1.08-7.31,9.16s5.21,9.11,7.45,9.17a5,5,0,0,1,5,5A5,5,0,0,1,52.36,112.1Z"/><path class="cls-1" d="M88.65,97.94h-.88a5,5,0,1,1,0-10h.88a5,5,0,0,1,0,10Z"/><path class="cls-1" d="M145.3,97.94h-.89a5,5,0,0,1,0-10h.89a5,5,0,0,1,0,10Z"/><path class="cls-1" d="M117,500.11H57.46a5,5,0,0,1-5-4.53c0-.58-1.23-14.36,8-24.52,6.19-6.8,15.33-10.25,27.16-10.25s20.91,3.46,26.93,10.28c9,10.22,7.41,24.06,7.34,24.64A5,5,0,0,1,117,500.11Zm-54.34-10H112c-.31-3.53-1.43-8.53-4.93-12.46-4-4.54-10.56-6.84-19.38-6.84S72.18,473.14,68,477.74A22.37,22.37,0,0,0,62.63,490.11Z"/><path class="cls-1" d="M176.49,500.11H117a5,5,0,0,1-5-4.53c-.06-.58-1.23-14.36,8-24.52,6.19-6.8,15.33-10.25,27.17-10.25s20.9,3.46,26.92,10.28c9,10.22,7.41,24.06,7.34,24.64A5,5,0,0,1,176.49,500.11Zm-54.35-10h49.35c-.31-3.53-1.42-8.53-4.93-12.46-4-4.54-10.56-6.84-19.37-6.84s-15.5,2.33-19.72,6.93A22.44,22.44,0,0,0,122.14,490.11Z"/><path class="cls-1" d="M95.09,202.12a5.28,5.28,0,0,1-1.41-.2,47.62,47.62,0,0,1-19-12.38c-8.05-8.48-16.85-24-13.05-50A5,5,0,0,1,71.5,141c-2.59,17.67.91,31.7,10.4,41.7A40.06,40.06,0,0,0,93.27,191l19.6-28.21a5,5,0,1,1,8.22,5.7L99.2,200A5,5,0,0,1,95.09,202.12Z"/><path class="cls-1" d="M138.85,202.12a5,5,0,0,1-4.1-2.15l-21.89-31.5a5,5,0,0,1,8.22-5.7L140.69,191c7.86-3.74,26.69-16.37,21.76-50a5,5,0,0,1,9.9-1.45c3.8,26-5,41.55-13,50a47.62,47.62,0,0,1-19,12.38A5.29,5.29,0,0,1,138.85,202.12Z"/><path class="cls-1" d="M68,82.9a94.67,94.67,0,0,1-14.51-1A5,5,0,1,1,55.12,72h0c.48.08,48.84,7.69,77.33-26.53a5,5,0,0,1,8.84,3.16,21.52,21.52,0,0,0,6.88,14c6.56,6.15,17,9,31.17,8.48a5,5,0,0,1,.37,10c-17,.65-30-3.19-38.59-11.38a32,32,0,0,1-7.48-10.9C112.11,79.34,84.55,82.9,68,82.9Z"/><path class="cls-1" d="M182.81,323.82h-128a5,5,0,0,1,0-10h128a5,5,0,0,1,0,10Z"/><path class="cls-1" d="M211.5,307.75a5,5,0,0,1-5-5V202.68H28.32v94.8a5,5,0,0,1-10,0v-99.8a5,5,0,0,1,5-5H211.5a5,5,0,0,1,5,5V302.75A5,5,0,0,1,211.5,307.75Z"/><path class="cls-1" d="M136,266.33H94.43a5,5,0,0,1-5-5V198.12a5,5,0,0,1,10,0v58.21H131V199.45a5,5,0,0,1,10,0v61.88A5,5,0,0,1,136,266.33Z"/><path class="cls-1" d="M35.83,336.55a24.34,24.34,0,1,1,24.34-24.33A24.36,24.36,0,0,1,35.83,336.55Zm0-38.67a14.34,14.34,0,1,0,14.34,14.34A14.35,14.35,0,0,0,35.83,297.88Z"/><path class="cls-1" d="M202.14,344a24.34,24.34,0,1,1,24.34-24.33A24.36,24.36,0,0,1,202.14,344Zm0-38.67a14.34,14.34,0,1,0,14.34,14.34A14.35,14.35,0,0,0,202.14,305.33Z"/><path class="cls-1" d="M496.5,500.5H236.66a5,5,0,0,1-5-5V15.5a5,5,0,0,1,5-5H496.5a5,5,0,0,1,5,5v480A5,5,0,0,1,496.5,500.5Zm-254.84-10H491.5V20.5H241.66Z"/><path class="cls-1" d="M465.5,500.5a5,5,0,0,1-5-5V53.5H272.66v442a5,5,0,0,1-10,0V48.5a5,5,0,0,1,5-5H465.5a5,5,0,0,1,5,5v447A5,5,0,0,1,465.5,500.5Z"/><path class="cls-1" d="M437,288.19a5,5,0,0,1-5-5V251.58a5,5,0,0,1,10,0v31.61A5,5,0,0,1,437,288.19Z"/><path class="cls-1" d="M418.33,165H316.82a5,5,0,0,1-5-5V119.88a5,5,0,0,1,5-5H418.33a5,5,0,0,1,5,5V160A5,5,0,0,1,418.33,165Zm-96.51-10h91.51V124.88H321.82Z"/></svg>