<?xml version="1.0" ?><svg viewBox="0 0 512 512" xmlns="http://www.w3.org/2000/svg"><defs><style>.cls-1{fill:#3f456b;}</style></defs><title/><g id="Lines"><path class="cls-1" d="M346,469.55h0l-19.43-.06c-8.13,0-12.34-7.71-12.83-14.92L311,434.1a5,5,0,0,1,9.91-1.34l2.79,20.65c0,.12,0,.24,0,.37.06.92.83,5.71,2.89,5.71l19.43.06h0c2.17,0,3.12-5.06,3.19-5.82a2.2,2.2,0,0,1,0-.37l3.42-20.55a5,5,0,0,1,9.86,1.64l-3.39,20.38C358.45,462,354.06,469.55,346,469.55Z"/><path class="cls-1" d="M303,330.15a4.92,4.92,0,0,1-2.52-.7l-17.91-10.53c-4.71-2.26-12.28-9.16-8.81-20l8.33-26.23c3.49-11,13.66-12,18.82-11l20.62,2.26a5,5,0,0,1-1.09,9.94l-20.85-2.28-.52-.08c-1.31-.26-5.88-.74-7.45,4.2l-8.33,26.23c-1.72,5.4,3.12,7.78,3.68,8,.16.08.32.16.47.25l18.1,10.64a5,5,0,0,1-2.54,9.32Z"/><path class="cls-1" d="M341.22,440a141.81,141.81,0,0,1-16.16-1c-11.95-1.38-21-7.13-26.91-17.07-9.74-16.4-10.5-44.17-2.28-82.55,7.47-34.89,19.71-66.44,23.28-75.28,12.45-30.83-19.51-46-21.59-46.89l-21.91-9c-59.15-23.41-106.74-27.71-141.39-12.77-7.48,3.23-13.67,3.43-18.4.61-6-3.57-6.77-10.34-6.84-11.1,0-.15,0-.3,0-.44V62.72c0-6.29,2.87-9.45,5.28-11,7-4.48,17.55-.09,19.77.92,34.85,14.92,82.54,10.6,141.75-12.83,4.5-1.78,9.1-3.7,13.54-5.55,16.05-6.69,32.65-13.6,51.12-17.07,2-.43,28.41-6.07,52.32-5.06a5,5,0,0,1-.21,10h-.21c-23-.95-49.57,4.8-49.83,4.86l-.16,0c-17.46,3.26-33.59,10-49.19,16.48-4.48,1.87-9.11,3.8-13.7,5.62C217.7,73.56,167.42,77.83,130.05,61.81l-.12-.06c-3.52-1.6-8.66-2.63-10.25-1.61-.63.41-.68,2.08-.68,2.58V184.21a5,5,0,0,0,2,3.31c1.75,1,5.13.56,9.28-1.23C168,170,216.76,174.18,279.38,199l22.05,9,.13.06a62.82,62.82,0,0,1,19.31,14.35c8.14,9.11,16.06,24.38,7.55,45.45-7.2,17.83-17,46.54-22.78,73.63-7.56,35.34-7.18,61.39,1.11,75.36C311,424,317.4,428.05,326.2,429.07c22,2.54,36.34.09,43.93-7.47,5.9-5.89,9.23-15.17,6.27-41.33-.28-2.5-.65-5.38-1-8.59-2.37-18.84-6.33-50.38-3.3-79.41,3.78-36.22,17.47-59.49,40.69-69.17a5,5,0,1,1,3.85,9.23C397,240.49,385.37,261,382,293.31c-2.91,27.88,1,58.71,3.27,77.12.41,3.26.78,6.18,1.06,8.71,2,17.57,3.09,37.34-9.14,49.54C369.59,436.26,357.74,440,341.22,440Z"/><path class="cls-1" d="M390.5,235.47a5,5,0,0,1,0-10,101.61,101.61,0,0,0,0-203.21,5,5,0,1,1,0-10,111.61,111.61,0,0,1,0,223.21Z"/><path class="cls-1" d="M101.31,198.62a30.31,30.31,0,0,1-4-.28C73,195,38.92,186.07,14.54,162.67A5,5,0,0,1,13,159.06V87.63A5,5,0,0,1,14.54,84C38.92,60.62,73,51.71,97.3,48.35c6.5-.9,11.83.19,15.83,3.23A15.41,15.41,0,0,1,119,61.17L109,62.49l0,.11c-.24-1.32-1.71-5.54-10.39-4.34C76.35,61.34,45.35,69.32,23,89.79v67.1C35.76,168.56,59,183,98.67,188.43c8.8,1.21,10.47-3.76,10.77-5.32a5,5,0,0,1,5.7-4.13,5,5,0,0,1,4.17,5.75,17,17,0,0,1-3.88,8C113,195.54,108.61,198.62,101.31,198.62Z"/><path class="cls-1" d="M346.51,232a4.88,4.88,0,0,1-.85-.07c-23.83-4.06-45.48-13.48-46.39-13.88a5,5,0,0,1,4-9.16c.21.1,21.47,9.34,44,13.18a5,5,0,0,1-.83,9.93Z"/><path class="cls-1" d="M410,235a5,5,0,0,1-5-5V160a5,5,0,0,1,10,0v70A5,5,0,0,1,410,235Z"/><path class="cls-1" d="M410,88a5,5,0,0,1-5-5V19a5,5,0,0,1,10,0V83A5,5,0,0,1,410,88Z"/><path class="cls-1" d="M409.37,163.87a41.28,41.28,0,1,1,29.21-12.08h0A41.19,41.19,0,0,1,409.37,163.87Zm0-72.6a31.31,31.31,0,1,0,22.14,53.45h0a31.31,31.31,0,0,0-22.14-53.45Z"/><path class="cls-1" d="M373.68,501.74c-14.38,0-25.4-3.82-32.8-11.39-10.75-11-9.45-25.67-9.39-26.29a5,5,0,0,1,10,.95c0,.2-.82,10.85,6.67,18.43,6.36,6.44,16.95,9.16,31.51,8.07,9.84-.73,17.45-4.76,23.29-12.3,14.9-19.29,17.32-61.54,6.83-119C403.59,326.56,411,297.31,430,280c17-15.54,41.48-19.9,68.89-12.28a5,5,0,0,1-2.68,9.64c-24-6.67-45.08-3.11-59.47,10-16.39,15-22.63,40.89-17.11,71.09,7.8,42.64,12.6,99.26-8.75,126.89-7.56,9.79-17.81,15.22-30.46,16.17Q376.92,501.75,373.68,501.74Z"/></g><g id="Outline"><path class="cls-1" d="M368,123a5,5,0,0,1,5-5h0a5,5,0,0,1,5,5h0a5,5,0,0,1-5,5h0A5,5,0,0,1,368,123Zm-20,0a5,5,0,0,1,5-5h0a5,5,0,0,1,5,5h0a5,5,0,0,1-5,5h0A5,5,0,0,1,348,123Zm-20,0a5,5,0,0,1,5-5h0a5,5,0,0,1,5,5h0a5,5,0,0,1-5,5h0A5,5,0,0,1,328,123Zm-20,0a5,5,0,0,1,5-5h0a5,5,0,0,1,5,5h0a5,5,0,0,1-5,5h0A5,5,0,0,1,308,123Zm-20,0a5,5,0,0,1,5-5h0a5,5,0,0,1,5,5h0a5,5,0,0,1-5,5h0A5,5,0,0,1,288,123Zm-20,0a5,5,0,0,1,5-5h0a5,5,0,0,1,5,5h0a5,5,0,0,1-5,5h0A5,5,0,0,1,268,123Zm-20,0a5,5,0,0,1,5-5h0a5,5,0,0,1,5,5h0a5,5,0,0,1-5,5h0A5,5,0,0,1,248,123Zm-20,0a5,5,0,0,1,5-5h0a5,5,0,0,1,5,5h0a5,5,0,0,1-5,5h0A5,5,0,0,1,228,123Zm-20,0a5,5,0,0,1,5-5h0a5,5,0,0,1,5,5h0a5,5,0,0,1-5,5h0A5,5,0,0,1,208,123Zm-20,0a5,5,0,0,1,5-5h0a5,5,0,0,1,5,5h0a5,5,0,0,1-5,5h0A5,5,0,0,1,188,123Zm-20,0a5,5,0,0,1,5-5h0a5,5,0,0,1,5,5h0a5,5,0,0,1-5,5h0A5,5,0,0,1,168,123Zm-20,0a5,5,0,0,1,5-5h0a5,5,0,0,1,5,5h0a5,5,0,0,1-5,5h0A5,5,0,0,1,148,123Zm-20,0a5,5,0,0,1,5-5h0a5,5,0,0,1,5,5h0a5,5,0,0,1-5,5h0A5,5,0,0,1,128,123Z"/></g></svg>