<?xml version="1.0" ?><svg enable-background="new 0 0 512 512" version="1.1" viewBox="0 0 512 512" xml:space="preserve" xmlns="http://www.w3.org/2000/svg" xmlns:xlink="http://www.w3.org/1999/xlink"><g id="Colors"><g><g><path d="M69.999,115.001c-2.116,0-4.082-1.354-4.762-3.478l-7.131-22.289     c-3.192-10.061,2.389-20.833,12.438-24.023l56.045-17.64c10.036-3.184,20.81,2.395,24.001,12.444l15.181,48.49     c0.825,2.635-0.643,5.44-3.277,6.265c-2.638,0.828-5.441-0.643-6.266-3.278l-15.175-48.471c-1.516-4.774-6.654-7.438-11.45-5.916     l-56.045,17.64c-4.782,1.518-7.445,6.657-5.924,11.452l7.128,22.277c0.841,2.63-0.609,5.444-3.239,6.286     C71.018,114.924,70.504,115.001,69.999,115.001z" fill="#3F456B"/></g></g><g><g><g><path d="M385.97,65.383c-1.245,0-2.492-0.462-3.462-1.393l-18.754-18.007c-1.992-1.912-2.057-5.078-0.144-7.069      c1.911-1.991,5.075-2.058,7.069-0.144l18.754,18.006c1.992,1.912,2.057,5.078,0.144,7.069      C388.596,64.869,387.284,65.383,385.97,65.383z" fill="#3F456B"/></g><g><path d="M471.809,147.804c-1.245,0-2.492-0.462-3.462-1.394l-18.033-17.315      c-1.992-1.913-2.057-5.078-0.144-7.069c1.911-1.991,5.075-2.058,7.069-0.144l18.033,17.315c1.992,1.913,2.057,5.078,0.144,7.069      C474.435,147.289,473.123,147.804,471.809,147.804z" fill="#3F456B"/></g></g><g><g><path d="M490.713,114.82c-0.396,0-0.798-0.047-1.2-0.146l-24.836-6.118c-2.681-0.661-4.319-3.37-3.658-6.051      c0.661-2.682,3.371-4.316,6.051-3.659l24.836,6.118c2.681,0.661,4.319,3.37,3.658,6.051      C495.002,113.294,492.96,114.82,490.713,114.82z" fill="#3F456B"/></g></g><g><g><path d="M465.375,84.313c-2.169,0-4.166-1.422-4.801-3.609c-0.769-2.652,0.759-5.426,3.411-6.194l24.568-7.121      c2.659-0.769,5.425,0.759,6.194,3.41c0.769,2.652-0.759,5.426-3.411,6.194l-24.568,7.121      C466.304,84.249,465.835,84.313,465.375,84.313z" fill="#3F456B"/></g></g><g><g><path d="M453.117,63.314c-1.245,0-2.492-0.462-3.462-1.394c-1.992-1.913-2.057-5.078-0.144-7.069l17.316-18.034      c1.911-1.992,5.076-2.057,7.069-0.144c1.992,1.913,2.057,5.078,0.144,7.069l-17.316,18.034      C455.743,62.799,454.431,63.314,453.117,63.314z" fill="#3F456B"/></g></g><g><g><path d="M431.384,51.669c-0.396,0-0.798-0.047-1.2-0.146c-2.681-0.661-4.319-3.37-3.658-6.051l6.118-24.837      c0.661-2.681,3.37-4.318,6.051-3.659c2.681,0.661,4.319,3.37,3.658,6.051l-6.118,24.836      C435.673,50.144,433.631,51.669,431.384,51.669z" fill="#3F456B"/></g></g><g><g><path d="M406.988,52.166c-2.169,0-4.166-1.422-4.801-3.609l-7.122-24.57c-0.769-2.652,0.759-5.426,3.411-6.194      c2.653-0.769,5.425,0.759,6.194,3.41l7.122,24.57c0.769,2.652-0.759,5.426-3.411,6.194      C407.918,52.102,407.448,52.166,406.988,52.166z" fill="#3F456B"/></g></g></g><g><g id="XMLID_38_"><g><path d="M281.066,407.693c-0.003,0-0.005,0-0.008,0c-17.27-0.004-31.316-11.786-31.314-26.265      c0-2.761,2.239-4.999,5-4.999h0.001c2.762,0,4.999,2.239,4.999,5.001c-0.002,8.964,9.562,16.26,21.316,16.263      c0.002,0,0.005,0,0.006,0c11.753,0,21.315-7.29,21.317-16.254c0.002-10.966-6.814-17.239-6.883-17.3      c-0.213-0.186-0.409-0.39-0.588-0.609c-7.156-8.808-29.565-35.324-29.791-35.591c-0.7-0.828-1.111-1.86-1.174-2.942      l-0.013-0.222c-0.076-1.33,0.383-2.636,1.272-3.627c0.891-0.991,2.141-1.586,3.471-1.652c7.937-0.396,13.27-4.716,13.271-10.751      c0-0.143,0.006-0.285,0.019-0.427c0.012-0.196,0.336-6.041-4.203-11.632c-7.165-8.817-33.819-40.734-34.088-41.055      c-0.548-0.656-0.919-1.442-1.076-2.283l-0.076-0.406c-0.245-1.303,0.038-2.65,0.787-3.745s1.901-1.847,3.205-2.092      c5.844-1.096,9.771-5.003,9.771-9.723c0-0.095,0.003-0.189,0.008-0.284c0.004-0.151,0.115-5.171-4.047-10.295      c-6.635-8.166-42.755-50.514-43.118-50.941c-0.167-0.195-0.188-0.199-0.3-0.381c-0.317-0.375-2.235-2.417-6.396-2.417h-0.001      c-3.035,0-5.387,2.719-5.41,2.747c-0.406,0.477-36.544,42.81-43.184,50.972c-4.155,5.112-4.089,10.304-4.087,10.354      c0.005,0.085,0.007,0.171,0.007,0.256c-0.001,4.589,3.81,8.462,9.482,9.636c1.316,0.272,2.467,1.063,3.193,2.194      c0.727,1.131,0.967,2.507,0.667,3.817l-0.158,0.691c-0.177,0.772-0.534,1.492-1.044,2.099      c-2.765,3.295-27.087,32.401-33.936,40.825c-4.368,5.375-3.38,11.006-3.369,11.062c0.021,0.099,0.037,0.198,0.051,0.298      c1.059,7.543,4.85,11.073,12.293,11.447c1.329,0.067,2.576,0.661,3.466,1.65c0.891,0.989,1.35,2.292,1.275,3.621l-0.013,0.229      c-0.06,1.077-0.466,2.105-1.158,2.932c-0.25,0.299-25.111,30.005-32.28,38.82c-0.093,0.114-0.189,0.224-0.292,0.329      c-0.046,0.049-6.108,6.493-6.11,14.354c-0.002,8.965,9.561,16.26,21.315,16.263c0.002,0,0.005,0,0.007,0      c5.889,0,11.38-1.815,15.464-5.112c3.773-3.046,5.852-7.003,5.853-11.141c0-2.761,2.239-4.999,5-4.999c0,0,0,0,0.001,0      c2.762,0,4.999,2.239,4.999,5.001c-0.001,7.219-3.4,13.938-9.571,18.919c-5.855,4.728-13.579,7.331-21.745,7.332      c-0.004,0-0.006,0-0.009,0c-17.269-0.003-31.315-11.786-31.313-26.265c0.002-11.175,7.457-19.724,8.757-21.128      c5.271-6.475,19.426-23.438,27.116-32.642c-7.157-2.905-11.659-9.125-12.945-18.141c-0.262-1.561-1.421-10.679,5.449-19.134      c5.479-6.739,22.047-26.603,29.975-36.091c-6.404-3.526-10.383-9.676-10.419-16.765c-0.046-1.444,0.023-9.271,6.321-17.018      c6.679-8.212,41.429-48.92,43.269-51.075c0.733-0.882,5.571-6.335,13.083-6.335c0.002,0,0.003,0,0.004,0      c8.909,0.002,13.343,5.027,14.416,6.444c2.649,3.106,36.569,42.883,43.157,50.99c6.283,7.736,6.331,15.523,6.277,17.004      c-0.047,7.088-4.17,13.338-10.642,16.865c7.905,9.476,24.441,29.321,29.881,36.015c6.58,8.106,6.505,16.828,6.421,18.514      c-0.065,8.558-5.572,15.599-13.958,18.788c7.045,8.358,19.293,22.92,24.469,29.276c1.874,1.802,9.928,10.369,9.925,24.482      C312.38,395.918,298.331,407.692,281.066,407.693z" fill="#3F456B"/></g><g><path d="M228.429,407.682c-0.004,0-0.006,0-0.009,0c-17.27-0.003-31.316-11.786-31.314-26.265      c0-2.761,2.239-4.999,5-4.999h0.001c2.762,0,4.999,2.239,4.999,5.001c-0.002,8.965,9.561,16.26,21.316,16.263      c0.002,0,0.005,0,0.007,0c5.888,0,11.379-1.815,15.463-5.112c3.773-3.046,5.852-7.003,5.853-11.141c0-2.761,2.239-4.999,5-4.999      h0.001c2.762,0,4.999,2.239,4.999,5.001c-0.001,7.218-3.4,13.938-9.571,18.919C244.317,405.078,236.595,407.681,228.429,407.682      z" fill="#3F456B"/></g><g><path d="M175.789,407.67c-0.003,0-0.005,0-0.008,0c-17.27-0.004-31.316-11.786-31.314-26.265      c0-2.761,2.239-4.999,5-4.999h0.001c2.762,0,4.999,2.239,4.999,5.001c-0.002,8.964,9.562,16.26,21.316,16.263      c0.002,0,0.004,0,0.006,0c5.889,0,11.38-1.815,15.464-5.113c3.773-3.046,5.852-7.003,5.853-11.141c0-2.761,2.239-4.999,5-4.999      h0.001c2.762,0,4.999,2.239,4.999,5.001c-0.001,7.219-3.4,13.938-9.571,18.919C191.679,405.066,183.955,407.67,175.789,407.67z" fill="#3F456B"/></g></g></g></g><g id="Lines"><g><path d="M435.822,500H37.112c-6.495,0-11.521-1.964-14.941-5.837c-4.727-5.355-4.344-12.213-4.194-13.711    c0.821-15.853,17.707-341.8,19.472-355.922C39.281,109.873,50.751,106,56.56,106h359.814c5.809,0,17.279,3.873,19.111,18.529    c0.115,0.927,0.467,3.745,2.309,35.438c0.16,2.757-1.944,5.122-4.701,5.282c-2.755,0.149-5.121-1.945-5.281-4.702    c-1.507-25.922-2.055-33.22-2.25-34.778c-1.137-9.1-7.903-9.734-9.249-9.769L56.56,116c-1.284,0.034-8.05,0.669-9.188,9.77    c-1.726,13.809-19.238,351.925-19.415,355.339c-0.006,0.121-0.017,0.242-0.032,0.362l0,0c0.001,0-0.356,3.744,1.783,6.117    c1.442,1.6,3.935,2.412,7.405,2.412h398.71c3.471,0,5.962-0.812,7.404-2.412c2.144-2.377,1.782-6.129,1.778-6.167    c-0.016-0.12-0.021-0.191-0.026-0.312c-0.046-0.889-4.656-89.901-9.344-177.843c-0.146-2.757,1.97-5.112,4.727-5.259    c2.769-0.136,5.112,1.97,5.26,4.727c4.602,86.323,9.127,173.677,9.337,177.719c0.149,1.5,0.531,8.356-4.195,13.71    C447.344,498.036,442.316,500,435.822,500z" fill="#3F456B"/></g><g><path d="M283,164c-2.762,0-5-2.239-5-5V95c0-0.083,0.002-0.167,0.006-0.25c0.016-0.32,1.303-32.976-19.489-54.771    C245.87,26.722,227.527,20,204,20c-23.547,0-41.991,6.734-54.819,20.014c-21.074,21.817-20.195,54.478-20.184,54.806    C128.999,94.877,129,94.942,129,95v64c0,2.761-2.238,5-5,5s-5-2.239-5-5V95.085c-0.081-2.577-0.704-37.421,22.919-61.947    C156.708,17.785,177.595,10,204,10c26.41,0,47.209,7.788,61.819,23.147C289.073,57.593,288.12,92.279,288,95.113V159    C288,161.761,285.762,164,283,164z" fill="#3F456B"/></g><g><path d="M354,116c-2.762,0-5-2.239-5-5V95c0-0.083,0.002-0.167,0.006-0.25c0.016-0.32,1.303-32.976-19.489-54.771    C316.87,26.722,298.527,20,275,20c-23.547,0-41.991,6.734-54.819,20.014c-21.074,21.817-20.195,54.478-20.184,54.806    C199.999,94.877,200,94.942,200,95v16c0,2.761-2.238,5-5,5s-5-2.239-5-5V95.085c-0.081-2.577-0.704-37.421,22.919-61.947    C227.708,17.785,248.595,10,275,10c26.41,0,47.209,7.788,61.819,23.147C360.073,57.593,359.12,92.279,359,95.113V111    C359,113.761,356.762,116,354,116z" fill="#3F456B"/></g><g><path d="M347,500c-2.762,0-5-2.239-5-5s2.238-5,5-5c4.555,0,7.733-1.046,9.446-3.11    c2.3-2.771,1.647-6.927,1.64-6.968c-0.051-0.267-0.079-0.538-0.085-0.81c-0.019-0.831-1.879-84.05-3.902-168.665    c-0.065-2.761,2.119-5.052,4.88-5.118c2.757-0.083,5.052,2.119,5.118,4.879c1.958,81.881,3.763,162.454,3.895,168.343    c0.287,2,0.874,9.033-3.851,14.725C360.438,497.738,354.671,500,347,500z" fill="#3F456B"/></g><g><path d="M355.455,172.149c-2.695,0-4.918-2.146-4.995-4.857c-0.875-30.677-1.263-39.11-1.434-40.782    c-0.634-6.188-3.892-9.513-10.255-10.465c-0.79-0.118-2.114-0.316-3.307-1.509c-1.953-1.953-1.953-5.119,0-7.071    c1.287-1.287,3.104-1.725,4.75-1.315l0.036,0.005c10.807,1.616,17.631,8.664,18.723,19.337c0.178,1.73,0.524,7.917,1.482,41.515    c0.079,2.76-2.095,5.062-4.855,5.141C355.552,172.148,355.504,172.149,355.455,172.149z M342.528,107.458    C342.529,107.458,342.529,107.458,342.528,107.458C342.529,107.458,342.529,107.458,342.528,107.458z M342.522,107.452    C342.523,107.452,342.523,107.452,342.522,107.452C342.523,107.452,342.523,107.452,342.522,107.452z M342.518,107.446    L342.518,107.446L342.518,107.446z" fill="#3F456B"/></g><g><g><g><path d="M373.27,321.277c-10.736,0-20.432-7.461-22.82-18.37l-19.253-92.664      c-1.288-5.884-0.234-12.016,2.978-17.212c0.033-0.054,0.067-0.107,0.104-0.16l37.096-55.192      c2.807-4.33,11.077-10.934,22.537-5.266c0.166,0.082,0.326,0.172,0.481,0.272c12.859,8.24,57.665,33.714,58.116,33.971      c0.077,0.044,0.152,0.09,0.227,0.137c5.268,3.375,8.9,8.58,10.231,14.657l19.252,92.664c1.319,6.024,0.193,12.271-3.182,17.538      c-3.374,5.267-8.579,8.899-14.656,10.23l-86.109,18.852C376.595,321.101,374.92,321.277,373.27,321.277z M342.634,198.364      c-1.804,2.96-2.393,6.435-1.657,9.792l19.253,92.664c1.565,7.147,8.719,11.718,15.902,10.145l86.109-18.852      c3.468-0.759,6.442-2.839,8.376-5.856s2.58-6.589,1.82-10.057l-19.252-92.664c-0.739-3.376-2.78-6.321-5.743-8.257      c-3.126-1.777-45.031-25.618-58.192-34.013c-5.755-2.717-8.743,0.773-9.531,1.921L342.634,198.364z" fill="#3F456B"/></g></g><g><g><path d="M383.239,282.441c-0.896,0-1.802-0.24-2.619-0.745c-2.351-1.449-3.081-4.53-1.632-6.88l46.019-74.629      c1.45-2.35,4.532-3.08,6.88-1.631c2.351,1.449,3.081,4.53,1.632,6.88L387.5,280.065      C386.555,281.598,384.917,282.441,383.239,282.441z" fill="#3F456B"/></g><g><path d="M434.316,280.613c-3.907,0-7.748-1.081-11.158-3.183c-4.851-2.991-8.246-7.692-9.561-13.237      c-1.315-5.544-0.392-11.27,2.6-16.12s7.692-8.246,13.237-9.561c11.444-2.714,22.966,4.39,25.681,15.835c0,0,0,0,0,0      c2.714,11.446-4.391,22.966-15.836,25.681C437.632,280.42,435.968,280.613,434.316,280.613z M434.357,247.936      c-0.863,0-1.74,0.1-2.615,0.308c-2.947,0.698-5.444,2.502-7.033,5.079c-1.59,2.577-2.08,5.618-1.381,8.564      c0.698,2.946,2.502,5.443,5.079,7.032c2.577,1.589,5.618,2.08,8.564,1.381c6.081-1.442,9.854-7.563,8.413-13.644      C444.15,251.451,439.488,247.936,434.357,247.936z" fill="#3F456B"/></g><g><path d="M377.803,242.06c-9.659,0-18.435-6.616-20.758-16.414c-1.315-5.544-0.392-11.27,2.599-16.12      c2.991-4.851,7.692-8.246,13.237-9.561c5.546-1.315,11.269-0.392,16.12,2.6c4.851,2.991,8.246,7.691,9.561,13.236      c1.315,5.544,0.392,11.27-2.599,16.12c-2.991,4.851-7.692,8.246-13.237,9.561C381.078,241.873,379.428,242.06,377.803,242.06z       M377.824,209.385c-0.878,0-1.761,0.103-2.637,0.31c-2.945,0.698-5.442,2.502-7.031,5.079c-1.59,2.577-2.08,5.619-1.381,8.564      c1.442,6.082,7.566,9.855,13.644,8.413c2.945-0.698,5.442-2.502,7.031-5.079c1.59-2.577,2.08-5.619,1.381-8.564c0,0,0,0,0,0      c-0.698-2.945-2.502-5.442-5.079-7.031C381.94,209.959,379.899,209.385,377.824,209.385z" fill="#3F456B"/></g></g><g><g><path d="M391.51,167.8c-3.492,0.765-6.942-1.445-7.707-4.939c-0.764-3.492,1.446-6.942,4.939-7.707      c3.492-0.764,6.943,1.447,7.707,4.938C397.213,163.586,395.001,167.035,391.51,167.8z" fill="#3F456B"/></g></g></g><g><path d="M383.289,140.2c-2.632,0-4.836-2.056-4.987-4.717c-0.028-0.477-2.562-39.358-24.801-41.232    c-21.63-1.819-25.854,15.604-26.267,17.598c-0.558,2.694-3.199,4.444-5.886,3.9c-2.696-0.543-4.45-3.147-3.923-5.847    c1.912-9.774,12.089-27.708,36.915-25.616c13.109,1.105,23.162,10.484,29.073,27.125c4.171,11.741,4.846,23.033,4.872,23.508    c0.154,2.757-1.955,5.118-4.712,5.272C383.479,140.197,383.384,140.2,383.289,140.2z" fill="#3F456B"/></g><g><g><path d="M263,436H141c-2.762,0-5-2.239-5-5s2.238-5,5-5h122c2.762,0,5,2.239,5,5S265.762,436,263,436z" fill="#3F456B"/></g><g><path d="M236,459h-68c-2.762,0-5-2.239-5-5s2.238-5,5-5h68c2.762,0,5,2.239,5,5S238.762,459,236,459z" fill="#3F456B"/></g></g></g></svg>