<?xml version="1.0" ?><svg viewBox="0 0 512 512" xmlns="http://www.w3.org/2000/svg"><defs><style>.cls-1{fill:#3f456b;}</style></defs><title/><g id="Lines"><path class="cls-1" d="M255,266.76a117.13,117.13,0,1,1,58.4-15.68A117.24,117.24,0,0,1,255,266.76Zm-93-63.57a107.17,107.17,0,1,0-10.71-81.34A107.31,107.31,0,0,0,162,203.19Z"/><path class="cls-1" d="M380.65,393.82a28.36,28.36,0,0,1-7.34-1,28,28,0,0,1-17.14-13.15l-52.89-91.61a5,5,0,0,1,1.84-6.83l40.24-23.16a5,5,0,0,1,6.82,1.84L405,351.49a28.23,28.23,0,0,1-24.39,42.33ZM314.44,287.43l50.39,87.27a18.21,18.21,0,1,0,31.55-18.21L346,269.26Z"/><path class="cls-1" d="M327.72,279a5,5,0,0,1-4.34-2.5l-15-26a5,5,0,1,1,8.66-5l15,26a5,5,0,0,1-1.83,6.83A4.88,4.88,0,0,1,327.72,279Z"/><path class="cls-1" d="M221.91,465H83.6a5,5,0,0,1-5-5V390a5,5,0,0,1,5-5H221.91a5,5,0,0,1,5,5v70A5,5,0,0,1,221.91,465ZM88.6,455H216.91V395H88.6Z"/><path class="cls-1" d="M465,499H48a5,5,0,0,1-5-5V334a5,5,0,0,1,10,0V489H460V334a5,5,0,0,1,10,0V494A5,5,0,0,1,465,499Z"/><path class="cls-1" d="M256.49,499a5,5,0,0,1-5-5V262a5,5,0,0,1,10,0V494A5,5,0,0,1,256.49,499Z"/><path class="cls-1" d="M496,339H390.5a5,5,0,0,1,0-10h98.63l-27.77-86H325.12a5,5,0,0,1,0-10H465a5,5,0,0,1,4.76,3.46l31,96A5,5,0,0,1,496,339Z"/><path class="cls-1" d="M333.82,339H288a5,5,0,0,1-4.76-3.46l-22.93-71a5,5,0,1,1,9.51-3.07L291.64,329h42.18a5,5,0,0,1,0,10Z"/><path class="cls-1" d="M226,339H18a5,5,0,0,1-4.76-6.54l31-96A5,5,0,0,1,49,233H183.29a5,5,0,0,1,0,10H52.64L24.87,329H222.36l21.56-66.77a5,5,0,0,1,9.52,3.07l-22.68,70.24A5,5,0,0,1,226,339Z"/></g><g id="Outline"><path class="cls-1" d="M198.52,419H106a5,5,0,0,1,0-10h92.55a5,5,0,0,1,0,10Z"/><path class="cls-1" d="M198.52,442H106a5,5,0,0,1,0-10h92.55a5,5,0,0,1,0,10Z"/><path class="cls-1" d="M363,462.66a5,5,0,0,1-5-5V402a5,5,0,0,1,10,0v55.66A5,5,0,0,1,363,462.66Z"/><path class="cls-1" d="M389.37,433.53a5,5,0,0,1-3.54-1.46L363,409.2,340.1,432.07A5,5,0,0,1,333,425l26.4-26.4a5,5,0,0,1,7.07,0L392.9,425a5,5,0,0,1-3.53,8.53Z"/><path class="cls-1" d="M256.29,191.32a5,5,0,0,1-5-5c0-14.94,10.1-25.83,16.11-31,2.17-1.86,4.34-3.54,6.44-5.17,6.89-5.34,12.84-9.95,15.3-18.21,2.67-8.95,1.24-18.75-3.73-25.58C279,97.5,267.47,92,255.42,92c-19.18,0-34.78,14.56-34.78,32.45a30.43,30.43,0,0,0,3.82,14.81,5,5,0,0,1-8.76,4.83,40.88,40.88,0,0,1-5.06-19.64C210.64,101,230.73,82,255.42,82c15.19,0,29.77,7.08,38.07,18.48,6.87,9.44,8.82,22.27,5.23,34.33-3.38,11.34-11.19,17.4-18.75,23.26-2,1.55-4.08,3.16-6.06,4.85-4.71,4-12.62,12.46-12.62,23.4A5,5,0,0,1,256.29,191.32Z"/><path class="cls-1" d="M257,213a5,5,0,0,1-5-5v-1a5,5,0,0,1,10,0v1A5,5,0,0,1,257,213Z"/></g></svg>