<?xml version="1.0" ?><svg viewBox="0 0 512 512" xmlns="http://www.w3.org/2000/svg"><defs><style>.cls-1{fill:#3f456b;}</style></defs><title/><g id="Lines"><path class="cls-1" d="M349.2,325.19A280.17,280.17,0,0,1,315,322.94,5,5,0,1,1,316.2,313c26,3.2,48,2.87,67.41-1,35.38-7.07,62.45-25.44,80.45-54.57,15.26-24.72,32.16-71.27,26-152.67a540.07,540.07,0,0,0-13.4-84.68H217.79c-5.09,20.51-28.14,122.47-4.12,200.56a5,5,0,1,1-9.55,2.94c-8-25.9-15.82-71.05-8-139,4.68-40.52,12.62-69.59,13-70.81a5,5,0,0,1,4.82-3.67H480.53a5,5,0,0,1,4.83,3.68A537.59,537.59,0,0,1,500,103.83c5.14,67.58-4.09,121-27.44,158.85-19.52,31.61-48.79,51.5-87,59.14A185.05,185.05,0,0,1,349.2,325.19Z"/><path class="cls-1" d="M347,500a5,5,0,0,1-5-5V323.28a5,5,0,0,1,10,0V495A5,5,0,0,1,347,500Z"/><path class="cls-1" d="M452,500H243a5,5,0,0,1,0-10H452a5,5,0,0,1,0,10Z"/><path class="cls-1" d="M243.74,500h-150C68.91,500,60.8,482.64,60,473.35l-8-64.12a1.1,1.1,0,0,1,0-.18c-.07-.73-.14-1.79-.22-3.13-1.94-29.54-6.87-47.76-14.66-54.14C23.53,340.65,22.17,330.37,22,328.15L12.41,248c-1.68-10-.11-17.67,4.69-22.83,5.94-6.39,14.59-6.24,16.36-6.14H307.53c1.76-.1,10.42-.25,16.35,6.14,4.8,5.16,6.38,12.85,4.7,22.83L319,328.13c-.13,2.23-1.5,12.52-15.07,23.64-7.8,6.39-12.73,24.61-14.66,54.15-.09,1.34-.16,2.4-.22,3.13,0,.06,0,.12,0,.18l-8,64.21C279.87,482.63,270.62,500,243.74,500ZM61.94,408.09l8,64.12a1.23,1.23,0,0,1,0,.19C70.1,474.17,72.3,490,93.75,490h150c24.86,0,27.25-17.08,27.34-17.81l8-64.12c.06-.67.12-1.63.2-2.82,1.37-21,4.76-50.14,18.3-61.23C308,335.48,308.9,328.36,309,327.58a1.84,1.84,0,0,1,0-.46l9.66-80.44a2,2,0,0,1,0-.24c.79-4.66,1.08-10.94-2.1-14.42s-8.42-3-8.47-3a3.24,3.24,0,0,1-.44,0H33.29a3.85,3.85,0,0,1-.48,0s-5.33-.37-8.43,3-2.89,9.76-2.09,14.42l0,.25L32,327.13a2.6,2.6,0,0,1,0,.46c.07.78,1,7.9,11.42,16.45C57,355.13,60.37,384.3,61.75,405.27,61.82,406.46,61.88,407.42,61.94,408.09Z"/></g><g id="Outline"><path class="cls-1" d="M293.31,317.78a5.07,5.07,0,0,1-1.52-.24C256.72,306.4,230.54,283.33,214,249a5,5,0,1,1,9-4.34c15.32,31.77,39.49,53.08,71.83,63.36a5,5,0,0,1-1.51,9.77Z"/></g></svg>