<?xml version="1.0" ?><svg viewBox="0 0 512 512" xmlns="http://www.w3.org/2000/svg"><defs><style>.cls-1{fill:#3f456b;}</style></defs><title/><g id="Lines"><path class="cls-1" d="M496,138H401.26c-8.46,0-15.26-2.62-20.23-7.79-8.11-8.43-8.07-20.65-8-22.09V16h10v92.39c0,.07-.22,9.27,5.28,14.93,3,3.11,7.38,4.68,13,4.68H496Z"/><path class="cls-1" d="M469.68,468H321a5,5,0,0,1,0-10H469.68c11.75,0,21.32-10.6,21.32-23.62V135.62c0-11.37-10.55-24.31-14.62-28.33-.67-.68-62.23-63.27-75-76.09A38.74,38.74,0,0,0,375.68,20H156.05A23.34,23.34,0,0,0,133,43V192a5,5,0,0,1-10,0V43c0-17.89,15.13-33,33.05-33H375.59a48.78,48.78,0,0,1,32.82,14.13c12.84,12.85,74.43,75.47,75,76.1S501,117.8,501,135.62V434.38C501,452.92,487,468,469.68,468Z"/><path class="cls-1" d="M218.44,264.33H191.56c-4.75,0-8.06-3.38-8.06-8.23V221.9c0-4.85,3.31-8.23,8.06-8.23h26.88c4.75,0,8.06,3.38,8.06,8.23v34.2C226.5,261,223.19,264.33,218.44,264.33Zm-24.94-10h23V223.67h-23Z"/><path class="cls-1" d="M270,498H260V338H76V498H66V336.43c0-4.88,3.7-8.43,8.81-8.43H259.92c5,0,10.08,3.15,10.08,8.43Z"/><path class="cls-1" d="M53,252a5,5,0,0,1-5-5V230a5,5,0,0,1,10,0v17A5,5,0,0,1,53,252Z"/><path class="cls-1" d="M312.29,501H26.5C19,501,11,495.39,11,487V201.25C11,193.66,18.24,187,26.5,187H265.61a5,5,0,0,1,3.62,1.55l55.39,58.1A5,5,0,0,1,326,250.1V487C326,495,320.11,501,312.29,501ZM26.5,197c-2.67,0-5.5,2.18-5.5,4.25V487c0,2,2.77,4,5.5,4H312.29c2.32,0,3.71-1.48,3.71-4V252.1L263.47,197Z"/><path class="cls-1" d="M238,293H96.73c-7,0-12.73-6-12.73-13.4V189H94v90.6c0,1.67,1,3.4,2.73,3.4H238a3.3,3.3,0,0,0,3-3.4V189h10v90.6A13.22,13.22,0,0,1,238,293Z"/><path class="cls-1" d="M237.78,293H133.1c-7.51,0-14.1-6.22-14.1-13.31V200.3c0-7.08,6.59-13.3,14.1-13.3H237.78A13.44,13.44,0,0,1,251,200.3v79.39A13.44,13.44,0,0,1,237.78,293ZM133.1,197c-1.88,0-4.1,1.79-4.1,3.3v79.39c0,1.52,2.22,3.31,4.1,3.31H237.78a3.4,3.4,0,0,0,3.22-3.31V200.3a3.4,3.4,0,0,0-3.22-3.3Z"/><path class="cls-1" d="M429.23,420H385a5,5,0,0,1-5-5V370.77a5,5,0,0,1,10,0V410h39.23a5,5,0,0,1,0,10Z"/><path class="cls-1" d="M385,420a5,5,0,0,1-3.54-8.54L461,332a5,5,0,1,1,7.07,7.07l-79.48,79.49A5,5,0,0,1,385,420Z"/></g><g id="Outline"><path class="cls-1" d="M330.33,106H195a5,5,0,0,1,0-10H330.33a5,5,0,0,1,0,10Z"/><path class="cls-1" d="M330.33,154H195a5,5,0,0,1,0-10H330.33a5,5,0,0,1,0,10Z"/><path class="cls-1" d="M437,199H353a5,5,0,0,1,0-10h84a5,5,0,0,1,0,10Z"/><path class="cls-1" d="M437,247H353a5,5,0,0,1,0-10h84a5,5,0,0,1,0,10Z"/><path class="cls-1" d="M437,292H353a5,5,0,0,1,0-10h84a5,5,0,0,1,0,10Z"/><path class="cls-1" d="M228,375H106a5,5,0,0,1,0-10H228a5,5,0,0,1,0,10Z"/><path class="cls-1" d="M228,404.67H106a5,5,0,0,1,0-10H228a5,5,0,1,1,0,10Z"/><path class="cls-1" d="M228,434.33H106a5,5,0,1,1,0-10H228a5,5,0,0,1,0,10Z"/><path class="cls-1" d="M168,464H106a5,5,0,0,1,0-10h62a5,5,0,0,1,0,10Z"/></g></svg>