<?xml version="1.0" ?><svg enable-background="new 0 0 512 512" version="1.1" viewBox="0 0 512 512" xml:space="preserve" xmlns="http://www.w3.org/2000/svg" xmlns:xlink="http://www.w3.org/1999/xlink"><g id="Lines"><g><g><g><path d="M403.73,184.897c-0.645,0-1.3-0.125-1.932-0.39c-2.546-1.068-3.745-3.998-2.678-6.544l46.928-111.934      c1.08-2.554-0.111-5.494-2.65-6.568l-11.973-5.065c-2.538-1.074-5.479,0.118-6.554,2.657l-44.991,107.316      c-1.067,2.547-3.997,3.746-6.545,2.678c-2.546-1.068-3.745-3.998-2.678-6.544l44.998-107.332      c3.229-7.632,12.048-11.208,19.666-7.985l11.973,5.065c7.617,3.223,11.192,12.042,7.971,19.659l-46.922,111.919      C407.541,183.744,405.685,184.897,403.73,184.897z" fill="#3F456B"/></g></g><g><g><g><path d="M402.902,386.14c-2.572,0-4.758-1.973-4.977-4.583L382.47,197.22c-0.022-0.232-0.035-0.365-0.039-0.59       c-0.079-0.635-0.514-3.182-2.538-4.913c-2.561-2.188-7.853-3.061-14.526-2.391c-26.957,2.705-93.956,11.565-96.795,11.94       c-8.206,1.082-15.755-4.703-16.84-12.9c-0.526-3.971,0.525-7.911,2.962-11.091s5.966-5.222,9.938-5.748       c0.692-0.092,69.708-9.239,97.74-12.052c15.724-1.581,28.352,1.744,37.522,9.881c10.808,9.589,12.307,22.038,12.506,25.776       l15.401,183.701c0.23,2.752-1.812,5.17-4.564,5.4c-2.755,0.235-5.17-1.812-5.4-4.564l-15.408-183.78       c-0.005-0.057-0.009-0.113-0.012-0.17c-0.093-1.879-0.973-11.619-9.159-18.882c-6.996-6.208-17.053-8.701-29.887-7.411       c-27.876,2.797-96.733,11.923-97.426,12.015c-1.325,0.175-2.501,0.856-3.313,1.916c-0.812,1.06-1.162,2.373-0.986,3.697       c0.361,2.732,2.874,4.657,5.614,4.299c2.845-0.376,69.996-9.257,97.108-11.977c9.783-0.982,17.195,0.613,22.023,4.741       c5.178,4.428,5.925,10.649,6.021,11.852c0.01,0.121,0.016,0.241,0.017,0.362l0.017,0.183l15.444,184.208       c0.23,2.752-1.812,5.17-4.564,5.4C403.184,386.134,403.043,386.14,402.902,386.14z" fill="#3F456B"/></g></g></g><g><g><g><path d="M325.81,440.972c0.296,3.562-2.35,6.691-5.914,6.987c-3.562,0.296-6.691-2.351-6.987-5.914       c-0.296-3.562,2.352-6.692,5.914-6.988C322.386,434.761,325.513,437.409,325.81,440.972z" fill="#3F456B"/></g></g><g><g><g><path d="M195.375,464.253c-0.586,0-1.182-0.104-1.762-0.323c-2.584-0.974-3.89-3.858-2.916-6.442        c4.347-11.535,12.394-19.14,22.077-20.865c9.634-1.72,17.02,2.765,23.536,6.719c4.204,2.55,8.174,4.959,12.425,5.629        c3.54,0.558,6.758,0.122,9.613-0.989c-0.83-0.586-1.622-1.208-2.376-1.869c-6.234-5.458-8.901-12.848-7.316-20.273        c1.82-8.539,7.108-14.648,14.144-16.342c6.179-1.487,12.515,0.652,16.527,5.588c4.979,6.124,5.29,15.012,0.855,24.386        c-0.838,1.771-1.779,3.44-2.812,4.999c7.565,0.835,15.876-0.477,22.813-2.951c2.598-0.927,5.461,0.429,6.389,3.03        s-0.428,5.461-3.029,6.389c-11.967,4.269-24.162,4.901-34.161,2.14c-6.402,4.866-14.21,7.028-22.203,5.771        c-6.196-0.976-11.208-4.017-16.055-6.958c-5.729-3.476-10.677-6.473-16.596-5.423c-8.387,1.494-12.668,9.755-14.474,14.546        C199.3,463.019,197.396,464.253,195.375,464.253z M266.654,419.039c-0.502,0-1.009,0.059-1.515,0.181        c-3.247,0.782-5.69,3.955-6.704,8.707c-1.048,4.912,1.665,8.51,4.125,10.664c1.35,1.182,2.856,2.174,4.48,2.991        c1.684-1.98,3.059-4.18,4.103-6.385c2.722-5.754,2.877-10.785,0.425-13.802C270.336,419.877,268.54,419.039,266.654,419.039z" fill="#3F456B"/></g></g></g></g><g><g><path d="M500.465,382.717c-3.574,0.086-6.543-2.737-6.631-6.312c-0.086-3.573,2.741-6.542,6.314-6.629      c3.574-0.088,6.541,2.739,6.628,6.312C506.865,379.662,504.039,382.629,500.465,382.717z" fill="#3F456B"/></g></g><g><g><g><path d="M245.535,92.917c-0.413,0-0.833-0.032-1.26-0.098c-2.012-0.31-3.608-1.291-4.466-1.818       c-3.695-2.27-7.106-4.789-10.405-7.226l-1.827-1.346c-0.46-0.337-0.944-0.719-1.428-1.101       c-0.378-0.299-0.755-0.599-1.117-0.866c-0.061-0.044-0.125-0.094-0.194-0.148c-1.021,0.381-2.045,0.784-3.103,1.2       c-2.142,0.842-4.355,1.712-6.708,2.457c-0.312,0.099-0.729,0.253-1.218,0.431c-4.516,1.646-12.92,4.711-16.805-1.195       c-1.409-2.142-1.142-4.464-1.042-5.338c0.565-4.862,1.955-9.374,3.299-13.736l0.519-1.691c0.547-1.794,1.042-3.378,1.482-4.74       c-4.776-4.876-11.512-12.756-12.916-18.138c-0.971-3.714,0.16-6.179,1.28-7.592c1.965-2.479,4.837-2.95,6.177-3.028       c4.898-0.738,15.369,0.034,21.13,0.553c3.859-7.395,8.54-13.939,10.058-15.866c1.356-1.724,2.936-2.884,4.69-3.446       c2.107-0.675,4.592-0.486,6.653,0.501c0.655,0.314,1.276,0.726,1.846,1.224c1.209,1.057,2.152,2.475,2.804,4.215       c0.859,2.301,3.326,9.965,4.749,18.174c5.645,1.258,15.854,3.712,20.296,5.906c1.252,0.482,3.844,1.805,4.961,4.764       c0.637,1.687,0.964,4.378-1.092,7.623c-2.941,4.643-11.584,10.025-17.61,13.23c0.432,6.81,0.051,13.482-1.15,20.296       C252.415,90.222,249.313,92.917,245.535,92.917z M225.609,69.738c0.26,0,0.52,0.02,0.777,0.061l0.087,0.014       c1.912,0.299,3.26,1.5,4.244,2.377c0.111,0.1,0.214,0.193,0.303,0.266c0.387,0.283,0.861,0.656,1.334,1.031       c0.385,0.304,0.769,0.609,1.137,0.879l1.854,1.366c2.838,2.096,5.539,4.09,8.378,5.917c0.856-6.094,0.963-12.09,0.332-18.253       c-0.215-2.098,0.909-4.104,2.81-5.017c6.021-2.891,12.562-7.1,15.398-9.788c-4.396-1.69-14.154-4.024-19.974-5.238       c-2.083-0.435-3.663-2.14-3.937-4.25c-0.962-7.405-3.22-14.991-4.3-18.228c-2.015,2.753-6.471,9.285-9.645,16.053       c-0.904,1.926-2.931,3.07-5.045,2.85c-5.912-0.615-15.917-1.366-20.62-1.091c1.883,3.424,6.832,9.424,11.688,14.011       c1.438,1.359,1.939,3.437,1.28,5.302c-0.591,1.671-1.387,4.146-2.364,7.355l-0.528,1.722c-0.979,3.178-1.916,6.22-2.502,9.259       c1.535-0.405,3.29-1.045,4.067-1.329c0.652-0.238,1.21-0.438,1.626-0.57c2.028-0.642,3.989-1.413,6.066-2.229       c1.908-0.75,3.881-1.526,5.959-2.215C224.545,69.823,225.076,69.738,225.609,69.738z M196.169,38.928c0.006,0,0.012,0,0.018,0       C196.181,38.928,196.175,38.928,196.169,38.928z" fill="#384169"/></g></g></g><g><g><g><path d="M349.535,306.917c-0.413,0-0.833-0.032-1.26-0.098c-2.012-0.31-3.608-1.291-4.466-1.818       c-3.695-2.27-7.106-4.789-10.405-7.226l-1.827-1.346c-0.46-0.337-0.944-0.719-1.428-1.101       c-0.378-0.299-0.755-0.599-1.117-0.866c-0.061-0.044-0.125-0.094-0.194-0.148c-1.021,0.381-2.045,0.784-3.103,1.2       c-2.142,0.842-4.355,1.712-6.708,2.457c-0.312,0.099-0.729,0.253-1.218,0.431c-4.515,1.646-12.92,4.711-16.805-1.195       c-1.409-2.142-1.142-4.464-1.042-5.338c0.565-4.862,1.955-9.374,3.299-13.736l0.519-1.691c0.547-1.794,1.042-3.378,1.482-4.74       c-4.776-4.876-11.512-12.756-12.916-18.138c-0.971-3.714,0.16-6.179,1.28-7.592c1.965-2.479,4.837-2.95,6.177-3.028       c4.898-0.738,15.369,0.033,21.13,0.553c3.859-7.395,8.54-13.939,10.058-15.866c1.356-1.724,2.936-2.884,4.69-3.446       c2.107-0.674,4.593-0.486,6.653,0.501c0.655,0.314,1.276,0.726,1.846,1.224c1.209,1.057,2.152,2.475,2.804,4.215       c0.859,2.301,3.326,9.965,4.749,18.174c5.645,1.258,15.854,3.712,20.296,5.906c1.252,0.482,3.844,1.805,4.961,4.764       c0.637,1.687,0.964,4.378-1.092,7.623c-2.941,4.643-11.584,10.025-17.61,13.23c0.432,6.81,0.051,13.482-1.15,20.296       C356.415,304.222,353.313,306.917,349.535,306.917z M329.609,283.738c0.26,0,0.52,0.02,0.777,0.061l0.087,0.014       c1.912,0.299,3.26,1.5,4.244,2.377c0.111,0.1,0.214,0.193,0.303,0.266c0.387,0.283,0.861,0.656,1.334,1.031       c0.385,0.304,0.769,0.609,1.137,0.879l1.854,1.366c2.838,2.096,5.539,4.09,8.378,5.917c0.856-6.094,0.963-12.09,0.332-18.253       c-0.215-2.098,0.909-4.104,2.81-5.017c6.021-2.891,12.562-7.1,15.398-9.788c-4.396-1.69-14.154-4.024-19.974-5.238       c-2.083-0.435-3.663-2.14-3.937-4.25c-0.962-7.405-3.22-14.991-4.3-18.228c-2.015,2.753-6.471,9.285-9.645,16.053       c-0.904,1.926-2.927,3.066-5.045,2.85c-5.912-0.615-15.918-1.365-20.62-1.091c1.883,3.424,6.832,9.424,11.688,14.011       c1.438,1.359,1.939,3.437,1.28,5.302c-0.591,1.671-1.387,4.146-2.364,7.355l-0.528,1.722c-0.979,3.178-1.916,6.22-2.502,9.259       c1.535-0.405,3.29-1.045,4.067-1.329c0.652-0.238,1.21-0.438,1.626-0.57c2.028-0.642,3.989-1.413,6.066-2.229       c1.908-0.75,3.881-1.526,5.959-2.215C328.545,283.823,329.076,283.738,329.609,283.738z M300.169,252.928       c0.006,0,0.012,0,0.018,0C300.181,252.928,300.175,252.928,300.169,252.928z" fill="#384169"/></g></g></g><g><g><path d="M454.275,441.399c-11.258,0.001-20.851-8.662-21.8-20.077c-0.485-5.827,1.328-11.494,5.105-15.958      c3.778-4.463,9.067-7.188,14.896-7.673c5.827-0.485,11.493,1.328,15.956,5.106c4.464,3.778,7.188,9.067,7.673,14.895      c0.485,5.827-1.328,11.494-5.105,15.958c-3.777,4.463-9.067,7.188-14.894,7.673C455.492,441.374,454.88,441.399,454.275,441.399      z M454.312,407.616c-0.334,0-0.669,0.014-1.006,0.042c-3.166,0.263-6.039,1.743-8.091,4.167      c-2.053,2.424-3.037,5.503-2.774,8.668c0.544,6.534,6.294,11.411,12.837,10.864c3.165-0.263,6.038-1.743,8.09-4.167      s3.037-5.502,2.773-8.667v0c-0.264-3.166-1.744-6.039-4.168-8.091C459.807,408.598,457.117,407.616,454.312,407.616z" fill="#3F456B"/></g></g><g><g><path d="M56.476,474.497c-5.167,0-10.117-1.807-14.105-5.184c-4.464-3.777-7.188-9.067-7.673-14.894      c-1.001-12.029,7.971-22.63,19.999-23.631c12.062-0.99,22.631,7.973,23.631,20c0.485,5.827-1.328,11.494-5.105,15.958      c-3.778,4.463-9.067,7.188-14.896,7.673C57.707,474.471,57.09,474.497,56.476,474.497z M56.521,440.713      c-0.329,0-0.661,0.014-0.995,0.042c-6.533,0.543-11.406,6.302-10.863,12.836c0.264,3.165,1.744,6.038,4.168,8.09      c2.425,2.052,5.505,3.038,8.667,2.773c3.166-0.263,6.039-1.743,8.091-4.167c2.053-2.424,3.037-5.503,2.774-8.668      C67.846,445.418,62.635,440.713,56.521,440.713z" fill="#3F456B"/></g></g><g><g><path d="M57.231,500.069c-10.894,0-21.336-3.799-29.763-10.901c-9.459-7.971-15.247-19.148-16.298-31.473      c-1.053-12.325,2.758-24.321,10.729-33.779c7.972-9.458,19.148-15.247,31.474-16.298l397.369-34.708      c12.337-1.05,24.332,2.758,33.789,10.729c9.459,7.971,15.247,19.148,16.298,31.473c1.053,12.324-2.758,24.321-10.729,33.779      c-7.972,9.458-19.148,15.247-31.474,16.298l-397.37,34.707c-0.003,0-0.006,0-0.01,0.001      C59.904,500.012,58.564,500.069,57.231,500.069z M60.822,494.916h0.01H60.822z M454.751,382.739      c-1.045,0-2.095,0.044-3.148,0.134L54.233,417.581c-9.674,0.825-18.438,5.364-24.687,12.779      c-6.25,7.416-9.237,16.822-8.413,26.485c0.825,9.663,5.363,18.427,12.779,24.676c7.415,6.249,16.825,9.238,26.482,8.413      l397.371-34.707c9.674-0.826,18.438-5.364,24.687-12.78c6.25-7.416,9.237-16.821,8.413-26.484      c-0.825-9.663-5.363-18.427-12.779-24.676C471.479,385.718,463.292,382.739,454.751,382.739z" fill="#3F456B"/></g></g><g><g><path d="M448,500.01H57c-2.762,0-5-2.239-5-5s2.238-5,5-5h391c4.342,0,7.527-1.055,9.468-3.137      c2.623-2.814,2.463-6.888,2.461-6.928c-0.009-0.117-0.013-0.233-0.013-0.351V460c0-2.761,2.238-5,5-5s5,2.239,5,5v19.459      c0.07,1.519,0.091,8.627-5.134,14.232C460.874,497.884,455.228,500.01,448,500.01z" fill="#3F456B"/></g></g><g><g><path d="M484.997,369c-1.096,0-2.198-0.358-3.12-1.096c-13.044-10.435-39.764-6.022-40.031-5.976      c-2.726,0.464-5.305-1.363-5.771-4.083c-0.467-2.72,1.356-5.303,4.076-5.772c1.275-0.22,31.407-5.23,47.973,8.023      c2.156,1.725,2.507,4.872,0.781,7.028C487.917,368.358,486.464,369,484.997,369z" fill="#3F456B"/></g></g><g><g><path d="M11.995,419c-0.937,0-1.884-0.263-2.727-0.812c-2.312-1.508-2.965-4.606-1.457-6.919      c16.235-24.893,47.69-26.221,49.021-26.266c2.783-0.096,5.072,2.071,5.164,4.831c0.092,2.757-2.066,5.067-4.822,5.164      c-0.354,0.014-27.655,1.293-40.986,21.734C15.229,418.201,13.629,419,11.995,419z" fill="#3F456B"/></g></g></g></g><g id="Outline"><g><g><g><path d="M75.02,388.47c-0.25-2.75,1.771-5.19,4.521-5.45l0,0c2.74-0.26,5.18,1.77,5.439,4.52l0,0      c0.25,2.75-1.77,5.18-4.52,5.44l0,0C80.31,392.99,80.149,393,80,393l0,0C77.439,393,75.26,391.06,75.02,388.47z M94.93,386.61      c-0.25-2.75,1.771-5.19,4.521-5.45l0,0c2.75-0.25,5.18,1.77,5.439,4.52l0,0c0.26,2.75-1.76,5.18-4.51,5.44l0,0      c-0.16,0.01-0.32,0.02-0.47,0.02l0,0C97.35,391.14,95.17,389.2,94.93,386.61z M114.85,384.75c-0.26-2.75,1.76-5.19,4.51-5.45      l0,0c2.75-0.25,5.19,1.77,5.44,4.52l0,0c0.26,2.75-1.76,5.19-4.51,5.44l0,0c-0.16,0.02-0.32,0.02-0.471,0.02l0,0      C117.27,389.28,115.09,387.34,114.85,384.75z M134.76,382.89c-0.25-2.75,1.771-5.19,4.521-5.44l0,0      c2.739-0.26,5.18,1.76,5.439,4.51l0,0c0.26,2.75-1.77,5.19-4.52,5.44l0,0c-0.15,0.02-0.311,0.02-0.471,0.02l0,0      C137.18,387.42,135,385.48,134.76,382.89z M154.67,381.03c-0.25-2.75,1.77-5.19,4.52-5.44l0,0c2.75-0.26,5.181,1.76,5.44,4.51      l0,0c0.26,2.75-1.76,5.19-4.51,5.44l0,0c-0.16,0.02-0.32,0.03-0.471,0.03l0,0C157.1,385.57,154.92,383.62,154.67,381.03z       M174.59,379.17c-0.26-2.75,1.76-5.18,4.51-5.44l0,0c2.75-0.26,5.19,1.76,5.44,4.51l0,0c0.26,2.75-1.76,5.19-4.51,5.45l0,0      c-0.16,0.01-0.32,0.02-0.471,0.02l0,0C177.01,383.71,174.83,381.76,174.59,379.17z M194.5,377.31      c-0.25-2.75,1.77-5.18,4.52-5.44l0,0c2.74-0.26,5.181,1.76,5.44,4.51l0,0c0.26,2.75-1.771,5.19-4.521,5.45l0,0      c-0.149,0.01-0.31,0.02-0.47,0.02l0,0C196.92,381.85,194.74,379.9,194.5,377.31z M214.41,375.46c-0.25-2.75,1.77-5.19,4.52-5.45      l0,0c2.75-0.26,5.18,1.77,5.44,4.52l0,0c0.26,2.75-1.761,5.18-4.511,5.44l0,0c-0.159,0.01-0.31,0.02-0.47,0.02l0,0      C216.84,379.99,214.66,378.05,214.41,375.46z M234.33,373.6c-0.261-2.75,1.76-5.19,4.51-5.45l0,0c2.75-0.25,5.19,1.77,5.45,4.52      l0,0c0.25,2.75-1.771,5.18-4.521,5.44l0,0c-0.16,0.01-0.31,0.02-0.47,0.02l0,0C236.75,378.13,234.569,376.19,234.33,373.6z       M254.24,371.74c-0.25-2.75,1.77-5.19,4.51-5.45l0,0c2.76-0.25,5.189,1.77,5.45,4.52l0,0c0.26,2.75-1.761,5.19-4.521,5.44l0,0      c-0.149,0.02-0.31,0.02-0.47,0.02l0,0C256.66,376.27,254.479,374.33,254.24,371.74z M274.16,369.88      c-0.261-2.75,1.76-5.19,4.51-5.44l0,0c2.75-0.26,5.189,1.76,5.439,4.51l0,0c0.261,2.75-1.76,5.19-4.51,5.44l0,0      c-0.16,0.02-0.31,0.03-0.47,0.03l0,0C276.58,374.42,274.399,372.47,274.16,369.88z M294.069,368.02      c-0.26-2.75,1.761-5.19,4.511-5.44l0,0c2.75-0.26,5.189,1.76,5.439,4.51l0,0c0.261,2.75-1.76,5.19-4.51,5.44l0,0      c-0.15,0.02-0.31,0.03-0.47,0.03l0,0C296.49,372.56,294.31,370.61,294.069,368.02z M313.979,366.16      c-0.25-2.75,1.761-5.18,4.521-5.44l0,0c2.75-0.26,5.18,1.76,5.439,4.51l0,0c0.261,2.75-1.76,5.19-4.52,5.44l0,0      c-0.15,0.02-0.311,0.03-0.47,0.03l0,0C316.399,370.7,314.22,368.75,313.979,366.16z M333.899,364.3      c-0.26-2.75,1.761-5.18,4.511-5.44l0,0c2.75-0.26,5.189,1.76,5.439,4.51l0,0c0.26,2.75-1.76,5.19-4.51,5.45l0,0      c-0.16,0.01-0.32,0.02-0.47,0.02l0,0C336.31,368.84,334.14,366.89,333.899,364.3z M353.81,362.44      c-0.26-2.75,1.76-5.18,4.51-5.44l0,0c2.75-0.26,5.19,1.77,5.44,4.52l0,0c0.26,2.75-1.76,5.18-4.51,5.44l0,0      c-0.16,0.01-0.311,0.02-0.47,0.02l0,0C356.229,366.98,354.05,365.04,353.81,362.44z M373.72,360.59      c-0.25-2.75,1.76-5.19,4.521-5.45l0,0c2.75-0.25,5.18,1.77,5.439,4.52l0,0c0.26,2.75-1.76,5.18-4.51,5.44l0,0      c-0.16,0.01-0.32,0.02-0.48,0.02l0,0C376.14,365.12,373.96,363.18,373.72,360.59z" fill="#384169"/></g></g><g><g><path d="M17.02,75.46c-0.25-2.75,1.771-5.18,4.521-5.44l0,0c2.75-0.25,5.18,1.77,5.439,4.52l0,0      c0.25,2.75-1.77,5.18-4.52,5.44l0,0C22.3,79.99,22.149,80,21.99,80l0,0C19.439,80,17.26,78.05,17.02,75.46z M36.93,73.62      c-0.25-2.75,1.771-5.19,4.521-5.44l0,0c2.75-0.26,5.189,1.77,5.439,4.51l0,0c0.26,2.75-1.77,5.19-4.52,5.45l0,0      c-0.15,0.01-0.311,0.02-0.46,0.02l0,0C39.35,78.16,37.18,76.21,36.93,73.62z M56.85,71.77c-0.25-2.75,1.771-5.18,4.521-5.44l0,0      c2.75-0.25,5.18,1.77,5.439,4.52l0,0c0.25,2.75-1.77,5.19-4.52,5.44l0,0c-0.16,0.01-0.311,0.02-0.471,0.02l0,0      C59.27,76.31,57.09,74.36,56.85,71.77z M76.77,69.93c-0.26-2.75,1.761-5.19,4.511-5.44l0,0c2.75-0.25,5.189,1.77,5.439,4.52l0,0      c0.26,2.75-1.77,5.18-4.52,5.44l0,0c-0.15,0.01-0.311,0.02-0.46,0.02l0,0C79.189,74.47,77.01,72.52,76.77,69.93z M96.68,68.08      c-0.25-2.75,1.771-5.18,4.521-5.43l0,0c2.75-0.26,5.18,1.76,5.439,4.51l0,0c0.25,2.75-1.77,5.19-4.52,5.44l0,0      c-0.16,0.02-0.311,0.02-0.471,0.02l0,0C99.1,72.62,96.92,70.68,96.68,68.08z M116.59,66.24c-0.25-2.75,1.77-5.18,4.52-5.44l0,0      c2.75-0.25,5.19,1.77,5.44,4.52l0,0c0.26,2.75-1.77,5.18-4.52,5.44l0,0c-0.15,0.01-0.311,0.02-0.461,0.02l0,0      C119.01,70.78,116.83,68.83,116.59,66.24z M136.51,64.4c-0.26-2.75,1.771-5.19,4.521-5.44l0,0c2.739-0.26,5.18,1.76,5.439,4.52      l0,0c0.25,2.75-1.77,5.18-4.52,5.43l0,0c-0.16,0.02-0.311,0.03-0.471,0.03l0,0C138.93,68.94,136.75,66.99,136.51,64.4z       M156.42,62.55c-0.25-2.75,1.77-5.18,4.52-5.44l0,0c2.75-0.25,5.19,1.77,5.44,4.52l0,0c0.26,2.75-1.771,5.19-4.521,5.44l0,0      c-0.149,0.01-0.31,0.02-0.46,0.02l0,0C158.85,67.09,156.66,65.15,156.42,62.55z M176.34,60.71c-0.26-2.75,1.77-5.19,4.52-5.44      l0,0c2.75-0.26,5.181,1.77,5.44,4.52l0,0c0.25,2.75-1.77,5.18-4.52,5.44l0,0c-0.16,0.01-0.311,0.02-0.471,0.02l0,0      C178.76,65.25,176.58,63.3,176.34,60.71z" fill="#384169"/></g></g><g><g><path d="M98.02,247.46c-0.25-2.75,1.771-5.18,4.521-5.44l0,0c2.75-0.25,5.18,1.77,5.439,4.52l0,0      c0.25,2.75-1.77,5.18-4.52,5.44l0,0c-0.16,0.01-0.311,0.02-0.47,0.02l0,0C100.439,252,98.26,250.05,98.02,247.46z       M117.93,245.62c-0.25-2.75,1.771-5.19,4.521-5.44l0,0c2.75-0.26,5.189,1.77,5.439,4.51l0,0c0.26,2.76-1.77,5.19-4.51,5.45l0,0      c-0.16,0.01-0.32,0.02-0.47,0.02l0,0C120.35,250.16,118.17,248.21,117.93,245.62z M137.85,243.77      c-0.25-2.75,1.771-5.18,4.521-5.44l0,0c2.75-0.25,5.18,1.77,5.439,4.52l0,0c0.25,2.75-1.77,5.19-4.52,5.44l0,0      c-0.16,0.02-0.311,0.02-0.471,0.02l0,0C140.27,248.31,138.09,246.37,137.85,243.77z M157.77,241.93      c-0.26-2.75,1.761-5.19,4.511-5.44l0,0c2.75-0.26,5.189,1.77,5.439,4.52l0,0c0.26,2.75-1.77,5.18-4.52,5.44l0,0      c-0.15,0.01-0.311,0.02-0.46,0.02l0,0C160.189,246.47,158.01,244.52,157.77,241.93z M177.68,240.09      c-0.25-2.76,1.771-5.19,4.521-5.45l0,0c2.75-0.25,5.18,1.77,5.439,4.52l0,0c0.25,2.75-1.77,5.19-4.52,5.44l0,0      c-0.16,0.02-0.311,0.02-0.471,0.02l0,0C180.1,244.62,177.92,242.68,177.68,240.09z M197.59,238.24      c-0.25-2.75,1.77-5.18,4.52-5.44l0,0c2.75-0.25,5.19,1.77,5.44,4.52l0,0c0.26,2.75-1.77,5.18-4.52,5.44l0,0      c-0.15,0.01-0.311,0.02-0.461,0.02l0,0C200.01,242.78,197.83,240.83,197.59,238.24z M217.51,236.4      c-0.26-2.75,1.771-5.19,4.521-5.44l0,0c2.75-0.26,5.18,1.77,5.439,4.51l0,0c0.25,2.76-1.77,5.19-4.52,5.45l0,0      c-0.16,0.01-0.311,0.02-0.471,0.02l0,0C219.93,240.94,217.75,238.99,217.51,236.4z M237.42,234.55      c-0.25-2.75,1.77-5.18,4.52-5.44l0,0c2.75-0.25,5.19,1.77,5.44,4.52l0,0c0.26,2.75-1.771,5.18-4.521,5.44l0,0      c-0.149,0.02-0.31,0.02-0.46,0.02l0,0C239.84,239.09,237.66,237.15,237.42,234.55z M257.34,232.71      c-0.25-2.75,1.77-5.19,4.52-5.44l0,0c2.75-0.26,5.181,1.77,5.44,4.52l0,0c0.25,2.75-1.77,5.18-4.52,5.44l0,0      c-0.16,0.01-0.311,0.02-0.471,0.02l0,0C259.76,237.25,257.58,235.3,257.34,232.71z" fill="#384169"/></g></g><g><g><path d="M32.02,301.46c-0.25-2.75,1.771-5.18,4.521-5.44l0,0c2.74-0.25,5.18,1.77,5.439,4.52l0,0      c0.25,2.75-1.77,5.18-4.52,5.44l0,0c-0.16,0.01-0.311,0.02-0.47,0.02l0,0C34.439,306,32.26,304.06,32.02,301.46z M51.93,299.61      c-0.25-2.75,1.771-5.19,4.521-5.44l0,0c2.75-0.26,5.18,1.76,5.439,4.51l0,0c0.26,2.75-1.76,5.19-4.51,5.44l0,0      c-0.16,0.02-0.32,0.03-0.47,0.03l0,0C54.35,304.15,52.18,302.2,51.93,299.61z M71.85,297.76c-0.26-2.76,1.76-5.19,4.51-5.45l0,0      c2.75-0.25,5.19,1.77,5.45,4.52l0,0c0.25,2.75-1.77,5.18-4.52,5.44l0,0c-0.16,0.01-0.311,0.02-0.471,0.02l0,0      C74.27,302.29,72.09,300.35,71.85,297.76z M91.76,295.9c-0.25-2.75,1.771-5.18,4.521-5.44l0,0c2.75-0.26,5.18,1.76,5.439,4.51      l0,0c0.26,2.75-1.77,5.19-4.52,5.45l0,0c-0.15,0.01-0.311,0.02-0.471,0.02l0,0C94.18,300.44,92,298.49,91.76,295.9z       M111.68,294.04c-0.26-2.74,1.76-5.18,4.51-5.44l0,0c2.75-0.25,5.19,1.77,5.44,4.52l0,0c0.26,2.75-1.76,5.19-4.51,5.44l0,0      c-0.16,0.02-0.311,0.02-0.471,0.02l0,0C114.1,298.58,111.92,296.64,111.68,294.04z M131.59,292.19      c-0.26-2.75,1.77-5.18,4.52-5.44l0,0c2.74-0.26,5.181,1.76,5.44,4.52l0,0c0.25,2.74-1.77,5.18-4.52,5.44l0,0      c-0.16,0.01-0.311,0.02-0.471,0.02l0,0C134.01,296.73,131.83,294.78,131.59,292.19z M151.5,290.34      c-0.25-2.75,1.77-5.19,4.52-5.44l0,0c2.75-0.26,5.181,1.76,5.44,4.51l0,0c0.26,2.75-1.76,5.19-4.521,5.44l0,0      c-0.149,0.02-0.31,0.02-0.47,0.02l0,0C153.92,294.87,151.74,292.93,151.5,290.34z M171.42,288.48      c-0.26-2.75,1.76-5.18,4.51-5.44l0,0c2.75-0.25,5.19,1.77,5.44,4.51l0,0c0.26,2.76-1.761,5.19-4.511,5.45l0,0      c-0.159,0.01-0.319,0.02-0.47,0.02l0,0C173.84,293.02,171.66,291.08,171.42,288.48z M191.33,286.63      c-0.25-2.75,1.77-5.19,4.52-5.44l0,0c2.75-0.26,5.181,1.76,5.44,4.51l0,0c0.25,2.75-1.771,5.19-4.521,5.44l0,0      c-0.149,0.02-0.31,0.03-0.47,0.03l0,0C193.75,291.17,191.569,289.22,191.33,286.63z M211.24,284.77      c-0.25-2.75,1.77-5.18,4.52-5.44l0,0c2.75-0.25,5.18,1.77,5.44,4.52l0,0c0.26,2.75-1.761,5.18-4.511,5.44l0,0      c-0.159,0.01-0.319,0.02-0.47,0.02l0,0C213.67,289.31,211.49,287.37,211.24,284.77z M231.16,282.92      c-0.261-2.75,1.76-5.19,4.51-5.44l0,0c2.75-0.26,5.189,1.76,5.45,4.51l0,0c0.25,2.75-1.771,5.19-4.521,5.45l0,0      c-0.16,0.01-0.31,0.02-0.47,0.02l0,0C233.58,287.46,231.399,285.51,231.16,282.92z M251.069,281.06      c-0.25-2.74,1.771-5.18,4.521-5.44l0,0c2.75-0.25,5.18,1.77,5.44,4.52l0,0c0.26,2.75-1.771,5.18-4.521,5.44l0,0      c-0.15,0.01-0.31,0.02-0.47,0.02l0,0C253.49,285.6,251.31,283.66,251.069,281.06z M270.99,279.21      c-0.261-2.75,1.76-5.19,4.51-5.44l0,0c2.75-0.26,5.189,1.76,5.439,4.52l0,0c0.261,2.74-1.76,5.18-4.51,5.44l0,0      c-0.16,0.01-0.32,0.02-0.47,0.02l0,0C273.41,283.75,271.229,281.8,270.99,279.21z" fill="#384169"/></g></g><g><g><g><g><path d="M470.351,173.837c-1.279,0-2.56-0.488-3.535-1.464c-1.953-1.953-1.953-5.118,0-7.071l8.017-8.017        c1.951-1.952,5.119-1.952,7.07,0c1.953,1.953,1.953,5.118,0,7.071l-8.017,8.017        C472.91,173.349,471.63,173.837,470.351,173.837z" fill="#3F456B"/></g></g><g><g><path d="M442.987,201.18c-1.279,0-2.56-0.488-3.535-1.464c-1.953-1.953-1.953-5.119,0-7.071l8.018-8.017        c1.951-1.952,5.119-1.952,7.07,0c1.953,1.953,1.953,5.119,0,7.071l-8.018,8.017        C445.547,200.691,444.267,201.18,442.987,201.18z" fill="#3F456B"/></g></g></g><g><g><g><path d="M478.357,201.19c-1.279,0-2.56-0.488-3.535-1.464l-8.018-8.017c-1.953-1.953-1.953-5.118,0-7.071        c1.951-1.952,5.119-1.952,7.07,0l8.018,8.017c1.953,1.953,1.953,5.118,0,7.071C480.917,200.702,479.637,201.19,478.357,201.19        z" fill="#3F456B"/></g></g><g><g><path d="M451.015,173.827c-1.279,0-2.56-0.488-3.535-1.464l-8.018-8.017c-1.953-1.953-1.953-5.118,0-7.071        c1.951-1.952,5.119-1.952,7.07,0l8.018,8.017c1.953,1.953,1.953,5.118,0,7.071        C453.574,173.339,452.294,173.827,451.015,173.827z" fill="#3F456B"/></g></g></g></g><g><g><g><g><path d="M157.351,144.837c-1.279,0-2.56-0.488-3.535-1.464c-1.953-1.953-1.953-5.118,0-7.071l8.017-8.017        c1.951-1.952,5.119-1.952,7.07,0c1.953,1.953,1.953,5.118,0,7.071l-8.017,8.017        C159.91,144.349,158.63,144.837,157.351,144.837z" fill="#3F456B"/></g></g><g><g><path d="M129.987,172.18c-1.279,0-2.56-0.488-3.535-1.464c-1.953-1.953-1.953-5.119,0-7.071l8.018-8.017        c1.951-1.952,5.119-1.952,7.07,0c1.953,1.953,1.953,5.119,0,7.071l-8.018,8.017        C132.547,171.691,131.267,172.18,129.987,172.18z" fill="#3F456B"/></g></g></g><g><g><g><path d="M165.357,172.19c-1.279,0-2.56-0.488-3.535-1.464l-8.018-8.017c-1.953-1.953-1.953-5.118,0-7.071        c1.951-1.952,5.119-1.952,7.07,0l8.018,8.017c1.953,1.953,1.953,5.118,0,7.071C167.917,171.702,166.637,172.19,165.357,172.19        z" fill="#3F456B"/></g></g><g><g><path d="M138.015,144.827c-1.279,0-2.56-0.488-3.535-1.464l-8.018-8.017c-1.953-1.953-1.953-5.118,0-7.071        c1.951-1.952,5.119-1.952,7.07,0l8.018,8.017c1.953,1.953,1.953,5.118,0,7.071        C140.574,144.339,139.294,144.827,138.015,144.827z" fill="#3F456B"/></g></g></g></g><g><g><g><g><g><path d="M333.513,84.794c-0.661,0-1.333-0.132-1.979-0.411l-12.432-5.366         c-2.535-1.094-3.703-4.037-2.609-6.572c1.095-2.537,4.04-3.703,6.572-2.609l12.432,5.366         c2.535,1.094,3.703,4.037,2.609,6.572C337.291,83.664,335.448,84.794,333.513,84.794z" fill="#3F456B"/></g></g></g><g><g><g><path d="M387.256,63.062c-0.659,0-1.329-0.131-1.973-0.408c-2.537-1.09-3.71-4.031-2.619-6.568l5.135-11.943         c1.092-2.537,4.035-3.707,6.568-2.618c2.537,1.09,3.71,4.031,2.619,6.568l-5.135,11.943         C391.037,61.928,389.193,63.062,387.256,63.062z" fill="#3F456B"/></g></g></g><g><g><g><path d="M366.207,60.119c-2.503,0-4.664-1.875-4.961-4.421l-1.548-13.276         c-0.319-2.743,1.645-5.226,4.388-5.545c2.746-0.322,5.226,1.645,5.546,4.387l1.548,13.276         c0.319,2.743-1.645,5.226-4.388,5.545C366.596,60.108,366.399,60.119,366.207,60.119z" fill="#3F456B"/></g></g></g><g><g><g><path d="M346.714,67.969c-1.526,0-3.033-0.697-4.015-2.016l-8.042-10.806         c-1.649-2.215-1.189-5.347,1.025-6.996c2.214-1.648,5.348-1.189,6.996,1.026l8.042,10.807         c1.649,2.215,1.189,5.347-1.025,6.996C348.799,67.646,347.752,67.969,346.714,67.969z" fill="#3F456B"/></g></g></g></g><g><g><g><g><path d="M316.529,107.242c-2.503,0-4.663-1.875-4.961-4.421c-0.319-2.743,1.645-5.226,4.388-5.545         l12.379-1.444c2.737-0.32,5.226,1.645,5.546,4.387c0.319,2.743-1.645,5.226-4.388,5.545l-12.379,1.444         C316.918,107.231,316.723,107.242,316.529,107.242z" fill="#3F456B"/></g></g></g><g><g><g><path d="M326.858,133.237c-1.526,0-3.034-0.697-4.016-2.016c-1.648-2.215-1.188-5.348,1.027-6.996         l10.384-7.726c2.216-1.647,5.348-1.188,6.996,1.027c1.648,2.215,1.188,5.348-1.027,6.996l-10.384,7.726         C328.942,132.915,327.896,133.237,326.858,133.237z" fill="#3F456B"/></g></g></g><g><g><g><path d="M348.736,150.378c-0.659,0-1.329-0.131-1.973-0.408c-2.537-1.09-3.71-4.031-2.619-6.568l5.135-11.943         c1.092-2.537,4.033-3.708,6.568-2.618c2.537,1.09,3.71,4.031,2.619,6.568l-5.135,11.943         C352.518,149.245,350.674,150.378,348.736,150.378z" fill="#3F456B"/></g></g></g></g></g></g></g></svg>