<?xml version="1.0" ?><svg id="Lines" viewBox="0 0 512 512" xmlns="http://www.w3.org/2000/svg"><defs><style>.cls-1{fill:#3f456b;}</style></defs><title/><path class="cls-1" d="M68,418A5,5,0,0,1,64.93,417c-7-5.42-18.77-3.09-18.88-3.06a5,5,0,1,1-2.1-9.78c.67-.14,16.4-3.39,27.12,4.94A5,5,0,0,1,68,418Z"/><path class="cls-1" d="M97.48,177.86a12.52,12.52,0,0,1-4.49-.81c-2.11-.75-26.35-9.61-47.26-26.09-10.64-8.39-15.71-19.72-13.9-31.08A31.74,31.74,0,0,1,52.52,95.36c11.3-4.15,20.21-1.51,26.06,2.45,3-6.4,9.24-13.25,21.07-15.52A31.75,31.75,0,0,1,130,92.65c7.4,8.8,8.89,21.12,4.09,33.79-9.5,25.07-25.86,45.25-27.1,46.75A11.75,11.75,0,0,1,97.48,177.86Zm-.82-10.11a2.07,2.07,0,0,0,2.48-.74.69.69,0,0,1,.11-.13c.23-.29,16.46-20.13,25.5-44,3.53-9.32,2.68-17.78-2.4-23.82-4.81-5.73-13-8.46-20.82-7C86.84,94.93,86.32,106.54,86.3,107a5,5,0,0,1-3.66,4.67l-.39.11a5,5,0,0,1-5.55-2.11c-.66-1-7.15-9.94-20.73-5-7.49,2.75-13.09,9.3-14.26,16.7-1.25,7.79,2.38,15.48,10.21,21.65C72,158.93,96.19,167.58,96.43,167.66A1.1,1.1,0,0,1,96.66,167.75Z"/><path class="cls-1" d="M418.8,500.49a12.68,12.68,0,0,1-8.66-3.59c-1.63-1.53-20.27-19.38-32.81-42.88-6.37-11.95-6.47-24.36-.25-34a31.78,31.78,0,0,1,28.8-14.15c12,.74,19.11,6.74,22.88,12.71,5.29-4.67,13.79-8.43,25.53-5.75a31.76,31.76,0,0,1,23.65,21.67c3.24,11-.35,22.92-9.83,32.6-18.76,19.14-41.85,31.05-43.59,31.93A12,12,0,0,1,418.8,500.49Zm-1.56-10.64a2.05,2.05,0,0,0,2.56.32l.15-.08h0c.23-.11,23.12-11.78,41-30,7-7.12,9.59-15.21,7.37-22.78-2.11-7.18-8.5-13-16.28-14.74-14.1-3.21-19.4,6.47-19.95,7.59a5.08,5.08,0,0,1-5.21,2.76l-.4-.06a5,5,0,0,1-4.23-4.16c-.21-1.18-2.57-12-17-12.85-8-.49-15.72,3.26-19.76,9.56-4.27,6.64-4,15.14.66,23.94,12.06,22.61,30.71,40.19,30.9,40.36S417.16,489.76,417.24,489.85Z"/><path class="cls-1" d="M122,259a5,5,0,0,1-4.83-3.72c-.23-.9-5.62-22.3,11.72-36.17,22.38-17.91,54.29-5.63,64.69.61,16.32,9.79,33.52,16,49.75,18,18.7,2.25,35.43-1.1,49.73-10,22.39-13.92,43.31-37.11,63.93-70.87,16.09-26.32,29.09-56.33,39.77-91.73,3-10,5.84-20.51,8.37-31.19.63-2.95,4-17,12.21-21.25a10.91,10.91,0,0,1,9.67-.23c4.75,2.08,8.45,7.37,10.69,15.3,4,14.13,3,35-2.86,57.26-7.32,28-22.09,58.54-42.72,88.25a5,5,0,0,1-8.22-5.71c46.53-67,49.67-117.69,44.18-137.08-1.58-5.59-3.72-8.27-5.07-8.86-.64-.28-.85-.17-1.1,0C419,23,416,30.91,414.89,36a.52.52,0,0,0,0,.11C412.28,47,409.41,57.75,406.33,68c-10.93,36.23-24.28,67-40.81,94.05-21.46,35.13-43.44,59.38-67.19,74.15-16.28,10.12-35.19,14-56.21,11.42-17.61-2.13-36.18-8.81-53.69-19.31-8.75-5.25-35.38-15.73-53.31-1.39-12.19,9.76-8.44,25.2-8.28,25.85A5,5,0,0,1,122,259Z"/><path class="cls-1" d="M405.76,195.42a5,5,0,0,1-3.65-8.41c29.68-31.72,42.68-62.09,48.35-82,6.61-23.13,5.37-40,2.46-44.15-1.26-1.77-3.7-4.72-6-4.57-3.26.22-7,5.4-8.21,7.73a5,5,0,1,1-8.87-4.61c.66-1.27,6.72-12.44,16.4-13.1,5.5-.37,10.51,2.58,14.88,8.79,6,8.46,5.57,29.62-1,52.65-6,21-19.62,52.9-50.67,86.07A5,5,0,0,1,405.76,195.42Z"/><path class="cls-1" d="M418.86,223.7a5,5,0,0,1-3-9,162.18,162.18,0,0,0,47.92-59.07C473.9,134.43,476.7,116.93,476,108.4c-.37-4.62-1.65-10.69-5.62-13.33s-8.92-1.07-9-1.06a5,5,0,1,1-3.11-9.5c.39-.13,9.66-3.07,17.63,2.23,5.86,3.91,9.24,10.93,10,20.86,1.75,21.88-15.25,78.09-64.1,115.08A4.94,4.94,0,0,1,418.86,223.7Z"/><path class="cls-1" d="M418,255.35a5,5,0,0,1-2.06-9.56c29.13-13.2,51.16-33.86,60.43-56.67,11.41-28.09-5.15-40.85-5.32-41a5,5,0,1,1,6-8c.94.7,22.89,17.57,8.6,52.75-10.22,25.16-34.12,47.77-65.57,62A5,5,0,0,1,418,255.35Z"/><path class="cls-1" d="M404.37,286.75a5,5,0,0,1-.95-9.9c20.49-4,35.86-11.64,47-23.3,16.88-17.72,7.54-30.58,7.45-30.71a5,5,0,1,1,8-6,26.82,26.82,0,0,1,4.58,13.31c.58,7.11-1.16,18.13-12.77,30.32-12.58,13.21-29.68,21.78-52.28,26.21A5.31,5.31,0,0,1,404.37,286.75Z"/><path class="cls-1" d="M385.14,314.15q-3.12,0-6.39-.16a5,5,0,1,1,.5-10c20.44,1,35.44-3.05,44.56-12.05a31,31,0,0,0,9.26-21.57,5,5,0,0,1,10-.43,41.2,41.2,0,0,1-12.06,29C420.85,309,405.44,314.15,385.14,314.15Z"/><path class="cls-1" d="M328.49,208.38a5,5,0,0,1-3.66-1.59c-47.24-50.6-71.26-120.72-83.09-170.64a.36.36,0,0,0,0-.11c-1.1-5.13-4.15-13-7-14.5-.25-.13-.46-.24-1.1,0C232.2,22.2,230,25,228.39,31c-5.59,20.88-1.22,75,50.63,145.36a5,5,0,1,1-8,5.93c-23.34-31.68-39.52-63-48.09-93.25-6.67-23.48-8.18-45.58-4.15-60.62,2.23-8.31,6-13.83,10.88-16a10.91,10.91,0,0,1,9.67.23c8.18,4.2,11.58,18.3,12.21,21.25C263,82.64,286.41,151,332.14,200a5,5,0,0,1-3.65,8.42Z"/><path class="cls-1" d="M251,198.26a5,5,0,0,1-3.61-1.54c-57.68-60.19-62.5-126.54-51.87-141.6,4.38-6.21,9.39-9.16,14.89-8.79,9.68.66,15.74,11.83,16.4,13.1A5,5,0,0,1,218,64.05h0c-1.59-3-5.3-7.55-8.23-7.74-2.34-.17-4.77,2.8-6,4.57-3.08,4.37-4.67,21.81,1.69,45.38,5.52,20.44,18.54,51.51,49.23,83.54a5,5,0,0,1-3.61,8.46Z"/><path class="cls-1" d="M225.91,213.8a5,5,0,0,1-3.38-1.32,173.7,173.7,0,0,1-41.25-58.12c-7.61-17.53-11.59-35-10.65-46.76.78-9.83,4.14-16.63,10-20.21,8.25-5.06,17.88-1.18,18.29-1a5,5,0,0,1-3.79,9.25c-.18-.07-5.49-2.07-9.32.31-3.66,2.28-4.85,8-5.21,12.46-1.21,15.13,9.38,60.49,48.71,96.72a5,5,0,0,1-3.39,8.68Z"/><path class="cls-1" d="M212,239a4.94,4.94,0,0,1-2.84-.89C190.11,225,178.34,211,171,192.88c-14.29-35.18,7.66-52,8.6-52.75a5,5,0,0,1,6,8c-.74.57-16.6,13.27-5.34,41,6.67,16.42,17,28.61,34.6,40.77A5,5,0,0,1,212,239Z"/><path class="cls-1" d="M152.85,246.72a5,5,0,0,1-.74-9.94l1-.15a5,5,0,0,1,1.49,9.89l-1,.15A6.3,6.3,0,0,1,152.85,246.72Z"/><path class="cls-1" d="M94,324.89A16.28,16.28,0,0,1,86.08,323a17.94,17.94,0,0,1-8.22-10.76L56.77,236.84a5,5,0,0,1,9.64-2.69L87.5,309.58c0,.06,0,.12,0,.17h0a8.17,8.17,0,0,0,3.39,4.48c2,1.08,4.91.55,5.54.36l75.79-21.7A5,5,0,0,1,175,302.5L99.29,324.19A19.58,19.58,0,0,1,94,324.89Z"/><path class="cls-1" d="M19.56,316.38a5,5,0,0,1-1.38-9.81l58.14-16.64a5,5,0,1,1,2.75,9.61L20.94,316.19A5.1,5.1,0,0,1,19.56,316.38Z"/><path class="cls-1" d="M131.26,378.39a5,5,0,0,1-4.81-3.65L110.08,316.2a5,5,0,1,1,9.63-2.69l16.37,58.54a5,5,0,0,1-3.47,6.16A5.22,5.22,0,0,1,131.26,378.39Z"/><path class="cls-1" d="M128.85,379.75a14.83,14.83,0,0,1-7.23-1.88L21.07,322.05a15,15,0,0,1-5.83-20.39L51,237.25a15,15,0,0,1,20.39-5.83l39.11,21.71a5,5,0,0,1-4.85,8.74L66.53,240.16a5,5,0,0,0-6.8,2L24,306.51a5,5,0,0,0,1.94,6.8l100.55,55.81a5,5,0,0,0,6.8-1.94L169,302.78a5,5,0,0,0-1.94-6.8l-40.59-22.53a5,5,0,1,1,4.85-8.75l40.59,22.54a15,15,0,0,1,5.83,20.39L142,372a15.09,15.09,0,0,1-13.16,7.72Z"/><path class="cls-1" d="M459.29,395H457.9c-26.56-.55-43.53-13.08-53.08-23.49A79.42,79.42,0,0,1,394.3,357c-11.4,13.11-31,18.53-32,18.79l-.16,0a177.58,177.58,0,0,1-40.46,5c-56.45,0-84.12-33.67-105.33-59.49-3.85-4.69-7.48-9.11-11.06-13.07-27-29.93-50.07-33.43-69.53-34.36-18.6-.89-29.47,7.78-29.58,7.87A5,5,0,0,1,98,278c0-26.09,20.48-34.55,21.35-34.9a5,5,0,0,1,3.7,9.3,26,26,0,0,0-13.75,16.29A60.22,60.22,0,0,1,136.24,264c21.47,1,46.86,4.85,76.47,37.64,3.74,4.13,7.44,8.64,11.36,13.42,25.43,30.94,57.07,69.45,135.69,51.08,1.37-.38,24-7,30.72-21.28a5,5,0,0,1,9.23.45c.57,1.57,14.56,38.77,58.39,39.68,11.4.25,20.06-3,25.78-9.57,9-10.39,9.15-26.67,8.63-34.34-66.19.53-90.44-29.71-91.46-31a5,5,0,0,1,7.89-6.14c.3.38,23.79,29,87.91,27.08a5,5,0,0,1,5.08,4.19c.2,1.19,4.61,29.39-10.5,46.79C483.92,390.63,473.11,395,459.29,395Z"/><path class="cls-1" d="M475.2,368.43c-37.53,0-54.82-16-55.65-16.81a5,5,0,0,1,6.88-7.26c.29.27,21.33,19.21,67.88,12.69a5,5,0,0,1,1.38,9.9A147.17,147.17,0,0,1,475.2,368.43Z"/><path class="cls-1" d="M318.57,406.61a133.3,133.3,0,0,1-38.78-5.83c-23.6-7.18-38.23-18.35-38.85-18.82a5,5,0,0,1,6.11-7.92h0c.14.1,14.06,10.67,36,17.29,29.21,8.79,58.09,6.81,85.85-5.88a5,5,0,0,1,4.16,9.1A130.15,130.15,0,0,1,318.57,406.61Z"/><path class="cls-1" d="M460,291a5,5,0,0,1-2.23-9.47c35-17.48,28.82-58.32,28.75-58.73a5,5,0,1,1,9.88-1.6,77.24,77.24,0,0,1-1.27,26.64c-4.3,19.3-15.67,34-32.9,42.63A4.94,4.94,0,0,1,460,291Z"/><path class="cls-1" d="M184.8,484.5a5.15,5.15,0,0,1-1.48-.23H54.17a6.75,6.75,0,0,1-1.81.21A40.72,40.72,0,0,1,42.15,404.7c-.07-.82-.1-1.64-.1-2.46a31.86,31.86,0,0,1,51-25.45,55.76,55.76,0,0,1,11.45-14.61,5,5,0,1,1,6.73,7.4A45.49,45.49,0,0,0,99.36,387a5,5,0,0,1-8.54,1.4,21.86,21.86,0,0,0-38.77,13.84,21.39,21.39,0,0,0,.61,5.11,5,5,0,0,1-4,6.12,30.71,30.71,0,0,0,3.49,61,6.57,6.57,0,0,1,1.56-.19h130.8a5.13,5.13,0,0,1,1.41.19,26.94,26.94,0,0,0,25.9-27,27.27,27.27,0,0,0-22.4-26.87,5,5,0,0,1-3.95-6.17,45.25,45.25,0,0,0-39.15-56.33,5,5,0,1,1,1-9.95,55,55,0,0,1,49.58,54.94,56.71,56.71,0,0,1-.72,8.93,37.18,37.18,0,0,1-11.23,72.52Zm0-10h0Z"/><path class="cls-1" d="M149,434a5,5,0,0,1-4-7.94c14.35-19.74,38.5-18.21,49.26-14.64a5,5,0,0,1-3.14,9.49c-1-.33-24.45-7.65-38,11A5,5,0,0,1,149,434Z"/></svg>