<?xml version="1.0" ?><svg viewBox="0 0 512 512" xmlns="http://www.w3.org/2000/svg"><defs><style>.cls-1{fill:#3f456b;}</style></defs><title/><g id="Lines"><path class="cls-1" d="M463.69,499H48.31A37.36,37.36,0,0,1,11,461.69V132.31A37.36,37.36,0,0,1,48.31,95H463.69A37.36,37.36,0,0,1,501,132.31V461.69A37.36,37.36,0,0,1,463.69,499ZM48.31,105A27.34,27.34,0,0,0,21,132.31V461.69A27.34,27.34,0,0,0,48.31,489H463.69A27.34,27.34,0,0,0,491,461.69V132.31A27.34,27.34,0,0,0,463.69,105Z"/><path class="cls-1" d="M441,225H67a15,15,0,0,1-15-15V151a15,15,0,0,1,15-15H441a15,15,0,0,1,15,15v59A15,15,0,0,1,441,225ZM67,146a5,5,0,0,0-5,5v59a5,5,0,0,0,5,5H441a5,5,0,0,0,5-5V151a5,5,0,0,0-5-5Z"/></g><g id="Outline"><path class="cls-1" d="M194.05,81a5,5,0,0,1-3.15-8.88c.09-.08,8.68-9.2-1.27-23.35-10.52-15-4.18-29.41.65-35a5,5,0,0,1,7.57,6.54,19.17,19.17,0,0,0-3.39,7c-1.37,5.31-.25,10.6,3.35,15.72,12.17,17.31,4.68,32.56-.6,36.86A5,5,0,0,1,194.05,81Z"/><path class="cls-1" d="M132.2,81A5,5,0,0,1,129,72.12c.09-.08,8.68-9.2-1.27-23.35-10.52-15-4.18-29.41.65-35A5,5,0,0,1,136,20.35a19.36,19.36,0,0,0-3.39,7c-1.37,5.31-.25,10.6,3.35,15.72,12.17,17.31,4.68,32.56-.6,36.86A5,5,0,0,1,132.2,81Z"/><path class="cls-1" d="M255.91,81a5,5,0,0,1-3.16-8.88c.09-.08,8.69-9.2-1.27-23.35-10.51-15-4.17-29.41.66-35a5,5,0,0,1,7.56,6.54,19.43,19.43,0,0,0-3.38,7c-1.38,5.31-.25,10.6,3.34,15.72,12.18,17.31,4.69,32.56-.6,36.86A5,5,0,0,1,255.91,81Z"/><path class="cls-1" d="M318.05,81a5,5,0,0,1-3.15-8.88c.09-.08,8.68-9.2-1.27-23.35-10.52-15-4.18-29.41.65-35a5,5,0,0,1,7.57,6.54,19.17,19.17,0,0,0-3.39,7c-1.37,5.31-.25,10.6,3.35,15.72,12.17,17.31,4.68,32.56-.6,36.86A5,5,0,0,1,318.05,81Z"/><path class="cls-1" d="M379.91,81a5,5,0,0,1-3.16-8.88c.09-.08,8.69-9.2-1.27-23.35-10.51-15-4.17-29.41.66-35a5,5,0,0,1,7.56,6.54,19.43,19.43,0,0,0-3.38,7c-1.38,5.31-.25,10.6,3.34,15.72,12.18,17.31,4.69,32.56-.6,36.86A5,5,0,0,1,379.91,81Z"/><path class="cls-1" d="M86,225a5,5,0,0,1-5-5V142a5,5,0,0,1,10,0v78A5,5,0,0,1,86,225Z"/><path class="cls-1" d="M337,225a5,5,0,0,1-5-5V142a5,5,0,0,1,10,0v78A5,5,0,0,1,337,225Z"/><path class="cls-1" d="M309,225a5,5,0,0,1-5-5V142a5,5,0,0,1,10,0v78A5,5,0,0,1,309,225Z"/><path class="cls-1" d="M281,225a5,5,0,0,1-5-5V142a5,5,0,0,1,10,0v78A5,5,0,0,1,281,225Z"/><path class="cls-1" d="M393,225a5,5,0,0,1-5-5V142a5,5,0,0,1,10,0v78A5,5,0,0,1,393,225Z"/><path class="cls-1" d="M365,225a5,5,0,0,1-5-5V142a5,5,0,0,1,10,0v78A5,5,0,0,1,365,225Z"/><path class="cls-1" d="M421,225a5,5,0,0,1-5-5V142a5,5,0,0,1,10,0v78A5,5,0,0,1,421,225Z"/><path class="cls-1" d="M253,225a5,5,0,0,1-5-5V142a5,5,0,0,1,10,0v78A5,5,0,0,1,253,225Z"/><path class="cls-1" d="M225,225a5,5,0,0,1-5-5V142a5,5,0,0,1,10,0v78A5,5,0,0,1,225,225Z"/><path class="cls-1" d="M198,225a5,5,0,0,1-5-5V142a5,5,0,0,1,10,0v78A5,5,0,0,1,198,225Z"/><path class="cls-1" d="M170,225a5,5,0,0,1-5-5V142a5,5,0,0,1,10,0v78A5,5,0,0,1,170,225Z"/><path class="cls-1" d="M142,225a5,5,0,0,1-5-5V142a5,5,0,0,1,10,0v78A5,5,0,0,1,142,225Z"/><path class="cls-1" d="M114,225a5,5,0,0,1-5-5V142a5,5,0,0,1,10,0v78A5,5,0,0,1,114,225Z"/><path class="cls-1" d="M54,448a5,5,0,0,1,5-5h0a5,5,0,0,1,5,5h0a5,5,0,0,1-5,5h0A5,5,0,0,1,54,448Zm0-20a5,5,0,0,1,5-5h0a5,5,0,0,1,5,5h0a5,5,0,0,1-5,5h0A5,5,0,0,1,54,428Zm0-20a5,5,0,0,1,5-5h0a5,5,0,0,1,5,5h0a5,5,0,0,1-5,5h0A5,5,0,0,1,54,408Zm0-20a5,5,0,0,1,5-5h0a5,5,0,0,1,5,5h0a5,5,0,0,1-5,5h0A5,5,0,0,1,54,388Zm0-20a5,5,0,0,1,5-5h0a5,5,0,0,1,5,5h0a5,5,0,0,1-5,5h0A5,5,0,0,1,54,368Zm0-20a5,5,0,0,1,5-5h0a5,5,0,0,1,5,5h0a5,5,0,0,1-5,5h0A5,5,0,0,1,54,348Zm0-20a5,5,0,0,1,5-5h0a5,5,0,0,1,5,5h0a5,5,0,0,1-5,5h0A5,5,0,0,1,54,328Zm0-20a5,5,0,0,1,5-5h0a5,5,0,0,1,5,5h0a5,5,0,0,1-5,5h0A5,5,0,0,1,54,308Zm0-20a5,5,0,0,1,5-5h0a5,5,0,0,1,5,5h0a5,5,0,0,1-5,5h0A5,5,0,0,1,54,288Z"/><path class="cls-1" d="M445,448a5,5,0,0,1,5-5h0a5,5,0,0,1,5,5h0a5,5,0,0,1-5,5h0A5,5,0,0,1,445,448Zm0-20a5,5,0,0,1,5-5h0a5,5,0,0,1,5,5h0a5,5,0,0,1-5,5h0A5,5,0,0,1,445,428Zm0-20a5,5,0,0,1,5-5h0a5,5,0,0,1,5,5h0a5,5,0,0,1-5,5h0A5,5,0,0,1,445,408Zm0-20a5,5,0,0,1,5-5h0a5,5,0,0,1,5,5h0a5,5,0,0,1-5,5h0A5,5,0,0,1,445,388Zm0-20a5,5,0,0,1,5-5h0a5,5,0,0,1,5,5h0a5,5,0,0,1-5,5h0A5,5,0,0,1,445,368Zm0-20a5,5,0,0,1,5-5h0a5,5,0,0,1,5,5h0a5,5,0,0,1-5,5h0A5,5,0,0,1,445,348Zm0-20a5,5,0,0,1,5-5h0a5,5,0,0,1,5,5h0a5,5,0,0,1-5,5h0A5,5,0,0,1,445,328Zm0-20a5,5,0,0,1,5-5h0a5,5,0,0,1,5,5h0a5,5,0,0,1-5,5h0A5,5,0,0,1,445,308Zm0-20a5,5,0,0,1,5-5h0a5,5,0,0,1,5,5h0a5,5,0,0,1-5,5h0A5,5,0,0,1,445,288Z"/></g></svg>