<svg id="Capa_1" enable-background="new 0 0 510 510" height="512" viewBox="0 0 510 510" width="512" xmlns="http://www.w3.org/2000/svg" xmlns:xlink="http://www.w3.org/1999/xlink"><linearGradient id="lg1"><stop offset="0" stop-color="#fd8087"/><stop offset=".5213" stop-color="#fb2b3a"/><stop offset="1" stop-color="#d90d80"/></linearGradient><linearGradient id="SVGID_1_" gradientUnits="userSpaceOnUse" x1="-8.26" x2="508.137" xlink:href="#lg1" y1="255" y2="255"/><linearGradient id="SVGID_2_" gradientUnits="userSpaceOnUse" x1="-97.865" x2="434.042" xlink:href="#lg1" y1="58.6" y2="58.6"/><linearGradient id="SVGID_3_" gradientUnits="userSpaceOnUse" x1="-97.865" x2="434.042" xlink:href="#lg1" y1="179.479" y2="179.479"/><linearGradient id="SVGID_4_" gradientUnits="userSpaceOnUse" x1="-97.865" x2="434.042" xlink:href="#lg1" y1="334.421" y2="334.421"/><linearGradient id="SVGID_5_" gradientUnits="userSpaceOnUse" x1="-97.865" x2="434.042" xlink:href="#lg1" y1="278.678" y2="278.678"/><linearGradient id="SVGID_6_" gradientUnits="userSpaceOnUse" x1="-97.865" x2="434.042" xlink:href="#lg1" y1="255" y2="255"/><g><circle cx="255" cy="255" fill="url(#SVGID_1_)" r="255"/><g><circle cx="216.966" cy="58.6" fill="url(#SVGID_2_)" r="38.781"/><circle cx="125.919" cy="179.479" fill="url(#SVGID_3_)" r="36.081"/><circle cx="204.238" cy="334.421" fill="url(#SVGID_4_)" r="26.053"/><path d="m168.449 263.349c-4.233-10.941-16.157-16.751-27.408-13.428-20.665 6.103-40.9 10.724-60.293 13.754-11.442 1.788-19.612 12.034-18.894 23.593.822 13.236 12.854 22.881 25.955 20.824 21.367-3.355 43.562-8.423 66.135-15.088 12.569-3.711 19.235-17.43 14.507-29.652z" fill="url(#SVGID_5_)"/><path d="m255 0c-6.73 0-13.41.27-20.01.78.66.05 1.34.11 2.02.18 49.06 4.84 64.46 69.03 23.35 96.23-.47.31-.99.66-1.54 1.04-11.24 7.68-13.42 23.38-4.71 33.84 4.55 5.45 11.12 8.31 17.77 8.31 4.49 0 9.02-1.31 12.98-4.02 30.59-20.95 63.53-51.67 79.04-67.23 6.92-6.94 18.08-7.08 25.23-.38.09.07.17.15.26.23 6.61 6.21 7.57 16.41 2.27 23.76-4.44 6.15-9.51 12.43-15.18 18.76-29.01 32.42-70.43 63.62-119.04 89.98-10.47 5.68-14.72 18.52-9.68 29.31 3.84 8.22 11.97 12.96 20.41 12.96 3.64 0 7.35-.88 10.79-2.75 47.39-25.75 88.82-55.99 120.16-87.89.8-.81 2.37-2.53 4.41-4.82 13.65-15.36 38.58-11.12 46.56 7.82.08.18.16.37.23.56 3.91 9.32 2.38 20.03-3.87 27.97-3.03 3.84-6.3 7.72-9.79 11.63-36.38 40.65-92.26 79.39-157.36 109.08-3.76 1.71-7.52 3.38-11.27 5.01-10.92 4.72-16.26 17.13-12.28 28.33.89 2.51 1.32 5.08 1.32 7.61 0 9.37-5.84 18.15-15.2 21.37-16.55 5.69-32.94 10.49-48.95 14.33-13.51 3.24-20.78 17.95-15.28 30.72 3.61 8.38 11.82 13.6 20.63 13.6 1.74 0 3.51-.21 5.26-.63 36.33-8.72 74.19-21.85 111.58-38.9.6-.28 1.2-.55 1.8-.83 49.59-22.79 89.63 45.94 45.06 77.43-36.44 25.75-79.92 42.18-126.98 45.83 6.6.51 13.28.78 20.01.78 140.83 0 255-114.17 255-255s-114.17-255-255-255zm165.52 360.47c-19.92 0-36.08-16.15-36.08-36.08 0-19.92 16.16-36.08 36.08-36.08 19.93 0 36.08 16.16 36.08 36.08 0 19.93-16.15 36.08-36.08 36.08z" fill="url(#SVGID_6_)"/></g></g></svg>