<?xml version="1.0" ?><svg viewBox="0 0 512 512" xmlns="http://www.w3.org/2000/svg"><defs><style>.cls-1{fill:#3f456b;}</style></defs><title/><g id="Lines"><path class="cls-1" d="M255.55,491.92c-114.94,0-208.44-93.51-208.44-208.44S140.61,75,255.55,75,464,168.54,464,283.48,370.49,491.92,255.55,491.92Zm0-406.89c-109.42,0-198.44,89-198.44,198.45s89,198.44,198.44,198.44S454,392.9,454,283.48,365,85,255.55,85Z"/><path class="cls-1" d="M255.55,452.54c-93.22,0-169.06-75.84-169.06-169.06s75.84-169.06,169.06-169.06,169.06,75.84,169.06,169.06S348.77,452.54,255.55,452.54Zm0-328.12c-87.71,0-159.06,71.35-159.06,159.06s71.35,159.06,159.06,159.06,159.06-71.36,159.06-159.06S343.25,124.42,255.55,124.42Z"/><path class="cls-1" d="M255.55,68.39a28.7,28.7,0,1,1,28.7-28.69A28.73,28.73,0,0,1,255.55,68.39Zm0-47.39a18.7,18.7,0,1,0,18.7,18.7A18.72,18.72,0,0,0,255.55,21Z"/><path class="cls-1" d="M255,85a5,5,0,0,1-5-5V65a5,5,0,0,1,10,0V80A5,5,0,0,1,255,85Z"/><path class="cls-1" d="M59.08,151.62a5.25,5.25,0,0,1-.79-.06,5,5,0,0,1-3.26-2,75.71,75.71,0,1,1,122.5-89,5,5,0,0,1-1.11,7L62,150.67A5,5,0,0,1,59.08,151.62ZM116.23,39.29a65.7,65.7,0,0,0-55.9,100.24l106-77a65.12,65.12,0,0,0-39.84-22.42A66.12,66.12,0,0,0,116.23,39.29Z"/><path class="cls-1" d="M96.13,501.5a5,5,0,0,1-4-8l37.68-49.14a5,5,0,0,1,7.94,6.09L100.1,499.54A5,5,0,0,1,96.13,501.5Z"/><path class="cls-1" d="M415,501.5a5,5,0,0,1-4-2l-37.41-48.78a5,5,0,1,1,7.93-6.08L419,493.46a5,5,0,0,1-4,8Z"/><path class="cls-1" d="M128.22,127.46a5,5,0,0,1-4-1.95L111.66,109.1A5,5,0,0,1,119.6,103l12.58,16.41a5,5,0,0,1-.93,7A4.91,4.91,0,0,1,128.22,127.46Z"/><path class="cls-1" d="M449.33,151.62a5,5,0,0,1-2.93-1L332,67.55a5,5,0,0,1-1.11-7,75.71,75.71,0,1,1,122.5,89,5,5,0,0,1-3.26,2A5.25,5.25,0,0,1,449.33,151.62ZM342.06,62.51l106,77a65.7,65.7,0,0,0-106-77Z"/><path class="cls-1" d="M380.19,127.46a4.91,4.91,0,0,1-3-1,5,5,0,0,1-.93-7L388.81,103a5,5,0,0,1,7.94,6.09l-12.58,16.41A5,5,0,0,1,380.19,127.46Z"/><path class="cls-1" d="M255,289H164a5,5,0,0,1,0-10h87.4l32.48-99.62a5,5,0,0,1,9.51,3.1L259.78,285.55A5,5,0,0,1,255,289Z"/></g><g id="Outline"><path class="cls-1" d="M399,288H387.09a5,5,0,1,1,0-10H399a5,5,0,0,1,0,10Z"/><path class="cls-1" d="M128.07,288H116.15a5,5,0,1,1,0-10h11.92a5,5,0,0,1,0,10Z"/><path class="cls-1" d="M257.58,429.43a5,5,0,0,1-5-5V412.9a5,5,0,0,1,10,0v11.53A5,5,0,0,1,257.58,429.43Z"/><path class="cls-1" d="M257.58,157.35a5,5,0,0,1-5-5V141.58a5,5,0,0,1,10,0v10.77A5,5,0,0,1,257.58,157.35Z"/><path class="cls-1" d="M369.74,223.25a5,5,0,0,1-2.5-9.33L377.55,208a5,5,0,0,1,5,8.66l-10.31,6A4.94,4.94,0,0,1,369.74,223.25Z"/><path class="cls-1" d="M135.11,358.72a5,5,0,0,1-2.51-9.33l10.32-6a5,5,0,1,1,5,8.66l-10.32,6A5,5,0,0,1,135.11,358.72Z"/><path class="cls-1" d="M328.29,410.48A5,5,0,0,1,324,408l-5.77-10a5,5,0,0,1,8.66-5l5.77,10a5,5,0,0,1-1.83,6.83A4.94,4.94,0,0,1,328.29,410.48Z"/><path class="cls-1" d="M192.25,174.85a5,5,0,0,1-4.33-2.5L182.54,163a5,5,0,1,1,8.66-5l5.38,9.32a5,5,0,0,1-1.83,6.83A4.94,4.94,0,0,1,192.25,174.85Z"/><path class="cls-1" d="M322.33,175.85a5,5,0,0,1-4.33-7.5L324,158a5,5,0,0,1,8.66,5l-6,10.32A5,5,0,0,1,322.33,175.85Z"/><path class="cls-1" d="M186.86,410.48a4.88,4.88,0,0,1-2.49-.67,5,5,0,0,1-1.83-6.83l6-10.31a5,5,0,0,1,8.66,5l-6,10.31A5,5,0,0,1,186.86,410.48Z"/><path class="cls-1" d="M380.05,358.72a5,5,0,0,1-2.5-.67l-10-5.76a5,5,0,0,1,5-8.67l10,5.77a5,5,0,0,1-2.5,9.33Z"/><path class="cls-1" d="M144.42,222.68a5,5,0,0,1-2.5-.67l-9.32-5.38a5,5,0,0,1,5-8.66l9.32,5.38a5,5,0,0,1-2.5,9.33Z"/><path class="cls-1" d="M487.22,251.5a5,5,0,0,1-3.28-8.78c.91-.81,2.82-3.13,2.72-4.92-.06-1-.89-2.1-2.47-3.22-5.35-3.78-6.59-8.05-6.69-11-.24-7,5.61-11.94,6.27-12.49a5,5,0,0,1,6.36,7.72c-.86.73-2.7,2.85-2.64,4.44.05,1.18,1.38,2.35,2.47,3.13,5.26,3.72,6.54,8,6.68,10.9.36,7.1-5.48,12.38-6.15,13A5,5,0,0,1,487.22,251.5Z"/><path class="cls-1" d="M487.5,283.5a5,5,0,0,1-3.28-8.77c.91-.82,2.82-3.14,2.72-4.93-.06-1-.89-2.1-2.47-3.22-5.35-3.78-6.59-8.05-6.69-11-.24-7,5.61-11.94,6.27-12.49a5,5,0,0,1,6.36,7.72c-.86.73-2.7,2.84-2.63,4.44.05,1.18,1.37,2.35,2.47,3.13,5.25,3.72,6.53,8,6.68,10.9.35,7.1-5.49,12.38-6.15,13A5,5,0,0,1,487.5,283.5Z"/><path class="cls-1" d="M487.78,315.5a5,5,0,0,1-3.28-8.78c.92-.81,2.82-3.13,2.72-4.92-.06-1-.89-2.1-2.47-3.22-5.34-3.78-6.59-8.05-6.69-11-.24-7,5.61-11.95,6.28-12.49a5,5,0,0,1,6.35,7.72c-.86.73-2.7,2.84-2.63,4.43.05,1.19,1.37,2.36,2.47,3.14,5.26,3.72,6.53,8,6.68,10.9.35,7.1-5.49,12.38-6.15,12.95A5,5,0,0,1,487.78,315.5Z"/><path class="cls-1" d="M488.06,347.5a5,5,0,0,1-3.28-8.78c.92-.81,2.82-3.13,2.72-4.92-.06-1-.89-2.1-2.47-3.22-5.34-3.78-6.58-8.05-6.69-11-.24-7,5.61-11.95,6.28-12.49a5,5,0,0,1,6.35,7.72c-.85.73-2.7,2.84-2.63,4.43.05,1.18,1.37,2.36,2.47,3.14,5.26,3.72,6.53,8,6.68,10.9.35,7.1-5.49,12.38-6.15,12.95A5,5,0,0,1,488.06,347.5Z"/><path class="cls-1" d="M24.22,251.5a5,5,0,0,1-3.28-8.78c.91-.81,2.82-3.13,2.72-4.92-.06-1-.89-2.1-2.47-3.22-5.35-3.78-6.59-8.05-6.69-11-.24-7,5.61-11.94,6.27-12.49a5,5,0,0,1,6.36,7.72c-.86.73-2.7,2.85-2.64,4.44.05,1.18,1.38,2.35,2.47,3.13,5.26,3.72,6.54,8,6.68,10.9.36,7.1-5.48,12.38-6.15,13A5,5,0,0,1,24.22,251.5Z"/><path class="cls-1" d="M24.5,283.5a5,5,0,0,1-3.28-8.77c.91-.82,2.82-3.14,2.72-4.93-.06-1-.89-2.1-2.47-3.22-5.35-3.78-6.59-8.05-6.69-11-.24-7,5.61-11.94,6.27-12.49a5,5,0,0,1,6.36,7.72c-.86.73-2.7,2.84-2.63,4.44,0,1.18,1.37,2.35,2.47,3.13,5.25,3.72,6.53,8,6.68,10.9.35,7.1-5.49,12.38-6.15,13A5,5,0,0,1,24.5,283.5Z"/><path class="cls-1" d="M24.78,315.5a5,5,0,0,1-3.28-8.78c.91-.81,2.82-3.13,2.72-4.92-.06-1-.89-2.1-2.47-3.22-5.34-3.78-6.59-8.05-6.69-11-.24-7,5.61-11.95,6.28-12.49a5,5,0,0,1,6.35,7.72c-.85.72-2.7,2.84-2.63,4.43.05,1.19,1.37,2.36,2.47,3.14,5.26,3.72,6.53,8,6.68,10.9.35,7.1-5.49,12.38-6.15,12.95A5,5,0,0,1,24.78,315.5Z"/><path class="cls-1" d="M25.06,347.5a5,5,0,0,1-3.28-8.78c.92-.81,2.82-3.13,2.72-4.92-.06-1-.89-2.1-2.47-3.22-5.34-3.78-6.58-8.05-6.69-11-.24-7,5.61-11.95,6.28-12.49A5,5,0,0,1,28,314.85c-.85.73-2.7,2.84-2.63,4.43.05,1.18,1.37,2.36,2.47,3.14,5.26,3.72,6.53,8,6.68,10.9.35,7.1-5.49,12.38-6.15,12.95A5,5,0,0,1,25.06,347.5Z"/></g></svg>