<?xml version="1.0" ?><svg id="Lines" viewBox="0 0 512 512" xmlns="http://www.w3.org/2000/svg"><defs><style>.cls-1{fill:#3f456b;}</style></defs><title/><path class="cls-1" d="M145.68,357.31a5,5,0,0,1-5-5V32.59c0-.11,0-.22,0-.33s.25-5.52-3.07-9c-2-2.15-5.22-3.24-9.45-3.24s-7.49,1.11-9.56,3.3c-3.28,3.48-3.12,8.94-3.12,9a2.71,2.71,0,0,1,0,.29V352.31a5,5,0,0,1-10,0V32.71c-.06-1.59-.1-10,5.84-16.27,4-4.27,9.69-6.44,16.83-6.44S141,12.17,145,16.45c5.88,6.29,5.8,14.63,5.72,16.28V352.31A5,5,0,0,1,145.68,357.31Z"/><path class="cls-1" d="M400.68,319.31a5,5,0,0,1-5-5V32.59c0-.11,0-.22,0-.33s.25-5.52-3.07-9c-2-2.15-5.22-3.24-9.45-3.24s-7.49,1.11-9.56,3.3c-3.28,3.48-3.12,8.94-3.12,9a2.71,2.71,0,0,1,0,.29V314.31a5,5,0,0,1-10,0V32.71c-.06-1.58-.1-10,5.84-16.27,4-4.27,9.69-6.44,16.83-6.44S396,12.17,400,16.45c5.88,6.29,5.8,14.63,5.72,16.28V314.31A5,5,0,0,1,400.68,319.31Z"/><path class="cls-1" d="M492.56,502H274.16a5,5,0,0,1-4.9-6l36.4-182a5,5,0,0,1,4.9-4h145.6a5,5,0,0,1,4.91,4l36.4,182a5,5,0,0,1-4.91,6Zm-212.3-10h206.2l-34.4-172H314.66Z"/><path class="cls-1" d="M419.76,502a5,5,0,0,1-5-5V449.67H353.1V497a5,5,0,0,1-10,0V444.67a5,5,0,0,1,5-5h71.66a5,5,0,0,1,5,5V497A5,5,0,0,1,419.76,502Z"/><path class="cls-1" d="M239.56,500H16.44a5,5,0,0,1-5-5,116.85,116.85,0,0,1,74-108.53V367a16.76,16.76,0,0,1,16.75-16.74h51.66A16.76,16.76,0,0,1,170.58,367v19.47a116.85,116.85,0,0,1,74,108.53A5,5,0,0,1,239.56,500Zm-218-10H234.44a106.8,106.8,0,0,0-70.55-95.35,5,5,0,0,1-3.31-4.71V367a6.76,6.76,0,0,0-6.75-6.74H102.17A6.76,6.76,0,0,0,95.42,367v22.94a5,5,0,0,1-3.31,4.71A106.8,106.8,0,0,0,21.56,490Z"/></svg>