<?xml version="1.0" ?><svg viewBox="0 0 512 512" xmlns="http://www.w3.org/2000/svg"><defs><style>.cls-1{fill:#3f456b;}</style></defs><title/><g id="Lines"><path class="cls-1" d="M449.48,500.79H65.68c-28.5,0-52.58-24.38-52.58-53.23V62.72C13.1,34.2,36.69,11,65.68,11h383.8c28.88,0,52.38,23.2,52.38,51.72V447.56a53.32,53.32,0,0,1-15.33,37.38A51.5,51.5,0,0,1,449.48,500.79ZM65.68,21C42.2,21,23.1,39.72,23.1,62.72V447.56c0,23.43,19.5,43.23,42.58,43.23h383.8c23,0,42.38-19.8,42.38-43.23V62.72c0-23-19-41.72-42.38-41.72Z"/><rect class="cls-1" height="10" width="192.9" x="18.1" y="171.28"/><path class="cls-1" d="M497,181.28H402a5,5,0,0,1,0-10h95a5,5,0,0,1,0,10Z"/><rect class="cls-1" height="10" width="322.62" x="174.24" y="330.52"/><rect class="cls-1" height="318.48" width="10" x="169.24" y="176.28"/><path class="cls-1" d="M306.6,125a5,5,0,0,1-5-5V16a5,5,0,0,1,10,0V120A5,5,0,0,1,306.6,125Z"/><path class="cls-1" d="M402,238H211.4a5,5,0,0,1-5-5V120a5,5,0,0,1,5-5H402a5,5,0,0,1,5,5V233A5,5,0,0,1,402,238ZM216.4,228H397V125H216.4Z"/><path class="cls-1" d="M367,270a5,5,0,0,1-4.71-3.32l-11.4-32a5,5,0,0,1,9.42-3.36l11.4,32A5,5,0,0,1,367,270Z"/></g><g id="Outline"><path class="cls-1" d="M307,208H236.65a5,5,0,1,1,0-10H307a5,5,0,0,1,0,10Z"/><path class="cls-1" d="M377,181.5H236.65a5,5,0,1,1,0-10H377a5,5,0,0,1,0,10Z"/><path class="cls-1" d="M377,155H236.65a5,5,0,1,1,0-10H377a5,5,0,0,1,0,10Z"/></g></svg>