<?xml version="1.0" ?><svg viewBox="0 0 512 512" xmlns="http://www.w3.org/2000/svg"><defs><style>.cls-1{fill:#3f456b;}</style></defs><title/><g id="Lines"><path class="cls-1" d="M128,391.7a45.12,45.12,0,1,1,45.11-45.12A45.16,45.16,0,0,1,128,391.7Zm0-80.23a35.12,35.12,0,1,0,35.11,35.11A35.15,35.15,0,0,0,128,311.47Z"/><path class="cls-1" d="M128,364.18a17.59,17.59,0,1,1,17.59-17.6A17.61,17.61,0,0,1,128,364.18ZM128,339a7.59,7.59,0,1,0,7.59,7.58A7.59,7.59,0,0,0,128,339Z"/><path class="cls-1" d="M417.24,391.7a45.12,45.12,0,1,1,45.11-45.12A45.16,45.16,0,0,1,417.24,391.7Zm0-80.23a35.12,35.12,0,1,0,35.11,35.11A35.15,35.15,0,0,0,417.24,311.47Z"/><path class="cls-1" d="M417.24,364.18a17.59,17.59,0,1,1,17.59-17.6A17.61,17.61,0,0,1,417.24,364.18Zm0-25.18a7.59,7.59,0,1,0,7.59,7.58A7.59,7.59,0,0,0,417.24,339Z"/><path class="cls-1" d="M377.13,352.31H280.48a5,5,0,0,1,0-10h96.65a5,5,0,0,1,0,10Z"/><path class="cls-1" d="M462.34,352.16h-5a5,5,0,0,1,0-10h5c5.81,0,9.92-1.21,11.88-3.49a6.14,6.14,0,0,0,1.37-4.62,3,3,0,0,1-.07-.84V265.4c0-14.21-18.39-15.36-19.18-15.41l-.57-.06L349.11,232a5,5,0,0,1-3.9-3.32l-26.49-78.09c-1.34-2.12-9-13.12-23.94-13.12H79.3a2.6,2.6,0,0,1-.83-.07c-.61-.07-6.85-.57-10.31,9-3.33,9.16-9.54,50.72-11.64,66A5,5,0,0,1,46.61,211c.32-2.28,7.78-56,12.15-68,5-13.74,15.58-16.12,20.9-15.47H294.78c22.17,0,32.43,17.8,32.86,18.55a4.56,4.56,0,0,1,.37.85l25.71,75.76L457.15,240c10,.59,28.37,6.58,28.37,25.38v67.46A16.18,16.18,0,0,1,482,345C478,349.74,471.43,352.16,462.34,352.16Z"/><path class="cls-1" d="M214.94,262.84H203.42a5,5,0,1,1,0-10h11.52a5,5,0,1,1,0,10Z"/><path class="cls-1" d="M283,262.84H271.52a5,5,0,0,1,0-10H283a5,5,0,1,1,0,10Z"/><path class="cls-1" d="M349.94,232.23H193.11a5,5,0,0,1-5-5v-57.5a5,5,0,0,1,5-5H326.25a5,5,0,0,1,0,10H198.11v47.5H349.94a5,5,0,0,1,0,10Z"/><path class="cls-1" d="M87.89,352.31H38.75a5,5,0,0,1-5-5V324a5,5,0,0,1,10,0v18.35H87.89a5,5,0,0,1,0,10Z"/><path class="cls-1" d="M280.48,352.31H168.11a5,5,0,0,1,0-10H280.48a5,5,0,0,1,0,10Z"/><path class="cls-1" d="M381.16,329h-220a5,5,0,0,1,0-10h220a5,5,0,0,1,0,10Z"/><path class="cls-1" d="M478.37,329h-28a5,5,0,0,1,0-10h28a5,5,0,0,1,0,10Z"/><path class="cls-1" d="M94.88,329H38.75a5,5,0,0,1,0-10H94.88a5,5,0,0,1,0,10Z"/><path class="cls-1" d="M481.89,297a5,5,0,0,1-.91-9.92c5.28-1,11.24-3.58,10.45-15.11-.34-5-2.2-8.3-5.68-10.21a13.12,13.12,0,0,0-5.12-1.53,5,5,0,0,1,.09-10h.09c6.63.11,19.48,4.67,20.6,21.06,1,14.12-5.65,23.22-18.61,25.62A4.68,4.68,0,0,1,481.89,297Z"/><path class="cls-1" d="M41.56,278.77H23.67a15,15,0,0,1-15-15V205.51a15,15,0,0,1,15-15H41.56a15,15,0,0,1,15,15v58.26A15,15,0,0,1,41.56,278.77ZM23.67,200.51a5,5,0,0,0-5,5v58.26a5,5,0,0,0,5,5H41.56a5,5,0,0,0,5-5V205.51a5,5,0,0,0-5-5Z"/><path class="cls-1" d="M51.56,328a5,5,0,0,1-5-5V250.39a5,5,0,0,1,10,0V323A5,5,0,0,1,51.56,328Z"/><path class="cls-1" d="M172.75,263.64H51.94a5,5,0,0,1,0-10H167.75V151.1a5,5,0,0,1,10,0V258.64A5,5,0,0,1,172.75,263.64Z"/><path class="cls-1" d="M264.27,232.15a5,5,0,0,1-5-5V169.73a5,5,0,0,1,10,0v57.42A5,5,0,0,1,264.27,232.15Z"/><path class="cls-1" d="M142.92,232.14H91.75a15,15,0,0,1-15-15V179.73a15,15,0,0,1,15-15h51.17a15,15,0,0,1,15,15v37.41A15,15,0,0,1,142.92,232.14ZM91.75,174.73a5,5,0,0,0-5,5v37.41a5,5,0,0,0,5,5h51.17a5,5,0,0,0,5-5V179.73a5,5,0,0,0-5-5Z"/><path class="cls-1" d="M349.94,327.48a5,5,0,0,1-5-5V227.06a5,5,0,0,1,10,0v95.42A5,5,0,0,1,349.94,327.48Z"/><path class="cls-1" d="M369.5,304.14H202.94a5,5,0,0,1,0-10H369.5a5,5,0,0,1,0,10Z"/><path class="cls-1" d="M322.14,156.1h-260a5,5,0,1,1,0-10h260a5,5,0,0,1,0,10Z"/></g><g id="Outline"><path class="cls-1" d="M84.33,306.81a17.94,17.94,0,1,1,17.94-17.94A18,18,0,0,1,84.33,306.81Zm0-25.88a7.94,7.94,0,1,0,7.94,7.94A7.94,7.94,0,0,0,84.33,280.93Z"/><path class="cls-1" d="M480.52,274.14H450.36a5,5,0,0,1,0-10h30.16a5,5,0,0,1,0,10Z"/><path class="cls-1" d="M480.52,290.39H450.36a5,5,0,0,1,0-10h30.16a5,5,0,0,1,0,10Z"/><path class="cls-1" d="M480.52,306.64H450.36a5,5,0,0,1,0-10h30.16a5,5,0,0,1,0,10Z"/><path class="cls-1" d="M371.49,235.68a5,5,0,0,1-5-5V181.14a5,5,0,0,1,10,0v49.54A5,5,0,0,1,371.49,235.68Z"/></g></svg>