<?xml version="1.0" ?><svg viewBox="0 0 512 512" xmlns="http://www.w3.org/2000/svg"><defs><style>.cls-1{fill:#3f456b;}</style></defs><title/><g id="Lines"><path class="cls-1" d="M378,424.66a48.45,48.45,0,1,1,48.45-48.45A48.51,48.51,0,0,1,378,424.66Zm0-86.9a38.45,38.45,0,1,0,38.45,38.45A38.5,38.5,0,0,0,378,337.76Z"/><g data-name="&lt;编组&gt;" id="_编组_"><path class="cls-1" d="M387.56,502.23H368c-6.9,0-9-6.18-9.71-8.2q-.09-.28-.15-.57l-4.76-22-.59-.15-15,16.6-.34.34c-2.94,2.67-7.5,5.25-12.59,2.32l-17-9.8c-6-3.46-4.73-9.87-4.31-12a5.12,5.12,0,0,1,.15-.56l6.75-21c-.24-.24-.48-.47-.71-.71l-21,6.77-.48.13c-3.88.84-9.12.78-12.05-4.3l-9.8-17c-3.46-6,.84-10.9,2.26-12.52a5.14,5.14,0,0,1,.4-.41l16.26-14.73c-.07-.27-.15-.55-.22-.83l-21.4-4.61a3.9,3.9,0,0,1-.46-.12c-6.68-2.12-8.09-6.47-8.09-9.75V369.59c0-7,6-9,8-9.72a5,5,0,0,1,.55-.16l21.43-4.66.27-1-16.34-14.79-.34-.34c-4.79-5.24-3.85-9.71-2.22-12.54l9.8-17c3.49-6,9.79-4.77,11.86-4.36a3.53,3.53,0,0,1,.56.14L310.08,312l.44-.43-6.89-21.39a3.62,3.62,0,0,1-.13-.47c-.83-3.83-.75-9,4.35-11.95l17-9.8c6-3.47,10.87.76,12.46,2.15.14.13.28.26.41.4l15.4,17,.13,0,4.71-22.07c0-.16.08-.32.13-.47,1.8-5.65,5.08-8.52,9.74-8.52h19.6c6.85,0,9,6.34,9.72,8.42a5.12,5.12,0,0,1,.15.56l4.84,22.38,15.45-17.14c.12-.12.23-.24.36-.35,4.4-4,8.67-4.85,12.7-2.53l17,9.81c5.92,3.41,4.62,10,4.2,12.16q-.06.28-.15.57l-7,21.82,21.9-7.1a3.37,3.37,0,0,1,.48-.12c5.81-1.27,9.94.13,12.27,4.17l9.8,17c3.43,5.94-1,11-2.43,12.64a5.14,5.14,0,0,1-.4.41l-17.17,15.58,23,4.86.47.13c6,1.9,9,5.18,9,9.75V389c0,6.67-6.48,8.88-8.92,9.72a5.5,5.5,0,0,1-.58.16l-22.78,4.83,17,15.36a3.85,3.85,0,0,1,.35.35c4.06,4.46,4.95,8.76,2.63,12.77l-9.8,17c-3.4,5.88-9.85,4.61-12.27,4.13a4.75,4.75,0,0,1-.57-.14l-21.91-7.06,7.1,21.86c.05.16.09.32.13.49,1.28,5.89-.1,10.05-4.1,12.36l-17,9.81c-5.89,3.39-10.84-.94-12.7-2.57a4.07,4.07,0,0,1-.42-.41l-15.15-16.73-.4.11-4.82,22.43a4.05,4.05,0,0,1-.12.47C396.1,497.71,393.43,502.23,387.56,502.23Zm-19.27-10h19a7.66,7.66,0,0,0,.46-1.13l5.41-25.2a5,5,0,0,1,3.73-3.81c2-.47,4-1,5.88-1.63a5,5,0,0,1,5.22,1.41L425,480.72a13,13,0,0,0,1.32,1l16.15-9.33a8,8,0,0,0-.21-1.59l-8-24.66a5,5,0,0,1,1.31-5.17c1.35-1.29,2.67-2.64,3.92-4a5,5,0,0,1,5.22-1.39l24.73,8a9.56,9.56,0,0,0,1.65.21l9.33-16.14a8.78,8.78,0,0,0-1-1.28L459.9,408.73a5,5,0,0,1-1.45-5.13c.51-1.72,1-3.44,1.33-5.09a5,5,0,0,1,3.84-3.8l26.07-5.53a13.14,13.14,0,0,0,1.88-.78V370a10.44,10.44,0,0,0-1.83-.76l-26-5.5a5,5,0,0,1-3.83-3.76c-.35-1.48-.8-3-1.29-4.54l-.21-.7a5,5,0,0,1,1.42-5.17l19.5-17.7a10,10,0,0,0,.92-1.21l-9.39-16.25a7.79,7.79,0,0,0-1.47.19l-25.14,8.14a5,5,0,0,1-5.21-1.36c-1.14-1.23-2.38-2.48-3.69-3.71a5,5,0,0,1-1.33-5.17l8-25a10.46,10.46,0,0,0,.19-1.52L426,276.66a7.82,7.82,0,0,0-1.17.89l-17.42,19.32a5,5,0,0,1-5.19,1.43c-1.85-.57-3.69-1.07-5.47-1.49A5,5,0,0,1,393,293l-5.44-25.17a9.47,9.47,0,0,0-.58-1.39H368.21a8.21,8.21,0,0,0-.55,1.33l-5.32,24.91a5,5,0,0,1-3.81,3.83c-2,.45-3.88.93-5.65,1.46a5,5,0,0,1-5.13-1.44l-17.26-19a10.48,10.48,0,0,0-.91-.7l-16.5,9.53a7.46,7.46,0,0,0,.14,1.08L321,311.55a5,5,0,0,1-1.4,5.24c-1.5,1.36-3,2.83-4.45,4.38a5,5,0,0,1-5.18,1.34l-24-7.69a8.65,8.65,0,0,0-1.14-.15l-9.53,16.5a7.37,7.37,0,0,0,.67.85l18.48,16.73a5,5,0,0,1,1.41,5.22c-.66,2.09-1.24,4.25-1.74,6.42a5,5,0,0,1-3.81,3.77l-24.17,5.26a10.28,10.28,0,0,0-1,.4V389a7.3,7.3,0,0,0,.91.37l24.22,5.22a5,5,0,0,1,3.83,3.79c.53,2.36,1.07,4.41,1.65,6.27a5,5,0,0,1-1.42,5.2L276,426.42a10.23,10.23,0,0,0-.77,1l9.47,16.41a7.49,7.49,0,0,0,1.21-.16l23.67-7.64a5,5,0,0,1,5.2,1.36c1.5,1.62,3.08,3.18,4.7,4.65a5,5,0,0,1,1.39,5.23L313.29,471a12.51,12.51,0,0,0-.17,1.26l16.42,9.48a8.75,8.75,0,0,0,1-.74l16.91-18.71a5,5,0,0,1,5.13-1.43c2,.6,4.07,1.13,6.1,1.58a5,5,0,0,1,3.81,3.82l5.36,24.77A9.87,9.87,0,0,0,368.29,492.23Z"/></g><path class="cls-1" d="M256,444.39A185.11,185.11,0,0,1,142.49,406a188.22,188.22,0,0,1-66.22-97,5,5,0,1,1,9.61-2.75,178.2,178.2,0,0,0,62.69,91.81A175.21,175.21,0,0,0,256,434.39a181,181,0,0,0,18.65-1,5,5,0,1,1,1,9.94A189.79,189.79,0,0,1,256,444.39Z"/><path class="cls-1" d="M436.91,281.11a4.36,4.36,0,0,1-.51,0,5,5,0,0,1-4.47-5.48,178.74,178.74,0,0,0,.92-18.09A175.26,175.26,0,0,0,396.6,150.22,178.19,178.19,0,0,0,305,87.5a5,5,0,1,1,2.76-9.6,188.2,188.2,0,0,1,96.82,66.25,185.2,185.2,0,0,1,38.3,113.36,190,190,0,0,1-1,19.1A5,5,0,0,1,436.91,281.11Z"/><path class="cls-1" d="M483.25,186.39A5,5,0,0,1,478.5,183c-1.32-4-2.78-8.1-4.33-12.08A234.47,234.47,0,0,0,396.18,68a5,5,0,1,1,6-8,244.38,244.38,0,0,1,81.32,107.24c1.62,4.16,3.13,8.39,4.51,12.59a5,5,0,0,1-4.75,6.56Z"/><path class="cls-1" d="M13.61,358.53a5.09,5.09,0,0,1-1.87-.36A5,5,0,0,1,9,351.66l11.19-27.84a5,5,0,0,1,6.51-2.77l27.84,11.2a5,5,0,1,1-3.74,9.27l-23.19-9.33-9.33,23.2A5,5,0,0,1,13.61,358.53Z"/><path class="cls-1" d="M483.89,187.66a4.82,4.82,0,0,1-1.86-.37L454.19,176.1a5,5,0,0,1,3.73-9.28l23.2,9.33,9.33-23.2a5,5,0,0,1,9.28,3.73l-11.2,27.84a5,5,0,0,1-2.68,2.73A4.92,4.92,0,0,1,483.89,187.66Z"/><path class="cls-1" d="M109.48,449.06a5,5,0,0,1-3-1A244.41,244.41,0,0,1,25.17,340.81c-1.62-4.16-3.14-8.4-4.51-12.59a5,5,0,0,1,9.5-3.12c1.32,4,2.78,8.09,4.33,12.09a234.39,234.39,0,0,0,78,102.86,5,5,0,0,1-3,9Z"/><path class="cls-1" d="M183.56,285.05A101.05,101.05,0,1,1,284.61,184,101.16,101.16,0,0,1,183.56,285.05Zm0-192.1A91.05,91.05,0,1,0,274.61,184,91.15,91.15,0,0,0,183.56,93Z"/><path class="cls-1" d="M183.56,239.64A55.64,55.64,0,1,1,239.2,184,55.7,55.7,0,0,1,183.56,239.64Zm0-101.28A45.64,45.64,0,1,0,229.2,184,45.69,45.69,0,0,0,183.56,138.36Z"/><path class="cls-1" d="M189.45,357H177c-9.78,0-13.46-8.8-14.05-13.46,0-.05,0-.1,0-.15l-2-21.05c-3.38-.55-6.75-1.22-10.08-2L141,339c0,.05-.05.09-.07.14-2.32,4.08-9.09,10.8-18.13,7.06l-11.53-4.78c-9-3.74-9.07-13.28-7.82-17.81a.83.83,0,0,1,0-.15l6.27-20.32c-2.88-1.79-5.71-3.69-8.46-5.69L84.86,311.06l-.12.1c-3.7,2.88-12.53,6.5-19.44-.41l-8.83-8.84c-6.92-6.91-3.3-15.74-.42-19.44l.1-.12,13.64-16.47c-2-2.75-3.86-5.57-5.63-8.43l-20.43,6.3-.15,0C39.06,265,29.51,265,25.77,256L21,244.44c-3.74-9,3-15.81,7.06-18.13l.14-.07,18.93-10c-.77-3.28-1.42-6.6-2-9.93l-21.34-2h-.15c-4.65-.59-13.46-4.27-13.46-14V177.76c0-9.78,8.81-13.46,13.46-14h.15l21.34-2c.54-3.33,1.19-6.65,2-9.93l-18.93-10-.14-.07C24,139.37,17.25,132.6,21,123.56L25.77,112c3.74-9,13.28-9.07,17.81-7.82l.15,0,20.43,6.3c1.77-2.86,3.65-5.68,5.63-8.43L56.15,85.65l-.1-.12c-2.88-3.7-6.5-12.53.42-19.45l8.83-8.82C72.21,50.34,81,54,84.74,56.84l.12.1,16.41,13.59c2.75-2,5.58-3.9,8.46-5.69l-6.27-20.32a.83.83,0,0,1,0-.15c-1.25-4.53-1.21-14.07,7.82-17.81l11.53-4.78c9-3.74,15.81,3,18.13,7.06,0,.05,0,.09.07.14l9.89,18.7c3.33-.8,6.7-1.47,10.08-2l2-21c0-.05,0-.1,0-.15C163.51,19.8,167.19,11,177,11h12.48c9.78,0,13.46,8.8,14.05,13.46,0,.05,0,.1,0,.15l2,20.93c3.41.53,6.81,1.2,10.17,2L225.45,29l.07-.14c2.32-4.08,9.09-10.8,18.13-7.06l11.53,4.78c9,3.74,9.07,13.28,7.82,17.81a.83.83,0,0,1,0,.15l-6.15,19.95c2.94,1.81,5.84,3.75,8.67,5.79l16.08-13.32.12-.1c3.7-2.88,12.53-6.5,19.44.41L310,66.09c6.92,6.91,3.3,15.74.42,19.44l-.1.12-13.27,16c2.06,2.83,4,5.74,5.85,8.7l19.84-6.12.15,0c4.53-1.25,14.07-1.21,17.81,7.82l4.78,11.53c3.74,9-3,15.81-7.06,18.13l-.14.07-18.31,9.68c.81,3.42,1.5,6.87,2.05,10.32l20.63,1.94h.15c4.66.59,13.46,4.27,13.46,14v12.48c0,9.78-8.8,13.46-13.46,14h-.15L322,206.24c-.55,3.45-1.24,6.9-2.05,10.32l18.31,9.68.14.07c4.08,2.32,10.8,9.09,7.06,18.13L340.65,256c-3.74,9-13.28,9.07-17.81,7.82l-.15,0-19.84-6.12c-1.84,3-3.79,5.87-5.85,8.7l13.27,16,.1.12c2.88,3.7,6.5,12.53-.42,19.45l-8.83,8.82c-6.91,6.92-15.74,3.3-19.44.42l-.12-.1-16.08-13.32c-2.83,2-5.73,4-8.67,5.79l6.15,20a.83.83,0,0,1,0,.15c1.25,4.53,1.22,14.07-7.82,17.81l-11.53,4.78c-9,3.74-15.81-3-18.13-7.06l-.07-.14-9.81-18.55c-3.36.79-6.76,1.46-10.17,2l-2,20.93c0,.05,0,.1,0,.15C202.91,348.2,199.23,357,189.45,357Zm-16.6-14.66c.13.84.9,4.66,4.12,4.66h12.48c3.33,0,4-4.09,4.12-4.65l2.32-24.75a5,5,0,0,1,4.34-4.49A131.66,131.66,0,0,0,217,309.84a5,5,0,0,1,5.7,2.49l11.59,21.92c.44.73,2.61,4,5.58,2.73l11.54-4.78c3.07-1.27,2.15-5.32,2-5.86l-7.29-23.62a5,5,0,0,1,2.29-5.81,131.43,131.43,0,0,0,14.23-9.5,5,5,0,0,1,6.23.12l19,15.76c.69.5,3.93,2.66,6.2.38l8.83-8.83c2.36-2.35,0-5.74-.37-6.19l-15.72-19a5,5,0,0,1-.11-6.24,132.81,132.81,0,0,0,9.57-14.25,5,5,0,0,1,5.8-2.27l23.49,7.24c.82.2,4.64,1,5.87-2l4.78-11.54c1.22-2.94-1.94-5.1-2.74-5.59l-21.68-11.46a5,5,0,0,1-2.49-5.72A132,132,0,0,0,312.63,201a5,5,0,0,1,4.49-4.33l24.43-2.29c.84-.13,4.66-.9,4.66-4.12V177.76c0-3.18-3.74-4-4.68-4.12l-24.41-2.29a5,5,0,0,1-4.49-4.33,132,132,0,0,0-3.35-16.86,5,5,0,0,1,2.49-5.72L333.46,133c.73-.44,4-2.61,2.73-5.58l-4.78-11.54c-1.27-3.07-5.32-2.16-5.86-2l-23.5,7.25a5,5,0,0,1-5.8-2.27,132.81,132.81,0,0,0-9.57-14.25,5,5,0,0,1,.11-6.24l15.71-19c.5-.69,2.65-3.93.38-6.2l-8.83-8.83c-2.24-2.25-5.45-.16-6.21.39l-19,15.75a5,5,0,0,1-6.23.12,131.43,131.43,0,0,0-14.23-9.5,5,5,0,0,1-2.29-5.81l7.28-23.61c.2-.82.95-4.64-2-5.87L239.82,31c-2.94-1.21-5.1,1.94-5.59,2.74L222.65,55.67a5,5,0,0,1-5.7,2.49,131.66,131.66,0,0,0-16.72-3.27,5,5,0,0,1-4.34-4.49l-2.32-24.74c-.13-.84-.9-4.66-4.12-4.66H177c-3.33,0-4,4.09-4.12,4.65L170.52,50.5A5,5,0,0,1,166.21,55a129.14,129.14,0,0,0-16.63,3.33,5,5,0,0,1-5.73-2.49L132.18,33.75c-.44-.73-2.61-4-5.58-2.73L115.06,35.8c-2.93,1.21-2.23,5-2,5.89l7.39,23.94a5,5,0,0,1-2.26,5.8,129.55,129.55,0,0,0-14,9.42,5,5,0,0,1-6.24-.1l-19.35-16c-.69-.5-3.93-2.66-6.2-.38l-8.83,8.83c-2.35,2.35,0,5.74.37,6.19L80,98.76a5,5,0,0,1,.12,6.23,128.69,128.69,0,0,0-9.35,14A5,5,0,0,1,65,121.26l-24.08-7.42c-.82-.21-4.64-1-5.87,2l-4.78,11.54C29,130.33,32.17,132.49,33,133l22.29,11.78a5,5,0,0,1,2.5,5.71A129.22,129.22,0,0,0,54.5,167,5,5,0,0,1,50,171.29l-25.14,2.35c-.84.13-4.66.9-4.66,4.12v12.48c0,3.18,3.74,4,4.68,4.12L50,196.71A5,5,0,0,1,54.5,201a129.22,129.22,0,0,0,3.26,16.49,5,5,0,0,1-2.5,5.71L33,235c-.73.44-4,2.61-2.73,5.58L35,252.15c1.27,3.07,5.32,2.15,5.86,2L65,246.74A5,5,0,0,1,70.77,249a129.18,129.18,0,0,0,9.35,14,5,5,0,0,1-.12,6.23l-16.08,19.4c-.5.69-2.65,3.93-.38,6.2l8.83,8.83c2.25,2.25,5.45.16,6.21-.39l19.34-16a5,5,0,0,1,6.24-.1,129.55,129.55,0,0,0,14,9.42,5,5,0,0,1,2.26,5.8l-7.39,24c-.2.82-1,4.64,2,5.87L126.6,337c2.94,1.22,5.1-1.94,5.59-2.74l11.66-22.07a5,5,0,0,1,5.73-2.49A129.14,129.14,0,0,0,166.21,313a5,5,0,0,1,4.31,4.49Z"/><path class="cls-1" d="M184.26,118.1h-2.1a5,5,0,0,1,0-10h2.1a5,5,0,0,1,0,10Z"/><path class="cls-1" d="M184.26,258.5h-2.1a5,5,0,1,1,0-10h2.1a5,5,0,0,1,0,10Z"/><path class="cls-1" d="M253.41,189.35a5,5,0,0,1-5-5v-2.1a5,5,0,0,1,10,0v2.1A5,5,0,0,1,253.41,189.35Z"/><path class="cls-1" d="M113,189.35a5,5,0,0,1-5-5v-2.1a5,5,0,0,1,10,0v2.1A5,5,0,0,1,113,189.35Z"/></g><g id="Outline"><path class="cls-1" d="M183.56,205.42A21.42,21.42,0,1,1,205,184,21.45,21.45,0,0,1,183.56,205.42Zm0-32.84A11.42,11.42,0,1,0,195,184,11.44,11.44,0,0,0,183.56,172.58Z"/><path class="cls-1" d="M377.64,398.1a21.42,21.42,0,1,1,21.41-21.42A21.45,21.45,0,0,1,377.64,398.1Zm0-32.83a11.42,11.42,0,1,0,11.41,11.41A11.43,11.43,0,0,0,377.64,365.27Z"/><path class="cls-1" d="M399.17,69a5,5,0,0,1-3-1l-.79-.58a5,5,0,0,1,6-8l.83.61a5,5,0,0,1-3,9ZM381.83,57.16a5,5,0,0,1-2.63-.75l-.83-.51a5,5,0,1,1,5.24-8.52l.87.54a5,5,0,0,1-2.65,9.24Zm-18.3-10.28a4.9,4.9,0,0,1-2.25-.54l-.88-.44A5,5,0,0,1,364.88,37l.91.46a5,5,0,0,1-2.26,9.46Zm-19.12-8.65a5.08,5.08,0,0,1-1.86-.36l-.91-.37a5,5,0,1,1,3.68-9.29l.95.37a5,5,0,0,1-1.86,9.65Zm-19.8-7a4.91,4.91,0,0,1-1.46-.21l-.94-.29a5,5,0,0,1,2.87-9.57l1,.29a5,5,0,0,1-1.44,9.78Z"/><path class="cls-1" d="M185,487.08a5.1,5.1,0,0,1-1.43-.21l-1-.29a5,5,0,0,1,2.91-9.57l.94.28a5,5,0,0,1-1.44,9.79Zm-19.83-6.88a5,5,0,0,1-1.85-.35l-.94-.38a5,5,0,0,1,3.72-9.28l.91.36a5,5,0,0,1-1.84,9.65ZM146,471.63a5,5,0,0,1-2.23-.53l-.91-.46a5,5,0,0,1,4.51-8.93l.88.44a5,5,0,0,1-2.25,9.48Zm-18.34-10.21a5,5,0,0,1-2.62-.74l-.86-.54a5,5,0,1,1,5.27-8.5l.83.52a5,5,0,0,1-2.62,9.26Zm-17.39-11.77a5,5,0,0,1-3-1l-.83-.61a5,5,0,0,1,6-8l.79.59a5,5,0,0,1-3,9Z"/><path class="cls-1" d="M396.38,285.47H396a5,5,0,0,1-4.62-5.36c.55-7.31.83-14.81.83-22.29,0-52-13.41-91.21-24.65-114.92-12.2-25.73-24.56-39.32-24.69-39.46a5,5,0,0,1,7.35-6.78c.54.58,13.33,14.57,26.17,41.52,11.78,24.71,25.82,65.53,25.82,119.64,0,7.73-.29,15.48-.85,23A5,5,0,0,1,396.38,285.47Z"/><path class="cls-1" d="M213.51,438.54a5,5,0,0,1-4.47-2.75c-.59-1.17-14.48-29.19-23.44-83.68a5,5,0,0,1,9.87-1.62c8.71,53,22.36,80.53,22.5,80.8a5,5,0,0,1-2.22,6.71A4.89,4.89,0,0,1,213.51,438.54Z"/><path class="cls-1" d="M167.73,420.79a5,5,0,0,1-3.68-1.61c-1-1.07-24.21-26.68-39.36-75.55a5,5,0,0,1,9.55-3,234,234,0,0,0,24,53.51,136.16,136.16,0,0,0,13.12,18.23,5,5,0,0,1-3.68,8.38Z"/><path class="cls-1" d="M351.53,190.91a5,5,0,0,1-1-9.89c39.16-8.13,58.65-19,58.84-19.11a5,5,0,0,1,4.95,8.69c-.84.48-20.86,11.72-61.76,20.21A5,5,0,0,1,351.53,190.91Z"/><path class="cls-1" d="M338.88,121.43a5,5,0,0,1-2.42-9.38,76.7,76.7,0,0,0,13.26-8.87,5,5,0,0,1,6.75,7.39c-.21.19-5.24,4.75-15.18,10.24A5,5,0,0,1,338.88,121.43Z"/><path class="cls-1" d="M278,321.38h-.2c-7.26-.29-14.72-.43-22.17-.43a5,5,0,1,1,0-10c7.58,0,15.17.15,22.56.43a5,5,0,0,1-.19,10Z"/><path class="cls-1" d="M99.05,351.26A5,5,0,0,1,96.44,342a125.5,125.5,0,0,1,17.08-8,5,5,0,1,1,3.71,9.29,116.78,116.78,0,0,0-15.6,7.29A5,5,0,0,1,99.05,351.26Z"/><path class="cls-1" d="M159.41,410.64a5,5,0,0,1-3.52-8.55c1.31-1.3,32.87-31.76,100-31.76,1.49,0,3,0,4.42,0a5,5,0,0,1-.1,10h-.1c-1.39,0-2.8,0-4.22,0-63,0-92.65,28.58-92.94,28.86A5,5,0,0,1,159.41,410.64Z"/></g></svg>