<?xml version="1.0" ?><svg enable-background="new 0 0 512 512" version="1.1" viewBox="0 0 512 512" xml:space="preserve" xmlns="http://www.w3.org/2000/svg" xmlns:xlink="http://www.w3.org/1999/xlink"><g id="Lines"><g><g><g><g><g><path d="M360.798,259.425c-1.364,0-2.724-0.555-3.71-1.646c-1.853-2.048-1.693-5.209,0.354-7.062        c26.178-23.675,48.341-42.185,65.873-55.015c26.399-19.319,70.584-51.654,68.268-88.709        c-1.149-18.402-11.236-37.99-28.402-55.157l-2.828-2.828c-16.735-16.735-38.433-27.975-55.276-28.633        c-37.828-1.479-67.287,38.831-88.825,68.261c-12.842,17.547-31.328,39.688-54.944,65.806        c-1.853,2.048-5.014,2.208-7.062,0.355c-2.048-1.852-2.207-5.014-0.355-7.062c23.387-25.864,41.653-47.734,54.292-65.004        c22.864-31.244,54.182-74.064,97.286-72.348c19.516,0.763,43.256,12.854,61.956,31.554l2.828,2.828        c18.891,18.891,30.011,40.769,31.312,61.604c2.658,42.517-44.291,76.875-72.342,97.403        c-17.255,12.627-39.148,30.917-65.072,54.362C363.193,258.999,361.993,259.425,360.798,259.425z" fill="#3F456B"/></g></g></g><g><g><g><path d="M110.219,500.091c-0.819,0-1.637-0.016-2.466-0.048c-19.517-0.763-43.257-12.854-61.956-31.554        l-2.829-2.829c-18.889-18.889-30.009-40.767-31.312-61.603c-2.657-42.517,44.291-76.875,72.342-97.404        c17.323-12.677,39.315-31.057,65.368-54.629c2.047-1.854,5.21-1.694,7.062,0.353s1.694,5.209-0.354,7.062        c-26.308,23.803-48.57,42.404-66.171,55.285c-26.399,19.319-70.583,51.655-68.268,88.709        c1.15,18.403,11.237,37.991,28.402,55.156l2.829,2.829c16.734,16.734,38.432,27.974,55.275,28.632        c0.674,0.026,1.35,0.039,2.019,0.04c36.824,0.004,65.652-39.395,86.808-68.301c12.765-17.441,31.145-39.462,54.631-65.449        c1.853-2.048,5.012-2.209,7.062-0.357c2.049,1.852,2.209,5.013,0.357,7.062c-23.257,25.733-41.419,47.484-53.98,64.65        C182.614,458.337,152.053,500.086,110.219,500.091z" fill="#3F456B"/></g></g></g></g><g><g><g><g><g><path d="M245.712,506.164c-2.479,0-4.63-1.841-4.953-4.364c-0.066-0.502-5.924-43.073-33.508-45.659         c-2.509-0.235-4.451-2.301-4.53-4.82c-0.08-2.519,1.728-4.704,4.217-5.097c1.36-0.226,33.78-6.103,33.78-48.061         c0-2.761,2.238-5,5-5s5,2.239,5,5c0,26.302-11.384,40.661-20.934,48.075c-2.355,1.828-4.712,3.33-6.955,4.562         c8.325,4.758,15.26,12.998,20.442,24.423c5.745,12.665,7.341,24.797,7.406,25.307c0.35,2.739-1.588,5.243-4.327,5.593         C246.136,506.151,245.923,506.164,245.712,506.164z" fill="#3F456B"/></g></g></g><g><g><g><path d="M245.724,506.164c-0.211,0-0.424-0.013-0.639-0.041c-2.739-0.35-4.677-2.854-4.327-5.593         c0.065-0.51,1.661-12.642,7.406-25.307c5.183-11.425,12.117-19.666,20.442-24.423c-2.243-1.231-4.6-2.733-6.955-4.562         c-9.55-7.414-20.934-21.772-20.934-48.075c0-2.761,2.238-5,5-5s5,2.239,5,5c0,17.867,5.742,31.384,17.066,40.175         c8.253,6.407,16.631,7.873,16.714,7.886c2.489,0.393,4.297,2.578,4.217,5.097c-0.079,2.519-2.021,4.585-4.53,4.82         c-27.693,2.596-33.452,45.225-33.507,45.655C250.355,504.321,248.203,506.164,245.724,506.164z" fill="#3F456B"/></g></g></g></g></g><g><g><g><g><path d="M281.392,91.792c-0.726,0-1.471-0.104-2.221-0.32c-1.957-0.563-3.415-1.738-4.198-2.369        c-3.375-2.717-6.438-5.646-9.399-8.479l-1.648-1.574c-0.412-0.392-0.84-0.827-1.266-1.263        c-0.341-0.348-0.68-0.697-1.009-1.009c-0.055-0.052-0.113-0.11-0.175-0.174c-1.059,0.249-2.124,0.518-3.224,0.795        c-2.232,0.564-4.541,1.147-6.973,1.588c-0.321,0.058-0.753,0.158-1.26,0.273c-4.689,1.062-13.414,3.035-16.52-3.313        c-1.13-2.311-0.566-4.582-0.354-5.437c1.173-4.739,3.122-9.036,5.006-13.19l0.739-1.636c0.768-1.705,1.458-3.208,2.065-4.499        c-4.12-5.441-9.802-14.11-10.515-19.628c-0.491-3.809,0.942-6.109,2.232-7.369c2.263-2.211,5.174-2.313,6.511-2.221        c4.96-0.123,15.241,1.981,20.889,3.227c4.762-6.841,10.236-12.743,11.987-14.462c1.566-1.54,3.28-2.491,5.091-2.825        c2.179-0.401,4.617,0.1,6.534,1.34c0.61,0.395,1.176,0.882,1.678,1.449c1.065,1.2,1.821,2.728,2.246,4.538        c0.561,2.391,2.036,10.307,2.407,18.627c5.44,1.964,15.257,5.692,19.384,8.43c1.181,0.637,3.585,2.278,4.317,5.355        c0.417,1.754,0.4,4.465-2.049,7.422c-3.507,4.232-12.761,8.476-19.146,10.891c-0.436,6.811-1.657,13.381-3.712,19.987        C287.684,89.577,284.743,91.792,281.392,91.792z M262.947,66.172c0.475,0,0.948,0.067,1.406,0.202l0.085,0.025        c1.85,0.535,3.034,1.899,3.9,2.895c0.098,0.113,0.188,0.219,0.267,0.302c0.349,0.33,0.776,0.765,1.202,1.201        c0.341,0.348,0.68,0.697,1.009,1.009l1.669,1.594c2.547,2.436,4.972,4.754,7.554,6.925c1.621-5.935,2.487-11.87,2.643-18.065        c0.053-2.108,1.422-3.956,3.423-4.62c6.339-2.105,13.361-5.451,16.515-7.758c-4.147-2.234-13.531-5.785-19.149-7.727        c-2.011-0.695-3.362-2.587-3.366-4.715c-0.015-7.463-1.294-15.276-1.955-18.625c-2.347,2.476-7.599,8.394-11.602,14.701        c-1.14,1.796-3.291,2.674-5.365,2.188c-5.786-1.359-15.617-3.37-20.315-3.696c1.435,3.636,5.584,10.215,9.818,15.379        c1.255,1.53,1.489,3.656,0.598,5.423c-0.795,1.575-1.896,3.924-3.271,6.981l-0.752,1.663        c-1.373,3.026-2.686,5.922-3.652,8.859c1.574-0.208,3.396-0.62,4.204-0.803c0.677-0.153,1.254-0.281,1.684-0.359        c2.097-0.38,4.142-0.896,6.307-1.444c1.985-0.501,4.039-1.021,6.185-1.44C262.305,66.203,262.626,66.172,262.947,66.172z         M304.827,51.177c0.008,0.003,0.016,0.007,0.022,0.01C304.842,51.183,304.835,51.18,304.827,51.177z M238.282,31.919        c0.006,0,0.012,0.001,0.018,0.002C238.294,31.921,238.288,31.92,238.282,31.919z M277.768,17.176L277.768,17.176        L277.768,17.176z" fill="#3F456B"/></g></g></g></g><g><g><g><path d="M402.954,500.091c-41.841,0-72.395-41.751-94.821-72.396c-23.661-32.332-62.788-74.895-91.464-104.926       l-27.808-27.549c-29.968-28.615-72.56-67.771-104.911-91.447c-28.051-20.529-74.999-54.887-72.342-97.404       c1.303-20.836,12.423-42.714,31.312-61.604l2.829-2.829c18.699-18.7,42.439-30.791,61.955-31.553       c43.085-1.686,74.421,41.104,97.287,72.348c23.681,32.359,62.721,74.832,91.321,104.784l27.919,27.661       c30.034,28.678,72.606,67.814,104.942,91.478c28.051,20.529,74.999,54.887,72.342,97.404       c-1.303,20.836-12.423,42.714-31.313,61.604l-2.827,2.828c-18.7,18.7-42.44,30.791-61.956,31.554       C404.594,500.075,403.771,500.091,402.954,500.091z M110.114,20.335c-0.67,0-1.343,0.013-2.019,0.04       C91.252,21.033,69.555,32.272,52.82,49.007l-2.829,2.829c-17.165,17.165-27.252,36.753-28.402,55.156       c-2.315,37.055,41.868,69.39,68.268,88.71c32.787,23.994,75.728,63.463,105.977,92.349l27.923,27.662       c0.033,0.033,0.065,0.066,0.098,0.099c28.886,30.25,68.356,73.191,92.35,105.977c21.538,29.431,51.068,69.725,88.826,68.261       c16.844-0.659,38.54-11.898,55.275-28.633l2.827-2.828c17.167-17.166,27.254-36.753,28.404-55.157       c2.315-37.055-41.868-69.39-68.268-88.709c-32.783-23.992-75.726-63.462-105.977-92.349c-0.022-0.021-0.044-0.042-0.066-0.064       l-27.998-27.739c-0.033-0.033-0.065-0.066-0.098-0.099c-28.811-30.17-68.194-73.023-92.208-105.836       C175.769,59.731,146.937,20.335,110.114,20.335z" fill="#3F456B"/></g></g></g><g><g><g><g><path d="M74.398,118.432c-2.528,2.528-6.625,2.529-9.154,0c-2.527-2.527-2.528-6.625,0-9.153        c2.527-2.527,6.626-2.528,9.153,0C76.927,111.807,76.925,115.905,74.398,118.432z" fill="#3F456B"/></g></g></g></g><g><g><g><g><path d="M119.653,73.177c-2.528,2.528-6.625,2.529-9.154,0c-2.527-2.527-2.528-6.625,0-9.153        c2.527-2.527,6.626-2.528,9.153,0C122.181,66.552,122.18,70.65,119.653,73.177z" fill="#3F456B"/></g></g></g></g><g><g><g><g><path d="M407.788,451.822c-2.528,2.528-6.625,2.529-9.154,0c-2.527-2.527-2.528-6.625,0-9.153        c2.527-2.527,6.626-2.528,9.153,0C410.316,445.197,410.315,449.295,407.788,451.822z" fill="#3F456B"/></g></g></g></g><g><g><g><g><path d="M453.043,406.567c-2.528,2.528-6.625,2.529-9.154,0c-2.527-2.527-2.528-6.625,0-9.153        c2.527-2.527,6.626-2.528,9.153,0C455.571,399.942,455.57,404.04,453.043,406.567z" fill="#3F456B"/></g></g></g></g><g><g><g><path d="M270.893,338.365c-0.3,0-0.604-0.027-0.91-0.083c-2.716-0.5-4.513-3.106-4.014-5.822l18.789-102.171       l-71.364,13.703c-2.705,0.525-5.333-1.254-5.853-3.967c-0.521-2.712,1.256-5.333,3.968-5.853l78.547-15.082       c1.618-0.313,3.291,0.197,4.464,1.361c1.172,1.163,1.694,2.83,1.396,4.454l-20.111,109.365       C275.361,336.679,273.259,338.365,270.893,338.365z" fill="#3F456B"/></g></g></g><g><g><g><path d="M200.929,304.089c-0.301,0-0.604-0.027-0.91-0.083c-2.716-0.5-4.513-3.106-4.014-5.822l18.563-100.943       l-71.365,13.703c-1.468,0.283-2.988-0.109-4.139-1.065c-1.15-0.957-1.812-2.378-1.804-3.875l0.139-23.219l-70.623,6.337       c-2.76,0.252-5.18-1.782-5.428-4.533c-0.246-2.75,1.783-5.18,4.533-5.427l76.103-6.829c1.4-0.125,2.794,0.346,3.832,1.3       c1.037,0.954,1.623,2.301,1.615,3.71l-0.135,22.633l72.569-13.934c1.617-0.314,3.291,0.197,4.464,1.361       c1.172,1.163,1.694,2.83,1.396,4.454l-19.886,108.137C205.397,302.402,203.294,304.089,200.929,304.089z" fill="#3F456B"/></g></g></g><g><g><g><path d="M309.777,426.311c-0.301,0-0.604-0.027-0.91-0.083c-2.716-0.5-4.513-3.106-4.014-5.822l16.74-91.03       l-80.137,15.387c-2.702,0.523-5.332-1.254-5.853-3.967c-0.521-2.712,1.256-5.333,3.968-5.853l87.319-16.767       c1.618-0.313,3.291,0.198,4.464,1.361c1.172,1.163,1.694,2.83,1.396,4.454l-18.062,98.224       C314.246,424.625,312.143,426.311,309.777,426.311z" fill="#3F456B"/></g></g></g><g><g><g><g><path d="M338.288,213.941c-4.747,0-9.667-1.934-13.472-5.738c-7.147-7.149-7.692-18.234-1.216-24.712        l7.367-7.367c1.951-1.952,5.119-1.952,7.07,0c1.953,1.953,1.953,5.119,0,7.071l-7.366,7.366        c-2.534,2.535-1.979,7.376,1.216,10.57c3.192,3.192,8.033,3.75,10.57,1.214l60.08-60.08c2.534-2.535,1.978-7.376-1.216-10.57        c-1.631-1.63-3.773-2.648-5.88-2.793c-1.874-0.126-3.543,0.431-4.689,1.578l-6.786,6.787c-1.953,1.952-5.118,1.952-7.071,0        c-1.953-1.953-1.953-5.118-0.001-7.071l6.786-6.786c3.224-3.222,7.646-4.813,12.449-4.484        c4.546,0.313,8.901,2.337,12.263,5.699c7.148,7.148,7.694,18.234,1.217,24.712l-60.081,60.08        C346.499,212.447,342.46,213.94,338.288,213.941z" fill="#3F456B"/></g></g></g><g><g><g><path d="M336.607,136.509c-2.528,2.528-6.625,2.529-9.154,0c-2.527-2.527-2.528-6.625,0-9.153        c2.527-2.527,6.626-2.528,9.153,0C339.136,129.884,339.134,133.981,336.607,136.509z" fill="#3F456B"/></g></g></g><g><g><g><path d="M353.134,171.343c-2.528,2.528-6.625,2.529-9.154,0c-2.527-2.527-2.528-6.625,0-9.153        c2.527-2.527,6.626-2.528,9.153,0C355.663,164.718,355.661,168.816,353.134,171.343z" fill="#3F456B"/></g></g></g><g><g><g><path d="M372.266,152.447c-2.528,2.528-6.625,2.529-9.154,0c-2.527-2.527-2.528-6.625,0-9.153        c2.527-2.527,6.626-2.528,9.153,0C374.795,145.822,374.794,149.919,372.266,152.447z" fill="#3F456B"/></g></g></g><g><g><g><path d="M373.512,217.437c-5.354,0-10.377-2.074-14.143-5.84l-57.982-57.982        c-7.798-7.798-7.798-20.486-0.001-28.284l24.043-24.042c3.766-3.766,8.788-5.839,14.142-5.839        c5.354,0,10.377,2.074,14.143,5.84l57.982,57.982c7.798,7.798,7.798,20.486,0.001,28.284c-0.001,0-0.001,0-0.001,0        l-24.042,24.042C383.888,215.363,378.865,217.437,373.512,217.437z M339.57,105.449c-2.683,0-5.194,1.034-7.071,2.911        l-24.042,24.042c-3.898,3.899-3.898,10.243,0.001,14.143l57.982,57.982c1.877,1.877,4.389,2.911,7.071,2.911        s5.194-1.034,7.071-2.911l24.042-24.042l-0.001,0c3.899-3.899,3.899-10.243,0-14.143l-57.982-57.982        C344.765,106.483,342.253,105.449,339.57,105.449z M408.16,184.02h0.01H408.16z" fill="#3F456B"/></g></g></g></g><g><g><g><g><path d="M140.255,411.682c-4.747,0-9.667-1.934-13.472-5.738c-7.148-7.148-7.693-18.234-1.215-24.713        l7.366-7.366c1.951-1.952,5.118-1.952,7.071,0c1.952,1.953,1.952,5.119-0.001,7.071l-7.366,7.366        c-1.146,1.147-1.708,2.813-1.578,4.691c0.145,2.106,1.163,4.249,2.793,5.879c3.194,3.194,8.035,3.75,10.571,1.215        l60.079-60.08c1.147-1.147,1.708-2.813,1.578-4.691c-0.145-2.106-1.163-4.249-2.793-5.879        c-3.195-3.194-8.036-3.75-10.571-1.215l-6.786,6.786c-1.951,1.952-5.119,1.952-7.07,0c-1.953-1.953-1.953-5.119,0-7.071        l6.786-6.786c6.476-6.478,17.563-5.933,24.712,1.215c3.362,3.361,5.386,7.717,5.699,12.263        c0.331,4.806-1.262,9.227-4.484,12.449l-60.079,60.08C148.466,410.188,144.427,411.682,140.255,411.682z" fill="#3F456B"/></g></g></g><g><g><g><path d="M138.573,334.25c-2.528,2.528-6.625,2.529-9.154,0c-2.527-2.527-2.528-6.625,0-9.153        c2.527-2.527,6.626-2.528,9.153,0C141.102,327.625,141.101,331.723,138.573,334.25z" fill="#3F456B"/></g></g></g><g><g><g><path d="M155.1,369.084c-2.528,2.528-6.625,2.529-9.154,0c-2.527-2.527-2.528-6.625,0-9.153        c2.527-2.527,6.626-2.528,9.153,0C157.629,362.459,157.628,366.557,155.1,369.084z" fill="#3F456B"/></g></g></g><g><g><g><path d="M174.233,350.188c-2.528,2.528-6.625,2.529-9.154,0c-2.527-2.527-2.528-6.625,0-9.153        c2.527-2.527,6.626-2.528,9.153,0C176.761,343.563,176.76,347.66,174.233,350.188z" fill="#3F456B"/></g></g></g><g><g><g><path d="M175.478,415.187c-5.121,0-10.243-1.95-14.142-5.849l-57.982-57.982        c-3.767-3.766-5.841-8.788-5.841-14.143c0-5.354,2.074-10.376,5.841-14.142l24.042-24.042        c3.765-3.766,8.787-5.839,14.142-5.839c5.354,0,10.376,2.074,14.142,5.839l57.982,57.983        c3.767,3.766,5.841,8.788,5.841,14.142s-2.074,10.376-5.841,14.142l-24.041,24.042        C185.722,413.237,180.6,415.187,175.478,415.187z M141.537,303.19c-2.683,0-5.194,1.034-7.07,2.91l-24.043,24.042        c-1.877,1.877-2.911,4.388-2.911,7.071c0,2.683,1.034,5.194,2.911,7.071l57.982,57.982c1.878,1.877,4.389,2.911,7.071,2.911        c2.684,0,5.194-1.034,7.072-2.911l24.041-24.042l0,0c1.877-1.877,2.911-4.388,2.911-7.071s-1.034-5.194-2.911-7.071        l-57.982-57.983C146.73,304.224,144.22,303.19,141.537,303.19z" fill="#3F456B"/></g></g></g></g><g><g><g><path d="M256.104,123.667c-2.564,0-4.747-1.962-4.976-4.565c-1.674-19.154,1.529-30.086,1.666-30.542       c0.796-2.645,3.585-4.141,6.229-3.348c2.638,0.793,4.136,3.571,3.354,6.21c-0.042,0.145-2.772,9.807-1.285,26.809       c0.24,2.751-1.795,5.176-4.546,5.417C256.397,123.661,256.251,123.667,256.104,123.667z" fill="#3F456B"/></g></g></g></g></g><g id="Outline"><g><g><g><g><g><path d="M408.897,375.591c-1.834,3.069-5.807,4.07-8.876,2.236c-3.068-1.833-4.07-5.808-2.236-8.876        c1.834-3.069,5.809-4.07,8.877-2.237C409.731,368.548,410.731,372.522,408.897,375.591z" fill="#3F456B"/></g></g></g><g><g><g><g><path d="M388.507,367.968c-0.914,0-1.84-0.25-2.67-0.776c-10.139-6.42-17.717-15.119-21.521-24.171         c-7.361-1.97-13.524-6.553-17.255-13.262c-2.906-5.226-3.593-11-4.199-16.096c-0.74-6.229-1.381-11.608-5.532-15.33         c-5.888-5.28-14.416-3.674-18.975-2.247c-2.637,0.827-5.441-0.643-6.266-3.278c-0.825-2.635,0.643-5.44,3.277-6.265         c11.211-3.509,21.646-1.925,28.639,4.344c6.96,6.239,7.931,14.397,8.787,21.594c0.545,4.583,1.06,8.913,3.009,12.417         c1.521,2.735,3.521,4.759,5.789,6.201c-0.024-0.791-0.015-1.578,0.028-2.36c0.44-7.918,4.442-14.287,10.982-17.475         c7.511-3.661,15.243-3.271,20.683,1.046c4.79,3.801,6.919,9.866,5.558,15.828c-1.684,7.375-8.192,12.855-17.854,15.035         c-1.665,0.375-3.316,0.636-4.944,0.784c3.758,5.916,9.421,11.16,15.145,14.784c2.333,1.478,3.026,4.566,1.55,6.899         C391.784,367.145,390.164,367.968,388.507,367.968z M371.938,334.084c2.347,0.074,4.688-0.178,6.848-0.665         c5.758-1.298,9.514-4.035,10.307-7.506c0.496-2.173-0.279-4.383-2.025-5.769c-2.384-1.892-6.061-1.853-10.084,0.11         c-4.144,2.019-5.212,6.03-5.379,9.04C371.515,330.892,371.636,332.493,371.938,334.084z" fill="#3F456B"/></g></g></g></g></g><g><g><g><g><g><g><path d="M434.666,260.146c-2.706,0-4.932-2.161-4.997-4.88c-0.065-2.761,2.119-5.052,4.88-5.118          l13.536-0.324c2.731-0.069,5.052,2.119,5.118,4.879c0.065,2.761-2.119,5.052-4.88,5.118l-13.536,0.324          C434.747,260.146,434.706,260.146,434.666,260.146z" fill="#3F456B"/></g></g></g></g><g><g><g><g><path d="M441.534,287.401c-0.81,0-1.63-0.197-2.391-0.612l-11.823-6.454          c-2.424-1.323-3.316-4.36-1.993-6.784s4.36-3.317,6.784-1.993l11.823,6.454c2.424,1.323,3.316,4.36,1.993,6.784          C445.02,286.458,443.305,287.401,441.534,287.401z" fill="#3F456B"/></g></g></g></g></g><g><g><g><g><path d="M430.071,239.141c-1.687,0-3.332-0.853-4.274-2.398c-1.438-2.358-0.69-5.435,1.667-6.872         l10.641-6.486c2.358-1.437,5.435-0.69,6.872,1.667c1.438,2.358,0.69,5.435-1.667,6.872l-10.641,6.486         C431.856,238.905,430.958,239.141,430.071,239.141z" fill="#3F456B"/></g></g></g></g></g><g><g><g><g><g><g><path d="M65.171,260.146c-2.727,0-4.958-2.19-4.997-4.927c-0.041-2.761,2.165-5.032,4.926-5.073          l13.539-0.198c0.025,0,0.05,0,0.075,0c2.727,0,4.958,2.19,4.997,4.927c0.041,2.761-2.165,5.032-4.926,5.073l-13.539,0.198          C65.221,260.146,65.196,260.146,65.171,260.146z" fill="#3F456B"/></g></g></g></g><g><g><g><g><path d="M83.852,239.196c-0.824,0-1.66-0.205-2.432-0.635l-11.762-6.564          c-2.411-1.346-3.275-4.392-1.93-6.803c1.345-2.411,4.389-3.274,6.803-1.93l11.762,6.564c2.411,1.346,3.275,4.392,1.93,6.803          C87.308,238.272,85.605,239.196,83.852,239.196z" fill="#3F456B"/></g></g></g></g></g><g><g><g><g><path d="M72.422,287.384c-1.703,0-3.362-0.87-4.298-2.438c-1.416-2.371-0.641-5.44,1.73-6.856l10.701-6.387         c2.371-1.416,5.441-0.64,6.855,1.731c1.416,2.371,0.641,5.44-1.73,6.856l-10.701,6.387         C74.177,287.155,73.294,287.384,72.422,287.384z" fill="#3F456B"/></g></g></g></g></g><g><g><g><g><path d="M318.068,503.429c-1.714,0-3.383-0.882-4.314-2.466l-19.665-33.427c-1.4-2.38-0.605-5.444,1.774-6.845        c2.379-1.4,5.444-0.606,6.845,1.774l19.665,33.427c1.4,2.38,0.605,5.444-1.774,6.845        C319.803,503.206,318.93,503.429,318.068,503.429z" fill="#3F456B"/></g></g></g><g><g><g><path d="M288.833,486.877c-2.742,0-4.976-2.211-4.999-4.958c-0.023-2.761,2.196-5.019,4.958-5.042        l38.794-0.325c0.015,0,0.028,0,0.043,0c2.742,0,4.976,2.211,4.999,4.958c0.023,2.761-2.196,5.019-4.958,5.042l-38.794,0.325        C288.861,486.877,288.848,486.877,288.833,486.877z" fill="#3F456B"/></g></g></g><g><g><g><path d="M298.661,503.591c-0.835,0-1.682-0.209-2.461-0.651c-2.402-1.362-3.246-4.413-1.884-6.815        l19.13-33.752c1.36-2.402,4.41-3.248,6.815-1.885c2.402,1.362,3.246,4.413,1.884,6.815l-19.13,33.752        C302.096,502.679,300.403,503.591,298.661,503.591z" fill="#3F456B"/></g></g></g></g><g><g><g><g><path d="M468.942,261.457c-3.575,0-6.473-2.897-6.473-6.473c0-3.574,2.897-6.472,6.473-6.472        c3.574,0,6.473,2.898,6.473,6.472C475.414,258.561,472.516,261.457,468.942,261.457z" fill="#3F456B"/></g></g></g></g><g><g><g><g><path d="M458.942,223.75c-3.575,0-6.473-2.896-6.473-6.473c0-3.574,2.897-6.472,6.473-6.472        c3.574,0,6.473,2.898,6.473,6.472C465.414,220.854,462.516,223.75,458.942,223.75z" fill="#3F456B"/></g></g></g></g><g><g><g><g><path d="M206.652,43.942c-3.575,0-6.473-2.896-6.473-6.473c0-3.574,2.897-6.472,6.473-6.472        c3.574,0,6.473,2.898,6.473,6.472C213.125,41.046,210.226,43.942,206.652,43.942z" fill="#3F456B"/></g></g></g></g><g><g><g><g><path d="M458.942,295.345c-3.575,0-6.473-2.896-6.473-6.473c0-3.574,2.897-6.472,6.473-6.472        c3.574,0,6.473,2.898,6.473,6.472C465.414,292.449,462.516,295.345,458.942,295.345z" fill="#3F456B"/></g></g></g></g><g><g><g><g><path d="M42.221,261.457c3.575,0,6.473-2.897,6.473-6.473c0-3.574-2.897-6.472-6.473-6.472        c-3.574,0-6.473,2.898-6.473,6.472C35.749,258.561,38.647,261.457,42.221,261.457z" fill="#3F456B"/></g></g></g></g><g><g><g><g><path d="M52.221,223.75c3.575,0,6.473-2.896,6.473-6.473c0-3.574-2.897-6.472-6.473-6.472        c-3.574,0-6.473,2.898-6.473,6.472C45.749,220.854,48.647,223.75,52.221,223.75z" fill="#3F456B"/></g></g></g></g><g><g><g><g><path d="M52.221,295.345c3.575,0,6.473-2.896,6.473-6.473c0-3.574-2.897-6.472-6.473-6.472        c-3.574,0-6.473,2.898-6.473,6.472C45.749,292.449,48.647,295.345,52.221,295.345z" fill="#3F456B"/></g></g></g></g><g><g><g><path d="M171.83,113.107c-1.56,3.217-5.43,4.563-8.648,3.004c-3.216-1.56-4.561-5.433-3.002-8.649       c1.559-3.217,5.431-4.56,8.646-3.002C172.044,106.019,173.388,109.89,171.83,113.107z" fill="#3F456B"/></g></g></g><g><g><g><path d="M184.583,161.376c-1.56,3.217-5.43,4.563-8.648,3.004c-3.216-1.56-4.561-5.433-3.002-8.649       c1.559-3.217,5.431-4.56,8.646-3.002C184.798,154.288,186.141,158.159,184.583,161.376z" fill="#3F456B"/></g></g></g><g><g><g><path d="M265.759,197.864c-1.56,3.217-5.43,4.563-8.648,3.004c-3.216-1.56-4.561-5.433-3.002-8.649       c1.559-3.217,5.431-4.56,8.646-3.002C265.974,190.776,267.317,194.647,265.759,197.864z" fill="#3F456B"/></g></g></g><g><g><g><path d="M360.033,399.354c-1.187,4.35-6.172,6.187-9.873,3.736c-2.27-1.504-3.371-4.372-2.664-7.002       c1.177-4.377,6.202-6.218,9.906-3.733C359.66,393.868,360.749,396.732,360.033,399.354z" fill="#3F456B"/></g></g></g><g><g><g><path d="M399.302,420.351c-1.187,4.35-6.172,6.187-9.873,3.736c-2.27-1.504-3.371-4.372-2.664-7.002       c1.177-4.377,6.202-6.218,9.906-3.733C398.929,414.865,400.018,417.729,399.302,420.351z" fill="#3F456B"/></g></g></g></g></g></svg>