<?xml version="1.0" ?><svg viewBox="0 0 512 512" xmlns="http://www.w3.org/2000/svg"><defs><style>.cls-1{fill:#3f456b;}</style></defs><title/><g id="Lines"><path class="cls-1" d="M80,497a5,5,0,0,1-.77-.06l-64-10A5,5,0,0,1,11,481.37L53.3,147.21C55.2,129.3,64.86,112,81.23,97.09A119.62,119.62,0,0,1,105.35,80l66.24-36.37a5,5,0,1,1,4.82,8.76L110.09,88.79l-.17.09c-.42.21-42.72,21.88-46.68,59.43,0,0,0,.07,0,.11L21.57,477.81l54.17,8.46,34-249.24a5,5,0,1,1,9.91,1.35L85,492.68A5,5,0,0,1,80,497Z"/><path class="cls-1" d="M433,499a5,5,0,0,1-4.95-4.3L391.54,237.41a5,5,0,1,1,9.9-1.41l35.79,252.19,53.22-9.3L449,148.41c-4-37.65-46.27-59.32-46.7-59.53l-.21-.11L335.55,51.36a5,5,0,0,1,4.9-8.72L406.88,80A119.74,119.74,0,0,1,431,97.09c16.39,14.9,26,32.25,27.93,50.18l42,335.11a5,5,0,0,1-4.1,5.55l-63,11A5,5,0,0,1,433,499Z"/><path class="cls-1" d="M396.36,465H114.72a5,5,0,0,1-5-5V183.14c0-1.92-1.31-49-43.69-55.92a5,5,0,0,1,1.61-9.87c21.06,3.45,36.77,16,45.42,36.3a85.72,85.72,0,0,1,6.66,29.42V455H391.36V183.14c0-30.52,14.51-46.83,26.69-55.13a66.42,66.42,0,0,1,26.71-10.69,5,5,0,0,1,1.22,9.93c-1.94.25-44.62,6.34-44.62,55.89V460A5,5,0,0,1,396.36,465Z"/><path class="cls-1" d="M233.31,465a5,5,0,0,1-5-5V113a5,5,0,0,1,10,0V460A5,5,0,0,1,233.31,465Z"/><path class="cls-1" d="M211.34,139.38h-.24a5,5,0,0,1-3.62-1.82c-1.45-1.76-35.55-43.75-38.41-92.34a5,5,0,0,1,2.22-4.45l39.14-26.09a3.25,3.25,0,0,1,.57-.33c5.67-4.38,13.83-4.3,15.35-4.24h59.43c1.52-.06,9.68-.14,15.36,4.24a4.18,4.18,0,0,1,.57.33l39.13,26.09a5,5,0,0,1,2.22,4.45c-2.86,48.59-36.95,90.58-38.4,92.34a5,5,0,0,1-7.4.36L256.07,96.73l-41.2,41.19A5,5,0,0,1,211.34,139.38Zm53-48.52,35.93,35.93c8.32-11.47,29.51-43.79,32.59-79.32L306.06,29.59c-.12.57-.27,1.15-.44,1.75C304.91,34.05,294.44,72.55,264.35,90.86ZM179.26,47.47c3.09,35.52,24.27,67.85,32.6,79.32l35.93-35.93c-30.1-18.31-40.57-56.81-41.27-59.52-.18-.6-.32-1.18-.44-1.74Zm46.25-27.38c-2.53,0-7.4.66-9.14,2.9-.91,1.16-1,3.05-.23,5.62,0,.05,0,.11,0,.17.11.4,10.55,39.83,39.89,55.29,29.42-15.5,39.78-54.88,39.88-55.29,0-.06,0-.12.05-.17.75-2.57.67-4.47-.24-5.63-1.89-2.41-7.4-3-9.64-2.88H225.51Z"/><path class="cls-1" d="M293.7,52.92H218.11a5,5,0,0,1,0-10H293.7a5,5,0,0,1,0,10Z"/><path class="cls-1" d="M396,429H115a5,5,0,0,1,0-10H396a5,5,0,0,1,0,10Z"/><path class="cls-1" d="M256.24,150.94a5,5,0,0,1-5-5v-1.15a5,5,0,1,1,10,0v1.15A5,5,0,0,1,256.24,150.94Z"/><path class="cls-1" d="M256.24,225a5,5,0,0,1-5-5V218.8a5,5,0,0,1,10,0V220A5,5,0,0,1,256.24,225Z"/><path class="cls-1" d="M256.24,299a5,5,0,0,1-5-5v-1.15a5,5,0,1,1,10,0V294A5,5,0,0,1,256.24,299Z"/><path class="cls-1" d="M256.24,373a5,5,0,0,1-5-5v-1.15a5,5,0,1,1,10,0V368A5,5,0,0,1,256.24,373Z"/><path class="cls-1" d="M256.24,447a5,5,0,0,1-5-5v-1.15a5,5,0,0,1,10,0V442A5,5,0,0,1,256.24,447Z"/><path class="cls-1" d="M85,455a5.25,5.25,0,0,1-.79-.06l-63-10a5,5,0,1,1,1.56-9.88l63,10A5,5,0,0,1,85,455Z"/><path class="cls-1" d="M427,455a5,5,0,0,1-.77-9.94l63-10a5,5,0,0,1,1.56,9.88l-63,10A5.25,5.25,0,0,1,427,455Z"/><path class="cls-1" d="M368,293H302a5,5,0,0,1-5-5V209a5,5,0,0,1,5-5h66a5,5,0,0,1,5,5v79A5,5,0,0,1,368,293Zm-61-10h56V214H307Z"/><path class="cls-1" d="M336,249a5.15,5.15,0,0,1-1.6-.26l-34-11.5a5,5,0,0,1,3.2-9.48l32.35,11,30.36-10.92a5,5,0,1,1,3.38,9.42l-32,11.5A5.18,5.18,0,0,1,336,249Z"/><path class="cls-1" d="M336,232a5,5,0,0,1-5-5v-1a5,5,0,0,1,10,0v1A5,5,0,0,1,336,232Z"/><path class="cls-1" d="M210,293H144a5,5,0,0,1-5-5V209a5,5,0,0,1,5-5h66a5,5,0,0,1,5,5v79A5,5,0,0,1,210,293Zm-61-10h56V214H149Z"/><path class="cls-1" d="M178,249a5.15,5.15,0,0,1-1.6-.26l-34-11.5a5,5,0,0,1,3.2-9.48l32.35,11,30.36-10.92a5,5,0,1,1,3.38,9.42l-32,11.5A5.18,5.18,0,0,1,178,249Z"/><path class="cls-1" d="M178,232a5,5,0,0,1-5-5v-1a5,5,0,0,1,10,0v1A5,5,0,0,1,178,232Z"/><path class="cls-1" d="M396,188H115a5,5,0,0,1,0-10H396a5,5,0,0,1,0,10Z"/></g><g id="Outline"><path class="cls-1" d="M278,465a5,5,0,0,1-5-5V113a5,5,0,0,1,10,0V460A5,5,0,0,1,278,465Z"/><path class="cls-1" d="M177,465a5,5,0,0,1-5-5V291a5,5,0,0,1,10,0V460A5,5,0,0,1,177,465Z"/><path class="cls-1" d="M336,465a5,5,0,0,1-5-5V291a5,5,0,0,1,10,0V460A5,5,0,0,1,336,465Z"/><path class="cls-1" d="M26.5,421.08a5.35,5.35,0,0,1-.79-.06l-.49-.08a5,5,0,1,1,1.56-9.88l.5.08a5,5,0,0,1-.78,9.94Z"/><path class="cls-1" d="M68.51,427.75a4.22,4.22,0,0,1-.79-.07l-1-.15a5,5,0,1,1,1.57-9.88l1,.16a5,5,0,0,1-.78,9.94Zm-21-3.34a5.35,5.35,0,0,1-.79-.06l-1-.16a5,5,0,1,1,1.57-9.87l1,.15a5,5,0,0,1-.78,9.94Z"/><path class="cls-1" d="M89,431a5.39,5.39,0,0,1-.8-.06l-.49-.08A5,5,0,0,1,89.29,421l.5.08A5,5,0,0,1,89,431Z"/><path class="cls-1" d="M485.73,421.08a5,5,0,0,1-.77-9.94l.49-.08a5,5,0,1,1,1.56,9.88l-.49.08A5.35,5.35,0,0,1,485.73,421.08Z"/><path class="cls-1" d="M443.72,427.75a5,5,0,0,1-.78-9.94l1-.16a5,5,0,1,1,1.57,9.88l-1,.15A4.22,4.22,0,0,1,443.72,427.75Zm21-3.34a5,5,0,0,1-.78-9.94l1-.15a5,5,0,1,1,1.57,9.87l-1,.16A5.35,5.35,0,0,1,464.73,424.41Z"/><path class="cls-1" d="M423.22,431a5,5,0,0,1-.78-9.94l.5-.08a5,5,0,0,1,1.57,9.88l-.49.08A5.39,5.39,0,0,1,423.22,431Z"/></g></svg>