<?xml version="1.0" ?><svg id="Lines" viewBox="0 0 512 512" xmlns="http://www.w3.org/2000/svg"><defs><style>.cls-1{fill:#3f456b;}</style></defs><title/><path class="cls-1" d="M203,307.27a5,5,0,0,1-3-1,50.18,50.18,0,0,1-18.92-30,5,5,0,0,1,9.88-1.56,40.93,40.93,0,0,0,12.39,21.42,36.06,36.06,0,0,0,13.84-22.86,5,5,0,1,1,9.84,1.8c-4.12,22.54-21.07,31.32-21.79,31.68A5,5,0,0,1,203,307.27Z"/><path class="cls-1" d="M249.19,356.79a24.45,24.45,0,0,1-19.52-9.54l-.27-.33c-9.9-12.19-15.92-23.37,3.6-46.63,11.31-13.48,9.49-29.64,9.47-29.8a5,5,0,1,1,9.93-1.21c.1.84,2.33,20.67-11.74,37.43-15.77,18.79-10.88,24.81-3.49,33.91l.26.33A14.67,14.67,0,0,0,250,346.77c6.75-.29,14.25-4.6,18.23-10.48l.15-.21c8-11.84,26.78-39.54,51.91-35.9,18.64,2.7,32.38-20.24,32.52-20.47a5,5,0,0,1,8.61,5.07c-.65,1.11-15.37,25.63-38,25.63a32.68,32.68,0,0,1-4.57-.33c-18.93-2.75-35.23,21.32-42.19,31.6l-.15.22c-5.73,8.46-16.21,14.44-26.08,14.86Z"/><path class="cls-1" d="M305.83,500.5H203.67a5,5,0,0,1-5-4.57c-1.17-13.82,8.1-19.79,13.66-21.19,1.25-.67,8.87-5.58,8.87-25.16V397.74a5.12,5.12,0,0,1,.06-.78c0-.26,3.92-27.17-13.33-41.9l-.74-.64c-19.42-16.58-46-39.3-50.09-81.92a5,5,0,0,1,10-.95c3.69,38.59,27.5,58.93,46.63,75.27l.74.63c20.46,17.49,17.31,46.64,16.77,50.64v51.49c0,11.75-2.39,21-7.08,27.54-3.82,5.29-7.83,6.85-8.59,7.11a4.24,4.24,0,0,1-.61.17,8.24,8.24,0,0,0-6,6.1H301.2a6.07,6.07,0,0,0-1-2.64c-1.81-2.71-5.59-3.42-5.63-3.43l-.3-.06c-8.33-2-14.54-7.82-18-16.94a42.4,42.4,0,0,1-2.58-12.61V404.65c0-11.68,6.67-30.88,7-31.69a5.94,5.94,0,0,1,.43-.92c.54-.88,13.08-21.76,20.75-32.31,8.61-11.84,25.51-16.05,26.23-16.22,34.1-8.13,48.35-44.42,48.49-44.79a5,5,0,1,1,9.34,3.56c-.64,1.69-16.18,41.58-55.5,51-.11,0-14,3.55-20.47,12.38-6.81,9.36-18.1,28-20,31.13-1,2.94-6.23,18.83-6.23,27.91v50a32.86,32.86,0,0,0,2,9.52c2.22,5.75,5.81,9.26,10.68,10.45,1.47.28,8,1.81,12,7.58,1.86,2.73,3.76,7.43,2.25,14.38A5,5,0,0,1,305.83,500.5Z"/><path class="cls-1" d="M356.7,286.75A246.68,246.68,0,0,1,319.86,284c-30.93-4.67-48.28-15-51.57-30.75-1.18-5.65,0-12,3.29-17.81,6.11-10.79,16.85-18,31.92-21.34a84.85,84.85,0,0,1,10.9-1.43c7.89-.71,16.05-1.44,20.18-6,3.07-3.41,2.25-6.35-.68-13.29-1.46-3.44-3-7-3.39-10.92-1.06-9.91,5-19,16.67-25,7.81-4,16.56-6.43,22.46-7.91h0c18.82-4.72,39.1-5.93,60.26-3.59,18.2,2,41.13,5.83,57,17.67,10.73,8,20,23.28,14.86,37.84s-19.57,17.12-31.21,19.24c-2.55.46-4.95.9-7.11,1.43-4.78,1.17-10,4.39-10.22,8.71a19.18,19.18,0,0,0,1.07,5.74,40.6,40.6,0,0,1,1.3,5.57c1,7.4-1.83,15.51-7.62,21.7-14.3,15.3-40.1,18.48-58.94,20.81l-1.6.2A250.76,250.76,0,0,1,356.7,286.75Zm15.37-127.52c-5.42,1.36-13.43,3.58-20.34,7.11-3.67,1.88-12.13,7.12-11.28,15,.27,2.46,1.43,5.2,2.65,8.09,2.76,6.51,6.53,15.42-1.09,23.88-6.76,7.5-17.36,8.45-26.71,9.29a77.22,77.22,0,0,0-9.62,1.23c-12.19,2.72-20.74,8.28-25.4,16.51-2.1,3.71-2.88,7.56-2.2,10.84,3.07,14.71,28.43,20.66,43.27,22.9a238,238,0,0,0,64.82.82l1.6-.2c17.32-2.13,41-5.06,52.87-17.71,3.75-4,5.62-9.06,5-13.51a32.13,32.13,0,0,0-1-4.18,27.27,27.27,0,0,1-1.45-9c.49-10.14,9.91-16,17.84-17.94,2.45-.59,5-1.06,7.68-1.55,12.34-2.25,20.64-4.35,23.57-12.71,2.48-7.08-.64-18.47-11.4-26.52-14.07-10.51-36.47-14-52.09-15.74-20-2.21-39.06-1.08-56.73,3.35Z"/><path class="cls-1" d="M197.47,280.48c-68.07,0-103.74-33.65-119.18-54.24-9-12-19.76-11-19.86-11l-.52,0c-1.3,0-25-.19-38.07-13.76-5.9-6.13-8.69-13.91-8.31-23.13,1.22-29.11,25.84-48.18,73.2-56.66,33-5.92,50.26-26.27,50.43-26.48,16.76-19.68,40.94-30.82,70-32.25a144.36,144.36,0,0,1,86,23.78c3.28,2.17,6.57,4.46,9.74,6.68,14.29,10,27.79,19.43,44.36,20.66,29,2.14,52.18,13.37,65.28,31.61a5,5,0,0,1-8.12,5.84c-11.35-15.8-31.91-25.56-57.9-27.48-19.31-1.43-34.58-12.1-49.35-22.43-3.12-2.18-6.35-4.44-9.52-6.54a134.35,134.35,0,0,0-80-22.14c-18.26.91-44,6.62-62.8,28.71-.76.91-19.76,23.32-56.31,29.88-19.41,3.48-34.69,8.76-45.41,15.7-12.62,8.18-19,18.49-19.56,31.54-.27,6.47,1.53,11.64,5.52,15.78,8.38,8.72,24.84,10.67,30.7,10.69,2.43-.15,17-.35,28.54,15,14.85,19.8,50,52.64,118.66,50.11,27.54-1,50.86-6.11,69.32-15.13a5,5,0,1,1,4.39,9c-19.72,9.63-44.4,15.06-73.35,16.13C202.66,280.44,200,280.48,197.47,280.48Z"/><path class="cls-1" d="M123,329.89c-17.08,0-34.52-1.11-51.74-5-7.37-1.66-16.82-4.32-24.48-10.19-8.46-6.48-13.27-16.21-12.55-25.39.95-12.26,11-21.16,20-25.39,6.75-3.16,13.89-4.7,20.8-6.2,2.53-.54,5.14-1.11,7.64-1.74s5.57-1.49,7.58-3.11c1.83-1.47,3.23-3.85,4.71-6.37.57-1,1.13-1.93,1.73-2.87a5,5,0,0,1,8.43,5.38c-.53.83-1,1.69-1.54,2.55-1.78,3-3.81,6.48-7.07,9.1-3.41,2.75-7.5,4-11.4,5-2.66.67-5.36,1.25-8,1.82-6.67,1.44-13,2.8-18.68,5.48-6.5,3-13.66,9.13-14.29,17.11-.45,5.84,2.87,12.23,8.68,16.67,6.07,4.66,13.82,6.85,20.59,8.37,25.28,5.7,51.55,5.13,76.28,4.05,11.77-.51,21.62-1.1,31.47-2.29a5,5,0,1,1,1.2,9.92c-10.16,1.24-20.23,1.84-32.23,2.36C141.33,329.57,132.23,329.89,123,329.89Z"/><path class="cls-1" d="M308.86,310.76a5,5,0,0,1-1.84-.35c-22-8.74-24.71-30.85-23-41.31a5,5,0,0,1,9.88,1.56c-.14,1-3.16,22.52,16.84,30.45a5,5,0,0,1-1.84,9.65Z"/><path class="cls-1" d="M403,334.86c-31.36,0-53.35-10.17-54.76-10.84a5,5,0,0,1,4.28-9c.72.34,50.48,23.07,105.75-2.19,20.1-9.19,29.65-20.78,26.89-32.62-3-12.87-19.81-24.18-35.29-23.72a5,5,0,0,1-.29-10c20.08-.59,41.28,14.11,45.32,31.45,2.29,9.84,1.12,28.62-32.47,44A142,142,0,0,1,403,334.86Z"/><path class="cls-1" d="M426.76,155.64a5,5,0,0,1-4.78-6.48c3.37-10.87,2.89-19.93-1.42-26.92-6.84-11.09-21.67-14.63-27.73-15.64-27.16-4.53-39.3-22.44-35.13-51.8,1.16-8.19-.61-14.86-5.42-20.4-9-10.4-26.87-13.9-33.63-13.9-9.5,0-31.74,0-48,14.71-13.32,12.06-29.46,14.32-45.08,16.51-4.31.6-8.77,1.22-13.05,2.05-5.92,1.14-25.73,6.07-32.14,21.65a5,5,0,1,1-9.25-3.8c5.61-13.65,20.38-24,39.5-27.67,4.53-.87,9.12-1.52,13.55-2.14,14.77-2.07,28.72-4,39.76-14,19.1-17.29,44-17.29,54.69-17.29,6.78,0,28.9,3.19,41.18,17.34,6.73,7.75,9.34,17.29,7.77,28.36-3.41,24,5.12,36.91,26.87,40.53,21.44,3.58,30.88,14.23,34.6,20.26,5.89,9.55,6.72,21.37,2.47,35.13A5,5,0,0,1,426.76,155.64Z"/><path class="cls-1" d="M266.1,313.54a65.64,65.64,0,0,1-30.35-7.48,5,5,0,0,1,5-8.68c1.12.64,27.53,15.24,54.22-2.93a5,5,0,0,1,5.62,8.27A60.28,60.28,0,0,1,266.1,313.54Z"/><path class="cls-1" d="M342.39,435.93a23.22,23.22,0,0,1-8.1-1.34,5,5,0,0,1-2.68-2.54c-.28-.62-6.78-15.23,7.58-28.28,7.45-6.77,14.74-7.67,19.54-7.24a21.61,21.61,0,0,1,9.1,2.87,5,5,0,0,1,2,2.59c.19.58,4.67,14.24-8.48,26.2C354.53,434.42,347.55,435.93,342.39,435.93Zm-2.29-10.14c3,.43,8.73.3,14.56-5s6.31-10.9,6.06-13.73c-2.76-.94-8.41-1.7-14.8,4.11S339.53,422.73,340.1,425.79Z"/><path class="cls-1" d="M160.39,493.35a23.62,23.62,0,0,1-8.1-1.33,5,5,0,0,1-2.68-2.55c-.28-.62-6.78-15.22,7.58-28.28,7.45-6.77,14.74-7.67,19.54-7.24a21.61,21.61,0,0,1,9.1,2.87,5,5,0,0,1,2,2.59c.19.58,4.67,14.24-8.48,26.2C172.53,491.84,165.55,493.35,160.39,493.35Zm-2.29-10.14c3,.43,8.73.3,14.56-5s6.31-10.9,6.06-13.73c-2.76-.94-8.42-1.69-14.8,4.11S157.53,480.15,158.1,483.21Z"/><path class="cls-1" d="M422.39,413.43a23.22,23.22,0,0,1-8.1-1.34,5,5,0,0,1-2.68-2.54c-.28-.62-6.78-15.23,7.58-28.28,7.45-6.77,14.74-7.67,19.54-7.24a21.61,21.61,0,0,1,9.1,2.87,5,5,0,0,1,2,2.59c.19.58,4.67,14.24-8.48,26.2C434.53,411.92,427.55,413.43,422.39,413.43Zm-2.29-10.14c3,.43,8.73.3,14.56-5s6.31-10.9,6.06-13.73c-2.76-.94-8.42-1.7-14.8,4.11S419.53,400.23,420.1,403.29Z"/><path class="cls-1" d="M335.06,377.93a23.31,23.31,0,0,1-8.11-1.34,5,5,0,0,1-2.67-2.54c-.29-.62-6.79-15.23,7.58-28.28,7.45-6.77,14.73-7.67,19.54-7.24a21.61,21.61,0,0,1,9.1,2.87,5,5,0,0,1,2,2.59c.2.58,4.68,14.24-8.48,26.2C347.2,376.42,340.22,377.93,335.06,377.93Zm-2.29-10.14c3,.43,8.73.3,14.56-5s6.35-10.94,6.08-13.73c-2.75-.94-8.42-1.71-14.83,4.11S332.19,364.73,332.77,367.79Z"/><path class="cls-1" d="M141.51,393.08a23.62,23.62,0,0,1-8.1-1.33,5.06,5.06,0,0,1-2.68-2.55c-.28-.62-6.78-15.22,7.59-28.28,7.44-6.77,14.73-7.67,19.53-7.24a21.61,21.61,0,0,1,9.1,2.87,5,5,0,0,1,2,2.59c.2.58,4.68,14.24-8.48,26.2C153.65,391.57,146.67,393.08,141.51,393.08Zm-2.29-10.14c3,.43,8.74.3,14.56-5s6.35-10.94,6.09-13.72c-2.75-1-8.42-1.72-14.83,4.1S138.65,379.88,139.22,382.94Z"/><path class="cls-1" d="M64.18,433.08a23.62,23.62,0,0,1-8.1-1.33,5,5,0,0,1-2.68-2.55c-.28-.62-6.78-15.22,7.58-28.28,7.45-6.77,14.74-7.67,19.54-7.24a21.61,21.61,0,0,1,9.1,2.87,5,5,0,0,1,2,2.59c.19.58,4.67,14.24-8.48,26.2C76.32,431.57,69.34,433.08,64.18,433.08Zm-2.29-10.14c3,.43,8.73.3,14.56-5s6.31-10.9,6.06-13.73c-2.76-.94-8.42-1.7-14.8,4.11S61.32,419.88,61.89,422.94Z"/></svg>