<?xml version="1.0" ?><svg enable-background="new 0 0 512 512" version="1.1" viewBox="0 0 512 512" xml:space="preserve" xmlns="http://www.w3.org/2000/svg" xmlns:xlink="http://www.w3.org/1999/xlink"><g id="Lines"><g><g><g><g><path d="M219.779,498.545c-113.037,0-205-91.963-205-205s91.963-205,205-205       c41.423,0,81.333,12.295,115.417,35.555c2.281,1.557,2.868,4.667,1.312,6.948s-4.668,2.869-6.948,1.312       c-32.416-22.121-70.377-33.814-109.78-33.814c-107.523,0-195,87.477-195,195s87.477,195,195,195s195-87.477,195-195       c0-39.712-11.862-77.921-34.305-110.496c-1.566-2.274-0.993-5.388,1.28-6.954c2.275-1.566,5.389-0.992,6.954,1.28       c23.598,34.252,36.07,74.423,36.07,116.17C424.779,406.582,332.816,498.545,219.779,498.545z" fill="#3F456B"/></g></g></g><g><g><g><path d="M219.779,456.712c-89.971,0-163.167-73.196-163.167-163.167c0-89.97,73.196-163.166,163.167-163.166       c35.219,0,68.753,11.043,96.979,31.935c2.22,1.643,2.688,4.773,1.044,6.993c-1.643,2.222-4.774,2.687-6.993,1.044       c-26.491-19.607-57.969-29.972-91.029-29.972c-84.457,0-153.167,68.71-153.167,153.166c0,84.457,68.71,153.167,153.167,153.167       s153.167-68.71,153.167-153.167c0-33.177-10.431-64.743-30.164-91.287c-1.647-2.217-1.187-5.349,1.029-6.996       s5.348-1.187,6.996,1.029c21.025,28.282,32.139,61.912,32.139,97.254C382.946,383.516,309.75,456.712,219.779,456.712z" fill="#3F456B"/></g></g></g><g><g><g><path d="M219.779,418.379c-68.833,0-124.833-56-124.833-124.834c0-68.833,56-124.833,124.833-124.833       c23.763,0,46.876,6.703,66.842,19.385c2.331,1.48,3.021,4.57,1.54,6.901s-4.572,3.021-6.901,1.54       c-18.36-11.662-39.62-17.826-61.48-17.826c-63.319,0-114.833,51.514-114.833,114.833s51.514,114.834,114.833,114.834       s114.833-51.515,114.833-114.834c0-22.228-6.358-43.789-18.388-62.355c-1.502-2.317-0.84-5.413,1.478-6.915       c2.315-1.501,5.413-0.84,6.915,1.478c13.081,20.189,19.995,43.632,19.995,67.793       C344.612,362.379,288.612,418.379,219.779,418.379z" fill="#3F456B"/></g></g></g><g><g><g><path d="M219.779,378.379c-46.777,0-84.833-38.057-84.833-84.834s38.056-84.833,84.833-84.833       c14.122,0,28.106,3.542,40.44,10.242c2.427,1.318,3.325,4.354,2.007,6.78c-1.317,2.426-4.351,3.327-6.78,2.007       c-10.874-5.907-23.207-9.029-35.667-9.029c-41.263,0-74.833,33.57-74.833,74.833c0,41.264,33.57,74.834,74.833,74.834       s74.833-33.57,74.833-74.834c0-12.523-3.152-24.912-9.116-35.827c-1.324-2.423-0.433-5.461,1.99-6.785       c2.423-1.326,5.461-0.433,6.785,1.99c6.765,12.381,10.341,26.428,10.341,40.622       C304.612,340.322,266.557,378.379,219.779,378.379z" fill="#3F456B"/></g></g></g><g><g><g><path d="M219.779,338.545c-24.813,0-45-20.187-45-45s20.187-45,45-45s45,20.187,45,45       S244.593,338.545,219.779,338.545z M219.779,258.545c-19.299,0-35,15.701-35,35s15.701,35,35,35s35-15.701,35-35       S239.078,258.545,219.779,258.545z" fill="#3F456B"/></g></g></g><g><g><g><g><path d="M458.927,503.099c-1.89,0-3.749-0.725-5.262-2.185c-1.466-1.416-2.204-3.135-2.601-4.059        c-1.713-3.989-3.05-8.018-4.343-11.914l-0.713-2.143c-0.182-0.543-0.358-1.135-0.533-1.728        c-0.137-0.462-0.271-0.924-0.414-1.349c-0.023-0.07-0.047-0.147-0.071-0.23c-1.053-0.276-2.121-0.538-3.225-0.808        c-2.235-0.547-4.548-1.111-6.901-1.86c-0.311-0.099-0.739-0.212-1.24-0.348c-4.64-1.258-13.276-3.598-13.046-10.663        c0.083-2.571,1.645-4.313,2.232-4.97c3.259-3.642,6.996-6.528,10.61-9.319l1.341-1.039c1.633-1.27,2.948-2.273,3.998-3.061        c-1.094-6.737-2.055-17.059-0.102-22.266c1.348-3.596,3.692-4.957,5.422-5.467c3.032-0.894,5.653,0.377,6.793,1.085        c4.428,2.221,12.541,8.887,16.948,12.632c7.405-3.812,15.008-6.466,17.361-7.167c2.108-0.626,4.067-0.665,5.82-0.113        c2.113,0.667,4.036,2.253,5.148,4.245c0.35,0.622,0.622,1.319,0.803,2.06c0.38,1.568,0.333,3.271-0.139,5.066        c-0.622,2.372-3.023,10.056-6.593,17.587c3.887,4.281,10.815,12.171,13.18,16.524c0.745,1.115,2.102,3.69,1.309,6.753        c-0.452,1.745-1.735,4.133-5.285,5.6c-5.082,2.099-15.245,1.515-22.018,0.66c-3.572,5.813-7.729,11.046-12.638,15.922        C463.063,502.243,460.978,503.099,458.927,503.099z M460.687,493.802h0.01H460.687z M432.147,465.564        c1.489,0.555,3.293,1.043,4.092,1.26c0.669,0.182,1.238,0.338,1.653,0.47c2.03,0.646,4.079,1.146,6.248,1.677        c1.99,0.486,4.048,0.99,6.142,1.624c0.763,0.23,1.459,0.641,2.031,1.194l0.063,0.062c1.393,1.348,1.802,3.105,2.1,4.39        c0.034,0.146,0.063,0.281,0.095,0.393c0.153,0.455,0.324,1.03,0.494,1.605c0.14,0.473,0.278,0.946,0.425,1.382l0.723,2.172        c1.112,3.352,2.171,6.542,3.439,9.676c4.212-4.487,7.756-9.325,10.792-14.726c1.033-1.837,3.106-2.829,5.188-2.479        c6.585,1.107,14.356,1.44,18.225,0.878c-2.618-3.917-9.248-11.449-13.302-15.794c-1.452-1.556-1.76-3.86-0.768-5.743        c3.483-6.606,6.01-14.105,6.992-17.373c-3.231,1.089-10.648,3.862-17.135,7.559c-1.85,1.054-4.163,0.822-5.765-0.578        c-4.478-3.91-12.222-10.289-16.221-12.777c-0.436,3.885,0.151,11.641,1.475,18.187c0.393,1.939-0.396,3.928-2.01,5.071        c-1.016,0.72-2.92,2.116-6.222,4.687l-1.37,1.061C436.9,461.472,434.38,463.419,432.147,465.564z M495.206,477.325        c0.004,0.005,0.007,0.01,0.011,0.014C495.213,477.335,495.209,477.33,495.206,477.325z M487.21,434.606L487.21,434.606        L487.21,434.606z M445.418,429.147c0.004,0.003,0.009,0.007,0.014,0.01C445.427,429.154,445.422,429.151,445.418,429.147z" fill="#3F456B"/></g></g></g></g><g><g><g><g><path d="M51.159,92.018c-0.666,0-1.359-0.094-2.081-0.296c-2.473-0.694-3.792-2.627-4.289-3.354        c-2.756-4.035-4.663-8.353-6.507-12.527l-0.709-1.601c-0.767-1.721-1.434-3.248-1.996-4.573        c-6.804-0.552-17.056-2.089-21.644-5.232c-3.167-2.17-3.928-4.771-4.009-6.572c-0.142-3.161,1.72-5.399,2.68-6.337        c3.216-3.767,11.631-10.048,16.322-13.431c-1.931-8.106-2.686-16.121-2.803-18.573c-0.104-2.197,0.329-4.106,1.285-5.679        c1.15-1.89,3.15-3.378,5.352-3.981c0.708-0.193,1.45-0.271,2.196-0.286c1.605,0.005,3.247,0.459,4.881,1.347        c2.156,1.175,9.043,5.346,15.499,10.613c5.088-2.749,14.407-7.587,19.198-8.842c1.261-0.455,4.087-1.157,6.87,0.347        c1.587,0.857,3.598,2.676,4.172,6.473c0.82,5.434-2.18,15.164-4.631,21.534c4.789,4.86,8.875,10.149,12.436,16.083        c2.378,3.965,1.409,8.536-2.304,10.87c-1.726,1.086-3.573,1.391-4.565,1.554c-4.269,0.707-8.489,1.04-12.571,1.361        l-2.282,0.183c-0.568,0.046-1.177,0.075-1.785,0.103c-0.486,0.022-0.973,0.043-1.425,0.08        c-0.075,0.006-0.157,0.011-0.246,0.015c-0.521,0.957-1.031,1.934-1.558,2.94c-1.065,2.039-2.167,4.147-3.456,6.252        c-0.17,0.278-0.383,0.667-0.635,1.121C60.47,85.365,56.78,92.018,51.159,92.018z M21.211,56.957        c3.667,1.352,11.338,2.64,18.011,2.922c1.977,0.083,3.718,1.324,4.442,3.165c0.449,1.143,1.342,3.307,3.044,7.126l0.722,1.629        c1.343,3.041,2.629,5.951,4.177,8.63c0.895-1.312,1.802-2.947,2.203-3.672c0.336-0.605,0.624-1.121,0.852-1.493        c1.112-1.814,2.088-3.683,3.121-5.66c0.949-1.817,1.932-3.696,3.049-5.579c0.409-0.688,0.976-1.268,1.654-1.69l0.075-0.047        c1.632-1.025,3.436-1.004,4.759-0.982c0.149,0.001,0.288,0.006,0.403,0.002c0.479-0.04,1.088-0.069,1.697-0.097        c0.486-0.022,0.973-0.043,1.425-0.08l2.311-0.185c3.51-0.276,6.851-0.54,10.186-1.021c-3.348-5.164-7.197-9.763-11.714-14.004        c-1.537-1.442-2.003-3.695-1.166-5.63c2.652-6.13,4.835-13.596,5.216-17.485c-4.429,1.604-13.328,6.238-18.519,9.135        c-1.858,1.039-4.17,0.785-5.76-0.63c-5.579-4.963-12.257-9.212-15.194-10.948c0.283,3.396,1.2,11.259,3.237,18.446        c0.58,2.047-0.199,4.237-1.941,5.458C32.632,47.678,24.585,53.67,21.211,56.957z M19.439,58.813        c-0.005,0.004-0.009,0.008-0.014,0.012C19.43,58.821,19.435,58.817,19.439,58.813z M19.423,56.06L19.423,56.06L19.423,56.06z         M19.423,56.06L19.423,56.06L19.423,56.06z" fill="#3F456B"/></g></g></g></g><g><g><g><g><path d="M281.884,261.392c-7.382,0-14.224-3.104-20.364-9.245l-0.7-0.7        c-6.674-6.674-9.761-14.176-9.175-22.298c1.157-16.037,16.688-28.442,18.629-29.933L416.596,70.731        c5.161-5.054,15.983-9.19,25.056-0.116c0.001,0,0.002,0.001,0.003,0.002l0.699,0.7c5.024,5.023,6.595,11.265,4.418,17.569        c-1.375,3.983-3.849,6.759-4.52,7.463L313.749,242.693c-1.49,1.94-13.895,17.471-29.932,18.628        C283.169,261.368,282.524,261.392,281.884,261.392z M429.392,75.265c-2.779,0-5.021,1.863-5.88,2.691        c-0.057,0.055-0.147,0.141-0.207,0.192L276.738,206.847c-0.099,0.087-0.201,0.171-0.308,0.25        c-0.132,0.1-13.957,10.632-14.813,22.801c-0.363,5.158,1.688,9.894,6.272,14.479l0.7,0.7        c4.585,4.584,9.336,6.636,14.479,6.273c12.169-0.856,22.701-14.682,22.807-14.821c0.075-0.102,0.16-0.206,0.244-0.301        L434.817,89.661c0.071-0.081,0.145-0.16,0.222-0.236c1.277-1.324,5.158-6.122,0.241-11.038l-0.701-0.702        C432.779,75.886,430.996,75.265,429.392,75.265z" fill="#3F456B"/></g></g></g><g><g><g><path d="M344.287,205.534c-1.279,0-2.56-0.488-3.535-1.465l-31.763-31.764c-1.953-1.952-1.953-5.118,0-7.07        c1.951-1.953,5.119-1.953,7.07,0l31.763,31.764c1.953,1.952,1.953,5.118,0,7.07        C346.847,205.046,345.566,205.534,344.287,205.534z" fill="#3F456B"/></g></g></g><g><g><g><path d="M329.664,220.157c-1.279,0-2.56-0.488-3.535-1.465l-31.764-31.764c-1.953-1.952-1.953-5.118,0-7.07        c1.951-1.953,5.119-1.953,7.07,0l31.764,31.764c1.953,1.952,1.953,5.118,0,7.07        C332.224,219.669,330.943,220.157,329.664,220.157z" fill="#3F456B"/></g></g></g><g><g><g><path d="M315.453,237.201c-1.279,0-2.56-0.488-3.535-1.465l-34.596-34.597c-1.953-1.952-1.953-5.118,0-7.07        c1.951-1.953,5.119-1.953,7.07,0l34.596,34.597c1.953,1.952,1.953,5.118,0,7.07        C318.013,236.713,316.732,237.201,315.453,237.201z" fill="#3F456B"/></g></g></g><g><g><g><path d="M299.826,252.828c-1.279,0-2.56-0.488-3.535-1.465l-34.596-34.597c-1.953-1.952-1.953-5.118,0-7.07        c1.951-1.953,5.119-1.953,7.07,0l34.596,34.597c1.953,1.952,1.953,5.118,0,7.07        C302.386,252.34,301.105,252.828,299.826,252.828z" fill="#3F456B"/></g></g></g><g><g><g><path d="M219.95,298.716c-1.279,0-2.56-0.488-3.535-1.465c-1.953-1.952-1.953-5.118,0-7.07l45.104-45.104        c1.951-1.953,5.119-1.953,7.07,0c1.953,1.952,1.953,5.118,0,7.07l-45.104,45.104        C222.51,298.228,221.229,298.716,219.95,298.716z" fill="#3F456B"/></g></g></g><g><g><g><path d="M438.63,80.036c-1.279,0-2.56-0.488-3.535-1.465c-1.953-1.952-1.953-5.118,0-7.07l13.491-13.491        c1.951-1.953,5.119-1.953,7.07,0c1.953,1.952,1.953,5.118,0,7.07l-13.491,13.491C441.189,79.548,439.909,80.036,438.63,80.036        z" fill="#3F456B"/></g></g></g><g><g><g><path d="M322.295,165.191c-0.55,0-1.108-0.091-1.656-0.283c-2.605-0.914-3.977-3.768-3.062-6.374        l38.456-109.572c0.725-2.392,9.157-28.943,28.808-37.08c9.57-3.964,19.975-2.943,30.927,3.029        c8,4.363,13.287,10.785,15.716,19.085c5.639,19.277-6.572,41.851-7.095,42.803c-1.329,2.419-4.368,3.305-6.79,1.976        c-2.418-1.329-3.304-4.365-1.979-6.784l0,0c0.052-0.094,5.123-9.471,6.812-20.345c2.091-13.467-1.655-22.611-11.453-27.955        c-8.271-4.512-15.562-5.354-22.288-2.58c-15.724,6.489-23.033,30.572-23.105,30.814c-0.023,0.078-0.05,0.162-0.077,0.239        l-38.495,109.683C326.291,163.904,324.358,165.191,322.295,165.191z" fill="#3F456B"/></g></g></g><g><g><g><path d="M352.807,195.703c-2.063,0-3.996-1.287-4.718-3.345c-0.915-2.606,0.456-5.46,3.062-6.374        l109.683-38.495c0.081-0.028,0.162-0.055,0.244-0.079c0.237-0.07,24.319-7.38,30.81-23.104        c2.776-6.727,1.933-14.017-2.579-22.288c-3.088-5.661-7.377-9.229-13.113-10.906c-15.345-4.493-34.985,6.153-35.182,6.262        c-2.421,1.329-5.46,0.444-6.79-1.976c-1.329-2.421-0.444-5.46,1.976-6.79c0.951-0.522,23.529-12.732,42.803-7.095        c8.301,2.429,14.722,7.716,19.086,15.716c5.973,10.952,6.992,21.357,3.028,30.928c-8.138,19.651-34.691,28.083-37.08,28.807        L354.463,195.42C353.915,195.612,353.355,195.703,352.807,195.703z" fill="#3F456B"/></g></g></g></g></g></g><g id="Outline"><g><g><g><g><g><g><path d="M300.387,40.848c-1.279,0-2.559-0.488-3.535-1.464c-1.953-1.953-1.953-5.119-0.001-7.071l8.017-8.018         c1.953-1.953,5.118-1.952,7.071-0.001c1.953,1.953,1.953,5.119,0.001,7.071l-8.017,8.018         C302.946,40.359,301.666,40.848,300.387,40.848z" fill="#3F456B"/></g></g></g><g><g><g><path d="M273.023,68.19c-1.279,0-2.56-0.488-3.535-1.465c-1.953-1.952-1.953-5.118,0-7.07l8.018-8.018         c1.951-1.953,5.119-1.953,7.07,0c1.953,1.952,1.953,5.118,0,7.07l-8.018,8.018C275.583,67.702,274.303,68.19,273.023,68.19z" fill="#3F456B"/></g></g></g></g><g><g><g><g><path d="M308.394,68.2c-1.279,0-2.56-0.488-3.535-1.465l-8.018-8.018c-1.953-1.952-1.953-5.118,0-7.07         c1.951-1.953,5.119-1.953,7.07,0l8.018,8.018c1.953,1.952,1.953,5.118,0,7.07C310.953,67.712,309.673,68.2,308.394,68.2z" fill="#3F456B"/></g></g></g><g><g><g><path d="M281.051,40.837c-1.279,0-2.56-0.488-3.535-1.465l-8.017-8.017c-1.953-1.952-1.953-5.118,0-7.07         c1.951-1.953,5.119-1.953,7.07,0l8.017,8.017c1.953,1.952,1.953,5.118,0,7.07C283.61,40.349,282.33,40.837,281.051,40.837z" fill="#3F456B"/></g></g></g></g></g><g><g><g><g><g><path d="M472.435,368.681c-1.279,0-2.559-0.488-3.535-1.464c-1.953-1.953-1.953-5.119-0.001-7.071         l8.017-8.018c1.953-1.953,5.118-1.952,7.071-0.001c1.953,1.953,1.953,5.119,0.001,7.071l-8.017,8.018         C474.994,368.192,473.714,368.681,472.435,368.681z" fill="#3F456B"/></g></g></g><g><g><g><path d="M445.071,396.023c-1.279,0-2.56-0.488-3.535-1.465c-1.953-1.952-1.953-5.118,0-7.07l8.018-8.018         c1.951-1.953,5.119-1.953,7.07,0c1.953,1.952,1.953,5.118,0,7.07l-8.018,8.018         C447.631,395.535,446.351,396.023,445.071,396.023z" fill="#3F456B"/></g></g></g></g><g><g><g><g><path d="M480.441,396.033c-1.279,0-2.56-0.488-3.535-1.465l-8.017-8.017c-1.953-1.952-1.953-5.118,0-7.07         c1.951-1.953,5.119-1.953,7.07,0l8.017,8.017c1.953,1.952,1.953,5.118,0,7.07         C483.001,395.545,481.721,396.033,480.441,396.033z" fill="#3F456B"/></g></g></g><g><g><g><path d="M453.099,368.671c-1.279,0-2.56-0.488-3.536-1.465l-8.017-8.018         c-1.952-1.952-1.952-5.118,0.001-7.071c1.953-1.951,5.118-1.952,7.071,0.001l8.017,8.018         c1.952,1.952,1.952,5.118-0.001,7.071C455.657,368.183,454.378,368.671,453.099,368.671z" fill="#3F456B"/></g></g></g></g></g><g><g><g><path d="M423.66,448.42c0,0,0,0,0.01,0l0,0c-2.561-1.061-3.771-3.98-2.72-6.53l0,0       c1.06-2.56,3.979-3.77,6.529-2.72v0.01c2.551,1.05,3.771,3.97,2.71,6.53l0,0c-0.79,1.92-2.659,3.09-4.62,3.09l0,0       C424.93,448.8,424.29,448.67,423.66,448.42z M405.18,441.63c0,0,0,0,0.01,0l0,0c-2.62-0.89-4.02-3.72-3.14-6.34l0,0       c0.89-2.61,3.72-4.021,6.34-3.13l0,0c2.62,0.88,4.021,3.72,3.13,6.34l0,0c-0.7,2.08-2.649,3.399-4.729,3.399l0,0       C406.26,441.899,405.72,441.81,405.18,441.63z M386.319,435.72c-2.659-0.76-4.189-3.53-3.43-6.189l0,0       c0.771-2.65,3.54-4.181,6.19-3.421l0,0c2.649,0.771,4.189,3.54,3.42,6.19l0,0c-0.63,2.19-2.63,3.62-4.8,3.62l0,0       C387.24,435.92,386.78,435.85,386.319,435.72z" fill="#384169"/></g></g></g><g><g><g><path d="M93.96,116.319c-1.54-2.289-0.94-5.399,1.359-6.939l0,0c2.29-1.54,5.391-0.94,6.94,1.35l0,0       c1.54,2.29,0.93,5.4-1.36,6.94l0,0c-0.859,0.58-1.83,0.86-2.79,0.86l0,0C96.5,118.53,94.92,117.75,93.96,116.319z M82.79,99.72       c-1.54-2.29-0.931-5.39,1.359-6.939l0,0c2.29-1.54,5.4-0.931,6.94,1.359l0,0c1.54,2.29,0.94,5.4-1.36,6.94l0,0       c-0.85,0.58-1.819,0.85-2.779,0.85l0,0C85.34,101.93,83.76,101.16,82.79,99.72z M71.63,83.13c-1.54-2.29-0.93-5.4,1.36-6.94       l0,0c2.29-1.54,5.399-0.93,6.939,1.36l0,0c1.54,2.29,0.93,5.39-1.36,6.94l0,0c-0.859,0.569-1.829,0.85-2.789,0.85l0,0       C74.17,85.34,72.6,84.56,71.63,83.13z" fill="#384169"/></g></g></g><g><g><g><g><g><g><path d="M479.559,257.947c-2.422,0-4.549-1.763-4.935-4.229c-0.426-2.729,1.441-5.286,4.169-5.712          l13.378-2.088c2.742-0.42,5.285,1.441,5.712,4.169c0.426,2.729-1.441,5.286-4.169,5.712l-13.378,2.088          C480.074,257.927,479.814,257.947,479.559,257.947z" fill="#3F456B"/></g></g></g></g><g><g><g><g><path d="M447.7,317.827c-2.419,0-4.545-1.759-4.934-4.223l-2.022-12.842          c-0.43-2.729,1.434-5.288,4.161-5.718c2.733-0.426,5.288,1.436,5.718,4.161l2.022,12.842          c0.43,2.729-1.434,5.288-4.161,5.718C448.221,317.807,447.958,317.827,447.7,317.827z" fill="#3F456B"/></g></g></g></g><g><g><g><g><path d="M473.446,306.66c-1.46,0-2.908-0.637-3.896-1.862l-8.388-10.406c-1.733-2.15-1.396-5.298,0.755-7.03          c2.147-1.732,5.298-1.396,7.03,0.755l8.388,10.406c1.733,2.15,1.396,5.298-0.755,7.03          C475.657,306.298,474.548,306.66,473.446,306.66z" fill="#3F456B"/></g></g></g></g><g><g><g><g><path d="M489.935,284.07c-0.6,0-1.208-0.108-1.801-0.337l-12.564-4.854          c-2.576-0.995-3.857-3.891-2.862-6.466c0.996-2.576,3.891-3.854,6.466-2.862l12.564,4.854          c2.576,0.995,3.857,3.891,2.862,6.466C493.833,282.854,491.94,284.07,489.935,284.07z" fill="#3F456B"/></g></g></g></g></g><g><g><g><g><g><path d="M480.878,257.833c-2.418,0-4.544-1.758-4.933-4.222c-0.431-2.728,1.432-5.287,4.159-5.718          l12.069-1.905c2.731-0.437,5.287,1.432,5.718,4.159s-1.432,5.287-4.159,5.718l-12.069,1.905          C481.399,257.812,481.137,257.833,480.878,257.833z" fill="#3F456B"/></g></g></g></g><g><g><g><g><path d="M472.262,237.722c-1.46,0-2.908-0.637-3.896-1.862c-1.733-2.149-1.396-5.298,0.755-7.03l9.702-7.82          c2.147-1.733,5.297-1.396,7.03,0.755c1.733,2.149,1.396,5.298-0.755,7.03l-9.702,7.82          C474.473,237.359,473.363,237.722,472.262,237.722z" fill="#3F456B"/></g></g></g></g><g><g><g><g><path d="M454.705,225.483c-0.6,0-1.209-0.108-1.802-0.337c-2.575-0.995-3.856-3.891-2.861-6.467          l4.665-12.072c0.996-2.575,3.892-3.854,6.467-2.861c2.575,0.995,3.856,3.891,2.861,6.467l-4.665,12.072          C458.604,224.268,456.711,225.483,454.705,225.483z" fill="#3F456B"/></g></g></g></g><g><g><g><g><path d="M433.737,223.419c-2.419,0-4.545-1.759-4.934-4.223l-2.023-12.842          c-0.43-2.728,1.434-5.287,4.161-5.718c2.728-0.43,5.287,1.434,5.718,4.161l2.023,12.842c0.43,2.728-1.434,5.287-4.161,5.718          C434.258,223.398,433.996,223.419,433.737,223.419z" fill="#3F456B"/></g></g></g></g></g></g></g></g></svg>