<?xml version="1.0" ?><svg enable-background="new 0 0 512 512" version="1.1" viewBox="0 0 512 512" xml:space="preserve" xmlns="http://www.w3.org/2000/svg" xmlns:xlink="http://www.w3.org/1999/xlink"><g id="Colors"><g><g><g><path d="M250.72,472c-0.01-2.76,2.23-5,4.99-5l0,0c2.76,0,5,2.23,5.01,5l0,0c0,2.76-2.24,5-5,5l0,0      C252.96,477,250.72,474.76,250.72,472z M235.3,476.09c-2.75-0.25-4.78-2.68-4.53-5.43l0,0c0.25-2.75,2.68-4.78,5.43-4.53l0,0      c2.75,0.25,4.78,2.68,4.53,5.43l0,0c-0.23,2.6-2.42,4.55-4.97,4.55l0,0C235.61,476.11,235.45,476.1,235.3,476.09z M270.7,471.53      c-0.25-2.75,1.77-5.18,4.52-5.44l0,0c2.75-0.25,5.18,1.77,5.44,4.52l0,0c0.25,2.75-1.77,5.19-4.52,5.44l0,0l0,0l0,0      c-0.16,0.02-0.31,0.02-0.47,0.02l0,0C273.12,476.07,270.94,474.12,270.7,471.53z M215.05,473.31c-2.72-0.5-4.52-3.11-4.01-5.82      l0,0c0.5-2.72,3.1-4.51,5.82-4.01l0,0c2.72,0.5,4.51,3.11,4.01,5.82l0,0c-0.44,2.41-2.55,4.1-4.91,4.1l0,0      C215.66,473.4,215.35,473.37,215.05,473.31z M290.56,469.23c-0.51-2.71,1.28-5.32,4-5.83l0,0c2.71-0.5,5.32,1.28,5.83,4l0,0      c0.51,2.71-1.28,5.32-4,5.83l0,0c-0.31,0.06-0.62,0.09-0.92,0.09l0,0C293.11,473.32,291.01,471.64,290.56,469.23z       M195.13,468.67c-2.66-0.75-4.21-3.51-3.45-6.17l0,0c0.75-2.66,3.51-4.2,6.17-3.45l0,0c2.66,0.75,4.2,3.51,3.45,6.17l0,0      c-0.62,2.2-2.63,3.64-4.81,3.64l0,0C196.04,468.86,195.58,468.8,195.13,468.67z M310.12,465.11c-0.76-2.65,0.78-5.42,3.44-6.18      l0,0c2.66-0.75,5.42,0.79,6.18,3.44l0,0c0.75,2.66-0.78,5.42-3.44,6.18l0,0l0,0l0,0c-0.46,0.13-0.92,0.19-1.37,0.19l0,0      C312.75,468.74,310.75,467.31,310.12,465.11z M175.73,462.2L175.73,462.2L175.73,462.2c-2.58-1-3.86-3.89-2.87-6.47l0,0      c1-2.57,3.89-3.85,6.47-2.86l0,0c2.58,0.99,3.86,3.89,2.86,6.47l0,0c-0.76,1.98-2.66,3.2-4.66,3.2l0,0      C176.93,462.54,176.32,462.43,175.73,462.2z M329.22,459.19c-1-2.58,0.27-5.47,2.85-6.47l0,0c2.57-1,5.47,0.27,6.47,2.85l0,0      c1,2.57-0.28,5.47-2.85,6.47l0,0l0,0l0,0c-0.6,0.23-1.21,0.34-1.81,0.34l0,0C331.88,462.38,329.98,461.17,329.22,459.19z       M157.01,453.95c-2.47-1.23-3.48-4.23-2.25-6.7l0,0c1.23-2.48,4.23-3.48,6.7-2.25l0,0c2.47,1.22,3.48,4.23,2.25,6.7l0,0      c-0.87,1.76-2.64,2.77-4.48,2.77l0,0C158.48,454.47,157.72,454.31,157.01,453.95z M347.68,451.52      c-1.24-2.47-0.24-5.48,2.23-6.71l0,0c2.47-1.23,5.48-0.23,6.71,2.24l0,0c1.23,2.47,0.23,5.47-2.24,6.71l0,0      c-0.71,0.35-1.48,0.52-2.23,0.52l0,0C350.32,454.28,348.55,453.27,347.68,451.52z M139.13,444.01      c-2.34-1.46-3.07-4.54-1.62-6.89l0,0c1.46-2.34,4.54-3.07,6.88-1.62l0,0c2.35,1.46,3.08,4.54,1.63,6.89l0,0      c-0.95,1.52-2.59,2.36-4.26,2.36l0,0C140.86,444.75,139.95,444.51,139.13,444.01z M365.35,442.17      c-1.46-2.34-0.74-5.43,1.61-6.89l0,0c2.34-1.45,5.42-0.73,6.88,1.61l0,0c1.46,2.35,0.74,5.43-1.61,6.89l0,0      c-0.82,0.51-1.73,0.75-2.63,0.75l0,0C367.93,444.53,366.29,443.69,365.35,442.17z M122.26,432.46c-2.21-1.67-2.65-4.8-0.99-7.01      l0,0c1.67-2.2,4.8-2.64,7.01-0.98l0,0c2.2,1.67,2.64,4.8,0.98,7l0,0c-0.98,1.31-2.48,1.99-4,1.99l0,0      C124.21,433.46,123.16,433.14,122.26,432.46z M382.08,431.23c-1.67-2.2-1.23-5.34,0.97-7l0,0c2.2-1.67,5.34-1.24,7,0.96l0,0      c1.67,2.2,1.24,5.34-0.96,7.01l0,0c0,0,0,0-0.01,0l0,0c-0.9,0.68-1.96,1.01-3.01,1.01l0,0      C384.56,433.21,383.07,432.53,382.08,431.23z M106.51,419.41L106.51,419.41L106.51,419.41c-2.04-1.86-2.19-5.02-0.33-7.07l0,0      c1.85-2.04,5.02-2.19,7.06-0.33l0,0c2.04,1.86,2.19,5.02,0.33,7.06l0,0c-0.98,1.09-2.34,1.64-3.7,1.64l0,0      C108.67,420.71,107.47,420.28,106.51,419.41z M397.74,418.8c-1.86-2.04-1.72-5.2,0.32-7.07l0,0c2.04-1.86,5.2-1.71,7.06,0.33      l0,0c1.87,2.03,1.72,5.2-0.32,7.06l0,0c-0.95,0.87-2.16,1.31-3.36,1.31l0,0C400.08,420.43,398.73,419.88,397.74,418.8z       M92.03,404.97c-1.86-2.04-1.72-5.2,0.32-7.07l0,0c2.03-1.86,5.2-1.72,7.06,0.32l0,0c1.86,2.03,1.72,5.2-0.32,7.06l0,0      c-0.96,0.88-2.16,1.31-3.37,1.31l0,0C94.37,406.59,93.02,406.05,92.03,404.97z M412.19,404.98c-2.04-1.86-2.18-5.02-0.32-7.06      l0,0c1.86-2.04,5.02-2.19,7.06-0.33l0,0c2.04,1.86,2.19,5.02,0.33,7.06l0,0c-0.99,1.08-2.34,1.63-3.7,1.63l0,0      C414.36,406.28,413.15,405.85,412.19,404.98z M78.94,389.26c-1.67-2.2-1.24-5.33,0.96-7l0,0c2.2-1.67,5.33-1.24,7,0.96l0,0      c1.67,2.2,1.24,5.33-0.96,7l0,0c-0.9,0.69-1.96,1.02-3.02,1.02l0,0C81.41,391.24,79.92,390.56,78.94,389.26z M425.32,389.9      c-2.2-1.67-2.64-4.81-0.98-7.01h0.01c1.66-2.2,4.79-2.64,7-0.97l0,0c2.2,1.66,2.64,4.8,0.97,7l0,0l0,0l0,0      c-0.98,1.3-2.47,1.99-3.99,1.99l0,0C427.28,390.91,426.22,390.58,425.32,389.9z M67.34,372.42c-1.46-2.34-0.74-5.43,1.6-6.89      l0,0c2.34-1.46,5.43-0.74,6.89,1.61l0,0c1.46,2.34,0.74,5.42-1.6,6.88l0,0c-0.83,0.51-1.74,0.76-2.64,0.76l0,0      C69.92,374.78,68.29,373.94,67.34,372.42z M437,373.67c-2.34-1.46-3.06-4.54-1.61-6.89l0,0c1.46-2.34,4.54-3.06,6.88-1.61l0,0      c2.35,1.45,3.07,4.54,1.62,6.88l0,0c-0.95,1.53-2.58,2.37-4.26,2.37l0,0C438.74,374.42,437.83,374.18,437,373.67z M57.34,354.58      L57.34,354.58L57.34,354.58c-1.23-2.47-0.24-5.47,2.23-6.71l0,0c2.47-1.24,5.48-0.24,6.71,2.23l0,0      c1.24,2.47,0.24,5.47-2.23,6.71l0,0c-0.72,0.36-1.48,0.53-2.23,0.53l0,0C59.98,357.34,58.22,356.33,57.34,354.58z       M447.15,356.43c-2.48-1.23-3.48-4.23-2.25-6.7l0,0c1.24-2.47,4.24-3.48,6.71-2.25l0,0c2.47,1.24,3.47,4.24,2.24,6.71l0,0      c-0.87,1.76-2.64,2.77-4.48,2.77l0,0C448.62,356.96,447.86,356.79,447.15,356.43z M49.04,335.89c-1-2.57,0.27-5.47,2.85-6.47      l0,0c2.57-1,5.47,0.27,6.47,2.84l0,0c1,2.58-0.27,5.47-2.84,6.48l0,0c-0.6,0.23-1.21,0.34-1.82,0.34l0,0      C51.7,339.08,49.81,337.87,49.04,335.89z M455.65,338.34c-2.57-1-3.85-3.9-2.86-6.47l0,0c1-2.58,3.9-3.86,6.47-2.86l0,0      c2.58,1,3.86,3.89,2.86,6.47l0,0c-0.77,1.98-2.66,3.19-4.66,3.19l0,0C456.85,338.67,456.24,338.57,455.65,338.34z M45.73,201.51      c-2.66-0.75-4.21-3.51-3.46-6.17l0,0c0.75-2.66,3.51-4.21,6.17-3.46l0,0c2.66,0.75,4.2,3.51,3.45,6.17l0,0      c-0.62,2.21-2.62,3.65-4.81,3.65l0,0C46.63,201.7,46.18,201.64,45.73,201.51z M458.76,196.83c-0.77-2.65,0.76-5.42,3.42-6.19      l0,0c2.65-0.76,5.42,0.77,6.19,3.42l0,0c0.76,2.65-0.77,5.43-3.42,6.19l0,0c-0.47,0.13-0.93,0.2-1.39,0.2l0,0      C461.39,200.45,459.39,199.02,458.76,196.83z M51.59,182.4c-2.58-1-3.86-3.89-2.87-6.47l0,0c0.99-2.57,3.89-3.86,6.46-2.86l0,0      c2.58,0.99,3.87,3.88,2.87,6.46l0,0c-0.76,1.98-2.66,3.2-4.66,3.2l0,0C52.79,182.73,52.18,182.62,51.59,182.4z M452.49,178.34      c-1.01-2.57,0.25-5.47,2.83-6.48l0,0c2.57-1.01,5.47,0.26,6.48,2.83l0,0l0,0l0,0c1,2.57-0.26,5.47-2.83,6.48l0,0      c-0.6,0.24-1.22,0.35-1.83,0.35l0,0C455.15,181.52,453.26,180.31,452.49,178.34z M59.21,163.91c-2.48-1.23-3.49-4.23-2.26-6.7      l0,0c1.23-2.48,4.23-3.49,6.7-2.26l0,0c2.47,1.23,3.48,4.23,2.26,6.7l0,0c-0.87,1.76-2.64,2.78-4.48,2.78l0,0      C60.68,164.43,59.92,164.26,59.21,163.91z M444.53,160.52c-1.25-2.47-0.25-5.47,2.21-6.71l0,0c2.47-1.25,5.47-0.25,6.72,2.21      l0,0c1.24,2.47,0.25,5.47-2.22,6.72l0,0c-0.72,0.36-1.49,0.53-2.24,0.53l0,0C447.17,163.27,445.4,162.26,444.53,160.52z       M68.51,146.2c-2.35-1.45-3.08-4.53-1.63-6.88l0,0c1.45-2.35,4.53-3.08,6.88-1.63l0,0c2.35,1.45,3.08,4.54,1.63,6.88l0,0      c-0.95,1.54-2.59,2.38-4.26,2.38l0,0C70.23,146.95,69.32,146.71,68.51,146.2z M434.95,143.51c-1.47-2.34-0.76-5.43,1.59-6.89      l0,0c2.34-1.47,5.42-0.76,6.89,1.58l0,0l0,0l0,0c1.46,2.34,0.75,5.43-1.59,6.89l0,0c-0.83,0.52-1.74,0.76-2.65,0.76l0,0      C437.53,145.85,435.9,145.02,434.95,143.51z M79.4,129.43c-2.21-1.66-2.65-4.79-0.99-7l0,0l0,0l0,0c1.66-2.2,4.79-2.65,7-0.98      l0,0c2.21,1.66,2.65,4.79,0.99,7v-0.01c-0.98,1.31-2.48,2-4,2l0,0C81.35,130.44,80.3,130.11,79.4,129.43z M423.84,127.45      c-1.67-2.2-1.25-5.34,0.95-7.01l0,0c2.19-1.68,5.33-1.25,7.01,0.94l0,0c1.67,2.2,1.24,5.34-0.95,7.01l0,0      c-0.91,0.69-1.97,1.02-3.03,1.02l0,0C426.32,129.41,424.83,128.74,423.84,127.45z M91.79,113.74c-2.05-1.86-2.2-5.02-0.35-7.06      l0,0c1.86-2.05,5.02-2.2,7.07-0.35l0,0c2.04,1.86,2.19,5.02,0.34,7.07l0,0c-0.99,1.08-2.34,1.64-3.71,1.64l0,0      C93.95,115.04,92.74,114.61,91.79,113.74z M411.31,112.47h-0.01c-1.86-2.03-1.73-5.2,0.31-7.06l0,0      c2.03-1.87,5.19-1.74,7.06,0.3l0,0c1.87,2.03,1.73,5.19-0.3,7.06l0,0c-0.96,0.88-2.17,1.32-3.38,1.32l0,0      C413.64,114.09,412.29,113.54,411.31,112.47z M105.56,99.25c-1.86-2.04-1.73-5.2,0.31-7.07l0,0c2.03-1.87,5.2-1.73,7.06,0.31      l0,0c1.87,2.03,1.73,5.2-0.3,7.06l0,0c-0.96,0.88-2.18,1.32-3.38,1.32l0,0C107.89,100.87,106.55,100.32,105.56,99.25z       M397.45,98.71c-2.05-1.86-2.21-5.02-0.35-7.07l0,0c1.85-2.04,5.01-2.2,7.06-0.34l0,0c2.05,1.85,2.2,5.01,0.35,7.06l0,0      c-0.99,1.09-2.35,1.64-3.71,1.64l0,0C399.6,100,398.4,99.57,397.45,98.71z M120.61,86.07c-1.67-2.19-1.25-5.33,0.95-7l0,0      c2.2-1.67,5.33-1.25,7.01,0.95l0,0c1.67,2.2,1.24,5.34-0.96,7.01l0,0c-0.9,0.69-1.96,1.02-3.02,1.02l0,0      C123.08,88.05,121.59,87.37,120.61,86.07z M382.39,86.27c-2.21-1.66-2.66-4.79-1-7l0,0c1.66-2.21,4.79-2.65,7-0.99l0,0      c2.21,1.65,2.65,4.79,1,7l0,0c-0.99,1.3-2.49,1.99-4.01,1.99l0,0C384.34,87.27,383.29,86.95,382.39,86.27z M136.8,74.34      c-1.47-2.34-0.75-5.42,1.59-6.88l0,0c2.34-1.47,5.43-0.75,6.89,1.59l0,0c1.46,2.34,0.75,5.43-1.59,6.89l0,0      c-0.83,0.51-1.74,0.76-2.65,0.76l0,0C139.37,76.7,137.74,75.86,136.8,74.34z M366.25,75.28c-2.36-1.45-3.09-4.53-1.64-6.88l0,0      c1.45-2.36,4.53-3.09,6.88-1.64l0,0l0,0l0,0c2.35,1.45,3.08,4.53,1.63,6.88l0,0c-0.94,1.53-2.58,2.38-4.26,2.38l0,0      C367.97,76.02,367.06,75.78,366.25,75.28z M154,64.15c-1.24-2.46-0.25-5.47,2.22-6.71l0,0c2.47-1.24,5.47-0.24,6.71,2.23l0,0      c1.24,2.46,0.25,5.47-2.22,6.71l0,0c-0.72,0.36-1.49,0.53-2.24,0.53l0,0C156.64,66.91,154.87,65.9,154,64.15z M349.16,65.82      L349.16,65.82c-2.47-1.23-3.49-4.23-2.26-6.7l0,0c1.22-2.48,4.22-3.49,6.69-2.27l0,0c2.48,1.23,3.49,4.23,2.27,6.7l0,0      c-0.87,1.76-2.64,2.78-4.49,2.78l0,0C350.63,66.33,349.87,66.17,349.16,65.82z M172.06,55.6c-1-2.57,0.27-5.47,2.84-6.48l0,0      l0,0l0,0c2.57-1,5.47,0.27,6.48,2.84l0,0c1,2.57-0.27,5.47-2.84,6.48l0,0c-0.6,0.23-1.21,0.34-1.82,0.34l0,0      C174.72,58.78,172.83,57.57,172.06,55.6z M331.28,57.98h-0.01c-2.57-0.99-3.86-3.88-2.87-6.46l0,0      c0.99-2.58,3.88-3.87,6.46-2.88l0,0l0,0l0,0c2.58,0.99,3.86,3.88,2.87,6.46l0,0c-0.76,1.99-2.65,3.21-4.66,3.21l0,0      C332.47,58.31,331.86,58.2,331.28,57.98z M190.85,48.76c-0.76-2.66,0.77-5.43,3.42-6.19l0,0c2.66-0.76,5.43,0.77,6.19,3.43l0,0      c0.76,2.65-0.77,5.42-3.43,6.18l0,0c-0.46,0.14-0.92,0.2-1.38,0.2l0,0C193.48,52.38,191.48,50.95,190.85,48.76z M312.74,51.84      c-2.65-0.75-4.21-3.51-3.46-6.17l0,0c0.75-2.66,3.51-4.21,6.16-3.46l0,0c2.66,0.74,4.22,3.5,3.47,6.16l0,0      c-0.62,2.21-2.63,3.65-4.81,3.65l0,0C313.65,52.02,313.19,51.96,312.74,51.84z M210.19,43.69c-0.52-2.71,1.27-5.33,3.98-5.84      l0,0c2.72-0.51,5.33,1.27,5.84,3.99l0,0c0.51,2.71-1.27,5.32-3.98,5.84l0,0c-0.32,0.05-0.63,0.08-0.94,0.08l0,0      C212.74,47.76,210.64,46.09,210.19,43.69z M293.72,47.44c-2.71-0.49-4.51-3.1-4.02-5.81l0,0c0.5-2.72,3.1-4.52,5.82-4.02l0,0      l0,0l0,0c2.72,0.49,4.52,3.1,4.02,5.81l0,0c-0.44,2.41-2.54,4.11-4.91,4.11l0,0C294.33,47.53,294.03,47.5,293.72,47.44z       M229.91,40.44c-0.26-2.75,1.76-5.19,4.51-5.45l0,0l0,0l0,0c2.75-0.26,5.19,1.76,5.45,4.51l0,0c0.26,2.75-1.76,5.19-4.51,5.45      l0,0c-0.16,0.01-0.32,0.02-0.48,0.02l0,0C232.33,44.97,230.15,43.03,229.91,40.44z M274.38,44.83      c-2.76-0.24-4.79-2.67-4.55-5.42l0,0c0.25-2.75,2.68-4.78,5.43-4.54l0,0c2.75,0.24,4.78,2.67,4.54,5.42l0,0      c-0.23,2.6-2.42,4.56-4.98,4.56l0,0C274.67,44.85,274.53,44.84,274.38,44.83z" fill="#384169"/></g></g></g><g><g><g><g><path d="M262.8,157.948c0,3.53-2.86,6.392-6.392,6.392c-3.529,0-6.392-2.862-6.392-6.392       s2.863-6.393,6.392-6.393C259.94,151.555,262.8,154.418,262.8,157.948z" fill="#384169"/></g></g><g><g><path d="M207.552,157.948c0,3.53-2.859,6.392-6.393,6.392c-3.528,0-6.39-2.862-6.39-6.392       s2.862-6.393,6.39-6.393C204.692,151.555,207.552,154.418,207.552,157.948z" fill="#384169"/></g></g><g><g><path d="M318.047,157.948c0,3.53-2.86,6.392-6.392,6.392c-3.53,0-6.392-2.862-6.392-6.392       s2.862-6.393,6.392-6.393C315.187,151.555,318.047,154.418,318.047,157.948z" fill="#384169"/></g></g><g><g><path d="M373.294,157.948c0,3.53-2.861,6.392-6.391,6.392c-3.53,0-6.392-2.862-6.392-6.392       s2.862-6.393,6.392-6.393C370.433,151.555,373.294,154.418,373.294,157.948z" fill="#384169"/></g></g><g><g><path d="M152.305,157.948c0,3.53-2.86,6.392-6.392,6.392c-3.529,0-6.391-2.862-6.391-6.392       s2.862-6.393,6.391-6.393C149.445,151.555,152.305,154.418,152.305,157.948z" fill="#384169"/></g></g></g><g><g><g><path d="M289.934,190.391c0,3.53-2.859,6.392-6.392,6.392c-3.529,0-6.392-2.862-6.392-6.392       c0-3.53,2.863-6.393,6.392-6.393C287.075,183.998,289.934,186.861,289.934,190.391z" fill="#384169"/></g></g><g><g><path d="M234.686,190.391c0,3.53-2.859,6.392-6.393,6.392c-3.528,0-6.39-2.862-6.39-6.392       c0-3.53,2.862-6.393,6.39-6.393C231.827,183.998,234.686,186.861,234.686,190.391z" fill="#384169"/></g></g><g><g><path d="M345.181,190.391c0,3.53-2.86,6.392-6.392,6.392c-3.53,0-6.392-2.862-6.392-6.392       c0-3.53,2.862-6.393,6.392-6.393C342.322,183.998,345.181,186.861,345.181,190.391z" fill="#384169"/></g></g><g><g><path d="M400.428,190.391c0,3.53-2.861,6.392-6.391,6.392c-3.53,0-6.392-2.862-6.392-6.392       c0-3.53,2.862-6.393,6.392-6.393C397.567,183.998,400.428,186.861,400.428,190.391z" fill="#384169"/></g></g><g><g><path d="M179.439,190.391c0,3.53-2.86,6.392-6.392,6.392c-3.529,0-6.391-2.862-6.391-6.392       c0-3.53,2.862-6.393,6.391-6.393C176.579,183.998,179.439,186.861,179.439,190.391z" fill="#384169"/></g></g><g><g><path d="M124.192,190.391c0,3.53-2.859,6.392-6.392,6.392c-3.529,0-6.391-2.862-6.391-6.392       c0-3.53,2.862-6.393,6.391-6.393C121.332,183.998,124.192,186.861,124.192,190.391z" fill="#384169"/></g></g></g><g><g><g><path d="M262.8,352.608c0,3.53-2.86,6.392-6.392,6.392c-3.529,0-6.392-2.862-6.392-6.392       s2.863-6.393,6.392-6.393C259.94,346.215,262.8,349.078,262.8,352.608z" fill="#384169"/></g></g><g><g><path d="M207.552,352.608c0,3.53-2.859,6.392-6.393,6.392c-3.528,0-6.39-2.862-6.39-6.392       s2.862-6.393,6.39-6.393C204.692,346.215,207.552,349.078,207.552,352.608z" fill="#384169"/></g></g><g><g><path d="M318.047,352.608c0,3.53-2.86,6.392-6.392,6.392c-3.53,0-6.392-2.862-6.392-6.392       s2.862-6.393,6.392-6.393C315.187,346.215,318.047,349.078,318.047,352.608z" fill="#384169"/></g></g><g><g><path d="M373.294,352.608c0,3.53-2.861,6.392-6.391,6.392c-3.53,0-6.392-2.862-6.392-6.392       s2.862-6.393,6.392-6.393C370.433,346.215,373.294,349.078,373.294,352.608z" fill="#384169"/></g></g><g><g><path d="M152.305,352.608c0,3.53-2.86,6.392-6.392,6.392c-3.529,0-6.391-2.862-6.391-6.392       s2.862-6.393,6.391-6.393C149.445,346.215,152.305,349.078,152.305,352.608z" fill="#384169"/></g></g></g><g><g><g><path d="M289.934,320.165c0,3.53-2.859,6.392-6.392,6.392c-3.529,0-6.392-2.862-6.392-6.392       c0-3.53,2.863-6.393,6.392-6.393C287.075,313.772,289.934,316.635,289.934,320.165z" fill="#384169"/></g></g><g><g><path d="M234.686,320.165c0,3.53-2.859,6.392-6.393,6.392c-3.528,0-6.39-2.862-6.39-6.392       c0-3.53,2.862-6.393,6.39-6.393C231.827,313.772,234.686,316.635,234.686,320.165z" fill="#384169"/></g></g><g><g><path d="M345.181,320.165c0,3.53-2.86,6.392-6.392,6.392c-3.53,0-6.392-2.862-6.392-6.392       c0-3.53,2.862-6.393,6.392-6.393C342.322,313.772,345.181,316.635,345.181,320.165z" fill="#384169"/></g></g><g><g><path d="M400.428,320.165c0,3.53-2.861,6.392-6.391,6.392c-3.53,0-6.392-2.862-6.392-6.392       c0-3.53,2.862-6.393,6.392-6.393C397.567,313.772,400.428,316.635,400.428,320.165z" fill="#384169"/></g></g><g><g><path d="M179.439,320.165c0,3.53-2.86,6.392-6.392,6.392c-3.529,0-6.391-2.862-6.391-6.392       c0-3.53,2.862-6.393,6.391-6.393C176.579,313.772,179.439,316.635,179.439,320.165z" fill="#384169"/></g></g><g><g><path d="M124.192,320.165c0,3.53-2.859,6.392-6.392,6.392c-3.529,0-6.391-2.862-6.391-6.392       c0-3.53,2.862-6.393,6.391-6.393C121.332,313.772,124.192,316.635,124.192,320.165z" fill="#384169"/></g></g></g><g><g><g><path d="M262.8,417.608c0,3.53-2.86,6.392-6.392,6.392c-3.529,0-6.392-2.862-6.392-6.392       s2.863-6.393,6.392-6.393C259.94,411.215,262.8,414.078,262.8,417.608z" fill="#384169"/></g></g><g><g><path d="M207.552,417.608c0,3.53-2.859,6.392-6.393,6.392c-3.528,0-6.39-2.862-6.39-6.392       s2.862-6.393,6.39-6.393C204.692,411.215,207.552,414.078,207.552,417.608z" fill="#384169"/></g></g><g><g><path d="M318.047,417.608c0,3.53-2.86,6.392-6.392,6.392c-3.53,0-6.392-2.862-6.392-6.392       s2.862-6.393,6.392-6.393C315.187,411.215,318.047,414.078,318.047,417.608z" fill="#384169"/></g></g></g><g><g><g><path d="M289.934,385.165c0,3.53-2.859,6.392-6.392,6.392c-3.529,0-6.392-2.862-6.392-6.392       c0-3.53,2.863-6.393,6.392-6.393C287.075,378.772,289.934,381.635,289.934,385.165z" fill="#384169"/></g></g><g><g><path d="M234.686,385.165c0,3.53-2.859,6.392-6.393,6.392c-3.528,0-6.39-2.862-6.39-6.392       c0-3.53,2.862-6.393,6.39-6.393C231.827,378.772,234.686,381.635,234.686,385.165z" fill="#384169"/></g></g><g><g><path d="M345.181,385.165c0,3.53-2.86,6.392-6.392,6.392c-3.53,0-6.392-2.862-6.392-6.392       c0-3.53,2.862-6.393,6.392-6.393C342.322,378.772,345.181,381.635,345.181,385.165z" fill="#384169"/></g></g><g><g><path d="M179.439,385.165c0,3.53-2.86,6.392-6.392,6.392c-3.529,0-6.391-2.862-6.391-6.392       c0-3.53,2.862-6.393,6.391-6.393C176.579,378.772,179.439,381.635,179.439,385.165z" fill="#384169"/></g></g></g><g><g><g><path d="M289.934,125.504c0,3.53-2.859,6.392-6.392,6.392c-3.529,0-6.392-2.862-6.392-6.392       s2.863-6.393,6.392-6.393C287.075,119.111,289.934,121.974,289.934,125.504z" fill="#384169"/></g></g><g><g><path d="M234.686,125.504c0,3.53-2.859,6.392-6.393,6.392c-3.528,0-6.39-2.862-6.39-6.392       s2.862-6.393,6.39-6.393C231.827,119.111,234.686,121.974,234.686,125.504z" fill="#384169"/></g></g><g><g><path d="M345.181,125.504c0,3.53-2.86,6.392-6.392,6.392c-3.53,0-6.392-2.862-6.392-6.392       s2.862-6.393,6.392-6.393C342.322,119.111,345.181,121.974,345.181,125.504z" fill="#384169"/></g></g><g><g><path d="M179.439,125.504c0,3.53-2.86,6.392-6.392,6.392c-3.529,0-6.391-2.862-6.391-6.392       s2.862-6.393,6.391-6.393C176.579,119.111,179.439,121.974,179.439,125.504z" fill="#384169"/></g></g></g><g><g><g><path d="M262.8,93.061c0,3.53-2.86,6.392-6.392,6.392c-3.529,0-6.392-2.862-6.392-6.392       c0-3.53,2.863-6.393,6.392-6.393C259.94,86.668,262.8,89.531,262.8,93.061z" fill="#384169"/></g></g><g><g><path d="M207.552,93.061c0,3.53-2.859,6.392-6.393,6.392c-3.528,0-6.39-2.862-6.39-6.392       c0-3.53,2.862-6.393,6.39-6.393C204.692,86.668,207.552,89.531,207.552,93.061z" fill="#384169"/></g></g><g><g><path d="M318.047,93.061c0,3.53-2.86,6.392-6.392,6.392c-3.53,0-6.392-2.862-6.392-6.392       c0-3.53,2.862-6.393,6.392-6.393C315.187,86.668,318.047,89.531,318.047,93.061z" fill="#384169"/></g></g></g></g></g><g id="Lines"><g><g><path d="M255.5,452c-45.411,0-89.702-15.855-124.716-44.644c-34.539-28.398-58.561-68.006-67.64-111.528     c-0.564-2.703,1.17-5.352,3.874-5.916c2.708-0.562,5.352,1.171,5.916,3.874c8.616,41.299,31.417,78.889,64.202,105.846     C170.364,426.953,212.4,442,255.5,442c43.116,0,85.164-15.057,118.399-42.396c32.793-26.976,55.588-64.587,64.187-105.908     c0.563-2.704,3.212-4.441,5.914-3.876c2.704,0.562,4.439,3.21,3.876,5.914c-9.062,43.544-33.078,83.175-67.624,111.593     C345.232,436.135,300.927,452,255.5,452z" fill="#384169"/></g></g><g><g><path d="M440.227,209.848c-2.198,0-4.212-1.46-4.82-3.682C413.312,125.405,339.332,69,255.5,69     c-41.66,0-81.059,13.43-113.938,38.839c-31.857,24.619-55.255,59.429-65.885,98.019c-0.733,2.662-3.487,4.227-6.148,3.493     c-2.663-0.733-4.226-3.486-3.493-6.148c11.2-40.665,35.851-77.342,69.411-103.276C170.094,73.152,211.607,59,255.5,59     c43.953,0,85.511,14.187,120.182,41.026c33.588,26,58.224,62.758,69.37,103.501c0.729,2.664-0.84,5.414-3.503,6.142     C441.107,209.79,440.663,209.848,440.227,209.848z" fill="#384169"/></g></g><g><g><path d="M256,69c-2.761,0-5-2.239-5-5V15c0-2.761,2.239-5,5-5s5,2.239,5,5v49C261,66.761,258.761,69,256,69z" fill="#384169"/></g></g><g><g><path d="M256,501c-2.761,0-5-2.239-5-5v-49c0-2.761,2.239-5,5-5s5,2.239,5,5v49C261,498.761,258.761,501,256,501z     " fill="#384169"/></g></g><g><g><path d="M496,310c-2.761,0-5-2.239-5-5v-85.289c-3.14-1.553-16.818-6.104-72.916-9.975     C373.805,206.682,316.242,205,256,205s-117.805,1.682-162.084,4.737c-56.098,3.87-69.775,8.422-72.916,9.975V305     c0,2.761-2.239,5-5,5s-5-2.239-5-5v-87c0-6.568,8.429-9.348,22.987-11.93c12.252-2.172,29.725-4.119,51.933-5.784     C131.371,196.877,191.773,195,256,195s124.629,1.877,170.08,5.286c22.208,1.666,39.681,3.612,51.933,5.784     C492.571,208.652,501,211.432,501,218v87C501,307.761,498.761,310,496,310z" fill="#384169"/></g></g><g><g><path d="M436.736,322.497c-2.606,0-4.803-2.02-4.983-4.658c-0.188-2.755,1.892-5.142,4.646-5.33     c6.575-0.45,10.956-0.701,11.709-0.743c21.195-2.135,32.211-4.251,37.884-5.771c-7.898-2.118-26.15-5.376-67.909-8.257     C373.805,294.682,316.242,293,256,293s-117.805,1.682-162.084,4.737c-41.758,2.881-60.011,6.139-67.909,8.257     c5.721,1.533,16.869,3.671,38.411,5.824l10.179,0.69c2.755,0.187,4.837,2.572,4.651,5.327c-0.187,2.756-2.568,4.842-5.327,4.651     l-10.258-0.695c-0.053-0.004-0.105-0.008-0.158-0.014c-15.473-1.544-27.546-3.261-35.884-5.102C19.579,314.899,11,312.464,11,306     c0-6.568,8.429-9.348,22.987-11.93c12.252-2.172,29.725-4.119,51.933-5.784C131.371,284.877,191.773,283,256,283     s124.629,1.877,170.08,5.286c22.208,1.666,39.681,3.612,51.933,5.784C492.571,296.652,501,299.432,501,306     c0,6.444-8.505,8.873-16.477,10.643c-8.251,1.833-20.203,3.543-35.523,5.083c-0.074,0.007-0.149,0.013-0.224,0.017     c-0.045,0.002-4.557,0.253-11.693,0.742C436.967,322.493,436.851,322.497,436.736,322.497z" fill="#384169"/></g></g><g><g><g><g><path d="M136.606,274.179c-1.245,0-2.448-0.464-3.371-1.308c-0.979-0.894-1.563-2.141-1.624-3.465l-2.18-47.95       c-0.125-2.758,2.009-5.097,4.768-5.222l30-1.364c2.739-0.142,5.096,2.009,5.222,4.768c0.125,2.758-2.009,5.097-4.768,5.222       l-25.005,1.137l1.726,37.96l25.49-1.159c2.739-0.15,5.096,2.009,5.222,4.768s-2.009,5.097-4.768,5.222l-30.484,1.386       C136.757,274.178,136.681,274.179,136.606,274.179z" fill="#384169"/></g></g><g><g><path d="M135.512,250.204c-2.657,0-4.869-2.092-4.991-4.773c-0.125-2.758,2.009-5.097,4.768-5.222l30.968-1.408       c2.754-0.149,5.096,2.009,5.222,4.768s-2.009,5.097-4.768,5.222l-30.968,1.408       C135.666,250.203,135.589,250.204,135.512,250.204z" fill="#384169"/></g></g></g><g><g><g><path d="M326.518,273.806c-0.035,0-0.07,0-0.105-0.001l-30.509-0.631c-1.326-0.027-2.586-0.581-3.504-1.538       c-0.918-0.957-1.418-2.239-1.391-3.565l0.993-47.99c0.057-2.761,2.336-4.936,5.103-4.896l30.025,0.621       c2.761,0.057,4.953,2.342,4.896,5.103c-0.057,2.76-2.299,4.925-5.103,4.896l-25.026-0.518l-0.786,37.992l25.51,0.528       c2.761,0.057,4.953,2.342,4.896,5.103C331.458,271.635,329.231,273.806,326.518,273.806z" fill="#384169"/></g></g><g><g><path d="M327.499,249.821c-0.035,0-0.07,0-0.105-0.001l-30.993-0.642c-2.761-0.057-4.953-2.342-4.896-5.103       s2.337-4.919,5.103-4.896l30.993,0.642c2.761,0.057,4.953,2.342,4.896,5.103C332.439,247.65,330.212,249.821,327.499,249.821z" fill="#384169"/></g></g></g><g><g><g><path d="M394.363,277.716c-0.08,0-0.16-0.002-0.24-0.005c-2.758-0.131-4.889-2.473-4.758-5.231l1.221-25.771       c0-0.006,0-0.011,0-0.017c0-0.006,0.001-0.011,0.001-0.017l1.096-23.141c0.063-1.325,0.649-2.57,1.63-3.462       c0.98-0.893,2.268-1.354,3.601-1.296l19.661,0.931c0.431,0.021,4.319,0.26,8.21,2.348c5.669,3.042,8.616,8.443,8.295,15.208       c-0.285,6.003-2.93,9.552-5.099,11.471c-4.989,4.416-11.609,4.202-12.708,4.133l-14.935-0.708l-0.984,20.793       C399.227,275.63,397.016,277.716,394.363,277.716z M400.811,242.17l14.983,0.709c0.045,0.002,0.091,0.005,0.136,0.008       c0.915,0.051,3.767-0.147,5.457-1.672c1.051-0.948,1.608-2.396,1.704-4.426c0.283-5.972-4.823-6.952-7.032-7.096l-14.624-0.692       L400.811,242.17z" fill="#384169"/></g></g><g><g><path d="M426.373,278.232c-1.934,0-3.775-1.128-4.591-3.016l-10.828-25.03       c-1.097-2.535,0.069-5.478,2.604-6.574c2.534-1.097,5.478,0.069,6.574,2.604l10.828,25.03c1.097,2.535-0.069,5.478-2.604,6.574       C427.709,278.099,427.036,278.232,426.373,278.232z" fill="#384169"/></g></g></g><g><g><g><path d="M376.521,276.171c-2.14,0-4.119-1.384-4.779-3.536l-11.117-36.252l-14.448,35.302       c-1.045,2.556-3.963,3.781-6.521,2.733c-2.556-1.046-3.779-3.966-2.733-6.521l19.751-48.26       c0.801-1.956,2.751-3.205,4.854-3.101c2.111,0.096,3.934,1.508,4.553,3.529l15.221,49.638c0.81,2.64-0.674,5.437-3.314,6.246       C377.5,276.1,377.006,276.171,376.521,276.171z" fill="#384169"/></g></g><g><g><path d="M372.922,266.02c-0.066,0-0.133-0.001-0.2-0.004l-26.979-1.062c-2.759-0.108-4.908-2.434-4.799-5.193       c0.108-2.76,2.426-4.904,5.193-4.799l26.979,1.062c2.759,0.108,4.908,2.434,4.799,5.193       C377.809,263.909,375.593,266.02,372.922,266.02z" fill="#384169"/></g></g></g><g><g><path d="M185.23,272.593c-0.507,0-1.019-0.077-1.52-0.237c-2.019-0.644-3.412-2.491-3.477-4.609l-1.459-47.467      c-0.085-2.76,2.084-5.066,4.844-5.151c2.767-0.082,5.067,2.084,5.151,4.844l1.024,33.324l10.088-13.308      c0.902-1.19,2.289-1.915,3.781-1.976c1.488-0.055,2.933,0.548,3.929,1.661l12.217,13.649l-1.054-34.272      c-0.085-2.76,2.084-5.066,4.844-5.151c2.781-0.069,5.066,2.084,5.151,4.844l1.475,47.977c0.064,2.1-1.19,4.016-3.141,4.796      c-1.951,0.779-4.182,0.257-5.582-1.308l-17.316-19.346l-14.971,19.75C188.253,271.883,186.767,272.593,185.23,272.593z" fill="#384169"/></g></g><g><g><path d="M84.107,277.5c-2.612,0-4.81-2.028-4.984-4.671l-3.154-47.896c-0.145-2.199,1.167-4.233,3.229-5.008      c2.062-0.776,4.389-0.11,5.729,1.639l25.042,32.685l-2.069-31.418c-0.182-2.755,1.905-5.136,4.661-5.318      c2.762-0.18,5.136,1.905,5.318,4.661l3.154,47.896c0.145,2.199-1.167,4.233-3.229,5.008c-2.06,0.776-4.389,0.11-5.729-1.639      l-25.042-32.685l2.069,31.418c0.182,2.755-1.905,5.136-4.661,5.318C84.329,277.496,84.217,277.5,84.107,277.5z" fill="#384169"/></g></g><g><g><g><path d="M264.5,248.5c-1.672,0-3.233-0.835-4.16-2.227l-16-24c-1.532-2.297-0.911-5.402,1.387-6.934       s5.402-0.911,6.934,1.387l11.84,17.76l11.84-17.76c1.532-2.298,4.635-2.919,6.934-1.387c2.298,1.532,2.918,4.636,1.387,6.934       l-16,24C267.733,247.665,266.172,248.5,264.5,248.5z" fill="#384169"/></g></g><g><g><path d="M264.5,273.5c-2.761,0-5-2.239-5-5v-25c0-2.761,2.239-5,5-5s5,2.239,5,5v25       C269.5,271.261,267.261,273.5,264.5,273.5z" fill="#384169"/></g></g></g></g><g><g><g><path d="M16.248,251.501c-2.207,0-4.227-1.472-4.826-3.705c-0.716-2.667,0.865-5.409,3.531-6.125      c0.704-0.189,17.422-4.642,33.735-5.662c2.768-0.179,5.13,1.922,5.302,4.678c0.172,2.756-1.922,5.13-4.678,5.302      c-15.288,0.956-31.603,5.295-31.766,5.339C17.112,251.445,16.676,251.501,16.248,251.501z" fill="#384169"/></g></g><g><g><path d="M16.248,276.501c-2.207,0-4.227-1.472-4.826-3.705c-0.716-2.667,0.865-5.409,3.531-6.125      c0.704-0.189,17.422-4.642,33.735-5.662c2.768-0.181,5.13,1.922,5.302,4.678c0.172,2.756-1.922,5.13-4.678,5.302      c-15.288,0.956-31.603,5.295-31.766,5.339C17.112,276.445,16.676,276.501,16.248,276.501z" fill="#384169"/></g></g><g><g><path d="M496.002,251.501c-0.429,0-0.865-0.056-1.299-0.172c-0.163-0.044-16.478-4.383-31.766-5.339      c-2.756-0.172-4.851-2.546-4.678-5.302c0.172-2.756,2.54-4.858,5.302-4.678c16.313,1.02,33.032,5.472,33.735,5.662      c2.667,0.716,4.247,3.458,3.531,6.125C500.229,250.029,498.209,251.501,496.002,251.501z" fill="#384169"/></g></g><g><g><path d="M496.002,276.501c-0.429,0-0.865-0.056-1.299-0.172c-0.163-0.044-16.478-4.383-31.766-5.339      c-2.756-0.172-4.851-2.546-4.678-5.302c0.172-2.756,2.54-4.852,5.302-4.678c16.313,1.02,33.032,5.472,33.735,5.662      c2.667,0.716,4.247,3.458,3.531,6.125C500.229,275.029,498.209,276.501,496.002,276.501z" fill="#384169"/></g></g></g><g><g><g><path d="M471.419,109.778c-0.496,0-1.004-0.041-1.521-0.125c-2.147-0.351-3.841-1.328-5.261-2.217      c-4.768-2.984-9.188-6.308-13.463-9.521l-2.39-1.793c-0.585-0.437-1.196-0.928-1.807-1.419c-0.511-0.412-1.021-0.824-1.511-1.19      c-0.301-0.225-0.581-0.468-0.865-0.723c-1.641,0.581-3.271,1.206-4.965,1.856c-2.796,1.071-5.687,2.18-8.734,3.116      c-0.427,0.131-0.997,0.336-1.666,0.573c-5.538,1.966-15.845,5.624-20.207-1.131c-1.521-2.355-1.204-4.899-1.068-5.985      c0.777-6.225,2.629-12.061,4.421-17.706l0.684-2.161c0.868-2.77,1.641-5.158,2.311-7.141      c-5.591-5.751-15.216-16.762-17.019-23.916c-1.075-4.263,0.205-7.023,1.467-8.588c2.271-2.816,5.616-3.273,7.083-3.331      c6.507-0.945,21.477,0.366,28.455,1.07c5.171-9.921,11.652-18.831,13.706-21.393c1.605-2.003,3.436-3.334,5.441-3.956      c2.402-0.744,5.231-0.504,7.573,0.643c0.73,0.357,1.425,0.827,2.062,1.394c1.376,1.223,2.454,2.882,3.199,4.928      c1.125,3.089,4.406,13.609,6.122,24.659c6.836,1.571,21.437,5.129,27.295,8.111c1.371,0.525,4.393,2.03,5.641,5.426      c0.694,1.887,1.02,4.912-1.365,8.604c-3.96,6.133-16.391,13.39-23.568,17.082c0.584,9.173,0.04,18.128-1.652,27.271      C478.96,106.843,475.609,109.778,471.419,109.778z M445.351,82.255c0.413,0,0.702,0.048,0.934,0.086      c2.055,0.338,3.55,1.694,4.751,2.784c0.17,0.155,0.324,0.299,0.454,0.404c0.546,0.408,1.152,0.895,1.758,1.382      c0.514,0.414,1.028,0.83,1.521,1.198l2.413,1.811c4.296,3.23,8.354,6.28,12.761,9.039c0.069,0.043,0.161,0.101,0.268,0.166      c1.541-8.923,1.877-17.669,1.03-26.695c-0.197-2.1,0.944-4.097,2.853-4.993c9.475-4.45,19.603-11.122,22.274-14.619      c-4.323-2.328-19.735-6.198-28.441-8.092c-2.08-0.453-3.645-2.172-3.901-4.284c-1.396-11.521-5.149-23.406-6.078-25.958      c-0.164-0.45-0.307-0.688-0.386-0.799c-0.026-0.005-0.054-0.01-0.08-0.012c-0.11,0.086-0.318,0.272-0.609,0.635      c-1.698,2.118-9.062,12.166-14.082,22.638c-0.92,1.919-2.953,3.043-5.069,2.808c-8.855-0.998-24.697-2.273-29.534-1.455      c1.409,4.169,8.863,13.737,16.41,20.989c1.427,1.371,1.911,3.454,1.235,5.313c-0.56,1.539-1.573,4.479-3.224,9.744l-0.694,2.194      c-1.584,4.992-3.088,9.729-3.84,14.57c1.621-0.192,4.237-0.927,7.817-2.198c0.833-0.295,1.543-0.545,2.075-0.708      c2.721-0.836,5.329-1.835,8.09-2.894c2.492-0.955,5.068-1.942,7.762-2.811C444.313,82.337,444.831,82.255,445.351,82.255z       M417.84,92.925L417.84,92.925L417.84,92.925z M497.31,53.211L497.31,53.211L497.31,53.211z M457.571,13.609L457.571,13.609      L457.571,13.609z" fill="#384169"/></g></g></g><g><g><g><path d="M65.498,500c-2.333,0-4.367-1.62-4.878-3.912c-0.088-0.388-9.356-39.628-44.213-47.44      c-2.314-0.519-3.946-2.591-3.906-4.962c0.04-2.368,1.734-4.382,4.059-4.827c1.604-0.312,39.241-8.057,43.976-47.456      c0.297-2.471,2.366-4.347,4.853-4.402c2.476-0.06,4.638,1.726,5.044,4.182c0.017,0.099,1.883,10.825,8.374,22.06      c8.414,14.562,20.352,23.172,35.483,25.589c2.382,0.381,4.153,2.409,4.209,4.821c0.056,2.412-1.618,4.521-3.981,5.012      c-1.546,0.329-38.195,8.554-44.075,47.089c-0.363,2.379-2.368,4.162-4.773,4.243C65.613,499.999,65.555,500,65.498,500z       M32.603,443.821c17.095,8.459,26.937,23.371,32.265,34.742c4.875-11.856,13.097-21.824,24.291-29.311      c2.996-2.003,5.936-3.65,8.666-4.996c-11.384-5.176-20.858-14.085-27.852-26.317c-1.551-2.711-2.863-5.381-3.969-7.911      c-5.764,14.027-15.487,22.979-23.719,28.41C38.929,440.652,35.628,442.42,32.603,443.821z" fill="#384169"/></g></g></g></g></svg>