<?xml version="1.0" ?><svg viewBox="0 0 512 512" xmlns="http://www.w3.org/2000/svg"><defs><style>.cls-1{fill:#3f456b;}</style></defs><title/><g id="Lines"><path class="cls-1" d="M496,157H48a5,5,0,0,1-5-5V38a5,5,0,0,1,5-5H496a5,5,0,0,1,5,5V152A5,5,0,0,1,496,157ZM53,147H491V43H53Z"/><path class="cls-1" d="M352,299H48a5,5,0,0,1-5-5V182a5,5,0,0,1,5-5H352a5,5,0,0,1,5,5V294A5,5,0,0,1,352,299ZM53,289H347V187H53Z"/><path class="cls-1" d="M496,332H48a5,5,0,0,1,0-10H496a5,5,0,0,1,0,10Z"/><path class="cls-1" d="M424,429H48a5,5,0,0,1,0-10H424a5,5,0,0,1,0,10Z"/><path class="cls-1" d="M292,477H48a5,5,0,0,1,0-10H292a5,5,0,0,1,0,10Z"/><path class="cls-1" d="M352,381H48a5,5,0,0,1,0-10H352a5,5,0,0,1,0,10Z"/></g><g id="Outline"><path class="cls-1" d="M16,496a5,5,0,0,1-5-5v-1a5,5,0,0,1,10,0v1A5,5,0,0,1,16,496Zm0-21a5,5,0,0,1-5-5v-1a5,5,0,0,1,10,0v1A5,5,0,0,1,16,475Zm0-21a5,5,0,0,1-5-5v-1a5,5,0,0,1,10,0v1A5,5,0,0,1,16,454Zm0-21a5,5,0,0,1-5-5v-1a5,5,0,0,1,10,0v1A5,5,0,0,1,16,433Zm0-21a5,5,0,0,1-5-5v-1a5,5,0,0,1,10,0v1A5,5,0,0,1,16,412Zm0-21a5,5,0,0,1-5-5v-1a5,5,0,0,1,10,0v1A5,5,0,0,1,16,391Zm0-21a5,5,0,0,1-5-5v-1a5,5,0,0,1,10,0v1A5,5,0,0,1,16,370Zm0-21a5,5,0,0,1-5-5v-1a5,5,0,0,1,10,0v1A5,5,0,0,1,16,349Zm0-21a5,5,0,0,1-5-5v-1a5,5,0,0,1,10,0v1A5,5,0,0,1,16,328Zm0-21a5,5,0,0,1-5-5v-1a5,5,0,0,1,10,0v1A5,5,0,0,1,16,307Zm0-21a5,5,0,0,1-5-5v-1a5,5,0,0,1,10,0v1A5,5,0,0,1,16,286Zm0-21a5,5,0,0,1-5-5v-1a5,5,0,0,1,10,0v1A5,5,0,0,1,16,265Zm0-21a5,5,0,0,1-5-5v-1a5,5,0,0,1,10,0v1A5,5,0,0,1,16,244Zm0-21a5,5,0,0,1-5-5v-1a5,5,0,0,1,10,0v1A5,5,0,0,1,16,223Zm0-21a5,5,0,0,1-5-5v-1a5,5,0,0,1,10,0v1A5,5,0,0,1,16,202Zm0-21a5,5,0,0,1-5-5v-1a5,5,0,0,1,10,0v1A5,5,0,0,1,16,181Zm0-21a5,5,0,0,1-5-5v-1a5,5,0,0,1,10,0v1A5,5,0,0,1,16,160Zm0-21a5,5,0,0,1-5-5v-1a5,5,0,0,1,10,0v1A5,5,0,0,1,16,139Zm0-21a5,5,0,0,1-5-5v-1a5,5,0,0,1,10,0v1A5,5,0,0,1,16,118Zm0-21a5,5,0,0,1-5-5V91a5,5,0,0,1,10,0v1A5,5,0,0,1,16,97Zm0-21a5,5,0,0,1-5-5V70a5,5,0,0,1,10,0v1A5,5,0,0,1,16,76Zm0-21a5,5,0,0,1-5-5V49a5,5,0,0,1,10,0v1A5,5,0,0,1,16,55Zm0-21a5,5,0,0,1-5-5V28a5,5,0,0,1,10,0v1A5,5,0,0,1,16,34Z"/></g></svg>