<?xml version="1.0" ?><svg viewBox="0 0 512 512" xmlns="http://www.w3.org/2000/svg"><defs><style>.cls-1{fill:#3f456b;}</style></defs><title/><g id="Lines"><path class="cls-1" d="M435.86,154.39c-.88,0-1.75,0-2.62,0a5,5,0,0,1,.4-10c.74,0,1.47,0,2.22,0a54.13,54.13,0,1,0-44.11-22.73,5,5,0,1,1-8.14,5.81,64.15,64.15,0,1,1,52.25,26.92Z"/><path class="cls-1" d="M110.84,391a57.87,57.87,0,0,1-19.1-3.4c-10.44-3.76-24.45-12.43-31.92-32.39a5,5,0,0,1,9.36-3.5c11.64,31.09,41.68,29.35,42.95,29.26a5,5,0,0,1,.75,10C112.78,391,112.05,391,110.84,391Z"/><path class="cls-1" d="M18.16,391c-1.21,0-1.94-.05-2-.05a5,5,0,0,1,.76-10c1.25.09,31.3,1.83,42.94-29.26a5,5,0,1,1,9.36,3.5c-7.47,20-21.48,28.63-31.92,32.39A57.87,57.87,0,0,1,18.16,391Z"/><path class="cls-1" d="M206.84,391a57.87,57.87,0,0,1-19.1-3.4c-10.44-3.76-24.45-12.43-31.92-32.39a5,5,0,0,1,9.36-3.5c11.64,31.09,41.68,29.35,42.95,29.26a5,5,0,0,1,.75,10C208.78,391,208.05,391,206.84,391Z"/><path class="cls-1" d="M114.16,391c-1.21,0-1.94-.05-2-.05a5,5,0,0,1,.75-10c1.28.1,31.31,1.82,42.95-29.26a5,5,0,1,1,9.36,3.5c-7.47,20-21.48,28.63-31.92,32.39A57.87,57.87,0,0,1,114.16,391Z"/><path class="cls-1" d="M302.84,391a57.87,57.87,0,0,1-19.1-3.4c-10.44-3.76-24.45-12.43-31.92-32.39a5,5,0,0,1,9.36-3.5c11.64,31.09,41.68,29.35,42.95,29.26a5,5,0,0,1,.75,10C304.78,391,304.05,391,302.84,391Z"/><path class="cls-1" d="M210.16,391c-1.21,0-1.94-.05-2-.05a5,5,0,0,1,.75-10c1.28.1,31.31,1.82,42.95-29.26a5,5,0,1,1,9.36,3.5c-7.47,20-21.48,28.63-31.92,32.39A57.87,57.87,0,0,1,210.16,391Z"/><path class="cls-1" d="M399.84,391a57.87,57.87,0,0,1-19.1-3.4c-10.44-3.76-24.45-12.43-31.92-32.39a5,5,0,1,1,9.36-3.5c11.64,31.09,41.68,29.35,42.95,29.26a5,5,0,0,1,.75,10C401.78,391,401.05,391,399.84,391Z"/><path class="cls-1" d="M307.16,391c-1.21,0-1.94-.05-2-.05a5,5,0,0,1,.75-10c1.28.1,31.31,1.82,42.95-29.26a5,5,0,1,1,9.36,3.5c-7.47,20-21.48,28.63-31.92,32.39A57.87,57.87,0,0,1,307.16,391Z"/><path class="cls-1" d="M495.84,391a57.87,57.87,0,0,1-19.1-3.4c-10.44-3.76-24.45-12.43-31.92-32.39a5,5,0,1,1,9.36-3.5c11.64,31.09,41.68,29.35,42.95,29.26a5,5,0,0,1,.75,10C497.78,391,497.05,391,495.84,391Z"/><path class="cls-1" d="M403.16,391c-1.21,0-1.94-.05-2-.05a5,5,0,0,1,.75-10c1.28.1,31.31,1.82,42.95-29.26a5,5,0,1,1,9.36,3.5c-7.47,20-21.48,28.63-31.92,32.39A57.87,57.87,0,0,1,403.16,391Z"/><path class="cls-1" d="M208.84,450a57.87,57.87,0,0,1-19.1-3.4c-10.44-3.76-24.45-12.43-31.92-32.39a5,5,0,0,1,9.36-3.5C178.89,442,209.81,440,210.12,440a5,5,0,0,1,.76,10C210.78,450,210.05,450,208.84,450Z"/><path class="cls-1" d="M116.16,450c-1.21,0-1.94-.05-2-.05a5,5,0,0,1,.75-10c1.35.1,31.32,1.79,42.95-29.26a5,5,0,1,1,9.36,3.5c-7.47,20-21.48,28.63-31.92,32.39A57.87,57.87,0,0,1,116.16,450Z"/><path class="cls-1" d="M304.84,450a57.87,57.87,0,0,1-19.1-3.4c-10.44-3.76-24.45-12.43-31.92-32.39a5,5,0,0,1,9.36-3.5C274.9,442,305.81,440,306.12,440a5,5,0,0,1,.76,10C306.78,450,306.05,450,304.84,450Z"/><path class="cls-1" d="M212.16,450c-1.21,0-1.94-.05-2-.05a5,5,0,0,1,.75-10c1.34.1,31.32,1.79,42.95-29.26a5,5,0,1,1,9.36,3.5c-7.47,20-21.48,28.63-31.92,32.39A57.87,57.87,0,0,1,212.16,450Z"/><path class="cls-1" d="M400.84,450a57.87,57.87,0,0,1-19.1-3.4c-10.44-3.76-24.45-12.43-31.92-32.39a5,5,0,1,1,9.36-3.5C370.9,442,401.81,440,402.12,440a5,5,0,0,1,.76,10C402.78,450,402.05,450,400.84,450Z"/><path class="cls-1" d="M308.16,450c-1.21,0-1.94-.05-2-.05a5,5,0,0,1,.75-10c1.35.1,31.32,1.79,42.95-29.26a5,5,0,1,1,9.36,3.5c-7.47,20-21.48,28.63-31.92,32.39A57.87,57.87,0,0,1,308.16,450Z"/><path class="cls-1" d="M458.13,228.87a24.58,24.58,0,0,1-11.69-3,22.31,22.31,0,0,1-4.27-37.18,23.81,23.81,0,0,1,18.16-5.51c14.18,1.69,21.56,14.29,20.5,25.49h0a21.84,21.84,0,0,1-9.06,15.78A23.1,23.1,0,0,1,458.13,228.87ZM457.57,193a13.88,13.88,0,0,0-8.94,3.3,12.45,12.45,0,0,0-4.55,8.93c-.23,4.88,2.43,9.3,7.1,11.82a13.78,13.78,0,0,0,14.71-.71,11.84,11.84,0,0,0,5-8.64h0a13.36,13.36,0,0,0-11.74-14.61A13.77,13.77,0,0,0,457.57,193Z"/><path class="cls-1" d="M416.71,334.87a26.26,26.26,0,0,1-12.46-3.2,23.75,23.75,0,0,1-4.55-39.6,25.43,25.43,0,0,1,19.35-5.87c15.11,1.8,23,15.22,21.84,27.16h0a23.23,23.23,0,0,1-9.64,16.79A24.65,24.65,0,0,1,416.71,334.87Zm-.6-38.84a15.45,15.45,0,0,0-9.95,3.67,13.87,13.87,0,0,0-5.08,10c-.25,5.45,2.7,10.38,7.91,13.19a15.35,15.35,0,0,0,16.38-.8,13.19,13.19,0,0,0,5.57-9.65A14.87,14.87,0,0,0,416.11,296Zm19.8,16.85h0Z"/><path class="cls-1" d="M353.13,56.87a24.58,24.58,0,0,1-11.69-3,22.77,22.77,0,0,1-12.35-21.09,22.64,22.64,0,0,1,8.08-16.09,23.82,23.82,0,0,1,18.16-5.51c14.18,1.69,21.56,14.29,20.5,25.49h0a21.84,21.84,0,0,1-9.06,15.78A23.1,23.1,0,0,1,353.13,56.87ZM352.57,21a13.88,13.88,0,0,0-8.94,3.3,12.45,12.45,0,0,0-4.55,8.93c-.23,4.88,2.43,9.3,7.1,11.82a13.78,13.78,0,0,0,14.71-.71,11.84,11.84,0,0,0,5-8.64h0A13.36,13.36,0,0,0,354.14,21.1,13.77,13.77,0,0,0,352.57,21Z"/><path class="cls-1" d="M48.5,380.89a5,5,0,0,1-4.12-2.17C17.85,340.05,7.12,289.85,14.94,241c6.69-41.83,26.5-80.35,57.29-111.38A215.4,215.4,0,0,1,182.33,70c32.92-6.72,94.82-14.65,139.48,7.74a106.58,106.58,0,0,1,37.49,31.44c8.45,11.31,17.78,14.69,31.22,11.29,18.23-4.62,34.09-.4,42.43,11.27a27.64,27.64,0,0,1,1,30.92,26.06,26.06,0,0,1-20.23,12.14,37.06,37.06,0,0,1-28.83-11.23c-7.72-8.35-20.74-13.91-33.17-14.19-5.31-.12-12.74.56-18,4.41a8.13,8.13,0,0,0-3.32,4.53c-.87,3.92,2.23,9,4.63,12.51,7.72,11.2,9.75,21.52,6.22,31.56-3.7,10.5-13.16,17.55-24.68,18.4-16.38,1.21-28.08-2.6-34.78-11.32-11.89-15.5-2.6-38.79.53-45.56l.05-.09.24-.51c1.33-2.82,1.76-4.84,1.3-6.15-.85-2.38-2-2.87-3.12-3-4.32-.66-11.89,3.77-14.82,7.72-1.15,1.55-2.21,3.19-3.34,4.94-2.36,3.65-4.8,7.42-8.25,10.62a36.13,36.13,0,0,1-31.14,9.21c-14-2.33-27.53-12.17-34.46-25.07-3.68-6.84-8.93-11.12-16.05-13.08-21.38-5.88-52.12,11.11-61,16.46-30,18-53.93,48.34-67.23,85.35C35,276.63,31.71,304.08,35,329.68a84.78,84.78,0,0,0,5.64,22.37,4.2,4.2,0,0,1,.31,1,164.82,164.82,0,0,0,11.71,20,5,5,0,0,1-4.12,7.82ZM248,72.93c-24.44,0-47.63,3.6-63.69,6.88a205.34,205.34,0,0,0-105,56.86C50,166.2,31.17,202.82,24.81,242.58A189.2,189.2,0,0,0,24.17,298,190.63,190.63,0,0,1,35,246.91c14.09-39.17,39.48-71.33,71.5-90.54,12.53-7.52,44.32-24.27,68.83-17.53,9.76,2.69,17.23,8.74,22.2,18,5.53,10.28,16.24,18.1,27.3,19.94a26,26,0,0,0,22.7-6.67,45.16,45.16,0,0,0,6.65-8.72c1.16-1.8,2.37-3.66,3.71-5.48,4.29-5.77,15.12-13,24.34-11.64,5.22.78,9.14,4.19,11.05,9.59,1.85,5.23-.08,10.37-1.69,13.77l-.2.43c-5.26,11.38-8.45,26.58-1.72,35.35,4.52,5.88,13.31,8.38,26.11,7.44,7.5-.56,13.63-5.06,16-11.75,2.43-6.9.84-14.07-5-22.57-3.76-5.45-7.86-12.69-6.17-20.34a18,18,0,0,1,7.19-10.45c7.54-5.5,17.28-6.46,24.13-6.32,15,.33,30.82,7.15,40.29,17.38,4.19,4.52,12.6,8.74,20.65,8.06a16.11,16.11,0,0,0,12.69-7.64,17.54,17.54,0,0,0-.76-19.63C422,133.63,413.27,125,393,130.17c-17.26,4.37-30.9-.54-41.69-15a96.56,96.56,0,0,0-34-28.48C296.65,76.33,271.75,72.93,248,72.93Z"/><path class="cls-1" d="M342,377l-.54,0a172.35,172.35,0,0,1-57.6-18.45c-37.82-20.46-56.45-52.9-53.86-93.84,4.36-69.08,48.48-89.79,50.36-90.64a5,5,0,0,1,4.13,9.11c-.24.11-10.34,4.9-20.76,17.25-9.69,11.47-21.67,32-23.75,64.92-2.35,37.18,13.93,65.54,48.39,84.27C314.7,363.9,342.26,367,342.53,367a5,5,0,0,1-.52,10Z"/><path class="cls-1" d="M237.6,299.47a5,5,0,0,1-4.86-3.81c-3.73-15.33.22-32.87,10.57-46.93a50.5,50.5,0,0,1,11-11c6.45-4.62,12.91-6.06,18.69-4.19,4.74,1.54,7.64,5.07,10,7.91.7.85,1.36,1.65,2,2.36,6.71,7.16,18.25,7.28,26.09,5.21a34.27,34.27,0,0,0,16-9.58A46.32,46.32,0,0,0,330.6,235c3.13-4.27,6.67-9.1,12.88-11.15,10.56-3.49,21.63,4,26.22,13.21a64.44,64.44,0,0,1,2.89,7.23c1.32,3.76,2.58,7.32,4.79,9.76,2.86,3.17,8.24,4.79,13.39,4,9.37-1.38,13.45-9.44,14.14-16.51a32.36,32.36,0,0,0-13.79-29.47c-24.5-17.24-52-6.56-52.26-6.45a5,5,0,0,1-3.72-9.28c1.33-.53,32.85-12.78,61.74,7.55a42.39,42.39,0,0,1,18,38.63c-1.34,13.61-10.23,23.59-22.64,25.42-8.44,1.25-17.18-1.58-22.27-7.21-3.56-3.94-5.28-8.83-6.81-13.15a53.13,53.13,0,0,0-2.41-6.1c-2.64-5.32-8.95-9.87-14.13-8.16-3.17,1-5.38,4.06-7.94,7.56a57.32,57.32,0,0,1-4.29,5.37,43.74,43.74,0,0,1-20.74,12.4c-10.5,2.77-26.22,2.33-35.94-8-.89-.95-1.68-1.92-2.45-2.86-1.81-2.2-3.36-4.1-5.32-4.74-3.33-1.07-7.16.94-9.78,2.81a40.13,40.13,0,0,0-8.79,8.81c-8.61,11.71-11.94,26.16-8.9,38.64a5,5,0,0,1-3.68,6A4.81,4.81,0,0,1,237.6,299.47Z"/><path class="cls-1" d="M444.72,368.33h0a152.78,152.78,0,0,1-44.21-7.93c-30.73-10.51-50.22-30-56.36-56.26-9.84-43.73,23.63-57.35,24-57.49a5,5,0,0,1,3.66,9.31c-1.08.44-25.78,10.86-17.88,45.94,12.94,55.47,90.08,56.43,90.86,56.43a5,5,0,0,1,0,10Z"/><path class="cls-1" d="M180.13,334.87a24.58,24.58,0,0,1-11.69-3,22.31,22.31,0,0,1-4.27-37.18,23.81,23.81,0,0,1,18.16-5.51c14.18,1.69,21.56,14.29,20.5,25.49h0a21.84,21.84,0,0,1-9.06,15.78A23.1,23.1,0,0,1,180.13,334.87ZM179.57,299a13.88,13.88,0,0,0-8.94,3.3,12.45,12.45,0,0,0-4.55,8.93c-.23,4.88,2.43,9.3,7.1,11.82a13.78,13.78,0,0,0,14.71-.71,11.84,11.84,0,0,0,5-8.64h0a13.36,13.36,0,0,0-11.74-14.61A13.77,13.77,0,0,0,179.57,299Z"/></g><g id="Outline"><path class="cls-1" d="M96,365a5,5,0,0,1-4.55-2.93c-25.34-55.81-29.77-105.26-13.19-147,21.8-54.87,71.73-75.82,73.85-76.69a5,5,0,0,1,3.79,9.26h0c-.48.19-48.25,20.36-68.4,71.26-15.48,39.09-11.09,85.87,13,139a5,5,0,0,1-2.48,6.62A4.93,4.93,0,0,1,96,365Z"/><path class="cls-1" d="M124,276a5,5,0,0,1-5-4.64c-3.23-44.71,16.11-74.85,32.89-92.26,18.12-18.78,36.84-27,37.63-27.3a5,5,0,0,1,4,9.19h0a120.38,120.38,0,0,0-34.65,25.33c-22.18,23.14-32.22,51.51-29.85,84.32a5,5,0,0,1-4.63,5.35Z"/><path class="cls-1" d="M131,321a5,5,0,0,1-4.81-3.63A119.43,119.43,0,0,1,123,301.62a5,5,0,0,1,9.92-1.24,111.07,111.07,0,0,0,2.85,14.25A5,5,0,0,1,131,321Z"/><path class="cls-1" d="M182,248a5,5,0,0,1-5-5c0-52.88,37.12-67.15,38.71-67.73a5,5,0,0,1,3.47,9.38C217.81,185.17,187,197.38,187,243A5,5,0,0,1,182,248Z"/><path class="cls-1" d="M228,343a5,5,0,0,1-4.25-2.36c-19.34-31.17-20.59-63.93-18.22-85.92,2.55-23.75,9.59-40,9.89-40.72a5,5,0,0,1,9.16,4h0c-.27.62-26.47,62.37,7.67,117.36A5,5,0,0,1,228,343Z"/><path class="cls-1" d="M295,335a5,5,0,0,1-2.71-.8c-14.69-9.48-23.62-21.71-26.55-36.35-5.37-26.77,11.42-51.63,12.14-52.68a5,5,0,0,1,8.25,5.65h0c-.16.23-15.14,22.54-10.58,45.12,2.4,11.87,9.86,21.91,22.16,29.86A5,5,0,0,1,295,335Z"/><path class="cls-1" d="M342,340a4.94,4.94,0,0,1-3.17-1.14c-30.12-24.74-21.07-61.55-20.67-63.11a5,5,0,0,1,9.69,2.48h0c-.33,1.31-7.79,32.28,17.32,52.91A5,5,0,0,1,342,340Z"/><path class="cls-1" d="M73.34,73.75a5,5,0,0,1-4.91-4C65.25,53.73,47.72,52.46,47,52.41a5,5,0,0,1,.56-10c6.8.36,18.76,3.86,25.8,13.76,4.61-6.4,12.74-12.11,26-11.85a5,5,0,1,1-.18,10h-.64c-17.94,0-20.13,14.47-20.22,15.09a5,5,0,0,1-4.8,4.32Z"/><path class="cls-1" d="M471,277.43a5,5,0,0,1-4.73-3.39c-5.31-15.57-23.35-14.36-23.53-14.33a5,5,0,0,1-.78-10c6.79-.53,19.1,1.35,27.38,10.24,3.73-7,11-13.67,24.22-15.17a5,5,0,1,1,1.13,9.94c-18.4,2.09-18.68,17.07-18.68,17.7a5,5,0,0,1-4.2,4.92A5.52,5.52,0,0,1,471,277.43Z"/></g></svg>