<?xml version="1.0" ?><svg viewBox="0 0 512 512" xmlns="http://www.w3.org/2000/svg"><defs><style>.cls-1{fill:#3f456b;}</style></defs><title/><g id="Lines"><path class="cls-1" d="M295.43,272.93h-.26l-271-14a5,5,0,0,1,.52-10l271,14a5,5,0,0,1-.25,10Z"/><path class="cls-1" d="M456.82,241.34h-.3a5,5,0,0,1-4.69-5.29l4-67.36a5,5,0,1,1,10,.59l-4,67.37A5,5,0,0,1,456.82,241.34Z"/><path class="cls-1" d="M424.4,241a5,5,0,0,1-5-4.73l-3.56-65.52a5,5,0,0,1,10-.54l3.56,65.52a5,5,0,0,1-4.72,5.26Z"/><path class="cls-1" d="M332.08,299.21H304.52a5,5,0,0,1,0-10h27.56c9.82,0,18.44-8.12,18.44-17.38V177.17c0-8.93-5.08-13.25-5.14-13.29s-.32-.28-.47-.43c-6-6.18-22.3-23-26.33-26.39a18.29,18.29,0,0,0-10.06-3.85h-118c-9.41,0-17.37,8.15-17.37,17.79,0,.12,0,.24,0,.36l-5,69.62a5,5,0,1,1-10-.72l5-69.45a27.6,27.6,0,0,1,27.36-27.6H308.7a28.06,28.06,0,0,1,16.36,6.23c5.06,4.3,24.8,24.73,26.9,26.91,1.62,1.44,8.56,8.34,8.56,20.82v94.66C360.52,286.67,347.5,299.21,332.08,299.21Z"/><path class="cls-1" d="M74,475.43a34.85,34.85,0,1,1,34.84-34.85A34.89,34.89,0,0,1,74,475.43Zm0-59.69a24.85,24.85,0,1,0,24.84,24.84A24.87,24.87,0,0,0,74,415.74Z"/><path class="cls-1" d="M156,475.43a34.85,34.85,0,1,1,34.85-34.85A34.89,34.89,0,0,1,156,475.43Zm0-59.69a24.85,24.85,0,1,0,24.85,24.84A24.86,24.86,0,0,0,156,415.74Z"/><path class="cls-1" d="M238.2,475.43A34.85,34.85,0,1,1,273,440.58,34.89,34.89,0,0,1,238.2,475.43Zm0-59.69A24.85,24.85,0,1,0,263,440.58,24.86,24.86,0,0,0,238.2,415.74Z"/><path class="cls-1" d="M320,475.43a34.85,34.85,0,1,1,34.84-34.85A34.89,34.89,0,0,1,320,475.43Zm0-59.69a24.85,24.85,0,1,0,24.84,24.84A24.87,24.87,0,0,0,320,415.74Z"/><path class="cls-1" d="M106.49,391.53a5,5,0,0,1-1.57-.25,5,5,0,0,1-3.18-6.32l8-24.26a5,5,0,0,1,9.5,3.13l-8,24.27A5,5,0,0,1,106.49,391.53Z"/><path class="cls-1" d="M279.06,391.53a5,5,0,0,1-4.75-3.43l-8-24.27a5,5,0,0,1,9.5-3.13l8,24.26a5,5,0,0,1-4.75,6.57Z"/><path class="cls-1" d="M289.46,366.21H82.35a35.68,35.68,0,0,1-22.65-8.4c-2.09-1.67-24.83-19.81-33.5-28-6.19-5.86-6.65-15.88-6.68-17v-79a24.29,24.29,0,0,1,24.27-24.27h.26l228.61,12.11c14.6.84,24.64,9.69,26.88,23.66L313.7,341a1.36,1.36,0,0,1,0,.2c.74,6.88-1,12.87-5,17.33C304.35,363.42,297.33,366.21,289.46,366.21ZM29.52,312.58c.07,1.83.87,7.43,3.55,10,8.59,8.12,32.74,27.35,33,27.54l.31.27a25.78,25.78,0,0,0,16,5.86H289.46c5,0,9.35-1.58,11.83-4.33,2.07-2.31,2.91-5.5,2.5-9.49l-14.14-95.54c-1-6.5-4.93-14.47-17.54-15.2L43.66,219.55a14.28,14.28,0,0,0-14.14,14.27Z"/><path class="cls-1" d="M256,345.21H153a19.72,19.72,0,0,1-19.48-19.92v-.39A19.6,19.6,0,0,1,153,305.21H256a19.61,19.61,0,0,1,19.49,19.69v.39A19.73,19.73,0,0,1,256,345.21Zm-103-30a9.6,9.6,0,0,0-9.48,9.69v.39a9.72,9.72,0,0,0,9.48,9.92H256a9.72,9.72,0,0,0,9.49-9.92v-.39a9.61,9.61,0,0,0-9.49-9.69Z"/><path class="cls-1" d="M355,201.28h-.06L165.29,199a5,5,0,1,1,.12-10l189.64,2.31a5,5,0,0,1-.06,10Z"/><path class="cls-1" d="M144.09,224.94h-.29a5,5,0,0,1-4.71-5.27l1.25-22a17.46,17.46,0,0,0-16.42-18.4L70.16,176.2a17.42,17.42,0,0,0-18.4,16.41l-1.18,20.91a5,5,0,1,1-10-.57L41.78,192a27.44,27.44,0,0,1,29-25.83l53.76,3.06a27.48,27.48,0,0,1,25.84,28.95l-1.26,22A5,5,0,0,1,144.09,224.94Z"/><path class="cls-1" d="M438.87,181.51a34.85,34.85,0,1,1,34.84-34.84A34.88,34.88,0,0,1,438.87,181.51Zm0-59.69a24.85,24.85,0,1,0,24.84,24.85A24.87,24.87,0,0,0,438.87,121.82Z"/><path class="cls-1" d="M361.09,103.73a34.85,34.85,0,1,1,34.84-34.84A34.88,34.88,0,0,1,361.09,103.73Zm0-59.69a24.85,24.85,0,1,0,24.84,24.85A24.87,24.87,0,0,0,361.09,44Z"/><path class="cls-1" d="M279.68,133.19a5,5,0,0,1-3.43-8.64l53.07-49.94a5,5,0,1,1,6.85,7.28L283.1,131.83A5,5,0,0,1,279.68,133.19Z"/><path class="cls-1" d="M338.81,155.31a5,5,0,0,1-4.58-7L356.5,96.75a5,5,0,0,1,9.18,4l-22.27,51.58A5,5,0,0,1,338.81,155.31Z"/><path class="cls-1" d="M409.31,147.55a5,5,0,0,1-3.45-1.38l-46-43.91a5,5,0,1,1,6.9-7.23l46,43.9a5,5,0,0,1-3.45,8.62Z"/><path class="cls-1" d="M439.19,120.28a5,5,0,0,1-3.45-1.39L388.23,73.55a5,5,0,1,1,6.9-7.23l47.51,45.34a5,5,0,0,1-3.45,8.62Z"/><path class="cls-1" d="M424.87,397.21H398.59c-11.4,0-20.1-1.55-26.59-4.73-9-4.41-13.73-12.08-13.73-22.17a6.13,6.13,0,0,1,.05-.74l.39-2.57a5,5,0,0,1,5.91-4.17c.36.07.72.16,1.09.26.17,0,.33.09.5.12h54.54c3.92,0,7.37-3.69,7.37-7.9s-4-5.1-7.37-5.1H367a5,5,0,0,1-5-5.62l2.25-18a5,5,0,0,1,5-4.38h51.52a7.41,7.41,0,0,0,7.37-7.43c0-5.16-5.65-5.57-7.37-5.57H372.59a5,5,0,0,1-5-5.53l2.25-21a5,5,0,0,1,5-4.47h45.91c3.36,0,7.37-.88,7.37-5.09s-3.45-7.91-7.37-7.91H378.2a5,5,0,0,1-4.94-5.79l.26-1.61c3.09-25.61,15.87-25.59,33.48-25.6h67.7c23,0,24.82,13.58,24.82,31.32v65.8c0,27.15-10.33,46.62-30.68,57.86C453.83,395.47,436.64,397.21,424.87,397.21Zm-56.45-24c.71,5.52,5,14,30.17,14h26.28c24.14,0,64.65-7.52,64.65-57.88v-65.8c0-18.33-2.08-21.32-14.82-21.32H407c-7.74,0-13.85,0-17.34,2-1.93,1.1-4.23,3.39-5.64,11h36.73c9.41,0,17.37,8.2,17.37,17.91,0,9-7,15.09-17.37,15.09H379.33l-1.18,11h42.6c10.22,0,17.37,6.4,17.37,15.57a17.43,17.43,0,0,1-17.37,17.43H373.64l-1,8h48.11c10.39,0,17.37,6.07,17.37,15.1,0,9.7-8,17.9-17.37,17.9Z"/><path class="cls-1" d="M71.31,499.42h0a59.11,59.11,0,0,1,0-118.21H322.6a59.08,59.08,0,0,1,0,118.16Zm0-108.21a49.11,49.11,0,0,0,0,98.21l251.29-.05a49.08,49.08,0,0,0,0-98.16Z"/><path class="cls-1" d="M74,445.31a5,5,0,0,1-5-5v-1a5,5,0,1,1,10,0v1A5,5,0,0,1,74,445.31Z"/><path class="cls-1" d="M156,445.31a5,5,0,0,1-5-5v-1a5,5,0,0,1,10,0v1A5,5,0,0,1,156,445.31Z"/><path class="cls-1" d="M238.2,445.31a5,5,0,0,1-5-5v-1a5,5,0,0,1,10,0v1A5,5,0,0,1,238.2,445.31Z"/><path class="cls-1" d="M320.19,445.31a5,5,0,0,1-5-5v-1a5,5,0,0,1,10,0v1A5,5,0,0,1,320.19,445.31Z"/><path class="cls-1" d="M361.09,73.89a5,5,0,0,1-5-5v-1a5,5,0,1,1,10,0v1A5,5,0,0,1,361.09,73.89Z"/><path class="cls-1" d="M438.87,152.67a5,5,0,0,1-5-5v-1a5,5,0,1,1,10,0v1A5,5,0,0,1,438.87,152.67Z"/><path class="cls-1" d="M112.5,178.5a5,5,0,0,1-5-5v-74a25,25,0,0,1,25-25h56a25,25,0,0,1,25,25v27.62a5,5,0,0,1-10,0V99.5a15,15,0,0,0-15-15h-56a15,15,0,0,0-15,15v74A5,5,0,0,1,112.5,178.5Z"/><path class="cls-1" d="M208.5,116.25h-96a5,5,0,0,1,0-10h96a5,5,0,0,1,0,10Z"/><path class="cls-1" d="M169.51,148.5h-57a5,5,0,0,1,0-10h57a5,5,0,0,1,0,10Z"/><path class="cls-1" d="M166.33,180.5H132a5,5,0,0,1,0-10h34.33a5,5,0,1,1,0,10Z"/></g><g id="Outline"><path class="cls-1" d="M59.33,279.06h-.26l-1.5-.08a5,5,0,1,1,.51-10l1.5.08a5,5,0,0,1-.25,10Z"/><path class="cls-1" d="M240.78,288.42h-.26l-3-.16a5,5,0,1,1,.52-10l3,.15a5,5,0,0,1-.26,10Zm-22.68-1.17h-.26l-3-.15a5,5,0,0,1,.52-10l2.95.15a5,5,0,0,1-.25,10Zm-22.68-1.17h-.26l-3-.15a5,5,0,1,1,.51-10l3,.15a5,5,0,0,1-.25,10Zm-22.68-1.17h-.26l-3-.15a5,5,0,1,1,.51-10l3,.16a5,5,0,0,1-.25,10Zm-22.68-1.17h-.27l-2.95-.15a5,5,0,1,1,.51-10l3,.16a5,5,0,0,1-.25,10Zm-22.69-1.17h-.26l-3-.15a5,5,0,0,1,.52-10l3,.16a5,5,0,0,1-.26,10Zm-22.68-1.17h-.26l-3-.15a5,5,0,1,1,.52-10l3,.15a5,5,0,0,1-.26,10ZM82,280.23h-.26l-3-.16a5,5,0,1,1,.51-10l3,.15a5,5,0,0,1-.25,10Z"/><path class="cls-1" d="M262,289.51h-.25l-1.5-.08a5,5,0,1,1,.51-10l1.49.07a5,5,0,0,1-.25,10Z"/></g></svg>