<?xml version="1.0" ?><svg id="Lines" viewBox="0 0 512 512" xmlns="http://www.w3.org/2000/svg"><defs><style>.cls-1{fill:#3f456b;}</style></defs><title/><path class="cls-1" d="M218.72,308H38.79c-8.15,0-14.69-2.48-19.42-7.37C12,293.06,12,282.42,12,281.16V271a5,5,0,0,1,5-5H240.51a5,5,0,0,1,5,5v10.17c0,1.26,0,11.9-7.37,19.46C233.4,305.52,226.87,308,218.72,308ZM22,276v5.37c0,.05-.1,7.56,4.6,12.35,2.78,2.84,6.88,4.28,12.19,4.28H218.72c5.34,0,9.46-1.46,12.24-4.33,4.65-4.79,4.55-12.23,4.55-12.3V276Z"/><path class="cls-1" d="M35.61,500.71c-.5,0-1,0-1.47-.06-13.16-1.19-17-11.74-16.41-18.55L34,302.55a5,5,0,1,1,10,.9L27.69,483c-.13,2.06.3,7.05,7.34,7.69,2.07.14,7-.18,7.6-6.35L59,302.55a5,5,0,1,1,10,.9L52.59,485.24C51.55,496.79,42.37,500.71,35.61,500.71Z"/><path class="cls-1" d="M53.08,429a3.55,3.55,0,0,1-.46,0l-24.9-2.23a5,5,0,1,1,.9-10l24.9,2.23a5,5,0,0,1-.44,10Z"/><path class="cls-1" d="M221.37,500.69a20.11,20.11,0,0,1-7.2-1.33c-5.88-2.3-9.46-7.32-10.07-14.12L187.71,303.45a5,5,0,0,1,10-.9l16.39,181.79c.35,3.9,2.19,5.1,3.76,5.72a10.41,10.41,0,0,0,3.84.63c7-.64,7.47-5.63,7.33-7.75L212.71,303.45a5,5,0,0,1,10-.9L239,482.1c.61,6.81-3.25,17.36-16.41,18.55C222.43,500.66,222,500.69,221.37,500.69Z"/><path class="cls-1" d="M203.61,429a5,5,0,0,1-.44-10l24.9-2.23a5,5,0,1,1,.89,10L204.07,429Z"/><path class="cls-1" d="M224,276a5,5,0,0,1-5-5V192a2.26,2.26,0,0,1,0-.26c0-.45,1.9-46.6-30.17-73a5,5,0,0,1-.83-6.85c8.76-11.75,21-29.81,29.43-49.17,3.53-8.08,5.06-16.57,4.19-23.3-1-7.45-4.71-12.66-11.16-15.47-4.86-2.1-8.5-2.95-11.82-2.74-15.13,1-21.49,19.07-23.52,26.82-3.93,15-6.35,32.41-7.19,51.86a5,5,0,0,1-6.43,4.57A117.64,117.64,0,0,0,128,100a116.94,116.94,0,0,0-33,4.36,5,5,0,0,1-6.42-4.58c-.57-13.31-2.29-33.09-7.18-51.73-2-7.75-8.39-25.86-23.52-26.82C54.49,21,50.84,21.87,46,24c-6.44,2.8-10.19,8-11.15,15.46-.86,6.73.66,15.22,4.19,23.3C47.42,82,59.58,100,68.29,111.71a5,5,0,0,1-.84,6.86c-32.17,26.34-30,72.69-30,73.15a2.62,2.62,0,0,1,0,.28v79a5,5,0,0,1-10,0V192.13c-.18-3.54-1.76-48.87,30.08-78.18-8.72-12-19.75-29-27.68-47.21-4.3-9.83-6.05-20-5-28.58,1.42-11,7.32-19.1,17.08-23.35,4-1.73,10-4,16.46-3.56C73.67,12.21,85.53,24.7,91,45.51a249.34,249.34,0,0,1,7.17,47.66A132.44,132.44,0,0,1,128,90a132.81,132.81,0,0,1,30.27,3.28,250.32,250.32,0,0,1,7.18-47.77c5.47-20.81,17.33-33.3,32.56-34.26,6.46-.4,12.48,1.83,16.45,3.55,9.77,4.26,15.67,12.34,17.09,23.36,1.1,8.6-.65,18.75-4.95,28.58-8,18.26-19.07,35.32-27.83,47.42,31.77,29.35,30.38,74.53,30.23,78V271A5,5,0,0,1,224,276Z"/><path class="cls-1" d="M461.72,308H281.79c-8.15,0-14.69-2.48-19.42-7.37C255,293.06,255,282.42,255,281.16V271a5,5,0,0,1,5-5H483.51a5,5,0,0,1,5,5v10.17c0,1.26,0,11.9-7.37,19.46C476.4,305.52,469.87,308,461.72,308ZM265,276v5.37c0,.05-.1,7.56,4.6,12.35,2.78,2.84,6.88,4.28,12.19,4.28H461.72c5.34,0,9.46-1.46,12.24-4.33,4.65-4.79,4.55-12.23,4.55-12.3V276Z"/><path class="cls-1" d="M278.32,500.69c-.64,0-1.06,0-1.18,0-13.16-1.19-17-11.74-16.41-18.55L277,302.55a5,5,0,0,1,10,.9L270.69,483c-.13,2.06.3,7.05,7.34,7.69,2.07.14,7.05-.18,7.6-6.35L302,302.55a5,5,0,0,1,10,.9L295.59,485.24c-.61,6.8-4.19,11.82-10.07,14.12A20.14,20.14,0,0,1,278.32,500.69Z"/><path class="cls-1" d="M296.08,429l-.46,0-24.9-2.23a5,5,0,0,1,.9-10l24.9,2.23a5,5,0,0,1-.44,10Z"/><path class="cls-1" d="M464.37,500.69a20.11,20.11,0,0,1-7.2-1.33c-5.88-2.3-9.46-7.32-10.07-14.12L430.71,303.45a5,5,0,0,1,10-.9l16.39,181.79c.35,3.9,2.19,5.1,3.76,5.72a10.41,10.41,0,0,0,3.84.63c7-.64,7.47-5.63,7.33-7.75L455.71,303.45a5,5,0,0,1,10-.9L482,482.1c.61,6.81-3.25,17.36-16.41,18.55C465.43,500.66,465,500.69,464.37,500.69Z"/><path class="cls-1" d="M446.61,429a5,5,0,0,1-.44-10l24.9-2.23a5,5,0,1,1,.89,10L447.07,429Z"/><g data-name="&lt;编组&gt;" id="_编组_"><path class="cls-1" d="M467,275H275.45a5,5,0,0,1-5-5V144.13c-.16-3.14-1.47-40.6,21.93-69.49A37,37,0,1,1,353.78,43,145.85,145.85,0,0,1,371,42a143.1,143.1,0,0,1,19.24,1.25,37,37,0,1,1,60.26,32.36c22.77,28.8,21.63,65.51,21.5,68.51V270A5,5,0,0,1,467,275Zm-186.5-10H462V144a2.09,2.09,0,0,1,0-.25h0c0-.39,1.62-39-22.57-65.73a5,5,0,0,1,1.19-7.68A27,27,0,1,0,400,47c0,.65,0,1.21.06,1.73A5,5,0,0,1,394.15,54,126.6,126.6,0,0,0,371,52a129.78,129.78,0,0,0-21.17,1.65A5,5,0,0,1,344,48.54c0-.51,0-1,0-1.54a27,27,0,1,0-41.64,22.69,5,5,0,0,1,.95,7.59c-24.72,26.74-22.89,66.05-22.87,66.44a2.62,2.62,0,0,1,0,.28Z"/></g><path class="cls-1" d="M440.26,273.07a5,5,0,0,1-3.65-8.42,11.32,11.32,0,0,0-.9-3.44,5.89,5.89,0,0,1-.26-.7c-14.83-51.68-.57-96.95.05-98.85a3.62,3.62,0,0,1,.13-.35,14.54,14.54,0,0,0,.9-3.69,22.16,22.16,0,0,0-6.15.9l-.28.07c-62.37,14.27-114.36.54-116.54-.05a4.83,4.83,0,0,1-.64-.22,12,12,0,0,0-5.39-.94,12.87,12.87,0,0,0,.94,3.81,5.66,5.66,0,0,1,.27.79c13.24,52.75.49,96.73-.06,98.58a4.84,4.84,0,0,1-.22.6,10.79,10.79,0,0,0-.86,3.56,5,5,0,0,1-6.93,7.18c-5.16-4.35-2.45-12.17-1.5-14.44,1-3.57,11.87-44.84,0-92.68-1-2.44-3.71-10.5,1.54-14.92s13.43-1.82,15.77-.9c4.11,1,53.77,13,111.29-.09,3.38-1,11.36-2.7,15.74,1,5.13,4.31,2.56,12.33,1.5,15-.85,2.79-13.41,45.42,0,92.54,3.24,7.39,1.27,12.4-1.7,14.65A5,5,0,0,1,440.26,273.07Z"/><path class="cls-1" d="M194.26,273.07a5,5,0,0,1-3.65-8.42,11,11,0,0,0-.9-3.44,5.89,5.89,0,0,1-.26-.7c-14.83-51.68-.57-96.95.05-98.85a3.62,3.62,0,0,1,.13-.35,14.54,14.54,0,0,0,.9-3.69,22.09,22.09,0,0,0-6.14.9l-.29.07c-62.37,14.27-114.36.54-116.54-.05a4.83,4.83,0,0,1-.64-.22,12,12,0,0,0-5.39-.94,12.87,12.87,0,0,0,.94,3.81,5.66,5.66,0,0,1,.27.79c13.24,52.75.49,96.73-.06,98.58a4.84,4.84,0,0,1-.22.6,10.79,10.79,0,0,0-.86,3.56,5,5,0,0,1-6.93,7.18c-5.16-4.35-2.45-12.17-1.5-14.44,1-3.57,11.87-44.84,0-92.68-1-2.44-3.71-10.5,1.54-14.92S68.1,148,70.44,149c4.11,1,53.77,13,111.29-.09,3.38-1,11.36-2.7,15.74,1,5.13,4.31,2.56,12.33,1.5,15-.85,2.79-13.41,45.42,0,92.54,3.24,7.39,1.27,12.4-1.7,14.65A5,5,0,0,1,194.26,273.07Z"/></svg>