<?xml version="1.0" ?><svg viewBox="0 0 512 512" xmlns="http://www.w3.org/2000/svg"><defs><style>.cls-1{fill:#3d446b;}</style></defs><title/><g id="Lines"><path class="cls-1" d="M257.11,88.74c-20.9,0-28.38-17.85-29.44-27.4a4.46,4.46,0,0,1,0-.63V38.58c0-8.51,2.63-15.32,7.81-20.27,8.7-8.3,21.38-7.82,21.91-7.79a5,5,0,0,1-.44,10c-.1,0-9.06-.27-14.61,5.08-3.1,3-4.67,7.35-4.67,13V60.36A27.88,27.88,0,0,0,241.07,70c3.56,5.92,8.81,8.79,16,8.79a5,5,0,0,1,0,10Z"/><path class="cls-1" d="M204,190.26a21.27,21.27,0,0,1-15.83-6.33c-9.5-9.7-8.59-27.3-8.42-29.66V120.64c0-31.84,23.49-36.16,37.52-38.74,13-2.4,15.71-7.23,15.74-7.28a1.12,1.12,0,0,0-.11.27l9.35,3.54c-.62,1.62-4.62,9.89-23.17,13.31-17.17,3.16-29.33,7.08-29.33,28.9v33.82c0,.15,0,.29,0,.43-.35,4.19,0,16.34,5.6,22.06,2.44,2.48,5.7,3.55,10,3.27h.32c.22,0,6.65-.22,13.33-6.37,8.1-7.44,19.07-19.54,19.18-19.66a5,5,0,0,1,3.71-1.64h20.89l.55,0c1.12.1,4.55,0,6.51-1.79,1.26-1.14,1.87-3,1.87-5.54,0-7.37-3-10.37-10.32-10.37H235.2l-20.95,15.89a5,5,0,0,1-6-8l22.29-16.91a5,5,0,0,1,3-1h27.86c12.91,0,20.32,7.42,20.32,20.37,0,6.89-2.84,10.88-5.23,13-5.19,4.65-12.19,4.42-13.93,4.29H244.08c-3.35,3.64-11.63,12.51-18.32,18.66-9,8.27-18.25,9-19.87,9C205.26,190.24,204.64,190.26,204,190.26Z"/><path class="cls-1" d="M297.59,160.55H271.78a5,5,0,0,1,0-10h20.81V136a5,5,0,0,1,10,0v19.54A5,5,0,0,1,297.59,160.55Z"/><path class="cls-1" d="M214,373.16a5,5,0,0,1-4.89-4c-1.78-8.62-.43-15.62,4-20.81,4.13-4.81,10.06-6.84,14.73-7.69-13.67-38.1-9.27-70.36-7.91-78-14.94-34.32-12.64-77.39-12.54-79.24a5,5,0,0,1,10,.58c0,.43-2.31,43.74,12.31,76a5,5,0,0,1,.33,3.13c-.08.36-7.77,37.57,9.49,80.07a5,5,0,0,1-4.89,6.88c-2.63-.12-10.28.52-13.94,4.81-2.31,2.71-2.92,6.83-1.8,12.24a5,5,0,0,1-3.88,5.91A5.05,5.05,0,0,1,214,373.16Z"/><path class="cls-1" d="M255.89,88.74a5,5,0,0,1,0-10c16.49,0,19.19-16.12,19.49-18.35V38.58c0-5.75-1.59-10.17-4.72-13.15-5.54-5.29-14.42-4.93-14.51-4.92a5,5,0,0,1-.55-10c.53,0,13.16-.64,21.88,7.6,5.24,4.94,7.9,11.83,7.9,20.46V60.69a4.62,4.62,0,0,1-.05.65C284.27,70.89,276.79,88.74,255.89,88.74Z"/><path class="cls-1" d="M309,190.26c-.6,0-1.2,0-1.81,0a154.9,154.9,0,0,1-18.62-1.58L259.2,184l-.12,0c-.92-.17-9.14-1.87-13.65-9.27-3.11-5.09-3.57-11.36-1.38-18.62a5,5,0,0,1,9.57,2.89c-1.33,4.42-1.22,8,.34,10.52,2.13,3.49,6.51,4.55,6.9,4.64L290,178.73a144.21,144.21,0,0,0,17.33,1.48h.32c4.3.28,7.57-.8,10-3.29,5.65-5.76,5.95-17.86,5.59-22,0-.14,0-.28,0-.43V120.64c0-21.82-12.16-25.74-29.33-28.9-18.55-3.42-22.55-11.69-23.17-13.31l9.35-3.54a1.12,1.12,0,0,0-.11-.27s2.7,4.88,15.74,7.28c14,2.58,37.52,6.9,37.52,38.74v33.63c.17,2.36,1.08,20-8.42,29.66A21.27,21.27,0,0,1,309,190.26Z"/><path class="cls-1" d="M299,373.16a5.33,5.33,0,0,1-.88-.08,5,5,0,0,1-4.05-5.8c1-5.61.25-9.86-2.22-12.62-4.43-5-13.36-4.58-13.45-4.57a5,5,0,0,1-4.93-6.88c17.32-42.65,9.57-79.7,9.49-80.07a5,5,0,0,1,.33-3.13c14.64-32.3,12.13-74.06,12.11-74.48a5,5,0,1,1,10-.64c.12,1.78,2.62,43.49-12.32,77.78,1.36,7.64,5.76,39.89-7.9,78,4.48.82,10.1,2.78,14.17,7.34,4.6,5.17,6.15,12.24,4.6,21A5,5,0,0,1,299,373.16Z"/><path class="cls-1" d="M256,373.16a5,5,0,0,1-5-5V177.63a5,5,0,0,1,10,0V368.16A5,5,0,0,1,256,373.16Z"/><path class="cls-1" d="M264.57,286.58a17.86,17.86,0,0,1-9-2.55A16.49,16.49,0,0,1,237,281.65l6.9-7.24-.06-.06c.9.8,4.22,3.13,9-.36a5,5,0,0,1,6.43.44c1.15,1.07,5.42,4.34,10.17-.07a5,5,0,0,1,6.8,7.33A16.94,16.94,0,0,1,264.57,286.58Z"/><path class="cls-1" d="M321.73,403.39H190.18a5,5,0,0,1-5-5V383.53c0-11.24,8.49-20.37,18.93-20.37H307.8c10.44,0,18.93,9.13,18.93,20.37v14.86A5,5,0,0,1,321.73,403.39Zm-126.55-10H316.73v-9.86c0-5.72-4-10.37-8.93-10.37H204.11c-4.93,0-8.93,4.65-8.93,10.37Z"/><path class="cls-1" d="M321.73,500.5H190.18a5,5,0,0,1-5-5V398.39a5,5,0,0,1,10,0V490.5H316.73V398.39a5,5,0,0,1,10,0V495.5A5,5,0,0,1,321.73,500.5Z"/><path class="cls-1" d="M89,88.74c-20.9,0-28.39-17.85-29.45-27.4a4.44,4.44,0,0,1,0-.63V38.58c0-8.51,2.62-15.32,7.8-20.27C76,10,88.64,10.49,89.18,10.52a5,5,0,0,1-.23,10h-.22c-.11,0-9-.27-14.61,5.08-3.09,3-4.66,7.35-4.66,13V60.36A27.66,27.66,0,0,0,72.91,70c3.56,5.92,8.8,8.79,16,8.79a5,5,0,0,1,0,10Z"/><path class="cls-1" d="M35.85,190.26A21.27,21.27,0,0,1,20,183.93c-9.49-9.7-8.59-27.3-8.42-29.66V120.64c0-31.84,23.49-36.16,37.53-38.74,13-2.4,15.71-7.23,15.73-7.28a1.12,1.12,0,0,0-.11.27l9.35,3.54c-.61,1.62-4.62,9.89-23.17,13.31C33.76,94.9,21.6,98.82,21.6,120.64v33.82a3,3,0,0,1,0,.43c-.34,4.19,0,16.34,5.6,22.06,2.44,2.48,5.7,3.55,10,3.27h.32c.22,0,6.66-.22,13.33-6.37,8.1-7.44,19.07-19.54,19.18-19.66a5,5,0,0,1,3.71-1.64H94.6a4.93,4.93,0,0,1,.55,0c1.12.1,4.55,0,6.51-1.79,1.26-1.14,1.87-3,1.87-5.54,0-7.37-3-10.37-10.32-10.37H67L46.09,150.76a5,5,0,0,1-6.05-8l22.29-16.91a5,5,0,0,1,3-1H93.21c12.91,0,20.32,7.42,20.32,20.37,0,6.89-2.84,10.88-5.22,13-5.19,4.65-12.2,4.42-13.93,4.29H75.91c-3.35,3.64-11.62,12.51-18.32,18.66-9,8.27-18.25,9-19.86,9C37.09,190.24,36.47,190.26,35.85,190.26Z"/><path class="cls-1" d="M129.42,160.55h-25.8a5,5,0,0,1,0-10h20.8V136a5,5,0,0,1,10,0v19.54A5,5,0,0,1,129.42,160.55Z"/><path class="cls-1" d="M45.85,373.16a5,5,0,0,1-4.89-4c-1.79-8.62-.43-15.62,4-20.81,4.12-4.81,10.05-6.84,14.72-7.69-13.67-38.1-9.26-70.36-7.91-78-14.93-34.32-12.64-77.39-12.53-79.24a5,5,0,0,1,10,.58c0,.43-2.31,43.74,12.31,76a5,5,0,0,1,.33,3.13c-.08.36-7.76,37.57,9.5,80.07a5,5,0,0,1-4.89,6.88c-2.63-.12-10.29.52-13.95,4.81-2.31,2.71-2.91,6.83-1.79,12.24a5,5,0,0,1-4.9,6Z"/><path class="cls-1" d="M87.72,88.74a5,5,0,0,1,0-10c16.49,0,19.19-16.12,19.49-18.35V38.58c0-5.75-1.59-10.17-4.72-13.15C97,20.14,88.07,20.5,88,20.51a5,5,0,0,1-.54-10c.52,0,13.15-.64,21.88,7.6,5.23,4.94,7.89,11.83,7.89,20.46V60.69c0,.22,0,.44,0,.65C116.1,70.89,108.62,88.74,87.72,88.74Z"/><path class="cls-1" d="M140.81,190.26c-.59,0-1.19,0-1.81,0a155.2,155.2,0,0,1-18.62-1.58L91,184l-.13,0c-.92-.17-9.14-1.87-13.65-9.27-3.1-5.09-3.57-11.36-1.37-18.62A5,5,0,1,1,85.46,159c-1.33,4.39-1.22,7.91.3,10.46,2.1,3.5,6.45,4.59,6.95,4.7l29.13,4.59a144.29,144.29,0,0,0,17.34,1.48h.32c4.28.28,7.55-.79,10-3.27,5.62-5.72,6-17.87,5.6-22.07,0-.13,0-.28,0-.42V120.64c0-21.82-12.16-25.74-29.34-28.9-18.55-3.42-22.55-11.69-23.17-13.31l9.36-3.54a2.19,2.19,0,0,0-.11-.27s2.69,4.88,15.73,7.28c14,2.58,37.53,6.9,37.53,38.74v33.63c.16,2.36,1.07,20-8.43,29.66A21.27,21.27,0,0,1,140.81,190.26Z"/><path class="cls-1" d="M130.82,373.16a5.33,5.33,0,0,1-.88-.08,5,5,0,0,1-4-5.8c1-5.61.25-9.86-2.21-12.62-4.44-5-13.36-4.58-13.45-4.57a5,5,0,0,1-4.94-6.88c17.32-42.65,9.58-79.7,9.5-80.07a5,5,0,0,1,.33-3.13c14.63-32.3,12.13-74.06,12.1-74.48a5,5,0,1,1,10-.64c.11,1.78,2.61,43.49-12.32,77.78,1.35,7.64,5.75,39.89-7.91,78,4.48.82,10.1,2.78,14.17,7.34,4.61,5.17,6.15,12.24,4.6,21A5,5,0,0,1,130.82,373.16Z"/><path class="cls-1" d="M87.79,373.16a5,5,0,0,1-5-5V177.63a5,5,0,0,1,10,0V368.16A5,5,0,0,1,87.79,373.16Z"/><path class="cls-1" d="M96.4,286.58a17.86,17.86,0,0,1-9-2.55,16.49,16.49,0,0,1-18.51-2.38l6.91-7.24-.07-.06c.91.8,4.22,3.13,9-.36a5,5,0,0,1,6.42.44c1.16,1.07,5.42,4.34,10.17-.07a5,5,0,1,1,6.8,7.33A16.94,16.94,0,0,1,96.4,286.58Z"/><path class="cls-1" d="M153.57,403.39H22a5,5,0,0,1-5-5V383.53c0-11.24,8.49-20.37,18.93-20.37h103.7c10.43,0,18.93,9.13,18.93,20.37v14.86A5,5,0,0,1,153.57,403.39ZM27,393.39H148.57v-9.86c0-5.72-4-10.37-8.93-10.37H35.94c-4.92,0-8.93,4.65-8.93,10.37Z"/><path class="cls-1" d="M153.57,500.5H22a5,5,0,0,1-5-5V398.39a5,5,0,0,1,10,0V490.5H148.57V398.39a5,5,0,0,1,10,0V495.5A5,5,0,0,1,153.57,500.5Z"/><path class="cls-1" d="M424,88.74c-20.9,0-28.38-17.85-29.45-27.4,0-.21,0-.42,0-.63V38.58c0-8.51,2.63-15.32,7.8-20.27,8.71-8.3,21.38-7.82,21.92-7.79a5,5,0,0,1-.44,10c-.11,0-9.06-.27-14.61,5.08-3.1,3-4.67,7.35-4.67,13V60.36A27.88,27.88,0,0,0,407.94,70c3.56,5.92,8.81,8.79,16,8.79a5,5,0,0,1,0,10Z"/><path class="cls-1" d="M370.89,190.26a21.27,21.27,0,0,1-15.83-6.33c-9.5-9.7-8.59-27.3-8.42-29.66V120.64c0-31.84,23.48-36.16,37.52-38.74,13-2.4,15.71-7.23,15.73-7.28a2.19,2.19,0,0,0-.11.27l9.36,3.54c-.62,1.62-4.62,9.89-23.17,13.31-17.18,3.16-29.33,7.08-29.33,28.9v33.82c0,.15,0,.29,0,.43-.35,4.19,0,16.34,5.6,22.06,2.43,2.48,5.7,3.55,10,3.27h.33c.21,0,6.65-.22,13.33-6.37C394,166.4,404.93,154.3,405,154.18a5,5,0,0,1,3.7-1.64h20.89a4.93,4.93,0,0,1,.55,0c1.12.1,4.56,0,6.52-1.79,1.25-1.14,1.86-3,1.86-5.54,0-7.37-3-10.37-10.32-10.37H402.07l-20.95,15.89a5,5,0,0,1-6-8l22.28-16.91a5,5,0,0,1,3-1h27.85c12.92,0,20.32,7.42,20.32,20.37,0,6.89-2.84,10.88-5.22,13-5.19,4.65-12.19,4.42-13.93,4.29H411c-3.36,3.64-11.63,12.51-18.32,18.66-9,8.27-18.25,9-19.87,9C372.13,190.24,371.5,190.26,370.89,190.26Z"/><path class="cls-1" d="M464.46,160.55H438.65a5,5,0,0,1,0-10h20.81V136a5,5,0,0,1,10,0v19.54A5,5,0,0,1,464.46,160.55Z"/><path class="cls-1" d="M380.88,373.16a5,5,0,0,1-4.89-4c-1.78-8.62-.43-15.62,4-20.81,4.13-4.81,10.06-6.84,14.73-7.69-13.68-38.1-9.27-70.36-7.92-78-14.93-34.32-12.64-77.39-12.53-79.24a5,5,0,0,1,10,.58c0,.43-2.3,43.74,12.31,76a5,5,0,0,1,.33,3.13c-.07.36-7.76,37.57,9.5,80.07a5,5,0,0,1-4.89,6.88c-2.64-.12-10.29.52-13.94,4.81-2.31,2.71-2.92,6.83-1.8,12.24a5,5,0,0,1-3.88,5.91A5.05,5.05,0,0,1,380.88,373.16Z"/><path class="cls-1" d="M422.75,88.74a5,5,0,0,1,0-10c16.5,0,19.2-16.12,19.49-18.35V38.58c0-5.75-1.58-10.17-4.71-13.15C432,20.14,423.11,20.5,423,20.51a5,5,0,0,1-.55-10c.53,0,13.16-.64,21.88,7.6,5.24,4.94,7.89,11.83,7.89,20.46V60.69a4.63,4.63,0,0,1,0,.65C451.14,70.89,443.65,88.74,422.75,88.74Z"/><path class="cls-1" d="M475.85,190.26c-.6,0-1.2,0-1.81,0a154.9,154.9,0,0,1-18.62-1.58L426.07,184l-.12,0c-.93-.17-9.14-1.87-13.65-9.27-3.11-5.09-3.57-11.36-1.38-18.62a5,5,0,1,1,9.57,2.89c-1.32,4.39-1.22,7.91.31,10.46,2.09,3.5,6.44,4.59,6.95,4.7l29.13,4.59a144.06,144.06,0,0,0,17.33,1.48h.32c4.3.28,7.56-.8,10-3.29,5.65-5.76,6-17.86,5.59-22,0-.14,0-.28,0-.43V120.64c0-21.82-12.16-25.74-29.33-28.9-18.55-3.42-22.56-11.69-23.17-13.31L447,74.89a1.12,1.12,0,0,0-.11-.27s2.7,4.88,15.74,7.28c14,2.58,37.52,6.9,37.52,38.74v33.63c.17,2.36,1.08,20-8.42,29.66A21.27,21.27,0,0,1,475.85,190.26Z"/><path class="cls-1" d="M465.86,373.16a5.24,5.24,0,0,1-.88-.08,5,5,0,0,1-4.05-5.8c1-5.61.24-9.86-2.22-12.62-4.43-5-13.36-4.58-13.45-4.57a5,5,0,0,1-4.94-6.88c17.33-42.65,9.58-79.7,9.5-80.07a5,5,0,0,1,.33-3.13c14.64-32.3,12.13-74.06,12.1-74.48a5,5,0,1,1,10-.64c.12,1.78,2.62,43.49-12.32,77.78,1.35,7.64,5.76,39.89-7.91,78,4.48.82,10.11,2.78,14.18,7.34,4.6,5.17,6.15,12.24,4.59,21A5,5,0,0,1,465.86,373.16Z"/><path class="cls-1" d="M422.82,373.16a5,5,0,0,1-5-5V177.63a5,5,0,0,1,10,0V368.16A5,5,0,0,1,422.82,373.16Z"/><path class="cls-1" d="M431.43,286.58a17.92,17.92,0,0,1-9-2.55,16.48,16.48,0,0,1-18.5-2.38l6.9-7.24-.06-.06c.9.8,4.21,3.13,9-.36a5,5,0,0,1,6.42.44c1.16,1.07,5.42,4.34,10.17-.07a5,5,0,1,1,6.8,7.33A16.9,16.9,0,0,1,431.43,286.58Z"/><path class="cls-1" d="M488.6,403.39H357a5,5,0,0,1-5-5V383.53c0-11.24,8.5-20.37,18.93-20.37h103.7c10.44,0,18.93,9.13,18.93,20.37v14.86A5,5,0,0,1,488.6,403.39ZM362,393.39H483.6v-9.86c0-5.72-4-10.37-8.93-10.37H371c-4.92,0-8.93,4.65-8.93,10.37Z"/><path class="cls-1" d="M488.6,500.5H357a5,5,0,0,1-5-5V398.39a5,5,0,0,1,10,0V490.5H483.6V398.39a5,5,0,0,1,10,0V495.5A5,5,0,0,1,488.6,500.5Z"/></g><g id="Outline"><path class="cls-1" d="M87.65,237.87a5,5,0,0,1-5-5c0-30-37.12-31.47-38.7-31.52a5,5,0,1,1,.27-10,70.73,70.73,0,0,1,23.63,5.4c16.23,7,24.8,19.5,24.8,36.11A5,5,0,0,1,87.65,237.87Z"/><path class="cls-1" d="M88.14,237.87a5,5,0,0,1-5-5c0-16.61,8.57-29.09,24.8-36.11a70.73,70.73,0,0,1,23.63-5.4,5,5,0,0,1,.28,10h0c-1.58.05-38.71,1.5-38.71,31.52A5,5,0,0,1,88.14,237.87Z"/><path class="cls-1" d="M87.93,111.35a55.27,55.27,0,0,1-19.19-3.27,5,5,0,0,1,3.76-9.27,47.65,47.65,0,0,0,30.76-.07,5,5,0,1,1,3.37,9.42A55.55,55.55,0,0,1,87.93,111.35Z"/><path class="cls-1" d="M255.82,237.87a5,5,0,0,1-5-5c0-30-37.13-31.47-38.71-31.52a5,5,0,0,1,.27-10,70.72,70.72,0,0,1,23.64,5.4c16.22,7,24.8,19.5,24.8,36.11A5,5,0,0,1,255.82,237.87Z"/><path class="cls-1" d="M256.31,237.87a5,5,0,0,1-5-5c0-16.61,8.57-29.09,24.8-36.11a70.73,70.73,0,0,1,23.63-5.4,5,5,0,1,1,.27,10h0c-1.58.05-38.7,1.5-38.7,31.52A5,5,0,0,1,256.31,237.87Z"/><path class="cls-1" d="M256.1,111.35a55.21,55.21,0,0,1-19.19-3.27,5,5,0,0,1,3.75-9.27,47.7,47.7,0,0,0,30.77-.07,5,5,0,0,1,3.37,9.42A55.55,55.55,0,0,1,256.1,111.35Z"/><path class="cls-1" d="M422.69,237.87a5,5,0,0,1-5-5c0-30-37.13-31.47-38.71-31.52a5,5,0,1,1,.27-10,70.76,70.76,0,0,1,23.64,5.4c16.22,7,24.8,19.5,24.8,36.11A5,5,0,0,1,422.69,237.87Z"/><path class="cls-1" d="M423.17,237.87a5,5,0,0,1-5-5c0-16.61,8.58-29.09,24.8-36.11a70.76,70.76,0,0,1,23.64-5.4,5,5,0,1,1,.27,10h0c-1.58.05-38.71,1.5-38.71,31.52A5,5,0,0,1,423.17,237.87Z"/><path class="cls-1" d="M423,111.35a55.18,55.18,0,0,1-19.18-3.27,5,5,0,0,1,3.75-9.27,47.68,47.68,0,0,0,30.77-.07,5,5,0,0,1,3.37,9.42A55.61,55.61,0,0,1,423,111.35Z"/></g></svg>