<?xml version="1.0" ?><svg id="Lines" viewBox="0 0 512 512" xmlns="http://www.w3.org/2000/svg"><defs><style>.cls-1{fill:#3f456b;}</style></defs><title/><path class="cls-1" d="M384.15,499a323.2,323.2,0,0,1-82-10.87,3.68,3.68,0,0,1-.47-.15,145,145,0,0,0-44.47-7.6c-23.66,0-45.59,7.55-45.81,7.63l-.38.12c-61.08,16-110.33,11.4-140.9,4.71-33.32-7.3-52-18.35-52.77-18.82a5,5,0,0,1-2.41-3.84c-5.52-60.74-3.44-102.59-1.59-122.87A109.73,109.73,0,0,1,15,333.11s0-.08,0-.12h0v0a5,5,0,0,1,1.77-2.81h0a6.34,6.34,0,0,1,.6-.41h0a1,1,0,0,1,.17-.1c15.7-8.32,37.85-26.71,54.32-67.08A219.36,219.36,0,0,0,85,217a5,5,0,0,1,5-4.29H114.8a5,5,0,0,1,4.85,3.81c.16.62,17.09,64.81,120.83,175.17a5,5,0,0,1,1.33,3.93c-.15,1.42-3.88,35.16-33.48,57.77-23.4,17.87-55.9,23.5-96.61,16.71-35.85-6-62.49-21.29-79.19-45.53a103.21,103.21,0,0,1-11.1-21c.21,18.36,1.13,39.57,3.19,63.06,5.71,3,22.48,11,48.08,16.54,29.37,6.37,76.72,10.72,135.56-4.67,2.48-.84,24.46-8.12,48.91-8.12a153.19,153.19,0,0,1,47.7,8.13c102,26.68,170.76-5.18,183.59-11.88,2.13-24.12,3-45.24,3.21-63.09a103.73,103.73,0,0,1-11.11,21.07c-16.7,24.24-43.34,39.56-79.19,45.53-40.71,6.79-73.22,1.16-96.62-16.71-29.6-22.61-33.33-56.35-33.47-57.77a5,5,0,0,1,1.33-3.93C376.35,281.32,393.28,217.13,393.44,216.5a5,5,0,0,1,4.85-3.8h24.86a5,5,0,0,1,5,4.29,219.52,219.52,0,0,0,13.19,45.79c9.09,22.22,25.88,51.87,54.26,66.89a5,5,0,0,1,1.12.82,5,5,0,0,1,1.44,2.61,111.41,111.41,0,0,1,1.66,14.16c1.86,20.28,3.94,62.13-1.58,122.87a5,5,0,0,1-2.41,3.84c-.78.47-19.45,11.52-52.78,18.82A276.91,276.91,0,0,1,384.15,499Zm-360.5-155c-1.34,15.41-1.42,48.1,17.16,75,15.11,21.88,39.52,35.76,72.55,41.27,37.8,6.3,67.67,1.35,88.78-14.71,22.13-16.83,28.06-41.4,29.38-48.77-91.41-97.67-115.45-158.6-120.46-174H94.15a235.45,235.45,0,0,1-13,43.64C67.64,299.48,48.07,324,24.46,337.28Q24.06,340.15,23.65,343.93Zm257.91,52.82c1.32,7.36,7.25,31.93,29.38,48.77,21.11,16.06,51,21,88.79,14.71,33-5.51,57.44-19.39,72.54-41.27,17.5-25.36,18.46-55.82,17.38-72.16-.4-4.36-.79-7.56-1-9.53-23.6-13.34-43.16-37.8-56.67-70.93a234.65,234.65,0,0,1-13-43.64H402C397,238.15,373,299.08,281.56,396.75Z"/><path class="cls-1" d="M256.12,409.15c-.68,0-1.35,0-2-.08-12.76-.91-20.77-10.36-21.11-10.76a5,5,0,0,1,7.67-6.43c.13.16,5.82,6.67,14.25,7.23,5.91.39,12-2.21,18.13-7.72a5,5,0,1,1,6.69,7.43C272.11,405.68,264.17,409.15,256.12,409.15Z"/><path class="cls-1" d="M114.8,196.49h-26a5,5,0,0,1-5-5V26.86a16.06,16.06,0,0,1,4-11.36C91.08,11.85,96,10,102.37,10s11.25,1.89,14.33,5.62a15.28,15.28,0,0,1,3.1,11.44V191.49A5,5,0,0,1,114.8,196.49Zm-21-10h16V26.69a4.3,4.3,0,0,1,.08-.88A5.4,5.4,0,0,0,109,22c-1.38-1.61-4.34-1.95-6.59-1.95s-5.46.38-7.14,2.16a6.14,6.14,0,0,0-1.44,4.13,2.68,2.68,0,0,1,0,.4Z"/><path class="cls-1" d="M422.14,196.49h-26a5,5,0,0,1-5-5V26.86a16,16,0,0,1,4-11.36c3.31-3.65,8.22-5.5,14.59-5.5s11.26,1.89,14.34,5.62a15.21,15.21,0,0,1,3.09,11.44V191.49A5,5,0,0,1,422.14,196.49Zm-21-10h16V26.69a5.14,5.14,0,0,1,.08-.88A5.35,5.35,0,0,0,416.3,22C414.93,20.34,412,20,409.71,20s-5.45.38-7.13,2.16a6.14,6.14,0,0,0-1.44,4.13c0,.16,0,.24,0,.4Z"/><path class="cls-1" d="M89,223a5,5,0,0,1-3.54-1.46c-5.36-5.37-7.12-12.94-5.09-21.9a43.53,43.53,0,0,1,4.32-11.18,5,5,0,0,1,8.62,5.07c-.15.26-7.86,13.85-.77,20.93A5,5,0,0,1,89,223Z"/><path class="cls-1" d="M113.56,223a5,5,0,0,1-3.54-8.54c7.12-7.12-.7-20.8-.78-20.94a5,5,0,0,1,8.63-5.06,43.71,43.71,0,0,1,4.31,11.18c2,9,.28,16.53-5.09,21.9A5,5,0,0,1,113.56,223Z"/><path class="cls-1" d="M397,223a5,5,0,0,1-3.54-1.46c-5.36-5.37-7.12-12.94-5.09-21.9a43.53,43.53,0,0,1,4.32-11.18,5,5,0,0,1,8.62,5.07c-.15.26-7.86,13.85-.77,20.93A5,5,0,0,1,397,223Z"/><path class="cls-1" d="M421.56,223a5,5,0,0,1-3.54-8.54c7.12-7.12-.7-20.8-.78-20.94a5,5,0,0,1,8.63-5.06,43.71,43.71,0,0,1,4.31,11.18c2,9,.28,16.53-5.09,21.9A5,5,0,0,1,421.56,223Z"/></svg>