<?xml version="1.0" ?><svg viewBox="0 0 512 512" xmlns="http://www.w3.org/2000/svg"><defs><style>.cls-1{fill:#3f456b;}</style></defs><title/><g id="Lines"><path class="cls-1" d="M134.33,226.17a107.86,107.86,0,0,1-26.47-3.32A107,107,0,0,1,79.36,27.14,107,107,0,0,1,237.9,145.37h0a107.16,107.16,0,0,1-103.57,80.8ZM134,22A97.08,97.08,0,0,0,50.78,168.76a97,97,0,0,0,177.43-25.85l4.84,1.23-4.84-1.23A97.18,97.18,0,0,0,134,22Z"/><path class="cls-1" d="M422.94,500.51a85.46,85.46,0,0,1-80.57-56.29H177.62A85.8,85.8,0,1,1,24.08,369.59,85.8,85.8,0,1,1,177.62,295H342.37a85.8,85.8,0,1,1,153.54,74.64,85.8,85.8,0,0,1-73,130.92ZM174.05,434.22H345.94a5,5,0,0,1,4.77,3.49,75.8,75.8,0,1,0,135.1-65.33,5,5,0,0,1,0-5.59,75.8,75.8,0,1,0-135.1-65.33,5,5,0,0,1-4.77,3.49H174.05a5,5,0,0,1-4.77-3.49,75.8,75.8,0,1,0-135.1,65.33,5,5,0,0,1,0,5.59,75.8,75.8,0,1,0,135.1,65.33A5,5,0,0,1,174.05,434.22Z"/><path class="cls-1" d="M96.5,374.59H30a5,5,0,0,1,0-10H96.5a5,5,0,0,1,0,10Z"/><path class="cls-1" d="M490.5,374.59H424a5,5,0,0,1,0-10H490.5a5,5,0,0,1,0,10Z"/><path class="cls-1" d="M356.51,228.5a13.56,13.56,0,0,1-11.68-6.69l-5.34-9.11a3.58,3.58,0,0,0-4-1.64l-10.22,2.66a13.56,13.56,0,0,1-16.84-11.25L307,192a3.59,3.59,0,0,0-3-3l-10.46-1.45a13.56,13.56,0,0,1-11.25-16.84l2.66-10.22a3.58,3.58,0,0,0-1.64-4l-9.11-5.34a13.56,13.56,0,0,1-3.95-19.86l6.37-8.43a3.57,3.57,0,0,0,0-4.28l-6.37-8.42a13.55,13.55,0,0,1,3.95-19.86L283.3,85a3.57,3.57,0,0,0,1.64-4l-2.66-10.22A13.55,13.55,0,0,1,293.53,54L304,52.5a3.56,3.56,0,0,0,3-3L308.47,39a13.56,13.56,0,0,1,16.84-11.25l10.22,2.66a3.57,3.57,0,0,0,4-1.64l5.34-9.1a13.55,13.55,0,0,1,19.86-3.95l8.43,6.36a3.54,3.54,0,0,0,4.28,0l8.42-6.36a13.55,13.55,0,0,1,19.86,3.95l5.35,9.1a3.56,3.56,0,0,0,4,1.64l10.22-2.66A13.55,13.55,0,0,1,442,39l1.46,10.46a3.54,3.54,0,0,0,3,3L457,54a13.55,13.55,0,0,1,11.25,16.83L465.58,81a3.56,3.56,0,0,0,1.64,4l9.1,5.35a13.55,13.55,0,0,1,3.95,19.86l-6.36,8.42a3.54,3.54,0,0,0,0,4.28l6.36,8.43a13.55,13.55,0,0,1-3.95,19.86l-9.1,5.34a3.56,3.56,0,0,0-1.64,4l2.66,10.22A13.56,13.56,0,0,1,457,187.53L446.53,189a3.56,3.56,0,0,0-3,3L442,202.47a13.55,13.55,0,0,1-16.83,11.25L415,211.06a3.59,3.59,0,0,0-4,1.64l-5.35,9.11a13.55,13.55,0,0,1-19.86,3.95l-8.42-6.37a3.57,3.57,0,0,0-4.28,0l-8.43,6.37A13.58,13.58,0,0,1,356.51,228.5Zm18.75-19.81a13.53,13.53,0,0,1,8.17,2.72l8.42,6.37a3.55,3.55,0,0,0,5.21-1l5.35-9.1a13.61,13.61,0,0,1,15.1-6.26L427.72,204a3.55,3.55,0,0,0,4.42-2.95l1.45-10.45a13.61,13.61,0,0,1,11.56-11.56l10.46-1.46a3.56,3.56,0,0,0,2.95-4.41L455.9,163a13.6,13.6,0,0,1,6.25-15.1l9.11-5.35a3.53,3.53,0,0,0,1-5.2l-6.36-8.43a13.59,13.59,0,0,1,0-16.34l6.37-8.42a3.58,3.58,0,0,0,.65-2.84,3.53,3.53,0,0,0-1.69-2.37l-9.11-5.35a13.6,13.6,0,0,1-6.25-15.1l2.66-10.21a3.57,3.57,0,0,0-2.95-4.42l-10.46-1.45a13.62,13.62,0,0,1-11.56-11.56l-1.45-10.46a3.5,3.5,0,0,0-1.55-2.46,3.55,3.55,0,0,0-2.87-.49L417.51,40.1a13.6,13.6,0,0,1-15.1-6.25l-5.35-9.11a3.54,3.54,0,0,0-5.21-1l-8.42,6.36h0a13.61,13.61,0,0,1-16.35,0l-8.42-6.37a3.55,3.55,0,0,0-2.83-.65,3.51,3.51,0,0,0-2.37,1.69l-5.35,9.11A13.6,13.6,0,0,1,333,40.1l-10.22-2.66a3.56,3.56,0,0,0-2.87.49,3.52,3.52,0,0,0-1.54,2.46l-1.46,10.46a13.61,13.61,0,0,1-11.55,11.56l-10.46,1.45a3.55,3.55,0,0,0-3,4.42l2.66,10.21a13.62,13.62,0,0,1-6.26,15.1l-9.1,5.35a3.55,3.55,0,0,0-1,5.21l6.37,8.42a13.64,13.64,0,0,1,0,16.35l-6.37,8.42a3.54,3.54,0,0,0,1,5.2l9.1,5.35a13.63,13.63,0,0,1,6.26,15.1L292,173.21a3.54,3.54,0,0,0,3,4.41l10.45,1.46a13.6,13.6,0,0,1,11.56,11.55l1.46,10.46a3.54,3.54,0,0,0,4.41,2.95L333,201.38a13.61,13.61,0,0,1,15.1,6.26l5.35,9.1a3.54,3.54,0,0,0,5.2,1l8.43-6.37A13.49,13.49,0,0,1,375.26,208.69Zm5.16-182.61Z"/><path class="cls-1" d="M350,141a29.76,29.76,0,0,1-13.81-3.54A40.42,40.42,0,0,1,316.75,92c2.52-8.61,8.06-15.13,15.6-18.34s16.09-2.7,24,1.46a39,39,0,0,1,17.48,19.44h0c7.67,18,1.53,37.93-13.69,44.42A26,26,0,0,1,350,141Zm-7.37-59.47a16,16,0,0,0-6.31,1.27c-4.74,2-8.26,6.26-9.92,12a30.45,30.45,0,0,0,14.42,33.85c5.25,2.74,10.75,3.14,15.49,1.12,10.15-4.32,13.92-18.37,8.41-31.3h0A29,29,0,0,0,351.76,84,19.85,19.85,0,0,0,342.58,81.57Z"/><path class="cls-1" d="M396,121.42c-12.58,0-25.35-8.82-31.37-23-7.67-18-1.53-37.93,13.68-44.42,7.55-3.21,16.09-2.7,24,1.46a39,39,0,0,1,17.48,19.44h0A39,39,0,0,1,421.78,101c-2.51,8.61-8,15.13-15.6,18.34A25.82,25.82,0,0,1,396,121.42ZM388.58,62a16,16,0,0,0-6.31,1.27c-10.14,4.32-13.91,18.36-8.4,31.3s18.25,19.94,28.39,15.62c4.74-2,8.27-6.26,9.92-12a28.94,28.94,0,0,0-1.51-19.35h0a29,29,0,0,0-12.91-14.5A19.85,19.85,0,0,0,388.58,62Z"/><path class="cls-1" d="M342,105.75a5,5,0,0,1-5-5v-3a5,5,0,0,1,10,0v3A5,5,0,0,1,342,105.75Z"/><path class="cls-1" d="M385.5,83.5a5,5,0,0,1-5-5v-3a5,5,0,0,1,10,0v3A5,5,0,0,1,385.5,83.5Z"/></g><g id="Outline"><path class="cls-1" d="M258.5,398.51a5,5,0,0,1-5-5V345.67a5,5,0,0,1,10,0v47.84A5,5,0,0,1,258.5,398.51Z"/><path class="cls-1" d="M222,398.51a5,5,0,0,1-5-5V345.67a5,5,0,0,1,10,0v47.84A5,5,0,0,1,222,398.51Z"/><path class="cls-1" d="M295,398.51a5,5,0,0,1-5-5V345.67a5,5,0,0,1,10,0v47.84A5,5,0,0,1,295,398.51Z"/><path class="cls-1" d="M185.5,398.51a5,5,0,0,1-5-5V345.67a5,5,0,0,1,10,0v47.84A5,5,0,0,1,185.5,398.51Z"/><path class="cls-1" d="M331.5,398.51a5,5,0,0,1-5-5V345.67a5,5,0,0,1,10,0v47.84A5,5,0,0,1,331.5,398.51Z"/><path class="cls-1" d="M132.46,191.88a65,65,0,0,1-16-2l-.55-.14c-33.08-8.38-53.57-40.66-45.81-72.06.42-3.14,3.81-24.41,21.08-44.87C99.86,62.5,104,52.39,103.12,43.54c-.6-6.17-3.61-11.46-8.93-15.71A5,5,0,0,1,100.42,20c7.41,5.91,11.79,13.71,12.66,22.54,1.14,11.6-3.79,24.28-14.26,36.69C82.56,98.51,80,119,80,119.16s-.07.45-.12.66C73.25,146,90.52,173,118.37,180l.55.14c27.84,7,55.89-8.49,62.51-34.64.06-.22.13-.43.21-.65s7.57-19.37,2.44-44C180.78,85,182.49,71.45,189,61.79c5-7.35,12.53-12.12,21.86-13.8a5,5,0,0,1,1.76,9.84c-6.7,1.21-11.86,4.42-15.33,9.56-5,7.37-6.16,18.23-3.42,31.41,5.44,26.22-1.7,46.54-2.83,49.5C184.25,174.54,159.7,191.88,132.46,191.88Z"/></g></svg>