<?xml version="1.0" ?><svg id="Lines" viewBox="0 0 512 512" xmlns="http://www.w3.org/2000/svg"><defs><style>.cls-1{fill:#3f456b;}</style></defs><title/><path class="cls-1" d="M256,162c-86,0-140.69-22.93-143-23.9a5,5,0,0,1,3.93-9.2h0c.54.23,55.2,23.1,139,23.1,70.9,0,121.64-15.06,138.56-23a5,5,0,0,1,4.27,9C396.76,139,347.08,162,256,162Z"/><path class="cls-1" d="M215.9,411.86a5.52,5.52,0,0,1-.81-.06l-69.7-11.41a5,5,0,1,1,1.62-9.87l64.34,10.53L231,158.81a5,5,0,0,1,10,.81L220.88,407.27a5,5,0,0,1-5,4.59Z"/><path class="cls-1" d="M145.13,405.44a5,5,0,0,1-1.38-.2l-67.6-19.36a5,5,0,1,1,2.76-9.62l62.38,17.88,48.24-240.42a5,5,0,0,1,9.81,2L150,401.42a5,5,0,0,1-4.9,4Z"/><path class="cls-1" d="M256,128c-64,0-128.77-18.88-129.41-19.07a5,5,0,1,1,2.82-9.59C130.05,99.53,193.5,118,256,118c77.17,0,125.71-18.54,126.19-18.73a5,5,0,0,1,3.62,9.32c-.51.2-12.87,5-35.13,9.76A454.72,454.72,0,0,1,256,128Z"/><path class="cls-1" d="M76.46,391.05a5,5,0,0,1-2.24-.53l-62.5-31.27a5,5,0,0,1-2.31-6.54L123.24,102.09a5,5,0,1,1,9.1,4.14L20.5,352.47l53,26.51L150,145.07a5,5,0,0,1,9.5,3.1L81.21,387.6a5,5,0,0,1-2.83,3.06A4.92,4.92,0,0,1,76.46,391.05Z"/><path class="cls-1" d="M297,411.86a5,5,0,0,1-3.08-1.06,5,5,0,0,1-1.9-3.53L272,159.62a5,5,0,1,1,10-.81l19.61,242.24,64.35-10.53a5,5,0,1,1,1.61,9.87l-69.7,11.41A5.52,5.52,0,0,1,297,411.86Z"/><path class="cls-1" d="M367.78,405.44a5,5,0,0,1-4.91-4L313.56,155.69a5,5,0,1,1,9.81-2l48.24,240.42L434,376.26a5,5,0,0,1,2.75,9.62l-67.6,19.36A4.94,4.94,0,0,1,367.78,405.44Z"/><path class="cls-1" d="M436.44,391.05a4.92,4.92,0,0,1-1.92-.39,5,5,0,0,1-2.83-3.06L353.41,148.17a5,5,0,0,1,9.5-3.1L439.39,379l53-26.51L380.56,106.23a5,5,0,0,1,9.11-4.14L503.5,352.71a5,5,0,0,1-2.32,6.54l-62.5,31.27A5,5,0,0,1,436.44,391.05Z"/><path class="cls-1" d="M296.12,401H216.78a5,5,0,0,1,0-10h79.34a5,5,0,0,1,0,10Z"/></svg>