<?xml version="1.0" encoding="iso-8859-1"?>
<!-- Generator: Adobe Illustrator 19.0.0, SVG Export Plug-In . SVG Version: 6.00 Build 0)  -->
<svg version="1.1" id="Capa_1" xmlns="http://www.w3.org/2000/svg" xmlns:xlink="http://www.w3.org/1999/xlink" x="0px" y="0px"
	 viewBox="0 0 512.029 512.029" style="enable-background:new 0 0 512.029 512.029;" xml:space="preserve">
<g>
	<g>
		<path d="M512.012,436.75l-21.333-384c-0.149-2.88-1.472-5.568-3.648-7.467c-2.176-1.899-5.035-2.944-7.893-2.581L316.534,56.249
			c-7.552-20.309-26.965-34.901-49.856-34.901c-26.005,0-47.659,18.752-52.331,43.435l-4.181,0.341L76.406,42.83
			c-5.739-1.088-11.243,2.901-12.245,8.661l-64,362.667c-0.491,2.795,0.149,5.675,1.792,8c1.643,2.325,4.139,3.904,6.955,4.373
			l95.744,15.957l2.048,38.101c0.171,2.923,1.515,5.653,3.755,7.552c1.941,1.643,4.373,2.539,6.891,2.539
			c0.405,0,0.789-0.021,1.173-0.064l164.907-18.325l109.483,18.24c0.597,0.107,1.195,0.149,1.771,0.149
			c5.099,0,9.6-3.648,10.475-8.811l4.16-23.552l93.227-10.368C508.172,447.332,512.332,442.404,512.012,436.75z M298.678,79.161
			v0.704l-2.837-0.469L298.678,79.161z M266.678,42.681c11.563,0,21.632,6.229,27.264,15.467l-56.939,4.757
			C241.697,51.086,253.196,42.681,266.678,42.681z M127.393,468.174l-1.195-22.101l79.979,13.333L127.393,468.174z M386.017,467.748
			l-362.965-60.48L83.34,65.614l215.339,35.883v79.851c0,17.643-14.357,32-32,32c-17.643,0-32-14.357-32-32v-42.667
			c0-5.888-4.779-10.667-10.667-10.667s-10.667,4.779-10.667,10.667v42.667c0,29.397,23.936,53.333,53.333,53.333
			s53.333-23.936,53.333-53.333V105.06l126.293,21.035L386.017,467.748z M413.174,436.409l55.979-317.205
			c0.491-2.795-0.149-5.675-1.792-8c-1.643-2.325-4.139-3.904-6.955-4.373L320.012,83.428V77.39l149.952-12.501l20.16,362.965
			L413.174,436.409z"/>
	</g>
</g>
<g>
</g>
<g>
</g>
<g>
</g>
<g>
</g>
<g>
</g>
<g>
</g>
<g>
</g>
<g>
</g>
<g>
</g>
<g>
</g>
<g>
</g>
<g>
</g>
<g>
</g>
<g>
</g>
<g>
</g>
</svg>
