<?xml version="1.0" ?><svg viewBox="0 0 512 512" xmlns="http://www.w3.org/2000/svg"><defs><style>.cls-1{fill:#3f456b;}</style></defs><title/><g id="Lines"><path class="cls-1" d="M443,209.06a5,5,0,0,1-2.28-9.45,94.79,94.79,0,0,0,13.6-160.15,94.76,94.76,0,0,0-132.67,19c-.48.63-.95,1.27-1.4,1.92a5,5,0,0,1-8.15-5.8c.51-.72,1-1.42,1.55-2.12a104.76,104.76,0,0,1,167.63,125.7,103.73,103.73,0,0,1-36,30.39A5,5,0,0,1,443,209.06Z"/><path class="cls-1" d="M477.47,179.92a5,5,0,0,1-3-1L314.78,59.16a5,5,0,0,1,6-8L480.47,170.92a5,5,0,0,1-3,9Z"/><path class="cls-1" d="M497.22,119.55a5,5,0,0,1-4.77-3.49c-4.78-15.09-14.77-26.52-28.12-32.2-10.32-4.38-22.06-4.1-34.48-3.8a178.31,178.31,0,0,1-19.07-.21,85.11,85.11,0,0,1-44.47-17.28c-19.7-14.78-13.8-35.38-11.52-41.35a5,5,0,0,1,9.34,3.57c-2.11,5.53-5.54,19.49,8.18,29.78a75.25,75.25,0,0,0,39.3,15.31,169.77,169.77,0,0,0,18,.19c12.94-.32,26.32-.64,38.63,4.59C484.32,81.5,496.31,95.13,502,113a5,5,0,0,1-3.26,6.28A5,5,0,0,1,497.22,119.55Z"/><path class="cls-1" d="M351.83,80.45l-8-6c26.4-35.19,56.34-45.19,76.8-47.38,22.3-2.39,38.24,3.65,38.91,3.9L456,40.31c-.15-.06-14.72-5.5-34.73-3.25C394.52,40.07,371.17,54.67,351.83,80.45Z"/><path class="cls-1" d="M369.36,188.46c-52.86,0-90.74-13-114.26-24.84-19.5-9.81-32.14-20.13-38.69-26.25-9.54,18-28.7,30.61-56,36.81a172.92,172.92,0,0,1-43.35,4,5,5,0,1,1,.55-10h0a166.29,166.29,0,0,0,40.8-3.87c27.47-6.29,44.87-18.9,51.71-37.47a5,5,0,0,1,8.51-1.49c.13.14,13.36,15.51,41.46,29.54,26,12.95,70.29,27.38,134.06,22.54a5,5,0,1,1,.76,10Q381.62,188.47,369.36,188.46Z"/><path class="cls-1" d="M257.26,501.78c-38.85,0-75.32-8.15-108.39-24.22a5,5,0,1,1,4.37-9c31.7,15.4,66.7,23.21,104,23.21a5,5,0,0,1,0,10Z"/><path class="cls-1" d="M85.8,348.62a5,5,0,0,1-3.21-8.84l50.31-42a5,5,0,0,1,6.41,7.68L89,347.46A5,5,0,0,1,85.8,348.62Z"/><path class="cls-1" d="M427.31,355.17a5,5,0,0,1-3.24-1.19l-54.45-46.16a5,5,0,1,1,6.47-7.63l54.45,46.16a5,5,0,0,1-3.23,8.82Z"/><path class="cls-1" d="M257.26,501.78a5,5,0,0,1,0-10c39.12,0,75.64-8.8,108.55-26.17a5,5,0,1,1,4.67,8.85C336.11,492.59,298,501.78,257.26,501.78Z"/><path class="cls-1" d="M307.66,361.52a5,5,0,0,1-1.9-9.63,135.16,135.16,0,0,0,83.9-125.17l-.09-43.24c0-74.57-60.57-135.23-135-135.23s-135,60.66-135,135.22v43.25a135.18,135.18,0,0,0,60.44,112.77,5,5,0,1,1-5.53,8.33,145.2,145.2,0,0,1-64.91-121.1V183.47c0-80.07,65.06-145.22,145-145.22s145,65.15,145,145.22l.09,43.24a145.2,145.2,0,0,1-90.1,134.44A5.1,5.1,0,0,1,307.66,361.52Z"/><path class="cls-1" d="M211.5,220h-20a5,5,0,0,1,0-10h20a5,5,0,0,1,0,10Z"/><path class="cls-1" d="M318.5,220h-20a5,5,0,0,1,0-10h20a5,5,0,0,1,0,10Z"/><path class="cls-1" d="M256,324.5c-40,0-51.78-18.43-52.26-19.22a5,5,0,0,1,8.49-5.28c.11.16,2.54,3.68,8.87,7.16,6.08,3.35,17.07,7.34,34.9,7.34s28.74-3.74,34.76-6.88c6.38-3.32,8.7-6.66,8.72-6.69a5,5,0,0,1,6.88-1.53,5,5,0,0,1,1.53,6.94C307.43,307.08,296,324.5,256,324.5Z"/><path class="cls-1" d="M330.91,384.81A5,5,0,0,1,326.8,377c11.05-16,15.46-34.55,17.21-47.31a5,5,0,0,1,9.91,1.36c-1.9,13.84-6.73,34-18.9,51.64A5,5,0,0,1,330.91,384.81Z"/><path class="cls-1" d="M164.66,348.62a5,5,0,0,1-4.85-3.76c-1-3.84-1.82-7.82-2.49-11.8a5,5,0,0,1,9.87-1.65c.62,3.71,1.4,7.4,2.31,11a5,5,0,0,1-3.6,6.09A5.32,5.32,0,0,1,164.66,348.62Z"/><path class="cls-1" d="M428.58,257.27H406.39a17,17,0,0,1-8.77-2.84c-3.75-2.5-8.23-7.68-8.23-18.16a5,5,0,0,1,10,0c0,10,5.43,10.94,7.09,11h21.91a1.25,1.25,0,0,1,.29,0,6.5,6.5,0,0,0,4.1-2c2.1-2.09,4.61-6.73,4.61-17v-39c0-10-6.93-10.95-9.05-11H407.39c-7.5,0-8,8.36-8,10a5,5,0,0,1-5,5h0a5,5,0,0,1-5-5c0-8,4.8-20,18-20h21a20.65,20.65,0,0,1,9.48,2.66c4.35,2.48,9.52,7.68,9.52,18.34v39c0,11.33-2.68,19.57-8,24.51A16.21,16.21,0,0,1,428.58,257.27Z"/><path class="cls-1" d="M100.39,257.26h-21c-13.2,0-18-12-18-20v-48c0-10.66,5.18-15.86,9.52-18.34a20.68,20.68,0,0,1,9.48-2.66h21c13.21,0,18,12,18,20a5,5,0,0,1-10,0c0-1.69-.5-10-8-10h-21c-2.07.05-9,1-9,11v48c0,1.65.5,10,8,10h21c2.07,0,9-1,9-11a5,5,0,0,1,10,0c0,10.67-5.17,15.86-9.52,18.34A20.51,20.51,0,0,1,100.39,257.26Z"/><path class="cls-1" d="M90.4,178.26h-.27A5,5,0,0,1,85.4,173c.08-1.61,2.32-39.89,24.66-78.73,13.19-22.94,30.67-41.22,52-54.36C188.53,23.56,221,15.26,258.39,15.26c36.33,0,67.58,8.22,92.88,24.44,20.32,13,36.8,31.14,49,53.87,20.62,38.44,21.76,76.31,21.8,77.91a5,5,0,1,1-10,.24c0-.37-1.18-37.38-20.78-73.74C379.88,76.85,364.55,60,345.7,48c-23.64-15.09-53-22.74-87.31-22.74-35.46,0-66,7.76-90.93,23.05-19.84,12.19-36.18,29.23-48.55,50.63-21.27,36.78-23.5,74.21-23.52,74.59A5,5,0,0,1,90.4,178.26Z"/><path class="cls-1" d="M424,484.5H378.5a15,15,0,0,1-15-15V361a15,15,0,0,1,15-15h83a15,15,0,0,1,15,15v55.17a5,5,0,1,1-10,0V361a5,5,0,0,0-5-5h-83a5,5,0,0,0-5,5V469.5a5,5,0,0,0,5,5H424a5,5,0,0,1,0,10Z"/><path class="cls-1" d="M455.75,498.63a46.93,46.93,0,0,1-6.12-.4,46.06,46.06,0,0,1-30.44-17.17,44.14,44.14,0,0,1-9.29-33.26c3.19-24.56,26.19-41.88,51.28-38.63a46.09,46.09,0,0,1,30.45,17.17,44.23,44.23,0,0,1-8.18,63.06A45.94,45.94,0,0,1,455.75,498.63Zm-35.93-49.54A34.24,34.24,0,0,0,427,474.86a36.61,36.61,0,0,0,50.42,6.54,34.22,34.22,0,0,0,6.33-48.87,36.14,36.14,0,0,0-23.88-13.44c-19.63-2.55-37.6,10.91-40.08,30Z"/><path class="cls-1" d="M455.75,498.63a46.93,46.93,0,0,1-6.12-.4,46.06,46.06,0,0,1-30.44-17.17,44.14,44.14,0,0,1-9.29-33.26c3.19-24.56,26.19-41.88,51.28-38.63a46.09,46.09,0,0,1,30.45,17.17,44.23,44.23,0,0,1-8.18,63.06A45.94,45.94,0,0,1,455.75,498.63Zm-35.93-49.54A34.24,34.24,0,0,0,427,474.86a36.61,36.61,0,0,0,50.42,6.54,34.22,34.22,0,0,0,6.33-48.87,36.14,36.14,0,0,0-23.88-13.44c-19.63-2.55-37.6,10.91-40.08,30Z"/><path class="cls-1" d="M448.5,356a4.9,4.9,0,0,1-2.69-.79,5,5,0,0,1-1.52-6.9c6.56-10.27,15.79-29.1,3.8-39.83-3.32-3-7.77-4.68-12.47-6.49-6.94-2.67-14.8-5.7-19.73-13.51-5.76-9.12-7-22-3.72-37.25a5,5,0,1,1,9.77,2.14c-1.92,8.8-3.06,21.11,2.4,29.77,3.17,5,8.59,7.1,14.87,9.52,5.34,2,10.86,4.18,15.54,8.37,13,11.61,12.25,30.31-2,52.66A5,5,0,0,1,448.5,356Z"/><path class="cls-1" d="M266.05,500.81a80.38,80.38,0,0,1-46.18-14.47l-1.45-1-.22-.17c-16.54-13-34.8-16.87-54.27-11.48a73.45,73.45,0,0,0-24.57,12.06L139,486l-2.31,1.57A80.83,80.83,0,1,1,92.45,339.17h173.6a80.82,80.82,0,1,1,0,161.64Zm-41.77-23.59,1.32.92a70.86,70.86,0,1,0,40.45-129H92.45a70.78,70.78,0,1,0,38.7,130.09l2.06-1.41a83.7,83.7,0,0,1,28-13.81C176.85,459.73,200.43,458.52,224.28,477.22Z"/><path class="cls-1" d="M103.61,466.75H85.18c-6.28,0-11-4.9-11-11.39V436.92H54.89a11,11,0,0,1-11.27-11.19V407.3a11.35,11.35,0,0,1,11.27-11.66H74.17V377c0-6.68,4.83-11.92,11-11.92h18.43A12,12,0,0,1,115.45,377v18.63h17.79a11.37,11.37,0,0,1,11.31,11.66v18.43a11,11,0,0,1-11.31,11.19H115.45v18.44A11.63,11.63,0,0,1,103.61,466.75ZM54.89,405.64c-.93,0-1.27,1-1.27,1.66v18.43c0,.62.15,1.19,1.27,1.19H79.17a5,5,0,0,1,5,5v23.44c0,1.39.68,1.39,1,1.39h18.43c1,0,1.84-.66,1.84-1.39V431.92a5,5,0,0,1,5-5h22.79c1.31,0,1.31-.83,1.31-1.19V407.3c0-.82-.45-1.66-1.31-1.66H110.45a5,5,0,0,1-5-5V377a2.13,2.13,0,0,0-1.84-1.92H85.18c-.58,0-1,1-1,1.92v23.63a5,5,0,0,1-5,5Z"/><path class="cls-1" d="M266.33,403.93a21.69,21.69,0,1,1,15.35-6.34l-3.54-3.54,3.54,3.54A21.65,21.65,0,0,1,266.33,403.93Zm0-33.39a11.7,11.7,0,0,0-8.27,20A11.7,11.7,0,1,0,274.6,374,11.57,11.57,0,0,0,266.33,370.54Z"/><path class="cls-1" d="M266.33,477.32A21.71,21.71,0,1,1,281.68,471h0A21.57,21.57,0,0,1,266.33,477.32Zm0-33.41a11.71,11.71,0,1,0,8.27,20h0a11.71,11.71,0,0,0-8.27-20Z"/><path class="cls-1" d="M228.86,440.62a21.7,21.7,0,1,1,15.35-6.35l-3.54-3.53,3.54,3.53A21.65,21.65,0,0,1,228.86,440.62Zm0-33.39a11.7,11.7,0,1,0,8.28,3.42A11.62,11.62,0,0,0,228.86,407.23Z"/><path class="cls-1" d="M303.8,440.63a21.71,21.71,0,1,1,15.34-6.36l-3.53-3.53,3.53,3.53A21.53,21.53,0,0,1,303.8,440.63Zm0-33.4a11.7,11.7,0,1,0,8.27,3.42A11.62,11.62,0,0,0,303.8,407.23Z"/><path class="cls-1" d="M169.83,437.33a5,5,0,0,1-5-5v-1a5,5,0,0,1,10,0v1A5,5,0,0,1,169.83,437.33Z"/><path class="cls-1" d="M193,437.33a5,5,0,0,1-5-5v-1a5,5,0,1,1,10,0v1A5,5,0,0,1,193,437.33Z"/><path class="cls-1" d="M82,53.33A5.1,5.1,0,0,1,80.19,53l-.93-.37a5,5,0,1,1,3.65-9.31l.93.37A5,5,0,0,1,82,53.33Z"/><path class="cls-1" d="M62,45.33A5.1,5.1,0,0,1,60.19,45l-.93-.37a5,5,0,1,1,3.65-9.31l.93.37A5,5,0,0,1,62,45.33Z"/><path class="cls-1" d="M122.87,140.59a5,5,0,0,1-3.54-1.46L75.63,95.42a5,5,0,0,1,0-7.07l26.78-26.78a5,5,0,0,1,7.07,0L145,97.12a5,5,0,0,1-7.07,7.07l-32-32L86.23,91.89l40.17,40.17a5,5,0,0,1-3.53,8.53Z"/><path class="cls-1" d="M472.45,403.94a5,5,0,0,1-3.93-8.09c24.41-31.06,32.84-62,25.05-92-6.12-23.59-20.65-40.3-28.76-48.17A113.6,113.6,0,0,0,441,238.47a5,5,0,0,1,4.84-8.75,123.87,123.87,0,0,1,25.92,18.79c16.68,16.17,66.3,75,4.61,153.52A5,5,0,0,1,472.45,403.94Z"/><path class="cls-1" d="M71.85,98.89A23.9,23.9,0,0,1,58,94.75C49.27,88.74,47,78.2,46.62,76L41,56a4.19,4.19,0,0,0-1.12-1.4c-.5-.31-1.37-.24-3.09,0a22.78,22.78,0,0,1-3.94.26,22.35,22.35,0,0,1-12-4.39C13,44.78,8.94,34.4,11.3,26.34S18,12.92,24.25,10.1c10.84-4.88,23.27.47,24.72,1.13L96.48,31.11C102.67,33,113.56,39.74,112.54,53l-1.21,12.75a5,5,0,0,1-10-1l1.19-12.65c.67-8.71-8.7-11.42-9.1-11.53a4.1,4.1,0,0,1-.59-.2L45,20.42l-.2-.09c-.08,0-9.46-4.3-16.51-1.09-3.5,1.59-5.93,4.83-7.42,9.91-1.18,4,1.5,10.09,5.84,13.27a12.4,12.4,0,0,0,6.5,2.46,14.09,14.09,0,0,0,2.24-.18c2.56-.33,6.07-.78,9.65,1.45A14.43,14.43,0,0,1,50,51.65a4.73,4.73,0,0,1,.44,1.07l5.91,20.81a5.32,5.32,0,0,1,.14.67c0,.06,1.31,8.3,7.24,12.36,3.48,2.38,8.11,2.93,13.77,1.65A5,5,0,1,1,79.68,98,35.5,35.5,0,0,1,71.85,98.89Z"/></g><g id="Outline"><path class="cls-1" d="M446.75,389H392.92a5,5,0,0,1,0-10h53.83a5,5,0,0,1,0,10Z"/><path class="cls-1" d="M176.84,244.5h-.68a5,5,0,1,1,0-10h.68a5,5,0,1,1,0,10Z"/><path class="cls-1" d="M166.77,264.59h-.67a5,5,0,0,1,0-10h.67a5,5,0,1,1,0,10Z"/><path class="cls-1" d="M156,244.5h-.68a5,5,0,0,1,0-10H156a5,5,0,1,1,0,10Z"/><path class="cls-1" d="M356.2,244.5h-.67a5,5,0,0,1,0-10h.67a5,5,0,1,1,0,10Z"/><path class="cls-1" d="M346.14,264.59h-.68a5,5,0,0,1,0-10h.68a5,5,0,1,1,0,10Z"/><path class="cls-1" d="M335.34,244.5h-.67a5,5,0,0,1,0-10h.67a5,5,0,0,1,0,10Z"/><path class="cls-1" d="M212.83,367.67a5,5,0,0,1,5-5h0a5,5,0,0,1,5,5h0a5,5,0,0,1-5,5h0A5,5,0,0,1,212.83,367.67Zm-20,0a5,5,0,0,1,5-5h0a5,5,0,0,1,5,5h0a5,5,0,0,1-5,5h0A5,5,0,0,1,192.83,367.67Zm-20,0a5,5,0,0,1,5-5h0a5,5,0,0,1,5,5h0a5,5,0,0,1-5,5h0A5,5,0,0,1,172.83,367.67Zm-20,0a5,5,0,0,1,5-5h0a5,5,0,0,1,5,5h0a5,5,0,0,1-5,5h0A5,5,0,0,1,152.83,367.67Zm-20,0a5,5,0,0,1,5-5h0a5,5,0,0,1,5,5h0a5,5,0,0,1-5,5h0A5,5,0,0,1,132.83,367.67Z"/></g></svg>