<?xml version="1.0" ?><svg viewBox="0 0 512 512" xmlns="http://www.w3.org/2000/svg"><defs><style>.cls-1{fill:#3f456b;}</style></defs><title/><g id="Lines"><path class="cls-1" d="M81.83,176.84a5,5,0,0,1-5-4.57c-.22-2.59-5-64,38.11-111,31-33.84,78.61-51,141.37-51a5,5,0,1,1,0,10c-59.79,0-104.85,16-133.93,47.67C82.28,111.63,86.76,170.83,86.81,171.42a5,5,0,0,1-4.55,5.4A3.17,3.17,0,0,1,81.83,176.84Z"/><path class="cls-1" d="M77.66,404.66a4.93,4.93,0,0,1-2.62-.75c-16-9.87-42.71-26.38-42.71-70.64,0-37.55,27.55-55.91,36.32-60.8l8.59-80.29a5,5,0,1,1,9.94,1.07L78.3,276.19a5,5,0,0,1-2.87,4c-1.34.63-33.1,15.88-33.1,53.07,0,38.68,22.85,52.8,38,62.13a5,5,0,0,1-2.63,9.26Z"/><path class="cls-1" d="M141,283.39a22.13,22.13,0,0,1-20.79-13.86c-17.75-34.66-16-77.86-15.9-79.69a5,5,0,0,1,10,.46h0c0,.42-1.71,42.64,15,74.93a5.24,5.24,0,0,1,.27.65c.31.82,3.42,8.41,13.27,7.41,14.5-1.49,43.24-9.82,63-26.66,22.38-19.06,34.18-24.87,50.49-24.87a5,5,0,0,1,0,10c-13.65,0-23.52,5.05-44,22.49-23.19,19.75-54.93,27.6-68.48,29A27.17,27.17,0,0,1,141,283.39Z"/><path class="cls-1" d="M61.28,393.22a5,5,0,0,1-4.49-2.8c-12.43-25.41-13.66-48.25-3.66-67.9,7.94-15.59,20.75-24.35,25.57-27.65l.1-.06c6.79-4.65,7.53-16.54,7.54-16.66s0-.19,0-.29l9.33-88.32a5,5,0,0,1,10,1.06l-9.32,88.19c-.12,1.89-1.38,17.08-11.88,24.27l-.09.06C80.1,306,68.83,313.74,62,327.06c-8.5,16.69-7.24,36.53,3.73,59a5,5,0,0,1-4.49,7.2Z"/><path class="cls-1" d="M113.31,316.44a5,5,0,0,1-4.45-7.28l18.29-35.69a5,5,0,1,1,8.9,4.56l-18.29,35.69A5,5,0,0,1,113.31,316.44Z"/><path class="cls-1" d="M152.4,370.64a5,5,0,0,1-4-2c-1.55-2.09-38-51.29-48.63-68.52-11.32-18.3-10.92-44.56-10.89-45.67a5,5,0,0,1,5-4.9H94a5,5,0,0,1,4.89,5.09h0c0,.25-.34,24.46,9.4,40.22,10.44,16.87,47.79,67.32,48.16,67.83a5,5,0,0,1-4,8Z"/><path class="cls-1" d="M73.33,280.75h-15a14.9,14.9,0,0,1-15-14.76V218.47a14.9,14.9,0,0,1,15-14.77H80.5a5,5,0,0,1,0,10H58.33a4.9,4.9,0,0,0-5,4.77V266a4.89,4.89,0,0,0,5,4.76h15a5,5,0,0,1,0,10Z"/><path class="cls-1" d="M366.67,500.5H318.33a4.44,4.44,0,0,1-.63,0c-.78-.1-13.82-1.89-21.56-9.87a20.2,20.2,0,0,1-2.22,2.66c-3.84,3.84-8.92,5.79-15.13,5.79H233.21c-6.21,0-11.29-2-15.13-5.79a20.2,20.2,0,0,1-2.22-2.66c-7.74,8-20.78,9.77-21.56,9.87a4.44,4.44,0,0,1-.63,0H145.33c-20.29,0-36.72-6.24-48.83-18.56C74.68,459.75,75,426.06,75,424.63V409.09c0-21.67,10.32-34.53,29.05-36.22,9.83-.88,19.09-2.34,20.34-2.53,37.65-8.48,73.59-37.9,90.88-52,2.18-1.79,4.07-3.34,5.63-4.57,13.93-11,31.38-11,35.1-10.86,3.72-.14,21.17-.15,35.1,10.86,1.56,1.23,3.45,2.78,5.63,4.57,17.29,14.15,53.23,43.57,90.88,52,1.25.19,10.51,1.65,20.34,2.53,18.73,1.69,29.05,14.55,29.05,36.22v15.63c0,1.34.32,35-21.5,57.22C403.39,494.26,387,500.5,366.67,500.5Zm-48-10h48c17.51,0,31.54-5.24,41.7-15.57C427.29,455.7,427,425.1,427,424.8V409.09c0-16.69-6.34-25-19.95-26.26-10.88-1-20.77-2.58-21.19-2.65l-.28-.05c-40-8.95-77.28-39.45-95.18-54.11-2.14-1.74-4-3.25-5.5-4.45-10.58-8.36-24.12-8.79-27.88-8.73a4.93,4.93,0,0,1-1,0,5.33,5.33,0,0,1-1,0c-3.7,0-17.39.4-27.92,8.73-1.52,1.2-3.36,2.71-5.5,4.45-17.9,14.66-55.15,45.16-95.18,54.11l-.28.05c-.42.07-10.31,1.67-21.19,2.65-13.61,1.23-20,9.57-20,26.26v15.63c0,.38-.21,31.11,18.67,50.25,10.16,10.31,24.18,15.53,41.66,15.53h48c2.27-.36,18.18-3.3,18.2-13.86v0a5,5,0,0,1,5-5h0a5,5,0,0,1,5,5v0h0c0,2,.68,12.4,11.71,12.4h45.58c11,0,11.69-10.35,11.71-12.43a5,5,0,0,1,5-5h0a5,5,0,0,1,5,5v0C300.52,487.19,316.4,490.13,318.7,490.5Z"/><path class="cls-1" d="M440.67,198.84a5.24,5.24,0,0,1-.88-.08c-52.07-9.23-138-18.82-251.71-12.15-68.09,4-114.42,12.07-114.88,12.15a5,5,0,0,1-5.87-4.92v-20a5,5,0,0,1,4.13-4.93c.47-.08,47.25-8.23,115.87-12.27,63.34-3.73,158.85-4.62,254.21,12.27a5,5,0,0,1,4.13,4.93v20a5,5,0,0,1-5,5ZM77.33,178V188c14.61-2.29,55.39-8.1,110-11.32,62-3.65,154.94-4.59,248.34,11.26V178c-52.43-9-136.84-17.93-247.59-11.42C131.62,169.89,90.13,176,77.33,178Z"/><path class="cls-1" d="M153,370.84a5,5,0,0,1-2.1-9.54l64.67-29.94.29-.13c.83-.32,20.44-7.82,40.47-7.82a5,5,0,0,1,0,10c-17.3,0-35,6.45-36.73,7.1l-64.5,29.86A4.9,4.9,0,0,1,153,370.84Z"/><path class="cls-1" d="M148,254.69a15.42,15.42,0,0,1-14.36-10.42,157.08,157.08,0,0,1-7.08-27.73h0A16.54,16.54,0,0,1,129.62,204a15.15,15.15,0,0,1,10.34-6c30.6-3.58,55.31-4.73,70.66-5.06a15.14,15.14,0,0,1,14.42,9.7,16.27,16.27,0,0,1-3.67,18.12c-23,22-54.13,30.58-70.63,33.73A14.33,14.33,0,0,1,148,254.69Zm63-51.81h-.12c-15.13.33-39.5,1.46-69.7,5a5.15,5.15,0,0,0-3.53,2.1,6.48,6.48,0,0,0-1.19,5h0A146.85,146.85,0,0,0,143,240.88a5.34,5.34,0,0,0,5.84,3.73c12.4-2.37,43.63-10.16,65.59-31.14a6.28,6.28,0,0,0,1.34-7.06A5.37,5.37,0,0,0,211,202.88Z"/><path class="cls-1" d="M364,254.69a14.33,14.33,0,0,1-2.76-.26c-16.5-3.15-47.61-11.73-70.63-33.73A16.27,16.27,0,0,1,287,202.58a15.16,15.16,0,0,1,14.42-9.7c15.35.33,40.06,1.48,70.66,5.06a15.15,15.15,0,0,1,10.34,6,16.54,16.54,0,0,1,3.08,12.59,157.08,157.08,0,0,1-7.08,27.73A15.42,15.42,0,0,1,364,254.69Zm-63-51.81a5.37,5.37,0,0,0-4.85,3.53,6.28,6.28,0,0,0,1.34,7.06c22,21,53.19,28.77,65.6,31.14a5.34,5.34,0,0,0,5.83-3.73,146.85,146.85,0,0,0,6.62-25.94h0a6.48,6.48,0,0,0-1.19-5,5.15,5.15,0,0,0-3.53-2.1c-30.2-3.54-54.57-4.67-69.7-5Z"/><path class="cls-1" d="M430.17,176.85l-.43,0a5,5,0,0,1-4.55-5.41h0c.05-.59,4.53-59.79-35.59-103.44-29.08-31.63-74.14-47.67-133.93-47.67a5,5,0,0,1,0-10c62.76,0,110.33,17.16,141.37,51,43.09,47,38.33,108.37,38.11,111A5,5,0,0,1,430.17,176.85Z"/><path class="cls-1" d="M434.34,404.66a5,5,0,0,1-2.63-9.26c15.11-9.33,38-23.45,38-62.13,0-37.38-32.77-52.91-33.1-53.07a5,5,0,0,1-2.87-4l-8.88-82.94a5,5,0,1,1,9.94-1.07l8.59,80.29c8.77,4.89,36.32,23.25,36.32,60.8,0,44.26-26.74,60.77-42.71,70.64A4.93,4.93,0,0,1,434.34,404.66Z"/><path class="cls-1" d="M371,283.39a27.17,27.17,0,0,1-2.81-.15c-13.55-1.39-45.29-9.24-68.48-29-20.49-17.44-30.36-22.49-44-22.49a5,5,0,1,1,0-10c16.31,0,28.11,5.81,50.49,24.87,19.78,16.84,48.52,25.17,63,26.66,9.84,1,13-6.59,13.28-7.46a6.39,6.39,0,0,1,.26-.6c16.7-32.36,15-74.51,14.95-74.93a5,5,0,0,1,10-.46c.09,1.83,1.85,45-15.9,79.69A22.13,22.13,0,0,1,371,283.39Z"/><path class="cls-1" d="M450.72,393.22a5,5,0,0,1-4.49-7.2c11-22.43,12.23-42.27,3.73-59-6.79-13.32-18.06-21-22.31-23.94l-.09-.06c-10.5-7.19-11.76-22.38-11.88-24.27l-9.32-88.19a5,5,0,0,1,9.95-1.06l9.33,88.32c0,.1,0,.2,0,.29.18,3.31,1.87,12.77,7.54,16.66l.1.06c4.82,3.3,17.63,12.06,25.57,27.65,10,19.65,8.77,42.49-3.66,67.9A5,5,0,0,1,450.72,393.22Z"/><path class="cls-1" d="M398.69,316.44a5,5,0,0,1-4.45-2.72L376,278a5,5,0,0,1,8.9-4.56l18.29,35.69a5,5,0,0,1-4.45,7.28Z"/><path class="cls-1" d="M359.46,370.84a4.91,4.91,0,0,1-3-1,5,5,0,0,1-1-7c.37-.51,37.86-51.15,48.3-68,9.74-15.76,9.4-40,9.4-40.22a5,5,0,1,1,10-.19c0,1.11.43,27.37-10.89,45.67-10.65,17.23-47.22,66.62-48.77,68.71A5,5,0,0,1,359.46,370.84Z"/><path class="cls-1" d="M453.67,280.75h-15a5,5,0,0,1,0-10h15a4.89,4.89,0,0,0,5-4.76V218.47a4.9,4.9,0,0,0-5-4.77H431.5a5,5,0,0,1,0-10h22.17a14.9,14.9,0,0,1,15,14.77V266A14.9,14.9,0,0,1,453.67,280.75Z"/><path class="cls-1" d="M360.33,500.5h0a5,5,0,0,1,0-10h0c2,0,19.67-.89,19.67-25.75,0-6.91-2-12.16-6.15-16.07-8.92-8.41-24.72-7.59-24.88-7.58H327.9c-3.28.26-25.6,1-37.53-28.51a.5.5,0,0,1-.05-.13c-.15-.37-4.3-10.34-18.65-10.34H240.33c-14.61,0-18.61,10.24-18.65,10.34a.5.5,0,0,1-.05.13c-11.93,29.47-34.25,28.78-37.53,28.51H163c-.15,0-16-.83-24.87,7.58-4.14,3.91-6.15,9.16-6.15,16.07,0,8.95,2.25,15.72,6.69,20.13a20.41,20.41,0,0,0,12.94,5.62h0a5,5,0,1,1,.07,10A30.53,30.53,0,0,1,131.64,492c-6.4-6.35-9.64-15.51-9.64-27.22,0-9.7,3.14-17.57,9.34-23.39,11.63-10.93,30-10.36,32.13-10.25h20.86a6.08,6.08,0,0,1,.61,0c.68.08,17.76,1.54,27.42-22.27.6-1.53,7.14-16.74,28-16.74h31.34c20.83,0,27.37,15.21,28,16.74,9.66,23.81,26.75,22.34,27.47,22.27a5.25,5.25,0,0,1,.56,0h20.86c2.13-.11,20.49-.68,32.13,10.25,6.2,5.82,9.34,13.69,9.34,23.39,0,11.71-3.24,20.87-9.64,27.22A30.44,30.44,0,0,1,360.33,500.5Z"/><path class="cls-1" d="M359,370.84a4.9,4.9,0,0,1-2.1-.47l-64.5-29.86c-1.71-.64-19.42-7.1-36.73-7.1a5,5,0,0,1,0-10c20,0,39.64,7.5,40.47,7.82l.29.13L361.1,361.3a5,5,0,0,1-2.1,9.54Z"/><path class="cls-1" d="M295.67,481.62a5,5,0,0,1-5-5v-27.5c0-2.48-.64-4.27-1.95-5.47-2.46-2.25-7-2.38-8.58-2.24l-.47,0H231.33c-3.41,0-5.94.85-7.52,2.52-2.55,2.72-2.32,7.06-2.32,7.11s0,.24,0,.34v25.22a5,5,0,0,1-10,0V451.56c-.08-1.59-.17-8.85,4.93-14.35,3.54-3.84,8.56-5.78,14.9-5.78h48.12c1.86-.14,10.16-.46,15.95,4.78,2.4,2.17,5.27,6.17,5.27,12.91v27.5A5,5,0,0,1,295.67,481.62Z"/><path class="cls-1" d="M170,486.23a20,20,0,1,1,20-20A20,20,0,0,1,170,486.23Zm0-30a10,10,0,1,0,10,10A10,10,0,0,0,170,456.23Z"/><path class="cls-1" d="M341.67,486.23a20,20,0,1,1,20-20A20,20,0,0,1,341.67,486.23Zm0-30a10,10,0,1,0,10,10A10,10,0,0,0,341.67,456.23Z"/></g><g id="Outline"><path class="cls-1" d="M236.83,499a5,5,0,0,1-5-5V436.43a5,5,0,0,1,10,0V494A5,5,0,0,1,236.83,499Z"/><path class="cls-1" d="M276.17,499a5,5,0,0,1-5-5V436.43a5,5,0,0,1,10,0V494A5,5,0,0,1,276.17,499Z"/><path class="cls-1" d="M256.07,499a5,5,0,0,1-5-5V436.43a5,5,0,0,1,10,0V494A5,5,0,0,1,256.07,499Z"/><path class="cls-1" d="M79.44,328.57a5,5,0,0,1-2.93-9.05l14.67-10.58A5,5,0,1,1,97,317.05L82.36,327.63A5,5,0,0,1,79.44,328.57Z"/><path class="cls-1" d="M89,341.88A5,5,0,0,1,86,332.83l14.67-10.58a5,5,0,1,1,5.84,8.11L91.88,340.94A5,5,0,0,1,89,341.88Z"/><path class="cls-1" d="M98.25,355.21a5,5,0,0,1-2.93-9.06L110,335.58a5,5,0,1,1,5.85,8.11l-14.67,10.57A5,5,0,0,1,98.25,355.21Z"/><path class="cls-1" d="M107.23,368.55a5,5,0,0,1-2.93-9.05L119,348.92a5,5,0,1,1,5.85,8.11l-14.67,10.58A5,5,0,0,1,107.23,368.55Z"/><path class="cls-1" d="M434.92,328.57a4.93,4.93,0,0,1-2.92-.94l-14.67-10.58a5,5,0,0,1,5.85-8.11l14.67,10.58a5,5,0,0,1-2.93,9.05Z"/><path class="cls-1" d="M425.4,341.88a5,5,0,0,1-2.92-.94l-14.67-10.58a5,5,0,0,1,5.85-8.11l14.67,10.58a5,5,0,0,1-2.93,9.05Z"/><path class="cls-1" d="M416.11,355.21a4.94,4.94,0,0,1-2.92-.95l-14.67-10.57a5,5,0,0,1,5.85-8.11L419,346.15a5,5,0,0,1-2.93,9.06Z"/><path class="cls-1" d="M407.12,368.55a5,5,0,0,1-2.91-.94L389.54,357a5,5,0,1,1,5.84-8.11l14.67,10.58a5,5,0,0,1-2.93,9.05Z"/></g></svg>