<?xml version="1.0" ?><svg viewBox="0 0 512 512" xmlns="http://www.w3.org/2000/svg"><defs><style>.cls-1{fill:#3f456b;}</style></defs><title/><g id="Lines"><path class="cls-1" d="M486.5,453H432.6a5,5,0,0,1,0-10h53.9a5,5,0,0,0,5-5V142.44c0-12.38-5.23-74.16-108.5-74.16H128c-101.37,0-106.5,62.47-106.5,75V438a5,5,0,0,0,5,5H79.62a5,5,0,0,1,0,10H26.5a15,15,0,0,1-15-15V143.28a78.67,78.67,0,0,1,14.88-45c19.16-26.55,53.35-40,101.62-40H383c49.08,0,83.84,13.3,103.33,39.54a76.52,76.52,0,0,1,15.17,44.62V438A15,15,0,0,1,486.5,453Z"/><path class="cls-1" d="M421.83,364.47a5,5,0,0,1-5-5V271.81a5,5,0,0,1,10,0v87.66A5,5,0,0,1,421.83,364.47Z"/><path class="cls-1" d="M496.5,419.05H456.34a15,15,0,0,1-15-15v-13a15,15,0,0,1,15-15H496.5a5,5,0,0,1,0,10H456.34a5,5,0,0,0-5,5v13a5,5,0,0,0,5,5H496.5a5,5,0,0,1,0,10Z"/><path class="cls-1" d="M464.47,305a14.52,14.52,0,0,1-14.5-14.5v-63a14.5,14.5,0,0,1,29,0v63A14.52,14.52,0,0,1,464.47,305Zm0-82a4.49,4.49,0,0,0-4.5,4.5v63a4.5,4.5,0,0,0,9,0v-63A4.5,4.5,0,0,0,464.47,223Z"/><path class="cls-1" d="M119.63,484.72a45.11,45.11,0,1,1,45.12-45.11A45.17,45.17,0,0,1,119.63,484.72Zm0-80.22a35.11,35.11,0,1,0,35.12,35.11A35.15,35.15,0,0,0,119.63,404.5Z"/><path class="cls-1" d="M119.63,457.2a17.59,17.59,0,1,1,17.59-17.59A17.61,17.61,0,0,1,119.63,457.2Zm0-25.18a7.59,7.59,0,1,0,7.59,7.59A7.61,7.61,0,0,0,119.63,432Z"/><path class="cls-1" d="M393.37,484.72a45.11,45.11,0,1,1,45.11-45.11A45.17,45.17,0,0,1,393.37,484.72Zm0-80.22a35.11,35.11,0,1,0,35.11,35.11A35.15,35.15,0,0,0,393.37,404.5Z"/><path class="cls-1" d="M393.37,457.2A17.59,17.59,0,1,1,411,439.61,17.61,17.61,0,0,1,393.37,457.2Zm0-25.18a7.59,7.59,0,1,0,7.59,7.59A7.6,7.6,0,0,0,393.37,432Z"/><path class="cls-1" d="M354.13,453H159.62a5,5,0,0,1,0-10H354.13a5,5,0,0,1,0,10Z"/><path class="cls-1" d="M496.5,238.76H474.33a5,5,0,1,1,0-10H496.5a5,5,0,0,1,0,10Z"/><path class="cls-1" d="M496.5,197H57.55c-7.84,0-14.22-6.73-14.22-15v-28.5c0-22.08,10.69-38.43,30.91-47.29,14.57-6.38,29.49-6.88,33.72-6.88H483a5,5,0,0,1,0,10H108c-2.66,0-16.59.29-29.71,6-16.53,7.24-24.92,20.07-24.92,38.13V182c0,2.71,1.94,5,4.22,5h439a5,5,0,0,1,0,10Z"/><path class="cls-1" d="M421.83,197a5,5,0,0,1-5-5V104.31a5,5,0,0,1,10,0V192A5,5,0,0,1,421.83,197Z"/><path class="cls-1" d="M347.17,197a5,5,0,0,1-5-5V104.31a5,5,0,0,1,10,0V192A5,5,0,0,1,347.17,197Z"/><path class="cls-1" d="M272.5,197a5,5,0,0,1-5-5V104.31a5,5,0,0,1,10,0V192A5,5,0,0,1,272.5,197Z"/><path class="cls-1" d="M197.83,197a5,5,0,0,1-5-5V104.31a5,5,0,1,1,10,0V192A5,5,0,0,1,197.83,197Z"/><path class="cls-1" d="M123.17,197a5,5,0,0,1-5-5V104.31a5,5,0,1,1,10,0V192A5,5,0,0,1,123.17,197Z"/><path class="cls-1" d="M197.83,364.47a5,5,0,0,1-5-5V271.81a5,5,0,0,1,10,0v87.66A5,5,0,0,1,197.83,364.47Z"/><path class="cls-1" d="M123.17,364.47a5,5,0,0,1-5-5V271.81a5,5,0,1,1,10,0v87.66A5,5,0,0,1,123.17,364.47Z"/><path class="cls-1" d="M337.17,416.48H282.5a15,15,0,0,1-15-15V271.81a5,5,0,1,1,10,0V401.48a5,5,0,0,0,5,5h54.67a5,5,0,0,0,5-5V271.81a5,5,0,0,1,10,0V401.48A15,15,0,0,1,337.17,416.48Z"/><path class="cls-1" d="M495.67,276.81H474.54a5,5,0,0,1,0-10h21.13a5,5,0,0,1,0,10Z"/><path class="cls-1" d="M272,364.47H62c-9.36,0-17-6.73-17-15V281.81c0-8.28,7.61-15,17-15H454.25a5,5,0,0,1,0,10H62c-3.71,0-7,2.33-7,5v67.66c0,2.66,3.26,5,7,5H272a5,5,0,0,1,0,10Z"/><path class="cls-1" d="M495.67,364.47H347.17a5,5,0,0,1,0-10h148.5a5,5,0,1,1,0,10Z"/><path class="cls-1" d="M347.17,254h-224a5,5,0,0,1-5-5v-34.5a5,5,0,0,1,5-5h224a5,5,0,0,1,5,5V249A5,5,0,0,1,347.17,254Zm-219-10h214v-24.5h-214Z"/></g><g id="Outline"><path class="cls-1" d="M309.81,231.89a5,5,0,0,1,5-5h0a5,5,0,0,1,5,5h0a5,5,0,0,1-5,5h0A5,5,0,0,1,309.81,231.89Zm-20,0a5,5,0,0,1,5-5h0a5,5,0,0,1,5,5h0a5,5,0,0,1-5,5h0A5,5,0,0,1,289.82,231.89Zm-20,0a5,5,0,0,1,5-5h0a5,5,0,0,1,5,5h0a5,5,0,0,1-5,5h0A5,5,0,0,1,269.81,231.89Zm-20,0a5,5,0,0,1,5-5h0a5,5,0,0,1,5,5h0a5,5,0,0,1-5,5h0A5,5,0,0,1,249.81,231.89Zm-20,0a5,5,0,0,1,5-5h0a5,5,0,0,1,5,5h0a5,5,0,0,1-5,5h0A5,5,0,0,1,229.81,231.89Zm-20,0a5,5,0,0,1,5-5h0a5,5,0,0,1,5,5h0a5,5,0,0,1-5,5h0A5,5,0,0,1,209.81,231.89Zm-20,0a5,5,0,0,1,5-5h0a5,5,0,0,1,5,5h0a5,5,0,0,1-5,5h0A5,5,0,0,1,189.81,231.89Zm-20,0a5,5,0,0,1,5-5h0a5,5,0,0,1,5,5h0a5,5,0,0,1-5,5h0A5,5,0,0,1,169.81,231.89Zm-20,0a5,5,0,0,1,5-5h0a5,5,0,0,1,5,5h0a5,5,0,0,1-5,5h0A5,5,0,0,1,149.82,231.89Z"/><path class="cls-1" d="M224.42,453a5,5,0,0,1-5-5V410.26a5,5,0,0,1,10,0V448A5,5,0,0,1,224.42,453Z"/><path class="cls-1" d="M247,453a5,5,0,0,1-5-5V410.26a5,5,0,0,1,10,0V448A5,5,0,0,1,247,453Z"/><path class="cls-1" d="M201.84,453a5,5,0,0,1-5-5V410.26a5,5,0,0,1,10,0V448A5,5,0,0,1,201.84,453Z"/><path class="cls-1" d="M179.27,453a5,5,0,0,1-5-5V410.26a5,5,0,0,1,10,0V448A5,5,0,0,1,179.27,453Z"/></g></svg>