<?xml version="1.0" ?><svg viewBox="0 0 512 512" xmlns="http://www.w3.org/2000/svg"><defs><style>.cls-1{fill:#3f456b;}</style></defs><title/><g id="Lines"><path class="cls-1" d="M16,196.09a5,5,0,0,1-3.75-8.31l92-104.3.11-.13c.37-.39,9.26-9.66,22.41-10,8.67-.22,17,3.41,24.69,10.78,32.31,30.92,92.75,102.05,93.35,102.76a5,5,0,0,1-3.79,8.24l-225,1ZM111.67,90.18,27.12,186l203.06-.87c-16.87-19.62-60.19-69.46-85.64-93.82C127.53,75.07,113.48,88.32,111.67,90.18Z"/><path class="cls-1" d="M227,178.69a5,5,0,0,1,0-10L402.19,168c-21.14-24.64-85.07-98.51-122-133.86C269.3,23.68,258,20.2,246.45,23.73a38.26,38.26,0,0,0-14.8,8.81l-64.72,73.38a5,5,0,0,1-7.5-6.62l64.8-73.47.11-.12c.5-.52,12.32-12.85,29.81-13.3,11.48-.3,22.6,4.57,32.93,14.45C332,69.81,416,168.68,416.81,169.67a5,5,0,0,1-3.79,8.24l-186,.78Z"/><path class="cls-1" d="M479.77,500.48H447.39c-6.46-.35-16.06-5.33-16.06-17.58v-1.17c.07-49.13-7.14-71.62-14.05-81.88a94.05,94.05,0,0,1-24.88,7.42,5,5,0,0,1-1.52-9.89,78.07,78.07,0,0,0,25.29-8.18,5,5,0,0,1,6.29,1c12.59,14.32,18.94,45.12,18.87,91.54v1.15c0,6.25,4.47,7.4,6.54,7.59h31.72c2-.17,6.51-1.22,6.51-7,0-6-6.32-6.33-7.59-6.33a5,5,0,0,1-4.95-5.71c4.83-33.81-4.18-66.22-4.27-66.54a5.09,5.09,0,0,1,0-2.79c10.08-33.8-.11-63.94-.21-64.24a5,5,0,0,1,9.44-3.29c.46,1.33,11.12,32.59.76,69,1.68,6.54,8.06,34.07,4.77,64.38,6,1.74,12,6.44,12,15.51,0,11.78-9.6,16.6-16.05,17Z"/><path class="cls-1" d="M315.22,415.92c-11.88,0-32.42-1.62-52.24-11a5,5,0,0,1,4.26-9.05c27.08,12.78,56.71,9.66,57,9.63a5,5,0,1,1,1.12,9.94A97.93,97.93,0,0,1,315.22,415.92Z"/><path class="cls-1" d="M246.85,500.82h-39a5.49,5.49,0,0,1-.7-.05c-.14,0-13.57-2.14-11.82-18.7.25-2.37.74-5.4,1.3-8.9,2-12.36,5.16-31.93,1.4-47C185.19,436.43,151.3,458,92.07,458c-3.1.21-32.91,1.65-55.29-19-15.85-14.62-23.89-36.49-23.89-65,0-45,16.76-72.64,30.82-87.89,14.69-15.93,29.39-22,31.25-22.73,5.57-2.48,16.11-4.62,21.09,2.85,1.74,2.61,3.67,8.08-3,15.38A38.56,38.56,0,0,1,86.84,287a97.59,97.59,0,0,0-35.49,59c-2.72,15.3-1.92,27.93,2.38,37.52s16,13.28,25.7,12.77c27.1-1.4,46.48-22.68,61.86-43.31C157,332,170.53,307.47,183.9,275.85c14.91-35.25,35.86-58.29,64-70.44A127,127,0,0,1,260,200.94,137.84,137.84,0,0,1,310.24,195c20,1.39,47.78,8,66.35,31.75,1.71,2.18,3.4,4.54,5.19,7,10.63,14.81,19.15,25,32,21.3,8.45-2.43,13.47-11.88,16.2-19.38,7.78-21.41,6.72-46.25,5.11-67.85-2.84-38.28-10.76-64-16.9-78.93A110.32,110.32,0,0,0,407,67.73a22.61,22.61,0,0,1-18.7-6.86,94.48,94.48,0,0,1-13.07.85c-6.44,0-9.95-2.9-11.75-5.33-2.91-3.91-3.6-9.74-1.85-15.59,2.08-6.95,12.45-12.09,17.88-14.35,3.34-7.28,11.37-11.48,12.37-12l.12-.05c12.1-5.68,21.42-3.89,27.11-1.39a27,27,0,0,1,9.52,6.91C432.88,24,477,69.1,496,188.76c13.87,87.27-4.28,152.11-53.94,192.72a5,5,0,1,1-6.33-7.74,139.17,139.17,0,0,0,43.73-61.87c12-33,14.24-73.89,6.66-121.54C467.21,71.13,422,27.43,421.58,27a5,5,0,0,1-.53-.59c-.85-1.05-8.95-10.32-24.7-3-1.81.93-7,4.35-8.07,8.15A5,5,0,0,1,385.21,35c-6.57,2.47-13.36,6.71-14,8.71-.81,2.71-.7,5.43.29,6.75.64.86,1.89,1.3,3.73,1.3a73.5,73.5,0,0,0,14-1.15,5,5,0,0,1,5.36,2.31c.39.61,4.37,6.37,13.66,4.59A5,5,0,0,1,413,59.1c1.07,1.23,26.33,31.1,32.06,108,1.68,22.63,2.77,48.73-5.7,72-5,13.89-12.94,22.73-22.83,25.57-20.66,5.95-33.52-12-42.91-25.08-1.73-2.41-3.36-4.68-4.94-6.7-16.31-20.82-41.18-26.68-59.17-27.93A127.15,127.15,0,0,0,263,210.49a116,116,0,0,0-11.09,4.1C226.2,225.67,207,247,193.11,279.74c-13.69,32.38-27.61,57.58-43.8,79.29-16.77,22.5-38.13,45.72-69.37,47.33-19.47,1-31.19-9.43-35.33-18.67-5.14-11.46-6.18-26.05-3.1-43.36a107.7,107.7,0,0,1,39.3-65.27l.31-.22c3.5-2.35,6.49-5.81,6.58-7.1-1-1.4-5.93-.44-8.76.82l-.3.12c-.13.05-14.15,5.48-27.93,20.6C32.25,313.52,22.89,340.68,22.89,374c0,25.61,7,45,20.67,57.66C63.51,450.05,91.21,448,91.48,448l.41,0c71.65,0,104.42-33.67,104.74-34a5,5,0,0,1,8.19,1.36c8.31,18.27,4.14,44,1.66,59.41-.55,3.36-1,6.26-1.24,8.36-.61,5.8,1.79,7.31,3.13,7.7h38.48c9.54,0,10.85-4.08,10.85-8.48,0-7.81-10.71-8.57-11.16-8.6a5,5,0,0,1-4.51-6.31c.05-.17,4.54-16.48,11.44-35.94,6.25-17.61,6.85-29.59,2.38-47.48-4.27-17.09-13.56-40.68-13.65-40.92a5,5,0,1,1,9.3-3.67c.39,1,9.62,24.43,14.05,42.17,5,19.82,4.26,33.75-2.65,53.24-4.47,12.58-7.9,23.79-9.73,30,6.82,2,14.53,7.11,14.53,17.47C267.7,487.89,265.67,500.82,246.85,500.82Z"/><path class="cls-1" d="M371.5,501H333.58c-.15,0-14.93-1.12-14.93-18.84,0-2-.11-5.07-.24-8.95-.75-21.2-2.3-65.32,8-96.39A5,5,0,0,1,336,380c-9.79,29.36-8.28,72.26-7.55,92.87.14,4,.25,7.13.25,9.31,0,7.43,4,8.65,5.5,8.85H371.5c8.58,0,9.39-1.92,9.39-7,0-7.11-9.19-7.54-9.59-7.55a5,5,0,0,1-4.8-5.11c0-.29.61-30,0-39.11-.63-9.43,4.33-15.72,7.54-18.1,20.47-17.74,20.15-39.79,20.15-40a5,5,0,0,1,4.87-5.13h.13a5,5,0,0,1,5,4.87c0,1.1.41,27.16-23.77,48-.12.11-.26.21-.39.31s-4,3.07-3.55,9.42c.5,7.45.24,26.85.1,35.61,6.54,1.66,14.31,6.36,14.31,16.82C390.89,501,376.29,501,371.5,501Zm5.66-82.95h0Z"/><path class="cls-1" d="M199.89,422a4.91,4.91,0,0,1-1.68-.29c-.32-.11-31.59-11.74-28.3-50.14a5,5,0,1,1,10,.86c-2.64,30.8,21.46,39.77,21.7,39.86a5,5,0,0,1-1.68,9.71Z"/><path class="cls-1" d="M331.61,501H311.89a13.19,13.19,0,0,1-9.74-4c-4.55-4.71-4.81-11.94-4.79-13.83-2.49-26.12-.09-71.28,0-73.2a5,5,0,0,1,10,.54c0,.46-2.48,46.67,0,72a4.85,4.85,0,0,1,0,.66c0,1.53.4,5.27,2,6.91a3.19,3.19,0,0,0,2.53.91h19.72a5,5,0,0,1,0,10Z"/><path class="cls-1" d="M405.89,43h-1a5,5,0,0,1,0-10h1a5,5,0,0,1,0,10Z"/></g><g id="Outline"><path class="cls-1" d="M87,162.59a5,5,0,0,1-3.15-8.88c5.63-4.56,19.45-10.4,31.45.13a5,5,0,1,1-6.6,7.51c-8.73-7.66-18.16-.19-18.55.13A5,5,0,0,1,87,162.59Z"/><path class="cls-1" d="M154,134.85a5,5,0,0,1-3.3-1.25c-8.47-7.42-17.57-.65-18.58.15a5,5,0,0,1-6.27-7.79c5.63-4.56,19.45-10.4,31.45.13a5,5,0,0,1-3.3,8.76Z"/><path class="cls-1" d="M252,79.35a5,5,0,0,1-3.15-8.89c5.63-4.56,19.45-10.4,31.45.13a5,5,0,1,1-6.6,7.51c-8.73-7.65-18.16-.19-18.55.13A5,5,0,0,1,252,79.35Z"/><path class="cls-1" d="M336,134.85a5,5,0,0,1-3.3-1.25c-8.47-7.42-17.57-.65-18.58.15a5,5,0,0,1-6.27-7.79c5.63-4.56,19.45-10.4,31.45.13a5,5,0,0,1-3.3,8.76Z"/><path class="cls-1" d="M253,134.85a5,5,0,0,1-3.3-1.25c-8.47-7.42-17.57-.65-18.58.15a5,5,0,0,1-6.27-7.79c5.63-4.56,19.45-10.4,31.45.13a5,5,0,0,1-3.3,8.76Z"/><path class="cls-1" d="M278,134.85a5,5,0,0,1-3.3-1.25c-8.47-7.42-17.57-.65-18.58.15a5,5,0,0,1-6.27-7.79c5.63-4.56,19.45-10.4,31.45.13a5,5,0,0,1-3.3,8.76Z"/><path class="cls-1" d="M192,222H99a5,5,0,0,1,0-10h93a5,5,0,0,1,0,10Z"/><path class="cls-1" d="M154,248H110a5,5,0,0,1,0-10h44a5,5,0,0,1,0,10Z"/><path class="cls-1" d="M182,248h-8a5,5,0,0,1,0-10h8a5,5,0,0,1,0,10Z"/><path class="cls-1" d="M151,272H132a5,5,0,0,1,0-10h19a5,5,0,0,1,0,10Z"/></g></svg>