<?xml version="1.0" ?><svg viewBox="0 0 512 512" xmlns="http://www.w3.org/2000/svg"><defs><style>.cls-1{fill:#3f456b;}</style></defs><title/><g id="Lines"><path class="cls-1" d="M125.26,84.91a23.27,23.27,0,1,1,23.27-23.27A23.3,23.3,0,0,1,125.26,84.91Zm0-36.53a13.27,13.27,0,1,0,13.27,13.26A13.29,13.29,0,0,0,125.26,48.38Z"/><path class="cls-1" d="M183.76,84.91A23.27,23.27,0,1,1,207,61.64,23.3,23.3,0,0,1,183.76,84.91Zm0-36.53A13.27,13.27,0,1,0,197,61.64,13.29,13.29,0,0,0,183.76,48.38Z"/><path class="cls-1" d="M66.76,84.91A23.27,23.27,0,1,1,90,61.64,23.3,23.3,0,0,1,66.76,84.91Zm0-36.53A13.27,13.27,0,1,0,80,61.64,13.29,13.29,0,0,0,66.76,48.38Z"/><path class="cls-1" d="M451.18,501H63c-27.65,0-51-23.65-51-51.65V61.19C12,33.51,34.88,11,63,11H451.18C479.2,11,502,33.51,502,61.19V449.35a51.71,51.71,0,0,1-14.88,36.28A50,50,0,0,1,451.18,501ZM63,21C40.4,21,22,39,22,61.19V449.35C22,471.93,40.78,491,63,491H451.18C473.3,491,492,471.93,492,449.35V61.19C492,39,473.69,21,451.18,21Z"/><rect class="cls-1" height="10" width="479" x="15" y="102"/><path class="cls-1" d="M319,308H48a5,5,0,0,1-5-5V175a5,5,0,0,1,5-5H319a5,5,0,0,1,5,5V303A5,5,0,0,1,319,308ZM53,298H314V180H53Z"/><path class="cls-1" d="M160,420H48a5,5,0,0,1-5-5V336a5,5,0,0,1,5-5H160a5,5,0,0,1,5,5v79A5,5,0,0,1,160,420ZM53,410H155V341H53Z"/><path class="cls-1" d="M313,420H201a5,5,0,0,1-5-5V336a5,5,0,0,1,5-5H313a5,5,0,0,1,5,5v79A5,5,0,0,1,313,420ZM206,410H308V341H206Z"/><path class="cls-1" d="M465,420H353a5,5,0,0,1-5-5V336a5,5,0,0,1,5-5H465a5,5,0,0,1,5,5v79A5,5,0,0,1,465,420ZM358,410H460V341H358Z"/><path class="cls-1" d="M446,88H246a26,26,0,0,1,0-52H446a26,26,0,0,1,0,52ZM246,46a16,16,0,0,0,0,32H446a16,16,0,0,0,0-32Z"/></g><g id="Outline"><path class="cls-1" d="M147,449a5,5,0,0,1,5-5h0a5,5,0,0,1,5,5h0a5,5,0,0,1-5,5h0A5,5,0,0,1,147,449Zm-20,0a5,5,0,0,1,5-5h0a5,5,0,0,1,5,5h0a5,5,0,0,1-5,5h0A5,5,0,0,1,127,449Zm-20,0a5,5,0,0,1,5-5h0a5,5,0,0,1,5,5h0a5,5,0,0,1-5,5h0A5,5,0,0,1,107,449Zm-20,0a5,5,0,0,1,5-5h0a5,5,0,0,1,5,5h0a5,5,0,0,1-5,5h0A5,5,0,0,1,87,449Zm-20,0a5,5,0,0,1,5-5h0a5,5,0,0,1,5,5h0a5,5,0,0,1-5,5h0A5,5,0,0,1,67,449Zm-20,0a5,5,0,0,1,5-5h0a5,5,0,0,1,5,5h0a5,5,0,0,1-5,5h0A5,5,0,0,1,47,449Z"/><path class="cls-1" d="M299,449a5,5,0,0,1,5-5h0a5,5,0,0,1,5,5h0a5,5,0,0,1-5,5h0A5,5,0,0,1,299,449Zm-20,0a5,5,0,0,1,5-5h0a5,5,0,0,1,5,5h0a5,5,0,0,1-5,5h0A5,5,0,0,1,279,449Zm-20,0a5,5,0,0,1,5-5h0a5,5,0,0,1,5,5h0a5,5,0,0,1-5,5h0A5,5,0,0,1,259,449Zm-20,0a5,5,0,0,1,5-5h0a5,5,0,0,1,5,5h0a5,5,0,0,1-5,5h0A5,5,0,0,1,239,449Zm-20,0a5,5,0,0,1,5-5h0a5,5,0,0,1,5,5h0a5,5,0,0,1-5,5h0A5,5,0,0,1,219,449Zm-20,0a5,5,0,0,1,5-5h0a5,5,0,0,1,5,5h0a5,5,0,0,1-5,5h0A5,5,0,0,1,199,449Z"/><path class="cls-1" d="M450,449a5,5,0,0,1,5-5h0a5,5,0,0,1,5,5h0a5,5,0,0,1-5,5h0A5,5,0,0,1,450,449Zm-20,0a5,5,0,0,1,5-5h0a5,5,0,0,1,5,5h0a5,5,0,0,1-5,5h0A5,5,0,0,1,430,449Zm-20,0a5,5,0,0,1,5-5h0a5,5,0,0,1,5,5h0a5,5,0,0,1-5,5h0A5,5,0,0,1,410,449Zm-20,0a5,5,0,0,1,5-5h0a5,5,0,0,1,5,5h0a5,5,0,0,1-5,5h0A5,5,0,0,1,390,449Zm-20,0a5,5,0,0,1,5-5h0a5,5,0,0,1,5,5h0a5,5,0,0,1-5,5h0A5,5,0,0,1,370,449Zm-20,0a5,5,0,0,1,5-5h0a5,5,0,0,1,5,5h0a5,5,0,0,1-5,5h0A5,5,0,0,1,350,449Z"/><path class="cls-1" d="M464,180H352a5,5,0,0,1,0-10H464a5,5,0,0,1,0,10Z"/><path class="cls-1" d="M417,213H352a5,5,0,0,1,0-10h65a5,5,0,0,1,0,10Z"/><path class="cls-1" d="M464,213H440a5,5,0,0,1,0-10h24a5,5,0,0,1,0,10Z"/><path class="cls-1" d="M464,244H352a5,5,0,0,1,0-10H464a5,5,0,0,1,0,10Z"/><path class="cls-1" d="M464,277H352a5,5,0,0,1,0-10H464a5,5,0,0,1,0,10Z"/><path class="cls-1" d="M418,308H352a5,5,0,0,1,0-10h66a5,5,0,0,1,0,10Z"/><path class="cls-1" d="M400,148H48a5,5,0,0,1,0-10H400a5,5,0,0,1,0,10Z"/><path class="cls-1" d="M464,148H432a5,5,0,0,1,0-10h32a5,5,0,0,1,0,10Z"/><path class="cls-1" d="M185,286h-1a5,5,0,0,1,0-10h1a5,5,0,0,1,0,10Z"/><path class="cls-1" d="M153,286h-1a5,5,0,0,1,0-10h1a5,5,0,0,1,0,10Z"/><path class="cls-1" d="M217,286h-1a5,5,0,0,1,0-10h1a5,5,0,0,1,0,10Z"/></g></svg>