<?xml version="1.0" ?><svg viewBox="0 0 512 512" xmlns="http://www.w3.org/2000/svg"><defs><style>.cls-1{fill:#3f456b;}</style></defs><title/><g id="Lines"><path class="cls-1" d="M217.41,497h-176A29.57,29.57,0,0,1,12,467.32l-.28-273.07a5,5,0,0,1,5-5h0a5,5,0,0,1,5,5L22,467.32A19.56,19.56,0,0,0,41.43,487h176C228,487,237,477.88,237,467.08V194a5,5,0,0,1,10,0V467.08C247,483.3,233.45,497,217.41,497Z"/><path class="cls-1" d="M129.43,264.83A98.57,98.57,0,1,1,228,166.26,98.68,98.68,0,0,1,129.43,264.83Zm0-187.13A88.57,88.57,0,1,0,218,166.26,88.67,88.67,0,0,0,129.43,77.7Z"/><path class="cls-1" d="M129.43,286.58A120.32,120.32,0,1,1,249.74,166.26,120.45,120.45,0,0,1,129.43,286.58Zm0-230.63A110.32,110.32,0,1,0,239.74,166.26,110.44,110.44,0,0,0,129.43,56Z"/><path class="cls-1" d="M129.43,238.07a71.81,71.81,0,1,1,71.8-71.81A71.89,71.89,0,0,1,129.43,238.07Zm0-133.61a61.81,61.81,0,1,0,61.8,61.8A61.87,61.87,0,0,0,129.43,104.46Z"/><path class="cls-1" d="M478,331H294a25,25,0,0,1-25-25V170a25,25,0,0,1,25-25H478a25,25,0,0,1,25,25V306A25,25,0,0,1,478,331ZM294,155a15,15,0,0,0-15,15V306a15,15,0,0,0,15,15H478a15,15,0,0,0,15-15V170a15,15,0,0,0-15-15Z"/><rect class="cls-1" height="10" width="32" x="242" y="206"/><rect class="cls-1" height="10" width="32" x="242" y="260"/><path class="cls-1" d="M355.17,289.72c-12.3,0-18.8-7.39-19.18-7.83a5,5,0,0,1,7.57-6.54c.37.4,6.34,6.68,18.43,3.34a27.25,27.25,0,0,1-5.81-8.37,17,17,0,0,1,.13-13.95,15,15,0,0,1,9.62-8.2c11.06-3.17,18.7,2.39,21.37,9.3,2.18,5.65,1.45,13.08-3.75,19.5l.65,0c6.07-.35,12.1-2.38,18.48-4.54,10.43-3.52,21.22-7.16,33.24-3.67a34.77,34.77,0,0,1,14.25,8.73,5,5,0,0,1-7.16,7,25.08,25.08,0,0,0-9.87-6.11c-9-2.61-17.88.38-27.26,3.55-6.73,2.27-13.68,4.62-21.1,5.05a31.64,31.64,0,0,1-12.13-1.65A40,40,0,0,1,355.17,289.72ZM372,257.28a12,12,0,0,0-3.31.5,5,5,0,0,0-3.32,2.81,7.12,7.12,0,0,0-.06,5.65,17.55,17.55,0,0,0,6.82,7.76c5.57-4,7.25-9.27,5.84-12.93A5.94,5.94,0,0,0,372,257.28Z"/></g><g id="Outline"><path class="cls-1" d="M306.82,101.84a5,5,0,0,1,0-10l28.52-.1h0a5,5,0,0,1,0,10l-28.51.1Z"/><path class="cls-1" d="M438.44,101.39a5,5,0,0,1,0-10l27.42-.09h0a5,5,0,0,1,0,10l-27.42.09Z"/><path class="cls-1" d="M431.37,75a5,5,0,0,1-2.52-9.32L453.1,51.56a5,5,0,1,1,5,8.64L433.88,74.31A5,5,0,0,1,431.37,75Z"/><path class="cls-1" d="M412.38,56.14a5,5,0,0,1-4.33-7.49L422,24.31a5,5,0,1,1,8.68,5L416.72,53.62A5,5,0,0,1,412.38,56.14Z"/><path class="cls-1" d="M386.71,48.92a5,5,0,0,1-5-5l-.09-27.42a5,5,0,0,1,5-5h0a5,5,0,0,1,5,5l.09,27.43a5,5,0,0,1-5,5Z"/><path class="cls-1" d="M360.69,56.31a5,5,0,0,1-4.32-2.48L342.26,29.58a5,5,0,1,1,8.64-5L365,48.8a5,5,0,0,1-4.32,7.51Z"/><path class="cls-1" d="M341.83,75.3a5,5,0,0,1-2.48-.67L315,60.69A5,5,0,0,1,320,52L344.32,66a5,5,0,0,1-2.49,9.34Z"/><path class="cls-1" d="M177,433H79a5,5,0,0,1,0-10h98a5,5,0,0,1,0,10Z"/><path class="cls-1" d="M177,404H79a5,5,0,0,1,0-10h98a5,5,0,0,1,0,10Z"/><path class="cls-1" d="M177,375H79a5,5,0,0,1,0-10h98a5,5,0,0,1,0,10Z"/></g></svg>