<?xml version="1.0" ?><svg viewBox="0 0 512 512" xmlns="http://www.w3.org/2000/svg"><defs><style>.cls-1{fill:#3f456b;}</style></defs><title/><g id="Lines"><path class="cls-1" d="M464.22,499H44.75C26.46,499,11,483.42,11,465V45.53A33.68,33.68,0,0,1,44.75,12H464.22A33.69,33.69,0,0,1,498,45.53V465C498,483.42,482.53,499,464.22,499ZM44.75,22C31.88,22,21,32.77,21,45.53V465c0,13,10.88,24,23.75,24H464.22c12.89,0,23.78-11,23.78-24V45.53C488,32.77,477.11,22,464.22,22Z"/><path class="cls-1" d="M489,116.3H17.88a5,5,0,1,1,0-10H489a5,5,0,0,1,0,10Z"/><path class="cls-1" d="M404.89,453H103.14C85.42,453,71,439.08,71,422V242.65C71,225.5,85.72,211,103.14,211H404.89c17.4,0,32.11,14.5,32.11,31.65V422C437,439.08,422.59,453,404.89,453ZM103.14,221C91.34,221,81,231.12,81,242.65V422c0,11.39,10.14,21,22.14,21H404.89c12,0,22.11-9.63,22.11-21V242.65c0-11.73-10.13-21.65-22.11-21.65Z"/><path class="cls-1" d="M127.05,97.28a32.62,32.62,0,1,1,32.61-32.61A32.64,32.64,0,0,1,127.05,97.28Zm0-55.23a22.62,22.62,0,1,0,22.61,22.62A22.64,22.64,0,0,0,127.05,42.05Z"/><path class="cls-1" d="M381.25,97.28a32.62,32.62,0,1,1,32.61-32.61A32.64,32.64,0,0,1,381.25,97.28Zm0-55.23a22.62,22.62,0,1,0,22.61,22.62A22.64,22.64,0,0,0,381.25,42.05Z"/><path class="cls-1" d="M296.51,97.28a32.62,32.62,0,1,1,32.62-32.61A32.65,32.65,0,0,1,296.51,97.28Zm0-55.23a22.62,22.62,0,1,0,22.62,22.62A22.65,22.65,0,0,0,296.51,42.05Z"/><path class="cls-1" d="M211.78,97.28a32.62,32.62,0,1,1,32.61-32.61A32.65,32.65,0,0,1,211.78,97.28Zm0-55.23a22.62,22.62,0,1,0,22.61,22.62A22.64,22.64,0,0,0,211.78,42.05Z"/><path class="cls-1" d="M444.91,190H63.38C55.5,190,50,184.1,50,175.66v-16c0-8.5,5.63-14.67,13.38-14.67H444.91c7.71,0,13.09,6,13.09,14.67v16C458,184.1,452.62,190,444.91,190ZM63.38,155c-3.05,0-3.38,3.26-3.38,4.67v16c0,2.88,1.14,4.34,3.38,4.34H444.91c.85,0,3.09,0,3.09-4.34v-16c0-2.13-.54-4.67-3.09-4.67Z"/><path class="cls-1" d="M455,70a5,5,0,0,1-5-5V62a5,5,0,0,1,10,0v3A5,5,0,0,1,455,70Z"/><path class="cls-1" d="M55,70a5,5,0,0,1-5-5V62a5,5,0,0,1,10,0v3A5,5,0,0,1,55,70Z"/></g><g id="Outline"><path class="cls-1" d="M212,58a5,5,0,0,1-5-5V50a5,5,0,0,1,10,0v3A5,5,0,0,1,212,58Z"/><path class="cls-1" d="M127,58a5,5,0,0,1-5-5V50a5,5,0,0,1,10,0v3A5,5,0,0,1,127,58Z"/><path class="cls-1" d="M382,58a5,5,0,0,1-5-5V50a5,5,0,0,1,10,0v3A5,5,0,0,1,382,58Z"/><path class="cls-1" d="M297,58a5,5,0,0,1-5-5V50a5,5,0,0,1,10,0v3A5,5,0,0,1,297,58Z"/><path class="cls-1" d="M122.05,304.14h-.5a5,5,0,0,1,0-10h.5a5,5,0,1,1,0,10Z"/><path class="cls-1" d="M369.33,304.14h-1a5,5,0,0,1,0-10h1a5,5,0,1,1,0,10Zm-20.61,0h-1a5,5,0,0,1,0-10h1a5,5,0,0,1,0,10Zm-20.61,0h-1a5,5,0,0,1,0-10h1a5,5,0,0,1,0,10Zm-20.6,0h-1a5,5,0,0,1,0-10h1a5,5,0,0,1,0,10Zm-20.61,0h-1a5,5,0,1,1,0-10h1a5,5,0,0,1,0,10Zm-20.61,0h-1a5,5,0,0,1,0-10h1a5,5,0,1,1,0,10Zm-20.6,0h-1a5,5,0,0,1,0-10h1a5,5,0,0,1,0,10Zm-20.61,0h-1a5,5,0,0,1,0-10h1a5,5,0,1,1,0,10Zm-20.6,0h-1a5,5,0,0,1,0-10h1a5,5,0,1,1,0,10Zm-20.61,0h-1a5,5,0,0,1,0-10h1a5,5,0,0,1,0,10Zm-20.61,0h-1a5,5,0,1,1,0-10h1a5,5,0,0,1,0,10Zm-20.6,0h-1a5,5,0,1,1,0-10h1a5,5,0,0,1,0,10Z"/><path class="cls-1" d="M389.45,304.14H389a5,5,0,1,1,0-10h.5a5,5,0,0,1,0,10Z"/><path class="cls-1" d="M122.05,363.68h-.5a5,5,0,0,1,0-10h.5a5,5,0,1,1,0,10Z"/><path class="cls-1" d="M369.33,363.68h-1a5,5,0,0,1,0-10h1a5,5,0,0,1,0,10Zm-20.61,0h-1a5,5,0,0,1,0-10h1a5,5,0,0,1,0,10Zm-20.61,0h-1a5,5,0,0,1,0-10h1a5,5,0,0,1,0,10Zm-20.6,0h-1a5,5,0,0,1,0-10h1a5,5,0,0,1,0,10Zm-20.61,0h-1a5,5,0,0,1,0-10h1a5,5,0,0,1,0,10Zm-20.61,0h-1a5,5,0,0,1,0-10h1a5,5,0,0,1,0,10Zm-20.6,0h-1a5,5,0,1,1,0-10h1a5,5,0,0,1,0,10Zm-20.61,0h-1a5,5,0,1,1,0-10h1a5,5,0,0,1,0,10Zm-20.6,0h-1a5,5,0,0,1,0-10h1a5,5,0,0,1,0,10Zm-20.61,0h-1a5,5,0,1,1,0-10h1a5,5,0,0,1,0,10Zm-20.61,0h-1a5,5,0,0,1,0-10h1a5,5,0,1,1,0,10Zm-20.6,0h-1a5,5,0,0,1,0-10h1a5,5,0,1,1,0,10Z"/><path class="cls-1" d="M389.45,363.68H389a5,5,0,0,1,0-10h.5a5,5,0,0,1,0,10Z"/><path class="cls-1" d="M96,190a5,5,0,0,1-5-5V150a5,5,0,0,1,10,0v35A5,5,0,0,1,96,190Z"/><path class="cls-1" d="M417,190a5,5,0,0,1-5-5V150a5,5,0,0,1,10,0v35A5,5,0,0,1,417,190Z"/></g></svg>