<?xml version="1.0" ?><svg viewBox="0 0 512 512" xmlns="http://www.w3.org/2000/svg"><defs><style>.cls-1{fill:#3f456b;}</style></defs><title/><g id="Lines"><path class="cls-1" d="M177,452H78a35,35,0,0,1-35-35V247a21.51,21.51,0,0,0-5.65-14.21A34.78,34.78,0,0,1,27,208V85A35,35,0,0,1,62,50H193a35,35,0,0,1,35,35V208a34.72,34.72,0,0,1-10.28,24.72,4.94,4.94,0,0,1-.75.62c-.13.1-5,3.71-5,12.66V417A35,35,0,0,1,177,452ZM44.33,225.63A31.33,31.33,0,0,1,53,247V417a25,25,0,0,0,25,25h99a25,25,0,0,0,25-25V246c0-12.66,6.88-19,8.88-20.58A24.82,24.82,0,0,0,218,208V85a25,25,0,0,0-25-25H62A25,25,0,0,0,37,85V208A24.78,24.78,0,0,0,44.33,225.63Z"/><path class="cls-1" d="M207,62a5,5,0,0,1-5-5V40H53.5V57a5,5,0,0,1-10,0V35a5,5,0,0,1,5-5H207a5,5,0,0,1,5,5V57A5,5,0,0,1,207,62Z"/><path class="cls-1" d="M140,477H116a5,5,0,0,1-4.92-4.1l-4.5-24.67a5,5,0,1,1,9.84-1.79L120.17,467h15.58l3.32-20.31a5,5,0,0,1,9.86,1.62l-4,24.5A5,5,0,0,1,140,477Z"/><path class="cls-1" d="M127.75,501a5,5,0,0,1-5-5V472a5,5,0,0,1,10,0v24A5,5,0,0,1,127.75,501Z"/><path class="cls-1" d="M207,60a5,5,0,0,1-5-5V15a5,5,0,0,1,10,0V55A5,5,0,0,1,207,60Z"/><path class="cls-1" d="M48,60a5,5,0,0,1-5-5V15a5,5,0,0,1,10,0V55A5,5,0,0,1,48,60Z"/><path class="cls-1" d="M116.14,132a5,5,0,0,1-5-5V15a5,5,0,1,1,10,0V127A5,5,0,0,1,116.14,132Z"/><path class="cls-1" d="M93.43,128a5,5,0,0,1-5-5V15a5,5,0,0,1,10,0V123A5,5,0,0,1,93.43,128Z"/><path class="cls-1" d="M70.72,117a5,5,0,0,1-5-5V15a5,5,0,0,1,10,0v97A5,5,0,0,1,70.72,117Z"/><path class="cls-1" d="M184.29,117a5,5,0,0,1-5-5V15a5,5,0,0,1,10,0v97A5,5,0,0,1,184.29,117Z"/><path class="cls-1" d="M161.57,128a5,5,0,0,1-5-5V15a5,5,0,0,1,10,0V123A5,5,0,0,1,161.57,128Z"/><path class="cls-1" d="M138.86,132a5,5,0,0,1-5-5V15a5,5,0,0,1,10,0V127A5,5,0,0,1,138.86,132Z"/><path class="cls-1" d="M373.14,52a5,5,0,0,1-5-5V15a5,5,0,0,1,10,0V47A5,5,0,0,1,373.14,52Z"/><path class="cls-1" d="M350.43,52.79a5,5,0,0,1-5-5V15a5,5,0,0,1,10,0V47.79A5,5,0,0,1,350.43,52.79Z"/><path class="cls-1" d="M327.72,53a5,5,0,0,1-5-5V15a5,5,0,0,1,10,0V48A5,5,0,0,1,327.72,53Z"/><path class="cls-1" d="M441.29,53a5,5,0,0,1-5-5V15a5,5,0,0,1,10,0V48A5,5,0,0,1,441.29,53Z"/><path class="cls-1" d="M418.57,52.79a5,5,0,0,1-5-5V15a5,5,0,0,1,10,0V47.79A5,5,0,0,1,418.57,52.79Z"/><path class="cls-1" d="M395.86,52a5,5,0,0,1-5-5V15a5,5,0,0,1,10,0V47A5,5,0,0,1,395.86,52Z"/><path class="cls-1" d="M207,421H49a5,5,0,0,1,0-10H207a5,5,0,0,1,0,10Z"/><path class="cls-1" d="M128,133c-30.45,0-53.35-8.07-68.09-24-18.68-20.17-17-45.34-16.9-46.4a5,5,0,0,1,10,.75c0,.29-1.36,22.09,14.35,39C80.12,116,100.53,123,128,123c27.29,0,47.49-7,60.05-20.73C203.87,85,202,62.68,202,62.45a5,5,0,1,1,10-.9c.1,1.09,2.21,26.93-16.54,47.47C180.9,124.93,158.21,133,128,133Z"/><path class="cls-1" d="M128,285a53,53,0,1,1,53-53A53.07,53.07,0,0,1,128,285Zm0-96a43,43,0,1,0,43,43A43,43,0,0,0,128,189Z"/><path class="cls-1" d="M127,352a5,5,0,0,1-5-5V331a5,5,0,0,1,10,0v16A5,5,0,0,1,127,352Z"/><path class="cls-1" d="M432,108H338a5,5,0,0,1,0-10h94a5,5,0,0,1,0,10Z"/><path class="cls-1" d="M373.15,252a5,5,0,0,1-5-5V166a5,5,0,0,1,10,0v81A5,5,0,0,1,373.15,252Z"/><path class="cls-1" d="M350.43,252a5,5,0,0,1-5-5V166a5,5,0,0,1,10,0v81A5,5,0,0,1,350.43,252Z"/><path class="cls-1" d="M327.72,252a5,5,0,0,1-5-5V166a5,5,0,0,1,10,0v81A5,5,0,0,1,327.72,252Z"/><path class="cls-1" d="M441.29,252a5,5,0,0,1-5-5V166a5,5,0,1,1,10,0v81A5,5,0,0,1,441.29,252Z"/><path class="cls-1" d="M418.57,252a5,5,0,0,1-5-5V166a5,5,0,1,1,10,0v81A5,5,0,0,1,418.57,252Z"/><path class="cls-1" d="M395.86,252a5,5,0,0,1-5-5V166a5,5,0,0,1,10,0v81A5,5,0,0,1,395.86,252Z"/><path class="cls-1" d="M432,274H338a5,5,0,0,1,0-10h94a5,5,0,0,1,0,10Z"/><path class="cls-1" d="M454,299H315a15,15,0,0,1-15-15V166a5,5,0,0,1,10,0V284a5,5,0,0,0,5,5H454a5,5,0,0,0,5-5V166a5,5,0,0,1,10,0V284A15,15,0,0,1,454,299Z"/><path class="cls-1" d="M454,133H315a15,15,0,0,1-15-15V16a5,5,0,0,1,10,0V118a5,5,0,0,0,5,5H454a5,5,0,0,0,5-5V16a5,5,0,0,1,10,0V118A15,15,0,0,1,454,133Z"/><path class="cls-1" d="M464,219H305a5,5,0,0,1,0-10H464a5,5,0,0,1,0,10Z"/><path class="cls-1" d="M373.15,453a5,5,0,0,1-5-5V336a5,5,0,0,1,10,0V448A5,5,0,0,1,373.15,453Z"/><path class="cls-1" d="M350.43,453a5,5,0,0,1-5-5V336a5,5,0,0,1,10,0V448A5,5,0,0,1,350.43,453Z"/><path class="cls-1" d="M327.72,453a5,5,0,0,1-5-5V336a5,5,0,0,1,10,0V448A5,5,0,0,1,327.72,453Z"/><path class="cls-1" d="M441.29,453a5,5,0,0,1-5-5V336a5,5,0,0,1,10,0V448A5,5,0,0,1,441.29,453Z"/><path class="cls-1" d="M418.57,453a5,5,0,0,1-5-5V336a5,5,0,0,1,10,0V448A5,5,0,0,1,418.57,453Z"/><path class="cls-1" d="M395.86,453a5,5,0,0,1-5-5V336a5,5,0,0,1,10,0V448A5,5,0,0,1,395.86,453Z"/><path class="cls-1" d="M432,476H338a5,5,0,0,1,0-10h94a5,5,0,0,1,0,10Z"/><path class="cls-1" d="M454,501H315a15,15,0,0,1-15-15V336a5,5,0,0,1,10,0V486a5,5,0,0,0,5,5H454a5,5,0,0,0,5-5V336a5,5,0,0,1,10,0V486A15,15,0,0,1,454,501Z"/><path class="cls-1" d="M464,406H305a5,5,0,0,1,0-10H464a5,5,0,0,1,0,10Z"/><path class="cls-1" d="M464,53H305a5,5,0,0,1,0-10H464a5,5,0,0,1,0,10Z"/></g><g id="Outline"><path class="cls-1" d="M121.11,308.09l-.48,0-1.07-.11a5,5,0,1,1,1.1-9.94l.92.1a5,5,0,0,1-.47,10Zm19.91-.86a5,5,0,0,1-.9-9.92l.91-.18a5,5,0,1,1,1.95,9.81l-1,.2A4.76,4.76,0,0,1,141,307.23Zm-40.22-4.17a4.88,4.88,0,0,1-1.9-.38l-1-.41a5,5,0,0,1,3.92-9.2l.86.36a5,5,0,0,1-1.9,9.63Zm60-2.61a5,5,0,0,1-2.31-9.44l.83-.43a5,5,0,1,1,4.72,8.81l-.95.5A5,5,0,0,1,160.83,300.45Zm-78-8.12a5,5,0,0,1-3.17-1.13l-.82-.68a5,5,0,0,1,6.44-7.65l.72.59a5,5,0,0,1-3.17,8.87Zm94.95-4.13a5,5,0,0,1-3.49-8.58L175,279A5,5,0,1,1,182,286l-.75.74A5,5,0,0,1,177.79,288.2Z"/><path class="cls-1" d="M77.5,186.5A5,5,0,0,1,74,178l.75-.74a5,5,0,1,1,7,7.16L81,185A5,5,0,0,1,77.5,186.5Zm96.43-4.2a5,5,0,0,1-3.22-1.17l-.72-.59a5,5,0,1,1,6.34-7.74l.82.68a5,5,0,0,1-3.22,8.82ZM94.3,174a5,5,0,0,1-2.37-9.41l.95-.5a5,5,0,0,1,4.6,8.88l-.83.43A4.89,4.89,0,0,1,94.3,174Zm61.82-2.69a5,5,0,0,1-2-.4l-.86-.36a5,5,0,0,1,3.8-9.25l1,.41a5,5,0,0,1-2,9.6ZM114,167a5,5,0,0,1-1-9.9l1-.2a5,5,0,0,1,1.81,9.83l-.91.18A5.5,5.5,0,0,1,114,167Zm21.9-.94a5.07,5.07,0,0,1-.55,0l-.92-.1a5,5,0,1,1,1-9.95l1.07.11a5,5,0,0,1-.55,10Z"/></g></svg>