<?xml version="1.0" ?><svg viewBox="0 0 512 512" xmlns="http://www.w3.org/2000/svg"><defs><style>.cls-1{fill:#3f456b;}</style></defs><title/><g id="Lines"><path class="cls-1" d="M17.27,409.71a5.31,5.31,0,0,1-5.31-5.9c3.09-34.12,13.56-58.68,31.12-73,13.59-11.09,26.45-11.5,27-11.51a5,5,0,1,1,.22,10c-.07,0-10.44.49-21.43,9.72-13.94,11.7-23,32.41-26.35,60.12,68.12-8.09,69.81-47.39,69.82-47.8a5,5,0,0,1,10,.23c0,.54-.43,13.42-11.51,27C76.52,396.15,52,406.6,18,409.66A6.11,6.11,0,0,1,17.27,409.71Zm-1.1-9.87h0Z"/><path class="cls-1" d="M109.08,501.53a5.32,5.32,0,0,1-5.3-5.9c3.09-34.12,13.56-58.68,31.12-73,13.59-11.08,26.44-11.49,27-11.51a5,5,0,0,1,.22,10c-.07,0-10.44.49-21.44,9.72-13.93,11.7-23,32.41-26.34,60.12,68.12-8.09,69.81-47.39,69.82-47.8a5,5,0,0,1,10,.23c0,.54-.43,13.42-11.51,27-14.3,17.55-38.8,28-72.83,31.06A5.84,5.84,0,0,1,109.08,501.53Z"/><path class="cls-1" d="M272.28,322.83l-7.07-7.07,198.21-198.2c49.71-49.72,18.66-82.5,17.31-83.87l-1-1c-1.36-1.34-34.29-32.55-84,17.17L197.55,248.1a5,5,0,1,1-7.07-7.07l198.2-198.2c16.25-16.26,41.62-34.7,70.14-30.29a53.47,53.47,0,0,1,28,13.12l1,1a53.09,53.09,0,0,1,13,27.94c4.33,28.46-14.12,53.8-30.37,70.05Z"/><path class="cls-1" d="M141,353.31a5,5,0,0,1-3.54-1.46L86.73,301.16a5,5,0,0,1,0-7.08l46.6-46.6c12.44-12.44,25.23-18.56,38-18.19a39.17,39.17,0,0,1,26.51,11.86,5,5,0,0,1-7.45,6.67,29.52,29.52,0,0,0-19.5-8.53c-9.88-.23-20.12,4.9-30.48,15.26L97.34,297.62l47.15,47.16a5,5,0,0,1-3.53,8.53Z"/><path class="cls-1" d="M215.86,428.21a5,5,0,0,1-3.54-1.46l-51-51a5,5,0,0,1,7.07-7.08l47.49,47.49,43.07-43.07c10.37-10.38,15.49-20.66,15.2-30.58a29.27,29.27,0,0,0-8.62-19.55,5,5,0,0,1,6.66-7.47,39.61,39.61,0,0,1,12,26.73c.37,12.78-5.73,25.54-18.13,37.94l-46.61,46.61A5,5,0,0,1,215.86,428.21Z"/><path class="cls-1" d="M137.18,399.44a13.44,13.44,0,0,1-9.55-3.94l-10.31-10.31a13.52,13.52,0,0,1,0-19.09l93.2-93.21a13.54,13.54,0,0,1,19.1,0l10.31,10.31a13.54,13.54,0,0,1,0,19.1l-93.21,93.2A13.4,13.4,0,0,1,137.18,399.44ZM220.07,279a3.48,3.48,0,0,0-2.47,1l-93.21,93.21a3.47,3.47,0,0,0-1,2.47,3.51,3.51,0,0,0,1,2.48l10.31,10.31h0a3.51,3.51,0,0,0,5,0l93.21-93.2a3.51,3.51,0,0,0,0-5L222.55,280A3.5,3.5,0,0,0,220.07,279Z"/><path class="cls-1" d="M98.43,355.78a5,5,0,0,1-3.53-1.47L67.42,326.84A5,5,0,0,1,67,320.3l19.31-25.68a5,5,0,1,1,8,6l-16.7,22.22,21.33,21.33,21.8-16.44a5,5,0,0,1,6,8l-25.27,19A5,5,0,0,1,98.43,355.78Z"/><path class="cls-1" d="M190.26,447.6a5,5,0,0,1-3.54-1.47l-27.47-27.47a5,5,0,0,1-.47-6.54l19.31-25.68a5,5,0,0,1,8,6l-16.69,22.21L190.72,436l21.79-16.44a5,5,0,0,1,6,8l-25.27,19A4.93,4.93,0,0,1,190.26,447.6Z"/><path class="cls-1" d="M105.92,285.72a5,5,0,0,1-3.69-1.63L12.91,186.27a5,5,0,0,1,.18-6.93c28.38-28,55.43-47.09,95.19-49.54,17.66-1.09,35.36.38,52.48,1.81,15.65,1.3,31.83,2.65,47.69,2,28.73-1.22,55.5-6.24,79.58-14.93,26.16-9.44,45.61-20.77,59.44-34.62a5,5,0,0,1,7.07,7.07c-14.89,14.91-35.54,27-63.12,37-25,9-52.8,14.25-82.55,15.51-16.48.7-33-.68-48.94-2-16.77-1.4-34.1-2.84-51-1.8-35.09,2.16-59.81,18.77-85.34,43.32l86.05,94.25a5,5,0,0,1-3.69,8.37Z"/><path class="cls-1" d="M129.58,263.43a4.94,4.94,0,0,1-3.53-1.46L35.12,171A5,5,0,0,1,42.19,164l90.93,90.93a5,5,0,0,1-3.54,8.53Z"/><path class="cls-1" d="M330.41,501.71a5,5,0,0,1-3.37-1.3l-97.82-89.32A5,5,0,0,1,236,403.7l94.25,86.06c24.55-25.54,41.16-50.26,43.32-85.35,1.05-16.93-.4-34.26-1.79-51-1.33-16-2.71-32.47-2-48.95,1.26-29.74,6.48-57.52,15.52-82.55,9.95-27.58,22-48.23,36.95-63.12a5,5,0,0,1,7.07,7.08c-13.85,13.83-25.18,33.27-34.62,59.43-8.69,24.08-13.71,50.86-14.93,79.58-.67,15.86.68,32,2,47.7,1.43,17.11,2.9,34.81,1.81,52.47-2.45,39.76-21.57,66.81-49.54,95.19A5,5,0,0,1,330.41,501.71Z"/><path class="cls-1" d="M345.8,479.66a5,5,0,0,1-3.53-1.47l-89.9-89.9a5,5,0,1,1,7.07-7.07l89.9,89.9a5,5,0,0,1-3.54,8.54Z"/><path class="cls-1" d="M405.93,187.12a5,5,0,0,1-3.54-1.47l-74.73-74.73a5,5,0,0,1,7.07-7.07l74.73,74.73a5,5,0,0,1-3.53,8.54Z"/><path class="cls-1" d="M429,129.47a14.86,14.86,0,0,1-10.6-4.38L388.22,94.92a15,15,0,0,1,0-21.22l12.84-12.84a15,15,0,0,1,21.21,0L452.45,91a15,15,0,0,1,0,21.21l-12.84,12.84A14.88,14.88,0,0,1,429,129.47Zm-17.33-63a5,5,0,0,0-3.54,1.45L395.29,80.77a5,5,0,0,0,0,7.08L425.47,118a5,5,0,0,0,7.07,0l12.84-12.84a5,5,0,0,0,0-7.07L415.2,67.93A5,5,0,0,0,411.67,66.48Z"/><path class="cls-1" d="M163.63,330.64a5,5,0,0,1-3.53-1.46l-50.63-50.63a5,5,0,1,1,7.07-7.07l50.63,50.62a5,5,0,0,1-3.54,8.54Z"/><path class="cls-1" d="M238.33,405.34a5,5,0,0,1-3.53-1.46l-50.63-50.63a5,5,0,0,1,7.07-7.07l50.63,50.62a5,5,0,0,1-3.54,8.54Z"/></g><g id="Outline"><path class="cls-1" d="M85.49,175.22A5,5,0,0,1,82,166.68l.93-.93a5,5,0,1,1,7,7.08l-.92.93A5,5,0,0,1,85.49,175.22Z"/><path class="cls-1" d="M100.4,190.18a5,5,0,0,1-3.53-8.54l.93-.93a5,5,0,0,1,7.06,7.08l-.93.93A5,5,0,0,1,100.4,190.18Z"/><path class="cls-1" d="M115.32,205.14a5,5,0,0,1-3.53-8.54l.93-.93a5,5,0,0,1,7.06,7.08l-.93.93A5,5,0,0,1,115.32,205.14Z"/><path class="cls-1" d="M130.24,220.1a5,5,0,0,1-3.53-8.54l.92-.93a5,5,0,1,1,7.06,7.08l-.92.93A5,5,0,0,1,130.24,220.1Z"/><path class="cls-1" d="M299.39,389.76a5,5,0,0,1-3.53-8.54l.93-.93a5,5,0,1,1,7.06,7.08l-.93.93A5,5,0,0,1,299.39,389.76Z"/><path class="cls-1" d="M314.31,404.72a5,5,0,0,1-3.53-8.54l.93-.93a5,5,0,1,1,7.06,7.08l-.93.93A5,5,0,0,1,314.31,404.72Z"/><path class="cls-1" d="M329.23,419.68a5,5,0,0,1-3.54-8.54l.93-.93a5,5,0,1,1,7.06,7.08l-.92.93A5,5,0,0,1,329.23,419.68Z"/><path class="cls-1" d="M344.14,434.64a5,5,0,0,1-3.53-8.54l.93-.93a5,5,0,1,1,7.06,7.08l-.93.93A5,5,0,0,1,344.14,434.64Z"/></g></svg>