<?xml version="1.0" ?><svg viewBox="0 0 512 512" xmlns="http://www.w3.org/2000/svg"><defs><style>.cls-1{fill:#3f456b;}</style></defs><title/><g id="Lines"><path class="cls-1" d="M331,296c-44.22,0-78.3-21.43-97.81-62.12-17.53,3.32-32,.74-42.95-7.69-22.73-17.43-24-54.4-24.56-72.17,0-1.23-.07-2.36-.12-3.38-.67-16.27-9.22-18.26-14.33-19.46l-1.23-.29c-6.84-1.81-8.11-6.91-7.82-9.36a4,4,0,0,1,.11-.58c.6-2.53,2.28-9.71,2.71-12.61a10,10,0,0,1,9.31-8.31,6.57,6.57,0,0,1,.77,0,50.83,50.83,0,0,1,19.12,6.38c9.15,5.15,21.11,15.54,26.12,35.81,1.83,7.4,4.78,12.33,8.52,14.23A11.68,11.68,0,0,0,217,157c.61-24.47,7.11-45.74,19.36-63.25,12.65-18.09,31-31.39,54.5-39.59a26.13,26.13,0,0,1-3.77-9.39,25.89,25.89,0,1,1,50.78.54c37.38-1.35,68.17,12.35,89.49,39.93,11-2.33,32.37-4.61,50.32,6.83,13.23,8.45,21.81,22.64,25.49,42.18,3.57,19,1.06,34.92-7.48,47.36-5.94,8.64-17.77,19.76-40.7,24.77-4.09,21.54-13.45,39.74-27.85,54.13-16.37,16.38-38.9,27.37-67,32.65A158.28,158.28,0,0,1,331,296Zm-94.94-72.83a5,5,0,0,1,4.57,3c10,22.42,24.53,38.86,43.21,48.84,20.54,11,45.59,13.78,74.46,8.35,63.2-11.89,82.4-51.14,87.39-82a5,5,0,0,1,4-4.12c9.86-1.81,27.87-7,37.69-21.29,7-10.17,9-23.57,5.9-39.85-3.14-16.72-10.22-28.7-21-35.59-17.12-10.92-39.34-6.45-45.74-4.82a5,5,0,0,1-5.28-1.9c-20.64-28.34-51.9-41.49-90.43-38a5,5,0,0,1-4.72-7.56,15.89,15.89,0,1,0-23.27,4.38,5,5,0,0,1-1.66,8.76C253.36,75.19,227,110.44,226.93,160.6a5,5,0,0,1-3.1,4.62c-7.16,2.93-13.91,3-19.51.14-6.5-3.31-11.11-10.29-13.7-20.76-7.28-29.42-31.65-34-35.74-34.55h0c-.46,2.9-1.66,8.19-2.35,11.12h.05c.27.08.59.15.95.23,5.21,1.22,21.07,4.93,22.05,28.79.05,1,.09,2.2.13,3.46.54,16.24,1.66,50,20.64,64.56,9.33,7.15,22.32,8.85,38.6,5.05A4.92,4.92,0,0,1,236.07,223.15Zm215.71-50a5,5,0,0,1-5-4.6,171,171,0,0,0-2.47-18.21,138.94,138.94,0,0,0-7.05-26,5,5,0,0,1,4.19-6.77c7.38-.7,27-2.57,31.64,22.18,2.79,14.81-4.09,26.54-19.38,33A4.86,4.86,0,0,1,451.78,173.19Zm-2.84-45.84a162.76,162.76,0,0,1,5.22,21.18c.74,3.93,1.35,7.84,1.83,11.7,6.4-4.51,8.79-10.65,7.29-18.6C461.32,131.18,456.49,127.78,448.94,127.35Z"/><path class="cls-1" d="M237.59,107.76a5,5,0,0,1-.91-9.91L404.6,66.24a5,5,0,1,1,1.85,9.83l-167.92,31.6A5.07,5.07,0,0,1,237.59,107.76Z"/><path class="cls-1" d="M197.65,501H31c-7.11,0-12.54-2.24-16.12-6.65-5.9-7.27-4-17.26-3.77-18.38A5,5,0,0,1,16,472H212.65a5,5,0,0,1,4.89,4c.24,1.12,2.13,11.11-3.77,18.38C210.18,498.76,204.76,501,197.65,501Zm-177-19a10.64,10.64,0,0,0,2,6.07C24.26,490,27.07,491,31,491H197.65c3.93,0,6.74-1,8.33-2.93a10.63,10.63,0,0,0,2-6.07Z"/><path class="cls-1" d="M179,482a5,5,0,0,1-5-5V357H55V477a5,5,0,0,1-10,0V352a5,5,0,0,1,5-5H179a5,5,0,0,1,5,5V477A5,5,0,0,1,179,482Z"/><path class="cls-1" d="M496,501H320.13a5,5,0,0,1-5-5V371a5,5,0,0,1,5-5H496a5,5,0,0,1,5,5V496A5,5,0,0,1,496,501ZM325.13,491H491V376H325.13Z"/><path class="cls-1" d="M179,451a5,5,0,0,1-2.42-9.37l33.17-18.39a4.25,4.25,0,0,1,.43-.21c.16-.07,16.63-7.42,20.87-18.89a15.33,15.33,0,0,0-.85-12.48c-2.19-4.55-5.24-7.38-9.31-8.66-9.87-3.09-22.59,3.85-22.71,3.92L181.4,396.1a5,5,0,1,1-4.8-8.77l16.72-9.15c.61-.35,16.44-9.15,30.56-4.72,6.76,2.12,11.92,6.79,15.33,13.87a25.1,25.1,0,0,1,1.2,20.31c-5.47,14.75-23.59,23.36-26,24.45l-33,18.28A4.91,4.91,0,0,1,179,451Z"/><path class="cls-1" d="M74.67,356.32a5,5,0,0,1-5-4.54c-.46-5-.7-10.18-.7-15.28A164.52,164.52,0,0,1,171.62,184a5,5,0,0,1,3.76,9.26A154.56,154.56,0,0,0,79,336.5c0,4.79.22,9.63.66,14.36a5,5,0,0,1-4.52,5.44A3.7,3.7,0,0,1,74.67,356.32Z"/><path class="cls-1" d="M233.5,501a165.88,165.88,0,0,1-26.29-2.09,5,5,0,1,1,1.58-9.87,156.66,156.66,0,0,0,24.71,2A154,154,0,0,0,317,466.55a5,5,0,0,1,5.41,8.41A163.9,163.9,0,0,1,233.5,501Z"/><path class="cls-1" d="M392.38,327.42a5,5,0,0,1-5-4.57A153.79,153.79,0,0,0,379,284.47a5,5,0,0,1,9.42-3.37A164,164,0,0,1,397.37,322a5,5,0,0,1-4.55,5.42Z"/><path class="cls-1" d="M488.87,376a4,4,0,0,1-.6,0,5,5,0,0,1-4.37-5.54h0c0-.11,1.13-10.62-4.36-16.77-2.8-3.13-6.88-4.65-12.48-4.65H424.38a5,5,0,0,1-5-5V331c0-.12,0-.24,0-.36h0a7.52,7.52,0,0,0-1.91-4.91c-1.74-1.81-4.73-2.73-8.88-2.73h-1.85c-4.2,0-7.21.94-8.95,2.81a7.47,7.47,0,0,0-1.84,4.83c0,.12,0,.24,0,.36v13a5,5,0,0,1-5,5H348.29c-5.62,0-9.71,1.53-12.5,4.68-5.44,6.13-4.35,16.62-4.34,16.72a5,5,0,1,1-9.92,1.2c-.08-.61-1.7-15,6.78-24.56,4.73-5.33,11.46-8,20-8H386v-7.88A17.45,17.45,0,0,1,390.48,319c3.71-4,9.18-6,16.27-6h1.85c7.09,0,12.57,2,16.27,6a17.45,17.45,0,0,1,4.51,12.13V339h37.68c8.53,0,15.25,2.71,20,8,8.48,9.56,6.86,23.95,6.79,24.56A5,5,0,0,1,488.87,376Z"/></g><g id="Outline"><path class="cls-1" d="M263.83,408.47a5,5,0,0,1-2.07-9.55,68.6,68.6,0,0,0,36.05-86.07,5,5,0,1,1,9.38-3.46A78.58,78.58,0,0,1,265.89,408,4.88,4.88,0,0,1,263.83,408.47Z"/><path class="cls-1" d="M161.49,356.33a5,5,0,0,1-4.89-4A78.56,78.56,0,0,1,233.5,258a5,5,0,0,1,0,10A68.58,68.58,0,0,0,165,336.5a69.29,69.29,0,0,0,1.39,13.82,5,5,0,0,1-3.89,5.9A5,5,0,0,1,161.49,356.33Z"/><path class="cls-1" d="M233.5,472a134.37,134.37,0,0,1-56-12.08,5,5,0,1,1,4.14-9.1,125.64,125.64,0,0,0,134.71-20.05,5,5,0,0,1,6.61,7.51A135.42,135.42,0,0,1,233.5,472Z"/><path class="cls-1" d="M363.9,346.83h-.2a5,5,0,0,1-4.8-5.2c.07-1.71.1-3.44.1-5.13a125.08,125.08,0,0,0-8.37-45.17,5,5,0,0,1,9.33-3.6,135,135,0,0,1,9,48.77c0,1.83,0,3.69-.11,5.53A5,5,0,0,1,363.9,346.83Z"/><path class="cls-1" d="M103.77,355.8a5,5,0,0,1-5-4.46A138.37,138.37,0,0,1,98,336.5a135.54,135.54,0,0,1,85.48-126,5,5,0,0,1,3.69,9.3,125.63,125.63,0,0,0-78.42,130.43,5,5,0,0,1-4.43,5.51Z"/><path class="cls-1" d="M227,130a5,5,0,0,1-.92-9.91l195-37a5,5,0,0,1,1.86,9.82l-195,37A5,5,0,0,1,227,130Z"/><path class="cls-1" d="M179,384H50a5,5,0,0,1,0-10H179a5,5,0,0,1,0,10Z"/><path class="cls-1" d="M495,402H322a5,5,0,0,1,0-10H495a5,5,0,0,1,0,10Z"/><path class="cls-1" d="M367,261a5,5,0,0,1-1.48-9.78c62.4-19.27,48.29-73.59,47.66-75.89a5,5,0,0,1,9.64-2.67,77.89,77.89,0,0,1,0,35.62c-7.57,31.85-33.75,46.13-54.38,52.5A5.11,5.11,0,0,1,367,261Z"/><path class="cls-1" d="M470,479a5,5,0,0,1-5-5V419a5,5,0,0,1,10,0v55A5,5,0,0,1,470,479Z"/></g></svg>