<?xml version="1.0" ?><svg viewBox="0 0 512 512" xmlns="http://www.w3.org/2000/svg"><defs><style>.cls-1{fill:#3f456b;}</style></defs><title/><g id="Lines"><path class="cls-1" d="M257.25,500.5a28.5,28.5,0,1,1,28.5-28.5A28.54,28.54,0,0,1,257.25,500.5Zm0-47a18.5,18.5,0,1,0,18.5,18.5A18.52,18.52,0,0,0,257.25,453.5Z"/><path class="cls-1" d="M473.25,437a29,29,0,1,1,29-29A29,29,0,0,1,473.25,437Zm0-48a19,19,0,1,0,19,19A19,19,0,0,0,473.25,389Z"/><path class="cls-1" d="M39.75,437a29,29,0,1,1,29-29A29,29,0,0,1,39.75,437Zm0-48a19,19,0,1,0,19,19A19,19,0,0,0,39.75,389Z"/><path class="cls-1" d="M405.69,356.15H296.42a5,5,0,0,1-5-5V275.32H220.58v75.83a5,5,0,0,1-5,5H111.44a5,5,0,0,1-5-5V190H68a5,5,0,0,1-3.33-8.73l188-167.65a5,5,0,0,1,6.66,0l188,167.65A5,5,0,0,1,444,190H410.69V351.15A5,5,0,0,1,405.69,356.15Zm-104.27-10h99.27V185a5,5,0,0,1,5-5h25.2L256,24,81.11,180h30.33a5,5,0,0,1,5,5V346.15h94.14V270.32a5,5,0,0,1,5-5h80.84a5,5,0,0,1,5,5Z"/></g><g id="Outline"><path class="cls-1" d="M252.25,448.5a5,5,0,0,1,5-5h0a5,5,0,0,1,5,5h0a5,5,0,0,1-5,5h0A5,5,0,0,1,252.25,448.5Zm0-20a5,5,0,0,1,5-5h0a5,5,0,0,1,5,5h0a5,5,0,0,1-5,5h0A5,5,0,0,1,252.25,428.5Zm0-20a5,5,0,0,1,5-5h0a5,5,0,0,1,5,5h0a5,5,0,0,1-5,5h0A5,5,0,0,1,252.25,408.5Zm0-20a5,5,0,0,1,5-5h0a5,5,0,0,1,5,5h0a5,5,0,0,1-5,5h0A5,5,0,0,1,252.25,388.5Zm0-20a5,5,0,0,1,5-5h0a5,5,0,0,1,5,5h0a5,5,0,0,1-5,5h0A5,5,0,0,1,252.25,368.5Zm0-20a5,5,0,0,1,5-5h0a5,5,0,0,1,5,5h0a5,5,0,0,1-5,5h0A5,5,0,0,1,252.25,348.5Zm0-20a5,5,0,0,1,5-5h0a5,5,0,0,1,5,5h0a5,5,0,0,1-5,5h0A5,5,0,0,1,252.25,328.5Zm0-20a5,5,0,0,1,5-5h0a5,5,0,0,1,5,5h0a5,5,0,0,1-5,5h0A5,5,0,0,1,252.25,308.5Zm0-20a5,5,0,0,1,5-5h0a5,5,0,0,1,5,5h0a5,5,0,0,1-5,5h0A5,5,0,0,1,252.25,288.5Z"/><path class="cls-1" d="M477.63,471.5a5,5,0,0,1,5-5h0a5,5,0,0,1,5,5h0a5,5,0,0,1-5,5h0A5,5,0,0,1,477.63,471.5Zm-20,0a5,5,0,0,1,5-5h0a5,5,0,0,1,5,5h0a5,5,0,0,1-5,5h0A5,5,0,0,1,457.64,471.5Zm-20,0a5,5,0,0,1,5-5h0a5,5,0,0,1,5,5h0a5,5,0,0,1-5,5h0A5,5,0,0,1,437.64,471.5Zm-20,0a5,5,0,0,1,5-5h0a5,5,0,0,1,5,5h0a5,5,0,0,1-5,5h0A5,5,0,0,1,417.64,471.5Zm-20,0a5,5,0,0,1,5-5h0a5,5,0,0,1,5,5h0a5,5,0,0,1-5,5h0A5,5,0,0,1,397.64,471.5Zm-20,0a5,5,0,0,1,5-5h0a5,5,0,0,1,5,5h0a5,5,0,0,1-5,5h0A5,5,0,0,1,377.63,471.5Zm-20,0a5,5,0,0,1,5-5h0a5,5,0,0,1,5,5h0a5,5,0,0,1-5,5h0A5,5,0,0,1,357.64,471.5Zm-20,0a5,5,0,0,1,5-5h0a5,5,0,0,1,5,5h0a5,5,0,0,1-5,5h0A5,5,0,0,1,337.64,471.5Zm-20,0a5,5,0,0,1,5-5h0a5,5,0,0,1,5,5h0a5,5,0,0,1-5,5h0A5,5,0,0,1,317.64,471.5Zm-20,0a5,5,0,0,1,5-5h0a5,5,0,0,1,5,5h0a5,5,0,0,1-5,5h0A5,5,0,0,1,297.64,471.5Zm-20,0a5,5,0,0,1,5-5h0a5,5,0,0,1,5,5h0a5,5,0,0,1-5,5h0A5,5,0,0,1,277.64,471.5Z"/><path class="cls-1" d="M214.25,471.5a5,5,0,0,1,5-5h0a5,5,0,0,1,5,5h0a5,5,0,0,1-5,5h0A5,5,0,0,1,214.25,471.5Zm-20,0a5,5,0,0,1,5-5h0a5,5,0,0,1,5,5h0a5,5,0,0,1-5,5h0A5,5,0,0,1,194.25,471.5Zm-20,0a5,5,0,0,1,5-5h0a5,5,0,0,1,5,5h0a5,5,0,0,1-5,5h0A5,5,0,0,1,174.25,471.5Zm-20,0a5,5,0,0,1,5-5h0a5,5,0,0,1,5,5h0a5,5,0,0,1-5,5h0A5,5,0,0,1,154.25,471.5Zm-20,0a5,5,0,0,1,5-5h0a5,5,0,0,1,5,5h0a5,5,0,0,1-5,5h0A5,5,0,0,1,134.25,471.5Zm-20,0a5,5,0,0,1,5-5h0a5,5,0,0,1,5,5h0a5,5,0,0,1-5,5h0A5,5,0,0,1,114.25,471.5Zm-20,0a5,5,0,0,1,5-5h0a5,5,0,0,1,5,5h0a5,5,0,0,1-5,5h0A5,5,0,0,1,94.25,471.5Zm-20,0a5,5,0,0,1,5-5h0a5,5,0,0,1,5,5h0a5,5,0,0,1-5,5h0A5,5,0,0,1,74.25,471.5Zm-20,0a5,5,0,0,1,5-5h0a5,5,0,0,1,5,5h0a5,5,0,0,1-5,5h0A5,5,0,0,1,54.25,471.5Zm-20,0a5,5,0,0,1,5-5h0a5,5,0,0,1,5,5h0a5,5,0,0,1-5,5h0A5,5,0,0,1,34.25,471.5Zm-20,0a5,5,0,0,1,5-5h0a5,5,0,0,1,5,5h0a5,5,0,0,1-5,5h0A5,5,0,0,1,14.25,471.5Z"/><path class="cls-1" d="M170.75,408a5,5,0,0,1,5-5h0a5,5,0,0,1,5,5h0a5,5,0,0,1-5,5h0A5,5,0,0,1,170.75,408Zm-20,0a5,5,0,0,1,5-5h0a5,5,0,0,1,5,5h0a5,5,0,0,1-5,5h0A5,5,0,0,1,150.75,408Zm-20,0a5,5,0,0,1,5-5h0a5,5,0,0,1,5,5h0a5,5,0,0,1-5,5h0A5,5,0,0,1,130.75,408Zm-20,0a5,5,0,0,1,5-5h0a5,5,0,0,1,5,5h0a5,5,0,0,1-5,5h0A5,5,0,0,1,110.75,408Zm-20,0a5,5,0,0,1,5-5h0a5,5,0,0,1,5,5h0a5,5,0,0,1-5,5h0A5,5,0,0,1,90.75,408Zm-20,0a5,5,0,0,1,5-5h0a5,5,0,0,1,5,5h0a5,5,0,0,1-5,5h0A5,5,0,0,1,70.75,408Zm117.5-2.5a5,5,0,0,1,5-5h0a5,5,0,0,1,5,5h0a5,5,0,0,1-5,5h0A5,5,0,0,1,188.25,405.5Zm0-20a5,5,0,0,1,5-5h0a5,5,0,0,1,5,5h0a5,5,0,0,1-5,5h0A5,5,0,0,1,188.25,385.5Zm0-20a5,5,0,0,1,5-5h0a5,5,0,0,1,5,5h0a5,5,0,0,1-5,5h0A5,5,0,0,1,188.25,365.5Z"/><path class="cls-1" d="M433.75,408a5,5,0,0,1,5-5h0a5,5,0,0,1,5,5h0a5,5,0,0,1-5,5h0A5,5,0,0,1,433.75,408Zm-20,0a5,5,0,0,1,5-5h0a5,5,0,0,1,5,5h0a5,5,0,0,1-5,5h0A5,5,0,0,1,413.75,408Zm-20,0a5,5,0,0,1,5-5h0a5,5,0,0,1,5,5h0a5,5,0,0,1-5,5h0A5,5,0,0,1,393.75,408Zm-20,0a5,5,0,0,1,5-5h0a5,5,0,0,1,5,5h0a5,5,0,0,1-5,5h0A5,5,0,0,1,373.75,408Zm-20,0a5,5,0,0,1,5-5h0a5,5,0,0,1,5,5h0a5,5,0,0,1-5,5h0A5,5,0,0,1,353.75,408Zm-20,0a5,5,0,0,1,5-5h0a5,5,0,0,1,5,5h0a5,5,0,0,1-5,5h0A5,5,0,0,1,333.75,408Zm-17.5-2.5a5,5,0,0,1,5-5h0a5,5,0,0,1,5,5h0a5,5,0,0,1-5,5h0A5,5,0,0,1,316.25,405.5Zm0-20a5,5,0,0,1,5-5h0a5,5,0,0,1,5,5h0a5,5,0,0,1-5,5h0A5,5,0,0,1,316.25,385.5Zm0-20a5,5,0,0,1,5-5h0a5,5,0,0,1,5,5h0a5,5,0,0,1-5,5h0A5,5,0,0,1,316.25,365.5Z"/><path class="cls-1" d="M210.55,237.76a5,5,0,0,1-3.53-8.53,69.26,69.26,0,0,1,98,0,5,5,0,1,1-7.07,7.07,59.27,59.27,0,0,0-83.82,0A5,5,0,0,1,210.55,237.76Z"/><path class="cls-1" d="M328,211.26a5,5,0,0,1-3.54-1.46,96.74,96.74,0,0,0-136.82,0,5,5,0,0,1-7.07-7.07,106.73,106.73,0,0,1,151,0,5,5,0,0,1-3.53,8.53Z"/><path class="cls-1" d="M156.31,183.52a5,5,0,0,1-3.54-8.54,146,146,0,0,1,206.46,0,5,5,0,1,1-7.07,7.07,136,136,0,0,0-192.32,0A5,5,0,0,1,156.31,183.52Z"/></g></svg>