<?xml version="1.0" ?><svg viewBox="0 0 512 512" xmlns="http://www.w3.org/2000/svg"><defs><style>.cls-1{fill:#3f456b;}</style></defs><title/><g id="Lines"><path class="cls-1" d="M224.33,84.33H33a5,5,0,0,1,0-10H224.33a5,5,0,0,1,0,10Z"/><path class="cls-1" d="M143,243H112a5,5,0,0,1-5-5v-9H63a35,35,0,0,1-35-35V62A35,35,0,0,1,63,27H195a35,35,0,0,1,35,35V194a35,35,0,0,1-35,35H148v9A5,5,0,0,1,143,243Zm-26-10h21v-9a5,5,0,0,1,5-5h52a25,25,0,0,0,25-25V62a25,25,0,0,0-25-25H63A25,25,0,0,0,38,62V194a25,25,0,0,0,25,25h49a5,5,0,0,1,5,5Z"/><path class="cls-1" d="M112.49,37a5,5,0,0,1-5-4.53c-.09-.93-.68-9.23,5-15.42C116.13,13,121.36,11,128,11c6.82,0,12.17,2,15.92,6A20.22,20.22,0,0,1,149,31.33a5,5,0,1,1-10-.66h0s.16-4.13-2.44-6.85C134.78,22,131.9,21,128,21c-3.71,0-6.45.94-8.13,2.79-2.71,3-2.4,7.7-2.39,7.74A5,5,0,0,1,113,37Z"/><path class="cls-1" d="M480.33,84.33H289a5,5,0,0,1,0-10H480.33a5,5,0,0,1,0,10Z"/><path class="cls-1" d="M399,243H368a5,5,0,0,1-5-5v-9H319a35,35,0,0,1-35-35V62a35,35,0,0,1,35-35H451a35,35,0,0,1,35,35V194a35,35,0,0,1-35,35H404v9A5,5,0,0,1,399,243Zm-26-10h21v-9a5,5,0,0,1,5-5h52a25,25,0,0,0,25-25V62a25,25,0,0,0-25-25H319a25,25,0,0,0-25,25V194a25,25,0,0,0,25,25h49a5,5,0,0,1,5,5Z"/><path class="cls-1" d="M368.49,37a5,5,0,0,1-5-4.53c-.09-.93-.68-9.23,5-15.42C372.13,13,377.36,11,384,11c6.82,0,12.17,2,15.92,6A20.22,20.22,0,0,1,405,31.33a5,5,0,1,1-10-.66h0s.16-4.13-2.44-6.85C390.78,22,387.9,21,384,21c-3.71,0-6.45.94-8.13,2.79-2.71,3-2.4,7.7-2.39,7.74A5,5,0,0,1,369,37Z"/><path class="cls-1" d="M224.33,339.33H33a5,5,0,0,1,0-10H224.33a5,5,0,0,1,0,10Z"/><path class="cls-1" d="M143,498H112a5,5,0,0,1-5-5v-9H63a35,35,0,0,1-35-35V317a35,35,0,0,1,35-35H195a35,35,0,0,1,35,35V449a35,35,0,0,1-35,35H148v9A5,5,0,0,1,143,498Zm-26-10h21v-9a5,5,0,0,1,5-5h52a25,25,0,0,0,25-25V317a25,25,0,0,0-25-25H63a25,25,0,0,0-25,25V449a25,25,0,0,0,25,25h49a5,5,0,0,1,5,5Z"/><path class="cls-1" d="M112.49,292a5,5,0,0,1-5-4.53c-.09-.93-.68-9.23,5-15.42,3.66-4,8.89-6.05,15.53-6.05,6.82,0,12.17,2,15.92,6A20.22,20.22,0,0,1,149,286.33a5,5,0,1,1-10-.66h0s.16-4.13-2.44-6.85C134.78,277,131.9,276,128,276c-3.71,0-6.45.94-8.13,2.79-2.71,3-2.4,7.7-2.39,7.74A5,5,0,0,1,113,292Z"/><path class="cls-1" d="M480.33,339.33H289a5,5,0,0,1,0-10H480.33a5,5,0,0,1,0,10Z"/><path class="cls-1" d="M399,498H368a5,5,0,0,1-5-5v-9H319a35,35,0,0,1-35-35V317a35,35,0,0,1,35-35H451a35,35,0,0,1,35,35V449a35,35,0,0,1-35,35H404v9A5,5,0,0,1,399,498Zm-26-10h21v-9a5,5,0,0,1,5-5h52a25,25,0,0,0,25-25V317a25,25,0,0,0-25-25H319a25,25,0,0,0-25,25V449a25,25,0,0,0,25,25h49a5,5,0,0,1,5,5Z"/><path class="cls-1" d="M368.49,292a5,5,0,0,1-5-4.53c-.09-.93-.68-9.23,5-15.42,3.66-4,8.89-6.05,15.53-6.05,6.82,0,12.17,2,15.92,6A20.22,20.22,0,0,1,405,286.33a5,5,0,1,1-10-.66h0s.16-4.13-2.44-6.85C390.78,277,387.9,276,384,276c-3.71,0-6.45.94-8.13,2.79-2.71,3-2.4,7.7-2.39,7.74A5,5,0,0,1,369,292Z"/></g><g id="Outline"><path class="cls-1" d="M157.43,192a5,5,0,0,1-4.72-3.35L129,120.87l-24.7,67.84a5,5,0,0,1-9.4-3.42l29.49-81a4.94,4.94,0,0,1,4.73-3.29,5,5,0,0,1,4.69,3.35l28.37,81a5,5,0,0,1-4.72,6.65Z"/><path class="cls-1" d="M150.82,175.47H106.18a5,5,0,1,1,0-10h44.64a5,5,0,0,1,0,10Z"/><path class="cls-1" d="M396.11,192H362.28a5,5,0,0,1-5-5V106.26a5,5,0,0,1,5-5h24.81c1.12,0,12.3,0,19.63,7.24,4.14,4,6.24,9.41,6.24,15.93,0,9.69-2.56,16-6.12,20.16,6.22,3.16,12.88,9.67,12.88,23.08,0,18.68-15.34,24.08-23.45,24.33Zm-28.83-10H396c2.39-.11,13.71-1.35,13.71-14.33,0-6.54-2.14-11-6.54-13.71a17.15,17.15,0,0,0-7.2-2.33h-28.7Zm0-40.37H393l.21-.06c2.66-.66,9.75-2.43,9.75-17.14,0-3.79-1.06-6.66-3.23-8.79-4.52-4.42-12.42-4.39-12.51-4.38H367.28Z"/><path class="cls-1" d="M431.11,449H397.28a5,5,0,0,1-5-5V363.26a5,5,0,0,1,5-5h24.81c1.11,0,12.3.05,19.63,7.24,4.14,4.05,6.24,9.41,6.24,15.93,0,9.69-2.56,16-6.12,20.16,6.22,3.16,12.88,9.67,12.88,23.08,0,18.68-15.34,24.08-23.45,24.33Zm-28.83-10H431c2.39-.11,13.71-1.35,13.71-14.33,0-6.54-2.14-11-6.54-13.71a17.15,17.15,0,0,0-7.2-2.33h-28.7Zm0-40.37H428l.21-.06c2.66-.66,9.75-2.43,9.75-17.14,0-3.79-1.06-6.66-3.23-8.79-4.52-4.42-12.42-4.39-12.51-4.38H402.28Z"/><path class="cls-1" d="M128,449c-31.3,0-31.67-31.35-31.67-31.67V390.67c0-.32.37-31.67,31.67-31.67s31.67,31.35,31.67,31.67v26.66C159.67,417.65,159.3,449,128,449Zm0-80c-21.42,0-21.67,20.78-21.67,21.67v26.66c0,2.2.79,21.67,21.67,21.67,21.42,0,21.67-20.78,21.67-21.67V390.67C149.65,388.47,148.88,369,128,369Z"/><path class="cls-1" d="M378.43,449a5,5,0,0,1-4.72-3.35L350,377.87l-24.7,67.84a5,5,0,0,1-9.4-3.42l29.49-81a5,5,0,0,1,4.7-3.29h0a5,5,0,0,1,4.69,3.35l28.37,81a5,5,0,0,1-4.72,6.65Z"/><path class="cls-1" d="M371.82,432.47H327.18a5,5,0,0,1,0-10h44.64a5,5,0,0,1,0,10Z"/></g></svg>