<?xml version="1.0" ?><svg enable-background="new 0 0 512 512" version="1.1" viewBox="0 0 512 512" xml:space="preserve" xmlns="http://www.w3.org/2000/svg" xmlns:xlink="http://www.w3.org/1999/xlink"><g id="Colors"><g><path d="M58.636,474.336c-1.271,0-2.541-0.481-3.516-1.444l-21.957-21.71c-1.963-1.942-1.981-5.107-0.04-7.071    c1.943-1.963,5.108-1.98,7.071-0.04l21.957,21.71c1.963,1.942,1.981,5.107,0.04,7.071    C61.214,473.841,59.925,474.336,58.636,474.336z" fill="#3F456B"/></g><g><path d="M165.897,474.386c-1.261,0-2.522-0.474-3.495-1.425c-1.975-1.931-2.01-5.096-0.08-7.071l21.277-21.76    c1.931-1.974,5.097-2.01,7.071-0.08c1.975,1.931,2.01,5.096,0.08,7.071l-21.277,21.76    C168.494,473.883,167.196,474.386,165.897,474.386z" fill="#3F456B"/></g><g><path d="M112.277,452.146c-2.756,0-4.994-2.231-5-4.989l-0.07-31.146c-0.006-2.761,2.227-5.005,4.989-5.011    c0.003,0,0.008,0,0.011,0c2.756,0,4.994,2.231,5,4.989l0.07,31.146c0.006,2.761-2.227,5.005-4.989,5.011    C112.285,452.146,112.28,452.146,112.277,452.146z" fill="#3F456B"/></g><g><path d="M42.181,498.936c-0.632,0-1.274-0.121-1.895-0.375l-17.72-7.263c-2.555-1.047-3.777-3.968-2.73-6.523    c1.047-2.555,3.967-3.778,6.523-2.73l17.72,7.263c2.555,1.047,3.777,3.968,2.73,6.523    C46.017,497.765,44.15,498.936,42.181,498.936z" fill="#3F456B"/></g><g><path d="M141.297,457.935c-0.632,0-1.273-0.121-1.895-0.375c-2.555-1.047-3.777-3.968-2.73-6.523l7.263-17.72    c1.047-2.555,3.966-3.778,6.523-2.73c2.555,1.047,3.777,3.968,2.73,6.523l-7.263,17.72    C145.133,456.764,143.266,457.935,141.297,457.935z" fill="#3F456B"/></g><g><path d="M182.33,499.001c-1.956,0-3.812-1.154-4.614-3.071c-1.066-2.547,0.135-5.477,2.682-6.543l17.666-7.394    c2.548-1.067,5.477,0.134,6.543,2.682c1.066,2.547-0.135,5.477-2.682,6.543l-17.666,7.394    C183.627,498.876,182.973,499.001,182.33,499.001z" fill="#3F456B"/></g><g><path d="M83.251,457.908c-1.956,0-3.812-1.154-4.614-3.071l-7.394-17.666c-1.066-2.547,0.135-5.477,2.682-6.543    c2.547-1.067,5.477,0.134,6.543,2.682l7.394,17.666c1.066,2.547-0.135,5.477-2.682,6.543    C84.549,457.783,83.895,457.908,83.251,457.908z" fill="#3F456B"/></g><g><path d="M346.636,474.336c-1.271,0-2.541-0.481-3.516-1.444l-21.957-21.71c-1.963-1.942-1.981-5.107-0.04-7.071    c1.943-1.963,5.108-1.98,7.071-0.04l21.957,21.71c1.963,1.942,1.981,5.107,0.04,7.071    C349.214,473.841,347.925,474.336,346.636,474.336z" fill="#3F456B"/></g><g><path d="M453.897,474.386c-1.261,0-2.522-0.474-3.495-1.425c-1.975-1.931-2.01-5.096-0.08-7.071l21.277-21.76    c1.931-1.974,5.096-2.01,7.071-0.08s2.01,5.096,0.08,7.071l-21.277,21.76C456.494,473.883,455.196,474.386,453.897,474.386z" fill="#3F456B"/></g><g><path d="M400.277,452.146c-2.756,0-4.994-2.231-5-4.989l-0.07-31.146c-0.006-2.761,2.227-5.005,4.989-5.011    c0.003,0,0.008,0,0.011,0c2.756,0,4.994,2.231,5,4.989l0.07,31.146c0.006,2.761-2.227,5.005-4.989,5.011    C400.285,452.146,400.28,452.146,400.277,452.146z" fill="#3F456B"/></g><g><path d="M330.181,498.936c-0.632,0-1.274-0.121-1.895-0.375l-17.72-7.263c-2.555-1.047-3.777-3.968-2.73-6.523    c1.047-2.555,3.969-3.778,6.523-2.73l17.72,7.263c2.555,1.047,3.777,3.968,2.73,6.523    C334.017,497.765,332.15,498.936,330.181,498.936z" fill="#3F456B"/></g><g><path d="M429.297,457.935c-0.632,0-1.273-0.121-1.895-0.375c-2.555-1.047-3.777-3.968-2.73-6.523l7.263-17.72    c1.047-2.555,3.966-3.778,6.523-2.73c2.555,1.047,3.777,3.968,2.73,6.523l-7.263,17.72    C433.133,456.764,431.266,457.935,429.297,457.935z" fill="#3F456B"/></g><g><path d="M470.33,499.001c-1.956,0-3.812-1.154-4.614-3.071c-1.066-2.547,0.135-5.477,2.682-6.543l17.666-7.394    c2.547-1.067,5.477,0.134,6.543,2.682c1.066,2.547-0.135,5.477-2.682,6.543l-17.666,7.394    C471.627,498.876,470.973,499.001,470.33,499.001z" fill="#3F456B"/></g><g><path d="M371.251,457.908c-1.956,0-3.812-1.154-4.614-3.071l-7.394-17.666c-1.066-2.547,0.135-5.477,2.682-6.543    c2.547-1.067,5.477,0.134,6.543,2.682l7.394,17.666c1.066,2.547-0.135,5.477-2.682,6.543    C372.549,457.783,371.895,457.908,371.251,457.908z" fill="#3F456B"/></g><g><path d="M441,141c-12.131,0-22-9.869-22-22s9.869-22,22-22s22,9.869,22,22S453.131,141,441,141z M441,107    c-6.617,0-12,5.383-12,12s5.383,12,12,12s12-5.383,12-12S447.617,107,441,107z" fill="#3F456B"/></g><g><g><path d="M58.793,137.282c-1.28,0-2.559-0.488-3.536-1.464c-1.953-1.953-1.953-5.119,0-7.071L84.04,99.964     c1.953-1.952,5.118-1.952,7.071,0c1.953,1.953,1.953,5.119,0,7.071l-28.782,28.782C61.352,136.794,60.073,137.282,58.793,137.282     z" fill="#3F456B"/></g><g><path d="M87.575,137.282c-1.28,0-2.559-0.488-3.536-1.464l-28.782-28.782c-1.953-1.953-1.953-5.119,0-7.071     c1.953-1.952,5.118-1.952,7.071,0l28.782,28.782c1.953,1.953,1.953,5.119,0,7.071C90.134,136.794,88.855,137.282,87.575,137.282z     " fill="#3F456B"/></g></g></g><g id="Lines"><g><path d="M496,404H16c-2.761,0-5-2.239-5-5V79c0-2.761,2.239-5,5-5h480c2.761,0,5,2.239,5,5v320    C501,401.761,498.761,404,496,404z M21,394h470V84H21V394z" fill="#3F456B"/></g><g><path d="M364,119c0-2.76,2.24-5,5-5l0,0c2.76,0,5,2.24,5,5l0,0c0,2.76-2.24,5-5,5l0,0    C366.24,124,364,121.76,364,119z M344,119c0-2.76,2.24-5,5-5l0,0c2.76,0,5,2.24,5,5l0,0c0,2.76-2.24,5-5,5l0,0    C346.24,124,344,121.76,344,119z M324,119c0-2.76,2.24-5,5-5l0,0c2.76,0,5,2.24,5,5l0,0c0,2.76-2.24,5-5,5l0,0    C326.24,124,324,121.76,324,119z M304,119c0-2.76,2.24-5,5-5l0,0c2.76,0,5,2.24,5,5l0,0c0,2.76-2.24,5-5,5l0,0    C306.24,124,304,121.76,304,119z M284,119c0-2.76,2.24-5,5-5l0,0c2.76,0,5,2.24,5,5l0,0c0,2.76-2.24,5-5,5l0,0    C286.24,124,284,121.76,284,119z M264,119c0-2.76,2.24-5,5-5l0,0c2.76,0,5,2.24,5,5l0,0c0,2.76-2.24,5-5,5l0,0    C266.24,124,264,121.76,264,119z M244,119c0-2.76,2.24-5,5-5l0,0c2.76,0,5,2.24,5,5l0,0c0,2.76-2.24,5-5,5l0,0    C246.24,124,244,121.76,244,119z M224,119c0-2.76,2.24-5,5-5l0,0c2.76,0,5,2.24,5,5l0,0c0,2.76-2.24,5-5,5l0,0    C226.24,124,224,121.76,224,119z M204,119c0-2.76,2.24-5,5-5l0,0c2.76,0,5,2.24,5,5l0,0c0,2.76-2.24,5-5,5l0,0    C206.24,124,204,121.76,204,119z M184,119c0-2.76,2.24-5,5-5l0,0c2.76,0,5,2.24,5,5l0,0c0,2.76-2.24,5-5,5l0,0    C186.24,124,184,121.76,184,119z M164,119c0-2.76,2.24-5,5-5l0,0c2.76,0,5,2.24,5,5l0,0c0,2.76-2.24,5-5,5l0,0    C166.24,124,164,121.76,164,119z M144,119c0-2.76,2.24-5,5-5l0,0c2.76,0,5,2.24,5,5l0,0c0,2.76-2.24,5-5,5l0,0    C146.24,124,144,121.76,144,119z" fill="#3F456B"/></g><g><path d="M351,372H164c-2.761,0-5-2.239-5-5s2.239-5,5-5h187c2.761,0,5,2.239,5,5S353.761,372,351,372z" fill="#3F456B"/></g><g><path d="M258,353c-2.761,0-5-2.239-5-5v-36c0-2.761,2.239-5,5-5s5,2.239,5,5v36C263,350.761,260.761,353,258,353z" fill="#3F456B"/></g><g><path d="M288,500h-63c-2.761,0-5-2.239-5-5v-96c0-2.761,2.239-5,5-5h63c2.761,0,5,2.239,5,5v96    C293,497.761,290.761,500,288,500z M230,490h53v-86h-53V490z" fill="#3F456B"/></g><g><g><path d="M64,52H16c-2.761,0-5-2.239-5-5V15c0-2.761,2.239-5,5-5h48c2.761,0,5,2.239,5,5v32     C69,49.761,66.761,52,64,52z M21,42h38V20H21V42z" fill="#3F456B"/></g><g><path d="M40,84c-2.761,0-5-2.239-5-5V47c0-2.761,2.239-5,5-5s5,2.239,5,5v32C45,81.761,42.761,84,40,84z" fill="#3F456B"/></g></g><g><g><path d="M496,52h-48c-2.761,0-5-2.239-5-5V15c0-2.761,2.239-5,5-5h48c2.761,0,5,2.239,5,5v32     C501,49.761,498.761,52,496,52z M453,42h38V20h-38V42z" fill="#3F456B"/></g><g><path d="M472,84c-2.761,0-5-2.239-5-5V47c0-2.761,2.239-5,5-5s5,2.239,5,5v32C477,81.761,474.761,84,472,84z" fill="#3F456B"/></g></g><g><g><path d="M409.6,52h-48c-2.761,0-5-2.239-5-5V15c0-2.761,2.239-5,5-5h48c2.761,0,5,2.239,5,5v32     C414.6,49.761,412.361,52,409.6,52z M366.6,42h38V20h-38V42z" fill="#3F456B"/></g><g><path d="M385.6,84c-2.761,0-5-2.239-5-5V47c0-2.761,2.239-5,5-5s5,2.239,5,5v32C390.6,81.761,388.361,84,385.6,84     z" fill="#3F456B"/></g></g><g><g><path d="M323.2,52h-48c-2.761,0-5-2.239-5-5V15c0-2.761,2.239-5,5-5h48c2.761,0,5,2.239,5,5v32     C328.2,49.761,325.961,52,323.2,52z M280.2,42h38V20h-38V42z" fill="#3F456B"/></g><g><path d="M299.2,84c-2.761,0-5-2.239-5-5V47c0-2.761,2.239-5,5-5s5,2.239,5,5v32C304.2,81.761,301.961,84,299.2,84     z" fill="#3F456B"/></g></g><g><g><path d="M236.8,52h-48c-2.761,0-5-2.239-5-5V15c0-2.761,2.239-5,5-5h48c2.761,0,5,2.239,5,5v32     C241.8,49.761,239.561,52,236.8,52z M193.8,42h38V20h-38V42z" fill="#3F456B"/></g><g><path d="M212.8,84c-2.761,0-5-2.239-5-5V47c0-2.761,2.239-5,5-5s5,2.239,5,5v32C217.8,81.761,215.561,84,212.8,84     z" fill="#3F456B"/></g></g><g><g><path d="M150.4,52h-48c-2.761,0-5-2.239-5-5V15c0-2.761,2.239-5,5-5h48c2.761,0,5,2.239,5,5v32     C155.4,49.761,153.161,52,150.4,52z M107.4,42h38V20h-38V42z" fill="#3F456B"/></g><g><path d="M126.4,84c-2.761,0-5-2.239-5-5V47c0-2.761,2.239-5,5-5s5,2.239,5,5v32C131.4,81.761,129.161,84,126.4,84     z" fill="#3F456B"/></g></g><g><path d="M496,164H16c-2.761,0-5-2.239-5-5s2.239-5,5-5h480c2.761,0,5,2.239,5,5S498.761,164,496,164z" fill="#3F456B"/></g><g><path d="M100,334.234H51c-2.761,0-5-2.239-5-5V281c0-2.761,2.239-5,5-5h44v-38.234H51.766c-2.761,0-5-2.239-5-5    s2.239-5,5-5H100c2.761,0,5,2.239,5,5V281c0,2.761-2.239,5-5,5H56v38.234h44c2.761,0,5,2.239,5,5S102.761,334.234,100,334.234z" fill="#3F456B"/></g><g><path d="M468,334.234h-48.234c-2.761,0-5-2.239-5-5s2.239-5,5-5H463V286h-44c-2.761,0-5-2.239-5-5v-48.234    c0-2.761,2.239-5,5-5h49c2.761,0,5,2.239,5,5s-2.239,5-5,5h-44V276h44c2.761,0,5,2.239,5,5v48.234    C473,331.996,470.761,334.234,468,334.234z" fill="#3F456B"/></g><g><path d="M128,402c-2.761,0-5-2.239-5-5V79c0-2.761,2.239-5,5-5s5,2.239,5,5v318C133,399.761,130.762,402,128,402z" fill="#3F456B"/></g><g><path d="M384,402c-2.761,0-5-2.239-5-5V79c0-2.761,2.239-5,5-5s5,2.239,5,5v318C389,399.761,386.762,402,384,402z" fill="#3F456B"/></g><g><path d="M384,286H129.32c-2.761,0-5-2.239-5-5s2.239-5,5-5H384c2.761,0,5,2.239,5,5S386.761,286,384,286z" fill="#3F456B"/></g><g><g><g><path d="M256.406,209.635c-3.575,0-6.473-2.896-6.473-6.473c0-3.574,2.898-6.472,6.473-6.472      c3.574,0,6.473,2.898,6.473,6.472C262.879,206.738,259.98,209.635,256.406,209.635z" fill="#3F456B"/></g></g><g><g><path d="M256.406,241.635c-3.575,0-6.473-2.896-6.473-6.473c0-3.574,2.898-6.472,6.473-6.472      c3.574,0,6.473,2.898,6.473,6.472C262.879,238.738,259.98,241.635,256.406,241.635z" fill="#3F456B"/></g></g><g><path d="M304.894,256.734h-26.057c-2.761,0-5-2.239-5-5s2.239-5,5-5h21.057v-21.367h-21.47c-2.761,0-5-2.239-5-5     V189c0-2.761,2.239-5,5-5h26.47c2.761,0,5,2.239,5,5s-2.239,5-5,5h-21.47v21.367h21.47c2.761,0,5,2.239,5,5v31.367     C309.894,254.496,307.655,256.734,304.894,256.734z" fill="#3F456B"/></g><g><path d="M352.95,256.734h-26.057c-2.744,0-4.975-2.211-5-4.955l-0.274-30.235c-0.091-0.377-0.14-0.772-0.14-1.178     V189c0-2.761,2.239-5,5-5h26.47c2.759,0,4.996,2.234,5,4.993l0.05,34.988c0,0.244-0.017,0.484-0.05,0.719v27.034     C357.95,254.496,355.711,256.734,352.95,256.734z M331.848,246.734h16.102v-21.367h-16.295L331.848,246.734z M331.479,215.367     h16.508L347.957,194h-16.478V215.367z" fill="#3F456B"/></g><g><path d="M186.998,256.734h-26.056c-2.761,0-5-2.239-5-5v-31.367c0-2.761,2.239-5,5-5h21.47V194h-21.47     c-2.761,0-5-2.239-5-5s2.239-5,5-5h26.47c2.761,0,5,2.239,5,5v31.367c0,2.761-2.239,5-5,5h-21.47v21.367h21.056     c2.761,0,5,2.239,5,5S189.759,256.734,186.998,256.734z" fill="#3F456B"/></g><g><path d="M233.724,256.025h-25.668c-2.761,0-5-2.239-5-5v-61.799c0-2.761,2.239-5,5-5h25.668c2.761,0,5,2.239,5,5     v61.799C238.724,253.787,236.485,256.025,233.724,256.025z M213.056,246.025h15.668v-51.799h-15.668V246.025z" fill="#3F456B"/></g></g></g></svg>