<?xml version="1.0" ?><svg viewBox="0 0 512 512" xmlns="http://www.w3.org/2000/svg"><defs><style>.cls-1{fill:#3f456b;}</style></defs><title/><g id="Lines"><path class="cls-1" d="M253.9,388.07c-73.08,0-132.54-59.46-132.54-132.54S180.82,123,253.9,123s132.53,59.45,132.53,132.53S327,388.07,253.9,388.07Zm0-255.07A122.54,122.54,0,1,0,376.43,255.53,122.68,122.68,0,0,0,253.9,133Z"/><path class="cls-1" d="M16.06,262.53a5,5,0,0,1-4.46-7.25c.83-1.65,20.82-40.82,61.15-80.58,23.74-23.38,49.59-42,76.84-55.42a243.51,243.51,0,0,1,214.78-.64c26.83,13,52.28,31.22,75.66,54,39.74,38.75,59.47,76.94,60.29,78.54a5,5,0,1,1-8.9,4.55c-.2-.38-19.95-38.54-58.6-76.15-22.6-22-47.16-39.5-73-52a233.52,233.52,0,0,0-205.66.62C127.91,141.05,103,159,80,181.6c-39.25,38.61-59.27,77.79-59.47,78.19A5,5,0,0,1,16.06,262.53Z"/><path class="cls-1" d="M254.08,417A240.32,240.32,0,0,1,148,392.36c-26.78-13.05-52.25-31.22-75.7-54-39.87-38.74-59.86-76.91-60.69-78.52a5,5,0,0,1,8.88-4.6c.2.38,20.22,38.56,59,76.17,22.69,22,47.26,39.51,73.06,52.05A230.3,230.3,0,0,0,254.08,407a234.93,234.93,0,0,0,104.31-24.26c26.32-12.91,51.28-30.93,74.16-53.56,39-38.6,58.65-77.55,58.84-77.94a5,5,0,0,1,9,4.45c-.82,1.65-20.55,40.84-60.77,80.6-23.65,23.39-49.49,42-76.79,55.43A244.93,244.93,0,0,1,254.08,417Z"/><path class="cls-1" d="M255.53,324.07a68.54,68.54,0,1,1,68.54-68.54A68.61,68.61,0,0,1,255.53,324.07Zm0-127.07a58.54,58.54,0,1,0,58.54,58.53A58.6,58.6,0,0,0,255.53,197Z"/><path class="cls-1" d="M256.1,292.7c-16.84,0-27.93-8.47-28.32-21.71a5,5,0,0,1,10-.3c.33,11.06,13.3,12.07,18.86,12s10.72-2.2,13.51-5.41a9.17,9.17,0,0,0,2.16-7.59c-.51-3.89-2.84-6.8-12.55-8.39l-2.83-.43c-8.39-1.27-17.89-2.7-24.37-11.87a16.12,16.12,0,0,1-2.76-12.44,22.87,22.87,0,0,1,9.79-14.28c7.21-4.89,18.27-5.64,27.5-1.85a26.56,26.56,0,0,1,14.73,14.69,5,5,0,1,1-9.31,3.64,16.72,16.72,0,0,0-9.21-9.08c-6.17-2.53-13.61-2.17-18.1.88a13.06,13.06,0,0,0-5.56,7.79,6.2,6.2,0,0,0,1.08,4.88c3.83,5.41,9.22,6.47,17.7,7.75,1,.15,2,.29,2.95.45,4.71.77,19,3.11,20.85,17a19.16,19.16,0,0,1-4.51,15.43c-4.71,5.44-12.54,8.75-20.94,8.86Z"/><path class="cls-1" d="M256,228a5,5,0,0,1-5-5V208a5,5,0,0,1,10,0v15A5,5,0,0,1,256,228Z"/><path class="cls-1" d="M256,308a5,5,0,0,1-5-5V288a5,5,0,0,1,10,0v15A5,5,0,0,1,256,308Z"/><path class="cls-1" d="M496.79,140.78h0a5,5,0,0,1-5-5l.06-34.86-34.56.12h0a5,5,0,0,1,0-10l39.58-.14h0a5,5,0,0,1,5,5l-.07,39.89A5,5,0,0,1,496.79,140.78Z"/><path class="cls-1" d="M426,171a5,5,0,0,1-3.54-8.54L492,93A5,5,0,0,1,499,100l-69.5,69.5A5,5,0,0,1,426,171Z"/><path class="cls-1" d="M16.5,428A5,5,0,0,1,13,419.46L86.46,346A5,5,0,1,1,93.54,353L20,426.54A5,5,0,0,1,16.5,428Z"/></g><g id="Outline"><path class="cls-1" d="M353,228a5,5,0,0,1-3.54-1.46l-29-29-16.21,16.22a5,5,0,0,1-7.08-7.08L317,187a5,5,0,0,1,7.08,0l29,29,60.64-60.64a5,5,0,0,1,7.07,7.07l-64.17,64.18A5,5,0,0,1,353,228Z"/><path class="cls-1" d="M105.75,363.75a5,5,0,0,1-3.54-8.54l55.5-55.5a5,5,0,0,1,7.08,0l19.71,19.72,21.81-21.81a5,5,0,1,1,7.07,7.07L188,330a5,5,0,0,1-7.08,0l-19.71-19.72-52,52A5,5,0,0,1,105.75,363.75Z"/><path class="cls-1" d="M222.25,180.32a5,5,0,0,1-4.63-3.12l-5.08-12.46A5,5,0,1,1,221.8,161l5.08,12.46a5,5,0,0,1-4.63,6.89Z"/><path class="cls-1" d="M292.8,353.44a5,5,0,0,1-4.63-3.11l-5.56-13.63a5,5,0,1,1,9.26-3.78l5.56,13.63a5,5,0,0,1-4.63,6.89Z"/><path class="cls-1" d="M174.91,226.71a5,5,0,0,1-1.94-.4l-12.4-5.22a5,5,0,1,1,3.88-9.21l12.4,5.22a5,5,0,0,1-1.94,9.61Z"/><path class="cls-1" d="M347.22,299.24a5.09,5.09,0,0,1-1.94-.39l-13.57-5.71a5,5,0,1,1,3.88-9.22l13.57,5.71a5,5,0,0,1-1.94,9.61Z"/><path class="cls-1" d="M288.15,179.92a4.91,4.91,0,0,1-1.94-.39,5,5,0,0,1-2.67-6.55l5.22-12.4a5,5,0,1,1,9.22,3.88l-5.22,12.4A5,5,0,0,1,288.15,179.92Z"/><path class="cls-1" d="M215.21,353.2a5.13,5.13,0,0,1-1.94-.39,5,5,0,0,1-2.67-6.55l5.72-13.57a5,5,0,1,1,9.21,3.88l-5.71,13.57A5,5,0,0,1,215.21,353.2Z"/><path class="cls-1" d="M194,198.86a5,5,0,0,1-3.56-1.48l-9.47-9.56a5,5,0,1,1,7.1-7l9.48,9.55a5,5,0,0,1-3.55,8.52Z"/><path class="cls-1" d="M325.55,331.65a5,5,0,0,1-3.55-1.48l-10.36-10.45a5,5,0,1,1,7.1-7l10.36,10.45a5,5,0,0,1-3.55,8.52Z"/><path class="cls-1" d="M168.05,259.87h0l-13.46-.06a5,5,0,0,1,0-10h0l13.46.06a5,5,0,0,1,0,10Z"/><path class="cls-1" d="M355,260.71h0l-14.72-.06a5,5,0,0,1,0-10h0l14.72.06a5,5,0,0,1,0,10Z"/><path class="cls-1" d="M254.66,173.21h0a5,5,0,0,1-5-5l.06-13.45a5,5,0,0,1,5-5h0a5,5,0,0,1,5,5l-.06,13.46A5,5,0,0,1,254.66,173.21Z"/><path class="cls-1" d="M253.81,361.21h0a5,5,0,0,1-5-5l.07-14.73a5,5,0,0,1,5-5h0a5,5,0,0,1,5,5l-.07,14.72A5,5,0,0,1,253.81,361.21Z"/><path class="cls-1" d="M257,85a5,5,0,0,1-5-5V79a5,5,0,0,1,10,0v1A5,5,0,0,1,257,85Zm0-21a5,5,0,0,1-5-5V58a5,5,0,0,1,10,0v1A5,5,0,0,1,257,64Zm0-21a5,5,0,0,1-5-5V37a5,5,0,0,1,10,0v1A5,5,0,0,1,257,43Zm0-21a5,5,0,0,1-5-5V16a5,5,0,0,1,10,0v1A5,5,0,0,1,257,22Z"/><path class="cls-1" d="M257,498a5,5,0,0,1-5-5v-1a5,5,0,0,1,10,0v1A5,5,0,0,1,257,498Zm0-21a5,5,0,0,1-5-5v-1a5,5,0,0,1,10,0v1A5,5,0,0,1,257,477Zm0-21a5,5,0,0,1-5-5v-1a5,5,0,0,1,10,0v1A5,5,0,0,1,257,456Zm0-21a5,5,0,0,1-5-5v-1a5,5,0,0,1,10,0v1A5,5,0,0,1,257,435Z"/><path class="cls-1" d="M179.06,90.94A5,5,0,0,1,174.52,88l-.42-.91a5,5,0,1,1,9.08-4.18l.42.91a5,5,0,0,1-4.54,7.09Zm-8.77-19.08A5,5,0,0,1,165.74,69l-.41-.91a5,5,0,1,1,9.08-4.18l.42.91a5,5,0,0,1-4.54,7.09Zm-8.77-19.08A5,5,0,0,1,157,49.87l-.41-.91a5,5,0,1,1,9.08-4.18l.42.91a5,5,0,0,1-2.46,6.63A5,5,0,0,1,161.52,52.78ZM152.75,33.7a5,5,0,0,1-4.55-2.91l-.41-.91a5,5,0,1,1,9.08-4.18l.42.91a5,5,0,0,1-2.46,6.63A5,5,0,0,1,152.75,33.7Z"/><path class="cls-1" d="M359.56,483.61A5,5,0,0,1,355,480.7l-.42-.91a5,5,0,1,1,9.09-4.17l.42.9a5,5,0,0,1-2.46,6.63A5,5,0,0,1,359.56,483.61Zm-8.77-19.08a5,5,0,0,1-4.55-2.91l-.42-.91a5,5,0,0,1,9.09-4.18l.42.91a5,5,0,0,1-2.46,6.63A5,5,0,0,1,350.79,464.53ZM342,445.45a5,5,0,0,1-4.55-2.91l-.42-.91a5,5,0,0,1,9.09-4.18l.42.91A5,5,0,0,1,344.1,445,5,5,0,0,1,342,445.45Zm-8.77-19.08a5,5,0,0,1-4.55-2.91l-.42-.91a5,5,0,0,1,9.09-4.18l.42.91a5,5,0,0,1-2.46,6.63A5,5,0,0,1,333.25,426.37Z"/><path class="cls-1" d="M336.21,91.53a5,5,0,0,1-4.53-7.12l.43-.9a5,5,0,0,1,9.06,4.23l-.43.91A5,5,0,0,1,336.21,91.53Zm8.91-19a5,5,0,0,1-4.52-7.13l.42-.9a5,5,0,0,1,9.06,4.24l-.43.91A5,5,0,0,1,345.12,72.52Zm8.92-19a5,5,0,0,1-4.53-7.12l.43-.9A5,5,0,1,1,359,49.71l-.42.91A5,5,0,0,1,354,53.5Zm8.91-19a4.89,4.89,0,0,1-2.12-.48,5,5,0,0,1-2.4-6.65l.42-.9a5,5,0,0,1,9,4.25l-.42.9A5,5,0,0,1,363,34.49Z"/><path class="cls-1" d="M152.77,482.83a5,5,0,0,1-4.53-7.12l.43-.91a5,5,0,0,1,9.05,4.25l-.42.91A5,5,0,0,1,152.77,482.83Zm8.91-19a5,5,0,0,1-4.52-7.12l.42-.91a5,5,0,0,1,9.06,4.25l-.43.9A5,5,0,0,1,161.68,463.82Zm8.92-19a5,5,0,0,1-4.53-7.13l.43-.9a5,5,0,1,1,9.05,4.24l-.42.91A5,5,0,0,1,170.6,444.81Zm8.91-19a5,5,0,0,1-4.52-7.12l.42-.91a5,5,0,0,1,9.05,4.25l-.42.9A5,5,0,0,1,179.51,425.79Z"/></g></svg>