<?xml version="1.0" ?><svg id="Lines" viewBox="0 0 512 512" xmlns="http://www.w3.org/2000/svg"><defs><style>.cls-1{fill:#3f456b;}</style></defs><title/><path class="cls-1" d="M404.63,394c-8.12,0-15.5-3.16-20.24-8.69a22.21,22.21,0,0,1-5.05-18.13c2.18-14.19,16.14-25.31,31.77-25.31,8.12,0,15.49,3.17,20.23,8.69a22.23,22.23,0,0,1,5.06,18.14h0C434.21,382.92,420.26,394,404.63,394Zm6.48-42.13c-10.46,0-20.49,7.71-21.89,16.83a12.2,12.2,0,0,0,2.76,10.1c2.84,3.31,7.45,5.2,12.65,5.2,10.46,0,20.48-7.7,21.88-16.82h0a12.19,12.19,0,0,0-2.76-10.11C420.92,353.8,416.31,351.9,411.11,351.9Z"/><path class="cls-1" d="M468.63,414c-8.12,0-15.5-3.16-20.24-8.69a22.21,22.21,0,0,1-5.05-18.13c2.18-14.19,16.14-25.31,31.77-25.31,8.12,0,15.49,3.17,20.23,8.69a22.23,22.23,0,0,1,5.06,18.14h0C498.21,402.92,484.26,414,468.63,414Zm6.48-42.13c-10.46,0-20.49,7.71-21.89,16.83a12.2,12.2,0,0,0,2.76,10.1c2.84,3.31,7.45,5.2,12.65,5.2,10.46,0,20.48-7.7,21.88-16.82h0a12.19,12.19,0,0,0-2.76-10.11C484.92,373.8,480.31,371.9,475.11,371.9Z"/><path class="cls-1" d="M496,387.9a5,5,0,0,1-5-5V319H367.26a5,5,0,0,1,0-10H496a5,5,0,0,1,5,5v68.9A5,5,0,0,1,496,387.9Z"/><path class="cls-1" d="M432,372a5,5,0,0,1-5-5V314.5a5,5,0,0,1,10,0V367A5,5,0,0,1,432,372Z"/><path class="cls-1" d="M97.85,439.22a5,5,0,0,1-2.82-.87C73.71,423.8,57.22,402.83,46,376c-9.41-22.55-14.91-48.61-16.33-77.48a272.23,272.23,0,0,1,.91-37c1.21-14,3-28,4.64-41.64C38.58,193,42,165.16,41.36,137.54c-.54-22.75-3.08-42.94-7.77-61.73a233.31,233.31,0,0,0-9.47-29.89C22.82,42.63,13,22.08,10.62,17.71a5,5,0,0,1,5.19-7.35L251.13,65.13a5,5,0,0,1,1.68,9C194.3,113.92,166,170,158.7,186.26a5,5,0,1,1-9.12-4.09c9.17-20.45,35.57-70.48,88.48-109.82L24.24,22.58c3.72,7.66,8.18,17.14,9.18,19.65A243.65,243.65,0,0,1,43.3,73.39c4.86,19.51,7.5,40.42,8.06,63.91.68,28.35-2.81,56.55-6.19,83.82-1.67,13.52-3.4,27.49-4.6,41.27a262.1,262.1,0,0,0-.88,35.66c1.36,27.7,6.6,52.64,15.57,74.11,10.43,25,25.71,44.49,45.41,57.93a5,5,0,0,1-2.82,9.13Z"/><path class="cls-1" d="M212,489.3c-88.34,0-160.22-71.87-160.22-160.22S123.69,168.86,212,168.86s160.23,71.88,160.23,160.22a160,160,0,0,1-56.9,122.46,5,5,0,1,1-6.45-7.64,150,150,0,0,0,53.35-114.82c0-82.83-67.39-150.22-150.23-150.22S61.81,246.25,61.81,329.08,129.2,479.3,212,479.3a5,5,0,1,1,0,10Z"/><path class="cls-1" d="M212,454.46A125.38,125.38,0,1,1,337.41,329.08,125.51,125.51,0,0,1,212,454.46Zm0-240.76A115.38,115.38,0,1,0,327.41,329.08,115.5,115.5,0,0,0,212,213.7Z"/><path class="cls-1" d="M212,386.38a28.55,28.55,0,1,1,28.56-28.55A28.58,28.58,0,0,1,212,386.38Zm0-47.1a18.55,18.55,0,1,0,18.56,18.55A18.57,18.57,0,0,0,212,339.28Z"/><path class="cls-1" d="M277.08,386.38a28.55,28.55,0,1,1,28.55-28.55A28.58,28.58,0,0,1,277.08,386.38Zm0-47.1a18.55,18.55,0,1,0,18.55,18.55A18.58,18.58,0,0,0,277.08,339.28Z"/><path class="cls-1" d="M147,386.38a28.55,28.55,0,1,1,28.55-28.55A28.58,28.58,0,0,1,147,386.38Zm0-47.1a18.55,18.55,0,1,0,18.55,18.55A18.57,18.57,0,0,0,147,339.28Z"/><path class="cls-1" d="M204,340a5,5,0,0,1-5-5V291.89a4.58,4.58,0,0,1,0-.53c0-.14,1.42-15-6.43-23.65-3.91-4.34-9.46-6.44-16.95-6.44s-13.25,2.19-17.16,6.51C150.76,276.31,152,290.86,152,291s0,.32,0,.49V334a5,5,0,0,1-10,0V291.71c-.2-2.46-1.13-19.38,9.08-30.64,5.89-6.51,14.16-9.8,24.57-9.8s18.58,3.29,24.42,9.78c10.21,11.36,9.15,28.52,8.93,31.07V335A5,5,0,0,1,204,340Z"/><path class="cls-1" d="M278,339a5,5,0,0,1-5-5V291.89c0-.14,0-.28,0-.42s1.16-15.8-6.83-24.45c-3.58-3.87-8.45-5.75-14.89-5.75-7.54,0-13.48,2.23-17.66,6.63-8.17,8.61-7.65,23.19-7.65,23.34a2.17,2.17,0,0,1,0,.26V334a5,5,0,0,1-10,0V291.61c-.08-1.93-.43-19.19,10.39-30.6,6.14-6.46,14.52-9.74,24.91-9.74,9.28,0,16.78,3,22.28,9,10.44,11.36,9.58,29.42,9.42,31.79V334A5,5,0,0,1,278,339Z"/><path class="cls-1" d="M301,361a5,5,0,0,1-5-5V316.94c-.13-10.16,5.9-29.94,29.66-31.59a5,5,0,1,1,.69,10C306.5,296.71,306,314.84,306,316.9V356A5,5,0,0,1,301,361Z"/><path class="cls-1" d="M123,359a5,5,0,0,1-5-5V318.07c0-2.23-.48-21.45-20.27-22.76a5,5,0,0,1,.66-10c23.72,1.57,29.74,22.14,29.61,32.8V354A5,5,0,0,1,123,359Z"/><path class="cls-1" d="M164.32,409a24,24,0,0,1-15.93-6c-5.28-4.85-7.95-12.08-7.95-21.49a5,5,0,0,1,10,0c0,6.45,1.56,11.18,4.64,14.07a14.1,14.1,0,0,0,9.55,3.39H260c3.17,0,5.51-.9,7.18-2.74,3.57-4,3.65-11.62,3.38-14.23A5,5,0,0,1,280.5,381c.15,1.41,1.3,14-5.86,22-3.57,4-8.63,6.09-14.64,6.09H165.14Z"/><path class="cls-1" d="M379,490h0l-169.26-.71a5,5,0,0,1,0-10h0L374,480V453.72l-161.74,1.09h0a5,5,0,0,1,0-10L379,443.69a5,5,0,0,1,5,5V485a5,5,0,0,1-5,5Z"/><path class="cls-1" d="M406.18,502H386.82c-6.95,0-12.82-5.52-12.82-12.06V443c0-6.48,5.87-12,12.82-12h19.36c6.95,0,12.82,5.48,12.82,12v47C419,496.48,413.13,502,406.18,502Zm-19.36-61c-1.63,0-2.82,1.17-2.82,2v47c0,.81,1.21,2.06,2.82,2.06h19.36c1.61,0,2.82-1.25,2.82-2.06V443c0-.79-1.18-2-2.82-2Z"/><path class="cls-1" d="M212,363a5,5,0,0,1-5-5v-1a5,5,0,0,1,10,0v1A5,5,0,0,1,212,363Z"/><path class="cls-1" d="M277,363a5,5,0,0,1-5-5v-1a5,5,0,0,1,10,0v1A5,5,0,0,1,277,363Z"/><path class="cls-1" d="M147,363a5,5,0,0,1-5-5v-1a5,5,0,0,1,10,0v1A5,5,0,0,1,147,363Z"/><path class="cls-1" d="M212,454a5,5,0,0,1-5-5V382a5,5,0,0,1,10,0v67A5,5,0,0,1,212,454Z"/><path class="cls-1" d="M180,450a5,5,0,0,1-5-5V404a5,5,0,0,1,10,0v41A5,5,0,0,1,180,450Z"/><path class="cls-1" d="M243,450a5,5,0,0,1-5-5V404a5,5,0,0,1,10,0v41A5,5,0,0,1,243,450Z"/></svg>