<?xml version="1.0" ?><svg viewBox="0 0 512 512" xmlns="http://www.w3.org/2000/svg"><defs><style>.cls-1{fill:#3f456b;}</style></defs><title/><g id="Lines"><path class="cls-1" d="M461.73,500H395.29a16.09,16.09,0,0,1-16.07-15.94L377,437.65a1.77,1.77,0,0,1,0-.23,16.09,16.09,0,0,1,16.07-16.08H464A16.09,16.09,0,0,1,480,437.42v.23l-2.21,46.41A16.1,16.1,0,0,1,461.73,500ZM387,437.31l2.21,46.38v.24a6.08,6.08,0,0,0,6.08,6.07h66.44a6.08,6.08,0,0,0,6.08-6.07v-.24L470,437.31a6.08,6.08,0,0,0-6.07-6H393.07A6.09,6.09,0,0,0,387,437.31Z"/><path class="cls-1" d="M434.68,431l-.35,0a5,5,0,0,1-4.61-4.39c-.28-2.28-6.49-56.45,13.51-104,8.51-20.22,25.44-39.78,47.42-34C499,290.75,505,295.74,507.93,303c5.22,12.95-.38,29.75-6.76,40.19-5.08,8.32-11.69,15.09-18.09,21.65-2.35,2.41-4.78,4.9-7.08,7.41-9.4,10.28-19.12,20.92-26.34,32.61a83.88,83.88,0,0,0-10.15,22.4A5,5,0,0,1,434.68,431ZM483,297.56c-17.43,0-28.38,23.75-30.56,28.91C441,353.75,438.66,384,438.65,403.8c.79-1.39,1.63-2.79,2.51-4.22,7.7-12.48,18.2-24,27.46-34.1,2.4-2.63,4.9-5.18,7.3-7.65,6.29-6.44,12.23-12.52,16.72-19.87,5.4-8.84,9.58-22.38,6-31.24-1.74-4.31-5.18-7.09-10.53-8.49A20.19,20.19,0,0,0,483,297.56Z"/><path class="cls-1" d="M423.88,431.24a5,5,0,0,1-4.57-3c-8.68-19.54-28-31.39-45.78-40.42-2-1-4.27-2-6.64-3-7-3-15-6.38-20.1-13.38a27.83,27.83,0,0,1-3-28.13A29,29,0,0,1,369,327c15.83-.69,29,9.71,37.25,18.57,38.1,40.94,23,80.8,22.29,82.48a5,5,0,0,1-4.54,3.16ZM370.51,337l-1.08,0c-7.23.32-13.76,4.48-16.63,10.58a17.86,17.86,0,0,0,2.09,18c3.44,4.75,9.5,7.32,15.91,10.05,2.42,1,4.92,2.08,7.26,3.27,15.7,8,32.57,18.09,43.69,33.61,1.33-13.4-.74-36.38-22.83-60.12C392.31,345.31,382.09,337,370.51,337Z"/><path class="cls-1" d="M417,223a77.92,77.92,0,1,1,15-1.44h0A78.27,78.27,0,0,1,417,223Zm14-6.35h0ZM417,77a68,68,0,1,0,68,68A68.07,68.07,0,0,0,417,77Z"/><path class="cls-1" d="M329,500H184a5,5,0,0,1-5-5V335a5,5,0,0,1,5-5H329a5,5,0,0,1,5,5V495A5,5,0,0,1,329,500ZM189,490H324V340H189Z"/><path class="cls-1" d="M296,451H217a5,5,0,0,1-5-5V384a5,5,0,0,1,5-5h79a5,5,0,0,1,5,5v62A5,5,0,0,1,296,451Zm-74-10h69V389H222Z"/><path class="cls-1" d="M180,325H45a5,5,0,0,1-5-5V233a5,5,0,0,1,5-5H180a5,5,0,0,1,5,5v87A5,5,0,0,1,180,325ZM50,315H175V238H50Z"/><path class="cls-1" d="M226,340a5,5,0,0,1-5-4.34c-2.21-16.63-21.59-162.83-20.79-174,1-13.8,7.09-17.91,24.25-26.15C235.89,130,242,122,243.06,110.93c.39-3.94-.37-7.71-2-9.83-1.79-2.32-4.19-2.94-8.28-3.84s-9-2-13-6.19c-5.9-6.17-8.18-15.8-6.25-26.4C215.65,53,221.45,44,230.3,38.38a37.72,37.72,0,0,1,30-4.08c9.78,2.69,20.93,10.4,22.89,24,1.47,10.16-1.69,18.22-4.75,26-.83,2.12-1.68,4.31-2.44,6.52-3.49,10.19-2.52,23.59,2.36,32.6,3,5.59,7.28,9.16,12.62,10.62,2.42.22,10.83,1.46,16.38,8.09,3.8,4.55,5.29,10.43,4.41,17.48C309.4,178.38,291.15,334,291,335.58a5,5,0,1,1-9.94-1.16c.19-1.57,18.45-157.24,20.8-176,.53-4.24-.17-7.46-2.15-9.83-3.39-4.05-9.75-4.55-9.81-4.56a4.54,4.54,0,0,1-1-.14c-8.23-2.08-14.92-7.49-19.35-15.66-6.21-11.45-7.43-27.77-3-40.6.82-2.42,1.72-4.71,2.59-6.92,2.82-7.2,5.25-13.41,4.16-21-1.6-11.08-12.37-14.87-15.64-15.76a27.63,27.63,0,0,0-22,2.9c-6.41,4-10.65,10.81-12.25,19.61-1.33,7.31,0,13.93,3.64,17.7,1.82,1.91,4.2,2.51,7.93,3.33,4.43,1,9.94,2.19,14,7.51,3.22,4.18,4.69,10.35,4,16.93-1.46,14.61-9.59,25.57-24.19,32.58-16.71,8-18,9.89-18.59,17.85-.56,7.69,12.09,107.07,20.73,172a5,5,0,0,1-5,5.66Z"/><path class="cls-1" d="M176.89,196.33a5,5,0,0,1-5-5V138h-75a5,5,0,1,1,0-10h80a5,5,0,0,1,5,5v58.3A5,5,0,0,1,176.89,196.33Z"/><path class="cls-1" d="M336.94,313.58a5,5,0,0,1-5-5v-52.3H298a5,5,0,0,1,0-10h38.94a5,5,0,0,1,5,5v57.3A5,5,0,0,1,336.94,313.58Z"/><path class="cls-1" d="M417,372.33a5,5,0,0,1-5-5V314h-75a5,5,0,0,1,0-10h80a5,5,0,0,1,5,5v58.3A5,5,0,0,1,417,372.33Z"/><path class="cls-1" d="M497,500H16a5,5,0,0,1-5-5V74a5,5,0,0,1,5-5H96a5,5,0,0,1,5,5v58.3a5,5,0,0,1-10,0V79H21V490H492V372.7H475a5,5,0,0,1,0-10h22a5,5,0,0,1,5,5V495A5,5,0,0,1,497,500Z"/><path class="cls-1" d="M436,372.7H417a5,5,0,0,1,0-10h19a5,5,0,0,1,0,10Z"/><path class="cls-1" d="M206,197H177a5,5,0,0,1,0-10h29a5,5,0,0,1,0,10Z"/><path class="cls-1" d="M366,98a5,5,0,0,1-4.15-7.79l51-76A5,5,0,0,1,417,12h0a5,5,0,0,1,4.15,2.21l50,74.42a5,5,0,0,1-8.3,5.58L417,26,370.15,95.79A5,5,0,0,1,366,98Z"/><path class="cls-1" d="M96,100H16a5,5,0,0,1,0-10H96a5,5,0,0,1,0,10Z"/><path class="cls-1" d="M176,159H96a5,5,0,0,1-5-5V132a5,5,0,0,1,10,0v17h75a5,5,0,0,1,0,10Z"/><path class="cls-1" d="M210,218H177a5,5,0,0,1-5-5V191a5,5,0,0,1,10,0v17h28a5,5,0,0,1,0,10Z"/><path class="cls-1" d="M336,277H296a5,5,0,0,1,0-10h40a5,5,0,0,1,0,10Z"/><path class="cls-1" d="M414,335H337a5,5,0,0,1-5-5V311.19a5,5,0,0,1,10,0V325h72a5,5,0,0,1,0,10Z"/><path class="cls-1" d="M497,392H457a5,5,0,0,1,0-10h40a5,5,0,0,1,0,10Z"/></g><g id="Outline"><path class="cls-1" d="M276,410H236a5,5,0,0,1,0-10h40a5,5,0,0,1,0,10Z"/><path class="cls-1" d="M276,429H236a5,5,0,0,1,0-10h40a5,5,0,0,1,0,10Z"/><path class="cls-1" d="M117,285.06a23.8,23.8,0,0,1-6.22-.83c-5.11-1.39-9.17-4.52-12.75-7.29-4.85-3.75-8-6-12.29-5.71-6.39.49-10.28,6.66-12,10.29a5,5,0,1,1-9-4.33c4.56-9.49,12-15.3,20.27-15.93s14.07,3.83,19.16,7.77c3.12,2.41,6.07,4.68,9.26,5.55a13.68,13.68,0,0,0,5.75.33l-.41-.41c-5-5.32-6.78-12.05-4.79-18.48,2.22-7.19,7.21-12,13.35-12.94a14.09,14.09,0,0,1,13.81,6.15c3.9,5.76,3.52,13.54-1,21.33a34.19,34.19,0,0,1-2,3,39.13,39.13,0,0,0,16.9-.8,5,5,0,0,1,2.44,9.7c-10.14,2.55-20,2.12-27.95-1A24.22,24.22,0,0,1,117,285.06Zm12.36-32.13a3.92,3.92,0,0,0-.59,0c-2.27.33-4.19,2.52-5.27,6-1.16,3.74.72,6.76,2.5,8.64a16.83,16.83,0,0,0,2.37,2,23.16,23.16,0,0,0,3.08-4.14c2.49-4.27,3-8.26,1.38-10.68A4.22,4.22,0,0,0,129.4,252.93Z"/><path class="cls-1" d="M267,340a4.71,4.71,0,0,1-.53,0,5,5,0,0,1-4.45-5.49l15-143a5,5,0,0,1,9.94,1l-15,143A5,5,0,0,1,267,340Z"/></g></svg>