<?xml version="1.0" ?><svg id="Lines" viewBox="0 0 512 512" xmlns="http://www.w3.org/2000/svg"><defs><style>.cls-1{fill:#3f456b;}</style></defs><title/><path class="cls-1" d="M254.23,277c-20.49,0-40.37-6-56-16.83a77.19,77.19,0,0,1-32.4-49.29c-8.51-43.28,15.82-76.71,39.35-109,8.89-12.21,17.28-23.74,23.89-35.68,8.59-15.52,18.32-33.1,22.29-51.69a5,5,0,0,1,9.78,0c3.63,17,12.47,32.85,21,48.23l1.92,3.46c6.62,12,15,23.48,23.91,35.69,23.52,32.29,47.84,65.68,39.33,109a77.17,77.17,0,0,1-32.57,49.32C299.07,271,279.13,277,258.62,277l-4.35,0Zm2.1-244c-5,13.68-12.07,26.39-18.49,38C230.93,83.5,222,95.82,213.29,107.73,191,138.32,168,170,175.67,209c5.68,28.89,32.17,58,78.54,58.05l4.37,0c18.54,0,36.46-5.34,50.49-15.06a67.28,67.28,0,0,0,28.44-43c7.67-39-15.34-70.58-37.59-101.13C291.23,95.83,282.26,83.51,275.34,71l-1.91-3.44C267.26,56.46,260.94,45.09,256.33,33Z"/><path class="cls-1" d="M110.23,501c-20.49,0-40.37-6-56-16.83a77.22,77.22,0,0,1-32.4-49.29c-8.51-43.29,15.82-76.71,39.35-109,8.89-12.2,17.28-23.73,23.89-35.68,8.59-15.51,18.32-33.09,22.29-51.69a5,5,0,0,1,9.78,0c3.63,17,12.47,32.86,21,48.24l1.92,3.45c6.62,12,15,23.49,23.91,35.7,23.52,32.29,47.84,65.67,39.33,108.94a77.15,77.15,0,0,1-32.57,49.32C155.07,495,135.13,501,114.62,501l-4.35,0Zm2.1-244c-5,13.68-12.07,26.39-18.49,38C86.93,307.53,78,319.85,69.29,331.77,47,362.36,24,394,31.67,433c5.68,28.89,32.17,58,78.54,58.06l4.37,0c18.54,0,36.46-5.35,50.49-15.06a67.27,67.27,0,0,0,28.44-43c7.67-39-15.34-70.57-37.59-101.12-8.69-11.92-17.66-24.25-24.58-36.75l-1.91-3.43C123.26,280.5,116.94,269.12,112.33,257.06Z"/><path class="cls-1" d="M398.23,501c-20.49,0-40.37-6-56-16.83a77.22,77.22,0,0,1-32.4-49.29c-8.51-43.29,15.82-76.71,39.35-109,8.89-12.2,17.28-23.73,23.89-35.68,8.59-15.51,18.32-33.09,22.29-51.69a5,5,0,0,1,9.78,0c3.63,17,12.47,32.86,21,48.24l1.92,3.45c6.62,12,15,23.49,23.91,35.7,23.52,32.29,47.84,65.67,39.33,108.94a77.15,77.15,0,0,1-32.57,49.32C443.07,495,423.13,501,402.62,501l-4.35,0Zm2.1-244c-5,13.68-12.07,26.39-18.49,38-6.91,12.49-15.88,24.81-24.55,36.73C335,362.36,312,394,319.67,433c5.68,28.89,32.17,58,78.54,58.06l4.37,0c18.54,0,36.46-5.35,50.49-15.06a67.27,67.27,0,0,0,28.44-43c7.67-39-15.34-70.57-37.59-101.12-8.69-11.92-17.66-24.25-24.58-36.75l-1.91-3.43C411.26,280.5,404.94,269.12,400.33,257.06Z"/></svg>