<?xml version="1.0" ?><svg viewBox="0 0 512 512" xmlns="http://www.w3.org/2000/svg"><defs><style>.cls-1{fill:#3f456b;}</style></defs><title/><g id="Lines"><path class="cls-1" d="M242,149h0l-26-.08a5,5,0,0,1,0-10h0l25.63.08A32.41,32.41,0,0,0,252,135.39c5.94-3.42,8.57-8.22,8-14.67-1.42-6.83-4.59-11.92-9.42-15.12-9.76-6.47-23.46-3.73-23.6-3.71A5,5,0,0,1,221.11,98c-3.77-17.71-12.22-29.15-25.12-34a38.85,38.85,0,0,0-18.11-2.14,5,5,0,0,1-5.76-6c1.36-6.13-2.17-14.57-9-21.51C152.2,23.29,136.07,18.61,120,21.9c-16.3,3.33-26.8,12.55-31.21,27.4a56.69,56.69,0,0,0-1.85,22A5,5,0,0,1,82.45,77c-18.15,1.65-21.54,16-21.57,16.1A5,5,0,0,1,55,96.9c-.14,0-15-2.92-24.79,3.66-4.41,3-7.12,7.33-8.29,13.39-1.3,6.69-.35,11.81,2.9,15.65,7.32,8.68,23.9,8.41,24.07,8.4H49l29,.23a5,5,0,0,1,0,10h0L49,148c-1.75,0-21.64.12-31.83-11.91-5.27-6.22-7-14.31-5.11-24,1.69-8.71,5.93-15.38,12.6-19.83,9.53-6.36,21.57-6.32,27.93-5.73A33.33,33.33,0,0,1,76.68,67.74C76.27,54.68,79,20.08,118,12.1c19.4-4,38.94,1.75,52.26,15.3,7.28,7.4,11.59,16.24,12.09,24.29,12,.09,38,4.54,47.46,39.77,6.18-.49,17.12-.27,26.26,5.75C263.31,102,268,109.31,269.9,119a4.5,4.5,0,0,1,.08.51c1,10.55-3.71,19.32-13.28,24.7A42,42,0,0,1,242.6,149,4,4,0,0,1,242,149Z"/><path class="cls-1" d="M243,178H170.94a5,5,0,0,1,0-10h68.37c1.47-5.72,1-10.11-1.36-13.08-5.28-6.6-19.72-6.51-24.36-6a5,5,0,0,1-5.47-6c6.06-27.29-1.87-41.72-5.57-46.66C196.19,87.75,185.8,83,171.66,82c-38.38-2.62-41.56,31-41.68,32.4a5,5,0,0,1-5.92,4.52c-12.7-2.44-23.82-.53-31.3,5.4-6,4.76-9.39,12-9.76,20.9a19.56,19.56,0,0,0,3.83,13.25,5,5,0,0,1-8,6.08A29.66,29.66,0,0,1,73,144.79c.5-11.91,5.19-21.7,13.55-28.32,8.74-6.92,20.81-9.75,34.39-8.16,2.74-11.79,13.23-38.9,51.4-36.3,17.18,1.17,30,7.32,38.22,18.26,11.17,14.93,10.7,34.86,8.54,48.44,7.7.06,20,1.6,26.66,10,5.12,6.4,5.78,15.15,2,26A5,5,0,0,1,243,178Z"/><path class="cls-1" d="M356.89,209.71a5.09,5.09,0,0,1-.95-.09l-2.82-.54a5,5,0,1,1,1.9-9.82l2.81.54a5,5,0,0,1-.94,9.91Z"/><path class="cls-1" d="M403.89,243.71a5.1,5.1,0,0,1-.86-.08l-9.88-1.7a5,5,0,1,1,1.7-9.86l9.88,1.71a5,5,0,0,1-.84,9.93Z"/><path class="cls-1" d="M479.07,430H416.3a5,5,0,0,1-4.61-3.08L395.38,387.8a5,5,0,0,1,1.45-5.79l31.79-26.09a5,5,0,0,1,3.6-1.11l47.28,4.07a5,5,0,0,1,4,2.75l17.93,35.87a5,5,0,0,1-.39,5.12l-17.93,25.27A5,5,0,0,1,479.07,430Zm-59.43-10h56.84l14.71-20.72-15.34-30.67L433.39,365,406,387.38Z"/><path class="cls-1" d="M360,268.71c-12.34,0-27.68-2.43-46.59-9a5,5,0,1,1,3.28-9.44c13.36,4.63,58.54,18,78.82-3.92,5-5.37,9-15.69.18-34.31-6.37-13.39-15.08-24.29-25.2-31.51a94.54,94.54,0,0,0-48.38-16.78,5,5,0,0,1-4.66-4.19c0-.24-3.75-22.34-14.75-38.07-4.5,2.9-12.23,9.13-15.1,19-3,10.47,0,22.7,8.92,36.37a5,5,0,0,1-8.37,5.48c-10.64-16.27-14.05-31.33-10.12-44.76,5.48-18.7,23.22-26.84,24-27.18a5,5,0,0,1,5.91,1.38c11.58,14.06,16.85,33.91,18.65,42.25a104.9,104.9,0,0,1,49.74,18.33c11.5,8.21,21.33,20.44,28.42,35.36,8.77,18.46,8.11,34.58-1.86,45.39C397.52,258.87,384.81,268.71,360,268.71Z"/><path class="cls-1" d="M268,352a5,5,0,0,1-.1-10c35.25-.72,61.74-10.39,77.76-18.38,17.39-8.67,26.56-17.3,26.65-17.38C383.5,295.9,386.94,290,386.5,282c-.49-9-3.63-11.24-6.31-12.19-8.57-3-18.21.52-27.53,4-3.2,1.19-6.52,2.42-9.74,3.35-39.45,11.39-65-6.66-66.09-7.43a5,5,0,0,1,5.86-8.11c1,.7,22.95,15.9,57.46,5.93,2.86-.83,5.87-1.94,9.05-3.11,10.48-3.88,22.36-8.28,34.34-4,8,2.84,12.34,9.92,12.94,21.06.7,12.82-5.82,21.48-17.33,32.1-1.51,1.45-39.46,37-111,38.47Z"/><path class="cls-1" d="M298.59,449.32a5,5,0,0,1-2.72-9.2c19.5-12.6,29.64-29.91,30.13-51.45a75.45,75.45,0,0,0-5.1-28.9,5,5,0,0,1,2.86-6.71,176.47,176.47,0,0,0,57.55-34A5,5,0,1,1,388,326.5a186.26,186.26,0,0,1-56.14,34.19,87.8,87.8,0,0,1,4.14,28.2c-.39,17.23-6.73,41.56-34.7,59.63A5,5,0,0,1,298.59,449.32Z"/><path class="cls-1" d="M361.68,501H185.44c-18.17,0-38.14-7.94-52.13-20.73-31.18-28.49-33-78.2-21.06-114.82,8-24.4,24-47.92,48.84-71.92,8.54-8.24,18-15.65,27.15-22.81,12.93-10.13,26.3-20.6,36.74-33.27,7.39-9,12-19.55,16.78-30.75,4.74-11,9.65-22.36,17.49-32.23,6.77-8.51,13.95-14.9,21.33-19a5,5,0,1,1,4.84,8.75c-6.22,3.44-12.39,9-18.34,16.45-7,8.83-11.45,19.1-16.14,30-4.89,11.35-9.95,23.08-18.25,33.15-11.13,13.51-24.93,24.32-38.29,34.78-8.94,7-18.19,14.26-26.37,22.14-23.68,22.83-38.82,45-46.28,67.82-15.24,46.6-1.79,86,18.3,104.34,12,11,29.86,18.11,45.39,18.11H361.68c1.79,0,4.15-.27,5.2-1.57s.76-4,.76-4.07a5.23,5.23,0,0,1-.11-.78c-.56-10.67-20.85-10.29-21-10.29H280a5,5,0,0,1-3-9c13.28-10.15,22.68-30.64,24-52.2,1.2-20.2-4.78-38.25-16.39-49.53-32.07-31.15-89.8-4.35-90.38-4.07a5,5,0,0,1-4.29-9c2.62-1.24,64.57-30.07,101.63,5.93,13.71,13.31,20.78,34.2,19.42,57.3-1.15,19.5-8,37.81-18.62,50.58h54c11.16-.34,30.17,3.37,31.27,19.42.28,1.72.87,7.42-2.84,12C372.71,498.13,368.88,501,361.68,501Z"/><path class="cls-1" d="M148.5,490.27h-.11c-26.16-.56-72-7-85.53-43.78-12.66-34.58-5.74-79.14,18.52-119.2,2.16-3.58,4.49-7.08,6.74-10.46,5.42-8.17,10.54-15.88,13.7-24.7,4-11.24,2.4-21.13-4.55-27.85-7.74-7.47-20.56-9.19-32.68-4.37a62.19,62.19,0,0,0-20.32,13.63C40.9,276.83,31.61,288,30.9,291a5,5,0,0,1-9,1.88c-7.55-10.74-11.27-26.44-10.48-44.21a109.24,109.24,0,0,1,15.88-51.87C39.48,177.19,69,145.7,129.76,155.06c49.37,7.59,70,35.67,78.53,57.89A107.42,107.42,0,0,1,215,259.58a5,5,0,1,1-9.94-1.16h0a98.66,98.66,0,0,0-6.2-42.22c-11.15-28.52-34.9-45.77-70.59-51.26-23.66-3.64-67.12-3.65-92.43,37.12-16.56,26.7-17.73,58.58-9.75,77.63a139.3,139.3,0,0,1,11.21-13.3A72.18,72.18,0,0,1,60.9,250.62c15.76-6.27,32.76-3.73,43.31,6.47,9.81,9.46,12.37,23.46,7,38.41-3.56,10-9.27,18.56-14.78,26.86-2.19,3.3-4.46,6.71-6.52,10.11C67.24,370,60.63,411.3,72.25,443.05c11.44,31.22,52.75,36.72,76.36,37.22a5,5,0,0,1-.11,10Z"/><path class="cls-1" d="M404.44,336c-8.91,0-16.14-2.61-21.51-7.76-8.89-8.52-9-20.83-9.05-21.35a5,5,0,0,1,5-5h0a5,5,0,0,1,5,5c0,.19.24,8.76,6,14.26,3.69,3.5,9,5.14,15.9,4.89,23.45-.87,32.19-26.83,32.19-43a4.3,4.3,0,0,1,0-.62,20.51,20.51,0,0,0-8.31-19.73c-9.29-6.94-23.53-7.54-37.17-1.57a5,5,0,0,1-4-9.16c16.93-7.41,35-6.37,47.16,2.71A30.55,30.55,0,0,1,448,283.31c-.12,19.91-11.51,51.56-41.81,52.69Z"/><path class="cls-1" d="M442.89,291.29a5.08,5.08,0,0,1-1.7-.3c-22.62-8.18-48.12-4.1-48.37-4.06a5,5,0,1,1-1.64-9.86c1.15-.19,28.37-4.54,53.41,4.51a5,5,0,0,1-1.7,9.71Z"/></g><g id="Outline"><path class="cls-1" d="M193,136a5,5,0,0,1-3.38-1.31c-8.4-7.7-17.41-.68-18.41.15a5,5,0,0,1-6.44-7.66c5.66-4.79,19.55-10.92,31.61.13A5,5,0,0,1,193,136Z"/><path class="cls-1" d="M141,73a5,5,0,0,1-3.38-1.31c-8.4-7.7-17.41-.68-18.41.15a5,5,0,0,1-6.44-7.66c5.66-4.78,19.55-10.92,31.61.13A5,5,0,0,1,141,73Z"/><path class="cls-1" d="M69,119a5,5,0,0,1-3.38-1.31c-8.4-7.7-17.41-.68-18.41.15a5,5,0,0,1-6.44-7.66c5.66-4.78,19.55-10.92,31.61.13A5,5,0,0,1,69,119Z"/></g></svg>