<?xml version="1.0" ?><svg id="Lines" style="enable-background:new 0 0 512 512;" version="1.1" viewBox="0 0 512 512" xml:space="preserve" xmlns="http://www.w3.org/2000/svg" xmlns:xlink="http://www.w3.org/1999/xlink"><style type="text/css">
	.st0{fill:#3F456B;}
</style><title/><path class="st0" d="M36,472c0-2.8,2.2-5,5-5l0,0c2.8,0,5,2.2,5,5l0,0c0,2.8-2.2,5-5,5l0,0C38.2,477,36,474.8,36,472z"/><path class="st0" d="M463,472c0-2.8,2.2-5,5-5l0,0c2.8,0,5,2.2,5,5l0,0c0,2.8-2.2,5-5,5l0,0C465.2,477,463,474.8,463,472z"/><path class="st0" d="M36,43c0-2.8,2.2-5,5-5l0,0c2.8,0,5,2.2,5,5l0,0c0,2.8-2.2,5-5,5l0,0C38.2,48,36,45.8,36,43z"/><path class="st0" d="M463,43c0-2.8,2.2-5,5-5l0,0c2.8,0,5,2.2,5,5l0,0c0,2.8-2.2,5-5,5l0,0C465.2,48,463,45.8,463,43z"/><path class="st0" d="M251,255c0-2.8,2.2-5,5-5l0,0c2.8,0,5,2.2,5,5l0,0c0,2.8-2.2,5-5,5l0,0C253.2,260,251,257.8,251,255z"/><path class="st0" d="M462.7,503H47.3C26.7,503,10,486.3,10,465.7V49.3C10,28.7,26.7,12,47.3,12h415.4c20.6,0,37.3,16.7,37.3,37.3  v416.4C500,486.3,483.3,503,462.7,503z M47.3,22C32.2,22,20,34.2,20,49.3v416.4c0,15.1,12.2,27.3,27.3,27.3h415.4  c15.1,0,27.3-12.2,27.3-27.3V49.3c0-15.1-12.2-27.3-27.3-27.3H47.3z"/><path class="st0" d="M255,454.5c-108.6,0-197-88.4-197-197s88.4-197,197-197s197,88.4,197,197S363.6,454.5,255,454.5z M255,70.5  c-103.1,0-187,83.9-187,187s83.9,187,187,187s187-83.9,187-187S358.1,70.5,255,70.5z"/><path class="st0" d="M255.6,371.1c-64.1,0-116.1-51.9-116.1-116c0-64.1,51.9-116.1,116-116.1c64.1,0,116.1,51.9,116.1,116  c0,0,0,0.1,0,0.1C371.5,319.1,319.6,371,255.6,371.1z M255.6,149c-58.6,0-106.1,47.4-106.1,106s47.4,106.1,106,106.1  s106.1-47.4,106.1-106c0,0,0,0,0,0C361.5,196.5,314.1,149.1,255.6,149z"/><g><g><path class="st0" d="M256,149c-2.8,0-5-2.2-5-5V66c0-2.8,2.2-5,5-5c2.8,0,5,2.2,5,5v78C261,146.8,258.8,149,256,149z"/></g><g><path class="st0" d="M256,453c-2.8,0-5-2.2-5-5v-78c0-2.8,2.2-5,5-5c2.8,0,5,2.2,5,5v78C261,450.8,258.8,453,256,453z"/></g><g><path class="st0" d="M447,262h-78c-2.8,0-5-2.2-5-5c0-2.8,2.2-5,5-5h78c2.8,0,5,2.2,5,5C452,259.8,449.8,262,447,262z"/></g><g><path class="st0" d="M143,262H65c-2.8,0-5-2.2-5-5c0-2.8,2.2-5,5-5h78c2.8,0,5,2.2,5,5C148,259.8,145.8,262,143,262z"/></g><g><path class="st0" d="M236.4,150.7c-2.4,0-4.5-1.7-4.9-4.1l-13.5-76.8c-0.5-2.7,1.3-5.3,4.1-5.8c2.7-0.5,5.3,1.3,5.8,4.1l13.5,76.8    c0.5,2.7-1.3,5.3-4.1,5.8C237,150.7,236.7,150.7,236.4,150.7z"/></g><g><path class="st0" d="M289.2,450.1c-2.4,0-4.5-1.7-4.9-4.1l-13.5-76.8c-0.5-2.7,1.3-5.3,4.1-5.8c2.7-0.5,5.3,1.3,5.8,4.1l13.5,76.8    c0.5,2.7-1.3,5.3-4.1,5.8C289.7,450.1,289.4,450.1,289.2,450.1z"/></g><g><path class="st0" d="M367.3,242.4c-2.4,0-4.5-1.7-4.9-4.1c-0.5-2.7,1.3-5.3,4.1-5.8l76.8-13.5c2.7-0.5,5.3,1.3,5.8,4.1    s-1.3,5.3-4.1,5.8l-76.8,13.5C367.9,242.4,367.6,242.4,367.3,242.4z"/></g><g><path class="st0" d="M67.9,295.2c-2.4,0-4.5-1.7-4.9-4.1c-0.5-2.7,1.3-5.3,4.1-5.8l76.8-13.5c2.7-0.5,5.3,1.3,5.8,4.1    c0.5,2.7-1.3,5.3-4.1,5.8l-76.8,13.5C68.5,295.1,68.2,295.2,67.9,295.2z"/></g><g><path class="st0" d="M217.4,155.8c-2,0-4-1.3-4.7-3.3L186,79.2c-0.9-2.6,0.4-5.5,3-6.4c2.6-0.9,5.5,0.4,6.4,3l26.7,73.3    c0.9,2.6-0.4,5.5-3,6.4C218.5,155.7,217.9,155.8,217.4,155.8z"/></g><g><path class="st0" d="M321.3,441.5c-2,0-4-1.3-4.7-3.3L290,364.9c-0.9-2.6,0.4-5.5,3-6.4c2.6-0.9,5.5,0.4,6.4,3l26.7,73.3    c0.9,2.6-0.4,5.5-3,6.4C322.5,441.4,321.9,441.5,321.3,441.5z"/></g><g><path class="st0" d="M362.2,223.4c-2,0-4-1.3-4.7-3.3c-0.9-2.6,0.4-5.5,3-6.4l73.3-26.7c2.6-0.9,5.5,0.4,6.4,3    c0.9,2.6-0.4,5.5-3,6.4L363.9,223C363.3,223.3,362.8,223.4,362.2,223.4z"/></g><g><path class="st0" d="M76.5,327.3c-2,0-4-1.3-4.7-3.3c-0.9-2.6,0.4-5.5,3-6.4l73.3-26.7c2.6-0.9,5.5,0.4,6.4,3    c0.9,2.6-0.4,5.5-3,6.4L78.2,327C77.7,327.2,77.1,327.3,76.5,327.3z"/></g><g><path class="st0" d="M199.5,164.1c-1.7,0-3.4-0.9-4.3-2.5l-39-67.6c-1.4-2.4-0.6-5.4,1.8-6.8c2.4-1.4,5.4-0.6,6.8,1.8l39,67.6    c1.4,2.4,0.6,5.4-1.8,6.8C201.2,163.9,200.4,164.1,199.5,164.1z"/></g><g><path class="st0" d="M351.5,427.4c-1.7,0-3.4-0.9-4.3-2.5l-39-67.6c-1.4-2.4-0.6-5.4,1.8-6.8c2.4-1.4,5.5-0.6,6.8,1.8l39,67.6    c1.4,2.4,0.6,5.4-1.8,6.8C353.2,427.2,352.4,427.4,351.5,427.4z"/></g><g><path class="st0" d="M353.9,205.5c-1.7,0-3.4-0.9-4.3-2.5c-1.4-2.4-0.6-5.4,1.8-6.8l67.5-39c2.4-1.4,5.5-0.6,6.8,1.8    c1.4,2.4,0.6,5.4-1.8,6.8l-67.5,39C355.6,205.3,354.7,205.5,353.9,205.5z"/></g><g><path class="st0" d="M90.6,357.5c-1.7,0-3.4-0.9-4.3-2.5c-1.4-2.4-0.6-5.4,1.8-6.8l67.5-39c2.4-1.4,5.5-0.6,6.8,1.8    c1.4,2.4,0.6,5.4-1.8,6.8l-67.5,39C92.3,357.3,91.4,357.5,90.6,357.5z"/></g><g><path class="st0" d="M183.4,175.4c-1.4,0-2.8-0.6-3.8-1.8l-50.1-59.8c-1.8-2.1-1.5-5.3,0.6-7c2.1-1.8,5.3-1.5,7,0.6l50.1,59.8    c1.8,2.1,1.5,5.3-0.6,7C185.6,175.1,184.5,175.4,183.4,175.4z"/></g><g><path class="st0" d="M378.8,408.3c-1.4,0-2.8-0.6-3.8-1.8l-50.1-59.8c-1.8-2.1-1.5-5.3,0.6-7c2.1-1.8,5.3-1.5,7,0.6l50.1,59.8    c1.8,2.1,1.5,5.3-0.6,7C381,407.9,379.9,408.3,378.8,408.3z"/></g><g><path class="st0" d="M342.6,189.4c-1.4,0-2.8-0.6-3.8-1.8c-1.8-2.1-1.5-5.3,0.6-7l59.8-50.1c2.1-1.8,5.3-1.5,7,0.6s1.5,5.3-0.6,7    l-59.8,50.1C344.8,189,343.7,189.4,342.6,189.4z"/></g><g><path class="st0" d="M109.7,384.8c-1.4,0-2.8-0.6-3.8-1.8c-1.8-2.1-1.5-5.3,0.6-7l59.8-50.1c2.1-1.8,5.3-1.5,7,0.6    c1.8,2.1,1.5,5.3-0.6,7l-59.8,50.1C112,384.4,110.8,384.8,109.7,384.8z"/></g><g><path class="st0" d="M169.4,189.4c-1.1,0-2.3-0.4-3.2-1.2l-59.8-50.1c-2.1-1.8-2.4-4.9-0.6-7c1.8-2.1,4.9-2.4,7-0.6l59.8,50.1    c2.1,1.8,2.4,4.9,0.6,7C172.3,188.8,170.9,189.4,169.4,189.4z"/></g><g><path class="st0" d="M402.3,384.8c-1.1,0-2.3-0.4-3.2-1.2l-59.8-50.1c-2.1-1.8-2.4-4.9-0.6-7s4.9-2.4,7-0.6l59.8,50.1    c2.1,1.8,2.4,4.9,0.6,7C405.2,384.2,403.7,384.8,402.3,384.8z"/></g><g><path class="st0" d="M328.6,175.4c-1.1,0-2.3-0.4-3.2-1.2c-2.1-1.8-2.4-4.9-0.6-7l50.1-59.8c1.8-2.1,4.9-2.4,7-0.6    c2.1,1.8,2.4,4.9,0.6,7l-50.1,59.8C331.5,174.8,330.1,175.4,328.6,175.4z"/></g><g><path class="st0" d="M133.2,408.3c-1.1,0-2.3-0.4-3.2-1.2c-2.1-1.8-2.4-4.9-0.6-7l50.1-59.8c1.8-2.1,4.9-2.4,7-0.6    c2.1,1.8,2.4,4.9,0.6,7l-50.1,59.8C136.1,407.7,134.7,408.3,133.2,408.3z"/></g><g><path class="st0" d="M158.1,205.5c-0.8,0-1.7-0.2-2.5-0.7l-67.5-39c-2.4-1.4-3.2-4.4-1.8-6.8c1.4-2.4,4.4-3.2,6.8-1.8l67.5,39    c2.4,1.4,3.2,4.4,1.8,6.8C161.5,204.6,159.9,205.5,158.1,205.5z"/></g><g><path class="st0" d="M421.4,357.5c-0.8,0-1.7-0.2-2.5-0.7l-67.5-39c-2.4-1.4-3.2-4.4-1.8-6.8c1.4-2.4,4.4-3.2,6.8-1.8l67.5,39    c2.4,1.4,3.2,4.4,1.8,6.8C424.8,356.6,423.1,357.5,421.4,357.5z"/></g><g><path class="st0" d="M312.5,164.1c-0.8,0-1.7-0.2-2.5-0.7c-2.4-1.4-3.2-4.4-1.8-6.8l39-67.6c1.4-2.4,4.4-3.2,6.8-1.8    c2.4,1.4,3.2,4.4,1.8,6.8l-39,67.6C315.9,163.2,314.2,164.1,312.5,164.1z"/></g><g><path class="st0" d="M160.5,427.4c-0.8,0-1.7-0.2-2.5-0.7c-2.4-1.4-3.2-4.4-1.8-6.8l39-67.6c1.4-2.4,4.4-3.2,6.8-1.8    c2.4,1.4,3.2,4.4,1.8,6.8l-39,67.6C163.9,426.5,162.2,427.4,160.5,427.4z"/></g><g><path class="st0" d="M149.8,223.4c-0.6,0-1.1-0.1-1.7-0.3l-73.3-26.7c-2.6-0.9-3.9-3.8-3-6.4c0.9-2.6,3.8-3.9,6.4-3l73.3,26.7    c2.6,0.9,3.9,3.8,3,6.4C153.8,222.1,151.9,223.4,149.8,223.4z"/></g><g><path class="st0" d="M435.5,327.3c-0.6,0-1.1-0.1-1.7-0.3l-73.3-26.7c-2.6-0.9-3.9-3.8-3-6.4c0.9-2.6,3.8-3.9,6.4-3l73.3,26.7    c2.6,0.9,3.9,3.8,3,6.4C439.4,326.1,437.5,327.3,435.5,327.3z"/></g><g><path class="st0" d="M294.6,155.8c-0.6,0-1.1-0.1-1.7-0.3c-2.6-0.9-3.9-3.8-3-6.4l26.7-73.3c0.9-2.6,3.8-3.9,6.4-3    c2.6,0.9,3.9,3.8,3,6.4l-26.7,73.3C298.6,154.6,296.7,155.8,294.6,155.8z"/></g><g><path class="st0" d="M190.7,441.5c-0.6,0-1.1-0.1-1.7-0.3c-2.6-0.9-3.9-3.8-3-6.4l26.7-73.3c0.9-2.6,3.8-3.9,6.4-3    c2.6,0.9,3.9,3.8,3,6.4l-26.7,73.3C194.6,440.2,192.7,441.5,190.7,441.5z"/></g><g><path class="st0" d="M144.7,242.4c-0.3,0-0.6,0-0.9-0.1L67,228.8c-2.7-0.5-4.5-3.1-4.1-5.8s3.1-4.5,5.8-4.1l76.8,13.5    c2.7,0.5,4.5,3.1,4.1,5.8C149.2,240.7,147.1,242.4,144.7,242.4z"/></g><g><path class="st0" d="M444.1,295.2c-0.3,0-0.6,0-0.9-0.1l-76.8-13.5c-2.7-0.5-4.5-3.1-4.1-5.8c0.5-2.7,3.1-4.5,5.8-4.1l76.8,13.5    c2.7,0.5,4.5,3.1,4.1,5.8C448.6,293.5,446.5,295.2,444.1,295.2z"/></g><g><path class="st0" d="M275.6,150.7c-0.3,0-0.6,0-0.9-0.1c-2.7-0.5-4.5-3.1-4.1-5.8L284.2,68c0.5-2.7,3.1-4.5,5.8-4.1    c2.7,0.5,4.5,3.1,4.1,5.8l-13.5,76.8C280.1,149,278,150.7,275.6,150.7z"/></g><g><path class="st0" d="M222.8,450.1c-0.3,0-0.6,0-0.9-0.1c-2.7-0.5-4.5-3.1-4.1-5.8l13.5-76.8c0.5-2.7,3.1-4.5,5.8-4.1    c2.7,0.5,4.5,3.1,4.1,5.8L227.8,446C227.3,448.4,225.2,450.1,222.8,450.1z"/></g></g></svg>