<?xml version="1.0" ?><svg viewBox="0 0 512 512" xmlns="http://www.w3.org/2000/svg"><defs><style>.cls-1{fill:#3f456b;}</style></defs><title/><g id="Lines"><path class="cls-1" d="M253,500H94.47c-21,0-29.12-20.57-30.49-31.44L17.15,94.26c-.68-2.91-3.89-18.67,3.36-27.9C22.78,63.46,27.08,60,34.64,60H334.42a17,17,0,0,1,13.29,4.77c5.82,5.68,7.9,15.5,6.2,29.2l-6.58,51.74-.92,7.37L341,199.58a5,5,0,0,1-9.94-1.16l5.46-46.54.91-7.41L344,92.72c1.27-10.12.11-17.51-3.26-20.79a7.14,7.14,0,0,0-5.27-2,4.74,4.74,0,0,1-.75.06H34.64c-3.83,0-5.41,1.44-6.26,2.52-3.87,4.92-2.3,16.13-1.45,19.67a5.54,5.54,0,0,1,.11.56L73.91,467.31C74,468.23,77.08,490,94.47,490H253a5,5,0,0,1,0,10Z"/><path class="cls-1" d="M405.86,500H242.57c-26.72,0-35.44-18.67-36.33-28.64l-8.67-69.8c0-.06,0-.12,0-.18-.07-.8-.14-1.95-.24-3.4-2.11-32.29-7.54-52.23-16.12-59.26-14.69-12-16.12-23.11-16.25-25.43L154.46,226c-1.81-10.73-.13-19,5-24.48,6.35-6.85,15.64-6.65,17.47-6.54H475.3c1.82-.11,11.12-.31,17.48,6.54,5.12,5.52,6.8,13.75,5,24.48l-10.48,87.26c-.13,2.32-1.56,13.39-16.25,25.43-8.58,7-14,27-16.12,59.27-.09,1.45-.17,2.6-.24,3.39,0,.06,0,.12,0,.18L446,471.45C446,471.74,442,500,405.86,500ZM207.51,400.42l8.66,69.8a1.36,1.36,0,0,1,0,.2,23.09,23.09,0,0,0,4.05,10c4.58,6.37,12.09,9.6,22.33,9.6H405.86c27.12,0,30.09-19,30.21-19.82l8.66-69.77c.06-.74.13-1.78.21-3.08C446.43,374.58,450.1,343,464.7,331c11.6-9.51,12.54-17.44,12.6-18.24a2.63,2.63,0,0,1,0-.47l10.52-87.56,0-.25c.89-5.19,1.19-12.21-2.44-16.12C482,204.59,476,205,476,205l-.47,0H176.75l-.47,0s-6-.44-9.54,3.41-3.28,10.9-2.4,16.07c0,.09,0,.17,0,.25l10.51,87.58a2.53,2.53,0,0,1,0,.46c.06.8,1,8.73,12.6,18.23,14.6,12,18.27,43.6,19.76,66.34C207.38,398.63,207.44,399.68,207.51,400.42Z"/></g><g id="Outline"><path class="cls-1" d="M94.12,355.55h0a5,5,0,0,1-4.26-5.64h0a5,5,0,0,1,5.65-4.26h0a5,5,0,0,1,4.26,5.65h0a5,5,0,0,1-5,4.31h0A5.49,5.49,0,0,1,94.12,355.55Zm15.71-5.22a5,5,0,0,1,2.51-6.61h0a5,5,0,0,1,6.61,2.5h0a5,5,0,0,1-2.5,6.61h0a5,5,0,0,1-2,.44h0A5,5,0,0,1,109.83,350.33Zm-36.54-3.64a5,5,0,0,1-.24-7.07h0a5,5,0,0,1,7.06-.24h0a5,5,0,0,1,.25,7.06h0A5,5,0,0,1,76.7,348h0A5,5,0,0,1,73.29,346.69Zm53-7.5a5,5,0,0,1-1.75-6.85h0a5,5,0,0,1,6.85-1.75h0a5,5,0,0,1,1.76,6.85h0a5,5,0,0,1-4.31,2.45h0A4.93,4.93,0,0,1,126.25,339.19ZM62,327a5,5,0,0,1,3.88-5.92h0A5,5,0,0,1,71.79,325h0a5,5,0,0,1-3.87,5.91h0a5.23,5.23,0,0,1-1,.11h0A5,5,0,0,1,62,327Zm72.49-6a5,5,0,0,1-4.12-5.75h0a5,5,0,0,1,5.75-4.12h0a5,5,0,0,1,4.11,5.75h0a5,5,0,0,1-4.92,4.18h0A5.66,5.66,0,0,1,134.49,321ZM66.58,310.88a5,5,0,0,1-2.35-6.68h0a5,5,0,0,1,6.67-2.35h0a5,5,0,0,1,2.35,6.67h0a5,5,0,0,1-4.51,2.84h0A5,5,0,0,1,66.58,310.88Zm29.24-3.15h0A5,5,0,0,1,99,301.42h0a5,5,0,0,1,6.32,3.17h0a5,5,0,0,1-3.18,6.32h0a5,5,0,0,1-1.57.25h0A5,5,0,0,1,95.82,307.73ZM79.75,296.29a5,5,0,0,1,4.91-5.08h0a5,5,0,0,1,5.09,4.92h0a5,5,0,0,1-4.92,5.08h-.09A5,5,0,0,1,79.75,296.29Zm51.25.29h0a5,5,0,0,1,4.55-5.42h0a5,5,0,0,1,5.41,4.55h0a5,5,0,0,1-4.55,5.41h0a3.1,3.1,0,0,1-.43,0h0A5,5,0,0,1,131,296.58Zm-3.77-18.39a5,5,0,0,1,3.15-6.33h0a5,5,0,0,1,6.33,3.15h0a5,5,0,0,1-3.16,6.33h0a4.84,4.84,0,0,1-1.58.26h0A5,5,0,0,1,127.23,278.19ZM119,261.83a5,5,0,0,1,1-7h0a5,5,0,0,1,7,1h0a5,5,0,0,1-1,7h0a5,5,0,0,1-3,1h0A5,5,0,0,1,119,261.83Zm-12.41-16a5,5,0,0,1,1.35-6.94h0a5,5,0,0,1,6.94,1.34h0a5,5,0,0,1-1.35,6.95h0a5,5,0,0,1-2.79.85h0A5,5,0,0,1,106.54,245.87ZM96.48,227.52A5,5,0,0,1,99.13,221h0a5,5,0,0,1,6.55,2.65h0a5,5,0,0,1-2.65,6.56h0a5,5,0,0,1-2,.4h0A5,5,0,0,1,96.48,227.52ZM90.7,207A5,5,0,0,1,95,201.42h0a5,5,0,0,1,5.58,4.33h0a5,5,0,0,1-4.33,5.59h0c-.21,0-.42,0-.63,0h0A5,5,0,0,1,90.7,207Zm101-2.54a5,5,0,0,1-2.2-6.72h0a5,5,0,0,1,6.72-2.2h0a5,5,0,0,1,2.2,6.72h0A5,5,0,0,1,194,205h0A4.91,4.91,0,0,1,191.74,204.46ZM94.92,191.38A5,5,0,0,1,90.38,186h0a5,5,0,0,1,5.43-4.53h0a5,5,0,0,1,4.53,5.42h0a5,5,0,0,1-5,4.56h0ZM199.33,186a5,5,0,0,1-4.51-5.44h0a5,5,0,0,1,5.45-4.52h0a5,5,0,0,1,4.51,5.45h0a5,5,0,0,1-5,4.53h0A3.77,3.77,0,0,1,199.33,186ZM98,171.61a5,5,0,0,1-2.8-6.5h0a5,5,0,0,1,6.49-2.8h0a5,5,0,0,1,2.81,6.49h0A5,5,0,0,1,99.82,172h0A5.22,5.22,0,0,1,98,171.61Zm94.15-8.1a5,5,0,0,1,2.51-6.61h0a5,5,0,0,1,6.61,2.51h0a5,5,0,0,1-2.51,6.61h0a4.93,4.93,0,0,1-2,.44h0A5,5,0,0,1,192.13,163.51ZM107,153.79a5,5,0,0,1,0-7.07h0a5,5,0,0,1,7.07-.06h0a5,5,0,0,1,0,7.08h0a5,5,0,0,1-3.56,1.49h0A5,5,0,0,1,107,153.79ZM181.24,150a5,5,0,0,1-.91-7h0a5,5,0,0,1,7-.91h0a5,5,0,0,1,.92,7h0a5,5,0,0,1-4,1.95h0A5,5,0,0,1,181.24,150Zm-58.74-8.75a5,5,0,0,1,2.85-6.48h0a5,5,0,0,1,6.47,2.85h0a5,5,0,0,1-2.84,6.47h0a5,5,0,0,1-1.81.34h0A5,5,0,0,1,122.5,141.25Zm42.62.87a5,5,0,0,1-3.49-6.15h0a5,5,0,0,1,6.14-3.49h0a5,5,0,0,1,3.49,6.15h0a5,5,0,0,1-4.81,3.67h0A5.07,5.07,0,0,1,165.12,142.12Zm-23.47-6.56a5,5,0,0,1,4.7-5.28h0a5,5,0,0,1,5.28,4.7h0a5,5,0,0,1-4.7,5.28h-.29A5,5,0,0,1,141.65,135.56Z"/><path class="cls-1" d="M105.06,386.92a5,5,0,0,1,4.6-5.37h0a5,5,0,0,1,5.37,4.59h0a5,5,0,0,1-4.59,5.38H110A5,5,0,0,1,105.06,386.92Zm-16,3.29a5,5,0,0,1-3.8-6h0a5,5,0,0,1,6-3.79h0a5,5,0,0,1,3.8,6h0a5,5,0,0,1-4.88,3.92h0A5.12,5.12,0,0,1,89.08,390.21Zm35.76-6.11a5,5,0,0,1,3-6.41h0a5,5,0,0,1,6.42,3h0a5,5,0,0,1-3,6.41h0a5,5,0,0,1-1.72.31h0A5,5,0,0,1,124.84,384.1Zm-55.77-2.61a5,5,0,0,1-1.2-7h0a5,5,0,0,1,7-1.2h0a5,5,0,0,1,1.21,7h0A5,5,0,0,1,72,382.4h0A5,5,0,0,1,69.07,381.49Zm74-5.68a5,5,0,0,1,.76-7h0a5,5,0,0,1,7,.77h0a5,5,0,0,1-.77,7h0a5,5,0,0,1-3.12,1.11h0A5,5,0,0,1,143,375.81ZM54.13,364.76h0a5,5,0,0,1,2.44-6.63h0a5,5,0,0,1,6.64,2.44h0a5,5,0,0,1-2.45,6.64h0a5,5,0,0,1-2.09.46h0A5,5,0,0,1,54.13,364.76ZM157.42,362a5,5,0,0,1-1.73-6.85h0a5,5,0,0,1,6.86-1.73h0a5,5,0,0,1,1.73,6.86h0a5,5,0,0,1-4.3,2.43h0A5,5,0,0,1,157.42,362Zm8.68-18a5,5,0,0,1-3.95-5.86h0a5,5,0,0,1,5.87-3.95h0a5,5,0,0,1,3.94,5.87h0a5,5,0,0,1-4.9,4h0A4.54,4.54,0,0,1,166.1,344Z"/><path class="cls-1" d="M99.81,426.11h0a5,5,0,0,1-4.52-5.44h0a5,5,0,0,1,5.43-4.52h0a5,5,0,0,1,4.52,5.44h0a5,5,0,0,1-5,4.54h0A3.54,3.54,0,0,1,99.81,426.11Zm15.46-4.59a5,5,0,0,1,4.37-5.56h0a5,5,0,0,1,5.56,4.38h0a5,5,0,0,1-4.38,5.55h0a4.22,4.22,0,0,1-.6,0h0A5,5,0,0,1,115.27,421.52Zm-36,.81a5,5,0,0,1-3.49-6.15h0A5,5,0,0,1,82,412.69h0a5,5,0,0,1,3.49,6.15h0a5,5,0,0,1-4.82,3.67h0A5.07,5.07,0,0,1,79.29,422.33ZM134.94,418a5,5,0,0,1,2.9-6.45h0a5,5,0,0,1,6.45,2.91h0a5,5,0,0,1-2.9,6.44h0a4.86,4.86,0,0,1-1.77.33h0A5,5,0,0,1,134.94,418Zm-75.39-3.05h0a5,5,0,0,1-2.1-6.75h0a5,5,0,0,1,6.75-2.1h0a5,5,0,0,1,2.1,6.75h0a5,5,0,0,1-4.43,2.68h0A5,5,0,0,1,59.55,414.94Zm93.58-5.21a5,5,0,0,1,1.21-7h0a5,5,0,0,1,7,1.21h0a5,5,0,0,1-1.21,7h0a5,5,0,0,1-2.87.91h0A5,5,0,0,1,153.13,409.73Zm15.63-12.43a5,5,0,0,1-.35-7.06h0a5,5,0,0,1,7.06-.35h0a5,5,0,0,1,.35,7.06h0a5,5,0,0,1-3.7,1.65h0A5,5,0,0,1,168.76,397.3Zm12.69-15.43a5,5,0,0,1-1.59-6.89h0a5,5,0,0,1,6.89-1.59h0a5,5,0,0,1,1.59,6.89h0a5,5,0,0,1-4.25,2.35h0A5,5,0,0,1,181.45,381.87Zm10-17.32a5,5,0,0,1-2.5-6.61h0a5,5,0,0,1,6.62-2.5h0a5,5,0,0,1,2.49,6.61h0a5,5,0,0,1-4.55,2.94h0A5,5,0,0,1,191.42,364.55Z"/><path class="cls-1" d="M236.85,204.87a5,5,0,0,1-3.72-6h0a5,5,0,0,1,6-3.72h0a5,5,0,0,1,3.72,6h0A5,5,0,0,1,238,205h0A5.07,5.07,0,0,1,236.85,204.87ZM240,185.13a5,5,0,0,1-4.92-5.07h0a5,5,0,0,1,5.07-4.93h0a5,5,0,0,1,4.92,5.07h0a5,5,0,0,1-5,4.93H240ZM64.57,174a5,5,0,0,1-3.91-5.89h0a5,5,0,0,1,5.89-3.91h0a5,5,0,0,1,3.91,5.89h0a5,5,0,0,1-4.89,4h0A4.92,4.92,0,0,1,64.57,174Zm169-12.87h0a5,5,0,0,1,4-5.81h0a5,5,0,0,1,5.81,4h0a5,5,0,0,1-4,5.81h0a4.58,4.58,0,0,1-.9.09h0A5,5,0,0,1,233.6,161.11ZM69.53,154.62a5,5,0,0,1-2.64-6.56h0a5,5,0,0,1,6.56-2.64h0A5,5,0,0,1,76.09,152h0a5,5,0,0,1-4.6,3h0A5,5,0,0,1,69.53,154.62Zm158.57-11.4h0a5,5,0,0,1,2.47-6.62h0a5,5,0,0,1,6.62,2.47h0a5,5,0,0,1-2.48,6.63h0a5.08,5.08,0,0,1-2.07.45h0A5,5,0,0,1,228.1,143.22ZM78.31,136.65a5,5,0,0,1-1.28-7h0a5,5,0,0,1,7-1.27h0a5,5,0,0,1,1.27,6.95h0a5,5,0,0,1-4.12,2.16h0A4.94,4.94,0,0,1,78.31,136.65Zm139.77-8.89a5,5,0,0,1,.41-7.07h0a5,5,0,0,1,7.06.42h0a5,5,0,0,1-.41,7.06h0a5,5,0,0,1-3.32,1.26h0A5,5,0,0,1,218.08,127.76Zm-127.6-7a5,5,0,0,1,.15-7.06h0a5,5,0,0,1,7.07.15h0a5,5,0,0,1-.15,7.07h0a5,5,0,0,1-3.46,1.38h0A5,5,0,0,1,90.48,120.77ZM203.88,116h0a5,5,0,0,1-1.68-6.87h0a5,5,0,0,1,6.87-1.67h0a5,5,0,0,1,1.68,6.87h0a5,5,0,0,1-4.28,2.4h0A4.92,4.92,0,0,1,203.88,116ZM106,108.22a5,5,0,0,1,2.49-6.61h0a5,5,0,0,1,6.62,2.49h0a5,5,0,0,1-2.49,6.62h0a5,5,0,0,1-2.06.44h0A5,5,0,0,1,106,108.22Zm80.72-.49h0a5,5,0,0,1-2.94-6.43h0a5,5,0,0,1,6.43-2.94h0a5,5,0,0,1,2.94,6.43h0a5,5,0,0,1-4.69,3.26h0A5,5,0,0,1,186.75,107.73Zm-62.13-6.89a5,5,0,0,1,3.69-6h0a5,5,0,0,1,6,3.68h0a5,5,0,0,1-3.68,6h0a5.35,5.35,0,0,1-1.18.14h0A5,5,0,0,1,124.62,100.84Zm43.79,2a5,5,0,0,1-4.16-5.72h0A5,5,0,0,1,170,93h0a5,5,0,0,1,4.16,5.72h0A5,5,0,0,1,169.2,103h0A5.25,5.25,0,0,1,168.41,102.89Zm-24.15-5.83A5,5,0,0,1,149,91.85h0a5,5,0,0,1,5.22,4.77h0a5,5,0,0,1-4.77,5.21h-.23A5,5,0,0,1,144.26,97.06Z"/><path class="cls-1" d="M460,299a5,5,0,0,1,5-5h0a5,5,0,0,1,5,5h0a5,5,0,0,1-5,5h0A5,5,0,0,1,460,299Zm-20,0a5,5,0,0,1,5-5h0a5,5,0,0,1,5,5h0a5,5,0,0,1-5,5h0A5,5,0,0,1,440,299Zm-20,0a5,5,0,0,1,5-5h0a5,5,0,0,1,5,5h0a5,5,0,0,1-5,5h0A5,5,0,0,1,420,299Zm-20,0a5,5,0,0,1,5-5h0a5,5,0,0,1,5,5h0a5,5,0,0,1-5,5h0A5,5,0,0,1,400,299Zm-20,0a5,5,0,0,1,5-5h0a5,5,0,0,1,5,5h0a5,5,0,0,1-5,5h0A5,5,0,0,1,380,299Zm-20,0a5,5,0,0,1,5-5h0a5,5,0,0,1,5,5h0a5,5,0,0,1-5,5h0A5,5,0,0,1,360,299Zm-20,0a5,5,0,0,1,5-5h0a5,5,0,0,1,5,5h0a5,5,0,0,1-5,5h0A5,5,0,0,1,340,299Zm-20,0a5,5,0,0,1,5-5h0a5,5,0,0,1,5,5h0a5,5,0,0,1-5,5h0A5,5,0,0,1,320,299Zm-20,0a5,5,0,0,1,5-5h0a5,5,0,0,1,5,5h0a5,5,0,0,1-5,5h0A5,5,0,0,1,300,299Zm-20,0a5,5,0,0,1,5-5h0a5,5,0,0,1,5,5h0a5,5,0,0,1-5,5h0A5,5,0,0,1,280,299Zm-20,0a5,5,0,0,1,5-5h0a5,5,0,0,1,5,5h0a5,5,0,0,1-5,5h0A5,5,0,0,1,260,299Zm-20,0a5,5,0,0,1,5-5h0a5,5,0,0,1,5,5h0a5,5,0,0,1-5,5h0A5,5,0,0,1,240,299Zm-20,0a5,5,0,0,1,5-5h0a5,5,0,0,1,5,5h0a5,5,0,0,1-5,5h0A5,5,0,0,1,220,299Zm-20,0a5,5,0,0,1,5-5h0a5,5,0,0,1,5,5h0a5,5,0,0,1-5,5h0A5,5,0,0,1,200,299Zm-20,0a5,5,0,0,1,5-5h0a5,5,0,0,1,5,5h0a5,5,0,0,1-5,5h0A5,5,0,0,1,180,299Z"/><path class="cls-1" d="M460,266a5,5,0,0,1,5-5h0a5,5,0,0,1,5,5h0a5,5,0,0,1-5,5h0A5,5,0,0,1,460,266Zm-20,0a5,5,0,0,1,5-5h0a5,5,0,0,1,5,5h0a5,5,0,0,1-5,5h0A5,5,0,0,1,440,266Zm-20,0a5,5,0,0,1,5-5h0a5,5,0,0,1,5,5h0a5,5,0,0,1-5,5h0A5,5,0,0,1,420,266Zm-20,0a5,5,0,0,1,5-5h0a5,5,0,0,1,5,5h0a5,5,0,0,1-5,5h0A5,5,0,0,1,400,266Zm-20,0a5,5,0,0,1,5-5h0a5,5,0,0,1,5,5h0a5,5,0,0,1-5,5h0A5,5,0,0,1,380,266Zm-20,0a5,5,0,0,1,5-5h0a5,5,0,0,1,5,5h0a5,5,0,0,1-5,5h0A5,5,0,0,1,360,266Zm-20,0a5,5,0,0,1,5-5h0a5,5,0,0,1,5,5h0a5,5,0,0,1-5,5h0A5,5,0,0,1,340,266Zm-20,0a5,5,0,0,1,5-5h0a5,5,0,0,1,5,5h0a5,5,0,0,1-5,5h0A5,5,0,0,1,320,266Zm-20,0a5,5,0,0,1,5-5h0a5,5,0,0,1,5,5h0a5,5,0,0,1-5,5h0A5,5,0,0,1,300,266Zm-20,0a5,5,0,0,1,5-5h0a5,5,0,0,1,5,5h0a5,5,0,0,1-5,5h0A5,5,0,0,1,280,266Zm-20,0a5,5,0,0,1,5-5h0a5,5,0,0,1,5,5h0a5,5,0,0,1-5,5h0A5,5,0,0,1,260,266Zm-20,0a5,5,0,0,1,5-5h0a5,5,0,0,1,5,5h0a5,5,0,0,1-5,5h0A5,5,0,0,1,240,266Zm-20,0a5,5,0,0,1,5-5h0a5,5,0,0,1,5,5h0a5,5,0,0,1-5,5h0A5,5,0,0,1,220,266Zm-20,0a5,5,0,0,1,5-5h0a5,5,0,0,1,5,5h0a5,5,0,0,1-5,5h0A5,5,0,0,1,200,266Zm-20,0a5,5,0,0,1,5-5h0a5,5,0,0,1,5,5h0a5,5,0,0,1-5,5h0A5,5,0,0,1,180,266Z"/><path class="cls-1" d="M460,232a5,5,0,0,1,5-5h0a5,5,0,0,1,5,5h0a5,5,0,0,1-5,5h0A5,5,0,0,1,460,232Zm-20,0a5,5,0,0,1,5-5h0a5,5,0,0,1,5,5h0a5,5,0,0,1-5,5h0A5,5,0,0,1,440,232Zm-20,0a5,5,0,0,1,5-5h0a5,5,0,0,1,5,5h0a5,5,0,0,1-5,5h0A5,5,0,0,1,420,232Zm-20,0a5,5,0,0,1,5-5h0a5,5,0,0,1,5,5h0a5,5,0,0,1-5,5h0A5,5,0,0,1,400,232Zm-20,0a5,5,0,0,1,5-5h0a5,5,0,0,1,5,5h0a5,5,0,0,1-5,5h0A5,5,0,0,1,380,232Zm-20,0a5,5,0,0,1,5-5h0a5,5,0,0,1,5,5h0a5,5,0,0,1-5,5h0A5,5,0,0,1,360,232Zm-20,0a5,5,0,0,1,5-5h0a5,5,0,0,1,5,5h0a5,5,0,0,1-5,5h0A5,5,0,0,1,340,232Zm-20,0a5,5,0,0,1,5-5h0a5,5,0,0,1,5,5h0a5,5,0,0,1-5,5h0A5,5,0,0,1,320,232Zm-20,0a5,5,0,0,1,5-5h0a5,5,0,0,1,5,5h0a5,5,0,0,1-5,5h0A5,5,0,0,1,300,232Zm-20,0a5,5,0,0,1,5-5h0a5,5,0,0,1,5,5h0a5,5,0,0,1-5,5h0A5,5,0,0,1,280,232Zm-20,0a5,5,0,0,1,5-5h0a5,5,0,0,1,5,5h0a5,5,0,0,1-5,5h0A5,5,0,0,1,260,232Zm-20,0a5,5,0,0,1,5-5h0a5,5,0,0,1,5,5h0a5,5,0,0,1-5,5h0A5,5,0,0,1,240,232Zm-20,0a5,5,0,0,1,5-5h0a5,5,0,0,1,5,5h0a5,5,0,0,1-5,5h0A5,5,0,0,1,220,232Zm-20,0a5,5,0,0,1,5-5h0a5,5,0,0,1,5,5h0a5,5,0,0,1-5,5h0A5,5,0,0,1,200,232Zm-20,0a5,5,0,0,1,5-5h0a5,5,0,0,1,5,5h0a5,5,0,0,1-5,5h0A5,5,0,0,1,180,232Z"/></g></svg>