<?xml version="1.0" ?><svg id="Lines" style="enable-background:new 0 0 512 512;" version="1.1" viewBox="0 0 512 512" xml:space="preserve" xmlns="http://www.w3.org/2000/svg" xmlns:xlink="http://www.w3.org/1999/xlink"><style type="text/css">
	.st0{fill:#3F456B;}
	.st1{fill:none;}
</style><title/><path class="st0" d="M175.8,102.7c-8,0.1-16-0.8-23.9-2.7c-17.1-4.2-28-12.9-30.7-24.5c-5.3-23,24.4-48.9,67.5-58.8  s81.1,0.3,86.4,23.4c2.1,9.3-1.3,19.3-9.9,28.8c-1.8,2.1-5,2.3-7.1,0.5s-2.3-5-0.5-7.1c0.1-0.1,0.1-0.1,0.2-0.2  c4.4-4.9,9.3-12.2,7.5-19.8c-3.9-17-38-24.3-74.4-15.9s-64,29.8-60,46.8c1.8,7.6,10.2,13.8,23.3,17c14.4,3.5,32.6,3.1,51.1-1.1  c9.8-2.2,19.3-5.5,28.4-9.9c2.5-1.2,5.5-0.2,6.7,2.3s0.2,5.5-2.3,6.7c-9.8,4.7-20,8.3-30.6,10.7  C197.2,101.4,186.5,102.7,175.8,102.7z"/><path class="st0" d="M219.6,166.6c-2.3,0-4.3-1.6-4.9-3.9l-15.3-66.5c-0.6-2.7,1.1-5.4,3.8-6s5.4,1.1,6,3.8l15.3,66.5  c0.6,2.7-1.1,5.4-3.7,6l0,0C220.4,166.6,220,166.6,219.6,166.6z"/><path class="st0" d="M184.9,243c-2.8,0-5-2.2-5-5c0-1.2,0.4-2.4,1.2-3.3c9.7-11.2,13.3-21.9,9.8-29.6c-4.3-9.6-19.7-14-40-11.4  c-2.7,0.3-5.2-1.7-5.5-4.5c-0.3-2.7,1.6-5.1,4.2-5.4c25.2-3.2,44,3.3,50.3,17.2c5.2,11.5,1.2,25.8-11.4,40.2  C187.7,242.4,186.4,243,184.9,243z"/><path class="st0" d="M65.3,242.2c-2.8,0-5-2.2-5-5c0-0.9,0.3-1.9,0.8-2.7c8.5-13.3,24.2-26.5,43.1-36.2c2.5-1.3,5.5-0.3,6.7,2.2  s0.3,5.5-2.2,6.7c-17.4,8.9-31.6,20.7-39.2,32.6C68.6,241.3,67,242.2,65.3,242.2z"/><path class="st0" d="M384.8,222.4h-1c-2.8-0.1-4.9-2.4-4.8-5.2l0,0c0.1-2.8,2.4-4.9,5.2-4.8c8.8,0,16-7.2,15.9-16.1  c0-8.1-6.1-14.9-14.1-15.8c-2.8-0.2-4.8-2.6-4.6-5.4s2.6-4.8,5.4-4.6c14.3,1.4,24.7,14.1,23.4,28.4C408.8,212,398,222.1,384.8,222.4  L384.8,222.4z"/><path class="st0" d="M216.5,209.7c-0.2,0-0.5,0-0.7,0c-14.2-2.3-23.8-15.6-21.5-29.8c2.1-13.1,13.8-22.5,27.1-21.8  c0.6,0,1.1,0.1,1.7,0.2c2.7,0.3,4.7,2.7,4.5,5.5s-2.7,4.7-5.5,4.5c-0.1,0-0.2,0-0.3,0c-0.4,0-0.7-0.1-1.1-0.1  c-8.8-0.3-16.3,6.6-16.6,15.4c-0.3,8,5.3,14.9,13.2,16.4c2.7,0.4,4.6,2.9,4.2,5.7C221.1,207.9,219,209.7,216.5,209.7L216.5,209.7z"/><path class="st0" d="M216.7,241.6L216.7,241.6c-2.9,0-5-2.3-5-5.1l0,0c2-107.7,29.7-145.4,30.9-147c1-1.4,2.7-2.1,4.4-2l90.3,6.8  c2.8,0.2,4.8,2.6,4.6,5.4s-2.6,4.8-5.4,4.6l0,0l-87.4-6.6c-5.6,9.3-25.8,49.1-27.4,138.9C221.7,239.5,219.4,241.7,216.7,241.6z"/><path class="st0" d="M381.3,241.6h-0.6c-2.7-0.3-4.7-2.8-4.4-5.5l0,0c3-26.2,3.9-50.4,2.7-72c-0.1-2.8,2-5.1,4.7-5.3  c2.8-0.1,5.1,2,5.3,4.7c1.2,22.1,0.2,46.9-2.8,73.6C386,239.7,383.8,241.6,381.3,241.6z"/><path class="st0" d="M337.3,103.6h-0.4L236.2,96c-2.8-0.2-4.8-2.6-4.6-5.4l2-26.1c0.2-2.7,2.6-4.8,5.4-4.6l96.2,7.2  c2.8,0.2,4.8,2.6,4.6,5.4s-2.6,4.8-5.4,4.6l-91.3-6.9L242,86.4l95.7,7.2c2.8,0.1,4.9,2.4,4.8,5.2S340.1,103.7,337.3,103.6  L337.3,103.6z"/><path class="st0" d="M302.5,216.2c-0.6,0-1.3,0-2-0.1c-14.3-1-25.1-13.5-24-27.8c1-14.3,13.5-25.1,27.8-24c7.8,0.6,14.9,4.6,19.4,11  c1.6,2.3,1.1,5.4-1.2,7c-2.3,1.6-5.4,1.1-7-1.2c-5.1-7.2-15-9-22.3-4c-7.2,5.1-9,15-4,22.3c2.8,4,7.2,6.5,12,6.8  c0.8,0.1,1.7,0.1,2.5,0c2.8-0.2,5.2,1.8,5.4,4.6s-1.8,5.2-4.6,5.4C303.9,216.1,303.2,216.2,302.5,216.2z"/><path class="st0" d="M303.7,174h-0.4c-2.8-0.2-4.8-2.6-4.6-5.4l5.5-72.5c0.2-2.8,2.6-4.8,5.4-4.6s4.8,2.6,4.6,5.4l-5.5,72.5  C308.5,172,306.3,174,303.7,174z"/><path class="st0" d="M291.1,241.4c-2.8,0-5-2.2-5-5c0-0.9,0.2-1.7,0.7-2.5c12.8-22.3,22.2-40.7,29.6-57.9c22.8-53,22-114.6-2-160.6  c-1.3-2.4-0.3-5.5,2.1-6.7c1.5-0.8,3.3-0.8,4.8,0.1l177,102c2.4,1.4,3.2,4.4,1.8,6.8c-0.9,1.5-2.4,2.4-4.1,2.5  c-17.2,0.9-34.1,4.4-50.2,10.5C400,148.2,364,181.7,332.6,236.2c-1.4,2.4-4.4,3.2-6.8,1.9c-2.4-1.4-3.2-4.4-1.9-6.8c0,0,0,0,0-0.1  c32.2-55.8,70.9-91.8,118.3-110c12.1-4.6,24.6-7.8,37.5-9.7L329.9,25.3c18.7,46.5,17.4,104.3-4.3,154.7  c-7.6,17.6-17.1,36.3-30.2,58.9C294.6,240.5,292.9,241.4,291.1,241.4z"/><path class="st0" d="M125,242.2c-1.9,0-3.6-1.1-4.5-2.7L66.9,133.8c-1.2-2.5-0.3-5.5,2.2-6.7l38.2-19.4c2.5-1.3,5.5-0.3,6.7,2.2l0,0  l63.1,124.5c1.4,2.4,0.5,5.5-1.9,6.8c-2.4,1.4-5.5,0.5-6.8-1.9c-0.1-0.1-0.1-0.3-0.2-0.4l-60.9-120.1L78,133.7L129.5,235  c1.2,2.5,0.3,5.5-2.2,6.7C126.6,242.1,125.8,242.2,125,242.2z"/><path class="st0" d="M71.4,138.3c-1.6,0-3.1-0.8-4-2.1c-2.8-3.9-7.4-6.3-12.2-6.4c-2,0.1-3.8-1-4.7-2.7L16,59  c-1.1-2.1-0.5-4.7,1.3-6.1C29.7,42.7,30,32,30,31.6c0-1.2,0.4-2.3,1.2-3.2c0.3-0.4,7.4-8.6,18.7-9.5c1.1-0.1,2.3,0.2,3.2,0.9  c0.3,0.2,9.7,6.2,24.6,2.5c2.3-0.6,4.6,0.5,5.7,2.6L118,93c0.9,1.7,0.7,3.8-0.6,5.4c-2.6,4-3.3,8.9-1.8,13.4c0.9,2.6-0.4,5.5-3,6.4  s-5.5-0.4-6.4-3c0-0.1-0.1-0.2-0.1-0.3c-2.1-6.6-1.5-13.7,1.7-19.8L76.2,32.7C62.8,35,53.1,31,49.3,29c-3.5,0.7-6.8,2.4-9.4,4.8  c-0.6,4.4-3,14.4-13.2,24.1L58.2,120c7,0.9,13.2,4.6,17.3,10.3c1.6,2.2,1.1,5.4-1.1,7C73.5,137.9,72.5,138.3,71.4,138.3L71.4,138.3z  "/><path class="st0" d="M91,170.1c-2.8,0-5-2.2-5-5c0-1.9,1.1-3.6,2.7-4.5l34.1-17.3c2.5-1.2,5.5-0.2,6.7,2.2c1.2,2.5,0.2,5.4-2.2,6.7  l-34,17.3C92.6,169.9,91.8,170.1,91,170.1z"/><path class="st0" d="M107.5,202.5c-2.8,0-5-2.2-5-5c0-1.9,1.1-3.6,2.7-4.5l34.1-17.3c2.5-1.2,5.5-0.2,6.7,2.2  c1.2,2.5,0.2,5.4-2.2,6.7l-34,17.4C109,202.3,108.3,202.5,107.5,202.5z"/><path class="st0" d="M124,235c-2.8,0-5-2.2-5-5c0-1.9,1.1-3.6,2.7-4.5l34.1-17.3c2.5-1.2,5.5-0.2,6.7,2.2c1.2,2.5,0.2,5.4-2.2,6.7  l-34.1,17.2C125.5,234.8,124.8,235,124,235z"/><polygon class="st1" points="254.9,237.5 460.1,237.5 460.1,494 254.9,494 49.7,494 49.7,237.5 "/><path class="st0" d="M460,243H50c-2.8,0-5-2.2-5-5s2.2-5,5-5h410c2.8,0,5,2.2,5,5S462.8,243,460,243z"/><path class="st0" d="M460,499H50c-2.8,0-5-2.2-5-5V334c0-2.8,2.2-5,5-5s5,2.2,5,5v155h400V334c0-2.8,2.2-5,5-5s5,2.2,5,5v160  C465,496.8,462.8,499,460,499z"/><path class="st0" d="M255,499c-2.8,0-5-2.2-5-5V238c0-2.8,2.2-5,5-5c2.8,0,5,2.2,5,5v256C260,496.8,257.8,499,255,499z"/><path class="st0" d="M221,465H85c-2.8,0-5-2.2-5-5v-70c0-2.8,2.2-5,5-5h136c2.8,0,5,2.2,5,5v70C226,462.8,223.8,465,221,465z   M90,455h126v-60H90V455z"/><path class="st0" d="M198,419h-91c-2.8,0-5-2.2-5-5s2.2-5,5-5h91c2.8,0,5,2.2,5,5S200.8,419,198,419z"/><path class="st0" d="M198,442h-91c-2.8,0-5-2.2-5-5s2.2-5,5-5h91c2.8,0,5,2.2,5,5S200.8,442,198,442z"/><path class="st0" d="M221,339H16c-2.8,0-5-2.2-5-5c0-0.6,0.1-1.1,0.3-1.7l34-96c0.7-2,2.6-3.3,4.7-3.3h205c2.8,0,5,2.2,5,5  c0,0.6-0.1,1.1-0.3,1.7l-34,96C225,337.7,223.1,339,221,339z M23.1,329h194.4l30.4-86H53.5L23.1,329z"/><path class="st0" d="M494,339H289c-2.1,0-4-1.3-4.7-3.3l-34-96c-0.9-2.6,0.4-5.5,3-6.4c0.5-0.2,1.1-0.3,1.7-0.3h205  c2.1,0,4,1.3,4.7,3.3l34,96c0.9,2.6-0.4,5.5-3,6.4C495.1,338.9,494.6,339,494,339z M292.5,329h194.4l-30.5-86H262.1L292.5,329z"/><path class="st0" d="M375,437c-2.8,0-5-2.2-5-5V294.9c-0.2-4.7,0.7-9.3,2.5-13.6c2.8-6.6,9.2-15.5,23.8-20.3  c3.4-1.1,8.2-2.3,13.3-3.6l0.3-0.1h0.2l18.6-3.8c1.8-0.5,10.8-2.5,17.1,3.2c4.6,4.2,6.1,11.1,4.4,20.5c-0.5,4.7-1.7,9.4-3.4,13.8  c-4,10.1-10.6,16.1-19,17.3L380,321.2V432C380,434.8,377.8,437,375,437z M412.3,267h-0.2c-4.9,1.3-9.6,2.5-12.7,3.5  c-20.7,6.7-19.5,23.5-19.4,23.7s0,0.3,0,0.5v16.2l45.5-12.3c0.2-0.1,0.4-0.1,0.7-0.1c4.8-0.6,8.5-4.3,11.2-10.9  c1.4-3.7,2.4-7.5,2.8-11.4c0-0.2,0-0.3,0.1-0.5c1.1-5.7,0.7-9.8-1.2-11.5c-2.1-1.9-6.5-1.3-7.8-0.9l-0.4,0.1L412.3,267z"/><path class="st0" d="M334,472c-11.5,0-21.9-4.4-28.5-12.2c-6-7-8.5-16.2-7-25.3c3-19.8,23.4-35.9,45.3-35.9  c11.5,0,21.9,4.5,28.5,12.2c6,7,8.5,16.2,7,25.3C376.3,455.9,356,472,334,472z M343.8,408.6c-17.2,0-33.1,12.3-35.4,27.5  c-1.1,6.2,0.7,12.5,4.7,17.2c4.8,5.5,12.4,8.7,20.9,8.7c17.2,0,33.1-12.3,35.4-27.5l0,0c1-6.2-0.7-12.5-4.7-17.2  C360,411.8,352.3,408.6,343.8,408.6L343.8,408.6z"/><path class="st0" d="M14.9,78.7c-2.8,0-5-2.2-5-5c0-1.9,1.1-3.7,2.8-4.5l9.7-4.8c2.5-1.2,5.5-0.2,6.7,2.3c1.2,2.5,0.2,5.5-2.3,6.7  l-9.7,4.7C16.4,78.5,15.6,78.7,14.9,78.7z"/><path class="st0" d="M39.1,128c-2.8,0-5-2.2-5-5c0-1.9,1.1-3.6,2.8-4.5l9.7-4.8c2.5-1.2,5.5-0.2,6.7,2.3s0.2,5.5-2.3,6.7l-9.7,4.8  C40.7,127.8,39.9,128,39.1,128z"/><path class="st0" d="M27,103.3c-2.8,0-5-2.2-5-5c0-1.9,1.1-3.7,2.8-4.5l9.7-4.8c2.5-1.2,5.5-0.2,6.7,2.3s0.2,5.5-2.3,6.7l-9.7,4.8  C28.5,103.2,27.8,103.4,27,103.3z"/><path class="st0" d="M87,43.2c-2.8,0-5-2.2-5-5c0-1.9,1.1-3.6,2.8-4.5l9.7-4.8c2.5-1.2,5.5-0.2,6.7,2.3s0.2,5.5-2.3,6.7l-9.7,4.8  C88.5,43,87.8,43.2,87,43.2z"/><path class="st0" d="M111.3,92.4c-2.8,0-5-2.3-4.9-5.1c0-1.9,1.1-3.5,2.7-4.4l9.7-4.8c2.5-1.2,5.5-0.2,6.7,2.3s0.2,5.5-2.3,6.7  l-9.7,4.8C112.8,92.3,112,92.5,111.3,92.4z"/><path class="st0" d="M99.2,67.8c-2.8,0-5-2.2-5-5c0-1.9,1.1-3.7,2.8-4.5l9.7-4.8c2.5-1.2,5.5-0.2,6.7,2.3s0.2,5.5-2.3,6.7l-9.7,4.8  C100.7,67.7,99.9,67.8,99.2,67.8z"/><g><path class="st0" d="M67.3,107.6c-1.8,0-3.6-1-4.5-2.8L44,66.6c-1.2-2.5-0.2-5.5,2.3-6.7c2.5-1.2,5.5-0.2,6.7,2.3l18.8,38.2   c1.2,2.5,0.2,5.5-2.3,6.7C68.8,107.4,68,107.6,67.3,107.6z"/></g><g><path class="st0" d="M88.4,97.2c-1.8,0-3.6-1-4.5-2.8L65.1,56.2c-1.2-2.5-0.2-5.5,2.3-6.7c2.5-1.2,5.5-0.2,6.7,2.3L92.9,90   c1.2,2.5,0.2,5.5-2.3,6.7C89.9,97,89.1,97.2,88.4,97.2z"/></g></svg>