<?xml version="1.0" ?><svg viewBox="0 0 512 512" xmlns="http://www.w3.org/2000/svg"><defs><style>.cls-1{fill:#3f456b;}</style></defs><title/><g id="Lines"><path class="cls-1" d="M257,227a5,5,0,0,1-5-5V151.94c-.12-2.35-.86-24.17,12.39-34.57,7.47-5.87,17.55-6.88,29.93-3,24.75,7.72,38.75,8.5,46.79,2.58,6.66-4.89,9.89-15.27,9.89-31.73V15a5,5,0,0,1,10,0V85.21c0,19.86-4.57,32.88-14,39.79-13.67,10.05-34.85,5.41-55.7-1.1-9.06-2.83-16-2.38-20.78,1.34-9.47,7.43-8.58,26.06-8.57,26.25s0,.21,0,.31V222A5,5,0,0,1,257,227Z"/><path class="cls-1" d="M466.14,501.5h0L337,501H37a25,25,0,0,1-25-25V266a25,25,0,0,1,25-25H477a25,25,0,0,1,25,25V476a25,25,0,0,1-24.74,25C476.15,501.11,471.71,501.5,466.14,501.5ZM37,251a15,15,0,0,0-15,15V476a15,15,0,0,0,15,15H337l129.14.5c5.77,0,10.29-.47,10.34-.47a4.53,4.53,0,0,1,.52,0,15,15,0,0,0,15-15V266a15,15,0,0,0-15-15Z"/><path class="cls-1" d="M320,251a5,5,0,0,1-5-5V226H197v20a5,5,0,0,1-10,0V226a10,10,0,0,1,10-10H315a10,10,0,0,1,10,10v20A5,5,0,0,1,320,251Z"/></g><g id="Outline"><path class="cls-1" d="M404.61,301.83h-1.19a5,5,0,0,1,0-10h1.19a5,5,0,0,1,0,10Z"/><path class="cls-1" d="M367.88,301.83h-1.19a5,5,0,0,1,0-10h1.19a5,5,0,0,1,0,10Z"/><path class="cls-1" d="M441.44,301.83h-1.19a5,5,0,0,1,0-10h1.19a5,5,0,0,1,0,10Z"/><path class="cls-1" d="M331.15,301.83H330a5,5,0,0,1,0-10h1.19a5,5,0,0,1,0,10Z"/><path class="cls-1" d="M294.42,301.83h-1.19a5,5,0,0,1,0-10h1.19a5,5,0,0,1,0,10Z"/><path class="cls-1" d="M257.69,301.83H256.5a5,5,0,0,1,0-10h1.19a5,5,0,0,1,0,10Z"/><path class="cls-1" d="M221,301.83h-1.19a5,5,0,0,1,0-10H221a5,5,0,0,1,0,10Z"/><path class="cls-1" d="M184.23,301.83H183a5,5,0,0,1,0-10h1.19a5,5,0,0,1,0,10Z"/><path class="cls-1" d="M147.5,301.83h-1.19a5,5,0,0,1,0-10h1.19a5,5,0,0,1,0,10Z"/><path class="cls-1" d="M110.77,301.83h-1.19a5,5,0,1,1,0-10h1.19a5,5,0,0,1,0,10Z"/><path class="cls-1" d="M74,301.83H72.85a5,5,0,1,1,0-10H74a5,5,0,1,1,0,10Z"/><path class="cls-1" d="M422.33,340.19h-1.19a5,5,0,0,1,0-10h1.19a5,5,0,0,1,0,10Z"/><path class="cls-1" d="M385.6,340.19h-1.19a5,5,0,0,1,0-10h1.19a5,5,0,0,1,0,10Z"/><path class="cls-1" d="M459.16,340.19H458a5,5,0,0,1,0-10h1.19a5,5,0,0,1,0,10Z"/><path class="cls-1" d="M348.87,340.19h-1.19a5,5,0,0,1,0-10h1.19a5,5,0,0,1,0,10Z"/><path class="cls-1" d="M312.14,340.19H311a5,5,0,0,1,0-10h1.19a5,5,0,0,1,0,10Z"/><path class="cls-1" d="M275.41,340.19h-1.19a5,5,0,0,1,0-10h1.19a5,5,0,0,1,0,10Z"/><path class="cls-1" d="M238.68,340.19h-1.19a5,5,0,0,1,0-10h1.19a5,5,0,0,1,0,10Z"/><path class="cls-1" d="M202,340.19h-1.19a5,5,0,0,1,0-10H202a5,5,0,0,1,0,10Z"/><path class="cls-1" d="M165.22,340.19H164a5,5,0,0,1,0-10h1.19a5,5,0,0,1,0,10Z"/><path class="cls-1" d="M128.49,340.19H127.3a5,5,0,0,1,0-10h1.19a5,5,0,0,1,0,10Z"/><path class="cls-1" d="M91.76,340.19H90.57a5,5,0,0,1,0-10h1.19a5,5,0,0,1,0,10Z"/><path class="cls-1" d="M55,340.19H53.84a5,5,0,1,1,0-10H55a5,5,0,1,1,0,10Z"/><path class="cls-1" d="M422.33,376.19h-1.19a5,5,0,0,1,0-10h1.19a5,5,0,0,1,0,10Z"/><path class="cls-1" d="M385.6,376.19h-1.19a5,5,0,0,1,0-10h1.19a5,5,0,0,1,0,10Z"/><path class="cls-1" d="M459.16,376.19H458a5,5,0,0,1,0-10h1.19a5,5,0,0,1,0,10Z"/><path class="cls-1" d="M348.87,376.19h-1.19a5,5,0,0,1,0-10h1.19a5,5,0,0,1,0,10Z"/><path class="cls-1" d="M312.14,376.19H311a5,5,0,0,1,0-10h1.19a5,5,0,0,1,0,10Z"/><path class="cls-1" d="M275.41,376.19h-1.19a5,5,0,0,1,0-10h1.19a5,5,0,0,1,0,10Z"/><path class="cls-1" d="M238.68,376.19h-1.19a5,5,0,0,1,0-10h1.19a5,5,0,0,1,0,10Z"/><path class="cls-1" d="M202,376.19h-1.19a5,5,0,0,1,0-10H202a5,5,0,0,1,0,10Z"/><path class="cls-1" d="M165.22,376.19H164a5,5,0,0,1,0-10h1.19a5,5,0,0,1,0,10Z"/><path class="cls-1" d="M128.49,376.19H127.3a5,5,0,0,1,0-10h1.19a5,5,0,0,1,0,10Z"/><path class="cls-1" d="M91.76,376.19H90.57a5,5,0,0,1,0-10h1.19a5,5,0,0,1,0,10Z"/><path class="cls-1" d="M55,376.19H53.84a5,5,0,1,1,0-10H55a5,5,0,1,1,0,10Z"/><path class="cls-1" d="M422.33,410.19h-1.19a5,5,0,0,1,0-10h1.19a5,5,0,0,1,0,10Z"/><path class="cls-1" d="M459.16,410.19H458a5,5,0,0,1,0-10h1.19a5,5,0,0,1,0,10Z"/><path class="cls-1" d="M348.87,410.19h-1.19a5,5,0,0,1,0-10h1.19a5,5,0,0,1,0,10Z"/><path class="cls-1" d="M91.76,410.19H90.57a5,5,0,0,1,0-10h1.19a5,5,0,0,1,0,10Z"/><path class="cls-1" d="M55,410.19H53.84a5,5,0,1,1,0-10H55a5,5,0,1,1,0,10Z"/><path class="cls-1" d="M311.74,410.47H164.43a5,5,0,0,1,0-10H311.74a5,5,0,0,1,0,10Z"/><path class="cls-1" d="M495,466H21a5,5,0,0,1,0-10H495a5,5,0,0,1,0,10Z"/></g></svg>