<?xml version="1.0" ?><svg viewBox="0 0 512 512" xmlns="http://www.w3.org/2000/svg"><defs><style>.cls-1{fill:#3f456b;}.cls-2{opacity:0.5;}</style></defs><title/><g id="Lines"><path class="cls-1" d="M279.44,501H16a5,5,0,0,1-5-5V232a5,5,0,0,1,1.46-3.54l30.75-30.75a5.06,5.06,0,0,1,3.7-1.46A5,5,0,0,1,50.5,198l48.6,55.25,54.1-109.7a5.07,5.07,0,0,1,4.67-2.78,5,5,0,0,1,4.45,3.1l61.31,150.41L273,244.48a5,5,0,0,1,7.22.13l51.31,55.57,40.69-13.56a5,5,0,0,1,6.05,2.5L404,340.63l31.6-37.89a5,5,0,0,1,8.79,2.47l27.92,189.61a5,5,0,0,1-4.93,5.72l-187.9.46ZM21,491H279.42l182.13-.44L436.09,317.73,406.76,352.9a5,5,0,0,1-8.31-1l-27.23-54.46-39.64,13.22a5,5,0,0,1-5.26-1.36l-49.95-54.1-51,51.44a5,5,0,0,1-8.18-1.63l-60-147.12L104.77,264.35a5,5,0,0,1-8.24,1.09l-50-56.86L21,234.1Z"/><path class="cls-1" d="M465.85,500.37a5,5,0,0,1-4.2-2.29L410,418.24l-32.59,35.09a5,5,0,0,1-4.73,1.48l-64.16-13.93a5,5,0,0,1-3.88-4.08L292.2,359.92l-88.71,10.25a5,5,0,0,1-4.81-2.3l-25-39.87H136.12l-21.59,39.11a5,5,0,0,1-4.85,2.56l-94.15-9a5,5,0,1,1,.94-10l90.89,8.66,21.43-38.82a5,5,0,0,1,4.38-2.58h43.24a5,5,0,0,1,4.23,2.34l24.83,39.54,90.33-10.44a5,5,0,0,1,5.5,4.17L314,431.83l58.05,12.61,35-37.71a5,5,0,0,1,7.87.68L470,492.66a5,5,0,0,1-4.19,7.71Z"/><path class="cls-1" d="M468,267H293a5,5,0,0,1,0-10H468a5,5,0,0,1,0,10Z"/><path class="cls-1" d="M261,267H206a5,5,0,0,1,0-10h55a5,5,0,0,1,0,10Z"/><path class="cls-1" d="M468,344H445a5,5,0,0,1,0-10h23a5,5,0,0,1,0,10Z"/><path class="cls-1" d="M468,423H456a5,5,0,0,1,0-10h12a5,5,0,0,1,0,10Z"/><path class="cls-1" d="M468,189H176a5,5,0,0,1,0-10H468a5,5,0,0,1,0,10Z"/><path class="cls-1" d="M135,189H16a5,5,0,0,1,0-10H135a5,5,0,0,1,0,10Z"/><path class="cls-1" d="M468,111H17a5,5,0,0,1,0-10H468a5,5,0,0,1,0,10Z"/><path class="cls-1" d="M465,77H417a5,5,0,0,1-5-5V24a5,5,0,0,1,5-5h48a5,5,0,0,1,5,5V72A5,5,0,0,1,465,77ZM422,67h38V29H422Z"/><path class="cls-1" d="M384,77H336a5,5,0,0,1-5-5V24a5,5,0,0,1,5-5h48a5,5,0,0,1,5,5V72A5,5,0,0,1,384,77ZM341,67h38V29H341Z"/><path class="cls-1" d="M95.4,69.78a39.8,39.8,0,0,1-8.75-1c-7.58-1.72-13.53-5.73-19.28-9.61-7.22-4.86-13.44-9.07-22-8.38-12,1-19.14,10.67-22.32,16.38a5,5,0,0,1-8.74-4.87c4.15-7.45,13.6-20.15,30.26-21.48,12-1,20.73,4.89,28.39,10.06,5.22,3.52,10.15,6.85,15.9,8.15a28.51,28.51,0,0,0,15.58-.74A33.6,33.6,0,0,1,99,53.39C93.08,46.71,91.37,38.75,94.2,31c3.57-9.79,11.14-16.14,20.25-17a19.94,19.94,0,0,1,19.11,9.25c4.4,7.42,3.2,17.19-3.28,26.83a49.8,49.8,0,0,1-5.1,6.39c8.83,2,19.92,2.09,32.57-.87A5,5,0,1,1,160,65.33c-16.35,3.83-32.12,3.24-44.39-1.19A39.52,39.52,0,0,1,95.4,69.78ZM116.46,23.9c-.36,0-.72,0-1.08.05-5.24.49-9.54,4.31-11.78,10.47-1.94,5.31.5,9.64,2.89,12.34a27.31,27.31,0,0,0,8,6A37.92,37.92,0,0,0,122,44.5c4.24-6.3,5.33-12.18,3-16.14A9.75,9.75,0,0,0,116.46,23.9Z"/><g class="cls-2"><path class="cls-1" d="M419.36,476h-1.3a5,5,0,1,1,0-10h1.3a5,5,0,0,1,0,10Z"/><path class="cls-1" d="M379.17,476h-1.3a5,5,0,0,1,0-10h1.3a5,5,0,1,1,0,10Z"/><path class="cls-1" d="M339,476h-1.31a5,5,0,0,1,0-10H339a5,5,0,0,1,0,10Z"/><path class="cls-1" d="M298.78,476h-1.3a5,5,0,0,1,0-10h1.3a5,5,0,0,1,0,10Z"/><path class="cls-1" d="M258.59,393.73h-1.3a5,5,0,0,1,0-10h1.3a5,5,0,0,1,0,10Z"/><path class="cls-1" d="M279.39,434.87h-1.3a5,5,0,0,1,0-10h1.3a5,5,0,0,1,0,10Z"/><path class="cls-1" d="M258.59,476h-1.3a5,5,0,0,1,0-10h1.3a5,5,0,0,1,0,10Z"/><path class="cls-1" d="M218.4,393.73h-1.3a5,5,0,0,1,0-10h1.3a5,5,0,0,1,0,10Z"/><path class="cls-1" d="M239.2,434.87h-1.3a5,5,0,1,1,0-10h1.3a5,5,0,0,1,0,10Z"/><path class="cls-1" d="M218.4,476h-1.3a5,5,0,0,1,0-10h1.3a5,5,0,0,1,0,10Z"/><path class="cls-1" d="M178.21,393.73h-1.3a5,5,0,1,1,0-10h1.3a5,5,0,1,1,0,10Z"/><path class="cls-1" d="M199,434.87h-1.3a5,5,0,0,1,0-10H199a5,5,0,0,1,0,10Z"/><path class="cls-1" d="M178.21,476h-1.3a5,5,0,1,1,0-10h1.3a5,5,0,1,1,0,10Z"/><path class="cls-1" d="M158.82,352.6h-1.3a5,5,0,1,1,0-10h1.3a5,5,0,0,1,0,10Z"/><path class="cls-1" d="M138,393.73h-1.3a5,5,0,0,1,0-10H138a5,5,0,0,1,0,10Z"/><path class="cls-1" d="M158.82,434.87h-1.3a5,5,0,1,1,0-10h1.3a5,5,0,1,1,0,10Z"/><path class="cls-1" d="M138,476h-1.3a5,5,0,0,1,0-10H138a5,5,0,0,1,0,10Z"/><path class="cls-1" d="M97.83,393.73H96.52a5,5,0,1,1,0-10h1.31a5,5,0,0,1,0,10Z"/><path class="cls-1" d="M118.62,434.87h-1.29a5,5,0,0,1,0-10h1.29a5,5,0,0,1,0,10Z"/><path class="cls-1" d="M97.83,476H96.52a5,5,0,1,1,0-10h1.31a5,5,0,1,1,0,10Z"/><path class="cls-1" d="M57.63,393.73h-1.3a5,5,0,1,1,0-10h1.3a5,5,0,0,1,0,10Z"/><path class="cls-1" d="M78.43,434.87h-1.3a5,5,0,0,1,0-10h1.3a5,5,0,0,1,0,10Z"/><path class="cls-1" d="M57.63,476h-1.3a5,5,0,0,1,0-10h1.3a5,5,0,0,1,0,10Z"/><path class="cls-1" d="M38.24,434.87h-1.3a5,5,0,0,1,0-10h1.3a5,5,0,1,1,0,10Z"/></g><path class="cls-1" d="M496,111h-7a5,5,0,0,1,0-10h7a5,5,0,0,1,0,10Z"/><path class="cls-1" d="M496,189h-7a5,5,0,0,1,0-10h7a5,5,0,0,1,0,10Z"/><path class="cls-1" d="M496,267h-7a5,5,0,0,1,0-10h7a5,5,0,0,1,0,10Z"/><path class="cls-1" d="M496,344h-7a5,5,0,0,1,0-10h7a5,5,0,0,1,0,10Z"/><path class="cls-1" d="M496,423h-7a5,5,0,0,1,0-10h7a5,5,0,0,1,0,10Z"/></g><g id="Outline"><path class="cls-1" d="M419.36,476h-1.3a5,5,0,1,1,0-10h1.3a5,5,0,0,1,0,10Z"/><path class="cls-1" d="M379.17,476h-1.3a5,5,0,0,1,0-10h1.3a5,5,0,1,1,0,10Z"/><path class="cls-1" d="M339,476h-1.31a5,5,0,0,1,0-10H339a5,5,0,0,1,0,10Z"/><path class="cls-1" d="M298.78,476h-1.3a5,5,0,0,1,0-10h1.3a5,5,0,0,1,0,10Z"/><path class="cls-1" d="M258.59,393.73h-1.3a5,5,0,0,1,0-10h1.3a5,5,0,0,1,0,10Z"/><path class="cls-1" d="M279.39,434.87h-1.3a5,5,0,0,1,0-10h1.3a5,5,0,0,1,0,10Z"/><path class="cls-1" d="M258.59,476h-1.3a5,5,0,0,1,0-10h1.3a5,5,0,0,1,0,10Z"/><path class="cls-1" d="M218.4,393.73h-1.3a5,5,0,0,1,0-10h1.3a5,5,0,0,1,0,10Z"/><path class="cls-1" d="M239.2,434.87h-1.3a5,5,0,1,1,0-10h1.3a5,5,0,0,1,0,10Z"/><path class="cls-1" d="M218.4,476h-1.3a5,5,0,0,1,0-10h1.3a5,5,0,0,1,0,10Z"/><path class="cls-1" d="M178.21,393.73h-1.3a5,5,0,1,1,0-10h1.3a5,5,0,1,1,0,10Z"/><path class="cls-1" d="M199,434.87h-1.3a5,5,0,0,1,0-10H199a5,5,0,0,1,0,10Z"/><path class="cls-1" d="M178.21,476h-1.3a5,5,0,1,1,0-10h1.3a5,5,0,1,1,0,10Z"/><path class="cls-1" d="M158.82,352.6h-1.3a5,5,0,1,1,0-10h1.3a5,5,0,0,1,0,10Z"/><path class="cls-1" d="M138,393.73h-1.3a5,5,0,0,1,0-10H138a5,5,0,0,1,0,10Z"/><path class="cls-1" d="M158.82,434.87h-1.3a5,5,0,1,1,0-10h1.3a5,5,0,1,1,0,10Z"/><path class="cls-1" d="M138,476h-1.3a5,5,0,0,1,0-10H138a5,5,0,0,1,0,10Z"/><path class="cls-1" d="M97.83,393.73H96.52a5,5,0,1,1,0-10h1.31a5,5,0,0,1,0,10Z"/><path class="cls-1" d="M118.62,434.87h-1.29a5,5,0,0,1,0-10h1.29a5,5,0,0,1,0,10Z"/><path class="cls-1" d="M97.83,476H96.52a5,5,0,1,1,0-10h1.31a5,5,0,1,1,0,10Z"/><path class="cls-1" d="M57.63,393.73h-1.3a5,5,0,1,1,0-10h1.3a5,5,0,0,1,0,10Z"/><path class="cls-1" d="M78.43,434.87h-1.3a5,5,0,0,1,0-10h1.3a5,5,0,0,1,0,10Z"/><path class="cls-1" d="M57.63,476h-1.3a5,5,0,0,1,0-10h1.3a5,5,0,0,1,0,10Z"/><path class="cls-1" d="M38.24,434.87h-1.3a5,5,0,0,1,0-10h1.3a5,5,0,1,1,0,10Z"/></g></svg>