<?xml version="1.0" ?><svg id="Lines" viewBox="0 0 512 512" xmlns="http://www.w3.org/2000/svg"><defs><style>.cls-1{fill:#3f456b;}</style></defs><title/><path class="cls-1" d="M458.25,500h-402a5,5,0,0,1-5-5V160.5c0-26.25,9.94-45.69,30.38-59.43a5,5,0,1,1,5.58,8.3c-17.71,11.9-26,28.15-26,51.13V490h392V160.5c0-24.25-9.27-41.15-29.18-53.18a5,5,0,0,1,5.17-8.56c22.88,13.83,34,34,34,61.74V495A5,5,0,0,1,458.25,500Z"/><path class="cls-1" d="M189.57,77.5a5,5,0,0,1-2.36-9.42c29.43-15.68,24.34-49.73,24.11-51.17a5,5,0,0,1,4.93-5.81h82a5,5,0,0,1,4.93,5.82c-.22,1.35-5.05,33.61,21.73,49.81a5,5,0,0,1-5.17,8.56c-25.5-15.42-27.45-42.35-27-54.19H221.7a72.52,72.52,0,0,1-1.5,17.63C216.57,55.78,206.78,69,191.91,76.91A4.93,4.93,0,0,1,189.57,77.5Z"/><path class="cls-1" d="M104.25,500a5,5,0,0,1-5-5c0-26.79,11.08-51.74,21.79-75.88,5.29-11.92,10.76-24.24,14.75-36.52,9.26-28.5-.64-59.27-10.21-89-2.65-8.23-5.39-16.75-7.63-25-1.53-5.66-2.93-10.76-4.22-15.45-6.62-24.11-10.27-37.39-14.4-60.78a5,5,0,0,1,9.85-1.74c4,22.93,7.65,36.06,14.19,59.88,1.29,4.69,2.69,9.79,4.23,15.47,2.18,8,4.76,16,7.5,24.53,10.06,31.27,20.46,63.61,10.2,95.18-4.15,12.77-9.73,25.34-15.12,37.49-10.76,24.25-20.93,47.15-20.93,71.82A5,5,0,0,1,104.25,500Z"/><path class="cls-1" d="M408.78,500a5,5,0,0,1-5-5c0-24.63-10.53-47.52-21.69-71.76-5.6-12.15-11.38-24.72-15.69-37.5-10.66-31.62.14-64,10.58-95.28,2.84-8.5,5.52-16.53,7.77-24.53,1.6-5.67,3.05-10.77,4.39-15.46,6.78-23.82,10.52-36.94,14.73-59.87a5,5,0,1,1,9.83,1.8c-4.29,23.4-8.07,36.69-14.94,60.81-1.34,4.68-2.79,9.77-4.38,15.44-2.32,8.22-5.16,16.74-7.91,25-9.92,29.74-20.18,60.48-10.59,88.93,4.13,12.27,9.81,24.59,15.29,36.51,11.12,24.15,22.61,49.12,22.61,75.94A5,5,0,0,1,408.78,500Z"/><path class="cls-1" d="M112.5,457.83a5,5,0,0,1-5-5V229.42a5,5,0,1,1,10,0V452.83A5,5,0,0,1,112.5,457.83Z"/><path class="cls-1" d="M400.5,455.67a5,5,0,0,1-5-5V229.42a5,5,0,1,1,10,0V450.67A5,5,0,0,1,400.5,455.67Z"/><path class="cls-1" d="M257.25,403.53a5,5,0,0,1-5-5v-143a5,5,0,0,1,10,0v143A5,5,0,0,1,257.25,403.53Z"/><path class="cls-1" d="M168.39,229.35a84,84,0,0,1-8.46-.38,5,5,0,0,1,1.13-9.94c.43.05,34.68,3.61,53-15.05,9.75-9.92,13.44-24.67,11-43.84a5,5,0,1,1,9.92-1.28c2.89,22.39-1.75,39.95-13.79,52.17-9.11,9.25-22.63,15.28-39.1,17.44A106.59,106.59,0,0,1,168.39,229.35Z"/><path class="cls-1" d="M344.82,229.37c-12.79,0-36.88-2.35-52.63-18.34-12.05-12.22-16.68-29.78-13.79-52.17a5,5,0,0,1,9.92,1.28c-2.48,19.19,1.22,34,11,43.87,18.43,18.72,52.64,15.06,53,15a5,5,0,0,1,1.14,9.94A81.77,81.77,0,0,1,344.82,229.37Z"/><path class="cls-1" d="M391.36,436.5l-.57,0c-130.86-14.93-267.82-.15-269.19,0a5,5,0,0,1-1.1-9.94c1.38-.15,139.42-15,271.42,0a5,5,0,0,1-.56,10Z"/><g data-name="&lt;编组&gt;" id="_编组_"><path class="cls-1" d="M159.89,171.85c-8.64,0-15.66-6.42-15.66-14.31a5,5,0,0,1,10,0c0,2.34,2.59,4.31,5.66,4.31s5.67-2,5.67-4.27l-.63-76.37a5,5,0,1,1,10-.08l.63,76.41C175.56,165.45,168.53,171.85,159.89,171.85Z"/><path class="cls-1" d="M138.56,179.14c-8.64,0-15.67-6.42-15.67-14.31v-9.48a5,5,0,1,1,10,0v9.48c0,2.34,2.6,4.31,5.67,4.31s5.67-1.95,5.67-4.26V104.7a5,5,0,0,1,10,0v60.18C154.23,172.74,147.2,179.14,138.56,179.14Z"/><path class="cls-1" d="M117.23,169.61c-8.64,0-15.67-6.42-15.67-14.31V134.2a5,5,0,0,1,10,0v21.1c0,2.34,2.6,4.31,5.67,4.31s5.66-2,5.66-4.26V104.7a5,5,0,1,1,10,0v50.65C132.89,163.21,125.87,169.61,117.23,169.61Z"/><path class="cls-1" d="M95.89,148.47c-8.64,0-15.66-6.42-15.66-14.32V112.51q0-3.83,0-7.65c0-8.53-.08-17.34.39-26.07.67-12.21,4.21-25.16,10.53-38.51.77-1.63,2.43-5.07,3.83-7.39V16.36a5,5,0,0,1,5-5h62.1a5,5,0,0,1,5,5V32.6c9.92,13,21,28.6,21.11,28.76l.09.12,18.52,27.88a4.09,4.09,0,0,1,.38.68c3.64,7.93,1.22,15.94-6,19.93-8,4.41-17.41,1.68-22.93-6.62L166.29,88.82A5,5,0,0,1,174,82.48L186.1,97.22a3.72,3.72,0,0,1,.33.45c2,3,5.75,5.81,9.88,3.54,3.12-1.72,2.8-4.52,1.9-6.68L180,67.08C179.17,66,167.83,50,158.09,37.34a5,5,0,0,1-1-3.05V21.36H105v13a5,5,0,0,1-1.07,3.09,70.36,70.36,0,0,0-3.72,7.08c-5.77,12.18-9,23.88-9.58,34.78-.46,8.44-.42,17.1-.38,25.48,0,2.57,0,5.13,0,7.7v21.64c0,2.34,2.59,4.32,5.66,4.32s5.67-2,5.67-4.27V104.64a5,5,0,1,1,10,0V134.2C111.56,142.07,104.53,148.47,95.89,148.47Z"/></g><g data-name="&lt;编组&gt;" id="_编组_2"><path class="cls-1" d="M352,171.85c-8.64,0-15.67-6.4-15.67-14.27l.63-76.45a5,5,0,0,1,5-5h0a5,5,0,0,1,5,5l-.63,76.41c0,2.27,2.59,4.23,5.67,4.23s5.66-2,5.66-4.31a5,5,0,1,1,10,0C367.61,165.43,360.58,171.85,352,171.85Z"/><path class="cls-1" d="M373.28,179.14c-8.64,0-15.67-6.4-15.67-14.26V104.7a5,5,0,1,1,10,0v60.18c0,2.31,2.59,4.26,5.67,4.26s5.66-2,5.66-4.31v-9.48a5,5,0,1,1,10,0v9.48C388.94,172.72,381.91,179.14,373.28,179.14Z"/><path class="cls-1" d="M394.6,169.61c-8.63,0-15.66-6.4-15.66-14.26V104.7a5,5,0,1,1,10,0v50.65c0,2.31,2.6,4.26,5.66,4.26s5.67-2,5.67-4.31V134.2a5,5,0,0,1,10,0v21.1C410.27,163.19,403.25,169.61,394.6,169.61Z"/><path class="cls-1" d="M416,148.47c-8.65,0-15.68-6.4-15.68-14.27V104.64a5,5,0,1,1,10,0V134.2c0,2.31,2.6,4.27,5.68,4.27s5.66-2,5.66-4.32V112.51q0-3.86,0-7.71c0-8.37.09-17-.37-25.46-.6-10.91-3.82-22.61-9.58-34.78A70.87,70.87,0,0,0,408,37.47a5.31,5.31,0,0,1-1.06-3.09v-13H354.78V34.29a5,5,0,0,1-1,3.05C344,50,332.67,66,331.87,67.08L313.63,94.53c-.91,2.16-1.22,5,1.9,6.68,4.13,2.27,7.9-.49,9.88-3.54a3.72,3.72,0,0,1,.33-.45l12.07-14.74a5,5,0,1,1,7.73,6.34l-11.9,14.53c-5.52,8.3-14.91,11-22.93,6.62-7.25-4-9.67-12-6-19.93a5,5,0,0,1,.38-.68l18.53-27.88.08-.12c.12-.16,11.2-15.77,21.11-28.76V16.36a5,5,0,0,1,5-5h62.11a5,5,0,0,1,5,5V32.89c1.39,2.32,3.06,5.76,3.83,7.39,6.32,13.35,9.86,26.3,10.52,38.51.48,8.73.43,17.54.39,26.06,0,2.55,0,5.11,0,7.65v21.65C431.61,142.05,424.58,148.47,416,148.47Z"/></g><path class="cls-1" d="M56.25,468.5H16.5a5,5,0,0,1-5-5v-303a5,5,0,0,1,5-5H56.25a5,5,0,0,1,0,10H21.5v293H56.25a5,5,0,0,1,0,10Z"/><path class="cls-1" d="M498,468.5H458.25a5,5,0,0,1,0-10H493v-293H458.25a5,5,0,0,1,0-10H498a5,5,0,0,1,5,5v303A5,5,0,0,1,498,468.5Z"/></svg>