<?xml version="1.0" ?><svg viewBox="0 0 512 512" xmlns="http://www.w3.org/2000/svg"><defs><style>.cls-1{fill:#3f456b;}</style></defs><title/><g id="Lines"><path class="cls-1" d="M41,69A29,29,0,1,1,70,40,29,29,0,0,1,41,69Zm0-48A19,19,0,1,0,60,40,19,19,0,0,0,41,21Z"/><path class="cls-1" d="M457,501a29,29,0,1,1,29-29A29,29,0,0,1,457,501Zm0-48a19,19,0,1,0,19,19A19,19,0,0,0,457,453Z"/><path class="cls-1" d="M188,499a29,29,0,0,1-26.3-41.23l9.06,4.22a19,19,0,1,0,35.92,11.53l9.83,1.84A29,29,0,0,1,188,499Z"/><path class="cls-1" d="M96,331a29,29,0,1,1,29-29A29,29,0,0,1,96,331Zm0-48a19,19,0,1,0,19,19A19,19,0,0,0,96,283Z"/><rect class="cls-1" height="58.05" transform="translate(-32.71 83.17) rotate(-47.79)" width="10" x="72.5" y="49.47"/><path class="cls-1" d="M451.44,150.14a5,5,0,0,1-4.57-7c11.36-25.65,16.55-47.72,15-63.82a5,5,0,1,1,9.95-1c1.74,18.06-3.58,41.21-15.8,68.82A5,5,0,0,1,451.44,150.14Z"/><path class="cls-1" d="M267.62,125.43a5,5,0,0,1-3.06-9c69-53.24,132.69-82,170.35-77a5,5,0,0,1-1.32,9.92c-35.08-4.66-96,23.39-162.92,75A5,5,0,0,1,267.62,125.43Z"/><path class="cls-1" d="M110.56,286.08a5,5,0,0,1-4-7.95,797.17,797.17,0,0,1,79.93-92.67c12.76-12.75,25.92-25.13,39.12-36.77a5,5,0,1,1,6.62,7.5c-13,11.51-26,23.74-38.66,36.35A785.46,785.46,0,0,0,114.6,284,5,5,0,0,1,110.56,286.08Z"/><path class="cls-1" d="M86.15,471.2C71.59,471.2,60.08,467.15,52,459c-22.62-22.63-13.05-73.1,26.25-138.46a5,5,0,1,1,8.57,5.15C50.58,385.94,40.2,433.13,59,452c14.12,14.13,44.36,12,85.14-6.12a5,5,0,0,1,4,9.15C123.85,465.79,103,471.2,86.15,471.2Z"/><path class="cls-1" d="M45.41,185a5,5,0,0,1-4.13-2.17C14.11,143.15,6.9,111.57,20.42,91.46c11.88-17.68,38.49-23.92,77-18,36.11,5.51,80.61,21.18,128.68,45.32a5,5,0,0,1-4.49,8.94C174.42,104,131,88.65,95.87,83.29,62,78.13,38.15,83,28.72,97c-10.89,16.19-3.49,44.64,20.81,80.09a5,5,0,0,1-1.3,7A4.92,4.92,0,0,1,45.41,185Z"/><path class="cls-1" d="M457,85a29,29,0,1,1,29-29A29,29,0,0,1,457,85Zm0-48a19,19,0,1,0,19,19A19,19,0,0,0,457,37Z"/><path class="cls-1" d="M247,164a29,29,0,1,1,29-29A29,29,0,0,1,247,164Zm0-48a19,19,0,1,0,19,19A19,19,0,0,0,247,116Z"/><path class="cls-1" d="M256.79,484A228.13,228.13,0,0,1,95.47,94.58,228.13,228.13,0,1,1,418.1,417.2,226.64,226.64,0,0,1,256.79,484Zm0-446.26A218.14,218.14,0,0,0,102.54,410.13,218.13,218.13,0,1,0,411,101.65,216.71,216.71,0,0,0,256.79,37.76Z"/><path class="cls-1" d="M444,427.72a199.88,199.88,0,0,1-36-3.67,5,5,0,0,1,1.82-9.84c40.71,7.54,68.92,2.76,79.43-13.45,14.39-22.18-4.4-65.37-50.28-115.54a5,5,0,0,1,7.38-6.75c49.88,54.55,68.57,101.1,51.29,127.73C488.38,420.46,470.09,427.72,444,427.72Z"/><rect class="cls-1" height="47.42" transform="translate(-183.2 401.13) rotate(-42.44)" width="10" x="420" y="412.79"/><path class="cls-1" d="M425,293a29,29,0,1,1,29-29A29,29,0,0,1,425,293Zm0-48a19,19,0,1,0,19,19A19,19,0,0,0,425,245Z"/><path class="cls-1" d="M278,392a29,29,0,1,1,29-29A29,29,0,0,1,278,392Zm0-48a19,19,0,1,0,19,19A19,19,0,0,0,278,344Z"/><path class="cls-1" d="M406.41,253.82a5,5,0,0,1-3.58-1.51c-57.41-59-135.7-102.36-136.49-102.79a5,5,0,0,1,4.82-8.76c.8.44,80.4,44.56,138.83,104.57a5,5,0,0,1-3.58,8.49Z"/></g><g id="Outline"><path class="cls-1" d="M234.42,364.92a5,5,0,0,1-.93-.09l-1-.18a5,5,0,0,1,1.87-9.83l1,.19a5,5,0,0,1-.93,9.91Zm-20.51-4.49a5.15,5.15,0,0,1-1.22-.15l-1-.25a5,5,0,1,1,2.47-9.69l1,.24a5,5,0,0,1-1.22,9.85Zm-20.19-5.77a4.79,4.79,0,0,1-1.53-.24l-1-.31a5,5,0,0,1,3.08-9.51l.94.3a5,5,0,0,1-1.52,9.76Zm-19.79-7a5.06,5.06,0,0,1-1.82-.34l-1-.38a5,5,0,0,1,3.69-9.29l.91.36a5,5,0,0,1-1.82,9.65Zm-19.29-8.33a4.93,4.93,0,0,1-2.13-.48l-.92-.44a5,5,0,1,1,4.31-9l.88.42a5,5,0,0,1-2.14,9.52ZM136,329.61a5,5,0,0,1-2.47-.65l-.89-.51a5,5,0,0,1,5-8.67l.84.49a5,5,0,0,1-2.47,9.34Zm-17.73-11.28a5,5,0,0,1-3-1l-.91-.68a5,5,0,0,1,6.13-7.9h0l.71.53a5,5,0,0,1-3,9Z"/><path class="cls-1" d="M314,365.31a5,5,0,0,1-1.24-9.85l1-.24a5,5,0,0,1,2.5,9.68l-1,.25A4.78,4.78,0,0,1,314,365.31Zm20-6.2a5,5,0,0,1-1.74-9.69l.91-.34a5,5,0,1,1,3.53,9.35l-1,.36A4.81,4.81,0,0,1,334.08,359.11Zm19.18-8.49a5,5,0,0,1-2.31-9.43l.85-.45a5,5,0,0,1,4.69,8.84l-.92.48A5,5,0,0,1,353.26,350.62Zm17.85-11a5,5,0,0,1-2.94-9.05L369,330a5,5,0,1,1,5.93,8.05l-.83.62A5,5,0,0,1,371.11,339.62ZM387,326a5,5,0,0,1-3.57-8.5l.66-.69a5,5,0,0,1,7.2,6.94l-.73.75A5,5,0,0,1,387,326Zm13.22-16.27a5,5,0,0,1-4.16-7.76l.52-.8a5,5,0,0,1,8.39,5.44l-.57.88A5,5,0,0,1,400.24,309.69ZM409.71,291a4.88,4.88,0,0,1-1.55-.25,5,5,0,0,1-3.21-6.3c.14-.42.21-.67.22-.72a5,5,0,0,1,9.66,2.59s-.11.43-.37,1.22A5,5,0,0,1,409.71,291Z"/><path class="cls-1" d="M280.26,328.05a5.07,5.07,0,0,1-.55,0,5,5,0,0,1-4.42-5.52l.1-1a5,5,0,0,1,9.94,1.06l-.11,1A5,5,0,0,1,280.26,328.05Zm1.5-20.94h-.18a5,5,0,0,1-4.82-5.17l0-1a5,5,0,1,1,10,.31l0,1A5,5,0,0,1,281.76,307.11Zm0-21a5,5,0,0,1-5-4.84l0-1a5,5,0,0,1,10-.37l0,1a5,5,0,0,1-4.83,5.15Zm-1.36-21a5,5,0,0,1-5-4.53l-.09-1a5,5,0,0,1,9.95-1l.1,1a5,5,0,0,1-4.51,5.45Zm-2.59-20.85a5,5,0,0,1-4.94-4.25l-.15-1a5,5,0,0,1,9.88-1.54l.16,1a5,5,0,0,1-4.95,5.75Zm-3.73-20.67a5,5,0,0,1-4.89-4l-.2-1a5,5,0,1,1,9.78-2.06l.21,1a5,5,0,0,1-3.87,5.91A5.23,5.23,0,0,1,274.07,223.64Zm-4.8-20.46a5,5,0,0,1-4.83-3.73l-.26-1a5,5,0,0,1,9.67-2.56l.26,1a5,5,0,0,1-4.84,6.27ZM263.42,183a5,5,0,0,1-4.76-3.48l-.29-.89,4.74-1.58,4.77-1.53-4.77,1.53,4.78-1.48.29.91a5,5,0,0,1-4.76,6.52Zm-7-19.82a5,5,0,0,1-4.63-3.12c-.22-.55-.35-.84-.35-.86a5,5,0,1,1,9.2-3.9s.15.34.42,1a5,5,0,0,1-2.76,6.51A5.18,5.18,0,0,1,256.38,163.18Z"/><path class="cls-1" d="M199.37,466.15a5,5,0,0,1-2.34-9.42l.86-.46a5,5,0,0,1,4.72,8.82l-.91.48A4.88,4.88,0,0,1,199.37,466.15Zm18-10.72a5,5,0,0,1-2.79-9.15l.81-.55A5,5,0,0,1,221,454l-.85.57A4.91,4.91,0,0,1,217.4,455.43ZM234,442.68a5,5,0,0,1-3.3-8.76l.72-.64a5,5,0,0,1,6.66,7.47l-.78.68A4.93,4.93,0,0,1,234,442.68Zm14.59-15.06a5,5,0,0,1-3.88-8.15l.6-.75a5,5,0,0,1,7.81,6.25l-.65.8A5,5,0,0,1,248.63,427.62Zm11.5-17.51a5.11,5.11,0,0,1-2.26-.54,5,5,0,0,1-2.2-6.72q.22-.44.42-.84a5,5,0,0,1,9,4.41l-.48.95A5,5,0,0,1,260.13,410.11Zm6.64-19.85-.62,0a5,5,0,0,1-4.35-5.58c.05-.39.07-.62.08-.68a5,5,0,0,1,10,.56s0,.47-.13,1.35A5,5,0,0,1,266.77,390.26Z"/><path class="cls-1" d="M373.92,411.88h-.17l-1,0a5,5,0,0,1,.41-10l1,0a5,5,0,0,1-.18,10Zm20-.52a5,5,0,0,1-.42-10l1-.08a5,5,0,0,1,.92,10l-1,.09Zm-40.85-1.6a4.76,4.76,0,0,1-.84-.07l-1-.18a5,5,0,1,1,1.75-9.84l.95.16a5,5,0,0,1-.84,9.93Zm61.61-1.44a5,5,0,0,1-1-9.89l1-.2a5,5,0,0,1,2.06,9.78l-1,.21A5,5,0,0,1,414.66,408.32Zm-82-3.51a5,5,0,0,1-1.52-.24l-1-.32a5,5,0,0,1,3.1-9.5l.91.29a5,5,0,0,1-1.5,9.77ZM313.17,397a5,5,0,0,1-2.2-.51L310,396a5,5,0,1,1,4.48-8.93l.86.42a5,5,0,0,1-2.21,9.49ZM295.23,386.1a5,5,0,0,1-3.07-1.05c-.63-.49-.94-.76-.94-.76a5,5,0,0,1,6.45-7.64l.63.5a5,5,0,0,1-3.07,9Z"/></g></svg>