<?xml version="1.0" ?><svg id="Lines" viewBox="0 0 512 512" xmlns="http://www.w3.org/2000/svg"><defs><style>.cls-1{fill:#3f456b;}</style></defs><title/><path class="cls-1" d="M496.49,282.42H470.88c-6.28,0-11.38-5.73-11.38-12.77V259.54c0-7,5.1-12.77,11.38-12.77h25.61a5,5,0,1,1,0,10H470.88c-.36,0-1.38,1-1.38,2.77v10.11c0,1.82,1,2.77,1.38,2.77h25.61a5,5,0,0,1,0,10Z"/><path class="cls-1" d="M32,286.21H16.48a5,5,0,0,1,0-10H32c1.38,0,3-2.19,3-5v-13c0-2.82-1.6-5-3-5H17.48a5,5,0,1,1,0-10H32c7.16,0,13,6.72,13,15v13C45,279.48,39.17,286.21,32,286.21Z"/><path class="cls-1" d="M111.58,369.64a45.12,45.12,0,1,1,45.11-45.12A45.16,45.16,0,0,1,111.58,369.64Zm0-80.23a35.12,35.12,0,1,0,35.11,35.11A35.15,35.15,0,0,0,111.58,289.41Z"/><path class="cls-1" d="M111.58,342.12a17.59,17.59,0,1,1,17.59-17.6A17.62,17.62,0,0,1,111.58,342.12Zm0-25.18a7.59,7.59,0,1,0,7.59,7.58A7.59,7.59,0,0,0,111.58,316.94Z"/><path class="cls-1" d="M396.83,369.64a45.12,45.12,0,1,1,45.11-45.12A45.16,45.16,0,0,1,396.83,369.64Zm0-80.23a35.12,35.12,0,1,0,35.11,35.11A35.15,35.15,0,0,0,396.83,289.41Z"/><path class="cls-1" d="M396.83,342.12a17.59,17.59,0,1,1,17.59-17.6A17.62,17.62,0,0,1,396.83,342.12Zm0-25.18a7.59,7.59,0,1,0,7.59,7.58A7.59,7.59,0,0,0,396.83,316.94Z"/><path class="cls-1" d="M356.72,329.52h-205a5,5,0,0,1,0-10h205a5,5,0,0,1,0,10Z"/><path class="cls-1" d="M39.23,329.53c-1.26,0-12.53-.24-20.37-8C14,316.76,11.5,310.24,11.5,302.2V252.53c-.11-1.8-.34-11.43,6.28-19,4.89-5.62,12.12-8.69,21.49-9.13,18.88-.88,32.13-2,37.3-2.49L114.82,161c1.29-2.68,9.62-18.6,25.56-18.6H318.56c16,0,24.34,16.06,25.58,18.64l33.48,55.06c13.45,1,74,5.49,96.47,8.34,15,1.91,21.71,9.45,24.66,15.43a26.29,26.29,0,0,1,2.71,12.71V302.2c0,8-2.47,14.56-7.36,19.37-8.16,8.05-20,8-20.55,7.95H441.5a5,5,0,0,1,0-10h32.13c.28,0,8.41-.06,13.5-5.12,2.87-2.86,4.33-7,4.33-12.2V252.36c0-.15,0-.3,0-.45.11-1.51.56-15.15-18.65-17.59-24.54-3.11-97.77-8.42-98.51-8.47a5,5,0,0,1-3.91-2.39l-35-57.5a5.77,5.77,0,0,1-.29-.55c-.05-.12-6.07-13-16.6-13H140.38c-10.53,0-16.55,12.93-16.61,13.06a4.3,4.3,0,0,1-.32.6L83.73,229.28A5,5,0,0,1,80,231.6c-.15,0-15.43,1.6-40.29,2.76-6.53.3-11.38,2.22-14.41,5.71-4.34,5-3.85,11.77-3.84,11.84s0,.3,0,.45V302.2c0,5.24,1.46,9.34,4.33,12.2,5.1,5.08,13.26,5.12,13.45,5.12H71.47a5,5,0,1,1,0,10H39.23Z"/><path class="cls-1" d="M324.76,225.86H138.88c-8,0-12-3.26-14-6-4.63-6.44-2-15-1.66-15.9a.88.88,0,0,1,0-.15c0-.1,3.84-10.41,8.58-21.64a25.36,25.36,0,0,1,19.21-15.52,5.65,5.65,0,0,1,.59,0H311.94c.2,0,.4,0,.6,0a25.35,25.35,0,0,1,19.2,15.52c4.74,11.23,8.55,21.54,8.59,21.64a.88.88,0,0,0,.05.15c.32.95,3,9.46-1.66,15.9C336.74,222.6,332.72,225.86,324.76,225.86Zm-192-18.68c-.46,1.48-1,5.06.31,6.85,1.11,1.52,3.79,1.83,5.84,1.83H324.76c2.05,0,4.72-.31,5.83-1.83,1.3-1.78.79-5.34.32-6.86-.41-1.1-4-10.71-8.38-21.11a15.63,15.63,0,0,0-11-9.45H152.08a15.52,15.52,0,0,0-11,9.45C136.7,196.51,133.12,206.13,132.73,207.18Z"/><path class="cls-1" d="M231.82,225.86a5,5,0,0,1-5-5V171.61a5,5,0,0,1,10,0v49.25A5,5,0,0,1,231.82,225.86Z"/><path class="cls-1" d="M256.5,251.53h-16a5,5,0,0,1,0-10h16a5,5,0,0,1,0,10Z"/><path class="cls-1" d="M158.17,251.53h-16a5,5,0,0,1,0-10h16a5,5,0,0,1,0,10Z"/><path class="cls-1" d="M80.5,303.86h-64a5,5,0,1,1,0-10h64a5,5,0,0,1,0,10Z"/><path class="cls-1" d="M496.46,303.86H428.25a5,5,0,0,1,0-10h68.21a5,5,0,0,1,0,10Z"/><path class="cls-1" d="M364.75,303.86H142.17a5,5,0,1,1,0-10H364.75a5,5,0,0,1,0,10Z"/></svg>