<?xml version="1.0" ?><svg id="Lines" viewBox="0 0 512 512" xmlns="http://www.w3.org/2000/svg"><defs><style>.cls-1{fill:#3f456b;}</style></defs><title/><path class="cls-1" d="M112.37,286.76l-.57,0-80-9.14a5,5,0,0,1-4.4-5.54L45,118.9C46.49,102.09,55.51,87,71.1,75.21A91.73,91.73,0,0,1,94.19,62.49l.26-.08,79.18-22.3a5,5,0,1,1,2.71,9.63L97.32,72c-2.25.81-39.5,14.84-42.33,47.84,0,0,0,.1,0,.15L37.88,268.22l75.05,8.57a5,5,0,0,1-.56,10Z"/><path class="cls-1" d="M301.72,139.38a5,5,0,0,1-3.54-1.46L257,96.73,215.8,137.92a5,5,0,0,1-7.4-.36C207,135.8,172.86,93.81,170,45.22a5,5,0,0,1,2.22-4.45l39.13-26.09a4.18,4.18,0,0,1,.57-.33c5.68-4.38,13.83-4.3,15.36-4.24h59.43c1.52-.06,9.68-.14,15.35,4.24a3.66,3.66,0,0,1,.57.33l39.14,26.09A5,5,0,0,1,344,45.22c-2.85,48.59-37,90.58-38.4,92.34a5,5,0,0,1-3.62,1.82ZM265.27,90.86l35.93,35.93c8.32-11.47,29.51-43.79,32.59-79.32L307,29.59c-.12.57-.26,1.15-.44,1.75C305.84,34.05,295.37,72.55,265.27,90.86ZM180.19,47.47c3.08,35.52,24.27,67.85,32.59,79.32l35.93-35.93c-30.09-18.31-40.56-56.81-41.27-59.52-.17-.6-.32-1.18-.44-1.75Zm46.25-27.38c-2.53,0-7.4.66-9.15,2.9-.91,1.16-1,3.05-.23,5.62,0,.05,0,.11.05.17.1.4,10.54,39.83,39.88,55.29,29.43-15.5,39.78-54.88,39.89-55.29,0-.06,0-.12,0-.17.76-2.57.68-4.46-.23-5.62-1.87-2.4-7.32-3-9.66-2.89H226.44Z"/><path class="cls-1" d="M399.62,501.8H112.37a5,5,0,0,1-5-5V152.74a5,5,0,0,1,10,0V491.8H394.62V152.74a5,5,0,0,1,10,0V496.8A5,5,0,0,1,399.62,501.8Z"/><path class="cls-1" d="M399.61,286.76a5,5,0,0,1-.56-10l74.76-8.57L456.73,120a1.36,1.36,0,0,1,0-.2C454.1,85.51,416,72.5,414.43,72L337.32,49.73a5,5,0,1,1,2.77-9.61l77.19,22.3.11,0c1.88.59,46.06,15,49.28,56.48l17.65,153.12a5,5,0,0,1-4.4,5.54l-79.73,9.14Z"/><path class="cls-1" d="M273.12,191.07H239.79a5,5,0,0,1-5-5V106.5a5,5,0,1,1,10,0v74.57h23.33V108.29a5,5,0,0,1,10,0v77.78A5,5,0,0,1,273.12,191.07Z"/><path class="cls-1" d="M255.92,133a5,5,0,0,1-5-5v-1.08a5,5,0,0,1,10,0V128A5,5,0,0,1,255.92,133Z"/><path class="cls-1" d="M255.92,164.19a5,5,0,0,1-5-5v-1.08a5,5,0,0,1,10,0v1.08A5,5,0,0,1,255.92,164.19Z"/><path class="cls-1" d="M294.62,52.92H219a5,5,0,0,1,0-10h75.59a5,5,0,0,1,0,10Z"/><path class="cls-1" d="M350,223.86a5,5,0,0,1-3.54-1.46l-22.58-22.58a5,5,0,1,1,7.07-7.07l22.58,22.57a5,5,0,0,1-3.53,8.54Z"/><path class="cls-1" d="M327.42,223.86a5,5,0,0,1-3.54-8.54l22.58-22.57a5,5,0,1,1,7.07,7.07L331,222.4A5,5,0,0,1,327.42,223.86Z"/></svg>