<?xml version="1.0" ?><svg viewBox="0 0 512 512" xmlns="http://www.w3.org/2000/svg"><defs><style>.cls-1{fill:#3f456b;}</style></defs><title/><g id="Lines"><path class="cls-1" d="M312,69.5a5,5,0,0,1,5-5h0a5,5,0,0,1,5,5h0a5,5,0,0,1-5,5h0A5,5,0,0,1,312,69.5Z"/><path class="cls-1" d="M199.13,69.5a5,5,0,0,1,5-5h0a5,5,0,0,1,5,5h0a5,5,0,0,1-5,5h0A5,5,0,0,1,199.13,69.5Z"/><path class="cls-1" d="M461.69,435H46.31A37.37,37.37,0,0,1,9.6,404.38,5,5,0,0,1,9,402V48.31A37.36,37.36,0,0,1,46.31,11H461.69A37.36,37.36,0,0,1,499,48.31V397.69A37.36,37.36,0,0,1,461.69,435ZM19,397.69A27.34,27.34,0,0,0,46.31,425H461.69A27.34,27.34,0,0,0,489,397.69V48.31A27.34,27.34,0,0,0,461.69,21H46.31A27.34,27.34,0,0,0,19,48.31Z"/><path class="cls-1" d="M439,365H65a15,15,0,0,1-15-15V127a15,15,0,0,1,15-15H439a15,15,0,0,1,15,15V350A15,15,0,0,1,439,365ZM65,122a5,5,0,0,0-5,5V350a5,5,0,0,0,5,5H439a5,5,0,0,0,5-5V127a5,5,0,0,0-5-5Z"/><path class="cls-1" d="M259.5,98.47a29.09,29.09,0,1,1,29.09-29.08A29.11,29.11,0,0,1,259.5,98.47Zm0-48.17a19.09,19.09,0,1,0,19.09,19.09A19.11,19.11,0,0,0,259.5,50.3Z"/><path class="cls-1" d="M355.3,502H153.86a15,15,0,0,1-11-4.36c-4.39-4.51-4.82-10.88-4.84-12.77s-.22-12.28,7.18-20.22c5.35-5.74,13.11-8.65,23.08-8.65h33.9l7-26.29a5,5,0,0,1,9.67,2.58l-8,30A5,5,0,0,1,206,466H168.26c-7.08,0-12.38,1.84-15.77,5.47-4.32,4.64-4.53,11.09-4.51,12.6,0,.15,0,.31,0,.46v.31c0,1.21.41,4.21,2,5.85a4.9,4.9,0,0,0,3.83,1.31H355.3c2.28,0,3.26-.75,3.8-1.31,1.55-1.61,1.88-4.63,1.91-5.71a1.69,1.69,0,0,1,0-.23v-.22a5.25,5.25,0,0,1,0-.56c0-1.59-.1-8.2-4.36-12.78-3.15-3.39-8.08-5.11-14.64-5.11l-39.53,0a5,5,0,0,1-4.84-3.75l-7.8-30.05a5,5,0,1,1,9.68-2.52l6.83,26.32,35.66,0c9.51,0,16.93,2.83,22.05,8.4,7.18,7.81,7,18.29,6.92,20.35s-.35,8.27-4.68,12.78A14.85,14.85,0,0,1,355.3,502Z"/><path class="cls-1" d="M304,466H204a5,5,0,0,1,0-10H304a5,5,0,0,1,0,10Z"/></g><g id="Outline"><path class="cls-1" d="M84,365a5,5,0,0,1-5-5V117a5,5,0,0,1,10,0V360A5,5,0,0,1,84,365Z"/><path class="cls-1" d="M335,365a5,5,0,0,1-5-5V117a5,5,0,0,1,10,0V360A5,5,0,0,1,335,365Z"/><path class="cls-1" d="M307,365a5,5,0,0,1-5-5V117a5,5,0,0,1,10,0V360A5,5,0,0,1,307,365Z"/><path class="cls-1" d="M279,365a5,5,0,0,1-5-5V117a5,5,0,0,1,10,0V360A5,5,0,0,1,279,365Z"/><path class="cls-1" d="M391,365a5,5,0,0,1-5-5V117a5,5,0,0,1,10,0V360A5,5,0,0,1,391,365Z"/><path class="cls-1" d="M363,365a5,5,0,0,1-5-5V117a5,5,0,0,1,10,0V360A5,5,0,0,1,363,365Z"/><path class="cls-1" d="M419,365a5,5,0,0,1-5-5V117a5,5,0,0,1,10,0V360A5,5,0,0,1,419,365Z"/><path class="cls-1" d="M251,365a5,5,0,0,1-5-5V117a5,5,0,0,1,10,0V360A5,5,0,0,1,251,365Z"/><path class="cls-1" d="M223,365a5,5,0,0,1-5-5V117a5,5,0,0,1,10,0V360A5,5,0,0,1,223,365Z"/><path class="cls-1" d="M196,365a5,5,0,0,1-5-5V117a5,5,0,0,1,10,0V360A5,5,0,0,1,196,365Z"/><path class="cls-1" d="M168,365a5,5,0,0,1-5-5V117a5,5,0,0,1,10,0V360A5,5,0,0,1,168,365Z"/><path class="cls-1" d="M140,365a5,5,0,0,1-5-5V117a5,5,0,0,1,10,0V360A5,5,0,0,1,140,365Z"/><path class="cls-1" d="M112,365a5,5,0,0,1-5-5V117a5,5,0,0,1,10,0V360A5,5,0,0,1,112,365Z"/><path class="cls-1" d="M335,435a5,5,0,0,1-5-5V412a5,5,0,0,1,10,0v18A5,5,0,0,1,335,435Z"/><path class="cls-1" d="M307,435a5,5,0,0,1-5-5V412a5,5,0,0,1,10,0v18A5,5,0,0,1,307,435Z"/><path class="cls-1" d="M279,435a5,5,0,0,1-5-5V412a5,5,0,0,1,10,0v18A5,5,0,0,1,279,435Z"/><path class="cls-1" d="M363,435a5,5,0,0,1-5-5V412a5,5,0,0,1,10,0v18A5,5,0,0,1,363,435Z"/><path class="cls-1" d="M251,435a5,5,0,0,1-5-5V412a5,5,0,0,1,10,0v18A5,5,0,0,1,251,435Z"/><path class="cls-1" d="M223,435a5,5,0,0,1-5-5V412a5,5,0,0,1,10,0v18A5,5,0,0,1,223,435Z"/><path class="cls-1" d="M196,435a5,5,0,0,1-5-5V412a5,5,0,0,1,10,0v18A5,5,0,0,1,196,435Z"/><path class="cls-1" d="M168,435a5,5,0,0,1-5-5V412a5,5,0,0,1,10,0v18A5,5,0,0,1,168,435Z"/><path class="cls-1" d="M140,435a5,5,0,0,1-5-5V412a5,5,0,0,1,10,0v18A5,5,0,0,1,140,435Z"/></g></svg>