<?xml version="1.0" ?><svg viewBox="0 0 512 512" xmlns="http://www.w3.org/2000/svg"><defs><style>.cls-1{fill:#3f456b;}</style></defs><title/><g id="Lines"><path class="cls-1" d="M448.5,373.24H65.24a5,5,0,1,1,0-10H448.5a5,5,0,0,1,0,10Z"/><path class="cls-1" d="M48.5,500.5A5,5,0,0,1,46.27,491l96.5-48a5,5,0,1,1,4.46,9l-96.5,48A5.09,5.09,0,0,1,48.5,500.5Z"/><path class="cls-1" d="M464.75,500.5a5.09,5.09,0,0,1-2.23-.52L366,452a5,5,0,1,1,4.46-9L467,491a5,5,0,0,1-2.23,9.48Z"/><path class="cls-1" d="M378.62,336.36a28.11,28.11,0,1,1,28.11-28.11A28.14,28.14,0,0,1,378.62,336.36Zm0-46.22a18.11,18.11,0,1,0,18.11,18.11A18.13,18.13,0,0,0,378.62,290.14Z"/><path class="cls-1" d="M135.79,336.36a28.11,28.11,0,1,1,28.11-28.11A28.14,28.14,0,0,1,135.79,336.36Zm0-46.22a18.11,18.11,0,1,0,18.11,18.11A18.13,18.13,0,0,0,135.79,290.14Z"/><path class="cls-1" d="M398.5,452.5h-284a55.06,55.06,0,0,1-55-55V88.81a55.06,55.06,0,0,1,55-55h284a55.06,55.06,0,0,1,55,55V397.5A55.06,55.06,0,0,1,398.5,452.5ZM114.5,43.81a45,45,0,0,0-45,45V397.5a45.05,45.05,0,0,0,45,45h284a45.05,45.05,0,0,0,45-45V88.81a45,45,0,0,0-45-45Z"/><path class="cls-1" d="M381,251.81H132a25,25,0,0,1-25-25v-104a25,25,0,0,1,25-25H381a25,25,0,0,1,25,25v104A25,25,0,0,1,381,251.81Zm-249-144a15,15,0,0,0-15,15v104a15,15,0,0,0,15,15H381a15,15,0,0,0,15-15v-104a15,15,0,0,0-15-15Z"/><path class="cls-1" d="M288.5,75.81H225.24a5,5,0,0,1,0-10H288.5a5,5,0,0,1,0,10Z"/><path class="cls-1" d="M352,43.81a5,5,0,0,1-5-5V35.5a15,15,0,0,0-15-15H180.5a15,15,0,0,0-15,15v3.31a5,5,0,0,1-10,0V35.5a25,25,0,0,1,25-25H332a25,25,0,0,1,25,25v3.31A5,5,0,0,1,352,43.81Z"/></g><g id="Outline"><path class="cls-1" d="M355.51,313.25H158.9a5,5,0,1,1,0-10H355.51a5,5,0,0,1,0,10Z"/></g></svg>