<?xml version="1.0" ?><svg viewBox="0 0 512 512" xmlns="http://www.w3.org/2000/svg"><defs><style>.cls-1{fill:#3f456b;}</style></defs><title/><g id="Lines"><path class="cls-1" d="M63.83,124.68a4.94,4.94,0,0,1-2.52-.68,5,5,0,0,1-2.48-4.42l.44-21.65C49.7,88.36,44.46,76.26,44.46,63.64c0-29.3,28.19-53.14,62.84-53.14s62.84,23.84,62.84,53.14S142,116.78,107.3,116.78a72.79,72.79,0,0,1-22.72-3.57L66.38,124A5,5,0,0,1,63.83,124.68ZM107.3,20.5c-29.13,0-52.84,19.35-52.84,43.14,0,10.51,4.71,20.64,13.25,28.54A5,5,0,0,1,69.31,96L69,110.8l12.46-7.38a5,5,0,0,1,4.27-.39,62.52,62.52,0,0,0,21.56,3.75c29.14,0,52.84-19.35,52.84-43.14S136.44,20.5,107.3,20.5Z"/><path class="cls-1" d="M465.17,303.33a5,5,0,0,1-2.54-.69l-18.2-10.78a72.8,72.8,0,0,1-22.73,3.57c-34.65,0-62.84-23.84-62.84-53.14s28.19-53.14,62.84-53.14,62.84,23.84,62.84,53.14c0,12.63-5.24,24.72-14.8,34.3l.43,21.64a5,5,0,0,1-2.48,4.42A4.92,4.92,0,0,1,465.17,303.33Zm-20.19-22a5,5,0,0,1,2.55.7L460,289.45l-.3-14.85a5,5,0,0,1,1.61-3.77c8.54-7.89,13.24-18,13.24-28.54,0-23.79-23.7-43.14-52.84-43.14s-52.84,19.35-52.84,43.14,23.71,43.14,52.84,43.14a62.43,62.43,0,0,0,21.56-3.75A4.88,4.88,0,0,1,445,281.37Z"/><path class="cls-1" d="M475.93,187.52a14.41,14.41,0,0,1-1.46-.07h0L368.6,177.2a15,15,0,0,1-13.48-16.38L365.38,55a15,15,0,0,1,16.37-13.48L487.62,51.73A15,15,0,0,1,501.1,68.1L490.84,174a15,15,0,0,1-14.91,13.55Zm-.5-10a5,5,0,0,0,5.46-4.5L491.15,67.14a5,5,0,0,0-4.5-5.46L380.79,51.42a5,5,0,0,0-5.46,4.5L365.07,161.78a5,5,0,0,0,4.5,5.46L475.43,177.5Z"/><path class="cls-1" d="M405.91,328.65l-.46,0a5,5,0,0,1-4.52-5.44L404,289.08a5,5,0,0,1,10,.9l-3.11,34.12A5,5,0,0,1,405.91,328.65Z"/><path class="cls-1" d="M417.73,199.15l-.46,0a5,5,0,0,1-4.53-5.43l1.47-16.07a5,5,0,0,1,10,.91l-1.47,16.07A5,5,0,0,1,417.73,199.15Z"/><path class="cls-1" d="M153.34,348.2a5,5,0,0,1-2.48-.66c-13.13-7.51-21.28-22.12-21.28-38.12,0-23.79,18-43.15,40.07-43.15s40.07,19.36,40.07,43.15c0,15.21-7.56,29.46-19.74,37.19a5,5,0,0,1-5.36-8.44c9.32-5.91,15.1-16.93,15.1-28.75,0-18.28-13.49-33.15-30.07-33.15s-30.07,14.87-30.07,33.15c0,12.42,6.22,23.7,16.25,29.44a5,5,0,0,1-2.49,9.34Z"/><path class="cls-1" d="M220.63,363a5.05,5.05,0,0,1-2.63-.75c-14.31-8.88-30.51-9.63-30.68-9.64a5,5,0,0,1-4.79-5v-4.39a5,5,0,0,1,10-.14c6.65.89,19.13,3.45,30.75,10.66a5,5,0,0,1-2.64,9.25Z"/><path class="cls-1" d="M125,360.88a5,5,0,0,1-2.36-9.42,76.91,76.91,0,0,1,25.73-8.2,5,5,0,0,1,10,.19v4.39a5,5,0,0,1-4.92,5,65,65,0,0,0-26.1,7.45A5,5,0,0,1,125,360.88Z"/><path class="cls-1" d="M322.38,348.2a4.92,4.92,0,0,1-2.47-.66c-13.13-7.51-21.29-22.12-21.29-38.12,0-23.79,18-43.15,40.07-43.15s40.08,19.36,40.08,43.15c0,15.21-7.57,29.46-19.75,37.19a5,5,0,0,1-5.36-8.44c9.32-5.91,15.11-16.93,15.11-28.75,0-18.28-13.49-33.15-30.08-33.15s-30.07,14.87-30.07,33.15c0,12.42,6.23,23.7,16.25,29.44a5,5,0,0,1-2.49,9.34Z"/><path class="cls-1" d="M385.92,360.88a5,5,0,0,1-2.32-.58,72.28,72.28,0,0,0-27.23-7.67,5,5,0,0,1-4.8-5v-4.39a5,5,0,0,1,10-.14,82.51,82.51,0,0,1,26.69,8.34,5,5,0,0,1-2.34,9.43Z"/><path class="cls-1" d="M291.59,361.86a5,5,0,0,1-2.45-9.36,81.64,81.64,0,0,1,28.25-9.19,5,5,0,0,1,10,.14v4.39a5,5,0,0,1-4.8,5A72.3,72.3,0,0,0,294,361.22,4.89,4.89,0,0,1,291.59,361.86Z"/><path class="cls-1" d="M73.48,396.84a5,5,0,0,1-2.48-.66c-13.13-7.51-21.29-22.12-21.29-38.12,0-23.79,18-43.15,40.08-43.15s40.07,19.36,40.07,43.15c0,15.21-7.57,29.46-19.75,37.19a5,5,0,0,1-5.36-8.44c9.32-5.92,15.11-16.93,15.11-28.75,0-18.28-13.49-33.15-30.07-33.15s-30.08,14.87-30.08,33.15c0,12.42,6.23,23.7,16.25,29.44a5,5,0,0,1-2.48,9.34Z"/><path class="cls-1" d="M164.51,498.61h-.27a5,5,0,0,1-4.73-5.26c1.33-24.76-2.72-56.64-3.33-61.21-11.21-28.9-48.35-30.85-48.73-30.87a5,5,0,0,1-4.79-5v-4.4a5,5,0,0,1,10-.13,85.35,85.35,0,0,1,18.88,4.81c16.83,6.46,28.66,17.73,34.21,32.6a5.31,5.31,0,0,1,.27,1.06c.2,1.46,4.95,36.12,3.48,63.66A5,5,0,0,1,164.51,498.61Z"/><path class="cls-1" d="M47.84,498.61h-.18a5,5,0,0,1-4.82-5.17c.1-2.92.21-8.59.32-14.59.18-9.63.38-20.54.65-25.23a5,5,0,1,1,10,.57c-.25,4.5-.46,15.31-.63,24.85-.12,6.3-.22,11.75-.33,14.75A5,5,0,0,1,47.84,498.61Z"/><path class="cls-1" d="M133.31,498.61a5,5,0,0,1-5-4.82c-.1-3-.21-8.47-.33-14.81-.18-9.6-.39-20.49-.64-25a5,5,0,1,1,10-.57c.27,4.69.48,15.68.66,25.37.11,6,.22,11.73.32,14.65a5,5,0,0,1-4.82,5.17Z"/><path class="cls-1" d="M239.37,396.84a5.09,5.09,0,0,1-2.48-.66c-13.13-7.51-21.28-22.12-21.28-38.12,0-23.79,18-43.15,40.07-43.15s40.07,19.36,40.07,43.15c0,15.21-7.56,29.46-19.74,37.19a5,5,0,0,1-5.36-8.44c9.32-5.92,15.1-16.93,15.1-28.75,0-18.28-13.49-33.15-30.07-33.15s-30.07,14.87-30.07,33.15c0,12.42,6.22,23.7,16.25,29.44a5,5,0,0,1-2.49,9.34Z"/><path class="cls-1" d="M330.2,500.06h-.27a5,5,0,0,1-4.73-5.26c1.33-24.77-2.55-57.9-3.13-62.67-11.23-28.88-48.35-30.83-48.72-30.85a5,5,0,0,1-4.79-5v-4.4a5,5,0,0,1,10-.13,85.08,85.08,0,0,1,18.88,4.81c16.83,6.46,28.66,17.73,34.21,32.6a4.64,4.64,0,0,1,.28,1.11c.19,1.52,4.74,37.54,3.27,65.05A5,5,0,0,1,330.2,500.06Z"/><path class="cls-1" d="M183,499.41a5,5,0,0,1-5-4.76c-.37-7.54-.52-33.85-.52-43,0-29.84,16.95-44.66,31.17-51.84A82.94,82.94,0,0,1,234.38,392a5,5,0,0,1,10,.14v4.39a5,5,0,0,1-4.8,5c-2.12.09-52.05,2.81-52.05,50.13,0,8.83.16,35.29.5,42.56a5,5,0,0,1-4.75,5.24Z"/><path class="cls-1" d="M213.73,498.61h-.17a5,5,0,0,1-4.83-5.17c.1-2.92.21-8.59.32-14.59.18-9.63.39-20.54.66-25.23a5,5,0,1,1,10,.57c-.26,4.5-.46,15.31-.64,24.85-.12,6.3-.22,11.75-.32,14.75A5,5,0,0,1,213.73,498.61Z"/><path class="cls-1" d="M299.26,499.81a5,5,0,0,1-5-4.82c-.1-3-.21-8.53-.34-15-.2-10.07-.43-21.48-.69-26a5,5,0,1,1,10-.57c.27,4.72.5,16.24.7,26.39.12,6.14.23,11.94.33,14.83a5,5,0,0,1-4.82,5.17Z"/><path class="cls-1" d="M405.39,396.84a5,5,0,0,1-2.47-.66c-13.13-7.51-21.29-22.12-21.29-38.12,0-23.79,18-43.15,40.07-43.15s40.08,19.36,40.08,43.15c0,15.21-7.57,29.46-19.75,37.19a5,5,0,0,1-5.36-8.44c9.32-5.92,15.11-16.93,15.11-28.75,0-18.28-13.49-33.15-30.08-33.15s-30.07,14.87-30.07,33.15c0,12.42,6.23,23.7,16.25,29.44a5,5,0,0,1-2.49,9.34Z"/><path class="cls-1" d="M496.22,500.06h0l-479.07-.65a5,5,0,0,1-5-4.76c-.36-7.54-.51-33.85-.51-43,0-29.84,16.94-44.66,31.16-51.84A83.1,83.1,0,0,1,68.48,392a5,5,0,0,1,10,.14v4.39a5,5,0,0,1-4.8,5c-2.11.09-52,2.81-52,50.13,0,7.43.1,27.35.35,37.81l469.42.63c.67-24.06-2.77-53.46-3.32-57.93-11.22-28.88-48.34-30.83-48.72-30.85a5,5,0,0,1-4.79-5v-4.4a5,5,0,0,1,10-.13,85.35,85.35,0,0,1,18.88,4.81c16.83,6.46,28.66,17.73,34.21,32.6a5.14,5.14,0,0,1,.27,1.11c.2,1.52,4.74,37.54,3.27,65.05A5,5,0,0,1,496.22,500.06Z"/><path class="cls-1" d="M349.06,499.41a5,5,0,0,1-5-4.76c-.36-7.54-.52-33.85-.52-43,0-29.84,16.95-44.66,31.17-51.84A83.1,83.1,0,0,1,400.4,392a5,5,0,0,1,10,.14v4.39a5,5,0,0,1-4.8,5c-2.12.09-52.05,2.81-52.05,50.13,0,8.83.16,35.29.51,42.56a5,5,0,0,1-4.76,5.24Z"/><path class="cls-1" d="M379.76,498.61h-.18a5,5,0,0,1-4.82-5.17c.1-2.92.2-8.59.32-14.59.18-9.63.38-20.54.65-25.23a5,5,0,1,1,10,.57c-.25,4.5-.46,15.31-.64,24.85-.11,6.3-.22,11.75-.32,14.75A5,5,0,0,1,379.76,498.61Z"/><path class="cls-1" d="M465.29,499.81a5,5,0,0,1-5-4.82c-.1-3-.21-8.53-.34-15-.2-10.07-.42-21.48-.68-26a5,5,0,1,1,10-.57c.27,4.72.5,16.24.7,26.39.12,6.14.24,11.94.34,14.83a5,5,0,0,1-4.83,5.17Z"/><path class="cls-1" d="M27.57,253.26a15,15,0,0,1-14.88-13.21L3.6,164.6a15,15,0,0,1,13.09-16.69l250.19-30.16a15,15,0,0,1,16.69,13.1l9.1,75.45A15,15,0,0,1,279.57,223L29.38,253.15A15.84,15.84,0,0,1,27.57,253.26ZM268.68,127.64a4,4,0,0,0-.6,0L17.89,157.84a5,5,0,0,0-4.37,5.56l9.1,75.46a5,5,0,0,0,5.56,4.36l250.19-30.16h0a5,5,0,0,0,4.37-5.56L273.64,132A5,5,0,0,0,268.68,127.64Z"/><path class="cls-1" d="M75.63,326.46a5,5,0,0,1-5-4.39l-9.62-77.76A5,5,0,0,1,71,243.08l9.62,77.76a5,5,0,0,1-4.34,5.58A4.4,4.4,0,0,1,75.63,326.46Z"/><path class="cls-1" d="M252.09,325.11a5,5,0,0,1-5-4.45l-10.86-97.54a5,5,0,1,1,9.94-1.1l10.85,97.54a5,5,0,0,1-4.41,5.52Z"/><path class="cls-1" d="M89,214.71a4.9,4.9,0,0,1-1.5-.24,5,5,0,0,1-3.27-6.27c4.31-13.69,12.71-22.57,23.67-25,10.73-2.39,19.35,2.49,27,6.79,5,2.85,9.81,5.55,14.87,6.16a21.1,21.1,0,0,0,12.75-2.33,33.66,33.66,0,0,1-3.73-2.56c-7.53-5.95-11.07-14.33-9.7-23,1.56-9.87,6.9-16.85,14.65-19.17a17.85,17.85,0,0,1,18.46,5.23c6.07,6.68,7,16.85,2.48,27.92a45.59,45.59,0,0,1-3.68,7.21c7.68.94,17.14,0,27.77-4.4a5,5,0,1,1,3.8,9.25c-13.46,5.53-27.46,6.78-39.05,3.91a31.86,31.86,0,0,1-25,7.84c-7-.86-12.91-4.18-18.59-7.39-6.91-3.91-12.88-7.29-19.86-5.73-9.88,2.2-14.45,12.38-16.3,18.26A5,5,0,0,1,89,214.71Zm79.8-56.34a7.83,7.83,0,0,0-2.24.32c-3.91,1.17-6.69,5.24-7.63,11.15-.8,5,1.34,9.86,6,13.57a26,26,0,0,0,5.69,3.34,34.59,34.59,0,0,0,4.74-8.25c3-7.36,2.76-13.72-.62-17.44A8,8,0,0,0,168.83,158.37Z"/><path class="cls-1" d="M278.25,333.85a4,4,0,0,1-.6,0,5,5,0,0,1-4.37-5.56l9-74.92a5,5,0,1,1,9.93,1.19l-9,74.93A5,5,0,0,1,278.25,333.85Z"/><path class="cls-1" d="M214.47,134.1a4.1,4.1,0,0,1-.49,0,5,5,0,0,1-4.49-5.46l1.82-18.79a15,15,0,0,1,16.38-13.49l132.6,12.85a5,5,0,0,1-1,10L226.72,106.3a5,5,0,0,0-5.45,4.49l-1.83,18.8A5,5,0,0,1,214.47,134.1Z"/><path class="cls-1" d="M367.26,266.68l-.49,0L212.63,251.72a15,15,0,0,1-13.48-16.37l.72-7.44a5,5,0,0,1,9.95,1l-.72,7.43a5,5,0,0,0,4.5,5.46l154.14,14.94a5,5,0,0,1-.48,10Z"/><path class="cls-1" d="M382.7,211a3.85,3.85,0,0,1-.48,0,5,5,0,0,1-4.5-5.46l3.12-32.16a5,5,0,1,1,10,1l-3.11,32.17A5,5,0,0,1,382.7,211Z"/><path class="cls-1" d="M421.35,252.24a5,5,0,0,1-5-5V217a5,5,0,0,1,10,0v30.24A5,5,0,0,1,421.35,252.24Z"/><path class="cls-1" d="M421.35,271.24a5,5,0,0,1-5-5v-3.56a5,5,0,1,1,10,0v3.56A5,5,0,0,1,421.35,271.24Z"/><path class="cls-1" d="M107,73.8a5,5,0,0,1-5-5V38.56a5,5,0,1,1,10,0V68.8A5,5,0,0,1,107,73.8Z"/><path class="cls-1" d="M107,92.8a5,5,0,0,1-5-5V84.24a5,5,0,0,1,10,0V87.8A5,5,0,0,1,107,92.8Z"/></g><g id="Outline"><path class="cls-1" d="M428.2,163.82c-1.61,0-3.23-.07-4.85-.23a49.36,49.36,0,1,1,4.85.23Zm-.12-88.72a39.42,39.42,0,1,0,3.83.19A38.06,38.06,0,0,0,428.08,75.1Z"/><path class="cls-1" d="M393.9,147.63a5,5,0,0,1-3.18-8.86l68.42-56.34a5,5,0,0,1,6.36,7.72l-68.42,56.34A5,5,0,0,1,393.9,147.63Z"/></g></svg>