<?xml version="1.0" ?><svg viewBox="0 0 512 512" xmlns="http://www.w3.org/2000/svg"><defs><style>.cls-1{fill:#3f456b;}</style></defs><title/><g id="Lines"><path class="cls-1" d="M50.57,507a38.52,38.52,0,0,1-27.24-65.76L114,350.55A213.09,213.09,0,0,1,440.09,78.91,213.09,213.09,0,0,1,168.46,405L77.81,495.67A38.3,38.3,0,0,1,50.57,507ZM289.42,26.5c-112,0-203.08,91.1-203.08,203.08a201.66,201.66,0,0,0,38.22,118.61,5,5,0,0,1-.52,6.46L30.41,448.27a28.51,28.51,0,1,0,40.32,40.32L164.36,395a5,5,0,0,1,6.46-.52,201.51,201.51,0,0,0,118.6,38.22c112,0,203.08-91.1,203.08-203.08S401.4,26.5,289.42,26.5Z"/><path class="cls-1" d="M50.44,472.06a5,5,0,0,1-3.54-8.54L49,461.4a5,5,0,1,1,7.08,7.08L54,470.6A5,5,0,0,1,50.44,472.06Z"/></g><g id="Outline"><path class="cls-1" d="M289.52,384.06a5,5,0,0,1,4.84-5.16h0a5,5,0,0,1,5.15,4.84h0a5,5,0,0,1-4.83,5.16h-.17A5,5,0,0,1,289.52,384.06Zm-15.5,4.2a5,5,0,0,1-4.51-5.45h0A5,5,0,0,1,275,378.3h0a5,5,0,0,1,4.51,5.45h0a5,5,0,0,1-5,4.53h0Zm35.5-5.48a5,5,0,0,1,4.15-5.73h0a5,5,0,0,1,5.73,4.14h0a5,5,0,0,1-4.15,5.73h0a4.22,4.22,0,0,1-.79.07h0A5,5,0,0,1,309.52,382.78ZM253.6,385h0a5,5,0,0,1-3.77-6h0a5,5,0,0,1,6-3.77h0a5,5,0,0,1,3.77,6h0a5,5,0,0,1-4.87,3.9h0A4.73,4.73,0,0,1,253.6,385Zm75.6-6a5,5,0,0,1,3.37-6.22h0a5,5,0,0,1,6.22,3.38h0a5,5,0,0,1-3.37,6.21h0a5,5,0,0,1-1.42.21h0A5,5,0,0,1,329.2,379Zm-95.45.16a5,5,0,0,1-3-6.42h0a5,5,0,0,1,6.42-3h0a5,5,0,0,1,3,6.41h0a5,5,0,0,1-4.69,3.28h0A5,5,0,0,1,233.75,379.12Zm114.48-6.48a5,5,0,0,1,2.54-6.6h0a5,5,0,0,1,6.6,2.54h0a5,5,0,0,1-2.54,6.6h0a5,5,0,0,1-2,.43h0A5,5,0,0,1,348.23,372.64Zm-133.4-1.89a5,5,0,0,1-2.12-6.75h0a5,5,0,0,1,6.75-2.12h0a5,5,0,0,1,2.12,6.75h0a5,5,0,0,1-4.44,2.69h0A5.05,5.05,0,0,1,214.83,370.75Zm151.44-6.83a5,5,0,0,1,1.67-6.86h0a5,5,0,0,1,6.87,1.68h0a5,5,0,0,1-1.68,6.87h0a5,5,0,0,1-2.59.73h0A5,5,0,0,1,366.27,363.92ZM197.15,360a5,5,0,0,1-1.24-7h0a5,5,0,0,1,7-1.24h0a5,5,0,0,1,1.24,7h0a5,5,0,0,1-4.1,2.14h0A5,5,0,0,1,197.15,360Zm185.9-7a5,5,0,0,1,.79-7h0a5,5,0,0,1,7,.79h0a5,5,0,0,1-.79,7h0a5,5,0,0,1-3.12,1.09h0A5,5,0,0,1,383.05,353ZM181,347.13h0a5,5,0,0,1-.34-7.07h0a5,5,0,0,1,7.06-.34h0a5,5,0,0,1,.34,7.07h0a5,5,0,0,1-3.7,1.63h0A5,5,0,0,1,181,347.13ZM398.31,340a5,5,0,0,1-.12-7.07h0a5,5,0,0,1,7.07-.12h0a5,5,0,0,1,.12,7.07h0a5,5,0,0,1-3.59,1.52h0A5,5,0,0,1,398.31,340Zm-231.72-7.68a5,5,0,0,1,.56-7.05h0a5,5,0,0,1,7,.56h0a5,5,0,0,1-.55,7h0a5,5,0,0,1-3.25,1.2h0A5,5,0,0,1,166.59,332.29Zm245.2-7.17a5,5,0,0,1-1-7h0a5,5,0,0,1,7-1h0a5,5,0,0,1,1,7h0a5,5,0,0,1-4,2h0A4.93,4.93,0,0,1,411.79,325.12ZM154.2,315.74a5,5,0,0,1,1.45-6.92h0a5,5,0,0,1,6.92,1.45h0a5,5,0,0,1-1.45,6.92h0a5,5,0,0,1-2.73.81h0A5,5,0,0,1,154.2,315.74Zm269.07-7.06a5,5,0,0,1-1.9-6.81h0a5,5,0,0,1,6.82-1.89h0a5,5,0,0,1,1.89,6.81h0a5,5,0,0,1-4.36,2.54h0A5,5,0,0,1,423.27,308.68ZM144,297.75a5,5,0,0,1,2.33-6.68h0A5,5,0,0,1,153,293.4h0a5,5,0,0,1-2.32,6.67h0a5,5,0,0,1-2.17.5h0A5,5,0,0,1,144,297.75Zm288.53-6.84a5,5,0,0,1-2.76-6.51h0a5,5,0,0,1,6.51-2.76h0a5,5,0,0,1,2.76,6.51h0a5,5,0,0,1-4.64,3.13h0A5,5,0,0,1,432.56,290.91ZM136.25,278.59a5,5,0,0,1,3.16-6.33h0a5,5,0,0,1,6.32,3.17h0a5,5,0,0,1-3.16,6.32h0A4.89,4.89,0,0,1,141,282h0A5,5,0,0,1,136.25,278.59Zm303.23-6.51a5,5,0,0,1-3.57-6.1h0a5,5,0,0,1,6.11-3.57h0a5,5,0,0,1,3.57,6.1h0a5,5,0,0,1-4.84,3.74h0A5.1,5.1,0,0,1,439.48,272.08ZM131,258.58a5,5,0,0,1,4-5.86h0a5,5,0,0,1,5.86,4h0a5,5,0,0,1-3.95,5.86h0a4.61,4.61,0,0,1-1,.1h0A5,5,0,0,1,131,258.58Zm312.94-6a5,5,0,0,1-4.33-5.59h0a5,5,0,0,1,5.59-4.33h0a5,5,0,0,1,4.33,5.6h0a5,5,0,0,1-4.95,4.36h0A4.49,4.49,0,0,1,443.93,252.53ZM128.35,238.08a5,5,0,0,1,4.67-5.31h0a5,5,0,0,1,5.31,4.67h0a5,5,0,0,1-4.66,5.31h-.33A5,5,0,0,1,128.35,238.08Zm312.47-10.5c0-.06,0-.11,0-.17h0s0-.1,0-.16h0a5,5,0,0,1,5-5h0a5,5,0,0,1,5,5h0v.18h0v.17h0a5,5,0,0,1-5,5h0A5,5,0,0,1,440.82,227.58ZM133,222.71a5,5,0,0,1-4.68-5.3h0a5,5,0,0,1,5.3-4.68h0a5,5,0,0,1,4.69,5.3h0a5,5,0,0,1-5,4.69H133Zm306.55-14.82a5,5,0,0,1,4.31-5.6h0a5,5,0,0,1,5.6,4.32h0a5,5,0,0,1-4.31,5.6h0a4.82,4.82,0,0,1-.65,0h0A5,5,0,0,1,439.56,207.89ZM134.9,202.75a5,5,0,0,1-4-5.85h0a5,5,0,0,1,5.86-4h0a5,5,0,0,1,4,5.86h0a5,5,0,0,1-4.9,4.05h0A5,5,0,0,1,134.9,202.75Zm300.93-13.89a5,5,0,0,1,3.56-6.11h0a5,5,0,0,1,6.11,3.56h0a5,5,0,0,1-3.56,6.11h0a4.75,4.75,0,0,1-1.28.17h0A5,5,0,0,1,435.83,188.86ZM139.32,183.2a5,5,0,0,1-3.18-6.32h0a5,5,0,0,1,6.32-3.17h0a5,5,0,0,1,3.18,6.31h0a5,5,0,0,1-4.75,3.43h0A5,5,0,0,1,139.32,183.2Zm290.37-12.73a5,5,0,0,1,2.74-6.52h0A5,5,0,0,1,439,166.7h0a5,5,0,0,1-2.75,6.51h0a4.79,4.79,0,0,1-1.88.38h0A5,5,0,0,1,429.69,170.47Zm-283.46-6.1a5,5,0,0,1-2.34-6.67h0a5,5,0,0,1,6.68-2.34h0A5,5,0,0,1,152.9,162h0a5,5,0,0,1-4.51,2.83h0A4.93,4.93,0,0,1,146.23,164.37Zm275-11.34a5,5,0,0,1,1.89-6.81h0a5,5,0,0,1,6.81,1.88h0a5,5,0,0,1-1.88,6.82h0a5,5,0,0,1-2.47.65h0A5,5,0,0,1,421.23,153ZM155.5,146.59a5,5,0,0,1-1.46-6.92h0A5,5,0,0,1,161,138.2h0a5,5,0,0,1,1.46,6.92h0a5,5,0,0,1-4.2,2.28h0A5,5,0,0,1,155.5,146.59Zm255.11-9.78a5,5,0,0,1,1-7h0a5,5,0,0,1,7,1h0a5,5,0,0,1-1,7h0a5,5,0,0,1-3,1h0A5,5,0,0,1,410.61,136.81ZM167,130.14a5,5,0,0,1-.57-7h0a5,5,0,0,1,7-.57h0a5,5,0,0,1,.57,7h0a5,5,0,0,1-3.81,1.76h0A5,5,0,0,1,167,130.14Zm231-8.07a5,5,0,0,1,.11-7.07h0a5,5,0,0,1,7.06.1h0a5,5,0,0,1-.11,7.07h0a5,5,0,0,1-3.48,1.41h0A5,5,0,0,1,398,122.07Zm-217.56-6.78a5,5,0,0,1,.33-7.07h0a5,5,0,0,1,7.06.33h0a5,5,0,0,1-.33,7.07h0a5,5,0,0,1-3.36,1.3h0A5,5,0,0,1,180.44,115.29ZM383.62,109a5,5,0,0,1-.79-7h0a5,5,0,0,1,7-.8h0a5,5,0,0,1,.8,7h0a5,5,0,0,1-3.92,1.89h0A5,5,0,0,1,383.62,109Zm-187.94-6.77a5,5,0,0,1,1.22-7h0a5,5,0,0,1,7,1.22h0a5,5,0,0,1-1.23,7h0a5,5,0,0,1-2.86.9h0A5,5,0,0,1,195.68,102.27ZM367.7,98h0A5,5,0,0,1,366,91.09h0a5,5,0,0,1,6.87-1.69h0a5,5,0,0,1,1.69,6.87h0a5,5,0,0,1-4.29,2.41h0A5,5,0,0,1,367.7,98ZM212.45,91.3a5,5,0,0,1,2.11-6.75h0a5,5,0,0,1,6.75,2.11h0a5,5,0,0,1-2.11,6.75h0a5,5,0,0,1-2.32.57h0A5,5,0,0,1,212.45,91.3Zm138-2.31a5,5,0,0,1-2.55-6.59h0a5,5,0,0,1,6.59-2.55h0a5,5,0,0,1,2.55,6.59h0a5,5,0,0,1-4.57,3h0A5,5,0,0,1,350.49,89Zm-120-6.42a5,5,0,0,1,3-6.42h0a5,5,0,0,1,6.42,2.95h0a5,5,0,0,1-3,6.42h0a4.81,4.81,0,0,1-1.73.32h0A5,5,0,0,1,230.49,82.57Zm101.78-.25a5,5,0,0,1-3.38-6.2h0a5,5,0,0,1,6.2-3.39h0a5,5,0,0,1,3.38,6.21h0a5,5,0,0,1-4.79,3.59h0A5,5,0,0,1,332.27,82.32Zm-82.76-6.09a5,5,0,0,1,3.76-6h0a5,5,0,0,1,6,3.76h0a5,5,0,0,1-3.76,6h0a4.76,4.76,0,0,1-1.12.13h0A5,5,0,0,1,249.51,76.23Zm63.84,1.83a5,5,0,0,1-4.15-5.73h0a5,5,0,0,1,5.72-4.15h0a5,5,0,0,1,4.16,5.72h0a5,5,0,0,1-4.94,4.22h0A5.35,5.35,0,0,1,313.35,78.06Zm-44.16-5.67a5,5,0,0,1,4.49-5.46h0a5,5,0,0,1,5.46,4.5h0a5,5,0,0,1-4.49,5.46h0l-.49,0h0A5,5,0,0,1,269.19,72.39ZM294,76.24h0a5,5,0,0,1-4.85-5.14h0a5,5,0,0,1,5.15-4.85h0a5,5,0,0,1,4.85,5.15h0a5,5,0,0,1-5,4.85H294Z"/></g></svg>