<?xml version="1.0" encoding="iso-8859-1"?>
<!-- Generator: Adobe Illustrator 19.0.0, SVG Export Plug-In . SVG Version: 6.00 Build 0)  -->
<svg version="1.1" id="Capa_1" xmlns="http://www.w3.org/2000/svg" xmlns:xlink="http://www.w3.org/1999/xlink" x="0px" y="0px"
	 viewBox="0 0 512.043 512.043" style="enable-background:new 0 0 512.043 512.043;" xml:space="preserve">
<g>
	<g>
		<path d="M394.686,277.376c-64.683,0-117.333,52.629-117.333,117.333s52.651,117.333,117.333,117.333
			s117.333-52.629,117.333-117.333S459.369,277.376,394.686,277.376z M394.686,490.709c-52.928,0-96-43.072-96-96s43.072-96,96-96
			s96,43.072,96,96S447.614,490.709,394.686,490.709z"/>
	</g>
</g>
<g>
	<g>
		<path d="M444.862,408.512c-4.16-4.16-10.923-4.16-15.083,0l-24.427,24.427V330.709c0-5.888-4.779-10.667-10.667-10.667
			s-10.667,4.779-10.667,10.667v102.272l-24.469-24.469c-4.16-4.16-10.923-4.16-15.083,0c-4.16,4.16-4.16,10.923,0,15.083
			l42.667,42.667c0.363,0.341,0.811,0.491,1.195,0.789c0.725,0.555,1.429,1.152,2.283,1.493c1.301,0.533,2.688,0.832,4.075,0.832
			s2.773-0.277,4.075-0.832c1.323-0.555,2.517-1.365,3.52-2.368l42.581-42.581C449.022,419.435,449.022,412.672,444.862,408.512z"/>
	</g>
</g>
<g>
	<g>
		<path d="M494.526,273.408L447.849,8.853c-1.024-5.76-6.571-9.685-12.245-8.661l-133.76,22.293L32.915,0.064
			c-3.072-0.341-5.739,0.704-7.893,2.581c-2.176,1.899-3.499,4.587-3.648,7.467l-21.333,384c-0.32,5.653,3.819,10.581,9.451,11.2
			l93.205,10.368l4.16,23.552c0.917,5.163,5.397,8.811,10.475,8.811c0.576,0,1.195-0.043,1.749-0.149l129.643-21.611
			c5.803-0.96,9.749-6.464,8.768-12.267c-0.981-5.824-6.592-9.792-12.267-8.768l-119.232,19.861L65.705,83.456l362.965-60.48
			l44.864,254.144c1.045,5.803,6.677,9.707,12.352,8.64C491.667,284.736,495.55,279.211,494.526,273.408z M51.603,64.192
			c-2.816,0.469-5.312,2.069-6.955,4.373s-2.283,5.205-1.792,8l55.979,317.205l-76.928-8.555l20.16-362.965L216.19,36.757
			L51.603,64.192z"/>
	</g>
</g>
<g>
</g>
<g>
</g>
<g>
</g>
<g>
</g>
<g>
</g>
<g>
</g>
<g>
</g>
<g>
</g>
<g>
</g>
<g>
</g>
<g>
</g>
<g>
</g>
<g>
</g>
<g>
</g>
<g>
</g>
</svg>
