<?xml version="1.0" ?><svg viewBox="0 0 512 512" xmlns="http://www.w3.org/2000/svg"><defs><style>.cls-1{fill:#3f456b;}</style></defs><title/><g id="Lines"><path class="cls-1" d="M448,439H65a5,5,0,0,1,0-10H448a5,5,0,0,1,0,10Z"/><path class="cls-1" d="M487,471H27a15,15,0,0,1-15-15V268a15,15,0,0,1,15-15H487a15,15,0,0,1,15,15V456A15,15,0,0,1,487,471ZM27,263a5,5,0,0,0-5,5V456a5,5,0,0,0,5,5H487a5,5,0,0,0,5-5V268a5,5,0,0,0-5-5Z"/><path class="cls-1" d="M83.31,502h-28C49,502,44,495.41,44,487V466a5,5,0,0,1,10,0v21c0,2.79,1,4.58,1.58,5H83.15c.59-.34,1.85-2.15,1.85-5V466a5,5,0,0,1,10,0v21C95,495.27,89.76,502,83.31,502Z"/><path class="cls-1" d="M459.65,502H431.71c-6.46,0-11.71-6.73-11.71-15V466a5,5,0,0,1,10,0v21c0,2.85,1.28,4.66,1.86,5h27.57c.53-.42,1.57-2.22,1.57-5V466a5,5,0,0,1,10,0v21C471,495.41,466,502,459.65,502Z"/><path class="cls-1" d="M487,232H27a15,15,0,0,1-15-15V27A15,15,0,0,1,27,12H487a15,15,0,0,1,15,15V217A15,15,0,0,1,487,232ZM27,22a5,5,0,0,0-5,5V217a5,5,0,0,0,5,5H487a5,5,0,0,0,5-5V27a5,5,0,0,0-5-5Z"/><path class="cls-1" d="M83.31,263h-28C49,263,44,256.41,44,248V227a5,5,0,0,1,10,0v21c0,2.79,1,4.58,1.58,5H83.15c.59-.34,1.85-2.15,1.85-5V227a5,5,0,0,1,10,0v21C95,256.27,89.76,263,83.31,263Z"/><path class="cls-1" d="M459.65,263H431.71c-6.46,0-11.71-6.73-11.71-15V227a5,5,0,0,1,10,0v21c0,2.85,1.28,4.66,1.86,5h27.57c.53-.42,1.57-2.22,1.57-5V227a5,5,0,0,1,10,0v21C471,256.41,466,263,459.65,263Z"/><path class="cls-1" d="M412.59,132a39.6,39.6,0,1,1,39.6-39.6A39.65,39.65,0,0,1,412.59,132Zm0-69.2a29.6,29.6,0,1,0,29.6,29.6A29.64,29.64,0,0,0,412.59,62.82Z"/><path class="cls-1" d="M320,127H65a5,5,0,0,1-5-5V58a5,5,0,0,1,5-5H320a5,5,0,0,1,5,5v64A5,5,0,0,1,320,127ZM70,117H315V63H70Z"/><path class="cls-1" d="M273,382H65a5,5,0,0,1-5-5V297a5,5,0,0,1,5-5H273a5,5,0,0,1,5,5v80A5,5,0,0,1,273,382ZM70,372H268V302H70Z"/><path class="cls-1" d="M224.36,200.85a24.41,24.41,0,1,1,24.41-24.41A24.45,24.45,0,0,1,224.36,200.85Zm0-38.82a14.41,14.41,0,1,0,14.41,14.41A14.43,14.43,0,0,0,224.36,162Z"/><path class="cls-1" d="M285.76,200.85a24.41,24.41,0,1,1,24.41-24.41A24.45,24.45,0,0,1,285.76,200.85Zm0-38.82a14.41,14.41,0,1,0,14.41,14.41A14.43,14.43,0,0,0,285.76,162Z"/><path class="cls-1" d="M321.76,336.85a24.41,24.41,0,1,1,24.41-24.41A24.45,24.45,0,0,1,321.76,336.85Zm0-38.82a14.41,14.41,0,1,0,14.41,14.41A14.43,14.43,0,0,0,321.76,298Z"/><path class="cls-1" d="M366.17,193.72c-12.3,0-18.8-7.39-19.18-7.83a5,5,0,0,1,7.57-6.54c.37.4,6.35,6.68,18.43,3.34a27.25,27.25,0,0,1-5.81-8.37,17,17,0,0,1,.13-13.95,15,15,0,0,1,9.63-8.2c11.05-3.17,18.69,2.39,21.36,9.3,2.18,5.65,1.45,13.08-3.75,19.5l.65,0c6.07-.35,12.1-2.38,18.48-4.54,10.43-3.52,21.22-7.16,33.24-3.67a34.77,34.77,0,0,1,14.25,8.73,5,5,0,0,1-7.16,7,25.08,25.08,0,0,0-9.87-6.11c-9-2.62-17.88.38-27.26,3.55-6.73,2.27-13.68,4.62-21.1,5.05a31.26,31.26,0,0,1-12.13-1.65A40,40,0,0,1,366.17,193.72ZM383,161.28a12,12,0,0,0-3.31.5,5,5,0,0,0-3.32,2.81,7.12,7.12,0,0,0-.06,5.65,17.55,17.55,0,0,0,6.82,7.76c5.57-4,7.25-9.27,5.84-12.93A5.94,5.94,0,0,0,383,161.28Z"/><path class="cls-1" d="M172.19,410.5h-1a5,5,0,0,1,0-10h1a5,5,0,1,1,0,10Zm-21,0h-1a5,5,0,0,1,0-10h1a5,5,0,1,1,0,10Zm-21,0h-1a5,5,0,0,1,0-10h1a5,5,0,1,1,0,10Zm-21,0h-1a5,5,0,0,1,0-10h1a5,5,0,1,1,0,10Zm-21,0h-1a5,5,0,0,1,0-10h1a5,5,0,0,1,0,10Zm-21,0h-1a5,5,0,0,1,0-10h1a5,5,0,0,1,0,10Z"/><path class="cls-1" d="M109.19,183.5h-1a5,5,0,0,1,0-10h1a5,5,0,0,1,0,10Zm-21,0h-1a5,5,0,0,1,0-10h1a5,5,0,0,1,0,10Zm-21,0h-1a5,5,0,0,1,0-10h1a5,5,0,0,1,0,10Z"/><path class="cls-1" d="M320,361h-1a5,5,0,0,1,0-10h1a5,5,0,0,1,0,10Z"/></g><g id="Outline"><path class="cls-1" d="M448,383H379a5,5,0,0,1,0-10h69a5,5,0,0,1,0,10Z"/><path class="cls-1" d="M448,356H379a5,5,0,0,1,0-10h69a5,5,0,0,1,0,10Z"/><path class="cls-1" d="M448,330H379a5,5,0,0,1,0-10h69a5,5,0,0,1,0,10Z"/><path class="cls-1" d="M448,303H379a5,5,0,0,1,0-10h69a5,5,0,0,1,0,10Z"/><path class="cls-1" d="M468.84,100.58a5,5,0,0,1-5-5,51.25,51.25,0,1,0-102.5,0,5,5,0,0,1-10,0,61.25,61.25,0,0,1,122.5,0A5,5,0,0,1,468.84,100.58Z"/><path class="cls-1" d="M247,329H90a5,5,0,0,1,0-10H247a5,5,0,0,1,0,10Z"/><path class="cls-1" d="M203,355H90a5,5,0,0,1,0-10H203a5,5,0,0,1,0,10Z"/><path class="cls-1" d="M103,125a5,5,0,0,1-5-5V105a5,5,0,0,1,10,0v15A5,5,0,0,1,103,125Z"/><path class="cls-1" d="M129,125a5,5,0,0,1-5-5V105a5,5,0,0,1,10,0v15A5,5,0,0,1,129,125Z"/><path class="cls-1" d="M154,125a5,5,0,0,1-5-5V97a5,5,0,0,1,10,0v23A5,5,0,0,1,154,125Z"/><path class="cls-1" d="M180,125a5,5,0,0,1-5-5V97a5,5,0,0,1,10,0v23A5,5,0,0,1,180,125Z"/><path class="cls-1" d="M205,125a5,5,0,0,1-5-5V82a5,5,0,0,1,10,0v38A5,5,0,0,1,205,125Z"/><path class="cls-1" d="M231,125a5,5,0,0,1-5-5V97a5,5,0,0,1,10,0v23A5,5,0,0,1,231,125Z"/><path class="cls-1" d="M256,125a5,5,0,0,1-5-5V97a5,5,0,0,1,10,0v23A5,5,0,0,1,256,125Z"/><path class="cls-1" d="M282,125a5,5,0,0,1-5-5V105a5,5,0,0,1,10,0v15A5,5,0,0,1,282,125Z"/></g></svg>