<?xml version="1.0" ?><svg viewBox="0 0 512 512" xmlns="http://www.w3.org/2000/svg"><defs><style>.cls-1{fill:#3f456b;}</style></defs><title/><g id="Lines"><path class="cls-1" d="M274,501H47a35,35,0,0,1-35-35V174a35,35,0,0,1,35-35H274a35,35,0,0,1,35,35V466A35,35,0,0,1,274,501ZM47,149a25,25,0,0,0-25,25V466a25,25,0,0,0,25,25H274a25,25,0,0,0,25-25V174a25,25,0,0,0-25-25Z"/><path class="cls-1" d="M224,149a5,5,0,0,1-5-5V94a10,10,0,0,0-10-10H111a10,10,0,0,0-10,10v50a5,5,0,0,1-10,0V94a20,20,0,0,1,20-20h98a20,20,0,0,1,20,20v50A5,5,0,0,1,224,149Z"/><path class="cls-1" d="M192,84a5,5,0,0,1-5-5V30a10,10,0,0,0-10-10H143a10,10,0,0,0-10,10V79a5,5,0,0,1-10,0V30a20,20,0,0,1,20-20h34a20,20,0,0,1,20,20V79A5,5,0,0,1,192,84Z"/><path class="cls-1" d="M161,46h-1a5,5,0,0,1,0-10h1a5,5,0,0,1,0,10Z"/><path class="cls-1" d="M272,292H241a5,5,0,0,1,0-10h31c.21,0,21.87-.21,27.44-12.56a5,5,0,0,1,9.12,4.12C300.32,291.79,273.15,292,272,292Z"/><path class="cls-1" d="M82,292H48c-31.76,0-35.75-18.75-35.91-19.55l9.82-1.9,0-.11C22,270.91,25,282,48,282H82a5,5,0,0,1,0,10Z"/><path class="cls-1" d="M241,420H82a5,5,0,0,1-5-5V207a5,5,0,0,1,5-5H241a5,5,0,0,1,5,5V415A5,5,0,0,1,241,420ZM87,410H236V212H87Z"/><path class="cls-1" d="M306.91,338.63c-.84,0-1.67,0-2.5,0a5,5,0,0,1,.09-10h.09c.77,0,1.54,0,2.32,0a119.88,119.88,0,1,0-79.83-209.31,5,5,0,1,1-6.66-7.46,129.66,129.66,0,0,1,86.49-33c71.61,0,129.88,58.26,129.88,129.88S378.52,338.63,306.91,338.63Z"/></g><g id="Outline"><path class="cls-1" d="M307,59.8a5,5,0,0,1-5-5V14a5,5,0,0,1,10,0V54.8A5,5,0,0,1,307,59.8Z"/><path class="cls-1" d="M501,213H460.2a5,5,0,0,1,0-10H501a5,5,0,0,1,0,10Z"/><path class="cls-1" d="M444.18,350.18a5,5,0,0,1-3.54-1.47l-28.85-28.84a5,5,0,0,1,7.08-7.08l28.84,28.85a5,5,0,0,1-3.53,8.54Z"/><path class="cls-1" d="M415.33,104.67a5,5,0,0,1-3.54-8.54l28.85-28.84a5,5,0,0,1,7.07,7.07l-28.84,28.85A5,5,0,0,1,415.33,104.67Z"/><path class="cls-1" d="M249.1,71.88a5,5,0,0,1-4.63-3.12l-9-22.05a5,5,0,1,1,9.26-3.77l9,22a5,5,0,0,1-4.63,6.89Z"/><path class="cls-1" d="M373.93,378.22a5,5,0,0,1-4.63-3.11L359.47,351a5,5,0,0,1,9.26-3.78l9.83,24.12a5,5,0,0,1-4.63,6.89Z"/><path class="cls-1" d="M449.31,155a5,5,0,0,1-1.88-9.63l22.05-9a5,5,0,1,1,3.77,9.26l-22.05,9A5,5,0,0,1,449.31,155Z"/><path class="cls-1" d="M470.23,282.31a4.94,4.94,0,0,1-1.94-.39l-24-10.11a5,5,0,0,1,3.88-9.21l24,10.1a5,5,0,0,1-1.94,9.61Z"/><path class="cls-1" d="M365.7,71.18a4.9,4.9,0,0,1-1.93-.39,5,5,0,0,1-2.67-6.55l9.24-21.95a5,5,0,1,1,9.21,3.88l-9.24,22A5,5,0,0,1,365.7,71.18Z"/><path class="cls-1" d="M204,261H118a5,5,0,0,1,0-10h86a5,5,0,0,1,0,10Z"/><path class="cls-1" d="M204,298.67H118a5,5,0,0,1,0-10h86a5,5,0,0,1,0,10Z"/><path class="cls-1" d="M204,336.33H118a5,5,0,0,1,0-10h86a5,5,0,0,1,0,10Z"/><path class="cls-1" d="M204,374H118a5,5,0,0,1,0-10h86a5,5,0,0,1,0,10Z"/></g></svg>