<?xml version="1.0" ?><svg id="Lines" viewBox="0 0 512 512" xmlns="http://www.w3.org/2000/svg"><defs><style>.cls-1{fill:#3f456b;}</style></defs><title/><path class="cls-1" d="M50.57,501.93a38.51,38.51,0,0,1-27.24-65.74L114,345.55A213.09,213.09,0,0,1,440.09,73.91,213.08,213.08,0,0,1,289.42,437.66a211.39,211.39,0,0,1-121-37.65L77.81,490.67A38.45,38.45,0,0,1,50.57,501.93ZM289.42,21.5c-112,0-203.08,91.1-203.08,203.08a201.66,201.66,0,0,0,38.22,118.61,5,5,0,0,1-.52,6.46L30.41,443.27a28.51,28.51,0,0,0,40.32,40.32L164.36,390a5,5,0,0,1,6.46-.52,201.51,201.51,0,0,0,118.6,38.22c112,0,203.08-91.1,203.08-203.08S401.4,21.5,289.42,21.5Z"/><path class="cls-1" d="M50.44,467.06a5,5,0,0,1-3.54-8.53L49,456.4a5,5,0,0,1,7.08,7.07L54,465.6A5,5,0,0,1,50.44,467.06Z"/><path class="cls-1" d="M186.77,328.63c-9.19,0-18.12-3.64-26.63-10.85-9.93-8.42-15.31-18.26-16-29.26-.87-14.12,6.36-26.27,10.66-32.15-13-14-13.63-28.52-11.72-38.56a52.42,52.42,0,0,1,5.19-14.59c-8.43-4.25-24.18-14.08-29.87-30.37-4.12-11.83-2.17-24.58,5.8-37.92,7.77-13,18.25-21.13,31.13-24.15,18.77-4.4,37.43,3.35,46,7.78,11.65-20.81,33-24.9,42.56-25.66,1.05-8.23,4.73-25.4,17.5-36.79,9.27-8.27,21.39-11.84,36-10.59,15.41,1.31,27.25,7,35.19,16.83,9.11,11.31,10.61,25.19,10.64,32.91,20.87-.17,33,9,39.72,17a50,50,0,0,1,8.47,14.83c7.63-1.41,22.82-2.78,36.53,4.74,11.12,6.11,18.81,16.66,22.85,31.37s2.82,27.79-3.73,38.5c-7.94,13-21.55,19-28.77,21.44,1.91,11.47.3,21.36-4.78,29.47-8.21,13.1-22.51,16.36-23.12,16.49a5,5,0,0,1-2.16-9.76c.24-.06,11-2.66,16.87-12.14,4.23-6.82,5.08-15.71,2.51-26.44a5,5,0,0,1,.64-3.84,5,5,0,0,1,3.2-2.22c.17,0,18.48-4.08,27.12-18.28,5-8.25,5.89-18.54,2.58-30.58s-9.33-20.44-18-25.21c-15.1-8.33-33.58-2.89-33.76-2.83a5,5,0,0,1-6.37-3.83c-.26-1.27-6.84-31.57-44.68-28.47A5,5,0,0,1,333,99.85c0-.17,2.17-18.39-8.26-31.28-6.16-7.62-15.65-12-28.2-13.09-11.75-1-21.32,1.71-28.46,8.06-13.74,12.2-14.61,34.13-14.62,34.35a5,5,0,0,1-1.59,3.5,4.91,4.91,0,0,1-3.6,1.34c-1.18,0-29.27-.65-40.22,24.75a5,5,0,0,1-7.29,2.23c-.22-.14-22.39-14.1-43.23-9.18-10.12,2.39-18.46,9-24.78,19.54s-8,20.59-4.93,29.48c6.22,17.84,29.17,26.68,29.41,26.77a5,5,0,0,1,2.21,7.7c-.77,1-18.83,25.8,5.42,48.32a5,5,0,0,1,.28,7c-.11.12-12,13.35-11,28.58.52,8.15,4.72,15.61,12.47,22.18s15.73,9.34,23.7,8.23c16.42-2.3,28.41-19.93,28.53-20.11a5,5,0,0,1,8.92,1.25,22.07,22.07,0,0,0,10.94,11.81c7.25,3.45,16.74,3,28.19-1.24a5,5,0,0,1,3.5,9.37c-14.19,5.3-26.37,5.57-36.2.79a31.82,31.82,0,0,1-12-10.19c-5.88,6.59-16.65,16.26-30.46,18.21A35,35,0,0,1,186.77,328.63Z"/><path class="cls-1" d="M231,401.47c-20.13,0-36.51-16.13-36.51-36s16.38-36,36.51-36,36.51,16.13,36.51,36S251.13,401.47,231,401.47Zm0-61.94c-14.62,0-26.51,11.65-26.51,26s11.89,26,26.51,26,26.51-11.65,26.51-26S245.62,339.53,231,339.53Z"/><path class="cls-1" d="M316.93,389.38a40.92,40.92,0,0,1-39-28.54L242.58,248.9a40.9,40.9,0,0,1,26.64-51.27L325.14,180a40.91,40.91,0,0,1,51.26,26.65l35.37,111.94h0a40.89,40.89,0,0,1-26.64,51.26l-55.92,17.67A40.65,40.65,0,0,1,316.93,389.38Zm20.5-201.32a30.84,30.84,0,0,0-9.28,1.44l-55.92,17.67a30.89,30.89,0,0,0-20.12,38.71l35.38,112A30.89,30.89,0,0,0,326.2,378l55.92-17.67a30.89,30.89,0,0,0,20.12-38.71L366.86,209.62A30.91,30.91,0,0,0,337.43,188.06Z"/></svg>