<?xml version="1.0" ?><svg viewBox="0 0 512 512" xmlns="http://www.w3.org/2000/svg"><defs><style>.cls-1{fill:#3f456b;}</style></defs><title/><g id="Lines"><path class="cls-1" d="M145.12,357.48a21.47,21.47,0,0,1-21.51-21.37V79.51a21.51,21.51,0,0,1,43,0l-.07,256.6A21.43,21.43,0,0,1,145.12,357.48Zm0-289.34a11.46,11.46,0,0,0-11.51,11.37v256.6a11.48,11.48,0,0,0,22.95,0h0l.07-256.6A11.45,11.45,0,0,0,145.12,68.14Z"/><path class="cls-1" d="M200.93,404.43a21.46,21.46,0,0,1-21.5-21.37V32.56a21.51,21.51,0,0,1,43,0l-.07,350.5A21.43,21.43,0,0,1,200.93,404.43Zm0-383.24a11.45,11.45,0,0,0-11.5,11.37v350.5a11.47,11.47,0,0,0,22.94,0h0l.07-350.5A11.45,11.45,0,0,0,200.93,21.19Z"/><path class="cls-1" d="M89.31,310.53A21.47,21.47,0,0,1,67.8,289.16V126.46a21.51,21.51,0,0,1,43,0l-.07,162.7A21.43,21.43,0,0,1,89.31,310.53Zm0-195.44A11.46,11.46,0,0,0,77.8,126.46v162.7a11.48,11.48,0,0,0,23,0h0l.07-162.7A11.46,11.46,0,0,0,89.31,115.09Z"/><path class="cls-1" d="M33.5,275.92A21.47,21.47,0,0,1,12,254.55V163.83a21.51,21.51,0,0,1,43,0l-.07,90.72A21.43,21.43,0,0,1,33.5,275.92Zm0-123.46A11.45,11.45,0,0,0,22,163.83v90.72a11.48,11.48,0,0,0,23,0h0L45,163.83A11.45,11.45,0,0,0,33.5,152.46Z"/><path class="cls-1" d="M480,275.92a21.47,21.47,0,0,1-21.51-21.37V163.83a21.51,21.51,0,0,1,43,0l-.07,90.72A21.43,21.43,0,0,1,480,275.92Zm0-123.46a11.45,11.45,0,0,0-11.51,11.37v90.72a11.48,11.48,0,0,0,22.95,0h0l.07-90.72A11.45,11.45,0,0,0,480,152.46Z"/><path class="cls-1" d="M256.79,357.48a21.35,21.35,0,0,1-21.28-21.37l-.15-256.6a21.39,21.39,0,0,1,42.78,0v256.6A21.39,21.39,0,0,1,256.79,357.48Zm0-289.34a11.41,11.41,0,0,0-11.43,11.37l.15,256.6a11.32,11.32,0,1,0,22.63,0V79.51A11.37,11.37,0,0,0,256.79,68.14Z"/><path class="cls-1" d="M312.6,276.87a21.29,21.29,0,0,1-21.28-21.37l-.15-95.62A21.42,21.42,0,0,1,312.6,138.5,21.39,21.39,0,0,1,334,159.87V255.5A21.38,21.38,0,0,1,312.6,276.87Zm0-128.37a11.39,11.39,0,0,0-8.08,3.34,11.26,11.26,0,0,0-3.35,8l.15,95.63a11.37,11.37,0,0,0,3.3,8.06,11.18,11.18,0,0,0,8,3.31A11.38,11.38,0,0,0,324,255.5V159.87A11.38,11.38,0,0,0,312.6,148.5Z"/><path class="cls-1" d="M368.41,357.48a21.35,21.35,0,0,1-21.28-21.37L347,79.51a21.39,21.39,0,0,1,42.78,0v256.6A21.39,21.39,0,0,1,368.41,357.48Zm0-289.34A11.41,11.41,0,0,0,357,79.51l.15,256.6a11.32,11.32,0,1,0,22.63,0V79.51A11.37,11.37,0,0,0,368.41,68.14Z"/><path class="cls-1" d="M424.22,310.53a21.3,21.3,0,0,1-21.28-21.37l-.15-162.69a21.39,21.39,0,0,1,42.78,0v162.7A21.39,21.39,0,0,1,424.22,310.53Zm0-195.44a11.4,11.4,0,0,0-8.08,3.34,11.26,11.26,0,0,0-3.35,8l.15,162.7a11.33,11.33,0,0,0,3.3,8,11.16,11.16,0,0,0,8,3.32,11.37,11.37,0,0,0,11.35-11.37V126.46A11.38,11.38,0,0,0,424.22,115.09Z"/></g><g id="Outline"><path class="cls-1" d="M413.1,500.81c-12.2,0-17.82-10-20.38-18.43s-3.81-20.44-3.81-37.4v-6.35a6.08,6.08,0,0,1,0-.61c.15-1.35.15-5.79-1.81-8-.58-.65-1.65-1.51-4.26-1.51s-3.93.94-4.6,1.66c-2.18,2.32-2.42,6.79-2.37,8,.16,1.69.82,11.18-4.63,17.26a14.8,14.8,0,0,1-11.4,4.8A14.48,14.48,0,0,1,349,455.83c-3.18-3.37-4.44-7.9-4.93-11.41H319.4a5,5,0,0,1-5-5.31l.44-7c0-32.44-4.13-45.68-14.19-45.68-9.69,0-14.2,14.56-14.2,45.83V445c0,17-1.21,28.84-3.82,37.4s-8.17,18.43-20.38,18.43-17.82-10-20.38-18.43-3.81-20.44-3.81-37.4v-6.35a6.08,6.08,0,0,1,0-.61c.15-1.35.15-5.79-1.81-8-.58-.65-1.65-1.51-4.26-1.51s-3.93.94-4.6,1.66c-2.18,2.32-2.43,6.79-2.37,8,.16,1.69.81,11.18-4.63,17.26a14.83,14.83,0,0,1-11.4,4.8,14.46,14.46,0,0,1-10.83-4.47c-3.19-3.38-4.46-7.94-4.94-11.45l-25.66-.24a5,5,0,0,1-4.95-5.15l.14-4.58c0-21-3.6-28.08-14.2-28.08-8.52,0-14.19,4.79-14.19,28.15v8.29c0,10.43,0,38.15-24.2,38.15S86,453.2,86,442.77v-4.14a3.07,3.07,0,0,1,.08-.87,3.58,3.58,0,0,0-.65-2.48c-.84-1-2.78-1.49-5.47-1.49s-4.89.58-5.95,1.69a4.2,4.2,0,0,0-1,2.7,15,15,0,0,1-3.13,11.21c-2,2.33-5.81,5.11-12.89,5.11-6.57,0-10.32-2.58-12.31-4.75a14.16,14.16,0,0,1-3.1-5.61H16.5a5,5,0,0,1,0-10H45.93a5,5,0,0,1,5,5.45h0A5.46,5.46,0,0,0,52.08,443c.92,1,2.57,1.47,4.89,1.47,1.77,0,4.11-.26,5.22-1.53a5.25,5.25,0,0,0,.88-3.58,1.54,1.54,0,0,1,0-.3,14.15,14.15,0,0,1,3.54-10.29c3-3.33,7.54-5,13.39-5s10.36,1.73,13.2,5.14A13.51,13.51,0,0,1,96,439v3.81c0,23.36,5.68,28.15,14.2,28.15s14.2-4.79,14.2-28.15v-8.29c0-10.43,0-38.15,24.19-38.15,24,0,24.2,25.37,24.2,37.86l25.25.23a5,5,0,0,1,5,5.29c-.08,1.62.2,6.86,2.5,9.27A4.39,4.39,0,0,0,209,450.3a4.81,4.81,0,0,0,3.95-1.47c2.35-2.63,2.27-8.29,2.12-9.66a1.94,1.94,0,0,1,0-.24c-.06-1-.43-9.75,5.07-15.59a15.84,15.84,0,0,1,11.88-4.8c6.14,0,9.78,2.66,11.76,4.89,4.88,5.51,4.46,13.52,4.28,15.46V445c0,31.27,4.51,45.83,14.19,45.83s14.2-14.56,14.2-45.83V432.27c0-17,1.21-28.84,3.81-37.4s8.18-18.43,20.39-18.43c24.19,0,24.19,34.95,24.19,55.83,0,.11,0,.21,0,.31l-.11,1.84h24.11a5,5,0,0,1,5,5.29c-.08,1.62.2,6.86,2.5,9.27a4.39,4.39,0,0,0,3.54,1.32,4.81,4.81,0,0,0,3.95-1.47c2.36-2.63,2.27-8.29,2.12-9.66,0-.08,0-.16,0-.24-.06-1-.42-9.75,5.07-15.59a15.84,15.84,0,0,1,11.88-4.8c6.14,0,9.79,2.66,11.76,4.89,4.88,5.51,4.46,13.52,4.28,15.46V445c0,31.27,4.51,45.83,14.19,45.83s14.2-14.56,14.2-45.83V432.27c0-17,1.21-28.84,3.82-37.4s8.17-18.43,20.38-18.43c24.19,0,24.19,34.95,24.19,55.83v1.36H496a5,5,0,0,1,0,10H470.69a5,5,0,0,1-5-5v-6.36c0-32.55-4.11-45.83-14.19-45.83-9.69,0-14.2,14.56-14.2,45.83V445c0,17-1.21,28.84-3.82,37.4S425.31,500.81,413.1,500.81Z"/></g></svg>