<?xml version="1.0" ?><svg viewBox="0 0 512 512" xmlns="http://www.w3.org/2000/svg"><defs><style>.cls-1{fill:#3f456b;}</style></defs><title/><g id="Lines"><path class="cls-1" d="M496,138H401.26c-8.46,0-15.26-2.62-20.23-7.79-8.11-8.43-8.07-20.64-8-22.09V16h10v92.39c0,.07-.22,9.27,5.28,14.93,3,3.11,7.38,4.68,13,4.68H496Z"/><path class="cls-1" d="M472.68,468H364a5,5,0,0,1,0-10H472.68c11.75,0,21.32-10.6,21.32-23.62V135.62c0-11.37-10.55-24.31-14.62-28.33-.67-.68-62.23-63.27-75-76.09A38.83,38.83,0,0,0,378.68,20H159.05A23.34,23.34,0,0,0,136,43V265a5,5,0,0,1-10,0V43c0-17.89,15.13-33,33.05-33H378.59a48.77,48.77,0,0,1,32.82,14.13c12.84,12.85,74.43,75.47,75,76.1S504,117.8,504,135.62V434.38C504,452.92,490,468,472.68,468Z"/><path class="cls-1" d="M192,400.82A20.83,20.83,0,0,1,171.19,380V293.57a20.82,20.82,0,1,1,41.63,0V380A20.84,20.84,0,0,1,192,400.82Zm0-118.07a10.83,10.83,0,0,0-10.81,10.82V380a10.82,10.82,0,0,0,21.63,0V293.57A10.83,10.83,0,0,0,192,282.75Z"/><path class="cls-1" d="M191.89,459.3a23.17,23.17,0,1,1,23.45-23.17A23.34,23.34,0,0,1,191.89,459.3Zm0-36.34a13.17,13.17,0,1,0,13.45,13.17A13.33,13.33,0,0,0,191.89,423Z"/><path class="cls-1" d="M331.3,501c-.62,0-1.07,0-1.32,0H43.24c-2.26.12-20,.45-28.29-15.51-8-15.5,2-30.72,3.72-33.18l61.9-111.88,23-39,58.32-97.28.1-.15c.48-.67,11.85-16.58,30.23-16.58,20.54,0,30,16,30.71,17.31l139.2,241.08c1.37,2.13,13.55,21.93,1.6,39.22C353.51,499.78,336.5,501,331.3,501Zm-288.2-10H330.29l.17,0c.65,0,16.41.84,25.06-11.67,8.49-12.28-1.69-28-1.79-28.15l-.17-.26L214.22,209.54a25.87,25.87,0,0,0-22-12.18c-12.54,0-21,10.95-22,12.21l-58.1,96.91-23,38.92L27.1,457.66l-.21.28c-.08.1-8.7,12-3.05,22.91C29.4,491.63,42.24,491,42.78,491Z"/></g><g id="Outline"><path class="cls-1" d="M330.33,106H190a5,5,0,0,1,0-10H330.33a5,5,0,0,1,0,10Z"/><path class="cls-1" d="M330.33,154H190a5,5,0,0,1,0-10H330.33a5,5,0,0,1,0,10Z"/><path class="cls-1" d="M437,199H273a5,5,0,0,1,0-10H437a5,5,0,0,1,0,10Z"/><path class="cls-1" d="M437,247H305a5,5,0,0,1,0-10H437a5,5,0,0,1,0,10Z"/><path class="cls-1" d="M437,292H340a5,5,0,0,1,0-10h97a5,5,0,0,1,0,10Z"/><path class="cls-1" d="M437,340H371a5,5,0,0,1,0-10h66a5,5,0,0,1,0,10Z"/><path class="cls-1" d="M437,386H383a5,5,0,0,1,0-10h54a5,5,0,0,1,0,10Z"/></g></svg>