<?xml version="1.0" ?><svg id="Lines" viewBox="0 0 512 512" xmlns="http://www.w3.org/2000/svg"><defs><style>.cls-1{fill:#3f456b;}</style></defs><title/><path class="cls-1" d="M80.5,500.5a5,5,0,0,1-5-5V62.84a11,11,0,0,0-22,0V495.5a5,5,0,0,1-10,0V62.84a21,21,0,0,1,42,0V495.5A5,5,0,0,1,80.5,500.5Z"/><path class="cls-1" d="M464.5,500.5a5,5,0,0,1-5-5V62.84a11,11,0,0,0-22,0V495.5a5,5,0,0,1-10,0V62.84a21,21,0,0,1,42,0V495.5A5,5,0,0,1,464.5,500.5Z"/><path class="cls-1" d="M496.5,500.5H16.5a5,5,0,0,1,0-10h480a5,5,0,0,1,0,10Z"/><path class="cls-1" d="M48.25,133H32.75a21.25,21.25,0,0,1,0-42.5h15.5a5,5,0,0,1,0,10H32.75a11.25,11.25,0,0,0,0,22.5h15.5a5,5,0,0,1,0,10Z"/><path class="cls-1" d="M431.5,133H80.75a5,5,0,0,1,0-10H431.5a5,5,0,0,1,0,10Z"/><path class="cls-1" d="M480.25,133h-15.5a5,5,0,0,1,0-10h15.5a11.25,11.25,0,0,0,0-22.5H464.5a5,5,0,0,1,0-10h15.75a21.25,21.25,0,0,1,0,42.5Z"/><path class="cls-1" d="M432.25,100.5H80.88a5,5,0,0,1,0-10H432.25a5,5,0,0,1,0,10Z"/><path class="cls-1" d="M256.56,222.85c-33,0-64.13-1.62-87.55-4.56-33.52-4.21-40.38-9.39-40.38-15.88s6.86-11.66,40.38-15.87c23.42-2.94,54.51-4.56,87.55-4.56s64.13,1.62,87.55,4.56c33.52,4.21,40.39,9.39,40.39,15.87s-6.87,11.67-40.39,15.88C320.69,221.23,289.6,222.85,256.56,222.85ZM141.12,202.41c4.08,1.63,13.39,4.22,34.11,6.55,22.37,2.51,51.25,3.89,81.33,3.89s59-1.38,81.33-3.89c20.72-2.33,30-4.92,34.11-6.55-4.07-1.62-13.39-4.22-34.11-6.54-22.36-2.51-51.25-3.89-81.33-3.89s-59,1.38-81.33,3.89C154.51,198.19,145.2,200.79,141.12,202.41ZM375,204h0Z"/><path class="cls-1" d="M256.5,330.89c-47.14,0-82.16-13.1-104.08-38.94-32-37.69-24.08-88.22-23.73-90.35a5,5,0,0,1,9.87,1.62h0c-.08.48-7.45,48.23,21.55,82.33,19.94,23.45,52.37,35.34,96.39,35.34S333,309,352.94,285.54c29-34.1,21.7-81.84,21.62-82.32a5,5,0,0,1,9.87-1.62c.35,2.14,8.2,52.66-23.81,90.35C338.68,317.79,303.64,330.89,256.5,330.89Z"/><path class="cls-1" d="M379.5,188.92a5,5,0,0,1-5-5c0-.29-.23-29.54-15-58.24C340,87.74,305.34,68.5,256.5,68.5c-34.16,0-61.73,9.6-82,28.53a5,5,0,0,1-6.83-7.3C189.85,69,219.72,58.5,256.5,58.5c66.07,0,97.41,34.23,112.08,62.94a151.19,151.19,0,0,1,15.92,62.48A5,5,0,0,1,379.5,188.92Z"/><path class="cls-1" d="M132.63,188.92h0a5,5,0,0,1-5-5,152.17,152.17,0,0,1,14.17-58,5,5,0,0,1,9,4.26A144.83,144.83,0,0,0,137.63,184,5,5,0,0,1,132.63,188.92Z"/><path class="cls-1" d="M256.5,500.5a29,29,0,1,1,29-29A29,29,0,0,1,256.5,500.5Zm0-48a19,19,0,1,0,19,19A19,19,0,0,0,256.5,452.5Z"/><path class="cls-1" d="M196.5,500.5a29,29,0,1,1,29-29A29,29,0,0,1,196.5,500.5Zm0-48a19,19,0,1,0,19,19A19,19,0,0,0,196.5,452.5Z"/><path class="cls-1" d="M316.5,500.5a29,29,0,1,1,29-29A29,29,0,0,1,316.5,500.5Zm0-48a19,19,0,1,0,19,19A19,19,0,0,0,316.5,452.5Z"/><path class="cls-1" d="M152,486a5,5,0,0,1-1.84-.35c-17.83-7.06-22.72-19.73-23.67-29.12-2.19-21.36,13.77-45.43,30.45-56.37a99.09,99.09,0,0,1,13.33-7.09,5,5,0,0,1,6.06,7.39c-4.53,6.83-5.73,12.28-3.57,16.19,3.31,6,13.82,8.42,20.26,8.27,6.88-.18,15.17-1,18.24-6.07,2.33-3.81,2.78-8.62,3.25-13.72.52-5.64,1.12-12,4.51-17.8,4.14-7.05,11.09-10.58,17.22-13.7A62,62,0,0,0,244.4,369c4.17-3,6.82-6,8.09-9.09a26,26,0,0,0,.93-8.49,5,5,0,0,1,4.67-8.65h0c12.7,4.07,21.32,12.18,24.29,22.84a29.41,29.41,0,0,1-6.14,27c-3.46,4-4.28,9-2.13,13.27,3.45,6.75,13.7,10,27.41,8.78,29.09-2.67,27-33.82,26.92-35.15a5,5,0,0,1,6.35-5.19,76.07,76.07,0,0,1,26.5,14.9c11.67,10.17,24.55,28.49,19.6,58-2.14,12.76-10.66,24.95-24.64,35.24a5,5,0,0,1-5.93-8.05c11.85-8.72,19-18.69,20.71-28.84,6.27-37.43-20.23-53.77-32.78-59.32a53.91,53.91,0,0,1-3,13.66c-3.75,10.23-12.5,22.82-32.83,24.69-25.84,2.37-34.66-9.14-37.24-14.2-4-7.81-2.61-17.39,3.52-24.39a19.33,19.33,0,0,0,4-17.69,21.41,21.41,0,0,0-9.46-12.18,34.5,34.5,0,0,1-1.56,7.58c-2,4.86-5.75,9.25-11.48,13.4a70.79,70.79,0,0,1-9.49,5.48c-5.38,2.74-10.47,5.32-13.13,9.85-2.26,3.85-2.71,8.61-3.17,13.66-.53,5.72-1.14,12.2-4.67,18-6.29,10.33-20.47,10.7-26.52,10.86-7.43.21-23.15-2.36-29.27-13.43a19.12,19.12,0,0,1-1.95-12.73c-13.76,9.22-27.38,29.57-25.63,46.75,1,9.65,6.85,16.66,17.41,20.84A5,5,0,0,1,152,486Z"/><path class="cls-1" d="M377,378.33a17.3,17.3,0,0,1-6.12-1.15c-7.91-3-15.52-12.66-13.54-26.89,3-21.84,23.53-32.59,24.41-33a5,5,0,0,1,3.84-.3,5,5,0,0,1,2.92,2.53c1.61,3.26,15.44,32.33,4.23,49.4C388.68,375,383,378.33,377,378.33Zm4.81-49.22c-5.13,3.87-13,11.48-14.57,22.55-1.17,8.41,2.72,14.49,7.16,16.16,3.61,1.36,7.24-.25,10-4.41C390,354.82,385.56,338.71,381.77,329.11Z"/></svg>