<?xml version="1.0" ?><svg viewBox="0 0 512 512" xmlns="http://www.w3.org/2000/svg"><defs><style>.cls-1{fill:#3f456b;}</style></defs><title/><g id="Lines"><path class="cls-1" d="M451.73,129.27H244.07a5,5,0,1,1,0-10H451.73a39.27,39.27,0,0,0,0-78.54H193a5,5,0,0,1,0-10H451.73a49.27,49.27,0,0,1,0,98.54Z"/><path class="cls-1" d="M242,500H46a35,35,0,0,1-35-35V365a35,35,0,0,1,35-35H242a35,35,0,0,1,35,35V465A35,35,0,0,1,242,500ZM46,340a25,25,0,0,0-25,25V465a25,25,0,0,0,25,25H242a25,25,0,0,0,25-25V365a25,25,0,0,0-25-25Z"/><path class="cls-1" d="M240,340a5,5,0,0,1-5-5V313a5,5,0,0,0-5-5H58a5,5,0,0,0-5,5v22a5,5,0,0,1-10,0V313a15,15,0,0,1,15-15H230a15,15,0,0,1,15,15v22A5,5,0,0,1,240,340Z"/><path class="cls-1" d="M496,500H304a5,5,0,0,1-5-5V159a5,5,0,0,1,5-5H496a5,5,0,0,1,5,5V495A5,5,0,0,1,496,500ZM309,490H491V164H309Z"/><path class="cls-1" d="M160,308a5,5,0,0,1-5-5V159c0-14.9,14-19.29,21.38-19.53h.11L223,139c1.36,0,13.05-.41,13.05-10.5s-9.54-11.37-11.18-11.5c-11.53,0-20.7-3.53-27.25-10.39-10.3-10.77-10.12-26-10.07-27.7V32c0-10.65-9.64-11.41-11-11.47h-66a59.47,59.47,0,0,0-.06,118.94c1.43,0,11,0,17.3,6.2A18.1,18.1,0,0,1,133,159V303a5,5,0,0,1-10,0V159a8.14,8.14,0,0,0-2.26-6.16c-3-2.9-8.47-3.41-10.14-3.38h-.13a69.47,69.47,0,0,1,0-138.94h66.22c7.2.21,20.81,5,20.81,21.46V79.23c0,.1-.39,12.48,7.35,20.53,4.63,4.8,11.4,7.24,20.15,7.24h.31c7.16.45,20.69,5.51,20.69,21.49,0,8.37-4.27,14.82-12,18.15A30.26,30.26,0,0,1,223,149l-46.33.47c-1.34.06-11.67.82-11.67,9.53V303A5,5,0,0,1,160,308Z"/><path class="cls-1" d="M455,468H348a15,15,0,0,1-15-15V201a15,15,0,0,1,15-15H455a15,15,0,0,1,15,15V453A15,15,0,0,1,455,468ZM348,196a5,5,0,0,0-5,5V453a5,5,0,0,0,5,5H455a5,5,0,0,0,5-5V201a5,5,0,0,0-5-5Z"/><path class="cls-1" d="M272,372H16a5,5,0,0,1,0-10H272a5,5,0,0,1,0,10Z"/><path class="cls-1" d="M272,468H16a5,5,0,0,1,0-10H272a5,5,0,0,1,0,10Z"/><path class="cls-1" d="M150.34,438.75a31.12,31.12,0,0,1-8.23-1.11c-6.85-1.85-12.18-6-17.34-10-6.28-4.86-11.7-9.06-18.84-8.51-10.09.77-16.07,10.19-18.74,15.74a5,5,0,0,1-9-4.33c6.22-12.94,15.81-20.53,27-21.38,11-.83,18.8,5.22,25.71,10.57,4.59,3.54,8.92,6.89,13.84,8.22a21.06,21.06,0,0,0,12.95-.49,35.82,35.82,0,0,1-3.32-3.06c-6.6-7-8.91-15.76-6.32-24.12,2.95-9.55,9.24-15.7,17.23-16.88a17.87,17.87,0,0,1,17.53,7.8c5.06,7.48,4.5,17.68-1.53,28a45.24,45.24,0,0,1-4.68,6.61c7.47,2,17,2.41,28.12-.39a5,5,0,1,1,2.45,9.69c-14.13,3.56-28.16,2.79-39.22-1.7A32.54,32.54,0,0,1,150.34,438.75Zm17.54-45.51a7.52,7.52,0,0,0-1.15.09c-4,.6-7.38,4.22-9.15,9.94-1.51,4.88-.08,10,4,14.29a26,26,0,0,0,5.16,4.12,34.86,34.86,0,0,0,5.86-7.49c4-6.86,4.69-13.18,1.88-17.35A8,8,0,0,0,167.88,393.24Z"/></g><g id="Outline"><path class="cls-1" d="M116.28,129.27a49.27,49.27,0,0,1,0-98.54,5,5,0,1,1,0,10,39.27,39.27,0,0,0,0,78.54,5,5,0,1,1,0,10Z"/><path class="cls-1" d="M176.74,40.73h-33.2a5,5,0,0,1,0-10h33.2a5,5,0,1,1,0,10Z"/><path class="cls-1" d="M364,255.94a5,5,0,0,1-3.49-8.58c1.11-1.09,27.91-26.53,80.21-19.18a5,5,0,1,1-1.39,9.9c-47.5-6.67-71.61,16.21-71.85,16.44A5,5,0,0,1,364,255.94Z"/><path class="cls-1" d="M364,297.81a5,5,0,0,1-3.49-8.58c1.11-1.09,27.91-26.54,80.21-19.18a5,5,0,1,1-1.39,9.9c-47.5-6.67-71.61,16.21-71.85,16.44A5,5,0,0,1,364,297.81Z"/><path class="cls-1" d="M364,341.49a5,5,0,0,1-3.49-8.58c1.11-1.08,27.91-26.53,80.21-19.18a5,5,0,0,1-1.39,9.91c-47.5-6.68-71.61,16.2-71.85,16.44A5,5,0,0,1,364,341.49Z"/><path class="cls-1" d="M364,383.35a5,5,0,0,1-3.49-8.57c1.11-1.09,27.91-26.53,80.21-19.18a5,5,0,1,1-1.39,9.9c-24.68-3.46-42.89,1.19-53.82,5.7-11.86,4.9-18,10.7-18,10.76A5,5,0,0,1,364,383.35Z"/><path class="cls-1" d="M364,428.87a5,5,0,0,1-3.49-8.58c1.11-1.09,27.91-26.53,80.21-19.18a5,5,0,1,1-1.39,9.9c-47.5-6.67-71.61,16.21-71.85,16.44A5,5,0,0,1,364,428.87Z"/></g></svg>