<?xml version="1.0" ?><svg enable-background="new 0 0 512 512" version="1.1" viewBox="0 0 512 512" xml:space="preserve" xmlns="http://www.w3.org/2000/svg" xmlns:xlink="http://www.w3.org/1999/xlink"><g id="Colors"><g><g><path d="M241,495c-2.761,0-5-2.239-5-5v-74.25c0-2.761,2.239-5,5-5s5,2.239,5,5V490     C246,492.761,243.761,495,241,495z" fill="#3F456B"/></g></g><g><g><path d="M318.222,500.728c-94.499,0-141.827-15.329-143.795-15.981C172.381,484.068,171,482.155,171,480v-64     c0-2.761,2.239-5,5-5s5,2.239,5,5v60.257c12.196,3.366,56.849,14.063,132.872,14.459l10.565-75.91     c0.381-2.734,2.908-4.646,5.642-4.263c2.735,0.38,4.644,2.906,4.263,5.642l-11.167,80.231     C322.831,498.888,320.717,500.728,318.222,500.728z" fill="#3F456B"/></g></g><g><g><path d="M353.778,501c-2.496,0-4.609-1.84-4.953-4.312l-11.181-80.504c-0.38-2.735,1.53-5.261,4.265-5.641     c2.738-0.376,5.26,1.529,5.641,4.265l10.581,76.18c45.729-0.249,79.915-4.38,100.764-7.863     c16.193-2.705,26.988-5.435,32.106-6.861V277H369c-2.761,0-5-2.239-5-5s2.239-5,5-5h127c2.761,0,5,2.239,5,5v208     c0,2.157-1.383,4.071-3.432,4.748C495.559,485.411,447.284,501,353.778,501z" fill="#3F456B"/></g></g><g><g><path d="M214,61h-42.75c-2.761,0-5-2.239-5-5V29c0-2.761,2.239-5,5-5s5,2.239,5,5v22H209V29.964     c0-2.761,2.239-5,5-5s5,2.239,5,5V56C219,58.761,216.761,61,214,61z" fill="#3F456B"/></g></g><g><g><path d="M433,495c-2.761,0-5-2.239-5-5v-91c0-34.536,18.458-51.384,33.943-59.436     c16.464-8.561,32.751-9.046,33.437-9.062c2.775-0.073,5.052,2.118,5.119,4.878c0.066,2.759-2.116,5.05-4.875,5.119     C493.208,340.565,438,342.757,438,399v91C438,492.761,435.761,495,433,495z" fill="#3F456B"/></g></g><g><g><g><path d="M216.072,324.001c-0.582,0-1.172-0.102-1.749-0.317c-2.587-0.966-3.9-3.847-2.935-6.434L226.795,276H203      c-2.761,0-5-2.239-5-5s2.239-5,5-5h31c1.639,0,3.173,0.803,4.108,2.149c0.934,1.346,1.149,3.065,0.576,4.6l-17.927,48      C220.006,322.76,218.099,324.001,216.072,324.001z" fill="#3F456B"/></g></g><g><g><path d="M139,324h-31.507c-2.046,0-3.885-1.246-4.644-3.146c-0.759-1.9-0.283-4.07,1.2-5.479      c0.842-0.8,20.688-19.647,25.689-24.121c3.456-3.092,3.632-6.598,3.638-6.746c-0.008-0.223,0-0.162,0.022-0.384c0,0,0,0,0,0      c-0.001,0,0.148-2.891-1.764-4.93c-1.644-1.754-4.518-2.643-8.544-2.643c-3.821,0-6.63,0.91-8.349,2.703      c-2.389,2.493-2.258,6.22-2.257,6.257c0.181,2.755-1.907,5.109-4.663,5.29c-2.768,0.178-5.138-1.933-5.319-4.688      c-0.053-0.806-0.366-8.031,4.885-13.638c3.681-3.931,8.964-5.924,15.702-5.924c7.012,0,12.396,2.013,16.004,5.982      c4.471,4.918,4.368,10.924,4.276,12.313c-0.051,1.525-0.646,8.205-6.965,13.858c-2.715,2.43-10.204,9.474-16.363,15.294H139      c2.761,0,5,2.239,5,5S141.761,324,139,324z" fill="#3F456B"/></g></g><g><g><path d="M165.016,325.028c-4.723,0-8.408-0.574-9.262-0.719c-2.723-0.462-4.555-3.043-4.094-5.766      c0.461-2.72,3.035-4.556,5.759-4.095l0,0c4.274,0.713,16.553,1.559,21.969-3.028c1.782-1.509,2.612-3.511,2.612-6.3      c0-2.804-0.839-4.827-2.64-6.367c-5.433-4.648-17.715-3.926-21.989-3.256c-1.441,0.227-2.917-0.189-4.028-1.14      c-1.111-0.95-1.753-2.337-1.753-3.799v-19.416c0-2.761,2.239-5,5-5H187c2.761,0,5,2.239,5,5s-2.239,5-5,5h-25.41v8.918      c6.669-0.315,17.418,0.248,24.251,6.077c4.029,3.437,6.159,8.272,6.159,13.983c0,5.716-2.133,10.539-6.167,13.947      C180.079,323.928,171.553,325.028,165.016,325.028z" fill="#3F456B"/></g></g><g><g><g><g><path d="M267.146,325.007c-0.103,0-0.206,0-0.31-0.001c-7.782-0.072-20.835-2.605-20.838-18.76        c-0.001-4.541,1.874-8.9,5.28-12.276c4.026-3.99,9.828-6.227,15.887-6.192c12.853,0.12,20.837,7.308,20.837,18.761        c0,5.138-1.725,9.562-4.989,12.796C279.266,323.049,273.784,325.007,267.146,325.007z M266.943,297.777        c-3.371,0-6.509,1.197-8.626,3.295c-1.059,1.049-2.32,2.798-2.319,5.171c0.001,5.485,1.79,8.678,10.93,8.762        c3.982,0.063,7.205-0.948,9.046-2.773c1.364-1.352,2.027-3.214,2.027-5.693c0-5.747-3.677-8.694-10.929-8.761        C267.03,297.777,266.986,297.777,266.943,297.777z" fill="#3F456B"/></g></g></g><g><g><path d="M251,311c-2.761,0-5-2.239-5-5v-18.75c-0.165-1.86-0.452-9.276,4.63-15.014       c3.665-4.137,9.025-6.235,15.932-6.235c7.501,0,13.136,2,16.748,5.946c4.186,4.572,3.847,9.902,3.794,10.495l-9.961-0.881       l-0.009,0.127c0.002-0.069,0.038-1.714-1.295-3.089c-1.647-1.699-4.855-2.597-9.276-2.597c-3.92,0-6.762,0.964-8.446,2.866       c-2.582,2.914-2.158,7.485-2.152,7.53c0.024,0.2,0.037,0.402,0.037,0.604v19C256,308.761,253.761,311,251,311z" fill="#3F456B"/></g></g></g></g></g><g id="Lines"><g><g><path d="M400.129,293c-2.761,0-5-2.239-5-5v-15.547c0-2.761,2.239-5,5-5s5,2.239,5,5V288     C405.129,290.761,402.89,293,400.129,293z" fill="#3F456B"/></g></g><g><g><path d="M469.782,293c-2.761,0-5-2.239-5-5v-15.547c0-2.761,2.239-5,5-5s5,2.239,5,5V288     C474.782,290.761,472.543,293,469.782,293z" fill="#3F456B"/></g></g><g><g><path d="M434.419,293c-2.761,0-5-2.239-5-5v-15.547c0-2.761,2.239-5,5-5s5,2.239,5,5V288     C439.419,290.761,437.181,293,434.419,293z" fill="#3F456B"/></g></g><g><g><g><path d="M254.825,187.457c0.751,3.495-1.473,6.937-4.969,7.688c-3.495,0.751-6.937-1.474-7.688-4.969      c-0.751-3.495,1.474-6.938,4.969-7.688C250.633,181.736,254.074,183.962,254.825,187.457z" fill="#3F456B"/></g></g><g><g><g><path d="M220.593,198.135c-7.547,0-14.625-1.427-20.588-4.109c-6.728,3.578-14.362,4.426-21.664,2.062       c-5.689-1.842-10.129-5.598-14.046-8.912c-4.789-4.052-8.926-7.525-14.498-7.443c-7.908,0.153-13.051,7.142-15.413,11.294       c-1.366,2.4-4.42,3.238-6.818,1.874c-2.4-1.365-3.239-4.418-1.874-6.818c5.806-10.208,14.521-16.166,23.912-16.348       c9.342-0.167,15.617,5.125,21.15,9.807c3.524,2.981,6.853,5.797,10.667,7.033c2.977,0.963,5.822,1.08,8.463,0.589       c-0.557-0.562-1.086-1.145-1.588-1.747c-5.077-6.092-6.491-13.48-3.88-20.271c2.999-7.8,8.922-12.786,15.845-13.336       c6.09-0.48,11.789,2.5,14.857,7.79c3.796,6.544,2.771,14.99-2.812,23.172c-0.962,1.41-1.992,2.726-3.083,3.945       c6.782,1.765,14.5,1.74,21.159,0.489c2.718-0.506,5.327,1.277,5.837,3.991c0.51,2.714-1.277,5.327-3.991,5.837       C228.288,197.775,224.38,198.135,220.593,198.135z M201.521,161.761c-0.155,0-0.312,0.006-0.468,0.019       c-3.035,0.241-5.696,2.777-7.303,6.956c-1.654,4.302,0.299,7.965,2.229,10.28c1.024,1.229,2.205,2.318,3.51,3.276       c1.774-1.55,3.31-3.327,4.557-5.155c3.327-4.875,4.209-9.438,2.422-12.518C205.428,162.827,203.562,161.761,201.521,161.761z" fill="#3F456B"/></g></g></g></g><g><g><path d="M192,133c-27.151,0-48.393-8.619-63.136-25.618c-12.358-14.249-20.042-34.728-22.222-59.221     c-1.627-18.282,0.324-32.281,0.408-32.868c0.209-1.464,1.057-2.76,2.313-3.541c1.255-0.78,2.794-0.964,4.199-0.502     c0.834,0.275,84.269,27.102,156.688,0.065c1.413-0.527,2.984-0.39,4.283,0.374s2.184,2.071,2.41,3.56     c0.089,0.584,2.154,14.514,0.669,32.729c-1.989,24.408-9.524,44.851-21.791,59.119C241.047,124.285,219.574,133,192,133z      M116.399,22.52c-1.018,14.648-1.402,53.644,20.046,78.342C149.203,115.551,167.895,123,192,123     c24.511,0,43.423-7.533,56.212-22.39c21.128-24.543,20.585-62.992,19.464-77.785c-37.866,12.585-77.332,11.732-104.369,8.643     C141.734,29.002,124.866,24.871,116.399,22.52z" fill="#3F456B"/></g></g><g><g><path d="M369,420H16c-1.33,0-2.604-0.53-3.543-1.472c-0.938-0.942-1.462-2.219-1.457-3.549l1-240     c0.008-1.897,1.09-3.627,2.792-4.465C73.882,141.438,59.2,26.821,59.044,25.666c-0.354-2.637,1.418-5.09,4.034-5.581l48-9     c2.715-0.506,5.327,1.28,5.836,3.993c0.509,2.714-1.279,5.327-3.993,5.836l-43.435,8.144c0.969,9.802,2.643,33.53-0.395,59.889     c-5.094,44.198-21.355,74.911-47.105,89.091L21.021,410h342.958l-0.963-231.241c-57.159-18.856-50.699-126.242-48.466-150.615     l-42.389-7.215c-2.722-0.463-4.554-3.046-4.09-5.768c0.463-2.723,3.048-4.553,5.768-4.09l47,8     c2.625,0.447,4.439,2.873,4.126,5.517c-0.154,1.307-14.753,130.812,44.248,145.562c2.218,0.555,3.777,2.543,3.787,4.83l1,240     c0.005,1.33-0.519,2.607-1.457,3.549C371.604,419.47,370.33,420,369,420z" fill="#3F456B"/></g></g><g><g><path d="M305,373H80c-2.761,0-5-2.239-5-5V223c0-2.761,2.239-5,5-5h225c2.761,0,5,2.239,5,5v145     C310,370.761,307.761,373,305,373z M85,363h215V228H85V363z" fill="#3F456B"/></g></g><g><g><path d="M304,260H80c-2.761,0-5-2.239-5-5s2.239-5,5-5h224c2.761,0,5,2.239,5,5S306.761,260,304,260z" fill="#3F456B"/></g></g><g><g><path d="M304,341H80c-2.761,0-5-2.239-5-5s2.239-5,5-5h224c2.761,0,5,2.239,5,5S306.761,341,304,341z" fill="#3F456B"/></g></g><g><g><path d="M65.327,84.667c-2.425,0-4.554-1.767-4.935-4.238c-0.421-2.729,1.45-5.283,4.179-5.704l49.667-7.667     c2.725-0.423,5.283,1.449,5.704,4.179c0.421,2.729-1.45,5.283-4.179,5.704l-49.667,7.667     C65.838,84.648,65.581,84.667,65.327,84.667z" fill="#3F456B"/></g></g><g><g><path d="M318.006,84.667c-0.254,0-0.511-0.019-0.769-0.059l-49.667-7.667c-2.729-0.421-4.6-2.975-4.179-5.704     s2.979-4.601,5.704-4.179l49.667,7.667c2.729,0.421,4.6,2.975,4.179,5.704C322.56,82.9,320.431,84.667,318.006,84.667z" fill="#3F456B"/></g></g></g></svg>