<?xml version="1.0" ?><svg viewBox="0 0 512 512" xmlns="http://www.w3.org/2000/svg"><defs><style>.cls-1{fill:#3f456b;}</style></defs><title/><g id="Lines"><path class="cls-1" d="M300.82,100H71a5,5,0,0,1-4.73-3.38c-.39-1.14-3.64-11.35,2.33-19,3.58-4.58,9.41-6.91,17.38-7C89.23,60.22,98.87,46,119.28,44.92c2.88-12.67,13.24-31.56,37.82-34.07C181.47,8.37,195.47,23.77,201,35c9.17-1.85,30.92-4.71,48.18,5.21,9.36,5.38,16,13.65,19.62,24.62,7.14-.36,21.32.15,30,8.5,5.6,5.38,8,12.83,7,22.15A5,5,0,0,1,300.82,100ZM75.15,90H296a13.76,13.76,0,0,0-4.08-9.43c-6.84-6.56-21.09-6.15-26-5.43a5,5,0,0,1-5.56-3.71c-2.63-10.29-8-17.86-16.09-22.5-18.29-10.55-44.59-3.33-44.85-3.25a5,5,0,0,1-6.1-3.23c-.34-1-8.69-24.35-35.15-21.65s-29.52,28.5-29.63,29.59a5,5,0,0,1-5.17,4.49c-10.25-.38-18.1,3-23.33,10.17a30.35,30.35,0,0,0-5.11,11.57,5,5,0,0,1-5.37,4.19c-4.56-.39-10.51-.2-13,3C75.14,85.54,75,88,75.15,90Z"/><path class="cls-1" d="M131.67,164H16a5,5,0,0,1-5-5.16c0-.64.63-15.74,11.61-24.83,5.89-4.88,13.45-7,22.52-6.47,2.86-8.62,11.42-20,30.47-21.52,14.15-1.14,26.16,2.69,33.83,10.78a27.94,27.94,0,0,1,7.72,17.66c4.77.77,11.69,2.83,16.1,8.29,2.53,3.15,5.17,8.7,3.3,17.31A5,5,0,0,1,131.67,164ZM21.85,154H127.19a8.18,8.18,0,0,0-1.73-5c-3.31-4.11-11-5-13.46-5a5,5,0,0,1-5-5.66,17.62,17.62,0,0,0-4.86-14.66c-5.55-5.85-14.71-8.58-25.78-7.7-8.8.71-15.24,3.94-19.16,9.61A19.56,19.56,0,0,0,54,133.5a5,5,0,0,1-5.75,4.44c-8.2-1.28-14.67,0-19.24,3.77C24.81,145.17,22.81,150.22,21.85,154Z"/><path class="cls-1" d="M175,187a5,5,0,0,1-5-4.38c-5.94-47.25,2.71-86.57,3.08-88.22a5,5,0,0,1,9.76,2.19h0c-.09.39-8.63,39.34-2.92,84.79a5,5,0,0,1-4.34,5.58A4.44,4.44,0,0,1,175,187Z"/><path class="cls-1" d="M172.22,141.28h-.09c-14.42-.24-25.26-4.72-32.21-13.3-11.24-13.87-7.65-33.12-7.49-33.94a5,5,0,0,1,9.81,1.9c0,.17-2.82,15.59,5.49,25.79,5,6.15,13.28,9.36,24.57,9.55a5,5,0,0,1-.08,10Z"/><path class="cls-1" d="M185.57,164.92q-5.73,0-11.82-.43a5,5,0,0,1,.71-10c29.3,2.09,51.34-3.82,65.52-17.56,17.8-17.26,17-41.49,17-41.74a5,5,0,0,1,10-.44c.05,1.17,1.05,28.8-19.95,49.25C232.8,157.91,212.15,164.92,185.57,164.92Z"/><path class="cls-1" d="M247.42,141.28a4,4,0,0,1-.49,0c-12.46-1.23-21.91-6-28.08-14.19-10.43-13.83-7.24-32.19-7.1-33a5,5,0,0,1,9.84,1.77h0c0,.15-2.52,14.93,5.28,25.22,4.42,5.83,11.5,9.26,21,10.21a5,5,0,0,1-.49,10Z"/><path class="cls-1" d="M99.41,228.5A5,5,0,0,1,96,227.19c-33.87-31.06-28.54-67.13-28.3-68.65a5,5,0,0,1,9.88,1.57c-.21,1.34-4.56,32.44,25.18,59.71a5,5,0,0,1-3.38,8.68Z"/><path class="cls-1" d="M69.58,201.49c-11.49,0-20.57-3.27-27.07-9.78-12.53-12.54-10.16-32.19-10-33A5,5,0,0,1,42.38,160c0,.16-1.82,15.7,7.25,24.72,5.81,5.79,15.13,7.9,27.69,6.28a5,5,0,0,1,1.28,9.92A70,70,0,0,1,69.58,201.49Z"/><path class="cls-1" d="M136.75,225.92a5,5,0,0,1-4.89-4c-.1-.48-2.34-11.78,4.42-20.77,4.12-5.48,10.47-8.8,18.89-9.9,4.18-5.58,17.2-19.12,44.17-17.26,14.78,1,27.31,7.45,35.3,18.12,6.31,8.43,9.09,18.89,7.24,27.29a5,5,0,1,1-9.76-2.15c1.22-5.55-.94-13.07-5.49-19.15-6.21-8.3-16.15-13.32-28-14.13-26.87-1.86-36.2,14.28-36.29,14.45a5,5,0,0,1-4,2.55c-6.65.51-11.4,2.59-14.1,6.19-4,5.33-2.64,12.65-2.63,12.72a5,5,0,0,1-3.87,5.91A4.57,4.57,0,0,1,136.75,225.92Z"/><path class="cls-1" d="M70,241.19a5,5,0,0,1-2.63-9.25c14.35-8.83,29.94-13.84,45.07-14.48H280.29c1.85,0,43.42-.14,59-39.49a5,5,0,0,1,9.3,3.68c-7.52,19-21.73,32.94-41.1,40.35a81.06,81.06,0,0,1-27.26,5.46H112.79c-13.21.58-27.46,5.2-40.14,13A4.94,4.94,0,0,1,70,241.19Z"/><path class="cls-1" d="M48.81,500C41.36,500,37,497,34.56,494.4c-5.43-5.8-5.34-13.78-5.27-15.37V402.32c0-13.8,6.61-19.67,8.94-21.31,5.68-5.8,12-15.19,10.81-27.57-.61-6.28-3.87-12.11-7.31-18.28-2.86-5.11-5.81-10.4-7.5-16.36C29,300.24,31,277.23,39.35,260.18a5,5,0,0,1,9,4.4c-7.33,15-9.08,35.18-4.47,51.5,1.36,4.83,3.9,9.38,6.6,14.21,3.79,6.8,7.72,13.83,8.53,22.18,1.25,12.89-3.74,25.66-14,36a4.89,4.89,0,0,1-1.06.81c-.11.07-4.61,3.08-4.61,13.08v76.84c0,.11,0,.23,0,.34-.07,1.38.25,5.62,2.61,8.1,1.5,1.58,3.69,2.36,6.7,2.4,1.63-.18,8-1.28,8-7.82v-75.1a5,5,0,0,1,2.68-4.43c.54-.28,54.67-29.43,53.94-82.61a5,5,0,1,1,10-.14c.35,24.66-9.83,48.35-29.42,68.49A136.62,136.62,0,0,1,66.61,410v72.19c0,13.07-11.4,17.36-17.43,17.81Z"/><path class="cls-1" d="M76,500c-7.45,0-11.86-3.05-14.25-5.6-5.71-6.1-5.32-14.62-5.26-15.57a5,5,0,1,1,10,.67c-.07,1.38.25,5.62,2.61,8.1,1.5,1.58,3.69,2.36,6.7,2.4,1.63-.18,8-1.28,8-7.82V412.42a5,5,0,0,1,2.87-4.52c.21-.1,22.29-10.86,36.88-37.82a5,5,0,1,1,8.79,4.75c-13.14,24.3-31.5,36.56-38.54,40.59v66.76a16.63,16.63,0,0,1-9,15.27,23.06,23.06,0,0,1-8.4,2.54Z"/><path class="cls-1" d="M306.61,500c-7.45,0-11.86-3.05-14.26-5.6-5.42-5.8-5.33-13.78-5.26-15.37V375.17a71.5,71.5,0,0,1-23.87-22.36,5,5,0,1,1,8.29-5.59c9.88,14.67,22.43,20.24,22.56,20.29a5,5,0,0,1,3,4.6V479.16c0,.11,0,.23,0,.34-.07,1.38.25,5.62,2.61,8.1,1.5,1.58,3.69,2.36,6.7,2.4,1.63-.18,8-1.28,8-7.82v-111a5,5,0,0,1,3.4-4.74c1.42-.49,35.23-12.85,35.23-62.74a5,5,0,0,1,10,0c0,29.76-11.26,47.74-20.71,57.59a63,63,0,0,1-17.92,13.18V482.18a16.63,16.63,0,0,1-9,15.27A23.11,23.11,0,0,1,307,500Z"/><path class="cls-1" d="M334.15,500c-7.45,0-11.86-3.05-14.25-5.6-5.71-6.1-5.31-14.62-5.25-15.57a5,5,0,0,1,10,.64c-.07,1.43.25,5.65,2.61,8.13,1.49,1.58,3.69,2.36,6.7,2.4,1.62-.18,8-1.28,8-7.82V353a5,5,0,0,1,10,0V482.18a16.62,16.62,0,0,1-9,15.27,23,23,0,0,1-8.4,2.54Z"/><path class="cls-1" d="M362.22,180.38a5,5,0,0,1-5-5v-2.84a5,5,0,1,1,10,0v2.84A5,5,0,0,1,362.22,180.38Z"/><path class="cls-1" d="M430.23,180.38a5,5,0,0,1-5-5v-2.84a5,5,0,1,1,10,0v2.84A5,5,0,0,1,430.23,180.38Z"/><path class="cls-1" d="M414.42,250.76a5,5,0,0,1-4.95-4.37c-.2-1.44-2.3-14.26-14.37-14.26-12.42,0-15,13.87-15.09,14.46a5,5,0,0,1-9.86-1.64c1.3-7.9,8.19-22.82,25-22.82s23.28,15,24.29,23a5,5,0,0,1-4.33,5.59A4.58,4.58,0,0,1,414.42,250.76Z"/><path class="cls-1" d="M340.92,361a5,5,0,0,1-1.54-9.76c20.19-6.51,36.27-23.35,44.12-46.19,5.57-16.19,5.54-32.64,5.5-50.06v-4a5,5,0,0,1,10,0v4c0,17.48.07,35.55-6,53.33-8.89,25.85-27.3,45-50.51,52.46A5.14,5.14,0,0,1,340.92,361Z"/><path class="cls-1" d="M197.46,385.35c-25.72,0-57.5-3.81-93.11-16.1a5,5,0,1,1,3.27-9.45c52.26,18,95.84,17.14,123.2,13.23,29.68-4.25,47.23-12.89,47.4-13a5,5,0,0,1,4.49,8.94c-.76.38-18.85,9.34-50,13.86A244.33,244.33,0,0,1,197.46,385.35Z"/><path class="cls-1" d="M42.26,266.18a5,5,0,0,1-3.69-1.62l-15.1-16.5c-1.88-1.65-12.22-11.28-12.47-22.84-.12-5.9,2.41-11.39,7.31-15.88,5.11-4.67,10.84-6.84,17-6.44,11.63.76,20.53,10.68,21.53,11.84l16.47,18A5,5,0,0,1,66,239.47l-16.52-18-.14-.16c-.05-.06-6.83-7.91-14.65-8.39-3.41-.21-6.54,1.05-9.6,3.84C22.27,219.27,21,222,21,225c.12,6.55,6.68,13.53,9.19,15.67a4.78,4.78,0,0,1,.46.44L46,257.81a5,5,0,0,1-3.69,8.37Z"/><path class="cls-1" d="M394.29,255.29c-19.48,0-31-7.92-37.23-14.57a40.62,40.62,0,0,1-9-14.71c-8.46-20.26-9.1-43.64-8.59-56.88-4.75,1.69-11.58,2.79-21.36,2.13s-17.49-4-22.41-10.3c-8.18-10.5-5.49-24.82-5.37-25.43a5,5,0,0,1,4.91-4h51.41c3.73-6.88,7.83-10.39,10.78-12.15-.11-12.46-1-25-6.82-34.19-4.23-6.67-11.49-8.16-19.89-9.89-3.15-.65-6.41-1.32-9.63-2.3-17.19-5.24-29-18.29-31.69-34.92-1.52-9.47-.34-15.49,2.71-24.63a5,5,0,0,1,9.74,1.75c0,1,.17,25.08,43.21,26.83,13.65.56,24.71,5.57,32.85,14.9C393.76,75,393.43,103.65,393,111.48c1,1.09,2.39,2.28,3.53,2.3.87,0,2.1-.83,3.34-2.3-.42-7.84-.75-36.5,15.06-54.58,8.15-9.33,19.2-14.34,32.86-14.9,43-1.75,43.21-25.86,43.2-26.88a5,5,0,0,1,9.74-1.7c3.05,9.14,4.23,15.16,2.72,24.63C500.8,54.68,489,67.73,471.77,73c-3.23,1-6.49,1.65-9.64,2.3-8.4,1.73-15.66,3.22-19.89,9.89-5.81,9.16-6.71,21.76-6.82,34.23a21.27,21.27,0,0,1,10.07,12.11h50.34a5,5,0,0,1,4.91,4c.12.61,2.82,14.93-5.37,25.43-4.92,6.31-12.49,9.78-22.48,10.31-9.73.65-16.55-.44-21.28-2.13.5,13.28-.14,36.74-8.67,57C442.07,228.42,430.78,255.29,394.29,255.29Zm-49.1-101.41a5.89,5.89,0,0,1,1.24.14,5.24,5.24,0,0,1,3.77,5.81c-.05.34-4.22,35.38,7.21,62.53q.12.3.21.6c.26.88,6.87,22.33,36.67,22.33,30.42,0,39.25-22.52,39.34-22.75a1.34,1.34,0,0,1,.07-.18c11.43-27.15,7.26-62.19,7.21-62.54a5.25,5.25,0,0,1,3.77-5.8,4.7,4.7,0,0,1,5.67,2.89c.68.83,5.34,5.48,21.94,4.38,7-.37,12.09-2.54,15.16-6.44,3.27-4.17,3.86-9.66,3.81-13.35H441.33a5,5,0,0,1-5-4.69c-.44-7.07-7.46-9.52-7.53-9.55a5,5,0,0,1-3.4-4.73c0-14.94.65-30.54,8.39-42.73,6.5-10.25,17-12.41,26.32-14.33,3.06-.63,5.95-1.22,8.73-2.07,13.45-4.1,22.69-14.16,24.73-26.93.15-.93.27-1.81.36-2.66C485.12,45,469.74,51.12,448.2,52c-10.8.44-19.46,4.3-25.73,11.48C407.21,80.94,410,112.22,410,112.53a5,5,0,0,1-.87,3.32c-3.72,5.37-8,8.05-12.83,7.92-7.46-.17-12.12-7.31-12.63-8.12a5,5,0,0,1-.73-3.12c0-.31,2.71-31.69-12.52-49.08-6.27-7.16-14.92-11-25.71-11.45-21.54-.88-36.92-7-45.73-18.19.08.85.2,1.73.35,2.66,2,12.77,11.29,22.83,24.74,26.93,2.77.85,5.67,1.44,8.73,2.07,9.29,1.92,19.81,4.08,26.31,14.33,7.75,12.19,8.39,27.79,8.39,42.73a4.59,4.59,0,0,1-3.86,4.87c-.68.27-5.19,2.28-9.3,11.2a5,5,0,0,1-4.54,2.9H299.85c-.05,3.69.54,9.18,3.81,13.35,3.07,3.9,8.14,6.07,15.09,6.43,16.67,1.11,21.33-3.54,22-4.37A4.53,4.53,0,0,1,345.19,153.88Zm18.33-26.46Z"/><path class="cls-1" d="M360,129a5,5,0,0,1-2.24-9.47c12.22-6.11,28.08-11.09,28.75-11.3a5,5,0,1,1,3,9.54c-.15,0-15.77,5-27.25,10.7A5,5,0,0,1,360,129Z"/><path class="cls-1" d="M433,129a5,5,0,0,1-2.24-.53c-9.57-4.78-27.16-10.67-27.34-10.73a5,5,0,0,1,3.16-9.48c.75.25,18.46,6.17,28.66,11.27A5,5,0,0,1,433,129Z"/><path class="cls-1" d="M319,72a4.88,4.88,0,0,1-1.86-.36,5,5,0,0,1-2.78-6.5l4-10a5,5,0,0,1,9.28,3.72l-4,10A5,5,0,0,1,319,72Z"/><path class="cls-1" d="M340,76a5,5,0,0,1-4.57-7l4-9A5,5,0,0,1,348.57,64l-4,9A5,5,0,0,1,340,76Z"/><path class="cls-1" d="M355,86a5,5,0,0,1-3.07-9l9-7a5,5,0,1,1,6.14,7.9l-9,7A5,5,0,0,1,355,86Z"/><path class="cls-1" d="M361.62,105.53a5,5,0,0,1-1.47-9.78l11.37-3.53a5,5,0,1,1,3,9.56l-11.37,3.52A5.14,5.14,0,0,1,361.62,105.53Z"/><path class="cls-1" d="M473,72a5,5,0,0,1-4.64-3.14l-4-10a5,5,0,1,1,9.28-3.72l4,10a5,5,0,0,1-2.78,6.5A4.88,4.88,0,0,1,473,72Z"/><path class="cls-1" d="M452,76a5,5,0,0,1-4.57-3l-4-9A5,5,0,1,1,452.57,60l4,9A5,5,0,0,1,452,76Z"/><path class="cls-1" d="M437,86a5,5,0,0,1-3.07-1l-9-7a5,5,0,0,1,6.14-7.9l9,7A5,5,0,0,1,437,86Z"/><path class="cls-1" d="M430.38,105.53a5.14,5.14,0,0,1-1.49-.23l-11.37-3.52a5,5,0,1,1,3-9.56l11.37,3.53a5,5,0,0,1-1.47,9.78Z"/></g><g id="Outline"><path class="cls-1" d="M172,61a5,5,0,0,1-3.38-1.31c-8.4-7.7-17.41-.68-18.41.15a5,5,0,0,1-6.44-7.66c5.66-4.79,19.55-10.92,31.61.13A5,5,0,0,1,172,61Z"/><path class="cls-1" d="M232,78a5,5,0,0,1-2.65-.76c-12.57-7.86-21.8-.68-22.19-.37a5,5,0,0,1-6.36-7.71c.6-.5,15-12.19,33.85-.4A5,5,0,0,1,232,78Z"/></g></svg>