<?xml version="1.0" ?><svg viewBox="0 0 512 512" xmlns="http://www.w3.org/2000/svg"><defs><style>.cls-1{fill:#3f456b;}</style></defs><title/><g id="Lines"><path class="cls-1" d="M132.59,73.82a5,5,0,0,1-5-4.36c-.43-3.32-2.94-7.31-3.87-8.57a5,5,0,0,1,8-6c.5.67,4.91,6.74,5.76,13.24a5,5,0,0,1-4.32,5.6A4.74,4.74,0,0,1,132.59,73.82Z"/><path class="cls-1" d="M216.25,159a5,5,0,0,1,0-10h2.95a27.23,27.23,0,0,0,4.53-54,5,5,0,0,1-3.95-6.17A45.23,45.23,0,0,0,133.7,61.39a5,5,0,0,1-8.54,1.4A21.85,21.85,0,0,0,86.4,76.63,21.56,21.56,0,0,0,87,81.76,5,5,0,0,1,83,87.87a30.75,30.75,0,0,0,4,61.08H160.5a5,5,0,0,1,0,10H86.69A40.76,40.76,0,0,1,76.49,79.1c-.06-.82-.09-1.64-.09-2.47a31.87,31.87,0,0,1,51-25.46A55.23,55.23,0,0,1,230.49,86.36,37.23,37.23,0,0,1,219.26,159Z"/><path class="cls-1" d="M108.71,89.07a5,5,0,0,1-1.56-.25c-11.43-3.76-26.63-.54-26.78-.51a5,5,0,1,1-2.12-9.77c.73-.16,18-3.81,32,.78a5,5,0,0,1-1.56,9.75Z"/><path class="cls-1" d="M219.31,310.66a5,5,0,0,1-5-5v-3a5,5,0,0,1,10,0v3A5,5,0,0,1,219.31,310.66Z"/><path class="cls-1" d="M254,310.66a5,5,0,0,1-5-5v-3a5,5,0,0,1,10,0v3A5,5,0,0,1,254,310.66Z"/><path class="cls-1" d="M288.69,310.66a5,5,0,0,1-5-5v-3a5,5,0,0,1,10,0v3A5,5,0,0,1,288.69,310.66Z"/><path class="cls-1" d="M323.39,310.66a5,5,0,0,1-5-5v-3a5,5,0,1,1,10,0v3A5,5,0,0,1,323.39,310.66Z"/><path class="cls-1" d="M358.08,310.66a5,5,0,0,1-5-5v-3a5,5,0,0,1,10,0v3A5,5,0,0,1,358.08,310.66Z"/><path class="cls-1" d="M392.78,310.66a5,5,0,0,1-5-5v-3a5,5,0,0,1,10,0v3A5,5,0,0,1,392.78,310.66Z"/><path class="cls-1" d="M427.47,310.66a5,5,0,0,1-5-5v-3a5,5,0,0,1,10,0v3A5,5,0,0,1,427.47,310.66Z"/><path class="cls-1" d="M136.59,280.19H90a5,5,0,1,1,0-10h46.63a5,5,0,0,1,0,10Z"/><path class="cls-1" d="M95.11,394a5,5,0,0,1-4.93-4.22C86.58,367,78.56,345.34,67,327.12A135.76,135.76,0,0,0,14.2,278.57a5,5,0,0,1-2.7-4.45l.07-35a5,5,0,0,1,5-5h173a5,5,0,0,1,4.41,2.65l17.84,33.45H496.59a5,5,0,0,1,5,4.62c.24,3.17,5.44,77.89-26.91,113.4a5,5,0,0,1-7.39-6.74C492.4,354,492.4,296.88,491.83,280.26h-283a5,5,0,0,1-4.41-2.65l-17.84-33.45h-165l0,27a145.66,145.66,0,0,1,53.92,50.64c12.3,19.37,20.81,42.35,24.62,66.46a5,5,0,0,1-4.15,5.72A4.29,4.29,0,0,1,95.11,394Z"/><path class="cls-1" d="M110.77,396.49a57.81,57.81,0,0,1-19.08-3.4c-10.43-3.76-24.43-12.43-31.9-32.39a5,5,0,0,1,9.37-3.51c11.63,31.09,41.63,29.36,42.91,29.27a5,5,0,0,1,.75,10C112.71,396.44,112,396.49,110.77,396.49Z"/><path class="cls-1" d="M18.18,396.49c-1.21,0-1.94-.05-2-.06a5,5,0,0,1,.76-10c1.26.09,31.27,1.82,42.89-29.27a5,5,0,1,1,9.37,3.51c-7.47,20-21.47,28.63-31.9,32.39A57.74,57.74,0,0,1,18.18,396.49Z"/><path class="cls-1" d="M206.69,396.49a57.74,57.74,0,0,1-19.08-3.4c-10.44-3.76-24.44-12.43-31.9-32.39a5,5,0,1,1,9.36-3.51c11.63,31.09,41.64,29.36,42.91,29.27a5,5,0,0,1,.75,10C208.62,396.44,207.9,396.49,206.69,396.49Z"/><path class="cls-1" d="M114.09,396.49c-1.21,0-1.93-.05-2-.06a5,5,0,0,1,.75-10c1.3.09,31.29,1.8,42.91-29.27a5,5,0,1,1,9.36,3.51c-7.46,20-21.46,28.63-31.9,32.39A57.74,57.74,0,0,1,114.09,396.49Z"/><path class="cls-1" d="M303,396.49a57.81,57.81,0,0,1-19.08-3.4c-10.43-3.76-24.43-12.43-31.89-32.39a5,5,0,1,1,9.36-3.51c11.63,31.09,41.64,29.36,42.91,29.27a5,5,0,0,1,.75,10C305,396.44,304.25,396.49,303,396.49Z"/><path class="cls-1" d="M210.44,396.49c-1.21,0-1.94-.05-2-.06a5,5,0,0,1,.76-10c1.26.09,31.27,1.82,42.9-29.27a5,5,0,1,1,9.36,3.51c-7.46,20-21.47,28.63-31.9,32.39A57.74,57.74,0,0,1,210.44,396.49Z"/><path class="cls-1" d="M399,396.49a57.74,57.74,0,0,1-19.08-3.4c-10.43-3.76-24.44-12.43-31.9-32.39a5,5,0,1,1,9.36-3.51C369,388.28,399,386.55,400.24,386.46a5,5,0,0,1,.75,10C400.89,396.44,400.16,396.49,399,396.49Z"/><path class="cls-1" d="M306.35,396.49c-1.21,0-1.93-.05-2-.06a5,5,0,0,1,.75-10c1.3.09,31.29,1.8,42.91-29.27a5,5,0,1,1,9.36,3.51c-7.46,20-21.46,28.63-31.89,32.39A57.82,57.82,0,0,1,306.35,396.49Z"/><path class="cls-1" d="M494.86,396.49a57.77,57.77,0,0,1-19.08-3.4c-10.43-3.76-24.43-12.43-31.9-32.39a5,5,0,0,1,9.37-3.51c11.63,31.09,41.63,29.36,42.91,29.27a5,5,0,0,1,.74,10C496.8,396.44,496.07,396.49,494.86,396.49Z"/><path class="cls-1" d="M402.27,396.49c-1.22,0-1.94-.05-2-.06a5,5,0,1,1,.76-10c1.26.09,31.26,1.82,42.89-29.27a5,5,0,1,1,9.37,3.51c-7.47,20-21.47,28.63-31.9,32.39A57.81,57.81,0,0,1,402.27,396.49Z"/><path class="cls-1" d="M206.9,451.27a57.81,57.81,0,0,1-19.08-3.4c-10.43-3.76-24.43-12.43-31.9-32.39a5,5,0,1,1,9.37-3.5c11.63,31.08,41.64,29.35,42.91,29.26a5,5,0,0,1,.75,10C208.84,451.22,208.12,451.27,206.9,451.27Z"/><path class="cls-1" d="M114.31,451.27c-1.21,0-1.94,0-2-.06a5,5,0,0,1,.76-10c1.26.09,31.26,1.82,42.89-29.26a5,5,0,1,1,9.37,3.5c-7.46,20-21.47,28.63-31.9,32.39A57.74,57.74,0,0,1,114.31,451.27Z"/><path class="cls-1" d="M302.82,451.27a57.74,57.74,0,0,1-19.08-3.4c-10.44-3.76-24.44-12.43-31.9-32.39a5,5,0,1,1,9.36-3.5c11.7,31.28,42.58,29.29,42.89,29.26a5,5,0,0,1,.77,10C304.75,451.22,304,451.27,302.82,451.27Z"/><path class="cls-1" d="M210.22,451.27c-1.21,0-1.93,0-2-.06a5,5,0,0,1,.75-10c1.3.09,31.28,1.81,42.91-29.26a5,5,0,1,1,9.36,3.5c-7.46,20-21.46,28.63-31.9,32.39A57.74,57.74,0,0,1,210.22,451.27Z"/><path class="cls-1" d="M399.17,451.27a57.82,57.82,0,0,1-19.09-3.4c-10.43-3.76-24.43-12.43-31.89-32.39a5,5,0,1,1,9.36-3.5c11.63,31.08,41.63,29.35,42.91,29.26a5,5,0,0,1,.75,10C401.1,451.22,400.38,451.27,399.17,451.27Z"/><path class="cls-1" d="M306.57,451.27c-1.21,0-1.94,0-2-.06a5,5,0,0,1,.76-10c1.27.09,31.27,1.82,42.9-29.26a5,5,0,1,1,9.36,3.5c-7.46,20-21.47,28.63-31.9,32.39A57.74,57.74,0,0,1,306.57,451.27Z"/><path class="cls-1" d="M491.63,340.16H77.42a5,5,0,0,1,0-10H491.63a5,5,0,0,1,0,10Z"/><path class="cls-1" d="M272.61,280.26a5.16,5.16,0,0,1-1.16-.13,5,5,0,0,1-3.71-6L284,206a5,5,0,0,1,4.87-3.84H432.5a5,5,0,0,1,4.86,3.84l16,67a5,5,0,1,1-9.72,2.32l-15.09-63.13H292.77l-15.3,64.26A5,5,0,0,1,272.61,280.26Z"/><path class="cls-1" d="M236.9,279.55a5,5,0,0,1-5-4.41L220.1,176.06h-63l-7.58,63.69a5,5,0,1,1-9.93-1.18l8.11-68.1a5,5,0,0,1,5-4.41h71.83a5,5,0,0,1,5,4.41L241.87,274a5,5,0,0,1-4.37,5.55A4,4,0,0,1,236.9,279.55Z"/><path class="cls-1" d="M112.25,243.16a5,5,0,0,1-5-5v-26a5,5,0,0,0-5-5H74.5a5,5,0,0,0-5,5v26a5,5,0,0,1-10,0v-26a15,15,0,0,1,15-15h27.75a15,15,0,0,1,15,15v26A5,5,0,0,1,112.25,243.16Z"/><path class="cls-1" d="M64.5,225.16H36.83a5,5,0,0,1,0-10H64.5a5,5,0,0,1,0,10Z"/><path class="cls-1" d="M202.46,111.16H174.79a5,5,0,0,1,0-10h27.67a5,5,0,0,1,0,10Z"/><path class="cls-1" d="M215.5,176.06a5,5,0,0,1-5-5v-22.9H166.75v22.9a5,5,0,0,1-10,0v-27.9a5,5,0,0,1,5-5H215.5a5,5,0,0,1,5,5v27.9A5,5,0,0,1,215.5,176.06Z"/><path class="cls-1" d="M412,212.16a5,5,0,0,1-5-5v-40H313.5v40a5,5,0,0,1-10,0v-45a5,5,0,0,1,5-5H412a5,5,0,0,1,5,5v45A5,5,0,0,1,412,212.16Z"/><path class="cls-1" d="M188.62,148.16a5,5,0,0,1-5-5V93a5,5,0,0,1,10,0v50.16A5,5,0,0,1,188.62,148.16Z"/><path class="cls-1" d="M480.5,279.62a5,5,0,0,1-5-5V224.45a5,5,0,0,1,10,0v50.17A5,5,0,0,1,480.5,279.62Z"/><path class="cls-1" d="M320.76,165.93l-.54,0a5,5,0,0,1-4.44-5.5l10-94.63a5,5,0,0,1,9.94,1l-10,94.63A5,5,0,0,1,320.76,165.93Z"/><path class="cls-1" d="M366.74,165.93a5,5,0,0,1-5-4.47l-10-94.63a5,5,0,0,1,9.94-1l10,94.63a5,5,0,0,1-4.44,5.5Z"/><path class="cls-1" d="M363.75,69.39h-41a5,5,0,0,1,0-10h41a5,5,0,0,1,0,10Z"/><path class="cls-1" d="M369.92,101.17H316.58a5,5,0,0,1,0-10h53.34a5,5,0,0,1,0,10Z"/><path class="cls-1" d="M371.39,133H315.11a5,5,0,1,1,0-10h56.28a5,5,0,0,1,0,10Z"/><path class="cls-1" d="M344,69.39a5,5,0,0,1-5-5V38a5,5,0,1,1,10,0V64.39A5,5,0,0,1,344,69.39Z"/><path class="cls-1" d="M392,167.16a5,5,0,0,1-5-5v-67a5,5,0,1,1,10,0v67A5,5,0,0,1,392,167.16Z"/><path class="cls-1" d="M410,259H311.25a5,5,0,0,1-5-5V230.52a5,5,0,0,1,5-5H410a5,5,0,0,1,5,5V254A5,5,0,0,1,410,259Zm-93.75-10H405V235.52H316.25Z"/><path class="cls-1" d="M439.39,137.06a33.94,33.94,0,0,1-18-5.14c-13.09-8-26.23-.32-26.78,0a5,5,0,0,1-5.22-8.53c.76-.46,18.83-11.31,37.24,0,9.94,6.11,19.92,3.12,24.38,1.19V102.72c-7.12,2.24-18.3,3.66-29.62-3.3-13.09-8-26.23-.32-26.78,0a5,5,0,0,1-5.22-8.53c.76-.46,18.83-11.31,37.24,0,13.09,8,26.23.32,26.78,0a5,5,0,0,1,7.6,4.27v32.5a5,5,0,0,1-2.38,4.26A39.81,39.81,0,0,1,439.39,137.06Z"/></g><g id="Outline"><path class="cls-1" d="M189,202.41h0a5,5,0,0,1-5-5v-1a5,5,0,0,1,5-5h0a5,5,0,0,1,5,5v1A5,5,0,0,1,189,202.41Z"/><path class="cls-1" d="M208.5,202.41h0a5,5,0,0,1-5-5v-1a5,5,0,0,1,5-5h0a5,5,0,0,1,5,5v1A5,5,0,0,1,208.5,202.41Z"/><path class="cls-1" d="M169.54,202.41h0a5,5,0,0,1-5-5v-1a5,5,0,0,1,5-5h0a5,5,0,0,1,5,5v1A5,5,0,0,1,169.54,202.41Z"/><path class="cls-1" d="M360.25,190.16h0a5,5,0,0,1-5-5v-1a5,5,0,0,1,5-5h0a5,5,0,0,1,5,5v1A5,5,0,0,1,360.25,190.16Z"/><path class="cls-1" d="M379.73,190.16h0a5,5,0,0,1-5-5v-1a5,5,0,0,1,5-5h0a5,5,0,0,1,5,5v1A5,5,0,0,1,379.73,190.16Z"/><path class="cls-1" d="M340.77,190.16h0a5,5,0,0,1-5-5v-1a5,5,0,0,1,5-5h0a5,5,0,0,1,5,5v1A5,5,0,0,1,340.77,190.16Z"/><path class="cls-1" d="M359.8,100.16a5,5,0,0,1-3.52-1.45l-29-28.85a5,5,0,0,1,7-7.1l29.05,28.85a5,5,0,0,1-3.52,8.55Z"/><path class="cls-1" d="M361.75,133a5,5,0,0,1-3.42-1.35l-33-31a5,5,0,0,1,6.85-7.29l33,31a5,5,0,0,1-3.42,8.65Z"/><path class="cls-1" d="M366.75,165.93a4.94,4.94,0,0,1-3-1l-44-33a5,5,0,0,1,6-8l44,33a5,5,0,0,1-3,9Z"/></g></svg>