<?xml version="1.0" ?><svg id="Lines" viewBox="0 0 512 512" xmlns="http://www.w3.org/2000/svg"><defs><style>.cls-1{fill:#3f456b;}</style></defs><title/><path class="cls-1" d="M400.23,126.54a5,5,0,0,1-5-4.77c-.45-10.14,5-31.64,28.74-40.43s41.4,4.31,47.33,12.49a5,5,0,0,1-8.09,5.89c-.53-.73-13.18-17.35-35.77-9-22.94,8.48-22.23,30.38-22.22,30.6a5,5,0,0,1-4.77,5.22Z"/><path class="cls-1" d="M428.48,139.59a42.8,42.8,0,0,1-30-12.47c-4.83,1.17-13.9,3.36-16.69,3.81a5,5,0,1,1-1.62-9.86c2.76-.45,14.54-3.32,18.84-4.38a5,5,0,0,1,5.14,1.77c.55.69,14.05,17.19,36.79,8.79S462.33,98,462.27,97.14a5,5,0,0,1,10-.78,40.73,40.73,0,0,1-2.59,16c-2.94,7.88-9.69,18.48-25.23,24.23A45.8,45.8,0,0,1,428.48,139.59Z"/><path class="cls-1" d="M160,227c-58.68,0-91-30.19-91-85,0-24.46,7.57-45.22,21.91-60,16-16.56,39.26-25,69.09-25,31,0,54.65,8.41,70.27,25C244,96.62,251,116.81,251,142s-7,45.38-20.73,60C214.65,218.59,191,227,160,227Zm0-160c-27,0-47.85,7.37-61.91,21.91C85.6,101.82,79,120.18,79,142c0,22.71,5.94,40.59,17.66,53.16C110.17,209.65,131.48,217,160,217c28.14,0,49.33-7.35,63-21.86,12-12.7,18-30.58,18-53.14s-6.06-40.44-18-53.14C209.33,74.35,188.14,67,160,67Z"/><path class="cls-1" d="M61.77,141.18c-15,0-26.35-8-31.44-22.94-8.1-23.71,2.49-60.62,27.79-70.87,12.39-5,23.59-5.22,33.27-.58,15.89,7.63,21.42,25.54,21.65,26.3A5,5,0,0,1,103.46,76c0-.19-4.58-14.53-16.46-20.19-7-3.34-15.48-3.06-25.12.85-16.62,6.74-30.07,35-22.09,58.38,3.39,9.9,11.88,20.46,33.13,14.5a5,5,0,1,1,2.7,9.63A51.39,51.39,0,0,1,61.77,141.18Z"/><path class="cls-1" d="M260.1,141.18a51.39,51.39,0,0,1-13.85-2,5,5,0,0,1,2.69-9.63c21.26,6,29.75-4.6,33.13-14.5,8-23.38-5.47-51.64-22.08-58.38-9.65-3.91-18.1-4.19-25.12-.85C223,61.44,218.45,75.83,218.4,76a5,5,0,0,1-9.57-2.88c.23-.76,5.75-18.67,21.65-26.3,9.68-4.64,20.87-4.45,33.27.58,25.3,10.25,35.89,47.16,27.79,70.87C286.45,133.14,275.11,141.18,260.1,141.18Z"/><path class="cls-1" d="M158.12,195c-8.44,0-15.17-2.33-20.05-7a24.78,24.78,0,0,1-7.34-16.33c-.24-2.62-2.14-26.8,9.48-39.68,4.81-5.33,11.13-8,18.79-8s14,2.7,18.79,8c11.82,13.1,9.65,37.89,9.47,39.79-.2,3.06-2.36,21.81-26.54,23.11C159.84,195,159,195,158.12,195Zm-17.39-23.65a14.64,14.64,0,0,0,4.3,9.51c3.3,3.07,8.4,4.45,15.16,4.08,7.28-.39,12.35-2.85,15.07-7.31a14,14,0,0,0,2-6.25,4.07,4.07,0,0,1,0-.5c.62-6.12.57-23.85-6.94-32.16-2.87-3.18-6.59-4.72-11.36-4.72s-8.49,1.54-11.36,4.72c-7.51,8.31-7.56,26-6.94,32.16A3.83,3.83,0,0,1,140.73,171.35Zm0,0h0Z"/><path class="cls-1" d="M123.23,136.38a5,5,0,0,1-5-5v-2.84a5,5,0,1,1,10,0v2.84A5,5,0,0,1,123.23,136.38Z"/><path class="cls-1" d="M196,136.38a5,5,0,0,1-5-5v-2.84a5,5,0,1,1,10,0v2.84A5,5,0,0,1,196,136.38Z"/><path class="cls-1" d="M152.22,180.38a5,5,0,0,1-5-5v-2.84a5,5,0,0,1,10,0v2.84A5,5,0,0,1,152.22,180.38Z"/><path class="cls-1" d="M167,180.38a5,5,0,0,1-5-5v-2.84a5,5,0,1,1,10,0v2.84A5,5,0,0,1,167,180.38Z"/><path class="cls-1" d="M211.26,314.92c-22.77,0-52.4-1.66-82.3-8a5,5,0,0,1,2.08-9.78c59.45,12.67,119.79,6,120.39,5.92l.43,0c.12,0,13.87-.58,21.72-9.45,4.35-4.92,6.18-11.69,5.44-20.11-.58-6.61-3.94-11-10.25-13.52a30.31,30.31,0,0,0-10.6-1.92H258c-90.92,0-131.19-15.69-132.86-16.36a5,5,0,1,1,3.72-9.28c.68.26,40.77,15.63,129.05,15.64,10-.33,29.29,4.33,31.07,24.56,1,11.31-1.68,20.62-8,27.68-10.21,11.48-26.37,12.64-28.63,12.75A397.6,397.6,0,0,1,211.26,314.92Z"/><path class="cls-1" d="M187,428a5,5,0,0,1-4.26-7.61c12.57-20.52,21.82-68.68,8.81-93.15-4.88-9.17-12.14-13.84-22.22-14.29-42.88-1.85-66.75,39.11-67,39.52a5,5,0,0,1-8.7-4.94c1.09-1.91,27.17-46.72,76.12-44.57,13.53.6,24.12,7.37,30.61,19.59,6.8,12.79,9.09,31.74,6.45,53.36-2.32,19-8.14,37.58-15.57,49.7A5,5,0,0,1,187,428Z"/><path class="cls-1" d="M197.78,467c-6.2,0-12.47-2.09-17.19-3.67l-.14,0c-2.49-.83-4.93-1.74-7.21-2.59-15.33-5.75-46.7-10.69-47-10.74-33-5-53.38-19.58-55.13-20.87-25.24-17.33-38.72-48.69-38-88.29.59-31.64,10.67-67.16,25.66-90.48,25.27-39.31,18.36-66.71,18.29-67a5,5,0,0,1,9.63-2.67c.36,1.28,8.39,31.67-19.5,75C53.14,277.58,43.69,311.05,43.12,341c-.48,25.59,5,60.22,33.71,79.91L77,421c.19.14,19.52,14.33,50.75,19.06,1.35.21,32.71,5.15,49,11.26,2.18.82,4.52,1.68,6.86,2.46l.14.05c6,2,14.23,4.75,19.12,2a6.88,6.88,0,0,0,3.17-5.41c.45-3.66-.86-7.86-3.14-10-5.33-5-13.26-8-20.93-10.58a136.67,136.67,0,0,0-14.08-4,5,5,0,0,1,2.2-9.76,146.58,146.58,0,0,1,15.1,4.31c8.7,2.95,17.76,6.37,24.56,12.75,4.63,4.35,7.07,11.62,6.21,18.51-.72,5.78-3.64,10.37-8.24,12.92A20.18,20.18,0,0,1,197.78,467Z"/><path class="cls-1" d="M155.94,455.6a4.86,4.86,0,0,1-.92-.09c-15.9-3-26.38-14.18-30.29-32.4-6.87-32,8.49-75.44,25.41-87.21a5,5,0,1,1,5.72,8.2c-14.08,9.8-27.21,49.61-21.35,76.91,3,14.17,10.56,22.47,22.35,24.67a5,5,0,0,1-.92,9.92Z"/><path class="cls-1" d="M225,257.25h-.18a5,5,0,0,1-4.82-5.17c.86-25-13.17-36.76-13.31-36.88a5,5,0,0,1,6.33-7.74c.74.61,18,15.09,17,45A5,5,0,0,1,225,257.25Z"/><path class="cls-1" d="M202.9,363.5a5,5,0,0,1-4.36-7.45c14.34-25.5,19.54-47,19.59-47.2a5,5,0,0,1,9.74,2.3c-.22.93-5.54,23-20.61,49.8A5,5,0,0,1,202.9,363.5Z"/><path class="cls-1" d="M244,500H125a5,5,0,0,1-4.23-7.66c16.63-26.41,25.1-43.76,25.18-43.93a5,5,0,0,1,9,4.37c-.32.65-7.19,14.73-21,37.22H240.53C261,435.23,284,367.09,284.26,366.4a5,5,0,0,1,2-2.58c5-3.26,11-8.4,11.42-14.38s-4.87-10.59-4.93-10.64a5.05,5.05,0,0,1-1.24-6C345.45,223.16,398.48,54.87,409.24,20h-64.3c-4.92,19.8-29,111.07-71.71,178.67a5,5,0,0,1-2.45,2c-1.65.64-16.1,6.7-11.12,19.52a5,5,0,0,1,.14,3.22c-.21.71-5.23,17.65-12.4,31a5,5,0,1,1-8.8-4.74c5.49-10.2,9.76-23.15,11.14-27.52a21.49,21.49,0,0,1,.64-15.71c3.61-8.13,11.71-12.7,15.2-14.36C312,117.76,335.89,14.92,336.13,13.89A5,5,0,0,1,341,10h75a5,5,0,0,1,4.79,6.44C420.2,18.39,362,211,302,334.09c2.62,3.2,6.08,8.82,5.65,15.89-.47,7.74-5.33,14.88-14.47,21.22-3.69,10.88-25.46,74.76-44.51,125.56A5,5,0,0,1,244,500Z"/><path class="cls-1" d="M273,276.45c-7.29,0-15-.39-16.25-.46a5,5,0,1,1,.52-10c5.15.27,19.69.8,25,0a5,5,0,1,1,1.42,9.9A86.71,86.71,0,0,1,273,276.45Z"/><path class="cls-1" d="M264.19,294.25c-5.67,0-10.1-.24-10.47-.26a5,5,0,0,1,.56-10c.17,0,17.49.94,26.74-.91a5,5,0,1,1,2,9.8C277.58,294,270.19,294.25,264.19,294.25Z"/><path class="cls-1" d="M376.08,418.83c-20.15,0-36.11-4.38-47.64-13.12-14-10.64-15.94-23.92-16-24.48a5,5,0,0,1,9.91-1.34c.24,1.6,6.5,37.23,77,27.16a5,5,0,1,1,1.42,9.9A174.42,174.42,0,0,1,376.08,418.83Z"/><path class="cls-1" d="M434.73,311.93a5,5,0,0,1-4.31-2.47c-5.14-8.75-10.38-30.29,6.53-49.17,11.05-12.33,23.39-14.73,31.8-14.55a40.83,40.83,0,0,1,15.87,3.48,5,5,0,0,1-4.4,9c-.82-.4-19.76-9.18-35.83,8.75-16.31,18.22-5.46,37.25-5.35,37.44a5,5,0,0,1-4.31,7.53Z"/><path class="cls-1" d="M448.36,314.55a39.7,39.7,0,0,1-15.67-3.05,5,5,0,0,1,4.08-9.13c.81.35,20.46,8.63,36.63-9.42s4.91-36.37,4.79-36.55a5,5,0,1,1,8.44-5.38c5.43,8.52,11.2,29.64-5.78,48.6C470.56,311.1,458.39,314.54,448.36,314.55Z"/><path class="cls-1" d="M381.92,363a5,5,0,0,1-1.94-9.61c.85-.36,19.93-8.81,17-32.71-2.91-24.06-23.76-28.53-24.64-28.71a5,5,0,0,1,1.91-9.82c10,1.91,29.62,12.18,32.65,37.33s-13.78,39.27-23.12,43.14A4.93,4.93,0,0,1,381.92,363Z"/><path class="cls-1" d="M381.92,363a5,5,0,0,1-.76-.06c-10-1.53-29.67-11.12-32.72-36.39s13.6-39.81,22.83-44a5,5,0,1,1,4.17,9.08c-.8.38-20,9.69-17.08,33.75s24.11,27.68,24.32,27.71a5,5,0,0,1-.76,9.94Z"/><path class="cls-1" d="M401.25,418a5.2,5.2,0,0,1-1.34-.18,5,5,0,0,1-3.48-6.13c2.68-9.79,14.44-28.58,39.76-29.65s38.07,16.8,41.21,26.4a5,5,0,0,1-9.5,3.13c-.29-.86-7.2-20.55-31.29-19.54s-30.3,21.46-30.55,22.33A5,5,0,0,1,401.25,418Z"/><path class="cls-1" d="M436.5,440.93c-23.91,0-36.55-17-39.94-26.23a5,5,0,1,1,9.38-3.45c.31.82,8.09,20.65,32.32,19.65s29.47-21.88,29.51-22.09a5,5,0,1,1,9.74,2.29c-2.31,9.83-13.4,28.71-38.83,29.79C438,440.92,437.22,440.93,436.5,440.93Z"/><path class="cls-1" d="M301.36,386.06a112.15,112.15,0,0,1-17.19-1.13,5,5,0,0,1,1.66-9.86h0c.22,0,22.66,3.63,51.89-3.37,39-9.35,71-32.14,95.08-67.74a5,5,0,0,1,8.29,5.6c-31.93,47.19-72.81,65.18-101.49,72A167,167,0,0,1,301.36,386.06Z"/></svg>