<?xml version="1.0" ?><svg viewBox="0 0 512 512" xmlns="http://www.w3.org/2000/svg"><defs><style>.cls-1{fill:#3f456b;}</style></defs><title/><g id="Lines"><path class="cls-1" d="M468.87,430.89a5,5,0,0,1,0-10,17.12,17.12,0,0,0,4.53-1.31l.3-.12a25,25,0,0,0,16.67-23.57v-290a25,25,0,0,0-25-25H417.29a5,5,0,0,1,0-10h48.08a35,35,0,0,1,35,35v290a35.07,35.07,0,0,1-23.19,32.95C476.07,429.3,472.05,430.89,468.87,430.89Z"/><path class="cls-1" d="M288.54,80.89H186.37a5,5,0,0,1,0-10H288.54a5,5,0,0,1,0,10Z"/><path class="cls-1" d="M60.37,430.89h-15a35,35,0,0,1-35-35v-290a35.09,35.09,0,0,1,30.34-34.7A5,5,0,0,1,42,81.11a25,25,0,0,0-21.66,24.78v290a25,25,0,0,0,25,25h15a5,5,0,1,1,0,10Z"/><path class="cls-1" d="M495.37,353.89h-20a5,5,0,0,1,0-10h20a5,5,0,0,1,0,10Z"/><path class="cls-1" d="M60.37,353.89h-45a5,5,0,0,1,0-10h45a5,5,0,1,1,0,10Z"/><path class="cls-1" d="M184.37,55.88H42.87a5,5,0,0,1,0-10h141.5a5,5,0,0,1,0,10Z"/><path class="cls-1" d="M184.37,220.38H42.87a5,5,0,0,1,0-10h141.5a5,5,0,0,1,0,10Z"/><path class="cls-1" d="M165.57,258.89h-104a25.58,25.58,0,0,1-25.21-25.26V32.8A25.1,25.1,0,0,1,61.58,7.88h104a24.89,24.89,0,0,1,24.8,24.92V233.63A25.06,25.06,0,0,1,165.57,258.89Zm-104-241A15.27,15.27,0,0,0,46.37,32.8V233.63a15.44,15.44,0,0,0,15.21,15.26h104c8,0,14.8-7,14.8-15.26V32.8a14.88,14.88,0,0,0-14.8-14.92Z"/><path class="cls-1" d="M123.87,37.38h-21.5a5,5,0,1,1,0-10h21.5a5,5,0,0,1,0,10Z"/><path class="cls-1" d="M343.37,475.89h-158a15,15,0,0,1-15-15v-11a5,5,0,0,1,10,0v11a5,5,0,0,0,5,5h158a5,5,0,0,0,5-5v-11a5,5,0,0,1,10,0v11A15,15,0,0,1,343.37,475.89Z"/><path class="cls-1" d="M456.26,497.89H73.74a35.42,35.42,0,0,1-35.37-35.38V449.89a5,5,0,0,1,5-5h443a5,5,0,0,1,5,5v12.62A35.28,35.28,0,0,1,456.26,497.89Zm-407.89-43v7.62a25.41,25.41,0,0,0,25.37,25.38H456.26a25.27,25.27,0,0,0,25.11-25.38v-7.62Z"/><path class="cls-1" d="M90.74,454.89a35.42,35.42,0,0,1-35.37-35.38V254.22a5,5,0,0,1,10,0V419.51a25.41,25.41,0,0,0,25.37,25.38,5,5,0,1,1,0,10Z"/><path class="cls-1" d="M114.37,238.89h-1a5,5,0,0,1,0-10h1a5,5,0,0,1,0,10Z"/><path class="cls-1" d="M439,454.89a5,5,0,0,1,0-10,25.41,25.41,0,0,0,25.38-25.38V194.26a25.4,25.4,0,0,0-5.8-16.14,3.53,3.53,0,0,1-.52-.76c-.16-.27-5.35-8.47-23.14-8.47h-6.83a5,5,0,0,1,0-10h6.83c9.88,0,18.13,2.13,24.54,6.35a23.55,23.55,0,0,1,7.07,6.81,35.45,35.45,0,0,1,7.85,22.21V419.51A35.42,35.42,0,0,1,439,454.89Z"/><path class="cls-1" d="M274.15,168.89H185.87a5,5,0,0,1,0-10h88.28a5,5,0,0,1,0,10Z"/><g data-name="&lt;编组&gt;" id="_编组_"><path class="cls-1" d="M373.52,225.74a5,5,0,0,1-4.73-3.4l-17.16-50.71L335,222.22a5,5,0,0,1-6,3.29A77.14,77.14,0,0,1,281.62,191c-10.36-16.57-15.49-37.37-14.83-60.13.75-26.06,9.33-49.56,24.15-66.17,16-17.94,38-27.06,63.69-26.32h.08c26.16.76,47.8,11.13,62.59,30,13.55,17.27,20.59,41.21,19.83,67.43-1.33,46-25.23,80.42-62.37,89.84A5.32,5.32,0,0,1,373.52,225.74Zm-22-74.93a5,5,0,0,1,4.73,3.4l20.44,60.4a66.78,66.78,0,0,0,35.38-27.19c9.25-14,14.45-32,15-52,.69-23.88-5.6-45.54-17.7-61C396.55,58.06,377.55,49,354.49,48.33h-.09c-22.66-.63-42,7.3-56,23-13.26,14.86-20.94,36.1-21.62,59.81-1.21,41.56,17.93,73.06,50.24,83.43l19.77-60.28a5,5,0,0,1,4.73-3.45Z"/></g><path class="cls-1" d="M352.32,220.74A60.23,60.23,0,0,1,331.1,217a5,5,0,0,1,3.78-9.25c.18.07,16.88,6.67,34,0a5,5,0,1,1,3.64,9.32A55.28,55.28,0,0,1,352.32,220.74Z"/><path class="cls-1" d="M271.79,138.07H250a5,5,0,0,1,0-10h21.78a5,5,0,0,1,0,10Z"/><path class="cls-1" d="M454,138.07H432.19a5,5,0,0,1,0-10H454a5,5,0,0,1,0,10Z"/><path class="cls-1" d="M415.92,78.9a5,5,0,0,1-2.37-9.41c15.81-8.52,23.22-17.84,23.29-17.93a5,5,0,0,1,7.9,6.13c-.34.44-8.62,11-26.45,20.61A5.08,5.08,0,0,1,415.92,78.9Z"/><path class="cls-1" d="M288.53,79.91a5,5,0,0,1-2.24-.53C266.72,69.54,257.41,58.26,257,57.79a5,5,0,1,1,7.75-6.32c.16.2,8.58,10.21,26,19a5,5,0,0,1-2.25,9.47Z"/><path class="cls-1" d="M260.9,216.51a4.93,4.93,0,0,1-3-1,5,5,0,0,1-.9-7c.36-.47,9.15-11.67,28.14-21.5a5,5,0,1,1,4.6,8.88c-17.05,8.82-24.75,18.64-24.83,18.74A5,5,0,0,1,260.9,216.51Z"/><path class="cls-1" d="M440.79,216.51a5,5,0,0,1-3.87-1.84h0c-.08-.09-7.82-9.36-23.9-17.88a5,5,0,0,1,4.69-8.84c18,9.54,26.6,20,27,20.4a5,5,0,0,1-3.87,8.16Z"/><path class="cls-1" d="M351.2,48.29c-37.68,0-38.12-33-38.12-33.29a5,5,0,0,1,10,0c0,2.41,1.06,23.31,28.12,23.31C379,38.29,379.31,16,379.31,15a5,5,0,0,1,10,0C389.31,15.33,388.88,48.29,351.2,48.29ZM323.08,15h0Z"/><path class="cls-1" d="M350.85,90c-43.17,0-55.49-23.49-56-24.49a5,5,0,0,1,8.91-4.54c.46.86,10.59,19,47.09,19,38.24,0,50.66-19.2,50.78-19.39a5,5,0,0,1,8.49,5.29C409.5,66.85,394.57,90,350.85,90Z"/><path class="cls-1" d="M351.55,163a5,5,0,0,1-5-5V85.9a5,5,0,0,1,10,0V158A5,5,0,0,1,351.55,163Z"/></g><g id="Outline"><path class="cls-1" d="M277,309.63a5,5,0,0,1-5-5V276.37a5,5,0,0,1,10,0v28.26A5,5,0,0,1,277,309.63Z"/><path class="cls-1" d="M209.83,310.81c-11,0-15-9-15-15v-10c0-6,4-15,15-15s15,9,15,15v10C224.84,301.83,220.84,310.81,209.83,310.81Zm0-30c-4.52,0-5,3.5-5,5v10c.05,1.83.76,5,5,5,1.17,0,5-.37,5-5v-10C214.79,284,214.08,280.78,209.83,280.78Z"/><path class="cls-1" d="M246.94,310.81c-11,0-15-9-15-15v-10c0-6,4-15,15-15s15,9,15,15v10C262,301.83,258,310.81,246.94,310.81Zm0-30c-4.52,0-5,3.5-5,5v10c0,1.83.77,5,5,5,4.53,0,5-3.51,5-5v-10C251.91,284,251.19,280.78,246.94,280.78Z"/><path class="cls-1" d="M333.4,309.63a5,5,0,0,1-5-5V276.37a5,5,0,0,1,10,0v28.26A5,5,0,0,1,333.4,309.63Z"/><path class="cls-1" d="M304.91,310.24c-11,0-15-9-15-15v-10c0-6,4-15,15-15s15,9,15,15v10C319.92,301.27,315.92,310.24,304.91,310.24Zm0-30c-4.52,0-5,3.51-5,5v10c.05,1.84.76,5,5,5,4.52,0,5-3.5,5-5v-10C309.87,283.39,309.16,280.21,304.91,280.21Z"/><path class="cls-1" d="M257.24,358a5,5,0,0,1-5-5V324.77a5,5,0,0,1,10,0V353A5,5,0,0,1,257.24,358Z"/><path class="cls-1" d="M324.39,358.62c-11,0-15-9-15-15v-10c0-6,4-15,15-15s15,9,15,15v10C339.4,349.64,335.4,358.62,324.39,358.62Zm0-30c-4.52,0-5,3.5-5,5v10c.05,1.83.76,5,5,5,4.52,0,5-3.51,5-5v-10C329.35,331.76,328.64,328.59,324.39,328.59Z"/><path class="cls-1" d="M287.27,358.62c-11,0-15-9-15-15v-10c0-6,4-15,15-15s15,9,15,15v10C302.28,349.64,298.29,358.62,287.27,358.62Zm0-30c-1.17,0-5,.36-5,5v10c.05,1.83.77,5,5,5,4.53,0,5-3.51,5-5v-10C292.24,331.76,291.52,328.59,287.27,328.59Z"/><path class="cls-1" d="M200.82,358a5,5,0,0,1-5-5V324.77a5,5,0,0,1,10,0V353A5,5,0,0,1,200.82,358Z"/><path class="cls-1" d="M229.31,359.18c-11,0-15-9-15-15v-10c0-6,4-15,15-15s15,9,15,15v10C244.32,350.21,240.32,359.18,229.31,359.18Zm0-30c-4.52,0-5,3.51-5,5v10c0,1.84.76,5,5,5,4.52,0,5-3.5,5-5v-10C234.27,332.33,233.56,329.15,229.31,329.15Z"/></g></svg>