<?xml version="1.0" ?><svg viewBox="0 0 512 512" xmlns="http://www.w3.org/2000/svg"><defs><style>.cls-1{fill:#3f456b;}</style></defs><title/><g id="Lines"><path class="cls-1" d="M350.5,338.31h-52a15,15,0,0,1-15-15V178.94a15,15,0,0,1,15-15h52a15,15,0,0,1,15,15V323.31A15,15,0,0,1,350.5,338.31Zm-52-164.37a5,5,0,0,0-5,5V323.31a5,5,0,0,0,5,5h52a5,5,0,0,0,5-5V178.94a5,5,0,0,0-5-5Z"/><path class="cls-1" d="M259.13,240.3H204.3a5,5,0,0,1-5-5V175.89a5,5,0,0,1,5-5h54.83a5,5,0,0,1,5,5V235.3A5,5,0,0,1,259.13,240.3Zm-49.83-10h44.83V180.89H209.3Z"/><path class="cls-1" d="M179.13,240.3H124.3a5,5,0,0,1-5-5V175.89a5,5,0,0,1,5-5h54.83a5,5,0,0,1,5,5V235.3A5,5,0,0,1,179.13,240.3Zm-49.83-10h44.83V180.89H129.3Z"/><path class="cls-1" d="M99.13,240.3H44.3a5,5,0,0,1-5-5V175.89a5,5,0,0,1,5-5H99.13a5,5,0,0,1,5,5V235.3A5,5,0,0,1,99.13,240.3Zm-49.83-10H94.13V180.89H49.3Z"/><path class="cls-1" d="M32.72,279.69H16.58a5,5,0,1,1,0-10H32.72c.36,0,1.38-1,1.38-2.78v-10.1c0-1.82-1-2.77-1.38-2.77H16.57a5,5,0,0,1,0-10H32.72c6.28,0,11.38,5.73,11.38,12.77v10.1C44.1,274,39,279.69,32.72,279.69Z"/><path class="cls-1" d="M498,279.19h-32a12.73,12.73,0,0,1-13-12.45v-9.67a12.73,12.73,0,0,1,13-12.45h32a5,5,0,0,1,0,10h-32a2.78,2.78,0,0,0-3,2.45v9.67a2.78,2.78,0,0,0,3,2.45h32a5,5,0,0,1,0,10Z"/><path class="cls-1" d="M106.88,398.14A45.11,45.11,0,1,1,152,353,45.17,45.17,0,0,1,106.88,398.14Zm0-80.22A35.11,35.11,0,1,0,142,353,35.15,35.15,0,0,0,106.88,317.92Z"/><path class="cls-1" d="M106.88,370.62A17.59,17.59,0,1,1,124.47,353,17.61,17.61,0,0,1,106.88,370.62Zm0-25.18a7.59,7.59,0,1,0,7.59,7.59A7.6,7.6,0,0,0,106.88,345.44Z"/><path class="cls-1" d="M426.63,398.14A45.11,45.11,0,1,1,471.74,353,45.17,45.17,0,0,1,426.63,398.14Zm0-80.22A35.11,35.11,0,1,0,461.74,353,35.15,35.15,0,0,0,426.63,317.92Z"/><path class="cls-1" d="M426.63,370.62A17.59,17.59,0,1,1,444.22,353,17.61,17.61,0,0,1,426.63,370.62Zm0-25.18a7.59,7.59,0,1,0,7.59,7.59A7.6,7.6,0,0,0,426.63,345.44Z"/><path class="cls-1" d="M386.52,358.75H307a5,5,0,0,1,0-10h79.55a5,5,0,0,1,0,10Z"/><path class="cls-1" d="M66.77,358.9h-51a5,5,0,0,1-5-5V150.61c0-16,13-21.75,21.75-21.75H408.24c18.59,0,25.71,12.93,26.95,20l16.24,64.59L475,216.78c10,.56,28.43,6.53,28.43,25.38V339.3a16.13,16.13,0,0,1-3.53,12.11c-3.95,4.77-10.56,7.19-19.65,7.19H466.74a5,5,0,0,1,0-10h13.49c5.89,0,10-1.23,11.95-3.57a6.21,6.21,0,0,0,1.32-4.45,4.88,4.88,0,0,1-.09-.93V242.16c0-14.21-18.39-15.37-19.17-15.41l-.45,0-27.1-3.85a5,5,0,0,1-4.14-3.74l-17.11-68-.09-.43c-.21-1.16-2.54-11.79-17.11-11.79H32.5c-1.93,0-11.75.72-11.75,11.75V348.9h46a5,5,0,0,1,0,10Z"/><path class="cls-1" d="M392.5,257a5,5,0,0,1-5-5v-8.16a5,5,0,0,1,10,0V252A5,5,0,0,1,392.5,257Z"/><path class="cls-1" d="M447.4,223.07H384.74a5,5,0,0,1-5-5V169.91a5,5,0,0,1,5-5h50.37a5,5,0,0,1,0,10H389.74v38.16H447.4a5,5,0,0,1,0,10Z"/><path class="cls-1" d="M307,358.75H147a5,5,0,0,1,0-10H307a5,5,0,0,1,0,10Z"/><path class="cls-1" d="M242,358.26a5,5,0,0,1-4.19-2.26l-13.51-20.6H142.84a5,5,0,0,1,0-10H227a5,5,0,0,1,4.18,2.25l15,22.86a5,5,0,0,1-4.17,7.75Z"/><path class="cls-1" d="M496.26,335.4H459.75a5,5,0,0,1,0-10h36.51a5,5,0,0,1,0,10Z"/><path class="cls-1" d="M72.27,335.4H18.77a5,5,0,1,1,0-10h53.5a5,5,0,0,1,0,10Z"/><path class="cls-1" d="M497.92,308.23H474.6a5,5,0,0,1,0-10h23.32a5,5,0,1,1,0,10Z"/><path class="cls-1" d="M359.53,256.44h-71a5,5,0,0,1,0-10h71a5,5,0,0,1,0,10Z"/><path class="cls-1" d="M470.5,207.11h-3a15,15,0,0,1-15-15V179.66a15,15,0,0,1,15-15h3a15,15,0,0,1,15,15v12.45A15,15,0,0,1,470.5,207.11Zm-3-32.45a5,5,0,0,0-5,5v12.45a5,5,0,0,0,5,5h3a5,5,0,0,0,5-5V179.66a5,5,0,0,0-5-5Z"/><path class="cls-1" d="M465.63,174.66H427.56a5,5,0,0,1,0-10h38.07a5,5,0,0,1,0,10Z"/><path class="cls-1" d="M64.5,138.86a5,5,0,0,1-5-5v-6a15,15,0,0,1,15-15h92.17a15,15,0,0,1,15,15v5.5a5,5,0,0,1-10,0v-5.5a5,5,0,0,0-5-5H74.5a5,5,0,0,0-5,5v6A5,5,0,0,1,64.5,138.86Z"/><path class="cls-1" d="M242.71,138.86a5,5,0,0,1-5-5v-6a15,15,0,0,1,15-15h92.16a15,15,0,0,1,15,15v5.5a5,5,0,0,1-10,0v-5.5a5,5,0,0,0-5-5H252.71a5,5,0,0,0-5,5v6A5,5,0,0,1,242.71,138.86Z"/></g><g id="Outline"><path class="cls-1" d="M430.29,156.86H19.44a5,5,0,1,1,0-10H430.29a5,5,0,1,1,0,10Z"/><path class="cls-1" d="M256,262H64.5a5,5,0,0,1,0-10H256a5,5,0,1,1,0,10Z"/><path class="cls-1" d="M256,283.2H64.5a5,5,0,0,1,0-10H256a5,5,0,0,1,0,10Z"/><path class="cls-1" d="M256,304.36H64.5a5,5,0,0,1,0-10H256a5,5,0,0,1,0,10Z"/></g></svg>