<?xml version="1.0" ?><svg viewBox="0 0 512 512" xmlns="http://www.w3.org/2000/svg"><defs><style>.cls-1{fill:#3f456b;}</style></defs><title/><g id="Lines"><path class="cls-1" d="M298,244c-6.94,0-12.43-2.11-16.35-6.26-5.78-6.13-5.74-14.3-5.68-15.86V176.27c0-21.81,6.41-39.16,19.05-51.54,15.36-15.06,35.58-18.47,44.93-19.23V94a5,5,0,0,1,10,0v16.29a5,5,0,0,1-5.11,5c-.25,0-25.74-.23-42.89,16.64-10.6,10.44-16,25.35-16,44.34V222a2.71,2.71,0,0,1,0,.29s-.19,5.29,3,8.64c1.95,2,5,3.07,9,3.07l176-1c3.48,0,6-.87,7.64-2.58,2.55-2.73,2.38-7,2.38-7.08s0-.23,0-.34V176.27c0-19-5.38-33.9-16-44.34-17.15-16.87-42.64-16.63-42.9-16.64a5,5,0,0,1-5.09-5V94a5,5,0,0,1,10,0v11.5c9.34.76,29.56,4.17,44.93,19.23C487.57,137.11,494,154.46,494,176.27v46.6c.07,1.52.11,8.84-5.06,14.37-3.57,3.82-8.59,5.76-14.92,5.76Z"/><path class="cls-1" d="M432,99H339a15,15,0,0,1-15-15V71a15,15,0,0,1,15-15h93a15,15,0,0,1,15,15V84A15,15,0,0,1,432,99ZM339,66a5,5,0,0,0-5,5V84a5,5,0,0,0,5,5h93a5,5,0,0,0,5-5V71a5,5,0,0,0-5-5Z"/><path class="cls-1" d="M428.3,66a5,5,0,0,1-5-5V41a5,5,0,0,0-5-5H352.7a5,5,0,0,0-5,5V61a5,5,0,0,1-10,0V41a15,15,0,0,1,15-15h65.6a15,15,0,0,1,15,15V61A5,5,0,0,1,428.3,66Z"/><path class="cls-1" d="M441,213H329a5,5,0,0,1-5-5V145a5,5,0,0,1,5-5H441a5,5,0,0,1,5,5v63A5,5,0,0,1,441,213ZM334,203H436V150H334Z"/><path class="cls-1" d="M127.72,486H17.28a5,5,0,0,1-5-5V31a5,5,0,0,1,5-5H127.72a5,5,0,0,1,5,5V481A5,5,0,0,1,127.72,486ZM22.28,476H122.72V36H22.28Z"/><rect class="cls-1" height="10" transform="translate(-0.8 0.5) rotate(-0.14)" width="52.43" x="176.5" y="321.13"/><rect class="cls-1" height="10" transform="translate(-0.85 0.5) rotate(-0.14)" width="52.43" x="176.55" y="343.49"/><path class="cls-1" d="M161.23,261a5,5,0,0,1-5-5l-.49-197.82A47.34,47.34,0,0,1,202.9,10.76H203a47.32,47.32,0,0,1,47.25,47.16l.5,197.82a5,5,0,0,1-5,5l-84.55.21Zm41.58-240.2a37.33,37.33,0,0,0-37.07,37.37l.48,192.81,74.55-.18L240.29,58A37.32,37.32,0,0,0,203,20.76h-.21Z"/><path class="cls-1" d="M203.26,502.12c-6.39,0-9.94-5.21-10.57-10.15-.4-2-6.73-31.47-34.51-55.1a5,5,0,0,1-1.66-4.84l12.92-61.37a5,5,0,0,1,4.88-4l55.78-.14h0a5,5,0,0,1,4.87,3.84l14.69,61.31a5,5,0,0,1-1.62,5c-27.77,23.71-33.83,53.08-34.23,55.18-.58,5-4.09,10.25-10.52,10.27Zm-.06-10h.13a4,4,0,0,0,.56-1.48c0-.11,0-.22.05-.33.22-1.35,5.77-32.67,35.3-59.22l-13.07-54.53-47.78.12-11.48,54.54c29.54,26.4,35.41,57.75,35.65,59.11,0,.11,0,.21.05.32A3.6,3.6,0,0,0,203.2,492.12Z"/><path class="cls-1" d="M203.13,502.3a5,5,0,0,1-5-5L198,430.23a5,5,0,0,1,5-5h0a5,5,0,0,1,5,5l.17,67.08a5,5,0,0,1-5,5Z"/><path class="cls-1" d="M166.32,307.35a5,5,0,0,1-5-5l-.24-46.4,10-.06.22,41.42,64.2-.15.25-41.45,10,.06-.28,46.41a5,5,0,0,1-5,5l-74.15.18Z"/><path class="cls-1" d="M174.29,376.69a5,5,0,0,1-5-5l.49-68.72,10,.07-.45,63.68,47.06-.12.45-63.77,10,.07-.49,68.73a5,5,0,0,1-5,5l-57.05.14Z"/><path class="cls-1" d="M202.9,435.19A16.5,16.5,0,1,1,214.57,407h0a16.5,16.5,0,0,1-11.67,28.16Zm0-23a6.49,6.49,0,1,0,4.6,1.9h0A6.47,6.47,0,0,0,202.9,412.2Z"/><path class="cls-1" d="M496,500H272a5,5,0,0,1-5-5V271a5,5,0,0,1,5-5H496a5,5,0,0,1,5,5V495A5,5,0,0,1,496,500ZM277,490H491V276H277Z"/><path class="cls-1" d="M432.75,499.75a5.13,5.13,0,0,1-1.92-.38,5,5,0,0,1-3.08-4.64l.25-63.25a5,5,0,0,1,5-5h63a5,5,0,0,1,3.54,8.54l-63.25,63.25A5,5,0,0,1,432.75,499.75ZM438,436.5l-.18,46.13,46.13-46.13Z"/><path class="cls-1" d="M315.92,413.31a4.83,4.83,0,0,1-1.06-.11,5,5,0,0,1-3.83-5.94c3.5-16.22,12.23-27.39,24.57-31.45,12.08-4,22.65.63,32,4.68,6.38,2.77,12.41,5.39,18.67,5.51A26.35,26.35,0,0,0,403,380.64a39.05,39.05,0,0,1-6.25-3.28c-9.13-5.9-14-14.94-13.37-24.8,1-16.24,10.61-21.81,14.68-23.45a20.37,20.37,0,0,1,21.52,3.94c7.54,6.89,9.6,18.33,5.65,31.4a52.93,52.93,0,0,1-4.13,9.94c9.62.44,21.4-1.76,34.31-8.58a5,5,0,1,1,4.67,8.84c-15.36,8.12-31.78,11.21-45.72,9.11A37.54,37.54,0,0,1,386.06,396c-8.24-.16-15.47-3.3-22.47-6.34-8.8-3.83-16.4-7.13-24.86-4.35-11.93,3.92-16.35,16.76-17.93,24.06A5,5,0,0,1,315.92,413.31Zm89.76-75.69a10.5,10.5,0,0,0-3.91.76c-4.89,2-8,7.37-8.44,14.81-.4,6.24,2.73,11.84,8.82,15.78a32.18,32.18,0,0,0,8.27,3.69,41.8,41.8,0,0,0,5.21-11.1c2.79-9.24,1.76-16.94-2.82-21.13A10.52,10.52,0,0,0,405.68,337.62Z"/><rect class="cls-1" height="10" width="33.7" x="127.72" y="427"/><rect class="cls-1" height="10" width="27.19" x="244.81" y="427"/><rect class="cls-1" height="32.67" width="10" x="411" y="238.33"/><rect class="cls-1" height="10" width="83.65" x="245.35" y="74"/><rect class="cls-1" height="10" width="33.02" x="127.72" y="74"/></g><g id="Outline"><path class="cls-1" d="M418,181H352a5,5,0,0,1,0-10h66a5,5,0,0,1,0,10Z"/><path class="cls-1" d="M55,261H17.28a5,5,0,1,1,0-10H55a5,5,0,0,1,0,10Z"/><path class="cls-1" d="M55,164.06H17.28a5,5,0,0,1,0-10H55a5,5,0,0,1,0,10Z"/><path class="cls-1" d="M41.55,228.11H17.28a5,5,0,0,1,0-10H41.55a5,5,0,1,1,0,10Z"/><path class="cls-1" d="M41.55,196.09H17.28a5,5,0,0,1,0-10H41.55a5,5,0,0,1,0,10Z"/><path class="cls-1" d="M17.28,68a5,5,0,0,1,0-10H55a5,5,0,0,1,0,10Z"/><path class="cls-1" d="M41.55,132H17.28a5,5,0,0,1,0-10H41.55a5,5,0,1,1,0,10Z"/><path class="cls-1" d="M17.28,100a5,5,0,0,1,0-10H41.55a5,5,0,0,1,0,10Z"/><path class="cls-1" d="M55,357H17.28a5,5,0,0,1,0-10H55a5,5,0,1,1,0,10Z"/><path class="cls-1" d="M41.55,325H17.28a5,5,0,0,1,0-10H41.55a5,5,0,1,1,0,10Z"/><path class="cls-1" d="M55,453.1H17.28a5,5,0,0,1,0-10H55a5,5,0,0,1,0,10Z"/><path class="cls-1" d="M41.55,389.06H17.28a5,5,0,0,1,0-10H41.55a5,5,0,1,1,0,10Z"/><path class="cls-1" d="M41.55,421.08H17.28a5,5,0,0,1,0-10H41.55a5,5,0,1,1,0,10Z"/><path class="cls-1" d="M41.55,293H17.28a5,5,0,0,1,0-10H41.55a5,5,0,1,1,0,10Z"/></g></svg>