<?xml version="1.0" ?><svg viewBox="0 0 512 512" xmlns="http://www.w3.org/2000/svg"><defs><style>.cls-1{fill:#3f456b;}</style></defs><title/><g id="Lines"><path class="cls-1" d="M81.61,501H60.25c-5.24,0-9.47-2.79-11.91-7.86a21.31,21.31,0,0,1-1.88-6.51l-3.39-19.79a5,5,0,0,1,9.86-1.69l3.42,20c0,.14,0,.28,0,.42S57,491,60.25,491H81.61c3.26,0,3.83-5.29,3.85-5.51s0-.27.05-.39l3.42-19.88a5,5,0,1,1,9.86,1.7L95.4,486.6C94.88,491.72,91.4,501,81.61,501Z"/><path class="cls-1" d="M292.9,502H271.54c-5.24,0-9.47-2.79-11.91-7.86a21.2,21.2,0,0,1-1.87-6.51l-3.39-19.79a5,5,0,0,1,9.85-1.69l3.42,20c0,.14,0,.28.05.42s.59,5.48,3.85,5.48H292.9c3.29,0,3.85-5.42,3.85-5.48s0-.28.05-.42l3.42-19.88a5,5,0,1,1,9.86,1.7l-3.39,19.68C306.18,492.72,302.69,502,292.9,502Z"/><path class="cls-1" d="M303.69,470H49.31A37.36,37.36,0,0,1,12,432.69V49.31A37.36,37.36,0,0,1,49.31,12H303.69A37.36,37.36,0,0,1,341,49.31V432.69A37.36,37.36,0,0,1,303.69,470ZM49.31,22A27.34,27.34,0,0,0,22,49.31V432.69A27.34,27.34,0,0,0,49.31,460H303.69A27.34,27.34,0,0,0,331,432.69V49.31A27.34,27.34,0,0,0,303.69,22Z"/><path class="cls-1" d="M179,423h-6a25,25,0,0,1-25-25V322a25,25,0,0,1,25-25h6a25,25,0,0,1,25,25v76A25,25,0,0,1,179,423Zm-6-116a15,15,0,0,0-15,15v76a15,15,0,0,0,15,15h6a15,15,0,0,0,15-15V322a15,15,0,0,0-15-15Z"/><path class="cls-1" d="M432.9,415.17h-.13l-1.78-.05c-20,0-36.38-12.39-39.87-30.08-3.81-19.37,7.22-34.44,16.95-47.73A142.65,142.65,0,0,0,418,322.6a89.25,89.25,0,0,0,8.53-20.78,5,5,0,0,1,4.86-3.82h1.38a5,5,0,0,1,4.85,3.82,90.13,90.13,0,0,0,8.53,20.78A144.9,144.9,0,0,0,456,337.29c9.74,13.34,20.78,28.46,17,47.84C469.49,402.82,453,415.17,432.9,415.17Zm-.85-98.7a116.3,116.3,0,0,1-5.33,11,153.48,153.48,0,0,1-10.58,15.78C406.8,356,398,368,400.94,383.11s17.28,22,30.12,22h.12l1.78,0c17.88,0,28.05-11.05,30.2-22,3-15.09-5.88-27.19-15.24-40a155.55,155.55,0,0,1-10.55-15.75A113.79,113.79,0,0,1,432.05,316.47Z"/></g><g id="Outline"><path class="cls-1" d="M432.53,64.29c-8.6,0-16-3.71-23.93-11.64-6.47-6.48-15-8.41-25.47-5.75a52.58,52.58,0,0,0-15,6.61,5,5,0,0,1-5.68-8.22c10.8-7.49,35.83-17.07,53.19.29C424,53.94,430.17,55.85,440,53.15c4.75-1.3,8.15-4.46,11.74-7.81s7.38-6.89,12.74-8.82C477.1,32,490.06,35.15,500,45.22a5,5,0,1,1-7.11,7c-7.21-7.29-16.1-9.54-25-6.32-3.42,1.23-6.14,3.78-9.3,6.72-4.12,3.84-8.79,8.19-15.91,10.15A38.37,38.37,0,0,1,432.53,64.29Z"/><path class="cls-1" d="M432.53,116.27c-8.6,0-16-3.71-23.93-11.64-15.85-15.86-40.17.69-40.42.86a5,5,0,1,1-5.69-8.22c10.8-7.49,35.83-17.07,53.19.29,8.35,8.36,14.49,10.27,24.31,7.58,4.76-1.31,8.15-4.47,11.74-7.82s7.38-6.89,12.74-8.81C477.1,84,490.06,87.13,500,97.2a5,5,0,0,1-7.11,7c-7.21-7.29-16.1-9.53-25-6.31-3.42,1.23-6.14,3.77-9.3,6.71-4.12,3.85-8.79,8.2-15.91,10.15A38,38,0,0,1,432.53,116.27Z"/><path class="cls-1" d="M432.53,168.25c-8.6,0-16-3.7-23.93-11.63-6.47-6.48-15-8.42-25.47-5.75a52.58,52.58,0,0,0-15,6.61,5,5,0,0,1-5.68-8.23c10.8-7.49,35.83-17.07,53.19.29,8.35,8.36,14.49,10.28,24.31,7.58,4.75-1.3,8.15-4.47,11.74-7.81s7.38-6.9,12.74-8.82c12.63-4.55,25.59-1.38,35.54,8.69a5,5,0,0,1-7.11,7c-7.21-7.29-16.1-9.53-25-6.31-3.42,1.23-6.14,3.77-9.3,6.72-4.12,3.84-8.79,8.19-15.91,10.14A38,38,0,0,1,432.53,168.25Z"/><path class="cls-1" d="M432.53,221.25c-8.6,0-16-3.7-23.93-11.63-6.47-6.48-15-8.42-25.47-5.75a52.58,52.58,0,0,0-15,6.61,5,5,0,0,1-5.68-8.23c10.8-7.49,35.83-17.07,53.19.29,8.35,8.36,14.49,10.28,24.31,7.58,4.75-1.3,8.15-4.47,11.74-7.81s7.38-6.9,12.74-8.82c12.63-4.55,25.59-1.38,35.54,8.69a5,5,0,0,1-7.11,7c-7.21-7.29-16.1-9.53-25-6.31-3.42,1.23-6.14,3.77-9.3,6.72-4.12,3.84-8.79,8.19-15.91,10.14A38,38,0,0,1,432.53,221.25Z"/><path class="cls-1" d="M432.53,274.25c-8.6,0-16-3.7-23.93-11.63-6.47-6.48-15-8.42-25.47-5.75a52.58,52.58,0,0,0-15,6.61,5,5,0,0,1-5.68-8.23c10.8-7.49,35.83-17.07,53.19.29,8.35,8.36,14.49,10.28,24.31,7.58,4.75-1.3,8.15-4.47,11.74-7.81s7.38-6.9,12.74-8.82c12.63-4.55,25.59-1.38,35.54,8.69a5,5,0,0,1-7.11,7c-7.21-7.29-16.1-9.53-25-6.31-3.42,1.23-6.14,3.77-9.3,6.72-4.12,3.84-8.79,8.19-15.91,10.14A38,38,0,0,1,432.53,274.25Z"/><path class="cls-1" d="M277,221H76a5,5,0,0,1,0-10H277a5,5,0,0,1,0,10Z"/><path class="cls-1" d="M277,193.6H76a5,5,0,0,1,0-10H277a5,5,0,0,1,0,10Z"/><path class="cls-1" d="M277,167.3H76a5,5,0,0,1,0-10H277a5,5,0,0,1,0,10Z"/><path class="cls-1" d="M277,141H76a5,5,0,0,1,0-10H277a5,5,0,0,1,0,10Z"/><path class="cls-1" d="M277,114.7H76a5,5,0,0,1,0-10H277a5,5,0,0,1,0,10Z"/><path class="cls-1" d="M277,88.4H76a5,5,0,0,1,0-10H277a5,5,0,0,1,0,10Z"/><path class="cls-1" d="M277,61H76a5,5,0,0,1,0-10H277a5,5,0,0,1,0,10Z"/><path class="cls-1" d="M312,267a5,5,0,0,1,5-5h0a5,5,0,0,1,5,5h0a5,5,0,0,1-5,5h0A5,5,0,0,1,312,267Zm-20,0a5,5,0,0,1,5-5h0a5,5,0,0,1,5,5h0a5,5,0,0,1-5,5h0A5,5,0,0,1,292,267Zm-20,0a5,5,0,0,1,5-5h0a5,5,0,0,1,5,5h0a5,5,0,0,1-5,5h0A5,5,0,0,1,272,267Zm-20,0a5,5,0,0,1,5-5h0a5,5,0,0,1,5,5h0a5,5,0,0,1-5,5h0A5,5,0,0,1,252,267Zm-20,0a5,5,0,0,1,5-5h0a5,5,0,0,1,5,5h0a5,5,0,0,1-5,5h0A5,5,0,0,1,232,267Zm-20,0a5,5,0,0,1,5-5h0a5,5,0,0,1,5,5h0a5,5,0,0,1-5,5h0A5,5,0,0,1,212,267Zm-20,0a5,5,0,0,1,5-5h0a5,5,0,0,1,5,5h0a5,5,0,0,1-5,5h0A5,5,0,0,1,192,267Zm-20,0a5,5,0,0,1,5-5h0a5,5,0,0,1,5,5h0a5,5,0,0,1-5,5h0A5,5,0,0,1,172,267Zm-20,0a5,5,0,0,1,5-5h0a5,5,0,0,1,5,5h0a5,5,0,0,1-5,5h0A5,5,0,0,1,152,267Zm-20,0a5,5,0,0,1,5-5h0a5,5,0,0,1,5,5h0a5,5,0,0,1-5,5h0A5,5,0,0,1,132,267Zm-20,0a5,5,0,0,1,5-5h0a5,5,0,0,1,5,5h0a5,5,0,0,1-5,5h0A5,5,0,0,1,112,267Zm-20,0a5,5,0,0,1,5-5h0a5,5,0,0,1,5,5h0a5,5,0,0,1-5,5h0A5,5,0,0,1,92,267Zm-20,0a5,5,0,0,1,5-5h0a5,5,0,0,1,5,5h0a5,5,0,0,1-5,5h0A5,5,0,0,1,72,267Zm-20,0a5,5,0,0,1,5-5h0a5,5,0,0,1,5,5h0a5,5,0,0,1-5,5h0A5,5,0,0,1,52,267Zm-20,0a5,5,0,0,1,5-5h0a5,5,0,0,1,5,5h0a5,5,0,0,1-5,5h0A5,5,0,0,1,32,267Zm-20,0a5,5,0,0,1,5-5h0a5,5,0,0,1,5,5h0a5,5,0,0,1-5,5h0A5,5,0,0,1,12,267Z"/></g></svg>