<?xml version="1.0" ?><svg id="Lines" viewBox="0 0 512 512" xmlns="http://www.w3.org/2000/svg"><defs><style>.cls-1{fill:#3f456b;}</style></defs><title/><path class="cls-1" d="M240.55,290.2a5,5,0,0,1-5-5v-.91a5,5,0,0,1,10,0v.91A5,5,0,0,1,240.55,290.2Z"/><path class="cls-1" d="M240.55,348.8a5,5,0,0,1-5-5v-.91a5,5,0,0,1,10,0v.91A5,5,0,0,1,240.55,348.8Z"/><path class="cls-1" d="M326.44,500.44a5,5,0,0,1-3.55-1.48l-91.44-92.44a5,5,0,0,1,7.1-7L326,487.83,489.12,273l-75-75L404,208A5,5,0,1,1,397,201l13.61-13.62a5,5,0,0,1,7.07,0L499.27,269a5,5,0,0,1,.45,6.56L330.43,498.47a5,5,0,0,1-3.66,2Z"/><path class="cls-1" d="M327.17,499.72a5,5,0,0,1-3-9l65-49.37,88.68-88.68-24.54-24.55a5,5,0,0,1,7.07-7.07l28.08,28.08a5,5,0,0,1,0,7.07L396,448.68a5.47,5.47,0,0,1-.51.45L330.19,498.7A5,5,0,0,1,327.17,499.72Z"/><path class="cls-1" d="M460.34,380.8a5,5,0,0,1-3.53-1.46l-24.52-24.52a5,5,0,0,1,7.07-7.07l24.52,24.52a5,5,0,0,1-3.54,8.53Z"/><path class="cls-1" d="M185,410.12c-2.4,0-4-.12-4.21-.14h-.17L86.42,399A5,5,0,0,1,82,393.44,1340.29,1340.29,0,0,1,110,236.08C91.19,169.89,82.13,101.34,82,100.65A5,5,0,0,1,92,99.35c.09.69,9.18,69.43,28,135.28a5,5,0,0,1,0,2.61A1317,1317,0,0,0,92.54,389.61L181.67,400c5.31.4,20.36,0,27.4-6.48A12.29,12.29,0,0,0,213,384a5,5,0,0,1,10,0,22,22,0,0,1-7.17,16.9C207,409,192.22,410.12,185,410.12Z"/><path class="cls-1" d="M370.61,379a5,5,0,0,1-4.91-4.07l-36-191a5,5,0,0,1,9.82-1.86l35.12,186.29,39.72-5.84L377.66,98.69s0-.11,0-.16c-2.5-23.34-22.36-31-24.39-31.71L276.9,49.54a4.89,4.89,0,0,1-2.13-1.07l-22-18.66a4.58,4.58,0,0,1-.72-.74c0-.06-5.76-7.18-13.32-8.07H191c-5.18,0-10.36,5.69-11.91,7.88-.09.13-.2.26-.3.38l-16,18.66a5,5,0,0,1-2.69,1.62L83.35,66.82c-2.2.77-21.87,8.3-24.38,31.71a.88.88,0,0,1,0,.16L22.25,362.52,62,368.36,97.09,182.07a5,5,0,1,1,9.82,1.86l-36,191a5,5,0,0,1-5.64,4L15.89,371.7a5,5,0,0,1-4.23-5.64L49,97.39C52.38,66.57,79.33,57.6,80.48,57.24a3.31,3.31,0,0,1,.42-.12l75.37-17,14.79-17.24C172.48,21,180.22,11,191,11h48l.5,0c10.71,1.08,18.33,9.39,20.08,11.46L280.3,40.06l75.41,17.06a4.21,4.21,0,0,1,.42.12c1.15.36,28.1,9.33,31.44,40.15L425,366.06a5,5,0,0,1-4.22,5.64L371.34,379A6.11,6.11,0,0,1,370.61,379Z"/><path class="cls-1" d="M218,241a5,5,0,0,1-3.4-1.33C194.34,220.88,168,184.3,157.68,116.76c-6.14-40.11-3.77-71.82-3.66-73.15a5,5,0,0,1,10,.78,348.15,348.15,0,0,0,3.62,71.07c5.48,35.64,19.27,84.84,53.8,116.87A5,5,0,0,1,218,241Z"/><path class="cls-1" d="M218,241a5.15,5.15,0,0,1-2-.42c-44.6-19.65-69.63-50.22-82.78-72.41-14.29-24.11-18-43.45-18.12-44.26a5,5,0,0,1,.81-3.76L131.2,98,111.92,82.94a5,5,0,0,1-1.29-6.37l15-27a5,5,0,0,1,8.74,4.86L121.44,77.69l19.64,15.37a5,5,0,0,1,1,6.79l-16.76,24.2A148.49,148.49,0,0,0,142,163.44c12.4,20.81,36,49.48,78,68a5,5,0,0,1-2,9.58Z"/><path class="cls-1" d="M218,241a5,5,0,0,1-3.4-8.67C281.06,170.69,272.11,45.65,272,44.39a5,5,0,0,1,10-.78c.11,1.33,2.48,33-3.66,73.15C268,184.3,241.66,220.88,221.4,239.67A5,5,0,0,1,218,241Z"/><path class="cls-1" d="M251.62,410.12c-7.22,0-22-1.08-30.84-9.22a22,22,0,0,1-7.17-16.9L213,236a5,5,0,0,1,3-4.6c42-18.5,65.6-47.17,78-68a148.36,148.36,0,0,0,16.67-39.39l-16.76-24.2a5,5,0,0,1,1-6.79l19.63-15.37L301.63,54.43a5,5,0,1,1,8.74-4.86l15,27a5,5,0,0,1-1.29,6.37L304.79,98l15.32,22.12a5,5,0,0,1,.81,3.76c-.15.81-3.83,20.15-18.12,44.26C290,189.86,265.75,219.55,223,239.23l.6,144.75a12.31,12.31,0,0,0,3.93,9.56c7,6.5,22.08,6.89,27.4,6.48l89.13-10.41a1317,1317,0,0,0-27.45-152.37,4.92,4.92,0,0,1,0-2.61c18.82-65.88,27.9-134.59,28-135.28a5,5,0,0,1,9.92,1.3c-.09.69-9.15,69.24-27.93,135.43a1335.7,1335.7,0,0,1,27.94,157.36,5,5,0,0,1-4.39,5.53L256,410h-.17C255.59,410,254,410.12,251.62,410.12Z"/><path class="cls-1" d="M218,65a4.74,4.74,0,0,1-1.24-.16c-22-5.63-31.87-17.42-36.3-26.31a39.58,39.58,0,0,1-4.32-18.79,5,5,0,0,1,10,.68c-.07,1.1-1.05,25.29,31.74,34.37C223,53,242.47,44.31,244,18.79a5,5,0,1,1,10,.62c-2.22,36-34.37,45.32-34.69,45.41A5,5,0,0,1,218,65Z"/><path class="cls-1" d="M185,105a5,5,0,0,1-1.57-.25c-1-.35-25.28-9-30.48-59.24a5,5,0,0,1,10-1c3.42,33.11,15.38,45.24,20.87,49.14l30.37-36.81a5,5,0,0,1,7.72,6.36l-33,40A5,5,0,0,1,185,105Z"/><path class="cls-1" d="M248,105a5,5,0,0,1-4-2L213.93,63a5,5,0,1,1,8-6l27.66,36.78c6.16-3.62,19.94-15.37,23.45-49.29a5,5,0,1,1,9.94,1c-5.21,50.42-32.41,59-33.56,59.29A5.28,5.28,0,0,1,248,105Z"/><path class="cls-1" d="M197.69,217.38l-.45,0a5,5,0,0,1-4.53-5.43l9.21-102.23L193,86.41a5,5,0,1,1,9.34-3.57l9.31,24.37a5,5,0,0,1,.31,2.24l-9.31,103.38A5,5,0,0,1,197.69,217.38Z"/><path class="cls-1" d="M238,217.38a5,5,0,0,1-5-4.55l-9.31-103.38a5.07,5.07,0,0,1,.27-2.15l8.32-23a5,5,0,1,1,9.4,3.4l-7.94,22L243,211.93a5,5,0,0,1-4.53,5.43Z"/><path class="cls-1" d="M229,114H207a5,5,0,0,1,0-10h22a5,5,0,0,1,0,10Z"/><path class="cls-1" d="M147,312l-.44,0-46-4a5,5,0,1,1,.86-10l46,4a5,5,0,0,1-.42,10Z"/><path class="cls-1" d="M289,312a5,5,0,0,1-.42-10l46-4a5,5,0,1,1,.86,10l-46,4Z"/><path class="cls-1" d="M329.89,278.09a5,5,0,0,1-3.73-8.33l17.92-20.06a5,5,0,0,1,7.46,6.67l-17.92,20.05A5,5,0,0,1,329.89,278.09Z"/><path class="cls-1" d="M35.45,351.54l-.53,0A5,5,0,0,1,30.47,346l.11-1a5,5,0,1,1,9.94,1.05l-.1,1A5,5,0,0,1,35.45,351.54Z"/><path class="cls-1" d="M398.54,351.54a5,5,0,0,1-5-4.48l-.11-1a5,5,0,1,1,9.95-1.05l.1,1a5,5,0,0,1-4.45,5.49A4.58,4.58,0,0,1,398.54,351.54Z"/></svg>