<?xml version="1.0" ?><svg viewBox="0 0 512 512" xmlns="http://www.w3.org/2000/svg"><defs><style>.cls-1{fill:#384169;}</style></defs><title/><g id="Lines"><path class="cls-1" d="M256,360c-152.86,0-219.53-14.33-223-15.11-10-2-16.61-6.23-19.7-12.57-4.16-8.5.08-17.19.27-17.56A5,5,0,0,1,14,314l63-82a5,5,0,1,1,7.92,6.1L22.33,319.57c-.45,1.14-1.76,5-.06,8.42,2.1,4.19,8.07,6.18,12.71,7.11l.11,0C58.16,340.27,134,350,256,350c153.66,0,220.35-14.73,221-14.88l.32-.06c4.47-.72,10.24-2.42,12.38-6.45,1.85-3.49.52-7.78,0-9.09l-62.6-81.47a5,5,0,0,1,7.93-6.1l63,82a5.52,5.52,0,0,1,.57.93c.18.4,4.47,9.77-.1,18.41-3.25,6.13-9.8,10-19.48,11.62C474.58,345.91,408.55,360,256,360Z"/><path class="cls-1" d="M431.1,240a5,5,0,0,1-4.91-4.09l-31-167c0-.09,0-.19,0-.28-.14-1-3.64-25.31-27.53-27.65C259.68,30.37,150,40.45,144.68,41c-24,4.4-27.7,27.54-27.73,27.77l0,.18-31,167a5,5,0,0,1-9.84-1.82l31-166.92c1.61-10.6,11.18-31.65,36.05-36.09l.39-.06c1.13-.11,114-10.92,225.09,0,25.42,2.5,34.94,24.68,36.45,36.2l31,166.87a5,5,0,0,1-4,5.83A5.72,5.72,0,0,1,431.1,240Z"/><path class="cls-1" d="M256,248C140.66,248,81.89,240,81.31,240a5,5,0,0,1,1.38-9.9c.57.08,58.76,7.95,173.31,7.95s173.74-7.87,174.33-7.95a5,5,0,0,1,1.35,9.9C431.09,240,371.34,248,256,248Z"/><path class="cls-1" d="M256,64c-64.14,0-110.47-2.43-138-4.46a5,5,0,1,1,.74-10C146.1,51.59,192.16,54,256,54c64.58,0,111.31-2.46,139.14-4.53a5,5,0,1,1,.74,10C367.88,61.52,320.88,64,256,64Z"/><path class="cls-1" d="M178,162a17,17,0,1,1,17-17A17,17,0,0,1,178,162Zm0-24a7,7,0,1,0,7,7A7,7,0,0,0,178,138Z"/><path class="cls-1" d="M337,162a17,17,0,1,1,17-17A17,17,0,0,1,337,162Zm0-24a7,7,0,1,0,7,7A7,7,0,0,0,337,138Z"/><path class="cls-1" d="M256,484c-50,0-88.47-13.88-114.31-41.26-36.87-39.08-34.31-91-34.18-93.18a5,5,0,0,1,10,.58c0,.76-2.28,50.05,31.55,85.82,23.88,25.24,59.86,38,107,38,48.14,0,84.73-13,108.74-38.56,33.49-35.69,30.8-84.43,30.77-84.92a5,5,0,0,1,10-.65c.14,2.16,3.07,53.39-33.37,92.32C346.15,469.93,307.08,484,256,484Z"/></g><g id="Outline"><path class="cls-1" d="M252.4,277h0c-3.38,0-6.73,0-10-.05a5,5,0,0,1,0-10h0c3.28,0,6.6,0,10,.05a5,5,0,0,1,0,10Zm20-.07a5,5,0,0,1,0-10c3.37,0,6.7-.06,10-.11h.07a5,5,0,0,1,.07,10c-3.29.05-6.64.08-10,.11Zm-50-.22h-.09l-10-.2a5,5,0,0,1,.23-10c3.27.08,6.6.14,10,.2a5,5,0,0,1-.08,10Zm80-.27a5,5,0,0,1-.12-10q5.07-.12,10-.27a5,5,0,1,1,.31,10l-10,.28Zm-110-.51h-.18l-10-.38a5,5,0,1,1,.41-10c3.25.13,6.57.26,10,.37a5,5,0,0,1-.17,10Zm140-.49a5,5,0,0,1-.21-10q5.08-.21,9.95-.45a5,5,0,1,1,.5,10c-3.27.16-6.61.32-10,.46Zm-169.93-.84h-.28q-5.13-.28-10-.58a5,5,0,1,1,.61-10c3.23.19,6.54.39,9.95.57a5,5,0,0,1-.27,10Zm199.88-.74a5,5,0,0,1-.31-10q5.13-.31,9.94-.66a5,5,0,0,1,.71,10c-3.24.23-6.58.46-10,.67Zm-229.81-1.21-.39,0c-3.47-.26-6.81-.54-10-.81a5,5,0,1,1,.85-10q4.77.4,9.92.8a5,5,0,0,1-.37,10Zm259.73-1a5,5,0,0,1-.43-10q5.19-.47,9.91-.91a5,5,0,1,1,1,9.95c-3.18.31-6.51.61-10,.92Zm-289.61-1.69a4.71,4.71,0,0,1-.53,0c-3.57-.37-6.91-.75-10-1.11a5,5,0,1,1,1.17-9.93c3,.36,6.35.72,9.88,1.1a5,5,0,0,1-.52,10Zm319.45-1.36a5,5,0,0,1-.58-10c3.4-.4,6.72-.82,9.85-1.24a5,5,0,1,1,1.32,9.92c-3.18.42-6.54.84-10,1.25A4,4,0,0,1,422.09,268.58ZM72.87,266.21a4.68,4.68,0,0,1-.74,0c-6.62-1-9.94-1.64-10.08-1.66a5,5,0,1,1,1.9-9.82s3.29.63,9.66,1.59a5,5,0,0,1-.74,9.94Z"/><path class="cls-1" d="M256,248a5,5,0,0,1-5-5v-4a5,5,0,0,1,10,0v4A5,5,0,0,1,256,248Zm0-24a5,5,0,0,1-5-5V209a5,5,0,0,1,10,0v10A5,5,0,0,1,256,224Zm0-30a5,5,0,0,1-5-5V179a5,5,0,0,1,10,0v10A5,5,0,0,1,256,194Zm0-30a5,5,0,0,1-5-5V149a5,5,0,0,1,10,0v10A5,5,0,0,1,256,164Zm0-30a5,5,0,0,1-5-5V119a5,5,0,0,1,10,0v10A5,5,0,0,1,256,134Zm0-30a5,5,0,0,1-5-5V89a5,5,0,0,1,10,0V99A5,5,0,0,1,256,104Zm0-30a5,5,0,0,1-5-5V59a5,5,0,0,1,10,0V69A5,5,0,0,1,256,74Z"/></g></svg>