<?xml version="1.0" ?><svg viewBox="0 0 512 512" xmlns="http://www.w3.org/2000/svg"><defs><style>.cls-1{fill:#3f456b;}</style></defs><title/><g id="Lines"><path class="cls-1" d="M497,500H15a5,5,0,0,1-5-5V431a5,5,0,0,1,5-5H497a5,5,0,0,1,5,5v64A5,5,0,0,1,497,500ZM20,490H492V436H20Z"/><path class="cls-1" d="M121.36,435.94a5,5,0,0,1-1.2-9.85c33.19-8.27,66.87-25.59,100.17-51.5l-22.78-38.2a4.83,4.83,0,0,1-.33-.64,30.56,30.56,0,0,0-5-7.5c-4.11-4.57-8.89-6.95-14.2-7.07-15.24-.37-31.62-1.92-34.18-2.17a21,21,0,0,1-14-5.12c-4.28-3.86-6.61-9.43-6.9-16.57-.42-10.18,7.1-17,14.38-23.58,8.22-7.45,16-14.48,13.71-26.29-4.79-24.83-22.27-33.39-36.5-30.84-9.62,1.73-18.19-3.47-24.12-14.65a62,62,0,0,1-4.28-10.48c-8.85,3.15-30,11.82-63,32.1a227.46,227.46,0,0,1,30.14,61.81C64.17,320.61,69.89,373.1,37,425.91l.14,0a5,5,0,0,1-3.07,9.52,59.87,59.87,0,0,1-6.77-2.54,5,5,0,0,1-2-7.31c15.18-22.6,24-47.12,26.08-72.87,1.71-20.68-.84-42.24-7.56-64.08C32.27,251.18,12.17,225.55,12,225.29A5,5,0,0,1,13.23,218c49-30.75,74.09-37.43,75.13-37.7a5,5,0,0,1,6.16,3.87,54.79,54.79,0,0,0,4.81,13.31c5.75,10.72,11.53,9.68,13.43,9.34,19.5-3.5,42.28,8.7,48.09,38.78C164.2,262.89,153,273,144,281.16c-6.08,5.5-11.33,10.25-11.1,15.74.18,4.35,1.39,7.56,3.6,9.55a11.29,11.29,0,0,0,7.19,2.57,4.49,4.49,0,0,1,.82,0c.18,0,17.65,1.76,33.75,2.15,18.29.43,26.72,17.51,28,20.36l24.87,41.7a5,5,0,0,1-1.18,6.47c-35.54,28.31-71.68,47.18-107.41,56.08A5.15,5.15,0,0,1,121.36,435.94Z"/><path class="cls-1" d="M152.66,272.36a5,5,0,0,1-.69-9.95c70.15-9.88,133.07-54.86,206-119.35,19.92-17.62,41.3-30.74,63.55-39,17.81-6.61,35.82-9.78,50.7-8.94,6.5.38,11.48-1,14.81-4.11,4-3.68,4.75-9,4.91-10.78-1.55-5.49-10.63-37.74-14.25-51-2.73-10-16.63-7.57-17.23-7.46a4,4,0,0,1-1.5.05c-1.71-.08-37.5-.14-127.28,88.06A406.72,406.72,0,0,1,194,199.1c-38.16,14.69-64.15,17.65-65.24,17.77a5,5,0,1,1-1.08-9.94c.41,0,26.17-3.05,63.08-17.31a396.37,396.37,0,0,0,133.86-86.91c40.15-39.45,74.78-66.69,102.91-81,18.65-9.47,28.61-10.06,31.7-10,8.32-1.34,24,.08,28.05,14.78C491.25,41,501.66,77.93,501.77,78.3a5.18,5.18,0,0,1,.18,1.36c0,.45-.1,11.09-8,18.55-5.41,5.11-12.92,7.42-22.31,6.89-25.28-1.46-66.68,9.73-107.06,45.45-43.26,38.27-76.31,63.67-107.16,82.35-35.87,21.71-69.91,34.6-104,39.41A4.31,4.31,0,0,1,152.66,272.36Z"/><path class="cls-1" d="M76.14,413.33c-21.78,0-34.08-5.3-34.69-5.57a5,5,0,0,1,4-9.16c.24.11,16.39,6.89,44.32,4,47.08-4.84,90.78-32.89,119.15-55.56a5,5,0,1,1,6.24,7.81C185.54,378.56,139.76,407.81,90,412.65,85,413.13,80.39,413.33,76.14,413.33Z"/><path class="cls-1" d="M28.39,310.22a5,5,0,0,1-4.82-3.7L10.1,256.84a5,5,0,0,1,3.05-6l17.74-6.73a5,5,0,1,1,3.55,9.34l-13.5,5.13,11,40.65,17.49-4.11a5,5,0,0,1,2.29,9.73l-22.2,5.22A5.09,5.09,0,0,1,28.39,310.22Z"/><path class="cls-1" d="M451.17,66a5,5,0,0,1-4.7-3.3l-.34-.94a5,5,0,1,1,9.4-3.4l.34.94a5,5,0,0,1-3,6.4A4.84,4.84,0,0,1,451.17,66Z"/></g><g id="Outline"><path class="cls-1" d="M227,309.92a5,5,0,0,1-5-5V278a5,5,0,0,1,10,0v26.92A5,5,0,0,1,227,309.92Z"/><path class="cls-1" d="M355,411H328.08a5,5,0,1,1,0-10H355a5,5,0,0,1,0,10Z"/><path class="cls-1" d="M298.48,339.52a5,5,0,0,1-3.54-8.53l19-19A5,5,0,0,1,321,319l-19,19A5,5,0,0,1,298.48,339.52Z"/><path class="cls-1" d="M265.2,317.89a5,5,0,0,1-4.62-6.89l5.92-14.55a5,5,0,0,1,9.26,3.77l-5.93,14.56A5,5,0,0,1,265.2,317.89Z"/><path class="cls-1" d="M320.47,372.05a5,5,0,0,1-1.94-9.61l14.48-6.1a5,5,0,1,1,3.88,9.22l-14.48,6.1A5.17,5.17,0,0,1,320.47,372.05Z"/></g></svg>