<?xml version="1.0" ?><svg enable-background="new 0 0 512 512" version="1.1" viewBox="0 0 512 512" xml:space="preserve" xmlns="http://www.w3.org/2000/svg" xmlns:xlink="http://www.w3.org/1999/xlink"><g id="Lines"><g><g><g><g><path d="M172.519,499.229H88.352c-2.762,0-5-2.238-5-5s2.238-5,5-5h84.167c2.762,0,5,2.238,5,5       S175.28,499.229,172.519,499.229z" fill="#3F456B"/></g></g></g><g><g><g><path d="M490.352,499.229h-66c-2.762,0-5-2.238-5-5s2.238-5,5-5h66c2.762,0,5,2.238,5,5       S493.113,499.229,490.352,499.229z" fill="#3F456B"/></g></g></g><g><g><g><path d="M187.301,495.932c1.491,3.25,5.331,4.678,8.582,3.188c3.249-1.49,4.676-5.334,3.186-8.582       c-1.489-3.25-5.332-4.676-8.58-3.187C187.238,488.842,185.812,492.683,187.301,495.932z" fill="#3F456B"/></g></g></g><g><g><g><path d="M432.656,332.979c-2.762,0-5-2.238-5-5v-72.326c0-2.762,2.238-5,5-5s5,2.238,5,5v72.326       C437.656,330.741,435.418,332.979,432.656,332.979z" fill="#3F456B"/></g></g></g><g><g><g><path d="M259.981,324.605c-1.687,0-3.332-0.854-4.274-2.398c-10.541-17.293-28.44-17.493-28.62-17.493       c-2.762,0-5-2.238-5-5s2.238-5,5-5c0.963,0,23.727,0.253,37.159,22.288c1.438,2.357,0.69,5.435-1.667,6.872       C261.767,324.369,260.868,324.605,259.981,324.605z" fill="#3F456B"/></g></g></g><g><g><g><path d="M88.352,499.229c-42.458,0-77-34.542-77-76.999c0-20.463,7.94-39.73,22.358-54.251       c1.944-1.959,5.112-1.972,7.07-0.025c1.96,1.945,1.972,5.111,0.025,7.07c-12.545,12.636-19.454,29.4-19.454,47.206       c0,36.943,30.056,66.999,67,66.999s67-30.056,67-66.999c0-20.897-9.492-40.226-26.044-53.028       c-2.184-1.689-2.585-4.83-0.896-7.015c1.689-2.184,4.827-2.586,7.015-0.896c19.018,14.711,29.925,36.922,29.925,60.938       C165.352,464.687,130.81,499.229,88.352,499.229z" fill="#3F456B"/></g></g></g><g><g><g><path d="M88.352,467.229c-24.813,0-45-20.187-45-45s20.187-45,45-45s45,20.187,45,45       S113.165,467.229,88.352,467.229z M88.352,387.229c-19.299,0-35,15.701-35,35s15.701,35,35,35s35-15.701,35-35       S107.65,387.229,88.352,387.229z" fill="#3F456B"/></g></g></g><g><g><g><path d="M88.352,443.729c-11.854,0-21.499-9.645-21.499-21.499c0-11.855,9.645-21.5,21.499-21.5       c11.855,0,21.5,9.645,21.5,21.5C109.852,434.084,100.207,443.729,88.352,443.729z M88.352,410.729       c-6.341,0-11.499,5.159-11.499,11.5s5.158,11.499,11.499,11.499s11.5-5.158,11.5-11.499S94.692,410.729,88.352,410.729z" fill="#3F456B"/></g></g></g><g><g><g><g><path d="M94.434,95.1c-1.182,0-2.389-0.288-3.602-0.965c-2.245-1.247-3.081-3.436-3.396-4.26        c-1.745-4.567-2.599-9.213-3.424-13.706l-0.312-1.684c-0.349-1.859-0.645-3.509-0.887-4.936        c-6.488-2.114-16.103-5.987-19.838-10.11c-2.579-2.847-2.715-5.555-2.375-7.325c0.597-3.107,2.926-4.853,4.077-5.541        c4.003-2.918,13.645-7.076,18.992-9.278c0.003-8.334,1.128-16.305,1.583-18.716c0.405-2.156,1.27-3.915,2.566-5.225        c1.557-1.573,3.85-2.557,6.133-2.632c0.73-0.024,1.473,0.054,2.209,0.233c1.552,0.376,3.042,1.196,4.423,2.437        c1.828,1.645,7.559,7.299,12.616,13.923c5.587-1.494,15.774-4.038,20.728-4.147c1.332-0.147,4.241-0.177,6.602,1.932        c1.345,1.201,2.879,3.437,2.557,7.263c-0.463,5.477-5.638,14.245-9.5,19.874c3.531,5.84,6.279,11.932,8.364,18.528        c1.393,4.409-0.61,8.631-4.762,10.04c-1.928,0.654-3.794,0.522-4.8,0.451c-4.328-0.304-8.521-0.961-12.575-1.597l-2.234-0.348        c-0.561-0.087-1.159-0.2-1.757-0.313c-0.479-0.092-0.957-0.185-1.406-0.253c-0.075-0.012-0.156-0.026-0.243-0.043        c-0.73,0.811-1.454,1.644-2.201,2.503c-1.508,1.734-3.067,3.528-4.808,5.274c-0.231,0.233-0.529,0.562-0.881,0.946        C103.679,90.276,99.269,95.1,94.434,95.1z M71.789,53.854c3.254,2.166,10.417,5.198,16.842,7.02        c1.903,0.54,3.31,2.151,3.587,4.11c0.173,1.224,0.541,3.546,1.312,7.657l0.317,1.721c0.602,3.273,1.178,6.406,2.062,9.375        c1.175-1.069,2.436-2.448,2.994-3.059c0.468-0.513,0.869-0.948,1.178-1.258c1.499-1.505,2.881-3.094,4.344-4.776        c1.347-1.549,2.738-3.15,4.264-4.724c0.555-0.572,1.237-1.003,1.992-1.258l0.084-0.028c1.833-0.621,3.586-0.179,4.867,0.146        c0.145,0.036,0.279,0.072,0.391,0.096c0.476,0.071,1.075,0.185,1.675,0.299c0.478,0.092,0.955,0.184,1.402,0.253l2.263,0.353        c3.487,0.546,6.808,1.066,10.173,1.374c-2.058-5.797-4.735-11.164-8.146-16.339c-1.16-1.76-1.092-4.06,0.172-5.747        c4.002-5.348,7.857-12.104,9.13-15.799c-4.682,0.533-14.413,2.977-20.133,4.591c-2.048,0.578-4.237-0.205-5.456-1.949        c-4.277-6.123-9.785-11.806-12.239-14.176c-0.514,3.375-1.445,11.231-1.131,18.693c0.09,2.127-1.176,4.076-3.154,4.86        C85.052,47.477,75.833,51.439,71.789,53.854z M69.636,55.249c-0.006,0.003-0.011,0.006-0.017,0.009        C69.624,55.255,69.63,55.252,69.636,55.249z M135.271,33.069c-0.007,0.001-0.013,0.002-0.019,0.003        C135.259,33.071,135.265,33.07,135.271,33.069z M133.129,31.317L133.129,31.317L133.129,31.317L133.129,31.317z M93.617,20.61        L93.617,20.61L93.617,20.61z" fill="#384169"/></g></g></g></g><g><g><g><g><path d="M387.248,149.614c-0.918,0-1.86-0.169-2.797-0.523c-1.906-0.723-3.264-2.012-3.993-2.704        c-3.151-2.991-5.971-6.167-8.698-9.239l-1.495-1.681c-0.381-0.426-0.775-0.898-1.168-1.372        c-0.309-0.372-0.617-0.744-0.916-1.081c-0.05-0.055-0.102-0.116-0.157-0.183c-1.077,0.161-2.163,0.343-3.283,0.53        c-2.27,0.381-4.616,0.773-7.072,1.015c-0.326,0.032-0.765,0.097-1.279,0.17c-4.757,0.678-13.616,1.934-16.194-4.646        c-0.938-2.392-0.192-4.609,0.088-5.444c1.559-4.638,3.854-8.767,6.073-12.759l0.865-1.56c0.903-1.636,1.712-3.075,2.421-4.311        c-3.662-5.758-8.619-14.86-8.881-20.418c-0.181-3.836,1.437-6.013,2.824-7.163c2.436-2.02,5.341-1.885,6.671-1.685        c4.943,0.293,15.029,3.216,20.558,4.917c5.302-6.43,11.239-11.866,13.124-13.438c1.689-1.409,3.476-2.217,5.308-2.4        c2.192-0.22,4.589,0.475,6.399,1.866c0.58,0.449,1.097,0.975,1.548,1.572c0.969,1.291,1.598,2.873,1.875,4.711        c0.365,2.429,1.191,10.437,0.884,18.766c5.262,2.399,14.741,6.915,18.632,9.98c1.125,0.73,3.388,2.562,3.867,5.688        c0.273,1.781,0.037,4.482-2.646,7.23c-3.84,3.934-13.409,7.409-19.969,9.297c-0.989,6.752-2.742,13.202-5.328,19.619        C393.175,147.677,390.352,149.614,387.248,149.614z M369.932,122.535c0.601,0,1.197,0.108,1.762,0.32l0.083,0.031        c1.83,0.696,2.899,2.149,3.68,3.211c0.089,0.121,0.169,0.233,0.241,0.323c0.322,0.359,0.708,0.822,1.093,1.285        c0.314,0.378,0.627,0.758,0.933,1.099l1.515,1.703c2.347,2.644,4.581,5.159,6.984,7.54c2.1-5.784,3.445-11.628,4.104-17.79        c0.225-2.097,1.739-3.827,3.788-4.327c6.489-1.58,13.761-4.343,17.092-6.386c-3.951-2.565-13.016-6.868-18.456-9.261        c-1.948-0.856-3.141-2.853-2.972-4.974c0.593-7.446-0.045-15.334-0.432-18.723c-2.54,2.276-8.257,7.748-12.761,13.708        c-1.282,1.697-3.496,2.401-5.525,1.743c-5.657-1.825-15.291-4.63-19.947-5.338c1.134,3.741,4.734,10.637,8.533,16.128        c1.126,1.626,1.187,3.764,0.155,5.452c-0.919,1.503-2.206,3.753-3.827,6.688l-0.879,1.586        c-1.617,2.909-3.165,5.693-4.369,8.547c1.587-0.078,3.437-0.341,4.257-0.457c0.687-0.098,1.271-0.179,1.706-0.221        c2.118-0.209,4.197-0.557,6.398-0.926c2.021-0.339,4.111-0.688,6.286-0.933C369.56,122.546,369.746,122.535,369.932,122.535z         M348.547,86.404c0.005,0.001,0.011,0.003,0.017,0.004C348.558,86.407,348.553,86.406,348.547,86.404z M389.1,74.925        L389.1,74.925L389.1,74.925z" fill="#384169"/></g></g></g></g><g><g><g><path d="M137.338,182.743c-1.56,3.217-5.43,4.563-8.648,3.004c-3.216-1.56-4.561-5.433-3.002-8.649       c1.559-3.217,5.431-4.56,8.646-3.002C137.553,175.654,138.896,179.525,137.338,182.743z" fill="#3F456B"/></g></g></g><g><g><g><path d="M334.519,467.229h-91.745c-2.762,0-5-2.238-5-5s2.238-5,5-5h86.492       c-0.535-4.283-2.097-10.634-6.566-15.335c-4.205-4.423-10.379-6.665-18.348-6.665h-13.625c-1.86,0-3.566-1.032-4.43-2.681       c-0.862-1.647-0.739-3.638,0.319-5.167l8.146-11.757c0.025-0.035,0.05-0.07,0.076-0.105c0.052-0.073,7.045-10.106,6.933-28.503       c-0.017-2.761,2.208-5.014,4.97-5.03c0.01,0,0.021,0,0.031,0c2.747,0,4.982,2.219,4.999,4.97       c0.13,21.268-7.987,33.237-8.809,34.394l-2.688,3.88h4.078c10.858,0,19.493,3.313,25.664,9.848       c10.315,10.923,9.533,26.77,9.495,27.438C339.358,465.161,337.169,467.229,334.519,467.229z" fill="#3F456B"/></g></g></g><g><g><g><path d="M481.732,334.277c-0.703,0-1.243-0.026-1.564-0.048H344.95c-2.762,0-5-2.238-5-5s2.238-5,5-5h135.401       c0.141,0,0.281,0.006,0.422,0.018c1.553,0.123,6.57-0.034,8.934-2.227c0.599-0.555,1.394-1.551,1.394-3.791       c0-19.576-8.863-34.967-26.343-45.744c-13.462-8.301-31.558-13.256-48.406-13.256c-10.34,0-10.978,10.435-11,12.526       c-0.03,2.741-2.262,4.959-4.999,4.96c-0.01,0-0.019,0-0.028-0.001c-0.62-0.003-1.213-0.118-1.76-0.326l6.787,9.841       c0,15.407-12.857,21-21.5,21h-9.359c-2.762,0-5-2.238-5-5s2.238-5,5-5h9.359c1.894-0.025,11.5-0.675,11.5-11v-14.537       c0-0.012,0-0.023,0-0.035c0.029-9.043,5.633-22.428,21-22.428c18.624,0,38.682,5.512,53.655,14.744       c20.342,12.542,31.094,31.304,31.094,54.256c0,4.516-1.605,8.377-4.642,11.168       C491.771,333.706,484.996,334.277,481.732,334.277z M395.352,271.729h0.01H395.352z" fill="#3F456B"/></g></g></g><g><g><g><path d="M304.034,307.229h-32.433c-1.509,0-2.938-0.682-3.887-1.855       c-15.512-19.171-53.042-19.646-68.461-18.953c-2.741,0.094-5.095-2.015-5.218-4.772c-0.123-2.759,2.014-5.095,4.772-5.218       c45.892-2.05,66.414,11.368,75.079,20.799h30.146c2.762,0,5,2.238,5,5S306.796,307.229,304.034,307.229z" fill="#3F456B"/></g></g></g><g><g><g><path d="M184.106,410.429c-2.175,0-4.176-1.43-4.804-3.625l-13.508-47.198       c-9-31.393-35.029-31.361-36.141-31.323c-0.027,0-0.079,0.001-0.106,0.001H72.852c-21.764,0-22.7-19.182-22.707-19.375       c-0.002-0.06-0.003-0.119-0.003-0.179c0-36.171,17.318-68.389,50.083-93.17c24.454-18.495,48.589-26.274,49.604-26.596       c2.462-0.781,5.112,0.44,6.117,2.819c0.146,0.343,14.771,34.935,37.941,88.385c1.098,2.533-0.065,5.478-2.6,6.576       s-5.478-0.065-6.576-2.6c-18.456-42.577-31.498-73.204-36.127-84.105c-7.84,3.02-25.312,10.577-42.56,23.673       c-30.407,23.087-45.844,51.647-45.884,84.891c0.114,1.695,1.275,9.681,12.71,9.681h56.657       c1.025-0.018,9.347,0.027,18.868,4.551c9.125,4.336,21.222,13.757,27.031,34.018l13.508,47.2       c0.76,2.655-0.776,5.423-3.431,6.183C185.025,410.366,184.562,410.429,184.106,410.429z" fill="#3F456B"/></g></g></g><g><g><g><path d="M165.126,287.156h-62.774c-2.331,0-4.354-1.611-4.874-3.884c-4.303-18.779-24.753-31.027-24.959-31.149       c-2.379-1.402-3.17-4.468-1.767-6.847c1.402-2.379,4.466-3.172,6.847-1.767c0.936,0.552,21.747,13.026,28.543,33.646h58.984       c2.762,0,5,2.238,5,5S167.888,287.156,165.126,287.156z" fill="#3F456B"/></g></g></g><g><g><g><path d="M86.357,328.283c-0.151,0-0.303-0.007-0.456-0.021c-2.751-0.249-4.778-2.68-4.529-5.43       c2.926-32.332-18.216-44.699-18.43-44.82c-2.403-1.361-3.248-4.412-1.887-6.814c1.36-2.404,4.412-3.249,6.814-1.887       c1.103,0.624,26.962,15.738,23.461,54.422C91.097,326.331,88.915,328.283,86.357,328.283z" fill="#3F456B"/></g></g></g><g><g><g><path d="M424.352,499.229c-42.458,0-77-34.542-77-76.999c0-2.488,0.121-5.004,0.359-7.479       c0.264-2.748,2.706-4.764,5.456-4.497c2.748,0.265,4.762,2.707,4.497,5.456c-0.207,2.156-0.312,4.351-0.312,6.52       c0,36.943,30.056,66.999,67,66.999s67-30.056,67-66.999c0-36.944-30.056-67-67-67c-22.607,0-43.541,11.288-55.995,30.195       c-1.519,2.306-4.618,2.943-6.927,1.425c-2.306-1.52-2.943-4.62-1.425-6.927c14.311-21.724,38.365-34.693,64.347-34.693       c42.458,0,77,34.542,77,77C501.352,464.687,466.81,499.229,424.352,499.229z" fill="#3F456B"/></g></g></g><g><g><g><path d="M424.352,467.229c-17.27,0-33.227-10.08-40.652-25.681c-1.187-2.494-0.128-5.478,2.365-6.664       c2.498-1.187,5.478-0.128,6.664,2.365c5.777,12.138,18.19,19.979,31.623,19.979c19.299,0,35-15.701,35-35s-15.701-35-35-35       c-10.381,0-20.163,4.568-26.839,12.534c-1.771,2.116-4.925,2.396-7.044,0.62c-2.116-1.773-2.394-4.927-0.62-7.044       c8.58-10.238,21.156-16.11,34.503-16.11c24.813,0,45,20.187,45,45S449.165,467.229,424.352,467.229z" fill="#3F456B"/></g></g></g><g><g><g><path d="M424.352,443.729h-97.772c-2.655,0-4.847-2.075-4.992-4.726c-0.768-13.961,0.214-27.042,2.918-38.878       c0.615-2.693,3.296-4.379,5.987-3.761c2.692,0.614,4.376,3.295,3.761,5.987c-2.191,9.595-3.154,20.129-2.871,31.377h92.97       c6.341,0,11.5-5.158,11.5-11.499c0-4.503-1.531-9.028-12.641-11.632c-0.065-0.016-0.129-0.031-0.193-0.05l-48.238-13.354       c-2.661-0.736-4.222-3.491-3.484-6.152c0.737-2.662,3.49-4.227,6.152-3.484l48.146,13.328       c13.442,3.179,20.259,10.359,20.259,21.345C445.852,434.084,436.207,443.729,424.352,443.729z" fill="#3F456B"/></g></g></g><g><g><g><path d="M343.049,374.057c-0.961,0-1.932-0.277-2.789-0.854c-2.29-1.543-2.896-4.65-1.353-6.94       c24.263-36.007,64.438-41.761,66.137-41.988c2.732-0.37,5.252,1.556,5.619,4.293c0.366,2.734-1.553,5.249-4.286,5.618       c-0.471,0.065-37.52,5.525-59.177,37.665C346.234,373.282,344.656,374.056,343.049,374.057z" fill="#3F456B"/></g></g></g><g><g><g><path d="M48.754,387.632c-1.279,0-2.56-0.488-3.535-1.465l-20.152-20.152c-1.953-1.952-1.953-5.118,0-7.07       c15.297-15.298,35.595-24.534,57.155-26.006c21.347-1.454,42.504,4.751,59.568,17.481c1.072,0.8,1.779,1.995,1.963,3.319       c0.185,1.325-0.17,2.668-0.983,3.729l-17.337,22.63c-1.654,2.16-4.734,2.599-6.93,0.988       c-20.087-14.764-48.553-12.579-66.214,5.08C51.313,387.144,50.033,387.632,48.754,387.632z M35.783,362.591l13.115,13.115       c9.846-8.35,22.122-13.392,35.068-14.319c12.823-0.912,25.562,2.225,36.388,8.897l11.298-14.747       c-14.363-9.339-31.488-13.806-48.75-12.622C65.421,344.109,48.872,351.051,35.783,362.591z" fill="#3F456B"/></g></g></g><g><g><g><path d="M417.053,408.71c-1.993,0-3.877-1.2-4.652-3.168l-27.744-70.391c-1.013-2.568,0.249-5.472,2.818-6.484       c2.566-1.013,5.472,0.248,6.484,2.818l27.744,70.391c1.013,2.568-0.249,5.472-2.818,6.484       C418.283,408.598,417.663,408.71,417.053,408.71z" fill="#3F456B"/></g></g></g><g><g><g><path d="M426.351,424.068c-1.56,3.217-5.43,4.563-8.648,3.004c-3.216-1.56-4.561-5.433-3.002-8.649       c1.559-3.217,5.431-4.56,8.646-3.002C426.566,416.98,427.909,420.851,426.351,424.068z" fill="#3F456B"/></g></g></g><g><g><g><path d="M188.651,333.051c-1.56,3.217-5.43,4.563-8.648,3.004c-3.216-1.56-4.561-5.433-3.002-8.649       c1.559-3.217,5.431-4.56,8.646-3.002C188.866,325.963,190.209,329.834,188.651,333.051z" fill="#3F456B"/></g></g></g><g><g><g><path d="M210.927,333.051c-1.56,3.217-5.43,4.563-8.648,3.004c-3.216-1.56-4.561-5.433-3.002-8.649       c1.559-3.217,5.431-4.56,8.646-3.002C211.142,325.963,212.485,329.834,210.927,333.051z" fill="#3F456B"/></g></g></g><g><g><g><path d="M222.168,396.296c-2.762,0-5-2.238-5-5v-33.792c0-2.762,2.238-5,5-5s5,2.238,5,5v33.792       C227.168,394.058,224.93,396.296,222.168,396.296z" fill="#3F456B"/></g></g></g><g><g><g><path d="M243.106,397.011c-3.432,0-6.088-0.413-6.709-0.519c-2.723-0.462-4.556-3.043-4.094-5.766       c0.462-2.719,3.04-4.549,5.756-4.096l0,0c3.317,0.551,11.165,0.831,14.269-1.802c0.611-0.519,1.313-1.363,1.313-3.305       c0-1.959-0.715-2.822-1.338-3.355c-3.121-2.674-10.977-2.473-14.292-1.956c-1.442,0.22-2.917-0.192-4.025-1.143       c-1.109-0.95-1.753-2.337-1.753-3.797v-13.669c0-2.762,2.238-5,5-5h21.408c2.762,0,5,2.238,5,5s-2.238,5-5,5h-16.408v3.28       c4.915-0.052,11.893,0.694,16.554,4.67c3.176,2.71,4.854,6.503,4.854,10.97c0,4.474-1.683,8.26-4.867,10.949       C254.386,396.181,247.968,397.011,243.106,397.011z" fill="#3F456B"/></g></g></g><g><g><g><path d="M245.621,417.22c-2.43,0-4.562-1.774-4.938-4.25c-0.415-2.73,1.462-5.279,4.192-5.694       c16.084-2.443,28.213-16.577,28.213-32.876c0-18.337-14.918-33.255-33.255-33.255s-33.256,14.918-33.256,33.255       c0,10.648,4.916,20.396,13.486,26.745c2.22,1.644,2.686,4.774,1.042,6.993c-1.643,2.22-4.774,2.688-6.993,1.042       c-10.98-8.132-17.535-21.134-17.535-34.78c0-23.851,19.404-43.255,43.256-43.255c23.851,0,43.255,19.404,43.255,43.255       c0,21.199-15.782,39.583-36.711,42.763C246.123,417.201,245.87,417.22,245.621,417.22z" fill="#3F456B"/></g></g></g><g><g><g><path d="M287.424,332.73c-1.868,0-3.66-1.052-4.518-2.85c-0.08-0.168-8.078-16.861-14.957-24.217       c-1.886-2.017-1.779-5.181,0.237-7.067c2.017-1.886,5.182-1.779,7.067,0.237c7.938,8.488,16.327,26.004,16.68,26.745       c1.188,2.492,0.13,5.476-2.362,6.663C288.877,332.573,288.145,332.73,287.424,332.73z" fill="#3F456B"/></g></g></g><g><g><g><path d="M195.13,221.585c-2.187,0-4.194-1.445-4.812-3.653c-0.744-2.659,0.809-5.419,3.468-6.163l38.319-10.722       c1.192-0.84,4.718-3.898,3.821-10.204c-0.834-5.862-4.994-6.203-7.407-5.879l-37.809,5.451       c-2.738,0.389-5.269-1.502-5.663-4.235c-0.394-2.733,1.503-5.269,4.235-5.663l37.8-5.449c0.652-0.103,7.073-0.975,12.453,3.004       c2.384,1.762,5.409,5.164,6.291,11.363c2.037,14.328-8.85,20.384-9.313,20.635c-0.326,0.177-0.672,0.315-1.028,0.416       l-39.004,10.914C196.029,221.525,195.576,221.585,195.13,221.585z" fill="#3F456B"/></g></g></g><g><g><g><path d="M207.193,316.328c-0.028,0-0.056,0-0.084-0.001c-0.288-0.005-28.895-0.483-36.432-0.483       c-13.8,0-22.372-7.505-22.372-19.585c0-7.401,3.455-13.348,9.729-16.745c4.396-2.38,8.699-2.713,9.175-2.743       c0.105-0.007,0.211-0.01,0.316-0.01h27.626l14.287-26.052c13.531-26.077,30.345-31.076,31.055-31.276       c2.659-0.754,5.419,0.797,6.17,3.455c0.745,2.642-0.779,5.388-3.408,6.156c-0.328,0.104-13.68,4.538-24.965,26.318       c-0.019,0.035-0.036,0.07-0.056,0.104l-15.739,28.698c-0.878,1.601-2.559,2.596-4.384,2.596h-30.388       c-1.807,0.165-9.419,1.352-9.419,9.498c0,6.36,4.162,9.585,12.372,9.585c7.431,0,34.041,0.442,36.462,0.482       c0.932-0.051,10.676-0.817,16.554-10.578c4.286-7.113,19.546-37.15,19.7-37.453c1.25-2.462,4.259-3.444,6.722-2.194       c2.462,1.25,3.444,4.26,2.194,6.722c-0.634,1.249-15.579,30.666-20.05,38.086c-8.965,14.884-24.304,15.403-24.952,15.419       C207.27,316.328,207.231,316.328,207.193,316.328z" fill="#3F456B"/></g></g></g><g><g><g><path d="M366.264,422.912c-7.203,0-14.368-2.797-17.828-4.706c-9.442-5.21-54.567-34.183-58.822-36.916       c-2.35-1.159-15.143-7.967-18.854-20.437c-2.209-7.421-0.83-15.173,4.1-23.041c9.976-15.922,39.637-58.402,40.895-60.203       c1.581-2.265,4.699-2.816,6.962-1.235c2.264,1.581,2.817,4.698,1.235,6.962c-0.307,0.438-30.775,44.075-40.617,59.785       c-3.374,5.386-4.356,10.239-3.002,14.837c2.682,9.108,13.727,14.375,13.838,14.427c0.201,0.095,0.408,0.208,0.595,0.328       c0.49,0.314,49.094,31.546,58.503,36.737c3.897,2.15,15.938,6.263,20.265,0.501c2.099-2.796,2.916-5.376,2.498-7.889       c-0.735-4.42-5.11-7.569-5.154-7.6l-56.809-38.431c-1.297-0.878-2.108-2.312-2.191-3.877c-0.083-1.563,0.571-3.076,1.769-4.086       c0.284-0.239,28.601-24.114,45.717-36.918c19.308-14.442,12.113-35.169,12.038-35.376       c-20.494-58.234-103.193-67.269-104.025-67.353c-2.748-0.278-4.749-2.731-4.471-5.479c0.279-2.747,2.738-4.757,5.479-4.471       c0.912,0.093,22.614,2.38,47.332,12.461c33.202,13.54,55.715,34.801,65.105,61.483c3.447,9.556,4.672,31.677-15.468,46.741       c-12.542,9.382-31.271,24.866-40.188,32.306l51.325,34.722c0.82,0.558,7.977,5.643,9.406,14.234       c0.878,5.279-0.591,10.506-4.365,15.534C377.6,421.188,371.92,422.912,366.264,422.912z" fill="#3F456B"/></g></g></g><g><g><g><path d="M311.228,297.877c-0.93,0-1.871-0.26-2.71-0.802c-32.994-21.333-66.257-19.301-66.586-19.279       c-2.742,0.202-5.142-1.882-5.337-4.635c-0.195-2.751,1.871-5.141,4.622-5.34c1.491-0.103,36.81-2.368,72.73,20.855       c2.318,1.5,2.983,4.595,1.484,6.914C314.475,297.07,312.868,297.877,311.228,297.877z" fill="#3F456B"/></g></g></g><g><g><g><path d="M196.087,236.035c-2.446,0-4.584-1.796-4.943-4.287l-5.806-40.271       c-1.739-12.062,1.33-24.085,8.642-33.853c7.312-9.769,17.989-16.107,30.065-17.849c12.078-1.739,24.112,1.325,33.886,8.635       c9.772,7.311,16.113,17.988,17.854,30.067c1.741,12.078-1.325,24.112-8.635,33.885c-7.311,9.772-17.988,16.113-30.066,17.855       c-0.002,0-0.004,0-0.005,0l-40.277,5.766C196.562,236.019,196.322,236.035,196.087,236.035z M230.641,149.301       c-1.715,0-3.44,0.124-5.168,0.373c-9.435,1.359-17.775,6.312-23.488,13.942c-5.709,7.628-8.106,17.016-6.748,26.433       l5.093,35.328l35.332-5.058c19.477-2.811,33.034-20.939,30.226-40.415c-1.359-9.436-6.312-17.776-13.946-23.486       C245.705,151.754,238.29,149.301,230.641,149.301z M236.37,225.269h0.01H236.37z" fill="#3F456B"/></g></g></g><g><g><g><path d="M88.351,427.23c-0.612,0-1.233-0.112-1.837-0.352c-2.568-1.015-3.827-3.92-2.812-6.487l49.417-125       c1.015-2.569,3.92-3.829,6.487-2.812c2.568,1.015,3.827,3.92,2.812,6.487l-49.417,125       C92.225,426.032,90.342,427.23,88.351,427.23z" fill="#3F456B"/></g></g></g><g><g><g><path d="M267.219,435.411h-17.234c-2.762,0-5-2.238-5-5s2.238-5,5-5h17.234c2.762,0,5,2.238,5,5       S269.98,435.411,267.219,435.411z" fill="#3F456B"/></g></g></g><g><g><g><path d="M153.306,302.229h-15.537c-2.762,0-5-2.238-5-5s2.238-5,5-5h15.537c2.762,0,5,2.238,5,5       S156.067,302.229,153.306,302.229z" fill="#3F456B"/></g></g></g><g><g><g><path d="M491.304,303.479h-58.647c-2.762,0-5-2.238-5-5s2.238-5,5-5h58.647c2.762,0,5,2.238,5,5       S494.065,303.479,491.304,303.479z" fill="#3F456B"/></g></g></g><g><g><g><path d="M334.514,408.091c-0.94,0-1.892-0.266-2.737-0.819c-2.309-1.515-2.953-4.614-1.439-6.924l17.833-27.194       c1.514-2.31,4.613-2.954,6.924-1.439c2.309,1.515,2.953,4.614,1.439,6.924L338.7,405.832       C337.74,407.296,336.143,408.091,334.514,408.091z" fill="#3F456B"/></g></g></g><g><g><g><path d="M189.3,315.662c-2.762,0-5-2.238-5-5v-28.506c0-2.762,2.238-5,5-5s5,2.238,5,5v28.506       C194.3,313.424,192.062,315.662,189.3,315.662z" fill="#3F456B"/></g></g></g><g><g><g><path d="M315.412,264.397c-0.579,0-1.167-0.101-1.74-0.314l-35.437-13.167       c-2.293-0.852-3.633-3.236-3.168-5.638c3.412-17.61,16.933-37.301,17.506-38.131c1.572-2.27,4.686-2.834,6.955-1.268       c2.271,1.569,2.839,4.684,1.271,6.955c-0.118,0.17-10.785,15.725-14.926,30.252l26.779,9.95       c3.18-7.391,9.902-22.093,16.621-30.95c1.669-2.2,4.805-2.632,7.005-0.962c2.2,1.668,2.631,4.805,0.962,7.005       c-8.235,10.859-17.096,32.901-17.185,33.123C319.275,263.204,317.399,264.397,315.412,264.397z" fill="#3F456B"/></g></g></g><g><g><g><path d="M286.191,306.588c-0.277,0-0.558-0.023-0.841-0.071c-2.723-0.461-4.556-3.042-4.095-5.765       c1.454-8.587,7.282-19.452,7.53-19.91c1.312-2.432,4.348-3.337,6.774-2.024c2.43,1.311,3.336,4.343,2.025,6.772l0,0       c-0.053,0.099-5.294,9.882-6.471,16.832C290.702,304.861,288.586,306.588,286.191,306.588z" fill="#3F456B"/></g></g></g><g><g><g><g><path d="M219.738,482.421c-2.117,0-4.249-0.237-6.364-0.718c-7.006-1.591-13.031-5.666-17.098-11.535        l-33.986,8.952c-2.03,0.534-4.17-0.253-5.37-1.969c-1.201-1.717-1.204-4-0.009-5.721l19.962-28.711        c-0.788-0.95-1.518-1.956-2.184-3.013c-4.058-6.442-5.364-14.078-3.679-21.502c1.686-7.423,6.161-13.746,12.603-17.804        c9.696-6.106,22.141-5.715,31.396,0.676c12.812-5.691,27.906-1.283,35.584,10.906c6.969,11.062,5.418,25.394-3.339,34.701        c3.137,11.882-1.742,24.638-12.38,31.339l0,0C230.269,480.926,225.051,482.421,219.738,482.421z M198.646,459.373        c1.866,0,3.625,1.05,4.482,2.788c0.268,0.541,0.571,1.082,0.902,1.607c2.635,4.184,6.739,7.089,11.558,8.183        c4.82,1.095,9.776,0.246,13.957-2.389l0,0c7.552-4.758,10.634-14.211,7.329-22.479c-0.806-2.015-0.22-4.318,1.45-5.704        c7.103-5.892,8.739-16.237,3.809-24.065c-5.396-8.564-16.428-11.213-25.122-6.03c-1.878,1.12-4.265,0.89-5.895-0.568        c-6.109-5.466-15.227-6.228-22.173-1.853c-8.631,5.438-11.229,16.883-5.793,25.514c0.964,1.53,2.127,2.892,3.456,4.047        c1.927,1.675,2.282,4.531,0.825,6.628l-14.56,20.941l24.499-6.453C197.795,459.427,198.223,459.373,198.646,459.373z" fill="#3F456B"/></g></g></g></g><g><g><g><path d="M65.402,229.245c-0.991,0-1.992-0.293-2.865-0.905c-2.262-1.584-2.811-4.702-1.226-6.964       c15.646-22.331,48.268-37.605,49.648-38.244c2.508-1.163,5.475-0.068,6.637,2.436c1.16,2.505,0.07,5.477-2.434,6.638       c-0.314,0.146-31.575,14.804-45.662,34.909C68.528,228.503,66.978,229.245,65.402,229.245z" fill="#3F456B"/></g></g></g></g></g><g id="Outline"><g><g><g><g><g><g><path d="M475.42,41.212c-1.279,0-2.56-0.488-3.535-1.465c-1.953-1.952-1.953-5.118,0-7.07l8.018-8.018         c1.951-1.953,5.119-1.953,7.07,0c1.953,1.952,1.953,5.118,0,7.07l-8.018,8.018C477.979,40.724,476.699,41.212,475.42,41.212z         " fill="#3F456B"/></g></g></g><g><g><g><path d="M448.057,68.555c-1.279,0-2.56-0.488-3.535-1.465c-1.953-1.952-1.953-5.118,0-7.07l8.018-8.018         c1.951-1.953,5.119-1.953,7.07,0c1.953,1.952,1.953,5.118,0,7.07l-8.018,8.018C450.616,68.066,449.336,68.555,448.057,68.555         z" fill="#3F456B"/></g></g></g></g><g><g><g><g><path d="M483.427,68.564c-1.279,0-2.56-0.488-3.535-1.465l-8.017-8.017c-1.953-1.952-1.953-5.118,0-7.07         c1.951-1.953,5.119-1.953,7.07,0l8.017,8.017c1.953,1.952,1.953,5.118,0,7.07C485.986,68.076,484.706,68.564,483.427,68.564z         " fill="#3F456B"/></g></g></g><g><g><g><path d="M456.084,41.202c-1.279,0-2.56-0.488-3.536-1.465l-8.017-8.018c-1.952-1.952-1.952-5.118,0.001-7.071         c1.953-1.951,5.118-1.952,7.071,0.001l8.017,8.018c1.952,1.952,1.952,5.118-0.001,7.071         C458.643,40.714,457.363,41.202,456.084,41.202z" fill="#3F456B"/></g></g></g></g></g><g><g><g><g><g><path d="M442.174,183.8c-1.279,0-2.56-0.488-3.535-1.465c-1.953-1.952-1.953-5.118,0-7.07l8.018-8.018         c1.951-1.953,5.119-1.953,7.07,0c1.953,1.952,1.953,5.118,0,7.07l-8.018,8.018C444.733,183.312,443.453,183.8,442.174,183.8z         " fill="#3F456B"/></g></g></g><g><g><g><path d="M414.812,211.143c-1.279,0-2.559-0.488-3.535-1.464c-1.953-1.953-1.953-5.119-0.001-7.071         l8.017-8.018c1.953-1.953,5.118-1.952,7.071-0.001c1.953,1.953,1.953,5.119,0.001,7.071l-8.017,8.018         C417.371,210.654,416.091,211.143,414.812,211.143z" fill="#3F456B"/></g></g></g></g><g><g><g><g><path d="M450.182,211.152c-1.279,0-2.559-0.488-3.535-1.464l-8.018-8.017         c-1.953-1.953-1.953-5.119-0.001-7.071c1.953-1.953,5.118-1.952,7.071-0.001l8.018,8.017         c1.953,1.953,1.953,5.119,0.001,7.071C452.741,210.664,451.461,211.152,450.182,211.152z" fill="#3F456B"/></g></g></g><g><g><g><path d="M422.839,183.79c-1.279,0-2.56-0.488-3.535-1.465l-8.018-8.018c-1.953-1.952-1.953-5.118,0-7.07         c1.951-1.953,5.119-1.953,7.07,0l8.018,8.018c1.953,1.952,1.953,5.118,0,7.07C425.398,183.302,424.118,183.79,422.839,183.79         z" fill="#3F456B"/></g></g></g></g></g><g><g><g><path d="M320.197,163.152h-56.409c-2.762,0-5-2.238-5-5s2.238-5,5-5h56.409c2.762,0,5,2.238,5,5       S322.959,163.152,320.197,163.152z" fill="#3F456B"/></g></g></g><g><g><g><path d="M385.445,227.152h-58.204c-2.762,0-5-2.238-5-5s2.238-5,5-5h58.204c2.762,0,5,2.238,5,5       S388.207,227.152,385.445,227.152z" fill="#3F456B"/></g></g></g><g><g><g><path d="M400.197,195.152H271.662c-2.762,0-5-2.238-5-5s2.238-5,5-5h128.535c2.762,0,5,2.238,5,5       S402.959,195.152,400.197,195.152z" fill="#3F456B"/></g></g></g><g><g><g><path d="M334.658,160.849c1.491,3.25,5.331,4.678,8.582,3.188c3.249-1.49,4.676-5.334,3.186-8.582       c-1.489-3.25-5.332-4.676-8.58-3.187C334.595,153.758,333.169,157.6,334.658,160.849z" fill="#3F456B"/></g></g></g><g><g><g><g><path d="M401.069,369.377c-1.976,0-3.848-1.179-4.636-3.122l-3.628-8.945        c-1.037-2.559,0.195-5.475,2.755-6.513c2.557-1.035,5.476,0.196,6.513,2.755l3.628,8.945c1.037,2.559-0.195,5.475-2.755,6.513        C402.331,369.259,401.695,369.377,401.069,369.377z" fill="#3F456B"/></g></g></g><g><g><g><path d="M451.557,493.876c-1.976,0-3.848-1.179-4.636-3.122l-4.283-10.562        c-1.037-2.559,0.196-5.475,2.755-6.513c2.561-1.036,5.475,0.196,6.513,2.755l4.283,10.562        c1.037,2.559-0.196,5.475-2.755,6.513C452.818,493.758,452.182,493.876,451.557,493.876z" fill="#3F456B"/></g></g></g><g><g><g><path d="M481.462,404.054c-1.976,0-3.848-1.179-4.636-3.122c-1.037-2.559,0.195-5.475,2.755-6.513l9.76-3.958        c2.56-1.037,5.476,0.197,6.513,2.755c1.037,2.559-0.195,5.475-2.755,6.513l-9.76,3.958        C482.724,403.936,482.087,404.054,481.462,404.054z" fill="#3F456B"/></g></g></g><g><g><g><path d="M448.681,369.972c-0.649,0-1.31-0.127-1.945-0.396c-2.544-1.076-3.733-4.01-2.658-6.553l3.859-9.125        c1.076-2.544,4.009-3.732,6.553-2.658c2.544,1.076,3.733,4.01,2.658,6.553l-3.859,9.125        C452.48,368.826,450.629,369.972,448.681,369.972z" fill="#3F456B"/></g></g></g><g><g><g><path d="M396.451,493.46c-0.649,0-1.31-0.127-1.945-0.396c-2.544-1.076-3.733-4.01-2.658-6.553l4.339-10.26        c1.075-2.544,4.009-3.732,6.553-2.658c2.544,1.076,3.733,4.01,2.658,6.553l-4.339,10.26        C400.252,492.314,398.399,493.46,396.451,493.46z" fill="#3F456B"/></g></g></g><g><g><g><path d="M490.802,455.198c-0.649,0-1.31-0.127-1.945-0.396l-10.26-4.339c-2.544-1.076-3.733-4.01-2.658-6.553        c1.076-2.544,4.011-3.731,6.553-2.658l10.26,4.339c2.544,1.076,3.733,4.01,2.658,6.553        C494.603,454.053,492.75,455.198,490.802,455.198z" fill="#3F456B"/></g></g></g><g><g><g><path d="M380.777,382.777c-1.292,0-2.583-0.498-3.562-1.491l-6.807-6.909c-1.938-1.967-1.915-5.133,0.053-7.07        c1.967-1.938,5.133-1.915,7.07,0.053l6.807,6.909c1.938,1.967,1.915,5.133-0.053,7.07        C383.312,382.299,382.045,382.777,380.777,382.777z" fill="#3F456B"/></g></g></g><g><g><g><path d="M475.024,478.438c-1.292,0-2.583-0.498-3.562-1.491l-7.938-8.057c-1.938-1.967-1.915-5.133,0.053-7.07        c1.967-1.938,5.132-1.914,7.07,0.053l7.938,8.057c1.938,1.967,1.915,5.133-0.053,7.07        C477.56,477.959,476.292,478.438,475.024,478.438z" fill="#3F456B"/></g></g></g><g><g><g><path d="M468.533,383.767c-1.292,0-2.583-0.498-3.562-1.491c-1.938-1.967-1.915-5.133,0.053-7.07l7.249-7.142        c1.966-1.938,5.132-1.914,7.07,0.053s1.915,5.133-0.053,7.07l-7.249,7.142C471.068,383.288,469.801,383.767,468.533,383.767z" fill="#3F456B"/></g></g></g><g><g><g><path d="M373.214,477.679c-1.292,0-2.583-0.498-3.562-1.491c-1.938-1.967-1.915-5.133,0.053-7.07l7.724-7.609        c1.967-1.938,5.133-1.914,7.07,0.053c1.938,1.967,1.915,5.133-0.053,7.07l-7.724,7.609        C375.749,477.2,374.481,477.679,373.214,477.679z" fill="#3F456B"/></g></g></g><g><g><g><path d="M424.962,364.859c-0.013,0-0.025,0-0.038,0c-2.762-0.021-4.983-2.276-4.963-5.037l0.072-9.705        c0.021-2.749,2.256-4.963,4.999-4.963c0.013,0,0.025,0,0.038,0c2.762,0.021,4.983,2.276,4.963,5.037l-0.072,9.705        C429.94,362.646,427.705,364.859,424.962,364.859z" fill="#3F456B"/></g></g></g><g><g><g><path d="M423.963,499.15c-0.013,0-0.025,0-0.038,0c-2.762-0.021-4.983-2.275-4.963-5.037l0.084-11.316        c0.021-2.749,2.255-4.963,4.999-4.963c0.013,0,0.025,0,0.038,0c2.762,0.021,4.983,2.275,4.963,5.037l-0.084,11.316        C428.941,496.937,426.707,499.15,423.963,499.15z" fill="#3F456B"/></g></g></g><g><g><g><path d="M496.495,427.688c-0.013,0-0.025,0-0.038,0l-10.848-0.081c-2.762-0.021-4.983-2.276-4.963-5.037        c0.021-2.749,2.255-4.963,4.999-4.963c0.013,0,0.025,0,0.038,0l10.848,0.081c2.762,0.021,4.983,2.276,4.963,5.037        C501.474,425.475,499.238,427.688,496.495,427.688z" fill="#3F456B"/></g></g></g></g><g><g><g><path d="M411.899,46.149c0-2.76,2.24-5,5-5l0,0c2.761,0,5,2.24,5,5l0,0c0,2.761-2.239,5-5,5l0,0       C414.14,51.149,411.899,48.91,411.899,46.149z M391.899,46.149c0-2.76,2.24-5,5-5l0,0c2.761,0,5,2.24,5,5l0,0       c0,2.761-2.239,5-5,5l0,0C394.14,51.149,391.899,48.91,391.899,46.149z M371.899,46.149c0-2.76,2.24-5,5-5l0,0       c2.761,0,5,2.24,5,5l0,0c0,2.761-2.239,5-5,5l0,0C374.14,51.149,371.899,48.91,371.899,46.149z M351.899,46.149       c0-2.76,2.23-5,5-5l0,0c2.761,0,5,2.24,5,5l0,0c0,2.761-2.239,5-5,5l0,0C354.13,51.149,351.899,48.91,351.899,46.149z        M331.899,46.149c0-2.76,2.24-5,5-5l0,0c2.761,0,5,2.24,5,5l0,0c0,2.761-2.239,5-5,5l0,0       C334.14,51.149,331.899,48.91,331.899,46.149z M311.899,46.149c0-2.76,2.24-5,5-5l0,0c2.761,0,5,2.24,5,5l0,0       c0,2.761-2.239,5-5,5l0,0C314.14,51.149,311.899,48.91,311.899,46.149z M291.899,46.149c0-2.76,2.24-5,5-5l0,0       c2.761,0,5,2.24,5,5l0,0c0,2.761-2.239,5-5,5l0,0C294.14,51.149,291.899,48.91,291.899,46.149z M271.899,46.149       c0-2.76,2.23-5,5-5l0,0c2.761,0,5,2.24,5,5l0,0c0,2.761-2.239,5-5,5l0,0C274.13,51.149,271.899,48.91,271.899,46.149z        M251.899,46.149c0-2.76,2.24-5,5-5l0,0c2.761,0,5,2.24,5,5l0,0c0,2.761-2.239,5-5,5l0,0       C254.14,51.149,251.899,48.91,251.899,46.149z M231.899,46.149c0-2.76,2.24-5,5-5l0,0c2.761,0,5,2.24,5,5l0,0       c0,2.761-2.239,5-5,5l0,0C234.14,51.149,231.899,48.91,231.899,46.149z M211.899,46.149c0-2.76,2.24-5,5-5l0,0       c2.761,0,5,2.24,5,5l0,0c0,2.761-2.239,5-5,5l0,0C214.14,51.149,211.899,48.91,211.899,46.149z M191.899,46.149       c0-2.76,2.24-5,5-5l0,0c2.761,0,5,2.24,5,5l0,0c0,2.761-2.239,5-5,5l0,0C194.14,51.149,191.899,48.91,191.899,46.149z        M171.899,46.149c0-2.76,2.24-5,5-5l0,0c2.761,0,5,2.24,5,5l0,0c0,2.761-2.239,5-5,5l0,0       C174.14,51.149,171.899,48.91,171.899,46.149z M151.899,46.149c0-2.76,2.24-5,5-5l0,0c2.761,0,5,2.24,5,5l0,0       c0,2.761-2.239,5-5,5l0,0C154.14,51.149,151.899,48.91,151.899,46.149z" fill="#384169"/></g></g></g><g><g><g><path d="M491.8,110.149c0-2.76,2.24-5,5-5l0,0c2.76,0,5,2.24,5,5l0,0c0,2.761-2.24,5-5,5l0,0       C494.04,115.149,491.8,112.91,491.8,110.149z M471.8,110.149c0-2.76,2.24-5,5-5l0,0c2.76,0,5,2.24,5,5l0,0c0,2.761-2.24,5-5,5       l0,0C474.04,115.149,471.8,112.91,471.8,110.149z M451.8,110.149c0-2.76,2.23-5,5-5l0,0c2.76,0,5,2.24,5,5l0,0       c0,2.761-2.24,5-5,5l0,0C454.03,115.149,451.8,112.91,451.8,110.149z M431.8,110.149c0-2.76,2.24-5,5-5l0,0c2.76,0,5,2.24,5,5       l0,0c0,2.761-2.24,5-5,5l0,0C434.04,115.149,431.8,112.91,431.8,110.149z" fill="#384169"/></g></g></g><g><g><g><path d="M139.2,110.149c0-2.76,2.239-5,5-5l0,0c2.76,0,5,2.24,5,5l0,0c0,2.761-2.24,5-5,5l0,0       C141.439,115.149,139.2,112.91,139.2,110.149z M119.2,110.149c0-2.76,2.239-5,5-5l0,0c2.76,0,5,2.24,5,5l0,0       c0,2.761-2.24,5-5,5l0,0C121.439,115.149,119.2,112.91,119.2,110.149z M99.2,110.149c0-2.76,2.239-5,5-5l0,0c2.76,0,5,2.24,5,5       l0,0c0,2.761-2.24,5-5,5l0,0C101.439,115.149,99.2,112.91,99.2,110.149z M79.2,110.149c0-2.76,2.239-5,5-5l0,0       c2.76,0,5,2.24,5,5l0,0c0,2.761-2.24,5-5,5l0,0C81.439,115.149,79.2,112.91,79.2,110.149z M59.2,110.149c0-2.76,2.239-5,5-5       l0,0c2.76,0,5,2.24,5,5l0,0c0,2.761-2.24,5-5,5l0,0C61.439,115.149,59.2,112.91,59.2,110.149z M39.2,110.149       c0-2.76,2.229-5,5-5l0,0c2.76,0,5,2.24,5,5l0,0c0,2.761-2.24,5-5,5l0,0C41.43,115.149,39.2,112.91,39.2,110.149z" fill="#384169"/></g></g></g><g><g><g><g><g><g><path d="M197.302,114.164c-1.921,0-3.752-1.112-4.577-2.982l-5.467-12.388          c-1.115-2.526,0.029-5.478,2.556-6.593c2.525-1.119,5.478,0.029,6.593,2.556l5.467,12.388          c1.115,2.526-0.029,5.478-2.556,6.593C198.661,114.027,197.976,114.164,197.302,114.164z" fill="#3F456B"/></g></g></g></g><g><g><g><g><path d="M251.484,134.772c-1.918,0-3.748-1.109-4.574-2.976c-1.119-2.525,0.021-5.479,2.546-6.597          l11.887-5.266c2.523-1.12,5.479,0.021,6.597,2.546c1.119,2.525-0.021,5.479-2.546,6.597l-11.887,5.266          C252.849,134.635,252.161,134.772,251.484,134.772z" fill="#3F456B"/></g></g></g></g><g><g><g><g><path d="M238.048,118.305c-1.024,0-2.059-0.313-2.948-0.965c-2.229-1.631-2.714-4.759-1.083-6.987          l7.893-10.787c1.631-2.229,4.761-2.714,6.987-1.083c2.229,1.631,2.714,4.759,1.083,6.987l-7.893,10.787          C241.107,117.596,239.588,118.305,238.048,118.305z" fill="#3F456B"/></g></g></g></g><g><g><g><g><path d="M218.419,110.799c-0.18,0-0.361-0.009-0.545-0.029c-2.745-0.297-4.729-2.764-4.432-5.51          l1.451-13.392c0.298-2.744,2.751-4.739,5.51-4.432c2.745,0.297,4.729,2.764,4.432,5.51l-1.451,13.392          C223.106,108.899,220.938,110.799,218.419,110.799z" fill="#3F456B"/></g></g></g></g></g><g><g><g><g><g><path d="M196.852,112.919c-1.917,0-3.746-1.108-4.573-2.975l-4.953-11.17          c-1.12-2.523,0.02-5.478,2.544-6.597c2.523-1.123,5.478,0.019,6.597,2.544l4.953,11.17c1.12,2.523-0.02,5.478-2.544,6.597          C198.217,112.781,197.528,112.919,196.852,112.919z" fill="#3F456B"/></g></g></g></g><g><g><g><g><path d="M179.638,126.437c-1.024,0-2.059-0.313-2.948-0.965l-10.058-7.358          c-2.229-1.631-2.714-4.759-1.083-6.987c1.631-2.229,4.761-2.713,6.987-1.083l10.058,7.358          c2.229,1.631,2.714,4.759,1.083,6.987C182.697,125.728,181.178,126.437,179.638,126.437z" fill="#3F456B"/></g></g></g></g><g><g><g><g><path d="M172.347,146.551c-0.18,0-0.361-0.009-0.545-0.029l-12.867-1.396          c-2.745-0.298-4.729-2.765-4.432-5.51c0.297-2.745,2.747-4.737,5.51-4.432l12.867,1.396c2.745,0.298,4.729,2.765,4.432,5.51          C177.034,144.652,174.866,146.551,172.347,146.551z" fill="#3F456B"/></g></g></g></g><g><g><g><g><path d="M163.868,172.604c-1.918,0-3.747-1.109-4.574-2.976c-1.119-2.524,0.021-5.479,2.546-6.597          l11.886-5.266c2.522-1.12,5.478,0.021,6.597,2.546c1.119,2.524-0.021,5.479-2.546,6.597l-11.886,5.266          C165.232,172.466,164.545,172.604,163.868,172.604z" fill="#3F456B"/></g></g></g></g></g></g><g><g><g><g><path d="M108.805,496.229c-2.152,0-4.141-1.4-4.788-3.568l-3.265-10.919c-0.791-2.646,0.712-5.432,3.357-6.223        c2.644-0.797,5.433,0.712,6.223,3.357l3.265,10.919c0.791,2.646-0.712,5.432-3.357,6.223        C109.762,496.162,109.279,496.229,108.805,496.229z" fill="#3F456B"/></g></g></g><g><g><g><path d="M147.073,409.641c-2.152,0-4.141-1.4-4.788-3.569c-0.791-2.646,0.712-5.432,3.358-6.222l10.091-3.017        c2.641-0.799,5.432,0.712,6.222,3.358c0.791,2.646-0.712,5.432-3.358,6.222l-10.091,3.017        C148.03,409.573,147.547,409.641,147.073,409.641z" fill="#3F456B"/></g></g></g><g><g><g><path d="M19.198,447.87c-2.152,0-4.141-1.4-4.788-3.568c-0.791-2.646,0.712-5.433,3.357-6.223l10.084-3.015        c2.646-0.794,5.433,0.712,6.223,3.357c0.791,2.646-0.712,5.433-3.357,6.223l-10.084,3.015        C20.155,447.803,19.672,447.87,19.198,447.87z" fill="#3F456B"/></g></g></g><g><g><g><path d="M53.987,490.603c-0.803,0-1.615-0.193-2.371-0.601c-2.43-1.312-3.337-4.345-2.025-6.775l5.29-9.803        c1.312-2.431,4.346-3.333,6.775-2.025c2.43,1.312,3.337,4.345,2.025,6.775l-5.29,9.803        C57.487,489.651,55.766,490.603,53.987,490.603z" fill="#3F456B"/></g></g></g><g><g><g><path d="M151.533,461.439c-0.802,0-1.614-0.193-2.37-0.601l-9.803-5.29c-2.43-1.312-3.337-4.345-2.025-6.775        c1.312-2.43,4.343-3.336,6.775-2.025l9.803,5.29c2.43,1.312,3.337,4.345,2.025,6.775        C155.034,460.488,153.312,461.439,151.533,461.439z" fill="#3F456B"/></g></g></g><g><g><g><path d="M33.541,397.76c-0.803,0-1.615-0.193-2.371-0.601l-8.718-4.705c-2.43-1.312-3.337-4.345-2.025-6.775        c1.312-2.43,4.343-3.337,6.775-2.025l8.718,4.705c2.43,1.312,3.337,4.345,2.025,6.775        C37.041,396.809,35.319,397.76,33.541,397.76z" fill="#3F456B"/></g></g></g><g><g><g><path d="M133.634,483.081c-1.452,0-2.893-0.63-3.881-1.844l-7.14-8.771c-1.743-2.142-1.42-5.291,0.722-7.034        c2.143-1.743,5.291-1.419,7.034,0.722l7.14,8.771c1.743,2.142,1.42,5.291-0.722,7.034        C135.859,482.714,134.743,483.081,133.634,483.081z" fill="#3F456B"/></g></g></g><g><g><g><path d="M136.13,388.222c-1.452,0-2.893-0.629-3.881-1.844c-1.743-2.142-1.42-5.291,0.722-7.034l7.892-6.424        c2.14-1.743,5.291-1.421,7.034,0.722c1.743,2.142,1.42,5.291-0.722,7.034l-7.892,6.424        C138.356,387.854,137.239,388.222,136.13,388.222z" fill="#3F456B"/></g></g></g><g><g><g><path d="M32.352,472.693c-1.452,0-2.893-0.63-3.881-1.844c-1.743-2.142-1.42-5.291,0.722-7.034l8.409-6.844        c2.143-1.743,5.291-1.42,7.034,0.722s1.42,5.291-0.722,7.034l-8.409,6.844C34.577,472.326,33.461,472.693,32.352,472.693z" fill="#3F456B"/></g></g></g><g><g><g><path d="M80.844,498.87c-0.17,0-0.343-0.009-0.516-0.026c-2.747-0.281-4.746-2.736-4.464-5.483l1.154-11.257        c0.281-2.747,2.727-4.757,5.483-4.464c2.747,0.281,4.746,2.736,4.464,5.483l-1.154,11.257        C85.548,496.954,83.376,498.87,80.844,498.87z" fill="#3F456B"/></g></g></g><g><g><g><path d="M159.812,434.592c-0.171,0-0.343-0.009-0.517-0.026l-10.792-1.107        c-2.747-0.281-4.745-2.737-4.463-5.484s2.729-4.739,5.484-4.463l10.792,1.107c2.747,0.281,4.745,2.737,4.463,5.484        C164.517,432.676,162.345,434.592,159.812,434.592z" fill="#3F456B"/></g></g></g><g><g><g><path d="M26.693,420.939c-0.17,0-0.343-0.008-0.516-0.026l-10.128-1.038c-2.747-0.281-4.746-2.736-4.464-5.483        c0.281-2.746,2.732-4.77,5.483-4.464l10.128,1.038c2.747,0.281,4.746,2.736,4.464,5.483        C31.397,419.022,29.226,420.939,26.693,420.939z" fill="#3F456B"/></g></g></g></g></g><g><g><g><g><g><path d="M67.931,153.774c-1.279,0-2.56-0.488-3.535-1.465c-1.953-1.952-1.953-5.118,0-7.07l8.018-8.018        c1.951-1.953,5.119-1.953,7.07,0c1.953,1.952,1.953,5.118,0,7.07l-8.018,8.018C70.49,153.286,69.21,153.774,67.931,153.774z" fill="#3F456B"/></g></g></g><g><g><g><path d="M40.568,181.117c-1.279,0-2.56-0.488-3.535-1.465c-1.953-1.952-1.953-5.118,0-7.07l8.018-8.018        c1.951-1.953,5.119-1.953,7.07,0c1.953,1.952,1.953,5.118,0,7.07l-8.018,8.018C43.128,180.629,41.848,181.117,40.568,181.117z        " fill="#3F456B"/></g></g></g></g><g><g><g><g><path d="M75.938,181.127c-1.279,0-2.559-0.488-3.535-1.464l-8.018-8.017c-1.953-1.953-1.953-5.119-0.001-7.071        c1.953-1.953,5.118-1.952,7.071-0.001l8.018,8.017c1.953,1.953,1.953,5.119,0.001,7.071        C78.498,180.639,77.218,181.127,75.938,181.127z" fill="#3F456B"/></g></g></g><g><g><g><path d="M48.596,153.765c-1.279,0-2.56-0.488-3.535-1.465l-8.018-8.018c-1.953-1.952-1.953-5.118,0-7.07        c1.951-1.953,5.119-1.953,7.07,0l8.018,8.018c1.953,1.952,1.953,5.118,0,7.07C51.155,153.276,49.875,153.765,48.596,153.765z" fill="#3F456B"/></g></g></g></g></g><g><g><g><path d="M493.854,259.744H416.1c-2.762,0-5-2.238-5-5s2.238-5,5-5h77.754c2.762,0,5,2.238,5,5      S496.615,259.744,493.854,259.744z" fill="#3F456B"/></g></g></g></g></svg>