<?xml version="1.0" ?><svg viewBox="0 0 512 512" xmlns="http://www.w3.org/2000/svg"><defs><style>.cls-1{fill:#3f456b;}</style></defs><title/><g id="Lines"><g data-name="&lt;编组&gt;" id="_编组_"><path class="cls-1" d="M297.76,267.92l-9.24-3.82,57.81-139.8a150.32,150.32,0,0,0-111.25,1.57l-3.81-9.24a160.3,160.3,0,0,1,123.07.09l.46.19a5,5,0,0,1,2.71,6.53Z"/></g><g data-name="&lt;编组&gt;" id="_编组_2"><path class="cls-1" d="M298,268.61l-9.25-3.79L354.9,103.75a5,5,0,0,1,6.47-2.75c46.61,18.47,80.3,52.12,97.44,97.3l.14.34-9.2,3.92-.19-.47a1.11,1.11,0,0,1-.07-.16c-15.55-41-45.65-72-87.24-89.76Z"/></g><g data-name="&lt;编组&gt;" id="_编组_3"><path class="cls-1" d="M474.41,342.54l-9.09-4.17c17.45-38.09,18.06-96.55,1.83-138.27L295.49,271.49l-3.84-9.23,176.29-73.32a5,5,0,0,1,6.51,2.63c9.33,21.57,14.46,48.68,14.46,76.35S483.76,322.13,474.41,342.54Z"/></g><g data-name="&lt;编组&gt;" id="_编组_4"><path class="cls-1" d="M373,465l-3.37-9.42c47.43-17,89.59-58.23,108.59-105.85L290.7,271.87l3.84-9.24,192,79.71a5,5,0,0,1,2.78,6.34C470.28,400.86,424.61,446.51,373,465Z"/></g><g data-name="&lt;编组&gt;" id="_编组_5"><path class="cls-1" d="M289.53,500.2c-31,0-62-6.84-85.71-22.56l5.54-8.33c21,13.94,50.7,21.37,83.6,20.88,29.56-.43,58.58-7.29,80.44-18.92L289.56,267.63l9.24-3.81,85.53,207.75a5,5,0,0,1-2.11,6.23C358.11,491.81,323.85,500.2,289.53,500.2Z"/></g><g data-name="&lt;编组&gt;" id="_编组_6"><path class="cls-1" d="M200.7,494a4.77,4.77,0,0,1-1.29-.17c-31.24-8.32-61.77-25.68-86-48.87-26.21-25.12-43.37-55.19-49.62-87l9.81-1.93c5.85,29.75,22,58,46.72,81.68,21.92,21,49.27,37,77.44,45.25l91.34-218.79,9.23,3.85L205.31,491A5,5,0,0,1,200.7,494Z"/></g><g data-name="&lt;编组&gt;" id="_编组_7"><path class="cls-1" d="M53.74,369.45a5,5,0,0,1-4.3-2.44A203.92,203.92,0,0,1,20.89,264.24c-.31-37.37,9.59-72.83,28.63-102.56L58,167.07c-18,28.1-27.35,61.67-27.06,97.08a194.1,194.1,0,0,0,25,94l235.3-96.86,3.81,9.25L55.64,369.07A4.92,4.92,0,0,1,53.74,369.45Z"/></g><g data-name="&lt;编组&gt;" id="_编组_8"><path class="cls-1" d="M295.21,272.46a5,5,0,0,1-1.93-.39L39.06,165.71a5,5,0,0,1-2.92-5.83C56.39,78.64,115.62,19.5,190.71,5.55a5,5,0,0,1,5.53,3c14,33.87,102.72,254.81,103.61,257a5,5,0,0,1-4.64,6.86ZM46.92,158.15l239.2,100.09c-17.61-43.81-82-204.06-97.56-242.07C120.52,30.46,66.77,84.33,46.92,158.15Z"/></g></g><g id="Outline"><path class="cls-1" d="M378,25H250a5,5,0,0,1,0-10H378a5,5,0,0,1,0,10Z"/><path class="cls-1" d="M378,52H250a5,5,0,0,1,0-10H378a5,5,0,0,1,0,10Z"/><path class="cls-1" d="M314,80H250a5,5,0,0,1,0-10h64a5,5,0,0,1,0,10Z"/></g></svg>