<?xml version="1.0" ?><svg viewBox="0 0 512 512" xmlns="http://www.w3.org/2000/svg"><defs><style>.cls-1{fill:#3f456b;}</style></defs><title/><g id="Lines"><path class="cls-1" d="M97,500a5,5,0,0,1-2.57-.71l-64-38.4A5,5,0,0,1,28,456.28l18.67-288,0-.37c.12-.84,3-20.74,14.4-34.85a43.71,43.71,0,0,0,9.56-24.48V91.5l-21-56.76A5,5,0,0,1,50,30.45C50.53,29.62,62.55,10,97,10s46.47,19.62,47,20.45a5,5,0,0,1,.39,4.29l-21,56.76v17.1a43.72,43.72,0,0,0,9.56,24.46c11.41,14.11,14.28,34,14.4,34.85l0,.37,18.67,288a5,5,0,0,1-2.42,4.61l-64,38.4A5,5,0,0,1,97,500ZM38.19,453.88,97,489.17l58.81-35.29L137.36,169.13c-.28-1.78-3.1-18.46-12.25-29.79a53.11,53.11,0,0,1-11.78-30.74v-18a5.19,5.19,0,0,1,.31-1.74L134,33.79C130.57,29.71,119.92,20,97,20S63.45,29.69,60,33.8l20.4,55.06a5.19,5.19,0,0,1,.31,1.74v18a53.11,53.11,0,0,1-11.78,30.74c-9.2,11.38-12,28-12.25,29.79Z"/><path class="cls-1" d="M118.33,95.6H75.67a5,5,0,1,1,0-10h42.66a5,5,0,1,1,0,10Z"/><path class="cls-1" d="M194,452a5,5,0,0,1-5-5V63a5,5,0,0,1,10,0V447A5,5,0,0,1,194,452Z"/><path class="cls-1" d="M481,452a5,5,0,0,1-5-5V63a5,5,0,0,1,10,0V447A5,5,0,0,1,481,452Z"/><path class="cls-1" d="M337.5,356a5,5,0,0,1-5-5V63a5,5,0,0,1,10,0V351A5,5,0,0,1,337.5,356Z"/><path class="cls-1" d="M481,164H194a5,5,0,0,1,0-10H481a5,5,0,0,1,0,10Z"/><path class="cls-1" d="M481,68H194a5,5,0,0,1,0-10H481a5,5,0,0,1,0,10Z"/><path class="cls-1" d="M481,453H194a5,5,0,0,1,0-10H481a5,5,0,0,1,0,10Z"/><path class="cls-1" d="M481,260H194a5,5,0,0,1,0-10H481a5,5,0,0,1,0,10Z"/><path class="cls-1" d="M481,356H194a5,5,0,0,1,0-10H481a5,5,0,0,1,0,10Z"/><path class="cls-1" d="M321,164a5,5,0,0,1-5-5V89a5,5,0,0,0-5-5H219a5,5,0,0,0-5,5v70a5,5,0,0,1-10,0V89a15,15,0,0,1,15-15h92a15,15,0,0,1,15,15v70A5,5,0,0,1,321,164Z"/><path class="cls-1" d="M465,164a5,5,0,0,1-5-5V89a5,5,0,0,0-5-5H363a5,5,0,0,0-5,5v70a5,5,0,0,1-10,0V89a15,15,0,0,1,15-15h92a15,15,0,0,1,15,15v70A5,5,0,0,1,465,164Z"/><path class="cls-1" d="M321,260a5,5,0,0,1-5-5V185a5,5,0,0,0-5-5H219a5,5,0,0,0-5,5v70a5,5,0,0,1-10,0V185a15,15,0,0,1,15-15h92a15,15,0,0,1,15,15v70A5,5,0,0,1,321,260Z"/><path class="cls-1" d="M465,260a5,5,0,0,1-5-5V185a5,5,0,0,0-5-5H363a5,5,0,0,0-5,5v70a5,5,0,0,1-10,0V185a15,15,0,0,1,15-15h92a15,15,0,0,1,15,15v70A5,5,0,0,1,465,260Z"/><path class="cls-1" d="M321,356a5,5,0,0,1-5-5V281a5,5,0,0,0-5-5H219a5,5,0,0,0-5,5v70a5,5,0,0,1-10,0V281a15,15,0,0,1,15-15h92a15,15,0,0,1,15,15v70A5,5,0,0,1,321,356Z"/><path class="cls-1" d="M465,356a5,5,0,0,1-5-5V281a5,5,0,0,0-5-5H363a5,5,0,0,0-5,5v70a5,5,0,0,1-10,0V281a15,15,0,0,1,15-15h92a15,15,0,0,1,15,15v70A5,5,0,0,1,465,356Z"/></g><g id="Outline"><path class="cls-1" d="M74,485.22a5,5,0,0,1-2.88-9.09l83.52-58.82a5,5,0,0,1,5.76,8.18L76.85,484.31A5,5,0,0,1,74,485.22Z"/><path class="cls-1" d="M35.23,427.31a5,5,0,0,1-2.89-9.09L149.66,335.6a5,5,0,1,1,5.76,8.17L38.1,426.39A4.94,4.94,0,0,1,35.23,427.31Z"/><path class="cls-1" d="M40.57,466.14a5,5,0,0,1-2.88-9.09l114.62-80.72a5,5,0,1,1,5.76,8.18L43.45,465.23A5,5,0,0,1,40.57,466.14Z"/><path class="cls-1" d="M41,338a5,5,0,0,1-2.88-9.09l106.57-75a5,5,0,0,1,5.76,8.17L43.89,337.12A5,5,0,0,1,41,338Z"/><path class="cls-1" d="M37.4,383.18a5,5,0,0,1-2.89-9.09l112.67-79.34a5,5,0,1,1,5.76,8.17L40.27,382.27A5,5,0,0,1,37.4,383.18Z"/><path class="cls-1" d="M43.91,293.39A5,5,0,0,1,41,284.31L141.5,213.55a5,5,0,1,1,5.76,8.17L46.78,292.48A4.93,4.93,0,0,1,43.91,293.39Z"/><path class="cls-1" d="M57.54,156a5,5,0,0,1-2.89-9.08l60.8-42.82a5,5,0,1,1,5.76,8.17l-60.8,42.82A4.93,4.93,0,0,1,57.54,156Z"/><path class="cls-1" d="M46.8,248.76a5,5,0,0,1-2.88-9.09l96-67.63a5,5,0,0,1,5.76,8.18l-96,67.62A4.94,4.94,0,0,1,46.8,248.76Z"/><path class="cls-1" d="M75.9,100.46A5,5,0,0,1,73,91.37l54.42-38.32a5,5,0,0,1,5.75,8.18L78.78,99.55A5,5,0,0,1,75.9,100.46Z"/><path class="cls-1" d="M63.6,63a5,5,0,0,1-2.88-9.08l55.94-39.4a5,5,0,1,1,5.76,8.17L66.47,62.09A4.93,4.93,0,0,1,63.6,63Z"/><path class="cls-1" d="M49.5,200.73a5,5,0,0,1-2.88-9.09l81.25-57.21a5,5,0,0,1,5.76,8.17L52.38,199.82A5,5,0,0,1,49.5,200.73Z"/><path class="cls-1" d="M440.83,207h-1a5,5,0,1,1,0-10h1a5,5,0,0,1,0,10Z"/><path class="cls-1" d="M440.83,237h-1a5,5,0,1,1,0-10h1a5,5,0,0,1,0,10Z"/><path class="cls-1" d="M409.92,207h-1a5,5,0,0,1,0-10h1a5,5,0,1,1,0,10Z"/><path class="cls-1" d="M409.92,237h-1a5,5,0,0,1,0-10h1a5,5,0,1,1,0,10Z"/><path class="cls-1" d="M379,207h-1a5,5,0,0,1,0-10h1a5,5,0,0,1,0,10Z"/><path class="cls-1" d="M379,237h-1a5,5,0,0,1,0-10h1a5,5,0,0,1,0,10Z"/><path class="cls-1" d="M321,303H210a5,5,0,0,1,0-10H321a5,5,0,0,1,0,10Z"/><path class="cls-1" d="M321,330H210a5,5,0,0,1,0-10H321a5,5,0,0,1,0,10Z"/><path class="cls-1" d="M209,111a5,5,0,0,1-1.87-9.64l67-27a5,5,0,0,1,3.74,9.28l-67,27A5.13,5.13,0,0,1,209,111Z"/><path class="cls-1" d="M271,163a5,5,0,0,1-1.86-9.64l50-20a5,5,0,1,1,3.72,9.28l-50,20A4.88,4.88,0,0,1,271,163Z"/><path class="cls-1" d="M209,137a5,5,0,0,1-1.83-9.65l112-44a5,5,0,0,1,3.66,9.3l-112,44A4.91,4.91,0,0,1,209,137Z"/><path class="cls-1" d="M209,163a5,5,0,0,1-1.83-9.65l112-44a5,5,0,0,1,3.66,9.3l-112,44A4.91,4.91,0,0,1,209,163Z"/><path class="cls-1" d="M442,402h-1a5,5,0,0,1,0-10h1a5,5,0,0,1,0,10Zm-21,0h-1a5,5,0,0,1,0-10h1a5,5,0,0,1,0,10Zm-21,0h-1a5,5,0,0,1,0-10h1a5,5,0,0,1,0,10Zm-21,0h-1a5,5,0,0,1,0-10h1a5,5,0,0,1,0,10Zm-21,0h-1a5,5,0,0,1,0-10h1a5,5,0,0,1,0,10Zm-21,0h-1a5,5,0,0,1,0-10h1a5,5,0,0,1,0,10Zm-21,0h-1a5,5,0,0,1,0-10h1a5,5,0,0,1,0,10Zm-21,0h-1a5,5,0,0,1,0-10h1a5,5,0,0,1,0,10Zm-21,0h-1a5,5,0,0,1,0-10h1a5,5,0,0,1,0,10Zm-21,0h-1a5,5,0,0,1,0-10h1a5,5,0,0,1,0,10Zm-21,0h-1a5,5,0,0,1,0-10h1a5,5,0,0,1,0,10Z"/></g></svg>