<?xml version="1.0" ?><svg viewBox="0 0 512 512" xmlns="http://www.w3.org/2000/svg"><defs><style>.cls-1{fill:#3f456b;}</style></defs><title/><g id="Lines"><path class="cls-1" d="M181.91,329.58a46.14,46.14,0,0,1-30-11.08c-13.92-12.19-31.53-26.29-31.71-26.43l-.21-.17c-29.16-26.1-35.94-48.55-40-62-.76-2.5-1.41-4.65-2.07-6.37-4-10.29-6.53-17.13-7-18.42-17-35.17-14.58-63.49-9.5-81.06C67,104.81,76.74,94,77.15,93.54a5,5,0,0,1,7.39,6.74c-.19.22-8.81,10-13.64,27.07-6.51,23-3.44,47.8,9.13,73.63a3.93,3.93,0,0,1,.18.43c0,.07,2.71,7.2,7.07,18.56.8,2.06,1.5,4.38,2.31,7.07,3.74,12.39,10,33.13,37,57.31,1.53,1.23,18.43,14.8,31.93,26.62a35.93,35.93,0,0,0,26.29,8.49A30.32,30.32,0,0,0,206.23,308c3.24-4,7.08-8.11,11.14-12.47,15.31-16.44,32.67-35.08,32-60.4a5,5,0,1,1,10-.25c.75,29.4-18.91,50.51-34.7,67.46-3.95,4.23-7.67,8.23-10.69,12a40.16,40.16,0,0,1-28.34,15.09Q183.79,329.58,181.91,329.58Z"/><path class="cls-1" d="M143.75,252.48a10.23,10.23,0,0,1-7.58-3.12c-4.52-4.67-3.89-12.7-3.64-14.76a121.68,121.68,0,0,0-1.32-22.78c-1.69-10.86-5.73-25.42-15.39-33.07-17.88-14.15-34.63-.64-35.33-.06A5,5,0,1,1,74.12,171c8.12-6.71,28.59-15.36,47.9-.07,23,18.24,20.6,62.56,20.48,64.44a2,2,0,0,1,0,.35c-.36,2.89.21,6.25.92,6.74a1.7,1.7,0,0,0,.71,0h.24c2-.11,7.89-.82,11.09-2.74a5,5,0,0,1,5.14,8.58c-5.71,3.43-14.18,4.05-15.6,4.14C144.55,252.46,144.15,252.48,143.75,252.48Z"/><path class="cls-1" d="M142.82,160.35a5,5,0,0,1-4-7.92c.72-1,18-24.39,52.28-21.54a5,5,0,0,1-.83,10c-28.73-2.4-43.19,17.22-43.34,17.42A5,5,0,0,1,142.82,160.35Z"/><path class="cls-1" d="M96.65,210.43c-7.91,0-11-3.12-11.84-4.26a5,5,0,0,1,7.61-6.47c.41.24,2.72,1.33,8.85.31,8-1.34,12.33-8.9,12.37-9a5,5,0,0,1,8.78,4.79c-.26.49-6.62,11.9-19.5,14.05A37.68,37.68,0,0,1,96.65,210.43Zm-3.84-10.27h0Zm0,0h0Z"/><path class="cls-1" d="M171.73,183A28.06,28.06,0,0,1,159,180.09a5,5,0,0,1,4.82-8.76,19.64,19.64,0,0,0,14.62.53c10.76-3.58,12.58-8.44,12.59-8.48a5,5,0,1,1,9.86,1.66c-.18,1.07-2.26,10.63-19.28,16.31A31.19,31.19,0,0,1,171.73,183Z"/><path class="cls-1" d="M110.16,317.16c-26.74,0-61-7.15-71.51-34.41-2.81-7.28-4.31-19.27,4.49-35.08,1.21-2.17,2.67-4.4,4.07-6.55,3.9-5.94,7.92-12.08,7.42-17.83-.25-3-4.52-4.58-9.65-6.22-1.56-.5-3.08-.94-4.68-1.41-9.09-2.63-19.39-5.61-24.74-15.81-8.57-16.31,2.25-30.32,11-41.57,2-2.63,3.95-5.11,5.5-7.46a29.83,29.83,0,0,0,4.88-15.23c1.76-30.67,11.85-48.83,13-50.83,14.57-28.22,34.42-30.9,40.92-31,1.35-1.34,3.65-3.95,4.75-5.21,1.44-1.63,2-2.31,2.53-2.75A114.16,114.16,0,0,1,126.55,27c30.86-14.26,65.36-11.06,97.14,9A77.76,77.76,0,0,0,264,47.7h.56c8.87,0,17.44-2,26.51-4.17,5.7-1.35,11.59-2.75,17.61-3.61C330.52,36.79,359,38.09,370.46,62c1.16,2.42,2.22,4.76,3.24,7,8.28,18.34,12.42,27.55,43,17.83,13.55-4.31,24.62-3.5,32.89,2.4,12.48,8.9,13.4,26,13.47,27.8,0,.61.93,10.42,7.95,14.94,5.47,3.53,13.63,3.26,24.23-.78a5,5,0,0,1,3.56,9.35c-13.79,5.25-25,5.18-33.29-.22-11.49-7.46-12.41-22.16-12.44-22.78v-.15c0-.13-.5-13.8-9.32-20.05-5.57-3.95-13.65-4.28-24-1-9.4,3-17,4.3-23.17,4.3-19.53,0-25.4-13-32-27.54-1-2.21-2-4.5-3.14-6.81-7.11-14.81-24.39-20.36-51.38-16.5-5.57.8-11.25,2.14-16.73,3.44-9.43,2.23-19.15,4.53-29.46,4.44a86.71,86.71,0,0,1-45.53-13.26c-28.82-18.2-59.93-21.18-87.6-8.4a104.43,104.43,0,0,0-25.91,17.18c-.27.27-1.09,1.21-1.76,2-6.16,7-8.09,9-11.32,8.62-.72-.07-19.05-1.54-33,25.65l-.16.29c-.09.16-10,17.2-11.69,46.41a39.62,39.62,0,0,1-6.53,20.18c-1.76,2.65-3.79,5.28-5.93,8-9.42,12.19-15.2,20.92-10,30.81,3.37,6.43,10.8,8.58,18.67,10.86,1.6.46,3.26.94,4.87,1.46,6,1.91,15.8,5.07,16.65,14.91.79,9.2-4.42,17.15-9,24.17-1.37,2.1-2.67,4.07-3.7,5.94-3.82,6.85-7.6,17-3.9,26.61,5.76,14.94,21.55,21.73,33.79,24.79,14,3.5,31.45,4.22,46.83,1.95a5,5,0,1,1,1.46,9.89A138.4,138.4,0,0,1,110.16,317.16ZM92.81,53.86l.13,0Z"/><path class="cls-1" d="M274.49,243.85q-3,0-6.36-.28c-19.75-1.68-27.15-10.94-29.88-18.41-5.46-14.94,3.44-34.07,9.95-40.58,3.39-3.39,5-8.65,3.77-12.52-1.48-4.72-6.72-6.61-10.87-7.36-21-3.83-29.23-28.6-30.36-32.37-24-50.82-67.11-48.18-67.54-48.14a4.53,4.53,0,0,1-.64,0c-.21,0-21.73-1-36.32,6.27a5,5,0,0,1-4.48-8.94c16.18-8.09,38.12-7.45,41-7.33,2.19-.11,14-.38,28.56,5.46s34.64,19,48.6,48.78a4.69,4.69,0,0,1,.29.79c.06.22,6.53,22.7,22.64,25.63,13.08,2.38,17.28,9.93,18.62,14.22,2.33,7.44-.18,16.51-6.24,22.57-4,4-11.53,19.4-7.63,30.08,2.52,6.89,9.7,10.88,21.34,11.87,10,.86,23-.17,27.81-9.89,3.93-7.91.89-17.7-1.84-20.74-9.11-10.12-13.23-19-12.59-27.19.46-5.93,3.39-11.12,8.72-15.45,4.56-3.71,6.23-8.91,4.45-13.91-1.86-5.25-8.07-10.86-19.89-10.86-14.6,0-21.07-5.74-23.93-10.55-4.72-8-2.61-17.77.95-24.29a5,5,0,1,1,8.78,4.79c-2.31,4.22-3.55,10.31-1.13,14.39,2.78,4.68,9.87,5.66,15.33,5.66,17,0,26.31,9.05,29.32,17.51,3.2,9,.3,18.62-7.57,25-3.16,2.57-4.82,5.34-5.06,8.46-.41,5.23,3,11.87,10.05,19.73,6,6.64,8.76,21,3.37,31.88C302.08,235.54,293.68,243.85,274.49,243.85Z"/><path class="cls-1" d="M411.78,326.47a39.56,39.56,0,0,1-7.92-.8C391,323.06,379.55,314,374.64,302.54c-6.18-14.42-13.44-22.78-62.14-17.37-15.84,1.76-28.23-1.63-36.82-10.09-14.1-13.86-12.19-36-12.1-37a5,5,0,0,1,10,.93c0,.33-1.48,18.5,9.19,28.94,6.35,6.22,16,8.65,28.66,7.24,24.42-2.71,40.09-2.26,50.79,1.47,12.71,4.42,18.08,13.55,21.65,21.9,3.65,8.51,12.29,15.29,22,17.27,10,2,20.08-1.22,28.36-9.17a5,5,0,1,1,6.93,7.21C432.55,322.15,422.35,326.47,411.78,326.47Z"/><path class="cls-1" d="M250,384a5,5,0,0,1-4.78-6.46c20.33-66.8,4.5-133,4.33-133.68a5,5,0,0,1,9.71-2.39c.7,2.8,16.68,69.47-4.48,139A5,5,0,0,1,250,384Z"/><path class="cls-1" d="M128,344l-.54,0a5,5,0,0,1-4.44-5.5c2.88-26.92.06-45.59,0-45.77a5,5,0,0,1,9.88-1.55c.13.81,3.07,20.05,0,48.38A5,5,0,0,1,128,344Z"/><path class="cls-1" d="M72.48,433.81C62,433.81,52,432,44,428.6,24,420,14,406.8,13.64,388.26a34.51,34.51,0,0,1,11.22-26.33,38.91,38.91,0,0,1,30.19-10.06,5,5,0,1,1-1,10,28.91,28.91,0,0,0-22.43,7.43,24.65,24.65,0,0,0-8,18.79c.3,14.41,8,24.37,24.33,31.35,19.52,8.37,53.51,5.19,69.76-11.6,16.82-17.38,19.15-43.4,5.94-66.3a5,5,0,0,1,8.66-5c15.26,26.46,12.28,57.91-7.42,78.25C112.27,427.81,91.61,433.81,72.48,433.81Z"/><path class="cls-1" d="M400,500H16a5,5,0,0,1-5-5V447a5,5,0,0,1,.53-2.24,68.3,68.3,0,0,1,26.12-28.17,5,5,0,0,1,4.71,8.82A59.17,59.17,0,0,0,21,448.21V490H395.17c.52-30.17-9.35-54.47-29.37-72.26-14.92-13.27-35.42-23-60.92-28.87-41.41-9.55-51.38-43.14-51.78-44.57a5,5,0,1,1,9.62-2.72c.34,1.17,8.94,29.36,44.4,37.55,27.16,6.26,49.13,16.74,65.33,31.13,23.44,20.84,34.39,49.44,32.54,85A5,5,0,0,1,400,500Z"/><path class="cls-1" d="M110.69,337.45c-16.46,0-38-2.66-46.23-10.91-4.15-4.16-6.24-8.73-6.22-13.6a18.5,18.5,0,0,1,5.18-12.39,5,5,0,0,1,7,7.09c-4.77,4.94-.84,9.92,1.07,11.82,7.76,7.77,44.75,9.69,55.09,6.73a5,5,0,0,1,2.74,9.62C126,336.78,119,337.45,110.69,337.45Z"/><path class="cls-1" d="M61.92,400.69a17.21,17.21,0,0,1-5.5-.95,5,5,0,1,1,3.16-9.48c3.36,1.12,4.44-.23,4.9-.81,2.07-2.59,2.12-8.18.11-11.5a43,43,0,0,0-5.65-6.83,58.09,58.09,0,0,1-6-7.16c-5.31-7.78-7.1-18.25-4.79-28,2.13-9,7.43-16.23,14.92-20.39a5,5,0,1,1,4.85,8.74,21.15,21.15,0,0,0-10,14c-1.65,7-.38,14.67,3.32,20.09a50.84,50.84,0,0,0,5.06,5.93,50.85,50.85,0,0,1,6.93,8.51c4.22,7,3.85,17-.85,22.92A12.9,12.9,0,0,1,61.92,400.69Z"/><path class="cls-1" d="M237.4,415.53c-16.52,0-30.68-7.87-45.15-24.22-20.41-23.08-52.22-12.08-53.56-11.6a5,5,0,0,1-3.39-9.41c1.6-.58,39.48-13.83,64.45,14.39,22.33,25.25,40.12,24.51,63.3,14.71a5,5,0,0,1,3.9,9.2C256.11,413.19,246.4,415.53,237.4,415.53Z"/><path class="cls-1" d="M320,443a5,5,0,0,1-3.67-1.61c-21.23-23-57.92-7-58.29-6.83a3.14,3.14,0,0,1-.46.18c-29.7,9.9-62.72,3.43-90.61-17.76-9-6.85-19.81-8.44-32.08-4.71a57.89,57.89,0,0,0-16.26,7.94,5,5,0,0,1-6-8c11.21-8.47,38.26-20.05,60.43-3.21,25.14,19.11,54.71,25,81.17,16.31,3.92-1.71,44.09-18.22,69.47,9.28A5,5,0,0,1,320,443Z"/><path class="cls-1" d="M193.32,390.2a5.47,5.47,0,0,1-.9-.08,5,5,0,0,1-4-5.82,23.88,23.88,0,0,0-13.64-24.83c-17.95-9-39-2.26-39.2-2.19a5,5,0,0,1-3.12-9.5c1-.34,25.21-8,46.8,2.75a33.85,33.85,0,0,1,19,35.56A5,5,0,0,1,193.32,390.2Z"/><path class="cls-1" d="M261.29,313.34h-.7a5,5,0,0,1,0-10h.66c32.21,0,37.26-22.73,37.46-23.71a5,5,0,0,1,9.82,1.92A38.39,38.39,0,0,1,300,297.87C293.89,305,282.19,313.34,261.29,313.34Z"/><path class="cls-1" d="M259.29,336.33a5,5,0,0,1-.49-10c22.93-2.27,39.28-9.33,48.59-21A36.35,36.35,0,0,0,315.54,280a5,5,0,0,1,9.92-1.31,46.55,46.55,0,0,1-10.1,32.74c-11,13.95-29.73,22.32-55.57,24.89Z"/><path class="cls-1" d="M284,380a5,5,0,0,1-.09-10c45.64-.82,61.75-34.41,64.14-40.05.1-10.27-2.52-17.75-7.81-22.24-8.47-7.19-21.64-4.93-21.77-4.9a5,5,0,1,1-1.87-9.83c.72-.14,17.91-3.25,30.11,7.11,7.86,6.67,11.67,17.1,11.32,31a5.29,5.29,0,0,1-.31,1.63c-.18.48-4.52,11.89-15.76,23.4-10.36,10.61-28.81,23.37-57.87,23.89Z"/><path class="cls-1" d="M320.64,393a5,5,0,0,1-1-9.9c17.86-3.68,43.58-25.34,44.38-37.39.18-2.7-.4-4.73-1.78-6.23-2.57-2.77-7.55-3.42-9.26-3.44a5,5,0,0,1,0-10c1.06,0,10.52.18,16.5,6.58,3.3,3.53,4.85,8.28,4.49,13.75-1.2,18-31.46,42.23-52.34,46.52A5,5,0,0,1,320.64,393Z"/><path class="cls-1" d="M494,500H397a5,5,0,0,1,0-10h93.29c8.5-30.05-1.29-52.44-11.23-66.11C462.83,401.58,433.61,386,408,386c-17.36,0-30-4.53-37.52-13.47-9.12-10.82-7-23.9-6.91-24.45a5,5,0,0,1,9.86,1.66c0,.19-1.34,9.27,4.78,16.44C383.78,372.7,393.8,376,408,376c29.06,0,60.86,16.88,79.14,42,11.69,16.07,23.2,42.73,11.62,78.53A5,5,0,0,1,494,500Z"/><path class="cls-1" d="M417.66,298a33.12,33.12,0,0,1-7-.73c-9.63-2.08-17.29-8.32-22.16-18.05-8.93-17.86-25.77-23.86-51.48-18.35-13.4,2.87-23.46,2.08-29.88-2.35-5.07-3.49-6-7.93-6.11-8.78l9.88-1.52a.93.93,0,0,0,0-.23c0,.07,2.36,7.75,24.05,3.1,30.38-6.51,51.42,1.45,62.52,23.65,3.47,6.93,8.76,11.34,15.32,12.76,7.9,1.7,17.26-1.07,25.06-7.4,11.21-9.11,25-13.24,36.95-11.05a30.78,30.78,0,0,1,21.53,15.42,5,5,0,0,1-8.66,5A20.75,20.75,0,0,0,473,278.91c-9-1.65-20,1.79-28.85,9C436,294.5,426.66,298,417.66,298Z"/><path class="cls-1" d="M494.83,218.91c-8,0-20.91-3.37-33-21.1-12.55-18.44-36.13-20.78-72.1-7.14-28.89,11-52,5.9-54.79,5.23-39.29-6.64-41.41-34.9-41.48-36.11a5,5,0,0,1,10-.62c.08,1,2.07,21.69,33.34,26.9a3.12,3.12,0,0,1,.44.09c.21.05,22,5.41,49-4.83,40.36-15.32,68.59-11.66,83.9,10.86,14.35,21.09,28.52,16.34,29.12,16.13a5,5,0,0,1,6.44,2.86,5,5,0,0,1-2.88,6.48A23.31,23.31,0,0,1,494.83,218.91Z"/><path class="cls-1" d="M438.92,66A75.39,75.39,0,0,1,411,60.58a5,5,0,0,1-2.72-6.18c11.14-32.85,34.95-43.13,53-46a92.31,92.31,0,0,1,36.15,1.75,5,5,0,0,1,3.34,6.5c-8,22.26-20.56,37.22-37.39,44.45A61.43,61.43,0,0,1,438.92,66ZM419.46,53c7.69,2.33,24.17,5.77,40-1.06,12.8-5.54,22.79-16.71,29.75-33.25a83.63,83.63,0,0,0-26.75-.31C442,21.69,427.51,33.33,419.46,53Z"/><path class="cls-1" d="M474,109a5,5,0,0,1-3.54-1.46C450.73,87.8,457.82,56.2,458.13,54.86a5,5,0,0,1,9.74,2.27c-.09.41-5.32,24.26,6.92,40.2a45.74,45.74,0,0,0,11-14.28c10.69-20.78,8.75-48,5.24-67.15a5,5,0,0,1,9.84-1.8c13.51,73.8-23.07,93.54-24.63,94.35A5,5,0,0,1,474,109Z"/><path class="cls-1" d="M88,81a5.81,5.81,0,0,1-.72,0,5,5,0,0,1-4.24-5.66c2.2-15.38,9.49-23.32,9.8-23.65a5,5,0,0,1,7.32,6.81c-.14.16-5.51,6.3-7.22,18.26A5,5,0,0,1,88,81Z"/></g><g id="Outline"><path class="cls-1" d="M183,404a5,5,0,0,1-3.75-1.69c-10.63-12.05-35.34-8.76-44-6.48a5,5,0,0,1-2.56-9.66c1.51-.4,37.18-9.57,54,9.52A5,5,0,0,1,183,404Z"/><path class="cls-1" d="M429,500h-.34a5,5,0,0,1-4.65-5.33c3.76-54.52-31.48-79.29-31.83-79.53a5,5,0,1,1,5.64-8.26c1.65,1.13,40.32,28.31,36.17,88.47A5,5,0,0,1,429,500Z"/><path class="cls-1" d="M454,500h-.29a5,5,0,0,1-4.7-5.28c2.82-49-19.08-68.75-19.3-68.95a5,5,0,0,1,6.58-7.52c1.06.92,25.81,23.23,22.7,77.05A5,5,0,0,1,454,500Z"/><path class="cls-1" d="M473.5,500a5.51,5.51,0,0,1-1.05-.11,5,5,0,0,1-3.84-5.94A73.05,73.05,0,0,0,467,455.38,53.16,53.16,0,0,0,460,441a5,5,0,0,1,7.93-6.1c.75,1,18.32,24.26,10.43,61.11A5,5,0,0,1,473.5,500Z"/><path class="cls-1" d="M72.64,416H70.91a5,5,0,0,1,.18-10c16,.27,27.5-3.74,34.11-11.94,10.29-12.76,6-31.72,5.93-31.91a5,5,0,0,1,9.74-2.3c.23,1,5.44,24-7.88,40.48C104.59,410.74,91,416,72.64,416Z"/><path class="cls-1" d="M98.1,296.87c-11.59,0-20.7-3.08-27.23-9.22C56.09,273.75,60.9,250,61.11,249A5,5,0,0,1,70.89,251h0c0,.19-3.83,19.36,6.86,29.37,8.15,7.63,22.93,8.57,43.92,2.79a5,5,0,0,1,2.66,9.64A100.14,100.14,0,0,1,98.1,296.87Z"/><path class="cls-1" d="M97.47,277.09c-6,0-10.87-1.57-14.47-4.69-6.53-5.67-6.06-13.89-6-14.81a5,5,0,0,1,10,.77c0,.18-.16,4.18,2.62,6.54s8.45,2.87,16,1.16a5,5,0,0,1,2.21,9.76A47.43,47.43,0,0,1,97.47,277.09Z"/><path class="cls-1" d="M42,193a5,5,0,0,1-4.89-4C33.17,170.32,51.64,160.23,62,157.5a5,5,0,0,1,2.56,9.67c-.86.23-20.59,5.72-17.63,19.8A5,5,0,0,1,43,192.89,4.57,4.57,0,0,1,42,193Z"/><path class="cls-1" d="M130,63a5,5,0,0,1-2.67-9.23c21.1-13.32,40.5-12.59,53.07-9.64A65.64,65.64,0,0,1,203,54a5,5,0,0,1-6,8c-1.23-.91-29.86-21.56-64.34.22A5,5,0,0,1,130,63Z"/><path class="cls-1" d="M471.85,165.53a41.16,41.16,0,0,1-20.7-5.31c-11.25-6.41-18-17.2-22.57-25.88a10.51,10.51,0,0,0-6.41-5.49c-6.9-2.1-16.63,1.85-19.8,3.55a4.74,4.74,0,0,1-.51.24,68.46,68.46,0,0,1-23.66,4.23c-17.52-.18-30.24-8.45-36.8-23.92-2.86-6.73-7.08-10.93-12.92-12.84-12.62-4.13-30.21,3.79-35.92,7.19a5,5,0,0,1-5.12-8.6c1-.59,24.67-14.47,44.15-8.09,8.62,2.82,15,9,19,18.44,11.54,27.19,44,15.65,47.33,14.39,2.25-1.16,15.62-7.64,27.12-4.16a20.29,20.29,0,0,1,12.37,10.38c9.54,18,23.74,34.58,56.64,20.73a5,5,0,1,1,3.88,9.22C488.56,163.56,479.84,165.53,471.85,165.53Z"/><path class="cls-1" d="M424.52,262.11a25.13,25.13,0,0,1-11.79-3c-5.06-2.62-8.76-6.45-12.34-10.15-1.32-1.37-2.57-2.65-3.86-3.86A42.37,42.37,0,0,0,380.7,236a66,66,0,0,0-25-2.73,94.33,94.33,0,0,0-28.84,6.41,5,5,0,1,1-3.74-9.28,104.83,104.83,0,0,1,31.93-7.11,76,76,0,0,1,28.76,3.21,52.26,52.26,0,0,1,19.54,11.35c1.48,1.38,2.87,2.82,4.22,4.22,3.16,3.27,6.14,6.35,9.74,8.22,6.88,3.56,12.41,1.51,20.87-2.12,2.64-1.13,5.37-2.3,8.29-3.26a51.24,51.24,0,0,1,16.14-2.22A46.25,46.25,0,0,1,488.94,252a5,5,0,1,1-5.88,8.08c-6.49-4.71-13.61-7.27-20.61-7.39a40.86,40.86,0,0,0-12.86,1.73c-2.5.81-5,1.9-7.46,2.94C436.78,259.62,431,262.11,424.52,262.11Z"/><path class="cls-1" d="M384,173a5,5,0,0,1-3.47-1.4C356.06,148,328.24,169,327.07,170a5,5,0,0,1-6.15-7.89,62.46,62.46,0,0,1,21.37-10c11.72-2.93,29.07-3.16,45.18,12.38A5,5,0,0,1,384,173Z"/><path class="cls-1" d="M439.86,213.88a39.58,39.58,0,0,1-9.2-1.07,37,37,0,0,1-21.94-15.22,5,5,0,0,1,8.56-5.18c.59,1,15.16,23.49,49.13,2.46a5,5,0,0,1,5.26,8.5C460.38,210.37,449.72,213.88,439.86,213.88Z"/><path class="cls-1" d="M261.24,86.17c-24.1,0-37.66-10.7-38.39-11.28a5,5,0,0,1,6.28-7.79c.82.65,19.77,15.21,53.57,6.07,36.84-10,57.61-8.75,71.68,4.14a5,5,0,0,1-6.76,7.38c-8.18-7.51-21.4-12.92-62.32-1.86A92.19,92.19,0,0,1,261.24,86.17Z"/><path class="cls-1" d="M338,355a5,5,0,0,1-5-5c0-12.56-10.86-17.36-11-17.4a5,5,0,0,1,3.94-9.2c.7.3,17,7.52,17,26.6A5,5,0,0,1,338,355Z"/><path class="cls-1" d="M310.37,375.5a5.31,5.31,0,0,1-.87-.08,5,5,0,0,1-4.06-5.79c1.91-10.89-9-23.15-9.14-23.27a5,5,0,0,1,7.4-6.73c.58.65,14.35,16,11.59,31.73A5,5,0,0,1,310.37,375.5Z"/></g></svg>