<?xml version="1.0" ?><svg id="Lines" viewBox="0 0 512 512" xmlns="http://www.w3.org/2000/svg"><defs><style>.cls-1{fill:#3f456b;}</style></defs><title/><path class="cls-1" d="M471,501H332a5,5,0,0,1-5-5V448a5,5,0,0,1,5-5H471a5,5,0,0,1,5,5v48A5,5,0,0,1,471,501ZM337,491H466V453H337Z"/><path class="cls-1" d="M449.51,429.76a5,5,0,0,1-4.44-7.3c23.4-45.24,37.63-76.52,45.66-111.76l.07-48.95.32-108.89a10.5,10.5,0,0,0-3.78-8,15.48,15.48,0,0,0-10.1-3.69,15.27,15.27,0,0,0-10.16,3.54,10.53,10.53,0,0,0-3.93,7.9c0,.1,0,.21,0,.31l-6,86.09a5,5,0,1,1-10-.7l6-85.95a20.4,20.4,0,0,1,7.42-15.24,25.12,25.12,0,0,1,16.76-5.95A25.48,25.48,0,0,1,494,137.4a20.34,20.34,0,0,1,7.16,15.52l-.32,108.85-.07,49.5a5.08,5.08,0,0,1-.12,1.1c-8.25,36.51-22.76,68.47-46.66,114.69A5,5,0,0,1,449.51,429.76Z"/><path class="cls-1" d="M368,429.05a5,5,0,0,1-4.83-3.73C356,398,351.93,359.21,373.48,329.89a71.26,71.26,0,0,1,28.1-23L427,255.94a.47.47,0,0,1,.05-.1l5.94-11.28a20.44,20.44,0,0,1,13.72-10.25A26,26,0,0,1,476.15,250a20.31,20.31,0,0,1-.83,17.07l-6,11.33L436,344.07a5,5,0,1,1-8.91-4.53l33.43-65.76,6-11.42a10.44,10.44,0,0,0,.33-8.8,16,16,0,0,0-17.89-9.5,10.5,10.5,0,0,0-7.14,5.18l-5.91,11.21L409.69,313a5,5,0,0,1-2.86,2.51c-.13,0-14.4,5.17-25.62,20.71-14.93,20.68-17.83,50.59-8.39,86.52a5,5,0,0,1-3.57,6.1A4.62,4.62,0,0,1,368,429.05Z"/><path class="cls-1" d="M459,452a5,5,0,0,1-5-5V430H349v17a5,5,0,0,1-10,0V425a5,5,0,0,1,5-5H459a5,5,0,0,1,5,5v22A5,5,0,0,1,459,452Z"/><path class="cls-1" d="M62.86,429.76a5,5,0,0,1-4.45-2.7C34.51,380.84,20,348.88,11.76,312.37a4.53,4.53,0,0,1-.13-1.1l-.07-49.51L11.25,154a20.26,20.26,0,0,1,7.16-15.49A25.36,25.36,0,0,1,35,132.27a25.16,25.16,0,0,1,16.75,5.94,20.46,20.46,0,0,1,7.43,15.24l6,84.9a5,5,0,1,1-10,.71l-6-85c0-.11,0-.21,0-.31a10.56,10.56,0,0,0-3.94-7.9,15.25,15.25,0,0,0-10-3.54h-.16A15.38,15.38,0,0,0,25,146a10.44,10.44,0,0,0-3.77,7.93l.31,107.85.07,49c8,35.24,22.27,66.52,45.66,111.76a5,5,0,0,1-4.43,7.3Z"/><path class="cls-1" d="M144.39,429.05a4.75,4.75,0,0,1-1.28-.17,5,5,0,0,1-3.56-6.1c9.5-36.2,6.49-66.28-8.73-87-11.28-15.34-25.15-20.22-25.29-20.26a5,5,0,0,1-2.85-2.51L76.49,260.45l-5.92-11.23a10.5,10.5,0,0,0-7.12-5.16,16,16,0,0,0-17.9,9.5,10.47,10.47,0,0,0,.32,8.78l6,11.37,33.46,65.83a5,5,0,0,1-8.91,4.53L43,278.31,37,267a20.26,20.26,0,0,1-.82-17A26,26,0,0,1,65.7,234.31a20.38,20.38,0,0,1,13.71,10.23l6,11.3.06.1,25.36,50.94a71.19,71.19,0,0,1,28.1,23c11.9,16.18,23.35,45.88,10.34,95.43A5,5,0,0,1,144.39,429.05Z"/><path class="cls-1" d="M168,452a5,5,0,0,1-5-5V430H58v17a5,5,0,0,1-10,0V425a5,5,0,0,1,5-5H168a5,5,0,0,1,5,5v22A5,5,0,0,1,168,452Z"/><path class="cls-1" d="M182,501H43a5,5,0,0,1-5-5V448a5,5,0,0,1,5-5H182a5,5,0,0,1,5,5v48A5,5,0,0,1,182,501ZM48,491H177V453H48Z"/><path class="cls-1" d="M72,477H65a5,5,0,0,1,0-10h7a5,5,0,0,1,0,10Z"/><path class="cls-1" d="M451,477h-7a5,5,0,0,1,0-10h7a5,5,0,0,1,0,10Z"/><path class="cls-1" d="M255.86,341c-91,0-165.12-74.07-165.12-165.12S164.82,10.76,255.86,10.76,421,84.83,421,175.88,346.91,341,255.86,341Zm0-320.24c-85.53,0-155.12,69.59-155.12,155.12S170.33,331,255.86,331,411,261.41,411,175.88,341.4,20.76,255.86,20.76Z"/><path class="cls-1" d="M317.5,286a21.38,21.38,0,0,1-11.6-3.25c-7.86-4.95-11.8-14.88-12.14-22-.21-4.32-6-8.16-7.51-8.95a3.77,3.77,0,0,1-.48-.28,17.42,17.42,0,0,1-8-14.55c-1.53-9.13,2.43-14.32,5.33-18.13s4.15-5.43,1.59-10.85c-.77-1.63-3.14-6.59-13.79-6.34a45,45,0,0,0-11.93,2.09c-14.9,5.15-33.07,3.38-46.29-4.52-10-5.94-16.35-14.92-18-25.29-4-24.78,12.76-37.82,25-40.55,4.21-.94,7-4.17,9.17-10.82a26.75,26.75,0,0,1,6.64-10.9,3.94,3.94,0,0,1,.45-.36c13.9-9.89,30.44-9.15,47.83,2.12a15.32,15.32,0,0,0,17.21.19c1.57-1.19,4.89-4.54,5.05-7.24.05-.7-.08-1.67-1.48-3-2.72-2.64-6-4.06-9.23-5.42-5.4-2.31-12.8-5.46-12.6-15.59,0-1.7-3.08-2.57-4-2.8-5.9-1.39-14.75.55-16.89,5-3.49,7.33-7.13,12.09-11.46,15-5.74,3.81-12.56,4.23-20.26,1.24-8.44-3.26-14.12-8.81-16-15.6A16.62,16.62,0,0,1,217,70.32c3.5-4.49,9.33-4.78,15.5-5.09,7.83-.38,16.71-.82,23.5-9.12,3.64-4.45,4.87-9.64,6.16-15.14,2.9-12.25,6.18-26.15,38-23.56a5,5,0,0,1-.8,10c-11.05-.89-18.25.22-22,3.41-3.13,2.66-4.16,7-5.45,12.49-1.44,6.06-3.06,12.94-8.16,19.17C254.15,74.17,241.43,74.8,233,75.22c-2.78.14-7.44.37-8.12,1.25a6.55,6.55,0,0,0-1.19,6c1,3.62,4.63,6.87,10,8.94,8.58,3.32,13.57.39,19.08-11.18,4.54-9.51,18.18-12.85,28.21-10.48,7.47,1.76,11.85,6.52,11.74,12.73-.06,3,.67,3.69,6.52,6.19,3.67,1.56,8.23,3.51,12.28,7.45A13.6,13.6,0,0,1,316,107c-.52,8-8.17,13.94-9,14.59a25.2,25.2,0,0,1-28.64.19c-13.72-8.89-25.92-9.76-36.28-2.58a18.05,18.05,0,0,0-3.71,6.49c-2.13,6.38-6.15,15.12-16.49,17.42-.22,0-21.25,5-17.33,29.19,1.54,9.49,8.07,15.19,13.28,18.31,10.8,6.45,25.67,7.88,37.91,3.65a54.62,54.62,0,0,1,14.69-2.63c14.37-.44,20.62,6.32,23.33,12.06,5.16,10.92.63,16.86-2.68,21.19-2.51,3.29-4.33,5.67-3.34,10.81a3.85,3.85,0,0,1,.07,1.39,7.2,7.2,0,0,0,3.38,6c2.17,1.18,12.14,7.13,12.62,17.21.17,3.71,2.36,10.8,7.48,14,3.77,2.38,8.78,2.29,14.87-.28,20.32-8.56,35.7-37.31,35.1-65.54-.34-2.79-2.23-21.94,7.92-35.54,2.2-2.95,4.82-6,7.36-8.87,11.06-12.69,14.93-18.83,10.25-24-3.42-3.77-9.29-7.4-15-10.91-9.14-5.66-17-10.54-18.06-17.58a10.81,10.81,0,0,1,3-8.93c7.56-8.49,16.64-1.36,23.94,4.38s15.62,12.28,25.37,11a5,5,0,1,1,1.35,9.91c-13.95,1.89-24.9-6.72-32.9-13-3.18-2.5-6.18-4.86-8.38-5.76-1.28-.53-1.39-.41-1.9.17a2.19,2.19,0,0,0-.56.84c.1,2.27,9.1,7.84,13.43,10.51,6.27,3.88,12.75,7.89,17.11,12.71,11.41,12.57-1,26.85-10.11,37.27-2.53,2.9-4.91,5.63-6.89,8.28-8.3,11.13-6,28.32-6,28.49a5.48,5.48,0,0,1,.05.57c.81,32.67-16.91,65-41.21,75.26A32.12,32.12,0,0,1,317.5,286Z"/><path class="cls-1" d="M186.59,325.28a5,5,0,0,1-2.43-9.37c4.41-2.45,4.57-4.85,4.63-5.63.34-5.14-6.07-13.44-16.36-21.15-11.55-8.67-5.06-17.72-1.19-23.14,3.17-4.43,6.17-8.62,5.41-14.08-1.42-10.18-10.57-11.65-25.36-13.2-1.94-.2-3.87-.41-5.76-.64-20.34-2.55-24.29-17.66-27.06-35.68-.6-3.9-2.2-6.72-4.9-8.62-6.28-4.44-16.46-2.65-16.56-2.63a5,5,0,1,1-1.87-9.82c.58-.11,14.38-2.65,24.2,4.28,5,3.5,8,8.64,9,15.27,3.11,20.23,6.9,25.84,18.42,27.28,1.83.22,3.69.42,5.56.62,14.1,1.48,31.65,3.32,34.22,21.76,1.32,9.42-3.59,16.28-7.18,21.28-4.31,6-4.67,6.52-.94,9.32,7.95,6,21.15,17.75,20.33,29.83-.26,3.92-2.17,9.48-9.74,13.69A5,5,0,0,1,186.59,325.28Z"/><path class="cls-1" d="M145.93,113.89c-12.4,0-24.68-4.36-32.81-14.85A5,5,0,1,1,121,92.92c8.09,10.44,27.13,16,46.5,5.59a19.71,19.71,0,0,0,6.75-5.26c2.55-3.4,2.09-8.11,1.56-13.57-.47-4.87-1-9.9.6-14.92,2.53-8.15,10.41-12.66,18-17,12.59-7.2,18.37-11.2,12.25-23.43a5,5,0,1,1,8.94-4.48c10.64,21.24-5.53,30.47-16.22,36.59C193.22,60,187.35,63.33,186,67.72c-1,3.1-.59,6.93-.19,11,.63,6.57,1.35,14-3.52,20.53a29.22,29.22,0,0,1-10,8.08A56.77,56.77,0,0,1,145.93,113.89Z"/><path class="cls-1" d="M374.9,288a5,5,0,0,1-4.44-2.69,33.6,33.6,0,0,1,4.13-35.35c13.78-17.61,28.07-11.66,28.67-11.4l-4,9.17.1,0c-.33-.13-8.08-2.92-16.9,8.35a23.74,23.74,0,0,0-3.14,24.56,5,5,0,0,1-2.11,6.75A4.93,4.93,0,0,1,374.9,288Z"/></svg>