<?xml version="1.0" ?><svg id="Lines" style="enable-background:new 0 0 512 512;" version="1.1" viewBox="0 0 512 512" xml:space="preserve" xmlns="http://www.w3.org/2000/svg" xmlns:xlink="http://www.w3.org/1999/xlink"><style type="text/css">
	.st0{fill:#3F456B;}
</style><title/><path class="st0" d="M299.2,438.9H48.4c-20.4,0-36.9-16.5-36.9-36.9V47.4C11.5,27,28,10.5,48.4,10.5h250.8  c20.3,0,36.8,16.5,36.8,36.9V402C336,422.4,319.5,438.9,299.2,438.9z M48.4,20.5c-14.8,0-26.9,12-26.9,26.9V402  c0,14.8,12,26.9,26.9,26.9h250.8c14.8,0,26.8-12.1,26.8-26.9V47.4c0-14.8-12-26.8-26.8-26.9H48.4z"/><path class="st0" d="M450.2,80.3c-2.8,0-5-2.2-5-5V62.2c0-14.8-12-26.9-26.9-26.9h-91.8c-2.8,0-5-2.2-5-5s2.2-5,5-5h91.8  c20.4,0,36.9,16.5,36.9,36.9v13.1C455.2,78.1,452.9,80.3,450.2,80.3z"/><path class="st0" d="M184.4,484.3H92.7c-20.4,0-36.9-16.5-36.9-36.9v-13.1c0-2.8,2.2-5,5-5s5,2.2,5,5v13.1c0,14.8,12,26.9,26.9,26.9  h91.8c2.8,0,5,2.2,5,5S187.2,484.3,184.4,484.3z"/><path class="st0" d="M78.6,97c-2.1,0-3.9-1.3-4.6-3.2L61.4,61.2L48.3,93.9c-1.1,2.5-4,3.7-6.6,2.6c-2.5-1-3.7-3.9-2.7-6.4l17.8-44.5  c1-2.6,3.9-3.8,6.5-2.8c1.3,0.5,2.3,1.5,2.8,2.8l17.2,44.5c1,2.6-0.3,5.5-2.9,6.5c0,0,0,0,0,0C79.9,96.9,79.3,97,78.6,97z"/><path class="st0" d="M74.6,87.9h-27c-2.8,0-5-2.2-5-5s2.2-5,5-5h27c2.8,0,5,2.2,5,5S77.4,87.9,74.6,87.9z"/><path class="st0" d="M278.1,405.5L278.1,405.5c-2,0-3.9-1.3-4.6-3.2l-17.2-43.9c-1-2.6,0.3-5.5,2.8-6.5c2.6-1,5.5,0.3,6.5,2.8l0,0  l12.6,32.2l13.1-32.2c1-2.6,3.9-3.9,6.5-2.9c2.6,1,3.9,3.9,2.9,6.5c0,0.1,0,0.1-0.1,0.2l-17.8,43.9  C281.9,404.3,280.1,405.5,278.1,405.5z"/><path class="st0" d="M291.9,370.6h-27c-2.8,0-5-2.2-5-5s2.2-5,5-5h27c2.8,0,5,2.2,5,5S294.7,370.6,291.9,370.6z"/><path class="st0" d="M198.3,315.5h-56.9c-2.8,0-5-2.2-5-5c0-1.1,0.3-2.1,1-2.9l1.4-2c1-1.4,1.9-2.6,2.8-3.8c1.6-2.1,3.2-4.2,4.8-6.3  l2.2-2.9c4.4-5.8,6.2-10.1,6.1-16c-10.4,5.3-22.2,7.3-33.8,6c-13.3-1.5-23.8-9.3-30.3-22.6c-7.2-14.9-7.1-30.2,0.4-45.5  c6.4-13.1,15.7-24.3,23-32.6c14.1-15.9,30.9-31.7,52.9-49.5c1.9-1.5,4.6-1.5,6.5,0.1c3,2.7,6,5.3,9,7.9c6.6,5.8,13.5,11.8,20.1,17.9  c15.3,14.3,31,30.2,42.7,49.6c10,16.6,11.8,33,5.4,48.8c-6.1,15.1-17.1,24.1-31.7,25.9c-11.6,1.5-23.3-0.6-33.7-5.8  c0,5.2,0.6,9.7,4,13.7c3.1,3.7,6,7.5,9,11.6c1.4,1.8,2.8,3.7,4.2,5.6c1.7,2.2,1.2,5.3-1,7C200.4,315.2,199.4,315.6,198.3,315.5  L198.3,315.5z M151.3,305.5h37.1c-2.3-3.1-4.5-6-6.9-8.8c-6.8-8-6.5-16.7-6.3-25.1c0-1.2,0.1-2.3,0.1-3.5c0-2.8,2.3-5,5.1-4.9  c0.9,0,1.7,0.2,2.5,0.7l3.9,2.3c9.3,5.5,20.2,7.7,30.9,6.4c11.1-1.4,18.9-7.8,23.6-19.7c5.2-12.9,3.6-25.9-4.8-39.9  c-11-18.3-26.2-33.6-40.9-47.4c-6.4-6-13.2-11.9-19.8-17.7l-5.9-5.2c-19.9,16.4-35.4,31-48.4,45.7c-6.9,7.8-15.6,18.3-21.5,30.3  c-6.2,12.6-6.3,24.6-0.4,36.8c5.1,10.4,12.4,16,22.4,17.1c10.7,1.3,21.6-0.9,30.9-6.5c0.7-0.4,1.5-0.9,2.3-1.3l1.1-0.6  c2.4-1.4,5.5-0.5,6.8,1.9c0.3,0.5,0.5,1,0.6,1.6c2.4,13,0.6,20.8-7.1,31l-2.2,2.9L151.3,305.5z"/><path class="st0" d="M48.5,156.1c-0.9,0-1.7,0-2.6-0.1c-5.3-0.6-9.4-3.6-12-8.8c-2.7-5.3-2.6-11.6,0.1-16.9c2-3.9,4.5-7.5,7.5-10.7  c5.1-5.6,10.6-10.8,16.5-15.5c1.9-1.5,4.6-1.5,6.5,0.1l2.7,2.4c2,1.8,4.2,3.6,6.2,5.6c4.8,4.5,9.8,9.6,13.6,15.8  c3.6,6.1,4.3,12.1,1.9,18s-6.7,9.3-12.5,10c-1.9,0.2-3.8,0.2-5.7-0.2l0,0c-2.1-0.4-4.2-1.1-6.2-1.9c-1.3-0.5-2.5-0.9-3.8-1.3  c-0.3-0.1-0.4-0.1-2,0.7c-0.6,0.3-1.2,0.6-1.8,0.9C54.3,155.5,51.4,156.1,48.5,156.1z M61.1,114.4c-4.3,3.6-8.4,7.5-12.1,11.7  c-2.4,2.5-4.4,5.4-6,8.5c-1.4,2.5-1.4,5.6-0.1,8.1c1.3,2.6,2.9,3.1,4.1,3.3c2,0.3,3.9,0,5.8-0.8c0.4-0.2,0.8-0.4,1.2-0.7  c2-1.1,5-2.8,9.3-1.7c1.6,0.4,3.2,1,4.8,1.6c1.5,0.6,3,1.1,4.5,1.4l0,0c0.9,0.2,1.8,0.2,2.7,0.1c1.5-0.2,3.2-0.8,4.4-3.9  c1.2-2.9,0.8-5.7-1.2-9.1c-3.1-5.2-7.6-9.7-11.9-13.7C64.9,117.7,63,116.1,61.1,114.4z"/><path class="st0" d="M61.1,169.8c-2.8,0-5-2.2-5-5v-17.3c0-2.8,2.2-5,5-5s5,2.2,5,5v17.3C66.1,167.6,63.9,169.8,61.1,169.8z"/><path class="st0" d="M70.8,169.8H51.5c-2.8,0-5-2.2-5-5s2.2-5,5-5h19.4c2.8,0,5,2.2,5,5S73.6,169.8,70.8,169.8z"/><path class="st0" d="M278.3,342.6c-1.2,0-2.4-0.4-3.3-1.2c-0.9-0.8-1.8-1.6-2.7-2.4c-2-1.8-4.2-3.6-6.2-5.5  c-4.8-4.5-9.8-9.6-13.6-15.9c-3.6-6-4.3-12.1-1.9-18s6.7-9.3,12.5-10c1.9-0.2,3.8-0.2,5.7,0.2l0,0c2.1,0.4,4.2,1.1,6.2,1.9  c1.2,0.5,2.5,0.9,3.8,1.3c0.4,0.1,0.4,0.1,2-0.7c0.6-0.3,1.2-0.6,1.8-0.9c3.5-1.6,7.4-2.1,11.2-1.7c5.3,0.6,9.4,3.6,12,8.8  c2.7,5.3,2.6,11.6-0.1,16.9c-2,3.9-4.6,7.5-7.6,10.7c-5.1,5.6-10.6,10.8-16.5,15.5C280.6,342.2,279.5,342.6,278.3,342.6z   M265.3,299.5c-0.3,0-0.7,0-1,0.1c-1.5,0.2-3.2,0.8-4.4,3.9c-1.2,2.9-0.8,5.7,1.2,9.1c3.1,5.2,7.5,9.7,11.9,13.7  c1.8,1.7,3.6,3.2,5.5,4.9c4.3-3.6,8.3-7.5,12.1-11.7c2.4-2.5,4.4-5.4,6-8.5c1.4-2.5,1.4-5.6,0.1-8.1c-1.3-2.6-2.9-3.1-4.1-3.3  c-2-0.3-3.9,0-5.8,0.8c-0.4,0.2-0.8,0.4-1.2,0.6c-2,1.1-5,2.8-9.3,1.7c-1.6-0.4-3.2-1-4.8-1.6c-1.5-0.6-3-1.1-4.5-1.4  C266.4,299.5,265.8,299.5,265.3,299.5L265.3,299.5z"/><path class="st0" d="M278.4,302.9c-2.8,0-5-2.2-5-5v-17.3c0-2.8,2.2-5,5-5s5,2.2,5,5v17.3C283.4,300.7,281.2,302.9,278.4,302.9z"/><path class="st0" d="M288.1,285.6h-19.4c-2.8,0-5-2.2-5-5s2.2-5,5-5h19.4c2.8,0,5,2.2,5,5S290.9,285.6,288.1,285.6z"/><path class="st0" d="M462.9,498.8H212.1c-20.4,0-36.9-16.5-36.9-36.9v-27.8c0-2.8,2.2-5,5-5s5,2.2,5,5v27.8  c0,14.8,12,26.9,26.9,26.9h250.8c14.8,0,26.9-12,26.9-26.9V107.2c0-14.8-12-26.9-26.9-26.9H331.8c-2.8,0-5-2.2-5-5s2.2-5,5-5h131.1  c20.4,0,36.9,16.5,36.9,36.9v354.6C499.7,482.3,483.2,498.8,462.9,498.8z"/><path class="st0" d="M441.8,465.4L441.8,465.4c-2,0-3.9-1.3-4.6-3.2L420,418.4c-1-2.6,0.3-5.5,2.9-6.5c2.6-1,5.4,0.3,6.5,2.8  l12.6,32.2l13.1-32.2c1-2.6,3.9-3.9,6.5-2.9c2.6,1,3.9,3.9,2.9,6.5c0,0.1,0,0.1-0.1,0.2l-17.8,43.9  C445.7,464.2,443.8,465.4,441.8,465.4z"/><path class="st0" d="M455.6,430.5h-27c-2.8,0-5-2.2-5-5s2.2-5,5-5h27c2.8,0,5,2.2,5,5S458.4,430.5,455.6,430.5z"/><path class="st0" d="M336.4,380.9c-2.1,0-4.1-0.7-5.7-1.9l-1.8-1.2c-2.2-1.7-2.7-4.8-1-7c1.6-2.1,4.4-2.6,6.6-1.3l1.8,1.2l0.2,0.1  c0.3-0.1,0.5-0.3,0.8-0.5c24.7-16.6,42-31,56.3-46.7c16.6-18.3,25.3-33.9,28.2-50.5c3.5-19.8-4.2-36.7-21.1-46.2  c-15.7-8.9-39-8.9-51.2,8.6c-1.9,2.7-4,5.2-6.1,7.6c-1,1.1-1.9,2.2-2.9,3.4c-0.9,1.2-2.4,1.8-3.9,1.8c-1.5,0-2.9-0.7-3.9-1.8  c-1.2-1.4-2.3-2.9-3.4-4.2l-1.2-1.5c-1.8-2.1-1.6-5.2,0.5-7.1s5.2-1.6,7.1,0.5c0.1,0.1,0.2,0.2,0.2,0.3l0.9,1.1  c1.7-1.9,3.2-3.8,4.6-5.8c13.7-19.6,41.4-24.5,64.3-11.5c20.8,11.8,30.3,32.4,26,56.7c-4.2,23.8-18.5,42.2-30.6,55.5  c-14.8,16.3-32.7,31.2-58.1,48.3C341,380.1,338.7,380.8,336.4,380.9z"/><path class="st0" d="M428.7,401.2c-3.6,0-7.1-1-10.2-2.7c-7.8-4.4-11.5-12.5-9.9-21.5c1.5-8.4,6.4-14.7,10.5-19.3  c4.9-5.4,10.8-10.3,19-15.9c2.3-1.7,5.4-1.7,7.7-0.1c7,4.7,15.9,11.3,22.6,20.1c4.4,5.8,6.8,11.2,7.3,16.8  c1.4,10.9-6.3,20.8-17.1,22.3c-6.7,1.1-12.4-0.8-16.6-5.5C438.7,399.1,433.8,401.2,428.7,401.2z M442.1,351.2  c-5.7,3.8-10.9,8.2-15.5,13.1c-4.8,5.3-7.3,9.7-8.1,14.3c-0.6,3.4-0.2,8.1,5,11.1c3.7,2.1,9,2.2,11.8-1.7c0.7-1,1.4-1.9,2.1-2.7  c0.3-0.3,0.6-0.7,0.9-1c1.7-2.1,4.9-2.5,7-0.7c0.3,0.2,0.5,0.4,0.7,0.7l1.1,1.4c0.8,0.9,1.5,1.8,2.2,2.7c2,2.3,4.4,3.1,7.8,2.5  c4.9-0.8,9.5-4.6,8.8-11.4c-0.4-3.7-2.1-7.4-5.4-11.7C455.3,360.9,448.4,355.6,442.1,351.2L442.1,351.2z"/></svg>