<?xml version="1.0" ?><svg viewBox="0 0 512 512" xmlns="http://www.w3.org/2000/svg"><defs><style>.cls-1{fill:#3f456b;}</style></defs><title/><g id="Lines"><path class="cls-1" d="M370,275H246.24a5,5,0,0,1,0-10H370a5,5,0,0,1,0,10Z"/><path class="cls-1" d="M170,275H50a5,5,0,0,1,0-10H170a5,5,0,0,1,0,10Z"/><path class="cls-1" d="M388,287a5,5,0,0,1-2.78-.84l-22.6-15.11a5,5,0,1,1,5.56-8.31l18.47,12.34L402,252.36l-64.71-43.2-70.54-46.87-.31-.22c-6-4.65-12.6-8.93-19-13.06-2.82-1.82-5.73-3.69-8.56-5.58l-29-19.39L20.77,253.43,33.6,274.1l19.11-12A5,5,0,0,1,58,270.62L34.65,285.24a5,5,0,0,1-6.9-1.6l-18-29a5,5,0,0,1,1.43-6.77L207,113.87a5,5,0,0,1,5.6,0l31.85,21.27c2.76,1.84,5.64,3.7,8.42,5.49,6.56,4.22,13.35,8.59,19.62,13.46l70.4,46.78,68.9,46a5,5,0,0,1,1.36,7l-21,31A5,5,0,0,1,388,287Z"/><path class="cls-1" d="M61,312.81A23.91,23.91,0,1,1,84.9,288.9,23.93,23.93,0,0,1,61,312.81ZM61,275a13.91,13.91,0,1,0,13.9,13.9A13.92,13.92,0,0,0,61,275Z"/><path class="cls-1" d="M61,351.41A23.91,23.91,0,1,1,84.9,327.5,23.93,23.93,0,0,1,61,351.41Zm0-37.81a13.91,13.91,0,1,0,13.9,13.9A13.91,13.91,0,0,0,61,313.6Z"/><path class="cls-1" d="M61,390a23.91,23.91,0,1,1,23.9-23.9A23.93,23.93,0,0,1,61,390Zm0-37.81A13.91,13.91,0,1,0,74.9,366.1,13.92,13.92,0,0,0,61,352.19Z"/><path class="cls-1" d="M61,428.6a23.91,23.91,0,1,1,23.9-23.9A23.93,23.93,0,0,1,61,428.6Zm0-37.81A13.91,13.91,0,1,0,74.9,404.7,13.92,13.92,0,0,0,61,390.79Z"/><path class="cls-1" d="M64.5,466.76a5,5,0,0,1-3.25-1.2,5,5,0,0,1-4,1.14A23.91,23.91,0,0,1,61,419.19,23.51,23.51,0,0,1,79.51,428a23.17,23.17,0,0,1,4.36,19.72c-2.31,10.08-8.8,16.79-18.28,18.9A5.12,5.12,0,0,1,64.5,466.76ZM61,429.19a13.91,13.91,0,0,0-2.21,27.64A5,5,0,0,1,61.25,458a5.07,5.07,0,0,1,2.16-1.08c5.67-1.26,9.28-5.09,10.72-11.37a13.06,13.06,0,0,0-2.44-11.26A13.59,13.59,0,0,0,61,429.19Z"/><path class="cls-1" d="M359,312.81a23.91,23.91,0,1,1,23.9-23.91A23.93,23.93,0,0,1,359,312.81ZM359,275a13.91,13.91,0,1,0,13.9,13.9A13.92,13.92,0,0,0,359,275Z"/><path class="cls-1" d="M359,351.41a23.91,23.91,0,1,1,23.9-23.91A23.93,23.93,0,0,1,359,351.41Zm0-37.81a13.91,13.91,0,1,0,13.9,13.9A13.91,13.91,0,0,0,359,313.6Z"/><path class="cls-1" d="M359,390a23.91,23.91,0,1,1,23.9-23.9A23.93,23.93,0,0,1,359,390Zm0-37.81a13.91,13.91,0,1,0,13.9,13.91A13.92,13.92,0,0,0,359,352.19Z"/><path class="cls-1" d="M359,428.6a23.91,23.91,0,1,1,23.9-23.9A23.93,23.93,0,0,1,359,428.6Zm0-37.81a13.91,13.91,0,1,0,13.9,13.91A13.92,13.92,0,0,0,359,390.79Z"/><path class="cls-1" d="M50,275a5,5,0,0,1-2.8-9.14l160-108a5,5,0,0,1,5.6,0l76.72,51.78a5,5,0,1,1-5.59,8.29L210,168,52.8,274.14A5,5,0,0,1,50,275Z"/><path class="cls-1" d="M370,275a5,5,0,0,1-2.8-.86L321.51,243.3a5,5,0,0,1,5.6-8.28l45.69,30.84A5,5,0,0,1,370,275Z"/><path class="cls-1" d="M308,500H41a5,5,0,0,1-5-5V462a5,5,0,0,1,5-5H178a5,5,0,0,1,0,10H46v23H308a5,5,0,0,1,0,10Z"/><path class="cls-1" d="M339.12,467H212.75a5,5,0,0,1,0-10H339.12a5,5,0,0,1,0,10Z"/><path class="cls-1" d="M306,465a5,5,0,0,1-5-5V339H216V460a5,5,0,0,1-10,0V334a5,5,0,0,1,5-5h95a5,5,0,0,1,5,5V460A5,5,0,0,1,306,465Z"/><path class="cls-1" d="M344,307H77a5,5,0,0,1,0-10H344a5,5,0,0,1,0,10Z"/><path class="cls-1" d="M211,339H79a5,5,0,0,1,0-10H211a5,5,0,0,1,0,10Z"/><path class="cls-1" d="M114,372H80a5,5,0,0,1,0-10h34a5,5,0,0,1,0,10Z"/><path class="cls-1" d="M211,403H80a5,5,0,0,1,0-10H211a5,5,0,0,1,0,10Z"/><path class="cls-1" d="M179,436H77a5,5,0,0,1,0-10H179a5,5,0,0,1,0,10Z"/><path class="cls-1" d="M341,339H307a5,5,0,0,1,0-10h34a5,5,0,0,1,0,10Z"/><path class="cls-1" d="M337,372H307a5,5,0,0,1,0-10h30a5,5,0,0,1,0,10Z"/><path class="cls-1" d="M340,403H307a5,5,0,0,1,0-10h33a5,5,0,0,1,0,10Z"/><path class="cls-1" d="M350,436H307a5,5,0,0,1,0-10h43a5,5,0,0,1,0,10Z"/><path class="cls-1" d="M211,372H180a5,5,0,0,1,0-10h31a5,5,0,0,1,0,10Z"/><path class="cls-1" d="M188,210H147a5,5,0,0,1,0-10h41a5,5,0,0,1,0,10Z"/><path class="cls-1" d="M273,210H232a5,5,0,0,1,0-10h41a5,5,0,0,1,0,10Z"/><path class="cls-1" d="M167,242H100a5,5,0,0,1,0-10h67a5,5,0,0,1,0,10Z"/><path class="cls-1" d="M290,242H245a5,5,0,0,1,0-10h45a5,5,0,0,1,0,10Z"/><path class="cls-1" d="M114,403a5,5,0,0,1-5-5V334a5,5,0,0,1,10,0v64A5,5,0,0,1,114,403Z"/><path class="cls-1" d="M179,403a5,5,0,0,1-5-5V334a5,5,0,0,1,10,0v64A5,5,0,0,1,179,403Z"/><path class="cls-1" d="M211,500H180a5,5,0,0,1-5-5V414a5,5,0,0,1,5-5h31a5,5,0,0,1,5,5v81A5,5,0,0,1,211,500Zm-26-10h21V419H185Z"/><path class="cls-1" d="M365,127H307c-8,0-14-6.45-14-15V100c0-8.55,6-15,14-15h58c8,0,14,6.45,14,15v12C379,120.55,373,127,365,127ZM307,95c-2.95,0-4,2.69-4,5v12c0,2.31,1.05,5,4,5h58c2.95,0,4-2.69,4-5V100c0-2.31-1.05-5-4-5Z"/><path class="cls-1" d="M309,188.5a5,5,0,0,1-5-5V122a5,5,0,0,1,10,0v61.5A5,5,0,0,1,309,188.5Z"/><path class="cls-1" d="M363,224a5,5,0,0,1-5-5V122a5,5,0,0,1,10,0v97A5,5,0,0,1,363,224Z"/><path class="cls-1" d="M496.5,500H308a5,5,0,0,1-4.91-4.08c-.12-.6-2.67-14.91,6.45-26.2,5.75-7.11,14.61-11.28,26.38-12.42.63-12.71,7.61-32.11,31.69-39.1,12.64-3.67,24-2.51,33.85,3.47,14.36,8.72,21.45,25.52,24.44,35,8.21-4.21,24-9.2,44.56-1.31,30.69,11.76,31,38.54,31,39.67A5,5,0,0,1,496.5,500ZM312.68,490H490.77c-1.63-6.81-6.89-18.82-23.89-25.33-24.55-9.41-40.2,3.09-40.86,3.62a5,5,0,0,1-8.09-2.87c-.05-.25-5.24-25.25-21.69-35.23-7.32-4.44-16-5.24-25.85-2.39-26.69,7.75-24.52,32.65-24.41,33.7a5,5,0,0,1-4.85,5.5c-11.2.29-19.21,3.32-23.81,9C313.58,480.63,312.75,486.26,312.68,490Z"/><path class="cls-1" d="M210,275a23,23,0,1,1,23-23A23,23,0,0,1,210,275Zm0-36a13,13,0,1,0,13,13A13,13,0,0,0,210,239Z"/><path class="cls-1" d="M210,210a5,5,0,0,1-5-5v-1a5,5,0,0,1,10,0v1A5,5,0,0,1,210,210Zm0-21a5,5,0,0,1-5-5v-1a5,5,0,0,1,10,0v1A5,5,0,0,1,210,189Zm0-21a5,5,0,0,1-5-5v-1a5,5,0,0,1,10,0v1A5,5,0,0,1,210,168Z"/><path class="cls-1" d="M233,404a5,5,0,0,1-5-5v-1a5,5,0,0,1,10,0v1A5,5,0,0,1,233,404Z"/><path class="cls-1" d="M144.67,467a5,5,0,0,1-5-5V431a5,5,0,0,1,10,0v31A5,5,0,0,1,144.67,467Z"/><path class="cls-1" d="M112.79,467a5,5,0,0,1-5-5V431a5,5,0,0,1,10,0v31A5,5,0,0,1,112.79,467Z"/><path class="cls-1" d="M209.81,123a5,5,0,0,1-3.82-8.23c12.75-15.09,50.06-60.65,52.14-63.2,1-1.35,5.47-6.54,14.55-6.54,7.56,0,12.43,5.5,13.17,6.39s16.49,19.32,29,34.06a5,5,0,0,1-7.64,6.46c-12.71-15-28.8-33.88-29-34.06a.86.86,0,0,1-.07-.1h0S275.75,55,272.68,55c-4.22,0-6.17,2.08-6.48,2.46a2.63,2.63,0,0,1-.24.31c-.39.47-39.23,47.92-52.33,63.43A5,5,0,0,1,209.81,123Z"/><path class="cls-1" d="M25.21,353.66c-11.27,0-19.36-7.07-20.17-17.61-.15-1.43-.5-8.2,5.07-15.05,2.78-3.42,9.14-11.08,14-16.91a5,5,0,0,1,7.69,6.4c-6.93,8.33-11.74,14.14-13.92,16.82A11.48,11.48,0,0,0,15,335a.82.82,0,0,1,0,.22c.38,5.36,4.1,8.43,10.2,8.43a5,5,0,0,1,0,10Z"/><path class="cls-1" d="M401.06,288.92a28.61,28.61,0,0,1-15-4.08,5,5,0,1,1,5.29-8.48,18.54,18.54,0,0,0,9.67,2.56c7.65,0,14.11-4.17,14.11-9.1a5,5,0,0,1,10,0C425.17,280.53,414.58,288.92,401.06,288.92Z"/><path class="cls-1" d="M421.59,357.94a30.89,30.89,0,0,1-13.73-3.11,5,5,0,1,1,4.46-8.95,20.89,20.89,0,0,0,9.27,2.06c8.45,0,15.58-4.66,15.58-10.18a5,5,0,0,1,10,0C447.17,348.89,435.7,357.94,421.59,357.94Z"/><path class="cls-1" d="M439.28,288.92c-13.52,0-24.11-8.39-24.11-19.1a5,5,0,0,1,10,0c0,4.93,6.46,9.1,14.11,9.1,7.17,0,12.58-4,12.58-9.37,0-.09,0-.17,0-.26a16.24,16.24,0,0,0-3.86-9.77c-6.36-7.81-40.95-48.35-41.29-48.75a.39.39,0,0,1-.08-.1h0s-2.19-2.51-5-2.51c-3.85,0-5.64,1.86-6,2.23a1.74,1.74,0,0,1-.24.31l-17,20.56a5,5,0,0,1-7.71-6.36l16.85-20.45c1-1.34,5.31-6.29,14-6.29,7.28,0,12,5.28,12.69,6.15,1.77,2.07,35,41,41.42,48.91a25.86,25.86,0,0,1,6.09,16.43C461.8,280.64,452.11,288.92,439.28,288.92Z"/><path class="cls-1" d="M463.06,357.94c-14.1,0-25.57-9.05-25.57-20.18a5,5,0,0,1,10,0c0,5.52,7.13,10.18,15.57,10.18,7.93,0,11.77-3.23,12.84-10.8,0-.1,0-.2.05-.3a13.9,13.9,0,0,0-3.19-10.41c-6.86-8.44-32.38-39-32.64-39.3a5,5,0,1,1,7.67-6.42c.26.31,25.83,30.92,32.73,39.41a24,24,0,0,1,5.27,18.48C484,351.08,475.94,357.94,463.06,357.94Z"/><path class="cls-1" d="M401.06,427.15c-14.1,0-25.58-9.06-25.58-20.19a5,5,0,0,1,10,0c0,5.53,7.14,10.19,15.58,10.19s15.59-4.66,15.59-10.19a5,5,0,1,1,10,0C426.65,418.09,415.17,427.15,401.06,427.15Z"/><path class="cls-1" d="M442.54,427.15c-14.1,0-25.58-9.06-25.58-20.19a5,5,0,0,1,10,0c0,5.53,7.14,10.19,15.58,10.19s15.59-4.66,15.59-10.19a5,5,0,1,1,10,0C468.13,418.09,456.65,427.15,442.54,427.15Z"/><path class="cls-1" d="M482.75,427.15c-13.82,0-24.64-8.87-24.64-20.19a5,5,0,1,1,10,0c0,5.72,6.43,10.19,14.64,10.19,7.06,0,14.62-2.68,14.62-10.19a3,3,0,0,1,0-.42,17.09,17.09,0,0,0-4-10.91c-6.86-8.44-32.38-39-32.64-39.3a5,5,0,1,1,7.67-6.41c.26.31,25.83,30.91,32.73,39.4a27.41,27.41,0,0,1,6.22,17.78C507.29,419.1,497.42,427.15,482.75,427.15Z"/><path class="cls-1" d="M434.46,463.06a5,5,0,0,1-5-5V421.21a5,5,0,0,1,10,0v36.85A5,5,0,0,1,434.46,463.06Z"/><path class="cls-1" d="M160.5,157.34H52.75A43.56,43.56,0,0,1,42.15,71.9Q42,70.43,42,69A34,34,0,0,1,96.77,42.1,59.16,59.16,0,0,1,207.35,79.71a39.63,39.63,0,0,1,10.37,5.08c1.89,1,9.05,5,11.46,11.45a5,5,0,1,1-9.36,3.52c-1-2.6-5.11-5.32-6.85-6.16a5.06,5.06,0,0,1-.68-.4,29.44,29.44,0,0,0-11.72-4.89,5,5,0,0,1-3.95-6.17,49.16,49.16,0,0,0-93.56-29.76,5,5,0,0,1-8.54,1.4A24,24,0,0,0,52.7,74.58a5,5,0,0,1-4.05,6.11A33.55,33.55,0,0,0,53,147.33H160.5a5,5,0,0,1,0,10Z"/><path class="cls-1" d="M399,368.5H378.9a5,5,0,0,1,0-10H399a5,5,0,0,0,5-5V347a5,5,0,0,0-5-5H376.5a5,5,0,0,1,0-10H399a15,15,0,0,1,15,15v6.5A15,15,0,0,1,399,368.5Z"/><path class="cls-1" d="M380,327.5h-2.1a5,5,0,0,1,0-10H380a5,5,0,0,0,5-5V306a5,5,0,0,0-5-5h-2.53a5,5,0,0,1,0-10H380a15,15,0,0,1,15,15v6.5A15,15,0,0,1,380,327.5Z"/><path class="cls-1" d="M384,409.5h-6.25a5,5,0,0,1,0-10H384a5,5,0,0,0,5-5V388a5,5,0,0,0-5-5h-9.33a5,5,0,0,1,0-10H384a15,15,0,0,1,15,15v6.5A15,15,0,0,1,384,409.5Z"/><path class="cls-1" d="M39,368.5a15,15,0,0,1-15-15V347a15,15,0,0,1,15-15h4.33a5,5,0,0,1,0,10H39a5,5,0,0,0-5,5v6.5a5,5,0,0,0,5,5,5,5,0,0,1,0,10Z"/><path class="cls-1" d="M41.74,327.5H39a15,15,0,0,1-15-15V306a15,15,0,0,1,15-15h3.75a5,5,0,0,1,0,10H39a5,5,0,0,0-5,5v6.5a5,5,0,0,0,5,5h2.74a5,5,0,1,1,0,10Z"/><path class="cls-1" d="M42,409.5H29a15,15,0,0,1-15-15V388a15,15,0,0,1,15-15H45a5,5,0,0,1,0,10H29a5,5,0,0,0-5,5v6.5a5,5,0,0,0,5,5H42a5,5,0,0,1,0,10Z"/><path class="cls-1" d="M39,450.5a15,15,0,0,1-15-15V429a15,15,0,0,1,15-15h9a5,5,0,0,1,0,10H39a5,5,0,0,0-5,5v6.5a5,5,0,0,0,5,5,5,5,0,0,1,0,10Z"/><path class="cls-1" d="M41,500H13.75a5,5,0,0,1-5-5c0-27.27,20.74-36.76,31.7-38A5,5,0,0,1,41.57,467c-.89.1-19.82,2.63-22.5,23H41a5,5,0,0,1,0,10Z"/><path class="cls-1" d="M303.44,149.27c-15.95,0-24.67-6.44-29.23-12-9.68,10.09-25.63,9.18-33.93,6.79a5,5,0,0,1,2.76-9.62c.89.25,20.49,5.59,26.91-8.53a5,5,0,0,1,9.33.62c.19.54,5.17,14.71,29.26,12.47a5,5,0,0,1,.92,10Q306.3,149.26,303.44,149.27Z"/></g><g id="Outline"><path class="cls-1" d="M456,94.48a5,5,0,0,1-4.91-4c-1.67-8.5-6.44-13.6-14.59-15.59a35.25,35.25,0,0,0-13.07-.46,5,5,0,0,1-1.88-9.82c9.25-1.79,25.91-.77,34.59,12.06,5.35-7.66,15.25-14.9,31.86-14.9a5,5,0,0,1,0,10c-10,0-17.58,3.07-22.48,9.12a22.82,22.82,0,0,0-4.59,9.43,5,5,0,0,1-4.86,4.18Z"/><path class="cls-1" d="M351.23,74a5,5,0,0,1-2.64-9.25,10.82,10.82,0,0,0,3.86-6.86c.53-4-1.25-8.19-5.3-12.59-4.94-5.38-7.29-11.17-7-17.22.49-9.2,7-15.18,7.74-15.83a5,5,0,0,1,6.63,7.48c-.13.12-4.16,3.88-4.39,9-.14,3.24,1.32,6.55,4.35,9.85,7.68,8.34,8.5,15.87,7.84,20.71a20.55,20.55,0,0,1-8.49,14A5,5,0,0,1,351.23,74Z"/><path class="cls-1" d="M322,74a5,5,0,0,1-2.65-9.25,10.77,10.77,0,0,0,3.86-6.86c.54-4-1.24-8.19-5.29-12.59-4.95-5.38-7.29-11.17-7-17.22.49-9.2,7-15.18,7.74-15.83a5,5,0,0,1,6.63,7.48c-.13.12-4.16,3.88-4.39,9-.15,3.24,1.32,6.55,4.35,9.85,7.68,8.34,8.5,15.87,7.84,20.71a20.61,20.61,0,0,1-8.49,14A5,5,0,0,1,322,74Z"/><path class="cls-1" d="M180,373H114a5,5,0,0,1,0-10h66a5,5,0,0,1,0,10Z"/><path class="cls-1" d="M147,403a5,5,0,0,1-5-5V336a5,5,0,0,1,10,0v62A5,5,0,0,1,147,403Z"/></g></svg>