<?xml version="1.0" ?><svg enable-background="new 0 0 512 512" version="1.1" viewBox="0 0 512 512" xml:space="preserve" xmlns="http://www.w3.org/2000/svg" xmlns:xlink="http://www.w3.org/1999/xlink"><g id="Colors"><g><path d="M406.954,201.334c-2.456,0-4.599-1.811-4.946-4.312c-0.381-2.735,1.527-5.261,4.263-5.642    c25.792-3.591,53.285-10.176,53.56-10.242c2.691-0.649,5.385,1.007,6.031,3.691c0.646,2.685-1.007,5.385-3.691,6.031    c-0.279,0.067-28.249,6.767-54.521,10.424C407.416,201.317,407.184,201.334,406.954,201.334z" fill="#3F456B"/></g><g><path d="M407.954,222.334c-2.456,0-4.599-1.811-4.946-4.312c-0.381-2.735,1.527-5.261,4.263-5.642    c25.782-3.59,55.64-10.688,55.938-10.759c2.693-0.64,5.384,1.017,6.024,3.702c0.642,2.686-1.017,5.383-3.702,6.024    c-0.303,0.072-30.614,7.279-56.882,10.937C408.416,222.317,408.183,222.334,407.954,222.334z" fill="#3F456B"/></g><g><path d="M454.992,291.11c-2.517,0-4.683-1.895-4.964-4.454l-4.785-43.547c-0.302-2.745,1.679-5.214,4.424-5.516    c2.751-0.305,5.214,1.68,5.516,4.424l4.785,43.547c0.302,2.745-1.679,5.214-4.424,5.516    C455.358,291.101,455.174,291.11,454.992,291.11z" fill="#3F456B"/></g><g><path d="M434.94,282.296c-1.538,0-3.056-0.707-4.036-2.043c-1.633-2.227-1.151-5.355,1.075-6.989l35.338-25.919    c2.226-1.632,5.355-1.152,6.989,1.075c1.633,2.227,1.151,5.355-1.075,6.989l-35.338,25.919    C437.003,281.981,435.967,282.296,434.94,282.296z" fill="#3F456B"/></g><g><path d="M472.664,278.151c-0.672,0-1.354-0.136-2.008-0.423l-40.123-17.628c-2.528-1.111-3.678-4.062-2.567-6.589    c1.111-2.528,4.062-3.676,6.589-2.567l40.123,17.628c2.528,1.111,3.678,4.062,2.567,6.589    C476.422,277.035,474.588,278.151,472.664,278.151z" fill="#3F456B"/></g><g><path d="M460.717,314.525c1.788-3.096,0.728-7.054-2.369-8.842c-3.095-1.787-7.054-0.727-8.841,2.369    c-1.787,3.095-0.727,7.054,2.369,8.842C454.973,318.682,458.93,317.62,460.717,314.525z" fill="#3F456B"/></g><g><path d="M462.717,339.525c1.788-3.096,0.728-7.054-2.369-8.842c-3.095-1.787-7.054-0.727-8.841,2.369    c-1.787,3.095-0.727,7.054,2.369,8.842C456.973,343.682,460.93,342.62,462.717,339.525z" fill="#3F456B"/></g><g><path d="M462.717,364.525c1.788-3.096,0.728-7.054-2.369-8.842c-3.095-1.787-7.054-0.727-8.841,2.369    c-1.787,3.095-0.727,7.054,2.369,8.842C456.973,368.682,460.93,367.62,462.717,364.525z" fill="#3F456B"/></g><g><path d="M146,462c-2.762,0-5-2.238-5-5v-28c0-2.762,2.238-5,5-5s5,2.238,5,5v28C151,459.762,148.762,462,146,462z" fill="#3F456B"/></g><g><path d="M228.5,462c-2.762,0-5-2.238-5-5v-28c0-2.762,2.238-5,5-5s5,2.238,5,5v28    C233.5,459.762,231.262,462,228.5,462z" fill="#3F456B"/></g><g><path d="M256,462c-2.762,0-5-2.238-5-5v-28c0-2.762,2.238-5,5-5s5,2.238,5,5v28C261,459.762,258.762,462,256,462z" fill="#3F456B"/></g><g><path d="M283.5,462c-2.762,0-5-2.238-5-5v-28c0-2.762,2.238-5,5-5s5,2.238,5,5v28    C288.5,459.762,286.262,462,283.5,462z" fill="#3F456B"/></g><g><path d="M311,462c-2.762,0-5-2.238-5-5v-28c0-2.762,2.238-5,5-5s5,2.238,5,5v28C316,459.762,313.762,462,311,462z" fill="#3F456B"/></g><g><path d="M338.5,462c-2.762,0-5-2.238-5-5v-28c0-2.762,2.238-5,5-5s5,2.238,5,5v28    C343.5,459.762,341.262,462,338.5,462z" fill="#3F456B"/></g><g><path d="M366,462c-2.762,0-5-2.238-5-5v-28c0-2.762,2.238-5,5-5s5,2.238,5,5v28C371,459.762,368.762,462,366,462z" fill="#3F456B"/></g><g><path d="M173.5,462c-2.762,0-5-2.238-5-5v-28c0-2.762,2.238-5,5-5s5,2.238,5,5v28    C178.5,459.762,176.262,462,173.5,462z" fill="#3F456B"/></g><g><path d="M201,462c-2.762,0-5-2.238-5-5v-28c0-2.762,2.238-5,5-5s5,2.238,5,5v28C206,459.762,203.762,462,201,462z" fill="#3F456B"/></g><g><path d="M435.721,466.896c-2.562,0-4.745-1.959-4.975-4.561l-2.462-27.892c-0.243-2.751,1.79-5.178,4.541-5.42    c2.733-0.264,5.177,1.789,5.42,4.541l2.462,27.892c0.243,2.751-1.79,5.178-4.541,5.42    C436.017,466.89,435.868,466.896,435.721,466.896z" fill="#3F456B"/></g><g><path d="M457.229,464.996c-2.562,0-4.745-1.959-4.975-4.561l-2.462-27.892c-0.243-2.751,1.79-5.178,4.541-5.42    c2.742-0.249,5.177,1.789,5.42,4.541l2.462,27.892c0.243,2.751-1.79,5.178-4.541,5.42    C457.525,464.99,457.377,464.996,457.229,464.996z" fill="#3F456B"/></g><g><path d="M76.779,466.896c-0.147,0-0.296-0.006-0.445-0.02c-2.751-0.242-4.784-2.669-4.541-5.42l2.462-27.892    c0.243-2.751,2.672-4.789,5.42-4.541c2.751,0.242,4.784,2.669,4.541,5.42l-2.462,27.892    C81.524,464.937,79.342,466.896,76.779,466.896z" fill="#3F456B"/></g><g><path d="M55.271,464.996c-0.147,0-0.296-0.006-0.445-0.02c-2.751-0.242-4.784-2.669-4.541-5.42l2.462-27.892    c0.242-2.751,2.68-4.792,5.42-4.541c2.751,0.242,4.784,2.669,4.541,5.42l-2.462,27.892    C60.016,463.037,57.833,464.996,55.271,464.996z" fill="#3F456B"/></g><g><path d="M257,152c-2.762,0-5-2.238-5-5v-39c0-2.762,2.238-5,5-5s5,2.238,5,5v39C262,149.762,259.762,152,257,152z" fill="#3F456B"/></g><g><path d="M286.996,146.001c-2.255,0-4.301-1.535-4.855-3.823l-8-33c-0.65-2.684,0.998-5.387,3.682-6.037    c2.684-0.651,5.387,0.998,6.037,3.682l8,33c0.65,2.684-0.998,5.387-3.682,6.037C287.782,145.955,287.386,146.001,286.996,146.001z    " fill="#3F456B"/></g><g><path d="M316.505,135.501c-1.613,0-3.196-0.779-4.16-2.221l-21.498-32.134c-1.536-2.295-0.92-5.4,1.375-6.936    c2.295-1.536,5.4-0.92,6.936,1.375l21.498,32.134c1.536,2.295,0.92,5.4-1.375,6.936    C318.427,135.227,317.46,135.501,316.505,135.501z" fill="#3F456B"/></g><g><path d="M339.995,113c-0.986,0-1.983-0.291-2.854-0.898l-31.555-22c-2.266-1.579-2.821-4.696-1.242-6.961    s4.694-2.822,6.961-1.242l31.555,22c2.266,1.579,2.821,4.696,1.242,6.961C343.13,112.254,341.575,113,339.995,113z" fill="#3F456B"/></g><g><path d="M353.997,88.001c-0.668,0-1.346-0.134-1.997-0.419l-35.53-15.51c-2.531-1.104-3.688-4.052-2.582-6.582    c1.104-2.531,4.05-3.69,6.582-2.582L356,78.418c2.531,1.104,3.688,4.052,2.582,6.582C357.762,86.88,355.925,88.001,353.997,88.001    z" fill="#3F456B"/></g><g><path d="M227.004,146.001c-0.39,0-0.786-0.046-1.182-0.142c-2.684-0.65-4.332-3.354-3.682-6.037l8-33    c0.65-2.684,3.353-4.333,6.037-3.682c2.684,0.65,4.332,3.354,3.682,6.037l-8,33C231.305,144.466,229.258,146.001,227.004,146.001z    " fill="#3F456B"/></g><g><path d="M197.495,135.501c-0.955,0-1.922-0.273-2.775-0.846c-2.295-1.535-2.911-4.641-1.375-6.936l21.498-32.134    c1.535-2.295,4.642-2.91,6.936-1.375c2.295,1.535,2.911,4.641,1.375,6.936l-21.498,32.134    C200.691,134.722,199.108,135.501,197.495,135.501z" fill="#3F456B"/></g><g><path d="M174.005,113c-1.58,0-3.135-0.746-4.106-2.141c-1.579-2.265-1.023-5.382,1.242-6.961l31.555-22    c2.267-1.581,5.383-1.023,6.961,1.242c1.579,2.265,1.023,5.382-1.242,6.961l-31.555,22C175.988,112.709,174.991,113,174.005,113z" fill="#3F456B"/></g><g><path d="M160.003,88.001c-1.928,0-3.765-1.121-4.585-3.001c-1.105-2.53,0.051-5.478,2.582-6.582l35.53-15.51    c2.53-1.105,5.478,0.052,6.582,2.582c1.105,2.53-0.051,5.478-2.582,6.582L162,87.582C161.35,87.866,160.67,88.001,160.003,88.001z    " fill="#3F456B"/></g><g><path d="M106.673,201.334c-0.229,0-0.461-0.017-0.695-0.049c-26.269-3.657-56.579-10.864-56.882-10.937    c-2.686-0.642-4.344-3.339-3.702-6.024c0.641-2.687,3.338-4.34,6.024-3.702c0.299,0.071,30.155,7.169,55.938,10.759    c2.735,0.381,4.644,2.906,4.263,5.642C111.271,199.523,109.129,201.334,106.673,201.334z" fill="#3F456B"/></g><g><path d="M105.673,222.334c-0.229,0-0.461-0.017-0.695-0.049c-26.269-3.657-56.579-10.864-56.882-10.937    c-2.686-0.642-4.344-3.339-3.702-6.024c0.641-2.687,3.338-4.341,6.024-3.702c0.299,0.071,30.155,7.169,55.938,10.759    c2.735,0.381,4.644,2.906,4.263,5.642C110.271,220.523,108.129,222.334,105.673,222.334z" fill="#3F456B"/></g></g><g id="Lines"><g><path d="M357.021,331.241c-2.762,0-5-2.238-5-5v-43.809c0-2.762,2.238-5,5-5s5,2.238,5,5v43.809    C362.021,329.003,359.783,331.241,357.021,331.241z" fill="#3F456B"/></g><g><path d="M375.995,320.29c-0.848,0-1.707-0.216-2.494-0.67l-37.957-21.904c-2.392-1.381-3.212-4.438-1.832-6.83    c1.381-2.392,4.438-3.213,6.83-1.832l37.957,21.904c2.392,1.381,3.212,4.438,1.832,6.83    C379.404,319.393,377.724,320.29,375.995,320.29z" fill="#3F456B"/></g><g><path d="M338.048,320.29c-1.729,0-3.409-0.897-4.336-2.502c-1.38-2.392-0.56-5.449,1.832-6.83l37.957-21.904    c2.392-1.381,5.448-0.56,6.83,1.832c1.38,2.392,0.56,5.449-1.832,6.83l-37.957,21.904    C339.755,320.074,338.896,320.29,338.048,320.29z" fill="#3F456B"/></g><g><path d="M146.021,389.241c-2.762,0-5-2.238-5-5v-43.809c0-2.762,2.238-5,5-5s5,2.238,5,5v43.809    C151.021,387.003,148.783,389.241,146.021,389.241z" fill="#3F456B"/></g><g><path d="M164.995,378.29c-0.848,0-1.707-0.216-2.494-0.67l-37.957-21.904c-2.392-1.381-3.212-4.438-1.832-6.83    c1.381-2.392,4.438-3.213,6.83-1.832l37.957,21.904c2.392,1.381,3.212,4.438,1.832,6.83    C168.404,377.393,166.724,378.29,164.995,378.29z" fill="#3F456B"/></g><g><path d="M127.048,378.29c-1.729,0-3.409-0.897-4.336-2.502c-1.38-2.392-0.56-5.449,1.832-6.83l37.957-21.904    c2.392-1.381,5.448-0.56,6.83,1.832c1.38,2.392,0.56,5.449-1.832,6.83l-37.957,21.904    C128.755,378.074,127.896,378.29,127.048,378.29z" fill="#3F456B"/></g><g><path d="M58.635,291.11c-0.183,0-0.366-0.01-0.552-0.03c-2.745-0.302-4.726-2.771-4.424-5.516l4.785-43.547    c0.302-2.745,2.771-4.729,5.516-4.424c2.745,0.302,4.726,2.771,4.424,5.516l-4.785,43.547    C63.317,289.216,61.151,291.11,58.635,291.11z" fill="#3F456B"/></g><g><path d="M78.687,282.296c-1.026,0-2.062-0.314-2.953-0.968l-35.338-25.919c-2.227-1.634-2.708-4.763-1.075-6.989    c1.635-2.228,4.764-2.708,6.989-1.075l35.338,25.919c2.227,1.634,2.708,4.763,1.075,6.989    C81.742,281.589,80.225,282.296,78.687,282.296z" fill="#3F456B"/></g><g><path d="M40.963,278.151c-1.924,0-3.757-1.116-4.581-2.99c-1.11-2.527,0.039-5.478,2.567-6.589l40.123-17.628    c2.529-1.111,5.478,0.04,6.589,2.567c1.11,2.527-0.039,5.478-2.567,6.589l-40.123,17.628    C42.316,278.016,41.634,278.151,40.963,278.151z" fill="#3F456B"/></g><g><path d="M377.709,431H135.055c-9.444,0-17.297-3.175-23.338-9.437c-13.022-13.499-12.638-36.735-12.58-38.701    c0-17.019-0.038-32.229-0.071-46.039c-0.185-74.729-0.27-108.836,6.287-166.43c1.933-20.396-1.36-35.798-9.534-44.447    c-7.782-8.235-17.457-7.979-17.858-7.951c-2.727,0.094-5.079-2.024-5.203-4.771c-0.124-2.745,1.972-5.074,4.716-5.218    c0.577-0.026,14.413-0.615,25.435,10.883c10.49,10.943,14.658,28.621,12.391,52.541c-6.5,57.111-6.417,91.037-6.233,165.368    c0.034,13.839,0.072,29.083,0.072,46.143c0,0.06-0.001,0.119-0.003,0.18c-0.007,0.199-0.564,20.807,9.802,31.522    c4.139,4.277,9.411,6.356,16.119,6.356h242.654c6.72,0,11.999-2.087,16.141-6.38c10.399-10.779,9.788-31.293,9.78-31.499    c-0.002-0.061-0.003-0.12-0.003-0.18c0-17.06,0.038-32.304,0.072-46.143c0.184-74.331,0.267-108.257-6.224-165.274    c-2.277-24.014,1.891-41.691,12.381-52.635c11.022-11.5,24.855-10.91,25.435-10.883c2.758,0.145,4.877,2.496,4.732,5.254    s-2.506,4.874-5.254,4.732c-0.371-0.01-10.042-0.281-17.824,7.953c-8.174,8.649-11.467,24.051-9.524,44.541    c6.547,57.5,6.462,91.606,6.277,166.336c-0.033,13.811-0.071,29.021-0.071,46.039c0.058,1.966,0.442,25.202-12.58,38.701    C395.006,427.825,387.153,431,377.709,431z" fill="#3F456B"/></g><g><path d="M83.72,468.038c-0.584,0-1.027-0.031-1.276-0.056c-2.068-0.141-29.717-2.037-36.271-3.04    c-8.126-1.243-10.322-9.056-9.843-14.208c0.043-7.315,1.832-20.817,1.909-21.396c0.365-2.736,2.882-4.66,5.616-4.295    c2.737,0.364,4.661,2.879,4.296,5.616c-0.019,0.137-1.822,13.755-1.822,20.34c0,0.193-0.012,0.387-0.034,0.579    c-0.007,0.085-0.286,3.222,1.392,3.479c6.254,0.957,35.229,2.934,35.52,2.954c0.085,0.006,0.168,0.014,0.252,0.023    c3.438,0.314,3.693-1.892,3.778-2.614c0.907-7.787,1.768-20.625,1.775-20.753c0.185-2.756,2.575-4.823,5.321-4.657    c2.756,0.184,4.841,2.566,4.657,5.321c-0.036,0.536-0.886,13.216-1.821,21.247c-0.422,3.608-2.002,6.586-4.57,8.613    C89.479,467.652,85.751,468.038,83.72,468.038z" fill="#3F456B"/></g><g><path d="M95.136,440.155c-0.985,0-1.892-0.073-2.685-0.195c-2.434-0.249-34.712-3.558-46.147-4.999    c-8.438-1.063-14.508-6.103-17.09-14.189c-1.593-4.987-1.393-9.614-1.29-10.953c-3.249-242.38,43.821-297.909,45.827-300.154    c0.124-0.14,0.257-0.272,0.396-0.396c57.288-51.214,114.479-66.482,116.885-67.107c1.48-0.384,3.056-0.07,4.277,0.855    c1.22,0.924,1.948,2.356,1.979,3.887c0.053,2.282,1.94,56.098,57.746,56.098h2.695c17.806,0,31.838-5.059,41.707-15.035    c16.116-16.292,16.041-40.657,16.038-40.901c-0.017-1.557,0.693-3.038,1.92-3.997s2.826-1.296,4.337-0.906    c2.406,0.625,59.597,15.894,116.885,67.107c0.14,0.124,0.272,0.257,0.396,0.396c2.006,2.245,49.076,57.774,45.827,300.154    c0.103,1.339,0.303,5.966-1.29,10.953c-2.582,8.087-8.651,13.126-17.09,14.189c-11.435,1.441-42.805,4.751-45.14,4.997    c-5.655,0.881-17.162-0.802-21.338-13.383c-1.619-4.876-2.749-8.405-3.358-10.489c-0.596-2.037-1.159-3.961,0.32-6.011    l4.055,2.926l3.894,3.136c1.445-1.794,1.074-3.741,1.026-3.958c0.036,0.162,0.436,1.853,3.554,11.246    c2.604,7.845,10.049,6.695,10.364,6.644c0.101-0.017,0.201-0.03,0.302-0.041c0.333-0.035,33.352-3.511,45.071-4.988    c10.582-1.333,9.777-13.198,9.651-14.547c-0.017-0.178-0.026-0.382-0.023-0.56c0.926-68.373-1.865-164.945-20.425-236.729    c-10.438-40.369-21.354-54.989-22.736-56.727C386.751,76.41,340.968,58.88,325.069,53.634    c-1.062,9.585-4.872,27.511-18.448,41.287C294.799,106.917,278.35,113,257.729,113h-2.695c-34.295,0-50.95-18.043-58.883-33.179    c-5.256-10.029-7.397-19.994-8.268-26.25c-15.719,5.168-61.692,22.676-106.804,62.912c-1.301,1.63-12.256,16.212-22.729,56.72    c-10.244,39.621-22.103,112.854-20.425,236.729c0.003,0.194-0.006,0.39-0.025,0.583c-0.124,1.325-0.929,13.19,9.653,14.523    c11.712,1.477,45.714,4.952,46.056,4.987c0.107,0.011,0.214,0.024,0.319,0.043c1.26,0.182,7.923,0.763,10.358-6.633    c2.468-7.495,2.715-9.66,2.725-9.755C106.989,413.906,107,414,107,414h10c0,2.316-1.748,8.11-3.215,12.563    C110.219,437.396,101.198,440.155,95.136,440.155z" fill="#3F456B"/></g><g><path d="M427.044,468.038c-2.031,0-5.76-0.386-8.878-2.846c-2.568-2.027-4.148-5.005-4.569-8.613    c-0.941-8.065-1.563-19.821-1.59-20.317c-0.145-2.758,1.974-5.11,4.731-5.255c2.764-0.149,5.11,1.974,5.255,4.731    c0.006,0.118,0.632,11.937,1.535,19.683c0.163,1.393,0.649,1.776,0.832,1.921c0.936,0.738,2.713,0.721,2.946,0.693    c0.091-0.011,0.182-0.02,0.273-0.025c10.785-0.687,32.503-2.188,37.498-2.952c1.689-0.259,1.395-3.446,1.392-3.479    c-0.022-0.192-0.034-0.386-0.034-0.579c0-6.592-1.805-20.202-1.823-20.339c-0.365-2.737,1.558-5.252,4.295-5.617    c2.749-0.367,5.253,1.559,5.617,4.295c0.077,0.578,1.867,14.08,1.91,21.396c0.479,5.152-1.717,12.965-9.843,14.208    c-6.562,1.004-36.057,2.899-38.285,3.042C428.056,468.008,427.617,468.038,427.044,468.038z" fill="#3F456B"/></g><g><path d="M256.025,61c-41.562,0-64.388-8.979-65.34-9.36c-2.562-1.029-3.805-3.941-2.775-6.504    c1.028-2.559,3.933-3.803,6.495-2.778l0,0c0.218,0.086,22.19,8.643,61.62,8.643c39.683,0,62.386-8.578,62.61-8.665    c2.571-0.995,5.47,0.288,6.464,2.866c0.994,2.576-0.289,5.471-2.866,6.464C321.245,52.046,297.551,61,256.025,61z" fill="#3F456B"/></g><g><path d="M256.959,152c-50.886,0-77.859-23.891-91.527-43.933c-14.757-21.641-17.415-43.082-17.521-43.984    c-0.322-2.742,1.641-5.227,4.383-5.549c2.747-0.326,5.224,1.639,5.548,4.378c0.04,0.319,2.608,20.282,16.08,39.854    C191.841,128.8,219.779,142,256.959,142c37.343,0,65.319-13.31,83.153-39.56c13.336-19.631,15.724-39.314,15.746-39.511    c0.315-2.743,2.797-4.694,5.538-4.397c2.743,0.315,4.712,2.795,4.397,5.538c-0.104,0.902-2.706,22.346-17.41,43.989    C334.766,128.105,307.85,152,256.959,152z" fill="#3F456B"/></g><g><path d="M388.578,468H123.939c-2.399,0-4.461-1.705-4.911-4.062c-4.302-22.529-2.013-40.71-1.913-41.473    c0.357-2.737,2.868-4.665,5.604-4.312c2.738,0.357,4.669,2.866,4.312,5.604c-0.042,0.334-1.876,15.349,1.111,34.242h256.689    c1.491-5.877,3.892-18.943,0.724-33.717c-0.579-2.7,1.141-5.358,3.84-5.938c2.698-0.584,5.358,1.14,5.938,3.84    c4.913,22.907-1.769,41.73-2.055,42.521C392.561,466.684,390.682,468,388.578,468z" fill="#3F456B"/></g><g><g><g><path d="M212.409,274.025c-1.788-3.096-0.728-7.054,2.369-8.842c3.095-1.787,7.054-0.727,8.841,2.369      c1.787,3.095,0.727,7.054-2.369,8.842C218.154,278.182,214.197,277.12,212.409,274.025z" fill="#3F456B"/></g></g><g><g><path d="M292.409,274.025c-1.788-3.096-0.728-7.054,2.369-8.842c3.095-1.787,7.054-0.727,8.841,2.369      c1.787,3.095,0.727,7.054-2.369,8.842C298.154,278.182,294.197,277.12,292.409,274.025z" fill="#3F456B"/></g></g><g><path d="M235.879,337.178c-0.611,0-1.232-0.112-1.835-0.351c-21.26-8.392-30.459-26.646-32.087-30.221     c-9.144-20.07-10.813-35.512-10.951-43.294c-7.931-0.451-22.632-2.675-31.124-12.575c-5.881-6.855-7.714-15.9-5.445-26.881     c0.479-2.322,2.524-3.988,4.896-3.988h41.607c4.567-6.138,18.844-19.785,55.481-19.785c36.757,0,51.342,13.721,55.991,19.785     h44.309c2.591,0,4.752,1.979,4.98,4.559c0.975,11.008-1.824,20.001-8.318,26.729c-9.186,9.518-23.363,11.7-31.045,12.152     c-0.192,7.73-1.827,23.117-10.303,42.502c-0.92,2.104-9.596,20.821-30.63,30.125c-2.523,1.116-5.478-0.023-6.595-2.55     c-1.117-2.525,0.024-5.478,2.55-6.595c17.878-7.908,25.209-24.293,25.513-24.987c11.032-25.23,9.413-42.737,9.396-42.911     c-0.147-1.453,0.348-2.897,1.354-3.954c1.007-1.058,2.426-1.624,3.884-1.544c0.184,0.005,19.062,0.817,28.705-9.208     c3.562-3.704,5.431-8.416,5.657-14.318h-42.12c-1.905,0-3.646-1.083-4.486-2.793c-0.056-0.102-9.505-16.992-48.842-16.992     c-39.234,0-48.176,16.792-48.262,16.962c-0.818,1.768-2.554,2.823-4.501,2.823h-40.04c-0.563,5.972,0.709,10.693,3.853,14.358     c7.158,8.346,22.962,9.446,28.438,9.168c1.509-0.079,2.915,0.508,3.922,1.594c1.006,1.086,1.479,2.562,1.293,4.03     c-0.018,0.15-1.896,17.479,9.932,43.441c0.827,1.815,8.599,17.937,26.659,25.066c2.568,1.014,3.829,3.918,2.814,6.486     C239.755,335.979,237.871,337.178,235.879,337.178z" fill="#3F456B"/></g><g><path d="M160.925,179.588c-8.882,0-16.174-2.39-21.777-7.156c-12.2-10.376-11.156-27.886-11.105-28.626     c0.188-2.755,2.567-4.829,5.328-4.648c2.75,0.188,4.828,2.563,4.649,5.312c-0.011,0.182-0.696,13.334,7.652,20.385     c5.919,4.999,15.279,6.05,27.823,3.123c2.689-0.626,5.378,1.044,6.005,3.733c0.628,2.688-1.044,5.378-3.733,6.005     C170.414,178.964,165.462,179.588,160.925,179.588z" fill="#3F456B"/></g><g><path d="M223.276,210.998c-20.237,0-35.053-5.751-44.138-17.162c-17.672-22.199-6.266-56.961-5.771-58.431     c0.882-2.617,3.718-4.024,6.334-3.145c2.617,0.881,4.024,3.717,3.145,6.334c-0.102,0.304-10.157,31.125,4.138,49.039     c8.577,10.749,24.56,15.052,47.515,12.781c2.762-0.271,5.195,1.736,5.467,4.484s-1.736,5.195-4.484,5.467     C231.217,210.788,227.146,210.998,223.276,210.998z" fill="#3F456B"/></g><g><path d="M234.99,210.392c-0.501,0-1.011-0.075-1.514-0.235c-24.028-7.627-23.477-33.404-19.828-45.97     c0.771-2.65,3.54-4.174,6.196-3.407c2.648,0.77,4.173,3.537,3.41,6.186l0,0c-0.314,1.103-7.475,27.083,13.247,33.66     c2.632,0.835,4.089,3.646,3.253,6.278C239.079,209.032,237.111,210.392,234.99,210.392z" fill="#3F456B"/></g><g><path d="M354.075,179.588c-4.537,0-9.488-0.624-14.842-1.873c-2.689-0.627-4.361-3.316-3.733-6.005     c0.627-2.689,3.317-4.359,6.005-3.733c12.545,2.927,21.903,1.874,27.823-3.123c8.364-7.064,7.66-20.253,7.652-20.386     c-0.168-2.749,1.919-5.125,4.667-5.303c2.742-0.188,5.123,1.893,5.311,4.641c0.051,0.74,1.095,18.25-11.105,28.626     C370.25,177.197,362.956,179.587,354.075,179.588z" fill="#3F456B"/></g><g><path d="M291.724,210.998c-3.871,0-7.938-0.21-12.204-0.632c-2.748-0.271-4.756-2.719-4.484-5.467     c0.271-2.748,2.706-4.762,5.467-4.484c22.972,2.265,38.963-2.04,47.535-12.808c14.32-17.987,4.221-48.705,4.117-49.013     c-0.88-2.617,0.527-5.453,3.145-6.334s5.453,0.526,6.334,3.145c0.494,1.47,11.9,36.231-5.771,58.431     C326.776,205.246,311.959,210.998,291.724,210.998z" fill="#3F456B"/></g><g><path d="M280.01,210.392c-2.121,0-4.089-1.359-4.765-3.488c-0.836-2.632,0.621-5.443,3.253-6.278     c20.839-6.614,13.569-32.549,13.25-33.649c-0.77-2.652,0.756-5.426,3.407-6.196c2.656-0.768,5.427,0.756,6.196,3.407     c3.648,12.565,4.2,38.343-19.828,45.97C281.021,210.316,280.511,210.392,280.01,210.392z" fill="#3F456B"/></g><g><g><path d="M256.973,351c-13.815,0-25.056-10.767-25.056-24s11.24-24,25.056-24s25.055,10.767,25.055,24      S270.788,351,256.973,351z M256.973,313c-8.302,0-15.056,6.28-15.056,14s6.754,14,15.056,14c8.301,0,15.055-6.28,15.055-14      S265.273,313,256.973,313z" fill="#3F456B"/></g></g><g><path d="M282.242,376.613c-2.351,0-4.445-1.665-4.904-4.06c-0.521-2.712,1.257-5.332,3.969-5.852     c12.586-2.414,20.932-6.188,24.878-8.283c-4.081-23.259-13.171-36.396-13.267-36.532c-1.586-2.254-1.052-5.372,1.199-6.964     c2.25-1.591,5.359-1.066,6.958,1.18c0.464,0.652,11.409,16.298,15.538,44.165c0.278,1.877-0.531,3.751-2.089,4.836     c-0.438,0.305-10.956,7.511-31.335,11.419C282.872,376.584,282.555,376.613,282.242,376.613z" fill="#3F456B"/></g><g><path d="M231.234,376.868c-0.297,0-0.598-0.026-0.9-0.082c-21.16-3.847-31.818-11.412-32.262-11.732     c-1.514-1.094-2.292-2.939-2.019-4.786c4.129-27.867,15.074-43.513,15.538-44.165c1.602-2.25,4.725-2.777,6.973-1.178     c2.247,1.599,2.775,4.713,1.185,6.962l0,0c-0.096,0.137-9.198,13.29-13.275,36.579c3.952,2.152,12.502,6.092,25.649,8.482     c2.717,0.493,4.519,3.097,4.024,5.813C235.709,375.176,233.604,376.868,231.234,376.868z" fill="#3F456B"/></g><g><g><path d="M257,416c-17.645,0-32-14.355-32-32s14.355-32,32-32s32,14.355,32,32S274.645,416,257,416z M257,362      c-12.131,0-22,9.869-22,22s9.869,22,22,22s22-9.869,22-22S269.131,362,257,362z" fill="#3F456B"/></g><g><path d="M257,416c-2.762,0-5-2.238-5-5v-23c0-2.762,2.238-5,5-5s5,2.238,5,5v23C262,413.762,259.762,416,257,416      z" fill="#3F456B"/></g></g></g><g><path d="M171.909,330.525c-1.788-3.096-0.728-7.054,2.369-8.842c3.095-1.787,7.054-0.727,8.841,2.369    c1.787,3.095,0.727,7.054-2.369,8.842C177.654,334.682,173.697,333.62,171.909,330.525z" fill="#3F456B"/></g><g><path d="M52.909,314.525c-1.788-3.096-0.728-7.054,2.369-8.842c3.095-1.787,7.054-0.727,8.841,2.369    c1.787,3.095,0.727,7.054-2.369,8.842C58.654,318.682,54.697,317.62,52.909,314.525z" fill="#3F456B"/></g><g><path d="M50.909,339.525c-1.788-3.096-0.728-7.054,2.369-8.842c3.095-1.787,7.054-0.727,8.841,2.369    c1.787,3.095,0.727,7.054-2.369,8.842C56.654,343.682,52.697,342.62,50.909,339.525z" fill="#3F456B"/></g><g><path d="M50.909,364.525c-1.788-3.096-0.728-7.054,2.369-8.842c3.095-1.787,7.054-0.727,8.841,2.369    c1.787,3.095,0.727,7.054-2.369,8.842C56.654,368.682,52.697,367.62,50.909,364.525z" fill="#3F456B"/></g><g><path d="M369.909,261.525c-1.788-3.096-0.728-7.054,2.369-8.842c3.095-1.787,7.054-0.727,8.841,2.369    c1.787,3.095,0.727,7.054-2.369,8.842C375.654,265.682,371.697,264.62,369.909,261.525z" fill="#3F456B"/></g><g><path d="M318.909,382.525c-1.788-3.096-0.728-7.054,2.369-8.842c3.095-1.787,7.054-0.727,8.841,2.369    c1.787,3.095,0.727,7.054-2.369,8.842C324.654,386.682,320.697,385.62,318.909,382.525z" fill="#3F456B"/></g><g><path d="M359.909,133.525c-1.788-3.096-0.728-7.054,2.369-8.842c3.095-1.787,7.054-0.727,8.841,2.369    c1.787,3.095,0.727,7.054-2.369,8.842C365.654,137.682,361.697,136.62,359.909,133.525z" fill="#3F456B"/></g><g><path d="M245.909,187.525c-1.788-3.096-0.728-7.054,2.369-8.842c3.095-1.787,7.054-0.727,8.841,2.369    c1.787,3.095,0.727,7.054-2.369,8.842C251.654,191.682,247.697,190.62,245.909,187.525z" fill="#3F456B"/></g><g><path d="M141.909,212.525c-1.788-3.096-0.728-7.054,2.369-8.842c3.095-1.787,7.054-0.727,8.841,2.369    c1.787,3.095,0.727,7.054-2.369,8.842C147.654,216.682,143.697,215.62,141.909,212.525z" fill="#3F456B"/></g><g><path d="M135.909,124.525c-1.788-3.096-0.728-7.054,2.369-8.842c3.095-1.787,7.054-0.727,8.841,2.369    c1.787,3.095,0.727,7.054-2.369,8.842C141.654,128.682,137.697,127.62,135.909,124.525z" fill="#3F456B"/></g><g><path d="M141.909,267.525c-1.788-3.096-0.728-7.054,2.369-8.842c3.095-1.787,7.054-0.727,8.841,2.369    c1.787,3.095,0.727,7.054-2.369,8.842C147.654,271.682,143.697,270.62,141.909,267.525z" fill="#3F456B"/></g></g></svg>