<?xml version="1.0" ?><svg viewBox="0 0 512 512" xmlns="http://www.w3.org/2000/svg"><defs><style>.cls-1{fill:#3f456b;}</style></defs><title/><g id="Lines"><path class="cls-1" d="M256,261a5.09,5.09,0,0,1-2.25-.53l-238.82-120a5,5,0,0,1,0-8.94l238.82-120a5,5,0,0,1,4.5,0l238.82,120a5,5,0,0,1,0,8.94l-238.82,120A5.09,5.09,0,0,1,256,261ZM28.31,136,256,250.4,483.69,136,256,21.6Z"/><path class="cls-1" d="M256,501a5.09,5.09,0,0,1-2.25-.53l-238.82-120a5,5,0,0,1,0-8.94l119.41-60a5,5,0,0,1,4.49,8.94L28.31,376,256,490.4,483.69,376,373.17,320.47a5,5,0,0,1,4.49-8.94l119.41,60a5,5,0,0,1,0,8.94l-238.82,120A5.09,5.09,0,0,1,256,501Z"/><path class="cls-1" d="M256,381a5.09,5.09,0,0,1-2.25-.53l-238.82-120a5,5,0,0,1,0-8.94l119.41-60a5,5,0,0,1,4.49,8.94L28.31,256,256,370.4,483.69,256,373.17,200.47a5,5,0,0,1,4.49-8.94l119.41,60a5,5,0,0,1,0,8.94l-238.82,120A5.09,5.09,0,0,1,256,381Z"/></g><g id="Outline"><path class="cls-1" d="M136.59,321a5,5,0,0,1-2.25-9.47l.89-.45a5,5,0,0,1,4.5,8.94l-.9.45A5,5,0,0,1,136.59,321Zm226.06-6.41a5,5,0,0,1-2.24-.53l-.9-.45a5,5,0,0,1,4.5-8.94l.89.45a5,5,0,0,1-2.25,9.47Zm-207.3-3a5,5,0,0,1-2.24-9.47l.89-.45a5,5,0,0,1,4.49,8.94l-.9.45A5,5,0,0,1,155.35,311.57Zm188.54-6.41a5,5,0,0,1-2.25-.53l-.89-.45a5,5,0,0,1,4.49-8.94l.9.45a5,5,0,0,1-2.25,9.47Zm-169.77-3a5,5,0,0,1-2.25-9.46l.89-.45a5,5,0,1,1,4.49,8.93l-.89.45A5,5,0,0,1,174.12,302.14Zm151-6.41a5,5,0,0,1-2.24-.53l-.89-.45a5,5,0,1,1,4.49-8.93l.89.45a5,5,0,0,1-2.25,9.46Zm-132.24-3a5,5,0,0,1-2.24-9.47l.89-.45a5,5,0,0,1,4.49,8.94l-.9.44A5,5,0,0,1,192.88,292.72Zm113.48-6.42a5,5,0,0,1-2.25-.53l-.89-.45a5,5,0,0,1,4.49-8.93l.9.45a5,5,0,0,1-2.25,9.46Zm-94.71-3a5,5,0,0,1-2.25-9.47l.89-.45a5,5,0,1,1,4.49,8.93l-.89.45A4.89,4.89,0,0,1,211.65,283.29Zm75.94-6.41a4.89,4.89,0,0,1-2.24-.54l-.89-.44a5,5,0,1,1,4.48-8.94l.9.45a5,5,0,0,1-2.25,9.47Zm-57.18-3a5,5,0,0,1-2.25-9.47l.9-.45a5,5,0,0,1,4.49,8.94l-.9.45A5,5,0,0,1,230.41,273.86Zm38.42-6.41a4.93,4.93,0,0,1-2.25-.54l-.89-.45a5,5,0,0,1,4.49-8.93l.9.45a5,5,0,0,1-2.25,9.47Zm-19.65-3a5,5,0,0,1-2.25-9.47l.89-.45a5,5,0,0,1,4.49,8.94l-.89.45A5,5,0,0,1,249.18,264.43Z"/><path class="cls-1" d="M136.59,201a5,5,0,0,1-2.25-9.47l.89-.45a5,5,0,1,1,4.5,8.94l-.9.45A5,5,0,0,1,136.59,201Zm226.06-6.41a5,5,0,0,1-2.24-.53l-.9-.45a5,5,0,0,1,4.5-8.94l.89.45a5,5,0,0,1-2.25,9.47Zm-207.3-3a5,5,0,0,1-2.24-9.47l.89-.45a5,5,0,0,1,4.49,8.94l-.9.45A5,5,0,0,1,155.35,191.57Zm188.54-6.41a5,5,0,0,1-2.25-.53l-.89-.45a5,5,0,0,1,4.49-8.94l.9.45a5,5,0,0,1-2.25,9.47Zm-169.77-3a5,5,0,0,1-2.25-9.46l.89-.45a5,5,0,1,1,4.49,8.93l-.89.45A5,5,0,0,1,174.12,182.14Zm151-6.41a5,5,0,0,1-2.24-.53l-.89-.45a5,5,0,1,1,4.49-8.93l.89.45a5,5,0,0,1-2.25,9.46Zm-132.24-3a5,5,0,0,1-2.24-9.47l.89-.45a5,5,0,0,1,4.49,8.94l-.9.44A5,5,0,0,1,192.88,172.72Zm113.48-6.42a5,5,0,0,1-2.25-.53l-.89-.45a5,5,0,0,1,4.49-8.93l.9.45a5,5,0,0,1-2.25,9.46Zm-94.71-3a5,5,0,0,1-2.25-9.47l.89-.45a5,5,0,0,1,4.49,8.93l-.89.45A4.89,4.89,0,0,1,211.65,163.29Zm75.94-6.41a4.89,4.89,0,0,1-2.24-.54l-.89-.44a5,5,0,1,1,4.48-8.94l.9.45a5,5,0,0,1-2.25,9.47Zm-57.18-3a5,5,0,0,1-2.25-9.47l.9-.45a5,5,0,0,1,4.49,8.94l-.9.45A5,5,0,0,1,230.41,153.86Zm38.42-6.41a4.93,4.93,0,0,1-2.25-.54l-.89-.45a5,5,0,1,1,4.49-8.93l.9.45a5,5,0,0,1-2.25,9.47Zm-19.65-3a5,5,0,0,1-2.25-9.47l.89-.45a5,5,0,0,1,4.49,8.94l-.89.45A5,5,0,0,1,249.18,144.43Z"/></g></svg>