<?xml version="1.0" ?><svg viewBox="0 0 512 512" xmlns="http://www.w3.org/2000/svg"><defs><style>.cls-1{fill:#3f456b;}.cls-2{fill:#384169;}</style></defs><title/><g id="Lines"><path class="cls-1" d="M118,498.23a35.16,35.16,0,0,1-22.36-8.05,5,5,0,0,1,6.35-7.72,25.07,25.07,0,0,0,25.26,4l5.32-2.13a24.9,24.9,0,0,0,6.45-3.8,5,5,0,0,1,6.32,7.75,34.78,34.78,0,0,1-9,5.33L131,495.72A34.83,34.83,0,0,1,118,498.23Z"/><path class="cls-1" d="M84.68,434.43a5,5,0,0,1-4.31-7.54,34.62,34.62,0,0,1,17.09-14.7l5.31-2.13a35,35,0,0,1,23.23-1,5,5,0,1,1-2.93,9.56,24.62,24.62,0,0,0-16.57.68l-5.32,2.13A24.66,24.66,0,0,0,89,432,5,5,0,0,1,84.68,434.43Z"/><path class="cls-1" d="M127.83,183.19a4.94,4.94,0,0,1-2.11-.47l-7.29-3.41a35,35,0,0,1-16.88-46.53l2.43-5.19a35,35,0,0,1,46.53-16.88l18.11,8.47a34.66,34.66,0,0,1,8.74,5.83,5,5,0,0,1-6.74,7.39,24.94,24.94,0,0,0-6.23-4.16l-18.12-8.47a25,25,0,0,0-33.23,12L110.61,137a25,25,0,0,0,12.06,33.24l7.29,3.41a5,5,0,0,1-2.13,9.53Z"/><path class="cls-1" d="M426.54,253.35a5,5,0,0,1-2-9.59,24.85,24.85,0,0,0,8-5.58l4-4.14a25,25,0,0,0-.7-35.34l-14.42-13.86A24.92,24.92,0,0,0,406,178a5,5,0,0,1,.75-10,35,35,0,0,1,21.59,9.63l14.42,13.86a35,35,0,0,1,1,49.48l-4,4.14a34.73,34.73,0,0,1-11.27,7.83A5.17,5.17,0,0,1,426.54,253.35Z"/><path class="cls-1" d="M56.73,499.77a35,35,0,0,1-35-34.93v-5.73A35.08,35.08,0,0,1,56.64,424l20-.05h.08a35,35,0,0,1,35,34.92v5.73a35,35,0,0,1-34.92,35.08h0l-20,0Zm20.07-5h0ZM76.72,434h-.06l-20,.05a25.08,25.08,0,0,0-24.94,25v5.73a25,25,0,0,0,25,24.95h.06l20,0h0a25,25,0,0,0,24.94-25.06v-5.73A25,25,0,0,0,76.72,434Z"/><path class="cls-1" d="M446.51,499.77a35,35,0,0,1-35-34.93v-5.73A35.08,35.08,0,0,1,446.42,424l20-.05h.08a35,35,0,0,1,35,34.92v5.73a35,35,0,0,1-34.92,35.08h0l-20,0Zm20.07-5h0ZM466.5,434h-.06l-20,.05a25.08,25.08,0,0,0-24.94,25v5.73a25,25,0,0,0,25,24.95h.06l20,0h0a25,25,0,0,0,24.94-25.06v-5.73A25,25,0,0,0,466.5,434Z"/><path class="cls-2" d="M370.35,501.59h-225a5,5,0,0,1-4.86-3.82l-31-128a5,5,0,0,1,4.86-6.18H293.68a5,5,0,0,1,0,10h-173l28.58,118H366.41l28.58-118h-58.6a5,5,0,0,1,0-10h65a5,5,0,0,1,4.86,6.18l-31,128A5,5,0,0,1,370.35,501.59Z"/><path class="cls-2" d="M114.34,373.59a5,5,0,0,1-4.85-3.81c-.19-.78-4.63-19.36,4.17-30.58,4.22-5.39,10.51-8.12,18.69-8.12a5,5,0,0,1,0,10c-5,0-8.56,1.4-10.82,4.29-4.84,6.17-3.32,18-2.33,22a5,5,0,0,1-3.66,6.05A4.93,4.93,0,0,1,114.34,373.59Z"/><path class="cls-2" d="M401.28,373.59a5.07,5.07,0,0,1-1.15-.13,5,5,0,0,1-3.72-6c1-4.39,2.64-17.08-2.09-23-1.79-2.25-4.47-3.34-8.21-3.34a5,5,0,0,1,0-10c8.6,0,13.48,3.88,16.06,7.15,8.54,10.78,4.47,29.42,4,31.51A5,5,0,0,1,401.28,373.59Z"/><path class="cls-1" d="M313.22,420.67c-10.25,0-17.57-2.68-22.33-8.15-8.84-10.15-5.63-26.72-2.8-41.35,1-5.08,1.92-9.89,2.28-14s-.62-7.49-3-10c-5.41-5.68-16.86-6.53-20.81-6.38H126a71.71,71.71,0,0,1-27.2-8.7c-12.62-7.14-27.65-21.51-27.65-49.39,0-23.38,9.53-40.62,28.33-51.23,14.81-8.35,31.77-10.27,39.93-11.19l1.7-.19a5,5,0,1,1,1.17,9.93l-1.75.2c-25.49,2.88-59.38,11.45-59.38,52.48,0,18.52,7.59,32.21,22.57,40.69a62.16,62.16,0,0,0,22.87,7.41H266.27c1.69,0,19-.3,28.32,9.48,4.43,4.65,6.36,10.62,5.74,17.76a151.47,151.47,0,0,1-2.42,15.05c-2.4,12.38-5.11,26.42.52,32.89,3.07,3.53,9,5.09,17.65,4.64,6.9-.37,11.65-2.69,14.53-7.12,7.51-11.54,1.15-35-1.93-43.11a4.74,4.74,0,0,1-.26-.91c-.08-.49-2-12,5-20.38,4.55-5.43,11.51-8.18,20.69-8.18,18.73,0,37.06-.1,39.39-.12,3.07-.35,36.17-5.17,37-46.31.85-41.51-33.57-48.77-35-49.06a5,5,0,0,1,1.88-9.82,56.44,56.44,0,0,1,22,10.58c9.92,7.74,21.64,22.43,21.11,48.51-.55,26.66-13.06,40.52-23.45,47.45a54,54,0,0,1-22.82,8.63l-.43,0c-.19,0-19.72.12-39.7.12-6,0-10.43,1.54-13,4.56-3.53,4.17-3.1,10.33-2.92,11.91A112.45,112.45,0,0,1,343,375.48c2.44,14.39,1.11,25.65-4,33.46-4.68,7.19-12.21,11.11-22.38,11.64Q314.87,420.67,313.22,420.67Z"/><path class="cls-1" d="M234.89,156.84a5,5,0,0,1-1.57-9.75c15-5,25.85-12.44,34-23.47a5,5,0,1,1,8,5.94c-9.32,12.6-22,21.44-38.91,27A4.79,4.79,0,0,1,234.89,156.84Z"/><path class="cls-1" d="M111.67,236a5,5,0,0,1-5-4.41c-1.28-10.68-1.23-26.52,6.2-41.33,10.18-20.28,30.44-27,47-30.55,9.68-2.1,20.09-3.35,30.15-4.57,2.59-.31,5.19-.62,7.79-.95a5,5,0,1,1,1.25,9.92c-2.61.33-5.23.65-7.84,1-10.29,1.24-20,2.41-29.24,4.41-21.29,4.61-33.67,12.4-40.12,25.26-4.93,9.83-6.78,22.49-5.21,35.67a5,5,0,0,1-4.38,5.55A4,4,0,0,1,111.67,236Z"/><path class="cls-1" d="M194.71,220.61a5,5,0,0,1-.32-10c52.77-3.44,89.9-16.6,90.26-16.74a5,5,0,0,1,3.39,9.41c-1.55.56-38.73,13.77-93,17.31Z"/><path class="cls-2" d="M390.24,467.37a32.33,32.33,0,0,1-12.5-2.84,5,5,0,0,1,3.88-9.22c6,2.52,10.68,2.71,14,.56,6-3.83,7.61-14.87,7.72-18.43a4.9,4.9,0,0,1,.08-.77c.15-.8,3.76-19.83,14.1-57.41,5.2-18.94,3.91-31.31,1.91-38.35-2.1-7.42-5.41-10.58-5.45-10.61a5,5,0,0,1-.44-7,5,5,0,0,1,7.09-.44c.75.65,18.22,16.55,6.53,59.08-9.49,34.49-13.32,53.59-13.85,56.27a48.74,48.74,0,0,1-1.58,9.66c-2.07,7.68-5.68,13.21-10.71,16.45A19.61,19.61,0,0,1,390.24,467.37Z"/><path class="cls-1" d="M304.21,174.14a14.89,14.89,0,0,1-10.19-4h0l-3.66-3.41a15,15,0,0,1-.78-21.2l10.9-11.72a15,15,0,0,1,21.19-.77l3.67,3.4a15,15,0,0,1,.77,21.2l-10.89,11.72a14.9,14.9,0,0,1-10.44,4.77Zm-3.38-11.33a5,5,0,0,0,7.06-.26l10.9-11.72a5,5,0,0,0-.26-7.06l-3.66-3.41a5,5,0,0,0-7.07.26l-10.89,11.72a5,5,0,0,0,.25,7.07Z"/><path class="cls-1" d="M117,285.6a15,15,0,0,1-13.2-7.83l-2.39-4.39a15,15,0,0,1,6-20.34l14.05-7.65a15,15,0,0,1,20.35,6l2.39,4.39a15,15,0,0,1-6,20.35l-14.06,7.64A14.84,14.84,0,0,1,117,285.6Zm11.63-32a5,5,0,0,0-2.38.61l-14.06,7.64a5,5,0,0,0-2,6.78l2.39,4.4h0a5,5,0,0,0,6.78,2l14.06-7.65a5,5,0,0,0,2-6.78l-2.39-4.39A5,5,0,0,0,128.67,253.57Z"/><path class="cls-1" d="M374.82,309.16a15.07,15.07,0,0,1-14.45-11L359,293.39a15,15,0,0,1,10.4-18.49l15.41-4.32A15,15,0,0,1,403.32,281l1.35,4.81a15,15,0,0,1-10.4,18.49l-15.41,4.32A15.09,15.09,0,0,1,374.82,309.16ZM388.87,280a4.82,4.82,0,0,0-1.34.19l-15.41,4.31a5,5,0,0,0-3.47,6.17L370,295.5h0a5,5,0,0,0,6.17,3.47l15.4-4.32a5,5,0,0,0,3.47-6.16l-1.35-4.82A5,5,0,0,0,388.87,280Z"/><path class="cls-1" d="M300,248.42A15,15,0,0,1,285,234l-.21-5a15,15,0,0,1,14.37-15.61l16-.66a15,15,0,0,1,15.6,14.37l.21,5a15,15,0,0,1-14.37,15.6l-16,.66Zm15.79-25.66h-.21l-16,.66a5,5,0,0,0-4.79,5.21l.21,5h0a5,5,0,0,0,1.62,3.47,4.87,4.87,0,0,0,3.58,1.32l16-.66a5,5,0,0,0,4.79-5.2l-.21-5a5,5,0,0,0-5-4.79Z"/><path class="cls-1" d="M221.08,314.77a15,15,0,0,1-14.93-13.72h0l-.43-5a15,15,0,0,1,13.65-16.23l15.94-1.37a15,15,0,0,1,16.24,13.65l.43,5a15,15,0,0,1-13.66,16.23l-15.94,1.37C221.94,314.75,221.51,314.77,221.08,314.77Zm-5-14.58a5,5,0,0,0,5.41,4.56l15.94-1.38A5,5,0,0,0,242,298l-.43-5a5,5,0,0,0-5.41-4.55l-15.94,1.37a5,5,0,0,0-4.55,5.41Z"/><path class="cls-1" d="M209.38,174.43A15,15,0,0,1,194.62,162l-.86-4.93A15,15,0,0,1,206,139.73L221.71,137a15,15,0,0,1,17.36,12.19l.86,4.92a15,15,0,0,1-12.19,17.37L212,174.21A15.13,15.13,0,0,1,209.38,174.43Zm14.91-27.68a5,5,0,0,0-.86.07l-15.76,2.76a5,5,0,0,0-4.06,5.79l.86,4.92h0a5,5,0,0,0,5.79,4.07L226,161.6a5,5,0,0,0,4.06-5.79l-.86-4.93a5,5,0,0,0-4.93-4.13Z"/><path class="cls-2" d="M380,86.4a5.05,5.05,0,0,1-1.85-.35,5,5,0,0,1-2.79-6.48c.6-1.52,15.35-37.54,68.09-60.1a5,5,0,0,1,3.94,9.2C422,39.55,406.29,53.81,397.6,63.85c-9.42,10.89-12.88,19.33-12.91,19.41A5,5,0,0,1,380,86.4Z"/><path class="cls-2" d="M448.5,33.41a5,5,0,0,1-4.57-3l-5-11.32a5,5,0,0,1,9.14-4l5,11.31a5,5,0,0,1-4.57,7Z"/><path class="cls-2" d="M398.35,185.58a5,5,0,0,1-3.58-8.48,56.72,56.72,0,1,0-86.52-72.9,5,5,0,0,1-8.09-5.88,66.72,66.72,0,1,1,101.78,85.75A5,5,0,0,1,398.35,185.58Z"/><path class="cls-1" d="M326.67,190a5,5,0,0,1-2.82-9.14c13.76-9.36,20.4-19,19.75-28.72-2.15-32-21-41.95-48.55-47.1a5,5,0,0,1-4-4c-4.32-23.36-21.8-29.38-29.84-30.91-9.21,32.64-50.39,43.75-53.4,44.52-15.46,4.57-25.91,11.89-31.07,21.76a33.61,33.61,0,0,0-2.48,24,5,5,0,0,1-9.49,3.16,43.84,43.84,0,0,1,3.11-31.83c6.47-12.38,19-21.38,37.2-26.75l.2-.06c.41-.1,41.79-10.88,47.14-41.23a5.06,5.06,0,0,1,5.09-4.13c.35,0,34.2,1.52,42.66,36.25,25.43,5.22,50.77,16.52,53.41,55.61.91,13.49-7.2,26.16-24.1,37.66A5,5,0,0,1,326.67,190Z"/><path class="cls-1" d="M121,339.27a5.15,5.15,0,0,1-1.22-.15,5,5,0,0,1-3.63-6.07c.28-1.08.59-2.15.94-3.19,13.71-40.74,74.44-47.5,103.63-50.75,10.92-1.22,22.12-2.07,33-2.9,31.6-2.42,64.27-4.93,93.72-16.64,12.48-5,26.64-11.38,37-21.37,12.35-11.93,16.94-31.43,11.4-48.52-6.79-21-29.86-32-47.56-35.12a5,5,0,1,1,1.73-9.85c20.43,3.59,47.19,16.71,55.34,41.89,6.69,20.64,1.08,44.27-14,58.8-11.58,11.19-26.83,18.14-40.22,23.47-30.87,12.27-64.31,14.83-96.65,17.31-10.75.82-21.86,1.67-32.62,2.87-27.13,3-83.58,9.3-95.25,44-.27.79-.51,1.62-.72,2.45A5,5,0,0,1,121,339.27Z"/></g><g id="Outline"><path class="cls-2" d="M258.35,501.59a5,5,0,0,1-5-5v-127a5,5,0,1,1,10,0v127A5,5,0,0,1,258.35,501.59Z"/><path class="cls-2" d="M220.67,501.59a5,5,0,0,1-5-4.6L205.36,370a5,5,0,0,1,10-.81l10.33,127a5,5,0,0,1-4.58,5.39Z"/><path class="cls-2" d="M183,501.59a5,5,0,0,1-4.93-4.2l-20.67-127a5,5,0,1,1,9.87-1.6l20.67,127a5,5,0,0,1-4.13,5.73A4.59,4.59,0,0,1,183,501.59Z"/><path class="cls-2" d="M296,501.59l-.41,0a5,5,0,0,1-4.58-5.39l6.7-82.31a5,5,0,1,1,10,.81L301,497A5,5,0,0,1,296,501.59Z"/><path class="cls-2" d="M333.69,501.59a4.43,4.43,0,0,1-.81-.07,5,5,0,0,1-4.14-5.73l20.67-127a5,5,0,1,1,9.87,1.6l-20.66,127A5,5,0,0,1,333.69,501.59Z"/></g></svg>