<?xml version="1.0" ?><svg viewBox="0 0 512 512" xmlns="http://www.w3.org/2000/svg"><defs><style>.cls-1{fill:#3f456b;}</style></defs><title/><g id="Lines"><path class="cls-1" d="M462,156a5,5,0,0,1,5-5h0a5,5,0,0,1,5,5h0a5,5,0,0,1-5,5h0A5,5,0,0,1,462,156Z"/><path class="cls-1" d="M462,300a5,5,0,0,1,5-5h0a5,5,0,0,1,5,5h0a5,5,0,0,1-5,5h0A5,5,0,0,1,462,300Z"/><path class="cls-1" d="M41,156a5,5,0,0,1,5-5h0a5,5,0,0,1,5,5h0a5,5,0,0,1-5,5h0A5,5,0,0,1,41,156Z"/><path class="cls-1" d="M41,300a5,5,0,0,1,5-5h0a5,5,0,0,1,5,5h0a5,5,0,0,1-5,5h0A5,5,0,0,1,41,300Z"/><path class="cls-1" d="M116,357.5a5,5,0,0,1,5-5h0a5,5,0,0,1,5,5h0a5,5,0,0,1-5,5h0A5,5,0,0,1,116,357.5Z"/><path class="cls-1" d="M83.73,357.5a5,5,0,0,1,5-5h0a5,5,0,0,1,5,5h0a5,5,0,0,1-5,5h0A5,5,0,0,1,83.73,357.5Z"/><path class="cls-1" d="M51.47,357.5a5,5,0,0,1,5-5h0a5,5,0,0,1,5,5h0a5,5,0,0,1-5,5h0A5,5,0,0,1,51.47,357.5Z"/><path class="cls-1" d="M80.61,483H59.25c-5.24,0-9.47-2.79-11.91-7.86a21.31,21.31,0,0,1-1.88-6.51l-3.39-19.79a5,5,0,0,1,9.86-1.69l3.42,20c0,.14,0,.28,0,.42S56,473,59.25,473H80.61c3.26,0,3.83-5.29,3.85-5.51s0-.27.05-.39l3.42-19.88a5,5,0,1,1,9.86,1.7L94.4,468.6C93.88,473.72,90.4,483,80.61,483Z"/><path class="cls-1" d="M451.9,483H430.54c-5.24,0-9.47-2.79-11.91-7.86a21.2,21.2,0,0,1-1.87-6.51l-3.39-19.79a5,5,0,0,1,9.85-1.69l3.42,20c0,.14,0,.28.05.42s.59,5.48,3.85,5.48H451.9c3.29,0,3.85-5.42,3.85-5.48s0-.28.05-.42l3.42-19.88a5,5,0,1,1,9.86,1.7l-3.39,19.68C465.18,473.72,461.69,483,451.9,483Z"/><path class="cls-1" d="M463.69,453H48.31A37.36,37.36,0,0,1,11,415.69V162.31A37.36,37.36,0,0,1,48.31,125H463.69A37.36,37.36,0,0,1,501,162.31V415.69A37.36,37.36,0,0,1,463.69,453ZM48.31,135A27.34,27.34,0,0,0,21,162.31V415.69A27.34,27.34,0,0,0,48.31,443H463.69A27.34,27.34,0,0,0,491,415.69V162.31A27.34,27.34,0,0,0,463.69,135Z"/><path class="cls-1" d="M321.72,132.38h-.11a5,5,0,0,1-4.89-5.11c0-.28,1-27.77,30.93-27.77,24.07,0,30.43,18.23,30.43,27.88a5,5,0,0,1-10,0,21.34,21.34,0,0,0-2.72-9.3c-3.3-5.7-9.26-8.58-17.71-8.58-8.63,0-14.74,3-18.17,8.94a21.58,21.58,0,0,0-2.76,9A5,5,0,0,1,321.72,132.38Z"/><path class="cls-1" d="M496,327H16a5,5,0,0,1,0-10H496a5,5,0,0,1,0,10Z"/><path class="cls-1" d="M422.45,414.92a32.23,32.23,0,1,1,22.8-9.44h0A32,32,0,0,1,422.45,414.92Zm0-54.5a22.25,22.25,0,1,0,15.73,38h0a22.25,22.25,0,0,0-15.73-38Z"/></g><g id="Outline"><path class="cls-1" d="M205.31,290H180.69A24.72,24.72,0,0,1,156,265.31V207.69A24.72,24.72,0,0,1,180.69,183h24.62A24.72,24.72,0,0,1,230,207.69v57.62A24.72,24.72,0,0,1,205.31,290Zm-24.62-97A14.71,14.71,0,0,0,166,207.69v57.62A14.71,14.71,0,0,0,180.69,280h24.62A14.71,14.71,0,0,0,220,265.31V207.69A14.71,14.71,0,0,0,205.31,193Z"/><path class="cls-1" d="M419.31,290H394.69A24.72,24.72,0,0,1,370,265.31V207.69A24.72,24.72,0,0,1,394.69,183h24.62A24.72,24.72,0,0,1,444,207.69v57.62A24.72,24.72,0,0,1,419.31,290Zm-24.62-97A14.71,14.71,0,0,0,380,207.69v57.62A14.71,14.71,0,0,0,394.69,280h24.62A14.71,14.71,0,0,0,434,265.31V207.69A14.71,14.71,0,0,0,419.31,193Z"/><path class="cls-1" d="M328.69,291H303.44C289.89,291,278,278.92,278,265.15V207.57c0-13.32,11.65-24.57,25.44-24.57h25.25A24.18,24.18,0,0,1,353,207.57v57.58C353,279.16,341.87,291,328.69,291Zm-25.25-98c-8.37,0-15.44,6.67-15.44,14.57v57.58c0,8.29,7.36,15.85,15.44,15.85h25.25c7.76,0,14.31-7.26,14.31-15.85V207.57A14.29,14.29,0,0,0,328.69,193Z"/><path class="cls-1" d="M128,289H83.62c-.2,0-19.62-1.76-19.62-24.56V250c0-6.82,2.75-10.9,5-13.11,5-4.84,11.79-4.92,13-4.89H121c3.21,0,5.46-.71,6.7-2.11,1.49-1.7,1.41-4.35,1.36-5a5.42,5.42,0,0,1-.06-.81,5,5,0,0,1,4.62-5,4.94,4.94,0,0,1,2.7.54l-7.32-12c0-12.51-8.19-14.32-10.26-14.57H75a5,5,0,0,1,0-10h44.38c.2,0,19.62,1.76,19.62,24.56V223.7c.19,1.79.47,7.83-3.68,12.66-3.21,3.74-8,5.64-14.32,5.64H81.81s-3.65,0-5.87,2.13C74.63,245.41,74,247.33,74,250v14.43c0,12.51,8.19,14.32,10.26,14.57H128a5,5,0,0,1,0,10Z"/><path class="cls-1" d="M250,251.23a5,5,0,0,1,5-5h0a5,5,0,0,1,5,5h0a5,5,0,0,1-5,5h0A5,5,0,0,1,250,251.23Z"/><path class="cls-1" d="M250,219a5,5,0,0,1,5-5h0a5,5,0,0,1,5,5h0a5,5,0,0,1-5,5h0A5,5,0,0,1,250,219Z"/><path class="cls-1" d="M274.84,112.84a5,5,0,0,1,0-10l26-.09a5,5,0,0,1,0,10l-26,.09Z"/><path class="cls-1" d="M394.84,112.43a5,5,0,0,1,0-10l25-.08h0a5,5,0,0,1,0,10l-25,.08Z"/><path class="cls-1" d="M388.4,88.36A5,5,0,0,1,385.88,79L408,66.18a5,5,0,0,1,5,8.64L390.91,87.68A5,5,0,0,1,388.4,88.36Z"/><path class="cls-1" d="M371.08,71.17a5,5,0,0,1-4.33-7.48l12.71-22.2a5,5,0,0,1,8.68,5l-12.72,22.2A5,5,0,0,1,371.08,71.17Z"/><path class="cls-1" d="M347.68,64.59a5,5,0,0,1-5-5l-.09-25a5,5,0,0,1,5-5h0a5,5,0,0,1,5,5l.09,25a5,5,0,0,1-5,5Z"/><path class="cls-1" d="M324,71.33a5,5,0,0,1-4.33-2.49l-12.86-22.1a5,5,0,1,1,8.64-5l12.87,22.11A5,5,0,0,1,324,71.33Z"/><path class="cls-1" d="M306.76,88.64a5,5,0,0,1-2.48-.66l-22.2-12.72a5,5,0,0,1,5-8.67l22.2,12.71a5,5,0,0,1-2.49,9.34Z"/></g></svg>