<?xml version="1.0" ?><svg viewBox="0 0 512 512" xmlns="http://www.w3.org/2000/svg"><defs><style>.cls-1{fill:#3f456b;}</style></defs><title/><g id="Lines"><path class="cls-1" d="M354,467a5,5,0,0,1-5-5V160a91.13,91.13,0,0,0-60.9-85.91,5,5,0,0,1-3.35-4.77L285,47.94a2.09,2.09,0,0,1,0-.25c0-.1.53-11.48-6.76-19.18C273.53,23.53,266.38,21,257,21c-9,0-15.75,2.47-20.19,7.36-7.48,8.24-6.35,21-6.33,21.14s0,.34,0,.5V69.64a5,5,0,0,1-3.31,4.71A91.24,91.24,0,0,0,167,160V462a5,5,0,0,1-10,0V160a101.29,101.29,0,0,1,63.5-93.81v-16c-.19-2.38-1-17.62,8.85-28.51C235.76,14.6,245.06,11,257,11c12.29,0,21.91,3.61,28.6,10.73,9.81,10.45,9.48,24.69,9.4,26.43l-.21,17.75A101.16,101.16,0,0,1,359,160V462A5,5,0,0,1,354,467Z"/><path class="cls-1" d="M362,499H152c-11,0-20-9.42-20-21s9-21,20-21H362c11,0,20,9.42,20,21S373,499,362,499ZM152,467c-5.51,0-10,4.93-10,11s4.49,11,10,11H362c5.51,0,10-4.93,10-11s-4.49-11-10-11Z"/><path class="cls-1" d="M96.91,455.47a25.09,25.09,0,0,1-24.74-21.59L29.7,125.79A25,25,0,0,1,51.05,97.62L199.12,77.2a5,5,0,0,1,1.37,9.91L52.41,107.52A15,15,0,0,0,39.6,124.43L82.07,432.52A15.08,15.08,0,0,0,99,445.33l60.5-8.34a5,5,0,1,1,1.36,9.9l-60.49,8.34A25,25,0,0,1,96.91,455.47Z"/><path class="cls-1" d="M355.52,420a5,5,0,0,1-.68-9.95l105.75-14.58a15,15,0,0,0,12.81-16.91L430.93,70.48A15,15,0,0,0,414,57.67L293.2,74.33a5,5,0,0,1-1.37-9.91L412.66,47.77a25,25,0,0,1,28.17,21.35L483.3,377.21A25,25,0,0,1,462,405.38L356.21,420A5.34,5.34,0,0,1,355.52,420Z"/><path class="cls-1" d="M162,364.63a5,5,0,0,1-3.38-1.31,147,147,0,0,1-1.14-215.58,5,5,0,0,1,6.84,7.3A135.68,135.68,0,0,0,121,255,137.41,137.41,0,0,0,165.38,356a5,5,0,0,1-3.38,8.68Z"/><path class="cls-1" d="M354,364.63a5,5,0,0,1-3.38-8.68,137,137,0,0,0-.51-202.36,5,5,0,0,1,6.73-7.4,147,147,0,0,1,.54,217.13A5,5,0,0,1,354,364.63Z"/><path class="cls-1" d="M260.24,327.69a16,16,0,0,1-9.38-3.1c-2.35-1.66-32.29-23.13-54.69-53.84-11-15.05-13.51-31.86-7-46.11,6.4-13.9,20.29-23.32,36.25-24.58,17.92-1.42,29,6.75,34.85,14.77,5.87-8,17-16.1,34.93-14.59,16,1.35,29.8,10.84,36.12,24.77,6.47,14.29,3.85,31.07-7.2,46.06-22.69,30.78-53,52.16-55,53.59A14.84,14.84,0,0,1,260.24,327.69Zm-30.75-117.8c-1,0-2.12.05-3.24.14-12.36,1-23.07,8.17-27.95,18.79-5.07,11-3,23.82,5.95,36,21.82,29.92,52.15,51.4,52.46,51.62l.23.17a5.13,5.13,0,0,0,6.3-.06l.14-.1c.3-.21,30.75-21.54,52.73-51.35,9-12.17,11.15-24.95,6.14-36-4.83-10.64-15.5-17.89-27.85-18.93-22.83-1.94-28.82,15.5-29.06,16.25a5,5,0,0,1-4.76,3.47H260a5,5,0,0,1-4.77-3.53C255,225.72,249.65,209.89,229.49,209.89Z"/><path class="cls-1" d="M15,152a5,5,0,0,1-4.87-3.88c-5.23-22.63-2.83-40.81,7.13-54,14-18.56,37.48-20,38.47-20.07a5,5,0,0,1,.55,10h0c-.2,0-20,1.34-31.09,16.18-8,10.75-9.84,26.13-5.32,45.71a5,5,0,0,1-3.75,6A4.76,4.76,0,0,1,15,152Z"/><path class="cls-1" d="M456.44,432a5,5,0,0,1-.27-10h0c.2,0,20-1.34,31.08-16.18,8.05-10.75,9.84-26.13,5.33-45.71a5,5,0,1,1,9.74-2.24c5.22,22.63,2.82,40.81-7.13,54-14,18.56-37.48,20-38.48,20.07Z"/></g><g id="Outline"><path class="cls-1" d="M238,81.69a5,5,0,0,1-.68-10l35.55-5a5,5,0,1,1,1.38,9.9l-35.55,5A4.12,4.12,0,0,1,238,81.69Z"/><path class="cls-1" d="M183.53,443.52a5,5,0,0,1-.67-10l147.76-20.14a5,5,0,1,1,1.35,9.9L184.21,443.47A5.19,5.19,0,0,1,183.53,443.52Z"/><path class="cls-1" d="M258,402a146.43,146.43,0,0,1-80.27-23.83,5,5,0,0,1,5.47-8.38,137.09,137.09,0,0,0,146.92,1.71,5,5,0,0,1,5.27,8.5A146.65,146.65,0,0,1,258,402Z"/><path class="cls-1" d="M181.87,140.12a5,5,0,0,1-2.69-9.22,147.1,147.1,0,0,1,155.93-1.07,5,5,0,1,1-5.25,8.51,137.12,137.12,0,0,0-145.31,1A5,5,0,0,1,181.87,140.12Z"/><path class="cls-1" d="M455,342.86a5,5,0,0,1-.69-9.95l15.84-2.23a5,5,0,0,1,1.4,9.9l-15.84,2.23A4.31,4.31,0,0,1,455,342.86Z"/><path class="cls-1" d="M459.42,374.55a5,5,0,0,1-.69-9.95l15.84-2.24a5,5,0,0,1,1.4,9.9l-15.84,2.24A5.65,5.65,0,0,1,459.42,374.55Z"/><path class="cls-1" d="M446,279.49a5,5,0,0,1-.69-9.95l15.84-2.24a5,5,0,0,1,1.4,9.91l-15.84,2.23A5.65,5.65,0,0,1,446,279.49Z"/><path class="cls-1" d="M450.48,311.18a5,5,0,0,1-.69-10L465.63,299a5,5,0,0,1,1.4,9.9l-15.84,2.24A5.78,5.78,0,0,1,450.48,311.18Z"/><path class="cls-1" d="M437.07,216.12a5,5,0,0,1-.69-10l15.84-2.24a5,5,0,0,1,1.4,9.9l-15.84,2.24A5.78,5.78,0,0,1,437.07,216.12Z"/><path class="cls-1" d="M441.54,247.8a5,5,0,0,1-.69-10l15.84-2.23a5,5,0,0,1,1.4,9.9l-15.84,2.23A4.24,4.24,0,0,1,441.54,247.8Z"/><path class="cls-1" d="M423.66,121.06a5,5,0,0,1-.69-10l15.84-2.24a5,5,0,0,1,1.4,9.91L424.37,121A5.78,5.78,0,0,1,423.66,121.06Z"/><path class="cls-1" d="M428.13,152.75a5,5,0,0,1-.69-10l15.84-2.23a5,5,0,0,1,1.4,9.9l-15.84,2.24A5.65,5.65,0,0,1,428.13,152.75Z"/><path class="cls-1" d="M432.6,184.43a5,5,0,0,1-.69-10l15.84-2.23a5,5,0,0,1,1.4,9.9l-15.84,2.23A4.31,4.31,0,0,1,432.6,184.43Z"/><path class="cls-1" d="M419.19,89.37a5,5,0,0,1-.69-10l15.84-2.23a5,5,0,0,1,1.4,9.9L419.9,89.32A4.31,4.31,0,0,1,419.19,89.37Z"/><path class="cls-1" d="M72,396.86a5,5,0,0,1-.69-9.95l15.84-2.23a5,5,0,1,1,1.4,9.9l-15.84,2.23A4.24,4.24,0,0,1,72,396.86Z"/><path class="cls-1" d="M76.42,428.55a5,5,0,0,1-.69-9.95l15.84-2.24a5,5,0,0,1,1.4,9.9L77.13,428.5A5.78,5.78,0,0,1,76.42,428.55Z"/><path class="cls-1" d="M63,333.49a5,5,0,0,1-.69-9.95l15.84-2.24a5,5,0,0,1,1.4,9.91l-15.84,2.23A5.78,5.78,0,0,1,63,333.49Z"/><path class="cls-1" d="M67.48,365.18a5,5,0,0,1-.69-10L82.63,353a5,5,0,1,1,1.4,9.9l-15.84,2.24A5.78,5.78,0,0,1,67.48,365.18Z"/><path class="cls-1" d="M54.07,270.12a5,5,0,0,1-.69-9.95l15.84-2.24a5,5,0,1,1,1.4,9.9l-15.84,2.24A5.78,5.78,0,0,1,54.07,270.12Z"/><path class="cls-1" d="M58.54,301.8a5,5,0,0,1-.69-9.95l15.84-2.23a5,5,0,1,1,1.4,9.9l-15.84,2.23A4.31,4.31,0,0,1,58.54,301.8Z"/><path class="cls-1" d="M40.66,175.06a5,5,0,0,1-.69-9.95l15.84-2.24a5,5,0,0,1,1.4,9.91L41.37,175A5.78,5.78,0,0,1,40.66,175.06Z"/><path class="cls-1" d="M45.13,206.75a5,5,0,0,1-.69-10l15.84-2.23a5,5,0,1,1,1.4,9.9L45.84,206.7A5.78,5.78,0,0,1,45.13,206.75Z"/><path class="cls-1" d="M49.6,238.43a5,5,0,0,1-.69-10l15.84-2.23a5,5,0,1,1,1.4,9.9l-15.84,2.23A4.31,4.31,0,0,1,49.6,238.43Z"/><path class="cls-1" d="M36.19,143.37a5,5,0,0,1-.69-10l15.84-2.23a5,5,0,0,1,1.4,9.9L36.9,143.32A4.31,4.31,0,0,1,36.19,143.37Z"/></g></svg>