<?xml version="1.0" ?><svg id="Lines" style="enable-background:new 0 0 512 512;" version="1.1" viewBox="0 0 512 512" xml:space="preserve" xmlns="http://www.w3.org/2000/svg" xmlns:xlink="http://www.w3.org/1999/xlink"><style type="text/css">
	.st0{fill:#3F456B;}
</style><title/><path class="st0" d="M135.9,139.4H17.2c-2.8,0-5-2.2-5-5V15.6c0-2.8,2.2-5,5-5h118.8c2.8,0,5,2.2,5,5v118.8  C140.9,137.1,138.7,139.4,135.9,139.4z M22.2,129.4h108.8V20.6H22.2L22.2,129.4z"/><path class="st0" d="M255.9,259.4H137.2c-2.8,0-5-2.2-5-5V135.6c0-2.8,2.2-5,5-5h118.8c2.8,0,5,2.2,5,5v118.8  C260.9,257.1,258.7,259.4,255.9,259.4z M142.2,249.4h108.8V140.6H142.2V249.4z"/><g><g><path class="st0" d="M259,495c-1.3,0-2.6-0.5-3.5-1.5c-2-2-2-5.1,0-7.1l112-112c2-2,5.1-2,7.1,0c2,2,2,5.1,0,7.1l-112,112    C261.6,494.5,260.3,495,259,495z"/></g><g><path class="st0" d="M256,450c-1.3,0-2.6-0.5-3.5-1.5c-2-2-2-5.1,0-7.1l70-70c2-2,5.1-2,7.1,0c2,2,2,5.1,0,7.1l-70,70    C258.6,449.5,257.3,450,256,450z"/></g><g><path class="st0" d="M304,498c-1.3,0-2.6-0.5-3.5-1.5c-2-2-2-5.1,0-7.1l70-70c2-2,5.1-2,7.1,0c2,2,2,5.1,0,7.1l-70,70    C306.6,497.5,305.3,498,304,498z"/></g></g><g><g><path class="st0" d="M22,495c-1.3,0-2.6-0.5-3.5-1.5c-2-2-2-5.1,0-7.1l112-112c2-2,5.1-2,7.1,0c2,2,2,5.1,0,7.1l-112,112    C24.6,494.5,23.3,495,22,495z"/></g><g><path class="st0" d="M19,450c-1.3,0-2.6-0.5-3.5-1.5c-2-2-2-5.1,0-7.1l70-70c2-2,5.1-2,7.1,0c2,2,2,5.1,0,7.1l-70,70    C21.6,449.5,20.3,450,19,450z"/></g><g><path class="st0" d="M67,498c-1.3,0-2.6-0.5-3.5-1.5c-2-2-2-5.1,0-7.1l70-70c2-2,5.1-2,7.1,0c2,2,2,5.1,0,7.1l-70,70    C69.6,497.5,68.3,498,67,498z"/></g></g><g><g><path class="st0" d="M259,256c-1.3,0-2.6-0.5-3.5-1.5c-2-2-2-5.1,0-7.1l112-112c2-2,5.1-2,7.1,0c2,2,2,5.1,0,7.1l-112,112    C261.6,255.5,260.3,256,259,256z"/></g><g><path class="st0" d="M256,211c-1.3,0-2.6-0.5-3.5-1.5c-2-2-2-5.1,0-7.1l70-70c2-2,5.1-2,7.1,0c2,2,2,5.1,0,7.1l-70,70    C258.6,210.5,257.3,211,256,211z"/></g><g><path class="st0" d="M304,259c-1.3,0-2.6-0.5-3.5-1.5c-2-2-2-5.1,0-7.1l70-70c2-2,5.1-2,7.1,0c2,2,2,5.1,0,7.1l-70,70    C306.6,258.5,305.3,259,304,259z"/></g></g><g><g><path class="st0" d="M22,256c-1.3,0-2.6-0.5-3.5-1.5c-2-2-2-5.1,0-7.1l112-112c2-2,5.1-2,7.1,0c2,2,2,5.1,0,7.1l-112,112    C24.6,255.5,23.3,256,22,256z"/></g><g><path class="st0" d="M19,211c-1.3,0-2.6-0.5-3.5-1.5c-2-2-2-5.1,0-7.1l70-70c2-2,5.1-2,7.1,0c2,2,2,5.1,0,7.1l-70,70    C21.6,210.5,20.3,211,19,211z"/></g><g><path class="st0" d="M67,259c-1.3,0-2.6-0.5-3.5-1.5c-2-2-2-5.1,0-7.1l70-70c2-2,5.1-2,7.1,0c2,2,2,5.1,0,7.1l-70,70    C69.6,258.5,68.3,259,67,259z"/></g></g><g><g><path class="st0" d="M377,375c-1.3,0-2.6-0.5-3.5-1.5c-2-2-2-5.1,0-7.1l112-112c2-2,5.1-2,7.1,0c2,2,2,5.1,0,7.1l-112,112    C379.6,374.5,378.3,375,377,375z"/></g><g><path class="st0" d="M374,330c-1.3,0-2.6-0.5-3.5-1.5c-2-2-2-5.1,0-7.1l70-70c2-2,5.1-2,7.1,0c2,2,2,5.1,0,7.1l-70,70    C376.6,329.5,375.3,330,374,330z"/></g><g><path class="st0" d="M422,378c-1.3,0-2.6-0.5-3.5-1.5c-2-2-2-5.1,0-7.1l70-70c2-2,5.1-2,7.1,0c2,2,2,5.1,0,7.1l-70,70    C424.6,377.5,423.3,378,422,378z"/></g></g><g><g><path class="st0" d="M140,375c-1.3,0-2.6-0.5-3.5-1.5c-2-2-2-5.1,0-7.1l112-112c2-2,5.1-2,7.1,0c2,2,2,5.1,0,7.1l-112,112    C142.6,374.5,141.3,375,140,375z"/></g><g><path class="st0" d="M137,330c-1.3,0-2.6-0.5-3.5-1.5c-2-2-2-5.1,0-7.1l70-70c2-2,5.1-2,7.1,0c2,2,2,5.1,0,7.1l-70,70    C139.6,329.5,138.3,330,137,330z"/></g><g><path class="st0" d="M185,378c-1.3,0-2.6-0.5-3.5-1.5c-2-2-2-5.1,0-7.1l70-70c2-2,5.1-2,7.1,0c2,2,2,5.1,0,7.1l-70,70    C187.6,377.5,186.3,378,185,378z"/></g></g><g><g><path class="st0" d="M377,136c-1.3,0-2.6-0.5-3.5-1.5c-2-2-2-5.1,0-7.1l112-112c2-2,5.1-2,7.1,0c2,2,2,5.1,0,7.1l-112,112    C379.6,135.5,378.3,136,377,136z"/></g><g><path class="st0" d="M374,91c-1.3,0-2.6-0.5-3.5-1.5c-2-2-2-5.1,0-7.1l70-70c2-2,5.1-2,7.1,0c2,2,2,5.1,0,7.1l-70,70    C376.6,90.5,375.3,91,374,91z"/></g><g><path class="st0" d="M422,139c-1.3,0-2.6-0.5-3.5-1.5c-2-2-2-5.1,0-7.1l70-70c2-2,5.1-2,7.1,0c2,2,2,5.1,0,7.1l-70,70    C424.6,138.5,423.3,139,422,139z"/></g></g><g><g><path class="st0" d="M140,136c-1.3,0-2.6-0.5-3.5-1.5c-2-2-2-5.1,0-7.1l112-112c2-2,5.1-2,7.1,0c2,2,2,5.1,0,7.1l-112,112    C142.6,135.5,141.3,136,140,136z"/></g><g><path class="st0" d="M137,91c-1.3,0-2.6-0.5-3.5-1.5c-2-2-2-5.1,0-7.1l70-70c2-2,5.1-2,7.1,0c2,2,2,5.1,0,7.1l-70,70    C139.6,90.5,138.3,91,137,91z"/></g><g><path class="st0" d="M185,139c-1.3,0-2.6-0.5-3.5-1.5c-2-2-2-5.1,0-7.1l70-70c2-2,5.1-2,7.1,0c2,2,2,5.1,0,7.1l-70,70    C187.6,138.5,186.3,139,185,139z"/></g></g><path class="st0" d="M135.9,259.4H17.1c-2.8,0-5-2.2-5-5V135.6c0-2.8,2.2-5,5-5h118.7c2.8,0,5,2.2,5,5v118.8  C140.9,257.1,138.7,259.4,135.9,259.4z M22.1,249.4h108.8V140.6H22.1L22.1,249.4z"/><path class="st0" d="M255.9,139.4H137.2c-2.8,0-5-2.2-5-5V15.6c0-2.8,2.2-5,5-5h118.8c2.8,0,5,2.2,5,5v118.8  C260.9,137.1,258.7,139.3,255.9,139.4z M142.2,129.4h108.8V20.6H142.2V129.4z"/><path class="st0" d="M374.5,139.4H255.8c-2.8,0-5-2.2-5-5V15.6c0-2.8,2.2-5,5-5h118.7c2.8,0,5,2.2,5,5v118.8  C379.5,137.1,377.3,139.4,374.5,139.4z M260.8,129.4h108.8V20.6H260.8V129.4z"/><path class="st0" d="M494.5,259.4H375.8c-2.8,0-5-2.2-5-5V135.6c0-2.8,2.2-5,5-5h118.8c2.8,0,5,2.2,5,5v118.8  C499.5,257.1,497.3,259.4,494.5,259.4z M380.8,249.4h108.8V140.6H380.8L380.8,249.4z"/><path class="st0" d="M374.5,259.4H255.8c-2.8,0-5-2.2-5-5V135.6c0-2.8,2.2-5,5-5h118.8c2.8,0,5,2.2,5,5v118.8  C379.5,257.1,377.3,259.4,374.5,259.4z M260.8,249.4h108.8V140.6H260.8V249.4z"/><path class="st0" d="M494.5,139.4H375.8c-2.8,0-5-2.2-5-5V15.6c0-2.8,2.2-5,5-5h118.8c2.8,0,5,2.2,5,5v118.8  C499.5,137.1,497.3,139.4,494.5,139.4z M380.8,129.4h108.8V20.6H380.8L380.8,129.4z"/><path class="st0" d="M135.9,378.4H17.2c-2.8,0-5-2.2-5-5V254.6c0-2.8,2.2-5,5-5h118.8c2.8,0,5,2.2,5,5v118.8  C140.9,376.1,138.7,378.4,135.9,378.4z M22.2,368.4h108.8V259.6H22.2L22.2,368.4z"/><path class="st0" d="M255.9,498.4H137.2c-2.8,0-5-2.2-5-5V374.6c0-2.8,2.2-5,5-5h118.8c2.8,0,5,2.2,5,5v118.8  C260.9,496.1,258.7,498.4,255.9,498.4z M142.2,488.4h108.8V379.6H142.2V488.4z"/><path class="st0" d="M135.9,498.4H17.1c-2.8,0-5-2.2-5-5V374.6c0-2.8,2.2-5,5-5h118.7c2.8,0,5,2.2,5,5v118.8  C140.9,496.1,138.7,498.4,135.9,498.4z M22.1,488.4h108.8V379.6H22.1L22.1,488.4z"/><path class="st0" d="M255.9,378.4H137.2c-2.8,0-5-2.2-5-5V254.6c0-2.8,2.2-5,5-5h118.8c2.8,0,5,2.2,5,5v118.8  C260.9,376.1,258.7,378.4,255.9,378.4z M142.2,368.4h108.8V259.6H142.2V368.4z"/><path class="st0" d="M374.5,378.4H255.8c-2.8,0-5-2.2-5-5V254.6c0-2.8,2.2-5,5-5h118.7c2.8,0,5,2.2,5,5v118.8  C379.5,376.1,377.3,378.4,374.5,378.4z M260.8,368.4h108.8V259.6H260.8V368.4z"/><path class="st0" d="M494.5,498.4H375.8c-2.8,0-5-2.2-5-5V374.6c0-2.8,2.2-5,5-5h118.8c2.8,0,5,2.2,5,5v118.8  C499.5,496.1,497.3,498.4,494.5,498.4z M380.8,488.4h108.8V379.6H380.8L380.8,488.4z"/><path class="st0" d="M374.5,498.4H255.8c-2.8,0-5-2.2-5-5V374.6c0-2.8,2.2-5,5-5h118.8c2.8,0,5,2.2,5,5v118.8  C379.5,496.1,377.3,498.4,374.5,498.4z M260.8,488.4h108.8V379.6H260.8V488.4z"/><path class="st0" d="M494.5,378.4H375.8c-2.8,0-5-2.2-5-5V254.6c0-2.8,2.2-5,5-5h118.8c2.8,0,5,2.2,5,5v118.8  C499.5,376.1,497.3,378.4,494.5,378.4z M380.8,368.4h108.8V259.6H380.8L380.8,368.4z"/></svg>