<?xml version="1.0" ?><svg id="Lines" viewBox="0 0 512 512" xmlns="http://www.w3.org/2000/svg"><defs><style>.cls-1{fill:#3f456b;}</style></defs><title/><path class="cls-1" d="M299.34,344a115.86,115.86,0,1,1,82-33.89A115.56,115.56,0,0,1,299.34,344Zm0-221.73a105.88,105.88,0,1,0,74.9,31A105.57,105.57,0,0,0,299.34,122.27Z"/><path class="cls-1" d="M179.78,439.37c-19.9,0-40-10-59.85-29.88l-1.69-1.68c-20.42-20.42-30.66-41.34-30.45-62.18a62.42,62.42,0,0,1,17-41.94l40.56-40.56c-2.59-11.9-3.48-21-3.48-34.57,0-86.73,70.55-157.28,157.28-157.28A157.15,157.15,0,0,1,410,339.58a156.11,156.11,0,0,1-111.1,46.05h0a166.38,166.38,0,0,1-36.93-4l-39.57,39.58a60.49,60.49,0,0,1-40.86,18.13ZM299.13,81.28c-81.21,0-147.28,66.07-147.28,147.28a138.75,138.75,0,0,0,3.82,35,5,5,0,0,1-1.26,4.58l-1.61,1.67-.07.08-40.92,40.92-.07.07a53.1,53.1,0,0,0-13.95,35c-.12,18,9.13,36.45,27.52,54.84l1.69,1.68c18.34,18.35,36.59,27.39,54.1,26.93,20.85-.56,33.83-14.76,34-14.91l.2-.21L256,373.49l.44-.53a5,5,0,0,1,5-1.69,158.7,158.7,0,0,0,37.5,4.36h0A147.22,147.22,0,0,0,403.07,124.4,145.87,145.87,0,0,0,299.13,81.28Z"/><path class="cls-1" d="M361.79,170.1a5,5,0,0,1-3.54-8.53l14.34-14.34a5,5,0,1,1,7.07,7.07l-14.34,14.34A5,5,0,0,1,361.79,170.1Z"/><path class="cls-1" d="M221.74,310.15a5,5,0,0,1-3.53-1.47,5,5,0,0,1,0-7.07l14.34-14.34a5,5,0,1,1,7.07,7.07l-14.34,14.34A5,5,0,0,1,221.74,310.15Z"/><path class="cls-1" d="M375.29,310.15a5,5,0,0,1-3.54-1.47l-14.34-14.34a5,5,0,0,1,7.07-7.07l14.34,14.34a5,5,0,0,1-3.53,8.54Z"/><path class="cls-1" d="M235.24,170.1a5,5,0,0,1-3.53-1.46L217.37,154.3a5,5,0,1,1,7.07-7.07l14.34,14.34a5,5,0,0,1-3.54,8.53Z"/><path class="cls-1" d="M407,233H387a5,5,0,0,1,0-10h20a5,5,0,0,1,0,10Z"/><path class="cls-1" d="M209,233H188a5,5,0,0,1,0-10h21a5,5,0,0,1,0,10Z"/><path class="cls-1" d="M297,342a5,5,0,0,1-5-5V317a5,5,0,0,1,10,0v20A5,5,0,0,1,297,342Z"/><path class="cls-1" d="M297,143a5,5,0,0,1-5-5V118a5,5,0,0,1,10,0v20A5,5,0,0,1,297,143Z"/><path class="cls-1" d="M362.63,233.38h0L299.54,233a5,5,0,0,1,0-10h0l63.07.37a5,5,0,0,1,0,10Z"/><path class="cls-1" d="M55.47,460.18c-10.37,0-20-4.42-28.77-13.14-9.69-9.7-14.45-20.21-14.13-31.23.5-17.49,13.78-29.53,14.34-30a5,5,0,0,1,6.66,7.46c-.1.09-10.67,9.79-11,22.93-.21,8.14,3.57,16.15,11.21,23.8,7,7,14.6,10.45,22.55,10.2,15.31-.49,27.41-14.05,27.53-14.19l.22-.23L117.82,402a5,5,0,1,1,7.07,7.07L91.24,442.72c-1.54,1.71-15.72,16.84-34.6,17.44Z"/><path class="cls-1" d="M450.19,216.77a5,5,0,0,1-2.88-9.1c.39-.27,39.14-28,42.61-68.25,2.05-23.86-8.61-47.67-31.7-70.75S411.41,35,387.64,37.09C347.51,40.66,320,79.62,319.69,80a5,5,0,0,1-8.21-5.7c1.22-1.76,30.39-43.15,75.21-47.18,26.89-2.42,53.32,9.18,78.6,34.46s36.93,51.79,34.58,78.76c-3.91,44.92-45.06,74.27-46.81,75.5A5,5,0,0,1,450.19,216.77Z"/><path class="cls-1" d="M441.33,177.38a4.94,4.94,0,0,1-3.42-1.35,5,5,0,0,1-.23-7.07c16.18-17.26,28.77-44.54-3.15-76.46-15-15-30.42-21.49-45.74-19.19-13.21,2-24,10.07-30.74,16.51a5,5,0,0,1-6.91-7.22c13.46-12.89,49.23-38.41,90.46,2.83,17.29,17.29,24.74,35.48,22.14,54C461.53,155.31,452.32,168,445,175.8A5,5,0,0,1,441.33,177.38Z"/><path class="cls-1" d="M194.5,358.5A5,5,0,0,1,191,357l-25-25A5,5,0,0,1,173,325l25,25a5,5,0,0,1-3.54,8.54Z"/></svg>