<?xml version="1.0" ?><svg viewBox="0 0 512 512" xmlns="http://www.w3.org/2000/svg"><defs><style>.cls-1{fill:#3f456b;}</style></defs><title/><g id="Lines"><path class="cls-1" d="M166,437H90a15,15,0,0,1-15-15V240a4,4,0,0,1,0-.6s.45-4.75-2.32-7.81c-1.84-2.05-5-3.09-9.22-3.09h-.15L46.92,228A35,35,0,0,1,12,193V75c0-15.61,4.06-27.06,12.4-35C35.29,29.62,52.82,25.62,81.24,27l287,16A5,5,0,0,1,373,48V207a5,5,0,0,1-4.55,5c-1.54.14-154.18,14-175.37,16.49-12.45,1.44-12.28,9.37-12.11,10.95a5.49,5.49,0,0,1,0,.58V422A15,15,0,0,1,166,437ZM85,240.25V422a5,5,0,0,0,5,5h76a5,5,0,0,0,5-5V240.25a19.54,19.54,0,0,1,4-13.33c3.66-4.68,9.35-7.5,16.93-8.39,19.23-2.23,145.4-13.76,171.08-16.1V52.73L80.72,37c-25.09-1.22-40.8,2-49.42,10.24C25,53.19,22,62.27,22,75V193a25,25,0,0,0,25,25h.15l16.43.5c7.25,0,12.86,2.2,16.67,6.5C85.45,230.87,85.17,238.38,85,240.25ZM368,207h0Z"/><path class="cls-1" d="M137,468.06h0L117.56,468c-8.13,0-12.34-7.71-12.83-14.92L102,432.61a5,5,0,1,1,9.91-1.34l2.79,20.64c0,.13,0,.25,0,.38.06.91.83,5.7,2.89,5.71l19.43.06h0c2.17,0,3.12-5.06,3.19-5.82,0-.13,0-.25.05-.38l3.42-20.54a5,5,0,0,1,9.86,1.64l-3.39,20.37C149.45,460.47,145.06,468.06,137,468.06Z"/><path class="cls-1" d="M157,501c-10.23,0-18.46-3.2-24.43-9.51-10.61-11.18-9.83-28-9.8-28.73a5,5,0,0,1,10,.52h0c0,.14-.54,13.35,7.1,21.38,4,4.21,9.78,6.34,17.14,6.34,29,0,37.83-26.63,46.33-52.38,1.43-4.33,2.78-8.41,4.23-12.37a82.36,82.36,0,0,1,48-48.44c31.59-12.14,60.94-1.41,89.32,9,12.9,4.71,26.23,9.59,39.38,12.08,19,3.6,36.72,3.73,52.57.4,21-4.41,39.1-14.91,51.08-29.58a53.92,53.92,0,0,0,3.9-5.34,5,5,0,1,1,8.46,5.32,62.18,62.18,0,0,1-4.61,6.34c-13.42,16.43-33.58,28.17-56.77,33.05-17.15,3.6-36.16,3.48-56.49-.37-13.95-2.64-27.68-7.66-40.95-12.51-27.88-10.19-54.22-19.82-82.3-9A72.38,72.38,0,0,0,217,429.69c-1.39,3.81-2.72,7.82-4.12,12.06C204.11,468.15,193.26,501,157,501Z"/><path class="cls-1" d="M496,159.25H416a5,5,0,0,1,0-10h75V105.64H416a5,5,0,0,1,0-10h80a5,5,0,0,1,5,5v53.61A5,5,0,0,1,496,159.25Z"/><path class="cls-1" d="M464.5,105.64c-12.67,0-19.59-9.55-25.16-17.22-1-1.42-2-2.76-3-4A79,79,0,0,0,412.31,64c-11.46-6.3-25.64-9.78-44.62-11a5,5,0,1,1,.62-10c20.51,1.27,36,5.14,48.82,12.17a89.26,89.26,0,0,1,27.11,23.07c1.09,1.4,2.16,2.87,3.19,4.3,5.91,8.14,10,13.09,17.07,13.09a5,5,0,0,1,0,10Z"/><path class="cls-1" d="M368,212a5,5,0,0,1-.31-10c19-1.18,33.16-4.66,44.62-11a79,79,0,0,0,24.05-20.45c1-1.26,1.95-2.6,3-4,5.57-7.67,12.49-17.22,25.16-17.22a5,5,0,0,1,0,10c-7.06,0-11.16,4.95-17.07,13.09-1,1.43-2.1,2.9-3.19,4.3a89.26,89.26,0,0,1-27.11,23.07c-12.8,7-28.31,10.9-48.82,12.17Z"/><path class="cls-1" d="M49,228a5,5,0,0,1-5-5V34a5,5,0,0,1,10,0V223A5,5,0,0,1,49,228Z"/><path class="cls-1" d="M185,308h-9a5,5,0,0,1,0-10h9a5,5,0,0,0,5-5V265a5,5,0,0,0-5-5h-9a5,5,0,0,1,0-10h9a15,15,0,0,1,15,15v28A15,15,0,0,1,185,308Z"/><path class="cls-1" d="M185,378h-9a5,5,0,0,1,0-10h9a5,5,0,0,0,5-5V335a5,5,0,0,0-5-5h-9a5,5,0,0,1,0-10h9a15,15,0,0,1,15,15v28A15,15,0,0,1,185,378Z"/></g><g id="Outline"><path class="cls-1" d="M192,77h-.89a5,5,0,0,1,0-10H192a5,5,0,0,1,0,10Z"/><path class="cls-1" d="M192,106h-.89a5,5,0,0,1,0-10H192a5,5,0,0,1,0,10Z"/><path class="cls-1" d="M192,135h-.89a5,5,0,0,1,0-10H192a5,5,0,0,1,0,10Z"/><path class="cls-1" d="M192,164h-.89a5,5,0,0,1,0-10H192a5,5,0,0,1,0,10Z"/><path class="cls-1" d="M192,193h-.89a5,5,0,0,1,0-10H192a5,5,0,0,1,0,10Z"/><path class="cls-1" d="M164.47,77h-.89a5,5,0,0,1,0-10h.89a5,5,0,0,1,0,10Z"/><path class="cls-1" d="M164.47,106h-.89a5,5,0,0,1,0-10h.89a5,5,0,1,1,0,10Z"/><path class="cls-1" d="M164.47,135h-.89a5,5,0,0,1,0-10h.89a5,5,0,1,1,0,10Z"/><path class="cls-1" d="M164.47,164h-.89a5,5,0,0,1,0-10h.89a5,5,0,1,1,0,10Z"/><path class="cls-1" d="M164.47,193h-.89a5,5,0,0,1,0-10h.89a5,5,0,1,1,0,10Z"/><path class="cls-1" d="M137,77h-.9a5,5,0,0,1,0-10h.9a5,5,0,0,1,0,10Z"/><path class="cls-1" d="M137,106h-.9a5,5,0,0,1,0-10h.9a5,5,0,0,1,0,10Z"/><path class="cls-1" d="M137,135h-.9a5,5,0,0,1,0-10h.9a5,5,0,0,1,0,10Z"/><path class="cls-1" d="M137,164h-.9a5,5,0,0,1,0-10h.9a5,5,0,0,1,0,10Z"/><path class="cls-1" d="M137,193h-.9a5,5,0,0,1,0-10h.9a5,5,0,0,1,0,10Z"/><path class="cls-1" d="M109.42,77h-.89a5,5,0,0,1,0-10h.89a5,5,0,1,1,0,10Z"/><path class="cls-1" d="M109.42,106h-.89a5,5,0,0,1,0-10h.89a5,5,0,1,1,0,10Z"/><path class="cls-1" d="M109.42,135h-.89a5,5,0,0,1,0-10h.89a5,5,0,1,1,0,10Z"/><path class="cls-1" d="M109.42,164h-.89a5,5,0,1,1,0-10h.89a5,5,0,1,1,0,10Z"/><path class="cls-1" d="M109.42,193h-.89a5,5,0,1,1,0-10h.89a5,5,0,1,1,0,10Z"/><path class="cls-1" d="M81.89,77H81a5,5,0,0,1,0-10h.89a5,5,0,0,1,0,10Z"/><path class="cls-1" d="M81.89,106H81a5,5,0,0,1,0-10h.89a5,5,0,0,1,0,10Z"/><path class="cls-1" d="M81.89,135H81a5,5,0,0,1,0-10h.89a5,5,0,0,1,0,10Z"/><path class="cls-1" d="M81.89,164H81a5,5,0,0,1,0-10h.89a5,5,0,0,1,0,10Z"/><path class="cls-1" d="M81.89,193H81a5,5,0,0,1,0-10h.89a5,5,0,0,1,0,10Z"/></g></svg>