<?xml version="1.0" ?><svg viewBox="0 0 512 512" xmlns="http://www.w3.org/2000/svg"><defs><style>.cls-1{fill:#3f456b;}</style></defs><title/><g id="Lines"><path class="cls-1" d="M53.44,324.92a17,17,0,0,1-11.1-4.36c-7.19-6.22-10.84-18.12-10.84-35.38,0-24.54,12.37-44.52,31.52-50.89a46.27,46.27,0,0,1,41,6.17c9.07,6.54,19.88,19.6,19.88,44.72,0,16.74-3.58,28.48-10.63,34.88-5.82,5.28-11.81,4.86-12.48,4.8l1-9.95h-.14a7.77,7.77,0,0,0,5.19-2.49c3.24-3.13,7.09-10.39,7.09-27.23,0-16.53-5.44-29.19-15.73-36.61a36.12,36.12,0,0,0-32-4.8C48,249.84,41.5,269.87,41.5,285.18c0,18.27,4.46,25.13,7.13,27.59a7,7,0,0,0,4.92,2.15l-.15,0,1.44,9.89A8.86,8.86,0,0,1,53.44,324.92Z"/><path class="cls-1" d="M236,357a5,5,0,0,1-5-5V291a5,5,0,0,1,10,0v61A5,5,0,0,1,236,357Z"/><path class="cls-1" d="M249,308a5,5,0,0,1-2.54-.69c-1-.56-23.14-14-27.41-45.34a5,5,0,1,1,9.9-1.35c2.76,20.22,14.12,31.55,19.62,35.94l19-17.72a5,5,0,1,1,6.82,7.32l-22,20.5A5,5,0,0,1,249,308Z"/><path class="cls-1" d="M306,357a5,5,0,0,1-5-5V291a5,5,0,0,1,10,0v61A5,5,0,0,1,306,357Z"/><path class="cls-1" d="M293,308a5,5,0,0,1-3.41-1.34l-22-20.5a5,5,0,0,1,6.82-7.32l19,17.72c5.49-4.38,16.85-15.71,19.62-35.94A5,5,0,1,1,323,262c-4.27,31.34-26.46,44.78-27.41,45.34A5.05,5.05,0,0,1,293,308Z"/><path class="cls-1" d="M496,502H16a5,5,0,0,1-5-5V353a5,5,0,0,1,5-5H496a5,5,0,0,1,5,5V497A5,5,0,0,1,496,502ZM21,492H491V358H21Z"/><path class="cls-1" d="M464,470H16a5,5,0,0,1-5-5V353a5,5,0,0,1,5-5H464a5,5,0,0,1,5,5V465A5,5,0,0,1,464,470ZM21,460H459V358H21Z"/><path class="cls-1" d="M496,358a5,5,0,0,1-5-5V22H149.82V353a5,5,0,0,1-10,0V17a5,5,0,0,1,5-5H496a5,5,0,0,1,5,5V353A5,5,0,0,1,496,358Z"/><path class="cls-1" d="M271,284.11a76.08,76.08,0,0,1-75.95-76V186l-.06-1.84a1.09,1.09,0,0,1,0-.18,77.11,77.11,0,0,1,25.69-57L224,130.7,220.68,127c29.18-26.33,64.31-17.89,67-17.19A76,76,0,0,1,346.93,184l0,2.12.05,21.95A76.1,76.1,0,0,1,271,284.11Zm-66-100.2.07,1.84v22.32a66,66,0,1,0,131.94,0l-.07-24a66,66,0,0,0-51.52-64.5l-.21-.05c-1.29-.34-32.24-8.16-57.82,14.93A66.21,66.21,0,0,0,205,183.91Z"/><path class="cls-1" d="M198,218a20.54,20.54,0,0,1-9.48-2.66c-4.34-2.48-9.52-7.68-9.52-18.34s5.13-15.85,9.42-18.33a20.28,20.28,0,0,1,9.43-2.67,5,5,0,0,1,.05,10c-2.1.05-8.9,1-8.9,11,0,4.78,1.47,7.94,4.48,9.66A10.87,10.87,0,0,0,198,208a5,5,0,0,1,0,10Z"/><path class="cls-1" d="M343,218a5,5,0,0,1,0-10c9.52-.17,10-9.19,10-11,0-4.72-1.57-7.86-4.79-9.6a12.67,12.67,0,0,0-5-1.4,5,5,0,0,1,0-10c8,0,19.84,5.59,19.84,21S351,218,343,218Z"/><path class="cls-1" d="M225.5,185.27a136.32,136.32,0,0,1-26.3-2.42,5,5,0,1,1,2.1-9.78h0c.58.13,58.11,11.94,84.81-21.21a5,5,0,0,1,8.46,1.12c.55,1.21,13.78,29.8,45.67,20.24a5,5,0,1,1,2.87,9.58c-29.86,8.95-47-9.17-54-19.42C276.3,176,257.6,183.45,234.58,185,231.44,185.18,228.39,185.27,225.5,185.27Z"/><path class="cls-1" d="M175,357a5,5,0,0,1-5-5V304c0-38.08,36.8-61.28,38.37-62.25a5,5,0,0,1,5.27,8.5h0c-.34.21-33.64,21.3-33.64,53.75v48A5,5,0,0,1,175,357Z"/><path class="cls-1" d="M367,358a5,5,0,0,1-5-5V304c0-32.45-33.3-53.54-33.64-53.75a5,5,0,0,1,5.27-8.5c1.57,1,38.37,24.17,38.37,62.25v49A5,5,0,0,1,367,358Z"/><path class="cls-1" d="M336,358a5,5,0,0,1-5-5V305a5,5,0,0,1,10,0v48A5,5,0,0,1,336,358Z"/><path class="cls-1" d="M208,358a5,5,0,0,1-5-5V305a5,5,0,0,1,10,0v48A5,5,0,0,1,208,358Z"/><path class="cls-1" d="M239,202h-1a5,5,0,0,1,0-10h1a5,5,0,0,1,0,10Z"/><path class="cls-1" d="M303,202h-1a5,5,0,0,1,0-10h1a5,5,0,0,1,0,10Z"/><path class="cls-1" d="M256,358a4.44,4.44,0,0,1-.63,0,5,5,0,0,1-4.34-5.58L256,312.81l-2.88-17a5,5,0,1,1,9.86-1.68l3,17.7a5,5,0,0,1,0,1.45l-5,40.31A5,5,0,0,1,256,358Z"/><path class="cls-1" d="M285,358a5,5,0,0,1-4.95-4.38l-5-40.31a5,5,0,0,1,0-1.45l3-17.7a5,5,0,1,1,9.86,1.68l-2.87,17L290,352.38a5,5,0,0,1-4.34,5.58A4.44,4.44,0,0,1,285,358Z"/><path class="cls-1" d="M280,318H261a5,5,0,0,1,0-10h19a5,5,0,0,1,0,10Z"/><path class="cls-1" d="M42.23,358a5,5,0,0,1-4.33-2.5A76.64,76.64,0,0,1,29.12,320a5,5,0,0,1,5-5h88.74a5,5,0,0,1,5,4.72c.05,1,1.2,24.1-9,36.47a5,5,0,1,1-7.69-6.38c5.07-6.13,6.53-17.54,6.77-24.81H39.32a66.48,66.48,0,0,0,7.23,25.5,5,5,0,0,1-4.32,7.5Z"/><path class="cls-1" d="M470,294.34H390a5,5,0,0,1-4.84-6.25l16-62.33A5,5,0,0,1,406,222h48a5,5,0,0,1,4.84,3.76l16,62.33a5,5,0,0,1-4.84,6.25Zm-73.55-10h67.1L450.12,232H409.88Z"/><path class="cls-1" d="M430,341a5,5,0,0,1-5-5V289.34a5,5,0,1,1,10,0V336A5,5,0,0,1,430,341Z"/><path class="cls-1" d="M454,316.88a5,5,0,0,1-5-5V289.34a5,5,0,1,1,10,0v22.54A5,5,0,0,1,454,316.88Z"/><path class="cls-1" d="M455,358a5,5,0,0,1-5-5V341H411v12a5,5,0,0,1-10,0V336a5,5,0,0,1,5-5h49a5,5,0,0,1,5,5v17A5,5,0,0,1,455,358Z"/><path class="cls-1" d="M16,366a5,5,0,0,1-5-5V192a5,5,0,0,1,5-5H44.5V159a5,5,0,0,1,5-5H76V127a5,5,0,0,1,5-5h27V95a5,5,0,0,1,5-5h32a5,5,0,0,1,0,10H118v27a5,5,0,0,1-5,5H86v27a5,5,0,0,1-5,5H54.5v28a5,5,0,0,1-5,5H21V361A5,5,0,0,1,16,366Z"/></g><g id="Outline"><path class="cls-1" d="M463,61H342a5,5,0,0,1,0-10H463a5,5,0,0,1,0,10Z"/><path class="cls-1" d="M463,84.33H342a5,5,0,0,1,0-10H463a5,5,0,0,1,0,10Z"/><path class="cls-1" d="M463,107.67H342a5,5,0,0,1,0-10H463a5,5,0,0,1,0,10Z"/><path class="cls-1" d="M463,131H402a5,5,0,0,1,0-10h61a5,5,0,0,1,0,10Z"/><path class="cls-1" d="M382,470a5,5,0,0,1-5-5V353a5,5,0,0,1,10,0V465A5,5,0,0,1,382,470Z"/><path class="cls-1" d="M290.66,470a5,5,0,0,1-5-5V353a5,5,0,0,1,10,0V465A5,5,0,0,1,290.66,470Z"/><path class="cls-1" d="M199.33,470a5,5,0,0,1-5-5V353a5,5,0,0,1,10,0V465A5,5,0,0,1,199.33,470Z"/><path class="cls-1" d="M108,470a5,5,0,0,1-5-5V353a5,5,0,0,1,10,0V465A5,5,0,0,1,108,470Z"/></g></svg>