<?xml version="1.0" ?><svg viewBox="0 0 512 512" xmlns="http://www.w3.org/2000/svg"><defs><style>.cls-1{fill:#3f456b;}</style></defs><title/><g id="Lines"><path class="cls-1" d="M481,501H127a5,5,0,0,1,0-10H476V335.52a5,5,0,0,1,10,0V496A5,5,0,0,1,481,501Z"/><path class="cls-1" d="M32.5,442.17a5,5,0,0,1-5-5V335a5,5,0,0,1,10,0V437.17A5,5,0,0,1,32.5,442.17Z"/><path class="cls-1" d="M45.5,195.85a5,5,0,0,1-5-5V127a5,5,0,0,1,5-5H153.83a5,5,0,1,1,0,10H50.5v58.85A5,5,0,0,1,45.5,195.85Z"/><path class="cls-1" d="M468,196a5,5,0,0,1-5-5V132H358a5,5,0,0,1,0-10H468a5,5,0,0,1,5,5v64A5,5,0,0,1,468,196Z"/><path class="cls-1" d="M475.2,340a26.8,26.8,0,0,1-26.8-26.74,5,5,0,0,1,10,0,16.8,16.8,0,1,0,33.6-.17V223c0-.16,0-.31,0-.47s.89-11.45-6.13-19.1C481.37,198.5,474.33,196,465,196H49c-9.33,0-16.36,2.5-20.89,7.43-7,7.65-6.14,19-6.13,19.12s0,.31,0,.45v80l0,10.25a16.81,16.81,0,1,0,33.61-.16,5,5,0,0,1,10,0,26.81,26.81,0,1,1-53.61.17L12,303V223.19c-.15-2.19-.72-16.13,8.66-26.43C27.16,189.62,36.7,186,49,186H465c12.3,0,21.84,3.62,28.34,10.76,9.38,10.3,8.81,24.24,8.66,26.43v89.9A26.88,26.88,0,0,1,475.2,340Z"/><path class="cls-1" d="M82.47,340a26.8,26.8,0,0,1-26.8-26.74,5,5,0,0,1,10,0,16.81,16.81,0,1,0,33.61-.17,5,5,0,0,1,10,0A26.89,26.89,0,0,1,82.47,340Z"/><path class="cls-1" d="M126.11,340a26.8,26.8,0,0,1-26.8-26.74,5,5,0,0,1,10,0,16.8,16.8,0,1,0,33.6-.17,5,5,0,0,1,10,0A26.88,26.88,0,0,1,126.11,340Z"/><path class="cls-1" d="M169.75,340a26.8,26.8,0,0,1-26.81-26.74,5,5,0,0,1,10,0,16.81,16.81,0,1,0,33.61-.17,5,5,0,0,1,10,0A26.89,26.89,0,0,1,169.75,340Z"/><path class="cls-1" d="M213.38,340a26.8,26.8,0,0,1-26.8-26.74,5,5,0,0,1,10,0,16.8,16.8,0,1,0,33.6-.17,5,5,0,0,1,10,0A26.88,26.88,0,0,1,213.38,340Z"/><path class="cls-1" d="M257,340a26.8,26.8,0,0,1-26.81-26.74,5,5,0,0,1,10,0,16.81,16.81,0,1,0,33.61-.17,5,5,0,0,1,10,0A26.88,26.88,0,0,1,257,340Z"/><path class="cls-1" d="M300.65,340a26.8,26.8,0,0,1-26.8-26.74,5,5,0,0,1,10,0,16.81,16.81,0,1,0,33.61-.17,5,5,0,0,1,10,0A26.89,26.89,0,0,1,300.65,340Z"/><path class="cls-1" d="M344.29,340a26.8,26.8,0,0,1-26.8-26.74,5,5,0,0,1,10,0,16.8,16.8,0,1,0,33.6-.17,5,5,0,0,1,10,0A26.88,26.88,0,0,1,344.29,340Z"/><path class="cls-1" d="M387.93,340a26.8,26.8,0,0,1-26.81-26.74,5,5,0,0,1,10,0,16.81,16.81,0,1,0,33.61-.17,5,5,0,1,1,10,0A26.89,26.89,0,0,1,387.93,340Z"/><path class="cls-1" d="M431.56,340a26.8,26.8,0,0,1-26.8-26.74,5,5,0,0,1,10,0,16.8,16.8,0,1,0,33.6-.17,5,5,0,0,1,10,0A26.88,26.88,0,0,1,431.56,340Z"/><path class="cls-1" d="M64,420a5,5,0,0,1-5-5V326a5,5,0,0,1,10,0v89A5,5,0,0,1,64,420Z"/><path class="cls-1" d="M449,501a5,5,0,0,1-5-5V326a5,5,0,0,1,10,0V496A5,5,0,0,1,449,501Z"/><path class="cls-1" d="M209,436H99a5,5,0,0,1,0-10H209a5,5,0,0,1,0,10Z"/><path class="cls-1" d="M336,436H305a5,5,0,0,1,0-10h31a5,5,0,0,1,0,10Z"/><path class="cls-1" d="M449,436H401a5,5,0,0,1,0-10h48a5,5,0,0,1,0,10Z"/><path class="cls-1" d="M305,501H209a5,5,0,0,1-5-5V335a5,5,0,0,1,10,0V491h86V335a5,5,0,0,1,10,0V496A5,5,0,0,1,305,501Z"/><path class="cls-1" d="M362.58,92.47H149.71A14.7,14.7,0,0,1,135,77.79V65.21a14.69,14.69,0,0,1,14.68-14.67H362.58a14.69,14.69,0,0,1,14.68,14.67V77.79A14.7,14.7,0,0,1,362.58,92.47ZM149.71,60.54A4.68,4.68,0,0,0,145,65.21V77.79a4.69,4.69,0,0,0,4.68,4.68H362.58a4.69,4.69,0,0,0,4.68-4.68V65.21a4.68,4.68,0,0,0-4.68-4.67Z"/><path class="cls-1" d="M348.07,196H165.19a14.7,14.7,0,0,1-14.68-14.68V87.47a5,5,0,0,1,10,0v93.85a4.69,4.69,0,0,0,4.68,4.68H348.07a4.68,4.68,0,0,0,4.67-4.68V87.47a5,5,0,0,1,10,0v93.85A14.69,14.69,0,0,1,348.07,196Z"/><path class="cls-1" d="M323.88,171.81a5,5,0,0,1-5-5V109.72a5,5,0,0,1,10,0v57.09A5,5,0,0,1,323.88,171.81Z"/><path class="cls-1" d="M188.41,171.81a5,5,0,0,1-5-5V109.72a5,5,0,0,1,10,0v57.09A5,5,0,0,1,188.41,171.81Z"/><path class="cls-1" d="M233.89,171.81a5,5,0,0,1-5-5V109.72a5,5,0,0,1,10,0v57.09A5,5,0,0,1,233.89,171.81Z"/><path class="cls-1" d="M278.4,171.81a5,5,0,0,1-5-5V109.72a5,5,0,0,1,10,0v57.09A5,5,0,0,1,278.4,171.81Z"/><path class="cls-1" d="M171.48,60.05a5,5,0,0,1-3-9L230.41,4.61a5,5,0,1,1,6,8L174.48,59.05A4.94,4.94,0,0,1,171.48,60.05Z"/><path class="cls-1" d="M341.77,60.05a4.93,4.93,0,0,1-3-1L276.85,12.61a5,5,0,1,1,6-8l61.93,46.44a5,5,0,0,1-3,9Z"/><path class="cls-1" d="M283,415a5,5,0,0,1-5-5V388a5,5,0,0,1,10,0v22A5,5,0,0,1,283,415Z"/><path class="cls-1" d="M105,100H57a5,5,0,0,1-5-5V63a5,5,0,0,1,5-5h48a5,5,0,0,1,5,5V95A5,5,0,0,1,105,100ZM62,90h38V68H62Z"/><path class="cls-1" d="M81,132a5,5,0,0,1-5-5V95a5,5,0,0,1,10,0v32A5,5,0,0,1,81,132Z"/><path class="cls-1" d="M456,100H408a5,5,0,0,1-5-5V63a5,5,0,0,1,5-5h48a5,5,0,0,1,5,5V95A5,5,0,0,1,456,100ZM413,90h38V68H413Z"/><path class="cls-1" d="M432,132a5,5,0,0,1-5-5V95a5,5,0,0,1,10,0v32A5,5,0,0,1,432,132Z"/><path class="cls-1" d="M16,469a5,5,0,0,1-4.92-4.14c-.09-.54-2.19-13.17,4.74-22.25A21.7,21.7,0,0,1,29,434.56c3.63-11.14,15.76-27,42.45-24.54,22.85,2.08,32.76,17.4,35.68,27.89a37.3,37.3,0,0,1,9.91,2.77c9.65,4.31,15,12.59,15,23.32a5,5,0,0,1-10,0c0-6.83-3-11.48-9-14.19a28,28,0,0,0-10-2.25,5,5,0,0,1-5-4.38c-.11-.83-3.14-21-27.49-23.2-11.79-1.07-20.82,1.89-26.84,8.81a27,27,0,0,0-5.8,11.15,5,5,0,0,1-4.44,4c-4.44.42-7.62,2-9.71,4.7-4.24,5.55-2.85,14.38-2.83,14.46a5,5,0,0,1-4.07,5.79A5.1,5.1,0,0,1,16,469Z"/><path class="cls-1" d="M127,501H16a5,5,0,0,1-5-5V464a5,5,0,0,1,5-5H127a5,5,0,0,1,5,5v32A5,5,0,0,1,127,501ZM21,491H122V469H21Z"/><path class="cls-1" d="M400,468H336a5,5,0,0,1-5-5V399a5,5,0,0,1,5-5h64a5,5,0,0,1,5,5v64A5,5,0,0,1,400,468Zm-59-10h54V404H341Z"/><path class="cls-1" d="M336,501a5,5,0,0,1-5-5V458a5,5,0,0,1,10,0v38A5,5,0,0,1,336,501Z"/><path class="cls-1" d="M400,501a5,5,0,0,1-5-5V458a5,5,0,0,1,10,0v38A5,5,0,0,1,400,501Z"/><path class="cls-1" d="M64,148H63a5,5,0,0,1,0-10h1a5,5,0,0,1,0,10Z"/><path class="cls-1" d="M64,180H63a5,5,0,0,1,0-10h1a5,5,0,0,1,0,10Z"/><path class="cls-1" d="M450,148h-1a5,5,0,0,1,0-10h1a5,5,0,0,1,0,10Z"/><path class="cls-1" d="M450,180h-1a5,5,0,0,1,0-10h1a5,5,0,0,1,0,10Z"/></g><g id="Outline"><path class="cls-1" d="M458,293h-1a5,5,0,0,1,0-10h1a5,5,0,0,1,0,10Zm-21,0h-1a5,5,0,0,1,0-10h1a5,5,0,0,1,0,10Zm-21,0h-1a5,5,0,0,1,0-10h1a5,5,0,0,1,0,10Zm-21,0h-1a5,5,0,0,1,0-10h1a5,5,0,0,1,0,10Zm-21,0h-1a5,5,0,0,1,0-10h1a5,5,0,0,1,0,10Zm-21,0h-1a5,5,0,0,1,0-10h1a5,5,0,0,1,0,10Zm-21,0h-1a5,5,0,0,1,0-10h1a5,5,0,0,1,0,10Zm-21,0h-1a5,5,0,0,1,0-10h1a5,5,0,0,1,0,10Zm-21,0h-1a5,5,0,0,1,0-10h1a5,5,0,0,1,0,10Zm-21,0h-1a5,5,0,0,1,0-10h1a5,5,0,0,1,0,10Zm-21,0h-1a5,5,0,0,1,0-10h1a5,5,0,0,1,0,10Zm-21,0h-1a5,5,0,0,1,0-10h1a5,5,0,0,1,0,10Zm-21,0h-1a5,5,0,0,1,0-10h1a5,5,0,0,1,0,10Zm-21,0h-1a5,5,0,0,1,0-10h1a5,5,0,0,1,0,10Zm-21,0h-1a5,5,0,0,1,0-10h1a5,5,0,0,1,0,10Zm-21,0h-1a5,5,0,0,1,0-10h1a5,5,0,0,1,0,10Zm-21,0h-1a5,5,0,0,1,0-10h1a5,5,0,0,1,0,10Zm-21,0h-1a5,5,0,0,1,0-10h1a5,5,0,0,1,0,10Zm-21,0H79a5,5,0,0,1,0-10h1a5,5,0,0,1,0,10Zm-21,0H58a5,5,0,0,1,0-10h1a5,5,0,0,1,0,10Zm-21,0H37a5,5,0,0,1,0-10h1a5,5,0,0,1,0,10Z"/><path class="cls-1" d="M416,164H358a5,5,0,0,1,0-10h58a5,5,0,0,1,0,10Z"/><path class="cls-1" d="M155,164H97a5,5,0,0,1,0-10h58a5,5,0,0,1,0,10Z"/><path class="cls-1" d="M379,426H357a5,5,0,0,1,0-10h22a5,5,0,0,1,0,10Z"/><path class="cls-1" d="M379,447H357a5,5,0,0,1,0-10h22a5,5,0,0,1,0,10Z"/><path class="cls-1" d="M132.12,264a5.09,5.09,0,0,1-2.14-.48,5,5,0,0,1-2.37-6.67c5.94-12.52,15.26-20,26.23-21,10.74-1,18.51,4.65,25.37,9.63,4.54,3.3,8.82,6.41,13.65,7.59a21.26,21.26,0,0,0,12.35-.59,32.07,32.07,0,0,1-3.35-3c-6.32-6.54-8.57-14.86-6.17-22.82,2.77-9.18,9.09-15.38,16.9-16.59A17.67,17.67,0,0,1,230,217.56c4.87,7.13,4.39,16.9-1.34,26.79a44,44,0,0,1-4.26,6.12c7.28,1.71,16.47,1.84,27.24-1,6.13-1.62,11.66-4.65,16.27-7.39,2.29-1.37,4.48-3,6.8-4.69a79.41,79.41,0,0,1,9.52-6.32c14.14-7.57,26.5-6.16,34.8,4l1.18,1.45c4,4.89,7.4,9.12,12.73,11.19,7.92,3.07,17.77,1.73,31-4.22a5,5,0,1,1,4.1,9.12c-10,4.48-24.82,9.82-38.72,4.42-7.8-3-12.42-8.72-16.88-14.21l-1.15-1.42c-1.89-2.31-7.65-9.35-22.34-1.48a69.47,69.47,0,0,0-8.31,5.55c-2.41,1.77-4.9,3.61-7.61,5.23a74.31,74.31,0,0,1-18.82,8.47c-13.85,3.68-27.59,3.21-38.49-.88a32,32,0,0,1-25.24,4.49c-6.75-1.64-12-5.49-17.16-9.21-6.21-4.51-11.58-8.41-18.56-7.76-9.87.92-15.6,10-18.13,15.34A5,5,0,0,1,132.12,264Zm83.22-44.16a8.35,8.35,0,0,0-1.22.09c-4,.62-7.2,4.11-8.86,9.6-1.72,5.71,1.11,10.21,3.79,13a24.43,24.43,0,0,0,5.34,4.1,33,33,0,0,0,5.62-7.23c3.73-6.43,4.36-12.31,1.74-16.14A7.72,7.72,0,0,0,215.34,219.8Z"/></g></svg>