<?xml version="1.0" ?><svg viewBox="0 0 512 512" xmlns="http://www.w3.org/2000/svg"><defs><style>.cls-1{fill:#3f456b;}</style></defs><title/><g id="Lines"><path class="cls-1" d="M29.66,201a5,5,0,1,1,0-10C45.12,191,57,186.59,65,177.88,78.72,163,77,140.14,77,139.91s0-.29,0-.42V74a5,5,0,0,1,10,0v65.29c.21,2.88,1.5,27.84-14.52,45.3C62.46,195.48,48.07,201,29.66,201Z"/><path class="cls-1" d="M485.31,201c-18.4,0-32.8-5.52-42.79-16.41-16-17.46-14.73-42.42-14.52-45.3V74a5,5,0,0,1,10,0v65.49c0,.14,0,.28,0,.43s-1.73,23.1,12,38c8,8.71,19.91,13.12,35.37,13.12a5,5,0,0,1,0,10Z"/><g data-name="&lt;编组&gt;" id="_编组_"><path class="cls-1" d="M337.5,76.12H179.58a5,5,0,0,1,0-10H337.5a5,5,0,0,1,0,10Z"/><path class="cls-1" d="M486.07,76.12H371.67a5,5,0,0,1,0-10h109.4V20H33V66.12H145.17a5,5,0,0,1,0,10H28a5,5,0,0,1-5-5V15a5,5,0,0,1,5-5H486.07a5,5,0,0,1,5,5V71.12A5,5,0,0,1,486.07,76.12Z"/></g><path class="cls-1" d="M227,501H33a5,5,0,0,1-5-4.94l-5-425A5,5,0,0,1,27.94,66H28a5,5,0,0,1,5,4.94L37.94,491h184.6L253,222.44a5,5,0,1,1,9.94,1.12l-31,273A5,5,0,0,1,227,501Z"/><path class="cls-1" d="M486,501H287a5,5,0,0,1-5-4.47l-29-273a4.67,4.67,0,0,1,0-.52l-.24-208a5,5,0,0,1,5-5h0a5,5,0,0,1,5,5L263,222.73,291.5,491H481V71a5,5,0,0,1,10,0V496A5,5,0,0,1,486,501Z"/><path class="cls-1" d="M371,98.91H338a5,5,0,0,1-5-5V16a5,5,0,0,1,10,0V88.91h23V16a5,5,0,0,1,10,0V93.91A5,5,0,0,1,371,98.91Z"/><path class="cls-1" d="M179,98.91H145.89a5,5,0,0,1-5-5V16a5,5,0,0,1,10,0V88.91H174V16a5,5,0,0,1,10,0V93.91A5,5,0,0,1,179,98.91Z"/><path class="cls-1" d="M283.24,49a5,5,0,0,1-5-5V42.85a5,5,0,0,1,10,0V44A5,5,0,0,1,283.24,49Z"/><path class="cls-1" d="M144,404H32.5a5,5,0,0,1,0-10H139V260.5H30.17a5,5,0,0,1,0-10H144a5,5,0,0,1,5,5V399A5,5,0,0,1,144,404Z"/><path class="cls-1" d="M144,308.5H30.74a5,5,0,0,1,0-10H144a5,5,0,0,1,0,10Z"/><path class="cls-1" d="M483.67,404H372.17a5,5,0,0,1-5-5V255.5a5,5,0,0,1,5-5H486a5,5,0,0,1,0,10H377.17V394h106.5a5,5,0,1,1,0,10Z"/><path class="cls-1" d="M485.44,308.5H372.17a5,5,0,0,1,0-10H485.44a5,5,0,1,1,0,10Z"/></g><g id="Outline"><path class="cls-1" d="M64,499a5,5,0,0,1-5-5v-3a5,5,0,0,1,10,0v3A5,5,0,0,1,64,499Zm0-23a5,5,0,0,1-5-5v-3a5,5,0,0,1,10,0v3A5,5,0,0,1,64,476Zm0-23a5,5,0,0,1-5-5v-3a5,5,0,0,1,10,0v3A5,5,0,0,1,64,453Zm0-23a5,5,0,0,1-5-5v-3a5,5,0,0,1,10,0v3A5,5,0,0,1,64,430Zm0-23a5,5,0,0,1-5-5v-3a5,5,0,0,1,10,0v3A5,5,0,0,1,64,407Z"/><path class="cls-1" d="M449,499a5,5,0,0,1-5-5v-3a5,5,0,0,1,10,0v3A5,5,0,0,1,449,499Zm0-23a5,5,0,0,1-5-5v-3a5,5,0,0,1,10,0v3A5,5,0,0,1,449,476Zm0-23a5,5,0,0,1-5-5v-3a5,5,0,0,1,10,0v3A5,5,0,0,1,449,453Zm0-23a5,5,0,0,1-5-5v-3a5,5,0,0,1,10,0v3A5,5,0,0,1,449,430Zm0-23a5,5,0,0,1-5-5v-3a5,5,0,0,1,10,0v3A5,5,0,0,1,449,407Z"/><path class="cls-1" d="M64,251a5,5,0,0,1-5-5v-3a5,5,0,0,1,10,0v3A5,5,0,0,1,64,251Zm0-23a5,5,0,0,1-5-5v-3a5,5,0,0,1,10,0v3A5,5,0,0,1,64,228Zm0-23a5,5,0,0,1-5-5v-3a5,5,0,0,1,10,0v3A5,5,0,0,1,64,205Z"/><path class="cls-1" d="M449,251a5,5,0,0,1-5-5v-3a5,5,0,0,1,10,0v3A5,5,0,0,1,449,251Zm0-23a5,5,0,0,1-5-5v-3a5,5,0,0,1,10,0v3A5,5,0,0,1,449,228Zm0-23a5,5,0,0,1-5-5v-3a5,5,0,0,1,10,0v3A5,5,0,0,1,449,205Z"/><path class="cls-1" d="M265.68,213a48.18,48.18,0,0,1-8.51-.68,5,5,0,0,1,1.85-9.82c.24,0,17.28,3,28.6-6.39,7.07-5.89,10.66-15.62,10.66-28.91V71a5,5,0,0,1,10,0v96.18c0,16.44-4.82,28.78-14.33,36.65C284.74,211.45,273.33,213,265.68,213Z"/></g></svg>