<?xml version="1.0" ?><svg viewBox="0 0 512 512" xmlns="http://www.w3.org/2000/svg"><defs><style>.cls-1{fill:#3f456b;}</style></defs><title/><g id="Lines"><path class="cls-1" d="M496,139H401.26c-8.46,0-15.26-2.62-20.23-7.79-8.11-8.43-8.07-20.65-8-22.09V17h10v92.39c0,.07-.22,9.27,5.28,14.93,3,3.11,7.38,4.68,13,4.68H496Z"/><path class="cls-1" d="M469.68,469H271a5,5,0,0,1,0-10H469.68c11.75,0,21.32-10.6,21.32-23.62V136.62c0-11.37-10.55-24.31-14.62-28.33-.67-.68-62.23-63.27-75-76.09A38.8,38.8,0,0,0,375.68,21H156.05A23.34,23.34,0,0,0,133,44V229a5,5,0,0,1-10,0V44c0-17.89,15.13-33,33.05-33H375.59a48.78,48.78,0,0,1,32.82,14.13c12.84,12.85,74.43,75.47,75,76.1S501,118.8,501,136.62V435.38C501,453.92,487,469,469.68,469Z"/><path class="cls-1" d="M302.53,233.88H17a5,5,0,0,1,0-10H302.53a5,5,0,0,1,0,10Z"/><path class="cls-1" d="M267.55,504h-215a5,5,0,0,1-5-4.64L28,229.8a5,5,0,1,1,10-.73L57.24,494H262.9l19.56-264.31a5,5,0,0,1,10,.74l-19.9,268.94A5,5,0,0,1,267.55,504Z"/><path class="cls-1" d="M236.36,233.88a5,5,0,0,1-5-5V207.17c0-5.9-6.57-9.55-12.66-9.55H100.45c-6,0-12.28,3.58-12.28,9.55v21.71a5,5,0,0,1-10,0V207.17c0-11,9.79-19.55,22.28-19.55H218.7c11.14,0,22.66,7.32,22.66,19.55v21.71A5,5,0,0,1,236.36,233.88Z"/><path class="cls-1" d="M162.94,464.12a5,5,0,0,1-5-5V268.76a5,5,0,0,1,10,0V459.12A5,5,0,0,1,162.94,464.12Z"/><path class="cls-1" d="M216,464.53h-.37a5,5,0,0,1-4.62-5.36l14.22-190.6a5,5,0,0,1,10,.74L221,459.91A5,5,0,0,1,216,464.53Z"/><path class="cls-1" d="M109.35,464.53a5,5,0,0,1-5-4.62L90.15,269.3a5,5,0,0,1,10-.74l14.22,190.6a5,5,0,0,1-4.62,5.36Z"/><path class="cls-1" d="M416.09,405H357a5,5,0,0,1,0-10h59.09c6.68,0,11.91-5,11.91-11.28V325a5,5,0,0,1,10,0v58.72C438,395.45,428.17,405,416.09,405Z"/><path class="cls-1" d="M366.88,424.83a5,5,0,0,1-3.75-1.7l-17.58-19.92a5,5,0,0,1,0-6.65L363.16,377a5,5,0,1,1,7.44,6.68L356,399.93l14.64,16.59a5,5,0,0,1-3.75,8.31Z"/></g><g id="Outline"><path class="cls-1" d="M330.33,107H192a5,5,0,0,1,0-10H330.33a5,5,0,0,1,0,10Z"/><path class="cls-1" d="M330.33,155H192a5,5,0,0,1,0-10H330.33a5,5,0,0,1,0,10Z"/><path class="cls-1" d="M437,200H320a5,5,0,0,1,0-10H437a5,5,0,0,1,0,10Z"/><path class="cls-1" d="M437,248H320a5,5,0,0,1,0-10H437a5,5,0,0,1,0,10Z"/><path class="cls-1" d="M437,293H320a5,5,0,0,1,0-10H437a5,5,0,0,1,0,10Z"/></g></svg>