<?xml version="1.0" ?><svg viewBox="0 0 512 512" xmlns="http://www.w3.org/2000/svg"><defs><style>.cls-1{fill:#3f456b;}</style></defs><title/><g id="Lines"><path class="cls-1" d="M497,405H81a5,5,0,0,1-5-5V272a5,5,0,0,1,10,0V395H492V20H86v91a5,5,0,0,1-10,0V15a5,5,0,0,1,5-5H497a5,5,0,0,1,5,5V400A5,5,0,0,1,497,405Z"/><path class="cls-1" d="M113,501a37,37,0,1,1,37-37A37,37,0,0,1,113,501Zm0-64a27,27,0,1,0,27,27A27,27,0,0,0,113,437Z"/><path class="cls-1" d="M74.13,439.16a5,5,0,0,1-4-8.05,54,54,0,0,1,85.66,0,5,5,0,0,1-7.93,6.09,44,44,0,0,0-69.8,0A5,5,0,0,1,74.13,439.16Z"/><path class="cls-1" d="M369,405a5,5,0,0,1-5-5V15a5,5,0,0,1,10,0V400A5,5,0,0,1,369,405Z"/><path class="cls-1" d="M497,52H81a5,5,0,0,1,0-10H497a5,5,0,0,1,0,10Z"/><path class="cls-1" d="M497,166H81a5,5,0,0,1,0-10H497a5,5,0,0,1,0,10Z"/><path class="cls-1" d="M497,277H81a5,5,0,0,1,0-10H497a5,5,0,0,1,0,10Z"/><path class="cls-1" d="M113,420a5,5,0,0,1-5-5V400a5,5,0,0,1,10,0v15A5,5,0,0,1,113,420Z"/><path class="cls-1" d="M210,420a5,5,0,0,1-5-5V400a5,5,0,0,1,10,0v15A5,5,0,0,1,210,420Z"/><path class="cls-1" d="M113,469a5,5,0,0,1-5-5v-1a5,5,0,0,1,10,0v1A5,5,0,0,1,113,469Z"/><path class="cls-1" d="M369,501a37,37,0,1,1,37-37A37,37,0,0,1,369,501Zm0-64a27,27,0,1,0,27,27A27,27,0,0,0,369,437Z"/><path class="cls-1" d="M330.13,439.16a5,5,0,0,1-4-8.05,54,54,0,0,1,85.66,0,5,5,0,1,1-7.93,6.09,44,44,0,0,0-69.8,0A5,5,0,0,1,330.13,439.16Z"/><path class="cls-1" d="M369,420a5,5,0,0,1-5-5V400a5,5,0,0,1,10,0v15A5,5,0,0,1,369,420Z"/><path class="cls-1" d="M369,469a5,5,0,0,1-5-5v-1a5,5,0,0,1,10,0v1A5,5,0,0,1,369,469Z"/><path class="cls-1" d="M225,500H195a15,15,0,0,1-15-15V425a15,15,0,0,1,15-15h30a15,15,0,0,1,15,15v60A15,15,0,0,1,225,500Zm-30-80a5,5,0,0,0-5,5v60a5,5,0,0,0,5,5h30a5,5,0,0,0,5-5V425a5,5,0,0,0-5-5Z"/><path class="cls-1" d="M235,452H185a5,5,0,0,1,0-10h50a5,5,0,0,1,0,10Z"/><path class="cls-1" d="M466,420a5,5,0,0,1-5-5V400a5,5,0,0,1,10,0v15A5,5,0,0,1,466,420Z"/><path class="cls-1" d="M481,500H451a15,15,0,0,1-15-15V425a15,15,0,0,1,15-15h30a15,15,0,0,1,15,15v60A15,15,0,0,1,481,500Zm-30-80a5,5,0,0,0-5,5v60a5,5,0,0,0,5,5h30a5,5,0,0,0,5-5V425a5,5,0,0,0-5-5Z"/><path class="cls-1" d="M491,452H441a5,5,0,0,1,0-10h50a5,5,0,0,1,0,10Z"/><path class="cls-1" d="M337,277H16a5,5,0,0,1-5-5V161a5,5,0,0,1,5-5H337a5,5,0,0,1,5,5V272A5,5,0,0,1,337,277ZM21,267H332V166H21Z"/><path class="cls-1" d="M304,277a5,5,0,0,1-5-5V161a5,5,0,0,1,10,0V272A5,5,0,0,1,304,277Z"/><path class="cls-1" d="M369,196H337a5,5,0,0,1,0-10h32a5,5,0,0,1,0,10Z"/><path class="cls-1" d="M256,84H192a5,5,0,0,1,0-10h64a5,5,0,0,1,0,10Z"/><path class="cls-1" d="M256,310H192a5,5,0,0,1,0-10h64a5,5,0,0,1,0,10Z"/><path class="cls-1" d="M191,213H127a5,5,0,0,1,0-10h64a5,5,0,0,1,0,10Z"/><path class="cls-1" d="M335,101a21,21,0,1,1,21-21A21,21,0,0,1,335,101Zm0-32a11,11,0,1,0,11,11A11,11,0,0,0,335,69Z"/><path class="cls-1" d="M335,86a5,5,0,0,1-5-5V78a5,5,0,0,1,10,0v3A5,5,0,0,1,335,86Z"/><path class="cls-1" d="M48.5,166a5,5,0,0,1-5-5V111a5,5,0,0,1,5-5H272a5,5,0,0,1,5,5v48a5,5,0,0,1-10,0V116H53.5v45A5,5,0,0,1,48.5,166Z"/></g><g id="Outline"><path class="cls-1" d="M369,223H337a5,5,0,0,1,0-10h32a5,5,0,0,1,0,10Z"/><path class="cls-1" d="M369,249H337a5,5,0,0,1,0-10h32a5,5,0,0,1,0,10Z"/><path class="cls-1" d="M243,141H77a5,5,0,0,1,0-10H243a5,5,0,0,1,0,10Z"/></g></svg>