<?xml version="1.0" ?><svg id="Lines" viewBox="0 0 512 512" xmlns="http://www.w3.org/2000/svg"><defs><style>.cls-1{fill:#3f456b;}</style></defs><title/><path class="cls-1" d="M44.8,275.14H23.67a5,5,0,0,1,0-10H44.8c.35,0,1.37-1,1.37-2.78v-10.1c0-1.82-1-2.77-1.37-2.77H27.64a5,5,0,1,1,0-10H44.8c6.27,0,11.37,5.73,11.37,12.77v10.1C56.17,269.41,51.07,275.14,44.8,275.14Z"/><path class="cls-1" d="M208.5,262.31h-16a5,5,0,0,1,0-10h16a5,5,0,0,1,0,10Z"/><path class="cls-1" d="M112.6,349.1A45.11,45.11,0,1,1,157.71,304,45.17,45.17,0,0,1,112.6,349.1Zm0-80.22A35.11,35.11,0,1,0,147.71,304,35.15,35.15,0,0,0,112.6,268.88Z"/><path class="cls-1" d="M112.6,321.58A17.59,17.59,0,1,1,130.19,304,17.61,17.61,0,0,1,112.6,321.58Zm0-25.18a7.59,7.59,0,1,0,7.59,7.59A7.6,7.6,0,0,0,112.6,296.4Z"/><path class="cls-1" d="M397.85,349.1A45.11,45.11,0,1,1,443,304,45.17,45.17,0,0,1,397.85,349.1Zm0-80.22A35.11,35.11,0,1,0,433,304,35.15,35.15,0,0,0,397.85,268.88Z"/><path class="cls-1" d="M397.85,321.58A17.59,17.59,0,1,1,415.44,304,17.61,17.61,0,0,1,397.85,321.58Zm0-25.18a7.59,7.59,0,1,0,7.59,7.59A7.6,7.6,0,0,0,397.85,296.4Z"/><path class="cls-1" d="M360.33,326.53H149.09a5,5,0,0,1,0-10H360.33a5,5,0,0,1,0,10Z"/><path class="cls-1" d="M480.5,326.53H434.34a5,5,0,1,1,0-10H480.5c1.81,0,11-.68,11-11V273.9c-.28-1.47-2.75-11.63-19-19.35L469.39,253c-15.52-7.56-41.5-20.2-117-22.51a5,5,0,0,1-3.66-1.76c-.39-.45-39.91-45.86-108.76-53.77C151.87,164.88,84.65,228.52,84,229.17A5,5,0,0,1,77,222c.72-.69,18-17.17,46.84-32.51,26.69-14.2,68.69-29.95,117.19-24.39,66.05,7.59,105.6,46.75,113.73,55.54,76,2.55,102.87,15.61,119,23.45l3,1.47c22.6,10.74,24.59,26.8,24.66,27.47a4.89,4.89,0,0,1,0,.54v32C501.5,320.94,488.94,326.53,480.5,326.53Z"/><path class="cls-1" d="M76.52,326.7H32.67c-7.11,0-12.63-2.14-16.4-6.36-5.59-6.26-4.84-14.46-4.74-15.37,0-.11,0-.22.05-.33.09-.48,8.79-48.21,11.84-64,3.23-16.73,23.72-19,24.59-19a3.4,3.4,0,0,1,.45,0c26.56-.24,51.37,0,74.9.82,6.19-7.19,36.88-38.31,101.39-35.06,69.16,4.23,95.7,29.1,100.48,43.13.07.2.21.52.38.91,2,4.76,3.62,9.33,1.23,12.8a6.29,6.29,0,0,1-5.57,2.71c-9.87-.35-19.87-.82-29.76-1.4-21.8-1.28-43.82-3.49-65.11-5.64-18.13-1.82-36.88-3.71-55.34-5-37.18-2.6-77.16-3.67-122.24-3.27-1.61.21-13.88,2.14-15.58,10.95-2.93,15.22-11.11,60.07-11.78,63.72,0,.69-.17,4.8,2.32,7.52,1.79,2,4.78,3,8.89,3H76.52a5,5,0,0,1,0,10Zm60.62-103.82c11.84.51,23.35,1.16,34.62,1.94,18.61,1.3,37.44,3.2,55.64,5,21.19,2.14,43.1,4.34,64.7,5.61,8.27.48,16.62.89,24.9,1.22l-.6-1.46c-.29-.69-.52-1.24-.63-1.57-1.57-4.59-8-12.44-20.95-19.49-17.05-9.26-41.47-15.1-70.63-16.89C176.88,194.9,149.09,212.63,137.14,222.88Z"/><path class="cls-1" d="M59.83,213.57H33.08c-9.11,0-16-1.93-20.53-5.74a16.1,16.1,0,0,1-5.77-12.51v-6.83c0-.93-.06-1.88-.11-2.8-.19-3.21-.41-6.86,2.18-9.61a8.94,8.94,0,0,1,6.82-2.59H72.49c10.79,0,10.79,10.51,10.79,15v6.83C83.28,204.11,75.94,213.57,59.83,213.57ZM16.57,183.49c0,.52.05,1.11.08,1.6.06,1,.13,2.17.13,3.4v6.83c0,7.18,10.22,8.25,16.3,8.25H59.83c10.62,0,13.45-5.18,13.45-8.25v-6.83a22.28,22.28,0,0,0-.38-5l-.41,0Z"/><path class="cls-1" d="M43.64,232.53A5,5,0,0,1,39,229.45L31.13,210.5a5,5,0,0,1,9.23-3.85l7.89,19a5,5,0,0,1-4.61,6.92Z"/><path class="cls-1" d="M75.8,230.53a5,5,0,0,1-4.61-3.05l-7.17-17a5,5,0,1,1,9.21-3.89l7.17,17a5,5,0,0,1-2.66,6.56A4.91,4.91,0,0,1,75.8,230.53Z"/><path class="cls-1" d="M494.5,275.58H459.33c-11.51,0-15.37-8.78-15.81-13.41,0-.16,0-.32,0-.47V238.94a5,5,0,0,1,10,0v22.44c.25,1.59,1.38,4.2,5.83,4.2H494.5a5,5,0,0,1,0,10Z"/><path class="cls-1" d="M486.47,325.39a5,5,0,0,1-5-5c0-36.48-22.76-44.74-23.73-45.07a5,5,0,0,1,3.15-9.49c1.25.41,30.58,10.55,30.58,54.56A5,5,0,0,1,486.47,325.39Z"/><path class="cls-1" d="M357.74,309h-205a5,5,0,0,1,0-10h205a5,5,0,0,1,0,10Z"/><path class="cls-1" d="M72.49,309c-54.17,0-55.8-30.12-55.84-31.4a5,5,0,0,1,10-.4c.07,1,2.08,21.8,45.85,21.8a5,5,0,1,1,0,10Z"/><path class="cls-1" d="M202.37,235.77h-.19a5,5,0,0,1-4.81-5.18c.88-24.47,1.88-37.32,1.88-37.45a5,5,0,0,1,10,.78c0,.13-1,12.8-1.86,37A5,5,0,0,1,202.37,235.77Z"/></svg>