<?xml version="1.0" ?><svg viewBox="0 0 512 512" xmlns="http://www.w3.org/2000/svg"><defs><style>.cls-1{fill:#3f456b;}</style></defs><title/><g id="Lines"><path class="cls-1" d="M311,308H141a5,5,0,0,1-5-5V280a5,5,0,0,1,5-5H311a5,5,0,0,1,5,5v23A5,5,0,0,1,311,308ZM146,298H306V285H146Z"/><path class="cls-1" d="M415.33,308.67A37.67,37.67,0,1,1,453,271,37.71,37.71,0,0,1,415.33,308.67Zm0-65.34A27.67,27.67,0,1,0,443,271,27.7,27.7,0,0,0,415.33,243.33Z"/><path class="cls-1" d="M343,269H321a15,15,0,0,1-15-15v-3a15,15,0,0,1,15-15h22a15,15,0,0,1,15,15v3A15,15,0,0,1,343,269Zm-22-23a5,5,0,0,0-5,5v3a5,5,0,0,0,5,5h22a5,5,0,0,0,5-5v-3a5,5,0,0,0-5-5Z"/><path class="cls-1" d="M332,307a5,5,0,0,1-5-5V264a5,5,0,0,1,10,0v38A5,5,0,0,1,332,307Z"/><path class="cls-1" d="M152,269H130a15,15,0,0,1-15-15v-3a15,15,0,0,1,15-15h22a15,15,0,0,1,15,15v3A15,15,0,0,1,152,269Zm-22-23a5,5,0,0,0-5,5v3a5,5,0,0,0,5,5h22a5,5,0,0,0,5-5v-3a5,5,0,0,0-5-5Z"/><path class="cls-1" d="M141,307a5,5,0,0,1-5-5V264a5,5,0,0,1,10,0v38A5,5,0,0,1,141,307Z"/><path class="cls-1" d="M461,500H65a15,15,0,0,1-15-15V452a15,15,0,0,1,15-15H461a15,15,0,0,1,15,15v33A15,15,0,0,1,461,500ZM65,447a5,5,0,0,0-5,5v33a5,5,0,0,0,5,5H461a5,5,0,0,0,5-5V452a5,5,0,0,0-5-5Z"/><path class="cls-1" d="M325,339H137a15,15,0,0,1-15-15V313a15,15,0,0,1,15-15H343a5,5,0,0,1,0,10H137a5,5,0,0,0-5,5v11a5,5,0,0,0,5,5H325a5,5,0,0,1,0,10Z"/><path class="cls-1" d="M264,447a5,5,0,0,1-4.35-7.47l75.77-133.36c.92-1.78,8.81-16.17,23.91-16.17,14.21,0,22.1,14.24,23.09,16.13,23.65,40.24,76.44,132.46,77,133.39a5,5,0,0,1-8.68,5c-.53-.92-53.39-93.28-77-133.41-.06-.1-.11-.2-.16-.3S368,300,359.28,300c-9.45,0-15,10.65-15,10.75l-.14.26L268.3,444.47A5,5,0,0,1,264,447Z"/><path class="cls-1" d="M215,259c-14.77,0-26.09-4.08-33.64-12.12-10.13-10.77-9.39-24.61-9.35-25.19a5,5,0,0,1,10,.6c0,.17-.41,10.3,6.74,17.84C194.32,246,203.16,249,215,249s20.77-3,26.35-9c7.09-7.54,6.67-17.63,6.66-17.73a5,5,0,1,1,10-.62c0,.58.78,14.42-9.35,25.19C241.09,254.92,229.77,259,215,259Z"/><path class="cls-1" d="M450,438a5,5,0,0,1-3.8-8.25c5.84-6.81,8.8-11,12.21-17.31A222.14,222.14,0,0,0,420,150c-40.28-40.27-90.09-58.09-156.83-56a5.09,5.09,0,0,1-3.63-1.41A5,5,0,0,1,258,89V72a5,5,0,0,0-5-5H177a5,5,0,0,0-5,5V212a5,5,0,0,0,5,5h76c13.83,0,24-3.73,30.31-11.09,9.86-11.55,7.28-28.7,7.25-28.87a5,5,0,0,1,5.57-5.76c48,6.13,85.11,31,104.44,70.13a5,5,0,0,1-9,4.43c-17-34.35-49-56.82-90.7-63.75.05,7.58-1.38,20.18-9.92,30.24-8.27,9.73-21.05,14.67-38,14.67H177a15,15,0,0,1-15-15V72a15,15,0,0,1,15-15h76a15,15,0,0,1,15,15V83.88c32-.52,59.92,3.53,85.2,12.31,27.94,9.72,52.1,25,73.85,46.76A232.11,232.11,0,0,1,467.2,417.19a97.65,97.65,0,0,1-13.4,19.06A5,5,0,0,1,450,438Z"/><path class="cls-1" d="M402,352.78a5.07,5.07,0,0,1-1.52-.24,5,5,0,0,1-3.25-6.28C402.08,331.17,405,321,405,307c0-.87,0-1.73,0-2.59a5,5,0,1,1,10-.15c0,.91,0,1.82,0,2.74,0,16.56-4,29.06-8.2,42.29A5,5,0,0,1,402,352.78Z"/><path class="cls-1" d="M167,419a5,5,0,0,1-5-5V377a15,15,0,0,1,15-15h76a15,15,0,0,1,15,15v36a5,5,0,0,1-10,0V377a5,5,0,0,0-5-5H177a5,5,0,0,0-5,5v37A5,5,0,0,1,167,419Z"/><path class="cls-1" d="M248,67a5,5,0,0,1-5-5V24a5,5,0,0,0-5-5H193a5,5,0,0,0-5,5V62a5,5,0,0,1-10,0V24A15,15,0,0,1,193,9h45a15,15,0,0,1,15,15V62A5,5,0,0,1,248,67Z"/><path class="cls-1" d="M87,447a5,5,0,0,1-5-5V424a15,15,0,0,1,15-15H280a5,5,0,0,1,0,10H97a5,5,0,0,0-5,5v18A5,5,0,0,1,87,447Z"/><path class="cls-1" d="M359.67,362a18,18,0,1,1,18-18A18,18,0,0,1,359.67,362Zm0-26a8,8,0,1,0,8,8A8,8,0,0,0,359.67,336Z"/><path class="cls-1" d="M359.67,386A41.86,41.86,0,0,1,330,373.7a5,5,0,1,1,7.07-7.07,32,32,0,0,0,45.25,0,5,5,0,1,1,7.08,7.07A41.87,41.87,0,0,1,359.67,386Z"/><path class="cls-1" d="M415,277a5,5,0,0,1-5-5v-1a5,5,0,0,1,10,0v1A5,5,0,0,1,415,277Z"/><path class="cls-1" d="M397,473H323a5,5,0,0,1,0-10h74a5,5,0,0,1,0,10Z"/><path class="cls-1" d="M263,113a5,5,0,0,1-5-5V89a5,5,0,0,1,10,0v19A5,5,0,0,1,263,113Z"/><path class="cls-1" d="M118.85,260.4a5.27,5.27,0,0,1-.68,0A115,115,0,0,1,19,146.35C19,82.9,70.5,31.28,133.85,31.28a113.63,113.63,0,0,1,51,11.91,5,5,0,1,1-4.45,9,103.66,103.66,0,0,0-46.51-10.86C76,41.28,29,88.41,29,146.35c0,52.28,38.93,97,90.56,104.1a5,5,0,0,1-.67,9.95Z"/><path class="cls-1" d="M163,257.5a5,5,0,0,1-1.33-9.82,104.24,104.24,0,0,0,21.18-8.41,5,5,0,1,1,4.69,8.83,114.35,114.35,0,0,1-23.21,9.22A5.13,5.13,0,0,1,163,257.5Z"/><path class="cls-1" d="M98.54,189.29A45,45,0,0,1,86,187.5c-23.34-6.73-37-30.75-30.4-53.53a42.17,42.17,0,0,1,20.89-25.66,44.83,44.83,0,0,1,59.77,17.25,42.29,42.29,0,0,1-16.9,58.52A44,44,0,0,1,98.54,189.29Zm-1.24-76.2a34.06,34.06,0,0,0-16.11,4,32.2,32.2,0,0,0-16,19.62c-5.05,17.48,5.52,35.94,23.56,41.15a34.39,34.39,0,0,0,25.88-2.64,32.3,32.3,0,0,0,16-19.62h0a32.33,32.33,0,0,0-3.08-25.13,34.41,34.41,0,0,0-20.49-16A35.28,35.28,0,0,0,97.3,113.09Z"/></g><g id="Outline"><path class="cls-1" d="M86.08,352.18a5,5,0,0,1-1.89-9.63l13.18-5.37a5,5,0,1,1,3.77,9.26L88,351.81A5,5,0,0,1,86.08,352.18Z"/><path class="cls-1" d="M99.24,283a4.94,4.94,0,0,1-1.94-.39l-12-5.05a5,5,0,1,1,3.88-9.22l12,5.05A5,5,0,0,1,99.24,283Z"/><path class="cls-1" d="M107,384a5,5,0,0,1-3.52-8.55l10.11-10a5,5,0,0,1,7,7.1l-10.11,10A5,5,0,0,1,107,384Z"/><path class="cls-1" d="M92.61,315.07h0l-13-.06a5,5,0,0,1,0-10h0l13,.06a5,5,0,0,1,0,10Z"/><path class="cls-1" d="M109.3,109.27a4.77,4.77,0,0,1-1.39-.2,5,5,0,0,1-3.42-6.19l3.21-11.11a5,5,0,1,1,9.61,2.77l-3.21,11.12A5,5,0,0,1,109.3,109.27Z"/><path class="cls-1" d="M82,203.84a5.12,5.12,0,0,1-1.39-.19,5,5,0,0,1-3.42-6.19l3.21-11.12A5,5,0,0,1,90,189.12L86.8,200.23A5,5,0,0,1,82,203.84Z"/><path class="cls-1" d="M150.09,166.26a5.12,5.12,0,0,1-1.38-.2l-11.12-3.21a5,5,0,0,1,2.78-9.61l11.11,3.21a5,5,0,0,1-1.39,9.81Z"/><path class="cls-1" d="M55.52,139a5.17,5.17,0,0,1-1.39-.19L43,135.55a5,5,0,0,1,2.77-9.61l11.12,3.21a5,5,0,0,1-1.39,9.8Z"/><path class="cls-1" d="M86.81,108.84A5,5,0,0,1,82,105L79.19,93.81a5,5,0,1,1,9.7-2.4l2.78,11.23a5,5,0,0,1-4.86,6.2Z"/><path class="cls-1" d="M110.46,204.39a5,5,0,0,1-4.85-3.8l-2.78-11.23a5,5,0,0,1,9.71-2.4l2.77,11.23a5,5,0,0,1-4.85,6.2Z"/><path class="cls-1" d="M139.41,140.57a5,5,0,0,1-1.2-9.86l11.23-2.77a5,5,0,1,1,2.4,9.7l-11.23,2.78A4.93,4.93,0,0,1,139.41,140.57Z"/><path class="cls-1" d="M43.86,164.21a5,5,0,0,1-1.2-9.85l11.23-2.78a5,5,0,0,1,2.4,9.71l-11.23,2.77A5,5,0,0,1,43.86,164.21Z"/><path class="cls-1" d="M67.13,119.7a5,5,0,0,1-3.6-1.53l-8-8.34a5,5,0,0,1,7.21-6.93l8,8.34a5,5,0,0,1-3.61,8.46Z"/><path class="cls-1" d="M135.39,190.63a5,5,0,0,1-3.61-1.53l-8-8.34a5,5,0,0,1,7.21-6.93l8,8.34a5,5,0,0,1-3.6,8.46Z"/><path class="cls-1" d="M128.55,120.88a5,5,0,0,1-3.47-8.6l8.34-8a5,5,0,0,1,6.93,7.21l-8.34,8A5,5,0,0,1,128.55,120.88Z"/><path class="cls-1" d="M57.62,189.13a5,5,0,0,1-3.47-8.6l8.34-8a5,5,0,0,1,6.93,7.21l-8.34,8A5,5,0,0,1,57.62,189.13Z"/></g></svg>