<?xml version="1.0" ?><svg viewBox="0 0 512 512" xmlns="http://www.w3.org/2000/svg"><defs><style>.cls-1{fill:#3f456b;}</style></defs><title/><g id="Lines"><path class="cls-1" d="M418,500H97c-20.07,0-47-5.65-61.29-32.59C27.85,452.59,27,437,27,431V187a15,15,0,0,1,15-15H143a5,5,0,0,1,0,10H42a5,5,0,0,0-5,5V431c0,5.26.73,18.89,7.54,31.72C54.15,480.82,71.8,490,97,490H418c17.88,0,31.84-4.9,41.48-14.56,14.06-14.1,15.54-34.89,15.52-43.17V187a5,5,0,0,0-5-5H369.58a5,5,0,1,1,0-10H470a15,15,0,0,1,15,15V432.24c0,9.54-1.73,33.51-18.44,50.26C455,494.11,438.63,500,418,500Z"/><path class="cls-1" d="M336.17,182H176.5a5,5,0,0,1,0-10H336.17a5,5,0,1,1,0,10Z"/><path class="cls-1" d="M176,269a5,5,0,0,1-5-5V159a231.59,231.59,0,0,1,3.86-41c5.58-30.52,16.08-53.79,31.22-69.17C219.7,35,236.83,28,257,28a5,5,0,0,1,0,10c-17.39,0-32.12,6-43.8,17.88C180.28,89.32,181,158.23,181,158.92V264A5,5,0,0,1,176,269Z"/><path class="cls-1" d="M160,354c-6.44,0-11.6-2-15.33-6-5.8-6.14-5.74-14.56-5.67-16.15V284a5,5,0,0,1,10,0v48a2.71,2.71,0,0,1,0,.29s-.21,5.57,3,8.92c1.79,1.88,4.42,2.79,8,2.79s6.23-.91,8-2.79c3.2-3.35,3-8.89,3-8.95a2.17,2.17,0,0,1,0-.26V284a5,5,0,0,1,10,0v47.88c.07,1.59.13,10-5.67,16.15C171.6,352,166.44,354,160,354Z"/><path class="cls-1" d="M144,269a5,5,0,0,1-5-5V159.08c-.13-4.12-1.75-74.57,39.32-117.1C198.17,21.42,224.64,11,257,11a5,5,0,0,1,0,10c-29.54,0-53.6,9.39-71.49,27.92C147,88.79,149,158.13,149,158.83V264A5,5,0,0,1,144,269Z"/><path class="cls-1" d="M337,270a5,5,0,0,1-5-5V159c0-.77.67-69.75-32.22-103.14C288.11,44,273.38,38,256,38a5,5,0,0,1,0-10c20.17,0,37.3,7,50.92,20.86,15.14,15.38,25.64,38.65,31.22,69.17A231.69,231.69,0,0,1,342,159.08V265A5,5,0,0,1,337,270Z"/><path class="cls-1" d="M353,354c-6.44,0-11.6-2-15.33-6-5.8-6.14-5.74-14.56-5.67-16.15V284a5,5,0,0,1,10,0v48a2.71,2.71,0,0,1,0,.29s-.21,5.57,3,8.92c1.79,1.88,4.42,2.79,8,2.79s6.23-.91,8-2.79c3.2-3.35,3-8.89,3-8.95a2.17,2.17,0,0,1,0-.26V284.5a5,5,0,0,1,10,0v47.38c.07,1.59.13,10-5.67,16.15C364.6,352,359.44,354,353,354Z"/><path class="cls-1" d="M369,270a5,5,0,0,1-5-5V158.83c0-.7,1.92-70.14-36.54-109.94C309.57,30.38,285.53,21,256,21a5,5,0,0,1,0-10c32.36,0,58.83,10.42,78.68,31,41.07,42.53,39.45,113,39.32,117.1V265A5,5,0,0,1,369,270Z"/><path class="cls-1" d="M288,287H226a15,15,0,0,1-15-15V240a15,15,0,0,1,15-15h62a15,15,0,0,1,15,15v32A15,15,0,0,1,288,287Zm-62-52a5,5,0,0,0-5,5v32a5,5,0,0,0,5,5h62a5,5,0,0,0,5-5V240a5,5,0,0,0-5-5Z"/><path class="cls-1" d="M187,228H133a5,5,0,0,1,0-10h54a5,5,0,0,1,0,10Z"/><path class="cls-1" d="M380,228H326a5,5,0,0,1,0-10h54a5,5,0,0,1,0,10Z"/><path class="cls-1" d="M375,307h-5.5a5,5,0,0,1,0-10H375a5,5,0,0,0,5-5V275a5,5,0,0,0-5-5H331a5,5,0,0,0-5,5v17a5,5,0,0,0,5,5h6a5,5,0,0,1,0,10h-6a15,15,0,0,1-15-15V275a15,15,0,0,1,15-15h44a15,15,0,0,1,15,15v17A15,15,0,0,1,375,307Z"/><path class="cls-1" d="M385,289H321a5,5,0,0,1,0-10h64a5,5,0,0,1,0,10Z"/><path class="cls-1" d="M182,307h-5.5a5,5,0,0,1,0-10H182a5,5,0,0,0,5-5V275a5,5,0,0,0-5-5H138a5,5,0,0,0-5,5v17a5,5,0,0,0,5,5h6a5,5,0,1,1,0,10h-6a15,15,0,0,1-15-15V275a15,15,0,0,1,15-15h44a15,15,0,0,1,15,15v17A15,15,0,0,1,182,307Z"/><path class="cls-1" d="M192,289H128a5,5,0,0,1,0-10h64a5,5,0,0,1,0,10Z"/><path class="cls-1" d="M160,310a5,5,0,0,1-5-5v-.92a5,5,0,0,1,10,0V305A5,5,0,0,1,160,310Z"/><path class="cls-1" d="M160,249.92a5,5,0,0,1-5-5V244a5,5,0,0,1,10,0v.92A5,5,0,0,1,160,249.92Z"/><path class="cls-1" d="M353,310a5,5,0,0,1-5-5v-.92a5,5,0,1,1,10,0V305A5,5,0,0,1,353,310Z"/><path class="cls-1" d="M353,249.92a5,5,0,0,1-5-5V244a5,5,0,0,1,10,0v.92A5,5,0,0,1,353,249.92Z"/></g><g id="Outline"><path class="cls-1" d="M276,261H238a5,5,0,0,1,0-10h38a5,5,0,0,1,0,10Z"/><path class="cls-1" d="M94,197.5a5,5,0,0,1-5-5V192a5,5,0,0,1,10,0v.5A5,5,0,0,1,94,197.5Z"/><path class="cls-1" d="M94,478.89a5,5,0,0,1-5-5v-1a5,5,0,0,1,10,0v1A5,5,0,0,1,94,478.89Zm0-21.65a5,5,0,0,1-5-5v-1a5,5,0,0,1,10,0v1A5,5,0,0,1,94,457.24Zm0-21.64a5,5,0,0,1-5-5v-1a5,5,0,1,1,10,0v1A5,5,0,0,1,94,435.6ZM94,414a5,5,0,0,1-5-5v-1a5,5,0,0,1,10,0v1A5,5,0,0,1,94,414Zm0-21.64a5,5,0,0,1-5-5v-1a5,5,0,0,1,10,0v1A5,5,0,0,1,94,392.31Zm0-21.65a5,5,0,0,1-5-5v-1a5,5,0,0,1,10,0v1A5,5,0,0,1,94,370.66ZM94,349a5,5,0,0,1-5-5v-1a5,5,0,0,1,10,0v1A5,5,0,0,1,94,349Zm0-21.65a5,5,0,0,1-5-5v-1a5,5,0,0,1,10,0v1A5,5,0,0,1,94,327.37Zm0-21.64a5,5,0,0,1-5-5v-1a5,5,0,0,1,10,0v1A5,5,0,0,1,94,305.73Zm0-21.65a5,5,0,0,1-5-5v-1a5,5,0,0,1,10,0v1A5,5,0,0,1,94,284.08Zm0-21.64a5,5,0,0,1-5-5v-1a5,5,0,0,1,10,0v1A5,5,0,0,1,94,262.44Zm0-21.65a5,5,0,0,1-5-5v-1a5,5,0,0,1,10,0v1A5,5,0,0,1,94,240.79Zm0-21.64a5,5,0,0,1-5-5v-1a5,5,0,0,1,10,0v1A5,5,0,0,1,94,219.15Z"/><path class="cls-1" d="M94,500a5,5,0,0,1-5-5v-.5a5,5,0,0,1,10,0v.5A5,5,0,0,1,94,500Z"/><path class="cls-1" d="M419,197.5a5,5,0,0,1-5-5V192a5,5,0,0,1,10,0v.5A5,5,0,0,1,419,197.5Z"/><path class="cls-1" d="M419,478.89a5,5,0,0,1-5-5v-1a5,5,0,0,1,10,0v1A5,5,0,0,1,419,478.89Zm0-21.65a5,5,0,0,1-5-5v-1a5,5,0,0,1,10,0v1A5,5,0,0,1,419,457.24Zm0-21.64a5,5,0,0,1-5-5v-1a5,5,0,1,1,10,0v1A5,5,0,0,1,419,435.6ZM419,414a5,5,0,0,1-5-5v-1a5,5,0,0,1,10,0v1A5,5,0,0,1,419,414Zm0-21.64a5,5,0,0,1-5-5v-1a5,5,0,0,1,10,0v1A5,5,0,0,1,419,392.31Zm0-21.65a5,5,0,0,1-5-5v-1a5,5,0,0,1,10,0v1A5,5,0,0,1,419,370.66ZM419,349a5,5,0,0,1-5-5v-1a5,5,0,0,1,10,0v1A5,5,0,0,1,419,349Zm0-21.65a5,5,0,0,1-5-5v-1a5,5,0,1,1,10,0v1A5,5,0,0,1,419,327.37Zm0-21.64a5,5,0,0,1-5-5v-1a5,5,0,0,1,10,0v1A5,5,0,0,1,419,305.73Zm0-21.65a5,5,0,0,1-5-5v-1a5,5,0,1,1,10,0v1A5,5,0,0,1,419,284.08Zm0-21.64a5,5,0,0,1-5-5v-1a5,5,0,0,1,10,0v1A5,5,0,0,1,419,262.44Zm0-21.65a5,5,0,0,1-5-5v-1a5,5,0,0,1,10,0v1A5,5,0,0,1,419,240.79Zm0-21.64a5,5,0,0,1-5-5v-1a5,5,0,0,1,10,0v1A5,5,0,0,1,419,219.15Z"/><path class="cls-1" d="M419,500a5,5,0,0,1-5-5v-.5a5,5,0,0,1,10,0v.5A5,5,0,0,1,419,500Z"/></g></svg>