<?xml version="1.0" ?><svg viewBox="0 0 512 512" xmlns="http://www.w3.org/2000/svg"><defs><style>.cls-1{fill:#3f456b;}</style></defs><title/><g id="Lines"><path class="cls-1" d="M496.2,278.6h-32c-7.16,0-13-6.73-13-15v-13c0-8.27,5.82-15,13-15H488a5,5,0,0,1,0,10H464.17c-1.38,0-3,2.18-3,5v13c0,2.82,1.6,5,3,5h32a5,5,0,0,1,0,10Z"/><path class="cls-1" d="M32,295.1H16.5a5,5,0,0,1,0-10H32c1.38,0,3-2.18,3-5v-13c0-2.82-1.6-5-3-5H16.5a5,5,0,1,1,0-10H32c7.16,0,13,6.73,13,15v13C45,288.37,39.19,295.1,32,295.1Z"/><path class="cls-1" d="M103.54,389.12A45.12,45.12,0,1,1,148.65,344,45.16,45.16,0,0,1,103.54,389.12Zm0-80.23A35.12,35.12,0,1,0,138.65,344,35.15,35.15,0,0,0,103.54,308.89Z"/><path class="cls-1" d="M103.54,361.6A17.59,17.59,0,1,1,121.13,344,17.62,17.62,0,0,1,103.54,361.6Zm0-25.18a7.59,7.59,0,1,0,7.59,7.58A7.59,7.59,0,0,0,103.54,336.42Z"/><path class="cls-1" d="M423.29,389.12A45.12,45.12,0,1,1,468.4,344,45.16,45.16,0,0,1,423.29,389.12Zm0-80.23A35.12,35.12,0,1,0,458.4,344,35.15,35.15,0,0,0,423.29,308.89Z"/><path class="cls-1" d="M423.29,361.6A17.59,17.59,0,1,1,440.88,344,17.62,17.62,0,0,1,423.29,361.6Zm0-25.18a7.59,7.59,0,1,0,7.59,7.58A7.59,7.59,0,0,0,423.29,336.42Z"/><path class="cls-1" d="M383.2,348.73H144.67a5,5,0,1,1,0-10H383.2a5,5,0,1,1,0,10Z"/><path class="cls-1" d="M62,348.73H32.35c-6.2,0-11.23-1.92-14.94-5.7-5.91-6-5.93-14.32-5.91-15.25V144.88c0-15.4,12.56-21,21-21h304c42.76,0,60.91,23.62,61.66,24.63l.15.2,46.48,69.17,27.36,8.68c2.47.67,28.94,8.36,28.94,30.62v72.09a16.17,16.17,0,0,1-3.52,12.12c-4,4.77-10.57,7.19-19.66,7.19H464.43a5,5,0,0,1,0-10h13.48c5.89,0,10-1.24,12-3.57a6.18,6.18,0,0,0,1.31-4.45,4.88,4.88,0,0,1-.09-.93V257.18c0-15.11-21.39-20.92-21.6-21l-.25-.07-29.14-9.25a5,5,0,0,1-2.64-2L390.1,154.42c-1.22-1.54-16.88-20.54-53.6-20.54H32.5c-1.81,0-11,.69-11,11v183c0,.11,0,5.12,3.09,8.2,1.78,1.79,4.32,2.66,7.76,2.66H62a5,5,0,0,1,0,10Z"/><path class="cls-1" d="M352.75,250.12H337.4a5,5,0,0,1,0-10h15.35a5,5,0,0,1,0,10Z"/><path class="cls-1" d="M441.18,227H339.56c-14.17,0-19.36-12.15-19.38-20.32v-37c0-7.4,3-11.83,5.51-14.25,5.69-5.46,13.51-5.5,14.87-5.47h55.62a5,5,0,0,1,0,10h-55.9s-4.82-.09-7.71,2.72c-1.61,1.58-2.39,3.86-2.39,7v37c0,1.68.61,10.33,9.38,10.33H441.18a5,5,0,0,1,0,10Z"/><path class="cls-1" d="M288.5,348.73a5,5,0,0,1-5-5V128.88a5,5,0,0,1,10,0V343.73A5,5,0,0,1,288.5,348.73Z"/><path class="cls-1" d="M496.07,324.12H456.19a5,5,0,1,1,0-10h39.88a5,5,0,1,1,0,10Z"/><path class="cls-1" d="M72.09,324.12H16.48a5,5,0,0,1,0-10H72.09a5,5,0,1,1,0,10Z"/><path class="cls-1" d="M391.28,324.12H135a5,5,0,0,1,0-10h256.3a5,5,0,0,1,0,10Z"/><path class="cls-1" d="M348,295.1H229a5,5,0,0,1,0-10H348a5,5,0,0,1,0,10Z"/></g><g id="Outline"><path class="cls-1" d="M288.5,227H16.5a5,5,0,0,1,0-10h272a5,5,0,0,1,0,10Z"/></g></svg>