<?xml version="1.0" ?><svg enable-background="new 0 0 512 512" version="1.1" viewBox="0 0 512 512" xml:space="preserve" xmlns="http://www.w3.org/2000/svg" xmlns:xlink="http://www.w3.org/1999/xlink"><g id="Colors"><g><g><path d="M95.304,119.971c-1.803,0-3.589-0.662-5.08-2.006c-1.514-1.363-2.311-3.058-2.739-3.968     c-1.845-3.92-3.315-7.892-4.738-11.733l-0.795-2.142c-0.199-0.533-0.393-1.111-0.585-1.689c-0.154-0.462-0.307-0.924-0.465-1.349     c-0.026-0.07-0.054-0.148-0.082-0.232c-1.062-0.24-2.141-0.465-3.253-0.697c-2.253-0.47-4.581-0.955-6.957-1.621     c-0.315-0.089-0.748-0.188-1.254-0.307c-4.68-1.099-13.39-3.143-13.401-10.211c-0.007-2.565,1.493-4.362,2.059-5.039     c3.134-3.754,6.771-6.767,10.287-9.681l1.313-1.09c1.585-1.323,2.862-2.368,3.882-3.189c-1.322-6.696-2.637-16.979-0.863-22.25     c1.226-3.64,3.522-5.081,5.233-5.648c3.001-0.998,5.663,0.184,6.825,0.852c4.501,2.068,12.837,8.453,17.37,12.045     c7.274-4.066,14.78-6.977,17.107-7.757c2.088-0.698,4.045-0.804,5.816-0.311c2.128,0.59,4.105,2.109,5.286,4.063     c0.381,0.632,0.674,1.316,0.876,2.042c0.43,1.543,0.441,3.245,0.032,5.056c-0.537,2.38-2.652,10.064-5.932,17.672     c3.727,3.606,10.355,10.412,13.689,16.206c0.784,1.096,2.217,3.616,1.53,6.695c-0.393,1.759-1.594,4.189-5.091,5.776     c-5.006,2.271-15.185,2.034-21.981,1.413c-3.373,5.935-7.348,11.307-12.086,16.346C99.593,119.043,97.437,119.971,95.304,119.971     z M96.995,110.615h0.011H96.995z M67.509,83.372c1.506,0.503,3.325,0.93,4.131,1.119c0.676,0.158,1.251,0.296,1.672,0.413     c2.048,0.575,4.11,1.005,6.295,1.46c2.007,0.419,4.083,0.852,6.199,1.414c0.774,0.206,1.488,0.595,2.081,1.135l0.065,0.06     c1.427,1.288,1.896,3.032,2.238,4.306c0.038,0.145,0.072,0.279,0.107,0.389c0.17,0.451,0.363,1.029,0.556,1.607     c0.154,0.462,0.307,0.924,0.465,1.349l0.806,2.168c1.224,3.304,2.388,6.448,3.759,9.528c4.056-4.627,7.432-9.584,10.282-15.087     c0.971-1.873,3.005-2.93,5.101-2.656c6.648,0.887,14.469,0.948,18.295,0.245c-3.588-5.506-10.954-12.667-13.697-15.141     c-1.652-1.489-2.122-3.892-1.152-5.894c3.258-6.726,5.525-14.305,6.395-17.602c-3.192,1.198-10.507,4.223-16.866,8.141     c-1.812,1.117-4.132,0.964-5.781-0.381c-4.608-3.754-12.566-9.864-16.649-12.215c-0.301,3.896,0.551,11.629,2.098,18.126     c0.458,1.925-0.262,3.938-1.836,5.137c-0.987,0.751-2.838,2.209-6.05,4.89l-1.341,1.114     C72.117,79.119,69.665,81.151,67.509,83.372z M130.932,92.967c0.004,0.005,0.008,0.01,0.012,0.014     C130.939,92.976,130.936,92.972,130.932,92.967z M131.427,90.257L131.427,90.257L131.427,90.257z M79.524,46.521     c0.006,0.004,0.013,0.009,0.02,0.014C79.537,46.53,79.531,46.526,79.524,46.521z" fill="#3F456B"/></g></g><g><g><path d="M411.593,454.396c-0.495,0-1.013-0.049-1.548-0.161c-1.764-0.371-4.209-1.543-5.839-5.021     c-2.331-4.976-2.221-15.157-1.682-21.961c-5.973-3.3-11.394-7.208-16.492-11.886c-3.406-3.123-3.778-7.781-0.884-11.075     c1.346-1.531,3.03-2.349,3.936-2.787c3.896-1.894,7.852-3.413,11.677-4.883l2.127-0.82c0.533-0.206,1.111-0.408,1.688-0.608     c0.459-0.159,0.918-0.316,1.34-0.479c0.07-0.027,0.146-0.055,0.229-0.084c0.228-1.063,0.438-2.143,0.656-3.257     c0.442-2.259,0.899-4.596,1.538-6.982c0.084-0.313,0.178-0.745,0.289-1.252c1.041-4.694,2.978-13.432,10.047-13.53     c0.031,0,0.062,0,0.093,0c2.524,0,4.302,1.451,4.977,2.002c3.787,3.084,6.844,6.683,9.8,10.164l1.104,1.296     c1.344,1.57,2.406,2.836,3.24,3.847c6.68-1.405,16.946-2.845,22.237-1.135c3.653,1.179,5.123,3.458,5.712,5.162     c1.034,2.99-0.114,5.665-0.768,6.836c-2.013,4.525-8.296,12.94-11.832,17.517c4.151,7.218,7.156,14.689,7.966,17.009     c0.726,2.082,0.853,4.036,0.382,5.813c-0.564,2.137-2.06,4.131-3.997,5.336c-0.627,0.388-1.307,0.688-2.029,0.899     c-1.541,0.452-3.247,0.481-5.062,0.095c-2.385-0.509-10.097-2.53-17.74-5.714c-3.56,3.771-10.283,10.482-16.036,13.887     C415.823,453.282,413.957,454.396,411.593,454.396z M410.644,444.691c-0.005,0.005-0.01,0.009-0.015,0.013     C410.634,444.7,410.639,444.696,410.644,444.691z M394.863,409.834c4.678,3.999,9.676,7.314,15.211,10.097     c1.884,0.947,2.971,2.975,2.718,5.067c-0.805,6.66-0.771,14.478-0.021,18.297c5.451-3.65,12.527-11.106,14.972-13.883     c1.469-1.669,3.862-2.169,5.878-1.223c6.761,3.172,14.371,5.348,17.68,6.178c-1.237-3.176-4.354-10.459-8.347-16.765     c-1.138-1.798-1.014-4.119,0.311-5.785c3.697-4.654,9.71-12.688,12.01-16.798c-3.901-0.253-11.62,0.692-18.098,2.318     c-1.922,0.482-3.941-0.214-5.158-1.771c-0.765-0.979-2.248-2.814-4.968-5.994l-1.127-1.324c-2.154-2.535-4.216-4.963-6.463-7.092     c-0.484,1.513-0.89,3.339-1.068,4.147c-0.149,0.675-0.279,1.25-0.392,1.671c-0.552,2.06-0.957,4.129-1.386,6.32     c-0.394,2.011-0.8,4.089-1.336,6.21c-0.195,0.772-0.571,1.486-1.099,2.084l-0.059,0.066c-1.283,1.454-3.021,1.944-4.289,2.302     c-0.144,0.041-0.278,0.076-0.387,0.112c-0.449,0.176-1.021,0.375-1.594,0.573c-0.463,0.161-0.926,0.32-1.352,0.484l-2.153,0.83     C401.059,407.221,397.928,408.425,394.863,409.834z M410.432,398.28h0.01H410.432z M457.244,395.372     C457.245,395.372,457.245,395.372,457.244,395.372C457.244,395.372,457.244,395.372,457.244,395.372z M456.455,392.721     c-0.003,0.004-0.006,0.009-0.01,0.015C456.449,392.73,456.452,392.726,456.455,392.721z" fill="#3F456B"/></g></g><g><path d="M414.734,106.345c-2.748,0-4.983-2.22-4.999-4.972l-0.077-13.54c-0.016-2.761,2.21-5.013,4.972-5.028    c0.01,0,0.02,0,0.029,0c2.748,0,4.983,2.22,4.999,4.972l0.077,13.54c0.016,2.761-2.21,5.013-4.972,5.028    C414.754,106.345,414.744,106.345,414.734,106.345z" fill="#3F456B"/></g><g><path d="M456.217,146.838c-2.744,0-4.979-2.215-4.999-4.964c-0.02-2.762,2.203-5.017,4.964-5.036l12.999-0.093    c0.013,0,0.024,0,0.037,0c2.744,0,4.979,2.215,4.999,4.964c0.02,2.762-2.203,5.017-4.964,5.036l-12.999,0.093    C456.241,146.838,456.229,146.838,456.217,146.838z" fill="#3F456B"/></g><g><path d="M450.467,126.385c-1.718,0-3.391-0.887-4.32-2.477c-1.395-2.383-0.593-5.446,1.791-6.84l11.537-6.749    c2.382-1.396,5.446-0.593,6.84,1.791c1.395,2.383,0.593,5.446-1.791,6.84l-11.537,6.749    C452.193,126.164,451.324,126.385,450.467,126.385z" fill="#3F456B"/></g><g><path d="M435.437,111.674c-0.839,0-1.689-0.212-2.47-0.656c-2.399-1.367-3.236-4.421-1.87-6.819l6.668-11.704    c1.367-2.4,4.423-3.234,6.819-1.87c2.399,1.367,3.236,4.421,1.87,6.819l-6.668,11.704    C438.864,110.767,437.175,111.674,435.437,111.674z" fill="#3F456B"/></g><g><path d="M414.817,105.022c-2.744,0-4.979-2.214-4.999-4.963l-0.092-12.219c-0.021-2.761,2.201-5.017,4.963-5.037    c0.012,0,0.025,0,0.038,0c2.744,0,4.979,2.214,4.999,4.963l0.092,12.219c0.021,2.761-2.201,5.017-4.963,5.037    C414.844,105.022,414.83,105.022,414.817,105.022z" fill="#3F456B"/></g><g><path d="M393.654,110.565c-1.719,0-3.391-0.887-4.32-2.477l-6.292-10.757c-1.395-2.384-0.593-5.446,1.791-6.84    c2.383-1.396,5.447-0.591,6.84,1.791l6.292,10.757c1.395,2.384,0.593,5.446-1.791,6.84    C395.381,110.345,394.512,110.565,393.654,110.565z" fill="#3F456B"/></g><g><path d="M378.933,126.104c-0.839,0-1.689-0.212-2.471-0.657l-11.244-6.407c-2.399-1.366-3.235-4.42-1.868-6.819    c1.367-2.398,4.42-3.235,6.819-1.868l11.244,6.407c2.399,1.366,3.235,4.42,1.868,6.819    C382.359,125.197,380.671,126.104,378.933,126.104z" fill="#3F456B"/></g><g><path d="M360.781,146.619c-2.745,0-4.979-2.215-4.999-4.965c-0.02-2.761,2.203-5.016,4.965-5.035l13-0.092    c0.012,0,0.024,0,0.036,0c2.745,0,4.979,2.215,4.999,4.965c0.02,2.761-2.203,5.016-4.965,5.035l-13,0.092    C360.806,146.619,360.793,146.619,360.781,146.619z" fill="#3F456B"/></g><g><g><path d="M23.331,445.201c-2.754,0-4.99-2.228-5-4.983c-0.01-2.761,2.222-5.007,4.983-5.017l11.726-0.04     c0.005,0,0.012,0,0.017,0c2.754,0,4.99,2.228,5,4.983c0.01,2.761-2.222,5.007-4.983,5.017l-11.726,0.04     C23.343,445.201,23.336,445.201,23.331,445.201z" fill="#384169"/></g><g><path d="M106.068,444.939c-2.749,0-4.984-2.222-4.999-4.975c-0.015-2.761,2.213-5.011,4.975-5.025l10.582-0.055     c0.009,0,0.018,0,0.026,0c2.749,0,4.984,2.222,4.999,4.975c0.015,2.761-2.213,5.011-4.975,5.025l-10.582,0.055     C106.086,444.939,106.077,444.939,106.068,444.939z" fill="#384169"/></g></g><g><g><path d="M101.318,426.597c-1.723,0-3.398-0.891-4.327-2.486c-1.388-2.388-0.579-5.448,1.808-6.837l9.328-5.427     c2.388-1.39,5.448-0.58,6.837,1.808c1.388,2.388,0.579,5.448-1.808,6.837l-9.328,5.427     C103.037,426.378,102.172,426.597,101.318,426.597z" fill="#384169"/></g></g><g><g><path d="M87.88,413.825c-0.843,0-1.697-0.214-2.48-0.663c-2.396-1.372-3.226-4.428-1.853-6.823l5.572-9.726     c1.371-2.396,4.428-3.228,6.823-1.853c2.396,1.372,3.226,4.428,1.853,6.823l-5.572,9.726     C91.3,412.922,89.614,413.825,87.88,413.825z" fill="#384169"/></g></g><g><g><path d="M70.207,409.318c-2.75,0-4.985-2.223-4.999-4.977l-0.054-11.259c-0.013-2.761,2.215-5.01,4.977-5.023     c0.008,0,0.016,0,0.024,0c2.75,0,4.985,2.223,4.999,4.977l0.054,11.259c0.013,2.761-2.215,5.01-4.977,5.023     C70.224,409.318,70.216,409.318,70.207,409.318z" fill="#384169"/></g></g><g><g><path d="M52.487,414.263c-1.723,0-3.398-0.891-4.326-2.486l-5.821-10.005c-1.389-2.387-0.58-5.447,1.807-6.836     c2.387-1.392,5.448-0.58,6.836,1.807l5.821,10.005c1.389,2.387,0.58,5.447-1.807,6.836     C54.206,414.044,53.341,414.263,52.487,414.263z" fill="#384169"/></g></g><g><g><path d="M39.708,427.241c-0.843,0-1.696-0.214-2.48-0.662l-10.122-5.799c-2.396-1.373-3.226-4.429-1.854-6.824     s4.426-3.225,6.824-1.854l10.122,5.799c2.396,1.373,3.226,4.429,1.854,6.824C43.128,426.338,41.442,427.241,39.708,427.241z" fill="#384169"/></g></g><g><g><path d="M104.925,444.865c-2.754,0-4.99-2.228-5-4.983c-0.01-2.761,2.222-5.007,4.983-5.017l11.727-0.04     c0.005,0,0.012,0,0.017,0c2.754,0,4.99,2.228,5,4.983c0.01,2.761-2.222,5.007-4.983,5.017l-11.727,0.04     C104.937,444.865,104.93,444.865,104.925,444.865z" fill="#384169"/></g><g><path d="M23.33,445.142c-2.749,0-4.984-2.222-4.999-4.975c-0.015-2.761,2.213-5.011,4.975-5.025l10.581-0.055     c0.009,0,0.018,0,0.026,0c2.749,0,4.984,2.222,4.999,4.975c0.015,2.761-2.213,5.011-4.975,5.025l-10.581,0.055     C23.348,445.142,23.339,445.142,23.33,445.142z" fill="#384169"/></g></g><g><g><path d="M29.345,468.859c-1.723,0-3.398-0.891-4.326-2.486c-1.389-2.387-0.58-5.447,1.807-6.836l9.329-5.428     c2.387-1.392,5.448-0.58,6.836,1.807c1.389,2.387,0.58,5.447-1.807,6.836l-9.329,5.428     C31.063,468.641,30.198,468.859,29.345,468.859z" fill="#384169"/></g></g><g><g><path d="M46.521,485.929c-0.843,0-1.696-0.214-2.48-0.662c-2.396-1.373-3.226-4.428-1.854-6.824l5.571-9.726     c1.372-2.396,4.426-3.225,6.824-1.854c2.396,1.373,3.226,4.428,1.854,6.824l-5.571,9.726     C49.94,485.025,48.255,485.929,46.521,485.929z" fill="#384169"/></g></g><g><g><path d="M69.826,491.967c-2.75,0-4.985-2.223-4.999-4.977l-0.054-11.259c-0.013-2.761,2.215-5.01,4.977-5.023     c0.008,0,0.016,0,0.024,0c2.75,0,4.985,2.223,4.999,4.977l0.054,11.259c0.013,2.761-2.215,5.01-4.977,5.023     C69.843,491.967,69.835,491.967,69.826,491.967z" fill="#384169"/></g></g><g><g><path d="M93.325,485.771c-1.723,0-3.398-0.891-4.327-2.486l-5.821-10.006c-1.388-2.387-0.579-5.448,1.808-6.837     s5.448-0.579,6.837,1.808l5.821,10.006c1.388,2.387,0.579,5.448-1.808,6.837C95.044,485.553,94.179,485.771,93.325,485.771z" fill="#384169"/></g></g><g><g><path d="M110.386,468.586c-0.843,0-1.696-0.214-2.48-0.662l-10.122-5.799c-2.396-1.373-3.226-4.429-1.854-6.824     s4.426-3.225,6.824-1.854l10.122,5.799c2.396,1.373,3.226,4.429,1.854,6.824C113.806,467.683,112.12,468.586,110.386,468.586z" fill="#384169"/></g></g><g><g><path d="M70.651,462.796c-12.683,0-23-10.317-23-23s10.317-23,23-23s23,10.317,23,23     S83.334,462.796,70.651,462.796z M70.651,426.796c-7.168,0-13,5.832-13,13s5.832,13,13,13s13-5.832,13-13     S77.819,426.796,70.651,426.796z" fill="#384169"/></g></g></g><g id="Lines"><g><g><g><path d="M342.502,353.497c-1.53,0-3.041-0.699-4.021-2.023c-1.644-2.219-1.178-5.351,1.041-6.994      c0.117-0.087,11.839-8.767,25.655-18.735l22.352-16.65c0.863-0.643,1.911-0.99,2.987-0.99h39.665c2.762,0,5,2.238,5,5      s-2.238,5-5,5h-38.008l-21.083,15.705c-13.828,9.978-25.499,18.62-25.615,18.706      C344.579,353.178,343.536,353.497,342.502,353.497z" fill="#3F456B"/></g><g><path d="M429.962,196.937h-38.279c-1.672,0-3.233-0.836-4.16-2.227c-6.82-10.23-19.895-17.053-38.859-20.278      c-2.723-0.464-4.555-3.046-4.092-5.768c0.464-2.723,3.052-4.549,5.768-4.092c20.478,3.483,35.233,11.002,43.914,22.364h35.709      c2.762,0,5,2.238,5,5S432.724,196.937,429.962,196.937z" fill="#3F456B"/></g></g></g><g><g><g><path d="M121.107,203.152H80.439c-2.762,0-5-2.238-5-5s2.238-5,5-5h39.011l21.083-15.705      c14.018-10.114,23.814-17.156,23.814-17.156c2.241-1.612,5.366-1.101,6.978,1.142c1.612,2.242,1.101,5.366-1.142,6.978      c-0.001,0.002-9.792,7.039-23.737,17.102l-22.352,16.65C123.231,202.805,122.184,203.152,121.107,203.152z" fill="#3F456B"/></g><g><path d="M161.381,346.295c-0.313,0-0.632-0.029-0.95-0.091c-20.358-3.917-34.821-11.273-43.048-21.886H80.658      c-2.762,0-5-2.238-5-5s2.238-5,5-5h39.282c1.672,0,3.233,0.836,4.16,2.227c7.892,11.838,25.14,17.322,38.219,19.839      c2.712,0.521,4.487,3.144,3.966,5.854C165.824,344.631,163.729,346.295,161.381,346.295z" fill="#3F456B"/></g></g></g><g><g><g><path d="M198.336,436.997c-2.762,0-5-2.238-5-5v-40.008l-15.705-21.083      c-10.113-14.019-17.155-23.813-17.155-23.813c-0.035-0.049-0.069-0.099-0.103-0.148l-39.088-58.729      c-0.142-0.213-0.267-0.436-0.374-0.667c-5.737-12.372-2.089-24.868,9.078-31.097c12.731-7.073,27.774-2.628,36.662,10.804      l3.297,4.216c1.701,2.175,1.316,5.317-0.858,7.019s-5.316,1.316-7.019-0.858l-3.423-4.377c-0.087-0.111-0.17-0.227-0.247-0.345      c-4.963-7.596-14.169-12.931-23.548-7.721c-6.513,3.633-8.378,10.277-5.021,17.82l38.815,58.318      c0.66,0.918,7.489,10.416,17.048,23.665l16.65,22.352c0.643,0.863,0.99,1.911,0.99,2.987v41.665      C203.336,434.759,201.098,436.997,198.336,436.997z" fill="#3F456B"/></g><g><path d="M319.503,436.778c-2.762,0-5-2.238-5-5v-40.279c0-1.672,0.835-3.232,2.227-4.16      c24.383-16.257,22.563-70.364,22.542-70.909c-0.006-0.146-0.005-0.292,0.002-0.438c0.761-15.552,0.603-31.464,0.449-46.854      c-0.046-4.65-0.092-9.301-0.114-13.948c0-1.171-0.049-10.539-0.098-19.876c-0.015-2.762,2.213-5.012,4.974-5.026      c2.77-0.039,5.012,2.213,5.026,4.974c0.049,9.362,0.098,18.754,0.098,19.904c0.022,4.606,0.068,9.239,0.114,13.874      c0.153,15.464,0.312,31.452-0.451,47.229c0.15,4.513,1.327,57.501-24.769,77.786v37.725      C324.503,434.54,322.265,436.778,319.503,436.778z" fill="#3F456B"/></g></g></g><g><g><g><path d="M302.93,356.937c-13.49,0-24.465-9.867-24.465-21.996c0-2.762,2.238-5,5-5s5,2.238,5,5      c0,6.614,6.489,11.996,14.465,11.996c7.986,0,14.484-5.349,14.484-11.924l-1.147-138.718c-0.022-2.761,2.197-5.018,4.959-5.041      c0.014,0,0.028,0,0.042,0c2.742,0,4.977,2.211,4.999,4.959l1.147,138.759C327.414,347.102,316.431,356.937,302.93,356.937z" fill="#3F456B"/></g><g><path d="M263.987,373.253c-13.497,0-24.478-9.87-24.478-22.003v-17.319c0-2.762,2.238-5,5-5s5,2.238,5,5v17.319      c0,6.618,6.494,12.003,14.478,12.003s14.478-5.347,14.478-11.918V247.221c0-2.762,2.238-5,5-5s5,2.238,5,5v104.114      C288.465,363.421,277.484,373.253,263.987,373.253z" fill="#3F456B"/></g><g><path d="M225.031,355.854c-13.501,0-24.484-9.873-24.484-22.009v-86.625c0-2.762,2.238-5,5-5s5,2.238,5,5v86.625      c0,6.622,6.498,12.009,14.484,12.009c7.983,0,14.479-5.349,14.479-11.924v-86.71c0-2.762,2.238-5,5-5s5,2.238,5,5v86.71      C249.51,346.02,238.528,355.854,225.031,355.854z" fill="#3F456B"/></g><g><path d="M369.055,258.138c-9.102,0.001-18.023-4.979-24.084-14.139l-27.054-34.644      c-1.7-2.176-1.313-5.318,0.863-7.018c2.176-1.702,5.319-1.312,7.018,0.863l27.179,34.803c0.087,0.11,0.168,0.225,0.245,0.342      c4.965,7.596,14.175,12.928,23.549,7.72c6.513-3.632,8.378-10.277,5.021-17.819l-38.815-58.319      c-0.661-0.919-7.49-10.416-17.049-23.664l-16.65-22.352c-0.643-0.863-0.99-1.911-0.99-2.987V79.003c0-2.762,2.238-5,5-5      s5,2.238,5,5v40.264l15.705,21.083c10.114,14.017,17.156,23.812,17.156,23.812c0.035,0.049,0.069,0.099,0.103,0.148      l39.088,58.729c0.142,0.213,0.267,0.436,0.374,0.667c5.737,12.37,2.09,24.867-9.078,31.096      C377.585,257.053,373.3,258.138,369.055,258.138z" fill="#3F456B"/></g><g><path d="M186.64,317.533c-6.336,0.001-12.342-2.177-16.925-6.138c-4.812-4.16-7.478-9.755-7.505-15.752      c-0.014-2.278-0.188-37.253-0.194-39.539c-0.022-4.625-0.068-9.261-0.114-13.897c-0.154-15.461-0.312-31.446,0.451-47.219      c-0.15-4.513-1.329-57.502,24.769-77.786V79.501c0-2.762,2.238-5,5-5s5,2.238,5,5v40.256c0,1.672-0.836,3.232-2.227,4.16      c-24.339,16.227-22.562,70.366-22.542,70.911c0.006,0.145,0.005,0.292-0.002,0.437c-0.761,15.548-0.603,31.457-0.45,46.843      c0.047,4.654,0.093,9.308,0.115,13.958c0.007,2.294,0.181,37.241,0.194,39.525c0.014,3.073,1.45,5.997,4.045,8.239      c2.765,2.39,6.45,3.703,10.387,3.703c0.03,0,0.061,0,0.091,0c3.865-0.018,7.358-1.315,9.838-3.653      c2.33-2.197,3.604-5.159,3.587-8.342c-0.015-2.762,2.213-5.012,4.974-5.026c0.009,0,0.019,0,0.027,0      c2.749,0,4.984,2.222,4.999,4.974c0.031,5.985-2.357,11.55-6.726,15.67c-4.331,4.084-10.244,6.349-16.651,6.378      C186.733,317.533,186.686,317.533,186.64,317.533z" fill="#3F456B"/></g></g></g><g><path d="M392.466,30.837c-1.279,0-2.56-0.488-3.536-1.465c-1.952-1.952-1.952-5.118,0.001-7.071l8.018-8.017    c1.953-1.951,5.118-1.952,7.071,0.001c1.952,1.952,1.952,5.118-0.001,7.071l-8.018,8.017    C395.024,30.349,393.745,30.837,392.466,30.837z" fill="#3F456B"/></g><g><path d="M365.104,58.18c-1.279,0-2.56-0.488-3.535-1.465c-1.953-1.952-1.953-5.118,0-7.07l8.017-8.017    c1.951-1.953,5.119-1.953,7.07,0c1.953,1.952,1.953,5.118,0,7.07l-8.017,8.017C367.663,57.691,366.383,58.18,365.104,58.18z" fill="#3F456B"/></g><g><path d="M400.473,58.19c-1.279,0-2.56-0.488-3.536-1.465l-8.017-8.018c-1.952-1.952-1.952-5.118,0.001-7.071    c1.953-1.951,5.118-1.952,7.071,0.001l8.017,8.018c1.952,1.952,1.952,5.118-0.001,7.071    C403.031,57.702,401.752,58.19,400.473,58.19z" fill="#3F456B"/></g><g><path d="M373.13,30.827c-1.279,0-2.56-0.488-3.536-1.465l-8.017-8.018c-1.952-1.952-1.952-5.118,0.001-7.071    c1.953-1.951,5.118-1.952,7.071,0.001l8.017,8.018c1.952,1.952,1.952,5.118-0.001,7.071    C375.688,30.339,374.409,30.827,373.13,30.827z" fill="#3F456B"/></g><g><g><path d="M328,501H189c-8.271,0-15-6.729-15-15v-44c0-8.271,6.729-15,15-15h139c8.271,0,15,6.729,15,15v44     C343,494.271,336.271,501,328,501z M189,437c-2.757,0-5,2.243-5,5v44c0,2.757,2.243,5,5,5h139c2.757,0,5-2.243,5-5v-44     c0-2.757-2.243-5-5-5H189z" fill="#3F456B"/></g></g><g><g><path d="M70,343H26c-8.271,0-15-6.729-15-15V189c0-8.271,6.729-15,15-15h44c8.271,0,15,6.729,15,15v139     C85,336.271,78.271,343,70,343z M26,184c-2.757,0-5,2.243-5,5v139c0,2.757,2.243,5,5,5h44c2.757,0,5-2.243,5-5V189     c0-2.757-2.243-5-5-5H26z" fill="#3F456B"/></g></g><g><g><path d="M485,337h-44c-8.271,0-15-6.729-15-15V183c0-8.271,6.729-15,15-15h44c8.271,0,15,6.729,15,15v139     C500,330.271,493.271,337,485,337z M441,178c-2.757,0-5,2.243-5,5v139c0,2.757,2.243,5,5,5h44c2.757,0,5-2.243,5-5V183     c0-2.757-2.243-5-5-5H441z" fill="#3F456B"/></g></g><g><g><path d="M322,84H183c-8.271,0-15-6.729-15-15V25c0-8.271,6.729-15,15-15h139c8.271,0,15,6.729,15,15v44     C337,77.271,330.271,84,322,84z M183,20c-2.757,0-5,2.243-5,5v44c0,2.757,2.243,5,5,5h139c2.757,0,5-2.243,5-5V25     c0-2.757-2.243-5-5-5H183z" fill="#3F456B"/></g></g><g><path d="M149.939,160.359c-1.43-2.369-0.659-5.439,1.71-6.859l0,0c2.37-1.431,5.44-0.66,6.86,1.71l0,0    c1.42,2.37,0.65,5.439-1.71,6.859l0,0c-0.81,0.48-1.7,0.71-2.57,0.71l0,0C152.53,162.779,150.87,161.92,149.939,160.359z     M139.17,143.96c-1.61-2.25-1.08-5.37,1.18-6.97l0,0c2.24-1.601,5.36-1.08,6.97,1.17l0,0c1.601,2.26,1.07,5.38-1.18,6.979l0,0    c-0.88,0.62-1.89,0.92-2.89,0.92l0,0C141.68,146.06,140.14,145.33,139.17,143.96z M127.24,128.279L127.24,128.279    c-1.74-2.14-1.41-5.289,0.729-7.029l0,0c2.15-1.74,5.3-1.41,7.03,0.729l0,0c0,0,0,0,0.01,0l0,0c1.74,2.15,1.41,5.3-0.74,7.04l0,0    c-0.92,0.75-2.04,1.11-3.14,1.11l0,0C129.67,130.13,128.229,129.5,127.24,128.279z M114.39,113.46c-1.91-1.99-1.84-5.16,0.15-7.07    l0,0c1.99-1.91,5.16-1.84,7.069,0.15l0,0l0,0l0,0c1.91,2,1.841,5.16-0.149,7.069l0,0C120.49,114.54,119.24,115,118,115l0,0    C116.68,115,115.37,114.479,114.39,113.46z" fill="#384169"/></g><g><path d="M390.95,388.319c-2.131-1.75-2.431-4.909-0.681-7.04l0,0c1.761-2.13,4.91-2.43,7.04-0.67l0,0    c2.13,1.75,2.44,4.9,0.681,7.03l0,0c-0.99,1.2-2.421,1.82-3.86,1.82l0,0C393.01,389.46,391.89,389.09,390.95,388.319z     M376.01,373.939c-1.84-2.05-1.67-5.21,0.39-7.06l0,0c2.051-1.84,5.21-1.67,7.051,0.39l0,0c1.85,2.05,1.68,5.21-0.381,7.05l0,0    c-0.949,0.86-2.149,1.28-3.34,1.28l0,0C378.359,375.6,377,375.04,376.01,373.939z M363.28,357.67    c-1.561-2.28-0.971-5.391,1.31-6.95l0,0c2.28-1.55,5.39-0.97,6.95,1.32l0,0l0,0l0,0c1.56,2.279,0.97,5.39-1.32,6.95l0,0    c-0.86,0.579-1.84,0.859-2.81,0.859l0,0C365.819,359.85,364.25,359.09,363.28,357.67z M352.77,339.62L352.77,339.62    c-1.14-2.521-0.01-5.48,2.511-6.61l0,0c2.52-1.14,5.479-0.01,6.609,2.51l0,0c1.13,2.521,0.01,5.48-2.51,6.61l0,0    c-0.67,0.3-1.36,0.439-2.05,0.439l0,0C355.42,342.569,353.6,341.47,352.77,339.62z" fill="#384169"/></g><g><path d="M118.3,393.55c-1.95-1.96-1.93-5.12,0.03-7.07l0,0c1.96-1.939,5.12-1.93,7.069,0.03l0,0    c1.94,1.96,1.931,5.13-0.029,7.07l0,0l0,0l0,0c-0.971,0.97-2.25,1.449-3.521,1.449l0,0C120.56,395.029,119.28,394.54,118.3,393.55    z M132.72,379.649c-1.86-2.04-1.71-5.199,0.34-7.06l0,0c2.04-1.86,5.2-1.71,7.061,0.33l0,0c1.859,2.04,1.71,5.21-0.33,7.07l0,0    c-0.96,0.869-2.17,1.3-3.37,1.3l0,0C135.06,381.29,133.71,380.74,132.72,379.649z M147.62,366.26c-1.82-2.08-1.61-5.24,0.479-7.06    l-0.01,0.01c2.08-1.82,5.24-1.61,7.06,0.47l0,0c1.811,2.08,1.601,5.24-0.479,7.05l0,0c0,0,0,0,0,0.011l0,0    c-0.95,0.819-2.12,1.229-3.29,1.229l0,0C149.99,367.97,148.609,367.39,147.62,366.26z M162.77,353.109    c-1.779-2.109-1.51-5.26,0.601-7.04h0.01c2.11-1.779,5.26-1.51,7.04,0.61l0,0c1.78,2.11,1.51,5.26-0.61,7.04l0,0l0,0l0,0    c-0.93,0.79-2.08,1.18-3.21,1.18l0,0C165.17,354.899,163.76,354.29,162.77,353.109z" fill="#384169"/></g></g></svg>