<?xml version="1.0" ?><svg viewBox="0 0 512 512" xmlns="http://www.w3.org/2000/svg"><defs><style>.cls-1{fill:#3f456b;}</style></defs><title/><g id="Lines"><path class="cls-1" d="M461,344a5,5,0,0,1-5-5V243H402v87a5,5,0,0,1-10,0V238a5,5,0,0,1,5-5h64a5,5,0,0,1,5,5V339A5,5,0,0,1,461,344Z"/><path class="cls-1" d="M437,224H421a15,15,0,0,1-15-15V197a15,15,0,0,1,15-15h16a15,15,0,0,1,15,15v12A15,15,0,0,1,437,224Zm-16-32a5,5,0,0,0-5,5v12a5,5,0,0,0,5,5h16a5,5,0,0,0,5-5V197a5,5,0,0,0-5-5Z"/><path class="cls-1" d="M429,242a5,5,0,0,1-5-5V219a5,5,0,0,1,10,0v18A5,5,0,0,1,429,242Z"/><path class="cls-1" d="M429,192a5,5,0,0,1-5-5V165a5,5,0,0,1,10,0v22A5,5,0,0,1,429,192Z"/><path class="cls-1" d="M484,361a5.06,5.06,0,0,1-2-.4A5,5,0,0,1,479.4,354c7.43-17.32,8.43-31.57,3-42.35-6.91-13.68-22.35-17.44-22.5-17.47a5,5,0,0,1,2.23-9.75c.81.18,20,4.73,29.14,22.59,6.91,13.56,6,30.69-2.65,50.92A5,5,0,0,1,484,361Z"/><path class="cls-1" d="M197.41,132.91a19.34,19.34,0,1,1,19.33-19.34A19.36,19.36,0,0,1,197.41,132.91Zm0-28.67a9.34,9.34,0,1,0,9.33,9.33A9.34,9.34,0,0,0,197.41,104.24Z"/><path class="cls-1" d="M429.41,168.91a19.34,19.34,0,1,1,19.33-19.34A19.36,19.36,0,0,1,429.41,168.91Zm0-28.67a9.34,9.34,0,1,0,9.33,9.33A9.34,9.34,0,0,0,429.41,140.24Z"/><path class="cls-1" d="M248,371a5,5,0,0,1-5-5V320a5,5,0,0,1,5-5H349a5,5,0,0,1,5,5v35a5,5,0,0,1-10,0V325H253v41A5,5,0,0,1,248,371Z"/><path class="cls-1" d="M338.52,325.08a5,5,0,0,1,0-10c11.21,0,17.79-16.93,17.85-17.11s0-.08.05-.13,12.61-31.36,16.11-40c2.74-6.79,1.19-15,1.06-15.7-3.44-13.92-8.25-31.45-8.29-31.62s-.05-.2-.08-.3c-.19-.85-1.18-3.63-3-4.71-.39-.23-1.55-.92-4.15-.18-1.86.53-4.28,1.55-5.21,3.37a5.27,5.27,0,0,0-.18,3.72c.05.14.1.27.14.42l7.87,29a1.42,1.42,0,0,1,.05.22,26.28,26.28,0,0,1-2.58,17c-3.52,6.67-18.62,39.71-18.77,40a5,5,0,0,1-4.55,2.92h0l-78.33-.17c-2.62,0-8.75.69-11.08,3a2.44,2.44,0,0,0-.79,1.92c0,5,1.29,6.17,1.71,6.56,1.28,1.18,3.95,1.77,7.94,1.77a5,5,0,0,1,0,10c-13.22,0-19.65-6-19.65-18.33a12.46,12.46,0,0,1,3.77-9c5.93-5.86,16.93-5.89,18.17-5.88l75.07.16c3.83-8.36,14.63-31.83,17.68-37.61a16.72,16.72,0,0,0,1.68-10.1l-7.78-28.66a15.08,15.08,0,0,1,.73-11.47c2.05-4,5.88-6.89,11.38-8.46s9.68-.2,12.08,1.25c5.54,3.34,7.26,9.68,7.57,11,.43,1.56,5,18.38,8.35,31.85l0,.13c.1.47,2.48,11.63-1.55,21.62-3.41,8.46-15.49,38.51-16.08,40C365.07,303.24,356.45,325.08,338.52,325.08Z"/><path class="cls-1" d="M89,263a5,5,0,0,1-5-5V225.29a5,5,0,0,1,1.31-3.38l26.85-29.36a5,5,0,1,1,7.38,6.74L94,227.23V258A5,5,0,0,1,89,263Z"/><path class="cls-1" d="M169.92,224.82q-3,0-6.11-.28c-17.9-1.66-35.94-10.77-50.81-25.64S89,166,87.37,148.1c-1.8-19.37,4.9-37.26,19.38-51.73a5,5,0,0,1,7.07,0L215.54,198.08a5,5,0,0,1,0,7.07C202.59,218.09,186.93,224.82,169.92,224.82ZM110.42,107.1c-10,11.59-14.46,25.35-13.1,40.07,1.45,15.58,9.52,31.44,22.75,44.66s29.08,21.3,44.66,22.75c14.72,1.37,28.48-3.15,40.07-13.1Z"/><path class="cls-1" d="M162.51,153.43a5,5,0,0,1-3.53-8.54l24.32-24.32a5,5,0,1,1,7.08,7.07L166.05,152A5,5,0,0,1,162.51,153.43Z"/><path class="cls-1" d="M186.49,312.53a5,5,0,0,1-4.88-3.91c-.32-1.45-7.57-35.87,28.7-59.18a5,5,0,1,1,5.41,8.41c-30.46,19.58-24.41,48.3-24.35,48.59a5,5,0,0,1-3.78,6A5.22,5.22,0,0,1,186.49,312.53Z"/><path class="cls-1" d="M224.67,273.91a5,5,0,0,1-4-2l-23.3-30.53a5,5,0,0,1,8-6.07l23.3,30.54a5,5,0,0,1-4,8Z"/><path class="cls-1" d="M246,345H209a5,5,0,0,1,0-10h37a5,5,0,0,1,0,10Z"/><path class="cls-1" d="M297.5,302a5,5,0,0,1-5-5V214a5,5,0,0,1,10,0v83A5,5,0,0,1,297.5,302Z"/><path class="cls-1" d="M319,219H276a5,5,0,0,1,0-10h43a5,5,0,0,1,0,10Z"/><path class="cls-1" d="M429,263a5,5,0,0,1-5-5v-1a5,5,0,0,1,10,0v1A5,5,0,0,1,429,263Z"/><path class="cls-1" d="M397,335a5,5,0,0,1-4.12-2.17l-29.5-43a5,5,0,0,1,8.24-5.66l29.5,43A5,5,0,0,1,397,335Z"/><path class="cls-1" d="M362.7,169.18c-7,0-13.46-2.14-18-6.05-11.29-9.73-10.67-29.19-2.6-39.44,8.45-10.73,22.53-13.27,35.05-6.31,8.31,4.61,14.17,12.33,15.69,20.65,1.36,7.43-.75,14.7-6.11,21-4.73,5.59-12.68,9.33-21.28,10C364.54,169.15,363.61,169.18,362.7,169.18Zm.09-45.68A16.06,16.06,0,0,0,350,129.88c-5.19,6.59-5.62,19.74,1.27,25.68,3.11,2.68,8,4,13.44,3.54,5.9-.46,11.43-2.95,14.43-6.5,3.4-4,4.72-8.32,3.9-12.78-1-5.32-5.07-10.57-10.71-13.7A19.55,19.55,0,0,0,362.79,123.5Z"/><path class="cls-1" d="M89.23,500.74a77,77,0,1,1,77-77A77.09,77.09,0,0,1,89.23,500.74Zm0-144a67,67,0,1,0,67,67A67.08,67.08,0,0,0,89.23,356.74Z"/><path class="cls-1" d="M89.35,468.23a45,45,0,1,1,45-45A45.05,45.05,0,0,1,89.35,468.23Zm0-80a35,35,0,1,0,35,35A35,35,0,0,0,89.35,388.23Z"/><path class="cls-1" d="M416.23,500.74a77,77,0,1,1,77-77A77.09,77.09,0,0,1,416.23,500.74Zm0-144a67,67,0,1,0,67,67A67.08,67.08,0,0,0,416.23,356.74Z"/><path class="cls-1" d="M416.35,468.23a45,45,0,1,1,45-45A45.05,45.05,0,0,1,416.35,468.23Zm0-80a35,35,0,1,0,35,35A35,35,0,0,0,416.35,388.23Z"/><path class="cls-1" d="M89,357a5,5,0,0,1-5-5V309a5,5,0,0,1,10,0v43A5,5,0,0,1,89,357Z"/><path class="cls-1" d="M55.73,320.7a5,5,0,0,1-4.86-3.83L39.63,270.21a5,5,0,0,1,.6-3.79,5,5,0,0,1,3.09-2.25l77.78-18.73a5,5,0,0,1,6,3.69l11.24,46.66a5,5,0,0,1-.6,3.79,5,5,0,0,1-3.09,2.25L56.9,320.56A4.68,4.68,0,0,1,55.73,320.7Zm-5.21-48,8.9,36.95,68.06-16.39-8.9-36.95Z"/><path class="cls-1" d="M131.74,292.42a5,5,0,0,1-4.86-3.83l-7.25-30.1a5,5,0,0,1,3.69-6l24.6-5.92a5,5,0,0,1,6,3.69l7.25,30.1a5,5,0,0,1-3.69,6l-24.6,5.93A5.2,5.2,0,0,1,131.74,292.42ZM130.52,261l4.91,20.38,14.88-3.59-4.91-20.38Z"/><path class="cls-1" d="M49.94,318.14a26.26,26.26,0,0,1-5.53-51.92A5,5,0,0,1,46.54,276a16.26,16.26,0,0,0,6.91,31.77,5,5,0,1,1,2.13,9.77A26.46,26.46,0,0,1,49.94,318.14Z"/><path class="cls-1" d="M184,428H161a5,5,0,0,1,0-10h17.86A90.11,90.11,0,0,0,89,333a5,5,0,0,1,0-10A100.11,100.11,0,0,1,189,423,5,5,0,0,1,184,428Z"/><path class="cls-1" d="M89.35,444.73a21.5,21.5,0,1,1,21.5-21.5A21.53,21.53,0,0,1,89.35,444.73Zm0-33a11.5,11.5,0,1,0,11.5,11.5A11.51,11.51,0,0,0,89.35,411.73Z"/><path class="cls-1" d="M416.35,444.73a21.5,21.5,0,1,1,21.5-21.5A21.53,21.53,0,0,1,416.35,444.73Zm0-33a11.5,11.5,0,1,0,11.5,11.5A11.51,11.51,0,0,0,416.35,411.73Z"/><path class="cls-1" d="M344,429H320a5,5,0,0,1-5-5A101,101,0,0,1,500.69,369a5,5,0,0,1-1.48,6.93l-19.9,12.82a5,5,0,1,1-5.41-8.4l15.56-10A91,91,0,0,0,325.14,419H344a5,5,0,0,1,0,10Z"/><path class="cls-1" d="M322,405H182a5,5,0,0,1,0-10H322a5,5,0,0,1,0,10Z"/><path class="cls-1" d="M337,372H166a5,5,0,0,1,0-10H337a5,5,0,0,1,0,10Z"/><path class="cls-1" d="M204.55,452H158a5,5,0,0,1,0-10h46.2c.09,0,10.68.3,16.31-5.14,2.35-2.27,3.49-5.26,3.49-9.16V401a5,5,0,0,1,10,0v26.7c0,6.68-2.21,12.2-6.58,16.4C219.71,451.5,207.69,452,204.55,452Z"/><path class="cls-1" d="M296.45,452c-3.14,0-15.16-.51-22.87-7.91-4.37-4.2-6.58-9.72-6.58-16.4V401a5,5,0,0,1,10,0v26.7c0,3.9,1.14,6.89,3.49,9.16,5.63,5.44,16.22,5.15,16.32,5.14H347a5,5,0,0,1,0,10H296.45Z"/><path class="cls-1" d="M166.33,372.2a5,5,0,0,1-5-5l-.49-59.5a5,5,0,0,1,5-5l42.24-.35a5,5,0,0,1,5,5l.49,59.5a5,5,0,0,1-5,5h0a5,5,0,0,1-5-5l-.45-54.5-32.24.27.45,54.49a5,5,0,0,1-5,5.05Z"/></g><g id="Outline"><path class="cls-1" d="M32.58,77.08H21.75a5,5,0,0,1,0-10H32.58a5,5,0,0,1,0,10Z"/><path class="cls-1" d="M75.25,77.08H63.15a5,5,0,1,1,0-10h12.1a5,5,0,0,1,0,10Z"/><path class="cls-1" d="M48.08,104.25a5,5,0,0,1-5-5v-12a5,5,0,0,1,10,0v12A5,5,0,0,1,48.08,104.25Z"/><path class="cls-1" d="M48.08,63.17a5,5,0,0,1-5-5V45.75a5,5,0,0,1,10,0V58.17A5,5,0,0,1,48.08,63.17Z"/><path class="cls-1" d="M48.22,91.63a19,19,0,1,1,19-19A19,19,0,0,1,48.22,91.63Zm0-28a9,9,0,1,0,9,9A9,9,0,0,0,48.22,63.59Z"/><path class="cls-1" d="M239.09,129.88a4.53,4.53,0,0,1-.89-.08,5,5,0,0,1-4-5.81,41.76,41.76,0,0,0-33.65-48.54,5,5,0,0,1,1.79-9.84A51.77,51.77,0,0,1,244,125.77,5,5,0,0,1,239.09,129.88Z"/><path class="cls-1" d="M266,134.76a4.56,4.56,0,0,1-.9-.08,5,5,0,0,1-4-5.81,69.12,69.12,0,0,0-55.68-80.34,5,5,0,1,1,1.78-9.84,79.11,79.11,0,0,1,63.74,92A5,5,0,0,1,266,134.76Z"/><path class="cls-1" d="M293.92,139.82a4.56,4.56,0,0,1-.9-.08,5,5,0,0,1-4-5.81A97.47,97.47,0,0,0,210.47,20.62a5,5,0,0,1,1.78-9.84,107.46,107.46,0,0,1,86.58,124.93A5,5,0,0,1,293.92,139.82Z"/><path class="cls-1" d="M116.55,200.39a5,5,0,0,1-4.8-3.62c-4.44-15.43-1.09-32.31,9.68-48.8a98.83,98.83,0,0,1,17.43-20.13,5,5,0,1,1,6.41,7.67h0c-.33.28-32.71,27.87-23.91,58.5a5,5,0,0,1-3.43,6.18A4.7,4.7,0,0,1,116.55,200.39Z"/><path class="cls-1" d="M127,201.62a54.53,54.53,0,0,1-11.35-1.18,5,5,0,1,1,2.07-9.78c31.7,6.69,58.64-23.6,58.91-23.91a5,5,0,0,1,7.54,6.58,98,98,0,0,1-19.81,16.47C152,197.62,139.3,201.62,127,201.62Z"/><path class="cls-1" d="M89,500a5,5,0,0,1-5-5V484a5,5,0,0,1,10,0v11A5,5,0,0,1,89,500Z"/><path class="cls-1" d="M89,369a5,5,0,0,1-5-5V353a5,5,0,0,1,10,0v11A5,5,0,0,1,89,369Z"/><path class="cls-1" d="M29,429H18a5,5,0,0,1,0-10H29a5,5,0,0,1,0,10Z"/><path class="cls-1" d="M160,429H149a5,5,0,0,1,0-10h11a5,5,0,0,1,0,10Z"/><path class="cls-1" d="M38.8,479.2a5,5,0,0,1-3.54-8.53L43,462.89A5,5,0,1,1,50.11,470l-7.78,7.78A5,5,0,0,1,38.8,479.2Z"/><path class="cls-1" d="M131.43,386.57a5,5,0,0,1-3.54-8.53l7.78-7.78a5,5,0,1,1,7.07,7.07L135,385.11A5,5,0,0,1,131.43,386.57Z"/><path class="cls-1" d="M46.57,386.57A5,5,0,0,1,43,385.11l-7.78-7.78a5,5,0,1,1,7.07-7.07L50.11,378a5,5,0,0,1-3.54,8.53Z"/><path class="cls-1" d="M139.2,479.2a5,5,0,0,1-3.53-1.46L127.89,470a5,5,0,1,1,7.07-7.07l7.78,7.78a5,5,0,0,1-3.54,8.53Z"/><path class="cls-1" d="M62.07,494.7a4.92,4.92,0,0,1-1.9-.38,5,5,0,0,1-2.73-6.52l4.18-10.18a5,5,0,0,1,9.25,3.79L66.7,491.59A5,5,0,0,1,62.07,494.7Z"/><path class="cls-1" d="M111.75,373.48a5,5,0,0,1-4.62-6.89l4.17-10.18a5,5,0,0,1,9.26,3.79l-4.18,10.18A5,5,0,0,1,111.75,373.48Z"/><path class="cls-1" d="M33.48,406.24a5,5,0,0,1-1.89-.37L21.41,401.7a5,5,0,1,1,3.79-9.25l10.18,4.17a5,5,0,0,1-1.9,9.62Z"/><path class="cls-1" d="M154.69,455.93a4.87,4.87,0,0,1-1.89-.38l-10.18-4.17a5,5,0,0,1,3.79-9.25l10.18,4.17a5,5,0,0,1-1.9,9.63Z"/><path class="cls-1" d="M23.51,456.41a5,5,0,0,1-1.94-9.61l10.15-4.25a5,5,0,0,1,3.86,9.23L25.44,456A4.93,4.93,0,0,1,23.51,456.41Z"/><path class="cls-1" d="M144.35,405.84a5,5,0,0,1-1.93-9.62L152.56,392a5,5,0,1,1,3.87,9.22l-10.15,4.25A5.08,5.08,0,0,1,144.35,405.84Z"/><path class="cls-1" d="M65.84,373.65a5,5,0,0,1-4.62-3.07L57,360.44a5,5,0,1,1,9.22-3.87l4.25,10.15a5,5,0,0,1-2.68,6.54A4.9,4.9,0,0,1,65.84,373.65Z"/><path class="cls-1" d="M116.41,494.5a5,5,0,0,1-4.61-3.07l-4.25-10.15a5,5,0,0,1,9.23-3.86L121,487.56a5,5,0,0,1-4.61,6.94Z"/><path class="cls-1" d="M416,500a5,5,0,0,1-5-5V484a5,5,0,0,1,10,0v11A5,5,0,0,1,416,500Z"/><path class="cls-1" d="M416,369a5,5,0,0,1-5-5V353a5,5,0,0,1,10,0v11A5,5,0,0,1,416,369Z"/><path class="cls-1" d="M356,429H345a5,5,0,0,1,0-10h11a5,5,0,0,1,0,10Z"/><path class="cls-1" d="M487,429H476a5,5,0,0,1,0-10h11a5,5,0,0,1,0,10Z"/><path class="cls-1" d="M365.8,479.2a5,5,0,0,1-3.54-8.53l7.78-7.78a5,5,0,1,1,7.07,7.07l-7.78,7.78A5,5,0,0,1,365.8,479.2Z"/><path class="cls-1" d="M458.43,386.57a5,5,0,0,1-3.54-8.53l7.78-7.78a5,5,0,1,1,7.07,7.07L462,385.11A5,5,0,0,1,458.43,386.57Z"/><path class="cls-1" d="M373.57,386.57a5,5,0,0,1-3.53-1.46l-7.78-7.78a5,5,0,1,1,7.07-7.07l7.78,7.78a5,5,0,0,1-3.54,8.53Z"/><path class="cls-1" d="M466.2,479.2a5,5,0,0,1-3.53-1.46L454.89,470a5,5,0,1,1,7.07-7.07l7.78,7.78a5,5,0,0,1-3.54,8.53Z"/><path class="cls-1" d="M389.07,494.7a4.92,4.92,0,0,1-1.9-.38,5,5,0,0,1-2.73-6.52l4.18-10.18a5,5,0,0,1,9.25,3.79l-4.17,10.18A5,5,0,0,1,389.07,494.7Z"/><path class="cls-1" d="M438.75,373.48a5,5,0,0,1-4.62-6.89l4.17-10.18a5,5,0,0,1,9.26,3.79l-4.18,10.18A5,5,0,0,1,438.75,373.48Z"/><path class="cls-1" d="M360.48,406.24a5,5,0,0,1-1.89-.37l-10.18-4.17a5,5,0,1,1,3.79-9.25l10.18,4.17a5,5,0,0,1-1.9,9.62Z"/><path class="cls-1" d="M481.69,455.93a4.87,4.87,0,0,1-1.89-.38l-10.18-4.17a5,5,0,0,1,3.79-9.25l10.18,4.17a5,5,0,0,1-1.9,9.63Z"/><path class="cls-1" d="M350.51,456.41a5,5,0,0,1-1.94-9.61l10.15-4.25a5,5,0,0,1,3.86,9.23L352.44,456A4.93,4.93,0,0,1,350.51,456.41Z"/><path class="cls-1" d="M471.35,405.84a5,5,0,0,1-1.93-9.62L479.56,392a5,5,0,1,1,3.87,9.22l-10.15,4.25A5.08,5.08,0,0,1,471.35,405.84Z"/><path class="cls-1" d="M392.84,373.65a5,5,0,0,1-4.62-3.07L384,360.44a5,5,0,1,1,9.22-3.87l4.25,10.15a5,5,0,0,1-2.68,6.54A4.9,4.9,0,0,1,392.84,373.65Z"/><path class="cls-1" d="M443.41,494.5a5,5,0,0,1-4.61-3.07l-4.25-10.15a5,5,0,0,1,9.23-3.86L448,487.56a5,5,0,0,1-4.61,6.94Z"/></g></svg>