<?xml version="1.0" ?><svg viewBox="0 0 512 512" xmlns="http://www.w3.org/2000/svg"><defs><style>.cls-1{fill:#3f456b;}</style></defs><title/><g id="Lines"><path class="cls-1" d="M257.31,500.81c-13.44,0-19.73-11.82-20.51-13.4L185.52,391a260.5,260.5,0,0,1-30.6-97.18,291.87,291.87,0,0,1,3.39-84.51c8.79-48,25.89-80,27.19-82.34l49.65-100C236,25,242.83,10.5,257.64,10.5c14.32,0,21.83,15.06,22.45,16.36L329.78,127c1.29,2.37,18.4,34.36,27.19,82.34a291.87,291.87,0,0,1,3.39,84.51A260.53,260.53,0,0,1,329.73,391l-51.29,96.43C277.84,488.63,271.15,500.81,257.31,500.81Zm.33-480.31c-8.77,0-13.29,10.35-13.33,10.45l-.14.32L194.41,131.49a1.14,1.14,0,0,1-.1.19c-.17.32-17.62,32.44-26.23,79.76a282,282,0,0,0-3.2,81.49,250.57,250.57,0,0,0,29.44,93.31l51.35,96.56.12.23c.14.29,3.85,7.78,11.52,7.78,8,0,12.09-7.63,12.26-7.95l0-.06,51.32-96.51a250.68,250.68,0,0,0,29.49-93.57,282.21,282.21,0,0,0-3.28-81.62c-8.66-47.25-26-79.1-26.18-79.42l-.09-.19L271.11,31.27a1.17,1.17,0,0,0-.05-.11C271,31.07,265.9,20.5,257.64,20.5Z"/><path class="cls-1" d="M264.73,452.08a5,5,0,0,1-4.45-7.27L304.2,358.7c27-50.87,25.63-101.56,19.71-135.14-6.45-36.62-19.54-61.49-19.67-61.74l-.15-.29L260.58,65.37a5,5,0,1,1,9.11-4.12l43.45,96c1.25,2.38,14,27.21,20.56,64.19,6.25,35.22,7.75,88.42-20.63,141.86l-43.88,86A5,5,0,0,1,264.73,452.08Z"/><path class="cls-1" d="M250.44,451.88a5,5,0,0,1-4.46-2.73l-43.81-85.91c-28.35-53.36-26.85-106.56-20.59-141.78,6.57-37,19.3-61.81,20.56-64.19l43.59-96.33a5,5,0,1,1,9.11,4.12l-43.66,96.47c0,.1-.09.2-.14.3s-13.22,25.11-19.67,61.73c-5.92,33.58-7.31,84.27,19.67,135.06l43.85,86a5,5,0,0,1-4.45,7.28Z"/><path class="cls-1" d="M291.29,68h-68a5,5,0,0,1,0-10h68a5,5,0,0,1,0,10Z"/><path class="cls-1" d="M291.29,452.5h-68a5,5,0,0,1,0-10h68a5,5,0,0,1,0,10Z"/><path class="cls-1" d="M331.5,261H183.78a5,5,0,1,1,0-10H331.5a5,5,0,0,1,0,10Z"/><path class="cls-1" d="M304.4,156.5H210.88a5,5,0,0,1,0-10H304.4a5,5,0,0,1,0,10Z"/><path class="cls-1" d="M308.65,365.5h-102a5,5,0,0,1,0-10h102a5,5,0,0,1,0,10Z"/><path class="cls-1" d="M258.31,45.26h-1a5,5,0,0,1,0-10h1a5,5,0,0,1,0,10Z"/><path class="cls-1" d="M258.31,473h-1a5,5,0,1,1,0-10h1a5,5,0,0,1,0,10Z"/><path class="cls-1" d="M423.23,468.91h-.31c-8.75-.14-14.89-6.18-15.84-7.17L388.4,443.06c-34.5-34.5-32.93-73.21-32.15-81.42L224,229.33a5,5,0,0,1,7.07-7.07L363.81,355.05c10.07-.76,47.17-1,80.37,32.24L462.86,406c1,1,7,7.09,7.16,15.85.09,5.61-2.24,10.84-6.93,15.53L438.45,462C433.85,466.58,428.73,468.91,423.23,468.91ZM366.08,365c-.41,10.36.91,42.56,29.39,71l18.72,18.72.11.12s4,4,8.84,4.08h.08c2.8,0,5.47-1.31,8.16-4L456,430.26c2.74-2.73,4.05-5.45,4-8.3-.07-4.8-4-8.74-4.08-8.77l-.11-.11-18.72-18.72C408.5,365.75,376.43,364.51,366.08,365Z"/><path class="cls-1" d="M215.07,239.26A14.38,14.38,0,0,1,204.81,235l-1.08-1.08a14.52,14.52,0,0,1,0-20.5l11-11a14.52,14.52,0,0,1,20.5,0l1.08,1.08a14.51,14.51,0,0,1,0,20.51h0l-11,11A14.36,14.36,0,0,1,215.07,239.26ZM225,208.18a4.5,4.5,0,0,0-3.18,1.31l-11,11a4.51,4.51,0,0,0,0,6.36l1.08,1.08a4.53,4.53,0,0,0,6.37,0l11-11a4.49,4.49,0,0,0,0-6.36l-1.08-1.09A4.51,4.51,0,0,0,225,208.18Zm7.8,12.3h0Z"/><path class="cls-1" d="M89.92,468.91c-5.5,0-10.62-2.33-15.23-6.93L50.05,437.34c-4.68-4.69-7-9.92-6.93-15.53.14-8.76,6.18-14.9,7.17-15.85L69,387.29c33.21-33.2,70.31-33,80.38-32.24L282.13,222.26a5,5,0,0,1,7.07,7.07L156.89,361.64c.78,8.21,2.35,46.93-32.15,81.42l-18.67,18.68c-.95,1-7.09,7-15.85,7.17Zm54.44-104c-12.5,0-42,3.12-68.32,29.45L57.32,413.08l-.12.11s-4,4-4.08,8.83c0,2.83,1.29,5.53,4,8.24L81.76,454.9c2.74,2.74,5.46,4.05,8.31,4,4.8-.08,8.74-4,8.77-4.08l.11-.12L117.67,436c28.61-28.61,29.86-60.68,29.41-71C146.3,364.93,145.39,364.91,144.36,364.91Z"/><path class="cls-1" d="M298.08,239.26A14.36,14.36,0,0,1,287.83,235l-11-11a14.55,14.55,0,0,1,0-20.51l1.08-1.08a14.53,14.53,0,0,1,20.51,0l11,11a14.51,14.51,0,0,1,0,20.5L308.33,235A14.36,14.36,0,0,1,298.08,239.26Zm-9.93-31.08a4.54,4.54,0,0,0-3.19,1.31l-1.08,1.08a4.55,4.55,0,0,0,0,6.37h0l11,11a4.51,4.51,0,0,0,6.36,0l1.08-1.08a4.49,4.49,0,0,0,0-6.36l-11-11A4.51,4.51,0,0,0,288.15,208.18Z"/></g><g id="Outline"><path class="cls-1" d="M386.43,302.31a5,5,0,0,1-4.91-5.94c8.14-42.42.1-81.13,0-81.52a5,5,0,0,1,9.78-2.09c.35,1.66,8.56,41,0,85.49A5,5,0,0,1,386.43,302.31Z"/><path class="cls-1" d="M413.24,316.81a5.17,5.17,0,0,1-.95-.09,5,5,0,0,1-4-5.85c11.07-57.62.14-110,0-110.51a5,5,0,0,1,9.78-2.1c.48,2.22,11.46,54.9,0,114.49A5,5,0,0,1,413.24,316.81Z"/><path class="cls-1" d="M440.11,329.81a5.17,5.17,0,0,1-.95-.09,5,5,0,0,1-4-5.85c13.66-71.16.15-135.87,0-136.51a5,5,0,1,1,9.78-2.1c.58,2.72,14.06,67.36,0,140.49A5,5,0,0,1,440.11,329.81Z"/><path class="cls-1" d="M125.29,302.31a5,5,0,0,1-4.9-4.06c-8.54-44.48-.33-83.83,0-85.49a5,5,0,0,1,9.78,2.09h0c-.08.39-8.12,39.1,0,81.52a5,5,0,0,1-4,5.85A5.09,5.09,0,0,1,125.29,302.31Z"/><path class="cls-1" d="M98.49,316.81a5,5,0,0,1-4.91-4.06c-11.44-59.59-.45-112.27,0-114.49a5,5,0,0,1,9.78,2.09c-.11.53-11,53,0,110.52a5,5,0,0,1-4,5.85A5.17,5.17,0,0,1,98.49,316.81Z"/><path class="cls-1" d="M71.62,329.81a5,5,0,0,1-4.91-4.06c-14-73.13-.56-137.77,0-140.49a5,5,0,0,1,9.78,2.09c-.14.65-13.62,65.45,0,136.52a5,5,0,0,1-4.91,5.94Z"/><path class="cls-1" d="M409,412.27a5,5,0,0,1-3.53-1.46l-47-47a5,5,0,0,1,7.07-7.07l47,47a5,5,0,0,1-3.54,8.53Z"/><path class="cls-1" d="M104.57,412.27a5,5,0,0,1-3.54-8.53l47-47a5,5,0,1,1,7.07,7.07l-47,47A5,5,0,0,1,104.57,412.27Z"/></g></svg>