<?xml version="1.0" ?><svg viewBox="0 0 512 512" xmlns="http://www.w3.org/2000/svg"><defs><style>.cls-1{fill:#3f456b;}</style></defs><title/><g id="Lines"><path class="cls-1" d="M496,326H16a5,5,0,0,1-5-5V289a5,5,0,0,1,5-5H496a5,5,0,0,1,5,5v32A5,5,0,0,1,496,326ZM21,316H491V294H21Z"/><path class="cls-1" d="M480,500H33.5a5,5,0,0,1-5-5V321a5,5,0,0,1,10,0V490H475V321.5a5,5,0,0,1,10,0V495A5,5,0,0,1,480,500Z"/><path class="cls-1" d="M301.17,470H65.5a5,5,0,0,1-5-5V351a5,5,0,0,1,5-5h0l236.38.18a5,5,0,0,1,0,10h0L70.5,356V460H301.17a5,5,0,1,1,0,10Z"/><path class="cls-1" d="M448,470H430a5,5,0,0,1,0-10h13V356.26l-13-.08a5,5,0,0,1,0-10h0l18,.11a5,5,0,0,1,5,5V465A5,5,0,0,1,448,470Z"/><path class="cls-1" d="M287,389H225a5,5,0,0,1,0-10h62a5,5,0,0,1,0,10Z"/><path class="cls-1" d="M209,269a5,5,0,0,1-5-5V174H70.5v90a5,5,0,0,1-10,0V169a5,5,0,0,1,5-5H209a5,5,0,0,1,5,5v95A5,5,0,0,1,209,269Z"/><path class="cls-1" d="M162,174a5,5,0,0,1-5-5V125H118v44a5,5,0,0,1-10,0V120a5,5,0,0,1,5-5h49a5,5,0,0,1,5,5v49A5,5,0,0,1,162,174Z"/><path class="cls-1" d="M321,71a5,5,0,0,1-5-5V22H277V66a5,5,0,0,1-10,0V17a5,5,0,0,1,5-5h49a5,5,0,0,1,5,5V66A5,5,0,0,1,321,71Z"/><path class="cls-1" d="M444.48,294a5,5,0,0,1,0-10c4.63,0,8-1.26,10.41-3.86,2.66-2.91,3.62-7,3.95-10.14H53.6c.32,3.12,1.29,7.23,3.95,10.14C59.92,282.74,63.33,284,68,284a5,5,0,0,1,0,10c-7.53,0-13.53-2.41-17.84-7.17-7.83-8.63-6.64-21.76-6.58-22.32a5,5,0,0,1,5-4.51H463.93a5,5,0,0,1,5,4.51c.06.56,1.25,13.69-6.58,22.32C458,291.59,452,294,444.48,294Z"/><path class="cls-1" d="M137,123.88a5,5,0,0,1-5-5V17a5,5,0,0,1,10,0V118.88A5,5,0,0,1,137,123.88Z"/><path class="cls-1" d="M296,45a5,5,0,0,1-5-5V38a5,5,0,0,1,10,0v2A5,5,0,0,1,296,45Z"/><path class="cls-1" d="M137,196.67a5,5,0,0,1-5-5V169.5a5,5,0,0,1,10,0v22.17A5,5,0,0,1,137,196.67Z"/><path class="cls-1" d="M124.91,124.18a5,5,0,0,1-4.59-3L90.41,52a5,5,0,1,1,9.18-4L129.5,117.2a5,5,0,0,1-4.59,7Z"/><path class="cls-1" d="M164.29,196.76a5,5,0,0,1-4.6-3l-9.62-22.27a5,5,0,1,1,9.18-4l9.62,22.26a5,5,0,0,1-4.58,7Z"/><path class="cls-1" d="M144.59,123.88a4.91,4.91,0,0,1-1.19-.15,5,5,0,0,1-3.67-6l24.41-99.88a5,5,0,0,1,9.72,2.38l-24.42,99.87A5,5,0,0,1,144.59,123.88Z"/><path class="cls-1" d="M116.8,196.67a4.79,4.79,0,0,1-1.19-.15,5,5,0,0,1-3.67-6l5.54-22.67a5,5,0,1,1,9.71,2.38l-5.54,22.66A5,5,0,0,1,116.8,196.67Z"/><path class="cls-1" d="M243.43,269.16a5,5,0,0,1-4.14-2.2A24.77,24.77,0,0,1,235,253V197a25,25,0,0,1,25-25H428a25,25,0,0,1,25,25v56a24.9,24.9,0,0,1-3.09,12,5,5,0,1,1-8.75-4.82A15,15,0,0,0,443,253V197a15,15,0,0,0-15-15H260a15,15,0,0,0-15,15v56a14.85,14.85,0,0,0,2.57,8.36,5,5,0,0,1-4.14,7.8Z"/><path class="cls-1" d="M209,198H67a5,5,0,0,1,0-10H209a5,5,0,0,1,0,10Z"/><path class="cls-1" d="M182,250H92a5,5,0,0,1-5-5V193a5,5,0,0,1,10,0v47h80V193a5,5,0,0,1,10,0v52A5,5,0,0,1,182,250Z"/><path class="cls-1" d="M401,182a5,5,0,0,1-5-5V86a15,15,0,0,0-15-15H212a15,15,0,0,0-15,15v82.5a5,5,0,0,1-10,0V86a25,25,0,0,1,25-25H381a25,25,0,0,1,25,25v91A5,5,0,0,1,401,182Z"/><path class="cls-1" d="M297.34,152.75a31.12,31.12,0,0,1-8.23-1.11c-6.85-1.85-12.18-6-17.34-10-6.28-4.86-11.72-9-18.84-8.51-10.09.77-16.07,10.19-18.74,15.74a5,5,0,0,1-9-4.33c6.23-12.94,15.81-20.53,27-21.38,11-.84,18.8,5.22,25.71,10.57,4.59,3.54,8.92,6.89,13.84,8.22a21.06,21.06,0,0,0,12.95-.49,34.58,34.58,0,0,1-3.32-3.07c-6.6-7-8.91-15.75-6.32-24.11,3-9.55,9.24-15.7,17.23-16.88a17.87,17.87,0,0,1,17.53,7.8c5.06,7.48,4.5,17.68-1.53,28a44.71,44.71,0,0,1-4.68,6.61c7.47,2,17,2.41,28.12-.39a5,5,0,1,1,2.45,9.69c-14.13,3.56-28.16,2.79-39.22-1.7A32.54,32.54,0,0,1,297.34,152.75Zm17.54-45.51a7.52,7.52,0,0,0-1.15.09c-4,.6-7.38,4.22-9.15,9.94-1.51,4.88-.08,10,4,14.29a26,26,0,0,0,5.16,4.12,34.86,34.86,0,0,0,5.86-7.49c4-6.86,4.69-13.18,1.88-17.35A8,8,0,0,0,314.88,107.24Z"/><path class="cls-1" d="M430,484H302.5a5,5,0,0,1-5-5V353.88a30.13,30.13,0,0,1,2.73-11A19.82,19.82,0,0,1,319,331h96c5.56,0,20,4.13,20,23V479A5,5,0,0,1,430,484ZM307.5,474H425V354c0-12.17-8.38-13-10.06-13H319c-10.67,0-11.45,11.48-11.5,13.09Z"/></g><g id="Outline"><path class="cls-1" d="M343,269a5,5,0,0,1-5-5V177a5,5,0,0,1,10,0v87A5,5,0,0,1,343,269Z"/><path class="cls-1" d="M334,484a5,5,0,0,1-5-5V336a5,5,0,0,1,10,0V479A5,5,0,0,1,334,484Z"/><path class="cls-1" d="M399,484a5,5,0,0,1-5-5V336a5,5,0,0,1,10,0V479A5,5,0,0,1,399,484Z"/><path class="cls-1" d="M159,215H115a5,5,0,0,1,0-10h44a5,5,0,0,1,0,10Z"/><path class="cls-1" d="M159,233H115a5,5,0,0,1,0-10h44a5,5,0,0,1,0,10Z"/></g></svg>