<?xml version="1.0" ?><svg id="Lines" viewBox="0 0 512 512" xmlns="http://www.w3.org/2000/svg"><defs><style>.cls-1{fill:#3f456b;}</style></defs><title/><path class="cls-1" d="M256.5,499.5A244,244,0,0,1,84,83,244,244,0,1,1,429,428,242.38,242.38,0,0,1,256.5,499.5Zm0-478A234,234,0,0,0,91,421,234,234,0,1,0,422,90,232.45,232.45,0,0,0,256.5,21.5ZM271.5,469a5,5,0,0,1-5-5v-172a5,5,0,0,1,8.54-3.54L396.65,410a5,5,0,0,1-.26,7.32,212,212,0,0,1-124.53,51.61Zm5-165V458.52a201.75,201.75,0,0,0,109.23-45.29Zm-35,165-.36,0a211.89,211.89,0,0,1-125.07-52.09,5,5,0,0,1-.25-7.31L238,287.39a5,5,0,0,1,8.54,3.54V464a5,5,0,0,1-5,5ZM126.72,412.78A201.81,201.81,0,0,0,236.5,458.52V303Zm287.62-15.43a5,5,0,0,1-3.53-1.47L268,253a5,5,0,0,1-1.46-3.54V47a5,5,0,0,1,1.59-3.66,5,5,0,0,1,3.77-1.32A213.88,213.88,0,0,1,418.12,395.62a5,5,0,0,1-3.6,1.72ZM276.5,247.43,414,385A204,204,0,0,0,276.5,52.48ZM98.2,396.81H98a5,5,0,0,1-3.6-1.73,214,214,0,0,1,146.73-353,5,5,0,0,1,3.77,1.32A5,5,0,0,1,246.5,47V248.5A5,5,0,0,1,245,252L101.73,395.34A5,5,0,0,1,98.2,396.81ZM236.5,52.48a203.89,203.89,0,0,0-138,331.94l138-138Z"/></svg>