<?xml version="1.0" ?><svg id="Lines" viewBox="0 0 512 512" xmlns="http://www.w3.org/2000/svg"><defs><style>.cls-1{fill:#3f456b;}</style></defs><title/><path class="cls-1" d="M124.13,284.13a30,30,0,0,1-10-1.76c-15.34-5.44-22.64-16.76-18.58-28.83a5,5,0,1,1,9.48,3.18,9.15,9.15,0,0,0,1.92,9.67A25.41,25.41,0,0,0,117.46,273c4.69,1.66,9.92,1.53,13.32-.34a8.25,8.25,0,0,0,4.19-5.74c.79-3.43-.3-6.63-8.12-11.06-.77-.44-1.56-.87-2.34-1.3-7-3.86-14.93-8.23-17.67-18.51A15.34,15.34,0,0,1,108.49,224a21.63,21.63,0,0,1,13.4-9.49c8-2,18.07,1,25,7.36a25.24,25.24,0,0,1,8.26,17.89,5,5,0,0,1-10,.19,15.3,15.3,0,0,0-5-10.71c-4.51-4.15-11-6.22-15.85-5a11.9,11.9,0,0,0-7.2,4.88,5.48,5.48,0,0,0-.59,4.38c1.56,5.86,5.9,8.5,12.84,12.33l2.44,1.36c3.94,2.22,15.9,9,12.94,22a18.18,18.18,0,0,1-9.12,12.28A23.84,23.84,0,0,1,124.13,284.13Z"/><path class="cls-1" d="M136.14,225.72a5,5,0,0,1-4.69-6.74l4.86-13.15a5,5,0,0,1,9.38,3.47l-4.86,13.15A5,5,0,0,1,136.14,225.72Z"/><path class="cls-1" d="M110.21,295.85a5,5,0,0,1-4.69-6.73L110.38,276a5,5,0,1,1,9.38,3.46l-4.86,13.15A5,5,0,0,1,110.21,295.85Z"/><path class="cls-1" d="M126,325a76.86,76.86,0,1,1,72.18-50.21h0A77,77,0,0,1,126,325Zm.15-143.73a66.87,66.87,0,1,0,62.65,90.05h0a66.87,66.87,0,0,0-62.65-90.05ZM193.51,273h0Z"/><path class="cls-1" d="M274.94,156.33a19.1,19.1,0,0,1-15.76-8,5,5,0,1,1,8-6,9.12,9.12,0,0,0,9,3.91,25.29,25.29,0,0,0,11.38-4.92c4-2.91,6.9-7.29,7.3-11.15a8.27,8.27,0,0,0-2.34-6.72c-2.38-2.59-5.62-3.52-13.71.39l-2.41,1.18c-7.15,3.57-15.26,7.6-25.27,4a15.38,15.38,0,0,1-9-8.21,21.68,21.68,0,0,1-.19-16.43c2.93-7.72,11.09-14.3,20.29-16.38a25.1,25.1,0,0,1,19.41,3.38,5,5,0,0,1-5.53,8.33,15.31,15.31,0,0,0-11.67-2c-6,1.35-11.39,5.54-13.15,10.18a11.9,11.9,0,0,0-.08,8.69,5.43,5.43,0,0,0,3.26,3c5.71,2,10.35,0,17.45-3.55.83-.41,1.66-.83,2.5-1.23,4.07-2,16.46-8,25.45,1.86a18.21,18.21,0,0,1,4.91,14.49c-.7,6.78-5,13.59-11.4,18.24S280.72,156.33,274.94,156.33Z"/><path class="cls-1" d="M255.29,101.29a5,5,0,0,1-4.1-2.13l-8.05-11.48a5,5,0,0,1,8.19-5.74l8,11.48a5,5,0,0,1-4.09,7.87Z"/><path class="cls-1" d="M298.23,162.51a5,5,0,0,1-4.1-2.13l-8.05-11.48a5,5,0,0,1,8.19-5.74l8.05,11.48a5,5,0,0,1-1.23,7A4.9,4.9,0,0,1,298.23,162.51Z"/><path class="cls-1" d="M272.22,197A76.85,76.85,0,1,1,335,76h0a76.83,76.83,0,0,1-62.82,121ZM272,53.29a66.85,66.85,0,1,0,54.84,28.45A66.47,66.47,0,0,0,272,53.29Z"/><path class="cls-1" d="M350.92,69.86a5,5,0,0,1-4.09-2.13A91.36,91.36,0,0,0,219.71,45.42,5,5,0,1,1,214,37.23,101.37,101.37,0,0,1,355,62a5,5,0,0,1-1.22,7A4.91,4.91,0,0,1,350.92,69.86Z"/><path class="cls-1" d="M407,282.37h0a5,5,0,0,1,0-10h0a9.11,9.11,0,0,0,8.53-4.89,25.11,25.11,0,0,0,2.88-12.06c.09-5-1.7-9.9-4.56-12.53a8.25,8.25,0,0,0-6.78-2.15c-3.5.35-6.19,2.39-7.9,11.22-.17.87-.33,1.75-.49,2.63-1.43,7.86-3.06,16.77-11.92,22.64a15.37,15.37,0,0,1-11.95,2.27,21.67,21.67,0,0,1-13.27-9.69c-4.42-7-4.81-17.44-1-26.06a25.2,25.2,0,0,1,14.34-13.52,5,5,0,0,1,3.35,9.42,15.31,15.31,0,0,0-8.56,8.18c-2.49,5.59-2.38,12.43.28,16.62a11.88,11.88,0,0,0,6.92,5.27,5.44,5.44,0,0,0,4.34-.82c5.05-3.35,6.18-8.3,7.6-16.1.17-.92.33-1.83.51-2.75.86-4.44,3.49-17.94,16.73-19.26a18.18,18.18,0,0,1,14.54,4.75c5,4.61,7.93,12.11,7.79,20.05C428.14,271.86,419.74,282.37,407,282.37Z"/><path class="cls-1" d="M363,259.31h-.16l-14-.43a5,5,0,1,1,.31-10l14,.42a5,5,0,0,1-.15,10Z"/><path class="cls-1" d="M437.71,261.59h-.16l-14-.43a5,5,0,1,1,.3-10l14,.42a5,5,0,0,1-.15,10Z"/><path class="cls-1" d="M392.17,332l-2.38,0a76.87,76.87,0,1,1,4.69-153.66h0A76.86,76.86,0,0,1,392.17,332Zm-.06-143.73a66.84,66.84,0,1,0,2.06,0Z"/><path class="cls-1" d="M27.52,236.58a5,5,0,0,1-4.95-5.75,101.37,101.37,0,0,1,115.26-85,5,5,0,1,1-1.49,9.89A91.37,91.37,0,0,0,32.45,232.33,5,5,0,0,1,27.52,236.58Z"/><path class="cls-1" d="M490.23,270.71a5.09,5.09,0,0,1-.77-.06,5,5,0,0,1-4.17-5.71,91.37,91.37,0,0,0-76.16-104.2,5,5,0,1,1,1.54-9.88,101.38,101.38,0,0,1,84.5,115.62A5,5,0,0,1,490.23,270.71Z"/><path class="cls-1" d="M224.61,469.7c-28.39,0-67-3.8-124-13.11a5,5,0,1,1,1.61-9.87c109.72,17.89,149.2,15.23,180.08,4.55l52.92-23.79L451,375.65a13.22,13.22,0,0,0,7.19-8.45A19.74,19.74,0,0,0,448,344.35a13.29,13.29,0,0,0-11.11-.41l-.29.12-94.1,34.67a5,5,0,1,1-3.46-9.38l94-34.62a23.12,23.12,0,0,1,19.23.56,29.7,29.7,0,0,1,15.42,34.86A23,23,0,0,1,455,384.79L339.27,436.6l-53.11,23.88a3.47,3.47,0,0,1-.41.16C269.84,466.17,251.94,469.7,224.61,469.7Z"/><path class="cls-1" d="M323.19,411.8c-.49,0-1,0-1.48-.05l-15-.92-86.62-4a5,5,0,1,1,.47-10l86.69,4,15.13.92a13.17,13.17,0,0,0,10.28-4.16,19.72,19.72,0,0,0,1.61-24.94,13.3,13.3,0,0,0-9.66-5.49l-14.94-.91-102.42-8.15a4.94,4.94,0,0,1-1.45-.34,123.08,123.08,0,0,0-36.88-7c-26.93-.88-48.35,7.87-63.69,26a5,5,0,0,1-7.64-6.46c17.24-20.38,42.14-30.58,72-29.53a132.86,132.86,0,0,1,39.19,7.46l101.61,8.08,14.87.91a23.13,23.13,0,0,1,17,9.41,29.71,29.71,0,0,1-2.45,38A23.16,23.16,0,0,1,323.19,411.8Z"/><path class="cls-1" d="M100,489H74a5,5,0,0,1,0-10H95V353H74a5,5,0,0,1,0-10h26a5,5,0,0,1,5,5V484A5,5,0,0,1,100,489Z"/><path class="cls-1" d="M73,500H16a5,5,0,0,1-5-5V332a5,5,0,0,1,5-5H73a5,5,0,0,1,5,5V495A5,5,0,0,1,73,500ZM21,490H68V337H21Z"/><path class="cls-1" d="M462,407a5,5,0,0,1-1.91-9.62C472,392.45,479.71,385.24,483,376c5.88-16.84-4.22-35.34-4.32-35.52a5,5,0,1,1,8.74-4.86c.51.92,12.37,22.65,5,43.68-4.22,12.1-13.81,21.31-28.48,27.37A5,5,0,0,1,462,407Z"/><path class="cls-1" d="M156.47,160.66a5,5,0,0,1-1.6-.26l-1-.32a5,5,0,0,1,3.21-9.48l1,.32a5,5,0,0,1-1.61,9.74Z"/><path class="cls-1" d="M358.16,86a5,5,0,0,1-4.73-3.38l-.32-.94a5,5,0,1,1,9.46-3.24l.32.94a5,5,0,0,1-3.11,6.35A4.79,4.79,0,0,1,358.16,86Z"/><path class="cls-1" d="M484.83,292a4.84,4.84,0,0,1-1.7-.3,5,5,0,0,1-3-6.4l.34-.94a5,5,0,1,1,9.4,3.4l-.34.94A5,5,0,0,1,484.83,292Z"/></svg>