<?xml version="1.0" ?><svg id="Lines" viewBox="0 0 512 512" xmlns="http://www.w3.org/2000/svg"><defs><style>.cls-1{fill:#3f456b;}</style></defs><title/><path class="cls-1" d="M410.75,432.48a5,5,0,0,1-4-8C423,402.17,450.35,403.91,462.55,408a5,5,0,0,1-3.13,9.49h0c-1.16-.37-28.64-9-44.62,13A5,5,0,0,1,410.75,432.48Z"/><path class="cls-1" d="M351.17,145.49c-.21,0-.43,0-.64,0l-3.18-.41a5,5,0,1,1,1.27-9.92l3.18.41a5,5,0,0,1-.63,10Z"/><path class="cls-1" d="M238.29,421.83c-11.56,0-22.83-2-32.24-6.77-13.54-6.9-21.38-18.92-22.7-34.77a5,5,0,0,1,10-.82c1,12.38,6.84,21.36,17.27,26.69,14.92,7.61,52,9.21,80.07-7.79a60.15,60.15,0,0,0,8.13-6c10.1-8.71,18.79-20.26,25.82-34.34a120.56,120.56,0,0,0,9.23-23.8,5,5,0,0,1,3.46-3.56c1.53-.45,37.82-11.51,38.53-50.56.71-40-35.67-83-37.79-85.46-1.62-1.64-15.06-15.58-17.71-28.81-1.25-6.3-.18-11.19,3.2-14.55,4.25-4.22,11.47-5.2,22.09-3,10.9,2.26,16.29.59,16.34.58a4.85,4.85,0,0,1,3.89.27l55.76,28.41-35.19-25.71a5,5,0,0,1-1.33-6.63,14.49,14.49,0,0,0,1.11-10.35c-1.4-4.75-5.61-8.94-12.49-12.46-16.77-8.56-39.36-9.36-57.56-2-10.12,4.07-23.42,12.49-29.33,29.5-3.51,10.08,3.27,21.59,11.12,32.53,3,4.23,6.27,8.47,9.42,12.57,4.62,6,9.41,12.29,13.71,18.75,1,1.44,1.94,2.88,2.91,4.32,5.21,7.68,10.59,15.62,14,24.53,5.66,14.59,3.45,29.79-5.63,38.74-8.75,8.63-22.17,10.17-36.81,4.24C262.27,272,256.21,244.39,250.85,220c-1.82-8.29-3.54-16.13-6.22-22.94-13.55-34.43-39-68.19-75.62-100.32C137.55,69.15,97.53,42.84,53,20.44c-.33,8.34,4.76,27,46.67,51.14,66.19,38.12,112,91.09,125.6,145.34a5,5,0,0,1-9.7,2.44c-13-51.64-57-102.34-120.89-139.11C65.44,63.41,48.38,46.28,44,29.34c-2.89-11.13.93-18,1.38-18.72A5,5,0,0,1,51.84,8.7C155.3,59.56,227.08,125.15,253.94,193.41c3,7.55,4.77,15.76,6.68,24.45,5.06,23,10.29,46.87,38.72,58.39,10.93,4.42,20.18,3.68,26-2.1,6.24-6.15,7.54-17.14,3.33-28-3-7.86-8.11-15.32-13-22.54-1-1.46-2-2.92-2.95-4.38-4.12-6.2-8.8-12.31-13.33-18.22-3.19-4.16-6.49-8.47-9.61-12.82-5.88-8.21-18.13-25.28-12.44-41.64s17.78-28.55,35.05-35.49c20.76-8.35,46.6-7.4,65.83,2.41,9.53,4.86,15.45,11.18,17.6,18.76a23.91,23.91,0,0,1-.35,13.84L478,206.31a5,5,0,0,1-5.22,8.49L363,158.88c-3.2.61-9.63,1.2-19.38-.82-7.74-1.6-11.79-.89-13,.31-.82.8-1,2.81-.44,5.49,1.8,9,11.51,20.25,15.1,23.82l.23.25c1.68,1.92,41.16,47.54,40.35,92.34-.43,24.35-12.87,39.39-23.23,47.71a73.65,73.65,0,0,1-19.78,11.34,135.64,135.64,0,0,1-9.25,23.17c-7.64,15.26-17.13,27.86-28.24,37.43a70,70,0,0,1-9.48,7C282.63,414.93,260,421.83,238.29,421.83Z"/><path class="cls-1" d="M189.62,218.88a5,5,0,0,1-4.7-3.29C164,158.16,96.15,114.6,57.58,93.74,15.73,71.11,19.69,41.83,19.88,40.59a5,5,0,0,1,6.63-4c52.81,18.92,89.13,44.6,90.65,45.68a5,5,0,1,1-5.81,8.14c-.34-.24-33.49-23.65-81.18-41.8C31.75,57,38.12,71.85,62.33,85c27.62,14.93,51.94,31.26,72.28,48.53,29.8,25.29,49.89,51.77,59.71,78.69a5,5,0,0,1-3,6.41A5.09,5.09,0,0,1,189.62,218.88Z"/><path class="cls-1" d="M161.21,215.23a5,5,0,0,1-4.44-2.69c-23.57-45.43-66.41-70-100.83-89.73-38.66-22.16-37.33-44.65-37.26-45.6a5,5,0,0,1,6.09-4.48c31.63,7.14,63.14,27,64.46,27.79A5,5,0,0,1,83.89,109c-.29-.18-26.32-16.53-53.64-24.49,2.75,6.74,10.24,18,30.66,29.66,35.56,20.38,79.81,45.76,104.74,93.79a5,5,0,0,1-4.44,7.3Z"/><path class="cls-1" d="M110,380.49c-23.59,0-32.75-11.78-33.24-12.43a5,5,0,0,1,.63-6.68c17.4-16,48.49-24.78,72-29.39-4.91-2.32-8.4-5.4-10.52-9.25a18,18,0,0,1-1.8-11.91C125,309.22,116.86,305,112.9,298.1a20.83,20.83,0,0,1-2.06-14.73c-15.74-4.12-24.52-10.38-26.79-19-1.57-6,.56-11.54,3.11-15.62C74.79,245.21,68,240,66.57,233c-1.31-6.37,2.3-12.13,6-16.11-9.17-4.72-13.81-10.05-14.13-16.2-.27-5.25,2.77-9.37,5.81-12.15-11.47-11.92-9.94-24.76-6.14-32.69C51.62,150.2,48,143.8,47.3,136.77c-1.21-12.16,7.1-21.31,7.46-21.69a5,5,0,0,1,7.35,6.77c-.13.15-5.65,6.41-4.85,14,.55,5.23,4,10.2,10.28,14.75a5,5,0,0,1,1.06,7.06c-1,1.42-9.87,14.47,6.66,27.37a5,5,0,0,1-.78,8.38c-2.17,1.15-6.22,4.32-6.08,6.76,0,.81,1,5.14,15.09,10.66a5,5,0,0,1,1,8.78c-3.69,2.56-8.84,7.94-8.12,11.36.29,1.4,2.65,6.26,20.67,9.78a5,5,0,0,1,2.35,8.66c-.06,0-7.2,6.63-5.66,12.38.82,3.1,5.11,8.91,24.55,13A5,5,0,0,1,121.7,282s-3,6.23-.11,11.14,10.63,7.67,22.58,8.28a5,5,0,0,1,4,7.62s-2.8,4.83-.49,8.93c1.9,3.39,8.76,9.11,33.34,9.43a5,5,0,0,1,.36,10c-.67.06-63.21,5.62-92.9,27.77a30.34,30.34,0,0,0,6.43,3.06c6.84,2.35,18.91,4.07,37.65-1.15,8-2.24,14.95-4.2,21.05-5.93,24.5-6.94,35.68-10.11,50.76-11.9a5,5,0,0,1,1.18,9.93c-14.29,1.7-25.24,4.8-49.22,11.59-6.11,1.74-13.05,3.7-21.09,5.94A94.13,94.13,0,0,1,110,380.49Z"/><path class="cls-1" d="M113.05,409h-1c-16.11-.18-29.51-4.47-38.76-12.4a5,5,0,0,1-1.06-6.32c.69-1.18,7.53-11.74,34.79-19.63a5,5,0,1,1,2.78,9.6c-14.12,4.09-21.77,8.79-25.62,11.87,13.43,7.9,37.79,10.42,63.49.51a135.57,135.57,0,0,0,14.61-7,131.09,131.09,0,0,1,18.27-8.41,248.19,248.19,0,0,1,29.7-8.45,5,5,0,1,1,2.08,9.78,238.78,238.78,0,0,0-28.51,8.12,120.69,120.69,0,0,0-16.88,7.81A145.92,145.92,0,0,1,151.23,402,109.89,109.89,0,0,1,113.05,409Z"/><path class="cls-1" d="M111.76,496c-5.82,0-16.59-.54-26-4a5,5,0,0,1,3.47-9.38c9.43,3.49,21,3.48,24.81,3.37,24.51-16.89,35.9-50,36-50.3a5,5,0,0,1,3.33-3.2c26.78-7.85,48-27,48.24-27.17a5,5,0,1,1,6.72,7.4c-.9.82-22,19.76-49.72,28.62-3.33,8.68-15.95,37.8-40.22,53.76a5,5,0,0,1-2.42.81C115.8,495.91,114.22,496,111.76,496Z"/><path class="cls-1" d="M136.12,217.91a5,5,0,0,1-4.21-2.31c-24.74-38.74-68.71-56.16-69.15-56.33a5,5,0,0,1,3.61-9.33c1.93.75,47.42,18.71,74,60.28a5,5,0,0,1-1.52,6.9A4.9,4.9,0,0,1,136.12,217.91Z"/><path class="cls-1" d="M100.17,207.4a5,5,0,0,1-2.75-.82c-17.27-11.38-26.17-13.67-26.26-13.69a5,5,0,0,1,2.31-9.73c.41.09,10.41,2.52,29.45,15.07a5,5,0,0,1-2.75,9.17Z"/><path class="cls-1" d="M179,337.38a5,5,0,0,1-.08-10c26.33-.42,31.68-8.41,32.7-10.84a6.24,6.24,0,0,0-1.13-6.65c-3.86-4-15.61-3.57-20.7-2.74a5,5,0,0,1-2.9-9.48c2.84-1.31,11.37-6.26,13.2-11.53a5.15,5.15,0,0,0-.31-4.28c-4.18-8.28-20.55-6.2-28-4.4-.66.19-1.3.36-1.92.5a5,5,0,0,1-2.54-9.66c.11,0,.42-.13.91-.25,2.79-.82,13.31-4.33,12.07-10.52a2.44,2.44,0,0,0-1.23-1.65c-4.26-2.76-15.79-1.88-22.77-.35l-.32.07a5,5,0,0,1-2.1-9.78l.27-.06c3.19-.77,6.95-5,6.75-7.09-.14-1.52-4.53-5.52-22.89-5.77-43.41-.59-57.8-12-59.3-13.33A5,5,0,0,1,85.26,212c.16.13,3.4,2.66,11.3,5.23,7.5,2.44,20.8,5.41,41.63,5.69s31.81,5.27,32.71,14.83a12.83,12.83,0,0,1-1.1,6.36c5.29,0,10.82.86,14.74,3.4a12.4,12.4,0,0,1,5.6,8.07,14.56,14.56,0,0,1-1.6,10.43c8,.61,16.16,3.42,20.17,11.37a15.22,15.22,0,0,1,.82,12.09,22.45,22.45,0,0,1-4.84,7.65c4.83.74,9.69,2.42,13,5.85a16.15,16.15,0,0,1,3.16,17.43c-3.12,7.5-12.9,16.54-41.77,17Z"/><path class="cls-1" d="M364.06,158.73a5,5,0,0,1-4-8c8.34-11.1,29.11-7.77,31.45-7.35a5,5,0,1,1-1.74,9.84h0c-5.5-1-18-1.37-21.72,3.52A5,5,0,0,1,364.06,158.73Z"/><path class="cls-1" d="M375.05,153.51a5,5,0,0,1-4.87-3.89,21.4,21.4,0,0,0-3.86-7.84c-3.87-5.16-9.69-8-19.44-9.57a108.74,108.74,0,0,0-27-.88c-9,.82-16.28,2-22.74,5.37a31.18,31.18,0,0,0-6.58,4.5,5,5,0,1,1-6.7-7.42,40.9,40.9,0,0,1,8.71-6c8.77-4.51,18.23-5.69,26.4-6.44a118.46,118.46,0,0,1,29.44,1c8.35,1.32,18.83,4,25.88,13.44a31.46,31.46,0,0,1,5.61,11.62,5,5,0,0,1-3.76,6A4.82,4.82,0,0,1,375.05,153.51Z"/><path class="cls-1" d="M104.27,475.16h0c-.69,0-16.94-.15-28.78-3.73a5,5,0,0,1,2.89-9.57c8.27,2.5,19.61,3.11,24.06,3.25,14.46-13.57,28.23-45.64,28.37-46a5,5,0,0,1,3.7-3c20.9-3.83,54.58-24.24,54.92-24.45a5,5,0,0,1,5.2,8.54c-1.39.85-33,20-55.68,25.2-3.79,8.42-17,36.21-31.41,48.49A5,5,0,0,1,104.27,475.16Z"/><path class="cls-1" d="M246.58,193.73a5,5,0,0,1-4.84-3.74C227,133.3,262.13,83.16,264.6,79.73c.93-1.43,10.27-15.77,20.66-29.88-10.13,1.8-25.48,6.72-37.15,20.09-15.13,17.34-24.21,40.63-27,69.23a5,5,0,0,1-10-1c3-30.71,12.87-55.89,29.4-74.83C262.7,38,294.92,38.78,296.28,38.82a5,5,0,0,1,3.77,8.09c-13,16.58-27,38.14-27.12,38.36l-.16.23c-.35.48-35.08,49.14-21.35,102a5,5,0,0,1-4.84,6.26Z"/><path class="cls-1" d="M192.72,117.23a4.44,4.44,0,0,1-.63,0,5,5,0,0,1-4.34-5.58c2.74-21.9,10.82-37.75,24-47.12,17.83-12.65,38.23-8.43,39.09-8.25A5,5,0,0,1,248.77,66c-.24,0-17.16-3.41-31.31,6.7C206.7,80.4,200,93.91,197.68,112.85A5,5,0,0,1,192.72,117.23Z"/><path class="cls-1" d="M170,96a5.52,5.52,0,0,1-1-.1A5,5,0,0,1,165.12,90c1.71-8.56,6-15.08,12.66-19.4,14.11-9.1,34-4.62,34.82-4.43A5,5,0,0,1,210.35,76c-.26-.06-16.69-3.68-27.18,3.11-4.38,2.84-7.07,7.06-8.24,12.93A5,5,0,0,1,170,96Z"/><path class="cls-1" d="M194.42,336a5,5,0,0,1-.4-10c.48,0,36.69-3.18,61.24-19.24a5,5,0,1,1,5.48,8.38C234,332.68,196.41,335.89,194.82,336Z"/><path class="cls-1" d="M317.55,414.06a5,5,0,0,1-3.07-1.05c-8.34-6.49-22.22-3.69-22.36-3.66a5,5,0,0,1-2.08-9.78c.75-.16,18.53-3.83,30.58,5.55a5,5,0,0,1-3.07,8.94Z"/><path class="cls-1" d="M452.08,490.58l-152.36,0h-.16a46.09,46.09,0,0,1-23.76-84.69,5,5,0,1,1,5.47,8.37,36.09,36.09,0,0,0,18.54,66.32l152.21,0a31.76,31.76,0,0,0,31.73-31.9A32.13,32.13,0,0,0,457.36,417a5,5,0,0,1-3.95-6.17,52.8,52.8,0,0,0-100.48-32,5,5,0,0,1-8.54,1.39,25.76,25.76,0,0,0-17-9.32,5,5,0,1,1,1.14-9.93,35.62,35.62,0,0,1,18.15,7.51,62.8,62.8,0,0,1,117.51,39.87,42,42,0,0,1-12.07,82.17Z"/><path class="cls-1" d="M321,288a5,5,0,0,1-.64-10c.34,0,24-3.4,33.75-20.39,6.21-10.82,5.64-25.19-1.71-42.72a5,5,0,1,1,9.22-3.86c8.63,20.58,9,38,1.13,51.63C350.46,284,322.81,287.81,321.64,288A4.73,4.73,0,0,1,321,288Z"/><path class="cls-1" d="M290.8,185.88a5,5,0,0,1-5-4.56c-.89-10,1.86-18.17,8.18-24.14,15-14.16,44.93-10,46.2-9.79a5,5,0,0,1-1.45,9.9c-7.31-1.06-28.38-1.83-37.89,7.17-4,3.81-5.69,9-5.08,16a5,5,0,0,1-4.54,5.42Z"/></svg>