<?xml version="1.0" ?><svg enable-background="new 0 0 512 512" version="1.1" viewBox="0 0 512 512" xml:space="preserve" xmlns="http://www.w3.org/2000/svg" xmlns:xlink="http://www.w3.org/1999/xlink"><g id="Colors"><g><g><g><path d="M73.874,219.965c-0.104,0-0.209-0.003-0.314-0.01C61.47,219.206,52,209.123,52,197      c0-12.682,10.317-23,23-23c10.623,0,19.809,7.198,22.338,17.503c0.658,2.682-0.981,5.39-3.664,6.048      c-2.676,0.658-5.39-0.982-6.047-3.664C86.198,188.066,81.006,184,75,184c-7.168,0-13,5.832-13,13      c0,6.852,5.35,12.551,12.179,12.975c2.756,0.17,4.852,2.543,4.681,5.299C78.695,217.925,76.494,219.965,73.874,219.965z" fill="#3F456B"/></g></g></g><g><path d="M106.013,172.082c-0.1,0-0.199-0.003-0.299-0.009c-24.235-1.428-49.298-4.164-74.492-8.134    c-2.728-0.43-4.591-2.989-4.161-5.717c0.431-2.728,2.987-4.589,5.718-4.161c24.874,3.919,49.611,6.621,73.523,8.029    c2.757,0.162,4.859,2.529,4.697,5.285C110.843,170.032,108.64,172.082,106.013,172.082z" fill="#3F456B"/></g><g><path d="M307.44,150.99c-2.157,0-4.147-1.407-4.792-3.58c-0.785-2.647,0.726-5.43,3.373-6.215    C421.39,106.99,475.657,44.388,476.192,43.76c1.789-2.104,4.946-2.356,7.048-0.568c2.104,1.79,2.357,4.945,0.567,7.048    c-0.571,0.672-14.331,16.692-42.873,37.182c-26.2,18.81-70.382,45.07-132.071,63.36C308.39,150.923,307.911,150.99,307.44,150.99z    " fill="#3F456B"/></g><g><g opacity="0.2"><circle cx="254.473" cy="117.789" fill="#FFFFFF" r="11.909"/></g><g><path d="M278.127,92.422c-0.04,0-0.079,0-0.118-0.001c-1.95-0.025-3.546-0.649-4.888-1.233     c-4.271-1.859-8.283-4.029-12.163-6.127l-2.154-1.162c-0.537-0.289-1.103-0.618-1.666-0.947     c-0.457-0.267-0.913-0.534-1.347-0.768c-0.119-0.064-0.255-0.144-0.403-0.234c-1.098,0.593-2.193,1.213-3.326,1.854     c-2.153,1.218-4.38,2.478-6.768,3.622c-0.321,0.154-0.747,0.384-1.247,0.65c-4.476,2.387-12.806,6.834-17.639,1.346     c-1.737-1.971-1.795-4.303-1.819-5.299c-0.13-5.229,0.67-10.233,1.443-15.072l0.293-1.847c0.329-2.111,0.635-3.965,0.912-5.548     c-5.803-4.438-14.273-11.871-16.579-17.39c-1.534-3.67-0.739-6.348,0.198-7.949c1.656-2.829,4.551-3.716,5.897-3.983     c5.115-1.527,16.821-2.29,22.809-2.592c2.998-8.532,7.059-16.326,8.396-18.626c1.149-1.978,2.603-3.402,4.319-4.231     c2.061-0.994,4.636-1.161,6.888-0.448c0.712,0.226,1.401,0.555,2.054,0.979c1.401,0.914,2.578,2.238,3.504,3.94     c1.271,2.338,5.106,10.247,7.859,18.859c5.977,0.474,17.655,1.572,22.725,3.245c1.338,0.306,4.206,1.275,5.781,4.151     c0.891,1.626,1.609,4.326-0.03,7.951c-2.435,5.389-10.951,12.478-16.873,16.764c1.518,7.252,2.132,14.477,1.876,21.982     C285.897,89.103,282.642,92.422,278.127,92.422z M234.599,84.165L234.599,84.165L234.599,84.165z M255.36,71.331     c0.025,0,0.051,0,0.076,0l0.096,0.001c1.974,0.028,3.538,1.071,4.681,1.833c0.14,0.093,0.269,0.182,0.378,0.248     c0.47,0.251,1.031,0.578,1.592,0.906c0.459,0.268,0.917,0.537,1.353,0.771l2.18,1.176c3.533,1.911,6.887,3.724,10.399,5.311     c0.043-6.89-0.749-13.521-2.406-20.222c-0.507-2.047,0.326-4.191,2.08-5.361c6.292-4.194,12.986-10.039,15.404-13.324     c-4.694-1.205-16.085-2.292-22.739-2.729c-2.124-0.139-3.927-1.607-4.493-3.658c-2.309-8.359-6.252-16.719-7.697-19.532     c-1.527,2.771-5.707,11.013-8.255,19.304c-0.625,2.034-2.47,3.45-4.596,3.528c-6.665,0.245-18.083,1.005-22.808,2.076     c2.323,3.354,8.847,9.388,15.015,13.76c1.614,1.144,2.401,3.132,2.009,5.071c-0.265,1.307-0.727,3.8-1.423,8.26l-0.299,1.88     c-0.601,3.763-1.175,7.354-1.305,10.899c1.725-0.667,3.847-1.799,4.739-2.275c0.653-0.349,1.211-0.644,1.631-0.845     c2.082-0.998,4.065-2.12,6.165-3.308c1.917-1.084,3.898-2.206,6.001-3.249C253.828,71.509,254.589,71.331,255.36,71.331z      M293.267,43.244c0.003,0,0.006,0,0.008,0.001C293.272,43.245,293.27,43.244,293.267,43.244z M293.261,43.243     c0.002,0,0.004,0,0.006,0.001C293.265,43.244,293.263,43.243,293.261,43.243z M219.789,40.136L219.789,40.136L219.789,40.136     L219.789,40.136z M255.669,15.726C255.669,15.726,255.669,15.726,255.669,15.726S255.669,15.726,255.669,15.726z" fill="#3F456B"/></g><g><path d="M338.676,232.625c-1.383,0-2.76-0.57-3.748-1.688c-1.829-2.069-1.635-5.229,0.435-7.058     c3.783-3.346,5.867-7.778,5.867-12.481c0-0.085,0.002-0.171,0.007-0.256c0.012-0.337,0.247-9.201-7.03-18.154     c-10.418-12.814-67.034-79.164-67.605-79.833c-0.025-0.03-0.051-0.061-0.076-0.091c-0.023-0.028-4.492-5.291-10.624-5.291     c-8.707,0-12.264,4.891-12.297,4.94c-0.104,0.153-0.216,0.301-0.336,0.441c-0.571,0.669-57.188,67.019-67.605,79.833     c-1.741,2.143-4.89,2.467-7.034,0.726c-2.143-1.742-2.468-4.891-0.726-7.034c10.37-12.755,64.137-75.772,67.653-79.894     c1.264-1.663,7.574-9.013,20.345-9.013c10.556,0,17.56,7.998,18.323,8.91c2.565,3.005,57.272,67.119,67.742,79.997     c9.306,11.448,9.31,23.201,9.264,24.806c-0.025,7.576-3.306,14.635-9.244,19.885     C341.034,232.212,339.853,232.625,338.676,232.625z" fill="#3F456B"/></g></g><g><g><path d="M372.035,262.355c-7.17-7.738-13.524-16.248-21.385-23.331c-8.396-7.564-20.248-15.316-31.421-8.428     c-9.3,5.733-12.555,20.603-4.254,28.573c7.49,7.192,44.151,16.907,54.025,18.831" fill="#F0F3F7"/></g><g><path d="M419.244,271.551c9.55-4.481,18.633-9.984,28.578-13.599c10.621-3.86,24.516-6.597,32.287,3.981     c6.469,8.805,3.904,23.809-6.781,28.081c-9.642,3.855-47.455-2.091-57.328-4.014" fill="#F0F3F7"/></g><g><path d="M472.249,353.928c-0.948,0-1.908-0.09-2.873-0.278l-161.433-31.444c-2.71-0.528-4.479-3.153-3.952-5.864     c0.528-2.711,3.154-4.481,5.864-3.952l161.433,31.444c2.708,0.526,5.337-1.247,5.863-3.952l6.118-31.41     c0.254-1.3-0.021-2.629-0.771-3.744c-0.751-1.114-1.881-1.867-3.181-2.12l-62.448-12.164c-2.71-0.528-4.479-3.153-3.952-5.864     c0.528-2.71,3.154-4.483,5.864-3.952l62.448,12.164c8.118,1.582,13.437,9.473,11.855,17.591l-6.118,31.41     C485.573,348.948,479.279,353.928,472.249,353.928z" fill="#3F456B"/></g><g><path d="M367.716,280.777c-0.317,0-0.639-0.03-0.962-0.093l-57.755-11.25c-2.71-0.528-4.479-3.153-3.952-5.864     c0.528-2.711,3.15-4.482,5.864-3.952l57.755,11.25c2.71,0.528,4.479,3.153,3.952,5.864     C372.152,279.12,370.06,280.777,367.716,280.777z" fill="#3F456B"/></g><g><path d="M454.752,418.072c-0.317,0-0.639-0.03-0.962-0.093c-2.71-0.528-4.479-3.153-3.952-5.864l12.642-64.903     c0.528-2.71,3.15-4.483,5.864-3.952c2.71,0.528,4.479,3.153,3.952,5.864l-12.642,64.903     C459.188,416.415,457.096,418.072,454.752,418.072z" fill="#3F456B"/></g><g><path d="M350.688,376.982c-0.317,0-0.639-0.03-0.962-0.093c-2.71-0.528-4.479-3.153-3.952-5.864l8.734-44.843     c0.254-1.301,1.015-2.449,2.114-3.19c1.099-0.74,2.447-1.017,3.75-0.761l47.114,9.177c2.71,0.528,4.479,3.153,3.952,5.864     l-6.947,35.666c-0.529,2.711-3.155,4.477-5.864,3.952c-2.71-0.528-4.479-3.153-3.952-5.864l5.992-30.758l-37.299-7.265     l-7.778,39.936C355.125,375.324,353.032,376.982,350.688,376.982z" fill="#3F456B"/></g><g><path d="M343.844,276.127c-0.317,0-0.639-0.03-0.962-0.093c-11.442-2.229-23.162-5.378-31.369-13.257     c-4.658-4.473-6.906-11.018-6.165-17.958c0.812-7.618,5.127-14.699,11.258-18.479c10.809-6.663,23.389-3.646,37.392,8.97     c5.338,4.809,9.984,10.215,14.478,15.444c2.347,2.73,4.773,5.554,7.229,8.203c1.877,2.025,1.756,5.189-0.27,7.066     c-2.024,1.877-5.189,1.757-7.066-0.269c-2.581-2.786-5.069-5.682-7.477-8.482c-4.486-5.22-8.724-10.151-13.587-14.532     c-15.536-13.999-22.997-9.398-25.45-7.887c-3.556,2.192-6.07,6.417-6.562,11.027c-0.241,2.257-0.152,6.516,3.147,9.683     c6.341,6.088,16.414,8.719,26.355,10.656c2.711,0.528,4.479,3.153,3.952,5.864C348.28,274.47,346.188,276.127,343.844,276.127z" fill="#3F456B"/></g><g><path d="M459.743,297.347c-6.163,0-12.474-0.98-18.611-2.176c-2.711-0.528-4.479-3.153-3.952-5.864     c0.528-2.711,3.153-4.48,5.864-3.952c9.942,1.937,20.266,3.278,28.428,0.016c4.247-1.698,5.928-5.612,6.552-7.794     c1.274-4.458,0.529-9.317-1.943-12.684c-1.707-2.322-6.898-9.387-26.55-2.242c-6.151,2.235-11.929,5.215-18.045,8.369     c-3.283,1.693-6.678,3.443-10.117,5.057c-2.499,1.172-5.478,0.098-6.65-2.403c-1.173-2.5-0.098-5.477,2.402-6.65     c3.271-1.535,6.581-3.241,9.782-4.892c6.126-3.159,12.461-6.426,19.212-8.879c17.713-6.436,30.506-4.514,38.024,5.72     c4.265,5.805,5.605,13.987,3.5,21.353c-1.919,6.71-6.458,11.934-12.454,14.331C470.286,296.614,465.069,297.347,459.743,297.347z     " fill="#3F456B"/></g><g><path d="M406.531,341.315c-0.318,0-0.639-0.03-0.956-0.092l-47.114-9.177c-2.71-0.528-4.479-3.153-3.952-5.864     l12.406-63.692c0.254-1.302,1.015-2.449,2.114-3.19c1.099-0.741,2.448-1.015,3.75-0.761l47.114,9.177     c2.71,0.528,4.479,3.153,3.952,5.864l-12.406,63.692c-0.254,1.302-1.015,2.449-2.114,3.19     C408.494,341.021,407.52,341.315,406.531,341.315z M365.28,323.186l37.299,7.265l10.495-53.876l-37.299-7.265L365.28,323.186z" fill="#3F456B"/></g></g><g><g><path d="M308.807,375.5c-0.001,0-0.002,0-0.003,0c-2.762-0.001-4.999-2.241-4.997-5.003l0.093-164.951     c0.01-3.233-2.604-5.862-5.826-5.872L86.65,199.1c-0.006,0-0.012,0-0.018,0c-1.543,0-3.002,0.606-4.11,1.708     c-1.112,1.106-1.728,2.568-1.732,4.117l-0.035,63.245c-0.002,2.76-2.24,4.997-5,4.997c-0.001,0-0.002,0-0.003,0     c-2.762-0.001-4.999-2.241-4.997-5.003l0.035-63.256c0.013-4.231,1.676-8.202,4.683-11.191c2.995-2.978,6.957-4.616,11.158-4.616     c0.017,0,0.032,0,0.048,0l211.424,0.574c8.736,0.026,15.822,7.155,15.797,15.89l-0.093,164.939     C313.805,373.263,311.566,375.5,308.807,375.5z" fill="#3F456B"/></g><g><g><g><path d="M291.18,324.713c0,2.992-2.424,5.418-5.418,5.418c-2.991,0-5.418-2.426-5.418-5.418       c0-2.992,2.427-5.419,5.418-5.419C288.756,319.294,291.18,321.721,291.18,324.713z" fill="#3F456B"/></g></g><g><g><path d="M291.18,269.713c0,2.992-2.424,5.418-5.418,5.418c-2.991,0-5.418-2.426-5.418-5.418       c0-2.992,2.427-5.419,5.418-5.419C288.756,264.294,291.18,266.721,291.18,269.713z" fill="#3F456B"/></g><g><path d="M244.35,269.713c0,2.992-2.424,5.418-5.419,5.418c-2.99,0-5.416-2.426-5.416-5.418       c0-2.992,2.426-5.419,5.416-5.419C241.926,264.294,244.35,266.721,244.35,269.713z" fill="#3F456B"/></g><g><path d="M150.692,269.713c0,2.992-2.424,5.418-5.418,5.418c-2.991,0-5.417-2.426-5.417-5.418       c0-2.992,2.426-5.419,5.417-5.419C148.268,264.294,150.692,266.721,150.692,269.713z" fill="#3F456B"/></g><g><path d="M103.862,269.713c0,2.992-2.424,5.418-5.418,5.418c-2.991,0-5.417-2.426-5.417-5.418       c0-2.992,2.426-5.419,5.417-5.419C101.438,264.294,103.862,266.721,103.862,269.713z" fill="#3F456B"/></g></g><g><g><path d="M267.35,352.213c0,2.992-2.424,5.418-5.419,5.418c-2.99,0-5.416-2.426-5.416-5.418       c0-2.992,2.426-5.419,5.416-5.419C264.926,346.794,267.35,349.221,267.35,352.213z" fill="#3F456B"/></g></g><g><g><path d="M267.35,297.213c0,2.992-2.424,5.418-5.419,5.418c-2.99,0-5.416-2.426-5.416-5.418       c0-2.992,2.426-5.419,5.416-5.419C264.926,291.794,267.35,294.221,267.35,297.213z" fill="#3F456B"/></g></g><g><g><path d="M267.35,242.213c0,2.992-2.424,5.418-5.419,5.418c-2.99,0-5.416-2.426-5.416-5.418       c0-2.992,2.426-5.419,5.416-5.419C264.926,236.794,267.35,239.221,267.35,242.213z" fill="#3F456B"/></g><g><path d="M220.521,242.213c0,2.992-2.424,5.418-5.418,5.418c-2.991,0-5.417-2.426-5.417-5.418       c0-2.992,2.426-5.419,5.417-5.419C218.097,236.794,220.521,239.221,220.521,242.213z" fill="#3F456B"/></g><g><path d="M173.692,242.213c0,2.992-2.424,5.418-5.418,5.418c-2.991,0-5.417-2.426-5.417-5.418       c0-2.992,2.426-5.419,5.417-5.419C171.268,236.794,173.692,239.221,173.692,242.213z" fill="#3F456B"/></g><g><path d="M126.862,242.213c0,2.992-2.424,5.418-5.418,5.418c-2.991,0-5.417-2.426-5.417-5.418       c0-2.992,2.426-5.419,5.417-5.419C124.438,236.794,126.862,239.221,126.862,242.213z" fill="#3F456B"/></g></g><g><g><path d="M291.18,214.713c0,2.992-2.424,5.418-5.418,5.418c-2.991,0-5.418-2.426-5.418-5.418       c0-2.992,2.427-5.419,5.418-5.419C288.756,209.294,291.18,211.721,291.18,214.713z" fill="#3F456B"/></g><g><path d="M244.35,214.713c0,2.992-2.424,5.418-5.419,5.418c-2.99,0-5.416-2.426-5.416-5.418       c0-2.992,2.426-5.419,5.416-5.419C241.926,209.294,244.35,211.721,244.35,214.713z" fill="#3F456B"/></g><g><path d="M197.521,214.713c0,2.992-2.424,5.418-5.418,5.418c-2.991,0-5.417-2.426-5.417-5.418       c0-2.992,2.426-5.419,5.417-5.419C195.097,209.294,197.521,211.721,197.521,214.713z" fill="#3F456B"/></g><g><path d="M150.692,214.713c0,2.992-2.424,5.418-5.418,5.418c-2.991,0-5.417-2.426-5.417-5.418       c0-2.992,2.426-5.419,5.417-5.419C148.268,209.294,150.692,211.721,150.692,214.713z" fill="#3F456B"/></g><g><path d="M103.862,214.713c0,2.992-2.424,5.418-5.418,5.418c-2.991,0-5.417-2.426-5.417-5.418       c0-2.992,2.426-5.419,5.417-5.419C101.438,209.294,103.862,211.721,103.862,214.713z" fill="#3F456B"/></g></g></g></g><g><g><g><path d="M341,497c-2.762,0-5-2.239-5-5V373c0-2.761,2.238-5,5-5s5,2.239,5,5v119      C346,494.761,343.762,497,341,497z" fill="#3F456B"/></g><g><path d="M375,497c-2.762,0-5-2.239-5-5V373c0-2.761,2.238-5,5-5s5,2.239,5,5v119      C380,494.761,377.762,497,375,497z" fill="#3F456B"/></g><g><path d="M409,412.167c-2.762,0-5-2.239-5-5V373c0-2.761,2.238-5,5-5s5,2.239,5,5v34.167      C414,409.928,411.762,412.167,409,412.167z" fill="#3F456B"/></g><g><path d="M273,497c-2.762,0-5-2.239-5-5V373c0-2.761,2.238-5,5-5s5,2.239,5,5v119      C278,494.761,275.762,497,273,497z" fill="#3F456B"/></g><g><path d="M307,497c-2.762,0-5-2.239-5-5V373c0-2.761,2.238-5,5-5s5,2.239,5,5v119      C312,494.761,309.762,497,307,497z" fill="#3F456B"/></g></g><g><path d="M416.75,499H221c-2.762,0-5-2.239-5-5s2.238-5,5-5h195.75c2.762,0,5,2.239,5,5S419.512,499,416.75,499z" fill="#3F456B"/></g><g><path d="M446,412.167c-2.762,0-5-2.239-5-5v-25.186c0-2.757-2.243-5-5-5H238.371c-2.762,0-5-2.239-5-5     s2.238-5,5-5H436c8.271,0,15,6.729,15,15v25.186C451,409.928,448.762,412.167,446,412.167z" fill="#3F456B"/></g></g><g><g><path d="M132.462,306.922c-17.843,0-36.478-15.204-38.459-16.865c-3.266-2.406-6.458-4.943-9.548-7.398     c-5.853-4.651-11.381-9.043-17.477-12.73c-19.669-11.898-26.852-5.316-29.213-3.154c-3.433,3.146-5.3,8.291-4.872,13.427     c0.211,2.529,1.208,7.189,5.519,9.987c8.085,5.248,19.422,6.002,30.468,6.035c2.762,0.008,4.993,2.253,4.985,5.015     c-0.008,2.756-2.245,4.985-5,4.985c-0.005,0-0.01,0-0.015,0c-12.576-0.038-25.627-0.99-35.883-7.647     c-5.763-3.74-9.423-10.136-10.039-17.546c-0.679-8.151,2.418-16.438,8.081-21.628c9.996-9.162,23.84-8.498,41.145,1.969     c6.642,4.017,12.681,8.816,18.521,13.457c3.061,2.432,6.226,4.947,9.387,7.271c0.097,0.071,0.191,0.146,0.282,0.224     c0.169,0.143,17.35,14.598,32.117,14.598c12.372,0,28.139-10.492,33.17-14.535c0.063-0.051,0.128-0.101,0.194-0.148     c3.175-2.306,6.354-4.801,9.429-7.215c5.869-4.606,11.937-9.37,18.602-13.346c17.368-10.364,31.216-10.945,41.157-1.724     c5.632,5.224,8.679,13.53,7.952,21.676c-0.662,7.407-4.359,13.78-10.145,17.486c-10.298,6.595-23.394,7.462-35.928,7.432     c-2.762-0.008-4.993-2.253-4.985-5.015c0.008-2.756,2.245-4.985,5-4.985c0.229-0.004,0.492,0.001,0.737,0.001     c10.816,0,21.84-0.767,29.782-5.854c4.327-2.772,5.352-7.427,5.577-9.955c0.458-5.133-1.378-10.289-4.792-13.455     c-2.347-2.177-9.492-8.799-29.231,2.979c-6.117,3.65-11.672,8.01-17.552,12.625c-3.118,2.447-6.341,4.978-9.636,7.374     C170.021,291.671,150.385,306.922,132.462,306.922z" fill="#3F456B"/></g><g><path d="M223.637,499.623c-0.018,0-0.035,0-0.053,0l-181.598-0.485c-9.188-0.028-16.64-7.157-16.614-15.892     l0.376-125.771c0.008-2.761,2.296-5.014,5.015-4.985c2.762,0.008,4.993,2.253,4.985,5.015l-0.376,125.771     c-0.01,3.167,3.033,5.852,6.644,5.862l181.597,0.485c0.007,0,0.015,0,0.021,0c3.603,0,6.648-2.662,6.658-5.823l0.376-125.77     c0.008-2.756,2.245-4.985,5-4.985c0.005,0,0.01,0,0.015,0c2.762,0.008,4.993,2.253,4.985,5.015l-0.376,125.771     C240.265,492.548,232.798,499.623,223.637,499.623z" fill="#3F456B"/></g><g><path d="M168.037,499.456c-0.004,0-0.007,0-0.011,0l-71.56-0.156c-1.327-0.003-2.599-0.533-3.534-1.474     s-1.459-2.214-1.455-3.542l0.409-136.613c0.008-2.756,2.245-4.985,5-4.985c0.005,0,0.01,0,0.015,0     c2.762,0.008,4.993,2.253,4.985,5.015l-0.395,131.608l61.579,0.134l0.374-55.479c0.02-2.761,2.25-4.956,5.034-4.966     c2.761,0.019,4.984,2.272,4.966,5.034l-0.408,60.456C173.019,497.238,170.784,499.456,168.037,499.456z" fill="#3F456B"/></g><g><path d="M238.955,363.054c-0.017,0-0.033,0-0.05,0l-46.592-0.126c-2.762-0.007-4.994-2.252-4.986-5.014     c0.008-2.757,2.245-4.986,5-4.986c0.005,0,0.009,0,0.014,0l46.594,0.126c1.513-0.008,3.016-0.602,4.128-1.708     s1.728-2.568,1.732-4.116l0.104-34.696c0.01-3.221-2.604-5.85-5.826-5.86L27.65,306.1c-0.006,0-0.012,0-0.018,0     c-1.543,0-3.002,0.606-4.11,1.708c-1.112,1.106-1.728,2.568-1.732,4.117l-0.104,34.696c-0.005,1.548,0.603,3.014,1.708,4.127     c1.106,1.112,2.568,1.728,4.117,1.732l94.085,0.123c2.761,0.003,4.997,2.245,4.993,5.006c-0.004,2.759-2.241,4.994-5,4.994     c-0.002,0-0.004,0-0.007,0l-94.093-0.123c-4.228-0.013-8.198-1.675-11.188-4.683c-2.989-3.007-4.629-6.987-4.616-11.207     l0.104-34.696c0.013-4.219,1.676-8.189,4.683-11.179c2.995-2.978,6.957-4.616,11.158-4.616c0.017,0,0.032,0,0.048,0     l211.424,0.574c8.736,0.026,15.822,7.155,15.797,15.89l-0.104,34.696c-0.013,4.219-1.676,8.189-4.683,11.179     C247.117,361.416,243.156,363.054,238.955,363.054z" fill="#3F456B"/></g><g><path d="M96.858,372.317c-0.005,0-0.01,0-0.015,0c-2.762-0.008-4.993-2.253-4.985-5.015l0.195-65.395     c0.008-2.756,2.245-4.985,5-4.985c0.004,0,0.007,0,0.011,0l71.56,0.16c1.33,0.003,2.604,0.535,3.539,1.479     c0.937,0.944,1.458,2.222,1.45,3.551l-0.196,32.918c-0.017,2.751-2.252,4.97-4.999,4.97c-0.011,0-0.021,0-0.031,0     c-2.761-0.017-4.986-2.269-4.97-5.03l0.166-27.9l-61.544-0.137l-0.181,60.399C101.851,370.088,99.613,372.317,96.858,372.317z" fill="#3F456B"/></g></g></g><g id="Lines"><g><g><g><path d="M155.223,357.156c-3.475,0.841-6.973-1.292-7.814-4.768c-0.841-3.474,1.293-6.972,4.768-7.814      c3.474-0.841,6.973,1.293,7.814,4.767C160.832,352.818,158.697,356.315,155.223,357.156z" fill="#3F456B"/></g></g><g><path d="M147.348,443.376c-2.724,0-5.406-0.75-7.799-2.208c-3.427-2.091-5.832-5.381-6.771-9.265l-15.768-65.118     c-0.918-3.795-0.329-7.746,1.658-11.125c0.032-0.055,0.065-0.109,0.1-0.163l19.523-30.477c2.149-3.461,7.905-7.346,15.098-3.986     c0.167,0.078,0.329,0.166,0.487,0.262c7.048,4.3,31.692,17.602,31.94,17.736c0.078,0.042,0.155,0.086,0.23,0.132     c3.428,2.091,5.832,5.382,6.771,9.265l15.768,65.118c1.946,8.039-3.011,16.162-11.049,18.108l-46.651,11.296     C149.713,443.236,148.526,443.376,147.348,443.376z M127.248,360.798c-0.633,1.114-0.817,2.402-0.52,3.634l15.768,65.117     c0.312,1.288,1.115,2.382,2.262,3.082c1.147,0.7,2.487,0.912,3.774,0.602l46.651-11.296c2.68-0.649,4.332-3.357,3.684-6.037     L183.1,350.782c-0.303-1.252-1.071-2.321-2.168-3.023c-2.175-1.174-24.607-13.295-31.985-17.757     c-1.368-0.568-1.936-0.075-2.153,0.285c-0.02,0.031-0.039,0.062-0.059,0.093L127.248,360.798z" fill="#3F456B"/></g><g><g><path d="M145.479,391.643c-2.255,0-4.302-1.536-4.855-3.824c-0.65-2.684,0.999-5.386,3.683-6.036l31.101-7.531      c2.683-0.651,5.387,0.999,6.036,3.683c0.65,2.684-0.999,5.386-3.683,6.036l-31.101,7.531      C146.264,391.597,145.868,391.643,145.479,391.643z" fill="#3F456B"/></g><g><path d="M150.891,413.997c-2.255,0-4.302-1.536-4.855-3.824c-0.65-2.684,0.999-5.386,3.683-6.036l31.102-7.531      c2.685-0.649,5.387,0.999,6.036,3.683c0.65,2.684-0.999,5.387-3.683,6.036l-31.102,7.531      C151.676,413.951,151.28,413.997,150.891,413.997z" fill="#3F456B"/></g></g></g><g><g><path d="M450,138c-12.683,0-23-10.318-23-23s10.317-23,23-23s23,10.318,23,23S462.683,138,450,138z M450,102     c-7.168,0-13,5.832-13,13s5.832,13,13,13s13-5.832,13-13S457.168,102,450,102z" fill="#3F456B"/></g></g><g><g><path d="M372,181c-12.683,0-23-10.318-23-23s10.317-23,23-23s23,10.318,23,23S384.683,181,372,181z M372,145     c-7.168,0-13,5.832-13,13s5.832,13,13,13s13-5.832,13-13S379.168,145,372,145z" fill="#3F456B"/></g></g><g><path d="M440.021,243.673c-2.762,0-5-2.239-5-5V210c0-2.761,2.238-5,5-5s5,2.239,5,5v28.673    C445.021,241.435,442.783,243.673,440.021,243.673z" fill="#3F456B"/></g><g><path d="M452.438,236.506c-0.848,0-1.707-0.216-2.494-0.67l-24.844-14.336c-2.392-1.38-3.212-4.438-1.832-6.83    c1.381-2.392,4.437-3.214,6.83-1.832l24.844,14.336c2.392,1.38,3.212,4.438,1.832,6.83    C455.848,235.608,454.167,236.506,452.438,236.506z" fill="#3F456B"/></g><g><path d="M427.604,236.506c-1.729,0-3.409-0.897-4.336-2.502c-1.38-2.392-0.56-5.45,1.832-6.83l24.844-14.336    c2.392-1.381,5.448-0.56,6.83,1.832c1.38,2.392,0.56,5.45-1.832,6.83l-24.844,14.336    C429.312,236.29,428.452,236.506,427.604,236.506z" fill="#3F456B"/></g><g><path d="M50.021,98.673c-2.762,0-5-2.239-5-5V65c0-2.761,2.238-5,5-5s5,2.239,5,5v28.673    C55.021,96.435,52.783,98.673,50.021,98.673z" fill="#3F456B"/></g><g><path d="M62.438,91.506c-0.848,0-1.707-0.216-2.494-0.67L35.101,76.499c-2.392-1.38-3.212-4.438-1.832-6.83    c1.381-2.392,4.438-3.214,6.83-1.832l24.844,14.336c2.392,1.38,3.212,4.438,1.832,6.83C65.848,90.608,64.167,91.506,62.438,91.506    z" fill="#3F456B"/></g><g><path d="M37.604,91.506c-1.729,0-3.409-0.897-4.336-2.502c-1.38-2.392-0.56-5.45,1.832-6.83l24.844-14.336    c2.391-1.381,5.448-0.56,6.83,1.832c1.38,2.392,0.56,5.45-1.832,6.83L40.099,90.835C39.312,91.29,38.452,91.506,37.604,91.506z" fill="#3F456B"/></g><g><g><path d="M145.754,196.979c-11.601,0-23.192-4.469-31.941-13.383c-17.284-17.611-17.019-46,0.592-63.283     c17.609-17.285,45.998-17.02,63.283,0.591c17.284,17.611,17.019,46-0.592,63.283     C168.399,192.723,157.072,196.979,145.754,196.979z M145.747,117.517c-8.79,0-17.584,3.304-24.339,9.933     c-13.675,13.421-13.881,35.466-0.459,49.142c13.421,13.674,35.465,13.881,49.143,0.459l0,0     c13.675-13.421,13.881-35.466,0.459-49.142C163.758,120.988,154.755,117.517,145.747,117.517z" fill="#3F456B"/></g><g><path d="M117.381,185.094c-1.295,0-2.589-0.5-3.568-1.498c-1.935-1.971-1.904-5.137,0.066-7.071l24.166-23.719     c1.97-1.934,5.135-1.905,7.07,0.066c1.935,1.971,1.904,5.137-0.066,7.071l-24.166,23.719     C119.91,184.617,118.645,185.094,117.381,185.094z" fill="#3F456B"/></g><g><path d="M150.562,162.145c-4.085,4.009-10.697,3.897-14.77-0.253c-4.071-4.148-4.061-10.762,0.024-14.771     c4.084-4.008,10.697-3.895,14.768,0.253C154.657,151.524,154.646,158.137,150.562,162.145z" fill="#3F456B"/></g></g><g><path d="M147.221,329.739c-2.294,0-4.36-1.588-4.877-3.919c-0.054-0.234-3.057-12.953-13.117-19.66    c-2.298-1.532-2.919-4.636-1.387-6.934c1.531-2.298,4.635-2.918,6.934-1.387c13.524,9.016,17.188,25.147,17.337,25.83    c0.59,2.697-1.118,5.363-3.815,5.953C147.935,329.702,147.575,329.739,147.221,329.739z" fill="#3F456B"/></g><g><g><g><path d="M435.328,500.71c-7.566,0-15.967-1.083-25.057-3.881c-11.579-3.564-19.891-10.151-24.704-19.578      c-8.963-17.555-2.275-38.588-1.71-40.29l0.348-1.128c0.485-1.716,6.784-22.877,24.072-32.355      c9.28-5.088,19.856-5.861,31.436-2.296c37.689,11.602,49.059,40.952,50.382,44.736c0.97,2.084,4.594,11.093,1.003,22.754      c-3.686,11.977-12.397,18.379-13.854,19.382C475.396,489.449,459.714,500.709,435.328,500.71z M426.013,409.005      c-4.646,0-8.955,1.073-12.883,3.217c-13.921,7.598-19.258,26.174-19.311,26.361c-0.012,0.041-0.026,0.091-0.038,0.131      l-0.384,1.248c-0.015,0.047-0.03,0.094-0.046,0.141c-0.059,0.175-6.092,18.537,1.146,32.648      c3.541,6.902,9.838,11.788,18.716,14.521c34.311,10.562,57.096-6.5,58.05-7.232c0.102-0.078,0.221-0.163,0.328-0.233      c0.047-0.031,7.105-4.836,9.95-14.076c2.754-8.947-0.39-15.353-0.524-15.621c-0.135-0.254-0.226-0.478-0.313-0.75      c-0.407-1.227-9.679-28.075-43.932-38.619C433.015,409.583,429.422,409.005,426.013,409.005z" fill="#3F456B"/></g></g><g><path d="M410.941,473.61c-3.143,0-5.674-1.212-5.82-1.283c-1.241-0.606-1.756-2.103-1.149-3.344     c0.604-1.235,2.095-1.753,3.332-1.155c0.063,0.03,3.155,1.457,5.745,0.402c1.467-0.597,2.556-1.901,3.327-3.986     c2.529-6.831-4.113-9.817-4.879-10.135c-1.271-0.528-1.882-1.986-1.36-3.259c0.522-1.274,1.969-1.889,3.244-1.373     c0.303,0.122,3.021,1.265,5.336,3.758c3.259,3.509,4.093,8.035,2.349,12.745c-1.277,3.448-3.356,5.77-6.182,6.901     C413.548,473.417,412.195,473.61,410.941,473.61z" fill="#3F456B"/></g><g><path d="M419.587,441.622c-3.144,0-5.674-1.212-5.82-1.283c-1.241-0.606-1.756-2.103-1.149-3.344     c0.604-1.235,2.095-1.753,3.331-1.155c0.051,0.023,3.144,1.46,5.746,0.402c1.467-0.597,2.556-1.901,3.327-3.986     c2.529-6.83-4.113-9.817-4.879-10.135c-1.271-0.528-1.882-1.986-1.36-3.259c0.522-1.274,1.97-1.888,3.244-1.373     c0.303,0.122,3.021,1.265,5.336,3.758c3.259,3.509,4.093,8.035,2.349,12.744c-1.277,3.448-3.356,5.77-6.182,6.901     C422.193,441.429,420.841,441.622,419.587,441.622z" fill="#3F456B"/></g><g><path d="M432.787,463.571c-3.144,0-5.674-1.212-5.82-1.283c-1.241-0.606-1.756-2.103-1.149-3.344     c0.603-1.236,2.096-1.752,3.332-1.154c0.081,0.038,3.155,1.453,5.745,0.402c1.467-0.597,2.556-1.901,3.327-3.986     c1.101-2.973,0.668-5.461-1.324-7.605c-1.58-1.702-3.525-2.518-3.545-2.525c-1.28-0.517-1.898-1.974-1.382-3.254     c0.518-1.279,1.975-1.899,3.255-1.381c0.303,0.122,3.021,1.266,5.336,3.758c3.259,3.509,4.093,8.035,2.35,12.745     c-1.277,3.448-3.356,5.77-6.182,6.901C435.394,463.378,434.041,463.571,432.787,463.571z" fill="#3F456B"/></g><g><path d="M424.142,495.559c-3.144,0-5.674-1.212-5.82-1.283c-1.241-0.606-1.756-2.103-1.149-3.344     c0.604-1.236,2.095-1.752,3.332-1.155c0.062,0.029,3.148,1.457,5.745,0.402c1.467-0.597,2.556-1.901,3.327-3.986     c2.529-6.83-4.114-9.817-4.88-10.135c-1.271-0.528-1.882-1.986-1.36-3.259c0.522-1.274,1.969-1.887,3.244-1.373     c0.303,0.122,3.021,1.265,5.336,3.758c3.259,3.508,4.093,8.034,2.35,12.744c-1.277,3.448-3.356,5.77-6.182,6.901     C426.748,495.366,425.396,495.559,424.142,495.559z" fill="#3F456B"/></g><g><path d="M449.494,484.686c-3.144,0-5.674-1.212-5.82-1.283c-1.241-0.606-1.756-2.103-1.149-3.344     c0.604-1.236,2.095-1.751,3.332-1.154c0.081,0.038,3.156,1.454,5.745,0.402c1.467-0.597,2.556-1.901,3.327-3.986     c2.529-6.83-4.113-9.817-4.879-10.135c-1.271-0.528-1.882-1.986-1.36-3.259c0.521-1.274,1.97-1.889,3.244-1.373     c0.303,0.122,3.021,1.266,5.336,3.759c3.259,3.508,4.093,8.035,2.349,12.744c-1.277,3.448-3.356,5.77-6.182,6.901     C452.101,484.493,450.748,484.686,449.494,484.686z" fill="#3F456B"/></g><g><path d="M458.208,440.993c-3.144,0-5.674-1.212-5.82-1.283c-1.241-0.606-1.756-2.103-1.149-3.344     c0.603-1.236,2.093-1.752,3.331-1.155c0.051,0.024,3.145,1.46,5.746,0.402c1.467-0.597,2.556-1.901,3.327-3.986     c2.529-6.83-4.113-9.817-4.879-10.135c-1.271-0.528-1.882-1.986-1.36-3.259c0.521-1.274,1.969-1.888,3.244-1.373     c0.303,0.122,3.021,1.266,5.336,3.759c3.259,3.508,4.093,8.035,2.349,12.744c-1.277,3.448-3.356,5.77-6.182,6.901     C460.814,440.8,459.462,440.993,458.208,440.993z" fill="#3F456B"/></g></g></g></svg>