<?xml version="1.0" ?><svg viewBox="0 0 512 512" xmlns="http://www.w3.org/2000/svg"><defs><style>.cls-1{fill:#3f456b;}</style></defs><title/><g id="Lines"><path class="cls-1" d="M94,212H24.49a5,5,0,0,1,0-10H94c5.78,0,10.16-1.53,13-4.55,4.61-4.87,4.27-12.35,4.26-12.43s0-.21,0-.3V137a5,5,0,0,1,10,0v47.6c.07,1.65.2,12.05-6.9,19.63C109.52,209.39,102.67,212,94,212Z"/><path class="cls-1" d="M485.53,212H418.69c-8.69,0-15.54-2.61-20.37-7.77-7.1-7.58-7-18-6.9-19.63V137a5,5,0,0,1,10,0v47.72c0,.11,0,.22,0,.33s-.36,7.53,4.26,12.4c2.86,3,7.24,4.55,13,4.55h66.84a5,5,0,0,1,0,10Z"/><path class="cls-1" d="M56.38,209.29a5,5,0,0,1-5-5V168a5,5,0,0,1,5-5h59.87a5,5,0,0,1,0,10H61.38v31.28A5,5,0,0,1,56.38,209.29Z"/><path class="cls-1" d="M232,398H19a5,5,0,0,1,0-10H232a5,5,0,0,1,0,10Z"/><path class="cls-1" d="M491,398H278a5,5,0,0,1,0-10H491a5,5,0,0,1,0,10Z"/><g data-name="&lt;编组&gt;" id="_编组_"><path class="cls-1" d="M335.5,141.12H177.58a5,5,0,0,1,0-10H335.5a5,5,0,0,1,0,10Z"/><path class="cls-1" d="M484.07,141.12H369.67a5,5,0,0,1,0-10h109.4V85H31v46.12H143.17a5,5,0,0,1,0,10H26a5,5,0,0,1-5-5V80a5,5,0,0,1,5-5H484.07a5,5,0,0,1,5,5v56.12A5,5,0,0,1,484.07,141.12Z"/></g><path class="cls-1" d="M225,438H17a5,5,0,0,1-5-5.15l9-297a5,5,0,0,1,10,.3L22.15,428H220.87l30.22-156.95a5,5,0,1,1,9.82,1.9l-31,161A5,5,0,0,1,225,438Z"/><path class="cls-1" d="M493,438H285a5,5,0,0,1-4.92-4.11l-29-161A5.24,5.24,0,0,1,251,272l-.24-192a5,5,0,0,1,5-5h0a5,5,0,0,1,5,5L261,271.55,289.18,428H487.85L479,136.15a5,5,0,1,1,10-.3l9,297a5,5,0,0,1-5,5.15Z"/><path class="cls-1" d="M369,163.91H336a5,5,0,0,1-5-5V81a5,5,0,0,1,10,0v72.91h23V81a5,5,0,0,1,10,0v77.91A5,5,0,0,1,369,163.91Z"/><path class="cls-1" d="M177,163.91H143.89a5,5,0,0,1-5-5V81a5,5,0,0,1,10,0v72.91H172V81a5,5,0,0,1,10,0v77.91A5,5,0,0,1,177,163.91Z"/><path class="cls-1" d="M281.24,113a5,5,0,0,1-5-5v-1.15a5,5,0,0,1,10,0V108A5,5,0,0,1,281.24,113Z"/></g><g id="Outline"><path class="cls-1" d="M45,375.83h-.23A5,5,0,0,1,40,370.6l.14-3a5,5,0,0,1,10,.46l-.14,3A5,5,0,0,1,45,375.83Zm1.06-23H45.8A5,5,0,0,1,41,347.62l.14-3a5,5,0,0,1,10,.46l-.14,3A5,5,0,0,1,46,352.85Zm1.05-23h-.23a5,5,0,0,1-4.77-5.22l.14-3a5,5,0,1,1,10,.46l-.14,3A5,5,0,0,1,47.09,329.88Zm1.06-23h-.24a5,5,0,0,1-4.76-5.23l.14-3a5,5,0,0,1,10,.46l-.14,3A5,5,0,0,1,48.15,306.9Zm1.05-23H49a5,5,0,0,1-4.77-5.23l.14-3a5,5,0,1,1,10,.46l-.14,3A5,5,0,0,1,49.2,283.92Zm1.06-23H50a5,5,0,0,1-4.76-5.22l.14-3a5,5,0,0,1,10,.46l-.14,3A5,5,0,0,1,50.26,261Zm1.05-23h-.23a5,5,0,0,1-4.77-5.23l.14-3a5,5,0,1,1,10,.46l-.14,3A5,5,0,0,1,51.31,238Zm1.06-23h-.24a5,5,0,0,1-4.76-5.22l.14-3a5,5,0,1,1,10,.46l-.13,3A5,5,0,0,1,52.37,215Z"/><path class="cls-1" d="M467.89,375.83a5,5,0,0,1-5-4.77l-.14-3a5,5,0,0,1,10-.46l.14,3a5,5,0,0,1-4.77,5.22Zm-1.05-23a5,5,0,0,1-5-4.77l-.14-3a5,5,0,0,1,10-.46l.14,3a5,5,0,0,1-4.77,5.23Zm-1.06-23a5,5,0,0,1-5-4.77l-.14-3a5,5,0,1,1,10-.46l.14,3a5,5,0,0,1-4.76,5.22Zm-1-23a5,5,0,0,1-5-4.77l-.14-3a5,5,0,0,1,10-.46l.14,3A5,5,0,0,1,465,306.9Zm-1.06-23a5,5,0,0,1-5-4.77l-.14-3a5,5,0,1,1,10-.46l.14,3a5,5,0,0,1-4.76,5.23Zm-1.05-23a5,5,0,0,1-5-4.77l-.14-3a5,5,0,0,1,10-.46l.14,3a5,5,0,0,1-4.77,5.22Zm-1.06-23a5,5,0,0,1-5-4.77l-.13-3a5,5,0,1,1,10-.46l.14,3A5,5,0,0,1,461.8,238Zm-1.05-23a5,5,0,0,1-5-4.77l-.14-3a5,5,0,1,1,10-.46l.14,3a5,5,0,0,1-4.77,5.22Z"/><path class="cls-1" d="M265.06,275.88a50,50,0,0,1-8.78-.7,5,5,0,0,1,1.85-9.82h0c.18,0,17.95,3.17,29.76-6.66,7.37-6.13,11.11-16.26,11.11-30.08V81a5,5,0,0,1,10,0V228.62c0,17-5,29.7-14.78,37.83C284.73,274.3,273,275.88,265.06,275.88Z"/></g></svg>