<?xml version="1.0" ?><svg viewBox="0 0 512 512" xmlns="http://www.w3.org/2000/svg"><defs><style>.cls-1{fill:#3f456b;}</style></defs><title/><g id="Lines"><path class="cls-1" d="M402,501H110a35,35,0,0,1-35-35V192c0-1.79-.13-45.49,29.45-75.37C121.94,99,146,90,176,90H336c31.89,0,57,9.37,74.51,27.84,27.91,29.4,26.63,71.07,26.49,74.28V466A35,35,0,0,1,402,501ZM176,100c-27.22,0-48.9,8-64.44,23.66C84.89,150.61,85,191.54,85,192V466a25,25,0,0,0,25,25H402a25,25,0,0,0,25-25V192a2.26,2.26,0,0,1,0-.26c0-.39,1.67-40.31-23.81-67.07C387.61,108.3,365,100,336,100Z"/><path class="cls-1" d="M224,100a5,5,0,0,1-5-5V61.5a5,5,0,0,1,10,0V95A5,5,0,0,1,224,100Z"/><path class="cls-1" d="M177,48.5a5,5,0,0,1-5-5V26a15,15,0,0,1,15-15h27a15,15,0,0,1,15,15v9.42a5,5,0,1,1-10,0V26a5,5,0,0,0-5-5H187a5,5,0,0,0-5,5V43.5A5,5,0,0,1,177,48.5Z"/><path class="cls-1" d="M177,100a5,5,0,0,1-5-5V70.88a5,5,0,0,1,10,0V95A5,5,0,0,1,177,100Z"/><path class="cls-1" d="M336,100a5,5,0,0,1-5-5V70.83a5,5,0,1,1,10,0V95A5,5,0,0,1,336,100Z"/><path class="cls-1" d="M336,48.83a5,5,0,0,1-5-5V26a5,5,0,0,0-5-5H299a5,5,0,0,0-5,5v9.67a5,5,0,1,1-10,0V26a15,15,0,0,1,15-15h27a15,15,0,0,1,15,15V43.83A5,5,0,0,1,336,48.83Z"/><path class="cls-1" d="M289,100a5,5,0,0,1-5-5V61.92a5,5,0,0,1,10,0V95A5,5,0,0,1,289,100Z"/><path class="cls-1" d="M160,80.51a17.74,17.74,0,0,1-5.94-1,17.5,17.5,0,0,1-1.52-32.3C154.08,46.44,190.82,29.5,256,29.5S357.92,46.44,359.45,47.17a17.5,17.5,0,1,1-14.9,31.66s-8.08-3.62-23.08-7.19C307.78,68.38,285.3,64.5,256,64.5c-29.58,0-52,3.87-65.64,7.12-14.94,3.57-22.85,7.19-22.93,7.22A17.36,17.36,0,0,1,160,80.51Zm96-41c-63,0-97.74,16-99.19,16.71a7.5,7.5,0,1,0,6.38,13.58c.33-.16,33.18-15.29,92.81-15.29,30.45,0,53.86,4.08,68.13,7.49,16,3.83,24.55,7.74,24.64,7.78a7.5,7.5,0,1,0,6.42-13.56C353.74,55.53,319,39.5,256,39.5Z"/><path class="cls-1" d="M384,109.72a5,5,0,0,1-5-5c0-23.77-16.2-30.8-16.89-31.09a5,5,0,0,1,3.75-9.27C366.8,64.74,389,74,389,104.72A5,5,0,0,1,384,109.72Z"/><path class="cls-1" d="M128,109.72a5,5,0,0,1-5-5c0-30.75,22.2-40,23.14-40.36a5,5,0,0,1,3.75,9.27C149.15,73.94,133,81,133,104.72A5,5,0,0,1,128,109.72Z"/><path class="cls-1" d="M104.6,500.5a5,5,0,0,1-5-5V191.11c-.11-2.65-.91-33.65,20.11-55.74C133.19,121.19,152.47,114,177,114l14.68,0a5,5,0,0,1,0,10h0L177,124c-21.66,0-38.5,6.14-50,18.26-18.58,19.53-17.37,48.2-17.36,48.49a2.09,2.09,0,0,1,0,.25V495.5A5,5,0,0,1,104.6,500.5Z"/><path class="cls-1" d="M288.5,124.35h0l-64-.2a5,5,0,0,1,0-10h0l64,.2a5,5,0,0,1,0,10Z"/><path class="cls-1" d="M409,500a5,5,0,0,1-5-5V191.36c0-.29.51-29.69-18.51-49.19C374,130.45,357.73,124.5,337,124.5l-15.43,0a5,5,0,0,1,0-10h0l15.42,0c23.55,0,42.29,7,55.69,20.76,21.65,22.26,21.34,54.08,21.29,56.3V495A5,5,0,0,1,409,500Z"/><path class="cls-1" d="M448,484H429.76a5,5,0,0,1,0-10H448c13.68,0,24.31-3.86,31.62-11.48C491.64,450,491,431.39,491,431.21V367c0-3.88-.93-6.68-2.77-8.33-2.64-2.36-6.64-2-6.68-2a5.07,5.07,0,0,1-.55,0H433a5,5,0,0,1,0-10h47.78c1.74-.14,8.67-.33,14.12,4.55,4.05,3.62,6.1,8.93,6.1,15.78v63.91c.06,2,.38,23.37-14.16,38.53C477.57,479.1,464.5,484,448,484Z"/><path class="cls-1" d="M82,484H63.77c-16.5,0-29.57-4.9-38.84-14.56-14.54-15.16-14.22-36.53-14.16-38.53V367c0-6.85,2.06-12.16,6.11-15.78,5.44-4.88,12.38-4.69,14.11-4.55H78.77a5,5,0,0,1,0,10h-48a5.07,5.07,0,0,1-.55,0h0s-4.08-.34-6.72,2.07c-1.81,1.65-2.73,4.44-2.73,8.29v64.21c0,.17-.55,18.93,11.44,31.37C39.51,470.16,50.13,474,63.77,474H82a5,5,0,0,1,0,10Z"/><path class="cls-1" d="M311,181H299a15,15,0,0,1-15-15V118a15,15,0,0,1,15-15h12a15,15,0,0,1,15,15v48A15,15,0,0,1,311,181Zm-12-68a5,5,0,0,0-5,5v48a5,5,0,0,0,5,5h12a5,5,0,0,0,5-5V118a5,5,0,0,0-5-5Z"/><path class="cls-1" d="M214,181H202a15,15,0,0,1-15-15V118a15,15,0,0,1,15-15h12a15,15,0,0,1,15,15v48A15,15,0,0,1,214,181Zm-12-68a5,5,0,0,0-5,5v48a5,5,0,0,0,5,5h12a5,5,0,0,0,5-5V118a5,5,0,0,0-5-5Z"/><path class="cls-1" d="M311,268H202a15,15,0,0,1-15-15V209a15,15,0,0,1,15-15H311a15,15,0,0,1,15,15v44A15,15,0,0,1,311,268ZM202,204a5,5,0,0,0-5,5v44a5,5,0,0,0,5,5H311a5,5,0,0,0,5-5V209a5,5,0,0,0-5-5Z"/><path class="cls-1" d="M335.5,308H281.62a5,5,0,0,1,0-10H335.5a5,5,0,0,1,0,10Z"/><path class="cls-1" d="M337,388H281.5a5,5,0,0,1,0-10H337c15,0,26.35-4.64,33.68-13.78,13.73-17.14,10.78-45.83,9.15-56.22H368.5a5,5,0,0,1,0-10H384a5,5,0,0,1,4.88,3.9c.4,1.77,9.53,43.66-10.38,68.55C369.18,382.09,355.22,388,337,388Z"/><path class="cls-1" d="M231.38,388H176c-19.86,0-34.78-6.28-44.33-18.66-19.36-25.11-9-65.89-8.51-67.61A5,5,0,0,1,128,298H231.25a5,5,0,0,1,0,10H132c-1.94,10-5.74,38,7.58,55.26C147.17,373,159.41,378,176,378h55.38a5,5,0,0,1,0,10Z"/><path class="cls-1" d="M344,468H169c-36.93,0-38-33.21-38-37V368a5,5,0,0,1,10,0v63a32.39,32.39,0,0,0,4.17,15.5c4.56,7.63,12.58,11.5,23.83,11.5H344c23.49,0,27-16.92,27-27V366a5,5,0,0,1,10,0v65c0,4.34-.65,12.78-5,20.52C371.74,459,362.75,468,344,468Z"/><path class="cls-1" d="M281,388a5,5,0,0,1-5-5V297a5,5,0,0,0-5-5H242a5,5,0,0,0-5,5v86a5,5,0,0,1-10,0V297a15,15,0,0,1,15-15h29a15,15,0,0,1,15,15v86A5,5,0,0,1,281,388Z"/><path class="cls-1" d="M256,447c-22.94,0-29-19-29-29v-2.76a5,5,0,0,1,10,0V418c0,1.92.71,19,19,19s19.86-16.76,20-19.13v-2.63a5,5,0,0,1,10,0v3C285.58,428.17,278.78,447,256,447Z"/><path class="cls-1" d="M461.52,229H454a5,5,0,0,1,0-10h7.52c2.42,0,5.64-.38,7.25-2.18a6,6,0,0,0,1.21-4.16,3.6,3.6,0,0,1,0-.66V201a2.75,2.75,0,0,0-.83-2.28c-1.73-1.6-5.9-1.84-7.22-1.73H432a5,5,0,0,1,0-10h29.36c1.63-.09,9.53-.28,14.56,4.39a12.73,12.73,0,0,1,4,9.61v10.72a15.83,15.83,0,0,1-3.55,11.57C473.12,227.08,468.12,229,461.52,229Z"/><path class="cls-1" d="M480,356a5,5,0,0,1-5-5V287c0-5.56-3.23-13.27-4.47-15.77a3.52,3.52,0,0,1-.18-.4l-11-28A5,5,0,0,1,459,241V224a5,5,0,0,1,10,0v16.05L479.58,267c.79,1.63,5.42,11.54,5.42,20v64A5,5,0,0,1,480,356Z"/><path class="cls-1" d="M456,356a5,5,0,0,1-5-5V287a5,5,0,0,1,5-5h24a5,5,0,0,1,0,10H461v59A5,5,0,0,1,456,356Z"/><path class="cls-1" d="M305,164a5,5,0,0,1-5-5v-1a5,5,0,0,1,10,0v1A5,5,0,0,1,305,164Z"/><path class="cls-1" d="M208,164a5,5,0,0,1-5-5v-1a5,5,0,0,1,10,0v1A5,5,0,0,1,208,164Z"/><path class="cls-1" d="M257,319a5,5,0,0,1-5-5v-1a5,5,0,0,1,10,0v1A5,5,0,0,1,257,319Z"/><path class="cls-1" d="M257,341a5,5,0,0,1-5-5v-1a5,5,0,0,1,10,0v1A5,5,0,0,1,257,341Z"/><path class="cls-1" d="M208.5,220.5h-1a5,5,0,0,1,0-10h1a5,5,0,0,1,0,10Z"/><path class="cls-1" d="M209,253h-1a5,5,0,0,1,0-10h1a5,5,0,0,1,0,10Z"/><path class="cls-1" d="M305.5,220.5h-1a5,5,0,0,1,0-10h1a5,5,0,0,1,0,10Z"/><path class="cls-1" d="M306,253h-1a5,5,0,0,1,0-10h1a5,5,0,0,1,0,10Z"/><path class="cls-1" d="M358,345H346a15,15,0,0,1-15-15V282a15,15,0,0,1,15-15h12a15,15,0,0,1,15,15v48A15,15,0,0,1,358,345Zm-12-68a5,5,0,0,0-5,5v48a5,5,0,0,0,5,5h12a5,5,0,0,0,5-5V282a5,5,0,0,0-5-5Z"/><path class="cls-1" d="M352,328a5,5,0,0,1-5-5v-1a5,5,0,0,1,10,0v1A5,5,0,0,1,352,328Z"/><path class="cls-1" d="M352,276a5,5,0,0,1-5-5V159a5,5,0,0,1,10,0V271A5,5,0,0,1,352,276Z"/><path class="cls-1" d="M33,356a5,5,0,0,1-5-5V234a15,15,0,0,1,15-15H80a5,5,0,0,1,0,10H43a5,5,0,0,0-5,5V351A5,5,0,0,1,33,356Z"/><path class="cls-1" d="M56.49,229a5,5,0,0,1-4.79-3.62c-.26-.9-6.22-22.15,4-35.9,5.27-7.11,13.6-10.79,24.76-11h.07a5,5,0,0,1,.07,10c-8,.12-13.49,2.37-16.85,6.89-7.26,9.76-2.46,27-2.41,27.22a5,5,0,0,1-3.44,6.17A5.06,5.06,0,0,1,56.49,229Z"/><path class="cls-1" d="M291,420H221a15,15,0,0,1-15-15V393a15,15,0,0,1,15-15h70a15,15,0,0,1,15,15v12A15,15,0,0,1,291,420Zm-70-32a5,5,0,0,0-5,5v12a5,5,0,0,0,5,5h70a5,5,0,0,0,5-5V393a5,5,0,0,0-5-5Z"/><path class="cls-1" d="M257,388a5,5,0,0,1-5-5V353a5,5,0,0,1,10,0v30A5,5,0,0,1,257,388Z"/><path class="cls-1" d="M433,71c-10,0-13.88-7.37-14.15-12.54l-1.74-12.05a21.5,21.5,0,1,1,32.78,0l-1.74,12.05C447.87,63.63,443.68,71,433,71Zm.5-50a11.49,11.49,0,0,0-8.13,19.62,5,5,0,0,1,1.41,2.82l2,13.83a2.6,2.6,0,0,1,.05.62C429,61,432,61,433,61c4,0,5-1.7,5.17-3.16a2.28,2.28,0,0,1,.05-.56l2-13.83a5,5,0,0,1,1.41-2.82A11.49,11.49,0,0,0,433.5,21Z"/><path class="cls-1" d="M472.1,107a18,18,0,0,1-6.83-1.45h0c-9.23-3.77-10.06-12.08-8.35-17l2.95-11.81a21.5,21.5,0,1,1,30.35,12.42L484,99.65A13.16,13.16,0,0,1,472.1,107Zm-3-10.7c3.7,1.51,5.29.32,6-1a2.67,2.67,0,0,1,.26-.5l7.09-12a5,5,0,0,1,2.38-2.08,11.5,11.5,0,1,0-15.05-6.16,5.08,5.08,0,0,1,.24,3.15l-3.39,13.56a2.81,2.81,0,0,1-.19.58c-1,3,1.78,4.08,2.69,4.46Z"/><path class="cls-1" d="M402.49,122a5,5,0,0,1-1.19-9.86c31.59-7.77,27-43.94,26.75-45.47a5,5,0,0,1,9.9-1.41,67.24,67.24,0,0,1-1.68,24.13c-4.51,17.1-15.77,28.33-32.58,32.46A4.93,4.93,0,0,1,402.49,122Z"/><path class="cls-1" d="M419.34,143.51a5,5,0,0,1-.19-10c35.18-1.34,42.67-32.29,43-33.61a5,5,0,0,1,9.76,2.18A57.24,57.24,0,0,1,462,122.21c-7,9.24-20.06,20.44-42.5,21.29Z"/><path class="cls-1" d="M466,197a5,5,0,0,1-5-5V179c0-2.25-.73-3.22-1.28-3.75-1.66-1.59-4.84-1.83-5.53-1.81H429.88a5,5,0,0,1,0-10h24.05c1.23,0,8,0,12.73,4.6A14.77,14.77,0,0,1,471,179v13A5,5,0,0,1,466,197Z"/><path class="cls-1" d="M468,258H432a5,5,0,0,1,0-10h36a5,5,0,0,1,0,10Z"/></g><g id="Outline"><path class="cls-1" d="M288,226H226a5,5,0,0,1,0-10h62a5,5,0,0,1,0,10Z"/><path class="cls-1" d="M288,246H226a5,5,0,0,1,0-10h62a5,5,0,0,1,0,10Z"/><path class="cls-1" d="M488,380h-3a5,5,0,0,1,0-10h3a5,5,0,0,1,0,10Zm-23,0h-3a5,5,0,0,1,0-10h3a5,5,0,0,1,0,10Zm-23,0h-3a5,5,0,0,1,0-10h3a5,5,0,0,1,0,10Z"/><path class="cls-1" d="M72,380H69a5,5,0,0,1,0-10h3a5,5,0,0,1,0,10Zm-23,0H46a5,5,0,0,1,0-10h3a5,5,0,0,1,0,10Zm-23,0H23a5,5,0,0,1,0-10h3a5,5,0,0,1,0,10Z"/><path class="cls-1" d="M368,180H352a5,5,0,0,1,0-10h16a5,5,0,0,1,0,10Z"/><path class="cls-1" d="M368,204H352a5,5,0,0,1,0-10h16a5,5,0,0,1,0,10Z"/><path class="cls-1" d="M368,229H352a5,5,0,0,1,0-10h16a5,5,0,0,1,0,10Z"/><path class="cls-1" d="M368,252H352a5,5,0,0,1,0-10h16a5,5,0,0,1,0,10Z"/></g></svg>