<?xml version="1.0" ?><svg id="Lines" viewBox="0 0 512 512" xmlns="http://www.w3.org/2000/svg"><defs><style>.cls-1{fill:#3f456b;}</style></defs><title/><path class="cls-1" d="M458.56,485H54.13c-12.57,0-22.65-3.89-30-11.56C11.61,460.33,12,440.86,12,438.91V239c0-22.88,6.53-40.5,19.42-52.35,18.45-17,43.26-15.84,46.08-15.65h64.87a5,5,0,0,1,0,10h-65l-.41,0c-.22,0-22.9-1.61-38.79,13.09C27.44,204,22,219.07,22,239V439.23c0,.15-.57,17,9.41,27.35,5.37,5.59,13,8.42,22.71,8.42H458.56c9.73,0,17.39-2.85,22.76-8.47,10-10.47,9.37-27.14,9.36-27.3V239c0-19.93-5.42-35-16.12-44.93C458.67,179.37,436,181,435.76,181l-.4,0H369.25a5,5,0,0,1,0-10h65.93c2.83-.19,27.63-1.34,46.09,15.65,12.88,11.85,19.41,29.47,19.41,52.35V438.9c.07,2,.4,21.42-12.13,34.54C481.22,481.11,471.13,485,458.56,485Z"/><path class="cls-1" d="M343.25,181H168.5a5,5,0,0,1,0-10H343.25a5,5,0,0,1,0,10Z"/><path class="cls-1" d="M343.25,161.24H168.5a5,5,0,0,1,0-10H343.25a5,5,0,0,1,0,10Z"/><path class="cls-1" d="M196,424h-6.06a15,15,0,0,1-15-15V377.75a15,15,0,0,1,15-15H196a15,15,0,0,1,15,15V409A15,15,0,0,1,196,424Zm-6.06-51.25a5,5,0,0,0-5,5V409a5,5,0,0,0,5,5H196a5,5,0,0,0,5-5V377.75a5,5,0,0,0-5-5Z"/><path class="cls-1" d="M193,409.19a5,5,0,0,1-5-5v-.76a5,5,0,0,1,10,0v.76A5,5,0,0,1,193,409.19Z"/><path class="cls-1" d="M184,260H127a5,5,0,0,1-5-5V208a5,5,0,0,1,5-5h16a5,5,0,0,1,0,10H132v37h47V213H168.1a5,5,0,0,1,0-10H184a5,5,0,0,1,5,5v47A5,5,0,0,1,184,260Z"/><path class="cls-1" d="M343.65,224a5,5,0,0,1-5-5V123.59c0-.22-.35-23.75-17.68-41.16-14.11-14.17-36-21.35-65.1-21.35s-51,7.18-65.09,21.35c-17.36,17.44-17.68,41-17.68,41.24V218a5,5,0,0,1-10,0V123.66c0-1.13.23-27.84,20.6-48.29C199.75,59.25,224,51.08,255.87,51.08S312,59.25,328.05,75.37c20.37,20.46,20.6,47.1,20.6,48.22V219A5,5,0,0,1,343.65,224Z"/><path class="cls-1" d="M385,260H328a5,5,0,0,1-5-5V208a5,5,0,0,1,5-5h15.65a5,5,0,0,1,0,10H333v37h47V213H368.73a5,5,0,0,1,0-10H385a5,5,0,0,1,5,5v47A5,5,0,0,1,385,260Z"/><path class="cls-1" d="M368.73,224a5,5,0,0,1-5-5V123.84c0-3.45-.57-34.3-24.67-58.77-19-19.29-47-29.07-83.19-29.07s-64.19,9.78-83.19,29.07C148.07,90.07,148,122.44,148,123.8V218a5,5,0,0,1-10,0V123.84c0-3.81.52-38.34,27.54-65.79,20.94-21.27,51.33-32,90.31-32s69.38,10.78,90.31,32.05c26.91,27.33,27.56,62,27.55,65.81V219A5,5,0,0,1,368.73,224Z"/><path class="cls-1" d="M214,452H58a15,15,0,0,1-15-15V336c0-19.24,8.93-28.47,16.42-32.82C67.18,298.67,75.64,298,80,298H193a40.18,40.18,0,0,1,20.08,5.06C220.34,307.3,229,316.28,229,335V437A15,15,0,0,1,214,452ZM80,308c-10.08,0-27,3.64-27,28V437a5,5,0,0,0,5,5H214a5,5,0,0,0,5-5V335c0-23.49-16.29-27-26-27Z"/><path class="cls-1" d="M224,356H48a5,5,0,0,1,0-10H224a5,5,0,0,1,0,10Z"/><path class="cls-1" d="M192,372a5,5,0,0,1-5-5V352a5,5,0,0,1,10,0v15A5,5,0,0,1,192,372Z"/><path class="cls-1" d="M437,424h-6.06a15,15,0,0,1-15-15V377.75a15,15,0,0,1,15-15H437a15,15,0,0,1,15,15V409A15,15,0,0,1,437,424Zm-6.06-51.25a5,5,0,0,0-5,5V409a5,5,0,0,0,5,5H437a5,5,0,0,0,5-5V377.75a5,5,0,0,0-5-5Z"/><path class="cls-1" d="M434,409.19a5,5,0,0,1-5-5v-.76a5,5,0,0,1,10,0v.76A5,5,0,0,1,434,409.19Z"/><path class="cls-1" d="M455,452H299a15,15,0,0,1-15-15V336c0-19.24,8.93-28.47,16.42-32.82,7.76-4.51,16.22-5.18,20.58-5.18H434a40.18,40.18,0,0,1,20.08,5.06C461.34,307.3,470,316.28,470,335V437A15,15,0,0,1,455,452ZM321,308c-10.08,0-27,3.64-27,28V437a5,5,0,0,0,5,5H455a5,5,0,0,0,5-5V335c0-23.49-16.29-27-26-27Z"/><path class="cls-1" d="M465,356H289a5,5,0,0,1,0-10H465a5,5,0,0,1,0,10Z"/><path class="cls-1" d="M433,372a5,5,0,0,1-5-5V352a5,5,0,0,1,10,0v15A5,5,0,0,1,433,372Z"/><path class="cls-1" d="M437,248h-6.06a15,15,0,0,1-15-15V201.75a15,15,0,0,1,15-15H437a15,15,0,0,1,15,15V233A15,15,0,0,1,437,248Zm-6.06-51.25a5,5,0,0,0-5,5V233a5,5,0,0,0,5,5H437a5,5,0,0,0,5-5V201.75a5,5,0,0,0-5-5Z"/><path class="cls-1" d="M434,233.19a5,5,0,0,1-5-5v-.76a5,5,0,0,1,10,0v.76A5,5,0,0,1,434,233.19Z"/><path class="cls-1" d="M433,196a5,5,0,0,1-5-5V176a5,5,0,0,1,10,0v15A5,5,0,0,1,433,196Z"/><path class="cls-1" d="M72.11,181a5,5,0,0,1-5-5c0-8.42,2.38-15,7.08-19.49a21.67,21.67,0,0,1,14.88-5.86h54a5,5,0,0,1,0,10H88.8A12,12,0,0,0,81,163.77c-2.61,2.56-3.93,6.66-3.93,12.2A5,5,0,0,1,72.11,181Z"/><path class="cls-1" d="M440,179.76h-.27A5,5,0,0,1,435,174.5c.22-4.15-.71-7.34-2.76-9.51-3.4-3.59-9.17-3.75-9.23-3.75H369a5,5,0,0,1,0-10h54c1,0,10.16.19,16.49,6.87,4,4.24,5.86,9.93,5.48,16.92A5,5,0,0,1,440,179.76Z"/></svg>