<?xml version="1.0" ?><svg viewBox="0 0 512 512" xmlns="http://www.w3.org/2000/svg"><defs><style>.cls-1{fill:#3f456b;}</style></defs><title/><g id="Lines"><path class="cls-1" d="M293.92,270.26a5,5,0,0,1-3.54-8.53c47.09-47.25,67.53-123.11,74-152.75-42.58,32-75.29,64.4-97.34,96.53a5,5,0,0,1-9.11-3.17C262.73,133,240.73,60.62,230.4,31.13,211,97,202.36,155,204.83,203.71a5,5,0,0,1-9.13,3.06c-22.06-32.55-55.06-65.41-98.19-97.8,4.76,21.83,17.07,68.71,41.94,110.61a5,5,0,0,1-8.6,5.11C96.22,166.34,85.62,100.86,85.19,98.1a5,5,0,0,1,7.86-4.83c43.15,31.18,77.17,63,101.37,94.63C194.31,138,204.62,79.58,225.16,14a5,5,0,0,1,9.4-.41c.37.9,35.11,86.39,34,172.86,24.13-31.2,57.78-62.49,100.26-93.19a5,5,0,0,1,7.87,4.83c-.17,1.11-4.4,27.5-16.24,61.84-9.8,28.46-26.71,67.23-53.22,98.23,18.74-2.08,39.52-1.51,62,1.72a5,5,0,0,1-1.42,9.9c-27.23-3.92-51.76-3.79-72.92.38A5.39,5.39,0,0,1,293.92,270.26Z"/><path class="cls-1" d="M314.77,370.08c-27.92,0-50.58-7.36-65.65-21.35a5,5,0,1,1,6.8-7.33c26.92,25,74.18,18.8,91.56,15.45a224,224,0,0,0-20.73-28.17,5,5,0,0,1,3.11-8.25,219.37,219.37,0,0,0,36.69-8.31,5,5,0,0,1,3,9.54A237.54,237.54,0,0,1,340,329a258,258,0,0,1,19.68,28.69,5,5,0,0,1-3,7.39,178.55,178.55,0,0,1-39.28,5C316.54,370.07,315.65,370.08,314.77,370.08Z"/><path class="cls-1" d="M311.16,477.54A43.13,43.13,0,0,1,303,392.07h0a43.12,43.12,0,1,1,8.15,85.47Zm-6.25-75.65a33.12,33.12,0,1,0,38.79,26.25,33.16,33.16,0,0,0-38.79-26.25Z"/><path class="cls-1" d="M470.47,453h-92a15,15,0,0,1-15-15V105.5a15,15,0,0,1,15-15h92a15,15,0,0,1,15,15V438A15,15,0,0,1,470.47,453Zm-92-352.5a5,5,0,0,0-5,5V438a5,5,0,0,0,5,5h92a5,5,0,0,0,5-5V105.5a5,5,0,0,0-5-5Z"/><path class="cls-1" d="M480.47,133.5h-112a5,5,0,0,1,0-10h112a5,5,0,0,1,0,10Z"/><path class="cls-1" d="M480.47,308.5h-112a5,5,0,0,1,0-10h112a5,5,0,0,1,0,10Z"/><path class="cls-1" d="M461.91,500.5H387.07a5,5,0,1,1,0-10h74.84a5,5,0,1,1,0,10Z"/><path class="cls-1" d="M406.21,500.5a5,5,0,0,1-5-5V303.75a5,5,0,0,1,10,0V495.5A5,5,0,0,1,406.21,500.5Z"/><path class="cls-1" d="M443.34,500.5a5,5,0,0,1-5-5V303.75a5,5,0,0,1,10,0V495.5A5,5,0,0,1,443.34,500.5Z"/><path class="cls-1" d="M443.34,99.75a5,5,0,0,1-5-5v-13c0-2.71-3-5-6.6-5H417.81c-3.57,0-6.6,2.29-6.6,5v13a5,5,0,0,1-10,0v-13c0-8.27,7.45-15,16.6-15h13.93c9.15,0,16.6,6.73,16.6,15v13A5,5,0,0,1,443.34,99.75Z"/><path class="cls-1" d="M424.78,76.75a5,5,0,0,1-5-5V15.5a5,5,0,0,1,10,0V71.75A5,5,0,0,1,424.78,76.75Z"/><path class="cls-1" d="M247.11,500.5H23.2a5,5,0,0,1-4.95-4.27c-14.62-99.14-.88-218-.05-225V223.5a5,5,0,0,1,5-5H247.11a5,5,0,0,1,5,5v47.7c.83,7,14.57,125.89-.05,225A5,5,0,0,1,247.11,500.5Zm-219.57-10H242.77c13.78-99.47-.48-217.19-.62-218.39a4.08,4.08,0,0,1,0-.61v-43H28.2v43a4.08,4.08,0,0,1,0,.61C28,273.31,13.76,391.07,27.54,490.5Z"/><path class="cls-1" d="M247.11,292.5h-224a5,5,0,0,1,0-10h224a5,5,0,0,1,0,10Z"/></g><g id="Outline"><path class="cls-1" d="M274.14,447.93a5,5,0,0,1-1.12-9.88l74.07-17a5,5,0,0,1,2.24,9.75l-74.07,17A4.76,4.76,0,0,1,274.14,447.93Z"/><path class="cls-1" d="M415.49,335.82H387.74a5,5,0,0,1,0-10h27.75a5,5,0,0,1,0,10Z"/><path class="cls-1" d="M404.74,366.52h-17a5,5,0,0,1,0-10h17a5,5,0,0,1,0,10Z"/><path class="cls-1" d="M415.49,157.22H387.74a5,5,0,0,1,0-10h27.75a5,5,0,0,1,0,10Z"/><path class="cls-1" d="M415.49,215.82H387.74a5,5,0,0,1,0-10h27.75a5,5,0,0,1,0,10Z"/><path class="cls-1" d="M404.74,186.05h-17a5,5,0,0,1,0-10h17a5,5,0,0,1,0,10Z"/><path class="cls-1" d="M404.74,246.52h-17a5,5,0,0,1,0-10h17a5,5,0,0,1,0,10Z"/><path class="cls-1" d="M415.49,396.28H387.74a5,5,0,0,1,0-10h27.75a5,5,0,0,1,0,10Z"/><path class="cls-1" d="M247.11,261.5h-224a5,5,0,0,1,0-10h224a5,5,0,0,1,0,10Z"/><path class="cls-1" d="M175.67,429.64a5,5,0,0,1-3.54-1.46L91,347.06A5,5,0,1,1,98.09,340l81.11,81.12a5,5,0,0,1-3.53,8.53Z"/><path class="cls-1" d="M94.55,429.64A5,5,0,0,1,91,421.11L172.13,340a5,5,0,1,1,7.07,7.07L98.09,428.18A5,5,0,0,1,94.55,429.64Z"/><path class="cls-1" d="M229.93,227.16a5,5,0,0,1-5-5V15.5a5,5,0,0,1,10,0V222.16A5,5,0,0,1,229.93,227.16Z"/><path class="cls-1" d="M175.89,227.16a5,5,0,0,1-4.18-2.26c-41.39-63.21-85.2-124-85.64-124.65a5,5,0,0,1,8.11-5.85c.44.61,44.38,61.62,85.89,125a5,5,0,0,1-4.18,7.74Z"/><path class="cls-1" d="M251.3,309.44a5,5,0,0,1-1-9.9,1152.57,1152.57,0,0,1,117.2-17.88,5,5,0,1,1,1,9.95,1143.4,1143.4,0,0,0-116.15,17.72A5.05,5.05,0,0,1,251.3,309.44Z"/><path class="cls-1" d="M249.58,281.88a5,5,0,0,1-4.27-7.59c47.28-78,118.42-176.68,119.14-177.66a5,5,0,1,1,8.1,5.85c-.71,1-71.62,99.34-118.69,177A5,5,0,0,1,249.58,281.88Z"/><path class="cls-1" d="M353.05,365.22a5,5,0,0,1-2.86-.9C330,350.2,279.08,331.09,250.51,321a5,5,0,1,1,3.35-9.43c29,10.3,80.91,29.8,102.06,44.59a5,5,0,0,1-2.87,9.1Z"/></g></svg>