<?xml version="1.0" ?><svg viewBox="0 0 512 512" xmlns="http://www.w3.org/2000/svg"><defs><style>.cls-1{fill:#3f456b;}</style></defs><title/><g id="Lines"><path class="cls-1" d="M194.22,339.78l-.37,0C144.4,336.13,98.79,322.37,65.42,301,31,278.93,12,250.26,12,220.27,12,195.6,24.64,172,48.56,151.88A5,5,0,1,1,55,159.53c-21.58,18.12-33,39.12-33,60.74,0,55.22,74.19,102.3,172.58,109.52a5,5,0,0,1-.36,10Z"/><path class="cls-1" d="M333.7,481c-44.31,0-86-9.83-117.51-27.68C183.82,435,166,410.25,166,383.72c0-18.72,9-36.85,26.13-52.41a5,5,0,1,1,6.73,7.39c-15,13.62-22.86,29.19-22.86,45,0,22.77,16,44.4,45.12,60.9,30,17,70,26.38,112.58,26.38s82.59-9.37,112.58-26.38c29.1-16.5,45.13-38.13,45.13-60.9,0-38.94-47.45-73.51-115.38-84.07a5,5,0,0,1,1.53-9.88c34.5,5.36,65.7,17.26,87.85,33.49,23.55,17.26,36,38.17,36,60.46,0,26.53-17.83,51.25-50.19,69.6C419.75,471.17,378,481,333.7,481Z"/><path class="cls-1" d="M168,211c-48.46,0-85.41-13.72-109.82-40.77C21.48,129.56,26.7,74,26.94,71.68a5,5,0,0,1,5.6-4.46C105,76.35,139.32,113.54,155.4,143.14,172.82,175.2,173,204.76,173,206A5,5,0,0,1,168,211ZM36.64,77.88c-.3,14.31,1.49,55.27,29,85.72,21.57,23.85,54.19,36.4,97,37.34a140.33,140.33,0,0,0-16.31-53.41,125.81,125.81,0,0,0-38.9-43.26C88.28,90.92,64.45,82.05,36.64,77.88Z"/><path class="cls-1" d="M167.69,211a5,5,0,0,1-5-5c0-1.24.2-30.8,17.62-62.86,16.08-29.6,50.45-66.79,122.86-75.92a5,5,0,0,1,5.6,4.46c.24,2.34,5.46,57.88-31.25,98.55C253.1,197.28,216.15,211,167.69,211ZM299.07,77.88C271.14,82.07,247.25,91,228,104.43a125.66,125.66,0,0,0-38.87,43.48,139.78,139.78,0,0,0-16.12,53c42.85-.94,75.49-13.49,97-37.34C297.58,133.15,299.37,92.2,299.07,77.88Z"/><path class="cls-1" d="M209,118.51a5,5,0,0,1-5-4.8c-1.92-47.58-27.2-81-36.3-91.6-34.39,34.08-36.05,90.92-36.07,91.51a5,5,0,0,1-10-.21c.06-2.67,1.84-65.67,43-102.15a5,5,0,0,1,6.82.18c1.63,1.61,40,40.14,42.51,101.87a5,5,0,0,1-4.8,5.2Z"/><path class="cls-1" d="M86,91.59a5,5,0,0,1-5-4.55c-3.13-34.31,5.25-58.93,5.61-60A5,5,0,0,1,93.07,24C125.81,35.71,142.3,52.38,143,53.08a5,5,0,1,1-7.15,7c-.2-.2-14.07-14.08-41.12-24.75A155,155,0,0,0,91,86.14a5,5,0,0,1-4.53,5.43Z"/><path class="cls-1" d="M249.67,91.59l-.46,0a5,5,0,0,1-4.52-5.43A155,155,0,0,0,241,35.31c-27.26,10.74-41,24.6-41.11,24.75a5,5,0,0,1-7.17-7c.69-.7,17.17-17.37,49.91-29.06A5,5,0,0,1,249,27.08c.36,1,8.74,25.65,5.61,60A5,5,0,0,1,249.67,91.59Z"/><path class="cls-1" d="M168,238a5,5,0,0,1-5-5V206a5,5,0,0,1,10,0v27A5,5,0,0,1,168,238Z"/><path class="cls-1" d="M208.75,340q-7.19,0-14.69-.23a5,5,0,1,1,.31-10c120.08,3.68,179.16-39.23,179.74-39.66l.17-.13c29-19.71,44.91-44.48,44.91-69.72,0-17.71-7.81-35.29-22.63-51L277.47,197.78a5,5,0,0,1-4.19-8.84l71.83-54.56A260.67,260.67,0,0,0,300,119.05a5,5,0,1,1,2.38-9.71,264.21,264.21,0,0,1,54.53,19.56,5,5,0,0,1,.8,8.46l-59.46,45.16L397,158.88a5,5,0,0,1,4.72,1.35c18,18.12,27.46,38.88,27.46,60,0,28.63-17.47,56.31-49.2,77.94-1.46,1.06-16.7,11.93-46.47,22.38C307.64,329.67,265.66,340,208.75,340Z"/><path class="cls-1" d="M427.7,102.35c-41.66,0-74.29-19.46-74.29-44.3S386,13.75,427.7,13.75,502,33.21,502,58.05,469.36,102.35,427.7,102.35Zm0-78.6c-34.85,0-64.29,15.7-64.29,34.3s29.44,34.3,64.29,34.3S492,76.64,492,58.05,462.56,23.75,427.7,23.75Z"/></g><g id="Outline"><path class="cls-1" d="M92,391a29.76,29.76,0,0,1-27.82-19.77,5,5,0,0,1,9.37-3.5C78.81,381.89,92.65,381,92.79,381a5,5,0,0,1,.76,10C93.06,391,92.53,391,92,391Z"/><path class="cls-1" d="M45.7,391c-.56,0-1.09,0-1.58-.06a5,5,0,1,1,.76-10,19.76,19.76,0,0,0,19.27-13.24,5,5,0,0,1,9.37,3.5A29.76,29.76,0,0,1,45.7,391Z"/><path class="cls-1" d="M140.64,391a29.75,29.75,0,0,1-27.82-19.77,5,5,0,0,1,9.37-3.5c5.29,14.14,19.13,13.25,19.27,13.24a5,5,0,0,1,.76,10C141.73,391,141.2,391,140.64,391Z"/><path class="cls-1" d="M94.37,391c-.56,0-1.09,0-1.58-.06a5,5,0,0,1,.73-10,19.75,19.75,0,0,0,19.3-13.24,5,5,0,0,1,9.37,3.5A29.76,29.76,0,0,1,94.37,391Z"/><path class="cls-1" d="M118.31,433a29.75,29.75,0,0,1-27.82-19.77,5,5,0,0,1,9.37-3.5C105.15,423.89,119,423,119.13,423a5,5,0,0,1,.76,10C119.4,433,118.87,433,118.31,433Z"/><path class="cls-1" d="M72,433c-.55,0-1.08,0-1.57-.06a5,5,0,0,1,.73-10,19.76,19.76,0,0,0,19.3-13.24,5,5,0,0,1,9.37,3.5A29.76,29.76,0,0,1,72,433Z"/><path class="cls-1" d="M315,457a5,5,0,0,1,0-10c35.13,0,84.21-4.37,118.55-25.17,20.25-12.27,25.79-24.66,25.85-24.78a5,5,0,0,1,9.22,3.87C467.67,403.21,443.86,457,315,457Z"/></g></svg>