<?xml version="1.0" ?><svg viewBox="0 0 512 512" xmlns="http://www.w3.org/2000/svg"><defs><style>.cls-1{fill:#3f456b;}</style></defs><title/><g id="Lines"><path class="cls-1" d="M496,500H16a5,5,0,0,1-5-5V384a5,5,0,0,1,5-5H287.12a5,5,0,0,1,0,10H21V490H491V389H432.88a5,5,0,0,1,0-10H496a5,5,0,0,1,5,5V495A5,5,0,0,1,496,500Z"/><path class="cls-1" d="M496,389a5,5,0,0,1-5-5V197H21V384a5,5,0,0,1-10,0V192a5,5,0,0,1,5-5H496a5,5,0,0,1,5,5V384A5,5,0,0,1,496,389Z"/><path class="cls-1" d="M48,389a5,5,0,0,1-5-5V192a5,5,0,0,1,10,0V384A5,5,0,0,1,48,389Z"/><path class="cls-1" d="M465,389a5,5,0,0,1-5-5V192a5,5,0,0,1,10,0V384A5,5,0,0,1,465,389Z"/><path class="cls-1" d="M465,341H432.62a5,5,0,0,1,0-10H465a5,5,0,0,1,0,10Z"/><path class="cls-1" d="M288,341H48a5,5,0,0,1,0-10H288a5,5,0,0,1,0,10Z"/><path class="cls-1" d="M336,500a5,5,0,0,1-5-5V437a5,5,0,0,1,10,0v58A5,5,0,0,1,336,500Z"/><path class="cls-1" d="M176,500a5,5,0,0,1-5-5V384a5,5,0,0,1,10,0V495A5,5,0,0,1,176,500Z"/><path class="cls-1" d="M258,420h-3a5,5,0,0,1,0-10h3a5,5,0,0,1,0,10Z"/><path class="cls-1" d="M98,420H95a5,5,0,0,1,0-10h3a5,5,0,0,1,0,10Z"/><path class="cls-1" d="M198.41,340.07a5,5,0,0,1-3.87-8.18,12.35,12.35,0,0,0-.81-4,4.27,4.27,0,0,1-.18-.61c-12.42-51.46-.48-96.52,0-98.42,0-.1.06-.2.1-.31a17.42,17.42,0,0,0,.8-3.95,17.68,17.68,0,0,0-3.91.82l-.33.1c-52.84,14.38-96.93.53-98.78-.06a5.56,5.56,0,0,1-.71-.29,9.11,9.11,0,0,0-3.13-.86,15.17,15.17,0,0,0,.84,4.14,6,6,0,0,1,.2.69c11.09,52.55.42,96.35,0,98.18a5.6,5.6,0,0,1-.17.54,12.38,12.38,0,0,0-.76,4.1,5,5,0,0,1-7.46,6.63c-4.17-4.18-2.17-11.36-1.26-13.92.81-3.43,10.06-45,0-93.14-.94-2.7-3-10.14,1.29-14.4,5-5,12.54-2,14.57-1.11,3.78,1.13,45,12.82,92.66-.1,8.92-3.05,13.1-.17,14.48,1.21s4.26,5.55,1.26,14.49c-.7,2.68-11.36,45.59,0,93,1,2.65,3.09,10-1.45,14.12A5,5,0,0,1,198.41,340.07Z"/><path class="cls-1" d="M227.77,340.07a5,5,0,0,1-3.54-1.46c-4.17-4.18-2.17-11.36-1.26-13.92.81-3.43,10.06-45,0-93.14-.94-2.7-3-10.14,1.29-14.4,5-5,12.54-2,14.57-1.11,3.78,1.13,45,12.82,92.66-.1,8.92-3.05,13.09-.17,14.48,1.21s4.26,5.56,1.26,14.49c-.66,2.55-10.32,41.37-1.57,85.85a5,5,0,1,1-9.81,1.93c-9.48-48.18,1.3-88.83,1.76-90.54,0-.1.06-.2.1-.31a17.45,17.45,0,0,0,.8-3.94,17.13,17.13,0,0,0-3.92.81l-.32.1c-52.84,14.38-96.93.53-98.78-.06a4.45,4.45,0,0,1-.71-.3,9.5,9.5,0,0,0-3.12-.85,14.55,14.55,0,0,0,.84,4.16c.07.21.14.45.19.67,11.09,52.55.42,96.35,0,98.18a5.6,5.6,0,0,1-.17.54,12.08,12.08,0,0,0-.75,4.1,5,5,0,0,1-3.93,8.09Z"/><path class="cls-1" d="M432,442H288a5,5,0,0,1-5-5V329a15,15,0,0,1,15-15H422a15,15,0,0,1,15,15V437A5,5,0,0,1,432,442ZM293,432H427V329a5,5,0,0,0-5-5H298a5,5,0,0,0-5,5Z"/><path class="cls-1" d="M241,164H97a5,5,0,0,1-5-5V15a5,5,0,0,1,5-5H241a5,5,0,0,1,5,5V159A5,5,0,0,1,241,164ZM102,154H236V20H102Z"/><path class="cls-1" d="M433,164H273a5,5,0,0,1-5-5V47a5,5,0,0,1,5-5H433a5,5,0,0,1,5,5V159A5,5,0,0,1,433,164ZM278,154H428V52H278Z"/><path class="cls-1" d="M409,142H298a5,5,0,0,1-5-5V72a5,5,0,0,1,5-5H409a5,5,0,0,1,5,5v65A5,5,0,0,1,409,142ZM303,132H404V77H303Z"/><path class="cls-1" d="M216,140H120a5,5,0,0,1-5-5V40a5,5,0,0,1,5-5h96a5,5,0,0,1,5,5v95A5,5,0,0,1,216,140Zm-91-10h86V45H125Z"/></g><g id="Outline"><path class="cls-1" d="M288,456a5,5,0,0,1-5-5V437a5,5,0,0,1,10,0v14A5,5,0,0,1,288,456Z"/><path class="cls-1" d="M312,456a5,5,0,0,1-5-5V437a5,5,0,0,1,10,0v14A5,5,0,0,1,312,456Z"/><path class="cls-1" d="M360,456a5,5,0,0,1-5-5V437a5,5,0,0,1,10,0v14A5,5,0,0,1,360,456Z"/><path class="cls-1" d="M384,456a5,5,0,0,1-5-5V437a5,5,0,0,1,10,0v14A5,5,0,0,1,384,456Z"/><path class="cls-1" d="M408,456a5,5,0,0,1-5-5V437a5,5,0,0,1,10,0v14A5,5,0,0,1,408,456Z"/><path class="cls-1" d="M432,456a5,5,0,0,1-5-5V437a5,5,0,0,1,10,0v14A5,5,0,0,1,432,456Z"/></g></svg>