<?xml version="1.0" ?><svg viewBox="0 0 512 512" xmlns="http://www.w3.org/2000/svg"><defs><style>.cls-1{fill:#3f456b;}</style></defs><title/><g id="Lines"><path class="cls-1" d="M278.12,261.3a5,5,0,0,1-1.21-9.86c16.33-4.08,18.22-19.59,18.22-30.9,0-7-2-12.41-6.15-16.48-8.32-8.19-22.51-8.08-22.64-8.06H204a5,5,0,0,1,0-10h62.21c1.39,0,18.59,0,29.73,10.88,6.1,6,9.19,13.93,9.19,23.66,0,22.67-8.68,36.33-25.79,40.61A5.15,5.15,0,0,1,278.12,261.3Z"/><path class="cls-1" d="M225.87,327.26a5,5,0,0,1-5-5V191a5,5,0,0,1,10,0V322.26A5,5,0,0,1,225.87,327.26Z"/><path class="cls-1" d="M280.88,327.26H204a5,5,0,0,1,0-10h76.77a33.6,33.6,0,0,0,13.15-3.84c8.1-4.45,12.21-12.05,12.21-22.59,0-11.74-4.15-20.18-12.34-25.08a31,31,0,0,0-13-4.12H225.87a5,5,0,0,1,0-10H281c.35,0,35.1,1.51,35.1,39.2,0,28-23,36.05-35.1,36.43Z"/><path class="cls-1" d="M243,195.54a5,5,0,0,1-5-5V169a5,5,0,0,1,10,0v21.54A5,5,0,0,1,243,195.54Z"/><path class="cls-1" d="M275,195.54a5,5,0,0,1-5-5V169a5,5,0,0,1,10,0v21.54A5,5,0,0,1,275,195.54Z"/><path class="cls-1" d="M243,349.54a5,5,0,0,1-5-5V323a5,5,0,0,1,10,0v21.54A5,5,0,0,1,243,349.54Z"/><path class="cls-1" d="M275,349.54a5,5,0,0,1-5-5V323a5,5,0,0,1,10,0v21.54A5,5,0,0,1,275,349.54Z"/><path class="cls-1" d="M256,57a23,23,0,1,1,23-23A23,23,0,0,1,256,57Zm0-36a13,13,0,1,0,13,13A13,13,0,0,0,256,21Z"/><path class="cls-1" d="M257,411.58c-86.58,0-157-70.44-157-157s70.45-157,157-157,157,70.44,157,157S343.58,411.58,257,411.58Zm0-304c-81.07,0-147,66-147,147s66,147,147,147,147-65.95,147-147S338.07,107.53,257,107.53Z"/><path class="cls-1" d="M257,377A120.42,120.42,0,1,1,377.41,256.54,120.55,120.55,0,0,1,257,377Zm0-230.83A110.42,110.42,0,1,0,367.41,256.54,110.54,110.54,0,0,0,257,146.12Z"/><path class="cls-1" d="M256,107a5,5,0,0,1-5-5V52a5,5,0,0,1,10,0v50A5,5,0,0,1,256,107Z"/><path class="cls-1" d="M256,501a23,23,0,1,1,23-23A23,23,0,0,1,256,501Zm0-36a13,13,0,1,0,13,13A13,13,0,0,0,256,465Z"/><path class="cls-1" d="M256,465a5,5,0,0,1-5-5V409a5,5,0,0,1,10,0v51A5,5,0,0,1,256,465Z"/><path class="cls-1" d="M478,279a23,23,0,1,1,23-23A23,23,0,0,1,478,279Zm0-36a13,13,0,1,0,13,13A13,13,0,0,0,478,243Z"/><path class="cls-1" d="M460,261H409a5,5,0,0,1,0-10h51a5,5,0,0,1,0,10Z"/><path class="cls-1" d="M34,279a23,23,0,1,1,23-23A23,23,0,0,1,34,279Zm0-36a13,13,0,1,0,13,13A13,13,0,0,0,34,243Z"/><path class="cls-1" d="M105,261H52a5,5,0,0,1,0-10h53a5,5,0,0,1,0,10Z"/><path class="cls-1" d="M446.5,88.5a23,23,0,1,1,16.26-6.74h0A22.82,22.82,0,0,1,446.5,88.5Zm0-36a13,13,0,1,0,9.19,22.19h0A13,13,0,0,0,446.5,52.5Z"/><path class="cls-1" d="M66.5,468.5a23,23,0,0,1-16.26-39.26h0A23,23,0,1,1,66.5,468.5Zm0-36a12.89,12.89,0,0,0-9.19,3.81h0a13,13,0,1,0,9.19-3.81Zm-12.73.27h0Z"/><path class="cls-1" d="M446,469a22.82,22.82,0,0,1-16.26-6.74h0A23,23,0,1,1,446,469Zm0-36a13,13,0,0,0-9.19,22.19h0A13,13,0,1,0,446,433Z"/><path class="cls-1" d="M66,89A23,23,0,1,1,82.26,49.74h0A23,23,0,0,1,66,89Zm0-36a13,13,0,1,0,9.19,3.81h0A12.89,12.89,0,0,0,66,53Z"/><path class="cls-1" d="M337,260h-1a5,5,0,0,1,0-10h1a5,5,0,0,1,0,10Z"/><path class="cls-1" d="M177,260h-1a5,5,0,0,1,0-10h1a5,5,0,0,1,0,10Z"/></g><g id="Outline"><path class="cls-1" d="M135.25,140.25a5,5,0,0,1-3.53-1.46l-.71-.71a5,5,0,0,1,7.07-7.07l.71.71a5,5,0,0,1-3.54,8.53Zm-14.84-14.84a5,5,0,0,1-3.54-1.47l-.71-.71a5,5,0,1,1,7.07-7.07l.71.71a5,5,0,0,1-3.53,8.54Zm-14.85-14.85a5,5,0,0,1-3.54-1.47l-.71-.71a5,5,0,0,1,7.07-7.07l.71.71a5,5,0,0,1,0,7.07A5,5,0,0,1,105.56,110.56ZM90.71,95.71a5,5,0,0,1-3.54-1.47l-.71-.7a5,5,0,0,1,7.08-7.08l.7.71a5,5,0,0,1-3.53,8.54Z"/><path class="cls-1" d="M422.25,427.25a5,5,0,0,1-3.53-1.46l-.71-.71a5,5,0,1,1,7.07-7.07l.71.71a5,5,0,0,1-3.54,8.53Zm-14.84-14.84a5,5,0,0,1-3.54-1.47l-.71-.71a5,5,0,0,1,7.07-7.07l.71.71a5,5,0,0,1-3.53,8.54Zm-14.85-14.85a5,5,0,0,1-3.54-1.47l-.71-.71a5,5,0,0,1,7.07-7.07l.71.71a5,5,0,0,1,0,7.07A5,5,0,0,1,392.56,397.56Zm-14.85-14.85a5,5,0,0,1-3.54-1.47l-.71-.7a5,5,0,0,1,7.08-7.08l.7.71a5,5,0,0,1-3.53,8.54Z"/><path class="cls-1" d="M380.75,140.25a5,5,0,0,1-3.54-8.53l.71-.71a5,5,0,1,1,7.07,7.07l-.71.71A5,5,0,0,1,380.75,140.25Zm14.84-14.84a5,5,0,0,1-3.53-8.54l.71-.71a5,5,0,0,1,7.07,7.07l-.71.71A5,5,0,0,1,395.59,125.41Zm14.85-14.85a5,5,0,0,1-3.53-1.47,5,5,0,0,1,0-7.07l.71-.71a5,5,0,0,1,7.07,7.07l-.71.71A5,5,0,0,1,410.44,110.56Zm14.85-14.85a5,5,0,0,1-3.53-8.54l.7-.71a5,5,0,0,1,7.08,7.08l-.71.7A5,5,0,0,1,425.29,95.71Z"/><path class="cls-1" d="M93.75,427.25a5,5,0,0,1-3.54-8.53l.71-.71A5,5,0,1,1,98,425.08l-.71.71A5,5,0,0,1,93.75,427.25Zm14.84-14.84a5,5,0,0,1-3.53-8.54l.71-.71a5,5,0,0,1,7.07,7.07l-.71.71A5,5,0,0,1,108.59,412.41Zm14.85-14.85a5,5,0,0,1-3.53-1.47,5,5,0,0,1,0-7.07l.71-.71a5,5,0,0,1,7.07,7.07l-.71.71A5,5,0,0,1,123.44,397.56Zm14.85-14.85a5,5,0,0,1-3.53-8.54l.7-.71a5,5,0,0,1,7.08,7.08l-.71.7A5,5,0,0,1,138.29,382.71Z"/><path class="cls-1" d="M183.47,84.9a5,5,0,0,1-4.62-3.09L159.54,35.18a5,5,0,1,1,9.24-3.82L188.09,78a5,5,0,0,1-2.71,6.53A4.93,4.93,0,0,1,183.47,84.9Z"/><path class="cls-1" d="M347.85,481.73a5,5,0,0,1-4.63-3.09L323.91,432a5,5,0,1,1,9.24-3.82l19.31,46.63a5,5,0,0,1-4.61,6.91Z"/><path class="cls-1" d="M431.1,187.47a5,5,0,0,1-1.91-9.62l46.63-19.31a5,5,0,1,1,3.82,9.24L433,187.09A4.93,4.93,0,0,1,431.1,187.47Z"/><path class="cls-1" d="M34.27,351.84a5,5,0,0,1-1.91-9.62L79,322.91a5,5,0,1,1,3.82,9.24L36.18,351.46A4.93,4.93,0,0,1,34.27,351.84Z"/><path class="cls-1" d="M80.9,187.47a4.93,4.93,0,0,1-1.91-.38L32.36,167.78a5,5,0,1,1,3.82-9.24l46.63,19.31a5,5,0,0,1-1.91,9.62Z"/><path class="cls-1" d="M477.73,351.84a4.93,4.93,0,0,1-1.91-.38l-46.63-19.31a5,5,0,0,1,3.82-9.24l46.63,19.31a5,5,0,0,1-1.91,9.62Z"/><path class="cls-1" d="M328.53,84.9a4.93,4.93,0,0,1-1.91-.38A5,5,0,0,1,323.91,78l19.31-46.63a5,5,0,1,1,9.24,3.82L333.15,81.81A5,5,0,0,1,328.53,84.9Z"/><path class="cls-1" d="M164.15,481.73a5,5,0,0,1-4.61-6.91l19.31-46.63a5,5,0,0,1,9.24,3.82l-19.31,46.63A5,5,0,0,1,164.15,481.73Z"/><path class="cls-1" d="M256,127.12a5,5,0,0,1-5-5v-17a5,5,0,0,1,10,0v17A5,5,0,0,1,256,127.12Z"/><path class="cls-1" d="M256,410.73a5,5,0,0,1-5-5v-17a5,5,0,0,1,10,0v17A5,5,0,0,1,256,410.73Z"/><path class="cls-1" d="M405.77,261h-17a5,5,0,0,1,0-10h17a5,5,0,1,1,0,10Z"/><path class="cls-1" d="M122.16,261h-17a5,5,0,0,1,0-10h17a5,5,0,1,1,0,10Z"/><path class="cls-1" d="M189.28,144.71a5,5,0,0,1-4.33-2.5l-8.5-14.71a5,5,0,0,1,8.66-5l8.5,14.71a5,5,0,0,1-1.83,6.83A4.94,4.94,0,0,1,189.28,144.71Z"/><path class="cls-1" d="M331.08,390.32a5,5,0,0,1-4.33-2.5l-8.5-14.72a5,5,0,1,1,8.66-5l8.5,14.72a5,5,0,0,1-1.83,6.83A4.94,4.94,0,0,1,331.08,390.32Z"/><path class="cls-1" d="M371.19,194.23a5,5,0,0,1-2.51-9.33l14.72-8.5a5,5,0,1,1,5,8.66l-14.72,8.5A4.93,4.93,0,0,1,371.19,194.23Z"/><path class="cls-1" d="M125.58,336a5,5,0,0,1-2.51-9.34l14.72-8.49a5,5,0,1,1,5,8.66l-14.72,8.49A4.94,4.94,0,0,1,125.58,336Z"/><path class="cls-1" d="M140.45,193.41a4.88,4.88,0,0,1-2.49-.67l-14.72-8.5a5,5,0,1,1,5-8.66l14.72,8.5a5,5,0,0,1-2.51,9.33Z"/><path class="cls-1" d="M386.06,335.21a4.88,4.88,0,0,1-2.49-.67l-14.72-8.49a5,5,0,0,1,5-8.66l14.72,8.49a5,5,0,0,1-2.51,9.33Z"/><path class="cls-1" d="M322.74,145.34a4.93,4.93,0,0,1-2.49-.67,5,5,0,0,1-1.83-6.83l8.5-14.72a5,5,0,0,1,8.66,5l-8.5,14.72A5,5,0,0,1,322.74,145.34Z"/><path class="cls-1" d="M180.94,391a4.91,4.91,0,0,1-2.49-.67,5,5,0,0,1-1.83-6.83l8.49-14.72a5,5,0,0,1,8.66,5l-8.49,14.72A5,5,0,0,1,180.94,391Z"/></g></svg>