<?xml version="1.0" ?><svg viewBox="0 0 512 512" xmlns="http://www.w3.org/2000/svg"><defs><style>.cls-1{fill:#3f456b;}.cls-2{opacity:0.7;}</style></defs><title/><g id="Lines"><path class="cls-1" d="M402.29,206a5,5,0,0,1-4.93-4.21L383.3,115s0-.06,0-.1c-.12-.8-3.22-20-22.53-20h-206c-18.19,0-23.29,23-23.58,24.35l-12.95,81.65a5,5,0,0,1-9.88-1.57l13-81.75,0-.17c2.17-11.24,11.95-32.51,33.41-32.51h206c22.42,0,31,18.67,32.43,28.59l14.05,86.81A5,5,0,0,1,403.1,206,4.43,4.43,0,0,1,402.29,206Z"/><path class="cls-1" d="M99,444.62H99l-36.51-.16A21.37,21.37,0,0,1,41.18,423l.18-91.55a5,5,0,0,1,5-5h0a5,5,0,0,1,5,5l-.18,91.56a11.39,11.39,0,0,0,11.3,11.4l36.52.16a11.37,11.37,0,0,0,8-3.31,11.25,11.25,0,0,0,3.37-8l.19-85.83a5,5,0,0,1,5-5h0a5,5,0,0,1,5,5l-.19,85.84A21.38,21.38,0,0,1,99,444.62Z"/><path class="cls-1" d="M419,444.62a21.38,21.38,0,0,1-21.35-21.27l-.18-85.85a5,5,0,0,1,5-5h0a5,5,0,0,1,5,5l.18,85.84A11.4,11.4,0,0,0,419,434.62h0l36.51-.16a11.39,11.39,0,0,0,11.3-11.39l-.18-91.57a5,5,0,0,1,5-5h0a5,5,0,0,1,5,5l.18,91.56a21.37,21.37,0,0,1-21.26,21.42l-36.51.16Z"/><path class="cls-1" d="M461.64,195.84H429.37a14,14,0,0,1-14-14V162.13a14,14,0,0,1,14-14h32.27a14,14,0,0,1,14,14v19.68A14,14,0,0,1,461.64,195.84ZM429.37,158.1a4,4,0,0,0-4,4v19.68a4,4,0,0,0,4,4h32.27a4,4,0,0,0,4-4V162.13a4,4,0,0,0-4-4Z"/><path class="cls-1" d="M329,419.07H185a5,5,0,0,1-5-5V361.58a5,5,0,0,1,5-5H329a5,5,0,0,1,5,5v52.49A5,5,0,0,1,329,419.07Zm-139-10H324V366.58H190Z"/><path class="cls-1" d="M385,274.32a41,41,0,1,1,41-41A41,41,0,0,1,385,274.32Zm0-72a31,31,0,1,0,31,31A31,31,0,0,0,385,202.32Z"/><path class="cls-1" d="M128.74,274.32a41,41,0,1,1,41-41A41,41,0,0,1,128.74,274.32Zm0-72a31,31,0,1,0,31,31A31,31,0,0,0,128.74,202.32Z"/><path class="cls-1" d="M147.86,390.3A24.12,24.12,0,1,1,172,366.18,24.15,24.15,0,0,1,147.86,390.3Zm0-38.23A14.12,14.12,0,1,0,162,366.18,14.13,14.13,0,0,0,147.86,352.07Z"/><path class="cls-1" d="M365.65,390.3a24.12,24.12,0,1,1,24.11-24.12A24.15,24.15,0,0,1,365.65,390.3Zm0-38.23a14.12,14.12,0,1,0,14.11,14.11A14.13,14.13,0,0,0,365.65,352.07Z"/><path class="cls-1" d="M284.39,366.58H230.61a35,35,0,0,1-35-35v-90a35,35,0,0,1,35-35h53.78a35,35,0,0,1,35,35v90A35,35,0,0,1,284.39,366.58Zm-53.78-150a25,25,0,0,0-25,25v90a25,25,0,0,0,25,25h53.78a25,25,0,0,0,25-25v-90a25,25,0,0,0-25-25Z"/><path class="cls-1" d="M362.15,210.49a4.92,4.92,0,0,1-2.64-.76c-.35-.21-36.66-22.24-103.51-22.24-65.08,0-103,20-103.39,20.22a5,5,0,1,1-4.74-8.81c1.62-.87,40.55-21.41,108.13-21.41,70,0,107.25,22.79,108.81,23.76a5,5,0,0,1-2.66,9.24Z"/><path class="cls-1" d="M185,366.58a5.08,5.08,0,0,1-2.63-.74C148,344.62,98.75,334,36.05,334.31H33.5c-15.41,0-21-12.56-21-21v-48c0-19.13,10.58-28.23,19.46-32.5a47.77,47.77,0,0,1,18.79-4.5h42a5,5,0,1,1,0,10h-42A38.09,38.09,0,0,0,36,242c-9,4.43-13.53,12.29-13.53,23.36v48h0a15,15,0,0,0,1.59,6c1.81,3.41,4.8,5,9.41,5H36c60.08-.24,108.35,9.28,143.74,28.46-3.09-52.7-32.92-86.89-33.24-87.25a5,5,0,1,1,7.48-6.64c1.47,1.66,36,41.27,36,102.7a5,5,0,0,1-5,5Z"/><path class="cls-1" d="M329,366.58a5,5,0,0,1-5-5c0-61.48,33.65-98.6,35.08-100.15a5,5,0,1,1,7.34,6.78c-.45.5-29.16,32.48-32.17,84.56,34.88-18.9,82.3-28.46,141.14-28.46h5.11c4.61,0,7.6-1.59,9.41-5a15,15,0,0,0,1.59-6v-48c0-11.07-4.55-18.93-13.53-23.36a38.08,38.08,0,0,0-14.74-3.64H421a5,5,0,0,1,0-10h42.25a47.77,47.77,0,0,1,18.79,4.5c8.88,4.27,19.46,13.37,19.46,32.5v48c0,8.44-5.59,21-21,21H478c-62.72-.3-112,10.31-146.32,31.53A5.08,5.08,0,0,1,329,366.58Z"/><path class="cls-1" d="M185,390.55H115.47a5,5,0,1,1,0-10H185a5,5,0,0,1,0,10Z"/><path class="cls-1" d="M400.41,390.55H330.88a5,5,0,0,1,0-10h69.53a5,5,0,0,1,0,10Z"/><path class="cls-1" d="M419.24,225.91a5,5,0,0,1-4.08-7.89L436,188.63a5,5,0,1,1,8.16,5.78L423.32,223.8A5,5,0,0,1,419.24,225.91Z"/><path class="cls-1" d="M85.91,196H53.64a14,14,0,0,1-14-14V162.27a14,14,0,0,1,14-14H85.91a14,14,0,0,1,14,14v19.67A14,14,0,0,1,85.91,196ZM53.64,158.24a4,4,0,0,0-4,4v19.67a4,4,0,0,0,4,4H85.91a4,4,0,0,0,4-4V162.27a4,4,0,0,0-4-4Z"/><path class="cls-1" d="M94.63,224.26a5,5,0,0,1-4.1-2.12L71.14,194.53a5,5,0,0,1,8.18-5.75l19.4,27.61a5,5,0,0,1-4.09,7.87Z"/><path class="cls-1" d="M129,114.75a5.22,5.22,0,0,1-1.35-.18,5,5,0,0,1-3.47-6.15,69.05,69.05,0,0,1,11-21.14c10.68-14,25.33-21.42,42.35-21.42H337.41c3.43-.13,44.14-.75,54,39.63a5,5,0,1,1-9.71,2.38c-3.49-14.21-11.89-23.9-25-28.81a50.8,50.8,0,0,0-18.94-3.21H177.5c-33.32,0-43.28,33.81-43.69,35.25A5,5,0,0,1,129,114.75Z"/></g><g id="Outline"><g class="cls-2"><path class="cls-1" d="M66.51,400h0l-18.91-.08a5,5,0,0,1,0-10h0l18.92.08a5,5,0,0,1,0,10Z"/><path class="cls-1" d="M66.67,420.24h0l-19.42-.08a5,5,0,0,1,0-10h0l19.42.08a5,5,0,0,1,0,10Z"/></g><g class="cls-2"><path class="cls-1" d="M114.73,399.93h0l-18.92-.08a5,5,0,0,1,0-10h0l18.92.08a5,5,0,0,1,0,10Z"/><path class="cls-1" d="M114.9,420.19h0l-19.42-.08a5,5,0,0,1,0-10h0l19.42.08a5,5,0,0,1,0,10Z"/></g><g class="cls-2"><path class="cls-1" d="M66.51,359.06h0L47.57,359a5,5,0,0,1,0-10h0l18.92.07a5,5,0,0,1,0,10Z"/><path class="cls-1" d="M66.67,379.32h0l-19.42-.08a5,5,0,0,1,0-10h0l19.42.08a5,5,0,0,1,0,10Z"/></g><g class="cls-2"><path class="cls-1" d="M114.73,359h0l-18.92-.08a5,5,0,0,1,0-10h0l18.92.08a5,5,0,0,1,0,10Z"/><path class="cls-1" d="M114.9,379.27h0l-19.42-.08a5,5,0,0,1,0-10h0l19.42.08a5,5,0,0,1,0,10Z"/></g><g class="cls-2"><path class="cls-1" d="M451.51,400a5,5,0,0,1,0-10l18.91-.08h0a5,5,0,0,1,0,10l-18.91.08Z"/><path class="cls-1" d="M451.34,420.24a5,5,0,0,1,0-10l19.42-.08h0a5,5,0,0,1,0,10l-19.42.08Z"/></g><g class="cls-2"><path class="cls-1" d="M403.28,399.93a5,5,0,0,1,0-10l18.92-.08h0a5,5,0,0,1,0,10l-18.92.08Z"/><path class="cls-1" d="M403.11,420.19a5,5,0,0,1,0-10l19.42-.08h0a5,5,0,0,1,0,10l-19.42.08Z"/></g><g class="cls-2"><path class="cls-1" d="M451.51,359.06a5,5,0,0,1,0-10L470.4,349h0a5,5,0,0,1,0,10l-18.91.07Z"/><path class="cls-1" d="M451.34,379.32a5,5,0,0,1,0-10l19.42-.08h0a5,5,0,0,1,0,10l-19.42.08Z"/></g><g class="cls-2"><path class="cls-1" d="M403.28,359a5,5,0,0,1,0-10l18.92-.08h0a5,5,0,0,1,0,10L403.3,359Z"/><path class="cls-1" d="M403.11,379.27a5,5,0,0,1,0-10l19.42-.08h0a5,5,0,0,1,0,10l-19.42.08Z"/></g><path class="cls-1" d="M302.62,387.71a5,5,0,0,1,5-5h0a5,5,0,0,1,5,5h0a5,5,0,0,1-5,5h0A5,5,0,0,1,302.62,387.71Zm-20,0a5,5,0,0,1,5-5h0a5,5,0,0,1,5,5h0a5,5,0,0,1-5,5h0A5,5,0,0,1,282.62,387.71Zm-20,0a5,5,0,0,1,5-5h0a5,5,0,0,1,5,5h0a5,5,0,0,1-5,5h0A5,5,0,0,1,262.62,387.71Zm-20,0a5,5,0,0,1,5-5h0a5,5,0,0,1,5,5h0a5,5,0,0,1-5,5h0A5,5,0,0,1,242.62,387.71Zm-20,0a5,5,0,0,1,5-5h0a5,5,0,0,1,5,5h0a5,5,0,0,1-5,5h0A5,5,0,0,1,222.62,387.71Zm-20,0a5,5,0,0,1,5-5h0a5,5,0,0,1,5,5h0a5,5,0,0,1-5,5h0A5,5,0,0,1,202.62,387.71Z"/><path class="cls-1" d="M292.5,366.58a5,5,0,0,1-5-5V213.64a5,5,0,0,1,10,0V361.58A5,5,0,0,1,292.5,366.58Z"/><path class="cls-1" d="M270,366.58a5,5,0,0,1-5-5V213.64a5,5,0,0,1,10,0V361.58A5,5,0,0,1,270,366.58Z"/><path class="cls-1" d="M247.5,366.58a5,5,0,0,1-5-5V213.64a5,5,0,0,1,10,0V361.58A5,5,0,0,1,247.5,366.58Z"/><path class="cls-1" d="M225,366.58a5,5,0,0,1-5-5V213.64a5,5,0,0,1,10,0V361.58A5,5,0,0,1,225,366.58Z"/></g></svg>