<?xml version="1.0" ?><svg viewBox="0 0 512 512" xmlns="http://www.w3.org/2000/svg"><defs><style>.cls-1{fill:#3f456b;}</style></defs><title/><g id="Lines"><path class="cls-1" d="M240,44H112a5,5,0,0,1,0-10H240a5,5,0,0,1,0,10Z"/><path class="cls-1" d="M304,500H48c-12.8,0-22.58-3.72-29.06-11.07-9-10.2-8.17-23.76-7.94-26.19V240c0-64.27,37.61-84.44,41.62-86.4,2.83-1.72,33.46-20.27,44.86-26.92A19.47,19.47,0,0,0,107,111V25a15,15,0,0,1,15-15H230a15,15,0,0,1,15,15v86a19.53,19.53,0,0,0,9.52,15.68c11.4,6.65,42,25.2,44.86,26.92,4,2,41.62,22.13,41.62,86.4V462.74c.23,2.43,1.07,16-7.94,26.19C326.58,496.28,316.8,500,304,500ZM122,20a5,5,0,0,0-5,5v86c0,.65-.16,16-14.48,24.32-11.83,6.9-44.6,26.76-44.93,27-.16.09-.32.18-.49.26s-9.12,4.4-18,16C27.25,194,21,215.22,21,240V463a4.3,4.3,0,0,1,0,.62c0,.09-1.21,11.18,5.53,18.75C31,487.43,38.23,490,48,490H304c9.81,0,17.06-2.59,21.56-7.69,6.66-7.54,5.49-18.58,5.48-18.69a4.3,4.3,0,0,1,0-.62V240c0-24.78-6.25-46-18.07-61.45-8.91-11.61-18-16-18.05-16s-.32-.16-.47-.25c-.33-.2-33.1-20.06-44.93-27C235.16,127,235,111.65,235,111V25a5,5,0,0,0-5-5Z"/><path class="cls-1" d="M176.37,449h-.5a5,5,0,0,1-1.7-.3C145.38,438.33,121.91,422,104.41,400c-14.29-17.89-24.64-39.5-30.76-64.21-4.69-19-6.11-40-6.17-40.93-1.88-30.52,2.27-52.84,2.45-53.77a5,5,0,0,1,4.85-4.07,169.35,169.35,0,0,0,40.18-5,148.5,148.5,0,0,0,35.43-14.66c14.85-9.19,21.29-18.36,21.36-18.45a5.49,5.49,0,0,1,8.75,0c.25.35,26.52,37.14,96.95,38.06a5,5,0,0,1,4.85,4.07c.31,1.62,7.44,40.21-1.6,85.25-5.34,26.62-15.26,49.91-29.49,69.2-17.83,24.18-42.44,42.06-73.15,53.12A4.9,4.9,0,0,1,176.37,449ZM79.13,247a243,243,0,0,0-1.67,47.3c0,.18,1.42,21.07,5.9,39.16,12.85,51.88,44.05,87.32,92.76,105.34,28.07-10.4,50.59-26.87,66.94-49,13.35-18.06,22.7-39.95,27.78-65.06,7.09-35.09,3.78-66.88,2.26-77.75-58.38-1.91-87.26-26.92-97-37.61A97.5,97.5,0,0,1,155.62,226a157.59,157.59,0,0,1-38.14,15.81A175.81,175.81,0,0,1,79.13,247Z"/><path class="cls-1" d="M176,79a40,40,0,0,1-40-40,5,5,0,0,1,10,0,30,30,0,0,0,60,0,5,5,0,0,1,10,0A40,40,0,0,1,176,79Z"/><path class="cls-1" d="M164.93,357.79a5,5,0,0,1-3.54-1.47L126.46,321.4a5,5,0,0,1,7.08-7.07l31.39,31.39,64.53-64.54a5,5,0,0,1,7.08,7.07l-68.08,68.07A5,5,0,0,1,164.93,357.79Z"/><path class="cls-1" d="M336.11,333.7a5,5,0,0,1-1.24-9.84,119.9,119.9,0,1,0-91.93-218.74,5,5,0,1,1-5.18-8.56,129.7,129.7,0,0,1,67.15-18.68c71.61,0,129.88,58.26,129.88,129.88a129.79,129.79,0,0,1-97.43,125.78A4.87,4.87,0,0,1,336.11,333.7Z"/></g><g id="Outline"><path class="cls-1" d="M307,61.8a5,5,0,0,1-5-5V16a5,5,0,0,1,10,0V56.8A5,5,0,0,1,307,61.8Z"/><path class="cls-1" d="M501,215H460.2a5,5,0,0,1,0-10H501a5,5,0,0,1,0,10Z"/><path class="cls-1" d="M444.18,352.18a5,5,0,0,1-3.54-1.47l-28.85-28.84a5,5,0,0,1,7.08-7.08l28.84,28.85a5,5,0,0,1-3.53,8.54Z"/><path class="cls-1" d="M415.33,106.67a5,5,0,0,1-3.54-8.54l28.85-28.84a5,5,0,0,1,7.07,7.07l-28.84,28.85A5,5,0,0,1,415.33,106.67Z"/><path class="cls-1" d="M373.93,380.22a5,5,0,0,1-4.63-3.11L359.47,353a5,5,0,0,1,9.26-3.78l9.83,24.12a5,5,0,0,1-4.63,6.89Z"/><path class="cls-1" d="M449.31,157a5,5,0,0,1-1.88-9.63l22.05-9a5,5,0,1,1,3.77,9.26l-22.05,9A5,5,0,0,1,449.31,157Z"/><path class="cls-1" d="M470.23,284.31a4.94,4.94,0,0,1-1.94-.39l-24-10.11a5,5,0,0,1,3.88-9.21l24,10.1a5,5,0,0,1-1.94,9.61Z"/><path class="cls-1" d="M365.7,73.18a4.9,4.9,0,0,1-1.93-.39,5,5,0,0,1-2.67-6.55l9.24-21.95a5,5,0,1,1,9.21,3.88l-9.24,22A5,5,0,0,1,365.7,73.18Z"/></g></svg>