<?xml version="1.0" ?><svg viewBox="0 0 512 512" xmlns="http://www.w3.org/2000/svg"><defs><style>.cls-1{fill:#3f456b;}</style></defs><title/><g id="Lines"><path class="cls-1" d="M16.86,313.68c-.57,0-1,0-1.15,0a5,5,0,1,1,.58-10c2.31.11,6.42-.42,7.89-1.94.22-.22.66-.68.54-2.08A3.44,3.44,0,0,0,23.5,297c-2-1.57-6-1.45-6.84-1.32a5,5,0,0,1-5.66-5V277a5,5,0,0,1,10,0v8.78a17.28,17.28,0,0,1,8.77,3.42,13.51,13.51,0,0,1,4.92,9.66,12.3,12.3,0,0,1-3.36,9.9C27,313.2,19.75,313.68,16.86,313.68Z"/><path class="cls-1" d="M16.86,345.37c-.57,0-1,0-1.15,0a5,5,0,0,1,.58-10c2.3.11,6.42-.42,7.89-1.94.22-.22.66-.68.54-2.08a3.44,3.44,0,0,0-1.21-2.68c-1.89-1.55-5.7-1.48-6.88-1.34a5,5,0,0,1-5.63-5v-13.7a5,5,0,0,1,10,0v8.77a17.37,17.37,0,0,1,8.77,3.42,13.55,13.55,0,0,1,4.92,9.66,12.28,12.28,0,0,1-3.36,9.9C27,344.89,19.75,345.37,16.86,345.37Z"/><path class="cls-1" d="M16.86,377.06c-.57,0-1,0-1.15,0a5,5,0,0,1,.58-10c2.3.11,6.42-.42,7.89-1.94.22-.22.66-.68.54-2.08a3.46,3.46,0,0,0-1.21-2.68c-1.89-1.54-5.7-1.48-6.88-1.34a5,5,0,0,1-5.63-5v-13.7a5,5,0,0,1,10,0v8.77a17.3,17.3,0,0,1,8.77,3.43,13.5,13.5,0,0,1,4.92,9.65,12.28,12.28,0,0,1-3.36,9.9C27,376.58,19.75,377.06,16.86,377.06Z"/><path class="cls-1" d="M16.86,408.68c-.57,0-1,0-1.15,0a5,5,0,1,1,.58-10c2.31.11,6.42-.42,7.89-1.94.22-.22.66-.68.54-2.08A3.44,3.44,0,0,0,23.5,392c-2-1.57-6-1.44-6.84-1.32a5,5,0,0,1-5.66-5V372a5,5,0,0,1,10,0v8.78a17.28,17.28,0,0,1,8.77,3.42,13.51,13.51,0,0,1,4.92,9.66,12.3,12.3,0,0,1-3.36,9.9C27,408.2,19.75,408.68,16.86,408.68Z"/><path class="cls-1" d="M16,455a5,5,0,0,1-5-5V435.35a5,5,0,0,1,5.29-5c2.3.11,6.42-.42,7.89-1.94.22-.22.66-.68.54-2.08a3.46,3.46,0,0,0-1.22-2.7c-2-1.57-6-1.44-6.84-1.32a5,5,0,0,1-5.66-5v-13.7a5,5,0,0,1,10,0v8.77a17.37,17.37,0,0,1,8.77,3.42,13.55,13.55,0,0,1,4.92,9.66,12.28,12.28,0,0,1-3.36,9.9c-2.89,3-7,4.18-10.33,4.66V450A5,5,0,0,1,16,455Z"/><path class="cls-1" d="M449,502H63a5,5,0,0,1-5-4.55c-.15-1.58-4.17-39-42.46-42.46a5,5,0,1,1,.9-10C40.86,447.25,53.6,461.2,60,472.51A68,68,0,0,1,67.24,492H444.75A67.67,67.67,0,0,1,452,472.51c6.39-11.31,19.14-25.26,43.54-27.48a5,5,0,1,1,.91,10c-16.13,1.47-28.16,9-35.75,22.44a56,56,0,0,0-6.71,20A5,5,0,0,1,449,502Z"/><path class="cls-1" d="M495.12,313.68c-2.88,0-10.09-.48-14.47-5a12.3,12.3,0,0,1-3.35-9.9,13.44,13.44,0,0,1,4.92-9.66,17.28,17.28,0,0,1,8.77-3.42V277a5,5,0,0,1,10,0v13.71a5,5,0,0,1-1.71,3.76,5,5,0,0,1-3.95,1.2c-1.16-.14-5-.21-6.86,1.33a3.52,3.52,0,0,0-1.21,2.69c-.11,1.4.33,1.86.54,2.08,1.48,1.52,5.6,2,7.91,1.94a5,5,0,0,1,.57,10C496.11,313.66,495.7,313.68,495.12,313.68Z"/><path class="cls-1" d="M495.12,345.37c-2.88,0-10.09-.48-14.47-5a12.27,12.27,0,0,1-3.35-9.9,13.47,13.47,0,0,1,4.92-9.66,17.37,17.37,0,0,1,8.77-3.42v-8.77a5,5,0,0,1,10,0v13.7a5,5,0,0,1-1.71,3.76,5,5,0,0,1-3.95,1.2c-1.16-.14-5-.21-6.86,1.34a3.47,3.47,0,0,0-1.21,2.68c-.11,1.4.33,1.86.54,2.08,1.48,1.52,5.6,2.05,7.91,1.94a5,5,0,0,1,.57,10C496.11,345.35,495.7,345.37,495.12,345.37Z"/><path class="cls-1" d="M495.12,377.06c-2.88,0-10.09-.48-14.47-5a12.27,12.27,0,0,1-3.35-9.9,13.43,13.43,0,0,1,4.92-9.65,17.3,17.3,0,0,1,8.77-3.43v-8.77a5,5,0,0,1,10,0v13.7a5,5,0,0,1-5.66,5c-1.16-.14-5-.2-6.86,1.34a3.49,3.49,0,0,0-1.21,2.68c-.11,1.4.33,1.86.54,2.08,1.48,1.52,5.6,2.06,7.91,1.94a5,5,0,0,1,.57,10C496.11,377,495.7,377.06,495.12,377.06Z"/><path class="cls-1" d="M495.12,408.68c-2.88,0-10.09-.48-14.47-5a12.3,12.3,0,0,1-3.35-9.9,13.44,13.44,0,0,1,4.92-9.66,17.28,17.28,0,0,1,8.77-3.42V372a5,5,0,0,1,10,0v13.71a5,5,0,0,1-5.66,5c-1.16-.14-5-.21-6.86,1.33a3.52,3.52,0,0,0-1.21,2.69c-.11,1.4.33,1.86.54,2.08,1.48,1.52,5.6,2,7.91,1.94a5,5,0,0,1,.57,10C496.11,408.66,495.7,408.68,495.12,408.68Z"/><path class="cls-1" d="M496,455a5,5,0,0,1-5-5v-9.93c-3.31-.48-7.44-1.7-10.34-4.66a12.27,12.27,0,0,1-3.35-9.9,13.47,13.47,0,0,1,4.92-9.66,17.37,17.37,0,0,1,8.77-3.42v-8.77a5,5,0,0,1,10,0v13.7a5,5,0,0,1-5.66,5c-1.16-.14-5-.21-6.86,1.34a3.47,3.47,0,0,0-1.21,2.68c-.11,1.41.34,1.86.55,2.08,1.57,1.61,5.9,2.06,7.88,1.94a5,5,0,0,1,5.3,5V450A5,5,0,0,1,496,455Z"/><path class="cls-1" d="M496,281.11l-.46,0c-24.4-2.22-37.15-16.17-43.54-27.48a67.67,67.67,0,0,1-7.24-19.49H67.24A68,68,0,0,1,60,253.61c-6.4,11.31-19.14,25.26-43.55,27.48a5,5,0,1,1-.9-10c16.13-1.47,28.15-9,35.74-22.44a56,56,0,0,0,6.72-20,5,5,0,0,1,5-4.55H449a5,5,0,0,1,5,4.55c.15,1.58,4.17,39,42.46,42.46a5,5,0,0,1-.45,10Z"/><path class="cls-1" d="M425.31,468H88.69a5,5,0,0,1-4.84-3.75C78,441.68,57.11,436.71,56.22,436.51a5,5,0,0,1-3.92-4.89V293.38a5,5,0,0,1,4.19-4.94c.93-.16,23.27-4.25,27.27-27.3A5,5,0,0,1,88.69,257H425.31a5,5,0,0,1,4.89,4c4.89,23.21,26.44,27.32,27.36,27.48a5,5,0,0,1,4.14,4.93V431.62a5,5,0,0,1-4.3,4.95h0c-.87.13-21.45,3.43-27.23,27.59A5,5,0,0,1,425.31,468ZM92.42,458H421.51a45.2,45.2,0,0,1,19.37-25.44,46,46,0,0,1,10.82-4.88V297.25c-7.8-2.44-24.26-9.89-30.28-30.25H92.7c-5,18.39-20.09,27.29-30.4,30.33V427.92C69.77,430.57,85.77,438.39,92.42,458ZM456.7,431.62h0Z"/><path class="cls-1" d="M150.24,428.69a16,16,0,0,1-9.38-3.1c-2.35-1.66-32.29-23.13-54.69-53.84-11-15.05-13.51-31.86-7-46.11,6.4-13.9,20.29-23.32,36.25-24.58,17.92-1.41,29,6.75,34.85,14.77,5.87-8,17-16.09,34.93-14.59,16,1.35,29.8,10.84,36.12,24.77,6.47,14.29,3.85,31.07-7.2,46.06-22.69,30.78-53,52.16-55,53.59A14.84,14.84,0,0,1,150.24,428.69Zm-30.75-117.8c-1,0-2.12.05-3.24.14-12.36,1-23.07,8.17-27.95,18.79-5.07,11-3,23.82,6,36,21.86,30,52.15,51.4,52.46,51.62l.23.17a5.13,5.13,0,0,0,6.3-.06l.14-.1c.3-.21,30.75-21.54,52.73-51.35,9-12.17,11.15-24.95,6.14-36-4.83-10.64-15.5-17.89-27.85-18.93-22.82-1.93-28.82,15.5-29.06,16.25a5,5,0,0,1-4.76,3.47H150a5,5,0,0,1-4.77-3.53C145,326.72,139.65,310.89,119.49,310.89Z"/><path class="cls-1" d="M110.33,115c-6.54,0-12.53-4.62-13.26-5.21a5,5,0,1,1,6.24-7.81c1.81,1.42,5.47,3.37,7.56,3,.3-.06.93-.17,1.64-1.38a3.48,3.48,0,0,0,.56-2.91c-.69-2.42-4-4.62-4.82-5a5,5,0,0,1-1.76-7.32l7.92-11.19a5,5,0,0,1,8.16,5.78L117.5,90.1A17.2,17.2,0,0,1,122.68,98a13.45,13.45,0,0,1-1.55,10.72,12.3,12.3,0,0,1-8.46,6.15A13.22,13.22,0,0,1,110.33,115Z"/><path class="cls-1" d="M92,140.91c-6.54,0-12.53-4.62-13.26-5.2A5,5,0,0,1,85,127.9c1.81,1.42,5.48,3.37,7.56,3,.31-.06.93-.18,1.64-1.39a3.44,3.44,0,0,0,.56-2.91c-.69-2.42-4-4.61-4.82-5a5,5,0,0,1-1.76-7.31L96.11,103a5,5,0,1,1,8.16,5.77L99.21,116a17.33,17.33,0,0,1,5.18,7.86,13.52,13.52,0,0,1-1.56,10.73,12.27,12.27,0,0,1-8.45,6.14A12.52,12.52,0,0,1,92,140.91Z"/><path class="cls-1" d="M73.73,166.79c-6.54,0-12.53-4.62-13.26-5.21a5,5,0,0,1,6.24-7.81c1.81,1.43,5.48,3.37,7.57,3,.3-.05.92-.17,1.63-1.38a3.44,3.44,0,0,0,.56-2.91c-.69-2.42-4-4.62-4.81-5a5,5,0,0,1-1.76-7.32l7.91-11.19A5,5,0,0,1,86,134.69l-5.06,7.16a17.27,17.27,0,0,1,5.18,7.86,13.48,13.48,0,0,1-1.56,10.73,12.27,12.27,0,0,1-8.45,6.14A13.42,13.42,0,0,1,73.73,166.79Z"/><path class="cls-1" d="M55.48,192.6c-6.54,0-12.53-4.62-13.26-5.2a5,5,0,1,1,6.24-7.82c1.81,1.43,5.48,3.37,7.56,3,.3-.06.93-.18,1.64-1.39a3.48,3.48,0,0,0,.56-2.89c-.65-2.35-3.79-4.5-4.84-5.06A5,5,0,0,1,50.87,170a5,5,0,0,1,.77-4l7.91-11.19a5,5,0,1,1,8.17,5.77l-5.07,7.16a17.25,17.25,0,0,1,5.18,7.86,13.48,13.48,0,0,1-1.55,10.73,12.22,12.22,0,0,1-10.8,6.35Z"/><path class="cls-1" d="M18.58,226.33a5,5,0,0,1-4.08-7.89l8.46-12a5,5,0,0,1,7.2-1c1.81,1.42,5.48,3.36,7.56,3,.3-.05.93-.17,1.64-1.38a3.44,3.44,0,0,0,.56-2.89c-.65-2.36-3.79-4.5-4.84-5.06a5,5,0,0,1-1.74-7.31l7.91-11.19a5,5,0,0,1,8.17,5.78l-5.06,7.16a17.35,17.35,0,0,1,5.18,7.86A13.5,13.5,0,0,1,48,212.12a12.26,12.26,0,0,1-8.45,6.15c-4.09.75-8.16-.65-11.13-2.16l-5.74,8.1A5,5,0,0,1,18.58,226.33Z"/><path class="cls-1" d="M35.78,274.76a5.17,5.17,0,0,1-1-.09,5,5,0,0,1-4-5.86c3.34-17.34-1.89-32-15.53-43.67a5,5,0,1,1,6.49-7.61c20.65,17.62,21.66,38.64,18.86,53.17A5,5,0,0,1,35.78,274.76Z"/><path class="cls-1" d="M412.15,234.12a5,5,0,0,1-2.88-.92L185.06,74.65A68,68,0,0,1,167.9,86.38c-11.75,5.55-30.21,9.58-51.42-2.7a5,5,0,1,1,5-8.66c14,8.12,28.19,8.9,42.14,2.32a55.87,55.87,0,0,0,17-12.47,5,5,0,0,1,6.69-.84L415,225a5,5,0,0,1-2.89,9.08Z"/><path class="cls-1" d="M62.91,235.17a5,5,0,0,1-4.08-7.89l79.82-112.87a5,5,0,0,1,6.36-1.57c.87.44,21.67,10.62,37.83-6.48a5,5,0,0,1,6.52-.64L356.51,223.91a5,5,0,0,1-5.78,8.17L187,116.26c-14.54,12.66-32.17,11-42.48,7.22L67,233.06A5,5,0,0,1,62.91,235.17Z"/><path class="cls-1" d="M248.51,229.39a34.27,34.27,0,0,0-12.3-24.16c-7.39-6.21-15.14-8.72-23-7.43a25.29,25.29,0,0,0-10.07,3.93,5,5,0,0,1-5.9.07l-.48-.33a5,5,0,0,1-1.85-5.64,25.41,25.41,0,0,0,.39-10.77c-1.38-7.88-6.29-14.38-14.59-19.32C170,159.4,157.12,159.1,147,165c-10.5,6.07-16.17,17.74-15.95,32.86a213.85,213.85,0,0,0,2.62,29.42l-9.88,1.54A221.56,221.56,0,0,1,121.05,198c-.27-18.62,7.37-33.81,21-41.66,13.24-7.66,30-7.33,43.79.86s18.2,19.09,19.42,26.74a36.92,36.92,0,0,1,.44,5.52A36,36,0,0,1,211,188c7.63-1.36,19.31-.81,31.64,9.56a44.34,44.34,0,0,1,15.85,31.27Z"/><path class="cls-1" d="M486,148H292.83a5,5,0,0,1,0-10H486a5,5,0,0,0,5-5V121a5,5,0,0,0-5-5H246.17a5,5,0,1,1,0-10H486a15,15,0,0,1,15,15v12A15,15,0,0,1,486,148Z"/><path class="cls-1" d="M474.36,274.6h-.21a5,5,0,0,1-4.79-5.21l5.31-125.93a5,5,0,1,1,10,.42l-5.31,125.93A5,5,0,0,1,474.36,274.6Z"/><path class="cls-1" d="M480.5,115.31h-.05a5,5,0,0,1-4.95-5.06c.1-8.56-2.33-15.1-7.2-19.45-9.73-8.68-26.43-6.7-26.6-6.68a5,5,0,0,1-1.28-9.92c.86-.11,21.31-2.61,34.49,9.1,7.16,6.35,10.72,15.46,10.59,27.07A5,5,0,0,1,480.5,115.31Z"/><path class="cls-1" d="M458.07,85.29a5.13,5.13,0,0,1-1.33-.18,5,5,0,0,1-3.5-6.14,21.11,21.11,0,0,0-2.51-15.31c-2.78-4.6-7.21-7.59-13.17-8.88-15.64-3.4-25.11,5.6-25.51,6a5,5,0,0,1-7-7.1c.54-.54,13.55-13.26,34.68-8.67,8.61,1.88,15.39,6.54,19.6,13.48a31,31,0,0,1,3.6,23.13A5,5,0,0,1,458.07,85.29Z"/><path class="cls-1" d="M350,63.83a4.77,4.77,0,0,1-.92-.08,5,5,0,0,1-4-5.83,34,34,0,0,1,6.45-13.42c4.69-6.08,13.66-13.62,29.74-15,31-2.74,40.09,19.58,40.46,20.53a5,5,0,0,1-9.31,3.67c-.3-.74-7-16.3-30.27-14.24C358.56,41.5,355,59.56,354.92,59.74A5,5,0,0,1,350,63.83Z"/><path class="cls-1" d="M333,63a5,5,0,0,1-4.16-2.23c-9.93-14.89-37.47-9-37.75-8.89a5,5,0,0,1-2.19-9.76c1.4-.31,34.51-7.52,48.26,13.11a5,5,0,0,1-1.39,6.93A4.94,4.94,0,0,1,333,63Z"/><path class="cls-1" d="M227,61a4.94,4.94,0,0,1-2.77-.84,5,5,0,0,1-1.39-6.93c6.73-10.1,18.15-11.62,24.85-11.56,2.21-10.18,10.1-23.48,29.52-22.67,22.32.93,30.28,17.44,31.36,26a5,5,0,0,1-9.91,1.29c-.25-1.72-2.89-16.53-21.87-17.32-7.9-.34-13.39,2.38-16.77,8.29a25.06,25.06,0,0,0-3,9.94,5.06,5.06,0,0,1-1.88,3.67,5,5,0,0,1-4,1c-.12,0-13.92-2.23-20,6.85A5,5,0,0,1,227,61Z"/><path class="cls-1" d="M318,51.52h-.07a5,5,0,0,1-4.93-5c.11-10.59,6.65-31.83,30.58-36.39,14.57-2.78,24.49,1.32,30.24,5.25C382,20.94,386.15,29,386.91,33.08a5,5,0,1,1-9.82,1.84c-.31-1.61-3-7.28-8.9-11.32-6.1-4.16-13.74-5.4-22.74-3.69C323.67,24.06,323,45.69,323,46.61A5,5,0,0,1,318,51.52Z"/><path class="cls-1" d="M188.91,76.24a5,5,0,0,1-2.88-.92,5,5,0,0,1-1.22-6.94A40.14,40.14,0,0,1,219.29,53c18.78,1.1,26,10,26.71,11l-8,6c-.15-.18-5.18-6.18-19.29-7A30.12,30.12,0,0,0,193,74.14,5,5,0,0,1,188.91,76.24Z"/><path class="cls-1" d="M368,94a5.17,5.17,0,0,1-1.23-.15,5,5,0,0,1-3.63-6.1C363.31,87.14,367.33,72,388,72c20.27,0,25.49,13.71,25.7,14.29l-9.4,3.42C404.2,89.48,401,82,388,82c-12.42,0-14.93,7.44-15.17,8.29A5,5,0,0,1,368,94Z"/><path class="cls-1" d="M303.15,91.94c-.06-.24-2.14-8.1-15-10S272,87.77,272,87.85A5,5,0,0,1,262.72,84c.26-.61,6.45-15,26.89-12,20.05,3,23.21,17.29,23.34,17.89Z"/><path class="cls-1" d="M430.77,234.12h-.07a5,5,0,0,1-4.93-5.07L427,143.26a5,5,0,0,1,5-4.93h.07A5,5,0,0,1,437,143.4l-1.23,85.79A5,5,0,0,1,430.77,234.12Z"/><path class="cls-1" d="M383.33,212.33h-.05a5,5,0,0,1-4.95-5.05l.67-63.67a5,5,0,0,1,5-4.94h.05a5,5,0,0,1,4.95,5.05l-.67,63.67A5,5,0,0,1,383.33,212.33Z"/><path class="cls-1" d="M336.67,179a5,5,0,0,1-5-5l-.17-31a5,5,0,0,1,5-5h0a5,5,0,0,1,5,5l.17,31a5,5,0,0,1-5,5Z"/></g><g id="Outline"><path class="cls-1" d="M346,325H247a5,5,0,0,1,0-10h99a5,5,0,0,1,0,10Z"/><path class="cls-1" d="M346,350.77H247a5,5,0,0,1,0-10h99a5,5,0,0,1,0,10Z"/><path class="cls-1" d="M343.89,378.81H247a5,5,0,1,1,0-10h96.89a5,5,0,0,1,0,10Z"/><path class="cls-1" d="M325.48,407H247a5,5,0,0,1,0-10h78.48a5,5,0,0,1,0,10Z"/><path class="cls-1" d="M418,413a5,5,0,0,1-5-5V316a5,5,0,0,1,10,0v92A5,5,0,0,1,418,413Z"/><path class="cls-1" d="M382,434a5,5,0,0,1-5-5v-7a5,5,0,0,1,10,0v7A5,5,0,0,1,382,434Zm0-27a5,5,0,0,1-5-5v-7a5,5,0,0,1,10,0v7A5,5,0,0,1,382,407Zm0-27a5,5,0,0,1-5-5v-7a5,5,0,0,1,10,0v7A5,5,0,0,1,382,380Zm0-27a5,5,0,0,1-5-5v-7a5,5,0,0,1,10,0v7A5,5,0,0,1,382,353Zm0-27a5,5,0,0,1-5-5v-7a5,5,0,0,1,10,0v7A5,5,0,0,1,382,326Zm0-27a5,5,0,0,1-5-5v-7a5,5,0,0,1,10,0v7A5,5,0,0,1,382,299Z"/></g></svg>