<?xml version="1.0" ?><svg enable-background="new 0 0 512 512" version="1.1" viewBox="0 0 512 512" xml:space="preserve" xmlns="http://www.w3.org/2000/svg" xmlns:xlink="http://www.w3.org/1999/xlink"><g id="Lines"><g><g><path d="M257,469c-2.761,0-5-2.239-5-5v-33.648c0-2.761,2.239-5,5-5s5,2.239,5,5V464     C262,466.761,259.761,469,257,469z" fill="#3F456B"/></g></g><g><g><path d="M337.005,447.565c-1.729,0-3.409-0.897-4.335-2.501l-16.824-29.14c-1.381-2.392-0.562-5.449,1.83-6.83     s5.45-0.561,6.83,1.83l16.824,29.14c1.381,2.392,0.562,5.449-1.83,6.83C338.713,447.349,337.853,447.565,337.005,447.565z" fill="#3F456B"/></g></g><g><g><path d="M118.44,389.001c-1.729,0-3.409-0.897-4.335-2.501c-1.381-2.392-0.562-5.449,1.83-6.83l29.14-16.824     c2.392-1.38,5.45-0.561,6.83,1.83c1.381,2.392,0.562,5.449-1.83,6.83l-29.14,16.824     C120.148,388.785,119.289,389.001,118.44,389.001z" fill="#3F456B"/></g></g><g><g><path d="M395.559,389.001c-0.848,0-1.708-0.216-2.495-0.671l-29.14-16.824c-2.392-1.381-3.211-4.438-1.83-6.83     c1.38-2.392,4.438-3.21,6.83-1.83l29.14,16.824c2.392,1.381,3.211,4.438,1.83,6.83     C398.968,388.104,397.287,389.001,395.559,389.001z" fill="#3F456B"/></g></g><g><g><path d="M176.996,447.565c-0.848,0-1.708-0.216-2.495-0.671c-2.392-1.38-3.211-4.438-1.83-6.83l16.823-29.14     c1.38-2.392,4.438-3.21,6.83-1.83c2.392,1.38,3.211,4.438,1.83,6.83l-16.823,29.14     C180.405,446.668,178.724,447.565,176.996,447.565z" fill="#3F456B"/></g></g><g><g><path d="M295.081,451.217c-2.208,0-4.228-1.474-4.827-3.708l-5.56-20.75c-0.715-2.667,0.868-5.409,3.536-6.124     c2.667-0.716,5.409,0.869,6.124,3.536l5.56,20.75c0.715,2.667-0.868,5.409-3.536,6.124     C295.945,451.162,295.509,451.217,295.081,451.217z" fill="#3F456B"/></g></g><g><g><path d="M115.141,348.832c-2.208,0-4.228-1.474-4.827-3.708c-0.715-2.667,0.868-5.409,3.536-6.124l20.75-5.56     c2.665-0.715,5.409,0.869,6.124,3.536c0.715,2.667-0.868,5.409-3.536,6.124l-20.75,5.56     C116.004,348.776,115.569,348.832,115.141,348.832z" fill="#3F456B"/></g></g><g><g><path d="M361.769,411.784c-1.28,0-2.559-0.488-3.536-1.464l-14.453-14.453c-1.953-1.953-1.953-5.119,0-7.071     c1.954-1.952,5.119-1.951,7.071,0l14.453,14.453c1.953,1.953,1.953,5.119,0,7.071     C364.328,411.295,363.048,411.784,361.769,411.784z" fill="#3F456B"/></g></g><g><g><path d="M153.874,412.896c-1.28,0-2.559-0.488-3.536-1.464c-1.953-1.953-1.953-5.119,0-7.071l14.453-14.452     c1.954-1.953,5.119-1.952,7.071,0c1.953,1.953,1.953,5.119,0,7.071l-14.453,14.452     C156.433,412.407,155.153,412.896,153.874,412.896z" fill="#3F456B"/></g></g><g><g><path d="M399.746,345.754c-0.428,0-0.863-0.056-1.297-0.172l-19.745-5.29c-2.667-0.714-4.25-3.456-3.536-6.124     c0.715-2.667,3.455-4.25,6.124-3.536l19.745,5.29c2.667,0.714,4.25,3.456,3.536,6.124     C403.974,344.281,401.954,345.754,399.746,345.754z" fill="#3F456B"/></g></g><g><g><path d="M257,84.648c-2.761,0-5-2.239-5-5V46c0-2.761,2.239-5,5-5s5,2.239,5,5v33.648     C262,82.409,259.761,84.648,257,84.648z" fill="#3F456B"/></g></g><g><g><path d="M193.829,101.577c-1.729,0-3.409-0.897-4.335-2.501l-16.824-29.14c-1.381-2.392-0.562-5.449,1.83-6.83     s5.45-0.561,6.83,1.83l16.824,29.14c1.381,2.392,0.562,5.449-1.83,6.83C195.537,101.361,194.677,101.577,193.829,101.577z" fill="#3F456B"/></g></g><g><g><path d="M366.428,147.825c-1.729,0-3.409-0.897-4.335-2.501c-1.381-2.392-0.562-5.449,1.83-6.83l29.14-16.824     c2.392-1.38,5.45-0.561,6.83,1.83c1.381,2.392,0.562,5.449-1.83,6.83l-29.14,16.824     C368.136,147.609,367.276,147.825,366.428,147.825z" fill="#3F456B"/></g></g><g><g><path d="M147.571,147.825c-0.848,0-1.708-0.216-2.495-0.671l-29.14-16.824c-2.392-1.381-3.211-4.438-1.83-6.83     c1.381-2.391,4.438-3.211,6.83-1.83l29.14,16.824c2.392,1.381,3.211,4.438,1.83,6.83     C150.979,146.928,149.299,147.825,147.571,147.825z" fill="#3F456B"/></g></g><g><g><path d="M320.171,101.577c-0.848,0-1.708-0.216-2.495-0.671c-2.392-1.381-3.211-4.438-1.83-6.83l16.824-29.14     c1.381-2.392,4.438-3.211,6.83-1.83c2.392,1.381,3.211,4.438,1.83,6.83l-16.824,29.14     C323.58,100.68,321.899,101.577,320.171,101.577z" fill="#3F456B"/></g></g><g><g><path d="M224.071,88.201c-2.208,0-4.228-1.473-4.827-3.707l-5.084-18.972c-0.715-2.667,0.868-5.409,3.535-6.124     c2.669-0.716,5.409,0.868,6.124,3.535l5.084,18.972c0.715,2.667-0.868,5.409-3.535,6.124     C224.935,88.145,224.499,88.201,224.071,88.201z" fill="#3F456B"/></g></g><g><g><path d="M380.157,179.82c-2.208,0-4.228-1.474-4.827-3.708c-0.715-2.667,0.868-5.409,3.536-6.124l18.973-5.083     c2.668-0.715,5.409,0.869,6.124,3.536c0.715,2.667-0.868,5.409-3.536,6.124l-18.973,5.083     C381.02,179.765,380.585,179.82,380.157,179.82z" fill="#3F456B"/></g></g><g><g><path d="M168.327,120.342c-1.28,0-2.56-0.488-3.536-1.465l-14.452-14.454c-1.953-1.953-1.953-5.118,0-7.071     c1.953-1.952,5.12-1.952,7.071,0l14.452,14.454c1.953,1.953,1.953,5.118,0,7.071     C170.886,119.854,169.606,120.342,168.327,120.342z" fill="#3F456B"/></g></g><g><g><path d="M347.315,121.454c-1.28,0-2.559-0.488-3.535-1.464c-1.953-1.953-1.953-5.118,0-7.071l14.451-14.453     c1.952-1.953,5.119-1.954,7.071,0c1.953,1.953,1.953,5.118,0,7.071l-14.451,14.453     C349.875,120.966,348.595,121.454,347.315,121.454z" fill="#3F456B"/></g></g><g><g><path d="M135.498,176.95c-0.428,0-0.864-0.056-1.297-0.172l-19.742-5.291c-2.667-0.715-4.25-3.457-3.535-6.124     c0.715-2.667,3.457-4.25,6.124-3.535l19.742,5.291c2.667,0.715,4.25,3.457,3.535,6.124     C139.726,175.477,137.705,176.95,135.498,176.95z" fill="#3F456B"/></g></g><g><g><path d="M291.062,88.419c-0.428,0-0.864-0.056-1.297-0.172c-2.667-0.715-4.25-3.457-3.535-6.124l5.291-19.742     c0.715-2.667,3.455-4.25,6.124-3.535c2.667,0.715,4.25,3.457,3.535,6.124l-5.291,19.742     C295.29,86.946,293.27,88.419,291.062,88.419z" fill="#3F456B"/></g></g><g><g><path d="M220.258,450.666c-0.428,0-0.864-0.056-1.297-0.172c-2.667-0.715-4.25-3.457-3.535-6.124l5.291-19.744     c0.715-2.667,3.455-4.25,6.124-3.535c2.667,0.715,4.25,3.457,3.535,6.124l-5.291,19.744     C224.486,449.192,222.465,450.666,220.258,450.666z" fill="#3F456B"/></g></g><g><g><path d="M54,356H26c-8.271,0-15-6.729-15-15V170c0-8.271,6.729-15,15-15h28c8.271,0,15,6.729,15,15v171     C69,349.271,62.271,356,54,356z M26,165c-2.757,0-5,2.243-5,5v171c0,2.757,2.243,5,5,5h28c2.757,0,5-2.243,5-5V170     c0-2.757-2.243-5-5-5H26z" fill="#3F456B"/></g></g><g><g><path d="M96,325H64c-2.761,0-5-2.239-5-5s2.239-5,5-5h32c10.316,0,10.973-9.192,11-11.035V207     c0-3.712-0.938-6.449-2.786-8.132c-2.969-2.703-7.702-2.393-7.747-2.39c-0.155,0.015-0.311,0.022-0.467,0.022H64     c-2.761,0-5-2.239-5-5s2.239-5,5-5h31.809c1.733-0.117,9.354-0.292,15.138,4.974C114.963,195.132,117,200.355,117,207v97     C117,312.441,111.407,325,96,325z" fill="#3F456B"/></g></g><g><g><path d="M487,356h-28c-8.271,0-15-6.729-15-15V170c0-8.271,6.729-15,15-15h28c8.271,0,15,6.729,15,15v171     C502,349.271,495.271,356,487,356z M459,165c-2.757,0-5,2.243-5,5v171c0,2.757,2.243,5,5,5h28c2.757,0,5-2.243,5-5V170     c0-2.757-2.243-5-5-5H459z" fill="#3F456B"/></g></g><g><g><path d="M449,325h-32c-15.407,0-21-12.559-21-21v-97c0-6.645,2.037-11.868,6.053-15.526     c5.784-5.267,13.407-5.089,15.138-4.974H449c2.761,0,5,2.239,5,5s-2.239,5-5,5h-32c-0.156,0-0.312-0.007-0.467-0.022     c-0.009,0-4.803-0.336-7.79,2.429C406.923,200.592,406,203.315,406,207v97c0.027,1.808,0.684,11,11,11h32c2.761,0,5,2.239,5,5     S451.761,325,449,325z" fill="#3F456B"/></g></g><g><g><path d="M401,244H112c-2.761,0-5-2.239-5-5s2.239-5,5-5h289c2.761,0,5,2.239,5,5S403.761,244,401,244z" fill="#3F456B"/></g></g><g><g><path d="M401,276H112c-2.761,0-5-2.239-5-5s2.239-5,5-5h289c2.761,0,5,2.239,5,5S403.761,276,401,276z" fill="#3F456B"/></g></g><g><g><path d="M401,212H112c-2.761,0-5-2.239-5-5s2.239-5,5-5h289c2.761,0,5,2.239,5,5S403.761,212,401,212z" fill="#3F456B"/></g></g><g><g><path d="M401,308H112c-2.761,0-5-2.239-5-5s2.239-5,5-5h289c2.761,0,5,2.239,5,5S403.761,308,401,308z" fill="#3F456B"/></g></g><g><g><g><path d="M34.488,194.658c-1.86-3.221-0.757-7.338,2.465-9.198c3.22-1.859,7.338-0.756,9.198,2.465      c1.859,3.22,0.756,7.339-2.464,9.198C40.465,198.983,36.347,197.878,34.488,194.658z" fill="#3F456B"/></g></g></g><g><g><g><path d="M34.488,323.658c-1.86-3.221-0.757-7.338,2.465-9.198c3.22-1.859,7.338-0.756,9.198,2.465      c1.859,3.22,0.756,7.339-2.464,9.198C40.465,327.983,36.347,326.878,34.488,323.658z" fill="#3F456B"/></g></g></g><g><g><g><path d="M466.488,194.658c-1.86-3.221-0.757-7.338,2.465-9.198c3.22-1.859,7.338-0.756,9.198,2.465      c1.859,3.22,0.756,7.339-2.464,9.198C472.465,198.983,468.347,197.878,466.488,194.658z" fill="#3F456B"/></g></g></g><g><g><g><path d="M466.488,323.658c-1.86-3.221-0.757-7.338,2.465-9.198c3.22-1.859,7.338-0.756,9.198,2.465      c1.859,3.22,0.756,7.339-2.464,9.198C472.465,327.983,468.347,326.878,466.488,323.658z" fill="#3F456B"/></g></g></g><g><g><path d="M463.04,103.049c-1.01,0-2.045-0.207-3.064-0.638c-1.875-0.794-3.181-2.134-3.883-2.854     c-3.03-3.107-5.721-6.384-8.323-9.554l-1.442-1.753c-0.364-0.44-0.739-0.927-1.113-1.415c-0.294-0.384-0.588-0.769-0.875-1.116     c-0.047-0.057-0.098-0.121-0.151-0.19c-1.082,0.12-2.173,0.259-3.3,0.403c-2.283,0.292-4.643,0.595-7.108,0.741     c-0.327,0.02-0.768,0.067-1.286,0.12c-4.78,0.492-13.68,1.407-16.001-5.27c-0.844-2.426-0.014-4.613,0.298-5.437     c1.736-4.573,4.189-8.609,6.561-12.513l0.891-1.469c0.976-1.619,1.852-3.046,2.62-4.271c-3.438-5.896-8.04-15.185-8.086-20.746     c-0.031-3.84,1.668-5.952,3.1-7.048c2.513-1.923,5.412-1.677,6.73-1.425c4.929,0.483,14.894,3.793,20.352,5.707     c5.547-6.222,11.69-11.424,13.634-12.922c1.741-1.341,3.555-2.079,5.393-2.194c2.216-0.137,4.572,0.653,6.326,2.113     c0.558,0.464,1.061,1.016,1.491,1.639c0.914,1.321,1.481,2.927,1.687,4.774c0.271,2.44,0.787,10.475,0.158,18.782     c5.166,2.602,14.465,7.479,18.233,10.692c1.096,0.774,3.286,2.69,3.645,5.834c0.205,1.791-0.137,4.481-2.923,7.123     c-3.989,3.782-13.686,6.886-20.313,8.519c-1.249,6.71-3.25,13.086-6.081,19.398C468.794,101.236,466.031,103.049,463.04,103.049z      M446.301,75.312c0.671,0,1.336,0.135,1.956,0.398l0.082,0.035c1.787,0.761,2.799,2.254,3.538,3.344     c0.084,0.124,0.161,0.24,0.229,0.333c0.308,0.371,0.677,0.85,1.044,1.33c0.298,0.389,0.596,0.779,0.887,1.131l1.461,1.776     c2.238,2.726,4.37,5.321,6.675,7.788c2.32-5.697,3.892-11.486,4.788-17.618c0.305-2.086,1.886-3.757,3.952-4.177     c6.545-1.33,13.918-3.81,17.326-5.722c-3.85-2.716-12.741-7.366-18.084-9.966c-1.914-0.931-3.028-2.972-2.778-5.085     c0.88-7.415,0.547-15.323,0.292-18.725c-2.626,2.176-8.549,7.423-13.28,13.205c-1.348,1.647-3.591,2.26-5.589,1.529     c-5.582-2.043-15.101-5.217-19.727-6.104c0.988,3.781,4.319,10.81,7.905,16.445c1.062,1.669,1.04,3.808-0.056,5.455     c-0.685,1.028-1.954,3.006-4.114,6.588l-0.909,1.499c-1.728,2.844-3.382,5.566-4.695,8.371c1.588-0.017,3.446-0.208,4.27-0.292     c0.69-0.071,1.279-0.129,1.715-0.155c2.125-0.126,4.216-0.394,6.43-0.678c2.033-0.26,4.134-0.529,6.317-0.689     C446.058,75.316,446.18,75.312,446.301,75.312z M490.277,65.481c0.007,0.004,0.014,0.008,0.02,0.012     C490.29,65.489,490.283,65.485,490.277,65.481z M426.52,38.387c0.005,0.001,0.011,0.003,0.018,0.005     C426.531,38.39,426.525,38.388,426.52,38.387z M467.486,28.482L467.486,28.482L467.486,28.482z" fill="#3F456B"/></g></g><g><g><path d="M65.09,503.208c-0.506,0-1.023-0.049-1.547-0.15c-1.997-0.384-3.556-1.422-4.393-1.98     c-3.611-2.406-6.926-5.049-10.132-7.605l-1.777-1.415c-0.447-0.354-0.913-0.75-1.377-1.146c-0.37-0.315-0.739-0.632-1.094-0.914     c-0.058-0.046-0.121-0.098-0.188-0.155c-1.032,0.342-2.069,0.707-3.14,1.083c-2.172,0.762-4.419,1.551-6.8,2.208     c-0.315,0.087-0.736,0.226-1.231,0.386c-4.573,1.478-13.086,4.229-16.75-1.815c-1.332-2.198-0.976-4.51-0.842-5.38     c0.744-4.832,2.299-9.289,3.804-13.6l0.557-1.602c0.675-1.957,1.23-3.517,1.68-4.75c-4.593-5.049-11.031-13.173-12.237-18.603     c-0.832-3.75,0.39-6.17,1.561-7.541c2.055-2.405,4.943-2.769,6.284-2.797c4.919-0.555,15.357,0.602,21.095,1.335     c4.126-7.24,9.048-13.61,10.637-15.481c1.421-1.675,3.042-2.776,4.817-3.271c2.127-0.594,4.604-0.316,6.625,0.746     c0.651,0.344,1.255,0.777,1.803,1.294c1.167,1.098,2.057,2.55,2.644,4.314c0.774,2.33,2.956,10.078,4.074,18.337     c5.595,1.467,15.707,4.296,20.063,6.653c1.233,0.528,3.775,1.946,4.782,4.946c0.574,1.709,0.801,4.411-1.373,7.576     c-3.112,4.531-11.947,9.59-18.088,12.569c0.179,6.821-0.447,13.475-1.899,20.24C71.795,500.66,68.738,503.208,65.09,503.208z      M45.559,479.299c0.321,0,0.642,0.031,0.959,0.093l0.087,0.017c1.899,0.368,3.201,1.619,4.151,2.531     c0.108,0.104,0.207,0.202,0.293,0.277c0.38,0.3,0.843,0.693,1.305,1.087c0.372,0.317,0.743,0.635,1.099,0.918l1.799,1.432     c2.757,2.199,5.382,4.292,8.152,6.222c1.081-6.058,1.409-12.046,1.006-18.229c-0.137-2.104,1.06-4.068,2.994-4.91     c6.124-2.666,12.817-6.629,15.751-9.211c-4.332-1.853-13.998-4.545-19.767-5.973c-2.066-0.511-3.582-2.274-3.778-4.394     c-0.687-7.438-2.662-15.101-3.622-18.374c-2.116,2.678-6.814,9.046-10.232,15.685c-0.974,1.892-3.034,2.961-5.146,2.662     c-5.885-0.833-15.854-1.947-20.566-1.854c1.756,3.492,6.48,9.671,11.163,14.435c1.387,1.411,1.811,3.506,1.083,5.345     c-0.459,1.159-1.292,3.371-2.657,7.327l-0.569,1.636c-1.096,3.14-2.145,6.146-2.844,9.161c1.549-0.348,3.327-0.923,4.115-1.177     c0.66-0.213,1.224-0.393,1.645-0.509c2.053-0.567,4.043-1.266,6.15-2.005c1.932-0.679,3.93-1.38,6.03-1.991     C44.616,479.366,45.087,479.299,45.559,479.299z M84.5,458.045L84.5,458.045L84.5,458.045z M17.464,447.424     c0.008,0,0.016,0.001,0.025,0.001C17.481,447.425,17.473,447.424,17.464,447.424z M19.352,445.402L19.352,445.402L19.352,445.402     z M55.462,429.189L55.462,429.189L55.462,429.189z" fill="#3F456B"/></g></g><g><g><path d="M421,138.001c-0.559,0-1.126-0.094-1.682-0.293c-2.601-0.929-3.956-3.79-3.027-6.39     c10.033-28.093,21.868-48.926,22.367-49.799c1.37-2.398,4.424-3.229,6.821-1.861c2.397,1.37,3.231,4.423,1.862,6.821     c-0.118,0.207-11.913,20.984-21.633,48.202C424.979,136.727,423.053,138.001,421,138.001z" fill="#3F456B"/></g></g><g><g><path d="M64.999,454c-1.207,0-2.417-0.435-3.377-1.314c-2.036-1.866-2.173-5.029-0.307-7.064     c0.922-1.007,22.864-24.789,46.373-37.055c2.449-1.278,5.469-0.328,6.746,2.12c1.277,2.448,0.328,5.469-2.12,6.746     c-21.967,11.461-43.413,34.712-43.627,34.945C67.7,453.454,66.351,454,64.999,454z" fill="#3F456B"/></g></g></g><g id="Outline"><g><g><g><path d="M298.312,184.909c-6.788,0-11.778-5.519-12.34-6.166c-1.81-2.086-1.586-5.244,0.499-7.054      c2.086-1.81,5.243-1.586,7.054,0.499c0.816,0.913,3.11,2.838,4.927,2.717c1.014-0.058,2.096-0.888,3.215-2.469      c3.783-5.343,8.05-6.585,10.964-6.687c6.933-0.242,11.941,5.606,12.488,6.274c1.748,2.138,1.433,5.288-0.705,7.036      c-2.13,1.742-5.264,1.435-7.017-0.682c-0.727-0.858-2.823-2.69-4.434-2.634c-1.181,0.051-2.356,1.371-3.134,2.47      c-3.723,5.26-7.983,6.536-10.901,6.68C298.722,184.904,298.516,184.909,298.312,184.909z" fill="#3F456B"/></g></g><g><g><path d="M266.312,185.191c-6.787,0-11.778-5.519-12.339-6.166c-1.81-2.085-1.587-5.243,0.499-7.053      c2.085-1.81,5.243-1.588,7.053,0.499c0.817,0.913,3.145,2.812,4.927,2.716c1.015-0.058,2.096-0.889,3.215-2.469      c3.783-5.343,8.051-6.585,10.965-6.687c6.935-0.234,11.942,5.606,12.488,6.273c1.749,2.138,1.433,5.288-0.704,7.036      c-2.129,1.742-5.263,1.436-7.016-0.68c-0.727-0.857-2.831-2.69-4.437-2.635c-1.182,0.051-2.357,1.371-3.135,2.47      c-3.722,5.259-7.981,6.535-10.899,6.68C266.722,185.186,266.517,185.191,266.312,185.191z" fill="#3F456B"/></g></g><g><g><path d="M234.314,185.472c-6.788,0-11.777-5.519-12.339-6.166c-1.81-2.086-1.586-5.244,0.5-7.053      c2.085-1.811,5.243-1.586,7.053,0.5c0.817,0.913,3.151,2.838,4.925,2.716c1.015-0.058,2.097-0.888,3.216-2.469      c3.783-5.343,8.051-6.585,10.964-6.687c6.966-0.241,11.941,5.605,12.487,6.273c1.749,2.137,1.433,5.288-0.705,7.036      c-2.128,1.742-5.263,1.435-7.015-0.679c-0.726-0.857-2.857-2.716-4.436-2.635c-1.181,0.05-2.357,1.371-3.135,2.47      c-3.724,5.26-7.983,6.536-10.901,6.679C234.723,185.467,234.517,185.472,234.314,185.472z" fill="#3F456B"/></g></g><g><g><path d="M202.315,185.753c-6.788,0.001-11.778-5.519-12.339-6.166c-1.81-2.085-1.586-5.243,0.5-7.053      c2.084-1.81,5.243-1.587,7.053,0.5c0.817,0.913,3.132,2.831,4.926,2.716c1.015-0.058,2.097-0.888,3.216-2.469      c3.782-5.343,8.05-6.585,10.963-6.686c6.96-0.231,11.941,5.605,12.487,6.272c1.749,2.138,1.433,5.288-0.704,7.036      c-2.13,1.742-5.263,1.436-7.016-0.68c-0.727-0.857-2.837-2.711-4.435-2.634c-1.181,0.05-2.356,1.371-3.135,2.47      c-3.724,5.26-7.983,6.535-10.901,6.679C202.724,185.749,202.518,185.753,202.315,185.753z" fill="#3F456B"/></g></g><g><g><path d="M298.312,344.909c-6.788,0-11.778-5.519-12.34-6.166c-1.81-2.086-1.586-5.244,0.499-7.054      c2.086-1.81,5.243-1.586,7.054,0.499c0.816,0.913,3.11,2.836,4.927,2.717c1.014-0.058,2.096-0.888,3.215-2.469      c3.783-5.343,8.05-6.585,10.964-6.687c6.933-0.255,11.941,5.606,12.488,6.274c1.748,2.138,1.433,5.288-0.705,7.036      c-2.13,1.742-5.264,1.435-7.017-0.682c-0.727-0.857-2.823-2.686-4.434-2.634c-1.181,0.051-2.356,1.371-3.134,2.47      c-3.723,5.26-7.983,6.536-10.901,6.68C298.722,344.904,298.516,344.909,298.312,344.909z" fill="#3F456B"/></g></g><g><g><path d="M266.312,345.191c-6.787,0-11.778-5.519-12.339-6.166c-1.81-2.085-1.587-5.243,0.499-7.053      c2.085-1.81,5.243-1.587,7.053,0.499c0.817,0.913,3.145,2.817,4.927,2.716c1.015-0.058,2.096-0.889,3.215-2.469      c3.783-5.343,8.051-6.585,10.965-6.687c6.935-0.248,11.942,5.606,12.488,6.273c1.749,2.138,1.433,5.288-0.704,7.036      c-2.129,1.741-5.263,1.436-7.016-0.68c-0.727-0.857-2.831-2.698-4.437-2.635c-1.182,0.051-2.357,1.371-3.135,2.47      c-3.722,5.259-7.981,6.535-10.899,6.68C266.722,345.186,266.517,345.191,266.312,345.191z" fill="#3F456B"/></g></g><g><g><path d="M234.314,345.472c-6.788,0-11.777-5.519-12.339-6.166c-1.81-2.086-1.586-5.244,0.5-7.053      c2.085-1.811,5.243-1.586,7.053,0.5c0.817,0.913,3.151,2.838,4.925,2.716c1.015-0.058,2.097-0.888,3.216-2.469      c3.783-5.343,8.051-6.585,10.964-6.687c6.966-0.259,11.941,5.605,12.487,6.273c1.749,2.137,1.433,5.288-0.705,7.036      c-2.128,1.743-5.263,1.436-7.015-0.679c-0.726-0.857-2.857-2.711-4.436-2.635c-1.181,0.05-2.357,1.371-3.135,2.47      c-3.724,5.26-7.983,6.536-10.901,6.679C234.723,345.467,234.517,345.472,234.314,345.472z" fill="#3F456B"/></g></g><g><g><path d="M202.315,345.753c-6.788,0.001-11.778-5.519-12.339-6.166c-1.81-2.085-1.586-5.243,0.5-7.053      c2.084-1.81,5.243-1.587,7.053,0.5c0.817,0.913,3.132,2.836,4.926,2.716c1.015-0.058,2.097-0.888,3.216-2.469      c3.782-5.343,8.05-6.585,10.963-6.686c6.96-0.231,11.941,5.605,12.487,6.272c1.749,2.138,1.433,5.288-0.704,7.036      c-2.13,1.741-5.263,1.436-7.016-0.68c-0.727-0.857-2.837-2.713-4.435-2.634c-1.181,0.05-2.356,1.371-3.135,2.47      c-3.724,5.26-7.983,6.535-10.901,6.679C202.724,345.749,202.518,345.753,202.315,345.753z" fill="#3F456B"/></g></g><g><g><path d="M444.466,415.837c-1.28,0-2.559-0.488-3.536-1.464c-1.953-1.953-1.953-5.119,0-7.071l8.017-8.017      c1.953-1.952,5.118-1.952,7.071,0c1.953,1.953,1.953,5.119,0,7.071l-8.017,8.017      C447.025,415.349,445.746,415.837,444.466,415.837z" fill="#3F456B"/></g></g><g><g><path d="M417.103,443.18c-1.28,0-2.559-0.488-3.536-1.464c-1.953-1.953-1.953-5.119,0-7.071l8.017-8.017      c1.953-1.952,5.118-1.952,7.071,0c1.953,1.953,1.953,5.119,0,7.071l-8.017,8.017C419.662,442.691,418.383,443.18,417.103,443.18      z" fill="#3F456B"/></g></g><g><g><path d="M452.473,443.19c-1.28,0-2.559-0.488-3.536-1.464l-8.018-8.017c-1.953-1.953-1.953-5.118,0-7.071      c1.952-1.952,5.118-1.952,7.071,0l8.018,8.017c1.953,1.953,1.953,5.118,0,7.071C455.033,442.702,453.753,443.19,452.473,443.19z      " fill="#3F456B"/></g></g><g><g><path d="M425.13,415.827c-1.28,0-2.559-0.488-3.536-1.464l-8.017-8.017c-1.953-1.953-1.953-5.119,0-7.071      c1.953-1.952,5.118-1.952,7.071,0l8.017,8.017c1.953,1.953,1.953,5.119,0,7.071C427.689,415.339,426.41,415.827,425.13,415.827z      " fill="#3F456B"/></g></g><g><g><path d="M74.466,104.837c-1.28,0-2.559-0.488-3.536-1.464c-1.953-1.953-1.953-5.119,0-7.071l8.017-8.017      c1.953-1.952,5.118-1.952,7.071,0c1.953,1.953,1.953,5.119,0,7.071l-8.017,8.017C77.025,104.349,75.746,104.837,74.466,104.837z      " fill="#3F456B"/></g></g><g><g><path d="M47.103,132.18c-1.28,0-2.559-0.488-3.536-1.464c-1.953-1.953-1.953-5.119,0-7.071l8.017-8.017      c1.953-1.952,5.118-1.952,7.071,0c1.953,1.953,1.953,5.119,0,7.071l-8.017,8.017C49.662,131.691,48.383,132.18,47.103,132.18z" fill="#3F456B"/></g></g><g><g><path d="M82.473,132.19c-1.28,0-2.559-0.488-3.536-1.464l-8.018-8.017c-1.953-1.953-1.953-5.118,0-7.071      c1.952-1.952,5.118-1.952,7.071,0l8.018,8.017c1.953,1.953,1.953,5.118,0,7.071C85.033,131.702,83.753,132.19,82.473,132.19z" fill="#3F456B"/></g></g><g><g><path d="M55.13,104.827c-1.28,0-2.559-0.488-3.536-1.464l-8.017-8.017c-1.953-1.953-1.953-5.119,0-7.071      c1.953-1.952,5.118-1.952,7.071,0l8.017,8.017c1.953,1.953,1.953,5.119,0,7.071C57.689,104.339,56.41,104.827,55.13,104.827z" fill="#3F456B"/></g></g></g></g></svg>