<?xml version="1.0" ?><svg id="Lines" viewBox="0 0 512 512" xmlns="http://www.w3.org/2000/svg"><defs><style>.cls-1{fill:#3f456b;}</style></defs><title/><path class="cls-1" d="M412,355.05a5,5,0,0,1-3.72-1.65L361,300.94a5,5,0,0,1-.12-6.56l21.95-26.2a5,5,0,0,1,3.84-1.79h50.4a5,5,0,0,1,3.84,1.79l21.95,26.2a5,5,0,0,1-.11,6.55l-47.06,52.46a5,5,0,0,1-3.72,1.66Zm-40.64-57.57,40.63,45.1,40.45-45.1-17.67-21.09H389Z"/><path class="cls-1" d="M470.51,500H347.89c-20.54,0-32.32-9.63-32.32-26.43V421.69l.07-6.53a5,5,0,0,1,5-5H497.76a5,5,0,0,1,5,5.05l-.06,6.46v51.2C502.7,490.13,491,500,470.51,500ZM325.59,420.21l0,1.53v51.83c0,10.9,7.51,16.43,22.32,16.43H470.51c14.72,0,22.19-5.75,22.19-17.08V420.21Z"/><path class="cls-1" d="M336.8,420.27a4.63,4.63,0,0,1-.65,0,5,5,0,0,1-4.32-5.61,78,78,0,0,1,22.4-45.45,78.85,78.85,0,0,1,111.37,0A78,78,0,0,1,488,414.56a5,5,0,0,1-9.92,1.31,68.09,68.09,0,0,0-19.55-39.63,68.83,68.83,0,0,0-97.22,0,68,68,0,0,0-19.56,39.68A5,5,0,0,1,336.8,420.27Z"/><path class="cls-1" d="M221.53,420.38a26,26,0,1,1,26-27.08h0a26,26,0,0,1-24.89,27.06Zm0-42h-.68a16,16,0,1,0,16.65,15.33h0a16,16,0,0,0-16-15.34Z"/><path class="cls-1" d="M229,483.71a25.84,25.84,0,1,1,1.09,0Zm0-42h-.68A16,16,0,1,0,245,457h0a16,16,0,0,0-16-15.33Z"/><path class="cls-1" d="M289.76,424.55a25.87,25.87,0,1,1,1.11,0C290.5,424.55,290.13,424.55,289.76,424.55Zm0-42-.68,0a16,16,0,1,0,16.65,15.32h0a16,16,0,0,0-16-15.34Z"/><path class="cls-1" d="M286,455a4.92,4.92,0,0,1-2.53-.69,5,5,0,0,1-1.78-6.84c6.56-11.17,4.06-27,4-27.12a5,5,0,1,1,9.86-1.63c.13.79,3.1,19.56-5.28,33.81A5,5,0,0,1,286,455Z"/><path class="cls-1" d="M319.67,463.67c-20.32,0-41.74-8.89-62-25.76a157.68,157.68,0,0,1-25-26A5,5,0,0,1,240.7,406a151.55,151.55,0,0,0,23.51,24.34c13,10.81,33.43,23.58,56.29,23.3h.07a5,5,0,0,1,.07,10Z"/><path class="cls-1" d="M273.42,473.56c-1.71,0-3.46-.09-5.26-.25a72.54,72.54,0,0,1-20.87-5.25,5,5,0,0,1,4.08-9.13,63.16,63.16,0,0,0,17.95,4.44c12.17,1.07,21.26-2.42,27-10.35a5,5,0,1,1,8.1,5.86C297.43,468.54,286.78,473.56,273.42,473.56Z"/><path class="cls-1" d="M119.71,296H65a5,5,0,0,1-5-5V236.29a5,5,0,0,1,5-5h54.71a5,5,0,0,1,5,5V291A5,5,0,0,1,119.71,296ZM70,286h44.71V241.29H70Z"/><path class="cls-1" d="M119.71,405.43H65a5,5,0,0,1-5-5V345.71a5,5,0,0,1,5-5h54.71a5,5,0,0,1,5,5v54.72A5,5,0,0,1,119.71,405.43ZM70,395.43h44.71V350.71H70Z"/><path class="cls-1" d="M207,460.14H65a5,5,0,0,1-5-5V400.43a5,5,0,0,1,5-5H201a5,5,0,1,1,0,10H70v44.71H207a5,5,0,0,1,0,10Z"/><path class="cls-1" d="M174.43,296H119.71a5,5,0,0,1-5-5V236.29a5,5,0,0,1,5-5h54.72a5,5,0,0,1,5,5V291A5,5,0,0,1,174.43,296Zm-49.72-10h44.72V241.29H124.71Z"/><path class="cls-1" d="M174.43,350.71H119.71a5,5,0,0,1-5-5V291a5,5,0,0,1,5-5h54.72a5,5,0,0,1,5,5v54.71A5,5,0,0,1,174.43,350.71Zm-49.72-10h44.72V296H124.71Z"/><path class="cls-1" d="M119.71,456a5,5,0,0,1-5-5V345.71a5,5,0,0,1,5-5h54.72a5,5,0,0,1,5,5v54.72a5,5,0,0,1-10,0V350.71H124.71V451A5,5,0,0,1,119.71,456Z"/><path class="cls-1" d="M229.14,350.71H174.43a5,5,0,0,1-5-5V291a5,5,0,0,1,5-5h54.71a5,5,0,0,1,5,5v54.71A5,5,0,0,1,229.14,350.71Zm-49.71-10h44.71V296H179.43Z"/><path class="cls-1" d="M174.43,459a5,5,0,0,1-5-5V345.71a5,5,0,0,1,5-5H406a5,5,0,0,1,0,10H179.43V454A5,5,0,0,1,174.43,459Z"/><path class="cls-1" d="M283.86,296a5,5,0,0,1-5-5V236.29a5,5,0,0,1,5-5h54.71a5,5,0,0,1,0,10H288.86V291A5,5,0,0,1,283.86,296Z"/><path class="cls-1" d="M393.29,241.29H338.57a5,5,0,0,1,0-10h49.72V186.57H284a5,5,0,0,1,0-10H393.29a5,5,0,0,1,5,5v54.72A5,5,0,0,1,393.29,241.29Z"/><path class="cls-1" d="M393.29,276a5,5,0,0,1-5-5V236.29a5,5,0,0,1,10,0V271A5,5,0,0,1,393.29,276Z"/><path class="cls-1" d="M338.57,405a5,5,0,0,1-5-5V182a5,5,0,1,1,10,0V400A5,5,0,0,1,338.57,405Z"/><path class="cls-1" d="M448,287a5,5,0,0,1-5-5V186.57H398.29v49.72a5,5,0,1,1-10,0V181.57a5,5,0,0,1,5-5H448a5,5,0,0,1,5,5V282A5,5,0,0,1,448,287Z"/><path class="cls-1" d="M229.14,296a5,5,0,0,1-5-5V241.29H174a5,5,0,0,1,0-10h50.14V181.57a5,5,0,0,1,5-5h54.72a5,5,0,0,1,5,5v54.72a5,5,0,0,1-5,5H234.14V291A5,5,0,0,1,229.14,296Zm5-64.71h44.72V186.57H234.14Z"/><path class="cls-1" d="M229.14,378a5,5,0,0,1-5-5V291a5,5,0,0,1,5-5H369a5,5,0,0,1,0,10H234.14v77A5,5,0,0,1,229.14,378Z"/><path class="cls-1" d="M283.86,383a5,5,0,0,1-5-5V236.29a5,5,0,1,1,10,0V378A5,5,0,0,1,283.86,383Z"/><path class="cls-1" d="M448,366a5,5,0,0,1-5-5V311a5,5,0,0,1,10,0v50A5,5,0,0,1,448,366Z"/><path class="cls-1" d="M65,351a5,5,0,0,1-5-5V291a5,5,0,0,1,10,0v55A5,5,0,0,1,65,351Z"/><path class="cls-1" d="M448,241H393a5,5,0,0,1,0-10h55a5,5,0,0,1,0,10Z"/><path class="cls-1" d="M228.62,441a5,5,0,0,1-5-5V414.39a5,5,0,0,1,10,0V436A5,5,0,0,1,228.62,441Z"/><path class="cls-1" d="M268,404.56H242.76a5,5,0,1,1,0-10H268a5,5,0,0,1,0,10Z"/><path class="cls-1" d="M338,404.56H312.76a5,5,0,0,1,0-10H338a5,5,0,0,1,0,10Z"/><rect class="cls-1" height="10" width="454" x="29" y="138"/><path class="cls-1" d="M357,500H59a35,35,0,0,1-35-35V77A35,35,0,0,1,59,42h49.88a5,5,0,0,1,0,10H59A25,25,0,0,0,34,77V465a25,25,0,0,0,25,25H357a5,5,0,0,1,0,10Z"/><path class="cls-1" d="M483,420a5,5,0,0,1-5-5V77a25,25,0,0,0-25-25H401.56a5,5,0,0,1,0-10H453a35,35,0,0,1,35,35V415A5,5,0,0,1,483,420Z"/><rect class="cls-1" height="10" width="94.38" x="272" y="42"/><rect class="cls-1" height="10" width="93.38" x="146" y="42"/><path class="cls-1" d="M134,99H122a15,15,0,0,1-15-15V25a15,15,0,0,1,15-15h12a15,15,0,0,1,15,15V84A15,15,0,0,1,134,99ZM122,20a5,5,0,0,0-5,5V84a5,5,0,0,0,5,5h12a5,5,0,0,0,5-5V25a5,5,0,0,0-5-5Z"/><path class="cls-1" d="M262,99H250a15,15,0,0,1-15-15V25a15,15,0,0,1,15-15h12a15,15,0,0,1,15,15V84A15,15,0,0,1,262,99ZM250,20a5,5,0,0,0-5,5V84a5,5,0,0,0,5,5h12a5,5,0,0,0,5-5V25a5,5,0,0,0-5-5Z"/><path class="cls-1" d="M390,99H378a15,15,0,0,1-15-15V25a15,15,0,0,1,15-15h12a15,15,0,0,1,15,15V84A15,15,0,0,1,390,99ZM378,20a5,5,0,0,0-5,5V84a5,5,0,0,0,5,5h12a5,5,0,0,0,5-5V25a5,5,0,0,0-5-5Z"/></svg>