<?xml version="1.0" ?><svg viewBox="0 0 512 512" xmlns="http://www.w3.org/2000/svg"><defs><style>.cls-1{fill:#3f456b;}</style></defs><title/><g id="Lines"><path class="cls-1" d="M480.28,261.81H405.4a5,5,0,0,1,0-10h69.88V150.34c0-29.74-11.82-53.66-35.14-71.09a109.67,109.67,0,0,0-35.89-17.64l-.47-.14L335,37.81a59.81,59.81,0,0,1-16.23,32.78c-14,14.31-35.24,21.57-63.08,21.57s-49.06-7.26-63.08-21.57a59.81,59.81,0,0,1-16.23-32.78L107.51,61.47l-.49.14A109.77,109.77,0,0,0,71.14,79.25C47.82,96.68,36,120.6,36,150.34V251.81h69.88a5,5,0,0,1,0,10H31a5,5,0,0,1-5-5V150.34C26,109,47.46,84.37,65.46,71a118.64,118.64,0,0,1,39-19.07l74.66-25.67a5,5,0,0,1,6.63,4.83,50,50,0,0,0,14.07,32.62C211.9,76,230.68,82.16,255.64,82.16s43.87-6.25,55.93-18.56a49.49,49.49,0,0,0,13.95-32.5,5,5,0,0,1,6.62-4.83l74.67,25.67a118.64,118.64,0,0,1,39,19.07c18,13.36,39.46,38,39.46,79.33V256.81A5,5,0,0,1,480.28,261.81Z"/><path class="cls-1" d="M259.84,44.38c-43.71,0-77-8-79.11-8.53a5,5,0,0,1,2.39-9.71c.75.19,75.76,18.19,147.34,0a5,5,0,1,1,2.46,9.7C307.71,42.25,282.39,44.38,259.84,44.38Z"/><path class="cls-1" d="M405.4,485.28H105.88a5,5,0,0,1-5-5V162a5,5,0,1,1,10,0V475.28H400.4V162a5,5,0,1,1,10,0V480.28A5,5,0,0,1,405.4,485.28Z"/></g><g id="Outline"><path class="cls-1" d="M255.69,119.07c-38.76,0-68.07-10.76-87.12-32a84.73,84.73,0,0,1-20.51-44.69A5,5,0,0,1,158,41.15c2,15.93,15.05,67.92,97.71,67.92,82.9,0,96.54-52,98.75-67.9a5,5,0,1,1,9.91,1.37,85.38,85.38,0,0,1-21,44.5C324.05,108.29,294.55,119.07,255.69,119.07Z"/></g></svg>