<?xml version="1.0" ?><svg enable-background="new 0 0 512 512" version="1.1" viewBox="0 0 512 512" xml:space="preserve" xmlns="http://www.w3.org/2000/svg" xmlns:xlink="http://www.w3.org/1999/xlink"><g id="Lines"><g><g><path d="M257.388,427.177c-49.951,0-90.588-40.638-90.588-90.589c0-2.762,2.239-5,5-5s5,2.238,5,5     c0,44.437,36.152,80.589,80.588,80.589c34.224,0,64.804-21.692,76.093-53.979c0.912-2.606,3.762-3.98,6.37-3.069     c2.606,0.911,3.981,3.764,3.069,6.37C330.23,402.792,295.857,427.177,257.388,427.177z" fill="#3F456B"/></g></g><g><g><path d="M342.976,341.588c-2.761,0-5-2.238-5-5c0-44.437-36.151-80.588-80.588-80.588     c-17.687,0-34.472,5.62-48.541,16.253c-13.617,10.291-23.799,24.912-28.669,41.168c-0.792,2.646-3.58,4.145-6.225,3.355     c-2.645-0.793-4.147-3.58-3.354-6.225c5.476-18.278,16.918-34.713,32.219-46.276C218.637,252.319,237.507,246,257.388,246     c49.95,0,90.588,40.638,90.588,90.588C347.976,339.35,345.737,341.588,342.976,341.588z" fill="#3F456B"/></g></g><g><g><g><path d="M70.406,272.635c-3.575,0-6.473-2.896-6.473-6.473c0-3.574,2.897-6.472,6.473-6.472      c3.574,0,6.473,2.898,6.473,6.472C76.879,269.738,73.98,272.635,70.406,272.635z" fill="#3F456B"/></g></g></g><g id="XMLID_10_"><g><g><g><path d="M313,500H202c-27.283,0-48.622-14.948-49.518-15.585c-48-33.944-76.663-89.276-76.663-148.005       c0-35.626,10.335-70.102,29.894-99.722c8.947-17.101,1.633-38.684-5.441-59.559c-2.982-8.799-5.798-17.109-7.394-25.032       c-7.696-38.193-4.091-69.171,10.713-92.072c12.7-19.641,36.059-33.626,69.429-41.567c27.968-6.655,57.863-8.016,80.784-8.457       L258.03,10c52.62,1.013,125.643,7.3,153.278,50.024c14.805,22.902,18.41,53.88,10.713,92.073       c-1.596,7.923-4.412,16.233-7.394,25.033c-7.335,21.646-14.919,44.028-4.4,61.421c0.421,0.696,0.662,1.479,0.712,2.275       c17.828,28.661,27.24,61.656,27.24,95.583c0,29.061-7.047,57.953-20.379,83.557c-12.9,24.773-31.687,46.575-54.33,63.046       c-0.042,0.03-0.084,0.061-0.126,0.089C362.332,483.792,338.251,500,313,500z M257.934,19.999L253.9,20       c-48.858,0.942-116.84,6.681-141.911,45.455c-13.339,20.634-16.47,49.12-9.308,84.668c1.469,7.295,4.186,15.311,7.062,23.798       c7.422,21.899,15.833,46.721,4.692,67.667c-0.075,0.142-0.157,0.279-0.246,0.413C95.63,270.024,85.82,302.671,85.82,336.41       c0,55.488,27.083,107.768,72.447,139.848C158.465,476.397,177.997,490,202,490h111c21.592,0,43.421-14.302,44.664-15.129       c21.365-15.561,39.091-36.141,51.267-59.523c12.593-24.183,19.249-51.479,19.249-78.938c0-32.833-9.326-64.736-26.969-92.262       c-0.508-0.792-0.777-1.704-0.79-2.629c-11.082-20.921-2.693-45.672,4.737-67.599c2.875-8.486,5.592-16.503,7.062-23.798       c7.163-35.548,4.031-64.034-9.308-84.668C377.865,26.732,308.175,20.968,257.934,19.999z M360.53,478.97h0.01H360.53z        M180.373,180.606c-5.519,0-10.625-1.56-15.25-4.666c-13.359-8.977-17.749-27.764-19.016-35.424       c-5.358-32.373,4.101-56.655,26.636-68.373c20.712-10.776,45.308-11.695,67.008-12.507l1.67-0.062       c26.649-0.992,50.648,0.29,73.367,3.918c15.827,2.516,28.583,7.788,37.909,15.669c16.111,13.604,21.674,38.839,14.878,67.502       c0,0.001,0,0.001,0,0.001c-1.954,8.233-7.074,23.108-19.41,30.233c-6.839,3.948-14.557,4.735-22.947,2.341       c-0.341-0.065-0.681-0.169-1.013-0.311c-21.261-9.089-43.872-13.697-67.205-13.697c-22.146,0-43.948,4.544-68.611,14.299       c-0.287,0.113-0.583,0.2-0.884,0.259C185.059,180.334,182.68,180.606,180.373,180.606z M258.438,69.25       c-5.433,0-10.974,0.105-16.643,0.316l-1.671,0.063c-21.656,0.81-44.049,1.646-62.768,11.386       c-13.006,6.763-27.273,22.292-21.384,57.868c2.198,13.287,7.703,24.037,14.727,28.756c4.19,2.816,8.899,3.616,14.396,2.438       C210.812,159.949,233.67,155.23,257,155.23c24.531,0,48.311,4.815,70.693,14.313c5.878,1.739,10.94,1.311,15.47-1.307       c6.638-3.833,11.989-12.538,14.682-23.881l0,0c8.755-36.924-6.666-53.389-11.601-57.556       c-7.914-6.688-19.026-11.207-33.029-13.433C295.959,70.611,277.911,69.25,258.438,69.25z M362.71,145.51h0.01H362.71z" fill="#3F456B"/></g></g><g><g><path d="M186.545,179.881c-2.286,0-4.349-1.577-4.873-3.9c-0.607-2.694,1.083-5.37,3.777-5.978       c0.626-0.142,1.24-0.303,1.824-0.479c2.639-0.798,5.434,0.695,6.233,3.339c0.799,2.644-0.696,5.435-3.339,6.233       c-0.812,0.245-1.658,0.468-2.517,0.661C187.28,179.841,186.91,179.881,186.545,179.881z" fill="#3F456B"/></g></g><g><g><path d="M108.025,247.591c-0.95,0-1.91-0.271-2.761-0.835c-2.3-1.527-2.927-4.631-1.4-6.932       c0.654-0.985,1.234-1.96,1.723-2.897c1.278-2.447,4.297-3.398,6.747-2.119c2.448,1.278,3.396,4.299,2.119,6.746       c-0.651,1.247-1.41,2.526-2.257,3.802C111.233,246.806,109.644,247.591,108.025,247.591z" fill="#3F456B"/></g></g><g><g><path d="M406.875,247.591c-1.614,0-3.198-0.78-4.162-2.224c-0.371-0.556-0.729-1.113-1.065-1.682       c-1.406-2.377-0.619-5.443,1.757-6.85s5.443-0.619,6.849,1.758c0.244,0.412,0.505,0.815,0.774,1.219       c1.534,2.296,0.916,5.401-1.38,6.935C408.794,247.317,407.829,247.591,406.875,247.591z" fill="#3F456B"/></g></g></g></g><g><g><path d="M95.018,129.992c-1.844,0-3.619-1.02-4.49-2.781c-1.22-2.468-0.226-5.452,2.236-6.683     c0.691-0.347,17.391-8.491,56.98-10.521c2.738-0.151,5.107,1.979,5.25,4.737c0.141,2.758-1.98,5.107-4.738,5.249     c-37.144,1.905-52.885,9.413-53.04,9.489C96.508,129.828,95.757,129.992,95.018,129.992z" fill="#3F456B"/></g></g><g><g><path d="M100.22,165.769c-2.209,0-4.229-1.474-4.827-3.709c-0.713-2.668,0.871-5.408,3.538-6.122     c1.354-0.362,33.392-8.895,53.229-10.912c2.753-0.275,5.201,1.722,5.48,4.469c0.28,2.747-1.721,5.201-4.468,5.48     c-19.036,1.936-51.333,10.536-51.657,10.623C101.083,165.714,100.647,165.769,100.22,165.769z" fill="#3F456B"/></g></g><g><g><path d="M419.951,130.001c-0.746,0-1.502-0.167-2.215-0.521c-0.277-0.134-16.041-7.59-53.037-9.487     c-2.758-0.142-4.879-2.491-4.738-5.249c0.142-2.758,2.502-4.889,5.25-4.737c39.589,2.03,56.289,10.175,56.98,10.521     c2.47,1.234,3.471,4.238,2.236,6.708C423.551,128.988,421.785,130.001,419.951,130.001z" fill="#3F456B"/></g></g><g><g><path d="M414.735,165.769c-0.428,0-0.862-0.055-1.295-0.171c-0.324-0.087-32.621-8.688-51.657-10.623     c-2.747-0.279-4.748-2.733-4.468-5.48c0.279-2.747,2.732-4.744,5.48-4.469c19.837,2.018,51.875,10.55,53.229,10.912     c2.667,0.714,4.251,3.454,3.538,6.122C418.964,164.294,416.943,165.769,414.735,165.769z" fill="#3F456B"/></g></g><g><g><g><path d="M248.658,371.848h-40.864c-2.046,0-3.885-1.246-4.644-3.146c-0.759-1.899-0.283-4.07,1.2-5.479      c1.092-1.037,26.816-25.468,33.286-31.257c4.988-4.462,5.212-9.684,5.212-9.734c0-0.159,0.008-0.317,0.023-0.476l0,0      c-0.001,0,0.278-4.366-2.657-7.523c-2.421-2.604-6.522-3.925-12.19-3.925c-5.392,0-9.402,1.341-11.921,3.985      c-3.54,3.717-3.319,9.135-3.316,9.189c0.134,2.741-1.967,5.1-4.707,5.257c-2.744,0.169-5.093-1.902-5.274-4.642      c-0.064-0.979-0.444-9.76,5.938-16.576c4.482-4.787,10.969-7.214,19.281-7.214c8.658,0,15.272,2.447,19.659,7.273      c5.513,6.064,5.268,13.485,5.158,14.949c-0.073,1.696-0.829,9.993-8.536,16.889c-3.943,3.528-15.607,14.522-23.964,22.429      h28.318c2.761,0,5,2.238,5,5S251.419,371.848,248.658,371.848z" fill="#3F456B"/></g></g><g><g><path d="M290.755,373.441c-20.369,0-25.751-16.845-25.751-25.751v-20.752c0-0.651,0.087-6.544,3.122-12.612      c2.998-5.994,9.356-13.14,22.63-13.14c20.37,0,25.752,16.845,25.752,25.752v20.752      C316.507,356.597,311.125,373.441,290.755,373.441z M290.755,311.187c-6.648,0-11.125,2.49-13.686,7.612      c-2.01,4.02-2.066,8.1-2.066,8.14v20.752c0,0.017,0.072,4.323,2.197,8.396c2.583,4.949,7.017,7.355,13.555,7.355      c6.538,0,10.972-2.406,13.555-7.355c2.092-4.009,2.194-8.245,2.197-8.417v-20.73c0-0.017-0.072-4.323-2.197-8.396      C301.727,313.593,297.293,311.187,290.755,311.187z M311.507,347.69h0.01H311.507z" fill="#3F456B"/></g></g></g><g><g><path d="M57.995,369.001c-2.326,0-4.409-1.632-4.893-3.999c-9.214-45.044,5.685-79.572,6.324-81.021     c1.115-2.526,4.068-3.671,6.593-2.556c2.524,1.113,3.669,4.061,2.559,6.586l0,0c-0.143,0.327-14.226,33.2-5.679,74.986     c0.554,2.705-1.191,5.347-3.896,5.9C58.664,368.968,58.327,369.001,57.995,369.001z" fill="#3F456B"/></g></g><g><g><g><path d="M442.597,405.055c3.575,0,6.473,2.896,6.473,6.473c0,3.574-2.897,6.472-6.473,6.472      c-3.574,0-6.473-2.898-6.473-6.472C436.124,407.952,439.023,405.055,442.597,405.055z" fill="#3F456B"/></g></g></g><g><g><path d="M449,396.69c-0.674,0-1.359-0.137-2.016-0.427c-2.524-1.113-3.669-4.061-2.559-6.586l0,0     c0.143-0.327,14.226-33.2,5.679-74.986c-0.554-2.705,1.191-5.347,3.896-5.9c2.703-0.556,5.348,1.191,5.9,3.896     c9.214,45.044-5.685,79.572-6.324,81.021C452.752,395.578,450.921,396.69,449,396.69z" fill="#3F456B"/></g></g></g><g id="Outline"><g><g><g><path d="M255.921,106.729c-2.747,0-4.982-2.218-5-4.969l-0.086-13.54c-0.018-2.761,2.207-5.014,4.968-5.031      c0.011,0,0.021,0,0.032,0c2.747,0,4.982,2.218,5,4.968l0.086,13.541c0.018,2.761-2.207,5.014-4.968,5.031      C255.943,106.729,255.932,106.729,255.921,106.729z" fill="#3F456B"/></g></g><g><g><path d="M297.428,147.197c-2.743,0-4.978-2.213-4.999-4.961c-0.021-2.762,2.2-5.018,4.961-5.039l13-0.101      c0.013,0,0.026,0,0.04,0c2.743,0,4.978,2.213,4.999,4.961c0.021,2.762-2.2,5.018-4.961,5.039l-13,0.101      C297.454,147.197,297.441,147.197,297.428,147.197z" fill="#3F456B"/></g></g><g><g><path d="M291.665,126.747c-1.717,0-3.389-0.886-4.319-2.474c-1.396-2.383-0.595-5.446,1.787-6.842l11.534-6.756      c2.383-1.396,5.446-0.595,6.842,1.787c1.396,2.383,0.595,5.446-1.787,6.842l-11.534,6.756      C293.393,126.525,292.523,126.747,291.665,126.747z" fill="#3F456B"/></g></g><g><g><path d="M276.626,112.046c-0.838,0-1.688-0.211-2.468-0.655c-2.4-1.365-3.239-4.418-1.873-6.818l6.661-11.708      c1.366-2.4,4.418-3.238,6.818-1.873c2.4,1.365,3.239,4.418,1.873,6.818l-6.661,11.708      C280.055,111.137,278.365,112.046,276.626,112.046z" fill="#3F456B"/></g></g><g><g><path d="M256.003,105.407c-2.742,0-4.977-2.212-4.999-4.959l-0.099-12.218c-0.022-2.762,2.198-5.019,4.959-5.041      c2.734-0.016,5.018,2.198,5.041,4.959l0.099,12.218c0.022,2.762-2.198,5.019-4.959,5.041      C256.031,105.407,256.017,105.407,256.003,105.407z" fill="#3F456B"/></g></g><g><g><path d="M234.843,110.963c-1.717,0-3.389-0.885-4.319-2.474l-6.299-10.753c-1.396-2.383-0.596-5.446,1.787-6.842      c2.384-1.396,5.445-0.596,6.842,1.787l6.299,10.753c1.396,2.383,0.596,5.446-1.787,6.842      C236.571,110.741,235.702,110.963,234.843,110.963z" fill="#3F456B"/></g></g><g><g><path d="M220.132,126.512c-0.838,0-1.688-0.211-2.468-0.655l-11.249-6.4c-2.4-1.365-3.239-4.418-1.873-6.818      c1.365-2.4,4.418-3.238,6.818-1.873l11.249,6.4c2.4,1.365,3.239,4.418,1.873,6.818      C223.561,125.603,221.871,126.512,220.132,126.512z" fill="#3F456B"/></g></g><g><g><path d="M201.993,147.038c-2.743,0-4.978-2.213-4.999-4.961c-0.021-2.762,2.2-5.018,4.961-5.039l13-0.101      c0.013,0,0.026,0,0.04,0c2.743,0,4.978,2.213,4.999,4.961c0.021,2.762-2.2,5.018-4.961,5.039l-13,0.101      C202.019,147.038,202.006,147.038,201.993,147.038z" fill="#3F456B"/></g></g><g><g><path d="M466.466,202.837c-1.28,0-2.559-0.488-3.536-1.465c-1.953-1.952-1.953-5.118,0-7.07l8.017-8.017      c1.954-1.953,5.119-1.952,7.071,0s1.953,5.118,0,7.07l-8.017,8.017C469.025,202.349,467.745,202.837,466.466,202.837z" fill="#3F456B"/></g></g><g><g><path d="M439.103,230.18c-1.28,0-2.559-0.488-3.536-1.465c-1.953-1.952-1.953-5.118,0-7.07l8.017-8.017      c1.954-1.953,5.119-1.952,7.071,0c1.953,1.952,1.953,5.118,0,7.07l-8.017,8.017C441.662,229.691,440.382,230.18,439.103,230.18z      " fill="#3F456B"/></g></g><g><g><path d="M474.473,230.19c-1.28,0-2.559-0.488-3.536-1.465l-8.018-8.018c-1.953-1.952-1.953-5.118,0-7.07      c1.953-1.953,5.118-1.953,7.071,0l8.018,8.018c1.953,1.952,1.953,5.118,0,7.07C477.032,229.702,475.753,230.19,474.473,230.19z" fill="#3F456B"/></g></g><g><g><path d="M447.13,202.827c-1.28,0-2.559-0.488-3.536-1.465l-8.017-8.018c-1.953-1.952-1.953-5.118,0-7.07      c1.954-1.953,5.119-1.952,7.071,0l8.017,8.018c1.953,1.952,1.953,5.118,0,7.07C449.689,202.339,448.41,202.827,447.13,202.827z" fill="#3F456B"/></g></g><g><g><path d="M80.466,452.837c-1.28,0-2.559-0.488-3.536-1.465c-1.953-1.952-1.953-5.118,0-7.07l8.017-8.017      c1.954-1.953,5.119-1.952,7.071,0c1.953,1.952,1.953,5.118,0,7.07l-8.017,8.017C83.025,452.349,81.745,452.837,80.466,452.837z" fill="#3F456B"/></g></g><g><g><path d="M53.103,480.18c-1.28,0-2.559-0.488-3.536-1.465c-1.953-1.952-1.953-5.118,0-7.07l8.017-8.017      c1.954-1.953,5.119-1.952,7.071,0c1.953,1.952,1.953,5.118,0,7.07l-8.017,8.017C55.662,479.691,54.382,480.18,53.103,480.18z" fill="#3F456B"/></g></g><g><g><path d="M88.473,480.19c-1.28,0-2.559-0.488-3.536-1.465l-8.018-8.018c-1.953-1.952-1.953-5.118,0-7.07      c1.953-1.953,5.118-1.953,7.071,0l8.018,8.018c1.953,1.952,1.953,5.118,0,7.07C91.032,479.702,89.753,480.19,88.473,480.19z" fill="#3F456B"/></g></g><g><g><path d="M61.13,452.827c-1.28,0-2.559-0.488-3.536-1.465l-8.017-8.018c-1.953-1.952-1.953-5.118,0-7.07      c1.954-1.953,5.119-1.952,7.071,0l8.017,8.018c1.953,1.952,1.953,5.118,0,7.07C63.689,452.339,62.41,452.827,61.13,452.827z" fill="#3F456B"/></g></g></g></g></svg>