<?xml version="1.0" ?><svg viewBox="0 0 512 512" xmlns="http://www.w3.org/2000/svg"><defs><style>.cls-1{fill:#3f456b;}</style></defs><title/><g id="Lines"><path class="cls-1" d="M73,472.33a34.84,34.84,0,1,1,34.85-34.84A34.88,34.88,0,0,1,73,472.33Zm0-59.68A24.84,24.84,0,1,0,97.8,437.49,24.86,24.86,0,0,0,73,412.65Z"/><path class="cls-1" d="M154.94,472.33a34.84,34.84,0,1,1,34.84-34.84A34.88,34.88,0,0,1,154.94,472.33Zm0-59.68a24.84,24.84,0,1,0,24.84,24.84A24.86,24.86,0,0,0,154.94,412.65Z"/><path class="cls-1" d="M237.15,472.33A34.84,34.84,0,1,1,272,437.49,34.88,34.88,0,0,1,237.15,472.33Zm0-59.68A24.84,24.84,0,1,0,262,437.49,24.87,24.87,0,0,0,237.15,412.65Z"/><path class="cls-1" d="M318.91,472.33a34.84,34.84,0,1,1,34.85-34.84A34.88,34.88,0,0,1,318.91,472.33Zm0-59.68a24.84,24.84,0,1,0,24.85,24.84A24.86,24.86,0,0,0,318.91,412.65Z"/><path class="cls-1" d="M70.27,496.32h0a59.1,59.1,0,0,1,0-118.2H321.55a59.08,59.08,0,0,1,0,118.16Zm0-108.2a49.1,49.1,0,0,0,0,98.2l251.28,0a49.08,49.08,0,0,0,0-98.16Z"/><path class="cls-1" d="M73,442.22a5,5,0,0,1-5-5v-1a5,5,0,0,1,10,0v1A5,5,0,0,1,73,442.22Z"/><path class="cls-1" d="M154.94,442.22a5,5,0,0,1-5-5v-1a5,5,0,0,1,10,0v1A5,5,0,0,1,154.94,442.22Z"/><path class="cls-1" d="M237.16,442.22a5,5,0,0,1-5-5v-1a5,5,0,0,1,10,0v1A5,5,0,0,1,237.16,442.22Z"/><path class="cls-1" d="M319.14,442.22a5,5,0,0,1-5-5v-1a5,5,0,0,1,10,0v1A5,5,0,0,1,319.14,442.22Z"/><path class="cls-1" d="M339.23,333.62H37.2A25.55,25.55,0,0,1,12,304.25L38.68,128h0a25.38,25.38,0,0,1,25.24-21.71H176.16a25.57,25.57,0,0,1,25.54,25.54v58H322.38a25.52,25.52,0,0,1,25.12,21l16.85,92.64a25.55,25.55,0,0,1-25.12,30.11ZM48.56,129.54,21.84,305.75A15.54,15.54,0,0,0,37.2,323.62h302a15.53,15.53,0,0,0,15.28-18.32l-16.85-92.64a15.53,15.53,0,0,0-15.28-12.76H196.7a5,5,0,0,1-5-5v-63a15.56,15.56,0,0,0-15.54-15.54H63.92a15.47,15.47,0,0,0-15.36,13.21Z"/><path class="cls-1" d="M303.42,356.5H73.6a15.46,15.46,0,0,1-15.44-15.45V328.79a5,5,0,0,1,10,0v12.26a5.45,5.45,0,0,0,5.44,5.45H303.42a5.46,5.46,0,0,0,5.45-5.45V328.79a5,5,0,0,1,10,0v12.26A15.47,15.47,0,0,1,303.42,356.5Z"/><path class="cls-1" d="M116.33,388.11a5,5,0,0,1-5-5V351.5a5,5,0,0,1,10,0v31.61A5,5,0,0,1,116.33,388.11Z"/><path class="cls-1" d="M260.5,388.11a5,5,0,0,1-5-5V351.5a5,5,0,0,1,10,0v31.61A5,5,0,0,1,260.5,388.11Z"/><path class="cls-1" d="M220.33,199.9H33.7a5,5,0,0,1,0-10H220.33a5,5,0,0,1,0,10Z"/><path class="cls-1" d="M349.57,255.23a5,5,0,0,1-2.81-.87,5,5,0,0,1-1.31-7L470.6,64.06l.09-.14A18.4,18.4,0,0,0,443.6,39.49l0,0h0a16.83,16.83,0,0,0-1.37,1.3L442,41,275.94,198.53a5,5,0,1,1-6.88-7.25L435,33.83a27.43,27.43,0,0,1,2-1.89l.08-.07h0A28.4,28.4,0,0,1,479,69.46l-.08.12L353.71,253.05A5,5,0,0,1,349.57,255.23Z"/><path class="cls-1" d="M455.51,241.61a5,5,0,0,1-5-5V95.5a5,5,0,0,1,10,0V236.61A5,5,0,0,1,455.51,241.61Z"/><path class="cls-1" d="M455.51,356.5a25.79,25.79,0,0,1-25.76-25.76,5,5,0,0,1,10,0A15.76,15.76,0,1,0,455.51,315a5,5,0,0,1-5-5V289.43a5,5,0,0,1,10,0v16a25.76,25.76,0,0,1-5,51Z"/><path class="cls-1" d="M455.51,294.43a5,5,0,0,1-2.52-.69l-41-24a5,5,0,0,1-1.87-6.7l15.66-28.82a5,5,0,0,1,4.39-2.61h50.66a5,5,0,0,1,4.4,2.61L500.89,263a5,5,0,0,1-1.86,6.7l-41,24A5,5,0,0,1,455.51,294.43Zm-34.28-30.87,34.28,20.07,34.28-20.07-11.92-21.95H433.16Z"/><path class="cls-1" d="M457.51,263.7h-3a5,5,0,0,1,0-10h3a5,5,0,0,1,0,10Z"/><path class="cls-1" d="M215.62,199.9a5,5,0,0,1-2.63-9.25l67.3-41.45a5,5,0,0,0,1.63-6.88l-3.11-5a5,5,0,0,0-6.88-1.63l-72.2,44.47a5,5,0,1,1-5.24-8.51l72.2-44.48a15,15,0,0,1,20.64,4.9l3.1,5a15,15,0,0,1-4.9,20.64l-67.29,41.45A5,5,0,0,1,215.62,199.9Z"/><path class="cls-1" d="M284.53,142a5,5,0,0,1-2.7-9.22L431.58,37.24A5,5,0,0,1,437,45.67L287.21,141.22A5,5,0,0,1,284.53,142Z"/><path class="cls-1" d="M119.33,199.9a5,5,0,0,1-5-5V111.33a5,5,0,0,1,10,0V194.9A5,5,0,0,1,119.33,199.9Z"/><path class="cls-1" d="M148.18,304.8H60.57c-9.54,0-17.31-8.94-17.31-19.93v-.39c0-10.85,7.77-19.68,17.31-19.68h87.61c9.55,0,17.32,8.83,17.32,19.68v.39C165.5,295.86,157.73,304.8,148.18,304.8Zm-87.61-30c-4,0-7.31,4.34-7.31,9.68v.39c0,5.38,3.35,9.93,7.31,9.93h87.61c4,0,7.32-4.55,7.32-9.93v-.39c0-5.34-3.28-9.68-7.32-9.68Z"/><path class="cls-1" d="M168.23,116.33a5,5,0,0,1-5-5V96.41a15,15,0,0,0-15-15h-56a15,15,0,0,0-15,15v13.35a5,5,0,0,1-10,0V96.41a25,25,0,0,1,25-25h56a25,25,0,0,1,25,25v14.92A5,5,0,0,1,168.23,116.33Z"/></g><g id="Outline"><path class="cls-1" d="M313.87,231.09H192.5a5,5,0,0,1,0-10H313.87a5,5,0,0,1,0,10Z"/><path class="cls-1" d="M313.87,303.91H192.5a5,5,0,0,1,0-10H313.87a5,5,0,0,1,0,10Z"/><path class="cls-1" d="M313.87,279.64H192.5a5,5,0,0,1,0-10H313.87a5,5,0,0,1,0,10Z"/><path class="cls-1" d="M313.87,255.36H192.5a5,5,0,0,1,0-10H313.87a5,5,0,0,1,0,10Z"/><path class="cls-1" d="M153.08,231.09h-3a5,5,0,0,1,0-10h3a5,5,0,0,1,0,10Zm-23,0h-3a5,5,0,0,1,0-10h3a5,5,0,0,1,0,10Zm-23,0h-3a5,5,0,0,1,0-10h3a5,5,0,1,1,0,10Zm-23,0h-3a5,5,0,0,1,0-10h3a5,5,0,1,1,0,10Z"/></g></svg>