<?xml version="1.0" ?><svg viewBox="0 0 512 512" xmlns="http://www.w3.org/2000/svg"><defs><style>.cls-1{fill:#3f456b;}</style></defs><title/><g id="Lines"><path class="cls-1" d="M338.73,435.54a25.75,25.75,0,0,1-9.21-1.66A23.27,23.27,0,0,1,319.8,427a5,5,0,0,1,7.92-6.12c.72.89,6.42,7.3,18,3.4a29.55,29.55,0,0,1-6.27-9.7,19.56,19.56,0,0,1,.43-15.13,15.06,15.06,0,0,1,9.07-8.08c8.88-2.85,17.18.65,20.64,8.71a21.15,21.15,0,0,1-.1,16.09,25.73,25.73,0,0,1-3.71,6.41c.34,0,.69,0,1.05,0,5.81-.38,11.62-2.57,17.78-4.89,10.23-3.85,20.81-7.84,32.69-4a33.56,33.56,0,0,1,13.93,9.51,5,5,0,1,1-7.52,6.58,23.91,23.91,0,0,0-9.5-6.58c-8.54-2.76-17.06.44-26.08,3.84-6.57,2.48-13.36,5-20.66,5.51a28.12,28.12,0,0,1-11.79-1.73C349.14,434.35,343.44,435.54,338.73,435.54ZM355,400.41a9.93,9.93,0,0,0-3,.52,5,5,0,0,0-3.06,2.83,9.51,9.51,0,0,0-.2,7.15,19,19,0,0,0,6.37,8.37c5.69-4.75,7.12-11,5.31-15.21A5.58,5.58,0,0,0,355,400.41Z"/><path class="cls-1" d="M127.22,69.88h-.11a5,5,0,0,1-4.89-5.11c0-.28,1-27.77,30.93-27.77,24.07,0,30.43,18.23,30.43,27.88a5,5,0,0,1-10,0,21.34,21.34,0,0,0-2.72-9.3c-3.3-5.7-9.26-8.58-17.71-8.58-8.63,0-14.74,3-18.17,8.94a21.58,21.58,0,0,0-2.76,9A5,5,0,0,1,127.22,69.88Z"/><path class="cls-1" d="M444.5,488.5H37.5a25,25,0,0,1-25-25v-91a25,25,0,0,1,25-25h229c6.37,0,11-1.62,13.79-4.82,4.27-4.91,3.27-12.38,3.26-12.46a5.81,5.81,0,0,1-.05-.72V210c0-8.13-2.29-14.52-6.82-19-7.62-7.5-19.43-7.51-19.6-7.53H193.61c-1.83,0-20.35.42-28.08,17-4.66,10-25.34,56.46-25.71,57.29h0c-.38.87-9.55,21.13-27.15,21.73H37.5a25,25,0,0,1-25-25V86.5a25,25,0,0,1,25-25h407a25,25,0,0,1,25,25v377A25,25,0,0,1,444.5,488.5Zm-407-131a15,15,0,0,0-15,15v91a15,15,0,0,0,15,15h407a15,15,0,0,0,15-15V86.5a15,15,0,0,0-15-15H37.5a15,15,0,0,0-15,15v168a15,15,0,0,0,15,15h74.91c11.17-.45,18.2-15.62,18.27-15.77h0c.86-1.93,21.07-47.34,25.79-57.47,10.59-22.71,35.62-22.78,37.41-22.75H257c.58,0,16-.13,26.69,10.4,6.51,6.41,9.81,15.19,9.81,26.1V329.19c.25,2.26,1,12.35-5.59,20-4.76,5.54-12,8.35-21.41,8.35Z"/><path class="cls-1" d="M485.5,247.5h-21a5,5,0,0,1,0-10h21a5,5,0,0,0,5-5v-93a5,5,0,0,0-5-5h-21a5,5,0,0,1,0-10h21a15,15,0,0,1,15,15v93A15,15,0,0,1,485.5,247.5Z"/><path class="cls-1" d="M81.5,333.5a5,5,0,0,1-5-5v-54a5,5,0,0,1,10,0v54A5,5,0,0,1,81.5,333.5Z"/><path class="cls-1" d="M427.5,71.5a5,5,0,0,1-5-5v-32a5,5,0,0,1,10,0v32A5,5,0,0,1,427.5,71.5Z"/><path class="cls-1" d="M98.5,302.5h-34a5,5,0,0,1,0-10h34a5,5,0,0,1,0,10Z"/><path class="cls-1" d="M376.91,182.6a41.31,41.31,0,1,1,41.3-41.31A41.35,41.35,0,0,1,376.91,182.6Zm0-72.62a31.31,31.31,0,1,0,31.3,31.31A31.34,31.34,0,0,0,376.91,110Z"/><path class="cls-1" d="M376.91,318.6a41.31,41.31,0,1,1,41.3-41.31A41.35,41.35,0,0,1,376.91,318.6Zm0-72.62a31.31,31.31,0,1,0,31.3,31.31A31.34,31.34,0,0,0,376.91,246Z"/><path class="cls-1" d="M364.64,267.28a5,5,0,0,1-4-2l-9.9-13.18a5,5,0,1,1,8-6l9.9,13.18a5,5,0,0,1-1,7A4.94,4.94,0,0,1,364.64,267.28Z"/><path class="cls-1" d="M216.5,488.5a5,5,0,0,1-5-5v-130a5,5,0,0,1,10,0v130A5,5,0,0,1,216.5,488.5Z"/><path class="cls-1" d="M389.5,71.5a5,5,0,0,1-5-5v-41a5,5,0,0,0-5-5h-8a5,5,0,0,0-5,5v41a5,5,0,0,1-10,0v-41a15,15,0,0,1,15-15h8a15,15,0,0,1,15,15v41A5,5,0,0,1,389.5,71.5Z"/><path class="cls-1" d="M267.5,147.5h-84a5,5,0,0,1-5-5v-39a5,5,0,0,1,5-5h84a5,5,0,0,1,5,5v39A5,5,0,0,1,267.5,147.5Zm-79-10h74v-29h-74Z"/></g><g id="Outline"><path class="cls-1" d="M76.5,249a5,5,0,0,1,5-5h0a5,5,0,0,1,5,5h0a5,5,0,0,1-5,5h0A5,5,0,0,1,76.5,249Zm0-20a5,5,0,0,1,5-5h0a5,5,0,0,1,5,5h0a5,5,0,0,1-5,5h0A5,5,0,0,1,76.5,229Zm0-20a5,5,0,0,1,5-5h0a5,5,0,0,1,5,5h0a5,5,0,0,1-5,5h0A5,5,0,0,1,76.5,209Zm0-20a5,5,0,0,1,5-5h0a5,5,0,0,1,5,5h0a5,5,0,0,1-5,5h0A5,5,0,0,1,76.5,189Zm0-20a5,5,0,0,1,5-5h0a5,5,0,0,1,5,5h0a5,5,0,0,1-5,5h0A5,5,0,0,1,76.5,169Zm0-20a5,5,0,0,1,5-5h0a5,5,0,0,1,5,5h0a5,5,0,0,1-5,5h0A5,5,0,0,1,76.5,149Zm0-20a5,5,0,0,1,5-5h0a5,5,0,0,1,5,5h0a5,5,0,0,1-5,5h0A5,5,0,0,1,76.5,129Zm0-20a5,5,0,0,1,5-5h0a5,5,0,0,1,5,5h0a5,5,0,0,1-5,5h0A5,5,0,0,1,76.5,109Zm0-20a5,5,0,0,1,5-5h0a5,5,0,0,1,5,5h0a5,5,0,0,1-5,5h0A5,5,0,0,1,76.5,89Z"/><path class="cls-1" d="M417.25,322.63a5,5,0,0,1-3.53-8.53,50.64,50.64,0,1,0-71.62,0,5,5,0,0,1-7.07,7.07A60.64,60.64,0,0,1,377.9,217.65h0a60.65,60.65,0,0,1,42.89,103.52A5,5,0,0,1,417.25,322.63Z"/><path class="cls-1" d="M119.5,399.5a5,5,0,0,1-5-5v-24a5,5,0,0,1,10,0v24A5,5,0,0,1,119.5,399.5Z"/><path class="cls-1" d="M44.5,399.5a5,5,0,0,1-5-5v-24a5,5,0,0,1,10,0v24A5,5,0,0,1,44.5,399.5Z"/><path class="cls-1" d="M69.5,391.5a5,5,0,0,1-5-5v-16a5,5,0,0,1,10,0v16A5,5,0,0,1,69.5,391.5Z"/><path class="cls-1" d="M94.5,391.5a5,5,0,0,1-5-5v-16a5,5,0,0,1,10,0v16A5,5,0,0,1,94.5,391.5Z"/><path class="cls-1" d="M193.5,399.5a5,5,0,0,1-5-5v-24a5,5,0,0,1,10,0v24A5,5,0,0,1,193.5,399.5Z"/><path class="cls-1" d="M144.5,391.5a5,5,0,0,1-5-5v-16a5,5,0,0,1,10,0v16A5,5,0,0,1,144.5,391.5Z"/><path class="cls-1" d="M169.5,391.5a5,5,0,0,1-5-5v-16a5,5,0,0,1,10,0v16A5,5,0,0,1,169.5,391.5Z"/></g></svg>