<?xml version="1.0" ?><svg viewBox="0 0 512 512" xmlns="http://www.w3.org/2000/svg"><defs><style>.cls-1{fill:#3f456b;}</style></defs><title/><g id="Lines"><path class="cls-1" d="M480,452H33c-6.73,0-12-2-15.8-6-5.29-5.64-5.27-13-5.2-14.51V375c0-33.28,6.86-65.88,12.91-94.63a413,413,0,0,0,8-59.65l5,.3-5-.3C35,187.28,33,153.47,27.09,123A5,5,0,0,1,32.32,117c77.54,4.91,126.39-2.87,126.87-2.94A4.43,4.43,0,0,1,160,114h10c8,0,14.5,2.51,19.25,7.46,7.53,7.85,7.78,19.19,7.75,21.39,3.83,46.59,17.78,86.07,41.47,117.33,19,25,44.18,44.92,75,59.16C366.19,343.7,417.39,343,417.9,343c1.62,0,40.65-.76,64.8,22.78C494.83,377.6,501,393.36,501,412.63v19.24A20.16,20.16,0,0,1,495.92,446C492.17,450,486.82,452,480,452ZM38.07,127.37a404.29,404.29,0,0,1,4.83,94,424.36,424.36,0,0,1-8.19,61.09C28.46,312.09,22,342.76,22,375v56.59c0,.11,0,.21,0,.32s-.17,4.42,2.56,7.27C26.33,441.05,29.18,442,33,442H480c3.9,0,6.78-.95,8.56-2.82,2.6-2.72,2.43-6.85,2.43-6.89a2.81,2.81,0,0,1,0-.29V412.63c0-16.47-5.13-29.82-15.26-39.69C454.56,352.31,418.48,353,418.13,353c-2.22,0-54.06.73-108.85-24.59-32.32-14.93-58.83-35.86-78.78-62.19C205.6,233.36,191,192,187,143.41c0-.21,0-.41,0-.62s.24-9-5-14.45c-2.82-2.92-6.74-4.34-12-4.34h-9.6C155.33,124.79,110.12,131.4,38.07,127.37Z"/><path class="cls-1" d="M494.79,405H18a5,5,0,0,1,0-10H494.79a5,5,0,0,1,0,10Z"/><path class="cls-1" d="M453,359a5,5,0,0,1-2.13-9.52c15-7,23.1-21.6,27.3-32.57,6.05-15.82,5.83-30.78-.65-44.47-14.31-30.18-54.12-46.12-70.58-51.58-11-3.66-23.24-6.38-36.15-9.25-34-7.58-69.19-15.42-90.91-41.8-8.8-10.7-15-22.93-21.06-34.76-2.88-5.65-5.85-11.48-9-17a127.75,127.75,0,0,0-33.87-38.33c-28.71-21.65-64.87-32-96.74-27.68C90.53,55.94,61.53,79.35,61.34,122.9a5,5,0,0,1-5,5h0a5,5,0,0,1-5-5C51.42,103.51,57.41,85,68.2,70.7c12-15.91,29.18-25.78,49.63-28.55,34.43-4.67,73.34,6.4,104.11,29.61a137.75,137.75,0,0,1,36.51,41.3c3.31,5.73,6.35,11.69,9.28,17.45,6,11.87,11.76,23.09,19.87,32.94,19.53,23.73,53,31.19,85.36,38.4,13.17,2.93,25.61,5.7,37.13,9.52,17.67,5.86,60.51,23.12,76.46,56.79,7.7,16.25,8,33.85,1,52.32-4.86,12.69-14.42,29.59-32.38,38A4.9,4.9,0,0,1,453,359Z"/><path class="cls-1" d="M387,405a5,5,0,0,1-5-5c0-51.77,16.54-56.53,19.86-57l1.28,9.92a1.46,1.46,0,0,0,.4-.08s-2.69.91-5.48,6.83S392,377.32,392,400A5,5,0,0,1,387,405Z"/><path class="cls-1" d="M399,405c-59.45,0-110.64-14.92-152.14-44.36-33.21-23.55-60.24-56.33-80.35-97.44C132.43,193.53,130.08,125,130,122.14a5,5,0,0,1,4.85-5.14H135a5,5,0,0,1,5,4.85c0,.69,2.4,69.49,35.63,137.24,19.39,39.52,45.35,71,77.16,93.5C292.54,380.73,341.74,395,399,395a5,5,0,0,1,0,10Z"/><path class="cls-1" d="M169,157h-3a5,5,0,0,1,0-10h3a5,5,0,0,1,0,10Z"/><path class="cls-1" d="M162,379h-3a5,5,0,0,1,0-10h3a5,5,0,0,1,0,10Z"/><path class="cls-1" d="M202,379h-3a5,5,0,0,1,0-10h3a5,5,0,0,1,0,10Z"/><path class="cls-1" d="M352.5,207.26a5,5,0,0,1-4.26-2.38c-31.22-50.68-88.54-72-89.12-72.18a5,5,0,1,1,3.42-9.4c2.48.9,61.18,22.72,94.22,76.33a5,5,0,0,1-1.64,6.88A4.9,4.9,0,0,1,352.5,207.26Z"/><path class="cls-1" d="M275.32,307.44a4.93,4.93,0,0,1-1.55-.25,5,5,0,0,1-3.2-6.3c8.45-25.85,24.2-64.77,29.6-78-43-19.19-59.18-45.37-78.6-82.6-22.22-42.58-62-52.06-63.56-52.41-22.53-4.17-39.56-1.62-50.62,7.56-13.24,11-13.4,28-13.4,28.16a5,5,0,0,1-5,5h0a5,5,0,0,1-5-5c0-.89.2-21.87,17-35.85,13.46-11.19,33.28-14.44,58.91-9.69l.11,0c1.85.38,45.6,10,70.41,57.58,19.66,37.67,34.73,61.86,78.16,80a5,5,0,0,1,2.69,6.54c-.21.5-21.06,50.8-31.21,81.81A5,5,0,0,1,275.32,307.44Z"/><path class="cls-1" d="M386.33,346.46q-3.75,0-7.68-.18a194.69,194.69,0,0,1-31.65-4,5,5,0,0,1-3.72-6.15l25.88-98.44a5,5,0,0,1,5.7-3.66,175.89,175.89,0,0,1,28.51,8.1c20.84,7.87,35.63,18.09,43.95,30.39,7,10.36,9.22,22,6.57,34.48a42.92,42.92,0,0,1-19.54,28.22C422.72,342.7,406.58,346.46,386.33,346.46Zm-32-12.91C368.12,336,406.77,341,429,326.83A32.88,32.88,0,0,0,444.11,305c2.09-9.89.44-18.65-5.06-26.78-14.09-20.85-49-30.47-61.42-33.31Z"/><path class="cls-1" d="M122,404.79a5,5,0,0,1-5-5c0-27.62-8-49.6-23.85-65.31C66.5,308,26.48,308,26,308h0a5,5,0,0,1,0-10c1.82,0,44.65,0,74.24,29.39C118,345,127,369.4,127,399.79A5,5,0,0,1,122,404.79Z"/></g><g id="Outline"><path class="cls-1" d="M358.69,363.46a4.92,4.92,0,0,1-1.2-.14,5,5,0,0,1-3.66-6.05l4-16.09a5,5,0,1,1,9.71,2.38l-4,16.1A5,5,0,0,1,358.69,363.46Z"/><path class="cls-1" d="M324.43,354.1a4.86,4.86,0,0,1-2-.43,5,5,0,0,1-2.55-6.59l7.28-16.42a5,5,0,0,1,9.15,4.06L329,351.13A5,5,0,0,1,324.43,354.1Z"/><path class="cls-1" d="M292.29,340.76a5,5,0,0,1-4.2-7.7l9.7-15.11a5,5,0,1,1,8.41,5.4l-9.7,15.11A5,5,0,0,1,292.29,340.76Z"/><path class="cls-1" d="M263.77,322.19a5,5,0,0,1-3.83-8.22l11.55-13.75a5,5,0,0,1,7.66,6.44L267.6,320.4A5,5,0,0,1,263.77,322.19Z"/><path class="cls-1" d="M239.24,301.62a5,5,0,0,1-3.19-8.86l13.86-11.42a5,5,0,1,1,6.36,7.71l-13.85,11.42A5,5,0,0,1,239.24,301.62Z"/><path class="cls-1" d="M200,250.76a5,5,0,0,1-1.63-9.73l17-5.86a5,5,0,1,1,3.26,9.46l-17,5.85A4.9,4.9,0,0,1,200,250.76Z"/><path class="cls-1" d="M187.08,218.51a5,5,0,0,1-1-9.9L203.66,205a5,5,0,0,1,2,9.79L188.1,218.4A5.05,5.05,0,0,1,187.08,218.51Z"/><path class="cls-1" d="M179.6,186.9a5,5,0,0,1-.51-10l17.85-1.87A5,5,0,1,1,198,185l-17.86,1.87Z"/><path class="cls-1" d="M217.88,278.31a5,5,0,0,1-2.5-9.34l15.55-9a5,5,0,1,1,5,8.66l-15.55,9A5,5,0,0,1,217.88,278.31Z"/><path class="cls-1" d="M107.2,274.81a25.64,25.64,0,0,1-6.8-.91c-5.62-1.52-10.13-5-14.1-8.07-4.8-3.72-9-6.92-14.2-6.53-7.47.57-12,7.69-14,11.88a5,5,0,1,1-9-4.33c5-10.44,13.13-16.82,22.24-17.52s15.45,4.24,21.08,8.59c3.54,2.74,6.89,5.33,10.59,6.33a15.73,15.73,0,0,0,7.87.16c-.44-.41-.86-.83-1.27-1.26-5.5-5.8-7.41-13.13-5.24-20.12,2.46-7.95,7.74-13.09,14.48-14.09a15.17,15.17,0,0,1,14.9,6.63c4.24,6.26,3.81,14.75-1.18,23.28a37.48,37.48,0,0,1-2.76,4.09,44.12,44.12,0,0,0,20.18-.7,5,5,0,1,1,2.44,9.69c-11.18,2.82-22.31,2.27-31.19-1.19A26.7,26.7,0,0,1,107.2,274.81Zm13.88-36a4.85,4.85,0,0,0-.76.05c-2.79.42-5.12,3-6.4,7.16-1.39,4.47.84,8.06,3,10.28a18.41,18.41,0,0,0,3.18,2.66,26.9,26.9,0,0,0,3.89-5.13c3-5.07,3.52-9.68,1.53-12.63A5.3,5.3,0,0,0,121.08,238.78Z"/></g></svg>