<?xml version="1.0" ?><svg viewBox="0 0 512 512" xmlns="http://www.w3.org/2000/svg"><defs><style>.cls-1{fill:#3f456b;}</style></defs><title/><g id="Lines"><path class="cls-1" d="M210.92,233.36h-17.5a5,5,0,1,1,0-10h17.5a13.18,13.18,0,1,0,0-26.36H124.07a13.18,13.18,0,1,0,0,26.36h21.54a5,5,0,0,1,0,10H124.07a23.18,23.18,0,1,1,0-46.36h86.85a23.18,23.18,0,1,1,0,46.36Z"/><path class="cls-1" d="M244,235a5,5,0,0,1-5-5V54.8A25.37,25.37,0,1,1,273.09,54V211.39a5,5,0,0,1-10,0V51.74a5,5,0,0,1,1.94-4,15.37,15.37,0,1,0-18.16.48A5,5,0,0,1,249,52.37V230A5,5,0,0,1,244,235Z"/><path class="cls-1" d="M72.56,501C35.16,501,11,476.44,11,438.43,11,406.22,35.56,374,37.25,371.8L106.85,276c10-14.52,9.7-31.16,9.69-31.32V228.49a5,5,0,0,1,10,0v16c0,1.6.14,20.32-11.48,37.23l-.08.11L45.29,377.74a.71.71,0,0,1-.1.14C45,378.19,21,409.25,21,438.43,21,463.85,34.54,491,72.56,491l190.37-.13c24.93,0,51.57-13.81,51.57-52.57,0-29.18-23.95-60.24-24.2-60.55l-.1-.14-69.69-95.95-.07-.1c-11.63-16.91-11.52-35.64-11.49-37.23v-16a5,5,0,0,1,10,0v16.16c0,.16-.27,16.79,9.69,31.32l69.6,95.83c1.69,2.18,26.26,34.41,26.26,66.63,0,38-24.17,62.57-61.56,62.57Z"/><path class="cls-1" d="M257.38,330.32H79.6a5,5,0,1,1,0-10H257.38a5,5,0,0,1,0,10Z"/><path class="cls-1" d="M208,197a5,5,0,0,1-5-5V169a5,5,0,0,0-5-5H138a5,5,0,0,0-5,5v23a5,5,0,0,1-10,0V169a15,15,0,0,1,15-15h60a15,15,0,0,1,15,15v23A5,5,0,0,1,208,197Z"/><path class="cls-1" d="M387.92,122.36h-17.5a5,5,0,0,1,0-10h17.5a13.18,13.18,0,1,0,0-26.36H301.07a13.18,13.18,0,0,0,0,26.36h21.54a5,5,0,0,1,0,10H301.07a23.18,23.18,0,0,1,0-46.36h86.85a23.18,23.18,0,1,1,0,46.36Z"/><path class="cls-1" d="M139.92,56.36h-17.5a5,5,0,0,1,0-10h17.5a13.18,13.18,0,1,0,0-26.36H53.07a13.18,13.18,0,0,0,0,26.36H74.61a5,5,0,0,1,0,10H53.07a23.18,23.18,0,0,1,0-46.36h86.85a23.18,23.18,0,1,1,0,46.36Z"/><path class="cls-1" d="M385,86a5,5,0,0,1-5-5V58a5,5,0,0,0-5-5H315a5,5,0,0,0-5,5V81a5,5,0,0,1-10,0V58a15,15,0,0,1,15-15h60a15,15,0,0,1,15,15V81A5,5,0,0,1,385,86Z"/><path class="cls-1" d="M440.43,278.43c-8.12,0-16-1.84-24.66-5.68-3.06-1.35-6.08-2.84-9-4.27-6.71-3.3-13-6.42-19.83-8.09-12.94-3.21-25.69,1.17-39.2,5.81-4.28,1.47-8.7,3-13.09,4.22-19.12,5.39-37.94,5.15-54.42-.69-2.31-.82-4.59-1.66-6.87-2.5-19.19-7.06-35.77-13.17-53.54-1a5,5,0,1,1-5.64-8.25c22-15.07,42.67-7.47,62.64-.12,2.23.82,4.48,1.65,6.75,2.45,14.53,5.15,31.25,5.32,48.37.5,4.12-1.16,8.22-2.57,12.56-4.06,14.28-4.9,29-10,44.85-6.06,7.81,1.94,14.94,5.44,21.83,8.82,2.83,1.39,5.76,2.83,8.64,4.11,9.71,4.3,18.14,5.63,27.34,4.33,8-1.14,15.4-4,22.59-6.68l2.49-.94a5,5,0,1,1,3.52,9.36l-2.46.93c-7.34,2.78-15.66,5.94-24.73,7.23A58.22,58.22,0,0,1,440.43,278.43Z"/><path class="cls-1" d="M344.5,500a156.07,156.07,0,0,1-49.36-7.95,5,5,0,1,1,3.15-9.49A146.12,146.12,0,0,0,344.5,490C425.28,490,491,424.28,491,343.5a145,145,0,0,0-31.63-90.93,147.23,147.23,0,0,0-79.48-51.27,5,5,0,0,1-3.8-4.85v-78.3a5,5,0,0,1,10,0v74.44a157.35,157.35,0,0,1,81.12,53.77A154.85,154.85,0,0,1,501,343.5C501,429.79,430.79,500,344.5,500Z"/><path class="cls-1" d="M216.7,267.1a5,5,0,0,1-4.21-7.69,155.85,155.85,0,0,1,90.89-67V118.15a5,5,0,1,1,10,0v78.18a5,5,0,0,1-3.81,4.86,145.93,145.93,0,0,0-88.65,63.6A5,5,0,0,1,216.7,267.1Z"/><path class="cls-1" d="M49,369a5,5,0,0,1-5-5V51a5,5,0,0,1,10,0V364A5,5,0,0,1,49,369Z"/><path class="cls-1" d="M144,164a5,5,0,0,1-5-5V51a5,5,0,0,1,10,0V159A5,5,0,0,1,144,164Z"/><path class="cls-1" d="M116,268.85H50a5,5,0,0,1,0-10h66a5,5,0,0,1,0,10Z"/><path class="cls-1" d="M307.12,180H298a15,15,0,0,1-15-15V147a15,15,0,0,1,15-15h9.12a5,5,0,0,1,0,10H298a5,5,0,0,0-5,5v18a5,5,0,0,0,5,5h9.12a5,5,0,0,1,0,10Z"/><path class="cls-1" d="M454,180H382a5,5,0,0,1,0-10h72a5,5,0,0,0,5-5V147a5,5,0,0,0-5-5H382a5,5,0,0,1,0-10h72a15,15,0,0,1,15,15v18A15,15,0,0,1,454,180Z"/><path class="cls-1" d="M288,161H233a5,5,0,0,1,0-10h55a5,5,0,0,1,0,10Z"/></g><g id="Outline"><path class="cls-1" d="M209,450a17,17,0,1,1,17-17A17,17,0,0,1,209,450Zm0-24a7,7,0,1,0,7,7A7,7,0,0,0,209,426Z"/><path class="cls-1" d="M368,450a17,17,0,1,1,17-17A17,17,0,0,1,368,450Zm0-24a7,7,0,1,0,7,7A7,7,0,0,0,368,426Z"/><path class="cls-1" d="M135,468a17,17,0,1,1,17-17A17,17,0,0,1,135,468Zm0-24a7,7,0,1,0,7,7A7,7,0,0,0,135,444Z"/><path class="cls-1" d="M165,419a17,17,0,1,1,17-17A17,17,0,0,1,165,419Zm0-24a7,7,0,1,0,7,7A7,7,0,0,0,165,395Z"/><path class="cls-1" d="M346,392a17,17,0,1,1,17-17A17,17,0,0,1,346,392Zm0-24a7,7,0,1,0,7,7A7,7,0,0,0,346,368Z"/><path class="cls-1" d="M207,384a22.5,22.5,0,1,1,22.5-22.5A22.52,22.52,0,0,1,207,384Zm0-35a12.5,12.5,0,1,0,12.5,12.5A12.52,12.52,0,0,0,207,349Z"/><path class="cls-1" d="M403.5,336A22.5,22.5,0,1,1,426,313.5,22.52,22.52,0,0,1,403.5,336Zm0-35A12.5,12.5,0,1,0,416,313.5,12.52,12.52,0,0,0,403.5,301Z"/><path class="cls-1" d="M81.09,108.53h-15a5,5,0,0,1,0-10h15a5,5,0,0,1,0,10Z"/><path class="cls-1" d="M81.09,76.44h-15a5,5,0,0,1,0-10h15a5,5,0,0,1,0,10Z"/><path class="cls-1" d="M81.09,140.62h-15a5,5,0,0,1,0-10h15a5,5,0,0,1,0,10Z"/><path class="cls-1" d="M81.09,172.71h-15a5,5,0,0,1,0-10h15a5,5,0,0,1,0,10Z"/><path class="cls-1" d="M81.09,204.8h-15a5,5,0,1,1,0-10h15a5,5,0,0,1,0,10Z"/><path class="cls-1" d="M81.09,236.89h-15a5,5,0,0,1,0-10h15a5,5,0,1,1,0,10Z"/><path class="cls-1" d="M81.09,301.07h-15a5,5,0,1,1,0-10h15a5,5,0,0,1,0,10Z"/></g></svg>