<?xml version="1.0" ?><svg viewBox="0 0 512 512" xmlns="http://www.w3.org/2000/svg"><defs><style>.cls-1{fill:#3f456b;}</style></defs><title/><g id="Lines"><path class="cls-1" d="M16,452a4.89,4.89,0,0,1-1.91-.38A5,5,0,0,1,11,447V15a5,5,0,0,1,5-5H448a5,5,0,0,1,3.54,8.54l-432,432A5,5,0,0,1,16,452ZM21,20V434.93L435.93,20Z"/><path class="cls-1" d="M89,276a4.89,4.89,0,0,1-1.91-.38A5,5,0,0,1,84,271V88a5,5,0,0,1,5-5H272a5,5,0,0,1,3.54,8.54l-183,183A5,5,0,0,1,89,276ZM94,93V258.93L259.93,93Z"/><path class="cls-1" d="M374.9,377.94a5,5,0,0,1-3.52-8.56l68.3-67.46c2.62-2.59,3.8-5.22,3.61-8-.39-5.87-6.65-11.82-8.81-13.45a5,5,0,1,1,6-8c1.23.92,12,9.33,12.79,20.76.39,5.73-1.88,11.2-6.56,15.82l-68.3,67.46A4.94,4.94,0,0,1,374.9,377.94Z"/><path class="cls-1" d="M239.09,467.6a28.49,28.49,0,0,1-20-48.76l200.26-198a28.5,28.5,0,0,1,40.06,40.55l-200.27,198A28.37,28.37,0,0,1,239.09,467.6Zm200.26-245a18.42,18.42,0,0,0-13,5.33L226.09,426A18.47,18.47,0,0,0,239,457.58h.12a18.35,18.35,0,0,0,13-5.31l200.26-198a18.49,18.49,0,0,0-13-31.65Z"/><path class="cls-1" d="M192.46,371.46a5,5,0,0,1-4.76-6.56l16.59-50.64a5,5,0,0,1,1.24-2L447.16,72.88a28.5,28.5,0,0,1,40.06,40.55L245.59,352.8a4.85,4.85,0,0,1-1.88,1.17l-49.62,17.21A5.12,5.12,0,0,1,192.46,371.46Zm21-52.94-13.07,39.91,39-13.53L480.19,106.32A18.48,18.48,0,0,0,467.3,74.68h-.11a18.35,18.35,0,0,0-13,5.31Zm28.65,30.73h0Z"/><path class="cls-1" d="M402.86,315.17a5,5,0,0,1-3.56-1.48l-33-33.44a5,5,0,0,1,7.12-7l33,33.44a5,5,0,0,1-3.56,8.51Z"/><path class="cls-1" d="M357.33,360.15a5,5,0,0,1-3.56-1.49l-33-33.43a5,5,0,0,1,7.12-7l33,33.44a5,5,0,0,1-3.55,8.51Z"/><path class="cls-1" d="M110.1,483.06a34.65,34.65,0,0,1-24.2-59.47l43.7-43a5,5,0,1,1,7,7.12L92.9,430.73a24.66,24.66,0,1,0,34.4,35.35l44.85-43.71a16.24,16.24,0,1,0-22.67-23.26L106,441.54a6.72,6.72,0,0,0-.13,9.5,6.74,6.74,0,0,0,9.51.12l44.06-42.94a5,5,0,1,1,7,7.16L122.3,458.32A16.71,16.71,0,1,1,99,434.38L142.51,392a26.24,26.24,0,1,1,36.62,37.58l-44.85,43.71A34.51,34.51,0,0,1,110.1,483.06Z"/><path class="cls-1" d="M466.2,131.65a5,5,0,0,1-3.54-1.46L430.14,97.66a5,5,0,1,1,7.07-7.07l32.53,32.53a5,5,0,0,1-3.54,8.53Z"/><path class="cls-1" d="M433.3,164.55a5,5,0,0,1-3.53-1.46l-32.53-32.53a5,5,0,1,1,7.07-7.07L436.84,156a5,5,0,0,1-3.54,8.53Z"/><path class="cls-1" d="M242.1,353.21a5,5,0,0,1-3.53-1.46l-32.24-32.24a5,5,0,0,1,7.07-7.07l32.24,32.24a5,5,0,0,1-3.54,8.53Z"/><path class="cls-1" d="M416.55,500.8a24.92,24.92,0,0,1-17.68-7.31L367.36,462a25,25,0,0,1,0-35.36l60.78-60.77a25,25,0,0,1,35.35,0L495,397.36a25.08,25.08,0,0,1,0,35.36l-60.78,60.77A24.92,24.92,0,0,1,416.55,500.8Zm29.27-132.24a14.88,14.88,0,0,0-10.61,4.37L374.44,433.7a15,15,0,0,0,0,21.22l31.5,31.5a15,15,0,0,0,21.21,0l60.78-60.78a15.08,15.08,0,0,0,0-21.21l-31.51-31.5A14.86,14.86,0,0,0,445.82,368.56Z"/><path class="cls-1" d="M476.33,449.31a5,5,0,0,1-3.53-1.47L413,388.06a5,5,0,1,1,7.07-7.07l59.79,59.78a5,5,0,0,1-3.54,8.54Z"/></g><g id="Outline"><path class="cls-1" d="M49,36a5,5,0,0,1-5-5V15a5,5,0,0,1,10,0V31A5,5,0,0,1,49,36Z"/><path class="cls-1" d="M80.91,36a5,5,0,0,1-5-5V15a5,5,0,0,1,10,0V31A5,5,0,0,1,80.91,36Z"/><path class="cls-1" d="M112.82,36a5,5,0,0,1-5-5V15a5,5,0,0,1,10,0V31A5,5,0,0,1,112.82,36Z"/><path class="cls-1" d="M144.73,36a5,5,0,0,1-5-5V15a5,5,0,0,1,10,0V31A5,5,0,0,1,144.73,36Z"/><path class="cls-1" d="M176.64,36a5,5,0,0,1-5-5V15a5,5,0,0,1,10,0V31A5,5,0,0,1,176.64,36Z"/><path class="cls-1" d="M208.55,36a5,5,0,0,1-5-5V15a5,5,0,0,1,10,0V31A5,5,0,0,1,208.55,36Z"/><path class="cls-1" d="M240.45,36a5,5,0,0,1-5-5V15a5,5,0,0,1,10,0V31A5,5,0,0,1,240.45,36Z"/><path class="cls-1" d="M272.36,36a5,5,0,0,1-5-5V15a5,5,0,0,1,10,0V31A5,5,0,0,1,272.36,36Z"/><path class="cls-1" d="M304.27,36a5,5,0,0,1-5-5V15a5,5,0,0,1,10,0V31A5,5,0,0,1,304.27,36Z"/><path class="cls-1" d="M336.18,36a5,5,0,0,1-5-5V15a5,5,0,0,1,10,0V31A5,5,0,0,1,336.18,36Z"/><path class="cls-1" d="M368.09,36a5,5,0,0,1-5-5V15a5,5,0,0,1,10,0V31A5,5,0,0,1,368.09,36Z"/><path class="cls-1" d="M400,36a5,5,0,0,1-5-5V15a5,5,0,0,1,10,0V31A5,5,0,0,1,400,36Z"/><path class="cls-1" d="M32.5,404.5h-16a5,5,0,0,1,0-10h16a5,5,0,0,1,0,10Z"/><path class="cls-1" d="M32.5,372.59h-16a5,5,0,0,1,0-10h16a5,5,0,0,1,0,10Z"/><path class="cls-1" d="M32.5,340.68h-16a5,5,0,0,1,0-10h16a5,5,0,0,1,0,10Z"/><path class="cls-1" d="M32.5,308.77h-16a5,5,0,0,1,0-10h16a5,5,0,0,1,0,10Z"/><path class="cls-1" d="M32.5,276.86h-16a5,5,0,0,1,0-10h16a5,5,0,0,1,0,10Z"/><path class="cls-1" d="M32.5,245h-16a5,5,0,0,1,0-10h16a5,5,0,0,1,0,10Z"/><path class="cls-1" d="M32.5,213.05h-16a5,5,0,0,1,0-10h16a5,5,0,0,1,0,10Z"/><path class="cls-1" d="M32.5,181.14h-16a5,5,0,0,1,0-10h16a5,5,0,0,1,0,10Z"/><path class="cls-1" d="M32.5,149.23h-16a5,5,0,0,1,0-10h16a5,5,0,0,1,0,10Z"/><path class="cls-1" d="M32.5,117.32h-16a5,5,0,0,1,0-10h16a5,5,0,0,1,0,10Z"/><path class="cls-1" d="M32.5,85.41h-16a5,5,0,0,1,0-10h16a5,5,0,0,1,0,10Z"/><path class="cls-1" d="M32.5,53.5h-16a5,5,0,0,1,0-10h16a5,5,0,0,1,0,10Z"/><path class="cls-1" d="M387.92,329.93a5,5,0,0,1-3.56-1.48l-33-33.44a5,5,0,0,1,7.12-7l33,33.44a5,5,0,0,1-3.56,8.51Z"/><path class="cls-1" d="M373,344.69a5,5,0,0,1-3.56-1.49l-33-33.43a5,5,0,0,1,7.12-7l33,33.44a5,5,0,0,1-3.56,8.51Z"/><path class="cls-1" d="M450.57,147.28a5,5,0,0,1-3.53-1.47l-32.53-32.52a5,5,0,1,1,7.07-7.07l32.53,32.52a5,5,0,0,1-3.54,8.54Z"/><path class="cls-1" d="M441.77,445.62H397.91a5,5,0,1,1,0-10h43.86a5,5,0,0,1,0,10Z"/><path class="cls-1" d="M419.84,467.55a5,5,0,0,1-5-5V418.69a5,5,0,0,1,10,0v43.86A5,5,0,0,1,419.84,467.55Z"/></g></svg>