<?xml version="1.0" ?><svg viewBox="0 0 512 512" xmlns="http://www.w3.org/2000/svg"><defs><style>.cls-1{fill:#3f456b;}</style></defs><title/><g id="Lines"><path class="cls-1" d="M238.48,284.38q-4.18,0-8.53-.42c-20.66-2.26-35.62-9.86-44.51-22.6-13.29-19-7.75-42.25-7.51-43.23,0-.17.1-.34.16-.51,6.06-16.66,20.17-27.09,40.83-30.17a95.37,95.37,0,0,1,28.64.29l.24,0c29.63,7.13,43.7,25.4,50.28,39.47a75.47,75.47,0,0,1,7.17,29.18,5,5,0,0,1-1.72,3.78C302.31,261.28,275.16,284.38,238.48,284.38Zm-50.89-63.62c-.48,2.22-4,20.57,6.1,35,7.17,10.22,19.72,16.38,37.3,18.3,31.28,3.11,57.18-14.6,64.15-19.89-.74-9.72-6.4-46.13-49.54-56.57a86.4,86.4,0,0,0-25.45-.17C203.37,199.94,192.42,207.81,187.59,220.76Zm112.66,35.68h0Zm0,0h0Z"/><path class="cls-1" d="M398.4,284.37c-36.72,0-63.86-23.09-65.08-24.15a5,5,0,0,1-1.73-3.78,75.59,75.59,0,0,1,7.18-29.18c6.58-14.07,20.64-32.34,50.28-39.47l.24,0a95,95,0,0,1,28.64-.29c20.65,3.08,34.77,13.51,40.83,30.17.06.17.11.34.16.51.24,1,5.78,24.2-7.51,43.23C442.52,274.1,427.56,281.7,407,284,404.05,284.24,401.19,284.37,398.4,284.37Zm-56.7-30.25c7,5.29,32.88,23,64.21,19.88,17.57-1.92,30.13-8.1,37.3-18.36,10.09-14.45,6.54-32.63,6.05-34.88-4.85-13-15.88-20.9-32.8-23.42a85.86,85.86,0,0,0-25.21.21C348.11,208,342.45,244.4,341.7,254.12Zm-5.11,2.32h0Z"/><path class="cls-1" d="M335,309.75a5,5,0,0,1-5-5V302a5,5,0,0,1,10,0v2.75A5,5,0,0,1,335,309.75Z"/><path class="cls-1" d="M303,309.75a5,5,0,0,1-5-5V302a5,5,0,0,1,10,0v2.75A5,5,0,0,1,303,309.75Z"/><path class="cls-1" d="M318.63,436.5a4.28,4.28,0,0,1-.81-.07,4.47,4.47,0,0,1-.82.07c-11.07,0-21.79-4-31-11.54a62,62,0,0,1-18.69-26.59c-7.93-21.94-25.48-35-44.07-48.86l-.89-.67c-11.46-8.53-30-25.76-38.34-36.84-27.16-36.15-37.23-73.37-33.69-124.43,4.66-67.1,34.26-118.06,83.35-143.51C258.88,31,294.27,24,315.06,24h5.06c20.69-.07,56.44,6.89,81.85,20.06,49.09,25.45,78.69,76.41,83.35,143.51,3.54,51.06-6.53,88.27-33.69,124.43-8.32,11.08-26.88,28.31-38.34,36.84l-.89.67c-18.59,13.84-36.14,26.92-44.07,48.86A62,62,0,0,1,349.64,425C340.42,432.51,329.7,436.5,318.63,436.5ZM315.06,34c-19.62,0-53,6.6-76.8,18.94-45.88,23.78-73.57,71.84-78,135.32C156.92,236.72,166.41,271.93,192,306c7.58,10.1,25.43,26.71,36.31,34.82l.9.67C249,356.26,267.76,370.2,276.7,395c5.49,15.19,20.44,31.53,40.3,31.53a4.47,4.47,0,0,1,.82.07,4.28,4.28,0,0,1,.81-.07c19.86,0,34.81-16.34,40.3-31.53,8.94-24.77,27.67-38.71,47.5-53.48l.89-.67c10.88-8.11,28.73-24.72,36.31-34.82,25.59-34.07,35.08-69.28,31.71-117.74-4.4-63.48-32.09-111.54-78-135.32C373.56,40.6,340.19,34,320.59,34h-5.53Z"/><path class="cls-1" d="M341.36,380.33a5,5,0,0,1-2.77-.84c-20.69-13.81-39.89-.64-40.7-.08a5,5,0,0,1-5.8-8.14c1-.74,25.52-17.81,52.05-.09a5,5,0,0,1-2.78,9.15Z"/><path class="cls-1" d="M430.15,501H206.5a5,5,0,0,1-5-5c0-12.81,6.74-35.9,51.84-46.61,13.31-3.17,22.16-8.44,26.29-15.67a18.58,18.58,0,0,0,2.09-13.36,5,5,0,0,1,9.56-2.95,28.64,28.64,0,0,1-3,21.27c-5.56,9.73-16.54,16.61-32.65,20.43C230,465.2,214.77,476.41,212,491H424.68c-2.8-14.59-18.06-25.8-43.68-31.89-16.08-3.81-27.06-10.69-32.63-20.43a28.82,28.82,0,0,1-3-21.39,5,5,0,0,1,9.57,2.9,18.72,18.72,0,0,0,2.21,13.7c4.18,7.15,13,12.37,26.16,15.5,45.11,10.71,51.84,33.8,51.84,46.61A5,5,0,0,1,430.15,501Z"/><path class="cls-1" d="M102.75,501H53a5,5,0,0,1-5-5.09l1.74-95.38c-12-29.5-2.09-76.84.72-88.82a21,21,0,0,1-4-16.49c1.32-8.66,7.92-12.38,13.12-13.6,13.09-37.48,39-65.4,47.33-73.71-3.35-8.63-3.08-17.23.86-24.52A25.8,25.8,0,0,1,127,170a26.57,26.57,0,0,1,8.57,52.4c-4.35,4.88-20.81,24.29-36.08,54.71a2.12,2.12,0,0,1-.11.21,30,30,0,0,0-.49,25.25c18.6,41.76,23.35,71.25,14.11,87.65a26.67,26.67,0,0,1-12.15,11.31l6.93,94.14a5,5,0,0,1-5,5.37ZM58.09,491H97.37L91,404.38l-1.14.16a5,5,0,0,1-1.25-9.92,29.73,29.73,0,0,0,5.18-1.11l.42-.14a17.35,17.35,0,0,0,10-8.09c9.47-16.81-2.68-52.07-14.53-78.68a40.13,40.13,0,0,1,.84-34.1c18.4-36.63,38-57.39,38.84-58.26a5,5,0,0,1,3-1.51,16.43,16.43,0,0,0,8-29.31,16.6,16.6,0,0,0-12.26-3.53,15.9,15.9,0,0,0-11.59,8.25c-2,3.75-3.53,10,.8,18.7a5,5,0,0,1-1.09,5.91c-.34.32-34.13,31.85-48.19,74.94a5,5,0,0,1-4.65,3.44c-1,0-6.32.51-7.1,5.6-1,6.51,2.65,9.47,2.69,9.5a5,5,0,0,1,1.82,5.24c-.15.56-14.3,56.16-1.45,86.14a5,5,0,0,1,.4,2.06Z"/><path class="cls-1" d="M117.68,181.63a5,5,0,0,1-4.79-3.57c-2.52-8.47-1.44-16.86,3-23.64A25.62,25.62,0,0,1,134,143a27.1,27.1,0,0,1,28,17,5,5,0,1,1-9.33,3.6,17,17,0,0,0-17.56-10.65,15.72,15.72,0,0,0-10.86,7c-2,3-3.91,8.13-1.79,15.29a5,5,0,0,1-3.36,6.22A5.09,5.09,0,0,1,117.68,181.63Z"/><path class="cls-1" d="M145.91,347.11a21.09,21.09,0,0,1-2.5-.15c-9.14-1.08-15.74-4.39-19.6-9.84-3.27-4.6-4.5-10.51-3.7-17.95-4.48.42-10.47,2.17-12.28,8.32a5,5,0,1,1-9.59-2.82c2.27-7.71,8.06-12.81,16.77-14.76a36.06,36.06,0,0,1,11.65-.62,5,5,0,0,1,4.22,6c-1.65,7.42-1.29,12.66,1.08,16,2.16,3,6.41,5,12.63,5.7a11.81,11.81,0,0,0,9.29-3.13,16.58,16.58,0,0,0,5.45-12.24A15.35,15.35,0,0,0,144,306.33a5.26,5.26,0,0,1-1.12-.12c-1.2-.28-7.4-1.85-10.68-5.68-4.82-5.64-10.26-8.67-16.16-9-11-.63-20.79,8.14-20.89,8.23a5,5,0,0,1-6.8-7.33c.52-.48,12.87-11.75,28.26-10.88,8.72.5,16.52,4.7,23.19,12.48.72.85,3.18,1.86,4.85,2.32a25.37,25.37,0,0,1,24.68,25.33,26.71,26.71,0,0,1-8.81,19.71A21.9,21.9,0,0,1,145.91,347.11Z"/></g><g id="Outline"><path class="cls-1" d="M86.42,178.53a5,5,0,0,1-4.89-4,51.74,51.74,0,0,1,40.18-61.19,5,5,0,1,1,2,9.79,41.76,41.76,0,0,0-32.41,49.37,5,5,0,0,1-3.88,5.91A5.13,5.13,0,0,1,86.42,178.53Z"/><path class="cls-1" d="M59.63,184.08a5,5,0,0,1-4.89-4,79.11,79.11,0,0,1,61.41-93.53,5,5,0,1,1,2,9.79,69.12,69.12,0,0,0-53.65,81.71A5,5,0,0,1,60.65,184,4.55,4.55,0,0,1,59.63,184.08Z"/><path class="cls-1" d="M31.86,189.84a5,5,0,0,1-4.89-4A107.6,107.6,0,0,1,110.4,58.79a5,5,0,1,1,2,9.79A97.59,97.59,0,0,0,36.76,183.82a5,5,0,0,1-3.88,5.91A5.21,5.21,0,0,1,31.86,189.84Z"/></g></svg>