<?xml version="1.0" ?><svg viewBox="0 0 512 512" xmlns="http://www.w3.org/2000/svg"><defs><style>.cls-1{fill:#3f456b;}</style></defs><title/><g id="Lines"><path class="cls-1" d="M496,484H16a5,5,0,0,1-5-5V31a5,5,0,0,1,5-5H496a5,5,0,0,1,5,5V479A5,5,0,0,1,496,484ZM21,474H491V36H21Z"/><path class="cls-1" d="M272.42,469.86A213.29,213.29,0,0,1,59.13,256.57C59.13,139,154.81,43.28,272.42,43.28S485.71,139,485.71,256.57,390,469.86,272.42,469.86Zm0-416.58c-112.09,0-203.29,91.2-203.29,203.29s91.2,203.29,203.29,203.29,203.29-91.2,203.29-203.29S384.51,53.28,272.42,53.28Z"/><path class="cls-1" d="M48,484a5,5,0,0,1-5-5V31a5,5,0,0,1,10,0V479A5,5,0,0,1,48,484Z"/><path class="cls-1" d="M272.42,334.65a78.08,78.08,0,1,1,78.08-78.08A78.17,78.17,0,0,1,272.42,334.65Zm0-146.16a68.08,68.08,0,1,0,68.08,68.08A68.16,68.16,0,0,0,272.42,188.49Z"/><path class="cls-1" d="M272.42,298.23a41.66,41.66,0,1,1,41.65-41.66A41.71,41.71,0,0,1,272.42,298.23Zm0-73.32a31.66,31.66,0,1,0,31.65,31.66A31.69,31.69,0,0,0,272.42,224.91Z"/></g><g id="Outline"><path class="cls-1" d="M273,232.36a5,5,0,0,1-5-5V220a5,5,0,0,1,10,0v7.36A5,5,0,0,1,273,232.36Z"/><path class="cls-1" d="M273,295a5,5,0,0,1-5-5v-7.36a5,5,0,0,1,10,0V290A5,5,0,0,1,273,295Z"/><path class="cls-1" d="M308,260h-7.36a5,5,0,0,1,0-10H308a5,5,0,0,1,0,10Z"/><path class="cls-1" d="M245.36,260H238a5,5,0,0,1,0-10h7.36a5,5,0,0,1,0,10Z"/><path class="cls-1" d="M253.46,240.46a5,5,0,0,1-3.54-1.47l-5.2-5.2a5,5,0,0,1,7.07-7.07l5.2,5.2a5,5,0,0,1,0,7.07A5,5,0,0,1,253.46,240.46Z"/><path class="cls-1" d="M297.75,284.75a5,5,0,0,1-3.54-1.47l-5.2-5.2a5,5,0,1,1,7.07-7.07l5.2,5.2a5,5,0,0,1-3.53,8.54Z"/><path class="cls-1" d="M292.54,240.46A5,5,0,0,1,289,239a5,5,0,0,1,0-7.07l5.2-5.2a5,5,0,1,1,7.07,7.07l-5.2,5.2A5,5,0,0,1,292.54,240.46Z"/><path class="cls-1" d="M248.25,284.75a5,5,0,0,1-3.53-8.54l5.2-5.2a5,5,0,1,1,7.07,7.07l-5.2,5.2A5,5,0,0,1,248.25,284.75Z"/><path class="cls-1" d="M202.25,237.94a5,5,0,0,1-1.7-.3L73.91,191.92a5,5,0,1,1,3.39-9.4l126.64,45.71a5,5,0,0,1-1.69,9.71Z"/><path class="cls-1" d="M91.31,364.11a5,5,0,0,1-2.44-9.36l118.2-65.85a5,5,0,1,1,4.87,8.73L93.73,363.48A4.94,4.94,0,0,1,91.31,364.11Z"/><path class="cls-1" d="M468.57,332.09a5,5,0,0,1-1.7-.3l-128-46.2a5,5,0,0,1,3.4-9.4l128,46.19a5,5,0,0,1-1.7,9.71Z"/><path class="cls-1" d="M335.17,225.76a5,5,0,0,1-2.45-9.36l118.71-66.57a5,5,0,0,1,4.89,8.73L337.61,225.12A4.89,4.89,0,0,1,335.17,225.76Z"/></g></svg>