<?xml version="1.0" ?><svg viewBox="0 0 512 512" xmlns="http://www.w3.org/2000/svg"><defs><style>.cls-1{fill:#3f456b;}</style></defs><title/><g id="Lines"><path class="cls-1" d="M496,139H401.26c-8.46,0-15.26-2.62-20.23-7.79-8.11-8.43-8.07-20.64-8-22.09V17h10v92.39c0,.07-.22,9.27,5.28,14.93,3,3.11,7.38,4.68,13,4.68H496Z"/><path class="cls-1" d="M469.68,469H421a5,5,0,0,1,0-10h48.68c11.75,0,21.32-10.6,21.32-23.62V136.62c0-11.37-10.55-24.31-14.62-28.33-.67-.68-62.23-63.27-75-76.09A39.23,39.23,0,0,0,375.66,21H156.05A23.34,23.34,0,0,0,133,44V278a5,5,0,0,1-10,0V44c0-17.89,15.13-33,33.05-33H375.59a48.83,48.83,0,0,1,32.82,14.13c12.84,12.85,74.43,75.47,75,76.1S501,118.8,501,136.62V435.38C501,453.92,487,469,469.68,469Z"/><path class="cls-1" d="M163.21,116.86a5,5,0,0,1-3.57-1.49l-14.59-14.85a5,5,0,1,1,7.13-7l11.62,11.82,13.66-9.65a5,5,0,0,1,5.76,8.17L166.09,116A5,5,0,0,1,163.21,116.86Z"/><path class="cls-1" d="M220,166.27a61,61,0,0,1-40.78-15.59,5,5,0,1,1,6.67-7.45,51.15,51.15,0,1,0-17-38.11,5,5,0,0,1-10,0A61.15,61.15,0,1,1,220,166.27Z"/><path class="cls-1" d="M362,500h-2.54l-271,0h-.16A79.63,79.63,0,0,1,72.8,342.76a60.41,60.41,0,0,1-.7-9.22,61,61,0,0,1,102.84-44.49,146.14,146.14,0,0,1,12.51-20.69,94.82,94.82,0,0,1,19.31-19.89h0a113.1,113.1,0,0,1,67.82-23.07A109.82,109.82,0,0,1,382,357.67a72.36,72.36,0,0,1,54.29,70.15A72.18,72.18,0,0,1,364.75,500Zm-273.46-10,270.93,0h5.11a62.28,62.28,0,0,0,10.52-123.56,5,5,0,0,1-3.95-6.17A99.82,99.82,0,0,0,274.58,235.4a102.88,102.88,0,0,0-61.71,21h0a85,85,0,0,0-17.29,17.78c-6.54,9.15-11.52,18-14.41,25.63a5,5,0,0,1-8.54,1.4,51,51,0,0,0-89.11,44.32,5,5,0,0,1-4,6.11,69.62,69.62,0,0,0,9.08,138.29ZM209.82,252.43h0Z"/></g><g id="Outline"><path class="cls-1" d="M437,200H195a5,5,0,0,1,0-10H437a5,5,0,0,1,0,10Z"/><path class="cls-1" d="M437,248H369a5,5,0,0,1,0-10h68a5,5,0,0,1,0,10Z"/><path class="cls-1" d="M437,293H409a5,5,0,0,1,0-10h28a5,5,0,0,1,0,10Z"/><path class="cls-1" d="M437,341H409a5,5,0,0,1,0-10h28a5,5,0,0,1,0,10Z"/><path class="cls-1" d="M180.26,455.75a5,5,0,0,1-3.54-8.53,67.68,67.68,0,0,1,95.73,0,5,5,0,0,1-7.07,7.07,57.69,57.69,0,0,0-81.59,0A5,5,0,0,1,180.26,455.75Z"/><path class="cls-1" d="M294.77,429.9a5,5,0,0,1-3.54-1.46,94.24,94.24,0,0,0-133.29,0,5,5,0,0,1-7.07-7.07,104.23,104.23,0,0,1,147.43,0,5,5,0,0,1-3.53,8.53Z"/><path class="cls-1" d="M127.34,402.84a5,5,0,0,1-3.53-8.54,142.51,142.51,0,0,1,201.56,0,5,5,0,1,1-7.07,7.07,132.52,132.52,0,0,0-187.42,0A5,5,0,0,1,127.34,402.84Z"/></g></svg>