<?xml version="1.0" ?><svg enable-background="new 0 0 512 512" version="1.1" viewBox="0 0 512 512" xml:space="preserve" xmlns="http://www.w3.org/2000/svg" xmlns:xlink="http://www.w3.org/1999/xlink"><g id="Colors"><g><g><path d="M75,239.5H44.001c-2.762,0-5-2.238-5-5s2.238-5,5-5H75c2.762,0,5,2.238,5,5S77.762,239.5,75,239.5z" fill="#3F456B"/></g></g><g><g><path d="M97,265.875H44.001c-2.762,0-5-2.238-5-5s2.238-5,5-5H97c2.762,0,5,2.238,5,5S99.762,265.875,97,265.875z     " fill="#3F456B"/></g></g><g><g><path d="M97,292.25H44.001c-2.762,0-5-2.238-5-5s2.238-5,5-5H97c2.762,0,5,2.238,5,5S99.762,292.25,97,292.25z" fill="#3F456B"/></g></g><g><g><path d="M82,318.625H44.001c-2.762,0-5-2.238-5-5s2.238-5,5-5H82c2.762,0,5,2.238,5,5S84.762,318.625,82,318.625z     " fill="#3F456B"/></g></g><g><g><path d="M86,371.874H44.001c-2.762,0-5-2.238-5-5s2.238-5,5-5H86c2.762,0,5,2.238,5,5S88.762,371.874,86,371.874z     " fill="#3F456B"/></g></g><g><g><path d="M132,398.25H44.002c-2.762,0-5-2.238-5-5s2.238-5,5-5H132c2.762,0,5,2.238,5,5S134.762,398.25,132,398.25     z" fill="#3F456B"/></g></g><g><g><path d="M132,424.625H44.002c-2.762,0-5-2.238-5-5s2.238-5,5-5H132c2.762,0,5,2.238,5,5     S134.762,424.625,132,424.625z" fill="#3F456B"/></g></g><g><g><path d="M61.952,344.999H44.001c-2.762,0-5-2.238-5-5s2.238-5,5-5h17.951c2.762,0,5,2.238,5,5     S64.714,344.999,61.952,344.999z" fill="#3F456B"/></g></g><g><g><path d="M119.888,344.999h-40.8c-2.762,0-5-2.238-5-5s2.238-5,5-5h40.8c2.762,0,5,2.238,5,5     S122.649,344.999,119.888,344.999z" fill="#3F456B"/></g></g><g><g><path d="M100.417,369.28c-2.719-3.513-1.25-8.627,3.01-10.123c2.567-0.902,5.506-0.019,7.176,2.128     c2.734,3.516,1.26,8.65-3.014,10.14C105.02,372.321,102.082,371.432,100.417,369.28z" fill="#3F456B"/></g></g><g><g><path d="M211,78c0-2.76,2.24-5,5-5l0,0c2.76,0,5,2.24,5,5l0,0c0,2.76-2.24,5-5,5l0,0C213.24,83,211,80.76,211,78z      M191,78c0-2.76,2.24-5,5-5l0,0c2.76,0,5,2.24,5,5l0,0c0,2.76-2.24,5-5,5l0,0C193.24,83,191,80.76,191,78z M171,78     c0-2.76,2.24-5,5-5l0,0c2.76,0,5,2.24,5,5l0,0c0,2.76-2.24,5-5,5l0,0C173.24,83,171,80.76,171,78z M151,78c0-2.76,2.24-5,5-5l0,0     c2.76,0,5,2.24,5,5l0,0c0,2.76-2.24,5-5,5l0,0C153.24,83,151,80.76,151,78z M131,78c0-2.76,2.24-5,5-5l0,0c2.76,0,5,2.24,5,5l0,0     c0,2.76-2.24,5-5,5l0,0C133.24,83,131,80.76,131,78z M111,78c0-2.76,2.24-5,5-5l0,0c2.76,0,5,2.24,5,5l0,0c0,2.76-2.24,5-5,5l0,0     C113.24,83,111,80.76,111,78z M91,78c0-2.76,2.24-5,5-5l0,0c2.76,0,5,2.24,5,5l0,0c0,2.76-2.24,5-5,5l0,0     C93.24,83,91,80.76,91,78z" fill="#3F456B"/></g></g><g><g><path d="M438,23c0-2.76,2.24-5,5-5l0,0c2.76,0,5,2.24,5,5l0,0c0,2.76-2.24,5-5,5l0,0C440.24,28,438,25.76,438,23z      M418,23c0-2.76,2.24-5,5-5l0,0c2.76,0,5,2.24,5,5l0,0c0,2.76-2.24,5-5,5l0,0C420.24,28,418,25.76,418,23z M398,23     c0-2.76,2.24-5,5-5l0,0c2.76,0,5,2.24,5,5l0,0c0,2.76-2.24,5-5,5l0,0C400.24,28,398,25.76,398,23z M378,23c0-2.76,2.24-5,5-5l0,0     c2.76,0,5,2.24,5,5l0,0c0,2.76-2.24,5-5,5l0,0C380.24,28,378,25.76,378,23z M358,23c0-2.76,2.24-5,5-5l0,0c2.76,0,5,2.24,5,5l0,0     c0,2.76-2.24,5-5,5l0,0C360.24,28,358,25.76,358,23z M338,23c0-2.76,2.24-5,5-5l0,0c2.76,0,5,2.24,5,5l0,0c0,2.76-2.24,5-5,5l0,0     C340.24,28,338,25.76,338,23z M318,23c0-2.76,2.24-5,5-5l0,0c2.76,0,5,2.24,5,5l0,0c0,2.76-2.24,5-5,5l0,0     C320.24,28,318,25.76,318,23z M298,23c0-2.76,2.24-5,5-5l0,0c2.76,0,5,2.24,5,5l0,0c0,2.76-2.24,5-5,5l0,0     C300.24,28,298,25.76,298,23z M278,23c0-2.76,2.24-5,5-5l0,0c2.76,0,5,2.24,5,5l0,0c0,2.76-2.24,5-5,5l0,0     C280.24,28,278,25.76,278,23z M258,23c0-2.76,2.24-5,5-5l0,0c2.76,0,5,2.24,5,5l0,0c0,2.76-2.24,5-5,5l0,0     C260.24,28,258,25.76,258,23z M238,23c0-2.76,2.24-5,5-5l0,0c2.76,0,5,2.24,5,5l0,0c0,2.76-2.24,5-5,5l0,0     C240.24,28,238,25.76,238,23z M218,23c0-2.76,2.24-5,5-5l0,0c2.76,0,5,2.24,5,5l0,0c0,2.76-2.24,5-5,5l0,0     C220.24,28,218,25.76,218,23z M198,23c0-2.76,2.24-5,5-5l0,0c2.76,0,5,2.24,5,5l0,0c0,2.76-2.24,5-5,5l0,0     C200.24,28,198,25.76,198,23z M178,23c0-2.76,2.24-5,5-5l0,0c2.76,0,5,2.24,5,5l0,0c0,2.76-2.24,5-5,5l0,0     C180.24,28,178,25.76,178,23z M158,23c0-2.76,2.24-5,5-5l0,0c2.76,0,5,2.24,5,5l0,0c0,2.76-2.24,5-5,5l0,0     C160.24,28,158,25.76,158,23z M138,23c0-2.76,2.24-5,5-5l0,0c2.76,0,5,2.24,5,5l0,0c0,2.76-2.24,5-5,5l0,0     C140.24,28,138,25.76,138,23z M118,23c0-2.76,2.24-5,5-5l0,0c2.76,0,5,2.24,5,5l0,0c0,2.76-2.24,5-5,5l0,0     C120.24,28,118,25.76,118,23z M98,23c0-2.76,2.24-5,5-5l0,0c2.76,0,5,2.24,5,5l0,0c0,2.76-2.24,5-5,5l0,0     C100.24,28,98,25.76,98,23z M78,23c0-2.76,2.24-5,5-5l0,0c2.76,0,5,2.24,5,5l0,0c0,2.76-2.24,5-5,5l0,0C80.24,28,78,25.76,78,23z      M58,23c0-2.76,2.24-5,5-5l0,0c2.76,0,5,2.24,5,5l0,0c0,2.76-2.24,5-5,5l0,0C60.24,28,58,25.76,58,23z" fill="#3F456B"/></g></g><g><g><path d="M438,489c0-2.76,2.24-5,5-5l0,0c2.76,0,5,2.24,5,5l0,0c0,2.76-2.24,5-5,5l0,0     C440.24,494,438,491.76,438,489z M418,489c0-2.76,2.24-5,5-5l0,0c2.76,0,5,2.24,5,5l0,0c0,2.76-2.24,5-5,5l0,0     C420.24,494,418,491.76,418,489z M398,489c0-2.76,2.24-5,5-5l0,0c2.76,0,5,2.24,5,5l0,0c0,2.76-2.24,5-5,5l0,0     C400.24,494,398,491.76,398,489z M378,489c0-2.76,2.24-5,5-5l0,0c2.76,0,5,2.24,5,5l0,0c0,2.76-2.24,5-5,5l0,0     C380.24,494,378,491.76,378,489z M358,489c0-2.76,2.24-5,5-5l0,0c2.76,0,5,2.24,5,5l0,0c0,2.76-2.24,5-5,5l0,0     C360.24,494,358,491.76,358,489z M338,489c0-2.76,2.24-5,5-5l0,0c2.76,0,5,2.24,5,5l0,0c0,2.76-2.24,5-5,5l0,0     C340.24,494,338,491.76,338,489z M318,489c0-2.76,2.24-5,5-5l0,0c2.76,0,5,2.24,5,5l0,0c0,2.76-2.24,5-5,5l0,0     C320.24,494,318,491.76,318,489z M298,489c0-2.76,2.24-5,5-5l0,0c2.76,0,5,2.24,5,5l0,0c0,2.76-2.24,5-5,5l0,0     C300.24,494,298,491.76,298,489z M278,489c0-2.76,2.24-5,5-5l0,0c2.76,0,5,2.24,5,5l0,0c0,2.76-2.24,5-5,5l0,0     C280.24,494,278,491.76,278,489z M258,489c0-2.76,2.24-5,5-5l0,0c2.76,0,5,2.24,5,5l0,0c0,2.76-2.24,5-5,5l0,0     C260.24,494,258,491.76,258,489z M238,489c0-2.76,2.24-5,5-5l0,0c2.76,0,5,2.24,5,5l0,0c0,2.76-2.24,5-5,5l0,0     C240.24,494,238,491.76,238,489z M218,489c0-2.76,2.24-5,5-5l0,0c2.76,0,5,2.24,5,5l0,0c0,2.76-2.24,5-5,5l0,0     C220.24,494,218,491.76,218,489z M198,489c0-2.76,2.24-5,5-5l0,0c2.76,0,5,2.24,5,5l0,0c0,2.76-2.24,5-5,5l0,0     C200.24,494,198,491.76,198,489z M178,489c0-2.76,2.24-5,5-5l0,0c2.76,0,5,2.24,5,5l0,0c0,2.76-2.24,5-5,5l0,0     C180.24,494,178,491.76,178,489z M158,489c0-2.76,2.24-5,5-5l0,0c2.76,0,5,2.24,5,5l0,0c0,2.76-2.24,5-5,5l0,0     C160.24,494,158,491.76,158,489z M138,489c0-2.76,2.24-5,5-5l0,0c2.76,0,5,2.24,5,5l0,0c0,2.76-2.24,5-5,5l0,0     C140.24,494,138,491.76,138,489z M118,489c0-2.76,2.24-5,5-5l0,0c2.76,0,5,2.24,5,5l0,0c0,2.76-2.24,5-5,5l0,0     C120.24,494,118,491.76,118,489z M98,489c0-2.76,2.24-5,5-5l0,0c2.76,0,5,2.24,5,5l0,0c0,2.76-2.24,5-5,5l0,0     C100.24,494,98,491.76,98,489z M78,489c0-2.76,2.24-5,5-5l0,0c2.76,0,5,2.24,5,5l0,0c0,2.76-2.24,5-5,5l0,0     C80.24,494,78,491.76,78,489z M58,489c0-2.76,2.24-5,5-5l0,0c2.76,0,5,2.24,5,5l0,0c0,2.76-2.24,5-5,5l0,0     C60.24,494,58,491.76,58,489z" fill="#3F456B"/></g></g><g><g><path d="M402,105c-1.279,0-2.56-0.488-3.535-1.465l-27.5-27.5c-1.953-1.952-1.953-5.118,0-7.07     c1.951-1.953,5.119-1.953,7.07,0l27.5,27.5c1.953,1.952,1.953,5.118,0,7.07C404.56,104.512,403.279,105,402,105z" fill="#3F456B"/></g></g><g><g><path d="M374.5,105c-1.279,0-2.56-0.488-3.535-1.465c-1.953-1.952-1.953-5.118,0-7.07l27.5-27.5     c1.951-1.953,5.119-1.953,7.07,0c1.953,1.952,1.953,5.118,0,7.07l-27.5,27.5C377.06,104.512,375.779,105,374.5,105z" fill="#3F456B"/></g></g><g><g><path d="M383.417,128.28c-2.719-3.513-1.25-8.627,3.01-10.123c2.567-0.902,5.506-0.019,7.176,2.128     c2.734,3.516,1.26,8.65-3.014,10.14C388.02,131.321,385.082,130.432,383.417,128.28z" fill="#3F456B"/></g></g><g><g><path d="M383.417,159.28c-2.719-3.513-1.25-8.627,3.01-10.123c2.567-0.902,5.506-0.019,7.176,2.128     c2.734,3.516,1.26,8.65-3.014,10.14C388.02,162.321,385.082,161.432,383.417,159.28z" fill="#3F456B"/></g></g><g><g><path d="M383.417,190.28c-2.719-3.513-1.25-8.627,3.01-10.123c2.567-0.902,5.506-0.019,7.176,2.128     c2.734,3.516,1.26,8.65-3.014,10.14C388.02,193.321,385.082,192.432,383.417,190.28z" fill="#3F456B"/></g></g><g><g><path d="M169.703,329.971c-15.229,0-27.868-4.261-37.706-12.738c-21.579-18.594-21.272-50.418-21.249-51.764     l-0.001-31.064c0-2.762,2.238-5,5-5H142c2.762,0,5,2.238,5,5s-2.238,5-5,5h-21.253v26.152     c-0.005,0.364-0.202,28.656,17.824,44.141c10.742,9.228,26.048,12.257,45.49,9.001c2.72-0.457,5.301,1.382,5.757,4.106     c0.456,2.724-1.383,5.301-4.106,5.757C180.097,329.501,174.756,329.971,169.703,329.971z" fill="#3F456B"/></g></g><g><g><path d="M289.043,329.972c-5.064,0-10.414-0.472-16.044-1.416c-2.724-0.456-4.561-3.034-4.104-5.758     c0.456-2.723,3.031-4.565,5.758-4.104c19.453,3.26,34.77,0.235,45.517-8.992c18.031-15.484,17.834-43.781,17.83-44.065     l-0.001-26.232H316c-2.762,0-5-2.238-5-5s2.238-5,5-5h26.999c2.762,0,5,2.238,5,5v31.152c0.022,1.259,0.329,33.089-21.256,51.682     C316.906,325.712,304.268,329.971,289.043,329.972z" fill="#3F456B"/></g></g><g><g><path d="M296.352,425.014H162.395c-2.762,0-5-2.238-5-5v-20.499c0-8.483,6.901-15.385,15.384-15.385h113.188     c8.483,0,15.385,6.901,15.385,15.385v20.499C301.352,422.775,299.113,425.014,296.352,425.014z M167.395,415.014h123.957v-15.499     c0-2.969-2.416-5.385-5.385-5.385H172.778c-2.969,0-5.384,2.416-5.384,5.385V415.014z" fill="#3F456B"/></g></g><g><g><path d="M217.431,393.092c-2.762,0-5-2.238-5-5v-17.135c0-18.841-14.077-30.465-28.981-42.771     c-2.6-2.146-5.287-4.365-7.84-6.587c-23.774-20.694-31.556-47.942-36.423-74.304c-1.87-10.134-1.818-19.896-1.768-29.336     c0.022-4.157,0.045-8.456-0.098-12.724c-0.093-2.76,2.069-5.071,4.83-5.164c2.734-0.083,5.071,2.069,5.164,4.83     c0.149,4.461,0.126,8.858,0.104,13.111c-0.051,9.39-0.098,18.26,1.602,27.467c7.679,41.589,20.473,57.537,33.155,68.576     c2.454,2.137,4.974,4.217,7.641,6.419c15.287,12.623,32.614,26.93,32.614,50.482v17.135     C222.431,390.854,220.192,393.092,217.431,393.092z" fill="#3F456B"/></g></g><g><g><path d="M241.314,393.092c-2.762,0-5-2.238-5-5v-17.135c0-23.604,17.321-37.933,32.604-50.574     c2.624-2.171,5.103-4.221,7.521-6.327c21.325-18.562,28.475-43.929,33.024-68.576c1.717-9.299,1.693-18.251,1.668-27.729     c-0.011-4.169-0.021-8.48,0.125-12.851c0.091-2.702,2.311-4.832,4.994-4.832c0.057,0,0.113,0.001,0.171,0.003     c2.76,0.093,4.922,2.405,4.829,5.165c-0.141,4.188-0.13,8.408-0.119,12.488c0.025,9.517,0.051,19.358-1.834,29.569     c-4.879,26.433-12.652,53.728-36.292,74.305c-2.515,2.188-5.158,4.375-7.714,6.489c-14.902,12.328-28.979,23.972-28.979,42.869     v17.135C246.314,390.854,244.076,393.092,241.314,393.092z" fill="#3F456B"/></g></g><g><g><path d="M318.158,209.289H138.51c-8.482,0-15.384-6.901-15.384-15.384v-2.077c0-8.482,6.901-15.384,15.384-15.384     h179.648c8.483,0,15.385,6.901,15.385,15.384v2.077C333.543,202.388,326.642,209.289,318.158,209.289z M138.51,186.444     c-2.969,0-5.384,2.415-5.384,5.384v2.077c0,2.969,2.415,5.384,5.384,5.384h179.648c2.969,0,5.385-2.415,5.385-5.384v-2.077     c0-2.969-2.416-5.384-5.385-5.384H138.51z" fill="#3F456B"/></g></g><g><g><path d="M228.334,301.19c-20.221,0-36.672-16.451-36.672-36.672s16.451-36.672,36.672-36.672     c20.222,0,36.673,16.451,36.673,36.672S248.556,301.19,228.334,301.19z M228.334,237.847c-14.707,0-26.672,11.965-26.672,26.672     s11.965,26.672,26.672,26.672s26.673-11.965,26.673-26.672S243.041,237.847,228.334,237.847z" fill="#3F456B"/></g></g><g><g><path d="M169,160.6c-2.762,0-5-2.238-5-5v-48c0-2.762,2.238-5,5-5h15.031c0.529,0,5.316,0.071,10.224,2.529     C201.185,108.601,205,115.16,205,123.6c0,6.33-1.937,11.352-5.756,14.925c-5.536,5.18-12.859,5.145-14.375,5.075H174v12     C174,158.361,171.762,160.6,169,160.6z M185.333,133.61c0.007-0.001,4.387,0.177,7.124-2.431c1.688-1.607,2.543-4.157,2.543-7.58     c0-4.613-1.584-7.603-4.986-9.407c-2.885-1.529-5.986-1.593-6.018-1.593H174v21h11C185.111,133.6,185.222,133.604,185.333,133.61     L185.333,133.61z" fill="#3F456B"/></g></g><g><g><path d="M265,161.1c-2.762,0-5-2.238-5-5v-49c0-2.762,2.238-5,5-5h19.683c6.961,0,17.317,4.462,17.317,16.756     c0,6.01-2.475,9.68-4.55,11.699c-4.775,4.646-11.395,4.763-12.499,4.729H270V156.1C270,158.861,267.762,161.1,265,161.1z      M270,125.283h15c0.054,0,0.101,0.002,0.163,0.002c0.94,0,3.744-0.341,5.344-1.928c1.005-0.997,1.493-2.47,1.493-4.502     c0-6.43-6.096-6.756-7.317-6.756H270V125.283z" fill="#3F456B"/></g></g><g><g><path d="M297.004,160.101c-1.849,0-3.626-1.029-4.494-2.801l-12-24.489c-1.215-2.479-0.189-5.475,2.29-6.69     c2.481-1.214,5.477-0.188,6.69,2.29l12,24.489c1.215,2.479,0.189,5.475-2.29,6.69     C298.492,159.937,297.742,160.101,297.004,160.101z" fill="#3F456B"/></g></g><g><g><path d="M136.002,161.1c-16.297,0-21.507-10.849-21.984-16.585c-0.229-2.752,1.815-5.168,4.567-5.397     c2.74-0.221,5.169,1.814,5.397,4.567c0.144,1.166,1.436,7.415,12.02,7.415c9.277,0,9.998-5.698,9.998-7.444     c0-2.965,0-7.444-10.936-7.444c-7.207,0-12.65-1.949-16.179-5.795c-3.661-3.99-3.865-8.599-3.825-10.087     c-0.051-1.614,0.09-7.617,4.589-12.446c3.575-3.837,8.762-5.783,15.415-5.783c15.523,0,20.314,10.75,20.68,16.434     c0.177,2.756-1.914,5.133-4.67,5.311c-2.738,0.162-5.094-1.88-5.306-4.602c-0.171-1.692-1.45-7.143-10.704-7.143     c-3.767,0-6.491,0.875-8.099,2.6c-2,2.147-1.915,5.239-1.913,5.27c0.023,0.326,0.04,0.426,0.002,0.723     c0.004,0.323,0.086,1.817,1.288,3.058c1.561,1.61,4.576,2.462,8.722,2.462c13.501,0,20.936,6.195,20.936,17.444     C156,149.688,151.82,161.1,136.002,161.1z" fill="#3F456B"/></g></g><g><g><path d="M343,112.6h-34c-2.762,0-5-2.238-5-5s2.238-5,5-5h34c2.762,0,5,2.238,5,5S345.762,112.6,343,112.6z" fill="#3F456B"/></g></g><g><g><path d="M325.484,160.6c-2.762,0-5-2.238-5-5v-47.5c0-2.762,2.238-5,5-5s5,2.238,5,5v47.5     C330.484,158.361,328.246,160.6,325.484,160.6z" fill="#3F456B"/></g></g><g><g><path d="M238,160.6h-12c-8.271,0-15-6.729-15-15v-28c0-8.271,6.729-15,15-15h12c8.271,0,15,6.729,15,15v28     C253,153.871,246.271,160.6,238,160.6z M226,112.6c-2.757,0-5,2.243-5,5v28c0,2.757,2.243,5,5,5h12c2.757,0,5-2.243,5-5v-28     c0-2.757-2.243-5-5-5H226z" fill="#3F456B"/></g></g><g><g><path d="M388,319c-2.762,0-5-2.238-5-5V214c0-2.762,2.238-5,5-5s5,2.238,5,5v100C393,316.762,390.762,319,388,319     z" fill="#3F456B"/></g></g><g><g><path d="M365.179,422.009c-1.979,0-3.517-0.882-4.159-1.25c-4.241-2.425-7.847-5.477-11.333-8.428l-1.315-1.111     c-1.445-1.215-2.718-2.302-3.808-3.25c-6.36,2.478-16.253,5.574-21.752,4.754c-3.798-0.567-5.62-2.575-6.479-4.16     c-1.509-2.781-0.812-5.607-0.359-6.869c1.246-4.794,6.068-14.121,8.81-19.215c-5.282-6.45-9.463-13.327-10.639-15.48     c-1.054-1.925-1.501-3.833-1.327-5.668c0.208-2.2,1.355-4.412,3.069-5.918c0.557-0.486,1.178-0.895,1.857-1.222     c1.445-0.695,3.125-1.002,4.976-0.921c2.453,0.113,10.469,0.855,18.579,2.771c3.374-4.697,9.642-13.122,13.402-16.345     c0.936-0.961,3.175-2.837,6.331-2.69c1.801,0.077,4.404,0.833,6.58,3.997c3.113,4.527,4.669,14.591,5.249,21.393     c6.432,2.278,12.419,5.249,18.213,9.029c3.873,2.529,4.999,7.063,2.681,10.784c-0.988,1.589-2.284,2.583-3.421,3.389     c-3.544,2.51-7.202,4.658-10.739,6.736l-1.952,1.148c-0.49,0.29-1.029,0.585-1.569,0.878c-0.425,0.23-0.85,0.46-1.237,0.689     c-0.065,0.038-0.137,0.079-0.215,0.121c-0.051,1.088-0.083,2.188-0.115,3.324c-0.067,2.3-0.137,4.678-0.376,7.134     c-0.032,0.327-0.054,0.771-0.082,1.29c-0.26,4.799-0.743,13.732-7.699,14.984C365.944,421.977,365.554,422.009,365.179,422.009z      M345.557,397.158c1.231,0,2.445,0.454,3.387,1.32c0.907,0.835,2.661,2.396,5.862,5.087l1.343,1.134     c2.54,2.15,4.971,4.208,7.537,5.942c0.23-1.571,0.331-3.436,0.376-4.263c0.038-0.693,0.072-1.284,0.114-1.719     c0.206-2.118,0.268-4.225,0.333-6.456c0.06-2.048,0.121-4.167,0.304-6.348c0.065-0.791,0.319-1.556,0.739-2.229l0.047-0.075     c1.03-1.65,2.666-2.419,3.861-2.979c0.135-0.063,0.262-0.121,0.363-0.174c0.41-0.244,0.942-0.535,1.477-0.824     c0.429-0.233,0.857-0.465,1.249-0.696l1.98-1.166c3.043-1.787,5.94-3.488,8.736-5.383c-5.267-3.18-10.74-5.634-16.656-7.475     c-2.014-0.627-3.417-2.448-3.51-4.555c-0.294-6.673-1.595-14.342-2.952-18.006c-3.283,3.38-9.262,11.438-12.662,16.311     c-1.219,1.746-3.407,2.53-5.456,1.951c-7.188-2.024-15.051-2.928-18.452-3.206c1.742,2.936,6,9.602,10.975,15.176     c1.417,1.588,1.674,3.898,0.64,5.759c-2.888,5.195-7.506,14.103-9.104,18.534c3.889-0.388,11.351-2.582,17.477-5.245     C344.205,397.294,344.884,397.158,345.557,397.158z M325.307,405.263c-0.003,0.006-0.006,0.011-0.008,0.017     C325.301,405.274,325.304,405.269,325.307,405.263z" fill="#384169"/></g></g><g><g><rect fill="#FFFFFF" height="78" width="46" x="44" y="129"/></g></g><g><g><path d="M90,212H44c-2.762,0-5-2.238-5-5v-78c0-2.762,2.238-5,5-5h46c2.762,0,5,2.238,5,5v78     C95,209.762,92.762,212,90,212z M49,202h36v-68H49V202z" fill="#3F456B"/></g></g><g><g><path d="M90,173H44c-2.762,0-5-2.238-5-5s2.238-5,5-5h46c2.762,0,5,2.238,5,5S92.762,173,90,173z" fill="#3F456B"/></g></g></g><g id="Lines"><g><g><path d="M461.654,470.067c-0.862,0-1.504-0.038-1.875-0.067H54c-13.306,0-23.924-4.208-31.561-12.508     C8.655,442.512,9.812,419.519,10,416.813V96.5c0-1.335,0.534-2.615,1.483-3.554c0.949-0.939,2.21-1.486,3.568-1.446l43.001,0.448     l0.447-43c0.029-2.741,2.259-4.948,5-4.948H424c2.762,0,5,2.238,5,5v368c0,0.104-0.003,0.208-0.01,0.312     c-0.013,0.216-1.191,22.382,10.333,34.613C444.443,457.358,451.206,460,460,460c0.007,0,0.013,0.002,0.021,0     c0.006,0,0.012,0,0.017,0c0.188,0.002,0.372,0.013,0.555,0.034c0.633,0.061,9.788,0.764,17.634-6.336     C486.038,446.631,490,434.283,490,417V134h-18.857c-2.762,0-5-2.238-5-5s2.238-5,5-5H495c2.762,0,5,2.238,5,5v288     c0,20.354-5.129,35.25-15.245,44.275C475.979,469.105,466.013,470.066,461.654,470.067z M20,101.553V417     c0,0.139-0.006,0.277-0.018,0.415c-0.016,0.2-1.533,21.016,9.85,33.343C35.495,456.891,43.626,460,54,460h379.247     c-0.421-0.406-0.834-0.825-1.238-1.256c-14.035-14.94-13.14-39.395-13.009-41.885V54H68.448L68,97.052     C67.971,99.796,65.738,102,63.001,102c-0.018,0-0.035,0-0.053,0L20,101.553z" fill="#3F456B"/></g></g><g><g><path d="M458,444c-3.345,0-6.363-1.307-8.729-3.778c-6.589-6.881-6.396-21.218-6.271-24.326V69.5h-19     c-2.762,0-5-2.238-5-5s2.238-5,5-5h24c2.762,0,5,2.238,5,5V91h18c2.762,0,5,2.238,5,5v319.8c0.181,2.39,0.83,15.586-6.066,23.108     C466.88,442.239,462.753,444,458,444z M453,101v315c0,0.072-0.002,0.145-0.005,0.217c-0.221,5.349,0.719,14.192,3.501,17.093     c0.552,0.575,0.984,0.69,1.504,0.69c1.951,0,3.398-0.585,4.554-1.84c3.571-3.88,3.7-12.888,3.464-15.736     C466.007,416.286,466,416.138,466,416V101H453z" fill="#3F456B"/></g></g><g><g><path d="M15,101c-1.297,0-2.593-0.502-3.572-1.502c-1.933-1.973-1.898-5.139,0.074-7.07l48-47     c1.973-1.932,5.139-1.898,7.07,0.074c1.933,1.973,1.898,5.139-0.074,7.07l-48,47C17.525,100.525,16.262,101,15,101z" fill="#3F456B"/></g></g><g><g><path d="M458,444h-31.269c-2.762,0-5-2.238-5-5s2.238-5,5-5H458c2.762,0,5,2.238,5,5S460.762,444,458,444z" fill="#3F456B"/></g></g></g></svg>