<?xml version="1.0" ?><svg viewBox="0 0 512 512" xmlns="http://www.w3.org/2000/svg"><defs><style>.cls-1{fill:#3f456b;}</style></defs><title/><g id="Lines"><path class="cls-1" d="M475.56,485.5H435.05c-13.51,0-24.51-12-24.51-26.77V326.27c0-14.76,11-26.77,24.51-26.77h40.51c13.52,0,24.51,12,24.51,26.77V458.73C500.07,473.49,489.08,485.5,475.56,485.5Zm-40.51-176c-8,0-14.51,7.52-14.51,16.77V458.73c0,9.25,6.51,16.77,14.51,16.77h40.51c8,0,14.51-7.52,14.51-16.77V326.27c0-9.25-6.51-16.77-14.51-16.77Z"/><path class="cls-1" d="M77.63,485.5H37.11c-13.51,0-24.51-12-24.51-26.66V327c0-14.7,11-26.66,24.51-26.66H77.63c13.51,0,24.51,12,24.51,26.66V458.84C102.14,473.54,91.14,485.5,77.63,485.5ZM37.11,310.36c-8,0-14.51,7.48-14.51,16.66V458.84c0,9.19,6.51,16.66,14.51,16.66H77.63c8,0,14.51-7.47,14.51-16.66V327c0-9.18-6.51-16.66-14.51-16.66Z"/><path class="cls-1" d="M453,195.38h-23.8a14,14,0,0,1-14-14V153.71a14,14,0,0,1,14-14H453a14,14,0,0,1,14,14v27.63A14,14,0,0,1,453,195.38Zm-23.8-45.7a4,4,0,0,0-4,4v27.63a4,4,0,0,0,4,4H453a4,4,0,0,0,4-4V153.71a4,4,0,0,0-4-4Z"/><path class="cls-1" d="M82.14,195.38H58.34a14,14,0,0,1-14-14V153.71a14,14,0,0,1,14-14h23.8a14,14,0,0,1,14,14v27.63A14,14,0,0,1,82.14,195.38Zm-23.8-45.7a4,4,0,0,0-4,4v27.63a4,4,0,0,0,4,4h23.8a4,4,0,0,0,4-4V153.71a4,4,0,0,0-4-4Z"/><path class="cls-1" d="M278,271.66a5,5,0,0,1-5-5V199.17a5,5,0,1,1,10,0v67.49A5,5,0,0,1,278,271.66Z"/><path class="cls-1" d="M257.18,271.66a5,5,0,0,1-5-5V199.17a5,5,0,0,1,10,0v67.49A5,5,0,0,1,257.18,271.66Z"/><path class="cls-1" d="M298.83,271.66a5,5,0,0,1-5-5V199.17a5,5,0,0,1,10,0v67.49A5,5,0,0,1,298.83,271.66Z"/><path class="cls-1" d="M236.35,271.66a5,5,0,0,1-5-5V199.17a5,5,0,0,1,10,0v67.49A5,5,0,0,1,236.35,271.66Z"/><path class="cls-1" d="M215.53,271.66a5,5,0,0,1-5-5V199.17a5,5,0,0,1,10,0v67.49A5,5,0,0,1,215.53,271.66Z"/><path class="cls-1" d="M126.83,180.39a5.59,5.59,0,0,1-.91-.08,5,5,0,0,1-4-5.82L136,97.62c.58-6.44,5.12-18.12,18.51-18.12h203.9c13.39,0,17.93,11.69,18.51,18.12l13.49,73.6a5,5,0,0,1-9.84,1.8L367.05,99.18c0-.18-.05-.35-.07-.53-.13-1.5-1.17-9.15-8.56-9.15H154.52c-7.67,0-8.49,8.21-8.56,9.15,0,.18,0,.36-.07.53l-14.15,77.11A5,5,0,0,1,126.83,180.39Z"/><path class="cls-1" d="M156.29,270.67H137.57a14.76,14.76,0,0,1,0-29.51h18.72a14.76,14.76,0,0,1,0,29.51Zm-18.72-19.51a4.76,4.76,0,0,0,0,9.51h18.72a4.76,4.76,0,0,0,0-9.51Z"/><path class="cls-1" d="M215.57,392.75H99.4a5,5,0,1,1,0-10H215.57a5,5,0,0,1,0,10Z"/><path class="cls-1" d="M215.57,411.5H99.4a5,5,0,1,1,0-10H215.57a5,5,0,0,1,0,10Z"/><path class="cls-1" d="M414.25,392.75H297.38a5,5,0,0,1,0-10H414.25a5,5,0,0,1,0,10Z"/><path class="cls-1" d="M414.25,411.5H297.38a5,5,0,0,1,0-10H414.25a5,5,0,0,1,0,10Z"/><path class="cls-1" d="M266.83,374a5,5,0,0,1-5-5V320.5a5,5,0,0,1,10,0V369A5,5,0,0,1,266.83,374Z"/><path class="cls-1" d="M246.17,374a5,5,0,0,1-5-5V320.5a5,5,0,0,1,10,0V369A5,5,0,0,1,246.17,374Z"/><path class="cls-1" d="M401.1,292.05a5,5,0,0,1-5-5V196c0-8.13-5.06-15-11.05-15H128c-6,0-11,6.87-11,15v91.06a5,5,0,0,1-10,0V196c0-13.78,9.44-25,21-25h257.1c11.61,0,21.05,11.22,21.05,25v91.06A5,5,0,0,1,401.1,292.05Z"/><path class="cls-1" d="M409.83,325.5H103.17c-7.54,0-13.67-6.73-13.67-15V298.23c0-8.27,6.13-15,13.67-15h63.67l2-7.81c2.22-8.38,9.07-13.76,17.46-13.76H328.1c9.08,0,16.57,5.88,17.9,14l1.84,7.55h62c7.54,0,13.67,6.73,13.67,15V310.5C423.5,318.77,417.37,325.5,409.83,325.5ZM103.17,293.23c-2,0-3.67,2.34-3.67,5V310.5c0,2.66,1.72,5,3.67,5H409.83c1.95,0,3.67-2.34,3.67-5V298.23c0-2.66-1.72-5-3.67-5H343.91a5,5,0,0,1-4.85-3.82l-2.82-11.57a3.58,3.58,0,0,1-.09-.45c-.5-3.38-3.81-5.73-8-5.73H186.3c-5.68,0-7.4,4.8-7.79,6.28l-2.95,11.53a5,5,0,0,1-4.84,3.76Z"/><path class="cls-1" d="M347.69,389.25a5,5,0,0,1-5-5V362.1a1.7,1.7,0,0,1,0-.22h0a11.73,11.73,0,0,0-3-7.6c-2.31-2.37-6-3.57-10.95-3.57h-143c-5,0-8.76,1.23-11.1,3.66a11.73,11.73,0,0,0-3,7.54v22.34a5,5,0,0,1-10,0V362.17a21.52,21.52,0,0,1,5.77-14.73c4.3-4.46,10.46-6.73,18.31-6.73h143c7.84,0,14,2.27,18.25,6.73a21.44,21.44,0,0,1,5.69,14.75v22.06A5,5,0,0,1,347.69,389.25Z"/><path class="cls-1" d="M149.06,352.7a5,5,0,0,1-3.27-1.21l-17-14.73a5,5,0,1,1,6.53-7.57l17.06,14.73a5,5,0,0,1-3.27,8.78Z"/><path class="cls-1" d="M134.39,380.89a5,5,0,0,1-3.27-1.22L114.07,365a5,5,0,0,1,6.54-7.57l17,14.72a5,5,0,0,1-3.27,8.79Z"/><path class="cls-1" d="M141.9,366.82a5,5,0,0,1-3.26-1.21l-17.06-14.73a5,5,0,0,1,6.54-7.57l17,14.73a5,5,0,0,1-3.27,8.78Z"/><path class="cls-1" d="M364.34,352.7a5,5,0,0,1-3.27-8.78l17.05-14.73a5,5,0,0,1,6.54,7.57L367.6,351.49A5,5,0,0,1,364.34,352.7Z"/><path class="cls-1" d="M379,380.89a5,5,0,0,1-3.27-8.79l17.06-14.72a5,5,0,1,1,6.53,7.57l-17.05,14.72A5,5,0,0,1,379,380.89Z"/><path class="cls-1" d="M371.49,366.82a5,5,0,0,1-3.27-8.78l17-14.73a5,5,0,1,1,6.54,7.57l-17.05,14.73A5,5,0,0,1,371.49,366.82Z"/><path class="cls-1" d="M166.5,235.41H138a15,15,0,0,1-15-15v-12a15,15,0,0,1,15-15h28.5a15,15,0,0,1,15,15v12A15,15,0,0,1,166.5,235.41Zm-28.5-32a5,5,0,0,0-5,5v12a5,5,0,0,0,5,5h28.5a5,5,0,0,0,5-5v-12a5,5,0,0,0-5-5Z"/><path class="cls-1" d="M373.4,235.41H344.9a15,15,0,0,1-15-15v-12a15,15,0,0,1,15-15h28.5a15,15,0,0,1,15,15v12A15,15,0,0,1,373.4,235.41Zm-28.5-32a5,5,0,0,0-5,5v12a5,5,0,0,0,5,5h28.5a5,5,0,0,0,5-5v-12a5,5,0,0,0-5-5Z"/><path class="cls-1" d="M320.67,271.66a5,5,0,0,1-5-5V203.41H197.5v63.25a5,5,0,0,1-10,0V203.41a10,10,0,0,1,10-10H315.67a10,10,0,0,1,10,10v63.25A5,5,0,0,1,320.67,271.66Z"/><path class="cls-1" d="M432.67,195.57H401.1a5,5,0,0,1,0-10h31.57a5,5,0,0,1,0,10Z"/><path class="cls-1" d="M112.5,195.57H80.93a5,5,0,0,1,0-10H112.5a5,5,0,0,1,0,10Z"/><path class="cls-1" d="M192.5,75.73a24.12,24.12,0,1,1,24.12-24.11A24.14,24.14,0,0,1,192.5,75.73Zm0-38.23a14.12,14.12,0,1,0,14.12,14.12A14.14,14.14,0,0,0,192.5,37.5Z"/><path class="cls-1" d="M235.17,391.5h-1a5,5,0,1,1,0-10h1a5,5,0,0,1,0,10Z"/><path class="cls-1" d="M280.17,391.5h-1a5,5,0,0,1,0-10h1a5,5,0,1,1,0,10Z"/><path class="cls-1" d="M292.38,423H222a10,10,0,0,1-10-10V374a10,10,0,0,1,10-10h70.38a10,10,0,0,1,10,10v39A10,10,0,0,1,292.38,423Zm0-10v0ZM222,374v39h70.36l0-39Z"/><path class="cls-1" d="M192.5,89.5a5,5,0,0,1-5-5V70.73a5,5,0,0,1,10,0V84.5A5,5,0,0,1,192.5,89.5Z"/><path class="cls-1" d="M256,75.73a24.12,24.12,0,1,1,24.12-24.11A24.14,24.14,0,0,1,256,75.73Zm0-38.23a14.12,14.12,0,1,0,14.12,14.12A14.14,14.14,0,0,0,256,37.5Z"/><path class="cls-1" d="M256,89.5a5,5,0,0,1-5-5V70.73a5,5,0,0,1,10,0V84.5A5,5,0,0,1,256,89.5Z"/><path class="cls-1" d="M320.67,75.73a24.12,24.12,0,1,1,24.11-24.11A24.14,24.14,0,0,1,320.67,75.73Zm0-38.23a14.12,14.12,0,1,0,14.11,14.12A14.13,14.13,0,0,0,320.67,37.5Z"/><path class="cls-1" d="M320.67,89.5a5,5,0,0,1-5-5V70.73a5,5,0,0,1,10,0V84.5A5,5,0,0,1,320.67,89.5Z"/><path class="cls-1" d="M185.06,390.88a5,5,0,0,1-3.66-8.41l61.11-65.38a5,5,0,0,1,7.31,6.82L188.71,389.3A5,5,0,0,1,185.06,390.88Z"/><path class="cls-1" d="M329.31,390.88a5,5,0,0,1-3.62-1.54L263.22,324a5,5,0,1,1,7.23-6.9l62.47,65.38a5,5,0,0,1-3.61,8.45Z"/><path class="cls-1" d="M373.65,270.67H354.93a14.76,14.76,0,0,1,0-29.51h18.72a14.76,14.76,0,0,1,0,29.51Zm-18.72-19.51a4.76,4.76,0,0,0,0,9.51h18.72a4.76,4.76,0,0,0,0-9.51Z"/></g><g id="Outline"><path class="cls-1" d="M287.14,302.22a5,5,0,0,1-5-5v-8a5,5,0,1,1,10,0v8A5,5,0,0,1,287.14,302.22Z"/><path class="cls-1" d="M266.08,302.22a5,5,0,0,1-5-5v-8a5,5,0,0,1,10,0v8A5,5,0,0,1,266.08,302.22Z"/><path class="cls-1" d="M245,302.22a5,5,0,0,1-5-5v-8a5,5,0,0,1,10,0v8A5,5,0,0,1,245,302.22Z"/><path class="cls-1" d="M223.94,302.22a5,5,0,0,1-5-5v-8a5,5,0,0,1,10,0v8A5,5,0,0,1,223.94,302.22Z"/><path class="cls-1" d="M456,345.94a5.06,5.06,0,0,1-1.75-.32L413.79,330.5a5,5,0,0,1,3.5-9.37L456,335.6l37.31-14a5,5,0,1,1,3.51,9.36l-39.06,14.67A5.07,5.07,0,0,1,456,345.94Z"/><path class="cls-1" d="M456,375.39a5.06,5.06,0,0,1-1.75-.32l-40.47-15.13a5,5,0,1,1,3.5-9.36L456,365.05l37.31-14a5,5,0,1,1,3.51,9.36l-39.06,14.67A5.07,5.07,0,0,1,456,375.39Z"/><path class="cls-1" d="M456,404.83a5,5,0,0,1-1.75-.31l-40.47-15.13a5,5,0,0,1,3.5-9.37L456,394.49l37.31-14a5,5,0,0,1,3.51,9.36l-39.06,14.66A4.85,4.85,0,0,1,456,404.83Z"/><path class="cls-1" d="M456,434.28a4.84,4.84,0,0,1-1.75-.32l-40.47-15.12a5,5,0,0,1,3.5-9.37L456,423.94l37.31-14a5,5,0,1,1,3.51,9.37L457.77,434A5.07,5.07,0,0,1,456,434.28Z"/><path class="cls-1" d="M456,463.73a5.06,5.06,0,0,1-1.75-.32l-40.47-15.12a5,5,0,0,1,3.5-9.37L456,453.39l37.31-14a5,5,0,1,1,3.51,9.36l-39.06,14.67A5.07,5.07,0,0,1,456,463.73Z"/><path class="cls-1" d="M58.08,346.62a5,5,0,0,1-1.75-.31L15.86,331.26a5,5,0,0,1,3.49-9.38l38.72,14.41,37.32-14a5,5,0,0,1,3.5,9.37L59.83,346.3A4.84,4.84,0,0,1,58.08,346.62Z"/><path class="cls-1" d="M58.08,375.92a5,5,0,0,1-1.75-.31L15.86,360.56a5,5,0,1,1,3.49-9.37l38.72,14.4,37.32-13.94a5,5,0,1,1,3.5,9.36l-39.06,14.6A5,5,0,0,1,58.08,375.92Z"/><path class="cls-1" d="M58.08,405.23a5.29,5.29,0,0,1-1.75-.31L15.86,389.86a5,5,0,0,1,3.49-9.37l38.72,14.4L95.39,381a5,5,0,0,1,3.5,9.37L59.83,404.91A5.06,5.06,0,0,1,58.08,405.23Z"/><path class="cls-1" d="M58.08,434.53a5,5,0,0,1-1.75-.31L15.86,419.17a5,5,0,0,1,3.49-9.38L58.07,424.2l37.32-13.95a5,5,0,0,1,3.5,9.37l-39.06,14.6A5,5,0,0,1,58.08,434.53Z"/><path class="cls-1" d="M58.08,463.84a5.06,5.06,0,0,1-1.75-.32l-40.47-15a5,5,0,1,1,3.49-9.37l38.72,14.4,37.32-13.94a5,5,0,1,1,3.5,9.36l-39.06,14.6A5.06,5.06,0,0,1,58.08,463.84Z"/><path class="cls-1" d="M115.36,392.13a5,5,0,0,1-4.39-7.4l36.35-66.63a5,5,0,1,1,8.78,4.8l-36.35,66.62A5,5,0,0,1,115.36,392.13Z"/><path class="cls-1" d="M398,392.13a5,5,0,0,1-4.39-2.61L357.29,322.9a5,5,0,0,1,8.78-4.8l36.35,66.63a5,5,0,0,1-2,6.78A4.93,4.93,0,0,1,398,392.13Z"/></g></svg>