<?xml version="1.0" ?><svg id="Lines" viewBox="0 0 512 512" xmlns="http://www.w3.org/2000/svg"><defs><style>.cls-1{fill:#3f456b;}</style></defs><title/><path class="cls-1" d="M150,133h-5.5a5,5,0,0,1,0-10H150a5,5,0,0,0,5-5V25a5,5,0,0,0-5-5H48a5,5,0,0,0-5,5v93a5,5,0,0,0,5,5h6a5,5,0,0,1,0,10H48a15,15,0,0,1-15-15V25A15,15,0,0,1,48,10H150a15,15,0,0,1,15,15v93A15,15,0,0,1,150,133Z"/><path class="cls-1" d="M190.39,491.72a5,5,0,0,1-2.23-9.48c30.3-15.07,27.87-78.38,27.84-79V127c0-25,0-53.25,11.54-76C241.21,24.09,267.85,11,309,11h90a5,5,0,0,1,0,10H309c-37,0-60.75,11.3-72.54,34.54C226,76.15,226,103.16,226,127V402.89c.18,4.22,2.33,70.54-33.39,88.31A5,5,0,0,1,190.39,491.72Z"/><path class="cls-1" d="M232,500c-37.77,0-64.26-13.42-78.76-39.87C140.69,437.22,139,408.79,139,384V191a5,5,0,0,1,10,0V384c0,23.53,1.55,50.4,13,71.32C174.79,478.66,197.69,490,232,490c23.55,0,41.75-6.58,54.1-19.57C299.31,456.55,306,435.21,306,407V127c0-24.79,1.69-53.22,14.24-76.13C334.74,24.42,361.23,11,399,11c26.39,0,47,7.63,61.35,22.68C475.38,49.48,483,73.14,483,104V384a5,5,0,0,1-10,0V104c0-28.21-6.69-49.55-19.9-63.43C440.75,27.58,422.55,21,399,21c-34.31,0-57.21,11.34-70,34.68C317.55,76.6,316,103.47,316,127V407c0,30.86-7.62,54.52-22.65,70.32C279,492.37,258.39,500,232,500Z"/><path class="cls-1" d="M54,163.12a5,5,0,0,1-5-5V121a15,15,0,0,1,15-15h70a15,15,0,0,1,15,15v37.08a5,5,0,1,1-10,0V121a5,5,0,0,0-5-5H64a5,5,0,0,0-5,5v37.12A5,5,0,0,1,54,163.12Z"/><path class="cls-1" d="M232,500H142c-41.15,0-67.79-13.09-81.46-40C49,437.25,49,409,49,384V191.62a5,5,0,0,1,10,0V384c0,23.84,0,50.85,10.46,71.46C81.25,478.7,105,490,142,490h90a5,5,0,0,1,0,10Z"/><path class="cls-1" d="M433.63,434.63a27.58,27.58,0,0,1-17.05-6.31l-.16-.14c-8.26-7.66-19.13-17.82-24-22.64A32.88,32.88,0,0,1,383,384V107.78c0-.64,2.46-63.95-27.84-79a5,5,0,0,1,4.45-9c35.72,17.77,33.57,84.09,33.39,88.31V384a23,23,0,0,0,6.54,14.46c4.7,4.7,15.39,14.7,23.58,22.29,1.3,1.07,10.69,8.15,19.72,0,8.31-7.46,19.06-17.76,23.62-22.33A23,23,0,0,0,473,384a5,5,0,0,1,5-4.94h0a5,5,0,0,1,5,5,32.88,32.88,0,0,1-9.46,21.54c-4.65,4.64-15.58,15.11-24,22.69A23.3,23.3,0,0,1,433.63,434.63Z"/><path class="cls-1" d="M154,196H46a15,15,0,0,1-15-15V169a15,15,0,0,1,15-15H154a15,15,0,0,1,15,15v12A15,15,0,0,1,154,196ZM46,164a5,5,0,0,0-5,5v12a5,5,0,0,0,5,5H154a5,5,0,0,0,5-5V169a5,5,0,0,0-5-5Z"/><path class="cls-1" d="M160,52.5H38a5,5,0,0,1,0-10H160a5,5,0,0,1,0,10Z"/><path class="cls-1" d="M96,116a5,5,0,0,1-5-5V31a5,5,0,0,1,10,0v80A5,5,0,0,1,96,116Z"/><path class="cls-1" d="M435,101h-1a5,5,0,0,1,0-10h1a5,5,0,0,1,0,10Z"/><path class="cls-1" d="M435,165.93h-1a5,5,0,0,1,0-10h1a5,5,0,0,1,0,10Z"/><path class="cls-1" d="M435,230.86h-1a5,5,0,0,1,0-10h1a5,5,0,0,1,0,10Z"/><path class="cls-1" d="M435,295.8h-1a5,5,0,0,1,0-10h1a5,5,0,0,1,0,10Z"/><path class="cls-1" d="M435,360.73h-1a5,5,0,0,1,0-10h1a5,5,0,0,1,0,10Z"/></svg>