<?xml version="1.0" ?><svg viewBox="0 0 512 512" xmlns="http://www.w3.org/2000/svg"><defs><style>.cls-1{fill:#3f456b;}</style></defs><title/><g id="Lines"><path class="cls-1" d="M480,253H457a5,5,0,0,1,0-10h23a11.78,11.78,0,0,0,12-11.87V178.22c0-6.5-5-11.22-12-11.22H457a5,5,0,0,1,0-10h23c12.31,0,22,9.32,22,21.22v52.91A21.69,21.69,0,0,1,480,253Z"/><path class="cls-1" d="M480,355H457a5,5,0,0,1,0-10h23c6.82,0,12-4.93,12-11.47V280.62c0-6.84-5.48-12.62-12-12.62H457a5,5,0,0,1,0-10h23c12.11,0,22,10.15,22,22.62v52.91C502,345.57,492.35,355,480,355Z"/><path class="cls-1" d="M480,458H457a5,5,0,0,1,0-10h23a12,12,0,0,0,12-12.07V383a12,12,0,0,0-12-12H457a5,5,0,0,1,0-10h23a22,22,0,0,1,22,22v52.91A22,22,0,0,1,480,458Z"/><path class="cls-1" d="M438,501H66c-36,0-36-24.84-36-33V44c0-16,2.32-33,30-33H437c25,0,25,18.82,25,25V54h18a21.66,21.66,0,0,1,22,21.82v52.9A22.14,22.14,0,0,1,480,151H462V476C462,491.65,453,501,438,501ZM60,21c-18.11,0-20,7-20,23V468c0,11.13,2,23,26,23H438c12.55,0,14-8.56,14-15V146a5,5,0,0,1,5-5h23a12.14,12.14,0,0,0,12-12.28V75.82A11.76,11.76,0,0,0,480,64H457a5,5,0,0,1-5-5V36c0-9.95-2.32-15-15-15Z"/><path class="cls-1" d="M126,498a5,5,0,0,1-5-5V16a5,5,0,0,1,10,0V493A5,5,0,0,1,126,498Z"/><path class="cls-1" d="M232.06,239.23a4.9,4.9,0,0,1-2-.41,5,5,0,0,1-2.63-6.57,122.5,122.5,0,0,1,30.21-42.77A58.83,58.83,0,0,1,293.34,84.25H294a58.81,58.81,0,0,1,34.87,106.27,123,123,0,0,1,29.53,41.53,5,5,0,0,1-9.15,4,112.27,112.27,0,0,0-31.86-42.27,5,5,0,0,1,.7-8.23A48.81,48.81,0,0,0,294,94.25h-.52a48.82,48.82,0,0,0-25,90.53,5,5,0,0,1,.56,8.15,111.87,111.87,0,0,0-32.35,43.27A5,5,0,0,1,232.06,239.23Z"/><path class="cls-1" d="M292,262.68a102.09,102.09,0,0,1-1-204.18H292a102.09,102.09,0,0,1,1.05,204.17ZM292,68.5h-1A92.09,92.09,0,0,0,292,252.68h1A92.09,92.09,0,0,0,292,68.5Z"/><path class="cls-1" d="M63,113.62H16a5,5,0,0,1,0-10H63a5,5,0,0,1,0,10Z"/><path class="cls-1" d="M63,185.93H16a5,5,0,0,1,0-10H63a5,5,0,0,1,0,10Z"/><path class="cls-1" d="M63,259.56H16a5,5,0,0,1,0-10H63a5,5,0,0,1,0,10Z"/><path class="cls-1" d="M63,331.88H16a5,5,0,0,1,0-10H63a5,5,0,0,1,0,10Z"/><path class="cls-1" d="M63,405.5H16a5,5,0,0,1,0-10H63a5,5,0,0,1,0,10Z"/><path class="cls-1" d="M77,128a19,19,0,1,1,19-19A19,19,0,0,1,77,128Zm0-28a9,9,0,1,0,9,9A9,9,0,0,0,77,100Z"/><path class="cls-1" d="M77,200a19,19,0,1,1,19-19A19,19,0,0,1,77,200Zm0-28a9,9,0,1,0,9,9A9,9,0,0,0,77,172Z"/><path class="cls-1" d="M77,272a19,19,0,1,1,19-19A19,19,0,0,1,77,272Zm0-28a9,9,0,1,0,9,9A9,9,0,0,0,77,244Z"/><path class="cls-1" d="M77,344a19,19,0,1,1,19-19A19,19,0,0,1,77,344Zm0-28a9,9,0,1,0,9,9A9,9,0,0,0,77,316Z"/><path class="cls-1" d="M77,420a19,19,0,1,1,19-19A19,19,0,0,1,77,420Zm0-28a9,9,0,1,0,9,9A9,9,0,0,0,77,392Z"/></g><g id="Outline"><path class="cls-1" d="M374,393.67H212a5,5,0,0,1,0-10H374a5,5,0,0,1,0,10Z"/><path class="cls-1" d="M372,319H211a5,5,0,0,1,0-10H372a5,5,0,0,1,0,10Z"/><path class="cls-1" d="M373,356.33H210a5,5,0,1,1,0-10H373a5,5,0,0,1,0,10Z"/><path class="cls-1" d="M343,431H240a5,5,0,0,1,0-10H343a5,5,0,0,1,0,10Z"/></g></svg>