<?xml version="1.0" ?><svg viewBox="0 0 512 512" xmlns="http://www.w3.org/2000/svg"><defs><style>.cls-1{fill:#3f456b;}.cls-2{fill:#384169;}</style></defs><title/><g id="Lines"><path class="cls-1" d="M256.18,362.57h0c-20.48,0-34.4-14.32-35.66-15.65L20.4,144.42a5,5,0,1,1,7.12-7L227.69,339.94l.12.13c.11.12,11.82,12.5,28.37,12.5,15.27,0,27.58-12.47,27.71-12.6l205.22-205a5,5,0,0,1,7.07,7.07L291,347C290.43,347.59,275.62,362.57,256.18,362.57Z"/><path class="cls-2" d="M23.54,473.86A5,5,0,0,1,20,465.33L182.31,302.94a5,5,0,0,1,7.07,7.07L27.07,472.4A5,5,0,0,1,23.54,473.86Z"/><path class="cls-2" d="M489.14,473.5a5,5,0,0,1-3.56-1.49L324.94,309.52a5,5,0,0,1,7.12-7L492.69,465a5,5,0,0,1,0,7.07A4.94,4.94,0,0,1,489.14,473.5Z"/><path class="cls-1" d="M486.81,482.6H27.07a15,15,0,0,1-15-15V144a15,15,0,0,1,15-15H150.62a5,5,0,0,1,0,10H27.07a5,5,0,0,0-5,5V467.6a5,5,0,0,0,5,5H486.81a5,5,0,0,0,5-5V144a5,5,0,0,0-5-5H359.75a5,5,0,0,1,0-10H486.81a15,15,0,0,1,15,15V467.6A15,15,0,0,1,486.81,482.6Z"/><path class="cls-1" d="M256,244A109,109,0,1,1,365,135,109.13,109.13,0,0,1,256,244Zm0-208a99,99,0,1,0,99,99A99.11,99.11,0,0,0,256,36Z"/></g><g id="Outline"><path class="cls-1" d="M256.49,165.39a31.95,31.95,0,1,1,31.95-31.95A32,32,0,0,1,256.49,165.39Zm0-53.9a22,22,0,1,0,21.95,22A22,22,0,0,0,256.49,111.49Z"/><path class="cls-1" d="M256.49,197.87a64.43,64.43,0,1,1,64.43-64.52c.06,1.88.48,22.73-9.86,33.48a20.61,20.61,0,0,1-15.2,6.47c-1.57.11-7.54.24-12.2-3.93-2.37-2.12-5.19-6.14-5.19-13.24v-23a5,5,0,0,1,10,0v23c0,2.73.62,4.68,1.86,5.79,1.78,1.59,4.73,1.41,4.75,1.41a5.25,5.25,0,0,1,.56,0,10.85,10.85,0,0,0,8.21-3.39c6.35-6.59,7.26-21.21,7.07-26.28v-.19a54.37,54.37,0,1,0-32.21,49.71,5,5,0,1,1,4.08,9.12A63.82,63.82,0,0,1,256.49,197.87Z"/></g></svg>