<?xml version="1.0" ?><svg viewBox="0 0 512 512" xmlns="http://www.w3.org/2000/svg"><defs><style>.cls-1{fill:#384169;}.cls-2{fill:#3f456b;}</style></defs><title/><g id="Lines"><path class="cls-1" d="M486,408H26a15,15,0,0,1-15-15V381a15,15,0,0,1,15-15H486a15,15,0,0,1,15,15v12A15,15,0,0,1,486,408ZM26,376a5,5,0,0,0-5,5v12a5,5,0,0,0,5,5H486a5,5,0,0,0,5-5V381a5,5,0,0,0-5-5Z"/><path class="cls-1" d="M80.68,376a4.53,4.53,0,0,1-.89-.08,5,5,0,0,1-4-5.8c11.77-65.59,34.14-190.37,34.59-193.23a104.91,104.91,0,0,1,18.75-45.65c12.51-17,34.33-27.1,57-26.22,11.77.45,22.52,4.3,32.92,8,4.8,1.72,9.76,3.5,14.66,4.86,14,3.89,28.6,3.33,47.49-1.82,4-1.1,8.07-2.33,12.34-3.62,15.24-4.63,31-9.42,47.18-8.29,35.28,2.46,57.13,39.39,62.5,72.65l34.6,193.3a5,5,0,0,1-9.85,1.76L393.29,178.5c-2.5-15.48-8.8-30.91-17.31-42.41-6.92-9.35-18.78-20.74-36-22-14.34-1-29.2,3.52-43.57,7.89-4.15,1.26-8.44,2.56-12.63,3.7-20.72,5.64-37,6.2-52.8,1.81-5.24-1.46-10.37-3.3-15.34-5.08-10.13-3.63-19.7-7-29.94-7.45-19.37-.73-37.95,7.75-48.52,22.15a94.7,94.7,0,0,0-16.92,41.23C119.79,181.26,87,364.1,85.6,371.88A5,5,0,0,1,80.68,376Z"/><path class="cls-1" d="M419,305.68H95.05a5,5,0,0,1,0-10H419a5,5,0,0,1,0,10Z"/></g><g id="Outline"><path class="cls-2" d="M416,277H99a5,5,0,0,1,0-10H416a5,5,0,0,1,0,10Z"/><path class="cls-2" d="M409,245H106a5,5,0,0,1,0-10H409a5,5,0,0,1,0,10Z"/><path class="cls-2" d="M403,212H112a5,5,0,0,1,0-10H403a5,5,0,0,1,0,10Z"/><path class="cls-2" d="M391.79,180H123.21a5,5,0,1,1,0-10H391.79a5,5,0,0,1,0,10Z"/><path class="cls-2" d="M386,148H129a5,5,0,0,1,0-10H386a5,5,0,0,1,0,10Z"/></g></svg>