<?xml version="1.0" ?><svg viewBox="0 0 512 512" xmlns="http://www.w3.org/2000/svg"><defs><style>.cls-1{fill:#3f456b;}</style></defs><title/><g id="Lines"><path class="cls-1" d="M452.59,421.69a5,5,0,0,1-4.61-3.06c-9.33-22.14-10.88-45.09-4.36-64.63,2.71-8.16,7.42-14.75,12-21.13a100.48,100.48,0,0,0,8.47-13.29,49.88,49.88,0,0,0-44.7-72h-3.17a49.88,49.88,0,0,0-44.7,72A99.46,99.46,0,0,0,380,332.87c4.54,6.38,9.24,13,12,21.13,6.51,19.54,5,42.49-4.36,64.63a5,5,0,1,1-9.22-3.88c8.39-19.9,9.84-40.35,4.1-57.59-2.25-6.73-6.32-12.44-10.63-18.49A108.14,108.14,0,0,1,362.52,324a59.89,59.89,0,0,1,53.66-86.45h3.17A59.89,59.89,0,0,1,473,324a110.13,110.13,0,0,1-9.28,14.64c-4.31,6.05-8.38,11.76-10.63,18.49-5.74,17.24-4.29,37.69,4.09,57.59a5,5,0,0,1-2.66,6.55A5.17,5.17,0,0,1,452.59,421.69Z"/><path class="cls-1" d="M482,500H355.64a5,5,0,0,1-5-5V463a5,5,0,0,1,10,0v27H477V463a5,5,0,0,1,10,0v32A5,5,0,0,1,482,500Z"/><path class="cls-1" d="M497,468.12H336a5,5,0,0,1-5-5v-23a2.17,2.17,0,0,1,0-.26c.33-15.32,13-28.15,28-28.15H474c15.24,0,27.64,12.8,27.66,28.53L502,463a5,5,0,0,1-5,5.08Zm-156-10H491.92l-.28-17.78v-.08c0-10.24-7.92-18.57-17.66-18.57H359c-9.77,0-18,8.6-18,18.77Zm160.64-17.86h0Z"/><path class="cls-1" d="M122,371a68,68,0,1,1,68-68A68.07,68.07,0,0,1,122,371Zm0-126a58,58,0,1,0,58,58A58.07,58.07,0,0,0,122,245Z"/><path class="cls-1" d="M114,333a5,5,0,0,1-3.48-1.41l-32-31a5,5,0,1,1,7-7.18L113.94,321l44.52-44.52a5,5,0,0,1,7.08,7.08l-48,48A5,5,0,0,1,114,333Z"/><path class="cls-1" d="M415.65,247.58a5,5,0,0,1-5-5V58.51C410.65,38.38,395,22,375.79,22H54.08a5,5,0,0,1,0-10H375.79c24.74,0,44.86,20.86,44.86,46.51V242.58A5,5,0,0,1,415.65,247.58Z"/><path class="cls-1" d="M355.64,500H94.25a5,5,0,0,1-5-5V362a5,5,0,0,1,10,0V490H355.64a5,5,0,0,1,0,10Z"/><path class="cls-1" d="M94.25,250.38a5,5,0,0,1-5-5V164H14.77a5,5,0,0,1-5-5L9.38,58.53C9.38,32.86,29.57,12,54.39,12S99.25,32.86,99.25,58.51V245.38A5,5,0,0,1,94.25,250.38ZM19.75,154h69.5V58.51C89.25,38.38,73.62,22,54.39,22s-35,16.38-35,36.51Z"/></g><g id="Outline"><path class="cls-1" d="M385.81,67.67h-1a5,5,0,0,1,0-10h1a5,5,0,0,1,0,10Zm-21,0h-1a5,5,0,0,1,0-10h1a5,5,0,0,1,0,10Zm-21,0h-1a5,5,0,0,1,0-10h1a5,5,0,0,1,0,10Zm-21,0h-1a5,5,0,0,1,0-10h1a5,5,0,0,1,0,10Zm-21,0h-1a5,5,0,0,1,0-10h1a5,5,0,0,1,0,10Zm-21,0h-1a5,5,0,0,1,0-10h1a5,5,0,0,1,0,10Zm-21,0h-1a5,5,0,0,1,0-10h1a5,5,0,0,1,0,10Zm-21,0h-1a5,5,0,0,1,0-10h1a5,5,0,0,1,0,10Zm-21,0h-1a5,5,0,0,1,0-10h1a5,5,0,0,1,0,10Zm-21,0h-1a5,5,0,0,1,0-10h1a5,5,0,0,1,0,10Zm-21,0h-1a5,5,0,0,1,0-10h1a5,5,0,0,1,0,10Zm-21,0h-1a5,5,0,0,1,0-10h1a5,5,0,0,1,0,10Zm-21,0h-1a5,5,0,0,1,0-10h1a5,5,0,0,1,0,10Z"/><path class="cls-1" d="M384,116H129.81a5,5,0,0,1,0-10H384a5,5,0,0,1,0,10Z"/><path class="cls-1" d="M384,164.33H129.81a5,5,0,0,1,0-10H384a5,5,0,0,1,0,10Z"/><path class="cls-1" d="M384,212.67H256a5,5,0,0,1,0-10H384a5,5,0,0,1,0,10Z"/><path class="cls-1" d="M378,261H257a5,5,0,0,1,0-10H378a5,5,0,0,1,0,10Z"/><path class="cls-1" d="M361,309.33H257a5,5,0,0,1,0-10H361a5,5,0,0,1,0,10Z"/><path class="cls-1" d="M384,357.67H256a5,5,0,0,1,0-10H384a5,5,0,0,1,0,10Z"/><path class="cls-1" d="M155,454.58a5,5,0,0,1-2.23-.52,5,5,0,0,1-2.25-6.71c9.27-18.62,22.93-22.75,30.25-23.55,12.32-1.35,21.44,4.62,29.48,9.89,5.5,3.6,10.69,7,16.65,8.23a28.29,28.29,0,0,0,16.49-1.42,35.64,35.64,0,0,1-5.76-4.85c-6.55-6.82-8.8-15.49-6.18-23.77,3.24-10.27,10.64-17.15,19.78-18.42a20.43,20.43,0,0,1,19.87,8.69c5,7.64,4.25,18.06-2.12,28.57a52,52,0,0,1-5.38,7.34c9.26,2,20.84,1.87,33.9-1.67a5,5,0,0,1,2.62,9.66c-16.58,4.48-32.82,4.29-45.6-.08a39,39,0,0,1-29.63,5.74c-7.84-1.61-14.08-5.7-20.12-9.65-7.59-5-14.14-9.28-22.92-8.32-12.31,1.35-19.3,11.9-22.37,18.07A5,5,0,0,1,155,454.58Zm99.17-51.33a11.69,11.69,0,0,0-1.56.11c-5.31.74-9.54,4.94-11.63,11.53-1.92,6.1,1,10.9,3.87,13.84a28.65,28.65,0,0,0,8.14,5.75,39.37,39.37,0,0,0,7.44-9c4.29-7.08,5.13-13.59,2.31-17.88A10.19,10.19,0,0,0,254.17,403.25Z"/><path class="cls-1" d="M60.72,247.48A5,5,0,0,1,57.2,246L41.59,230.54a5,5,0,1,1,7-7.1l15.61,15.49a5,5,0,0,1-3.52,8.55Z"/><path class="cls-1" d="M199.47,386.23a5,5,0,0,1-3.52-1.45l-15.61-15.5a5,5,0,1,1,7-7.09L203,377.68a5,5,0,0,1-3.52,8.55Z"/><path class="cls-1" d="M183.92,247.54a5,5,0,0,1-3.55-8.52l15.49-15.61a5,5,0,0,1,7.1,7l-15.5,15.61A4.94,4.94,0,0,1,183.92,247.54Z"/><path class="cls-1" d="M45.17,386.29a5,5,0,0,1-3.55-8.52l15.49-15.61a5,5,0,1,1,7.1,7l-15.5,15.61A4.94,4.94,0,0,1,45.17,386.29Z"/><path class="cls-1" d="M13.18,309.15a5,5,0,0,1,0-10l22-.08h0a5,5,0,0,1,0,10l-22,.08Z"/><path class="cls-1" d="M122.33,222a5,5,0,0,1-5-5l-.08-22a5,5,0,0,1,5-5h0a5,5,0,0,1,5,5l.08,22a5,5,0,0,1-5,5Z"/><path class="cls-1" d="M41.82,275.74a4.87,4.87,0,0,1-1.89-.38L19.57,267a5,5,0,1,1,3.8-9.25l20.35,8.34a5,5,0,0,1-1.9,9.63Z"/><path class="cls-1" d="M223.11,350.83a4.88,4.88,0,0,1-1.9-.38l-20.35-8.34a5,5,0,0,1,3.79-9.25L225,341.2a5,5,0,0,1-1.89,9.63Z"/><path class="cls-1" d="M155.66,228.64a5,5,0,0,1-1.89-.37,5,5,0,0,1-2.73-6.52l8.34-20.36a5,5,0,1,1,9.25,3.8l-8.34,20.35A5,5,0,0,1,155.66,228.64Z"/><path class="cls-1" d="M122.25,417.54h0a5,5,0,0,1-5-5l.08-22a5,5,0,0,1,5-5h0a5,5,0,0,1,5,5l-.08,22A5,5,0,0,1,122.25,417.54Z"/><path class="cls-1" d="M164,409.25a5,5,0,0,1-4.63-3.1L151,385.79a5,5,0,1,1,9.25-3.79l8.34,20.35a5,5,0,0,1-4.62,6.9Z"/><path class="cls-1" d="M21.5,350.9a5,5,0,0,1-1.93-9.61l20.29-8.49A5,5,0,0,1,43.72,342l-20.29,8.49A4.86,4.86,0,0,1,21.5,350.9Z"/><path class="cls-1" d="M202.79,275.81a5,5,0,0,1-1.93-9.61l20.29-8.49a5,5,0,0,1,3.86,9.22l-20.29,8.49A4.9,4.9,0,0,1,202.79,275.81Z"/><path class="cls-1" d="M209.4,309.15a5,5,0,0,1,0-10l22-.08h0a5,5,0,0,1,0,10l-22,.08Z"/></g></svg>