<?xml version="1.0" ?><svg viewBox="0 0 512 512" xmlns="http://www.w3.org/2000/svg"><defs><style>.cls-1{fill:#3f456b;}</style></defs><title/><g id="Lines"><path class="cls-1" d="M73.2,454.52a34.85,34.85,0,1,1,34.85-34.85A34.89,34.89,0,0,1,73.2,454.52Zm0-59.69a24.85,24.85,0,1,0,24.85,24.84A24.86,24.86,0,0,0,73.2,394.83Z"/><path class="cls-1" d="M349,423.34a5,5,0,0,1-5-4.78,24.84,24.84,0,0,0-49.63-.14,5,5,0,1,1-10-.49,34.84,34.84,0,0,1,69.61.19,5,5,0,0,1-4.77,5.21Z"/><path class="cls-1" d="M73.2,424.4a5,5,0,0,1-5-5v-1a5,5,0,0,1,10,0v1A5,5,0,0,1,73.2,424.4Z"/><path class="cls-1" d="M264,423.34a5,5,0,0,1-5-4.78,24.84,24.84,0,0,0-49.62-.28,5,5,0,1,1-10-.55,34.84,34.84,0,0,1,69.6.39,5,5,0,0,1-4.77,5.22Z"/><path class="cls-1" d="M133.62,398.59a34.84,34.84,0,1,1,34.85-34.84A34.88,34.88,0,0,1,133.62,398.59Zm0-59.68a24.84,24.84,0,1,0,24.85,24.84A24.86,24.86,0,0,0,133.62,338.91Z"/><path class="cls-1" d="M133.85,368.48a5,5,0,0,1-5-5v-1a5,5,0,0,1,10,0v1A5,5,0,0,1,133.85,368.48Z"/><path class="cls-1" d="M112.5,77.85a5,5,0,0,1-5-5V59.5a25,25,0,0,1,25-25h78.17a25,25,0,0,1,25,25V72.43a5,5,0,1,1-10,0V59.5a15,15,0,0,0-15-15H132.5a15,15,0,0,0-15,15V72.85A5,5,0,0,1,112.5,77.85Z"/><path class="cls-1" d="M176.5,254.5h-96a5,5,0,0,1-5-5V94A25.56,25.56,0,0,1,101,68.5H245.74A25.38,25.38,0,0,1,271,90.21L284.38,184a5,5,0,0,1-9.9,1.41L261.09,91.66A15.42,15.42,0,0,0,245.74,78.5H101A15.55,15.55,0,0,0,85.5,94V244.5h91a5,5,0,0,1,0,10Z"/><path class="cls-1" d="M176.5,254.5a5,5,0,0,1-5-5V106a5,5,0,0,1,10,0V249.5A5,5,0,0,1,176.5,254.5Z"/><path class="cls-1" d="M70.52,478.5a59.1,59.1,0,0,1-37-105.14L86.1,325.71l.13-.12c14.25-12.12,26.71-18.08,40.38-19.34,17.77-1.65,35,3,49.78,7.44l161.06,48.63a4.89,4.89,0,0,1,.75.3,59.46,59.46,0,0,1,42.6,55.18,5,5,0,1,1-10,.26,49.35,49.35,0,0,0-36.13-46,6,6,0,0,1-1-.38L173.48,323.25c-13.85-4.18-30-8.52-45.95-7.05-11.48,1.06-22.2,6.29-34.75,16.95l-2.91,2.65L40.15,380.86l-.23.2a49.1,49.1,0,0,0,30.6,87.44l251.28,0a49.08,49.08,0,0,0,40.33-21.16,5,5,0,1,1,8.22,5.69,59.07,59.07,0,0,1-48.55,25.47Z"/><path class="cls-1" d="M496.5,478.5h-96a5,5,0,0,1-5-5v-192a5,5,0,0,1,5-5h39.83a5,5,0,0,1,5,5c0,67.71,14.91,115.38,27.41,143.44,13.53,30.38,27.24,45,27.38,45.11a5,5,0,0,1-3.62,8.45Zm-91-10H486a213.08,213.08,0,0,1-22.18-38.93c-12.69-28.32-27.77-75.92-28.49-143.07H405.5Z"/><path class="cls-1" d="M400.5,454.81H149.75c-11.65,0-21.13-9.22-21.13-20.54s9.48-20.54,21.13-20.54H400.5a5,5,0,0,1,0,10H149.75c-6.13,0-11.13,4.73-11.13,10.54s5,10.54,11.13,10.54H400.5a5,5,0,0,1,0,10Z"/><path class="cls-1" d="M368.44,394.6a5,5,0,0,1-5-5V217.5c0-9.12-2.47-16-7.33-20.56-7.66-7.13-19.14-6.38-19.25-6.37H208.5l-.52,0c-.1,0-11.38-1-19,5.91-5,4.51-7.48,11.59-7.48,21a5,5,0,0,1-10,0c0-12.43,3.65-22,10.84-28.51,10.27-9.25,24.1-8.58,26.38-8.41h127.6c2.07-.12,16.19-.57,26.51,9,7,6.49,10.61,15.9,10.61,28V389.6A5,5,0,0,1,368.44,394.6Z"/><path class="cls-1" d="M31.67,387.28a5,5,0,0,1-5-5V217.69c-.15-2.17-.68-15.87,8.66-26.12,6.65-7.29,16.46-11,29.17-11H79.67a5,5,0,0,1,0,10H64.5c-9.78,0-17.11,2.6-21.78,7.73-6.9,7.57-6.08,18.62-6.07,18.73s0,.31,0,.46V382.28A5,5,0,0,1,31.67,387.28Z"/><path class="cls-1" d="M268.19,110.93H80.5a5,5,0,0,1,0-10H268.19a5,5,0,0,1,0,10Z"/><path class="cls-1" d="M336.5,190.58a5,5,0,0,1-5-5V126.5h-22v59a5,5,0,0,1-10,0v-64a5,5,0,0,1,5-5h32a5,5,0,0,1,5,5v64.08A5,5,0,0,1,336.5,190.58Z"/><path class="cls-1" d="M335,345.94a4.93,4.93,0,0,1-2.67-.78l-97.73-61.94A21,21,0,1,1,257,247.75l97.73,61.94a5,5,0,0,1,1.55,6.9l-17.13,27A5,5,0,0,1,335,345.94Zm-89.14-91.45a11,11,0,0,0-5.91,20.29L333.42,334l11.78-18.58L251.69,256.2A10.89,10.89,0,0,0,245.82,254.49Z"/><path class="cls-1" d="M400.18,368.34a5,5,0,0,1-2.67-.78l-56.66-35.91a5,5,0,0,1,5.36-8.45l56.66,35.91a5,5,0,0,1-2.69,9.23Z"/><path class="cls-1" d="M182.5,286.5H74.5a15,15,0,0,1-15-15v-12a15,15,0,0,1,15-15h108a15,15,0,0,1,15,15v12A15,15,0,0,1,182.5,286.5Zm-108-32a5,5,0,0,0-5,5v12a5,5,0,0,0,5,5h108a5,5,0,0,0,5-5v-12a5,5,0,0,0-5-5Z"/><path class="cls-1" d="M367.5,286.5h-24a5,5,0,0,1-5-5v-47a5,5,0,0,1,5-5h24a5,5,0,0,1,0,10h-19v37h19a5,5,0,0,1,0,10Z"/><path class="cls-1" d="M367.5,263h-24a5,5,0,0,1,0-10h24a5,5,0,0,1,0,10Z"/></g><g id="Outline"><path class="cls-1" d="M316.47,218.93h-3a5,5,0,0,1,0-10h3a5,5,0,0,1,0,10Zm-23,0h-3a5,5,0,0,1,0-10h3a5,5,0,0,1,0,10Zm-23,0h-3a5,5,0,0,1,0-10h3a5,5,0,0,1,0,10Zm-23,0h-3a5,5,0,1,1,0-10h3a5,5,0,0,1,0,10Z"/></g></svg>