<?xml version="1.0" ?><svg viewBox="0 0 512 512" xmlns="http://www.w3.org/2000/svg"><defs><style>.cls-1{fill:#3f456b;}</style></defs><title/><g id="Lines"><path class="cls-1" d="M257,388.21c-36.66,0-65.38-18-65.38-40.93s28.72-40.94,65.38-40.94,65.38,18,65.38,40.94S293.66,388.21,257,388.21Zm0-71.87c-30,0-55.38,14.17-55.38,30.94S227,378.21,257,378.21s55.38-14.16,55.38-30.93S287,316.34,257,316.34Z"/><path class="cls-1" d="M318,353a5,5,0,0,1-5-5V325a5,5,0,0,1,10,0v23A5,5,0,0,1,318,353Z"/><path class="cls-1" d="M222.86,287A5,5,0,0,1,221,277.4a101,101,0,0,1,71.59-.49,5,5,0,1,1-3.67,9.3,91.12,91.12,0,0,0-64.1.43A5,5,0,0,1,222.86,287Z"/><path class="cls-1" d="M196.62,353.51a5,5,0,0,1-5-4.88L191,323.77a5,5,0,1,1,10-.25l.62,24.86a5,5,0,0,1-4.87,5.12Z"/><path class="cls-1" d="M303.54,59.7a5,5,0,0,1-5-5c0-9.1-17.06-19.25-41.54-19.25S215.46,45.6,215.46,54.7a5,5,0,1,1-10,0c0-16.4,22.64-29.25,51.54-29.25S308.54,38.3,308.54,54.7A5,5,0,0,1,303.54,59.7Z"/><path class="cls-1" d="M241,249a5,5,0,0,1-5-5V165.12c0-23.38-9.77-39-9.87-39.11l-.15-.25c-19.16-34-20.71-68.71-20.77-70.17a5,5,0,0,1,10-.39h0c0,.33,1.54,33.75,19.42,65.54,1.17,1.87,11.37,18.88,11.37,44.38V244A5,5,0,0,1,241,249Z"/><path class="cls-1" d="M272.48,248.84h-.11a5,5,0,0,1-4.89-5.1c0-.49,1-49.2,1-78.61,0-28.56,8.9-42.14,10.77-44.68C297.05,88.7,298.7,55.29,298.71,55a5,5,0,0,1,10,.42c-.07,1.47-1.73,36.27-20.89,70.27l-.22.38-.28.34c-.05.07-8.82,11.49-8.82,38.75,0,29.52-1,78.33-1,78.82A5,5,0,0,1,272.48,248.84Z"/><path class="cls-1" d="M318,328.64a4.94,4.94,0,0,1-2.1-.46,5,5,0,0,1-2.67-3c-7.63-24.31-32.65-29.28-33.71-29.48a5,5,0,0,1-1.84-9.09L429.49,186.42c12.1-8,40.31-16.91,60.38,7.2,7.95,9.54,11.26,18.84,9.84,27.62-2.31,14.29-16.53,23.14-23.37,27.39-12.8,7.95-145.25,74.46-150.88,77.29l-.31.14-5.21,2.19A5,5,0,0,1,318,328.64Zm5.22-7.19h0Zm-31.35-32.26c9.22,3.92,22.16,12,29,27.82l.25-.1c5.24-2.64,137.71-69.17,149.94-76.78,8.5-5.28,17.38-11.85,18.78-20.48.94-5.81-1.64-12.41-7.65-19.63-19.31-23.18-46.06-6-47.19-5.25Z"/><path class="cls-1" d="M194.16,328.82a5,5,0,0,1-2.24-.54c-5.81-2.92-142.4-71.7-155.19-79.65l-.86-.54c-8.57-5.31-21.53-13.34-23.53-26.68-1.31-8.7,2.37-18.08,10.93-27.88,14.11-16.15,30-17.11,40.86-15.08A53.82,53.82,0,0,1,84,186.65l153,99.93a5,5,0,0,1-1.79,9.09c-.22.05-23.5,4.84-34.08,26.06a5,5,0,0,1-1.93,2.07,4.94,4.94,0,0,1-.54,2.26A5,5,0,0,1,194.16,328.82ZM56.08,187.68c-7.93,0-17,2.9-25.28,12.43-6.54,7.48-9.42,14.15-8.57,19.81,1.31,8.77,11.48,15.07,18.91,19.67l.87.54c11.19,7,126.46,65.13,150.17,77.08,7.92-15.84,21.27-24,30.61-28L78.42,195l-.21-.15C77.57,194.35,68.09,187.68,56.08,187.68Z"/><path class="cls-1" d="M54.34,484.21a32.6,32.6,0,0,1-7.3-.81c-9.55-2.2-17.39-8.84-23.31-19.73-4.95-9.11-6.11-18-3.45-26.53,4.77-15.16,20.17-23,20.82-23.34l153-75.13a5,5,0,0,1,4.41,9l-153,75.11c-.07,0-12.28,6.34-15.73,17.44-1.8,5.78-.89,12.08,2.71,18.7,4.55,8.38,10,13.2,16.76,14.75,9.29,2.14,21.4-2,36-12.46,18.32-13.09,127.7-90.34,128.8-91.12a5,5,0,0,1,5.77,8.17c-1.1.78-110.46,78-128.76,91.08C77.11,479.3,65,484.21,54.34,484.21Z"/><path class="cls-1" d="M463.5,484.21c-10.67,0-22.77-4.91-36.73-14.89C408.47,456.25,299.12,379,298,378.24a5,5,0,1,1,5.77-8.17c1.1.78,110.48,78,128.81,91.12,14.57,10.41,26.68,14.6,36,12.46,6.73-1.55,12.21-6.37,16.77-14.75,3.6-6.62,4.51-12.92,2.71-18.7-3.45-11.1-15.66-17.4-15.79-17.46L319.33,347.65a5,5,0,1,1,4.4-9l153,75.11c.69.35,16.09,8.2,20.85,23.36,2.67,8.49,1.51,17.42-3.45,26.53-5.92,10.89-13.76,17.53-23.3,19.73A32.69,32.69,0,0,1,463.5,484.21Z"/><path class="cls-1" d="M289,285.13h-.31a5,5,0,0,1-4.68-5.3c0-.17.91-17.46-8.5-27.43-4.53-4.81-10.66-7.15-18.72-7.15s-14.5,2.45-19.23,7.28c-9.93,10.13-9.7,27.34-9.7,27.51a5,5,0,1,1-10,.2c0-.88-.28-21.62,12.56-34.71,6.68-6.82,15.55-10.28,26.37-10.28s19.6,3.48,26,10.34c12.37,13.17,11.22,34,11.16,34.86A5,5,0,0,1,289,285.13Z"/></g><g id="Outline"><path class="cls-1" d="M64.93,408.43a5,5,0,0,1-.7-7h0a5,5,0,0,1,7-.69h0a5,5,0,0,1,.69,7h0a5,5,0,0,1-3.86,1.83h0A5,5,0,0,1,64.93,408.43Zm-15.06-14.2a5,5,0,0,1,.31-7.06h0a5,5,0,0,1,7.07.31h0a5,5,0,0,1-.32,7.07h0a5,5,0,0,1-3.37,1.31h0A5,5,0,0,1,49.87,394.23ZM37.18,377.64h0a5,5,0,0,1,1.59-6.89h0a5,5,0,0,1,6.89,1.6h0a5,5,0,0,1-1.59,6.89h0a5,5,0,0,1-2.64.76h0A5,5,0,0,1,37.18,377.64Zm-9.11-19a5,5,0,0,1,3.12-6.34h0a5,5,0,0,1,6.35,3.12h0a5,5,0,0,1-3.12,6.35h0a5,5,0,0,1-1.61.26h0A5,5,0,0,1,28.07,358.61Zm-4.13-20.87a5,5,0,0,1,4.7-5.28h0a5,5,0,0,1,5.28,4.69h0a5,5,0,0,1-4.69,5.29h-.3A5,5,0,0,1,23.94,337.74Zm5.5-15.27a5,5,0,0,1-3.82-6h0a5,5,0,0,1,6-3.81h0a5,5,0,0,1,3.81,5.95h0a5,5,0,0,1-4.88,3.93h0A5.63,5.63,0,0,1,29.44,322.47ZM35,303.28a5,5,0,0,1-2.23-6.72h0a5,5,0,0,1,6.72-2.22h0a5,5,0,0,1,2.22,6.71h0a5,5,0,0,1-4.47,2.76h0A5,5,0,0,1,35,303.28Zm9.93-17.34a5,5,0,0,1-.82-7h0a5,5,0,0,1,7-.83h0a5,5,0,0,1,.83,7h0A5,5,0,0,1,48,287h0A5,5,0,0,1,44.93,285.94Zm13-15.15a5,5,0,0,1,.29-7.06h0a5,5,0,0,1,7.07.29h0a5,5,0,0,1-.3,7.06h0a4.94,4.94,0,0,1-3.38,1.32h0A5,5,0,0,1,58,270.79Z"/><path class="cls-1" d="M250.4,465.32a5,5,0,0,1-4.92-5.07h0a5,5,0,0,1,5.07-4.93h0a5,5,0,0,1,4.93,5.08h0a5,5,0,0,1-5,4.92h-.08Zm15.08-5a5,5,0,0,1,4.84-5.16h0a5,5,0,0,1,5.16,4.83h0a5,5,0,0,1-4.84,5.16h-.16A5,5,0,0,1,265.48,460.32Zm-35.32,4.2a5,5,0,0,1-4.67-5.32h0a5,5,0,0,1,5.32-4.66h0a5,5,0,0,1,4.66,5.31h0a5,5,0,0,1-5,4.68h-.33Zm55.3-5.09A5,5,0,0,1,290,454h0a5,5,0,0,1,5.39,4.57h0a5,5,0,0,1-4.57,5.39h0l-.42,0h0A5,5,0,0,1,285.46,459.43ZM210,462.71a5,5,0,0,1-4.39-5.54h0a5,5,0,0,1,5.54-4.4h0a5,5,0,0,1,4.39,5.54h0a5,5,0,0,1-5,4.43h0Zm95.38-5.16a5,5,0,0,1,4.29-5.62h0a5,5,0,0,1,5.62,4.29h0a5,5,0,0,1-4.3,5.62h0a4.87,4.87,0,0,1-.66,0h0A5,5,0,0,1,305.37,457.55Zm-115.44,2.31a5,5,0,0,1-4.1-5.76h0a5,5,0,0,1,5.77-4.1h0a5,5,0,0,1,4.1,5.77h0a5,5,0,0,1-4.93,4.16h0A4.84,4.84,0,0,1,189.93,459.86Zm135.23-5.22a5,5,0,0,1,4-5.84h0a5,5,0,0,1,5.84,4h0a5,5,0,0,1-4,5.84h0a4.88,4.88,0,0,1-.93.09h0A5,5,0,0,1,325.16,454.64ZM170,455.94a5,5,0,0,1-3.77-6h0a5,5,0,0,1,6-3.77h0a5,5,0,0,1,3.77,6h0a5,5,0,0,1-4.87,3.9h0A4.67,4.67,0,0,1,170,455.94Zm174.72-5.27a5,5,0,0,1,3.65-6.06h0a5,5,0,0,1,6,3.65h0a5,5,0,0,1-3.65,6.06h0a5,5,0,0,1-1.21.15h0A5,5,0,0,1,344.76,450.67Zm-194.37.21h0a5,5,0,0,1-3.41-6.2h0a5,5,0,0,1,6.19-3.41h0a5,5,0,0,1,3.41,6.2h0a5,5,0,0,1-4.8,3.61h0A5.13,5.13,0,0,1,150.39,450.88Zm213.71-5.31a5,5,0,0,1,3.27-6.27h0a5,5,0,0,1,6.27,3.27h0a5,5,0,0,1-3.28,6.27h0a4.84,4.84,0,0,1-1.5.23h0A5,5,0,0,1,364.1,445.57Zm-233-1a5,5,0,0,1-3-6.4h0a5,5,0,0,1,6.41-3h0a5,5,0,0,1,3,6.4h0a5,5,0,0,1-4.7,3.3h0A5.08,5.08,0,0,1,131.06,444.59Zm252-5.33a5,5,0,0,1,2.84-6.47h0a5,5,0,0,1,6.47,2.84h0a5,5,0,0,1-2.84,6.47h0a4.86,4.86,0,0,1-1.82.35h0A5,5,0,0,1,383.08,439.26Z"/><path class="cls-1" d="M450.55,400.71a5,5,0,0,1,.17-7.07h0a5,5,0,0,1,7.07.17h0a5,5,0,0,1-.17,7.06h0a5,5,0,0,1-3.45,1.39h0A5,5,0,0,1,450.55,400.71Zm13.94-14.34a5,5,0,0,1-1-7h0a5,5,0,0,1,7-1h0a5,5,0,0,1,1,7h0a5,5,0,0,1-4,2h0A5,5,0,0,1,464.49,386.37Zm11.25-16.53a5,5,0,0,1-2.42-6.64h0a5,5,0,0,1,6.65-2.42h0a5,5,0,0,1,2.41,6.65h0a5,5,0,0,1-4.53,2.88h0A4.94,4.94,0,0,1,475.74,369.84Zm7.34-18.58a5,5,0,0,1-4-5.83h0a5,5,0,0,1,5.82-4h0a5,5,0,0,1,4,5.83h0a5,5,0,0,1-4.92,4.09h0A5.69,5.69,0,0,1,483.08,351.26ZM479.9,326.9a5,5,0,0,1,4.51-5.45h0a5,5,0,0,1,5.44,4.51h0a5,5,0,0,1-4.51,5.45h0l-.47,0h0A5,5,0,0,1,479.9,326.9Zm-4.23-18.13h0a5,5,0,0,1,2.92-6.44h0a5,5,0,0,1,6.44,2.93h0a5,5,0,0,1-2.93,6.44h0a5.14,5.14,0,0,1-1.75.32h0A5,5,0,0,1,475.67,308.77ZM467.05,292a5,5,0,0,1,1.42-6.93h0a5,5,0,0,1,6.93,1.42h0a5,5,0,0,1-1.42,6.92h0a5,5,0,0,1-2.75.83h0A5,5,0,0,1,467.05,292Zm-11.94-14.9a5,5,0,0,1,.18-7.07h0a5,5,0,0,1,7.07.18h0a5,5,0,0,1-.18,7.07h0a5,5,0,0,1-3.45,1.38h0A5,5,0,0,1,455.11,277.13Zm-14.27-13a5,5,0,0,1-.8-7h0a5,5,0,0,1,7-.8h0a5,5,0,0,1,.81,7h0a5,5,0,0,1-3.92,1.89h0A5,5,0,0,1,440.84,264.15Z"/><path class="cls-1" d="M370.1,228a5,5,0,0,1-3.21-6.3h0a5,5,0,0,1,6.3-3.21h0a5,5,0,0,1,3.21,6.3h0a5,5,0,0,1-4.75,3.45h0A4.91,4.91,0,0,1,370.1,228Zm-18.91-5.48h0a5,5,0,0,1-3.6-6.09h0a5,5,0,0,1,6.08-3.6h0a5,5,0,0,1,3.6,6.09h0a5,5,0,0,1-4.84,3.76h0A5.42,5.42,0,0,1,351.19,222.47ZM332,218.12a5,5,0,0,1-3.94-5.87h0a5,5,0,0,1,5.87-3.94h0a5,5,0,0,1,3.94,5.87h0a5,5,0,0,1-4.9,4h0A5.39,5.39,0,0,1,332,218.12Zm-19.45-3.28a5,5,0,0,1-4.26-5.65h0a5,5,0,0,1,5.65-4.25h0a5,5,0,0,1,4.26,5.65h0a5,5,0,0,1-4.95,4.3h0A5.49,5.49,0,0,1,312.52,214.84Zm-19.62-2.26a5,5,0,0,1-4.54-5.42h0a5,5,0,0,1,5.43-4.54h0a5,5,0,0,1,4.53,5.43h0a5,5,0,0,1-5,4.55h0A3.39,3.39,0,0,1,292.9,212.58Zm-19.72-1.26a5,5,0,0,1-4.8-5.19h0a5,5,0,0,1,5.2-4.8h0a5,5,0,0,1,4.8,5.19h0a5,5,0,0,1-5,4.8h-.2Z"/><path class="cls-1" d="M131.9,226.75a5,5,0,0,1,3.09-6.36h0a5,5,0,0,1,6.36,3.09h0a5,5,0,0,1-3.09,6.36h0a4.9,4.9,0,0,1-1.63.28h0A5,5,0,0,1,131.9,226.75Zm19-6.24a5,5,0,0,1,3.49-6.15h0a5,5,0,0,1,6.15,3.49h0a5,5,0,0,1-3.48,6.15h0a5.2,5.2,0,0,1-1.34.18h0A5,5,0,0,1,150.9,220.51Zm19.36-5a5,5,0,0,1,3.84-5.93h0a5,5,0,0,1,5.94,3.84h0a5,5,0,0,1-3.85,5.94h0a5.53,5.53,0,0,1-1.06.11h0A5,5,0,0,1,170.26,215.47Zm19.61-3.91a5,5,0,0,1,4.16-5.72h0a5,5,0,0,1,5.72,4.16h0a5,5,0,0,1-4.16,5.72h0a5.35,5.35,0,0,1-.79.06h0A5,5,0,0,1,189.87,211.56Zm19.79-2.85a5,5,0,0,1,4.46-5.5h0a5,5,0,0,1,5.49,4.46h0a5,5,0,0,1-4.45,5.49h0a4.71,4.71,0,0,1-.53,0h0A5,5,0,0,1,209.66,208.71Zm19.92-1.83a5,5,0,0,1,4.72-5.27h0a5,5,0,0,1,5.26,4.72h0a5,5,0,0,1-4.72,5.27h-.27A5,5,0,0,1,229.58,206.88Z"/></g></svg>